<svg height='100px' width='100px'  fill="#000000" xmlns="http://www.w3.org/2000/svg" xmlns:xlink="http://www.w3.org/1999/xlink" version="1.1" x="0px" y="0px" viewBox="0 0 100 100" enable-background="new 0 0 100 100" xml:space="preserve"><g display="none"><path display="inline" opacity="0.3" fill-rule="evenodd" clip-rule="evenodd" d="M22,47.15l0.6-1.199l1.504,0.331l1.439,1.711   l-0.24,1.53L22.96,50.21l-1.832-0.75l-0.24-0.868l0.721,0.506l0.84,0.155l0.783-0.631l-0.783-0.512L22,47.15L22,47.15z    M10.328,43.052l0.956,1.256l-0.418,0.78l-1.375-0.78l-2.934,1.737l-1.199-0.357l-0.059,1.075l1.558,0.781l1.675-1.918l0.6,0.362   l0.06,1.313l2.034-1.199l1.439-0.114l1.675-2.579l2.155,0.418l0.837-0.718l1.078,0.843l1.675-0.3l2.455-2.993l1.437-0.302   l1.019-1.137l2.274,0.362l1.615-0.059l3.651,0.418l0.959,0.897l-0.959,0.778l-1.855-0.181l-1.256,0.899l1.256,1.019l4.91,0.775   l1.016-0.356h1.497l1.318,1.137l2.337,0.3l1.137-0.062l0.61-0.905l1.083,0.812l0.122,0.899l2.703,1.949l2.132,0.362l0.902-0.512   l1.411,1.199l1.561-0.238l1.23,0.568l2.313-0.78l0.992,0.362l1.352,4.947l2.763,3.271l1.352,0.031l0.603-0.543l1.86,1.111   l2.944,0.031l0.421,0.837l1.352,0.48l-0.209,1.618l-2.104,0.512l-2.763,2.492l-0.059,1.494l2.884,0.512l1.951-1.018l1.442,0.6   l4.055-0.931l2.251,0.269l2.853,1.292l4.267-0.992l0.571-0.925l1.031,0.176l1.197-0.961l2.814,0.362l2.096-0.538l0.897-1.68   l-0.718-0.775l-1.497-0.181l-1.016-2.274l-3.652-1.499h-4.311l-1.138-0.419l0.897-0.837l0.6-2.037l-1.018-0.356l-1.378,0.538   l-1.556-0.119l-2.993-2.217l-0.837,0.781l-1.318-1.199l-2.215-1.675l-1.315,1.375l-0.659-0.775l0.359-1.019L69.11,48.2   l-0.538,1.018l-1.016-1.08l-3.174-0.713l-2.096-1.979l-1.915-1.075l-2.096-1.618l-4.611-0.238l-1.675-0.781l-0.6-1.793   l-1.915-2.096l-1.497,0.359l-0.777-0.958l-6.167-0.897l-2.034,0.778l-2.574-0.538l-1.497-1.796l-3.833-0.659l-3.353,0.119   l-1.674,1.378l-4.551,0.237l-3.471,0.84l-1.256,1.137l-3.533,1.018l-1.196,1.434l-1.497,0.84L10.328,43.052z"></path></g><g display="none"><path display="inline" d="M52.256,24.944l0.635,0.161c-0.132,0.523-0.373,0.921-0.719,1.193c-0.345,0.279-0.771,0.412-1.27,0.412   c-0.52,0-0.938-0.104-1.263-0.314c-0.325-0.209-0.572-0.516-0.74-0.914c-0.171-0.405-0.254-0.83-0.254-1.291   c0-0.502,0.094-0.935,0.286-1.305c0.192-0.376,0.46-0.663,0.816-0.851c0.352-0.195,0.74-0.293,1.165-0.293   c0.478,0,0.886,0.125,1.21,0.37c0.328,0.244,0.559,0.586,0.684,1.033l-0.621,0.146c-0.115-0.349-0.276-0.607-0.488-0.768   c-0.209-0.16-0.478-0.237-0.799-0.237c-0.37,0-0.677,0.091-0.928,0.265c-0.244,0.182-0.419,0.419-0.52,0.712   c-0.102,0.3-0.15,0.607-0.15,0.921c0,0.412,0.06,0.768,0.178,1.075c0.119,0.307,0.304,0.53,0.555,0.684   c0.251,0.146,0.523,0.224,0.816,0.224c0.356,0,0.66-0.098,0.904-0.307C52.001,25.656,52.169,25.349,52.256,24.944L52.256,24.944z    M58.581,21.825h0.635v2.777c0,0.481-0.056,0.865-0.164,1.144c-0.108,0.286-0.307,0.517-0.589,0.698   c-0.286,0.182-0.66,0.265-1.124,0.265c-0.45,0-0.82-0.077-1.103-0.23c-0.286-0.154-0.495-0.384-0.614-0.677   c-0.122-0.293-0.185-0.691-0.185-1.2v-2.777h0.635v2.77c0,0.419,0.042,0.726,0.119,0.921c0.077,0.202,0.209,0.355,0.397,0.46   c0.188,0.104,0.422,0.161,0.694,0.161c0.468,0,0.803-0.105,0.998-0.321c0.198-0.209,0.3-0.614,0.3-1.221V21.825L58.581,21.825z    M62,26.633v-4.808h1.807c0.367,0,0.66,0.049,0.883,0.146c0.22,0.098,0.394,0.244,0.52,0.447c0.125,0.202,0.188,0.412,0.188,0.635   c0,0.203-0.056,0.398-0.168,0.579c-0.111,0.182-0.282,0.328-0.506,0.44c0.293,0.083,0.517,0.23,0.67,0.439   c0.161,0.202,0.237,0.446,0.237,0.726c0,0.223-0.049,0.433-0.143,0.628s-0.213,0.342-0.352,0.447   c-0.14,0.104-0.318,0.181-0.527,0.237c-0.209,0.056-0.467,0.083-0.774,0.083H62L62,26.633z M62.639,23.842h1.04   c0.283,0,0.481-0.014,0.607-0.056c0.16-0.049,0.283-0.126,0.363-0.237c0.083-0.112,0.122-0.251,0.122-0.419   c0-0.16-0.039-0.3-0.112-0.418c-0.076-0.125-0.188-0.209-0.328-0.251c-0.143-0.049-0.387-0.07-0.733-0.07h-0.959V23.842   L62.639,23.842z M62.639,26.061h1.196c0.206,0,0.349-0.007,0.433-0.021c0.146-0.028,0.269-0.07,0.366-0.132   c0.098-0.063,0.178-0.146,0.244-0.265c0.063-0.119,0.095-0.251,0.095-0.405c0-0.181-0.049-0.335-0.14-0.467   c-0.091-0.133-0.216-0.23-0.38-0.279c-0.164-0.056-0.398-0.077-0.705-0.077h-1.109V26.061L62.639,26.061z M67.732,26.633   l1.845-4.808h0.684l1.964,4.808h-0.722l-0.562-1.458h-2.009l-0.527,1.458H67.732L67.732,26.633z M69.117,24.658h1.629l-0.502-1.333   c-0.15-0.405-0.266-0.733-0.339-0.998c-0.062,0.307-0.149,0.614-0.261,0.921L69.117,24.658z"></path></g><g><path fill="none" stroke="#000000" stroke-width="0.75" stroke-linecap="round" stroke-linejoin="round" stroke-miterlimit="10" d="   M5.125,45.5c0.417,0.995-0.046,1.641,1.247,2.097c1.743,0.615,0.981-1.439,2.153-1.571c0.666-0.075,0.422,0.546,0.881,0.693   c0.698,0.223,0.301,0.115,1.094-0.125c0.831-0.251,1.532-0.811,2.472-0.854c0.408-0.882,0.457-1.83,1.423-2.114   c1.154-0.34,2.405,0.689,3.351-0.391c0.46,0.421,0.378,0.989,1.135,1.021c0.448,0.02,1.024-0.637,1.341-0.888   c0.975-0.771,1.754-2.385,2.896-2.877c0.406-0.175,0.95,0.064,1.384-0.138c0.592-0.274,0.434-0.67,1.247-0.85   c1.122-0.249,2.229,0.238,3.372,0.366c0.927,0.103,2.97-0.313,3.731,0.225c1.252,0.887-0.181,1.426-1.104,1.53   c-0.859,0.098-2.715,0.072-2.13,1.375c0.461,1.026,3.036,1.543,4.005,1.597c1.708,0.094,2.86-1.359,4.497-0.315   c0.763,0.487,0.956,0.695,1.875,0.837c0.801,0.124,1.614,0.16,2.384,0.369c0.838-2.379,2.204,0.869,3.022,1.484   c1.121,0.844,3.622,2.252,4.723,1.016c1.19,1.162,1.816,0.719,3.262,0.763c0.69,0.021,1.174,0.539,1.99,0.374   c0.644-0.13,1.083-0.82,1.778-0.537c1.184,0.483,0.89,2.824,1.091,3.791c0.225,1.081,0.687,1.882,1.503,2.636   c0.703,0.65,1.656,1.242,2.41,1.738c0.271,0.178,0.426,0.623,0.742,0.825c0.222-0.134,0.939-0.942,1.098-0.936   c0.676,0.024,0.398,0.694,0.869,0.958c0.571,0.321,2.074,0.456,2.659,0.437c0.764-0.025,0.487-0.518,1.328-0.137   c-0.264-0.12,0.724,0.93,0.645,0.847c0.475,0.497,1.638,1.318,0.502,2.006c-0.392,0.238-1.073-0.166-1.505,0.113   c-0.363,0.233-0.312,0.746-0.589,1.04c-0.661,0.7-1.749,0.93-2.159,1.969c-0.553,1.402,0.388,1.458,1.597,1.653   c1.472,0.236,1.854-0.014,3.156-1.043c1.282,1.604,2.714,0.329,4.491,0.134c2.003-0.22,4.204-0.122,5.701,1.244   c-0.04-0.067-0.058-0.139-0.054-0.217C81.821,65.675,82.827,65.067,84,65c0.523-0.03,1.029,0.088,1.475-0.15   c0.397-0.212,0.172-0.626,0.903-0.853c0.204-0.063,0.388,0.256,0.526,0.227c0.285-0.061,0.524-0.296,0.824-0.383   c0.521-0.151,0.601-0.521,1.272-0.472c0.521,0.038,0.807,0.489,1.375,0.506c0.539,0.016,0.866-0.232,1.337-0.406   c0.874-0.322,2.161-0.737,2.037-1.969c-0.133-1.323-1.447-0.603-2.118-1.372c-0.94-1.079-0.503-1.493-1.981-2.28   c-0.832-0.443-1.693-1.217-2.645-1.351c-1.492-0.209-4.554,1.193-5.496-0.485c1.051,0.53,1.13-1.164,1.087-1.79   c-0.048-0.708,0.307-0.538-0.25-0.968c-0.372-0.287-0.962-0.181-1.347-0.157c-1.665,0.103-3.988-0.025-4.9-1.962   c-0.402,0.152-0.846,0.342-1.096,0.568c-0.763-1.246-1.569-2.239-2.851-3.062c-0.135,0.402-0.832,1.562-1.185,1.709   c-0.773,0.321-0.933-0.272-1.456-0.844c0.164-0.164,0.304-0.682,0.478-0.856c-0.513-0.627-1.163-0.362-1.491,0.24   c-1.012-0.832-0.979-0.776-2.25-0.887c-1.336-0.117-2.05-0.817-3.131-1.484c-0.96-0.593-1.815-1.019-2.591-1.922   c-0.693-0.807-1.17-1.398-2.272-1.812c-1.898-0.714-4.784,0.187-6.265-1.504c-0.208-0.238-0.305-0.814-0.519-1.155   c-0.271-0.432-0.851-0.875-1.256-1.219c-0.6-0.508-1.508-1.386-2.191-0.672c-0.539-1.361-5.031-2.012-6.4-1.98   c-1.004,0.023-1.863,0.926-2.897,1.027c-1.482,0.145-2.891-0.809-3.956-1.749c-0.962-0.848-1.074-1.033-2.513-1.031   c-1.139,0.001-3.64-0.484-4.609,0.019c-0.313,0.162-0.457,0.85-0.8,1.075c-0.505,0.332-1.111,0.223-1.697,0.282   c-1.174,0.118-2.477-0.043-3.653,0.153c-3.049,0.508-5.633,2.521-8.606,3.244c-0.127,1.282-1.446,1.518-2.177,2.319   c-1.283,1.406,0.237,1.754,0.159,3.034c-0.102,1.668-1.613-0.16-2.513,0c-1.187,0.212-1.656,2.132-2.969,1.644   c-0.041,0.233-0.141,0.487-0.122,0.708c0.038,0.046,0.083,0.082,0.135,0.108c0.125-0.184,0.129-0.367,0.218-0.585"></path><path fill="none" stroke="#000000" stroke-width="0.75" stroke-linecap="round" stroke-linejoin="round" stroke-miterlimit="10" d="   M21,48.625c-0.435,2.182,3.676,1.23,4.606,1.106c0.142-1.143,0.293-1.777-0.575-2.637c-0.508-0.504-1.999-1.664-2.69-0.881   c-0.997,1.128,1.276,1.475,1.171,2.293c-0.136,1.057-2.174,0.41-2.387,0.369"></path></g></svg>