<svg height='100px' width='100px'  fill="#000000" xmlns:x="http://ns.adobe.com/Extensibility/1.0/" xmlns:i="http://ns.adobe.com/AdobeIllustrator/10.0/" xmlns:graph="http://ns.adobe.com/Graphs/1.0/" xmlns="http://www.w3.org/2000/svg" xmlns:xlink="http://www.w3.org/1999/xlink" version="1.1" x="0px" y="0px" viewBox="0 0 100 100" style="enable-background:new 0 0 100 100;" xml:space="preserve"><g><g i:extraneous="self"><path d="M96.8,80L83.7,66.9l5.8-5.8c0.9-0.9,0.9-2.3,0-3.2l-5.1-5.1c-0.7-0.7-1.8-0.9-2.7-0.4l-6.6,3.7c-0.2,0.1-0.3,0.2-0.5,0.3    L62.8,43.7l17.8-16.4c0.4-0.3,0.6-0.8,0.7-1.2L83.9,12c0.1-0.7-0.1-1.5-0.6-2c-0.5-0.5-1.3-0.8-2-0.6L67.1,12    c-0.5,0.1-0.9,0.3-1.2,0.7L50,29.9L34.1,12.7c-0.3-0.4-0.8-0.6-1.2-0.7L18.7,9.3c-0.7-0.1-1.5,0.1-2,0.6c-0.5,0.5-0.8,1.3-0.6,2    l2.6,14.1c0.1,0.5,0.3,0.9,0.7,1.2l17.8,16.4L25.4,56.5c-0.2-0.1-0.3-0.2-0.5-0.3l-6.6-3.7c-0.9-0.5-2-0.4-2.7,0.4l-5.1,5.1    c-0.4,0.4-0.7,1-0.7,1.6s0.2,1.2,0.7,1.6l5.8,5.8L3.2,80c-0.5,0.4-0.7,1-0.7,1.6c0,0.6,0.2,1.2,0.7,1.6L10,90    c0.5,0.5,1,0.7,1.6,0.7c0.5,0,1.1-0.2,1.6-0.7L26.3,77l5.8,5.8c0.4,0.4,1,0.7,1.6,0.7c0.6,0,1.2-0.2,1.6-0.7l5.1-5.1    c0.7-0.7,0.9-1.8,0.4-2.7L37,68.3c-0.1-0.2-0.2-0.3-0.3-0.5L50,55.6l13.3,12.3c-0.1,0.2-0.2,0.3-0.3,0.5l-3.7,6.6    c-0.5,0.9-0.4,2,0.4,2.7l5.1,5.1c0.4,0.4,1,0.7,1.6,0.7s1.2-0.2,1.6-0.7l5.8-5.8L86.7,90c0.4,0.5,1,0.7,1.6,0.7    c0.6,0,1.2-0.2,1.6-0.7l6.9-6.9c0.4-0.5,0.7-1,0.7-1.6C97.5,81,97.2,80.4,96.8,80z M68.7,16.3l10.1-1.9l-1.9,10.1L59.7,40.4    l-6.7-7.2L68.7,16.3z M11.7,85.2L8,81.5l11.5-11.5l3.7,3.7L11.7,85.2z M33.7,77.9L15.3,59.5l2.3-2.3l5.1,2.9    c4.4,2.5,8,6.1,10.4,10.4l2.9,5.1L33.7,77.9z M34.1,64.1c-1.5-1.8-3.1-3.5-5-5l11.4-12.3l6.2,5.7L34.1,64.1z M23,24.5l-1.9-10.1    l10.1,1.9l39.6,42.8c-1.8,1.5-3.5,3.1-5,5L23,24.5z M66.3,77.9L64,75.6l2.9-5.1c2.5-4.4,6.1-8,10.4-10.4l5.1-2.9l2.3,2.3    L66.3,77.9z M88.3,85.2L76.8,73.8l3.7-3.7L92,81.5L88.3,85.2z"></path></g></g></svg>