<svg height='100px' width='100px'  fill="#000000" xmlns="http://www.w3.org/2000/svg" xmlns:xlink="http://www.w3.org/1999/xlink" version="1.1" x="0px" y="0px" viewBox="0 0 64 64" style="enable-background:new 0 0 64 64;" xml:space="preserve"><style type="text/css">
	.st0{display:none;}
	.st1{display:inline;}
	.st2{fill:none;stroke:#000000;stroke-width:0.1;stroke-miterlimit:10;}
</style><g class="st0"><g class="st1"><rect x="2" y="2" class="st2" width="60" height="60"></rect><line class="st2" x1="32" y1="2" x2="32" y2="62"></line><line class="st2" x1="62" y1="32" x2="2" y2="32"></line><line class="st2" x1="2" y1="2" x2="62" y2="62"></line><rect x="10" y="10" class="st2" width="44" height="44"></rect><line class="st2" x1="62" y1="2" x2="2" y2="62"></line><line class="st2" x1="2" y1="32" x2="32" y2="2"></line><line class="st2" x1="32" y1="2" x2="62" y2="32"></line><line class="st2" x1="62" y1="32" x2="32" y2="62"></line><line class="st2" x1="32" y1="62" x2="2" y2="32"></line><circle class="st2" cx="32" cy="32" r="21"></circle></g></g><path d="M62,24L58.7,9.1c-0.4-1.8-2-3.1-3.9-3.1H9.2C7.3,6,5.7,7.3,5.3,9.1L2,24c0,1.7,0.8,3.1,2,4v14H2v17h58V28  C61.2,27.1,62,25.7,62,24z M54.8,8c0.9,0,1.7,0.6,1.9,1.6L59.5,22h-6.7L50.2,8H54.8z M48.1,8l2.6,14h-7.8L41.1,8H48.1z M50,24  c0,1.7-1.3,3-3,3s-3-1.3-3-3H50z M33,8h6.1l1.8,14H33V8z M40,24c0,1.7-1.3,3-3,3s-3-1.3-3-3H40z M24.9,8H31v14h-7.9L24.9,8z M12,24  c0,2.8,2.2,5,5,5s5-2.2,5-5c0,1.7,0.8,3.1,2,4v14H10V28C11.2,27.1,12,25.7,12,24z M14,24h6c0,1.7-1.3,3-3,3S14,25.7,14,24z M24,24h6  c0,1.7-1.3,3-3,3S24,25.7,24,24z M22.8,8L21,22h-7.8l2.6-14H22.8z M7.3,9.6c0.2-0.9,1-1.6,2-1.6h4.6l-2.6,14H4.5L7.3,9.6z M10,24  c0,1.7-1.3,3-3,3s-3-1.3-3-3H10z M6,28.9C6.3,29,6.7,29,7,29s0.7,0,1-0.1V42H6V28.9z M30,57V37c0-2.8,2.2-5,5-5s5,2.2,5,5v20H30z   M58,57H42V37c0-3.9-3.1-7-7-7s-7,3.1-7,7v20H4V44h22V28.9c0.3,0.1,0.7,0.1,1,0.1c2.8,0,5-2.2,5-5c0,2.8,2.2,5,5,5s5-2.2,5-5  c0,2.8,2.2,5,5,5s5-2.2,5-5c0,2.8,2.2,5,5,5c0.3,0,0.7,0,1-0.1V57z M57,27c-1.7,0-3-1.3-3-3h6C60,25.7,58.7,27,57,27z"></path><path d="M44,42h12V30H44V42z M46,32h8v8h-8V32z"></path><circle cx="32" cy="46" r="1"></circle></svg>