<svg height='100px' width='100px'  fill="#000000" xmlns="http://www.w3.org/2000/svg" xmlns:xlink="http://www.w3.org/1999/xlink" version="1.1" x="0px" y="0px" viewBox="0 0 841.89 595.28" enable-background="new 0 0 841.89 595.28" xml:space="preserve"><path d="M214.726,348.727h26.016v26.043c0,6.352,5.141,11.492,11.496,11.492h72.051c6.352,0,11.492-5.141,11.492-11.492v-26.043  h26.062c6.355,0,11.496-5.141,11.496-11.492v-72.039c0-6.352-5.141-11.492-11.496-11.492H335.78V227.66  c0-6.352-5.141-11.492-11.492-11.492h-72.051c-6.355,0-11.496,5.141-11.496,11.492v26.043h-26.016  c-6.355,0-11.496,5.141-11.496,11.492v72.039C203.229,343.586,208.37,348.727,214.726,348.727z M226.218,276.688h26.02  c6.352,0,11.492-5.141,11.492-11.492v-26.039h49.062v26.039c0,6.352,5.141,11.492,11.496,11.492h26.062v49.055h-26.062  c-6.355,0-11.496,5.141-11.496,11.492v26.043h-49.062v-26.043c0-6.352-5.141-11.492-11.492-11.492h-26.02V276.688z"></path><path d="M510.108,84.703c6.355,0,11.496-5.141,11.496-11.492V25.977c0-6.352-5.141-11.492-11.496-11.492  c-6.352,0-11.492,5.141-11.492,11.492v47.234C498.616,79.562,503.757,84.703,510.108,84.703z"></path><path d="M544.331,92.203c1.629,0.797,3.348,1.168,5.031,1.168c4.266,0,8.352-2.371,10.336-6.453l20.711-42.477  c2.781-5.711,0.414-12.594-5.289-15.367c-5.746-2.816-12.605-0.402-15.363,5.289l-20.711,42.473  C536.261,82.551,538.632,89.43,544.331,92.203z"></path><path d="M460.542,86.918c1.984,4.082,6.07,6.453,10.336,6.453c1.684,0,3.402-0.371,5.031-1.168c5.699-2.773,8.07-9.652,5.285-15.367  l-20.711-42.473c-2.758-5.691-9.605-8.094-15.363-5.289c-5.703,2.773-8.07,9.656-5.289,15.367L460.542,86.918z"></path><path d="M570.374,113.395c2.266,2.805,5.59,4.266,8.945,4.266c2.535,0,5.098-0.844,7.219-2.559l36.715-29.723  c4.938-3.996,5.703-11.238,1.707-16.164c-3.984-4.926-11.238-5.703-16.164-1.707L572.081,97.23  C567.14,101.227,566.378,108.469,570.374,113.395z"></path><path d="M433.683,115.102c2.121,1.715,4.68,2.559,7.215,2.559c3.355,0,6.68-1.461,8.945-4.266  c3.996-4.926,3.234-12.168-1.703-16.164l-36.715-29.723c-4.941-3.996-12.191-3.219-16.164,1.707  c-3.996,4.926-3.234,12.168,1.703,16.164L433.683,115.102z"></path><path d="M735.679,363.68l-46.988-35.918l-84.676-157.145c-2-3.715-5.883-6.039-10.113-6.039h-27.379v-8.281  c0-31.441-25.57-57.023-57.008-57.023c-31.453,0-57.031,25.582-57.031,57.023v8.281h-316.41c-5.793,0-10.676,4.312-11.402,10.047  l-23.078,182.613v150.766c0,6.355,5.141,11.496,11.492,11.496h47.156c0,34.145,27.77,61.914,61.902,61.914  s61.902-27.77,61.902-61.914h267.168c0,34.145,27.77,61.914,61.902,61.914s61.902-27.77,61.902-61.914h30.688  c4.883,0,9.238-3.09,10.844-7.691l22.988-65.617c0.438-1.223,0.652-2.516,0.652-3.805v-69.57  C740.19,369.234,738.519,365.855,735.679,363.68z M475.472,156.297c0-18.77,15.273-34.035,34.043-34.035  c18.754,0,34.02,15.266,34.02,34.035v8.281h-68.062V156.297z M146.198,187.566h317.777h91.055h32.012l82.59,153.281  c0.762,1.438,1.84,2.684,3.133,3.684l44.438,33.965v53.316h-195.98V268.809h61.242l27.723,52.734h-35.109  c-6.355,0-11.496,5.141-11.496,11.492c0,6.355,5.141,11.496,11.496,11.496h54.137h0.012l0,0c0.02,0,0.031-0.012,0.043-0.012  c1.773-0.012,3.414-0.492,4.906-1.223c0.121-0.059,0.258-0.023,0.379-0.09c0.461-0.246,0.754-0.652,1.168-0.945  c0.695-0.492,1.383-0.965,1.953-1.594c0.484-0.539,0.809-1.145,1.18-1.75c0.402-0.652,0.809-1.246,1.066-1.965  c0.281-0.762,0.359-1.547,0.473-2.344c0.078-0.539,0.312-1.012,0.312-1.574c0-0.156-0.078-0.289-0.09-0.457  c-0.031-0.754-0.27-1.461-0.449-2.215c-0.191-0.762-0.324-1.535-0.66-2.242c-0.07-0.137-0.047-0.293-0.125-0.426l-39.801-75.723  c-1.988-3.781-5.906-6.152-10.172-6.152h-79.684c-6.352,0-11.492,5.141-11.492,11.496v174.496H124.534l-0.043-73.129  L146.198,187.566z M222.144,558.426c-21.461,0-38.914-17.465-38.914-38.926c0-21.453,17.453-38.906,38.914-38.906  s38.914,17.453,38.914,38.906C261.058,540.961,243.604,558.426,222.144,558.426z M279.511,496.512  c-9.156-22.754-31.371-38.906-57.367-38.906s-48.211,16.152-57.367,38.906h-40.207l-0.023-41.711h373.688v41.711H279.511z   M613.116,558.426c-21.461,0-38.914-17.465-38.914-38.926c0-21.453,17.453-38.906,38.914-38.906s38.914,17.453,38.914,38.906  C652.03,540.961,634.577,558.426,613.116,558.426z M697.558,496.512h-27.074c-9.156-22.754-31.371-38.906-57.367-38.906  s-48.207,16.152-57.367,38.906h-34.527v-41.711h190.953L697.558,496.512z"></path></svg>