<svg height='100px' width='100px'  fill="#000000" xmlns="http://www.w3.org/2000/svg" xmlns:xlink="http://www.w3.org/1999/xlink" version="1.1" x="0px" y="0px" viewBox="0 0 90 90" enable-background="new 0 0 90 90" xml:space="preserve"><g><g><path d="M28.2,22c-0.8,0-1.4-0.6-1.5-1.3l-0.6-5.9c0-0.4,0.1-0.8,0.4-1.2c0.3-0.3,0.7-0.5,1.1-0.5h37.6c0.4,0,0.8,0.2,1.1,0.5    c0.3,0.3,0.4,0.7,0.4,1.2l-0.6,5.9c-0.1,0.8-0.8,1.4-1.6,1.3c-0.8-0.1-1.4-0.8-1.3-1.6l0.4-4.3H29.3l0.4,4.3    c0.1,0.8-0.5,1.6-1.3,1.6C28.3,22,28.3,22,28.2,22z"></path></g><g><path d="M70.2,28.5c-0.1,0-0.1,0-0.2,0c-0.8-0.1-1.4-0.8-1.3-1.6l0.5-4.9H23.7l0.3,2.8c0.1,0.8-0.5,1.6-1.3,1.6    C21.8,26.4,21,25.8,21,25l-0.5-4.4c0-0.4,0.1-0.8,0.4-1.2S21.6,19,22,19h48.8c0.4,0,0.8,0.2,1.1,0.5c0.3,0.3,0.4,0.7,0.4,1.2    l-0.7,6.6C71.6,28,70.9,28.5,70.2,28.5z"></path></g><g><path d="M74.9,35.6c-0.1,0-0.1,0-0.2,0c-0.8-0.1-1.4-0.8-1.3-1.6l0.6-5.4H40.2c-0.8,0-1.5-0.7-1.5-1.5s0.7-1.5,1.5-1.5h35.4    c0.4,0,0.8,0.2,1.1,0.5c0.3,0.3,0.4,0.7,0.4,1.2l-0.7,7C76.3,35,75.7,35.6,74.9,35.6z"></path></g><g><path d="M74.9,76.5h-57c-0.8,0-1.5-0.7-1.5-1.5s0.7-1.5,1.5-1.5h55.6l3.9-37.9H36.8c-0.6,0-1.1-0.3-1.3-0.8l-4.3-8.4H14.5    l4.2,40.9c0.1,0.8-0.5,1.6-1.3,1.6c-0.8,0.1-1.6-0.5-1.6-1.3L11.3,25c0-0.4,0.1-0.8,0.4-1.2c0.3-0.3,0.7-0.5,1.1-0.5h19.3    c0.6,0,1.1,0.3,1.3,0.8l4.3,8.4h41.3c0.4,0,0.8,0.2,1.1,0.5c0.3,0.3,0.4,0.7,0.4,1.2l-4.2,40.9C76.3,75.9,75.7,76.5,74.9,76.5z"></path></g></g></svg>