<svg height='100px' width='100px'  fill="#000000" xmlns="http://www.w3.org/2000/svg" xmlns:xlink="http://www.w3.org/1999/xlink" version="1.1" x="0px" y="0px" viewBox="0 0 100 100" enable-background="new 0 0 100 100" xml:space="preserve"><path d="M31.7,55.7c-1.8-1.7-2.8-4-3-7.1c0-0.6,0.5-1.2,1.1-1.2l5.8-0.1c0.6,0,1.1,0.4,1.1,1c0.1,1.5,0.5,2.6,1.3,3.3  c0.9,0.9,2,1.3,3.4,1.3c1.2,0,2-0.3,2.6-1c0.6-0.7,0.9-1.6,0.9-2.7c0-1.3-0.3-2.3-0.9-3c-0.6-0.7-1.7-1.4-3.3-2.1  c-3.8-1.5-6.6-3-8.3-4.6c-1.7-1.6-2.6-3.8-2.6-6.8c0-2.7,0.9-5,2.8-6.7c1.7-1.6,3.8-2.6,6.5-3v-4.2c0-0.5,0.4-1,1-1h3.5  c0.5,0,1,0.4,1,1v4.4c2.5,0.5,4.5,1.6,6.1,3.4c1.5,1.7,2.3,3.8,2.4,6.4c0,0.6-0.5,1.2-1.1,1.2l-5.8,0.1c-0.6,0-1.1-0.4-1.1-1  c-0.1-1.3-0.4-2.2-1-2.9c-0.7-0.9-1.6-1.3-2.7-1.3c-1.1,0-2,0.4-2.5,1.1c-0.5,0.7-0.8,1.6-0.8,2.7c0,1.1,0.3,2,0.9,2.7  c0.6,0.7,1.7,1.4,3.3,2.1c3.7,1.6,6.5,3.2,8.2,4.8c1.8,1.6,2.6,3.9,2.6,6.8c0,2.8-0.9,5.1-2.6,6.8c-1.5,1.5-3.4,2.4-5.8,2.8v4.1  c0,0.5-0.4,1-1,1h-3.5c-0.5,0-1-0.4-1-1v-4C36.1,58.6,33.6,57.5,31.7,55.7z M14,67.7C-0.8,52.9-0.8,28.9,14,14  C28.9-0.8,52.9-0.8,67.7,14c13.5,13.5,14.7,34.7,3.6,49.5l2.2,2.2l1.4-1.4l20,20c2.9,2.9,2.9,7.7,0,10.6c-2.9,2.9-7.7,2.9-10.6,0  l-20-20l1.4-1.4l-2.2-2.2C48.7,82.4,27.5,81.2,14,67.7z M21.4,60.4c10.8,10.8,28.2,10.8,39,0c10.8-10.8,10.8-28.2,0-39  c-10.8-10.8-28.2-10.8-39,0C10.6,32.1,10.6,49.6,21.4,60.4z"></path></svg>