<svg height='100px' width='100px'  fill="#000000" xmlns="http://www.w3.org/2000/svg" data-name="Layer 1" viewBox="0 0 64 64" x="0px" y="0px"><path d="M35.394,15.361l.593-1.207-1.8-.883L33.6,14.479a3.477,3.477,0,0,0-4.606,1.439,3.493,3.493,0,0,0,1.785,4.59l1.572.771a1.787,1.787,0,0,1,.879.912,1.158,1.158,0,0,1-.8,1.621,1.792,1.792,0,0,1-1.26-.139L29.6,22.9a1.778,1.778,0,0,1-.88-.912,1.215,1.215,0,0,1,.008-1l-1.794-.881a3.18,3.18,0,0,0-.066,2.638,3.759,3.759,0,0,0,1.743,1.886l-.593,1.208,1.795.881.594-1.21A3.849,3.849,0,0,0,32,25.87a3.658,3.658,0,0,0,.97-.131,3.153,3.153,0,0,0,2.113-4.3,3.774,3.774,0,0,0-1.85-1.952l-1.571-.771a1.5,1.5,0,0,1-.871-1.913,1.5,1.5,0,0,1,2.047-.482l1.571.772A1.5,1.5,0,0,1,35.277,19l1.8.881A3.474,3.474,0,0,0,35.394,15.361Z"></path><path d="M51.3,5.848l1.183-3.169A1,1,0,0,0,50.993,1.5L48.172,3.363,45.523,1.257a1,1,0,0,0-1.585,1.051l.585,2.109A7,7,0,0,0,37.4,7.049l-1.919-.943a1,1,0,0,0-1.337.457L33.4,8.079A12,12,0,1,0,31.963,32,6,6,0,0,0,28.69,43H26.454l-6.213-7.1,3.607-5.77a1,1,0,0,0-.059-1.145l-2.8-3.6a.97.97,0,0,0-.83-.385,1,1,0,0,0-.8.451l-7.2,11a1,1,0,0,0,.044,1.157L22,50.34V62a1,1,0,0,0,1,1H41a1,1,0,0,0,1-1V50.34l9.793-12.731a1,1,0,0,0,.044-1.157l-7.2-11a1,1,0,0,0-.8-.451.969.969,0,0,0-.83.385l-1.42,1.825A11.995,11.995,0,0,0,40.58,11.605l.744-1.516a1,1,0,0,0-.457-1.338l-1.612-.792A4.858,4.858,0,0,1,43.73,6.3L42.021,7.435a1,1,0,0,0,.508,1.833l3.381.147.9,3.261a1,1,0,0,0,.92.731h.044a1,1,0,0,0,.937-.65L49.9,9.588l3.38.147a1.01,1.01,0,0,0,.981-.649,1,1,0,0,0-.315-1.133ZM28,38a4,4,0,1,1,4,4A4,4,0,0,1,28,38ZM43.729,27.719l6.045,9.234L40.207,49.391A1,1,0,0,0,40,50V61H24V50a1,1,0,0,0-.207-.609L14.226,36.953l6.045-9.234,1.51,1.943L18.152,35.47a1,1,0,0,0,.095,1.188l7,8A1,1,0,0,0,26,45H38a1,1,0,0,0,.753-.342l7-8a1,1,0,0,0,.095-1.188l-3.629-5.808Zm.03,8.181L37.546,43H35.31a6,6,0,0,0-3.268-11,12.011,12.011,0,0,0,9.382-4.577l-1.213,1.56a1,1,0,0,0-.059,1.145ZM40.98,24.4a10,10,0,1,1-17.953-8.815A9.991,9.991,0,0,1,33.794,10.16a.986.986,0,0,0,1.078-.543L35.5,8.343l3.591,1.762-.626,1.276a1,1,0,0,0,.23,1.185A10.018,10.018,0,0,1,40.98,24.4ZM49.261,7.559a.98.98,0,0,0-.981.649l-.361.966-.275-.994a1,1,0,0,0-.92-.732L45.691,7.4l.861-.569a1,1,0,0,0,.412-1.1l-.276-1,.808.644a1,1,0,0,0,1.174.051l.861-.571-.361.968a1,1,0,0,0,.314,1.133l.808.642Z"></path></svg>