<svg height='100px' width='100px'  fill="#000000" xmlns:dc="http://purl.org/dc/elements/1.1/" xmlns:cc="http://creativecommons.org/ns#" xmlns:rdf="http://www.w3.org/1999/02/22-rdf-syntax-ns#" xmlns:svg="http://www.w3.org/2000/svg" xmlns="http://www.w3.org/2000/svg" xmlns:sodipodi="http://sodipodi.sourceforge.net/DTD/sodipodi-0.dtd" xmlns:inkscape="http://www.inkscape.org/namespaces/inkscape" viewBox="0 0 100 100" version="1.1" x="0px" y="0px"><g transform="translate(0,-952.36216)"><path style="color:#000000;font-style:normal;font-variant:normal;font-weight:normal;font-stretch:normal;font-size:medium;line-height:normal;font-family:sans-serif;text-indent:0;text-align:start;text-decoration:none;text-decoration-line:none;text-decoration-style:solid;text-decoration-color:#000000;letter-spacing:normal;word-spacing:normal;text-transform:none;direction:ltr;block-progression:tb;writing-mode:lr-tb;baseline-shift:baseline;text-anchor:start;white-space:normal;clip-rule:nonzero;display:inline;overflow:visible;visibility:visible;opacity:1;isolation:auto;mix-blend-mode:normal;color-interpolation:sRGB;color-interpolation-filters:linearRGB;solid-color:#000000;solid-opacity:1;fill:#000000;fill-opacity:1;fill-rule:evenodd;stroke:none;stroke-width:8;stroke-linecap:round;stroke-linejoin:round;stroke-miterlimit:4;stroke-dasharray:none;stroke-dashoffset:0;stroke-opacity:1;color-rendering:auto;image-rendering:auto;shape-rendering:auto;text-rendering:auto;enable-background:accumulate" d="m 62.783317,971.83003 a 0.73771662,0.73771662 0 0 0 -0.06339,0.01 l -6.835803,0.9116 a 0.73771662,0.73771662 0 0 0 -0.547469,0.3728 l -0.91377,1.645 -5.233014,-0.3138 a 0.73771662,0.73771662 0 0 0 -0.634273,0.2936 l -2.392657,3.1901 a 0.73771662,0.73771662 0 0 0 -0.130744,0.5993 l 0.320558,1.4735 -1.406132,-1.1717 a 0.73771662,0.73771662 0 0 0 -0.58961,-0.1613 l -3.116973,0.5028 -0.870188,-1.0445 a 0.73771662,0.73771662 0 0 0 -1.00922,-0.1178 l -1.16841,0.8763 -0.26293,-0.438 a 0.73771662,0.73771662 0 0 0 -0.50173,-0.3461 l -13.8996,-2.5065 a 0.73771662,0.73771662 0 0 0 -0.15415,-0.012 l -7.17797,0.228 a 0.73771662,0.73771662 0 0 0 -0.42609,0.1523 l -2.96246,2.2789 a 0.73771662,0.73771662 0 0 0 -0.24996,0.8179 l 1.78107,5.3426 -0.0882,2.554 -0.98328,0.1404 a 0.73771662,0.73771662 0 0 0 -0.4495,0.2428 l -5.0129496,5.6966 a 0.73771662,0.73771662 0 0 0 -0.16568,0.6508 l 0.5698,2.5065 a 0.73771662,0.73771662 0 0 0 0.045,0.1361 l 0.27662,0.6221 -0.54423,-0.1513 a 0.73771662,0.73771662 0 0 0 -0.86731,0.4016 l -2.05085,4.44347 a 0.73771662,0.73771662 0 0 0 0.22223,0.8954 l 4.32969,3.3042 a 0.73771662,0.73771662 0 0 0 0.4188896,0.1506 l 5.88097,0.2262 1.84375,0.291 0.8475,1.0355 a 0.73771662,0.73771662 0 0 0 0.87595,0.2046 l 1.21668,-0.5532 5.43327,-1.811 a 0.73771662,0.73771662 0 0 0 0.10157,-0.043 l 5.71349,-2.9106 7.6426,3.6641 0.734399,4.4071 a 0.73771662,0.73771662 0 0 0 0.148754,0.3357 l 3.221785,4.0812 -0.186212,1.3038 -4.245766,-0.8684 a 0.73771662,0.73771662 0 0 0 -0.88496,0.7445 l 0.10625,3.6137 -2.69124,3.5527 a 0.73771662,0.73771662 0 0 0 -0.0313,0.8461 l 1.25305,1.9367 a 0.73771662,0.73771662 0 0 0 0.9325,0.2672 l 3.158394,-1.4803 1.114748,1.2005 a 0.73771662,0.73771662 0 0 0 0.457785,0.2312 l 7.063795,0.7975 a 0.73771662,0.73771662 0 0 0 0.435454,-0.085 l 11.507301,-6.266 a 0.73771662,0.73771662 0 0 0 0.313714,-0.3321 l 0.669209,-1.413 1.880846,1.1854 -0.50965,0.099 a 0.73771662,0.73771662 0 0 0 -0.574484,0.5449 l -0.374223,1.4976 -4.828175,2.468 a 0.73771662,0.73771662 0 0 0 0.04682,1.3355 l 4.878241,2.0757 -0.199179,3.5848 a 0.73771662,0.73771662 0 0 0 0.673531,0.7759 l 3.987522,0.3418 a 0.73771662,0.73771662 0 0 0 0.535223,-0.1686 l 4.101698,-3.4177 a 0.73771662,0.73771662 0 0 0 0.03422,-0.031 l 1.784318,-1.6853 1.005975,0.1679 a 0.73771662,0.73771662 0 0 0 0.09401,0.01 l 3.075914,0.1141 a 0.73771662,0.73771662 0 0 0 0.708828,-0.4553 l 1.367233,-3.3039 a 0.73771662,0.73771662 0 0 0 -0.660565,-1.0193 l -3.987522,-0.1141 a 0.73771662,0.73771662 0 0 0 -0.451661,0.1383 l -1.637366,1.177 -1.680227,0.038 -0.318756,-1.3546 a 0.73771662,0.73771662 0 0 0 -0.249244,-0.4005 l -0.444098,-0.366 6.612853,-0.2643 a 0.73771662,0.73771662 0 0 0 0.661647,-0.4798 l 2.079662,-5.5824 4.69527,-3.0575 a 0.73771662,0.73771662 0 0 0 0.325599,-0.5 l 0.613743,-3.7836 1.524269,-0.5381 a 0.73771662,0.73771662 0 0 0 0.414205,-0.3656 l 0.354773,-0.7096 4.305199,0.205 a 0.73771662,0.73771662 0 0 0 0.771859,-0.7045 l 0.227992,-5.241 a 0.73771662,0.73771662 0 0 0 -0.370983,-0.6724 l -0.376745,-0.2154 0.151995,-1.36897 1.92983,-2.5735 a 0.73771662,0.73771662 0 0 0 -0.09293,-0.9876 l -3.873706,-3.5319 a 0.73771662,0.73771662 0 0 0 -0.218628,-0.138 l -6.152546,-2.5064 a 0.73771662,0.73771662 0 0 0 -0.891798,0.2737 l -0.341449,0.5122 -2.448484,-3.1739 a 0.73771662,0.73771662 0 0 0 -0.869107,-0.2298 l -3.170999,1.3298 -2.634337,-1.7227 a 0.73771662,0.73771662 0 0 0 -0.79455,-0.01 l -1.085574,0.6782 -2.513677,-6.0329 a 0.73771662,0.73771662 0 0 0 -0.762496,-0.4495 l -3.47643,0.3861 -0.572682,-2.0768 1.003093,-0.4301 a 0.73771662,0.73771662 0 0 0 0.350814,-1.0423 l -2.848281,-5.013 a 0.73771662,0.73771662 0 0 0 -0.675332,-0.3724 z m -0.361618,1.5337 2.194919,3.8629 -0.836692,0.3587 a 0.73771662,0.73771662 0 0 0 -0.420325,0.8742 l 0.911247,3.3039 a 0.73771662,0.73771662 0 0 0 0.79275,0.537 l 3.551708,-0.3944 2.635775,6.3251 a 0.73771662,0.73771662 0 0 0 1.071887,0.3418 l 1.422701,-0.8893 2.567704,1.6788 a 0.73771662,0.73771662 0 0 0 0.689017,0.063 l 3.008921,-1.2621 2.729784,3.5388 a 0.73771662,0.73771662 0 0 0 1.197589,-0.041 l 0.577364,-0.8659 5.472891,2.2295 3.281215,2.992 -1.648531,2.1981 a 0.73771662,0.73771662 0 0 0 -0.142992,0.3613 l -0.22799,2.05077 a 0.73771662,0.73771662 0 0 0 0.367019,0.7219 l 0.407,0.2326 -0.176127,4.0513 -4.045148,-0.1927 a 0.73771662,0.73771662 0 0 0 -0.694782,0.407 l -0.436536,0.8727 -1.655733,0.5846 a 0.73771662,0.73771662 0 0 0 -0.482638,0.5773 l -0.631391,3.8936 -4.625755,3.0121 a 0.73771662,0.73771662 0 0 0 -0.288503,0.3606 l -1.993579,5.3504 -8.054282,0.3223 a 0.73771662,0.73771662 0 0 0 -0.439418,1.3064 l 1.744699,1.4368 0.398716,1.6946 a 0.73771662,0.73771662 0 0 0 0.734761,0.5687 l 2.506473,-0.057 a 0.73771662,0.73771662 0 0 0 0.413844,-0.1387 l 1.620437,-1.1648 2.668914,0.076 -0.762135,1.8412 -2.515838,-0.093 -1.320769,-0.2201 a 0.73771662,0.73771662 0 0 0 -0.62779,0.1913 l -2.033921,1.9212 -3.851014,3.2092 -2.972182,-0.255 0.188373,-3.3868 a 0.73771662,0.73771662 0 0 0 -0.447701,-0.7196 l -3.903239,-1.6608 3.72207,-1.9028 a 0.73771662,0.73771662 0 0 0 0.379988,-0.4776 l 0.341807,-1.368 1.875082,-0.3655 a 0.73771662,0.73771662 0 0 0 0.252125,-1.3482 l -4.158606,-2.6206 a 0.73771662,0.73771662 0 0 0 -1.060002,0.3083 l -0.922413,1.9478 -11.091655,6.0398 -6.560989,-0.7405 -1.294836,-1.395 a 0.73771662,0.73771662 0 0 0 -0.85362,-0.1656 l -3.063306,1.4356 -0.62275,-0.9624 2.53637,-3.3475 a 0.73771662,0.73771662 0 0 0 0.14911,-0.4671 l -0.0864,-2.943 4.100618,0.8388 a 0.73771662,0.73771662 0 0 0 0.877752,-0.6184 l 0.341808,-2.3923 a 0.73771662,0.73771662 0 0 0 -0.151274,-0.5615 l -3.300304,-4.1806 -0.766457,-4.598 a 0.73771662,0.73771662 0 0 0 -0.408801,-0.5439 l -8.316852,-3.9875 a 0.73771662,0.73771662 0 0 0 -0.65372,0.01 l -5.98903,3.051 -5.41634,1.8056 a 0.73771662,0.73771662 0 0 0 -0.072,0.028 l -0.73656,0.3346 -0.66597,-0.814 a 0.73771662,0.73771662 0 0 0 -0.45598,-0.2615 l -2.16467,-0.3418 a 0.73771662,0.73771662 0 0 0 -0.0868,-0.01 l -5.6908,-0.219 -3.6738096,-2.8036 1.54012,-3.33707 1.44647,0.402 a 0.73771662,0.73771662 0 0 0 0.8716296,-1.0107 l -0.8820696,-1.9846 -0.47039,-2.0688 4.5839696,-5.2089 1.32581,-0.1894 a 0.73771662,0.73771662 0 0 0 0.63284,-0.7049 l 0.11381,-3.3039 a 0.73771662,0.73771662 0 0 0 -0.0375,-0.2586 l -1.65681,-4.9708 2.35772,-1.8135 6.86209,-0.2179 13.49368,2.4333 0.51109,0.8522 a 0.73771662,0.73771662 0 0 0 1.07513,0.2107 l 1.26242,-0.9469 0.690823,0.8288 a 0.73771662,0.73771662 0 0 0 0.683976,0.2561 l 3.200174,-0.5162 1.792962,1.494 a 0.73771662,0.73771662 0 0 0 0.576284,0.1636 l 0.797792,-0.1139 a 0.73771662,0.73771662 0 0 0 0.616264,-0.8871 l -0.498126,-2.2907 1.95216,-2.603 5.300368,0.318 a 0.73771662,0.73771662 0 0 0 0.689019,-0.3782 l 0.959513,-1.7266 5.975339,-0.7968 z"></path></g></svg>