<svg height='100px' width='100px'  fill="#000000" xmlns="http://www.w3.org/2000/svg" xmlns:xlink="http://www.w3.org/1999/xlink" version="1.1" x="0px" y="0px" viewBox="0 0 512 512" style="enable-background:new 0 0 512 512;" xml:space="preserve"><g><g><g><path d="M256,493c-63.305,0-122.821-24.652-167.584-69.416C43.652,378.821,19,319.305,19,256S43.652,133.179,88.416,88.416     C133.179,43.652,192.695,19,256,19s122.821,24.652,167.584,69.416C468.348,133.179,493,192.695,493,256     s-24.652,122.821-69.416,167.584C378.821,468.348,319.305,493,256,493z M256,33C133.038,33,33,133.038,33,256     c0,122.963,100.038,223,223,223c122.963,0,223-100.037,223-223C479,133.038,378.963,33,256,33z"></path></g><g><g><path d="M256,93c-9.374,0-17-7.626-17-17s7.626-17,17-17s17,7.626,17,17S265.374,93,256,93z M256,73c-1.654,0-3,1.346-3,3      s1.346,3,3,3c1.654,0,3-1.346,3-3S257.654,73,256,73z"></path></g><g><path d="M256,453c-9.374,0-17-7.626-17-17s7.626-17,17-17s17,7.626,17,17S265.374,453,256,453z M256,433c-1.654,0-3,1.346-3,3      s1.346,3,3,3c1.654,0,3-1.346,3-3S257.654,433,256,433z"></path></g></g><g><g><path d="M383.279,145.721c-9.374,0-17-7.626-17-17s7.626-17,17-17s17,7.626,17,17S392.653,145.721,383.279,145.721z       M383.279,125.721c-1.654,0-3,1.346-3,3s1.346,3,3,3s3-1.346,3-3S384.934,125.721,383.279,125.721z"></path></g><g><path d="M128.721,400.279c-9.374,0-17-7.626-17-17s7.626-17,17-17s17,7.626,17,17S138.095,400.279,128.721,400.279z       M128.721,380.279c-1.654,0-3,1.346-3,3s1.346,3,3,3c1.654,0,3-1.346,3-3S130.375,380.279,128.721,380.279z"></path></g></g><g><g><path d="M436,273c-9.374,0-17-7.626-17-17s7.626-17,17-17s17,7.626,17,17S445.374,273,436,273z M436,253c-1.654,0-3,1.346-3,3      c0,1.654,1.346,3,3,3s3-1.346,3-3S437.654,253,436,253z"></path></g><g><path d="M76,273c-9.374,0-17-7.626-17-17s7.626-17,17-17s17,7.626,17,17S85.374,273,76,273z M76,253c-1.654,0-3,1.346-3,3      c0,1.654,1.346,3,3,3s3-1.346,3-3S77.654,253,76,253z"></path></g></g><g><g><path d="M383.279,400.279c-9.374,0-17-7.626-17-17s7.626-17,17-17s17,7.626,17,17S392.653,400.279,383.279,400.279z       M383.279,380.279c-1.654,0-3,1.346-3,3s1.346,3,3,3s3-1.346,3-3S384.934,380.279,383.279,380.279z"></path></g><g><path d="M128.721,145.721c-9.374,0-17-7.626-17-17s7.626-17,17-17s17,7.626,17,17S138.095,145.721,128.721,145.721z       M128.721,125.721c-1.654,0-3,1.346-3,3s1.346,3,3,3c1.654,0,3-1.346,3-3S130.375,125.721,128.721,125.721z"></path></g></g><g><g><path d="M256,393c-32.662,0-64.292-11.686-89.066-32.905c-24.499-20.984-40.868-49.977-46.092-81.638      c-0.417-2.532,0.583-5.089,2.609-6.665c2.025-1.575,4.75-1.918,7.102-0.889c5.867,2.564,11.639,6.431,17.749,10.524      c12.668,8.486,25.767,17.264,40.127,14.683c7.414-1.332,11.286-4.964,15.768-9.169c5.661-5.312,12.077-11.331,24.65-11.606      c13.791-0.334,23.042,6.709,30.502,12.344c7.47,5.642,12.012,8.781,18.551,7.741c5.671-0.902,8.916-4.433,13.023-8.902      c5.003-5.443,11.229-12.218,22.561-12.516c9.545-0.213,15.735,4.218,20.719,7.806c4.406,3.174,6.874,4.807,10.423,4.271      c3.966-0.598,6.241-3.324,9.922-8.092c3.654-4.733,8.202-10.625,16.212-12.474c5.337-1.233,11.067-0.373,17.03,2.553      c2.719,1.334,4.271,4.266,3.847,7.264c-4.575,32.376-20.708,62.129-45.428,83.776C321.249,380.963,289.213,393,256,393z       M138.185,291.505C153.537,343.033,200.837,379,256,379c58.979,0,109.932-42.573,120.832-99.94      c-1.054-0.142-2.032-0.111-2.925,0.094l0,0c-2.982,0.688-5.089,3.256-8.278,7.388c-4.098,5.31-9.198,11.917-18.92,13.381      c-9.345,1.412-15.64-3.117-20.688-6.754c-4.561-3.284-7.615-5.309-12.17-5.17c-5.164,0.135-7.879,2.833-12.62,7.992      c-4.744,5.163-10.648,11.588-21.13,13.256c-12.743,2.025-21.479-4.572-29.189-10.396c-6.901-5.213-12.852-9.71-21.758-9.52      c-7.211,0.158-10.46,3.207-15.378,7.82c-5.069,4.756-11.377,10.674-22.872,12.738c-19.919,3.583-36.819-7.737-50.394-16.831      C139.729,292.535,138.953,292.017,138.185,291.505z"></path></g><g><path d="M183.297,310.568c-16.652,0-30.975-9.597-42.788-17.51c-5.576-3.735-10.842-7.264-15.564-9.327      c-2.173-0.95-3.717-2.936-4.103-5.275C119.62,271.043,119,263.488,119,256c0-75.542,61.458-137,137-137s137,61.458,137,137      c0,6.419-0.459,12.922-1.363,19.329c-0.314,2.221-1.673,4.156-3.655,5.206c-1.981,1.051-4.347,1.086-6.36,0.099      c-2.999-1.473-5.595-1.967-7.714-1.48c-2.982,0.688-5.089,3.256-8.278,7.388c-4.099,5.31-9.198,11.917-18.92,13.381      c-9.345,1.412-15.64-3.117-20.688-6.754c-4.561-3.284-7.615-5.309-12.17-5.17c-5.164,0.135-7.879,2.833-12.62,7.992      c-4.744,5.163-10.648,11.588-21.13,13.256c-12.743,2.025-21.479-4.572-29.189-10.396c-6.901-5.213-12.852-9.71-21.758-9.52      c-7.212,0.158-10.461,3.207-15.379,7.82c-5.069,4.756-11.377,10.674-22.871,12.738      C188.318,310.354,185.78,310.568,183.297,310.568z M134.122,272.619c4.658,2.43,9.311,5.547,14.179,8.809      c12.668,8.485,25.765,17.26,40.127,14.683c7.413-1.332,11.284-4.964,15.767-9.169c5.661-5.311,12.078-11.331,24.65-11.606      c13.791-0.334,23.042,6.709,30.502,12.344c7.47,5.642,12.012,8.781,18.551,7.741c5.671-0.902,8.916-4.433,13.023-8.902      c5.003-5.443,11.229-12.218,22.561-12.516c9.545-0.213,15.735,4.218,20.719,7.806c4.406,3.173,6.872,4.805,10.423,4.271      c3.966-0.598,6.241-3.324,9.922-8.092c3.654-4.733,8.202-10.625,16.212-12.474c2.549-0.59,5.188-0.7,7.897-0.338      c0.229-3.063,0.344-6.13,0.344-9.175c0-67.822-55.178-123-123-123s-123,55.178-123,123      C133,261.533,133.377,267.107,134.122,272.619z"></path></g></g></g></g></svg>