<svg height='100px' width='100px'  fill="#000000" xmlns="http://www.w3.org/2000/svg" xmlns:xlink="http://www.w3.org/1999/xlink" xml:space="preserve" version="1.1" style="shape-rendering:geometricPrecision;text-rendering:geometricPrecision;image-rendering:optimizeQuality;" viewBox="0 0 224 162" x="0px" y="0px" fill-rule="evenodd" clip-rule="evenodd"><defs><style type="text/css">
   
    .fil1 {fill:#000000}
    .fil0 {fill:#000000;fill-rule:nonzero}
   
  </style></defs><g><path class="fil0" d="M13 18l5 0c0,-6 4,-11 10,-11l22 0c6,0 10,5 10,11l15 0 10 -18 65 0 10 18 51 0c7,0 13,6 13,13l0 106c0,8 -6,13 -13,13l-54 0c-11,8 -24,12 -38,12 -13,0 -26,-4 -37,-12l-69 0c-7,0 -13,-5 -13,-13l0 -106c0,-7 6,-13 13,-13zm0 7c-3,0 -6,2 -6,6l0 106c0,4 3,7 6,7l70 0 2 0c10,7 22,11 34,11 13,0 25,-4 35,-11l2 0 55 0c3,0 6,-3 6,-7l0 -106c0,-4 -3,-6 -6,-6l-55 0 -10 -18 -57 0 -10 18 -26 0 0 -8c0,-2 -1,-3 -3,-3l-22 0c-2,0 -3,1 -3,3l0 8 -12 0z"></path><path class="fil0" d="M39 135l-11 0c-7,0 -13,-6 -13,-13l0 -36 7 0 0 36c0,4 3,7 6,7l11 0 0 6z"></path><path class="fil0" d="M173 29l26 0c14,0 14,20 0,20l-26 0c-14,0 -14,-20 0,-20zm26 7l-26 0c-6,0 -6,6 0,6l26 0c5,0 5,-6 0,-6z"></path><path class="fil0" d="M119 39c31,0 55,24 55,55 0,30 -24,54 -55,54 -30,0 -54,-24 -54,-54 0,-31 24,-55 54,-55zm0 6c-26,0 -48,22 -48,49 0,26 22,48 48,48 27,0 49,-22 49,-48 0,-27 -22,-49 -49,-49z"></path><polygon class="fil1" points="96,24 101,15 135,15 140,24 140,24 "></polygon><path class="fil0" d="M119 52c23,0 42,19 42,42 0,22 -19,41 -42,41 -23,0 -41,-18 -41,-41 0,-23 18,-42 41,-42zm0 7c-19,0 -34,15 -34,35 0,19 15,34 34,34 20,0 35,-15 35,-34 0,-20 -15,-35 -35,-35z"></path><path class="fil1" d="M119 67c15,0 27,12 27,27 0,14 -12,26 -27,26 -14,0 -26,-12 -26,-26 0,-15 12,-27 26,-27z"></path></g></svg>