<svg height='100px' width='100px'  fill="#000000" xmlns="http://www.w3.org/2000/svg" xmlns:xlink="http://www.w3.org/1999/xlink" version="1.1" x="0px" y="0px" viewBox="0 0 128 128" style="enable-background:new 0 0 128 128;" xml:space="preserve"><g><path d="M37.9160004,89.2188034c-0.0664139,0-0.1387138,0.0077972-0.2168121,0.0233994   c-0.1015015,0.0205002-0.2098999,0.0302963-0.3231888,0.0302963c-0.5352135,0-1.1669998-0.2158966-1.531311-0.5458984   C35.6747894,88.5731964,35.5116882,88.5,35.3720894,88.5c-0.2237015,0-0.3858032,0.1884995-0.4150887,0.5410004   c-0.0478134,0.5722961-0.506813,1.2637024-1.0215111,1.535202c-0.5146027,0.2714996-0.4863014,0.6884003,0.0625114,0.9266968   c0.5488853,0.2383041,1.0996857,0.8974991,1.2226868,1.4659042c0.0732002,0.3368988,0.25,0.514595,0.4628983,0.514595   c0.1455002,0,0.3076019-0.0839996,0.4648018-0.2567978c0.3418007-0.3779984,1.0088005-0.6436005,1.5684013-0.6436005   c0.0712967,0,0.1405983,0.0048981,0.2080002,0.0137024c0.0565987,0.0077972,0.1103973,0.0116959,0.1602097,0.0116959   c0.4706879,0,0.6307869-0.3261948,0.3504906-0.7792969c-0.3104897-0.5009995-0.3671036-1.3349991-0.125-1.8544998   C38.5204887,89.5263977,38.3417892,89.2188034,37.9160004,89.2188034z"></path><path d="M29.9150009,92.2188034c-0.066412,0-0.1386127,0.0077972-0.2168121,0.0233994   c-0.1005001,0.0205002-0.2098999,0.0302963-0.3231888,0.0302963c-0.5342121,0-1.1669998-0.2158966-1.5312119-0.5458984   C27.6737881,91.5731964,27.5106888,91.5,27.371088,91.5c-0.2236004,0-0.3857002,0.1884995-0.414999,0.5410004   c-0.0469017,0.5722961-0.5059013,1.2637024-1.0206013,1.535202c-0.5145988,0.2714996-0.4862995,0.6884003,0.0625114,0.9266968   c0.5488892,0.2383041,1.0996895,0.8974991,1.2236881,1.4659042c0.0732002,0.3368988,0.25,0.514595,0.4629002,0.514595   c0.1445007,0,0.3066006-0.0839996,0.4638004-0.2567978c0.3418007-0.3779984,1.0088005-0.6436005,1.5683994-0.6436005   c0.0713005,0,0.1406002,0.0048981,0.2080002,0.0137024c0.0566006,0.0077972,0.1104012,0.0116959,0.1602116,0.0116959   c0.4706898,0,0.6307888-0.3261948,0.3504887-0.7792969c-0.3104877-0.5009995-0.3670998-1.3349991-0.125-1.8544998   C30.5204887,92.5263977,30.3417873,92.2188034,29.9150009,92.2188034z"></path><path d="M89.9150009,92.6083984c0.0497818,0,0.1035843-0.0038986,0.1601868-0.0116959   c0.0673981-0.0088043,0.1366959-0.0137024,0.2080002-0.0137024c0.5586014,0,1.2266006,0.2656021,1.5683975,0.6436005   c0.1572037,0.1727982,0.3192978,0.2567978,0.464798,0.2567978c0.2129059,0,0.3897018-0.1776962,0.4629059-0.514595   c0.1229935-0.5684052,0.6737976-1.2276001,1.2227097-1.4659042c0.54879-0.2382965,0.5770874-0.6551971,0.0624847-0.9266968   c-0.5146942-0.2714996-0.9736938-0.9629059-1.0214844-1.535202C93.0136871,88.6884995,92.8515854,88.5,92.6278839,88.5   c-0.139595,0-0.3026962,0.0731964-0.4725952,0.2266006c-0.3642883,0.3300018-0.9961014,0.5458984-1.5312881,0.5458984   c-0.1133118,0-0.2217178-0.0097961-0.3232117-0.0302963c-0.0781021-0.0156021-0.1504059-0.0233994-0.2167892-0.0233994   c-0.4258118,0-0.6045151,0.3075943-0.394516,0.7557983c0.2421036,0.5195007,0.1855164,1.3535004-0.125,1.8544998   C89.2841873,92.2822037,89.4442902,92.6083984,89.9150009,92.6083984z"></path><path d="M97.9150009,95.6083984c0.0497818,0,0.1035843-0.0038986,0.1601868-0.0116959   c0.0673981-0.0088043,0.1366959-0.0137024,0.2080002-0.0137024c0.5586014,0,1.2266006,0.2656021,1.5683975,0.6436005   c0.1572037,0.1727982,0.3192978,0.2567978,0.4637985,0.2567978c0.2129059,0,0.3897018-0.1776962,0.4629059-0.514595   c0.1239929-0.5684052,0.6747971-1.2276001,1.2237091-1.4659042c0.54879-0.2382965,0.5770874-0.6551971,0.0624847-0.9266968   c-0.5146942-0.2714996-0.9736938-0.9629059-1.0205994-1.535202C101.0145874,91.6884995,100.8524857,91.5,100.6288834,91.5   c-0.139595,0-0.3026962,0.0731964-0.4725952,0.2266006c-0.3642883,0.3300018-0.9971008,0.5458984-1.5312881,0.5458984   c-0.1133118,0-0.2227173-0.0097961-0.3232117-0.0302963c-0.0782013-0.0156021-0.1503983-0.0233994-0.2167892-0.0233994   c-0.4268112,0-0.6055145,0.3075943-0.3955154,0.7557983c0.2421036,0.5195007,0.1855164,1.3535004-0.125,1.8544998   C97.2841873,95.2822037,97.4442825,95.6083984,97.9150009,95.6083984z"></path><path d="M25,115c0,1.1044998,0.8573875,2.2577972,1.9160004,2.5742035l6.1698875,2.1884995   C33.6151886,119.9208984,33.8085861,120,34.0019989,120c0.1932907,0,0.3866882-0.0791016,0.9160004-0.2372971l6.1660004-2.1884995   C42.1425896,117.2577972,43,116.1044998,43,115v-11c0-1.1044998-0.8945122-2-2-2H27c-1.1055126,0-2,0.8955002-2,2V115z M29,106h10   v8.0692978l-4.9980011,1.7745056L29,114.0692978V106z"></path><path d="M84,104v11c0,1.1044998,0.8573837,2.2577972,1.9160004,2.5742035l6.1698837,2.1884995   C92.6151886,119.9208984,92.8085861,120,93.0019989,120c0.1932907,0,0.3866882-0.0791016,0.9160004-0.2372971l6.1660004-2.1884995   C101.1425858,117.2577972,102,116.1044998,102,115v-11c0-1.1044998-0.894516-2-2-2H86C84.8944855,102,84,102.8955002,84,104z    M88,106h10v8.0692978l-4.9980011,1.7745056L88,114.0692978V106z"></path><path d="M120.9921875,106.1903992C119.680687,86.1688995,92.803688,81.9628983,92.803688,81.9628983   c-6.6201019-1.1581955-10.2910004-6.5663986-12.0771027-10.301796C86.0517883,65.410202,89.7704849,56.9219017,91.8144836,49.3125   c0.7127991-2.6514015,1.1054001-5.4110985,1.1621017-8.1641006c0.6102982-1.0067978,0.9941025-2.0713005,0.9941025-2.9432983   c0-1.7080002,1.1483994-4.4911995,2.5526962-6.1856003l3.6133041-4.3593006   c1.3916016-1.6788006,1.0634995-4.0566998-0.717804-5.3311005C88.993187,14.8652,67.1601868,1.1299,67.1601868,1.1299   c-0.9453964-0.5938-2.1983032-0.8926-3.4492989-0.8926c-1.2138023,0-2.4257011,0.2813-3.3515015,0.8457   c0,0-23.3134995,14.2235994-31.9794979,20.9375c-1.5557003,1.2040997-2.0410004,3.9169998-0.1631012,5.9004002   c3.0547009,3.2255993,4.3154011,4.5566006,4.3154011,4.5566006c1.5126991,1.5966988,2.7509995,4.5761986,2.7509995,6.6221008   c0,1.309597,0.7158127,2.6571999,1.7841988,3.6132965c0.5381012,9.7656021,4.5039024,21.1494026,10.4961014,28.6367035   c-1.1767998,2.5468979-3.2714882,5.9901962-6.6366997,8.3086014l-0.5245018,0.3388977   c-1.4580002,0.9169998-3.1307983,1.6278992-5.0643997,1.9657974c0,0-26.8769989,4.2060013-28.1884975,24.2275009   c0,0-0.6387,1.7481003,0.7196999,14.2266006C8.3251886,124.6122971,12.3114882,128,16.6415882,128h40.169899l-1.1601028-0.8496017   c-1.1181984-0.8173981-2-1.9189987-2.6259995-3.1503983H16.6415882c-2.3223,0-4.5634995-1.8759995-4.7958994-4.0156021   c-0.9844007-9.0429993-0.8682003-12.0663986-0.8095999-12.7753983l0.0674-0.1846008l0.0370998-0.5722961   c1.085-16.5546036,24.585001-20.5009003,24.8155003-20.5371017l0.0360985-0.0057983l0.035099-0.0059052   c1.5040016-0.2626953,2.8809013-0.6932983,4.1436005-1.2460938l10.785202,15.4208984   C51.5438881,101.3467026,52.4755859,102,53.4647865,102c0.7910995,0,1.6202126-0.4179993,2.3389015-1.2733994l2.0546989-3.3731003   l1.3886986,2.455101l-3.1601982,19.1923981c-0.3680992,1.7714996,0.4365005,3.8320007,1.9286995,4.9227982l4.7442017,3.4756012   c0.4530983,0.3526001,1.1240005,0.6054993,1.8281021,0.6054993c0.5966949,0,1.2177963-0.1817017,1.75-0.6366959   l4.7041092-3.4444046c1.4950867-1.0966949,2.2743835-3.2285004,1.8320007-4.9872971l-3.9414139-19.0410004l1.3057022-2.3837967   l1.9580002,3.2148972C72.9150009,101.5820007,73.7440872,102,74.5351868,102c0.9891968,0,1.9208984-0.6532974,2.5086975-1.9218979   l10.8204041-15.4717026c1.2929001,0.5762024,2.7030945,1.0263977,4.25,1.2968979l0.0360947,0.0059052l0.0283051,0.0048981   c0.2373123,0.0371017,23.6836014,3.975502,24.8183975,20.4813995c0.009697,0.3672028,0.0566025,3.5849991-0.8897018,13.6317978   C115.9081879,122.1436005,113.7440872,124,111.4745865,124H76.0263901   c-0.6143036,1.2275009-1.4942017,2.3252029-2.6201019,3.1503983L72.2460861,128h39.2285004   c4.3320007,0,8.2206955-3.3993988,8.6151962-7.5986023C121.1435852,109.2177963,120.9921875,106.1903992,120.9921875,106.1903992z    M67.2812881,85.607399C66.9150009,86.0195007,66.6415863,86.4961014,66.4315872,87h-4.8632011   c-0.2099991-0.5038986-0.483387-0.9804993-0.8495979-1.392601l-11.2509995-9.3885956   c0.3740005-0.5987015,0.7098999-1.1865997,1.0107002-1.7559052C54.5038872,78.0361023,59.5683861,80,64.6230011,80   c4.3046875,0,8.5996857-1.4188995,12.2353821-4.4677963c0.3164063-0.2656021,0.6230011-0.5498047,0.9316177-0.8320007   c0.2538834,0.4706955,0.5322876,0.952095,0.8349991,1.4413986L67.2812881,85.607399z M74.2880859,72.4677963   C71.5321884,74.7782974,68.1903839,76,64.6230011,76c-4.9824142,0-9.8310013-2.3192978-13.3027153-6.3622971   C46.1034889,63.5625,42.1425896,53.4589996,41.2138863,44.3857002c3.8896027,0.8838005,12.8437004,2.6152992,23.2939034,2.6152992   c0.2490005,0,0.5009995-0.0009995,0.7519989-0.0029984c13.8866959-0.1123009,20.5282974-1.5292015,23.4452972-2.4824028   c-0.1737976,1.2559013-0.4179993,2.5117035-0.7538986,3.7588005   C85.1854858,58.5674019,80.0780869,67.6122971,74.2880859,72.4677963z M64,38c2.9589996,0,5.5370865-1.6113014,6.9208832-4   h19.9492035c-0.5332031,1.3866997-0.8906021,2.8339996-0.8993988,4.1533012   c-0.0723038,0.4237976-0.6660004,1.5186005-1.4531021,2.1553001c-0.7012024,0.3309975-6.0595856,2.5508003-23.2901001,2.6893997   C64.9872894,43,64.7460861,43.0009995,64.5077896,43.0009995c-13.2744026,0-24.2002029-2.9491997-24.3066025-2.9785004   c-0.4208984-0.1161995-0.8808975-0.6777992-0.9179993-0.9228973c0-1.5830002-0.4336014-3.392601-1.1523018-5.0996017h18.9491997   C58.4638863,36.3886986,61.0419998,38,64,38z M60,30c0-2.2061005,1.7938881-4,4-4c2.2060852,0,4,1.7938995,4,4s-1.7939148,4-4,4   C61.7938881,34,60,32.2061005,60,30z M31.121088,25.1709003c-0.0517998-0.0557003-0.0839996-0.1016006-0.1016006-0.1348   c8.5410023-6.5625,31.1933994-20.3983994,31.4218998-20.5381012c0.1591988-0.0966001,0.6054993-0.2607002,1.2705002-0.2607002   c0.6015968,0,1.1055031,0.1445003,1.3184013,0.2783003c0.214798,0.1357999,21.4725952,13.5186005,31.7919998,20.875   l-3.3788986,4.0762005C93.3085861,29.6299,93.17379,29.8183994,93.0390854,30H72c0-4.4179993-3.5820007-8-8-8   c-4.4169998,0-8,3.5820007-8,8H35.6679993c-0.0782127-0.0888996-0.151413-0.1895008-0.2315102-0.2733994L31.121088,25.1709003z    M53.5272865,96.7743988L43.653286,82.6572037l1.2862015-0.8330002l0.4403992-0.2851028l0.3515015-0.3877029l1.464901-1.6181946   l10.6337967,8.8731003c0.2510033,0.4354935,0.2275009,1.1551971-0.0790863,1.5205002L57.555687,90.160202l-0.1581993,0.259697   L53.5272865,96.7743988z M68.9950867,119.9141006c0.0449142,0.1845016-0.1180878,0.6366959-0.3173981,0.7832031   l-4.1493988,3.0389938l-4.1504021-3.0400009c-0.2421989-0.176796-0.4150009-0.6933975-0.3740005-0.8817978L63.2694855,100   h1.6006012l4.097702,19.7958984L68.9950867,119.9141006z M66.5058899,96H61.688488l-1.4482994-2.5596008L60.813488,92.5   c0.375-0.4462967,0.6512985-0.9589996,0.847599-1.5h4.677803c0.1962967,0.5410004,0.4725952,1.0537033,0.8475952,1.5   l0.6514053,1.0692978L66.5058899,96z M74.4726868,96.7743988l-3.8702011-6.3544998l-0.1581955-0.259697l-0.1952896-0.2333984   c-0.3066101-0.365303-0.3301163-1.0850067-0.0791168-1.5205002l10.6338043-8.8731003l1.4648972,1.6181946l0.3515015,0.3877029   l0.4403992,0.2851028l1.2862015,0.8330002L74.4726868,96.7743988z"></path></g></svg>