<svg height='100px' width='100px'  fill="#000000" xmlns="http://www.w3.org/2000/svg" xmlns:xlink="http://www.w3.org/1999/xlink" version="1.1" x="0px" y="0px" viewBox="0 0 100 100" enable-background="new 0 0 100 100" xml:space="preserve"><g display="none"><rect x="5" y="5" display="inline" fill="none" stroke="#000000" stroke-miterlimit="10" width="90" height="90"></rect></g><g><g><path d="M62.945,95.387c-1.757,0-3.636-0.079-5.288-0.735c-1.876-0.744-3.722-1.526-5.605-2.26    c-1.879-0.73-3.665-1.665-5.532-2.429c-2.11-0.862-4.213-1.74-6.315-2.621c-4.053-1.698-8.101-3.401-12.13-5.15    c-1.615-0.701-3.213-0.914-4.748-1.845c-1.561-0.946-3.238-0.933-4.794-1.812c-0.703-0.397-1.43-0.92-2.256-1.01    c-0.785-0.086-1.583-0.34-2.203-0.844c-1.085-0.882-1.094-2.238-0.332-3.338c0.729-1.055,1.849-0.997,2.711-1.954    c0.887-0.982,1.188-2.84-0.324-3.336c-0.975-0.319-1.519-0.817-1.515-1.814c0.006-1.339-0.096-2.699-0.014-4.032    c0.039-0.635,0.198-1.245,0.534-1.79c0.393-0.635,1.155-1.065,1.36-1.798c0.116-0.417-0.266-1.256-0.028-1.514    c0.271-0.294,0.553-0.576,0.856-0.838c0.089-0.569-0.09-1.184-0.212-1.734c-0.097-0.439-0.745-2.018,0.251-1.678    c-0.153,0.017-0.339-0.07-0.493-0.093c0-1.148,1.595-2.225,2.357-2.854c0.693-0.572,1.515-1.167,1.952-1.976    c0.47-0.866-0.234-1.318-0.896-1.777c-1.465-1.013-1.842-2.232-2.522-3.814c-0.157-0.561-0.11-1.077-0.422-1.604    c-0.373-0.632-0.946-1.109-1.409-1.67c-0.925-1.123-1.035-2.429-0.585-3.792c0.661-2.002,0.324-3.476,0.161-5.535    c-0.091-1.157-0.147-2.451-0.565-3.55c-0.412-1.085-0.452-2.293-0.604-3.493c-0.156-1.223-0.67-3.166,0.381-4.075    c1.509-1.305,2.94-0.644,4.652-0.246c0.645,0.149-0.063,1.757,1.01,1.157c1.063-0.593,1.227-1.646,1.703-2.583    c1.331-2.621-2.342-12.464,2.265-12.464c14.837,0,29.675-0.001,44.512-0.001c3.231,0,6.463,0,9.694,0    c1.266,0,3.832-0.4,4.939,0.399c1.386,1,0.6,4.408,0.6,6.225c0,2.22,0.001,4.44,0.001,6.661    c0.002,16.894,0.003,33.788,0.005,50.683c0.001,8.846,0.002,17.692,0.003,26.538c-3.419-0.081-6.839-0.047-10.258-0.027    C70.202,94.982,66.58,95.387,62.945,95.387z M14.932,73.463c-0.873,0.922-1.043,2.108,0.228,2.73    c0.647,0.316,1.365,0.291,2.034,0.528c0.687,0.243,1.298,0.646,1.93,0.998c1.252,0.696,2.655,0.598,3.919,1.299    c1.341,0.744,2.425,1.276,3.893,1.685c1.291,0.359,2.481,1.02,3.698,1.563c1.616,0.724,3.278,1.356,4.912,2.038    c3.307,1.381,6.607,2.777,9.919,4.146c2.858,1.181,5.639,2.62,8.574,3.594c1.373,0.456,2.617,1.127,3.954,1.665    c1.383,0.556,2.948,0.646,4.422,0.673c3.31,0.061,6.604-0.406,9.912-0.414c3.591-0.009,7.182-0.067,10.772-0.001    c-0.001-11.598-0.003-23.194-0.004-34.792c-0.001-15.503-0.003-31.007-0.005-46.51c0-1.096,0-2.191,0-3.287    c0-1.462,0.906-3.894-1.268-3.894c-0.592,0-1.184,0-1.775,0c-7.005,0-14.009,0-21.013,0.001c-8.687,0-17.373,0-26.06,0    c-2.584,0-5.169,0-7.753,0c-0.435,0-0.869,0-1.304,0c-1.546,0-0.686,6.273-0.652,7.213c0.053,1.537,0.499,3.63-0.463,4.983    c-0.128,1.272-1.492,2.994-2.869,2.994c-0.81,0-1.201-0.725-1.268-1.445c-0.676-0.188-1.382-0.518-2.098-0.443    c-2.236,0.233-1.309,3.268-1.116,4.755c0.132,1.021,0.313,1.82,0.57,2.777c0.419,1.558,0.377,3.177,0.62,4.76    c0.116,0.757,0.271,1.511,0.228,2.282c-0.055,0.958-0.492,1.767-0.708,2.682c-0.36,1.529,0.529,2.336,1.449,3.393    c1.014,1.164,1.067,2.607,1.642,3.982c0.313,0.747,0.65,1.277,1.322,1.728c0.661,0.445,1.524,0.975,1.747,1.8    c0.459,1.696-1.771,3.153-2.839,4.047c-0.585,0.49-1.398,1.089-1.612,1.866c0.048,0.99,0.404,1.932,0.463,2.922    c0.027,0.455-0.02,0.802-0.242,1.146c-0.846,0.7-0.339,1.31-0.744,2.259c-0.317,0.741-1.021,1.153-1.409,1.846    c-0.369,0.66-0.37,1.416-0.34,2.15c0.031,0.75,0.021,1.501,0.019,2.252c-0.002,0.295-0.13,0.906-0.005,1.168    c0.354,0.52,1.1,0.506,1.59,0.844c0.707,0.488,1.132,1.646,1.044,2.477C18.077,71.535,16.513,73.152,14.932,73.463    C14.466,73.955,16.116,73.23,14.932,73.463z"></path></g></g></svg>