<svg height='100px' width='100px'  fill="#000000" xmlns="http://www.w3.org/2000/svg" viewBox="0 0 64 64" x="0px" y="0px"><g><path d="M60,21a4.95,4.95,0,0,0-2,.424V21a2,2,0,0,0-2-2H55a4.971,4.971,0,0,0-1.812.352A15.746,15.746,0,0,0,54,14.383,12.291,12.291,0,0,0,42.381,2.006,11.973,11.973,0,0,0,32,7.38,11.963,11.963,0,0,0,21.619,2.006,12.292,12.292,0,0,0,10,14.384a15.772,15.772,0,0,0,.811,4.968A4.961,4.961,0,0,0,9,19H8a2,2,0,0,0-2,2v.424A4.95,4.95,0,0,0,4,21a2,2,0,0,0-2,2V42.12a4.029,4.029,0,0,0,.64,2.161L9.977,55.7A4.971,4.971,0,0,0,13,57.853V62h2V56.99a1,1,0,0,0-.953-1,2.986,2.986,0,0,1-2.386-1.371L4.32,43.2A2,2,0,0,1,4,42.12V36a4,4,0,0,1,4,4v3a1.006,1.006,0,0,0,.168.555L9.13,45a1,1,0,0,0,1.241.357A3.985,3.985,0,0,1,16,49a1,1,0,0,0,2,0,6.006,6.006,0,0,0-6-6,5.9,5.9,0,0,0-1.643.234L10,42.7V40a6.006,6.006,0,0,0-6-6V23a3,3,0,0,1,3,3v7H9V26a4.952,4.952,0,0,0-1-2.969V21H9a3,3,0,0,1,3,3V37.95h2V24.88a15.747,15.747,0,0,0,2.616,2.361l.384.274V37.95h2V28.943l2,1.429V37a1,1,0,0,0,.168.555l5.059,7.578a11.011,11.011,0,0,1,1.513,8.774,2.76,2.76,0,0,1-1.992,2A1,1,0,0,0,25,56.87V62h2V57.576a4.75,4.75,0,0,0,2.68-3.183,13.011,13.011,0,0,0-1.788-10.368L23,36.7V31.8l8.419,6.013a1,1,0,0,0,1.162,0L41,31.8v4.9l-4.893,7.33A13.01,13.01,0,0,0,34.32,54.393,4.75,4.75,0,0,0,37,57.576V62h2V56.87a1,1,0,0,0-.748-.968,2.76,2.76,0,0,1-1.992-2,11.01,11.01,0,0,1,1.512-8.772l5.06-7.58A1,1,0,0,0,43,37V30.372l2-1.429V38h2V27.514l.384-.274A15.7,15.7,0,0,0,50,24.88V38h2V24a3,3,0,0,1,3-3h1v2.031A4.952,4.952,0,0,0,55,26v7h2V26a3,3,0,0,1,3-3V34a6.006,6.006,0,0,0-6,6v2.7l-.357.537A5.9,5.9,0,0,0,52,43a6.006,6.006,0,0,0-6,6,1,1,0,0,0,2,0,3.985,3.985,0,0,1,5.629-3.645A1,1,0,0,0,54.87,45l.962-1.443A1.006,1.006,0,0,0,56,43V40a4,4,0,0,1,4-4v5.825a3,3,0,0,1-.477,1.623L52.34,54.623a3,3,0,0,1-2.386,1.366,1,1,0,0,0-.954,1V62h2V57.851A4.994,4.994,0,0,0,54.021,55.7l7.184-11.175a4.978,4.978,0,0,0,.8-2.7V23A2,2,0,0,0,60,21ZM46.222,25.613,32,35.771,17.778,25.613A13.829,13.829,0,0,1,12,14.383,10.278,10.278,0,0,1,21.682,4.005c.1,0,.209,0,.313,0a9.988,9.988,0,0,1,9.1,5.853,1,1,0,0,0,1.818,0,10.025,10.025,0,0,1,9.409-5.848A10.278,10.278,0,0,1,52,14.384,13.741,13.741,0,0,1,51.725,17H47a1,1,0,0,0-.8.4l-1.792,2.389L40.962,7.725A1,1,0,0,0,40,7h0a1,1,0,0,0-.96.732L34.847,22.815,30.934,12.641A1,1,0,0,0,30.007,12H30a1,1,0,0,0-.929.628L27.323,17H26v2h2a1,1,0,0,0,.929-.628l1.052-2.634,4.085,10.621A1,1,0,0,0,35,27h.048a1,1,0,0,0,.916-.731l4.05-14.58,3.024,10.587A1,1,0,0,0,44.8,22.6L47.5,19h3.69A13.807,13.807,0,0,1,46.222,25.613Z"></path><rect x="22" y="17" width="2" height="2"></rect><rect x="18" y="17" width="2" height="2"></rect><rect x="14" y="17" width="2" height="2"></rect></g></svg>