<svg height='100px' width='100px'  fill="#000000" xmlns="http://www.w3.org/2000/svg" xmlns:xlink="http://www.w3.org/1999/xlink" version="1.1" x="0px" y="0px" viewBox="0 0 128 128" style="enable-background:new 0 0 128 128;" xml:space="preserve"><g><circle cx="2" cy="126" r="2"></circle><path d="M21.9491882,4h50.1016006C73.1259995,4,74,4.9081998,74,6.0244002V66h1.2743835L78,61.2471008V6.0244002   C78,2.7026,75.3310852,0,72.0507889,0H21.9491882c-3.2723999,0-5.9345989,2.6895001-5.9481888,6h4.0010014   C20.0155888,4.8955002,20.8817883,4,21.9491882,4z"></path><path d="M10,16.0244007C10,14.9082003,10.8739996,14,11.9491882,14h50.1016006C63.1259995,14,64,14.9082003,64,16.0244007V66h4   V16.0244007C68,12.7025995,65.3310852,10,62.0507889,10H11.9491882C8.6688881,10,6,12.7025995,6,16.0244007V66h4V16.0244007z"></path><path d="M122,53H92.5c-2.9404144,0-6.2607117,1.9233017-7.7256165,4.4746017L77.5917892,70H6c-3.3086114,0-6,2.6913986-6,6v42   c0,1.1044998,0.8954887,2,2,2c1.1044886,0,2-0.8955002,2-2V76c0-1.1025009,0.8974886-2,2-2h72.75   c0.7167892,0,1.3788834-0.3837967,1.7353897-1.0048981l7.7586975-13.5298004C88.9843903,58.1748009,91.0136871,57,92.5,57H122   c1.1024857,0,2,0.8969994,2,2v67c0,1.1044998,0.8954849,2,2,2c1.1044846,0,2-0.8955002,2-2V59   C128,55.6913986,125.3085861,53,122,53z"></path><path d="M51.5,32h-29c-1.1045113,0-2,0.8955002-2,2s0.8954887,2,2,2h29c1.1044884,0,2-0.8955002,2-2S52.6044884,32,51.5,32z"></path><path d="M51.5,24h-29c-1.1045113,0-2,0.8955002-2,2s0.8954887,2,2,2h29c1.1044884,0,2-0.8955002,2-2S52.6044884,24,51.5,24z"></path><path d="M51.5,40h-29c-1.1045113,0-2,0.8955002-2,2s0.8954887,2,2,2h29c1.1044884,0,2-0.8955002,2-2S52.6044884,40,51.5,40z"></path><path d="M51.5,48h-29c-1.1045113,0-2,0.8955002-2,2s0.8954887,2,2,2h29c1.1044884,0,2-0.8955002,2-2S52.6044884,48,51.5,48z"></path><path d="M51.5,56h-29c-1.1045113,0-2,0.8955002-2,2s0.8954887,2,2,2h29c1.1044884,0,2-0.8955002,2-2S52.6044884,56,51.5,56z"></path><path d="M38.4472885,91.1855011c1.6288986,0.2919998,3.2255974,1.6006012,3.6357117,2.9785995   c0.3153877,1.0595016,1.4296875,1.663002,2.4872856,1.3465958c1.0586014-0.3153992,1.6611023-1.4286957,1.346714-2.4872971   c-0.8447113-2.8378983-3.6259995-5.2128983-6.7676125-5.7762985C39.1005859,87.2382965,39.0487862,87.232399,39,87.2246017V86   c0-1.1044998-0.8955116-2-2-2c-1.1045113,0-2,0.8955002-2,2v1.2461014   c-1.9717102,0.3506012-3.8926125,1.2558975-5.1201115,3.0331955c-1.4434013,2.0858994-1.4512005,4.8730011-0.0205002,7.1006012   c1.6054001,2.5057983,4.4061985,3.260704,6.8779011,3.9277039c2.5185966,0.6786957,4.0868988,1.1669998,4.5653992,2.5849991   c0.4580002,1.3544998-0.9531021,2.3281021-1.7656021,2.6552963c-1.4569969,0.5888062-3.2782974,0.5146027-4.8700867-0.1953964   c-1.3545113-0.6044998-2.3701134-1.6102982-2.7871113-2.7586975c-0.3760014-1.0381012-1.5254002-1.5752029-2.5615005-1.1983032   c-1.0391006,0.3759995-1.5751991,1.5233994-1.1982994,2.5615005c0.7959118,2.1952972,2.5419998,3.9882965,4.9169979,5.0478973   c0.6387024,0.2851028,1.2979126,0.4971008,1.9629135,0.6533051V112c0,1.1044998,0.8954887,2,2,2c1.1044884,0,2-0.8955002,2-2   v-1.1894989c0.6972885-0.1112976,1.3798866-0.2900009,2.0312881-0.5527039   c3.3905983-1.3622971,5.0985985-4.5780945,4.0615005-7.6455002c-1.1865005-3.5155945-4.5839996-4.4315948-7.3145027-5.1669998   c-1.9432869-0.5243988-3.7792854-1.0184937-4.5526962-2.2255936c-0.5557022-0.8652039-0.5781021-1.9111023-0.0557022-2.6660004   C34.143589,91.1436005,36.5888863,90.8554993,38.4472885,91.1855011z"></path><path d="M109.875,65h-9.9687119c-1.7753983,0-3.8311005,1.0253983-4.8887024,2.4384995l-3.7422028,6.3525009   c-0.5595932,0.9531021-0.2401962,2.1787033,0.7119064,2.7372971c0.9540939,0.5586014,2.1787109,0.2393036,2.7372971-0.7118988   l3.5468979-6.0438995C98.6093826,69.392601,99.4267883,69,99.9062881,69H109.875c1.1718826,0,2.125,0.9287033,2.125,2.0712967V105   c0,1.1044998,0.8954849,2,2,2c1.1044846,0,2-0.8955002,2-2V71.0712967C116,67.7236023,113.2519989,65,109.875,65z"></path><circle cx="114" cy="113" r="2"></circle><path d="M84,26.0244007v26.2787991c1.1815872-1.0023994,2.5546875-1.8177986,4-2.3905983V26.0244007   C88,22.7026005,85.3310852,20,82.0507889,20H82v4h0.0507889C83.1259995,24,84,24.9081993,84,26.0244007z"></path></g></svg>