<svg height='100px' width='100px'  fill="#000000" xmlns:x="http://ns.adobe.com/Extensibility/1.0/" xmlns:i="http://ns.adobe.com/AdobeIllustrator/10.0/" xmlns:graph="http://ns.adobe.com/Graphs/1.0/" xmlns="http://www.w3.org/2000/svg" xmlns:xlink="http://www.w3.org/1999/xlink" version="1.1" x="0px" y="0px" viewBox="0 0 100 100" style="enable-background:new 0 0 100 100;" xml:space="preserve"><g><g i:extraneous="self"><g><path d="M5273.1,2400.1v-2c0-2.8-5-4-9.7-4s-9.7,1.3-9.7,4v2c0,1.8,0.7,3.6,2,4.9l5,4.9c0.3,0.3,0.4,0.6,0.4,1v6.4     c0,0.4,0.2,0.7,0.6,0.8l2.9,0.9c0.5,0.1,1-0.2,1-0.8v-7.2c0-0.4,0.2-0.7,0.4-1l5.1-5C5272.4,2403.7,5273.1,2401.9,5273.1,2400.1z      M5263.4,2400c-4.8,0-7.4-1.3-7.5-1.8v0c0.1-0.5,2.7-1.8,7.5-1.8c4.8,0,7.3,1.3,7.5,1.8C5270.7,2398.7,5268.2,2400,5263.4,2400z"></path><path d="M5268.4,2410.3c-0.6,0-1,0.4-1,1c0,0.6,0.4,1,1,1h4.3c0.6,0,1-0.4,1-1c0-0.6-0.4-1-1-1H5268.4z"></path><path d="M5272.7,2413.7h-4.3c-0.6,0-1,0.4-1,1c0,0.6,0.4,1,1,1h4.3c0.6,0,1-0.4,1-1C5273.7,2414.1,5273.3,2413.7,5272.7,2413.7z"></path><path d="M5272.7,2417h-4.3c-0.6,0-1,0.4-1,1c0,0.6,0.4,1,1,1h4.3c0.6,0,1-0.4,1-1C5273.7,2417.5,5273.3,2417,5272.7,2417z"></path></g><g><path d="M51.7,31.2h13c1.3,0,2.3-1,2.3-2.3s-1-2.3-2.3-2.3h-13c-1.3,0-2.3,1-2.3,2.3S50.4,31.2,51.7,31.2z"></path><path d="M33.6,30.3l2.9,3.1c0.4,0.5,1.1,0.7,1.7,0.7c0.6,0,1.3-0.3,1.7-0.7l5.4-5.8c0.9-0.9,0.8-2.4-0.1-3.3     c-0.9-0.9-2.4-0.8-3.3,0.1l-3.7,4L37,27.1c-0.9-0.9-2.4-1-3.3-0.1C32.8,27.9,32.7,29.4,33.6,30.3z"></path><path d="M51.7,44h13c1.3,0,2.3-1,2.3-2.3s-1-2.3-2.3-2.3h-13c-1.3,0-2.3,1-2.3,2.3S50.4,44,51.7,44z"></path><path d="M41.9,37.2l-3.7,4L37,39.9c-0.9-0.9-2.4-1-3.3-0.1c-0.9,0.9-1,2.4-0.1,3.3l2.9,3.1c0.4,0.5,1.1,0.7,1.7,0.7     c0.6,0,1.3-0.3,1.7-0.7l5.4-5.8c0.9-0.9,0.8-2.4-0.1-3.3C44.2,36.2,42.8,36.2,41.9,37.2z"></path><path d="M51.7,56.9h13c1.3,0,2.3-1,2.3-2.3s-1-2.3-2.3-2.3h-13c-1.3,0-2.3,1-2.3,2.3S50.4,56.9,51.7,56.9z"></path><path d="M41.9,50l-3.7,4L37,52.8c-0.9-0.9-2.4-1-3.3-0.1c-0.9,0.9-1,2.4-0.1,3.3l2.9,3.1c0.4,0.5,1.1,0.7,1.7,0.7     c0.6,0,1.3-0.3,1.7-0.7l5.4-5.8c0.9-0.9,0.8-2.4-0.1-3.3C44.2,49,42.8,49,41.9,50z"></path><path d="M86.3,11.6c-5.1,0-51.9,0-51.9,0c-7.8,0-14.1,6.3-14.1,14.1v40.4H4.8c-1.3,0-2.3,1-2.3,2.3v5.9c0,7.8,6.3,14.1,14.1,14.1     h51.9c6.2,0,11.2-5,11.2-11.2V34.7h15.4c1.3,0,2.3-1,2.3-2.3v-9.6C97.5,16.6,92.5,11.6,86.3,11.6z M16.6,83.8     c-5.2,0-9.5-4.2-9.5-9.5v-3.5h50.2v6.4c0,2.4,0.8,4.7,2.1,6.5H16.6z M75.1,22.8v54.5c0,3.6-2.9,6.5-6.5,6.5     c-3.6,0-6.5-2.9-6.5-6.5v-8.8c0-1.3-1-2.3-2.3-2.3H24.9V25.7c0-5.2,4.2-9.5,9.5-9.5h42.9C75.9,18.1,75.1,20.3,75.1,22.8z      M92.8,30H79.8v-7.2c0-3.6,2.9-6.5,6.5-6.5c3.6,0,6.5,2.9,6.5,6.5V30z"></path></g></g></g></svg>