<svg height='100px' width='100px'  fill="#000000" xmlns="http://www.w3.org/2000/svg" viewBox="0 0 100 100" x="0px" y="0px"><path d="m22.577352 3c-1.790171 0-3.250352 1.4620452-3.250352 3.2522176v76.9006664c0 1.790171 1.460181 3.252217 3.250352 3.252217h32.616645l.00032-11.373435h-31.09528v-63.25963h42.138432v46.455937c.687693-.07381 1.391136-.119348 2.112822-.119348.915867.000001 1.805929.06522 2.664804.182751v-52.0391584c0-1.7901724-1.462052-3.2522176-3.252223-3.2522176zm17.100958 3.5207484h10.950125c.526071 0 .95478.4287082.95478.9547797 0 .5260719-.428709.9249419-.95478.9249419h-10.950125c-.526072 0-.95478-.397915-.95478-.9249419 0-.5260715.428708-.9547797.95478-.9547797zm5.493711 71.1458836c1.5553 0 2.804664 1.279201 2.804664 2.834501 0 1.555301-1.24841 2.804664-2.804664 2.804664-1.555302 0-2.834503-1.248408-2.834503-2.804664 0-1.5553 1.279201-2.834501 2.834503-2.834501z"></path><path d="m80.661205 69.540374c-1.60885 3.270147-6.511479 5.649348-12.311353 5.649348-5.799884 0-10.702523-2.379201-12.311365-5.649348.249609 4.083879 5.664544 7.347501 12.311365 7.347501 6.64681 0 12.061745-3.263622 12.311353-7.347501z"></path><path d="m80.672978 66.65892c0-4.220389-5.517259-7.64169-12.323126-7.64169-6.805878 0-12.323128 3.421301-12.323128 7.64169 0 4.22039 5.51725 7.641692 12.323128 7.641692 6.805867 0 12.323126-3.421302 12.323126-7.641692z"></path><path d="m80.661205 72.127625c-1.60885 3.270146-6.511479 5.649345-12.311353 5.649345-5.799884 0-10.702523-2.379199-12.311365-5.649345.249609 4.083879 5.664544 7.347499 12.311365 7.347499 6.64681 0 12.061745-3.26362 12.311353-7.347499z"></path><path d="m80.661205 74.715104c-1.60885 3.270147-6.511479 5.649348-12.311353 5.649348-5.799884 0-10.702523-2.379201-12.311365-5.649348.249609 4.083879 5.664544 7.347496 12.311365 7.347496 6.64681 0 12.061745-3.263617 12.311353-7.347496z"></path><path d="m80.661205 77.302585c-1.60885 3.270146-6.511479 5.649343-12.311353 5.649343-5.799884 0-10.702523-2.379197-12.311365-5.649343.249609 4.083877 5.664544 7.347495 12.311365 7.347495 6.64681 0 12.061745-3.263618 12.311353-7.347495z"></path><path d="m80.661205 79.890065c-1.60885 3.270147-6.511479 5.649343-12.311353 5.649343-5.799884 0-10.702523-2.379196-12.311365-5.649343.249609 4.083875 5.664544 7.347496 12.311365 7.347496 6.64681 0 12.061745-3.263621 12.311353-7.347496z"></path><path d="m80.661205 82.477544c-1.60885 3.270137-6.511479 5.649334-12.311353 5.649334-5.799884 0-10.702523-2.379197-12.311365-5.649334.249609 4.083877 5.664544 7.347497 12.311365 7.347497 6.64681 0 12.061745-3.26362 12.311353-7.347497z"></path><path d="m80.661204 85.065023c-1.608846 3.270147-6.511474 5.649348-12.311351 5.649348-5.799885 0-10.702524-2.379201-12.311366-5.649348.249609 4.083879 5.664544 7.347496 12.311366 7.347496 6.646807 0 12.061748-3.263617 12.311351-7.347496z"></path><path d="m80.661204 87.652504c-1.608846 3.270146-6.511474 5.649343-12.311351 5.649343-5.799885 0-10.702524-2.379197-12.311366-5.649343.249609 4.083877 5.664544 7.347496 12.311366 7.347496 6.646807 0 12.061748-3.263619 12.311351-7.347496z"></path><path d="m41.754112 23.614754c-6.262754 1.478516-7.89114 11.026842-5.365718 21.724112 2.52542 10.697273 8.240341 18.458847 14.503094 16.980331l-2.352667-9.965513c-2.386529.436048-4.232504-3.41083-5.456421-8.595143-1.223917-5.184315-1.305189-9.500941 1.024378-10.178275z"></path><path d="m42.458745 23.448404l2.358608 9.990679c1.278487-.317368 2.402758-.636824 3.152684-1.27565.509402-.43393.854956-1.105133.647014-1.98594l-1.301095-5.511231c-.207942-.880807-.817198-1.326597-1.466882-1.486889-.956453-.23598-2.104891-.0189-3.390329.269031z"></path><path d="m49.243454 52.187334l2.358608 9.990679c1.278488-.317367 2.402758-.636823 3.152685-1.275649.509401-.433931.854956-1.105134.647015-1.98594l-1.301096-5.511231c-.207942-.880807-.817198-1.326598-1.466883-1.486891-.956451-.235978-2.104889-.0189-3.390329.269032z"></path></svg>