<svg height='100px' width='100px'  fill="#000000" xmlns="http://www.w3.org/2000/svg" viewBox="0 0 64 64" x="0px" y="0px"><rect x="16" y="35" width="4" height="2"></rect><rect x="22" y="11" width="11" height="2"></rect><rect x="22" y="7" width="7" height="2"></rect><rect x="24" y="49" width="8" height="2"></rect><rect x="56" y="41" width="4" height="4"></rect><path d="M24,45H42.35A6.00477,6.00477,0,0,1,48,41H24Z"></path><path d="M53.65,45H54V41H48A6.00477,6.00477,0,0,1,53.65,45Z"></path><path d="M9.61816,21H19a.99974.99974,0,0,1,1,1V32a.99974.99974,0,0,1-1,1H4v4h6v6H4v2h6.35A5.99026,5.99026,0,0,1,21.65,45H22V19H10.61816Z"></path><circle cx="16" cy="47" r="4"></circle><circle cx="48" cy="47" r="4"></circle><path d="M24,17V39H60V17Zm6,20H28V19h2Zm6,0H34V19h2ZM46,25H41a1.001,1.001,0,0,0-1,1v1h6v3a3.00328,3.00328,0,0,1-3,3v2H41V33H38V31h5a1.001,1.001,0,0,0,1-1V29H38V26a3.00328,3.00328,0,0,1,3-3V21h2v2h3Zm4,12H48V19h2Zm6,0H54V19h2Z"></path><rect x="4" y="39" width="4" height="2"></rect><polygon points="18 23 8.618 23 4.618 31 18 31 18 23"></polygon></svg>