<svg height='100px' width='100px'  fill="#000000" xmlns:dc="http://purl.org/dc/elements/1.1/" xmlns:cc="http://creativecommons.org/ns#" xmlns:rdf="http://www.w3.org/1999/02/22-rdf-syntax-ns#" xmlns:svg="http://www.w3.org/2000/svg" xmlns="http://www.w3.org/2000/svg" xmlns:sodipodi="http://sodipodi.sourceforge.net/DTD/sodipodi-0.dtd" xmlns:inkscape="http://www.inkscape.org/namespaces/inkscape" viewBox="0 0 12.7 12.7" version="1.1" x="0px" y="0px"><g transform="translate(0,-284.29998)"><path style="" d="m 5.2010161,287.06934 -1.8782598,1.1608 a 0.39899488,0.39899488 0 0 0 -0.1700771,0.46269 l 0.6148865,1.89568 a 0.43560186,0.43560186 0 0 0 0.2915325,0.27934 0.26460224,0.26460224 0 0 0 0.1685947,-0.006 l 0.1281755,-0.0475 a 0.13676468,0.13676468 0 0 1 0.1670135,0.0603 l 0.2277906,0.4009 a 0.5750092,0.5750092 0 0 0 0.1597994,0.17976 0.1375216,0.1375216 0 0 1 0.05633,0.11082 v 4.24996 a 0.65456456,0.65456456 0 0 0 1.3088326,0 v -3.67748 a 0.07418033,0.07418033 0 0 1 0.148138,0 v 3.67748 a 0.6547128,0.6547128 0 0 0 1.3094256,0 v -4.24996 a 0.1375216,0.1375216 0 0 1 0.05633,-0.11082 0.5750092,0.5750092 0 0 0 0.1603923,-0.17976 l 0.2277907,-0.4009 a 0.13676468,0.13676468 0 0 1 0.1664205,-0.0603 l 0.1281755,0.0475 a 0.26460224,0.26460224 0 0 0 0.1685947,0.006 0.43560186,0.43560186 0 0 0 0.2915325,-0.27934 l 0.6148865,-1.89568 a 0.39899488,0.39899488 0 0 0 -0.1700771,-0.46269 l -1.8782598,-1.1608 H 6.4842532 l -0.052377,0.31612 h -0.16395 l -0.052377,-0.31612 z m 0.037553,0.13073 h 0.8665927 l 0.052377,0.31561 h 0.3856135 l 0.052377,-0.31561 h 0.8666915 l 1.8466359,1.14139 a 0.26825822,0.26825822 0 0 1 0.1144389,0.31102 l -0.6143924,1.89466 a 0.30486524,0.30486524 0 0 1 -0.2047645,0.19508 0.13386556,0.13386556 0 0 1 -0.085977,-0.003 l -0.1281754,-0.0475 a 0.2675013,0.2675013 0 0 0 -0.3258247,0.11848 l -0.2276918,0.40089 A 0.44427253,0.44427253 0 0 1 7.7123462,291.35 0.26825822,0.26825822 0 0 0 7.6025521,291.56602 v 4.24996 a 0.52378205,0.52378205 0 0 1 -1.0474417,0 v -3.67748 a 0.20491702,0.20491702 0 0 0 -0.4096279,0 v 3.67748 a 0.52397951,0.52397951 0 0 1 -1.0479357,0 v -4.24996 A 0.26825822,0.26825822 0 0 0 4.9877527,291.35 0.44427253,0.44427253 0 0 1 4.864222,291.21109 L 4.6364313,290.8102 v 0 a 0.2675013,0.2675013 0 0 0 -0.3263187,-0.11848 l -0.1281755,0.0475 a 0.13386556,0.13386556 0 0 1 -0.085977,0.003 0.30486524,0.30486524 0 0 1 -0.2048633,-0.19508 l -0.6142936,-1.89466 a 0.26825822,0.26825822 0 0 1 0.1143401,-0.31102 z" fill="#000000" stroke="none"></path><path style="" d="m 6.3250468,284.82945 a 1.0383146,1.0383146 0 0 0 -1.0131495,1.04385 1.0383146,1.0383146 0 1 0 2.0764031,0 1.0383146,1.0383146 0 0 0 -1.0632536,-1.04385 z m 0,0.13635 a 0.90760487,0.90760487 0 0 1 0.9340899,0.9075 0.90760487,0.90760487 0 0 1 -1.8150121,0 0.90760487,0.90760487 0 0 1 0.8809222,-0.9075 z" fill="#000000" stroke="none"></path><path style="" d="m 5.0979421,288.1377 -0.9856763,0.60925 a 0.05365162,0.05365162 0 0 0 -0.02273,0.0618 l 0.4438212,1.37069 a 0.81903432,0.81903432 0 0 1 0.0336,0.34318 1.677136,1.677136 0 0 1 0.530688,0.25841 z m -0.1313379,0.23441 v 2.17247 A 1.8078727,1.8078727 0 0 0 4.703632,290.42815 0.949771,0.949771 0 0 0 4.658173,290.13909 l -0.4259339,-1.31298 z" fill="#000000" stroke="none"></path><path style="" d="m 6.0193824,289.62075 0.330667,0.3605 0.330667,-0.3605 -0.1377614,-1.92913 H 6.1571438 Z" fill="#000000" stroke="none"></path><path style="" d="m 7.62627,288.152 v 2.61218 a 1.677136,1.677136 0 0 1 0.5066735,-0.24156 0.81903432,0.81903432 0 0 1 0.0336,-0.34318 l 0.4443153,-1.37069 a 0.05365162,0.05365162 0 0 0 -0.02273,-0.0618 z m 0.1302507,0.23491 0.7114381,0.4392 -0.4259339,1.31298 a 0.949771,0.949771 0 0 0 -0.045459,0.28906 1.8078727,1.8078727 0 0 0 -0.2400449,0.10366 z" fill="#000000" stroke="none"></path></g></svg>