<svg height='100px' width='100px'  fill="#000000" xmlns="http://www.w3.org/2000/svg" xmlns:xlink="http://www.w3.org/1999/xlink" version="1.1" x="0px" y="0px" viewBox="0 0 100 100" style="enable-background:new 0 0 100 100;" xml:space="preserve"><g><path d="M16.8,40c0.6,0,1.1,0.5,1.1,1.1c0,0.8,0.7,1.5,1.5,1.5s1.5-0.7,1.5-1.5c0-1.7-1.1-3.2-2.6-3.8v-0.5c0-0.8-0.7-1.5-1.5-1.5   s-1.5,0.7-1.5,1.5v0.5c-1.5,0.6-2.6,2.1-2.6,3.8c0,2.1,1.7,3.9,3.8,4c0.1,0,0.2,0,0.3,0c0.6,0,1.1,0.5,1.1,1.1   c0,0.6-0.5,1.1-1.1,1.1c-0.6,0-1.1-0.5-1.1-1.1c0-0.8-0.7-1.5-1.5-1.5s-1.5,0.7-1.5,1.5c0,1.7,1.1,3.2,2.6,3.8v0.5   c0,0.8,0.7,1.5,1.5,1.5s1.5-0.7,1.5-1.5V50c1.5-0.6,2.6-2.1,2.6-3.8c0-2.1-1.7-3.9-3.8-4c-0.1,0-0.2,0-0.3,0   c-0.6,0-1.1-0.5-1.1-1.1S16.2,40,16.8,40z"></path><path d="M96.5,69.4C96.5,69.4,96.5,69.4,96.5,69.4c0-0.1,0-0.1,0-0.1c0-0.1,0-0.1,0-0.2c0,0,0-0.1,0-0.1c0-0.1,0-0.1-0.1-0.2   c0,0,0-0.1-0.1-0.1c0,0,0-0.1,0-0.1L85.5,50c1.8-0.9,3-2.7,3-4.8c0-2.9-2.4-5.3-5.3-5.3c-0.4,0-0.7,0-1.1,0.1   c-0.1-0.1-0.3-0.2-0.5-0.3L51.5,28.3v-7.5c4.1-0.7,7.2-4.3,7.2-8.6c0-4.8-3.9-8.7-8.7-8.7s-8.7,3.9-8.7,8.7c0,4.3,3.1,7.9,7.2,8.6   v6.3L20.4,16.7c-1-0.9-2.2-1.5-3.6-1.5c-2.9,0-5.3,2.4-5.3,5.3c0,2.1,1.2,3.9,3,4.8L3.7,43.9c0,0,0,0.1,0,0.1c0,0,0,0.1-0.1,0.1   c0,0.1,0,0.1-0.1,0.2c0,0,0,0.1,0,0.1c0,0.1,0,0.1,0,0.2c0,0,0,0,0,0.1c0,0,0,0,0,0.1c0,0,0,0.1,0,0.1c0.1,7.2,6,13.1,13.2,13.1   S29.9,52,30,44.8c0,0,0-0.1,0-0.1c0,0,0,0,0-0.1c0,0,0,0,0-0.1c0-0.1,0-0.1,0-0.2c0,0,0-0.1,0-0.1c0-0.1,0-0.1-0.1-0.2   c0,0,0-0.1-0.1-0.1c0,0,0-0.1,0-0.1L19,25.3c1.8-0.9,3-2.7,3-4.8c0,0,0,0,0,0l26.4,9.9v54.2H32.8c-5.7,0-10.4,4.7-10.4,10.4   c0,0.8,0.7,1.5,1.5,1.5h52.2c0.8,0,1.5-0.7,1.5-1.5c0-5.7-4.7-10.4-10.4-10.4H51.5v-53l27.6,10.4c-0.7,0.9-1.2,2-1.2,3.3   c0,2.1,1.2,3.9,3,4.8L70.2,68.6c0,0,0,0.1,0,0.1c0,0,0,0.1-0.1,0.1c0,0.1,0,0.1-0.1,0.2c0,0,0,0.1,0,0.1c0,0.1,0,0.1,0,0.2   c0,0,0,0,0,0.1c0,0,0,0,0,0.1c0,0,0,0.1,0,0.1c0.1,7.2,6,13.1,13.2,13.1S96.4,76.7,96.5,69.4C96.5,69.4,96.5,69.4,96.5,69.4z    M44.3,12.3c0-3.2,2.6-5.7,5.7-5.7s5.7,2.6,5.7,5.7S53.2,18,50,18S44.3,15.4,44.3,12.3z M16.8,54.9c-5.5,0-10-4.4-10.2-9.9   l10.2-17.7L27,45C26.8,50.5,22.3,54.9,16.8,54.9z M19.1,20.5c0,1.3-1,2.3-2.3,2.3s-2.3-1-2.3-2.3c0-1.3,1-2.3,2.3-2.3   c0.3,0,0.5,0.1,0.8,0.1c0.5,0.2,0.9,0.5,1.1,0.9C18.9,19.6,19.1,20,19.1,20.5z M74.4,93.5H25.6c0.7-3.4,3.7-5.9,7.2-5.9h34.4   C70.8,87.6,73.7,90.1,74.4,93.5z M83.2,42.9c1.3,0,2.3,1,2.3,2.3c0,1.3-1,2.3-2.3,2.3s-2.3-1-2.3-2.3C80.9,43.9,82,42.9,83.2,42.9z    M83.2,79.6c-5.5,0-10-4.4-10.2-9.9L83.2,52l10.2,17.7C93.3,75.2,88.8,79.6,83.2,79.6z"></path><path d="M85.3,64.3c-0.7,0-1.4,0.2-2.1,0.5c-0.6-0.3-1.4-0.5-2.1-0.5c-2.5,0-4.6,2.1-4.6,4.6c0,2,3.1,5.1,5.7,7.4   c0.3,0.3,0.6,0.4,1,0.4s0.7-0.1,1-0.4c2.6-2.3,5.7-5.5,5.7-7.4C89.9,66.4,87.9,64.3,85.3,64.3z M83.2,73.2   c-1.9-1.8-3.6-3.7-3.7-4.3c0-0.9,0.7-1.6,1.6-1.6c0.5,0,0.9,0.2,1.1,0.4c0.6,0.5,1.4,0.5,2,0c0.2-0.2,0.6-0.4,1.1-0.4   c0.9,0,1.6,0.7,1.6,1.5C86.8,69.5,85.2,71.3,83.2,73.2z"></path></g></svg>