<svg height='100px' width='100px'  fill="#000000" xmlns="http://www.w3.org/2000/svg" xmlns:xlink="http://www.w3.org/1999/xlink" version="1.1" x="0px" y="0px" viewBox="0 0 100 92.316" enable-background="new 0 0 100 92.316" xml:space="preserve"><circle cx="40.765" cy="7.439" r="7.452"></circle><g><path d="M73.467,16.537h-6.604v7.373h6.603C78.23,23.924,78.23,16.537,73.467,16.537z"></path><path d="M65.03,16.537H49.775v0.007h-0.12h-0.383l-17.384-0.007c-5.611,0-9.128,4.578-9.128,10.286v24.341   c0,4.729,6.25,4.729,6.25,0V27.471H31L30.99,87.873c0,2.451,1.991,4.443,4.444,4.443c2.459,0,4.45-1.992,4.45-4.443V53.847h1.981   l-0.015,34.025c0,2.451,1.989,4.443,4.446,4.443c2.452,0,4.443-1.992,4.443-4.443l0.018-60.402V23.91H65.03V16.537z"></path></g><path d="M85.802,51.317L75.421,31.362c-0.249-0.479-0.716-0.805-1.251-0.875l-7.32-0.947v-5.634h-1.807v5.401l-2.475-0.32  c-0.668-0.086-1.334,0.25-1.659,0.848l-5.586,10.265c-0.264,0.485-0.268,1.068-0.012,1.557l10.611,20.187  c0.205,0.388,0.554,0.679,0.974,0.809c0.158,0.048,0.322,0.073,0.485,0.073c0.267,0,0.532-0.066,0.773-0.193l16.956-8.997  C85.912,53.11,86.22,52.12,85.802,51.317z M68.071,58.843l-9.432-17.94l4.627-8.5l1.776,0.23v2.876  c-0.969,0.389-1.655,1.333-1.655,2.441c0,1.454,1.179,2.633,2.633,2.633c1.455,0,2.634-1.179,2.634-2.633  c0-1.164-0.759-2.139-1.805-2.487v-2.597l6.043,0.782l9.229,17.74L68.071,58.843z"></path></svg>