<svg height='100px' width='100px'  fill="#000000" xmlns="http://www.w3.org/2000/svg" xmlns:xlink="http://www.w3.org/1999/xlink" version="1.1" x="0px" y="0px" viewBox="0 0 100 100" enable-background="new 0 0 100 100" xml:space="preserve"><g><path d="M20.807,87.591c-3.325,0-5.805-1.96-7.798-3.535c-0.997-0.787-1.857-1.468-2.543-1.648   c-3.177-0.837-4.939-1.941-5.385-3.375c-0.581-1.864,1.127-3.854,2.779-5.78c1.57-1.83,3.053-3.559,2.4-4.872   c-0.793-1.598,0.696-2.421,2.582-3.464c1.87-1.033,4.425-2.446,6.185-5.237c-0.009-0.346-0.386-1.877-0.78-2.911   c-0.87-2.285-2.654-2.343-4.379-2.4c-1.153-0.037-2.243-0.072-2.98-0.774c-0.973-0.924-0.658-3.181-0.354-5.364   c0.184-1.319,0.374-2.684,0.177-3.347c-1.409-4.768-1.576-9.191-0.405-10.759c0.806-1.08,2.159-0.752,3.606,1.066   c0.401-0.136,1.475-2.747,2.347-5.816l0.067-0.238l0.268-0.004c0.06,0,0.232,0.026,0.475,0.068c0.514,0.09,1.374,0.241,2.091,0.241   c0.513,0,0.797-0.082,0.917-0.171c-0.054-0.068-0.139-0.163-0.212-0.244c-0.932-1.04-3.113-3.476-0.074-9.023   c0.36-0.659,0.857-0.797,1.211-0.797c1.338,0,2.995,1.989,3.884,3.06c0.174,0.209,0.372,0.446,0.427,0.492   c0.538,0.258,1.309,0.4,2.256,0.4c3.566,0,8.423-1.94,10.417-3.281c0.893-0.6,1.794-0.893,2.756-0.893   c1.438,0,2.85,0.643,4.484,1.387c2.294,1.044,4.896,2.228,8.6,2.228c3.937,0,8.304-1.357,13.349-4.148   c3.711-2.054,7.729-2.317,10.816-2.317c1.036,0,2.045,0.031,3.012,0.062c0.887,0.028,1.735,0.056,2.538,0.056   c3.282,0,5.491-0.458,6.374-2.734l0.074-0.195c0.175-0.468,0.341-0.91,0.888-0.91c0.5,0,1.202,0.385,3.359,1.71   c0.509,0.313,0.778,0.714,0.8,1.19c0.064,1.52-2.521,3.433-5.796,5.855c-3.811,2.819-8.555,6.328-8.951,9.521   c-0.225,1.783-0.033,2.221,0.06,2.325c0.043,0.05,0.22,0.041,0.395,0.009c0.123-0.023,0.246-0.044,0.355-0.044   c0.3,0,0.47,0.143,0.559,0.263c0.328,0.436,0.469,1.355-1.38,7.729c-0.692,2.385-0.622,4.698-0.561,6.739   c0.061,2.066,0.111,3.698-0.672,4.704c-3.094,3.968-6.047,5.685-10.606,8.157c-13.77,7.46-28.335,16.554-42.075,25.229   C24.477,86.987,22.607,87.591,20.807,87.591z M11.462,34.147c-0.241,0-0.448,0.12-0.632,0.368   c-0.891,1.191-1.002,5.072,0.508,10.181c0.236,0.798,0.045,2.17-0.157,3.622c-0.255,1.831-0.571,4.107,0.157,4.8   c0.557,0.53,1.481,0.56,2.55,0.595c1.758,0.059,3.945,0.13,4.97,2.821c0.011,0.029,1.048,2.972,0.758,3.438   c-1.85,2.971-4.513,4.443-6.458,5.518c-2.094,1.158-2.784,1.648-2.312,2.6c0.845,1.702-0.775,3.59-2.49,5.59   c-1.536,1.79-3.124,3.642-2.651,5.158c0.369,1.185,2.027,2.173,4.927,2.938c0.817,0.215,1.729,0.935,2.782,1.768   c1.914,1.512,4.295,3.394,7.392,3.394c1.675,0,3.427-0.569,5.207-1.693c13.749-8.68,28.324-17.779,42.111-25.25   c4.485-2.432,7.389-4.118,10.402-7.983c0.638-0.82,0.593-2.347,0.533-4.282c-0.06-1.985-0.134-4.457,0.586-6.941   c1.602-5.517,1.691-6.936,1.484-7.155c-0.106,0.001-0.187,0.018-0.27,0.033c-0.392,0.074-0.772,0.044-1.005-0.219   c-0.353-0.399-0.419-1.249-0.219-2.84c0.434-3.47,5.098-6.922,9.211-9.966c2.87-2.124,5.582-4.129,5.531-5.302   c-0.004-0.091-0.017-0.37-0.487-0.66c-1.587-0.974-2.653-1.613-3.017-1.613c-0.074,0-0.115,0.061-0.274,0.486l-0.075,0.202   c-1.129,2.907-4.197,3.151-6.986,3.151c-0.809,0-1.666-0.026-2.558-0.055c-0.962-0.03-1.964-0.062-2.992-0.062   c-3.008,0-6.919,0.253-10.499,2.234c-5.145,2.847-9.615,4.231-13.666,4.231c-3.847,0-6.632-1.269-8.871-2.286   c-1.565-0.713-2.917-1.328-4.213-1.328c-0.828,0-1.61,0.256-2.391,0.78c-2.062,1.387-7.087,3.394-10.782,3.394   c-1.048,0-1.916-0.165-2.581-0.489c-0.12-0.059-0.225-0.182-0.606-0.641c-0.703-0.845-2.349-2.823-3.38-2.823   c-0.166,0-0.414,0.048-0.637,0.456c-2.816,5.143-0.851,7.336-0.012,8.272c0.297,0.332,0.512,0.57,0.389,0.864   c-0.181,0.433-0.698,0.643-1.582,0.643c-0.774,0-1.669-0.156-2.205-0.25c-0.052-0.009-0.1-0.018-0.143-0.025   c-0.812,2.812-1.955,6.029-2.932,6.029c-0.128,0-0.316-0.044-0.481-0.251C12.656,34.663,11.968,34.147,11.462,34.147z"></path></g></svg>