<svg height='100px' width='100px'  fill="#000000" xmlns="http://www.w3.org/2000/svg" xmlns:xlink="http://www.w3.org/1999/xlink" xml:space="preserve" version="1.1" style="shape-rendering:geometricPrecision;text-rendering:geometricPrecision;image-rendering:optimizeQuality;" viewBox="0 0 846.66 846.66" x="0px" y="0px" fill-rule="evenodd" clip-rule="evenodd"><defs><style type="text/css">
   
    .fil0 {fill:#000000;fill-rule:nonzero}
   
  </style></defs><g><path class="fil0" d="M702.95 676.09c22.53,13.05 2.73,47.29 -19.84,34.24l-75.37 -43.52 -65.7 38.01 0 87.02c0,10.95 -8.89,19.83 -19.84,19.83l-197.74 0c-10.95,0 -19.84,-8.88 -19.84,-19.83l0 -87.03 -65.69 -38 -75.38 43.52c-9.74,5.63 -21.68,2.39 -27.64,-8.31l-98.28 -170.22c-5.42,-9.44 -2.18,-21.48 7.23,-26.93l-0.02 -0.03 75.42 -43.55 0 -75.92 -75.42 -43.55c-9.7,-5.6 -12.85,-17.58 -6.57,-28.06l98.24 -170.15c5.56,-9.65 18.12,-12.7 27.02,-7.25l0.02 -0.03 75.37 43.52 65.7 -38.01 0 -87.02c0,-10.95 8.89,-19.83 19.84,-19.83l197.74 0c10.95,0 19.84,8.88 19.84,19.83l0 87.02 65.7 38.01 75.37 -43.52c9.74,-5.63 21.68,-2.39 27.64,8.31l98.28 170.22c5.42,9.44 2.18,21.48 -7.23,26.93l0.02 0.03 -75.35 43.51 0 76 75.35 43.51c9.7,5.6 12.85,17.58 6.57,28.06l-52.77 91.4c-13,22.56 -47.21,2.83 -34.25,-19.67l43.54 -75.41 -66.94 -38.65c-6.61,-3.22 -11.16,-10 -11.16,-17.84l0 -98.8 0.04 0c0.01,-6.82 3.55,-13.46 9.87,-17.12l68.19 -39.37 -79.09 -136.98 -67.98 39.25c-5.96,3.53 -13.6,3.83 -20.03,0.11l-84.3 -48.76c-6.59,-3.22 -11.14,-9.99 -11.14,-17.83l0 -78.57 -158.08 0 0 78.57 -0.04 0c-0.01,6.82 -3.55,13.46 -9.88,17.12l-85.32 49.35c-5.96,3.54 -13.61,3.84 -20.04,0.12l-68.17 -39.36 -79.09 136.98 68.19 39.37 -0.02 0.02c5.89,3.42 9.86,9.8 9.86,17.1l0 97.66c0.41,7.22 -3.16,14.39 -9.84,18.26l-68.19 39.37 79.09 136.98 67.98 -39.25c5.96,-3.54 13.61,-3.83 20.03,-0.11l84.3 48.75c6.59,3.22 11.14,9.99 11.14,17.83l0 78.58 158.08 0 0 -78.57 0.04 0c0.01,-6.82 3.55,-13.46 9.88,-17.12l85.32 -49.35c5.96,-3.54 13.61,-3.84 20.04,-0.12l85.3 49.25zm-279.62 -427.57l-150.94 87.15 0 175.32 150.94 87.15 150.94 -87.15 0 -175.32 -150.94 -87.15zm-180.7 58.63l170.59 -98.49c5.96,-3.53 13.61,-3.83 20.03,-0.11l169.53 97.88c6.61,3.22 11.16,10 11.16,17.84l0 198.12 -0.04 0c-0.01,6.82 -3.55,13.46 -9.87,17.12l-170.59 98.49c-5.96,3.53 -13.61,3.83 -20.03,0.11l-169.53 -97.88c-6.61,-3.22 -11.16,-10 -11.16,-17.84l0 -198.12 0.04 0c0.01,-6.82 3.55,-13.46 9.87,-17.12z"></path></g></svg>