<svg height='100px' width='100px'  fill="#000000" xmlns="http://www.w3.org/2000/svg" xmlns:xlink="http://www.w3.org/1999/xlink" version="1.1" x="0px" y="0px" viewBox="0 0 63 63" enable-background="new 0 0 63 63" xml:space="preserve"><g><path d="M41.5,50l4,2.7l4-2.7v-4.5h-8V50z M43.5,47.5h4V49l-2,1.3l-2-1.3V47.5z"></path><path d="M35.5,9.1V4.5h-8v4.5l4,2.7L35.5,9.1z M29.5,6.5h4V8l-2,1.3l-2-1.3V6.5z"></path><path d="M49.9,39.7l-9.4-3.4l0,0c-1.2-0.5-2.5-1.5-2.9-2.4c4.2-3.7,6.9-10.5,6.9-15.4c0-1-0.1-1.9-0.3-2.8l3.5-5.2l-3.5-6l-12.7-4   l-12.7,4l-3.5,6l3.5,5.2c-0.2,0.9-0.3,1.9-0.3,2.8c0,4.9,2.7,11.8,6.9,15.4c-0.4,0.9-1.7,2-2.9,2.4l0,0l-9.4,3.4   C8,41.6,4.5,46.5,4.5,52v10.5h53.9V52C58.5,46.5,55,41.6,49.9,39.7z M20.2,6.2l11.3-3.6l11.3,3.6l2.5,4.2L43,13.8   c-7.6-2.1-15.5-2.1-23.1,0l-2.3-3.4L20.2,6.2z M41.9,15.5c-1.3,2.6-4.8,3-5.4,3h-10c-0.5,0-4-0.4-5.4-3   C27.9,13.7,35.1,13.7,41.9,15.5z M20.5,18.1c2,2,5.2,2.4,6,2.4h10c0.8,0,4.5-0.6,6-2.4c0,6.7-5,16.4-11,16.4S20.1,24,20.5,18.1z    M27,35.2c1.4,0.9,2.9,1.4,4.5,1.4c1.6,0,3.1-0.5,4.5-1.4c0.6,1.1,1.8,2.1,2.9,2.7l-3.4,3.1h-8l-3.4-3.1   C25.3,37.2,26.4,36.3,27,35.2z M56.5,60.5h-8v-5h-2v5h-30v-5h-2v5h-8V52c0-4.6,2.9-8.8,7.3-10.3l8.2-2.9l4.7,4.3h9.6l4.7-4.3   l8.2,2.9c4.4,1.6,7.3,5.7,7.3,10.3V60.5z"></path><rect x="10.5" y="48.5" width="10" height="2"></rect></g></svg>