<svg height='100px' width='100px'  fill="#000000" xmlns="http://www.w3.org/2000/svg" xmlns:xlink="http://www.w3.org/1999/xlink" version="1.1" x="0px" y="0px" viewBox="0 0 64 64" enable-background="new 0 0 64 64" xml:space="preserve"><g><g><path d="M31.974,60.001c-4.887,0-9.718-1.298-13.972-3.753C4.635,48.532,0.036,31.375,7.749,18.002    c4.99-8.637,14.294-14.001,24.28-14.001c4.886,0,9.717,1.298,13.97,3.753C59.367,15.47,63.965,32.627,56.248,46    C51.263,54.636,41.961,60.001,31.974,60.001z M32.029,6.001c-9.274,0-17.915,4.981-22.548,13.001    C2.319,31.419,6.59,47.352,19.002,54.516c3.95,2.28,8.436,3.485,12.972,3.485c9.275,0,17.913-4.982,22.542-13.001    c7.166-12.417,2.897-28.349-9.517-35.513C41.05,7.207,36.564,6.001,32.029,6.001z"></path></g><g><path d="M17,50.999c-0.553,0-1-0.447-1-1c0-3.859,3.141-7,7-7c0.553,0,1,0.447,1,1s-0.447,1-1,1c-2.757,0-5,2.243-5,5    C18,50.552,17.553,50.999,17,50.999z"></path></g><g><path d="M27,45.001C27,45.001,27,45.001,27,45.001l-4.001-0.002c-0.552,0-0.999-0.448-0.999-1c0-0.553,0.448-1,1-1    c0,0,0,0,0.001,0l4,0.002c0.552,0,0.999,0.448,0.999,1C28,44.554,27.552,45.001,27,45.001z"></path></g><g><path d="M17,55.447c-0.553,0-1-0.447-1-1v-4.448c0-0.553,0.447-1,1-1s1,0.447,1,1v4.448C18,55,17.553,55.447,17,55.447z"></path></g><g><path d="M47,50.999c-0.553,0-1-0.447-1-1c0-2.757-2.243-5-5-5c-0.553,0-1-0.447-1-1s0.447-1,1-1c3.859,0,7,3.141,7,7    C48,50.552,47.553,50.999,47,50.999z"></path></g><g><path d="M37,45.001c-0.552,0-1-0.447-1-1c0-0.552,0.447-1,0.999-1l4-0.002c0.001,0,0.001,0,0.001,0c0.552,0,1,0.447,1,1    c0,0.552-0.447,1-0.999,1L37,45.001C37,45.001,37,45.001,37,45.001z"></path></g><g><path d="M47,55.454c-0.553,0-1-0.447-1-1v-4.455c0-0.553,0.447-1,1-1s1,0.447,1,1v4.455C48,55.007,47.553,55.454,47,55.454z"></path></g><g><path d="M27,45.001c-0.553,0-1-0.447-1-1V40.8c0-0.553,0.447-1,1-1s1,0.447,1,1v3.201C28,44.554,27.553,45.001,27,45.001z"></path></g><g><path d="M37,44.999c-0.553,0-1-0.447-1-1V40.8c0-0.553,0.447-1,1-1s1,0.447,1,1v3.199C38,44.552,37.553,44.999,37,44.999z"></path></g><g><path d="M32,42.999c-6.617,0-12-5.383-12-11.999c0-0.552,0.447-1,1-1s1,0.448,1,1c0,5.514,4.486,9.999,10,9.999S42,36.514,42,31    c0-0.552,0.447-1,1-1s1,0.448,1,1C44,37.616,38.617,42.999,32,42.999z"></path></g><g><path d="M43,27c-0.553,0-1-0.448-1-1c0-5.514-4.486-9.999-10-9.999S22,20.486,22,26c0,0.552-0.447,1-1,1s-1-0.448-1-1    c0-6.616,5.383-11.999,12-11.999S44,19.384,44,26C44,26.552,43.553,27,43,27z"></path></g><g><path d="M21,32.001c-0.553,0-1-0.448-1-1V26c0-0.552,0.447-1,1-1s1,0.448,1,1v5.001C22,31.553,21.553,32.001,21,32.001z"></path></g><g><path d="M43,32.002c-0.553,0-1-0.448-1-1V26c0-0.552,0.447-1,1-1s1,0.448,1,1v5.002C44,31.554,43.553,32.002,43,32.002z"></path></g><g><g><g><path d="M6,12L6,12c-3.309-0.001-6-2.693-6-6c0-3.309,2.691-6,6-6s6,2.691,6,6S9.309,12,6,12z M6,2C3.794,2,2,3.794,2,6      c0,2.205,1.795,3.999,4,4c2.206,0,4-1.794,4-4S8.206,2,6,2z"></path></g></g><g><path d="M18.773,9.463c-0.263,0-0.525-0.103-0.722-0.308C16.719,7.765,14.925,7,13,7c-0.597,0-1.188,0.075-1.757,0.222     c-0.534,0.137-1.081-0.183-1.219-0.718c-0.139-0.535,0.183-1.08,0.717-1.219C11.475,5.096,12.234,5,13,5     c2.476,0,4.782,0.984,6.495,2.771c0.383,0.398,0.369,1.031-0.029,1.414C19.271,9.371,19.022,9.463,18.773,9.463z"></path></g><g><path d="M7.779,21.061c-0.231,0-0.464-0.08-0.653-0.243C5.14,19.105,4,16.62,4,14c0-1.174,0.223-2.316,0.663-3.395     c0.209-0.512,0.79-0.758,1.304-0.548c0.511,0.208,0.757,0.792,0.548,1.303C6.173,12.198,6,13.086,6,14     c0,2.038,0.887,3.97,2.433,5.303c0.418,0.361,0.465,0.992,0.104,1.41C8.339,20.943,8.06,21.061,7.779,21.061z"></path></g></g><g><g><g><path d="M58,64c-3.309,0-6-2.691-6-6s2.691-6,6-6c3.309,0.001,6,2.692,6,6C64,61.309,61.309,64,58,64z M58,54      c-2.206,0-4,1.794-4,4s1.794,4,4,4s4-1.794,4-4C62,55.795,60.205,54.001,58,54z"></path></g></g><g><path d="M51,59c-2.476,0-4.782-0.984-6.495-2.771c-0.383-0.399-0.369-1.032,0.029-1.414c0.399-0.382,1.032-0.368,1.414,0.029     C47.281,56.234,49.075,57,51,57c0.597,0,1.188-0.074,1.757-0.222c0.533-0.144,1.081,0.183,1.219,0.717     c0.139,0.535-0.183,1.081-0.717,1.219C52.525,58.904,51.766,59,51,59z"></path></g><g><path d="M58.411,54.018c-0.126,0-0.254-0.023-0.378-0.074c-0.511-0.208-0.757-0.792-0.548-1.304C57.827,51.802,58,50.914,58,50     c0-2.037-0.887-3.971-2.433-5.303c-0.418-0.361-0.465-0.992-0.104-1.411c0.361-0.419,0.992-0.464,1.411-0.104     C58.86,44.896,60,47.38,60,50c0,1.174-0.223,2.316-0.663,3.396C59.179,53.783,58.806,54.018,58.411,54.018z"></path></g></g><g><g><g><path d="M6,64c-3.309,0-6-2.691-6-6s2.691-6,6-6s6,2.691,6,6C11.999,61.309,9.308,64,6,64z M6,54c-2.206,0-4,1.794-4,4      s1.794,4,4,4c2.205,0,3.999-1.795,4-4C10,55.794,8.206,54,6,54z"></path></g></g><g><path d="M6.253,54.008c-0.444,0-0.851-0.299-0.967-0.749C5.096,52.525,5,51.766,5,51c0-2.476,0.984-4.782,2.771-6.495     c0.399-0.382,1.032-0.368,1.414,0.029c0.383,0.399,0.369,1.032-0.029,1.414C7.766,47.281,7,49.075,7,51     c0,0.597,0.074,1.188,0.222,1.757c0.139,0.535-0.183,1.081-0.717,1.219C6.42,53.998,6.336,54.008,6.253,54.008z"></path></g><g><path d="M14,60c-1.174,0-2.316-0.223-3.396-0.663c-0.511-0.208-0.757-0.792-0.548-1.304c0.208-0.512,0.791-0.758,1.304-0.548     C12.198,57.827,13.086,58,14,58c2.037,0,3.971-0.887,5.303-2.433c0.362-0.419,0.991-0.464,1.411-0.104     c0.418,0.361,0.465,0.992,0.104,1.411C19.104,58.86,16.62,60,14,60z"></path></g></g><g><g><g><path d="M58,12c-3.309,0-6-2.691-6-6c0.001-3.309,2.692-6,6-6c3.309,0,6,2.691,6,6S61.309,12,58,12z M58,2      c-2.205,0-3.999,1.794-4,4c0,2.205,1.794,4,4,4s4-1.794,4-4S60.206,2,58,2z"></path></g></g><g><path d="M55.537,19.773c-0.263,0-0.525-0.103-0.722-0.308c-0.383-0.398-0.369-1.031,0.029-1.414C56.234,16.719,57,14.925,57,13     c0-0.597-0.074-1.188-0.222-1.757c-0.139-0.535,0.183-1.08,0.717-1.219c0.538-0.137,1.081,0.183,1.219,0.718     C58.904,11.475,59,12.234,59,13c0,2.475-0.984,4.782-2.771,6.495C56.035,19.681,55.786,19.773,55.537,19.773z"></path></g><g><path d="M43.939,8.779c-0.231,0-0.464-0.08-0.653-0.243c-0.418-0.361-0.465-0.992-0.104-1.41C44.896,5.14,47.38,4,50,4     c1.174,0,2.316,0.223,3.396,0.663c0.511,0.208,0.757,0.792,0.548,1.303c-0.209,0.512-0.791,0.758-1.304,0.548     C51.802,6.173,50.914,6,50,6c-2.037,0-3.971,0.887-5.303,2.432C44.499,8.662,44.22,8.779,43.939,8.779z"></path></g></g><g><path d="M47.016,55.019h-30c-0.553,0-1-0.447-1-1s0.447-1,1-1h30c0.553,0,1,0.447,1,1S47.568,55.019,47.016,55.019z"></path></g><g><path d="M46.919,50.014H17.09c-0.553,0-1-0.447-1-1s0.447-1,1-1h29.829c0.553,0,1,0.447,1,1S47.472,50.014,46.919,50.014z"></path></g><g><path d="M42.956,26.017H21.044c-0.553,0-1-0.448-1-1s0.447-1,1-1h21.912c0.553,0,1,0.448,1,1S43.509,26.017,42.956,26.017z"></path></g><g><path d="M43,31.018H32.969c-0.271,0-0.53-0.11-0.719-0.305l-0.256-0.264l-0.266,0.27c-0.188,0.191-0.444,0.299-0.713,0.299H21    c-0.553,0-1-0.448-1-1s0.447-1,1-1h9.597l0.69-0.702c0.188-0.191,0.445-0.299,0.713-0.299c0.29-0.044,0.53,0.11,0.719,0.305    l0.674,0.696H43c0.553,0,1,0.448,1,1S43.553,31.018,43,31.018z"></path></g><g><path d="M43,29.002c-0.254,0-0.507-0.096-0.702-0.288c-0.394-0.388-0.397-1.021-0.01-1.414l1.986-2.015    c0.388-0.394,1.021-0.398,1.414-0.01c0.394,0.388,0.397,1.021,0.01,1.414l-1.986,2.015C43.517,28.902,43.258,29.002,43,29.002z"></path></g><g><path d="M45.001,31.003c-0.256,0-0.512-0.098-0.707-0.293l-2.001-2.001c-0.391-0.391-0.391-1.023,0-1.414s1.023-0.391,1.414,0    l2.001,2.001c0.391,0.391,0.391,1.023,0,1.414C45.513,30.905,45.257,31.003,45.001,31.003z"></path></g><g><path d="M29.019,28.001h-3.001c-0.553,0-1-0.448-1-1s0.447-1,1-1h3.001c0.553,0,1,0.448,1,1S29.571,28.001,29.019,28.001z"></path></g><g><path d="M38.017,28.001h-3.001c-0.553,0-1-0.448-1-1s0.447-1,1-1h3.001c0.553,0,1,0.448,1,1S38.569,28.001,38.017,28.001z"></path></g><g><path d="M31.967,50.017c-0.258,0-0.515-0.099-0.711-0.296l-4.967-5.016c-0.389-0.393-0.385-1.026,0.007-1.415    c0.394-0.388,1.025-0.384,1.415,0.007l4.967,5.016c0.389,0.393,0.385,1.026-0.007,1.415C32.476,49.92,32.221,50.017,31.967,50.017    z"></path></g><g><path d="M31.967,50.017c-0.257,0-0.513-0.098-0.708-0.294c-0.391-0.392-0.389-1.024,0.002-1.414l5.033-5.016    c0.392-0.391,1.024-0.39,1.414,0.002c0.391,0.392,0.389,1.024-0.002,1.414l-5.033,5.016    C32.478,49.919,32.222,50.017,31.967,50.017z"></path></g></g></svg>