<svg height='100px' width='100px'  fill="#000000" xmlns="http://www.w3.org/2000/svg" xmlns:xlink="http://www.w3.org/1999/xlink" version="1.1" x="0px" y="0px" viewBox="0 0 96 96" enable-background="new 0 0 96 96" xml:space="preserve"><path fill="none" stroke="#000000" stroke-miterlimit="10" d="M77.913,14.99l-0.807-1.422l-1.509,0.793  c-0.044,0.004-0.105,0.007-0.193,0.007c-2.455,0-11.526-2.392-18.15-4.138C51.251,8.644,48.738,8,48,8  c-0.767,0-3.693,0.764-9.23,2.224c-6.657,1.756-15.713,4.144-18.171,4.144c-0.066,0-0.123-0.001-0.177-0.005l-0.209-0.062  l-1.321-0.734l-0.807,1.422c-2.908,5.125-4.476,23.175-4.476,29.425c0,11.172,18.453,29.652,33.935,43.189L48,88l0.458-0.4  c15.479-13.537,33.934-32.017,33.934-43.185C82.395,38.167,80.826,20.121,77.913,14.99z"></path></svg>