<svg height='100px' width='100px'  fill="#000000" xmlns:dc="http://purl.org/dc/elements/1.1/" xmlns:cc="http://creativecommons.org/ns#" xmlns:rdf="http://www.w3.org/1999/02/22-rdf-syntax-ns#" xmlns:svg="http://www.w3.org/2000/svg" xmlns="http://www.w3.org/2000/svg" xmlns:sodipodi="http://sodipodi.sourceforge.net/DTD/sodipodi-0.dtd" xmlns:inkscape="http://www.inkscape.org/namespaces/inkscape" viewBox="0 0 381.17428 476.48824" version="1.1" x="0px" y="0px"><g transform="translate(-212.72838,-349.70355)"><path style="" d="m 270.59362,349.73679 c -1.8631,-0.291 -4.0429,1.448 -4.207,3.559 -1.4912,17.481 2.1037,31.442 10.6797,41.425 14.9546,17.44 41.6961,19.348 59.4675,20.632 l 5.5831,0.415 c 18.3098,1.532 24.8963,36.14 25.8905,49.354 0.1088,2.031 1.8558,3.559 3.8815,3.559 l 0.2551,0 c 2.1548,-0.182 3.724,-2.013 3.5585,-4.126 -0.1822,-2.195 -4.3051,-54.153 -32.9298,-56.555 l -5.5827,-0.416 c -17.4399,-1.243 -41.3669,-2.884 -54.2085,-17.88 -7.1665,-8.368 -10.1843,-20.434 -8.9001,-35.762 0.2187,-2.114 -1.3272,-4.043 -3.4783,-4.207 z m 265.5414,0 c -2.1548,0.183 -3.7656,2.013 -3.5585,4.127 1.2834,15.327 -1.6516,27.393 -8.8192,35.761 -12.8417,14.996 -36.7273,16.719 -54.2085,17.962 l -5.6637,0.416 c -28.6251,2.402 -32.7643,54.279 -32.9297,56.474 -0.1823,2.111 1.4037,4.043 3.5583,4.207 l 0.3282,0 c 2.0308,0 3.7159,-1.651 3.8815,-3.642 0.9516,-13.215 7.5001,-47.822 25.8099,-49.355 l 5.5824,-0.415 c 17.7714,-1.283 44.5549,-3.19 59.4678,-20.631 8.575,-10.025 12.1713,-23.944 10.6797,-41.426 -0.1823,-2.111 -2.2604,-3.769 -4.1257,-3.478 z m -314.3292,80.1 c -2.7745,0 -5.5834,1.24 -7.2817,3.559 -2.9423,3.894 -2.1948,9.6 1.699,12.541 l 72.737,54.936 c -0.9115,-2.774 -0.5542,-5.885 0.6453,-8.495 1.4073,-3.106 4.0554,-5.597 7.1202,-6.715 0.6198,-0.183 1.0792,-0.256 1.5349,-0.416 l -71.1994,-53.724 c -1.5751,-1.243 -3.398,-1.699 -5.2593,-1.699 z m 363.0363,0 c -1.8629,0 -3.7283,0.416 -5.2591,1.699 l -71.1996,53.724 c 0.4559,0.182 0.9153,0.255 1.535,0.415 3.1063,1.076 5.7118,3.61 7.1202,6.716 1.2433,2.61 1.5568,5.678 0.6453,8.495 l 72.7365,-54.936 c 3.8528,-2.983 4.6406,-8.648 1.6991,-12.541 -1.6991,-2.319 -4.4649,-3.559 -7.2816,-3.559 z m -181.4774,3.882 c -10.0665,0 -19.5455,2.749 -27.9137,8.01 2.9422,10.687 3.923,20.173 4.0473,22.492 0.3282,4.309 -2.7709,8.002 -7.1198,8.334 l -0.6453,0 c -4.0181,0 -7.3152,-3.103 -7.6055,-7.12 -0.3281,-3.563 -0.9078,-8.178 -1.8594,-13.107 -14.4161,14.83 -23.3015,37.241 -23.3015,62.138 0,10.356 6.9502,18.316 17.6379,23.867 8.2019,-19.345 26.0112,-32.929 46.765,-32.929 20.7127,0 38.4819,13.625 46.6842,32.929 10.6877,-5.551 17.6379,-13.511 17.6379,-23.867 0,-24.938 -8.9271,-47.308 -23.3015,-62.138 -0.9116,4.971 -1.5277,9.544 -1.8594,13.107 -0.2917,4.018 -3.5877,7.12 -7.6055,7.12 l -0.6453,0 c -4.3496,-0.292 -7.4512,-3.985 -7.1201,-8.334 0.1088,-2.319 1.0646,-11.805 4.0473,-22.492 -8.3266,-5.261 -17.8076,-8.01 -27.8325,-8.01 z m -102.1874,54.937 c -1.0756,0 -1.998,0.255 -3.0735,0.568 -4.5983,1.699 -6.9572,7.012 -5.259,11.651 l 15.6153,40.859 c 2.7745,-6.048 10.5757,-8.968 16.7479,-6.068 l -15.5343,-41.183 c -1.3671,-3.522 -4.767,-5.825 -8.4953,-5.825 z m 204.2935,0 c -3.7284,0 -7.1282,2.344 -8.4955,5.906 l -15.5343,41.101 c 6.1723,-2.942 13.9728,0.02 16.748,6.068 l 15.6153,-40.858 c 1.6989,-4.681 -0.6636,-9.953 -5.2589,-11.651 -1.0755,-0.292 -1.998,-0.569 -3.0736,-0.569 z m -102.0256,20.55 c -23.9851,0 -44.0233,19.987 -47.0888,45.794 l -32.3632,-15.858 c -1.2032,-0.619 -2.5594,-0.889 -3.8028,-0.889 -3.4781,0.04 -6.8006,1.947 -8.3334,5.178 -2.1949,4.308 -0.2917,9.698 4.207,11.893 l 41.4252,20.227 c 1.0756,4.806 2.8183,9.328 5.178,13.512 1.2031,-3.106 2.9094,-6.048 4.774,-8.657 3.7284,-5.427 8.6435,-9.92 14.4018,-13.027 6.3381,-3.686 13.568,-5.744 21.5217,-5.744 7.8705,0 15.1419,2.06 21.5216,5.744 5.758,3.107 10.6731,7.6 14.4011,13.027 1.8631,2.61 3.6131,5.55 4.855,8.657 2.3188,-4.184 3.9393,-8.706 5.0164,-13.512 l 41.5058,-20.227 c 4.474,-2.155 6.3614,-7.543 4.207,-11.893 -1.5313,-3.274 -4.8141,-5.178 -8.2525,-5.178 -1.2033,0 -2.5595,0.291 -3.8027,0.889 l -32.364,15.858 c -3.0663,-25.849 -23.0639,-45.794 -47.0075,-45.794 z m -0.073,56.393 c -20.2985,0 -37.1143,15.114 -39.8072,34.791 l -47.6551,-11.165 c -0.6197,-0.183 -1.1957,-0.183 -1.8594,-0.183 -4.184,0 -7.8661,2.775 -8.8191,6.958 -1.0355,4.806 1.8266,9.599 6.6342,10.842 l 51.3771,11.732 0,25.243 c 11.6405,-6.504 26.0047,-9.628 40.1305,-9.628 14.0847,0 28.4504,3.125 40.0497,9.628 l 0,-25.243 51.3767,-11.732 c 4.8054,-1.243 7.7116,-6.078 6.6345,-10.842 -0.9114,-4.183 -4.635,-6.958 -8.8192,-6.958 -0.6635,0 -1.2395,0 -1.8594,0.183 l -47.6549,11.165 c -2.6105,-19.677 -19.469,-34.791 -39.7259,-34.791 z m -101.1355,27.024 -48.8689,27.347 c -2.8985,1.739 -4.6121,4.66 -4.6121,7.767 0,1.531 0.4668,3.081 1.2142,4.45 2.3188,4.308 7.8675,5.88 12.2171,3.558 l 46.6031,-26.133 c -5.5508,-2.155 -8.8516,-8.31 -7.4431,-14.483 0.1822,-0.911 0.4338,-1.721 0.8897,-2.505 z m 202.1091,0 c 0.4959,0.787 0.7657,1.597 0.8896,2.505 1.4073,6.172 -1.8084,12.409 -7.3626,14.563 l 46.5222,26.134 c 4.3912,2.319 10.0198,0.751 12.2981,-3.559 0.7876,-1.407 1.2141,-2.916 1.2141,-4.45 0,-3.107 -1.6698,-6.069 -4.6117,-7.767 l -48.9497,-27.428 z m -257.2081,42.396 -17.638,105.262 c -0.1823,0.619 -0.1823,1.075 -0.1823,1.699 0,4.183 3.0954,8.036 7.4435,8.657 4.9297,0.911 9.5692,-2.436 10.3564,-7.201 l 17.7193,-104.615 -0.8094,0.416 c -1.823,1.035 -3.9519,1.539 -6.1486,1.539 -1.2433,0 -2.4829,-0.219 -3.5584,-0.485 -2.9423,-0.788 -5.6684,-2.775 -7.2012,-5.26 z m 312.3063,0 c -1.5313,2.486 -4.1782,4.472 -7.1194,5.259 -1.0755,0.292 -2.3152,0.416 -3.5584,0.416 -2.1548,0 -4.2852,-0.42 -6.1493,-1.535 l -0.8094,-0.485 17.6379,104.614 c 0.7876,4.806 5.4267,8.235 10.3564,7.282 4.3084,-0.62 7.5245,-4.473 7.5245,-8.657 0,-0.624 0,-1.076 -0.1823,-1.699 l -17.7193,-105.181 z m -261.3339,3.234 c -4.0181,0 -7.7457,2.61 -8.6569,6.958 -1.0354,4.805 1.8266,9.603 6.6341,10.68 l 49.6779,11.488 c -2.1949,4.64 -3.234,9.895 -3.234,15.777 0,59.86 27.2476,108.337 60.8431,108.337 33.596,0 60.7622,-48.436 60.7622,-108.337 0,-5.882 -1.0391,-11.137 -3.234,-15.777 l 49.6779,-11.488 c 4.8053,-1.076 7.7527,-5.875 6.6341,-10.68 -0.9114,-4.35 -4.6387,-6.958 -8.6569,-6.958 -0.6635,0 -1.4,0 -2.0198,0.182 l -58.0114,13.35 c -11.5577,-8.989 -28.3279,-13.512 -45.1467,-13.512 -16.8599,0 -33.629,4.523 -45.2279,13.512 l -58.0112,-13.35 c -0.6198,-0.182 -1.36,-0.182 -2.0199,-0.182 z m 217.8867,19.013 c -1.3672,1.075 -2.9532,1.808 -4.6927,2.268 l -14.3213,3.317 -22.8969,152.917 c -0.8276,4.805 2.5522,9.408 7.5246,10.195 0.4557,0 0.9187,0.182 1.3745,0.182 4.2256,0 8.0713,-3.252 8.8997,-7.767 l 24.1113,-161.088 z m -225.2493,0.07 24.1106,161.088 c 0.7876,4.474 4.5939,7.768 8.8192,7.768 0.4557,0 0.9188,-0.183 1.3745,-0.183 4.9297,-0.787 8.3929,-5.389 7.6058,-10.194 l -22.8972,-152.917 -14.4019,-3.318 c -1.6989,-0.456 -3.2448,-1.188 -4.6117,-2.268 z" fill="#000000"></path></g></svg>