<svg height='100px' width='100px'  fill="#000000" xmlns="http://www.w3.org/2000/svg" xmlns:xlink="http://www.w3.org/1999/xlink" version="1.1" x="0px" y="0px" viewBox="0 0 64 64" style="enable-background:new 0 0 64 64;" xml:space="preserve"><style type="text/css">
	.st0{display:none;}
	.st1{display:inline;}
	.st2{fill:none;stroke:#000000;stroke-width:0.1;stroke-miterlimit:10;}
	.st3{fill:none;}
</style><g class="st0"><g class="st1"><rect x="2" y="2" class="st2" width="60" height="60"></rect><line class="st2" x1="32" y1="2" x2="32" y2="62"></line><line class="st2" x1="62" y1="32" x2="2" y2="32"></line><line class="st2" x1="2" y1="2" x2="62" y2="62"></line><rect x="10" y="10" class="st2" width="44" height="44"></rect><line class="st2" x1="62" y1="2" x2="2" y2="62"></line><line class="st2" x1="2" y1="32" x2="32" y2="2"></line><line class="st2" x1="32" y1="2" x2="62" y2="32"></line><line class="st2" x1="62" y1="32" x2="32" y2="62"></line><line class="st2" x1="32" y1="62" x2="2" y2="32"></line><circle class="st2" cx="32" cy="32" r="21"></circle></g></g><path d="M31,36c-3.9,0-7-3.1-7-7s3.1-7,7-7s7,3.1,7,7S34.9,36,31,36z M31,24c-2.8,0-5,2.2-5,5s2.2,5,5,5s5-2.2,5-5S33.8,24,31,24z"></path><rect x="41" y="46" transform="matrix(-0.7071 0.7071 -0.7071 -0.7071 116.8811 45.5863)" width="16" height="2"></rect><circle cx="45.5" cy="43.5" r="2"></circle><circle cx="52.5" cy="50.5" r="2"></circle><path d="M49,60c-7.2,0-13-5.8-13-13s5.8-13,13-13s13,5.8,13,13S56.2,60,49,60z M49,36c-6.1,0-11,4.9-11,11s4.9,11,11,11  s11-4.9,11-11S55.1,36,49,36z"></path><path class="st3" d="M52.7,7.3c-0.1-0.5-0.5-0.8-1-0.8c-0.1,0-0.1,0-0.2,0l-28.3,5.6l29.9-2.9L52.7,7.3z"></path><path class="st3" d="M54.8,14l-0.2-1.9c-0.1-0.5-0.5-0.9-1-0.9h-0.1L24.8,14H54.8z"></path><path d="M36.1,45.5C36.1,45.5,36.1,45.4,36.1,45.5C36.1,45.4,36.1,45.5,36.1,45.5z"></path><path d="M61.7,44.3L61.7,44.3L61.7,44.3z"></path><path d="M44.5,34.8L44.5,34.8L44.5,34.8z"></path><path d="M46.9,34.2L46.9,34.2L46.9,34.2z"></path><path d="M45.7,34.4L45.7,34.4L45.7,34.4z"></path><path d="M61.9,45.5c0,0.1,0,0.1,0,0.2C61.9,45.6,61.9,45.5,61.9,45.5z"></path><path class="st3" d="M49,36c-6.1,0-11,4.9-11,11s4.9,11,11,11s11-4.9,11-11S55.1,36,49,36z"></path><path class="st3" d="M61.9,45.6c0,0.4,0.1,0.9,0.1,1.4C62,46.5,62,46.1,61.9,45.6z"></path><path class="st3" d="M51.5,34c1.6,1,3.1,1.2,4.5,2.1l0,0C54.7,35.2,53.1,35,51.5,34L51.5,34z"></path><path class="st3" d="M61.7,44.3c-0.6-2.6-1.9-4.9-3.7-6.6l0,0C59.8,39.4,61.1,41.7,61.7,44.3z"></path><path class="st3" d="M61.7,44.3c0.1,0.4,0.1,0.8,0.2,1.1C61.9,45.1,61.8,44.7,61.7,44.3z"></path><path class="st3" d="M49,60c7.2,0,13-5.8,13-13C62,54.2,56.2,60,49,60z"></path><path class="st3" d="M48.1,34L48.1,34c-0.4,0-0.8,0.1-1.2,0.1C47.3,34.1,47.7,34.1,48.1,34z"></path><path class="st3" d="M37,42c0.3-0.7,0.7-1.4,1.1-2l0,0C37.7,40.6,37.3,41.3,37,42L37,42z"></path><path class="st3" d="M45.7,34.4c-0.4,0.1-0.8,0.2-1.1,0.4C44.9,34.7,45.3,34.5,45.7,34.4z"></path><path class="st3" d="M39.6,38L39.6,38c1.4-1.4,3-2.5,4.9-3.2C42.7,35.5,41,36.6,39.6,38z"></path><path class="st3" d="M36.4,44c-0.1,0.5-0.2,0.9-0.3,1.4C36.2,44.9,36.3,44.5,36.4,44L36.4,44z"></path><path class="st3" d="M36,47c0-0.5,0-1,0.1-1.5C36,46,36,46.5,36,47z"></path><path class="st3" d="M36,47c0,7.2,5.8,13,13,13C41.8,60,36,54.2,36,47z"></path><path class="st3" d="M46.9,34.2c-0.4,0.1-0.8,0.2-1.2,0.3C46.1,34.3,46.5,34.3,46.9,34.2z"></path><path d="M35.7,40c0.4-0.7,0.8-1.4,1.3-2H15.9c-0.4-3.1-2.9-5.5-5.9-5.9V26c3.1-0.4,5.5-2.9,5.9-5.9H46c0.4,3.1,2.9,5.5,5.9,5.9v6.1  c-0.2,0-0.4,0.1-0.6,0.1c0.9,0.1,1.8,0.4,2.6,0.7V24h-1c-2.8,0-5-2.2-5-5v-1H14v1c0,2.8-2.2,5-5,5H8v10h1c2.8,0,5,2.2,5,5v1H35.7z"></path><path d="M34.9,42H7c-0.6,0-1-0.4-1-1V17c0-0.6,0.4-1,1-1h48c0.6,0,1,0.4,1,1v16.7c0.7,0.4,1.4,0.8,2,1.3V17c0-1-0.5-1.8-1.2-2.3  l-0.3-2.8c-0.1-0.9-0.6-1.7-1.4-2.2L54.6,7c-0.3-1.6-1.9-2.7-3.5-2.4L4,13.9c-1.6,0.3-2.7,1.9-2.4,3.5L4,29.1V41c0,1.7,1.3,3,3,3  h27.3C34.4,43.3,34.6,42.6,34.9,42z M53.6,11.2c0.5,0,0.9,0.4,1,0.9l0.2,1.9h-30L53.6,11.2C53.5,11.2,53.6,11.2,53.6,11.2z   M51.5,6.5c0.1,0,0.1,0,0.2,0c0.5,0,0.9,0.3,1,0.8l0.4,1.9l-29.9,2.9L51.5,6.5z"></path></svg>