<svg height='100px' width='100px'  fill="#000000" xmlns="http://www.w3.org/2000/svg" xmlns:xlink="http://www.w3.org/1999/xlink" version="1.1" x="0px" y="0px" viewBox="0 0 512 512" style="enable-background:new 0 0 512 512;" xml:space="preserve"><g><g><g><g><path d="M212.904,202.5c-0.509,0-1.022-0.097-1.512-0.297c-1.504-0.615-2.487-2.078-2.487-3.703v-84.905      c0-1.618,0.975-3.076,2.469-3.695c1.496-0.619,3.215-0.277,4.359,0.867l42.035,42.036c1.552,1.551,1.563,4.063,0.028,5.629      L215.761,201.3C214.994,202.083,213.958,202.5,212.904,202.5z M216.905,123.252v65.456l32.406-33.049L216.905,123.252z"></path></g><g><path d="M352.963,210.275c-37.568,0-73.478-18.504-101.112-52.104c-1.214-1.477-1.214-3.606,0-5.083      C279.49,119.499,315.399,101,352.963,101c21.401,0,42.065,5.854,61.418,17.4c1.019,0.608,1.715,1.637,1.901,2.809      c0.186,1.172-0.159,2.366-0.94,3.259c-7.552,8.634-11.711,19.702-11.711,31.163c0,11.464,4.161,22.534,11.718,31.17      c0.781,0.893,1.126,2.087,0.94,3.259c-0.186,1.172-0.882,2.202-1.901,2.81C395.035,204.419,374.369,210.275,352.963,210.275z       M260.162,155.631c25.778,30.108,58.619,46.644,92.801,46.644c18.482,0,36.404-4.705,53.335-13.991      c-6.908-9.448-10.667-20.872-10.667-32.653c0-11.777,3.757-23.199,10.66-32.645c-16.93-9.283-34.85-13.986-53.328-13.986      C318.785,109,285.945,125.531,260.162,155.631z"></path></g><g><path d="M412.34,193.435c-1.123,0-2.229-0.472-3.013-1.366c-8.832-10.094-13.696-23.035-13.696-36.438      c0-13.399,4.861-26.336,13.689-36.429c1.271-1.454,3.4-1.792,5.06-0.802c14.552,8.681,27.912,20.352,39.709,34.689      c1.215,1.477,1.215,3.606,0,5.083c-11.795,14.341-25.152,26.015-39.701,34.697C413.75,193.25,413.042,193.435,412.34,193.435z       M413.219,127.076c-6.205,8.201-9.588,18.217-9.588,28.555c0,10.341,3.386,20.36,9.594,28.562      c11.768-7.458,22.696-17.046,32.554-28.562C435.919,144.119,424.989,134.534,413.219,127.076z"></path></g><g><path d="M90.999,450.295c-0.509,0-1.022-0.097-1.512-0.297C87.983,449.384,87,447.92,87,446.295v-51.37      c0-1.618,0.975-3.076,2.469-3.695c1.495-0.619,3.215-0.277,4.359,0.867l25.433,25.433c1.551,1.551,1.563,4.063,0.027,5.629      l-25.433,25.938C93.089,449.878,92.053,450.295,90.999,450.295z M95,404.581v31.921l15.804-16.117L95,404.581z"></path></g><g><path d="M175.741,455c-23.211,0-45.371-11.4-62.397-32.102c-1.214-1.477-1.214-3.606,0-5.083      c17.029-20.694,39.188-32.091,62.396-32.091c13.238,0,26.013,3.617,37.97,10.75c1.019,0.608,1.716,1.638,1.901,2.81      s-0.159,2.366-0.94,3.26c-4.317,4.936-6.695,11.262-6.695,17.813c0,6.554,2.379,12.883,6.699,17.819      c0.781,0.893,1.126,2.087,0.94,3.259s-0.882,2.201-1.901,2.81C201.757,451.382,188.981,455,175.741,455z M121.685,420.358      C136.838,437.567,155.921,447,175.741,447c10.352,0,20.411-2.502,29.961-7.445c-3.718-5.679-5.726-12.342-5.726-19.197      c0-6.853,2.007-13.514,5.722-19.19c-9.55-4.941-19.607-7.442-29.958-7.442C155.923,393.725,136.84,403.154,121.685,420.358z"></path></g><g><path d="M211.667,444.811c-1.123,0-2.229-0.472-3.012-1.366c-5.596-6.396-8.678-14.595-8.678-23.087      c0-8.489,3.081-16.687,8.674-23.081c1.272-1.453,3.401-1.789,5.06-0.802c8.958,5.345,17.18,12.524,24.435,21.341      c1.215,1.477,1.215,3.606,0,5.083c-7.252,8.818-15.473,16.001-24.431,21.347C213.077,444.626,212.369,444.811,211.667,444.811z       M212.605,405.227c-3.003,4.45-4.629,9.714-4.629,15.131c0,5.42,1.626,10.685,4.632,15.137      c6.162-4.074,11.925-9.147,17.196-15.136C224.533,414.371,218.768,409.3,212.605,405.227z"></path></g><g><path d="M36.942,101.571c-0.509,0-1.022-0.097-1.512-0.297c-1.504-0.615-2.487-2.078-2.487-3.703V46.201      c0-1.618,0.975-3.076,2.469-3.695c1.495-0.62,3.215-0.277,4.359,0.867l25.433,25.433c1.551,1.551,1.563,4.063,0.027,5.629      l-25.433,25.938C39.032,101.154,37.997,101.571,36.942,101.571z M40.943,55.857v31.921l15.804-16.117L40.943,55.857z"></path></g><g><path d="M121.684,106.276c-23.211,0-45.371-11.4-62.397-32.102c-1.214-1.477-1.214-3.606,0-5.083      C76.316,48.397,98.476,37,121.684,37c13.237,0,26.012,3.617,37.969,10.75c1.019,0.608,1.716,1.637,1.901,2.809      c0.186,1.172-0.159,2.366-0.94,3.259c-4.317,4.937-6.695,11.263-6.695,17.814c0,6.554,2.379,12.882,6.699,17.818      c0.781,0.893,1.126,2.087,0.94,3.259c-0.186,1.172-0.882,2.202-1.901,2.81C147.7,102.657,134.924,106.276,121.684,106.276z       M67.628,71.634c15.152,17.209,34.235,26.642,54.056,26.642c10.352,0,20.411-2.502,29.961-7.446      c-3.718-5.678-5.726-12.342-5.726-19.197c0-6.852,2.007-13.514,5.722-19.191C142.091,47.501,132.034,45,121.684,45      C101.866,45,82.783,54.43,67.628,71.634z"></path></g><g><path d="M157.61,96.086c-1.123,0-2.229-0.472-3.012-1.366c-5.596-6.396-8.678-14.595-8.678-23.087      c0-8.489,3.081-16.687,8.674-23.081c1.272-1.454,3.402-1.791,5.06-0.802c8.96,5.346,17.182,12.526,24.436,21.341      c1.215,1.476,1.215,3.606,0,5.083c-7.253,8.818-15.473,16-24.432,21.347C159.02,95.901,158.312,96.086,157.61,96.086z       M158.549,56.502c-3.004,4.451-4.629,9.714-4.629,15.131c0,5.419,1.626,10.684,4.632,15.136      c6.162-4.074,11.926-9.147,17.197-15.135C170.477,65.648,164.711,60.576,158.549,56.502z"></path></g><g><path d="M374.496,109c-0.763,0-1.533-0.218-2.215-0.672L327.5,78.474V105c0,2.209-1.791,4-4,4s-4-1.791-4-4V71      c0-1.475,0.812-2.831,2.112-3.527c1.301-0.695,2.88-0.619,4.106,0.199l51,34c1.838,1.225,2.335,3.709,1.109,5.547      C377.058,108.375,375.789,109,374.496,109z"></path></g><g><path d="M323.5,245c-0.647,0-1.296-0.157-1.888-0.473c-1.301-0.696-2.112-2.052-2.112-3.527v-34c0-2.209,1.791-4,4-4      s4,1.791,4,4v26.526l44.781-29.854c1.838-1.227,4.322-0.729,5.547,1.109c1.226,1.838,0.729,4.322-1.109,5.547l-51,34      C325.05,244.774,324.275,245,323.5,245z"></path></g><g><path d="M371,475h-80c-2.209,0-4-1.791-4-4c0-24.262,19.738-44,44-44s44,19.738,44,44C375,473.209,373.209,475,371,475z       M295.221,467h71.559c-1.996-17.975-17.281-32-35.779-32S297.217,449.025,295.221,467z"></path></g><g><path d="M281,295h-60c-2.209,0-4-1.791-4-4c0-18.748,15.252-34,34-34c18.748,0,34,15.252,34,34C285,293.209,283.209,295,281,295      z M225.307,287h51.385c-1.929-12.444-12.716-22-25.692-22S227.237,274.556,225.307,287z"></path></g><g><path d="M459.475,405.001c-1.467,0-2.88-0.811-3.581-2.212c-0.987-1.977-0.187-4.379,1.789-5.367      c3.076-1.538,4.913-4.509,4.913-7.948c0-3.44-1.836-6.412-4.913-7.951l-4.402-2.2c-5.273-2.637-8.737-7.717-9.268-13.588      c-0.529-5.872,1.971-11.49,6.687-15.027l12.744-9.559c2.482-1.861,3.799-4.817,3.521-7.907c-0.279-3.09-2.103-5.764-4.878-7.151      l-4.402-2.201c-5.759-2.88-9.336-8.668-9.336-15.105s3.577-12.226,9.335-15.105c3.077-1.538,4.913-4.51,4.913-7.948      c0-3.439-1.836-6.411-4.913-7.949l-7.061-3.53c-4.914-2.458-8.237-6.979-9.117-12.401c-0.88-5.423,0.844-10.761,4.729-14.646      c1.563-1.562,4.096-1.562,5.656,0c1.563,1.562,1.563,4.095,0,5.657c-2.044,2.044-2.951,4.854-2.488,7.708      c0.463,2.854,2.212,5.233,4.799,6.527l7.061,3.529c5.758,2.879,9.335,8.667,9.335,15.105c0,6.438-3.577,12.226-9.335,15.104      c-3.076,1.538-4.913,4.51-4.913,7.949s1.837,6.411,4.913,7.95l4.402,2.2c5.274,2.638,8.739,7.718,9.269,13.59      c0.528,5.871-1.972,11.488-6.688,15.025l-12.743,9.559c-2.482,1.861-3.798,4.817-3.52,7.908c0.279,3.09,2.103,5.764,4.878,7.15      l4.402,2.201c5.759,2.88,9.336,8.668,9.335,15.106c0,6.438-3.577,12.226-9.335,15.104      C460.687,404.865,460.076,405.001,459.475,405.001z"></path></g><g><path d="M419.475,405.001c-1.467,0-2.88-0.811-3.581-2.212c-0.987-1.977-0.187-4.379,1.789-5.367      c3.076-1.538,4.913-4.509,4.913-7.948c0-3.44-1.836-6.412-4.913-7.951l-4.402-2.2c-5.273-2.637-8.737-7.717-9.268-13.588      c-0.529-5.872,1.971-11.49,6.687-15.027l12.744-9.559c2.482-1.861,3.799-4.817,3.521-7.907c-0.279-3.09-2.103-5.764-4.878-7.151      l-4.402-2.201c-5.759-2.88-9.336-8.668-9.336-15.105s3.577-12.226,9.335-15.105c3.077-1.538,4.913-4.51,4.913-7.948      c0-3.439-1.836-6.411-4.913-7.949l-7.061-3.53c-4.914-2.458-8.237-6.979-9.117-12.401c-0.88-5.423,0.844-10.761,4.729-14.646      c1.563-1.562,4.096-1.562,5.656,0c1.563,1.562,1.563,4.095,0,5.657c-2.044,2.044-2.951,4.854-2.488,7.708      c0.463,2.854,2.212,5.233,4.799,6.527l7.061,3.529c5.758,2.879,9.335,8.667,9.335,15.105c0,6.438-3.577,12.226-9.335,15.104      c-3.076,1.538-4.913,4.51-4.913,7.949s1.837,6.411,4.913,7.95l4.402,2.2c5.274,2.638,8.739,7.718,9.269,13.59      c0.528,5.871-1.972,11.488-6.688,15.025l-12.743,9.559c-2.482,1.861-3.798,4.817-3.52,7.908c0.279,3.09,2.103,5.764,4.878,7.15      l4.402,2.201c5.759,2.88,9.336,8.668,9.335,15.106c0,6.438-3.577,12.226-9.335,15.104      C420.687,404.865,420.076,405.001,419.475,405.001z"></path></g><g><path d="M379.475,405.001c-1.467,0-2.88-0.811-3.581-2.212c-0.987-1.977-0.187-4.379,1.789-5.367      c3.076-1.538,4.913-4.509,4.913-7.948c0-3.44-1.836-6.412-4.913-7.951l-4.402-2.2c-5.273-2.637-8.737-7.717-9.268-13.588      c-0.529-5.872,1.971-11.49,6.687-15.027l12.744-9.559c2.482-1.861,3.799-4.817,3.521-7.907c-0.279-3.09-2.103-5.764-4.878-7.151      l-4.402-2.201c-5.759-2.88-9.336-8.668-9.336-15.105s3.577-12.226,9.335-15.105c3.077-1.538,4.913-4.51,4.913-7.948      c0-3.439-1.836-6.411-4.913-7.949l-7.061-3.53c-4.914-2.458-8.237-6.979-9.117-12.401c-0.88-5.423,0.844-10.761,4.729-14.646      c1.563-1.562,4.096-1.562,5.656,0c1.563,1.562,1.563,4.095,0,5.657c-2.044,2.044-2.951,4.854-2.488,7.708      c0.463,2.854,2.212,5.233,4.799,6.527l7.061,3.529c5.758,2.879,9.335,8.667,9.335,15.105c0,6.438-3.577,12.226-9.335,15.104      c-3.076,1.538-4.913,4.51-4.913,7.949s1.837,6.411,4.913,7.95l4.402,2.2c5.274,2.638,8.739,7.718,9.269,13.59      c0.528,5.871-1.972,11.488-6.688,15.025l-12.743,9.559c-2.482,1.861-3.798,4.817-3.52,7.908c0.279,3.09,2.103,5.764,4.878,7.15      l4.402,2.201c5.759,2.88,9.336,8.668,9.335,15.106c0,6.438-3.577,12.226-9.335,15.104      C380.687,404.865,380.076,405.001,379.475,405.001z"></path></g><g><path d="M481,405H331c-2.209,0-4-1.791-4-4s1.791-4,4-4h150c2.209,0,4,1.791,4,4S483.209,405,481,405z"></path></g><g><path d="M159.475,305.001c-1.467,0-2.88-0.811-3.581-2.212c-0.988-1.977-0.187-4.379,1.789-5.367      c3.076-1.537,4.912-4.509,4.913-7.948c0-3.44-1.836-6.412-4.913-7.951l-4.403-2.2c-5.273-2.637-8.738-7.717-9.267-13.588      c-0.529-5.872,1.97-11.49,6.687-15.027l12.744-9.558c2.482-1.861,3.797-4.818,3.519-7.908c-0.278-3.09-2.102-5.764-4.877-7.151      l-4.403-2.201c-5.758-2.879-9.335-8.667-9.335-15.104c0-6.438,3.577-12.226,9.335-15.105c3.077-1.538,4.914-4.51,4.914-7.95      s-1.837-6.411-4.913-7.949l-7.062-3.531c-4.914-2.457-8.237-6.977-9.117-12.4c-0.88-5.423,0.843-10.761,4.728-14.646      c1.563-1.562,4.095-1.562,5.657,0c1.562,1.563,1.562,4.095,0,5.657c-2.045,2.044-2.952,4.854-2.489,7.708      c0.463,2.854,2.212,5.233,4.798,6.526l7.062,3.531c5.758,2.879,9.335,8.667,9.335,15.104c0,6.438-3.577,12.226-9.335,15.105      c-3.077,1.538-4.914,4.51-4.914,7.95s1.837,6.411,4.913,7.949l4.403,2.201c5.273,2.637,8.738,7.716,9.267,13.588      c0.53,5.872-1.97,11.49-6.687,15.027l-12.744,9.559c-2.482,1.861-3.798,4.817-3.519,7.908c0.278,3.09,2.102,5.764,4.876,7.15      l4.403,2.201c5.759,2.88,9.335,8.668,9.335,15.106c0,6.438-3.577,12.226-9.335,15.104      C160.687,304.865,160.076,305.001,159.475,305.001z"></path></g><g><path d="M119.475,305.001c-1.467,0-2.88-0.811-3.581-2.212c-0.988-1.977-0.187-4.379,1.789-5.367      c3.076-1.537,4.912-4.509,4.913-7.948c0-3.44-1.836-6.412-4.913-7.951l-4.403-2.2c-5.273-2.637-8.738-7.717-9.267-13.588      c-0.529-5.872,1.97-11.49,6.687-15.027l12.744-9.558c2.482-1.861,3.797-4.818,3.519-7.908c-0.278-3.09-2.102-5.764-4.877-7.151      l-4.403-2.201c-5.758-2.879-9.335-8.667-9.335-15.104c0-6.438,3.577-12.226,9.335-15.105c3.077-1.538,4.914-4.51,4.914-7.95      s-1.837-6.411-4.913-7.949l-7.062-3.531c-4.914-2.457-8.237-6.977-9.117-12.4c-0.88-5.423,0.843-10.761,4.728-14.646      c1.563-1.562,4.095-1.562,5.657,0c1.562,1.563,1.562,4.095,0,5.657c-2.045,2.044-2.952,4.854-2.489,7.708      c0.463,2.854,2.212,5.233,4.798,6.526l7.062,3.531c5.758,2.879,9.335,8.667,9.335,15.104c0,6.438-3.577,12.226-9.335,15.105      c-3.077,1.538-4.914,4.51-4.914,7.95s1.837,6.411,4.913,7.949l4.403,2.201c5.273,2.637,8.738,7.716,9.267,13.588      c0.53,5.872-1.97,11.49-6.687,15.027l-12.744,9.559c-2.482,1.861-3.798,4.817-3.519,7.908c0.278,3.09,2.102,5.764,4.876,7.15      l4.403,2.201c5.759,2.88,9.335,8.668,9.335,15.106c0,6.438-3.577,12.226-9.335,15.104      C120.687,304.865,120.076,305.001,119.475,305.001z"></path></g><g><path d="M79.475,305.001c-1.467,0-2.88-0.811-3.581-2.212c-0.988-1.977-0.187-4.379,1.789-5.367      c3.076-1.537,4.912-4.509,4.913-7.948c0-3.44-1.836-6.412-4.913-7.951l-4.403-2.2c-5.273-2.637-8.738-7.717-9.267-13.588      c-0.529-5.872,1.97-11.49,6.687-15.027l12.744-9.558c2.482-1.861,3.797-4.818,3.519-7.908c-0.278-3.09-2.102-5.764-4.877-7.151      l-4.403-2.201c-5.758-2.879-9.335-8.667-9.335-15.104c0-6.438,3.577-12.226,9.335-15.105c3.077-1.538,4.914-4.51,4.914-7.95      s-1.837-6.411-4.913-7.949l-7.062-3.531c-4.914-2.457-8.237-6.977-9.117-12.4c-0.88-5.423,0.843-10.761,4.728-14.646      c1.563-1.562,4.095-1.562,5.657,0c1.562,1.563,1.562,4.095,0,5.657c-2.045,2.044-2.952,4.854-2.489,7.708      c0.463,2.854,2.212,5.233,4.798,6.526l7.062,3.531c5.758,2.879,9.335,8.667,9.335,15.104c0,6.438-3.577,12.226-9.335,15.105      c-3.077,1.538-4.914,4.51-4.914,7.95s1.837,6.411,4.913,7.949l4.403,2.201c5.273,2.637,8.738,7.716,9.267,13.588      c0.53,5.872-1.97,11.49-6.687,15.027L75.5,257.107c-2.482,1.861-3.798,4.817-3.519,7.908c0.278,3.09,2.102,5.764,4.876,7.15      l4.403,2.201c5.759,2.88,9.335,8.668,9.335,15.106c0,6.438-3.577,12.226-9.335,15.104      C80.687,304.865,80.076,305.001,79.475,305.001z"></path></g><g><path d="M181,305H31c-2.209,0-4-1.791-4-4s1.791-4,4-4h150c2.209,0,4,1.791,4,4S183.209,305,181,305z"></path></g><g><path d="M261,355c-7.72,0-14-6.28-14-14s6.28-14,14-14s14,6.28,14,14S268.72,355,261,355z M261,335c-3.309,0-6,2.691-6,6      s2.691,6,6,6s6-2.691,6-6S264.309,335,261,335z"></path></g><g><path d="M446,75c-4.963,0-9-4.038-9-9s4.037-9,9-9s9,4.038,9,9S450.963,75,446,75z M446,65c-0.552,0-1,0.449-1,1s0.448,1,1,1      s1-0.449,1-1S446.552,65,446,65z"></path></g><g><path d="M476,115c-4.963,0-9-4.038-9-9s4.037-9,9-9s9,4.038,9,9S480.963,115,476,115z M476,105c-0.552,0-1,0.449-1,1      s0.448,1,1,1s1-0.449,1-1S476.552,105,476,105z"></path></g><g><path d="M456,215c-4.963,0-9-4.038-9-9s4.037-9,9-9s9,4.038,9,9S460.963,215,456,215z M456,205c-0.552,0-1,0.449-1,1      s0.448,1,1,1s1-0.449,1-1S456.552,205,456,205z"></path></g><g><path d="M276,75c-4.963,0-9-4.038-9-9s4.037-9,9-9s9,4.038,9,9S280.963,75,276,75z M276,65c-0.552,0-1,0.449-1,1s0.448,1,1,1      s1-0.449,1-1S276.552,65,276,65z"></path></g></g></g></g></svg>