<svg height='100px' width='100px'  fill="#000000" xmlns="http://www.w3.org/2000/svg" viewBox="0 0 93.5 93.5" x="0px" y="0px"><title>Artboard 44</title><g data-name="Layer 5"><path d="M54.67,64.09H4.86a1.25,1.25,0,0,1-1.25-1.25V18.92a1.25,1.25,0,0,1,1.25-1.25H84.8a1.25,1.25,0,0,1,1.25,1.25V50.08a1.25,1.25,0,0,1-2.5,0V20.17H6.11V61.59H54.67a1.25,1.25,0,0,1,0,2.5Z"></path><path d="M79.42,42.13H64.92a1.25,1.25,0,0,1,0-2.5h14.5a1.25,1.25,0,0,1,0,2.5Z"></path><path d="M75.22,35.33H64.92a1.25,1.25,0,0,1,0-2.5h10.3a1.25,1.25,0,0,1,0,2.5Z"></path><path d="M75.22,48.92H64.92a1.25,1.25,0,0,1,0-2.5h10.3a1.25,1.25,0,0,1,0,2.5Z"></path><path d="M24.74,42.13H9.24a1.25,1.25,0,0,1,0-2.5h15.5a1.25,1.25,0,1,1,0,2.5Z"></path><path d="M24.74,48.92H13.45a1.25,1.25,0,0,1,0-2.5H24.74a1.25,1.25,0,0,1,0,2.5Z"></path><path d="M24.74,35.33H13.45a1.25,1.25,0,0,1,0-2.5H24.74a1.25,1.25,0,0,1,0,2.5Z"></path><path d="M44.83,57.19A16.32,16.32,0,1,1,61.14,40.88,16.33,16.33,0,0,1,44.83,57.19Zm0-30.13A13.82,13.82,0,1,0,58.64,40.88,13.83,13.83,0,0,0,44.83,27.06Z"></path><path d="M78,13.48H11.7a1.25,1.25,0,0,1,0-2.5H78a1.25,1.25,0,0,1,0,2.5Z"></path><path d="M73.1,7.49H16.56a1.25,1.25,0,1,1,0-2.5H73.1a1.25,1.25,0,0,1,0,2.5Z"></path><path d="M71.88,73c-10.35,0-18.46-4.33-18.46-9.85s8.11-9.85,18.46-9.85,18.46,4.32,18.46,9.85S82.23,73,71.88,73Zm0-17.2c-9.55,0-16,3.8-16,7.35s6.41,7.35,16,7.35,16-3.8,16-7.35S81.43,55.83,71.88,55.83Z"></path><path d="M71.88,81.11c-10.35,0-18.46-4.33-18.46-9.85a1.25,1.25,0,0,1,2.5,0c0,3.55,6.41,7.35,16,7.35s16-3.8,16-7.35a1.25,1.25,0,0,1,2.5,0C90.34,76.78,82.23,81.11,71.88,81.11Z"></path><path d="M71.88,88.81c-10.35,0-18.46-4.33-18.46-9.86a1.25,1.25,0,0,1,2.5,0c0,3.55,6.41,7.36,16,7.36s16-3.81,16-7.36a1.25,1.25,0,0,1,2.5,0C90.34,84.48,82.23,88.81,71.88,88.81Z"></path><path d="M45.64,50.33H43.26A4.22,4.22,0,0,1,39,46.12v-.95a1.25,1.25,0,0,1,2.5,0v.95a1.72,1.72,0,0,0,1.72,1.71h2.38a1.72,1.72,0,0,0,1.72-1.71v-2c0-.33-.41-.81-1-1.24L41.52,41l-.22-.11C39.43,39.71,39,38.41,39,37.53v-2a4.22,4.22,0,0,1,4.22-4.22h2.38a4.22,4.22,0,0,1,4.22,4.22v.94a1.25,1.25,0,0,1-2.5,0v-.94a1.72,1.72,0,0,0-1.72-1.72H43.26a1.72,1.72,0,0,0-1.72,1.72v2c0,.34.36.77,1,1.19l4.79,1.85a1.13,1.13,0,0,1,.22.11,4.18,4.18,0,0,1,2.31,3.41v2A4.22,4.22,0,0,1,45.64,50.33Z"></path><path d="M44.63,51.76a1.25,1.25,0,0,1-1.25-1.25V31.24a1.25,1.25,0,0,1,2.5,0V50.51A1.25,1.25,0,0,1,44.63,51.76Z"></path><path d="M73.15,68.84H70.62c-2.54,0-4.39-1.19-4.39-2.84a1.25,1.25,0,0,1,2.5-.14,3.11,3.11,0,0,0,1.89.48h2.53A3.1,3.1,0,0,0,75,65.86v-.62a4.07,4.07,0,0,0-.89-.39l-5.12-1-.14,0c-.73-.23-2.65-.85-2.65-2.43V60.29c0-1.64,1.85-2.84,4.39-2.84h2.53c2.54,0,4.38,1.2,4.38,2.84a1.25,1.25,0,0,1-2.49.15A3.11,3.11,0,0,0,73.15,60H70.62a3.22,3.22,0,0,0-1.89.48v.63a4.73,4.73,0,0,0,.84.35l5.12,1,.14,0c.67.22,2.7.87,2.7,2.46V66C77.53,67.65,75.69,68.84,73.15,68.84Zm2-3.51Z"></path><path d="M72.07,59.57a1.24,1.24,0,0,1-1.25-1.25V55.71a1.25,1.25,0,0,1,2.5,0v2.61A1.24,1.24,0,0,1,72.07,59.57Z"></path><path d="M72.07,72a1.25,1.25,0,0,1-1.25-1.25v-3a1.25,1.25,0,0,1,2.5,0v3A1.25,1.25,0,0,1,72.07,72Z"></path></g></svg>