<svg height='100px' width='100px'  fill="#000000" xmlns="http://www.w3.org/2000/svg" viewBox="0 0 100 100" x="0px" y="0px"><title>Stadium</title><g data-name="Iconos"><path d="M86.2,38.7V32.58l2.75,1a1.58,1.58,0,0,0,.52.09A1.5,1.5,0,0,0,90,30.78l-9.55-3.54a1.5,1.5,0,0,0-1,2.82l3.79,1.4v5.79c-8-3.27-20.81-5-33.18-5s-25.19,1.71-33.15,5V31.46l3.79-1.4a1.5,1.5,0,0,0-1-2.82l-9.54,3.54a1.5,1.5,0,0,0,.52,2.91,1.58,1.58,0,0,0,.52-.09l2.75-1v6.1C10.79,40.43,9,42.51,9,44.93v5.13a1.79,1.79,0,0,0,0,.23v0a4.46,4.46,0,0,0,.14.89l3.35,22.35c1.21,6.14,14.07,11.18,30.82,12.17v1.4a1.5,1.5,0,0,0,1.5,1.5H55.26a1.5,1.5,0,0,0,1.5-1.5v-1.4c16.83-1,29.13-5.77,30.8-12.08a.45.45,0,0,0,0-.16L90.94,51.2a5.32,5.32,0,0,0,.14-.89v0a1.79,1.79,0,0,0,0-.23V44.93C91.1,42.52,89.27,40.44,86.2,38.7ZM12,50v0a26.85,26.85,0,0,0,8.19,3.87,1.81,1.81,0,0,0,.57.18C28.62,56.35,39.5,57.59,50,57.59c10.1,0,20.52-1.14,28.34-3.34a1.6,1.6,0,0,0,.39-.11,33.76,33.76,0,0,0,7.91-3.24,1.38,1.38,0,0,0,.5-.32c.33-.21.64-.43.94-.66v0l-.11.68c-1.26,4-15.47,9.1-38,9.1s-36.7-5.12-38-9.1Zm66.16,1.26C70.52,49,60,47.67,49,47.67c-10.56,0-20.49,1.15-28,3.24a38.53,38.53,0,0,1-3.73-1.4c7-3.11,19.46-5.07,32.82-5.07s25.88,2,32.84,5.06A37.64,37.64,0,0,1,78.11,51.21Zm-6.37,1.52A116.69,116.69,0,0,1,50,54.59a114.47,114.47,0,0,1-22.77-2.07A119.73,119.73,0,0,1,49,50.67,118.14,118.14,0,0,1,71.74,52.73ZM50,35.27c23.59,0,38.08,5.63,38.08,9.66,0,.89-.71,1.86-2.06,2.82-7-3.9-20.62-6.31-36-6.31s-29,2.42-36,6.31c-1.35-1-2.05-1.93-2.05-2.82C12,40.9,26.44,35.27,50,35.27Zm3.74,50.35H46.28V81.05a3.61,3.61,0,0,1,3.61-3.61h.26a3.61,3.61,0,0,1,3.61,3.61v4.57ZM46.34,75.48a3.73,3.73,0,0,1,7.37,0,6.57,6.57,0,0,0-3.56-1h-.26A6.54,6.54,0,0,0,46.34,75.48Zm38.3-2.54c-1.2,4.13-11.85,8.8-27.88,9.78V76.05a6.74,6.74,0,1,0-13.48,0v6.67C27,81.73,16.2,77,15.42,73L12.81,55.67c7,4.61,22.45,7.06,37.21,7.06s30.22-2.45,37.22-7.06Z"></path><path d="M24.47,62.91l-2.53-.72A1.49,1.49,0,0,0,20,63.63v2.53a1.49,1.49,0,0,0,1.09,1.44l2.53.73a1.84,1.84,0,0,0,.41,0,1.48,1.48,0,0,0,.9-.3,1.49,1.49,0,0,0,.6-1.2V64.35A1.51,1.51,0,0,0,24.47,62.91Z"></path><path d="M36.15,64.94l-2.53-.23a1.46,1.46,0,0,0-1.14.38A1.49,1.49,0,0,0,32,66.2v2.53a1.5,1.5,0,0,0,1.36,1.49l2.53.24H36a1.5,1.5,0,0,0,1.5-1.5V66.43A1.5,1.5,0,0,0,36.15,64.94Z"></path><path d="M79.42,62.43a1.49,1.49,0,0,0-1.31-.24l-2.53.72a1.5,1.5,0,0,0-1.09,1.44v2.53a1.49,1.49,0,0,0,.6,1.2,1.48,1.48,0,0,0,.9.3,1.84,1.84,0,0,0,.41,0l2.53-.73A1.49,1.49,0,0,0,80,66.16V63.63A1.51,1.51,0,0,0,79.42,62.43Z"></path><path d="M66.42,64.71l-2.53.23a1.5,1.5,0,0,0-1.36,1.49V69a1.5,1.5,0,0,0,1.5,1.5h.14l2.53-.24a1.5,1.5,0,0,0,1.36-1.49V66.2a1.52,1.52,0,0,0-.49-1.11A1.47,1.47,0,0,0,66.42,64.71Z"></path></g><g data-name="Puntos"><path d="M79.93,25.53a2,2,0,1,0-2-2A2,2,0,0,0,79.93,25.53Z"></path><path d="M84.7,27.3a2,2,0,1,0-2-2A2,2,0,0,0,84.7,27.3Z"></path><path d="M89.47,25a2,2,0,1,0,2,2A2,2,0,0,0,89.47,25Z"></path><path d="M79.93,20.59a2,2,0,1,0-2-2A2,2,0,0,0,79.93,20.59Z"></path><path d="M84.7,22.36a2,2,0,1,0-2-2A2,2,0,0,0,84.7,22.36Z"></path><path d="M89.47,20.07a2,2,0,1,0,2,2A2,2,0,0,0,89.47,20.07Z"></path><path d="M79.93,15.65a2,2,0,1,0-2-2A2,2,0,0,0,79.93,15.65Z"></path><path d="M84.7,17.42a2,2,0,1,0-2-2A2,2,0,0,0,84.7,17.42Z"></path><path d="M89.47,15.12a2,2,0,1,0,2,2A2,2,0,0,0,89.47,15.12Z"></path><path d="M20.14,25.53a2,2,0,1,0-2-2A2,2,0,0,0,20.14,25.53Z"></path><path d="M15.37,27.3a2,2,0,1,0-2-2A2,2,0,0,0,15.37,27.3Z"></path><path d="M10.6,29.07a2,2,0,1,0-2-2A2,2,0,0,0,10.6,29.07Z"></path><path d="M20.14,20.59a2,2,0,1,0-2-2A2,2,0,0,0,20.14,20.59Z"></path><path d="M15.37,22.36a2,2,0,1,0-2-2A2,2,0,0,0,15.37,22.36Z"></path><path d="M10.6,24.13a2,2,0,1,0-2-2A2,2,0,0,0,10.6,24.13Z"></path><path d="M20.14,15.65a2,2,0,1,0-2-2A2,2,0,0,0,20.14,15.65Z"></path><path d="M15.37,17.42a2,2,0,1,0-2-2A2,2,0,0,0,15.37,17.42Z"></path><path d="M10.6,19.19a2,2,0,1,0-2-2A2,2,0,0,0,10.6,19.19Z"></path></g></svg>