<svg height='100px' width='100px'  fill="#000000" xmlns="http://www.w3.org/2000/svg" xmlns:xlink="http://www.w3.org/1999/xlink" version="1.1" x="0px" y="0px" viewBox="0 0 100 100" enable-background="new 0 0 100 100" xml:space="preserve"><g><path d="M5,17.925v64.742h80.5V17.925H5z M75.872,21.461h5.883v8.53h-5.883V21.461z M68.703,21.461h5.882v8.53h-5.882V21.461z    M61.534,21.461h5.882v8.53h-5.882V21.461z M54.365,21.461h5.882v8.53h-5.882V21.461z M47.186,21.461h5.882v8.53h-5.882V21.461z    M13.87,79.256H7.988v-8.53h5.882V79.256z M13.87,69.403H7.988v-8.53h5.882V69.403z M13.87,59.55H7.988v-8.53h5.882V59.55z    M13.87,49.697H7.988v-8.53h5.882V49.697z M13.907,39.843H8.024v-8.53h5.882V39.843z M13.907,29.99H8.024v-8.53h5.882V29.99z    M21.039,79.256h-5.882v-8.53h5.882V79.256z M21.039,69.403h-5.882v-8.53h5.882V69.403z M21.039,59.55h-5.882v-8.53h5.882V59.55z    M21.039,49.697h-5.882v-8.53h5.882V49.697z M21.076,39.843h-5.882v-8.53h5.882V39.843z M21.076,29.99h-5.882v-8.53h5.882V29.99z    M28.209,79.256h-5.882v-8.53h5.882V79.256z M28.209,69.403h-5.882v-8.53h5.882V69.403z M28.209,59.55h-5.882v-8.53h5.882V59.55z    M28.209,49.697h-5.882v-8.53h5.882V49.697z M28.245,39.843h-5.882v-8.53h5.882V39.843z M28.245,29.99h-5.882v-8.53h5.882V29.99z    M35.378,79.256h-5.882v-8.53h5.882V79.256z M35.378,69.403h-5.882v-8.53h5.882V69.403z M35.415,39.843h-5.882v-8.53h5.882V39.843z    M35.415,29.99h-5.882v-8.53h5.882V29.99z M42.556,79.256h-5.882v-8.53h5.882V79.256z M42.556,69.403h-5.882v-8.53h5.882V69.403z    M42.593,39.843h-5.882v-8.53h5.882V39.843z M42.593,29.99h-5.882v-8.53h5.882V29.99z M47.186,31.314h5.882v8.53h-5.882V31.314z    M53.105,79.256h-5.882v-8.53h5.882V79.256z M53.105,69.403h-5.882v-8.53h5.882V69.403z M54.365,31.314h5.882v8.53h-5.882V31.314z    M60.284,79.256h-5.882v-8.53h5.882V79.256z M60.284,69.403h-5.882v-8.53h5.882V69.403z M61.534,31.314h5.882v8.53h-5.882V31.314z    M67.453,79.256h-5.882v-8.53h5.882V79.256z M67.453,69.403h-5.882v-8.53h5.882V69.403z M67.453,59.55h-5.882v-8.53h5.882V59.55z    M67.453,49.697h-5.882v-8.53h5.882V49.697z M68.703,31.314h5.882v8.53h-5.882V31.314z M74.622,79.256H68.74v-8.53h5.882V79.256z    M74.622,69.403H68.74v-8.53h5.882V69.403z M74.622,59.55H68.74v-8.53h5.882V59.55z M74.622,49.697H68.74v-8.53h5.882V49.697z    M75.872,31.314h5.883v8.53h-5.883V31.314z M81.792,79.256h-5.882v-8.53h5.882V79.256z M81.792,69.403h-5.882v-8.53h5.882V69.403z    M81.792,59.55h-5.882v-8.53h5.882V59.55z M81.792,49.697h-5.882v-8.53h5.882V49.697z"></path></g><g><g><line fill="none" stroke="#000000" stroke-miterlimit="10" x1="5" y1="88.75" x2="12.5" y2="88.75"></line><line fill="none" stroke="#000000" stroke-miterlimit="10" stroke-dasharray="14.35,14.35" x1="26.85" y1="88.75" x2="77.075" y2="88.75"></line><polyline fill="none" stroke="#000000" stroke-miterlimit="10" points="84.25,88.75 91.75,88.75 91.75,81.25   "></polyline><line fill="none" stroke="#000000" stroke-miterlimit="10" stroke-dasharray="12.55,12.55" x1="91.75" y1="68.7" x2="91.75" y2="24.775"></line><polyline fill="none" stroke="#000000" stroke-miterlimit="10" points="91.75,18.5 91.75,11 84.25,11   "></polyline><line fill="none" stroke="#000000" stroke-miterlimit="10" stroke-dasharray="14.3424,14.3424" x1="69.908" y1="11" x2="19.709" y2="11"></line><line fill="none" stroke="#000000" stroke-miterlimit="10" x1="12.538" y1="11" x2="5.038" y2="11"></line></g></g></svg>