<svg height='100px' width='100px'  fill="#000000" xmlns:dc="http://purl.org/dc/elements/1.1/" xmlns:cc="http://creativecommons.org/ns#" xmlns:rdf="http://www.w3.org/1999/02/22-rdf-syntax-ns#" xmlns:svg="http://www.w3.org/2000/svg" xmlns="http://www.w3.org/2000/svg" xmlns:sodipodi="http://sodipodi.sourceforge.net/DTD/sodipodi-0.dtd" xmlns:inkscape="http://www.inkscape.org/namespaces/inkscape" viewBox="0 0 12.7 12.7" version="1.1" x="0px" y="0px"><g transform="translate(0,-284.29998)"><path style="" d="m 11.166185,292.31289 v 0.69003 h 0.505493 v -0.69003 z m 0.05599,0.0562 h 0.393091 v 0.57757 h -0.393091 z" fill="#000000" stroke="none"></path><path style="" d="m 10.266016,292.31289 v 0.69003 h 0.505493 v -0.69003 z m 0.05599,0.0562 h 0.393091 v 0.57757 h -0.393091 z" fill="#000000" stroke="none"></path><path style="" d="m 9.3663749,292.31289 v 0.69003 h 0.5048596 v -0.69003 z m 0.05599,0.0562 h 0.3935137 v 0.57757 H 9.4223648 Z" fill="#000000" stroke="none"></path><path style="" d="m 8.4661001,292.31289 v 0.69003 h 0.5049652 v -0.69003 z m 0.05599,0.0562 h 0.3936194 v 0.57757 H 8.5220899 Z" fill="#000000" stroke="none"></path><path style="" d="m 7.2705579,292.31289 v 0.69003 h 0.5049653 v -0.69003 z m 0.05599,0.0562 h 0.3936193 v 0.57757 H 7.3265478 Z" fill="#000000" stroke="none"></path><path style="" d="m 6.09794,292.31289 v 0.69003 h 0.5054934 v -0.69003 z m 0.05599,0.0562 h 0.3930911 v 0.57757 H 6.1539298 Z" fill="#000000" stroke="none"></path><path style="" d="m 4.9258502,292.31289 v 0.69003 h 0.5049652 v -0.69003 z m 0.05599,0.0562 h 0.3936194 v 0.57757 H 4.98184 Z" fill="#000000" stroke="none"></path><path style="" d="m 3.730308,292.31289 v 0.69003 h 0.5049653 v -0.69003 z m 0.05599,0.0562 h 0.3936193 v 0.57757 H 3.7862979 Z" fill="#000000" stroke="none"></path><path style="" d="m 2.8300332,292.31289 v 0.69003 h 0.5055991 v -0.69003 z m 0.05599,0.0562 h 0.3936193 v 0.57757 H 2.8860231 Z" fill="#000000" stroke="none"></path><path style="" d="m 1.929864,292.31289 v 0.69003 h 0.5054935 v -0.69003 z m 0.05599,0.0562 h 0.393091 v 0.57757 H 1.9858539 Z" fill="#000000" stroke="none"></path><path style="" d="m 1.0301174,292.31289 v 0.69003 h 0.5050709 v -0.69003 z m 0.05599,0.0562 h 0.3936193 v 0.57757 H 1.0861073 Z" fill="#000000" stroke="none"></path><path style="" d="m 11.166185,291.02836 v 0.68949 h 0.505493 v -0.68949 z m 0.05599,0.0557 h 0.393091 v 0.57811 h -0.393091 z" fill="#000000" stroke="none"></path><path style="" d="m 10.266016,291.02836 v 0.68949 h 0.505493 v -0.68949 z m 0.05599,0.0557 h 0.393091 v 0.57811 h -0.393091 z" fill="#000000" stroke="none"></path><path style="" d="m 9.3663749,291.02836 v 0.68949 h 0.5048596 v -0.68949 z m 0.05599,0.0557 h 0.3935137 v 0.57811 H 9.4223648 Z" fill="#000000" stroke="none"></path><path style="" d="m 8.4661001,291.02836 v 0.68949 h 0.5049652 v -0.68949 z m 0.05599,0.0557 h 0.3936194 v 0.57811 H 8.5220899 Z" fill="#000000" stroke="none"></path><path style="" d="m 7.2705579,291.02836 v 0.68949 h 0.5049653 v -0.68949 z m 0.05599,0.0557 h 0.3936193 v 0.57811 H 7.3265478 Z" fill="#000000" stroke="none"></path><path style="" d="m 6.09794,291.02836 v 0.68949 h 0.5054934 v -0.68949 z m 0.05599,0.0557 h 0.3930911 v 0.57811 H 6.1539298 Z" fill="#000000" stroke="none"></path><path style="" d="m 4.9258502,291.02836 v 0.68949 h 0.5049652 v -0.68949 z m 0.05599,0.0557 h 0.3936194 v 0.57811 H 4.98184 Z" fill="#000000" stroke="none"></path><path style="" d="m 3.730308,291.02836 v 0.68949 h 0.5049653 v -0.68949 z m 0.05599,0.0557 h 0.3936193 v 0.57811 H 3.7862979 Z" fill="#000000" stroke="none"></path><path style="" d="m 2.8300332,291.02836 v 0.68949 h 0.5055991 v -0.68949 z m 0.05599,0.0557 h 0.3936193 v 0.57811 H 2.8860231 Z" fill="#000000" stroke="none"></path><path style="" d="m 1.929864,291.02836 v 0.68949 h 0.5054935 v -0.68949 z m 0.05599,0.0557 h 0.393091 v 0.57811 H 1.9858539 Z" fill="#000000" stroke="none"></path><path style="" d="m 1.0301174,291.02836 v 0.68949 h 0.5050709 v -0.68949 z m 0.05599,0.0557 h 0.3936193 v 0.57811 H 1.0861073 Z" fill="#000000" stroke="none"></path><path style="" d="m 6.3468308,287.89751 a 0.02799493,0.02799493 0 0 0 -0.024298,0.028 v 1.28181 l -0.5956055,0.23802 H 4.3730295 v 0.071 h 0.088739 v 0.15122 H 4.1527674 v 0.0584 h 0.099303 v 0.31009 l -0.087682,0.035 H 3.8831709 v -0.34175 h 0.07078 v -0.22654 H 3.2890445 v 0.22654 h 0.07078 v 0.34175 H 0.75027373 v 0.22163 H 0.53244145 v 0.27405 h 0.2145574 v 2.56855 H 0.52916657 v 0.2675 H 12.170833 v -0.2675 h -0.217726 v -2.56855 h 0.215085 v -0.27405 H 11.95036 v -0.22163 H 9.3408097 v -0.34175 h 0.07078 v -0.22654 H 8.7466833 v 0.22654 h 0.07078 v 0.34175 H 8.5368797 l -0.087682,-0.035 v -0.31009 h 0.099303 v -0.0584 H 8.2389714 v -0.15122 H 8.32771 v -0.071 H 6.9738116 l -0.5956054,-0.23802 v -0.47112 h 1.0826116 v -0.7277 H 6.3782062 v -0.083 a 0.02799493,0.02799493 0 0 0 -0.031692,-0.028 z m 0.031692,0.16651 h 1.0268331 v 0.61634 H 6.3785231 Z m -0.027467,1.19227 2.0351789,0.81452 H 4.3158775 Z m -1.8325589,0.25986 h 1.0333828 l -1.0333828,0.41325 z m 2.6318407,0 H 8.183721 v 0.41325 z m -3.8039305,0.0421 h 0.5529264 v 0.11518 H 3.3464077 Z m 5.4563711,0 H 9.356339 v 0.11518 H 8.8027788 Z M 4.308799,289.7231 h 0.1539193 v 0.22876 l -0.1539193,0.0617 z m 3.9305943,0 h 0.1539194 v 0.29044 l -0.1539194,-0.0617 z m -4.8226291,0.006 H 3.828977 v 0.34176 H 3.4167648 Z m 5.4564767,0 h 0.4121066 v 0.34176 h -0.412106 z m -8.06644969,0.39743 H 11.895427 v 0.16596 H 0.80679181 Z m -0.21783228,0.22166 H 12.113259 v 0.16267 H 0.58895953 Z m 0.2150856,0.21835 H 4.4616625 v 0.17086 H 0.80404513 Z m 3.71381847,0 h 0.1578281 v 2.56855 H 4.5178636 Z m 0.2140292,0 h 0.8937251 v 0.16433 H 4.7318928 Z m 0.9499262,0 h 0.1577224 v 2.56855 H 5.681819 Z m 0.2140292,0 h 0.9110502 v 0.16433 H 5.8958482 Z m 0.9667232,0 h 0.157828 v 2.56855 h -0.157828 z m 0.2140292,0 h 0.8942533 v 0.16433 H 7.0766006 Z m 0.9499262,0 h 0.1577224 v 2.56855 H 8.0265268 Z m 0.2140292,0 h 3.6576166 v 0.17086 H 8.240556 Z m -3.5086632,0.22056 h 0.8937251 v 2.34799 H 4.7318928 Z m 1.1639554,0 h 0.9110502 v 2.34799 H 5.8958482 Z m 1.1807524,0 h 0.8942533 v 2.34799 H 7.0766006 Z m -6.27255547,0.006 H 4.4616625 v 2.34198 H 0.80404513 Z m 7.43651087,0 h 3.6576166 v 2.34198 H 8.240556 Z m -7.65434315,2.39766 H 12.116006 v 0.15613 H 0.58621285 Z" fill="#000000" stroke="none"></path></g></svg>