<svg height='100px' width='100px'  fill="#000000" xmlns="http://www.w3.org/2000/svg" xmlns:xlink="http://www.w3.org/1999/xlink" version="1.1" x="0px" y="0px" viewBox="0 0 100 100" enable-background="new 0 0 100 100" xml:space="preserve"><g><path fill="none" stroke="#000000" stroke-width="0.75" stroke-linecap="round" stroke-linejoin="round" stroke-miterlimit="10" d="   M48.905,49.99c-0.269-0.632-0.069-1.618-0.121-2.273c-0.064-0.821-0.422-1.093,0.613-1.723c-0.226-0.51-0.006-0.802,0.097-1.341   c0.125-0.661,0.113-0.85,0.01-1.521c-0.186-1.208,0.017-2.405,0.115-3.706c0.015,0.262,0.188,0.546,0.251,0.796   c1.506-0.387,0.813-2.581,2.268-3.472c0.167-0.102,0.636-0.407,0.759-0.499c0.207-0.157,0.586,0.088,0.834-0.112   c0.263-0.212,0.306-1.65,0.534-2.021c0.459-0.746,1.795-1.365,1.966-2.293c0.259-1.41-0.691-0.645-1.096-1.442   c-0.572-1.127,0.457-2.707,1.469-1.392c0.078-1.128,1.013-0.826,1.409-1.618c0.416-0.832-0.048-2.27-1.003-2.403   c0.178-1.76,0.458-2.362-1.375-2.747c-0.21-1.024,0.51-1.386,1.108-1.95c-0.718-0.123-1.296-0.689-0.727-1.278   c-0.386-0.605-1.099-0.656-1.021-1.506c0.059-0.646,1.156-0.885,0.883-1.74c-0.395-1.236-0.874,0.532-1.483-0.117   c-0.395-0.419,0.373-1.5,0.48-1.633h-42.75L11.5,31.5c0.495,0.52,0.337,1.535,0.607,1.79c0.398,0.376,1.583,0.223,2.148,0.704   c0.909,0.774,1.086,2.1,0.994,3.25c-0.124,1.548-0.399,2.76,0.247,4.134c0.424,0.9,1.405,1.944,1.972,2.775   c0.394,0.579,0.381,1.141,0.682,1.722c0.331,0.641,0.878,0.963,1.197,1.591c0.562,1.109,0.14,2.75-0.128,3.885   c-0.178,0.754-0.175,1.564-0.342,2.298c-0.227,0.997-0.851,1.503-1.352,2.384c-0.215,0.378-0.276,0.873-0.529,1.235   c-0.158,0.227-0.684,0.389-0.755,0.603c-0.328,0.976,0.388,0.628,0.518,1.4c0.085,0.505-0.391,1.592-0.665,1.983   c-0.25,0.357-0.94,0.452-0.978,0.995c-0.033,0.479,0.711,0.919,0.89,1.372c0.301,0.764,0.104,1.849-0.038,2.627   c-0.342,1.876-4.423,7.333-0.231,6.509c0.799-0.157,1.386-0.679,2.147-0.921c0.865-0.275,2.074-0.357,2.997-0.435   c1.481-0.125,3.189,0.038,4.619,0.378c1.974,0.47,3.457,1.736,5.347,2.44c1.666,0.621,4.057,2.232,5.866,2.031   c1.123-0.125,1.272-1.052,2.158-1.386c0.468-0.177,1.499,0.063,1.898,0.134c1.588,0.283,4.429,0.697,5.343,2.151   c2.773-1.685-1.037-1.878-2.143-1.777c-1.338,0.123-2.801,0.542-3.128-1.225c-0.292-1.58,0.914-2.375,2.318-2.65   c1.875-0.367,2.235-0.267,2.359,1.712c1.203-0.009,1.695-2.066,3.266-0.5c0.955,0.952-0.103,2.525,1.946,2.307   c-0.046,0.39,0.039,0.835-0.096,1.205c1.376,0.532,2.944-0.414,4.321,0.526c1.153,0.787,1.057,2.558-0.562,2.422   c-0.128,0.737-0.748,1.49-0.024,2.086c0.515,0.425,2.462,0.176,3.09,0.235c1.71,0.159,3.99,1.726,5.133,3.003   c0.126-0.99,1.065-1.04,1.885-1.016c0.417-1.131,0.207-2.195,1.406-2.977c1.574-1.026,1.836,0.269,1.495,1.489   c0.667-0.02,1.405-0.475,1.643-1.105c0.343,0.183,1.099,0.447,1.366,0.738c0.514,0.561,0.14,1.412,0.481,1.859   c0.771,1.009,2.046-0.512,2.387-1.332c0.37-0.888-0.126-1.605-0.015-2.396c0.108-0.768,0.644-0.836,0.899-1.512   c0.063-0.17-0.194-0.916-0.221-1.097c0.859-0.303,1.236,0.438,1.831,0.368c0.689-0.082,0.677-1.438,1.38-0.395   c0.371,0.55-0.452,1.535-0.042,2.133c0.239,0.349,1.333,0.679,1.787,0.753c0.729,0.121,1.574-0.197,2.286-0.012   c1,0.259,1.405,0.944,2.123,1.696c1.081,1.131,1.198,2.133,2.709,2.436c0.922,0.185,2.403,0.391,3.278-0.148   c1.805-1.114,0.139-2.93-0.896-3.703c-1.078-0.805-1.592-1.549-2.847-1.552c-1.881-0.004-2.332,0.007-3.809-1.11   c-0.508-0.384-1.208-0.545-1.691-0.962c-0.671-0.581-0.662-0.96-0.762-2.003c0.533-0.155,0.927-0.545,1.227-1.009   c0.453,0.174,0.878,0.438,1.362,0.475c0.212-1.151-2.28-0.914-2.483-2.006c-0.312-1.68,2.417-0.139,3.225,0.005   c0.594-1.059,1.08-1.297,2.258-1.256c0.112-0.57-0.21-0.994-0.121-1.48c0.072-0.389,1.299-0.615,0.265-1.131   c-1.228-0.613-1.479,1.226-2-0.619c-0.262-0.926-0.334-2.083-1.599-0.625c-0.503,0.58-0.777,1.926-0.542,2.606   c-0.761,0.022-1.828-0.792-2.608-1.009c-1.044-0.29-1.983-0.054-1.731-1.45c0.695-0.249,1.358-0.053,1.978-0.425   c0.56-0.336,1.136-1.253,1.406-1.843c0.693-1.515,0.03-3.367-0.899-4.881c-0.965-1.571-3.089-2.838-2.787-4.902   c0.273-1.874,2.103-3.537,1.942-5.463L48.905,49.99z"></path></g></svg>