<svg height='100px' width='100px'  fill="#000000" xmlns="http://www.w3.org/2000/svg" xmlns:xlink="http://www.w3.org/1999/xlink" version="1.1" x="0px" y="0px" viewBox="0 0 100 100" enable-background="new 0 0 100 100" xml:space="preserve"><path d="M18.698,35.459c0-3.812,3.09-6.902,6.902-6.902s6.902,3.09,6.902,6.902c0,4.773-3.09,8.339-6.902,8.339  S18.698,40.261,18.698,35.459z"></path><path d="M9.852,57.272c-0.547,0-0.946-0.508-0.833-1.044c1.098-5.221,4.819-9.178,9.796-11.055c0.386-0.146,0.824,0.022,1.03,0.379  c2.264,3.922,1.967,3.406,3.046,5.275l1.655-2.867c-0.097-0.169-0.765-1.326-0.861-1.492c-0.15-0.26,0.037-0.584,0.337-0.584  c1.142,0,2.013,0,3.155,0c0.3,0,0.487,0.324,0.337,0.584l-0.789,1.366l-0.073,0.126l1.655,2.867c1.119-1.938,0.36-0.623,3.046-5.275  c0.206-0.357,0.644-0.525,1.03-0.379c4.977,1.877,8.698,5.833,9.796,11.055c0.113,0.535-0.286,1.044-0.833,1.044  C22.215,57.272,26.969,57.272,9.852,57.272z"></path><path d="M74.4,43.797c-3.812,0-6.902-3.566-6.902-8.339c0-3.812,3.09-6.902,6.902-6.902c3.812,0,6.902,3.09,6.902,6.902  C81.302,40.261,78.212,43.797,74.4,43.797z"></path><path d="M58.652,57.272c-0.547,0-0.946-0.508-0.833-1.044c1.098-5.221,4.819-9.178,9.796-11.055c0.386-0.146,0.824,0.022,1.03,0.379  c2.686,4.652,1.927,3.337,3.046,5.275l1.655-2.867l-0.073-0.126l-0.789-1.366c-0.15-0.26,0.037-0.584,0.337-0.584  c1.142,0,2.013,0,3.155,0c0.3,0,0.487,0.324,0.337,0.584c-0.096,0.166-0.764,1.324-0.861,1.492l1.655,2.867  c1.079-1.869,0.781-1.353,3.046-5.275c0.206-0.357,0.644-0.525,1.03-0.379c4.977,1.877,8.698,5.833,9.796,11.055  c0.113,0.535-0.286,1.044-0.833,1.044C73.031,57.272,77.785,57.272,58.652,57.272z"></path><path d="M92.973,62.936c0.204,1.253-0.758,2.336-1.973,2.336H53.714c-0.168,0-0.318,0.089-0.412,0.228  c-0.717,1.064-1.922,1.772-3.302,1.772s-2.585-0.707-3.302-1.772c-0.094-0.139-0.244-0.228-0.412-0.228H9  c-1.215,0-2.176-1.083-1.973-2.336c0.16-0.983,1.083-1.664,2.08-1.664h37.179c0.168,0,0.318-0.089,0.412-0.228  c0.717-1.065,1.922-1.772,3.302-1.772s2.585,0.707,3.302,1.772c0.094,0.139,0.244,0.228,0.412,0.228h37.179  C91.889,61.272,92.813,61.953,92.973,62.936z"></path><path d="M60.265,85.443c-0.475,0-20.908,0-20.523,0c-1.308,0-2.125-1.416-1.471-2.548c0.203-0.352,8.384-14.522,8.183-14.174  c0.139-0.241,0.442-0.311,0.687-0.178c1.784,0.973,3.938,0.973,5.723-0.003c0.245-0.134,0.548-0.064,0.687,0.177  c0.169,0.292,8.354,14.469,8.185,14.177C62.39,84.027,61.573,85.443,60.265,85.443z"></path></svg>