<svg height='100px' width='100px'  fill="#000000" xmlns="http://www.w3.org/2000/svg" xmlns:xlink="http://www.w3.org/1999/xlink" version="1.1" x="0px" y="0px" viewBox="0 0 64 64" style="enable-background:new 0 0 64 64;" xml:space="preserve"><g><path d="M22,38c-1.654,0-3,1.346-3,3s1.346,3,3,3s3-1.346,3-3S23.654,38,22,38z M22,42c-0.551,0-1-0.448-1-1s0.449-1,1-1   s1,0.448,1,1S22.551,42,22,42z"></path><path d="M19.737,35.35l3.527,0.441c0.779,0.098,1.479,0.489,1.97,1.103l2.985,3.731l1.562-1.25l-2.985-3.731   c-0.818-1.022-1.985-1.675-3.284-1.837l-3.527-0.441c-1.283-0.16-2.315-1.12-2.569-2.389l-0.435-2.173l-1.961,0.393l0.435,2.173   C15.877,33.483,17.599,35.083,19.737,35.35z"></path><path d="M63.108,63l-0.113-1.103c-0.011-0.106-1.099-10.718-1.293-15.991l-0.659-17.783c-0.034-0.913-0.258-1.791-0.667-2.608   C59.292,23.347,57.112,22,54.688,22h-1.013c-1.754,0-3.399,0.762-4.531,2.067C47.68,22.784,45.767,22,43.671,22H39v-1.525   c3.49-1.239,6-4.565,6-8.475V3h2V1H15v2h2.105l0.576,5.184c0.486,4.373,2.894,8.091,6.319,10.381v2.337   c0,1.9-1.352,3.55-3.216,3.922l-6.348,1.27c-3.206,0.642-6.143,2.361-8.271,4.844c-2.024,2.36-3.265,5.369-3.495,8.472L0.923,63H34   c1.654,0,3-1.346,3-3v-4c0-0.161-0.023-0.315-0.047-0.469l2.516,4.193C40.681,61.745,42.897,63,45.253,63   C48.974,63,52,59.974,52,56.254v-7.012c0-2.569-0.864-5.018-2.45-7.003c1.529-1.517,2.45-3.61,2.45-5.91   c0-1.032-0.197-2.03-0.563-2.98c0.154-0.4,0.277-0.815,0.368-1.242c0.387,0.275,0.811,0.478,1.258,0.627   C53.393,36.611,55,55.798,55,62v1H63.108z M43.671,24C47.161,24,50,26.839,50,30.329c0,2.99-2.039,5.531-4.945,6.177L39,37.77   v-1.915c0-0.026-0.005-0.05-0.005-0.075l5.615-1.223c1.996-0.443,3.39-2.181,3.39-4.227C48,27.942,46.058,26,43.671,26h-4.76   C38.964,25.741,39,25.476,39,25.204c0-0.41-0.07-0.816-0.196-1.204H43.671z M16.599,47.726c0.152,0.098,0.307,0.191,0.466,0.279   L17.931,61h-4.651L16.599,47.726z M19.121,48.788C19.704,48.922,20.308,49,20.93,49h3.354C23.442,50.742,23,52.649,23,54.605V61   h-3.065L19.121,48.788z M31,51h-5.381c0.243-0.694,0.557-1.363,0.939-2H31V51z M31,57h-6v-2.395c0-0.541,0.04-1.077,0.118-1.605H31   V57z M25,59h6v2h-6V59z M33,49h1c0.551,0,1,0.448,1,1v2c0,0.552-0.449,1-1,1h-1V49z M35.895,45.935L33.764,47H33V33h0.764   l2.131,1.065C36.577,34.406,37,35.092,37,35.854v8.291C37,44.908,36.577,45.594,35.895,45.935z M33,13h2v2h-2V13z M37,13h1.816   c-0.302,0.847-0.969,1.514-1.816,1.816V13z M39,11h-2V9h2V11z M35,11h-2V9h2V11z M31,11h-3.586l0.172-0.172   C28.525,9.889,29.713,9.293,31,9.086V11z M31,13v1.963c-1.507-0.153-2.92-0.854-3.951-1.963H31z M36.789,32.276l-0.565-0.282   C36.701,31.463,37,30.768,37,30v-1.386c0.305-0.17,0.581-0.378,0.824-0.614h5.847C44.955,28,46,29.045,46,30.329   c0,1.101-0.75,2.035-1.82,2.272l-5.721,1.248C38.076,33.187,37.507,32.635,36.789,32.276z M33,29h2v1c0,0.552-0.449,1-1,1h-1V29z    M36.939,24.835C36.963,24.958,37,25.078,37,25.204c0,0.727-0.404,1.38-1.053,1.705L35.765,27H33v-2h3   C36.33,25,36.642,24.934,36.939,24.835z M37,22c0,0.552-0.449,1-1,1h-3v-2h3c0.338,0,0.671-0.022,1-0.059V22z M43,12   c0,3.859-3.14,7-7,7h-3v-2h3c2.757,0,5-2.243,5-5V5h-2v2h-6V3h10V12z M19.668,7.963L19.117,3H31v4.067   c-1.823,0.219-3.51,1.029-4.828,2.347l-2.492,2.492l1.347,1.796c1.423,1.899,3.623,3.08,5.973,3.261v1.99   C25.119,18.484,20.33,13.92,19.668,7.963z M4.665,39.557c0.199-2.681,1.271-5.279,3.02-7.319c1.837-2.144,4.375-3.629,7.145-4.184   l6.347-1.27C23.971,26.227,26,23.752,26,20.901v-1.219c1.544,0.708,3.229,1.149,5,1.271V47H20.93c-2.945,0-5.434-2.108-5.918-5.014   l-1.025-6.15l-1.973,0.328l1.025,6.15c0.253,1.515,0.918,2.864,1.865,3.949L11.219,61H3.077L4.665,39.557z M35,60   c0,0.552-0.449,1-1,1h-1v-6h1c0.551,0,1,0.448,1,1V60z M45.253,61c-1.658,0-3.217-0.883-4.07-2.305L37,51.723V50   c0-0.768-0.299-1.463-0.775-1.994l0.565-0.282c0.154-0.077,0.3-0.166,0.44-0.26l0.943,0.754C40.414,50.012,43.23,51,46.102,51   c1.326,0,2.636-0.211,3.898-0.618v2.338c-0.535,0.962-1.389,1.688-2.485,2.054C47.065,54.924,46.597,55,46.124,55h-0.888   c-1.308,0-2.618-0.31-3.789-0.895l-0.894,1.789C42,56.618,43.62,57,45.236,57h0.888c0.689,0,1.37-0.11,2.071-0.345   c0.665-0.222,1.26-0.566,1.805-0.974v0.573C50,58.871,47.871,61,45.253,61z M49.95,48.296l-0.466,0.155   c-3.391,1.132-7.275,0.436-10.063-1.795l-0.865-0.692c0.016-0.031,0.034-0.062,0.049-0.094l6.87-1.41   c0.903-0.2,1.739-0.543,2.495-0.994C49.086,44.856,49.77,46.524,49.95,48.296z M50,36.329c0,2.99-2.039,5.531-4.942,6.176   L39,43.748v-3.936l6.476-1.352c1.811-0.402,3.36-1.363,4.496-2.673C49.987,35.967,50,36.147,50,36.329z M51.96,29.546   c-0.137-1.466-0.658-2.821-1.458-3.969C51.257,24.589,52.421,24,53.676,24h1.013c1.662,0,3.155,0.923,3.898,2.409   c0.28,0.561,0.434,1.162,0.457,1.788l0.659,17.783c0.16,4.321,0.908,12.14,1.192,15.02h-3.905   c-0.136-6.944-1.522-23.604-1.9-28.049c0.987-0.112,1.906-0.531,2.619-1.244l-1.415-1.414c-0.988,0.99-2.716,0.869-3.707-0.121   L51.96,29.546z"></path></g></svg>