<svg height='100px' width='100px'  fill="#000000" xmlns="http://www.w3.org/2000/svg" xmlns:xlink="http://www.w3.org/1999/xlink" version="1.1" x="0px" y="0px" viewBox="0 0 100 100" style="enable-background:new 0 0 100 100;" xml:space="preserve"><path d="M16.300293,75.5385742h46.9243164l0.0576172,13.4658203c0.0019531,0.4150391,0.2597656,0.7856445,0.6484375,0.9316406  C64.0454102,89.9790039,64.1640625,90,64.2822266,90c0.28125,0,0.5561523-0.1191406,0.75-0.3383789l12.4560547-14.1230469h6.2114258  c3.4741211,0,6.300293-2.8261719,6.300293-6.300293V16.300293C90,12.8261719,87.1738281,10,83.699707,10H16.300293  C12.8261719,10,10,12.8261719,10,16.300293v52.9379883C10,72.7124023,12.8261719,75.5385742,16.300293,75.5385742z M12,16.300293  C12,13.9291992,13.9291992,12,16.300293,12H83.699707C86.0708008,12,88,13.9291992,88,16.300293v52.9379883  c0,2.3710938-1.9291992,4.300293-4.300293,4.300293h-6.6625977c-0.2871094,0-0.5600586,0.1235352-0.75,0.3383789  L65.2709961,86.3671875l-0.0507812-11.8330078c-0.0024414-0.550293-0.4492188-0.9956055-1-0.9956055H16.300293  C13.9291992,73.5385742,12,71.609375,12,69.2382812V16.300293z"></path><path d="M29.166748,52.2541504C32.6882935,60.2697144,40.6988525,65.8837891,50,65.8837891  c8.44104,0,15.8173828-4.6253052,19.7426147-11.4711914c0.0062256-0.0144653,0.0179443-0.0258789,0.0234375-0.0406494  c1.8928223-3.3170776,2.9805298-7.1503906,2.9805298-11.2352295c0-9.2788086-5.5874634-17.272583-13.5719604-20.8071899  c-0.029541-0.0134888-0.0563965-0.0289917-0.0871582-0.0394897C56.302124,21.071106,53.2297363,20.3901367,50,20.3901367  c-12.5424805,0-22.746582,10.2041016-22.746582,22.746582c0,3.204895,0.6696777,6.255249,1.8708496,9.0235596  C29.1356812,52.1936035,29.1519775,52.2224731,29.166748,52.2541504z M52.3812256,63.7362061  c0.0262451-2.9069824-1.4007568-6.0054932-1.442749-6.0877686c-0.0224609-0.0615234-2.2363281-6.2128906,0.5683594-9.7929688  c2.7231445-3.4750977,6.1259766-2.4873047,6.2646484-2.4453125c0.0551758,0.0175781,0.1123047,0.0307617,0.1699219,0.0385742  c0.0616455,0.0081177,6.079895,0.9243164,9.7341309,8.4956055C64.4178467,59.2521973,58.8563843,62.9918213,52.3812256,63.7362061z   M69.3586426,35.7368774c-1.5601807,0.6488647-4.8529663,1.4862671-7.8283691-1.2276001  c-1.3081055-1.1938477-2.7089844-1.3510742-3.8344727-1.4770508c-1.4594727-0.1640625-2.4238281-0.2719727-3.2631836-2.4140625  c-1.2034912-3.0708618,2.96521-5.5511475,4.3227539-6.2634277C63.6054077,26.6251221,67.4293823,30.7080078,69.3586426,35.7368774z   M56.4087524,23.4146729c-2.1994629,1.446106-5.2849121,4.2420044-3.8384399,7.9329834  c1.2797852,3.265625,3.2885742,3.4907227,4.902832,3.671875c1.0087891,0.1132812,1.8803711,0.2109375,2.7094727,0.9672852  c1.90625,1.7392578,4.0605469,2.3886719,6.0786133,2.3886719c1.3396606,0,2.6159668-0.2897949,3.7231445-0.7338257  c0.4828491,1.7533569,0.762207,3.590332,0.762207,5.4950562c0,3.0979614-0.7015381,6.0288086-1.9240723,8.6715088  c-3.9429932-7.010498-9.732666-8.1981812-10.5310059-8.3292236c-0.6855469-0.1904297-4.9819336-1.1669922-8.3588867,3.1430664  c-3.4848633,4.4477539-0.9794922,11.421875-0.8388672,11.7949219c0.4176636,0.8934937,1.3488159,3.4055786,1.2838745,5.4476929  C50.2507324,63.8670044,50.1274414,63.8837891,50,63.8837891c-7.9378052,0-14.8407593-4.4854736-18.328064-11.0506592  c11.8010254-0.3845825,12.237915-9.5061646,12.3827515-12.5938721c0.1733398-3.7026367,0.6542969-4.6035156,3.5737305-8.5366211  c0.840332-1.1313477,1.1611328-2.3945312,0.9545898-3.7548828c-0.3140259-2.0646362-1.8197021-3.9039307-3.0067139-5.0715332  c1.427124-0.3114014,2.904541-0.486084,4.4237061-0.486084C52.2373657,22.3901367,54.3882446,22.7564087,56.4087524,23.4146729z   M43.3094482,23.5180054c0.8968506,0.7476807,2.9873657,2.6846313,3.2965088,4.7339478  c0.1245117,0.8237305-0.0664062,1.5625-0.5830078,2.2583008c-3.137207,4.2260742-3.769043,5.4213867-3.9663086,9.6352539  c-0.2357178,5.038269-1.7807617,10.7615967-11.305481,10.6904297c-0.9569092-2.383606-1.4977417-4.9776001-1.4977417-7.6992188  C29.253418,34.039856,35.1467285,26.3102417,43.3094482,23.5180054z"></path></svg>