<svg height='100px' width='100px'  fill="#000000" xmlns="http://www.w3.org/2000/svg" xmlns:xlink="http://www.w3.org/1999/xlink" version="1.1" x="0px" y="0px" viewBox="0 0 128 128" style="enable-background:new 0 0 128 128;" xml:space="preserve"><path d="M98,124h-2.2c-0.7-1.5-2.9-2.7-5.7-2.9L75.8,67.2l13.7-3.5c-0.3,0.2-0.4,0.5-0.4,0.8v2c0,0.6,0.4,1,1,1s1-0.4,1-1v-2  c0-0.5-0.4-0.9-0.8-1l0.3-0.1c1.1-0.3,1.7-1.4,1.4-2.5c-0.1-0.5-0.5-1-1-1.2l-17-8.6L73.5,45l21.1-4.3c-0.3,0.2-0.5,0.5-0.5,0.9v2  c0,0.6,0.4,1,1,1s1-0.4,1-1v-2c0-0.5-0.4-0.9-0.9-1l0.3-0.1c1.1-0.3,1.7-1.3,1.5-2.4c-0.2-0.7-0.7-1.2-1.3-1.4l-24.3-7l-0.5-3.3  l10.7-3.3c-0.2,0.2-0.3,0.4-0.3,0.7v2c0,0.6,0.4,1,1,1s1-0.4,1-1v-2c0-0.5-0.3-0.9-0.8-1l0.4-0.1c1-0.4,1.5-1.6,1.1-2.6  c-0.2-0.5-0.6-0.9-1.1-1.1l-12.9-4.6L66.4,1.4c-0.4-1-1.5-1.6-2.5-1.3c-0.6,0.2-1.1,0.7-1.3,1.3l-3.7,12.9L46.1,19  c-1,0.4-1.6,1.5-1.2,2.6c0.2,0.6,0.7,1,1.2,1.2l0.4,0.1c-0.5,0.1-0.8,0.5-0.8,1v2c0,0.6,0.4,1,1,1s1-0.4,1-1v-2  c0-0.3-0.1-0.5-0.3-0.7l10.7,3.3l-0.5,3.3l-24.3,7c-1.1,0.3-1.6,1.5-1.3,2.5c0.2,0.7,0.8,1.2,1.4,1.3l0.3,0.1  c-0.5,0.1-0.9,0.5-0.9,1v2c0,0.6,0.4,1,1,1s1-0.4,1-1v-2c0-0.4-0.2-0.7-0.5-0.9l21.1,4.3L55,51.2l-17,8.6c-1,0.5-1.4,1.7-0.8,2.7  c0.3,0.5,0.7,0.9,1.2,1l0.3,0.1c-0.5,0.1-0.9,0.5-0.8,1v2c0,0.6,0.4,1,1,1s1-0.4,1-1v-2c0-0.3-0.2-0.6-0.4-0.8l13.7,3.4l-14.4,54  c-2.3,0.4-4.1,1.5-4.7,2.8H30c-1.1,0-2,0.9-2,2c0,1.1,0.9,2,2,2h68c1.1,0,2-0.9,2-2S99.1,124,98,124L98,124z M66.1,58.7l4.3-3.3  l0.7,7.2L66.1,58.7z M70.5,64.5H58.5l6-4.6L70.5,64.5z M70.3,53l-5.8,4.4L58.7,53l0.1-1l5.7-3l5.7,3L70.3,53z M62.9,58.7l-5,3.8  l0.7-7.2L62.9,58.7z M71.6,66.5l-7.2,11.1l-7-11.1L71.6,66.5z M72.3,69l9.7,36.4l-16.3-26L72.3,69z M66.6,47.9l3-1.6l0.4,3.4  L66.6,47.9z M64.5,39.2l4.9,4.9l-4.9,2.6l-4.9-2.6L64.5,39.2z M69,40.9l-3.1-3.1l2.3-2.3L69,40.9z M61.4,31.6l3.1-1.9l3.1,1.9  l0.2,1.5l-3.3,3.3l-3.3-3.3L61.4,31.6z M66.4,28.6l0.7-0.4l0.1,0.9L66.4,28.6z M66.5,22.6v1.2c0,0.1,0,0.2,0,0.3l0.3,1.9l-2.3,1.4  L62.2,26l0.3-1.9c0-0.1,0-0.2,0-0.3v-1.2l2-1.4L66.5,22.6z M66.2,20.1l0.2-0.1v0.3L66.2,20.1z M62.5,20.2v-0.3l0.2,0.1L62.5,20.2z   M62.6,28.6l-0.8,0.5l0.1-0.9L62.6,28.6z M63.1,37.8l-3.1,3l0.8-5.3L63.1,37.8z M62.4,47.8L59,49.7l0.3-3.4L62.4,47.8z M56.7,69.1  l6.5,10.4l-15.8,24.6L56.7,69.1z M45.8,110.3l18.6-29l19.2,30.6l0.1,0.2H45.3L45.8,110.3z M84.5,60.9l-9.4,2.4l-0.7-7.5L84.5,60.9z   M73,41.1L72,34l14.8,4.3L73,41.1z M70.4,22.4v-3.7l5.5,2L70.4,22.4z M64.5,9.2l2,6.9v1.4l-2,1.4l-2-1.4v-1.4L64.5,9.2z M58.6,18.7  v3.7L53,20.7L58.6,18.7z M57,34l-1,7.1l-13.8-2.8L57,34z M54.5,55.8l-0.7,7.5l-9.4-2.4L54.5,55.8z M79.3,124H47.5  c-0.6-1.3-2.3-2.4-4.6-2.8l1.9-7.1h39.5l1.9,7.3c-1.5,0.3-2.9,1.2-3.7,2.6H79.3z"></path></svg>