<svg height='100px' width='100px'  fill="#000000" xmlns="http://www.w3.org/2000/svg" xmlns:xlink="http://www.w3.org/1999/xlink" version="1.1" x="0px" y="0px" viewBox="0 0 64 64" enable-background="new 0 0 64 64" xml:space="preserve"><g><g><path d="M56.9838867,46.7607422l-1.1113281-6.1621094c-0.0275879-0.1539917-0.0988159-0.288269-0.1875-0.4088135    c0.5241699-1.5116577,0.7129517-3.3458252,0.1723633-5.4613037c-0.8040771-3.1480713-2.697876-5.3300171-4.5926514-6.7959595    c-0.265625-1.7142944-1.0683594-3.2974854-2.3433838-4.5453491C46.5131836,21.0304565,42.9854736,20.4273071,40,21.5682983V19h4    c0.3842773,0,0.7348633-0.2202148,0.9013672-0.5668945c0.1665039-0.3461914,0.1196289-0.7578125-0.1206055-1.0576172l-8-10    C36.5913086,7.1381836,36.3037109,7,36,7H16c-0.3037109,0-0.5913086,0.1381836-0.7807617,0.3754883l-8,10    c-0.2402344,0.2998047-0.2871094,0.7114258-0.1206055,1.0576172C7.2651367,18.7797852,7.6157227,19,8,19h4v25    c0,0.5522461,0.4477539,1,1,1h8h4v0.8505859c0,0.5522461,0.4477539,1,1,1h4.4443359    c0.2617188,0,0.5126953-0.1025391,0.699707-0.2856445l0.7407227-0.7246094    c0.1918945-0.1884766,0.300293-0.4458008,0.300293-0.7148438V45H39c0.5522461,0,1-0.4477539,1-1v-6.1019287l0.8554688-0.8375244    c0.4509277,0.1194458,0.9085693,0.1865845,1.3673096,0.2298584c0.2931519,1.0566406,1.0111084,3.1690674,2.3953857,4.888855    l-5.9838867,5.8563843c-0.1923828,0.1884766-0.3007813,0.4458008-0.3007813,0.7148438s0.1083984,0.5263672,0.3007813,0.7148438    l7.4072266,7.2495117C46.2358398,56.9047852,46.4882813,57,46.7407227,57s0.5048828-0.0952148,0.6992188-0.2851563    l9.2592773-9.0620117C56.9365234,47.4208984,57.0429688,47.0869141,56.9838867,46.7607422z M16.4804688,9h19.0390625l6.3999023,8    H39H13h-2.9194336L16.4804688,9z M14,19h24v3.6621094c-0.0297241,0.0221558-0.0550537,0.0496826-0.0844727,0.0722656    c-0.2634277,0.2018433-0.5203247,0.4155273-0.7626953,0.652832c-2.1083984,2.0629883-2.9199219,5.105957-2.15625,7.909668    L32,34.2296143V32c0-0.5522461-0.4477539-1-1-1H21c-0.5522461,0-1,0.4477539-1,1v11h-6V19z M22,43V33h8v3.1870117    l-4.6992188,4.5991211C25.1083984,40.9746094,25,41.2319336,25,41.5009766V43H22z M38,43h-3.21875    c0.012085-0.0098877,0.0172119-0.026062,0.0288086-0.036499c0.0681763-0.0612183,0.1187134-0.1351929,0.1680298-0.2128906    c0.0247803-0.0390015,0.0568237-0.0704956,0.0761108-0.112854c0.055603-0.1220093,0.0887451-0.255249,0.0908813-0.397583    c0.000061-0.005188,0.0033569-0.0093384,0.0033569-0.0145874v-1.8994141h1.9628906    c0.2617188,0,0.5126953-0.1025391,0.699707-0.2851563L38,39.8560181V43z M39.8798828,35.2163086l-3.1767578,3.1098633h-2.5546875    h-0.0004883c-0.5522461,0-1,0.4477539-1,1v1.8994141h-1.9628906c-0.5522461,0-1,0.4477539-1,1v0.0004883V44v0.7050781    l-0.1489258,0.1455078H27V44v-2.0786133l4.6992188-4.5991211l0,0l5.1352539-5.0258789    c0.2807617-0.2744141,0.3745117-0.6875,0.2407227-1.0561523c-0.2002182-0.5531178-0.3172417-1.1232681-0.3510742-1.7104492    c-0.0986938-1.7290039,0.5473633-3.4604492,1.8276367-4.7128906c2.4726563-2.4208984,6.4975586-2.4208984,8.9711914,0    c0.4489136,0.4393311,0.8213501,0.9332275,1.1118164,1.4660645c-1.0109253-0.5098267-1.8181763-0.796936-2.1712646-0.9093018    c-1.210022-0.9702148-2.9967651-0.916626-4.1256104,0.1883545c-0.5898438,0.5771484-0.9145508,1.3457031-0.9145508,2.1645508    c0,0.8193359,0.324707,1.5878906,0.9145508,2.1650391c0.6010742,0.5883789,1.3911133,0.8823242,2.1806641,0.8823242    s1.5795898-0.2939453,2.1806641-0.8823242c0.5224609-0.5112305,0.8220825-1.1757813,0.887146-1.8895874    c0.5374756,0.2657471,1.1444702,0.6054688,1.7768555,1.0368042c0.0010376,0.0462036,0.006897,0.0915527,0.006897,0.1379395    c0,1.6459961-0.65625,3.1943359-1.847168,4.3598633c-1.7172852,1.6806641-4.3134766,2.2490234-6.6152344,1.4501953    C40.5507813,34.8613281,40.1518555,34.9511719,39.8798828,35.2163086z M45.3007813,26.9916992    c0.2016602,0.1972656,0.3129883,0.4584961,0.3129883,0.7348633c0,0.2768555-0.1113281,0.5380859-0.3129883,0.7353516    c-0.4316406,0.421875-1.1328125,0.421875-1.5644531,0c-0.2016602-0.1972656-0.3129883-0.4584961-0.3129883-0.7353516    c0-0.2763672,0.1113281-0.5375977,0.3129883-0.7348633c0.2158203-0.2109375,0.4990234-0.3164063,0.7822266-0.3164063    S45.0849609,26.7807617,45.3007813,26.9916992z M44.2958984,37.2365112    c1.7214966-0.258606,3.3564453-1.0288086,4.6254883-2.2702026c1.232605-1.2062988,2.0256958-2.7255859,2.3175659-4.3740845    c1.1586914,1.1662598,2.1828613,2.6817017,2.6809692,4.6314087c0.4493408,1.7589111,0.2822266,3.2027588-0.1229248,4.348938    l-5.0338135-0.8694458c-0.3178711-0.0532227-0.6401367,0.0463867-0.8696289,0.2705078l-1.8400269,1.8008423    C45.1494141,39.5932617,44.593811,38.173645,44.2958984,37.2365112z M46.7407227,54.6005859l-5.9775391-5.8500977    l5.9509277-5.8242188c0.0002441-0.0002441,0.0004883-0.0002441,0.0007324-0.0004883    c0.0001831-0.0001831,0.0001831-0.0004272,0.0003662-0.0006104l2.2115479-2.1644287l3.87323,0.6690674    c-0.3325195,0.4403076-0.6617432,0.7757568-0.9226685,1.0089111c-1.1640015-0.5997925-2.6356201-0.4351196-3.6136475,0.5222168    c-0.5898438,0.5771484-0.9145508,1.3457031-0.9145508,2.1650391c0,0.8188477,0.324707,1.5874023,0.9145508,2.1645508    c0.6010742,0.5883789,1.3911133,0.8828125,2.1806641,0.8828125c0.7900391,0,1.5800781-0.2944336,2.1811523-0.8833008    c0.5893555-0.5766602,0.9140625-1.3457031,0.9140625-2.1640625c0-0.4351807-0.0974731-0.8533325-0.2717285-1.2387085    c0.3221436-0.2921143,0.654541-0.6424561,0.9761963-1.0518188L54.921875,46.59375L46.7407227,54.6005859z M51.2265625,44.390625    c0.2016602,0.1972656,0.3129883,0.4584961,0.3129883,0.7353516c0,0.2763672-0.1113281,0.5375977-0.3129883,0.7348633    c0,0-0.0004883,0-0.0004883,0.0004883c-0.4306641,0.421875-1.1323242,0.4213867-1.5639648-0.0004883    c-0.2016602-0.1972656-0.3129883-0.4584961-0.3129883-0.7348633c0-0.2768555,0.1113281-0.5380859,0.3129883-0.7353516    c0.2158203-0.2109375,0.4990234-0.3168945,0.7822266-0.3168945S51.0107422,44.1796875,51.2265625,44.390625z"></path><path d="M45.2182617,47.3105469c-0.3945313-0.3857422-1.0263672-0.378418-1.4145508,0.0151367    c-0.3862305,0.3950195-0.3793945,1.027832,0.0151367,1.4145508l2.9628906,2.8999023    c0.1948242,0.1904297,0.4472656,0.2851563,0.699707,0.2851563c0.2592773,0,0.5185547-0.1005859,0.7148438-0.300293    c0.3862305-0.3950195,0.3793945-1.027832-0.0151367-1.4145508L45.2182617,47.3105469z"></path><path d="M33,30c0.5522461,0,1-0.4477539,1-1v-3c0-0.5522461-0.4477539-1-1-1h-1.090332C31.4313354,22.1668701,28.9672241,20,26,20    s-5.4313354,2.1668701-5.909668,5H19c-0.5522461,0-1,0.4477539-1,1v3c0,0.5522461,0.4477539,1,1,1H33z M26,22    c1.8603516,0,3.4282227,1.2768555,3.8735352,3h-7.7470703C22.5717773,23.2768555,24.1396484,22,26,22z M20,27h1h10h1v1H20V27z"></path></g></g></svg>