<svg height='100px' width='100px'  fill="#000000" xmlns:dc="http://purl.org/dc/elements/1.1/" xmlns:cc="http://creativecommons.org/ns#" xmlns:rdf="http://www.w3.org/1999/02/22-rdf-syntax-ns#" xmlns:svg="http://www.w3.org/2000/svg" xmlns="http://www.w3.org/2000/svg" xmlns:sodipodi="http://sodipodi.sourceforge.net/DTD/sodipodi-0.dtd" xmlns:inkscape="http://www.inkscape.org/namespaces/inkscape" version="1.1" x="0px" y="0px" viewBox="0 0 100 100"><g transform="translate(0,-952.36218)"><path style="font-size:medium;font-style:normal;font-variant:normal;font-weight:normal;font-stretch:normal;text-indent:0;text-align:start;text-decoration:none;line-height:normal;letter-spacing:normal;word-spacing:normal;text-transform:none;direction:ltr;block-progression:tb;writing-mode:lr-tb;text-anchor:start;baseline-shift:baseline;opacity:1;color:#000000;fill:#000000;fill-opacity:1;stroke:none;stroke-width:2;marker:none;visibility:visible;display:inline;overflow:visible;enable-background:accumulate;font-family:Sans;-inkscape-font-specification:Sans" d="M 49.84375 7 A 1.0001 1.0001 0 0 0 49.59375 7.09375 L 18.5625 21.5625 A 1.0001 1.0001 0 0 0 18 22.46875 L 18 59.125 C 18 67.1959 23.603786 76.84825 30.78125 81.28125 L 49.46875 92.84375 A 1.0001 1.0001 0 0 0 50.5 92.84375 L 69.21875 81.28125 C 76.396204 76.84825 82 67.1959 82 59.125 L 82 32.4375 A 1.0001 1.0001 0 1 0 80 32.4375 L 80 59.125 C 80 66.2295 74.597716 75.61515 68.15625 79.59375 L 50 90.8125 L 31.84375 79.59375 C 25.402274 75.61515 20 66.2295 20 59.125 L 20 23.125 L 50 9.09375 L 80.5625 23.375 A 1.0063276 1.0063276 0 0 0 81.4375 21.5625 L 50.4375 7.09375 A 1.0001 1.0001 0 0 0 49.84375 7 z M 49.84375 14.875 A 1.0001 1.0001 0 0 0 49.59375 14.96875 L 25.625 26.15625 A 1.0001 1.0001 0 0 0 25.03125 27.0625 L 25.03125 51.53125 A 1.0001 1.0001 0 1 0 27.03125 51.53125 L 27.03125 27.71875 L 50 16.96875 L 72.96875 27.71875 L 72.96875 59.15625 C 72.96875 60.80725 71.86934 63.91765 70.21875 66.78125 C 68.56816 69.64495 66.339211 72.33275 64.5 73.46875 L 50 82.4375 L 35.5 73.46875 C 33.660789 72.33275 31.43184 69.64495 29.78125 66.78125 C 28.13066 63.91765 27.03125 60.80725 27.03125 59.15625 A 1.0001 1.0001 0 1 0 25.03125 59.15625 C 25.03125 61.57765 26.304868 64.73195 28.0625 67.78125 C 29.820132 70.83065 32.055541 73.68515 34.4375 75.15625 L 49.46875 84.46875 A 1.0001 1.0001 0 0 0 50.5 84.46875 L 65.5625 75.15625 C 67.944459 73.68515 70.179868 70.83065 71.9375 67.78125 C 73.695132 64.73195 74.96875 61.57765 74.96875 59.15625 L 74.96875 27.0625 A 1.0001 1.0001 0 0 0 74.375 26.15625 L 50.4375 14.96875 A 1.0001 1.0001 0 0 0 49.84375 14.875 z M 49.9375 29.9375 A 1.0001 1.0001 0 0 0 49.15625 30.46875 L 44.40625 39.3125 L 34.65625 41.15625 A 1.0001 1.0001 0 0 0 34.09375 42.84375 L 40.90625 50.125 L 40.625 52.375 A 1.0077822 1.0077822 0 0 0 42.625 52.625 L 42.96875 49.9375 A 1.0001 1.0001 0 0 0 42.6875 49.15625 L 36.78125 42.78125 L 45.25 41.1875 A 1.0001 1.0001 0 0 0 45.9375 40.65625 L 50.0625 33.0625 L 54.15625 40.65625 A 1.0001 1.0001 0 0 0 54.84375 41.1875 L 63.3125 42.78125 L 57.40625 49.15625 A 1.0001 1.0001 0 0 0 57.15625 49.9375 L 58.25 58.59375 L 50.46875 54.875 A 1.0001 1.0001 0 0 0 49.625 54.875 L 40.21875 59.375 A 1.0063276 1.0063276 0 0 0 41.09375 61.1875 L 50.0625 56.875 L 59.03125 61.1875 A 1.0001 1.0001 0 0 0 60.4375 60.15625 L 59.1875 50.15625 L 66 42.84375 A 1.0001 1.0001 0 0 0 65.46875 41.15625 L 55.71875 39.3125 L 50.9375 30.46875 A 1.0001 1.0001 0 0 0 49.9375 29.9375 z " transform="translate(0,952.36218)"></path></g></svg>