<svg height='100px' width='100px'  fill="#000000" xmlns="http://www.w3.org/2000/svg" xmlns:xlink="http://www.w3.org/1999/xlink" version="1.0" x="0px" y="0px" viewBox="0 0 100 100" enable-background="new 0 0 100 100" xml:space="preserve"><g><g><path d="M78.3299561,84.6851807c-4.1127319-8.9244385-13.2977295-7.6682129-13.2977295-7.6682129    c4.2449951,3.3222656,6.6882935,8.8283081,7.9746094,12.762085h9.347168    C83.4168701,85.046936,89.168396,80.06604,89.168396,80.06604C81.2266235,79.5953979,78.3299561,84.6851807,78.3299561,84.6851807    z"></path><path d="M51.7296143,84.6851807c-4.1126709-8.9244385-13.2977295-7.6682129-13.2977295-7.6682129    c4.2449951,3.3222656,6.6882935,8.8283081,7.9746094,12.762085h9.347229    c1.0628052-4.7321167,6.8143921-9.7130127,6.8143921-9.7130127    C54.6263428,79.5953979,51.7296143,84.6851807,51.7296143,84.6851807z"></path><path d="M25.1292725,84.6851807c-4.1126709-8.9244385-13.2976685-7.6682129-13.2976685-7.6682129    c4.2449951,3.3222656,6.6882935,8.8283081,7.9745483,12.762085h9.347229    c1.0628662-4.7321167,6.8143921-9.7130127,6.8143921-9.7130127C28.026001,79.5953979,25.1292725,84.6851807,25.1292725,84.6851807    z"></path><path d="M90.1131592,23.8257446c-0.4719238-0.1444702-0.9436646-0.291626-1.4158936-0.4375v-7.3355103    c0-0.8286133-0.671875-1.5-1.5-1.5s-1.5,0.6713867-1.5,1.5v6.4692383    c-0.5791626-0.1495361-1.1609497-0.2884521-1.7483521-0.4035645c-1.7997437-0.3526611-3.6224976-0.56604-5.44104-0.7946167    c-3.0661621-0.385376-6.1396484-0.7122803-9.2144775-1.0201416c-2.7015991-0.2705078-5.4050293-0.5233765-8.1095581-0.7631836    c-1.1619263-0.1030273-2.3240356-0.2047729-3.4866333-0.300293l-6.333374-5.770874    c-10.4150391-0.4418335-16.041626,7.208374-16.041626,7.208374l-12.5,1.75l-5.625-11.5625l-6.875,1.25v15.0625    c0,0-0.1315918,1.9523926,2.3092041,2.3511963c7.4539795,1.2178955,14.9382935,2.2433472,22.4144287,3.3171387    c8.2564697,1.185791,16.5209351,3.1292725,24.9137573,2.7904663c2.2709351-0.0916748,4.4592896-0.4987183,6.6390381-0.9819336    v2.7824097c-1.4647217,0.5939331-2.5001221,2.0255737-2.5001221,3.7034302c0,2.2091064,1.7908325,4,4,4    c2.2091064,0,4-1.7908936,4-4c0-1.6777954-1.0352783-3.109314-2.4998779-3.7033081v-3.470459    c0.7835083-0.1815796,1.5692139-0.3607178,2.3624268-0.5244141c0.1436768-0.0296631,0.2875977-0.0773315,0.4313354-0.1114502    l0.0548096,0.0031738l0.5964966-0.1715088c0.2249756-0.0629272,0.4499512-0.1224976,0.6751099-0.1940918l11.9784546-3.4436646    v5.2780762c0,0.8286133,0.671875,1.5,1.5,1.5s1.5-0.6713867,1.5-1.5V26.465332    c0.8027344-0.2941284,1.666748-0.6654053,2.124939-1.0376587C91.6446533,24.7593994,90.8329468,24.0461426,90.1131592,23.8257446z     M45.7647095,17.3088379c0,0,2.3583374-0.949707,4.1699829-0.9872437l3.1716309,3.3463745l-5.1665039,0.1230469    L45.7647095,17.3088379z M51.2392578,28.0112305c-0.8286133,0-1.5-0.6713867-1.5-1.5s0.6713867-1.5,1.5-1.5h18.2441406    c0.828125,0,1.5,0.6713867,1.5,1.5s-0.671875,1.5-1.5,1.5H51.2392578z"></path><circle cx="19.645752" cy="63.0415649" r="2"></circle><circle cx="14.989563" cy="69.041626" r="2"></circle><circle cx="27.729187" cy="64.0415649" r="2"></circle><circle cx="36.4375" cy="64.0415649" r="2"></circle><circle cx="44.895752" cy="64.0415649" r="2"></circle><circle cx="23.375" cy="56.5" r="2"></circle><circle cx="32.083252" cy="56.5" r="2"></circle><circle cx="23.375061" cy="71.5831909" r="2"></circle><circle cx="32.083374" cy="71.5831909" r="2"></circle><circle cx="40.791687" cy="56.5" r="2"></circle><circle cx="49.5" cy="56.5" r="2"></circle><circle cx="53.854126" cy="64.0415649" r="2"></circle><circle cx="62.312439" cy="64.0415649" r="2"></circle><circle cx="49.5" cy="71.5831909" r="2"></circle><circle cx="57.958313" cy="71.5831909" r="2"></circle><circle cx="41.041687" cy="71.5831909" r="2"></circle><circle cx="58.208313" cy="56.5" r="2"></circle><circle cx="66.916626" cy="56.5" r="2"></circle><circle cx="49.5" cy="41.416687" r="2"></circle><circle cx="58.208252" cy="41.416687" r="2"></circle><circle cx="40.791687" cy="41.416687" r="2"></circle><circle cx="27.645752" cy="48.958313" r="2"></circle><circle cx="36.270752" cy="48.958313" r="2"></circle><circle cx="44.895752" cy="48.958313" r="2"></circle><circle cx="53.520752" cy="48.958313" r="2"></circle></g></g></svg>