<svg height='100px' width='100px'  fill="#000000" xmlns="http://www.w3.org/2000/svg" viewBox="0 0 100 100" x="0px" y="0px"><defs><style>.cls-1{fill:#000000;}</style></defs><title>Outpatient Medical Care</title><path class="cls-1" d="M23.74,31.3A12.68,12.68,0,1,0,11.06,18.62,12.68,12.68,0,0,0,23.74,31.3ZM15.37,16.1h5.84V10.25h5.05V16.1h5.85v5H26.26V27H21.21V21.15H15.37ZM93.08,92.56a1.5,1.5,0,0,1-1.5,1.5H39.11a1.5,1.5,0,0,1-1.5-1.5V69.76H23.76a1,1,0,0,1-1-1V59.44a1,1,0,0,1,1-1H37.61v-22H9.92V92.56a1.5,1.5,0,0,1-3,0V34.9a1.5,1.5,0,0,1,1.5-1.5H39.11a1.5,1.5,0,0,1,1.5,1.5V58.44h9.28v-6.5A1,1,0,0,1,50.5,51a1,1,0,0,1,1.09.22L63.72,63.39a1,1,0,0,1,0,1.42L51.59,77a1,1,0,0,1-.7.3,1.09,1.09,0,0,1-.39-.08,1,1,0,0,1-.61-.92v-6.5H40.61v21.3h51A1.5,1.5,0,0,1,93.08,92.56ZM71.52,40.33a4.75,4.75,0,1,1,4.74,4.74A4.74,4.74,0,0,1,71.52,40.33ZM77.41,61l3.93-14.85h.25a4.46,4.46,0,0,1,4.52,3.52,1.64,1.64,0,0,1,.1.38l1.69,15.6A1.87,1.87,0,0,1,86,67.54a2,2,0,0,1-2.27-1.48L82.45,54.4l-.45.05V70.76a.66.66,0,0,1,0,.14V87.6a2.53,2.53,0,1,1-5.06,0V70.1H75.61V87.63a2.53,2.53,0,1,1-5.06,0V70.92h0V62h5.67A1.23,1.23,0,0,0,77.41,61Zm-12-2,1-9s0,0,0-.05a4.41,4.41,0,0,1,4.56-3.86h6.66l-9,13.87a1.21,1.21,0,0,0-.17.87H67.27A1.88,1.88,0,0,1,65.36,59.07Z"></path></svg>