<svg height='100px' width='100px'  fill="#000000" xmlns="http://www.w3.org/2000/svg" data-name="Layer 1" viewBox="0 0 100 100" x="0px" y="0px"><title>E-COMMERCE(2)(GLYPH)</title><rect x="57.17" y="14.14" width="6.29" height="50.64" transform="translate(-10.24 54.21) rotate(-45)"></rect><path d="M71.82,77.59H58L71.14,64.45,35.33,28.64,20.66,43.32,54.93,77.59H21.09a1.54,1.54,0,1,0,0,3.08H71.82a1.54,1.54,0,1,0,0-3.08ZM36.16,48A1.54,1.54,0,0,1,34,48l-5-5a1.54,1.54,0,0,1,2.17-2.17l5,5A1.54,1.54,0,0,1,36.16,48ZM46.24,58.08a1.54,1.54,0,0,1-2.17,0l-5-5a1.54,1.54,0,0,1,2.17-2.17l5,5A1.54,1.54,0,0,1,46.24,58.08Zm3.86-3.86a1.54,1.54,0,0,1-2.17,0l-15-15A1.54,1.54,0,0,1,35.05,37l15,15A1.54,1.54,0,0,1,50.1,54.22ZM56.84,59l5.86,5.86-5.86,5.86L51,64.82Z"></path></svg>