<svg height='100px' width='100px'  fill="#000000" xmlns="http://www.w3.org/2000/svg" xmlns:xlink="http://www.w3.org/1999/xlink" version="1.1" x="0px" y="0px" viewBox="0 0 100 100" style="enable-background:new 0 0 100 100;" xml:space="preserve"><g><g><path d="M33.2,24.3c-4.9,0-8.9-4-8.9-8.9s4-8.9,8.9-8.9s8.9,4,8.9,8.9S38.1,24.3,33.2,24.3z M33.2,12.4c-1.7,0-3,1.4-3,3    s1.4,3,3,3s3-1.4,3-3C36.2,13.8,34.8,12.4,33.2,12.4z"></path></g><g><path d="M66.9,24.3c-4.9,0-8.9-4-8.9-8.9s4-8.9,8.9-8.9c4.9,0,8.9,4,8.9,8.9S71.8,24.3,66.9,24.3z M66.9,12.4c-1.7,0-3,1.4-3,3    s1.4,3,3,3c1.7,0,3-1.4,3-3S68.6,12.4,66.9,12.4z"></path></g><g><path d="M31,81.7H3V63.4c0-7.7,6.3-14,14-14s14,6.3,14,14C31,63.4,31,81.7,31,81.7z M8.9,75.9h16.3V63.4c0-4.5-3.6-8.1-8.1-8.1    s-8.1,3.6-8.1,8.1V75.9z"></path></g><g><path d="M17,43.5c-5.2,0-9.4-4.2-9.4-9.4s4.2-9.4,9.4-9.4s9.4,4.2,9.4,9.4S22.2,43.5,17,43.5z M17,30.6c-2,0-3.5,1.6-3.5,3.5    c0,2,1.6,3.5,3.5,3.5s3.5-1.6,3.5-3.5C20.5,32.2,19,30.6,17,30.6z"></path></g><g><path d="M64,81.7H36V63.4c0-7.7,6.3-14,14-14s14,6.3,14,14V81.7z M41.9,75.9h16.3V63.4c0-4.5-3.6-8.1-8.1-8.1s-8.1,3.6-8.1,8.1    C41.9,63.4,41.9,75.9,41.9,75.9z"></path></g><g><path d="M50,43.5c-5.2,0-9.4-4.2-9.4-9.4s4.2-9.4,9.4-9.4s9.4,4.2,9.4,9.4S55.2,43.5,50,43.5z M50,30.6c-2,0-3.5,1.6-3.5,3.5    c0,2,1.6,3.5,3.5,3.5s3.5-1.6,3.5-3.5C53.5,32.2,52,30.6,50,30.6z"></path></g><g><g><path d="M97,81.7H69V63.4c0-7.7,6.3-14,14-14s14,6.3,14,14V81.7z M74.9,75.9h16.3V63.4c0-4.5-3.6-8.1-8.1-8.1     c-4.5,0-8.1,3.6-8.1,8.1C74.9,63.4,74.9,75.9,74.9,75.9z"></path></g></g><g><rect x="69.2" y="87.9" width="5.7" height="5.7"></rect></g><g><rect x="80.2" y="87.8" width="5.7" height="5.7"></rect></g><g><rect x="91.3" y="87.8" width="5.7" height="5.7"></rect></g><g><polygon points="82.6,44.8 75.7,37.3 80.1,33.3 83.5,37.1 90.7,32.2 94.1,37   "></polygon></g></g></svg>