<svg height='100px' width='100px'  fill="#000000" xmlns="http://www.w3.org/2000/svg" viewBox="0 0 20 28" x="0px" y="0px"><path fill="#000000" d="M93,1647 L99,1647 C99.8191004,1647 100.290791,1647.93084 99.806405,1648.59136 L88.806405,1663.59136 C88.2348704,1664.37073 87,1663.96647 87,1663 L87,1655 L81,1655 C80.2074962,1655 79.7299012,1654.12211 80.1604298,1653.45675 L91.1604298,1636.45675 C91.7017831,1635.62011 93,1636.00349 93,1637 L93,1647 Z M89,1659.94536 L97.026595,1649 L92,1649 C91.4477153,1649 91,1648.55228 91,1648 L91,1640.38622 L82.8381445,1653 L88,1653 C88.5522847,1653 89,1653.44772 89,1654 L89,1659.94536 Z" transform="translate(-80 -1636)"></path></svg>