<svg height='100px' width='100px'  fill="#000000" xmlns="http://www.w3.org/2000/svg" xmlns:xlink="http://www.w3.org/1999/xlink" version="1.1" x="0px" y="0px" viewBox="0 285.5 282.5 270.5" enable-background="new 0 285.5 282.5 270.5" xml:space="preserve"><circle cx="61.973" cy="355.254" r="41.719"></circle><path d="M219.972,455.99c-4.961-7.645-15.18-9.82-22.823-4.857c-20.24,13.136-35.449,18.684-45.217,16.49  c-7.621-1.713-13.758-8.331-23.139-18.988c-10.58-12.018-23.748-26.975-45.117-35.065c-1.551-0.587-3.134-0.919-4.707-1.028  c-17.362-5.18-38.622-6.564-52.23,7.045c-3.71,3.71-13.238,10.998-13.238,39.833v87.079h94.975l-3.282-74.73  c10.565,11.98,21.699,24.052,39.504,28.053c3.763,0.846,7.642,1.271,11.664,1.271c16.592,0,35.605-7.256,58.752-22.277  C222.758,473.854,224.933,463.635,219.972,455.99z"></path><path d="M189.948,353.585h40.201v-18.06c0-1.23-1.692-2.229-3.779-2.229h-32.641c-2.086,0-3.779,0.998-3.779,2.229v3.935h-34.857  v7.964h34.856L189.948,353.585L189.948,353.585z"></path><path d="M244.75,355.861h-69.402c-7.54,0-13.653,6.112-13.653,13.652v7.586c0,7.539,6.113,13.652,13.653,13.652h69.402  c7.54,0,13.653-6.113,13.653-13.652v-7.586C258.403,361.974,252.287,355.861,244.75,355.861z"></path></svg>