<svg height='100px' width='100px'  fill="#000000" xmlns:dc="http://purl.org/dc/elements/1.1/" xmlns:cc="http://creativecommons.org/ns#" xmlns:rdf="http://www.w3.org/1999/02/22-rdf-syntax-ns#" xmlns:svg="http://www.w3.org/2000/svg" xmlns="http://www.w3.org/2000/svg" xmlns:sodipodi="http://sodipodi.sourceforge.net/DTD/sodipodi-0.dtd" xmlns:inkscape="http://www.inkscape.org/namespaces/inkscape" viewBox="0 0 100 100" version="1.1" x="0px" y="0px"><g transform="translate(0,-952.36216)"><path style="color:#000000;font-style:normal;font-variant:normal;font-weight:normal;font-stretch:normal;font-size:medium;line-height:normal;font-family:sans-serif;text-indent:0;text-align:start;text-decoration:none;text-decoration-line:none;text-decoration-style:solid;text-decoration-color:#000000;letter-spacing:normal;word-spacing:normal;text-transform:none;direction:ltr;block-progression:tb;writing-mode:lr-tb;baseline-shift:baseline;text-anchor:start;white-space:normal;clip-rule:nonzero;display:inline;overflow:visible;visibility:visible;opacity:1;isolation:auto;mix-blend-mode:normal;color-interpolation:sRGB;color-interpolation-filters:linearRGB;solid-color:#000000;solid-opacity:1;fill:#000000;fill-opacity:1;fill-rule:evenodd;stroke:none;stroke-width:8;stroke-linecap:round;stroke-linejoin:round;stroke-miterlimit:4;stroke-dasharray:none;stroke-dashoffset:0;stroke-opacity:1;color-rendering:auto;image-rendering:auto;shape-rendering:auto;text-rendering:auto;enable-background:accumulate" d="m 59.62115,959.13614 -15.51775,0.4432 a 0.77401863,0.77401863 0 0 0 -0.3095,0.074 l -4.16976,1.9749 -5.27587,1.7587 a 0.77401863,0.77401863 0 0 0 -0.4191,0.336 l -3.99025,6.6507 a 0.77401863,0.77401863 0 0 0 -0.0597,0.1232 l -4.20415,11.0634 -6.60344,14.7472 -9.21776,11.85166 -4.6138,4.3939 a 0.77401863,0.77401863 0 0 0 0.41834,1.3257 l 42.22741,6.3782 5.66323,8.3898 0,7.5221 a 0.77401863,0.77401863 0 0 0 0.16023,0.472 l 6.65068,8.6456 a 0.77401863,0.77401863 0 0 0 0.63411,0.3019 l 33.25265,-0.8869 a 0.77401863,0.77401863 0 0 0 0.59519,-1.2425 l -3.38864,-4.4475 0,-4.6161 a 0.77401863,0.77401863 0 0 0 -0.1795,-0.4954 l -3.20611,-3.8474 -1.06757,-4.6962 a 0.77401863,0.77401863 0 0 0 -0.35636,-0.492 l -3.10937,-1.8657 -2.98051,-7.0252 -3.26808,-13.5081 0.40435,-1.82 a 0.77401863,0.77401863 0 0 0 -0.95911,-0.91446 l -1.98625,0.54186 -2.5633,-2.76016 a 0.77401863,0.77401863 0 0 0 -1.08118,-0.052 l -3.79564,3.37386 -1.73116,0.1334 0.1625,-2.43366 a 0.77401863,0.77401863 0 0 0 -0.8945,-0.8159 l -4.52385,0.7241 0.0582,-0.4656 4.43656,-4.0141 6.86683,-5.9806 a 0.77401863,0.77401863 0 0 0 0.19614,-0.2634 l 0.82042,-1.8045 1.26597,0.4221 3.83267,2.1295 1.69677,1.6968 a 0.77401863,0.77401863 0 0 0 0.54721,0.2263 l 0.44327,0 a 0.77401863,0.77401863 0 0 0 0.75694,-0.936 l -1.33021,-6.2071 a 0.77401863,0.77401863 0 0 0 -0.17195,-0.3446 l -2.82934,-3.2647 -4.32243,-7.7806 -0.86766,-6.7251 a 0.77401863,0.77401863 0 0 0 -0.43837,-0.6013 l -11.30566,-5.3204 a 0.77401863,0.77401863 0 0 0 -0.35183,-0.073 z m -0.1402,1.5524 10.75506,5.0612 0.83252,6.4515 a 0.77401863,0.77401863 0 0 0 0.0911,0.277 l 4.43354,7.9805 a 0.77401863,0.77401863 0 0 0 0.0918,0.1312 l 2.75149,3.1751 0.86048,4.0144 -0.48484,-0.4848 a 0.77401863,0.77401863 0 0 0 -0.17119,-0.1293 l -3.99064,-2.2167 a 0.77401863,0.77401863 0 0 0 -0.13113,-0.058 l -1.99494,-0.6651 a 0.77401863,0.77401863 0 0 0 -0.94929,0.4141 l -1.03885,2.2856 -6.74553,5.8752 a 0.77401863,0.77401863 0 0 0 -0.0109,0.01 l -4.65536,4.212 a 0.77401863,0.77401863 0 0 0 -0.24904,0.4781 l -0.22145,1.7735 a 0.77401863,0.77401863 0 0 0 0.89034,0.86006 l 4.5828,-0.73316 -0.15683,2.35586 a 0.77401863,0.77401863 0 0 0 0.83139,0.8234 l 2.88187,-0.2218 a 0.77401863,0.77401863 0 0 0 0.45499,-0.1931 l 3.42416,-3.04396 2.3668,2.54856 a 0.77401863,0.77401863 0 0 0 0.77054,0.2203 l 1.20134,-0.3277 -0.16514,0.743 a 0.77401863,0.77401863 0 0 0 0.003,0.3499 l 3.32553,13.7447 a 0.77401863,0.77401863 0 0 0 0.0397,0.1201 l 3.1037,7.3155 a 0.77401863,0.77401863 0 0 0 0.31404,0.3616 l 3.0421,1.8253 1.03507,4.5548 a 0.77401863,0.77401863 0 0 0 0.16023,0.3239 l 3.14602,3.7752 0,4.5968 a 0.77401863,0.77401863 0 0 0 0.15834,0.469 l 2.63095,3.4532 -31.34802,0.8355 -6.24973,-8.1244 0,-7.4961 a 0.77401863,0.77401863 0 0 0 -0.13264,-0.4327 l -5.98557,-8.8674 a 0.77401863,0.77401863 0 0 0 -0.52566,-0.3326 l -41.00113,-6.1926 3.51108,-3.3441 a 0.77401863,0.77401863 0 0 0 0.0771,-0.085 l 9.31073,-11.97076 a 0.77401863,0.77401863 0 0 0 0.0956,-0.1591 l 6.65067,-14.8526 a 0.77401863,0.77401863 0 0 0 0.017,-0.042 l 4.18752,-11.0199 3.80773,-6.3461 5.04876,-1.6828 a 0.77401863,0.77401863 0 0 0 0.0865,-0.035 l 4.06508,-1.9258 15.17121,-0.4334 z"></path><path style="color:#000000;font-style:normal;font-variant:normal;font-weight:normal;font-stretch:normal;font-size:medium;line-height:normal;font-family:sans-serif;text-indent:0;text-align:start;text-decoration:none;text-decoration-line:none;text-decoration-style:solid;text-decoration-color:#000000;letter-spacing:normal;word-spacing:normal;text-transform:none;direction:ltr;block-progression:tb;writing-mode:lr-tb;baseline-shift:baseline;text-anchor:start;white-space:normal;clip-rule:nonzero;display:inline;overflow:visible;visibility:visible;opacity:1;isolation:auto;mix-blend-mode:normal;color-interpolation:sRGB;color-interpolation-filters:linearRGB;solid-color:#000000;solid-opacity:1;fill:#000000;fill-opacity:1;fill-rule:evenodd;stroke:none;stroke-width:8;stroke-linecap:round;stroke-linejoin:round;stroke-miterlimit:4;stroke-dasharray:none;stroke-dashoffset:0;stroke-opacity:1;color-rendering:auto;image-rendering:auto;shape-rendering:auto;text-rendering:auto;enable-background:accumulate" d="m 82.91875,963.65764 a 0.77401863,0.77401863 0 0 0 -0.0578,0 l -3.1037,0.3326 a 0.77401863,0.77401863 0 0 0 -0.60502,1.125 l 1.66276,3.2144 a 0.77401863,0.77401863 0 0 0 0.65377,0.4176 l 0.63147,0.028 -0.44479,0.3922 a 0.77401863,0.77401863 0 0 0 -0.23241,0.3677 l -0.18706,0.6553 -1.38274,-0.6912 a 0.77401863,0.77401863 0 0 0 -1.11821,0.7437 l 0.10733,1.6125 -0.0744,1.1923 -1.26521,0.3953 a 0.77401863,0.77401863 0 0 0 -0.41796,1.1605 l 1.37934,2.1219 0.52226,1.7758 a 0.77401863,0.77401863 0 0 0 0.16703,0.2993 l 0.88996,0.9886 0.72481,2.1744 a 0.77401863,0.77401863 0 0 0 0.0503,0.1176 l 1.99494,3.7684 a 0.77401863,0.77401863 0 0 0 0.5695,0.4036 l 2.21677,0.3322 a 0.77401863,0.77401863 0 0 0 0.63525,-0.1924 l 3.6577,-3.3255 a 0.77401863,0.77401863 0 0 0 0.212,-0.3224 l 1.55167,-4.5446 a 0.77401863,0.77401863 0 0 0 -0.0355,-0.5865 l -3.10332,-6.4289 a 0.77401863,0.77401863 0 0 0 -0.0593,-0.102 l -4.87719,-7.094 a 0.77401863,0.77401863 0 0 0 -0.66208,-0.3352 z m -0.35183,1.5925 1.41713,2.0611 -2.00023,-0.087 -0.93719,-1.8116 1.52029,-0.1629 z m 2.18238,3.174 2.39967,3.4907 2.93969,6.0899 -1.38463,4.0552 -3.23861,2.9442 -1.46663,-0.2203 -1.78256,-3.3667 -0.7558,-2.2667 a 0.77401863,0.77401863 0 0 0 -0.15872,-0.2732 l -0.88013,-0.9776 -0.5045,-1.7157 a 0.77401863,0.77401863 0 0 0 -0.0937,-0.2033 l -0.88467,-1.3608 0.79926,-0.2498 a 0.77401863,0.77401863 0 0 0 0.54154,-0.6904 l 0.11072,-1.7735 a 0.77401863,0.77401863 0 0 0 0,-0.1 l -0.0208,-0.3148 1.00824,0.5041 a 0.77401863,0.77401863 0 0 0 1.09062,-0.4795 l 0.38092,-1.334 1.71454,-1.5127 a 0.77401863,0.77401863 0 0 0 0.18555,-0.2453 z"></path><path style="color:#000000;font-style:normal;font-variant:normal;font-weight:normal;font-stretch:normal;font-size:medium;line-height:normal;font-family:sans-serif;text-indent:0;text-align:start;text-decoration:none;text-decoration-line:none;text-decoration-style:solid;text-decoration-color:#000000;letter-spacing:normal;word-spacing:normal;text-transform:none;direction:ltr;block-progression:tb;writing-mode:lr-tb;baseline-shift:baseline;text-anchor:start;white-space:normal;clip-rule:nonzero;display:inline;overflow:visible;visibility:visible;opacity:1;isolation:auto;mix-blend-mode:normal;color-interpolation:sRGB;color-interpolation-filters:linearRGB;solid-color:#000000;solid-opacity:1;fill:#000000;fill-opacity:1;fill-rule:evenodd;stroke:none;stroke-width:8;stroke-linecap:round;stroke-linejoin:round;stroke-miterlimit:4;stroke-dasharray:none;stroke-dashoffset:0;stroke-opacity:1;color-rendering:auto;image-rendering:auto;shape-rendering:auto;text-rendering:auto;enable-background:accumulate" d="m 87.3587,993.35914 a 0.77401863,0.77401863 0 0 0 -0.33897,0.069 l -1.72436,0.7838 a 0.77401863,0.77401863 0 0 0 -0.0419,1.3884 l 2.61432,1.3839 2.93213,2.1608 a 0.77401863,0.77401863 0 0 0 1.17754,-0.336 l 0.62694,-1.5675 a 0.77401863,0.77401863 0 0 0 -0.11791,-0.7755 l -2.03764,-2.5081 a 0.77401863,0.77401863 0 0 0 -0.50487,-0.2796 l -2.50813,-0.3137 a 0.77401863,0.77401863 0 0 0 -0.0771,-0.01 z m 0.10242,1.5687 1.98246,0.2479 1.55469,1.9137 -0.0862,0.2158 -2.17255,-1.6008 a 0.77401863,0.77401863 0 0 0 -0.0971,-0.061 l -1.27278,-0.6742 0.0915,-0.042 z"></path></g></svg>