<svg height='100px' width='100px'  fill="#000000" xmlns="http://www.w3.org/2000/svg" xmlns:xlink="http://www.w3.org/1999/xlink" version="1.1" x="0px" y="0px" viewBox="0 0 100 100" style="enable-background:new 0 0 100 100;" xml:space="preserve"><style type="text/css">
	.st0{fill:none;stroke:#000000;stroke-width:2;stroke-linecap:round;stroke-linejoin:round;stroke-miterlimit:10;}
	.st1{fill:none;stroke:#000000;stroke-width:1.8;stroke-linecap:round;stroke-linejoin:round;stroke-miterlimit:10;}
	.st2{fill:none;stroke:#000000;stroke-width:2;stroke-linecap:round;stroke-linejoin:round;}
	.st3{fill:none;stroke:#000000;stroke-width:2;stroke-linecap:round;stroke-linejoin:round;stroke-dasharray:2.9177,3.8902;}
	.st4{fill:none;stroke:#000000;stroke-width:2;stroke-miterlimit:10;}
</style><path d="M36.713,49.561l12.344-6.748c0.321-0.176,0.521-0.513,0.521-0.878V20.248c0-0.553-0.448-1-1-1H21.025c-0.552,0-1,0.447-1,1  v21.688c0,0.365,0.2,0.702,0.521,0.878l12.344,6.748c-7.704,0.947-13.693,7.519-13.693,15.475c0,8.604,7,15.604,15.604,15.604  s15.604-7,15.604-15.604C50.406,57.08,44.417,50.508,36.713,49.561z M28.928,21.248h11.925v23.771l-6.051,3.308l-5.882-3.215  c0.001-0.013,0.008-0.025,0.008-0.038V21.248z M47.578,41.343l-4.725,2.583V21.248h4.725V41.343z M22.025,21.248h4.902v22.774  l-4.902-2.68V21.248z M34.802,78.641c-7.501,0-13.604-6.103-13.604-13.604S27.3,51.432,34.802,51.432s13.604,6.103,13.604,13.604  S42.303,78.641,34.802,78.641z"></path><path d="M66.697,38.698h16.379c0.552,0,1-0.447,1-1s-0.448-1-1-1H66.697c-0.552,0-1,0.447-1,1S66.145,38.698,66.697,38.698z"></path><path d="M66.697,45.088h16.379c0.552,0,1-0.447,1-1s-0.448-1-1-1H66.697c-0.552,0-1,0.447-1,1S66.145,45.088,66.697,45.088z"></path><path d="M66.697,51.477h16.379c0.552,0,1-0.447,1-1s-0.448-1-1-1H66.697c-0.552,0-1,0.447-1,1S66.145,51.477,66.697,51.477z"></path><path d="M83.076,55.865H66.697c-0.552,0-1,0.447-1,1s0.448,1,1,1h16.379c0.552,0,1-0.447,1-1S83.628,55.865,83.076,55.865z"></path><path d="M89.125,10h-78c-0.552,0-1,0.447-1,1v78c0,0.553,0.448,1,1,1h78c0.552,0,1-0.447,1-1V11C90.125,10.447,89.677,10,89.125,10z   M12.125,12H58.5v76H12.125V12z M88.125,88H60.5V12h27.625V88z"></path><path d="M66.697,30.021h16.379c0.552,0,1-0.447,1-1v-8.773c0-0.553-0.448-1-1-1H66.697c-0.552,0-1,0.447-1,1v8.773  C65.697,29.574,66.145,30.021,66.697,30.021z M67.697,21.248h14.379v6.773H67.697V21.248z"></path><path d="M42.374,61.805l-4.613-0.671l-2.062-4.18c-0.337-0.684-1.457-0.684-1.794,0l-2.062,4.18l-4.613,0.671  c-0.376,0.055-0.689,0.318-0.807,0.681c-0.118,0.361-0.02,0.759,0.253,1.024l3.337,3.254l-0.788,4.593  c-0.064,0.375,0.09,0.754,0.398,0.978c0.308,0.225,0.716,0.254,1.053,0.076l4.125-2.168l4.125,2.168  c0.146,0.077,0.306,0.115,0.465,0.115c0.207,0,0.414-0.064,0.588-0.191c0.308-0.224,0.462-0.603,0.398-0.978l-0.788-4.593  l3.337-3.254c0.273-0.266,0.371-0.663,0.253-1.024C43.063,62.123,42.75,61.859,42.374,61.805z M37.818,65.698  c-0.236,0.229-0.344,0.561-0.288,0.885l0.535,3.114l-2.797-1.47c-0.146-0.077-0.306-0.115-0.465-0.115s-0.32,0.038-0.465,0.115  l-2.797,1.47l0.535-3.114c0.056-0.324-0.052-0.655-0.288-0.885l-2.263-2.206l3.128-0.455c0.326-0.047,0.607-0.252,0.753-0.547  l1.398-2.834L36.2,62.49c0.146,0.295,0.427,0.5,0.753,0.547l3.128,0.455L37.818,65.698z"></path></svg>