<svg height='100px' width='100px'  fill="#000000" xmlns="http://www.w3.org/2000/svg" xmlns:xlink="http://www.w3.org/1999/xlink" version="1.1" x="0px" y="0px" viewBox="0 0 100 100" enable-background="new 0 0 100 100" xml:space="preserve"><g><path fill="#000000" d="M30.875,60.562v-3.93c0-0.042,0.034-0.075,0.075-0.075s0.075,0.034,0.075,0.075v3.93   c0,0.042-0.034,0.075-0.075,0.075S30.875,60.604,30.875,60.562z M32.355,60.638c0.042,0,0.075-0.034,0.075-0.075v-3.93   c0-0.042-0.034-0.075-0.075-0.075s-0.075,0.034-0.075,0.075v3.93C32.28,60.604,32.313,60.638,32.355,60.638z M33.759,60.638   c0.042,0,0.075-0.034,0.075-0.075v-3.93c0-0.042-0.034-0.075-0.075-0.075c-0.042,0-0.076,0.034-0.076,0.075v3.93   C33.683,60.604,33.717,60.638,33.759,60.638z M26.738,60.638c0.042,0,0.075-0.034,0.075-0.075v-3.93   c0-0.042-0.034-0.075-0.075-0.075c-0.042,0-0.075,0.034-0.075,0.075v3.93C26.663,60.604,26.697,60.638,26.738,60.638z    M25.335,60.638c0.042,0,0.075-0.034,0.075-0.075v-3.93c0-0.042-0.034-0.075-0.075-0.075c-0.042,0-0.075,0.034-0.075,0.075v3.93   C25.259,60.604,25.293,60.638,25.335,60.638z M23.93,60.638c0.042,0,0.075-0.034,0.075-0.075v-3.93   c0-0.042-0.034-0.075-0.075-0.075c-0.042,0-0.075,0.034-0.075,0.075v3.93C23.855,60.604,23.889,60.638,23.93,60.638z    M25.335,69.897c0.042,0,0.075-0.034,0.075-0.076V63.37c0-0.042-0.034-0.075-0.075-0.075c-0.042,0-0.075,0.034-0.075,0.075v6.451   C25.259,69.863,25.293,69.897,25.335,69.897z M23.93,69.897c0.042,0,0.075-0.034,0.075-0.076V63.37   c0-0.042-0.034-0.075-0.075-0.075c-0.042,0-0.075,0.034-0.075,0.075v6.451C23.855,69.863,23.889,69.897,23.93,69.897z    M22.526,69.897c0.042,0,0.075-0.034,0.075-0.076V63.37c0-0.042-0.034-0.075-0.075-0.075c-0.042,0-0.075,0.034-0.075,0.075v6.451   C22.451,69.863,22.485,69.897,22.526,69.897z M32.355,63.295c-0.042,0-0.075,0.034-0.075,0.075v6.451   c0,0.042,0.034,0.076,0.075,0.076s0.075-0.034,0.075-0.076V63.37C32.431,63.329,32.397,63.295,32.355,63.295z M33.759,63.295   c-0.042,0-0.076,0.034-0.076,0.075v6.451c0,0.042,0.034,0.076,0.076,0.076c0.042,0,0.075-0.034,0.075-0.076V63.37   C33.834,63.329,33.801,63.295,33.759,63.295z M35.163,69.897c0.042,0,0.075-0.034,0.075-0.076V63.37   c0-0.042-0.034-0.075-0.075-0.075c-0.042,0-0.076,0.034-0.076,0.075v6.451C35.088,69.863,35.122,69.897,35.163,69.897z    M63.225,82.202H68c0.042,0,0.076-0.034,0.076-0.075c0-0.042-0.034-0.076-0.076-0.076h-4.775c-0.042,0-0.076,0.034-0.076,0.076   C63.15,82.168,63.184,82.202,63.225,82.202z M72.083,82.202h4.775c0.042,0,0.076-0.034,0.076-0.075   c0-0.042-0.034-0.076-0.076-0.076h-4.775c-0.042,0-0.076,0.034-0.076,0.076C72.008,82.168,72.041,82.202,72.083,82.202z    M69.249,80.953h1.586c0.042,0,0.075-0.034,0.075-0.076c0-0.042-0.034-0.075-0.075-0.075h-1.586c-0.042,0-0.076,0.034-0.076,0.075   C69.173,80.919,69.207,80.953,69.249,80.953z M69.249,79.705h1.586c0.042,0,0.075-0.034,0.075-0.076s-0.034-0.076-0.075-0.076   h-1.586c-0.042,0-0.076,0.034-0.076,0.076S69.207,79.705,69.249,79.705z M66.415,80.953H68c0.042,0,0.076-0.034,0.076-0.076   c0-0.042-0.034-0.075-0.076-0.075h-1.586c-0.042,0-0.076,0.034-0.076,0.075C66.339,80.919,66.373,80.953,66.415,80.953z    M66.415,79.705H68c0.042,0,0.076-0.034,0.076-0.076S68.042,79.554,68,79.554h-1.586c-0.042,0-0.076,0.034-0.076,0.076   S66.373,79.705,66.415,79.705z M72.083,80.953h1.586c0.042,0,0.075-0.034,0.075-0.076c0-0.042-0.034-0.075-0.075-0.075h-1.586   c-0.042,0-0.076,0.034-0.076,0.075C72.008,80.919,72.041,80.953,72.083,80.953z M72.083,79.705h1.586   c0.042,0,0.075-0.034,0.075-0.076s-0.034-0.076-0.075-0.076h-1.586c-0.042,0-0.076,0.034-0.076,0.076S72.041,79.705,72.083,79.705z    M69.249,82.202h1.586c0.042,0,0.075-0.034,0.075-0.075c0-0.042-0.034-0.076-0.075-0.076h-1.586c-0.042,0-0.076,0.034-0.076,0.076   C69.173,82.168,69.207,82.202,69.249,82.202z M69.249,78.457h1.586c0.042,0,0.075-0.034,0.075-0.076s-0.034-0.075-0.075-0.075   h-1.586c-0.042,0-0.076,0.034-0.076,0.075S69.207,78.457,69.249,78.457z M66.415,78.457H68c0.042,0,0.076-0.034,0.076-0.076   S68.042,78.306,68,78.306h-1.586c-0.042,0-0.076,0.034-0.076,0.075S66.373,78.457,66.415,78.457z M72.083,78.457h1.586   c0.042,0,0.075-0.034,0.075-0.076s-0.034-0.075-0.075-0.075h-1.586c-0.042,0-0.076,0.034-0.076,0.075S72.041,78.457,72.083,78.457z    M69.249,77.208h1.586c0.042,0,0.075-0.034,0.075-0.076s-0.034-0.076-0.075-0.076h-1.586c-0.042,0-0.076,0.034-0.076,0.076   S69.207,77.208,69.249,77.208z M66.415,77.208H68c0.042,0,0.076-0.034,0.076-0.076S68.042,77.057,68,77.057h-1.586   c-0.042,0-0.076,0.034-0.076,0.076S66.373,77.208,66.415,77.208z M72.083,77.208h1.586c0.042,0,0.075-0.034,0.075-0.076   s-0.034-0.076-0.075-0.076h-1.586c-0.042,0-0.076,0.034-0.076,0.076S72.041,77.208,72.083,77.208z M63.225,83.45H68   c0.042,0,0.076-0.034,0.076-0.075c0-0.042-0.034-0.076-0.076-0.076h-4.775c-0.042,0-0.076,0.034-0.076,0.076   C63.15,83.416,63.184,83.45,63.225,83.45z M72.083,83.45h4.775c0.042,0,0.076-0.034,0.076-0.075c0-0.042-0.034-0.076-0.076-0.076   h-4.775c-0.042,0-0.076,0.034-0.076,0.076C72.008,83.416,72.041,83.45,72.083,83.45z M69.249,83.45h1.586   c0.042,0,0.075-0.034,0.075-0.075c0-0.042-0.034-0.076-0.075-0.076h-1.586c-0.042,0-0.076,0.034-0.076,0.076   C69.173,83.416,69.207,83.45,69.249,83.45z M63.225,84.699H68c0.042,0,0.076-0.034,0.076-0.076S68.042,84.548,68,84.548h-4.775   c-0.042,0-0.076,0.034-0.076,0.076S63.184,84.699,63.225,84.699z M69.249,84.699h1.586c0.042,0,0.075-0.034,0.075-0.076   s-0.034-0.076-0.075-0.076h-1.586c-0.042,0-0.076,0.034-0.076,0.076S69.207,84.699,69.249,84.699z M63.225,85.947H68   c0.042,0,0.076-0.034,0.076-0.076S68.042,85.796,68,85.796h-4.775c-0.042,0-0.076,0.034-0.076,0.076S63.184,85.947,63.225,85.947z    M69.249,85.947h1.586c0.042,0,0.075-0.034,0.075-0.076s-0.034-0.076-0.075-0.076h-1.586c-0.042,0-0.076,0.034-0.076,0.076   S69.207,85.947,69.249,85.947z M63.225,87.196H68c0.042,0,0.076-0.034,0.076-0.076c0-0.042-0.034-0.075-0.076-0.075h-4.775   c-0.042,0-0.076,0.034-0.076,0.075C63.15,87.162,63.184,87.196,63.225,87.196z M69.249,87.196h1.586   c0.042,0,0.075-0.034,0.075-0.076c0-0.042-0.034-0.075-0.075-0.075h-1.586c-0.042,0-0.076,0.034-0.076,0.075   C69.173,87.162,69.207,87.196,69.249,87.196z M63.225,88.444H68c0.042,0,0.076-0.034,0.076-0.075c0-0.042-0.034-0.076-0.076-0.076   h-4.775c-0.042,0-0.076,0.034-0.076,0.076C63.15,88.41,63.184,88.444,63.225,88.444z M70.835,68.497h-1.586   c-0.042,0-0.076,0.034-0.076,0.076c0,0.042,0.034,0.075,0.076,0.075h1.586c0.042,0,0.075-0.034,0.075-0.075   C70.91,68.531,70.876,68.497,70.835,68.497z M70.835,67.249h-1.586c-0.042,0-0.076,0.034-0.076,0.075   c0,0.042,0.034,0.076,0.076,0.076h1.586c0.042,0,0.075-0.034,0.075-0.076C70.91,67.283,70.876,67.249,70.835,67.249z    M70.835,69.746h-1.586c-0.042,0-0.076,0.034-0.076,0.076s0.034,0.076,0.076,0.076h1.586c0.042,0,0.075-0.034,0.075-0.076   S70.876,69.746,70.835,69.746z M70.835,66h-1.586c-0.042,0-0.076,0.034-0.076,0.075c0,0.042,0.034,0.076,0.076,0.076h1.586   c0.042,0,0.075-0.034,0.075-0.076C70.91,66.034,70.876,66,70.835,66z M70.835,70.994h-1.586c-0.042,0-0.076,0.034-0.076,0.076   c0,0.042,0.034,0.075,0.076,0.075h1.586c0.042,0,0.075-0.034,0.075-0.075C70.91,71.028,70.876,70.994,70.835,70.994z    M70.835,72.242h-1.586c-0.042,0-0.076,0.034-0.076,0.076s0.034,0.076,0.076,0.076h1.586c0.042,0,0.075-0.034,0.075-0.076   S70.876,72.242,70.835,72.242z M70.835,73.491h-1.586c-0.042,0-0.076,0.034-0.076,0.075c0,0.042,0.034,0.076,0.076,0.076h1.586   c0.042,0,0.075-0.034,0.075-0.076C70.91,73.525,70.876,73.491,70.835,73.491z M44.479,56.133c0.042,0,0.075-0.034,0.075-0.075   v-8.323c0-0.042-0.034-0.075-0.075-0.075c-0.042,0-0.076,0.034-0.076,0.075v8.323C44.403,56.099,44.437,56.133,44.479,56.133z    M46.428,56.133c0.042,0,0.075-0.034,0.075-0.075v-8.323c0-0.042-0.034-0.075-0.075-0.075c-0.042,0-0.076,0.034-0.076,0.075v8.323   C46.353,56.099,46.387,56.133,46.428,56.133z M55.521,47.659c-0.042,0-0.075,0.034-0.075,0.075v8.323   c0,0.042,0.034,0.075,0.075,0.075c0.042,0,0.076-0.034,0.076-0.075v-8.323C55.597,47.693,55.563,47.659,55.521,47.659z    M53.572,47.659c-0.042,0-0.075,0.034-0.075,0.075v8.323c0,0.042,0.034,0.075,0.075,0.075c0.042,0,0.076-0.034,0.076-0.075v-8.323   C53.647,47.693,53.613,47.659,53.572,47.659z M95,50c0,24.813-20.187,45-45,45S5,74.813,5,50S25.187,5,50,5S95,25.187,95,50z    M29.818,41.875V40.5l-0.565-0.881h-0.816L27.871,40.5v1.375H29.818z M28.129,46.508c-0.074,1.612-0.186,3.342-0.506,5.078   c-0.081,0.439-0.179,0.876-0.275,1.312h2.993c-0.096-0.437-0.194-0.873-0.275-1.312c-0.322-1.745-0.436-3.546-0.506-5.078   c-0.066-1.427-0.101-2.851-0.128-4.105h-1.175C28.23,43.657,28.195,45.081,28.129,46.508z M24.766,53.427v1.538h8.157v-1.538   H24.766z M22.886,55.493v6.21h3.853c0.146,0,0.264,0.118,0.264,0.264v24.923c0.351,0.22,0.707,0.433,1.065,0.643v-30.9   c0-0.042,0.034-0.075,0.075-0.075c0.042,0,0.075,0.034,0.075,0.075v30.987c0.415,0.241,0.83,0.482,1.253,0.71V56.633   c0-0.042,0.034-0.075,0.075-0.075s0.075,0.034,0.075,0.075v31.774c0.352,0.187,0.707,0.368,1.064,0.546V61.966   c0-0.146,0.118-0.264,0.264-0.264h3.853v-6.21H22.886z M37.02,71.489h-5.806V89.22c0.351,0.169,0.709,0.323,1.065,0.482V72.629   c0-0.042,0.034-0.076,0.075-0.076s0.075,0.034,0.075,0.076v17.141c0.415,0.184,0.832,0.362,1.253,0.533V72.629   c0-0.042,0.034-0.076,0.076-0.076c0.042,0,0.075,0.034,0.075,0.076v17.734c0.416,0.167,0.831,0.339,1.253,0.494V72.629   c0-0.042,0.034-0.076,0.076-0.076c0.042,0,0.075,0.034,0.075,0.076v18.279c0.589,0.213,1.182,0.416,1.782,0.604V71.489z    M36.112,62.23h-4.897v8.731h4.897V62.23z M21.386,62.23v8.731h5.088V62.23H21.386z M20.669,71.489V82.08   c0.58,0.531,1.174,1.046,1.782,1.545V72.629c0-0.042,0.034-0.076,0.075-0.076c0.042,0,0.075,0.034,0.075,0.076v11.115   c0.412,0.335,0.829,0.665,1.253,0.985v-12.1c0-0.042,0.034-0.076,0.075-0.076c0.042,0,0.075,0.034,0.075,0.076v12.218   c0.41,0.307,0.832,0.599,1.253,0.892v-13.11c0-0.042,0.034-0.076,0.075-0.076c0.042,0,0.075,0.034,0.075,0.076v13.218   c0.35,0.241,0.707,0.472,1.064,0.703V71.489H20.669z M50.264,34.075h1.917l-1.917-6.241V34.075z M49.736,27.834l-1.917,6.241h1.917   V27.834z M45.047,34.603v2.88h9.906v-2.88H45.047z M49.964,41.151l-0.134,1.514h0.341l-0.134-1.514H49.964z M50.023,41L50,40.738   L49.977,41H50.023z M57.207,85.944v-1.514h-2.806l0.134,1.514H57.207z M54.548,86.095l0.134,1.513h2.525v-1.513H54.548z    M57.207,84.28v-1.514h-2.954l0.134,1.514H57.207z M57.207,82.615v-1.514h-3.101l0.134,1.514H57.207z M57.207,80.951v-1.514h-3.249   l0.134,1.514H57.207z M57.207,79.286v-1.514h-3.396l0.134,1.514H57.207z M57.207,77.621v-1.514h-3.544l0.134,1.514H57.207z    M57.207,75.957v-1.513h-3.691l0.134,1.513H57.207z M57.207,74.292v-1.514h-3.838l0.134,1.514H57.207z M57.207,72.628v-1.514   h-3.986l0.134,1.514H57.207z M57.207,70.963V69.45h-4.133l0.134,1.514H57.207z M57.207,69.299v-1.514h-4.281l0.134,1.514H57.207z    M57.207,67.634V66.12h-4.428l0.134,1.514H57.207z M57.207,65.969v-1.514h-4.576l0.134,1.514H57.207z M57.207,64.305v-1.513h-4.723   l0.134,1.513H57.207z M57.207,62.64v-1.514h-4.871l0.134,1.514H57.207z M57.207,60.976v-1.514h-5.018l0.134,1.514H57.207z    M57.207,59.311v-1.514h-5.166l0.134,1.514H57.207z M57.207,57.646V46.145h-6.198l1.019,11.501H57.207z M57.207,45.994v-1.514   h-6.345l0.134,1.514H57.207z M57.207,44.33v-1.514h-6.493l0.134,1.514H57.207z M50.184,42.816h-0.368l-0.134,1.514h0.636   L50.184,42.816z M49.669,44.481l-0.134,1.514h0.931l-0.134-1.514H49.669z M49.521,46.145l-0.134,1.514h1.226l-0.134-1.514H49.521z    M49.24,49.324h1.521l-0.134-1.514h-1.253L49.24,49.324z M49.092,50.988h1.816l-0.134-1.514h-1.548L49.092,50.988z M48.945,52.653   h2.111l-0.134-1.513h-1.843L48.945,52.653z M48.797,54.317h2.406l-0.134-1.514h-2.138L48.797,54.317z M48.65,55.982h2.701   l-0.134-1.514h-2.433L48.65,55.982z M48.502,57.646h2.996l-0.134-1.514h-2.728L48.502,57.646z M48.489,57.797l-0.134,1.514h3.291   l-0.134-1.514H48.489z M48.341,59.462l-0.134,1.514h3.586l-0.134-1.514H48.341z M48.194,61.127L48.06,62.64h3.881l-0.134-1.514   H48.194z M48.047,62.791l-0.134,1.513h4.175l-0.134-1.513H48.047z M47.899,64.456l-0.134,1.514h4.47l-0.134-1.514H47.899z    M47.752,66.12l-0.134,1.514h4.765l-0.134-1.514H47.752z M47.604,67.785l-0.134,1.514h5.06l-0.134-1.514H47.604z M47.457,69.45   l-0.134,1.514h5.355l-0.134-1.514H47.457z M47.309,71.114l-0.134,1.514h5.65l-0.134-1.514H47.309z M47.162,72.779l-0.134,1.514   h5.945l-0.134-1.514H47.162z M47.014,74.443l-0.134,1.513h6.24l-0.134-1.513H47.014z M46.867,76.108l-0.134,1.514h6.535   l-0.134-1.514H46.867z M46.719,77.772l-0.134,1.514h6.83l-0.134-1.514H46.719z M46.572,79.437l-0.134,1.514h7.125l-0.134-1.514   H46.572z M46.424,81.102l-0.134,1.514h7.42l-0.134-1.514H46.424z M46.277,82.766l-0.134,1.514h7.715l-0.134-1.514H46.277z    M46.129,84.431l-0.134,1.514h8.01l-0.134-1.514H46.129z M45.982,86.095l-0.134,1.513h8.304l-0.134-1.513H45.982z M45.835,87.76   L45.7,89.273H54.3l-0.134-1.514H45.835z M54.83,89.273h2.377V87.76h-2.511L54.83,89.273z M57.207,41.151h-6.64l0.134,1.514h6.506   V41.151z M49.434,41.151h-6.641v1.514h6.507L49.434,41.151z M42.793,42.816v1.514h6.359l0.134-1.514H42.793z M42.793,44.481v1.514   h6.212l0.134-1.514H42.793z M42.793,46.145v11.501h5.179l1.019-11.501H42.793z M42.793,57.797v1.514h5.032l0.134-1.514H42.793z    M42.793,59.462v1.514h4.884l0.134-1.514H42.793z M42.793,61.127v1.514h4.737l0.134-1.514H42.793z M42.793,62.791v1.513h4.59   l0.134-1.513H42.793z M42.793,64.456v1.514h4.442l0.134-1.514H42.793z M42.793,66.12v1.514h4.295l0.134-1.514H42.793z    M42.793,67.785v1.514h4.147l0.134-1.514H42.793z M42.793,69.45v1.514h4l0.134-1.514H42.793z M42.793,71.114v1.514h3.852   l0.134-1.514H42.793z M42.793,72.779v1.514h3.705l0.134-1.514H42.793z M42.793,74.443v1.513h3.557l0.134-1.513H42.793z    M42.793,76.108v1.514h3.41l0.134-1.514H42.793z M42.793,77.772v1.514h3.262l0.134-1.514H42.793z M42.793,79.437v1.514h3.115   l0.134-1.514H42.793z M42.793,81.102v1.514h2.967l0.134-1.514H42.793z M42.793,82.766v1.514h2.82l0.134-1.514H42.793z    M42.793,84.431v1.514h2.672l0.134-1.514H42.793z M42.793,86.095v1.513h2.525l0.134-1.513H42.793z M42.793,87.76v1.514h2.378   l0.134-1.514H42.793z M42.793,89.424v1.514h2.23l0.134-1.514H42.793z M45.553,90.938h8.894l-0.134-1.514h-8.626L45.553,90.938z    M54.977,90.938h2.23v-1.514h-2.364L54.977,90.938z M57.207,39.487h-6.788L50.553,41h6.654V39.487z M49.581,39.487h-6.788V41h6.654   L49.581,39.487z M42.793,92.603h2.083l0.134-1.514h-2.217V92.603z M45.406,92.603h9.189l-0.134-1.514H45.54L45.406,92.603z    M55.125,92.603h2.082v-1.514h-2.216L55.125,92.603z M55.138,92.754l0.037,0.419c0.682-0.081,1.36-0.177,2.032-0.29v-0.13H55.138z    M57.207,38.011h-1.99h-4.928l0.117,1.325h6.801V38.011z M42.793,38.011v1.325h6.801l0.117-1.325h-4.929H42.793z M42.793,92.883   c0.672,0.113,1.35,0.208,2.032,0.29l0.037-0.419h-2.069V92.883z M50,93.491c1.571,0,3.122-0.088,4.651-0.252l-0.043-0.486h-9.216   l-0.043,0.486C46.878,93.403,48.429,93.491,50,93.491z M64.143,74.604c0.652,0.148,1.311,0.266,1.973,0.364v-8.892   c0.135-1.968,1.706-3.539,3.656-3.673c1.045-0.073,2.062,0.268,2.854,0.959c0.793,0.69,1.268,1.648,1.341,2.696l0.001,8.91   c0.662-0.098,1.321-0.216,1.974-0.364v-8.528c-0.132-3.242-2.894-5.782-6.138-5.65c-3.05,0.124-5.536,2.61-5.66,5.66L64.143,74.604   z M69.037,51.986c-0.075,0.348-0.105,0.693-0.124,1.021c0.339-0.111,0.693-0.189,1.069-0.195c0.414-0.004,0.811,0.072,1.188,0.195   c-0.018-0.328-0.048-0.673-0.123-1.022c-0.134-0.619-0.399-1.24-0.767-1.794c-0.076-0.115-0.156-0.226-0.239-0.336   c-0.082,0.109-0.162,0.221-0.238,0.336C69.436,50.746,69.171,51.367,69.037,51.986z M66.959,56.373v0.009   c0.757-0.688,1.734-1.136,2.824-1.197c1.227-0.063,2.409,0.344,3.326,1.163c0.005,0.005,0.01,0.01,0.015,0.015   c-0.015-0.817-0.348-1.583-0.938-2.154c-0.592-0.573-1.373-0.887-2.195-0.867C68.318,53.368,66.986,54.7,66.959,56.373z    M66.038,59.118c0.942-0.887,2.179-1.462,3.565-1.567c1.555-0.115,3.063,0.379,4.246,1.395c0.07,0.06,0.132,0.126,0.199,0.188   c-0.145-0.916-0.582-1.761-1.291-2.394c-0.812-0.726-1.858-1.093-2.945-1.029C67.889,55.82,66.345,57.256,66.038,59.118z    M64.786,62.643c1.122-1.592,2.94-2.661,4.995-2.744c2.26-0.092,4.296,1.004,5.514,2.729c-0.176-1.267-0.801-2.428-1.791-3.28   c-1.076-0.925-2.45-1.375-3.861-1.269c-1.505,0.113-2.819,0.833-3.71,1.919c-0.014,0.023-0.028,0.045-0.048,0.063   C65.308,60.785,64.92,61.669,64.786,62.643z M75.941,80.614v-3.458c-0.323,0.072-0.645,0.143-0.967,0.208v3.25H75.941z    M74.973,75.341v1.483c0.322-0.066,0.645-0.136,0.967-0.208v-1.473C75.62,75.214,75.297,75.281,74.973,75.341z M77.843,80.614   v-3.917c-0.456,0.12-0.914,0.238-1.374,0.345l0,3.572H77.843z M77.843,68.316c-0.044-0.854-0.594-1.588-1.374-1.886l0,10.068   c0.46-0.109,0.918-0.225,1.374-0.346V68.316z M73.439,75.044v-8.969c-0.062-0.889-0.474-1.719-1.16-2.316   c-0.686-0.597-1.564-0.891-2.471-0.83c-1.688,0.116-3.048,1.476-3.165,3.164l0.001,8.951   C68.897,75.332,71.186,75.332,73.439,75.044z M63.615,80.614v-3.571c-0.46-0.107-0.918-0.226-1.374-0.346v3.917H63.615z    M65.11,80.614v-3.249c-0.322-0.065-0.644-0.136-0.967-0.208l0,3.458H65.11z M65.11,75.341c-0.324-0.06-0.646-0.127-0.967-0.198   l0,1.473c0.323,0.073,0.645,0.143,0.967,0.208V75.341z M63.615,66.43c-0.781,0.298-1.33,1.032-1.374,1.886v7.837   c0.456,0.121,0.914,0.237,1.374,0.346V66.43z M62.241,91.726c0.817-0.24,1.627-0.499,2.423-0.785h-1.439   c-0.042,0-0.076-0.034-0.076-0.076s0.034-0.076,0.076-0.076h1.86c0.902-0.334,1.785-0.706,2.657-1.097h-4.517   c-0.042,0-0.076-0.034-0.076-0.075c0-0.042,0.034-0.076,0.076-0.076H68c0.015,0,0.027,0.008,0.039,0.016   c0.767-0.351,1.523-0.72,2.265-1.114h-1.056c-0.042,0-0.076-0.034-0.076-0.075c0-0.042,0.034-0.076,0.076-0.076h1.351   c0.649-0.351,1.29-0.715,1.919-1.097h-0.435c-0.042,0-0.076-0.034-0.076-0.076c0-0.042,0.034-0.075,0.076-0.075h0.672   c0.573-0.353,1.139-0.719,1.694-1.097h-2.366c-0.042,0-0.076-0.034-0.076-0.076s0.034-0.076,0.076-0.076h2.578   c0.515-0.356,1.024-0.72,1.523-1.097h-4.102c-0.042,0-0.076-0.034-0.076-0.076s0.034-0.076,0.076-0.076h4.294   c0.496-0.38,0.986-0.768,1.466-1.168v-2.238h-3.133c-0.146,0-0.264-0.118-0.264-0.264v-5.446c-0.21,0.034-0.422,0.062-0.633,0.092   c-0.034,0.015-0.07,0.025-0.11,0.025c-0.01,0-0.018-0.005-0.027-0.006c-1.204,0.162-2.418,0.252-3.634,0.252   c-1.216,0-2.43-0.091-3.634-0.252c-0.009,0.001-0.018,0.006-0.027,0.006c-0.039,0-0.076-0.01-0.11-0.025   c-0.211-0.029-0.422-0.057-0.632-0.092v5.446c0,0.146-0.118,0.264-0.264,0.264h-3.133V91.726z M93.491,50   c0-23.981-19.51-43.491-43.491-43.491C26.019,6.509,6.509,26.019,6.509,50c0,12.427,5.247,23.644,13.632,31.577V71.225   c0-0.146,0.118-0.264,0.264-0.264h0.453v-8.995c0-0.146,0.118-0.264,0.264-0.264h1.236v-6.474c0-0.146,0.118-0.264,0.264-0.264   h1.616v-1.802c0-0.146,0.118-0.264,0.264-0.264h2.306c0.104-0.468,0.209-0.937,0.295-1.408c0.314-1.704,0.425-3.413,0.498-5.006   c0.065-1.417,0.1-2.833,0.127-4.081h-0.122c-0.146,0-0.264-0.118-0.264-0.264v-1.716c0-0.05,0.015-0.1,0.042-0.143l0.685-1.068   c0.048-0.076,0.132-0.122,0.222-0.122h0.288V27.045c0-0.146,0.118-0.264,0.264-0.264s0.264,0.118,0.264,0.264v12.046h0.289   c0.09,0,0.174,0.046,0.222,0.122l0.685,1.068c0.027,0.042,0.042,0.092,0.042,0.143v1.716c0,0.146-0.118,0.264-0.264,0.264h-0.122   c0.027,1.248,0.062,2.664,0.127,4.081c0.069,1.514,0.182,3.293,0.498,5.006c0.087,0.471,0.191,0.94,0.295,1.408h2.306   c0.146,0,0.264,0.118,0.264,0.264v1.802h1.616c0.146,0,0.264,0.118,0.264,0.264v6.474h1.044c0.146,0,0.264,0.118,0.264,0.264v8.995   h0.644c0.146,0,0.264,0.118,0.264,0.264v20.44c1.538,0.46,3.112,0.834,4.716,1.123V37.747c0-0.146,0.118-0.264,0.264-0.264h1.99   v-3.144c0-0.146,0.118-0.264,0.264-0.264h2.484l2.469-8.038v-14.63c0-0.146,0.118-0.264,0.264-0.264s0.264,0.118,0.264,0.264v14.63   l2.469,8.038h2.483c0.146,0,0.264,0.118,0.264,0.264v3.144h1.99c0.146,0,0.264,0.118,0.264,0.264v55.042   c1.348-0.243,2.675-0.548,3.977-0.913V80.878V68.305c0-0.002,0.001-0.004,0.001-0.007c0-0.002-0.001-0.004-0.001-0.007   c0.057-1.139,0.838-2.101,1.92-2.417c0.058-0.799,0.26-1.559,0.586-2.253v-0.667c0.091-1.209,0.536-2.302,1.227-3.187v-0.233   c0.055-0.979,0.422-1.863,0.986-2.583v-0.584c0.023-1.377,0.805-2.543,1.942-3.135c0.015-0.416,0.045-0.884,0.148-1.359   c0.148-0.683,0.439-1.366,0.843-1.974c0.129-0.195,0.271-0.378,0.414-0.561V32.096c0-0.146,0.118-0.264,0.264-0.264   c0.146,0,0.264,0.118,0.264,0.264v17.243c0.143,0.183,0.286,0.367,0.415,0.561c0.404,0.609,0.695,1.291,0.843,1.974   c0.104,0.479,0.133,0.948,0.148,1.365c0.301,0.158,0.589,0.344,0.841,0.588c0.693,0.671,1.084,1.571,1.1,2.536v0.566   c0.585,0.737,0.931,1.632,0.985,2.591l0,0.25c0.71,0.902,1.138,1.994,1.226,3.165l0.001,0.66c0.329,0.698,0.529,1.468,0.586,2.28   c1.081,0.316,1.862,1.278,1.919,2.417c0,0.002-0.001,0.004-0.001,0.007c0,0.002,0.001,0.004,0.001,0.007v12.572v2.044   C87.62,74.94,93.491,63.147,93.491,50z"></path></g></svg>