<svg height='100px' width='100px'  fill="#000000" xmlns:dc="http://purl.org/dc/elements/1.1/" xmlns:cc="http://creativecommons.org/ns#" xmlns:rdf="http://www.w3.org/1999/02/22-rdf-syntax-ns#" xmlns:svg="http://www.w3.org/2000/svg" xmlns="http://www.w3.org/2000/svg" xmlns:sodipodi="http://sodipodi.sourceforge.net/DTD/sodipodi-0.dtd" xmlns:inkscape="http://www.inkscape.org/namespaces/inkscape" viewBox="0 0 12.7 12.7" version="1.1" x="0px" y="0px"><g transform="translate(0,-284.29998)"><path style="" d="m 6.233907,285.3304 -1.8777955,2.10703 -0.091977,0.52216 -1.6662374,0.56673 -0.8865516,2.00374 -0.072162,-0.0679 a 1.6211092,1.6211092 0 0 0 -0.99620682,-0.43442 0.1060376,0.1060376 0 0 0 -0.0148525,0.21155 v 0 a 1.4093154,1.4093154 0 0 1 0.86604782,0.37783 l 0.2561157,0.24056 a 1.6211092,1.6211092 0 0 0 1.0230863,0.43654 l 0.3672199,1.70728 1.7270966,0.78041 1.1440801,2.18769 2.7105519,-0.80942 2.0072665,-4.61453 a 1.4093154,1.4093154 0 0 1 0.08209,0.0715 l 0.256115,0.24056 a 1.6211092,1.6211092 0 0 0 0.996207,0.43442 0.10590564,0.10590564 0 0 0 0.01485,-0.21084 1.4093154,1.4093154 0 0 1 -0.865324,-0.37783 l -0.256804,-0.24127 a 1.6211092,1.6211092 0 0 0 -0.164175,-0.13514 l -0.231337,-1.45044 -0.7507056,-0.23702 -0.6806447,-2.57189 z m 0.1973939,0.26886 2.5259095,0.64314 0.6785074,2.56411 0.7379542,0.23207 0.181853,1.14762 a 1.6211091,1.6211091 0 0 0 -1.8155239,0.27593 l -0.2568402,0.24127 a 1.4093154,1.4093154 0 0 1 -1.9280406,0 L 6.2982801,290.46213 A 1.6211091,1.6211091 0 0 0 6.0351004,290.2619 l 1.0167105,-2.79617 z m -0.2044579,0.0566 0.6006946,1.80633 -0.9820788,2.70066 a 1.6211091,1.6211091 0 0 0 -1.7645901,0.29928 l -0.050245,0.0474 0.5242946,-2.97659 z m -2.0044405,2.54146 -0.4493074,2.55137 a 1.4093154,1.4093154 0 0 1 -1.877071,-0.0453 l -0.020649,-0.0198 0.878763,-1.98676 z m 1.0329759,2.03982 a 1.4093154,1.4093154 0 0 1 0.897854,0.37995 l 0.2568402,0.24056 a 1.6211091,1.6211091 0 0 0 1.6209553,0.35518 l -1.9718737,4.38812 -1.0372505,-1.9818 -1.696667,-0.76697 -0.3353775,-1.56152 a 1.6211091,1.6211091 0 0 0 0.9785286,-0.43301 l 0.2575286,-0.24056 a 1.4093154,1.4093154 0 0 1 1.029462,-0.37995 z m 4.6591324,0 a 1.4093154,1.4093154 0 0 1 0.6374632,0.18679 l -1.9839001,4.56146 -2.310113,0.69056 2.0638869,-4.5926 a 1.6211091,1.6211091 0 0 0 0.3063608,-0.2257 l 0.2561157,-0.24056 a 1.4093154,1.4093154 0 0 1 1.0301865,-0.37995 z" fill="#000000" stroke="none"></path></g></svg>