<svg height='100px' width='100px'  fill="#000000" xmlns="http://www.w3.org/2000/svg" xmlns:xlink="http://www.w3.org/1999/xlink" version="1.1" x="0px" y="0px" viewBox="0 0 100 100" enable-background="new 0 0 100 100" xml:space="preserve"><path fill="#000000" d="M97.3,29.3l-3.1-8l0.1,0c0.6-0.2,1-0.7,1.2-1.3c0.2-0.6,0.2-1.2-0.1-1.8l-4.7-9.1c-0.3-0.5-0.8-0.9-1.3-1.1  c-0.6-0.2-1.2-0.1-1.7,0.2l-0.2,0.1L86,5.5c-0.2-0.4-0.5-0.7-0.8-0.9l-5.5-3.3c-0.8-0.5-1.8-0.4-2.6,0.2l-3,2.4l-0.1-0.2  c-0.3-0.5-0.9-0.9-1.5-1l-6.6-1.2c-0.4-0.1-0.8,0-1.2,0.1l-9.6,4C54.6,5.7,54.3,6,54,6.5l-9.7,16.1c-0.2,0.3-0.3,0.7-0.3,1.1  c0,2.1-0.1,7.6-0.2,9.8l-3.2,3.8c-0.2,0-0.3-0.1-0.5-0.1c0,0,0,0,0,0l-5,0c-0.6,0-1.2,0.3-1.7,0.7l-2.7,3c-0.3-0.3-0.7-0.5-1.1-0.5  c-0.6-0.1-1.2,0-1.7,0.4l-7.4,5.4c-0.8,0.5-1.1,1.5-0.8,2.4l0.3,0.9L15,51.3c-0.6,0.2-1.1,0.7-1.3,1.2L12,56.7  c-0.3,0.7-0.2,1.5,0.3,2.2l1.3,1.7c-0.2,0.2-0.3,0.3-0.5,0.6L9.2,68c-0.5,0.8-0.3,1.9,0.3,2.6l-6.3,6.3c-0.9,0.9-0.9,2.3,0,3.2  c0.4,0.4,1,0.7,1.6,0.7c0.6,0,1.1-0.2,1.6-0.7l6.4-6.4l7.9,7.4c0.4,0.4,1,0.6,1.5,0.6c0.3,0,0.6-0.1,0.9-0.2l6.2-2.8  c0.4-0.2,0.6-0.4,0.9-0.7l0.7,0.5c0.4,0.2,0.8,0.3,1.2,0.3c0.3,0,0.7-0.1,1-0.2l3.1-1.6c0.5-0.2,0.8-0.6,1-1.1l1.3-3.3  c0.1-0.3,0.2-0.6,0.2-0.8l5.7-4.4c0.3-0.3,0.6-0.6,0.7-1l3.4-1.9c0.9-0.5,1.3-1.6,1-2.6l1.5,0.3v2.6L26.7,93.1  c-0.8,0.9-0.7,2.3,0.2,3.1c0.4,0.4,0.9,0.5,1.4,0.5c0.6,0,1.3-0.3,1.7-0.8l2.7-3.1l0.7,1c0.2,0.3,0.6,0.6,0.9,0.7l3.5,1.4l0.2,1.1  c0.2,1.1,1.1,1.9,2.2,1.9c0.1,0,0.2,0,0.3,0c1.2-0.2,2-1.3,1.9-2.5l-0.4-2.4c-0.1-0.8-0.6-1.4-1.4-1.7l-4.1-1.7l-1-1.3l7.4-8.6  l2.6,8c0.4,1.2,1.6,1.8,2.8,1.4c1.2-0.4,1.8-1.6,1.4-2.8l-3.4-10.5l8.6-10.1l0,0c0,0,0,0,0,0l0,0c0.1-0.1,0.2-0.2,0.2-0.3  c0,0,0-0.1,0.1-0.1c0-0.1,0.1-0.2,0.1-0.2c0-0.1,0-0.1,0-0.2c0-0.1,0-0.2,0-0.2c0-0.1,0-0.1,0-0.2c0,0,0-0.1,0-0.1v-5.2  c0-1-0.7-1.9-1.7-2.2L45.4,56v-3.4l10.1-4.4l10.1,6.8l2.5,12.2l-6.2,17c-0.2,0.5-0.2,1.1,0,1.6l4.9,11.8c0.4,0.9,1.2,1.4,2.1,1.4  c0.3,0,0.6-0.1,0.9-0.2c1.1-0.5,1.7-1.8,1.2-2.9l-4.6-11l6.1-16.8c0.1-0.4,0.2-0.8,0.1-1.2l-2.4-11.3l7.3-1c0.5-0.1,0.9-0.3,1.2-0.6  l9.6-9.1l2.9-0.8c0.5-0.1,0.9-0.4,1.2-0.8c0,0,0-0.1,0.1-0.1c0-0.1,0.1-0.1,0.1-0.2l2.7-4.8c0.3-0.5,0.4-1,0.2-1.6l-0.9-3.9l1.2-0.4  c0.6-0.2,1-0.6,1.3-1.2C97.5,30.5,97.5,29.9,97.3,29.3z M73.9,35l-1.4-3l18-8.1l1.9,4.9L73.9,35z M69.3,27.2l-0.2-0.6l0.3-2.8  l1.7,1.4c0.5,0.4,1.2,0.6,1.9,0.4L69.3,27.2z M90.4,18.1L81.4,22c0.4-0.4,0.6-1,0.6-1.6l-0.2-3.7l6-3.4L90.4,18.1z M78.7,5.9L82.3,8  l0.9,1.9L79.4,12l-2.8-4.4L78.7,5.9z M36,41.7l2.7,0l3.8,7.3l-0.1,0c-0.8,0.4-1.3,1.2-1.3,2v6.4l-7.8-12.6L36,41.7z M28.5,45.8  l11.6,18.7c-0.1,0.2-0.1,0.4-0.1,0.5l-2.6,2L25.9,54.6l-1.6-5.7L28.5,45.8z M22.6,76.8l-8.7-8.1l2.4-4.3l6.3,8.5  c0.2,0.2,0.4,0.4,0.6,0.6l2.7,1.7L22.6,76.8z M33.5,73.2l-1.3,0.7L26,70l-9.4-12.8l0.8-2.1l3.6-1.3l0.7,2.5c0.1,0.3,0.3,0.6,0.5,0.9  l12.3,13.4c0,0,0,0.1,0,0.1L33.5,73.2z M45.8,60.7l-2.1,1.2l-1.3-2c0.1,0,0.2,0.1,0.3,0.1L45.8,60.7z M89.3,39.9l-9.4,1.6L79.1,39  l11.5-4.7l0.6,2.5L89.3,39.9z M76.3,44.7c0.3,1,1.4,1.7,2.5,1.5l2.1-0.4l-4.7,4.4l-8.1,1.1L57,43.8c-0.6-0.4-1.4-0.5-2.1-0.2  l-8.3,3.6l-3.3-6.3l4.3-5c0.3-0.3,0.5-0.8,0.5-1.2c0.2-1.9,0.3-8.2,0.3-10.4l9-15L65.8,6l5.1,0.9l6.5,10.1l0.1,2.1l-4.6,1.9  l-5.4-4.4c-0.8-0.7-2.1-0.7-2.9,0.1c-0.8,0.7-1,1.9-0.4,2.9l1,1.5l-0.6,5.1l-3.1,4.7c-0.7,1-0.4,2.4,0.6,3.1c1,0.7,2.4,0.4,3.1-0.6  l1-1.5c0.2,0.2,0.4,0.4,0.7,0.5c0.2,0.1,0.5,0.2,0.7,0.2l3,6.2c0.4,0.8,1.2,1.3,2,1.3c0.2,0,0.5,0,0.7-0.1l1.1-0.4L76.3,44.7z"></path></svg>