<svg height='100px' width='100px'  fill="#000000" xmlns="http://www.w3.org/2000/svg" xmlns:xlink="http://www.w3.org/1999/xlink" version="1.1" x="0px" y="0px" viewBox="0 0 51 51" enable-background="new 0 0 51 51" xml:space="preserve"><path d="M23.321,28.611c-1.125,1.996-3.813,3.442-3.813,3.442s-2.688-1.446-3.813-3.442c0,0-5.762,1.38-6.536,3.442  c-0.776,2.063-1.339,7.313-1.339,7.313s3.502,2.813,11.688,2.813s11.688-2.813,11.688-2.813s-0.563-5.25-1.338-7.313  S23.321,28.611,23.321,28.611z M26.647,37.116h-3.904c-0.476,0-0.861-0.386-0.861-0.86s0.386-0.86,0.861-0.86h3.904  c0.475,0,0.859,0.386,0.859,0.86S27.122,37.116,26.647,37.116z"></path><path d="M9.793,27.621c1.417,0.543,4.917,0.642,6.585-0.527c1.102,0.951,2.281,1.518,3.13,1.518c0.85,0,2.03-0.567,3.133-1.52  c0.942,0.658,2.46,0.919,3.866,0.919c1.085,0,2.099-0.152,2.716-0.39c0.404-0.154,0.612-0.338,0.634-0.563  c0.017-0.179-0.088-0.341-0.312-0.48c-0.103-0.064-0.202-0.124-0.296-0.181c-1.232-0.739-1.693-1.016-1.866-7.728  c-0.056-2.177-0.755-3.901-2.077-5.128c-0.158-0.147-0.324-0.278-0.492-0.405c0.193-0.788,0.15-1.389,0.146-1.44l-0.006-0.066  l-0.028-0.06c-0.862-1.844-4.892-2.649-5.349-2.735l-0.069-0.013l-0.069,0.013c-0.457,0.086-4.485,0.892-5.348,2.735l-0.029,0.06  l-0.005,0.066c-0.005,0.052-0.047,0.652,0.146,1.44c-0.168,0.127-0.333,0.258-0.492,0.405c-1.322,1.227-2.021,2.951-2.077,5.128  c-0.172,6.712-0.634,6.988-1.866,7.728c-0.094,0.057-0.192,0.116-0.296,0.181c-0.224,0.14-0.329,0.302-0.312,0.48  C9.182,27.283,9.389,27.466,9.793,27.621z M14.8,11.828c0.648-1.211,3.541-2.013,4.708-2.242c1.167,0.229,4.06,1.03,4.708,2.241  c0.014,0.384-0.01,2.255-1.701,3.513h-6.014C14.808,14.081,14.786,12.208,14.8,11.828z M16.758,17.722  c0.212,0.587,1.11,2.241,4.5,2.241c1.476,0,2.962,0.591,3.534,1.404c0.051,0.071,0.088,0.145,0.123,0.218  c-0.348,3.598-3.908,6.275-5.407,6.275c-1.453,0-4.843-2.516-5.366-5.948C14.653,18.777,16.243,17.919,16.758,17.722z"></path><polygon points="18.84,14.329 20.175,14.329 20.175,13.126 21.377,13.126 21.377,11.792 20.175,11.792 20.175,10.59 18.84,10.59   18.84,11.792 17.639,11.792 17.639,13.126 18.84,13.126 "></polygon><path d="M36.157,9.432c-3.873,0-7.023,2.378-7.023,5.302c0,1.389,0.731,2.729,2.018,3.717c-0.354,0.947-0.936,2.047-1.796,2.431  c-0.182,0.081-0.269,0.29-0.197,0.476c0.057,0.15,0.198,0.242,0.351,0.242c0.037,0,0.076-0.006,0.115-0.019  c0.086-0.027,2.064-0.675,3.558-2.046c0.937,0.332,1.937,0.499,2.976,0.499c3.873,0,7.023-2.378,7.023-5.3  C43.181,11.81,40.03,9.432,36.157,9.432z M36.157,19.284c-1.029,0-2.016-0.179-2.93-0.532c-0.138-0.052-0.293-0.021-0.398,0.084  c-0.488,0.479-1.058,0.873-1.592,1.182c0.311-0.519,0.545-1.082,0.717-1.581c0.055-0.158-0.002-0.333-0.139-0.431  c-1.246-0.869-1.932-2.032-1.932-3.271c0-2.51,2.813-4.552,6.273-4.552c3.459,0,6.273,2.042,6.273,4.552  C42.431,17.243,39.616,19.284,36.157,19.284z"></path><circle cx="32.681" cy="14.734" r="1.172"></circle><circle cx="36.157" cy="14.734" r="1.172"></circle><circle cx="39.634" cy="14.734" r="1.172"></circle></svg>