<svg height='100px' width='100px'  fill="#000000" xmlns="http://www.w3.org/2000/svg" data-name="Layer 1" viewBox="0 0 100 100" x="0px" y="0px"><title>135all</title><path d="M23.5,88.5H75.8v0c.23,0,.47,0,.7,0A12.34,12.34,0,0,0,88.83,76.17V12.5a1,1,0,0,0-1-1H26.05a1,1,0,0,0-1,1l-.49,55.34H12.17a1,1,0,0,0-1,1v7.34A12.33,12.33,0,0,0,23,88.47v0ZM27,13.5H86.83V76.17a10.33,10.33,0,0,1-20.67,0V68.83a1,1,0,0,0-1-1H26.56ZM13.17,76.17V69.83h51v6.34A12.32,12.32,0,0,0,69.79,86.5H23.5A10.34,10.34,0,0,1,13.17,76.17Z"></path><rect x="37.37" y="26.17" width="19.5" height="2"></rect><rect x="37.37" y="39.17" width="37.5" height="2"></rect><rect x="37.37" y="52.17" width="37.5" height="2"></rect></svg>