<svg height='100px' width='100px'  fill="#000000" xmlns="http://www.w3.org/2000/svg" viewBox="0 0 512 512" x="0px" y="0px"><rect x="160" y="240" width="24" height="16"></rect><path d="M312,272A112,112,0,1,0,200,160,112.12706,112.12706,0,0,0,312,272Zm-79.44177-58.16016L272,196.31006v50.94922A96.6272,96.6272,0,0,1,232.55823,213.83984Zm-7.89282-14.00122a95.20909,95.20909,0,0,1-7.7735-26.779L272,151.01611v27.78467ZM408,160a96.03714,96.03714,0,0,1-120,92.9624V144.61621l16-6.3999V176a8,8,0,0,0,16,0V131.81616l10.97119-4.38843a8.0002,8.0002,0,0,0-.4414-15.01757L251.022,85.90747A95.95189,95.95189,0,0,1,408,160ZM238.31482,98.53784,304,120.43311v.551l-87.91614,35.16626A95.55347,95.55347,0,0,1,238.31482,98.53784Z"></path><path d="M56,421.38867V488a8.00008,8.00008,0,0,0,8,8H360a8.00008,8.00008,0,0,0,8-8V392a7.99883,7.99883,0,0,0-1.14014-4.11621L344,349.78394V300.41113C408.05176,285.8208,456,228.407,456,160c0-79.40234-64.59814-144-144-144-69.682,0-127.95691,49.75244-141.1814,115.59912A64.413,64.413,0,0,0,128,192V296a79.5393,79.5393,0,0,0,13.84686,44.93042L78.46777,380.74316A47.739,47.739,0,0,0,56,421.38867Zm215.941-123.064A63.99149,63.99149,0,0,1,144,296V219.31348l16-15.999A11.23845,11.23845,0,0,1,168,200h5.65778A144.59233,144.59233,0,0,0,271.941,298.32471ZM331.47046,360l14.4,24h-67.741l14.4-24ZM256,392v88H239.24176l-7.71246-77.32812c.01733-.04883.04364-.09229.06006-.14161l8-24A8.002,8.002,0,0,0,240,376v-6.69971a80.48922,80.48922,0,0,0,40-38.45459v18.93824l-22.85986,38.09985A7.99883,7.99883,0,0,0,256,392Zm-56.69409,16h16.67547l7.1811,72h-30.402ZM208,376a80.05511,80.05511,0,0,0,16-1.60986v.312L218.23389,392H197.76611L192,374.70215v-.312A80.05511,80.05511,0,0,0,208,376ZM176.69409,480H120V448h59.60321ZM272,480V400h80v80Zm56-136H296V303.10645a143.69561,143.69561,0,0,0,32,0ZM312,32A128,128,0,1,1,184,160,128.14509,128.14509,0,0,1,312,32ZM168.3371,150.252C168.12061,153.47485,168,156.72339,168,160a144.34945,144.34945,0,0,0,2.01105,24H168a27.13424,27.13424,0,0,0-19.31348,8L144,196.68652V192A48.35648,48.35648,0,0,1,168.3371,150.252ZM86.97852,394.292l65.26709-40.99878A80.27125,80.27125,0,0,0,176,369.30029V376a8.002,8.002,0,0,0,.41064,2.53027l7.47059,22.41162L181.05774,432H112a8.00008,8.00008,0,0,0-8,8v40H72V421.38867A31.82349,31.82349,0,0,1,86.97852,394.292Z"></path><path d="M224,304V288H208v16a8.00917,8.00917,0,0,1-8,8h-8v16h8A24.02718,24.02718,0,0,0,224,304Z"></path><circle cx="176" cy="272" r="8"></circle></svg>