<svg height='100px' width='100px'  fill="#000000" xmlns="http://www.w3.org/2000/svg" data-name="Layer 1" viewBox="0 0 64 64" x="0px" y="0px"><title>executive</title><path d="M32,22a8,8,0,0,0,8-8V8.24A5.25,5.25,0,0,0,34.76,3H29.24A5.25,5.25,0,0,0,24,8.24V14A8,8,0,0,0,32,22ZM29.24,5h4.58c-.24,3.38-4.1,5.05-7.82,5.16V8.24A3.24,3.24,0,0,1,29.24,5ZM26,12.16c3.5-.08,9.13-1.44,9.82-7A3.24,3.24,0,0,1,38,8.24V14a6,6,0,0,1-12,0Z"></path><path d="M60,38H50V25a8,8,0,0,0-8-8,1,1,0,0,0,0,2,6,6,0,0,1,6,6V38H46V32.71A8.65,8.65,0,0,0,37.45,24H26.55A8.65,8.65,0,0,0,18,32.71V38H16V25a6,6,0,0,1,6-6,1,1,0,0,0,0-2,8,8,0,0,0-8,8V38H4a1,1,0,0,0-1,1V60a1,1,0,0,0,1,1H60a1,1,0,0,0,1-1V39A1,1,0,0,0,60,38ZM34.19,29.63,34,28.76A1,1,0,0,0,33,28H31a1,1,0,0,0-1,.76l-.22.87L27.93,26h8.14ZM32.8,32.3,32,33.83l-.8-1.53.58-2.3h.44ZM20,32.71a6.66,6.66,0,0,1,5.7-6.65l3.58,6.88h0l1.83,3.51a1,1,0,0,0,1.78,0L34.72,33h0l3.58-6.88A6.66,6.66,0,0,1,44,32.71V38H42V36a1,1,0,0,0-2,0v2H24V36a1,1,0,0,0-2,0v2H20ZM5,40H59v2H5ZM18,59V52H46v7Zm41,0H48V51a1,1,0,0,0-1-1H17a1,1,0,0,0-1,1v8H5V44H59Z"></path></svg>