<svg height='100px' width='100px'  fill="#000000" xmlns="http://www.w3.org/2000/svg" xmlns:xlink="http://www.w3.org/1999/xlink" version="1.1" x="0px" y="0px" viewBox="0 0 100 100" enable-background="new 0 0 100 100" xml:space="preserve"><path fill="#000000" d="M84.47,76.06c-1.34-0.979-3.13-2.29-6.35-2.43c-0.17-0.01-0.36-0.01-0.57-0.01c-0.18,0-0.38,0-0.56,0.01  c-3.2,0.14-5.03,1.45-6.36,2.43c-1.02,0.721-1.64,1.16-2.86,1.28c-0.18,0.01-0.369,0.01-0.569,0.01c-0.19,0-0.391,0-0.55-0.01  c-1.221-0.12-1.851-0.56-2.86-1.28c-1.35-0.979-3.16-2.29-6.37-2.43c-0.189-0.01-0.37-0.01-0.58-0.01c-0.189,0-0.37,0-0.55,0.01  c-3.2,0.14-5.021,1.45-6.37,2.43c-1.01,0.721-1.64,1.16-2.86,1.28c-0.16,0.01-0.36,0.01-0.55,0.01c-0.21,0-0.39,0-0.57-0.01  c-1.22-0.12-1.84-0.56-2.86-1.28c-1.34-0.979-3.16-2.29-6.36-2.43c-0.18-0.01-0.39-0.01-0.57-0.01c-0.19,0-0.39,0-0.57,0.01  c-3.2,0.14-5.01,1.45-6.36,2.43c-1,0.721-1.64,1.16-2.86,1.28c-0.18,0.01-0.36,0.01-0.57,0.01c-0.19,0-0.39,0-0.55-0.01  c-1.22-0.12-1.85-0.56-2.86-1.28c-1.35-0.979-3.15-2.29-6.36-2.43c-0.14-0.01-0.28-0.01-4.32-0.01c2.12,3.45,4.7,6.58,7.65,9.32  c0.63,0.14,1.31,0.229,2.06,0.26c0.21,0.03,0.42,0.03,0.63,0.03s0.44,0,0.64-0.03c3.59-0.15,5.63-1.61,7.15-2.7  c1.13-0.81,1.82-1.32,3.18-1.44c0.21-0.01,0.43-0.01,0.65-0.01c0.21,0,0.44,0,0.64,0.01c1.36,0.12,2.05,0.631,3.18,1.44  c1.52,1.09,3.56,2.55,7.15,2.7c0.2,0.03,0.41,0.03,0.64,0.03c0.21,0,0.41,0,0.62-0.03c3.6-0.15,5.629-1.61,7.15-2.7  c1.13-0.81,1.84-1.32,3.2-1.44c0.18-0.01,0.41-0.01,0.62-0.01c0.239,0,0.439,0,0.64,0.01c1.37,0.12,2.08,0.631,3.21,1.44  c1.521,1.09,3.55,2.55,7.15,2.7c0.199,0.03,0.399,0.03,0.62,0.03c0.22,0,0.439,0,0.64-0.03c3.59-0.15,5.63-1.61,7.13-2.7  c1.14-0.81,1.83-1.32,3.2-1.44c0.2-0.01,0.399-0.01,0.64-0.01s0.44,0,0.641,0.01c1.149,0.101,1.819,0.48,2.689,1.08  c0.91-1.01,1.771-2.06,2.59-3.14C85.51,76.78,85.06,76.47,84.47,76.06z"></path><path fill="#000000" d="M68.48,89.96c-3.98,0-6.171-1.56-7.771-2.72c-1.29-0.92-2.02-1.46-3.85-1.46c-1.79,0-2.53,0.54-3.82,1.46  c-1.61,1.149-3.79,2.72-7.77,2.72c-3.99,0-6.19-1.56-7.79-2.72c-1.3-0.92-2.01-1.46-3.83-1.46c-1.81,0-2.53,0.54-3.82,1.46  c-0.71,0.51-1.53,1.1-2.58,1.59C33.92,92.75,41.7,95,50,95c7.68,0,14.91-1.93,21.24-5.32C70.43,89.86,69.52,89.96,68.48,89.96z"></path><path fill="#000000" d="M41.23,63.31c0.16,0.57,0.3,2.45,0.41,4.301h-2.2c-0.04-1.58-0.03-3.15,0.18-3.761  c0.47-1.42,0.4-2.76,0.26-3.51c-0.13-0.74,0.68-6.74,1.02-7.55c0.33-0.8,0.33-0.8,0.33-0.8l0.27,1.34c0,0,0.14,5.26-0.13,6.2  C41.1,60.48,40.9,62.1,41.23,63.31z"></path><path fill="#000000" d="M95,50c0,7.58-1.88,14.72-5.19,20.99L89.8,71c-0.5,0.22-1.06,0.34-1.88,0.34c-1.62,0-2.26-0.47-3.439-1.3  c-1.41-1.04-3.351-2.43-6.921-2.43c-3.56,0-5.52,1.39-6.93,2.43c-1.17,0.83-1.8,1.3-3.43,1.3c-1.61,0-2.25-0.47-3.41-1.3  c-1.43-1.04-3.38-2.43-6.95-2.43h-1.07c0.061-0.38,0.12-0.771,0.16-1.181c0.08-0.43,0.17-0.88,0.25-1.33  c0.09-0.43,0.221-0.83,0.33-1.25c0.08-0.199,0.16-0.399,0.24-0.59c0.09-0.22,0.17-0.43,0.26-0.64c0.181-0.41,0.29-0.87,0.46-1.2  c0.181-0.34,0.311-0.689,0.46-1.01c0.12-0.32,0.24-0.63,0.38-0.88c0.12-0.271,0.24-0.5,0.32-0.71c0.16-0.34,0.26-0.57,0.28-0.62  c-0.021,0.01-0.07,0.04-0.15,0.08c-0.109,0.05-0.27,0.13-0.45,0.26c-0.35,0.27-0.89,0.62-1.399,1.2c-0.25,0.29-0.561,0.59-0.84,0.95  c-0.29,0.35-0.49,0.71-0.73,1.109c-0.12,0.19-0.24,0.391-0.359,0.59c-0.061,0.101-0.12,0.2-0.171,0.311l-0.09,0.149l-0.04,0.08  l-0.02,0.04l-0.04,0.08l-0.01,0.03c-0.181,0.479-0.391,0.979-0.54,1.479c-0.13,0.5-0.25,1-0.351,1.49  c-0.09,0.49-0.16,0.97-0.22,1.44c0,0.04-0.01,0.08-0.01,0.12h-1.61c0.061-0.601,0.13-1.23,0.2-1.88c0.09-0.62,0.18-1.261,0.27-1.9  c0.12-0.63,0.24-1.28,0.36-1.92c0.16-0.62,0.37-1.21,0.53-1.82c0.21-0.54,0.49-1.229,0.729-1.78c0.271-0.54,0.511-1.06,0.78-1.56  s0.48-1,0.73-1.44c0.449-0.909,0.829-1.68,1.09-2.21c0.26-0.56,0.41-0.89,0.41-0.89V52.2c0,0-0.341,0.149-0.86,0.5  c-0.53,0.35-1.21,0.93-1.93,1.72c-0.36,0.39-0.71,0.86-1.07,1.35c-0.36,0.5-0.66,1.091-1.01,1.681c-0.32,0.6-0.58,1.13-0.91,1.81  c-0.25,0.681-0.51,1.38-0.72,2.08c-0.15,0.7-0.34,1.391-0.47,2.08c-0.11,0.69-0.21,1.37-0.3,2.021c-0.08,0.76-0.15,1.489-0.2,2.17  h-1.57C48,67,48.03,66.33,48.11,65.64c0.09-0.79,0.18-1.63,0.27-2.489c0.12-0.851,0.25-1.73,0.38-2.631  c0.17-0.869,0.35-1.77,0.53-2.659c0.22-0.86,0.5-1.7,0.74-2.551c0.35-0.829,0.7-1.649,1.041-2.449c0.37-0.75,0.71-1.49,1.069-2.19  c0.38-0.69,0.7-1.37,1.051-1.97c0.67-1.21,1.27-2.22,1.699-2.92c0.431-0.71,0.69-1.11,0.69-1.11s-0.41,0.25-1.05,0.79  c-0.641,0.55-1.521,1.36-2.44,2.48c-0.49,0.53-0.93,1.18-1.42,1.85c-0.49,0.66-0.9,1.46-1.39,2.24c-0.43,0.81-0.77,1.58-1.21,2.489  c-0.31,0.921-0.68,1.851-0.95,2.79c-0.21,0.94-0.44,1.891-0.63,2.82c-0.14,0.94-0.27,1.86-0.4,2.75c-0.19,1.73-0.32,3.34-0.37,4.73  h-2.94c-0.07-1.87-0.09-3.761,0.07-4.23c0.34-1.01,0.2-2.29-0.13-3.24c-0.34-0.939-0.21-3.3-0.07-5.8c0.13-2.49,1.55-7.82,1.55-7.82  s4.25-5.39,6.34-6.6c2.09-1.22,7.75-5.87,6.13-12.41c-1.62-6.54-4.45-5.66-6-6.13c-1.55-0.47-1.42-3.17,0-3.37  c1.42-0.2,5.39-0.47,5.39-0.47s1.28,0.74,5.261,1.21c3.979,0.47,5.39,0.14,5.39,0.14s-2.69-1.69-5.52-2.36  c-2.841-0.68-5.4-1.76-5.4-1.76s-3.17-2.49-5.73-1.48c-2.56,1.01-4.71,2.9-4.18,6.4c0.54,3.51,2.57,5.46,4.59,5.8  c2.02,0.34,3.03,1.22,2.629,3.98c-0.34,2.33-1.96,2.83-2.629,2.56c-0.68-0.27-2.9-2.9-5.19-2.97c-2.3-0.06-4.18,0.61-9.3,6.34  c-5.13,5.73-7.89,10.59-9.38,13.75c-1.48,3.17-3.23,9.37-3.3,11.39c-0.07,2.03,0.95,1.69,1.75,0.479c0.81-1.22,2.97-4.649,4.59-5.67  c1.62-1.01,9.57-5.52,9.57-5.52s0.67,1.479,0.47,3.43c-0.2,1.96-0.67,5.2-1.14,6.41c-0.48,1.21-0.61,2.97-0.34,4.65  c0.11,0.66,0.18,1.949,0.24,3.29h-2.8c-0.06-0.37-0.12-0.74-0.18-1.12c-0.09-0.46-0.22-0.931-0.33-1.391  c-0.14-0.47-0.32-0.949-0.5-1.409l-0.05-0.11l-0.02-0.03l-0.04-0.08l-0.08-0.14l-0.16-0.28c-0.11-0.189-0.21-0.38-0.32-0.56  c-0.22-0.37-0.37-0.721-0.64-1.061c-0.26-0.33-0.52-0.64-0.78-0.899c-0.51-0.54-1.04-0.851-1.41-1.061  c-0.38-0.2-0.63-0.26-0.63-0.26h-0.01c0,0,0.07,0.26,0.19,0.66c0.06,0.2,0.14,0.43,0.24,0.689c0.11,0.25,0.21,0.53,0.31,0.83  c0.11,0.301,0.25,0.61,0.41,0.91c0.16,0.311,0.31,0.72,0.48,1.101c0.15,0.359,0.31,0.739,0.47,1.119c0.09,0.391,0.22,0.75,0.31,1.15  c0.08,0.41,0.15,0.82,0.22,1.22c0.03,0.24,0.07,0.48,0.1,0.721h-1.41c-0.03-0.13-0.06-0.271-0.1-0.4c-0.12-0.34-0.26-0.68-0.39-1.01  L31.27,66.1l-0.01-0.02l-0.03-0.05l-0.06-0.101l-0.12-0.199c-0.08-0.131-0.17-0.261-0.25-0.381c-0.17-0.26-0.32-0.479-0.53-0.71  c-0.2-0.229-0.43-0.43-0.62-0.609c-0.38-0.37-0.77-0.57-1.03-0.721c-0.13-0.069-0.26-0.109-0.33-0.14  c-0.08-0.03-0.12-0.04-0.12-0.04s0.04,0.17,0.13,0.46c0.07,0.29,0.23,0.67,0.34,1.11c0.07,0.21,0.13,0.45,0.23,0.67  c0.09,0.22,0.15,0.53,0.25,0.8c0.05,0.14,0.11,0.29,0.16,0.43l0.08,0.221l0.05,0.1l0.01,0.05c0.04,0.21,0.1,0.42,0.14,0.641H8.58  C6.27,62.2,5,56.24,5,50C5,25.15,25.15,5,50,5C74.85,5,95,25.15,95,50z"></path></svg>