<svg height='100px' width='100px'  fill="#000000" xmlns="http://www.w3.org/2000/svg" data-name="Layer 3" viewBox="0 0 64 64" x="0px" y="0px"><title>hand-question-student-class-school-ask-hands and gestures-raise hand-education-raise</title><path d="M51,58h1a1,1,0,0,0,1-1V49a1,1,0,0,0-1-1H51V45.406a14.551,14.551,0,0,0,4-10.063V24a2.99,2.99,0,0,0-4.116-2.78,2.975,2.975,0,0,0-4-2,2.983,2.983,0,0,0-5.768,0A2.99,2.99,0,0,0,37,22v7.184A2.966,2.966,0,0,0,36,29a3,3,0,0,0-3,3v3.343a14.551,14.551,0,0,0,4,10.063V48H36a1,1,0,0,0-1,1v8a1,1,0,0,0,1,1h1v3H27V52h1a1,1,0,0,0,1-1V45a1,1,0,0,0-1-1H27V41.406a14.551,14.551,0,0,0,4-10.063V20a2.99,2.99,0,0,0-4.116-2.78,2.975,2.975,0,0,0-4-2,2.983,2.983,0,0,0-5.768,0A2.99,2.99,0,0,0,13,18v7.184A2.966,2.966,0,0,0,12,25a3,3,0,0,0-3,3v3.343a14.551,14.551,0,0,0,4,10.063V44H12a1,1,0,0,0-1,1v6a1,1,0,0,0,1,1h1v9H2v2H62V61H51ZM38.707,44.293A12.57,12.57,0,0,1,35,35.343V32a1,1,0,0,1,2,0v4a1,1,0,0,0,1,1,3,3,0,0,1,3,3h2a5.008,5.008,0,0,0-4-4.9V22a1,1,0,0,1,2,0V32h2V20a1,1,0,0,1,2,0V32h2V22a1,1,0,0,1,2,0V32h2V24a1,1,0,0,1,2,0V35.343a12.57,12.57,0,0,1-3.707,8.95A1,1,0,0,0,49,45v3H39V45A1,1,0,0,0,38.707,44.293ZM37,50H51v6H37Zm2,8H49v3H39ZM14.707,40.293A12.57,12.57,0,0,1,11,31.343V28a1,1,0,0,1,2,0v4a1,1,0,0,0,1,1,3,3,0,0,1,3,3h2a5.008,5.008,0,0,0-4-4.9V18a1,1,0,0,1,2,0V28h2V16a1,1,0,0,1,2,0V28h2V18a1,1,0,0,1,2,0V28h2V20a1,1,0,0,1,2,0V31.343a12.57,12.57,0,0,1-3.707,8.95A1,1,0,0,0,25,41v3H15V41A1,1,0,0,0,14.707,40.293ZM13,46H27v4H13Zm2,6H25v9H15Z"></path><path d="M62,1H46a1,1,0,0,0-1,1V12a1,1,0,0,0,1,1h5v3a1,1,0,0,0,1.707.707L56.414,13H62a1,1,0,0,0,1-1V2A1,1,0,0,0,62,1ZM61,11H56a1,1,0,0,0-.707.293L53,13.586V12a1,1,0,0,0-1-1H47V3H61Z"></path><rect x="53" y="5" width="2" height="4"></rect><rect x="7" y="5" width="2" height="4"></rect><path d="M5.586,13l3.707,3.707A1,1,0,0,0,11,16V13h3a1,1,0,0,0,1-1V2a1,1,0,0,0-1-1H2A1,1,0,0,0,1,2V12a1,1,0,0,0,1,1ZM3,3H13v8H10a1,1,0,0,0-1,1v1.586L6.707,11.293A1,1,0,0,0,6,11H3Z"></path><rect x="49" y="5" width="2" height="4"></rect><rect x="57" y="5" width="2" height="4"></rect></svg>