<svg height='100px' width='100px'  fill="#000000" xmlns="http://www.w3.org/2000/svg" viewBox="0 0 64 64" x="0px" y="0px"><title>12 Speaking Many Languanges</title><g data-name="12 Speaking Many Languanges"><path d="M21,9H17V8a1,1,0,0,0-2,0V9H11a1,1,0,0,0,0,2h6.69A10.418,10.418,0,0,1,16.1,13.932a12.337,12.337,0,0,1-1.273-1.488,1,1,0,0,0-1.663,1.111,13.793,13.793,0,0,0,1.541,1.817,9.236,9.236,0,0,1-3.025,1.68,1,1,0,1,0,.632,1.9,11.2,11.2,0,0,0,3.892-2.215A18.3,18.3,0,0,0,19.553,18.9a1,1,0,0,0,.894-1.79A16.156,16.156,0,0,1,17.6,15.276,12.536,12.536,0,0,0,19.786,11H21a1,1,0,0,0,0-2Z"></path><path d="M25,3H7A4,4,0,0,0,3,7V19a4,4,0,0,0,4,4H19.649l4.726,3.781A1,1,0,0,0,26,26V22.873A4.006,4.006,0,0,0,29,19V7A4,4,0,0,0,25,3Zm2,16a2,2,0,0,1-2,2,1,1,0,0,0-1,1v1.919l-3.375-2.7A1,1,0,0,0,20,21H7a2,2,0,0,1-2-2V7A2,2,0,0,1,7,5H25a2,2,0,0,1,2,2Z"></path><path d="M26,41.127V38a1,1,0,0,0-1.625-.781L19.649,41H7a4,4,0,0,0-4,4V57a4,4,0,0,0,4,4H25a4,4,0,0,0,4-4V45A4.006,4.006,0,0,0,26,41.127ZM27,57a2,2,0,0,1-2,2H7a2,2,0,0,1-2-2V45a2,2,0,0,1,2-2H20a1,1,0,0,0,.625-.219L24,40.081V42a1,1,0,0,0,1,1,2,2,0,0,1,2,2Z"></path><path d="M57,22H44.351l-4.726-3.781A1,1,0,0,0,38,19v3.127A4.006,4.006,0,0,0,35,26V38a4.006,4.006,0,0,0,3,3.873V45a1,1,0,0,0,1.625.781L44.351,42H57a4,4,0,0,0,4-4V26A4,4,0,0,0,57,22Zm2,16a2,2,0,0,1-2,2H44a1,1,0,0,0-.625.219L40,42.919V41a1,1,0,0,0-1-1,2,2,0,0,1-2-2V26a2,2,0,0,1,2-2,1,1,0,0,0,1-1V21.081l3.375,2.7A1,1,0,0,0,44,24H57a2,2,0,0,1,2,2Z"></path><path d="M48.9,26.553a1.042,1.042,0,0,0-1.79,0l-5,10a1,1,0,1,0,1.79.894L48,29.236,49.882,33H48a1,1,0,0,0,0,2h2.882l1.223,2.447a1,1,0,0,0,1.79-.894Z"></path><path d="M20,55H15a2,2,0,0,1,0-4h4a1,1,0,0,0,0-2H17a1,1,0,1,1,.9-1.446,1,1,0,0,0,1.788-.9,3,3,0,0,0-5.475,2.423A4,4,0,0,0,15,57h5a1,1,0,0,0,0-2Z"></path></g></svg>