<svg height='100px' width='100px'  fill="#000000" xmlns="http://www.w3.org/2000/svg" viewBox="0 0 65.14 93.92" x="0px" y="0px"><title>microcephaly 2</title><path d="M63.42,61.82s8.89,8.9,8.92,8.91c2.83,2.85,2.1,7.87-.59,10.61L59.35,94.25C54.56,99,48.16,92.4,52.81,87.78l7.86-7.87L53,72.26,63.42,61.82h0Zm-27.64,0h0s-8.87,8.9-8.87,8.91c-2.86,2.85-2.12,7.87.53,10.61L39.89,94.25a4.62,4.62,0,1,0,6.54-6.48l-7.85-7.87,7.65-7.65L35.78,61.82M49.94,29.65a9.79,9.79,0,1,0-9.8-9.8A9.78,9.78,0,0,0,49.94,29.65Zm13.94,27,0.19-8.8,10.71,10A4.57,4.57,0,0,0,81,51.18S68.73,37.83,67,36.27c-3.27-2.9-8.07-4.54-15.85-4.54H48.68c-7.78,0-12.57,1.64-15.85,4.54-1.76,1.56-14.05,14.91-14.05,14.91A4.57,4.57,0,0,0,25,57.86l10.71-10,0.19,8.8h28ZM38.53,22A0.93,0.93,0,0,0,39,20.76a11.92,11.92,0,0,1-.79-2.37,0.93,0.93,0,0,0-1.82.4,13.81,13.81,0,0,0,.92,2.74A0.93,0.93,0,0,0,38.53,22Zm24.06-.69a13.84,13.84,0,0,0,.86-2.76,0.93,0.93,0,0,0-1.82-.37,12,12,0,0,1-.75,2.39A0.93,0.93,0,1,0,62.59,21.3ZM38.16,13.41A11.89,11.89,0,0,1,38.9,11a0.93,0.93,0,1,0-1.7-.74A13.74,13.74,0,0,0,36.33,13a0.93,0.93,0,0,0,.73,1.1h0.1A0.93,0.93,0,0,0,38.16,13.41ZM62.69,13.9a0.93,0.93,0,0,0,.71-1.11,13.71,13.71,0,0,0-.92-2.74,0.93,0.93,0,1,0-1.69.77,11.88,11.88,0,0,1,.8,2.37A0.93,0.93,0,0,0,62.69,13.9ZM41.8,7a12.06,12.06,0,0,1,2-1.49,0.93,0.93,0,0,0-.94-1.6,13.91,13.91,0,0,0-2.32,1.72A0.93,0.93,0,0,0,41.8,7Zm17.33-.23A0.93,0.93,0,0,0,59,5.44a13.92,13.92,0,0,0-2.35-1.67,0.93,0.93,0,1,0-.91,1.62,12.07,12.07,0,0,1,2,1.45A0.93,0.93,0,0,0,59.13,6.75ZM48.53,3.92A12.11,12.11,0,0,1,51,3.9,0.91,0.91,0,0,0,52,3.06a0.93,0.93,0,0,0-.7-1L51.2,2a13.92,13.92,0,0,0-2.87,0,0.93,0.93,0,0,0,0,1.85h0.19Z" transform="translate(-17.33 -1.98)"></path></svg>