<svg height='100px' width='100px'  fill="#000000" xmlns="http://www.w3.org/2000/svg" xmlns:xlink="http://www.w3.org/1999/xlink" version="1.1" x="0px" y="0px" viewBox="0 0 64 64" style="enable-background:new 0 0 64 64;" xml:space="preserve"><title> icon</title><desc> icon for website, application, printing, document, poster design, etc.</desc><metadata><?xpacket begin="&#239;&#187;&#191;" id="W5M0MpCehiHzreSzNTczkc9d"?><x:xmpmeta xmlns:x="adobe:ns:meta/" x:xmptk="Adobe XMP Core 5.6-c137 79.159547, 2016/07/07-11:39:24        "></x:xmpmeta><?xpacket end="w"?></metadata><g><path d="M57,42h-9.782c0.187-0.524,0.243-1.09,0.118-1.65l-1.304-5.869C49.887,31.668,52,27.968,52,24h-2   c0,3.473-2.007,6.746-5.65,9.22c-0.339,0.229-0.504,0.644-0.415,1.044l1.449,6.52c0.066,0.298-0.005,0.604-0.196,0.843   C44.997,41.863,44.713,42,44.408,42h-3.015c-0.439,0-0.834-0.294-0.958-0.716L39.1,36.78c-0.154-0.52-0.693-0.822-1.218-0.682   c-3.897,1.045-8.065,1.189-12.144,0.379c-0.503-0.098-1.007,0.201-1.154,0.697l-1.218,4.109C23.241,41.705,22.847,42,22.408,42   h-3.016c-0.305,0-0.589-0.137-0.78-0.374c-0.191-0.238-0.262-0.545-0.196-0.843l1.235-5.556c0.097-0.434-0.105-0.879-0.495-1.094   c-2.282-1.253-4.142-2.877-5.378-4.696c-0.123-0.18-0.3-0.314-0.506-0.385l-2.417-0.819L9.247,21h2.593   c0.401,0,0.763-0.239,0.92-0.608c0.659-1.549,1.735-2.994,3.198-4.293c0.228-0.203,0.351-0.498,0.334-0.803l-0.279-5.086   l1.345-2.69l5.693,4.269c0.248,0.187,0.567,0.246,0.867,0.164c2.902-0.804,6.022-1.099,9.056-0.882l0.142-1.996   c-3.097-0.218-6.274,0.055-9.253,0.822L17.6,5.2c-0.238-0.179-0.542-0.241-0.83-0.174c-0.289,0.068-0.532,0.261-0.665,0.526l-2,4   c-0.078,0.155-0.114,0.328-0.104,0.502l0.268,4.877c-1.322,1.243-2.353,2.607-3.071,4.068H8c-0.303,0-0.59,0.138-0.78,0.374   c-0.189,0.236-0.262,0.547-0.196,0.843l2,9c0.076,0.342,0.325,0.618,0.656,0.73l2.64,0.895c1.28,1.786,3.069,3.387,5.22,4.671   l-1.075,4.837c-0.125,0.56-0.069,1.126,0.118,1.65H16h-3c-1.103,0-2,0.897-2,2v8H8H4c-1.103,0-2,0.897-2,2v8c0,1.103,0.897,2,2,2   h50c1.103,0,2-0.897,2-2v-8h1c1.103,0,2-0.897,2-2v-8C59,42.897,58.103,42,57,42z M53,44v8H28v-8H53z M24,44h2v8h0h-2V44z    M26.247,38.604c3.766,0.628,7.581,0.502,11.207-0.337l1.062,3.586c0.015,0.051,0.04,0.098,0.057,0.147H27h-1.773   c0.018-0.05,0.042-0.096,0.057-0.147L26.247,38.604z M22,44v8h-5v-8H22z M13,44h2v8h-2V44z M4,54h3v8H4V54z M9,54h2v8H9V54z M13,54   h32v8H13V54z M47,62v-8h2v8H47z M54,62h-3v-8h3V62z M57,52h-2v-8h2V52z"></path><rect x="32" y="47" width="17" height="2"></rect><rect x="16" y="57" width="16" height="2"></rect><rect x="34" y="57" width="8" height="2"></rect><path d="M61.589,12.806l-0.693-0.4L53.125,2.234c-0.162-0.212-0.401-0.35-0.666-0.385L39.567,0.18   c-0.397-0.048-0.792,0.143-0.995,0.492c-0.202,0.35-0.173,0.786,0.072,1.107l7.893,10.33c0.162,0.212,0.401,0.35,0.666,0.385   l12.479,1.616l-1.958,3.391l1.732,1l2.5-4.33C62.231,13.693,62.068,13.082,61.589,12.806z M47.873,10.563L41.69,2.472L51.79,3.78   l6.182,8.092L47.873,10.563z"></path><rect x="48.831" y="5.172" transform="matrix(0.5 -0.866 0.866 0.5 18.7033 46.74)" width="2" height="4"></rect><path d="M35.19,11.765c2.8,6.004,8.872,9.813,15.417,9.813c0.487,0,0.978-0.021,1.469-0.064l1.003-0.088   c0.325-0.028,0.616-0.214,0.779-0.496l2.5-4.33l-1.732-1l-2.24,3.879l-0.484,0.043c-2.785,0.244-5.511-0.308-7.916-1.492   l1.712-2.966l-1.732-1l-1.712,2.965c-2.229-1.492-4.07-3.578-5.251-6.11l-0.205-0.44l2.24-3.879l-1.732-1l-2.5,4.33   c-0.163,0.282-0.178,0.627-0.04,0.923L35.19,11.765z"></path><rect x="56.416" y="19.023" transform="matrix(0.4736 -0.8808 0.8808 0.4736 12.6472 61.2058)" width="2.218" height="2"></rect><rect x="19" y="17" width="2" height="2"></rect><path d="M36,27v-2c0-1.103-0.897-2-2-2h-4v-2h5v-2h-1.992L33,16.996l-2,0.008L31.008,19H30c-1.103,0-2,0.897-2,2v2   c0,1.103,0.897,2,2,2h4v2h-5v2h2.004l0.008,2.004l2-0.008L33.004,29H34C35.103,29,36,28.103,36,27z"></path></g></svg>