<svg height='100px' width='100px'  fill="#000000" xmlns="http://www.w3.org/2000/svg" xmlns:xlink="http://www.w3.org/1999/xlink" version="1.1" preserveAspectRatio="none" x="0px" y="0px" viewBox="0 0 100 100"><defs><path id="a" stroke="#000000" stroke-width="1" stroke-linejoin="round" stroke-linecap="round" fill="none" d=" M 9.8 40.35 Q 11.25 38.1 14.15 37.05 19.9 34.95 26.85 40.85 L 27.9 41.7 Q 29.3 42.7 30.95 43.05 36.2 44.2 40 40.35 43.35 36.95 46.2 35.9 51.95 33.75 58.9 39.7 L 59.95 40.55 Q 61.35 41.5 63 41.9 68.2 43.05 71.6 39.8 75.4 36.15 78.25 35.1 84.05 33 90.95 38.9 M 8.95 54.55 Q 10.4 52.3 13.3 51.25 19.05 49.15 26 55.1 L 27.05 55.95 Q 28.45 56.9 30.1 57.25 35.35 58.4 38.75 54.85 42.5 51.15 45.35 50.1 51.1 48 58.05 53.9 L 59.1 54.75 Q 60.5 55.7 62.15 56.1 67.35 57.25 70.95 53.8 74.55 50.35 77.4 49.3 83.2 47.2 90.15 53.1 M 8.95 68.7 Q 10.4 66.45 13.3 65.4 19.05 63.3 26 69.25 L 27.05 70.1 Q 28.45 71.05 30.1 71.4 35.35 72.55 39.05 68.85 42.5 65.4 45.35 64.35 51.1 62.25 58.05 68.15 L 59.1 69 Q 60.5 69.95 62.15 70.35 67.4 71.5 71.9 67 74.55 64.4 77.4 63.35 83.2 61.25 90.15 67.15"></path></defs><g transform="matrix( 1, 0, 0, 1, 0,0) "><use xlink:href="#a"></use></g></svg>