<svg height='100px' width='100px'  fill="#000000" xmlns="http://www.w3.org/2000/svg" xmlns:xlink="http://www.w3.org/1999/xlink" version="1.1" x="0px" y="0px" viewBox="0 0 100 100" enable-background="new 0 0 100 100" xml:space="preserve"><g><g><path fill="none" stroke="#000000" stroke-width="0.75" stroke-linecap="round" stroke-linejoin="round" stroke-miterlimit="10" d="    M72.625,88.5c1.078,0.352,1.558-0.844,2.631-1.125c0.64-0.167,3.971-0.835,2.493,0.768c-0.355,0.385-1.944,0.756-2.497,0.985    c-0.743,0.308-2.373,0.711-2.48-0.487c0.192-0.099,0.18,0.11,0.228,0.108"></path><path fill="none" stroke="#000000" stroke-width="0.75" stroke-linecap="round" stroke-linejoin="round" stroke-miterlimit="10" d="    M37.25,13.75l1.458,3.5L66,18.875c-0.054,0.183,0.011,1.715,0.144,2.355c0.712,0.265,1.689,0.129,2.115-0.606    c0.56-0.966-0.334-1.462-0.518-2.25c-0.576-2.475,1.464-1.886,3.009-1.875c0.971,0.007,2.529,0.104,3.25,0.747    c0.593,0.529,0.645,1.955,0.872,2.878c0.367,1.491,0.706,2.992,1,4.49c0.332,1.688,1.216,3.124,1.788,4.732    c0.438,1.233,0.704,2.536,1.088,3.737c0.539,1.689,1.542,2.902,2.375,4.412c0.73,1.324,1.115,2.898,2.03,4.103    c0.491,0.646,1.635,1.584,0.491,2.171c-0.035,1.481-0.574,2.428,0.009,3.951c0.549,1.434,1.377,2.778,2.07,4.156    c1.062,2.116,1.877,4.394,2.877,6.597c0.646,1.424,1.149,2.43,1.15,4.034c0,1.552,0.205,3.066,0.131,4.619    c-0.068,1.444-0.519,2.873-0.631,4.275c-0.111,1.382,0.084,2.604-0.405,3.72c-0.527,1.201-1.238,1.926-1.095,3.377    c0.107,1.085,0.853,2.213-0.103,3.265c0.029-1.035-0.481-1.398-1.244-1.112c-0.263,0.099-0.643,0.799-1.019,0.972    c-0.595,0.272-1.394,0.254-2,0.463c-1.097,0.378-2.988,1.416-4.137,0.512c-0.967-0.76-0.69-2.92-0.97-4.069    c-0.235-0.963-0.375-1.049-1.027-1.812c-0.103-0.12-0.541-0.401-0.597-0.498c-0.106-0.18-0.064-0.627-0.15-0.728    c-0.782-0.917-1.396-1.279-2.653-1.403c-0.848-0.083-1.268,0.259-1.922-0.591c-0.364-0.473-0.419-0.945-0.549-1.5    c-0.244-1.038,0.136-2.36-0.404-3.253c-0.901-1.491-2.514-1.284-3.608-0.503c-0.259-0.511-0.041-1.051,0.487-1.265    c0.194-1.147-0.751-2.677,1.003-3c0.002-0.749-0.268-2.592-1.337-2.334c0.012,1.038-0.287,1.507-0.666,2.438    c-1.202-0.724-1.499-1.919-2.013-3.082c-0.542-1.227-1.506-1.682-1.963-2.9c-0.447-1.191-1.466-2.625-1.005-3.627    c0.53-1.154,2.222-1.911,3.024-2.847c-0.378-0.5-0.615-1.264-1.384-1.106c0.063,0.381,0.002,0.84,0.096,1.212    c-1.291-0.061-1.885,1.029-2.883,0.397c-0.789-0.5-0.961-1.498-0.85-2.372c0.239-1.865,1.613-3.348,1.847-5.25    c0.121-0.986,0.237-2.029,0.281-3.004c0.022-0.502,0.339-1.971,0.225-2.365c-0.164-0.563-0.516-0.365-0.824-0.788    c-0.68-0.934-2.1-4.422-3.278-2.391c-0.692-0.381-0.372-0.875-0.626-1.459c-0.41-0.941-0.235-0.586-1.125-1    c-0.81-0.377-1.694-0.819-2.128-1.618c-0.477-0.874-0.021-0.649-0.15-1.507c-0.131-0.867-0.488-1.208-1.121-1.719    c-0.283-0.229-0.509-0.143-0.749-0.404c-0.273-0.297-0.211-0.708-0.448-1.012c-0.696-0.891-1.955-0.995-2.549-2.097    c-0.999-0.126-2.024,0.219-3,0.329c-0.363,0.041-1.596-0.053-1.866,0.15c-0.403,0.303-0.116,0.479-0.363,0.881    c-0.541,0.879-0.722,1.183-1.874,1.534c-0.694,0.211-1.979,0.656-2.656,0.728c-0.432,0.046-0.858-0.485-1.35-0.271    c-0.341,0.148-0.337,0.667-0.485,0.759c-0.598,0.37-1.712,0.771-2.483,0.25c-0.811-0.548-0.286-1.422-0.807-2.109    c-0.376-0.496-1.354-0.623-1.843-0.894c-2.417-1.339-4.41-3.641-7.24-4.594c-2.978-1.003-5.59-0.903-8.601-0.413    c-0.946,0.154-3.134,0.945-3.949,0.138c0.177,0.176-0.172-1.314-0.186-1.149c0.048-0.598,0.338-1.02,0.362-1.491    c0.052-1.014-0.632-1.676-1.234-2.491c-0.82-1.11-0.15-1.771,0.097-2.75H37.25z"></path></g></g></svg>