<svg height='100px' width='100px'  fill="#000000" xmlns="http://www.w3.org/2000/svg" xmlns:xlink="http://www.w3.org/1999/xlink" version="1.1" x="0px" y="0px" viewBox="0 0 100 100" enable-background="new 0 0 100 100" xml:space="preserve"><g><path fill="#000000" d="M81.12,75.504c-0.23,0-0.427-0.102-0.541-0.278c-0.258-0.396,0.048-0.771,0.179-0.932   c0.024-0.03,0.051-0.06,0.067-0.087c-0.011,0.032-0.019-0.114-0.031-0.237c-0.039-0.027-0.082-0.062-0.128-0.105   c-0.287-0.274-0.28-0.553-0.275-0.737c0-0.229,0.04-0.369,0.072-0.48c0.005-0.019,0.012-0.041,0.018-0.063   c-0.079-0.062-0.159-0.143-0.221-0.256c-0.059-0.107-0.327-0.653-0.059-1.072c0.161-0.251,0.426-0.324,0.567-0.364   c0.079-0.026,0.089-0.033,0.156-0.108c0.065-0.073,0.136-0.148,0.232-0.226c0.003-0.001,0.005-0.003,0.007-0.003   c-0.001-0.014-0.001-0.028-0.001-0.045l-0.007-0.216c-0.008-0.167-0.013-0.339,0.009-0.494c0.013-0.105,0.039-0.193,0.065-0.279   c0.022-0.072,0.027-0.089,0.026-0.123l0.002-0.681c-0.002-0.21,0.025-0.409,0.055-0.608c0.024-0.169,0.053-0.339,0.044-0.524   c-0.002-0.022-0.002-0.027-0.054-0.116c-0.017-0.028-0.034-0.058-0.051-0.088l-0.033,0.03c-0.007,0.055-0.015,0.105-0.028,0.166   c-0.135,0.622-0.893,1.232-1.53,1.232c-0.018,0-0.092-0.004-0.109-0.006c-0.362-0.039-0.58-0.279-0.725-0.438   c-0.041-0.045-0.093-0.102-0.119-0.119c-0.14-0.023-0.213-0.004-0.291,0.011l-0.148,0.027c-0.087,0.019-0.147,0.031-0.222,0.031   c-0.19,0-0.447-0.083-0.592-0.478c-0.043-0.121-0.058-0.242-0.058-0.353l-0.147,0.003l-0.143-0.004   c-0.159-0.008-0.283-0.054-0.364-0.084c-0.034-0.003-0.219-0.008-0.247-0.011c-0.126-0.015-0.239-0.062-0.332-0.137   c-0.098-0.033-0.169-0.068-0.264-0.116c-0.111-0.056-0.181-0.075-0.246-0.097c-0.179-0.057-0.424-0.134-0.642-0.363   c-0.047-0.049-0.088-0.1-0.128-0.149c-0.037-0.048-0.06-0.076-0.081-0.092c-0.091-0.032-0.188-0.072-0.28-0.15   c-0.189-0.161-0.233-0.339-0.252-0.414c-0.078-0.02-0.245-0.14-0.317-0.371c-0.033-0.102-0.04-0.19-0.045-0.248   c-0.036-0.093-0.083-0.143-0.194-0.258c-0.02-0.021-0.054-0.043-0.097-0.071c-0.104-0.069-0.262-0.175-0.381-0.379   c-0.063-0.11-0.089-0.142-0.099-0.149c-0.196,0.004-0.453,0.009-0.643-0.184c-0.093-0.094-0.136-0.199-0.155-0.288h-0.099   c-0.222-0.021-0.321-0.069-0.374-0.096c-0.071-0.015-0.188-0.026-0.301-0.026c-0.285,0-0.52,0.076-0.627,0.205   c-0.01,0.015-0.031,0.079-0.046,0.122c-0.044,0.132-0.104,0.313-0.25,0.475c-0.145,0.162-0.293,0.215-0.414,0.236   c-0.034,0.03-0.077,0.068-0.078,0.068c-0.106,0.088-0.229,0.143-0.357,0.157c-0.03,0.004-0.062,0.005-0.089,0.002   c-0.001,0.007-0.003,0.013-0.005,0.02c-0.001,0.005-0.028,0.103-0.03,0.107c-0.034,0.121-0.044,0.163-0.035,0.19   c0.011,0.006,0.059,0.028,0.107,0.051c0.173-0.002,0.386,0.054,0.532,0.367c0.122,0.255,0.026,0.604-0.036,0.723   c-0.112,0.203-0.259,0.337-0.376,0.444c-0.092,0.084-0.164,0.15-0.194,0.218c0,0.005-0.033,0.172-0.034,0.178   c-0.017,0.079-0.046,0.159-0.076,0.23c-0.034,0.143-0.042,0.284-0.035,0.325l0,0c0.009,0,0.088,0.077,0.141,0.129   c0.115,0.114,0.247,0.243,0.334,0.413c0.053,0.104,0.194,0.379,0.033,0.655c-0.156,0.266-0.437,0.276-0.556,0.28l-0.145-0.484   l0.038,0.492l-0.125,0.152c-0.034,0.031-0.085,0.08-0.098,0.101c0.02,0.829-0.529,0.824-0.744,0.786   c-0.217-0.038-0.383-0.214-0.409-0.432c-0.021,0.029-0.05-0.004-0.078-0.042c-0.038-0.052-0.07-0.104-0.099-0.159   c-0.043,0.04-0.081,0.077-0.119,0.113c-0.137,0.128-0.291,0.272-0.492,0.362c-0.403,0.181-0.829-0.014-1.001-0.397   c-0.021-0.011-0.043-0.021-0.062-0.032c-0.13-0.061-0.179-0.07-0.262-0.07c0,0-0.028,0.003-0.063,0.006   c-0.002,0.174-0.034,0.362-0.192,0.518c-0.039,0.038-0.085,0.07-0.136,0.095c-0.11,0.053-0.184,0.091-0.358,0.069l-0.204,0.055   c-0.053,0.013-0.108,0.022-0.164,0.032c-0.046,0.009-0.107,0.02-0.126,0.028c-0.088,0.144-0.183,0.281-0.35,0.375   c-0.184,0.102-0.454,0.11-0.72,0.088l-0.11-0.008c-0.272,0-0.483,0.04-0.689,0.129l-0.191,0.087   c-0.227,0.105-0.482,0.225-0.782,0.265c-0.185,0.022-0.448,0.023-0.627-0.004c-0.331-0.047-0.538-0.229-0.607-0.542   c0.001,0.035-0.063,0.014-0.12-0.007c-0.066-0.023-0.127-0.046-0.174-0.067c-0.043-0.019-0.077-0.024-0.156-0.038   c-0.069-0.011-0.142-0.023-0.227-0.045c-0.176-0.046-0.312-0.183-0.358-0.354c-0.006,0-0.014-0.001-0.021-0.001l-0.589,0.003   l-0.373-0.002c-0.081,0.032-0.138,0.052-0.202,0.064c-0.033,0.007-0.16,0.018-0.194,0.018l-0.006-0.036   c-0.032,0.102-0.085,0.214-0.191,0.312c-0.261,0.247-0.771,0.209-1.037-0.053c-0.01-0.009-0.072-0.077-0.081-0.088l-0.11-0.049   c-0.051-0.023-0.126-0.06-0.153-0.063c-0.07,0.039-0.186,0.082-0.337,0.082c-0.05,0-0.19-0.022-0.238-0.037   c-0.296-0.09-0.435-0.311-0.518-0.442c-0.257-0.287-0.397-0.502-0.413-0.86c0-0.014,0-0.026,0-0.039   c-0.045-0.015-0.083-0.032-0.12-0.054c-0.115-0.065-0.188-0.166-0.226-0.22c-0.094-0.07-0.135-0.075-0.195-0.075h-0.584   c-0.651,0-0.825-0.242-0.882-0.322c-0.07-0.098-0.104-0.196-0.119-0.284c-0.061,0.001-0.116,0.004-0.151,0.01   c-0.05,0.048-0.148,0.348-0.182,0.446c-0.071,0.212-0.098,0.302-0.102,0.437c0.014,0.067,0.04,0.096,0.068,0.134   c0.112,0.15,0.214,0.297,0.299,0.496c0.077,0.171,0.188,0.417,0.043,0.68c-0.147,0.27-0.439,0.312-0.549,0.327   c-0.232,0.031-0.387,0.007-0.46,0.037c-0.095,0.038-0.17,0.084-0.247,0.128l-0.166,0.094c-0.233,0.125-0.499,0.152-0.681,0.152   l-0.123-0.003l-0.22,0.005c-0.086,0-0.216-0.005-0.349-0.045c-0.287-0.084-0.395-0.314-0.436-0.401   c0,0.009-0.072-0.036-0.109-0.046c-0.249-0.01-0.409-0.195-0.435-0.443c-0.023-0.04-0.039-0.086-0.05-0.129   c-0.003-0.012-0.006-0.034-0.01-0.06c-0.032-0.021-0.058-0.04-0.079-0.06c-0.025,0-0.054-0.001-0.077-0.002   c-0.05,0.027-0.102,0.05-0.141,0.059c-0.035,0.008-0.066,0.014-0.094,0.017c-0.047,0.036-0.109,0.074-0.19,0.1   c-0.05,0.017-0.19,0.042-0.242,0.042c-0.166,0-0.318-0.063-0.431-0.179c-0.134-0.138-0.169-0.304-0.176-0.437   c-0.017,0.001-0.028,0.002-0.031,0.002c-0.125,0.004-0.239,0.054-0.397,0.122c-0.118,0.051-0.239,0.103-0.373,0.143   c-0.093,0.027-0.193,0.041-0.305,0.041l-0.137-0.005l-0.08-0.503L46.3,69.979c-0.028,0.049-0.089,0.092-0.127,0.112   c-0.177,0.099-0.32,0.127-0.437,0.15c-0.17,0.038-0.314,0.092-0.442,0.149c-0.096,0.128-0.244,0.207-0.424,0.203   c-0.108,0.05-0.209,0.093-0.311,0.129c-0.168,0.062-0.319,0.116-0.521,0.13c-0.117,0.001-0.18-0.004-0.244-0.011   c-0.089,0.004-0.175,0.058-0.235,0.098c-0.125,0.083-0.266,0.177-0.438,0.236c-0.129,0.043-0.27,0.034-0.392-0.03   c-0.121-0.062-0.211-0.172-0.249-0.303c-0.04-0.136-0.046-0.255-0.043-0.349c-0.125-0.043-0.229-0.052-0.331-0.023   c-0.159,0.085-0.529,0.166-0.788-0.022c-0.086-0.062-0.148-0.151-0.181-0.253c-0.005-0.002-0.009-0.005-0.011-0.006   c-0.288-0.197-0.401-0.464-0.492-0.678c-0.025-0.058-0.05-0.118-0.08-0.177c-0.017-0.031-0.044-0.067-0.07-0.105   c-0.081-0.118-0.172-0.251-0.216-0.404c-0.026-0.092-0.037-0.164-0.046-0.229c-0.061-0.081-0.394-0.361-0.543-0.473   c-0.095-0.01-0.281,0.002-0.434,0.013c-0.121,0.01-0.237,0.018-0.342,0.019l-0.198,0.006c-0.083,0-0.209-0.005-0.346-0.05   c-0.329-0.105-0.444-0.337-0.501-0.448c-0.068-0.117-0.125-0.157-0.146-0.163c-0.166-0.004-0.374,0.001-0.549-0.177   c-0.184-0.187-0.179-0.432-0.178-0.512l0.009-0.16c0.001-0.006,0.001-0.012,0.002-0.019c-0.348-0.146-0.45-0.515-0.497-0.682   l-0.068-0.208c-0.069-0.189-0.155-0.426-0.15-0.696c0.001-0.056,0.007-0.153,0.014-0.273c0.01-0.164,0.034-0.569,0.025-0.849   c-0.109-0.014-0.212-0.055-0.3-0.119c-0.058-0.04-0.252-0.178-0.316-0.708c-0.004-0.025-0.005-0.05-0.006-0.073   c-0.224-0.036-0.351-0.226-0.361-0.465c-0.003-0.002-0.012-0.014-0.023-0.028c-0.001,0.001-0.002,0.001-0.002,0.001   c-0.077,0.06-0.183,0.141-0.324,0.187c-0.002,0.001-0.099,0.031-0.101,0.032c-0.116,0.036-0.16,0.05-0.249,0.105   c-0.195,0.12-0.317,0.145-0.445,0.162c-0.163,0.067-0.298,0.146-0.479,0.146c-0.248,0-0.463-0.15-0.574-0.401   c-0.164-0.373-0.022-0.671,0.113-0.86c-0.18-0.135-0.251-0.302-0.295-0.405l0.408-0.31l-0.454,0.208   c-0.027-0.06-0.06-0.13-0.083-0.172c-0.013-0.001-0.038-0.001-0.074,0l-0.349,0.011c-0.077,0-0.151-0.004-0.224-0.014   c-0.214,0.008-0.442-0.065-0.584-0.385c-0.104-0.219-0.027-0.62-0.026-0.624c0.02-0.082,0.054-0.179,0.09-0.274l0.042-0.116   c0.039-0.118,0.1-0.224,0.168-0.313c-0.016-0.058-0.032-0.116-0.049-0.141c-0.034-0.018-0.126-0.09-0.201-0.226   c-0.005-0.008-0.009-0.017-0.014-0.025c-0.154,0.004-0.373,0.006-0.686,0.006h-0.479c-0.221,0-0.372-0.038-0.506-0.072   c-0.05-0.013-0.103-0.026-0.162-0.037c-0.358-0.063-0.751-0.038-1.277,0.049c-0.549,0.089-0.859-0.167-1.101-0.366   c-0.05-0.042-0.104-0.086-0.163-0.129c-0.053-0.012-0.117-0.04-0.166-0.071c-0.02-0.012-0.051-0.036-0.081-0.063   c-0.029,0.008-0.065,0.019-0.078,0.019c-0.218,0-0.366-0.087-0.452-0.159c-0.018-0.016-0.036-0.036-0.055-0.06   c-0.029,0.071-0.071,0.145-0.132,0.215c-0.294,0.335-0.807,0.443-1.017,0.476c0.003,0.031,0.004,0.061,0.004,0.085   c0.055,0.579-0.197,0.785-0.418,0.865c-0.038,0.013-0.104,0.027-0.161,0.034c-0.001,0.05-0.006,0.106-0.011,0.166   c-0.003,0.031-0.007,0.064-0.009,0.096c0.079,0.078,0.171,0.193,0.209,0.364c0.097,0.457-0.24,0.823-0.623,0.951   c-0.188,0.063-0.501,0.07-0.715,0.042c-0.286-0.04-0.474-0.167-0.56-0.377c-0.092-0.013-0.18-0.041-0.261-0.085   c-0.19-0.1-0.397-0.317-0.455-0.386c-0.218-0.253-0.214-0.542-0.212-0.715c0.003-0.095,0.006-0.133,0.002-0.167   c-0.188-0.123-0.328-0.195-0.491-0.209c-0.241-0.02-0.433-0.209-0.457-0.449c0.033-0.013-0.004-0.025-0.125-0.025l-0.202,0.006   c-0.085,0.004-0.17,0.008-0.253,0.008c-0.009,0-0.107-0.002-0.115-0.003c-0.549-0.027-0.792-0.371-0.927-0.627   c-0.072-0.135-0.169-0.316-0.126-0.62c0.021-0.136,0.066-0.239,0.098-0.307c0.003-0.05,0.014-0.099,0.031-0.144   c-0.051-0.053-0.104-0.1-0.136-0.121c-0.416-0.192-0.562-0.583-0.668-0.868c-0.047-0.124-0.091-0.242-0.143-0.302   c-0.06-0.066-0.104-0.133-0.146-0.195c-0.062-0.04-0.242-0.016-0.381-0.006c-0.396,0.022-0.711-0.043-0.944-0.12   c-0.08-0.027-0.154-0.052-0.22-0.065c-0.087,0.103-0.213,0.169-0.354,0.178c-0.003,0.004-0.041,0.02-0.082,0.034   c-0.142,0.05-0.318,0.113-0.509,0.113c-0.298,0-0.543-0.158-0.657-0.424c-0.049-0.113-0.062-0.215-0.065-0.292   c-0.437,0-0.459,0.009-0.516,0.057c-0.043,0.037-0.084,0.102-0.132,0.176c-0.084,0.129-0.188,0.29-0.371,0.426   c-0.028,0.021-0.055,0.039-0.079,0.055c-0.001,0.055,0.002,0.105,0.005,0.156l0.006,0.179c0.001,0.18,0.002,0.345-0.073,0.531   c0.176,0.065,0.358,0.199,0.442,0.481c0.074,0.249,0.051,0.46-0.071,0.624c-0.066,0.089-0.193,0.165-0.318,0.203   c-0.004,0.015-0.009,0.028-0.013,0.04l0.068,0.15c0.079,0.193,0.135,0.328,0.156,0.512c0.016,0.135-0.022,0.298-0.109,0.403   s-0.21,0.197-0.346,0.208c-0.044,0.003-0.06,0.005-0.112,0.037c-0.166,0.107-0.331,0.216-0.614,0.216   c-0.263-0.002-0.541-0.004-0.817-0.252c-0.073,0.09-0.162,0.169-0.271,0.216c-0.164,0.069-0.35,0.066-0.553,0.032   c0.014-0.016,0.027-0.028,0.039-0.039c-0.045,0.037-0.093,0.075-0.152,0.108c0.005,0.086,0.005,0.145-0.001,0.197   c-0.031,0.255-0.163,0.402-0.271,0.484c0.014,0.134,0.008,0.315-0.102,0.5c-0.104,0.177-0.249,0.264-0.336,0.315   c-0.022,0.022-0.042,0.08-0.062,0.137c-0.036,0.097-0.073,0.192-0.122,0.284c-0.024,0.046-0.052,0.085-0.076,0.116   c0.003,0.043,0.006,0.088,0.006,0.096c0.003,0.27,0.006,0.512-0.207,0.809c0.062,0.072,0.181,0.212,0.197,0.419   c0.021,0.252-0.148,0.479-0.396,0.531l-0.006,0.012c-0.136,0.076-0.297,0.085-0.438,0.024c-0.059-0.025-0.111-0.061-0.155-0.104   c-0.032,0.006-0.069,0.01-0.105,0.013c-0.146,0.015-0.223,0.013-0.396,0.025c-0.131,0.008-0.29,0.019-0.439,0.019   c-0.22,0-0.732,0-0.914-0.418c-0.1-0.232-0.065-0.463-0.037-0.648c0.004-0.027,0.01-0.056,0.014-0.082   c-0.077-0.088-0.159-0.201-0.187-0.36c-0.014-0.08,0.001-0.185,0.033-0.283c-0.089-0.1-0.199-0.305-0.143-0.574   c0.023-0.114,0.073-0.208,0.124-0.285c0.001-0.053,0.01-0.106,0.027-0.158l0.097-0.28c-0.015-0.039-0.035-0.081-0.062-0.129   c-0.065-0.051-0.118-0.119-0.151-0.2l-0.19-0.463c-0.562-0.029-0.919-0.339-0.921-0.787c0-0.163,0.063-0.284,0.121-0.363   c-0.006-0.043-0.013-0.098-0.013-0.104l0.002-0.159c0.002-0.117,0.004-0.228-0.013-0.308l-0.097-0.275   C6.098,57.844,6.02,57.77,5.99,57.749c-0.043,0.014-0.186-0.016-0.318-0.12c-0.335-0.258-0.316-0.617-0.308-0.79   c0.002-0.056,0.004-0.101,0.007-0.143c-0.206-0.029-0.382-0.143-0.493-0.322c-0.195-0.316-0.099-0.991-0.078-1.07   c0.021-0.095,0.062-0.169,0.1-0.223c-0.006-0.049-0.015-0.122-0.015-0.132l0.004-0.175c0.004-0.087,0.009-0.195-0.005-0.24   c-0.085-0.148-0.165-0.286-0.189-0.485c-0.014-0.102-0.016-0.197-0.016-0.289c-0.001-0.101-0.002-0.142-0.016-0.173   C4.576,53.395,4.5,53.225,4.5,52.928c0-0.182,0.037-0.347,0.069-0.491c0.027-0.124,0.054-0.241,0.045-0.327   c-0.015-0.154,0.042-0.306,0.154-0.412s0.268-0.155,0.42-0.131c0.252,0.039,0.478,0.194,0.638,0.435   c0.185-0.113,0.363-0.116,0.469-0.118c0.003,0,0.098-0.002,0.102-0.002c0.083,0,0.159,0.007,0.229,0.019   c0.063-0.383,0.339-0.556,0.59-0.556c0.062,0,0.15,0.023,0.23,0.055c0.043-0.149,0.154-0.272,0.304-0.329   c0.182-0.195,0.339-0.266,0.594-0.279l0.154-0.007c0.143,0,0.265,0.028,0.374,0.085c0.16,0.084,0.293,0.238,0.387,0.384   c0.142-0.046,0.267-0.046,0.318-0.046l0.115,0.004c0.007-0.021,0.017-0.046,0.024-0.065c0.043-0.113,0.093-0.242,0.178-0.355   c0.084-0.109,0.182-0.175,0.274-0.215c-0.062-0.065-0.127-0.16-0.166-0.294c-0.035-0.125-0.029-0.233-0.026-0.297   c-0.091-0.175-0.183-0.345-0.18-0.624l0.008-0.226c0.003-0.058,0.006-0.116,0.007-0.173c-0.138-0.039-0.274-0.137-0.367-0.354   c-0.076-0.179-0.055-0.363-0.038-0.498l-0.013-0.135c-0.002-0.005-0.03-0.09-0.032-0.096c-0.019-0.061-0.046-0.122-0.071-0.181   c-0.095-0.219-0.236-0.551-0.047-0.872c0.085-0.144,0.206-0.232,0.326-0.286c0.029-0.088,0.066-0.17,0.113-0.264   c0.019-0.035,0.02-0.037,0.018-0.177l-0.008-0.205c-0.014-0.246-0.028-0.524,0.05-0.788c0.028-0.092,0.063-0.176,0.101-0.257   c-0.08-0.022-0.153-0.058-0.218-0.106c-0.13-0.101-0.174-0.224-0.213-0.332c-0.262-0.106-0.396-0.341-0.363-0.654   c0.045-0.448,0.4-0.611,0.535-0.672l0.549,0.121l-0.459-0.199c0.057-0.23,0.105-0.417,0.322-0.525   c0.069-0.035,0.185-0.059,0.263-0.059c0.202,0,0.575,0.119,0.76,0.264c0.045-0.168,0.088-0.309,0.13-0.433l0.045-0.141   c0.109-0.352,0.259-0.833,0.663-1.122c0.068-0.048,0.129-0.078,0.189-0.105c0.046-0.053,0.078-0.092,0.109-0.126   c-0.019-0.022-0.036-0.046-0.053-0.073c-0.152-0.246-0.125-0.547-0.101-0.813c0.005-0.052,0.01-0.099,0.01-0.133l-0.001-0.22   c-0.001-0.099-0.002-0.198-0.001-0.296c-0.075-0.042-0.14-0.103-0.187-0.181c-0.097-0.159-0.09-0.355,0.003-0.51   c0.041-0.105,0.125-0.264,0.192-0.319c0.068-0.056,0.183-0.124,0.344-0.136c0.006-0.012,0.014-0.024,0.02-0.035   c0.027-0.046,0.053-0.089,0.079-0.127c0.103-0.154,0.299-0.322,0.521-0.445c-0.01-0.288,0.109-0.495,0.348-0.641   c0.298-0.185,0.583-0.121,0.805-0.102l0,0c0-0.131,0.021-0.321,0.176-0.481c0.124-0.128,0.293-0.193,0.503-0.193   c0.016,0,0.102,0.004,0.117,0.005c0.203,0.019,0.374,0.159,0.433,0.354c0.002,0.004,0.003,0.008,0.004,0.013   c0.144-0.069,0.281-0.08,0.386-0.08c0.002,0,0.018,0,0.035,0c0.001-0.001,0.001-0.003,0.001-0.005   c0.09-0.439,0.499-0.68,0.958-0.55c0.019-0.08,0.05-0.151,0.099-0.224c0.093-0.246,0.229-0.615,0.722-0.661   c0.352-0.024,0.64,0.124,0.872,0.378l0.131,0.012c0.005,0,0.12-0.002,0.125-0.002c0.344,0,0.505,0.119,0.641,0.241   c0.018,0.016,0.038,0.035,0.066,0.056c0.002-0.008,0.044-0.019,0.119-0.055c0.131-0.141,0.257-0.268,0.452-0.326   c0.112-0.034,0.222-0.039,0.305-0.039c0.005,0,0.099,0.002,0.104,0.002h0.047c0.015-0.03,0.046-0.093,0.051-0.102   c0.059-0.104,0.09-0.152,0.105-0.195c0.007-0.021,0.008-0.047,0.009-0.099c0.005-0.145,0.012-0.387,0.235-0.64   c0.142-0.166,0.237-0.275,0.325-0.354c0.167-0.153,0.247-0.233,0.361-0.397c0.169-0.242,0.303-0.421,0.478-0.518   c0.171-0.098,0.403-0.111,0.656-0.083c0.039,0.004,0.077,0.01,0.111,0.01c0.042-0.005,0.123-0.041,0.185-0.096   c0.052-0.13,0.172-0.379,0.499-0.473c0.068-0.02,0.129-0.031,0.179-0.037c0.012-0.036,0.023-0.082,0.031-0.116   c0.055-0.229,0.156-0.655,0.646-0.806c0.068-0.021,0.137-0.032,0.209-0.035c-0.008-0.121,0.004-0.242,0.059-0.366   c0.144-0.329,0.388-0.378,0.521-0.378c0.001,0,0.003,0,0.004,0c0.02-0.013,0.039-0.026,0.06-0.04   c0.004-0.002,0.089-0.058,0.092-0.061c0.156-0.1,0.307-0.137,0.417-0.163c0.121-0.047,0.155-0.089,0.193-0.13   c0.16-0.172,0.401-0.432,0.784-0.432c0.164,0,0.323,0.05,0.475,0.147c0.202,0.13,0.285,0.316,0.325,0.458   c0.084,0.001,0.165,0.013,0.242,0.035c0.229,0.067,0.414,0.238,0.507,0.468c0.097,0.237,0.08,0.508-0.043,0.726   c-0.04,0.07-0.076,0.12-0.107,0.16c0,0.146,0,0.266-0.001,0.386l-0.001,0.189c0,0.05-0.005,0.114-0.011,0.185   c-0.002,0.028-0.006,0.069-0.008,0.107c0.003,0.002,0.007,0.004,0.01,0.006c0.074,0.042,0.166,0.096,0.25,0.172   c0.32,0.284,0.41,0.586,0.299,1.006c-0.027,0.105-0.032,0.196-0.039,0.294l-0.019,0.214c-0.034,0.266-0.139,0.418-0.236,0.534   c0.186,0.177,0.24,0.36,0.236,0.666l0.004,0.185c0.012,0.281,0.027,0.689-0.261,1.025c0.126-0.081,0.349-0.117,0.611-0.081   c-0.013,0.021,0.033,0.003,0.135-0.088c0.057-0.126,0.128-0.265,0.265-0.371c0.046-0.035,0.177-0.135,0.494-0.135   c0.071,0,0.231,0.025,0.296,0.055c0.327,0.156,0.379,0.394,0.373,0.549c0.013,0.044,0.023,0.092,0.033,0.141   c0.204,0.303,0.264,0.435,0.265,0.829c0.002,0.191,0.005,0.623-0.421,0.824c0.098,0.034,0.186,0.076,0.252,0.117   c0.072-0.07,0.162-0.128,0.277-0.166c0.051-0.017,0.202-0.042,0.255-0.042c0.281,0,0.471,0.153,0.572,0.235   c0.077,0.052,0.18,0.075,0.284,0.075c0.003,0,0.125,0,0.128,0.001c0,0,0.15-0.007,0.15-0.007c0.253-0.154,0.552-0.188,0.822-0.073   c0.127,0.043,0.32,0.108,0.464,0.317c0.08,0.121,0.104,0.239,0.108,0.328c0.086,0.091,0.15,0.22,0.157,0.339   c0.005,0.078-0.008,0.146-0.028,0.208c0.12,0.004,0.235,0.03,0.345,0.078c0.094,0.041,0.164,0.097,0.218,0.157   c0.164-0.02,0.231-0.01,0.312-0.004c0.342,0.016,0.82,0.132,0.804,0.783c0.01,0.096,0.035,0.185,0.062,0.251   c0.041-0.021,0.096-0.051,0.161-0.091c0.003-0.001,0.006-0.003,0.009-0.005c-0.057-0.077-0.113-0.177-0.146-0.315   c-0.003-0.011-0.18-0.841,0.35-1.125c0.072-0.039,0.218-0.073,0.3-0.073c0.154,0,0.29,0.05,0.399,0.09   c0.21,0.019,0.439,0.192,0.492,0.397c0.043,0.166,0.043,0.312,0.042,0.429c0,0.01,0,0.021,0,0.031c0.075,0,0.202,0.021,0.268,0.049   c0.398,0.175,0.413,0.557,0.405,0.74c0.119,0.015,0.234,0.047,0.35,0.12c0.066,0.044,0.145,0.101,0.223,0.162   c0.091,0.073,0.18,0.148,0.243,0.21c0.02-0.037,0.042-0.075,0.068-0.113c0.048-0.071,0.102-0.135,0.155-0.197   c0.046-0.053,0.081-0.095,0.104-0.136c0.117-0.218,0.234-0.411,0.388-0.603c0.035-0.044,0.038-0.14,0.039-0.292   c0.002-0.246,0.005-0.583,0.262-0.881c0.208-0.237,0.418-0.386,0.626-0.445c0.134-0.038,0.251-0.044,0.338-0.049   c0.154-0.054,0.201-0.11,0.278-0.244c0.183-0.324,0.4-0.43,0.606-0.472c0.061-0.165,0.171-0.333,0.378-0.448   c0.166-0.092,0.404-0.105,0.642-0.085l0.195,0.002l0.174-0.005c0.134,0,0.541,0,0.729,0.348c0.084,0.156,0.138,0.413-0.084,0.75   c-0.056,0.083-0.119,0.148-0.185,0.198c0.173,0.149,0.218,0.335,0.22,0.495c0,0.02-0.001,0.04-0.003,0.06   c0.11-0.074,0.224-0.144,0.348-0.204c0.382-0.187,0.712-0.063,0.835,0.215c0.124,0.277-0.006,0.523-0.229,0.797   c0.087,0.038,0.162,0.099,0.216,0.178c0.077-0.021,0.144-0.028,0.188-0.032c0.337-0.038,0.692-0.037,0.934,0.058   c0.001-0.009,0.002-0.019,0.003-0.027c0.004-0.041,0.01-0.08,0.009-0.115c-0.001-0.041,0.004-0.082,0.013-0.122l0.187-0.808   c0.023-0.102,0.078-0.193,0.156-0.262c0.257-0.227,0.46-0.269,0.692-0.269l0.121,0.001c0.109-0.009,0.164-0.013,0.215-0.013   c0.04,0,0.159,0.013,0.197,0.022c0.104,0.025,0.182,0.069,0.235,0.108c0.114,0.001,0.184-0.003,0.248-0.008   c0.092-0.007,0.182-0.013,0.261-0.013c0.272-0.024,0.381-0.042,0.571-0.009v-0.186c0.002-0.14,0.036-0.272,0.068-0.383   c0.015-0.048,0.075-0.165,0.103-0.207c0.01-0.051,0.021-0.096,0.046-0.141c0.049-0.089,0.117-0.217,0.241-0.323   c0.184-0.158,0.398-0.184,0.526-0.199c0.071-0.025,0.171-0.073,0.302-0.09c0.074-0.009,0.185-0.004,0.261,0.005l0.091-0.021   c0.104-0.035,0.246-0.082,0.456-0.083c0.064-0.123,0.173-0.223,0.305-0.257c0.216-0.057,0.45-0.083,0.679-0.106l0.15-0.016   c0.006-0.003,0.051-0.027,0.083-0.045c0.123-0.067,0.308-0.168,0.553-0.168c0.04,0,0.175,0.017,0.213,0.026   c0.161,0.038,0.304,0.119,0.441,0.197c0.05,0.027,0.118,0.066,0.176,0.094c0.078-0.135,0.191-0.229,0.342-0.282   c0.09-0.033,0.25-0.045,0.339-0.029c0.05-0.08,0.116-0.146,0.194-0.194c-0.035-0.047-0.06-0.097-0.076-0.146   c-0.102-0.3,0.063-0.595,0.229-0.798c-0.151-0.027-0.266-0.073-0.357-0.138c-0.083-0.058-0.472-0.369-0.167-0.899   c-0.092,0.034-0.202,0.056-0.334,0.056l0,0c-0.218,0-0.43-0.059-0.556-0.094c-0.306-0.083-0.731-0.431-0.847-0.775   c-0.131-0.396-0.022-0.821,0.263-1.11c-0.04-0.04-0.071-0.083-0.095-0.123c-0.078-0.136-0.136-0.36,0.036-0.657   c0.113-0.189,0.138-0.232,0.153-0.305c0.028-0.125,0.081-0.217,0.116-0.277c0-0.011,0.001-0.031,0.005-0.058   c-0.002-0.038,0.001-0.076,0.009-0.114c0.04-0.179,0.186-0.375,0.361-0.425c0.298-0.085,0.582-0.021,0.764,0.17   c0.089,0.089,0.133,0.188,0.154,0.271c0.066,0.039,0.129,0.081,0.188,0.141c0.287,0.291,0.289,0.611,0.29,0.784   c0.01,0.109,0.001,0.201-0.021,0.279c0.145,0.064,0.316,0.181,0.411,0.287c0.115,0.126,0.163,0.261,0.175,0.386   c0.082-0.024,0.177-0.036,0.283-0.036c0.142,0,0.354,0,0.528,0.178c0.099,0.102,0.14,0.216,0.156,0.32   c0.014,0.005,0.026,0.012,0.039,0.018c0.066,0.011,0.131,0.035,0.19,0.073c0.001,0,0.001,0.001,0.002,0.001l0,0l0,0   c0.291,0.188,0.403,0.605,0.364,0.921c-0.022,0.174-0.091,0.326-0.194,0.439l0,0c0.02,0,0.111,0.005,0.13,0.007   c0.472,0.055,0.674,0.355,0.705,0.595c0.018,0.134-0.01,0.291-0.107,0.433c0.017,0.021,0.033,0.044,0.048,0.07   c0.059-0.145,0.183-0.258,0.34-0.298c0.264-0.068,0.594-0.113,0.972,0.11c0.348,0.213,0.516,0.38,0.583,0.581   c0.009,0.028,0.017,0.057,0.022,0.083c0.195,0.022,0.421,0.09,0.602,0.335c0.2,0.269,0.183,0.586,0.171,0.796l-0.005,0.107   c-0.001,0.04,0.005,0.06,0.027,0.13c0.025,0.083,0.051,0.169,0.065,0.276c0.025,0.167,0.041,0.409-0.036,0.577   c-0.075,0.174-0.205,0.293-0.372,0.342c-0.015,0.016-0.028,0.033-0.043,0.049c-0.054,0.061-0.107,0.12-0.166,0.172   c-0.132,0.118-0.265,0.233-0.397,0.347c0.01,0.001,0.02,0.002,0.029,0.003c0.047,0.004,0.094,0.009,0.138,0.009   c0.095-0.106,0.263-0.278,0.534-0.278c0.175,0,0.312,0.072,0.408,0.144c0.095-0.04,0.199-0.062,0.314-0.064   c0.061-0.071,0.137-0.127,0.221-0.152c0.298-0.09,0.655-0.078,0.847-0.022c0.274,0.079,0.41,0.248,0.48,0.414   c0.06,0.022,0.115,0.055,0.164,0.096c0.157-0.135,0.362-0.225,0.503-0.24c0.365,0.001,0.496,0.109,0.586,0.197   c0.01-0.001,0.02-0.002,0.028-0.003c-0.03-0.141-0.073-0.434,0.113-0.678c0.2-0.263,0.504-0.273,0.685-0.279   c0.051-0.002,0.104-0.001,0.157-0.012c0.018-0.018,0.117-0.066,0.252-0.084l1.071-0.013c0.076,0,0.15,0.004,0.222,0.014   c0.579,0.08,0.633,0.458,0.623,0.734l-0.004,0.067c0.009,0.002,0.018,0.005,0.026,0.007c0.14,0.043,0.253,0.146,0.311,0.279   s0.055,0.286-0.01,0.417c-0.058,0.131-0.118,0.246-0.206,0.336c0.263,0.018,0.524,0.072,0.822,0.314c0-0.006,0-0.011-0.001-0.017   c-0.018-0.279-0.033-0.521,0.026-0.717c0.068-0.23,0.294-0.378,0.528-0.354c0.157,0.016,0.273,0.08,0.353,0.14   c0.03-0.012,0.057-0.021,0.075-0.025c0.035-0.007,0.069-0.011,0.102-0.014c0.03-0.09,0.081-0.188,0.171-0.279   c0.136-0.141,0.43-0.305,0.879-0.19c0.005,0.001,0.01,0.002,0.015,0.004c-0.054-0.177-0.035-0.427,0.256-0.667   c0.012-0.01,0.023-0.019,0.036-0.028c-0.027-0.005-0.053-0.012-0.078-0.02c-0.138-0.045-0.25-0.148-0.306-0.283   c-0.057-0.134-0.052-0.286,0.014-0.417l0.495,0.078l0.002-0.007l-0.429-0.195c0.01-0.121,0.058-0.212,0.136-0.278   c-0.014-0.001-0.111-0.006-0.129-0.007c-0.13-0.002-0.421-0.002-0.601-0.249c-0.174-0.238-0.093-0.494-0.058-0.603l0.024-0.136   c0-0.017,0-0.035,0.001-0.055c-0.148,0.138-0.339,0.201-0.523,0.21c-0.331,0.025-0.617-0.221-0.72-0.332   c-0.104-0.009-0.197-0.031-0.322-0.097c-0.203-0.109-0.337-0.234-0.401-0.375c-0.041-0.088-0.105-0.282-0.016-0.501   c-0.094-0.14-0.124-0.304-0.083-0.469c0.032-0.126,0.1-0.227,0.187-0.306c0.003-0.015,0.007-0.03,0.012-0.046   c0.044-0.151,0.188-0.3,0.347-0.372c0.002-0.002,0.004-0.004,0.006-0.005c-0.007-0.116-0.005-0.247,0.058-0.39   c0.098-0.227,0.314-0.366,0.58-0.366c0.014,0,0.094,0.004,0.107,0.006l0,0c0.134-0.117,0.271-0.214,0.451-0.249   c0.161-0.031,0.348-0.024,0.526-0.013l0.153,0.008c0.096,0.001,0.185,0.012,0.266,0.034c0.053-0.277,0.282-0.493,0.517-0.618   c0.064-0.034,0.141-0.064,0.216-0.092l0.126-0.059c0.061-0.038,0.144-0.089,0.247-0.125c0.216-0.074,0.472-0.037,0.63,0.002   c0.035,0.009,0.084,0.021,0.101,0.021l0,0c0.083,0.001,0.162,0.023,0.232,0.061l0.12-0.003c0.109,0,0.2,0.01,0.286,0.032   c0.197,0.05,0.346,0.214,0.373,0.417c0.047,0.337-0.127,0.611-0.518,0.813c-0.09,0.476-0.501,0.52-0.59,0.523   c-0.069-0.007-0.155-0.011-0.214-0.027c-0.061,0.059-0.222,0.205-0.458,0.205l0,0c-0.215,0-0.388-0.109-0.515-0.325   c-0.002,0.03-0.005,0.061-0.009,0.093c-0.016,0.125-0.082,0.372-0.225,0.569c0.116,0.257,0.024,0.562-0.134,0.739   c0.037-0.01,0.077-0.015,0.119-0.015l0.395-0.012c0.085,0,0.169,0.004,0.249,0.015c0.146,0.018,0.263,0.069,0.347,0.107   c0.214,0.019,0.462,0.202,0.513,0.411c0.021,0.084,0.028,0.169,0.025,0.253c0.066-0.02,0.138-0.037,0.212-0.045   c0.02-0.002,0.119-0.009,0.138-0.009c0.167,0,0.288,0.05,0.373,0.11c0.054-0.135,0.132-0.288,0.271-0.43   c0.377-0.387,1.071-0.328,1.456,0.109c0.02,0.021,0.036,0.042,0.052,0.063c0.122-0.036,0.229-0.059,0.358-0.059   c0.087,0.008,0.117-0.005,0.17-0.009c0.197-0.016,0.393-0.018,0.544,0.019c0.049,0.012,0.092,0.026,0.128,0.041   c0.056-0.045,0.125-0.086,0.209-0.114c0.004-0.017,0.008-0.035,0.012-0.052c0.129-0.49,0.698-0.922,0.954-1.054   c0.024-0.012,0.066-0.047,0.103-0.077c0.067-0.056,0.135-0.108,0.206-0.151c0.185-0.111,0.351-0.129,0.461-0.142   c0.136-0.021,0.192-0.046,0.255-0.07c0.281-0.108,0.702-0.229,1.026-0.088c0.392,0.168,0.42,0.539,0.402,0.777   c0.021,0,0.041,0,0.062-0.001l0.137-0.304c0.051-0.242,0.144-0.534,0.376-0.767c0.105-0.105,0.196-0.2,0.292-0.313   c0.145-0.174,0.313-0.294,0.449-0.392c0.148-0.106,0.286-0.243,0.424-0.377c0.101-0.098,0.201-0.195,0.305-0.286   c0.179-0.166,0.34-0.317,0.594-0.382c0.062-0.016,0.115-0.024,0.168-0.031l0.001-0.001c-0.007-0.007-0.014-0.014-0.021-0.021   c-0.026-0.029-0.067-0.052-0.138-0.091c-0.093-0.053-0.21-0.118-0.328-0.228c-0.358-0.336-0.313-0.946-0.05-1.283   c0.071-0.092,0.229-0.246,0.502-0.267c0.016-0.049,0.037-0.099,0.069-0.148c0.134-0.216,0.314-0.285,0.439-0.309   c0.021-0.063,0.039-0.108,0.061-0.155c0.236-0.509,0.686-0.711,1.021-0.797c0.023-0.051,0.051-0.103,0.087-0.162   c0.007-0.012,0.015-0.024,0.022-0.036c0.015-0.023,0.035-0.055,0.053-0.083c0.037-0.102,0.106-0.193,0.206-0.254   c0.155-0.097,0.343-0.129,0.578-0.111c0.059-0.062,0.133-0.111,0.215-0.136c0.128-0.039,0.246-0.044,0.335-0.044l0.104,0.501v-0.5   c0.068-0.007,0.117-0.034,0.15-0.052l0.118-0.062c0.034-0.017,0.108-0.046,0.196-0.079c-0.017-0.081-0.017-0.172,0.014-0.272   c0.099-0.331,0.437-0.423,0.548-0.453c0.103-0.028,0.21-0.041,0.337-0.042c0.013-0.029,0.028-0.059,0.047-0.088   c0.19-0.294,0.547-0.294,0.664-0.294c0.233,0.001,0.515,0.003,0.766,0.104c-0.055-0.14-0.071-0.339,0.052-0.597   c0.077-0.16,0.18-0.252,0.279-0.305c0.044-0.265,0.184-0.515,0.295-0.646c0.177-0.209,0.39-0.258,0.531-0.273   c0.05-0.085,0.132-0.183,0.274-0.255c0.05-0.025,0.104-0.042,0.159-0.05c0.044-0.056,0.101-0.097,0.176-0.132   c0.065-0.031,0.23-0.074,0.304-0.074c0.194,0,0.532,0.122,0.559,0.579c0.018,0.039,0.037,0.074,0.091,0.148   c0.147,0.182,0.191,0.293,0.216,0.498c0.009,0.087,0.004,0.163-0.002,0.222c0.029,0.03,0.059,0.063,0.086,0.102   c0.025-0.001,0.042-0.001,0.058-0.001c0.269,0,0.485,0.145,0.596,0.397c0.03,0.07,0.045,0.138,0.051,0.202   c0.196,0.026,0.355,0.111,0.475,0.255c0.168,0.206,0.345,0.719,0.026,1.046c-0.085,0.089-0.197,0.147-0.334,0.171   c-0.095,0.173-0.271,0.331-0.614,0.38c-0.007,0.001-0.016,0.002-0.026,0.003c-0.022,0.038-0.052,0.076-0.088,0.114   c-0.169,0.177-0.439,0.268-0.801,0.268l-0.277-0.008c-0.005,0.085-0.006,0.161-0.015,0.241c-0.022,0.18-0.042,0.25-0.129,0.397   c-0.105,0.182-0.222,0.279-0.336,0.334c0.06,0.057,0.226,0.221,0.29,0.343c0.127,0.235,0.153,0.938,0.044,1.191   c-0.001,0.001-0.001,0.002-0.002,0.003c0.05-0.015,0.104-0.024,0.162-0.027c0.192-0.004,0.366,0.088,0.459,0.252   c0.035,0.062,0.063,0.11,0.089,0.146c0.022-0.033,0.05-0.065,0.081-0.097c0.008-0.008,0.305-0.262,0.547-0.288   c0.018-0.001,0.125-0.01,0.142-0.01c0.082,0,0.474,0.024,0.56,0.474c0.033-0.002,0.062-0.004,0.087-0.005   c0.085-0.007,0.126-0.01,0.164-0.01c0.292,0,0.523,0.165,0.617,0.439c0.092,0.268,0.022,0.517-0.207,0.742   c-0.073,0.081-0.131,0.137-0.188,0.192l-0.068,0.086c-0.029,0.056-0.069,0.133-0.137,0.214c-0.044,0.053-0.09,0.096-0.137,0.131   c0.228,0.321,0.084,0.716,0.007,0.911c0.025,0.047,0.049,0.105,0.066,0.173c0.04,0.16,0.055,0.551-0.009,0.756   c-0.046,0.144-0.124,0.24-0.188,0.301c0.005,0.049,0.012,0.118,0.012,0.125c0.001,0.256,0.002,0.5-0.099,0.789   c0.034,0.032,0.065,0.069,0.095,0.113c0.244,0.372,0.087,1.117,0.066,1.208c0.021,0.021,0.04,0.044,0.059,0.069   c0.153,0.209,0.217,0.449,0.269,0.642c0.006,0.023,0.012,0.046,0.019,0.068c0.051,0.079,0.08,0.172,0.08,0.273   c0,0.276-0.224,0.5-0.5,0.5c-0.005,0-0.012,0-0.02,0c-0.005,0-0.01,0-0.015,0c-0.237-0.007-0.405-0.119-0.521-0.229   c0.002,0.042,0.002,0.084,0.002,0.119c0,0.172,0,0.35-0.051,0.521c-0.036,0.121-0.116,0.222-0.221,0.285   c-0.021,0.071-0.03,0.112-0.029,0.157l0.004,0.132c0.008,0.169,0.018,0.381-0.046,0.59c-0.07,0.236-0.303,0.388-0.54,0.353   c-0.016,0.146-0.057,0.305-0.151,0.443c0.123,0.002,0.635,0.049,0.642,0.706c0.098,0.138,0.205,0.271,0.251,0.456   c0.052,0.212,0.023,0.37-0.028,0.482c0.033,0.001,0.102,0.006,0.125,0.01c0.395,0.063,0.602,0.287,0.614,0.666   c0.015,0.002,0.028,0.003,0.041,0.005c0.573,0.069,0.846,0.552,0.948,0.734c0.068,0.119,0.094,0.233,0.109,0.302   c0.011,0.023,0.02,0.049,0.027,0.075c0.019,0.021,0.035,0.044,0.05,0.069l0.096,0.161c0.155,0.158,0.235,0.286,0.265,0.542   c0.01,0.082,0.01,0.158,0.009,0.23c0.016,0.104,0.037,0.118,0.195,0.175l0.158,0.06c0.119,0.011,0.281,0.054,0.45,0.244   c0.189,0.208,0.223,0.443,0.243,0.583c0.001,0.024-0.002,0.023-0.012,0.012c0.092,0.132,0.222,0.429-0.146,0.763   c-0.063,0.058-0.135,0.101-0.203,0.137c0.022,0.047,0.044,0.096,0.067,0.16l0.049,0.145c0.009,0.028,0.021,0.071,0.036,0.113   c0.134,0.003,0.346,0.085,0.438,0.178c0.2,0.201,0.188,0.464,0.178,0.657c0.107,0.495,0.103,0.804-0.254,1.229   c-0.035,0.041-0.07,0.083-0.103,0.125c0.104,0.084,0.202,0.183,0.269,0.313c0.021,0.042,0.037,0.087,0.046,0.133l0.018,0.092   c0.059,0.066,0.115,0.142,0.151,0.242c0.044,0.126,0.046,0.237,0.043,0.315c0.081,0.099,0.151,0.209,0.189,0.41   c0.025,0.135,0.043,0.27,0.06,0.403l0.034,0.246c0.059,0.203,0.108,0.365,0.085,0.548c-0.025,0.234-0.169,0.44-0.37,0.564   c0.167,0.125,0.269,0.318,0.269,0.548c-0.003,0.154-0.044,0.266-0.069,0.333c-0.017,0.213-0.178,0.411-0.385,0.463   c-0.112,0.028-0.243,0.044-0.369,0.044c-0.512,0-0.729-0.251-0.812-0.4c-0.185-0.329-0.094-0.582-0.022-0.703   c0.118-0.203,0.313-0.293,0.491-0.333c-0.021-0.02-0.04-0.039-0.056-0.058c-0.037,0-0.089-0.015-0.137-0.033   c-0.173-0.07-0.49-0.198-0.473-0.641c-0.013-0.175-0.062-0.343-0.139-0.526c-0.016-0.04-0.101-0.093-0.227-0.113   c-0.029,0.006-0.094,0.014-0.152,0.027c-0.102,0.025-0.228,0.057-0.377,0.057c-0.242-0.009-0.695-0.097-0.738-0.708   c-0.41-0.06-0.562-0.277-0.639-0.388c-0.048-0.004-0.099-0.012-0.153-0.029c-0.212-0.066-0.348-0.211-0.42-0.289   c-0.138-0.146-0.216-0.284-0.286-0.406c-0.036-0.063-0.07-0.128-0.116-0.185c-0.016-0.019-0.031-0.034-0.058-0.054   c-0.088-0.019-0.207-0.06-0.307-0.169c-0.135-0.146-0.154-0.323-0.168-0.44c-0.084-0.061-0.165-0.122-0.238-0.197   c-0.137-0.065-0.244-0.187-0.278-0.339l-0.035-0.152c-0.104-0.205-0.173-0.4-0.214-0.61c-0.033-0.068-0.061-0.143-0.073-0.201   c-0.014-0.066-0.028-0.117-0.043-0.169c0-0.003-0.027-0.101-0.027-0.104c-0.025-0.098-0.032-0.183-0.035-0.245   c-0.013-0.008-0.025-0.015-0.038-0.022c-0.101-0.062-0.252-0.155-0.381-0.342c-0.132-0.183-0.305-0.423-0.262-0.739   c0.032-0.251,0.193-0.422,0.3-0.536c0.023-0.024,0.049-0.047,0.067-0.073L87.76,45.95l-0.108-0.237   c-0.124-0.296-0.134-0.582-0.134-0.872c0.003-0.535-0.031-0.919-0.119-1.329c-0.006-0.031-0.012-0.062-0.018-0.094   c-0.306,0.187-0.624,0.081-0.902-0.046c-0.163-0.062-0.275-0.079-0.4-0.101c-0.293-0.049-0.452-0.211-0.557-0.318   c-0.004-0.003-0.007-0.006-0.01-0.01c-0.093,0.094-0.211,0.146-0.354,0.153c-0.003,0.032-0.007,0.062-0.011,0.091   c-0.026,0.164-0.094,0.283-0.138,0.363c-0.04,0.078-0.046,0.106-0.057,0.169c-0.009,0.052-0.02,0.105-0.033,0.163   c-0.01,0.036-0.056,0.152-0.073,0.186c-0.002,0.027-0.002,0.113,0.002,0.186c0.019,0.006,0.038,0.012,0.06,0.02   c0.746,0.158,0.753,0.637,0.724,0.835c-0.04,0.269-0.229,0.475-0.381,0.641c-0.007,0.007-0.014,0.015-0.02,0.021   c0.04,0.083,0.062,0.165,0.072,0.239c0.069-0.031,0.145-0.046,0.224-0.046c0.094,0,0.254,0.052,0.334,0.103   c0.379,0.242,0.26,0.714,0.215,0.892c-0.13,0.464-0.38,0.722-0.746,0.782c0.029,0.262,0.059,0.591-0.204,0.852   c-0.215,0.21-0.667,0.314-0.861,0.314c-0.272-0.001-0.497-0.124-0.62-0.336c-0.006-0.009-0.011-0.019-0.016-0.029   c-0.014,0.007-0.027,0.014-0.041,0.021c-0.165,0.085-0.352,0.181-0.563,0.229c-0.036,0.008-0.077,0.021-0.112,0.034   c-0.004,0.019-0.008,0.038-0.013,0.058c-0.017,0.064-0.034,0.114-0.053,0.161c-0.003,0.207,0.003,0.36-0.04,0.529   c-0.053,0.202-0.226,0.35-0.433,0.371l-0.447-0.314l0.318,0.392c-0.079,0.087-0.199,0.22-0.39,0.274   c-0.012,0.005-0.023,0.01-0.035,0.014c-0.07,0.024-0.144,0.033-0.214,0.033c0.002,0.016,0.002,0.031,0.002,0.047   c0,0.287-0.243,0.517-0.531,0.499c-0.101-0.002-0.197-0.035-0.278-0.092c-0.014,0.012-0.027,0.024-0.038,0.034l-0.285,0.236   c-0.124,0.099-0.243,0.193-0.36,0.311c-0.005,0.006-0.046,0.043-0.068,0.063c0.008,0.077,0.01,0.163-0.012,0.256   c-0.033,0.141-0.101,0.235-0.137,0.286c-0.029,0.171-0.048,0.262-0.076,0.342c-0.029,0.081-0.041,0.17-0.056,0.282   c0,0.002-0.014,0.101-0.014,0.104c-0.033,0.22-0.112,0.362-0.175,0.477c-0.001,0.002-0.032,0.06-0.057,0.106   c0.005,0.019,0.01,0.034,0.012,0.049c0.047,0.267,0.076,0.549-0.026,0.807c-0.077,0.197-0.203,0.324-0.287,0.408   c-0.05,0.157-0.04,0.296-0.031,0.437c0.016,0.248,0.033,0.53-0.013,0.807c-0.031,0.181-0.102,0.334-0.164,0.47   c-0.027,0.061-0.056,0.119-0.075,0.179c-0.049,0.156-0.049,0.294-0.049,0.521c0.001,0.23,0.002,0.441-0.114,0.707   c-0.007,0.015-0.057,0.11-0.065,0.124c0.001,0.048,0.005,0.14-0.021,0.251c-0.005,0.021-0.011,0.041-0.017,0.06   c0.062-0.014,0.13-0.022,0.173-0.022c0.112,0,0.324,0.017,0.483,0.127c0.078,0.051,0.138,0.111,0.183,0.175   c0.044-0.027,0.092-0.052,0.145-0.071c0.021-0.007,0.05-0.015,0.083-0.021c-0.008-0.051-0.009-0.104-0.002-0.161   c0.025-0.21,0.16-0.384,0.369-0.477c0.174-0.076,0.373-0.071,0.598-0.036c0.016,0.003,0.03,0.006,0.046,0.008   c0.054-0.036,0.126-0.072,0.219-0.095c0.107-0.026,0.255-0.025,0.405-0.014l0,0c0.003,0,0.104,0.006,0.106,0.006   c0.357,0,0.709,0.144,1.002,0.403c0.008-0.018,0.016-0.033,0.023-0.049c0.043-0.1,0.084-0.186,0.135-0.265   c-0.166-0.162-0.193-0.358-0.195-0.479c-0.019-0.052-0.028-0.108-0.028-0.166c0-0.001,0-0.001,0-0.002   c0-0.076,0.017-0.147,0.046-0.212c0.027-0.06,0.063-0.115,0.107-0.159c0.157-0.158,0.429-0.191,0.609-0.089   c0.224,0.039,0.418,0.127,0.548,0.238c0.161,0.142,0.215,0.308,0.23,0.444c0.089,0.04,0.347,0.171,0.445,0.349   c0.038,0.067,0.064,0.162,0.073,0.254c0.03,0.023,0.073,0.063,0.107,0.099c0.168,0.074,0.381,0.183,0.448,0.438   c0.021,0.083,0.021,0.169,0.002,0.25c0.004,0.007,0.008,0.014,0.012,0.021c0.068,0.114,0.09,0.207,0.104,0.263   c0.03,0.094,0.049,0.185,0.064,0.28l0.001,0.001c0.193,0.037,0.311,0.119,0.435,0.297l0.075,0.117   c0.092,0.036,0.167,0.068,0.228,0.083c0.166,0.033,0.367,0.073,0.553,0.247c0.173,0.163,0.204,0.35,0.22,0.439   c0.034-0.014,0.11,0.019,0.184,0.079c0.058,0.048,0.116,0.115,0.169,0.181c0.104,0.111,0.148,0.158,0.2,0.233   c0.021,0.031,0.052,0.061,0.08,0.091c0.139,0.149,0.398,0.427,0.325,0.854c-0.038,0.217-0.206,0.515-0.447,0.653   c0.113,0.084,0.234,0.175,0.313,0.32c0.108,0.205,0.103,0.396,0.088,0.53c0.15,0.13,0.207,0.277,0.227,0.397   c0.16,0.073,0.258,0.195,0.319,0.271l0.13,0.003c0.213,0,0.709,0,0.978,0.554c0.021,0.047,0.052,0.11,0.067,0.129   c0.316,0.222,0.336,0.497,0.296,0.688c-0.062,0.315-0.337,0.539-0.669,0.539H88.98c-0.104,0-0.206-0.022-0.298-0.064   c0.047,0.178,0.045,0.343-0.001,0.512c-0.06,0.221-0.304,0.375-0.492,0.369c-0.442-0.009-0.89-0.673-0.895-0.68   c-0.028-0.042-0.07-0.15-0.093-0.221c-0.033-0.041-0.071-0.09-0.084-0.11c-0.083-0.149-0.095-0.266-0.102-0.328   c-0.021-0.053-0.044-0.11-0.056-0.184c-0.001-0.005-0.004-0.034-0.008-0.064c-0.096-0.042-0.2-0.109-0.287-0.228   c-0.146-0.205-0.158-0.426-0.166-0.558c-0.019-0.035-0.035-0.095-0.045-0.134c-0.005-0.021-0.009-0.041-0.012-0.062   c-0.052-0.031-0.097-0.071-0.133-0.112c-0.134-0.158-0.225-0.327-0.292-0.451c-0.033-0.064-0.071-0.109-0.113-0.163l-0.082-0.111   c-0.02-0.028-0.037-0.058-0.064-0.084c-0.069-0.057-0.154-0.126-0.216-0.232c-0.028-0.05-0.053-0.133-0.066-0.212   c-0.051-0.058-0.108-0.132-0.15-0.231c-0.035-0.081-0.082-0.154-0.132-0.234c0-0.001-0.064-0.105-0.064-0.106   c-0.023-0.037-0.046-0.077-0.073-0.111c-0.061-0.041-0.185-0.14-0.254-0.311c-0.054-0.146-0.053-0.264-0.052-0.334   c-0.004-0.009-0.044-0.116-0.047-0.125c-0.031-0.097-0.044-0.135-0.053-0.144c-0.056-0.054-0.118-0.092-0.182-0.134   c-0.032-0.021-0.062-0.043-0.089-0.064c-0.017,0.116-0.048,0.223-0.088,0.294c-0.014,0.025-0.028,0.049-0.043,0.07   c0.214,0.26,0.216,0.555,0.214,0.742c0.08,0.018,0.165,0.048,0.25,0.104c0.248,0.168,0.309,0.408,0.341,0.538   c0.14,0.243,0.193,0.377,0.188,0.639c0,0.004-0.003,0.102-0.004,0.105c-0.002,0.049-0.004,0.116,0,0.139   c0.07,0.033,0.209,0.15,0.275,0.364c0.062,0.2,0.042,0.415,0.027,0.588c-0.005,0.052-0.01,0.101-0.01,0.143l0.002,0.18   c-0.022,0.216-0.07,0.312-0.096,0.365c-0.009,0.044-0.007,0.156-0.004,0.275l0.002,0.143c0,0.061-0.005,0.13-0.011,0.201   c-0.002,0.033-0.006,0.08-0.008,0.118c0.04,0.056,0.082,0.133,0.106,0.235c0.023,0.098,0.021,0.189,0.014,0.261   c0.012,0.029,0.021,0.061,0.026,0.094c0.009,0.052,0.009,0.104,0.001,0.155c0.006,0.022,0.013,0.045,0.019,0.066l0.052,0.194   c0.043,0.157,0.064,0.233,0.08,0.314c0.012,0.029,0.066,0.172,0.073,0.202c0.054,0.246,0.056,0.456-0.1,0.737l-0.078,0.136   c-0.051,0.087-0.104,0.175-0.146,0.275c-0.021,0.049-0.049,0.103-0.077,0.157c-0.024,0.048-0.054,0.098-0.067,0.142   c0.021,0.046,0.031,0.135,0.019,0.24c-0.02,0.151-0.07,0.249-0.098,0.301c-0.017,0.123-0.042,0.295-0.182,0.461   c0.004,0.006,0.007,0.013,0.011,0.019c0.133,0.247,0.133,0.759-0.002,1.01c-0.071,0.133-0.176,0.226-0.26,0.301   c-0.142,0.164-0.143,0.171-0.148,0.216c-0.009,0.067,0,0.141,0.005,0.215c0.019,0.261,0.064,0.933-0.57,1.148   c0.011,0.183,0.006,0.465-0.222,0.691c-0.16,0.157-0.338,0.195-0.433,0.215c-0.054,0.104-0.229,0.36-0.576,0.376   c-0.192,0.033-0.379-0.097-0.469-0.271c-0.001-0.003-0.002-0.006-0.003-0.009c-0.058,0-0.134-0.002-0.216-0.009   c0.008,0.013,0.015,0.024,0.021,0.037c0.209,0.385,0.175,0.692,0.109,0.882c-0.065,0.187-0.225,0.444-0.618,0.612   C81.471,75.455,81.282,75.504,81.12,75.504z M81.127,71.827c0.004,0.009,0.008,0.017,0.012,0.024   c0.104,0.083,0.202,0.172,0.272,0.307c0.147,0.295,0.066,0.578,0.013,0.765c-0.002,0.006-0.004,0.012-0.006,0.018   c0.063-0.04,0.129-0.071,0.193-0.09c0.155-0.046,0.377-0.043,0.591-0.024c0.262,0.027,0.445,0.005,0.648,0.102   c0.016-0.012,0.031-0.023,0.048-0.035c0.066-0.044,0.133-0.073,0.191-0.093c-0.004-0.073-0.006-0.118-0.003-0.161   c0.02-0.428,0.201-0.653,0.589-0.73c-0.001-0.05-0.005-0.108-0.008-0.154c-0.01-0.145-0.016-0.287,0-0.411   c0.039-0.312,0.177-0.495,0.288-0.643c0.048-0.063,0.116-0.13,0.188-0.194c0.014-0.002,0.021-0.031,0.022-0.064   c-0.102-0.075-0.209-0.177-0.264-0.336c-0.033-0.092-0.178-0.583,0.358-0.829c0.005-0.029,0.011-0.058,0.019-0.087   c0.009-0.037,0.056-0.151,0.073-0.186c-0.023-0.057-0.038-0.179-0.004-0.318c0.029-0.128,0.093-0.251,0.148-0.36l0.05-0.1   c0.06-0.138,0.129-0.26,0.199-0.379l0.067-0.118c-0.037-0.114-0.065-0.191-0.079-0.258c-0.012-0.06-0.026-0.108-0.04-0.158   l-0.075-0.281c-0.026-0.095-0.053-0.19-0.072-0.283c-0.003-0.012-0.005-0.024-0.006-0.037c-0.002-0.009-0.004-0.018-0.005-0.027   c-0.018-0.096-0.013-0.179-0.006-0.242c-0.033-0.052-0.065-0.118-0.086-0.202c-0.04-0.173-0.027-0.344-0.017-0.481l0.008-0.123   l-0.002-0.122c-0.003-0.162-0.007-0.346,0.033-0.537c0.008-0.036,0.045-0.138,0.065-0.184l-0.001-0.12   c0-0.067,0.006-0.146,0.014-0.229c0.004-0.045,0.009-0.108,0.011-0.158c-0.054-0.047-0.106-0.101-0.156-0.172   c-0.179-0.261-0.167-0.534-0.16-0.715l0.002-0.126c-0.004,0.022-0.032-0.014-0.06-0.065c-0.039-0.073-0.062-0.141-0.079-0.198   c-0.115-0.021-0.246-0.066-0.369-0.176c-0.278-0.25-0.273-0.58-0.271-0.777c0.001-0.048,0.002-0.121-0.004-0.145   c-0.144-0.125-0.28-0.287-0.28-0.607c0-0.156,0.034-0.275,0.084-0.367c-0.091-0.056-0.174-0.147-0.237-0.294   c-0.068-0.159-0.053-0.32-0.038-0.462c-0.004-0.113-0.034-0.165-0.06-0.205c-0.065-0.108-0.1-0.175-0.133-0.243   c-0.023-0.048-0.045-0.099-0.072-0.136c-0.02-0.017-0.053-0.036-0.086-0.059c-0.094-0.063-0.189-0.132-0.271-0.216   c-0.151-0.153-0.3-0.34-0.43-0.511c-0.132-0.173-0.309-0.281-0.458-0.281c-0.105-0.004-0.13-0.004-0.19-0.009l-0.051-0.004   c-0.003,0.003-0.007,0.005-0.01,0.008c0.025,0.045,0.045,0.094,0.06,0.146c0.066,0.262-0.004,0.551-0.193,0.794   c-0.297,0.381-0.806,0.543-1.185,0.374c-0.077-0.034-0.174-0.094-0.252-0.19c-0.073,0.027-0.153,0.045-0.242,0.045   c-0.126,0-0.367-0.039-0.562-0.298c-0.024-0.032-0.045-0.065-0.062-0.098c-0.189,0.105-0.409,0.133-0.673,0.093   c-0.253-0.037-0.436-0.146-0.538-0.324c-0.15-0.26-0.05-0.517-0.002-0.64c0.014-0.036,0.03-0.076,0.034-0.098   c-0.021-0.057-0.039-0.185-0.003-0.33c0.021-0.093,0.061-0.167,0.099-0.22c-0.004-0.064,0-0.152,0.028-0.252   c0.024-0.08,0.061-0.146,0.1-0.216c0.051-0.103,0.053-0.145,0.052-0.329c0-0.278,0-0.529,0.096-0.836   c0.032-0.099,0.075-0.195,0.12-0.293c0.036-0.08,0.078-0.171,0.087-0.221c0.026-0.159,0.013-0.361,0-0.576   c-0.012-0.174-0.021-0.347-0.016-0.511c0.014-0.369,0.224-0.58,0.336-0.693c0.059-0.072,0.068-0.132,0.048-0.272   c-0.065-0.118-0.088-0.247-0.07-0.398c0.01-0.096,0.039-0.15,0.118-0.297l0.096-0.181c0.047-0.085,0.056-0.103,0.062-0.14   c0.03-0.231,0.052-0.394,0.116-0.575c0.035-0.188,0.055-0.304,0.106-0.421c0.008-0.018,0.032-0.06,0.055-0.098   c-0.013-0.097-0.018-0.207,0.02-0.329c0.066-0.218,0.217-0.353,0.307-0.433c0.184-0.181,0.331-0.3,0.483-0.422l0.209-0.17   c0.165-0.144,0.355-0.311,0.592-0.375c0.017-0.045,0.035-0.092,0.059-0.139c0.134-0.406,0.428-0.464,0.591-0.464   c0.035,0,0.146,0.013,0.179,0.02c0.061,0.012,0.113,0.031,0.159,0.054c0.07-0.065,0.136-0.113,0.202-0.149   c0.007-0.21,0.048-0.316,0.074-0.383c0.04-0.235,0.082-0.399,0.264-0.571c0.187-0.179,0.5-0.265,0.625-0.293   c0.089-0.02,0.203-0.079,0.324-0.142c0.295-0.153,0.722-0.338,1.14-0.219c0.029,0.008,0.059,0.02,0.086,0.034   c0.049-0.25,0.123-0.435,0.221-0.552c-0.111-0.086-0.17-0.188-0.197-0.249c-0.082-0.189-0.072-0.359-0.065-0.471   c-0.214-0.404-0.192-0.65,0.062-0.98c0.017-0.022,0.037-0.046,0.06-0.072c-0.229-0.095-0.516-0.28-0.572-0.742   c-0.019-0.16-0.019-0.363,0-0.51c0.021-0.149,0.069-0.246,0.096-0.298c0.029-0.164,0.05-0.281,0.113-0.421   c0.022-0.049,0.045-0.091,0.068-0.132l0.029-0.107c0.016-0.184,0.052-0.616,0.472-0.794c0.072-0.03,0.146-0.051,0.22-0.063   c0.122-0.152,0.309-0.274,0.467-0.274c0.146,0,0.365,0.04,0.471,0.084c0.188,0.084,0.307,0.208,0.395,0.299   c0,0,0.042,0.042,0.071,0.071c-0.007-0.075-0.007-0.155,0.006-0.241c0.011-0.07,0.013-0.116,0.009-0.151   c-0.02-0.008-0.038-0.016-0.056-0.025c-0.204-0.098-0.316-0.322-0.274-0.544c0.026-0.137,0.107-0.252,0.218-0.325l0.603-0.812   c0.115-0.154,0.308-0.228,0.495-0.193c0.189,0.036,0.34,0.177,0.39,0.363l0.063,0.114c0.042,0.059,0.09,0.127,0.136,0.218   c0.119,0.021,0.228,0.077,0.313,0.163c0.238,0.234,0.194,0.554,0.165,0.765c-0.006,0.037-0.012,0.072-0.013,0.102   c0.061,0.111,0.106,0.235,0.106,0.436c0,0.17-0.037,0.318-0.066,0.438c-0.02,0.082-0.037,0.153-0.037,0.204   c0.002,0.17,0.024,0.35,0.06,0.519c0.101,0.476,0.144,0.937,0.14,1.537c0,0.196,0.004,0.358,0.056,0.482l0.082,0.18   c0.015,0.032,0.06,0.136,0.067,0.17l0.158,0.686c0.014,0.059,0.017,0.12,0.008,0.18c-0.013,0.098-0.037,0.228-0.106,0.369   c-0.059,0.123-0.144,0.219-0.217,0.298c0.041,0.058,0.057,0.068,0.114,0.104c0.073,0.045,0.147,0.093,0.224,0.158   c0.271,0.232,0.283,0.51,0.289,0.643l-0.479,0.193l0.508-0.04c0.021,0.077,0.041,0.15,0.058,0.232   c0.012,0.028,0.068,0.18,0.074,0.209c0.027,0.137,0.071,0.255,0.148,0.397c0.018,0.033,0.031,0.067,0.041,0.103   c0.013,0.013,0.024,0.026,0.035,0.04c0.018,0.022,0.042,0.06,0.055,0.084c0.176,0.129,0.364,0.273,0.462,0.557   c0.003,0.009,0.007,0.025,0.011,0.045c0.1,0.068,0.222,0.155,0.339,0.298c0.083,0.1,0.149,0.212,0.213,0.324   c0.046,0.081,0.09,0.157,0.131,0.201c0.05,0.024,0.223,0.028,0.386,0.142c0.138,0.094,0.221,0.201,0.273,0.276   c0.031,0,0.063,0,0.065,0c0.396,0,0.59,0.218,0.684,0.401c0.041,0.083,0.063,0.166,0.075,0.242   c0.079-0.018,0.171-0.031,0.273-0.031c0.027,0,0.145,0.009,0.171,0.014c0.315,0.052,0.581,0.186,0.769,0.381   c-0.003-0.041-0.003-0.078-0.002-0.109c-0.05-0.062-0.1-0.134-0.133-0.225l-0.031-0.144c-0.013-0.007-0.03-0.019-0.047-0.029   c-0.229-0.047-0.391-0.205-0.452-0.446c-0.019-0.073-0.021-0.149-0.006-0.224c0.027-0.133,0.078-0.258,0.151-0.372   c0.076-0.157,0.213-0.324,0.332-0.464c0.066-0.08,0.079-0.109,0.08-0.113c-0.001-0.004-0.008-0.051-0.042-0.182   c-0.013-0.047-0.019-0.095-0.021-0.143c-0.061-0.018-0.117-0.041-0.153-0.064c-0.279-0.177-0.383-0.511-0.452-0.731   c-0.023-0.069-0.041-0.115-0.057-0.15c-0.111-0.09-0.189-0.217-0.217-0.365c-0.076-0.266-0.06-0.611,0.385-0.845   c0.025-0.014,0.048-0.026,0.069-0.037c-0.018-0.006-0.035-0.012-0.055-0.02l-0.116-0.044c-0.213-0.077-0.536-0.193-0.737-0.568   c-0.123-0.229-0.121-0.428-0.119-0.559c0-0.025,0.001-0.05,0-0.078c-0.022-0.023-0.043-0.046-0.065-0.073   c-0.022-0.029-0.068-0.101-0.107-0.165c-0.124-0.107-0.202-0.255-0.221-0.42c-0.014-0.045-0.022-0.084-0.029-0.115   c-0.117-0.227-0.172-0.255-0.203-0.259c-0.04-0.005-0.095-0.011-0.15-0.012c-0.122,0.128-0.27,0.192-0.442,0.195   c-0.128-0.015-0.267-0.051-0.362-0.146c-0.038-0.038-0.069-0.081-0.093-0.127c-0.365,0.177-0.764,0.157-0.999-0.014   c-0.353-0.256-0.332-0.696-0.322-0.907l-0.004-0.241c-0.008-0.158-0.013-0.319,0.008-0.468c0.009-0.069,0.023-0.132,0.04-0.192   c-0.101-0.09-0.178-0.214-0.221-0.364c-0.044-0.155-0.023-0.289-0.011-0.37c-0.038-0.055-0.061-0.096-0.081-0.14   c-0.08-0.179-0.174-0.449-0.088-0.797c0.044-0.183,0.187-0.322,0.365-0.367c-0.002-0.035-0.004-0.071-0.007-0.102   c-0.01-0.147-0.018-0.302,0.001-0.452c0.04-0.341,0.276-0.702,0.644-0.758c0.005-0.018,0.01-0.034,0.015-0.051   c0.015-0.049,0.03-0.1,0.04-0.157c0.021-0.124,0.086-0.232,0.18-0.308c0-0.008,0-0.015,0-0.022   c0.001-0.335,0.001-0.958,0.576-1.204c-0.043-0.181-0.009-0.355,0.099-0.523c0.005-0.048,0.018-0.193,0.02-0.31   c-0.073-0.037-0.149-0.092-0.212-0.18c-0.121-0.171-0.216-0.443,0.002-0.788c0.078-0.164,0.081-0.267,0.08-0.544   c-0.01-0.172-0.02-0.326,0.034-0.487c0.017-0.051,0.041-0.098,0.072-0.141c0.024-0.051,0.058-0.1,0.1-0.142   c0.004-0.004,0.009-0.009,0.015-0.014c-0.001-0.055-0.004-0.135-0.01-0.171c-0.001,0-0.001,0-0.001,0   c-0.027,0-0.149-0.169-0.117-0.453c0.008-0.064,0.024-0.125,0.045-0.182c-0.126-0.064-0.229-0.174-0.293-0.318   c-0.093-0.205-0.065-0.636,0.055-0.835c0.15-0.238,0.357-0.317,0.511-0.346c-0.006-0.002-0.012-0.004-0.018-0.007   c-0.047-0.021-0.103-0.05-0.156-0.092c-0.078,0.077-0.237,0.216-0.47,0.216c-0.084,0-0.241-0.049-0.315-0.09   c-0.109-0.043-0.203-0.097-0.284-0.155c-0.03,0.03-0.057,0.052-0.075,0.067c-0.175,0.114-0.306,0.162-0.446,0.182   c-0.051,0.008-0.15,0.01-0.209,0.005c-0.044,0.067-0.105,0.133-0.191,0.188c-0.138,0.085-0.267,0.126-0.399,0.126   c-0.158,0-0.537-0.062-0.633-0.637c-0.047-0.291,0.049-0.47,0.101-0.566c0.014-0.226,0.046-0.416,0.267-0.626   c0.038-0.038,0.085-0.083,0.143-0.125c0.029-0.098,0.081-0.199,0.173-0.296c0.04-0.043,0.082-0.077,0.123-0.104   c-0.005-0.072-0.011-0.17-0.02-0.239c-0.024-0.027-0.051-0.054-0.065-0.068c-0.011,0.026-0.073,0.016-0.153-0.009   c-0.085-0.025-0.166-0.057-0.248-0.09c-0.097-0.039-0.173-0.07-0.244-0.077c-0.213-0.021-0.39-0.174-0.438-0.382   c-0.033-0.139-0.11-0.465,0.098-0.729c0.203-0.257,0.526-0.257,0.632-0.257l0.268,0.014c0.049-0.033,0.112-0.068,0.194-0.092   c0.015-0.004,0.028-0.008,0.041-0.011c0.002-0.023,0.002-0.042,0.002-0.06c0-0.184-0.001-0.525,0.345-0.805   c0.231-0.188,0.487-0.209,0.66-0.209l0.262,0.008h0.001c0.028,0,0.053-0.001,0.074-0.002c0.042-0.093,0.115-0.199,0.245-0.283   c0.061-0.039,0.181-0.079,0.277-0.096c-0.114-0.089-0.175-0.197-0.202-0.261c-0.031-0.072-0.046-0.142-0.051-0.208   c-0.214-0.044-0.346-0.152-0.458-0.356c-0.101-0.125-0.165-0.193-0.217-0.288c-0.112-0.203-0.091-0.41-0.079-0.521   c0.001-0.007,0.004-0.01,0.007-0.01c0,0,0,0,0.001,0l-0.031-0.04c-0.014-0.02-0.027-0.038-0.04-0.057   c-0.009,0.009-0.018,0.019-0.027,0.027c-0.172,0.167-0.371,0.199-0.494,0.209c-0.008,0.018-0.016,0.035-0.021,0.052   c0.052,0.117,0.08,0.26,0.056,0.363c0.147,0.159,0.189,0.378,0.206,0.464c0.053,0.274,0.066,0.649-0.165,0.881   c-0.2,0.198-0.474,0.198-0.591,0.198l-0.215-0.002c-0.087,0.082-0.228,0.179-0.438,0.179c-0.055,0-0.175-0.021-0.227-0.04   c-0.182-0.062-0.311-0.183-0.386-0.36c-0.011,0-0.022-0.001-0.035-0.001c-0.007,0.022-0.015,0.044-0.024,0.065   c-0.06,0.131-0.172,0.23-0.309,0.273c-0.113,0.035-0.232,0.051-0.374,0.051l-0.042-0.001c-0.004,0.038-0.012,0.077-0.023,0.117   c-0.088,0.319-0.411,0.438-0.785,0.576l-0.118,0.044c-0.151,0.083-0.267,0.146-0.408,0.182c-0.088,0.021-0.167,0.028-0.233,0.03   c-0.062,0.076-0.147,0.133-0.245,0.161c-0.134,0.04-0.295,0.038-0.472,0.022c-0.001,0.001-0.002,0.003-0.003,0.004   c-0.023,0.231-0.236,0.538-0.467,0.568c-0.425,0.054-0.536,0.182-0.585,0.288c-0.075,0.22-0.162,0.486-0.494,0.647   c-0.012,0.119-0.056,0.252-0.172,0.369c-0.062,0.062-0.158,0.134-0.294,0.172c0.071,0.046,0.146,0.105,0.221,0.182   c0.21,0.131,0.519,0.317,0.527,0.741c0.013,0.56-0.487,0.759-0.7,0.844c-0.216,0.093-0.322,0.108-0.394,0.118   c-0.069,0.017-0.119,0.064-0.155,0.098c-0.004,0.003-0.081,0.074-0.085,0.077c-0.091,0.08-0.179,0.165-0.267,0.25   c-0.175,0.17-0.351,0.338-0.539,0.473c-0.099,0.071-0.2,0.143-0.265,0.221c-0.118,0.14-0.227,0.253-0.353,0.379   c-0.059,0.059-0.092,0.203-0.111,0.306c-0.007,0.039-0.02,0.077-0.035,0.112l-0.282,0.625c-0.07,0.154-0.213,0.263-0.38,0.289   c-0.135,0.021-0.327,0.032-0.507,0.032c-0.411,0-0.531-0.052-0.588-0.077c-0.348-0.151-0.407-0.462-0.403-0.695   c-0.016,0.006-0.031,0.012-0.045,0.017c-0.123,0.047-0.237,0.087-0.328,0.105c-0.063,0.013-0.121,0.02-0.175,0.025   c-0.084,0.022-0.111,0.046-0.139,0.07c-0.073,0.06-0.163,0.134-0.283,0.196c-0.169,0.087-0.411,0.328-0.445,0.425   c0.088,0.455-0.197,0.653-0.374,0.727c-0.076,0.032-0.16,0.045-0.242,0.037c-0.027-0.002-0.055-0.004-0.082-0.006   c-0.048,0.025-0.138,0.073-0.146,0.077c-0.103,0.048-0.228,0.097-0.372,0.097c-0.082,0-0.25-0.049-0.322-0.087   c-0.124-0.011-0.181-0.006-0.238,0c-0.083,0.006-0.186,0.014-0.232,0.012c-0.037,0-0.081,0.014-0.123,0.028   c-0.084,0.027-0.198,0.064-0.339,0.073c-0.001,0-0.003,0-0.004,0c-0.505,0-0.655-0.318-0.705-0.423   c-0.034-0.057-0.056,0.004-0.094,0.116c-0.037,0.108-0.076,0.218-0.135,0.326l-0.536,0.149l0.5-0.015   c0.004,0.14,0.013,0.431-0.192,0.643c-0.094,0.097-0.303,0.183-0.438,0.183c-0.116,0-0.234-0.03-0.361-0.093   c-0.21-0.103-0.322-0.295-0.389-0.411c-0.013-0.023-0.028-0.054-0.043-0.087c-0.034-0.036-0.062-0.078-0.084-0.122   c-0.058,0.021-0.118,0.038-0.181,0.053c-0.041,0.01-0.084,0.021-0.104,0.03c-0.067,0.034-0.119,0.069-0.191,0.13   c-0.018,0.015-0.035,0.028-0.052,0.042c0.001,0.074-0.004,0.156-0.029,0.244c-0.007,0.026-0.026,0.07-0.048,0.113   c0.098,0.146,0.111,0.311,0.12,0.426c0.315,0.365,0.171,0.701,0.054,0.867c-0.076,0.113-0.183,0.177-0.285,0.217   c0.007,0.09,0.008,0.181,0.008,0.273l-0.5,0.106l0.502,0.053c0.011,0.276-0.043,0.653-0.624,0.733   c-0.162,0.022-0.391,0.043-0.662-0.028c-0.017-0.004-0.032-0.009-0.048-0.015c-0.116,0.141-0.272,0.205-0.41,0.234   c-0.034,0.007-0.157,0.018-0.192,0.018c-0.009,0-0.117,0.049-0.258,0.073c0.027,0.543,0.007,1.351-0.733,1.438   c-0.236,0.03-0.463-0.117-0.535-0.346c-0.017-0.053-0.025-0.104-0.029-0.154c-0.161-0.059-0.248-0.154-0.292-0.202   c-0.144-0.131-0.181-0.133-0.463-0.143l-0.129-0.005c-0.602-0.029-1.066-0.506-1.06-1.085c0.004-0.295,0.121-0.479,0.275-0.582   c-0.004-0.057-0.003-0.114,0-0.169l-0.478,0.005L64.49,39.66c-0.057,0.023-0.152,0.06-0.178,0.065s-0.051,0.01-0.077,0.014   c0.23,0.55,0.019,0.838-0.212,0.985c-0.306,0.193-0.68,0.053-0.808-0.029c-0.131,0.078-0.339,0.04-0.486-0.022   c-0.017,0.042-0.036,0.079-0.06,0.107c-0.171,0.209-0.424,0.209-0.519,0.209c-0.101,0-0.201-0.03-0.285-0.083   c-0.023,0-0.044,0.001-0.049,0.001c-0.07,0-0.136-0.008-0.199-0.024c-0.161-0.041-0.288-0.157-0.345-0.306   c-0.134-0.05-0.239-0.156-0.29-0.289c-0.054,0.048-0.117,0.084-0.188,0.105c-0.087,0.026-0.181,0.04-0.284,0.04   c-0.003,0-0.011,0-0.022,0c-0.037,0.241-0.244,0.421-0.49,0.423c-0.231,0-0.409-0.138-0.477-0.337   c-0.04,0.022-0.084,0.042-0.132,0.058c-0.156,0.054-0.346,0.055-0.548,0.037c-0.002,0.058-0.006,0.104-0.014,0.149   c-0.012,0.063-0.034,0.124-0.068,0.178l-0.036,0.057c-0.027,0.073-0.071,0.14-0.129,0.191c-0.065,0.058-0.136,0.103-0.216,0.137   c-0.203,0.087-0.45,0.085-0.705,0.045c-0.019,0.061-0.041,0.114-0.064,0.167c-0.018,0.217-0.195,0.454-0.407,0.503   c-0.357,0.084-0.901,0.05-0.983-0.601c-0.008-0.072-0.008-0.131-0.007-0.189c-0.124-0.224-0.135-0.448-0.021-0.664   c0.091-0.171,0.249-0.282,0.48-0.431l0.102-0.067c0.055-0.042,0.114-0.083,0.172-0.123c0.062-0.042,0.123-0.082,0.179-0.134   c0.274-0.257,0.564-0.502,0.857-0.75c0.216-0.183,0.433-0.366,0.645-0.557c0.03-0.027,0.059-0.06,0.087-0.092   c0.063-0.072,0.13-0.143,0.202-0.204c-0.007-0.029-0.016-0.054-0.022-0.078c-0.032-0.102-0.076-0.242-0.073-0.441l0.006-0.151   c0.002-0.026,0.004-0.059,0.005-0.089c-0.079-0.005-0.15-0.014-0.229-0.036c-0.232-0.064-0.508-0.232-0.527-0.665   c-0.019-0.013-0.04-0.028-0.067-0.046c-0.079,0.249-0.202,0.427-0.368,0.532c-0.164,0.104-0.404,0.122-0.642,0.102l-0.085-0.506   l-0.051,0.502c-0.003,0-0.006,0-0.009,0c-0.396,0-0.725-0.179-0.734-0.675c-0.282-0.026-0.429-0.167-0.503-0.286   c-0.051-0.082-0.115-0.232-0.074-0.434c-0.067,0.044-0.138,0.094-0.206,0.146c0.006,0.014,0.012,0.028,0.016,0.042   c0.029,0.097,0.038,0.186,0.04,0.263c0.123,0.104,0.195,0.249,0.204,0.416c0.008,0.137-0.064,0.343-0.159,0.442   c-0.063,0.067-0.167,0.144-0.325,0.176c-0.007,0.111-0.04,0.253-0.15,0.378c-0.185,0.208-0.438,0.208-0.534,0.208   c-0.198-0.002-0.34-0.046-0.439-0.112c-0.391,0.267-0.919,0.078-1.242-0.104c-0.056-0.032-0.14-0.08-0.178-0.093   c0.013,0.008-0.026,0.029-0.056,0.045c-0.108,0.06-0.258,0.141-0.454,0.163l-0.16,0.017c-0.086,0.009-0.174,0.017-0.261,0.029   c-0.03,0.049-0.062,0.089-0.094,0.121c-0.216,0.22-0.51,0.22-0.62,0.22l-0.103-0.001c-0.049,0-0.068,0.006-0.146,0.032   c-0.058,0.019-0.117,0.039-0.189,0.056c-0.038,0.009-0.14,0.021-0.18,0.021c-0.051,0-0.104-0.005-0.158-0.012   c-0.039,0.019-0.147,0.057-0.19,0.065c-0.04,0.008-0.084,0.014-0.128,0.02c-0.002,0.012-0.012,0.043-0.024,0.075   s-0.065,0.126-0.084,0.154c0.003,0.012-0.001,0.041-0.001,0.049l-0.001,0.286l0.001,0.575c0,0.088,0,0.198-0.034,0.327   c0.007,0.039,0.004,0.193-0.096,0.346c-0.104,0.147-0.249,0.241-0.442,0.295c-0.402,0.107-0.75-0.053-0.888-0.369   c-0.041-0.098-0.054-0.195-0.054-0.285c-0.104,0.003-0.159,0.006-0.243,0.012c-0.22,0.017-0.442,0.021-0.609-0.019   c-0.1-0.024-0.175-0.065-0.228-0.102c-0.05,0.006-0.124,0.014-0.134,0.014l-0.052,0l-0.118,0.513   c-0.002,0.052-0.007,0.107-0.013,0.163c-0.003,0.026-0.006,0.059-0.008,0.089c0.11,0.064,0.249,0.165,0.33,0.352l0.091,0.128   c-0.001-0.001,0.074,0.048,0.13,0.137c0.05,0.078,0.091,0.233,0.093,0.325c0.032,0.023,0.088,0.15,0.09,0.319v0.159   c0,0.162-0.007,0.28-0.064,0.42c-0.01,0.025-0.061,0.122-0.074,0.145c-0.039,0.103-0.1,0.187-0.14,0.242l-0.033,0.776   c0.004,0.101,0.008,0.201-0.019,0.312c-0.003,0.196-0.003,0.417-0.064,0.644c-0.09,0.331-0.438,0.568-0.725,0.607   c-0.172,0.004-0.237-0.008-0.275-0.016c-0.111-0.018-0.31-0.047-0.464-0.241c-0.219-0.283-0.185-0.626-0.162-0.854l0.015-0.193   c0-0.083-0.006-0.174-0.011-0.27c-0.023-0.415-0.055-0.959,0.25-1.374c-0.247-0.082-0.356-0.271-0.397-0.364   c-0.057-0.134-0.078-0.273-0.069-0.421c0.002-0.026,0.004-0.052,0.007-0.078c-0.048,0-0.109,0.001-0.161,0.005   c-0.046,0.141-0.137,0.235-0.223,0.296c0.009,0.024,0.017,0.05,0.024,0.077c0.001,0.004,0.145,0.559,0.008,0.885   c-0.199,0.464-0.772,0.547-1.187,0.125c-0.107-0.109-0.163-0.224-0.194-0.316c-0.326-0.054-0.457-0.25-0.513-0.375   c-0.127-0.274-0.038-0.562,0.042-0.762c-0.058-0.051-0.109-0.117-0.146-0.205c-0.007,0.005-0.015,0.01-0.021,0.015l-0.071,0.09   c-0.007,0.142,0.016,0.27,0.042,0.417c0.029,0.165,0.056,0.33,0.058,0.517c0.003,0.528-0.312,0.753-0.499,0.888   c-0.048,0.035-0.101,0.07-0.152,0.12c-0.007,0.057-0.016,0.11-0.031,0.176c-0.003,0.012-0.006,0.023-0.009,0.035   c0.197-0.006,0.364,0.024,0.5,0.095c0.207,0.108,0.348,0.324,0.429,0.486c0.033,0.062,0.052,0.124,0.062,0.173   c0.029,0.02,0.076,0.065,0.118,0.125c0.166,0.242,0.16,0.461,0.157,0.591c0.003,0.141,0.02,0.195,0.033,0.249   c0.029,0.115,0.066,0.259,0.065,0.438c0.016,0.154,0.03,0.301-0.021,0.451c-0.078,0.255-0.27,0.359-0.342,0.398   c-0.149,0.149-0.251,0.251-0.479,0.36c-0.131,0.062-0.284,0.066-0.417,0.006c-0.134-0.059-0.234-0.172-0.277-0.312   c-0.1-0.327-0.08-0.841-0.004-1.129l0.034-0.12v0c-0.087-0.04-0.153-0.089-0.201-0.128l0,0c-0.006,0.121-0.014,0.288-0.087,0.457   c-0.113,0.263-0.377,0.465-0.66,0.667c-0.132,0.095-0.192,0.162-0.255,0.227c-0.104,0.109-0.225,0.234-0.377,0.335   c-0.33,0.219-0.694,0.25-1.04,0.25c-0.121-0.028-0.205,0.005-0.293,0.01c-0.301,0.017-0.594,0.018-0.813-0.04   c-0.2-0.051-0.348-0.221-0.371-0.425l0.033-0.015c0.021,0.031,0.047,0.059,0.071,0.075l0.051-0.128l0.313-0.136   c-0.001,0-0.003-0.001-0.004-0.002l-0.273,0.046l0.058-0.147c-0.007-0.005-0.015-0.009-0.021-0.014l-0.126,0.177l-0.116,0.02   c0.005,0.028,0.019,0.062,0.037,0.092l-0.027,0.039c-0.37-0.166-0.399-0.425-0.398-0.676c0-0.265,0.022-0.491,0.19-0.659   c0.094-0.094,0.252-0.16,0.385-0.16c0.238,0,0.394,0.144,0.508,0.249c0.031,0.028,0.064,0.062,0.101,0.086   c0.037,0.019,0.204,0.063,0.363,0.063c0.001,0,0.001,0,0.001,0c0.055,0,0.093-0.045,0.121-0.078   c0.106-0.125,0.268-0.316,0.546-0.395c0.086-0.024,0.161-0.035,0.232-0.044c0.097-0.029,0.131-0.07,0.205-0.166l0.087-0.111   c0.055-0.064,0.115-0.119,0.178-0.171c0.05-0.05,0.058-0.087,0.068-0.122c0.02-0.062,0.038-0.122,0.061-0.175   c0.025-0.062,0.021-0.169,0.016-0.293c-0.008-0.181-0.017-0.406,0.065-0.645c0.068-0.2,0.175-0.342,0.252-0.446   c0.084-0.113,0.088-0.125,0.087-0.151c-0.01-0.482,0.154-0.711,0.312-0.932l0.086-0.122c0.076-0.113,0.079-0.213,0.078-0.449   c-0.001-0.085-0.001-0.172,0.004-0.263c0.021-0.437,0.36-1.041,0.711-1.267c0.019-0.012,0.037-0.023,0.057-0.033   c-0.105-0.047-0.204-0.119-0.282-0.232c-0.043-0.064-0.088-0.155-0.106-0.274c-0.092,0.021-0.172,0.031-0.244,0.038   c-0.111,0.195-0.252,0.401-0.512,0.574c-0.224,0.149-0.438,0.161-0.578,0.168c-0.05,0.003-0.092,0.005-0.117,0.013   c-0.003,0.002-0.062,0.043-0.146,0.139c-0.015,0.026-0.016,0.155-0.017,0.232c-0.002,0.235-0.005,0.59-0.257,0.907   c-0.115,0.145-0.201,0.29-0.29,0.455c-0.073,0.135-0.156,0.232-0.224,0.311c-0.024,0.028-0.049,0.057-0.073,0.088   c0.017,0.002,0.037,0.042,0.053,0.075c0.146,0.292,0.142,0.546,0.138,0.75l-0.001,0.102c0.018,0.34,0.044,0.803-0.326,1.067   c-0.101,0.072-0.302,0.123-0.432,0.114c-0.079,0.051-0.188,0.101-0.33,0.101c-0.099,0-0.264-0.053-0.346-0.107   c-0.305-0.201-0.277-0.568-0.246-0.992c0.006-0.166,0.012-0.255,0.019-0.346c0.008-0.104,0.019-0.248,0.005-0.305   c-0.001-0.003-0.023-0.051-0.136-0.164c-0.043-0.043-0.107-0.096-0.17-0.146c-0.051-0.04-0.105-0.08-0.146-0.106   c-0.185-0.028-0.422-0.078-0.616-0.286c-0.136-0.146-0.182-0.312-0.194-0.455c-0.053-0.008-0.104-0.018-0.152-0.032   c-0.103,0.225-0.273,0.346-0.444,0.449c-0.214,0.13-0.468,0.269-0.763,0.269s-0.549-0.143-0.714-0.401   c-0.097-0.15-0.199-0.393-0.238-0.563c-0.004-0.019-0.008-0.036-0.011-0.054c-0.07,0.035-0.157,0.061-0.262,0.061   c-0.253-0.014-0.436-0.121-0.562-0.319c-0.021,0.007-0.044,0.015-0.063,0.021c-0.277,0.092-0.756,0.128-1.056-0.169   c-0.224-0.222-0.315-0.455-0.272-0.691c0.023-0.13,0.081-0.231,0.152-0.311c-0.086,0.014-0.167,0.018-0.241,0.018l-0.152-0.001   c-0.001,0-0.002,0-0.003,0c-0.141,0-0.48-0.012-0.742-0.154c-0.061-0.032-0.118-0.074-0.175-0.118   c-0.046,0.06-0.134,0.121-0.249,0.165c-0.102,0.04-0.203,0.075-0.322,0.075c-0.12,0-0.303-0.082-0.403-0.166   c-0.083,0.228-0.247,0.344-0.494,0.377c-0.094,0.013-0.25,0.007-0.335-0.031l-0.488-0.221c-0.087-0.04-0.161-0.103-0.213-0.184   c-0.077-0.117-0.131-0.249-0.161-0.386c-0.082,0.054-0.16,0.085-0.259,0.115l-0.221-0.32c-0.009,0.007-0.017,0.014-0.024,0.021   l0.129,0.339c-0.13,0.05-0.325,0.125-0.521,0.125c-0.074,0-0.224-0.03-0.29-0.062c-0.291-0.139-0.356-0.362-0.369-0.483   c-0.027-0.248,0.105-0.422,0.231-0.539c-0.007-0.003-0.013-0.006-0.019-0.008c-0.083,0.004-0.175,0.025-0.281,0.049   c-0.229,0.053-0.539,0.101-0.81,0.024c-0.015-0.004-0.029-0.009-0.043-0.014c-0.004,0.025-0.008,0.054-0.012,0.086   c-0.062,0.571-0.609,0.923-1.102,0.694c-0.377-0.174-0.402-0.54-0.389-0.756c-0.07,0.02-0.14,0.034-0.233,0.024   c-0.032,0.062-0.076,0.122-0.135,0.179c-0.178,0.17-0.357,0.206-0.478,0.206c-0.111,0-0.487-0.039-0.645-0.54   c-0.051-0.163-0.037-0.307-0.027-0.403c-0.038-0.015-0.197-0.176-0.209-0.502c-0.009-0.304,0.071-0.484,0.149-0.658   c0.043-0.098,0.059-0.158,0.076-0.217c0.031-0.108,0.064-0.216,0.111-0.318l0.52,0.069l-0.464-0.187   c0.004-0.202,0.006-0.465,0.291-0.704c0.138-0.115,0.293-0.159,0.406-0.19c0.024-0.007,0.032-0.004,0.035,0.001l0.043-0.117   c0.057-0.149,0.09-0.234,0.144-0.335c0.02-0.037,0.02-0.037,0.027-0.114c0.001-0.004,0.013-0.104,0.014-0.108   c0.046-0.317,0.158-0.476,0.431-0.611c0.102-0.052,0.162-0.077,0.226-0.102c0.031-0.012,0.063-0.024,0.093-0.038   c0.002-0.001,0.004-0.003,0.006-0.004c0.147-0.152,0.357-0.18,0.551-0.091c0.193,0.088,0.293,0.304,0.274,0.516   c-0.035,0.383-0.098,1.074,0.033,1.321c0.041,0.076,0.069,0.151,0.097,0.227c0.003,0.009,0.003,0.016,0.001,0.02   c0.072,0.026,0.158,0.066,0.253,0.139c0.179,0.136,0.245,0.312,0.28,0.422c0.012,0.001,0.021,0.002,0.021,0.002   c0.209,0.02,0.382,0.167,0.436,0.37c0.008,0.029,0.014,0.058,0.018,0.085c0.04-0.07,0.071-0.121,0.108-0.167   c0.171-0.214,0.38-0.292,0.519-0.344c0.033-0.013,0.079-0.03,0.093-0.039c0.037-0.031,0.041-0.118,0.032-0.345   c-0.003-0.074-0.006-0.147-0.005-0.221c-0.151-0.108-0.328-0.264-0.365-0.52c-0.045-0.313,0.151-0.545,0.268-0.684l0.113-0.131   l0.006-0.155c0.011-0.158,0.024-0.303,0.068-0.475c-0.036-0.027-0.082-0.06-0.082-0.06c-0.117-0.068-0.278-0.162-0.39-0.333   c-0.149-0.234-0.125-0.521-0.107-0.73l0.008-0.296c0.001-0.124,0.002-0.248-0.001-0.372c-0.001-0.167,0.021-0.288,0.062-0.389   c-0.175-0.029-0.326-0.122-0.442-0.272c-0.048-0.063-0.081-0.127-0.105-0.188c-0.072,0.076-0.153,0.157-0.253,0.223   c-0.148,0.098-0.295,0.133-0.402,0.159c-0.04,0.01-0.096,0.023-0.11,0.032c-0.107,0.072-0.178,0.118-0.245,0.156   c0.017,0.167,0.005,0.342-0.103,0.514c-0.094,0.15-0.361,0.394-0.797,0.343c-0.002,0.018-0.008,0.043-0.013,0.064   c-0.037,0.156-0.088,0.371-0.245,0.56c-0.199,0.238-0.391,0.294-0.568,0.311c-0.048,0.091-0.107,0.187-0.205,0.272   c-0.204,0.182-0.47,0.307-0.727,0.34c-0.021,0.002-0.1,0.007-0.121,0.007c-0.067,0-0.144-0.007-0.221-0.016   c-0.022-0.003-0.046-0.005-0.069-0.008c-0.041,0.052-0.089,0.121-0.111,0.153c-0.197,0.283-0.344,0.425-0.532,0.599   c-0.063,0.056-0.124,0.13-0.181,0.197c-0.002,0.001-0.064,0.075-0.065,0.076c0.01,0.092,0.006,0.216-0.038,0.367   c-0.038,0.129-0.107,0.249-0.163,0.345l-0.055,0.106c-0.078,0.163-0.122,0.252-0.207,0.331c-0.241,0.228-0.545,0.228-0.659,0.228   c-0.005,0-0.103-0.002-0.107-0.002l-0.109,0c-0.041,0.091-0.14,0.191-0.281,0.261c-0.43,0.21-0.812,0.198-1.114-0.01   c-0.08-0.056-0.134-0.104-0.18-0.145l-0.185,0.02c-0.196,0-0.423-0.029-0.655-0.219c0.11,0.24,0.104,0.477,0.098,0.654   l-0.002,0.117c0.017,0.214,0.038,0.493-0.159,0.706c-0.157,0.17-0.472,0.228-0.713,0.122c-0.24-0.104-0.346-0.29-0.393-0.464   c-0.133,0.098-0.301,0.148-0.497,0.148l-0.226-0.009c-0.017,0.033-0.037,0.065-0.063,0.098c-0.095,0.116-0.304,0.206-0.454,0.206   c-0.2-0.014-0.342-0.078-0.444-0.183c-0.008,0-0.015,0-0.021,0.001c-0.145,0.176-0.37,0.264-0.677,0.264   c-0.088-0.001-0.152-0.006-0.222-0.012c0.02,0.136-0.018,0.275-0.104,0.384c-0.091,0.114-0.228,0.183-0.373,0.188   c-0.063,0.012-0.241,0.119-0.29,0.181c-0.083,0.141-0.165,0.28-0.278,0.392c0.006,0.069,0.004,0.133,0.003,0.188   c-0.004,0.165-0.003,0.309-0.001,0.453l0.001,0.229c0,0.058-0.006,0.136-0.014,0.223c-0.003,0.03-0.007,0.071-0.01,0.112   c0.484,0.185,0.466,0.572,0.446,0.697c-0.011,0.088-0.045,0.174-0.073,0.238c-0.102,0.212-0.273,0.313-0.399,0.387l-0.095,0.07   c-0.041,0.054-0.084,0.107-0.135,0.155c-0.112,0.102-0.213,0.147-0.273,0.174c-0.151,0.102-0.24,0.386-0.311,0.614l-0.052,0.161   c-0.05,0.146-0.098,0.31-0.139,0.471c-0.019,0.067-0.059,0.172-0.103,0.227l-0.274,0.344c-0.095,0.119-0.238,0.188-0.391,0.188   c-0.166,0.013-0.211,0.021-0.305,0.014c0.146,0.213,0.121,0.467,0.106,0.609c-0.001,0.359-0.119,0.596-0.204,0.769   c-0.032,0.063-0.065,0.126-0.088,0.199c-0.028,0.097-0.019,0.292-0.01,0.447c0.005,0.087,0.009,0.171,0.01,0.25   c0.002,0.197,0.004,0.385-0.125,0.638c-0.061,0.121-0.072,0.157-0.084,0.271c-0.018,0.165-0.113,0.305-0.25,0.382   c0.027,0.065,0.053,0.132,0.074,0.199c0.051,0.146,0.087,0.248,0.097,0.408c0.002,0.02,0.002,0.043,0.001,0.069   c0.195,0.048,0.333,0.233,0.378,0.543c0.027,0.198,0.021,0.393,0.013,0.581l-0.007,0.19c0.064,0.141,0.113,0.231,0.15,0.359   c0.021,0.071,0.027,0.135,0.029,0.189c0.02,0.016,0.039,0.033,0.06,0.053c0.006,0.005,0.012,0.01,0.018,0.015   c0.158,0.129,0.195,0.269,0.211,0.388c0.025,0.163,0.037,0.317,0.021,0.458c-0.013,0.114-0.044,0.214-0.092,0.3   c-0.163,0.263-0.391,0.337-0.54,0.361c-0.002,0.003-0.003,0.007-0.004,0.01c-0.065,0.17-0.155,0.403-0.361,0.559   c-0.205,0.151-0.429,0.151-0.502,0.151l-0.13-0.004l-0.008-0.054c-0.102,0.119-0.281,0.323-0.578,0.326   c-0.034,0.057-0.08,0.115-0.141,0.175c-0.146,0.143-0.251,0.193-0.448,0.221C8.46,52.88,8.36,52.888,8.338,52.888   c-0.105,0-0.384-0.025-0.559-0.278c-0.031-0.001-0.062-0.002-0.092-0.004c0,0.036-0.004,0.075-0.011,0.117   c-0.084,0.514-0.482,0.54-0.562,0.54c-0.26,0-0.419-0.176-0.505-0.271c-0.137-0.111-0.147-0.111-0.214-0.111l-0.033,0.001   c-0.035,0.062-0.123,0.162-0.271,0.224c-0.114,0.053-0.388,0.056-0.536,0.028c0.004,0.01,0.009,0.021,0.014,0.031   c0.107,0.242,0.108,0.442,0.109,0.589c0,0.053-0.001,0.108,0.008,0.169c0.067,0.117,0.119,0.206,0.155,0.325   c0.062,0.207,0.053,0.406,0.047,0.567l-0.004,0.131c0.013,0.152,0.023,0.283-0.011,0.419c-0.025,0.104-0.07,0.181-0.109,0.234   c-0.002,0.021-0.004,0.046-0.005,0.072c0.218,0.008,0.361,0.105,0.444,0.188c0.132,0.131,0.185,0.312,0.185,0.622l-0.015,0.203   c0,0.006-0.004,0.087-0.008,0.146c0.049,0.016,0.099,0.037,0.149,0.067c0.143,0.085,0.324,0.269,0.4,0.368   c0.106,0.135,0.149,0.265,0.18,0.359l0.055,0.162c0.022,0.066,0.043,0.131,0.046,0.142c0.044,0.21,0.04,0.39,0.037,0.548   l-0.001,0.127c0.008,0.09,0.016,0.176,0.012,0.261c0.286-0.018,0.507,0.095,0.593,0.308l0.245,0.595   c0.022,0.026,0.042,0.055,0.059,0.086c0.123,0.189,0.274,0.449,0.323,0.755c0.013,0.08,0.005,0.163-0.021,0.241l-0.029,0.084   c0.025,0.089,0.026,0.184,0,0.275c-0.006,0.021-0.032,0.102-0.04,0.121c-0.038,0.088-0.089,0.162-0.134,0.222   c0.069,0.118,0.129,0.251,0.133,0.418c0.001,0.033-0.004,0.071-0.014,0.112c0.053,0.072,0.1,0.162,0.123,0.272   c0.029,0.142,0.019,0.28,0.002,0.4c0.112-0.002,0.227-0.01,0.323-0.016c0.156-0.011,0.23-0.008,0.363-0.022   c0.002,0,0.004,0,0.006,0c0.021-0.178,0.084-0.348,0.187-0.487c0.019-0.041,0.018-0.104,0.018-0.154l0.493-0.15L9.376,61.97   c-0.01-0.098-0.021-0.231,0.023-0.373c0.048-0.146,0.13-0.238,0.174-0.287c0.021-0.034,0.04-0.091,0.061-0.146   c0.037-0.1,0.076-0.199,0.127-0.293c0.09-0.171,0.22-0.267,0.312-0.325c-0.007-0.111-0.007-0.225,0.03-0.35   c0.052-0.173,0.15-0.282,0.236-0.351c-0.014-0.218,0.001-0.493,0.229-0.699c0.104-0.091,0.21-0.124,0.296-0.149   c0.046-0.043,0.14-0.124,0.279-0.167c0.047-0.015,0.181-0.032,0.229-0.032c0.063,0,0.131,0.008,0.2,0.018   c0.08-0.109,0.199-0.215,0.308-0.242c0.04-0.011,0.145-0.022,0.187-0.022l0.058,0.502l0.066-0.497c0.302,0,0.524,0.031,0.754,0.259   c0.014,0,0.051-0.002,0.092-0.002c0.002,0,0.005,0,0.008,0c0.004-0.002,0.08-0.038,0.124-0.06   c-0.003-0.008-0.005-0.012-0.005-0.012c-0.068-0.141-0.183-0.376-0.084-0.691c0.001-0.004,0.002-0.007,0.003-0.01   c-0.077-0.151-0.059-0.302-0.01-0.421c-0.066-0.072-0.122-0.166-0.159-0.288c-0.12-0.391,0.075-0.638,0.149-0.73   c0.029-0.063,0.025-0.099,0.025-0.142l-0.005-0.183c-0.007-0.14-0.011-0.283,0.006-0.414c0.046-0.346,0.193-0.491,0.4-0.604   c0.108-0.07,0.149-0.135,0.198-0.21c0.074-0.114,0.167-0.258,0.317-0.388c0.314-0.272,0.679-0.304,0.925-0.304   c0.084,0,0.17,0.004,0.256,0.008c0.406,0.019,0.626,0.131,0.819,0.391c0.049,0.065,0.083,0.13,0.107,0.191   c0.062-0.073,0.146-0.128,0.241-0.156c0.368-0.105,0.761-0.011,1.022,0.076c0.224,0.073,0.383,0.081,0.567,0.071   c0.223-0.015,0.45-0.023,0.646,0.013c0.395,0.073,0.552,0.315,0.636,0.445c0.001,0.001,0.06,0.082,0.06,0.083   c0.173,0.197,0.259,0.426,0.327,0.61c0.076,0.203,0.116,0.296,0.182,0.326c0.142,0.064,0.923,0.654,0.802,1.209   c-0.026,0.123-0.101,0.258-0.232,0.35c-0.001,0.003-0.002,0.005-0.004,0.008c0.042,0.126,0.062,0.145,0.063,0.146l0.303-0.007   c0.084-0.004,0.167-0.007,0.248-0.007c0.608,0,0.892,0.268,1.021,0.549c0.317,0.102,0.551,0.283,0.712,0.428   c0.329,0.294,0.348,0.54,0.339,0.857c-0.002,0.068-0.005,0.104,0.001,0.139c0.012-0.016,0.056,0.034,0.099,0.067l0.038-0.002   c0.223,0,0.38,0.095,0.484,0.196c-0.015-0.13-0.004-0.255,0.006-0.361l0.008-0.111c-0.022-0.252-0.04-0.427,0.004-0.592   c0.13-0.322,0.325-0.473,0.556-0.489c-0.013-0.156-0.012-0.322,0.055-0.475c0.106-0.247,0.337-0.397,0.615-0.397   c0.019,0,0.124,0.008,0.142,0.01c0.188-0.017,0.344-0.068,0.422-0.111c0.006-0.124,0.017-0.24,0.069-0.363   c0.11-0.256,0.35-0.407,0.64-0.407c0.133,0,0.255,0.031,0.336,0.052c0.165,0.041,0.376,0.109,0.529,0.267   c0.022,0.022,0.041,0.045,0.059,0.067c0.054,0.001,0.169,0.019,0.216,0.033c0.173,0.053,0.269,0.148,0.333,0.227   c0.009-0.024,0.09,0.006,0.173,0.065c0.073,0.055,0.143,0.11,0.207,0.164c0.159,0.132,0.198,0.156,0.248,0.156   c0.739-0.114,1.2-0.134,1.668-0.052c0.086,0.016,0.161,0.034,0.233,0.052c0.103,0.026,0.164,0.042,0.247,0.042h0.491   c0.227,0,0.795-0.006,0.896-0.013c0.248-0.013,0.584,0.045,0.688,0.549c0.005-0.026,0.073,0.047,0.137,0.138   c0.124,0.179,0.173,0.368,0.208,0.507c0.013,0.049,0.022,0.097,0.041,0.139c0.088,0.204,0.031,0.441-0.139,0.583   c-0.066,0.056-0.096,0.101-0.101,0.111l-0.033,0.092l0.114-0.004c0.74,0,0.924,0.401,1.087,0.755l0.056,0.125   c0.031-0.001,0.363,0.062,0.492,0.397c0.048,0.128,0.059,0.246,0.047,0.353c0.062-0.023,0.117-0.041,0.175-0.059l0.112-0.056   c0.07-0.055,0.142-0.105,0.214-0.142c0.071-0.037,0.139-0.065,0.196-0.084c0.098-0.032,0.202-0.033,0.298-0.003l0.05-0.004   c0.077,0,0.154,0.019,0.224,0.053c0.047,0.023,0.098,0.056,0.157,0.098c0.141,0.105,0.296,0.273,0.395,0.477   c0.134,0.051,0.271,0.124,0.35,0.229c0.145,0.198,0.14,0.407,0.125,0.544c0.065,0.01,0.139,0.028,0.182,0.047   c0.477,0.206,0.463,0.848,0.401,1.878c-0.006,0.101-0.011,0.182-0.012,0.229c-0.002,0.087,0.043,0.21,0.09,0.34l0.061,0.174   c0.002,0.006,0.03,0.101,0.032,0.107c0,0,0,0.001,0,0.002c0.085,0.019,0.177,0.054,0.234,0.095   c0.074,0.052,0.134,0.124,0.171,0.208l0.079,0.18c0.039,0.152,0.051,0.273,0.052,0.374c0.305,0.091,0.541,0.32,0.675,0.532   c0.018,0.027,0.034,0.057,0.05,0.085c0.031,0,0.062-0.001,0.062-0.001c0.006,0,0.104-0.003,0.109-0.003   c0.083-0.001,0.176-0.008,0.271-0.016c0.291-0.021,0.595-0.03,0.813,0.023c0.265,0.066,0.964,0.715,1.065,0.857   c0.133,0.187,0.153,0.342,0.167,0.444c0.027,0.106,0.062,0.151,0.093,0.197c0.053,0.075,0.102,0.149,0.134,0.212   c0.043,0.083,0.079,0.166,0.113,0.247c0.049,0.113,0.09,0.211,0.132,0.239c0.059,0.033,0.126,0.07,0.198,0.135   c0.361-0.085,0.722-0.035,1.084,0.138c0.17,0.081,0.279,0.184,0.35,0.29c0.052-0.023,0.105-0.044,0.163-0.06   c0.044-0.012,0.184-0.028,0.229-0.028c0.062,0,0.127,0.006,0.191,0.013c0.112,0,0.177-0.015,0.283-0.053   c0.172-0.062,0.303-0.126,0.437-0.19c0.003-0.002,0.005-0.003,0.007-0.004c0.008-0.004,0.015-0.008,0.021-0.012   c0.216-0.105,0.485-0.237,0.784-0.306c0.005-0.001,0.103-0.021,0.107-0.022c0.087-0.018,0.107-0.022,0.148-0.045   c0.104-0.084,0.183-0.145,0.282-0.182c0.109-0.039,0.221-0.057,0.352-0.057l0.241,0.007c0.088-0.026,0.173-0.064,0.257-0.101   c0.198-0.086,0.445-0.193,0.766-0.204c0.139-0.009,0.204-0.013,0.268-0.013c0.167,0,0.3,0.027,0.416,0.088   c0.182,0.095,0.276,0.23,0.325,0.361c0.025-0.011,0.049-0.02,0.068-0.024c0.062-0.014,0.115-0.02,0.175-0.02   c0.014,0,0.104,0.005,0.117,0.006c0.269,0.002,0.485,0.022,0.723,0.27c0.121,0.101,0.229,0.19,0.303,0.321   c0.046,0.08,0.065,0.159,0.074,0.223c0.181,0.088,0.35,0.215,0.442,0.345c0.003,0.005,0.008,0.013,0.014,0.022   c0.027,0,0.048,0,0.048,0l0.124-0.002l0.123,0.003c0.108,0,0.181-0.019,0.21-0.034l0.135-0.076c0.115-0.067,0.23-0.133,0.367-0.188   c0.074-0.031,0.146-0.052,0.212-0.065c-0.132-0.183-0.243-0.377-0.231-0.717c0.009-0.273,0.069-0.471,0.146-0.699   c0.117-0.354,0.324-0.982,0.91-1.124c0.136-0.033,0.336-0.036,0.416-0.036c0.373,0,0.527,0.065,0.62,0.123   c0.225,0.142,0.303,0.33,0.327,0.483c0.002,0,0.004,0,0.006,0l0.151-0.001l0.442,0.001c0.388,0,0.648,0.163,0.852,0.322   c0.017,0.013,0.044,0.039,0.071,0.069c0.122,0.013,0.207,0.047,0.283,0.099c0.366,0.237,0.346,0.62,0.337,0.783l0.003,0.115   c0.001,0.003,0.012,0.022,0.073,0.086c0.073,0.076,0.126,0.155,0.166,0.218c0.083-0.026,0.171-0.046,0.275-0.046   c0.272,0.019,0.442,0.1,0.567,0.158l0.097,0.045c0.038,0.015,0.072,0.031,0.104,0.05c0.046-0.06,0.105-0.116,0.183-0.165   c0.157-0.104,0.334-0.116,0.452-0.116c0.006,0,0.096,0.003,0.102,0.003c0.153-0.034,0.278-0.081,0.457-0.081l0.374,0.002   l0.497-0.002c0.25,0.001,0.765-0.001,0.987,0.437c0.079,0.017,0.169,0.042,0.271,0.087l0.106,0.04   c0.168,0.061,0.357,0.129,0.5,0.265c0.09,0.083,0.147,0.17,0.185,0.247c0.071-0.003,0.146-0.003,0.204-0.01   c0.145-0.02,0.304-0.093,0.487-0.179l0.219-0.099c0.386-0.167,0.77-0.25,1.281-0.199c0.044,0.004,0.093,0.008,0.139,0.01   c0.083-0.117,0.156-0.212,0.263-0.289c0.191-0.14,0.39-0.175,0.534-0.2l0.213-0.05c0.007-0.002,0.014-0.004,0.021-0.006   c0.013-0.12,0.048-0.243,0.135-0.359c0.247-0.335,0.636-0.36,0.782-0.37l0.142-0.005c0.222,0,0.406,0.038,0.598,0.122l0.122,0.06   c0.157,0.008,0.311,0.101,0.41,0.229c0.001-0.001,0.002-0.002,0.003-0.003c0.115-0.108,0.233-0.213,0.353-0.287   c0.264-0.162,0.768-0.268,1.077,0.036c0.041-0.044,0.081-0.082,0.117-0.116l0.46,0.249l-0.358-0.349   c0.04-0.041,0.085-0.087,0.141-0.132c-0.099-0.111-0.191-0.243-0.24-0.405c-0.079-0.261-0.024-0.617,0.016-0.807   c0.006-0.032,0.048-0.147,0.06-0.177c0.037-0.172,0.053-0.277,0.117-0.425c0.108-0.244,0.271-0.402,0.408-0.528   c-0.185-0.109-0.384-0.279-0.476-0.557c-0.107-0.326-0.031-0.59,0.024-0.782c0.03-0.11,0.026-0.182,0.022-0.251   c-0.006-0.117-0.01-0.233,0.007-0.35c-0.009-0.276,0.122-0.472,0.387-0.588c0.087-0.042,0.188-0.051,0.35-0.051   c0.098,0,0.195,0.008,0.235,0.016c0.09,0.017,0.171,0.058,0.235,0.114c0.042-0.123,0.099-0.291,0.226-0.442   c0.397-0.477,1.192-0.665,1.941-0.507c0.035,0.008,0.131,0.044,0.179,0.064l0.052-0.001l0.134,0.499l-0.024-0.5   c0.349-0.02,0.488,0.071,0.634,0.218c0.094,0.095,0.151,0.193,0.186,0.284c0.521,0.086,0.718,0.427,0.83,0.621   c0.139,0.094,0.232,0.156,0.328,0.254c0.135,0.14,0.273,0.282,0.389,0.527c0.058,0.123,0.074,0.231,0.082,0.307   c0.08,0.061,0.158,0.129,0.226,0.23c0.042,0.063,0.068,0.123,0.086,0.173c0.059,0.02,0.129,0.055,0.199,0.108   c0.121,0.094,0.199,0.192,0.256,0.264l0.066,0.079c0.04,0.042,0.087,0.06,0.222,0.102c0.11,0.035,0.226,0.073,0.346,0.133   c0.148,0.075,0.166,0.084,0.263,0.108c0.048,0.013,0.094,0.032,0.136,0.058c0.051,0.002,0.112-0.001,0.134,0.003   c0.096,0.017,0.178,0.045,0.257,0.074l0.158,0.025l0.267-0.005c0.385-0.036,0.451-0.026,0.589,0.032   c0.023,0.01,0.091,0.045,0.112,0.059c0.159,0.098,0.247,0.272,0.237,0.45c0.021,0.069,0.028,0.141,0.019,0.21   c0.296-0.036,0.562,0.023,0.799,0.186c0.122,0.083,0.214,0.184,0.295,0.273c0.04,0.044,0.102,0.111,0.127,0.127   c0.15-0.011,0.487-0.303,0.521-0.456c0.038-0.303,0.093-0.463,0.305-0.668l0.119-0.107c0.024-0.021,0.05-0.043,0.07-0.062   c0.037-0.053,0.085-0.098,0.142-0.134c0.079-0.051,0.185-0.079,0.279-0.079c0.185,0,0.762,0.102,0.981,0.551l0.053,0.095   c0.075,0.128,0.179,0.303,0.191,0.578c0.013,0.267-0.021,0.505-0.053,0.716c-0.021,0.149-0.045,0.3-0.044,0.458l-0.002,0.673   c0.004,0.194-0.04,0.334-0.072,0.436c-0.01,0.034-0.022,0.067-0.028,0.111c-0.015,0.104-0.006,0.211-0.001,0.315l0.007,0.197   c0.006,0.377-0.019,0.612-0.386,0.9c-0.045,0.035-0.076,0.073-0.108,0.108c-0.094,0.104-0.224,0.249-0.465,0.349   C81.179,71.81,81.153,71.818,81.127,71.827z M48.604,69.499l-0.458,0.154l0.499-0.029C48.643,69.585,48.628,69.542,48.604,69.499z    M48.04,69.39l-0.392,0.021c0.001,0.029,0.015,0.071,0.04,0.113l0.459-0.14L48.04,69.39c-0.007,0.007-0.012,0.013-0.016,0.017   C48.029,69.401,48.034,69.396,48.04,69.39z M85.75,61.341c0.033,0.029,0.065,0.062,0.096,0.1c0.052,0.068,0.097,0.14,0.139,0.208   l-0.364,0.364l0.426-0.263c0.025,0.041,0.05,0.081,0.073,0.121c0.094-0.109,0.208-0.177,0.269-0.213   c0.073-0.046,0.142-0.075,0.203-0.094c-0.051-0.055-0.099-0.111-0.14-0.171c-0.003-0.003-0.077-0.081-0.08-0.084l-0.078-0.092   c-0.249-0.136-0.382-0.271-0.471-0.442c-0.03-0.058-0.05-0.113-0.063-0.162c-0.132-0.022-0.235-0.056-0.32-0.087   c0.12,0.151,0.168,0.301,0.205,0.416c0.047,0.121,0.069,0.181,0.084,0.235C85.742,61.241,85.748,61.296,85.75,61.341z    M41.843,43.382l0.14,0.496l-0.009-0.463C41.931,43.395,41.886,43.382,41.843,43.382z M87.238,41.601   c0.056,0.219,0.041,0.418,0.019,0.577c0,0,0.011,0.025,0.062,0.096c0.022,0.025,0.045,0.051,0.065,0.076   c0-0.002,0.001-0.004,0.001-0.006c0.02-0.077,0.037-0.149,0.037-0.197c-0.04-0.109-0.066-0.175-0.087-0.266   c-0.02-0.079-0.022-0.16-0.017-0.237C87.293,41.632,87.267,41.618,87.238,41.601z M50.832,37.381l0.089,0.434v-0.5   C50.898,37.32,50.864,37.345,50.832,37.381z M27.522,37.222c0.127,0.062,0.259,0.148,0.374,0.253   c0.004-0.024,0.009-0.048,0.015-0.073c0.02-0.078,0.05-0.142,0.08-0.191c-0.011-0.123,0-0.284,0.105-0.431   c-0.126,0.097-0.255,0.145-0.351,0.18c-0.034,0.013-0.081,0.03-0.095,0.04C27.616,37.068,27.576,37.146,27.522,37.222z    M24.871,37.138c0.13,0.04,0.245,0.115,0.338,0.217c0.188-0.234,0.425-0.308,0.583-0.33c-0.003-0.019-0.007-0.039-0.009-0.059   c-0.078-0.042-0.156-0.101-0.232-0.187c-0.111-0.124-0.16-0.253-0.189-0.344c-0.163-0.05-0.338-0.15-0.471-0.43   c-0.029-0.062-0.049-0.117-0.069-0.172c-0.011-0.032-0.021-0.065-0.038-0.097c-0.042-0.079-0.075-0.163-0.103-0.251   c-0.073,0.129-0.187,0.25-0.399,0.351c-0.054,0.025-0.12,0.048-0.189,0.068c-0.001,0.014-0.003,0.028-0.004,0.042   c-0.018,0.144-0.049,0.234-0.087,0.317c0.021,0,0.043,0.002,0.064,0.005c0.306,0.044,0.647,0.424,0.721,0.57   C24.828,36.925,24.863,37.026,24.871,37.138z M67.911,35.45c0.028,0.013,0.056,0.027,0.08,0.043   c0.005-0.145,0.037-0.326,0.16-0.485c-0.022-0.039-0.041-0.078-0.059-0.117c-0.02-0.039-0.035-0.079-0.048-0.118   c-0.04,0.054-0.088,0.107-0.143,0.159c-0.002,0.056-0.014,0.11-0.034,0.163c0.016,0.036,0.025,0.069,0.032,0.099   C67.914,35.252,67.927,35.346,67.911,35.45z M53.581,33.61v0.498l0.014-0.5C53.592,33.607,53.587,33.608,53.581,33.61z    M53.559,33.107c-0.047,0.036-0.092,0.06-0.126,0.078c-0.066,0.037-0.118,0.061-0.172,0.085c-0.118,0.062-0.146,0.11-0.133,0.152   c0.015,0.014,0.124,0.109,0.176,0.131c0.054,0.014,0.151,0.041,0.23,0.05c0.03-0.04,0.062-0.082,0.092-0.124   c0.056-0.077,0.112-0.152,0.167-0.22c0.012-0.014,0.023-0.027,0.035-0.04c-0.074-0.018-0.149-0.042-0.228-0.086   C53.588,33.128,53.573,33.118,53.559,33.107z M92.577,67.072c-0.243,0-0.407-0.156-0.538-0.281c-0.18-0.125-0.452-0.306-0.48-0.633   c-0.021-0.278,0.241-0.643,0.244-0.646c0.003-0.003,0.006-0.008,0.01-0.013c-0.004-0.068-0.001-0.145,0.022-0.228   c0.086-0.29,0.329-0.478,0.628-0.496c-0.003-0.062-0.002-0.118-0.001-0.167v-0.61c-0.002-0.276-0.004-0.525,0.246-0.82   c0.06-0.071,0.152-0.168,0.217-0.233c0.217-0.382,0.906-0.338,1.081,0.088c0.064,0.149,0.049,0.305,0.038,0.419   c-0.004,0.171-0.022,0.283-0.043,0.396c-0.01,0.054-0.021,0.108-0.024,0.173c-0.005,0.122-0.035,0.221-0.056,0.286   c-0.012,0.153-0.012,0.246-0.033,0.354c-0.012,0.051-0.04,0.146-0.062,0.218c-0.053,0.163-0.171,0.391-0.373,0.505   c-0.08,0.043-0.157,0.072-0.233,0.087c0.005,0.165-0.025,0.312-0.026,0.315c-0.038,0.183-0.051,0.243-0.052,0.333   c0.019,0.253,0.04,0.547-0.147,0.764c-0.088,0.1-0.247,0.181-0.38,0.189C92.602,67.072,92.588,67.072,92.577,67.072z    M94.296,62.329c-0.178,0-0.381-0.021-0.531-0.182c-0.191-0.183-0.165-0.463-0.149-0.63c0.003-0.287,0.002-0.525,0.229-0.832   c0.128-0.174,0.351-0.248,0.559-0.179c0.059,0.019,0.111,0.048,0.158,0.085c0.266,0.114,0.467,0.399,0.519,0.771   c0.064,0.455-0.136,0.831-0.499,0.937C94.555,62.307,94.476,62.329,94.296,62.329z M94.357,59.119c-0.428,0-0.589-0.26-0.638-0.371   c-0.073-0.168-0.056-0.343-0.043-0.47c-0.003-0.553,0.282-0.703,0.569-0.777c0.067-0.095,0.159-0.171,0.262-0.199   c0.54-0.149,0.963,0.138,0.99,0.613c0.029,0.481-0.396,1.125-0.934,1.188C94.512,59.111,94.434,59.119,94.357,59.119z    M36.227,38.923c-0.137,0-0.27-0.035-0.396-0.105c-0.123-0.068-0.202-0.158-0.254-0.241c-0.069,0.006-0.199-0.003-0.258-0.017   c-0.181-0.038-0.395-0.174-0.499-0.281c-0.206-0.207-0.341-0.695-0.091-1.017c0.034-0.044,0.101-0.096,0.168-0.137   c-0.027-0.027-0.053-0.058-0.078-0.092c-0.009-0.012-0.019-0.029-0.029-0.049c-0.065-0.035-0.138-0.088-0.198-0.172   c-0.078-0.102-0.241-0.396,0.021-0.771c0.004-0.007,0.009-0.015,0.013-0.021c0.002-0.02,0.004-0.036,0.004-0.036   c0.011-0.103,0.022-0.229,0.077-0.388c0.099-0.364,0.296-0.554,0.597-0.595c0.131,0,0.311,0.011,0.457,0.116   c0.046-0.027,0.092-0.051,0.137-0.074c-0.028-0.279,0.079-0.521,0.324-0.665c0.076-0.045,0.244-0.093,0.333-0.093   c0.143,0,0.34,0.047,0.518,0.256c0.059-0.147,0.179-0.268,0.345-0.338c0.135-0.057,0.3-0.065,0.481-0.048   c0.108-0.012,0.212-0.05,0.359-0.051c0.109-0.027,0.109-0.027,0.179-0.095c0.032-0.032,0.034-0.033,0.08-0.149   c0.044-0.112,0.121-0.241,0.258-0.345c0.071-0.087,0.173-0.149,0.288-0.172h0.001l0,0c0.031-0.006,0.063-0.009,0.096-0.009l0,0   c0.002,0,0.005,0,0.007,0h0.122c0.103,0,0.199,0.031,0.278,0.085c0.025,0.009,0.048,0.019,0.068,0.027   c0.064,0.026,0.131-0.011,0.173-0.035l0.127-0.075c0.099-0.063,0.234-0.15,0.395-0.186c0.145-0.032,0.325-0.028,0.504-0.017   l0.129,0.007c0.115-0.039,0.229-0.076,0.372-0.076c0.038,0,0.152,0.013,0.189,0.022c0.056,0.012,0.278,0.093,0.37,0.159   c0.061,0.052,0.106,0.103,0.141,0.15c0.194,0.005,0.399,0.109,0.507,0.328c0.008-0.001,0.015-0.002,0.021-0.003   c0.021-0.002,0.105-0.007,0.126-0.007l0.132,0.005c0.126-0.016,0.203-0.058,0.282-0.099c0.178-0.09,0.379-0.192,0.624-0.222   c0.453-0.054,0.754,0.119,0.884,0.267c0.108,0.124,0.228,0.343,0.183,0.685c-0.034,0.262-0.172,0.487-0.398,0.648   c-0.095,0.068-0.19,0.104-0.272,0.124c-0.021,0.084-0.061,0.172-0.13,0.255c-0.089,0.11-0.263,0.248-0.559,0.248   c-0.011,0-0.102-0.004-0.112-0.005l-0.071-0.502l-0.033,0.5c-0.15,0-0.328-0.011-0.536-0.141c-0.009-0.006-0.082-0.056-0.09-0.062   l-0.337,0.011h-0.001c-0.351,0-0.521-0.142-0.604-0.285l-0.017,0.015c-0.14,0.113-0.351,0.283-0.645,0.283   c-0.101,0-0.239-0.021-0.386-0.107c-0.104,0.167-0.275,0.359-0.578,0.359c-0.033,0-0.097-0.007-0.129-0.013   c-0.04-0.008-0.077-0.019-0.111-0.033c-0.048,0.056-0.104,0.107-0.174,0.149c-0.077,0.045-0.259,0.094-0.349,0.094   c-0.186,0-0.351-0.077-0.463-0.201c-0.021,0.008-0.042,0.016-0.064,0.023c-0.004,0.001-0.102,0.031-0.104,0.032   c-0.071,0.021-0.096,0.028-0.133,0.049c-0.011,0.022-0.024,0.051-0.033,0.063c-0.146,0.198-0.312,0.303-0.499,0.32   c-0.055,0.227-0.238,0.352-0.292,0.385c-0.09,0.056-0.195,0.088-0.317,0.097c-0.002,0.043-0.009,0.089-0.021,0.136   c-0.012,0.043-0.04,0.104-0.072,0.158c-0.023,0.177-0.062,0.33-0.21,0.5c-0.049,0.056-0.1,0.103-0.15,0.146   c0.082,0.129,0.112,0.257,0.124,0.332c0.04,0.252-0.035,0.52-0.201,0.714C36.67,38.821,36.453,38.923,36.227,38.923z    M35.647,36.461c0.084,0.077,0.19,0.186,0.248,0.362c0.038,0.115,0.053,0.233,0.042,0.353c0.054-0.091,0.12-0.171,0.191-0.235   c0.004-0.004,0.072-0.062,0.076-0.065c0.03-0.026,0.062-0.051,0.09-0.082c-0.025,0-0.02-0.056-0.004-0.122   c0.015-0.062,0.061-0.157,0.107-0.226l-0.052-0.002c-0.004-0.183-0.012-0.601,0.521-0.755c-0.003-0.028-0.004-0.054-0.005-0.079   c-0.033-0.006-0.064-0.013-0.094-0.021c-0.128,0.201-0.311,0.293-0.423,0.35c-0.029,0.015-0.062,0.029-0.092,0.051   c-0.12,0.18-0.294,0.43-0.647,0.392C35.622,36.408,35.636,36.436,35.647,36.461z M37.346,36.364l-0.499,0.102h0.473   C37.334,36.432,37.344,36.397,37.346,36.364z M40.529,34.229c0.118,0,0.286,0.029,0.468,0.153c0.001-0.001,0.003-0.002,0.004-0.003   l0.128-0.099c0.055-0.04,0.121-0.074,0.193-0.103c-0.03-0.037-0.053-0.075-0.071-0.11c-0.071,0.068-0.296,0.081-0.49,0.066   c-0.054-0.003-0.109-0.008-0.163-0.008c-0.059,0.009-0.093,0.034-0.125,0.055c-0.039,0.025-0.077,0.048-0.111,0.068   C40.426,34.233,40.483,34.229,40.529,34.229z M31.7,38.326c-0.242,0-0.42-0.083-0.529-0.248c-0.113-0.173-0.1-0.452,0.015-0.637   l-0.045-0.005c-0.01-0.108-0.021-0.256,0.02-0.402c0.044-0.15,0.195-0.491,0.691-0.491l0.171,0.003l0.129-0.007   c0.215-0.018,0.441-0.005,0.597,0.089c0.074,0.047,0.173,0.128,0.234,0.259c0.149,0.042,0.275,0.136,0.361,0.273   c0.146,0.229,0.101,0.538,0.061,0.702c-0.063,0.262-0.324,0.429-0.591,0.369c-0.165-0.037-0.279-0.062-0.363-0.064   c-0.047,0.038-0.107,0.077-0.186,0.104c-0.054,0.02-0.206,0.043-0.264,0.043l-0.066-0.229c-0.003,0.003-0.006,0.005-0.009,0.008   c0.003-0.003,0.006-0.005,0.009-0.008l-0.078-0.269l0.044,0.498C31.846,38.32,31.768,38.326,31.7,38.326z M9.06,36.666L9.06,36.666   c-0.118,0-0.239-0.02-0.36-0.058c-0.528-0.166-0.497-0.712-0.485-0.918c0.003-0.037,0.007-0.075,0.006-0.109   c-0.006,0.011-0.043-0.02-0.068-0.042l-0.096-0.079c-0.119-0.089-0.281-0.211-0.361-0.404c-0.139-0.318-0.056-0.65,0.019-0.905   c-0.006-0.042-0.005-0.084,0.001-0.127c0.025-0.19,0.094-0.444,0.269-0.577c0.119-0.091,0.349-0.129,0.495-0.112   c0.312,0.002,0.473,0.084,0.654,0.338c0.115,0.167,0.243,0.308,0.349,0.384c0.12,0.065,0.266,0.144,0.382,0.316   c0.205,0.299,0.117,0.575,0.08,0.693c-0.036,0.134-0.028,0.279-0.021,0.419c0.008,0.124,0.014,0.247,0.008,0.363   C9.908,36.33,9.55,36.666,9.06,36.666z M44.987,29.592c-0.009,0-0.11-0.003-0.119-0.004h-0.149c-0.006,0-0.106,0.003-0.112,0.003   c-0.091,0-0.365,0-0.567-0.216c-0.137-0.146-0.197-0.34-0.182-0.579c0.021-0.299,0.15-0.662,0.654-0.705   c0.031-0.017,0.064-0.031,0.099-0.04c0.172-0.046,0.362-0.022,0.489,0.105c0.031,0.01,0.075,0.024,0.125,0.045   c0.053-0.207,0.19-0.399,0.54-0.447c0.022-0.003,0.128-0.01,0.15-0.01l0.119,0.004c0.141-0.006,0.205-0.012,0.263-0.012   c0.07,0,0.284,0,0.453,0.165c0.122,0.12,0.289,0.377,0.083,0.789c-0.12,0.47-0.398,0.574-0.806,0.574l-0.142,0.005   c-0.043,0-0.136,0-0.245-0.031c-0.099,0.234-0.314,0.317-0.508,0.344C45.11,29.585,45.01,29.592,44.987,29.592z M81.888,28   c-0.277,0-0.528-0.138-0.671-0.369c-0.007-0.012-0.018-0.033-0.028-0.057c-0.025-0.021-0.05-0.044-0.072-0.068   c-0.134-0.192-0.161-0.314-0.179-0.395c-0.021-0.014-0.161-0.129-0.214-0.339c-0.133-0.512,0.318-0.871,0.512-1.024l0.091-0.078   c0.07-0.068,0.2-0.196,0.468-0.228c0.02-0.002,0.138-0.009,0.157-0.009l0.137,0.004c0.018,0,0.036,0.001,0.054,0.003h0.033   c0.004,0,0.008,0,0.01,0h0.01c0.087,0,0.168,0.022,0.238,0.06c0.329,0.114,0.497,0.389,0.5,0.821c0,0.274-0.094,0.453-0.209,0.573   c0.003,0.016,0.007,0.033,0.01,0.05c0.063,0.373-0.167,0.881-0.6,1.016C82.086,27.977,81.938,28,81.888,28z"></path></g></svg>