<svg height='100px' width='100px'  fill="#000000" xmlns="http://www.w3.org/2000/svg" viewBox="0 0 64 64" x="0px" y="0px"><title>09 wall protect border limit secure</title><polygon points="15 40 15 45 22 45 24 45 31 45 31 40 24 40 22 40 15 40"></polygon><polygon points="13 17 13 12 4 12 4 17 5 17 13 17"></polygon><polygon points="49 17 49 12 33 12 33 17 40 17 42 17 49 17"></polygon><polygon points="49 31 49 26 42 26 40 26 33 26 33 31 40 31 42 31 49 31"></polygon><polygon points="15 26 15 31 22 31 24 31 31 31 31 26 24 26 22 26 15 26"></polygon><polygon points="49 45 49 40 42 40 40 40 33 40 33 45 40 45 42 45 49 45"></polygon><polygon points="24 33 24 38 31 38 33 38 40 38 40 33 33 33 31 33 24 33"></polygon><polygon points="40 47 33 47 31 47 24 47 24 52 40 52 40 47"></polygon><polygon points="15 17 22 17 24 17 31 17 31 12 15 12 15 17"></polygon><polygon points="40 24 40 19 33 19 31 19 24 19 24 24 31 24 33 24 40 24"></polygon><polygon points="51 40 51 45 59 45 60 45 60 40 59 40 51 40"></polygon><polygon points="51 33 49 33 42 33 42 38 49 38 51 38 59 38 60 38 60 33 59 33 51 33"></polygon><polygon points="51 26 51 31 59 31 60 31 60 26 59 26 51 26"></polygon><polygon points="51 19 49 19 42 19 42 24 49 24 51 24 59 24 60 24 60 19 59 19 51 19"></polygon><polygon points="51 47 49 47 42 47 42 52 60 52 60 47 59 47 51 47"></polygon><polygon points="59.88 12 51 12 51 17 59 17 60 17 60 11 59.88 11 59.88 12"></polygon><polygon points="22 47 15 47 13 47 5 47 4 47 4 52 22 52 22 47"></polygon><polygon points="13 24 15 24 22 24 22 19 15 19 13 19 5 19 4 19 4 24 5 24 13 24"></polygon><polygon points="13 38 15 38 22 38 22 33 15 33 13 33 5 33 4 33 4 38 4.63 38 13 38"></polygon><polygon points="13 31 13 26 5 26 4 26 4 31 5 31 13 31"></polygon><polygon points="13 45 13 40 4.63 40 4 40 4 45 5 45 13 45"></polygon></svg>