<svg height='100px' width='100px'  fill="#000000" xmlns="http://www.w3.org/2000/svg" xmlns:xlink="http://www.w3.org/1999/xlink" version="1.1" x="0px" y="0px" viewBox="0 0 24 24" enable-background="new 0 0 24 24" xml:space="preserve"><g><circle fill="#000000" cx="47" cy="8" r="4"></circle><path fill="#000000" d="M51,14h-8c-2.209,0-4,1.791-4,4v4h16v-4C55,15.791,53.209,14,51,14z"></path></g><g><rect x="38" y="2" fill="#000000" width="2" height="20"></rect></g><g><rect x="42" y="2" fill="#000000" width="2" height="20"></rect></g><g><rect x="54" y="2" fill="#000000" width="2" height="20"></rect></g><g><rect x="50" y="2" fill="#000000" width="2" height="20"></rect></g><g><rect x="46" y="2" fill="#000000" width="2" height="20"></rect></g><path fill="#000000" d="M39,18c0,0.55-0.45,1-1,1h-1c-0.55,0-1-0.45-1-1v-3c0-0.55,0.45-1,1-1h1c0.55,0,1,0.45,1,1V18z"></path><path fill="#000000" d="M58,18c0,0.55-0.45,1-1,1h-1c-0.55,0-1-0.45-1-1v-3c0-0.55,0.45-1,1-1h1c0.55,0,1,0.45,1,1V18z"></path><g><path d="M37-15h-1.059c-0.463-4.171-3.771-7.48-7.941-7.941V-24c0-0.553-0.448-1-1-1s-1,0.447-1,1v1.059   c-4.171,0.461-7.48,3.77-7.941,7.941H17c-0.553,0-1,0.448-1,1s0.447,1,1,1h1.059C18.52-8.829,21.829-5.521,26-5.059V-4   c0,0.553,0.448,1,1,1s1-0.447,1-1v-1.059C32.171-5.521,35.479-8.83,35.941-13H37c0.553,0,1-0.448,1-1S37.553-15,37-15z M31-13h2.92   C33.48-9.941,31.059-7.521,28-7.08V-10c0-0.553-0.448-1-1-1s-1,0.447-1,1v2.92C22.941-7.52,20.521-9.941,20.08-13H23   c0.553,0,1-0.448,1-1s-0.447-1-1-1h-2.92c0.441-3.059,2.861-5.479,5.92-5.92V-18c0,0.553,0.448,1,1,1s1-0.447,1-1v-2.92   c3.059,0.44,5.479,2.861,5.92,5.92H31c-0.553,0-1,0.448-1,1S30.447-13,31-13z"></path><circle cx="27" cy="-14" r="1"></circle></g><g><circle cx="8" cy="4" r="4"></circle><path d="M15.076,11.472C14.343,10.581,13.244,10,12,10H4c-2.209,0-4,1.791-4,4v4h11.025C11.013,17.834,11,17.669,11,17.5   C11,14.768,12.688,12.433,15.076,11.472z"></path><circle cx="17.5" cy="17.5" r="0.5"></circle><path d="M22.5,17h-0.551c-0.232-2.08-1.869-3.717-3.949-3.949V12.5c0-0.276-0.224-0.5-0.5-0.5S17,12.224,17,12.5v0.551   c-2.08,0.232-3.717,1.869-3.949,3.949H12.5c-0.276,0-0.5,0.224-0.5,0.5s0.224,0.5,0.5,0.5h0.551   c0.232,2.08,1.869,3.717,3.949,3.949V22.5c0,0.276,0.224,0.5,0.5,0.5s0.5-0.224,0.5-0.5v-0.551c2.08-0.232,3.717-1.869,3.949-3.949   H22.5c0.276,0,0.5-0.224,0.5-0.5S22.776,17,22.5,17z M19.5,18h1.449c-0.221,1.527-1.422,2.729-2.949,2.949V19.5   c0-0.276-0.224-0.5-0.5-0.5S17,19.224,17,19.5v1.449c-1.527-0.221-2.729-1.422-2.949-2.949H15.5c0.276,0,0.5-0.224,0.5-0.5   S15.776,17,15.5,17h-1.449c0.221-1.527,1.422-2.729,2.949-2.949V15.5c0,0.276,0.224,0.5,0.5,0.5s0.5-0.224,0.5-0.5v-1.449   c1.527,0.221,2.729,1.422,2.949,2.949H19.5c-0.276,0-0.5,0.224-0.5,0.5S19.224,18,19.5,18z"></path></g></svg>