<svg height='100px' width='100px'  fill="#000000" xmlns="http://www.w3.org/2000/svg" xmlns:xlink="http://www.w3.org/1999/xlink" version="1.1" x="0px" y="0px" viewBox="0 0 100 100" style="enable-background:new 0 0 100 100;" xml:space="preserve"><path d="M62.2958984,18.9482422l-7.9785156-1.159668l-3.5693359-7.2304688c-0.3359375-0.6835938-1.4570312-0.6826172-1.7929688,0  l-3.5683594,7.2304688l-7.9794922,1.159668c-0.3769531,0.0546875-0.6894531,0.3188477-0.8076172,0.6806641  c-0.1171875,0.3623047-0.0195312,0.7592773,0.2529297,1.0253906l5.7744141,5.6279297l-1.3632812,7.9472656  c-0.0644531,0.375,0.0898438,0.7543945,0.3974609,0.9780273c0.3105469,0.2246094,0.7167969,0.253418,1.0537109,0.0761719  l7.1367188-3.7524414l7.1367188,3.7524414c0.1464844,0.0766602,0.3066406,0.1147461,0.4658203,0.1147461  c0.2070312,0,0.4140625-0.0644531,0.5878906-0.190918c0.3076172-0.2236328,0.4619141-0.6030273,0.3974609-0.9780273  l-1.3632812-7.9472656l5.7744141-5.6279297c0.2724609-0.2661133,0.3701172-0.6630859,0.2529297-1.0253906  C62.9853516,19.2670898,62.6728516,19.0029297,62.2958984,18.9482422z M55.3037109,25.2167969  c-0.2353516,0.2299805-0.3427734,0.5610352-0.2871094,0.8852539l1.109375,6.4682617l-5.8085938-3.0541992  c-0.1464844-0.0766602-0.3056641-0.1147461-0.4658203-0.1147461s-0.3193359,0.0380859-0.4658203,0.1147461l-5.8085938,3.0541992  l1.109375-6.4682617c0.0556641-0.3242188-0.0517578-0.6552734-0.2871094-0.8852539l-4.7001953-4.5805664l6.4951172-0.9438477  c0.3261719-0.0473633,0.6074219-0.2519531,0.7529297-0.5473633l2.9042969-5.8847656l2.9052734,5.8847656  c0.1455078,0.2954102,0.4267578,0.5,0.7529297,0.5473633l6.4941406,0.9438477L55.3037109,25.2167969z"></path><path d="M31.1835938,26.8842773c-0.2587891-0.2797852-0.6533203-0.3852539-1.0185547-0.2802734L23.5,28.5771484  l-5.4042969-4.3725586c-0.296875-0.2402344-0.7041016-0.2900391-1.0478516-0.1308594  c-0.3457031,0.159668-0.5703125,0.5014648-0.5810547,0.8818359l-0.1826172,6.949707l-5.8291016,3.7885742  c-0.3193359,0.2075195-0.4931641,0.578125-0.4482422,0.9560547s0.3007812,0.6977539,0.6591797,0.824707l6.5527344,2.3217773  l1.8017578,6.7143555c0.0986328,0.3676758,0.3974609,0.6474609,0.7705078,0.7216797  c0.0654297,0.0126953,0.1308594,0.019043,0.1953125,0.019043c0.3076172,0,0.6015625-0.1416016,0.7929688-0.3911133  l4.2333984-5.5146484l6.9423828,0.3608398c0.3798828,0.0253906,0.7382812-0.1777344,0.9248047-0.5102539  c0.1855469-0.3320312,0.1669922-0.7407227-0.0488281-1.0546875l-3.9365234-5.7294922l2.4882812-6.4912109  C31.5195312,27.5654297,31.4414062,27.1635742,31.1835938,26.8842773z M30.0351562,39.6040039l-5.4433594-0.2827148  c-0.3261719-0.0244141-0.6445312,0.1279297-0.8447266,0.3896484l-3.3203125,4.3242188l-1.4130859-5.2651367  c-0.0849609-0.3178711-0.3212891-0.5732422-0.6318359-0.6831055l-5.1376953-1.8208008l4.5703125-2.9707031  c0.2763672-0.1791992,0.4462891-0.4829102,0.4550781-0.8120117l0.1435547-5.449707l4.2373047,3.4287109  c0.2548828,0.2070312,0.5957031,0.2749023,0.9130859,0.1816406l5.2265625-1.5473633l-1.9511719,5.090332  c-0.1181641,0.3071289-0.0771484,0.652832,0.109375,0.9243164L30.0351562,39.6040039z"></path><path d="M67.1201172,41.1962891c0.1865234,0.3330078,0.5546875,0.5385742,0.9248047,0.5102539l6.9423828-0.3608398  l4.2333984,5.5146484c0.1914062,0.2495117,0.4853516,0.3911133,0.7929688,0.3911133  c0.0644531,0,0.1298828-0.0063477,0.1953125-0.019043c0.3730469-0.0742188,0.671875-0.3540039,0.7705078-0.7216797  l1.8017578-6.7143555l6.5527344-2.3217773c0.3583984-0.1269531,0.6142578-0.4467773,0.6591797-0.824707  s-0.1289062-0.7485352-0.4482422-0.9560547l-5.8291016-3.7885742l-0.1826172-6.949707  c-0.0107422-0.3803711-0.2353516-0.722168-0.5810547-0.8818359c-0.3447266-0.1591797-0.7519531-0.109375-1.0478516,0.1308594  L76.5,28.5771484l-6.6650391-1.9731445c-0.3642578-0.1069336-0.7597656,0.0004883-1.0185547,0.2802734  c-0.2578125,0.2792969-0.3359375,0.6811523-0.1992188,1.0366211l2.4882812,6.4912109l-3.9365234,5.7294922  C66.953125,40.4555664,66.9345703,40.8642578,67.1201172,41.1962891z M73.0517578,35.1113281  c0.1865234-0.2714844,0.2275391-0.6171875,0.109375-0.9243164l-1.9511719-5.090332l5.2265625,1.5473633  c0.3173828,0.0932617,0.6582031,0.0253906,0.9130859-0.1816406l4.2373047-3.4287109l0.1435547,5.449707  c0.0087891,0.3291016,0.1787109,0.6328125,0.4550781,0.8120117l4.5703125,2.9707031l-5.1376953,1.8208008  c-0.3105469,0.1098633-0.546875,0.3652344-0.6318359,0.6831055l-1.4130859,5.2651367l-3.3203125-4.3242188  c-0.1894531-0.2475586-0.4833984-0.3911133-0.7929688-0.3911133c-0.0175781,0-0.0341797,0.0004883-0.0517578,0.0014648  l-5.4433594,0.2827148L73.0517578,35.1113281z"></path><path d="M28.0693359,46.1738281c-0.3876953,0.394043-0.381855,1.0268555,0.0117188,1.4140625  C45.6904297,64.902832,44.2265625,88.690918,44.2099609,88.9291992c-0.0390625,0.5507812,0.375,1.0292969,0.9257812,1.0683594  c0.0244141,0.0019531,0.0488281,0.0029297,0.0722656,0.0029297c0.5195312,0,0.9589844-0.4018555,0.9960938-0.9282227  c0.0185547-0.2475586,1.5644531-24.9311523-16.7207031-42.9101562  C29.0898438,45.7744141,28.4550781,45.7797852,28.0693359,46.1738281z"></path><path d="M53.5458984,89.0722656c0.0371094,0.5263672,0.4765625,0.9282227,0.9960938,0.9282227  c0.0234375,0,0.0478516-0.0009766,0.0722656-0.0029297c0.5507812-0.0390625,0.9648438-0.5175781,0.9257812-1.0678711  c-0.0166016-0.2382812-1.4794922-24.0268555,16.1298828-41.3417969c0.3935547-0.387207,0.3994141-1.0200195,0.0117188-1.4140625  c-0.3867188-0.394043-1.0205078-0.3994141-1.4140625-0.0117188C51.9824219,64.1411133,53.5273438,88.824707,53.5458984,89.0722656z"></path><path d="M11,63.4555664c14.0859375,0,25.5458984,11.4599609,25.5458984,25.5458984c0,0.5522461,0.4472656,1,1,1s1-0.4477539,1-1  C38.5458984,73.8125,26.1884766,61.4555664,11,61.4555664c-0.5527344,0-1,0.4477539-1,1S10.4472656,63.4555664,11,63.4555664z"></path><path d="M89,61.4555664c-15.1884766,0-27.5458984,12.3569336-27.5458984,27.5458984c0,0.5522461,0.4472656,1,1,1s1-0.4477539,1-1  c0-14.0859375,11.4599609-25.5458984,25.5458984-25.5458984c0.5527344,0,1-0.4477539,1-1S89.5527344,61.4555664,89,61.4555664z"></path><path d="M48.8515625,38.625v23.8305664c0,0.5522461,0.4472656,1,1,1s1-0.4477539,1-1V38.625c0-0.5522461-0.4472656-1-1-1  S48.8515625,38.0727539,48.8515625,38.625z"></path></svg>