<svg height='100px' width='100px'  fill="#000000" xmlns:dc="http://purl.org/dc/elements/1.1/" xmlns:cc="http://creativecommons.org/ns#" xmlns:rdf="http://www.w3.org/1999/02/22-rdf-syntax-ns#" xmlns:svg="http://www.w3.org/2000/svg" xmlns="http://www.w3.org/2000/svg" xmlns:sodipodi="http://sodipodi.sourceforge.net/DTD/sodipodi-0.dtd" xmlns:inkscape="http://www.inkscape.org/namespaces/inkscape" version="1.1" x="0px" y="0px" viewBox="0 0 100 100"><g transform="translate(0,-952.36218)"><path style="font-size:medium;font-style:normal;font-variant:normal;font-weight:normal;font-stretch:normal;text-indent:0;text-align:start;text-decoration:none;line-height:normal;letter-spacing:normal;word-spacing:normal;text-transform:none;direction:ltr;block-progression:tb;writing-mode:lr-tb;text-anchor:start;baseline-shift:baseline;opacity:1;color:#000000;fill:#000000;fill-opacity:1;stroke:none;stroke-width:2;marker:none;visibility:visible;display:inline;overflow:visible;enable-background:accumulate;font-family:Sans;-inkscape-font-specification:Sans" d="M 66.875 6.96875 A 1.0001 1.0001 0 0 0 66.0625 8.3125 L 67.25 11.875 A 1.0001 1.0001 0 1 0 69.125 11.25 L 67.9375 7.6875 A 1.0001 1.0001 0 0 0 66.875 6.96875 z M 77.84375 8.625 A 1.0001 1.0001 0 0 0 77.21875 9.03125 L 74.96875 12.09375 A 1.0063276 1.0063276 0 0 0 76.59375 13.28125 L 78.84375 10.21875 A 1.0001 1.0001 0 0 0 77.84375 8.625 z M 70.71875 16.59375 A 1.0001 1.0001 0 0 0 70.53125 16.65625 C 68.381366 17.39625 66.933846 18.22038 66 19.25 C 65.066154 20.27962 64.735748 21.51114 64.8125 22.65625 A 1.0001 1.0001 0 0 0 64.8125 22.6875 C 65.090108 25.50252 66.289471 27.75009 66.59375 29.5625 C 66.745889 30.4687 66.738911 31.22973 66.375 32.03125 C 66.011089 32.83277 65.24365 33.7242 63.8125 34.71875 A 1.0001 1.0001 0 0 0 63.90625 36.40625 L 68.15625 38.875 L 64.0625 45.96875 C 62.830329 44.911596 61.486125 43.935479 60.03125 43.09375 C 58.571889 42.249411 57.06435 41.605845 55.53125 41.0625 L 60.125 33.0625 A 1.0001 1.0001 0 0 0 59.0625 31.5625 A 1.0001 1.0001 0 0 0 58.375 32.0625 L 53.53125 40.4375 C 50.661175 39.668007 47.734738 39.357155 44.84375 39.5625 C 36.296332 40.16961 28.195242 44.88819 23.59375 52.875 C 16.23136 65.6538 20.590235 82.02755 33.34375 89.40625 C 42.69745 94.81805 53.99538 93.919 62.25 88 A 1.0063276 1.0063276 0 0 0 61.0625 86.375 C 53.429664 91.8482 43.010552 92.67055 34.34375 87.65625 C 22.526801 80.81945 18.489138 65.7182 25.3125 53.875 C 32.135868 42.03169 47.214295 37.97559 59.03125 44.8125 C 70.848195 51.6493 74.885863 66.7818 68.0625 78.625 A 1.0077822 1.0077822 0 0 0 69.8125 79.625 C 75.978502 68.922755 73.892209 55.724553 65.5625 47.375 L 70.375 39 A 1.0001 1.0001 0 0 0 70 37.65625 L 66.125 35.40625 C 67.050265 34.5884 67.791523 33.74714 68.1875 32.875 C 68.742077 31.65354 68.756739 30.40696 68.5625 29.25 C 68.175723 26.9462 67.048672 24.84337 66.8125 22.53125 C 66.811743 22.51995 66.813168 22.5112 66.8125 22.5 C 66.77003 21.78778 66.914742 21.23903 67.5 20.59375 C 68.094465 19.93832 69.223881 19.20713 71.1875 18.53125 A 1.0001 1.0001 0 0 0 70.71875 16.59375 z M 75.625 19.59375 A 1.0001 1.0001 0 0 0 75.40625 21.5 L 78.59375 22.90625 A 1.0074188 1.0074188 0 1 0 79.40625 21.0625 L 76.21875 19.6875 A 1.0001 1.0001 0 0 0 75.625 19.59375 z M 29.34375 61.4375 A 1.0349201 0.96645132 1.3166839 0 0 28.8125 62.1875 C 27.745446 67.5803 29.141147 73.30605 32.59375 77.59375 A 1.0349201 0.96645132 1.3166839 1 0 34.03125 76.28125 C 30.98091 72.49305 29.744772 67.4519 30.6875 62.6875 A 1.0349201 0.96645132 1.3166839 0 0 29.34375 61.4375 z " transform="translate(0,952.36218)"></path></g></svg>