<svg height='100px' width='100px'  fill="#000000" xmlns="http://www.w3.org/2000/svg" xmlns:xlink="http://www.w3.org/1999/xlink" version="1.1" x="0px" y="0px" viewBox="0 0 64 64" enable-background="new 0 0 64 64" xml:space="preserve"><g><path d="M3,20.492L3,20.492h0.002h14v2.998c0,0.552,0.447,1,1,1h2.781C19.046,26.7,18,29.479,18,32.501   c0,4.635,2.447,8.701,6.109,11.002H18c-1.654,0-3,1.346-3,3c0,1.647,1.336,2.987,2.98,2.998c0.007,0,0.013,0.004,0.02,0.004h42.998   c0.006,0,0.012-0.004,0.018-0.004C62.662,49.494,64,48.153,64,46.504c0-1.654-1.346-3-3-3h-0.001h-0.001h-2.113   C60.188,42.231,61,40.46,61,38.5c0-3.859-3.141-7-7.002-7h-3.994c-0.004,0-0.006-0.002-0.01-0.002   c-2.755,0-4.996-2.239-4.999-4.993c0-0.002,0.001-0.004,0.001-0.006c0-0.699-0.105-1.373-0.297-2.01h3.295c4.963,0,9-4.036,9-8.996   c0-0.552-0.447-1-1-1H18.002h-15H3.001H3c-1.654,0-3,1.346-3,3C0,19.147,1.346,20.492,3,20.492z M61,47.504   c-0.004,0-0.006,0.002-0.01,0.002H18.01c-0.004,0-0.006-0.002-0.01-0.002c-0.552,0-1-0.448-1-1s0.448-1,1-1h42.998h0.001H61   c0.552,0,1,0.448,1,1S61.552,47.504,61,47.504z M49.981,33.497c0.005,0,0.008,0.003,0.013,0.003h3.999   c0.002,0,0.003,0.001,0.005,0.001c2.758,0,5.002,2.242,5.002,4.999s-2.244,5-5.002,5c-0.007,0-0.013,0.004-0.02,0.004H31.018   c-0.007,0-0.013-0.004-0.02-0.004C24.934,43.5,20,38.566,20,32.501c0-6.065,4.934-11,10.998-11h6.998c0.001,0,0.002,0,0.003,0   c2.753,0.001,4.993,2.24,4.996,4.992c0,0.002-0.001,0.004-0.001,0.006C42.994,30.354,46.128,33.49,49.981,33.497z M47.994,22.49   h-4.27c-1.268-1.805-3.361-2.989-5.729-2.989c-0.002,0-0.003,0.001-0.005,0.001h-6.993c-3.145,0-6.03,1.123-8.281,2.988h-3.715   v-5.996h35.912C54.426,19.878,51.513,22.49,47.994,22.49z M3,16.494L3,16.494h0.002h14v1.998h-14H3.001H3c-0.552,0-1-0.448-1-0.998   C2,16.942,2.448,16.494,3,16.494z"></path><path d="M41.996,26.492c-0.005-2.198-1.797-3.988-4-3.991h-6.998c-5.513,0-9.998,4.486-9.998,10c0,5.513,4.485,9.999,9.998,9.999   h23c2.207,0,4.002-1.794,4.002-4s-1.795-4-4.002-4h-3.957c-0.028-0.002-0.058-0.004-0.082-0.004   c-4.374-0.019-7.936-3.577-7.965-7.942C41.995,26.533,41.996,26.513,41.996,26.492z M49.903,36.496   c0.032,0.002,0.064,0.004,0.091,0.004h4.004c1.104,0,2.002,0.897,2.002,2s-0.898,2-2.002,2h-23c-4.41,0-7.998-3.588-7.998-7.999   c0-4.411,3.588-8,7.998-8h7.001c1.083,0.001,1.969,0.871,1.996,1.948c-0.001,0.017-0.001,0.033-0.001,0.05   C39.994,31.971,44.433,36.444,49.903,36.496z"></path><path d="M31.002,28.499c-2.206,0-4,1.794-4,4s1.794,4,4,4s4-1.794,4-4S33.208,28.499,31.002,28.499z M31.002,34.498   c-1.103,0-2-0.897-2-2c0-1.103,0.897-2,2-2s2,0.897,2,2C33.002,33.601,32.104,34.498,31.002,34.498z"></path></g></svg>