<svg height='100px' width='100px'  fill="#000000" xmlns="http://www.w3.org/2000/svg" viewBox="0 0 64 64" x="0px" y="0px"><g><path d="M39,17H26a1,1,0,0,0-1,1V28a1,1,0,0,0,1,1H39a1,1,0,0,0,1-1V18A1,1,0,0,0,39,17ZM27,27V19H38v1H32a3,3,0,0,0,0,6h6v1Zm11-3H32a1,1,0,0,1,0-2h6Z"></path><path d="M39,17H26a1,1,0,0,0-1,1V28a1,1,0,0,0,1,1H39a1,1,0,0,0,1-1V18A1,1,0,0,0,39,17ZM27,27V19H38v1H32a3,3,0,0,0,0,6h6v1Zm11-3H32a1,1,0,0,1,0-2h6Z"></path><path d="M30,31H24a1,1,0,0,0-1,1v6a1,1,0,0,0,1,1h6a1,1,0,0,0,1-1V32A1,1,0,0,0,30,31Zm-1,6H25V33h4Z"></path><path d="M30,31H24a1,1,0,0,0-1,1v6a1,1,0,0,0,1,1h6a1,1,0,0,0,1-1V32A1,1,0,0,0,30,31Zm-1,6H25V33h4Z"></path><path d="M61.585,9.188a.991.991,0,0,0-.9-.136L48.839,13H28V10a1,1,0,0,0-1-1H23a1,1,0,0,0-1,1v3.9a23.786,23.786,0,0,1-1.822,5.907L15.5,17.132a1,1,0,0,0-1.328.313l-2,3a1,1,0,0,0,.277,1.387l4.633,3.088a27.672,27.672,0,0,1-6.594,6.224c-.009.005-.014.014-.023.02a1.994,1.994,0,0,0-.236.209,1.016,1.016,0,0,0-.1.163c-.02.036-.066.117-.067.122l-8,22A1,1,0,0,0,3,55H15a1,1,0,0,0,.923-.615L20.667,43H34a1,1,0,0,0,1-1V33h8a1,1,0,0,0,1-1V27h5a1,1,0,0,0,1-1V25H61a1,1,0,0,0,1-1V10A1,1,0,0,0,61.585,9.188ZM60,11.388V13H55.162ZM24,11h2v2H24Zm-9.613,9.723.927-1.392,3.959,2.262c-.331.595-.677,1.159-1.033,1.7ZM14.333,53H4.428L11.7,33H19v8.8ZM48,25H43a1,1,0,0,0-1,1v5H34a1,1,0,0,0-1,1v9H21V32a1,1,0,0,0-1-1H14.05a28.366,28.366,0,0,0,9.783-16H48v2H42v2h6v2H46v2h2Zm2-2V15H60v2H52v2h8v4Z"></path><path d="M61.585,9.188a.991.991,0,0,0-.9-.136L48.839,13H28V10a1,1,0,0,0-1-1H23a1,1,0,0,0-1,1v3.9a23.786,23.786,0,0,1-1.822,5.907L15.5,17.132a1,1,0,0,0-1.328.313l-2,3a1,1,0,0,0,.277,1.387l4.633,3.088a27.672,27.672,0,0,1-6.594,6.224c-.009.005-.014.014-.023.02a1.994,1.994,0,0,0-.236.209,1.016,1.016,0,0,0-.1.163c-.02.036-.066.117-.067.122l-8,22A1,1,0,0,0,3,55H15a1,1,0,0,0,.923-.615L20.667,43H34a1,1,0,0,0,1-1V33h8a1,1,0,0,0,1-1V27h5a1,1,0,0,0,1-1V25H61a1,1,0,0,0,1-1V10A1,1,0,0,0,61.585,9.188ZM60,11.388V13H55.162ZM24,11h2v2H24Zm-9.613,9.723.927-1.392,3.959,2.262c-.331.595-.677,1.159-1.033,1.7ZM14.333,53H4.428L11.7,33H19v8.8ZM48,25H43a1,1,0,0,0-1,1v5H34a1,1,0,0,0-1,1v9H21V32a1,1,0,0,0-1-1H14.05a28.366,28.366,0,0,0,9.783-16H48v2H42v2h6v2H46v2h2Zm2-2V15H60v2H52v2h8v4Z"></path><rect x="42" y="21" width="2" height="2"></rect><rect x="42" y="21" width="2" height="2"></rect></g></svg>