<svg height='100px' width='100px'  fill="#000000" xmlns:x="http://ns.adobe.com/Extensibility/1.0/" xmlns:i="http://ns.adobe.com/AdobeIllustrator/10.0/" xmlns:graph="http://ns.adobe.com/Graphs/1.0/" xmlns="http://www.w3.org/2000/svg" xmlns:xlink="http://www.w3.org/1999/xlink" version="1.1" x="0px" y="0px" viewBox="0 0 64 64" enable-background="new 0 0 64 64" xml:space="preserve"><g><g i:extraneous="self"><path fill="#000000" d="M49.438,31.271c-1.769-0.644-3.323-3.271-4.059-6.86c-0.311-1.498-0.469-3.096-0.469-4.748    c0-1.871,0.21-3.718,0.605-5.341c0.049-0.198-0.027-0.405-0.192-0.524c-2.389-1.725-5.032-2.94-7.858-3.611    c-0.075-0.018-0.152-0.018-0.229,0c-3.302,0.774-7.188,0.772-10.481,0c-0.077-0.018-0.153-0.018-0.231,0    c-2.757,0.662-5.345,1.842-7.691,3.509c-0.168,0.119-0.245,0.328-0.196,0.527c0.415,1.689,0.625,3.52,0.625,5.441    c0,1.652-0.158,3.25-0.469,4.748c-0.762,3.674-2.358,6.316-4.167,6.898c-0.636,0.204-1.064,0.778-1.064,1.428v19.605    c0,0.827,0.673,1.5,1.5,1.5h33.88c0.827,0,1.5-0.673,1.5-1.5V32.678C50.44,32.044,50.047,31.492,49.438,31.271z M37.062,11.242    l-4.981,16.116L27.122,11.28C30.309,11.933,33.882,11.924,37.062,11.242z M14.56,52.342V32.736c0-0.217,0.146-0.403,0.37-0.477    c2.184-0.701,3.993-3.561,4.839-7.646c0.325-1.564,0.49-3.23,0.49-4.951c0-1.876-0.193-3.672-0.575-5.345    c1.978-1.359,4.134-2.345,6.412-2.971l5.484,17.781v23.714H15.06C14.784,52.842,14.56,52.617,14.56,52.342z M49.44,52.342    c0,0.275-0.225,0.5-0.5,0.5H32.58V29.125l5.481-17.731c2.28,0.641,4.434,1.641,6.406,3.02c-0.364,1.617-0.557,3.423-0.557,5.247    c0,1.721,0.165,3.387,0.489,4.95c0.816,3.985,2.572,6.825,4.696,7.598c0.209,0.076,0.345,0.26,0.345,0.468V52.342z M23.063,27.811    h2.906c0.827,0,1.5-0.673,1.5-1.5v-5.469h-5.906v5.469C21.563,27.138,22.235,27.811,23.063,27.811z M25.969,26.811h-2.906    c-0.275,0-0.5-0.225-0.5-0.5v-2.469h3.906v2.469C26.469,26.586,26.244,26.811,25.969,26.811z M26.469,21.842v1h-3.906v-1H26.469z     M18.563,30.842v6.563c0,0.827,0.673,1.5,1.5,1.5h7.063c0.827,0,1.5-0.673,1.5-1.5v-6.563H18.563z M27.625,31.842v1h-8.063v-1    H27.625z M27.125,37.904h-7.063c-0.275,0-0.5-0.225-0.5-0.5v-3.563h8.063v3.563C27.625,37.68,27.4,37.904,27.125,37.904z     M16.5,50.029c0,0.827,0.673,1.5,1.5,1.5h9.125c0.827,0,1.5-0.673,1.5-1.5v-8.188H16.5V50.029z M17.5,50.029v-5.188h3.906v5.688    H18C17.725,50.529,17.5,50.305,17.5,50.029z M27.125,50.529h-4.719v-5.688h5.219v5.188C27.625,50.305,27.4,50.529,27.125,50.529z     M27.625,43.842h-5.219v-1h5.219V43.842z M21.406,42.842v1H17.5v-1H21.406z M38.191,27.811h2.906c0.827,0,1.5-0.673,1.5-1.5    v-5.469h-5.906v5.469C36.691,27.138,37.364,27.811,38.191,27.811z M41.098,26.811h-2.906c-0.275,0-0.5-0.225-0.5-0.5v-2.469h3.906    v2.469C41.598,26.586,41.373,26.811,41.098,26.811z M41.598,21.842v1h-3.906v-1H41.598z M37.035,38.904h7.063    c0.827,0,1.5-0.673,1.5-1.5v-6.563H35.535v6.563C35.535,38.231,36.208,38.904,37.035,38.904z M44.098,37.904h-7.063    c-0.275,0-0.5-0.225-0.5-0.5v-3.563h8.063v3.563C44.598,37.68,44.373,37.904,44.098,37.904z M44.598,31.842v1h-8.063v-1H44.598z     M35.535,50.029c0,0.827,0.673,1.5,1.5,1.5h9.125c0.827,0,1.5-0.673,1.5-1.5v-8.188H35.535V50.029z M36.535,50.029v-5.188h5.219    v5.688h-4.719C36.76,50.529,36.535,50.305,36.535,50.029z M46.16,50.529h-3.406v-5.688h3.906v5.188    C46.66,50.305,46.436,50.529,46.16,50.529z M46.66,43.842h-3.906v-1h3.906V43.842z M41.754,42.842v1h-5.219v-1H41.754z"></path></g></g></svg>