<svg height='100px' width='100px'  fill="#000000" xmlns="http://www.w3.org/2000/svg" data-name="Layer 1" viewBox="0 0 128 128" x="0px" y="0px"><title>Miscellaneous 99 expand lines</title><path d="M20.58663,74.5779a1.99973,1.99973,0,0,0,0,2.82855l26.00085,26.00379a18.12591,18.12591,0,0,1,1.54242-4.11451L23.41486,74.5779A1.99919,1.99919,0,0,0,20.58663,74.5779Z"></path><path d="M28.58692,66.57669a1.99973,1.99973,0,0,0,0,2.82855L52.866,93.687A17.29748,17.29748,0,0,1,56.411,91.57539L31.41515,66.57669A1.99919,1.99919,0,0,0,28.58692,66.57669Z"></path><path d="M71.812,100.93562a16.90339,16.90339,0,0,1-3.93539-.73326l-1.8108,12.17615a4.9546,4.9546,0,0,0,1.26665,4.12806l3.24524,3.47611.09474.09475a3.47081,3.47081,0,0,0,4.69548,0l3.34192-3.57134a4.78613,4.78613,0,0,0,1.21391-4.12416L77.73866,100.3112a16.91655,16.91655,0,0,1-3.9479.64481l2.20809,12.196a1.12081,1.12081,0,0,1-.08692.4947l-2.89171,3.0908-2.86143-3.06a1.10156,1.10156,0,0,1-.14454-.6583Z"></path><path d="M86.27944,94.58445a17.13168,17.13168,0,0,1-3.68727,3.43582c5.56716.25669,9.41118,4.32957,9.41118,10.09881V123.9994H54.00193V108.11908c0-5.76924,3.844-9.84212,9.41118-10.09881a17.13168,17.13168,0,0,1-3.68727-3.43582c-5.823,1.689-9.72406,6.86547-9.72406,13.53463V125.9997A2.00029,2.00029,0,0,0,52.00186,128H94.00342a2.00029,2.00029,0,0,0,2.00007-2.0003V108.11908C96.0035,101.44992,92.10241,96.27342,86.27944,94.58445Z"></path><path d="M87.04308,74.4229a16.96584,16.96584,0,0,1,1.861,3.61022,28.01407,28.01407,0,1,0-31.80392.0025,16.96275,16.96275,0,0,1,1.859-3.6087c-.29359-.21231-.57455-.44825-.86148-.67314a10.62238,10.62238,0,0,0-.61617-8.72617c-2.16811-3.83743-6.50909-5.48581-8.11737-5.98247a24.14558,24.14558,0,0,1-.29634-2.83618,5.44412,5.44412,0,0,0,3.75536-2.44237,4.94954,4.94954,0,0,1,2.01454-1.2994c3.12277-1.40868,4.04656-3.75753,3.83917-7.03516a4.206,4.206,0,0,1,.272-2.4643c.84575-1.4082,2.53608-2.05,3.22889-3.584.80485-1.782.09158-3.76494-.93906-5.28956a23.79427,23.79427,0,0,1,3.26453-1.53563,5.80875,5.80875,0,0,0,.94446,1.77413,9.66123,9.66123,0,0,0,7.35858,3.65766c2.83984,0,6.4609-1.16268,8.47177-3.906.06861-.0936.93109-1.26134.953-1.25227a23.75873,23.75873,0,0,1,10.7786,8.92169,4.86637,4.86637,0,0,0-2.32278,1.79165,4.60468,4.60468,0,0,0-2.39657-2.49256,2.94853,2.94853,0,0,0-2.79.49022c-.13706.10431-.79643.77562-.99806.71069a4.17292,4.17292,0,0,0-2.20042-.28134,3.7131,3.7131,0,0,0-2.9796,2.21518c-.6719,1.85477.61428,3.521,1.97566,5.28546,2.26254,2.93178,2.54984,3.91835,1.73747,4.81749-.03343.03-.46311-.45351-.51086-.50776a23.07393,23.07393,0,0,1-2.09285-2.55068c-1.07914-2.09651-2.422-4.70627-5.09589-6.33689a8.89076,8.89076,0,0,0-9.89.62754c-2.78819,2.23178-3.6935,4.82885-2.68852,7.71862a8.91354,8.91354,0,0,0,2.32034,4.05854c.543.47566,1.4522,1.2707,1.36529,1.70143-.2627,1.30635-1.45317,2.643-2.6036,3.93515-1.96186,2.20359-4.53716,5.49625-3.17884,8.6561a4.04889,4.04889,0,0,0,.248.4701c-.1244-.20679,2.2942-1.93978,2.54328-2.10856.46906-.31785.84137-.4406,1.03128-.97455a10.65234,10.65234,0,0,1,2.34272-3.382c1.4356-1.61157,3.06164-3.438,3.53919-5.80654.544-2.704-1.53514-4.52357-2.65241-5.50129a5.25479,5.25479,0,0,1-1.17782-2.36222c-.54625-1.57421.72745-2.98436,2.02715-3.68473a4.8899,4.8899,0,0,1,4.69088.068c1.58795.96841,2.54111,2.65225,3.62123,4.7512a21.41079,21.41079,0,0,0,2.64854,3.36477,5.10326,5.10326,0,0,0,3.41125,1.96855,3.30049,3.30049,0,0,0,2.36337-.74181c4.46208-3.76375,1.01762-8.22682-.83206-10.62465-.1875-.24221-.41015-.5313-.61994-.81577.43983.59322,3.33743-.69907,3.26556-.85779a6.5667,6.5667,0,0,0,.89455,2.02322,3.17876,3.17876,0,0,0,2.798,1.05289,4.72811,4.72811,0,0,0,3.13977-2.56044,1.20349,1.20349,0,0,1,1.0319-.47407,24.09183,24.09183,0,0,1-.611,20.49222c-.05689-.083-.10413-.1719-.164-.253a7.51165,7.51165,0,0,0-7.1063-3.00829c-2.81624.16618-5.80869.36748-8.1385,2.1469-.6349.48634-1.20947,1.516-1.98533,1.74775a8.413,8.413,0,0,1-1.10453.21195,12.03994,12.03994,0,0,0-1.58673.321,16.848,16.848,0,0,1,6.275,1.7268,7.18874,7.18874,0,0,1,.83342-.83088c1.54393-1.18143,3.639-1.20375,5.49308-1.30409,1.62075-.08772,3.0644-.03918,4.10295,1.36662a4.46866,4.46866,0,0,1,.80429,1.88255,21.6236,21.6236,0,0,1-4.744,4.52644ZM53.999,66.9957a5.888,5.888,0,0,1,.707,3.487,23.82244,23.82244,0,0,1-3.94308-6.50043A8.35428,8.35428,0,0,1,53.999,66.9957Zm4.49333-29.228a20.34132,20.34132,0,0,0-2.631,2.64692A6.24632,6.24632,0,0,0,54.6495,44.4344c-.00688,1.00655.48641,2.859-.25009,3.69176a3.9929,3.9929,0,0,1-1.20705.69492,8.82153,8.82153,0,0,0-3.62321,2.61906,3.63882,3.63882,0,0,1-.33052.399,23.8657,23.8657,0,0,1,7.02413-14.05247c.53542-.521,1.09355-1.00406,1.66345-1.465A2.37343,2.37343,0,0,1,58.49233,37.76767Zm19.55835-6.0473a6.9675,6.9675,0,0,1-5.72287,2.25034,6.45662,6.45662,0,0,1-3.7101-2.07795,2.10408,2.10408,0,0,1-.26509-.439,23.87322,23.87322,0,0,1,9.82025.10951C78.13448,31.61312,78.08224,31.67752,78.05068,31.72037Z"></path><path d="M86.00312,83.99338a13.00048,13.00048,0,1,0-13.00048,13.002A12.99917,12.99917,0,0,0,86.00312,83.99338ZM73.00264,92.99473A9.00135,9.00135,0,1,1,82.003,83.99338,9.01108,9.01108,0,0,1,73.00264,92.99473Z"></path><path d="M126.31419,50.53912l-47.201-48.7329A6.0469,6.0469,0,0,0,70.609,1.69046L62.18388,9.92937,61.0188,8.73009a5.84943,5.84943,0,0,0-8.16632-.11086L.60346,59.55757A2.00166,2.00166,0,0,0,.56726,62.386a2.05338,2.05338,0,0,0,2.82928.03621L55.64546,11.484a1.78572,1.78572,0,0,1,2.50409.03361l1.17424,1.20862L1.80565,68.973a6.01557,6.01557,0,0,0-.11524,8.46856L46.00163,123.191v-5.75L4.56357,74.658a2.00619,2.00619,0,0,1,.03906-2.82416L73.40518,4.552a2.03186,2.03186,0,0,1,2.83488.03781l47.201,48.73292a2.00619,2.00619,0,0,1-.03906,2.82416l-34.457,33.69544c-.15882.43158-.35359.84467-.54549,1.259a17.47934,17.47934,0,0,1,3.33423,1.60986L126.199,59.00768A6.01557,6.01557,0,0,0,126.31419,50.53912Z"></path></svg>