<svg height='100px' width='100px'  fill="#000000" xmlns="http://www.w3.org/2000/svg" xmlns:xlink="http://www.w3.org/1999/xlink" version="1.1" x="0px" y="0px" viewBox="0 0 100 100" style="enable-background:new 0 0 100 100;" xml:space="preserve"><path d="M84.9,15.1c-0.6-0.8-1.3-1.4-2.2-1.8l-0.1-0.1c-21.4-4.8-43.8-4.8-65.1,0l-0.2,0.1c-1.8,0.7-3,2.5-3,4.5v62.4  c0,2.5,1.8,4.5,4.2,4.8v2c0,1.8,1.5,3.3,3.3,3.3h3.2c1.8,0,3.3-1.5,3.3-3.3v-1.9h43.4V87c0,1.8,1.5,3.3,3.3,3.3H78  c1.8,0,3.3-1.5,3.3-3.3v-1.9c2.5-0.2,4.5-2.3,4.5-4.9V17.8C85.8,16.8,85.5,15.9,84.9,15.1z M26.1,87c0,0.7-0.5,1.2-1.2,1.2h-3.2  c-0.6,0-1.2-0.5-1.2-1.2v-1.9h5.6V87z M79.2,87c0,0.7-0.5,1.2-1.2,1.2h-3.2c-0.6,0-1.2-0.5-1.2-1.2v-1.9h5.6V87z M83.7,80.2  c0,1.5-1.3,2.8-2.8,2.8H19.1c-1.5,0-2.8-1.3-2.8-2.8v-6.1c0,0,0,0,0,0c0,0,0.1,0,0.1,0.1c0.2,0.1,0.4,0.3,0.6,0.4  c0.1,0,0.2,0.1,0.2,0.1c0.2,0.1,0.4,0.1,0.6,0.2c0.1,0,0.2,0,0.3,0.1c0.3,0.1,0.6,0.1,0.9,0.1h61.9c0.3,0,0.6,0,0.9-0.1  c0.1,0,0.2,0,0.3-0.1c0.2-0.1,0.4-0.1,0.6-0.2c0.1,0,0.2-0.1,0.2-0.1c0.2-0.1,0.4-0.2,0.6-0.4c0,0,0.1,0,0.1-0.1c0,0,0,0,0,0V80.2z   M83.7,70.2c0,1.5-1.2,2.7-2.7,2.7H19.1c-1.5,0-2.7-1.2-2.7-2.7V17.8c0-1.1,0.6-2.1,1.6-2.5c21-4.7,43-4.7,64,0  c0.5,0.2,0.9,0.5,1.2,1c0.3,0.5,0.5,1,0.5,1.5V70.2z M94.1,29.8h-3.3c-1.9,0-3.4,1.5-3.4,3.4V40c0,1.9,1.5,3.4,3.4,3.4h3.3  c1.9,0,3.4-1.5,3.4-3.4v-6.8C97.5,31.3,96,29.8,94.1,29.8z M95.4,40c0,0.7-0.6,1.3-1.3,1.3h-3.3c-0.7,0-1.3-0.6-1.3-1.3v-6.8  c0-0.7,0.6-1.3,1.3-1.3h3.3c0.7,0,1.3,0.6,1.3,1.3V40z M9.2,29.8H5.9c-1.9,0-3.4,1.5-3.4,3.4V40c0,1.9,1.5,3.4,3.4,3.4h3.3  c1.9,0,3.4-1.5,3.4-3.4v-6.8C12.5,31.3,11,29.8,9.2,29.8z M10.4,40c0,0.7-0.6,1.3-1.3,1.3H5.9c-0.7,0-1.3-0.6-1.3-1.3v-6.8  c0-0.7,0.6-1.3,1.3-1.3h3.3c0.7,0,1.3,0.6,1.3,1.3V40z M24.1,57.5c-3.1,0-5.5,2.5-5.5,5.5c0,3.1,2.5,5.5,5.5,5.5s5.5-2.5,5.5-5.5  C29.7,60,27.2,57.5,24.1,57.5z M24.1,66.5c-1.9,0-3.4-1.5-3.4-3.4c0-1.9,1.5-3.4,3.4-3.4s3.4,1.5,3.4,3.4C27.6,65,26,66.5,24.1,66.5  z M76.4,57.5c-3.1,0-5.5,2.5-5.5,5.5c0,3.1,2.5,5.5,5.5,5.5c3.1,0,5.5-2.5,5.5-5.5C82,60,79.5,57.5,76.4,57.5z M76.4,66.5  c-1.9,0-3.4-1.5-3.4-3.4c0-1.9,1.5-3.4,3.4-3.4s3.4,1.5,3.4,3.4C79.9,65,78.3,66.5,76.4,66.5z M79.4,31.1c1.2-0.8,2-2.2,2-3.7v-5  c0-2.5-2-4.5-4.5-4.5H23.2c-2.5,0-4.5,2-4.5,4.5v5c0,1.5,0.8,2.9,1.9,3.7c-1.4,1.1-2.2,2.7-2.2,4.6V49c0,3.2,2.6,5.8,5.8,5.8h20.8  c2,0,3.7-1,4.8-2.5c1.1,1.5,2.8,2.5,4.8,2.5h21.1c3.2,0,5.8-2.6,5.8-5.8V35.7C81.6,33.8,80.7,32.2,79.4,31.1z M48.8,49  c0,2.1-1.7,3.7-3.7,3.7H24.2c-2.1,0-3.7-1.7-3.7-3.7V35.7c0-2.1,1.7-3.7,3.7-3.7h20.8c2.1,0,3.7,1.7,3.7,3.7V49z M23.2,29.8  c-1.3,0-2.4-1.1-2.4-2.4v-5c0-1.3,1.1-2.4,2.4-2.4h53.6c1.3,0,2.4,1.1,2.4,2.4v5c0,1.4-1.1,2.4-2.4,2.4H23.2z M79.5,49  c0,2.1-1.7,3.7-3.7,3.7H54.7c-2.1,0-3.7-1.7-3.7-3.7V35.7c0,0,0,0,0,0c0-2.1,1.7-3.7,3.7-3.7h21.1c2.1,0,3.7,1.7,3.7,3.7V49z   M67,61.3c0,0.6-0.5,1-1,1H34.1c-0.6,0-1-0.5-1-1c0-0.6,0.5-1,1-1h31.9C66.5,60.3,67,60.8,67,61.3z M62.5,64.8c0,0.6-0.5,1-1,1h-23  c-0.6,0-1-0.5-1-1s0.5-1,1-1h23C62.1,63.8,62.5,64.3,62.5,64.8z"></path></svg>