<svg height='100px' width='100px'  fill="#000000" xmlns="http://www.w3.org/2000/svg" xmlns:xlink="http://www.w3.org/1999/xlink" version="1.1" x="0px" y="0px" viewBox="0 0 100 100" style="enable-background:new 0 0 100 100;" xml:space="preserve"><g><path d="M95,84.4H82.7V53.2c1.2,0.3,2.3,0.5,3.4,0.5c1.6,0,3.1-0.4,4.4-1.2c4.5-2.6,5.5-8.8,5.5-9.1c0,0,0-0.1,0-0.1   c0-0.1,0-0.1,0-0.2c0-0.1,0-0.1-0.1-0.2c0-0.1,0-0.1-0.1-0.2c0-0.1-0.1-0.1-0.1-0.1c0,0-0.1-0.1-0.1-0.1c-0.1,0-0.1-0.1-0.2-0.1   c0,0-0.1,0-0.1-0.1c-0.3-0.1-6.3-1.8-10.6,1.2c-0.8,0.6-1.5,1.2-2,2v-9c5.9-0.5,10.5-5.4,10.5-11.5c0-6.3-5.2-11.5-11.5-11.5   s-11.5,5.2-11.5,11.5c0,6,4.6,10.9,10.5,11.5v9.2c-0.6-0.9-1.3-1.6-2.1-2.2c-4.3-3-10.3-1.3-10.6-1.2c0,0-0.1,0-0.1,0.1   c-0.1,0-0.1,0.1-0.2,0.1c-0.1,0-0.1,0.1-0.1,0.1c0,0-0.1,0.1-0.1,0.1c0,0.1-0.1,0.1-0.1,0.2c0,0.1,0,0.1-0.1,0.2c0,0.1,0,0.1,0,0.2   c0,0,0,0.1,0,0.1c0,0.3,1,6.4,5.5,9.1c1.3,0.8,2.8,1.2,4.4,1.2c1.1,0,2.3-0.2,3.5-0.5v31.2h-30V66c1.2,0.3,2.3,0.5,3.4,0.5   c1.6,0,3.1-0.4,4.4-1.2c4.5-2.6,5.5-8.8,5.5-9.1c0,0,0-0.1,0-0.1c0-0.1,0-0.1,0-0.2c0-0.1,0-0.1-0.1-0.2c0-0.1,0-0.1-0.1-0.2   c0-0.1-0.1-0.1-0.1-0.1c0,0-0.1-0.1-0.1-0.1c-0.1,0-0.1-0.1-0.2-0.1c0,0-0.1-0.1-0.1-0.1c-0.3-0.1-6.3-1.8-10.6,1.2   c-0.8,0.6-1.5,1.2-2,2v-9.3c6.1-0.3,10.9-5.3,10.9-11.5c0-6.3-5.2-11.5-11.5-11.5s-11.5,5.2-11.5,11.5c0,5.9,4.4,10.7,10.1,11.4   v9.5c-0.6-0.9-1.3-1.6-2.1-2.2c-4.3-3-10.3-1.3-10.6-1.2c0,0-0.1,0-0.1,0.1c-0.1,0-0.1,0.1-0.2,0.1c-0.1,0-0.1,0.1-0.1,0.1   c0,0-0.1,0.1-0.1,0.1c0,0.1-0.1,0.1-0.1,0.2c0,0.1,0,0.1-0.1,0.2c0,0.1,0,0.1,0,0.2c0,0,0,0.1,0,0.1c0,0.3,1,6.4,5.5,9.1   c1.3,0.8,2.8,1.2,4.4,1.2c1.1,0,2.3-0.2,3.5-0.5v18.4H19.4v-5.8c1.2,0.3,2.3,0.5,3.4,0.5c1.6,0,3.1-0.4,4.4-1.2   c4.5-2.6,5.5-8.8,5.5-9.1c0,0,0-0.1,0-0.1c0-0.1,0-0.1,0-0.2c0-0.1,0-0.1-0.1-0.2c0-0.1,0-0.1-0.1-0.2c0-0.1-0.1-0.1-0.1-0.1   c0,0-0.1-0.1-0.1-0.1c-0.1,0-0.1-0.1-0.2-0.1c0,0-0.1,0-0.1-0.1c-0.3-0.1-6.3-1.8-10.6,1.2c-0.8,0.6-1.5,1.2-2,2v-9.3   c5.9-0.5,10.5-5.4,10.5-11.5c0-6.3-5.2-11.5-11.5-11.5S6.9,43.8,6.9,50.2c0,6,4.6,10.9,10.5,11.5v9.5c-0.6-0.9-1.3-1.6-2.1-2.2   C11,66,5,67.7,4.7,67.7c0,0-0.1,0-0.1,0.1c-0.1,0-0.1,0.1-0.2,0.1c-0.1,0-0.1,0.1-0.1,0.1c0,0-0.1,0.1-0.1,0.1   c0,0.1-0.1,0.1-0.1,0.2c0,0.1,0,0.1-0.1,0.2c0,0.1,0,0.1,0,0.2c0,0,0,0.1,0,0.1c0,0.3,1,6.4,5.5,9.1c1.3,0.8,2.8,1.2,4.4,1.2   c1.1,0,2.3-0.2,3.5-0.5v5.9H5c-0.6,0-1,0.4-1,1s0.4,1,1,1h90c0.6,0,1-0.4,1-1S95.6,84.4,95,84.4z M85.9,45.2c2.6-1.8,6.3-1.4,8-1.1   c-0.4,1.6-1.6,5.1-4.3,6.7c-1.8,1.1-4,1.1-6.7,0.3C83.1,48.4,84.2,46.4,85.9,45.2z M72.2,25.1c0-5.2,4.3-9.5,9.5-9.5   s9.5,4.3,9.5,9.5c0,5.2-4.3,9.5-9.5,9.5c0,0,0,0,0,0c0,0,0,0,0,0C76.5,34.6,72.2,30.3,72.2,25.1z M73.8,50.8   c-2.8-1.6-3.9-5.1-4.3-6.8c1.7-0.3,5.3-0.7,8,1.1c1.7,1.2,2.7,3.2,3,5.9C77.9,52,75.6,51.9,73.8,50.8z M53.9,58.1   c2.6-1.8,6.3-1.4,8-1.1c-0.4,1.7-1.6,5.1-4.3,6.8c-1.8,1.1-4,1.1-6.6,0.3C51.2,61.2,52.2,59.3,53.9,58.1z M40.6,37.7   c0-5.2,4.3-9.5,9.5-9.5s9.5,4.3,9.5,9.5s-4.3,9.5-9.5,9.5S40.6,42.9,40.6,37.7z M41.9,63.7c-2.8-1.6-3.9-5.1-4.3-6.8   c1.7-0.3,5.3-0.7,8,1.1c1.7,1.2,2.7,3.2,3,5.9C45.9,64.8,43.7,64.7,41.9,63.7z M22.6,70.6c2.6-1.8,6.3-1.4,8-1.1   c-0.4,1.6-1.6,5.1-4.3,6.7c-1.8,1.1-4,1.1-6.7,0.3C19.8,73.8,20.9,71.8,22.6,70.6z M8.9,50.2c0-5.2,4.3-9.5,9.5-9.5   s9.5,4.3,9.5,9.5s-4.3,9.5-9.5,9.5S8.9,55.4,8.9,50.2z M10.5,76.2c-2.8-1.6-3.9-5.1-4.3-6.8c1.7-0.3,5.3-0.7,8,1.1   c1.7,1.2,2.7,3.2,3,5.9C14.6,77.4,12.3,77.3,10.5,76.2z"></path><path d="M81.7,33.6c0.6,0,1-0.4,1-1v-1.5c1.6-0.2,2.9-1.5,2.9-3.2v-0.1c0-1.8-1.5-3.2-3.3-3.2h-1c0,0,0,0,0,0   c-0.7,0-1.3-0.6-1.3-1.3s0.6-1.3,1.3-1.3h1.2c0.5,0,1,0.3,1.1,0.8c0.2,0.5,0.8,0.8,1.3,0.6c0.5-0.2,0.8-0.8,0.6-1.3   c-0.4-1.2-1.5-2-2.7-2.1v-1.6c0-0.6-0.4-1-1-1s-1,0.4-1,1v1.6c-1.6,0.2-2.9,1.6-2.9,3.3c0,1.8,1.4,3.2,3.2,3.3c0,0,0.1,0,0.1,0h1.1   c0.8,0,1.3,0.5,1.3,1.2v0.1c0,0.7-0.6,1.2-1.3,1.2h-1.1c-0.6,0-1.2-0.4-1.3-0.8c-0.2-0.5-0.8-0.8-1.3-0.6c-0.5,0.2-0.8,0.8-0.6,1.3   c0.4,1.1,1.5,2,2.8,2.1v1.5C80.7,33.1,81.1,33.6,81.7,33.6z"></path><path d="M51.1,45.1v-1.5c1.6-0.2,2.9-1.5,2.9-3.2v-0.1c0-1.8-1.5-3.2-3.3-3.2h-1c0,0,0,0,0,0c-0.7,0-1.3-0.6-1.3-1.3   s0.6-1.3,1.3-1.3h0.5c0,0,0,0,0,0s0,0,0,0h0.7c0.5,0,1,0.3,1.1,0.8c0.2,0.5,0.8,0.8,1.3,0.6c0.5-0.2,0.8-0.8,0.6-1.3   c-0.4-1.2-1.5-2-2.7-2.1v-1.6c0-0.6-0.4-1-1-1s-1,0.4-1,1v1.6c-1.6,0.2-2.9,1.6-2.9,3.3c0,1.8,1.4,3.2,3.2,3.3c0,0,0.1,0,0.1,0h1.1   c0.8,0,1.3,0.5,1.3,1.2v0.1c0,0.7-0.6,1.2-1.3,1.2h-1.1c-0.6,0-1.2-0.4-1.3-0.8c-0.2-0.5-0.8-0.8-1.3-0.6c-0.5,0.2-0.8,0.8-0.6,1.3   c0.4,1.1,1.5,2,2.8,2.1v1.5c0,0.6,0.4,1,1,1S51.1,45.7,51.1,45.1z"></path><path d="M19.4,57.7v-1.5c1.6-0.2,2.9-1.5,2.9-3.2v-0.1c0-1.8-1.5-3.2-3.3-3.2h-1c0,0,0,0,0,0c-0.7,0-1.3-0.6-1.3-1.3   s0.6-1.3,1.3-1.3h1.2c0.5,0,1,0.3,1.1,0.8c0.2,0.5,0.8,0.8,1.3,0.6c0.5-0.2,0.8-0.8,0.6-1.3c-0.4-1.2-1.5-2-2.7-2.1v-1.6   c0-0.6-0.4-1-1-1s-1,0.4-1,1V45c-1.6,0.2-2.9,1.6-2.9,3.3c0,1.8,1.4,3.2,3.2,3.3c0,0,0.1,0,0.1,0h1.1c0.8,0,1.3,0.5,1.3,1.2V53   c0,0.7-0.6,1.2-1.3,1.2h-1.1c-0.6,0-1.2-0.4-1.3-0.8c-0.2-0.5-0.8-0.8-1.3-0.6c-0.5,0.2-0.8,0.8-0.6,1.3c0.4,1.1,1.5,2,2.8,2.1v1.5   c0,0.6,0.4,1,1,1S19.4,58.2,19.4,57.7z"></path></g></svg>