<svg height='100px' width='100px'  fill="#000000" xmlns="http://www.w3.org/2000/svg" viewBox="0 0 64 64" x="0px" y="0px"><title>calendar, date, schedule, Appointment, time, clock, deadline</title><g data-name="Calendar Time Refresh"><path d="M33,52H7a3.0033,3.0033,0,0,1-3-3V22H56V32a1,1,0,0,0,2,0V15a5.0059,5.0059,0,0,0-5-5H49V8a4,4,0,0,0-8,0v2H34V8a4,4,0,0,0-8,0v2H19V8a4,4,0,0,0-8,0v2H7a5.0059,5.0059,0,0,0-5,5V49a5.0059,5.0059,0,0,0,5,5H33a1,1,0,0,0,0-2ZM43,8a2,2,0,0,1,4,0v2H43ZM28,8a2,2,0,0,1,4,0v2H28ZM13,8a2,2,0,0,1,4,0v2H13ZM7,12h4v2a4,4,0,0,0,8,0H17a2,2,0,0,1-4,0V12H26v2a4,4,0,0,0,8,0H32a2,2,0,0,1-4,0V12H41v2a4,4,0,0,0,8,0H47a2,2,0,0,1-4,0V12H53a3.0033,3.0033,0,0,1,3,3v5H4V15A3.0033,3.0033,0,0,1,7,12ZM28,35h4v4H28Zm4-4H28V27h4Zm-9,8H19V35h4Zm-4,4h4v4H19Zm4-12H19V27h4Zm-9,8H10V35h4Zm-4,4h4v4H10Zm4-12H10V27h4Zm23,0V27h4v4Zm9,0V27h4v4Zm2,1A14,14,0,1,0,62,46,14.0158,14.0158,0,0,0,48,32Zm0,26A12,12,0,1,1,60,46,12.0137,12.0137,0,0,1,48,58Zm0-23A11,11,0,1,0,59,46,11.0125,11.0125,0,0,0,48,35Zm0,20a9,9,0,1,1,9-9A9.01,9.01,0,0,1,48,55Zm1-9.4141,3.707,3.7071-1.414,1.414L47,46.4141V40h2Z"></path></g></svg>