<svg height='100px' width='100px'  fill="#000000" xmlns="http://www.w3.org/2000/svg" xmlns:xlink="http://www.w3.org/1999/xlink" version="1.1" x="0px" y="0px" viewBox="-55 147 500 500" style="enable-background:new -55 147 500 500;" xml:space="preserve"><g><path d="M443.8,551c0,0-59.8-161.8-74.5-191.9c-14.6-30.2-29.3-49-85.3-49h-11.4c-56.1,0-70.6,18.9-85.4,49c-0.6,1.1-1.2,2.5-1.9,4   c-12.8-13.8-31.7-21.7-68-21.7h-11.4c-55.9,0-70.6,18.8-85.3,49c-14.7,30-74.4,191.8-74.4,191.8c-3.1,7.3,0.3,15.6,7.4,18.6   c7.2,3,15.4-0.4,18.6-7.5l81.5-161.1L23.6,617h130.6v-9.9c0,0,0.3-57.9-28.3-79.4l-50.3-39.2c-6-4.6-7.2-13.3-2.4-19.4   c4.1-5.2,11.4-6.5,17.4-3.6l38.6,18.9c21.9,10.7,46,16.3,70.4,16.3l0,0c24.4,0,48.5-5.6,70.4-16.3l38.6-18.9   c5.9-2.9,13.3-1.6,17.4,3.6c4.8,6.1,3.6,14.8-2.4,19.4l-50.3,39.2c-28.5,21.5-28.3,79.4-28.3,79.4v9.9h102.8l1.4-190.9l68.8,136   c3.1,7.1,11.3,10.5,18.6,7.5C443.6,566.5,447,558.3,443.8,551z M199.7,489.5c-23.5,0.1-42.6-18.9-42.7-42.4s18.9-42.6,42.3-42.7   c23.5-0.1,42.6,18.9,42.7,42.4S223.1,489.5,199.7,489.5z"></path><path d="M111.7,328.3c30.9,0,56-25,56-55.9s-25.1-55.9-56-55.9c-31,0-56,25.1-56,55.9C55.7,303.3,80.8,328.3,111.7,328.3z"></path><path d="M278.3,297c33.2,0,60.1-26.9,60.1-60s-26.9-60-60.1-60s-60.1,26.9-60.1,60C218.2,270.2,245.2,297,278.3,297z"></path></g></svg>