<svg height='100px' width='100px'  fill="#000000" xmlns="http://www.w3.org/2000/svg" data-name="Layer 1" viewBox="0 0 100 100" x="0px" y="0px"><title>•SET15-v2</title><path d="M93.35,58.73,86.6,25.65a1.76,1.76,0,0,0-.54-.93L73.1,13.3a1.71,1.71,0,0,0-1.24-.42H28a1.52,1.52,0,0,0-.51.09l-.05,0a1.76,1.76,0,0,0-.42.24l-.06,0,0,0L14,24.72a1.71,1.71,0,0,0-.55.93L6.71,58.73a1.69,1.69,0,0,0,.69,1.73,1.65,1.65,0,0,0,1,.31,1.68,1.68,0,0,0,.89-.26l9.19-5.71-2.32,14a1.7,1.7,0,0,0,1.68,2h5.46L25.09,87a1.71,1.71,0,0,0,1.69,1.51H75.29A1.71,1.71,0,0,0,77,87l1.8-16.19h2.79a1.69,1.69,0,0,0,1.68-1.93l-2-14.28,9.5,5.9a1.71,1.71,0,0,0,.9.26,1.65,1.65,0,0,0,1-.31A1.68,1.68,0,0,0,93.35,58.73ZM32.66,37.48h12.2v3.67a11.53,11.53,0,0,0-6.15,8.53H32.65ZM33,34.07l1.55-9.64h8.72l1.38,9.64Zm17.1,9.23A8.09,8.09,0,0,1,58,49.68H42.15A8.1,8.1,0,0,1,50.05,43.3ZM61.4,49.68a11.52,11.52,0,0,0-8.48-9.41V34.35a14.73,14.73,0,0,0,6.8,1.49,14.73,14.73,0,0,0,6.88-1.53V49.68Zm-8.48-20c0-1.09,2.71-2.73,6.8-2.73s6.8,1.64,6.8,2.73-2.71,2.72-6.8,2.72S52.92,30.8,52.92,29.72Zm17,0c0-3.49-4.39-6.12-10.2-6.12s-10.2,2.64-10.2,6.13V39.93a10.34,10.34,0,0,0-1.26.12V35.77s0-.09,0-.13,0-.07,0-.11l-1.87-13A1.69,1.69,0,0,0,44.69,21H33.05a1.7,1.7,0,0,0-1.68,1.43l-2.1,13a1.7,1.7,0,0,0,0,.39V49.68H22.82l6.66-33.4h41l6.66,33.4H70V30.18A1.5,1.5,0,0,0,69.92,29.71ZM16.68,26.89l8.75-7.71L19.22,50.33l-8.39,5.21ZM73.77,85.12H28.3L26.7,70.79l48.66,0ZM19.82,67.39l2.37-14.31H77.64l2,14.34ZM80.66,50.21,74.44,19l8.94,7.88,5.85,28.65Z"></path></svg>