<svg height='100px' width='100px'  fill="#000000" xmlns="http://www.w3.org/2000/svg" xmlns:xlink="http://www.w3.org/1999/xlink" version="1.1" x="0px" y="0px" viewBox="0 0 100 100" style="enable-background:new 0 0 100 100;" xml:space="preserve"><g><path d="M90.43,41.504c-26.953,0-53.904,0-80.856,0c0-4.663-0.183-13.027,2.683-13.989c26.669-5.813,48.943-5.813,75.612,0   C90.063,28.092,90.43,36.841,90.43,41.504z M88.514,44.611l-1.175,39.484c0,3.434-2.549,6.219-5.692,6.219H18.354   c-3.145,0-5.694-2.785-5.694-6.219l-1.175-39.484H88.514z M66.938,60.146H55.482V48.692h-9.626v11.454H34.401v9.626h11.455v11.455   h9.626V69.772h11.455V60.146z M98.008,44.343c0,0,0.366-20.044,0.366-20.189c0.23-7.104-3.222-10.395-12.337-12.047   C77.004,10.426,59.524,9.686,50,9.686c-9.299,0-26.982,0.887-35.996,2.553C6.33,13.768,1.385,16.225,1.667,24.286   c0,0.11,0.374,13.69,0.365,20.189c-1.051,1.047-2.045,2.355-1.988,3.753L0,55.152c0.132,3.212,4.034,5.674,8.31,5.498   c0,0-0.783-36.289-0.783-36.393c0-3.871,0.535-4.597,7.542-6.257C23.766,16.56,40.926,15.545,50,15.545   c9.034,0,26.396,0.739,34.973,2.323c8.158,1.521,7.475,3.701,7.542,6.257c-0.001,0.154-0.784,36.392-0.784,36.392   c4.275,0.176,8.137-2.285,8.27-5.498l-0.004-6.924C100.054,46.699,99.06,45.391,98.008,44.343z"></path></g></svg>