<svg height='100px' width='100px'  fill="#000000" xmlns="http://www.w3.org/2000/svg" xmlns:xlink="http://www.w3.org/1999/xlink" version="1.1" x="0px" y="0px" viewBox="0 0 64 64" style="enable-background:new 0 0 64 64;" xml:space="preserve"><rect x="6" y="6" width="2" height="2"></rect><rect x="10" y="6" width="2" height="2"></rect><rect x="14" y="6" width="2" height="2"></rect><path d="M61.812,50.418c-0.294-0.41-7.05-9.7-15.812-10.376V10c0-0.266-0.105-0.52-0.293-0.707l-7-7C38.52,2.105,38.266,2,38,2H3  C2.447,2,2,2.447,2,3v48c0,0.553,0.447,1,1,1h25.501c1.51,1.961,8.206,10,16.499,10c9.244,0,16.508-9.992,16.812-10.418  C62.062,51.234,62.062,50.766,61.812,50.418z M4,4h33.586l5,5H39V7h-2v3c0,0.553,0.447,1,1,1h6v29.042  C36.172,40.646,29.949,48.118,28.501,50H4V4z M45,60c-7.014,0-13.075-6.921-14.738-9c1.663-2.079,7.725-9,14.738-9  s13.075,6.921,14.738,9C58.075,53.079,52.014,60,45,60z"></path><path d="M45,44c-3.859,0-7,3.141-7,7s3.141,7,7,7s7-3.141,7-7S48.859,44,45,44z M45,56c-2.757,0-5-2.243-5-5s2.243-5,5-5  s5,2.243,5,5S47.757,56,45,56z"></path><path d="M31,40c0.553,0,1-0.447,1-1v-2c0-1.654-1.346-3-3-3h-4V17.816c0.784-0.279,1.421-0.866,1.75-1.624  c0.215,0.112,0.43,0.227,0.628,0.364l4.94,3.421c1.076,0.744,2.286,1.182,3.522,1.339L33.28,29H33c-0.553,0-1,0.447-1,1  c0,2.757,2.243,5,5,5s5-2.243,5-5c0-0.553-0.447-1-1-1h-0.28l-2.574-7.723c1.225-0.205,2.412-0.695,3.455-1.477l-1.201-1.6  c-2.046,1.536-4.837,1.587-6.939,0.134l-4.942-3.423c-0.518-0.359-1.09-0.632-1.686-0.859C26.433,12.864,25.321,12,24,12  s-2.433,0.864-2.832,2.052c-0.595,0.227-1.168,0.5-1.686,0.859l-4.94,3.421c-2.104,1.457-4.894,1.405-6.941-0.132l-1.201,1.6  c1.043,0.782,2.23,1.272,3.455,1.477L7.28,29H7c-0.553,0-1,0.447-1,1c0,2.757,2.243,5,5,5s5-2.243,5-5c0-0.553-0.447-1-1-1h-0.28  l-2.562-7.685c1.237-0.157,2.447-0.595,3.524-1.34l4.938-3.419c0.199-0.138,0.413-0.252,0.628-0.364  c0.33,0.758,0.967,1.345,1.75,1.624V34h-4c-1.654,0-3,1.346-3,3v2c0,0.553,0.447,1,1,1H31z M37,33c-1.304,0-2.416-0.836-2.829-2  h5.658C39.416,32.164,38.304,33,37,33z M35.388,29L37,24.162L38.612,29H35.388z M11,33c-1.304,0-2.416-0.836-2.829-2h5.658  C13.416,32.164,12.304,33,11,33z M9.388,29L11,24.162L12.612,29H9.388z M24,14c0.552,0,1,0.448,1,1s-0.448,1-1,1s-1-0.448-1-1  S23.448,14,24,14z M18,37c0-0.552,0.448-1,1-1h10c0.552,0,1,0.448,1,1v1H18V37z"></path></svg>