<svg height='100px' width='100px'  fill="#000000" xmlns="http://www.w3.org/2000/svg" xmlns:xlink="http://www.w3.org/1999/xlink" version="1.1" x="0px" y="0px" viewBox="0 0 100 100" style="enable-background:new 0 0 100 100;" xml:space="preserve"><g><path d="M16.6,33.5c5.2,0,9.5-4.3,9.5-9.6s-4.3-9.6-9.5-9.6S7.1,18.7,7.1,24S11.4,33.5,16.6,33.5z M16.6,16.2   c4.3,0,7.7,3.5,7.7,7.8s-3.5,7.8-7.7,7.8S8.9,28.3,8.9,24S12.4,16.2,16.6,16.2z"></path><path d="M95,12.4H44.1c-1.5,0-2.7,1.2-2.7,2.7V37c-0.7-1.4-2.5-2.1-3.6-2.3c-0.1,0-0.1,0-0.2,0l-19.7,0.1h-2.6c-0.1,0-0.2,0-0.3,0   c0,0,0,0,0,0l0,0c-0.1,0-0.1,0-0.2,0l-6.6,0.9C7,35.8,5.9,36.3,4.9,37c-0.4,0.3-0.8,0.7-1.2,1.1c-0.8,1-1.3,2.2-1.4,3.4   c-0.3,5.3,0,17.9,0,18.5c0,1.5,0.8,4.3,3.7,4.3c0,0,0,0,0.1,0c0.7,0,1.3-0.2,1.7-0.4l0,19.2c0,0.1,0,0.1,0,0.2c0,0,0.2,1.1,0.8,2.1   c0.9,1.5,2.1,2.3,3.6,2.3c2.2,0,3.6-1.2,4.3-2.5c0.7,1.1,1.9,2.3,3.8,2.3c0.1,0,0.2,0,0.3,0c3-0.2,4.3-2.8,4.5-4.2   c0-0.1,0-0.1,0-0.2l0-40.5l12.3-0.3c0,0,0.1,0,0.1,0c1.1-0.2,2.9-1,3.6-2.6v10.4c0,1.5,1.2,2.7,2.7,2.7H95c1.5,0,2.7-1.2,2.7-2.7   v-35C97.7,13.6,96.5,12.4,95,12.4z M15.2,36.6C15.3,36.6,15.3,36.6,15.2,36.6l2.7,0c0.5,0,0.7,0.3,0.8,0.5c0.1,0.1,0.3,0.5,0,1   l-1.2,2.2c-0.1,0.1-0.1,0.2-0.2,0.3c-0.3,0.3-0.6,0.3-0.7,0.3c-0.2,0-0.6,0-0.8-0.5L14.5,38c-0.2-0.4-0.1-0.8,0-1   c0.1-0.1,0.3-0.4,0.6-0.5L15.2,36.6z M15.6,42.4c0.3,0.1,0.7,0.2,1,0.2c0,0,0,0,0,0c0.4,0,0.7-0.1,1-0.2l1.9,8.4   c0.1,0.2,0,0.5-0.1,0.7l-2.8,4.3l-2.8-4.3c-0.1-0.2-0.2-0.4-0.1-0.7L15.6,42.4z M37.5,40.5l-13.1,0.3c-0.5,0-0.9,0.4-0.9,0.9   l0,41.3c0,0.2-0.2,0.7-0.5,1.2c-0.5,0.9-1.3,1.3-2.3,1.4c-1.8,0.1-2.8-1.8-3.1-2.7c0,0,0-0.1,0-0.1l-0.1-20.7   c0-0.5-0.4-0.9-0.9-0.9c-0.5,0-0.9,0.4-0.9,0.9l0,20.3c0,0.1-0.1,0.2-0.1,0.3c0,0.1-0.5,3.1-3.3,3.1c-1.9,0-2.5-2.4-2.6-2.8   L9.7,60.9c0-0.2,0-0.3,0-0.4l0-16c0-0.5-0.4-0.9-0.9-0.9c0,0,0,0,0,0c-0.5,0-0.9,0.4-0.9,0.9l0,16c0,0,0,0,0,0l0,0.3   c0,0.4-0.1,0.9-0.5,1.2c-0.3,0.3-0.7,0.4-1.3,0.4c-0.8,0-1.3-0.4-1.6-1.1c-0.3-0.7-0.3-1.4-0.3-1.4c0-0.1-0.3-13.1,0-18.4   c0-0.9,0.4-1.7,0.9-2.3C5.3,39,5.6,38.7,6,38.4c0.7-0.5,1.6-0.9,2.5-1l4.2-0.5c-0.2,0.7-0.1,1.4,0.3,2l1.2,2.1l-2.1,9.5   c-0.2,0.7,0,1.4,0.4,2l3.1,4.8c0.2,0.5,0.7,0.8,1.2,0.8c0,0,0,0,0,0c0.5,0,1-0.3,1.2-0.8l3.1-4.8c0.4-0.6,0.5-1.3,0.4-2L19.1,41   l1.2-2.1c0.4-0.7,0.5-1.6,0.2-2.3l17-0.1c0.4,0.1,2.3,0.6,2.3,1.8C39.8,39.9,37.9,40.4,37.5,40.5z M96,50.1c0,0.5-0.4,0.9-0.9,0.9   H44.1c-0.5,0-0.9-0.4-0.9-0.9V38.3L70,28c0.5-0.2,0.7-0.7,0.5-1.2c-0.2-0.5-0.7-0.7-1.2-0.5l-26.3,10V15.1c0-0.5,0.4-0.9,0.9-0.9   H95c0.5,0,0.9,0.4,0.9,0.9V50.1z"></path></g></svg>