<svg height='100px' width='100px'  fill="#000000" xmlns="http://www.w3.org/2000/svg" data-name="Layer 1" viewBox="0 0 64 64" x="0px" y="0px"><title>Vegetables 1</title><path d="M62.68,30.11a4.13,4.13,0,0,0-3.28-.35,1.74,1.74,0,0,0-1,1.09,4.45,4.45,0,0,0-.1,1.19c0,1.75-.18,3.62-1.35,4.22a19.2,19.2,0,0,0-2.39-3.79l0-.07s-3.1-4.49-3.27-8.66a8.41,8.41,0,0,0-2.85-6.13,7.64,7.64,0,0,0,1.61.17h.4c3.47-.18,6.75-2.74,9.73-7.6a1,1,0,0,0,.11-.73,1,1,0,0,0-.43-.6c-4.86-3-8.94-3.78-12.12-2.37a8.56,8.56,0,0,0-4.09,4.07A13.18,13.18,0,0,1,45.4,4.4a1,1,0,0,0-1.64-1C40.82,8,41.68,14.27,41.93,15.69a8.15,8.15,0,0,0-7.33,8c-.12,3.18-1.94,6.52-2.81,7.94a15.29,15.29,0,0,0-5.26-4.52,1,1,0,0,0-1.33.36,17,17,0,0,0-2.15,5.57,5.49,5.49,0,0,0-2.69.73,5.56,5.56,0,0,0-1.7,1.57,0,0,0,0,1,0,0A5.52,5.52,0,1,0,9.16,41a5.31,5.31,0,0,0-2.27.72A5.51,5.51,0,0,0,5.06,49.5a5.52,5.52,0,0,0-2.32.72,5.53,5.53,0,0,0-2,7.56,5.47,5.47,0,0,0,3.38,2.55,5.1,5.1,0,0,0,1.39.18A5.52,5.52,0,0,0,10.1,58.1a5.52,5.52,0,0,0,3.31,2.48,5.68,5.68,0,0,0,1.41.18A5.51,5.51,0,0,0,17.6,60a5.64,5.64,0,0,0,1.75-1.65,5.52,5.52,0,0,0,3.13,2.19,5.66,5.66,0,0,0,1.4.18,5.44,5.44,0,0,0,4.79-2.83,8.73,8.73,0,0,0,2.7.75,10.51,10.51,0,0,1,1.91.68,18.62,18.62,0,0,0,7.43,1.76c4.81,0,11.17-2.36,18.83-11.74,3.21-3.91,3.16-7.31,3.12-10a15.06,15.06,0,0,1,.11-2.58,17.46,17.46,0,0,1,.72-2.54C64,32.74,64.59,31,62.68,30.11ZM43.88,15.68s0-.06,0-.08,0-.21-.08-.53c.24.22.52.47.84.72C44.39,15.74,44.14,15.71,43.88,15.68Zm4.63-7.44C50.9,7.18,54.08,7.78,58,10c-2.47,3.73-5,5.7-7.64,5.84-2.77.16-4.92-1.84-5.68-2.65C45,12.11,46,9.35,48.51,8.24ZM32.88,33.58a.57.57,0,0,0,.13-.21c.57-.84,3.36-5.2,3.53-9.55a6.39,6.39,0,0,1,12.78,0c.18,4.36,3,8.72,3.53,9.55a1.07,1.07,0,0,0,.13.21,16.56,16.56,0,0,1,2.22,3.48,26.46,26.46,0,0,0-4.4,4c-3.53,3.64-8.38,8.63-16,11.19,0,0-.52.21-1.25.45a13.82,13.82,0,0,1-1.36-1.4A5.52,5.52,0,0,0,29.67,42l-.26,0a16.28,16.28,0,0,1,3.31-1.33,3.84,3.84,0,0,0-.35,1.79,3.34,3.34,0,0,0,2.47,2.92,4.27,4.27,0,0,0,1.45.27,3,3,0,0,0,2.57-1.39,3.64,3.64,0,0,0-.59-4.51,4,4,0,0,0-.73-.57,3.33,3.33,0,0,1,2.7.68,1,1,0,1,0,1.19-1.53,5.43,5.43,0,0,0-6-.44,7.76,7.76,0,0,0-.88.56,10.45,10.45,0,0,0-2.33.36A6.75,6.75,0,0,0,33,35a6.32,6.32,0,0,0-.26-1.28ZM26.07,50.14a3.52,3.52,0,0,1-.88-1,3.59,3.59,0,0,1-.38-2.72,3.62,3.62,0,0,1,3.47-2.68,3.61,3.61,0,0,1,.91.12,3.6,3.6,0,0,1,2.56,4.37,3.58,3.58,0,0,1-4.37,2.57L27,50.66A5.28,5.28,0,0,0,26.07,50.14ZM10.16,52l.2,0-.11.16Zm13.63-7.84-.05-.08h.1Zm-3.88-.71a3.58,3.58,0,1,1-1.81,6.93,3.59,3.59,0,0,1-.91-6.56A3.64,3.64,0,0,1,19,43.31,3.56,3.56,0,0,1,19.91,43.43Zm-1.5-2h-.09l.06-.07Zm-3.93,2.35s0,0,0-.06,0,0,0-.07h.16C14.53,43.67,14.51,43.72,14.48,43.76Zm-.26,5.87.06.11-.16,0S14.19,49.68,14.22,49.63Zm14.61,3.19a5.36,5.36,0,0,0,1.71-.46c.25.3.49.61.76.89a7.43,7.43,0,0,1-.9.12,4.4,4.4,0,0,0-1.24.27A6.38,6.38,0,0,0,28.83,52.82Zm5.48-10.55a2.71,2.71,0,0,1,.91-1.91,2.7,2.7,0,0,1,1.68.71,1.72,1.72,0,0,1,.33,2.09c-.33.5-.93.63-1.72.34S34.35,42.81,34.31,42.27Zm-7.9-12.92c2.93,1.84,4.5,3.79,4.67,5.81a6,6,0,0,1-1.89,4.45,6,6,0,0,1-.58-.18,5.52,5.52,0,0,0-3.64-6A13.88,13.88,0,0,1,26.41,29.35Zm-6.72,8.33a3.56,3.56,0,0,1,4.37-2.56,3.59,3.59,0,1,1-4.37,2.56Zm-9.28-.43a3.59,3.59,0,0,1,3.47-2.68,3.48,3.48,0,0,1,.9.12,3.58,3.58,0,0,1,2.57,4.37,3.59,3.59,0,0,1-6.94-1.81Zm-4.2,8.34A3.53,3.53,0,0,1,7.87,43.4,3.63,3.63,0,0,1,10.58,43,3.58,3.58,0,0,1,8.78,50,3.58,3.58,0,0,1,6.21,45.59ZM9,55.89a3.6,3.6,0,0,1-4.38,2.57,3.58,3.58,0,0,1-.9-6.56,3.5,3.5,0,0,1,2.71-.38A3.59,3.59,0,0,1,9,55.89Zm9.27.25a3.65,3.65,0,1,1,.08-1.27,5.12,5.12,0,0,0,0,.68A4.22,4.22,0,0,1,18.28,56.14Zm9.06,0a3.57,3.57,0,0,1-7-.53,5.43,5.43,0,0,0,0-.7,3.7,3.7,0,0,1,.1-.58,3.58,3.58,0,0,1,3.46-2.68,4,4,0,0,1,.91.11l.38.14a5.28,5.28,0,0,0,.93.52,3.52,3.52,0,0,1,.88,1A3.59,3.59,0,0,1,27.34,56.1ZM61.65,33.55a18.61,18.61,0,0,0-.78,2.83,14.91,14.91,0,0,0-.14,2.94c0,2.55.07,5.43-2.69,8.8C46.21,62.59,38.28,59.3,34,57.53a10.75,10.75,0,0,0-2.36-.8,7.05,7.05,0,0,1-2.11-.56,1.31,1.31,0,0,0-.06-.27.27.27,0,0,1,0-.22,1.35,1.35,0,0,1,1-.37A19.58,19.58,0,0,0,35.43,54c8-2.7,13.09-7.88,16.77-11.66,1.76-1.82,3.31-3.4,4.52-3.94l.12,0,.08,0,.2-.08c3-.79,3.1-4.45,3.13-6.21,0-.2,0-.45,0-.57a3.15,3.15,0,0,1,1.63.38c.15.07.15.09.15.09A5,5,0,0,1,61.65,33.55Z"></path></svg>