<svg height='100px' width='100px'  fill="#000000" xmlns="http://www.w3.org/2000/svg" viewBox="0 0 512 512" x="0px" y="0px"><g><path d="M470,144H459.7a32,32,0,1,0-55.39,0H394a26.029,26.029,0,0,0-26,26v38a8,8,0,0,0,8,8h16v37.592l-93.955,12.569-2.182-11.636A8,8,0,0,0,288,248H224a8,8,0,0,0-7.863,6.525L211.792,277.7,176,282.488V216a8,8,0,0,1,16,0v8a8,8,0,0,0,16,0v-8a23.87,23.87,0,0,0-5.075-14.733A19.966,19.966,0,0,0,188,168h-6.583l-10.469-26.172a21.917,21.917,0,0,0-15.575-13.269A32,32,0,1,0,100.305,128H47.69a31.678,31.678,0,0,0-29.909,42.15,31.336,31.336,0,0,0,5.163,9.338l14.7,18.371A22.136,22.136,0,0,0,48,205.1v94.517l-9.275,1.241a24,24,0,0,0,3.132,47.793,24.459,24.459,0,0,0,3.232-.216l157.389-21.055-9.414,50.208A26.042,26.042,0,0,0,176,402v30a8,8,0,0,0,8,8H328a8,8,0,0,0,8-8V402a26.042,26.042,0,0,0-17.064-24.417L306.9,313.4l166.372-22.258A24,24,0,0,0,472,243.433V216h16a8,8,0,0,0,8-8V170A26.029,26.029,0,0,0,470,144Zm-38-32a16,16,0,1,1-16,16A16.019,16.019,0,0,1,432,112ZM230.639,264h50.722l21,112H209.639ZM128,96a16,16,0,1,1-16,16A16.019,16.019,0,0,1,128,96ZM35.438,169.493A15.777,15.777,0,0,1,32,159.69,15.708,15.708,0,0,1,47.69,144H150.8c.118.018.237.033.357.046a5.967,5.967,0,0,1,4.931,3.725l12.48,31.2A8,8,0,0,0,176,184h12a4,4,0,0,1,0,8H164.943l-12.648-25.289a8,8,0,0,0-13.811-.858l-25.14,37.709A8,8,0,0,0,112,208v80.938l-16,2V216H80v76.938l-16,2V204.261a22.114,22.114,0,0,0,11.837-12.784l25.82-25.82A8,8,0,0,0,96,152H56a8,8,0,0,0-6.655,12.439l10.741,16.1A6.255,6.255,0,0,1,61.14,184a5.787,5.787,0,0,1-.164,1.363l-.025.106a6.091,6.091,0,0,1-4.579,4.543,6.142,6.142,0,0,1-6.236-2.15ZM161.376,208A23.889,23.889,0,0,0,160,216v68.628l-32,4.282V210.422L144.151,186.2l8.694,17.383A8,8,0,0,0,160,208ZM70.953,168h5.733l-3.439,3.439ZM42.968,332.57a8,8,0,0,1-8.99-6.868,8.009,8.009,0,0,1,6.868-8.99l167.841-22.454-3.1,16.558ZM310,392a10.011,10.011,0,0,1,10,10v22H192V402a10.011,10.011,0,0,1,10-10ZM474.95,261a8,8,0,0,1-3.8,14.286l-167.2,22.368L301,281.91l168.035-22.48A7.93,7.93,0,0,1,474.95,261ZM480,200h-8V176H456v69.03l-16,2.14V200H424v49.311l-16,2.14V172.938H392V200h-8V170a10.011,10.011,0,0,1,10-10h76a10.011,10.011,0,0,1,10,10Z"></path><path d="M256,280a24,24,0,1,0,24,24A24.027,24.027,0,0,0,256,280Zm0,32a8,8,0,1,1,8-8A8.009,8.009,0,0,1,256,312Z"></path></g></svg>