<svg height='100px' width='100px'  fill="#000000" xmlns="http://www.w3.org/2000/svg" xmlns:xlink="http://www.w3.org/1999/xlink" version="1.1" x="0px" y="0px" viewBox="0 0 100 100" enable-background="new 0 0 100 100" xml:space="preserve"><path d="M72.094,62.53v-7.203h-4.772V39.811h2.749v-5.89h-3.144c0,0,0-5.891-3.926-10.996c-3.931-5.104-8.645-7.462-8.645-7.462  V7.148h-2.355V1.313h-4.322v5.835h-2.355v8.314c0,0-4.713,2.358-8.642,7.462c-3.93,5.105-3.927,10.996-3.927,10.996h-3.141v5.89  h2.747v15.517h-5.2v7.203H1.824v36.615h7.388V83.927h5.227v15.219h5.565V83.927h5.227v15.219h5.563V83.927h5.229v15.219h5.565  V83.927h5.226v15.219h5.567V83.927h5.226v15.219h5.565V83.927H68.4v15.219h5.563V83.927h5.227v15.219h5.565V83.927h5.228v15.219  h7.49V62.53H72.094z M14.439,80.008H9.212v-4.873h5.227V80.008z M25.231,80.008h-5.227v-4.873h5.227V80.008z M57.098,39.852h5.227  v15.365h-5.227V39.852z M47.139,39.852h5.227v15.365h-5.227V39.852z M37.181,39.852h5.227v15.365h-5.227V39.852z M36.023,80.008  h-5.229v-4.873h5.229V80.008z M46.814,80.008h-5.226v-4.873h5.226V80.008z M57.606,80.008h-5.226v-4.873h5.226V80.008z   M31.713,69.303l17.884-7.406l18.358,7.406H31.713z M68.4,80.008h-5.229v-4.873H68.4V80.008z M79.19,80.008h-5.227v-4.873h5.227  V80.008z M89.983,80.008h-5.228v-4.873h5.228V80.008z"></path></svg>