<svg height='100px' width='100px'  fill="#000000" xmlns="http://www.w3.org/2000/svg" xmlns:xlink="http://www.w3.org/1999/xlink" version="1.1" x="0px" y="0px" viewBox="0 0 100 100" enable-background="new 0 0 100 100" xml:space="preserve"><g><path d="M75.317,91.635c-0.759,0-2.281-0.672-2.356-2.227c-0.051-1.027-0.4-1.717-1.947-1.743c-0.001,0-0.002,0-0.004,0   c-0.966,0-1.411,0.261-1.843,0.512c-0.343,0.201-0.698,0.408-1.189,0.426c-0.002,0-0.003,0-0.004,0   c-0.458,0-0.781-0.16-1.042-0.288c-0.438-0.217-0.727-0.256-1.252,0.244c-0.63,0.599-1.294,0.915-1.923,0.915   c-0.896,0-1.563-0.626-1.786-1.673c-0.043-0.205-0.084-0.42-0.125-0.638c-0.102-0.541-0.29-1.543-0.502-1.7   c-0.003,0.012-0.096,0.044-0.268,0.199c-0.709,0.637-1.301,0.939-1.777,1.182c-0.381,0.194-0.655,0.335-0.862,0.581   c-0.286,0.339-0.607,0.511-0.956,0.512c-0.487,0-0.865-0.324-1.265-0.668c-0.419-0.36-0.853-0.733-1.406-0.733   c-0.157,0.008-0.218,0.011-0.276,0.011c-1.267,0-1.666-1.012-1.881-1.555c-0.026-0.066-0.06-0.15-0.091-0.223   c-0.058,0.104-0.151,0.263-0.223,0.382c-0.335,0.564-0.793,1.337-1.676,1.534c-0.27,0.06-0.565-0.001-0.823-0.065   c-0.158-0.039-0.307-0.077-0.445-0.077c-0.169,0-0.405,0.053-0.729,0.464c-0.089,0.113-0.36,0.456-0.77,0.457l0,0   c-0.453,0-0.708-0.383-0.953-0.752c-0.419-0.63-0.911-1.35-2.241-1.205c-1.971,0.215-2.473-0.913-2.848-1.713   c-0.302-0.645-0.473-0.954-1.034-0.972c-0.208-0.007-0.412-0.009-0.613-0.009l-1.387,0.012c-1.141,0-2.499-0.059-4.177-0.761   c-2.374-0.991-4.427-1.434-6.657-1.434l-0.565,0.006c-1.419,0-2.354-0.332-3.106-0.599c-0.695-0.247-1.205-0.412-1.795-0.262   c-0.251,0.063-0.514,0.136-0.791,0.214c-0.89,0.248-1.997,0.557-3.372,0.704c-0.676,0.072-1.341-0.014-1.901-0.087   c-0.312-0.041-0.598-0.08-0.847-0.08c-0.418,0-0.46,0.104-0.504,0.306c-0.256,1.197-1.44,4.71-3.448,5.135   c-0.937,0.198-1.625-0.132-2.094-0.404c-0.386-0.222-0.675-0.368-1.141-0.256c-0.3,0.074-0.362,0.285-0.316,1.077   c0.025,0.444,0.05,0.863-0.224,1.153c-0.099,0.104-0.275,0.229-0.554,0.229c-0.028,0-0.142-0.01-0.169-0.015   c-0.637-0.106-1.306-0.769-1.705-1.688c-0.489-1.13-0.423-2.299,0.183-3.207c1.025-1.537,1.166-3.088,1.166-4.535   c0-1.276-1.436-1.951-2.704-2.546c-0.947-0.445-1.696-0.797-1.846-1.434C2.093,73.66,2.43,72.585,3.38,70.748   c1.279-2.473,3.123-2.899,4.749-3.276c0.425-0.098,0.831-0.192,1.223-0.317c0.074-0.942,0.289-3.628,0.393-4.565   c0.105-0.944-0.263-2.506-0.96-4.075C8.172,57.137,6,51.343,5.972,48.399c-0.005-0.57-0.075-0.896-0.209-1.331   c-0.121-0.394-0.066-0.787,0.149-1.079c0.269-0.363,0.721-0.532,1.342-0.458c0.893,0.114,1.736,0.09,2.438-0.072   c0.335-0.077,0.686-0.116,1.041-0.116c0.906,0,1.716,0.245,2.431,0.461c0.531,0.16,0.99,0.299,1.359,0.299   c0.533,0,0.671-0.182,0.901-0.483c0.151-0.197,0.322-0.421,0.606-0.579c0.342-0.189,0.86-0.105,1.339,0.016   c0.247,0.063,0.502,0.127,0.7,0.127c0.188,0,0.236-0.055,0.276-0.121c0.133-0.22,0.159-0.604,0.184-0.976   c0.049-0.745,0.125-1.871,1.383-2.071c0.671-0.106,1.412-0.568,2.129-1.014c0.609-0.379,1.238-0.771,1.861-0.968   c0.433-0.137,0.774-0.201,1.075-0.201c0.82,0,1.334,0.484,1.447,1.364c0.049,0.385,0.646,0.823,1.121,0.823   c0.183,0,0.38-0.05,0.456-0.421c0.099-0.486,0.07-0.857-0.085-1.073c-0.132-0.185-0.355-0.248-0.518-0.268   c-0.35-0.043-1.009-0.124-1.331-0.721c-0.299-0.553-0.184-1.349,0.351-2.434c0.58-1.177,0.71-2.45,0.824-3.574   c0.102-1,0.19-1.863,0.565-2.517c0.501-0.871,1.548-1.482,2.562-2.073c0.624-0.364,1.213-0.708,1.633-1.082   c0.392-0.349,0.617-0.742,0.836-1.123c0.366-0.637,0.781-1.36,1.912-1.41c0.19-0.008,0.374-0.011,0.549-0.011l0.826,0.008   c0.726,0,0.821-0.094,0.872-0.218c0.439-1.079,1.129-1.545,1.499-1.795c0.016-0.01,0.03-0.021,0.045-0.03   c-0.104-0.079-0.42-0.193-1.081-0.193c-0.155,0-0.32,0.006-0.495,0.019c-0.223,0.016-0.455,0.028-0.674,0.028   c-0.551,0-1.213-0.065-1.449-0.57c-0.158-0.338-0.059-0.725,0.297-1.152c0.264-0.316,0.238-0.578,0.2-0.973   c-0.044-0.458-0.099-1.028,0.393-1.62c0.249-0.3,0.295-0.617,0.35-0.983c0.085-0.583,0.203-1.383,1.392-1.739   c0.568-0.17,1.128-0.677,1.67-1.167c0.693-0.627,1.411-1.277,2.247-1.277c0.157,0,0.313,0.023,0.465,0.069   c0.354,0.106,0.742,0.259,1.146,0.417c1.075,0.423,2.25,0.832,2.856,0.523c0.305-0.156,0.376-0.479,0.476-1.036   c0.121-0.676,0.287-1.602,1.318-2.095c0.491-0.236,0.88-0.772,1.292-1.339c0.674-0.93,1.448-1.997,2.9-1.799   c0.926,0.131,1.334,0.639,1.604,0.975c0.221,0.275,0.273,0.316,0.408,0.316c0.08,0,0.183-0.019,0.303-0.056   c1.902-0.581,3.396,0.052,3.698,1.5c0.153,0.053,0.519-0.116,0.845-0.263c0.729-0.328,1.737-0.729,2.595-0.527   c0.974,0.232,2.762,0.897,3.696,1.779c0.444,0.42,0.183,1.078-0.12,1.839c-0.192,0.484-0.551,1.386-0.319,1.57   c0.649,0.515,1.613-0.156,2.471-0.843c0.871-0.697,1.917-1.409,3.066-1.409c0.246,0,0.49,0.034,0.726,0.1   c0.807,0.228,1.335,0.267,1.8,0.302c0.949,0.071,1.544,0.162,2.738,1.209c0.819,0.719,1.777,1.232,2.622,1.685   c0.998,0.535,1.787,0.958,2.066,1.581c0.308,0.685-0.156,1.768-0.646,2.914c-0.251,0.585-0.629,1.469-0.58,1.711   c0.056,0.18,0.298,0.523,0.533,0.855c0.625,0.883,1.481,2.092,1.228,3.383c-0.16,0.818-0.777,1.691-1.374,2.536   c-0.377,0.534-1.008,1.427-0.949,1.682c0.368,0.411,1.875,1.21,2.775,1.688c0.922,0.489,1.15,0.618,1.277,0.763   c0.333,0.38,0.061,0.878-0.433,1.781c-0.153,0.281-0.389,0.711-0.491,0.968c0.021,0.01,0.043,0.02,0.063,0.029   c0.554,0.258,1.585,0.738,1.943,2.449c0.385,1.836,1.199,2.608,2.768,3.549c0.482,0.289,0.934,0.491,1.331,0.67   c0.95,0.427,1.933,0.867,1.549,2.209c-0.06,0.209-0.137,0.441-0.218,0.686c-0.217,0.651-0.579,1.742-0.356,2.05   c0.063,0.088,0.251,0.101,0.357,0.101l0.109-0.004c0.479-0.032,1.014-0.058,1.562-0.058c2.305,0,3.758,0.465,4.441,1.422   c0.546,0.765,0.341,1.423,0.191,1.902c-0.168,0.539-0.245,0.784,0.577,1.312c1.253,0.803,1.927,1.567,2.062,2.34   c0.087,0.5-0.049,0.987-0.403,1.448c-0.338,0.439-0.798,0.737-1.38,1.114c-0.641,0.414-1.438,0.93-2.388,1.847   c-1.803,1.741-3.651,2.026-5.577,0.849l-0.471-0.294c-0.802-0.505-1.56-0.982-2.23-0.982c-0.352,0-0.671,0.126-1.006,0.396   c-1.099,0.883-0.887,1.655-0.144,3.207c0.247,0.517,0.614,0.83,1.002,1.162c0.606,0.52,1.294,1.107,1.202,2.401   c-0.045,0.634,0.071,0.979,0.195,1.346c0.185,0.549,0.376,1.116,0.072,2.334c-0.405,1.619-0.174,2.84,0.798,4.215   c0.553,0.783,1.388,1.965,0.641,2.911c-0.262,0.331-0.705,0.331-0.851,0.331c-0.328,0-0.733-0.071-1.162-0.146   c-0.482-0.085-0.982-0.173-1.419-0.173c-0.696,0-0.816,0.23-0.861,0.316c-0.265,0.507-0.708,0.764-1.317,0.764   c-0.285,0-0.582-0.054-0.869-0.106c-0.276-0.05-0.563-0.102-0.82-0.102c-0.452,0-0.737,0.157-0.983,0.544   c-0.37,0.581-0.745,1.067-1.106,1.537c-0.782,1.018-1.458,1.896-1.863,3.417c-0.618,2.315-0.746,2.797-0.16,4.76   c0.445,1.494,0.165,2.342-0.149,2.791c-0.273,0.391-0.689,0.639-1.113,0.663C75.386,91.634,75.327,91.635,75.317,91.635z    M70.935,86.664c1.954,0.033,2.939,0.939,3.024,2.695c0.048,0.971,1.073,1.275,1.358,1.275v0.5l0.02-0.5   c0.02-0.001,0.198-0.018,0.353-0.239c0.153-0.219,0.359-0.762,0.01-1.932c-0.666-2.232-0.477-2.944,0.152-5.303   c0.457-1.714,1.225-2.712,2.037-3.769c0.349-0.453,0.709-0.922,1.056-1.465c0.433-0.678,1.03-1.007,1.827-1.007   c0.348,0,0.693,0.063,0.999,0.118c0.255,0.046,0.495,0.09,0.69,0.09c0.264,0,0.353-0.076,0.431-0.227   c0.296-0.566,0.884-0.854,1.748-0.854c0.523,0,1.092,0.101,1.593,0.188c0.55,0.096,1.124,0.121,1.131,0.118   c0.159-0.237-0.159-0.815-0.749-1.652c-1.146-1.619-1.43-3.125-0.952-5.034c0.233-0.934,0.108-1.304-0.05-1.772   c-0.143-0.423-0.304-0.901-0.245-1.735c0.057-0.792-0.286-1.085-0.854-1.571c-0.429-0.367-0.915-0.783-1.254-1.49   c-0.629-1.313-1.411-2.945,0.419-4.418c0.508-0.408,1.058-0.616,1.633-0.616c0.96,0,1.836,0.553,2.764,1.137l0.459,0.286   c1.553,0.95,2.877,0.718,4.36-0.714c1.02-0.984,1.862-1.53,2.539-1.968c0.521-0.337,0.898-0.581,1.131-0.884   c0.239-0.312,0.235-0.529,0.211-0.667c-0.057-0.326-0.383-0.88-1.615-1.67c-1.353-0.866-1.242-1.653-0.993-2.45   c0.14-0.448,0.195-0.679-0.051-1.023c-0.326-0.458-1.222-1.004-3.627-1.004c-0.524,0-1.036,0.025-1.495,0.056   c-0.787,0.052-1.16-0.254-1.345-0.51c-0.521-0.723-0.128-1.906,0.219-2.95c0.076-0.229,0.149-0.448,0.206-0.646   c0.129-0.451,0.081-0.537-0.997-1.021c-0.402-0.181-0.903-0.405-1.436-0.725c-1.745-1.047-2.776-2.026-3.232-4.201   c-0.256-1.22-0.91-1.525-1.387-1.747c-0.21-0.098-0.391-0.182-0.527-0.333c-0.386-0.429-0.033-1.074,0.5-2.05   c0.123-0.225,0.292-0.533,0.387-0.741c-0.196-0.108-0.522-0.281-0.821-0.44c-1.406-0.745-2.607-1.405-3.068-1.929   c-0.641-0.728,0.07-1.735,0.894-2.9c0.511-0.723,1.09-1.543,1.21-2.151c0.17-0.87-0.514-1.836-1.063-2.613   c-0.306-0.433-0.57-0.806-0.674-1.144c-0.162-0.526,0.129-1.252,0.617-2.393c0.273-0.639,0.782-1.827,0.654-2.112   c-0.14-0.312-0.896-0.716-1.627-1.108c-0.848-0.455-1.903-1.02-2.81-1.814c-1.001-0.878-1.386-0.907-2.152-0.964   c-0.487-0.037-1.094-0.082-1.997-0.336c-0.958-0.269-2.075,0.471-2.896,1.128c-0.814,0.651-1.688,1.253-2.567,1.253   c-0.421,0-0.808-0.138-1.149-0.409c-0.813-0.645-0.337-1.846,0.012-2.722c0.104-0.26,0.253-0.637,0.28-0.817   c-0.811-0.707-2.352-1.267-3.16-1.46c-0.557-0.13-1.322,0.183-1.951,0.466c-0.48,0.216-0.895,0.403-1.277,0.403   c-0.234,0-0.797-0.083-0.957-0.846c-0.161-0.768-0.825-0.929-1.354-0.929c-0.323,0-0.684,0.061-1.072,0.179   c-0.982,0.3-1.482-0.216-1.784-0.591c-0.239-0.299-0.43-0.535-0.964-0.611c-0.854-0.121-1.353,0.571-1.95,1.396   c-0.467,0.644-0.949,1.309-1.67,1.654c-0.541,0.26-0.644,0.69-0.766,1.37c-0.108,0.605-0.243,1.359-1.003,1.749   c-0.948,0.487-2.45,0.001-3.68-0.482c-0.376-0.147-0.738-0.291-1.068-0.391c-0.504-0.152-1.126,0.426-1.752,0.992   c-0.624,0.564-1.27,1.148-2.054,1.383c-0.579,0.174-0.609,0.379-0.689,0.927c-0.063,0.428-0.142,0.959-0.569,1.476   c-0.216,0.26-0.206,0.471-0.166,0.886c0.043,0.452,0.103,1.072-0.429,1.709c-0.017,0.02-0.031,0.038-0.044,0.055   c0.184,0.029,0.629,0.03,1.03,0.001c1.314-0.096,2.15,0.117,2.513,0.619c0.188,0.261,0.231,0.585,0.123,0.913   c-0.077,0.232-0.261,0.356-0.473,0.499c-0.321,0.217-0.808,0.546-1.133,1.344c-0.343,0.84-1.254,0.84-1.798,0.84l-0.826-0.008   c-0.16,0-0.329,0.002-0.504,0.01c-0.561,0.025-0.729,0.281-1.09,0.909c-0.234,0.407-0.525,0.914-1.037,1.371   c-0.495,0.442-1.156,0.827-1.795,1.2c-0.9,0.525-1.831,1.068-2.199,1.708c-0.27,0.469-0.348,1.234-0.438,2.12   c-0.117,1.147-0.263,2.576-0.923,3.915c-0.525,1.066-0.415,1.43-0.368,1.517c0.077,0.143,0.355,0.177,0.54,0.199   c0.546,0.068,0.975,0.309,1.243,0.682c0.326,0.455,0.411,1.079,0.252,1.856c-0.156,0.765-0.693,1.221-1.436,1.221   c-0.895,0-1.988-0.725-2.113-1.695c-0.059-0.456-0.226-0.492-0.455-0.492c-0.193,0-0.445,0.051-0.773,0.154   c-0.503,0.16-1.053,0.502-1.635,0.864c-0.801,0.499-1.629,1.015-2.5,1.153c-0.396,0.063-0.482,0.245-0.543,1.149   c-0.031,0.469-0.066,0.999-0.327,1.429c-0.167,0.274-0.498,0.602-1.131,0.602c-0.322,0-0.652-0.084-0.944-0.157   c-0.213-0.054-0.434-0.109-0.571-0.109c-0.14,0.055-0.226,0.168-0.335,0.311c-0.266,0.349-0.669,0.876-1.696,0.876   c-0.517,0-1.066-0.166-1.648-0.342c-0.935-0.282-1.984-0.549-2.959-0.327c-0.819,0.187-1.778,0.217-2.787,0.09   c-0.217-0.028-0.379,0.015-0.413,0.06c-0.018,0.025-0.028,0.09,0.003,0.19c0.155,0.504,0.246,0.93,0.253,1.616   c0.025,2.573,1.96,7.994,2.726,9.718c0.776,1.748,1.165,3.465,1.04,4.593c-0.123,1.104-0.412,4.82-0.415,4.858   c-0.015,0.193-0.141,0.361-0.324,0.43c-0.544,0.203-1.104,0.333-1.645,0.458c-1.553,0.359-3.019,0.698-4.085,2.761   c-0.98,1.895-1.107,2.626-1.041,2.906c0.077,0.184,0.812,0.528,1.297,0.757c1.383,0.649,3.278,1.539,3.278,3.451   c0,1.527-0.159,3.326-1.334,5.09c-0.588,0.882-0.264,1.87-0.098,2.255c0.221,0.511,0.521,0.848,0.747,1.003   c-0.002-0.078-0.007-0.16-0.011-0.228c-0.037-0.635-0.105-1.816,1.078-2.105c0.805-0.199,1.416,0.095,1.878,0.361   c0.412,0.237,0.786,0.418,1.387,0.291c1.273-0.27,2.389-3.021,2.677-4.365c0.156-0.728,0.654-1.097,1.481-1.097   c0.287,0,0.618,0.042,0.978,0.089c0.533,0.071,1.092,0.145,1.664,0.084c1.292-0.139,2.311-0.423,3.209-0.674   c0.286-0.079,0.557-0.155,0.816-0.22c0.836-0.213,1.602,0.015,2.374,0.289c0.715,0.254,1.525,0.541,2.772,0.541l0.565-0.006   c2.337,0,4.575,0.48,7.042,1.512c1.361,0.568,2.46,0.683,3.792,0.683l1.387-0.012c0.212,0,0.426,0.002,0.645,0.009   c1.2,0.038,1.609,0.91,1.908,1.547c0.354,0.755,0.631,1.274,1.835,1.144c1.96-0.208,2.73,0.967,3.181,1.646   c0.041,0.061,0.089,0.133,0.133,0.195c0.441-0.545,0.928-0.811,1.487-0.811c0.262,0,0.498,0.06,0.688,0.107   c0.127,0.031,0.248,0.062,0.327,0.062c0.496-0.105,0.801-0.619,1.069-1.071c0.28-0.473,0.546-0.919,1.041-0.972   c0.003,0,0.006,0,0.01,0c0.675,0,0.893,0.552,1.052,0.955c0.248,0.627,0.423,0.923,0.951,0.923l0.109-0.005   c1.018-0.066,1.719,0.533,2.226,0.97c0.209,0.18,0.495,0.426,0.612,0.426c0.024,0,0.095-0.042,0.19-0.156   c0.338-0.4,0.744-0.607,1.174-0.827c0.446-0.228,0.951-0.485,1.562-1.035c0.338-0.303,0.653-0.45,0.965-0.45   c0.986,0,1.226,1.276,1.458,2.511c0.039,0.209,0.078,0.417,0.12,0.613c0.085,0.402,0.295,0.882,0.808,0.882   c0.362,0,0.8-0.228,1.233-0.64c0.5-0.476,0.954-0.697,1.428-0.697c0.387,0,0.689,0.149,0.956,0.28   c0.202,0.101,0.377,0.187,0.55,0.187c0.247-0.009,0.433-0.11,0.739-0.29C69.133,87.04,69.775,86.664,70.935,86.664z"></path></g></svg>