<svg height='100px' width='100px'  fill="#000000" xmlns="http://www.w3.org/2000/svg" xmlns:xlink="http://www.w3.org/1999/xlink" version="1.1" x="0px" y="0px" viewBox="0 0 100 100" style="enable-background:new 0 0 100 100;" xml:space="preserve"><path d="M49.88,6.44c-0.5,0-1,0.02-1.5,0.04v0.12C48.87,6.5,49.37,6.44,49.88,6.44z"></path><path d="M51.38,6.49c-0.5-0.03-1-0.04-1.5-0.04c0.51,0,1.01,0.06,1.5,0.17V6.49z"></path><path d="M48.38,4.94v1.54c0.5-0.03,1-0.04,1.5-0.04s1,0.02,1.5,0.04V4.94c0-0.83-0.67-1.5-1.5-1.5S48.38,4.11,48.38,4.94z"></path><path d="M80.1,32.06C79.24,16.14,66.02,3.44,49.88,3.44c0.83,0,1.5,0.67,1.5,1.5v1.54v0.12c6.67,1.46,12.1,12.46,12.48,25.61H51.38  V6.61c-0.49-0.11-0.99-0.17-1.5-0.17s-1.01,0.06-1.5,0.17v25.61H35.89c0.39-13.14,5.82-24.15,12.48-25.61V6.49V4.94  c0-0.83,0.67-1.5,1.5-1.5c-16.14,0-29.36,12.69-30.23,28.62h-9.07V85.9h33.44v7.57h-8.34c-0.83,0-1.5,0.67-1.5,1.5s0.67,1.5,1.5,1.5  h28.91c0.83,0,1.5-0.67,1.5-1.5s-0.67-1.5-1.5-1.5h-8.34V85.9h33.44V32.06H80.1z M32.89,35.22c0.27,10.33,3.32,19.15,7.89,24.21  c-10.13-3.6-17.52-13.01-18.13-24.21H32.89z M77.11,35.22c-0.61,11.2-8,20.61-18.13,24.21c4.57-5.06,7.62-13.88,7.89-24.21H77.11z   M58.98,8.01c10.13,3.6,17.52,13.01,18.13,24.21H66.87C66.6,21.88,63.54,13.07,58.98,8.01z M63.86,35.22  c-0.39,13.14-5.82,24.15-12.48,25.61V35.22H63.86z M48.38,35.22v25.61c-6.67-1.46-12.1-12.46-12.48-25.61H48.38z M40.78,8.01  c-4.57,5.06-7.62,13.88-7.89,24.21H22.65C23.26,21.02,30.65,11.6,40.78,8.01z M53.25,93.47h-6.23V85.9h6.23V93.47z M86.69,82.9  H13.58v-5.75h73.11V82.9z M13.58,74.15V35.06h6.06c0.71,16.07,14,28.93,30.24,28.93s29.53-12.86,30.24-28.93h6.58v39.08H13.58z"></path></svg>