<svg height='100px' width='100px'  fill="#000000" xmlns="http://www.w3.org/2000/svg" xmlns:xlink="http://www.w3.org/1999/xlink" version="1.1" x="0px" y="0px" viewBox="0 0 56 56" style="enable-background:new 0 0 56 56;" xml:space="preserve"><path d="M7.7997437,28.6785889v23.321228c0,0.5522461,0.4477539,1,1,1H21.999939h12h13.2001953c0.5522461,0,1-0.4477539,1-1  V28.6846313c0.4376221,0.1986694,0.9103394,0.3151855,1.3984375,0.3151855c0.9711914,0,1.8979492-0.4160156,2.5429688-1.1416016  c1.2451172-1.4008789,1.1181641-3.5537109-0.2822266-4.7993164L30.2592163,3.8591919  c-1.2880859-1.1455078-3.2304688-1.1450195-4.5185547-0.0004883l-11.140625,9.902832V7.5999146  c0-0.3081055-0.1420898-0.5986328-0.3847656-0.7880859c-0.2426758-0.1899414-0.5581055-0.2578125-0.8579102-0.1821289  l-4.800293,1.199707C8.1122437,7.9407349,7.7997437,8.3406372,7.7997437,8.7996216v10.800293  c0,0.0620728,0.0245361,0.1159668,0.0353394,0.1749268l-3.694519,3.2840576  c-1.4003906,1.2456055-1.5273438,3.3984375-0.2817383,4.800293C4.8700562,28.9959106,6.4776001,29.2754517,7.7997437,28.6785889z   M22.999939,50.9998169V43.539856c0-2.7241211,2.2158203-4.9399414,4.9399414-4.9399414h0.1201172  c2.7241211,0,4.9399414,2.2158203,4.9399414,4.9399414v7.4599609H22.999939z M34.999939,50.9998169V43.539856  c0-3.8266602-3.1132813-6.9399414-6.9399414-6.9399414h-0.1201172c-3.8266602,0-6.9399414,3.1132813-6.9399414,6.9399414v7.4599609  H9.7997437v-7.2124023l8.5166016-2.8388672c0.2875977-0.0961914,0.5161133-0.3173828,0.621582-0.6015625  c0.1049805-0.284668,0.0756836-0.6015625-0.0805664-0.8618164l-2.5981445-4.3305664l3.4477539-3.4477539  c0.390625-0.390625,0.390625-1.0234375,0-1.4140625s-1.0234375-0.390625-1.4140625,0l-4,4  c-0.324707,0.3242188-0.3867188,0.828125-0.1503906,1.2216797l2.3583984,3.9306641l-6.7011719,2.2338867V27.1274414  l18.2001953-16.178894l18.2001953,16.1785278v13.6588745l-3.2871094-3.2871094L40.9760132,28.78302  c-0.1015625-0.4575195-0.5073242-0.7832031-0.9760742-0.7832031h-4.3227539l-1.7485352-4.371582  c-0.2055664-0.512207-0.7851563-0.7592773-1.300293-0.5571289c-0.5126953,0.2055664-0.762207,0.7871094-0.5571289,1.300293l2,5  c0.1523438,0.3793945,0.5200195,0.628418,0.9287109,0.628418h4.1977539l1.8261719,8.2167969  c0.0410156,0.1860352,0.1342773,0.355957,0.269043,0.4902344l4.9072266,4.9072266v7.3857422H34.999939z M9.7997437,9.5803833  l2.800293-0.699707v6.6586304l-2.800293,2.4891968V9.5803833z M5.4696655,24.5540161l8.7971191-7.8199463  c0.0184937-0.0167236,0.0377197-0.0307007,0.0549316-0.0487671L27.0697632,5.3533325  c0.5302734-0.4716797,1.3300781-0.4711914,1.8603516,0.0004883l21.6000977,19.2001953  c0.5766602,0.5126953,0.6289063,1.3989258,0.1166992,1.9755859c-0.4941406,0.5546875-1.4204102,0.6108398-1.9775391,0.1162109  L28.6644897,8.8630981c-0.1894531-0.168457-0.4272461-0.2524414-0.6645508-0.2524414s-0.4750977,0.0839844-0.6645508,0.2524414  L7.3319702,26.6448364c-0.578125,0.5136719-1.4658203,0.4604492-1.9785156-0.1147461  C4.8407593,25.9529419,4.8930054,25.0667114,5.4696655,24.5540161z"></path></svg>