<svg height='100px' width='100px'  fill="#000000" xmlns="http://www.w3.org/2000/svg" xmlns:xlink="http://www.w3.org/1999/xlink" version="1.1" x="0px" y="0px" viewBox="0 0 100 100" style="enable-background:new 0 0 100 100;" xml:space="preserve"><path d="M56.1181641,70.1162109l2.0493164,4.2333984L55.8422852,78.4375  c-0.1884766,0.3310547-0.1723633,0.7392578,0.0410156,1.0546875c0.2128906,0.3154297,0.5854492,0.484375,0.9643555,0.4296875  l4.6586914-0.640625l3.1694336,3.4746094c0.1923828,0.2109375,0.4619141,0.3261719,0.7387695,0.3261719  c0.0922852,0,0.1860352-0.0126953,0.2773438-0.0390625c0.3657227-0.1054688,0.6396484-0.4101562,0.7070312-0.7841797  l0.8305664-4.6289062l4.2836914-1.9404297c0.3466797-0.1572266,0.5742188-0.4970703,0.5869141-0.8779297  s-0.1918945-0.7353516-0.5273438-0.9150391l-4.1459961-2.2207031l-0.5219727-4.6738281  c-0.0419922-0.3779297-0.2954102-0.6992188-0.6533203-0.8291016c-0.3574219-0.1289062-0.7583008-0.0449219-1.0327148,0.21875  l-3.3925781,3.2578125l-4.6064453-0.9482422c-0.3745117-0.0751953-0.7573242,0.0654297-0.9907227,0.3652344  C55.9951172,69.3671875,55.9521484,69.7734375,56.1181641,70.1162109z M60.1962891,73.9511719l-1.3955078-2.8828125  l3.137207,0.6455078c0.3212891,0.0664062,0.65625-0.0292969,0.894043-0.2578125l2.3100586-2.2177734l0.3554688,3.1826172  c0.0361328,0.3271484,0.2314453,0.6152344,0.5214844,0.7705078l2.8232422,1.5117188l-2.9169922,1.3212891  c-0.2998047,0.1357422-0.5136719,0.4101562-0.5717773,0.734375l-0.5654297,3.1523438l-2.1582031-2.3662109  c-0.190918-0.2089844-0.4594727-0.3261719-0.7387695-0.3261719c-0.0454102,0-0.0908203,0.0029297-0.1362305,0.0097656  l-3.1723633,0.4365234l1.5830078-2.7841797C60.328125,74.5947266,60.3398438,74.2470703,60.1962891,73.9511719z"></path><path d="M30.3173828,22.1796875h24.7338867c0.5522461,0,1-0.4472656,1-1s-0.4477539-1-1-1H30.3173828c-0.5522461,0-1,0.4472656-1,1  S29.7651367,22.1796875,30.3173828,22.1796875z"></path><path d="M30.3173828,30.0224609h24.7338867c0.5522461,0,1-0.4472656,1-1s-0.4477539-1-1-1H30.3173828c-0.5522461,0-1,0.4472656-1,1  S29.7651367,30.0224609,30.3173828,30.0224609z"></path><path d="M79.8823242,10H20.1801758c-0.5522461,0-1,0.4472656-1,1v78c0,0.5527344,0.4477539,1,1,1h59.7021484  c0.5522461,0,1-0.4472656,1-1V11C80.8823242,10.4472656,80.4345703,10,79.8823242,10z M21.1801758,78.2148438L30.965332,88  h-9.7851562V78.2148438z M32.074707,86.28125l-9.046875-9.046875h9.046875V86.28125z M78.8823242,88H34.074707V76.234375  c0-0.5527344-0.4477539-1-1-1H21.1801758V12h57.7021484V88z"></path><path d="M61.9018555,30.0224609h7.8432617c0.5522461,0,1-0.4472656,1-1v-7.8427734c0-0.5527344-0.4477539-1-1-1h-7.8432617  c-0.5522461,0-1,0.4472656-1,1v7.8427734C60.9018555,29.5751953,61.3496094,30.0224609,61.9018555,30.0224609z   M62.9018555,22.1796875h5.8432617v5.8427734h-5.8432617V22.1796875z"></path><path d="M30.3173828,37.0410156h24.7338867c0.5522461,0,1-0.4472656,1-1s-0.4477539-1-1-1H30.3173828c-0.5522461,0-1,0.4472656-1,1  S29.7651367,37.0410156,30.3173828,37.0410156z"></path><path d="M30.3173828,44.8837891h24.7338867c0.5522461,0,1-0.4472656,1-1s-0.4477539-1-1-1H30.3173828c-0.5522461,0-1,0.4472656-1,1  S29.7651367,44.8837891,30.3173828,44.8837891z"></path><path d="M61.9018555,44.8837891h7.8432617c0.5522461,0,1-0.4472656,1-1v-7.8427734c0-0.5527344-0.4477539-1-1-1h-7.8432617  c-0.5522461,0-1,0.4472656-1,1v7.8427734C60.9018555,44.4365234,61.3496094,44.8837891,61.9018555,44.8837891z   M62.9018555,37.0410156h5.8432617v5.8427734h-5.8432617V37.0410156z"></path><path d="M30.3173828,51.9023438h24.7338867c0.5522461,0,1-0.4472656,1-1s-0.4477539-1-1-1H30.3173828c-0.5522461,0-1,0.4472656-1,1  S29.7651367,51.9023438,30.3173828,51.9023438z"></path><path d="M30.3173828,59.7451172h24.7338867c0.5522461,0,1-0.4472656,1-1s-0.4477539-1-1-1H30.3173828c-0.5522461,0-1,0.4472656-1,1  S29.7651367,59.7451172,30.3173828,59.7451172z"></path><path d="M61.9018555,59.7451172h7.8432617c0.5522461,0,1-0.4472656,1-1v-7.8427734c0-0.5527344-0.4477539-1-1-1h-7.8432617  c-0.5522461,0-1,0.4472656-1,1v7.8427734C60.9018555,59.2978516,61.3496094,59.7451172,61.9018555,59.7451172z   M62.9018555,51.9023438h5.8432617v5.8427734h-5.8432617V51.9023438z"></path></svg>