<svg height='100px' width='100px'  fill="#000000" xmlns="http://www.w3.org/2000/svg" xmlns:xlink="http://www.w3.org/1999/xlink" version="1.1" x="0px" y="0px" viewBox="0 0 100 100" enable-background="new 0 0 100 100" xml:space="preserve"><g><path d="M59.669,85.073c-0.116,0-0.228-0.047-0.312-0.133c-0.246-0.246-0.254-0.797-0.246-1.828   c0.006-0.822,0.015-2.069-0.278-2.352c-0.962-0.926-2.437-1.188-3.862-1.441c-0.697-0.124-1.418-0.254-2.076-0.457   c-0.833-0.259-1.635-0.392-2.383-0.392c-2.646,0-4.151,1.585-5.147,2.632c-0.501,0.527-0.832,0.874-1.199,0.874   c-0.645-0.063-0.77-0.509-0.88-0.903c-0.128-0.457-0.303-1.085-1.128-1.821c-0.457-0.409-0.584-0.809-0.697-1.162   c-0.143-0.448-0.278-0.871-1.16-1.421c-2.489-1.549-3.434-3.761-4.192-5.541c-0.514-1.203-0.958-2.243-1.737-2.75   c-0.584-0.379-0.787-0.655-1.001-0.948c-0.397-0.54-0.891-1.214-4.79-3.188c-1.495-0.759-2.901-5.592-2.339-7.063   c1.093-2.865-4.68-7.095-6.853-8.688c-0.26-0.191-0.472-0.347-0.622-0.462c-0.196-0.151-0.341-0.257-0.45-0.336   c-0.375-0.272-0.434-0.336-0.513-0.717c-0.041-0.194-0.109-0.521-0.337-1.163c-0.716-2.02-1.021-2.395-1.929-3.507   c-0.31-0.381-0.688-0.844-1.17-1.479c-0.183-0.242-0.269-0.268-0.369-0.298c-0.189-0.058-0.361-0.134-0.543-0.472   c-0.95-1.765-1.416-2.175-1.867-2.572c-0.319-0.28-0.649-0.572-1.112-1.26c-1.766-2.624-2.459-3.458-2.719-3.653   c-0.089,0.099-0.213,0.2-0.407,0.2c-0.257,0-0.575-0.167-1.291-0.979c-0.497-0.564-0.726-1.372-0.646-2.274   c0.093-1.035,0.574-1.992,1.289-2.559c0.29-0.23,0.64-0.347,1.042-0.347c0.539,0,1.115,0.205,1.672,0.403   c0.719,0.256,1.485,0.499,2.017,0.315c0.402-0.138,0.491-0.408,0.653-1.006c0.118-0.434,0.265-0.974,0.64-1.556   c0.589-0.913,1.761-0.913,2.146-0.913c0.25,0,0.491,0.015,0.703,0.029c0.192,0.013,0.377,0.022,0.472,0.018   c0.505-1.663,0.849-1.863,1.276-1.96c0.123-0.027,0.25-0.056,0.487-0.785c0.073-0.224,0.064-0.285-0.6-0.514   c-0.304-0.105-0.647-0.224-0.958-0.435c-0.029-0.02-2.936-2.401-2.885-2.807l0.024-0.19l0.491-0.179   c4.244-1.534,5.831-2.108,8.622-2.108c0.872,0,1.875,0.051,3.465,0.176c1.418,0.113,3.336,1.487,4.878,2.592   c0.532,0.381,0.992,0.71,1.353,0.932c0.436,0.267,1.238,0.462,2.087,0.668c1.613,0.394,3.28,0.8,3.427,1.92   c0.054,0.419,0.205,0.49,0.521,0.49c0.134,0,0.277-0.017,0.42-0.032c0.166-0.017,0.332-0.034,0.489-0.034   c0.183,0,0.741,0,1.018,0.557c0.479,0.962,0.471,1.526,0.465,1.899c-0.008,0.55-0.009,0.634,4.259,2.311   c1.092,0.428,1.84,0.908,2.44,1.294c1.012,0.649,1.591,0.966,2.714,0.425c1.323-0.636,2.531-0.957,3.591-0.957   c2.225,0,3.238,1.378,3.614,2.094c2.733,0.312,6.102,2.74,7.282,5.281c0.284,0.612,0.869,0.866,1.487,1.134   c0.335,0.146,0.681,0.295,0.99,0.507c1.064,0.729,1.765,2.3,2.574,4.12c1.291,2.901,2.898,6.513,6.694,8.348   c1.192,0.576,2.049,2.033,2.483,4.216c1.354,0.297,4.071,0.603,6.704,0.898c5.307,0.595,7.014,0.842,7.354,1.229   c0.125,0.142,0.335,0.281,0.558,0.428c0.563,0.373,1.263,0.835,1.226,1.763c-0.111,2.819-0.342,5.821-1.272,8.688   c-0.071,0.221-0.128,0.395-6.776,2.728c-0.258,0.092-0.426,0.15-0.466,0.166c-0.505,0.189-1.185,0.494-1.842,0.791   c-0.581,0.261-1.129,0.507-1.491,0.645c-5.537,2.091-7.972,2.318-9.583,2.47c-2.185,0.203-2.577,0.239-7.603,5.267   c-1.585,1.584-4.116,5.104-5.197,6.605C60.104,84.915,59.894,85.073,59.669,85.073z M50.512,77.847c0.812,0,1.676,0.14,2.568,0.417   c0.621,0.193,1.291,0.313,2.001,0.438c1.518,0.271,3.087,0.55,4.185,1.608c0.488,0.469,0.479,1.657,0.471,2.808   c-0.001,0.393-0.006,0.896,0.028,1.188c0.029-0.034,0.062-0.077,0.099-0.129c1.089-1.514,3.642-5.062,5.264-6.684   c5.04-5.042,5.582-5.222,7.985-5.447c1.578-0.146,3.962-0.369,9.42-2.43c0.354-0.135,0.889-0.376,1.456-0.631   c0.666-0.301,1.354-0.611,1.878-0.808c0.041-0.016,0.214-0.076,0.479-0.169c4.71-1.653,6.111-2.231,6.414-2.414   c0.885-2.768,1.109-5.69,1.217-8.436c0.021-0.534-0.36-0.829-0.945-1.216c-0.258-0.171-0.502-0.331-0.682-0.536   c-0.392-0.286-4.03-0.693-6.954-1.022c-2.781-0.313-5.656-0.635-6.976-0.955c-0.198-0.052-0.229-0.214-0.257-0.355   c-0.384-2.002-1.15-3.374-2.159-3.86c-4.002-1.936-5.66-5.664-6.993-8.658c-0.771-1.732-1.438-3.229-2.355-3.857   c-0.261-0.179-0.564-0.31-0.887-0.449c-0.666-0.289-1.421-0.616-1.806-1.444c-1.124-2.419-4.367-4.727-6.942-4.938l-0.179-0.015   l-0.097-0.199c-0.268-0.56-1.107-1.86-3.111-1.86c-0.965,0-2.083,0.301-3.321,0.895c-0.492,0.236-0.927,0.352-1.329,0.352   c-0.725,0-1.286-0.358-1.994-0.813c-0.578-0.37-1.297-0.832-2.331-1.238c-4.453-1.749-4.671-1.885-4.656-2.9   c0.004-0.332,0.011-0.787-0.4-1.612c-0.065-0.13-0.164-0.211-0.458-0.211c-0.136,0-0.279,0.017-0.422,0.032   c-0.166,0.017-0.331,0.034-0.487,0.034c-0.668,0-1.053-0.349-1.143-1.034c-0.09-0.695-1.678-1.081-2.954-1.392   c-0.898-0.22-1.747-0.426-2.266-0.744c-0.381-0.233-0.849-0.568-1.391-0.956c-1.401-1.004-3.319-2.378-4.563-2.477   c-1.573-0.124-2.563-0.175-3.416-0.175c-2.652,0-4.094,0.511-8.273,2.023c0.66,0.632,2.182,1.989,2.373,2.118   c0.243,0.164,0.531,0.264,0.81,0.359c0.537,0.186,1.272,0.439,0.992,1.3c-0.295,0.908-0.54,1.111-0.945,1.202   c-0.155,0.036-0.39,0.089-0.852,1.652c-0.096,0.324-0.483,0.324-0.628,0.324c-0.125,0-0.276-0.01-0.446-0.021   c-0.2-0.013-0.427-0.027-0.663-0.027c-0.83,0-1.345,0.199-1.621,0.626c-0.323,0.5-0.45,0.969-0.562,1.382   c-0.165,0.606-0.321,1.181-1.053,1.433c-0.706,0.242-1.614-0.027-2.43-0.317c-0.855-0.304-1.638-0.531-2.115-0.156   c-0.574,0.456-0.978,1.27-1.055,2.124c-0.064,0.719,0.115,1.377,0.493,1.805C7,31.915,7.222,32.077,7.312,32.126   c0.089-0.104,0.21-0.22,0.405-0.22c0.376,0,0.785,0.267,3.276,3.968c0.418,0.623,0.704,0.874,1.007,1.141   c0.492,0.434,1.001,0.882,2.004,2.745c0.074,0.139,0.092,0.145,0.175,0.17c0.192,0.058,0.403,0.146,0.685,0.518   c0.477,0.628,0.851,1.086,1.157,1.461c0.932,1.145,1.281,1.572,2.033,3.695c0.242,0.681,0.315,1.032,0.359,1.243   c0.014,0.067,0.03,0.143,0.039,0.159c0.016,0.024,0.12,0.1,0.23,0.18c0.112,0.082,0.262,0.19,0.465,0.347   c0.146,0.113,0.354,0.266,0.609,0.452c2.493,1.827,8.331,6.105,7.068,9.416c-0.443,1.159,0.867,5.688,2.037,6.282   c4.033,2.043,4.576,2.783,5.012,3.376c0.195,0.268,0.35,0.478,0.839,0.795c0.939,0.61,1.417,1.731,1.971,3.03   c0.762,1.786,1.625,3.809,3.947,5.254c1.078,0.671,1.263,1.25,1.426,1.763c0.105,0.329,0.188,0.591,0.518,0.884   c0.961,0.86,1.173,1.618,1.314,2.121c0.117,0.418,0.144,0.432,0.284,0.447c0.113-0.022,0.459-0.389,0.739-0.682   C45.916,79.614,47.597,77.847,50.512,77.847z"></path></g></svg>