<svg height='100px' width='100px'  fill="#000000" xmlns="http://www.w3.org/2000/svg" xmlns:xlink="http://www.w3.org/1999/xlink" version="1.1" x="0px" y="0px" viewBox="0 0 369.678 248.334" style="enable-background:new 0 0 369.678 248.334;" xml:space="preserve"><g><path d="M163.23,47.746c2.479,0,4.723-0.99,6.368-2.593c2.698,2.253,6.168,3.61,9.958,3.61c3.667,0,7.031-1.276,9.689-3.399   c2.286,2.104,5.328,3.399,8.68,3.399c7.09,0,12.838-5.746,12.838-12.836c0-7.09-5.748-12.838-12.838-12.838   c-0.885,0-1.749,0.09-2.584,0.261c1.19,2.198,1.867,4.716,1.867,7.392c0,4.41-1.844,8.384-4.792,11.215   c1.697-2.492,2.692-5.502,2.692-8.746c0-8.59-6.963-15.553-15.553-15.553c-4.183,0-7.971,1.66-10.766,4.345   c-2.105,2.023-3.635,4.63-4.34,7.563c-0.4-0.053-0.806-0.09-1.221-0.09c-5.045,0-9.133,4.09-9.133,9.135   C154.098,43.656,158.186,47.746,163.23,47.746z"></path><path d="M273.473,58.445c2.478,0,4.722-0.99,6.368-2.592c2.698,2.252,6.168,3.61,9.958,3.61c3.667,0,7.03-1.276,9.689-3.399   c2.286,2.104,5.328,3.399,8.68,3.399c7.09,0,12.838-5.747,12.838-12.837c0-7.09-5.748-12.837-12.838-12.837   c-0.885,0-1.749,0.09-2.584,0.261c1.19,2.198,1.867,4.716,1.867,7.392c0,4.409-1.844,8.382-4.791,11.212   c1.697-2.492,2.691-5.5,2.691-8.743c0-8.59-6.963-15.553-15.553-15.553c-4.182,0-7.971,1.659-10.766,4.344   c-2.105,2.022-3.635,4.631-4.341,7.564c-0.4-0.054-0.805-0.091-1.22-0.091c-5.045,0-9.134,4.091-9.134,9.136   S268.428,58.445,273.473,58.445z"></path><path d="M369.678,172.555h-19.042v-57.584h-97.634v-1.75h99.884v-6h-41.875V97.054h5.833v-3.5h-11.832v3.5h2.999v10.167h-18v-11   h-18.5v11h-18.509v-24.5h-6v-7.833h-8.75v-6.167h-34.5v6.167h-8.75v7.833h-6v89.834h-2.969V82.721h-6.031v-7.833h-40.491v-8.834   h5.833v-3.5h-19.833v3.5h11v8.834h-8.509v7.833h-21.303v26.166h-1.73c0.683,6.686,1.037,13.992,1.048,21.992   c0,6.055-0.2,12.615-0.599,19.51c-0.436,7.395-6.569,13.186-13.969,13.186c-0.266,0-0.531-0.006-0.795-0.021   c-2.805-0.162-5.42-1.121-7.599-2.756v16.758h286.622V172.555z M315.244,148.221v24.334h-15.117v-24.334H315.244z M245.252,120.262   h-12v-2.644h12V120.262z M245.252,111.971h-12v-10.916c0-3.314,2.688-6,6-6c3.314,0,6,2.686,6,6V111.971z M227.002,111.971h-12   v-10.916c0-3.314,2.688-6,6-6c3.314,0,6,2.686,6,6V111.971z M227.002,113.471v2.647h-12v-2.647H227.002z M208.752,111.971h-12   v-10.916c0-3.314,2.688-6,6-6c3.314,0,6,2.686,6,6V111.971z M196.752,113.471h12v2.647h-12V113.471z M196.752,117.618h12v2.644h-12   V117.618z M215.002,117.618h12v2.644h-12V117.618z M245.252,116.118h-12v-2.647h12V116.118z M196.752,121.762h12v2.625h-12V121.762   z M215.002,124.387v-2.625h12v2.625H215.002z M233.252,121.762h12v2.625h-12V121.762z M284.545,145.721   c0-2.412,1.954-4.367,4.365-4.367c2.412,0,4.367,1.955,4.367,4.367v13.166h-8.733V145.721z M271.264,145.721   c0-2.412,1.955-4.367,4.365-4.367c2.412,0,4.367,1.955,4.367,4.367v13.166h-8.732V145.721z M257.982,145.721   c0-2.412,1.955-4.367,4.366-4.367c2.411,0,4.366,1.955,4.366,4.367v13.166h-8.733V145.721z M197.377,148.221h7.467v3.332h18.834   v-3.332h20.949v24.334h-10.116v-3.834h-13.5v3.834h-5v-6.584h-13.5v6.584h-5.134V148.221z M176.949,101.221v17h-17v-17H176.949z    M154.866,101.221v17h-17v-17H154.866z M115.783,101.221h17v17h-17V101.221z M176.992,148.221v24.334h-61.251v-24.334H176.992z"></path><path d="M77.057,86.01c0.592,1.217,1.189,2.611,1.779,4.237c2.82,7.813,5.191,20.632,5.182,40.64   c0,5.514-0.178,11.572-0.566,18.225c-0.256,4.408,3.111,8.195,7.521,8.451c0.158,0.01,0.315,0.014,0.471,0.014   c4.207,0,7.734-3.281,7.983-7.533c0.401-6.934,0.591-13.299,0.591-19.156c-0.039-30.183-4.862-46.888-11.436-56.932   c-3.285-4.984-7.128-8.183-10.678-9.956c-3.421-1.724-6.427-2.111-8.229-2.132c-0.116-0.006-0.229-0.018-0.347-0.018h-4.822   l-2.331,18.225l-9.75-11.75l5.843-6.475H41.75l5.843,6.475l-9.75,11.75L35.512,61.85h-4.818c-0.105,0-0.208,0.012-0.313,0.016   c-1.799,0.018-4.823,0.399-8.268,2.135c-5.378,2.667-11.177,8.502-15.236,18.839C2.772,93.219,0.014,108.225,0,130.885   c0,5.857,0.188,12.225,0.596,19.158c0.248,4.252,3.774,7.533,7.978,7.533c0.158,0,0.316-0.004,0.475-0.014   c4.412-0.26,7.777-4.045,7.52-8.453c-0.391-6.654-0.567-12.711-0.567-18.225c-0.035-24.217,3.495-37.821,6.964-44.918v150.004   c0,6.83,5.537,12.363,12.363,12.363c6.828,0,12.365-5.533,12.365-12.363V145.7h4.635v90.271c0,6.83,5.537,12.363,12.363,12.363   c6.828,0,12.365-5.533,12.365-12.363V86.01z M50.006,127.596c-1.52,0-2.75-1.23-2.75-2.75c0-1.518,1.23-2.75,2.75-2.75   c1.517,0,2.75,1.232,2.75,2.75C52.756,126.366,51.523,127.596,50.006,127.596z M50.006,110.014c-1.52,0-2.75-1.232-2.75-2.75   c0-1.52,1.23-2.75,2.75-2.75c1.517,0,2.75,1.23,2.75,2.75C52.756,108.782,51.523,110.014,50.006,110.014z M50.006,92.43   c-1.52,0-2.75-1.232-2.75-2.75c0-1.52,1.23-2.75,2.75-2.75c1.517,0,2.75,1.23,2.75,2.75C52.756,91.197,51.523,92.43,50.006,92.43z"></path><path d="M53.665,55.851c8.713-1.438,16.128-7.962,18.254-17.097c1.131-4.855,0.593-9.709-1.235-13.963H29.338   c-0.512,1.196-0.932,2.45-1.237,3.762C25.284,40.65,32.81,52.745,44.909,55.56c0.499,0.116,0.998,0.209,1.497,0.29   C48.868,56.253,51.313,56.238,53.665,55.851z"></path><path d="M86.384,22.791v-3.375h-15.09L70.12,5.332c0,0-6.998-5.332-20.111-5.332C36.897,0,29.897,5.332,29.897,5.332l-1.173,14.084   H13.634v3.375H86.384z"></path></g></svg>