<svg height='100px' width='100px'  fill="#000000" xmlns="http://www.w3.org/2000/svg" viewBox="0 0 100 100" x="0px" y="0px"><title>University</title><g data-name="Iconos"><path d="M46.68,43.36a4.1,4.1,0,1,0-1.21-2.91A4.09,4.09,0,0,0,46.68,43.36Zm2.12-3.7a1.12,1.12,0,1,1,1.59,1.58,1.14,1.14,0,0,1-1.59,0,1.11,1.11,0,0,1,0-1.58Z"></path><rect x="36.93" y="54.44" width="6" height="8.5" rx="1.5" ry="1.5"></rect><rect x="36.93" y="65.15" width="6" height="8.5" rx="1.5" ry="1.5"></rect><rect x="46.63" y="54.44" width="6" height="8.5" rx="1.5" ry="1.5"></rect><rect x="56.33" y="54.44" width="6" height="8.5" rx="1.5" ry="1.5"></rect><rect x="71.43" y="54.44" width="6" height="8.5" rx="1.5" ry="1.5"></rect><rect x="80.43" y="54.44" width="6" height="8.5" rx="1.5" ry="1.5"></rect><rect x="71.43" y="65.15" width="6" height="8.5" rx="1.5" ry="1.5"></rect><rect x="80.43" y="65.15" width="6" height="8.5" rx="1.5" ry="1.5"></rect><rect x="56.33" y="65.15" width="6" height="8.5" rx="1.5" ry="1.5"></rect><rect x="21.89" y="54.44" width="6" height="8.5" rx="1.5" ry="1.5"></rect><rect x="12.89" y="54.44" width="6" height="8.5" rx="1.5" ry="1.5"></rect><rect x="21.89" y="65.15" width="6" height="8.5" rx="1.5" ry="1.5"></rect><rect x="12.89" y="65.15" width="6" height="8.5" rx="1.5" ry="1.5"></rect><path d="M26.24,84.23a1.52,1.52,0,0,0-.37,1.65,1.5,1.5,0,0,0,1.4.94H71.92a1.5,1.5,0,0,0,1-2.59L70.54,82H90.22a1.5,1.5,0,0,0,1.5-1.5V42.3a1.5,1.5,0,1,0-3,0v.88L83.1,38V34.35a1.5,1.5,0,1,0-3,0v2.77H74.53V34.35a1.5,1.5,0,1,0-3,0v2.77H66V34.35a1.5,1.5,0,0,0-3,0v2.77H58.12l-2.49-1.91V27a1.5,1.5,0,0,0-.41-1L51.09,21.6V15.55a1.5,1.5,0,1,0-3,0V21.6L44,26a1.5,1.5,0,0,0-.41,1v8.2l-2.49,1.91H36.36V34.35a1.5,1.5,0,0,0-3,0v2.77H27.79V34.35a1.5,1.5,0,0,0-3,0v2.77H19.22V34.35a1.5,1.5,0,0,0-3,0V38L10.6,43.14V42.3a1.5,1.5,0,0,0-3,0V80.45A1.5,1.5,0,0,0,9.1,82H28.65ZM49.59,34.37l14,10.69H35.62ZM65.27,48.06v1.19H33.92V48.06ZM51.83,79h-4.4V73.2c0-1.85.88-3.1,2.2-3.1s2.2,1.25,2.2,3.1ZM49.63,67.1c-3,0-5.2,2.57-5.2,6.1V79H33.92V52.25H65.27V79H54.83V73.2C54.83,69.67,52.64,67.1,49.63,67.1ZM31,83.82,33,82H66.17l2,1.87ZM68.27,79V52.33h6.26a1.5,1.5,0,0,0,1.5-1.5V47.55l2.71-2.75,2.89,2.77v3.26a1.5,1.5,0,0,0,1.5,1.5h5.59V79ZM81,40.12l7.71,7.15v2.06H84.63v-2.4a1.48,1.48,0,0,0-.47-1.08l-4.42-4.24a1.5,1.5,0,0,0-2.1,0l-4.18,4.24a1.48,1.48,0,0,0-.43,1v2.4H68.27V48a1.49,1.49,0,0,0,1.14-1,1.5,1.5,0,0,0-.5-1.68L62,40.12ZM46.56,27.6l3-3.21,3,3.21v5.32l-1.54-1.18V29.07a1.5,1.5,0,1,0-3,0v2.67l-1.53,1.17ZM30.28,45.37A1.48,1.48,0,0,0,30.92,48v1.31H26.29v-2.4a1.53,1.53,0,0,0-.43-1l-4.18-4.24a1.52,1.52,0,0,0-2.11,0l-4.42,4.24a1.51,1.51,0,0,0-.46,1.08v2.4H10.6V47.22l7.7-7.1H37.15Zm-19.68,7h5.59a1.5,1.5,0,0,0,1.5-1.5V47.57l2.89-2.77,2.71,2.75v3.28a1.5,1.5,0,0,0,1.5,1.5h6.13V79H10.6Z"></path></g></svg>