<svg height='100px' width='100px'  fill="#000000" xmlns="http://www.w3.org/2000/svg" xmlns:xlink="http://www.w3.org/1999/xlink" xmlns:serif="http://www.serif.com/" viewBox="0 0 123 123" version="1.1" xml:space="preserve" style="" x="0px" y="0px" fill-rule="evenodd" clip-rule="evenodd" stroke-linejoin="round" stroke-miterlimit="1.41421"><rect x="0" y="0" width="122.88" height="122.88" style="" fill="none"></rect><path d="M78.86,26.978c0.088,0.009 0.27,0.16 0.096,0.322c-0.015,0.012 -0.034,0.015 -0.053,0.008l-0.156,-0.067c-0.061,0.003 -0.135,0.025 -0.165,-0.013c-0.055,-0.079 -0.104,-0.183 -0.04,-0.2c0.107,-0.02 0.216,-0.055 0.318,-0.05Zm-0.228,0.137l0.018,0.031c0.053,-0.003 0.125,-0.001 0.125,-0.001l0.152,0.038l-0.09,-0.101c-0.068,0.011 -0.137,0.022 -0.205,0.033Z" style="" fill-rule="nonzero"></path><path d="M100.021,29.194c0.11,0.017 0.237,0.39 0.186,0.452c-0.083,0.088 -0.215,0.202 -0.215,0.202l-0.226,0.067c-0.023,0.063 -0.038,0.148 -0.095,0.139c-0.291,-0.069 -0.164,-0.291 -0.12,-0.454c0.048,-0.137 0.099,-0.33 0.158,-0.348c0.103,-0.024 0.211,-0.066 0.312,-0.058Zm-0.262,0.15c-0.112,0.284 -0.112,0.285 -0.16,0.587l0.05,0.014c0.017,-0.048 0.024,-0.105 0.064,-0.118l0.239,-0.071l0.162,-0.159l-0.044,-0.193l-0.077,-0.105c-0.078,0.015 -0.156,0.03 -0.234,0.045Z" style="" fill-rule="nonzero"></path><path d="M98.507,29.292c0.018,0.003 0.032,0.014 0.04,0.03l0.117,0.269c0.066,0.053 0.162,0.091 0.19,0.161c0.028,0.095 0.078,0.209 0.051,0.259c-0.123,0.187 -0.297,0.407 -0.379,0.327c-0.045,-0.054 -0.11,-0.109 -0.093,-0.159l0.071,-0.184c-0.13,-0.259 -0.301,-0.62 -0.197,-0.658c0.066,-0.019 0.136,-0.049 0.2,-0.045Zm-0.122,0.129c0.082,0.284 0.085,0.284 0.218,0.549c0.008,0.015 0.007,0.027 0.002,0.04l-0.068,0.179l0.034,0.044l0.118,-0.093l0.119,-0.165l-0.046,-0.178c-0.064,-0.051 -0.149,-0.08 -0.185,-0.155l-0.105,-0.242c-0.029,0.007 -0.058,0.014 -0.087,0.021Z" style="" fill-rule="nonzero"></path><path d="M43.345,17.881l0.212,0.245c0.226,0.149 0.23,0.148 0.494,0.21l0.333,0.151l0.18,0.243c0.093,0.105 0.286,0.337 0.409,0.415c0.065,0.042 0.146,0.053 0.219,0.08l0.159,-0.169l0.079,0.027l0.245,0.241c0.011,0.028 0.011,0.028 0.012,0.058l-0.019,0.191c0.138,0.268 0.14,0.268 0.312,0.516l0.154,0.319l0.104,0.316l0.139,0.283l0.172,0.261l0.128,0.207c0,0 0.069,0.014 0.159,0.165c0.095,0.153 0.289,0.214 0.307,0.307l-0.001,0.24c-0.026,0.061 -0.054,0.067 -0.079,0.077l-0.208,0.034l-0.239,-0.039l-0.095,-0.022l-0.104,0.083l0.1,0.276l-0.104,0.243l-0.161,0.021l0.012,0.23c0.316,0.865 0.83,1.765 1.286,2.088c0.137,0.097 0.244,0.109 0.402,0.15l0.211,-0.047l0.339,-0.046l0.185,0.105c0,0 0.466,-0.012 0.491,-0.005c0.009,0.003 0.017,0.007 0.026,0.01l0.158,0.085l0.272,0.078l0.072,0.072l0.129,-0.097l0.154,-0.058l0.296,-0.028c0,0 0.07,0.021 0.071,0.115c0,0 0.02,-0.156 0.143,-0.155l0.202,0.039l0.212,-0.103l0.296,-0.083l0.189,0.011l0.312,-0.011l0.301,0.007l0.335,-0.028c0.264,-0.049 0.264,-0.05 0.52,-0.128l0.271,-0.074l0.295,-0.049l0.313,-0.053c0.283,0.022 0.283,0.022 0.566,0.048l0.284,-0.063l0.272,-0.059l0.299,0.017l0.306,-0.04l0.282,-0.074l0.282,-0.016l0.311,-0.031c0.064,-0.018 0.553,-0.156 0.593,-0.168c0.262,-0.082 0.519,-0.181 0.768,-0.298l0.06,-0.007l0.285,0.051l0.282,0.049l0.089,-0.003l0.265,-0.006l0.261,-0.042l0.339,-0.119l0.251,0.088c0.292,-0.015 0.296,-0.003 0.571,-0.101l0.034,-0.006c0.315,0.001 0.315,0.002 0.63,0.015l0.351,-0.028c0.356,-0.017 0.356,-0.017 0.713,-0.018l0.366,-0.035l0.353,0.005c0.222,0.018 0.443,0.036 0.665,0.055l0.299,0.129l0.258,-0.029l0.235,-0.2l0.327,-0.103l0.393,0.016l0.263,0.174c0.246,0.159 0.248,0.163 0.535,0.225l0.315,0.09l0.243,0.127l0.226,-0.033l0.048,0.104l-0.084,0.294l-0.254,0.159l-0.169,0.068l0.03,0.196c0.249,0.334 0.552,0.564 0.883,0.761l0.011,0.008c0.245,0.194 0.245,0.194 0.476,0.405l0.246,0.189c0.251,0.174 0.259,0.188 0.528,0.338c0.672,0.374 1.415,0.652 2.162,0.904c0.331,0.112 0.331,0.113 0.665,0.214c0.091,0.027 0.556,0.164 0.657,0.191c0.106,0.028 0.213,0.052 0.32,0.078l0.35,0.086c0.345,0.071 0.345,0.071 0.693,0.122l0.382,0.062l0.399,0.058c0.326,0.092 0.326,0.092 0.647,0.201l0.337,0.097c0.137,0.027 0.258,0.014 0.402,0.076l0.044,0.02l0.286,-0.107l0.339,-0.094l0.286,-0.136c0.028,-0.009 0.028,-0.009 0.058,-0.009l0.296,0.044l0.208,-0.111c0.035,0.001 0.036,0.001 0.069,0.014l0.115,0.073l0.154,0.097l0.378,-0.026c0.221,-0.054 0.409,-0.075 0.599,-0.208c0.069,-0.048 0.118,-0.121 0.177,-0.181l0.047,-0.287l0.079,-0.275c0.012,-0.024 0.021,-0.052 0.084,-0.072l0.282,-0.035l0.187,-0.109l0.095,-0.164c0.139,-0.174 0.071,-0.162 0.196,-0.158c0,0 0.024,-0.021 0.129,0.071l0.219,-0.072l0.075,0.103l0.214,-0.063l0.131,0.056l0.2,-0.024l0.292,-0.022l0.157,-0.126l0.164,-0.16l0.244,-0.013l0.129,-0.085l-0.185,0.021l-0.181,-0.025c-0.12,-0.026 -0.366,-0.039 -0.246,-0.222l0.17,-0.055l0.193,-0.019l0.205,-0.082l0.068,-0.075l0.028,-0.12c0,0 -0.09,-0.179 0.038,-0.247l0.165,-0.052c0.099,-0.013 0.177,0.037 0.217,0.094l0.055,-0.149l0.194,-0.075l0.197,-0.008l0.292,-0.054l0.287,-0.041l0.177,-0.171l0.028,-0.253c0.013,-0.044 0.042,-0.076 0.093,-0.088l0.318,-0.019l0.327,0.032l0.201,0.082l0.22,0.163c0.159,0.031 0.32,0.06 0.485,0.046c0.288,-0.024 0.288,-0.027 0.569,-0.093l0.211,0.023l0.311,-0.023l0.29,0.075c0.181,0.018 0.381,0.05 0.564,0.016c0.259,-0.048 0.576,-0.22 0.576,-0.22l0.311,-0.012c-0.2,-0.051 -0.2,-0.05 -0.401,-0.099l-0.254,-0.224l-0.294,-0.098l-0.249,-0.12l-0.287,-0.022l-0.337,-0.008c-0.239,-0.111 -0.239,-0.109 -0.474,-0.229l-0.22,0.029l-0.272,-0.01c-0.142,0.005 -0.315,0.076 -0.391,-0.039c0,0 -0.126,0.07 -0.126,0.07l-0.268,0.059l-0.186,-0.025l-0.159,-0.042l-0.249,0.082l-0.241,0.091l-0.107,0.223l-0.253,0.182l-0.069,-0.038l-0.191,-0.261l-0.043,-0.27l-0.17,-0.24l-0.138,-0.338l0.03,-0.072l0.225,-0.207l0.194,-0.067c0.029,0.003 0.029,0.003 0.057,0.014l0.208,0.123l0.335,0.006c0,0 0.065,0.028 0.057,0.144c0,0 0.039,-0.069 0.15,-0.041l0.221,0.095l0.206,-0.11l0.292,-0.063l0.159,-0.095c0.082,-0.031 0.137,0.034 0.177,0.085l0.187,0.045l0.292,-0.012l0.346,0.003l0.303,0.076l0.294,-0.078l0.329,-0.064c0.135,-0.208 0.132,-0.212 0.2,-0.45l0.098,-0.073l0.226,0.106l0.205,0.207c0.278,0.102 0.281,0.099 0.575,0.131l0.344,0.085l0.344,0.046l0.299,0.057l0.273,-0.028l0.309,0.019l0.232,-0.163l0.143,-0.012l0.227,-0.085l0.182,0.012c0.029,-0.014 0.062,-0.023 0.089,-0.042c0.062,-0.044 0.279,-0.238 0.279,-0.238c0.033,-0.008 0.034,-0.008 0.068,-0.003l0.246,0.081l0.115,0.072l0.171,-0.074c0.03,0 0.03,0 0.058,0.009l0.214,0.106l0.229,-0.08l0.222,0.014l0.199,-0.133l0.279,-0.126l0.232,-0.154c0,0 0.076,-0.047 0.161,0.018l0.132,0.141l0.241,-0.039l0.256,-0.018l0.284,-0.005l0.252,-0.052c0.023,-0.002 0.023,-0.002 0.045,0.001l0.207,0.052l0.273,0.085l0.292,0.041c0.273,-0.047 0.273,-0.048 0.543,-0.109l0.254,-0.056l0.243,-0.117l0.291,-0.046l0.239,-0.137l0.314,-0.136l0.21,0.163l0.258,0.018l0.268,0.012l0.304,0.015c0.347,0.046 0.694,0.087 1.037,0.162l0.26,0.001l0.254,0.037l0.324,0.019l0.252,0.053l0.297,0.032l0.197,0.098c0.188,0.047 0.19,0.04 0.382,0.016l0.337,-0.023l0.266,0.045l0.243,0.04l0.171,-0.16c0.262,-0.008 0.262,-0.009 0.524,-0.005l0.249,-0.011l0.215,-0.084c0.056,0.007 0.055,0.011 0.109,0.028c0,0 0.084,-0.165 0.211,-0.115l0.177,0.109l0.224,-0.066l0.198,0.012l0.186,-0.095l0.246,-0.045l0.192,-0.032c0.158,0.061 0,0.27 0,0.27l-0.107,0.129l-0.092,0.258c-0.05,0.042 -0.138,0.017 -0.138,0.017l-0.181,0.223c-0.021,0.019 -0.021,0.019 -0.046,0.031l-0.2,0.065l-0.303,0.073l-0.229,0.002l-0.241,0.027l-0.21,-0.022l-0.172,-0.004l-0.183,0.071l-0.246,0.003c-0.234,-0.006 -0.233,-0.008 -0.466,-0.03l-0.312,0.012l-0.265,0.009l-0.181,0.157c-0.13,0.155 -0.14,0.148 -0.243,0.322l-0.157,0.181l-0.3,0.195l-0.277,-0.03l-0.254,-0.089l-0.259,0.104l-0.274,-0.019l-0.248,-0.082l-0.278,0.021l-0.297,-0.037l-0.291,-0.114l-0.311,-0.054l-0.296,-0.038l-0.267,0.088l-0.336,0.058c-0.124,0.014 -0.298,-0.016 -0.325,-0.008l-0.303,0.046l-0.226,0.127l-0.046,0.153l0.235,-0.002c0.027,0.003 0.027,0.003 0.052,0.013l0.277,0.161c0.02,0.015 0.02,0.015 0.036,0.035l0.159,0.265c0.104,0.129 0.285,0.357 0.396,0.479c0.089,0.097 0.224,0.229 0.224,0.229l0.211,0.279c0.005,0.031 0.005,0.031 0.001,0.062l-0.095,0.319c-0.026,0.053 -0.165,0.097 -0.165,0.097l0.098,0.192l0.041,0.248l0.337,-0.016l0.37,0.077l0.322,0.135l0.296,0.201l0.196,0.283l0.12,0.304c0.047,0.135 0.098,0.335 0.098,0.335l0.044,0.289l0.164,0.157c0.017,0.021 0.017,0.021 0.027,0.045l0.092,0.325l0.145,0.321c-0.004,0.037 -0.005,0.037 -0.022,0.07l-0.114,0.142l0.093,0.047l0.201,0.231l0.161,0.105l0.075,-0.178c0.018,-0.029 0.019,-0.029 0.046,-0.05l0.135,-0.07l0.175,-0.222c0.036,-0.013 0.036,-0.013 0.074,-0.012l0.189,0.043c0.335,-0.27 0.49,-0.42 0.646,-0.57l0.059,-0.028l0.345,-0.028l0.336,0.093c0.226,0.067 0.449,0.144 0.668,0.232l0.315,0.171c0.161,0.133 0.322,0.267 0.483,0.401l0.248,0.179l0.279,0.205l0.195,0.248l0.174,0.217l0.191,0.109l0.144,-0.034l0.153,-0.176c0.031,-0.013 0.031,-0.013 0.063,-0.014l0.378,0.043l0.325,0.096l0.32,0.11l0.332,0.079c0.042,0.005 0.114,-0.005 0.114,-0.005l-0.035,-0.172c0,-0.061 0.045,-0.106 0.104,-0.123l-0.131,-0.132c0,0 0.075,-0.059 -0.044,-0.089c-0.139,-0.037 -0.178,-0.102 -0.178,-0.102l-0.077,-0.244l0.1,-0.061l0.398,0.042l0.299,0.145l0.302,0.156l0.267,0.181c0,0 0.02,0.075 0.101,-0.026c0,0 0.056,-0.041 0.124,-0.01l0.221,0.147l0.338,0.077l0.187,0.162l0.182,0.221c0.213,0.213 0.213,0.212 0.438,0.411l0.227,0.217c0.077,0.069 0.152,0.14 0.231,0.207c0.041,0.034 0.505,0.4 0.505,0.4l0.205,0.225l0.128,0.093l0.33,0.088c0.299,0.126 0.299,0.125 0.595,0.258l0.337,0.035l0.318,0.124l0.321,0.15l0.236,0.188l0.222,0.094l0.337,0.109l0.26,0.19c0.233,0.214 0.233,0.214 0.455,0.44l0.2,0.285l0.161,0.336l0.002,0.387l-0.216,0.212l-0.091,0.115c-0.018,0.017 -0.018,0.017 -0.039,0.029l-0.266,0.114l-0.269,0.193l-0.294,0.119l-0.213,0.149l-0.05,0.154c0.273,-0.061 0.272,-0.068 0.531,-0.174c0,0 0.028,-0.021 0.094,0.01l0.215,0.145c0.017,0.017 0.04,0.033 0.043,0.095l-0.05,0.372l-0.062,0.171l0.073,0.004l0.297,-0.129l0.097,0.072l-0.04,0.374l0.108,-0.02c0.027,-0.002 0.027,-0.002 0.054,0.005l0.227,0.123l-0.001,0.225c-0.004,0.026 -0.004,0.027 -0.016,0.05l-0.172,0.265l-0.176,0.18l-0.006,0.228l-0.133,0.35l-0.137,0.117l0.092,0.151l0.083,0.118l0.275,-0.017l0.261,-0.139c0.058,-0.001 0.073,0.017 0.091,0.03l0.099,0.16l-0.045,0.072l-0.143,0.091l0.261,-0.043l0.184,0.268c0.106,0.178 0.109,0.176 0.208,0.358l0.247,0.071l0.002,0.112l-0.169,0.261l-0.107,0.224l0.13,0.181c0.012,0.021 0.012,0.021 0.018,0.044l0.04,0.266c-0.001,0.025 0.002,0.054 -0.045,0.099l-0.224,0.145l-0.108,0.147l0.171,0.122l0.266,0.165l0.232,0.187l0.272,0.094l0.333,0.026l0.351,0.044c0.249,0.026 0.249,0.032 0.499,0.029l0.126,-0.21c0.016,-0.021 0.016,-0.021 0.036,-0.036l0.168,-0.096l-0.039,-0.163l0.076,-0.255c0.011,-0.021 0.019,-0.046 0.077,-0.069l0.336,-0.063l0.334,0.013l0.35,0.021l0.354,-0.005l0.356,0.014l0.289,-0.016l0.236,0.062l0.268,0.131c0.088,0.034 0.175,0.072 0.265,0.103c0.241,0.082 0.751,0.16 0.844,0.351l0.14,0.125c0.008,0.053 0.005,0.053 0.005,0.107l0.087,0.162l0.278,0.334l0.279,0.346c0.28,0.344 0.561,0.687 0.842,1.03l0.206,0.435c-0.002,0.034 -0.002,0.034 -0.015,0.065l-0.242,0.359c0,0 -0.421,0.078 -0.878,0.15l-0.199,0.241l-0.257,0.242l-0.019,0.308l-0.101,0.463l-0.244,0.323c-0.02,0.02 -0.02,0.02 -0.044,0.034l-0.358,0.136c-0.023,0.006 -0.023,0.006 -0.047,0.006l-0.304,-0.034l-0.219,0.265l-0.361,0.235l-0.341,0.111l-0.212,0.213l-0.215,0.266c-0.093,0.081 -0.182,0.165 -0.279,0.241c-0.274,0.215 -0.369,0.263 -0.659,0.443l-0.373,0.022l-0.338,-0.097c-0.332,0.051 -0.333,0.05 -0.661,0.122l-0.151,0.279l-0.203,0.312l-0.051,0.373l-0.188,0.318l-0.085,0.356l-0.185,0.14l-0.123,0.297l0.061,0.398l-0.072,0.343c-0.012,0.356 -0.015,0.358 0.049,0.709l0.229,0.329l0.143,0.405c0.01,0.052 -0.002,0.068 -0.009,0.086l-0.208,0.33l-0.169,0.286l0.158,0.286l0.324,0.262l0.181,0.272l0.155,-0.082l0.357,-0.276l0.419,-0.094c0.038,-0.001 0.039,-0.001 0.074,0.013l0.323,0.197l0.395,0.168c0.021,0.029 0.022,0.029 0.031,0.064l0.036,0.42l0.11,0.362l0.001,0.448l-0.168,0.278l-0.087,0.374l-0.175,0.18c-0.03,0.021 -0.03,0.021 -0.066,0.03l-0.368,0.022c-0.328,0.221 -0.326,0.225 -0.615,0.495l-0.368,0.222l-0.41,0.098l-0.371,0.166c-0.307,0.256 -0.31,0.258 -0.514,0.602c0,0 -0.011,0.043 -0.099,0.048l-0.424,-0.061l-0.38,-0.185l-0.387,-0.08l-0.266,-0.116l-0.256,-0.109l-0.022,0.238l-0.09,0.319l-0.283,0.277c-0.043,0.031 -0.062,0.027 -0.081,0.028l-0.402,-0.045l-0.4,0.073l-0.337,-0.04l-0.257,0.038l-0.299,0.052l-0.098,0.215l-0.22,0.216l-0.081,0.229l-0.168,0.376l-0.104,0.102l0.129,0.183c0.028,0.162 0.044,0.056 0.122,0.115l0.184,0.189c0.049,0.071 -0.016,0.259 -0.016,0.259l0.193,0.106c0.019,0.032 0.019,0.033 0.025,0.07l-0.013,0.296l-0.041,0.178l-0.073,0.186l0.036,0.201l-0.095,0.258l0.053,0.161l0.183,0.202l0.234,0.144c0.011,0.022 0.028,0.044 0.011,0.106l-0.12,0.242c0.005,0.244 0.003,0.244 0.014,0.488c0,0 0.036,0.063 -0.086,0.104l-0.265,0.036l-0.121,0.152l-0.034,0.243c-0.01,0.031 -0.01,0.031 -0.029,0.057l-0.225,0.212l-0.252,-0.011l-0.201,0.04l-0.157,0.256l-0.201,0.21l-0.193,0.317l-0.202,0.334l-0.248,0.154c0.193,0.348 0.467,0.63 0.725,0.925l0.292,0.334c0.099,0.109 0.196,0.219 0.296,0.328c0.016,0.017 0.591,0.632 0.606,0.648l0.302,0.328c0.193,0.225 0.386,0.45 0.579,0.675l0.289,0.336l0.291,0.333c0.396,0.439 0.793,0.878 1.189,1.317l0.299,0.33l0.289,0.341l0.283,0.355l0.223,0.343l0.363,0.125c0.026,0.013 0.026,0.013 0.046,0.033l0.277,0.358l0.183,0.425l0.082,0.409l0.216,0.374l0.201,0.443l-0.186,0.466l-0.304,0.303l-0.233,0.382l-0.304,0.307l-0.278,0.378l-0.393,0.203l-0.405,0.167l-0.415,0.195l-0.354,0.036l-0.185,0.295l0.01,0.413l-0.155,0.413l-0.254,0.403l-0.463,0.1l-0.419,0.001l-0.407,0.182l-0.395,0.072c-0.038,-0.001 -0.039,-0.001 -0.074,-0.015l-0.355,-0.237c-0.158,-0.043 -0.649,-0.186 -0.817,-0.193c-0.102,-0.004 -0.2,0.036 -0.301,0.054l0.057,0.224l0.006,0.349c-0.003,0.022 -0.002,0.046 -0.046,0.086l-0.367,0.232c-0.027,0.012 -0.027,0.012 -0.055,0.016l-0.446,-0.008l-0.402,-0.042l-0.289,0.25l-0.236,0.283l0.109,0.398l-0.012,0.383c-0.014,0.063 -0.039,0.075 -0.06,0.089l-0.422,0.182l-0.462,0.088l-0.418,-0.088c-0.253,0.02 -0.526,0.012 -0.762,0.131c-0.126,0.064 -0.23,0.165 -0.345,0.248l-0.398,0.242l-0.383,0.143l-0.29,0.346l-0.366,0.162c-0.047,0.011 -0.09,0.001 -0.126,-0.04l-0.166,-0.274l-0.277,-0.074l-0.354,0.102l-0.323,0.267l-0.386,0.247c-0.031,0.004 -0.031,0.004 -0.062,-0.003l-0.421,-0.169l-0.367,-0.214c-0.135,-0.022 -0.269,-0.056 -0.405,-0.067c-0.212,-0.019 -0.584,-0.012 -0.798,0.046c-0.137,0.037 -0.264,0.104 -0.396,0.157l-0.415,0.153l-0.363,0.148l-0.17,0.401l-0.072,0.03l-0.453,-0.011l-0.366,-0.145l-0.407,0.156l-0.41,0.001l-0.206,0.111c-0.041,0.297 -0.04,0.297 -0.055,0.596l-0.025,0.061l-0.2,0.227l0.106,0.345l0.032,0.247l0.235,0.284c0.016,0.028 0.016,0.028 0.023,0.059l0.02,0.367l0.037,0.467l-0.119,0.414c-0.038,0.034 -0.082,0.046 -0.136,0.023l-0.368,-0.251l-0.22,-0.234c-0.311,0.151 -0.301,0.17 -0.563,0.395l-0.283,0.225l-0.261,0.373c-0.028,0.015 -0.028,0.015 -0.06,0.021l-0.436,-0.01l-0.322,-0.332l-0.341,-0.295l-0.013,-0.3l-0.032,-0.341l-0.242,-0.282l-0.37,-0.121l-0.455,-0.106l-0.338,-0.255l-0.04,-0.46c0.001,-0.023 0.001,-0.023 0.007,-0.045l0.141,-0.34l-0.134,-0.114l-0.372,-0.02c-0.028,-0.006 -0.028,-0.006 -0.053,-0.019l-0.224,-0.162l-0.258,0.134l-0.425,-0.148l-0.315,0.045l-0.03,0.17l0.23,0.212c0.007,0.021 0.019,0.042 -0.001,0.098l-0.188,0.331c-0.024,0.028 -0.024,0.028 -0.057,0.046l-0.338,0.103l-0.247,0.027l-0.174,0.087c-0.034,0 -0.034,0 -0.066,-0.012l-0.324,-0.194l-0.29,-0.121c-0.022,-0.028 -0.022,-0.028 -0.032,-0.063l-0.032,-0.284c-0.253,-0.319 -0.253,-0.319 -0.514,-0.631l-0.199,-0.097l-0.031,0.238l0.109,0.305l0.008,0.306l-0.071,0.036l-0.373,0.018l-0.253,-0.223l-0.379,-0.013l-0.402,-0.07l-0.34,0.053l-0.369,0.082l-0.201,0.283c-0.018,0.019 -0.018,0.019 -0.039,0.032l-0.268,0.09l-0.28,-0.284l-0.282,-0.214l-0.275,-0.303l-0.231,-0.404l-0.107,-0.373l-0.185,-0.353l-0.312,-0.201l-0.399,0.048l-0.418,-0.121l-0.312,-0.116l-0.373,0.12c-0.023,0.004 -0.023,0.004 -0.046,0.004l-0.427,-0.068c-0.416,0.028 -0.418,0.031 -0.809,0.172l-0.438,0.016l-0.39,0.083c-0.035,0.001 -0.036,0.001 -0.069,-0.01l-0.385,-0.214c-0.021,-0.014 -0.021,-0.014 -0.037,-0.034l-0.234,-0.374l-0.182,-0.379c-0.101,-0.089 -0.19,-0.194 -0.303,-0.268c-0.199,-0.13 -0.502,-0.221 -0.726,-0.299l-0.205,0.231l0.029,0.369l0.198,0.32l0.383,0.239l0.285,0.351c0.198,0.368 0.199,0.368 0.391,0.74l0.311,0.276l0.286,0.323l0.297,0.326l0.175,0.375l0.319,0.299l0.236,0.326l0.396,0.079c0.399,0.186 0.399,0.186 0.795,0.378l0.394,0.275c0.272,0.319 0.272,0.319 0.533,0.646l0.294,0.326l0.299,0.402l0.028,0.434c-0.001,0.023 -0.001,0.023 -0.007,0.044l-0.143,0.33l-0.303,0.292l-0.129,0.323l0.13,0.388l-0.03,0.417l0.162,0.41l0.079,0.447l-0.007,0.48l-0.167,0.341c0.224,0.315 0.231,0.311 0.511,0.577l0.298,0.366l0.185,0.362l0.327,0.245c0.024,0.025 0.024,0.025 0.037,0.056l0.096,0.399l0.1,0.389l0.327,0.225c0.027,0.028 0.027,0.028 0.041,0.064l0.074,0.39l0.09,0.373l-0.047,0.249l0.108,0.387l-0.122,0.389l-0.207,0.363l-0.18,0.282l-0.082,0.34l0.178,0.205l0.314,0.036l0.364,0.178c0.278,0.095 0.557,0.189 0.836,0.282l0.406,0.166c0.425,0.102 0.864,0.158 1.261,0.078c0.142,-0.029 0.278,-0.083 0.417,-0.124l0.43,-0.121c0.436,-0.101 0.436,-0.101 0.878,-0.174l0.457,0.008l0.076,0.037l0.248,0.326l-0.017,0.083l-0.227,0.305l0.12,0.373l0.1,0.43l0.109,0.442l-0.077,0.263l-0.014,0.425c-0.016,0.028 -0.016,0.028 -0.04,0.05l-0.334,0.214c-0.034,0.014 -0.034,0.014 -0.072,0.014l-0.332,-0.062l-0.375,0.143l-0.371,-0.119c-0.334,0.145 -0.336,0.15 -0.591,0.41l-0.275,0.216l-0.129,0.339l-0.111,-0.01l-0.239,-0.191c-0.127,0.082 -0.232,0.268 -0.232,0.268l-0.287,0.149l-0.339,0.075l-0.295,0.215c-0.034,0.005 -0.034,0.005 -0.068,-0.003l-0.35,-0.143l-0.363,-0.019l-0.377,-0.047c-0.153,0.103 -0.471,0.303 -0.59,0.446c-0.151,0.18 -0.172,0.434 -0.203,0.672l0.095,0.307c0.004,0.03 0.004,0.03 -0.001,0.059l-0.123,0.392c0.025,0.374 0.026,0.374 0.062,0.747l-0.01,0.055l-0.194,0.381l-0.253,0.427l-0.328,0.135c-0.299,0.23 -0.298,0.237 -0.499,0.556l-0.064,0.044l-0.381,0.081c-0.272,0.241 -0.272,0.242 -0.511,0.515l-0.094,0.376l-0.151,0.322l-0.119,0.011l-0.351,-0.232l-0.156,-0.33l0.174,-0.422l0.18,-0.265l-0.136,-0.107c-0.289,0.167 -0.284,0.175 -0.541,0.388l-0.362,0.177l-0.344,0.095l-0.23,0.258c-0.191,0.321 -0.193,0.32 -0.366,0.65l-0.038,0.04l-0.358,0.208l-0.349,0.252l-0.258,0.127l-0.21,0.313c-0.031,0.033 -0.07,0.048 -0.118,0.038l-0.375,-0.148l-0.168,-0.381l-0.173,-0.057l-0.291,0.222l-0.17,0.335c-0.031,0.04 -0.074,0.059 -0.131,0.045l-0.17,-0.078l-0.316,0.22l-0.152,0.009l-0.067,0.363l-0.28,0.343c-0.021,0.019 -0.021,0.019 -0.046,0.031l-0.381,0.126c-0.044,0.006 -0.085,-0.006 -0.117,-0.045l-0.129,-0.222l-0.263,-0.069l-0.266,0.203c-0.089,0.289 -0.141,0.379 -0.122,0.709c0.008,0.146 0.067,0.302 0.067,0.302l-0.126,0.406l-0.185,0.391c-0.027,0.039 -0.065,0.059 -0.118,0.054l-0.202,-0.059l-0.465,0.014l-0.177,-0.101l-0.315,0.065l-0.188,0.322l-0.233,0.254l-0.185,0.303l0,0.295l-0.069,0.37l-0.169,0.249l-0.261,0.35l-0.412,0.092l-0.409,0.164l-0.301,-0.143c-0.024,-0.017 -0.024,-0.017 -0.042,-0.04l-0.215,-0.402l0.141,-0.469l0.263,-0.244l0.168,-0.347l0.177,-0.187l-0.006,-0.267c-0.033,-0.094 -0.057,-0.191 -0.098,-0.282c-0.076,-0.168 -0.235,-0.443 -0.371,-0.578c-0.056,-0.056 -0.131,-0.089 -0.197,-0.133l-0.303,-0.005c-0.259,0.044 -0.254,0.063 -0.497,0.164l-0.067,0.004l-0.302,-0.09c-0.306,0.17 -0.307,0.17 -0.583,0.387l-0.027,0.015c-0.349,0.129 -0.348,0.132 -0.705,0.236l-0.179,0.307c-0.025,0.029 -0.025,0.029 -0.059,0.046l-0.28,0.079l-0.153,0.367l-0.246,0.231c-0.027,0.019 -0.027,0.019 -0.059,0.027l-0.411,0.04l-0.332,0.008l-0.115,0.319c-0.028,0.05 -0.05,0.055 -0.07,0.063l-0.372,0.093c-0.023,0.003 -0.023,0.003 -0.046,0.001l-0.384,-0.088l-0.328,-0.171c-0.414,0.09 -0.413,0.091 -0.825,0.191l-0.072,-0.01l-0.376,-0.207c-0.557,-0.486 -1.115,-0.972 -1.673,-1.457l-0.335,-0.292l-0.333,-0.293c-0.552,-0.493 -1.103,-0.987 -1.654,-1.48l-0.322,-0.289l-0.377,-0.231l-0.182,-0.395c-0.009,-0.037 -0.009,-0.037 -0.004,-0.075l0.132,-0.377c-0.1,-0.39 -0.108,-0.392 -0.348,-0.717l-0.018,-0.044l-0.062,-0.413c-0.079,-0.319 -0.117,-0.525 -0.244,-0.829c-0.082,-0.195 -0.204,-0.432 -0.204,-0.432l-0.002,-0.419l-0.174,-0.395l-0.135,-0.418l-0.17,-0.42l-0.103,-0.429c-0.085,-0.292 -0.133,-0.537 -0.297,-0.799c-0.104,-0.166 -0.29,-0.371 -0.29,-0.371l-0.101,-0.444l0.143,-0.385l-0.059,-0.349l-0.297,-0.107c-0.028,-0.016 -0.028,-0.016 -0.05,-0.04l-0.246,-0.386l-0.151,-0.417l-0.137,-0.46l0.064,-0.429c0.007,-0.025 0.007,-0.025 0.02,-0.046l0.225,-0.296l-0.128,-0.332l-0.295,-0.261l-0.437,-0.169l-0.292,-0.34l-0.229,-0.342l-0.39,-0.216l-0.246,-0.304l-0.333,-0.246l-0.383,-0.309l-0.103,-0.331l-0.383,-0.06l-0.254,-0.11c-0.022,-0.03 -0.023,-0.031 -0.031,-0.068l-0.017,-0.403l-0.141,-0.347l-0.255,-0.239l-0.402,0.075l-0.463,-0.113l-0.275,-0.177l-0.364,0.019l-0.282,0.26c-0.031,0.009 -0.031,0.009 -0.064,0.007l-0.213,-0.048c-0.257,-0.094 -0.06,-0.558 -0.043,-0.586c0.004,-0.006 0.008,-0.012 0.012,-0.018l0.282,-0.337l0.331,-0.293l0.333,-0.292l0.328,-0.297l0.325,-0.291l0.328,-0.299l0.333,-0.293l0.327,-0.298c0.22,-0.198 0.44,-0.395 0.659,-0.593l0.356,-0.313l0.356,-0.161l0.194,-0.266l0.286,-0.302l0.236,-0.356l0.2,-0.338l-0.095,-0.344l-0.354,-0.202l-0.333,-0.32c-0.176,-0.381 -0.331,-0.781 -0.483,-1.238l-0.198,-0.359l-0.155,-0.368l-0.31,-0.128l-0.411,0.051c-0.036,-0.002 -0.036,-0.002 -0.069,-0.017l-0.344,-0.236c-0.02,-0.019 -0.02,-0.02 -0.035,-0.044l-0.178,-0.43l-0.06,-0.414l-0.222,-0.376l-0.158,-0.427l-0.085,-0.43l-0.128,-0.411c-0.134,-0.399 -0.133,-0.4 -0.315,-0.78l-0.312,-0.276c-0.015,-0.018 -0.015,-0.018 -0.026,-0.038l-0.169,-0.443l-0.025,-0.472l0.128,-0.411c0.011,-0.13 0.044,-0.26 0.031,-0.389c-0.012,-0.132 -0.066,-0.257 -0.105,-0.383c-0.092,-0.296 -0.156,-0.439 -0.271,-0.727l-0.365,-0.256l-0.014,-0.077l0.094,-0.4c0.098,-0.42 0.099,-0.422 0.109,-0.854l0.161,-0.438l0.085,-0.419c0.025,-0.426 0.002,-0.845 -0.054,-1.291l0.115,-0.461l0.103,-0.421c0.054,-0.29 0.127,-0.53 0.077,-0.829c-0.029,-0.178 -0.138,-0.42 -0.138,-0.42l-0.072,-0.424l-0.158,-0.415l-0.109,-0.425c-0.002,-0.036 -0.002,-0.036 0.008,-0.07l0.208,-0.404l0.275,-0.383l0.369,-0.266l0.386,-0.21c0.118,-0.075 0.25,-0.132 0.355,-0.224c0.156,-0.138 0.338,-0.434 0.454,-0.61l-0.103,-0.337l-0.087,-0.433l-0.061,-0.469l0.074,-0.455l0.162,-0.404l0.143,-0.444l0.275,-0.374l0.326,-0.293c0.332,-0.287 0.332,-0.287 0.671,-0.565l0.258,-0.307l0.018,-0.324l-0.306,-0.283l-0.183,-0.409l-0.043,-0.462l0.088,-0.299l-0.307,-0.209l-0.346,-0.249c-0.23,-0.074 -0.569,-0.194 -0.809,-0.234c-0.143,-0.024 -0.288,-0.024 -0.432,-0.035l-0.442,-0.039l-0.432,-0.075l-0.389,-0.009c-0.33,0.262 -0.329,0.263 -0.639,0.547l-0.45,0.226l-0.46,0.037c-0.432,-0.055 -0.432,-0.055 -0.86,-0.131l-0.408,0.034c-0.415,0.127 -0.415,0.127 -0.822,0.278l-0.452,0.148l-0.468,0.002l-0.42,-0.121l-0.41,-0.061l-0.401,0.111l-0.437,0.151l-0.389,0.008l-0.341,0.214c-0.029,0.012 -0.03,0.012 -0.062,0.015l-0.471,-0.047l-0.386,-0.181l-0.432,-0.06l-0.398,-0.117l-0.4,0.064l-0.469,-0.035l-0.404,-0.143c-0.266,-0.051 -0.532,-0.102 -0.798,-0.152l-0.347,0.176l-0.292,0.308c-0.109,0.104 -0.229,0.195 -0.343,0.293l-0.366,0.301l-0.478,-0.028c-0.029,-0.007 -0.029,-0.007 -0.054,-0.021l-0.338,-0.266l-0.243,-0.241l-0.337,0.153l-0.486,0.116l-0.333,-0.148c-0.022,-0.014 -0.022,-0.014 -0.04,-0.033l-0.258,-0.361l-0.262,-0.358l-0.26,-0.36l-0.257,-0.362l-0.258,-0.362l-0.255,-0.363l-0.258,-0.36l-0.259,-0.36l-0.253,-0.364c-0.171,-0.241 -0.343,-0.482 -0.514,-0.722l-0.254,-0.364l-0.259,-0.359l-0.259,-0.361l-0.255,-0.363l-0.257,-0.361c-0.243,-0.339 -0.51,-0.699 -0.8,-1.056l-0.256,-0.361l-0.225,-0.321l-0.281,0.002l-0.397,0.073l-0.424,0.062c-0.39,0.156 -0.39,0.156 -0.778,0.317l-0.056,0.006l-0.417,-0.074c-0.027,-0.009 -0.027,-0.01 -0.051,-0.026l-0.275,-0.259l-0.416,-0.078l-0.338,-0.158l-0.374,-0.081c-0.029,-0.011 -0.029,-0.011 -0.053,-0.03l-0.278,-0.304l-0.238,-0.216l-0.37,0.085c-0.025,0.002 -0.025,0.002 -0.051,-0.002l-0.409,-0.122c-0.308,-0.062 -0.479,-0.121 -0.801,-0.086c-0.134,0.015 -0.261,0.064 -0.392,0.096l-0.411,0.07l-0.284,0.092l-0.225,0.267l-0.295,0.243c-0.022,0.013 -0.022,0.013 -0.046,0.021l-0.303,0.057l-0.429,0.116l-0.481,-0.038l-0.355,-0.184l-0.19,-0.204l-0.391,0.073l-0.46,0.015l-0.36,-0.075l-0.433,0.117l-0.465,-0.041l-0.36,-0.125l-0.337,0.174c-0.032,0.01 -0.032,0.01 -0.066,0.009l-0.263,-0.053l-0.398,-0.086l-0.41,0.055c-0.038,-0.002 -0.038,-0.002 -0.072,-0.018l-0.216,-0.156l-0.334,-0.05l-0.147,0.081c-0.027,0.01 -0.027,0.01 -0.056,0.012l-0.452,-0.04l-0.252,-0.093c-0.168,-0.043 -0.169,-0.04 -0.342,-0.034l-0.193,0.304l-0.47,0.099l-0.434,-0.014l-0.448,0.013l-0.479,-0.041l-0.304,-0.385l-0.227,-0.381l-0.232,-0.376l-0.236,-0.377l-0.235,-0.396l-0.157,-0.395c-0.006,-0.025 -0.006,-0.025 -0.006,-0.05l0.051,-0.393c-0.162,-0.32 -0.161,-0.325 -0.416,-0.576l-0.383,0.107l-0.409,-0.056l-0.348,-0.059l-0.419,-0.04l-0.408,-0.117c-0.022,-0.011 -0.048,-0.019 -0.071,-0.078l-0.075,-0.411l-0.22,-0.331c-0.004,-0.03 -0.004,-0.03 0,-0.059l0.119,-0.386c-0.01,-0.407 -0.015,-0.409 -0.136,-0.798l0.003,-0.474l-0.003,-0.444l0.05,-0.479l0.196,-0.36c-0.022,-0.406 -0.025,-0.408 -0.15,-0.795l-0.051,-0.373c0.016,-0.035 0.016,-0.036 0.044,-0.062l0.286,-0.175l0.197,-0.308l0.257,-0.274l0.112,0.018l0.181,0.176l0.054,-0.184l-0.094,-0.396l-0.026,-0.322l0.019,-0.384l-0.148,-0.363l-0.14,-0.407c-0.005,-0.024 -0.005,-0.024 -0.004,-0.049l0.067,-0.407c-0.025,-0.113 -0.03,-0.233 -0.075,-0.34c-0.122,-0.283 -0.236,-0.319 -0.471,-0.492l-0.306,-0.35l-0.293,-0.331l-0.301,-0.326l-0.289,-0.333c-0.291,-0.274 -0.289,-0.276 -0.61,-0.516l-0.037,-0.056l-0.109,-0.43l-0.099,-0.433l-0.104,-0.431c-0.099,-0.433 -0.198,-0.866 -0.298,-1.298l-0.099,-0.43c-0.034,-0.143 -0.062,-0.287 -0.101,-0.428c-0.05,-0.18 -0.189,-0.584 -0.252,-0.773l-0.169,-0.138l-0.184,-0.092l-0.318,0.015l-0.243,0.226l-0.421,0.156l-0.073,-0.036l-0.262,-0.326l-0.128,-0.345l0.086,-0.339l-0.234,-0.297l-0.018,-0.328l-0.164,-0.082l-0.262,0.182l-0.309,0.284l-0.353,0.067l-0.288,0.319l-0.438,0.05l-0.434,0.178l-0.407,-0.115l-0.393,-0.039l-0.303,0.161c-0.105,0.032 -0.153,-0.015 -0.143,-0.117l0.148,-0.457l0.332,-0.169l0.2,-0.32c0.197,-0.389 0.197,-0.389 0.357,-0.795l0.238,-0.427l0.321,-0.27l0.172,-0.332l0.197,-0.383l0.299,-0.372l0.399,-0.078c0.13,-0.369 0.129,-0.369 0.25,-0.741l0.181,-0.418l0.239,-0.357l0.167,-0.432l0.272,-0.296l0.006,-0.28l-0.191,-0.291l-0.047,-0.461l0.14,-0.431l0.188,-0.378l0.119,-0.412l0.195,-0.353l0.017,-0.434l0.105,-0.383l-0.017,-0.428l0.047,-0.428l-0.022,-0.46l0.112,-0.378l-0.026,-0.442c0.013,-0.029 0.013,-0.029 0.034,-0.053l0.304,-0.246c0.153,-0.378 0.152,-0.379 0.256,-0.774l0.03,-0.048l0.317,-0.289c0.094,-0.097 0.202,-0.182 0.28,-0.293c0.068,-0.096 0.31,-0.629 0.36,-0.739l0.186,-0.372c0.165,-0.384 0.165,-0.384 0.31,-0.777l0.3,-0.384l0.347,-0.182l0.275,-0.301l0.213,-0.377l0.24,-0.362c0.193,-0.3 0.199,-0.302 0.28,-0.649c0,0 -0.001,-0.036 0.065,-0.072l0.314,-0.108l0.364,-0.147l0.406,-0.156c0.024,-0.006 0.024,-0.006 0.048,-0.006l0.395,0.048l0.377,0.056l0.236,-0.27c0.282,-0.515 0.562,-1.032 0.843,-1.55l0.218,-0.383l0.207,-0.392l0.212,-0.39l0.214,-0.389l0.21,-0.391l0.225,-0.406l0.321,-0.346l0.431,-0.108l0.434,-0.095l0.429,-0.105c0.496,-0.127 0.896,-0.246 1.269,-0.371l0.423,-0.142c0.427,-0.128 0.427,-0.128 0.858,-0.242l0.422,-0.116l0.409,-0.141c0.04,-0.021 0.08,-0.045 0.121,-0.066c0.121,-0.063 0.265,-0.091 0.385,-0.023l0.13,0.055l0.091,-0.13c0.24,-0.131 0.26,0.343 0.048,0.477l-0.253,0.121l-0.19,0.226l-0.222,0.035l-0.177,0.189l-0.214,0.066l-0.185,0.015l-0.282,0.075l-0.329,0.068l-0.373,0.051l-0.3,0.011l-0.246,0.076l-0.333,0.113l-0.355,0.093l-0.36,0.07l-0.346,0.077l-0.283,0.111l-0.334,0.108c-0.286,0.122 -0.286,0.122 -0.57,0.249l-0.084,0.287c-0.018,0.378 -0.037,0.417 0.012,0.796c0.072,0.562 0.347,1.28 0.532,1.633c0.048,0.093 0.106,0.181 0.159,0.272c0.137,0.231 0.181,0.317 0.34,0.533c0.35,0.473 0.777,0.903 1.551,1.293l0.282,0.151c0.159,0.05 0.403,0.033 0.331,0.235c-0.016,0.046 -0.05,0.055 -0.05,0.055l-0.094,0.048l-0.125,0.129c-0.032,0.01 -0.033,0.01 -0.066,0.01l-0.221,-0.044l-0.141,-0.06l-0.289,-0.097l-0.26,-0.134l-0.19,0.03l-0.005,0.029l0.214,0.15l0.209,0.235c0.019,0.032 0.019,0.033 0.025,0.069l-0.008,0.259c0.046,0.279 0.13,0.559 0.326,0.913l0.121,0.285l0.187,0.212l0.205,0.125l0.233,0.233l0.05,0.178l0.025,0.254c0,0.026 0,0.026 -0.008,0.05l-0.105,0.235l-0.099,0.157c-0.014,0.243 -0.012,0.242 -0.013,0.486c0,0 -0.094,0.301 -0.165,0.511l0.047,0.333l-0.035,0.287c-0.019,0.06 -0.045,0.069 -0.066,0.082l-0.233,0.082c-0.247,0.158 -0.246,0.16 -0.473,0.344l-0.271,0.167l-0.218,0.204c-0.199,0.227 -0.197,0.232 -0.311,0.51l-0.146,0.215l-0.121,0.342l-0.163,0.234l-0.142,0.364l-0.205,0.119l-0.129,0.238l-0.319,0.126l-0.191,0.073l-0.2,0.171l-0.086,0.32c-0.043,0.134 -0.122,0.325 -0.122,0.325l-0.141,0.292l-0.128,0.328c-0.172,0.27 -0.172,0.27 -0.352,0.534l-0.231,0.234l-0.14,0.14c0.095,0.381 0.357,0.685 0.61,0.969l0.204,0.244c0.044,0.056 0.352,0.446 0.393,0.503c0.088,0.124 0.192,0.307 0.192,0.307c0.032,0.165 -0.048,0.362 -0.048,0.362l0.053,0.232l0.087,0.037l0.091,0.116c0.018,0.032 0.031,0.02 0.016,0.091l0.078,0.062l0.227,0.11l0.263,0.172l0.308,0.148c0,0 0.141,0.057 0.145,0.17c0,0 0.157,0.095 0.157,0.095c0.064,0.053 0.072,0.131 0.072,0.131l0.088,0.072l0.155,0.16l0.223,-0.076c0.109,-0.112 0.167,-0.275 0.293,-0.245c0,0 0.054,0.13 0.054,0.13c-0.069,0.172 -0.069,0.172 -0.139,0.344l0.191,0.067c0.071,0.181 -0.102,0.152 -0.279,0.225l0.062,0.286l-0.117,0.24l-0.26,-0.05l-0.205,0.261l0.104,0.088c0,0 0.052,-0.125 0.182,-0.031l0.084,0.089c0.019,0.029 0.019,0.029 0.027,0.062l0.018,0.261l0.074,0.197c0.005,0.025 0.009,0.05 0.012,0.074c0.002,0.021 0.004,0.042 0.004,0.063c0,0.016 0,0.031 -0.001,0.047c-0.005,0.1 -0.048,0.258 -0.196,0.232c0.001,0.016 0.002,0.017 0.002,0.017l0.137,0.071l0.258,0.074c0.023,0.019 0.023,0.019 0.038,0.044l0.072,0.159l0.149,0.008l0.34,0.024l0.183,0.035c0.034,0.013 0.034,0.013 0.061,0.037l0.125,0.165c0.306,0 0.322,0.012 0.628,-0.036c0.359,-0.055 0.695,-0.165 1.006,-0.262l0.343,-0.101c0.303,-0.098 0.307,-0.095 0.571,-0.274l0.261,-0.163l0.207,-0.077l0.188,-0.184l0.1,-0.305l0.175,-0.2l0.234,-0.215l0.249,-0.199l0.273,-0.151l0.259,-0.167l0.191,-0.132l-0.026,-0.211l-0.072,-0.211l-0.014,-0.395l0.023,-0.358l-0.101,-0.259c-0.006,-0.02 -0.011,-0.04 -0.015,-0.06l-0.031,-0.363l0.103,-0.325l0.119,-0.305l0.075,-0.321l0.031,-0.366l0.104,-0.266l0.002,-0.177l-0.17,-0.221l-0.18,-0.241l-0.101,-0.21c-0.021,-0.08 0.043,-0.142 0.065,-0.168l-0.063,-0.266c-0.184,-0.302 -0.41,-0.588 -0.607,-0.802l-0.31,-0.12l-0.198,-0.188l-0.192,-0.239l-0.045,-0.288l-0.033,-0.313l-0.122,-0.289c-0.092,-0.155 -0.192,-0.354 -0.332,-0.476c-0.073,-0.064 -0.165,-0.1 -0.248,-0.15l-0.227,-0.154l-0.174,-0.259l-0.071,-0.284l-0.223,-0.219c-0.127,-0.261 -0.127,-0.261 -0.231,-0.532l-0.166,-0.166l-0.209,-0.157c-0.015,-0.03 -0.015,-0.03 -0.018,-0.063l0.022,-0.273l0.123,-0.262l-0.033,-0.264l-0.211,-0.173l-0.256,-0.189l-0.232,-0.197c-0.04,-0.05 -0.034,-0.076 -0.032,-0.101l0.075,-0.293c0.016,-0.033 0.016,-0.033 0.042,-0.058l0.187,-0.124l-0.066,-0.149l-0.084,-0.212l-0.069,-0.298l0.002,-0.256c-0.03,-0.203 -0.022,-0.206 -0.102,-0.395l-0.176,-0.135l-0.227,-0.233l0.099,-0.105l0.319,-0.003l0.376,-0.029l0.363,0.04l0.2,-0.033l-0.045,-0.259l-0.056,-0.344c0.002,-0.078 0.163,-0.175 0.163,-0.175l-0.205,-0.067l-0.261,-0.211c-0.009,-0.024 -0.022,-0.049 0.004,-0.109l0.124,-0.176c0.02,-0.02 0.02,-0.02 0.044,-0.035l0.242,-0.111l0.4,-0.009l0.381,0.048c0.319,-0.043 0.32,-0.042 0.629,-0.132l0.319,-0.074l0.283,-0.116c0.173,-0.069 0.421,-0.172 0.429,-0.185c0.056,-0.07 0.089,-0.065 0.13,-0.086c0.065,-0.034 0.13,-0.066 0.195,-0.097l0.3,-0.133c0.098,-0.048 0.197,-0.094 0.293,-0.144c0.04,-0.021 0.522,-0.296 0.561,-0.319l0.276,-0.15l0.187,-0.133l0.293,-0.143l0.271,-0.175l0.311,-0.149l0.349,-0.074l0.355,-0.051l0.333,-0.122l0.32,-0.049l0.377,-0.053l0.366,0.036l0.33,-0.047l0.265,-0.038l0.152,-0.207l0.296,-0.228l0.35,0l0.302,0.036l0.249,-0.186l0.301,-0.068l0.28,-0.146l0.211,-0.091l0.294,-0.152l0.131,0.038l0.277,0.028l0.261,-0.104l0.172,-0.236l0.17,-0.197l0.039,-0.159l0.011,-0.137l-0.113,-0.028c0,0 -0.057,-0.011 -0.056,-0.092c0.004,-0.148 0.302,-0.122 0.461,0.006l0.154,0.165l0.15,-0.088l0.214,-0.016l0.112,-0.055l0.033,-0.183l-0.09,-0.209c0.006,-0.049 0.031,-0.086 0.084,-0.105l0.228,-0.036l0.253,0.014l0.182,0.058l0.241,-0.148l0.264,0.055l0.045,0.174l0.14,0.039c0.012,0.034 0.013,0.033 0.017,0.069l0.09,0.16c0,0 0.192,0.087 0.199,0.217l0.104,0.117l0.257,0.051l0.204,-0.053l0.216,-0.126l0.21,-0.099c0.064,-0.017 0.144,0.019 0.166,0.026l0.2,-0.092c0.026,-0.008 0.026,-0.008 0.053,-0.009l0.277,-0.029l-0.028,-0.072l-0.191,-0.252l-0.16,-0.265c-0.055,-0.095 -0.114,-0.188 -0.166,-0.285c-0.075,-0.142 -0.215,-0.459 -0.281,-0.605l-0.128,-0.283l-0.048,-0.06l-0.189,-0.005l-0.218,0.059l-0.263,0.037l-0.227,0.118l-0.168,0.046l-0.265,0.078c-0.061,-0.014 -0.093,-0.071 -0.11,-0.105l-0.123,0.011c-0.272,0.076 -0.271,0.077 -0.539,0.168l-0.257,0.061l-0.295,0.093l-0.342,0.087l-0.306,0.048l-0.32,0.076c-0.029,0.002 -0.029,0.002 -0.058,-0.004l-0.296,-0.114l-0.126,-0.092c-0.032,-0.033 -0.045,-0.075 -0.031,-0.125l0.11,-0.224l0.067,-0.213l-0.024,-0.151l0.021,-0.159c-0.095,-0.13 -0.133,-0.142 -0.133,-0.142l0.039,-0.113l0.173,0.026l0.035,-0.074l-0.067,-0.085c0,0 -0.158,0.392 -0.308,-0.159l-0.094,-0.278l-0.196,-0.192l-0.121,-0.311l0.045,-0.386l0.15,-0.291c0.13,-0.284 0.129,-0.284 0.243,-0.575l0.166,-0.294l0.138,-0.264l-0.015,-0.266c0.012,-0.022 0.02,-0.048 0.08,-0.07l0.358,-0.06l0.288,-0.105l0.212,-0.214l0.265,-0.177l0.258,-0.177l0.331,-0.143l0.303,0.079l0.265,0.097l0.336,0.093l0.236,0.23l0.157,0.263c0.155,0.277 0.155,0.277 0.301,0.559l0.147,0.271l0.123,0.286c0.041,0.227 0.078,0.564 0.078,0.564l-0.013,0.383l0.071,0.324l0.066,0.335l0.092,0.337l0.118,0.311l0.113,0.319l0.092,0.276l0.135,0.288l0.131,0.3l0.149,0.284c0.169,0.275 0.398,0.641 0.767,0.91l0.257,0.023l0.18,-0.231l0.331,-0.177l0.35,0.03c0.116,0.016 0.231,0.042 0.347,0.063l0.35,0.063l0.31,0.02l0.26,-0.126l0.273,-0.17l0.307,-0.14c0.031,0.001 0.031,0.001 0.061,0.011l0.269,0.146l0.257,0.101l0.286,-0.015c0.026,0.002 0.026,0.002 0.051,0.011l0.252,0.127l0.323,0.03l0.215,0.156l0.195,0.21c0.247,0.071 0.25,0.069 0.507,0.06l0.279,-0.005l0.311,-0.059l0.324,0.033l0.257,-0.058c0.023,-0.002 0.023,-0.002 0.045,0.001l0.279,0.066c0.024,0.009 0.024,0.009 0.044,0.024l0.22,0.203l0.2,0.226c0.209,0.163 0.466,0.334 0.765,0.433l0.271,-0.027c0.079,0.058 0.158,0.115 0.237,0.172Zm-37.07,19.452l0.236,0.12l0.231,0.209l0.13,0.385c0.224,0.706 0.371,1.434 0.536,2.157l0.099,0.432l0.103,0.432l0.099,0.431l0.1,0.394l0.282,0.211l0.328,0.309l0.29,0.334l0.3,0.326l0.296,0.333l0.283,0.328l0.305,0.232l0.229,0.352l0.085,0.415l-0.066,0.402c0.131,0.382 0.131,0.382 0.284,0.756l-0.013,0.442l0.025,0.295l0.094,0.45l-0.126,0.404l-0.146,0.008l-0.226,-0.218c-0.197,0.219 -0.188,0.226 -0.346,0.475l-0.28,0.184c0.051,0.332 0.065,0.329 0.168,0.648l0.016,0.516l-0.2,0.367c-0.036,0.423 -0.035,0.423 -0.032,0.847l-0.007,0.429l0.13,0.431l0.006,0.455l-0.109,0.355l0.207,0.32l0.068,0.371c0.361,0.103 0.363,0.099 0.737,0.134l0.353,0.059l0.384,0.053l0.376,-0.115c0.061,-0.007 0.08,0.011 0.099,0.024l0.321,0.323l0.191,0.375c0.009,0.028 0.009,0.028 0.01,0.058l-0.053,0.398c0.049,0.121 0.087,0.247 0.145,0.364c0.053,0.106 0.397,0.651 0.458,0.748l0.233,0.379l0.225,0.376l0.235,0.308c0.413,0.028 0.413,0.025 0.827,0.013l0.429,0.013l0.355,-0.069l0.169,-0.282c0.014,-0.017 0.026,-0.037 0.082,-0.048l0.282,-0.007l0.186,0.049l0.244,0.09l0.382,0.03l0.149,-0.083c0.031,-0.011 0.031,-0.011 0.064,-0.011l0.392,0.059c0.023,0.006 0.023,0.006 0.044,0.018l0.203,0.147l0.421,-0.051l0.415,0.089l0.227,0.046l0.383,-0.188l0.429,0.14c0.411,0.034 0.416,0.032 0.813,-0.083l0.048,-0.001l0.372,0.077c0.423,-0.016 0.424,-0.017 0.839,-0.096c0,0 0.032,-0.015 0.092,0.031l0.215,0.23l0.292,0.146l0.405,0.025l0.393,-0.11l0.282,-0.054l0.269,-0.221l0.27,-0.299l0.332,-0.106l0.411,-0.071l0.424,-0.1l0.455,0.01l0.408,0.083l0.388,0.116l0.396,-0.091c0.056,-0.004 0.072,0.012 0.089,0.024l0.287,0.26l0.259,0.284l0.375,0.084l0.337,0.157l0.407,0.073c0.028,0.009 0.028,0.01 0.051,0.026l0.276,0.259l0.358,0.064l0.366,-0.151l0.422,-0.166l0.431,-0.063l0.42,-0.076l0.343,-0.002c0.02,0.003 0.043,0.002 0.082,0.043l0.254,0.363c0.254,0.357 0.254,0.357 0.53,0.697l0.267,0.357c0.205,0.286 0.314,0.437 0.516,0.724c0.086,0.12 0.17,0.241 0.255,0.362l0.258,0.36l0.26,0.36l0.254,0.364l0.257,0.361l0.258,0.362l0.253,0.364l0.258,0.358c0.258,0.361 0.258,0.361 0.514,0.725l0.257,0.361l0.256,0.362l0.26,0.358l0.262,0.359l0.242,0.339l0.275,0.122l0.375,-0.108l0.418,-0.182l0.073,0.029l0.288,0.285l0.301,0.236l0.369,0.028l0.3,-0.257l0.332,-0.281l0.327,-0.338l0.392,-0.199c0.032,-0.01 0.032,-0.01 0.064,-0.009c0.28,0.053 0.56,0.107 0.84,0.16l0.413,0.145c0.403,0.027 0.405,0.03 0.805,-0.037l0.044,0.003l0.413,0.121l0.454,0.066l0.384,0.181l0.386,0.033l0.387,-0.226l0.4,-0.008l0.397,-0.143l0.471,-0.121l0.45,0.068l0.412,0.119c0.136,-0.002 0.274,0.018 0.409,-0.006c0.088,-0.015 0.745,-0.263 0.819,-0.29l0.445,-0.134l0.458,-0.035l0.434,0.077c0.28,0.035 0.545,0.099 0.827,0.018c0.265,-0.075 0.472,-0.286 0.681,-0.477l0.35,-0.277c0.03,-0.017 0.03,-0.017 0.064,-0.022l0.447,0.012l0.431,0.074c0.291,0.026 0.582,0.051 0.873,0.074l0.016,0.003c0.426,0.109 0.426,0.109 0.844,0.245l0.384,0.27l0.394,0.279l0.011,0.08l-0.102,0.35c0.042,0.38 0.041,0.384 0.201,0.731l0.302,0.269c0.013,0.015 0.029,0.027 0.034,0.08l-0.023,0.406c-0.007,0.031 -0.007,0.031 -0.024,0.058l-0.298,0.353l-0.342,0.279c-0.31,0.269 -0.678,0.479 -0.892,0.908c-0.064,0.127 -0.084,0.271 -0.126,0.407l-0.161,0.401c-0.021,0.136 -0.064,0.27 -0.065,0.408c-0.001,0.141 0.035,0.279 0.059,0.418c0.069,0.403 0.078,0.401 0.198,0.791l-0.012,0.084l-0.229,0.344l-0.298,0.355l-0.374,0.237l-0.386,0.21l-0.339,0.245c-0.233,0.332 -0.234,0.332 -0.419,0.692l0.099,0.382l0.16,0.428l0.072,0.426l0.143,0.445l-0.001,0.458l-0.08,0.429c-0.102,0.418 -0.102,0.418 -0.213,0.835l0.053,0.423l0.025,0.451l-0.028,0.455l-0.092,0.449l-0.151,0.397l-0.013,0.446l-0.101,0.432l-0.078,0.332l0.305,0.206c0.022,0.02 0.022,0.02 0.037,0.046l0.158,0.395c0.134,0.387 0.133,0.387 0.242,0.782l-0.034,0.474l-0.126,0.403l0.026,0.402l0.148,0.376l0.332,0.305l0.194,0.406l0.141,0.417l0.132,0.429l0.085,0.427l0.147,0.395l0.233,0.407l0.061,0.42l0.155,0.368l0.288,0.198l0.4,-0.05c0.025,0 0.026,0 0.05,0.007l0.373,0.154c0.032,0.022 0.032,0.022 0.053,0.054l0.169,0.401l0.203,0.369l0.139,0.418l0.154,0.41c0.059,0.126 0.095,0.266 0.176,0.38c0.172,0.24 0.402,0.331 0.649,0.47l0.047,0.061l0.12,0.465l-0.013,0.038c-0.225,0.379 -0.225,0.379 -0.468,0.746l-0.298,0.317l-0.197,0.272c-0.018,0.019 -0.018,0.019 -0.04,0.033l-0.367,0.165c-0.216,0.194 -0.431,0.388 -0.647,0.582l-0.33,0.296l-0.328,0.299l-0.333,0.293l-0.327,0.299l-0.325,0.29l-0.329,0.299l-0.334,0.292c-0.314,0.278 -0.316,0.277 -0.584,0.599c-0.06,0.117 -0.055,0.297 -0.055,0.297l0.13,0.029l0.243,-0.23c0.03,-0.019 0.03,-0.019 0.064,-0.027l0.432,-0.023c0.031,0.003 0.031,0.003 0.06,0.016l0.288,0.185l0.392,0.09l0.389,-0.081c0.021,-0.001 0.042,-0.007 0.089,0.024l0.333,0.325l0.163,0.417l0.015,0.356c0.268,0.108 0.276,0.08 0.562,0.122c0,0 0.041,-0.005 0.081,0.069l0.113,0.361c0.221,0.164 0.442,0.328 0.663,0.492l0.259,0.316l0.364,0.192c0.02,0.014 0.02,0.014 0.036,0.033l0.239,0.357l0.264,0.306l0.421,0.157l0.328,0.291c0.016,0.017 0.016,0.018 0.027,0.038l0.157,0.407c0.012,0.058 -0.003,0.077 -0.014,0.097l-0.244,0.32l-0.057,0.38l0.125,0.39c0.139,0.384 0.136,0.387 0.358,0.73l0.32,0.116c0.02,0.011 0.044,0.019 0.064,0.077l0.074,0.433c0.001,0.026 0.001,0.026 -0.005,0.051l-0.141,0.38l0.089,0.333l0.279,0.348l0.191,0.417l0.123,0.426l0.103,0.426l0.165,0.406l0.136,0.419l0.185,0.441l0.002,0.416l0.191,0.385c0.145,0.423 0.145,0.423 0.252,0.857l0.061,0.402l0.264,0.369l0.109,0.426c0.003,0.029 0.003,0.029 -0.002,0.058l-0.129,0.367l0.152,0.329l0.334,0.188c0.55,0.493 1.102,0.986 1.653,1.48c0.33,0.295 0.33,0.295 0.663,0.588c0.558,0.485 1.115,0.971 1.673,1.457c0.298,0.259 0.294,0.266 0.641,0.455l0.395,-0.096l0.501,-0.085l0.348,0.181l0.323,0.071l0.298,-0.074l0.14,-0.367l0.071,-0.033l0.394,-0.009l0.37,-0.036l0.204,-0.192l0.138,-0.356c0.028,-0.047 0.048,-0.052 0.066,-0.06l0.29,-0.081l0.203,-0.336l0.377,-0.117c0.346,-0.128 0.352,-0.122 0.642,-0.349l0.402,-0.216l0.347,0.096l0.327,-0.133l0.208,-0.033l0.397,0.022l0.259,0.182l0.219,0.291l0.188,0.348l0.111,0.335l0.008,0.323c-0.007,0.038 -0.007,0.039 -0.027,0.071l-0.194,0.205l-0.175,0.355l-0.256,0.239l-0.091,0.317l0.168,0.302l0.19,0.097l0.352,-0.148l0.349,-0.072l0.21,-0.29l0.154,-0.229l0.049,-0.3l0.013,-0.351l0.217,-0.351l0.232,-0.253l0.22,-0.365l0.435,-0.098c0.036,-0.001 0.036,-0.001 0.07,0.011l0.183,0.105l0.43,-0.023l0.138,0.04l0.145,-0.308l0.111,-0.358l-0.069,-0.268l0.037,-0.462l0.104,-0.339c0.013,-0.028 0.013,-0.028 0.035,-0.051l0.33,-0.252c0.048,-0.025 0.067,-0.019 0.087,-0.017l0.385,0.109l0.135,0.217l0.276,-0.09l0.244,-0.299l0.053,-0.367c0.014,-0.044 0.043,-0.074 0.093,-0.086l0.203,-0.011l0.316,-0.235c0.036,-0.004 0.036,-0.004 0.071,0.005l0.137,0.063l0.166,-0.303l0.351,-0.268c0.019,-0.01 0.036,-0.024 0.092,-0.015l0.302,0.109l0.171,0.384l0.226,0.084l0.22,-0.304l0.274,-0.134l0.34,-0.247l0.337,-0.197l0.145,-0.276l0.229,-0.381l0.304,-0.317l0.364,-0.1c0.327,-0.159 0.325,-0.165 0.605,-0.396l0.356,-0.199l0.075,0.021l0.286,0.235c0.009,0.023 0.022,0.048 -0.003,0.106l-0.228,0.335l-0.134,0.311l0.112,0.22l0.191,0.118l0.078,-0.176l0.114,-0.416l0.271,-0.309l0.293,-0.26c0.022,-0.014 0.022,-0.014 0.046,-0.023l0.365,-0.078l0.222,-0.339l0.336,-0.254l0.306,-0.126l0.185,-0.348l0.18,-0.354l-0.036,-0.377l-0.021,-0.402l0.12,-0.38l-0.095,-0.34l0.066,-0.461l0.194,-0.348l0.319,-0.266l0.335,-0.226c0.032,-0.014 0.033,-0.014 0.068,-0.016l0.407,0.051l0.405,0.027l0.313,0.128l0.275,-0.196l0.347,-0.078l0.235,-0.125c0.011,-0.013 0.022,-0.026 0.033,-0.04c0.029,-0.038 0.057,-0.077 0.086,-0.115c0.069,-0.087 0.165,-0.176 0.288,-0.139l0.182,0.136l0.048,-0.165c0.013,-0.029 0.013,-0.029 0.034,-0.051l0.286,-0.224l0.302,-0.298l0.451,-0.169l0.371,0.118l0.356,-0.142l0.325,0.06l0.255,-0.164l0.011,-0.379l0.073,-0.248l-0.102,-0.363l-0.1,-0.426l-0.138,-0.446c0.005,-0.031 0.005,-0.032 0.02,-0.059l0.212,-0.285l-0.152,-0.189l-0.383,-0.008c-0.49,0.081 -1.057,0.224 -1.7,0.414l-0.474,0.052l-0.46,-0.028l-0.443,-0.108l-0.407,-0.166l-0.417,-0.14l-0.433,-0.147l-0.352,-0.173l-0.302,-0.029c-0.036,-0.01 -0.036,-0.01 -0.066,-0.034l-0.238,-0.273c-0.011,-0.018 -0.026,-0.033 -0.021,-0.089l0.11,-0.438l0.186,-0.291c0.184,-0.323 0.191,-0.322 0.301,-0.677l-0.106,-0.321c-0.004,-0.025 -0.004,-0.025 -0.003,-0.05l0.047,-0.251l-0.084,-0.315l-0.068,-0.357l-0.363,-0.28l-0.11,-0.426l-0.088,-0.366l-0.316,-0.237c-0.016,-0.015 -0.016,-0.016 -0.029,-0.034l-0.191,-0.373c-0.27,-0.329 -0.271,-0.329 -0.579,-0.623l-0.269,-0.386c-0.003,-0.035 -0.003,-0.035 0.007,-0.069l0.182,-0.373c-0.002,-0.34 0.019,-0.482 -0.077,-0.815c-0.059,-0.204 -0.168,-0.447 -0.168,-0.447l0.03,-0.419l-0.128,-0.434l0.173,-0.413l0.304,-0.293l0.103,-0.254l-0.024,-0.38c-0.265,-0.329 -0.266,-0.328 -0.549,-0.642l-0.269,-0.337c-0.085,-0.1 -0.157,-0.212 -0.255,-0.299c-0.229,-0.206 -0.46,-0.297 -0.735,-0.428c-0.127,-0.06 -0.249,-0.134 -0.383,-0.178c-0.213,-0.069 -0.462,-0.116 -0.462,-0.116l-0.253,-0.35l-0.336,-0.323l-0.177,-0.378l-0.27,-0.291l-0.284,-0.32l-0.334,-0.305l-0.192,-0.37c-0.134,-0.249 -0.238,-0.498 -0.459,-0.689c-0.159,-0.137 -0.397,-0.253 -0.397,-0.253l-0.223,-0.362c-0.009,-0.021 -0.009,-0.021 -0.014,-0.045l-0.03,-0.474l0.328,-0.372l0.077,-0.004l0.42,0.146l0.426,0.205l0.353,0.323l0.188,0.391l0.212,0.338l0.33,0.183l0.381,-0.08l0.399,-0.009l0.425,-0.15l0.457,-0.028l0.415,0.065l0.383,-0.123c0.033,-0.005 0.033,-0.005 0.065,0.001l0.338,0.126l0.39,0.113l0.372,-0.053c0.036,0.001 0.036,0.001 0.069,0.015l0.366,0.236c0.019,0.016 0.019,0.016 0.034,0.037l0.21,0.404l0.106,0.371c0.07,0.12 0.128,0.249 0.209,0.361c0.175,0.241 0.288,0.3 0.517,0.472l0.215,0.225l0.097,-0.045l0.269,-0.333l0.412,-0.091l0.395,-0.057l0.411,0.072l0.395,0.012c0.035,0.007 0.035,0.007 0.065,0.026l0.214,0.199l0.185,-0.013l-0.015,-0.113l-0.113,-0.344l0.052,-0.4c0.021,-0.065 0.053,-0.101 0.143,-0.077l0.376,0.193l0.273,0.328l0.296,0.397l0.029,0.253l0.225,0.09l0.282,0.169l0.146,-0.071l0.257,-0.028l0.272,-0.084l0.128,-0.227l-0.211,-0.196c-0.011,-0.032 -0.011,-0.032 -0.011,-0.066l0.069,-0.334l0.069,-0.043l0.411,-0.058c0.025,-0.001 0.025,-0.001 0.049,0.005l0.363,0.135l0.267,-0.142c0.038,0.002 0.038,0.002 0.072,0.018l0.252,0.181l0.436,0.045l0.241,0.216l0.002,0.082l-0.16,0.385l0.023,0.347l0.254,0.183l0.413,0.089l0.445,0.162l0.281,0.327c0.016,0.026 0.016,0.026 0.024,0.056l0.036,0.38l0.002,0.221l0.294,0.244l0.263,0.282l0.3,0l0.238,-0.34l0.291,-0.232l0.353,-0.299l0.357,-0.163l0.076,0.031l0.263,0.278l0.226,0.153c0.085,-0.315 0.053,-0.32 0.022,-0.645l-0.018,-0.338l-0.255,-0.333l-0.035,-0.267l-0.12,-0.407c0.007,-0.034 0.007,-0.034 0.025,-0.063l0.214,-0.242l0.015,-0.293l0.047,-0.336c0.006,-0.02 0.008,-0.041 0.052,-0.075l0.272,-0.146c0.023,-0.009 0.023,-0.009 0.047,-0.012l0.416,-0.001l0.426,-0.163l0.423,0.159l0.331,0.003l0.16,-0.377l0.033,-0.022c0.408,-0.166 0.408,-0.166 0.821,-0.319l0.429,-0.167l0.404,-0.053l0.458,0.005l0.465,0.084l0.376,0.219l0.352,0.141l0.308,-0.203l0.362,-0.289l0.454,-0.117l0.344,0.093c0.033,0.016 0.034,0.016 0.059,0.044l0.142,0.233l0.263,-0.116l0.254,-0.319c0.019,-0.019 0.019,-0.019 0.043,-0.032l0.4,-0.149c0.369,-0.226 0.369,-0.226 0.72,-0.478l0.42,-0.125l0.471,-0.033l0.412,0.086l0.39,-0.081l0.335,-0.146l0.009,-0.304l-0.119,-0.436c0.007,-0.031 0.007,-0.031 0.023,-0.059l0.287,-0.342l0.363,-0.303l0.477,0.041l0.407,0.007l0.294,-0.186l-0.005,-0.281l-0.08,-0.333l0.081,-0.083l0.464,-0.077l0.436,0.088l0.458,0.129l0.335,0.224l0.343,-0.062l0.433,-0.188l0.431,-0.001l0.353,-0.071c0.2,-0.331 0.2,-0.333 0.334,-0.696l-0.016,-0.384c0.003,-0.03 0.003,-0.03 0.015,-0.058l0.228,-0.363c0.013,-0.015 0.023,-0.033 0.075,-0.047l0.384,-0.038l0.371,-0.181l0.403,-0.166l0.363,-0.187l0.244,-0.346l0.301,-0.305l0.234,-0.383l0.298,-0.297l0.133,-0.332c-0.179,-0.377 -0.181,-0.376 -0.389,-0.738l-0.095,-0.446l-0.167,-0.382l-0.238,-0.304l-0.368,-0.126c-0.029,-0.016 -0.029,-0.016 -0.051,-0.04l-0.239,-0.368c-0.274,-0.343 -0.274,-0.343 -0.558,-0.677c-0.495,-0.548 -0.994,-1.092 -1.486,-1.646c-0.519,-0.583 -0.821,-0.95 -1.16,-1.344l-0.299,-0.325l-0.303,-0.324l-0.303,-0.325c-0.398,-0.441 -0.786,-0.887 -1.176,-1.332l-0.223,-0.412c0.004,-0.064 0.028,-0.08 0.047,-0.097l0.307,-0.191l0.157,-0.279l0.213,-0.346l0.201,-0.21l0.189,-0.297l0.324,-0.07l0.177,0.015l0.132,-0.133l0.033,-0.237c0.008,-0.026 0.008,-0.026 0.021,-0.049l0.164,-0.204c0.028,-0.024 0.029,-0.025 0.064,-0.037l0.214,-0.029l-0.004,-0.086l-0.006,-0.341c0.002,-0.023 0.002,-0.023 0.01,-0.046l0.089,-0.18l-0.161,-0.099l-0.229,-0.265l-0.07,-0.28l0.096,-0.261l-0.036,-0.204l0.083,-0.21c0.039,-0.173 0.034,-0.174 0.041,-0.352l-0.177,-0.089c-0.036,-0.027 -0.056,-0.065 -0.052,-0.114l0.047,-0.188l-0.124,-0.128c0,0 -0.19,0.023 -0.195,-0.21l-0.146,-0.201c-0.021,-0.043 -0.02,-0.087 0.011,-0.13l0.15,-0.149c0.119,-0.279 0.122,-0.278 0.223,-0.564l0.247,-0.257l0.107,-0.242c0.026,-0.02 0.026,-0.021 0.057,-0.032l0.356,-0.062l0.298,-0.04l0.335,0.039l0.399,-0.073l0.37,0.042l0.228,-0.224l0.054,-0.234l0.043,-0.391c0.03,-0.04 0.072,-0.059 0.128,-0.047l0.383,0.164l0.257,0.111l0.394,0.082l0.376,0.184l0.312,0.041l0.2,-0.326l0.358,-0.293l0.41,-0.182l0.403,-0.097c0.329,-0.201 0.326,-0.207 0.607,-0.47l0.398,-0.254l0.358,-0.021l0.126,-0.131l0.072,-0.344l0.162,-0.267c-0.014,-0.349 -0.014,-0.351 -0.119,-0.684l-0.036,-0.391l-0.33,-0.136l-0.294,-0.18l-0.357,0.08l-0.322,0.258l-0.243,0.129c-0.046,0.014 -0.091,0.007 -0.13,-0.033l-0.223,-0.333l-0.331,-0.273l-0.207,-0.386c0,-0.035 0,-0.035 0.013,-0.067l0.2,-0.337l0.183,-0.291l-0.123,-0.346l-0.238,-0.352l-0.069,-0.392l0.016,-0.407l0.07,-0.333l-0.064,-0.37c0,-0.028 0,-0.028 0.007,-0.055l0.143,-0.349c0.014,-0.023 0.014,-0.023 0.033,-0.041l0.174,-0.132l0.056,-0.306l0.187,-0.316l0.038,-0.336c0.005,-0.022 0.005,-0.022 0.015,-0.043l0.212,-0.325l0.196,-0.345l0.395,-0.096l0.427,-0.056l0.344,0.098l0.25,-0.009c0.273,-0.169 0.357,-0.211 0.618,-0.416c0.175,-0.138 0.326,-0.304 0.465,-0.479l0.28,-0.266l0.351,-0.115c0.302,-0.2 0.306,-0.199 0.533,-0.482c0,0 0.015,-0.033 0.09,-0.037l0.334,0.038l0.308,-0.118l0.213,-0.282c0.07,-0.357 0.075,-0.357 0.096,-0.72l0.032,-0.067l0.281,-0.265l0.273,-0.292l0.438,-0.068l0.393,-0.065l0.159,-0.245c-0.18,-0.375 -0.452,-0.684 -0.71,-0.999l-0.281,-0.344l-0.278,-0.345l-0.295,-0.357l-0.103,-0.193c-0.019,-0.049 0.107,-0.076 -0.156,-0.147c-0.059,-0.019 -0.035,0.039 -0.075,-0.085c0,0 0.034,-0.024 -0.104,-0.079l-0.216,-0.061c-0.257,-0.077 -0.353,-0.097 -0.596,-0.204c-0.09,-0.039 -0.177,-0.086 -0.265,-0.13l-0.191,-0.048l-0.258,0.018l-0.356,-0.014l-0.357,0.005l-0.355,-0.022l-0.32,-0.012l-0.242,0.048l-0.05,0.164l0.061,0.183c-0.01,0.06 -0.032,0.072 -0.05,0.087l-0.219,0.125l-0.164,0.262c-0.029,0.017 -0.029,0.017 -0.062,0.023l-0.275,0.002l-0.305,-0.032l-0.348,-0.044l-0.366,-0.032l-0.33,-0.12l-0.242,-0.194l-0.256,-0.159l-0.286,-0.212l0.004,-0.112l0.206,-0.269l0.185,-0.12l-0.026,-0.179l-0.166,-0.241c-0.004,-0.036 -0.003,-0.036 0.006,-0.07l0.142,-0.295l0.089,-0.137l-0.107,-0.022c-0.024,-0.018 -0.024,-0.018 -0.042,-0.042l-0.089,-0.161c-0.122,-0.203 -0.121,-0.203 -0.249,-0.402l-0.197,0.06l-0.255,0.129l-0.1,-0.061l0.002,-0.081l0.103,-0.218c-0.162,0.01 -0.166,-0.007 -0.32,0.043c0,0 -0.057,0.049 -0.124,-0.06l-0.077,-0.206l-0.137,-0.231c-0.001,-0.061 0.018,-0.078 0.033,-0.096l0.182,-0.155c0.079,-0.235 0.089,-0.236 0.089,-0.484l0.028,-0.07l0.197,-0.202l0.141,-0.218l0.003,-0.086l-0.077,-0.031l-0.171,0.032c-0.18,-0.001 -0.152,-0.247 -0.152,-0.247l0.022,-0.141l-0.157,0.06l-0.232,-0.016c-0.064,-0.016 -0.102,-0.045 -0.087,-0.134l0.105,-0.285l0.035,-0.278l-0.119,-0.081l-0.275,0.111l-0.358,0.073c-0.058,-0.019 -0.067,-0.042 -0.079,-0.062l-0.047,-0.115c-0.007,-0.035 -0.007,-0.035 -0.002,-0.07l0.074,-0.217c0.015,-0.028 0.015,-0.028 0.037,-0.05l0.269,-0.186l0.294,-0.118l0.266,-0.191l0.253,-0.109l0.091,-0.112l0.164,-0.151l-0.008,-0.277l-0.137,-0.267c-0.058,-0.083 -0.109,-0.171 -0.174,-0.249c-0.072,-0.087 -0.35,-0.352 -0.437,-0.423c-0.155,-0.127 -0.34,-0.202 -0.53,-0.261l-0.272,-0.118l-0.237,-0.189l-0.284,-0.13c-0.295,-0.115 -0.297,-0.117 -0.612,-0.146l-0.326,-0.14l-0.305,-0.128l-0.362,-0.103l-0.166,-0.123l-0.206,-0.226l-0.242,-0.19c-0.23,-0.183 -0.46,-0.384 -0.714,-0.627l-0.236,-0.209l-0.218,-0.219l-0.18,-0.218l-0.059,-0.051l0.013,0.084l0.183,0.168c0.101,0.134 0.022,0.303 -0.108,0.262c-0.121,-0.037 -0.228,-0.224 -0.228,-0.224l-0.237,-0.189l-0.256,-0.177l-0.248,-0.195c-0.086,-0.058 -0.167,-0.122 -0.256,-0.174c-0.099,-0.059 -0.519,-0.273 -0.464,-0.229c0.054,0.051 0.051,0.12 0.01,0.176l0.175,0.128c0.152,0.162 -0.175,0.218 -0.175,0.218l0.106,0.13c0.172,0.229 -0.437,0.189 -0.437,0.189l-0.352,-0.084l-0.321,-0.11c-0.299,-0.089 -0.3,-0.092 -0.61,-0.126l-0.115,0.139c-0.024,0.021 -0.025,0.021 -0.054,0.034l-0.215,0.051c-0.037,0.002 -0.037,0.002 -0.073,-0.011l-0.27,-0.162l-0.187,-0.233l-0.187,-0.237l-0.246,-0.177c-0.257,-0.185 -0.257,-0.186 -0.5,-0.388l-0.235,-0.194c-0.092,-0.05 -0.181,-0.104 -0.275,-0.148c-0.252,-0.118 -0.373,-0.146 -0.643,-0.223c-0.106,-0.031 -0.208,-0.077 -0.317,-0.089c-0.085,-0.009 -0.17,0.018 -0.255,0.027l-0.203,0.195c-0.23,0.201 -0.23,0.201 -0.468,0.393c0,0 -0.018,0.025 -0.085,0.02l-0.173,-0.04l-0.155,0.191l-0.124,0.065l-0.132,0.29l-0.122,0.01l-0.293,-0.196l-0.194,-0.222l-0.191,-0.079c-0.03,-0.04 -0.038,-0.086 -0.01,-0.137l0.161,-0.201l-0.118,-0.252l-0.087,-0.306l-0.169,-0.163c-0.019,-0.026 -0.02,-0.026 -0.03,-0.057l-0.048,-0.315c-0.095,-0.327 -0.213,-0.779 -0.614,-0.988c-0.176,-0.091 -0.42,-0.173 -0.618,-0.185c-0.177,-0.011 -0.425,0.017 -0.425,0.017c-0.021,-0.012 -0.047,-0.02 -0.068,-0.079l-0.053,-0.32l-0.148,-0.287c0.002,-0.047 0.023,-0.086 0.07,-0.11l0.164,-0.05l0.065,-0.218l-0.16,-0.206l-0.217,-0.221l-0.211,-0.248l-0.206,-0.257l-0.15,-0.249l-0.231,-0.134l-0.379,-0.003c-0.043,-0.025 -0.066,-0.064 -0.061,-0.121l0.095,-0.322c0.018,-0.034 0.018,-0.034 0.047,-0.059l0.312,-0.168l0.298,-0.07l0.245,-0.15c0.096,-0.007 0.17,0.084 0.098,0.177c0,0 0.33,-0.054 0.33,-0.054l0.311,-0.093l0.323,0.041l0.345,0.062l0.287,0.112l0.25,0.029l0.308,-0.017l0.255,0.083l0.211,0.013l0.3,-0.105l0.281,0.098l0.202,0.02l0.19,-0.145c0.102,-0.117 0.106,-0.115 0.185,-0.249l0.208,-0.246l0.276,-0.211l0.3,-0.01l0.331,-0.012l0.253,0.025l0.203,0.005l0.222,-0.003l0.188,-0.071l0.201,0.005l0.208,0.021l0.224,-0.027l0.222,-0.002c0.216,-0.054 0.217,-0.05 0.428,-0.119l0.106,-0.126l0.131,-0.164c0.037,-0.015 0.037,-0.026 0.082,-0.009l0.044,-0.13c0.022,-0.04 0.023,-0.039 0.052,-0.074l-0.148,0.027l-0.223,0.103l-0.207,-0.014l-0.254,0.074l-0.186,-0.102l-0.1,0.105c-0.067,0.018 -0.16,-0.021 -0.178,-0.027l-0.198,0.077l-0.272,0.012l-0.236,-0.004l-0.238,0.008l-0.13,0.155c-0.033,0.013 -0.033,0.013 -0.068,0.013l-0.302,-0.05l-0.254,-0.042l-0.296,0.023l-0.263,0.025l-0.218,-0.057l-0.19,-0.095l-0.261,-0.022l-0.25,-0.053l-0.31,-0.017l-0.256,-0.037l-0.27,-0.002l-0.247,-0.054l-0.26,-0.036c-0.038,-0.006 -0.472,-0.067 -0.516,-0.071c-0.028,-0.002 -0.523,-0.025 -0.566,-0.027l-0.292,-0.019c-0.03,-0.007 -0.03,-0.007 -0.057,-0.023l-0.147,-0.122c-0.217,0.117 -0.216,0.118 -0.43,0.24l-0.328,0.058l-0.234,0.114l-0.266,0.059l-0.291,0.066l-0.307,0.048l-0.331,-0.048l-0.276,-0.085l-0.18,-0.046l-0.257,0.052l-0.288,0.005c-0.265,0.019 -0.265,0.021 -0.526,0.063c0,0 -0.032,0.013 -0.089,-0.031l-0.13,-0.139l-0.195,0.137l-0.28,0.127l-0.205,0.139c-0.03,0.013 -0.03,0.013 -0.062,0.017l-0.234,-0.015l-0.288,0.078l-0.211,-0.104l-0.181,0.077c-0.033,-0.002 -0.033,-0.002 -0.063,-0.015l-0.149,-0.094l-0.156,-0.049l-0.07,0.063l-0.175,0.146l-0.173,0.067l-0.184,-0.011l-0.205,0.081l-0.129,0.011l-0.186,0.147c-0.032,0.016 -0.032,0.016 -0.068,0.021l-0.338,-0.021l-0.292,0.028l-0.308,-0.059l-0.355,-0.049l-0.329,-0.082l-0.337,-0.039l-0.336,-0.134l-0.244,-0.227l-0.056,0.181l-0.186,0.272l-0.401,0.087l-0.362,0.083l-0.316,-0.079c-0.304,0 -0.304,0 -0.607,0.013l-0.293,-0.073c-0.022,-0.019 -0.022,-0.019 -0.04,-0.041l-0.126,0.07l-0.294,0.063l-0.237,0.127c-0.03,0.001 -0.03,0.001 -0.059,-0.006l-0.22,-0.094l-0.223,0.119l-0.103,-0.065l0.004,-0.168l-0.215,0.001c-0.027,-0.004 -0.027,-0.004 -0.051,-0.014l-0.191,-0.113l-0.1,0.037l-0.126,0.122c0.106,0.243 0.111,0.242 0.265,0.458l0.06,0.31l0.089,0.111l0.082,-0.072l0.146,-0.26l0.285,-0.108l0.337,-0.094l0.181,0.048c0.237,0.031 0.303,-0.002 0.46,-0.105l0.176,-0.08l0.211,-0.028c0.075,0.032 0.079,0.143 0.079,0.143l0.272,0.01l0.225,-0.031c0.031,0 0.031,0 0.06,0.01l0.22,0.112l0.254,0.118l0.281,-0.001l0.349,0.033l0.26,0.126l0.335,0.121l0.205,0.196l0.241,0.058l0.245,0.064l0.339,-0.056l0.075,0.097l-0.037,0.077l-0.234,0.177l-0.313,0.077l-0.274,0.005l-0.236,0.111l-0.343,0.108l-0.317,0.012l-0.312,-0.031l-0.28,-0.073l-0.295,0.025l-0.167,-0.024l-0.277,0.064c-0.252,0.025 -0.252,0.027 -0.504,0.042l-0.401,-0.084l-0.227,-0.169c-0.252,-0.098 -0.399,-0.084 -0.642,-0.069l-0.023,0.205c-0.009,0.033 -0.009,0.033 -0.03,0.061l-0.225,0.218c-0.026,0.018 -0.026,0.018 -0.055,0.027l-0.315,0.045l-0.31,0.057l-0.186,0.007l-0.074,0.031l-0.011,0.126l-0.074,0.107l-0.073,0.182c0,0 -0.094,0.126 -0.193,0.096c-0.029,-0.009 -0.107,-0.032 -0.137,-0.071l-0.097,0.106c-0.056,0.049 -0.029,0.027 -0.029,0.027l0.239,0.059l0.033,0.116l-0.135,0.139l-0.238,0.156c-0.023,0.011 -0.023,0.011 -0.049,0.016l-0.224,0.012l-0.087,0.111l-0.246,0.175l-0.319,0.024l-0.273,0.02l-0.115,-0.049l-0.268,0.089c0,0 -0.038,-0.01 -0.073,-0.1l-0.299,0.058l-0.126,0.193l-0.266,0.146l-0.237,0.029c-0.071,0.249 -0.066,0.251 -0.107,0.507l-0.027,0.054l-0.24,0.237l-0.306,0.145l-0.374,0.089l-0.405,0.027c0,0 -0.065,0.019 -0.143,-0.029l-0.177,-0.14l-0.153,0.087c-0.031,0.011 -0.031,0.011 -0.064,0.012l-0.3,-0.045l-0.282,0.134l-0.343,0.094l-0.29,0.108l-0.293,0.072l-0.294,0.037l-0.326,0.034l-0.278,0.032c-0.034,-0.002 -0.034,-0.002 -0.065,-0.015l-0.153,-0.134l0.085,-0.118l0.067,-0.009l0.02,-0.147c0.032,-0.095 0.017,-0.056 0.017,-0.056c-0.342,-0.096 -0.343,-0.092 -0.693,-0.142l-0.383,-0.062l-0.354,-0.052l-0.352,-0.073l-0.354,-0.087l-0.323,-0.079c-0.453,-0.129 -0.739,-0.212 -1.005,-0.297c-0.036,-0.012 -0.61,-0.206 -0.651,-0.22c-0.129,-0.046 -0.518,-0.195 -0.646,-0.246c-0.823,-0.326 -1.648,-0.789 -2.033,-1.112c-0.08,-0.067 -0.154,-0.14 -0.23,-0.21l-0.237,-0.188l-0.272,-0.163c-0.111,-0.075 -0.262,-0.198 -0.262,-0.198l-0.237,-0.23l-0.179,-0.24c-0.012,-0.021 -0.012,-0.021 -0.018,-0.044l-0.047,-0.299c0,0 -0.058,-0.116 -0.058,-0.116c0.042,-0.221 0.106,-0.103 0.238,-0.042l0.115,-0.043l0.198,-0.15l-0.107,0.002l-0.269,-0.14c-0.285,-0.079 -0.285,-0.079 -0.573,-0.141l-0.033,-0.014c-0.256,-0.165 -0.256,-0.165 -0.51,-0.333l-0.29,0.001l-0.262,0.086l-0.207,0.187c-0.026,0.017 -0.026,0.017 -0.056,0.025l-0.317,0.035c-0.026,0 -0.026,0 -0.052,-0.008l-0.276,-0.124c-0.405,-0.035 -0.871,-0.068 -1.336,-0.024l-0.355,0.002l-0.359,0.017l-0.367,0.029l-0.348,-0.015l-0.262,-0.001l-0.263,0.089l-0.406,0.013l-0.233,-0.081l-0.266,0.113l-0.294,0.046l-0.269,0.006l-0.12,0.002c-0.274,-0.047 -0.274,-0.047 -0.547,-0.097l-0.217,0.101l-0.287,0.104c-0.087,0.029 -0.173,0.062 -0.26,0.089c-0.045,0.014 -0.624,0.176 -0.624,0.176c-0.3,0.029 -0.3,0.03 -0.6,0.047l-0.271,0.072l-0.341,0.043l-0.294,-0.017l-0.231,0.054l-0.331,0.068l-0.296,-0.027c-0.274,-0.021 -0.275,-0.02 -0.546,0.029l-0.291,0.048c-0.261,0.073 -0.261,0.073 -0.52,0.151c-0.207,0.05 -0.42,0.065 -0.632,0.083l-0.311,-0.007l-0.321,0.011l-0.176,-0.01c-0.239,0.072 -0.24,0.072 -0.464,0.183l-0.203,-0.024l-0.069,0.21c-0.026,0.053 -0.163,0.101 -0.163,0.101c-0.202,0.038 -0.158,-0.275 -0.158,-0.275c-0.11,0.013 -0.224,0.049 -0.397,0.186c0,0 -0.032,0.063 -0.133,-0.007l-0.115,-0.115l-0.233,-0.058l-0.136,-0.072l-0.1,0.095l-0.163,-0.065l-0.276,-0.046l-0.169,-0.096c-0.233,0.049 -0.232,0.049 -0.464,0.1l-0.306,-0.069l-0.24,-0.124l-0.225,-0.206l-0.209,-0.241c-0.166,-0.213 -0.234,-0.291 -0.381,-0.518c-0.076,-0.116 -0.175,-0.29 -0.175,-0.29c-0.045,-0.101 -0.093,-0.201 -0.135,-0.304c0,0 -0.236,-0.661 -0.236,-0.661l-0.012,-0.38c0,0 0.09,-0.178 0.005,-0.203c-0.187,-0.073 -0.193,-0.419 0.01,-0.418l0.227,-0.003l0.241,-0.075l0.119,0.027c0,0 0.272,0.016 0.272,0.016c-0.007,-0.015 -0.013,-0.03 -0.02,-0.045c-0.056,-0.15 -0.031,-0.063 -0.134,-0.156c0,0 -0.014,0.034 -0.097,0.029l-0.347,-0.089l-0.287,-0.083l-0.248,-0.041c-0.221,-0.082 0.095,-0.284 0.095,-0.284c0.025,-0.014 0.026,-0.014 0.053,-0.02l0.289,-0.022c0.033,0.003 0.034,0.003 0.064,0.017l0.134,0.093c-0.095,-0.193 -0.104,-0.187 -0.222,-0.366l-0.157,-0.319l-0.104,-0.316l-0.135,-0.28l-0.184,-0.266l-0.161,-0.349l0.017,-0.171l-0.106,-0.102l-0.138,0.136l-0.387,-0.139l-0.231,-0.212c-0.093,-0.094 -0.215,-0.241 -0.215,-0.241l-0.166,-0.224l-0.243,-0.1l-0.315,-0.081l-0.267,-0.181l-0.197,-0.231l-0.191,-0.138l-0.226,0.036l-0.337,-0.114l-0.273,-0.17l-0.262,-0.207l-0.203,-0.229l-0.19,-0.176l-0.231,-0.055l-0.282,0.058l-0.325,-0.033l-0.293,0.059l-0.287,0.005l-0.311,0.006l-0.328,-0.11l-0.208,-0.222l-0.167,-0.121l-0.302,-0.02l-0.248,-0.126l-0.323,0.008l-0.294,-0.116l-0.23,-0.125l-0.227,0.107l-0.271,0.169l-0.339,0.15l-0.353,-0.023l-0.356,-0.064l-0.333,-0.061l-0.313,-0.027l-0.226,0.136l-0.172,0.234c-0.016,0.016 -0.03,0.036 -0.089,0.041l-0.342,-0.031c-0.026,-0.006 -0.026,-0.006 -0.05,-0.019l-0.247,-0.181l-0.073,0.141c-0.028,0.019 -0.028,0.02 -0.061,0.029l-0.215,0.052l-0.133,-0.015l-0.247,0.106c-0.066,-0.009 -0.065,-0.014 -0.128,-0.035l-0.166,0.078l-0.246,0.139l-0.283,0.063l-0.313,-0.061c-0.03,-0.012 -0.03,-0.012 -0.055,-0.032l-0.15,-0.167c-0.031,-0.05 -0.059,-0.118 -0.059,-0.118l-0.126,-0.082l-0.104,-0.185l-0.144,-0.032l-0.048,-0.197l-0.079,-0.006l-0.185,0.137c-0.018,0.01 -0.035,0.024 -0.09,0.015l-0.218,-0.069c-0.136,-0.006 -0.137,-0.02 -0.271,0.002l0.039,0.083c0.008,0.029 0.008,0.029 0.007,0.06l-0.047,0.263c-0.018,0.053 -0.037,0.061 -0.054,0.072l-0.212,0.097l-0.206,0.015l-0.179,0.12c-0.062,0.005 -0.08,-0.014 -0.099,-0.028l-0.165,-0.177l-0.01,0.102l-0.068,0.231l-0.18,0.209l-0.229,0.287l-0.31,0.124c-0.023,0.006 -0.023,0.006 -0.047,0.006l-0.313,-0.032c-0.042,-0.009 -0.042,-0.011 -0.082,-0.026l-0.245,0.15l-0.205,0.07l-0.296,0.152l-0.291,0.066l-0.297,0.199l-0.337,-0.04l-0.235,0.001c0,0 0.095,0.066 0.004,0.171l-0.209,0.163l-0.241,0.107l-0.342,0.031l-0.361,0.048l-0.365,-0.035l-0.34,0.05c-0.32,0.049 -0.32,0.051 -0.623,0.164l-0.38,0.057l-0.33,0.07c-0.275,0.135 -0.275,0.136 -0.532,0.302l-0.301,0.148l-0.182,0.13l-0.28,0.152l-0.278,0.159l-0.286,0.161c-0.299,0.148 -0.299,0.148 -0.603,0.282c0,0 -0.223,0.159 -0.45,0.248l-0.313,0.124l-0.305,0.124l-0.321,0.075l-0.318,0.091l-0.374,0.047l-0.386,-0.049l-0.348,0.009l-0.174,0.086l-0.052,0.074l0.146,0.113l0.293,0.091c0.19,0.175 0.047,0.229 0.047,0.229l-0.198,0.125l0.046,0.278l0.06,0.396l-0.081,0.077l-0.34,0.052l-0.368,-0.041l-0.354,0.029l-0.055,0.001l0.205,0.174l0.09,0.222l0.038,0.269l-0.002,0.251c0.02,0.085 0.036,0.171 0.062,0.255c0.035,0.113 0.183,0.445 0.183,0.445c-0.003,0.023 -0.001,0.048 -0.045,0.09l-0.225,0.149l-0.051,0.195l0.18,0.152l0.254,0.188l0.246,0.201c0.024,0.029 0.024,0.03 0.036,0.065l0.042,0.333c-0.001,0.028 -0.001,0.028 -0.009,0.055l-0.128,0.271l-0.009,0.161l0.16,0.116l0.21,0.223l0.11,0.284c0.119,0.246 0.125,0.245 0.324,0.433l0.028,0.048l0.073,0.294c0.145,0.205 0.363,0.337 0.578,0.467l0.234,0.28l0.161,0.275l0.138,0.337l0.035,0.323l0.039,0.254c0.153,0.171 0.153,0.17 0.319,0.328l0.278,0.098c0.022,0.011 0.022,0.011 0.04,0.027l0.107,0.116c0.198,0.225 0.196,0.226 0.376,0.466l0.185,0.313l0.081,0.361c-0.011,0.046 -0.049,0.087 -0.066,0.106l0.069,0.142c0.174,0.23 0.374,0.526 0.374,0.526l-0.009,0.264l-0.105,0.27l-0.026,0.345l-0.083,0.348l-0.119,0.307l-0.095,0.298l0.038,0.316l0.113,0.317l-0.024,0.374l0.014,0.364l0.069,0.2l0.033,0.317c-0.015,0.033 -0.015,0.033 -0.041,0.059l-0.242,0.168c-0.265,0.171 -0.265,0.171 -0.54,0.323l-0.223,0.18c-0.196,0.18 -0.199,0.177 -0.374,0.378l-0.08,0.272c-0.011,0.023 -0.011,0.023 -0.026,0.043l-0.257,0.239l-0.217,0.081c-0.25,0.158 -0.25,0.158 -0.494,0.325l-0.026,0.012c-0.337,0.108 -0.337,0.108 -0.676,0.208l-0.339,0.106c-0.305,0.084 -0.382,0.115 -0.696,0.163c-0.139,0.022 -0.343,0.038 -0.343,0.038l-0.395,-0.004c-0.027,-0.014 -0.027,-0.014 -0.049,-0.035l-0.132,-0.174c-0.047,-0.009 -0.092,-0.021 -0.139,-0.026c-0.097,-0.01 -0.566,-0.043 -0.566,-0.043c-0.029,-0.02 -0.03,-0.021 -0.05,-0.05l-0.077,-0.171l-0.215,-0.06l-0.213,-0.117c-0.093,-0.148 -0.057,-0.192 -0.032,-0.271c0.044,-0.139 0.231,0.042 0.176,-0.245l-0.079,-0.223l-0.016,-0.228c0,0 -0.074,0.076 -0.16,0.027l-0.131,-0.11l-0.239,0.118l-0.074,-0.122l0.037,-0.141c0.014,-0.032 0.014,-0.032 0.039,-0.056l0.234,-0.165l0.203,-0.26c0,0 0.088,-0.045 0.148,-0.042c0.033,0.002 0.088,0.033 0.109,0.042l0.015,-0.044l-0.088,-0.306l0.071,-0.156c0.011,-0.052 0.014,-0.051 0.034,-0.1l-0.218,0.073c-0.063,0.009 -0.083,-0.01 -0.104,-0.025c0,0 -0.143,-0.224 -0.17,-0.135c0,0 -0.01,0.1 -0.139,0.064l-0.059,-0.097c0.012,-0.066 0.015,-0.07 0.017,-0.095c0.005,-0.053 0.001,-0.129 0.001,-0.129l-0.165,-0.09l-0.266,-0.002l-0.089,0.021l-0.06,0.181c-0.076,0.136 -0.274,0.018 -0.274,0.018c-0.056,-0.029 -0.086,-0.063 -0.058,-0.145l0.124,-0.218c0.016,-0.021 0.016,-0.021 0.038,-0.038c0,0 0.171,-0.124 0.171,-0.124l-0.263,-0.171l-0.24,-0.119l-0.194,-0.226c0,0 -0.247,0.192 -0.164,-0.247l-0.046,-0.186l-0.172,0.029c-0.236,-0.005 -0.008,-0.3 -0.008,-0.3l0.067,-0.192c0.029,-0.023 0.029,-0.024 0.065,-0.035c0,0 -0.312,-0.421 -0.449,-0.59c-0.175,-0.216 -0.224,-0.266 -0.41,-0.475l-0.203,-0.262l-0.177,-0.305l-0.076,-0.304c-0.004,-0.059 0.013,-0.076 0.026,-0.095l0.18,-0.18l0.213,-0.212l0.172,-0.252c0.171,-0.269 0.17,-0.271 0.284,-0.569l0.143,-0.296c0.119,-0.316 0.117,-0.317 0.205,-0.644l0.031,-0.05l0.266,-0.22l0.207,-0.078l0.277,-0.11l0.071,-0.174c0.017,-0.028 0.017,-0.028 0.042,-0.049l0.201,-0.117l0.103,-0.312l0.164,-0.236l0.121,-0.341l0.137,-0.199l0.139,-0.325l0.213,-0.241l0.245,-0.227l0.263,-0.162l0.249,-0.201l0.267,-0.167l0.186,-0.066c0.032,-0.264 0.017,-0.265 -0.022,-0.528l0.089,-0.301c0.081,-0.244 0.077,-0.247 0.079,-0.504l0.013,-0.236c0.005,-0.025 0.005,-0.025 0.015,-0.047l0.109,-0.173l0.085,-0.191l-0.022,-0.218l-0.036,-0.124l-0.176,-0.162l-0.218,-0.135l-0.225,-0.263l-0.121,-0.286l-0.161,-0.294l-0.129,-0.34l-0.058,-0.368l0.007,-0.228c-0.183,-0.205 -0.186,-0.204 -0.413,-0.359c0,0 -0.041,-0.014 -0.042,-0.1l0.072,-0.229l0.332,-0.062c0.031,0 0.032,0 0.062,0.01l0.281,0.146l0.276,0.091l0.138,0.059l0.135,0.025c0,0 0.131,-0.029 -0.023,-0.074l-0.329,-0.169l-0.298,-0.15l-0.279,-0.17c-0.113,-0.077 -0.268,-0.203 -0.268,-0.203c-0.355,-0.325 -0.691,-0.678 -0.959,-1.098c-0.031,-0.049 -0.334,-0.567 -0.334,-0.567c-0.36,-0.777 -0.527,-1.39 -0.583,-2.112l0.024,-0.45l0.121,-0.381l0.343,-0.162l0.319,-0.137l0.333,-0.107l0.299,-0.116l0.356,-0.08l0.357,-0.069l0.341,-0.09l0.329,-0.111l0.287,-0.085l0.308,-0.012c0.118,-0.016 0.235,-0.028 0.352,-0.048c0.256,-0.044 0.356,-0.076 0.602,-0.141l0.2,-0.018l0.153,-0.049l0.197,-0.199l0.216,-0.035l0.155,-0.204l0.154,-0.074c-0.124,-0.082 -0.178,-0.178 -0.453,-0.025l-0.041,0.021l-0.422,0.145c-0.428,0.118 -0.428,0.118 -0.857,0.231l-0.422,0.127c-0.281,0.094 -0.561,0.188 -0.842,0.282l-0.43,0.124c-0.531,0.136 -0.927,0.229 -1.297,0.31l-0.398,0.101c-0.08,0.093 -0.172,0.179 -0.242,0.281c-0.025,0.038 -0.399,0.736 -0.417,0.771l-0.214,0.389c-0.213,0.39 -0.213,0.39 -0.42,0.782l-0.219,0.385c-0.211,0.389 -0.423,0.779 -0.634,1.169l-0.226,0.407l-0.279,0.319c-0.017,0.013 -0.031,0.031 -0.09,0.033l-0.428,-0.064l-0.367,-0.045l-0.381,0.147l-0.368,0.148l-0.267,0.092l-0.082,0.329c-0.222,0.346 -0.222,0.346 -0.449,0.688l-0.229,0.398l-0.322,0.344l-0.343,0.18c-0.24,0.314 -0.237,0.32 -0.374,0.691l-0.167,0.388l-0.186,0.374l-0.171,0.368l-0.215,0.412c-0.288,0.301 -0.287,0.302 -0.596,0.582l-0.105,0.394l-0.161,0.399c-0.013,0.022 -0.013,0.022 -0.03,0.04l-0.283,0.23l0.022,0.412l-0.112,0.378l0.024,0.433l-0.047,0.43l0.015,0.451l-0.106,0.386l-0.014,0.424c-0.004,0.023 -0.004,0.023 -0.013,0.045l-0.2,0.364l-0.117,0.406l-0.189,0.379l-0.125,0.389l0.046,0.371l0.177,0.252c0.014,0.029 0.014,0.029 0.018,0.06l-0.007,0.35c-0.007,0.035 -0.007,0.036 -0.026,0.066l-0.284,0.31l-0.155,0.413l-0.241,0.358l-0.164,0.386l-0.133,0.405l-0.136,0.386c-0.03,0.053 -0.055,0.057 -0.076,0.065l-0.385,0.07c-0.245,0.313 -0.245,0.314 -0.425,0.669l-0.206,0.38l-0.321,0.27c-0.203,0.375 -0.202,0.376 -0.358,0.772c-0.077,0.171 -0.209,0.412 -0.209,0.412l-0.218,0.348c-0.018,0.022 -0.018,0.022 -0.042,0.037l-0.286,0.138l-0.045,0.149l0.118,-0.062c0.028,-0.01 0.028,-0.01 0.057,-0.012l0.448,0.046l0.38,0.107l0.38,-0.173l0.379,-0.037l0.255,-0.291c0.026,-0.021 0.026,-0.021 0.057,-0.033l0.357,-0.068l0.254,-0.252l0.351,-0.236c0.035,-0.002 0.036,-0.002 0.07,0.008l0.269,0.134c0.018,0.013 0.041,0.024 0.055,0.084l0.019,0.351l0.238,0.277c0.008,0.031 0.008,0.031 0.005,0.064l-0.091,0.357c0.113,0.257 0.119,0.255 0.297,0.471l0.293,-0.115l0.288,-0.245l0.407,-0.016c0.008,0.003 0.016,0.006 0.024,0.009Zm99.149,-6.565c0.059,0.012 0.236,0.019 -0.022,-0.004c0.008,0.001 0.015,0.003 0.022,0.004Zm-30.978,-1.538c0,0 0.107,-0.004 0.107,-0.004c0,0 -0.1,-0.061 -0.107,0.004Zm6.771,-2.844l0.017,0.085c-0.022,0.184 0.024,-0.098 0.024,-0.098c-0.014,0.004 -0.027,0.008 -0.041,0.013Zm-32.327,-1.05c0,0 0.023,-0.001 0,0Zm-2.634,-2.677c0,0 0.11,-0.121 0,0Zm-0.061,-1.088c0,0 0.037,-0.003 0,0Zm0.598,0.008c0,0 0,-0.02 0,0Zm-15.961,-11.091l-0.243,0.168l-0.259,0.172l-0.241,0.234l-0.336,0.12l-0.277,0.047l0.003,0.22l-0.153,0.294l-0.158,0.278l-0.12,0.304c-0.129,0.281 -0.129,0.281 -0.27,0.556l-0.03,0.306l0.094,0.218l0.175,0.161c0.015,0.018 0.015,0.018 0.026,0.039l0.086,0.234c0.05,0.163 0.046,0.03 0.046,0.03l0.145,0.012l0.206,0.281c0,0 0.057,0.113 -0.014,0.204l-0.092,0.147l-0.022,0.177l0.021,0.177l-0.082,0.258l-0.076,0.156l0.278,0.12l0.297,-0.07l0.309,-0.049c0.313,-0.079 0.313,-0.079 0.62,-0.176l0.251,-0.059l0.296,-0.101l0.275,-0.074l0.274,0.005c0.024,0.031 0.024,0.031 0.042,0.066l0.152,-0.048l0.161,-0.045l0.246,-0.124l0.274,-0.038l0.215,-0.06c-0.035,-0.055 -0.04,-0.09 -0.04,-0.09l-0.022,-0.327l-0.02,-0.251l-0.023,-0.304c-0.139,-0.196 -0.295,-0.3 -0.111,-0.36c0,0 0.104,0.024 0.132,0.037l-0.07,-0.331l0.014,-0.39c-0.014,-0.183 -0.019,-0.332 -0.073,-0.515c-0.04,-0.137 -0.188,-0.394 -0.252,-0.512l-0.147,-0.285c-0.029,-0.051 -0.257,-0.463 -0.298,-0.516c-0.055,-0.068 -0.127,-0.12 -0.19,-0.181l-0.281,-0.066l-0.266,-0.097l-0.252,-0.066c-0.073,0.038 -0.147,0.076 -0.22,0.114Z" style="" fill-rule="nonzero"></path><path d="M17.304,20.903c0.076,0.008 0.308,0.194 0.42,0.45c0.028,0.076 -0.132,0.154 -0.161,0.073l-0.058,-0.176l-0.195,-0.071c-0.114,-0.053 -0.254,-0.116 -0.194,-0.169c0.059,-0.045 0.126,-0.109 0.188,-0.107Zm-0.051,0.139c0.409,0.189 0.046,-0.029 0.046,-0.029c-0.015,0.01 -0.031,0.02 -0.046,0.029Z" style="" fill-rule="nonzero"></path><path d="M72.885,20.937c0.009,0.001 0.017,0.004 0.025,0.009l0.264,0.179l0.304,0.114c0.129,-0.055 0.285,-0.104 0.237,0l-0.016,0.031c0.057,0.088 0.148,0.158 0.157,0.253c-0.001,0.101 0.014,0.229 -0.048,0.252c-0.189,0.043 -0.422,0.045 -0.422,0.045c-0.23,0.067 -0.366,0.056 -0.542,0.04l-0.33,-0.103l-0.289,-0.101l-0.3,-0.068c-0.087,-0.026 0.04,-0.262 0.071,-0.291c0.17,-0.132 0.364,-0.226 0.564,-0.307c0,0 0.192,-0.053 0.325,-0.053Zm-0.293,0.148c-0.277,0.112 -0.278,0.113 -0.523,0.283l-0.062,0.136l0.249,0.057l0.289,0.101l0.314,0.098c0.26,0.014 0.264,0.032 0.513,-0.04c0.053,-0.012 0.076,0.014 0.076,0.014l0.298,-0.05l0.009,-0.146c-0.064,-0.098 -0.159,-0.244 -0.159,-0.244c-0.015,0.007 -0.029,0.014 -0.043,0.021c-0.133,0.061 -0.307,-0.031 -0.431,-0.104l-0.252,-0.172c-0.092,0.016 -0.185,0.031 -0.278,0.046Z" style="" fill-rule="nonzero"></path><path d="M85.486,19.318c0,0 0.099,0.009 0.132,0.044l0.197,0.24c0.004,0.006 0.004,0.006 0.007,0.013l0.092,0.22c0.068,0.143 0.207,0.444 0.288,0.582c0.397,0.671 0.253,0.493 0.216,0.528l-0.156,0.123l-0.126,0.167l-0.104,0.091c-0.008,0.005 -0.008,0.005 -0.017,0.007l-0.244,0.041l-0.215,0.144l-0.035,0.346c-0.008,0.042 -0.018,0.045 -0.055,0.045l-0.278,-0.028c-0.258,-0.092 -0.234,-0.157 -0.234,-0.157c0,0 -0.023,0.087 -0.073,0.101l-0.288,0.053l-0.253,0.165l-0.315,0.086c-0.136,0.024 -0.079,-0.172 -0.079,-0.172c-0.196,-0.104 -0.195,-0.111 -0.414,-0.147c0,0 -0.035,-0.014 -0.041,-0.042l-0.028,-0.192l-0.146,-0.099l-0.237,-0.202l-0.09,-0.067l-0.071,0.097c-0.097,0.086 -0.253,0.193 -0.253,0.193c-0.01,0.004 -0.018,0.005 -0.029,0.004l-0.334,-0.051l-0.278,-0.08c-0.268,-0.041 -0.268,-0.04 -0.538,-0.068c-0.2,-0.034 -0.392,-0.102 -0.583,-0.17c0,0 -0.046,-0.022 -0.029,-0.069l0.078,-0.162l0.149,-0.234l-0.019,-0.208c0.004,-0.021 0.006,-0.037 0.043,-0.045l0.3,-0.041l0.302,-0.115l0.314,0.005l0.293,-0.103l0.298,-0.099c0.042,-0.009 0.049,-0.002 0.064,0.032l0.069,0.209l0.079,0.22l0.228,0.189c0.088,0.052 0.169,0.118 0.264,0.157c0.291,0.118 0.401,0.088 0.712,0.089l0.204,-0.162l0.055,-0.285l0.101,-0.275c0.004,-0.005 0.006,-0.011 0.023,-0.02l0.238,-0.099l-0.057,-0.18c0,-0.04 0.016,-0.046 0.038,-0.054l0.23,-0.057c0.073,-0.035 0.154,-0.056 0.218,-0.105c0.069,-0.052 0.343,-0.393 0.343,-0.393c0.012,-0.008 0.014,-0.014 0.044,-0.01Zm-0.131,0.272l-0.204,0.217l-0.241,0.114l-0.183,0.046l0.055,0.173c0,0.02 0.001,0.035 -0.031,0.052l-0.26,0.108c-0.095,0.26 -0.092,0.261 -0.144,0.533l-0.249,0.215c-0.011,0.007 -0.019,0.01 -0.032,0.011l-0.405,-0.003c-0.149,-0.029 -0.363,-0.094 -0.363,-0.094c-0.192,-0.097 -0.361,-0.233 -0.528,-0.37l-0.099,-0.257l-0.054,-0.162l-0.25,0.082l-0.318,0.109l-0.313,-0.005l-0.291,0.113l-0.258,0.035l0.016,0.176c-0.001,0.009 -0.003,0.016 -0.007,0.024l-0.157,0.246l-0.049,0.104l0.226,0.081c0.289,0.067 0.289,0.066 0.584,0.097l0.25,0.039l0.277,0.08l0.304,0.046l0.216,-0.165l0.099,-0.134c0.031,-0.023 0.044,-0.014 0.063,-0.003l0.133,0.099l0.238,0.202l0.158,0.107c0.011,0.009 0.018,0.021 0.021,0.034l0.025,0.177l0.186,0.033l0.246,0.131c0.057,0.038 0.038,0.137 0.038,0.137c0.264,-0.072 0.265,-0.077 0.493,-0.229l0.292,-0.058c0.168,-0.336 0.059,-0.31 0.18,-0.261l0.179,0.095c0.081,0.069 0.181,0.191 0.076,0.196c0,0 -0.193,-0.041 -0.072,0.017l0.225,0.027l0.032,-0.32c0.002,-0.016 0.01,-0.028 0.022,-0.037l0.244,-0.163c0.006,-0.004 0.012,-0.006 0.019,-0.008l0.24,-0.04c0.115,-0.104 0.109,-0.11 0.201,-0.235l0.147,-0.117c-0.015,-0.079 -0.013,-0.08 -0.04,-0.156l-0.177,-0.264l-0.151,-0.292c-0.121,-0.254 -0.123,-0.253 -0.231,-0.513l-0.181,-0.222l-0.06,-0.015c-0.046,0.056 -0.092,0.111 -0.137,0.167Zm-0.356,2.044c0,0 0.139,0.012 0.139,0.012c0,0 -0.099,-0.106 -0.139,-0.012Z" style="" fill-rule="nonzero"></path><path d="M79.001,12.838c0.211,0.029 0.391,0.196 0.53,0.384c0.03,0.049 0.07,0.325 0.004,0.377c-0.101,0.067 -0.238,0.145 -0.292,0.136c-0.217,-0.052 -0.498,-0.227 -0.515,-0.244c-0.013,-0.016 -0.016,-0.036 -0.008,-0.055l0.113,-0.244c0.054,-0.148 0.09,-0.358 0.168,-0.354Zm-0.075,0.392l-0.096,0.207l0.194,0.113l0.226,0.082l0.204,-0.104l-0.014,-0.259l-0.164,-0.206l-0.25,-0.108c-0.034,0.092 -0.067,0.183 -0.1,0.275Z" style="" fill-rule="nonzero"></path><path d="M19.483,13.296c0.088,0.006 0.009,0.146 -0.101,0.173c0,0 -0.085,-0.001 -0.118,0.082c-0.04,0.087 -0.275,-0.04 -0.193,-0.098c0.125,-0.08 0.273,-0.161 0.412,-0.157Z" style="" fill-rule="nonzero"></path><path d="M30.176,15.87c0.073,0.006 0.292,0.172 0.522,0.282c0.096,0.052 0.075,0.218 -0.167,0.15c-0.061,-0.021 -0.21,-0.181 -0.267,-0.201c-0.135,-0.043 -0.351,-0.105 -0.111,-0.227c0.008,-0.003 0.015,-0.005 0.023,-0.004Z" style="" fill-rule="nonzero"></path><path d="M65.545,13.56c0.153,0.011 0.371,0.011 0.354,0.095c-0.041,0.135 -0.081,0.316 -0.134,0.347c-0.099,0.047 -0.218,0.12 -0.273,0.101c-0.201,-0.09 -0.389,-0.205 -0.56,-0.345c-0.103,-0.099 0.243,-0.199 0.613,-0.198Zm-0.319,0.131l-0.153,0.049l0.174,0.131l0.265,0.13l0.19,-0.081l0.08,-0.234l-0.239,-0.026c-0.106,0.011 -0.211,0.021 -0.317,0.031Z" style="" fill-rule="nonzero"></path><path d="M61.274,13.502c0.064,0.008 0.052,0.077 0.092,0.193c0.025,-0.065 0.061,-0.155 0.116,-0.102c0.047,0.055 0.113,0.114 0.089,0.162c0,0 -0.229,0.236 -0.077,0.184c0.055,-0.016 0.239,0.01 -0.091,0.207c-0.005,0.003 -0.006,0.004 -0.019,0.006l-0.373,0.035c-0.141,0.008 -0.294,0.074 -0.4,-0.036c-0.077,-0.095 0.301,-0.082 0.301,-0.082l0.199,-0.129l0.127,-0.167c0.013,-0.109 -0.056,-0.274 0.036,-0.271Zm-0.089,0.505c-0.029,0.035 -0.108,0.074 -0.108,0.074l0.228,-0.022c0.017,-0.099 0.125,-0.192 0.063,-0.197c-0.025,-0.002 -0.049,-0.03 -0.049,-0.03c-0.045,0.058 -0.089,0.117 -0.134,0.175Zm0.255,-0.222c0,0 0.05,-0.136 0,0Z" style="" fill-rule="nonzero"></path><path d="M84.553,22.443c0.004,0 0.008,0.001 0.012,0.002l0.287,0.095c0.124,0.022 0.277,0 0.369,0.072c0.09,0.083 0.214,0.191 0.227,0.235c0.029,0.137 0.087,0.314 0.011,0.336c-0.196,0.04 -0.445,0.129 -0.623,-0.052c-0.054,-0.056 0.035,-0.149 0.035,-0.149c-0.037,-0.003 -0.074,-0.007 -0.112,-0.012c-0.252,-0.036 -0.275,-0.253 -0.259,-0.483c0.004,-0.026 0.024,-0.045 0.053,-0.044Zm0.04,0.286l0.129,0.133c0.099,0.023 0.226,0 0.283,0.054c0.069,0.065 -0.084,0.154 -0.084,0.154c0.072,0.038 0.157,0.048 0.239,0.06l0.229,-0.037l-0.036,-0.209l-0.189,-0.187c-0.137,-0.024 -0.34,-0.061 -0.34,-0.061l-0.226,-0.075c-0.002,0.056 -0.004,0.112 -0.005,0.168Z" style="" fill-rule="nonzero"></path><path d="M113.189,36.51c0.076,0.008 0.254,0.229 0.257,0.298c-0.005,0.123 0.006,0.284 -0.07,0.286l-0.292,-0.004c-0.115,0.167 -0.238,0.33 -0.381,0.474c-0.131,0.111 -0.392,0.208 -0.383,0.09l0.026,-0.207c0.017,-0.124 0.013,-0.255 0.052,-0.367c0.052,-0.114 0.083,-0.278 0.177,-0.321l0.314,-0.128c0.113,-0.048 0.263,-0.121 0.3,-0.121Zm-0.262,0.213l-0.297,0.121l-0.137,0.27c-0.021,0.155 -0.043,0.31 -0.063,0.465l0.209,-0.094c0.205,-0.223 0.205,-0.224 0.377,-0.474c0.012,-0.016 0.026,-0.021 0.042,-0.022l0.273,0.005l0.014,-0.169l-0.173,-0.205c-0.081,0.035 -0.163,0.069 -0.245,0.103Z" style="" fill-rule="nonzero"></path><path d="M113.734,37.165c0.08,0.01 0.278,0.249 0.242,0.331c-0.064,0.117 -0.116,0.269 -0.204,0.335c-0.141,0.091 -0.32,0.239 -0.356,0.141c-0.035,-0.121 -0.084,-0.282 -0.073,-0.325c0.042,-0.125 0.096,-0.295 0.129,-0.322c0.085,-0.061 0.172,-0.165 0.262,-0.16Zm-0.191,0.232l-0.1,0.267l0.053,0.215l0.232,-0.161l0.143,-0.241l-0.153,-0.195c-0.058,0.038 -0.116,0.077 -0.175,0.115Z" style="" fill-rule="nonzero"></path><path d="M113.183,39.137c0.123,0.016 -0.195,0.272 -0.285,0.235c-0.121,-0.057 -0.291,-0.115 -0.266,-0.187c0.082,-0.191 0.195,-0.368 0.368,-0.484c0.096,-0.055 0.143,0.231 0.112,0.32c-0.018,0.052 -0.044,0.101 -0.069,0.15c0.047,-0.013 0.097,-0.039 0.14,-0.034Zm-0.332,-0.183l-0.106,0.226l0.181,0.094c0.055,-0.012 -0.015,-0.049 0.009,-0.109c0.04,-0.089 0.089,-0.198 0.089,-0.198l-0.029,-0.132c-0.048,0.039 -0.096,0.079 -0.144,0.119Z" style="" fill-rule="nonzero"></path><path d="M114.279,41.369c0.005,0.001 0.01,0.002 0.014,0.003l0.253,0.094c0.099,-0.001 0.227,-0.027 0.252,0.032c0.036,0.11 0.1,0.247 0.036,0.279c-0.24,0.096 -0.599,0.127 -0.648,0.082c-0.089,-0.097 -0.221,-0.209 -0.171,-0.267c0.084,-0.084 0.166,-0.225 0.264,-0.223Zm-0.158,0.261l0.124,0.144l0.276,0.009l0.231,-0.083l-0.039,-0.135c-0.081,0 -0.193,-0.003 -0.193,-0.003l-0.233,-0.085c-0.055,0.051 -0.11,0.102 -0.166,0.153Z" style="" fill-rule="nonzero"></path></svg>