<svg height='100px' width='100px'  fill="#000000" xmlns:dc="http://purl.org/dc/elements/1.1/" xmlns:cc="http://creativecommons.org/ns#" xmlns:rdf="http://www.w3.org/1999/02/22-rdf-syntax-ns#" xmlns:svg="http://www.w3.org/2000/svg" xmlns="http://www.w3.org/2000/svg" xmlns:sodipodi="http://sodipodi.sourceforge.net/DTD/sodipodi-0.dtd" xmlns:inkscape="http://www.inkscape.org/namespaces/inkscape" viewBox="0 0 100 100" version="1.1" x="0px" y="0px"><g transform="translate(0,-952.36216)"><path style="color:#000000;font-style:normal;font-variant:normal;font-weight:normal;font-stretch:normal;font-size:medium;line-height:normal;font-family:sans-serif;text-indent:0;text-align:start;text-decoration:none;text-decoration-line:none;text-decoration-style:solid;text-decoration-color:#000000;letter-spacing:normal;word-spacing:normal;text-transform:none;direction:ltr;block-progression:tb;writing-mode:lr-tb;baseline-shift:baseline;text-anchor:start;white-space:normal;clip-rule:nonzero;display:inline;overflow:visible;visibility:visible;opacity:1;isolation:auto;mix-blend-mode:normal;color-interpolation:sRGB;color-interpolation-filters:linearRGB;solid-color:#000000;solid-opacity:1;fill:#000000;fill-opacity:1;fill-rule:evenodd;stroke:none;stroke-width:8;stroke-linecap:round;stroke-linejoin:round;stroke-miterlimit:4;stroke-dasharray:none;stroke-dashoffset:0;stroke-opacity:1;color-rendering:auto;image-rendering:auto;shape-rendering:auto;text-rendering:auto;enable-background:accumulate" d="m 23.40595,961.53128 a 0.74253873,0.74253873 0 0 0 -0.40458,0.1121 l -7.07734,4.4105 -4.52693,-1.0375 -2.0689696,-2.9558 a 0.74253873,0.74253873 0 0 0 -0.97666,-0.2189 l -2.97747,1.7013 a 0.74253873,0.74253873 0 0 0 -0.37159,0.7048 l 0.63805,7.8687 a 0.74253873,0.74253873 0 0 0 0.0555,0.2273 l 4.4656596,10.6335 a 0.74253873,0.74253873 0 0 0 0.47528,0.4248 l 3.0217,0.889 -0.34513,3.2805 -3.12176,5.8263 a 0.74253873,0.74253873 0 0 0 0.11202,0.8574 l 2.97711,3.1899 a 0.74253873,0.74253873 0 0 0 0.10006,0.089 l 6.21814,4.62312 2.475,3.1264 -1.38414,2.2651 a 0.74253873,0.74253873 0 0 0 -0.0406,0.6983 l 0.90234,1.9547 a 0.74253873,0.74253873 0 0 0 0.81968,0.4169 l 0.42271,-0.084 -0.39552,2.0747 a 0.74253873,0.74253873 0 0 0 0.19105,0.6504 l 2.85748,3.0076 a 0.74253873,0.74253873 0 0 0 0.58766,0.2295 l 2.25567,-0.1505 a 0.74253873,0.74253873 0 0 0 0.69316,-0.7407 l 0,-0.5829 2.60588,0.9774 a 0.74253873,0.74253873 0 0 0 0.64277,-0.059 l 0.81279,-0.488 6.10974,12.3612 a 0.74253873,0.74253873 0 0 0 0.62428,0.4122 l 2.49785,0.1389 1.68359,1.1655 1.73218,2.3097 a 0.74253873,0.74253873 0 0 0 0.47564,0.2875 l 2.00661,0.3237 0.94875,1.4541 a 0.74253873,0.74253873 0 0 0 0.66307,0.3358 l 2.43657,-0.1353 2.18933,1.6419 a 0.74253873,0.74253873 0 0 0 1.03684,-0.1446 l 1.20578,-1.5865 1.43635,0 a 0.74253873,0.74253873 0 0 0 0.72796,-0.5967 l 0.0928,-0.464 1.73326,-1.2381 2.20129,-0.4165 1.94571,2.2495 0,1.4527 a 0.74253873,0.74253873 0 0 0 0.14864,0.4455 l 0.32773,0.4369 -0.30852,0.377 a 0.74253873,0.74253873 0 0 0 -0.0667,0.844 l 1.0528,1.8046 a 0.74253873,0.74253873 0 0 0 0.56228,0.3644 l 1.72239,0.1845 0.18888,0.3401 a 0.74253873,0.74253873 0 0 0 0.98681,0.2994 l 0.0196,0.052 a 0.74253873,0.74253873 0 0 0 0.63841,0.4792 l 0.97739,0.075 a 0.74253873,0.74253873 0 0 0 0.50247,-0.1464 l 0.0769,-0.058 1.35949,0.1044 0.476,0.5815 a 0.74253873,0.74253873 0 0 0 0.52495,0.2705 l 1.12783,0.075 a 0.74253873,0.74253873 0 0 0 0.33498,-0.055 l 0.59999,-0.2501 0.83092,0.3879 a 0.74253873,0.74253873 0 0 0 0.33389,0.069 l 2.68745,-0.072 1.86232,0.43 a 0.74253873,0.74253873 0 0 0 0.0366,0.01 l 2.03054,0.3626 1.80939,0.724 a 0.74253873,0.74253873 0 0 0 0.85014,-0.2194 l 0.67685,-0.8269 a 0.74253873,0.74253873 0 0 0 0.16023,-0.364 l 0.69607,-4.8039 1.45774,-0.7287 a 0.74253873,0.74253873 0 0 0 0.37739,-0.4459 l 0.16894,-0.5485 4.37104,-0.8197 a 0.74253873,0.74253873 0 0 0 0.60035,-0.8182 l -0.20773,-1.7311 0.10949,-0.3825 a 0.74253873,0.74253873 0 0 0 0.0239,-0.286 l -0.0754,-0.6769 a 0.74253873,0.74253873 0 0 0 -0.78706,-0.6587 l -1.22535,0.082 0.11311,-0.43 a 0.74253873,0.74253873 0 0 0 0.0156,-0.302 l -0.43758,-2.8455 0.0678,-0.8146 a 0.74253873,0.74253873 0 0 0 -0.23202,-0.6033 l -1.20325,-1.1278 a 0.74253873,0.74253873 0 0 0 -0.29437,-0.1693 l -2.8176,-0.8454 -0.93895,-0.9944 0,-0.6073 a 0.74253873,0.74253873 0 0 0 -0.0732,-0.3212 l -0.90234,-1.8797 a 0.74253873,0.74253873 0 0 0 -0.10514,-0.1613 l -1.79815,-2.1027 4.18288,-5.1552 a 0.74253873,0.74253873 0 0 0 0.16169,-0.5471 l -0.31903,-2.9774 a 0.74253873,0.74253873 0 0 0 -0.64856,-0.6577 l -3.64671,-0.4448 0.25595,-2.9002 a 0.74253873,0.74253873 0 0 0 -0.0515,-0.3434 l -1.85761,-4.59512 1.43018,-1.7872 a 0.74253873,0.74253873 0 0 0 -0.12108,-1.0478 l -1.29968,-1.0208 -0.2893,-1.0137 0.35674,-0.8925 0.2418,0 a 0.74253873,0.74253873 0 0 0 0.69534,-0.4818 l 0.31866,-0.8505 a 0.74253873,0.74253873 0 0 0 0.033,-0.4064 l -0.074,-0.3691 0.16422,-0.041 a 0.74253873,0.74253873 0 0 0 0.509,-0.4444 l 2.12661,-5.3169 a 0.74253873,0.74253873 0 0 0 -0.0402,-0.6362 l -0.88639,-1.5959 0.17546,-0.4093 a 0.74253873,0.74253873 0 0 0 0.0511,-0.4075 l -0.53147,-3.4024 a 0.74253873,0.74253873 0 0 0 -0.7537,-0.6279 l -3.3962,0.092 -0.35057,-0.9817 a 0.74253873,0.74253873 0 0 0 -0.26936,-0.3557 l -4.04041,-2.8708 a 0.74253873,0.74253873 0 0 0 -0.21498,-0.1055 l -3.44876,-1.0449 -1.64481,-0.8225 a 0.74253873,0.74253873 0 0 0 -0.22078,-0.07 l -3.15656,-0.4782 -0.9908,-1.7119 a 0.74253873,0.74253873 0 0 0 -0.68736,-0.369 l -3.50931,0.2128 a 0.74253873,0.74253873 0 0 0 -0.68917,0.6366 l -3.51909,0 a 0.74253873,0.74253873 0 0 0 -0.52495,0.2172 l -2.85965,2.8596 -4.30868,1.5386 a 0.74253873,0.74253873 0 0 0 -0.49014,0.7609 l 0.12362,1.4813 -0.4557,-0.1301 a 0.74253873,0.74253873 0 0 0 -0.39371,0 l -7.49715,1.9783 -3.82761,-0.687 -3.09638,-2.1284 -0.65908,-1.5074 a 0.74253873,0.74253873 0 0 0 -0.50429,-0.4238 l -4.06325,-0.9908 -0.62537,-1.0162 -0.61122,-2.7494 a 0.74253873,0.74253873 0 0 0 -0.83745,-0.5728 l -0.99334,0.153 -1.82244,-1.9628 0.81497,-0.4074 a 0.74253873,0.74253873 0 0 0 0.21752,-1.1638 l -0.43613,-0.48 0.88856,-0.4999 a 0.74253873,0.74253873 0 0 0 0.0653,-1.2529 l -2.55186,-1.8079 a 0.74253873,0.74253873 0 0 0 -0.41727,-0.1364 z m -0.0384,1.6336 1.192,0.8443 -0.67902,0.3822 a 0.74253873,0.74253873 0 0 0 -0.18526,1.1463 l 0.40387,0.4444 -0.82476,0.4126 a 0.74253873,0.74253873 0 0 0 -0.21209,1.1692 l 2.76503,2.9774 a 0.74253873,0.74253873 0 0 0 0.65691,0.2284 l 0.69533,-0.1069 0.48725,2.1926 a 0.74253873,0.74253873 0 0 0 0.0924,0.228 l 0.85086,1.3823 a 0.74253873,0.74253873 0 0 0 0.45643,0.3325 l 4.00235,0.9763 0.59709,1.3646 a 0.74253873,0.74253873 0 0 0 0.25957,0.3143 l 3.40272,2.3394 a 0.74253873,0.74253873 0 0 0 0.28966,0.1189 l 4.147,0.7443 a 0.74253873,0.74253873 0 0 0 0.32048,-0.013 l 7.45872,-1.9682 1.29279,0.3695 a 0.74253873,0.74253873 0 0 0 0.94403,-0.7759 l -0.16531,-1.983 3.92839,-1.403 a 0.74253873,0.74253873 0 0 0 0.27516,-0.174 l 2.75995,-2.76 3.94579,0 a 0.74253873,0.74253873 0 0 0 0.74247,-0.7424 l 0,0.061 2.35392,-0.1425 0.93968,1.6234 a 0.74253873,0.74253873 0 0 0 0.53147,0.3622 l 3.39293,0.5141 1.59659,0.7983 a 0.74253873,0.74253873 0 0 0 0.11673,0.046 l 3.3933,1.0281 3.75111,2.6657 0.45317,1.2685 a 0.74253873,0.74253873 0 0 0 0.71926,0.4923 l 3.28163,-0.088 0.3977,2.5464 -0.23492,0.5481 a 0.74253873,0.74253873 0 0 0 0.0333,0.653 l 0.89219,1.6056 -1.85471,4.6364 -0.48216,0.1208 a 0.74253873,0.74253873 0 0 0 -0.54815,0.8657 l 0.17111,0.8556 -0.0638,0.1703 -0.22985,0 a 0.74253873,0.74253873 0 0 0 -0.68953,0.467 l -0.6377,1.5948 a 0.74253873,0.74253873 0 0 0 -0.0246,0.4796 l 0.42525,1.4889 a 0.74253873,0.74253873 0 0 0 0.25522,0.3799 l 0.89944,0.7066 -1.23333,1.5419 a 0.74253873,0.74253873 0 0 0 -0.10839,0.7421 l 1.95331,4.83212 -0.30343,3.4376 a 0.74253873,0.74253873 0 0 0 0.64965,0.8022 l 3.77432,0.4605 0.22332,2.0834 -4.37793,5.3959 a 0.74253873,0.74253873 0 0 0 0.0123,0.9506 l 2.13749,2.4989 0.78705,1.6398 0,0.7334 a 0.74253873,0.74253873 0 0 0 0.20266,0.5097 l 1.27792,1.3537 a 0.74253873,0.74253873 0 0 0 0.32664,0.2012 l 2.84044,0.8523 0.81388,0.7628 -0.0453,0.5445 a 0.74253873,0.74253873 0 0 0 0.006,0.1744 l 0.42742,2.7799 -0.33643,1.2793 a 0.74253873,0.74253873 0 0 0 0.76712,0.9299 l 1.47623,-0.099 -0.0591,0.2067 a 0.74253873,0.74253873 0 0 0 -0.0232,0.2922 l 0.14284,1.1898 -4.12887,0.774 a 0.74253873,0.74253873 0 0 0 -0.5728,0.5115 l -0.20737,0.6736 -1.52046,0.7602 a 0.74253873,0.74253873 0 0 0 -0.40277,0.5576 l -0.72216,4.9841 -0.20157,0.2462 -1.37399,-0.5497 a 0.74253873,0.74253873 0 0 0 -0.14538,-0.042 l -2.08673,-0.3727 -1.93701,-0.447 a 0.74253873,0.74253873 0 0 0 -0.18706,-0.019 l -2.6066,0.071 -0.96941,-0.4524 a 0.74253873,0.74253873 0 0 0 -0.59927,-0.012 l -0.74138,0.3089 -0.63261,-0.042 -0.47274,-0.5778 a 0.74253873,0.74253873 0 0 0 -0.5177,-0.2701 l -1.95477,-0.1505 a 0.74253873,0.74253873 0 0 0 -0.50283,0.1461 l -0.0769,0.058 -0.22658,-0.017 -0.28495,-0.7599 a 0.74253873,0.74253873 0 0 0 -1.2268,-0.257 0.74253873,0.74253873 0 0 0 -0.36689,-0.1454 l -1.73217,-0.1856 -0.60362,-1.035 0.35021,-0.4282 a 0.74253873,0.74253873 0 0 0 0.0192,-0.9157 l -0.52821,-0.7041 0,-1.482 a 0.74253873,0.74253873 0 0 0 -0.1809,-0.4858 l -2.40612,-2.7821 a 0.74253873,0.74253873 0 0 0 -0.69932,-0.2436 l -2.78207,0.5264 a 0.74253873,0.74253873 0 0 0 -0.29365,0.1254 l -2.10522,1.5038 a 0.74253873,0.74253873 0 0 0 -0.29655,0.4583 l -0.0308,0.1551 -1.19599,0 a 0.74253873,0.74253873 0 0 0 -0.59129,0.2933 l -0.9821,1.2925 -1.81592,-1.3621 a 0.74253873,0.74253873 0 0 0 -0.48651,-0.1472 l -2.27815,0.1265 -0.89364,-1.37 a 0.74253873,0.74253873 0 0 0 -0.50356,-0.3273 l -2.03489,-0.3281 -1.62486,-2.1665 a 0.74253873,0.74253873 0 0 0 -0.17148,-0.1649 l -1.95477,-1.3534 a 0.74253873,0.74253873 0 0 0 -0.38138,-0.1309 l -2.27453,-0.1261 -6.27433,-12.6948 a 0.74253873,0.74253873 0 0 0 -1.04735,-0.3078 l -1.19672,0.7178 -3.27366,-1.2275 a 0.74253873,0.74253873 0 0 0 -1.00312,0.6953 l 0,0.9597 -1.21484,0.081 -2.35501,-2.479 0.53002,-2.7835 a 0.74253873,0.74253873 0 0 0 -0.87479,-0.8672 l -0.92953,0.186 -0.49087,-1.0633 1.44759,-2.3684 a 0.74253873,0.74253873 0 0 0 -0.0515,-0.848 l -2.85711,-3.609 a 0.74253873,0.74253873 0 0 0 -0.13921,-0.1352 l -6.24279,-4.64112 -2.5689,-2.7524 2.93941,-5.4862 a 0.74253873,0.74253873 0 0 0 0.0837,-0.2729 l 0.42525,-4.0405 a 0.74253873,0.74253873 0 0 0 -0.52893,-0.7899 l -3.27693,-0.964 -4.2832996,-10.1987 -0.59021,-7.2804 1.97906,-1.1311 1.8445596,2.6353 a 0.74253873,0.74253873 0 0 0 0.44266,0.298 l 5.10407,1.1695 a 0.74253873,0.74253873 0 0 0 0.5583,-0.093 l 6.91819,-4.3113 z"></path></g></svg>