<svg height='100px' width='100px'  fill="#000000" xmlns="http://www.w3.org/2000/svg" viewBox="0 0 64 64" x="0px" y="0px"><g><path d="M61.67,57.4a.98.98,0,0,0-.79-.4H51a1,1,0,0,0-1,1H48a1,1,0,0,0-1-1H37.12a.98.98,0,0,0-.79.4.991.991,0,0,0-.16.88l.45,1.56A3.021,3.021,0,0,0,39.5,62h19a3.021,3.021,0,0,0,2.88-2.16l.45-1.56A.991.991,0,0,0,61.67,57.4ZM39.5,60a1.008,1.008,0,0,1-.96-.72L38.46,59H46a1,1,0,0,0,1,1Zm19.96-.72a1.008,1.008,0,0,1-.96.72H51a1,1,0,0,0,1-1h7.54Z"></path><path d="M57,42H41a3.009,3.009,0,0,0-3,3v8a3.009,3.009,0,0,0,3,3H57a3.009,3.009,0,0,0,3-3V45A3.009,3.009,0,0,0,57,42Zm1,11a1,1,0,0,1-1,1H41a1,1,0,0,1-1-1V45a1,1,0,0,1,1-1H57a1,1,0,0,1,1,1Z"></path><rect x="48" y="48" width="2" height="2"></rect><rect x="52" y="48" width="2" height="2"></rect><rect x="44" y="48" width="2" height="2"></rect><path d="M15,40H7a3.009,3.009,0,0,0-3,3V59a3.009,3.009,0,0,0,3,3h8a3.009,3.009,0,0,0,3-3V43A3.009,3.009,0,0,0,15,40Zm-2,2a1,1,0,0,1-1,1H10a1,1,0,0,1-1-1Zm3,17a1,1,0,0,1-1,1H7a1,1,0,0,1-1-1V43a1,1,0,0,1,1-1,3.009,3.009,0,0,0,3,3h2a3.009,3.009,0,0,0,3-3,1,1,0,0,1,1,1Z"></path><path d="M51,2A11,11,0,1,0,62,13,11.007,11.007,0,0,0,51,2ZM44.28,18.97A9,9,0,0,1,42.06,14H44.7a17.551,17.551,0,0,0,.7,4.21A10.5,10.5,0,0,0,44.28,18.97ZM44.7,12H42.06a9,9,0,0,1,2.22-4.97,10.5,10.5,0,0,0,1.12.76A17.551,17.551,0,0,0,44.7,12Zm1.1,8.33c.11-.07.22-.15.33-.23.11.23.23.46.35.67C46.25,20.63,46.02,20.49,45.8,20.33ZM46.13,5.9c-.11-.08-.22-.16-.33-.23.22-.16.45-.3.68-.44C46.36,5.44,46.24,5.67,46.13,5.9ZM50,21.71a5.588,5.588,0,0,1-2.07-2.5A9.158,9.158,0,0,1,50,18.73Zm0-5a11.367,11.367,0,0,0-2.77.63A15.676,15.676,0,0,1,46.7,14H50ZM50,12H46.7a15.676,15.676,0,0,1,.53-3.34A11.367,11.367,0,0,0,50,9.29Zm0-4.73a9.158,9.158,0,0,1-2.07-.48A5.588,5.588,0,0,1,50,4.29Zm7.72-.24A9,9,0,0,1,59.94,12H57.3a17.551,17.551,0,0,0-.7-4.21A10.5,10.5,0,0,0,57.72,7.03ZM52,4.29a5.588,5.588,0,0,1,2.07,2.5A9.158,9.158,0,0,1,52,7.27Zm0,17.42V18.73a9.158,9.158,0,0,1,2.07.48A5.588,5.588,0,0,1,52,21.71Zm2.77-4.37A11.367,11.367,0,0,0,52,16.71V14h3.3A15.676,15.676,0,0,1,54.77,17.34ZM52,12V9.29a11.367,11.367,0,0,0,2.77-.63A15.676,15.676,0,0,1,55.3,12Zm3.52,8.77c.12-.21.24-.44.35-.67.11.08.22.16.33.23C55.98,20.49,55.75,20.63,55.52,20.77ZM55.87,5.9c-.11-.23-.23-.46-.35-.67.23.14.46.28.68.44C56.09,5.74,55.98,5.82,55.87,5.9Zm1.85,13.07a10.5,10.5,0,0,0-1.12-.76A17.551,17.551,0,0,0,57.3,14h2.64A9,9,0,0,1,57.72,18.97Z"></path><path d="M21,2H5A3.009,3.009,0,0,0,2,5V15a3.009,3.009,0,0,0,3,3H8.79l-.67,2.76a.982.982,0,0,0,.18.86,1,1,0,0,0,.79.38h7.82a1,1,0,0,0,.79-.38.982.982,0,0,0,.18-.86L17.21,18H21a3.009,3.009,0,0,0,3-3V5A3.009,3.009,0,0,0,21,2ZM10.36,20l.49-2h4.3l.49,2ZM22,15a1,1,0,0,1-1,1H5a1,1,0,0,1-1-1V14H22Zm0-3H4V5A1,1,0,0,1,5,4H21a1,1,0,0,1,1,1Z"></path><path d="M54,30V26H52v3H45v2h8A1,1,0,0,0,54,30Z"></path><path d="M45,35h7v3h2V34a1,1,0,0,0-1-1H45Z"></path><path d="M12,26H10v4a1,1,0,0,0,1,1h8V29H12Z"></path><path d="M10,34v4h2V35h7V33H11A1,1,0,0,0,10,34Z"></path><rect x="12" y="7" width="2" height="2"></rect><rect x="16" y="7" width="2" height="2"></rect><rect x="8" y="7" width="2" height="2"></rect><rect x="10" y="52" width="2" height="2"></rect><rect x="10" y="48" width="2" height="2"></rect><rect x="10" y="56" width="2" height="2"></rect><path d="M41,29V27a1,1,0,0,0-1-1,9,9,0,0,0-8,4.9A9,9,0,0,0,24,26a1,1,0,0,0-1,1v2a9,9,0,0,0,18,0ZM25,29v-.929A7.011,7.011,0,0,1,31,35v.929A7.011,7.011,0,0,1,25,29Zm8,6.929V35a7.011,7.011,0,0,1,6-6.929V29A7.011,7.011,0,0,1,33,35.929Z"></path></g></svg>