<svg height='100px' width='100px'  fill="#000000" xmlns="http://www.w3.org/2000/svg" xmlns:xlink="http://www.w3.org/1999/xlink" version="1.1" x="0px" y="0px" viewBox="0 0 100 100" style="enable-background:new 0 0 100 100;" xml:space="preserve"><path d="M81.9506836,49.6894531l-5.4247437-16.5995483C77.4473877,32.34375,78,31.2263794,78,30c0-2.2055664-1.7944336-4-4-4  H53.9744263C54.6090088,25.1617432,55,24.1299438,55,23c0-2.7568359-2.2431641-5-5-5s-5,2.2431641-5,5  c0,1.1299438,0.3909912,2.1617432,1.0255737,3H26c-2.2055664,0-4,1.7944336-4,4c0,1.2270508,0.5532227,2.3449097,1.473999,3.090271  l-5.4246826,16.5991821c-0.0170898,0.0524292-0.0102539,0.1047363-0.0184326,0.1574707C18.022583,49.8988647,18,49.9457397,18,50v2  c0,3.8598633,3.1401367,7,7,7h2c3.8598633,0,7-3.1401367,7-7v-2c0-0.0608521-0.024231-0.1137695-0.034668-0.1716309  c-0.010437-0.0595703-0.0064087-0.1192627-0.0283203-0.1779785L27.9110718,33.512085  c0.2629395-0.1437988,0.5109863-0.3120117,0.734436-0.512085H46v39h-9.5634766  c-0.4399414,0-0.8808594,0.1040039-1.2744141,0.3007813l-8.5869141,4.293457C25.6035156,77.0805664,25,78.0571289,25,79.1499023  C25,80.7216797,26.2783203,82,27.8500977,82h44.2998047C73.7216797,82,75,80.7216797,75,79.1435547  c0-1.0864258-0.6035156-2.0629883-1.5751953-2.5493164l-8.5869141-4.293457C64.4443359,72.1040039,64.003418,72,63.5634766,72H54V33  h17.3549805c0.2223511,0.1989136,0.4703369,0.366272,0.7346191,0.5102539l-6.0266113,16.1401367  c-0.0219116,0.0587158-0.0178833,0.1184082-0.0283203,0.1779785C66.024231,49.8862305,66,49.9391479,66,50v2  c0,3.8598633,3.1401367,7,7,7h2c3.8598633,0,7-3.1401367,7-7v-2c0-0.0542603-0.022583-0.1011353-0.0308838-0.1530762  C81.9609375,49.7941895,81.9677734,49.7418823,81.9506836,49.6894531z M74.0437622,33.994812  c0.2172852-0.0025024,0.4332275-0.0380859,0.6484375-0.0767212L79.6210327,49H68.440918L74.0437622,33.994812z M47,23  c0-1.6542969,1.3457031-3,3-3s3,1.3457031,3,3s-1.3457031,3-3,3S47,24.6542969,47,23z M25.9544678,33.9901123L31.559082,49  H20.3789673l4.9246826-15.0692139C25.5150146,33.968689,25.7321167,33.9881592,25.9544678,33.9901123z M32,52  c0,2.7568359-2.2431641,5-5,5h-2c-2.7568359,0-5-2.2431641-5-5v-1h12V52z M63.9433594,74.0898438l8.5869141,4.293457  C72.8198242,78.5283203,73,78.8193359,73,79.1499023C73,79.6186523,72.6186523,80,72.1499023,80H27.8500977  C27.3813477,80,27,79.6186523,27,79.1435547c0-0.3242188,0.1801758-0.6152344,0.4697266-0.7602539l8.5869141-4.293457  C36.1738281,74.03125,36.3051758,74,36.4365234,74H47h6h10.5634766C63.6948242,74,63.8261719,74.03125,63.9433594,74.0898438z   M52,72h-4V33h4V72z M53,31h-6H28.2299805c-0.2885742,0-0.5634766,0.125-0.753418,0.3422852  c-0.2729492,0.3125-0.640625,0.5273438-1.0341797,0.6152344c-0.4501953,0.0859375-0.9165039,0.0371094-1.3383789-0.1733398  C24.4228516,31.4467773,24,30.7631836,24,30c0-1.1030273,0.8969727-2,2-2h48c1.1030273,0,2,0.8969727,2,2  c0,0.7631836-0.4228516,1.4467773-1.1069336,1.7856445c-0.4179688,0.2080078-0.9472656,0.2451172-1.3056641,0.1782227  c-0.4233398-0.0942383-0.7915039-0.309082-1.0639648-0.621582C72.3334961,31.125,72.0585938,31,71.7700195,31H53z M80,52  c0,2.7568359-2.2431641,5-5,5h-2c-2.7568359,0-5-2.2431641-5-5v-1h12V52z"></path></svg>