<svg height='100px' width='100px'  fill="#000000" xmlns="http://www.w3.org/2000/svg" xmlns:xlink="http://www.w3.org/1999/xlink" version="1.1" x="0px" y="0px" viewBox="0 0 64 64" style="enable-background:new 0 0 64 64;" xml:space="preserve"><g><circle cx="22" cy="18" r="1"></circle><circle cx="16" cy="18" r="1"></circle><path d="M19,25c2.206,0,4-1.794,4-4h-2c0,1.103-0.897,2-2,2s-2-0.897-2-2h-2C15,23.206,16.794,25,19,25z"></path><path d="M19,11c1.654,0,3-1.346,3-3s-1.346-3-3-3s-3,1.346-3,3S17.346,11,19,11z M19,7c0.552,0,1,0.448,1,1s-0.448,1-1,1   s-1-0.448-1-1S18.448,7,19,7z"></path><path d="M60,35H42.05c0.616-1.074,0.95-2.292,0.95-3.563V13c0-1.654-1.346-3-3-3h-2c-1.654,0-3,1.346-3,3v0.382l-0.376,0.188   C33.622,14.071,33,15.078,33,16.197c0,0.773,0.313,1.53,0.86,2.077l1.14,1.14v10.95c0,0.141-0.058,0.279-0.157,0.379   c-0.119,0.119-0.291,0.177-0.46,0.15L31,30.373V30c0-1.103-0.897-2-2-2h-0.009C30.28,26.287,31,24.198,31,22v-7.611   c0.627-0.705,2-2.464,2-4.389c0-2.162-6.334-5.71-11.674-8.316c-1.393-0.895-3.26-0.895-4.652,0C11.334,4.29,5,7.838,5,10   c0,1.925,1.373,3.684,2,4.389V22c0,2.199,0.719,4.287,2.009,6H9c-1.103,0-2,0.897-2,2v0.453c-3.569,1.258-6,4.641-6,8.485V46   c0,3.519,2.614,6.432,6,6.92V57h20v3c0,1.654,1.346,3,3,3h30c1.654,0,3-1.346,3-3V38C63,36.346,61.654,35,60,35z M46,39v4h-2v-4h-2   v4h-2v-6h10v6h-2v-4H46z M35.519,15.359L37,14.618V13c0-0.552,0.448-1,1-1h2c0.552,0,1,0.448,1,1v5h-4.586l-1.14-1.14   C35.1,16.686,35,16.444,35,16.197C35,15.84,35.198,15.52,35.519,15.359z M19,33.057l-2-3.333v-0.972C17.633,28.909,18.298,29,19,29   s1.367-0.091,2-0.249v0.972L19,33.057z M15,30v2h-2v-2H15z M13,15h12v5c0,4.252-2.355,7-6,7s-6-2.748-6-7V15z M23,30h2v2h-2V30z    M16.68,33.077l0.999,1.664l-2.053,1.54l-0.535-2.29C15.758,33.96,16.34,33.606,16.68,33.077z M21.32,33.077   c0.34,0.529,0.922,0.883,1.589,0.914l-0.535,2.29l-2.053-1.54L21.32,33.077z M27,30h2v2h-2V30z M26.274,28H23v-0.058   c2.468-1.46,4-4.328,4-7.942v-5h2v7C29,24.315,28.006,26.478,26.274,28z M17.606,3.453l0.115-0.066   c0.762-0.506,1.795-0.506,2.557,0l0.115,0.066C25.207,5.8,30.622,9.03,31,10c0,1.09-0.88,2.347-1.439,3H8.439   c-0.561-0.651-1.441-1.896-1.452-2.901C7.378,9.031,12.793,5.801,17.606,3.453z M9,22v-7h2v5c0,3.614,1.532,6.482,4,7.942V28   h-3.274C9.995,26.478,9,24.315,9,22z M9,30h2v2H9V30z M9,55v-2h13c1.654,0,3-1.346,3-3v-2c0-1.654-1.346-3-3-3h-0.382l-0.188-0.376   C20.929,43.622,19.922,43,18.803,43c-0.773,0-1.53,0.313-2.077,0.86L15.586,45H9.242C9.161,45,9.081,45.019,9,45.024V40H7v5.692   c-0.209,0.141-0.407,0.3-0.586,0.48l-1.121,1.121l1.414,1.414l1.121-1.121C8.2,47.214,8.716,47,9.242,47H15v4H8   c-2.757,0-5-2.243-5-5v-7.062c0-2.779,1.635-5.246,4.094-6.366C7.342,33.395,8.098,34,9,34h4.04l1.334,5.719L19,36.25l4.626,3.469   L24.96,34H29c0.969,0,1.778-0.694,1.961-1.61l3.119,0.48c0.794,0.122,1.609-0.145,2.178-0.713C36.736,31.678,37,31.041,37,30.364   V20h4v11.437c0,1.34-0.514,2.595-1.433,3.563H30c-1.654,0-3,1.346-3,3v17H9z M17,46.414l1.14-1.14   c0.427-0.428,1.229-0.298,1.501,0.244L20.382,47H22c0.552,0,1,0.448,1,1v2c0,0.552-0.448,1-1,1h-5V46.414z M61,60   c0,0.552-0.448,1-1,1H30c-0.552,0-1-0.448-1-1V38c0-0.552,0.448-1,1-1h8v8h14v-8h8c0.552,0,1,0.448,1,1V60z"></path><rect x="57" y="57" width="2" height="2"></rect><rect x="49" y="57" width="2" height="2"></rect><rect x="53" y="57" width="2" height="2"></rect><rect x="49" y="53" width="10" height="2"></rect></g></svg>