<svg height='100px' width='100px'  fill="#000000" xmlns="http://www.w3.org/2000/svg" xmlns:xlink="http://www.w3.org/1999/xlink" version="1.1" x="0px" y="0px" viewBox="0 0 100 100" style="enable-background:new 0 0 100 100;" xml:space="preserve"><style type="text/css">
	.st0{fill:none;stroke:#000000;stroke-width:2;stroke-linecap:round;stroke-linejoin:round;stroke-miterlimit:10;}
</style><path d="M61.7,39.8c0-5.5-4.5-10-10-10c-5.5,0-10,4.5-10,10s4.5,10,10,10C57.2,49.8,61.7,45.3,61.7,39.8z M51.7,47.8  c-4.4,0-8-3.6-8-8s3.6-8,8-8s8,3.6,8,8S56.1,47.8,51.7,47.8z"></path><path d="M51.8,27.1c0.6,0,1-0.4,1-1v-4.7c0-0.6-0.4-1-1-1s-1,0.4-1,1v4.7C50.8,26.6,51.2,27.1,51.8,27.1z"></path><path d="M50.8,53.5v4.7c0,0.6,0.4,1,1,1s1-0.4,1-1v-4.7c0-0.6-0.4-1-1-1S50.8,52.9,50.8,53.5z"></path><path d="M58,28.7c0.2,0.1,0.3,0.1,0.5,0.1c0.3,0,0.7-0.2,0.9-0.5l2.3-4.1c0.3-0.5,0.1-1.1-0.4-1.4c-0.5-0.3-1.1-0.1-1.4,0.4  l-2.3,4.1C57.3,27.8,57.5,28.4,58,28.7z"></path><path d="M63.4,33.7c0.2,0,0.3,0,0.5-0.1l4.1-2.4c0.5-0.3,0.6-0.9,0.4-1.4c-0.3-0.5-0.9-0.6-1.4-0.4l-4.1,2.4  c-0.5,0.3-0.6,0.9-0.4,1.4C62.8,33.6,63.1,33.7,63.4,33.7z"></path><path d="M64.4,39.5c0,0.5,0.5,1,1,1c0,0,0,0,0,0l4.7-0.1c0.6,0,1-0.5,1-1c0-0.5-0.5-1-1-1c0,0,0,0,0,0l-4.7,0.1  C64.8,38.5,64.3,38.9,64.4,39.5z"></path><path d="M67.4,49.4c0.2,0.1,0.3,0.1,0.5,0.1c0.4,0,0.7-0.2,0.9-0.5c0.3-0.5,0.1-1.1-0.4-1.4l-4.2-2.3c-0.5-0.3-1.1-0.1-1.4,0.4  c-0.3,0.5-0.1,1.1,0.4,1.4L67.4,49.4z"></path><path d="M58.3,50.5c-0.5,0.3-0.6,0.9-0.3,1.4l2.5,4c0.2,0.3,0.5,0.5,0.9,0.5c0.2,0,0.4,0,0.5-0.1c0.5-0.3,0.6-0.9,0.3-1.4l-2.5-4  C59.4,50.3,58.8,50.2,58.3,50.5z"></path><path d="M44.5,51.3l-2.2,4.2c-0.3,0.5-0.1,1.1,0.4,1.4c0.1,0.1,0.3,0.1,0.5,0.1c0.4,0,0.7-0.2,0.9-0.5l2.2-4.2  c0.3-0.5,0.1-1.1-0.4-1.4C45.3,50.6,44.7,50.8,44.5,51.3z"></path><path d="M36.2,50.6c0.2,0,0.4-0.1,0.5-0.2l4-2.6c0.5-0.3,0.6-0.9,0.3-1.4s-0.9-0.6-1.4-0.3l-4,2.6c-0.5,0.3-0.6,0.9-0.3,1.4  C35.5,50.4,35.9,50.6,36.2,50.6z"></path><path d="M33.3,41.6C33.3,41.6,33.4,41.6,33.3,41.6l4.8-0.2c0.6,0,1-0.5,0.9-1c0-0.6-0.5-1-1-0.9l-4.7,0.2c-0.6,0-1,0.5-0.9,1  C32.4,41.2,32.8,41.6,33.3,41.6z"></path><path d="M34.8,32.3l4.2,2.1c0.1,0.1,0.3,0.1,0.5,0.1c0.4,0,0.7-0.2,0.9-0.5c0.2-0.5,0.1-1.1-0.4-1.3l-4.2-2.1  c-0.5-0.2-1.1-0.1-1.3,0.4S34.3,32,34.8,32.3z"></path><path d="M43.3,28.9c0.2,0.3,0.5,0.4,0.8,0.4c0.2,0,0.4-0.1,0.6-0.2c0.5-0.3,0.6-0.9,0.3-1.4l-2.6-4c-0.3-0.5-0.9-0.6-1.4-0.3  c-0.5,0.3-0.6,0.9-0.3,1.4L43.3,28.9z"></path><path d="M54.5,39.3L51.7,38l2.9-1.7c0.5-0.3,0.6-0.9,0.4-1.4c-0.3-0.5-0.9-0.6-1.4-0.4L49,37.2c-0.3,0.2-0.5,0.5-0.5,0.9  s0.2,0.7,0.6,0.9l3,1.4l-3.2,2.1c-0.5,0.3-0.6,0.9-0.3,1.4c0.2,0.3,0.5,0.4,0.8,0.4c0.2,0,0.4-0.1,0.6-0.2l4.6-3.1  c0.3-0.2,0.5-0.5,0.4-0.9C55.1,39.8,54.9,39.5,54.5,39.3z"></path><path d="M22.2,87c0,0.6,0.4,1,1,1h55.1c0.6,0,1-0.4,1-1V13.5c0-0.6-0.4-1-1-1H23.2c-0.6,0-1,0.4-1,1v3.8h-1.7c-0.6,0-1,0.4-1,1  s0.4,1,1,1h1.7V23h-1.7c-0.6,0-1,0.4-1,1s0.4,1,1,1h1.7v3.7h-1.7c-0.6,0-1,0.4-1,1s0.4,1,1,1h1.7v3.7h-1.7c-0.6,0-1,0.4-1,1  s0.4,1,1,1h1.7v3.7h-1.7c-0.6,0-1,0.4-1,1s0.4,1,1,1h1.7v3.7h-1.7c-0.6,0-1,0.4-1,1s0.4,1,1,1h1.7v3.7h-1.7c-0.6,0-1,0.4-1,1  s0.4,1,1,1h1.7v3.7h-1.7c-0.6,0-1,0.4-1,1s0.4,1,1,1h1.7v3.7h-1.7c-0.6,0-1,0.4-1,1s0.4,1,1,1h1.7v3.7h-1.7c-0.6,0-1,0.4-1,1  s0.4,1,1,1h1.7v3.7h-1.7c-0.6,0-1,0.4-1,1s0.4,1,1,1h1.7v3.7h-1.7c-0.6,0-1,0.4-1,1s0.4,1,1,1h1.7V87z M24.2,76.7h1.7  c0.6,0,1-0.4,1-1s-0.4-1-1-1h-1.7v-3.7h1.7c0.6,0,1-0.4,1-1s-0.4-1-1-1h-1.7v-3.7h1.7c0.6,0,1-0.4,1-1s-0.4-1-1-1h-1.7v-3.7h1.7  c0.6,0,1-0.4,1-1s-0.4-1-1-1h-1.7v-3.7h1.7c0.6,0,1-0.4,1-1s-0.4-1-1-1h-1.7v-3.7h1.7c0.6,0,1-0.4,1-1s-0.4-1-1-1h-1.7v-3.7h1.7  c0.6,0,1-0.4,1-1s-0.4-1-1-1h-1.7v-3.7h1.7c0.6,0,1-0.4,1-1s-0.4-1-1-1h-1.7v-3.7h1.7c0.6,0,1-0.4,1-1s-0.4-1-1-1h-1.7V25h1.7  c0.6,0,1-0.4,1-1s-0.4-1-1-1h-1.7v-3.7h1.7c0.6,0,1-0.4,1-1s-0.4-1-1-1h-1.7v-2.8h53.1V86H24.2v-3.5h1.7c0.6,0,1-0.4,1-1s-0.4-1-1-1  h-1.7V76.7z"></path><path d="M69,65.8H33.5c-0.6,0-1,0.4-1,1s0.4,1,1,1H69c0.6,0,1-0.4,1-1S69.6,65.8,69,65.8z"></path><path d="M69,74.4H33.5c-0.6,0-1,0.4-1,1s0.4,1,1,1H69c0.6,0,1-0.4,1-1S69.6,74.4,69,74.4z"></path></svg>