<svg height='100px' width='100px'  fill="#000000" xmlns="http://www.w3.org/2000/svg" xmlns:xlink="http://www.w3.org/1999/xlink" version="1.1" x="0px" y="0px" viewBox="0 0 512 512" style="enable-background:new 0 0 512 512;" xml:space="preserve"><g><g><g><g><path d="M439.488,480.795H73.773c-2.761,0-5-2.238-5-5v-20c0-29.957,17.445-80.772,48.987-94.291l53.726-23.025      c8.931-3.828,17.301-8.847,24.875-14.914c6.888-5.518,12.342-10.568,18.245-18.688c1.625-2.233,4.753-2.727,6.984-1.104      c2.234,1.623,2.728,4.75,1.104,6.984c-6.561,9.023-12.548,14.577-20.082,20.612c-8.279,6.632-17.427,12.116-27.188,16.301      L121.7,370.695c-24.175,10.361-42.927,54.254-42.927,85.1v15h355.715v-15c0-30.846-18.752-74.738-42.928-85.1l-53.726-23.025      c-10.616-4.551-20.479-10.622-29.317-18.047c-6.894-5.793-12.042-10.737-17.952-18.866c-1.624-2.233-1.13-5.36,1.104-6.984      c2.233-1.622,5.36-1.13,6.984,1.104c5.31,7.303,9.996,11.796,16.298,17.091c8.085,6.793,17.109,12.349,26.823,16.512      l53.726,23.025c31.543,13.519,48.988,64.334,48.988,94.291v20C444.488,478.557,442.25,480.795,439.488,480.795z"></path></g><g><path d="M271.648,260.795h-30c-2.761,0-5-2.238-5-5s2.239-5,5-5h30c2.762,0,5,2.239,5,5S274.41,260.795,271.648,260.795z"></path></g><g><path d="M348.025,144.363H163.975c-1.36,0-2.662-0.554-3.604-1.535c-0.942-0.98-1.445-2.303-1.392-3.662      c1.81-45.993,36.082-84.677,81.491-91.981c1.449-0.231,2.922,0.182,4.037,1.13c1.115,0.95,1.757,2.341,1.757,3.806v20.926      c0,5.369,4.367,9.736,9.735,9.736c5.369,0,9.737-4.368,9.737-9.736V52.122c0-1.465,0.643-2.856,1.758-3.806      c1.113-0.949,2.587-1.362,4.036-1.13c45.408,7.304,79.68,45.988,81.491,91.981c0.054,1.359-0.449,2.682-1.392,3.662      S349.386,144.363,348.025,144.363z M169.332,134.363h173.336c-3.687-36.987-30.799-67.795-66.932-76.169v14.854      c0,10.883-8.854,19.736-19.737,19.736c-10.882,0-19.735-8.854-19.735-19.736V58.194      C200.129,66.567,173.017,97.375,169.332,134.363z"></path></g><g><path d="M255.999,92.784c-10.882,0-19.735-8.854-19.735-19.736V50.941c0-10.883,8.853-19.737,19.735-19.737      c10.883,0,19.737,8.854,19.737,19.737v22.106C275.736,83.93,266.882,92.784,255.999,92.784z M255.999,41.205      c-5.368,0-9.735,4.368-9.735,9.737v22.106c0,5.369,4.367,9.736,9.735,9.736c5.369,0,9.737-4.368,9.737-9.736V50.941      C265.736,45.572,261.368,41.205,255.999,41.205z"></path></g><g><path d="M256.275,300.795c-27.712,0-52.948-14.737-71.058-41.497c-15.128-22.354-24.159-51.262-24.159-77.331      c0-0.918,0.013-1.834,0.039-2.745c0.077-2.706,2.292-4.859,4.998-4.859h181.106c2.709,0,4.925,2.157,4.998,4.865      c0.024,0.91,0.038,1.823,0.038,2.739c0,26.119-9.069,55.032-24.26,77.343C309.764,286.062,284.299,300.795,256.275,300.795z       M171.087,184.363c1.061,44.356,31.295,106.432,85.188,106.432c54.364,0,84.864-62.076,85.934-106.432H171.087z"></path></g><g><path d="M296.525,85.416c-2.762,0-5-2.239-5-5V60.705c0-2.761,2.238-5,5-5s5,2.239,5,5v19.711      C301.525,83.177,299.287,85.416,296.525,85.416z"></path></g><g><path d="M215.474,85.416c-2.761,0-5-2.239-5-5V60.538c0-2.761,2.239-5,5-5s5,2.239,5,5v19.877      C220.474,83.177,218.235,85.416,215.474,85.416z"></path></g><g><path d="M346,184.363H166c-13.785,0-25-11.215-25-25s11.215-25,25-25h180c13.785,0,25,11.215,25,25S359.785,184.363,346,184.363      z M166,144.363c-8.271,0-15,6.729-15,15s6.729,15,15,15h180c8.271,0,15-6.729,15-15s-6.729-15-15-15H166z"></path></g><circle cx="286" cy="216.205" r="10"></circle><circle cx="416" cy="86.205" r="10"></circle><circle cx="416" cy="316.205" r="10"></circle><circle cx="86" cy="116.205" r="10"></circle><circle cx="56" cy="346.205" r="10"></circle><circle cx="226" cy="216.205" r="10"></circle><g><path d="M286,321.426c-2.762,0-5-2.238-5-5v-26.783c0-2.762,2.238-5,5-5s5,2.238,5,5v26.783      C291,319.188,288.762,321.426,286,321.426z"></path></g><g><path d="M226,320.166c-2.761,0-5-2.238-5-5v-26.045c0-2.762,2.239-5,5-5s5,2.238,5,5v26.045      C231,317.928,228.761,320.166,226,320.166z"></path></g><g><path d="M266,400.795h-20c-2.383,0-4.436-1.683-4.903-4.02l-6.344-31.719c-0.542-2.708,1.214-5.342,3.922-5.884      c2.703-0.533,5.342,1.215,5.883,3.923l5.54,27.699h11.802l5.402-27.018c0.542-2.707,3.168-4.46,5.884-3.923      c2.708,0.542,4.464,3.176,3.923,5.884l-6.207,31.037C270.436,399.112,268.384,400.795,266,400.795z"></path></g><g><path d="M286.02,480.795c-0.005-0.001-0.013-0.001-0.02,0h-60c-1.54,0-2.994-0.709-3.941-1.923      c-0.948-1.214-1.283-2.796-0.91-4.29l20-80c0.556-2.226,2.556-3.787,4.851-3.787h20c2.294,0,4.294,1.562,4.851,3.787      l19.891,79.563c0.181,0.517,0.278,1.071,0.278,1.649C291.02,478.557,288.781,480.795,286.02,480.795z M232.404,470.795h47.192      l-17.5-70h-12.192L232.404,470.795z"></path></g><g><path d="M219.488,390.795c-0.352,0-0.707-0.037-1.059-0.113c-1.726-0.374-3.127-1.632-3.685-3.307l-19.547-58.703      c-0.872-2.62,0.544-5.451,3.165-6.324c2.62-0.871,5.451,0.545,6.324,3.164l16.881,50.697l28.123-30.285l-34.572-34.572      c-1.953-1.952-1.953-5.118,0-7.07c1.953-1.953,5.118-1.953,7.071,0l37.979,37.979c1.902,1.901,1.959,4.967,0.129,6.938      l-37.143,40C222.195,390.228,220.862,390.795,219.488,390.795z"></path></g><g><path d="M289.487,390.795c-1.482,0-2.905-0.66-3.862-1.826l-32.858-40c-1.633-1.988-1.491-4.891,0.328-6.709l37.979-37.979      c1.951-1.953,5.119-1.953,7.07,0c1.953,1.952,1.953,5.118,0,7.07l-34.772,34.773l24.645,30.002l20.671-50.916      c1.039-2.558,3.951-3.791,6.514-2.752c2.559,1.039,3.791,3.955,2.752,6.514l-23.832,58.703      c-0.663,1.634-2.138,2.797-3.881,3.063C289.989,390.776,289.737,390.795,289.487,390.795z"></path></g><g><path d="M126,480.795c-2.761,0-5-2.238-5-5v-40c0-2.762,2.239-5,5-5s5,2.238,5,5v40C131,478.557,128.761,480.795,126,480.795z"></path></g><g><path d="M386,480.795c-2.762,0-5-2.238-5-5v-40c0-2.762,2.238-5,5-5s5,2.238,5,5v40C391,478.557,388.762,480.795,386,480.795z"></path></g><g><path d="M106,291.205c-13.785,0-25-11.215-25-25s11.215-25,25-25s25,11.215,25,25S119.785,291.205,106,291.205z M106,251.205      c-8.271,0-15,6.729-15,15s6.729,15,15,15s15-6.729,15-15S114.271,251.205,106,251.205z"></path></g><g><path d="M436,251.205c-19.299,0-35-15.701-35-35s15.701-35,35-35s35,15.701,35,35S455.299,251.205,436,251.205z M436,191.205      c-13.785,0-25,11.215-25,25s11.215,25,25,25s25-11.215,25-25S449.785,191.205,436,191.205z"></path></g></g></g></g></svg>