<svg height='100px' width='100px'  fill="#000000" xmlns="http://www.w3.org/2000/svg" xmlns:xlink="http://www.w3.org/1999/xlink" version="1.1" x="0px" y="0px" viewBox="0 0 100 100" enable-background="new 0 0 100 100" xml:space="preserve"><g display="none"><polygon display="inline" opacity="0.3" fill-rule="evenodd" clip-rule="evenodd" points="19.022,70.404 18.649,68.362    18.076,67.688 17.807,65.531 16.829,64.485 16.361,63.576 15.654,62.666 14.541,62.666 14.102,62.228 14.138,61.756 13.093,61.284    11.948,59.262 11.545,58.989 11.342,58.181 10.298,57.137 9.729,56.43 7.303,56.462 6.262,56.092 5.856,55.315 6.763,54.033    7.336,53.695 7.404,52.415 8.685,52.688 9.794,52.415 10.399,52.854 11.107,52.988 11.477,52.351 12.252,51.741 12.452,49.011    12.317,46.72 12.756,45.099 13.699,43.616 13.667,42.369 13.26,41.693 13.699,40.483 14.943,38.964 15.146,38.188 15.654,38.123    16.292,38.326 17.438,33.975 18.145,32.154 19.794,30.973 19.827,30.062 21.241,27.738 21.408,26.727 22.518,26.49 23.025,26.556    23.663,24.703 25.244,22.006 25.244,20.015 25.886,18.228 26.19,17.811 26.97,18.141 28.207,18.199 28.627,17.495 29.551,17.438    31.122,14.123 31.767,14.544 32.104,15.135 34.406,15.976 35.498,15.976 36.564,15.051 37.688,14.909 38.5,15.639 38.92,15.188    39.932,15.218 41.781,16.708 41.952,16.371 42.905,16.176 44.084,16.426 45.121,17.383 46.074,17.578 48.123,19.402 48.569,20.305    50.255,20.556 50.422,20.95 51.546,21.062 51.937,21.596 53.312,22.495 54.965,24.123 56.035,24.349 57.155,25.95 57.296,27.074    57.659,27.778 58.5,27.804 60.1,29.896 58.979,30.222 58.613,31.625 58.108,32.665 58.333,34.182 57.771,35.223 57.659,36.287    56.734,37.611 57.296,38.286 59.483,38.199 60.857,37.3 62.427,37.02 63.468,37.626 63.102,38.257 63.457,40.465 64.465,43.605    66.035,44.388 65.81,46.07 66.593,47.865 68.725,48.311 70.183,49.548 87.333,54.816 94.846,54.704 76.619,72.775 73.058,72.673    69.439,72.814 68.319,73.519 67.307,73.601 65.85,74.359 65.375,75.537 64.236,76.201 62.706,77.046 60.984,77.296 59.117,78.21    58.613,79.04 58.402,79.105 56.93,79.08 54.744,79.446 53.761,78.885 53.062,77.619 52.216,77.198 49.498,77.561 48.881,77.957    47.981,77.897 46.749,78.377 46.187,79.135 44.646,81.524 43.493,81.607 42.652,81.607 41.614,81.24 40.044,81.467 38.779,80.908    36.705,80.908 35.781,80.596 34.827,79.501 33.395,78.519 30.955,76.188 29.859,75.513 27.028,75.679 25.57,75.313 24.25,75.763    23.13,75.537 22.119,74.414 22.119,70.903 21.223,70.763 20.07,70.987 19.454,69.922  "></polygon></g><g display="none"><path display="inline" d="M27.971,56.296v-5.24h3.789v0.616h-3.096v1.607h2.901v0.611h-2.901v1.785h3.22v0.62H27.971L27.971,56.296   z M34.174,56.296v-4.624h-1.726v-0.616H36.6v0.616h-1.733v4.624H34.174L34.174,56.296z M37.333,56.296v-5.24h0.696v2.151h2.723   v-2.151h0.693v5.24h-0.693v-2.47h-2.723v2.47H37.333L37.333,56.296z M42.717,56.296v-5.24h0.693v5.24H42.717L42.717,56.296z    M44.421,53.742c0-0.869,0.236-1.552,0.704-2.041c0.468-0.493,1.069-0.74,1.81-0.74c0.482,0,0.917,0.117,1.305,0.35   c0.388,0.228,0.685,0.551,0.888,0.964c0.203,0.414,0.308,0.884,0.308,1.407c0,0.532-0.109,1.007-0.323,1.428   c-0.214,0.417-0.519,0.736-0.91,0.95c-0.395,0.218-0.819,0.327-1.276,0.327c-0.493,0-0.932-0.12-1.32-0.36   c-0.391-0.239-0.685-0.565-0.885-0.975C44.522,54.638,44.421,54.203,44.421,53.742L44.421,53.742z M45.139,53.753   c0,0.632,0.167,1.128,0.508,1.491c0.341,0.366,0.765,0.548,1.28,0.548c0.522,0,0.95-0.185,1.287-0.552   c0.337-0.365,0.504-0.889,0.504-1.563c0-0.424-0.073-0.798-0.214-1.116c-0.146-0.319-0.355-0.565-0.635-0.739   c-0.275-0.174-0.587-0.266-0.935-0.266c-0.49,0-0.91,0.171-1.266,0.509C45.313,52.401,45.139,52.963,45.139,53.753L45.139,53.753z    M50.328,56.296v-5.24h1.976c0.349,0,0.617,0.016,0.798,0.048c0.257,0.044,0.476,0.126,0.649,0.246   c0.17,0.119,0.312,0.29,0.417,0.504c0.109,0.218,0.16,0.456,0.16,0.719c0,0.441-0.141,0.822-0.424,1.131   c-0.282,0.309-0.794,0.461-1.537,0.461H51.02v2.132H50.328L50.328,56.296z M51.02,53.547h1.356c0.45,0,0.765-0.083,0.954-0.25   c0.189-0.168,0.283-0.402,0.283-0.707c0-0.218-0.054-0.406-0.167-0.562c-0.108-0.155-0.253-0.256-0.435-0.308   c-0.12-0.029-0.333-0.048-0.649-0.048H51.02V53.547L51.02,53.547z M55.331,56.296v-5.24h0.693v5.24H55.331L55.331,56.296z    M56.669,56.296l2.012-5.24h0.751l2.143,5.24h-0.79l-0.613-1.589h-2.19l-0.573,1.589H56.669L56.669,56.296z M58.181,54.143h1.781   l-0.548-1.451c-0.167-0.439-0.293-0.801-0.373-1.088c-0.065,0.337-0.16,0.671-0.283,1.004L58.181,54.143z"></path></g><g><path fill="none" stroke="#000000" stroke-linecap="round" stroke-linejoin="round" stroke-miterlimit="10" d="M94.846,54.704   l-7.513,0.112l-16.999-5.483c-0.372,0.179-3.756-1.141-4.211-1.667c-0.982-1.137,0.597-3.61-1.431-3.69   c0.218-1.306-1.31-4.736-1.887-5.946c-0.514,0.099-1.063-0.17-1.471-0.225c-0.668-0.09-0.439-0.209-1.297-0.093   c-1.125,0.152-2.16,0.899-3.352,0.929c1.114-2.842,1.143-5.889,2.177-8.783c0.52-0.113,1.021-0.246,1.574-0.179   c-0.808-1.491-1.28-1.653-2.907-1.708c-0.477-0.93-0.99-2.318-1.688-3.112c-0.282-0.321-0.803-0.144-1.216-0.696   c-0.312-0.419-0.379-0.945-0.317-1.471c-1.548,0.21-1.699-1.505-3.279-1.221c-0.235-1.204-1.824-0.63-2.541-1.301   c-0.49-0.459-0.616-1.56-1.358-2.124c-0.883-0.672-1.783-0.954-2.805-1.334c-1.051-0.391-1.996-0.026-2.999-0.371   c-0.426-0.146-0.387-0.839-0.863-0.966c-0.531-0.141-1.053,0.178-1.333,0.124c-0.669-0.129-1.496-0.904-2.462-0.795   c-1.104,0.124-1.728,1.112-3.004,0.966c-0.952-0.109-1.602-0.916-2.629-0.982c-0.716,1.741-2.274,4.324-4.538,3.329   c-0.914,1.924-1.105,3.562-2.208,5.283c-0.65,1.014-1.042,4.083-2.759,3.392c-0.355,1.003-1.106,1.638-1.487,2.517   c-0.394,0.907-0.122,1.519-0.875,2.458c-1.451,1.81-2.852,3.822-2.858,6.482c-0.839-0.504-1.26-0.308-1.82,0.355   c-0.061,0.072,0.101,0.824,0.011,0.999c-0.103,0.201-0.49,0.474-0.629,0.709c-0.48,0.813-0.739,1.018-0.67,1.945   c0.067,0.903,0.441,0.926,0.138,1.884c-0.465,1.468-1.27,2.571-1.338,4.296c-0.061,1.528,0.217,3.183-0.19,4.642   c-1.126-0.937-2.888-0.289-4.413-0.083c0.052,0.285-0.152,0.765-0.088,1.077c0.043,0.211-2.705,0.299-0.563,1.799   c1.014,0.71,2.68,0.688,3.76,1.566c1.199,0.975,1.73,2.69,2.371,4.146c0.811-0.082,0.673,0.684,1.242,1.057   c0.527,0.345,1.076,0.186,1.591,0.584c0.969,0.75,1.606,2.101,2.567,3.083c-1.638,0.854,0.262,2.149,0.092,3.276   c0.15,0.001,0.13-0.194,0.3-0.139c0.197,0.653,0.37,1.276,0.954,1.634c0.141-0.127,0.235-0.228,0.384-0.338   c0.417,0.83,1.209,0.994,1.97,0.542c0.068,1.25,0.285,2.556,0.218,3.792c0.606,0.028,1.033,0.397,1.169,0.999   c0.936,0.171,1.736-0.102,2.468-0.101c1.084,0.001,2.097,0.075,3.174-0.083c1.181-0.173,1.406-0.663,2.463,0.533   c0.897,1.017,1.298,2.57,2.168,3.643c1.193,1.471,3.435,1.463,5.365,1.366c2.068-0.104,3.259,0.588,5.475,0.475   c-0.606-3.129,4.397-3.857,6.192-4.104c2.229-0.307,2.034,1.005,3.641,1.665c0.969,0.398,1.603-0.052,2.691-0.202   c1.402-0.194,1.239-0.104,2.307-0.834c0.816-0.558,0.916-0.889,2.174-1.162c0.597-0.13,1.609-0.118,2.184-0.325   c1.657-0.597,1.788-2.033,3.041-2.979c1.894-1.429,7.465-2.749,9.583-1.483c0.175,0.105,0.375,0.173,0.547,0.283L94.846,54.704z"></path></g></svg>