<svg height='100px' width='100px'  fill="#000000" xmlns="http://www.w3.org/2000/svg" xmlns:xlink="http://www.w3.org/1999/xlink" version="1.1" x="0px" y="0px" viewBox="0 0 64 64" style="enable-background:new 0 0 64 64;" xml:space="preserve"><path d="M49.6,8.2c-0.368-0.276-0.877-0.266-1.233,0.026l-4.635,3.792L32.662,2.25c-0.397-0.351-1-0.33-1.374,0.048L20.957,12.77  l-5.403-3.602c-0.336-0.224-0.773-0.224-1.109,0l-12,8c-0.367,0.245-0.53,0.7-0.402,1.122C2.17,18.711,2.56,19,3,19h24h22h12  c0.431,0,0.812-0.275,0.949-0.684c0.136-0.409-0.004-0.858-0.349-1.116L49.6,8.2z M6.303,17L15,11.202l5.534,3.69c0,0,0,0,0,0  L23.697,17H6.303z M22.652,13.899l9.396-9.524l10.997,9.704c0,0,0,0.001,0.001,0.001L46.355,17H27.303L22.652,13.899z M49.378,17  l-4.127-3.641l3.775-3.089L58,17H49.378z"></path><path d="M55.7,31.186c0.805-0.977,1.3-2.267,1.3-3.686c0-3.033-2.243-5.5-5-5.5s-5,2.467-5,5.5c0,1.357,0.451,2.599,1.195,3.559  c-1.245,0.181-2.377,0.817-3.177,1.818L42.52,36h-1.938l-1.278-8.947c-0.12-0.839-0.592-1.592-1.295-2.065s-1.58-0.626-2.4-0.421  c-1.556,0.389-2.529,1.925-2.214,3.498l1.724,8.618C34.441,37.234,34,38.062,34,39c0,1.358,0.913,2.495,2.153,2.863l3.867,19.333  c0.061,0.306,0.261,0.565,0.541,0.702C40.699,61.966,40.85,62,41,62c0.153,0,0.307-0.035,0.447-0.105l2-1  c0.385-0.192,0.604-0.61,0.542-1.036L41.438,42H46v16.5c0,1.93,1.57,3.5,3.5,3.5c0.98,0,1.864-0.407,2.5-1.058  C52.636,61.593,53.52,62,54.5,62c1.93,0,3.5-1.57,3.5-3.5V46.827c0.162,0.059,0.33,0.104,0.503,0.133  c0.164,0.027,0.329,0.04,0.492,0.04c0.711,0,1.402-0.249,1.948-0.714C61.615,45.714,62,44.881,62,44v-5  C62,35.173,59.297,31.968,55.7,31.186z M52,24c1.654,0,3,1.57,3,3.5S53.654,31,52,31s-3-1.57-3-3.5S50.346,24,52,24z M36.092,26.508  c0.28-0.068,0.562-0.019,0.8,0.14c0.238,0.16,0.391,0.404,0.432,0.688L38.562,36H37.02l-1.666-8.327  C35.25,27.149,35.574,26.637,36.092,26.508z M41.908,59.428l-0.185,0.092L38.22,42h1.199L41.908,59.428z M60,44  c0,0.294-0.128,0.572-0.353,0.762c-0.228,0.193-0.52,0.271-0.823,0.224C58.362,44.91,58,44.43,58,43.893V41v-3h-2v3v2.893V58.5  c0,0.827-0.673,1.5-1.5,1.5S53,59.327,53,58.5V45h-2v13.5c0,0.827-0.673,1.5-1.5,1.5S48,59.327,48,58.5V40h0l1.8-2.4l-1.6-1.2  L45.5,40h-5.214H37c-0.551,0-1-0.449-1-1s0.449-1,1-1h2.714H43c0.304,0,0.591-0.138,0.781-0.375l2.799-3.499  C47.152,33.41,48.006,33,48.922,33H54c3.309,0,6,2.691,6,6V44z"></path><path d="M3,22v7.994c-0.021,3.34,0.664,14.921,10.326,23.745c7.955,7.265,17.122,8.282,21.623,8.282c0.402,0,0.767-0.008,1.09-0.021  l-0.077-1.998c-3.702,0.144-13.169-0.325-21.287-7.739C5.622,43.995,4.981,33.137,5,30v-8H3z"></path><path d="M33.124,41.008C26.406,40.168,23,33.773,23,22h-2c0,12.944,3.996,20.007,11.876,20.992L33.124,41.008z"></path></svg>