<svg height='100px' width='100px'  fill="#000000" xmlns="http://www.w3.org/2000/svg" xmlns:xlink="http://www.w3.org/1999/xlink" version="1.1" x="0px" y="0px" viewBox="206 206 100 100" enable-background="new 206 206 100 100" xml:space="preserve"><g><path fill="#000000" d="M302.666,267.86c0-7.57-6.16-13.729-13.732-13.729c-7.48,0-13.578,6.016-13.723,13.461   c-1.309-0.646-2.664-1.193-4.039-1.629l0,0c-0.008-0.004-0.018-0.008-0.025-0.01c-0.184-0.059-0.379-0.119-0.592-0.182v-5.691   c4.367-2.668,7.352-7.384,7.609-12.802c2.203-0.321,3.898-2.222,3.898-4.512c0-2.282-1.688-4.178-3.879-4.508v-2.506   c0-2.466-0.582-4.917-1.68-7.108c0.041-0.257,0.063-0.521,0.063-0.789v-0.194c0-3.047-1.195-5.783-3.455-7.911   c-1.619-1.524-3.408-2.362-3.707-2.362c-0.191,0-0.375,0.082-0.504,0.224s-0.191,0.333-0.174,0.524   c0.059,0.579-0.119,1.087-0.543,1.555c-1.955,2.162-8.578,2.933-14.123,2.933c-0.598,0-0.956-0.01-0.959-0.01   c-0.006-0.001-0.013-0.001-0.019-0.001c-2.783,0-5.047,2.264-5.047,5.047v0.194c0,0.268,0.021,0.532,0.063,0.79   c-1.098,2.19-1.68,4.642-1.68,7.107v2.507c-2.192,0.33-3.878,2.225-3.878,4.507c0,0.415,0.057,0.817,0.161,1.199   c-0.522,0.115-1.103,0.33-1.753,0.653c-1.835-0.911-3.159-0.998-4.041-0.269c-0.922,0.763-0.981,2.22-0.844,3.389   c-0.492-0.229-1.079-0.401-1.721-0.383c-1.034,0.024-1.972,0.512-2.786,1.449c-0.391,0.449-0.56,0.993-0.49,1.574   c0.137,1.142,1.2,2.437,3.242,3.95c-0.087,0.255-0.138,0.523-0.149,0.797c-4.864,0.503-8.951,3.835-10.458,8.443   c-1.496-1.557-3.846-2.512-6.359-2.512c-4.415,0-8.006,2.879-8.006,6.414c0,0.43,0.057,0.857,0.162,1.279   c-0.105,0.42-0.162,0.846-0.162,1.275c0,0.432,0.056,0.859,0.162,1.279c-0.105,0.42-0.162,0.846-0.162,1.275   s0.057,0.857,0.162,1.279c-0.105,0.418-0.162,0.846-0.162,1.275s0.057,0.857,0.162,1.277c-0.105,0.42-0.162,0.848-0.162,1.277   c0,0.488,0.071,0.963,0.2,1.418c-0.132,0.469-0.2,0.947-0.2,1.428c0,0.432,0.057,0.859,0.162,1.279   c-0.105,0.418-0.162,0.848-0.162,1.277c0,0.428,0.057,0.857,0.162,1.277c-0.105,0.418-0.162,0.848-0.162,1.275   c0,0.432,0.057,0.859,0.162,1.279c-0.105,0.418-0.162,0.846-0.162,1.275c0,3.537,3.592,6.414,8.006,6.414   c3.984,0,7.297-2.342,7.906-5.398c1.939,2.813,4.992,4.744,8.374,5.26c0.008,0.004,0.017,0.004,0.026,0.004   c0.588,0.09,1.188,0.137,1.792,0.137h10.399c0.582,0,1.165-0.043,1.731-0.125h43.272c0.375,0,0.68-0.305,0.68-0.68   c0-4.279-0.9-8.385-2.676-12.221c0.031,0,0.061,0.004,0.09,0.004C296.506,281.592,302.666,275.43,302.666,267.86z M288.164,280.207   c-0.061-0.113-0.123-0.225-0.186-0.338c-0.08-0.148-0.16-0.297-0.244-0.445c-0.096-0.168-0.191-0.334-0.291-0.5   c-0.086-0.145-0.172-0.289-0.258-0.434c-0.102-0.166-0.207-0.326-0.311-0.49c-0.09-0.139-0.18-0.279-0.271-0.418   c-0.107-0.162-0.221-0.32-0.33-0.48c-0.094-0.137-0.188-0.271-0.283-0.404c-0.115-0.16-0.234-0.316-0.354-0.475   c-0.098-0.129-0.191-0.26-0.291-0.387c-0.125-0.16-0.252-0.314-0.381-0.471c-0.096-0.121-0.193-0.244-0.295-0.363   c-0.137-0.164-0.277-0.324-0.42-0.484c-0.096-0.107-0.188-0.219-0.283-0.324c-0.188-0.207-0.381-0.41-0.572-0.611   c-0.104-0.107-0.205-0.211-0.309-0.314c-0.199-0.203-0.4-0.404-0.605-0.602c-0.107-0.1-0.217-0.197-0.322-0.297   c-0.156-0.143-0.311-0.287-0.469-0.428c-0.119-0.105-0.242-0.207-0.363-0.313c-0.15-0.127-0.299-0.258-0.453-0.385   c-0.127-0.104-0.258-0.205-0.387-0.309c-0.15-0.119-0.301-0.24-0.455-0.357c-0.135-0.102-0.271-0.201-0.406-0.301   c-0.154-0.113-0.307-0.227-0.463-0.336c-0.139-0.098-0.281-0.193-0.422-0.289c-0.156-0.107-0.314-0.215-0.473-0.318   c-0.143-0.092-0.289-0.184-0.434-0.273c-0.162-0.102-0.322-0.203-0.486-0.301c-0.123-0.074-0.248-0.148-0.371-0.219h1.561   c0.375,0,0.68-0.305,0.68-0.682c0-0.375-0.305-0.68-0.68-0.68h-1.953c0.158-2.898,1.32-5.535,3.141-7.566l1.377,1.375   c0.133,0.133,0.309,0.199,0.482,0.199c0.172,0,0.348-0.066,0.48-0.199c0.266-0.266,0.266-0.697,0-0.963l-1.375-1.373   c2.031-1.822,4.666-2.983,7.566-3.141v1.949c0,0.377,0.305,0.682,0.68,0.682s0.68-0.305,0.68-0.682v-1.949   c2.9,0.157,5.535,1.318,7.566,3.141l-1.375,1.373c-0.266,0.266-0.266,0.697,0,0.963c0.133,0.133,0.309,0.199,0.48,0.199   c0.176,0,0.35-0.066,0.482-0.199l1.375-1.373c1.82,2.029,2.982,4.666,3.141,7.564h-1.951c-0.375,0-0.682,0.305-0.682,0.68   c0,0.377,0.307,0.682,0.682,0.682h1.951c-0.158,2.898-1.32,5.533-3.141,7.566l-1.375-1.375c-0.266-0.266-0.697-0.266-0.963,0   c-0.266,0.264-0.266,0.695,0,0.961l1.375,1.375c-2.031,1.822-4.666,2.984-7.566,3.143v-1.953c0-0.375-0.305-0.68-0.68-0.68   s-0.68,0.305-0.68,0.68v1.953C288.224,280.209,288.193,280.207,288.164,280.207z M269.193,266.283v0.002   c0,0.045,0.006,0.088,0.014,0.131c0.002,0.008,0.004,0.016,0.006,0.023c0.008,0.035,0.02,0.068,0.031,0.1   c0.004,0.01,0.01,0.018,0.014,0.027c0.012,0.031,0.029,0.059,0.047,0.086c0.004,0.008,0.01,0.016,0.016,0.023   c0.02,0.027,0.039,0.055,0.063,0.078c0.008,0.006,0.012,0.012,0.018,0.018c0.025,0.025,0.055,0.049,0.084,0.068   c0.006,0.004,0.008,0.008,0.014,0.01c0.068,0.047,0.146,0.082,0.232,0.1c0.152,0.043,0.289,0.082,0.422,0.123   c-0.525,2.311-2.029,4.256-4.143,5.35c-0.42-0.434-1.012-0.707-1.668-0.707h-4.082c-0.656,0-1.248,0.273-1.67,0.709   c-2.112-1.094-3.616-3.041-4.142-5.352c0.144-0.045,0.294-0.088,0.461-0.135c0.008,0,0.014-0.004,0.022-0.008   c0.032-0.01,0.062-0.02,0.091-0.035c0.014-0.006,0.026-0.014,0.04-0.021c0.024-0.014,0.048-0.027,0.07-0.045   c0.015-0.012,0.027-0.023,0.041-0.035c0.019-0.016,0.037-0.033,0.054-0.051c0.013-0.016,0.025-0.031,0.036-0.045   c0.015-0.02,0.029-0.039,0.042-0.059c0.011-0.018,0.02-0.035,0.028-0.053c0.011-0.021,0.021-0.043,0.028-0.063   c0.008-0.021,0.014-0.043,0.019-0.064c0.005-0.02,0.011-0.041,0.015-0.063c0.004-0.025,0.006-0.049,0.008-0.074   c0-0.014,0.003-0.025,0.003-0.039v-5.453c2.123,1.021,4.468,1.566,6.896,1.566c2.467,0,4.807-0.566,6.891-1.574V266.283z    M253.151,267.492c0.639,2.656,2.385,4.889,4.827,6.146c-0.02,0.121-0.031,0.242-0.031,0.367c0,0.838,0.457,1.568,1.135,1.969   l-2.7,12.451c-0.049,0.227,0.02,0.465,0.184,0.627l4.088,4.076h-14.345v-11.195c0-0.377-0.305-0.68-0.681-0.68   c-0.375,0-0.681,0.303-0.681,0.68v11.195H234.45c0.141-5.961,2.13-11.588,5.775-16.316   C243.566,272.479,248.023,269.27,253.151,267.492z M265.295,274.006c0,0.514-0.428,0.93-0.953,0.93h-4.082   c-0.525,0-0.953-0.416-0.953-0.93c0-0.512,0.428-0.93,0.953-0.93h4.082C264.867,273.076,265.295,273.494,265.295,274.006z    M257.791,288.352l2.613-12.055h3.793l2.613,12.055l-4.51,4.496L257.791,288.352z M280.701,242.766c0,1.531-1.08,2.814-2.518,3.127   v-6.253C279.621,239.954,280.701,241.236,280.701,242.766z M249.396,227.66c0-2.03,1.648-3.681,3.677-3.686   c0.066,0.002,0.419,0.011,0.988,0.011c3.628,0,12.371-0.33,15.132-3.38c0.41-0.453,0.682-0.948,0.814-1.48   c1.674,0.946,5.197,3.53,5.197,8.535v0.194c0,2.032-1.652,3.686-3.688,3.686h-18.435c-2.033,0-3.687-1.654-3.687-3.686V227.66z    M247.779,235.752c0-1.835,0.333-3.604,0.99-5.279c0.886,1.455,2.488,2.428,4.313,2.428h18.435c1.826,0,3.428-0.973,4.314-2.428   c0.656,1.675,0.99,3.444,0.99,5.279v3.136v7.628c0,8.006-6.514,14.52-14.52,14.52c-2.68,0-5.248-0.721-7.484-2.07   c-0.018-0.014-0.038-0.023-0.057-0.035c-0.98-0.598-1.897-1.314-2.729-2.146c-2.396-2.396-3.852-5.48-4.182-8.807l0,0   c0-0.001,0-0.001,0-0.002c-0.047-0.482-0.072-0.969-0.072-1.458v-7.628V235.752z M247.114,255.123   c-0.006-0.143-0.02-0.283-0.046-0.422c0.412-0.29,0.793-0.574,1.141-0.853c0.302,0.579,0.641,1.139,1.016,1.68   C248.537,255.331,247.832,255.197,247.114,255.123z M235.515,255.241c0-0.276,0.076-0.544,0.223-0.774   c0.269-0.431,0.732-0.687,1.239-0.687h7.319c0.594,0,1.123,0.353,1.351,0.9c0,0.001,0.001,0.003,0.001,0.004   c0.074,0.177,0.111,0.365,0.111,0.558v0.986c0,0.806-0.656,1.462-1.462,1.462h-7.32c-0.806,0-1.462-0.656-1.462-1.462V255.241z    M246.437,247.278c0.003,0.076,0.011,0.151,0.015,0.226c-0.22,0.065-0.43,0.145-0.624,0.235c0.022-0.187,0.041-0.381,0.051-0.579   C246.06,247.21,246.246,247.251,246.437,247.278z M246.418,239.641v6.252c-1.438-0.313-2.518-1.596-2.518-3.127   C243.9,241.236,244.98,239.954,246.418,239.641z M232.416,250.215c-0.025-0.203,0.025-0.357,0.166-0.519   c0.551-0.634,1.151-0.964,1.784-0.982c1.191-0.026,2.2,0.998,2.209,1.006c0.218,0.228,0.563,0.276,0.835,0.117   c0.272-0.16,0.398-0.485,0.306-0.787c-0.287-0.939-0.651-3.068,0.057-3.653c0.435-0.359,1.475-0.145,2.855,0.587   c0.199,0.106,0.438,0.106,0.637,0c0.945-0.502,1.586-0.688,2.008-0.74c0.327,0.503,0.75,0.938,1.244,1.279   c0.073,1.127-0.321,2.466-0.34,2.527c-0.002,0.009-0.002,0.019-0.004,0.027c-0.008,0.029-0.013,0.058-0.017,0.086   c-0.002,0.014-0.003,0.027-0.004,0.041c0,0.016-0.004,0.03-0.004,0.046c0,0.019,0.004,0.037,0.005,0.055   c0,0.009,0.002,0.018,0.002,0.026c0.005,0.04,0.013,0.079,0.025,0.116c0,0.001,0,0.002,0,0.003   c0.085,0.277,0.341,0.481,0.647,0.481c0.074,0,0.144-0.016,0.211-0.038c0.002,0,0.005-0.001,0.008-0.002   c0.09-0.031,0.171-0.08,0.239-0.142c0.011-0.01,0.022-0.019,0.033-0.03c0.005-0.005,0.011-0.009,0.016-0.015   c0.124-0.12,0.611-0.562,1.259-0.813c0.19,1.274,0.532,2.511,1.019,3.688c-0.338,0.282-0.715,0.574-1.132,0.872   c-0.527-0.644-1.321-1.031-2.184-1.031h-7.319c-0.731,0-1.415,0.276-1.931,0.761C232.888,251.57,232.468,250.639,232.416,250.215z    M223.085,275.104c-1.193,1.563-3.37,2.529-5.743,2.529c-2.529,0-4.879-1.127-5.988-2.869c-0.188-0.293-0.335-0.602-0.444-0.918   c0.168,0.182,0.345,0.357,0.537,0.523c1.511,1.314,3.66,2.07,5.895,2.07c2.162,0,4.242-0.709,5.743-1.945V275.104z    M217.342,278.992c2.19,0,4.255-0.721,5.743-1.943v0.611c-1.193,1.561-3.37,2.527-5.743,2.527c-3.014,0-5.681-1.582-6.434-3.789   C212.4,278.02,214.762,278.992,217.342,278.992z M223.085,272.555c-0.212,0.277-0.459,0.541-0.743,0.789   c-1.268,1.104-3.09,1.734-5,1.734c-1.912,0-3.735-0.631-5.002-1.736c-0.394-0.342-0.725-0.721-0.985-1.131   c-0.185-0.285-0.329-0.588-0.437-0.896c1.471,1.58,3.816,2.568,6.423,2.568c2.19,0,4.256-0.719,5.745-1.943V272.555z    M217.342,281.549c2.19,0,4.255-0.721,5.743-1.945v0.611c-1.193,1.561-3.37,2.525-5.743,2.525c-3.081,0-5.677-1.6-6.428-3.766   C212.384,280.559,214.731,281.549,217.342,281.549z M223.234,284.881c0.039-0.031,0.074-0.068,0.112-0.102   c0.023,0.111,0.05,0.223,0.076,0.332c-0.032,0.055-0.061,0.113-0.095,0.166c-1.108,1.74-3.458,2.865-5.984,2.865   c-2.529,0-4.879-1.125-5.988-2.867c-0.188-0.293-0.336-0.604-0.444-0.92c0.168,0.182,0.345,0.359,0.537,0.525   c1.51,1.314,3.659,2.066,5.895,2.066C219.576,286.948,221.725,286.196,223.234,284.881z M217.342,289.504   c2.578,0,4.939-0.975,6.431-2.594c-0.755,2.205-3.421,3.787-6.432,3.787c-3.012,0-5.68-1.582-6.433-3.787   C212.4,288.53,214.762,289.504,217.342,289.504z M217.341,262.416c2.514,0,4.813,1.09,5.941,2.793   c-0.012,0.066-0.02,0.133-0.031,0.199c-0.012,0.076-0.024,0.15-0.036,0.227c-0.019,0.125-0.034,0.252-0.048,0.377   c-0.007,0.07-0.016,0.137-0.023,0.205c-0.015,0.154-0.026,0.311-0.035,0.467c-0.003,0.039-0.006,0.078-0.008,0.117   c-0.01,0.201-0.016,0.402-0.016,0.605v2.598c-1.194,1.559-3.373,2.52-5.744,2.52c-3.091,0-5.821-1.668-6.489-3.965   c-0.104-0.357-0.156-0.723-0.156-1.09C210.696,264.684,213.676,262.416,217.341,262.416z M217.342,284.102   c2.19,0,4.255-0.719,5.743-1.943v0.1c0,0.268,0.01,0.523,0.026,0.771c-0.218,0.291-0.475,0.568-0.769,0.826   c-1.267,1.1-3.089,1.732-5,1.732c-1.913,0-3.736-0.633-5.003-1.734c-0.394-0.342-0.725-0.721-0.985-1.131   c-0.224-0.35-0.394-0.721-0.503-1.1c-0.025-0.086-0.047-0.172-0.066-0.26C212.235,283.02,214.633,284.102,217.342,284.102z    M217.341,293.252c-3.08,0-5.676-1.604-6.426-3.768c1.47,1.584,3.818,2.574,6.427,2.574s4.957-0.99,6.426-2.574   C223.017,291.649,220.421,293.252,217.341,293.252z M225.211,286.278c-0.161-0.402-0.298-0.818-0.407-1.236   c-0.158-0.598-0.266-1.229-0.321-1.869c-0.024-0.285-0.037-0.592-0.037-0.914v-14.852c0-0.742,0.075-1.482,0.221-2.193   c0.959-4.684,4.814-8.18,9.5-8.721c0.134,1.432,1.343,2.559,2.81,2.559h7.32c1.468,0,2.676-1.127,2.81-2.56   c1.401,0.161,2.738,0.589,3.985,1.272c0.883,0.881,1.853,1.641,2.889,2.281c0.023,0.023,0.043,0.051,0.066,0.076v5.65   c-0.212,0.063-0.407,0.121-0.586,0.18c-0.01,0.004-0.02,0.008-0.029,0.01c0,0.002-0.001,0.002-0.002,0.002   c-4.923,1.564-9.286,4.375-12.746,8.189h-0.354c-1.875,0-3.4-1.525-3.4-3.4c0-1.873,1.525-3.396,3.4-3.396h4.077   c0.376,0,0.68-0.307,0.68-0.682s-0.304-0.68-0.68-0.68h-2.779v-2.244c0-0.375-0.304-0.68-0.68-0.68   c-0.376,0-0.681,0.305-0.681,0.68v2.244c-2.597,0.035-4.699,2.156-4.699,4.758c0,2.367,1.738,4.336,4.005,4.699   c-0.143,0.176-0.287,0.352-0.425,0.531c-3.802,4.932-5.886,10.797-6.054,17.008C229.586,292.205,226.571,289.705,225.211,286.278z    M279.652,293.129v-11.195c0-0.377-0.303-0.68-0.68-0.68c-0.375,0-0.682,0.303-0.682,0.68v11.195h-14.344l4.088-4.076   c0.164-0.162,0.234-0.4,0.186-0.627l-2.701-12.451c0.678-0.4,1.137-1.131,1.137-1.969c0-0.125-0.014-0.248-0.033-0.367   c2.443-1.26,4.188-3.49,4.828-6.15c1.42,0.494,2.809,1.107,4.137,1.828c0.002,0,0.002,0,0.002,0   c4.553,2.479,8.275,6.117,10.844,10.576c0.064,0.113,0.133,0.225,0.195,0.338c0.027,0.047,0.053,0.098,0.078,0.145   c0.143,0.262,0.285,0.521,0.42,0.789c1.908,3.736,2.926,7.758,3.023,11.965H279.652z"></path><path fill="#000000" d="M288.935,268.541c0.375,0,0.68-0.305,0.68-0.682v-6.543c0-0.377-0.305-0.682-0.68-0.682   s-0.68,0.305-0.68,0.682v6.543C288.256,268.237,288.56,268.541,288.935,268.541z"></path><path fill="#000000" d="M214.748,270.319l0.726,0.289l-0.136,0.34c-0.139,0.352,0.031,0.746,0.38,0.885   c0.082,0.033,0.168,0.051,0.251,0.051c0.271,0,0.526-0.164,0.633-0.43l0.177-0.445c0.041,0.002,0.082,0.006,0.123,0.006   c0.287,0,0.573-0.059,0.844-0.174c0.526-0.225,0.934-0.643,1.146-1.176c0.212-0.531,0.205-1.113-0.021-1.641   c-0.226-0.525-0.643-0.932-1.174-1.145l-0.207-0.082c-0.195-0.078-0.347-0.227-0.429-0.418c-0.083-0.193-0.085-0.404-0.007-0.6   c0.16-0.4,0.616-0.596,1.017-0.436l1.358,0.541c0.35,0.141,0.745-0.029,0.884-0.379c0.14-0.348-0.03-0.744-0.379-0.883   l-0.521-0.209l0.136-0.342c0.139-0.348-0.03-0.744-0.38-0.883c-0.348-0.141-0.745,0.029-0.884,0.379l-0.156,0.389   c-0.971-0.162-1.96,0.367-2.341,1.318c-0.212,0.531-0.205,1.113,0.021,1.639c0.225,0.527,0.643,0.934,1.173,1.146l0.208,0.082   c0.401,0.16,0.597,0.617,0.437,1.018c-0.16,0.4-0.616,0.596-1.016,0.438c0,0-0.001-0.002-0.002-0.002   c-0.001-0.002-0.002-0.002-0.004-0.002l-1.354-0.539c-0.35-0.141-0.745,0.029-0.885,0.379   C214.228,269.781,214.399,270.178,214.748,270.319z"></path></g></svg>