<svg height='100px' width='100px'  fill="#000000" xmlns:x="http://ns.adobe.com/Extensibility/1.0/" xmlns:i="http://ns.adobe.com/AdobeIllustrator/10.0/" xmlns:graph="http://ns.adobe.com/Graphs/1.0/" xmlns="http://www.w3.org/2000/svg" xmlns:xlink="http://www.w3.org/1999/xlink" version="1.1" x="0px" y="0px" viewBox="0 0 100 100" enable-background="new 0 0 100 100" xml:space="preserve"><g><g i:extraneous="self"><g><circle fill="#000000" cx="50" cy="18.1" r="7.5"></circle><path fill="#000000" d="M58.4,27.3h-3.8L50,44.4l-4.6-17.1h-3.8c-0.8,0-1.4,0.6-1.4,1.4l-2.8,27.2c0,0.8,0.6,1.4,1.4,1.4h1.6     l-3,8.9l5.6,0.3l3,22.9h8.1l3-22.9l5.6-0.3l-3-8.9h1.6c0.8,0,1.4-0.6,1.4-1.4l-2.8-27.2C59.8,28,59.2,27.3,58.4,27.3z"></path><polygon fill="#000000" points="48,27.5 49.5,29.4 48.5,37.1 50,42.5 51.5,37.1 50.5,29.4 52,27.5    "></polygon></g></g></g></svg>