<svg height='100px' width='100px'  fill="#000000" xmlns:dc="http://purl.org/dc/elements/1.1/" xmlns:cc="http://creativecommons.org/ns#" xmlns:rdf="http://www.w3.org/1999/02/22-rdf-syntax-ns#" xmlns:svg="http://www.w3.org/2000/svg" xmlns="http://www.w3.org/2000/svg" xmlns:sodipodi="http://sodipodi.sourceforge.net/DTD/sodipodi-0.dtd" xmlns:inkscape="http://www.inkscape.org/namespaces/inkscape" viewBox="0 0 100 100" version="1.1" x="0px" y="0px"><g transform="translate(0,-952.36216)"><path style="color:#000000;font-style:normal;font-variant:normal;font-weight:normal;font-stretch:normal;font-size:medium;line-height:normal;font-family:sans-serif;text-indent:0;text-align:start;text-decoration:none;text-decoration-line:none;text-decoration-style:solid;text-decoration-color:#000000;letter-spacing:normal;word-spacing:normal;text-transform:none;direction:ltr;block-progression:tb;writing-mode:lr-tb;baseline-shift:baseline;text-anchor:start;white-space:normal;clip-rule:nonzero;display:inline;overflow:visible;visibility:visible;opacity:1;isolation:auto;mix-blend-mode:normal;color-interpolation:sRGB;color-interpolation-filters:linearRGB;solid-color:#000000;solid-opacity:1;fill:#000000;fill-opacity:1;fill-rule:evenodd;stroke:none;stroke-width:8;stroke-linecap:round;stroke-linejoin:round;stroke-miterlimit:4;stroke-dasharray:none;stroke-dashoffset:0;stroke-opacity:1;color-rendering:auto;image-rendering:auto;shape-rendering:auto;text-rendering:auto;enable-background:accumulate" d="m 34.700212,963.76818 a 0.73990074,0.73990074 0 0 0 -0.55234,0.216 l -2.30293,2.3033 a 0.73990074,0.73990074 0 0 0 -0.13294,0.1806 l -1.67472,3.21 -0.31609,0.3161 -1.29325,-0.4313 a 0.73990074,0.73990074 0 0 0 -0.54693,0.031 l -2.15915,1.0079 a 0.73990074,0.73990074 0 0 0 -0.32151,0.2897 l -0.14955,0.2496 -1.19536,-0.2991 a 0.73990074,0.73990074 0 0 0 -0.85325,0.4118 l -0.54331,1.1957 -2.45501,0.2453 a 0.73990074,0.73990074 0 0 0 -0.65205,0.5914 l -0.2666,1.3344 -1.06711,2.0273 -0.66288,-0.2944 a 0.73990074,0.73990074 0 0 0 -0.42916,-0.053 l -2.27403,0.4013 -1.27085,-0.3811 a 0.73990074,0.73990074 0 0 0 -0.9349,0.548 l -0.28791,1.2954 a 0.73990074,0.73990074 0 0 0 -0.0134,0.2381 l 0.2507,2.3835 -1.33371,1.3337 a 0.73990074,0.73990074 0 0 0 -0.20772,0.6386 l 0.43169,2.7347 a 0.73990074,0.73990074 0 0 0 0.0213,0.094 l 0.57113,1.9421 -0.57944,0.4136 a 0.73990074,0.73990074 0 0 0 -0.25359,0.3197 l -3.74248,9.0679 a 0.73990074,0.73990074 0 0 0 -0.0365,0.1142 l -0.92009,3.94262 -1.0812,0.4324 a 0.73990074,0.73990074 0 0 0 -0.46131,0.7615 l 1.15165,11.3709 a 0.73990074,0.73990074 0 0 0 0.77703,0.6643 l 5.02309,-0.2793 1.72314,0.6629 a 0.73990074,0.73990074 0 0 0 0.70948,-0.099 l 0.57582,-0.432 a 0.73990074,0.73990074 0 0 0 0.24276,-0.3172 l 0.40206,-1.0046 1.47062,-0.092 3.50262,4.0416 a 0.73990074,0.73990074 0 0 0 1.24774,-0.2145 l 3.71141,-9.47 1.07073,1.3181 a 0.73990074,0.73990074 0 0 0 0.43782,0.2605 l 2.05367,0.3851 3.1421,3.5521 a 0.73990074,0.73990074 0 0 0 0.74886,0.2236 l 6.33332,-1.7271 a 0.73990074,0.73990074 0 0 0 0.29224,-0.1571 l 0.7886,-0.69 1.51253,0.7059 0.89082,1.5273 a 0.73990074,0.73990074 0 0 0 0.93057,0.3074 l 3.72442,-1.5963 2.14615,1.01 a 0.73990074,0.73990074 0 0 0 0.14883,0.051 l 1.87088,0.4317 a 0.73990074,0.73990074 0 0 0 0.26407,0.013 l 3.9762,-0.5303 3.05612,2.7902 a 0.73990074,0.73990074 0 0 0 0.29839,0.1658 l 4.40862,1.2402 4.62392,4.8956 0.67155,2.5521 a 0.73990074,0.73990074 0 0 0 0.28682,0.4147 l 7.33939,5.2222 1.78852,3.4401 a 0.73990074,0.73990074 0 0 0 0.32584,0.3204 l 3.27178,1.6361 2.19347,3.4268 a 0.73990074,0.73990074 0 0 0 0.768,0.3265 l 1.1213,-0.2243 2.9044,2.1122 a 0.73990074,0.73990074 0 0 0 0.95802,-0.075 l 1.72747,-1.7271 a 0.73990074,0.73990074 0 0 0 0.21494,-0.4703 l 0.10512,-1.4739 2.49475,-0.5939 a 0.73990074,0.73990074 0 0 0 0.49743,-1.0364 l -1.29542,-2.7349 a 0.73990074,0.73990074 0 0 0 -0.97861,-0.3551 l -1.37309,0.6336 -0.77053,-0.867 -3.00771,-3.8671 a 0.73990074,0.73990074 0 0 0 -0.43891,-0.2713 l -1.73795,-0.3475 -1.59163,-4.7742 a 0.73990074,0.73990074 0 0 0 -0.24782,-0.3501 l -3.88589,-3.0228 a 0.73990074,0.73990074 0 0 0 -0.28177,-0.1355 l -3.32849,-0.7987 -6.17221,-8.6976 a 0.73990074,0.73990074 0 0 0 -0.34102,-0.2634 l -4.17416,-1.5833 a 0.73990074,0.73990074 0 0 0 -0.26227,-0.048 l -1.12094,0 -0.31283,-1.5641 a 0.73990074,0.73990074 0 0 0 -0.38473,-0.5119 l -3.88625,-2.015 a 0.73990074,0.73990074 0 0 0 -0.69142,0.01 l -1.6191,0.8717 -1.09095,-0.2728 -1.38104,-3.2642 0,-0.4259 a 0.73990074,0.73990074 0 0 0 -0.18712,-0.4913 l -2.30257,-2.59082 a 0.73990074,0.73990074 0 0 0 -1.07614,-0.032 l -1.43956,1.4395 a 0.73990074,0.73990074 0 0 0 -0.17448,0.7691 l 0.80196,2.27192 -0.0834,0.5411 -0.48334,-0.3222 -0.24348,-1.8272 a 0.73990074,0.73990074 0 0 0 -0.0419,-0.1654 l -1.15165,-3.02252 a 0.73990074,0.73990074 0 0 0 -0.83628,-0.4624 l -0.69539,0.1391 -0.44577,-2.5631 a 0.73990074,0.73990074 0 0 0 -0.20591,-0.3963 l -1.70977,-1.7097 -1.97275,-10.427 a 0.73990074,0.73990074 0 0 0 -0.0166,-0.07 l -2.01502,-6.9088 a 0.73990074,0.73990074 0 0 0 -0.0379,-0.1018 l -4.89377,-10.6509 a 0.73990074,0.73990074 0 0 0 -0.64301,-0.4306 z m -0.25793,2.0143 4.4274,9.6358 1.98973,6.8221 2.00851,10.6158 a 0.73990074,0.73990074 0 0 0 0.20374,0.3858 l 1.7058,1.7055 0.53536,3.0796 a 0.73990074,0.73990074 0 0 0 0.87421,0.5989 l 0.82544,-0.1651 0.89841,2.35752 0.27636,2.0735 a 0.73990074,0.73990074 0 0 0 0.32295,0.5181 l 1.7271,1.1512 a 0.73990074,0.73990074 0 0 0 1.14189,-0.5028 l 0.28755,-1.8713 a 0.73990074,0.73990074 0 0 0 -0.0336,-0.3587 l -0.7084,-2.00742 0.55487,-0.5549 1.59489,1.79432 0,0.2944 a 0.73990074,0.73990074 0 0 0 0.0585,0.2883 l 1.58333,3.7425 a 0.73990074,0.73990074 0 0 0 0.50177,0.4295 l 1.7271,0.4317 a 0.73990074,0.73990074 0 0 0 0.53031,-0.066 l 1.52697,-0.8222 3.2241,1.6719 0.36197,1.8105 a 0.73990074,0.73990074 0 0 0 0.72538,0.595 l 1.59164,0 3.83676,1.4551 6.20292,8.7406 a 0.73990074,0.73990074 0 0 0 0.4306,0.2912 l 3.44301,0.8261 3.58317,2.787 1.65667,4.9693 a 0.73990074,0.73990074 0 0 0 0.55667,0.4913 l 1.88895,0.3779 2.85382,3.6691 a 0.73990074,0.73990074 0 0 0 0.0311,0.037 l 1.15128,1.2955 a 0.73990074,0.73990074 0 0 0 0.86301,0.1802 l 1.20619,-0.5567 0.591,1.2478 -2.13459,0.5082 a 0.73990074,0.73990074 0 0 0 -0.56679,0.6673 l -0.12391,1.7397 -1.08517,1.0848 -2.65514,-1.9308 a 0.73990074,0.73990074 0 0 0 -0.58052,-0.1272 l -0.94357,0.1886 -2.03055,-3.1725 a 0.73990074,0.73990074 0 0 0 -0.29225,-0.263 l -3.23963,-1.6198 -1.76034,-3.3852 a 0.73990074,0.73990074 0 0 0 -0.22758,-0.2615 l -7.26605,-5.1705 -0.65169,-2.4756 a 0.73990074,0.73990074 0 0 0 -0.17737,-0.3197 l -4.89412,-5.1817 a 0.73990074,0.73990074 0 0 0 -0.33741,-0.2041 l -4.43679,-1.2477 -3.18111,-2.9044 a 0.73990074,0.73990074 0 0 0 -0.59641,-0.1871 l -4.18501,0.5581 -1.66316,-0.384 -2.37554,-1.1177 a 0.73990074,0.73990074 0 0 0 -0.60617,-0.01 l -3.42928,1.4696 -0.67806,-1.1625 a 0.73990074,0.73990074 0 0 0 -0.3262,-0.2977 l -2.15879,-1.0075 a 0.73990074,0.73990074 0 0 0 -0.80016,0.1138 l -1.0234,0.8952 -5.72499,1.5613 -3.00554,-3.3975 a 0.73990074,0.73990074 0 0 0 -0.41796,-0.237 l -2.03633,-0.3818 -1.69965,-2.0924 a 0.73990074,0.73990074 0 0 0 -1.26327,0.1965 l -3.72731,9.5123 -2.94125,-3.3935 a 0.73990074,0.73990074 0 0 0 -0.60508,-0.254 l -2.30293,0.1438 a 0.73990074,0.73990074 0 0 0 -0.64084,0.4639 l -0.49852,1.2466 -0.0824,0.062 -1.48941,-0.573 a 0.73990074,0.73990074 0 0 0 -0.3067,-0.048 l -4.47544,0.2485 -1.02413,-10.113 0.9219,-0.3688 a 0.73990074,0.73990074 0 0 0 0.44577,-0.5188 l 0.99378,-4.25942 3.63845,-8.8158 0.83447,-0.5964 a 0.73990074,0.73990074 0 0 0 0.27996,-0.811 l -0.70623,-2.4008 -0.36558,-2.3152 1.31674,-1.3167 a 0.73990074,0.73990074 0 0 0 0.21277,-0.6008 l -0.27527,-2.6147 0.0889,-0.4006 0.67733,0.203 a 0.73990074,0.73990074 0 0 0 0.34101,0.02 l 2.22454,-0.3923 1.08915,0.4837 a 0.73990074,0.73990074 0 0 0 0.95513,-0.3313 l 1.43919,-2.7349 a 0.73990074,0.73990074 0 0 0 0.0708,-0.1994 l 0.18063,-0.9028 2.33399,-0.2334 a 0.73990074,0.73990074 0 0 0 0.60003,-0.4298 l 0.46456,-1.0224 1.12924,0.2825 a 0.73990074,0.73990074 0 0 0 0.81389,-0.3374 l 0.31536,-0.5256 1.68701,-0.7871 1.44714,0.4826 a 0.73990074,0.73990074 0 0 0 0.75717,-0.1788 l 0.71959,-0.7196 a 0.73990074,0.73990074 0 0 0 0.13294,-0.181 l 1.67473,-3.2096 1.47098,-1.471 z"></path></g></svg>