<svg height='100px' width='100px'  fill="#000000" xmlns:dc="http://purl.org/dc/elements/1.1/" xmlns:cc="http://creativecommons.org/ns#" xmlns:rdf="http://www.w3.org/1999/02/22-rdf-syntax-ns#" xmlns:svg="http://www.w3.org/2000/svg" xmlns="http://www.w3.org/2000/svg" xmlns:sodipodi="http://sodipodi.sourceforge.net/DTD/sodipodi-0.dtd" xmlns:inkscape="http://www.inkscape.org/namespaces/inkscape" version="1.1" x="0px" y="0px" viewBox="0 0 100 100"><g transform="translate(0,-952.36218)"><path style="font-size:medium;font-style:normal;font-variant:normal;font-weight:normal;font-stretch:normal;text-indent:0;text-align:start;text-decoration:none;line-height:normal;letter-spacing:normal;word-spacing:normal;text-transform:none;direction:ltr;block-progression:tb;writing-mode:lr-tb;text-anchor:start;baseline-shift:baseline;opacity:1;color:#000000;fill:#000000;fill-opacity:1;stroke:none;stroke-width:2;marker:none;visibility:visible;display:inline;overflow:visible;enable-background:accumulate;font-family:Sans;-inkscape-font-specification:Sans" d="M 50,7 C 49.792449,7 49.534249,7.091167 49.40625,7.1875 41.460634,13.23187 32.6026,18 17,18 16.576103,17.992072 16.163696,18.284748 16.03125,18.6875 14.038233,25.1543 13,32.60814 13,40 c 0,25.613 16.207922,47.83315 36.75,52.96875 0.163105,0.04211 0.336895,0.04211 0.5,0 C 70.792078,87.83315 87,65.613 87,40 87,32.60814 85.961767,25.1543 83.96875,18.6875 83.836304,18.284748 83.423897,17.992072 83,18 67.397403,18 58.539367,13.23187 50.59375,7.1875 50.381815,7.0291067 50.207551,7 50,7 z m 0,2.1875 c 7.842097,5.86462 17.075987,10.57145 32.1875,10.75 C 83.991165,26.03848 85,33.03557 85,40 85,64.6566 69.339392,85.9493 50,90.9375 30.660608,85.9493 15,64.6566 15,40 15,33.03557 16.008835,26.03848 17.8125,19.9375 32.924016,19.75895 42.157904,15.05212 50,9.1875 z M 50,28 c -0.471405,0 -1,0.504931 -1,1 l 0,4.0625 c -5.001178,0.466983 -9,4.331384 -9,8.9375 0,2.84873 1.445361,4.89246 3.34375,6.21875 1.688668,1.179691 3.724411,1.891471 5.65625,2.5 l 0,14.25 C 45.614199,64.5914 42.718068,62.308882 41.96875,59.71875 41.829669,59.211514 41.241611,58.876545 40.734375,59.015625 40.227139,59.154706 39.892169,59.742764 40.03125,60.25 41.081029,63.878842 44.771743,66.59926 49,66.96875 L 49,71 c -0.0075,0.528313 0.471635,1.014242 1,1.014242 0.528365,0 1.007472,-0.485929 1,-1.014242 l 0,-4.03125 C 56.001181,66.501768 60,62.606125 60,58 60,55.1513 58.554639,53.0762 56.65625,51.75 54.969075,50.571352 52.930322,49.889487 51,49.28125 L 51,35.0625 c 3.385803,0.372766 6.28193,2.597259 7.03125,5.1875 0.139081,0.507236 0.727139,0.842205 1.234375,0.703125 0.507236,-0.139081 0.842206,-0.727139 0.703125,-1.234375 C 58.919256,36.090866 55.226836,33.429276 51,33.0625 L 51,29 c 0,-0.578679 -0.528595,-1 -1,-1 z M 49,35.09375 49,48.625 C 47.317868,48.066208 45.698439,47.421559 44.46875,46.5625 42.929382,45.48708 42,44.22439 42,42 c 0,-3.376557 3.023529,-6.447767 7,-6.90625 z M 51,51.375 c 1.681461,0.558671 3.302019,1.172511 4.53125,2.03125 C 57.070618,54.48175 58,55.7756 58,58 c 0,3.376492 -3.023531,6.479008 -7,6.9375 z" transform="translate(0,952.36218)"></path></g></svg>