<svg height='100px' width='100px'  fill="#000000" xmlns="http://www.w3.org/2000/svg" xmlns:xlink="http://www.w3.org/1999/xlink" version="1.1" x="0px" y="0px" viewBox="0 0 100 100" enable-background="new 0 0 100 100" xml:space="preserve"><circle cx="46.892" cy="15.705" r="13.842"></circle><path d="M82.658,64.078V53.082c0-9.675-7.168-19.159-18.493-19.159h-5.614L49.887,53.18V33.541h-5.989v19.443l-8.577-19.061h-4.976  c-11.325,0-18.494,9.483-18.494,19.159v39.142c-0.024,8.762,11.398,8.762,11.398,0V54.011h3.582v44.763l4.646,0.002v0.02h22.456  v-0.021h38.262V64.078H82.658z M67.679,54.011h3.582v10.067h-3.587L67.679,54.011z M55.232,67.621h16.028v13.853h-5.904v-4.854  h-4.22v4.854h-5.904V67.621z M88.652,95.23h-33.42V85.016h16.028v0.695c0,8.762,11.422,8.762,11.397,0v-0.695h5.994V95.23z   M88.652,81.474h-5.994V67.621h5.994V81.474z"></path></svg>