<svg height='100px' width='100px'  fill="#000000" xmlns="http://www.w3.org/2000/svg" xmlns:xlink="http://www.w3.org/1999/xlink" viewBox="0 0 100 100" version="1.1" x="0px" y="0px"><title>Hands B</title><desc>Created with Sketch.</desc><g stroke="none" stroke-width="1" fill="none" fill-rule="evenodd"><path d="M57.6631598,57.595732 C59.3643254,57.595732 61.8670696,56.0577635 64.8928326,53.1732212 C66.4160364,51.7211095 68.032316,49.9731001 69.7936702,47.9058273 C71.5809151,45.8081669 76.4391847,39.6952753 76.9096875,39.1421623 C78.1533596,37.6801284 77.8536972,35.9477187 76.3904319,34.8249544 C74.852486,33.6448876 72.8552498,33.7857195 71.3344781,35.5454783 C68.4801621,38.8483459 65.0184694,42.6092354 60.9484287,46.8296891 C59.6137447,48.2136979 57.4887615,46.3201776 58.710372,44.8354118 C59.2185836,44.2177229 59.5,43.4472989 59.5,42.6296422 C59.5,40.7277641 57.970738,39.1793828 56.0919893,39.1546278 L38.563008,39.1546278 C36.0801162,39.1546278 33.1770605,40.5362086 31.2194367,42.5674329 C29.0020841,44.868151 27.2286155,46.8453414 25.9019716,48.4936375 L31.4329778,57.595732 L57.6631598,57.595732 Z M69.0646345,33.5838947 C71.6524326,30.5894279 75.4495907,30.3216773 78.2166766,32.444864 C80.9755602,34.561757 81.6124577,38.2437912 79.1947779,41.0859633 C78.767734,41.5879869 73.9084733,47.7021254 72.0772124,49.8514468 C70.2539127,51.991424 68.57067,53.8118541 66.9628754,55.3446085 C63.4131435,58.7286647 60.374855,60.595732 57.6631598,60.595732 C46.5004159,60.595732 38.128358,60.595732 32.5469861,60.595732 C30.68486,60.595732 23.8673412,46.2342776 24.3101705,45.7068744 C25.5888383,44.1839998 27.1713375,42.4445965 29.0593424,40.4856086 C31.554172,37.8969811 35.2153035,36.1546278 38.563008,36.1546278 L51.3248512,36.1546278 C53.4745633,36.1546278 53.4745633,36.1546278 56.1116492,36.1547566 C59.1078124,36.1940295 61.6092854,38.2672453 62.3065032,41.0525101 C64.8539014,38.3392032 67.1067207,35.8494918 69.0646345,33.5838947 Z" fill="#000000" fill-rule="nonzero" transform="translate(52.491647, 45.827314) scale(1, -1) translate(-52.491647, -45.827314) "></path><path d="M20.514134,45.746325 L27.514134,45.746325 L27.514134,26.746325 L20.514134,26.746325 L20.514134,45.746325 Z M19.514134,23.746325 L28.514134,23.746325 C29.6187035,23.746325 30.514134,24.6417555 30.514134,25.746325 L30.514134,46.746325 C30.514134,47.8508945 29.6187035,48.746325 28.514134,48.746325 L19.514134,48.746325 C18.4095645,48.746325 17.514134,47.8508945 17.514134,46.746325 L17.514134,25.746325 C17.514134,24.6417555 18.4095645,23.746325 19.514134,23.746325 Z" fill="#000000" fill-rule="nonzero" transform="translate(24.014134, 36.246325) scale(1, -1) rotate(-30.000000) translate(-24.014134, -36.246325) "></path><path d="M45.5432928,45.5 C44.7148657,45.5 44.0432928,44.8284271 44.0432928,44 C44.0432928,43.1715729 44.7148657,42.5 45.5432928,42.5 L56,42.5 C59.5898509,42.5 62.5,45.4101491 62.5,49 C62.5,52.5898509 59.5898509,55.5 56,55.5 L46,55.5 C45.1715729,55.5 44.5,54.8284271 44.5,54 C44.5,53.1715729 45.1715729,52.5 46,52.5 L56,52.5 C57.9329966,52.5 59.5,50.9329966 59.5,49 C59.5,47.0670034 57.9329966,45.5 56,45.5 L45.5432928,45.5 Z" fill="#000000" fill-rule="nonzero" transform="translate(53.271646, 49.000000) scale(1, -1) translate(-53.271646, -49.000000) "></path><path d="M51.1319436,77 C49.4850775,74.9456031 48.5,72.3378401 48.5,69.5 C48.5,62.872583 53.872583,57.5 60.5,57.5 C67.127417,57.5 72.5,62.872583 72.5,69.5 C72.5,72.3378401 71.5149225,74.9456031 69.8680564,77 L65.4766927,77 C67.901736,75.3876177 69.5,72.6304561 69.5,69.5 C69.5,64.5294373 65.4705627,60.5 60.5,60.5 C55.5294373,60.5 51.5,64.5294373 51.5,69.5 C51.5,72.6304561 53.098264,75.3876177 55.5233073,77 L51.1319436,77 Z" fill="#000000" fill-rule="nonzero"></path><rect fill="#000000" x="47" y="76" width="27" height="3"></rect><rect fill="#000000" x="76" y="20" width="3" height="20"></rect><rect fill="#000000" x="70" y="20" width="3" height="11"></rect></g></svg>