<svg height='100px' width='100px'  fill="#000000" xmlns="http://www.w3.org/2000/svg" viewBox="0 0 100 100" x="0px" y="0px"><title>Healthy</title><g data-name="Iconos"><path d="M47.7,78a1.5,1.5,0,0,0-2.11.24c-2.91,3.63-5.29,6.49-6.62,8.07C36.28,83.15,29.22,74.62,22.11,65c-8-10.84-11.17-19-9.8-25,.78-3.42,3-6.09,6.92-8.15,8-4.27,18.72,3.8,18.83,3.88a1.52,1.52,0,0,0,1.83,0c.1-.08,10.77-8.16,18.82-3.88C64,34.54,66.3,38.5,65.9,43.86a1.5,1.5,0,0,0,3,.22c.49-6.58-2.46-11.62-8.77-15C51.82,24.7,42,30.55,39,32.61c-3-2.06-12.84-7.92-21.14-3.5C13.19,31.57,10.35,35,9.38,39.24c-1.57,6.92,1.8,15.91,10.31,27.5,9.06,12.31,18.06,22.8,18.15,22.9a1.5,1.5,0,0,0,2.27,0s3.3-3.84,7.83-9.49A1.51,1.51,0,0,0,47.7,78Z"></path><path d="M82,67.3a6.6,6.6,0,0,0-6.6-6.59H67.51V52.79a6.6,6.6,0,0,0-13.2,0v7.92H46.4a6.6,6.6,0,1,0,0,13.19h7.91v7.92a6.6,6.6,0,0,0,13.2,0V73.9h7.91A6.61,6.61,0,0,0,82,67.3ZM66,70.9a1.5,1.5,0,0,0-1.5,1.5v9.42a3.6,3.6,0,0,1-7.2,0V72.4a1.5,1.5,0,0,0-1.5-1.5H46.4a3.6,3.6,0,1,1,0-7.19h9.41a1.5,1.5,0,0,0,1.5-1.5V52.79a3.6,3.6,0,0,1,7.2,0v9.42a1.5,1.5,0,0,0,1.5,1.5h9.41a3.6,3.6,0,1,1,0,7.19Z"></path><path d="M83.59,17.94V14.79a5.08,5.08,0,1,0-10.15,0v3.15H70.29a5.08,5.08,0,0,0,0,10.15h3.15v3.15a5.08,5.08,0,1,0,10.15,0V28.09h3.16a5.08,5.08,0,0,0,0-10.15ZM88.82,23a2.07,2.07,0,0,1-2.07,2.07H82.09a1.5,1.5,0,0,0-1.5,1.5v4.65a2.08,2.08,0,1,1-4.15,0V26.59a1.5,1.5,0,0,0-1.5-1.5H70.29a2.08,2.08,0,0,1,0-4.15h4.65a1.5,1.5,0,0,0,1.5-1.5V14.79a2.08,2.08,0,1,1,4.15,0v4.65a1.5,1.5,0,0,0,1.5,1.5h4.66A2.08,2.08,0,0,1,88.82,23Z"></path></g></svg>