<svg height='100px' width='100px'  fill="#000000" xmlns="http://www.w3.org/2000/svg" xmlns:xlink="http://www.w3.org/1999/xlink" version="1.1" x="0px" y="0px" viewBox="0 0 307.523 237.183" style="enable-background:new 0 0 307.523 237.183;" xml:space="preserve"><g><path d="M129.808,105.412l0.033,0.059c1.695,2.724,2.225,5.941,1.496,9.065c-0.124,0.53-0.294,1.042-0.483,1.543h2.176l3.225,8.954   l-4.857,1.514c-0.641,0.196-1.209,0.617-1.59,1.173l-12.891,18.806c-7.242-4.336-15.713-6.834-24.767-6.834   c-3.818,0-7.528,0.457-11.092,1.295v8.64c3.524-1.021,7.243-1.579,11.092-1.579c7.294,0,14.13,1.975,20.021,5.405l-22.506,32.834   c-0.625,0.917-0.695,2.12-0.176,3.1c0.518,0.985,1.548,1.61,2.664,1.61h39.809c-1.545,20.624-18.805,36.931-39.812,36.931   c-3.877,0-7.621-0.565-11.168-1.601c-0.268,2.91-1.303,5.598-2.897,7.868c4.451,1.353,9.172,2.087,14.065,2.087   c25.657,0,46.634-20.016,48.19-45.285h21.798c0.088,0,0.172-0.023,0.258-0.031c0.127-0.012,0.254-0.02,0.379-0.047   c0.096-0.021,0.186-0.055,0.277-0.086c0.125-0.039,0.246-0.082,0.365-0.139c0.082-0.039,0.158-0.084,0.237-0.129   c0.114-0.068,0.226-0.145,0.333-0.229c0.076-0.061,0.148-0.121,0.219-0.189c0.037-0.035,0.08-0.063,0.117-0.102l68.082-72.24   l8.581,25.463c-17.623,7.199-30.05,24.504-30.05,44.717c0,26.674,21.621,48.297,48.289,48.297   c26.672,0,48.297-21.623,48.297-48.297c0-26.67-21.625-48.293-48.297-48.293c-4.34,0-8.541,0.582-12.541,1.653l-19.061-56.563   l7.854-3.729c0.789-0.372,1.33-1.048,1.572-1.819c1.291,1.451,3.168,2.369,5.262,2.369c3.895,0,7.052-3.156,7.052-7.052   c0-3.889-3.157-7.046-7.052-7.046c-3.893,0-7.051,3.157-7.051,7.046c0,0.347,0.035,0.687,0.082,1.019   c-0.758-0.314-1.641-0.33-2.44,0.052l-10.27,4.875c-1.379,0.649-2.049,2.228-1.561,3.675l4.41,13.086l-83.478,25.987l-2.581-7.164   h5.948c1.66,0,3.006-1.347,3.006-3.005v-5.514c0-1.66-1.346-3.011-3.006-3.011H129.26c0.216,0.341,0.393,0.621,0.52,0.822   L129.808,105.412z M256.376,188.945c0.422,1.257,1.594,2.051,2.85,2.051c0.32,0,0.643-0.053,0.961-0.16   c1.574-0.529,2.422-2.236,1.891-3.809v-0.002l-12.719-37.742c3.158-0.805,6.463-1.236,9.867-1.236   c22.023,0,39.943,17.916,39.943,39.938c0,22.024-17.92,39.942-39.943,39.942c-22.021,0-39.938-17.918-39.938-39.942   c0-16.502,10.061-30.698,24.373-36.777L256.376,188.945z M97.854,184.977l19.273-28.121c8.379,6.736,13.984,16.773,14.834,28.121   H97.854z M227.402,102.957l2.825,8.386l-66.922,71.015l-19.261-53.449L227.402,102.957z M157.854,184.977H140.34   c-0.875-14.227-7.91-26.779-18.47-35.041l12.308-17.957l4.119-1.281L157.854,184.977z"></path><path d="M77.057,224.819v-98V107.88V71.296c2.433,1.991,5.122,4.533,7.803,7.412c6.941,7.387,14.034,16.808,19.298,24.307   c2.635,3.752,4.824,7.028,6.349,9.358c0.761,1.163,1.355,2.087,1.756,2.718c0.401,0.631,0.595,0.941,0.595,0.941   c1.516,2.438,4.13,3.777,6.803,3.778c1.441,0,2.9-0.39,4.215-1.208c3.752-2.332,4.905-7.266,2.571-11.018   c-0.093-0.144-8.436-13.579-19.209-27.265c-5.405-6.854-11.387-13.768-17.524-19.263c-3.084-2.749-6.203-5.156-9.521-7.024   c-2.921-1.617-6.052-2.92-9.652-3.231c-0.395-0.063-0.797-0.104-1.21-0.104H30.693c-0.103,0-0.204,0.012-0.307,0.016   c-1.797,0.015-4.825,0.396-8.273,2.135c-5.377,2.666-11.177,8.501-15.235,18.84C2.771,82.068,0.013,97.073,0,119.733   c0,5.855,0.189,12.225,0.595,19.159c0.25,4.25,3.774,7.532,7.977,7.532c0.158,0,0.317-0.005,0.478-0.014   c4.41-0.258,7.777-4.045,7.517-8.453C16.179,131.305,16,125.248,16,119.733c-0.034-24.219,3.497-37.822,6.965-44.921v33.067v18.939   v98c0,6.83,5.537,12.363,12.363,12.363c6.828,0,12.365-5.533,12.365-12.363v-90.271h4.635v90.271   c0,6.83,5.537,12.363,12.363,12.363C71.52,237.183,77.057,231.649,77.057,224.819z"></path><circle cx="50.011" cy="22.5" r="22.5"></circle></g></svg>