<svg height='100px' width='100px'  fill="#000000" xmlns="http://www.w3.org/2000/svg" xmlns:xlink="http://www.w3.org/1999/xlink" version="1.1" x="0px" y="0px" viewBox="0 0 90 90" enable-background="new 0 0 90 90" xml:space="preserve"><path fill="#000000" d="M53.732,65.047c-5.201,4.254-11.842,6.813-19.07,6.813c-16.632,0-30.164-13.531-30.164-30.164  c0-16.633,13.532-30.165,30.164-30.165c9.666,0,18.277,4.575,23.802,11.667c0.929-0.998,1.955-1.902,3.065-2.698  C55.253,12.56,45.546,7.45,34.661,7.45c-18.882,0-34.246,15.363-34.246,34.246c0,18.882,15.364,34.246,34.246,34.246  c7.054,0,13.616-2.146,19.069-5.814v-5.08H53.732z"></path><path fill="#000000" d="M73.342,20.779c-8.969,0-16.238,7.271-16.238,16.24s7.271,16.24,16.238,16.24  c8.971,0,16.242-7.271,16.242-16.24S82.313,20.779,73.342,20.779z M59.984,31.835c0.584-1.503,1.404-2.883,2.432-4.09h4.311  c-0.18,0.755-0.24,1.551-0.141,2.366c0.072,0.607,0.229,1.182,0.445,1.724H59.984z M73.957,34.492  c-2.861,0.339-5.457-1.705-5.795-4.569c-0.34-2.861,1.703-5.457,4.564-5.797c2.862-0.34,5.459,1.704,5.799,4.566  C78.865,31.554,76.82,34.15,73.957,34.492z M79.662,31.835c0.41-1.022,0.578-2.159,0.439-3.33c-0.031-0.259-0.078-0.512-0.138-0.76  h4.306c1.024,1.207,1.848,2.587,2.432,4.09H79.662z"></path><circle fill="#000000" cx="73.343" cy="29.308" r="1.929"></circle><path fill="#000000" d="M65.912,63.877l5.379,4.081l-2.387-12.222h-3.932l2.641,5.916c0.148,0.33,0.061,0.72-0.215,0.953  L65.912,63.877z"></path><polygon fill="#000000" points="70.568,55.736 72.502,65.645 74.438,55.736 "></polygon><path fill="#000000" d="M80.035,55.736h-3.934l-2.388,12.222l5.379-4.081l-1.485-1.271c-0.275-0.233-0.361-0.623-0.215-0.953  L80.035,55.736z"></path><path fill="#000000" d="M71.686,70.307l-7.565-5.74c-0.197-0.148-0.315-0.379-0.324-0.627c-0.006-0.246,0.101-0.483,0.287-0.645  l1.791-1.531l-2.688-6.025H63.17c-2.959,0-5.357,2.398-5.355,5.357v16.098c0,2.959,2.396,5.357,5.357,5.357h4.938h3.576V70.307z"></path><path fill="#000000" d="M83.51,55.736h-0.334h-1.354l-2.689,6.025l1.791,1.532c0.189,0.16,0.295,0.397,0.287,0.646  c-0.01,0.246-0.129,0.478-0.324,0.627l-7.568,5.74V82.55h5.257h4.937c2.961,0,5.358-2.397,5.358-5.358V61.096  C88.869,58.137,86.473,55.736,83.51,55.736z M85.547,76.012h-2.426v2.426h-3.295v-2.426H77.4v-3.293h2.426v-2.427h3.295v2.427h2.426  V76.012z"></path><path fill="#000000" d="M35.347,55.709v3.586H30.41v4.938h-3.586v-4.938h-4.938v-3.586h4.938v-2.861  c-1.967-0.33-3.784-1.248-5.222-2.688c-3.769-3.771-3.769-9.903,0.002-13.674c1.823-1.825,4.252-2.831,6.834-2.831  c2.581,0,5.01,1.006,6.834,2.831c1.152,1.15,1.975,2.541,2.427,4.057c-0.835,0.891-2.014,1.454-3.329,1.461  c-0.245-1.119-0.802-2.149-1.633-2.981c-1.147-1.149-2.675-1.78-4.299-1.78s-3.152,0.631-4.3,1.78c-2.37,2.371-2.37,6.229,0,8.601  c1.148,1.147,2.675,1.781,4.3,1.781c1.271,0,2.483-0.395,3.499-1.113c0.775,0.171,1.581,0.265,2.407,0.265  c0.813,0,1.609-0.092,2.374-0.259c-0.401,0.668-0.878,1.297-1.445,1.862c-1.35,1.352-3.034,2.249-4.863,2.627v2.922H35.347z"></path><path fill="#000000" d="M49.834,31.39h-3.586v-3.745l-3.89,4.36c1.044,1.544,1.654,3.403,1.654,5.401  c0,5.331-4.337,9.668-9.668,9.668c-4.365,0-8.059-2.91-9.255-6.89c0.834-0.89,2.012-1.451,3.323-1.459  c0.605,2.721,3.034,4.764,5.933,4.764c3.353,0,6.081-2.729,6.081-6.082c0-3.354-2.728-6.081-6.081-6.081  c-1.301,0-2.508,0.416-3.498,1.116c-0.775-0.173-1.579-0.267-2.405-0.267c-0.814,0-1.605,0.09-2.37,0.256  c1.693-2.806,4.765-4.691,8.273-4.691c2.038,0,3.928,0.638,5.49,1.719l3.736-4.208h-3.464v-3.586h9.728L49.834,31.39L49.834,31.39z"></path></svg>