<svg height='100px' width='100px'  fill="#000000" xmlns="http://www.w3.org/2000/svg" xmlns:xlink="http://www.w3.org/1999/xlink" version="1.1" x="0px" y="0px" viewBox="0 0 64 64" style="enable-background:new 0 0 64 64;" xml:space="preserve"><g><path d="M4,53c-1.654,0-3,1.346-3,3s1.346,3,3,3s3-1.346,3-3S5.654,53,4,53z M4,57c-0.552,0-1-0.448-1-1s0.448-1,1-1s1,0.448,1,1   S4.552,57,4,57z"></path><path d="M59,25.484V3c0-1.103-0.897-2-2-2h-2c-1.103,0-2,0.897-2,2v11h-2v-1c0-1.103-0.897-2-2-2h-4c-1.103,0-2,0.897-2,2v1h-2V3   c0-1.103-0.897-2-2-2h-2c-1.103,0-2,0.897-2,2v17.199C33.933,20.626,32.524,21,30.34,21c-1.827,0-3.102-0.266-4.051-0.578   l1.463-3.476C30.701,16.573,33,14.034,33,11c0-3.309-2.691-6-6-6s-6,2.691-6,6c0,1.313,0.43,2.574,1.223,3.614l-1.367,3.245   C19.649,17.405,18.019,17,15.67,17c-3.923,0-5.9,1.079-7.813,2.122C6.085,20.088,4.412,21,1,21v2c3.923,0,5.9-1.079,7.813-2.122   C10.585,19.912,12.258,19,15.67,19c2.004,0,3.366,0.317,4.41,0.702l-3.105,7.374C12.837,27.382,9,28.636,9,31v12.114   C7.008,41.91,4.587,41,1,41v2c3.732,0,5.999,1.103,8,2.505V59c0,2.748,5.184,4,10,4s10-1.252,10-4v-9.733   c1.35-0.73,2.49-1.608,3.611-2.476C35.129,44.841,37.508,43,42.332,43c4.825,0,7.204,1.842,9.722,3.791   C54.727,48.86,57.491,51,63,51v-2c-4.825,0-7.204-1.842-9.722-3.791C50.605,43.14,47.841,41,42.332,41   c-5.508,0-8.272,2.14-10.945,4.209c-0.783,0.606-1.553,1.202-2.387,1.735V31c0-0.977-0.664-1.762-1.725-2.371   C28.89,27.761,30.555,27,33.67,27c0.478,0,0.915,0.022,1.33,0.055v2.129C34.686,29.072,34.352,29,34,29c-1.654,0-3,1.346-3,3   s1.346,3,3,3c0.624,0,1.204-0.192,1.685-0.52C36.549,35.978,38.15,37,40,37h5v-2h-5c-1.654,0-3-1.346-3-3v-4.624   c1.41,0.355,2.453,0.917,3.526,1.502C42.439,29.921,44.417,31,48.34,31c3.92,0,5.897-1.079,7.81-2.122   C57.919,27.912,59.59,27,63,27v-2C61.373,25,60.092,25.192,59,25.484z M34,33c-0.552,0-1-0.448-1-1s0.448-1,1-1s1,0.448,1,1   S34.552,33,34,33z M27,7c2.206,0,4,1.794,4,4c0,2.114-1.68,3.855-3.776,3.974l-3.222-1.361C23.362,12.881,23,11.964,23,11   C23,8.794,24.794,7,27,7z M23.916,15.747l1.843,0.778L21.306,27.1c-0.705-0.06-1.42-0.093-2.13-0.097L23.916,15.747z M19,61   c-5.249,0-8-1.486-8-2V47.007c1.7,1.313,3.477,2.619,6,3.364V57h2c2.959,0,6.051-0.475,8-1.476V59C27,59.514,24.249,61,19,61z    M27,53c0,0.514-2.751,2-8,2v-4.19c0.814,0.121,1.695,0.19,2.665,0.19c2.143,0,3.867-0.326,5.335-0.844V53z M21.665,49   c-0.984,0-1.862-0.08-2.665-0.219V41c2.959,0,6.051-0.475,8-1.476v8.481C25.568,48.611,23.875,49,21.665,49z M19,39h-2v9.265   c-2.026-0.715-3.516-1.864-5.056-3.056c-0.312-0.242-0.626-0.484-0.944-0.724V33.524C12.949,34.525,16.041,35,19,35   s6.051-0.475,8-1.476V37C27,37.514,24.249,39,19,39z M19,33c-5.249,0-8-1.486-8-2s2.751-2,8-2s8,1.486,8,2S24.249,33,19,33z    M33.67,25c-3.922,0-5.9,1.079-7.814,2.122c-0.343,0.188-0.696,0.37-1.052,0.551c-0.459-0.12-0.938-0.225-1.437-0.312l2.149-5.105   C26.977,22.757,28.503,23,30.34,23c2.036,0,3.52-0.304,4.66-0.677v2.724C34.582,25.017,34.141,25,33.67,25z M55.19,27.122   C53.421,28.088,51.75,29,48.34,29c-3.412,0-5.085-0.912-6.856-1.878c-1.275-0.695-2.593-1.399-4.483-1.796V3h2v11   c0,1.103,0.897,2,2,2h2c1.103,0,2-0.897,2-2v-1h4v1c0,1.103,0.897,2,2,2h2c1.103,0,2-0.897,2-2V3h2v23.201   C56.359,26.492,55.768,26.807,55.19,27.122z"></path><path d="M8,15c1.654,0,3-1.346,3-3S9.654,9,8,9s-3,1.346-3,3S6.346,15,8,15z M8,11c0.552,0,1,0.448,1,1s-0.448,1-1,1s-1-0.448-1-1   S7.448,11,8,11z"></path><path d="M57,38c0,1.654,1.346,3,3,3s3-1.346,3-3s-1.346-3-3-3S57,36.346,57,38z M61,38c0,0.552-0.448,1-1,1s-1-0.448-1-1   s0.448-1,1-1S61,37.448,61,38z"></path><path d="M44,47c-2.757,0-5,2.243-5,5s2.243,5,5,5s5-2.243,5-5S46.757,47,44,47z M44,55c-1.654,0-3-1.346-3-3s1.346-3,3-3   s3,1.346,3,3S45.654,55,44,55z"></path></g></svg>