<svg height='100px' width='100px'  fill="#000000" xmlns="http://www.w3.org/2000/svg" xmlns:xlink="http://www.w3.org/1999/xlink" version="1.1" x="0px" y="0px" viewBox="0 0 100 100" enable-background="new 0 0 100 100" xml:space="preserve"><path d="M74.666,90.709c-1.582,0.416-6.252,0.164-10.504-2.088c-0.549-0.291-1.315-0.698-2.229-1.185  c-0.354,2.152-0.849,4.67-1.503,7.563h-3.072c0.839-3.642,1.408-6.627,1.782-9.053c-6.615-3.528-16.363-8.742-16.363-8.742  s-4.782-3.188-1.86-9.83c0,0,2.391-5.977,11.822-0.664c1.894,1.067,3.751,2.235,5.518,3.419c-1.937-4.991-5.861-7.643-6.761-8.195  c-6.126-1.174-11.116-4.091-12.55-4.989H27.215c-2.291,1.866-2.819,7.479-2.819,9.387V95h-3V66.332c0-0.728,0.079-5.794,2.062-9.387  h-1.833c-1.781,0-0.705-1.343-0.705-1.343c13.05-9.899,14.02-27.35,14.02-27.35S34.94,7,54.067,7  c16.694,0,18.818,16.19,19.089,20.309c0,0,0.24,0.944-0.947,0.944h-8.578l-3.188,5.313c0,0-1.063,1.063-2.125,1.063  s-2.125-1.063-2.125-3.188c0-4.25-3.188-4.25-3.188-4.25s-3.188,0-3.188,4.25c0,2.928-1.797,14.816-8.675,23.323  c1.582,0.929,5.041,2.763,9.202,3.833l1.404-6.593c-1.097-0.449-2.218-1.042-3.271-1.827c-0.664-0.496-0.801-1.436-0.306-2.1  c0.496-0.664,1.435-0.801,2.1-0.306c3.463,2.583,8.092,2.632,8.138,2.632c0.827,0.003,1.497,0.676,1.495,1.503  c-0.001,0.827-0.671,1.497-1.498,1.497c-0.121,0-1.697-0.016-3.784-0.496l-1.398,6.567c1.727,1.089,7.569,5.321,8.866,13.347  c5.099,3.737,8.715,6.995,8.715,6.995s-0.332-3.476-5.048-7.128c0,0,0.849-11.896-2.007-17.939c0,0-3.248-9.722-2.119-12.246  c0,0,0.81-1.159,2.113-0.169c0,0,0.85,1.353,1.475,4.415c0,0,1.697-3.79,1.053-10.404c-0.07-2.18,1.885-3.064,2.979,1.404  c0,0,0.691,4.454,0.758,5.916c0,0,2.953-1.66,1.027-11.091c0,0,0.664-2.922,2.59,0.398s1.164,10.493-1.227,21.519  c0,0,6.11,18.331,6.376,26.832S76.095,90.332,74.666,90.709z"></path></svg>