<svg height='100px' width='100px'  fill="#000000" xmlns="http://www.w3.org/2000/svg" xmlns:xlink="http://www.w3.org/1999/xlink" version="1.1" x="0px" y="0px" viewBox="0 0 100 100" style="enable-background:new 0 0 100 100;" xml:space="preserve"><g><g><g><g><g><path d="M61.3,53.9c-3,0-5.4-2.4-5.4-5.4c0-0.6,0.5-1.1,1.1-1.1c0.6,0,1.1,0.5,1.1,1.1c0,1.7,1.4,3.1,3.1,3.1       c1.7,0,3.1-1.4,3.1-3.1c0-1.2-0.6-2.2-3.4-3.1c-1.2-0.4-5-1.6-5-5.3c0-3,2.4-5.4,5.4-5.4s5.4,2.4,5.4,5.4       c0,0.6-0.5,1.1-1.1,1.1c-0.6,0-1.1-0.5-1.1-1.1c0-1.7-1.4-3.1-3.1-3.1c-1.7,0-3.1,1.4-3.1,3.1c0,0.9,0.4,2.1,3.4,3.1       c2.3,0.8,5,2.1,5,5.3C66.7,51.5,64.3,53.9,61.3,53.9z"></path></g><g><path d="M61.3,37.1c-0.6,0-1.1-0.5-1.1-1.1v-3.3c0-0.6,0.5-1.1,1.1-1.1c0.6,0,1.1,0.5,1.1,1.1v3.3       C62.5,36.6,61.9,37.1,61.3,37.1z"></path></g><g><path d="M61.3,57.3c-0.6,0-1.1-0.5-1.1-1.1v-3.3c0-0.6,0.5-1.1,1.1-1.1c0.6,0,1.1,0.5,1.1,1.1v3.3       C62.5,56.8,61.9,57.3,61.3,57.3z"></path></g></g></g><g><path d="M68.5,20.6c-1.7,0-3.1-1-3.8-2.6c-0.6-1.4-1.9-2.2-3.4-2.2c-1.5,0-2.8,0.9-3.4,2.2     c-0.7,1.6-2.1,2.6-3.7,2.6c-2.3,0-4.1-1.8-4.1-4V9.1c0-1.4,1.1-2.5,2.5-2.5H70c1.4,0,2.5,1.1,2.5,2.5v7.4     C72.5,18.8,70.7,20.6,68.5,20.6z M61.3,13.5c2.4,0,4.5,1.4,5.5,3.6c0.3,0.7,0.9,1.2,1.6,1.2c1,0,1.8-0.8,1.8-1.7V9.1     c0-0.1-0.1-0.2-0.2-0.2H52.6c-0.1,0-0.2,0.1-0.2,0.2v7.4c0,1,0.8,1.7,1.7,1.7c0.8,0,1.4-0.4,1.7-1.2     C56.8,14.9,58.9,13.5,61.3,13.5z"></path></g><g><path d="M83.7,89.3H66.2c-0.6,0-1.1-0.5-1.1-1.1c0-0.6,0.5-1.1,1.1-1.1h17.5c7.3,0,14-6.7,14-14V15h-6     c-0.6,0-1.1-0.5-1.1-1.1c0-0.6,0.5-1.1,1.1-1.1h8.3V73C100,81.5,92.2,89.3,83.7,89.3z"></path></g><g><path d="M78.7,82.1H66.2c-0.6,0-1.1-0.5-1.1-1.1c0-0.6,0.5-1.1,1.1-1.1h12.6c1.6,0,2.8-1.3,2.8-2.8v-6.1h6.1     c1.6,0,2.8-1.3,2.8-2.8V8.9H77.2c-0.6,0-1.1-0.5-1.1-1.1s0.5-1.1,1.1-1.1h15.6V68c0,2.8-2.3,5.1-5.1,5.1h-3.9V77     C83.9,79.8,81.6,82.1,78.7,82.1z"></path></g><g><path d="M30.9,58.4c-0.6,0-1.1-0.5-1.1-1.1V6.6h15.6c0.6,0,1.1,0.5,1.1,1.1S46,8.9,45.4,8.9H32.1v48.3     C32.1,57.9,31.6,58.4,30.9,58.4z"></path></g></g><g><g><path d="M61.9,93.4H29.8V76h32.1V93.4z M32.1,91.1h27.5V78.3H32.1V91.1z"></path></g><g><path d="M31,93.4H0V76h31c0.6,0,1.1,0.5,1.1,1.1c0,0.6-0.5,1.1-1.1,1.1H2.3v12.8H31c0.6,0,1.1,0.5,1.1,1.1     S31.6,93.4,31,93.4z"></path></g><g><path d="M45.9,78.3c-0.6,0-1.1-0.5-1.1-1.1v-14H17.2v14c0,0.6-0.5,1.1-1.1,1.1c-0.6,0-1.1-0.5-1.1-1.1V60.9H47     v16.3C47,77.8,46.5,78.3,45.9,78.3z"></path></g></g></g></svg>