<svg height='100px' width='100px'  fill="#000000" xmlns="http://www.w3.org/2000/svg" xmlns:xlink="http://www.w3.org/1999/xlink" version="1.1" x="0px" y="0px" viewBox="0 0 100 100" enable-background="new 0 0 100 100" xml:space="preserve"><g><g><path fill="none" stroke="#000000" stroke-width="0.75" stroke-linecap="round" stroke-linejoin="round" stroke-miterlimit="10" d="    M5.5,62.125c0.197,0.218-0.089-0.12-0.022-0.004c0.615-0.032,1.457-0.258,2.022-0.493c0.226-0.094,0.804-0.466,1-0.509    c0.312-0.069,0.884,0.101,1.125,0.018c0.948-0.326,1.912-1.167,2.527-1.667c0.758-0.616,1.972-1.348,2.601-2.219    c0.416-0.576,0.503-1.275,1.019-1.75c0.628-0.578,1.914-0.944,2.735-1.247c2.06-0.76,3.354-2.188,5.233-3.343    c-0.135,0.953-0.93,1.564-0.466,2.593c0.363,0.807,0.899,0.86,1.601,1.119c0.313,0.116,0.835,0,1.103,0.147    c0.304,0.167,0.244,0.861,0.639,0.993c0.667,0.223,2.081-0.753,2.724-0.917c1.011-0.258,1.239,0.14,2.158,0.314    c1.171,0.223,1.588-0.343,2.475-0.939c1.667-1.122,4.169-1.064,5.811-2.3c0.066,0.278,0.33,0.5,0.363,0.812    c1.235,0.008,2.447-2.004,2.818-3.075c0.25-0.719,0.231-1.436,0.385-2.134c0.05-0.224-0.275-0.225-0.09-0.638    c0.144-0.319,0.992-0.801,1.268-1.131c1.053-1.262,1.527-2.675,2.223-4.122c0.449-0.934,1.298-1.607,1.756-2.509    c0.314-0.619,0.314-1.229,0.522-1.865c0.813,1.445,1.692,3.186,3.73,2.317c2.047-0.872,2.327-3.901,3.873-5.345    c1.05,1.591,4.063-2.521,4.634-3.239c0.666-0.839,1.156-1.5,1.332-2.463c0.049-0.273-0.183-0.791-0.078-1.16    c0.146-0.516,0.805-1.024,1.099-1.483c0.932,0.598,1.353,1.566,2.51,2.117c0.348,0.166,2.424,1.406,2.615,1.38    c0.909-0.12,0.55-2.974,2.332-1.764c0.728,0.493,0.872,1.883-0.062,2.162c0.49,0.665,1.155,0.339,1.856,0.46    c1.232,0.213,2.425,0.793,3.374,1.616c1.146,0.993,0.601,2.504-0.368,3.394c-0.479,0.439-1.076,0.376-1.469,1.003    c-0.249,0.399-0.439,1.386-0.534,1.862c-0.503,2.539,0.739,3.346,2.79,1.675c0.144,1.044,0.562,2.315,1.704,2.712    c1.304,0.453,2.411,0.027,3.506,0.875c0.931,0.721,1.972,1.645,2.875,2.478c0.625,0.576,0.692,0.062,0.753,1.141    c0.035,0.63-0.221,1.494-0.393,2.108c-0.815-0.069-1.317-1.035-1.857-1.605c-0.756-0.799-1.496-1.351-2.513-1.778    c-0.881,1.666-0.296,1.516,0.922,2.553c0.633,0.539,1.056,1.239,1.682,1.878c0.582,0.595,1.818,1.158,2.162,1.847    c0.405,0.812-0.363,2.42-0.993,1.036c-0.67,0.492-1.066,1.349-0.302,1.844c-0.286,0.111-0.505,0.438-0.822,0.527    c0.73,0.487,0.672,1.177,1.14,1.85c0.287,0.414,1.652,0.981,0.002,1.371c-1.318,0.312-2.201-4.034-3.564-2.289    c-0.713,0.913,2.729,3.17,3.567,3.384c0.766,0.195,1.097-0.2,1.819-0.072c0.258,0.045,0.216,0.668,0.648,0.733    c0.299,0.045,0.875-0.37,1.127-0.496c0.654,0.708,1.136,1.323,1.531,2.237c0.34,0.786,0.299,1.745,0.094,1.375L5.5,62.125z"></path><path fill="none" stroke="#000000" stroke-width="0.75" stroke-linecap="round" stroke-linejoin="round" stroke-miterlimit="10" d="    M89.25,56.125c-0.273-1.126-0.491-2.192-0.094-3.378c0.233-0.696,0.533-0.774,0.472-1.75c-0.047-0.74-0.306-1.478-0.231-2.225    c0.762-0.242,1.447-0.697,1.856-1.404c0.397-0.687,0.232-2.201,0.838-2.749c0.413-0.374,3.065-0.749,3.544-0.378    c0.858,0.665,0.027,1.62-0.633,1.915c-0.636,0.284-1.661-0.068-2.16,0.461c-0.444,0.472-0.217,1.518-0.217,2.135    c0.001,1.121-0.037,2.148-0.406,3.216c-0.335,0.968-1.032,1.477-1.312,2.438c-0.262,0.898-0.084,2.385-1.531,1.718"></path></g></g></svg>