<svg height='100px' width='100px'  fill="#000000" xmlns:x="http://ns.adobe.com/Extensibility/1.0/" xmlns:i="http://ns.adobe.com/AdobeIllustrator/10.0/" xmlns:graph="http://ns.adobe.com/Graphs/1.0/" xmlns="http://www.w3.org/2000/svg" xmlns:xlink="http://www.w3.org/1999/xlink" version="1.1" x="0px" y="0px" viewBox="0 0 100 100" style="enable-background:new 0 0 100 100;" xml:space="preserve"><g><g i:extraneous="self"><g><path d="M96.9,33.6L84.2,16.8c-1.1-1.5-3.3-1.5-4.4,0L67,33.6c-1.4,1.8-0.1,4.4,2.2,4.4h6.2v37.4H67V52.4c0-1.2-1-2.3-2.3-2.3     h-8.6c-1.2,0-2.3,1-2.3,2.3v23.1h-8.4V61.6c0-1.2-1-2.3-2.3-2.3h-8.6c-1.2,0-2.3,1-2.3,2.3v13.8h-8.4V58.1c0-1.2-1-2.3-2.3-2.3     h-8.6c-1.2,0-2.3,1-2.3,2.3v24.8c0,1.1,0.9,1.9,1.9,1.9h74.1c1.1,0,1.9-0.9,1.9-1.9V38.1h6.2C97,38.1,98.3,35.4,96.9,33.6z"></path><path d="M26.4,37.7l-13.6-4v9.2c0,1.7,1.1,3.2,2.7,3.6l5.9,1.7c6.5,1.9,13.4,1.9,19.9,0l5.9-1.7c1.6-0.5,2.7-2,2.7-3.6v-9.4     l-14,4.2c-1.6,0.5-3.2,0.7-4.8,0.7C29.6,38.4,27.9,38.2,26.4,37.7z"></path><path d="M34.9,33.1l20.4-6.1v5.4c-0.4,0.2-0.7,0.7-0.7,1.2v1.5c0,0.5,0.3,1,0.8,1.2l-1.3,3c-0.2,0.4,0.1,0.8,0.5,0.9l1.3,0.1     c0.3,0,0.5,0,0.8,0l1.3-0.1c0.4,0,0.7-0.5,0.5-0.9l-1.3-3c0.5-0.2,0.8-0.7,0.8-1.2v-1.5c0-0.5-0.3-0.9-0.7-1.2v-6l1.4-0.4     c1.6-0.5,1.6-2.8,0-3.3l-23.8-7.1c-2.4-0.7-4.9-0.7-7.3,0L3.7,22.8c-1.6,0.5-1.6,2.8,0,3.3l23.8,7.1     C29.9,33.8,32.5,33.8,34.9,33.1z"></path></g></g></g></svg>