<svg height='100px' width='100px'  fill="#000000" xmlns="http://www.w3.org/2000/svg" data-name="Layer 1" viewBox="0 0 512 512" x="0px" y="0px"><title>Vaccine</title><path d="M334.938,402H315.073l-.362-188.728A33.543,33.543,0,0,0,290,181.237V153.015a33.083,33.083,0,0,0-25-32.253V25.845a8,8,0,0,0-16,0v94.917a33.083,33.083,0,0,0-25,32.253v28.222a33.543,33.543,0,0,0-24.711,32.035L198.927,402H179.062a8,8,0,0,0,0,16h41.169l.229,60H199.679a8,8,0,1,0,0,16H314.321a8,8,0,0,0,0-16H293.478l-.228-60h41.688a8,8,0,0,0,0-16ZM257,135.783a17.054,17.054,0,0,1,17,17.232V180H240V153.015A17.054,17.054,0,0,1,257,135.783ZM232.405,196H281.6a17.473,17.473,0,0,1,17.232,17.462L298.959,315H215.041l.132-101.538A17.473,17.473,0,0,1,232.405,196ZM215.02,331h83.96l.093,71H214.927Zm62.458,147H236.46l-.229-60H277.25Z"></path><path d="M462,248H393a8,8,0,0,0,0,16h69a8,8,0,0,0,0-16Z"></path><path d="M373.5,194a8,8,0,0,0,2.569-.425l59-20a8,8,0,0,0-5.136-15.154l-59,20A8,8,0,0,0,373.5,194Z"></path><path d="M435.068,338.423l-59-20a8,8,0,0,0-5.136,15.154l59,20a8,8,0,0,0,5.136-15.154Z"></path><path d="M126,256a8,8,0,0,0-8-8H49a8,8,0,0,0,0,16h69A8,8,0,0,0,126,256Z"></path><path d="M141.068,178.423l-59-20a8,8,0,0,0-5.136,15.154l59,20a8,8,0,0,0,5.136-15.154Z"></path><path d="M135.932,318.423l-59,20a8,8,0,1,0,5.136,15.154l59-20a8,8,0,0,0-5.136-15.154Z"></path></svg>