<svg height='100px' width='100px'  fill="#000000" xmlns="http://www.w3.org/2000/svg" xmlns:xlink="http://www.w3.org/1999/xlink" version="1.1" x="0px" y="0px" viewBox="0 0 100 100" enable-background="new 0 0 100 100" xml:space="preserve"><g><path d="M42.229,19.4c0.061,0,0.11-0.01,0.16-0.03c0.18-0.09,0.24-0.3,0.15-0.48c-0.08-0.17-0.3-0.24-0.471-0.15   c-0.17,0.09-0.239,0.3-0.149,0.48C41.99,19.34,42.109,19.4,42.229,19.4z"></path><path d="M39.77,20.96c0.07,0,0.141-0.02,0.21-0.07c0.15-0.12,0.181-0.34,0.07-0.49c-0.12-0.16-0.34-0.19-0.49-0.07   c-0.01,0-0.01,0-0.01,0c-0.15,0.12-0.18,0.34-0.06,0.49C39.56,20.91,39.66,20.96,39.77,20.96z"></path><path d="M40.97,20.13c0.061,0,0.13-0.02,0.18-0.06v0.01c0.17-0.11,0.221-0.32,0.11-0.49c-0.1-0.16-0.32-0.21-0.479-0.11   c-0.16,0.11-0.211,0.32-0.11,0.49C40.74,20.07,40.85,20.13,40.97,20.13z"></path><path d="M38.64,21.89c0.08,0,0.17-0.03,0.24-0.09c0.14-0.13,0.15-0.35,0.02-0.5c-0.13-0.14-0.35-0.15-0.489-0.02   c-0.15,0.13-0.16,0.35-0.03,0.49C38.45,21.85,38.54,21.89,38.64,21.89z"></path><path d="M66,39.85c-0.181-0.07-0.38,0.02-0.45,0.21c-0.07,0.18,0.02,0.38,0.2,0.45c0.04,0.01,0.09,0.02,0.13,0.02   c0.14,0,0.27-0.09,0.33-0.23C66.27,40.12,66.18,39.92,66,39.85z"></path><path d="M37.6,22.91c0.09,0,0.181-0.04,0.25-0.11c0.13-0.14,0.13-0.36-0.01-0.49c-0.14-0.14-0.36-0.13-0.5,0.01   c-0.13,0.14-0.12,0.36,0.02,0.5C37.43,22.88,37.51,22.91,37.6,22.91z"></path><path d="M43.56,18.79c0.04,0,0.09-0.01,0.13-0.02c0.181-0.08,0.271-0.28,0.19-0.46c-0.07-0.18-0.271-0.26-0.45-0.19   c-0.18,0.07-0.27,0.28-0.2,0.46C43.29,18.71,43.42,18.79,43.56,18.79z"></path><path d="M46.35,17.92c0.021,0,0.05,0,0.07,0c0.189-0.05,0.31-0.23,0.27-0.42s-0.229-0.31-0.42-0.27   c-0.189,0.04-0.31,0.23-0.27,0.42C46.04,17.81,46.18,17.92,46.35,17.92z"></path><path d="M44.93,18.3c0.04,0,0.07-0.01,0.11-0.02c0.18-0.05,0.279-0.25,0.229-0.43c-0.06-0.19-0.26-0.29-0.439-0.23   c-0.19,0.05-0.29,0.25-0.23,0.43C44.649,18.2,44.78,18.3,44.93,18.3z"></path><path d="M33.03,34.89c0.199-0.01,0.35-0.17,0.35-0.36h-0.01c0-0.19-0.16-0.35-0.351-0.34c-0.2,0-0.35,0.16-0.34,0.35   C32.68,34.74,32.84,34.89,33.03,34.89z"></path><path d="M35.04,26.46c0.13,0,0.25-0.07,0.31-0.19c0.09-0.17,0.03-0.38-0.14-0.47s-0.38-0.03-0.47,0.14   c-0.091,0.17-0.03,0.38,0.14,0.48C34.93,26.45,34.99,26.46,35.04,26.46z"></path><path d="M49.24,17.55h0.01c0.189-0.01,0.34-0.18,0.34-0.37c-0.01-0.19-0.18-0.34-0.37-0.33c-0.189,0-0.34,0.17-0.33,0.36   C48.89,17.4,49.05,17.55,49.24,17.55z"></path><path d="M33.16,36.34c0.189-0.02,0.33-0.19,0.31-0.38c-0.02-0.2-0.2-0.33-0.39-0.31c-0.19,0.01-0.33,0.19-0.311,0.38   c0.021,0.18,0.17,0.31,0.351,0.31C33.13,36.34,33.14,36.34,33.16,36.34z"></path><path d="M33.16,31.97c0.01,0,0.029,0,0.05,0c0.17,0,0.32-0.12,0.34-0.29c0.03-0.19-0.1-0.37-0.29-0.4c-0.19-0.03-0.37,0.1-0.4,0.29   C32.83,31.77,32.97,31.94,33.16,31.97z"></path><path d="M33.03,33.43c0.01,0,0.01,0,0.02,0c0.19,0,0.34-0.14,0.35-0.33c0.021-0.2-0.13-0.36-0.319-0.37   c-0.2-0.01-0.36,0.13-0.37,0.33C32.689,33.25,32.84,33.42,33.03,33.43z"></path><path d="M34.27,27.75c0.04,0.02,0.09,0.02,0.141,0.02c0.13,0,0.26-0.08,0.319-0.21c0.08-0.18,0-0.38-0.18-0.46   c-0.18-0.07-0.39,0.01-0.46,0.19C34.01,27.46,34.09,27.67,34.27,27.75z"></path><path d="M33.78,29.12c0.029,0.01,0.069,0.02,0.109,0.02c0.141,0,0.28-0.09,0.33-0.24c0.061-0.19-0.04-0.38-0.22-0.44   c-0.19-0.06-0.38,0.03-0.45,0.22C33.49,28.86,33.59,29.06,33.78,29.12z"></path><path d="M33.399,30.53c0.03,0.01,0.061,0.01,0.08,0.01c0.16,0,0.311-0.11,0.351-0.27c0.04-0.19-0.07-0.37-0.261-0.42   c-0.189-0.04-0.38,0.07-0.42,0.26C33.1,30.3,33.22,30.49,33.399,30.53z"></path><path d="M52.109,17.66c0.011,0,0.03,0.01,0.04,0.01c0.17,0,0.33-0.13,0.351-0.31c0.02-0.19-0.11-0.37-0.311-0.39   c-0.189-0.03-0.359,0.11-0.39,0.3C51.78,17.46,51.91,17.64,52.109,17.66z"></path><path d="M65.24,27.51c0.06,0.13,0.189,0.2,0.319,0.2c0.05,0,0.101,0,0.141-0.02c0.18-0.08,0.26-0.29,0.18-0.46   c0.01,0,0.01,0,0.01,0c-0.08-0.18-0.29-0.26-0.47-0.19C65.25,27.12,65.16,27.33,65.24,27.51z"></path><path d="M62.359,22.87c0.08,0,0.171-0.03,0.24-0.1c0.141-0.13,0.141-0.35,0.01-0.49c-0.13-0.15-0.35-0.15-0.489-0.02   c-0.141,0.13-0.15,0.36-0.021,0.5C62.17,22.83,62.27,22.87,62.359,22.87z"></path><path d="M65.76,28.84c0.05,0.14,0.18,0.24,0.33,0.24c0.04,0,0.08-0.01,0.11-0.02c0.189-0.06,0.279-0.26,0.22-0.45   c-0.061-0.18-0.26-0.28-0.44-0.22C65.8,28.46,65.7,28.65,65.76,28.84z"></path><path d="M64.92,26.4c0.06,0,0.12-0.01,0.17-0.04c0.17-0.09,0.229-0.3,0.14-0.47c-0.09-0.17-0.3-0.24-0.47-0.14   c-0.17,0.09-0.24,0.3-0.15,0.47C64.68,26.34,64.8,26.4,64.92,26.4z"></path><path d="M66.16,30.21c0.029,0.16,0.18,0.27,0.34,0.27c0.02,0,0.05,0,0.08-0.01c0.189-0.05,0.3-0.24,0.26-0.43   c-0.05-0.18-0.24-0.3-0.43-0.25C66.229,29.83,66.109,30.02,66.16,30.21z"></path><path d="M66.439,31.61h-0.01c0.03,0.18,0.18,0.3,0.351,0.3c0.02,0,0.039,0,0.05,0c0.2-0.03,0.33-0.21,0.3-0.4   c-0.03-0.2-0.21-0.33-0.4-0.29C66.54,31.24,66.399,31.42,66.439,31.61z"></path><path d="M66.92,35.58c-0.19-0.02-0.36,0.12-0.38,0.31c-0.021,0.2,0.12,0.37,0.31,0.39c0.01,0,0.03,0,0.04,0   c0.17,0,0.33-0.14,0.34-0.31C67.25,35.77,67.109,35.6,66.92,35.58z"></path><path d="M66.979,34.12c-0.189,0-0.35,0.15-0.35,0.34c-0.01,0.2,0.14,0.36,0.34,0.36c0.19,0,0.35-0.15,0.36-0.34   c-0.011,0-0.011,0-0.011,0C67.33,34.28,67.18,34.12,66.979,34.12z"></path><path d="M66.59,33.04c0.01,0.18,0.17,0.32,0.35,0.32c0.011,0,0.021,0,0.021,0c0.2-0.01,0.34-0.18,0.33-0.37   c-0.021-0.2-0.181-0.34-0.37-0.33C66.72,32.68,66.58,32.84,66.59,33.04z"></path><path d="M61.31,21.85c0.101,0,0.19-0.04,0.26-0.12c0.131-0.14,0.12-0.36-0.02-0.49c-0.15-0.13-0.37-0.12-0.5,0.03   c-0.13,0.14-0.11,0.36,0.03,0.49C61.149,21.82,61.229,21.85,61.31,21.85z"></path><path d="M53.52,17.9c0.021,0.01,0.05,0.01,0.07,0.01c0.16,0,0.31-0.11,0.34-0.28c0.04-0.18-0.08-0.37-0.27-0.41   c-0.181-0.04-0.37,0.08-0.41,0.27S53.33,17.86,53.52,17.9z"></path><path d="M50.68,17.54c0.01,0,0.01,0,0.021,0c0.18,0,0.34-0.14,0.35-0.33c0-0.19-0.15-0.36-0.34-0.37c-0.19,0-0.36,0.15-0.36,0.34   C50.34,17.37,50.49,17.53,50.68,17.54z"></path><path d="M54.899,18.26c0.04,0.01,0.07,0.02,0.101,0.02c0.149,0,0.29-0.1,0.34-0.25c0.05-0.18-0.05-0.38-0.23-0.44   c-0.189-0.05-0.39,0.05-0.439,0.23C54.609,18.01,54.71,18.21,54.899,18.26z"></path><path d="M33.399,37.78c0.19-0.04,0.32-0.22,0.28-0.41c-0.04-0.19-0.22-0.31-0.41-0.28c-0.189,0.04-0.31,0.22-0.279,0.41   c0.04,0.17,0.18,0.29,0.35,0.29C33.359,37.79,33.38,37.79,33.399,37.78z"></path><path d="M56.25,18.74c0.04,0.02,0.08,0.03,0.13,0.03c0.14,0,0.27-0.08,0.32-0.22c0.069-0.18-0.011-0.38-0.19-0.46   c-0.18-0.07-0.38,0.02-0.45,0.2C55.979,18.47,56.069,18.67,56.25,18.74z"></path><path d="M60.18,20.92c0.11,0,0.21-0.05,0.28-0.14c0.12-0.15,0.09-0.37-0.07-0.49c-0.149-0.11-0.37-0.08-0.49,0.07   c-0.109,0.16-0.08,0.38,0.07,0.49C60.04,20.9,60.109,20.92,60.18,20.92z"></path><path d="M57.55,19.34c0.05,0.02,0.1,0.04,0.16,0.04c0.13,0,0.25-0.07,0.31-0.19c0.09-0.18,0.021-0.39-0.149-0.47   c-0.181-0.09-0.391-0.03-0.471,0.15C57.31,19.04,57.38,19.25,57.55,19.34z"></path><path d="M58.979,20.1c0.12,0,0.23-0.06,0.29-0.17c0.11-0.16,0.061-0.38-0.109-0.48c-0.16-0.1-0.38-0.05-0.48,0.11   c-0.1,0.17-0.05,0.38,0.11,0.48C58.85,20.08,58.92,20.1,58.979,20.1z"></path><path d="M47.78,17.67c0.02,0,0.029,0,0.05,0c0.189-0.03,0.319-0.2,0.3-0.39c-0.03-0.19-0.2-0.33-0.39-0.3   c-0.2,0.02-0.33,0.2-0.301,0.39C47.46,17.54,47.609,17.67,47.78,17.67z"></path><polygon points="51.49,50.72 51.497,50.72 51.5,50.72  "></polygon><path d="M58.26,48.59c-0.17,0.09-0.22,0.31-0.13,0.48c0.07,0.11,0.189,0.17,0.31,0.17c0.061,0,0.12-0.01,0.17-0.04   c0.171-0.1,0.23-0.32,0.131-0.48C58.64,48.55,58.43,48.49,58.26,48.59z"></path><path d="M56.99,49.25c-0.171,0.08-0.25,0.28-0.171,0.46c0.061,0.13,0.19,0.2,0.32,0.2c0.05,0,0.101-0.01,0.15-0.03   c0.17-0.08,0.25-0.29,0.17-0.46C57.38,49.24,57.17,49.17,56.99,49.25z"></path><path d="M66.74,37.03c-0.19-0.04-0.37,0.09-0.41,0.28c-0.04,0.19,0.09,0.37,0.279,0.41c0.021,0,0.04,0,0.061,0   c0.17,0,0.31-0.11,0.35-0.28C67.06,37.25,66.93,37.06,66.74,37.03z"></path><path d="M52.91,50.53c-0.19,0.03-0.32,0.21-0.28,0.4c0.03,0.17,0.18,0.29,0.34,0.29c0.021,0,0.04,0,0.061,0   c0.189-0.04,0.319-0.22,0.289-0.41C53.28,50.62,53.1,50.5,52.91,50.53z"></path><path d="M66.43,38.46c-0.18-0.06-0.38,0.05-0.43,0.24c-0.05,0.18,0.05,0.38,0.24,0.43c0.029,0.01,0.069,0.01,0.1,0.01   c0.15,0,0.29-0.1,0.33-0.25C66.729,38.7,66.62,38.51,66.43,38.46z"></path><path d="M34.02,38.76c-0.06-0.19-0.25-0.29-0.439-0.24c-0.181,0.05-0.29,0.25-0.24,0.43c0.05,0.16,0.19,0.26,0.34,0.26   c0.03,0,0.061-0.01,0.101-0.02C33.96,39.14,34.069,38.95,34.02,38.76z"></path><path d="M55.67,49.79c-0.18,0.07-0.271,0.27-0.21,0.45c0.05,0.14,0.189,0.23,0.33,0.23c0.04,0,0.08-0.01,0.12-0.02   c0.18-0.07,0.279-0.27,0.21-0.45C56.06,49.82,55.85,49.73,55.67,49.79z"></path><path d="M54.31,50.22c-0.189,0.05-0.3,0.24-0.25,0.43c0.04,0.15,0.181,0.26,0.34,0.26c0.03,0,0.061-0.01,0.091-0.01   c0.18-0.05,0.3-0.25,0.25-0.43C54.689,50.28,54.49,50.17,54.31,50.22z"></path><path d="M59.47,47.82c-0.16,0.11-0.2,0.33-0.09,0.49c0.07,0.1,0.18,0.15,0.29,0.15c0.07,0,0.14-0.02,0.2-0.06   c0.16-0.11,0.199-0.33,0.09-0.49C59.85,47.75,59.63,47.71,59.47,47.82z"></path><path d="M64.79,42.51c-0.17-0.1-0.38-0.05-0.48,0.12c-0.1,0.16-0.05,0.38,0.12,0.48c0.061,0.03,0.12,0.05,0.18,0.05   c0.12,0,0.24-0.06,0.301-0.17C65.01,42.82,64.95,42.61,64.79,42.51z"></path><path d="M63.53,43.83c-0.12,0.15-0.08,0.37,0.079,0.49c0.061,0.04,0.131,0.06,0.2,0.06c0.11,0,0.221-0.05,0.29-0.15   c0.11-0.15,0.07-0.37-0.08-0.49C63.859,43.63,63.64,43.67,63.53,43.83z"></path><path d="M64.46,24.61c-0.11-0.16-0.32-0.21-0.48-0.1s-0.21,0.32-0.1,0.49c0.07,0.1,0.18,0.15,0.29,0.15   c0.07,0,0.13-0.02,0.189-0.06C64.52,24.99,64.569,24.77,64.46,24.61z"></path><path d="M64.99,41.37c-0.091,0.17-0.011,0.38,0.159,0.47c0.051,0.02,0.101,0.03,0.15,0.03c0.13,0,0.26-0.07,0.31-0.2   c0.011,0,0.011,0,0.011,0c0.08-0.17,0.01-0.38-0.17-0.46C65.28,41.12,65.069,41.19,64.99,41.37z"></path><path d="M62.649,44.95c-0.13,0.15-0.109,0.37,0.04,0.5c0.061,0.05,0.141,0.08,0.221,0.08c0.1,0,0.199-0.04,0.27-0.12   c0.12-0.15,0.101-0.37-0.04-0.5C62.99,44.79,62.77,44.81,62.649,44.95z"></path><path d="M61.67,46c-0.14,0.14-0.14,0.36,0,0.49c0.07,0.07,0.16,0.11,0.25,0.11c0.08,0,0.17-0.04,0.24-0.1   c0.14-0.14,0.14-0.36,0.01-0.5C62.03,45.87,61.81,45.86,61.67,46z"></path><path d="M60.609,46.96c-0.149,0.12-0.17,0.34-0.05,0.49c0.07,0.08,0.17,0.13,0.271,0.13c0.08,0,0.16-0.03,0.229-0.08   c0.141-0.13,0.17-0.35,0.04-0.5C60.979,46.86,60.76,46.83,60.609,46.96z"></path><path d="M63.59,23.4c-0.12-0.15-0.34-0.17-0.49-0.05c-0.16,0.12-0.18,0.34-0.06,0.49c0.069,0.09,0.17,0.13,0.27,0.13   c0.08,0,0.16-0.02,0.221-0.07C63.68,23.78,63.71,23.56,63.59,23.4z"></path><path d="M51.497,50.72c-0.198,0.012-0.337,0.181-0.317,0.37c0.01,0.19,0.17,0.33,0.351,0.33c0.01,0,0.02-0.01,0.029-0.01   c0.19-0.011,0.33-0.181,0.311-0.38C51.859,50.842,51.693,50.705,51.497,50.72z"></path><path d="M38.939,47.05c-0.12,0.15-0.1,0.37,0.051,0.49c0.069,0.05,0.149,0.08,0.22,0.08c0.1,0,0.21-0.04,0.27-0.13   c0.13-0.15,0.11-0.37-0.04-0.49C39.29,46.88,39.069,46.9,38.939,47.05z"></path><path d="M36.859,23.39c-0.149-0.11-0.369-0.09-0.489,0.06c-0.12,0.16-0.09,0.38,0.06,0.49c0.061,0.06,0.14,0.08,0.22,0.08   c0.101,0,0.2-0.05,0.271-0.13C37.04,23.73,37.02,23.51,36.859,23.39z"></path><path d="M37.88,46.05c-0.14,0.14-0.14,0.36,0,0.49c0.07,0.07,0.16,0.1,0.25,0.1s0.18-0.03,0.25-0.1c0.13-0.14,0.13-0.36-0.01-0.5   C38.229,45.91,38.01,45.91,37.88,46.05z"></path><path d="M36.02,43.8c-0.16,0.11-0.189,0.33-0.08,0.49c0.07,0.09,0.17,0.14,0.28,0.14c0.07,0,0.15-0.02,0.21-0.06   c0.15-0.12,0.19-0.34,0.08-0.49C36.399,43.72,36.18,43.68,36.02,43.8z"></path><path d="M36.899,44.96c-0.149,0.13-0.159,0.35-0.04,0.5c0.07,0.08,0.171,0.12,0.271,0.12c0.08,0,0.16-0.03,0.229-0.09   c0.141-0.12,0.16-0.34,0.03-0.49C37.27,44.85,37.05,44.84,36.899,44.96z"></path><path d="M34.569,41.27c-0.17,0.08-0.239,0.29-0.159,0.46c0.06,0.13,0.189,0.2,0.319,0.2c0.051,0,0.101-0.01,0.15-0.04   c0.17-0.08,0.24-0.29,0.16-0.46C34.96,41.25,34.75,41.18,34.569,41.27z"></path><path d="M35.24,42.56c-0.171,0.1-0.221,0.32-0.12,0.48c0.069,0.11,0.18,0.17,0.3,0.17c0.06,0,0.12-0.01,0.18-0.05   c0.16-0.1,0.22-0.31,0.12-0.48C35.62,42.52,35.41,42.46,35.24,42.56z"></path><path d="M35.979,24.56c-0.16-0.11-0.37-0.06-0.479,0.1c-0.101,0.16-0.061,0.38,0.1,0.49c0.061,0.04,0.13,0.06,0.19,0.06   c0.12,0,0.229-0.06,0.3-0.16C36.189,24.88,36.149,24.67,35.979,24.56z"></path><path d="M34.47,40.12c-0.07-0.19-0.27-0.28-0.45-0.21c-0.18,0.07-0.27,0.27-0.2,0.46c0.051,0.13,0.181,0.22,0.32,0.22   c0.04,0,0.09-0.01,0.13-0.02C34.45,40.5,34.54,40.29,34.47,40.12z"></path><path d="M45.75,50.24c-0.19-0.05-0.38,0.06-0.431,0.25c-0.05,0.18,0.07,0.37,0.261,0.42c0.02,0.01,0.05,0.02,0.08,0.02   c0.159,0,0.3-0.11,0.34-0.27C46.05,50.48,45.939,50.29,45.75,50.24z"></path><path d="M47.149,50.54c-0.189-0.03-0.369,0.09-0.399,0.28c-0.04,0.2,0.09,0.38,0.28,0.41c0.02,0,0.039,0,0.06,0   c0.17,0,0.31-0.12,0.35-0.28C47.47,50.75,47.34,50.57,47.149,50.54z"></path><path d="M48.569,50.72c-0.199-0.01-0.359,0.13-0.38,0.32c-0.02,0.189,0.13,0.359,0.32,0.38c0.01,0,0.021,0,0.03,0   c0.18,0,0.33-0.14,0.35-0.32C48.899,50.91,48.76,50.74,48.569,50.72z"></path><path d="M44.39,49.81c-0.18-0.06-0.39,0.03-0.45,0.21c-0.069,0.19,0.03,0.39,0.21,0.45c0.04,0.02,0.08,0.02,0.12,0.02   c0.141,0,0.28-0.09,0.33-0.23C44.66,50.08,44.569,49.88,44.39,49.81z"></path><path d="M43.06,49.27c-0.17-0.08-0.38,0-0.46,0.17c-0.08,0.18,0,0.39,0.17,0.47c0.05,0.02,0.101,0.03,0.15,0.03   c0.13,0,0.26-0.08,0.31-0.2C43.319,49.56,43.24,49.35,43.06,49.27z"></path><path d="M40.09,47.95c-0.11,0.16-0.07,0.38,0.09,0.49c0.061,0.04,0.13,0.06,0.2,0.06c0.11,0,0.22-0.06,0.29-0.15   c0.11-0.16,0.07-0.38-0.09-0.49S40.2,47.79,40.09,47.95z"></path><path d="M41.79,48.62c-0.17-0.1-0.38-0.04-0.48,0.13c-0.09,0.17-0.029,0.38,0.141,0.48c0.05,0.03,0.109,0.04,0.17,0.04   c0.12,0,0.239-0.06,0.3-0.17C42.02,48.93,41.96,48.71,41.79,48.62z"></path><path d="M49.75,50.88c-0.061,0.07-0.101,0.16-0.101,0.25c0,0.1,0.04,0.189,0.101,0.25c0.069,0.07,0.16,0.1,0.25,0.1   s0.18-0.029,0.24-0.1c0.069-0.061,0.109-0.15,0.109-0.25c0-0.09-0.04-0.18-0.1-0.25C50.109,50.75,49.89,50.75,49.75,50.88z"></path><path d="M49.999,20.923c-7.294,0-13.229,5.936-13.229,13.233s5.935,13.233,13.229,13.233c7.295,0,13.23-5.936,13.23-13.233   S57.294,20.923,49.999,20.923z M49.999,46.389c-6.743,0-12.229-5.488-12.229-12.233s5.485-12.233,12.229-12.233   c6.744,0,12.23,5.488,12.23,12.233S56.743,46.389,49.999,46.389z"></path><path d="M57.209,32.108h-5.017l-1.554-4.771c-0.08-0.247-0.49-0.247-0.57,0l-1.55,4.771h-5.016c-0.13,0-0.245,0.083-0.285,0.207   s0.004,0.259,0.108,0.335l4.063,2.951l-1.553,4.77c-0.04,0.124,0.004,0.259,0.108,0.335c0.053,0.038,0.115,0.057,0.177,0.057   s0.124-0.019,0.177-0.057l4.056-2.949l4.059,2.949c0.105,0.076,0.248,0.076,0.354,0c0.104-0.076,0.148-0.212,0.108-0.335   l-1.549-4.77l4.061-2.951c0.104-0.076,0.148-0.212,0.108-0.335S57.339,32.108,57.209,32.108z M52.796,35.244   c-0.104,0.076-0.148,0.212-0.108,0.335l1.331,4.1l-3.488-2.534c-0.053-0.038-0.115-0.057-0.177-0.057s-0.124,0.019-0.177,0.057   l-3.484,2.533l1.334-4.099c0.04-0.124-0.004-0.259-0.108-0.335l-3.491-2.536h4.31c0.13,0,0.245-0.083,0.285-0.207l1.332-4.101   l1.336,4.101c0.04,0.124,0.155,0.207,0.285,0.207h4.312L52.796,35.244z"></path><path d="M72.367,33.982c0-0.703,0.289-1.363,0.814-1.859c0.755-0.709,1.09-1.56,0.943-2.395c-0.146-0.835-0.751-1.521-1.704-1.931   c-0.663-0.285-1.16-0.805-1.4-1.464c-0.241-0.661-0.194-1.381,0.132-2.028c0.465-0.926,0.487-1.841,0.063-2.575   c-0.424-0.734-1.226-1.17-2.26-1.229c-0.723-0.042-1.37-0.361-1.821-0.899c-0.451-0.538-0.652-1.229-0.568-1.946   c0.123-1.029-0.167-1.896-0.817-2.442c-0.649-0.545-1.558-0.682-2.546-0.383c-0.693,0.208-1.406,0.129-2.015-0.221   c-0.608-0.351-1.035-0.932-1.202-1.636c-0.239-1.009-0.811-1.724-1.608-2.013c-0.796-0.29-1.692-0.108-2.522,0.513   c-0.578,0.431-1.279,0.602-1.968,0.48c-0.692-0.122-1.293-0.522-1.69-1.127c-0.568-0.867-1.35-1.344-2.198-1.344   c-0.001,0-0.001,0-0.002,0c-0.849,0.001-1.628,0.479-2.193,1.344c-0.396,0.604-0.996,1.005-1.688,1.127   c-0.693,0.123-1.391-0.049-1.969-0.48c-0.829-0.62-1.724-0.801-2.521-0.513c-0.798,0.29-1.369,1.004-1.608,2.014   c-0.166,0.703-0.592,1.283-1.199,1.635c-0.609,0.351-1.324,0.43-2.02,0.222c-0.993-0.298-1.896-0.162-2.546,0.383   c-0.649,0.545-0.939,1.413-0.816,2.442c0.085,0.717-0.117,1.408-0.567,1.946c-0.452,0.539-1.098,0.858-1.819,0.899   c-1.036,0.059-1.84,0.497-2.264,1.231s-0.401,1.648,0.065,2.574c0.325,0.646,0.372,1.365,0.131,2.026   c-0.24,0.66-0.737,1.181-1.4,1.466c-0.952,0.41-1.558,1.095-1.705,1.93c-0.147,0.835,0.188,1.686,0.941,2.396   c0.526,0.495,0.816,1.155,0.816,1.858c0,0.703-0.29,1.362-0.816,1.857c-0.754,0.711-1.089,1.562-0.941,2.396   c0.147,0.834,0.753,1.519,1.704,1.929c0.664,0.286,1.162,0.808,1.402,1.468c0.24,0.66,0.193,1.378-0.132,2.023   c-0.466,0.925-0.489,1.838-0.066,2.572c0.424,0.735,1.228,1.173,2.265,1.233c0.722,0.041,1.367,0.36,1.818,0.898   c0.451,0.538,0.653,1.229,0.568,1.946c-0.123,1.03,0.167,1.897,0.816,2.442c0.308,0.259,0.677,0.419,1.082,0.49L27.504,85.38   c-0.041,0.166,0.006,0.341,0.125,0.464c0.117,0.123,0.29,0.178,0.458,0.145l10.072-2.015l8.003,6.433   c0.09,0.072,0.201,0.11,0.313,0.11c0.054,0,0.108-0.009,0.16-0.026c0.162-0.055,0.284-0.188,0.325-0.354l3.04-12.364l3.038,12.363   c0.04,0.165,0.161,0.298,0.321,0.354c0.054,0.019,0.109,0.027,0.164,0.027c0.109,0,0.218-0.036,0.308-0.105l8.304-6.468   l9.772,2.045c0.167,0.033,0.343-0.018,0.462-0.142s0.167-0.3,0.126-0.467l-7.863-32.131c0.419-0.067,0.798-0.232,1.115-0.498   c0.641-0.538,0.938-1.428,0.817-2.441c-0.084-0.718,0.118-1.41,0.57-1.949c0.451-0.538,1.098-0.857,1.82-0.898   c1.033-0.06,1.836-0.497,2.26-1.23c0.424-0.734,0.401-1.648-0.064-2.575c-0.324-0.644-0.371-1.362-0.132-2.022   c0.24-0.661,0.738-1.182,1.402-1.469c0.952-0.41,1.557-1.096,1.703-1.93s-0.188-1.685-0.943-2.396   C72.656,35.345,72.367,34.686,72.367,33.982z M36.367,53.215c0.143-0.025,0.282-0.04,0.43-0.085   c0.692-0.207,1.409-0.128,2.019,0.225c0.608,0.352,1.034,0.934,1.2,1.639c0.196,0.827,0.625,1.44,1.21,1.8l-6.563,26.86l-6.001,1.2   L36.367,53.215z M46.114,56.01c0.65,0.114,1.212,0.481,1.606,1.025l-6.827,27.853l-2.215-1.779l6.632-27.096   C45.575,55.973,45.846,55.963,46.114,56.01z M38.097,82.967l-2.786,0.557l6.473-26.485c0.757,0.211,1.587,0.033,2.361-0.547   c0.159-0.118,0.328-0.213,0.503-0.291L38.097,82.967z M46.178,89.136l-4.77-3.833l6.786-27.681   c0.514,0.551,1.136,0.857,1.805,0.857c0.848,0,1.628-0.477,2.197-1.343c0.397-0.604,0.997-1.005,1.689-1.127   c0.148-0.026,0.297-0.032,0.444-0.031L46.178,89.136z M62.114,82.916c-0.146-0.029-0.294,0.004-0.41,0.095l-7.878,6.137   l-3.311-13.469l4.793-19.494c0.189,0.081,0.374,0.179,0.546,0.307c0.83,0.621,1.725,0.802,2.523,0.513   c0.798-0.289,1.368-1.003,1.607-2.011c0.167-0.706,0.594-1.289,1.203-1.641c0.605-0.349,1.319-0.43,2.013-0.222   c0.134,0.041,0.262,0.053,0.393,0.078l7.743,31.637L62.114,82.916z M73.141,38.063c-0.087,0.491-0.482,0.912-1.115,1.185   c-0.919,0.396-1.61,1.123-1.945,2.045c-0.335,0.921-0.271,1.92,0.178,2.813c0.31,0.616,0.342,1.193,0.092,1.625   c-0.249,0.432-0.765,0.692-1.451,0.732c-1,0.057-1.898,0.502-2.529,1.254s-0.914,1.714-0.796,2.709   c0.081,0.683-0.085,1.236-0.469,1.557c-0.382,0.322-0.954,0.389-1.615,0.19c-0.958-0.29-1.952-0.179-2.801,0.313   c-0.851,0.49-1.445,1.299-1.676,2.275c-0.159,0.668-0.506,1.131-0.976,1.302c-0.47,0.169-1.033,0.038-1.584-0.374   c-0.802-0.6-1.775-0.837-2.74-0.665c-0.967,0.17-1.803,0.725-2.353,1.563c-0.378,0.575-0.861,0.892-1.361,0.892   s-0.983-0.317-1.36-0.892c-0.549-0.837-1.384-1.393-2.351-1.563c-0.205-0.036-0.409-0.054-0.613-0.054   c-0.758,0-1.496,0.246-2.129,0.719c-0.55,0.411-1.112,0.542-1.581,0.374c-0.471-0.171-0.817-0.633-0.977-1.301   c-0.229-0.976-0.822-1.783-1.672-2.275c-0.849-0.49-1.844-0.603-2.808-0.315c-0.658,0.196-1.232,0.131-1.614-0.19   c-0.383-0.321-0.549-0.874-0.468-1.558c0.118-0.994-0.164-1.956-0.794-2.708c-0.631-0.751-1.528-1.197-2.527-1.253   c-0.689-0.04-1.206-0.301-1.456-0.734c-0.249-0.432-0.216-1.009,0.093-1.623c0.45-0.894,0.514-1.894,0.179-2.815   c-0.335-0.922-1.026-1.648-1.945-2.044c-0.633-0.273-1.029-0.693-1.115-1.185c-0.087-0.492,0.141-1.022,0.642-1.495   c0.729-0.686,1.131-1.604,1.131-2.585c0-0.982-0.401-1.901-1.131-2.587c-0.501-0.471-0.729-1.002-0.642-1.494   c0.086-0.492,0.482-0.913,1.114-1.185c0.919-0.396,1.61-1.121,1.946-2.043c0.336-0.923,0.272-1.923-0.179-2.818   c-0.31-0.614-0.342-1.191-0.092-1.624c0.25-0.433,0.767-0.693,1.454-0.733c1-0.057,1.898-0.503,2.528-1.255   c0.63-0.751,0.912-1.712,0.794-2.707c-0.081-0.684,0.085-1.237,0.467-1.558c0.383-0.32,0.956-0.39,1.616-0.19   c0.957,0.289,1.956,0.177,2.807-0.314c0.849-0.491,1.443-1.297,1.672-2.271c0.159-0.67,0.506-1.133,0.977-1.304   c0.469-0.171,1.03-0.039,1.582,0.374c0.801,0.597,1.772,0.834,2.74,0.664c0.967-0.17,1.802-0.726,2.353-1.564   c0.375-0.574,0.857-0.891,1.357-0.892h0.001c0.501,0,0.984,0.317,1.362,0.893c0.551,0.838,1.386,1.393,2.354,1.563   c0.964,0.171,1.938-0.065,2.738-0.664c0.551-0.411,1.11-0.545,1.584-0.374c0.471,0.171,0.817,0.634,0.977,1.304   c0.23,0.975,0.825,1.782,1.676,2.272c0.849,0.491,1.845,0.601,2.802,0.313c0.654-0.198,1.23-0.131,1.615,0.191   c0.383,0.321,0.549,0.875,0.468,1.558c-0.118,0.995,0.164,1.956,0.795,2.707c0.63,0.751,1.528,1.197,2.53,1.254   c0.686,0.04,1.201,0.299,1.451,0.731c0.25,0.433,0.218,1.011-0.091,1.626c-0.451,0.896-0.515,1.897-0.179,2.819   c0.336,0.921,1.027,1.646,1.946,2.041c0.632,0.272,1.027,0.693,1.114,1.185c0.086,0.492-0.143,1.022-0.645,1.494v0   c-0.729,0.687-1.129,1.605-1.129,2.587c0,0.981,0.401,1.899,1.129,2.585C72.998,37.04,73.227,37.571,73.141,38.063z"></path></g></svg>