<svg height='100px' width='100px'  fill="#000000" xmlns="http://www.w3.org/2000/svg" data-name="Layer 1" viewBox="0 0 100 100" x="0px" y="0px"><title>76 all</title><path d="M60.19,52.88A10.19,10.19,0,1,0,50,63.07,10.2,10.2,0,0,0,60.19,52.88Z"></path><path d="M25.81,15.38v.2s0,0,0-.18v0Z"></path><path d="M61.12,38.72,73.86,16.65a2.58,2.58,0,0,0-.93-3.48,46.19,46.19,0,0,0-45.79,0,2.56,2.56,0,0,0-1.33,2.27,2.66,2.66,0,0,0,.33,1.25L38.88,38.72A2.57,2.57,0,0,0,41.11,40a2.5,2.5,0,0,0,1.26-.34,15.44,15.44,0,0,1,15.27,0,2.5,2.5,0,0,0,1.26.34A2.57,2.57,0,0,0,61.12,38.72Zm-4.07-7a22.59,22.59,0,0,0-14.1,0L34.56,17.23a39.37,39.37,0,0,1,30.88,0Z"></path><path d="M93.31,50.33H67.83a2.55,2.55,0,0,0-2.55,2.55,15.34,15.34,0,0,1-7.65,13.23,2.55,2.55,0,0,0-.93,3.48L69.45,91.66a2.59,2.59,0,0,0,3.48.93A46,46,0,0,0,95.86,52.88,2.55,2.55,0,0,0,93.31,50.33ZM73.15,84.08,64.77,69.55a22.41,22.41,0,0,0,7.07-12.22H88.6A39.06,39.06,0,0,1,73.15,84.08Z"></path><path d="M27,92.52a2.41,2.41,0,0,0,1.35.4,2.6,2.6,0,0,0,2.24-1.27L43.3,69.59a2.55,2.55,0,0,0-.93-3.48l.16.09-.17-.1a15.34,15.34,0,0,1-7.65-13.23,2.55,2.55,0,0,0-2.55-2.55H6.69a2.55,2.55,0,0,0-2.55,2.55A46,46,0,0,0,27,92.52Zm1.2-35.19a22.41,22.41,0,0,0,7.07,12.22L26.85,84.07A39.09,39.09,0,0,1,11.4,57.33Z"></path></svg>