<svg height='100px' width='100px'  fill="#000000" xmlns="http://www.w3.org/2000/svg" xmlns:xlink="http://www.w3.org/1999/xlink" version="1.1" x="0px" y="0px" viewBox="0 0 100 100" enable-background="new 0 0 100 100" xml:space="preserve"><g display="none"><path display="inline" opacity="0.3" fill-rule="evenodd" clip-rule="evenodd" d="M44.156,5.708L44.9,5.344l1.022,0.446l0.67-0.381   l1.023,0.03l0.573,1.183l0.863,0.639l0.253,1.373l0.77-0.031l0.797,0.893v1.341l0.732,1.501l0.098,1.341l-0.257,1.883v0.895   L51.255,17l-0.829,0.383l-0.098,0.83l-0.413,0.127l-0.223,0.608l0.383,0.861l-0.354,0.511l-0.573-0.223l-0.609,0.638l-0.35,0.767   l0.383,0.575l-0.414,0.665v0.737l0.754,0.32l0.32,0.577l0.617,0.576l-0.128,1.053l0.414,1.021l1.056-0.767l2.013-0.415l0.19,0.703   l-0.286,0.542l0.542,0.449l1.15-0.289l0.224,0.767l-0.29,0.767l0.513,0.703l1.15,0.254l-0.224,0.415l0.35,0.575l0.16-0.352   l1.246-0.159l0.895,0.575v0.67L58.44,32.23l0.032,0.639l-1.022,1.438l-0.83,0.83l0.161,0.606l0.669-0.32l1.403,0.16l0.227,0.257   l0.67-0.608l0.606,0.798L60.1,37.212l0.29,0.83l1.02,0.51l0.606-0.573h0.99l2.013-0.863l0.862,0.287l-0.096,0.833l-1.246,1.083   l-1.244,0.256l-0.033,0.83l-0.513,0.703l0.417,0.574l-0.895,0.736h-0.479l-0.544,1.213l-1.299,0.066l-0.991,0.353l-0.017,0.496   l0.479,0.659l-0.336,0.48l-1.119-0.16l-0.561,0.513l-0.029,1.105l-0.29,0.463l-0.976-0.014l-1.023,0.833l-1.659-0.676l-0.703,0.957   l0.224,1.533l-0.64,0.606v1.31l0.319,0.733l-0.83,0.606l-1.149,0.48l0.097,0.703l0.67,0.193l0.733,1.277l0.64,0.606l0.253,0.67   l1.153,0.799l1.053,2.3l0.701,0.253l0.513,1.149l0.159,0.96l0.926,0.446l0.095,0.894l-0.83,0.446l-0.35,0.64l0.51,2.267   l-0.127,0.673l-0.927,0.54l0.64,1.533l0.03,0.799l1.149,1.437l1.344,1.053l1.213,1.183l0.574,1.883l-0.32,0.734l0.192,0.863   l-0.097,0.959l0.511,0.543l0.192,1.307l0.384,0.799l-0.064,1.277l0.574,0.989l-0.063,1.47l-0.511,0.32l-1.056,2.81l-0.956,0.703   l-0.127,1.117l-0.416,0.703l-0.232,0.664l0.02-0.149l-0.404,0.905L58.393,94l-0.436-1.375l-0.033-1.274l-0.303-0.535l-0.033-0.436   l0.336,0.135l0.331-0.294l0.535-0.885v-0.72l-0.268-0.25l0.151-1.169l0.29-0.135l0.218-0.524l-0.402-1.21l0.604-0.469l-0.653-0.711   l-0.436-0.637l-0.036-1.139l0.304-0.438l-0.268-0.803l-0.438-0.336l-0.3-2.716l-0.604-0.535l-0.198-0.938l-0.64-1.075l-0.165,1.409   l-0.271,0.201l0.036-0.772l-0.402-0.802l0.066-1.943l-0.638-0.772l-0.065-0.905l0.334-0.336l-1.105-0.637l-0.033-1.542   l-0.301-0.033l-0.37-3.286l-0.537-0.367l-0.168-0.838l0.337-0.135v-0.535l-0.538-1.04l0.236-0.403l0.033-0.502l-0.303,0.535   l-0.604,0.235h-0.769L50.65,61.99l-0.368-0.469l-0.872-1.709l-0.168-0.469l-0.436-0.033v-0.504l-0.805-0.469l0.504,0.57   l-0.168,0.301l-0.065,0.501l0.501,0.37l-0.099,0.904l-0.402,0.436l0.164,0.538l-1.138,0.938l-0.736-0.133l-0.505-0.636h-0.3   l0.333,0.702l-0.065,0.301l0.705,0.201l-0.973,0.571H45.12l-0.436-0.301l-0.233,0.769l-1.779,1.208l-0.871-0.102l-0.133,0.201   h-0.471l-0.03-0.234l-0.103,0.436l-0.436,0.102l-0.502-0.637l-1.207,0.637l-0.135,0.604l-0.502,0.033v-1.208l1.174-1.105   l0.066-1.442l-0.538,1.308l-0.938,0.805l-0.669,1.073l-0.102-0.403l0.135-0.333l-0.271-0.94l0.726-4.397l1.003-0.637l-0.402-0.4   l-0.788-1.938l-0.1-1.743l-0.438-0.201l-0.265-0.471l0.265-0.166l-0.635-0.505l-0.335-1.274l-0.502-0.669l-0.337-0.703v-0.772   l-1.072-0.67l0.369,0.739l0.201,1.541l-1.644-0.471l-0.77-0.938l-0.068-0.502l-0.838-0.739l-0.1-0.469l0.806,0.066l0.301,0.672   l0.669,0.333l0.268-0.3l-0.268-0.135l-0.636-0.604l0.669-0.403l0.502,0.505l0.538-0.201l-0.033-0.736l-0.872-1.277l-1.372-0.268   l-0.369-0.567l-0.772-0.135l-0.201-0.571l-0.1,0.571l-0.806,0.099l-0.065-0.367l0.67-0.772l-0.838,0.066l-0.703-0.568v0.403   l0.436,0.769l-1.963-1.756l-0.351-1.169l-0.436-0.935l-0.02,0.022L26.4,41.434l0.141-0.838l0.859-1.053l0.354,0.223l0.477-1.086   v-1.531l0.193-0.83l0.416,0.19l0.477-0.256l0.511-1.468l-0.224-0.895l0.16-1.085l-0.16-1.182l0.926,0.128l0.098-1.598l0.033-1.149   l-0.544-2.171l0.927,0.064l0.767,0.255l1.181-0.032l0.702-1.662l0.416-1.884l0.958-2.331l-1.055-0.51l-0.062-0.669l1.243-2.013   l0.606-1.756l-0.446-0.575l0.223-1.053l1.47-2.299l0.99-0.352l1.053-1.308l0.447-1.055l1.438-0.446l1.243-0.894l0.736,0.605   l0.86,0.384L43.59,8.569V7.387l0.863-0.798l-0.097-0.669L44.156,5.708L44.156,5.708z M32.185,52.498l0.253,0.64l0.895,0.51   l0.223-0.767l-0.7-0.703L32.185,52.498z"></path></g><g display="none"><path display="inline" d="M32.805,36.204v-2.831h0.564l0.668,2.005c0.063,0.187,0.108,0.327,0.135,0.417   c0.033-0.102,0.083-0.253,0.151-0.452l0.679-1.97h0.502v2.831h-0.361v-2.369l-0.821,2.369h-0.337l-0.819-2.408v2.408H32.805   L32.805,36.204z M36.904,36.204v-1.198l-1.089-1.633h0.455l0.56,0.855c0.103,0.159,0.198,0.318,0.286,0.479   c0.086-0.147,0.188-0.316,0.309-0.5l0.55-0.833h0.436l-1.131,1.633v1.198H36.904L36.904,36.204z M38.143,36.204h0.397l0.309-0.857   h1.186l0.328,0.857h0.427l-1.158-2.831h-0.402L38.143,36.204L38.143,36.204z M38.956,35.042l0.312-0.829   c0.065-0.179,0.118-0.36,0.154-0.542c0.044,0.154,0.11,0.349,0.197,0.587l0.299,0.783H38.956L38.956,35.042z M41.084,36.204v-2.831   h0.384l1.485,2.221v-2.221h0.361v2.831h-0.386l-1.486-2.222v2.222H41.084L41.084,36.204z M43.93,36.204v-2.831h0.565l0.669,2.005   c0.062,0.187,0.107,0.327,0.135,0.417c0.031-0.102,0.084-0.253,0.152-0.452l0.676-1.97h0.505v2.831H46.27v-2.369l-0.82,2.369h-0.34   l-0.818-2.408v2.408H43.93L43.93,36.204z M46.924,36.204l1.089-2.831h0.402l1.158,2.831h-0.428l-0.331-0.857h-1.182l-0.309,0.857   H46.924L46.924,36.204z M47.74,35.042h0.959l-0.295-0.783c-0.089-0.238-0.157-0.433-0.198-0.587   c-0.039,0.182-0.089,0.363-0.154,0.542L47.74,35.042L47.74,35.042z M49.876,36.204v-2.831h1.255c0.254,0,0.443,0.026,0.576,0.078   c0.13,0.051,0.234,0.141,0.314,0.269c0.08,0.129,0.116,0.271,0.116,0.427c0,0.2-0.064,0.37-0.193,0.507   c-0.13,0.138-0.331,0.225-0.604,0.263c0.102,0.047,0.177,0.094,0.228,0.141c0.108,0.099,0.213,0.225,0.31,0.376l0.493,0.769h-0.472   l-0.374-0.59c-0.11-0.168-0.199-0.298-0.271-0.387c-0.071-0.091-0.133-0.155-0.189-0.19c-0.056-0.036-0.114-0.061-0.171-0.075   c-0.042-0.01-0.111-0.014-0.208-0.014h-0.435v1.256H49.876L49.876,36.204z M50.252,34.624h0.805c0.171,0,0.306-0.018,0.399-0.054   c0.1-0.036,0.171-0.092,0.221-0.169c0.053-0.079,0.077-0.163,0.077-0.253c0-0.134-0.049-0.244-0.146-0.331   c-0.096-0.085-0.25-0.128-0.46-0.128h-0.896V34.624L50.252,34.624z M34.936,41.45c-0.189-0.24-0.353-0.524-0.485-0.849   c-0.132-0.322-0.198-0.659-0.198-1.006c0-0.309,0.051-0.601,0.149-0.882c0.115-0.322,0.295-0.647,0.534-0.97h0.252   c-0.157,0.267-0.26,0.458-0.31,0.573c-0.08,0.176-0.142,0.361-0.185,0.554c-0.056,0.243-0.086,0.482-0.086,0.728   c0,0.617,0.193,1.235,0.58,1.853H34.936L34.936,41.45z M35.617,40.618v-2.829h1.063c0.216,0,0.39,0.03,0.519,0.085   c0.133,0.058,0.235,0.146,0.307,0.265c0.076,0.121,0.112,0.246,0.112,0.375c0,0.121-0.032,0.234-0.099,0.342   c-0.064,0.104-0.166,0.193-0.298,0.256c0.174,0.053,0.304,0.138,0.396,0.256c0.092,0.125,0.138,0.265,0.138,0.43   c0,0.132-0.029,0.256-0.085,0.37c-0.056,0.113-0.124,0.201-0.207,0.265c-0.082,0.061-0.187,0.107-0.312,0.138   c-0.121,0.033-0.275,0.047-0.455,0.047H35.617L35.617,40.618z M35.994,38.977h0.61c0.165,0,0.286-0.011,0.358-0.03   c0.094-0.03,0.164-0.077,0.215-0.144c0.047-0.063,0.072-0.146,0.072-0.245c0-0.094-0.022-0.176-0.067-0.249   c-0.047-0.071-0.109-0.121-0.192-0.146c-0.086-0.027-0.229-0.038-0.431-0.038h-0.565V38.977L35.994,38.977z M35.994,40.284h0.703   c0.121,0,0.207-0.002,0.255-0.01c0.087-0.017,0.159-0.044,0.217-0.081c0.059-0.033,0.104-0.088,0.144-0.157   c0.036-0.069,0.056-0.146,0.056-0.237c0-0.104-0.028-0.196-0.08-0.276c-0.056-0.077-0.13-0.132-0.227-0.163   c-0.097-0.033-0.234-0.047-0.413-0.047h-0.654V40.284L35.994,40.284z M40.127,37.789h0.376v1.635c0,0.284-0.034,0.51-0.098,0.678   c-0.065,0.168-0.181,0.303-0.35,0.408c-0.168,0.105-0.389,0.157-0.659,0.157c-0.264,0-0.482-0.047-0.65-0.138   s-0.289-0.223-0.361-0.397c-0.071-0.17-0.107-0.408-0.107-0.708v-1.635h0.373v1.635c0,0.245,0.024,0.427,0.068,0.541   c0.047,0.119,0.124,0.207,0.237,0.27c0.11,0.063,0.245,0.097,0.407,0.097c0.276,0,0.472-0.063,0.588-0.19   c0.119-0.124,0.176-0.364,0.176-0.717V37.789L40.127,37.789z M41.131,40.618v-2.829h1.255c0.25,0,0.443,0.027,0.573,0.077   c0.133,0.05,0.237,0.14,0.316,0.27c0.078,0.127,0.116,0.27,0.116,0.424c0,0.202-0.063,0.37-0.192,0.508   c-0.13,0.138-0.331,0.226-0.604,0.265c0.1,0.047,0.177,0.093,0.227,0.141c0.109,0.099,0.212,0.226,0.312,0.375l0.49,0.769h-0.469   l-0.375-0.587c-0.11-0.168-0.2-0.301-0.27-0.389c-0.072-0.091-0.135-0.154-0.19-0.19c-0.055-0.036-0.113-0.061-0.171-0.074   c-0.044-0.008-0.113-0.014-0.209-0.014h-0.434v1.254H41.131L41.131,40.618z M41.506,39.038h0.806c0.167,0,0.304-0.016,0.399-0.052   s0.171-0.094,0.22-0.171c0.05-0.077,0.075-0.16,0.075-0.254c0-0.132-0.047-0.243-0.146-0.328c-0.097-0.088-0.248-0.13-0.457-0.13   h-0.896V39.038L41.506,39.038z M43.968,40.618v-2.829h0.562l0.67,2.004c0.064,0.187,0.107,0.325,0.136,0.419   c0.033-0.102,0.083-0.253,0.151-0.455l0.679-1.968h0.502v2.829h-0.362v-2.366l-0.821,2.366h-0.337l-0.818-2.407v2.407H43.968   L43.968,40.618z M46.963,40.618l1.086-2.829h0.402l1.158,2.829h-0.428l-0.328-0.855h-1.186l-0.309,0.855H46.963L46.963,40.618z    M47.778,39.457h0.96l-0.298-0.783c-0.089-0.237-0.155-0.433-0.198-0.587c-0.036,0.182-0.089,0.361-0.154,0.541L47.778,39.457   L47.778,39.457z M50.092,41.45h-0.248c0.383-0.618,0.576-1.235,0.576-1.853c0-0.243-0.027-0.483-0.083-0.723   c-0.044-0.19-0.104-0.377-0.185-0.554c-0.05-0.116-0.151-0.309-0.309-0.579h0.248c0.242,0.323,0.422,0.648,0.538,0.97   c0.096,0.281,0.146,0.574,0.146,0.882c0,0.348-0.066,0.684-0.198,1.006C50.444,40.926,50.282,41.21,50.092,41.45z"></path></g><g><path fill="none" stroke="#000000" stroke-width="0.75" stroke-linecap="round" stroke-linejoin="round" stroke-miterlimit="10" d="   M26.5,41.875c-0.422-0.787,0.1-1.604,0.598-2.365c0.149,0.476,0.232,0.218,0.502,0.474c0.69-1.155,1.015-2.773,0.41-4.092   c0.403,0.187,0.855,0.389,1.344,0.336c0.353-1.443-0.512-4.807,1.503-4.623c0.13-0.754,0.357-1.748,0.175-2.483   c-0.191-0.768-0.928-1.293-1.111-2.103c0.604-0.034,2.24,0.332,2.704,0.111c0.633-0.301,0.6-1.295,0.845-2.008   c0.428-1.241,1.499-2.463,1.766-3.594c-1.854-0.827-0.866-2.282-0.332-3.659c0.243-0.624,0.727-1.107,0.848-1.744   c0.128-0.676-0.11-1.042,0.101-1.756c0.247-0.838,0.728-1.309,1.437-1.871c0.207-0.164,0.846-0.289,0.935-0.386   c0.321-0.349,0.304-0.956,0.562-1.346c0.761-1.148,2.84-1.542,3.243-3c0.406,0.436,0.798,0.986,0.866,1.591   c1.324,0.372,0.771-0.946,0.882-1.612c0.099-0.602,0.854-0.873,0.269-1.628C44.714,5.98,45.314,5.541,46,5.95   c0.74-1.017,2.248-0.509,2.021,0.778c0.923,0.135,0.613,0.563,0.976,1.025c0.133,0.169,0.121,0.52,0.285,0.722   c0.271,0.333,0.74-0.028,1.005,0.26c0.688,0.749,0.607,2.434,0.994,3.388c0.479,1.179,0.836,2.398,0.725,3.753   c-0.072,0.88-0.472,1.249-0.881,1.752c-0.282,0.347-1.154-0.067-0.547,0.881c-0.218-0.055-0.479,0.048-0.685,0.01   c-0.158,0.824,0.361,2.296-1.122,1.878c-0.132,0.172-0.504,0.656-0.53,0.852c-0.051,0.391,0.499,0.532,0.49,0.65   c-0.047,0.616-0.461,1.08-0.394,1.628c0.066,0.543,0.796,1.151,1.035,1.597c0.378,0.705,0.586,1.344,0.643,2.248   c1.129-1.153,1.415-1.54,3.06-1.254c0.058,0.571-0.124,1.89,0.959,1.43c1.466,0.263,0.196,0.737,0.734,1.55   c0.246,0.371,1.396,0.305,1.812,0.65c-0.976,0.418-0.097,1.355,0.551,0.356c1.578,0.879,1.352,0.753,1.228,2.522   c-0.03,0.438,0.402,0.147,0.205,0.837c-0.111,0.387-0.489,0.689-0.714,1c-0.411,0.569-0.93,1.136-1.219,1.765   c0.84,0.091,1.227-0.836,2.087-0.493c0.073-0.223,0.292-0.386,0.379-0.568c1.146,0.633,1.053,1.746,0.922,2.812   c0.718,0.07,1.367,0.202,1.945,0.631c0.145-0.552,2.911-1.609,3.513-1.246c1.192,0.719-0.623,1.987-1.202,2.468   c-0.231-1.46-1.105,0.798-1.507,0.809c0.029,0.451,0.003,0.641,0.347,0.957c-0.475,0.107-0.767,0.399-0.891,0.883   c-0.69-0.283-0.932,0.356-0.996,0.998c-0.717-0.032-2.709,0.078-2.582,0.997c0.407,0.055,0.56,0.3,0.835,0.491   c-0.51,0.673-1.063,0.273-1.481,0.528c-0.801,0.49-0.193,0.548-0.619,1.252c-0.4,0.661-1.881,1.352-2.606,1.609   c-0.267-1.611-2.094-0.137-2.39,0.65c0.663,0.466,0.259,1.722-0.373,2.092c0.072,0.017,0.145,0.032,0.218,0.046   c-0.023,0.595,0.123,1.17,0.535,1.604c-0.641,0.53-1.838,0.986-2.255,1.725c1.16,0.211,1.777,2.207,2.134,3.131   c0.989-0.218,2.3,2.414,2.882,3.25c0.124-0.023,0.232-0.06,0.356-0.092c0.819,1.183,1.647,2.537,1.277,3.638   c-0.377,1.121-1.372,3.101-0.203,4.225c-2.032,0.118,0.333,3.409,0.913,4.025c0.696,0.739,1.676,1.324,2.253,2.126   c0.538,0.748,0.402,1.76,1.215,2.355c-1.013-0.094-1.062,1.631-0.815,2.345c0.084,0.246,0.607,0.424,0.735,0.765   c0.208,0.558-0.198,1.002,0.222,1.402c0.076,1.17,0.064,1.769,1.129,2.247c0.383,0.908-1.682,3.972-2.258,4.838   c-0.094,0.141-0.479-0.104-0.574,0.045c-0.149,0.233-0.03,0.529-0.147,0.727c-0.197,0.332-0.44,0.988-0.604,1.372   c-0.394,0.93-0.646,1.908-0.931,2.876c-0.254-0.852-0.392-2.079-0.582-3.011c1.289-0.716,0.42-1.774,0.863-2.866   c0.199-0.49,0.634-0.417,0.756-0.875c0.098-0.37-0.337-0.955-0.237-1.454c1.287-0.288-0.526-1.501-0.799-1.918   c-0.486-0.747-0.217-0.802-0.216-1.512c0.001-0.245,0.377-0.306,0.38-0.622c0.001-0.186-0.375-0.273-0.387-0.393   c-0.146-1.485-0.36-4.171-1.622-5.238c-0.326,0.348-0.287,0.817-0.397,1.324c-1.062-1.653-0.827-1.59-0.846-3.314   c-0.012-1.024-0.832-1.742,0.352-2.437c-0.358-0.254-0.947-0.56-1.236-0.905c-0.422-0.502-0.237-0.875-0.488-1.406   c-0.394-0.831-0.668-0.892-0.759-1.875c-0.074-0.801,0.244-1.547-0.644-1.869c0.608-0.989-0.04-2.142,0.756-2.99   c-1.913,1.194-1.812,0.453-2.487-1.113c-0.388-0.897-1.497-2.575-2.457-2.758c0.213,0.451,0.09,1.064,0.191,1.349   c0.219,0.61,0.829,0.568,0.622,1.363c-0.109,0.055-0.221-0.002-0.336,0.037c-0.279,1.362-1.671,1.454-2.529,0.651   c-0.069,0.629-0.045,1.188,0.532,1.556c-0.814,0.491-1.879,0.394-2.748,0.829c-1.072,0.536-2.24,1.463-3.5,1.551   c-0.019-0.175-0.181-0.345-0.169-0.586c-0.418,0.036-0.834,0.167-1.213,0.377c0.042,0.287-0.104,0.682-0.04,0.961   c-1.073-0.485,0.444-1.938,0.51-2.717c-0.578,0.074-1.792,1.485-1.988,1.886c-0.001-1.486,0.363-2.288,0.656-3.652   c0.107-0.503-0.09-1.244,0.003-1.659c0.111-0.497,0.396-0.664,0.831-1.194c-1.142-0.234-1.393-1.157-1.49-2.146   c-0.047-0.475,0.114-1.036,0-1.497c-0.164-0.664-0.547-0.638-0.752-1.163c-0.344-0.879-1.082-4.238-2.35-4.468   c0.013,0.669,0.207,1.536,0.433,2.145c-0.571-0.57-1.567-0.764-2.049-1.299c-0.479-0.532-0.521-1.357-1.016-1.821   c0.789-0.194,0.822,0.582,1.243,1.065c0.055-0.489-0.094-1.016-0.244-1.443c0.625-0.078,0.84,0.476,1.115,0.943   c0.541-1.459,0.057-2.135-1.033-2.803c-0.252-0.154-1.175-1.033-1.313-1.07c-0.572-0.151-0.832,0.433-1.39,0.261   c0.813-1.078-0.516-1.144-1.247-1.337c0.083,0.395,0.161,0.888,0.081,1.318c-1.217-1.036-2.055-2.486-2.132-4.089   c-0.048,0.253-0.175,0.616-0.222,0.884"></path></g></svg>