<svg height='100px' width='100px'  fill="#000000" xmlns="http://www.w3.org/2000/svg" data-name="Layer 1" viewBox="0 0 100 100" x="0px" y="0px"><title>Icon</title><path d="M91.83,19.83,50.25,5.49a.69.69,0,0,0-.25,0,.73.73,0,0,0-.25,0L8.17,19.83a.78.78,0,0,0-.54.74V29a.79.79,0,0,0,.79.8H91.58a.79.79,0,0,0,.79-.8V20.57A.77.77,0,0,0,91.83,19.83Zm-1,8.43H9.2V21.12L9.63,21,50,7.05,90.8,21.12Z"></path><path d="M91.58,87.26H88.06v-5a.78.78,0,0,0-.78-.79H85.19V76.57a.77.77,0,0,0-.77-.79H82.33V38.61l.48-.12a5.12,5.12,0,0,0,3.83-4.91V32.14a.8.8,0,0,0-.79-.78H65.77a.79.79,0,0,0-.78.78v1.44a5.09,5.09,0,0,0,3.81,4.91l.5.12V75.78H52.42l.06,1.56H83.64v4.17h-31l0,1.28v.29H86.5v4.18H52.92L53,88.82H90.8V93H9.2V88.82H46.44l.11-1.56h-33V83.08H46.82l0-.29.07-1.28H16.37V77.34H47.12l.08-1.56H30.71V38.61l.48-.12A5.11,5.11,0,0,0,35,33.58V32.14a.78.78,0,0,0-.78-.78H14.15a.79.79,0,0,0-.78.78v1.44a5.09,5.09,0,0,0,3.81,4.91l.5.12V75.78h-2.1a.78.78,0,0,0-.78.79v4.94H12.71a.79.79,0,0,0-.78.79v5H8.42a.78.78,0,0,0-.79.77v5.74a.78.78,0,0,0,.79.78H91.58a.78.78,0,0,0,.79-.78V88A.78.78,0,0,0,91.58,87.26ZM80.76,75.78H70.87V38.66h9.89ZM70.07,37.1a3.53,3.53,0,0,1-3.52-3.52v-.65H85.06v.65a3.52,3.52,0,0,1-3.52,3.52ZM29.14,75.78h-9.9V38.66h9.9ZM14.93,33.58v-.65H33.44v.65a3.52,3.52,0,0,1-3.51,3.52H18.45A3.53,3.53,0,0,1,14.93,33.58Z"></path><path d="M45.63,77.34l-.05.73-.22,3.44h1.56l.2-4.17Zm-.45,6.87L45,87.26h1.56l.2-3.05.07-1.13H45.25Zm17.88-39A4.31,4.31,0,0,0,59,48l-.08.23-.25,0a70.27,70.27,0,0,0-17.45-.1l-.24,0-.09-.24a4.28,4.28,0,0,0-8.32,1.41L32.5,63a4.27,4.27,0,0,0,1.24,3h0A4.28,4.28,0,0,0,41,63.8l.06-.28.29,0c1.45.21,3,.34,4.58.45h.31l-.53,11.77,0,.86,0,.7-.05.73-.22,3.44-.09,1.28,0,.29-.07,1.13L45,87.26l-.11,1.56-.14,2.09A3.45,3.45,0,0,0,45.31,93c.11.16.24.31.37.47a3.48,3.48,0,0,0,2.5,1.07l3,0a3.44,3.44,0,0,0,2.5-1,3.77,3.77,0,0,0,.42-.51,3.6,3.6,0,0,0,.57-2l-.12-2.15-.07-1.56-.16-3.05-.06-1.13v-.29l-.06-1.28L54,78.07l0-.73,0-.7,0-.86-.41-11.73.31,0c1.57-.07,3.11-.2,4.59-.38l.27,0,.05.28a4.29,4.29,0,0,0,8.51-.7l.07-13.67A4.27,4.27,0,0,0,63.06,45.23ZM39.5,63A2.71,2.71,0,0,1,34.87,65a2.7,2.7,0,0,1-.8-1.94l.07-13.66A2.75,2.75,0,0,1,35,47.43a2.64,2.64,0,0,1,1.92-.78,2.6,2.6,0,0,1,1.92.81h0a2.66,2.66,0,0,1,.78,1.91Zm13,14.3.16,4.17,0,1.28v.29l.06,1.13.16,3.05L53,88.82l.12,2.2a1.95,1.95,0,0,1-1.91,2l-3,0a1.84,1.84,0,0,1-1.33-.56s0,0,0,0A1.93,1.93,0,0,1,46.3,91l.14-2.17.11-1.56.2-3.05.07-1.13,0-.29.07-1.28.2-4.17.08-1.56.6-11.7h.31c.57,0,1.16,0,1.76,0H52l.47,11.68ZM58.68,62l-.25,0A69.14,69.14,0,0,1,41.36,62l-.28,0,.06-12.21.28,0a69.15,69.15,0,0,1,17.07.08l.26,0Zm7,1.14a2.71,2.71,0,0,1-2.74,2.7,2.63,2.63,0,0,1-1.89-.8h0a2.65,2.65,0,0,1-.8-1.92l.07-13.66a2.79,2.79,0,0,1,.8-1.92,2.75,2.75,0,0,1,1.93-.79,2.66,2.66,0,0,1,1.91.8h0a2.7,2.7,0,0,1,.78,1.92ZM45.63,77.34l-.05.73-.22,3.44h1.56l.2-4.17Z"></path></svg>