<svg height='100px' width='100px'  fill="#000000" xmlns="http://www.w3.org/2000/svg" viewBox="0 0 128 128" x="0px" y="0px"><path d="M82.481,55.152c1.61,5.72-3.123,12.073-10.547,14.161s-14.776-.867-16.384-6.587a8.9,8.9,0,0,1,.273-5.489,2.067,2.067,0,0,0-2.495-2.71l-10.315,2.9a5.29,5.29,0,0,0-3.657,6.516l4.583,16.294-.072.105a11.063,11.063,0,0,0-8-.885,11.581,11.581,0,0,0-7.482,7.061,18.159,18.159,0,0,0-.489,11.789c2.386,8.487,9.847,13.841,16.628,11.932A11.056,11.056,0,0,0,50.9,105.3l.111.061,4.582,16.3a5.28,5.28,0,0,0,6.516,3.654l10.315-2.9a2.067,2.067,0,0,0,.717-3.614,8.9,8.9,0,0,1-3.094-4.542c-1.608-5.72,3.123-12.073,10.549-14.161s14.775.867,16.383,6.587a8.9,8.9,0,0,1-.273,5.488,2.074,2.074,0,0,0,.425,2.129,2.053,2.053,0,0,0,2.07.582l10.316-2.9a5.282,5.282,0,0,0,3.655-6.515l-4.582-16.294.072-.105a11.049,11.049,0,0,0,8.005.885c6.781-1.907,10.358-10.363,7.972-18.85A18.17,18.17,0,0,0,118.07,61.3a11.577,11.577,0,0,0-10.065-2.127,11.056,11.056,0,0,0-6.376,4.937l-.11-.06L97.226,48.781a6.352,6.352,0,0,0-7.836-4.395L80.105,47a2.067,2.067,0,0,0-.717,3.613A8.894,8.894,0,0,1,82.481,55.152Zm-1.835-6.23,9.285-2.611A4.353,4.353,0,0,1,95.3,49.322l4.293,15.264a2.092,2.092,0,0,0,1.718,1.5,2.016,2.016,0,0,0,2.017-.925,9.08,9.08,0,0,1,5.218-4.067h0a9.635,9.635,0,0,1,8.346,1.816,16.162,16.162,0,0,1,5.816,8.732c2.088,7.425-.867,14.775-6.587,16.384a9.085,9.085,0,0,1-6.573-.751,2.015,2.015,0,0,0-2.206.263,2.093,2.093,0,0,0-.683,2.174l4.582,16.3a3.283,3.283,0,0,1-2.27,4.048l-10.316,2.9.271.962-.346-1.061a10.884,10.884,0,0,0,.319-6.716C96.992,99.36,88.541,95.784,80.05,98.17S66.209,108.017,68.116,114.8a10.9,10.9,0,0,0,3.774,5.566l-.012.123-10.316,2.9a3.287,3.287,0,0,1-4.048-2.271l-4.582-16.3a2.1,2.1,0,0,0-1.718-1.5,2.273,2.273,0,0,0-.306-.022,2,2,0,0,0-1.712.948,9.081,9.081,0,0,1-5.218,4.067c-5.726,1.613-12.074-3.124-14.162-10.548a16.161,16.161,0,0,1,.413-10.484,9.627,9.627,0,0,1,6.174-5.9,9.078,9.078,0,0,1,6.574.751,2.011,2.011,0,0,0,2.206-.263,2.094,2.094,0,0,0,.682-2.175L41.282,63.4a3.287,3.287,0,0,1,2.272-4.048l10.315-2.9-.27-.963.345,1.06a10.9,10.9,0,0,0-.32,6.718c1.908,6.781,10.37,10.356,18.851,7.971s13.839-9.846,11.932-16.628a10.887,10.887,0,0,0-3.773-5.566l-.623.783Z"></path><path d="M11,76H34V74H11a7.008,7.008,0,0,1-7-7V11a7.008,7.008,0,0,1,7-7H67a7.008,7.008,0,0,1,7,7V60h2V11a9.01,9.01,0,0,0-9-9H11a9.01,9.01,0,0,0-9,9V67A9.01,9.01,0,0,0,11,76Z"></path><path d="M48,39a9,9,0,1,0-9,9A9.01,9.01,0,0,0,48,39ZM32,39a7,7,0,1,1,7,7A7.008,7.008,0,0,1,32,39Z"></path><path d="M18,51a9,9,0,1,0,9,9A9.01,9.01,0,0,0,18,51Zm0,16a7,7,0,1,1,7-7A7.008,7.008,0,0,1,18,67Z"></path><path d="M18,9a9,9,0,1,0,9,9A9.01,9.01,0,0,0,18,9Zm0,16a7,7,0,1,1,7-7A7.008,7.008,0,0,1,18,25Z"></path><path d="M60,27a9,9,0,1,0-9-9A9.01,9.01,0,0,0,60,27Zm0-16a7,7,0,1,1-7,7A7.008,7.008,0,0,1,60,11Z"></path></svg>