<svg height='100px' width='100px'  fill="#000000" xmlns="http://www.w3.org/2000/svg" xmlns:xlink="http://www.w3.org/1999/xlink" version="1.1" x="0px" y="0px" viewBox="0 0 66 66" enable-background="new 0 0 66 66" xml:space="preserve"><g><path d="M43.2058,37.9022v-2.0205c0-0.5527-0.4473-1-1-1h-3.0381V23.4833c0-6.1748-5.0293-11.1992-11.2109-11.1992   s-11.2109,5.0244-11.2109,11.1992v11.3984h-3.0498c-0.5527,0-1,0.4473-1,1v2.0205c0,8.0665,6.3127,14.6709,14.2607,15.1887v9.9089   H18.698c-0.5527,0-1,0.4473-1,1s0.4473,1,1,1h18.5176c0.5527,0,1-0.4473,1-1s-0.4473-1-1-1h-8.2588v-9.9091   C36.8989,52.5718,43.2058,45.9679,43.2058,37.9022z M27.9568,14.284c4.187,0,7.7237,2.8071,8.8392,6.6338h-6.1273   c-0.2764,0-0.5,0.2236-0.5,0.5s0.2236,0.5,0.5,0.5h6.3555c0.088,0.5099,0.1436,1.0308,0.1436,1.5654v1.0459h-6.499   c-0.2764,0-0.5,0.2236-0.5,0.5s0.2236,0.5,0.5,0.5h6.499v2.6104h-6.499c-0.2764,0-0.5,0.2236-0.5,0.5s0.2236,0.5,0.5,0.5h6.499   v2.6113h-6.499c-0.2764,0-0.5,0.2236-0.5,0.5c0,0.2764,0.2236,0.5,0.5,0.5h6.499v2.6113h-6.499c-0.2764,0-0.5,0.2236-0.5,0.5   s0.2236,0.5,0.5,0.5h6.499v1.5498c0,5.0723-4.1318,9.1992-9.2109,9.1992c-4.1852,0-7.7209-2.8047-8.838-6.6289h6.13   c0.2764,0,0.5-0.2236,0.5-0.5s-0.2236-0.5-0.5-0.5h-6.3586c-0.0886-0.5114-0.1443-1.034-0.1443-1.5703V36.867h6.5   c0.2764,0,0.5-0.2236,0.5-0.5s-0.2236-0.5-0.5-0.5h-6.5v-2.6113h6.5c0.2764,0,0.5-0.2236,0.5-0.5s-0.2236-0.5-0.5-0.5h-6.5v-2.6113   h6.5c0.2764,0,0.5-0.2236,0.5-0.5s-0.2236-0.5-0.5-0.5h-6.5v-2.6113h6.5c0.2764,0,0.5-0.2236,0.5-0.5s-0.2236-0.5-0.5-0.5h-6.5   v-1.5498C18.7459,18.411,22.8777,14.284,27.9568,14.284z M14.6961,37.9022v-1.0205h2.0498v1.0303   c0,6.1748,5.0293,11.1992,11.2109,11.1992s11.2109-5.0244,11.2109-11.1992v-1.0303h2.0381v1.0205   c0,7.2998-5.9443,13.2393-13.25,13.2393C20.6443,51.1415,14.6961,45.202,14.6961,37.9022z"></path><path d="M51.5535,21.2713c0.5392,0.1409,1.0818-0.1814,1.2217-0.7119c2.2441-8.5215-2.8623-17.2813-11.3828-19.5264   c-0.5332-0.1396-1.0811,0.1777-1.2217,0.7119s0.1777,1.0811,0.7119,1.2217c7.4541,1.9648,11.9219,9.6279,9.959,17.083   C50.7009,20.5838,51.0193,21.1307,51.5535,21.2713z"></path><path d="M45.7595,19.744c0.5408,0.1414,1.0824-0.1837,1.2217-0.7119c1.4033-5.3252-1.7881-10.7998-7.1143-12.2041   c-0.5254-0.1396-1.0811,0.1777-1.2217,0.7119s0.1777,1.0811,0.7119,1.2217c4.2598,1.123,6.8125,5.502,5.6904,9.7607   C44.907,19.0565,45.2253,19.6034,45.7595,19.744z"></path><path d="M39.9656,18.2176c0.5392,0.1409,1.0818-0.1814,1.2217-0.7119c0.5605-2.1309-0.7158-4.3213-2.8467-4.8828   c-0.5273-0.1396-1.0811,0.1777-1.2217,0.7119s0.1777,1.0811,0.7119,1.2217c1.0645,0.2813,1.7031,1.375,1.4229,2.4395   C39.113,17.5301,39.4324,18.077,39.9656,18.2176z"></path></g></svg>