<svg height='100px' width='100px'  fill="#000000" xmlns="http://www.w3.org/2000/svg" viewBox="0 0 512 512" x="0px" y="0px"><title>investigation-Crime-evidence-investigate</title><path d="M376,128a88,88,0,1,0,88,88A88.1,88.1,0,0,0,376,128Zm0,160a72,72,0,1,1,72-72A72.081,72.081,0,0,1,376,288Z"></path><path d="M496,216A120,120,0,1,0,340.149,330.529,23.979,23.979,0,0,0,352,366.624V472a24,24,0,0,0,48,0V366.624a23.979,23.979,0,0,0,11.851-36.1A120.215,120.215,0,0,0,496,216ZM384,368v80H368V368Zm-8,112a8.009,8.009,0,0,1-8-8v-8h16v8A8.009,8.009,0,0,1,376,480Zm16-144a8,8,0,0,1,0,16H360a8,8,0,0,1,0-16Zm-16-16A104,104,0,1,1,480,216,104.118,104.118,0,0,1,376,320Z"></path><path d="M32,32H76.687l29.656,29.657A8,8,0,0,0,112,64H320V88h16V24a8,8,0,0,0-8-8H24a8,8,0,0,0-8,8V456a8,8,0,0,0,8,8h88V448H32Zm67.314,0h41.372l16,16H115.313Zm64,0h33.372l16,16H179.314ZM320,48H235.314l-16-16H320Z"></path><path d="M148.527,470.375,76.777,166.737,302.56,113.384l-3.68-15.571L65.312,153.006a8,8,0,0,0-5.945,9.625L134.8,481.84a8,8,0,0,0,9.625,5.945L337.84,442.08l-3.68-15.57Z"></path><rect x="146.766" y="280.054" width="16" height="15.999" transform="translate(-62.098 43.314) rotate(-13.296)"></rect><rect x="177.161" y="266.279" width="71.801" height="15.999" transform="translate(-57.37 56.355) rotate(-13.297)"></rect><rect x="137.044" y="301.919" width="128.68" height="15.999" transform="translate(-65.88 54.625) rotate(-13.297)"></rect><rect x="144.174" y="331.096" width="145.779" height="15.999" transform="translate(-72.17 59.013) rotate(-13.297)"></rect><rect x="151.128" y="358.763" width="176" height="15.999" transform="translate(-77.935 64.822) rotate(-13.295)"></rect><rect x="158.916" y="393.585" width="144" height="15.999" transform="translate(-86.16 63.864) rotate(-13.295)"></rect><path d="M242.6,152.215l-129.159,30.52a8,8,0,0,0-5.945,9.625l14.718,62.285a7.987,7.987,0,0,0,9.625,5.945l110-25.993-3.68-15.571L135.943,243.18,124.9,196.467l121.373-28.682Z"></path></svg>