<svg height='100px' width='100px'  fill="#000000" xmlns="http://www.w3.org/2000/svg" xmlns:xlink="http://www.w3.org/1999/xlink" version="1.1" x="0px" y="0px" viewBox="0 0 100 100" style="enable-background:new 0 0 100 100;" xml:space="preserve"><g><path d="M47.08,83.96h-0.41c-0.46-0.05-0.87-0.23-1.14-0.59c-0.27-0.36-0.41-0.77-0.36-1.23v-0.05v-0.05l0.5-2   c-0.23-0.14-0.41-0.27-0.59-0.46c-0.41-0.46-0.64-1.09-0.55-1.73l0.5-5.28c0.14-1.18,0.77-2.19,1.78-2.78   c-0.77-0.82-1.23-1.96-1.23-3.19c0-2,1.23-3.69,3.01-4.37l1.09-7.19c0.09-0.59,0.32-1.14,0.68-1.55c-0.27-0.09-0.59-0.18-0.91-0.18   l-1.18-0.09c-0.96,0.73-2.09,1.14-3.37,1.14c-1.27,0-2.46-0.41-3.37-1.14l-1.18,0.09c-1.82,0.09-3.19,1.68-3.1,3.51l0.64,10.66   c0.09,1.37,1.23,2.46,2.6,2.46h0.18l1.09,16.58c0.09,1.55,0.96,2.41,2.05,2.41h2.14c0.59,0,1.18-0.27,1.55-0.77   c-0.09-0.23-0.14-0.46-0.18-0.68L47.08,83.96z"></path><path d="M40.34,48.76c0,2.54,2.06,4.6,4.6,4.6c2.54,0,4.6-2.06,4.6-4.6c0-2.54-2.06-4.6-4.6-4.6S40.34,46.22,40.34,48.76z"></path><path d="M55.86,53.36c2.54,0,4.6-2.06,4.6-4.6c0-2.54-2.06-4.6-4.6-4.6c-2.54,0-4.6,2.06-4.6,4.6   C51.27,51.3,53.32,53.36,55.86,53.36z"></path><path d="M61.06,55.14c-0.14-1-0.96-1.73-1.96-1.82h-0.05c-0.91,0.64-2,1.05-3.23,1.05s-2.32-0.36-3.23-1.05h-0.05   c-1,0.09-1.82,0.87-1.96,1.82l-1,6.74c0.23-0.05,0.46-0.05,0.73-0.05c2.6,0,4.74,2.09,4.74,4.74c0,1.23-0.46,2.32-1.23,3.19   c1,0.59,1.64,1.59,1.78,2.78l0.5,5.28c0.05,0.64-0.14,1.28-0.55,1.73c-0.18,0.18-0.36,0.36-0.59,0.46l0.5,2v0.05v0.05   c0.05,0.46-0.05,0.91-0.36,1.23c-0.27,0.36-0.68,0.55-1.18,0.59h-0.36l-0.32,3.37c0,0.05,0,0.05,0,0.09   c0.27,0.82,1.05,1.41,1.96,1.41h1.18c1.09,0,1.96-0.82,2.05-1.91l0.73-10.97l2.28-0.14c0.64-0.05,1.14-0.59,1.05-1.23l-1.23-5.19   h0.14c0.96,0,1.73-0.87,1.55-1.82L61.06,55.14z"></path><path d="M50.35,70.35c2.09,0,3.78-1.69,3.78-3.78s-1.69-3.78-3.78-3.78s-3.78,1.69-3.78,3.78C46.58,68.65,48.27,70.35,50.35,70.35z   "></path><path d="M54.59,82.23l-0.77-2.91h0.14c0.77,0,1.37-0.64,1.27-1.41l-0.55-5.28c-0.09-1-0.77-1.87-1.68-2.23   c-0.77,0.55-1.68,0.82-2.64,0.82c-1,0-1.91-0.32-2.64-0.82c-0.91,0.36-1.59,1.23-1.68,2.23l-0.55,5.28   c-0.09,0.77,0.5,1.41,1.27,1.41h0.14l-0.77,2.91c-0.05,0.36,0.23,0.73,0.59,0.73L47.94,83l0.41,4.19c0.09,0.91,0.82,1.59,1.73,1.59   h0.55c0.91,0,1.64-0.68,1.73-1.59L52.77,83L54,82.96C54.36,82.96,54.64,82.59,54.59,82.23z"></path><path d="M40.34,34.68c0.04-0.93-1.16-2.44-2.48-2.86c-0.93-0.31-1.2,0.11-1.62,0.46c-1.79,1.9-2.42,2.78-3.58,4.15   c-0.09,0.14-0.3,0.32-0.37,0.57l-2.86,5.55c-0.1,0.25-0.28,0.44-0.49,0.58c-0.33-0.38-0.37-0.98-0.14-1.54l3.76-7.42   c0.09-0.14,0.09-0.14,0.18-0.28c0.19-0.16,4.21-5.05,6.66-7.73l6.56-8.46c0.67-0.83,0.55-2.05-0.28-2.73   c-0.71-0.58-1.73-0.59-2.45-0.02L22.7,31.81c-2.39,1.96-4.13,4.65-4.73,7.47L14.44,51.6C13.95,53.24,9,81.22,9,81.22h16.07   l1.35-20.32l0.45-2.14c0.42-0.35,0.85-0.71,1.26-1.08c0.83-0.7,1.77-1.43,2.57-2.24c2.25-2.03,4.04-4.5,5.39-8.93   c0.43-1.39,0.32-2.05,0.88-3.37c1.07-2.38,0.43-1.39,1.8-3.51C40.19,37.15,40.35,35.83,40.34,34.68z"></path><path d="M85.66,51.6l-3.53-12.31c-0.6-2.82-2.34-5.51-4.73-7.47L56.87,14.93c-0.72-0.57-1.74-0.56-2.45,0.02   c-0.83,0.68-0.95,1.9-0.28,2.73l6.56,8.46c2.45,2.68,6.48,7.57,6.66,7.73c0.09,0.14,0.09,0.14,0.18,0.28l3.76,7.42   c0.23,0.56,0.19,1.16-0.14,1.54c-0.21-0.15-0.39-0.34-0.49-0.58L67.81,37c-0.07-0.25-0.27-0.42-0.37-0.57   c-1.17-1.37-1.8-2.25-3.58-4.15c-0.41-0.35-0.69-0.77-1.62-0.46c-1.32,0.43-2.52,1.93-2.48,2.86c-0.01,1.15,0.15,2.47,1.56,4.95   c1.37,2.12,0.73,1.13,1.8,3.51c0.57,1.32,0.46,1.98,0.88,3.37c1.35,4.42,3.14,6.9,5.39,8.93c0.8,0.81,1.75,1.54,2.57,2.24   c0.42,0.37,0.85,0.73,1.26,1.08l0.45,2.14l1.35,20.32H91.1C91.1,81.22,86.15,53.24,85.66,51.6z"></path></g></svg>