<svg height='100px' width='100px'  fill="#000000" xmlns="http://www.w3.org/2000/svg" xmlns:xlink="http://www.w3.org/1999/xlink" version="1.1" x="0px" y="0px" viewBox="0 0 100 100" enable-background="new 0 0 100 100" xml:space="preserve"><g><path fill="none" stroke="#000000" stroke-width="0.75" stroke-linecap="round" stroke-linejoin="round" stroke-miterlimit="10" d="   M69,88.5l-1.125-28.621l3.519-49.683L71.5,9.75c0.008,0.16-0.027,0.309-0.106,0.446c0.429-0.726,0.196-1.392-0.017-2.043   c-0.107-0.33-0.624-1.287-0.971-1.559C69.679,6.021,67.831,6.172,66.875,6L39.5,7.125c0.164-0.269-0.121,0.74-0.553,1.256   c-0.351,0.418-0.743,0.567-1.072,1.01c-0.479,0.646-0.363,1.319-1.223,1.738c0.222,0.923,0.104,1.812-0.399,2.635   c-0.321,0.523-0.668,0.141-0.887,0.874c-0.422,1.415,0.877,1.933-0.116,3.49c-1.191-0.415-1.651-0.05-2.854,0.142   c-0.169,0.55-0.678,0.858-0.902,1.334c-0.235,0.5-0.043,1.109-0.257,1.659c-0.289,0.742-0.899,0.681-1.265,1.227   c-0.388,0.578-0.369,1.33-0.495,1.995c-0.738,0.024-1.08,0.592-0.702,1.224c0.121-0.02,0.208-0.062,0.331-0.068   c0.058,1.063,0.14,3.728-0.863,4.392c-0.69,0.457-1.711-0.277-1.977,0.767c-0.046,0.18,0.251,1.329,0.264,1.605   c0.021,0.442-0.084,0.905-0.03,1.35c0.071,0.593,0.05,1.934,0.231,2.378c0.319,0.78,0.835,0.716,1.021,1.599   c0.332,1.57-0.938,2.402,0.49,3.739c-0.318,0.078-0.687,0.351-0.991,0.373c1.336,0.608,0.953,0.886,0.368,1.933   c-0.504,0.902-0.487,1.339-0.491,2.238c-0.007,1.634,0.621,3.047,0.99,4.385c0.207,0.748,1.002,2.054,0.394,2.809   c-0.503,0.624-1.688,0.294-2.248,0.771c-1.062,0.905-0.791,2.103,0.242,2.308c0.521,0.104,1.177-0.489,1.872-0.177   c0.017,0.179-0.072,0.669-0.146,0.828c-1.444-0.397,0.048,3.309-1.735,3.858c-1.229,0.379-1.07-0.562-2.2,0.667   c-0.323,0.352-0.72,1.159-1.149,1.17c-0.057,0.716-0.239,1.506-0.634,2.006c-0.422,0.533-0.613-0.406-0.89,0.58   c-0.207,0.736,1.067,1.848-0.23,2.305c-0.162,0.606-0.898,1.184-0.903,1.862c-0.004,0.507,0.525,0.643,0.492,1.224   c-0.112,0.016-0.228-0.005-0.338,0.025c-0.032,0.478-0.005,0.967-0.037,1.446c-0.573,0.271-1.736,0.654-1.969,1.4   c1.098,0.803-0.05,1.887,0.266,2.646c0.331,0.796,1.804,0.696,1.972,1.25L48,77.625c0.254,0.731-0.26,1.585-0.619,2.247   c-0.509,0.938-0.704,1.412-0.874,2.509c-0.18,1.154,0.403,3.746,1.381,4.503c0.114,0.088,0.806,0.173,1.114,0.494   c0.486,0.503,0.24,0.768,0.491,1.375c0.26,0.629,0.54,0.78,0.76,1.378c0.153,0.417-0.132,0.832,0.154,1.211   c0.564,0.75,1.996,0.618,2.595,0.15c0.728-0.568,0.505-1.338,1.107-1.972c-0.881-0.149-1.139-0.981-0.353-1.537   c0.83-0.587,1.31,0.232,1.875,0.519c0.366,0.186,0.107,0.453,0.612,0.505c0.379,0.04,0.758-0.507,1.134-0.605   c0.484-0.126,0.772,0.048,1.122,0.006c0.035-0.004,0.575,0.076,0.68,0.071c0.234-0.011,0.436-0.431,0.691-0.489   c0.614-0.139,1.486-0.013,2.123-0.013c0.751,0,0.547-0.293,1.229,0.172c0.455,0.311,0.37,0.753,1.03,0.977   c1.026,0.348,1.556-0.557,2.25-0.521c1.032,0.053,1.09,1.219,2.356,0.497C68.899,88.882,68.991,88.714,69,88.5z"></path></g></svg>