<svg height='100px' width='100px'  fill="#000000" xmlns="http://www.w3.org/2000/svg" viewBox="0 0 64 64" x="0px" y="0px"><title>12, credit, file, paper, payment, accounting, bills,</title><g data-name="Layer 2"><rect x="18" y="42" width="20" height="2"></rect><rect x="18" y="37" width="7" height="2"></rect><rect x="18" y="32" width="5" height="2"></rect><rect x="18" y="27" width="5" height="2"></rect><rect x="18" y="22" width="5" height="2"></rect><path d="M56,11H45V8a5,5,0,0,0-5-5H8A5,5,0,0,0,3,8V18a1,1,0,0,0,1,1h7V56a5,5,0,0,0,5,5H48a5,5,0,0,0,5-5V50a1,1,0,0,0-1.6-.8l-4.74,3.55L45,51.5V37H56a5,5,0,0,0,5-5V16A5,5,0,0,0,56,11Zm3,5v3H27V16a3,3,0,0,1,3-3H56A3,3,0,0,1,59,16Zm0,8H27V21H59ZM5,17V8a3,3,0,0,1,6,0v9ZM47.26,54.8,51,52v4a3,3,0,0,1-3,3H20a5,5,0,0,0,1-3V52l3.73,2.8a1,1,0,0,0,1.2,0l4.73-3.55,4.73,3.55a1,1,0,0,0,1.2,0l4.74-3.55,4.73,3.55A1,1,0,0,0,47.26,54.8ZM43,50l-1.08-.81a1,1,0,0,0-1.19,0L36,52.75,31.26,49.2a1,1,0,0,0-1.2,0l-4.73,3.55L20.6,49.2A1,1,0,0,0,19,50v6a3,3,0,0,1-6,0V8a5.28,5.28,0,0,0-1-3H40a3,3,0,0,1,3,3v3H30a5,5,0,0,0-5,5V32a5,5,0,0,0,5,5H43ZM56,35H30a3,3,0,0,1-3-3V26H59v6A3,3,0,0,1,56,35Z"></path><path d="M53,28a3,3,0,1,0,3,3A3,3,0,0,0,53,28Zm0,4a1,1,0,1,1,1-1A1,1,0,0,1,53,32Z"></path></g></svg>