<svg height='100px' width='100px'  fill="#000000" xmlns="http://www.w3.org/2000/svg" xmlns:xlink="http://www.w3.org/1999/xlink" version="1.1" x="0px" y="0px" viewBox="0 0 100 100" style="enable-background:new 0 0 100 100;" xml:space="preserve"><g><g><g><g><path d="M63.7,18.9H41.7c-0.6,0-1-0.5-1-1c0-0.6,0.5-1,1-1h21.9c0.6,0,1,0.5,1,1C64.7,18.4,64.3,18.9,63.7,18.9      z"></path></g><g><path d="M40.5,23.1c-0.3,0-0.5-0.1-0.7-0.3l-4.2-4.2c-0.4-0.4-0.4-1.1,0-1.5l4.2-4.2c0.4-0.4,1.1-0.4,1.5,0      c0.4,0.4,0.4,1.1,0,1.5l-3.5,3.5l3.5,3.5c0.4,0.4,0.4,1.1,0,1.5C41.1,23,40.8,23.1,40.5,23.1z"></path></g></g><g><g><path d="M58.3,32H36.3c-0.6,0-1-0.5-1-1c0-0.6,0.5-1,1-1h21.9c0.6,0,1,0.5,1,1C59.3,31.5,58.8,32,58.3,32z"></path></g><g><path d="M59.5,36.2c-0.3,0-0.5-0.1-0.7-0.3c-0.4-0.4-0.4-1.1,0-1.5l3.5-3.5l-3.5-3.5c-0.4-0.4-0.4-1.1,0-1.5      c0.4-0.4,1.1-0.4,1.5,0l4.2,4.2c0.2,0.2,0.3,0.5,0.3,0.7c0,0.3-0.1,0.5-0.3,0.7l-4.2,4.2C60,36.1,59.7,36.2,59.5,36.2z"></path></g></g></g><g><g><g><g><g><g><g><path d="M84.3,25.4c-0.4,0-0.7-0.2-0.9-0.5c-0.3-0.5-0.1-1.1,0.4-1.4l11.8-6.8l-11.3-6.5l-12.8,7.4          c-0.5,0.3-1.1,0.1-1.4-0.4c-0.3-0.5-0.1-1.1,0.4-1.4l13.3-7.7c0.3-0.2,0.7-0.2,1,0l13.3,7.7c0.3,0.2,0.5,0.5,0.5,0.9          c0,0.4-0.2,0.7-0.5,0.9l-13.3,7.7C84.7,25.4,84.5,25.4,84.3,25.4z"></path></g><g><path d="M84.3,40.9c-0.2,0-0.4,0-0.5-0.1L70.5,33c-0.3-0.2-0.5-0.5-0.5-0.9V16.7c0-0.6,0.5-1,1-1          c0.6,0,1,0.5,1,1v14.8l12.3,7.1l12.3-7.1V16.7c0-0.6,0.5-1,1-1c0.6,0,1,0.5,1,1v15.4c0,0.4-0.2,0.7-0.5,0.9l-13.3,7.7          C84.7,40.8,84.5,40.9,84.3,40.9z"></path></g><g><path d="M84.3,35.7c-0.6,0-1-0.5-1-1V24.4c0-0.6,0.5-1,1-1c0.6,0,1,0.5,1,1v10.2          C85.4,35.2,84.9,35.7,84.3,35.7z"></path></g></g></g></g></g></g><g><g><g><g><g><g><path d="M15.7,25.4c-0.4,0-0.7-0.2-0.9-0.5c-0.3-0.5-0.1-1.1,0.4-1.4l11.8-6.8l-11.3-6.5L2.8,17.6          c-0.5,0.3-1.1,0.1-1.4-0.4c-0.3-0.5-0.1-1.1,0.4-1.4l13.3-7.7c0.3-0.2,0.7-0.2,1,0l13.3,7.7c0.3,0.2,0.5,0.5,0.5,0.9          c0,0.4-0.2,0.7-0.5,0.9l-13.3,7.7C16,25.4,15.8,25.4,15.7,25.4z"></path></g><g><path d="M15.7,40.9c-0.2,0-0.4,0-0.5-0.1L1.8,33c-0.3-0.2-0.5-0.5-0.5-0.9V16.7c0-0.6,0.5-1,1-1          c0.6,0,1,0.5,1,1v14.8l12.3,7.1L28,31.5V16.7c0-0.6,0.5-1,1-1c0.6,0,1,0.5,1,1v15.4c0,0.4-0.2,0.7-0.5,0.9l-13.3,7.7          C16,40.8,15.8,40.9,15.7,40.9z"></path></g><g><path d="M15.7,35.7c-0.6,0-1-0.5-1-1V24.4c0-0.6,0.5-1,1-1c0.6,0,1,0.5,1,1v10.2          C16.7,35.2,16.2,35.7,15.7,35.7z"></path></g></g></g></g></g></g></g><g><g><g><g><g><g><g><path d="M77.1,92.1c-7.6,0-15.2-1.6-22.2-4.7c-0.5-0.2-0.8-0.9-0.5-1.4c0.2-0.5,0.9-0.8,1.4-0.5          c13.4,5.9,28.7,6,42.2,0.3v-3.1c0-1.4-0.3-2.8-0.9-3.9c-0.5-0.9-1.1-1.6-1.8-2.2c-2.9-2.3-10.6-6.5-10.7-6.6          c-0.5-0.3-0.7-0.9-0.4-1.4c0.3-0.5,0.9-0.7,1.4-0.4c0.3,0.2,7.9,4.3,11,6.8c0.9,0.8,1.7,1.7,2.3,2.8          c0.8,1.4,1.2,3.1,1.2,4.9v3.8c0,0.4-0.2,0.8-0.6,1C92.3,90.5,84.7,92.1,77.1,92.1z"></path></g></g></g><g><g><g><path d="M55.3,87.5c-0.6,0-1-0.5-1-1v-3.8c0-2,0.5-3.9,1.5-5.4c0.6-0.9,1.3-1.7,2.1-2.3          c3.1-2.5,10.6-6.6,11-6.8c0.5-0.3,1.1-0.1,1.4,0.4c0.3,0.5,0.1,1.1-0.4,1.4c-0.1,0-7.7,4.2-10.7,6.6          c-0.6,0.5-1.1,1.1-1.6,1.8c-0.8,1.2-1.2,2.7-1.2,4.3v3.8C56.4,87,55.9,87.5,55.3,87.5z"></path></g></g></g></g><g><path d="M77.1,74.2c-6.6,0-12-6.6-12-14.7c0-8.1,5.4-14.7,12-14.7c6.6,0,12,6.6,12,14.7       C89.2,67.6,83.8,74.2,77.1,74.2z M77.1,46.9c-5.5,0-9.9,5.7-9.9,12.6c0,6.9,4.5,12.6,9.9,12.6c5.5,0,9.9-5.7,9.9-12.6       C87.1,52.5,82.6,46.9,77.1,46.9z"></path></g></g></g><g><g><g><g><g><g><path d="M22.9,92.1c-7.6,0-15.2-1.6-22.2-4.7c-0.5-0.2-0.8-0.9-0.5-1.4c0.2-0.5,0.9-0.8,1.4-0.5          c13.4,5.9,28.7,6,42.2,0.3v-3.1c0-1.4-0.3-2.8-0.9-3.9c-0.5-0.9-1.1-1.6-1.8-2.2C38,74.1,30.3,70,30.2,69.9          c-0.5-0.3-0.7-0.9-0.4-1.4c0.3-0.5,0.9-0.7,1.4-0.4c0.3,0.2,7.9,4.3,11,6.8c0.9,0.8,1.7,1.7,2.3,2.8          c0.8,1.4,1.2,3.1,1.2,4.9v3.8c0,0.4-0.2,0.8-0.6,1C38,90.5,30.5,92.1,22.9,92.1z"></path></g></g></g><g><g><g><path d="M1,87.5c-0.6,0-1-0.5-1-1v-3.8c0-2,0.5-3.9,1.5-5.4c0.6-0.9,1.3-1.7,2.1-2.3          c3.1-2.5,10.6-6.6,11-6.8c0.5-0.3,1.1-0.1,1.4,0.4c0.3,0.5,0.1,1.1-0.4,1.4c-0.1,0-7.7,4.2-10.7,6.6          c-0.6,0.5-1.1,1.1-1.6,1.8c-0.8,1.2-1.2,2.7-1.2,4.3v3.8C2.1,87,1.6,87.5,1,87.5z"></path></g></g></g></g><g><path d="M22.9,74.2c-6.6,0-12-6.6-12-14.7c0-8.1,5.4-14.7,12-14.7s12,6.6,12,14.7       C34.9,67.6,29.5,74.2,22.9,74.2z M22.9,46.9c-5.5,0-9.9,5.7-9.9,12.6c0,6.9,4.5,12.6,9.9,12.6c5.5,0,9.9-5.7,9.9-12.6       C32.8,52.5,28.3,46.9,22.9,46.9z"></path></g></g></g></g></g></svg>