<svg height='100px' width='100px'  fill="#000000" xmlns="http://www.w3.org/2000/svg" xmlns:xlink="http://www.w3.org/1999/xlink" version="1.1" x="0px" y="0px" viewBox="0 0 64 64" style="enable-background:new 0 0 64 64;" xml:space="preserve"><g><path d="M23,28v-4c0-2.602-1.43-4.872-3.542-6.079c2.176-0.3,4.135-1.508,5.374-3.367c0.205-0.307,0.224-0.701,0.05-1.026   C24.708,13.203,24.369,13,24,13c-1.654,0-3-1.346-3-3V9c0-4.411-3.589-8-8-8S5,4.589,5,9v1c0,1.654-1.346,3-3,3   c-0.369,0-0.708,0.203-0.882,0.528c-0.174,0.325-0.155,0.72,0.05,1.026c1.239,1.858,3.198,3.066,5.374,3.367   C4.43,19.128,3,21.398,3,24v4c0,0.553,0.448,1,1,1h18C22.552,29,23,28.553,23,28z M17,13c0,2.206-1.794,4-4,4s-4-1.794-4-4v-2   c1.634,0,3.087-0.788,4-2.003C13.913,10.212,15.366,11,17,11V13z M10,19h3h3c0,0,0,0,0,0l-1.109,1.478l-1.185-1.185   C13.512,19.098,13.256,19,13,19s-0.512,0.098-0.707,0.293l-1.185,1.185L10,19C10,19,10,19,10,19z M7,10V9c0-3.309,2.691-6,6-6   s6,2.691,6,6v1c0,2.091,1.29,3.886,3.115,4.631C21.091,15.505,19.778,16,18.395,16h-0.206C18.701,15.116,19,14.093,19,13v-3   c0-0.553-0.448-1-1-1h-1c-1.654,0-3-1.346-3-3c0-0.553-0.448-1-1-1s-1,0.447-1,1c0,1.654-1.346,3-3,3H8C7.448,9,7,9.447,7,10v3   c0,1.093,0.299,2.116,0.812,3H7.605c-1.384,0-2.696-0.495-3.721-1.369C5.71,13.886,7,12.091,7,10z M21,27h-2v-4h-2v4H9v-4H7v4H5v-3   c0-1.993,1.18-3.703,2.871-4.506L10.2,22.6c0.174,0.232,0.44,0.377,0.729,0.397c0.289,0.026,0.573-0.085,0.778-0.29L13,21.414   l1.293,1.293C14.481,22.896,14.736,23,15,23c0.023,0,0.047-0.001,0.071-0.003c0.289-0.021,0.555-0.165,0.729-0.397l2.329-3.106   C19.82,20.297,21,22.007,21,24V27z"></path><path d="M57.34,51.132c0.576-0.605,1.025-1.329,1.31-2.132H60c1.654,0,3-1.346,3-3c0-1.302-0.839-2.402-2-2.816V40   c0-2.757-2.243-5-5-5h-2v-7c0-0.553-0.448-1-1-1H41c-0.265,0-0.52,0.105-0.707,0.293l-10,10C30.105,37.48,30,37.734,30,38v16   c0,0.553,0.448,1,1,1h12.685C43.251,55.911,43,56.926,43,58v4c0,0.553,0.448,1,1,1h18c0.552,0,1-0.447,1-1v-4   C63,54.599,60.56,51.759,57.34,51.132z M47,47h-1c-0.551,0-1-0.448-1-1s0.449-1,1-1h1V47z M49,43.997   c0.498-0.375,0.924-0.839,1.253-1.371C51.79,44.124,54.388,45,56,45h1v2c0,2.206-1.794,4-4,4s-4-1.794-4-4V43.997z M50,53h3h3   c0,0,0,0,0,0l-1.109,1.478l-1.185-1.185C53.512,53.098,53.256,53,53,53s-0.512,0.098-0.707,0.293l-1.185,1.185L50,53   C50,53,50,53,50,53z M60,47h-1v-2h1c0.551,0,1,0.448,1,1S60.551,47,60,47z M59,40v3h-1h-2c-1.974,0-5-1.609-5-3   c0-0.553-0.448-1-1-1s-1,0.447-1,1c0,1.304-0.836,2.416-2,2.829V40c0-1.654,1.346-3,3-3h6C57.654,37,59,38.346,59,40z M40,30.414   V37h-6.586L40,30.414z M32,39h9c0.552,0,1-0.447,1-1v-9h10v6h-2c-2.757,0-5,2.243-5,5v3.184c-1.161,0.414-2,1.514-2,2.816   c0,1.654,1.346,3,3,3h1.35c0.285,0.803,0.734,1.527,1.31,2.132c-1.367,0.266-2.591,0.931-3.55,1.868H32V39z M61,61h-2v-4h-2v4h-8   v-4h-2v4h-2v-3c0-1.993,1.18-3.703,2.871-4.506L50.2,56.6c0.174,0.232,0.44,0.377,0.729,0.397c0.289,0.023,0.573-0.085,0.778-0.29   L53,55.414l1.293,1.293C54.481,56.896,54.736,57,55,57c0.023,0,0.047-0.001,0.071-0.003c0.289-0.021,0.555-0.165,0.729-0.397   l2.329-3.106C59.82,54.297,61,56.007,61,58V61z"></path><rect x="33" y="40" width="2" height="2"></rect><rect x="36" y="40" width="6" height="2"></rect><rect x="33" y="43" width="2" height="2"></rect><rect x="36" y="43" width="6" height="2"></rect><rect x="33" y="46" width="2" height="2"></rect><rect x="36" y="46" width="6" height="2"></rect><path d="M32,26c0.256,0,0.512-0.098,0.707-0.293l2-2C34.895,23.52,35,23.266,35,23v-8.681c2.419-1.148,4-3.604,4-6.319   c0-3.859-3.14-7-7-7s-7,3.141-7,7c0,2.715,1.581,5.171,4,6.319V17c0,0.266,0.105,0.52,0.293,0.707L29.586,18l-0.293,0.293   c-0.391,0.391-0.391,1.023,0,1.414L29.586,20l-0.293,0.293C29.105,20.48,29,20.734,29,21v2c0,0.266,0.105,0.52,0.293,0.707l2,2   C31.488,25.902,31.744,26,32,26z M31.707,19.293L31.414,19l0.293-0.293c0.391-0.391,0.391-1.023,0-1.414L31,16.586v-2.935   c0-0.424-0.267-0.802-0.667-0.942C28.34,12.003,27,10.11,27,8c0-2.757,2.243-5,5-5s5,2.243,5,5c0,2.11-1.34,4.003-3.333,4.709   C33.267,12.85,33,13.228,33,13.651v8.935l-1,1l-1-1v-1.172l0.707-0.707C32.098,20.316,32.098,19.684,31.707,19.293z"></path><rect x="31" y="4" width="2" height="2"></rect><path d="M13,33.414l2.293,2.293l1.414-1.414l-4-4c-0.391-0.391-1.023-0.391-1.414,0l-4,4l1.414,1.414L11,33.414V52   c0,0.553,0.448,1,1,1h16v-2H13V33.414z"></path><path d="M51,22.586l-2.293-2.293l-1.414,1.414l4,4C51.488,25.902,51.744,26,52,26s0.512-0.098,0.707-0.293l4-4l-1.414-1.414   L53,22.586V12c0-0.553-0.448-1-1-1H41v2h10V22.586z"></path></g></svg>