<svg height='100px' width='100px'  fill="#000000" xmlns="http://www.w3.org/2000/svg" xmlns:xlink="http://www.w3.org/1999/xlink" version="1.1" x="0px" y="0px" viewBox="0 0 100 100" style="enable-background:new 0 0 100 100;" xml:space="preserve"><path d="M35.7,14.2l-0.6-0.1l-0.2-0.4l-0.5-0.1l-0.6-0.3l0.8-0.2v-0.4l-0.1-0.2l-0.6-0.2V12l-0.6,0.1l0.2-0.2l-0.2-0.2l-0.4-0.3  l-0.4,0.1l-0.7,0.1l0.4-0.3l0.1-0.4L31.5,11l-0.6,0.3l0.2-0.3l0.5-0.2h-0.7l-0.4,0.1l-0.7,0.3l-0.5,0.4h0.3l-0.5,0.2V12l0.3,0.1  l0.4,0.2l0.8,0.2h0.6l0.3-0.1l0.1,0.2h0.2v0.3L31.5,13l0.5,0.2l0.3,0.2v0.2l-0.1,0.2l-0.8,0.4l-0.3,0.2v0.2h-0.7h-0.6l-0.5,0.3  l0.1,0.2h1l0.1-0.1c0.2,0.1,0.4,0.3,0.6,0.5l-0.2,0.1l0.3,0.3l0.6,0.3l1,0.2v-0.2l-0.2-0.3l-0.2-0.4l0.7,0.4l0.3,0.2l0.4-0.3  l0.3-0.6L34,15.1l-0.4-0.2l-0.2-0.3l0.3-0.3h0.5l0.2,0.5l0.3,0.2l1-0.5V14.2z M33.1,9.9h0.7l0.5,0.2l0.9-0.2l-0.1-0.1h-0.4l0.1-0.1  l0.5-0.1l0.3-0.1l0.5-0.1l0.4-0.1l0.1-0.2L36.9,9l-0.2-0.1h0.7l0.2-0.1h0.5l0.8-0.2c0.4,0,0.9-0.1,1.3-0.2h-0.5L40,8.3h0.6l0.7-0.1  l0.1-0.1L41.1,8c-0.6-0.1-1.2-0.1-1.8-0.2h-0.6c-0.5,0-0.9,0-1.3,0L37,7.9V7.8h-0.2l-0.4,0.1H36h-0.2h-0.3c0,0,0,0-0.1,0L35.4,8v0.1  l-0.1,0.1l0.1,0.1L36,8.4l0.3,0.1l-0.5,0.1h-0.1l-0.5-0.1L35,8.7v0.2L34.8,9h-0.5l-0.4,0.1l0.2,0.1L34,9.4l-0.3-0.2h-0.1l-0.3,0.3  h-0.5l-0.2,0.2l0.3,0.1L33.1,9.9z M29.4,10.8L29,11.2h0.2l0.6-0.3h0.3l0.7-0.3l-0.2-0.1l-0.3-0.1L30,10.5l-0.3,0.1L29.4,10.8z   M28.6,11.3l0.6-0.4v-0.2l0.4-0.2l0.1-0.1h0c-0.6,0.3-1.1,0.6-1.7,0.9l0,0l0.1,0.1L28.6,11.3z M31.7,10.6h0.4h0.7H33h0.5l0.3-0.1  l0.2-0.1l-0.1-0.2l-0.3-0.1h-0.5h-0.4c-0.2,0-0.3-0.1-0.5-0.1V9.9l-0.1-0.1l0.3-0.1V9.6h-0.3V9.5l-0.3-0.1l-0.2,0.1c0,0,0,0-0.1,0  v0.1l0.3,0.1v0.2l-0.3,0.2l-0.3,0.2l0.3,0.2L31.7,10.6z M31,9.7c-0.1,0.1-0.3,0.1-0.4,0.2L31,9.7L31,9.7z M35.1,25.2h0.3l0.2-0.6  l-0.1-0.4v-0.3L35.1,24l0.3-0.4l-0.5-0.2l-0.3,0.1l-0.4-0.2l0.3-0.2L34.2,23l-0.4,0.2c0.4-0.3,0.7-0.7,1.1-1h-0.2l-0.5,0.2l-0.4,0.3  l-0.9,0.9l-0.6,0.3l0.4,0.1l-0.4,0.2v0.2l1,0.1h0.6l0.5,0.2L33.9,25h0.3l0.8-0.5l0.1,0.1l-0.3,0.5L35.1,25.2z M73.5,12.2L73.5,12.2  L73.5,12.2C73.5,12.2,73.5,12.2,73.5,12.2z M33.7,9.1l0.8-0.2l0.4-0.1V8.7l0.2-0.2l-0.2-0.1l-0.1-0.1l0.1-0.2  c-0.4,0.1-0.8,0.3-1.2,0.5h0.1l-0.3,0.1l-0.2,0.1L33.1,9l0.3,0.1H33.7z M74.4,12.8c-0.1,0-0.1-0.1-0.2-0.1l0.1,0.1L74.4,12.8z   M62.7,20.1l0.2-0.3l0.2,0.1L63,20.2l0.2,0.1l0.7,0.1l0.5,0.3l0.1,0.3h-0.8v0.4l0.4,0.3l-0.5,0.2l0.2,0.2l1.1,0.2l-0.5,0.1L63.8,23  l0.3,0.1l0.3-0.2h0.5l0.3-0.3l0.3,0.1l0.9-0.2h0.7l0.4-0.3l-0.3-0.3l0.2-0.2l-0.1-0.4l-0.7-0.1L66.4,21l-0.6-0.6l-0.4-0.1l-0.8-0.7  H64l0.2-0.5l-0.1-0.4h-0.6L63,18.8l0.3-0.6l-0.6,0.1h-0.4l-0.2,0.4v0.6l0.4,0.3L62.7,20.1z M61,22.1l0.8,0.1l0.9-0.4l0.2-0.5  l-0.2-0.4l0.1-0.4l-0.7-0.3h-0.4l-0.3,0.3l-0.6,0.4l0.5,0.6L61,22.1z M50.9,12.8l0.5-0.2l-0.2-0.3c0.3,0.1,0.6,0.3,0.9,0.4l0.7-0.1  l-0.2-0.3L52,12.1L51.5,12l0.2-0.1l0.8,0.2v-0.2L52,11.6h0.5l0.5-0.1l0.1-0.1l-0.5-0.2h0.8l-0.6-0.3h0.4L53,10.6l-0.7-0.2l0.5-0.1  h0.5l-0.5-0.2l-0.1-0.4l0.2-0.2l0.3-0.3h-0.7l0.9-0.1L53.5,9l1-0.3l-0.2-0.1h-0.9c-0.4,0-0.9,0.1-1.3,0.1l-0.7,0.1l0.3-0.2l-0.3-0.1  l-0.5,0.1l-0.8-0.1h-1L49,8.4c0.8-0.1,1.7-0.1,2.5-0.1L52,8.2c-0.5,0-1.2-0.1-1.7-0.2c-0.9,0-1.9,0-2.9,0L47,8.1h-0.9l-1,0.2L45,8.4  l0.5,0.2L45,8.5h-0.3l-0.5-0.1l-0.8,0.2l-0.2-0.1c-0.7-0.1-1.5-0.1-2.2,0l-0.1,0.1h-0.4l-1.1,0.2L39,8.9L39.5,9l-0.2,0.1  c-0.7,0.1-1.5,0.1-2.2,0.2l-0.2,0.1l0.4,0.2l1,0.2h-0.6l-0.8,0.1l0.1,0.2l0.2,0.1c0.7,0,1.4,0,2.1,0.1l0.6,0.3l-0.1,0.2l0.1,0.2  c0.1,0.2,0.1,0.5,0.2,0.7l0.1,0.2l-0.6,0.4l0.2,0.1h0.4c0.2,0.1,0.5,0.3,0.7,0.4l-0.7-0.1h-0.3l-0.3,0.2l-0.2,0.3l0.4,0.2l0.4-0.1  c0.3-0.1,0.5-0.1,0.8-0.2l-0.3,0.3l-0.2,0.2l-0.7,0.1l-0.7,0.5l0.2,0.2L39,14.7l0.4,0.5l-0.1,0.4l0.1,0.3l0.2,0.6l0.1,0.5l0.4,0.3h1  l0.6,0.4h0.7c0.2-0.3,0.5-0.6,0.7-0.9L43,16.4l0.9-0.4l0.3-0.3l0.1-0.3l0.5-0.3c0.4-0.1,0.9-0.1,1.3-0.2h0.3l1-0.3l0.7-0.5l0.5-0.2  h0.5l1.3-0.2c0.7-0.2,1.4-0.4,2.2-0.9C52,12.8,51.5,12.8,50.9,12.8z M56.3,14.5h-0.7l-0.7,0.3l-0.6-0.1L53.7,15l-0.8-0.3l-0.7,0.1  l-0.3,0.3l1,0.1v0.1l-0.8,0.1l1,0.2l-0.4,0.2c0.7,0.1,1.3,0.1,2,0.2c0.6-0.2,1.1-0.3,1.7-0.5l0.5-0.4l-0.6-0.3V14.5z M17.5,42.6  l0.4,0.1l0.3,0.1l0.4-0.1l0.1-0.2l-0.4-0.3l-0.4-0.1l0.1-0.2l-0.3-0.2h-0.2c-0.3-0.3-0.5-0.7-0.8-1h-0.5l-0.1-0.3l-0.4-0.3h-0.4  L14.9,40l-0.1,0.1h-0.4l-0.3,0.1l-0.2,0.1l-0.2,0.3l-0.3,0.2l0.2,0.1l0.2-0.1l0.1-0.2h0.2l0.4-0.3l0.5,0.1l-0.2,0.2l0.2,0.1l0.6,0.2  l0.2,0.2l0.4,0.2h0.3v0.4l0.1,0.2l0.3,0.1l0.2,0.2l-0.4,0.4H17.5z M94.4,47l-0.1,0.2l-0.2,0.2l-0.2,0.3h-0.1l-0.1-0.3L93.6,47  c-0.1-0.1-0.1-0.2-0.2-0.3l0.1-0.2v-0.1h-0.1L93.3,46v-0.2c-0.2-0.3-0.3-0.7-0.5-1l-0.5-0.6l-0.2-0.3l-0.2-0.7l-0.3-0.8  c-0.2-0.1-0.3-0.3-0.4-0.4c-0.2-0.5-0.4-1.1-0.5-1.6v-0.1l-0.3-0.7l-0.1-0.1l-0.5-0.6l-0.1-0.5v-0.1l-0.5-0.7  c-0.5-0.9-1-1.7-1.5-2.5l-0.4-0.7v-0.1l0.6,1c0.1,0.2,0.3,0.3,0.4,0.5v-0.1v-0.4l-0.1-0.5v-0.2l0.1,0.3l0.1,0.2l0.1,0.4h0.2L89,36  l0.4,0.6l0.3,0.5l0.1,0.1l0.2,0.2v0.2l0.2,0.4l0.2,0.1l0.2,0.3l0.4,0.8l0.1,0.4l0.2,0.5l0.3,0.7l0.1,0.1l0.3,0.5l0.2,0.6l0.2,0.6  l0.2,0.2l0.1,0.3l0.1,0.2v0.3l0.1,0.5v0.2l0.1,0.3l0.1,0.3l0.1,0.5l0.1,0.2v0.2l0.1,0.2l0.1,0.2v0.2h0.1l0.1-0.1h0.1v-0.2V46v-0.2  v-0.1v-0.4l0.1-0.2l0.1-0.4h0.1l0,0c-0.4-3.2-1.1-6.3-2.1-9.3l0,0l-0.1-0.2l-0.1-0.1c-0.1-0.4-0.3-0.7-0.5-1.1v-0.2l-0.2-0.3h0.1  l-0.1-0.3l0.1,0.1c-0.7-1.8-1.5-3.5-2.5-5.1c-0.2-0.2-0.3-0.4-0.4-0.6v0c-0.3-0.6-0.7-1.2-1.1-1.8c-0.2-0.2-0.4-0.5-0.6-0.7  l-0.3-0.4l-0.5-0.5l-0.3-0.7l0.1-0.1c-3-4.1-6.7-7.6-11-10.4l0.2,0.2l-0.3-0.1h-0.2l0.2,0.5l0.5,0.3V14l-0.8-0.2l0.1,0.2l0.4,0.2  l0.2,0.3l-0.3-0.1l-0.4-0.1l-0.8-0.7l-0.7-0.3l0.1-0.1c0.3,0.1,0.8,0.1,1.2,0.2l0.1-0.2l-0.1-0.3l-0.4-0.3l-0.4-0.2l-1.2-0.3h-0.6  l-0.6-0.2v0.2l-0.6-0.2l-0.1,0.2l-1-0.2L68.9,12h-0.4l0.1,0.4h-0.4l-0.4,0.2l-0.2,0.6l-0.2,0.4v0.9l-0.1,0.7l-0.4,0.5l-0.8,0.5  l-0.2,0.3l0.9,1.1l0.5,0.5l0.8,0.2l0.5-0.2l0.4-0.7l0.5,0.3c0.5,0.5,1.1,0.9,1.6,1.3l0.5,0.5l0.5-0.1L72,19h0.5l-0.1-0.5l-0.5-0.9  l0.3-0.2l-0.1-0.6l-0.6-0.2L71,16.3l-0.3-0.7l0.2-0.5l0.1-0.4l-0.3-0.3v-0.3l0.3-0.2l0.5,0.2l0.2,0.2l-0.1,0.1L71.5,15v0.3l0.1,0.3  l0.6,0.4l0.4,0.5l0.4,0.1l0.4,0.3l0.4-0.2l0.3-0.2l0.5-0.1l0.5,0.2v0.3L74.8,17h-0.4l-0.3,0.1l-0.3,0.2l0.3,0.3l0.4,0.2l0.1-0.1  c0.2,0.2,0.3,0.5,0.5,0.7h-0.2L74.3,18l-0.2,0.2l0.1,0.3l0.3,0.4l0.3,0.7l-0.4,0.2l0.1,0.2h-0.4L74,19.9l-0.4-0.1  c-0.3,0.1-0.5,0.3-0.8,0.5l-0.2,0.2l-0.3-0.2l-0.6-0.2l-0.1,0.2l-0.4,0.1l-0.1-0.2l-0.5-0.1l-0.1-0.2l-0.3-0.3l0.1-0.4h0.2V19  l-0.3-0.1l-0.1-0.1v-0.2l-0.2-0.3l-0.2,0.2l-0.1,0.2l-0.4,0.1V19v0.1l0.3,0.5l0.4,0.3h0.2l0.2,0.2l-0.2,0.3l-0.2-0.1l-0.4,0.1v0.1  h-0.4l-0.5,0.3v0.9l-0.2,0.2c-0.3,0.1-0.5,0.2-0.8,0.3v0.5l-1.1,0.5L65.9,23l0.4,0.7l-1-0.1l-0.7,0.2l0.2,0.4l1,0.2l0.6,0.5l0.8,0.6  l0.3,1.2l-0.2,0.4h-1l-0.5,0.1l-0.7-0.1h-0.8L63.5,27l-0.8,0.5l0.3,0.3l0.1,0.5l0.1,0.2l0.2,0.2l0.1,0.3l-0.1,0.4v0.3l-0.2,0.2v0.4  l0.2,0.2h0.3l0.1,0.4v0.5l0.4-0.1l0.4,0.1l0.2-0.2l0.6,0.1l0.3,0.4l0.3,0.2h0.3h0.1l0.4-0.3c0.5-0.1,1-0.1,1.5-0.1l0.3-0.5l0.5-0.2  v-0.4l0.3-0.3L69,29.7l0.1-0.5l0.3-0.4v-0.2l0.7-0.2l0.4-0.5l-0.2-0.4l-0.1-0.4l0.8-0.3l1.2,0.1l0.4-0.4l0.2-0.1l0.3-0.3l0.2-0.1  l0.5,0.2l0.3,0.1l0.4,0.6c0.3,0.2,0.7,0.5,1.1,0.7l0.5,0.3h0.4l0.3,0.2h0.3l0.3,0.3l0.2,0.1c0.2,0.3,0.4,0.5,0.6,0.7v0.1v0.4  c0,0.1,0.1,0.1,0.1,0.2l0.4-0.2v-0.6l0.2-0.1l-0.1-0.3l-0.4-0.2v-0.4l0.4,0.1l0.4,0.3v-0.2l-0.1-0.1l-0.5-0.3  c-0.3-0.2-0.6-0.3-0.9-0.4l0.1-0.1l-0.2-0.1h-0.4l-0.8-0.5l-0.5-0.5L75.3,26L75,25.7v-0.2l-0.2-0.3l0.3-0.2l0.4,0.1l-0.1,0.1  l0.1,0.2l0.2,0.2v-0.3l0.3,0.1l0.1,0.2l0.3,0.2l-0.1,0.1l0.6,0.4l0.5,0.1l0.4,0.2c0.3,0.1,0.5,0.2,0.8,0.3l0.2,0.3h0.1l0.1,0.1v0.2  l0.2,0.4l0.3,0.3l0.3,0.2l-0.1,0.2h0.1l0.1,0.2c0.2,0.2,0.5,0.4,0.7,0.6l0.3,0.4l0.4,0.5l0.5,0.2h0.3l-0.4-0.6L82,30l-0.3-0.3  l0.5,0.1L82,29.4l-0.3-0.2l-0.4-0.3l0.1-0.2l-0.3-0.3L80.8,28v-0.1l0.3,0.2c0.1,0,0.1,0,0.2,0l0.2-0.1l-0.4-0.3l0.4-0.2h0.2h0.2  l0.1,0.1l0.3,0.3l0.2-0.3v-0.2l0.4-0.1v-0.2l-0.4-0.2l-0.2-0.2L82,26.4l-0.1-0.5v-0.3l-0.3-0.7h0.1v-0.1l-0.1-0.2v-0.5l-0.1-0.3  l0.2-0.1l0.2,0.2l0.5,0.2l0.2,0.1l-0.1,0.2v0.1l0.4,0.1l0.1,0.3l0.2,0.1l0.2-0.4l0.2-0.2l-0.1-0.2l-0.2,0.1l-0.2-0.1l-0.3-0.4  l0.2-0.2l0.2-0.1v-0.2l0.2-0.1l0.1-0.1l0.1,0.1l-0.2,0.3l0.3,0.2l0.1,0.5l-0.1,0.1l0.4,0.3l0.4,0.2l0.6,0.4l0.2,0.2h0.2l0.3,0.2  l0.3,0.4l0.1,0.3l-0.1,0.4h-0.2l-0.2,0.2l-0.5-0.2l-0.7-0.4L84,26.4l-0.2,0.2l-0.2,0.5h-0.7l0.1,0.5l-0.5,0.1l-0.1,0.7l0.4,0.3  l0.1,0.5l0.4,0.3l0.5,0.6l0.3-0.1l0.5,0.3l0.2-0.1v-0.3h0.4l0.7,0.4l0.4-0.2v-0.4l0.3,0.1l0.1-0.1V30l0.2,0.3l0.1,0.3l0.3,0.5  l0.1,0.5l0.1,0.6v0.2l0.1,0.5v0.3v0.2l-0.1,0.2h-0.3l-0.3-0.1v0.2l-0.2-0.3h-0.3l-0.3,0.1L86,33.7L85.8,34c-0.4-0.2-0.7-0.3-1.1-0.4  l-0.5,0.1L84,33.5h-0.4l-0.2-0.1h-0.2l-0.3-0.3L82.3,33L82,33.1l-0.2,0.4v0.3l0.3,0.6L82,34.7l-0.2,0.2L81,34.6l-0.8-0.2l-0.5-0.1  l-0.4-0.6l-0.8-0.2L78,33.4l-0.2,0.1l-0.7-0.2l-0.2-0.1l-0.2-0.3h-0.3l-0.2-0.4l0.3-0.4l-0.1-0.6l-0.2-0.2L76.1,31l0.2-0.3l-0.1-0.1  l-0.4,0.3l-0.2-0.3l-0.4-0.1l-0.5,0.3l-0.4,0.1L74,30.8h-0.6l-0.5,0.3L72.6,31c-0.7,0.1-1.3,0.2-2,0.3L70,31.5l-0.3,0.3L69,32  l-0.5,0.4h-0.3l-0.7-0.1l-0.6,0.1l-0.5-0.3h-0.5l-0.1,0.4l-0.3,0.7L65,33.5l-0.6,0.3L64,34.3v0.4l-0.2,0.6l0.2,0.9l-0.5,0.6L63.2,37  l-0.5,0.5L62,37.6l-0.3,0.3l-0.4,0.7l-0.5,0.3l-0.2,0.5v0.4l-0.2,0.4l-0.2,0.1l-0.4,0.5l-0.2,0.5l0.1,0.2l-0.2,0.4l-0.3,0.2  c0,0.3,0,0.5,0,0.7l0.4,0.3l0.2,0.3l-0.1,0.4l0.1,0.4l0.4,0.8l-0.1,0.7l-0.2,0.4l0.1,0.4l-0.2,0.4l-0.4,0.5l-0.3,0.2l0.4,0.3  l0.3,0.6l-0.1,0.3c0.1,0.2,0.1,0.5,0.2,0.7l0.2,0.2v0.1l0.2,0.2h0.3l0.4,0.3l0.2,0.1l0.1,0.2l0.1,0.3l0.2,0.1l0.2,0.1l0.3,0.4  l0.3,0.4l0.1,0.5l0.1,0.3l0.4,0.4l0.6,0.3l0.2,0.1l0.5,0.4l0.7,0.4l0.7,0.6l0.8,0.5h0.2h0.1c0.5-0.2,0.9-0.4,1.3-0.6l0.9-0.2h0.5  l0.5,0.1h0.3l0.7,0.2l0.7-0.3l0.4-0.3l1.1-0.5l0.6-0.2l0.6-0.1c0.3,0,0.7-0.1,1.1-0.1l0.5,0.5l0.2,0.5l0.4,0.5h0.5l0.2-0.2h0.2  l0.7-0.3v0.2l0.2,0.1l0.1,0.3l0.3,0.1l0.5,0.7l-0.1,0.6l-0.3,0.9l0.1,0.1c-0.2,0.4-0.3,0.7-0.4,1.1l-0.2,0.2V59l0.3,0.7l0.3,0.6  l0.5,0.7l0.4,0.7c0,0.3,0,0.6,0.1,0.8l-0.1,0.1l0.2,0.4c0,0.3,0.1,0.7,0.1,1.1L80,64.4l-0.1,0.2c0,0.2,0.1,0.5,0.1,0.8l0.1,0.2  L80,66l-0.2,0.5l-0.2,0.3l-0.4,0.5L79,67.6l-0.3,0.6l-0.1,0.3l-0.4,0.6L78,69.7l-0.1,0.4l-0.1,0.5l0.4,0.9c0,0.3,0,0.7,0,1.1  l0.1,0.5l0.1,0.2l-0.1,0.3L78,74.3l-0.2,0.9l-0.1,0.4l-0.2,0.6v0.4l0.1,0.4c0,0.6-0.1,1.1-0.1,1.7l-0.2,0.4l-0.2,0.1L77,79.6  l-0.2,0.3V80l0.1-0.2V80H77v0.2h0.2l0.4-0.2l0.4-0.1l0.6-0.3h0.1l0.3-0.1l0.3,0.1l0.2-0.1l0.2,0.1l0.1-0.2l0.4,0.1l0.5-0.3l0.4-0.3  c0.4-0.3,0.8-0.7,1.2-1c0.3-0.4,0.6-0.8,1-1.1c0.2-0.1,0.3-0.3,0.5-0.4l0.2-0.3c0.2-0.5,0.5-0.9,0.8-1.3h-0.1l0.1-0.3l0.3-0.3  c0.3-0.2,0.6-0.4,0.9-0.6l0.2-0.2l0.2-0.3V73l0.2-0.3l0.3-0.6h-0.1l0.1-0.2l0.1-0.3l0.1-0.5l0.2-0.5l0.2-0.2l0.4-0.5h0.2l0.6-0.8  c0.3-0.2,0.5-0.5,0.8-0.7l0.3-0.5c0.2-0.3,0.3-0.7,0.5-1l0.2-0.5c0.2-0.8,0.5-1.6,0.7-2.4v-0.3l-0.1-0.1l0.1-0.7v-0.4l0.1-0.3V62  l0.2-0.5v-0.2l-0.1-0.2l0.1-0.4l0.3-0.9l0.2-0.3l0.1-0.5l0.1-0.3l0.1-0.5l0.1-0.1l0.1-0.3l0.2-0.3l0.1-0.2l0.1-0.3  c0.3-0.9,0.6-1.7,1-2.5l0.2-0.7c0.1-0.5,0.2-0.9,0.3-1.4c0-0.8,0.1-1.6,0.1-2.4C94.5,49,94.5,48,94.4,47z M90.7,67.6l-0.2,0.2  l-0.1,0.1l-0.2,0.4L90,68.7c-0.2,0.4-0.4,0.9-0.5,1.3l-0.2,0.4L89,70.9l-0.1,0.2l-0.1,0.1l-0.3,0.5c-0.1,0.3-0.3,0.6-0.4,0.9  l-0.3,0.6l-0.1,0.3c0,0,0,0,0,0.1c1.2-1.9,2.3-4,3.2-6.1h-0.1L90.7,67.6z M27,11.9L27,11.9c-0.1,0-0.2,0.1-0.4,0.2h0.1L27,11.9z   M20,44.6l0.3-0.5l0.2-0.1l0.1,0.2h0.2l0.1-0.1h0.2h0.3l0.3,0.2l0.5-0.3l-0.3-0.3h-0.3v-0.2h-0.3l-0.1-0.3H21L20.7,43h-0.5l-0.1,0.1  l-0.5-0.2l-0.3-0.1L19.1,43l0.3,0.1v0.3l0.2,0.3l-0.2,0.2c-0.3,0-0.6-0.1-0.9-0.2l-0.1,0.2l0.2,0.2l0.3-0.1l0.3,0.1h0.3l0.4,0.2v0.2  L20,44.6z M31.8,88.9L31.8,88.9l0.9,0.5c0.4,0.1,0.8,0.3,1.2,0.4l0.4,0.1l0.2,0.1l0.4,0.1L35,90v-0.1l0.4,0.1l0.4,0.1v-0.2l-0.6-0.1  l-0.7-0.2c-0.3-0.2-0.5-0.4-0.8-0.5L33.4,89l-0.2,0.1l0.2,0.2v0.2L33,89.4l-0.2,0C32.4,89.2,32.1,89,31.8,88.9z M40.5,92.4l-0.1,0.1  l-0.1,0.1h-0.2H40l-0.1,0.1h-0.2l-0.1,0.1v0.1l0.1,0.1l-0.1,0.1v0.1v0.1c0.2,0,0.4,0.1,0.6,0.1v0v-0.1v-0.1h0.2h0.1l-0.2-0.1  L40.1,93L40,92.9v-0.1c0.1,0,0.1-0.1,0.2-0.1h0.2h0.3h0.1l0.2-0.1v-0.1l-0.3-0.1H40.5z M45.1,62.6h-0.7l-0.6-0.2l-1-0.8L41.7,61  h-1.1l-1.5-0.4l-0.9,0.2l0.1-0.4L37.9,60c-0.7-0.3-1.5-0.6-2.2-0.8l-0.5,0.5L35.1,59l-1.3-0.2l-0.2-0.2l0.5-0.6v-0.5l-0.4-0.1  l-0.4-1.3l-0.2-0.4h-0.2l-0.1-0.3L32,54.7c-0.3-0.1-0.5-0.2-0.8-0.3l-0.8-0.2h-0.6l-0.1,0.1l-0.8-0.2c-0.2-0.2-0.4-0.5-0.6-0.7H28  V53l-0.4-0.5c-0.2-0.2-0.5-0.3-0.7-0.5h-0.4l-0.1-0.6L25.9,51l-0.5-0.1l-0.2-0.4l0.6-0.2c-0.5,0-1.1,0-1.6,0v0.2l-0.4,0.2l-0.5-0.1  l-0.4-0.4h-0.7h-0.6v-0.3l-0.4-0.5h-0.4l-0.2-0.6L20.4,49l0.1,0.4l-0.8,0.3v0.6l0.2,0.3l-0.1,0.6h-0.3l-0.2-0.6l0.3-0.4v-0.4  l-0.2-0.4l0.4-0.1v-0.2l0.1-0.3l-0.1-0.2l-0.2-0.1l-0.3,0.3c-0.2,0.1-0.5,0.3-0.7,0.5l-0.4-0.1l-0.1,0.2h-0.4l-0.3,0.3l-0.1,0.6v0.3  l-0.2,0.1l-0.4,0.5h-0.3L16.2,51L16,50.8l-0.2-0.2l-0.3-0.1v-0.1l-0.3-0.1L15,50.5l-0.3,0.1l-0.2,0.2h-0.3l-0.1-0.2v0.1l-0.2-0.1  v-0.2c-0.2-0.3-0.4-0.7-0.6-1L13.2,49l-0.1-0.1v-0.2l0.1-0.2v-0.2l0.1-0.3l0.1-0.1v-0.3v-0.2v-0.3l0.1-0.3l0.1-0.2v-0.3v-0.2V46  l-0.1-0.2l-0.2-0.1l-0.1-0.2l-0.1-0.2H13l-0.2-0.1l-0.1,0.1h-0.1l-0.1-0.1l-0.1-0.1l-0.1,0.1l-0.2,0.1h-0.2l-0.2-0.1h-0.1v-0.1h-0.1  l-0.1,0.1c-0.1,0-0.2,0-0.2-0.1l-0.1,0.1L11,45l0.1-0.2h0.1l0.1-0.2l0.1-0.4v-0.1l0.1-0.3v-0.1l0.1-0.3v-0.2h-0.1v-0.1h0.1l0.1,0.2  c0.1-0.3,0.2-0.6,0.3-0.9l-0.1-0.1l0.2-0.4l0.4-0.3l0.1-0.4L12.5,41h-0.3l-0.4-0.1L11.4,41l-0.3,0.2L11,41.4L10.8,42l-0.2,0.4  l-0.3,0.3c-0.2,0.1-0.4,0.1-0.6,0.2H9.4l-0.2,0.2l-0.1-0.3l-0.3-0.3l-0.1-0.4v-0.4l-0.1-0.6l0.1-0.6v-0.4v-0.4  c0.2-0.4,0.3-0.9,0.4-1.3l0.2-0.5l0.3-0.6V37c0-0.3,0.1-0.5,0.2-0.8l0.2-0.3l0.3-0.4l0.4-0.2l0.5-0.5l0.3-0.1h0.2l0.2,0.2h0.3  l0.1,0.3l0.3,0.1l0.2-0.1l0.2,0.2l0.1-0.1v-0.1l0.1-0.3v-0.2l0.2-0.1h0.3l0.3,0.1h0.5l0.2,0.2v0.3h0.1l0.6-0.2l0.1,0.1l0.2,0.6v0.4  l-0.2,0.5v0.3c0.1,0.4,0.1,0.8,0.2,1.2l0.1,0.2v0.3l0.2,0.1l0.2-0.1l0.2-0.4c0.1-0.3,0.1-0.5,0.2-0.8v-0.8l0.1-0.3l-0.1-0.5v-0.6  l0.1-0.5l0.2-0.5l0.4-0.4l0.4-0.3l0.7-0.4l0.1-0.2l0.1-0.2h0.3l0.5-0.4l0.6-0.2l0.5-0.5l0.2-0.7v-0.2l-0.1-0.1l0.2-0.6l-0.2-0.2  l0.3,0.1l0.1-0.3l0.2-0.3L21,29.8l0.2,0.3l-0.3,0.4c0.2-0.2,0.4-0.5,0.7-0.7l0.1-0.2l-0.1-0.1v-0.4l0.1,0.2h0.1v0.2l0.6-0.5l0.3-0.5  h-0.1l0.2-0.2v0.1h0.3l0.8-0.1l-0.1-0.1L23,28.3l0.5-0.2c0.1,0,0.3,0,0.5,0l0.4-0.1h0.2l0.4-0.1l0.1-0.2L25,27.5v0.2h-0.2v-0.3  l0.1-0.4c0.2-0.2,0.4-0.3,0.6-0.5c0.4-0.1,0.8-0.2,1.2-0.3l0.7-0.3v-0.2H28h0.8l-1.1,0.5l-0.2,0.5l0.4,0.1l0.8-0.4l0.6-0.2l1.3-0.3  l1.1-0.4l-0.3-0.2l0.1-0.4l-0.8,0.7h-0.9l-0.6-0.3v-0.5l0.1-0.7l0.7-0.4l-0.3-0.3h-0.8l-1.3,0.4l-1.1,0.7L26,24.6  c0.7-0.4,1.3-0.9,1.9-1.3l0.7-0.2l0.6-0.4h0.5h0.7l1,0.2h0.9l0.9-0.4l0.9-0.2c0.3-0.1,0.6-0.3,0.9-0.4l0.2-0.6l-0.1-0.2L34.7,21  v-0.5l-0.2-0.2l-0.7-0.2l-0.3-0.3L33,19.5l0.4-0.3c-0.2-0.5-0.3-1-0.4-1.4l-0.1-0.5l-0.4,0.2L31.7,18l-0.8,0.3L30.8,18l-0.3-0.1  l0.3-0.7l0.3-0.5l-0.7-0.1v-0.2l-0.2-0.3L30,15.9L29.6,16l-0.3-0.1l-0.5-0.2l-0.3,0.1L28,16.6l-0.2,0.5L27,17.6l0.1,0.4L27,18.5  l-0.2,0.4l-0.5,0.4l-0.7,0.3l-0.8,0.2v0.3L24.4,21l-0.6,0.6l-0.4,0.2l-0.2-0.6l0.2-0.7l0.3-0.6l0.3-0.4l-0.3-0.1l-0.5-0.1L23,19  l-0.3-0.2v-0.3l-0.1-0.2L22.3,18h-0.5l0.4-0.4l0.3-0.5L22.2,17l0.6-0.6l0.5-0.4l0.8-0.5l0.7-0.3h0.3l0.3-0.3l0.4-0.2h0.4l0.6-0.3  l0.3-0.2l0.7-0.3l0.3-0.2l0.1,0.2h0.5l0.5-0.3l0.3-0.2l0.1-0.3l0.5-0.2l0.2-0.2l-0.1-0.2l-0.3-0.1l-0.3-0.1L29,12.8l-0.6,0.3  l-0.6,0.3l0.1-0.3l0.5-0.3l0.1-0.3l-0.7,0.3l0.5-0.4L28,12.3l0.4-0.2l0.4-0.5l0.1-0.2l-0.1-0.1l-0.6,0.2l-0.6,0.4v0.2l-0.1,0.3  l-0.6,0.4h-0.1l-0.6,0.3l0.5-0.4l-0.1-0.2h-0.2l-0.3,0.3l-0.2-0.1h-0.2c-9.2,6-16.1,15.4-18.9,26.4c0,0.1,0,0.2,0,0.2v0.2v0.3  l-0.1,0.3l-0.1,0.2v0.2l-0.1,0.1V41v0.5L6.6,42v0.4l0.2,0.3H7v0.2l0.1,0.4l0.2,0.4l0.2,0.2l0.2,0.4l0.2,0.2l0.2,0.2h0.2l0.3-0.2h0.2  L9,44.7L9.2,45l0.3,0.9l0.2,0.3l0.2,0.2h0.2l0.2,0.2l0.1,0.2l0.2,0.1l0.2,0.1l0.1,0.2h0.3l0.1-0.2l0.1,0.1l0.1,0.2v0.1l-0.1-0.1  l-0.1,0.1l0.2,0.4l0.2,0.3l0.1,0.3c0.1,0.2,0.2,0.4,0.3,0.6L12,49.1l0.1,0.1L12,49.4v0.2l0.1,0.2l0.1,0.1l0.1,0.1l0.1-0.2v-0.2  l0.1,0.2V50l0.2,0.1l0.2,0.2l0.1,0.2v0.2l-0.1,0.1L13,51l0.3,0.2l0.1,0.1v-0.2c0.1,0,0.1,0,0.2,0l0.1,0.1l0.2,0.1l0.1,0.3l0.2,0.1  l0.1-0.1l0.1,0.5h0.2l0.1-0.1l0.1-0.1l-0.2-0.3l0.1-0.2h0.1l0.2-0.2l0.1-0.3h0.2l0.3,0.2l0.1,0.3l0.1,0.1l-0.1,0.2l0.1,0.4l0.2,0.2  l0.2,0.4l0.1,0.7l-0.1,0.2l0.1,0.7l-0.1,0.4l0.2,0.2c-0.1,0.2-0.3,0.5-0.4,0.8h-0.3L15.6,56v0.4h-0.2l0.1,0.2l-0.3,0.3L14.9,57  l0.1,0.3l-0.2,0.5v0.5l-0.2,0.1l0.2,0.7l-0.1,0.2l0.3,0.4l0.2-0.3l0.2,0.3l-0.2,0.5l-0.3,0.4l-0.1,0.5l0.2,1l-0.1,0.3l0.4,0.3  l0.5,0.5l0.3,0.5l0.3,0.3c0.7,1.3,1.4,2.5,2.3,3.7v0.2l0.4,0.6l0.5,0.4l1.2,0.8l1.3,0.7l0.1,0.3l0.7,0.4c0.3,0.7,0.6,1.3,0.8,2  c0.3,0.8,0.5,1.7,0.7,2.6l0.4,1.1v0.7l0.4,0.7l0.1,0.5l0.5,0.8l0.2,0.8l0.2,0.8l0.2,0.8h-0.2l0.4,0.6l0.5,0.5v0.3  c0.3,0.6,0.6,1.1,0.9,1.6l0.3,0.2L28,84.5l0.4,0.1l0.5,0.9l-0.6-0.2l0.5,0.7v0.4l0.7,0.2l-0.1,0.3l0.3,0.4l0.7,0.7l0.4,0.3l0.2,0.2  l0.4,0.3c0.1,0,0.2,0.1,0.3,0.1l0.4,0.1l0.7,0.3l0.1,0l0.3,0.1h0.1L33,89.1l0.2-0.1l0.1-0.1h0.3h0.2l-0.5-0.2l-0.5-0.4v-0.2L33,88  l-0.2-0.5l0.2-0.3l-0.2-0.4l-0.5-0.1l-0.6-0.3l-0.1-0.3l0.2-0.2l0.4,0.1l-0.1-0.2l-0.2-0.5l0.2-0.3l0.3-0.1l-0.3-0.2l-0.2,0.1  l-0.4-0.2l-0.4-0.5l0.1-0.1l0.6,0.2h0.4l0.2-0.2l-0.2-0.2l-0.1-0.4l-0.3-0.3l0.6,0.1l1-0.1l0.6-0.2l0.3-0.6L34.2,82l-0.4-0.2  l-0.1-0.4l-0.9-0.5v-0.2l0.4,0.3h0.4l0.6,0.2h0.3l0.4,0.1l0.5-0.3l0.1-0.3l0.3-0.3l0.1-0.5l0.3-0.3l0.4-0.4l0.4-1l0.4-0.3l0.2-0.1  v-0.6l-0.2-0.3v-0.4l0.4-0.6l0.7-0.5l0.7-0.2l0.4-0.3l1-0.2c0.2,0,0.5,0,0.7,0l0.1-0.4l0.5-0.3v-0.6l0.6-0.8v-0.9l0.2-0.3  c0.1-0.4,0.1-0.9,0.2-1.4l-0.1-1.3l0.2-0.4h0.2l0.5-0.6l0.4-0.8l1-1l0.4-0.6l0.3-1.2c-0.1-0.4-0.3-0.8-0.4-1.3L45.1,62.6z M28,15.3  l0.6-0.1L28.5,15h-0.3l0.2-0.2l-0.2-0.2L28,14.4v-0.1l-0.2,0.1l0.2-0.2l-0.2-0.1c-0.4,0.3-0.7,0.5-1,0.8L26.2,15h0.4l-0.2,0.3  l0.7-0.2l0.5-0.2v0.2L28,15.3z M77.3,29.9h-0.6l0.1,0.3l0.7,0.3h0.3l0.5,0.2v-0.3l-0.2-0.2v-0.5C77.9,29.8,77.6,29.8,77.3,29.9z"></path></svg>