<svg height='100px' width='100px'  fill="#000000" xmlns="http://www.w3.org/2000/svg" xmlns:xlink="http://www.w3.org/1999/xlink" version="1.1" x="0px" y="0px" viewBox="-1448.809 1296.162 96 96" enable-background="new -1448.809 1296.162 96 96" xml:space="preserve"><path fill="#000000" d="M-1356.278,1358.416c1.188-1.416,1.986-4.674,0.042-7.481c-2.045-2.957-7.877,0.686-8.466,1.07  c-0.141,0.071-12.708,6.372-20.799,8.073c0.196-0.56,0.289-1.257,0.289-2.145c0-2.338-0.409-5.445-3.942-5.445  c-3.768,0-16.4-0.287-20.736-3.977c-4.423-3.763-15.531-2.99-18.704-2.681v-3.546h-17.965v34.429h17.965v-4.285  c3.896,1.492,17.834,6.538,27.983,6.538C-1388.453,1378.967-1364.008,1367.635-1356.278,1358.416z M-1430.094,1375.214h-14.965  v-31.429h14.965V1375.214z M-1428.594,1347.34c2.796-0.272,13.731-1.089,17.732,2.314c4.597,3.912,16.712,4.334,21.708,4.334  c1.236,0,2.442,0.305,2.442,3.945c0,2.713-0.274,2.818-7.326,2.818c-2.845,0-10.67-0.458-12.694-2.549l-1.078,1.043  c2.827,2.922,12.66,3.006,13.772,3.006c2.75,0,4.711-0.005,6.083-0.293l0,0.005c7.928-0.595,23.277-8.292,23.996-8.658  c1.702-1.096,5.527-2.908,6.489-1.518c1.479,2.136,0.899,4.642,0.042,5.664c-7.371,8.791-31.586,20.015-43.183,20.015  c-10.299,0-25.165-5.556-27.983-6.646V1347.34z"></path><path fill="#000000" d="M-1381.428,1321.885c0,7.186,5.846,13.032,13.032,13.032c7.186,0,13.032-5.847,13.032-13.032  s-5.846-13.032-13.032-13.032C-1375.582,1308.853-1381.428,1314.699-1381.428,1321.885z M-1356.864,1321.885  c0,6.359-5.173,11.532-11.532,11.532c-6.359,0-11.532-5.173-11.532-11.532s5.173-11.532,11.532-11.532  C-1362.037,1310.353-1356.864,1315.525-1356.864,1321.885z"></path><path fill="#000000" d="M-1374.814,1319.908h-2.146c-0.414,0-0.75,0.336-0.75,0.75s0.336,0.75,0.75,0.75h1.872  c-0.012,0.158-0.024,0.315-0.024,0.477s0.013,0.318,0.024,0.477h-1.872c-0.414,0-0.75,0.336-0.75,0.75s0.336,0.75,0.75,0.75h2.146  c0.846,2.742,3.403,4.741,6.419,4.741c2.148,0,4.185-1.046,5.448-2.799c0.242-0.336,0.166-0.805-0.17-1.047s-0.804-0.165-1.047,0.17  c-0.982,1.362-2.564,2.176-4.231,2.176c-2.177,0-4.042-1.343-4.822-3.241h4.839c0.414,0,0.75-0.336,0.75-0.75s-0.336-0.75-0.75-0.75  h-5.186c-0.015-0.159-0.048-0.313-0.048-0.477s0.033-0.317,0.048-0.477h5.186c0.414,0,0.75-0.336,0.75-0.75s-0.336-0.75-0.75-0.75  h-4.839c0.781-1.897,2.646-3.239,4.822-3.239c1.652,0,3.173,0.763,4.171,2.094c0.249,0.331,0.72,0.399,1.05,0.149  c0.331-0.248,0.398-0.719,0.15-1.05c-1.285-1.712-3.242-2.693-5.371-2.693C-1371.411,1315.169-1373.968,1317.167-1374.814,1319.908z  "></path><path fill="#000000" d="M-1409.182,1330.753c0,7.186,5.846,13.032,13.032,13.032c7.186,0,13.032-5.847,13.032-13.032  s-5.846-13.032-13.032-13.032C-1403.335,1317.721-1409.182,1323.567-1409.182,1330.753z M-1384.618,1330.753  c0,6.359-5.173,11.532-11.532,11.532c-6.358,0-11.532-5.173-11.532-11.532s5.173-11.532,11.532-11.532  C-1389.791,1319.221-1384.618,1324.394-1384.618,1330.753z"></path><path fill="#000000" d="M-1396.925,1321.766v2.332c-0.658,0.086-1.578,0.44-2.305,1.636c-1.633,2.686,1.542,4.882,2.634,5.636  c1.552,1.067,3.032,2.333,2.247,3.622c-0.348,0.57-0.751,0.875-1.235,0.933c-1.083,0.117-2.433-0.963-2.859-1.394  c-0.29-0.292-0.765-0.298-1.06-0.006c-0.294,0.291-0.298,0.765-0.008,1.06c0.154,0.156,1.229,1.199,2.588,1.643v2.514  c0,0.414,0.336,0.75,0.75,0.75s0.75-0.336,0.75-0.75v-2.326c0.003,0,0.006,0,0.009,0c0.661-0.076,1.604-0.424,2.347-1.643  c1.629-2.675-1.5-4.827-2.722-5.669c-2.114-1.461-2.779-2.568-2.158-3.589c0.347-0.57,0.751-0.876,1.235-0.933  c1.085-0.123,2.432,0.962,2.859,1.393c0.292,0.292,0.766,0.298,1.06,0.006c0.294-0.291,0.298-0.765,0.008-1.06  c-0.156-0.159-1.255-1.232-2.639-1.667v-2.487c0-0.414-0.336-0.75-0.75-0.75S-1396.925,1321.352-1396.925,1321.766z"></path></svg>