<svg height='100px' width='100px'  fill="#000000" xmlns="http://www.w3.org/2000/svg" viewBox="0 0 83 96" x="0px" y="0px"><path fill-rule="evenodd" d="M10.87022,53.1524801 L6.92282496,45.7675251 C6.86956722,45.6678882 6.83357875,45.5599468 6.81638792,45.448285 L0.0328443185,1.38626232 C-0.060419876,0.780471408 0.408271842,0.234100594 1.02119993,0.234100594 L43.4645218,0.234100594 C44.2976338,0.234100594 44.7654434,1.19312866 44.2525951,1.84968201 L43.2430048,3.14188298 L40.4609348,6.84476986 L45.070526,10.7021138 L47.2235492,11.0019223 C47.5678839,11.0498709 47.8626047,11.2732164 48.0018792,11.5917569 L50.4831449,17.2773799 L53.1331089,22.0772815 L57.491073,24.9843746 C57.6385181,25.0827316 57.7571726,25.2185095 57.8348861,25.3778041 L59.3815226,28.5480516 L62.7008109,30.699378 C62.8993365,30.8280481 63.0458149,31.0229354 63.1142165,31.2494076 L64.1875114,34.8030035 L67.0324903,38.6592669 L70.6214452,40.444047 C70.8576908,40.5615315 71.0379325,40.7676211 71.1228983,41.0174119 L72.8549883,46.1095837 C72.871714,46.1587555 72.9864747,47.274743 73.1992705,49.4575461 L75.6501298,51.0911492 C75.8384692,51.2166855 75.9786497,51.4024022 76.0477542,51.6179379 L78.3544377,58.8124405 L82.4291015,61.5218083 C82.9134701,61.8438797 83.0218025,62.5098006 82.6644982,62.9687958 L78.0763102,68.8628085 L75.7160818,77.0553103 C75.6855877,77.1611572 75.6378151,77.2612385 75.5746939,77.3515112 L73.2203517,80.7185727 L72.5637936,87.9216235 C72.5080016,88.533713 71.9184365,88.9510756 71.3225927,88.8002896 L63.6347955,86.8547923 L62.5524764,88.1131299 L63.1375226,91.0395266 C63.1628676,91.1663024 63.1633891,91.2967901 63.1390582,91.4237645 L62.4583859,94.9759458 C62.3681047,95.4470908 61.9559715,95.7877489 61.4762546,95.7877489 L58.6045585,95.7877489 C58.2169303,95.7877489 57.8642192,95.5637343 57.6994266,95.2128796 L56.2786798,92.1880144 L12.5325546,88.827913 C12.0824249,88.7933389 11.7112812,88.4614566 11.6268022,88.0179756 L10.9743586,84.5929061 L8.28266841,79.5182582 C8.1864635,79.3368829 8.14841745,79.1302913 8.1736978,78.9265432 L9.27991715,70.0109202 L7.9139774,66.9784003 C7.82445497,66.7796517 7.80232504,66.557095 7.85095638,66.3446091 L10.87022,53.1524801 Z M41.4236589,2.23410059 L2.18693594,2.23410059 L8.76712641,44.9752576 L12.8103845,52.5395571 C12.924089,52.7522804 12.9570743,52.9989333 12.9032615,53.234059 L9.87549771,66.4633277 L11.2186015,69.4451495 C11.2939067,69.6123345 11.321795,69.7970062 11.2992172,69.978973 L10.1973198,78.8597632 L12.8118856,83.7890083 C12.8587456,83.8773535 12.8920886,83.972228 12.9108019,84.0704651 L13.448347,86.8923632 L57.0127207,90.2385044 C57.371729,90.2660796 57.688194,90.4845298 57.8412691,90.8104368 L59.2396806,93.7877489 L60.6496817,93.7877489 L61.1379527,91.23964 L60.4956589,88.0268908 C60.4353068,87.7250098 60.5173645,87.4121562 60.7181137,87.178759 L62.5220545,85.0814417 C62.7693227,84.7939601 63.1579201,84.6710656 63.5255248,84.7640927 L70.67832,86.5742008 L71.2527228,80.2724707 C71.2685248,80.0991074 71.3293096,79.9328723 71.4290651,79.790207 L73.8403031,76.341776 L76.2078552,68.1238533 C76.2431165,68.0014591 76.3014357,67.8869282 76.3796767,67.7864193 L80.4243727,62.5905795 L76.9554095,60.2839606 C76.7666109,60.1584226 76.6260766,59.9724533 76.5568551,59.7565526 L74.2499801,52.5614529 L71.6939654,50.8577592 C71.4434008,50.6907471 71.2814356,50.4197169 71.2530479,50.119934 L70.9237663,46.6426242 L69.3620806,42.051424 L65.9258084,40.3425727 C65.7837629,40.2719338 65.6605616,40.1685138 65.5663807,40.0408551 L62.4754906,35.8512682 C62.4075865,35.7592267 62.3559763,35.6562178 62.3229058,35.5467238 L61.3055747,32.1784198 L58.0606745,30.0753065 C57.9081744,29.9764668 57.7854912,29.8379387 57.7058095,29.6746096 L56.1560552,26.4979713 L51.8205113,23.6058342 C51.6873098,23.5169787 51.5773926,23.3974368 51.500004,23.2572621 L48.6914525,18.1613097 L46.3935319,12.9056399 L44.5107253,12.6434591 C44.3251553,12.6176184 44.1505773,12.5401644 44.0068888,12.4199246 L38.4497101,7.76963158 C38.0417788,7.42827128 37.9724644,6.8273074 38.2919745,6.402045 L41.4236589,2.23410059 Z"></path></svg>