<svg height='100px' width='100px'  fill="#000000" xmlns="http://www.w3.org/2000/svg" data-name="Layer 1" viewBox="0 0 128 128" x="0px" y="0px"><title>miscellaneous 74 expandlines</title><path d="M93,118A26,26,0,1,0,67,92,26.02948,26.02948,0,0,0,93,118ZM73.16035,82.49786l2.972.49969.75879,4.06641-3.71533,3.30371-2.00824-1.03552A21.82629,21.82629,0,0,1,73.16035,82.49786Zm10.99731,29.6405a22.06542,22.06542,0,0,1-6.1875-4.09418l1.01422-2.34937L83.95509,106l2.01563,4.03174Zm15.87164-2.10663L102.04493,106l4.9707-.30518,1.01422,2.34937a22.06512,22.06512,0,0,1-6.18744,4.09418Zm14.80316-20.69958-2.00824,1.03552L109.10889,87.064l.75879-4.06641,2.972-.49969A21.82629,21.82629,0,0,1,114.83247,89.33215ZM96.48261,70.27844l.4881,2.89294L93.06885,75.04l-4.05078-2.25439.4126-2.395c.00568-.033.00287-.06506.00684-.0979a21.87081,21.87081,0,0,1,7.0451-.01428Zm-11.2912,1.15826-.356,2.06769a2.00032,2.00032,0,0,0,.99854,2.08691l6.19336,3.44678a1.99939,1.99939,0,0,0,1.83643.05615l6.19336-2.96582a1.99962,1.99962,0,0,0,1.1084-2.13623l-.43634-2.58685a22.10613,22.10613,0,0,1,9.873,7.41272l-2.776.46661a2.00075,2.00075,0,0,0-1.63477,1.60547l-1.22217,6.55078a2.0006,2.0006,0,0,0,.63721,1.86133l5.58545,4.9668a2.00084,2.00084,0,0,0,2.24561.2832l1.4837-.765a21.862,21.862,0,0,1-3.97687,10.91675l-.81348-1.88416a1.99255,1.99255,0,0,0-1.9585-1.20312l-7.52344.46143a1.99965,1.99965,0,0,0-1.6665,1.10156L95.856,109.43311a2.00057,2.00057,0,0,0,.27344,2.19922l1.59381,1.85162a21.87277,21.87277,0,0,1-9.44641,0l1.59381-1.85162a2.00057,2.00057,0,0,0,.27344-2.19922l-3.12646-6.25342a1.99965,1.99965,0,0,0-1.6665-1.10156l-7.52344-.46143a1.98955,1.98955,0,0,0-1.9585,1.20313l-.81348,1.88416A21.862,21.862,0,0,1,71.0788,93.78723l1.4837.765a2.00084,2.00084,0,0,0,2.24561-.2832l5.58545-4.9668a2.0006,2.0006,0,0,0,.63721-1.86133L79.8086,80.89014a2.00075,2.00075,0,0,0-1.63477-1.60547l-2.776-.46661A22.1076,22.1076,0,0,1,85.19141,71.43671Z"></path><path d="M86.78321,99.55811a1.99943,1.99943,0,0,0,1.91064,1.40967h8.6123a1.99943,1.99943,0,0,0,1.91064-1.40967l2.66162-8.61279a1.999,1.999,0,0,0-.69678-2.17969l-6.96777-5.32275a1.99848,1.99848,0,0,0-2.42773,0l-6.96777,5.32275a1.999,1.999,0,0,0-.69678,2.17969ZM93,87.54883l4.645,3.54834-1.814,5.87061H90.169l-1.814-5.87061Z"></path><path d="M86.78809,32a9.41084,9.41084,0,0,0,4.9007-1.35217,9.75495,9.75495,0,0,0,6.08368,5.61633c2.6626,9.92773-5.02686,21.65869-5.10791,21.78027a1.99989,1.99989,0,0,0,3.32764,2.21924c.38672-.57861,9.41406-14.30859,5.249-26.32324a2.02776,2.02776,0,0,0-1.57764-1.32031,5.67335,5.67335,0,0,1-4.67285-5.20947,2.00438,2.00438,0,0,0-.07031-.35083,7.22418,7.22418,0,0,0,.6543-2.99341,2,2,0,0,0-4,0C91.57471,26.23535,89.42725,28,86.78809,28,84.148,28,82,26.23535,82,24.06641a4.15678,4.15678,0,0,1,3.437-3.74963c.02466.0033.0473.0119.07227.01428a3.61876,3.61876,0,0,1,2.1958,1.021,1.99989,1.99989,0,1,0,3.15918-2.45312,6.43568,6.43568,0,0,0-2.65253-1.95642,4.3171,4.3171,0,0,1-.41339-1.80676c0-2.83643,2.76855-5.144,6.17139-5.144.01563,0,.03082.00214.04645.00226a1.99036,1.99036,0,0,0,1.27875.91962,3.05412,3.05412,0,0,1,1.73438,1.18848,1.99986,1.99986,0,1,0,3.5625-1.81836,5.57623,5.57623,0,0,0-1.07269-1.44623,1.98813,1.98813,0,0,0-.04449-.58014,2.95057,2.95057,0,0,1-.07568-.66846C99.39893,5.60986,101.36866,4,103.79,4c2.42236,0,4.39307,1.60986,4.39307,3.58887a2.97813,2.97813,0,0,1-.33936,1.36768,1.99991,1.99991,0,0,0,3.08252,2.42969,4.38866,4.38866,0,0,1,2.86914-1.01025,3.73843,3.73843,0,0,1,3.92261,2.87933,7.56015,7.56015,0,0,0-4.74243,2.46588,1.99492,1.99492,0,0,0,1.54053,3.26221,2.01917,2.01917,0,0,0,1.52-.687,3.567,3.567,0,0,1,2.21338-1.08887,1.97819,1.97819,0,0,0,.96533-.33282,1.97051,1.97051,0,0,0,.27539.04132C121.97706,16.99951,124,18.7251,124,20.7627c0,1.8916-1.72217,3.52881-4.00635,3.80811a2.00019,2.00019,0,0,0,.48633,3.9707c4.28711-.5249,7.52-3.86914,7.52-7.77881a7.97972,7.97972,0,0,0-6.25049-7.53711c-.21-3.80908-3.69727-6.84961-7.9541-6.84961a8.80348,8.80348,0,0,0-1.69238.16309C111.53614,2.84961,108.02442,0,103.79,0a8.238,8.238,0,0,0-8.23,6.104,11.24335,11.24335,0,0,0-1.59033-.1123c-5.6084,0-10.17139,4.10205-10.17139,9.144a8.19453,8.19453,0,0,0,.125,1.42773A7.99639,7.99639,0,0,0,78,24.06641C78,28.44092,81.94239,32,86.78809,32Z"></path><path d="M108.96925,20.73877a2,2,0,0,0-3.98193.32471,4.58159,4.58159,0,0,1-1.44141.81689,4.38908,4.38908,0,0,0-2.19971,2.09082,6.37136,6.37136,0,0,1-.4707-.96973,2.00013,2.00013,0,0,0-3.75293,1.38477c.24854.67627,1.62744,4.07568,4.39355,4.58105a2.00118,2.00118,0,0,0,2.167-1.11182c.12842-.22949.49219-.834.52979-.89746a8.79805,8.79805,0,0,0,.5459-.89209,1.99844,1.99844,0,0,1,.33105-.49561C107.92969,24.38184,109.23487,22.75586,108.96925,20.73877Z"></path><path d="M109.76514,35.89893c.05029-1.78613,1.6709-4.10156,2.52295-5.1333,4.54248-1.97461,5.01123-5.56738,4.60059-7.2417a1.99987,1.99987,0,1,0-3.88477.95215c.00391.01611.30713,1.62012-2.63574,2.75439a2.0006,2.0006,0,0,0-.75488.51416c-.38037.415-3.70605,4.14844-3.84473,7.98633-.10254,1.32861-1.314,19.34814,7.83447,25.89551a2.00011,2.00011,0,1,0,2.32813-3.25293c-7.45752-5.33691-6.18555-22.19873-6.17187-22.36865C109.76221,35.97021,109.76417,35.93408,109.76514,35.89893Z"></path><path d="M124.624,118.46094,118.78077,124H8.0879l4.60205-3.38965a2,2,0,0,0-2.37207-3.2207l-9.50391,7A2.00009,2.00009,0,0,0,2,128H119.57813a2.0011,2.0011,0,0,0,1.376-.54834l6.42188-6.0874a2.00016,2.00016,0,0,0-2.752-2.90332Z"></path><path d="M2,18a2,2,0,1,0,0,4H4a2,2,0,0,0,4,0h5v6H8a2,2,0,0,0,0,4H48a2,2,0,0,0,0-4H43V22h5a2,2,0,0,0,4,0h2a2,2,0,0,0,0-4H52V14h2a2,2,0,0,0,0-4H52V6h2a2,2,0,0,0,0-4H52a2,2,0,0,0-4,0H8A2,2,0,0,0,4,2H2A2,2,0,1,0,2,6H4v4H2a2,2,0,1,0,0,4H4v4ZM39,28H17V22H39ZM8,6H48v4H8Zm0,8H48v4H8Z"></path><path d="M2,51H43.0254l-8.375,11.91455a3.565,3.565,0,0,0,.41711,4.57324l-5.296,5.75391c-2.13721.916-10.92139,5.1416-13.74365,13.75293l-.582.71777a6.42577,6.42577,0,0,0,.79736,8.93359l24.74951,21.50439A7.58914,7.58914,0,0,0,45.97462,120h15.3252A6.62672,6.62672,0,0,0,68,113.46533v-.47412a6.53818,6.53818,0,0,0-4.23779-6.07666c-2.42432-.95166-7.42773-2.916-9.54-6.36963L49.542,86.13184l3.72156-4.41071a3.62221,3.62221,0,0,0,3.95178-.77533l10.19141-10.083A2.00016,2.00016,0,0,0,64.59327,68.019l-9.95978,9.85406a1.91272,1.91272,0,0,0-1.074-.81726L38.15675,64.88232,47.80909,51.1499c.03369-.048.05536-.10016.08429-.1499H54.25a2,2,0,0,0,0-4H2a2,2,0,1,0,0,4Zm48.48633,50.99121.16895.38037c2.74951,4.77441,8.75781,7.13281,11.64551,8.2666A2.56439,2.56439,0,0,1,64,112.99121v.47412A2.62452,2.62452,0,0,1,61.29981,116H45.97462a3.58936,3.58936,0,0,1-2.3584-.86914l-24.75-21.50439a2.41411,2.41411,0,0,1-.31348-3.39453l.46924-.57874,5.67627,4.86536a2.00015,2.00015,0,0,0,2.60352-3.03711L20.83771,85.9408c3.37567-6.2016,10.73834-9.1192,10.81952-9.15027l.439-.168.42139-.45782L45.38221,86.27264Zm-3.24-19.34143L35.23511,73.2124l2.95251-3.20764L50.0229,79.35895Z"></path><path d="M62,51h7a2,2,0,0,0,0-4H62a2,2,0,1,0,0,4Z"></path></svg>