<svg height='100px' width='100px'  fill="#000000" xmlns="http://www.w3.org/2000/svg" xmlns:xlink="http://www.w3.org/1999/xlink" version="1.1" x="0px" y="0px" viewBox="0 0 100 100" enable-background="new 0 0 100 100" xml:space="preserve"><g><circle cx="26.3" cy="27.891" r="5.527"></circle><path d="M7.876,59.213h3.686v22.109h29.477V59.213h3.686v-7.37H7.876V59.213z M20.771,61.055h11.055v6.238l-5.526,4.817   l-5.528-4.817V61.055z"></path><path d="M17.087,42.631c1.019,0,1.844,0.824,1.844,1.842v3.686H33.67v-3.686c0-1.018,0.825-1.842,1.843-1.842   s1.842,0.824,1.842,1.842v3.686h5.525l0.002-3.686c0-4.07-3.298-7.369-7.369-7.369H18.929c-2.035,0-3.686-1.649-3.686-3.686v-8.29   c0-1.526-1.238-2.764-2.763-2.764c-1.526,0-2.765,1.237-2.765,2.764v10.133h0.002C9.718,39.331,13.017,42.629,17.087,42.631z"></path><circle cx="67.964" cy="27.891" r="5.527"></circle><path d="M49.54,51.843v7.37h3.686v22.109h29.476V59.213h3.685v-7.37H49.54z M73.491,66.582c0,3.054-2.474,5.528-5.527,5.528   c-3.053,0-5.527-2.475-5.527-5.528v-5.527h11.055V66.582z"></path><path d="M56.908,48.158v-3.686c0-1.018,0.825-1.842,1.843-1.842s1.842,0.824,1.842,1.842v3.686h14.74v-3.686   c0-1.018,0.825-1.842,1.843-1.842h0.001c4.07-0.002,7.369-3.3,7.369-7.37h0.001V25.128c0-1.526-1.238-2.764-2.764-2.764   c-1.526,0-2.764,1.237-2.764,2.764v8.29c0,2.036-1.649,3.686-3.685,3.686H58.751c-4.072,0-7.37,3.299-7.37,7.369l0.001,3.686   H56.908z"></path></g></svg>