<svg height='100px' width='100px'  fill="#000000" xmlns:x="http://ns.adobe.com/Extensibility/1.0/" xmlns:i="http://ns.adobe.com/AdobeIllustrator/10.0/" xmlns:graph="http://ns.adobe.com/Graphs/1.0/" xmlns="http://www.w3.org/2000/svg" xmlns:xlink="http://www.w3.org/1999/xlink" version="1.1" x="0px" y="0px" viewBox="0 0 100 100" style="enable-background:new 0 0 100 100;" xml:space="preserve"><g><g i:extraneous="self"><g><path d="M93.4,9H38.8c-2.3,0-4.1,1.8-4.1,4.1v14.5h26.5c5.6,0,10.2,4.6,10.2,10.2v13.9h10.5l10.9,13.8c1.6,2,4.7,0.9,4.7-1.7V13     C97.5,10.8,95.7,9,93.4,9z"></path><path d="M61.2,33.6H6.6c-2.3,0-4.1,1.8-4.1,4.1v50.7c0,2.5,3.2,3.6,4.7,1.6l10.9-13.8h43c2.3,0,4.1-1.8,4.1-4.1V37.7     C65.3,35.4,63.4,33.6,61.2,33.6z M50.7,63.6H17.1c-1.2,0-2.1-0.9-2.1-2.1c0-1.2,0.9-2.1,2.1-2.1h33.6c1.2,0,2.1,0.9,2.1,2.1     C52.8,62.7,51.8,63.6,50.7,63.6z M50.7,50.4H17.1c-1.2,0-2.1-0.9-2.1-2.1c0-1.2,0.9-2.1,2.1-2.1h33.6c1.2,0,2.1,0.9,2.1,2.1     C52.8,49.4,51.8,50.4,50.7,50.4z"></path></g></g></g></svg>