<svg height='100px' width='100px'  fill="#000000" xmlns="http://www.w3.org/2000/svg" xmlns:xlink="http://www.w3.org/1999/xlink" version="1.1" x="0px" y="0px" viewBox="0 0 128 128" style="enable-background:new 0 0 128 128;" xml:space="preserve"><path d="M88,108c-1.104,0-2,0.896-2,2s0.896,2,2,2h16c1.104,0,2-0.896,2-2s-0.896-2-2-2h-2V84h2c1.104,0,2-0.896,2-2s-0.896-2-2-2  H88c-1.104,0-2,0.896-2,2s0.896,2,2,2h2v24H88z M94,84h4v24h-4V84z"></path><path d="M18,116c-1.104,0-2,0.896-2,2s0.896,2,2,2h92c1.104,0,2-0.896,2-2s-0.896-2-2-2H18z"></path><path d="M118,124H10c-1.104,0-2,0.896-2,2s0.896,2,2,2h108c1.104,0,2-0.896,2-2S119.104,124,118,124z"></path><path d="M24,108c-1.104,0-2,0.896-2,2s0.896,2,2,2h16c1.104,0,2-0.896,2-2s-0.896-2-2-2h-2V84h2c1.104,0,2-0.896,2-2s-0.896-2-2-2  H24c-1.104,0-2,0.896-2,2s0.896,2,2,2h2v24H24z M30,84h4v24h-4V84z"></path><path d="M56,108c-1.104,0-2,0.896-2,2s0.896,2,2,2h16c1.104,0,2-0.896,2-2s-0.896-2-2-2h-2V84h2c1.104,0,2-0.896,2-2s-0.896-2-2-2  H56c-1.104,0-2,0.896-2,2s0.896,2,2,2h2v24H56z M62,84h4v24h-4V84z"></path><path d="M88.13,58.801l14.779,13.333h-77.54L39.9,58.829c-0.954-0.883-1.856-1.816-2.704-2.798L18.638,73.023  c-1.844,1.58-2.391,2.974-0.274,2.977h90.883c0.002,0,0.005,0,0.007,0c2.11,0,2.342-1.308,0.512-2.92L90.831,56  C89.983,56.981,89.081,57.917,88.13,58.801z"></path><path d="M32,32c0,12.052,6.666,22.542,16.508,28H44c-1.104,0-2,0.896-2,2s0.896,2,2,2h40c1.104,0,2-0.896,2-2s-0.896-2-2-2h-4.508  C89.334,54.542,96,44.052,96,32C96,14.327,81.672,0,63.999,0C46.328,0,32,14.327,32,32z M92,32c0,15.44-12.562,28-28.001,28  C48.56,60,36,47.44,36,32S48.56,4,63.999,4C79.438,4,92,16.56,92,32z"></path><path d="M61.999,14.098v4.339c-0.35,0.052-0.699,0.127-1.031,0.221c-2.834,0.815-5.486,2.674-6.138,5.797  c-0.456,2.179-0.224,4.691,1.29,6.393c1.53,1.716,3.748,2.381,5.879,2.954v8.709c-1.251-0.41-2.353-1.096-3.011-2.016  c-0.678-0.952-0.934-2.152-1.661-3.076c-0.796-1.006-2.473-1.178-3.087,0.079c-0.467,0.96-0.178,2.345,0.229,3.277  c0.276,0.63,0.622,1.261,1.005,1.833c1.485,2.217,3.682,3.533,6.524,3.96v3.336C61.999,51.06,62.894,52,64,52  c1.104,0,2-0.94,2-2.097v-3.306c1.642-0.234,3.232-0.79,4.633-1.725c1.704-1.136,3.043-2.979,3.294-5.086  c0.484-4.07-1.783-7.511-5.536-8.654C67.597,30.89,66.8,30.646,66,30.406V22.59c0.711,0.217,1.38,0.525,1.938,0.937  c0.964,0.711,1.604,1.814,2.029,2.932c0.325,0.851,0.936,1.78,1.85,2.008c0.941,0.234,1.997-0.377,2.144-1.416  c0.187-1.332-0.284-2.82-1.441-4.553c-0.716-1.069-1.59-1.93-2.588-2.557c-1.197-0.751-2.545-1.206-3.931-1.435v-4.408  C66,12.94,65.104,12,64,12C62.894,12,61.999,12.94,61.999,14.098z M61.999,29.392c-1.205-0.349-2.303-0.871-2.956-2.002  c-1.216-2.104,0.768-4.301,2.629-4.876c0.104-0.032,0.219-0.052,0.327-0.077V29.392z M66,34.787c0.387,0.11,0.768,0.231,1.143,0.375  c2.434,0.939,3.545,3.8,1.833,5.993C68.274,42.055,67.2,42.588,66,42.81V34.787z"></path></svg>