<svg height='100px' width='100px'  fill="#000000" xmlns="http://www.w3.org/2000/svg" xmlns:xlink="http://www.w3.org/1999/xlink" version="1.1" x="0px" y="0px" viewBox="0 0 100 100" enable-background="new 0 0 100 100" xml:space="preserve"><g><path d="M61.352,87.913c-0.116,0-0.224-0.017-0.323-0.053c-0.184-0.069-0.321-0.201-0.397-0.386c-0.09-0.224,0.258-2,0.893-3.333   c0.601-1.268,1.374-2.056,2.3-2.346c0.163-0.051,0.251-0.088,0.299-0.112c-0.053-0.103-0.182-0.282-0.3-0.444l-0.082-0.112   c-1.083-1.509-1.846-1.131-2.813-0.648c-0.747,0.372-1.675,0.833-2.636-0.02c-0.636-0.565-1.472-2.251-1.825-3.062   c-0.012-0.031-0.024-0.055-0.035-0.074c-0.024,0.021-0.051,0.044-0.072,0.062c-0.164,0.147-0.474,0.416-0.841,0.229   c-0.378-0.19-0.294-0.547-0.264-0.681c0.037-0.152,0.07-0.296-0.565-0.551c-1.221-0.49-2.134,0.161-2.965,0.873   c-0.813,0.696-7.801-0.609-22.456-3.549c-7.532-1.512-15.322-3.074-19.045-3.507c-0.153-0.018-0.617-0.072-1.38-1.369   c-0.414-0.703-1.06-2.089-1.111-2.846c-0.089,0.008-0.17,0-0.253-0.051l-0.144-0.087l-0.033-0.215   c-0.009-0.161-0.018-0.288-0.476-1.16c-0.11-0.209-0.218-0.363-0.305-0.486c-0.155-0.225-0.291-0.417-0.242-0.673   c0.05-0.258,0.266-0.445,0.648-0.698c0.508-0.337,1.032,0.324,1.539,0.965c0.134,0.17,0.315,0.397,0.455,0.543   c0.017-0.28-0.01-0.907-0.239-2.307c-0.069-0.425,0.208-0.978,0.478-1.512c0.085-0.172,0.203-0.405,0.266-0.567   c-0.049,0.018-0.107,0.033-0.153,0.046c-0.29,0.083-0.892,0.253-1.095-0.301c-0.188-0.509,0.362-0.747,0.726-0.906   c0.362-0.157,0.565-0.267,0.533-0.361c-0.042-0.12-0.056-0.157-0.471-0.073c-0.289,0.059-0.649,0.13-0.911-0.14   c-0.458-0.469-0.26-0.852-0.165-1.036c0.057-0.115,0.127-0.192,0.214-0.238c-0.052-0.06-0.096-0.135-0.114-0.233   c-0.028-0.153,0.019-0.31,0.14-0.479c0.127-0.175,0.361-0.26,0.686-0.376c0.949-0.342,1.708-0.73,1.381-2.01   c-0.257-1.008-0.276-2.651-0.293-4.242c-0.018-1.583-0.035-3.221-0.299-3.97c-0.07-0.198-0.13-0.228-0.13-0.228   c-0.109-0.024-0.493,0.312-0.656,0.458c-0.38,0.338-0.735,0.658-1.131,0.543c-0.226-0.066-0.387-0.264-0.477-0.587   c-0.289-1.031-0.037-1.88,0.147-2.5c0.082-0.278,0.154-0.519,0.147-0.679c-0.014-0.009-0.134-0.025-0.214-0.036   C7,42.349,6.316,42.258,6.381,41.372c0.092-1.229,8.887-11.506,10.943-12.787c0.215-0.132,0.493-0.273,0.742-0.173   c0.81,0.325,0.792,1.211,0.778,1.923c-0.007,0.386-0.016,0.823,0.127,0.955c0.148,0.137,0.21,0.14,0.211,0.14   c0.028-0.005,0.11-0.08,0.157-0.125c0.099-0.091,0.221-0.204,0.387-0.272c0.307-0.127,1.899-0.417,2.786,0.03   c0.39,0.197,0.533,0.483,0.584,0.688c0.066,0.271,0.329,0.289,1.22,0.083c0.407-0.094,0.788-0.184,1.096-0.114   c0.86,0.192,0.677,1.055,0.556,1.626c-0.03,0.14-0.063,0.295-0.081,0.436c0.246-0.337,0.653-0.792,1.274-0.609   c0.301,0.089,0.412,0.266,0.45,0.399c0.107,0.363-0.193,0.712-0.483,1.05c-0.025,0.028-0.052,0.06-0.08,0.093   c0.017-0.004,0.033-0.009,0.051-0.014c0.457-0.129,1.229-0.346,1.99,0.815c0.345,0.528,0.974,1.006,1.583,1.469   c0.861,0.656,1.681,1.279,1.674,2.048c1.149,0.292,3.911,0.122,4.496-0.552c0.21-0.241,0.392-0.447,0.645-0.321   c0.243,0.12,0.189,0.38,0.156,0.535c-0.036,0.178-0.098,0.475,0.009,0.637c0.019,0.028,0.074,0.112,0.285,0.154   c0.497,0.1,0.892,0.049,1.146-0.146c0.283-0.218,0.361-0.589,0.377-0.862c0.019-0.325,0.171-0.478,0.296-0.549   c0.347-0.201,0.8,0.029,1.278,0.273c0.14,0.072,0.353,0.181,0.485,0.226c0.295-0.569,0.571-0.781,0.873-0.737   c0.453,0.071,0.766,0.642,0.818,3.193l0.002,0.084c0.021,0.538,0.28,1.581,0.498,1.658c0.025,0.002,0.05,0,0.072,0   c-0.013-0.025-0.026-0.05-0.038-0.072c-0.139-0.259-0.371-0.694-0.058-1.065c0.371-0.44,0.85-0.544,1.166-0.613   c0.055-0.012,0.123-0.027,0.174-0.042c-0.018-0.045-0.05-0.116-0.113-0.22c-0.136-0.229-0.323-0.473-0.521-0.735   c-0.855-1.127-2.025-2.671-0.844-4.769c0.312-0.554,0.458-1.317,0.598-2.054c0.208-1.097,0.406-2.133,1.152-2.554   c0.429-0.242,0.962-0.238,1.633,0.01c0.588,0.218,0.97,0.469,1.153,0.762c0.276-0.364,0.562-0.636,0.814-0.768   c0.444-0.23,0.702,0.011,0.769,0.092c0.308,0.366,0.152,1.055-0.14,2.148c-0.099,0.368-0.238,0.89-0.258,1.161   c0.373-0.198,0.475-0.283,0.497-0.32c0.002-0.016-0.011-0.093-0.02-0.155c-0.039-0.268-0.106-0.716,0.111-1.542   c0.304-1.16,1.559-1.616,2.662-1.569c1.11,0.056,1.905,0.586,2.025,1.353c0.158,1.006,0.98,1.219,1.777,1.425   c0.153,0.04,0.302,0.079,0.439,0.121c0.258,0.078,0.376-0.02,0.64-0.297c0.219-0.231,0.551-0.58,1.051-0.405   c0.598,0.208,0.908,0.504,1.159,0.742c0.216,0.205,0.371,0.354,0.668,0.43c0.013,0.003,0.063,0,0.096-0.002   c0.143-0.012,0.514-0.033,0.671,0.389c0.083,0.223,0.004,0.456-0.072,0.681c-0.028,0.082-0.07,0.209-0.078,0.278   c0.013-0.042,0.074-0.081,0.115-0.104c0.189-0.117,0.696-0.428,1.113,0.245c0.107,0.176,0.14,0.346,0.092,0.506   c-0.078,0.261-0.32,0.375-0.516,0.468c-0.063,0.03-0.163,0.077-0.202,0.109c0.018,0.01,0.057,0.092,0.196,0.241   c0.606,0.643,0.906,0.492,1.506,0.191c0.145-0.072,0.295-0.147,0.454-0.214c0.809-0.333,1.221,0.348,1.439,0.714   c0.078,0.128,0.184,0.304,0.247,0.341c0.396,0.126,2.65,0.948,2.958,2.341c0.132,0.597-0.104,1.188-0.701,1.756   c-0.364,0.342-1.227,0.214-2.979-0.141c-0.143-0.028-0.298-0.06-0.454-0.09c5.334,3.132,5.631,3.514,4.646,5.486   c-0.101,0.201-0.212,0.424-0.325,0.677c-0.238,0.536-0.623,0.874-1.143,1.005c-1.387,0.35-3.441-0.937-4.915-2.077   c-0.334-0.259-1.076-0.483-1.618-0.646c-0.417-0.125-0.666-0.203-0.823-0.289c-0.154,0.066-0.445,0.251-0.571,0.348   c-0.175,0.541-0.729,1.053-1.287,1.175c-0.444,0.097-0.847-0.053-1.129-0.421c-0.37-0.481-0.52-0.914-0.458-1.322   c0.055-0.361,0.279-0.685,0.666-0.958c0.738-0.522,1.251-0.56,1.524-0.579c0.009,0,0.017-0.001,0.023-0.001   c-0.006-0.183-0.063-0.557-0.108-0.844c-0.404-2.645-3.703-6.386-4.411-6.386c-0.005,0-0.009,0-0.013,0   c-0.76,0.72-1.394,1.164-1.917,1.427c0.412,0.367,0.698,1.017,0.801,2.216c0.013,0.162,0.059,0.479,0.113,0.877   c0.334,2.379,0.465,3.759,0.201,4.235l-0.06,0.111c0.086,0.012,0.171,0.021,0.254,0.031c0.627,0.073,1.277,0.147,1.486,1.134   c0.046,0.212,0.093,0.26,0.093,0.26c-0.001-0.008,0.064-0.021,0.108-0.029c0.394-0.077,0.821-0.044,1.042,0.765   c0.098,0.357,0.059,0.632-0.116,0.818c-0.31,0.331-0.86,0.216-1.498,0.086c-0.38-0.079-0.808-0.168-1.108-0.127   c-0.309,0.042-0.474,0.384-0.687,0.902c-0.2,0.483-0.445,1.087-1.056,1.025c-0.099-0.01-0.4-0.04-0.519-0.29   c-0.117-0.244,0.028-0.463,0.134-0.624c0.006-0.008,0.011-0.017,0.018-0.025c-0.09,0.003-0.18,0.053-0.321,0.139   c-0.203,0.125-0.542,0.333-0.888,0.054c-0.29-0.234-0.179-0.669,0.219-2.008c0.161-0.54,0.435-1.464,0.468-1.909   c-0.046-0.009-0.088-0.019-0.124-0.029c-0.708,0.287-1.486-0.026-2.067-0.258c-0.177-0.071-0.408-0.164-0.536-0.188   c-0.001,0.054,0.005,0.146,0.036,0.296c0.36,1.784,1.032,5.104-1.345,5.981c-0.757,0.279-0.885,0.81-1.096,1.688   c-0.067,0.28-0.141,0.586-0.243,0.912c-0.342,1.096-0.505,2.637-0.057,3.432c0.155,0.275,0.372,0.444,0.663,0.516   c1.269,0.313,1.067,1.543,0.947,2.277c-0.037,0.229-0.094,0.574-0.053,0.663c0.121,0.069,0.677,0.075,1.124,0.078   c0.841,0.009,1.793,0.018,2.38,0.435c0.254,0.18,0.397,0.274,0.492,0.337c0.223,0.147,0.237,0.16,0.594,0.505l0.229,0.223   c0.317,0.305,1.487,0.294,2.526,0.28c1.28-0.013,2.599-0.026,3.339,0.434c0.159,0.101,0.221,0.254,0.574,1.281   c0.561,1.625,1.867,5.428,3.14,5.091c0.026-0.006,0.077-0.016,0.146-0.026c0.498-0.078,0.627-0.156,0.659-0.196   c0.031-0.838-1.534-4.42-2.449-5.254c-0.371-0.338-0.666-0.644-0.518-0.951c0.146-0.298,0.493-0.242,0.864-0.18   c0.138,0.021,0.396,0.064,0.47,0.044c1.225-1.054,2.408-2.767,0.843-4.793c-0.404-0.523-0.707-0.89-0.937-1.168   c-0.767-0.929-0.793-0.992-0.908-2.228c-0.022-0.228-0.047-0.502-0.084-0.836c-0.108-0.996-0.276-1.132-0.283-1.138   c-0.151,0.048-0.341,0.096-0.511-0.042c-0.175-0.144-0.203-0.392-0.19-0.72c0.013-0.292-0.028-0.598-0.065-0.894   c-0.076-0.581-0.155-1.181,0.212-1.606c0.271-0.313,0.719-0.463,1.408-0.472c0.816-0.011,0.943-0.14,0.948-0.146   c0-0.2,0.008-0.617,0.603-0.652c0.631-0.036,1.211,0.272,1.691,0.521c0.215,0.111,0.418,0.216,0.574,0.264   c0.19,0.059,0.317,0.159,0.381,0.299c0.076,0.167,0.034,0.322-0.01,0.435c0.219,0.029,0.415-0.027,0.621-0.085   c0.203-0.057,0.423-0.12,0.642-0.099c0.018-0.102,0.069-0.211,0.207-0.269c0.245-0.101,0.431,0.106,0.511,0.196   c0.182,0.206,0.286,0.64,0.47,1.454c0.136,0.601,0.419,1.852,0.664,1.977c0.472-0.061,0.917,0.023,1.345,0.104   c0.221,0.041,0.447,0.084,0.69,0.108c0.157-0.213,0.479-0.786,0.606-1.031c-0.026-0.153-0.103-0.409-0.177-0.658   c-0.295-0.984-0.698-2.332,0.042-2.946c0.746-0.617,1.701,0.542,2.546,1.561c0.316,0.38,0.747,0.9,0.901,0.958   c0.138,0.02,0.216,0.01,0.306-0.005c0.313-0.044,0.526-0.021,1.169,0.397c0.96,0.627,1.048,0.969,1.373,2.238l0.065,0.259   c0.087,0.334,0.189,0.412,0.228,0.43c0.135,0.059,0.432-0.097,0.672-0.222c0.306-0.158,0.615-0.322,0.943-0.294   c0.236,0.021,0.402,0.109,0.493,0.264c0.097,0.165,0.068,0.336,0.02,0.479c3.005-0.077,3.341,0.041,3.42,0.43   c0.078,0.021,0.251,0.052,0.615,0.076c0.71,0.046,1.706,0.197,2.177,0.989c0.496,0.839,0.296,2.155-0.629,4.143   c-0.838,1.798-2.064,2.393-3.364,3.023c-1.559,0.755-3.325,1.611-4.874,4.885c-1.58,3.339-1.859,4.487-1.891,4.871   c0.125-0.087,0.337-0.266,0.66-0.631c0.338-0.382,0.749-1.118,1.184-1.899c0.967-1.733,2.061-3.696,3.399-3.925   c0.497-0.084,0.979,0.075,1.432,0.476c0.611,0.54,0.872,1.021,0.802,1.471c-0.103,0.64-0.841,0.96-1.437,1.217   c-0.236,0.103-0.594,0.258-0.653,0.349c0.059,0.035,0.445,0.387,2.9,1.212c0.759,0.256,1.674,0.007,2.48-0.212   c0.395-0.106,0.774-0.208,1.119-0.25c-0.327-0.232-0.559-0.653-0.648-1.098c-0.098-0.469,0.307-1.259,0.706-1.598   c0.279-0.236,0.502-0.223,0.646-0.168c0.19,0.072,0.315,0.246,0.374,0.518c0.076-0.103,0.166-0.182,0.295-0.201l0,0   c0.739-0.113,0.862,0.321,0.886,0.458c0.105,0.608-0.841,1.839-1.332,2.176c0.077,0.043,0.141,0.103,0.182,0.188   c0.113,0.238-0.041,0.442-0.153,0.592c-0.071,0.094-0.15,0.198-0.168,0.289c0.131,0.009,0.356-0.026,0.507-0.047   c0.477-0.069,1.127-0.166,1.284,0.385c0.155,0.55-0.009,0.878-0.175,1.057c-0.555,0.601-1.874,0.396-3.175,0.136   c-0.229-0.046-0.516-0.11-0.555-0.097l-0.024,0.015c-0.239,0.077-0.425,0.146-0.447,0.275c-0.013,0.063-0.021,0.118-0.026,0.162   c0.138-0.027,0.231,0.005,0.309,0.088c0.181,0.191,0.052,0.412-0.02,0.53c-0.072,0.124-0.141,0.494-0.203,0.82   c-0.146,0.771-0.298,1.57-0.771,1.879c-0.269,0.176-0.504,0.328-0.764,0.272c-0.258-0.054-0.392-0.26-0.614-0.603l-0.055-0.083   c-0.384-0.588-0.065-1.44,0.215-2.192c0.094-0.254,0.184-0.492,0.229-0.688c0.044-0.188,0.068-0.33,0.083-0.437   c-0.14,0.136-0.32,0.348-0.509,0.571c-0.712,0.839-1.601,1.888-2.5,1.71c-0.716-0.138-0.915-0.611-1.127-1.112   c-0.152-0.357-0.324-0.764-0.722-1.211c-0.12-0.134-0.228-0.264-0.324-0.38c-0.163-0.194-0.366-0.437-0.447-0.467   c-0.087,0.087-0.349,0.75-0.718,1.967c-0.788,2.607-1.443,2.938-3.881,4.17c-0.565,0.285-1.231,0.621-2.026,1.049   c-1.984,1.067-2.138,1.436-2.148,1.498c0.014,0.002,0.111,0.063,0.169,0.101c0.161,0.103,0.36,0.23,0.395,0.474   c0.021,0.153-0.03,0.301-0.155,0.44c-0.417,0.472-1.12,0.563-1.686,0.638c-0.124,0.017-0.269,0.035-0.396,0.059l0.046,0.079   l-0.101,0.219c-0.409,0.721-0.558,1.087-0.609,1.267c0.063-0.019,0.127-0.04,0.177-0.058c0.302-0.101,0.644-0.217,0.86,0.044   c0.22,0.26,0.076,0.66-0.228,1.221l-0.037,0.072c-0.03,0.064-0.137,0.258-0.395,0.229c-0.171-0.019-0.562,0.079-1.111,0.272   c-0.487,0.172-1.049,0.451-1.593,0.722C62.563,87.583,61.864,87.913,61.352,87.913z M61.262,87.244   c0.358,0.091,1.308-0.382,2.007-0.729c0.561-0.278,1.14-0.567,1.665-0.752c0.673-0.236,1.019-0.298,1.21-0.309   c0.076-0.142,0.127-0.251,0.162-0.333c-0.016,0.005-0.03,0.011-0.044,0.015c-0.313,0.104-0.698,0.236-0.935-0.052   c-0.199-0.242-0.19-0.62,0.426-1.759c-0.055-0.034-0.103-0.085-0.133-0.163c-0.099-0.246,0.113-0.441,0.191-0.515   c0.231-0.213,0.609-0.263,1.046-0.32c0.439-0.057,0.935-0.122,1.215-0.355c-0.011-0.007-0.021-0.014-0.029-0.02   c-0.179-0.113-0.479-0.304-0.465-0.668c0.016-0.429,0.445-0.939,2.483-2.037c0.803-0.43,1.474-0.769,2.041-1.057   c2.413-1.217,2.848-1.437,3.559-3.782c0.546-1.803,0.813-2.319,1.243-2.408c0.387-0.076,0.67,0.257,1.026,0.683   c0.094,0.112,0.196,0.236,0.312,0.365c0.468,0.524,0.669,1.004,0.832,1.387c0.206,0.49,0.297,0.663,0.659,0.733   c0.526,0.103,1.348-0.858,1.89-1.496c0.233-0.275,0.435-0.513,0.608-0.67c0.129-0.117,0.472-0.431,0.797-0.238   c0.321,0.188,0.289,0.649,0.134,1.332c-0.05,0.218-0.148,0.484-0.253,0.768c-0.204,0.55-0.485,1.301-0.278,1.619l0.055,0.083   c0.099,0.151,0.199,0.308,0.242,0.338c-0.011-0.026,0.178-0.148,0.249-0.194c0.245-0.161,0.394-0.944,0.491-1.463   c0.047-0.25,0.09-0.472,0.139-0.656c-0.014-0.009-0.029-0.019-0.044-0.029c-0.252-0.188-0.221-0.567-0.155-0.914   c0.096-0.513,0.588-0.671,0.882-0.767c0.212-0.069,0.371-0.043,0.9,0.063c0.665,0.133,2.222,0.445,2.58,0.057   c0.077-0.084,0.086-0.234,0.028-0.445c-0.08,0.011-0.395,0.048-0.574,0.074c-0.46,0.066-1.146,0.166-1.237-0.434   c-0.042-0.281,0.074-0.515,0.189-0.687c-0.011,0-0.023,0-0.035,0c-0.336,0-0.784,0.12-1.257,0.248   c-0.896,0.241-1.911,0.514-2.851,0.199c-2.769-0.931-3.306-1.365-3.325-1.844c-0.02-0.458,0.489-0.679,1.028-0.912   c0.427-0.185,1.01-0.437,1.057-0.73c0.019-0.119-0.032-0.394-0.593-0.89c-0.304-0.269-0.593-0.376-0.898-0.323   c-1.037,0.177-2.096,2.077-2.947,3.604c-0.472,0.848-0.88,1.579-1.264,2.014c-0.729,0.825-1.192,1.079-1.54,0.848   c-0.293-0.192-0.784-0.517,1.71-5.788c1.645-3.477,3.521-4.387,5.175-5.188c1.246-0.604,2.321-1.125,3.062-2.716   c0.806-1.729,1.028-2.922,0.659-3.545c-0.244-0.41-0.758-0.619-1.666-0.677c-0.721-0.048-1.081-0.128-1.179-0.456   c-0.232-0.055-0.985-0.097-3.09-0.041c-0.233,0.016-0.354-0.098-0.413-0.187c-0.129-0.194-0.039-0.405,0.026-0.549   c-0.161,0.031-0.338,0.123-0.5,0.207c-0.382,0.198-0.813,0.423-1.228,0.237c-0.277-0.125-0.471-0.404-0.587-0.855l-0.067-0.259   c-0.311-1.214-0.35-1.37-1.103-1.86c-0.509-0.334-0.595-0.319-0.724-0.3c-0.113,0.016-0.266,0.039-0.513,0   c-0.332-0.052-0.668-0.44-1.281-1.179c-0.381-0.46-1.39-1.684-1.645-1.476c-0.413,0.343-0.053,1.548,0.163,2.268   c0.112,0.378,0.203,0.676,0.212,0.886h-0.002c-0.021,0.297-0.793,1.44-0.838,1.488c-0.037,0.041-0.153,0.162-0.33,0.15   c-0.319-0.023-0.611-0.076-0.893-0.129c-0.418-0.078-0.78-0.148-1.188-0.101c-0.781,0.075-1.032-1.158-1.329-2.469   c-0.058-0.261-0.13-0.578-0.197-0.82c-0.092,0.031-0.22,0.032-0.375-0.051c-0.077-0.041-0.279,0.016-0.457,0.065   c-0.286,0.081-0.642,0.184-1.026,0.083c-0.078-0.02-0.316-0.082-0.421-0.299c-0.087-0.178-0.032-0.346,0.016-0.461   c-0.203-0.076-0.399-0.176-0.603-0.282c-0.433-0.223-0.943-0.468-1.358-0.45c-0.002,0-0.003,0-0.005,0   c-0.05,0.578-0.489,0.784-1.576,0.799c-0.48,0.006-0.793,0.091-0.933,0.251c-0.179,0.207-0.124,0.622-0.063,1.103   c0.041,0.308,0.087,0.655,0.073,1.003c-0.002,0.043-0.002,0.079-0.002,0.109c0.127-0.016,0.279-0.004,0.429,0.1   c0.288,0.201,0.454,0.679,0.554,1.596c0.037,0.337,0.063,0.613,0.084,0.845c0.102,1.075,0.102,1.075,0.764,1.879   c0.233,0.283,0.541,0.654,0.95,1.184c1.463,1.895,1.115,3.918-0.977,5.699c-0.186,0.157-0.454,0.147-0.751,0.104   c0.97,0.895,2.694,4.675,2.638,5.795c-0.028,0.576-0.811,0.698-1.188,0.757l-0.083,0.014c-1.839,0.494-3.136-3.26-3.908-5.502   c-0.141-0.411-0.287-0.835-0.356-0.975c-0.601-0.332-1.843-0.318-2.943-0.308c-1.323,0.016-2.472,0.026-2.979-0.461l-0.229-0.223   c-0.327-0.316-0.327-0.316-0.5-0.431c-0.099-0.065-0.247-0.163-0.51-0.35c-0.422-0.3-1.306-0.309-2.014-0.315   c-0.666-0.006-1.192-0.011-1.497-0.211c-0.371-0.245-0.288-0.745-0.202-1.274c0.16-0.974,0.13-1.405-0.468-1.552   c-0.465-0.114-0.823-0.392-1.067-0.823c-0.583-1.032-0.361-2.767,0.004-3.938c0.097-0.312,0.167-0.603,0.231-0.871   c0.224-0.935,0.417-1.741,1.496-2.139c1.636-0.604,1.419-2.882,0.938-5.253c-0.065-0.323-0.106-0.722,0.163-0.944   c0.298-0.25,0.719-0.082,1.205,0.114c0.451,0.18,0.995,0.4,1.442,0.302c-0.122-0.532-0.171-1.144,0.236-1.403   c0.436-0.273,1.104-0.001,2.208,0.912c0.014-0.866-0.233-2.631-0.34-3.389c-0.058-0.415-0.104-0.745-0.118-0.913   c-0.114-1.359-0.431-1.807-0.906-1.99c-0.146,0.035-0.279,0.052-0.399,0.057c0.567,1.144,0.691,2.407,0.212,2.942   c-0.116,0.131-0.429,0.386-0.946,0.173c-0.005,0.042-0.011,0.085-0.014,0.124c-0.042,0.398-0.106,1-0.557,1.336   c-0.335,0.252-0.59,0.215-0.745,0.141c-0.428-0.209-0.479-0.896-0.499-1.643c-0.023-0.956-0.272-1.919-0.703-1.919   c-0.002,0-0.005,0-0.007,0c-0.099,0.087-0.025,0.468,0.003,0.611c0.055,0.281,0.108,0.548-0.124,0.693   c-0.082,0.051-0.253,0.113-0.477-0.056c-0.376-0.281-0.337-0.717-0.308-1.067c0.023-0.251,0.042-0.488-0.069-0.638   c-0.065-0.085-0.072-0.093-0.288-0.023c-0.193,0.063-0.548,0.18-0.835-0.141c-0.131-0.147-0.146-0.291-0.136-0.385   c0.025-0.232,0.206-0.365,0.366-0.481c0.266-0.194,0.252-0.226,0.209-0.319c-0.288-0.637-1.274-2.15-1.788-2.744   c-0.032-0.036-0.059-0.071-0.084-0.107c-0.075,0.209-0.162,0.409-0.267,0.595c-0.975,1.731-0.034,2.973,0.797,4.067   c0.21,0.278,0.41,0.541,0.561,0.794c0.155,0.259,0.296,0.561,0.18,0.83c-0.117,0.268-0.391,0.328-0.655,0.386   c-0.273,0.059-0.582,0.126-0.813,0.4c-0.033,0.04,0.087,0.266,0.133,0.351c0.117,0.219,0.262,0.491,0.105,0.748   c-0.15,0.246-0.459,0.264-0.722,0.267c-0.796-0.014-1.036-1.462-1.101-2.04c-0.054,0.021-0.109,0.039-0.161,0.055   c-0.203,0.063-0.331,0.112-0.397,0.256c-0.034,0.074-0.065,0.147-0.096,0.22c-0.212,0.504-0.473,1.132-1.564,1.089   c-1.667-0.063-2.693-0.984-3.372-1.593c-0.295-0.265-0.627-0.568-0.775-0.534c-0.043,0.009-0.205,0.084-0.458,0.655   c-0.085,0.192,0.108,0.499,0.248,0.723c0.156,0.247,0.316,0.502,0.15,0.747c-0.174,0.257-0.537,0.191-0.733,0.155   c-0.55-0.102-1.093-0.106-1.619-0.11c-0.942-0.007-1.757-0.014-2.207-0.619c-0.415-0.56-0.392-1.517,0.074-3.104   c0.145-0.494-0.605-1.064-1.4-1.669c-0.651-0.496-1.325-1.008-1.731-1.628c-0.501-0.766-0.843-0.672-1.28-0.549   c-0.229,0.065-0.49,0.137-0.75,0.042c-0.204-0.075-0.27-0.224-0.292-0.306c-0.074-0.286,0.15-0.547,0.41-0.85   c0.094-0.109,0.252-0.293,0.32-0.412c-0.233-0.038-0.396,0.136-0.642,0.488c-0.17,0.242-0.321,0.468-0.605,0.446   c-0.116-0.01-0.279-0.074-0.395-0.321c-0.16-0.344-0.068-0.775,0.021-1.192c0.157-0.74,0.103-0.829-0.068-0.867   c-0.162-0.035-0.507,0.043-0.813,0.114c-0.697,0.161-1.75,0.402-1.986-0.554c-0.018-0.07-0.063-0.174-0.251-0.27   c-0.64-0.324-1.998-0.115-2.253-0.01c-0.059,0.025-0.125,0.086-0.195,0.15c-0.199,0.183-0.611,0.562-1.238-0.014   c-0.355-0.328-0.345-0.893-0.333-1.439c0.013-0.698-0.005-1.167-0.376-1.315C16.857,29.151,7.306,40.055,7.019,41.43   C7,41.703,7.05,41.709,7.376,41.753c0.243,0.032,0.747,0.1,0.771,0.645c0.011,0.268-0.075,0.556-0.174,0.889   c-0.171,0.575-0.384,1.291-0.145,2.144c0.035,0.125,0.068,0.159,0.069,0.159c0.053-0.028,0.331-0.274,0.496-0.422   c0.395-0.35,0.805-0.713,1.243-0.598c0.256,0.065,0.45,0.28,0.574,0.635c0.3,0.85,0.317,2.466,0.337,4.176   c0.017,1.552,0.035,3.158,0.273,4.09c0.498,1.949-1.044,2.505-1.785,2.772c-0.114,0.04-0.261,0.094-0.344,0.134   c0.124,0.084,0.311,0.231,0.332,0.506c0.016,0.215-0.073,0.336-0.149,0.398c-0.152,0.126-0.329,0.098-0.45,0.066   c-0.024,0.079,0.002,0.116,0.092,0.208c0.04,0.012,0.219-0.021,0.325-0.043c0.336-0.068,0.963-0.193,1.202,0.489   c0.222,0.631-0.372,0.938-0.792,1.124c0.257-0.064,0.542-0.099,0.743,0.123c0.269,0.294,0.047,0.733-0.259,1.344   c-0.18,0.358-0.453,0.901-0.418,1.121c0.399,2.442,0.28,2.974-0.098,3.142c-0.412,0.177-0.766-0.262-1.254-0.878   c-0.199-0.251-0.558-0.705-0.731-0.795c-0.262,0.177-0.317,0.245-0.329,0.269c0.026-0.016,0.087,0.088,0.143,0.168   c0.098,0.141,0.221,0.316,0.346,0.556c0.295,0.561,0.428,0.859,0.491,1.076c0.136-0.046,0.297-0.063,0.434,0.069   c0.197,0.19,0.081,0.47,0.043,0.562c-0.055,0.295,0.608,2.1,1.372,3.144c0.374,0.51,0.557,0.537,0.564,0.538   c3.749,0.436,11.552,2,19.098,3.515c9.336,1.872,20.959,4.203,21.925,3.682c0.663-0.569,1.922-1.649,3.607-0.973   c0.893,0.357,1.03,0.755,0.98,1.143c0.01-0.009,0.019-0.018,0.027-0.025c0.153-0.134,0.358-0.318,0.638-0.256   c0.265,0.061,0.402,0.31,0.482,0.493c0.372,0.856,1.153,2.386,1.662,2.839c0.607,0.539,1.101,0.332,1.924-0.076   c0.987-0.491,2.218-1.104,3.62,0.849l0.079,0.111c0.325,0.45,0.523,0.723,0.421,1.029c-0.097,0.289-0.408,0.408-0.747,0.515   C62.013,83.035,61.366,86.566,61.262,87.244z M86.491,68.693c-0.211,0.194-0.52,0.753-0.476,0.967   c0.087,0.416,0.356,0.826,0.657,0.768c0.171-0.125,0.963-1.132,0.993-1.476c-0.015,0.004-0.036,0.006-0.065,0.009   c-0.02,0.028-0.039,0.063-0.059,0.096c-0.129,0.209-0.302,0.493-0.613,0.432c-0.309-0.065-0.385-0.423-0.431-0.751   C86.496,68.721,86.492,68.706,86.491,68.693z M51.525,48.712c0.103,0,0.214,0.018,0.33,0.063c0.225,0.086,0.313,0.229,0.347,0.334   c0.022,0.072,0.026,0.141,0.02,0.207c0.042-0.092,0.083-0.192,0.123-0.289c0.222-0.534,0.495-1.199,1.194-1.293   c0.405-0.055,0.87,0.042,1.322,0.135c0.295,0.061,0.782,0.162,0.904,0.1c-0.005-0.006,0.002-0.067-0.037-0.207   c-0.094-0.344-0.125-0.341-0.302-0.304c-0.355,0.067-0.786,0.047-0.951-0.728c-0.113-0.536-0.319-0.559-0.933-0.63   c-0.33-0.038-0.742-0.085-1.201-0.252c-0.074-0.025-0.426-0.075-0.659-0.107c-0.021-0.002-0.041-0.005-0.06-0.008   c-0.041,0.448-0.216,1.087-0.484,1.993c-0.125,0.421-0.286,0.963-0.339,1.261c0.02-0.012,0.041-0.024,0.058-0.035   C51.021,48.851,51.243,48.712,51.525,48.712z M60.032,44.892c0.129,0,0.214,0.052,0.269,0.105c0.063,0.04,0.413,0.146,0.696,0.23   c0.622,0.188,1.397,0.421,1.825,0.753c1.926,1.49,3.477,2.188,4.365,1.962c0.325-0.082,0.559-0.292,0.716-0.644   c0.116-0.263,0.232-0.494,0.337-0.703c0.723-1.448,0.797-1.6-4.603-4.766c-0.597-0.35-0.979-0.606-0.846-0.954   c0.145-0.382,0.601-0.291,1.954-0.018c0.756,0.153,2.164,0.438,2.426,0.293c0.415-0.397,0.585-0.774,0.503-1.141   c-0.194-0.877-1.778-1.624-2.59-1.896l-0.094-0.048c-0.177-0.099-0.313-0.326-0.445-0.546c-0.286-0.479-0.396-0.555-0.645-0.452   c-0.145,0.06-0.281,0.128-0.412,0.194c-0.623,0.312-1.328,0.665-2.259-0.325c-0.185-0.195-0.421-0.492-0.359-0.818   c0.061-0.316,0.347-0.452,0.557-0.551c0.043-0.02,0.1-0.047,0.142-0.07c-0.061-0.094-0.089-0.109-0.089-0.109   c-0.005,0.008-0.083,0.055-0.132,0.086c-0.166,0.1-0.441,0.267-0.757,0.121c-0.498-0.233-0.313-0.783-0.224-1.047   c0.022-0.064,0.055-0.162,0.068-0.226c-0.007,0.001-0.012,0.001-0.018,0.002c-0.083,0.005-0.186,0.011-0.299-0.017   c-0.457-0.119-0.708-0.357-0.95-0.587c-0.236-0.226-0.459-0.439-0.926-0.601c-0.094-0.029-0.143-0.005-0.374,0.24   c-0.255,0.269-0.64,0.673-1.295,0.47c-0.13-0.04-0.269-0.076-0.412-0.113c-0.855-0.221-2.026-0.524-2.249-1.945   c-0.081-0.514-0.795-0.781-1.424-0.813c-0.821-0.037-1.798,0.283-2.01,1.091c-0.184,0.7-0.132,1.052-0.097,1.285   c0.085,0.572-0.099,0.757-0.823,1.142c-0.295,0.158-0.539,0.163-0.721,0.018c-0.364-0.291-0.191-0.938,0.07-1.917   c0.119-0.44,0.329-1.226,0.287-1.506c-0.134,0.07-0.405,0.297-0.735,0.781c-0.624,0.912-1.235,2.42-0.899,3.669   c0.042,0.018,0.404,0.195,0.696,0.337c0.746,0.363,1.753,0.855,2.354,1.591c0.107,0.018,0.217,0.031,0.323,0.044   c0.22,0.028,0.43,0.062,0.628,0.115c0.484-0.149,1.223-0.549,2.273-1.537c0.117-0.11,0.329-0.215,0.679-0.094   c1.364,0.471,4.371,4.28,4.769,6.876c0.129,0.843,0.177,1.159-0.004,1.384c-0.136,0.171-0.328,0.185-0.5,0.197   c-0.242,0.018-0.607,0.043-1.199,0.462c-0.244,0.172-0.375,0.346-0.403,0.532c-0.033,0.224,0.078,0.505,0.333,0.835   c0.13,0.171,0.287,0.229,0.481,0.186c0.379-0.082,0.764-0.501,0.829-0.792c0.063-0.296,0.939-0.708,1.041-0.738   C59.925,44.9,59.981,44.892,60.032,44.892z M51.512,45.069c0.09,0.013,0.18,0.025,0.259,0.037c0.421,0.058,0.665,0.093,0.79,0.139   c0.096,0.035,0.189,0.063,0.281,0.087c-0.006-0.004-0.009-0.007-0.013-0.011c-1.404-1.223-1.752-1.132-1.771-1.126   c0.003,0.001-0.078,0.128,0.037,0.662c0.141-0.005,0.247,0.05,0.319,0.109C51.451,44.996,51.483,45.031,51.512,45.069z    M47.915,38.844c1.184,0,1.327,1.944,1.341,2.544c0.018,0.706,0.078,0.972,0.132,1.064c0.014-0.012,0.044-0.029,0.086-0.061   c0.226-0.168,0.269-0.569,0.302-0.89c0.035-0.33,0.065-0.614,0.313-0.741c0.099-0.051,0.26-0.085,0.472,0.037   c0.167,0.096,0.279,0.112,0.338,0.047c0.266-0.299,0.166-1.64-0.656-2.814c-0.047-0.048-0.081-0.096-0.103-0.14   c-0.503-0.645-1.461-1.112-2.164-1.456c-0.638-0.312-0.959-0.468-1.034-0.747c-0.228-0.847-0.088-1.815,0.223-2.688   c-0.157,0.1-0.316,0.192-0.461,0.278c-0.153,0.089-0.343,0.2-0.386,0.243c-0.308,0.36-0.716,0.123-0.898,0.004   c-0.075,0.132-0.178,0.25-0.279,0.365c-0.337,0.386-0.338,0.463-0.198,0.626c0.553,0.638,1.577,2.209,1.889,2.899   c0.194,0.434-0.001,0.737-0.204,0.929c0.23-0.052,0.552-0.052,0.815,0.3c0.065,0.086,0.111,0.176,0.143,0.267   c0.082-0.038,0.18-0.063,0.302-0.066C47.897,38.844,47.906,38.844,47.915,38.844z M32.212,39.656   c-0.307,1.143-0.336,1.892-0.086,2.229c0.259,0.349,0.926,0.354,1.697,0.36c0.489,0.003,1.037,0.008,1.596,0.097   c-0.199-0.324-0.437-0.772-0.234-1.23c0.28-0.632,0.561-0.947,0.91-1.022c0.471-0.104,0.85,0.246,1.337,0.684   c0.647,0.581,1.532,1.375,2.968,1.43c0.633,0.016,0.747-0.217,0.949-0.697c0.034-0.08,0.068-0.161,0.105-0.241   c0.099-0.213,0.247-0.347,0.397-0.437c-0.292,0.014-0.619-0.005-0.812-0.259c-0.231-0.304-0.083-0.734-0.035-0.875   c0.088-0.254,0.171-0.481,0.253-0.683c-0.161-0.06-0.332-0.148-0.514-0.241c-0.202-0.104-0.598-0.301-0.69-0.278   c0.014,0.603-0.202,1.063-0.577,1.353c-0.41,0.316-0.972,0.405-1.664,0.268c-0.313-0.063-0.547-0.208-0.693-0.429   c-0.103-0.155-0.147-0.324-0.162-0.489C35.844,39.852,33.392,39.933,32.212,39.656z M42.201,40.173   c0.118,0,0.238,0.009,0.347,0.043c-0.058-1.184-0.184-1.646-0.26-1.821c-0.111,0.14-0.335,0.517-0.678,1.509   c-0.075,0.219-0.054,0.29-0.054,0.291c0.04,0.006,0.273-0.005,0.396-0.013C42.031,40.178,42.115,40.173,42.201,40.173z    M46.018,30.962c-0.156,0-0.291,0.032-0.404,0.096c-0.486,0.275-0.656,1.169-0.836,2.116c-0.013,0.066-0.025,0.133-0.039,0.2   c0.069-0.082,0.131-0.164,0.146-0.216c0.059-0.211,0.187-0.298,0.283-0.334c0.229-0.083,0.421,0.045,0.577,0.147   c0.037,0.024,0.092,0.061,0.133,0.083c0.096-0.09,0.249-0.181,0.502-0.33c0.365-0.213,1.22-0.714,1.192-1.029   c-0.01-0.132-0.244-0.355-0.862-0.584C46.442,31.012,46.212,30.962,46.018,30.962z M86.959,66.849   c-0.207,0-0.403-0.069-0.576-0.233c-0.524-0.496-0.406-0.843-0.238-1.153c0.083-0.157,0.145-0.271,0.092-0.502   c-0.016-0.072-0.033-0.094-0.033-0.094c-0.02-0.005-0.146,0.013-0.227,0.022c-0.297,0.042-0.852,0.12-1.18-0.518   c-0.419-0.815-0.089-5.379,1.014-6.595c0.394-0.434,0.792-0.362,0.995-0.283c1.074,0.428,0.8,1.519,0.618,2.24   c-0.113,0.449-0.229,0.914-0.041,1.036c0.574,0.372,1.469-0.146,1.729-0.313c0.212-0.125,0.38-0.306,0.541-0.482   c0.323-0.352,0.767-0.83,1.394-0.49c0.465,0.254,0.523,0.721,0.559,0.999c0.005,0.045,0.013,0.103,0.021,0.148   c0.721-0.079,1.111-0.062,1.269,0.216c0.149,0.264-0.034,0.506-0.181,0.7c-0.06,0.079-0.186,0.243-0.186,0.306l0,0   c0.004,0,0.138,0.197,1.247,0.304c0.488-0.082,0.886,0.036,1.059,0.334c0.267,0.46-0.14,1.07-0.47,1.489   c-0.127,0.162-0.334,0.439-0.627,0.365c-0.257-0.063-0.305-0.319-0.333-0.474c-0.007-0.038-0.018-0.097-0.027-0.136   c-0.366-0.062-0.486,0-0.523,0.03c-0.094,0.078-0.092,0.345-0.09,0.579c0.003,0.365,0.009,0.819-0.345,1.076   c-0.311,0.228-0.786,0.221-1.542-0.026c-0.343-0.113-0.484-0.314-0.541-0.465c-0.039-0.099-0.051-0.198-0.048-0.295   c-0.203,0.135-0.441,0.295-0.697,0.467l0,0c-0.119,0.079-0.292,0.238-0.497,0.426C88.457,66.106,87.641,66.849,86.959,66.849z    M86.155,64.231c0.271,0,0.594,0.093,0.706,0.585c0.106,0.465-0.049,0.757-0.153,0.948c-0.094,0.177-0.097,0.184,0.115,0.386   c0.314,0.295,1.383-0.682,1.841-1.098c0.236-0.217,0.424-0.386,0.57-0.483l0,0c1.657-1.109,1.657-1.111,1.885-0.897   c0.205,0.19,0.067,0.429-0.014,0.57c-0.057,0.1-0.207,0.362-0.17,0.458c0.008,0.021,0.05,0.055,0.142,0.085   c0.742,0.243,0.935,0.142,0.965,0.119c0.086-0.063,0.085-0.335,0.083-0.554c-0.004-0.359-0.009-0.804,0.319-1.077   c0.242-0.202,0.608-0.254,1.113-0.156c0.219,0.041,0.334,0.188,0.397,0.343c0.358-0.486,0.323-0.65,0.323-0.652   c-0.022-0.018-0.184-0.063-0.472-0.018l-0.04,0.007l-0.054-0.003c-1.072-0.102-1.603-0.31-1.771-0.694   c-0.148-0.336,0.044-0.645,0.206-0.866c-0.112,0.004-0.271,0.015-0.492,0.039c-0.594,0.071-0.656-0.477-0.686-0.71   c-0.036-0.284-0.071-0.43-0.229-0.516c-0.152-0.083-0.242-0.046-0.615,0.361c-0.186,0.201-0.395,0.429-0.661,0.584   c-0.443,0.286-1.557,0.883-2.431,0.314c-0.572-0.371-0.391-1.093-0.231-1.729c0.217-0.862,0.265-1.29-0.233-1.487   c-0.048-0.02-0.131-0.052-0.282,0.115c-0.877,0.968-1.242,5.243-0.919,5.872c0.115,0.221,0.216,0.219,0.521,0.177   C85.961,64.244,86.055,64.231,86.155,64.231z M5.749,59.665c-0.049,0-0.094-0.009-0.136-0.022c-0.594-0.191-0.568-1.797-0.5-2.735   c0.16-2.188,0.706-2.279,0.885-2.309c0.135-0.023,0.239-0.049,0.321-0.069c0.591-0.143,0.699,0.088,0.972,0.649l0.213,0.429   c0.56,1.105-0.05,1.964-0.696,2.872c-0.182,0.257-0.375,0.528-0.556,0.823C6.077,59.585,5.897,59.665,5.749,59.665z M6.549,55.132   c-0.022,0.006-0.047,0.013-0.075,0.02c-0.094,0.023-0.213,0.053-0.369,0.079c-0.307,0.253-0.503,2.717-0.312,3.597   c0.163-0.254,0.331-0.492,0.492-0.719c0.679-0.954,1.015-1.485,0.647-2.211l-0.217-0.438C6.65,55.328,6.589,55.202,6.549,55.132z    M53.988,51.784c-0.115,0-0.227-0.019-0.332-0.059c-0.391-0.145-0.64-0.417-0.701-0.765c-0.078-0.442,0.169-0.979,0.63-1.368l0,0   c0.087-0.074,0.167-0.147,0.241-0.216c0.278-0.258,0.553-0.506,0.892-0.463c0.316,0.033,0.533,0.289,0.67,0.479   c0.36,0.506,0.148,1.224-0.225,1.709C54.829,51.539,54.395,51.784,53.988,51.784z M53.999,50.082   c-0.275,0.234-0.449,0.557-0.412,0.768c0.008,0.044,0.03,0.178,0.292,0.275c0.212,0.078,0.53-0.092,0.775-0.412   c0.267-0.348,0.355-0.747,0.212-0.948c-0.145-0.202-0.214-0.214-0.216-0.214c-0.04-0.028-0.269,0.184-0.39,0.297   C54.179,49.923,54.093,50.003,53.999,50.082L53.999,50.082z M34.917,37.514c-0.391,0-0.878-0.242-1.474-0.6   c-0.554,0.245-1.209,0.473-1.561,0.45c-0.352-0.013-0.496-0.2-0.551-0.311c-0.151-0.305-0.021-0.712,0.437-1.363l0,0   c0.283-0.402,0.803-0.076,1.586,0.416c0.039,0.024,0.081,0.05,0.124,0.077c0.116-0.056,0.221-0.11,0.307-0.157   c-0.184-0.206-0.635-0.55-0.981-0.814c-1.096-0.835-2.23-1.699-1.759-2.484c0.501-0.836,2.358-2.194,3.282-2.048   c0.274,0.041,0.477,0.203,0.571,0.45c0.072-0.083,0.163-0.148,0.288-0.162l0.156-0.017l0.172,0.142   c0.169,0.178,0.239,0.461,0.306,0.735c0.033,0.134,0.088,0.357,0.133,0.411c0.188,0.196,1.217,2.104,0.824,3.628   c-0.204,0.789-0.765,1.346-1.623,1.612C35.08,37.502,35,37.514,34.917,37.514z M34.128,36.57c0.353,0.193,0.693,0.344,0.836,0.297   c0.622-0.193,1.004-0.546,1.168-1.078c0.37-1.195-0.479-2.901-0.652-3.119c-0.151-0.158-0.215-0.417-0.283-0.691   c-0.009-0.036-0.019-0.078-0.03-0.12c-0.093,0.107-0.22,0.195-0.398,0.168c-0.318-0.049-0.414-0.438-0.464-0.648   c-0.013-0.051-0.022-0.059-0.074-0.066c-0.606-0.091-2.23,1.068-2.637,1.745c-0.176,0.292,1.067,1.24,1.597,1.644   c0.921,0.701,1.528,1.165,1.244,1.638C34.406,36.392,34.293,36.474,34.128,36.57z M31.923,36.729   c0.185-0.001,0.498-0.095,0.846-0.233c-0.211-0.13-0.429-0.258-0.561-0.313C32.008,36.482,31.944,36.648,31.923,36.729z    M42.652,34.609c-0.986,0-2.316-1.292-2.75-2.194c-0.301-0.626-0.165-0.982,0.003-1.17v0c0.402-0.451,2.316-1.995,2.853-1.782   c0.435,0.177,1.007,3.933,0.819,4.461c-0.149,0.419-0.457,0.663-0.866,0.685C42.692,34.609,42.671,34.609,42.652,34.609z    M40.384,31.67c-0.033,0.037-0.036,0.195,0.095,0.466c0.419,0.87,1.589,1.857,2.198,1.831c0.107-0.005,0.217-0.041,0.295-0.26   c0.172-0.483-0.332-2.749-0.547-3.554C41.941,30.4,40.849,31.147,40.384,31.67L40.384,31.67z M28.411,32.597   c-0.075,0-0.151-0.005-0.228-0.015c-0.573-0.077-1.023-0.411-1.118-0.832c-0.027-0.12-0.129-0.27-0.238-0.429   c-0.306-0.451-0.768-1.132-0.235-2.227v0c0.654-1.337,1.931-2.852,2.603-3.431c0.345-0.299,0.673-0.434,1.009-0.401   c0.497,0.043,0.883,0.451,1.131,0.753c0.369,0.451,0.562,0.572,0.947,0.814c0.168,0.105,0.364,0.229,0.614,0.404   c0.472,0.331,0.958,0.743,0.988,1.291c0.021,0.374-0.171,0.732-0.585,1.096c-0.389,0.342-1.019,0.652-1.686,0.98   c-0.813,0.4-1.735,0.854-1.961,1.283C29.412,32.335,28.949,32.597,28.411,32.597z M27.169,29.375   c-0.371,0.76-0.099,1.161,0.19,1.585c0.137,0.202,0.278,0.41,0.332,0.648c0.029,0.13,0.268,0.296,0.576,0.337   c0.176,0.021,0.606,0.035,0.817-0.362c0.323-0.612,1.257-1.072,2.246-1.559c0.6-0.295,1.22-0.601,1.545-0.887   c0.253-0.222,0.377-0.417,0.368-0.58c-0.015-0.278-0.415-0.59-0.714-0.801c-0.239-0.168-0.428-0.286-0.587-0.387   c-0.402-0.252-0.667-0.419-1.103-0.951c-0.272-0.333-0.498-0.504-0.69-0.521c-0.154-0.008-0.327,0.068-0.535,0.248   C28.985,26.69,27.785,28.114,27.169,29.375L27.169,29.375z M46.8,29.829c-0.234,0-0.451-0.055-0.647-0.166   c-0.727-0.411-0.95-1.438-1.112-2.189c-0.023-0.106-0.05-0.232-0.077-0.338c-0.143,0.161-0.327,0.366-0.636,0.337   c-0.228-0.018-0.426-0.168-0.607-0.458c-0.305-0.49-0.298-0.981,0.02-1.313c0.393-0.41,1.119-0.424,1.809-0.036   c0.096,0.054,0.177,0.102,0.246,0.142c0.051-0.048,0.114-0.093,0.188-0.131c0.436-0.231,0.913-0.539,1.153-1.065   c-0.007-0.055-0.133-0.156-0.202-0.211c-0.178-0.145-0.403-0.326-0.386-0.62c0.015-0.281,0.252-0.464,0.429-0.576   c0.503-0.323,0.989-0.028,1.36,0.317c-0.141-0.646-0.192-0.64-0.334-0.64l0,0c-0.012,0-0.024,0.001-0.039,0.001   c-0.993,0-3.531-1.077-3.907-1.496c-0.492-0.548-1.128-2.022-0.625-2.868c-0.014-0.03-0.033-0.067-0.049-0.098   c-0.143-0.28-0.48-0.937,0.36-1.471c0.297-0.189,0.593-0.251,0.888-0.179c0.604,0.149,0.997,0.834,1.344,1.439   c0.171,0.299,0.49,0.854,0.638,0.854c0,0,0,0,0.001,0c0.002,0,0.174-0.011,0.498-0.645c-0.044-0.066-0.364-0.377-0.964-0.854   l-0.165-0.132c-1.146-0.94-1.44-1.245-1.333-1.595c0.095-0.306,0.422-0.335,0.801-0.369c0.309-0.027,0.691-0.062,1.062-0.209   c0.142-0.057,0.45-0.29,0.605-0.525c0.122-0.182,0.225-0.422,0.334-0.676c0.182-0.422,0.387-0.901,0.746-1.265   c0.5-0.508,1.563-0.605,2.267-0.669c0.145-0.013,0.267-0.024,0.354-0.037c0.475-0.077,2.01,1.108,2.197,1.975   c0.055,0.25,0.083,0.86-0.82,1.111c-0.175,0.048-0.254,0.107-0.27,0.143c-0.034,0.077,0.081,0.297,0.143,0.416   c0.103,0.194,0.207,0.395,0.12,0.601c-0.186,0.442-0.394,2.415-0.563,4c-0.109,1.044-0.216,2.03-0.308,2.553   c-0.132,0.752-0.177,1.183-0.188,1.426c0.138-0.113,0.295-0.21,0.479-0.178c0.124,0.023,0.227,0.101,0.288,0.219   c0.159,0.302,0.155,0.66-0.011,1.037c-0.229,0.526-0.781,1.051-1.226,1.17c-0.141,0.038-1.484,0.216-1.864,0.167   c-0.474-0.059-0.756-0.111-0.989-0.154c-0.354-0.065-0.565-0.104-1.163-0.116c-0.012,0-0.023-0.001-0.035-0.001   c0.06,0.152,0.106,0.337,0.113,0.569c0.012,0.432,0.14,0.753,0.341,0.857c0.217,0.11,0.585,0.008,1.039-0.291   c1.026-0.679,2.541-0.84,3.374-0.361c0.434,0.249,0.657,0.649,0.631,1.127c-0.058,1.044-1.245,1.065-2.393,1.086   c-0.751,0.014-1.603,0.029-2.313,0.273C47.188,29.792,46.989,29.829,46.8,29.829z M45.035,26.339c0.008,0,0.015,0,0.023,0   c0.099,0.005,0.243,0.046,0.363,0.217c0.11,0.157,0.165,0.406,0.246,0.782c0.129,0.596,0.324,1.497,0.8,1.766   c0.192,0.108,0.43,0.112,0.725,0.009c0.808-0.276,1.712-0.292,2.511-0.307c1.182-0.021,1.742-0.076,1.764-0.481   c0.013-0.236-0.086-0.406-0.311-0.535c-0.554-0.317-1.8-0.256-2.701,0.34c-0.675,0.446-1.242,0.555-1.688,0.325   c-0.417-0.217-0.667-0.73-0.687-1.408c-0.004-0.164-0.038-0.287-0.08-0.383l-0.025,0.021l-0.244-0.159   c-0.063-0.042-0.202-0.135-0.498-0.302c-0.468-0.262-0.879-0.237-1.031-0.079c-0.147,0.154-0.006,0.422,0.062,0.531   c0.085,0.137,0.134,0.163,0.135,0.163c-0.012-0.018,0.079-0.122,0.126-0.177C44.651,26.517,44.806,26.339,45.035,26.339z    M46.943,25.829c0.449,0.02,0.68,0.062,0.979,0.117c0.226,0.042,0.498,0.092,0.954,0.149c0.249,0.032,1.47-0.117,1.624-0.152   c0.198-0.053,0.624-0.403,0.799-0.807c0.027-0.06,0.046-0.117,0.059-0.17c-0.164,0.133-0.377,0.259-0.607,0.127   c-0.295-0.166-0.375-0.54-0.062-2.315c0.088-0.501,0.192-1.477,0.302-2.51c0.215-2.035,0.384-3.539,0.579-4.102   c-0.018-0.038-0.046-0.091-0.066-0.133c-0.128-0.243-0.32-0.609-0.165-0.967c0.103-0.238,0.334-0.408,0.688-0.506   c0.382-0.106,0.375-0.249,0.373-0.295c-0.021-0.535-1.225-1.478-1.533-1.538c-0.044,0.013-0.18,0.026-0.341,0.041   c-0.535,0.049-1.533,0.139-1.867,0.48c-0.274,0.278-0.447,0.68-0.615,1.068c-0.12,0.281-0.235,0.547-0.389,0.777   c-0.205,0.309-0.601,0.645-0.901,0.765c-0.458,0.183-0.912,0.223-1.243,0.253c-0.022,0.001-0.044,0.004-0.067,0.006   c0.182,0.181,0.5,0.456,0.948,0.824l0.156,0.125c0.771,0.61,1.387,1.156,1.136,1.647c-0.233,0.458-0.563,0.983-1.053,0.995   c-0.521,0.042-0.86-0.565-1.21-1.176c-0.269-0.469-0.604-1.053-0.942-1.137c-0.043-0.009-0.172-0.042-0.39,0.097   c-0.347,0.221-0.284,0.343-0.133,0.638c0.095,0.187,0.227,0.442,0.052,0.683c-0.355,0.489,0.144,1.718,0.528,2.147   c0.254,0.277,2.592,1.283,3.419,1.283c0.011,0,0.021,0,0.03,0l0,0c0.767-0.04,0.848,0.471,1.087,1.662l0.018,0.094   c0.048,0.241,0.113,0.57-0.161,0.705c-0.267,0.132-0.459-0.089-0.682-0.344c-0.237-0.27-0.675-0.773-0.924-0.614   c-0.041,0.026-0.071,0.048-0.094,0.066c0.034,0.03,0.078,0.064,0.109,0.091c0.196,0.158,0.604,0.487,0.382,0.975   C47.531,25.29,47.25,25.592,46.943,25.829z M38.28,29.543c-0.821,0-1.742-0.151-2.33-0.332c-0.843-0.258-1.232-0.617-1.158-1.064   c0.033-0.199,0.117-0.329,0.204-0.413c-0.646-0.113-1.297-0.354-1.41-1.082c-0.051-0.337,0.041-0.711,0.23-1.049   c-0.228,0.061-0.401,0.079-0.48,0.043h0c-0.583-0.255-0.689-0.678-0.701-0.907c-0.037-0.743,0.744-1.532,1.485-1.95   c0.813-0.458,1.571-0.521,2.084-0.175c0.727,0.492,0.52,1.064,0.396,1.287c-0.129,0.235-0.391,0.479-0.713,0.707   c0.405,0.14,0.862,0.499,1.254,1.307l0.001,0c0.042,0.088,0.085,0.185,0.131,0.285c0.091,0.201,0.249,0.552,0.362,0.684   c0.007-0.009,0.014-0.019,0.023-0.031c0.095-0.139,0.085-0.179-0.102-0.432c-0.164-0.223-0.413-0.56-0.271-1.035   c0.085-0.285,0.238-0.68,0.581-0.835c0.308-0.139,0.625-0.026,0.836,0.073c0.172,0.081,0.595,0.955,0.9,1.679   c-0.028-0.106-0.04-0.215-0.034-0.327c0.028-0.526,0.444-0.984,1.273-1.4v0c0.33-0.165,0.816-0.059,1.446,0.317   c0.433,0.258,1.226,2.568,1.179,3.434c-0.017,0.307-0.126,0.509-0.326,0.601c-0.321,0.146-0.647-0.108-0.755-0.191   c-0.224-0.173-0.507-0.355-0.806-0.548c-0.724-0.467-1.52-0.98-1.853-1.581c0.088,0.222,0.157,0.411,0.192,0.532   c0.358,1.226,0.081,1.834,0.079,1.841C39.807,29.395,39.093,29.543,38.28,29.543z M35.496,28.189c-0.026,0-0.046,0.003-0.06,0.01   c0.029,0.139,0.504,0.434,1.643,0.605c1.322,0.199,2.228,0.038,2.342-0.104c-0.001-0.004,0.149-0.47-0.117-1.383   c-0.214-0.731-0.792-1.854-0.957-2.149c-0.145-0.055-0.199-0.042-0.218-0.033c-0.027,0.012-0.124,0.079-0.229,0.434   c-0.047,0.154,0.011,0.251,0.172,0.471c0.178,0.241,0.476,0.646,0.115,1.174c-0.211,0.308-0.437,0.354-0.593,0.343   c-0.43-0.038-0.662-0.551-0.905-1.093c-0.042-0.094-0.084-0.186-0.125-0.269c-0.273-0.562-0.733-1.193-1.385-0.987   c-0.574,0.179-1.027,0.91-0.959,1.346c0.066,0.431,0.628,0.529,1.415,0.62c0.655,0.076,1.273,0.147,1.394,0.669   c0.062,0.263-0.03,0.414-0.118,0.495c-0.219,0.2-0.519,0.103-0.867-0.013C35.914,28.282,35.634,28.189,35.496,28.189z    M41.129,25.148c-0.587,0.295-0.906,0.594-0.92,0.862c-0.027,0.512,0.981,1.163,1.718,1.639c0.315,0.203,0.615,0.397,0.851,0.579   c0.021,0.017,0.041,0.031,0.058,0.042c0.035-0.619-0.646-2.585-0.905-2.848C41.471,25.151,41.19,25.115,41.129,25.148z    M35.431,23.037c-0.283,0-0.633,0.106-0.996,0.312c-0.659,0.371-1.179,0.98-1.16,1.359c0.003,0.054,0.01,0.191,0.244,0.316   c0.471-0.114,2.416-0.919,2.56-1.53c0.01-0.045,0.039-0.164-0.234-0.348C35.736,23.073,35.595,23.037,35.431,23.037z    M37.886,24.394c-0.17,0-0.304-0.048-0.392-0.092c-0.385-0.196-0.617-0.674-0.635-1.314c-0.02-0.678,0.488-2.155,1.342-2.439   c0.244-0.082,0.724-0.125,1.169,0.506c0.366,0.519,0.508,1.033,0.419,1.526c-0.134,0.751-0.756,1.256-1.212,1.571   C38.31,24.335,38.075,24.394,37.886,24.394z M38.477,21.142c-0.033,0-0.058,0.008-0.073,0.014c-0.43,0.143-0.92,1.235-0.903,1.813   v0c0.012,0.461,0.161,0.698,0.283,0.76c0.14,0.071,0.329-0.037,0.43-0.106c0.361-0.249,0.853-0.64,0.945-1.155   c0.058-0.323-0.045-0.665-0.313-1.044C38.68,21.188,38.554,21.142,38.477,21.142z M42.481,24.371c-0.05,0-0.103-0.004-0.156-0.013   c-0.684-0.11-1.972-1.083-1.988-1.809c-0.002-0.147,0.011-0.36,0.159-0.509c0.084-0.084,0.18-0.117,0.262-0.13   c0-0.001,0-0.002,0-0.004c-0.014-0.093-0.073-0.134-0.313-0.217c-0.183-0.063-0.433-0.149-0.491-0.417   c-0.058-0.27,0.134-0.518,0.439-0.807c0.31-0.294,0.709-0.32,1.099-0.068c0.909,0.589,1.831,2.88,1.585,3.577   C42.988,24.229,42.77,24.371,42.481,24.371z M40.979,22.542c0.01,0.131,0.26,0.482,0.718,0.817c0.42,0.307,0.738,0.392,0.812,0.37   c0.088-0.34-0.657-2.343-1.371-2.797c-0.168-0.106-0.237-0.063-0.304,0h-0.001c-0.07,0.066-0.12,0.119-0.157,0.161   c0.236,0.082,0.644,0.236,0.717,0.721c0.027,0.185,0.041,0.419-0.103,0.583C41.192,22.506,41.071,22.535,40.979,22.542z"></path></g></svg>