<svg height='100px' width='100px'  fill="#000000" xmlns="http://www.w3.org/2000/svg" xmlns:xlink="http://www.w3.org/1999/xlink" version="1.1" x="0px" y="0px" viewBox="0 0 64 64" style="enable-background:new 0 0 64 64;" xml:space="preserve"><g><rect x="17" y="55" width="2" height="2"></rect><rect x="21" y="55" width="2" height="2"></rect><rect x="25" y="55" width="2" height="2"></rect><rect x="9" y="45" width="2" height="2"></rect><rect x="13" y="45" width="2" height="2"></rect><path d="M60.08,1h-1.462c-0.763,0-1.448,0.424-1.789,1.105L55.382,5H34c-2.948,0-5.471,1.835-6.501,4.42   c-2.022,0.368-3.984,0.984-5.853,1.836C19.797,9.847,17.498,9,15,9C8.935,9,4,13.935,4,20c0,3.258,1.432,6.181,3.69,8.197   C7.24,30.091,7,32.038,7,34c0,1.314,0.119,2.628,0.323,3.918C7.12,38.231,7,38.601,7,39v2c-1.103,0-2,0.897-2,2v6H3   c-1.103,0-2,0.897-2,2v3c0,4.963,4.038,9,9,9h16c3.136,0,5.899-1.614,7.511-4.053c3.072-0.183,6.041-0.922,8.844-2.202   C44.203,58.153,46.502,59,49,59c6.065,0,11-4.935,11-11c0-3.26-1.434-6.185-3.695-8.201C56.758,37.897,57,35.951,57,34   c0-7.335-3.245-14.273-8.769-19h3.151l2.447,4.895C54.17,20.576,54.855,21,55.618,21H57c1.103,0,2-0.897,2-2v-4.129   c1.756-0.415,3.107-1.886,3.294-3.756l0.696-6.953C62.997,4.081,63,4.001,63,3.92C63,2.31,61.69,1,60.08,1z M37.117,15l0.5,4   H25.949c-0.033-0.363-0.084-0.721-0.152-1.074c0.799-1.2,1.69-2.323,2.643-3.376C28.896,14.83,29.427,15,30,15H37.117z M54.97,33   h-9.994c-0.111-3.718-0.838-7.277-2.166-10.608c0.141-0.146,0.267-0.309,0.361-0.498L43.618,21h7.347   C53.371,24.513,54.78,28.664,54.97,33z M38,48c0,0.338,0.021,0.67,0.051,1H31c0-1.103-0.897-2-2-2v-2c0-1.103-0.897-2-2-2h-2   c-1.034,0-1.877,0.792-1.98,1.799c-1.217-3.076-1.883-6.357-1.992-9.799h21.949c-0.046,1.363-0.186,2.719-0.424,4.107   C39.8,41.108,38,44.344,38,48z M33,51h4.572c-0.886,1.223-1.773,2.247-2.576,3.085C34.996,54.057,35,54.029,35,54v-1   C35,51.897,34.103,51,33,51z M11,37H9.216c-0.086-0.663-0.144-1.329-0.173-2h9.985c0.113,3.833,0.878,7.483,2.282,10.896L17,41.586   C16.622,41.208,16.12,41,15.586,41H13v-2C13,37.897,12.103,37,11,37z M27,47h-2v-2h2V47z M23,49h2v2h-2V49z M27,49h2v2h-2V49z    M38.963,52.479c0.457,1.02,1.066,1.955,1.796,2.782c-1.822,0.754-3.716,1.266-5.662,1.528   C36.243,55.741,37.604,54.312,38.963,52.479z M41.382,21h-1.499l-0.876-7.01C39.002,13.955,39,13.919,39,13.883   C39,13.396,39.396,13,39.883,13h4.499C44.723,13,45,13.277,45,13.618c0,0.096-0.022,0.191-0.065,0.276L41.382,21z M39.883,23H40.9   c1.268,3.133,1.965,6.488,2.076,10H21.022c0.045-1.38,0.182-2.752,0.41-4.096c2.507-1.816,4.222-4.655,4.517-7.904h11.918   l0.031,0.248C38.023,22.247,38.876,23,39.883,23z M27.167,12.946c-0.752,0.813-1.465,1.672-2.132,2.572   c-0.457-1.019-1.066-1.954-1.796-2.781c1.224-0.505,2.489-0.902,3.783-1.187C27.013,11.699,27,11.848,27,12   C27,12.332,27.067,12.647,27.167,12.946z M6,20c0-4.963,4.038-9,9-9s9,4.037,9,9s-4.038,9-9,9S6,24.963,6,20z M15,31   c1.5,0,2.931-0.304,4.235-0.85c-0.112,0.944-0.183,1.895-0.213,2.85h-9.99c0.051-1.186,0.184-2.363,0.414-3.521   C11.079,30.439,12.973,31,15,31z M9,39h2v2H9V39z M7,43h8.586L21,48.414V51h-7.586L12,49.586C11.622,49.208,11.12,49,10.586,49H7   V43z M26,61H10c-3.86,0-7-3.141-7-7v-3h7.586L12,52.414C12.378,52.792,12.88,53,13.414,53H33v1C33,57.859,29.86,61,26,61z M58,48   c0,4.963-4.038,9-9,9s-9-4.037-9-9s4.038-9,9-9S58,43.037,58,48z M49,37c-1.503,0-2.937,0.305-4.243,0.853   c0.117-0.954,0.19-1.902,0.22-2.853h9.99c-0.052,1.181-0.186,2.357-0.418,3.518C52.918,37.56,51.025,37,49,37z M49.427,19h-4.809   l1.554-3.108C47.365,16.827,48.454,17.868,49.427,19z M57,19h-1.382l-2.553-5.105C53.022,13.81,53,13.714,53,13.618   C53,13.277,53.277,13,53.618,13H57V19z M60.304,10.915c-0.084,0.84-0.607,1.526-1.326,1.861C58.865,11.78,58.026,11,57,11h-3.382   c-1.23,0-2.257,0.855-2.536,2h-4.163c-0.28-1.145-1.307-2-2.536-2h-4.499c-1.28,0-2.355,0.844-2.73,2H30c-0.551,0-1-0.448-1-1   c0-0.342,0.035-0.677,0.101-1H33V9h-2.974C30.939,7.793,32.373,7,34,7h21.382c0.763,0,1.448-0.424,1.789-1.105L58.618,3h1.462   c0.507,0,0.92,0.413,0.918,0.98L60.304,10.915z"></path><path d="M14,24.816V27h2v-2h2v-3c0-1.654-1.346-3-3-3c-0.551,0-1-0.448-1-1v-1h1c0.551,0,1,0.448,1,1v1h2v-1   c0-1.302-0.839-2.402-2-2.816V13h-2v2h-2v3c0,1.654,1.346,3,3,3c0.551,0,1,0.448,1,1v1h-1c-0.551,0-1-0.448-1-1v-1h-2v1   C12,23.302,12.839,24.402,14,24.816z"></path><path d="M50,43.184V41h-2v2h-2v3c0,1.654,1.346,3,3,3c0.551,0,1,0.448,1,1v1h-1c-0.551,0-1-0.448-1-1v-1h-2v1   c0,1.302,0.839,2.402,2,2.816V55h2v-2h2v-3c0-1.654-1.346-3-3-3c-0.551,0-1-0.448-1-1v-1h1c0.551,0,1,0.448,1,1v1h2v-1   C52,44.698,51.161,43.598,50,43.184z"></path></g></svg>