<svg height='100px' width='100px'  fill="#000000" xmlns="http://www.w3.org/2000/svg" xmlns:xlink="http://www.w3.org/1999/xlink" version="1.1" x="0px" y="0px" viewBox="0 0 512 512" style="enable-background:new 0 0 512 512;" xml:space="preserve"><title>ResearchAndDevelopment-research-innovation-idea-creative</title><path d="M256,72c-97,0-176,79-176,176v0.2c0,66.7,37.7,127.6,97.3,157.4l1.4,0.7c8.2,4,13.3,12.4,13.3,21.5V472  c0,13.2,10.8,24,24,24h88c13.2,0,24-10.8,24-24v-46.1c0-8.3,4.3-16.1,11.4-20.4l8.8-5.4c5-3.1,9.8-6.4,14.5-10l3.6,3.6  c9.8,9.7,25.6,9.7,35.3,0c9.7-9.8,9.7-25.6,0-35.3l-3.9-3.9c22.2-30.3,34.2-66.8,34.2-104.3V248C432,151,353,72,256,72z M312,472  c0,4.4-3.6,8-8,8h-88c-4.4,0-8-3.6-8-8v-16h104V472z M312,425.9V440H208v-12.2c0-4-0.6-8-1.8-11.8h107  C312.4,419.2,312,422.5,312,425.9z M390.3,382.3c-3.5,3.5-9.2,3.5-12.7,0l-79.8-79.8c4.9-3.5,9.3-7.6,13.2-12.2l79.3,79.3  C393.8,373.2,393.8,378.8,390.3,382.3z M177.5,291.5l-27.4,7.7l-5.9-12.6l23.8-15.3l-4.1-34.6l-26.7-9.7l2.7-13.5l28.4,1.5  l17.3-30.3l-15.9-23.3L180,152l22.2,17.7l31.9-14.3l0.9-27.8l14.1-1.6l7.4,27l34.4,7l17.4-21.9l12.3,6.9l-10,26l23.8,25.7l27.4-7.7  l5.9,12.6l-23.8,15.3l4.1,34.6l26.7,9.7l-2.7,13.5l-28.4-1.5l-9.9,17.3l-13.7-13.7c18.1-35.4,4.1-78.8-31.3-96.9  s-78.8-4.1-96.9,31.3s-4.1,78.8,31.3,96.9c18.7,9.6,40.7,10.5,60.1,2.5l13.5,13.5l-19,8.5l-0.9,27.8l-14.1,1.6l-7.4-27l-34.4-7  L203.7,350l-12.3-6.9l10-26L177.5,291.5z M256,300c-30.9,0-56-25.1-56-56s25.1-56,56-56s56,25.1,56,56C312,274.9,286.9,300,256,300z   M416,250.1c-0.1,33.3-10.4,65.7-29.7,92.9l-40.8-40.8l7.2-12.6l32.3,1.7l8.2-40.5l-30.4-11l-1.8-14.9l27.1-17.4l-17.5-37.6  l-31.1,8.7l-10.4-11.2l11.4-29.6l-36.3-20.3l-19.7,24.9l-15.1-3.1l-8.4-30.6l-41.4,4.6l-1.1,31.7l-13.9,6.3L179.3,131l-30.7,27.8  l18.2,26.6l-7.4,13l-32.3-1.7l-8.2,40.5l30.4,11l1.8,14.9l-27.1,17.4l17.5,37.6l31.1-8.7l10.4,11.2l-11.4,29.6l36.3,20.3l19.7-24.9  l15.1,3.1l8.4,30.6l41.4-4.6l1.1-31.7l15.4-6.9l42.4,42.4c-3.7,2.7-7.5,5.3-11.5,7.8l-8.8,5.4c-3.6,2.2-6.8,5-9.5,8.2H196.8  c-3.2-3.3-6.9-6-10.9-8l-1.4-0.7C130.2,364.2,96,308.8,96,248.2V248c0-88.2,71.8-160,160-160s160,71.8,160,160V250.1z"></path><rect x="448" y="224" width="48" height="16"></rect><rect x="248" y="16" width="16" height="40"></rect><rect x="345.4" y="56" transform="matrix(0.7071 -0.7071 0.7071 0.7071 62.5299 278.9604)" width="45.3" height="16"></rect><rect x="418.4" y="120" transform="matrix(0.7809 -0.6247 0.6247 0.7809 17.3231 305.389)" width="51.2" height="16"></rect><rect x="452" y="308.7" transform="matrix(0.5145 -0.8575 0.8575 0.5145 -61.3558 555.6341)" width="16" height="46.6"></rect><rect x="16" y="224" width="48" height="16"></rect><rect x="136" y="41.4" transform="matrix(0.7071 -0.7071 0.7071 0.7071 -3.0782 120.5685)" width="16" height="45.3"></rect><rect x="60" y="102.4" transform="matrix(0.6247 -0.7809 0.7809 0.6247 -74.4305 101.1381)" width="16" height="51.2"></rect><rect x="28.7" y="324" transform="matrix(0.8575 -0.5145 0.5145 0.8575 -163.4028 74.0677)" width="46.6" height="16"></rect></svg>