<svg height='100px' width='100px'  fill="#000000" xmlns="http://www.w3.org/2000/svg" data-name="Layer 1" viewBox="0 0 64 64" x="0px" y="0px"><title>seasons</title><path d="M25.95117,39.53906a.49979.49979,0,0,0-.6543.6543c.21289.5083,2.1084,4.99023,2.93555,5.81689A2.47752,2.47752,0,0,0,31.5,46.23016V56a.5.5,0,0,0,1,0V46.23016a2.47752,2.47752,0,0,0,3.26758-.21991c.82715-.82666,2.72266-5.30859,2.93555-5.81689a.49979.49979,0,0,0-.6543-.6543A43.43783,43.43783,0,0,0,32.5,42.25854V40.23016a2.47752,2.47752,0,0,0,3.26758-.21991c.82715-.82666,2.72266-5.30859,2.93555-5.81689a.49979.49979,0,0,0-.6543-.6543A43.43783,43.43783,0,0,0,32.5,36.25854V34.23016a2.47752,2.47752,0,0,0,3.26758-.21991c.82715-.82666,2.72266-5.30859,2.93555-5.81689a.49979.49979,0,0,0-.6543-.6543A43.43783,43.43783,0,0,0,32.5,30.25854V28.23016a2.47752,2.47752,0,0,0,3.26758-.21991c.82715-.82666,2.72266-5.30859,2.93555-5.81689a.49979.49979,0,0,0-.6543-.6543A43.43783,43.43783,0,0,0,32.5,24.25854V22.23016a2.47752,2.47752,0,0,0,3.26758-.21991c.82715-.82666,2.72266-5.30859,2.93555-5.81689a.49979.49979,0,0,0-.6543-.6543A43.43783,43.43783,0,0,0,32.5,18.25854V16.4494A2.50379,2.50379,0,0,0,34.5,14c0-1.16895-1.8291-5.67871-2.03711-6.189a.52092.52092,0,0,0-.92578,0C31.3291,8.32129,29.5,12.83105,29.5,14a2.50379,2.50379,0,0,0,2,2.4494v1.80914a43.43783,43.43783,0,0,0-5.54883-2.71948.49979.49979,0,0,0-.6543.6543c.21289.5083,2.1084,4.99023,2.93555,5.81689A2.47752,2.47752,0,0,0,31.5,22.23016v2.02838a43.43783,43.43783,0,0,0-5.54883-2.71948.49979.49979,0,0,0-.6543.6543c.21289.5083,2.1084,4.99023,2.93555,5.81689A2.47752,2.47752,0,0,0,31.5,28.23016v2.02838a43.43783,43.43783,0,0,0-5.54883-2.71948.49979.49979,0,0,0-.6543.6543c.21289.5083,2.1084,4.99023,2.93555,5.81689A2.47752,2.47752,0,0,0,31.5,34.23016v2.02838a43.43783,43.43783,0,0,0-5.54883-2.71948.49979.49979,0,0,0-.6543.6543c.21289.5083,2.1084,4.99023,2.93555,5.81689A2.47752,2.47752,0,0,0,31.5,40.23016v2.02838A43.43783,43.43783,0,0,0,25.95117,39.53906Zm5.10938,5.76416a1.53626,1.53626,0,0,1-2.12109,0,25.65154,25.65154,0,0,1-2.22559-4.34717,25.69031,25.69031,0,0,1,4.34668,2.22607,1.49945,1.49945,0,0,1,0,2.12109Zm1.87891-2.12109a25.65325,25.65325,0,0,1,4.34668-2.22607,25.67145,25.67145,0,0,1-2.22559,4.34717,1.53626,1.53626,0,0,1-2.12109,0,1.49945,1.49945,0,0,1,0-2.12109Zm0-6a25.65325,25.65325,0,0,1,4.34668-2.22607,25.67145,25.67145,0,0,1-2.22559,4.34717,1.53626,1.53626,0,0,1-2.12109,0,1.49945,1.49945,0,0,1,0-2.12109Zm0-6a25.65325,25.65325,0,0,1,4.34668-2.22607,25.67145,25.67145,0,0,1-2.22559,4.34717,1.53626,1.53626,0,0,1-2.12109,0,1.49945,1.49945,0,0,1,0-2.12109Zm0-6a25.65325,25.65325,0,0,1,4.34668-2.22607,25.67145,25.67145,0,0,1-2.22559,4.34717,1.53626,1.53626,0,0,1-2.12109,0,1.49945,1.49945,0,0,1,0-2.12109Zm0-6a25.65325,25.65325,0,0,1,4.34668-2.22607,25.67145,25.67145,0,0,1-2.22559,4.34717,1.53626,1.53626,0,0,1-2.12109,0,1.49945,1.49945,0,0,1,0-2.12109ZM30.5,14A25.675,25.675,0,0,1,32,9.35205,25.675,25.675,0,0,1,33.5,14a1.5,1.5,0,0,1-3,0Zm.56055,7.30322a1.53626,1.53626,0,0,1-2.12109,0,25.65154,25.65154,0,0,1-2.22559-4.34717,25.69031,25.69031,0,0,1,4.34668,2.22607,1.49945,1.49945,0,0,1,0,2.12109Zm0,6a1.53626,1.53626,0,0,1-2.12109,0,25.65154,25.65154,0,0,1-2.22559-4.34717,25.69031,25.69031,0,0,1,4.34668,2.22607,1.49945,1.49945,0,0,1,0,2.12109Zm0,6a1.53626,1.53626,0,0,1-2.12109,0,25.65154,25.65154,0,0,1-2.22559-4.34717,25.69031,25.69031,0,0,1,4.34668,2.22607,1.49945,1.49945,0,0,1,0,2.12109Zm0,6a1.53626,1.53626,0,0,1-2.12109,0,25.65154,25.65154,0,0,1-2.22559-4.34717,25.69031,25.69031,0,0,1,4.34668,2.22607,1.49945,1.49945,0,0,1,0,2.12109Z"></path><path d="M48,22.74268a2.48393,2.48393,0,0,0,1.76758-.73242c.82715-.82666,2.72266-5.30859,2.93555-5.81689a.49979.49979,0,0,0-.6543-.6543A43.43783,43.43783,0,0,0,46.5,18.25854V16.4494A2.50379,2.50379,0,0,0,48.5,14c0-1.16895-1.8291-5.67871-2.03711-6.189a.52092.52092,0,0,0-.92578,0C45.3291,8.32129,43.5,12.83105,43.5,14a2.50379,2.50379,0,0,0,2,2.4494v1.80914a43.43783,43.43783,0,0,0-5.54883-2.71948.49979.49979,0,0,0-.6543.6543c.21289.5083,2.1084,4.99023,2.93555,5.81689A2.47752,2.47752,0,0,0,45.5,22.23016v2.02838a43.43783,43.43783,0,0,0-5.54883-2.71948.49979.49979,0,0,0-.6543.6543c.21289.5083,2.1084,4.99023,2.93555,5.81689A2.47752,2.47752,0,0,0,45.5,28.23016v2.02838a43.43783,43.43783,0,0,0-5.54883-2.71948.49979.49979,0,0,0-.6543.6543c.21289.5083,2.1084,4.99023,2.93555,5.81689A2.47752,2.47752,0,0,0,45.5,34.23016v2.02838a43.43783,43.43783,0,0,0-5.54883-2.71948.49979.49979,0,0,0-.6543.6543c.21289.5083,2.1084,4.99023,2.93555,5.81689A2.47752,2.47752,0,0,0,45.5,40.23016v2.02838a43.43783,43.43783,0,0,0-5.54883-2.71948.49979.49979,0,0,0-.6543.6543c.21289.5083,2.1084,4.99023,2.93555,5.81689A2.47752,2.47752,0,0,0,45.5,46.23016V56a.5.5,0,0,0,1,0V46.23016a2.47752,2.47752,0,0,0,3.26758-.21991c.82715-.82666,2.72266-5.30859,2.93555-5.81689a.49979.49979,0,0,0-.6543-.6543A43.43783,43.43783,0,0,0,46.5,42.25854V40.23016a2.47752,2.47752,0,0,0,3.26758-.21991c.82715-.82666,2.72266-5.30859,2.93555-5.81689a.49979.49979,0,0,0-.6543-.6543A43.43783,43.43783,0,0,0,46.5,36.25854V34.23016a2.47752,2.47752,0,0,0,3.26758-.21991c.82715-.82666,2.72266-5.30859,2.93555-5.81689a.49979.49979,0,0,0-.6543-.6543A43.43783,43.43783,0,0,0,46.5,30.25854V28.23016a2.47752,2.47752,0,0,0,3.26758-.21991c.82715-.82666,2.72266-5.30859,2.93555-5.81689a.49979.49979,0,0,0-.6543-.6543A43.43783,43.43783,0,0,0,46.5,24.25854V22.23016A2.47236,2.47236,0,0,0,48,22.74268ZM45.06055,45.30322a1.53626,1.53626,0,0,1-2.12109,0,25.65154,25.65154,0,0,1-2.22559-4.34717,25.69031,25.69031,0,0,1,4.34668,2.22607,1.49945,1.49945,0,0,1,0,2.12109Zm0-6a1.53626,1.53626,0,0,1-2.12109,0,25.65154,25.65154,0,0,1-2.22559-4.34717,25.69031,25.69031,0,0,1,4.34668,2.22607,1.49945,1.49945,0,0,1,0,2.12109Zm0-6a1.53626,1.53626,0,0,1-2.12109,0,25.65154,25.65154,0,0,1-2.22559-4.34717,25.69031,25.69031,0,0,1,4.34668,2.22607,1.49945,1.49945,0,0,1,0,2.12109Zm0-6a1.53626,1.53626,0,0,1-2.12109,0,25.65154,25.65154,0,0,1-2.22559-4.34717,25.69031,25.69031,0,0,1,4.34668,2.22607,1.49945,1.49945,0,0,1,0,2.12109Zm0-6a1.53626,1.53626,0,0,1-2.12109,0,25.65154,25.65154,0,0,1-2.22559-4.34717,25.69031,25.69031,0,0,1,4.34668,2.22607,1.49945,1.49945,0,0,1,0,2.12109Zm1.87891-2.12109a25.65325,25.65325,0,0,1,4.34668-2.22607,25.67145,25.67145,0,0,1-2.22559,4.34717,1.53626,1.53626,0,0,1-2.12109,0,1.49945,1.49945,0,0,1,0-2.12109Zm0,24a25.65325,25.65325,0,0,1,4.34668-2.22607,25.67145,25.67145,0,0,1-2.22559,4.34717,1.53626,1.53626,0,0,1-2.12109,0,1.49945,1.49945,0,0,1,0-2.12109Zm0-6a25.65325,25.65325,0,0,1,4.34668-2.22607,25.67145,25.67145,0,0,1-2.22559,4.34717,1.53626,1.53626,0,0,1-2.12109,0,1.49945,1.49945,0,0,1,0-2.12109Zm0-6a25.65325,25.65325,0,0,1,4.34668-2.22607,25.67145,25.67145,0,0,1-2.22559,4.34717,1.53626,1.53626,0,0,1-2.12109,0,1.49945,1.49945,0,0,1,0-2.12109Zm0-6a25.65325,25.65325,0,0,1,4.34668-2.22607,25.67145,25.67145,0,0,1-2.22559,4.34717,1.53626,1.53626,0,0,1-2.12109,0,1.49945,1.49945,0,0,1,0-2.12109ZM46,15.5A1.50164,1.50164,0,0,1,44.5,14,25.675,25.675,0,0,1,46,9.35205,25.675,25.675,0,0,1,47.5,14,1.50164,1.50164,0,0,1,46,15.5Z"></path><path d="M11.95117,39.53906a.49979.49979,0,0,0-.6543.6543c.21289.5083,2.1084,4.99023,2.93555,5.81689A2.47752,2.47752,0,0,0,17.5,46.23016V56a.5.5,0,0,0,1,0V46.23016a2.47752,2.47752,0,0,0,3.26758-.21991c.82715-.82666,2.72266-5.30859,2.93555-5.81689a.49979.49979,0,0,0-.6543-.6543A43.43783,43.43783,0,0,0,18.5,42.25854V40.23016a2.47752,2.47752,0,0,0,3.26758-.21991c.82715-.82666,2.72266-5.30859,2.93555-5.81689a.49979.49979,0,0,0-.6543-.6543A43.43783,43.43783,0,0,0,18.5,36.25854V34.23016a2.47752,2.47752,0,0,0,3.26758-.21991c.82715-.82666,2.72266-5.30859,2.93555-5.81689a.49979.49979,0,0,0-.6543-.6543A43.43783,43.43783,0,0,0,18.5,30.25854V28.23016a2.47752,2.47752,0,0,0,3.26758-.21991c.82715-.82666,2.72266-5.30859,2.93555-5.81689a.49979.49979,0,0,0-.6543-.6543A43.43783,43.43783,0,0,0,18.5,24.25854V22.23016a2.47752,2.47752,0,0,0,3.26758-.21991c.82715-.82666,2.72266-5.30859,2.93555-5.81689a.49979.49979,0,0,0-.6543-.6543A43.43783,43.43783,0,0,0,18.5,18.25854V16.4494A2.50379,2.50379,0,0,0,20.5,14c0-1.16895-1.8291-5.67871-2.03711-6.189a.52092.52092,0,0,0-.92578,0C17.3291,8.32129,15.5,12.83105,15.5,14a2.50379,2.50379,0,0,0,2,2.4494v1.80914a43.43783,43.43783,0,0,0-5.54883-2.71948.49979.49979,0,0,0-.6543.6543c.21289.5083,2.1084,4.99023,2.93555,5.81689A2.47752,2.47752,0,0,0,17.5,22.23016v2.02838a43.43783,43.43783,0,0,0-5.54883-2.71948.49979.49979,0,0,0-.6543.6543c.21289.5083,2.1084,4.99023,2.93555,5.81689A2.47752,2.47752,0,0,0,17.5,28.23016v2.02838a43.43783,43.43783,0,0,0-5.54883-2.71948.49979.49979,0,0,0-.6543.6543c.21289.5083,2.1084,4.99023,2.93555,5.81689A2.47752,2.47752,0,0,0,17.5,34.23016v2.02838a43.43783,43.43783,0,0,0-5.54883-2.71948.49979.49979,0,0,0-.6543.6543c.21289.5083,2.1084,4.99023,2.93555,5.81689A2.47752,2.47752,0,0,0,17.5,40.23016v2.02838A43.43783,43.43783,0,0,0,11.95117,39.53906Zm5.10938,5.76416a1.53626,1.53626,0,0,1-2.12109,0,25.65154,25.65154,0,0,1-2.22559-4.34717,25.69031,25.69031,0,0,1,4.34668,2.22607,1.49945,1.49945,0,0,1,0,2.12109Zm1.87891-2.12109a25.65325,25.65325,0,0,1,4.34668-2.22607,25.67145,25.67145,0,0,1-2.22559,4.34717,1.53626,1.53626,0,0,1-2.12109,0,1.49945,1.49945,0,0,1,0-2.12109Zm0-6a25.65325,25.65325,0,0,1,4.34668-2.22607,25.67145,25.67145,0,0,1-2.22559,4.34717,1.53626,1.53626,0,0,1-2.12109,0,1.49945,1.49945,0,0,1,0-2.12109Zm0-6a25.65325,25.65325,0,0,1,4.34668-2.22607,25.67145,25.67145,0,0,1-2.22559,4.34717,1.53626,1.53626,0,0,1-2.12109,0,1.49945,1.49945,0,0,1,0-2.12109Zm0-6a25.65325,25.65325,0,0,1,4.34668-2.22607,25.67145,25.67145,0,0,1-2.22559,4.34717,1.53626,1.53626,0,0,1-2.12109,0,1.49945,1.49945,0,0,1,0-2.12109Zm0-6a25.65325,25.65325,0,0,1,4.34668-2.22607,25.67145,25.67145,0,0,1-2.22559,4.34717,1.53626,1.53626,0,0,1-2.12109,0,1.49945,1.49945,0,0,1,0-2.12109ZM16.5,14A25.675,25.675,0,0,1,18,9.35205,25.675,25.675,0,0,1,19.5,14a1.5,1.5,0,0,1-3,0Zm.56055,7.30322a1.53626,1.53626,0,0,1-2.12109,0,25.65154,25.65154,0,0,1-2.22559-4.34717,25.69031,25.69031,0,0,1,4.34668,2.22607,1.49945,1.49945,0,0,1,0,2.12109Zm0,6a1.53626,1.53626,0,0,1-2.12109,0,25.65154,25.65154,0,0,1-2.22559-4.34717,25.69031,25.69031,0,0,1,4.34668,2.22607,1.49945,1.49945,0,0,1,0,2.12109Zm0,6a1.53626,1.53626,0,0,1-2.12109,0,25.65154,25.65154,0,0,1-2.22559-4.34717,25.69031,25.69031,0,0,1,4.34668,2.22607,1.49945,1.49945,0,0,1,0,2.12109Zm0,6a1.53626,1.53626,0,0,1-2.12109,0,25.65154,25.65154,0,0,1-2.22559-4.34717,25.69031,25.69031,0,0,1,4.34668,2.22607,1.49945,1.49945,0,0,1,0,2.12109Z"></path></svg>