<svg height='100px' width='100px'  fill="#000000" xmlns:dc="http://purl.org/dc/elements/1.1/" xmlns:cc="http://creativecommons.org/ns#" xmlns:rdf="http://www.w3.org/1999/02/22-rdf-syntax-ns#" xmlns:svg="http://www.w3.org/2000/svg" xmlns="http://www.w3.org/2000/svg" xmlns:sodipodi="http://sodipodi.sourceforge.net/DTD/sodipodi-0.dtd" xmlns:inkscape="http://www.inkscape.org/namespaces/inkscape" version="1.1" viewBox="0 0 26.458 26.458" x="0px" y="0px"><g transform="matrix(0.93331922,0,0,0.93331922,0.88159738,-251.62144)"><path d="m 12.739,270.53 c -0.98233,0 -1.7848,0.77202 -1.8217,1.739 h -0.2941 a 0.23703,0.23703 0 0 0 -0.23794,0.23794 v 0.4771 h -5.2522 c -1.0058,0 -1.8254,0.80978 -1.8254,1.8091 v 20.414 c 0,0.99927 0.81968,1.8081 1.8254,1.8081 h 16.193 c 1.0057,0 1.8254,-0.8089 1.8254,-1.8081 v -20.414 c 0,-0.99923 -0.81962,-1.8091 -1.8254,-1.8091 h -5.2522 v -0.4771 a 0.23703,0.23703 0 0 0 -0.2367,-0.23794 h -0.29534 c -0.03692,-0.96704 -0.83937,-1.739 -1.8217,-1.739 z m 0,0.47341 h 0.98106 c 0.72671,0 1.2824,0.56143 1.3236,1.2656 h -3.6274 c 0.04119,-0.7042 0.596,-1.2656 1.3227,-1.2656 z m -1.8791,1.7402 h 4.7402 v 1.4498 c 0,0.0832 -0.01069,0.16495 -0.03178,0.24411 -0.0099,0.0373 -0.0226,0.0737 -0.03703,0.10987 a 0.23703,0.23703 0 0 0 -0.0034,0.007 c -0.01146,0.028 -0.0249,0.0556 -0.0392,0.083 -6.37e-4,0.002 -0.0012,0.002 -0.0019,0.004 -8.25e-4,0.002 -0.0013,0.004 -0.0022,0.006 -1.07e-4,2.1e-4 -1.98e-4,4.1e-4 -3.07e-4,6.2e-4 -1.08e-4,2e-4 -2.01e-4,4.1e-4 -3.08e-4,6.2e-4 -0.01357,0.0253 -0.02884,0.0503 -0.04475,0.075 -0.0039,0.006 -0.0077,0.0124 -0.01173,0.0186 l -3.1e-4,3.1e-4 c -0.0177,0.0264 -0.03652,0.0526 -0.05678,0.0781 -6.35e-4,7.5e-4 -0.0012,0.002 -0.0019,0.002 -6.78e-4,7.5e-4 -0.0015,0.002 -0.0022,0.002 -0.1954,0.24334 -0.50596,0.44313 -0.88416,0.54994 -0.01851,0.006 -0.03673,0.0107 -0.05556,0.0155 -4.15e-4,10e-5 -8.25e-4,2.1e-4 -0.0012,3.1e-4 -0.02531,0.006 -0.05128,0.0117 -0.07716,0.0172 -0.02694,0.006 -0.05398,0.0113 -0.08147,0.016 -0.02357,0.005 -0.04732,0.008 -0.07129,0.0114 -0.03532,0.006 -0.07098,0.009 -0.10709,0.0124 -0.01719,0.002 -0.03416,0.004 -0.05154,0.006 -0.05555,0.004 -0.11173,0.007 -0.16881,0.007 h -1.2773 c -0.05718,0 -0.11348,-0.002 -0.16912,-0.007 -3.06e-4,-2e-5 -6.23e-4,2e-5 -9e-4,0 -0.01776,-0.002 -0.0352,-0.004 -0.05277,-0.006 -2.07e-4,-2e-5 -4.13e-4,2e-5 -6.19e-4,0 -0.0029,-2.8e-4 -0.0057,-6.4e-4 -0.0086,-7.5e-4 -0.0324,-0.003 -0.06452,-0.007 -0.09628,-0.0114 -0.02431,-0.004 -0.04832,-0.007 -0.07222,-0.0114 -0.02182,-0.004 -0.04334,-0.008 -0.06481,-0.0127 -0.0044,-7.5e-4 -0.0089,-0.002 -0.01327,-0.003 -0.02732,-0.006 -0.05478,-0.0114 -0.08147,-0.0182 -0.01579,-0.004 -0.03103,-0.008 -0.04659,-0.0129 -0.51419,-0.1433 -0.90339,-0.45919 -1.0517,-0.82182 a 0.23703,0.23703 0 0 0 -0.0043,-0.009 c -0.04453,-0.1126 -0.0682,-0.23081 -0.0682,-0.35274 v -0.97278 z m -5.7268,0.71504 h 5.2522 v 0.73479 c 0,0.0624 0.0043,0.12398 0.01235,0.18455 0.0013,0.01 0.0043,0.0192 0.0058,0.0291 h -3.8193 c -0.98255,0 -1.8254,0.65104 -1.8254,1.5187 v 18.148 c 0,0.86762 0.84286,1.5187 1.8254,1.5187 h 13.292 c 0.98255,0 1.8254,-0.65098 1.8254,-1.5187 v -18.148 c 0,-0.86768 -0.84286,-1.5187 -1.8254,-1.5187 h -3.8206 c 0.01084,-0.07 0.01821,-0.14097 0.01821,-0.21356 v -0.73478 h 5.2522 c 0.75402,0 1.3508,0.59222 1.3508,1.3344 v 20.414 c 0,0.7422 -0.5967,1.3344 -1.3508,1.3344 h -16.193 c -0.75408,0 -1.3508,-0.59229 -1.3508,-1.3344 v -20.414 c 0,-0.74214 0.59675,-1.3344 1.3508,-1.3344 z m 1.4511,1.423 h 3.9798 c 0.11703,0.216 0.28564,0.40771 0.48976,0.56352 0.20109,0.15348 0.43701,0.27539 0.69684,0.35891 h 3.08e-4 c 0.06487,0.0208 0.13106,0.0393 0.19874,0.0553 h 3.08e-4 c 0.06769,0.0159 0.1366,0.0295 0.20677,0.0404 h 3.09e-4 c 0.0315,0.006 0.06403,0.007 0.09598,0.0111 0.0143,0.002 0.0288,0.003 0.04321,0.005 0.03456,0.004 0.06897,0.007 0.104,0.01 0.06283,0.005 0.12614,0.007 0.19072,0.007 h 1.2773 c 0.06457,0 0.12787,-0.003 0.19072,-0.007 0.03485,-0.002 0.06899,-0.006 0.10338,-0.01 0.01401,-0.002 0.02807,-0.003 0.04197,-0.006 7.22e-4,-10e-5 0.0014,-2.3e-4 0.0022,-3.1e-4 0.45948,-0.0548 0.87476,-0.218 1.1989,-0.46539 0.20415,-0.15579 0.37274,-0.34751 0.48976,-0.56351 h 3.981 c 0.77726,0 1.3508,0.49167 1.3508,1.044 v 18.148 c 0,0.55234 -0.57352,1.0449 -1.3508,1.0449 h -13.292 c -0.77726,0 -1.352,-0.49253 -1.352,-1.0449 v -18.148 c 0,-0.55241 0.57475,-1.044 1.352,-1.044 z m 6.6459,1.885 c -1.862,0 -3.3765,1.5116 -3.3765,3.3709 0,1.8594 1.5145,3.3718 3.3765,3.3718 1.862,0 3.3768,-1.5125 3.3768,-3.3718 0,-1.8594 -1.5148,-3.3709 -3.3768,-3.3709 z m 0,0.47341 c 1.6062,0 2.9034,1.2948 2.9034,2.8975 0,1.6027 -1.2971,2.8972 -2.9034,2.8972 -1.6062,0 -2.9031,-1.2945 -2.9031,-2.8972 0,-1.6027 1.2968,-2.8975 2.9031,-2.8975 z m -0.53173,0.63573 a 0.23703,0.23703 0 0 0 -0.2367,0.23701 v 1.2573 h -1.2597 a 0.23703,0.23703 0 0 0 -0.23794,0.23794 v 1.0601 a 0.23703,0.23703 0 0 0 0.23794,0.237 h 1.2597 v 1.2585 a 0.23703,0.23703 0 0 0 0.2367,0.2367 h 1.0638 a 0.23703,0.23703 0 0 0 0.2367,-0.2367 v -1.2585 h 1.2597 a 0.23703,0.23703 0 0 0 0.2367,-0.237 v -1.0601 a 0.23703,0.23703 0 0 0 -0.2367,-0.23794 h -1.2597 v -1.2573 a 0.23703,0.23703 0 0 0 -0.2367,-0.23701 z m 0.2367,0.47371 h 0.58913 v 1.2585 a 0.23703,0.23703 0 0 0 0.23794,0.2367 h 1.2597 v 0.58666 h -1.2597 a 0.23703,0.23703 0 0 0 -0.23794,0.23671 v 1.2588 h -0.58913 v -1.2588 a 0.23703,0.23703 0 0 0 -0.2367,-0.23671 h -1.2597 v -0.58666 h 1.2597 a 0.23703,0.23703 0 0 0 0.2367,-0.2367 z m 5.7142,7.2628 a 0.23703,0.23703 0 0 0 -0.0083,3.1e-4 h -11.216 a 0.23703,0.23703 0 1 0 0,0.4734 h 11.216 a 0.23703,0.23703 0 1 0 0.0083,-0.47371 z m -5.7537,2.2127 a 0.23703,0.23703 0 0 0 -0.0083,3.1e-4 h -5.4621 a 0.23703,0.23703 0 0 0 -0.023453,0 0.23706,0.23706 0 0 0 0.023453,0.47341 h 5.462 a 0.23703,0.23703 0 1 0 0.0083,-0.47372 z m 5.7537,0 a 0.23703,0.23703 0 0 0 -0.0083,3.1e-4 h -3.3916 a 0.23703,0.23703 0 0 0 -0.02469,0 0.23709,0.23709 0 0 0 0.02469,0.47341 h 3.3916 a 0.23703,0.23703 0 1 0 0.0083,-0.47372 z m -11.224,2.2118 a 0.23736,0.23736 0 0 0 0,0.47463 h 11.216 a 0.23736,0.23736 0 1 0 0,-0.47463 z m -0.023452,2.2124 a 0.23715,0.23715 0 0 0 0.023452,0.4737 h 5.462 a 0.23703,0.23703 0 1 0 0,-0.4737 h -5.462 a 0.23703,0.23703 0 0 0 -0.023452,0 z m 7.8229,0 a 0.23718,0.23718 0 0 0 0.02469,0.4737 h 3.3916 a 0.23703,0.23703 0 1 0 0,-0.4737 h -3.3916 a 0.23703,0.23703 0 0 0 -0.02469,0 z" dominant-baseline="auto" style="color:#000000;font-variant-ligatures:normal;font-variant-position:normal;font-variant-caps:normal;font-variant-numeric:normal;font-variant-alternates:normal;font-feature-settings:normal;text-indent:0;text-decoration-line:none;text-decoration-style:solid;text-decoration-color:#000000;text-transform:none;text-orientation:mixed;dominant-baseline:auto;white-space:normal;shape-padding:0;isolation:auto;mix-blend-mode:normal;solid-color:#000000;paint-order:stroke fill markers;color-rendering:auto;image-rendering:auto;shape-rendering:auto;"></path></g></svg>