<svg height='100px' width='100px'  fill="#000000" xmlns="http://www.w3.org/2000/svg" xmlns:xlink="http://www.w3.org/1999/xlink" version="1.1" x="0px" y="0px" viewBox="0 0 66 66" enable-background="new 0 0 66 66" xml:space="preserve"><g><path d="M33.686,47.3089c-0.0897-0.0898-0.1971-0.1611-0.3163-0.2104c-0.2369-0.0979-0.5039-0.0979-0.7408,0   c-0.1191,0.0493-0.2266,0.1206-0.3161,0.2102l-7.6525,7.6526c-0.9192,0.9195,0.4772,2.2656,1.3712,1.3713l5.9981-5.9983v13.696   c0,1.2817,1.9394,1.2844,1.9394,0V50.334l6,5.9985c0.9075,0.9072,2.2783-0.4639,1.3712-1.3713L33.686,47.3089z"></path><path d="M33.6859,40.8352c-0.3788-0.3787-0.9924-0.3787-1.3712,0L21.4245,51.7256c-0.9079,0.9076,0.465,2.2776,1.3712,1.3711   l10.2045-10.2046l10.2045,10.2046c0.8941,0.8944,2.2903-0.4523,1.3712-1.3711L33.6859,40.8352z"></path><path d="M32.63,18.9009c0.3863,0.1592,0.7986,0.0485,1.0569-0.2104l7.6523-7.6523c0.9074-0.9077-0.464-2.2783-1.3712-1.3713   l-5.9981,5.998V1.9697c0-1.2842-1.9394-1.2821-1.9394,0v13.6953l-5.999-5.9983c-0.9075-0.9072-2.2783,0.4639-1.3712,1.3713   C32.6811,19.021,32.2899,18.7597,32.63,18.9009z"></path><path d="M32.3147,25.1638c0.3788,0.3789,0.9924,0.3789,1.3712,0L44.576,14.2737c0.908-0.9077-0.465-2.2776-1.3712-1.3711   L33.0003,23.1069L22.7957,12.9026c-0.9077-0.908-2.2777,0.4649-1.3712,1.3711L32.3147,25.1638z"></path><polygon points="1.9697,33.0032 8.1715,38.1348 14.3818,33.0032 8.18,27.8648  "></polygon><polygon points="14.3818,33.0032 20.5836,38.1348 26.7939,33.0032 20.5921,27.8648  "></polygon><polygon points="26.7939,33.0032 32.9958,38.1348 39.2061,33.0032 33.0042,27.8648  "></polygon><polygon points="39.2061,33.0032 45.4079,38.1348 51.6182,33.0032 45.4164,27.8648  "></polygon><polygon points="57.8285,27.8648 51.6182,33.0032 57.82,38.1348 64.0303,33.0032  "></polygon></g></svg>