<svg height='100px' width='100px'  fill="#000000" xmlns="http://www.w3.org/2000/svg" xmlns:xlink="http://www.w3.org/1999/xlink" version="1.1" x="0px" y="0px" viewBox="0 0 512 512" enable-background="new 0 0 512 512" xml:space="preserve"><g><polygon points="194.502,299.064 186.017,290.578 169.918,306.678 153.819,290.578 145.333,299.064 161.433,315.163    145.333,331.262 153.819,339.748 169.918,323.648 186.017,339.748 194.502,331.262 178.403,315.163  "></polygon><polygon points="332.547,384.193 324.061,375.709 307.963,391.809 291.863,375.709 283.377,384.193 299.477,400.293    283.377,416.393 291.863,424.877 307.963,408.777 324.061,424.877 332.547,416.393 316.447,400.293  "></polygon><g><rect x="98.443" y="267.473" width="10.336" height="12"></rect><rect x="44.137" y="267.473" width="45.372" height="12"></rect><rect x="44.137" y="288.15" width="64.642" height="12"></rect><rect x="44.137" y="308.828" width="64.642" height="12"></rect><rect x="44.137" y="329.505" width="64.642" height="12"></rect></g><g><rect x="399.406" y="71.87" width="10.336" height="12"></rect><rect x="418.676" y="71.87" width="45.373" height="12"></rect><rect x="399.406" y="92.84" width="64.643" height="12"></rect><rect x="399.406" y="113.81" width="64.643" height="12"></rect><rect x="399.406" y="134.779" width="64.643" height="12"></rect></g></g><g><path d="M332.354,47.479c-16.758,0-30.391,13.634-30.391,30.392v64.83H18.275v321.821h312.152   c25.976,0,47.261-20.465,48.582-46.115h114.715V47.479H332.354z M367.074,415.874c0,20.208-16.439,36.646-36.646,36.646H30.275   V154.7h319.581c6.434,0,12.387-2.09,17.219-5.626V415.874L367.074,415.874z M349.855,142.7h-35.894v-40.657   c5.109,3.897,11.482,6.218,18.391,6.218h17.503c9.493,0,17.219,7.725,17.219,17.22S359.35,142.7,349.855,142.7z M481.725,406.406   H379.075V124.413h-0.021c-0.563-15.619-13.444-28.152-29.198-28.152h-17.503c-10.141,0-18.391-8.25-18.391-18.391   c0-10.142,8.25-18.392,18.391-18.392h149.371V406.406z"></path><path d="M90.648,371.957c-15.624,0-28.335,12.711-28.335,28.336c0,15.624,12.711,28.336,28.335,28.336   c15.625,0,28.336-12.712,28.336-28.336C118.984,384.668,106.272,371.957,90.648,371.957z M90.648,416.629   c-9.007,0-16.335-7.328-16.335-16.336s7.328-16.336,16.335-16.336c9.008,0,16.336,7.328,16.336,16.336   S99.656,416.629,90.648,416.629z"></path><path d="M90.648,175.737c-15.624,0-28.335,12.712-28.335,28.336c0,15.624,12.711,28.336,28.335,28.336   c15.625,0,28.336-12.712,28.336-28.336C118.984,188.449,106.272,175.737,90.648,175.737z M90.648,220.409   c-9.007,0-16.335-7.328-16.335-16.336c0-9.008,7.328-16.336,16.335-16.336c9.008,0,16.336,7.328,16.336,16.336   C106.984,213.081,99.656,220.409,90.648,220.409z"></path><path d="M311.059,194.152l-10.424,20.289l-20.742-40.373l-20.572,40.023l-10.243-19.938l-24.488,55.843h-17.046v12h11.784   L219.324,262h121.486v-0.004h11.783v-12h-17.047L311.059,194.152z M249.933,222.079l9.383,18.273l20.574-40.029l20.743,40.378   l9.566-18.622l12.242,27.917H237.69L249.933,222.079z"></path><polygon points="185.758,224.707 194.243,233.192 218.305,209.13 193.995,184.82 185.51,193.306 195.21,203.006 135.582,203.006    135.582,215.006 195.458,215.006  "></polygon><path d="M226.938,289.736l3.138,11.584l12.842-3.479l-20.666,41.437c-17.498,35.082-52.721,56.875-91.924,56.875v12   c21.341,0,42.214-5.936,60.362-17.164c18.148-11.229,32.775-27.258,42.3-46.355l20.74-41.584l3.706,13.684l11.584-3.139   l-8.897-32.845L226.938,289.736z"></path></g></svg>