<svg height='100px' width='100px'  fill="#000000" xmlns="http://www.w3.org/2000/svg" xmlns:xlink="http://www.w3.org/1999/xlink" version="1.1" x="0px" y="0px" viewBox="0 0 100 100" enable-background="new 0 0 100 100" xml:space="preserve"><g display="none"><polygon display="inline" opacity="0.3" fill-rule="evenodd" clip-rule="evenodd" points="92.064,20.42 91.981,20.336    90.85,18.448 88.81,15.804 86.316,14.857 85.414,16.297 85.15,17.277 84.394,17.619 83.223,17.126 82.203,17.389 81.749,18.336    80.09,18.941 79.334,20.453 78.163,20.717 76.582,19.546 74.352,19.468 71.824,18.263 68.351,17.844 66.652,18.678 62.539,18.414    60.875,18.867 58.875,21.664 56.947,22.947 55.513,22.61 52.346,21.435 50.721,21.21 48.193,19.81 46.607,19.205 46.607,18.6    45.207,17.541 43.924,17.467 43.626,17.809 41.396,18.224 40.226,18.789 39.133,18.902 38.264,19.961 37.469,20.264 35.922,19.316    34.189,16.784 33.467,15.916 31.13,15.047 29.847,14.822 28.9,14.291 26.748,13.949 25.88,13.646 24.597,13.725 23.918,14.33    21.542,14.291 20.898,14.33 19.653,14.252 18.068,14.594 17.463,14.969 16.594,15.311 14.838,16.711 14.608,17.525 14.911,18.209    14.799,18.658 14.496,19.264 14.838,20.684 15.385,21.327 15.462,22.42 14.027,22.459 12.408,24.123 12.705,24.953 12.179,25.787    13.12,28.017 13.988,28.056 14.066,28.885 12.666,30.018 12.33,31.646 12.666,32.891 14.823,34.594 14.857,36.521 15.652,39.322    15.35,40.23 13.652,40.342 13.047,41.322 12.935,42.04 14.594,43.855 14.179,44.578 13.12,44.5 12.027,45.484 11.612,46.617    10.52,48.545 9.836,49.984 9.085,50.589 8.178,50.74 6.934,51.229 6.328,52.141 6.44,53.575 6.289,54.707 6.138,56.41 6.25,56.977    6.44,58.299 6.25,58.903 6.553,59.436 6.631,60.343 6.328,61.514 6.703,64.842 6.631,65.974 6.855,67.262 6.514,71.234    6.83,72.775 9.89,73.42 12.383,72.414 18.137,75.439 21.337,78.582 23.294,82.379 23.235,84.871 24.304,85.404 25.191,88.131    27.212,89.971 30.057,90.742 37.648,90.327 39.191,89.381 40.318,89.854 43.938,88.546 45.124,89.082 47.14,88.668 47.915,86.473    49.335,87.955 49.931,87.6 49.994,87.629 50.038,86.633 52.072,84.296 52.897,82.334 52.6,80.451 52.521,78.797 53.429,78.191    53.429,77.061 54.707,75.854 56.064,74.951 56.742,74.123 59.079,72.391 58.928,70.809 59.304,69.98 61.036,69.902 61.793,68.926    62.168,69.302 64.281,69.98 65.105,69.902 66.613,70.658 67.443,72.238 68.799,73.22 69.702,73.596 71.361,72.615 72.415,70.883    72.415,70.204 73.02,69.302 74.225,68.926 75.128,67.491 75.055,66.359 75.654,64.476 78.065,62.065 78.367,60.787 77.992,59.654    78.743,58.449 80.778,56.264 82.364,55.21 82.511,53.551 83.115,52.424 82.812,50.014 83.945,48.954 86.053,48.354 87.409,46.622    87.712,44.812 87.712,42.777 87.487,41.572 88.391,40.064 89.668,37.43 90.503,36.746 90.728,36.072 92.235,34.863 93.138,34.94    94.191,33.735 96.002,32.906 96.153,31.926 95.568,29.866 95.494,28.998 94.963,27.715 93.567,27.334 92.889,25.938 92.962,23.553    92.771,22.347 92.055,20.414  "></polygon></g><g display="none"><path display="inline" d="M28.749,55.034v-7.051h0.956l3.703,5.533v-5.533h0.898v7.051h-0.956l-3.704-5.543v5.543H28.749   L28.749,55.034z M36.034,55.034v-7.051h0.932v7.051H36.034L36.034,55.034z M41.914,52.268v-0.83H44.9v2.615   c-0.459,0.367-0.933,0.64-1.42,0.825c-0.488,0.186-0.991,0.278-1.498,0.278c-0.698,0-1.328-0.151-1.894-0.449   c-0.566-0.293-0.991-0.727-1.278-1.283c-0.293-0.561-0.435-1.19-0.435-1.883c0-0.688,0.142-1.328,0.43-1.923   c0.288-0.596,0.702-1.034,1.239-1.327c0.537-0.283,1.161-0.43,1.863-0.43c0.508,0,0.972,0.083,1.381,0.249   c0.415,0.161,0.737,0.39,0.972,0.688c0.234,0.297,0.409,0.678,0.532,1.156l-0.84,0.229c-0.107-0.355-0.239-0.644-0.396-0.849   c-0.161-0.205-0.38-0.366-0.673-0.493c-0.293-0.121-0.62-0.186-0.971-0.186c-0.43,0-0.796,0.068-1.108,0.195   c-0.312,0.132-0.561,0.303-0.751,0.518c-0.195,0.21-0.342,0.439-0.449,0.697c-0.176,0.435-0.269,0.908-0.269,1.416   c0,0.629,0.107,1.156,0.327,1.58c0.215,0.425,0.532,0.737,0.947,0.941c0.409,0.205,0.849,0.309,1.312,0.309   c0.409,0,0.8-0.078,1.186-0.234c0.385-0.156,0.678-0.322,0.873-0.498v-1.312H41.914L41.914,52.268z M46.295,55.034v-7.051h5.1   v0.829h-4.167v2.162h3.903v0.824h-3.903v2.4h4.328v0.835H46.295L46.295,55.034z M52.863,55.034v-7.051h3.127   c0.625,0,1.104,0.063,1.43,0.186c0.327,0.126,0.591,0.351,0.786,0.673s0.293,0.679,0.293,1.064c0,0.497-0.161,0.922-0.488,1.264   c-0.322,0.342-0.819,0.561-1.498,0.653c0.249,0.117,0.435,0.234,0.562,0.352c0.273,0.249,0.531,0.565,0.775,0.942l1.225,1.917   h-1.171l-0.932-1.469c-0.273-0.419-0.498-0.747-0.679-0.972c-0.176-0.224-0.332-0.38-0.473-0.468   c-0.137-0.093-0.278-0.156-0.425-0.19c-0.107-0.024-0.278-0.034-0.518-0.034h-1.083v3.133H52.863L52.863,55.034z M53.795,51.096   h2.006c0.424,0,0.761-0.049,1-0.136c0.244-0.088,0.425-0.229,0.551-0.42c0.123-0.195,0.186-0.405,0.186-0.634   c0-0.332-0.121-0.61-0.36-0.825c-0.244-0.214-0.625-0.321-1.151-0.321h-2.23V51.096L53.795,51.096z M60.119,55.034v-7.051h0.937   v7.051H60.119L60.119,55.034z M61.924,55.034l2.709-7.051h1.005l2.888,7.051h-1.063l-0.824-2.138H63.69l-0.776,2.138H61.924   L61.924,55.034z M63.959,52.136h2.391l-0.736-1.952c-0.225-0.59-0.391-1.078-0.498-1.463c-0.093,0.453-0.22,0.902-0.381,1.346   L63.959,52.136z"></path></g><g><path fill="none" stroke="#000000" stroke-linecap="round" stroke-linejoin="round" stroke-miterlimit="10" d="M6.501,72.666   c0.509-1.191-0.147-3.607,0.646-5.175c-0.688-0.865-0.483-2.209-0.317-3.325c0.206-1.372,0.148-2.243,0.042-3.666   c-0.088-1.185-0.409-1.989-0.704-3.167C5.86,56.105,6.459,54.964,6.19,53.87c0.087-0.014,0.172-0.036,0.254-0.066   c-0.688-1.103-0.151-2.767,1.365-2.487c-0.019-0.345,0.223-0.68,0.226-0.961c0.278,0.175,0.981,0.153,1.27,0.289   c0.072-0.229,0.197-0.567,0.221-0.795c0.205-0.005,0.424,0.006,0.626-0.041c0.036-1.749,2.293-3.216,2.087-4.608   c0.536-0.138,1.362-0.363,1.896-0.721c0.698-1.351-0.609-0.941-0.929-1.813c-0.441-1.205,0.358-1.992,0.787-3.152   c0.403,0.26,0.606,0.062,0.884,0.637c0.169-0.033,0.407-0.117,0.601-0.175c0.06-0.939-0.463-1.24-0.655-1.967   c-0.214-0.808,0.089-1.549,0.017-2.343c-0.167-1.818-2.862-2.562-2.312-4.652c0.237,0.039,0.552-0.062,0.791-0.026   c-0.489-1,0.268-1.804,1.159-2.012c0.142-1.019-0.835-1.07-1.613-1.172c0.168-1.021-1.778-2.179-0.213-2.499   c-0.752-1.366,1.094-3.189,2.658-2.997c0.145-1.165-2.049-3.249-0.332-3.499c-0.813-3.936,3.932-4.132,6.694-5.293   c0.5,1.498,5.339-0.014,6.663,0.271c2.193,0.474,4.652,0.77,6,2.55c0.674,0.891,1.1,2.025,1.833,2.829   c1.183,1.296,1.849,0.969,2.967,0.371c0.149-0.08-0.04-0.533,0.23-0.67c0.337-0.17,0.795,0.092,1.136-0.034   c0.672-0.247,1.575-0.536,2.171-0.72c0.104-0.032,1.446-0.221,1.659-0.238c0.681-0.057,1.048-0.458,1.521,0.068   c-0.12-0.083-0.105-0.23-0.288-0.262c0.621,1.287,3.565,3.67,5.126,3.001c0.346,1.532,2.602,1.129,3.783,0.838   c0.422,0.682,1.442,0.647,2.171,1.003c0.062,0.155-0.007,0.295,0.049,0.452c0.886,0.104,3.012-2.028,3.172-2.95   c1.559-0.727,2.719-1.334,4.44-1.842c0.569,0.926,2.866-0.369,4.035-0.225c0.79,0.098,1.137,0.471,1.838,0.719   c0.402,0.143,0.961-0.234,1.516,0.247c-0.102-0.101-0.395-0.073-0.216-0.091c1.013,0.115,1.608,0.643,2.691,0.544   c1.412-0.128,1.225-0.635,2.535,0.085c0.78,0.428,3.167,3.135,3.155,0.398c0.552-0.303,0.775-0.77,1.022-1.336   c0.362,0.191,0.717,0.014,1.091,0.115c0.062-0.964,0.849-1.082,1.574-1.421c0.995,1.943,2.164-1.316,2.919-1.869   c1.106,1.13,2.636,1.282,3.531,2.487c0.986,1.326,1.039,2.954,1.638,4.499c0.26,0.67,0.696,1.448,0.912,2.163   c0.224,0.74-0.22,1.721-0.053,2.332c0.339,1.246,1.644,1.485,2.649,2.201c0.368,1.373,0.569,3.097,0.179,4.6   c-1.131,0.289-2.539,2.163-3.149,1.213c-0.615,0.342-0.827,0.984-1.305,1.524c-0.518,0.584-0.93,0.763-1.499,1.302   c-0.721,0.683-1.905,2.492-2.07,3.457c-0.208,1.217,0.193,3.061,0.032,4.541c-0.091,0.836,0.062,1.54-0.627,2.171   c-0.695,0.637-1.062,0.147-1.693,0.35c-1.325,0.424-2.904,2.019-3.012,3.305c-0.113,1.345,1.193,2.383-0.035,3.967   c-0.815,1.053-2.35,1.237-3.296,2.168c-1.469,1.444-0.365,2.391-0.825,4.027c-0.063,0.228-0.125,0.438-0.208,0.659   c-0.234-0.024-0.546,0.073-0.775,0.042c-0.329,1.179-1.163,2.425-1.687,3.604c-0.278,0.625-0.423,1.685-0.792,2.203   c-0.733,1.03-0.895,0.179-1.554,0.688c-1.129,0.872-1.106,2.933-2.325,3.824c-0.89,0.651-3.229,0.916-2.859-0.821   c-0.264-0.012-0.443-0.17-0.624-0.204c0.14-0.296,0.021-0.861,0.124-1.137c-1.206-0.084-1.92-0.405-3.104-0.513   c-0.984-0.089-2.62-0.399-3.506-0.986c-0.273,0.574-0.847,0.951-1.487,1.16c0.298-0.055,0.613,0.015,0.915-0.02   c-1.049,0.406-1.112,1.768-1.785,2.512c-0.509,0.564-1.742,1.057-2.34,1.664c-0.801,0.812-1.362,1.314-2.205,2.12   c-0.79,0.756-1.021,1.9-1.987,2.38c0.848,1.481,1.606,3.293,1.021,4.998c-0.374,1.088-1.359,1.785-1.995,2.505   c-0.281,0.318-0.879,1.361-1.51,1.605c-0.302-0.438-0.783-0.773-1.286-1.055c-0.337,0.577-0.557,1.136-0.872,1.629   c-1.179-0.718-1.944,1.238-2.833-0.366c-1.429,0.863-3.748,3.13-4.954,1.029c-0.472,1.027-1.789,0.987-2.753,1.19   c-1.104,0.232-1.882,0.4-3.129,0.463c-1.512,0.076-3.369,0.333-4.793-0.204c-1.915-0.724-2.305-2.099-3.2-3.675   c-0.856-1.507-3.356-1.961-1.354-3.955c-1.276-3.419-4.207-6.664-7.362-8.374c-1.953-1.059-3.422-2.076-5.446-1.746   c-1.048,0.171-4.037,1.141-4.295-0.367L6.501,72.666z"></path></g></svg>