<svg height='100px' width='100px'  fill="#000000" xmlns="http://www.w3.org/2000/svg" viewBox="0 0 64 64" x="0px" y="0px"><g><path d="M59,35.264V15a9.011,9.011,0,0,0-9-9H48a9.011,9.011,0,0,0-9,9V34.264a6.975,6.975,0,0,0-6.731-.709A8.963,8.963,0,0,0,26,31H24V28.475A9.008,9.008,0,0,0,30,20V6a4,4,0,0,0-4-4H25a1,1,0,0,0-.707.293L24,2.586l-.293-.293A1,1,0,0,0,23,2H19A10.011,10.011,0,0,0,9,12v3.78A2.989,2.989,0,0,0,11,21h1.059A9.008,9.008,0,0,0,16,27.478V31H9a7.008,7.008,0,0,0-7,7v7a1,1,0,0,0,1,1v8.171A7.829,7.829,0,0,0,10.829,62H55.7a5.305,5.305,0,0,0,4.41-2.353c.02-.03.039-.062.056-.094A5.251,5.251,0,0,0,61,56.7V48a1,1,0,0,0,1-1V41A6.991,6.991,0,0,0,59,35.264ZM55,34H52V30.736A6.991,6.991,0,0,0,55,25V24h1a2.966,2.966,0,0,0,1-.184V34.3A6.956,6.956,0,0,0,55,34Zm-9-2h2a6.956,6.956,0,0,0,2-.3v2.933l-3.372,4.047L46,34.917ZM56,22H55V20h1a1,1,0,0,1,0,2ZM41,15a7.008,7.008,0,0,1,7-7h2a7.008,7.008,0,0,1,7,7v3.184A2.966,2.966,0,0,0,56,18H54.121A4.115,4.115,0,0,1,51,14a1,1,0,0,0-1-1,13.4,13.4,0,0,0-9,3.439V15Zm0,4.35.034-.042a11.418,11.418,0,0,1,8.053-4.272A6.1,6.1,0,0,0,53,19.73V25a5.006,5.006,0,0,1-5,5H46a5.006,5.006,0,0,1-5-5V19.35Zm3,12.355v2.387a5.949,5.949,0,0,0-3,1.448V29.89A7,7,0,0,0,44,31.705ZM40,40v2a3,3,0,0,1-3,3H33a3,3,0,0,1-3-3V40a5,5,0,0,1,10,0ZM38.966,55.667A3.991,3.991,0,0,0,35,52H33.236L40,48.618V55a5.016,5.016,0,0,1-.034.556ZM30,48a1,1,0,0,1,1-1h7.764L30,51.382ZM19,4h3.586l.707.707a1,1,0,0,0,1.414,0L25.414,4H26a2,2,0,0,1,2,2v4.39l-.114-.191A4.555,4.555,0,0,0,24,8H18a3.994,3.994,0,0,0-3.978,3.785l-2.981-.6A8.011,8.011,0,0,1,19,4Zm-8,9.22,2.34.468L12.465,15H11ZM10,18a1,1,0,0,1,1-1h1v2H11A1,1,0,0,1,10,18Zm4,2V16.3l1.832-2.748a1.012,1.012,0,0,0,.116-.247.713.713,0,0,0,.018-.08.994.994,0,0,0,.028-.187c0-.014.006-.027.006-.041V12a2,2,0,0,1,2-2h6a2.544,2.544,0,0,1,2.17,1.229L28,14.277V20a7,7,0,0,1-14,0Zm7,9a8.935,8.935,0,0,0,1-.059V32a1,1,0,0,0,.833.986,3,3,0,0,1-5.666,0A1,1,0,0,0,18,32V28.475A8.936,8.936,0,0,0,21,29ZM4,38a5.006,5.006,0,0,1,5-5h6.1a5,5,0,0,0,9.8,0H26a6.967,6.967,0,0,1,4.5,1.648A6.984,6.984,0,0,0,28,40v2a4.976,4.976,0,0,0,1.41,3.466A2.992,2.992,0,0,0,28,48v4.773a3.015,3.015,0,0,0-.81,1.174l-13.252-.828a1,1,0,0,1-.938-1V45a1,1,0,0,0-1-1H4Zm6.829,22A5.828,5.828,0,0,1,5,54.171V46h6v6.121a3,3,0,0,0,2.813,2.994L27.938,56A1,1,0,0,0,29,55a1,1,0,0,1,1-1h5a2,2,0,0,1,2,2v3a1,1,0,0,1-1,1ZM59,56.7a3.254,3.254,0,0,1-.55,1.822.768.768,0,0,0-.047.078A3.31,3.31,0,0,1,55.7,60H38.816A2.966,2.966,0,0,0,39,59V57.676L53.239,56.1A2,2,0,0,0,55,54.12V48h4ZM60,46H54a1,1,0,0,0-1,1l.01,7.116L41.979,55.334c.005-.112.021-.22.021-.334V48a2.992,2.992,0,0,0-1.41-2.534A4.976,4.976,0,0,0,42,42V40a6.946,6.946,0,0,0-.35-2.173A3.965,3.965,0,0,1,44.169,36.1l.486,2.918a1.98,1.98,0,0,0,1.45,1.6,2.041,2.041,0,0,0,.533.072,1.977,1.977,0,0,0,1.526-.722L51.468,36H55a5.006,5.006,0,0,1,5,5Z"></path><path d="M24.29,17.7a1.056,1.056,0,0,0,.71.29,1,1,0,0,0,.38-.081,1,1,0,1,0-1.09-1.629,1.15,1.15,0,0,0-.21.329.942.942,0,0,0,0,.76A1.048,1.048,0,0,0,24.29,17.7Z"></path><path d="M42.29,21.7a1.056,1.056,0,0,0,.71.29,1,1,0,0,0,.38-.081,1,1,0,1,0-1.09-1.629,1.15,1.15,0,0,0-.21.329.942.942,0,0,0,0,.76A1.048,1.048,0,0,0,42.29,21.7Z"></path><path d="M48.29,21.7a1.056,1.056,0,0,0,.71.29,1,1,0,0,0,.38-.081,1,1,0,1,0-1.09-1.629,1.15,1.15,0,0,0-.21.329.942.942,0,0,0,0,.76A1.048,1.048,0,0,0,48.29,21.7Z"></path><path d="M18.29,17.7a1.056,1.056,0,0,0,.71.29,1,1,0,0,0,.38-.081,1,1,0,1,0-1.09-1.629,1.15,1.15,0,0,0-.21.329.942.942,0,0,0,0,.76A1.048,1.048,0,0,0,18.29,17.7Z"></path><path d="M32.29,39.71A1.052,1.052,0,0,0,33,40a1,1,0,0,0,.38-.08,1.032,1.032,0,0,0,.33-.21,1,1,0,0,0-1.42-1.42,1.155,1.155,0,0,0-.21.33.943.943,0,0,0,0,.76A1.032,1.032,0,0,0,32.29,39.71Z"></path><path d="M36.29,39.71A1.052,1.052,0,0,0,37,40a1,1,0,0,0,.38-.08,1.032,1.032,0,0,0,.33-.21,1,1,0,0,0-1.42-1.42,1.155,1.155,0,0,0-.21.33.943.943,0,0,0,0,.76A1.032,1.032,0,0,0,36.29,39.71Z"></path><path d="M43.106,25.553a1,1,0,0,0,.448,1.342,5.49,5.49,0,0,0,4.892,0,1,1,0,1,0-.894-1.789,3.489,3.489,0,0,1-3.1,0A1,1,0,0,0,43.106,25.553Z"></path><path d="M19.107,22.083a1,1,0,0,0,.447,1.342,5.492,5.492,0,0,0,4.893,0,1,1,0,0,0-.895-1.789,3.486,3.486,0,0,1-3.1,0A1,1,0,0,0,19.107,22.083Z"></path></g></svg>