<svg height='100px' width='100px'  fill="#000000" xmlns:dc="http://purl.org/dc/elements/1.1/" xmlns:cc="http://creativecommons.org/ns#" xmlns:rdf="http://www.w3.org/1999/02/22-rdf-syntax-ns#" xmlns:svg="http://www.w3.org/2000/svg" xmlns="http://www.w3.org/2000/svg" xmlns:sodipodi="http://sodipodi.sourceforge.net/DTD/sodipodi-0.dtd" xmlns:inkscape="http://www.inkscape.org/namespaces/inkscape" viewBox="0 0 26.458333 26.458334" version="1.1" x="0px" y="0px"><g transform="translate(0,-270.54165)"><path style="color:#000000;font-style:normal;font-variant:normal;font-weight:normal;font-stretch:normal;font-size:medium;line-height:normal;font-family:sans-serif;font-variant-ligatures:normal;font-variant-position:normal;font-variant-caps:normal;font-variant-numeric:normal;font-variant-alternates:normal;font-feature-settings:normal;text-indent:0;text-align:start;text-decoration:none;text-decoration-line:none;text-decoration-style:solid;text-decoration-color:#000000;letter-spacing:normal;word-spacing:normal;text-transform:none;writing-mode:lr-tb;direction:ltr;text-orientation:mixed;dominant-baseline:auto;baseline-shift:baseline;text-anchor:start;white-space:normal;shape-padding:0;clip-rule:nonzero;display:inline;overflow:visible;visibility:visible;opacity:1;isolation:auto;mix-blend-mode:normal;color-interpolation:sRGB;color-interpolation-filters:linearRGB;solid-color:#000000;solid-opacity:1;vector-effect:none;fill:#000000;fill-opacity:1;fill-rule:nonzero;stroke:none;stroke-width:0.52916664;stroke-linecap:round;stroke-linejoin:round;stroke-miterlimit:4;stroke-dasharray:none;stroke-dashoffset:0;stroke-opacity:1;color-rendering:auto;image-rendering:auto;shape-rendering:auto;text-rendering:auto;enable-background:accumulate" d="m 13.251953,278.17578 a 0.26460978,0.26460978 0 0 0 -0.183594,0.0781 c -2.652126,2.65214 -4.9701524,5.20361 -5.037109,8.11718 -0.034356,1.495 0.3766162,2.8846 1.2539062,3.90625 0.8772898,1.02166 2.2215888,1.65626 3.9707028,1.65625 1.749114,1e-5 3.091461,-0.63459 3.96875,-1.65625 0.87729,-1.02165 1.288262,-2.41125 1.253907,-3.90625 -0.06696,-2.91356 -2.38303,-5.46504 -5.035157,-8.11718 a 0.26460978,0.26460978 0 0 0 -0.191406,-0.0781 z m 0.0039,0.66406 c 2.541358,2.55882 4.634462,4.98021 4.69336,7.54297 0.03196,1.39067 -0.349358,2.6475 -1.125,3.55078 -0.775642,0.90328 -1.945146,1.47071 -3.56836,1.47071 -1.623213,0 -2.792717,-0.56743 -3.568359,-1.47071 -0.7756421,-0.90328 -1.1589113,-2.16011 -1.1269531,-3.55078 0.058895,-2.56276 2.1539551,-4.98415 4.6953121,-7.54297 z"></path><path style="color:#000000;font-style:normal;font-variant:normal;font-weight:normal;font-stretch:normal;font-size:medium;line-height:normal;font-family:sans-serif;font-variant-ligatures:normal;font-variant-position:normal;font-variant-caps:normal;font-variant-numeric:normal;font-variant-alternates:normal;font-feature-settings:normal;text-indent:0;text-align:start;text-decoration:none;text-decoration-line:none;text-decoration-style:solid;text-decoration-color:#000000;letter-spacing:normal;word-spacing:normal;text-transform:none;writing-mode:lr-tb;direction:ltr;text-orientation:mixed;dominant-baseline:auto;baseline-shift:baseline;text-anchor:start;white-space:normal;shape-padding:0;clip-rule:nonzero;display:inline;overflow:visible;visibility:visible;opacity:1;isolation:auto;mix-blend-mode:normal;color-interpolation:sRGB;color-interpolation-filters:linearRGB;solid-color:#000000;solid-opacity:1;vector-effect:none;fill:#000000;fill-opacity:1;fill-rule:nonzero;stroke:none;stroke-width:0.5291667;stroke-linecap:round;stroke-linejoin:round;stroke-miterlimit:4;stroke-dasharray:none;stroke-dashoffset:0;stroke-opacity:1;color-rendering:auto;image-rendering:auto;shape-rendering:auto;text-rendering:auto;enable-background:accumulate" d="m 13.25,280.55469 a 0.26460981,0.26460981 0 0 0 -0.181641,0.0801 c -1.209672,1.20968 -2.308096,2.38489 -2.871093,3.6582 a 0.26460981,0.26460981 0 1 0 0.482422,0.21484 c 0.50757,-1.14795 1.562955,-2.29731 2.763671,-3.49804 A 0.26460981,0.26460981 0 0 0 13.25,280.55469 Z m -3.15625,4.68945 a 0.26460981,0.26460981 0 0 0 -0.2421875,0.23047 c -0.019041,0.13869 -0.031921,0.2789 -0.035156,0.41992 a 0.26473665,0.26473665 0 1 0 0.5292968,0.0137 c 0.0028,-0.1205 0.0129,-0.24187 0.0293,-0.36132 a 0.26460981,0.26460981 0 0 0 -0.28125,-0.30274 z"></path><path style="color:#000000;font-style:normal;font-variant:normal;font-weight:normal;font-stretch:normal;font-size:medium;line-height:normal;font-family:sans-serif;font-variant-ligatures:normal;font-variant-position:normal;font-variant-caps:normal;font-variant-numeric:normal;font-variant-alternates:normal;font-feature-settings:normal;text-indent:0;text-align:start;text-decoration:none;text-decoration-line:none;text-decoration-style:solid;text-decoration-color:#000000;letter-spacing:normal;word-spacing:normal;text-transform:none;writing-mode:lr-tb;direction:ltr;text-orientation:mixed;dominant-baseline:auto;baseline-shift:baseline;text-anchor:start;white-space:normal;shape-padding:0;clip-rule:nonzero;display:inline;overflow:visible;visibility:visible;opacity:1;isolation:auto;mix-blend-mode:normal;color-interpolation:sRGB;color-interpolation-filters:linearRGB;solid-color:#000000;solid-opacity:1;vector-effect:none;fill:#000000;fill-opacity:1;fill-rule:nonzero;stroke:none;stroke-width:0.52916664;stroke-linecap:round;stroke-linejoin:round;stroke-miterlimit:4;stroke-dasharray:none;stroke-dashoffset:0;stroke-opacity:1;color-rendering:auto;image-rendering:auto;shape-rendering:auto;text-rendering:auto;enable-background:accumulate" d="m 19.867005,280.15574 a 0.26460981,0.26460981 0 0 0 -0.259416,0.26768 v 0.39843 h -0.398425 a 0.26460981,0.26460981 0 0 0 -0.02532,0 0.26460981,0.26460981 0 0 0 0.02532,0.5271 h 0.398425 v 0.39842 a 0.26460981,0.26460981 0 1 0 0.5271,0 v -0.39842 h 0.398425 a 0.26460981,0.26460981 0 1 0 0,-0.5271 h -0.398425 v -0.39843 a 0.26460981,0.26460981 0 0 0 -0.267684,-0.26768 z"></path><path style="" d="m 16.462562,277.13112 -0.374137,0.37414 0.374137,0.37414 0.374137,-0.37414 z m -0.561206,0.56121 -0.374137,0.37414 0.374137,0.37413 0.374138,-0.37413 z m 1.122412,0 -0.374137,0.37414 0.374137,0.37413 0.374138,-0.37413 z m -0.561206,0.5612 -0.374137,0.37414 0.374137,0.37414 0.374137,-0.37414 z" fill="#000000" stroke="none"></path><path d="m 11.368299,277.48718 a 0.26460981,0.26460981 0 0 1 -0.259416,-0.26768 v -0.39843 h -0.398425 a 0.26460981,0.26460981 0 0 1 -0.02532,0 0.26460981,0.26460981 0 0 1 0.02532,-0.5271 h 0.398425 v -0.39842 a 0.26460981,0.26460981 0 1 1 0.5271,0 v 0.39842 h 0.398425 a 0.26460981,0.26460981 0 1 1 0,0.5271 h -0.398425 v 0.39843 a 0.26460981,0.26460981 0 0 1 -0.267684,0.26768 z" style="color:#000000;font-style:normal;font-variant:normal;font-weight:normal;font-stretch:normal;font-size:medium;line-height:normal;font-family:sans-serif;font-variant-ligatures:normal;font-variant-position:normal;font-variant-caps:normal;font-variant-numeric:normal;font-variant-alternates:normal;font-feature-settings:normal;text-indent:0;text-align:start;text-decoration:none;text-decoration-line:none;text-decoration-style:solid;text-decoration-color:#000000;letter-spacing:normal;word-spacing:normal;text-transform:none;writing-mode:lr-tb;direction:ltr;text-orientation:mixed;dominant-baseline:auto;baseline-shift:baseline;text-anchor:start;white-space:normal;shape-padding:0;clip-rule:nonzero;display:inline;overflow:visible;visibility:visible;opacity:1;isolation:auto;mix-blend-mode:normal;color-interpolation:sRGB;color-interpolation-filters:linearRGB;solid-color:#000000;solid-opacity:1;vector-effect:none;fill:#000000;fill-opacity:1;fill-rule:nonzero;stroke:none;stroke-width:0.52916664;stroke-linecap:round;stroke-linejoin:round;stroke-miterlimit:4;stroke-dasharray:none;stroke-dashoffset:0;stroke-opacity:1;color-rendering:auto;image-rendering:auto;shape-rendering:auto;text-rendering:auto;enable-background:accumulate"></path><path d="m 6.4538699,283.3447 -0.374137,-0.37414 0.374137,-0.37414 0.374137,0.37414 z m -0.561206,-0.56121 -0.374137,-0.37414 0.374137,-0.37413 0.374138,0.37413 z m 1.122412,0 -0.374137,-0.37414 0.374137,-0.37413 0.374138,0.37413 z m -0.561206,-0.5612 -0.374137,-0.37414 0.374137,-0.37414 0.374137,0.37414 z" style="" fill="#000000" stroke="none"></path><path style="color:#000000;font-style:normal;font-variant:normal;font-weight:normal;font-stretch:normal;font-size:medium;line-height:normal;font-family:sans-serif;font-variant-ligatures:normal;font-variant-position:normal;font-variant-caps:normal;font-variant-numeric:normal;font-variant-alternates:normal;font-feature-settings:normal;text-indent:0;text-align:start;text-decoration:none;text-decoration-line:none;text-decoration-style:solid;text-decoration-color:#000000;letter-spacing:normal;word-spacing:normal;text-transform:none;writing-mode:lr-tb;direction:ltr;text-orientation:mixed;dominant-baseline:auto;baseline-shift:baseline;text-anchor:start;white-space:normal;shape-padding:0;clip-rule:nonzero;display:inline;overflow:visible;visibility:visible;opacity:1;isolation:auto;mix-blend-mode:normal;color-interpolation:sRGB;color-interpolation-filters:linearRGB;solid-color:#000000;solid-opacity:1;vector-effect:none;fill:#000000;fill-opacity:1;fill-rule:nonzero;stroke:none;stroke-width:0.52916664;stroke-linecap:round;stroke-linejoin:round;stroke-miterlimit:4;stroke-dasharray:none;stroke-dashoffset:0;stroke-opacity:1;color-rendering:auto;image-rendering:auto;shape-rendering:auto;text-rendering:auto;enable-background:accumulate" d="m 6.1464844,287.42383 c -0.5083048,0 -0.9257813,0.41747 -0.9257813,0.92578 0,0.5083 0.4174765,0.92578 0.9257813,0.92578 0.5083048,0 0.9257812,-0.41748 0.9257812,-0.92578 0,-0.50831 -0.4174764,-0.92578 -0.9257812,-0.92578 z m 0,0.52929 c 0.2223219,0 0.3964843,0.17417 0.3964844,0.39649 0,0.22232 -0.1741625,0.39648 -0.3964844,0.39648 -0.2223219,0 -0.3964844,-0.17416 -0.3964844,-0.39648 0,-0.22232 0.1741625,-0.39649 0.3964844,-0.39649 z"></path><path style="color:#000000;font-style:normal;font-variant:normal;font-weight:normal;font-stretch:normal;font-size:medium;line-height:normal;font-family:sans-serif;font-variant-ligatures:normal;font-variant-position:normal;font-variant-caps:normal;font-variant-numeric:normal;font-variant-alternates:normal;font-feature-settings:normal;text-indent:0;text-align:start;text-decoration:none;text-decoration-line:none;text-decoration-style:solid;text-decoration-color:#000000;letter-spacing:normal;word-spacing:normal;text-transform:none;writing-mode:lr-tb;direction:ltr;text-orientation:mixed;dominant-baseline:auto;baseline-shift:baseline;text-anchor:start;white-space:normal;shape-padding:0;clip-rule:nonzero;display:inline;overflow:visible;visibility:visible;opacity:1;isolation:auto;mix-blend-mode:normal;color-interpolation:sRGB;color-interpolation-filters:linearRGB;solid-color:#000000;solid-opacity:1;vector-effect:none;fill:#000000;fill-opacity:1;fill-rule:nonzero;stroke:none;stroke-width:0.52916664;stroke-linecap:round;stroke-linejoin:round;stroke-miterlimit:4;stroke-dasharray:none;stroke-dashoffset:0;stroke-opacity:1;color-rendering:auto;image-rendering:auto;shape-rendering:auto;text-rendering:auto;enable-background:accumulate" d="m 20.3125,283.74805 c -0.508305,0 -0.925781,0.41943 -0.925781,0.92773 0,0.50831 0.417476,0.92578 0.925781,0.92578 0.508305,0 0.925781,-0.41747 0.925781,-0.92578 0,-0.5083 -0.417476,-0.92773 -0.925781,-0.92773 z m 0,0.52929 c 0.222322,0 0.396484,0.17612 0.396484,0.39844 0,0.22232 -0.174162,0.39649 -0.396484,0.39649 -0.222322,0 -0.398438,-0.17417 -0.398438,-0.39649 0,-0.22232 0.176116,-0.39844 0.398438,-0.39844 z"></path></g></svg>