<svg height='100px' width='100px'  fill="#000000" xmlns="http://www.w3.org/2000/svg" xmlns:xlink="http://www.w3.org/1999/xlink" version="1.1" x="0px" y="0px" viewBox="0 0 100 100" style="enable-background:new 0 0 100 100;" xml:space="preserve"><g style="" display="none"><rect x="-3.066" y="-137.496" style="" width="1220.125" height="990.055" display="inline" fill="#000000" stroke="#000000" stroke-width="4" stroke-miterlimit="10"></rect></g><g><path d="M69.864,15.262c0-2.636-1.027-5.115-2.891-6.979c-1.864-1.864-4.343-2.891-6.979-2.891c-2.636,0-5.115,1.027-6.98,2.891   l-3.015,3.015l-3.015-3.015c-1.864-1.864-4.342-2.891-6.979-2.891s-5.115,1.027-6.979,2.891s-2.891,4.342-2.891,6.979   s1.026,5.115,2.89,6.979l16.791,16.791l0.182-0.182l0.182,0.182l16.791-16.791C68.838,20.377,69.864,17.898,69.864,15.262z    M63.382,18.65l-13.2,13.2l-0.181-0.181l-0.182,0.182l-13.2-13.2c-0.918-0.918-1.403-2.089-1.403-3.388   c0-1.298,0.485-2.469,1.403-3.388c0.918-0.918,2.09-1.403,3.388-1.403c1.298,0,2.47,0.485,3.388,1.403l3.015,3.015l3.591,3.591   l3.591-3.591l3.015-3.015c0.918-0.918,2.09-1.403,3.388-1.403c1.298,0,2.469,0.485,3.388,1.403c0.918,0.918,1.403,2.09,1.403,3.388   S64.3,17.732,63.382,18.65z"></path><path d="M24.184,51.45c-5.364,0-9.713,4.349-9.713,9.713s4.349,9.713,9.713,9.713s9.713-4.349,9.713-9.713   S29.549,51.45,24.184,51.45z M24.184,65.797c-2.555,0-4.634-2.079-4.634-4.634c0-2.555,2.079-4.634,4.634-4.634   c2.555,0,4.634,2.079,4.634,4.634C28.819,63.718,26.74,65.797,24.184,65.797z"></path><path d="M10.016,90.97c0.003,0.001,0.005,0.001,0.008,0.002v-0.101c0-5.879,4.783-10.663,10.663-10.663h6.037v-5.079h-6.037   C12.392,75.129,5.56,81.635,5,89.794L10.016,90.97z"></path><path d="M75.817,70.876c5.364,0,9.713-4.349,9.713-9.713s-4.349-9.713-9.713-9.713c-5.364,0-9.713,4.349-9.713,9.713   S70.453,70.876,75.817,70.876z M75.817,56.529c2.555,0,4.634,2.079,4.634,4.634c0,2.555-2.079,4.634-4.634,4.634   c-2.555,0-4.634-2.079-4.634-4.634C71.183,58.608,73.262,56.529,75.817,56.529z"></path><path d="M73.278,80.208h6.037c5.879,0,10.663,4.783,10.663,10.663v0.051L95,89.762c-0.576-8.144-7.401-14.633-15.685-14.633h-6.037   V80.208z"></path><path d="M40.288,58.624c0,5.364,4.349,9.713,9.713,9.713s9.713-4.349,9.713-9.713s-4.349-9.713-9.713-9.713   S40.288,53.259,40.288,58.624z M54.635,58.624c0,2.555-2.079,4.634-4.634,4.634c-2.555,0-4.634-2.079-4.634-4.634   c0-2.555,2.079-4.634,4.634-4.634C52.556,53.989,54.635,56.068,54.635,58.624z"></path><path d="M26.724,91.423v2.586c1.69,0.224,3.383,0.424,5.079,0.599v-3.184c0-7.701,6.265-13.966,13.966-13.966h8.464   c7.701,0,13.966,6.265,13.966,13.966v3.166c1.696-0.177,3.389-0.378,5.079-0.605v-2.561c0-7.701-4.641-14.359-11.257-17.352   c-2.383-1.078-5.015-1.693-7.788-1.693h-8.464c-2.773,0-5.405,0.615-7.788,1.693C31.364,77.064,26.724,83.722,26.724,91.423z"></path></g></svg>