<svg height="100" width="100" xmlns="http://www.w3.org/2000/svg">
  <path
    d="M5273.1 2400.1v-2c0-2.8-5-4-9.7-4s-9.7 1.3-9.7 4v2c0 1.8.7 3.6 2 4.9l5 4.9c.3.3.4.6.4 1v6.4c0 .4.2.7.6.8l2.9.9c.5.1 1-.2 1-.8v-7.2c0-.4.2-.7.4-1l5.1-5c1.3-1.3 2-3.1 2-4.9zm-9.7-.1c-4.8 0-7.4-1.3-7.5-1.8.1-.5 2.7-1.8 7.5-1.8s7.3 1.3 7.5 1.8c-.2.5-2.7 1.8-7.5 1.8z" />
  <path
    d="M5268.4 2410.3c-.6 0-1 .4-1 1s.4 1 1 1h4.3c.6 0 1-.4 1-1s-.4-1-1-1h-4.3zm4.3 3.4h-4.3c-.6 0-1 .4-1 1s.4 1 1 1h4.3c.6 0 1-.4 1-1s-.4-1-1-1zm0 3.3h-4.3c-.6 0-1 .4-1 1s.4 1 1 1h4.3c.6 0 1-.4 1-1 0-.5-.4-1-1-1zM23.3 66.4c-2.1 1.2-4.5 2-7.1 2s-5-.7-7.1-2c-3 1.4-5.2 4.2-5.7 7.6l-.9 7.7c-.1 1 .5 2 1.5 2.2 3.8.8 7.9 1.2 12.2 1.2s8.4-.4 12.2-1.2c1-.2 1.6-1.2 1.5-2.2L29 74c-.4-3.4-2.6-6.2-5.7-7.6z" />
  <circle cx="16.2" cy="54.5" r="9" />
  <path
    d="M7.2 35.6h5.1l2.4 4.8c.6 1.2 2.4 1.2 3 0l2.4-4.8h5.1c1.6 0 3-1.3 3-3V17.8c0-1.6-1.3-3-3-3h-18c-1.6 0-3 1.3-3 3v14.8c0 1.7 1.4 3 3 3zm3.9-11.9c.6-.6 1.6-.6 2.2 0l1.9 1.9 4.1-4.1c.6-.6 1.6-.6 2.2 0 .6.6.6 1.6 0 2.2l-5.1 5.1c-.3.3-.7.4-1.1.4s-.8-.1-1.1-.4l-3-3c-.7-.5-.7-1.5-.1-2.1zm46 42.7c-2.1 1.2-4.5 2-7.1 2-2.6 0-5-.7-7.1-2-3 1.4-5.2 4.2-5.7 7.6l-.9 7.7c-.1 1 .5 2 1.5 2.2 3.8.8 7.9 1.2 12.2 1.2s8.4-.4 12.2-1.2c1-.2 1.6-1.2 1.5-2.2l-.9-7.7c-.4-3.4-2.7-6.2-5.7-7.6z" />
  <circle cx="50" cy="54.5" r="9" />
  <path
    d="M41 35.6h5.1l2.4 4.8c.6 1.2 2.4 1.2 3 0l2.4-4.8H59c1.6 0 3-1.3 3-3V17.8c0-1.6-1.3-3-3-3H41c-1.6 0-3 1.3-3 3v14.8c0 1.7 1.3 3 3 3zm3.9-11.9c.6-.6 1.6-.6 2.2 0l1.9 1.9 4.1-4.1c.6-.6 1.6-.6 2.2 0 .6.6.6 1.6 0 2.2L50 28.9c-.3.3-.7.4-1.1.4-.4 0-.8-.1-1.1-.4l-3-3c-.5-.6-.5-1.6.1-2.2zM96.6 74c-.4-3.4-2.6-6.3-5.7-7.6-2.1 1.2-4.5 2-7.1 2s-5-.7-7.1-2c-3 1.4-5.2 4.2-5.7 7.6l-.9 7.7c-.1 1 .5 2 1.5 2.2 3.8.8 7.9 1.2 12.2 1.2s8.4-.4 12.2-1.2c1-.2 1.6-1.2 1.5-2.2l-.9-7.7z" />
  <circle cx="83.8" cy="54.5" r="9" />
  <path
    d="M74.8 35.6h5.1l2.4 4.8c.6 1.2 2.4 1.2 3 0l2.4-4.8h5.1c1.6 0 3-1.3 3-3V17.8c0-1.6-1.3-3-3-3h-18c-1.6 0-3 1.3-3 3v14.8c0 1.7 1.3 3 3 3zm3.9-11.9c.6-.6 1.6-.6 2.2 0l1.9 1.9 4.1-4.1c.6-.6 1.6-.6 2.2 0 .6.6.6 1.6 0 2.2L84 28.8c-.3.3-.7.4-1.1.4-.4 0-.8-.1-1.1-.4l-3-3c-.7-.5-.7-1.5-.1-2.1z" />
</svg>