<svg height="100" width="100" xmlns="http://www.w3.org/2000/svg" viewBox="0 0 64 64">
    <path d="M43.068 32.064 42.06 35.92a.997.997 0 0 1-.592.674l-8.393 3.399a1.005 1.005 0 0 1-1.046-.186 1 1 0 0 1-.289-1.021l2.647-9.055a.999.999 0 0 1 .62-.66l3.054-1.103 7.724-8.599c.401-.447.827-.87 1.25-1.293L47.04 14c.25-4.14 2.01-8.05 4.96-11H16.05c-4.41 0-7.99 3.58-8 7.99L8.001 49H36c0-6.492 4.788-11.872 11.015-12.832l.009-8.509-3.956 4.405zM16 9h27v2H16V9zm-4 7h31v2H12v-2zm0 7h27v2H12v-2zm-1 7h21v2H11v-2zm0 7h18v2H11v-2zm15 9H11v-2h15v2zm5-3h-2v-2h2v2z"/>
    <path d="M49 37c-6.627 0-12 5.373-12 12s5.373 12 12 12 12-5.373 12-12-5.373-12-12-12zm-1.226 18.633a.997.997 0 0 1-1.398.148l-5-4 1.249-1.562 4.228 3.383 8.374-10.234 1.548 1.266-9.001 10.999zm-8.502-1.514.123.228-.123-.228z"/>
    <path d="M36.051 50H3.94c-.41 0-.79.21-.99.56l-.01.01a6.627 6.627 0 0 0 1 8.09C5.44 60.16 7.48 61 9.6 61H43l-.368-.678C38.954 58.244 36.39 54.431 36.051 50zm10.967-30.539-7.893 8.787L42.65 31l6.902-7.684a32.612 32.612 0 0 0 3.223-4.24l8.713-13.653-12.819 12.329a32.079 32.079 0 0 0-1.651 1.709zm-8.381 9.363-3.29 1.188-2.648 9.055 8.393-3.4 1.07-4.091M52.959 3.381a.985.985 0 0 1-.252.451 16.016 16.016 0 0 0-4.029 6.802l5.575.045 2.561-2.463a5.995 5.995 0 0 0-3.855-4.835z"/>
</svg>
