<svg height="100" width="100" xmlns="http://www.w3.org/2000/svg" viewBox="0 0 97.6 100">
    <path d="M49.527 50.854a2.532 2.532 0 00-2.8 2.248 2.527 2.527 0 002.525 2.807 2.529 2.529 0 002.517-2.257 2.53 2.53 0 00-2.242-2.798zM47.579 39.595a2.539 2.539 0 00-2.85-2.181 2.53 2.53 0 00-2.169 2.849 2.524 2.524 0 002.509 2.203 2.53 2.53 0 002.51-2.871zM46.677 32.713a2.542 2.542 0 002.535 2.531h.016a2.53 2.53 0 002.518-2.548 2.531 2.531 0 00-2.543-2.525 2.528 2.528 0 00-2.526 2.542zM2.379 69.149a2.537 2.537 0 100 5.073 2.536 2.536 0 000-5.073zM3.431 61.482a2.534 2.534 0 00-.837 5c.142.025.282.042.422.042a2.541 2.541 0 002.501-2.121 2.535 2.535 0 00-2.086-2.921z"/>
    <circle cx="30.143" cy="71.686" r="2.537"/>
    <path d="M32.778 61.857c-1.275-.578-2.775 0-3.354 1.275a2.541 2.541 0 001.283 3.35c.339.154.688.227 1.036.227.969 0 1.897-.562 2.319-1.506a2.539 2.539 0 00-1.284-3.346zM34.583 56.074a2.538 2.538 0 00-.199 3.584c.506.555 1.193.84 1.89.84a2.53 2.53 0 001.688-.643 2.541 2.541 0 00.2-3.586 2.54 2.54 0 00-3.579-.195zM41.897 51.723a2.533 2.533 0 00-1.64 3.191 2.533 2.533 0 003.189 1.642 2.539 2.539 0 00-1.549-4.833zM23.201 69.149a2.53 2.53 0 00-2.533 2.538 2.535 2.535 0 005.069 0 2.537 2.537 0 00-2.536-2.538zM25.124 61.645a2.536 2.536 0 10-.761 4.957 2.54 2.54 0 002.426-1.775 2.541 2.541 0 00-1.665-3.182zM26.325 59.227c.44.311.953.455 1.45.455.804 0 1.582-.373 2.08-1.076a2.542 2.542 0 00-.622-3.533 2.54 2.54 0 00-3.538.622 2.542 2.542 0 00.63 3.532zM33.109 54.112a2.5 2.5 0 001.548-.531 2.531 2.531 0 00.457-3.553 2.529 2.529 0 00-3.554-.46 2.536 2.536 0 001.549 4.544zM40.398 50.123c.282 0 .58-.049.87-.151a2.536 2.536 0 001.507-3.251 2.525 2.525 0 00-3.248-1.511 2.525 2.525 0 00-1.516 3.25 2.534 2.534 0 002.387 1.663zM16.253 69.149a2.53 2.53 0 00-2.526 2.538c0 1.4 1.127 2.535 2.526 2.535a2.537 2.537 0 100-5.073zM17.777 61.553a2.537 2.537 0 00-1.201 4.93c.198.049.398.075.604.075a2.54 2.54 0 00.597-5.005zM22.142 57.959a2.532 2.532 0 00-1.077-3.418 2.542 2.542 0 00-3.428 1.075 2.55 2.55 0 001.085 3.423c.372.195.771.287 1.168.287.911 0 1.796-.498 2.252-1.367zM26.16 52.087a2.539 2.539 0 00-3.819-3.346 2.546 2.546 0 00.24 3.583c.48.422 1.077.625 1.665.625a2.54 2.54 0 001.914-.862zM32.065 43.79a2.53 2.53 0 00-3.528-.616 2.535 2.535 0 00-.622 3.534 2.54 2.54 0 002.079 1.076 2.534 2.534 0 002.071-3.994zM37.714 43.953a2.539 2.539 0 001.442-3.289 2.546 2.546 0 00-3.289-1.437 2.533 2.533 0 00-1.441 3.287 2.554 2.554 0 002.36 1.616c.315.001.63-.053.928-.177zM55.846 40.092a2.53 2.53 0 00-2.262-2.788 2.535 2.535 0 00-2.784 2.259 2.54 2.54 0 002.253 2.788c.1.008.183.011.274.011a2.544 2.544 0 002.519-2.27zM9.047 69.149a2.535 2.535 0 00-2.534 2.538c0 1.4 1.134 2.535 2.534 2.535a2.537 2.537 0 100-5.073zM10.289 61.504a2.545 2.545 0 00-2.982 2.001V63.5a2.538 2.538 0 102.982-1.996zM12.998 54.256a2.533 2.533 0 00-3.313 1.371h.009a2.531 2.531 0 002.335 3.507 2.54 2.54 0 002.353-1.568 2.538 2.538 0 00-1.384-3.31zM17.081 47.671a2.524 2.524 0 00-3.512.7 2.521 2.521 0 00.697 3.516c.43.287.928.432 1.407.432.82 0 1.623-.402 2.112-1.135a2.535 2.535 0 00-.704-3.513zM18.779 45.596a2.53 2.53 0 001.79.737c.654 0 1.301-.243 1.798-.748a2.527 2.527 0 00-.008-3.583 2.528 2.528 0 00-3.579.008 2.528 2.528 0 00-.001 3.586zM24.428 40.296a2.54 2.54 0 002.104 1.118c.488.005.985-.136 1.416-.427a2.54 2.54 0 00.688-3.524 2.534 2.534 0 00-3.521-.687 2.542 2.542 0 00-.687 3.52zM30.997 36.193a2.534 2.534 0 002.336 1.559c.331 0 .654-.06.985-.203a2.539 2.539 0 00-1.964-4.68 2.543 2.543 0 00-1.357 3.324zM38.236 33.454a2.548 2.548 0 002.486 2.033c.166 0 .331-.016.505-.054a2.542 2.542 0 001.988-2.986 2.549 2.549 0 00-2.99-1.989 2.548 2.548 0 00-1.989 2.996zM4.102 58.886a2.529 2.529 0 003.222-1.559 2.527 2.527 0 00-1.558-3.228 2.535 2.535 0 00-3.23 1.558 2.531 2.531 0 001.566 3.229zM6.86 51.652a2.545 2.545 0 003.445-1 2.54 2.54 0 00-4.448-2.45 2.542 2.542 0 001.003 3.45zM10.795 44.977a2.528 2.528 0 001.574.549c.745 0 1.482-.331 1.987-.96a2.529 2.529 0 00-.415-3.561 2.534 2.534 0 10-3.146 3.972zM17.661 39.894c.604 0 1.217-.215 1.698-.65a2.542 2.542 0 00.19-3.587 2.544 2.544 0 00-3.587-.185 2.54 2.54 0 001.699 4.422zM23.823 35.213a2.47 2.47 0 001.35-.397 2.532 2.532 0 00.788-3.499 2.536 2.536 0 10-4.282 2.72 2.527 2.527 0 002.144 1.176zM30.666 31.627a2.532 2.532 0 002.336-3.521 2.535 2.535 0 00-3.322-1.349 2.53 2.53 0 00-1.351 3.322 2.526 2.526 0 002.337 1.548zM38.012 29.243a2.539 2.539 0 002.476-3.112 2.532 2.532 0 00-3.047-1.896 2.528 2.528 0 00-1.889 3.048 2.52 2.52 0 002.46 1.96zM45.666 28.12h.158a2.548 2.548 0 002.377-2.692 2.539 2.539 0 00-2.692-2.373 2.523 2.523 0 00-2.368 2.687 2.535 2.535 0 002.525 2.378zM56.433 51.986a2.54 2.54 0 00-1.548 4.838c.256.078.521.117.78.117a2.538 2.538 0 00.768-4.955zM49.418 43.811a2.545 2.545 0 00-2.651 2.423 2.542 2.542 0 002.428 2.647h.117a2.53 2.53 0 002.524-2.418 2.54 2.54 0 00-2.418-2.652zM95.149 69.149a2.537 2.537 0 000 5.073 2.537 2.537 0 100-5.073zM94.509 66.524c.143 0 .284-.017.424-.042a2.534 2.534 0 00-.837-5 2.54 2.54 0 00.413 5.042zM52.243 28.12h.157a2.523 2.523 0 002.518-2.377 2.524 2.524 0 00-2.368-2.687 2.526 2.526 0 00-2.684 2.373 2.535 2.535 0 002.377 2.691z"/>
    <circle cx="67.385" cy="71.686" r="2.537"/>
    <path d="M66.821 66.482a2.54 2.54 0 001.283-3.35c-.579-1.275-2.078-1.854-3.354-1.275a2.538 2.538 0 00-1.284 3.346 2.547 2.547 0 002.32 1.506c.348 0 .694-.072 1.035-.227zM62.944 56.074a2.537 2.537 0 00-3.578.195 2.541 2.541 0 00.198 3.586 2.545 2.545 0 003.578-.197 2.537 2.537 0 00-.198-3.584zM74.325 69.149a2.536 2.536 0 10.003 5.073 2.536 2.536 0 00-.003-5.073zM73.927 66.482a2.54 2.54 0 001.659-3.178 2.54 2.54 0 00-4.848 1.522 2.544 2.544 0 003.189 1.656zM69.753 59.682c.497 0 1.01-.145 1.449-.455a2.542 2.542 0 00.63-3.532 2.54 2.54 0 00-3.537-.622 2.541 2.541 0 00-.621 3.533 2.532 2.532 0 002.079 1.076zM62.871 53.581c.465.362 1.01.531 1.548.531.761 0 1.515-.345 2.013-.991a2.532 2.532 0 00-.463-3.553 2.531 2.531 0 00-3.555.46 2.53 2.53 0 00.457 3.553zM58.264 45.208a2.525 2.525 0 00-3.248 1.511 2.533 2.533 0 002.386 3.402 2.527 2.527 0 002.377-1.664 2.525 2.525 0 00-1.515-3.249zM81.274 69.149a2.537 2.537 0 100 5.073 2.532 2.532 0 002.526-2.535 2.533 2.533 0 00-2.526-2.538zM80.952 66.482a2.535 2.535 0 001.863-3.061 2.538 2.538 0 00-3.065-1.869 2.54 2.54 0 00-1.863 3.066 2.545 2.545 0 002.461 1.938c.206.002.404-.025.604-.074zM79.89 55.616a2.541 2.541 0 00-3.428-1.075 2.53 2.53 0 00-1.077 3.418 2.548 2.548 0 002.254 1.367 2.547 2.547 0 002.251-3.71zM74.947 52.323a2.546 2.546 0 00.239-3.583 2.54 2.54 0 00-3.578-.237 2.547 2.547 0 00-.239 3.583 2.53 2.53 0 001.913.861 2.509 2.509 0 001.665-.624zM69.612 46.707a2.534 2.534 0 00-.623-3.534 2.528 2.528 0 00-3.527.616 2.534 2.534 0 002.07 3.993 2.534 2.534 0 002.08-1.075zM63.102 42.515a2.534 2.534 0 00-1.442-3.287 2.548 2.548 0 00-3.289 1.437 2.539 2.539 0 001.442 3.289c.299.124.614.178.929.178a2.557 2.557 0 002.36-1.617zM88.481 69.149a2.537 2.537 0 100 5.073 2.533 2.533 0 002.532-2.535 2.534 2.534 0 00-2.532-2.538zM87.726 66.531a2.528 2.528 0 002.485-3.031v.005a2.533 2.533 0 10-4.969.981 2.531 2.531 0 002.484 2.045zM86.469 58.939a2.531 2.531 0 001.365-3.312h.009a2.532 2.532 0 00-3.312-1.371 2.536 2.536 0 00-1.386 3.311 2.542 2.542 0 003.324 1.372zM80.447 47.671a2.535 2.535 0 00-.705 3.513 2.542 2.542 0 002.113 1.135c.479 0 .976-.145 1.408-.432a2.525 2.525 0 00.694-3.516 2.522 2.522 0 00-3.51-.7zM75.162 45.585a2.497 2.497 0 001.798.748 2.529 2.529 0 001.788-4.323 2.528 2.528 0 00-3.579-.008 2.524 2.524 0 00-.007 3.583zM68.891 37.463a2.54 2.54 0 00.687 3.524c.432.291.929.432 1.417.427a2.54 2.54 0 002.104-1.118 2.535 2.535 0 10-4.208-2.833zM63.209 37.549c.324.143.653.203.985.203.996 0 1.93-.591 2.337-1.559a2.543 2.543 0 00-1.359-3.323 2.536 2.536 0 00-1.963 4.679zM56.302 35.434c.173.038.338.054.504.054a2.547 2.547 0 002.484-2.033 2.547 2.547 0 00-1.986-2.995 2.546 2.546 0 00-2.99 1.989 2.541 2.541 0 001.988 2.985zM90.203 57.326a2.53 2.53 0 003.223 1.559 2.535 2.535 0 10-1.665-4.787 2.526 2.526 0 00-1.558 3.228zM87.221 50.652a2.546 2.546 0 003.447 1 2.543 2.543 0 001.002-3.451 2.545 2.545 0 00-3.446-.998 2.541 2.541 0 00-1.003 3.449zM85.16 45.526c.554 0 1.108-.182 1.571-.549a2.53 2.53 0 00.415-3.562 2.532 2.532 0 00-3.561-.409 2.53 2.53 0 00-.414 3.561 2.55 2.55 0 001.989.959zM78.169 39.244a2.54 2.54 0 003.577-.185 2.538 2.538 0 10-3.769-3.401 2.54 2.54 0 00.192 3.586zM72.354 34.816c.414.27.885.397 1.349.397.837 0 1.665-.413 2.146-1.176a2.536 2.536 0 10-4.281-2.72 2.53 2.53 0 00.786 3.499zM65.877 31.43c.323.131.654.198.985.198.993 0 1.931-.58 2.336-1.548a2.53 2.53 0 00-1.352-3.322 2.532 2.532 0 00-3.32 1.349 2.531 2.531 0 001.351 3.323zM58.934 29.176a2.522 2.522 0 003.041-1.892 2.529 2.529 0 00-1.889-3.048 2.534 2.534 0 00-3.049 1.896 2.54 2.54 0 001.897 3.044z"/>
</svg>
