<svg height="100" width="100" xmlns="http://www.w3.org/2000/svg" viewBox="0 0 97.6 100">
    <path d="M49.527 50.854a2.532 2.532 0 0 0-2.8 2.248 2.527 2.527 0 0 0 2.525 2.807 2.529 2.529 0 0 0 2.517-2.257 2.53 2.53 0 0 0-2.242-2.798zm-1.948-11.259a2.539 2.539 0 0 0-2.85-2.181 2.53 2.53 0 0 0-2.169 2.849 2.524 2.524 0 0 0 2.509 2.203 2.53 2.53 0 0 0 2.51-2.871zm-.902-6.882a2.542 2.542 0 0 0 2.535 2.531h.016a2.53 2.53 0 0 0 2.518-2.548 2.531 2.531 0 0 0-2.543-2.525 2.528 2.528 0 0 0-2.526 2.542zM2.379 69.149a2.537 2.537 0 1 0 0 5.073 2.536 2.536 0 0 0 0-5.073zm1.052-7.667a2.534 2.534 0 0 0-.837 5c.142.025.282.042.422.042a2.541 2.541 0 0 0 2.501-2.121 2.535 2.535 0 0 0-2.086-2.921z"/>
    <circle cx="30.143" cy="71.686" r="2.537"/>
    <path d="M32.778 61.857c-1.275-.578-2.775 0-3.354 1.275a2.541 2.541 0 0 0 1.283 3.35c.339.154.688.227 1.036.227.969 0 1.897-.562 2.319-1.506a2.539 2.539 0 0 0-1.284-3.346zm1.805-5.783a2.538 2.538 0 0 0-.199 3.584c.506.555 1.193.84 1.89.84a2.53 2.53 0 0 0 1.688-.643 2.541 2.541 0 0 0 .2-3.586 2.54 2.54 0 0 0-3.579-.195zm7.314-4.351a2.533 2.533 0 0 0-1.64 3.191 2.533 2.533 0 0 0 3.189 1.642 2.539 2.539 0 0 0-1.549-4.833zM23.201 69.149a2.53 2.53 0 0 0-2.533 2.538 2.535 2.535 0 0 0 5.069 0 2.537 2.537 0 0 0-2.536-2.538zm1.923-7.504a2.536 2.536 0 1 0-.761 4.957 2.54 2.54 0 0 0 2.426-1.775 2.541 2.541 0 0 0-1.665-3.182zm1.201-2.418c.44.311.953.455 1.45.455.804 0 1.582-.373 2.08-1.076a2.542 2.542 0 0 0-.622-3.533 2.54 2.54 0 0 0-3.538.622 2.542 2.542 0 0 0 .63 3.532zm6.784-5.115a2.5 2.5 0 0 0 1.548-.531 2.531 2.531 0 0 0 .457-3.553 2.529 2.529 0 0 0-3.554-.46 2.536 2.536 0 0 0 1.549 4.544zm7.289-3.989c.282 0 .58-.049.87-.151a2.536 2.536 0 0 0 1.507-3.251 2.525 2.525 0 0 0-3.248-1.511 2.525 2.525 0 0 0-1.516 3.25 2.534 2.534 0 0 0 2.387 1.663zM16.253 69.149a2.53 2.53 0 0 0-2.526 2.538c0 1.4 1.127 2.535 2.526 2.535a2.537 2.537 0 1 0 0-5.073zm1.524-7.596a2.537 2.537 0 0 0-1.201 4.93c.198.049.398.075.604.075a2.54 2.54 0 0 0 .597-5.005zm4.365-3.594a2.532 2.532 0 0 0-1.077-3.418 2.542 2.542 0 0 0-3.428 1.075 2.55 2.55 0 0 0 1.085 3.423c.372.195.771.287 1.168.287.911 0 1.796-.498 2.252-1.367zm4.018-5.872a2.539 2.539 0 0 0-3.819-3.346 2.546 2.546 0 0 0 .24 3.583c.48.422 1.077.625 1.665.625a2.54 2.54 0 0 0 1.914-.862zm5.905-8.297a2.53 2.53 0 0 0-3.528-.616 2.535 2.535 0 0 0-.622 3.534 2.54 2.54 0 0 0 2.079 1.076 2.534 2.534 0 0 0 2.071-3.994zm5.649.163a2.539 2.539 0 0 0 1.442-3.289 2.546 2.546 0 0 0-3.289-1.437 2.533 2.533 0 0 0-1.441 3.287 2.554 2.554 0 0 0 2.36 1.616c.315.001.63-.053.928-.177zm18.132-3.861a2.53 2.53 0 0 0-2.262-2.788 2.535 2.535 0 0 0-2.784 2.259 2.54 2.54 0 0 0 2.253 2.788c.1.008.183.011.274.011a2.544 2.544 0 0 0 2.519-2.27zM9.047 69.149a2.535 2.535 0 0 0-2.534 2.538c0 1.4 1.134 2.535 2.534 2.535a2.537 2.537 0 1 0 0-5.073zm1.242-7.645a2.545 2.545 0 0 0-2.982 2.001V63.5a2.538 2.538 0 1 0 2.982-1.996zm2.709-7.248a2.533 2.533 0 0 0-3.313 1.371h.009a2.531 2.531 0 0 0 2.335 3.507 2.54 2.54 0 0 0 2.353-1.568 2.538 2.538 0 0 0-1.384-3.31zm4.083-6.585a2.524 2.524 0 0 0-3.512.7 2.521 2.521 0 0 0 .697 3.516c.43.287.928.432 1.407.432.82 0 1.623-.402 2.112-1.135a2.535 2.535 0 0 0-.704-3.513zm1.698-2.075a2.53 2.53 0 0 0 1.79.737c.654 0 1.301-.243 1.798-.748a2.527 2.527 0 0 0-.008-3.583 2.528 2.528 0 0 0-3.579.008 2.528 2.528 0 0 0-.001 3.586zm5.649-5.3a2.54 2.54 0 0 0 2.104 1.118c.488.005.985-.136 1.416-.427a2.54 2.54 0 0 0 .688-3.524 2.534 2.534 0 0 0-3.521-.687 2.542 2.542 0 0 0-.687 3.52zm6.569-4.103a2.534 2.534 0 0 0 2.336 1.559c.331 0 .654-.06.985-.203a2.539 2.539 0 0 0-1.964-4.68 2.543 2.543 0 0 0-1.357 3.324zm7.239-2.739a2.548 2.548 0 0 0 2.486 2.033c.166 0 .331-.016.505-.054a2.542 2.542 0 0 0 1.988-2.986 2.549 2.549 0 0 0-2.99-1.989 2.548 2.548 0 0 0-1.989 2.996zM4.102 58.886a2.529 2.529 0 0 0 3.222-1.559 2.527 2.527 0 0 0-1.558-3.228 2.535 2.535 0 0 0-3.23 1.558 2.531 2.531 0 0 0 1.566 3.229zm2.758-7.234a2.545 2.545 0 0 0 3.445-1 2.54 2.54 0 0 0-4.448-2.45 2.542 2.542 0 0 0 1.003 3.45zm3.935-6.675a2.528 2.528 0 0 0 1.574.549c.745 0 1.482-.331 1.987-.96a2.529 2.529 0 0 0-.415-3.561 2.534 2.534 0 1 0-3.146 3.972zm6.866-5.083c.604 0 1.217-.215 1.698-.65a2.542 2.542 0 0 0 .19-3.587 2.544 2.544 0 0 0-3.587-.185 2.54 2.54 0 0 0 1.699 4.422zm6.162-4.681a2.47 2.47 0 0 0 1.35-.397 2.532 2.532 0 0 0 .788-3.499 2.536 2.536 0 1 0-4.282 2.72 2.527 2.527 0 0 0 2.144 1.176zm6.843-3.586a2.532 2.532 0 0 0 2.336-3.521 2.535 2.535 0 0 0-3.322-1.349 2.53 2.53 0 0 0-1.351 3.322 2.526 2.526 0 0 0 2.337 1.548zm7.346-2.384a2.539 2.539 0 0 0 2.476-3.112 2.532 2.532 0 0 0-3.047-1.896 2.528 2.528 0 0 0-1.889 3.048 2.52 2.52 0 0 0 2.46 1.96zm7.654-1.123h.158a2.548 2.548 0 0 0 2.377-2.692 2.539 2.539 0 0 0-2.692-2.373 2.523 2.523 0 0 0-2.368 2.687 2.535 2.535 0 0 0 2.525 2.378zm10.767 23.866a2.54 2.54 0 0 0-1.548 4.838c.256.078.521.117.78.117a2.538 2.538 0 0 0 .768-4.955zm-7.015-8.175a2.545 2.545 0 0 0-2.651 2.423 2.542 2.542 0 0 0 2.428 2.647h.117a2.53 2.53 0 0 0 2.524-2.418 2.54 2.54 0 0 0-2.418-2.652zm45.731 25.338a2.537 2.537 0 0 0 0 5.073 2.537 2.537 0 1 0 0-5.073zm-.64-2.625c.143 0 .284-.017.424-.042a2.534 2.534 0 0 0-.837-5 2.54 2.54 0 0 0 .413 5.042zM52.243 28.12h.157a2.523 2.523 0 0 0 2.518-2.377 2.524 2.524 0 0 0-2.368-2.687 2.526 2.526 0 0 0-2.684 2.373 2.535 2.535 0 0 0 2.377 2.691z"/>
    <circle cx="67.385" cy="71.686" r="2.537"/>
    <path d="M66.821 66.482a2.54 2.54 0 0 0 1.283-3.35c-.579-1.275-2.078-1.854-3.354-1.275a2.538 2.538 0 0 0-1.284 3.346 2.547 2.547 0 0 0 2.32 1.506c.348 0 .694-.072 1.035-.227zm-3.877-10.408a2.537 2.537 0 0 0-3.578.195 2.541 2.541 0 0 0 .198 3.586 2.545 2.545 0 0 0 3.578-.197 2.537 2.537 0 0 0-.198-3.584zm11.381 13.075a2.536 2.536 0 1 0 .003 5.073 2.536 2.536 0 0 0-.003-5.073zm-.398-2.667a2.54 2.54 0 0 0 1.659-3.178 2.54 2.54 0 0 0-4.848 1.522 2.544 2.544 0 0 0 3.189 1.656zm-4.174-6.8c.497 0 1.01-.145 1.449-.455a2.542 2.542 0 0 0 .63-3.532 2.54 2.54 0 0 0-3.537-.622 2.541 2.541 0 0 0-.621 3.533 2.532 2.532 0 0 0 2.079 1.076zm-6.882-6.101c.465.362 1.01.531 1.548.531.761 0 1.515-.345 2.013-.991a2.532 2.532 0 0 0-.463-3.553 2.531 2.531 0 0 0-3.555.46 2.53 2.53 0 0 0 .457 3.553zm-4.607-8.373a2.525 2.525 0 0 0-3.248 1.511 2.533 2.533 0 0 0 2.386 3.402 2.527 2.527 0 0 0 2.377-1.664 2.525 2.525 0 0 0-1.515-3.249zm23.01 23.941a2.537 2.537 0 1 0 0 5.073 2.532 2.532 0 0 0 2.526-2.535 2.533 2.533 0 0 0-2.526-2.538zm-.322-2.667a2.535 2.535 0 0 0 1.863-3.061 2.538 2.538 0 0 0-3.065-1.869 2.54 2.54 0 0 0-1.863 3.066 2.545 2.545 0 0 0 2.461 1.938c.206.002.404-.025.604-.074zM79.89 55.616a2.541 2.541 0 0 0-3.428-1.075 2.53 2.53 0 0 0-1.077 3.418 2.548 2.548 0 0 0 2.254 1.367 2.547 2.547 0 0 0 2.251-3.71zm-4.943-3.293a2.546 2.546 0 0 0 .239-3.583 2.54 2.54 0 0 0-3.578-.237 2.547 2.547 0 0 0-.239 3.583 2.53 2.53 0 0 0 1.913.861 2.509 2.509 0 0 0 1.665-.624zm-5.335-5.616a2.534 2.534 0 0 0-.623-3.534 2.528 2.528 0 0 0-3.527.616 2.534 2.534 0 0 0 2.07 3.993 2.534 2.534 0 0 0 2.08-1.075zm-6.51-4.192a2.534 2.534 0 0 0-1.442-3.287 2.548 2.548 0 0 0-3.289 1.437 2.539 2.539 0 0 0 1.442 3.289c.299.124.614.178.929.178a2.557 2.557 0 0 0 2.36-1.617zm25.379 26.634a2.537 2.537 0 1 0 0 5.073 2.533 2.533 0 0 0 2.532-2.535 2.534 2.534 0 0 0-2.532-2.538zm-.755-2.618a2.528 2.528 0 0 0 2.485-3.031v.005a2.533 2.533 0 1 0-4.969.981 2.531 2.531 0 0 0 2.484 2.045zm-1.257-7.592a2.531 2.531 0 0 0 1.365-3.312h.009a2.532 2.532 0 0 0-3.312-1.371 2.536 2.536 0 0 0-1.386 3.311 2.542 2.542 0 0 0 3.324 1.372zm-6.022-11.268a2.535 2.535 0 0 0-.705 3.513 2.542 2.542 0 0 0 2.113 1.135c.479 0 .976-.145 1.408-.432a2.525 2.525 0 0 0 .694-3.516 2.522 2.522 0 0 0-3.51-.7zm-5.285-2.086a2.497 2.497 0 0 0 1.798.748 2.529 2.529 0 0 0 1.788-4.323 2.528 2.528 0 0 0-3.579-.008 2.524 2.524 0 0 0-.007 3.583zm-6.271-8.122a2.54 2.54 0 0 0 .687 3.524c.432.291.929.432 1.417.427a2.54 2.54 0 0 0 2.104-1.118 2.535 2.535 0 1 0-4.208-2.833zm-5.682.086c.324.143.653.203.985.203.996 0 1.93-.591 2.337-1.559a2.543 2.543 0 0 0-1.359-3.323 2.536 2.536 0 0 0-1.963 4.679zm-6.907-2.115c.173.038.338.054.504.054a2.547 2.547 0 0 0 2.484-2.033 2.547 2.547 0 0 0-1.986-2.995 2.546 2.546 0 0 0-2.99 1.989 2.541 2.541 0 0 0 1.988 2.985zm33.901 21.892a2.53 2.53 0 0 0 3.223 1.559 2.535 2.535 0 1 0-1.665-4.787 2.526 2.526 0 0 0-1.558 3.228zm-2.982-6.674a2.546 2.546 0 0 0 3.447 1 2.543 2.543 0 0 0 1.002-3.451 2.545 2.545 0 0 0-3.446-.998 2.541 2.541 0 0 0-1.003 3.449zm-2.061-5.126c.554 0 1.108-.182 1.571-.549a2.53 2.53 0 0 0 .415-3.562 2.532 2.532 0 0 0-3.561-.409 2.53 2.53 0 0 0-.414 3.561 2.55 2.55 0 0 0 1.989.959zm-6.991-6.282a2.54 2.54 0 0 0 3.577-.185 2.538 2.538 0 1 0-3.769-3.401 2.54 2.54 0 0 0 .192 3.586zm-5.815-4.428c.414.27.885.397 1.349.397.837 0 1.665-.413 2.146-1.176a2.536 2.536 0 1 0-4.281-2.72 2.53 2.53 0 0 0 .786 3.499zm-6.477-3.386c.323.131.654.198.985.198.993 0 1.931-.58 2.336-1.548a2.53 2.53 0 0 0-1.352-3.322 2.532 2.532 0 0 0-3.32 1.349 2.531 2.531 0 0 0 1.351 3.323zm-6.943-2.254a2.522 2.522 0 0 0 3.041-1.892 2.529 2.529 0 0 0-1.889-3.048 2.534 2.534 0 0 0-3.049 1.896 2.54 2.54 0 0 0 1.897 3.044z"/>
</svg>
