<svg height="100" width="100" fill="#79705e" xmlns="http://www.w3.org/2000/svg">
    <path d="M62.719 24.387l-9.134-.802a41.076 41.076 0 00-7.17 0l-9.134.802a24.272 24.272 0 01-6.777-.357l-3.542-.693a47.792 47.792 0 01.96 14.359l-.474 5.623a79.692 79.692 0 000 13.361l.474 5.625a47.79 47.79 0 01-.96 14.358l3.542-.693a24.204 24.204 0 016.777-.357l9.134.803a41.076 41.076 0 007.17 0l9.134-.803a24.274 24.274 0 016.777.357l3.542.693a47.794 47.794 0 01-.96-14.359l.475-5.624a79.68 79.68 0 000-13.36l-.475-5.624a47.792 47.792 0 01.96-14.359l-3.542.693a24.272 24.272 0 01-6.777.357zm6.754 16.688l.237 5.563a100.224 100.224 0 01-.001 10.656l-.235 4.448c-.026.296-.045.962-.059 1.44l-.012.4a59.457 59.457 0 00.583 9.72l.08.342-3.931-.42a38.99 38.99 0 00-4.434-.22c-.808.01-1.405.027-1.596.043l-8.29.403a52.638 52.638 0 01-5.797-.001l-7.256-.4a30.382 30.382 0 00-5.314.171l-3.514.429.08-.347a43.474 43.474 0 00.513-9.874l-.236-3.815c-.186-2.201-.193-10.593-.013-12.834l.005-.118c.002-.074.005-.15.008-.18l.235-5.504c.104-1.22.11-5.767.035-6.937-.02-.29-.044-.767-.075-1.348-.096-1.893-.258-5.06-.473-5.995l-.08-.347 3.499.427a30.593 30.593 0 005.306.176l7.282-.403a53.267 53.267 0 015.804.001l8.267.4c.202.018.802.035 1.615.046a39.218 39.218 0 004.407-.217l3.952-.425-.078.342c-.21.912-.37 4.032-.467 5.896-.03.604-.056 1.1-.077 1.395-.079 1.16-.073 5.877.03 7.087z"/>
    <path d="M61.7 27.497c-.492-.007-1.36-.02-1.642-.046l-8.267-.4a52.506 52.506 0 00-5.735-.002l-7.283.403a30.818 30.818 0 01-5.42-.182l-2.789-.34c.19 1.225.329 3.904.422 5.737.03.577.054 1.052.073 1.34.078 1.182.07 5.779-.034 7.002l-.235 5.507c-.004.038-.006.102-.008.161l-.006.142c-.174 2.167-.166 10.63.013 12.755l.001.005.236 3.812a45.766 45.766 0 01-.452 9.677l2.796-.34a30.625 30.625 0 015.427-.179l7.257.4a52.363 52.363 0 005.727.002l8.29-.403c.27-.024 1.134-.038 1.624-.044l.17-.001a38.044 38.044 0 014.344.227l3.22.343a64.625 64.625 0 01-.526-9.509l.013-.397a36.29 36.29 0 01.059-1.46l.235-4.448a99.474 99.474 0 000-10.589l-.236-5.563c-.107-1.248-.11-5.95-.029-7.152.02-.294.045-.788.076-1.387.093-1.805.229-4.44.415-5.643l-3.249.349a38.337 38.337 0 01-4.487.223zm4.67 42.488H33.63v-39.97h32.74z"/>
</svg>
