<svg height='100px' width='100px' fill="#79705e" xmlns="http://www.w3.org/2000/svg" viewBox="0 0 100 100" x="0px"
  y="0px">
  <path
    d="M62.7187,24.38726l-9.1338-.80273a41.07633,41.07633,0,0,0-7.16991,0l-9.13379.80273a24.2717,24.2717,0,0,1-6.77734-.35742l-3.542-.69238a47.79178,47.79178,0,0,1,.96,14.3584l-.47363,5.623a79.69191,79.69191,0,0,0,0,13.36133l.47363,5.625a47.78958,47.78958,0,0,1-.96,14.35742l3.542-.69238a24.204,24.204,0,0,1,6.77734-.35742l9.13379.80273a41.07633,41.07633,0,0,0,7.16991,0l9.1338-.80273a24.27364,24.27364,0,0,1,6.77734.35742l3.542.69238a47.7939,47.7939,0,0,1-.96-14.3584l.47461-5.624a79.68028,79.68028,0,0,0,0-13.36035l-.47461-5.624a47.79178,47.79178,0,0,1,.96-14.3584l-3.542.69238A24.2717,24.2717,0,0,1,62.7187,24.38726Zm6.75391,16.6875.23729,5.56348a100.2235,100.2235,0,0,1-.001,10.65625l-.23535,4.44727c-.02539.2959-.04492.96191-.05859,1.43945l-.01172.40039a59.45674,59.45674,0,0,0,.583,9.7207l.0791.3418-3.93066-.41992a38.99071,38.99071,0,0,0-4.43359-.2207c-.80859.01074-1.40527.02734-1.5957.04395l-8.291.40234a52.63758,52.63758,0,0,1-5.7959-.001l-7.25684-.40039a30.38237,30.38237,0,0,0-5.31348.17188l-3.51465.42871.08008-.34668a43.4738,43.4738,0,0,0,.51367-9.874L30.291,59.61285c-.18555-2.20117-.19336-10.59277-.0127-12.834l.00488-.11816c.002-.07324.00488-.14941.00781-.17969l.23535-5.50391c.10352-1.21973.11035-5.7666.03418-6.9375-.01953-.28906-.04395-.7666-.07422-1.34766-.09668-1.89258-.25879-5.06055-.47363-5.99512l-.0791-.34668,3.498.42676a30.59336,30.59336,0,0,0,5.30664.17578l7.28223-.40234a53.26732,53.26732,0,0,1,5.80371.001l8.2666.40039c.20215.01758.80176.03418,1.61523.04492a39.21752,39.21752,0,0,0,4.40723-.2168l3.95215-.4248-.07812.3418c-.21.91211-.37012,4.03223-.4668,5.89648-.03125.60352-.05664,1.09961-.07715,1.39453C69.36421,35.148,69.37007,39.8648,69.47261,41.07476Z">
  </path>
  <path
    d="M61.70015,27.49664c-.49219-.00684-1.36035-.02051-1.64258-.0459l-8.2666-.40039a52.50637,52.50637,0,0,0-5.73535-.001l-7.28223.40234a30.81755,30.81755,0,0,1-5.41992-.18164l-2.78906-.33984c.19043,1.22461.32813,3.90332.42188,5.73633.0293.57715.05371,1.05273.07227,1.33984.07813,1.18262.07031,5.7793-.0332,7.00293L30.79,46.51617c-.00391.03809-.00586.10156-.00781.16113-.002.06055-.00391.11719-.00586.1416-.1748,2.167-.166,10.62988.0127,12.75488l.001.00488.23633,3.8125a45.76615,45.76615,0,0,1-.45215,9.67676l2.7959-.34082a30.62456,30.62456,0,0,1,5.42676-.17773l7.25684.40039a52.36348,52.36348,0,0,0,5.72754.001l8.29-.40234c.27051-.02441,1.13379-.03809,1.624-.04492.04785-.001.10449-.001.16895-.001a38.04366,38.04366,0,0,1,4.34473.22754l3.2207.34277a64.62485,64.62485,0,0,1-.52637-9.50879l.0127-.39746c.01367-.48633.0332-1.166.05859-1.46l.23534-4.44727a99.47421,99.47421,0,0,0,.001-10.58887l-.2373-5.56348c-.10645-1.248-.11035-5.94922-.02832-7.15234.01953-.29395.04492-.78711.07617-1.38672.09277-1.80469.22852-4.44043.415-5.64258l-3.249.34863A38.33747,38.33747,0,0,1,61.70015,27.49664Zm4.66895,42.48828H33.63081V30.01519H66.36909Z">
  </path>
</svg>