<svg height="100" width="100" xmlns="http://www.w3.org/2000/svg">
    <style>
        .st0{fill:#000}
    </style>
    <path class="st0" d="M28.3 94.6h36c1.3 0 2.3-1 2.3-2.3V51.5H26v40.9c0 1.2 1 2.2 2.3 2.2zM54 60.1c0-1.3 1.1-2.4 2.4-2.4 1.3 0 2.4 1.1 2.4 2.4v25c0 1.3-1.1 2.4-2.4 2.4-1.3 0-2.4-1.1-2.4-2.4v-25zm-10.1 0c0-1.3 1.1-2.4 2.4-2.4 1.3 0 2.4 1.1 2.4 2.4v25c0 1.3-1.1 2.4-2.4 2.4-1.3 0-2.4-1.1-2.4-2.4v-25zm-10 0c0-1.3 1.1-2.4 2.4-2.4s2.4 1.1 2.4 2.4v25c0 1.3-1.1 2.4-2.4 2.4s-2.4-1.1-2.4-2.4v-25zm41.9-25.4L71.7 29l.9-.7c2.5-1.8 3-5.3 1.2-7.8L67.6 12c-1.8-2.5-5.3-3-7.8-1.2l-.9.7-4.2-5.7c-.9-1.2-2.5-1.4-3.7-.6l-5.6 4.1 24.3 33.3 5.6-4.1c1.2-.9 1.4-2.6.5-3.8zm-6.4-8.8l-8.3-11.4.9-.7c.8-.6 1.9-.4 2.5.4l6.2 8.5c.6.8.4 1.9-.4 2.5l-.9.7zM39.3 50c0-.4 0-.4-.4-1.3-.2-.8.2-1 .5-.8.7.5.9 1.6 1.3 2.1.1.1.3.1.4.2h2.2c.2-.3.3-.5.2-1-.1-.6-1.7-4.2-1.7-4.9 0-.7.3-.9.8-.7s1.4 3.9 1.9 4.8c.4.9.5 1.2 1 1.6.6.3 1.6-.2 2.2-.6.6-.5.4-1.7.3-2.1-.2-.8-1.7-4-1.7-4.5-.3-.9.4-1.2.7-1 .5.1 1.7 3.8 2 4.6.4.9.6 1.4 1.2 1.6.5.4 1.4-.2 2-.8.6-.7 0-3.5-.3-4.4-.3-.8-1.6-4.3-2.2-5.3-1.2-2.2-3.3-5.9-3.9-6.8-.5-.6-1.6-1.6-2.4-1.3-.7.2-2.7 1.6-4.1 2.2-1.4.4-3.3.1-4.1-1.2-.7-1.4-.3-2.9.4-3.2 1.8-.9 2.6-2.2 3.2-2.9.7-.6 1.7-1.1 2.2-1.3.7-.2 2.9.2 3.3-.1.3-.1-.6-1-1.6-1.6-.9-.4-3 0-3.4.1-2.1.4-3.5-.1-4.3-.4-.8-.4-1.4-1.1-2.4-2.2-1-1-4.5 1.2-6.9 3.5-2.4 2.3-4.3 5.8-3.5 6.3.5.9 1.9 2.1 2.6 3.2.2.4.9 1.6.9 1.6s1.6.2 2.8 1c1.5.9.5 3.6 1.2 3 1.1-.9 3-.8 4 .1 2 1.6 0 3.1.4 3.5.4.3 2.5-.4 3.4 1.3 1.1 2.1-1.5 2.9-1.4 3.6 0 .6.3.4.6 1.3.3 1.5-.3 1.9-.7 2.1-.2.1-.1.5 0 .9h3.1c.2-.1.2-.1.2-.2z"/>
    <path class="st0" d="M41.4 25.1c-.9.3-2.4 2.3-2.6 2.5-.1.2-2.2 1.3-2.2 1.3s-.2.3.4 1c.6.8 1.1.9 1.8.8 1.8-.3 2.5-1.3 3.3-1.6.9-.5 1.8-3.1 1.8-3.1.7.3-.2 2.8.9 2.6.9-.3 2 .4 3.5 2.7 1.6 2.2 3.2 5.4 4.6 8.4.4.7 2.3 1.8 3.9 2.1-1.6.5-3.1.2-2.6 1 1.1 2.4.4 3.5.7 3.3.7-.4 3.8-.6 4.2-.6.4-.1 2.3-4 2.2-6-.1-2.4-.2-4-.7-5.6-.5-1.6-1.5-2.7-1.8-2.6-.3.1-3.8-.1-4.5-.6-.8-.4-4.2-3.8-4.7-4.3-.6-.4-1.8-.7-2.2-.9-.3-.3-5.2-.7-6-.4zm-8.8 25.1c1-.2 1.5-.3 2-.7.4-.3 1-1.6.6-2.3-.4-.7-1.1-.5-1.8-.6-.6.1 1-.5 1.8-1.2s1-1.6.5-2.5c-.6-.8-2.4-1.1-3.7-.3-.7.4-.8-.4-.4-.7 1-.6 1.2-1.9 0-3-1.1-1.1-2.2-.6-3.6.4-.8.6-.8-.1-.5-.5.7-.9.6-2.2 0-2.9-1-1.3-2.4-1-3.4-.6-1.4.7-1.9 2.1-1.2 3.8.9 2.2 2.9.2 3.2.7.3.5-2.5.7-1.2 3.2 1.1 2.1 3.1.9 3.2 1.1.1.1-1.5.8-.8 2.2.9 1.8 2.4.7 2.5 1 0 .3-1.3.6-.7 2 .2.5.7.8 1.3.9h2.2z"/>
</svg>
