<svg height='100px' width='100px'  fill="#000000" xmlns="http://www.w3.org/2000/svg" xmlns:xlink="http://www.w3.org/1999/xlink" version="1.1" x="0px" y="0px" viewBox="0 0 96 96" enable-background="new 0 0 96 96" xml:space="preserve"><path d="M62.005,34.481c10.337-4.721,11.328-11.684,10.99-15.439l-0.013-0.153c0-0.806-0.507-4.899-2.918-4.899  c-0.498,0-0.93,0.202-1.248,0.584c-0.924,1.111-0.567,3.598-0.448,4.275c-0.147,3.366-4.538,9.19-7.639,9.19  c-1.961,0-4.369-0.625-6.698-1.229c-0.176-0.046-0.346-0.088-0.52-0.133l-0.923-3.419c3.5-1.438,5.974-4.88,5.974-8.894  c0-5.3-4.313-9.613-9.613-9.613s-9.613,4.313-9.613,9.613c0,3.998,2.454,7.43,5.932,8.878l-0.939,2.781  c-1.954,0.374-4.409,1.164-7.949,2.743c-4.995,2.228-7.437,6.891-8.497,9.687c-0.636-0.885-1.608-1.501-2.731-1.674  c-0.221-1.314-0.589-4.92,1.408-7.474c1.408-1.8,3.763-2.745,6.985-2.833c0.51,0.931,1.487,1.571,2.622,1.571  c1.654,0,3-1.345,3-2.999c0-1.654-1.346-3-3-3c-1.635,0-2.963,1.315-2.994,2.942c-3.522,0.159-6.149,1.29-7.794,3.394  c-2.272,2.906-1.999,6.763-1.741,8.434c-1.619,0.354-2.882,1.656-3.184,3.294h-2.527v15.737h14.326l8.345,29.521h-3.86v5.884h22.526  v-5.884h-3.86l8.345-29.521h14.326V40.108h-17.51L62.005,34.481z M33.638,40.108c0.945-1.514,2.592-3.624,4.377-4.21l1.018,4.21  H33.638z"></path></svg>