<svg viewBox="4 29 92 43">
  <path
    d="m69.984 60.25c-.767-.408-1.602-.703-2.484-.861v-1.639h-3v1.639c-.883.158-1.718.453-2.484.861h-3.516v-2h-1v-6h-1v-5l-.5-2.5c0-2.611-1.672-4.827-4-5.651v-.849h-.5v-4l-1-1.333v-2.167-.5c0-.276-.224-.5-.5-.5s-.5.224-.5.5v.5 2.167l-1 1.333v4h-.5v.849c-2.328.825-4 3.04-4 5.651l-.5 2.5v5h-1v6h-1v2h-3.516c-.767-.408-1.601-.703-2.484-.861v-1.639h-3v1.639c-.883.158-1.718.453-2.484.861h-25.016v10h2.5v-2.5c0-.276.224-.5.5-.5s.5.224.5.5v2.5h.5v-2.5c0-.276.224-.5.5-.5s.5.224.5.5v2.5h.5v-2.5c0-.276.224-.5.5-.5s.5.224.5.5v2.5h.5v-2.5c0-.276.224-.5.5-.5s.5.224.5.5v2.5h.5v-2.5c0-.276.224-.5.5-.5s.5.224.5.5v2.5h.5v-2.5c0-.276.224-.5.5-.5s.5.224.5.5v2.5h.5v-2.5c0-.276.224-.5.5-.5s.5.224.5.5v2.5h.5v-2.5c0-.276.224-.5.5-.5s.5.224.5.5v2.5h.5v-2.5c0-.276.224-.5.5-.5s.5.224.5.5v2.5h2.5v-2.5c0-.276.224-.5.5-.5s.5.224.5.5v2.5h.5v-2.5c0-.276.224-.5.5-.5s.5.224.5.5v2.5h.5v-2.5c0-.276.224-.5.5-.5s.5.224.5.5v2.5h22.5v-2h1v2h22.5v-2.5c0-.276.224-.5.5-.5s.5.224.5.5v2.5h.5v-2.5c0-.276.224-.5.5-.5s.5.224.5.5v2.5h.5v-2.5c0-.276.224-.5.5-.5s.5.224.5.5v2.5h2.5v-2.5c0-.276.224-.5.5-.5s.5.224.5.5v2.5h.5v-2.5c0-.276.224-.5.5-.5s.5.224.5.5v2.5h.5v-2.5c0-.276.224-.5.5-.5s.5.224.5.5v2.5h.5v-2.5c0-.276.224-.5.5-.5s.5.224.5.5v2.5h.5v-2.5c0-.276.224-.5.5-.5s.5.224.5.5v2.5h.5v-2.5c0-.276.224-.5.5-.5s.5.224.5.5v2.5h.5v-2.5c0-.276.224-.5.5-.5s.5.224.5.5v2.5h.5v-2.5c0-.276.224-.5.5-.5s.5.224.5.5v2.5h.5v-2.5c0-.276.224-.5.5-.5s.5.224.5.5v2.5h2.5v-10zm-62.984 9h-1v-2h1zm0-3.5h-1v-2h1zm0-3.5h-1v-1h1zm1.5 3.5h-1v-2h1zm0-3.5h-1v-1h1zm1.5 3.5h-1v-2h1zm0-3.5h-1v-1h1zm1.5 3.5h-1v-2h1zm0-3.5h-1v-1h1zm1.5 3.5h-1v-2h1zm0-3.5h-1v-1h1zm1.5 3.5h-1v-2h1zm0-3.5h-1v-1h1zm1.5 3.5h-1v-2h1zm0-3.5h-1v-1h1zm1.5 3.5h-1v-2h1zm0-3.5h-1v-1h1zm1.5 3.5h-1v-2h1zm0-3.5h-1v-1h1zm1.5 3.5h-1v-2h1zm0-3.5h-1v-1h1zm1.5 7h-1v-2h1zm0-3.5h-1v-2h1zm0-3.5h-1v-1h1zm2 3.5h-1v-2h1zm0-3.5h-1v-1h1zm1.5 3.5h-1v-2h1zm0-3.5h-1v-1h1zm1.5 3.5h-1v-2h1zm0-3.5h-1v-1h1zm2.5 7h-1v-2h1zm0-3.5h-1v-2h1zm0-3.5h-1v-1h1zm2 7h-1v-2h1zm0-3.5h-1v-2h1zm0-3.5h-1v-1h1zm1.5-4h.5v1h-.5zm1.5 11h-1v-2h1zm0-3.5h-1v-2c0-.276.224-.5.5-.5s.5.224.5.5zm-.5-3.5c-.276 0-.5-.224-.5-.5 0-.275.224-.5.5-.5s.5.225.5.5c0 .276-.224.5-.5.5zm1-3h-.5v-1h.5zm2.5 10h-1v-2h1zm0-3.5h-1v-2h1zm0-3.5h-1v-1h1zm2 7h-1v-2h1zm0-3.5h-1v-2h1zm0-3.5h-1v-1h1zm2 7h-1v-2h1zm0-3.5h-1v-2h1zm0-3.5h-1v-1h1zm5-18.5c0-.276.224-.5.5-.5s.5.224.5.5v.5c0 .276-.224.5-.5.5s-.5-.224-.5-.5zm0 6c0-.276.224-.5.5-.5s.5.224.5.5v1.5h-1zm-3 4.5c0-.276.224-.5.5-.5s.5.224.5.5v2.5h-1zm2 15h-1v-2h1zm0-3.5h-1v-2c0-.276.224-.5.5-.5s.5.224.5.5zm0-3.5h-1v-1h1zm.5-5.5h-1v-2.5c0-.276.224-.5.5-.5s.5.224.5.5zm0-5.5h-1v-1.5c0-.276.224-.5.5-.5s.5.224.5.5zm.5 3c0-.276.224-.5.5-.5s.5.224.5.5v2.5h-1zm2 15h-1v-2h1zm0-3.5h-1v-2c0-.276.224-.5.5-.5s.5.224.5.5zm0-3.5h-1v-1h1zm.5-5.5h-1v-2.5c0-.276.224-.5.5-.5s.5.224.5.5zm0-5.5h-1v-1.5c0-.276.224-.5.5-.5s.5.224.5.5zm0-7c0 .276-.224.5-.5.5s-.5-.224-.5-.5v-.5c0-.276.224-.5.5-.5s.5.224.5.5zm1.5 23.5h-1v-.5h1zm0-1.5h-1v-2.5c0-.276.224-.5.5-.5s.5.224.5.5zm0-4h-1v-1h1zm0-5.5h-1v-2.5c0-.276.224-.5.5-.5s.5.224.5.5zm0-5.5h-1v-1.5c0-.276.224-.5.5-.5s.5.224.5.5zm0-7c0 .276-.224.5-.5.5s-.5-.224-.5-.5v-.5c0-.276.224-.5.5-.5s.5.224.5.5zm0-7h-1v-2h1zm3.5 12.5c0-.276.224-.5.5-.5s.5.224.5.5v1.5h-1zm-3-6c0-.276.224-.5.5-.5s.5.224.5.5v.5c0 .276-.224.5-.5.5s-.5-.224-.5-.5zm0 6c0-.276.224-.5.5-.5s.5.224.5.5v1.5h-1zm0 4.5c0-.276.224-.5.5-.5s.5.224.5.5v2.5h-1zm1.5 15h-1v-2h1zm0-3.5h-1v-2c0-.276.224-.5.5-.5s.5.224.5.5zm0-3.5h-1v-1h1zm1-5.5h-1v-2.5c0-.276.224-.5.5-.5s.5.224.5.5zm0-5.5h-1v-1.5c0-.276.224-.5.5-.5s.5.224.5.5zm0-7c0 .276-.224.5-.5.5s-.5-.224-.5-.5v-.5c0-.276.224-.5.5-.5s.5.224.5.5zm.5 10c0-.276.224-.5.5-.5s.5.224.5.5v2.5h-1zm1.5 15h-1v-2h1zm0-3.5h-1v-2c0-.276.224-.5.5-.5s.5.224.5.5zm0-3.5h-1v-1h1zm1-5.5h-1v-2.5c0-.276.224-.5.5-.5s.5.224.5.5zm3 12.5h-1v-2h1zm0-3.5h-1v-2h1zm0-3.5h-1v-1h1zm2 7h-1v-2h1zm0-3.5h-1v-2h1zm0-3.5h-1v-1h1zm2 7h-1v-2h1zm0-3.5h-1v-2h1zm0-3.5h-1v-1h1zm1.5-4h.5v1h-.5zm1.5 11h-1v-2h1zm0-3.5h-1v-2c0-.276.224-.5.5-.5s.5.224.5.5zm-.5-3.5c-.276 0-.5-.224-.5-.5 0-.275.224-.5.5-.5s.5.225.5.5c0 .276-.224.5-.5.5zm1-3h-.5v-1h.5zm2.5 10h-1v-2h1zm0-3.5h-1v-2h1zm0-3.5h-1v-1h1zm2 7h-1v-2h1zm0-3.5h-1v-2h1zm0-3.5h-1v-1h1zm2.5 3.5h-1v-2h1zm0-3.5h-1v-1h1zm1.5 3.5h-1v-2h1zm0-3.5h-1v-1h1zm1.5 3.5h-1v-2h1zm0-3.5h-1v-1h1zm2 7h-1v-2h1zm0-3.5h-1v-2h1zm0-3.5h-1v-1h1zm1.5 3.5h-1v-2h1zm0-3.5h-1v-1h1zm1.5 3.5h-1v-2h1zm0-3.5h-1v-1h1zm1.5 3.5h-1v-2h1zm0-3.5h-1v-1h1zm1.5 3.5h-1v-2h1zm0-3.5h-1v-1h1zm1.5 3.5h-1v-2h1zm0-3.5h-1v-1h1zm1.5 3.5h-1v-2h1zm0-3.5h-1v-1h1zm1.5 3.5h-1v-2h1zm0-3.5h-1v-1h1zm1.5 3.5h-1v-2h1zm0-3.5h-1v-1h1zm1.5 3.5h-1v-2h1zm0-3.5h-1v-1h1zm1.5 7h-1v-2h1zm0-3.5h-1v-2h1zm0-3.5h-1v-1h1z" />
</svg>