<svg height="100" width="100" viewBox="4 29 92 43" xmlns="http://www.w3.org/2000/svg">
    <path d="M69.984 60.25a8.463 8.463 0 0 0-2.484-.861V57.75h-3v1.639a8.443 8.443 0 0 0-2.484.861H58.5v-2h-1v-6h-1v-5l-.5-2.5a5.998 5.998 0 0 0-4-5.651v-.849h-.5v-4l-1-1.333V30.25a.5.5 0 0 0-1 0v2.667l-1 1.333v4H48v.849c-2.328.825-4 3.04-4 5.651l-.5 2.5v5h-1v6h-1v2h-3.516a8.453 8.453 0 0 0-2.484-.861V57.75h-3v1.639a8.443 8.443 0 0 0-2.484.861H5v10h2.5v-2.5a.5.5 0 0 1 1 0v2.5H9v-2.5a.5.5 0 0 1 1 0v2.5h.5v-2.5a.5.5 0 0 1 1 0v2.5h.5v-2.5a.5.5 0 0 1 1 0v2.5h.5v-2.5a.5.5 0 0 1 1 0v2.5h.5v-2.5a.5.5 0 0 1 1 0v2.5h.5v-2.5a.5.5 0 0 1 1 0v2.5h.5v-2.5a.5.5 0 0 1 1 0v2.5h.5v-2.5a.5.5 0 0 1 1 0v2.5H23v-2.5a.5.5 0 0 1 1 0v2.5h.5v-2.5a.5.5 0 0 1 1 0v2.5h.5v-2.5a.5.5 0 0 1 1 0v2.5h22.5v-2h1v2H73v-2.5a.5.5 0 0 1 1 0v2.5h.5v-2.5a.5.5 0 0 1 1 0v2.5h.5v-2.5a.5.5 0 0 1 1 0v2.5h2.5v-2.5a.5.5 0 0 1 1 0v2.5h.5v-2.5a.5.5 0 0 1 1 0v2.5h.5v-2.5a.5.5 0 0 1 1 0v2.5h.5v-2.5a.5.5 0 0 1 1 0v2.5h.5v-2.5a.5.5 0 0 1 1 0v2.5h.5v-2.5a.5.5 0 0 1 1 0v2.5h.5v-2.5a.5.5 0 0 1 1 0v2.5h.5v-2.5a.5.5 0 0 1 1 0v2.5h.5v-2.5a.5.5 0 0 1 1 0v2.5H95v-10zM7 69.25H6v-2h1zm0-3.5H6v-2h1zm0-3.5H6v-1h1zm1.5 3.5h-1v-2h1zm0-3.5h-1v-1h1zm1.5 3.5H9v-2h1zm0-3.5H9v-1h1zm1.5 3.5h-1v-2h1zm0-3.5h-1v-1h1zm1.5 3.5h-1v-2h1zm0-3.5h-1v-1h1zm1.5 3.5h-1v-2h1zm0-3.5h-1v-1h1zm1.5 3.5h-1v-2h1zm0-3.5h-1v-1h1zm1.5 3.5h-1v-2h1zm0-3.5h-1v-1h1zm1.5 3.5h-1v-2h1zm0-3.5h-1v-1h1zm1.5 3.5h-1v-2h1zm0-3.5h-1v-1h1zm1.5 7h-1v-2h1zm0-3.5h-1v-2h1zm0-3.5h-1v-1h1zm2 3.5h-1v-2h1zm0-3.5h-1v-1h1zm1.5 3.5h-1v-2h1zm0-3.5h-1v-1h1zm1.5 3.5h-1v-2h1zm0-3.5h-1v-1h1zm2.5 7h-1v-2h1zm0-3.5h-1v-2h1zm0-3.5h-1v-1h1zm2 7h-1v-2h1zm0-3.5h-1v-2h1zm0-3.5h-1v-1h1zm1.5-4h.5v1H33zm1.5 11h-1v-2h1zm0-3.5h-1v-2a.5.5 0 0 1 1 0zm-.5-3.5a.5.5 0 1 1 0-1 .5.5 0 0 1 0 1zm1-3h-.5v-1h.5zm2.5 10h-1v-2h1zm0-3.5h-1v-2h1zm0-3.5h-1v-1h1zm2 7h-1v-2h1zm0-3.5h-1v-2h1zm0-3.5h-1v-1h1zm2 7h-1v-2h1zm0-3.5h-1v-2h1zm0-3.5h-1v-1h1zm5-18.5a.5.5 0 0 1 1 0v.5a.5.5 0 0 1-1 0zm0 6a.5.5 0 0 1 1 0v1.5h-1zm-3 4.5a.5.5 0 0 1 1 0v2.5h-1zm2 15h-1v-2h1zm0-3.5h-1v-2a.5.5 0 0 1 1 0zm0-3.5h-1v-1h1zm.5-5.5h-1v-2.5a.5.5 0 0 1 1 0zm0-5.5h-1v-1.5a.5.5 0 0 1 1 0zm.5 3a.5.5 0 0 1 1 0v2.5h-1zm2 15h-1v-2h1zm0-3.5h-1v-2a.5.5 0 0 1 1 0zm0-3.5h-1v-1h1zm.5-5.5h-1v-2.5a.5.5 0 0 1 1 0zm0-5.5h-1v-1.5a.5.5 0 0 1 1 0zm0-7a.5.5 0 0 1-1 0v-.5a.5.5 0 0 1 1 0zm1.5 23.5h-1v-.5h1zm0-1.5h-1v-2.5a.5.5 0 0 1 1 0zm0-4h-1v-1h1zm0-5.5h-1v-2.5a.5.5 0 0 1 1 0zm0-5.5h-1v-1.5a.5.5 0 0 1 1 0zm0-7a.5.5 0 0 1-1 0v-.5a.5.5 0 0 1 1 0zm0-7h-1v-2h1zm3.5 12.5a.5.5 0 0 1 1 0v1.5h-1zm-3-6a.5.5 0 0 1 1 0v.5a.5.5 0 0 1-1 0zm0 6a.5.5 0 0 1 1 0v1.5h-1zm0 4.5a.5.5 0 0 1 1 0v2.5h-1zm1.5 15h-1v-2h1zm0-3.5h-1v-2a.5.5 0 0 1 1 0zm0-3.5h-1v-1h1zm1-5.5h-1v-2.5a.5.5 0 0 1 1 0zm0-5.5h-1v-1.5a.5.5 0 0 1 1 0zm0-7a.5.5 0 0 1-1 0v-.5a.5.5 0 0 1 1 0zm.5 10a.5.5 0 0 1 1 0v2.5h-1zm1.5 15h-1v-2h1zm0-3.5h-1v-2a.5.5 0 0 1 1 0zm0-3.5h-1v-1h1zm1-5.5h-1v-2.5a.5.5 0 0 1 1 0zm3 12.5h-1v-2h1zm0-3.5h-1v-2h1zm0-3.5h-1v-1h1zm2 7h-1v-2h1zm0-3.5h-1v-2h1zm0-3.5h-1v-1h1zm2 7h-1v-2h1zm0-3.5h-1v-2h1zm0-3.5h-1v-1h1zm1.5-4h.5v1H65zm1.5 11h-1v-2h1zm0-3.5h-1v-2a.5.5 0 0 1 1 0zm-.5-3.5a.5.5 0 1 1 0-1 .5.5 0 0 1 0 1zm1-3h-.5v-1h.5zm2.5 10h-1v-2h1zm0-3.5h-1v-2h1zm0-3.5h-1v-1h1zm2 7h-1v-2h1zm0-3.5h-1v-2h1zm0-3.5h-1v-1h1zm2.5 3.5h-1v-2h1zm0-3.5h-1v-1h1zm1.5 3.5h-1v-2h1zm0-3.5h-1v-1h1zm1.5 3.5h-1v-2h1zm0-3.5h-1v-1h1zm2 7h-1v-2h1zm0-3.5h-1v-2h1zm0-3.5h-1v-1h1zm1.5 3.5h-1v-2h1zm0-3.5h-1v-1h1zm1.5 3.5h-1v-2h1zm0-3.5h-1v-1h1zm1.5 3.5h-1v-2h1zm0-3.5h-1v-1h1zm1.5 3.5h-1v-2h1zm0-3.5h-1v-1h1zm1.5 3.5h-1v-2h1zm0-3.5h-1v-1h1zm1.5 3.5h-1v-2h1zm0-3.5h-1v-1h1zm1.5 3.5h-1v-2h1zm0-3.5h-1v-1h1zm1.5 3.5h-1v-2h1zm0-3.5h-1v-1h1zm1.5 3.5h-1v-2h1zm0-3.5h-1v-1h1zm1.5 7h-1v-2h1zm0-3.5h-1v-2h1zm0-3.5h-1v-1h1z"/>
</svg>
