<svg fill="#000000" version="1.1" viewBox="06 24 103 66" xml:space="preserve">
  <g>
    <path fill="#000000"
      d="M23.892,67.258c0.257-0.513,0.469-1.042,0.743-1.538c0.56,0.081,1.123,0.157,1.704,0.226   c-0.426-0.377-0.799-0.765-1.217-1.161c0.265-0.483,0.559-0.962,0.86-1.431c-0.524,0.225-1.061,0.457-1.583,0.693   c-0.386-0.439-0.765-0.856-1.146-1.313c0.044,0.601,0.115,1.171,0.166,1.742c-0.52,0.242-1.033,0.52-1.533,0.773   c0.565,0.099,1.128,0.222,1.69,0.311C23.652,66.127,23.79,66.692,23.892,67.258z">
    </path>
    <path fill="#000000"
      d="M88.874,65.826c0.287,0.527,0.513,1.026,0.755,1.568c0.102-0.564,0.242-1.128,0.319-1.727   c0.562-0.087,1.127-0.179,1.69-0.276c-0.498-0.285-1.028-0.534-1.529-0.778l0.172-1.74c-0.39,0.457-0.778,0.872-1.167,1.28   c-0.507-0.238-1.044-0.471-1.552-0.669c0.272,0.441,0.576,0.95,0.826,1.436c-0.405,0.394-0.792,0.753-1.205,1.129   C87.752,65.98,88.313,65.906,88.874,65.826z">
    </path>
    <path fill="#000000"
      d="M85.454,48.708c0.456-0.374,0.879-0.751,1.331-1.103c0.481,0.27,0.977,0.574,1.448,0.898   c-0.176-0.554-0.423-1.061-0.647-1.608c0.42-0.389,0.866-0.783,1.273-1.18c-0.571,0.065-1.138,0.136-1.733,0.181   c-0.241-0.51-0.495-1.042-0.791-1.539c-0.046,0.568-0.124,1.127-0.257,1.688c-0.562,0.081-1.122,0.166-1.68,0.287   c0.483,0.238,0.971,0.486,1.493,0.74C85.759,47.622,85.604,48.172,85.454,48.708z">
    </path>
    <path fill="#000000"
      d="M74.098,33.424c0.206,0.543,0.374,1.082,0.536,1.586c0.172-0.516,0.339-1.064,0.501-1.617   c0.595-0.045,1.163-0.052,1.731-0.009c-0.466-0.375-0.947-0.694-1.427-1.018c0.156-0.557,0.31-1.115,0.456-1.676   c-0.464,0.344-0.924,0.721-1.35,1.102c-0.488-0.31-1.005-0.623-1.506-0.912c0.246,0.532,0.479,1.07,0.7,1.581   c-0.45,0.385-0.865,0.771-1.305,1.16C72.981,33.551,73.536,33.485,74.098,33.424z">
    </path>
    <path fill="#000000"
      d="M55.531,29.369c0.411-0.351,0.847-0.673,1.307-1.033c0.443,0.355,0.877,0.689,1.287,1.04   c-0.148-0.556-0.271-1.11-0.44-1.667c0.45-0.286,0.929-0.601,1.446-0.916c-0.603-0.043-1.174-0.076-1.76-0.079   c-0.165-0.55-0.336-1.101-0.527-1.651c-0.194,0.55-0.367,1.1-0.549,1.651c-0.572-0.006-1.159,0.028-1.746,0.071   c0.501,0.289,0.979,0.603,1.433,0.921C55.821,28.257,55.681,28.815,55.531,29.369z">
    </path>
    <path fill="#000000"
      d="M38.5,33.321c0.162,0.553,0.34,1.102,0.51,1.647c0.165-0.533,0.351-1.068,0.528-1.582   c0.558,0.026,1.131,0.1,1.663,0.171c-0.41-0.39-0.839-0.779-1.273-1.164c0.224-0.506,0.439-1.052,0.705-1.549   c-0.519,0.254-1.017,0.572-1.509,0.877c-0.44-0.381-0.902-0.764-1.346-1.103c0.131,0.561,0.281,1.12,0.436,1.675   c-0.482,0.318-0.975,0.644-1.428,1.015C37.355,33.301,37.934,33.3,38.5,33.321z">
    </path>
    <path fill="#000000"
      d="M25.351,48.398c0.472-0.321,0.964-0.628,1.464-0.926c0.436,0.384,0.874,0.762,1.312,1.106   c-0.147-0.538-0.281-1.056-0.403-1.606c0.493-0.283,0.997-0.527,1.481-0.765c-0.558-0.093-1.118-0.18-1.682-0.262   c-0.113-0.561-0.196-1.123-0.267-1.719c-0.285,0.525-0.548,1.031-0.795,1.568c-0.566-0.077-1.148-0.149-1.734-0.215   c0.422,0.398,0.857,0.795,1.289,1.184C25.787,47.307,25.543,47.846,25.351,48.398z">
    </path>
    <path fill="#000000"
      d="M88.434,55.807c-0.28,0.484-0.59,0.962-0.86,1.431c0.508-0.226,1.046-0.427,1.584-0.663   c0.355,0.409,0.749,0.826,1.13,1.283c-0.028-0.57-0.099-1.17-0.163-1.742c0.532-0.243,1.031-0.491,1.531-0.774   c-0.563-0.099-1.128-0.191-1.691-0.28c-0.076-0.599-0.216-1.163-0.316-1.728c-0.241,0.542-0.468,1.042-0.728,1.538   c-0.561-0.081-1.121-0.126-1.719-0.195C87.643,55.021,88,55.412,88.434,55.807z">
    </path>
    <path fill="#000000"
      d="M80.978,39.424c0.021,0.56,0.028,1.118,0.036,1.668l0.954-1.427c0.553,0.147,1.143,0.269,1.66,0.471   c-0.328-0.477-0.717-0.93-1.062-1.392c0.309-0.484,0.589-0.976,0.887-1.465l-1.597,0.658c-0.391-0.421-0.784-0.869-1.193-1.271   c0.088,0.564,0.167,1.125,0.228,1.722l-1.562,0.727C79.871,39.202,80.422,39.294,80.978,39.424z">
    </path>
    <path fill="#000000"
      d="M64.302,30.291c0.491-0.224,1.025-0.458,1.529-0.637c0.327,0.436,0.646,0.898,0.954,1.358   c0.012-0.563,0.048-1.127,0.05-1.723c0.518-0.181,1.065-0.336,1.623-0.492c-0.517-0.22-1.07-0.398-1.627-0.561   c-0.036-0.568-0.046-1.167-0.062-1.74c-0.327,0.47-0.651,0.946-0.971,1.426c-0.592-0.146-1.149-0.311-1.715-0.411   c0.393,0.408,0.77,0.88,1.11,1.299C64.882,29.292,64.604,29.806,64.302,30.291z">
    </path>
    <path fill="#000000"
      d="M46.872,30.959c0.292-0.434,0.628-0.892,0.955-1.356c0.52,0.205,1.039,0.444,1.543,0.638   c-0.3-0.485-0.592-0.969-0.905-1.452c0.359-0.448,0.72-0.888,1.113-1.327c-0.565,0.129-1.123,0.293-1.699,0.438   c-0.319-0.511-0.642-0.984-0.969-1.429c-0.032,0.572-0.043,1.141-0.065,1.709c-0.558,0.161-1.109,0.372-1.644,0.559   c0.559,0.159,1.09,0.311,1.639,0.523C46.841,29.83,46.844,30.391,46.872,30.959z">
    </path>
    <path fill="#000000"
      d="M31.635,39.575c0.313,0.479,0.629,0.956,0.949,1.397c0.024-0.518,0.039-1.074,0.073-1.636   c0.554-0.13,1.108-0.218,1.636-0.303c-0.512-0.248-1.027-0.493-1.546-0.763c0.066-0.563,0.139-1.13,0.233-1.691   c-0.429,0.398-0.802,0.852-1.199,1.267c-0.522-0.234-1.067-0.468-1.595-0.693c0.286,0.524,0.576,1.015,0.885,1.5   c-0.368,0.457-0.75,0.885-1.084,1.359C30.524,39.844,31.077,39.686,31.635,39.575z">
    </path>
    <path fill="#000000"
      d="M23.259,57.717c0.389-0.425,0.778-0.871,1.15-1.278c0.538,0.237,1.061,0.47,1.583,0.697   c-0.287-0.469-0.591-0.949-0.84-1.434c0.405-0.396,0.792-0.784,1.207-1.159c-0.569,0.068-1.132,0.142-1.694,0.223   c-0.271-0.497-0.497-1.028-0.737-1.569c-0.117,0.593-0.243,1.158-0.319,1.727c-0.564,0.086-1.128,0.179-1.708,0.306   c0.515,0.254,1.029,0.504,1.545,0.749L23.259,57.717z">
    </path>
    <path fill="#000000"
      d="M49.622,59.628c0.516-1.924,3.697-3.421,7.548-3.421c3.868,0,7.048,1.498,7.548,3.421   c0.061-0.172,0.077-0.346,0.077-0.554c0-2.177-3.415-3.976-7.625-3.976s-7.624,1.799-7.624,3.976   C49.546,59.282,49.577,59.456,49.622,59.628z">
    </path>
    <path fill="#000000"
      d="M51.321,56.105l0.212-1.332l0.228,0.652v0.228v0.193c1.067-0.57,2.459-0.961,4.02-1.108l0.184-1.074   l0.212,0.652v0.228v0.15c-0.114,0.005-0.229,0.013-0.353,0.041c0.437-0.04,0.887-0.061,1.346-0.061c2.086,0,3.974,0.425,5.345,1.14   c-0.077-0.051-0.16-0.102-0.264-0.151L62.383,55l0.198,0.653v0.193c0.324,0.174,0.619,0.363,0.88,0.567   c-0.008-2.664-1.502-4.967-3.662-6.018c-0.273-0.792-0.968-1.428-1.851-1.686h0.232v-0.683h0.198v-1.108H57.65l-0.375-1.141   c0.261-0.082,0.449-0.316,0.449-0.619c0-0.377-0.29-0.652-0.653-0.652c-0.378,0-0.667,0.275-0.667,0.652   c0,0.304,0.188,0.539,0.459,0.619l-0.383,1.141h-0.744v1.108h0.228v0.683h0.241c-0.926,0.271-1.642,0.957-1.885,1.802   c-2.034,1.099-3.433,3.333-3.44,5.901c0.142-0.111,0.297-0.217,0.458-0.319C51.333,56.098,51.326,56.102,51.321,56.105z    M61.049,54.317L61.275,55v0.228v0.043c-0.134-0.025-0.238-0.048-0.375-0.101L61.049,54.317z M59.713,54.12l0.228,0.653v0.159   c-0.101-0.015-0.233-0.028-0.336-0.071L59.713,54.12z M57.953,53.665l0.227,0.652v0.228v0.15c-0.141-0.005-0.281-0.009-0.392-0.012   L57.953,53.665z M54.188,53.893l0.228,0.652v0.228v0.159c-0.146,0.018-0.277,0.066-0.42,0.086L54.188,53.893z M52.869,54.317   L53.081,55v0.228v0.043c-0.13,0.058-0.259,0.119-0.4,0.148L52.869,54.317z">
    </path>
    <path fill="#000000"
      d="M57.019,60.411c0.051,0,0.101-0.001,0.152-0.001c4.539,0,8.337,1.337,9.209,3.096   c0.136-0.246,0.177-0.497,0.177-0.782c0-2.139-4.178-3.847-9.386-3.847c-5.178,0-9.385,1.708-9.385,3.847   c0,0.285,0.055,0.536,0.191,0.782c0.845-1.734,4.555-3.06,9.012-3.094c0.006,0,0.011-0.002,0.017-0.002   C57.009,60.41,57.014,60.411,57.019,60.411z">
    </path>
    <path fill="#000000"
      d="M104.979,85.571h-1.753V73.938l1.107-1.601h-1.336v-0.425h-0.424v-1.337h-3.323v1.337h-2.443v-1.337h-0.88   v1.337h-2.413v-1.337h-0.881v1.337h-2.67v-1.337h-0.881v1.337h-2.844v-1.337h-0.023h-0.858h-0.021v1.337H82.49v-1.337h-0.881v1.337   h-2.215v-1.337h-0.88v1.337h-3.097v-1.337h-0.88v1.337h-1.987v-1.337h-0.91v1.337H70.76v-0.467h0.684l-0.881-0.474v-2.155h-1.479   l0.372-1.426h-3.323v-3.394c0-0.263-0.229-0.492-0.492-0.492c-0.291,0-0.521,0.229-0.521,0.492v3.394H64.62v-4.274   c0-0.398-0.322-0.719-0.719-0.719c-0.398,0-0.719,0.32-0.719,0.719v3.896l-0.53-0.284v-4.491c0-0.468-0.352-0.818-0.817-0.818   s-0.847,0.351-0.847,0.818v3.598l-0.5-0.269v-3.738c0-0.543-0.45-0.963-0.963-0.963c-0.543,0-0.993,0.42-0.993,0.963v2.688   l-0.499-0.268v-2.811c0-0.56-0.458-1.019-1.015-1.027c-0.01,0.001-0.02,0.001-0.03,0.001c-0.554,0.009-1.011,0.469-1.011,1.026   v2.882l-0.514,0.276v-2.769c0-0.543-0.436-0.963-0.963-0.963c-0.528,0-0.962,0.42-0.962,0.963v3.802l-0.514,0.276v-3.669   c0-0.468-0.382-0.818-0.833-0.818c-0.466,0-0.833,0.351-0.833,0.818V66.8l-0.514,0.275v-3.958c0-0.398-0.32-0.719-0.719-0.719   c-0.397,0-0.719,0.32-0.719,0.719v4.274h-0.514v-3.394c0-0.263-0.229-0.492-0.506-0.492c-0.277,0-0.506,0.229-0.506,0.492v3.394   h-3.418l0.359,1.426h-1.24v2.156l-0.879,0.473h0.666v0.467h-0.895v-1.337h-0.879v1.337h-1.988v-1.337h-0.88v1.337H35.63v-1.337   h-0.895v1.337h-2.201v-1.337h-0.88v1.337h-2.883v-1.337h-0.112h-0.768h-0.127v1.337h-2.868v-1.337h-0.88v1.337H21.36v-1.337h-0.88   v1.337h-2.428v-1.337h-0.895v1.337h-2.428v-1.337h-3.308v1.337h-0.455v0.425h-1.32l1.107,1.586v11.647H9.881L7.43,89.938h26.135   h0.807h73.058L104.979,85.571z M14.843,85.849h-2.77v-9.47c0-0.776,0.625-1.371,1.385-1.371c0.761,0,1.385,0.595,1.385,1.371   V85.849z M18.312,85.849h-2.756v-9.47c0-0.776,0.611-1.371,1.385-1.371c0.761,0,1.372,0.595,1.372,1.371V85.849z M21.793,85.849   h-2.77v-9.47c0-0.776,0.625-1.371,1.385-1.371c0.761,0,1.385,0.595,1.385,1.371V85.849z M25.261,85.849h-2.755v-9.47   c0-0.776,0.61-1.371,1.385-1.371c0.761,0,1.37,0.595,1.37,1.371V85.849z M28.743,85.849h-2.771v-9.47   c0-0.776,0.625-1.371,1.386-1.371c0.76,0,1.385,0.595,1.385,1.371V85.849z M32.498,85.849h-2.771v-9.47   c0-0.776,0.625-1.371,1.385-1.371c0.761,0,1.386,0.595,1.386,1.371V85.849z M35.964,85.849h-2.755v-9.47   c0-0.776,0.61-1.371,1.385-1.371c0.761,0,1.37,0.595,1.37,1.371V85.849z M39.446,85.849h-2.771v-9.47   c0-0.776,0.625-1.371,1.386-1.371c0.761,0,1.385,0.595,1.385,1.371V85.849z M42.915,85.849h-2.756v-9.47   c0-0.776,0.611-1.371,1.385-1.371c0.762,0,1.372,0.595,1.372,1.371V85.849z M47.346,86.056h-3.097V75.434   c0-0.833,0.687-1.533,1.548-1.533c0.847,0,1.548,0.7,1.548,1.533V86.056z M51.093,86.056h-3.095V75.434   c0-0.833,0.7-1.533,1.548-1.533c0.861,0,1.547,0.7,1.547,1.533V86.056z M54.856,86.056h-3.095V75.434   c0-0.833,0.686-1.533,1.547-1.533c0.847,0,1.548,0.7,1.548,1.533V86.056z M58.605,86.056h-3.081V75.434   c0-0.833,0.686-1.533,1.547-1.533c0.862,0,1.534,0.7,1.534,1.533V86.056z M62.383,86.056h-3.095V75.434   c0-0.833,0.67-1.533,1.532-1.533c0.861,0,1.562,0.7,1.562,1.533V86.056z M66.132,86.056h-3.095V75.434   c0-0.833,0.7-1.533,1.532-1.533c0.861,0,1.562,0.7,1.562,1.533V86.056z M69.88,86.056h-3.096V75.434c0-0.833,0.7-1.533,1.562-1.533   c0.832,0,1.533,0.7,1.533,1.533V86.056z M73.985,85.849h-2.771v-9.47c0-0.776,0.625-1.371,1.371-1.371   c0.774,0,1.399,0.595,1.399,1.371V85.849z M77.438,85.849h-2.739v-9.47c0-0.776,0.595-1.371,1.37-1.371   c0.774,0,1.369,0.595,1.369,1.371V85.849z M80.92,85.849h-2.77v-9.47c0-0.776,0.624-1.371,1.4-1.371   c0.745,0,1.369,0.595,1.369,1.371V85.849z M84.403,85.849h-2.771v-9.47c0-0.776,0.626-1.371,1.4-1.371   c0.601,0,1.121,0.386,1.303,0.94v0.417h0.067c0,0.005,0.001,0.01,0.001,0.014V85.849z M87.992,85.849h-2.565v-9.47   c-0.176-0.004-0.176-0.009-0.176-0.014h0.201v-0.714c0.237-0.39,0.665-0.644,1.17-0.644c0.773,0,1.37,0.595,1.37,1.371V85.849z    M91.474,85.849h-2.77v-9.47c0-0.776,0.625-1.371,1.4-1.371c0.744,0,1.369,0.595,1.369,1.371V85.849z M94.956,85.849h-2.771v-9.47   c0-0.776,0.626-1.371,1.401-1.371c0.744,0,1.369,0.595,1.369,1.371V85.849z M98.439,85.849h-2.771v-9.47   c0-0.776,0.625-1.371,1.371-1.371c0.774,0,1.4,0.595,1.4,1.371V85.849z M101.891,85.849h-2.74v-9.47   c0-0.776,0.596-1.371,1.371-1.371c0.774,0,1.369,0.595,1.369,1.371V85.849z">
    </path>
    <path fill="#000000"
      d="M51.093,58.655v0.7c0.317-0.129,0.66-0.223,0.998-0.312v-0.389c0-0.293-0.214-0.491-0.491-0.491   S51.093,58.362,51.093,58.655z">
    </path>
    <path fill="#000000"
      d="M52.907,58.2v0.636c0.322-0.072,0.649-0.11,0.998-0.174V58.2c0-0.262-0.23-0.491-0.507-0.491   S52.907,57.938,52.907,58.2z">
    </path>
    <path fill="#000000"
      d="M54.705,57.791v0.776c0.324-0.053,0.667-0.071,0.998-0.085v-0.691c0-0.262-0.215-0.491-0.491-0.491   C54.935,57.299,54.705,57.528,54.705,57.791z">
    </path>
    <path fill="#000000"
      d="M56.518,57.562v0.865c0.211-0.003,0.439-0.006,0.652-0.006c0.117,0,0.23,0.002,0.346,0.002v-0.861   c0-0.261-0.229-0.491-0.507-0.491C56.732,57.071,56.518,57.301,56.518,57.562z">
    </path>
    <path fill="#000000"
      d="M58.332,57.775v0.666c0.331,0.041,0.658,0.056,0.981,0.076v-0.742c0-0.292-0.229-0.521-0.49-0.521   C58.53,57.253,58.332,57.482,58.332,57.775z">
    </path>
    <path fill="#000000"
      d="M60.115,58.2v0.403c0.363,0.059,0.69,0.123,1.013,0.162V58.2c0-0.262-0.23-0.491-0.491-0.491   C60.344,57.709,60.115,57.938,60.115,58.2z">
    </path>
    <path fill="#000000"
      d="M61.929,58.671v0.292c0.336,0.083,0.694,0.171,1.013,0.265v-0.557c0-0.263-0.23-0.491-0.521-0.491   C62.157,58.18,61.929,58.408,61.929,58.671z">
    </path>
    <path fill="#000000"
      d="M51.761,55.857v-0.01c-0.147,0.079-0.287,0.162-0.422,0.248C51.467,56.013,51.611,55.934,51.761,55.857z"></path>
    <path fill="#000000"
      d="M55.779,54.745c0.015-0.003,0.03-0.006,0.045-0.01c-0.015,0.001-0.029,0.002-0.043,0.003L55.779,54.745z"></path>
    <path fill="#000000"
      d="M62.581,55.857v-0.01c-0.021-0.011-0.044-0.022-0.065-0.032C62.537,55.828,62.56,55.843,62.581,55.857z"></path>
  </g>
</svg>