<svg height="100" width="100" xmlns="http://www.w3.org/2000/svg" viewBox="0 0 64 91">
    <path d="M37.22 4.756h10.303a4.207 4.207 0 014.126 3.43h9.104c1.74 0 3.15 1.417 3.15 3.168v75.723c0 1.75-1.41 3.168-3.15 3.168h-56.7a3.159 3.159 0 01-3.15-3.168V11.354c0-1.75 1.41-3.168 3.15-3.168h9.104c.37-1.953 2.076-3.43 4.125-3.43h10.303c.177-2.52 2.266-4.51 4.818-4.51 2.551 0 4.64 1.99 4.818 4.51zm-24.137 8.9h-7.98v71.119h54.6V13.656h-7.98v2.32h-38.64v-2.32zM9.388 32.217c0 3.617 2.926 6.547 6.533 6.547 3.606 0 6.532-2.93 6.532-6.547 0-.583-.47-1.056-1.05-1.056-.58 0-1.05.473-1.05 1.056a4.434 4.434 0 11-8.865 0 4.434 4.434 0 014.433-4.434c.58 0 1.05-.473 1.05-1.057 0-.583-.47-1.056-1.05-1.056-3.607 0-6.533 2.93-6.533 6.547zm0 18.408c0 3.617 2.926 6.547 6.533 6.547 3.606 0 6.532-2.93 6.532-6.547 0-.584-.47-1.056-1.05-1.056-.58 0-1.05.472-1.05 1.056a4.434 4.434 0 11-8.865 0 4.434 4.434 0 014.433-4.435c.58 0 1.05-.473 1.05-1.056 0-.583-.47-1.056-1.05-1.056-3.607 0-6.533 2.93-6.533 6.547zm13.065 17.322c0-3.616-2.926-6.547-6.532-6.547-3.607 0-6.533 2.93-6.533 6.547 0 3.617 2.926 6.547 6.533 6.547 3.606 0 6.532-2.93 6.532-6.547zm-10.965 0a4.434 4.434 0 118.865 0 4.434 4.434 0 11-8.865 0zM51.636 33.85c1.16 0 2.1-.946 2.1-2.112 0-1.167-.94-2.112-2.1-2.112H28.509c-1.16 0-2.1.945-2.1 2.112 0 1.166.94 2.112 2.1 2.112h23.127zm0 18.376c1.16 0 2.1-.945 2.1-2.112 0-1.166-.94-2.112-2.1-2.112H28.509c-1.16 0-2.1.946-2.1 2.112 0 1.167.94 2.112 2.1 2.112h23.127zm0 17.215c1.16 0 2.1-.946 2.1-2.112 0-1.167-.94-2.112-2.1-2.112H28.509c-1.16 0-2.1.945-2.1 2.112 0 1.166.94 2.112 2.1 2.112h23.127zm-35.955-35.71l.83.795.715-.9 5.814-7.32a1.06 1.06 0 00-.165-1.484 1.046 1.046 0 00-1.476.166l-5.096 6.422-1.348-1.292a1.046 1.046 0 00-1.485.037 1.06 1.06 0 00.036 1.493l2.175 2.083zm0 18.367l.83.795.715-.9 5.814-7.32a1.06 1.06 0 00-.165-1.484 1.046 1.046 0 00-1.476.166l-5.096 6.422-1.348-1.292a1.046 1.046 0 00-1.485.037 1.06 1.06 0 00.036 1.493l2.175 2.083z" fill-rule="evenodd"/>
</svg>
