<svg height='100px' width='100px'  fill="#000000" xmlns="http://www.w3.org/2000/svg" xmlns:xlink="http://www.w3.org/1999/xlink" version="1.1" x="0px" y="0px" viewBox="0 0 100 100" style="enable-background:new 0 0 100 100;" xml:space="preserve"><g><path d="M48.6,16.8c-19,0-34.4,15.4-34.4,34.4c0,19,15.4,34.4,34.4,34.4c19,0,34.4-15.4,34.4-34.4C83,32.1,67.6,16.8,48.6,16.8z    M48.6,85C30,85,14.8,69.8,14.8,51.1c0-18.7,15.2-33.8,33.8-33.8c18.7,0,33.8,15.2,33.8,33.8C82.5,69.8,67.3,85,48.6,85z"></path><path d="M48.6,18.2c-18.2,0-32.9,14.7-32.9,32.9C15.7,69.3,30.5,84,48.6,84c18.2,0,32.9-14.7,32.9-32.9   C81.5,33,66.8,18.2,48.6,18.2z M48.6,83c-17.6,0-31.9-14.3-31.9-31.9c0-17.6,14.3-31.9,31.9-31.9c17.6,0,31.9,14.3,31.9,31.9   C80.5,68.7,66.2,83,48.6,83z"></path><path d="M47.1,15.8c0,0,2.3-0.6,2.3-2.3c0-0.5,0-0.9,0-1.2v-1.6V9.2c0,0-0.1-1.3,0.8-2.1c0,0-2.3,0.6-2.3,2.3c0,0.5,0,0.9,0,1.2   c0,1,0,1.6,0,1.6v1.4C47.9,13.7,47.9,15,47.1,15.8z"></path><path d="M46.8,13.5c0-0.5-0.1-0.9-0.1-1.2l-0.1-1.6l-0.1-1.4c0,0-0.1-1.3,0.6-2.2c0,0-2.3,0.8-2.2,2.5c0,0.5,0.1,0.9,0.1,1.2   c0.1,1,0.1,1.6,0.1,1.6l0.1,1.4c0,0,0.1,1.3-0.6,2.2C44.6,16,46.9,15.2,46.8,13.5z"></path><path d="M42.2,11.1c0.1,1,0.2,1.6,0.2,1.6l0.2,1.4c0,0,0.2,1.3-0.5,2.2c0,0,2.2-1,2-2.6c-0.1-0.4-0.1-0.9-0.2-1.2l-0.2-1.6   l-0.2-1.4c0,0-0.2-1.3,0.5-2.2c0,0-2.2,1-2,2.6C42.1,10.3,42.2,10.7,42.2,11.1z"></path><path d="M39.5,11.6c0.2,1,0.3,1.6,0.3,1.6l0.3,1.4c0,0,0.3,1.2-0.3,2.2c0,0,2.1-1.1,1.8-2.8c-0.1-0.4-0.2-0.9-0.3-1.2L41,11.3   l-0.3-1.4c0,0-0.3-1.2,0.3-2.2c0,0-2.1,1.1-1.8,2.8C39.3,10.9,39.4,11.3,39.5,11.6z"></path><path d="M36.7,12.4c0.3,1,0.5,1.6,0.5,1.6l0.4,1.4c0,0,0.4,1.2-0.2,2.3c0,0,2.1-1.3,1.6-2.9c-0.1-0.4-0.2-0.8-0.3-1.2L38.2,12   l-0.4-1.4c0,0-0.4-1.2,0.2-2.3c0,0-2.1,1.3-1.6,2.9C36.5,11.6,36.6,12,36.7,12.4z"></path><path d="M34.1,13.3c0.3,0.9,0.6,1.5,0.6,1.5l0.5,1.3c0,0,0.5,1.2,0,2.3c0,0,2-1.4,1.4-3c-0.2-0.4-0.3-0.8-0.4-1.2l-0.6-1.5L35,11.4   c0,0-0.5-1.2,0-2.3c0,0-2,1.4-1.4,3C33.8,12.6,33.9,13,34.1,13.3z"></path><path d="M31.5,14.4c0.4,0.9,0.7,1.5,0.7,1.5l0.6,1.3c0,0,0.6,1.1,0.1,2.3c0,0,1.9-1.5,1.2-3.1c-0.2-0.4-0.4-0.8-0.5-1.1l-0.7-1.5   l-0.6-1.3c0,0-0.6-1.1-0.1-2.3c0,0-1.9,1.5-1.2,3.1C31.1,13.7,31.3,14.1,31.5,14.4z"></path><path d="M28.9,15.7c0.5,0.9,0.8,1.4,0.8,1.4l0.7,1.3c0,0,0.7,1.1,0.3,2.2c0,0,1.7-1.6,1-3.1c-0.2-0.4-0.4-0.8-0.6-1.1L30.3,15   l-0.7-1.3c0,0-0.7-1.1-0.3-2.2c0,0-1.7,1.6-1,3.1C28.6,15,28.8,15.4,28.9,15.7z"></path><path d="M26.5,17.2c0.5,0.8,0.9,1.4,0.9,1.4l0.8,1.2c0,0,0.7,1,0.5,2.2c0,0,1.6-1.8,0.7-3.2c-0.2-0.4-0.5-0.7-0.7-1.1l-0.9-1.4   l-0.8-1.2c0,0-0.7-1-0.5-2.2c0,0-1.6,1.8-0.7,3.2C26.1,16.5,26.3,16.9,26.5,17.2z"></path><path d="M24.2,18.8c0.6,0.8,1,1.3,1,1.3l0.8,1.2c0,0,0.8,1,0.6,2.2c0,0,1.5-1.9,0.5-3.2c-0.3-0.4-0.5-0.7-0.7-1l-1-1.3l-0.8-1.2   c0,0-0.8-1-0.6-2.2c0,0-1.5,1.9-0.5,3.2C23.7,18.2,24,18.5,24.2,18.8z"></path><path d="M22,20.6c0.6,0.8,1.1,1.3,1.1,1.3l0.9,1.1c0,0,0.9,0.9,0.8,2.1c0,0,1.4-2,0.3-3.3c-0.3-0.3-0.6-0.7-0.8-0.9l-1.1-1.3   l-0.9-1.1c0,0-0.9-0.9-0.8-2.1c0,0-1.4,2-0.3,3.3C21.5,20,21.8,20.3,22,20.6z"></path><path d="M19.9,22.5c0.7,0.7,1.1,1.2,1.1,1.2l1,1c0,0,0.9,0.9,0.9,2.1c0,0,1.2-2.1,0.1-3.3c-0.3-0.3-0.6-0.6-0.9-0.9L21,21.4l-1-1   c0,0-0.9-0.9-0.9-2.1c0,0-1.2,2.1-0.1,3.3C19.4,21.9,19.7,22.2,19.9,22.5z"></path><path d="M18,24.6c0.7,0.7,1.2,1.1,1.2,1.1l1.1,1c0,0,1,0.8,1,2c0,0,1.1-2.1-0.2-3.3c-0.3-0.3-0.6-0.6-0.9-0.8L19,23.4l-1.1-1   c0,0-1-0.8-1-2c0,0-1.1,2.1,0.2,3.3C17.4,24.1,17.7,24.3,18,24.6z"></path><path d="M15.3,26c0.4,0.3,0.7,0.5,1,0.8c0.8,0.6,1.3,1,1.3,1l1.1,0.9c0,0,1,0.7,1.2,1.9c0,0,0.9-2.2-0.4-3.3   c-0.4-0.3-0.7-0.5-1-0.8l-1.3-1L16,24.7c0,0-1-0.7-1.2-1.9C14.9,22.8,13.9,25,15.3,26z"></path><path d="M13.6,28.4c0.4,0.3,0.7,0.5,1,0.7C15.4,29.7,16,30,16,30l1.2,0.8c0,0,1.1,0.7,1.3,1.8c0,0,0.8-2.3-0.6-3.2   c-0.4-0.3-0.7-0.5-1-0.7l-1.4-0.9L14.3,27c0,0-1.1-0.7-1.3-1.8C13,25.2,12.2,27.5,13.6,28.4z"></path><path d="M12.1,30.9c0.4,0.2,0.8,0.4,1.1,0.6c0.9,0.5,1.4,0.8,1.4,0.8l1.2,0.7c0,0,1.1,0.6,1.4,1.7c0,0,0.6-2.3-0.8-3.2   c-0.4-0.2-0.8-0.4-1.1-0.6l-1.4-0.8l-1.2-0.7c0,0-1.1-0.6-1.4-1.7C11.2,27.7,10.6,30.1,12.1,30.9z"></path><path d="M10.8,33.5c0.4,0.2,0.8,0.4,1.1,0.5c0.9,0.4,1.5,0.7,1.5,0.7l1.3,0.6c0,0,1.2,0.5,1.6,1.6c0,0,0.4-2.4-1.1-3.1   c-0.4-0.2-0.8-0.4-1.1-0.5l-1.5-0.7L11.3,32c0,0-1.2-0.5-1.6-1.6C9.7,30.4,9.3,32.8,10.8,33.5z"></path><path d="M9.6,36.2c0.4,0.2,0.8,0.3,1.1,0.5c0.9,0.4,1.5,0.6,1.5,0.6l1.3,0.5c0,0,1.2,0.4,1.7,1.5c0,0,0.3-2.4-1.3-3   c-0.4-0.2-0.8-0.3-1.1-0.5l-1.5-0.6L10,34.7c0,0-1.2-0.4-1.7-1.5C8.4,33.2,8.1,35.6,9.6,36.2z"></path><path d="M8.7,38.9c0.4,0.1,0.8,0.3,1.2,0.4c1,0.3,1.6,0.5,1.6,0.5l1.4,0.4c0,0,1.2,0.3,1.8,1.4c0,0,0.1-2.4-1.5-2.9   c-0.4-0.1-0.8-0.3-1.2-0.4l-1.6-0.5L9,37.4c0,0-1.2-0.3-1.8-1.4C7.2,36,7.1,38.4,8.7,38.9z"></path><path d="M7.9,41.8c0.4,0.1,0.8,0.2,1.2,0.3c1,0.2,1.6,0.4,1.6,0.4l1.4,0.3c0,0,1.3,0.2,1.9,1.3c0,0-0.1-2.4-1.7-2.8   c-0.4-0.1-0.8-0.2-1.2-0.3l-1.6-0.4l-1.4-0.3c0,0-1.3-0.2-1.9-1.3C6.2,39,6.3,41.4,7.9,41.8z"></path><path d="M7.4,44.6c0.4,0.1,0.9,0.2,1.2,0.2c1,0.2,1.6,0.3,1.6,0.3l1.4,0.2c0,0,1.3,0.2,2,1.1c0,0-0.2-2.4-1.9-2.7   c-0.4-0.1-0.9-0.2-1.2-0.2l-1.6-0.3l-1.4-0.2c0,0-1.3-0.2-2-1.1C5.5,41.9,5.7,44.3,7.4,44.6z"></path><path d="M7,47.5c0.5,0,0.9,0.1,1.2,0.1c1,0.1,1.6,0.2,1.6,0.2l1.4,0.1c0,0,1.3,0.1,2,1c0,0-0.4-2.4-2.1-2.5c-0.5,0-0.9-0.1-1.2-0.1   l-1.6-0.2L7,46c0,0-1.3-0.1-2-1C5,45,5.4,47.3,7,47.5z"></path><path d="M6.9,50.4c0.5,0,0.9,0,1.2,0c1,0,1.6,0.1,1.6,0.1l1.4,0.1c0,0,1.3,0,2.1,0.9c0,0-0.6-2.3-2.2-2.4c-0.5,0-0.9,0-1.2,0   l-1.6-0.1l-1.4-0.1c0,0-1.3,0-2.1-0.9C4.6,48,5.2,50.4,6.9,50.4z"></path><path d="M6.9,53.3c0.5,0,0.9,0,1.2,0c1,0,1.6-0.1,1.6-0.1l1.4-0.1c0,0,1.3-0.1,2.1,0.7c0,0-0.7-2.3-2.4-2.2c-0.5,0-0.9,0-1.2,0   l-1.6,0.1l-1.4,0.1c0,0-1.3,0.1-2.1-0.7C4.5,51.1,5.3,53.4,6.9,53.3z"></path><path d="M7.2,56.3c0.5,0,0.9-0.1,1.2-0.1C9.4,56,10,56,10,56l1.4-0.2c0,0,1.3-0.2,2.2,0.6c0,0-0.9-2.2-2.5-2.1   c-0.5,0-0.9,0.1-1.2,0.1l-1.6,0.2l-1.4,0.2c0,0-1.3,0.2-2.2-0.6C4.6,54.2,5.5,56.4,7.2,56.3z"></path><path d="M7.6,59.1c0.4-0.1,0.9-0.2,1.2-0.2c1-0.2,1.6-0.3,1.6-0.3l1.4-0.2c0,0,1.2-0.3,2.2,0.4c0,0-1-2.2-2.7-1.9   c-0.4,0.1-0.9,0.2-1.2,0.2l-1.6,0.3l-1.4,0.2c0,0-1.2,0.3-2.2-0.4C5,57.3,6,59.4,7.6,59.1z"></path><path d="M8.3,62c0.4-0.1,0.8-0.2,1.2-0.3c1-0.2,1.6-0.4,1.6-0.4l1.4-0.3c0,0,1.2-0.4,2.3,0.3c0,0-1.2-2.1-2.8-1.7   c-0.4,0.1-0.8,0.2-1.2,0.3l-1.6,0.4l-1.4,0.3c0,0-1.2,0.4-2.3-0.3C5.5,60.3,6.7,62.4,8.3,62z"></path><path d="M9.2,64.8c0.4-0.1,0.8-0.3,1.2-0.4c1-0.3,1.6-0.5,1.6-0.5l1.4-0.4c0,0,1.2-0.5,2.3,0.1c0,0-1.3-2-2.9-1.5   c-0.4,0.1-0.8,0.3-1.2,0.4l-1.6,0.5l-1.4,0.4c0,0-1.2,0.5-2.3-0.1C6.2,63.3,7.6,65.3,9.2,64.8z"></path><path d="M10.2,67.5c0.4-0.2,0.8-0.3,1.1-0.5c0.9-0.4,1.5-0.6,1.5-0.6l1.3-0.5c0,0,1.2-0.5,2.3-0.1c0,0-1.5-1.9-3-1.3   c-0.4,0.2-0.8,0.3-1.1,0.5l-1.5,0.6l-1.3,0.5c0,0-1.2,0.5-2.3,0.1C7.2,66.2,8.6,68.1,10.2,67.5z"></path><path d="M11.4,70.1c0.4-0.2,0.8-0.4,1.1-0.5c0.9-0.4,1.5-0.7,1.5-0.7l1.3-0.6c0,0,1.1-0.6,2.3-0.2c0,0-1.6-1.8-3.1-1.1   c-0.4,0.2-0.8,0.4-1.1,0.5l-1.5,0.7l-1.3,0.6c0,0-1.1,0.6-2.3,0.2C8.3,69.1,9.9,70.9,11.4,70.1z"></path><path d="M12.9,72.7c0.4-0.2,0.8-0.4,1.1-0.6c0.9-0.5,1.4-0.8,1.4-0.8l1.2-0.7c0,0,1.1-0.7,2.2-0.4c0,0-1.7-1.7-3.2-0.8   c-0.4,0.2-0.8,0.4-1.1,0.6l-1.4,0.8l-1.2,0.7c0,0-1.1,0.7-2.2,0.4C9.7,71.8,11.4,73.5,12.9,72.7z"></path><path d="M14.4,75.1c0.4-0.3,0.7-0.5,1-0.7c0.8-0.6,1.4-0.9,1.4-0.9l1.2-0.8c0,0,1-0.8,2.2-0.5c0,0-1.8-1.6-3.2-0.6   c-0.4,0.3-0.7,0.5-1,0.7l-1.4,0.9L13.4,74c0,0-1,0.8-2.2,0.5C11.2,74.5,13.1,76.1,14.4,75.1z"></path><path d="M16.2,77.4c0.4-0.3,0.7-0.5,1-0.8c0.8-0.6,1.3-1,1.3-1l1.1-0.9c0,0,1-0.8,2.2-0.7c0,0-1.9-1.4-3.3-0.4   c-0.4,0.3-0.7,0.5-1,0.8l-1.3,1l-1.1,0.9c0,0-1,0.8-2.2,0.7C12.9,77,14.9,78.5,16.2,77.4z"></path><path d="M19,78.8c0.7-0.7,1.2-1.1,1.2-1.1l1.1-1c0,0,0.9-0.9,2.1-0.8c0,0-2-1.3-3.3-0.2c-0.3,0.3-0.6,0.6-0.9,0.8L18,77.7l-1.1,1   c0,0-0.9,0.9-2.1,0.8c0,0,2,1.3,3.3,0.2C18.5,79.3,18.8,79.1,19,78.8z"></path><path d="M21,80.8c0.7-0.7,1.1-1.2,1.1-1.2l1-1c0,0,0.8-1,2-1c0,0-2.1-1.2-3.3,0.1c-0.3,0.3-0.6,0.6-0.9,0.9l-1.1,1.2l-1,1   c0,0-0.8,1-2,1c0,0,2.1,1.2,3.3-0.1C20.5,81.4,20.8,81.1,21,80.8z"></path><path d="M22.4,83.6c0.3-0.3,0.6-0.7,0.8-0.9c0.6-0.8,1.1-1.3,1.1-1.3l0.9-1.1c0,0,0.8-1,2-1.1c0,0-2.2-1-3.3,0.3   c-0.3,0.3-0.6,0.7-0.8,0.9L22,81.7l-0.9,1.1c0,0-0.8,1-2,1.1C19.1,83.9,21.3,84.9,22.4,83.6z"></path><path d="M24.7,85.4c0.3-0.4,0.5-0.7,0.7-1c0.6-0.8,1-1.3,1-1.3l0.8-1.2c0,0,0.7-1.1,1.9-1.3c0,0-2.2-0.8-3.2,0.5   c-0.3,0.4-0.5,0.7-0.7,1l-1,1.3l-0.8,1.2c0,0-0.7,1.1-1.9,1.3C21.5,85.9,23.7,86.7,24.7,85.4z"></path><path d="M27.2,86.9c0.2-0.4,0.5-0.7,0.7-1.1c0.5-0.8,0.9-1.4,0.9-1.4l0.8-1.2c0,0,0.6-1.1,1.8-1.4c0,0-2.3-0.7-3.2,0.7   c-0.2,0.4-0.5,0.7-0.7,1.1l-0.9,1.4l-0.8,1.2c0,0-0.6,1.1-1.8,1.4C24,87.7,26.3,88.4,27.2,86.9z"></path><path d="M29.7,88.4c0.2-0.4,0.4-0.8,0.6-1.1c0.5-0.9,0.8-1.4,0.8-1.4l0.7-1.3c0,0,0.5-1.2,1.7-1.5c0,0-2.3-0.5-3.1,1   c-0.2,0.4-0.4,0.8-0.6,1.1l-0.8,1.4l-0.7,1.3c0,0-0.5,1.2-1.7,1.5C26.6,89.3,28.9,89.8,29.7,88.4z"></path><path d="M32.9,88.5c0.4-0.9,0.7-1.5,0.7-1.5l0.6-1.3c0,0,0.5-1.2,1.6-1.6c0,0-2.4-0.4-3.1,1.2c-0.2,0.4-0.4,0.8-0.5,1.1l-0.7,1.5   l-0.6,1.3c0,0-0.5,1.2-1.6,1.6c0,0,2.4,0.4,3.1-1.2C32.5,89.2,32.7,88.8,32.9,88.5z"></path><path d="M35.5,89.5c0.3-0.9,0.6-1.5,0.6-1.5l0.5-1.3c0,0,0.4-1.2,1.5-1.7c0,0-2.4-0.2-3,1.4c-0.2,0.4-0.3,0.8-0.4,1.2l-0.6,1.5   l-0.5,1.3c0,0-0.4,1.2-1.5,1.7c0,0,2.4,0.2,3-1.4C35.2,90.2,35.4,89.8,35.5,89.5z"></path><path d="M38.7,88.7l0.4-1.4c0,0,0.3-1.2,1.3-1.8c0,0-2.4,0-2.9,1.6c-0.1,0.4-0.2,0.8-0.3,1.2l-0.5,1.6l-0.4,1.4   c0,0-0.3,1.2-1.3,1.8c0,0,2.4,0,2.9-1.6c0.1-0.4,0.2-0.8,0.3-1.2C38.5,89.3,38.7,88.7,38.7,88.7z"></path><path d="M41.6,87.9c0,0,0.2-1.3,1.2-1.9c0,0-2.4,0.1-2.8,1.8c-0.1,0.4-0.2,0.9-0.3,1.2l-0.3,1.6L39.2,92c0,0-0.2,1.3-1.2,1.9   c0,0,2.4-0.1,2.8-1.8c0.1-0.4,0.2-0.9,0.3-1.2c0.2-1,0.3-1.6,0.3-1.6L41.6,87.9z"></path><path d="M45.3,86.3c0,0-2.4,0.3-2.6,2c-0.1,0.4-0.1,0.9-0.2,1.2l-0.2,1.6L42,92.6c0,0-0.1,1.3-1.1,2c0,0,2.4-0.3,2.6-2   c0.1-0.4,0.1-0.9,0.2-1.2c0.1-1,0.2-1.6,0.2-1.6l0.2-1.4C44.2,88.3,44.3,87,45.3,86.3z"></path><path d="M45.3,88.6c0,0.5-0.1,0.9-0.1,1.2L45,91.5l-0.1,1.4c0,0,0,1.3-0.9,2.1c0,0,2.4-0.5,2.5-2.2c0-0.5,0.1-0.9,0.1-1.2   c0.1-1,0.1-1.6,0.1-1.6l0.1-1.4c0,0,0-1.3,0.9-2.1C47.7,86.5,45.4,86.9,45.3,88.6z"></path><path d="M50.2,86.5c0,0-2.3,0.6-2.3,2.3c0,0.5,0,0.9,0,1.2v1.6v1.4c0,0,0.1,1.3-0.8,2.1c0,0,2.3-0.6,2.3-2.3c0-0.5,0-0.9,0-1.2   c0-1,0-1.6,0-1.6v-1.4C49.4,88.6,49.3,87.3,50.2,86.5z"></path><path d="M50.5,88.7c0,0.5,0.1,0.9,0.1,1.2l0.1,1.6l0.1,1.4c0,0,0.1,1.3-0.6,2.2c0,0,2.3-0.8,2.2-2.5c0-0.5-0.1-0.9-0.1-1.2   c-0.1-1-0.1-1.6-0.1-1.6L52,88.4c0,0-0.1-1.3,0.6-2.2C52.7,86.3,50.4,87.1,50.5,88.7z"></path><path d="M55,91.1c-0.1-1-0.2-1.6-0.2-1.6l-0.2-1.4c0,0-0.2-1.3,0.5-2.2c0,0-2.2,1-2,2.6c0.1,0.4,0.1,0.9,0.2,1.2l0.2,1.6l0.2,1.4   c0,0,0.2,1.3-0.5,2.2c0,0,2.2-1,2-2.6C55.1,91.9,55.1,91.5,55,91.1z"></path><path d="M57.8,90.6c-0.2-1-0.3-1.6-0.3-1.6l-0.3-1.4c0,0-0.3-1.2,0.3-2.2c0,0-2.1,1.1-1.8,2.8c0.1,0.4,0.2,0.9,0.3,1.2l0.3,1.6   l0.3,1.4c0,0,0.3,1.2-0.3,2.2c0,0,2.1-1.1,1.8-2.8C58,91.4,57.9,91,57.8,90.6z"></path><path d="M60.5,89.9c-0.3-1-0.5-1.6-0.5-1.6l-0.4-1.4c0,0-0.4-1.2,0.2-2.3c0,0-2.1,1.3-1.6,2.9c0.1,0.4,0.2,0.8,0.3,1.2l0.5,1.6   l0.4,1.4c0,0,0.4,1.2-0.2,2.3c0,0,2.1-1.3,1.6-2.9C60.8,90.6,60.6,90.2,60.5,89.9z"></path><path d="M63.2,88.9c-0.3-0.9-0.6-1.5-0.6-1.5l-0.5-1.3c0,0-0.5-1.2,0-2.3c0,0-2,1.4-1.4,3c0.2,0.4,0.3,0.8,0.4,1.2l0.6,1.5l0.5,1.3   c0,0,0.5,1.2,0,2.3c0,0,2-1.4,1.4-3C63.5,89.7,63.3,89.3,63.2,88.9z"></path><path d="M65.8,87.8c-0.4-0.9-0.7-1.5-0.7-1.5L64.6,85c0,0-0.6-1.1-0.1-2.3c0,0-1.9,1.5-1.2,3.1c0.2,0.4,0.4,0.8,0.5,1.1l0.7,1.5   l0.6,1.3c0,0,0.6,1.1,0.1,2.3c0,0,1.9-1.5,1.2-3.1C66.1,88.6,66,88.2,65.8,87.8z"></path><path d="M68.3,86.5c-0.5-0.9-0.8-1.4-0.8-1.4l-0.7-1.3c0,0-0.7-1.1-0.3-2.2c0,0-1.7,1.6-1,3.1c0.2,0.4,0.4,0.8,0.6,1.1l0.8,1.4   l0.7,1.3c0,0,0.7,1.1,0.3,2.2c0,0,1.7-1.6,1-3.1C68.7,87.2,68.5,86.9,68.3,86.5z"></path><path d="M70.8,85.1c-0.5-0.8-0.9-1.4-0.9-1.4l-0.8-1.2c0,0-0.7-1-0.5-2.2c0,0-1.6,1.8-0.7,3.2c0.2,0.4,0.5,0.7,0.7,1.1l0.9,1.4   l0.8,1.2c0,0,0.7,1,0.5,2.2c0,0,1.6-1.8,0.7-3.2C71.2,85.8,71,85.4,70.8,85.1z"></path><path d="M73.1,83.5c-0.6-0.8-1-1.3-1-1.3L71.3,81c0,0-0.8-1-0.6-2.2c0,0-1.5,1.9-0.5,3.2c0.3,0.4,0.5,0.7,0.7,1l1,1.3l0.8,1.2   c0,0,0.8,1,0.6,2.2c0,0,1.5-1.9,0.5-3.2C73.5,84.1,73.3,83.8,73.1,83.5z"></path><path d="M75.3,81.7c-0.6-0.8-1.1-1.3-1.1-1.3l-0.9-1.1c0,0-0.9-0.9-0.8-2.1c0,0-1.4,2-0.3,3.3c0.3,0.3,0.6,0.7,0.8,0.9l1.1,1.3   l0.9,1.1c0,0,0.9,0.9,0.8,2.1c0,0,1.4-2,0.3-3.3C75.8,82.3,75.5,82,75.3,81.7z"></path><path d="M77.3,79.7c-0.7-0.7-1.1-1.2-1.1-1.2l-1-1c0,0-0.9-0.9-0.9-2.1c0,0-1.2,2.1-0.1,3.3c0.3,0.3,0.6,0.6,0.9,0.9l1.1,1.2l1,1   c0,0,0.9,0.9,0.9,2.1c0,0,1.2-2.1,0.1-3.3C77.9,80.3,77.6,80,77.3,79.7z"></path><path d="M79.3,77.7C78.5,77,78,76.6,78,76.6l-1.1-1c0,0-1-0.8-1-2c0,0-1.1,2.1,0.2,3.3c0.3,0.3,0.6,0.6,0.9,0.8l1.2,1.1l1.1,1   c0,0,1,0.8,1,2c0,0,1.1-2.1-0.2-3.3C79.8,78.2,79.5,77.9,79.3,77.7z"></path><path d="M82,76.2c-0.4-0.3-0.7-0.5-1-0.8c-0.8-0.6-1.3-1-1.3-1l-1.1-0.9c0,0-1-0.7-1.2-1.9c0,0-0.9,2.2,0.4,3.3   c0.4,0.3,0.7,0.5,1,0.8l1.3,1l1.1,0.9c0,0,1,0.7,1.2,1.9C82.4,79.5,83.3,77.3,82,76.2z"></path><path d="M83.7,73.8c-0.4-0.3-0.7-0.5-1-0.7c-0.8-0.6-1.4-0.9-1.4-0.9l-1.2-0.8c0,0-1.1-0.7-1.3-1.8c0,0-0.8,2.3,0.6,3.2   c0.4,0.3,0.7,0.5,1,0.7l1.4,0.9l1.2,0.8c0,0,1.1,0.7,1.3,1.8C84.3,77.1,85.1,74.8,83.7,73.8z"></path><path d="M85.2,71.3c-0.4-0.2-0.8-0.4-1.1-0.6c-0.9-0.5-1.4-0.8-1.4-0.8l-1.2-0.7c0,0-1.1-0.6-1.4-1.7c0,0-0.6,2.3,0.8,3.2   c0.4,0.2,0.8,0.4,1.1,0.6l1.4,0.8l1.2,0.7c0,0,1.1,0.6,1.4,1.7C86,74.5,86.6,72.2,85.2,71.3z"></path><path d="M86.5,68.7c-0.4-0.2-0.8-0.4-1.1-0.5c-0.9-0.4-1.5-0.7-1.5-0.7l-1.3-0.6c0,0-1.2-0.5-1.6-1.6c0,0-0.4,2.4,1.1,3.1   c0.4,0.2,0.8,0.4,1.1,0.5l1.5,0.7l1.3,0.6c0,0,1.2,0.5,1.6,1.6C87.6,71.8,88,69.5,86.5,68.7z"></path><path d="M87.6,66.1c-0.4-0.2-0.8-0.3-1.1-0.5C85.6,65.2,85,65,85,65l-1.3-0.5c0,0-1.2-0.4-1.7-1.5c0,0-0.3,2.4,1.3,3   c0.4,0.2,0.8,0.3,1.1,0.5l1.5,0.6l1.3,0.5c0,0,1.2,0.4,1.7,1.5C88.9,69.1,89.2,66.7,87.6,66.1z"></path><path d="M88.6,63.3c-0.4-0.1-0.8-0.3-1.2-0.4c-1-0.3-1.6-0.5-1.6-0.5L84.5,62c0,0-1.2-0.3-1.8-1.4c0,0-0.1,2.4,1.5,2.9   c0.4,0.1,0.8,0.3,1.2,0.4l1.6,0.5l1.4,0.4c0,0,1.2,0.3,1.8,1.4C90.1,66.2,90.2,63.8,88.6,63.3z"></path><path d="M89.3,60.5c-0.4-0.1-0.8-0.2-1.2-0.3c-1-0.2-1.6-0.4-1.6-0.4l-1.4-0.3c0,0-1.3-0.2-1.9-1.3c0,0,0.1,2.4,1.7,2.8   c0.4,0.1,0.8,0.2,1.2,0.3l1.6,0.4l1.4,0.3c0,0,1.3,0.2,1.9,1.3C91,63.3,91,60.9,89.3,60.5z"></path><path d="M89.9,57.6c-0.4-0.1-0.9-0.2-1.2-0.2c-1-0.2-1.6-0.3-1.6-0.3l-1.4-0.2c0,0-1.3-0.2-2-1.1c0,0,0.2,2.4,1.9,2.7   c0.4,0.1,0.9,0.2,1.2,0.2l1.6,0.3l1.4,0.2c0,0,1.3,0.2,2,1.1C91.8,60.3,91.6,57.9,89.9,57.6z"></path><path d="M90.3,54.7c-0.5,0-0.9-0.1-1.2-0.1c-1-0.1-1.6-0.2-1.6-0.2L86,54.3c0,0-1.3-0.1-2-1c0,0,0.4,2.4,2.1,2.5   c0.5,0,0.9,0.1,1.2,0.1l1.6,0.2l1.4,0.1c0,0,1.3,0.1,2,1C92.3,57.3,91.9,54.9,90.3,54.7z"></path><path d="M90.4,51.8c-0.5,0-0.9,0-1.2,0c-1,0-1.6-0.1-1.6-0.1l-1.4-0.1c0,0-1.3,0-2.1-0.9c0,0,0.6,2.3,2.2,2.4c0.5,0,0.9,0,1.2,0   l1.6,0.1l1.4,0.1c0,0,1.3,0,2.1,0.9C92.6,54.2,92.1,51.9,90.4,51.8z"></path><path d="M90.3,48.9c-0.5,0-0.9,0-1.2,0c-1,0-1.6,0.1-1.6,0.1L86,49.1c0,0-1.3,0.1-2.1-0.7c0,0,0.7,2.3,2.4,2.2c0.5,0,0.9,0,1.2,0   l1.6-0.1l1.4-0.1c0,0,1.3-0.1,2.1,0.7C92.7,51.1,92,48.8,90.3,48.9z"></path><path d="M90.1,46c-0.5,0-0.9,0.1-1.2,0.1c-1,0.1-1.6,0.2-1.6,0.2l-1.4,0.2c0,0-1.3,0.2-2.2-0.6c0,0,0.9,2.2,2.5,2.1   c0.5,0,0.9-0.1,1.2-0.1l1.6-0.2l1.4-0.2c0,0,1.3-0.2,2.2,0.6C92.6,48.1,91.8,45.8,90.1,46z"></path><path d="M89.6,43.1c-0.4,0.1-0.9,0.2-1.2,0.2c-1,0.2-1.6,0.3-1.6,0.3l-1.4,0.2c0,0-1.2,0.3-2.2-0.4c0,0,1,2.2,2.7,1.9   c0.4-0.1,0.9-0.2,1.2-0.2l1.6-0.3l1.4-0.2c0,0,1.2-0.3,2.2,0.4C92.3,45,91.3,42.8,89.6,43.1z"></path><path d="M89,40.3c-0.4,0.1-0.8,0.2-1.2,0.3c-1,0.2-1.6,0.4-1.6,0.4l-1.4,0.3c0,0-1.2,0.4-2.3-0.3c0,0,1.2,2.1,2.8,1.7   c0.4-0.1,0.8-0.2,1.2-0.3l1.6-0.4l1.4-0.3c0,0,1.2-0.4,2.3,0.3C91.8,42,90.6,39.9,89,40.3z"></path><path d="M88.1,37.5c-0.4,0.1-0.8,0.3-1.2,0.4c-1,0.3-1.6,0.5-1.6,0.5L84,38.8c0,0-1.2,0.5-2.3-0.1c0,0,1.3,2,2.9,1.5   c0.4-0.1,0.8-0.3,1.2-0.4l1.6-0.5l1.4-0.4c0,0,1.2-0.5,2.3,0.1C91,39,89.7,37,88.1,37.5z"></path><path d="M87.1,34.8c-0.4,0.2-0.8,0.3-1.1,0.5c-0.9,0.4-1.5,0.6-1.5,0.6l-1.3,0.5c0,0-1.2,0.5-2.3,0.1c0,0,1.5,1.9,3,1.3   c0.4-0.2,0.8-0.3,1.1-0.5l1.5-0.6l1.3-0.5c0,0,1.2-0.5,2.3-0.1C90.1,36.1,88.6,34.1,87.1,34.8z"></path><path d="M85.8,32.1c-0.4,0.2-0.8,0.4-1.1,0.5c-0.9,0.4-1.5,0.7-1.5,0.7L82,34c0,0-1.1,0.6-2.3,0.2c0,0,1.6,1.8,3.1,1.1   c0.4-0.2,0.8-0.4,1.1-0.5l1.5-0.7l1.3-0.6c0,0,1.1-0.6,2.3-0.2C88.9,33.2,87.4,31.4,85.8,32.1z"></path><path d="M84.4,29.6c-0.4,0.2-0.8,0.4-1.1,0.6c-0.9,0.5-1.4,0.8-1.4,0.8l-1.2,0.7c0,0-1.1,0.7-2.2,0.4c0,0,1.7,1.7,3.2,0.8   c0.4-0.2,0.8-0.4,1.1-0.6l1.4-0.8l1.2-0.7c0,0,1.1-0.7,2.2-0.4C87.6,30.4,85.9,28.7,84.4,29.6z"></path><path d="M82.8,27.1c-0.4,0.3-0.7,0.5-1,0.7c-0.8,0.6-1.4,0.9-1.4,0.9l-1.2,0.8c0,0-1,0.8-2.2,0.5c0,0,1.8,1.6,3.2,0.6   c0.4-0.3,0.7-0.5,1-0.7l1.4-0.9l1.2-0.8c0,0,1-0.8,2.2-0.5C86.1,27.8,84.2,26.2,82.8,27.1z"></path><path d="M81.1,24.8c-0.4,0.3-0.7,0.5-1,0.8c-0.8,0.6-1.3,1-1.3,1l-1.1,0.9c0,0-1,0.8-2.2,0.7c0,0,1.9,1.4,3.3,0.4   c0.4-0.3,0.7-0.5,1-0.8l1.3-1l1.1-0.9c0,0,1-0.8,2.2-0.7C84.3,25.2,82.4,23.8,81.1,24.8z"></path><path d="M78.2,23.4c-0.7,0.7-1.2,1.1-1.2,1.1l-1.1,1c0,0-0.9,0.9-2.1,0.8c0,0,2,1.3,3.3,0.2c0.3-0.3,0.6-0.6,0.9-0.8l1.2-1.1l1.1-1   c0,0,0.9-0.9,2.1-0.8c0,0-2-1.3-3.3-0.2C78.8,22.9,78.5,23.2,78.2,23.4z"></path><path d="M76.2,21.4c-0.7,0.7-1.1,1.2-1.1,1.2l-1,1c0,0-0.8,1-2,1c0,0,2.1,1.2,3.3-0.1c0.3-0.3,0.6-0.6,0.9-0.9l1.1-1.2l1-1   c0,0,0.8-1,2-1c0,0-2.1-1.2-3.3,0.1C76.8,20.9,76.5,21.2,76.2,21.4z"></path><path d="M74.9,18.6c-0.3,0.3-0.6,0.7-0.8,0.9c-0.6,0.8-1.1,1.3-1.1,1.3l-0.9,1.1c0,0-0.8,1-2,1.1c0,0,2.2,1,3.3-0.3   c0.3-0.3,0.6-0.7,0.8-0.9l1.1-1.3l0.9-1.1c0,0,0.8-1,2-1.1C78.2,18.4,76,17.4,74.9,18.6z"></path><path d="M72.6,16.9c-0.3,0.4-0.5,0.7-0.7,1c-0.6,0.8-1,1.3-1,1.3L70,20.4c0,0-0.7,1.1-1.9,1.3c0,0,2.2,0.8,3.2-0.5   c0.3-0.4,0.5-0.7,0.7-1l1-1.3l0.8-1.2c0,0,0.7-1.1,1.9-1.3C75.8,16.4,73.6,15.5,72.6,16.9z"></path><path d="M70.1,15.3c-0.2,0.4-0.5,0.7-0.7,1.1c-0.5,0.8-0.9,1.4-0.9,1.4L67.8,19c0,0-0.6,1.1-1.8,1.4c0,0,2.3,0.7,3.2-0.7   c0.2-0.4,0.5-0.7,0.7-1.1l0.9-1.4l0.8-1.2c0,0,0.6-1.1,1.8-1.4C73.3,14.6,71,13.9,70.1,15.3z"></path><path d="M67.6,13.9c-0.2,0.4-0.4,0.8-0.6,1.1c-0.5,0.9-0.8,1.4-0.8,1.4l-0.7,1.3c0,0-0.5,1.2-1.7,1.5c0,0,2.3,0.5,3.1-1   c0.2-0.4,0.4-0.8,0.6-1.1l0.8-1.4l0.7-1.3c0,0,0.5-1.2,1.7-1.5C70.7,12.9,68.4,12.4,67.6,13.9z"></path><path d="M64.4,13.8c-0.4,0.9-0.7,1.5-0.7,1.5l-0.6,1.3c0,0-0.5,1.2-1.6,1.6c0,0,2.4,0.4,3.1-1.2c0.2-0.4,0.4-0.8,0.5-1.1l0.7-1.5   l0.6-1.3c0,0,0.5-1.2,1.6-1.6c0,0-2.4-0.4-3.1,1.2C64.7,13.1,64.6,13.5,64.4,13.8z"></path><path d="M61.8,12.8c-0.3,0.9-0.6,1.5-0.6,1.5l-0.5,1.3c0,0-0.4,1.2-1.5,1.7c0,0,2.4,0.2,3-1.4c0.2-0.4,0.3-0.8,0.4-1.2l0.6-1.5   l0.5-1.3c0,0,0.4-1.2,1.5-1.7c0,0-2.4-0.2-3,1.4C62,12,61.9,12.4,61.8,12.8z"></path><path d="M58.6,13.5l-0.4,1.4c0,0-0.3,1.2-1.3,1.8c0,0,2.4,0,2.9-1.6c0.1-0.4,0.2-0.8,0.3-1.2l0.5-1.6l0.4-1.4c0,0,0.3-1.2,1.3-1.8   c0,0-2.4,0-2.9,1.6c-0.1,0.4-0.2,0.8-0.3,1.2C58.8,12.9,58.6,13.5,58.6,13.5z"></path><path d="M55.7,14.3c0,0-0.2,1.3-1.2,1.9c0,0,2.4-0.1,2.8-1.8c0.1-0.4,0.2-0.9,0.3-1.2l0.3-1.6l0.3-1.4c0,0,0.2-1.3,1.2-1.9   c0,0-2.4,0.1-2.8,1.8c-0.1,0.4-0.2,0.9-0.3,1.2c-0.2,1-0.3,1.6-0.3,1.6L55.7,14.3z"></path><path d="M52,15.9c0,0,2.4-0.3,2.6-2c0.1-0.4,0.1-0.9,0.2-1.2l0.2-1.6l0.2-1.4c0,0,0.1-1.3,1.1-2c0,0-2.4,0.3-2.6,2   c-0.1,0.4-0.1,0.9-0.2,1.2c-0.1,1-0.2,1.6-0.2,1.6l-0.2,1.4C53.1,13.9,53,15.2,52,15.9z"></path><path d="M52,13.6c0-0.5,0.1-0.9,0.1-1.2l0.1-1.6l0.1-1.4c0,0,0-1.3,0.9-2.1c0,0-2.4,0.5-2.5,2.2c0,0.5-0.1,0.9-0.1,1.2   c-0.1,1-0.1,1.6-0.1,1.6l-0.1,1.4c0,0,0,1.3-0.9,2.1C49.6,15.8,51.9,15.3,52,13.6z"></path><circle cx="48.6" cy="20.7" r="0.7"></circle><ellipse transform="matrix(0.9945 -0.1045 0.1045 0.9945 -1.9264 4.8625)" cx="45.5" cy="20.8" rx="0.7" ry="0.7"></ellipse><ellipse transform="matrix(0.9782 -0.2079 0.2079 0.9782 -3.5076 9.2589)" cx="42.3" cy="21.3" rx="0.7" ry="0.7"></ellipse><ellipse transform="matrix(0.951 -0.309 0.309 0.951 -4.9239 13.2059)" cx="39.2" cy="22.1" rx="0.7" ry="0.7"></ellipse><ellipse transform="matrix(0.9135 -0.4067 0.4067 0.9135 -6.3387 16.7556)" cx="36.2" cy="23.3" rx="0.7" ry="0.7"></ellipse><ellipse transform="matrix(0.866 -0.5 0.5 0.866 -7.8931 20.0158)" cx="33.4" cy="24.7" rx="0.7" ry="0.7"></ellipse><ellipse transform="matrix(0.809 -0.5878 0.5878 0.809 -9.6924 23.1187)" cx="30.7" cy="26.5" rx="0.7" ry="0.7"></ellipse><ellipse transform="matrix(0.7432 -0.6691 0.6691 0.7432 -11.8014 26.217)" cx="28.2" cy="28.5" rx="0.7" ry="0.7"></ellipse><ellipse transform="matrix(0.6692 -0.7431 0.7431 0.6692 -14.2408 29.4854)" cx="26" cy="30.7" rx="0.7" ry="0.7"></ellipse><ellipse transform="matrix(0.5878 -0.809 0.809 0.5878 -16.9838 33.0989)" cx="24" cy="33.2" rx="0.7" ry="0.7"></ellipse><ellipse transform="matrix(0.5 -0.866 0.866 0.5 -19.9568 37.2146)" cx="22.3" cy="35.9" rx="0.7" ry="0.7"></ellipse><ellipse transform="matrix(0.4068 -0.9135 0.9135 0.4068 -23.0427 41.9793)" cx="20.8" cy="38.7" rx="0.7" ry="0.7"></ellipse><ellipse transform="matrix(0.309 -0.9511 0.9511 0.309 -26.0843 47.5178)" cx="19.7" cy="41.7" rx="0.7" ry="0.7"></ellipse><ellipse transform="matrix(0.2079 -0.9782 0.9782 0.2079 -28.8939 53.9019)" cx="18.8" cy="44.8" rx="0.7" ry="0.7"></ellipse><ellipse transform="matrix(0.1045 -0.9945 0.9945 0.1045 -31.2603 61.1643)" cx="18.3" cy="47.9" rx="0.7" ry="0.7"></ellipse><circle cx="18.2" cy="51.1" r="0.7"></circle><ellipse transform="matrix(0.9945 -0.1045 0.1045 0.9945 -5.5767 2.214)" cx="18.3" cy="54.3" rx="0.7" ry="0.7"></ellipse><ellipse transform="matrix(0.9781 -0.2079 0.2079 0.9781 -11.5363 5.1719)" cx="18.8" cy="57.5" rx="0.7" ry="0.7"></ellipse><ellipse transform="matrix(0.9511 -0.309 0.309 0.9511 -17.747 9.0385)" cx="19.7" cy="60.5" rx="0.7" ry="0.7"></ellipse><ellipse transform="matrix(0.9135 -0.4068 0.4068 0.9135 -24.0409 13.9556)" cx="20.8" cy="63.5" rx="0.7" ry="0.7"></ellipse><ellipse transform="matrix(0.866 -0.5 0.5 0.866 -30.2 20.0158)" cx="22.3" cy="66.4" rx="0.7" ry="0.7"></ellipse><ellipse transform="matrix(0.809 -0.5878 0.5878 0.809 -35.9997 27.287)" cx="24" cy="69" rx="0.7" ry="0.7"></ellipse><ellipse transform="matrix(0.7431 -0.6691 0.6691 0.7431 -41.177 35.7636)" cx="26" cy="71.5" rx="0.7" ry="0.7"></ellipse><ellipse transform="matrix(0.6691 -0.7432 0.7432 0.6691 -45.4768 45.4052)" cx="28.2" cy="73.8" rx="0.7" ry="0.7"></ellipse><ellipse transform="matrix(0.5878 -0.809 0.809 0.5878 -48.6391 56.0958)" cx="30.7" cy="75.8" rx="0.7" ry="0.7"></ellipse><ellipse transform="matrix(0.5 -0.866 0.866 0.5 -50.4289 67.6868)" cx="33.4" cy="77.5" rx="0.7" ry="0.7"></ellipse><ellipse transform="matrix(0.4067 -0.9135 0.9135 0.4067 -50.6339 79.9589)" cx="36.2" cy="79" rx="0.7" ry="0.7"></ellipse><ellipse transform="matrix(0.309 -0.951 0.951 0.309 -49.0839 92.6536)" cx="39.2" cy="80.1" rx="0.7" ry="0.7"></ellipse><ellipse transform="matrix(0.2079 -0.9782 0.9782 0.2079 -45.6538 105.4905)" cx="42.3" cy="80.9" rx="0.7" ry="0.7"></ellipse><ellipse transform="matrix(0.1045 -0.9945 0.9945 0.1045 -40.2799 118.1303)" cx="45.5" cy="81.4" rx="0.7" ry="0.7"></ellipse><circle cx="48.6" cy="81.6" r="0.7"></circle><ellipse transform="matrix(0.9945 -0.1045 0.1045 0.9945 -8.2234 5.8597)" cx="51.8" cy="81.4" rx="0.7" ry="0.7"></ellipse><ellipse transform="matrix(0.9782 -0.2079 0.2079 0.9782 -15.6238 13.1968)" cx="55" cy="80.9" rx="0.7" ry="0.7"></ellipse><ellipse transform="matrix(0.951 -0.309 0.309 0.951 -21.9147 21.8635)" cx="58.1" cy="80.1" rx="0.7" ry="0.7"></ellipse><ellipse transform="matrix(0.9135 -0.4067 0.4067 0.9135 -26.8406 31.651)" cx="61" cy="79" rx="0.7" ry="0.7"></ellipse><ellipse transform="matrix(0.866 -0.5 0.5 0.866 -30.2001 42.3227)" cx="63.9" cy="77.5" rx="0.7" ry="0.7"></ellipse><ellipse transform="matrix(0.809 -0.5878 0.5878 0.809 -31.8319 53.5917)" cx="66.6" cy="75.8" rx="0.7" ry="0.7"></ellipse><ellipse transform="matrix(0.7431 -0.6691 0.6691 0.7431 -31.6322 65.1391)" cx="69" cy="73.8" rx="0.7" ry="0.7"></ellipse><ellipse transform="matrix(0.6691 -0.7431 0.7431 0.6691 -29.5609 76.6365)" cx="71.3" cy="71.5" rx="0.7" ry="0.7"></ellipse><ellipse transform="matrix(0.5878 -0.809 0.809 0.5878 -25.6399 87.7549)" cx="73.3" cy="69" rx="0.7" ry="0.7"></ellipse><ellipse transform="matrix(0.5 -0.866 0.866 0.5 -19.9567 98.1589)" cx="75" cy="66.4" rx="0.7" ry="0.7"></ellipse><ellipse transform="matrix(0.4067 -0.9136 0.9136 0.4067 -12.6566 107.5518)" cx="76.5" cy="63.5" rx="0.7" ry="0.7"></ellipse><ellipse transform="matrix(0.309 -0.9511 0.9511 0.309 -3.9446 115.6562)" cx="77.6" cy="60.5" rx="0.7" ry="0.7"></ellipse><ellipse transform="matrix(0.2079 -0.9782 0.9782 0.2079 5.932 122.2489)" cx="78.4" cy="57.5" rx="0.7" ry="0.7"></ellipse><ellipse transform="matrix(0.1045 -0.9945 0.9945 0.1045 16.6787 127.1466)" cx="78.9" cy="54.3" rx="0.7" ry="0.7"></ellipse><circle cx="79.1" cy="51.1" r="0.7"></circle><ellipse transform="matrix(0.9945 -0.1045 0.1045 0.9945 -4.5787 8.5146)" cx="78.9" cy="47.9" rx="0.7" ry="0.7"></ellipse><ellipse transform="matrix(0.9781 -0.2079 0.2079 0.9781 -7.5988 17.2901)" cx="78.4" cy="44.8" rx="0.7" ry="0.7"></ellipse><ellipse transform="matrix(0.9511 -0.309 0.309 0.9511 -9.0897 26.0257)" cx="77.6" cy="41.7" rx="0.7" ry="0.7"></ellipse><ellipse transform="matrix(0.9136 -0.4067 0.4067 0.9136 -9.1419 34.4529)" cx="76.5" cy="38.7" rx="0.7" ry="0.7"></ellipse><ellipse transform="matrix(0.866 -0.5 0.5 0.866 -7.8931 42.3227)" cx="75" cy="35.9" rx="0.7" ry="0.7"></ellipse><ellipse transform="matrix(0.809 -0.5878 0.5878 0.809 -5.5256 49.425)" cx="73.3" cy="33.2" rx="0.7" ry="0.7"></ellipse><ellipse transform="matrix(0.7431 -0.6692 0.6692 0.7431 -2.256 55.5962)" cx="71.3" cy="30.7" rx="0.7" ry="0.7"></ellipse><ellipse transform="matrix(0.6691 -0.7432 0.7432 0.6691 1.6746 60.7235)" cx="69" cy="28.5" rx="0.7" ry="0.7"></ellipse><ellipse transform="matrix(0.5878 -0.809 0.809 0.5878 6.0147 64.7526)" cx="66.6" cy="26.5" rx="0.7" ry="0.7"></ellipse><ellipse transform="matrix(0.5 -0.866 0.866 0.5 10.5154 67.6867)" cx="63.9" cy="24.7" rx="0.7" ry="0.7"></ellipse><ellipse transform="matrix(0.4067 -0.9135 0.9135 0.4067 14.9342 69.5738)" cx="61" cy="23.3" rx="0.7" ry="0.7"></ellipse><ellipse transform="matrix(0.309 -0.951 0.951 0.309 19.0526 70.5158)" cx="58.1" cy="22.1" rx="0.7" ry="0.7"></ellipse><ellipse transform="matrix(0.2079 -0.9782 0.9782 0.2079 22.6923 70.6622)" cx="55" cy="21.3" rx="0.7" ry="0.7"></ellipse><ellipse transform="matrix(0.1045 -0.9945 0.9945 0.1045 25.7036 70.1874)" cx="51.8" cy="20.8" rx="0.7" ry="0.7"></ellipse></g></svg>