<svg height="100" width="100" xmlns="http://www.w3.org/2000/svg">
    <path d="M48.6 16.8c-19 0-34.4 15.4-34.4 34.4s15.4 34.4 34.4 34.4S83 70.2 83 51.2c0-19.1-15.4-34.4-34.4-34.4zm0 68.2C30 85 14.8 69.8 14.8 51.1S30 17.3 48.6 17.3c18.7 0 33.8 15.2 33.8 33.8C82.5 69.8 67.3 85 48.6 85z"/>
    <path d="M48.6 18.2c-18.2 0-32.9 14.7-32.9 32.9S30.5 84 48.6 84c18.2 0 32.9-14.7 32.9-32.9 0-18.1-14.7-32.9-32.9-32.9zm0 64.8C31 83 16.7 68.7 16.7 51.1c0-17.6 14.3-31.9 31.9-31.9 17.6 0 31.9 14.3 31.9 31.9C80.5 68.7 66.2 83 48.6 83zM47.1 15.8s2.3-.6 2.3-2.3V9.2s-.1-1.3.8-2.1c0 0-2.3.6-2.3 2.3V13.6c0 .1 0 1.4-.8 2.2zM46.8 13.5c0-.5-.1-.9-.1-1.2l-.1-1.6-.1-1.4s-.1-1.3.6-2.2c0 0-2.3.8-2.2 2.5 0 .5.1.9.1 1.2.1 1 .1 1.6.1 1.6l.1 1.4s.1 1.3-.6 2.2c0 0 2.3-.8 2.2-2.5zM42.2 11.1c.1 1 .2 1.6.2 1.6l.2 1.4s.2 1.3-.5 2.2c0 0 2.2-1 2-2.6-.1-.4-.1-.9-.2-1.2l-.2-1.6-.2-1.4s-.2-1.3.5-2.2c0 0-2.2 1-2 2.6.1.4.2.8.2 1.2zM39.5 11.6c.2 1 .3 1.6.3 1.6l.3 1.4s.3 1.2-.3 2.2c0 0 2.1-1.1 1.8-2.8-.1-.4-.2-.9-.3-1.2l-.3-1.5-.3-1.4s-.3-1.2.3-2.2c0 0-2.1 1.1-1.8 2.8.1.4.2.8.3 1.1zM36.7 12.4c.3 1 .5 1.6.5 1.6l.4 1.4s.4 1.2-.2 2.3c0 0 2.1-1.3 1.6-2.9l-.3-1.2-.5-1.6-.4-1.4s-.4-1.2.2-2.3c0 0-2.1 1.3-1.6 2.9l.3 1.2zM34.1 13.3c.3.9.6 1.5.6 1.5l.5 1.3s.5 1.2 0 2.3c0 0 2-1.4 1.4-3-.2-.4-.3-.8-.4-1.2l-.6-1.5-.6-1.3s-.5-1.2 0-2.3c0 0-2 1.4-1.4 3 .2.5.3.9.5 1.2zM31.5 14.4c.4.9.7 1.5.7 1.5l.6 1.3s.6 1.1.1 2.3c0 0 1.9-1.5 1.2-3.1-.2-.4-.4-.8-.5-1.1l-.7-1.5-.6-1.3s-.6-1.1-.1-2.3c0 0-1.9 1.5-1.2 3.1.1.4.3.8.5 1.1zM28.9 15.7c.5.9.8 1.4.8 1.4l.7 1.3s.7 1.1.3 2.2c0 0 1.7-1.6 1-3.1-.2-.4-.4-.8-.6-1.1l-.8-1.4-.7-1.3s-.7-1.1-.3-2.2c0 0-1.7 1.6-1 3.1.3.4.5.8.6 1.1zM26.5 17.2c.5.8.9 1.4.9 1.4l.8 1.2s.7 1 .5 2.2c0 0 1.6-1.8.7-3.2-.2-.4-.5-.7-.7-1.1l-.9-1.4-.8-1.2s-.7-1-.5-2.2c0 0-1.6 1.8-.7 3.2.3.4.5.8.7 1.1zM24.2 18.8c.6.8 1 1.3 1 1.3l.8 1.2s.8 1 .6 2.2c0 0 1.5-1.9.5-3.2-.3-.4-.5-.7-.7-1l-1-1.3-.8-1.2s-.8-1-.6-2.2c0 0-1.5 1.9-.5 3.2.2.4.5.7.7 1z"/>
    <path d="M22 20.6c.6.8 1.1 1.3 1.1 1.3L24 23s.9.9.8 2.1c0 0 1.4-2 .3-3.3-.3-.3-.6-.7-.8-.9l-1.1-1.3-.9-1.1s-.9-.9-.8-2.1c0 0-1.4 2-.3 3.3.3.3.6.6.8.9zM19.9 22.5c.7.7 1.1 1.2 1.1 1.2l1 1s.9.9.9 2.1c0 0 1.2-2.1.1-3.3l-.9-.9-1.1-1.2-1-1s-.9-.9-.9-2.1c0 0-1.2 2.1-.1 3.3.4.3.7.6.9.9zM18 24.6c.7.7 1.2 1.1 1.2 1.1l1.1 1s1 .8 1 2c0 0 1.1-2.1-.2-3.3-.3-.3-.6-.6-.9-.8L19 23.4l-1.1-1s-1-.8-1-2c0 0-1.1 2.1.2 3.3.3.4.6.6.9.9zM15.3 26c.4.3.7.5 1 .8.8.6 1.3 1 1.3 1l1.1.9s1 .7 1.2 1.9c0 0 .9-2.2-.4-3.3-.4-.3-.7-.5-1-.8l-1.3-1-1.2-.8s-1-.7-1.2-1.9c.1 0-.9 2.2.5 3.2zM13.6 28.4c.4.3.7.5 1 .7.8.6 1.4.9 1.4.9l1.2.8s1.1.7 1.3 1.8c0 0 .8-2.3-.6-3.2-.4-.3-.7-.5-1-.7l-1.4-.9-1.2-.8s-1.1-.7-1.3-1.8c0 0-.8 2.3.6 3.2zM12.1 30.9c.4.2.8.4 1.1.6.9.5 1.4.8 1.4.8l1.2.7s1.1.6 1.4 1.7c0 0 .6-2.3-.8-3.2-.4-.2-.8-.4-1.1-.6l-1.4-.8-1.2-.7s-1.1-.6-1.4-1.7c-.1 0-.7 2.4.8 3.2zM10.8 33.5c.4.2.8.4 1.1.5.9.4 1.5.7 1.5.7l1.3.6s1.2.5 1.6 1.6c0 0 .4-2.4-1.1-3.1-.4-.2-.8-.4-1.1-.5l-1.5-.7-1.3-.6s-1.2-.5-1.6-1.6c0 0-.4 2.4 1.1 3.1zM9.6 36.2c.4.2.8.3 1.1.5.9.4 1.5.6 1.5.6l1.3.5s1.2.4 1.7 1.5c0 0 .3-2.4-1.3-3-.4-.2-.8-.3-1.1-.5l-1.5-.6-1.3-.5s-1.2-.4-1.7-1.5c.1 0-.2 2.4 1.3 3zM8.7 38.9c.4.1.8.3 1.2.4 1 .3 1.6.5 1.6.5l1.4.4s1.2.3 1.8 1.4c0 0 .1-2.4-1.5-2.9-.4-.1-.8-.3-1.2-.4l-1.6-.5-1.4-.4s-1.2-.3-1.8-1.4c0 0-.1 2.4 1.5 2.9zM7.9 41.8l1.2.3c1 .2 1.6.4 1.6.4l1.4.3s1.3.2 1.9 1.3c0 0-.1-2.4-1.7-2.8l-1.2-.3-1.6-.4-1.4-.3s-1.3-.2-1.9-1.3c0 0 .1 2.4 1.7 2.8zM7.4 44.6c.4.1.9.2 1.2.2 1 .2 1.6.3 1.6.3l1.4.2s1.3.2 2 1.1c0 0-.2-2.4-1.9-2.7-.4-.1-.9-.2-1.2-.2l-1.6-.3-1.4-.2s-1.3-.2-2-1.1c0 0 .2 2.4 1.9 2.7zM7 47.5c.5 0 .9.1 1.2.1 1 .1 1.6.2 1.6.2l1.4.1s1.3.1 2 1c0 0-.4-2.4-2.1-2.5-.5 0-.9-.1-1.2-.1l-1.6-.2L7 46s-1.3-.1-2-1c0 0 .4 2.3 2 2.5zM6.9 50.4h1.2c1 0 1.6.1 1.6.1l1.4.1s1.3 0 2.1.9c0 0-.6-2.3-2.2-2.4H9.8L8.2 49l-1.4-.1s-1.3 0-2.1-.9c-.1 0 .5 2.4 2.2 2.4zM6.9 53.3h1.2c1 0 1.6-.1 1.6-.1l1.4-.1s1.3-.1 2.1.7c0 0-.7-2.3-2.4-2.2H9.6l-1.6.1-1.4.1s-1.3.1-2.1-.7c0 0 .8 2.3 2.4 2.2zM7.2 56.3c.5 0 .9-.1 1.2-.1 1-.2 1.6-.2 1.6-.2l1.4-.2s1.3-.2 2.2.6c0 0-.9-2.2-2.5-2.1-.5 0-.9.1-1.2.1l-1.6.2-1.4.2s-1.3.2-2.2-.6c-.1 0 .8 2.2 2.5 2.1zM7.6 59.1c.4-.1.9-.2 1.2-.2 1-.2 1.6-.3 1.6-.3l1.4-.2s1.2-.3 2.2.4c0 0-1-2.2-2.7-1.9-.4.1-.9.2-1.2.2l-1.6.3-1.4.2s-1.2.3-2.2-.4c.1.1 1.1 2.2 2.7 1.9zM8.3 62l1.2-.3c1-.2 1.6-.4 1.6-.4l1.4-.3s1.2-.4 2.3.3c0 0-1.2-2.1-2.8-1.7l-1.2.3-1.6.4-1.4.3s-1.2.4-2.3-.3c0 0 1.2 2.1 2.8 1.7zM9.2 64.8c.4-.1.8-.3 1.2-.4 1-.3 1.6-.5 1.6-.5l1.4-.4s1.2-.5 2.3.1c0 0-1.3-2-2.9-1.5-.4.1-.8.3-1.2.4L10 63l-1.4.4s-1.2.5-2.3-.1c-.1 0 1.3 2 2.9 1.5zM10.2 67.5c.4-.2.8-.3 1.1-.5.9-.4 1.5-.6 1.5-.6l1.3-.5s1.2-.5 2.3-.1c0 0-1.5-1.9-3-1.3-.4.2-.8.3-1.1.5l-1.5.6-1.3.5s-1.2.5-2.3.1c0 0 1.4 1.9 3 1.3zM11.4 70.1c.4-.2.8-.4 1.1-.5.9-.4 1.5-.7 1.5-.7l1.3-.6s1.1-.6 2.3-.2c0 0-1.6-1.8-3.1-1.1-.4.2-.8.4-1.1.5l-1.5.7-1.3.6s-1.1.6-2.3.2c0 .1 1.6 1.9 3.1 1.1zM12.9 72.7c.4-.2.8-.4 1.1-.6.9-.5 1.4-.8 1.4-.8l1.2-.7s1.1-.7 2.2-.4c0 0-1.7-1.7-3.2-.8-.4.2-.8.4-1.1.6l-1.4.8-1.2.7s-1.1.7-2.2.4c0-.1 1.7 1.6 3.2.8zM14.4 75.1c.4-.3.7-.5 1-.7.8-.6 1.4-.9 1.4-.9l1.2-.8s1-.8 2.2-.5c0 0-1.8-1.6-3.2-.6-.4.3-.7.5-1 .7l-1.4.9-1.2.8s-1 .8-2.2.5c0 0 1.9 1.6 3.2.6zM16.2 77.4c.4-.3.7-.5 1-.8.8-.6 1.3-1 1.3-1l1.1-.9s1-.8 2.2-.7c0 0-1.9-1.4-3.3-.4-.4.3-.7.5-1 .8l-1.3 1-1.1.9s-1 .8-2.2.7c0 0 2 1.5 3.3.4zM19 78.8c.7-.7 1.2-1.1 1.2-1.1l1.1-1s.9-.9 2.1-.8c0 0-2-1.3-3.3-.2-.3.3-.6.6-.9.8L18 77.7l-1.1 1s-.9.9-2.1.8c0 0 2 1.3 3.3.2.4-.4.7-.6.9-.9zM21 80.8c.7-.7 1.1-1.2 1.1-1.2l1-1s.8-1 2-1c0 0-2.1-1.2-3.3.1l-.9.9-1.1 1.2-1 1s-.8 1-2 1c0 0 2.1 1.2 3.3-.1.4-.3.7-.6.9-.9zM22.4 83.6c.3-.3.6-.7.8-.9.6-.8 1.1-1.3 1.1-1.3l.9-1.1s.8-1 2-1.1c0 0-2.2-1-3.3.3-.3.3-.6.7-.8.9L22 81.7l-.9 1.1s-.8 1-2 1.1c0 0 2.2 1 3.3-.3zM24.7 85.4c.3-.4.5-.7.7-1 .6-.8 1-1.3 1-1.3l.8-1.2s.7-1.1 1.9-1.3c0 0-2.2-.8-3.2.5-.3.4-.5.7-.7 1l-1 1.3-.8 1.2s-.7 1.1-1.9 1.3c0 0 2.2.8 3.2-.5zM27.2 86.9c.2-.4.5-.7.7-1.1.5-.8.9-1.4.9-1.4l.8-1.2s.6-1.1 1.8-1.4c0 0-2.3-.7-3.2.7-.2.4-.5.7-.7 1.1l-.9 1.4-.8 1.2s-.6 1.1-1.8 1.4c0 .1 2.3.8 3.2-.7zM29.7 88.4c.2-.4.4-.8.6-1.1.5-.9.8-1.4.8-1.4l.7-1.3s.5-1.2 1.7-1.5c0 0-2.3-.5-3.1 1-.2.4-.4.8-.6 1.1l-.8 1.4-.7 1.3s-.5 1.2-1.7 1.5c0-.1 2.3.4 3.1-1zM32.9 88.5c.4-.9.7-1.5.7-1.5l.6-1.3s.5-1.2 1.6-1.6c0 0-2.4-.4-3.1 1.2-.2.4-.4.8-.5 1.1l-.7 1.5-.6 1.3s-.5 1.2-1.6 1.6c0 0 2.4.4 3.1-1.2.1-.4.3-.8.5-1.1zM35.5 89.5c.3-.9.6-1.5.6-1.5l.5-1.3s.4-1.2 1.5-1.7c0 0-2.4-.2-3 1.4-.2.4-.3.8-.4 1.2l-.6 1.5-.5 1.3s-.4 1.2-1.5 1.7c0 0 2.4.2 3-1.4.1-.5.3-.9.4-1.2zM38.7 88.7l.4-1.4s.3-1.2 1.3-1.8c0 0-2.4 0-2.9 1.6l-.3 1.2-.5 1.6-.4 1.4s-.3 1.2-1.3 1.8c0 0 2.4 0 2.9-1.6l.3-1.2c.3-1 .5-1.6.5-1.6zM41.6 87.9s.2-1.3 1.2-1.9c0 0-2.4.1-2.8 1.8-.1.4-.2.9-.3 1.2l-.3 1.6-.2 1.4s-.2 1.3-1.2 1.9c0 0 2.4-.1 2.8-1.8.1-.4.2-.9.3-1.2.2-1 .3-1.6.3-1.6l.2-1.4zM45.3 86.3s-2.4.3-2.6 2c-.1.4-.1.9-.2 1.2l-.2 1.6-.3 1.5s-.1 1.3-1.1 2c0 0 2.4-.3 2.6-2 .1-.4.1-.9.2-1.2.1-1 .2-1.6.2-1.6l.2-1.4c.1-.1.2-1.4 1.2-2.1zM45.3 88.6c0 .5-.1.9-.1 1.2l-.2 1.7-.1 1.4s0 1.3-.9 2.1c0 0 2.4-.5 2.5-2.2 0-.5.1-.9.1-1.2.1-1 .1-1.6.1-1.6l.1-1.4s0-1.3.9-2.1c0 0-2.3.4-2.4 2.1zM50.2 86.5s-2.3.6-2.3 2.3V93s.1 1.3-.8 2.1c0 0 2.3-.6 2.3-2.3v-1.2-3s-.1-1.3.8-2.1zM50.5 88.7c0 .5.1.9.1 1.2l.1 1.6.1 1.4s.1 1.3-.6 2.2c0 0 2.3-.8 2.2-2.5 0-.5-.1-.9-.1-1.2-.1-1-.1-1.6-.1-1.6l-.2-1.4s-.1-1.3.6-2.2c.1.1-2.2.9-2.1 2.5zM55 91.1c-.1-1-.2-1.6-.2-1.6l-.2-1.4s-.2-1.3.5-2.2c0 0-2.2 1-2 2.6.1.4.1.9.2 1.2l.2 1.6.2 1.4s.2 1.3-.5 2.2c0 0 2.2-1 2-2.6-.1-.4-.1-.8-.2-1.2zM57.8 90.6c-.2-1-.3-1.6-.3-1.6l-.3-1.4s-.3-1.2.3-2.2c0 0-2.1 1.1-1.8 2.8.1.4.2.9.3 1.2l.3 1.6.3 1.4s.3 1.2-.3 2.2c0 0 2.1-1.1 1.8-2.8l-.3-1.2zM60.5 89.9c-.3-1-.5-1.6-.5-1.6l-.4-1.4s-.4-1.2.2-2.3c0 0-2.1 1.3-1.6 2.9l.3 1.2.5 1.6.4 1.4s.4 1.2-.2 2.3c0 0 2.1-1.3 1.6-2.9 0-.5-.2-.9-.3-1.2zM63.2 88.9c-.3-.9-.6-1.5-.6-1.5l-.5-1.3s-.5-1.2 0-2.3c0 0-2 1.4-1.4 3 .2.4.3.8.4 1.2l.6 1.5.5 1.3s.5 1.2 0 2.3c0 0 2-1.4 1.4-3-.1-.4-.3-.8-.4-1.2zM65.8 87.8c-.4-.9-.7-1.5-.7-1.5l-.5-1.3s-.6-1.1-.1-2.3c0 0-1.9 1.5-1.2 3.1.2.4.4.8.5 1.1l.7 1.5.6 1.3s.6 1.1.1 2.3c0 0 1.9-1.5 1.2-3.1-.3-.3-.4-.7-.6-1.1zM68.3 86.5c-.5-.9-.8-1.4-.8-1.4l-.7-1.3s-.7-1.1-.3-2.2c0 0-1.7 1.6-1 3.1.2.4.4.8.6 1.1l.8 1.4.7 1.3s.7 1.1.3 2.2c0 0 1.7-1.6 1-3.1-.2-.4-.4-.7-.6-1.1zM70.8 85.1c-.5-.8-.9-1.4-.9-1.4l-.8-1.2s-.7-1-.5-2.2c0 0-1.6 1.8-.7 3.2.2.4.5.7.7 1.1l.9 1.4.8 1.2s.7 1 .5 2.2c0 0 1.6-1.8.7-3.2-.3-.4-.5-.8-.7-1.1zM73.1 83.5c-.6-.8-1-1.3-1-1.3l-.8-1.2s-.8-1-.6-2.2c0 0-1.5 1.9-.5 3.2.3.4.5.7.7 1l1 1.3.8 1.2s.8 1 .6 2.2c0 0 1.5-1.9.5-3.2-.3-.4-.5-.7-.7-1zM75.3 81.7c-.6-.8-1.1-1.3-1.1-1.3l-.9-1.1s-.9-.9-.8-2.1c0 0-1.4 2-.3 3.3.3.3.6.7.8.9l1.1 1.3.9 1.1s.9.9.8 2.1c0 0 1.4-2 .3-3.3-.3-.3-.6-.6-.8-.9zM77.3 79.7c-.7-.7-1.1-1.2-1.1-1.2l-1-1s-.9-.9-.9-2.1c0 0-1.2 2.1-.1 3.3l.9.9 1.1 1.2 1 1s.9.9.9 2.1c0 0 1.2-2.1.1-3.3l-.9-.9zM79.3 77.7c-.8-.7-1.3-1.1-1.3-1.1l-1.1-1s-1-.8-1-2c0 0-1.1 2.1.2 3.3.3.3.6.6.9.8l1.2 1.1 1.1 1s1 .8 1 2c0 0 1.1-2.1-.2-3.3l-.8-.8zM82 76.2c-.4-.3-.7-.5-1-.8-.8-.6-1.3-1-1.3-1l-1.1-.9s-1-.7-1.2-1.9c0 0-.9 2.2.4 3.3.4.3.7.5 1 .8l1.3 1 1.1.9s1 .7 1.2 1.9c0 0 .9-2.2-.4-3.3zM83.7 73.8c-.4-.3-.7-.5-1-.7-.8-.6-1.4-.9-1.4-.9l-1.2-.8s-1.1-.7-1.3-1.8c0 0-.8 2.3.6 3.2.4.3.7.5 1 .7l1.4.9 1.2.8s1.1.7 1.3 1.8c0 .1.8-2.2-.6-3.2zM85.2 71.3c-.4-.2-.8-.4-1.1-.6-.9-.5-1.4-.8-1.4-.8l-1.2-.7s-1.1-.6-1.4-1.7c0 0-.6 2.3.8 3.2.4.2.8.4 1.1.6l1.4.8 1.2.7s1.1.6 1.4 1.7c0 0 .6-2.3-.8-3.2zM86.5 68.7c-.4-.2-.8-.4-1.1-.5-.9-.4-1.5-.7-1.5-.7l-1.3-.6s-1.2-.5-1.6-1.6c0 0-.4 2.4 1.1 3.1.4.2.8.4 1.1.5l1.5.7 1.3.6s1.2.5 1.6 1.6c0 0 .4-2.3-1.1-3.1zM87.6 66.1c-.4-.2-.8-.3-1.1-.5-.9-.4-1.5-.6-1.5-.6l-1.3-.5s-1.2-.4-1.7-1.5c0 0-.3 2.4 1.3 3 .4.2.8.3 1.1.5l1.5.6 1.3.5s1.2.4 1.7 1.5c0 0 .3-2.4-1.3-3zM88.6 63.3c-.4-.1-.8-.3-1.2-.4-1-.3-1.6-.5-1.6-.5l-1.3-.4s-1.2-.3-1.8-1.4c0 0-.1 2.4 1.5 2.9.4.1.8.3 1.2.4l1.6.5 1.4.4s1.2.3 1.8 1.4c-.1 0 0-2.4-1.6-2.9zM89.3 60.5l-1.2-.3c-1-.2-1.6-.4-1.6-.4l-1.4-.3s-1.3-.2-1.9-1.3c0 0 .1 2.4 1.7 2.8l1.2.3 1.6.4 1.4.3s1.3.2 1.9 1.3c0 0 0-2.4-1.7-2.8zM89.9 57.6c-.4-.1-.9-.2-1.2-.2-1-.2-1.6-.3-1.6-.3l-1.4-.2s-1.3-.2-2-1.1c0 0 .2 2.4 1.9 2.7.4.1.9.2 1.2.2l1.6.3 1.4.2s1.3.2 2 1.1c0 0-.2-2.4-1.9-2.7zM90.3 54.7c-.5 0-.9-.1-1.2-.1-1-.1-1.6-.2-1.6-.2l-1.5-.1s-1.3-.1-2-1c0 0 .4 2.4 2.1 2.5.5 0 .9.1 1.2.1l1.6.2 1.4.1s1.3.1 2 1c0 .1-.4-2.3-2-2.5zM90.4 51.8h-1.2c-1 0-1.6-.1-1.6-.1l-1.4-.1s-1.3 0-2.1-.9c0 0 .6 2.3 2.2 2.4h1.2l1.6.1 1.4.1s1.3 0 2.1.9c0 0-.5-2.3-2.2-2.4zM90.3 48.9h-1.2c-1 0-1.6.1-1.6.1l-1.5.1s-1.3.1-2.1-.7c0 0 .7 2.3 2.4 2.2h1.2l1.6-.1 1.4-.1s1.3-.1 2.1.7c.1 0-.6-2.3-2.3-2.2zM90.1 46c-.5 0-.9.1-1.2.1-1 .1-1.6.2-1.6.2l-1.4.2s-1.3.2-2.2-.6c0 0 .9 2.2 2.5 2.1.5 0 .9-.1 1.2-.1l1.6-.2 1.4-.2s1.3-.2 2.2.6c0 0-.8-2.3-2.5-2.1zM89.6 43.1c-.4.1-.9.2-1.2.2-1 .2-1.6.3-1.6.3l-1.4.2s-1.2.3-2.2-.4c0 0 1 2.2 2.7 1.9.4-.1.9-.2 1.2-.2l1.6-.3 1.4-.2s1.2-.3 2.2.4c0 0-1-2.2-2.7-1.9zM89 40.3l-1.2.3c-1 .2-1.6.4-1.6.4l-1.4.3s-1.2.4-2.3-.3c0 0 1.2 2.1 2.8 1.7l1.2-.3 1.6-.4 1.4-.3s1.2-.4 2.3.3c0 0-1.2-2.1-2.8-1.7zM88.1 37.5c-.4.1-.8.3-1.2.4-1 .3-1.6.5-1.6.5l-1.3.4s-1.2.5-2.3-.1c0 0 1.3 2 2.9 1.5.4-.1.8-.3 1.2-.4l1.6-.5 1.4-.4s1.2-.5 2.3.1c-.1 0-1.4-2-3-1.5zM87.1 34.8c-.4.2-.8.3-1.1.5-.9.4-1.5.6-1.5.6l-1.3.5s-1.2.5-2.3.1c0 0 1.5 1.9 3 1.3.4-.2.8-.3 1.1-.5l1.5-.6 1.3-.5s1.2-.5 2.3-.1c0 0-1.5-2-3-1.3zM85.8 32.1c-.4.2-.8.4-1.1.5-.9.4-1.5.7-1.5.7L82 34s-1.1.6-2.3.2c0 0 1.6 1.8 3.1 1.1.4-.2.8-.4 1.1-.5l1.5-.7 1.3-.6s1.1-.6 2.3-.2c-.1-.1-1.6-1.9-3.2-1.2zM84.4 29.6c-.4.2-.8.4-1.1.6-.9.5-1.4.8-1.4.8l-1.2.7s-1.1.7-2.2.4c0 0 1.7 1.7 3.2.8.4-.2.8-.4 1.1-.6l1.4-.8 1.2-.7s1.1-.7 2.2-.4c0 0-1.7-1.7-3.2-.8zM82.8 27.1c-.4.3-.7.5-1 .7-.8.6-1.4.9-1.4.9l-1.2.8s-1 .8-2.2.5c0 0 1.8 1.6 3.2.6.4-.3.7-.5 1-.7l1.4-.9 1.2-.8s1-.8 2.2-.5c.1.1-1.8-1.5-3.2-.6zM81.1 24.8c-.4.3-.7.5-1 .8-.8.6-1.3 1-1.3 1l-1.1.9s-1 .8-2.2.7c0 0 1.9 1.4 3.3.4.4-.3.7-.5 1-.8l1.3-1 1.1-.9s1-.8 2.2-.7c-.1 0-2-1.4-3.3-.4zM78.2 23.4c-.7.7-1.2 1.1-1.2 1.1l-1.1 1s-.9.9-2.1.8c0 0 2 1.3 3.3.2.3-.3.6-.6.9-.8l1.2-1.1 1.1-1s.9-.9 2.1-.8c0 0-2-1.3-3.3-.2-.3.3-.6.6-.9.8zM76.2 21.4c-.7.7-1.1 1.2-1.1 1.2l-1 1s-.8 1-2 1c0 0 2.1 1.2 3.3-.1l.9-.9 1.1-1.2 1-1s.8-1 2-1c0 0-2.1-1.2-3.3.1-.3.4-.6.7-.9.9zM74.9 18.6c-.3.3-.6.7-.8.9-.6.8-1.1 1.3-1.1 1.3l-.9 1.1s-.8 1-2 1.1c0 0 2.2 1 3.3-.3.3-.3.6-.7.8-.9l1.1-1.3.9-1.1s.8-1 2-1.1c0 .1-2.2-.9-3.3.3zM72.6 16.9c-.3.4-.5.7-.7 1-.6.8-1 1.3-1 1.3l-.9 1.2s-.7 1.1-1.9 1.3c0 0 2.2.8 3.2-.5.3-.4.5-.7.7-1l1-1.3.8-1.2s.7-1.1 1.9-1.3c.1 0-2.1-.9-3.1.5zM70.1 15.3c-.2.4-.5.7-.7 1.1-.5.8-.9 1.4-.9 1.4l-.7 1.2s-.6 1.1-1.8 1.4c0 0 2.3.7 3.2-.7.2-.4.5-.7.7-1.1l.9-1.4.8-1.2s.6-1.1 1.8-1.4c-.1 0-2.4-.7-3.3.7zM67.6 13.9c-.2.4-.4.8-.6 1.1-.5.9-.8 1.4-.8 1.4l-.7 1.3s-.5 1.2-1.7 1.5c0 0 2.3.5 3.1-1 .2-.4.4-.8.6-1.1l.8-1.4.7-1.3s.5-1.2 1.7-1.5c0 0-2.3-.5-3.1 1zM64.4 13.8c-.4.9-.7 1.5-.7 1.5l-.6 1.3s-.5 1.2-1.6 1.6c0 0 2.4.4 3.1-1.2.2-.4.4-.8.5-1.1l.7-1.5.6-1.3s.5-1.2 1.6-1.6c0 0-2.4-.4-3.1 1.2-.2.4-.3.8-.5 1.1zM61.8 12.8c-.3.9-.6 1.5-.6 1.5l-.5 1.3s-.4 1.2-1.5 1.7c0 0 2.4.2 3-1.4.2-.4.3-.8.4-1.2l.6-1.5.5-1.3s.4-1.2 1.5-1.7c0 0-2.4-.2-3 1.4-.2.4-.3.8-.4 1.2zM58.6 13.5l-.4 1.4s-.3 1.2-1.3 1.8c0 0 2.4 0 2.9-1.6l.3-1.2.5-1.6.4-1.4s.3-1.2 1.3-1.8c0 0-2.4 0-2.9 1.6l-.3 1.2c-.3 1-.5 1.6-.5 1.6zM55.7 14.3s-.2 1.3-1.2 1.9c0 0 2.4-.1 2.8-1.8.1-.4.2-.9.3-1.2l.3-1.6.3-1.4s.2-1.3 1.2-1.9c0 0-2.4.1-2.8 1.8-.1.4-.2.9-.3 1.2-.2 1-.3 1.6-.3 1.6l-.3 1.4zM52 15.9s2.4-.3 2.6-2c.1-.4.1-.9.2-1.2l.2-1.6.2-1.4s.1-1.3 1.1-2c0 0-2.4.3-2.6 2-.1.4-.1.9-.2 1.2-.1 1-.2 1.6-.2 1.6l-.2 1.4s-.1 1.3-1.1 2zM52 13.6c0-.5.1-.9.1-1.2l.1-1.6.1-1.4s0-1.3.9-2.1c0 0-2.4.5-2.5 2.2 0 .5-.1.9-.1 1.2-.1 1-.1 1.6-.1 1.6l-.1 1.4s0 1.3-.9 2.1c.1 0 2.4-.5 2.5-2.2z"/>
    <circle cx="48.6" cy="20.7" r=".7"/>
    <circle transform="rotate(-6.012 45.435 20.826)" cx="45.5" cy="20.8" r=".7"/>
    <circle transform="rotate(-11.999 42.295 21.316)" cx="42.3" cy="21.3" r=".7"/>
    <circle transform="rotate(-18.01 39.224 22.155)" cx="39.2" cy="22.1" r=".7"/>
    <circle transform="rotate(-23.999 36.249 23.29)" cx="36.2" cy="23.3" r=".7"/>
    <circle transform="rotate(-30 33.402 24.738)" cx="33.4" cy="24.7" r=".7"/>
    <circle transform="rotate(-36.002 30.728 26.474)" cx="30.7" cy="26.5" r=".7"/>
    <circle transform="rotate(-41.995 28.252 28.48)" cx="28.2" cy="28.5" r=".7"/>
    <circle transform="rotate(-47.995 25.996 30.737)" cx="26" cy="30.7" r=".7"/>
    <circle transform="rotate(-53.999 23.989 33.216)" cx="24" cy="33.2" r=".7"/>
    <circle transform="rotate(-60 22.25 35.891)" cx="22.3" cy="35.9" r=".7"/>
    <circle transform="rotate(-65.996 20.802 38.733)" cx="20.8" cy="38.7" r=".7"/>
    <circle transform="rotate(-72.002 19.657 41.708)" cx="19.7" cy="41.7" r=".7"/>
    <circle transform="rotate(-78.001 18.833 44.789)" cx="18.8" cy="44.8" r=".7"/>
    <circle transform="rotate(-84.002 18.333 47.942)" cx="18.3" cy="47.9" r=".7"/>
    <circle cx="18.2" cy="51.1" r=".7"/>
    <circle transform="rotate(-6.012 18.327 54.33)" cx="18.3" cy="54.3" r=".7"/>
    <circle transform="rotate(-12 18.837 57.47)" cx="18.8" cy="57.5" r=".7"/>
    <circle transform="rotate(-17.998 19.662 60.548)" cx="19.7" cy="60.5" r=".7"/>
    <circle transform="rotate(-24.006 20.8 63.52)" cx="20.8" cy="63.5" r=".7"/>
    <circle transform="rotate(-30 22.247 66.362)" cx="22.3" cy="66.4" r=".7"/>
    <circle transform="rotate(-36.002 23.988 69.04)" cx="24" cy="69" r=".7"/>
    <circle transform="rotate(-42 25.996 71.52)" cx="26" cy="71.5" r=".7"/>
    <circle transform="rotate(-48.002 28.25 73.768)" cx="28.2" cy="73.8" r=".7"/>
    <circle transform="rotate(-53.999 30.729 75.78)" cx="30.7" cy="75.8" r=".7"/>
    <circle transform="rotate(-60 33.404 77.518)" cx="33.4" cy="77.5" r=".7"/>
    <circle transform="rotate(-66.001 36.247 78.968)" cx="36.2" cy="79" r=".7"/>
    <circle transform="rotate(-72 39.22 80.11)" cx="39.2" cy="80.1" r=".7"/>
    <circle transform="rotate(-78.001 42.305 80.93)" cx="42.3" cy="80.9" r=".7"/>
    <circle transform="rotate(-84.002 45.456 81.434)" cx="45.5" cy="81.4" r=".7"/>
    <circle cx="48.6" cy="81.6" r=".7"/>
    <circle transform="rotate(-6.012 51.788 81.419)" cx="51.8" cy="81.4" r=".7"/>
    <circle transform="rotate(-11.999 54.972 80.928)" cx="55" cy="80.9" r=".7"/>
    <circle transform="rotate(-18.01 58.05 80.127)" cx="58.1" cy="80.1" r=".7"/>
    <circle transform="rotate(-23.999 61.039 78.97)" cx="61" cy="79" r=".7"/>
    <circle transform="rotate(-30 63.87 77.518)" cx="63.9" cy="77.5" r=".7"/>
    <circle transform="rotate(-36.002 66.55 75.779)" cx="66.6" cy="75.8" r=".7"/>
    <circle transform="rotate(-42 69.033 73.775)" cx="69" cy="73.8" r=".7"/>
    <circle transform="rotate(-48 71.288 71.52)" cx="71.3" cy="71.5" r=".7"/>
    <circle transform="rotate(-53.999 73.297 69.04)" cx="73.3" cy="69" r=".7"/>
    <circle transform="rotate(-60 75.03 66.365)" cx="75" cy="66.4" r=".7"/>
    <circle transform="rotate(-66.003 76.472 63.518)" cx="76.5" cy="63.5" r=".7"/>
    <circle transform="rotate(-72.002 77.616 60.54)" cx="77.6" cy="60.5" r=".7"/>
    <circle transform="rotate(-78.001 78.443 57.459)" cx="78.4" cy="57.5" r=".7"/>
    <circle transform="rotate(-84.002 78.943 54.314)" cx="78.9" cy="54.3" r=".7"/>
    <circle cx="79.1" cy="51.1" r=".7"/>
    <circle transform="rotate(-6.012 78.955 47.97)" cx="78.9" cy="47.9" r=".7"/>
    <circle transform="rotate(-12 78.457 44.796)" cx="78.4" cy="44.8" r=".7"/>
    <circle transform="rotate(-17.998 77.62 41.71)" cx="77.6" cy="41.7" r=".7"/>
    <circle transform="rotate(-23.997 76.482 38.733)" cx="76.5" cy="38.7" r=".7"/>
    <circle transform="rotate(-30 75.026 35.893)" cx="75" cy="35.9" r=".7"/>
    <circle transform="rotate(-36.002 73.292 33.216)" cx="73.3" cy="33.2" r=".7"/>
    <circle transform="rotate(-42.004 71.28 30.735)" cx="71.3" cy="30.7" r=".7"/>
    <circle transform="rotate(-48.002 69.025 28.48)" cx="69" cy="28.5" r=".7"/>
    <circle transform="rotate(-53.999 66.551 26.474)" cx="66.6" cy="26.5" r=".7"/>
    <circle transform="rotate(-60 63.877 24.738)" cx="63.9" cy="24.7" r=".7"/>
    <circle transform="rotate(-66.001 61.037 23.29)" cx="61" cy="23.3" r=".7"/>
    <circle transform="rotate(-72 58.056 22.15)" cx="58.1" cy="22.1" r=".7"/>
    <circle transform="rotate(-78.001 54.973 21.32)" cx="55" cy="21.3" r=".7"/>
    <circle transform="rotate(-84.002 51.827 20.822)" cx="51.8" cy="20.8" r=".7"/>
</svg>
