<svg height="100" width="100" xmlns="http://www.w3.org/2000/svg" viewBox="0 0 66 66">
    <path d="M9.318 41.675h2.057V63a1 1 0 001 1H16.2a1 1 0 001-1V41.675h3.17V54.43a1 1 0 002 0V41.675h2.683v9.588a4.669 4.669 0 004.663 4.663c1.493 0 2.81-.718 3.663-1.812.854 1.094 2.17 1.812 3.663 1.812a4.67 4.67 0 004.664-4.663v-9.588h1.919V54.43a1 1 0 002 0V41.675h3.17V63a1 1 0 001 1h3.824a1 1 0 001-1V41.675h2.063a1 1 0 001-1v-4.76a1 1 0 00-1-1H41.726v-7.214l7.257-7.024a6.966 6.966 0 001.668-4.517V5.876A3.88 3.88 0 0046.775 2c-2.176 0-3.866 1.78-3.866 3.875l-.01 9.883c-.288.459-1.429 1.813-3.224 3.72a.99.99 0 01-.723.304l-10.167-.12c-2.554-.006-4.805 1.55-5.659 3.909l-2.45 6.675c-.554 1.512-.382 3.226.688 4.669H9.318a1 1 0 00-1 1v4.76a1 1 0 001 1zM15.2 62h-1.825V41.675H15.2V62zm14.516-8.074a2.666 2.666 0 01-2.663-2.663v-9.588h5.326v9.588a2.666 2.666 0 01-2.663 2.663zm9.99-2.663a2.667 2.667 0 01-2.664 2.663 2.666 2.666 0 01-2.663-2.663v-9.588h5.327v9.588zM52.62 62h-1.824V41.675h1.824V62zM22.554 30.934l2.451-6.678c.567-1.568 2.094-2.572 3.759-2.593l10.176.119a3 3 0 002.196-.94c3.763-3.993 3.763-4.47 3.763-4.89l.01-10.076c0-.98.786-1.876 1.866-1.876 1.034 0 1.876.842 1.876 1.876V16.16c0 1.177-.422 2.32-1.124 3.15l-7.497 7.249a1 1 0 00-.304.718v7.638h-5.713a3.829 3.829 0 00.473-1.826 3.82 3.82 0 00-3.823-3.827l-2.915-.01h-.004a1 1 0 00-.003 2l2.919.01c1.04 0 1.826.833 1.826 1.827 0 .937-.693 1.716-1.615 1.826h-5.692c-1.981-.1-3.313-2.102-2.625-3.98zm-12.236 5.981c1.942.002 43.672 0 45.364 0v2.76c-11.58-.007-34.64-.002-45.364 0v-2.76z"/>
    <path d="M32.998 18.266a6 6 0 005.993-5.994 6 6 0 00-5.993-5.993 6 6 0 00-5.994 5.993 6 6 0 005.994 5.994zm0-9.987c2.202 0 3.993 1.791 3.993 3.993s-1.791 3.994-3.993 3.994-3.994-1.791-3.994-3.994 1.791-3.993 3.994-3.993z"/>
</svg>
