<svg height="100" width="100" xmlns="http://www.w3.org/2000/svg" viewBox="0 0 67 67">
    <path d="M58.759 34.481c-32.546.01 4.617.002-50.518 0-.597 0-1.066.47-1.066 1.067v5.077c0 .587.469 1.067 1.066 1.067H58.76a1.07 1.07 0 001.066-1.067v-5.077c0-.597-.48-1.067-1.066-1.067zM10.428 64.433c0 .587.48 1.067 1.067 1.067h4.085a1.07 1.07 0 001.067-1.067V43.825h-6.219v20.608zm39.915 0c0 .587.48 1.067 1.066 1.067h4.086a1.07 1.07 0 001.066-1.067V43.825h-6.218v20.608z"/>
    <circle cx="33.495" cy="11.658" r="5.327"/>
    <path d="M25.105 32.348c.064 0 .16 0 .278.01h5.578l.064-.01h1.91a1.928 1.928 0 00-1.931-1.77l-3.115-.011c-.586 0-1.066-.48-1.066-1.067s.48-1.067 1.066-1.067h.011l3.104.011c2.167 0 3.995 1.714 4.064 3.904h5.6v-6.016c0-.288.117-.565.33-.768l7.99-7.733c.757-.886 1.205-2.102 1.205-3.36V3.505A2.003 2.003 0 0048.188 1.5c-1.141 0-1.984.93-1.984 2.005l-.01 10.742c0 .448 0 .96-4.022 5.216a3.166 3.166 0 01-2.336 1.002l-10.859-.128c-1.813 0-3.413 1.12-4.01 2.774l-2.614 7.114a3.03 3.03 0 000 2.123h2.752zm2.048 19.562a2.852 2.852 0 002.838 2.849 2.854 2.854 0 002.848-2.848v-8.086h-5.686v8.086zm7.819 0c0 1.569 1.27 2.849 2.837 2.849s2.838-1.28 2.838-2.848v-8.086h-5.675v8.086zm-14.944 3.382c0 .587.48 1.067 1.067 1.067a1.07 1.07 0 001.066-1.067V43.825h-2.133v11.467zm24.8 0c0 .587.48 1.067 1.067 1.067a1.07 1.07 0 001.066-1.067V43.825h-2.133v11.467z"/>
</svg>
