<svg height="100" width="100" xmlns="http://www.w3.org/2000/svg" viewBox="0 0 512 512">
    <path d="M217 424.1c0-5-4-9-9-9-2.4 0-4.7.9-6.3 2.6l-24 24c-3.5 3.5-3.5 9.2 0 12.7s9.2 3.5 12.7 0l8-8 16-16c1.6-1.6 2.6-3.9 2.6-6.3zM193 400.1c0-5-4-9-9-9-2.4 0-4.7.9-6.3 2.6l-8 8-16 16c-3.5 3.5-3.5 9.2 0 12.7s9.2 3.5 12.7 0l24-24c1.6-1.6 2.6-3.9 2.6-6.3zM161 384.1c0-5-4-9-9-9-2.4 0-4.7.9-6.3 2.6l-16 16c-3.5 3.5-3.5 9.2 0 12.7s9.2 3.5 12.7 0l16-16c1.6-1.6 2.6-3.9 2.6-6.3zM72 296.1H40c-4.4 0-8 3.6-8 8v112c0 4.4 3.6 8 8 8h32c4.4 0 8-3.6 8-8v-112c0-4.4-3.6-8-8-8z"/>
    <path d="M358.3 425.8L287.5 355l-26.6 22.1c-13 10.8-32.2 9-43-3.9-10.8-13-9-32.2 3.9-43l50.5-42.1h-53.7c-.9 0-1.7.1-2.5.4L149 310.9c-2.4.8-5 1.2-7.6 1.2L96 312v88h15c0-6.6 2.6-13 7.3-17.6l16-16c9.7-9.8 25.5-9.8 35.3 0 2.8 2.8 4.9 6.3 6.1 10.1 13-4.5 27.3 2.3 31.8 15.4.8 2.3 1.3 4.8 1.4 7.3 13.1.5 23.5 11 24 24 12.5.5 22.7 10 23.9 22.5l8.8 8.8 16 16c3.5 3.5 9.2 3.5 12.7 0s3.5-9.2 0-12.7l-36-36 11.3-11.3 36 36 8 8c3.5 3.5 9.2 3.5 12.7 0s3.5-9.2 0-12.7l-52-52 11.3-11.3 52 52 8 8c3.5 3.5 9.2 3.5 12.7 0s3.6-9.2 0-12.7c.1 0 0 0 0 0z"/>
    <path d="M238.3 441.8c-3.5-3.5-9.2-3.5-12.7 0l-16 16c-3.5 3.5-3.5 9.2 0 12.7s9.2 3.5 12.7 0l16-16c3.5-3.6 3.5-9.2 0-12.7zM386.6 310.7l-54-19.6c-16.7-6-35.4-2.8-49.1 8.6l-51.4 42.9c-6.2 5.1-7 14.3-1.9 20.5 5.1 6.2 14.3 7 20.5 1.9l37.8-31.5 5.2 5.2c15.3 15.4 39.8 16.7 56.7 3.1l4.7-3.7 10 12.5-4.7 3.7c-10.8 8.7-24.4 13.2-38.2 12.8l41.2 41.2 27-.1c4.7 0 9.3-1.4 13.3-4l12.4-8.3v-83.6h-21.2c-2.9-.2-5.7-.7-8.3-1.6zM472 296.1h-32c-4.4 0-8 3.6-8 8v112c0 4.4 3.6 8 8 8h32c4.4 0 8-3.6 8-8v-112c0-4.4-3.6-8-8-8zM254.3 465.8l-2.5-2.5c-.7.9-1.4 1.7-2.2 2.5l-10.3 10.3 2.3 2.3c3.5 3.5 9.2 3.5 12.7 0 3.5-3.4 3.6-9.1 0-12.6.1 0 0 0 0 0zM363.1 144l1.9-3.8-109-43.6-109 43.6 1.9 3.8zM280 89V72c0-10.2-6.4-19.2-16-22.6V32h-16v17.4c-9.6 3.4-16 12.5-16 22.6v17l24-9.6 24 9.6zM368 240h-8v-80h-16v80h-16v-80h-16v80h-16v-80h-16v80h-16v-80h-16v80h-16v-80h-16v80h-16v-80h-16v80h-16v-80h-16v80h-8v16h224z"/>
</svg>
