<svg height="100" width="100" xmlns="http://www.w3.org/2000/svg" viewBox="0 0 64 64">
    <path d="M55 39H9a1 1 0 0 1-1-1v-6a1 1 0 0 1 1-1h46a1 1 0 0 1 1 1v6a1 1 0 0 1-1 1zm-45-2h44v-4H10z"/>
    <path d="M52 56H12a1 1 0 0 1-1-1V38a1 1 0 0 1 1-1h40a1 1 0 0 1 1 1v17a1 1 0 0 1-1 1zm-39-2h38V39H13zm29-21H22a1 1 0 0 1-1-1v-6a5 5 0 0 1 5-5h2v-2a1 1 0 0 1 2 0v3a1 1 0 0 1-1 1h-3a3 3 0 0 0-3 3v5h18v-5a3 3 0 0 0-3-3h-3a1 1 0 0 1-1-1v-3a1 1 0 0 1 2 0v2h2a5 5 0 0 1 5 5v6a1 1 0 0 1-1 1z"/>
    <path d="M32 21a6 6 0 1 1 6-6 6 6 0 0 1-6 6zm0-10a4 4 0 1 0 4 4 4 4 0 0 0-4-4zm-5 21a1 1 0 0 1-1-1v-2a1 1 0 0 1 2 0v2a1 1 0 0 1-1 1zm-1-9h-3a1 1 0 0 1-1-1v-3a1 1 0 0 1 2 0v2h2a1 1 0 0 1 0 2z"/>
    <path d="M30 33H10a1 1 0 0 1-1-1v-6a5 5 0 0 1 5-5h2v-2a1 1 0 0 1 2 0v3a1 1 0 0 1-1 1h-3a3 3 0 0 0-3 3v5h19a1 1 0 0 1 0 2z"/>
    <path d="M20 21a6 6 0 1 1 6-6 6 6 0 0 1-6 6zm0-10a4 4 0 1 0 4 4 4 4 0 0 0-4-4zm-5 21a1 1 0 0 1-1-1v-2a1 1 0 0 1 2 0v2a1 1 0 0 1-1 1zm26-9h-3a1 1 0 0 1 0-2h2v-2a1 1 0 0 1 2 0v3a1 1 0 0 1-1 1z"/>
    <path d="M54 33H34a1 1 0 0 1 0-2h19v-5a3 3 0 0 0-3-3h-3a1 1 0 0 1-1-1v-3a1 1 0 0 1 2 0v2h2a5 5 0 0 1 5 5v6a1 1 0 0 1-1 1z"/>
    <path d="M44 21a6 6 0 1 1 6-6 6 6 0 0 1-6 6zm0-10a4 4 0 1 0 4 4 4 4 0 0 0-4-4zm5 21a1 1 0 0 1-1-1v-2a1 1 0 0 1 2 0v2a1 1 0 0 1-1 1zm-12 0a1 1 0 0 1-1-1v-2a1 1 0 0 1 2 0v2a1 1 0 0 1-1 1zM25 42a1 1 0 0 1 1-1 1 1 0 0 1 1 1 1 1 0 0 1-1 1 1 1 0 0 1-1-1zm-3 0a1 1 0 0 1 1-1 1 1 0 0 1 1 1 1 1 0 0 1-1 1 1 1 0 0 1-1-1zm-3 0a1 1 0 0 1 1-1 1 1 0 0 1 1 1 1 1 0 0 1-1 1 1 1 0 0 1-1-1zm-3 0a1 1 0 0 1 1-1 1 1 0 0 1 1 1 1 1 0 0 1-1 1 1 1 0 0 1-1-1zm16-14a1 1 0 0 1-.55-.17l-3-2a1 1 0 1 1 1.1-1.66L32 25.8l2.45-1.63a1 1 0 1 1 1.1 1.66l-3 2A1 1 0 0 1 32 28zm-12 0a1 1 0 0 1-.55-.17l-3-2a1 1 0 1 1 1.1-1.66L20 25.8l1.47-1a1 1 0 0 1 1.1 1.66l-2 1.34a1 1 0 0 1-.57.2zm24 0a1 1 0 0 1-.55-.17l-2-1.34a1 1 0 1 1 1.1-1.66l1.47 1 2.45-1.63a1 1 0 1 1 1.1 1.66l-3 2A1 1 0 0 1 44 28z"/>
    <path d="M31 33a1 1 0 0 1-1-1v-3a1 1 0 0 1 .11-.45l1-2a1 1 0 0 1 1.78.9L32 29.24V32a1 1 0 0 1-1 1z"/>
    <path d="M33 33a1 1 0 0 1-1-1v-2.76l-.89-1.79a1 1 0 0 1 1.78-.9l1 2A1 1 0 0 1 34 29v3a1 1 0 0 1-1 1z"/>
</svg>
