<svg height="100" width="100" xmlns="http://www.w3.org/2000/svg" viewBox="-11.987 -5 100 100">
    <path d="M75.659 75.796A1 1 0 0 0 74.68 75h-7.672V11.713c0-5.916-.01-11.497-3.907-11.694-.033-.003-.06-.019-.093-.019H4.432c-.56 0-1.394.2-2.193 1.153C.297 3.469-.531 9.189.353 14.175a1 1 0 0 0 .985.825h4.671v61.803C6.009 83.71 9.4 90 13.124 90h58.884c2.762 0 4.905-8.175 3.651-14.204zM2.194 13C1.367 6.898 3.257 2 4.432 2 6.303 2 6.01 7.633 6.01 13H2.194zm5.815 63.803v-65.74C8.011 6.543 7.998 3.756 7.25 2h55.644c1.787 0 2.114 3.271 2.114 9.713V75H16.309c-.615 0-1.084.553-.987 1.158C15.964 80.172 15.246 88 13.124 88c-2.06 0-5.115-4.702-5.115-11.197zM71.586 88h-55.56c1.523-2.766 1.696-7.896 1.412-11h56.403c.758 5.199-1.067 11-2.255 11zM47.347 19H28.68c-1.323 0-1.324-2 0-2h18.667c1.322 0 1.325 2 0 2zm10 6H18.679c-1.323 0-1.322 2 0 2h38.667c1.326 0 1.323-2 .001-2zm0 8H18.679c-1.323 0-1.322 2 0 2h38.667c1.326 0 1.323-2 .001-2zm0 8H18.679c-1.323 0-1.322 2 0 2h38.667c1.326 0 1.323-2 .001-2zm0 8H18.679c-1.323 0-1.323 2 0 2h38.667c1.325 0 1.323-2 .001-2zM45.951 66.087c-.722-.563-2.685-2.097-3.737-2.578.111.472.208.693.344.978.594 1.256-.516 2.598-2.209.647-2.938-3.384-6.157-3.976-7.349-3.099-.751.551-.643 1.784.29 3.301.695 1.132-1.014 2.171-1.704 1.047-1.809-2.942-1.066-5.008.23-5.96 1.827-1.34 5.28-.91 8.482 1.841.938-2.174 3.958.028 5.809 1.421 1.032-1.938 5.231-.754 10.411-.685 1.262.016 1.364 1.929-.025 2-3.152-.04-7.361-.737-8.516-.367 1.911 2.76-.16 2.912-2.026 1.454z"/>
</svg>
