<svg height="100" width="100" xmlns="http://www.w3.org/2000/svg">
    <g data-name="Layer 2">
        <path d="M72.12 45h-5.85a2 2 0 0 0-2 2 3.41 3.41 0 0 0-2.55 3.3V55h-9.94a1 1 0 0 0-1 1v3.09a1 1 0 0 0 1 1h1.58l5.25 33.94a1 1 0 0 0 1 .87h11a1 1 0 0 0 1-1V60.19h1.27a1 1 0 0 0 1-1v-3.13a1 1 0 0 0-1-1h-9.15v-4.79a1.35 1.35 0 0 1 .76-1.21 2 2 0 0 0 .34.46 2 2 0 0 0 1.44.61h5.85a2.05 2.05 0 0 0 2-2.06V47a2.05 2.05 0 0 0-2-2z"/>
        <path d="M83 65.59a2.86 2.86 0 0 0 .52-.16 2.68 2.68 0 0 0 1.21-1l3.91-5.73a2.65 2.65 0 0 0-.66-3.64 2.55 2.55 0 0 0-3.58.67L81 60.62l-1.81.38-3.92.72a2.62 2.62 0 0 0 .46 5.19 3.89 3.89 0 0 0 .47 0l3-.56z"/>
        <path d="M88.42 51.34h-.75a6.33 6.33 0 1 0-3.3.82 10.32 10.32 0 0 0-6 7.89l2.11-.39 3.07-4.51a3.62 3.62 0 0 1 2.31-1.52 3.58 3.58 0 0 1 2.69.59 3.68 3.68 0 0 1 .91 5.07l-3.91 5.74a3.5 3.5 0 0 1-1.68 1.33 3.8 3.8 0 0 1-.7.21l-4.92.91a3.51 3.51 0 0 0 1.89 3.12l2.11 19A3.32 3.32 0 0 0 79 92.92v1a1 1 0 0 0 1 1h11.69a1 1 0 0 0 1-1v-1.73a2.59 2.59 0 0 0-.77-1.86L94.09 71a1 1 0 0 0 .91-1V58a6.67 6.67 0 0 0-1.93-4.72 6.49 6.49 0 0 0-4.65-1.94zM35.76 47a2 2 0 0 0-2-2h-5.88a2.05 2.05 0 0 0-2 2.06v1a2.05 2.05 0 0 0 2 2.06h5.85a2 2 0 0 0 1.44-.61 2 2 0 0 0 .34-.46 1.35 1.35 0 0 1 .76 1.21V55h-9.15a1 1 0 0 0-1 1v3.09a1 1 0 0 0 1 1h1.27V94a1 1 0 0 0 1 1h11a1 1 0 0 0 1-.87l5.25-33.94h1.58a1 1 0 0 0 1-1v-3.13a1 1 0 0 0-1-1h-9.91v-4.79A3.41 3.41 0 0 0 35.76 47z"/>
        <path d="M20.81 61 19 60.62l-3.32-4.85a2.55 2.55 0 0 0-3.58-.67 2.65 2.65 0 0 0-.66 3.64l3.91 5.73a2.68 2.68 0 0 0 1.21 1 2.86 2.86 0 0 0 .52.16l3.78.69 3 .56a3.89 3.89 0 0 0 .47 0 2.62 2.62 0 0 0 .46-5.19z"/>
        <path d="m5.91 71 2.15 19.33a2.59 2.59 0 0 0-.77 1.86V94a1 1 0 0 0 1 1H20a1 1 0 0 0 1-1v-1a3.32 3.32 0 0 0-3.24-3.33l2.11-19a3.51 3.51 0 0 0 1.89-3.12l-4.92-.91a3.8 3.8 0 0 1-.7-.21 3.5 3.5 0 0 1-1.68-1.33l-3.91-5.74a3.68 3.68 0 0 1 .91-5.07 3.58 3.58 0 0 1 2.69-.59 3.62 3.62 0 0 1 2.31 1.52l3.07 4.51 2.11.39a10.32 10.32 0 0 0-6-7.89 6.4 6.4 0 1 0-3.3-.82h-.75a6.49 6.49 0 0 0-4.65 1.95A6.67 6.67 0 0 0 5 58v12a1 1 0 0 0 .91 1zM49.49 5a19.46 19.46 0 0 0-19.32 19.6 19.32 19.32 0 1 0 38.64 0A19.46 19.46 0 0 0 49.49 5zm4.4 21.69-.13 4.65-4.4-1.34L45 31.34l-.13-4.65-2.59-3.84 4.32-1.56 2.79-3.69 2.8 3.69 4.32 1.56z"/>
    </g>
</svg>
