<svg height="100" width="100" xmlns="http://www.w3.org/2000/svg" viewBox="206 206 100 100">
    <path d="M294.873 270.27a3.793 3.793 0 00-2.699 1.118 3.798 3.798 0 00-.886 1.396l-2.792-2.131c-.007-.006-.016-.009-.023-.014a1.013 1.013 0 00-.089-.055c-.026-.015-.051-.03-.078-.042-.028-.013-.058-.022-.087-.032-.031-.011-.062-.022-.094-.029-.027-.006-.055-.009-.083-.013a.988.988 0 00-.108-.011c-.009 0-.018-.003-.026-.003h-3.145v-15.072c9.197-2.153 16.067-10.422 16.067-20.266 0-11.476-9.337-20.812-20.813-20.812s-20.812 9.336-20.812 20.812c0 9.844 6.87 18.113 16.067 20.266v15.072H267.728c-1.1 0-2.135.428-2.913 1.206a4.093 4.093 0 00-1.206 2.913 4.11 4.11 0 002.454 3.767 4.012 4.012 0 00-.917 2.527c0 1.59.98 3.003 2.37 3.686a4.11 4.11 0 001.263 6.252 4.083 4.083 0 00-.966 2.649c0 1.1.428 2.134 1.206 2.912a4.089 4.089 0 002.704 1.196c.035.004.069.01.105.01h16.121a5.016 5.016 0 003.717-1.631 3.817 3.817 0 003.208 1.756 3.821 3.821 0 003.816-3.817v-19.796a3.819 3.819 0 00-3.817-3.814zm-33.724-35.154c0-10.403 8.463-18.866 18.866-18.866s18.866 8.463 18.866 18.866-8.463 18.866-18.866 18.866-18.866-8.463-18.866-18.866zm21.665 20.623v14.714h-5.598v-14.715a20.853 20.853 0 005.598.001zm8.242 36.784c0 .829-.323 1.609-.91 2.195a3.086 3.086 0 01-2.197.91h-16.017a2.16 2.16 0 01-1.538-.637 2.157 2.157 0 01-.636-1.536c0-.581.226-1.127.637-1.538a2.16 2.16 0 011.537-.637h2.336a.973.973 0 100-1.946h-3.571a2.156 2.156 0 01-1.534-.636 2.16 2.16 0 01-.638-1.535 2.18 2.18 0 012.172-2.175h.005l2.233-.002a.973.973 0 00-.001-1.946h-.001l-3.566.002c-1.234 0-2.276-.996-2.276-2.174 0-1.179 1.042-2.174 2.276-2.174h2.64a.973.973 0 000-1.946h-4.282c-.58 0-1.126-.226-1.536-.637a2.164 2.164 0 01-.637-1.537c0-.581.226-1.127.637-1.537a2.16 2.16 0 011.537-.636h19.85l3.479 2.656v17.462c.002.001.001.002.001.004zm3.818 3.23a1.873 1.873 0 01-1.871-1.871v-19.796c0-.499.194-.968.547-1.321s.823-.548 1.325-.548c1.031 0 1.869.839 1.869 1.87v19.796c0 1.031-.839 1.87-1.87 1.87z"/>
    <path d="M291.192 227.435a.973.973 0 00-1.376 0l-13.297 13.297-6.304-6.304a.973.973 0 10-1.376 1.376l6.992 6.992a.97.97 0 001.376 0l13.985-13.985a.973.973 0 000-1.376zm-38.394 7.681c0-11.476-9.336-20.812-20.812-20.812s-20.812 9.336-20.812 20.812c0 9.844 6.87 18.113 16.067 20.266v15.072h-3.146c-.009 0-.018.002-.026.003-.036.001-.071.006-.107.011-.028.004-.057.007-.085.013a.754.754 0 00-.092.029c-.03.01-.061.02-.09.033-.026.012-.051.027-.076.041-.031.018-.062.035-.09.056l-.023.014-2.791 2.13a3.803 3.803 0 00-3.586-2.514 3.79 3.79 0 00-2.698 1.118 3.79 3.79 0 00-1.118 2.698v19.796a3.82 3.82 0 003.816 3.817 3.814 3.814 0 003.208-1.756 5.024 5.024 0 003.717 1.631h16.121c.035 0 .068-.007.101-.01a4.087 4.087 0 002.708-1.196 4.086 4.086 0 001.206-2.912c0-.981-.342-1.908-.966-2.65.36-.19.694-.435.991-.731a4.098 4.098 0 001.208-2.914 4.101 4.101 0 00-.936-2.607c1.39-.683 2.37-2.096 2.37-3.686a4.01 4.01 0 00-.917-2.527 4.098 4.098 0 001.248-.854 4.093 4.093 0 001.206-2.913 4.095 4.095 0 00-1.206-2.914 4.093 4.093 0 00-2.913-1.206h-7.544v-15.072c9.197-2.153 16.067-10.422 16.067-20.266zm-33.8 58.765a1.873 1.873 0 01-1.871 1.871 1.872 1.872 0 01-1.87-1.871v-19.796c0-.499.195-.968.548-1.322a1.86 1.86 0 011.323-.548c.499 0 .969.195 1.322.548.353.353.548.822.547 1.322v19.796zm25.275-21.481a2.16 2.16 0 011.537.636c.41.41.637.956.636 1.537a2.16 2.16 0 01-.637 1.537c-.41.411-.956.637-1.537.637h-4.281a.973.973 0 000 1.946h2.64c1.234 0 2.276.996 2.276 2.174 0 1.179-1.042 2.174-2.276 2.174l-3.566-.002h-.001a.973.973 0 00-.001 1.946l2.228.001.006.001c1.199 0 2.175.976 2.176 2.173a2.161 2.161 0 01-.638 1.537c-.41.41-.955.636-1.535.636h-3.57a.973.973 0 000 1.946h2.336c.581 0 1.127.226 1.537.637.41.411.637.957.637 1.539 0 .58-.226 1.125-.636 1.535-.41.41-.957.637-1.538.637H224.05c-.83 0-1.61-.323-2.197-.91a3.083 3.083 0 01-.91-2.195v-17.468l3.479-2.655 19.851.001zm-15.086-1.946V255.74a20.853 20.853 0 005.598 0v14.715l-5.598-.001zm2.798-16.472c-10.403 0-18.866-8.463-18.866-18.866s8.463-18.866 18.866-18.866 18.866 8.463 18.866 18.866c.001 10.403-8.463 18.866-18.866 18.866z"/>
    <path d="M239.948 227.153a.973.973 0 00-1.376 0l-6.586 6.586-6.586-6.586a.973.973 0 10-1.376 1.376l6.586 6.586-6.586 6.586a.973.973 0 101.376 1.376l6.586-6.586 6.586 6.586a.97.97 0 001.376 0 .973.973 0 000-1.376l-6.586-6.586 6.586-6.586a.973.973 0 000-1.376z"/>
</svg>
