<svg height="100" width="100" xmlns="http://www.w3.org/2000/svg" viewBox="121 -320 1201 1201">
    <path d="M871.4 101.7c3.9 4.5 9.4 6.9 15.1 6.9 2.3 0 4.7-.4 7-1.3 7.8-2.9 13-10.4 13-18.7V17.2h2.6c53.8 0 97.5-43.7 97.5-97.5v-56c0-53.8-43.7-97.5-97.5-97.5H775.4c-17.8-23.1-45.8-38-77.2-38H532.8c-53.7 0-97.5 43.7-97.5 97.5v56c0 53.8 43.7 97.5 97.5 97.5h2.6v71.4c0 8.4 5.2 15.8 13 18.7 2.3.9 4.6 1.3 7 1.3 5.7 0 11.2-2.4 15.1-6.9l73.2-84.5h22.8c17.8 23.1 45.8 38 77.2 38h54.5l73.2 84.5zM634.6-40.8l-79.2 91.4v-91.4h-22.6c-42.8 0-77.5-34.7-77.5-77.5v-56c0-42.8 34.7-77.5 77.5-77.5h165.5c18.9 0 36.2 6.8 49.6 18 6.8 5.6 12.5 12.4 17 20 6.9 11.6 10.8 25.1 10.8 39.5v56c0 42.8-34.7 77.5-77.5 77.5h-63.6zm59.4 20h4.3c53.8 0 97.5-43.7 97.5-97.5v-26.9L832-109l-39.8 39.8c-3.9 3.9-3.9 10.2 0 14.1 2 1.9 4.5 2.9 7.1 2.9s5.1-1 7.1-2.9l39.8-39.8L889-52.1c2 1.9 4.5 2.9 7.1 2.9s5.1-1 7.1-2.9c3.9-3.9 3.9-10.2 0-14.1l-43-42.8 39.1-39.1c3.9-3.9 3.9-10.2 0-14.1-3.9-3.9-10.2-3.9-14.1 0l-39.1 39.1-40-39.9c-2.8-2.8-6.9-3.6-10.5-2.3v-9c0-14.1-3-27.4-8.4-39.5h121.7c42.8 0 77.5 34.7 77.5 77.5v56c0 42.8-34.7 77.5-77.5 77.5h-22.6v91.4l-79-91.4h-63.7c-18.9 0-36.2-6.8-49.6-18zM240.4 255.7h106.5v118.5h194V255.7h10v118.5h52.6V242.3c0-33-26.8-59.8-59.8-59.8h-63.5c-1.5.7-3.1 1.3-4.7 1.9-9 3.4-18.7 5.2-28.8 5.2-11.9 0-23.3-2.6-33.5-7.1H266V56c0-14.1-11.4-25.6-25.6-25.6S214.8 41.9 214.8 56v174.1c0 14.1 11.5 25.6 25.6 25.6zm26.1 253.6h361.4v323.5H266.5zm-32.6-10h426.6L682 384.2H212.3z"/>
    <path d="M400.3 162.8c12.6 10.5 28.8 16.9 46.5 16.9 17.8 0 34.1-6.4 46.8-17.1 15.7-13.3 25.6-33.1 25.6-55.2 0-40-32.4-72.4-72.4-72.4s-72.4 32.4-72.4 72.4c0 22.2 10 42.1 25.9 55.4zm596 26.9c-10.1 0-19.9-1.8-28.8-5.2-1.6-.6-3.2-1.2-4.7-1.9h-63.5c-33 0-59.8 26.8-59.8 59.8v131.9h52.6V255.7h10v118.5h194V255.7h106.5c14.1 0 25.6-11.5 25.6-25.6V56c0-14.1-11.4-25.6-25.6-25.6S1177 41.9 1177 56v126.5h-147.2a81.51 81.51 0 0 1-33.5 7.2zM815.1 509.3h361.4v323.5H815.1zM761 384.2l21.5 115.1h426.6l21.6-115.1z"/>
    <path d="M923.9 107.3v2.1c0 .7 0 1.4.1 2.1 0 .6.1 1.3.1 1.9v.3c0 .6.1 1.2.2 1.7v.2c.1.5.1 1 .2 1.5 0 .3.1.5.1.8.1.4.1.7.2 1.1.1.3.1.6.2.9 0 .2.1.4.1.6.1.5.2.9.3 1.4.4 2 .9 3.9 1.5 5.8.1.5.3 1 .4 1.5.1.5.3 1 .5 1.5.2.4.3.9.5 1.3.1.1.1.3.1.4.1.3.3.7.4 1 .1.3.3.7.4 1 .2.5.4.9.6 1.4.2.4.3.8.5 1.1.1.2.2.3.2.5.2.4.4.8.6 1.3 1 2.2 2.2 4.3 3.5 6.4.3.6.7 1.1 1 1.6.3.4.5.8.8 1.2l.6.9c.5.7 1 1.4 1.6 2.1.2.3.4.6.6.8.5.6.9 1.2 1.4 1.8.3.4.6.7.9 1.1.4.4.7.8 1.1 1.2.4.5.8.9 1.3 1.4.4.5.9.9 1.4 1.4.5.4.9.9 1.4 1.3.5.4.9.9 1.4 1.3.5.4 1 .9 1.4 1.3.4.3.8.7 1.2 1l.1.1 1.2.9c.8.6 1.6 1.3 2.5 1.9.4.3.8.6 1.3.9.8.6 1.6 1.1 2.4 1.6.7.4 1.5.9 2.2 1.3.4.3.8.5 1.3.7 1.2.6 2.4 1.3 3.6 1.8.9.4 1.9.9 2.9 1.3l3 1.2c.3.1.6.2 1 .4 1 .4 2 .7 3 1 .5.1 1 .3 1.4.4.5.1.9.3 1.4.4.2.1.5.1.7.2.5.1 1 .3 1.6.4 1.8.4 3.7.8 5.6 1.1.4.1.8.1 1.3.2h.3c.4.1.8.1 1.2.1s.8.1 1.1.1h.2c.5.1 1 .1 1.5.1.8.1 1.5.1 2.3.1h6.1c.5 0 1-.1 1.5-.1.4 0 .8-.1 1.2-.1.3 0 .5 0 .8-.1.4 0 .8-.1 1.3-.1.5-.1 1.1-.1 1.6-.2s1.1-.1 1.6-.2 1-.2 1.6-.3c1.3-.2 2.5-.5 3.8-.8l1.2-.3c.4-.1.9-.2 1.3-.4.4-.1.9-.2 1.3-.4.1 0 .2 0 .3-.1.4-.1.9-.3 1.3-.4.1 0 .2-.1.2-.1.5-.2.9-.3 1.3-.5.5-.2 1-.3 1.5-.5 1.5-.5 2.9-1.1 4.3-1.8.4-.2.7-.3 1.1-.5 1.3-.6 2.6-1.3 3.9-2 .4-.2.8-.5 1.2-.7 1.6-.9 3.1-1.8 4.6-2.8.4-.3.8-.6 1.3-.9.4-.3.8-.6 1.3-.9l1.2-.9 1.2-.9c.4-.3.8-.6 1.2-1 .1 0 .1-.1.1-.1.4-.3.8-.7 1.2-1l.3-.3c.4-.4.9-.8 1.3-1.2.5-.4.9-.9 1.4-1.3l1.2-1.2c.5-.5 1-1 1.5-1.6.4-.5.9-.9 1.3-1.4l1.2-1.5c.8-1 1.6-2 2.4-3.1.3-.4.6-.9.9-1.3.5-.7 1-1.4 1.4-2.1.3-.5.6-.9.9-1.4l.9-1.5c1-1.7 1.9-3.4 2.7-5.1.2-.4.4-.9.6-1.4.1-.1.1-.2.2-.3.2-.4.4-.8.5-1.3.2-.4.4-.8.5-1.3.2-.4.4-.9.5-1.3 0-.1 0-.1.1-.2.2-.4.3-.9.5-1.3 1.3-3.7 2.4-7.6 3.1-11.6.1-.3.1-.7.2-1 .1-.4.1-.8.2-1.2 0-.2.1-.3.1-.5.1-.4.1-.8.2-1.2 0-.3.1-.6.1-.9 0-.4.1-.8.1-1.2 0-.3 0-.5.1-.8 0-.6.1-1.2.1-1.8 0-.7.1-1.4.1-2.1v-2.1c0-40-32.4-72.4-72.4-72.4-40.2.3-72.6 32.7-72.6 72.6zM702.9-186c-3.3-4.4-9.5-5.4-14-2.1l-7.5 5.5-10.1 7.4-22.7 16.6-60.4 44.3-31.2-37.3-3.5-4.1c-3.6-4.2-9.9-4.8-14.1-1.2-4.2 3.5-4.8 9.9-1.2 14.1L579-94.2c2 2.4 4.8 3.6 7.7 3.6 2.1 0 4.1-.6 5.9-1.9l53.5-39.3 20.7-15.2 33.9-24.9c4.5-3.4 5.5-9.6 2.2-14.1z"/>
</svg>
