<svg height="100" width="100" xmlns="http://www.w3.org/2000/svg" version="1.0">
    <path d="M66.287 26.426c-25.279 7.03-23.792 3.65-30.416-1.352-2.956-2.232-8.255-5.27-13.554-6.75l.036-.009c-1.081-.338-1.081-1.487-1.081-1.487 1.081-4.326-.88-7.638-1.893-10.544s-4.461-1.217-4.866 6.691-4.124-2.298-5.07-5.136-2.636-.744-2.636-.744S2.104 14.94 8.84 20.833c-.742.98-1.342 2.201-1.761 3.7-.59 2.11.141 4.856-.27 7.165-4.867 12.707.27 20.007 11.625 9.868 0 0 3.244-3.447 8.11 7.773h60.832s4.191-29.942-21.088-22.913zM37.02 46.428l-3.793-2.756-3.793 2.755 1.45-4.459-3.794-2.756h4.689l1.449-4.459 1.448 4.46h4.689l-3.793 2.755 1.448 4.46zm15.05 0l-3.793-2.756-3.792 2.755 1.449-4.459-3.794-2.756h4.69l1.448-4.459 1.448 4.46h4.69l-3.794 2.755 1.449 4.46zm15.05 0l-3.792-2.756-3.794 2.755 1.45-4.459-3.793-2.756h4.688l1.449-4.459 1.449 4.46h4.688l-3.793 2.755 1.448 4.46zm15.05 0l-3.792-2.756-3.793 2.755 1.449-4.459-3.793-2.756h4.688l1.45-4.459 1.448 4.46h4.688l-3.793 2.755 1.449 4.46zM94.81 63.195c-.316-1.344-1.12-2.5-2.5-2.5-.05 0-.097.011-.146.014-3.823-3.838-4.924-8.598-4.924-8.598H27.76c.947 3.109 3.785 16.897 3.785 20.953s-1.351 8.516-1.351 9.462c0 .947-.676 1.758-.676 1.758s-2.704 4.326-4.056 6.218c-1.352 1.893.811 2.433.811 2.433h7.03c2.298 0 2.433-.54 2.568-1.487.135-.946.946-1.892 1.758-.946.81.946 1.892-.405 1.892-.405s2.028-2.028 3.92-4.326-.405-3.245-.405-3.245c-8.381-8.922.81-20.277.81-20.277 5.679 1.487 11.086-.676 13.79-1.352 2.703-.676 3.514 1.352 3.514 1.352l1.893 3.244c3.514 6.76 1.081 8.787 1.081 8.787s-5.407 8.246-7.57 10.68-1.893 3.244-1.893 3.244c.27 3.92 7.841 3.11 8.922 1.487 1.082-1.622 2.704-5.002 4.597-6.894 1.892-1.893 1.487-2.974 1.487-2.974.202-4.529 1.351-5.543 1.351-5.543 5.678-5.137 4.191-10.274 3.786-11.22-.406-.946-.136-1.216.54-1.487s1.082.811 1.082.811c4.326 9.057 3.244 14.6 3.244 16.357 0 1.758-1.352 3.65-1.352 5.408s0 2.027-2.703 4.866-1.487 5.137 3.244 5.137 5.948-4.461 6.894-5.813c.947-1.352 1.352-3.38 1.352-3.38s-.135-3.514 0-6.488c.135-2.974 1.757-5.813.676-8.111-1.081-2.298-2.163-9.192-2.298-10.139-.135-.946.405-4.055 1.892-1.892 1.009 1.467 2.326 2.621 3.071 3.213a2.482 2.482 0 00-.637 1.653s.135 1.487 1.284 2.704.946 2.23.946 2.23.068 1.96 1.352.27 1.69-4.055 1.42-5.204z"/>
</svg>
