<svg height="100" width="100" xmlns="http://www.w3.org/2000/svg">
    <path d="M5273.1 2400.1v-2c0-2.8-5-4-9.7-4s-9.7 1.3-9.7 4v2c0 1.8.7 3.6 2 4.9l5 4.9c.3.3.4.6.4 1v6.4c0 .4.2.7.6.8l2.9.9c.5.1 1-.2 1-.8v-7.2c0-.4.2-.7.4-1l5.1-5c1.3-1.3 2-3.1 2-4.9zm-9.7-.1c-4.8 0-7.4-1.3-7.5-1.8.1-.5 2.7-1.8 7.5-1.8s7.3 1.3 7.5 1.8c-.2.5-2.7 1.8-7.5 1.8z"/>
    <path d="M5268.4 2410.3c-.6 0-1 .4-1 1s.4 1 1 1h4.3c.6 0 1-.4 1-1s-.4-1-1-1h-4.3zm4.3 3.4h-4.3c-.6 0-1 .4-1 1s.4 1 1 1h4.3c.6 0 1-.4 1-1s-.4-1-1-1zm0 3.3h-4.3c-.6 0-1 .4-1 1s.4 1 1 1h4.3c.6 0 1-.4 1-1 0-.5-.4-1-1-1zM23.1 64.1c1.9-1.8 3.2-4.3 3.2-7.1 0-5.4-4.4-9.7-9.7-9.7-5.4 0-9.7 4.4-9.7 9.7 0 2.8 1.2 5.4 3.2 7.1-3.5 1.3-6.1 4.5-6.6 8.4l-.8 7c-.2 1.7 1 3.4 2.6 3.7 3.6.8 7.5 1.2 11.4 1.2s7.7-.4 11.4-1.2c1.7-.4 2.9-2 2.6-3.7l-.8-7c-.7-3.9-3.3-7.1-6.8-8.4zm-6.6-13.6c3.6 0 6.5 2.9 6.5 6.5s-2.9 6.5-6.5 6.5C13 63.5 10 60.6 10 57s3-6.5 6.5-6.5zM5.7 79.9l.8-7c.4-3.5 3.4-6.2 6.9-6.2h6c3.5 0 6.5 2.6 6.9 6.2l.7 7.2c-6.6 1.4-14.2 1.6-21.3-.2zM8 38.4h3.8l1.8 3.6c.5 1.1 1.6 1.8 2.9 1.8s2.3-.7 2.9-1.8l1.8-3.6H25c2.4 0 4.4-2 4.4-4.4V20c0-2.4-2-4.4-4.4-4.4H8c-2.4 0-4.4 2-4.4 4.4v14c0 2.4 2 4.4 4.4 4.4zM6.8 20c0-.7.5-1.2 1.2-1.2h17c.7 0 1.2.5 1.2 1.2v14c0 .7-.5 1.2-1.2 1.2h-4.8c-.6 0-1.2.3-1.4.9l-2.2 4.5-2.3-4.5c-.3-.5-.8-.9-1.4-.9H8c-.7 0-1.2-.5-1.2-1.2V20z"/>
    <path d="M11.8 31.7c.3.3.7.5 1.1.5s.8-.2 1.1-.5l2.4-2.4 2.4 2.4c.3.3.7.5 1.1.5s.8-.2 1.1-.5c.6-.6.6-1.7 0-2.3L18.8 27l2.4-2.4c.6-.6.6-1.7 0-2.3-.6-.6-1.7-.6-2.3 0l-2.4 2.4-2.4-2.4c-.6-.6-1.7-.6-2.3 0-.6.6-.6 1.7 0 2.3l2.4 2.4-2.4 2.4c-.6.6-.6 1.6 0 2.3zm44.8 32.4c1.9-1.8 3.2-4.3 3.2-7.1 0-5.4-4.4-9.7-9.7-9.7-5.4 0-9.7 4.4-9.7 9.7 0 2.8 1.2 5.4 3.2 7.1-3.5 1.3-6.1 4.5-6.6 8.4l-.8 7c-.2 1.7 1 3.4 2.6 3.7 3.6.8 7.5 1.2 11.4 1.2s7.7-.4 11.4-1.2c1.7-.4 2.9-2 2.6-3.7l-.8-7c-.7-3.9-3.3-7.1-6.8-8.4zM50 50.5c3.6 0 6.5 2.9 6.5 6.5s-2.9 6.5-6.5 6.5-6.5-2.9-6.5-6.5 2.9-6.5 6.5-6.5zM39.2 79.9l.8-7c.4-3.5 3.4-6.2 6.9-6.2h6c3.5 0 6.5 2.6 6.9 6.2l.7 7.2c-6.7 1.4-14.2 1.6-21.3-.2zm2.3-41.5h3.8l1.8 3.6c.5 1.1 1.6 1.8 2.9 1.8s2.3-.7 2.9-1.8l1.8-3.6h3.8c2.4 0 4.4-2 4.4-4.4V20c0-2.4-2-4.4-4.4-4.4h-17c-2.4 0-4.4 2-4.4 4.4v14c0 2.4 2 4.4 4.4 4.4zM40.3 20c0-.7.5-1.2 1.2-1.2h17c.7 0 1.2.5 1.2 1.2v14c0 .7-.5 1.2-1.2 1.2h-4.8c-.6 0-1.2.3-1.4.9L50 40.6l-2.3-4.5c-.3-.5-.8-.9-1.4-.9h-4.8c-.7 0-1.2-.5-1.2-1.2V20z"/>
    <path d="M45.3 31.7c.3.3.7.5 1.1.5.4 0 .8-.2 1.1-.5l2.4-2.4 2.4 2.4c.3.3.7.5 1.1.5.4 0 .8-.2 1.1-.5.6-.6.6-1.7 0-2.3L52.3 27l2.4-2.4c.6-.6.6-1.7 0-2.3s-1.7-.6-2.3 0L50 24.7l-2.4-2.4c-.6-.6-1.7-.6-2.3 0s-.6 1.7 0 2.3l2.4 2.4-2.4 2.4c-.6.6-.6 1.6 0 2.3zm51.3 40.8c-.5-3.9-3.1-7.1-6.6-8.4 1.9-1.8 3.2-4.3 3.2-7.1 0-5.4-4.4-9.7-9.7-9.7-5.4 0-9.7 4.4-9.7 9.7 0 2.8 1.2 5.4 3.2 7.1-3.5 1.3-6.1 4.5-6.6 8.4l-.8 7c-.2 1.7 1 3.4 2.6 3.7 3.6.8 7.5 1.2 11.4 1.2 3.9 0 7.7-.4 11.4-1.2 1.7-.4 2.9-2 2.6-3.7l-1-7zm-13.1-22c3.6 0 6.5 2.9 6.5 6.5s-2.9 6.5-6.5 6.5S77 60.6 77 57s2.9-6.5 6.5-6.5zM72.7 79.9l.8-7c.4-3.5 3.4-6.2 6.9-6.2h6c3.5 0 6.5 2.6 6.9 6.2l.7 7.2c-6.7 1.4-14.3 1.6-21.3-.2zM75 38.4h3.8l1.8 3.6c.5 1.1 1.6 1.8 2.9 1.8 1.2 0 2.3-.7 2.8-1.8l1.8-3.6H92c2.4 0 4.4-2 4.4-4.4V20c0-2.4-2-4.4-4.4-4.4H75c-2.4 0-4.4 2-4.4 4.4v14c-.1 2.4 1.9 4.4 4.4 4.4zM73.8 20c0-.7.5-1.2 1.2-1.2h17c.7 0 1.2.5 1.2 1.2v14c0 .7-.5 1.2-1.2 1.2h-4.8c-.6 0-1.2.3-1.4.9l-2.2 4.5-2.3-4.5c-.3-.5-.8-.9-1.4-.9H75c-.7 0-1.2-.5-1.2-1.2V20z"/>
    <path d="M78.8 31.7c.3.3.7.5 1.1.5.4 0 .8-.2 1.1-.5l2.4-2.4 2.4 2.4c.3.3.7.5 1.1.5.4 0 .8-.2 1.1-.5.6-.6.6-1.7 0-2.3L85.7 27l2.4-2.4c.6-.6.6-1.7 0-2.3-.6-.6-1.7-.6-2.3 0l-2.4 2.4-2.4-2.4c-.6-.6-1.7-.6-2.3 0-.6.6-.6 1.7 0 2.3l2.4 2.4-2.4 2.4c-.6.6-.6 1.6.1 2.3z"/>
</svg>
