<svg height='100px' width='100px'  fill="#000000" xmlns="http://www.w3.org/2000/svg" viewBox="0 0 100 100" x="0px" y="0px"><path d="M 6.1451486 7.2902961 C 5.51295 7.2902961 5 6.7772697 5 6.1451474 C 5 5.513026 5.51295 4.9999997 6.1451486 4.9999997 c .6321977 0 1.1451477 .5130263 1.1451477 1.1451477 c 0 .6321223 -.51295 1.1451487 -1.1451477 1.1451487 z"></path><path d="m 10.131954 7.2902959 c -.6321993 0 -1.1451493 -.5130264 -1.1451493 -1.1451487 c 0 -.6321214 .51295 -1.1451477 1.1451493 -1.1451477 c .632197 0 1.145147 .5130263 1.145147 1.1451477 c 0 .6321223 -.51295 1.1451487 -1.145147 1.1451487 z"></path><path d="M 6.1451486 11.277101 C 5.51295 11.277101 5 10.764075 5 10.131952 C 5 9.499831 5.51295 8.986804 6.1451486 8.986804 c .6321977 0 1.1451477 .513027 1.1451477 1.145148 c 0 .632123 -.51295 1.145149 -1.1451477 1.145149 z"></path><path d="m 10.131954 11.277101 c -.6321993 0 -1.1451493 -.513027 -1.1451493 -1.145149 c 0 -.632122 .51295 -1.145148 1.1451493 -1.145148 c .632197 0 1.145147 .513026 1.145147 1.145148 c 0 .632122 -.51295 1.145149 -1.145147 1.145149 z"></path><path d="M 6.1451486 15.263906 C 5.51295 15.263906 5 14.75088 5 14.118757 c 0 -.632121 .51295 -1.145148 1.1451486 -1.145148 c .6321977 0 1.1451477 .513027 1.1451477 1.145148 c 0 .632123 -.51295 1.145149 -1.1451477 1.145149 z"></path><path d="m 10.131954 15.263906 c -.6321993 0 -1.1451493 -.513027 -1.1451493 -1.145149 c 0 -.632122 .51295 -1.145148 1.1451493 -1.145148 c .632197 0 1.145147 .513026 1.145147 1.145148 c 0 .632122 -.51295 1.145149 -1.145147 1.145149 z"></path><path d="M 6.1451486 19.25071 C 5.51295 19.25071 5 18.737684 5 18.105562 c 0 -.632121 .51295 -1.145148 1.1451486 -1.145148 c .6321977 0 1.1451477 .513027 1.1451477 1.145148 c 0 .632122 -.51295 1.145148 -1.1451477 1.145148 z"></path><path d="m 10.131954 19.25071 c -.6321993 0 -1.1451493 -.513027 -1.1451493 -1.145148 c 0 -.632122 .51295 -1.145148 1.1451493 -1.145148 c .632197 0 1.145147 .513026 1.145147 1.145148 c 0 .632121 -.51295 1.145148 -1.145147 1.145148 z"></path><path d="m 14.118757 7.2902961 c -.632198 0 -1.145148 -.5130264 -1.145148 -1.1451487 c 0 -.6321214 .51295 -1.1451477 1.145148 -1.1451477 c .632199 0 1.145149 .5130263 1.145149 1.1451477 c 0 .6321223 -.51295 1.1451487 -1.145149 1.1451487 z"></path><path d="m 18.105562 7.2902959 c -.632199 0 -1.145148 -.5130264 -1.145148 -1.1451487 c 0 -.6321214 .512949 -1.1451477 1.145148 -1.1451477 c .632198 0 1.145148 .5130263 1.145148 1.1451477 c 0 .6321223 -.51295 1.1451487 -1.145148 1.1451487 z"></path><path d="m 14.118757 11.277101 c -.632198 0 -1.145148 -.513026 -1.145148 -1.145149 c 0 -.632121 .51295 -1.145148 1.145148 -1.145148 c .632199 0 1.145149 .513027 1.145149 1.145148 c 0 .632123 -.51295 1.145149 -1.145149 1.145149 z"></path><path d="m 18.105562 11.277101 c -.632199 0 -1.145148 -.513027 -1.145148 -1.145149 c 0 -.632122 .512949 -1.145148 1.145148 -1.145148 c .632198 0 1.145148 .513026 1.145148 1.145148 c 0 .632122 -.51295 1.145149 -1.145148 1.145149 z"></path><path d="m 14.118757 15.263906 c -.632198 0 -1.145148 -.513026 -1.145148 -1.145149 c 0 -.632121 .51295 -1.145148 1.145148 -1.145148 c .632199 0 1.145149 .513027 1.145149 1.145148 c 0 .632123 -.51295 1.145149 -1.145149 1.145149 z"></path><path d="m 18.105562 15.263906 c -.632199 0 -1.145148 -.513027 -1.145148 -1.145149 c 0 -.632122 .512949 -1.145148 1.145148 -1.145148 c .632198 0 1.145148 .513026 1.145148 1.145148 c 0 .632122 -.51295 1.145149 -1.145148 1.145149 z"></path><path d="m 14.118757 19.25071 c -.632198 0 -1.145148 -.513026 -1.145148 -1.145148 c 0 -.632121 .51295 -1.145148 1.145148 -1.145148 c .632199 0 1.145149 .513027 1.145149 1.145148 c 0 .632122 -.51295 1.145148 -1.145149 1.145148 z"></path><path d="m 22.092368 7.2902961 c -.632199 0 -1.145148 -.5130264 -1.145148 -1.1451487 c 0 -.6321214 .512949 -1.1451477 1.145148 -1.1451477 c .632196 0 1.145147 .5130263 1.145147 1.1451477 c 0 .6321223 -.512951 1.1451487 -1.145147 1.1451487 z"></path><path d="m 26.079171 7.2902959 c -.632198 0 -1.145147 -.5130264 -1.145147 -1.1451487 c 0 -.6321214 .512949 -1.1451477 1.145147 -1.1451477 c .632198 0 1.145148 .5130263 1.145148 1.1451477 c 0 .6321223 -.51295 1.1451487 -1.145148 1.1451487 z"></path><path d="m 22.092368 11.277101 c -.632199 0 -1.145148 -.513026 -1.145148 -1.145149 c 0 -.632121 .512949 -1.145148 1.145148 -1.145148 c .632196 0 1.145147 .513027 1.145147 1.145148 c 0 .632123 -.512951 1.145149 -1.145147 1.145149 z"></path><path d="m 26.079171 11.277101 c -.632198 0 -1.145147 -.513027 -1.145147 -1.145149 c 0 -.632122 .512949 -1.145148 1.145147 -1.145148 c .632198 0 1.145148 .513026 1.145148 1.145148 c 0 .632122 -.51295 1.145149 -1.145148 1.145149 z"></path><path d="m 22.092368 15.263906 c -.632199 0 -1.145148 -.513026 -1.145148 -1.145149 c 0 -.632121 .512949 -1.145148 1.145148 -1.145148 c .632196 0 1.145147 .513027 1.145147 1.145148 c 0 .632123 -.512951 1.145149 -1.145147 1.145149 z"></path><path d="m 26.079171 15.263906 c -.632198 0 -1.145147 -.513027 -1.145147 -1.145149 c 0 -.632122 .512949 -1.145148 1.145147 -1.145148 c .632198 0 1.145148 .513026 1.145148 1.145148 c 0 .632122 -.51295 1.145149 -1.145148 1.145149 z"></path><path d="m 30.065976 7.2902961 c -.632197 0 -1.145148 -.5130264 -1.145148 -1.1451487 c 0 -.6321214 .512951 -1.1451477 1.145148 -1.1451477 c .632198 0 1.145148 .5130263 1.145148 1.1451477 c 0 .6321223 -.51295 1.1451487 -1.145148 1.1451487 z"></path><path d="m 30.065976 11.277101 c -.632197 0 -1.145148 -.513026 -1.145148 -1.145149 c 0 -.632121 .512951 -1.145148 1.145148 -1.145148 c .632198 0 1.145148 .513027 1.145148 1.145148 c 0 .632123 -.51295 1.145149 -1.145148 1.145149 z"></path><path d="m 30.065976 15.263906 c -.632197 0 -1.145148 -.513026 -1.145148 -1.145149 c 0 -.632121 .512951 -1.145148 1.145148 -1.145148 c .632198 0 1.145148 .513027 1.145148 1.145148 c 0 .632123 -.51295 1.145149 -1.145148 1.145149 z"></path><path d="M 6.1451486 23.237515 C 5.51295 23.237515 5 22.724489 5 22.092366 c 0 -.632121 .51295 -1.145148 1.1451486 -1.145148 c .6321977 0 1.1451477 .513027 1.1451477 1.145148 c 0 .632123 -.51295 1.145149 -1.1451477 1.145149 z"></path><path d="m 10.131954 23.237515 c -.6321993 0 -1.1451493 -.513027 -1.1451493 -1.145149 c 0 -.632122 .51295 -1.145148 1.1451493 -1.145148 c .632197 0 1.145147 .513026 1.145147 1.145148 c 0 .632122 -.51295 1.145149 -1.145147 1.145149 z"></path><path d="M 6.1451486 27.22432 C 5.51295 27.22432 5 26.711294 5 26.079171 C 5 25.44705 5.51295 24.934023 6.1451486 24.934023 c .6321977 0 1.1451477 .513027 1.1451477 1.145148 c 0 .632123 -.51295 1.145149 -1.1451477 1.145149 z"></path><path d="m 10.131954 27.22432 c -.6321993 0 -1.1451493 -.513027 -1.1451493 -1.145149 c 0 -.632122 .51295 -1.145148 1.1451493 -1.145148 c .632197 0 1.145147 .513026 1.145147 1.145148 c 0 .632122 -.51295 1.145149 -1.145147 1.145149 z"></path><path d="M 6.1451486 31.211125 C 5.51295 31.211125 5 30.698099 5 30.065976 c 0 -.632121 .51295 -1.145148 1.1451486 -1.145148 c .6321977 0 1.1451477 .513027 1.1451477 1.145148 c 0 .632123 -.51295 1.145149 -1.1451477 1.145149 z"></path><path d="m 10.131954 31.211125 c -.6321993 0 -1.1451493 -.513027 -1.1451493 -1.145149 c 0 -.632122 .51295 -1.145148 1.1451493 -1.145148 c .632197 0 1.145147 .513026 1.145147 1.145148 c 0 .632122 -.51295 1.145149 -1.145147 1.145149 z"></path><path d="M 6.1451486 35.197929 C 5.51295 35.197929 5 34.684903 5 34.05278 c 0 -.63212 .51295 -1.145147 1.1451486 -1.145147 c .6321977 0 1.1451477 .513027 1.1451477 1.145147 c 0 .632123 -.51295 1.145149 -1.1451477 1.145149 z"></path><path d="m 10.131954 35.197929 c -.6321993 0 -1.1451493 -.513027 -1.1451493 -1.145149 c 0 -.632121 .51295 -1.145147 1.1451493 -1.145147 c .632197 0 1.145147 .513026 1.145147 1.145147 c 0 .632122 -.51295 1.145149 -1.145147 1.145149 z"></path><path d="m 14.118757 23.237515 c -.632198 0 -1.145148 -.513026 -1.145148 -1.145149 c 0 -.632121 .51295 -1.145148 1.145148 -1.145148 c .632199 0 1.145149 .513027 1.145149 1.145148 c 0 .632123 -.51295 1.145149 -1.145149 1.145149 z"></path><path d="m 14.118757 27.22432 c -.632198 0 -1.145148 -.513026 -1.145148 -1.145149 c 0 -.632121 .51295 -1.145148 1.145148 -1.145148 c .632199 0 1.145149 .513027 1.145149 1.145148 c 0 .632123 -.51295 1.145149 -1.145149 1.145149 z"></path><path d="m 14.118757 31.211125 c -.632198 0 -1.145148 -.513026 -1.145148 -1.145149 c 0 -.632121 .51295 -1.145148 1.145148 -1.145148 c .632199 0 1.145149 .513027 1.145149 1.145148 c 0 .632123 -.51295 1.145149 -1.145149 1.145149 z"></path><path d="m 14.118757 35.197929 c -.632198 0 -1.145148 -.513026 -1.145148 -1.145149 c 0 -.63212 .51295 -1.145147 1.145148 -1.145147 c .632199 0 1.145149 .513027 1.145149 1.145147 c 0 .632123 -.51295 1.145149 -1.145149 1.145149 z"></path><path d="m 34.052782 7.2902959 c -.632199 0 -1.145148 -.5130264 -1.145148 -1.1451487 c 0 -.6321214 .512949 -1.1451477 1.145148 -1.1451477 c .632196 0 1.145147 .5130263 1.145147 1.1451477 c 0 .6321223 -.512951 1.1451487 -1.145147 1.1451487 z"></path><path d="m 34.052782 11.277101 c -.632199 0 -1.145148 -.513027 -1.145148 -1.145149 c 0 -.632122 .512949 -1.145148 1.145148 -1.145148 c .632196 0 1.145147 .513026 1.145147 1.145148 c 0 .632122 -.512951 1.145149 -1.145147 1.145149 z"></path><path d="m 34.052782 15.263906 c -.632199 0 -1.145148 -.513027 -1.145148 -1.145149 c 0 -.632122 .512949 -1.145148 1.145148 -1.145148 c .632196 0 1.145147 .513026 1.145147 1.145148 c 0 .632122 -.512951 1.145149 -1.145147 1.145149 z"></path><path d="m 38.039586 7.2902961 c -.632199 0 -1.145148 -.5130264 -1.145148 -1.1451487 c 0 -.6321214 .512949 -1.1451477 1.145148 -1.1451477 c .632197 0 1.145147 .5130263 1.145147 1.1451477 c 0 .6321223 -.51295 1.1451487 -1.145147 1.1451487 z"></path><path d="m 42.026391 7.2902959 c -.632198 0 -1.145147 -.5130264 -1.145147 -1.1451487 c -.000001 -.6321214 .512949 -1.1451477 1.145147 -1.1451477 c .632198 0 1.145148 .5130263 1.145148 1.1451477 c 0 .6321223 -.512951 1.1451487 -1.145148 1.1451487 z"></path><path d="m 38.039586 11.277101 c -.632199 0 -1.145148 -.513026 -1.145148 -1.145149 c 0 -.632121 .512949 -1.145148 1.145148 -1.145148 c .632197 0 1.145147 .513027 1.145147 1.145148 c 0 .632123 -.51295 1.145149 -1.145147 1.145149 z"></path><path d="m 42.026391 11.277101 c -.632198 0 -1.145147 -.513027 -1.145147 -1.145149 c -.000001 -.632122 .512949 -1.145148 1.145147 -1.145148 c .632198 0 1.145148 .513026 1.145148 1.145148 c 0 .632122 -.512951 1.145149 -1.145148 1.145149 z"></path><path d="m 38.039586 15.263906 c -.632199 0 -1.145148 -.513026 -1.145148 -1.145149 c 0 -.632121 .512949 -1.145148 1.145148 -1.145148 c .632197 0 1.145147 .513027 1.145147 1.145148 c 0 .632123 -.51295 1.145149 -1.145147 1.145149 z"></path><path d="m 42.026391 15.263906 c -.632198 0 -1.145147 -.513027 -1.145147 -1.145149 c -.000001 -.632122 .512949 -1.145148 1.145147 -1.145148 c .632198 0 1.145148 .513026 1.145148 1.145148 c 0 .632122 -.512951 1.145149 -1.145148 1.145149 z"></path><path d="m 46.013195 7.2902961 c -.632198 0 -1.145148 -.5130264 -1.145148 -1.1451487 c 0 -.6321214 .51295 -1.1451477 1.145148 -1.1451477 c .632198 0 1.145148 .5130263 1.145148 1.1451477 c 0 .6321223 -.51295 1.1451487 -1.145148 1.1451487 z"></path><path d="m 50 7.2902959 c -.632199 0 -1.145148 -.5130264 -1.145148 -1.1451487 c 0 -.6321214 .51295 -1.1451477 1.145148 -1.1451477 c .632196 0 1.145147 .5130263 1.145147 1.1451477 c 0 .6321223 -.512951 1.1451487 -1.145147 1.1451487 z"></path><path d="m 46.013195 11.277101 c -.632198 0 -1.145148 -.513026 -1.145148 -1.145149 c 0 -.632121 .51295 -1.145148 1.145148 -1.145148 c .632198 0 1.145148 .513027 1.145148 1.145148 c 0 .632123 -.51295 1.145149 -1.145148 1.145149 z"></path><path d="m 50 11.277101 c -.632199 0 -1.145148 -.513027 -1.145148 -1.145149 c 0 -.632122 .51295 -1.145148 1.145148 -1.145148 c .632196 0 1.145147 .513026 1.145147 1.145148 c 0 .632122 -.512951 1.145149 -1.145147 1.145149 z"></path><path d="m 46.013195 15.263906 c -.632198 0 -1.145148 -.513026 -1.145148 -1.145149 c 0 -.632121 .51295 -1.145148 1.145148 -1.145148 c .632198 0 1.145148 .513027 1.145148 1.145148 c 0 .632123 -.51295 1.145149 -1.145148 1.145149 z"></path><path d="m 50 15.263906 c -.632199 0 -1.145148 -.513027 -1.145148 -1.145149 c 0 -.632122 .51295 -1.145148 1.145148 -1.145148 c .632196 0 1.145147 .513026 1.145147 1.145148 c 0 .632122 -.512951 1.145149 -1.145147 1.145149 z"></path><path d="m 53.986803 7.2902961 c -.632196 0 -1.145147 -.5130264 -1.145147 -1.1451487 c 0 -.6321214 .51295 -1.1451477 1.145147 -1.1451477 c .632199 0 1.145148 .5130263 1.145148 1.1451477 c 0 .6321223 -.512949 1.1451487 -1.145148 1.1451487 z"></path><path d="m 53.986803 11.277101 c -.632196 0 -1.145147 -.513026 -1.145147 -1.145149 c 0 -.632121 .51295 -1.145148 1.145147 -1.145148 c .632199 0 1.145148 .513027 1.145148 1.145148 c 0 .632123 -.512949 1.145149 -1.145148 1.145149 z"></path><path d="m 53.986803 15.263906 c -.632196 0 -1.145147 -.513026 -1.145147 -1.145149 c 0 -.632121 .51295 -1.145148 1.145147 -1.145148 c .632199 0 1.145148 .513027 1.145148 1.145148 c 0 .632123 -.512949 1.145149 -1.145148 1.145149 z"></path><path d="M 6.1451486 39.184734 C 5.51295 39.184734 5 38.671708 5 38.039585 c 0 -.632121 .51295 -1.145148 1.1451486 -1.145148 c .6321977 0 1.1451477 .513027 1.1451477 1.145148 c 0 .632123 -.51295 1.145149 -1.1451477 1.145149 z"></path><path d="m 10.131954 39.184734 c -.6321993 0 -1.1451493 -.513027 -1.1451493 -1.145149 c 0 -.632122 .51295 -1.145148 1.1451493 -1.145148 c .632197 0 1.145147 .513026 1.145147 1.145148 c 0 .632122 -.51295 1.145149 -1.145147 1.145149 z"></path><path d="M 6.1451486 43.171539 C 5.51295 43.171539 5 42.658513 5 42.02639 c 0 -.632121 .51295 -1.145148 1.1451486 -1.145148 c .6321977 0 1.1451477 .513027 1.1451477 1.145148 c 0 .632123 -.51295 1.145149 -1.1451477 1.145149 z"></path><path d="m 10.131954 43.171539 c -.6321993 0 -1.1451493 -.513027 -1.1451493 -1.145149 c 0 -.632122 .51295 -1.145148 1.1451493 -1.145148 c .632197 0 1.145147 .513026 1.145147 1.145148 c 0 .632122 -.51295 1.145149 -1.145147 1.145149 z"></path><path d="M 6.1451486 47.158343 C 5.51295 47.158343 5 46.645317 5 46.013195 c 0 -.632121 .51295 -1.145148 1.1451486 -1.145148 c .6321977 0 1.1451477 .513027 1.1451477 1.145148 c 0 .632122 -.51295 1.145148 -1.1451477 1.145148 z"></path><path d="m 10.131954 47.158343 c -.6321993 0 -1.1451493 -.513027 -1.1451493 -1.145148 c 0 -.632122 .51295 -1.145148 1.1451493 -1.145148 c .632197 0 1.145147 .513026 1.145147 1.145148 c 0 .632121 -.51295 1.145148 -1.145147 1.145148 z"></path><path d="M 6.1451486 51.145148 C 5.51295 51.145148 5 50.632122 5 49.999999 c 0 -.632121 .51295 -1.145148 1.1451486 -1.145148 c .6321977 0 1.1451477 .513027 1.1451477 1.145148 c 0 .632123 -.51295 1.145149 -1.1451477 1.145149 z"></path><path d="m 10.131954 51.145148 c -.6321993 0 -1.1451493 -.513027 -1.1451493 -1.145149 c 0 -.632122 .51295 -1.145148 1.1451493 -1.145148 c .632197 0 1.145147 .513026 1.145147 1.145148 c 0 .632122 -.51295 1.145149 -1.145147 1.145149 z"></path><path d="m 14.118757 39.184734 c -.632198 0 -1.145148 -.513026 -1.145148 -1.145149 c 0 -.632121 .51295 -1.145148 1.145148 -1.145148 c .632199 0 1.145149 .513027 1.145149 1.145148 c 0 .632123 -.51295 1.145149 -1.145149 1.145149 z"></path><path d="m 14.118757 43.171539 c -.632198 0 -1.145148 -.513026 -1.145148 -1.145149 c 0 -.632121 .51295 -1.145148 1.145148 -1.145148 c .632199 0 1.145149 .513027 1.145149 1.145148 c 0 .632123 -.51295 1.145149 -1.145149 1.145149 z"></path><path d="m 14.118757 47.158343 c -.632198 0 -1.145148 -.513026 -1.145148 -1.145148 c 0 -.632121 .51295 -1.145148 1.145148 -1.145148 c .632199 0 1.145149 .513027 1.145149 1.145148 c 0 .632122 -.51295 1.145148 -1.145149 1.145148 z"></path><path d="m 14.118757 51.145148 c -.632198 0 -1.145148 -.513026 -1.145148 -1.145149 c 0 -.632121 .51295 -1.145148 1.145148 -1.145148 c .632199 0 1.145149 .513027 1.145149 1.145148 c 0 .632123 -.51295 1.145149 -1.145149 1.145149 z"></path><path d="M 6.1451486 55.131953 C 5.51295 55.131953 5 54.618927 5 53.986804 c 0 -.632121 .51295 -1.145148 1.1451486 -1.145148 c .6321977 0 1.1451477 .513027 1.1451477 1.145148 c 0 .632123 -.51295 1.145149 -1.1451477 1.145149 z"></path><path d="m 10.131954 55.131953 c -.6321993 0 -1.1451493 -.513027 -1.1451493 -1.145149 c 0 -.632122 .51295 -1.145148 1.1451493 -1.145148 c .632197 0 1.145147 .513026 1.145147 1.145148 c 0 .632122 -.51295 1.145149 -1.145147 1.145149 z"></path><path d="M 6.1451486 59.118758 C 5.51295 59.118758 5 58.605732 5 57.973609 c 0 -.632121 .51295 -1.145148 1.1451486 -1.145148 c .6321977 0 1.1451477 .513027 1.1451477 1.145148 c 0 .632123 -.51295 1.145149 -1.1451477 1.145149 z"></path><path d="m 10.131954 59.118758 c -.6321993 0 -1.1451493 -.513027 -1.1451493 -1.145149 c 0 -.632122 .51295 -1.145148 1.1451493 -1.145148 c .632197 0 1.145147 .513026 1.145147 1.145148 c 0 .632122 -.51295 1.145149 -1.145147 1.145149 z"></path><path d="M 6.1451486 63.105562 C 5.51295 63.105562 5 62.592536 5 61.960413 c 0 -.63212 .51295 -1.145147 1.1451486 -1.145147 c .6321977 0 1.1451477 .513027 1.1451477 1.145147 c 0 .632123 -.51295 1.145149 -1.1451477 1.145149 z"></path><path d="m 10.131954 63.105562 c -.6321993 0 -1.1451493 -.513027 -1.1451493 -1.145149 c 0 -.632121 .51295 -1.145147 1.1451493 -1.145147 c .632197 0 1.145147 .513026 1.145147 1.145147 c 0 .632122 -.51295 1.145149 -1.145147 1.145149 z"></path><path d="M 6.1451486 67.092367 C 5.51295 67.092367 5 66.579341 5 65.947218 C 5 65.315097 5.51295 64.80207 6.1451486 64.80207 c .6321977 0 1.1451477 .513027 1.1451477 1.145148 c 0 .632123 -.51295 1.145149 -1.1451477 1.145149 z"></path><path d="m 10.131954 67.092367 c -.6321993 0 -1.1451493 -.513027 -1.1451493 -1.145149 c 0 -.632122 .51295 -1.145148 1.1451493 -1.145148 c .632197 0 1.145147 .513026 1.145147 1.145148 c 0 .632122 -.51295 1.145149 -1.145147 1.145149 z"></path><path d="m 14.118757 55.131953 c -.632198 0 -1.145148 -.513026 -1.145148 -1.145149 c 0 -.632121 .51295 -1.145148 1.145148 -1.145148 c .632199 0 1.145149 .513027 1.145149 1.145148 c 0 .632123 -.51295 1.145149 -1.145149 1.145149 z"></path><path d="m 14.118757 59.118758 c -.632198 0 -1.145148 -.513026 -1.145148 -1.145149 c 0 -.632121 .51295 -1.145148 1.145148 -1.145148 c .632199 0 1.145149 .513027 1.145149 1.145148 c 0 .632123 -.51295 1.145149 -1.145149 1.145149 z"></path><path d="m 14.118757 63.105562 c -.632198 0 -1.145148 -.513026 -1.145148 -1.145149 c 0 -.63212 .51295 -1.145147 1.145148 -1.145147 c .632199 0 1.145149 .513027 1.145149 1.145147 c 0 .632123 -.51295 1.145149 -1.145149 1.145149 z"></path><path d="m 14.118757 67.092367 c -.632198 0 -1.145148 -.513026 -1.145148 -1.145149 c 0 -.632121 .51295 -1.145148 1.145148 -1.145148 c .632199 0 1.145149 .513027 1.145149 1.145148 c 0 .632123 -.51295 1.145149 -1.145149 1.145149 z"></path><path d="m 57.97361 7.2902961 c -.632199 0 -1.145148 -.5130264 -1.145148 -1.1451487 c 0 -.6321214 .512949 -1.1451477 1.145148 -1.1451477 c .632198 0 1.145147 .5130263 1.145147 1.1451477 c 0 .6321223 -.512949 1.1451487 -1.145147 1.1451487 z"></path><path d="m 61.960414 7.2902959 c -.632199 0 -1.145148 -.5130264 -1.145148 -1.1451487 c 0 -.6321214 .512949 -1.1451477 1.145148 -1.1451477 c .632197 0 1.145148 .5130263 1.145148 1.1451477 c 0 .6321223 -.512951 1.1451487 -1.145148 1.1451487 z"></path><path d="m 57.97361 11.277101 c -.632199 0 -1.145148 -.513026 -1.145148 -1.145149 c 0 -.632121 .512949 -1.145148 1.145148 -1.145148 c .632198 0 1.145147 .513027 1.145147 1.145148 c 0 .632123 -.512949 1.145149 -1.145147 1.145149 z"></path><path d="m 61.960414 11.277101 c -.632199 0 -1.145148 -.513027 -1.145148 -1.145149 c 0 -.632122 .512949 -1.145148 1.145148 -1.145148 c .632197 0 1.145148 .513026 1.145148 1.145148 c 0 .632122 -.512951 1.145149 -1.145148 1.145149 z"></path><path d="m 57.97361 15.263906 c -.632199 0 -1.145148 -.513026 -1.145148 -1.145149 c 0 -.632121 .512949 -1.145148 1.145148 -1.145148 c .632198 0 1.145147 .513027 1.145147 1.145148 c 0 .632123 -.512949 1.145149 -1.145147 1.145149 z"></path><path d="m 61.960414 15.263906 c -.632199 0 -1.145148 -.513027 -1.145148 -1.145149 c 0 -.632122 .512949 -1.145148 1.145148 -1.145148 c .632197 0 1.145148 .513026 1.145148 1.145148 c 0 .632122 -.512951 1.145149 -1.145148 1.145149 z"></path><path d="m 65.947219 7.2902961 c -.632199 0 -1.145148 -.5130264 -1.145148 -1.1451487 c 0 -.6321214 .512949 -1.1451477 1.145148 -1.1451477 c .632197 0 1.145147 .5130263 1.145147 1.1451477 c 0 .6321223 -.51295 1.1451487 -1.145147 1.1451487 z"></path><path d="m 69.934023 7.2902959 c -.632198 0 -1.145147 -.5130264 -1.145147 -1.1451487 c 0 -.6321214 .51295 -1.1451477 1.145147 -1.1451477 c .632198 0 1.145148 .5130263 1.145148 1.1451477 c 0 .6321223 -.51295 1.1451487 -1.145148 1.1451487 z"></path><path d="m 65.947219 11.277101 c -.632199 0 -1.145148 -.513026 -1.145148 -1.145149 c 0 -.632121 .512949 -1.145148 1.145148 -1.145148 c .632197 0 1.145147 .513027 1.145147 1.145148 c 0 .632123 -.51295 1.145149 -1.145147 1.145149 z"></path><path d="m 69.934023 11.277101 c -.632198 0 -1.145147 -.513027 -1.145147 -1.145149 c 0 -.632122 .51295 -1.145148 1.145147 -1.145148 c .632198 0 1.145148 .513026 1.145148 1.145148 c 0 .632122 -.51295 1.145149 -1.145148 1.145149 z"></path><path d="m 65.947219 15.263906 c -.632199 0 -1.145148 -.513026 -1.145148 -1.145149 c 0 -.632121 .512949 -1.145148 1.145148 -1.145148 c .632197 0 1.145147 .513027 1.145147 1.145148 c 0 .632123 -.51295 1.145149 -1.145147 1.145149 z"></path><path d="m 69.934023 15.263906 c -.632198 0 -1.145147 -.513027 -1.145147 -1.145149 c 0 -.632122 .51295 -1.145148 1.145147 -1.145148 c .632198 0 1.145148 .513026 1.145148 1.145148 c 0 .632122 -.51295 1.145149 -1.145148 1.145149 z"></path><path d="m 73.920828 7.2902961 c -.632199 0 -1.145149 -.5130264 -1.145149 -1.1451487 c 0 -.6321214 .51295 -1.1451477 1.145149 -1.1451477 c .632198 0 1.145148 .5130263 1.145148 1.1451477 c 0 .6321223 -.51295 1.1451487 -1.145148 1.1451487 z"></path><path d="m 77.907632 7.2902959 c -.632198 0 -1.145148 -.5130264 -1.145148 -1.1451487 c 0 -.6321214 .51295 -1.1451477 1.145148 -1.1451477 c .632197 0 1.145148 .5130263 1.145148 1.1451477 c 0 .6321223 -.512951 1.1451487 -1.145148 1.1451487 z"></path><path d="m 73.920828 11.277101 c -.632199 0 -1.145149 -.513026 -1.145149 -1.145149 c 0 -.632121 .51295 -1.145148 1.145149 -1.145148 c .632198 0 1.145148 .513027 1.145148 1.145148 c 0 .632123 -.51295 1.145149 -1.145148 1.145149 z"></path><path d="m 77.907632 11.277101 c -.632198 0 -1.145148 -.513027 -1.145148 -1.145149 c 0 -.632122 .51295 -1.145148 1.145148 -1.145148 c .632197 0 1.145148 .513026 1.145148 1.145148 c 0 .632122 -.512951 1.145149 -1.145148 1.145149 z"></path><path d="m 73.920828 15.263906 c -.632199 0 -1.145149 -.513026 -1.145149 -1.145149 c 0 -.632121 .51295 -1.145148 1.145149 -1.145148 c .632198 0 1.145148 .513027 1.145148 1.145148 c 0 .632123 -.51295 1.145149 -1.145148 1.145149 z"></path><path d="m 77.907632 15.263906 c -.632198 0 -1.145148 -.513027 -1.145148 -1.145149 c 0 -.632122 .51295 -1.145148 1.145148 -1.145148 c .632197 0 1.145148 .513026 1.145148 1.145148 c 0 .632122 -.512951 1.145149 -1.145148 1.145149 z"></path><path d="m 81.894436 7.2902961 c -.632197 0 -1.145146 -.5130264 -1.145146 -1.1451487 c 0 -.6321214 .51295 -1.1451477 1.145146 -1.1451477 c .632198 0 1.145149 .5130263 1.145149 1.1451477 c 0 .6321223 -.512951 1.1451487 -1.145149 1.1451487 z"></path><path d="m 81.894436 11.277101 c -.632197 0 -1.145146 -.513026 -1.145146 -1.145149 c 0 -.632121 .51295 -1.145148 1.145146 -1.145148 c .632198 0 1.145149 .513027 1.145149 1.145148 c 0 .632123 -.512951 1.145149 -1.145149 1.145149 z"></path><path d="m 81.894436 15.263906 c -.632197 0 -1.145146 -.513026 -1.145146 -1.145149 c 0 -.632121 .51295 -1.145148 1.145146 -1.145148 c .632198 0 1.145149 .513027 1.145149 1.145148 c 0 .632123 -.512951 1.145149 -1.145149 1.145149 z"></path><path d="m 85.881242 7.2902959 c -.632198 0 -1.145149 -.5130264 -1.145149 -1.1451487 c 0 -.6321214 .512951 -1.1451477 1.145149 -1.1451477 c .632198 0 1.145148 .5130263 1.145148 1.1451477 c 0 .6321223 -.51295 1.1451487 -1.145148 1.1451487 z"></path><path d="m 85.881242 11.277101 c -.632198 0 -1.145149 -.513027 -1.145149 -1.145149 c 0 -.632122 .512951 -1.145148 1.145149 -1.145148 c .632198 0 1.145148 .513026 1.145148 1.145148 c 0 .632122 -.51295 1.145149 -1.145148 1.145149 z"></path><path d="m 85.881242 15.263906 c -.632198 0 -1.145149 -.513027 -1.145149 -1.145149 c 0 -.632122 .512951 -1.145148 1.145149 -1.145148 c .632198 0 1.145148 .513026 1.145148 1.145148 c 0 .632122 -.51295 1.145149 -1.145148 1.145149 z"></path><path d="m 89.868046 7.2902961 c -.632198 0 -1.145148 -.5130264 -1.145148 -1.1451487 c 0 -.6321214 .512949 -1.1451477 1.145148 -1.1451477 c .632198 0 1.145148 .5130263 1.145148 1.1451477 c 0 .6321223 -.51295 1.1451487 -1.145148 1.1451487 z"></path><path d="m 93.854851 7.2902959 c -.632198 0 -1.145146 -.5130264 -1.145146 -1.1451487 c -.000001 -.6321214 .512948 -1.1451477 1.145147 -1.1451477 c .632197 0 1.145148 .5130263 1.145148 1.1451477 c 0 .6321223 -.512951 1.1451487 -1.145148 1.1451487 z"></path><path d="m 89.868046 11.277101 c -.632198 0 -1.145148 -.513026 -1.145148 -1.145149 c 0 -.632121 .512949 -1.145148 1.145148 -1.145148 c .632198 0 1.145148 .513027 1.145148 1.145148 c 0 .632123 -.51295 1.145149 -1.145148 1.145149 z"></path><path d="m 93.854851 11.277101 c -.632198 0 -1.145146 -.513027 -1.145146 -1.145149 c -.000001 -.632122 .512948 -1.145148 1.145147 -1.145148 c .632197 0 1.145148 .513026 1.145148 1.145148 c 0 .632122 -.512951 1.145149 -1.145148 1.145149 z"></path><path d="m 89.868046 15.263906 c -.632198 0 -1.145148 -.513026 -1.145148 -1.145149 c 0 -.632121 .512949 -1.145148 1.145148 -1.145148 c .632198 0 1.145148 .513027 1.145148 1.145148 c 0 .632123 -.51295 1.145149 -1.145148 1.145149 z"></path><path d="m 93.854851 15.263906 c -.632198 0 -1.145146 -.513027 -1.145146 -1.145149 c -.000001 -.632122 .512948 -1.145148 1.145147 -1.145148 c .632197 0 1.145148 .513026 1.145148 1.145148 c 0 .632122 -.512951 1.145149 -1.145148 1.145149 z"></path><path d="M 6.1451486 71.079172 C 5.51295 71.079172 5 70.566146 5 69.934023 c 0 -.632121 .51295 -1.145148 1.1451486 -1.145148 c .6321977 0 1.1451477 .513027 1.1451477 1.145148 c 0 .632123 -.51295 1.145149 -1.1451477 1.145149 z"></path><path d="m 10.131954 71.079172 c -.6321993 0 -1.1451493 -.513027 -1.1451493 -1.145149 c 0 -.632122 .51295 -1.145148 1.1451493 -1.145148 c .632197 0 1.145147 .513026 1.145147 1.145148 c 0 .632122 -.51295 1.145149 -1.145147 1.145149 z"></path><path d="M 6.1451486 75.065976 C 5.51295 75.065976 5 74.55295 5 73.920828 C 5 73.288707 5.51295 72.77568 6.1451486 72.77568 c .6321977 0 1.1451477 .513027 1.1451477 1.145148 c 0 .632122 -.51295 1.145148 -1.1451477 1.145148 z"></path><path d="m 10.131954 75.065976 c -.6321993 0 -1.1451493 -.513027 -1.1451493 -1.145148 c 0 -.632122 .51295 -1.145148 1.1451493 -1.145148 c .632197 0 1.145147 .513026 1.145147 1.145148 c 0 .632121 -.51295 1.145148 -1.145147 1.145148 z"></path><path d="M 6.1451486 79.052781 C 5.51295 79.052781 5 78.539755 5 77.907632 c 0 -.632121 .51295 -1.145148 1.1451486 -1.145148 c .6321977 0 1.1451477 .513027 1.1451477 1.145148 c 0 .632123 -.51295 1.145149 -1.1451477 1.145149 z"></path><path d="m 10.131954 79.052781 c -.6321993 0 -1.1451493 -.513027 -1.1451493 -1.145149 c 0 -.632122 .51295 -1.145148 1.1451493 -1.145148 c .632197 0 1.145147 .513026 1.145147 1.145148 c 0 .632122 -.51295 1.145149 -1.145147 1.145149 z"></path><path d="m 14.118757 71.079172 c -.632198 0 -1.145148 -.513026 -1.145148 -1.145149 c 0 -.632121 .51295 -1.145148 1.145148 -1.145148 c .632199 0 1.145149 .513027 1.145149 1.145148 c 0 .632123 -.51295 1.145149 -1.145149 1.145149 z"></path><path d="m 14.118757 75.065976 c -.632198 0 -1.145148 -.513026 -1.145148 -1.145148 c 0 -.632121 .51295 -1.145148 1.145148 -1.145148 c .632199 0 1.145149 .513027 1.145149 1.145148 c 0 .632122 -.51295 1.145148 -1.145149 1.145148 z"></path><path d="m 14.118757 79.052781 c -.632198 0 -1.145148 -.513026 -1.145148 -1.145149 c 0 -.632121 .51295 -1.145148 1.145148 -1.145148 c .632199 0 1.145149 .513027 1.145149 1.145148 c 0 .632123 -.51295 1.145149 -1.145149 1.145149 z"></path><path d="M 6.1451486 83.039586 C 5.51295 83.039586 5 82.52656 5 81.894437 c 0 -.632121 .51295 -1.145148 1.1451486 -1.145148 c .6321977 0 1.1451477 .513027 1.1451477 1.145148 c 0 .632123 -.51295 1.145149 -1.1451477 1.145149 z"></path><path d="m 10.131954 83.039586 c -.6321993 0 -1.1451493 -.513027 -1.1451493 -1.145149 c 0 -.632122 .51295 -1.145148 1.1451493 -1.145148 c .632197 0 1.145147 .513026 1.145147 1.145148 c 0 .632122 -.51295 1.145149 -1.145147 1.145149 z"></path><path d="M 6.1451486 87.026391 C 5.51295 87.026391 5 86.513365 5 85.881242 c 0 -.632121 .51295 -1.145148 1.1451486 -1.145148 c .6321977 0 1.1451477 .513027 1.1451477 1.145148 c 0 .632123 -.51295 1.145149 -1.1451477 1.145149 z"></path><path d="m 10.131954 87.026391 c -.6321993 0 -1.1451493 -.513027 -1.1451493 -1.145149 c 0 -.632122 .51295 -1.145148 1.1451493 -1.145148 c .632197 0 1.145147 .513026 1.145147 1.145148 c 0 .632122 -.51295 1.145149 -1.145147 1.145149 z"></path><path d="M 6.1451486 91.013195 C 5.51295 91.013195 5 90.500169 5 89.868046 c 0 -.63212 .51295 -1.145147 1.1451486 -1.145147 c .6321977 0 1.1451477 .513027 1.1451477 1.145147 c 0 .632123 -.51295 1.145149 -1.1451477 1.145149 z"></path><path d="m 10.131954 91.013195 c -.6321993 0 -1.1451493 -.513027 -1.1451493 -1.145149 c 0 -.632121 .51295 -1.145147 1.1451493 -1.145147 c .632197 0 1.145147 .513026 1.145147 1.145147 c 0 .632122 -.51295 1.145149 -1.145147 1.145149 z"></path><path d="M 6.1451486 95 C 5.51295 95 5 94.486974 5 93.854851 C 5 93.22273 5.51295 92.709703 6.1451486 92.709703 c .6321977 0 1.1451477 .513027 1.1451477 1.145148 C 7.2902963 94.486974 6.7773463 95 6.1451486 95 Z"></path><path d="m 10.131954 95 c -.6321993 0 -1.1451493 -.513027 -1.1451493 -1.145149 c 0 -.632122 .51295 -1.145148 1.1451493 -1.145148 c .632197 0 1.145147 .513026 1.145147 1.145148 c 0 .632122 -.51295 1.145149 -1.145147 1.145149 z"></path><path d="m 14.118757 83.039586 c -.632198 0 -1.145148 -.513026 -1.145148 -1.145149 c 0 -.632121 .51295 -1.145148 1.145148 -1.145148 c .632199 0 1.145149 .513027 1.145149 1.145148 c 0 .632123 -.51295 1.145149 -1.145149 1.145149 z"></path><path d="m 14.118757 87.026391 c -.632198 0 -1.145148 -.513026 -1.145148 -1.145149 c 0 -.632121 .51295 -1.145148 1.145148 -1.145148 c .632199 0 1.145149 .513027 1.145149 1.145148 c 0 .632123 -.51295 1.145149 -1.145149 1.145149 z"></path><path d="m 14.118757 91.013195 c -.632198 0 -1.145148 -.513026 -1.145148 -1.145149 c 0 -.63212 .51295 -1.145147 1.145148 -1.145147 c .632199 0 1.145149 .513027 1.145149 1.145147 c 0 .632123 -.51295 1.145149 -1.145149 1.145149 z"></path><path d="m 14.118757 95 c -.632198 0 -1.145148 -.513026 -1.145148 -1.145149 c 0 -.632121 .51295 -1.145148 1.145148 -1.145148 c .632199 0 1.145149 .513027 1.145149 1.145148 c 0 .632123 -.51295 1.145149 -1.145149 1.145149 z"></path><path d="M 93.85485 92.709703 C 94.487048 92.709703 95 93.222729 95 93.854852 C 95 94.486973 94.487048 95 93.85485 95 c -.632198 0 -1.145148 -.513027 -1.145148 -1.145148 c 0 -.632123 .51295 -1.145149 1.145148 -1.145149 z"></path><path d="m 89.868045 92.709703 c .632199 0 1.145149 .513027 1.145149 1.145149 c 0 .632122 -.51295 1.145148 -1.145149 1.145148 c -.632197 0 -1.145147 -.513026 -1.145147 -1.145148 c 0 -.632122 .512951 -1.145149 1.145147 -1.145149 z"></path><path d="m 93.85485 88.722899 c .632198 0 1.14515 .513026 1.14515 1.145148 c 0 .632121 -.512952 1.145148 -1.14515 1.145148 c -.632198 0 -1.145148 -.513027 -1.145148 -1.145148 c 0 -.632122 .51295 -1.145148 1.145148 -1.145148 z"></path><path d="m 89.868045 88.722899 c .632199 0 1.145149 .513027 1.145149 1.145148 c 0 .632122 -.51295 1.145148 -1.145149 1.145148 c -.632197 0 -1.145147 -.513026 -1.145147 -1.145148 c 0 -.632121 .512951 -1.145148 1.145147 -1.145148 z"></path><path d="m 93.85485 84.736094 c .632198 0 1.14515 .513026 1.14515 1.145149 c 0 .632121 -.512952 1.145148 -1.14515 1.145148 c -.632198 0 -1.145148 -.513027 -1.145148 -1.145148 c 0 -.632123 .51295 -1.145149 1.145148 -1.145149 z"></path><path d="m 89.868045 84.736094 c .632199 0 1.145149 .513027 1.145149 1.145149 c 0 .632122 -.51295 1.145148 -1.145149 1.145148 c -.632197 0 -1.145147 -.513026 -1.145147 -1.145148 c 0 -.632122 .512951 -1.145149 1.145147 -1.145149 z"></path><path d="m 93.85485 80.749289 c .632198 0 1.14515 .513026 1.14515 1.145149 c 0 .632121 -.512952 1.145148 -1.14515 1.145148 c -.632198 0 -1.145148 -.513027 -1.145148 -1.145148 c 0 -.632123 .51295 -1.145149 1.145148 -1.145149 z"></path><path d="m 89.868045 80.749289 c .632199 0 1.145149 .513027 1.145149 1.145149 c 0 .632122 -.51295 1.145148 -1.145149 1.145148 c -.632197 0 -1.145147 -.513026 -1.145147 -1.145148 c 0 -.632122 .512951 -1.145149 1.145147 -1.145149 z"></path><path d="m 85.88124 92.709703 c .632199 0 1.145148 .513026 1.145148 1.145149 c 0 .632121 -.512949 1.145148 -1.145148 1.145148 c -.632196 0 -1.145147 -.513027 -1.145147 -1.145148 c 0 -.632123 .512951 -1.145149 1.145147 -1.145149 z"></path><path d="m 81.894435 92.709703 c .632199 0 1.145147 .513027 1.145147 1.145149 C 83.039583 94.486974 82.526634 95 81.894435 95 c -.632195 0 -1.145146 -.513026 -1.145146 -1.145148 c 0 -.632122 .512951 -1.145149 1.145146 -1.145149 z"></path><path d="m 85.88124 88.722899 c .632199 0 1.145148 .513026 1.145148 1.145148 c 0 .632121 -.512949 1.145148 -1.145148 1.145148 c -.632196 0 -1.145147 -.513027 -1.145147 -1.145148 c 0 -.632122 .512951 -1.145148 1.145147 -1.145148 z"></path><path d="m 81.894435 88.722899 c .632199 0 1.145147 .513027 1.145147 1.145148 c .000001 .632122 -.512948 1.145148 -1.145147 1.145148 c -.632195 0 -1.145146 -.513026 -1.145146 -1.145148 c 0 -.632121 .512951 -1.145148 1.145146 -1.145148 z"></path><path d="m 85.88124 84.736094 c .632199 0 1.145148 .513026 1.145148 1.145149 c 0 .632121 -.512949 1.145148 -1.145148 1.145148 c -.632196 0 -1.145147 -.513027 -1.145147 -1.145148 c 0 -.632123 .512951 -1.145149 1.145147 -1.145149 z"></path><path d="m 81.894435 84.736094 c .632199 0 1.145147 .513027 1.145147 1.145149 c .000001 .632122 -.512948 1.145148 -1.145147 1.145148 c -.632195 0 -1.145146 -.513026 -1.145146 -1.145148 c 0 -.632122 .512951 -1.145149 1.145146 -1.145149 z"></path><path d="m 85.88124 80.749289 c .632199 0 1.145148 .513026 1.145148 1.145149 c 0 .632121 -.512949 1.145148 -1.145148 1.145148 c -.632196 0 -1.145147 -.513027 -1.145147 -1.145148 c 0 -.632123 .512951 -1.145149 1.145147 -1.145149 z"></path><path d="m 77.907632 92.709703 c .632197 0 1.145149 .513026 1.145149 1.145149 c 0 .632121 -.512952 1.145148 -1.145149 1.145148 c -.632198 0 -1.145147 -.513027 -1.145147 -1.145148 c 0 -.632123 .51295 -1.145149 1.145147 -1.145149 z"></path><path d="m 73.920828 92.709703 c .632198 0 1.145148 .513027 1.145148 1.145149 c 0 .632122 -.51295 1.145148 -1.145148 1.145148 c -.632199 0 -1.145149 -.513026 -1.145149 -1.145148 c 0 -.632122 .51295 -1.145149 1.145149 -1.145149 z"></path><path d="m 77.907632 88.722899 c .632197 0 1.145149 .513026 1.145149 1.145148 c 0 .632121 -.512952 1.145148 -1.145149 1.145148 c -.632198 0 -1.145147 -.513027 -1.145147 -1.145148 c 0 -.632122 .51295 -1.145148 1.145147 -1.145148 z"></path><path d="m 73.920828 88.722899 c .632198 0 1.145148 .513027 1.145148 1.145148 c 0 .632122 -.51295 1.145148 -1.145148 1.145148 c -.632199 0 -1.145149 -.513026 -1.145149 -1.145148 c 0 -.632121 .51295 -1.145148 1.145149 -1.145148 z"></path><path d="m 77.907632 84.736094 c .632197 0 1.145149 .513026 1.145149 1.145149 c 0 .632121 -.512952 1.145148 -1.145149 1.145148 c -.632198 0 -1.145147 -.513027 -1.145147 -1.145148 c 0 -.632123 .51295 -1.145149 1.145147 -1.145149 z"></path><path d="m 73.920828 84.736094 c .632198 0 1.145148 .513027 1.145148 1.145149 c 0 .632122 -.51295 1.145148 -1.145148 1.145148 c -.632199 0 -1.145149 -.513026 -1.145149 -1.145148 c 0 -.632122 .51295 -1.145149 1.145149 -1.145149 z"></path><path d="m 69.934022 92.709703 c .632198 0 1.145149 .513026 1.145149 1.145149 c 0 .632121 -.512951 1.145148 -1.145149 1.145148 c -.632197 0 -1.145148 -.513027 -1.145148 -1.145148 c 0 -.632123 .512951 -1.145149 1.145148 -1.145149 z"></path><path d="m 69.934022 88.722899 c .632198 0 1.145149 .513026 1.145149 1.145148 c 0 .632121 -.512951 1.145148 -1.145149 1.145148 c -.632197 0 -1.145148 -.513027 -1.145148 -1.145148 c 0 -.632122 .512951 -1.145148 1.145148 -1.145148 z"></path><path d="m 69.934022 84.736094 c .632198 0 1.145149 .513026 1.145149 1.145149 c 0 .632121 -.512951 1.145148 -1.145149 1.145148 c -.632197 0 -1.145148 -.513027 -1.145148 -1.145148 c 0 -.632123 .512951 -1.145149 1.145148 -1.145149 z"></path><path d="m 93.85485 76.762484 c .632198 0 1.14515 .513026 1.14515 1.145149 c 0 .632121 -.512952 1.145148 -1.14515 1.145148 c -.632198 0 -1.145148 -.513027 -1.145148 -1.145148 c 0 -.632123 .51295 -1.145149 1.145148 -1.145149 z"></path><path d="m 89.868045 76.762484 c .632199 0 1.145149 .513027 1.145149 1.145149 c 0 .632122 -.51295 1.145148 -1.145149 1.145148 c -.632197 0 -1.145147 -.513026 -1.145147 -1.145148 c 0 -.632122 .512951 -1.145149 1.145147 -1.145149 z"></path><path d="m 93.85485 72.77568 c .632198 0 1.14515 .513026 1.14515 1.145149 c 0 .63212 -.512952 1.145147 -1.14515 1.145147 c -.632198 0 -1.145148 -.513027 -1.145148 -1.145147 c 0 -.632123 .51295 -1.145149 1.145148 -1.145149 z"></path><path d="m 89.868045 72.77568 c .632199 0 1.145149 .513027 1.145149 1.145149 c 0 .632121 -.51295 1.145147 -1.145149 1.145147 c -.632197 0 -1.145147 -.513026 -1.145147 -1.145147 c 0 -.632122 .512951 -1.145149 1.145147 -1.145149 z"></path><path d="m 93.85485 68.788875 c .632198 0 1.14515 .513026 1.14515 1.145149 c 0 .632121 -.512952 1.145148 -1.14515 1.145148 c -.632198 0 -1.145148 -.513027 -1.145148 -1.145148 c 0 -.632123 .51295 -1.145149 1.145148 -1.145149 z"></path><path d="m 89.868045 68.788875 c .632199 0 1.145149 .513027 1.145149 1.145149 c 0 .632122 -.51295 1.145148 -1.145149 1.145148 c -.632197 0 -1.145147 -.513026 -1.145147 -1.145148 c 0 -.632122 .512951 -1.145149 1.145147 -1.145149 z"></path><path d="m 93.85485 64.80207 c .632198 0 1.14515 .513026 1.14515 1.145149 c 0 .632121 -.512952 1.145148 -1.14515 1.145148 c -.632198 0 -1.145148 -.513027 -1.145148 -1.145148 c 0 -.632123 .51295 -1.145149 1.145148 -1.145149 z"></path><path d="m 89.868045 64.80207 c .632199 0 1.145149 .513027 1.145149 1.145149 c 0 .632122 -.51295 1.145148 -1.145149 1.145148 c -.632197 0 -1.145147 -.513026 -1.145147 -1.145148 c 0 -.632122 .512951 -1.145149 1.145147 -1.145149 z"></path><path d="m 85.88124 76.762484 c .632199 0 1.145148 .513026 1.145148 1.145149 c 0 .632121 -.512949 1.145148 -1.145148 1.145148 c -.632196 0 -1.145147 -.513027 -1.145147 -1.145148 c 0 -.632123 .512951 -1.145149 1.145147 -1.145149 z"></path><path d="m 85.88124 72.77568 c .632199 0 1.145148 .513026 1.145148 1.145149 c 0 .63212 -.512949 1.145147 -1.145148 1.145147 c -.632196 0 -1.145147 -.513027 -1.145147 -1.145147 c 0 -.632123 .512951 -1.145149 1.145147 -1.145149 z"></path><path d="m 85.88124 68.788875 c .632199 0 1.145148 .513026 1.145148 1.145149 c 0 .632121 -.512949 1.145148 -1.145148 1.145148 c -.632196 0 -1.145147 -.513027 -1.145147 -1.145148 c 0 -.632123 .512951 -1.145149 1.145147 -1.145149 z"></path><path d="m 85.88124 64.80207 c .632199 0 1.145148 .513026 1.145148 1.145149 c 0 .632121 -.512949 1.145148 -1.145148 1.145148 c -.632196 0 -1.145147 -.513027 -1.145147 -1.145148 c 0 -.632123 .512951 -1.145149 1.145147 -1.145149 z"></path><path d="m 65.947218 92.709703 c .632197 0 1.145147 .513027 1.145147 1.145149 c 0 .632122 -.51295 1.145148 -1.145147 1.145148 c -.632198 0 -1.145148 -.513026 -1.145148 -1.145148 c 0 -.632122 .51295 -1.145149 1.145148 -1.145149 z"></path><path d="m 65.947218 88.722899 c .632197 0 1.145147 .513027 1.145147 1.145148 c 0 .632122 -.51295 1.145148 -1.145147 1.145148 c -.632198 0 -1.145148 -.513026 -1.145148 -1.145148 c 0 -.632121 .51295 -1.145148 1.145148 -1.145148 z"></path><path d="m 65.947218 84.736094 c .632197 0 1.145147 .513027 1.145147 1.145149 c 0 .632122 -.51295 1.145148 -1.145147 1.145148 c -.632198 0 -1.145148 -.513026 -1.145148 -1.145148 c 0 -.632122 .51295 -1.145149 1.145148 -1.145149 z"></path><path d="m 61.960414 92.709703 c .632196 0 1.145147 .513026 1.145147 1.145149 c 0 .632121 -.512948 1.145148 -1.145147 1.145148 c -.632199 0 -1.145148 -.513027 -1.145148 -1.145148 c 0 -.632123 .51295 -1.145149 1.145148 -1.145149 z"></path><path d="m 57.973609 92.709703 c .632198 0 1.145146 .513027 1.145146 1.145149 c 0 .632122 -.512949 1.145148 -1.145148 1.145148 c -.632196 0 -1.145148 -.513026 -1.145148 -1.145148 c 0 -.632122 .512952 -1.145149 1.145148 -1.145149 z"></path><path d="m 61.960414 88.722899 c .632196 0 1.145147 .513026 1.145147 1.145148 c 0 .632121 -.512948 1.145148 -1.145147 1.145148 c -.632199 0 -1.145148 -.513027 -1.145148 -1.145148 c 0 -.632122 .51295 -1.145148 1.145148 -1.145148 z"></path><path d="m 57.973609 88.722899 c .632198 0 1.145146 .513027 1.145146 1.145148 c 0 .632122 -.512949 1.145148 -1.145148 1.145148 c -.632196 0 -1.145148 -.513026 -1.145148 -1.145148 c 0 -.632121 .512952 -1.145148 1.145148 -1.145148 z"></path><path d="m 61.960414 84.736094 c .632196 0 1.145147 .513026 1.145147 1.145149 c 0 .632121 -.512948 1.145148 -1.145147 1.145148 c -.632199 0 -1.145148 -.513027 -1.145148 -1.145148 c 0 -.632123 .51295 -1.145149 1.145148 -1.145149 z"></path><path d="m 57.973609 84.736094 c .632198 0 1.145146 .513027 1.145146 1.145149 c 0 .632122 -.512949 1.145148 -1.145148 1.145148 c -.632196 0 -1.145148 -.513026 -1.145148 -1.145148 c 0 -.632122 .512952 -1.145149 1.145148 -1.145149 z"></path><path d="m 53.986803 92.709703 c .632199 0 1.145148 .513026 1.145148 1.145149 c 0 .632121 -.512949 1.145148 -1.145148 1.145148 c -.632196 0 -1.145147 -.513027 -1.145147 -1.145148 c 0 -.632123 .51295 -1.145149 1.145147 -1.145149 z"></path><path d="m 50 92.709703 c .632196 0 1.145147 .513027 1.145147 1.145149 C 51.145147 94.486974 50.632196 95 50 95 c -.632199 0 -1.145148 -.513026 -1.145148 -1.145148 c 0 -.632122 .51295 -1.145149 1.145148 -1.145149 z"></path><path d="m 53.986803 88.722899 c .632199 0 1.145148 .513026 1.145148 1.145148 c 0 .632121 -.512949 1.145148 -1.145148 1.145148 c -.632196 0 -1.145147 -.513027 -1.145147 -1.145148 c 0 -.632122 .51295 -1.145148 1.145147 -1.145148 z"></path><path d="m 50 88.722899 c .632196 0 1.145147 .513027 1.145147 1.145148 c 0 .632122 -.512951 1.145148 -1.145147 1.145148 c -.632199 0 -1.145148 -.513026 -1.145148 -1.145148 c 0 -.632121 .51295 -1.145148 1.145148 -1.145148 z"></path><path d="m 53.986803 84.736094 c .632199 0 1.145148 .513026 1.145148 1.145149 c 0 .632121 -.512949 1.145148 -1.145148 1.145148 c -.632196 0 -1.145147 -.513027 -1.145147 -1.145148 c 0 -.632123 .51295 -1.145149 1.145147 -1.145149 z"></path><path d="m 50 84.736094 c .632196 0 1.145147 .513027 1.145147 1.145149 c 0 .632122 -.512951 1.145148 -1.145147 1.145148 c -.632199 0 -1.145148 -.513026 -1.145148 -1.145148 c 0 -.632122 .51295 -1.145149 1.145148 -1.145149 z"></path><path d="m 46.013195 92.709703 c .632198 0 1.145148 .513026 1.145148 1.145149 c 0 .632121 -.51295 1.145148 -1.145148 1.145148 c -.632198 0 -1.145148 -.513027 -1.145148 -1.145148 c 0 -.632123 .51295 -1.145149 1.145148 -1.145149 z"></path><path d="m 46.013195 88.722899 c .632198 0 1.145148 .513026 1.145148 1.145148 c 0 .632121 -.51295 1.145148 -1.145148 1.145148 c -.632198 0 -1.145148 -.513027 -1.145148 -1.145148 c 0 -.632122 .51295 -1.145148 1.145148 -1.145148 z"></path><path d="m 46.013195 84.736094 c .632198 0 1.145148 .513026 1.145148 1.145149 c 0 .632121 -.51295 1.145148 -1.145148 1.145148 c -.632198 0 -1.145148 -.513027 -1.145148 -1.145148 c 0 -.632123 .51295 -1.145149 1.145148 -1.145149 z"></path><path d="m 93.85485 60.815266 c .632198 0 1.14515 .513026 1.14515 1.145148 c 0 .632121 -.512952 1.145148 -1.14515 1.145148 c -.632198 0 -1.145148 -.513027 -1.145148 -1.145148 c 0 -.632122 .51295 -1.145148 1.145148 -1.145148 z"></path><path d="m 89.868045 60.815266 c .632199 0 1.145149 .513027 1.145149 1.145148 c 0 .632122 -.51295 1.145148 -1.145149 1.145148 c -.632197 0 -1.145147 -.513026 -1.145147 -1.145148 c 0 -.632121 .512951 -1.145148 1.145147 -1.145148 z"></path><path d="m 93.85485 56.828461 c .632198 0 1.14515 .513026 1.14515 1.145149 c 0 .632121 -.512952 1.145148 -1.14515 1.145148 c -.632198 0 -1.145148 -.513027 -1.145148 -1.145148 c 0 -.632123 .51295 -1.145149 1.145148 -1.145149 z"></path><path d="m 89.868045 56.828461 c .632199 0 1.145149 .513027 1.145149 1.145149 c 0 .632122 -.51295 1.145148 -1.145149 1.145148 c -.632197 0 -1.145147 -.513026 -1.145147 -1.145148 c 0 -.632122 .512951 -1.145149 1.145147 -1.145149 z"></path><path d="m 93.85485 52.841656 c .632198 0 1.14515 .513026 1.14515 1.145149 c 0 .632121 -.512952 1.145148 -1.14515 1.145148 c -.632198 0 -1.145148 -.513027 -1.145148 -1.145148 c 0 -.632123 .51295 -1.145149 1.145148 -1.145149 z"></path><path d="m 89.868045 52.841656 c .632199 0 1.145149 .513027 1.145149 1.145149 c 0 .632122 -.51295 1.145148 -1.145149 1.145148 c -.632197 0 -1.145147 -.513026 -1.145147 -1.145148 c 0 -.632122 .512951 -1.145149 1.145147 -1.145149 z"></path><path d="M 93.85485 48.854851 C 94.487048 48.854851 95 49.367877 95 50 c 0 .632121 -.512952 1.145148 -1.14515 1.145148 c -.632198 0 -1.145148 -.513027 -1.145148 -1.145148 c 0 -.632123 .51295 -1.145149 1.145148 -1.145149 z"></path><path d="m 89.868045 48.854851 c .632199 0 1.145149 .513027 1.145149 1.145149 c 0 .632122 -.51295 1.145148 -1.145149 1.145148 c -.632197 0 -1.145147 -.513026 -1.145147 -1.145148 c 0 -.632122 .512951 -1.145149 1.145147 -1.145149 z"></path><path d="m 85.88124 60.815266 c .632199 0 1.145148 .513026 1.145148 1.145148 c 0 .632121 -.512949 1.145148 -1.145148 1.145148 c -.632196 0 -1.145147 -.513027 -1.145147 -1.145148 c 0 -.632122 .512951 -1.145148 1.145147 -1.145148 z"></path><path d="m 85.88124 56.828461 c .632199 0 1.145148 .513026 1.145148 1.145149 c 0 .632121 -.512949 1.145148 -1.145148 1.145148 c -.632196 0 -1.145147 -.513027 -1.145147 -1.145148 c 0 -.632123 .512951 -1.145149 1.145147 -1.145149 z"></path><path d="m 85.88124 52.841656 c .632199 0 1.145148 .513026 1.145148 1.145149 c 0 .632121 -.512949 1.145148 -1.145148 1.145148 c -.632196 0 -1.145147 -.513027 -1.145147 -1.145148 c 0 -.632123 .512951 -1.145149 1.145147 -1.145149 z"></path><path d="m 85.88124 48.854851 c .632199 0 1.145148 .513026 1.145148 1.145149 c 0 .632121 -.512949 1.145148 -1.145148 1.145148 c -.632196 0 -1.145147 -.513027 -1.145147 -1.145148 c 0 -.632123 .512951 -1.145149 1.145147 -1.145149 z"></path><path d="m 93.85485 44.868047 c .632198 0 1.14515 .513026 1.14515 1.145149 c 0 .63212 -.512952 1.145147 -1.14515 1.145147 c -.632198 0 -1.145148 -.513027 -1.145148 -1.145147 c 0 -.632123 .51295 -1.145149 1.145148 -1.145149 z"></path><path d="m 89.868045 44.868047 c .632199 0 1.145149 .513027 1.145149 1.145149 c 0 .632121 -.51295 1.145147 -1.145149 1.145147 c -.632197 0 -1.145147 -.513026 -1.145147 -1.145147 c 0 -.632122 .512951 -1.145149 1.145147 -1.145149 z"></path><path d="m 93.85485 40.881242 c .632198 0 1.14515 .513026 1.14515 1.145149 c 0 .632121 -.512952 1.145148 -1.14515 1.145148 c -.632198 0 -1.145148 -.513027 -1.145148 -1.145148 c 0 -.632123 .51295 -1.145149 1.145148 -1.145149 z"></path><path d="m 89.868045 40.881242 c .632199 0 1.145149 .513027 1.145149 1.145149 c 0 .632122 -.51295 1.145148 -1.145149 1.145148 c -.632197 0 -1.145147 -.513026 -1.145147 -1.145148 c 0 -.632122 .512951 -1.145149 1.145147 -1.145149 z"></path><path d="m 93.85485 36.894437 c .632198 0 1.14515 .513026 1.14515 1.145149 c 0 .632121 -.512952 1.145148 -1.14515 1.145148 c -.632198 0 -1.145148 -.513027 -1.145148 -1.145148 c 0 -.632123 .51295 -1.145149 1.145148 -1.145149 z"></path><path d="m 89.868045 36.894437 c .632199 0 1.145149 .513027 1.145149 1.145149 c 0 .632122 -.51295 1.145148 -1.145149 1.145148 c -.632197 0 -1.145147 -.513026 -1.145147 -1.145148 c 0 -.632122 .512951 -1.145149 1.145147 -1.145149 z"></path><path d="m 93.85485 32.907633 c .632198 0 1.14515 .513026 1.14515 1.145148 c 0 .632121 -.512952 1.145148 -1.14515 1.145148 c -.632198 0 -1.145148 -.513027 -1.145148 -1.145148 c 0 -.632122 .51295 -1.145148 1.145148 -1.145148 z"></path><path d="m 89.868045 32.907633 c .632199 0 1.145149 .513027 1.145149 1.145148 c 0 .632122 -.51295 1.145148 -1.145149 1.145148 c -.632197 0 -1.145147 -.513026 -1.145147 -1.145148 c 0 -.632121 .512951 -1.145148 1.145147 -1.145148 z"></path><path d="m 85.88124 44.868047 c .632199 0 1.145148 .513026 1.145148 1.145149 c 0 .63212 -.512949 1.145147 -1.145148 1.145147 c -.632196 0 -1.145147 -.513027 -1.145147 -1.145147 c 0 -.632123 .512951 -1.145149 1.145147 -1.145149 z"></path><path d="m 85.88124 40.881242 c .632199 0 1.145148 .513026 1.145148 1.145149 c 0 .632121 -.512949 1.145148 -1.145148 1.145148 c -.632196 0 -1.145147 -.513027 -1.145147 -1.145148 c 0 -.632123 .512951 -1.145149 1.145147 -1.145149 z"></path><path d="m 85.88124 36.894437 c .632199 0 1.145148 .513026 1.145148 1.145149 c 0 .632121 -.512949 1.145148 -1.145148 1.145148 c -.632196 0 -1.145147 -.513027 -1.145147 -1.145148 c 0 -.632123 .512951 -1.145149 1.145147 -1.145149 z"></path><path d="m 85.88124 32.907633 c .632199 0 1.145148 .513026 1.145148 1.145148 c 0 .632121 -.512949 1.145148 -1.145148 1.145148 c -.632196 0 -1.145147 -.513027 -1.145147 -1.145148 c 0 -.632122 .512951 -1.145148 1.145147 -1.145148 z"></path><path d="m 42.026389 92.709703 c .632199 0 1.145148 .513026 1.145148 1.145149 c 0 .632121 -.512948 1.145148 -1.145148 1.145148 c -.632196 0 -1.145147 -.513027 -1.145147 -1.145148 c 0 -.632123 .512951 -1.145149 1.145147 -1.145149 z"></path><path d="m 38.039585 92.709703 c .632197 0 1.145148 .513027 1.145148 1.145149 c 0 .632122 -.512949 1.145148 -1.145148 1.145148 c -.632198 0 -1.145147 -.513026 -1.145147 -1.145148 c 0 -.632122 .51295 -1.145149 1.145147 -1.145149 z"></path><path d="m 42.026389 88.722899 c .632199 0 1.145148 .513026 1.145148 1.145148 c 0 .632121 -.512948 1.145148 -1.145148 1.145148 c -.632196 0 -1.145147 -.513027 -1.145147 -1.145148 c 0 -.632122 .512951 -1.145148 1.145147 -1.145148 z"></path><path d="m 38.039585 88.722899 c .632197 0 1.145148 .513027 1.145148 1.145148 c 0 .632122 -.512949 1.145148 -1.145148 1.145148 c -.632198 0 -1.145147 -.513026 -1.145147 -1.145148 c 0 -.632121 .51295 -1.145148 1.145147 -1.145148 z"></path><path d="m 42.026389 84.736094 c .632199 0 1.145148 .513026 1.145148 1.145149 c 0 .632121 -.512948 1.145148 -1.145148 1.145148 c -.632196 0 -1.145147 -.513027 -1.145147 -1.145148 c 0 -.632123 .512951 -1.145149 1.145147 -1.145149 z"></path><path d="m 38.039585 84.736094 c .632197 0 1.145148 .513027 1.145148 1.145149 c 0 .632122 -.512949 1.145148 -1.145148 1.145148 c -.632198 0 -1.145147 -.513026 -1.145147 -1.145148 c 0 -.632122 .51295 -1.145149 1.145147 -1.145149 z"></path><path d="m 34.052779 92.709703 c .632199 0 1.145147 .513026 1.145147 1.145149 c 0 .632121 -.512948 1.145148 -1.145147 1.145148 c -.632196 0 -1.145148 -.513027 -1.145148 -1.145148 c 0 -.632123 .512952 -1.145149 1.145148 -1.145149 z"></path><path d="m 30.065975 92.709703 c .632199 0 1.145147 .513027 1.145147 1.145149 C 31.211123 94.486974 30.698174 95 30.065975 95 c -.632199 0 -1.145148 -.513026 -1.145148 -1.145148 c 0 -.632122 .512949 -1.145149 1.145148 -1.145149 z"></path><path d="m 34.052779 88.722899 c .632199 0 1.145147 .513026 1.145147 1.145148 c 0 .632121 -.512948 1.145148 -1.145147 1.145148 c -.632196 0 -1.145148 -.513027 -1.145148 -1.145148 c 0 -.632122 .512952 -1.145148 1.145148 -1.145148 z"></path><path d="m 30.065975 88.722899 c .632199 0 1.145147 .513027 1.145147 1.145148 c .000001 .632122 -.512948 1.145148 -1.145147 1.145148 c -.632199 0 -1.145148 -.513026 -1.145148 -1.145148 c 0 -.632121 .512949 -1.145148 1.145148 -1.145148 z"></path><path d="m 34.052779 84.736094 c .632199 0 1.145147 .513026 1.145147 1.145149 c 0 .632121 -.512948 1.145148 -1.145147 1.145148 c -.632196 0 -1.145148 -.513027 -1.145148 -1.145148 c 0 -.632123 .512952 -1.145149 1.145148 -1.145149 z"></path><path d="m 30.065975 84.736094 c .632199 0 1.145147 .513027 1.145147 1.145149 c .000001 .632122 -.512948 1.145148 -1.145147 1.145148 c -.632199 0 -1.145148 -.513026 -1.145148 -1.145148 c 0 -.632122 .512949 -1.145149 1.145148 -1.145149 z"></path><path d="m 26.079171 92.709703 c .632198 0 1.145148 .513026 1.145148 1.145149 c 0 .632121 -.51295 1.145148 -1.145148 1.145148 c -.632197 0 -1.145147 -.513027 -1.145147 -1.145148 c 0 -.632123 .512949 -1.145149 1.145147 -1.145149 z"></path><path d="m 22.092368 92.709703 c .632196 0 1.145147 .513027 1.145147 1.145149 c 0 .632122 -.512951 1.145148 -1.145147 1.145148 c -.632199 0 -1.145148 -.513026 -1.145148 -1.145148 c 0 -.632122 .512949 -1.145149 1.145148 -1.145149 z"></path><path d="m 26.079171 88.722899 c .632198 0 1.145148 .513026 1.145148 1.145148 c 0 .632121 -.51295 1.145148 -1.145148 1.145148 c -.632197 0 -1.145147 -.513027 -1.145147 -1.145148 c 0 -.632122 .512949 -1.145148 1.145147 -1.145148 z"></path><path d="m 22.092368 88.722899 c .632196 0 1.145147 .513027 1.145147 1.145148 c 0 .632122 -.512951 1.145148 -1.145147 1.145148 c -.632199 0 -1.145148 -.513026 -1.145148 -1.145148 c 0 -.632121 .512949 -1.145148 1.145148 -1.145148 z"></path><path d="m 26.079171 84.736094 c .632198 0 1.145148 .513026 1.145148 1.145149 c 0 .632121 -.51295 1.145148 -1.145148 1.145148 c -.632197 0 -1.145147 -.513027 -1.145147 -1.145148 c 0 -.632123 .512949 -1.145149 1.145147 -1.145149 z"></path><path d="m 22.092368 84.736094 c .632196 0 1.145147 .513027 1.145147 1.145149 c 0 .632122 -.512951 1.145148 -1.145147 1.145148 c -.632199 0 -1.145148 -.513026 -1.145148 -1.145148 c 0 -.632122 .512949 -1.145149 1.145148 -1.145149 z"></path><path d="m 18.105561 92.709703 c .632199 0 1.145148 .513026 1.145148 1.145149 c 0 .632121 -.512949 1.145148 -1.145148 1.145148 c -.632197 0 -1.145147 -.513027 -1.145147 -1.145148 c 0 -.632123 .512949 -1.145149 1.145147 -1.145149 z"></path><path d="m 18.105561 88.722899 c .632199 0 1.145148 .513026 1.145148 1.145148 c 0 .632121 -.512949 1.145148 -1.145148 1.145148 c -.632197 0 -1.145147 -.513027 -1.145147 -1.145148 c 0 -.632122 .512949 -1.145148 1.145147 -1.145148 z"></path><path d="m 18.105561 84.736094 c .632199 0 1.145148 .513026 1.145148 1.145149 c 0 .632121 -.512949 1.145148 -1.145148 1.145148 c -.632197 0 -1.145147 -.513027 -1.145147 -1.145148 c 0 -.632123 .512949 -1.145149 1.145147 -1.145149 z"></path><path d="m 93.85485 28.920828 c .632198 0 1.14515 .513026 1.14515 1.145149 c 0 .632121 -.512952 1.145148 -1.14515 1.145148 c -.632198 0 -1.145148 -.513027 -1.145148 -1.145148 c 0 -.632123 .51295 -1.145149 1.145148 -1.145149 z"></path><path d="m 89.868045 28.920828 c .632199 0 1.145149 .513027 1.145149 1.145149 c 0 .632122 -.51295 1.145148 -1.145149 1.145148 c -.632197 0 -1.145147 -.513026 -1.145147 -1.145148 c 0 -.632122 .512951 -1.145149 1.145147 -1.145149 z"></path><path d="m 93.85485 24.934023 c .632198 0 1.14515 .513026 1.14515 1.145149 c 0 .632121 -.512952 1.145148 -1.14515 1.145148 c -.632198 0 -1.145148 -.513027 -1.145148 -1.145148 c 0 -.632123 .51295 -1.145149 1.145148 -1.145149 z"></path><path d="m 89.868045 24.934023 c .632199 0 1.145149 .513027 1.145149 1.145149 c 0 .632122 -.51295 1.145148 -1.145149 1.145148 c -.632197 0 -1.145147 -.513026 -1.145147 -1.145148 c 0 -.632122 .512951 -1.145149 1.145147 -1.145149 z"></path><path d="m 93.85485 20.947218 c .632198 0 1.14515 .513026 1.14515 1.145149 c 0 .632121 -.512952 1.145148 -1.14515 1.145148 c -.632198 0 -1.145148 -.513027 -1.145148 -1.145148 c 0 -.632123 .51295 -1.145149 1.145148 -1.145149 z"></path><path d="m 89.868045 20.947218 c .632199 0 1.145149 .513027 1.145149 1.145149 c 0 .632122 -.51295 1.145148 -1.145149 1.145148 c -.632197 0 -1.145147 -.513026 -1.145147 -1.145148 c 0 -.632122 .512951 -1.145149 1.145147 -1.145149 z"></path><path d="m 85.88124 28.920828 c .632199 0 1.145148 .513026 1.145148 1.145149 c 0 .632121 -.512949 1.145148 -1.145148 1.145148 c -.632196 0 -1.145147 -.513027 -1.145147 -1.145148 c 0 -.632123 .512951 -1.145149 1.145147 -1.145149 z"></path><path d="m 85.88124 24.934023 c .632199 0 1.145148 .513026 1.145148 1.145149 c 0 .632121 -.512949 1.145148 -1.145148 1.145148 c -.632196 0 -1.145147 -.513027 -1.145147 -1.145148 c 0 -.632123 .512951 -1.145149 1.145147 -1.145149 z"></path><path d="m 85.88124 20.947218 c .632199 0 1.145148 .513026 1.145148 1.145149 c 0 .632121 -.512949 1.145148 -1.145148 1.145148 c -.632196 0 -1.145147 -.513027 -1.145147 -1.145148 c 0 -.632123 .512951 -1.145149 1.145147 -1.145149 z"></path><path d="m 93.85485 16.960414 c .632198 0 1.14515 .513026 1.14515 1.145149 c 0 .63212 -.512952 1.145147 -1.14515 1.145147 c -.632198 0 -1.145148 -.513027 -1.145148 -1.145147 c 0 -.632123 .51295 -1.145149 1.145148 -1.145149 z"></path><path d="m 89.868045 16.960414 c .632199 0 1.145149 .513027 1.145149 1.145149 c 0 .632121 -.51295 1.145147 -1.145149 1.145147 c -.632197 0 -1.145147 -.513026 -1.145147 -1.145147 c 0 -.632122 .512951 -1.145149 1.145147 -1.145149 z"></path><path d="m 85.88124 16.960414 c .632199 0 1.145148 .513026 1.145148 1.145149 c 0 .63212 -.512949 1.145147 -1.145148 1.145147 c -.632196 0 -1.145147 -.513027 -1.145147 -1.145147 c 0 -.632123 .512951 -1.145149 1.145147 -1.145149 z"></path></svg>