<svg height="100" width="100" xmlns="http://www.w3.org/2000/svg">
    <path d="M6.145 7.29a1.146 1.146 0 110-2.29 1.146 1.146 0 010 2.29zM10.132 7.29a1.146 1.146 0 110-2.29 1.146 1.146 0 010 2.29zM6.145 11.277a1.146 1.146 0 110-2.29 1.146 1.146 0 010 2.29zM10.132 11.277a1.146 1.146 0 110-2.29 1.146 1.146 0 010 2.29zM6.145 15.264a1.146 1.146 0 110-2.291 1.146 1.146 0 010 2.29zM10.132 15.264a1.146 1.146 0 110-2.291 1.146 1.146 0 010 2.29zM6.145 19.25a1.146 1.146 0 110-2.29 1.146 1.146 0 010 2.29zM10.132 19.25a1.146 1.146 0 110-2.29 1.146 1.146 0 010 2.29zM14.119 7.29a1.146 1.146 0 110-2.29 1.146 1.146 0 010 2.29zM18.106 7.29a1.146 1.146 0 110-2.29 1.146 1.146 0 010 2.29zM14.119 11.277a1.146 1.146 0 110-2.29 1.146 1.146 0 010 2.29zM18.106 11.277a1.146 1.146 0 110-2.29 1.146 1.146 0 010 2.29zM14.119 15.264a1.146 1.146 0 110-2.291 1.146 1.146 0 010 2.29zM18.106 15.264a1.146 1.146 0 110-2.291 1.146 1.146 0 010 2.29zM14.119 19.25a1.146 1.146 0 110-2.29 1.146 1.146 0 010 2.29zM22.092 7.29A1.146 1.146 0 1122.093 5a1.146 1.146 0 010 2.29zM26.08 7.29a1.146 1.146 0 110-2.29 1.146 1.146 0 010 2.29zM22.092 11.277a1.146 1.146 0 11.001-2.29 1.146 1.146 0 010 2.29zM26.08 11.277a1.146 1.146 0 110-2.29 1.146 1.146 0 010 2.29zM22.092 15.264a1.146 1.146 0 11.001-2.291 1.146 1.146 0 010 2.29zM26.08 15.264a1.146 1.146 0 110-2.291 1.146 1.146 0 010 2.29zM30.066 7.29a1.146 1.146 0 110-2.29 1.146 1.146 0 010 2.29zM30.066 11.277a1.146 1.146 0 110-2.29 1.146 1.146 0 010 2.29zM30.066 15.264a1.146 1.146 0 110-2.291 1.146 1.146 0 010 2.29zM6.145 23.238a1.146 1.146 0 110-2.292 1.146 1.146 0 010 2.292zM10.132 23.238a1.146 1.146 0 110-2.292 1.146 1.146 0 010 2.292zM6.145 27.224a1.146 1.146 0 110-2.29 1.146 1.146 0 010 2.29zM10.132 27.224a1.146 1.146 0 110-2.29 1.146 1.146 0 010 2.29zM6.145 31.211a1.146 1.146 0 110-2.29 1.146 1.146 0 010 2.29zM10.132 31.211a1.146 1.146 0 110-2.29 1.146 1.146 0 010 2.29zM6.145 35.198a1.146 1.146 0 110-2.291 1.146 1.146 0 010 2.29zM10.132 35.198a1.146 1.146 0 110-2.291 1.146 1.146 0 010 2.29zM14.119 23.238a1.146 1.146 0 110-2.292 1.146 1.146 0 010 2.292zM14.119 27.224a1.146 1.146 0 110-2.29 1.146 1.146 0 010 2.29zM14.119 31.211a1.146 1.146 0 110-2.29 1.146 1.146 0 010 2.29zM14.119 35.198a1.146 1.146 0 110-2.291 1.146 1.146 0 010 2.29zM34.053 7.29a1.146 1.146 0 110-2.29 1.146 1.146 0 010 2.29zM34.053 11.277a1.146 1.146 0 110-2.29 1.146 1.146 0 010 2.29zM34.053 15.264a1.146 1.146 0 110-2.291 1.146 1.146 0 010 2.29zM38.04 7.29a1.146 1.146 0 110-2.29 1.146 1.146 0 010 2.29zM42.026 7.29A1.146 1.146 0 1142.027 5a1.146 1.146 0 010 2.29zM38.04 11.277a1.146 1.146 0 110-2.29 1.146 1.146 0 010 2.29zM42.026 11.277a1.146 1.146 0 11.001-2.29 1.146 1.146 0 010 2.29zM38.04 15.264a1.146 1.146 0 110-2.291 1.146 1.146 0 010 2.29zM42.026 15.264a1.146 1.146 0 11.001-2.291 1.146 1.146 0 010 2.29zM46.013 7.29a1.146 1.146 0 110-2.29 1.146 1.146 0 010 2.29zM50 7.29A1.146 1.146 0 1150 5a1.146 1.146 0 010 2.29zM46.013 11.277a1.146 1.146 0 110-2.29 1.146 1.146 0 010 2.29zM50 11.277a1.146 1.146 0 110-2.29 1.146 1.146 0 010 2.29zM46.013 15.264a1.146 1.146 0 110-2.291 1.146 1.146 0 010 2.29zM50 15.264a1.146 1.146 0 110-2.291 1.146 1.146 0 010 2.29zM53.987 7.29a1.146 1.146 0 110-2.29 1.146 1.146 0 010 2.29zM53.987 11.277a1.146 1.146 0 110-2.29 1.146 1.146 0 010 2.29zM53.987 15.264a1.146 1.146 0 110-2.291 1.146 1.146 0 010 2.29zM6.145 39.185a1.146 1.146 0 110-2.291 1.146 1.146 0 010 2.29zM10.132 39.185a1.146 1.146 0 110-2.291 1.146 1.146 0 010 2.29zM6.145 43.172a1.146 1.146 0 110-2.291 1.146 1.146 0 010 2.29zM10.132 43.172a1.146 1.146 0 110-2.291 1.146 1.146 0 010 2.29zM6.145 47.158a1.146 1.146 0 110-2.29 1.146 1.146 0 010 2.29zM10.132 47.158a1.146 1.146 0 110-2.29 1.146 1.146 0 010 2.29zM6.145 51.145a1.146 1.146 0 110-2.29 1.146 1.146 0 010 2.29zM10.132 51.145a1.146 1.146 0 110-2.29 1.146 1.146 0 010 2.29zM14.119 39.185a1.146 1.146 0 110-2.291 1.146 1.146 0 010 2.29zM14.119 43.172a1.146 1.146 0 110-2.291 1.146 1.146 0 010 2.29zM14.119 47.158a1.146 1.146 0 110-2.29 1.146 1.146 0 010 2.29zM14.119 51.145a1.146 1.146 0 110-2.29 1.146 1.146 0 010 2.29zM6.145 55.132a1.146 1.146 0 110-2.291 1.146 1.146 0 010 2.291zM10.132 55.132a1.146 1.146 0 110-2.291 1.146 1.146 0 010 2.291zM6.145 59.119a1.146 1.146 0 110-2.291 1.146 1.146 0 010 2.29zM10.132 59.119a1.146 1.146 0 110-2.291 1.146 1.146 0 010 2.29zM6.145 63.106a1.146 1.146 0 110-2.291 1.146 1.146 0 010 2.29zM10.132 63.106a1.146 1.146 0 110-2.291 1.146 1.146 0 010 2.29zM6.145 67.092a1.146 1.146 0 110-2.29 1.146 1.146 0 010 2.29zM10.132 67.092a1.146 1.146 0 110-2.29 1.146 1.146 0 010 2.29zM14.119 55.132a1.146 1.146 0 110-2.291 1.146 1.146 0 010 2.291zM14.119 59.119a1.146 1.146 0 110-2.291 1.146 1.146 0 010 2.29zM14.119 63.106a1.146 1.146 0 110-2.291 1.146 1.146 0 010 2.29zM14.119 67.092a1.146 1.146 0 110-2.29 1.146 1.146 0 010 2.29zM57.974 7.29a1.146 1.146 0 110-2.29 1.146 1.146 0 010 2.29zM61.96 7.29A1.146 1.146 0 1161.961 5a1.146 1.146 0 010 2.29zM57.974 11.277a1.146 1.146 0 110-2.29 1.146 1.146 0 010 2.29zM61.96 11.277a1.146 1.146 0 11.001-2.29 1.146 1.146 0 010 2.29zM57.974 15.264a1.146 1.146 0 110-2.291 1.146 1.146 0 010 2.29zM61.96 15.264a1.146 1.146 0 11.001-2.291 1.146 1.146 0 010 2.29zM65.947 7.29A1.146 1.146 0 1165.948 5a1.146 1.146 0 010 2.29zM69.934 7.29a1.146 1.146 0 110-2.29 1.146 1.146 0 010 2.29zM65.947 11.277a1.146 1.146 0 11.001-2.29 1.146 1.146 0 010 2.29zM69.934 11.277a1.146 1.146 0 110-2.29 1.146 1.146 0 010 2.29zM65.947 15.264a1.146 1.146 0 11.001-2.291 1.146 1.146 0 010 2.29zM69.934 15.264a1.146 1.146 0 110-2.291 1.146 1.146 0 010 2.29zM73.92 7.29A1.146 1.146 0 1173.923 5a1.146 1.146 0 01-.001 2.29zM77.908 7.29a1.146 1.146 0 110-2.29 1.146 1.146 0 010 2.29zM73.92 11.277a1.146 1.146 0 11.002-2.29 1.146 1.146 0 01-.001 2.29zM77.908 11.277a1.146 1.146 0 110-2.29 1.146 1.146 0 010 2.29zM73.92 15.264a1.146 1.146 0 11.002-2.291 1.146 1.146 0 01-.001 2.29zM77.908 15.264a1.146 1.146 0 110-2.291 1.146 1.146 0 010 2.29zM81.894 7.29A1.146 1.146 0 1181.895 5a1.146 1.146 0 010 2.29zM81.894 11.277a1.146 1.146 0 11.001-2.29 1.146 1.146 0 010 2.29zM81.894 15.264a1.146 1.146 0 11.001-2.291 1.146 1.146 0 010 2.29zM85.881 7.29A1.146 1.146 0 1185.882 5a1.146 1.146 0 010 2.29zM85.881 11.277a1.146 1.146 0 11.001-2.29 1.146 1.146 0 010 2.29zM85.881 15.264a1.146 1.146 0 11.001-2.291 1.146 1.146 0 010 2.29zM89.868 7.29a1.146 1.146 0 110-2.29 1.146 1.146 0 010 2.29zM93.855 7.29a1.146 1.146 0 110-2.29 1.146 1.146 0 010 2.29zM89.868 11.277a1.146 1.146 0 110-2.29 1.146 1.146 0 010 2.29zM93.855 11.277a1.146 1.146 0 110-2.29 1.146 1.146 0 010 2.29zM89.868 15.264a1.146 1.146 0 110-2.291 1.146 1.146 0 010 2.29zM93.855 15.264a1.146 1.146 0 110-2.291 1.146 1.146 0 010 2.29zM6.145 71.08a1.146 1.146 0 110-2.292 1.146 1.146 0 010 2.291zM10.132 71.08a1.146 1.146 0 110-2.292 1.146 1.146 0 010 2.291zM6.145 75.066a1.146 1.146 0 110-2.291 1.146 1.146 0 010 2.291zM10.132 75.066a1.146 1.146 0 110-2.291 1.146 1.146 0 010 2.291zM6.145 79.053a1.146 1.146 0 110-2.291 1.146 1.146 0 010 2.29zM10.132 79.053a1.146 1.146 0 110-2.291 1.146 1.146 0 010 2.29zM14.119 71.08a1.146 1.146 0 110-2.292 1.146 1.146 0 010 2.291zM14.119 75.066a1.146 1.146 0 110-2.291 1.146 1.146 0 010 2.291zM14.119 79.053a1.146 1.146 0 110-2.291 1.146 1.146 0 010 2.29zM6.145 83.04a1.146 1.146 0 110-2.291 1.146 1.146 0 010 2.29zM10.132 83.04a1.146 1.146 0 110-2.291 1.146 1.146 0 010 2.29zM6.145 87.026a1.146 1.146 0 110-2.29 1.146 1.146 0 010 2.29zM10.132 87.026a1.146 1.146 0 110-2.29 1.146 1.146 0 010 2.29zM6.145 91.013a1.146 1.146 0 110-2.29 1.146 1.146 0 010 2.29zM10.132 91.013a1.146 1.146 0 110-2.29 1.146 1.146 0 010 2.29zM6.145 95a1.146 1.146 0 110-2.291 1.146 1.146 0 010 2.291zM10.132 95a1.146 1.146 0 110-2.291 1.146 1.146 0 010 2.291zM14.119 83.04a1.146 1.146 0 110-2.291 1.146 1.146 0 010 2.29zM14.119 87.026a1.146 1.146 0 110-2.29 1.146 1.146 0 010 2.29zM14.119 91.013a1.146 1.146 0 110-2.29 1.146 1.146 0 010 2.29zM14.119 95a1.146 1.146 0 110-2.291 1.146 1.146 0 010 2.291zM93.855 92.71a1.146 1.146 0 110 2.29 1.146 1.146 0 010-2.29zM89.868 92.71a1.146 1.146 0 110 2.29 1.146 1.146 0 010-2.29zM93.855 88.723a1.146 1.146 0 110 2.29 1.146 1.146 0 010-2.29zM89.868 88.723a1.146 1.146 0 110 2.29 1.146 1.146 0 010-2.29zM93.855 84.736a1.146 1.146 0 110 2.291 1.146 1.146 0 010-2.29zM89.868 84.736a1.146 1.146 0 110 2.291 1.146 1.146 0 010-2.29zM93.855 80.75a1.146 1.146 0 110 2.29 1.146 1.146 0 010-2.29zM89.868 80.75a1.146 1.146 0 110 2.29 1.146 1.146 0 010-2.29zM85.881 92.71a1.146 1.146 0 110 2.29 1.146 1.146 0 010-2.29zM81.894 92.71a1.146 1.146 0 110 2.29 1.146 1.146 0 010-2.29zM85.881 88.723a1.146 1.146 0 110 2.29 1.146 1.146 0 010-2.29zM81.894 88.723a1.146 1.146 0 110 2.29 1.146 1.146 0 010-2.29zM85.881 84.736a1.146 1.146 0 110 2.291 1.146 1.146 0 010-2.29zM81.894 84.736a1.146 1.146 0 110 2.291 1.146 1.146 0 010-2.29zM85.881 80.75a1.146 1.146 0 110 2.29 1.146 1.146 0 010-2.29zM77.908 92.71a1.146 1.146 0 11-.001 2.29 1.146 1.146 0 010-2.29zM73.92 92.71a1.146 1.146 0 110 2.29 1.146 1.146 0 010-2.29zM77.908 88.723a1.146 1.146 0 11-.001 2.29 1.146 1.146 0 010-2.29zM73.92 88.723a1.146 1.146 0 110 2.29 1.146 1.146 0 010-2.29zM77.908 84.736a1.146 1.146 0 11-.001 2.291 1.146 1.146 0 010-2.29zM73.92 84.736a1.146 1.146 0 110 2.291 1.146 1.146 0 010-2.29zM69.934 92.71a1.146 1.146 0 110 2.29 1.146 1.146 0 010-2.29zM69.934 88.723a1.146 1.146 0 110 2.29 1.146 1.146 0 010-2.29zM69.934 84.736a1.146 1.146 0 110 2.291 1.146 1.146 0 010-2.29zM93.855 76.762a1.146 1.146 0 110 2.292 1.146 1.146 0 010-2.292zM89.868 76.762a1.146 1.146 0 110 2.292 1.146 1.146 0 010-2.292zM93.855 72.776a1.146 1.146 0 110 2.29 1.146 1.146 0 010-2.29zM89.868 72.776a1.146 1.146 0 110 2.29 1.146 1.146 0 010-2.29zM93.855 68.789a1.146 1.146 0 110 2.29 1.146 1.146 0 010-2.29zM89.868 68.789a1.146 1.146 0 110 2.29 1.146 1.146 0 010-2.29zM93.855 64.802a1.146 1.146 0 110 2.291 1.146 1.146 0 010-2.29zM89.868 64.802a1.146 1.146 0 110 2.291 1.146 1.146 0 010-2.29zM85.881 76.762a1.146 1.146 0 110 2.292 1.146 1.146 0 010-2.292zM85.881 72.776a1.146 1.146 0 110 2.29 1.146 1.146 0 010-2.29zM85.881 68.789a1.146 1.146 0 110 2.29 1.146 1.146 0 010-2.29zM85.881 64.802a1.146 1.146 0 110 2.291 1.146 1.146 0 010-2.29zM65.947 92.71a1.146 1.146 0 110 2.29 1.146 1.146 0 010-2.29zM65.947 88.723a1.146 1.146 0 110 2.29 1.146 1.146 0 010-2.29zM65.947 84.736a1.146 1.146 0 110 2.291 1.146 1.146 0 010-2.29zM61.96 92.71a1.146 1.146 0 110 2.29 1.146 1.146 0 010-2.29zM57.974 92.71a1.146 1.146 0 11-.001 2.29 1.146 1.146 0 010-2.29zM61.96 88.723a1.146 1.146 0 110 2.29 1.146 1.146 0 010-2.29zM57.974 88.723a1.146 1.146 0 11-.001 2.29 1.146 1.146 0 010-2.29zM61.96 84.736a1.146 1.146 0 110 2.291 1.146 1.146 0 010-2.29zM57.974 84.736a1.146 1.146 0 11-.001 2.291 1.146 1.146 0 010-2.29zM53.987 92.71a1.146 1.146 0 110 2.29 1.146 1.146 0 010-2.29zM50 92.71A1.146 1.146 0 1150 95a1.146 1.146 0 010-2.29zM53.987 88.723a1.146 1.146 0 110 2.29 1.146 1.146 0 010-2.29zM50 88.723a1.146 1.146 0 110 2.29 1.146 1.146 0 010-2.29zM53.987 84.736a1.146 1.146 0 110 2.291 1.146 1.146 0 010-2.29zM50 84.736a1.146 1.146 0 110 2.291 1.146 1.146 0 010-2.29zM46.013 92.71a1.146 1.146 0 110 2.29 1.146 1.146 0 010-2.29zM46.013 88.723a1.146 1.146 0 110 2.29 1.146 1.146 0 010-2.29zM46.013 84.736a1.146 1.146 0 110 2.291 1.146 1.146 0 010-2.29zM93.855 60.815a1.146 1.146 0 110 2.291 1.146 1.146 0 010-2.29zM89.868 60.815a1.146 1.146 0 110 2.291 1.146 1.146 0 010-2.29zM93.855 56.828a1.146 1.146 0 110 2.291 1.146 1.146 0 010-2.29zM89.868 56.828a1.146 1.146 0 110 2.291 1.146 1.146 0 010-2.29zM93.855 52.842a1.146 1.146 0 110 2.29 1.146 1.146 0 010-2.29zM89.868 52.842a1.146 1.146 0 110 2.29 1.146 1.146 0 010-2.29zM93.855 48.855a1.146 1.146 0 110 2.29 1.146 1.146 0 010-2.29zM89.868 48.855a1.146 1.146 0 110 2.29 1.146 1.146 0 010-2.29zM85.881 60.815a1.146 1.146 0 110 2.291 1.146 1.146 0 010-2.29zM85.881 56.828a1.146 1.146 0 110 2.291 1.146 1.146 0 010-2.29zM85.881 52.842a1.146 1.146 0 110 2.29 1.146 1.146 0 010-2.29zM85.881 48.855a1.146 1.146 0 110 2.29 1.146 1.146 0 010-2.29zM93.855 44.868a1.146 1.146 0 110 2.291 1.146 1.146 0 010-2.291zM89.868 44.868a1.146 1.146 0 110 2.291 1.146 1.146 0 010-2.291zM93.855 40.881a1.146 1.146 0 110 2.291 1.146 1.146 0 010-2.29zM89.868 40.881a1.146 1.146 0 110 2.291 1.146 1.146 0 010-2.29zM93.855 36.894a1.146 1.146 0 110 2.291 1.146 1.146 0 010-2.29zM89.868 36.894a1.146 1.146 0 110 2.291 1.146 1.146 0 010-2.29zM93.855 32.908a1.146 1.146 0 110 2.29 1.146 1.146 0 010-2.29zM89.868 32.908a1.146 1.146 0 110 2.29 1.146 1.146 0 010-2.29zM85.881 44.868a1.146 1.146 0 110 2.291 1.146 1.146 0 010-2.291zM85.881 40.881a1.146 1.146 0 110 2.291 1.146 1.146 0 010-2.29zM85.881 36.894a1.146 1.146 0 110 2.291 1.146 1.146 0 010-2.29zM85.881 32.908a1.146 1.146 0 110 2.29 1.146 1.146 0 010-2.29zM42.026 92.71a1.146 1.146 0 110 2.29 1.146 1.146 0 010-2.29zM38.04 92.71a1.146 1.146 0 11-.001 2.29 1.146 1.146 0 010-2.29zM42.026 88.723a1.146 1.146 0 110 2.29 1.146 1.146 0 010-2.29zM38.04 88.723a1.146 1.146 0 11-.001 2.29 1.146 1.146 0 010-2.29zM42.026 84.736a1.146 1.146 0 110 2.291 1.146 1.146 0 010-2.29zM38.04 84.736a1.146 1.146 0 11-.001 2.291 1.146 1.146 0 010-2.29zM34.053 92.71a1.146 1.146 0 11-.001 2.29 1.146 1.146 0 010-2.29zM30.066 92.71a1.146 1.146 0 110 2.29 1.146 1.146 0 010-2.29zM34.053 88.723a1.146 1.146 0 11-.001 2.29 1.146 1.146 0 010-2.29zM30.066 88.723a1.146 1.146 0 110 2.29 1.146 1.146 0 010-2.29zM34.053 84.736a1.146 1.146 0 11-.001 2.291 1.146 1.146 0 010-2.29zM30.066 84.736a1.146 1.146 0 110 2.291 1.146 1.146 0 010-2.29zM26.08 92.71a1.146 1.146 0 11-.002 2.29 1.146 1.146 0 01.001-2.29zM22.092 92.71a1.146 1.146 0 110 2.29 1.146 1.146 0 010-2.29zM26.08 88.723a1.146 1.146 0 11-.002 2.29 1.146 1.146 0 01.001-2.29zM22.092 88.723a1.146 1.146 0 110 2.29 1.146 1.146 0 010-2.29zM26.08 84.736a1.146 1.146 0 11-.002 2.291 1.146 1.146 0 01.001-2.29zM22.092 84.736a1.146 1.146 0 110 2.291 1.146 1.146 0 010-2.29zM18.106 92.71a1.146 1.146 0 11-.001 2.29 1.146 1.146 0 010-2.29zM18.106 88.723a1.146 1.146 0 11-.001 2.29 1.146 1.146 0 010-2.29zM18.106 84.736a1.146 1.146 0 11-.001 2.291 1.146 1.146 0 010-2.29zM93.855 28.92a1.146 1.146 0 110 2.292 1.146 1.146 0 010-2.291zM89.868 28.92a1.146 1.146 0 110 2.292 1.146 1.146 0 010-2.291zM93.855 24.934a1.146 1.146 0 110 2.291 1.146 1.146 0 010-2.291zM89.868 24.934a1.146 1.146 0 110 2.291 1.146 1.146 0 010-2.291zM93.855 20.947a1.146 1.146 0 110 2.291 1.146 1.146 0 010-2.29zM89.868 20.947a1.146 1.146 0 110 2.291 1.146 1.146 0 010-2.29zM85.881 28.92a1.146 1.146 0 110 2.292 1.146 1.146 0 010-2.291zM85.881 24.934a1.146 1.146 0 110 2.291 1.146 1.146 0 010-2.291zM85.881 20.947a1.146 1.146 0 110 2.291 1.146 1.146 0 010-2.29zM93.855 16.96a1.146 1.146 0 110 2.291 1.146 1.146 0 010-2.29zM89.868 16.96a1.146 1.146 0 110 2.291 1.146 1.146 0 010-2.29zM85.881 16.96a1.146 1.146 0 110 2.291 1.146 1.146 0 010-2.29z"/>
</svg>
