<svg height="100" width="100" xmlns="http://www.w3.org/2000/svg">
    <path d="M6.145 7.29a1.146 1.146 0 1 1 0-2.29 1.146 1.146 0 0 1 0 2.29zm3.987 0a1.146 1.146 0 1 1 0-2.29 1.146 1.146 0 0 1 0 2.29zm-3.987 3.987a1.146 1.146 0 1 1 0-2.29 1.146 1.146 0 0 1 0 2.29zm3.987 0a1.146 1.146 0 1 1 0-2.29 1.146 1.146 0 0 1 0 2.29zm-3.987 3.987a1.146 1.146 0 1 1 0-2.291 1.146 1.146 0 0 1 0 2.29zm3.987 0a1.146 1.146 0 1 1 0-2.291 1.146 1.146 0 0 1 0 2.29zM6.145 19.25a1.146 1.146 0 1 1 0-2.29 1.146 1.146 0 0 1 0 2.29zm3.987 0a1.146 1.146 0 1 1 0-2.29 1.146 1.146 0 0 1 0 2.29zm3.987-11.96a1.146 1.146 0 1 1 0-2.29 1.146 1.146 0 0 1 0 2.29zm3.987 0a1.146 1.146 0 1 1 0-2.29 1.146 1.146 0 0 1 0 2.29zm-3.987 3.987a1.146 1.146 0 1 1 0-2.29 1.146 1.146 0 0 1 0 2.29zm3.987 0a1.146 1.146 0 1 1 0-2.29 1.146 1.146 0 0 1 0 2.29zm-3.987 3.987a1.146 1.146 0 1 1 0-2.291 1.146 1.146 0 0 1 0 2.29zm3.987 0a1.146 1.146 0 1 1 0-2.291 1.146 1.146 0 0 1 0 2.29zm-3.987 3.986a1.146 1.146 0 1 1 0-2.29 1.146 1.146 0 0 1 0 2.29zm7.973-11.96A1.146 1.146 0 1 1 22.093 5a1.146 1.146 0 0 1 0 2.29zm3.988 0a1.146 1.146 0 1 1 0-2.29 1.146 1.146 0 0 1 0 2.29zm-3.988 3.987a1.146 1.146 0 1 1 .001-2.29 1.146 1.146 0 0 1 0 2.29zm3.988 0a1.146 1.146 0 1 1 0-2.29 1.146 1.146 0 0 1 0 2.29zm-3.988 3.987a1.146 1.146 0 1 1 .001-2.291 1.146 1.146 0 0 1 0 2.29zm3.988 0a1.146 1.146 0 1 1 0-2.291 1.146 1.146 0 0 1 0 2.29zm3.986-7.974a1.146 1.146 0 1 1 0-2.29 1.146 1.146 0 0 1 0 2.29zm0 3.987a1.146 1.146 0 1 1 0-2.29 1.146 1.146 0 0 1 0 2.29zm0 3.987a1.146 1.146 0 1 1 0-2.291 1.146 1.146 0 0 1 0 2.29zM6.145 23.238a1.146 1.146 0 1 1 0-2.292 1.146 1.146 0 0 1 0 2.292zm3.987 0a1.146 1.146 0 1 1 0-2.292 1.146 1.146 0 0 1 0 2.292zm-3.987 3.986a1.146 1.146 0 1 1 0-2.29 1.146 1.146 0 0 1 0 2.29zm3.987 0a1.146 1.146 0 1 1 0-2.29 1.146 1.146 0 0 1 0 2.29zm-3.987 3.987a1.146 1.146 0 1 1 0-2.29 1.146 1.146 0 0 1 0 2.29zm3.987 0a1.146 1.146 0 1 1 0-2.29 1.146 1.146 0 0 1 0 2.29zm-3.987 3.987a1.146 1.146 0 1 1 0-2.291 1.146 1.146 0 0 1 0 2.29zm3.987 0a1.146 1.146 0 1 1 0-2.291 1.146 1.146 0 0 1 0 2.29zm3.987-11.96a1.146 1.146 0 1 1 0-2.292 1.146 1.146 0 0 1 0 2.292zm0 3.986a1.146 1.146 0 1 1 0-2.29 1.146 1.146 0 0 1 0 2.29zm0 3.987a1.146 1.146 0 1 1 0-2.29 1.146 1.146 0 0 1 0 2.29zm0 3.987a1.146 1.146 0 1 1 0-2.291 1.146 1.146 0 0 1 0 2.29zM34.053 7.29a1.146 1.146 0 1 1 0-2.29 1.146 1.146 0 0 1 0 2.29zm0 3.987a1.146 1.146 0 1 1 0-2.29 1.146 1.146 0 0 1 0 2.29zm0 3.987a1.146 1.146 0 1 1 0-2.291 1.146 1.146 0 0 1 0 2.29zM38.04 7.29a1.146 1.146 0 1 1 0-2.29 1.146 1.146 0 0 1 0 2.29zm3.986 0A1.146 1.146 0 1 1 42.027 5a1.146 1.146 0 0 1 0 2.29zm-3.986 3.987a1.146 1.146 0 1 1 0-2.29 1.146 1.146 0 0 1 0 2.29zm3.986 0a1.146 1.146 0 1 1 .001-2.29 1.146 1.146 0 0 1 0 2.29zm-3.986 3.987a1.146 1.146 0 1 1 0-2.291 1.146 1.146 0 0 1 0 2.29zm3.986 0a1.146 1.146 0 1 1 .001-2.291 1.146 1.146 0 0 1 0 2.29zm3.987-7.974a1.146 1.146 0 1 1 0-2.29 1.146 1.146 0 0 1 0 2.29zm3.987 0A1.146 1.146 0 1 1 50 5a1.146 1.146 0 0 1 0 2.29zm-3.987 3.987a1.146 1.146 0 1 1 0-2.29 1.146 1.146 0 0 1 0 2.29zm3.987 0a1.146 1.146 0 1 1 0-2.29 1.146 1.146 0 0 1 0 2.29zm-3.987 3.987a1.146 1.146 0 1 1 0-2.291 1.146 1.146 0 0 1 0 2.29zm3.987 0a1.146 1.146 0 1 1 0-2.291 1.146 1.146 0 0 1 0 2.29zm3.987-7.974a1.146 1.146 0 1 1 0-2.29 1.146 1.146 0 0 1 0 2.29zm0 3.987a1.146 1.146 0 1 1 0-2.29 1.146 1.146 0 0 1 0 2.29zm0 3.987a1.146 1.146 0 1 1 0-2.291 1.146 1.146 0 0 1 0 2.29zM6.145 39.185a1.146 1.146 0 1 1 0-2.291 1.146 1.146 0 0 1 0 2.29zm3.987 0a1.146 1.146 0 1 1 0-2.291 1.146 1.146 0 0 1 0 2.29zm-3.987 3.987a1.146 1.146 0 1 1 0-2.291 1.146 1.146 0 0 1 0 2.29zm3.987 0a1.146 1.146 0 1 1 0-2.291 1.146 1.146 0 0 1 0 2.29zm-3.987 3.986a1.146 1.146 0 1 1 0-2.29 1.146 1.146 0 0 1 0 2.29zm3.987 0a1.146 1.146 0 1 1 0-2.29 1.146 1.146 0 0 1 0 2.29zm-3.987 3.987a1.146 1.146 0 1 1 0-2.29 1.146 1.146 0 0 1 0 2.29zm3.987 0a1.146 1.146 0 1 1 0-2.29 1.146 1.146 0 0 1 0 2.29zm3.987-11.96a1.146 1.146 0 1 1 0-2.291 1.146 1.146 0 0 1 0 2.29zm0 3.987a1.146 1.146 0 1 1 0-2.291 1.146 1.146 0 0 1 0 2.29zm0 3.986a1.146 1.146 0 1 1 0-2.29 1.146 1.146 0 0 1 0 2.29zm0 3.987a1.146 1.146 0 1 1 0-2.29 1.146 1.146 0 0 1 0 2.29zm-7.974 3.987a1.146 1.146 0 1 1 0-2.291 1.146 1.146 0 0 1 0 2.291zm3.987 0a1.146 1.146 0 1 1 0-2.291 1.146 1.146 0 0 1 0 2.291zm-3.987 3.987a1.146 1.146 0 1 1 0-2.291 1.146 1.146 0 0 1 0 2.29zm3.987 0a1.146 1.146 0 1 1 0-2.291 1.146 1.146 0 0 1 0 2.29zm-3.987 3.987a1.146 1.146 0 1 1 0-2.291 1.146 1.146 0 0 1 0 2.29zm3.987 0a1.146 1.146 0 1 1 0-2.291 1.146 1.146 0 0 1 0 2.29zm-3.987 3.986a1.146 1.146 0 1 1 0-2.29 1.146 1.146 0 0 1 0 2.29zm3.987 0a1.146 1.146 0 1 1 0-2.29 1.146 1.146 0 0 1 0 2.29zm3.987-11.96a1.146 1.146 0 1 1 0-2.291 1.146 1.146 0 0 1 0 2.291zm0 3.987a1.146 1.146 0 1 1 0-2.291 1.146 1.146 0 0 1 0 2.29zm0 3.987a1.146 1.146 0 1 1 0-2.291 1.146 1.146 0 0 1 0 2.29zm0 3.986a1.146 1.146 0 1 1 0-2.29 1.146 1.146 0 0 1 0 2.29zM57.974 7.29a1.146 1.146 0 1 1 0-2.29 1.146 1.146 0 0 1 0 2.29zm3.986 0A1.146 1.146 0 1 1 61.961 5a1.146 1.146 0 0 1 0 2.29zm-3.986 3.987a1.146 1.146 0 1 1 0-2.29 1.146 1.146 0 0 1 0 2.29zm3.986 0a1.146 1.146 0 1 1 .001-2.29 1.146 1.146 0 0 1 0 2.29zm-3.986 3.987a1.146 1.146 0 1 1 0-2.291 1.146 1.146 0 0 1 0 2.29zm3.986 0a1.146 1.146 0 1 1 .001-2.291 1.146 1.146 0 0 1 0 2.29zm3.987-7.974A1.146 1.146 0 1 1 65.948 5a1.146 1.146 0 0 1 0 2.29zm3.987 0a1.146 1.146 0 1 1 0-2.29 1.146 1.146 0 0 1 0 2.29zm-3.987 3.987a1.146 1.146 0 1 1 .001-2.29 1.146 1.146 0 0 1 0 2.29zm3.987 0a1.146 1.146 0 1 1 0-2.29 1.146 1.146 0 0 1 0 2.29zm-3.987 3.987a1.146 1.146 0 1 1 .001-2.291 1.146 1.146 0 0 1 0 2.29zm3.987 0a1.146 1.146 0 1 1 0-2.291 1.146 1.146 0 0 1 0 2.29zM73.92 7.29A1.146 1.146 0 1 1 73.923 5a1.146 1.146 0 0 1-.001 2.29zm3.988 0a1.146 1.146 0 1 1 0-2.29 1.146 1.146 0 0 1 0 2.29zm-3.988 3.987a1.146 1.146 0 1 1 .002-2.29 1.146 1.146 0 0 1-.001 2.29zm3.988 0a1.146 1.146 0 1 1 0-2.29 1.146 1.146 0 0 1 0 2.29zm-3.988 3.987a1.146 1.146 0 1 1 .002-2.291 1.146 1.146 0 0 1-.001 2.29zm3.988 0a1.146 1.146 0 1 1 0-2.291 1.146 1.146 0 0 1 0 2.29zm3.986-7.974A1.146 1.146 0 1 1 81.895 5a1.146 1.146 0 0 1 0 2.29zm0 3.987a1.146 1.146 0 1 1 .001-2.29 1.146 1.146 0 0 1 0 2.29zm0 3.987a1.146 1.146 0 1 1 .001-2.291 1.146 1.146 0 0 1 0 2.29zm3.987-7.974A1.146 1.146 0 1 1 85.882 5a1.146 1.146 0 0 1 0 2.29zm0 3.987a1.146 1.146 0 1 1 .001-2.29 1.146 1.146 0 0 1 0 2.29zm0 3.987a1.146 1.146 0 1 1 .001-2.291 1.146 1.146 0 0 1 0 2.29zm3.987-7.974a1.146 1.146 0 1 1 0-2.29 1.146 1.146 0 0 1 0 2.29zm3.987 0a1.146 1.146 0 1 1 0-2.29 1.146 1.146 0 0 1 0 2.29zm-3.987 3.987a1.146 1.146 0 1 1 0-2.29 1.146 1.146 0 0 1 0 2.29zm3.987 0a1.146 1.146 0 1 1 0-2.29 1.146 1.146 0 0 1 0 2.29zm-3.987 3.987a1.146 1.146 0 1 1 0-2.291 1.146 1.146 0 0 1 0 2.29zm3.987 0a1.146 1.146 0 1 1 0-2.291 1.146 1.146 0 0 1 0 2.29zM6.145 71.08a1.146 1.146 0 1 1 0-2.292 1.146 1.146 0 0 1 0 2.291zm3.987 0a1.146 1.146 0 1 1 0-2.292 1.146 1.146 0 0 1 0 2.291zm-3.987 3.986a1.146 1.146 0 1 1 0-2.291 1.146 1.146 0 0 1 0 2.291zm3.987 0a1.146 1.146 0 1 1 0-2.291 1.146 1.146 0 0 1 0 2.291zm-3.987 3.987a1.146 1.146 0 1 1 0-2.291 1.146 1.146 0 0 1 0 2.29zm3.987 0a1.146 1.146 0 1 1 0-2.291 1.146 1.146 0 0 1 0 2.29zm3.987-7.973a1.146 1.146 0 1 1 0-2.292 1.146 1.146 0 0 1 0 2.291zm0 3.986a1.146 1.146 0 1 1 0-2.291 1.146 1.146 0 0 1 0 2.291zm0 3.987a1.146 1.146 0 1 1 0-2.291 1.146 1.146 0 0 1 0 2.29zM6.145 83.04a1.146 1.146 0 1 1 0-2.291 1.146 1.146 0 0 1 0 2.29zm3.987 0a1.146 1.146 0 1 1 0-2.291 1.146 1.146 0 0 1 0 2.29zm-3.987 3.986a1.146 1.146 0 1 1 0-2.29 1.146 1.146 0 0 1 0 2.29zm3.987 0a1.146 1.146 0 1 1 0-2.29 1.146 1.146 0 0 1 0 2.29zm-3.987 3.987a1.146 1.146 0 1 1 0-2.29 1.146 1.146 0 0 1 0 2.29zm3.987 0a1.146 1.146 0 1 1 0-2.29 1.146 1.146 0 0 1 0 2.29zM6.145 95a1.146 1.146 0 1 1 0-2.291 1.146 1.146 0 0 1 0 2.291zm3.987 0a1.146 1.146 0 1 1 0-2.291 1.146 1.146 0 0 1 0 2.291zm3.987-11.96a1.146 1.146 0 1 1 0-2.291 1.146 1.146 0 0 1 0 2.29zm0 3.986a1.146 1.146 0 1 1 0-2.29 1.146 1.146 0 0 1 0 2.29zm0 3.987a1.146 1.146 0 1 1 0-2.29 1.146 1.146 0 0 1 0 2.29zm0 3.987a1.146 1.146 0 1 1 0-2.291 1.146 1.146 0 0 1 0 2.291zm79.736-2.29a1.146 1.146 0 1 1 0 2.29 1.146 1.146 0 0 1 0-2.29zm-3.987 0a1.146 1.146 0 1 1 0 2.29 1.146 1.146 0 0 1 0-2.29zm3.987-3.987a1.146 1.146 0 1 1 0 2.29 1.146 1.146 0 0 1 0-2.29zm-3.987 0a1.146 1.146 0 1 1 0 2.29 1.146 1.146 0 0 1 0-2.29zm3.987-3.987a1.146 1.146 0 1 1 0 2.291 1.146 1.146 0 0 1 0-2.29zm-3.987 0a1.146 1.146 0 1 1 0 2.291 1.146 1.146 0 0 1 0-2.29zm3.987-3.986a1.146 1.146 0 1 1 0 2.29 1.146 1.146 0 0 1 0-2.29zm-3.987 0a1.146 1.146 0 1 1 0 2.29 1.146 1.146 0 0 1 0-2.29zm-3.987 11.96a1.146 1.146 0 1 1 0 2.29 1.146 1.146 0 0 1 0-2.29zm-3.987 0a1.146 1.146 0 1 1 0 2.29 1.146 1.146 0 0 1 0-2.29zm3.987-3.987a1.146 1.146 0 1 1 0 2.29 1.146 1.146 0 0 1 0-2.29zm-3.987 0a1.146 1.146 0 1 1 0 2.29 1.146 1.146 0 0 1 0-2.29zm3.987-3.987a1.146 1.146 0 1 1 0 2.291 1.146 1.146 0 0 1 0-2.29zm-3.987 0a1.146 1.146 0 1 1 0 2.291 1.146 1.146 0 0 1 0-2.29zm3.987-3.986a1.146 1.146 0 1 1 0 2.29 1.146 1.146 0 0 1 0-2.29zm-7.973 11.96a1.146 1.146 0 1 1-.001 2.29 1.146 1.146 0 0 1 0-2.29zm-3.988 0a1.146 1.146 0 1 1 0 2.29 1.146 1.146 0 0 1 0-2.29zm3.988-3.987a1.146 1.146 0 1 1-.001 2.29 1.146 1.146 0 0 1 0-2.29zm-3.988 0a1.146 1.146 0 1 1 0 2.29 1.146 1.146 0 0 1 0-2.29zm3.988-3.987a1.146 1.146 0 1 1-.001 2.291 1.146 1.146 0 0 1 0-2.29zm-3.988 0a1.146 1.146 0 1 1 0 2.291 1.146 1.146 0 0 1 0-2.29zm-3.986 7.974a1.146 1.146 0 1 1 0 2.29 1.146 1.146 0 0 1 0-2.29zm0-3.987a1.146 1.146 0 1 1 0 2.29 1.146 1.146 0 0 1 0-2.29zm0-3.987a1.146 1.146 0 1 1 0 2.291 1.146 1.146 0 0 1 0-2.29zm23.921-7.974a1.146 1.146 0 1 1 0 2.292 1.146 1.146 0 0 1 0-2.292zm-3.987 0a1.146 1.146 0 1 1 0 2.292 1.146 1.146 0 0 1 0-2.292zm3.987-3.986a1.146 1.146 0 1 1 0 2.29 1.146 1.146 0 0 1 0-2.29zm-3.987 0a1.146 1.146 0 1 1 0 2.29 1.146 1.146 0 0 1 0-2.29zm3.987-3.987a1.146 1.146 0 1 1 0 2.29 1.146 1.146 0 0 1 0-2.29zm-3.987 0a1.146 1.146 0 1 1 0 2.29 1.146 1.146 0 0 1 0-2.29zm3.987-3.987a1.146 1.146 0 1 1 0 2.291 1.146 1.146 0 0 1 0-2.29zm-3.987 0a1.146 1.146 0 1 1 0 2.291 1.146 1.146 0 0 1 0-2.29zm-3.987 11.96a1.146 1.146 0 1 1 0 2.292 1.146 1.146 0 0 1 0-2.292zm0-3.986a1.146 1.146 0 1 1 0 2.29 1.146 1.146 0 0 1 0-2.29zm0-3.987a1.146 1.146 0 1 1 0 2.29 1.146 1.146 0 0 1 0-2.29zm0-3.987a1.146 1.146 0 1 1 0 2.291 1.146 1.146 0 0 1 0-2.29zM65.947 92.71a1.146 1.146 0 1 1 0 2.29 1.146 1.146 0 0 1 0-2.29zm0-3.987a1.146 1.146 0 1 1 0 2.29 1.146 1.146 0 0 1 0-2.29zm0-3.987a1.146 1.146 0 1 1 0 2.291 1.146 1.146 0 0 1 0-2.29zM61.96 92.71a1.146 1.146 0 1 1 0 2.29 1.146 1.146 0 0 1 0-2.29zm-3.986 0a1.146 1.146 0 1 1-.001 2.29 1.146 1.146 0 0 1 0-2.29zm3.986-3.987a1.146 1.146 0 1 1 0 2.29 1.146 1.146 0 0 1 0-2.29zm-3.986 0a1.146 1.146 0 1 1-.001 2.29 1.146 1.146 0 0 1 0-2.29zm3.986-3.987a1.146 1.146 0 1 1 0 2.291 1.146 1.146 0 0 1 0-2.29zm-3.986 0a1.146 1.146 0 1 1-.001 2.291 1.146 1.146 0 0 1 0-2.29zm-3.987 7.974a1.146 1.146 0 1 1 0 2.29 1.146 1.146 0 0 1 0-2.29zm-3.987 0A1.146 1.146 0 1 1 50 95a1.146 1.146 0 0 1 0-2.29zm3.987-3.987a1.146 1.146 0 1 1 0 2.29 1.146 1.146 0 0 1 0-2.29zm-3.987 0a1.146 1.146 0 1 1 0 2.29 1.146 1.146 0 0 1 0-2.29zm3.987-3.987a1.146 1.146 0 1 1 0 2.291 1.146 1.146 0 0 1 0-2.29zm-3.987 0a1.146 1.146 0 1 1 0 2.291 1.146 1.146 0 0 1 0-2.29zm-3.987 7.974a1.146 1.146 0 1 1 0 2.29 1.146 1.146 0 0 1 0-2.29zm0-3.987a1.146 1.146 0 1 1 0 2.29 1.146 1.146 0 0 1 0-2.29zm0-3.987a1.146 1.146 0 1 1 0 2.291 1.146 1.146 0 0 1 0-2.29zm47.842-23.921a1.146 1.146 0 1 1 0 2.291 1.146 1.146 0 0 1 0-2.29zm-3.987 0a1.146 1.146 0 1 1 0 2.291 1.146 1.146 0 0 1 0-2.29zm3.987-3.987a1.146 1.146 0 1 1 0 2.291 1.146 1.146 0 0 1 0-2.29zm-3.987 0a1.146 1.146 0 1 1 0 2.291 1.146 1.146 0 0 1 0-2.29zm3.987-3.986a1.146 1.146 0 1 1 0 2.29 1.146 1.146 0 0 1 0-2.29zm-3.987 0a1.146 1.146 0 1 1 0 2.29 1.146 1.146 0 0 1 0-2.29zm3.987-3.987a1.146 1.146 0 1 1 0 2.29 1.146 1.146 0 0 1 0-2.29zm-3.987 0a1.146 1.146 0 1 1 0 2.29 1.146 1.146 0 0 1 0-2.29zm-3.987 11.96a1.146 1.146 0 1 1 0 2.291 1.146 1.146 0 0 1 0-2.29zm0-3.987a1.146 1.146 0 1 1 0 2.291 1.146 1.146 0 0 1 0-2.29zm0-3.986a1.146 1.146 0 1 1 0 2.29 1.146 1.146 0 0 1 0-2.29zm0-3.987a1.146 1.146 0 1 1 0 2.29 1.146 1.146 0 0 1 0-2.29zm7.974-3.987a1.146 1.146 0 1 1 0 2.291 1.146 1.146 0 0 1 0-2.291zm-3.987 0a1.146 1.146 0 1 1 0 2.291 1.146 1.146 0 0 1 0-2.291zm3.987-3.987a1.146 1.146 0 1 1 0 2.291 1.146 1.146 0 0 1 0-2.29zm-3.987 0a1.146 1.146 0 1 1 0 2.291 1.146 1.146 0 0 1 0-2.29zm3.987-3.987a1.146 1.146 0 1 1 0 2.291 1.146 1.146 0 0 1 0-2.29zm-3.987 0a1.146 1.146 0 1 1 0 2.291 1.146 1.146 0 0 1 0-2.29zm3.987-3.986a1.146 1.146 0 1 1 0 2.29 1.146 1.146 0 0 1 0-2.29zm-3.987 0a1.146 1.146 0 1 1 0 2.29 1.146 1.146 0 0 1 0-2.29zm-3.987 11.96a1.146 1.146 0 1 1 0 2.291 1.146 1.146 0 0 1 0-2.291zm0-3.987a1.146 1.146 0 1 1 0 2.291 1.146 1.146 0 0 1 0-2.29zm0-3.987a1.146 1.146 0 1 1 0 2.291 1.146 1.146 0 0 1 0-2.29zm0-3.986a1.146 1.146 0 1 1 0 2.29 1.146 1.146 0 0 1 0-2.29zM42.026 92.71a1.146 1.146 0 1 1 0 2.29 1.146 1.146 0 0 1 0-2.29zm-3.986 0a1.146 1.146 0 1 1-.001 2.29 1.146 1.146 0 0 1 0-2.29zm3.986-3.987a1.146 1.146 0 1 1 0 2.29 1.146 1.146 0 0 1 0-2.29zm-3.986 0a1.146 1.146 0 1 1-.001 2.29 1.146 1.146 0 0 1 0-2.29zm3.986-3.987a1.146 1.146 0 1 1 0 2.291 1.146 1.146 0 0 1 0-2.29zm-3.986 0a1.146 1.146 0 1 1-.001 2.291 1.146 1.146 0 0 1 0-2.29zm-3.987 7.974a1.146 1.146 0 1 1-.001 2.29 1.146 1.146 0 0 1 0-2.29zm-3.987 0a1.146 1.146 0 1 1 0 2.29 1.146 1.146 0 0 1 0-2.29zm3.987-3.987a1.146 1.146 0 1 1-.001 2.29 1.146 1.146 0 0 1 0-2.29zm-3.987 0a1.146 1.146 0 1 1 0 2.29 1.146 1.146 0 0 1 0-2.29zm3.987-3.987a1.146 1.146 0 1 1-.001 2.291 1.146 1.146 0 0 1 0-2.29zm-3.987 0a1.146 1.146 0 1 1 0 2.291 1.146 1.146 0 0 1 0-2.29zM26.08 92.71a1.146 1.146 0 1 1-.002 2.29 1.146 1.146 0 0 1 .001-2.29zm-3.988 0a1.146 1.146 0 1 1 0 2.29 1.146 1.146 0 0 1 0-2.29zm3.988-3.987a1.146 1.146 0 1 1-.002 2.29 1.146 1.146 0 0 1 .001-2.29zm-3.988 0a1.146 1.146 0 1 1 0 2.29 1.146 1.146 0 0 1 0-2.29zm3.988-3.987a1.146 1.146 0 1 1-.002 2.291 1.146 1.146 0 0 1 .001-2.29zm-3.988 0a1.146 1.146 0 1 1 0 2.291 1.146 1.146 0 0 1 0-2.29zm-3.986 7.974a1.146 1.146 0 1 1-.001 2.29 1.146 1.146 0 0 1 0-2.29zm0-3.987a1.146 1.146 0 1 1-.001 2.29 1.146 1.146 0 0 1 0-2.29zm0-3.987a1.146 1.146 0 1 1-.001 2.291 1.146 1.146 0 0 1 0-2.29zM93.855 28.92a1.146 1.146 0 1 1 0 2.292 1.146 1.146 0 0 1 0-2.291zm-3.987 0a1.146 1.146 0 1 1 0 2.292 1.146 1.146 0 0 1 0-2.291zm3.987-3.986a1.146 1.146 0 1 1 0 2.291 1.146 1.146 0 0 1 0-2.291zm-3.987 0a1.146 1.146 0 1 1 0 2.291 1.146 1.146 0 0 1 0-2.291zm3.987-3.987a1.146 1.146 0 1 1 0 2.291 1.146 1.146 0 0 1 0-2.29zm-3.987 0a1.146 1.146 0 1 1 0 2.291 1.146 1.146 0 0 1 0-2.29zm-3.987 7.973a1.146 1.146 0 1 1 0 2.292 1.146 1.146 0 0 1 0-2.291zm0-3.986a1.146 1.146 0 1 1 0 2.291 1.146 1.146 0 0 1 0-2.291zm0-3.987a1.146 1.146 0 1 1 0 2.291 1.146 1.146 0 0 1 0-2.29zm7.974-3.987a1.146 1.146 0 1 1 0 2.291 1.146 1.146 0 0 1 0-2.29zm-3.987 0a1.146 1.146 0 1 1 0 2.291 1.146 1.146 0 0 1 0-2.29zm-3.987 0a1.146 1.146 0 1 1 0 2.291 1.146 1.146 0 0 1 0-2.29z"/>
</svg>
