<svg height="100" width="100" xmlns="http://www.w3.org/2000/svg">
    <path d="M80.546 38.706a1 1 0 001-1v-7.54a1 1 0 00-1-1h-9.917V11a1 1 0 00-1-1h-39a1 1 0 00-1 1v18.167h-9.916a1 1 0 00-1 1v7.54a1 1 0 001 1h1.201V80.46h-1.201a1 1 0 00-1 1V89a1 1 0 001 1h60.833a1 1 0 001-1v-7.54a1 1 0 00-1-1h-1.46V38.707h1.46zM31.629 12h37v17.167h-37V12zM20.713 31.167h58.833v5.54H20.713v-5.54zM79.546 88H20.713v-5.54h58.833V88zm-2.46-7.54H22.914V38.707h54.172v41.755z"/>
    <path d="M50 76.691c9.472 0 17.178-7.706 17.178-17.178S59.472 42.335 50 42.335s-17.178 7.706-17.178 17.178S40.528 76.691 50 76.691zm0-32.356c8.37 0 15.178 6.809 15.178 15.178S58.369 74.691 50 74.691s-15.178-6.809-15.178-15.178S41.631 44.335 50 44.335z"/>
    <path d="M38.564 56.958l4.993 4.866-1.178 6.872a1 1 0 001.451 1.054L50 66.506l6.17 3.244a1.005 1.005 0 001.054-.076 1 1 0 00.397-.978l-1.178-6.872 4.993-4.866a1 1 0 00-.555-1.706l-6.899-1.002-3.086-6.251c-.335-.683-1.457-.683-1.792 0l-3.086 6.25-6.899 1.003a1.001 1.001 0 00-.555 1.706zm8.261-.805a.999.999 0 00.753-.547L50 50.7l2.422 4.906c.145.295.427.5.753.547l5.414.787-3.918 3.82a1 1 0 00-.287.884l.924 5.393-4.842-2.546a1.002 1.002 0 00-.932 0l-4.842 2.546.924-5.393a1 1 0 00-.287-.885l-3.918-3.82 5.414-.786zm-4.946-33.07h-3.666a1 1 0 100 2h3.666a1 1 0 100-2zm20.167 0H48.009a1 1 0 100 2h14.037a1 1 0 100-2zm-20.167-6.187h-3.666a1 1 0 100 2h3.666a1 1 0 100-2zm6.13 2h14.037a1 1 0 100-2H48.009a1 1 0 100 2z"/>
</svg>
