<svg height="100" width="100" xmlns="http://www.w3.org/2000/svg">
    <path d="M48.76 16.638l-2.49-4.31.521 5.614 1.983-1.146zm23.22-4.713l-7.448 37.827c-1.388.27-2.741.565-4.058.881l.916-17.097a4.692 4.692 0 01-.678.053c-.496 0-.968-.087-1.396-.248l-.955 17.823a102.93 102.93 0 00-6.225 1.846L49.525 24.9l-1.983 1.146 2.571 27.662a80.647 80.647 0 00-2.88 1.082L39.78 30.532l-1.809 1.046c-.014.008-.028.013-.041.021l7.372 23.987c-1.892.818-3.178 1.49-3.667 1.855-1.265.949-2.766 9.014-3.959 18.059L27.295 85.881l7.407 7.408H24.116v3.537h44.475v-3.537H54.254L65.49 82.051l-6.152-6.152 2.229-2.227c1.437-1.438 3.203-5.396 1.138-8.283l9.188-7.012s.096-2.658.002-8.672c-.011-.612-.578-1.008-1.5-.894a83.306 83.306 0 00-3.662.54l7.641-38.81-2.394 1.384zM61.371 82.051L50.134 93.289H38.823l-7.408-7.408 16.893-16.893 3.785 3.785-5.496 5.5c-1.525 1.524-1.6 3.922-.168 5.354 1.434 1.432 3.83 1.357 5.355-.17l5.495-5.498 4.092 4.092z"/>
    <path d="M75.613 5.557c-.396-.685-1.146-1.078-2.061-1.078-.634 0-1.291.187-1.9.539l-15.641 9.038-5.667-9.805c-.396-.685-1.146-1.077-2.061-1.077-.635 0-1.292.187-1.902.539-.656.379-1.186.918-1.492 1.518-.381.749-.389 1.545-.02 2.184l5.666 9.805-15.642 9.038c-1.534.889-2.198 2.514-1.513 3.701.396.686 1.146 1.077 2.061 1.077.635 0 1.292-.186 1.902-.538l15.641-9.039 5.666 9.805c.396.685 1.146 1.077 2.062 1.077.634 0 1.291-.187 1.901-.538 1.533-.888 2.197-2.513 1.512-3.701l-5.666-9.806L74.1 9.258c1.537-.889 2.201-2.514 1.513-3.701z"/>
</svg>
