<svg height="100" width="100" xmlns="http://www.w3.org/2000/svg">
    <path d="M52.866 79.463l.498.047-.094.996-.497-.047a31.774 31.774 0 00-5.559-.038l-.498.04-.08-.996.498-.04a33.058 33.058 0 015.732.038zm-9.32-15.157a2.864 2.864 0 001.715.546 3.729 3.729 0 002.163-.732 4.424 4.424 0 002.689.93h.054a4.412 4.412 0 002.488-.812l-.087.12a3.729 3.729 0 002.17.737 2.862 2.862 0 001.716-.546 2.985 2.985 0 001.097-1.786l-.978-.205a1.985 1.985 0 01-.713 1.186 2.284 2.284 0 01-2.54-.092 4.481 4.481 0 00.9-1.373l-.925-.38a3.448 3.448 0 01-3.141 2.15 3.514 3.514 0 01-3.258-2.218l-.932.361a4.453 4.453 0 00.715 1.217 2.285 2.285 0 01-2.539.092 1.992 1.992 0 01-.713-1.188l-.978.207a2.995 2.995 0 001.097 1.786zm-6.413 6.855l.37-.337-.673-.739-.37.336a2.388 2.388 0 00-.553.74 3.257 3.257 0 00-.194 1.59 5.614 5.614 0 00.144 1.044l.457 2.372.982-.187-.458-2.381a4.712 4.712 0 01-.125-.875 2.489 2.489 0 01.097-1.134 1.391 1.391 0 01.323-.429zm26.407-.74l-.37-.336-.673.74.37.336a1.382 1.382 0 01.323.429 2.48 2.48 0 01.098 1.134 4.713 4.713 0 01-.125.875l-.458 2.38.982.188.457-2.372a5.614 5.614 0 00.144-1.044 3.251 3.251 0 00-.195-1.59 2.379 2.379 0 00-.553-.74zM24.047 60.93c-.173-.138-.286-.683-.484-2.33-.132-1.088-.158-1.502-.045-1.658a.367.367 0 01.18-.13l.568-.205-.41-1.134-.568.205a1.558 1.558 0 00-.745.554c-.396.543-.341 1.163-.179 2.512.241 1.994.366 2.677.929 3.128a1.645 1.645 0 00.678.322l.59.128.256-1.18-.59-.127a.433.433 0 01-.18-.085zm52.588-5.252l-.567-.205-.412 1.133.568.206a.368.368 0 01.181.131c.113.155.086.569-.045 1.657-.199 1.647-.311 2.192-.483 2.329a.427.427 0 01-.181.086l-.59.127.257 1.18.589-.128a1.633 1.633 0 00.68-.323c.56-.45.686-1.133.926-3.127.163-1.35.218-1.969-.177-2.512a1.561 1.561 0 00-.746-.554zm4.779-7.922c-.06.584-.062 1.18-.065 1.81a18.814 18.814 0 01-.078 1.992c-.123 1.128-.136 1.506-.153 2.03-.018.573-.042 1.288-.219 3.259-.307 3.415-.674 6.441-2.047 8.888a3.939 3.939 0 01-3.695 2.187 6.005 6.005 0 01-1.1-.107c-1.053 3.86-2.19 7.967-2.634 9.482a15.124 15.124 0 01-1.828 4.106 8.228 8.228 0 01-.216.323 15.934 15.934 0 01-3.225 3.348c-.812.647-3.799 2.993-8.135 6.05l-.24.168c-.108.112-.22.223-.34.33-1.337 1.19-3.582 1.77-6.851 1.77-.195 0-.392-.001-.594-.005-3.584.063-6.017-.505-7.432-1.765a6.486 6.486 0 01-.492-.493l-.007-.005c-4.206-2.965-7.091-5.219-8.137-6.05a15.959 15.959 0 01-3.223-3.348 8.416 8.416 0 01-.217-.324 15.119 15.119 0 01-1.827-4.105c-.443-1.509-1.583-5.627-2.638-9.496a6.077 6.077 0 01-1.178.12 3.939 3.939 0 01-3.695-2.185c-1.372-2.448-1.74-5.474-2.047-8.89-.177-1.97-.2-2.685-.219-3.258-.017-.524-.03-.901-.153-2.03a18.814 18.814 0 01-.078-1.993c-.002-.63-.004-1.225-.066-1.82-.024-.195-.229-2.031.55-2.9a1.711 1.711 0 011.093-.642 30.285 30.285 0 01-.656-3.197s-.068-.412-.114-.85c-.005-.05-.532-5.18-.447-7.827.21-6.57 3.49-12.668 4.703-14.004l-.07-.05a26.09 26.09 0 0110.573-8.292 35.412 35.412 0 0115.59-3.376h.38a35.42 35.42 0 0115.597 3.376 26.09 26.09 0 0110.572 8.292l-.07.05C77.5 19.661 80.78 25.76 80.99 32.33c.085 2.648-.441 7.777-.447 7.828-.046.44-.115.858-.115.858a30.177 30.177 0 01-.654 3.188 1.705 1.705 0 011.091.642c.78.869.576 2.705.55 2.91zM20.51 40.044c.043.408.106.792.107.798a30.098 30.098 0 00.721 3.429c.288 1.08.486 1.668.714 2.35.182.54.38 1.13.651 2.048.288.975.555 1.964.793 2.945l1.914 1.122c.319-1.55.566-3.104.745-4.654l-2.557-2 .616-.788 2.053 1.606c.102-1.1.18-2.196.21-3.284a37.317 37.317 0 00-.188-4.732c-.124-1.457-.265-3.108-.327-5.743-.122-5.186-.19-8.042.866-9.985a12.63 12.63 0 019.28-6.043 8.928 8.928 0 012.99.142c.952.148 2.256.351 4.517.578 2.446.247 4.38.442 6.384.482 2.004-.04 3.938-.235 6.384-.481a74.827 74.827 0 004.517-.58 12.51 12.51 0 011.966-.213 8.003 8.003 0 011.025.072 12.628 12.628 0 019.279 6.043c1.056 1.943.989 4.8.866 9.985-.062 2.635-.203 4.286-.327 5.743a37.317 37.317 0 00-.188 4.732c.03 1.124.113 2.258.22 3.394l2.044-1.598.616.788-2.546 1.99c.178 1.514.422 3.032.734 4.546l1.914-1.122c.237-.981.504-1.97.792-2.945.272-.918.47-1.508.651-2.048.228-.682.426-1.27.714-2.35a30.002 30.002 0 00.72-3.421c.002-.014.065-.398.108-.805.006-.05.525-5.104.442-7.683a27.158 27.158 0 00-4.434-13.467 24.792 24.792 0 00-10.176-7.958 34.404 34.404 0 00-15.14-3.271h-.367a34.396 34.396 0 00-15.135 3.27 24.793 24.793 0 00-10.174 7.957 27.164 27.164 0 00-4.435 13.47c-.083 2.578.436 7.632.44 7.681zm50.955 8.746l1.29-1.01a52.057 52.057 0 01-.292-4.134 38.18 38.18 0 01.191-4.852c.123-1.441.262-3.075.324-5.679.127-5.38.146-7.827-.739-9.453a11.667 11.667 0 00-8.482-5.498 7.923 7.923 0 00-2.694.137c-.91.142-2.284.356-4.574.586-2.471.25-4.425.447-6.473.488h-.023c-2.052-.04-4.008-.238-6.484-.488a75.493 75.493 0 01-4.573-.586 7.92 7.92 0 00-2.695-.137 11.67 11.67 0 00-8.483 5.498c-.883 1.626-.864 4.073-.737 9.453.061 2.604.2 4.238.323 5.679a38.178 38.178 0 01.192 4.852 52.052 52.052 0 01-.283 4.025l1.416 1.107a6.64 6.64 0 011.186-3.061 5.86 5.86 0 012.962-1.863c1.61-.57 3.342-.655 6.742-.804a18.348 18.348 0 013.722.1 9.363 9.363 0 012.352.602h8.679a8.732 8.732 0 012.529-.684 18.348 18.348 0 013.722-.101c3.4.15 5.132.235 6.742.805a5.86 5.86 0 012.962 1.862 6.656 6.656 0 011.188 3.071l.01.085zM52.99 44.785h-5.934a3.913 3.913 0 01.883 1.505 2.39 2.39 0 01.799-.146h2.883a2.399 2.399 0 01.56.072 3.907 3.907 0 01.81-1.43zm27.077.776c-.253-.282-.376-.319-.578-.308-.198.69-.36 1.171-.538 1.705-.178.53-.373 1.11-.64 2.012a59.919 59.919 0 00-.83 3.11l-.052.22-3.566 2.09-.156-.712a55.073 55.073 0 01-.819-4.73l-1.32 1.031c.007.35-.004.65-.013.867a12.467 12.467 0 01-.199 1.743 9.519 9.519 0 01-.896 2.888 7.13 7.13 0 01-3.037 2.887 7.587 7.587 0 01-4.482.729 9.174 9.174 0 01-2.477-.832 13.108 13.108 0 01-2.631-1.561 14.244 14.244 0 01-2.803-3.068 16.573 16.573 0 01-1.81-2.817 8.567 8.567 0 01-1.186-3.569 1.37 1.37 0 00-.413-.07h-2.884a1.37 1.37 0 00-.646.168 8.617 8.617 0 01-1.186 3.554 16.573 16.573 0 01-1.811 2.817 14.244 14.244 0 01-2.803 3.068 13.11 13.11 0 01-2.63 1.56 9.174 9.174 0 01-2.478.832 7.587 7.587 0 01-4.482-.728 7.13 7.13 0 01-3.037-2.888 9.517 9.517 0 01-.896-2.888 12.458 12.458 0 01-.2-1.742c-.01-.238-.02-.575-.009-.968l-1.431-1.12a55.039 55.039 0 01-.835 4.837l-.156.712-3.566-2.09-.052-.22a59.929 59.929 0 00-.83-3.11 51.803 51.803 0 00-.64-2.012 36.537 36.537 0 01-.537-1.704c-.202-.008-.325.025-.58.308a3.358 3.358 0 00-.282 2.061 19.384 19.384 0 01.073 1.939 17.774 17.774 0 00.072 1.878c.128 1.17.141 1.586.158 2.113.018.56.041 1.258.216 3.198.296 3.29.645 6.197 1.914 8.46a3.138 3.138 0 00.994 1.154 3.618 3.618 0 002.66.399l-.517-1.91-.131-.483.965-.26.13.482c1.209 4.466 2.877 10.523 3.435 12.423a14.178 14.178 0 001.708 3.846c.056.09.118.182.192.285a14.925 14.925 0 003.03 3.144 173.91 173.91 0 006.359 4.78 4.346 4.346 0 01-.107-.867v-.523h1.047v.523a4.264 4.264 0 00.24 1.234 8.029 8.029 0 00.822 1.058l.138.098-.02.028a5.2 5.2 0 00.23.219c1.21 1.076 3.416 1.567 6.727 1.499 3.343.06 5.548-.424 6.757-1.5a6.954 6.954 0 001.2-1.458 4.67 4.67 0 00.21-1.178v-.523h1.047v.523a4.569 4.569 0 01-.116.934c3.42-2.46 5.75-4.29 6.449-4.847a14.944 14.944 0 003.03-3.142 7.42 7.42 0 00.192-.286 14.212 14.212 0 001.71-3.847c.44-1.506 1.57-5.589 2.62-9.435l-.015-.004.272-1.037.025.007c.183-.672.362-1.33.53-1.954l.131-.483.965.261-.13.483-.522 1.923a3.57 3.57 0 002.583-.412 3.13 3.13 0 00.995-1.154c1.269-2.263 1.617-5.17 1.914-8.46.174-1.94.197-2.638.215-3.198.017-.527.03-.943.159-2.113a17.769 17.769 0 00.072-1.879c.002-.628.004-1.279.07-1.926a3.373 3.373 0 00-.28-2.074zm-22.35 28.117l-1.32-.58-.302-.026a7.91 7.91 0 00-.962-.028 9.025 9.025 0 00-1.925.29 25.94 25.94 0 01-1.294.268 11.407 11.407 0 01-1.878.242l-.16.001a14.242 14.242 0 01-3.204-.484l-.281-.064a8.03 8.03 0 00-1.7-.253 8.272 8.272 0 00-.963.028l-.294.026-1.184.557-.426-.905 1.305-.614.019.04-.005-.057.498-.043a9.499 9.499 0 011.082-.032 9.107 9.107 0 011.889.278l.276.062a12.645 12.645 0 003.129.46 10.508 10.508 0 001.722-.226c.492-.088.888-.178 1.247-.26a10.003 10.003 0 012.117-.314 9.085 9.085 0 011.08.032l.498.043-.001.01 1.438.633z"/>
</svg>
