<svg height="100" width="100" xmlns="http://www.w3.org/2000/svg">
    <path d="M59.17 27.996a.375.375 0 1 1-.598.451 2.561 2.561 0 0 0-1.075-.852 3.303 3.303 0 0 0-1.823-.067 9.72 9.72 0 0 0-2.698.81.375.375 0 0 1-.315-.68 10.47 10.47 0 0 1 2.906-.872 4.056 4.056 0 0 1 2.214.114 3.344 3.344 0 0 1 1.39 1.096zm-15.23-.748a4.722 4.722 0 0 1 2.042.612.375.375 0 0 0 .371-.651 5.368 5.368 0 0 0-3.853-.591 5.362 5.362 0 0 0-2.313 1.185.375.375 0 0 0 .492.567 4.603 4.603 0 0 1 1.988-1.02 4.47 4.47 0 0 1 1.272-.102zm1.178 2.689c.023.008.044.007.068.017a2.114 2.114 0 0 1 .93.75.375.375 0 0 0 .612-.433 2.866 2.866 0 0 0-1.264-1.014 3.048 3.048 0 0 0-1.139-.194 5.024 5.024 0 0 0-1.949.371 5.85 5.85 0 0 0-1.479.836.375.375 0 0 0 .23.67.37.37 0 0 0 .229-.078 5.116 5.116 0 0 1 1.29-.728c.1-.039.252-.092.424-.145a1.134 1.134 0 0 0-.108.473 1.149 1.149 0 0 0 2.298 0 1.12 1.12 0 0 0-.142-.525zm10.948-.91a3.892 3.892 0 0 0-2.73.657 4.034 4.034 0 0 0-.622.51.375.375 0 1 0 .532.53 3.277 3.277 0 0 1 .504-.415 3.538 3.538 0 0 1 .697-.35 1.087 1.087 0 0 0-.053.171 1.149 1.149 0 1 0 2.287.232 1.133 1.133 0 0 0-.04-.4 3.216 3.216 0 0 1 .966.608.375.375 0 1 0 .511-.549 3.809 3.809 0 0 0-2.052-.993zm-.705 13.983a.25.25 0 0 1-.244.239c-.206.004-.473.01-.767.02a.239.239 0 0 1-.025.14 4.754 4.754 0 0 1-1.53 1.494 4.707 4.707 0 0 1-2.45.668 5.308 5.308 0 0 1-.642-.04 5.234 5.234 0 0 1-3.383-1.93.232.232 0 0 1-.033-.113 3.826 3.826 0 0 1-.914-.13.25.25 0 0 1 .058-.492 3.975 3.975 0 0 0 1.51-.325c.194-.086.499-.25 1.116-.582l.17-.09a2.561 2.561 0 0 1 .747-.34 1.805 1.805 0 0 1 1.443.507 1.93 1.93 0 0 1 1.368-.609 2.578 2.578 0 0 1 1.069.352 3.853 3.853 0 0 1 .587.377 3.415 3.415 0 0 0 1.699.594.25.25 0 0 1 .22.26zm-8.098-.067a8.827 8.827 0 0 1 1.018-.01 9.456 9.456 0 0 1 1.482.233l.357.074a1.263 1.263 0 0 0 .4.06.973.973 0 0 0 .313-.077 5.245 5.245 0 0 1 .502-.157 7.272 7.272 0 0 1 .923-.177 8.36 8.36 0 0 1 .813-.071l.445-.02a2.701 2.701 0 0 1-.34-.216 3.617 3.617 0 0 0-.552-.359 2.139 2.139 0 0 0-.858-.296 1.512 1.512 0 0 0-1.138.616.25.25 0 0 1-.175.088.244.244 0 0 1-.184-.064c-.47-.427-.875-.614-1.2-.547a2.366 2.366 0 0 0-.606.29l-.169.09a33.73 33.73 0 0 1-1.031.543zm6.519.345q-.335.013-.687.029c-.193.01-.442.022-.769.067a7.013 7.013 0 0 0-.865.166 4.621 4.621 0 0 0-.459.143 1.486 1.486 0 0 1-.444.105c-.032.002-.06.004-.088.004a2.252 2.252 0 0 1-.453-.073l-.353-.073a9.133 9.133 0 0 0-1.41-.224c-.19-.01-.386-.01-.407-.01-.221 0-.383.01-.676.028l-.307.02a4.68 4.68 0 0 0 2.9 1.566 4.292 4.292 0 0 0 2.773-.56 4.236 4.236 0 0 0 1.245-1.188zm-5.726-5.206a.913.913 0 0 1 .364-.025.853.853 0 0 1 .483.24.759.759 0 0 1 .142.221 1.223 1.223 0 0 0 .324.439 1.756 1.756 0 0 0 .244.172 1.83 1.83 0 0 0 .882.218 1.741 1.741 0 0 0 .85-.213 1.328 1.328 0 0 0 .408-.352 2.048 2.048 0 0 1 .421-.393 3.24 3.24 0 0 1 .552-.32.25.25 0 1 0-.207-.455 3.702 3.702 0 0 0-.637.37 2.525 2.525 0 0 0-.511.476.843.843 0 0 1-.268.237 1.35 1.35 0 0 1-1.242-.002 1.239 1.239 0 0 1-.165-.116.726.726 0 0 1-.2-.279 1.246 1.246 0 0 0-.23-.349 1.357 1.357 0 0 0-.77-.388 1.39 1.39 0 0 0-.575.038.25.25 0 0 0 .135.481zm2.87-4.091a10.315 10.315 0 0 1 .157 1.91.25.25 0 0 0 .247.253h.003a.25.25 0 0 0 .25-.248 10.807 10.807 0 0 0-.164-2.003c-.056-.314-.12-.59-.182-.851a5.6 5.6 0 0 1-.21-1.782 4.877 4.877 0 0 1 .126-.83.25.25 0 1 0-.486-.117 5.42 5.42 0 0 0-.139.915 5.99 5.99 0 0 0 .222 1.927c.06.254.122.522.177.826zm-4.147 4.304a.25.25 0 1 0 .414-.28 1.198 1.198 0 0 1-.207-.622 1.251 1.251 0 0 1 .313-.858.25.25 0 0 0-.376-.33 1.762 1.762 0 0 0-.437 1.209 1.7 1.7 0 0 0 .293.88zm6.658-.229a.249.249 0 0 0 .322-.144 1.74 1.74 0 0 0-.033-1.33 1.674 1.674 0 0 0-.59-.685.25.25 0 1 0-.278.416 1.173 1.173 0 0 1 .414.479 1.238 1.238 0 0 1 .02.942.25.25 0 0 0 .145.322zM40.043 57.301a1.044 1.044 0 0 1-.384-.074 1.01 1.01 0 0 1-.557-.548 1.124 1.124 0 0 1-.005-.857 1.06 1.06 0 0 1 .599-.59 1.005 1.005 0 0 1 .797.027 1.084 1.084 0 0 1 .532 1.383 1.065 1.065 0 0 1-.982.659zm.237-1.59a.504.504 0 0 0-.404-.012.559.559 0 0 0-.316.314.614.614 0 0 0 .002.468.512.512 0 0 0 .281.28.556.556 0 0 0 .719-.308.58.58 0 0 0-.282-.741zm.286 2.943a1.084 1.084 0 0 1-1.016.722 1.02 1.02 0 0 1-.313-.049.989.989 0 0 1-.589-.504 1.115 1.115 0 0 1-.056-.858 1.066 1.066 0 0 1 .556-.632.996.996 0 0 1 .787-.026 1.079 1.079 0 0 1 .63 1.347zm-.812-.88a.494.494 0 0 0-.182-.035.503.503 0 0 0-.212.047.567.567 0 0 0-.295.339.613.613 0 0 0 .029.472.497.497 0 0 0 .293.254.57.57 0 0 0 .367-1.078zm1.87 11.366a.836.836 0 0 1-.679.412q-.044.003-.088.003a1.174 1.174 0 0 1-.904-.445 1.059 1.059 0 0 1-.231-.91.93.93 0 0 1 .514-.634 1.127 1.127 0 0 1 1.33.214 1.278 1.278 0 0 1 .059 1.36zm-.449-1.05a.518.518 0 0 0-.392-.147.809.809 0 0 0-.336.077.433.433 0 0 0-.238.293.57.57 0 0 0 .134.485.633.633 0 0 0 .56.255.345.345 0 0 0 .285-.157l.001-.003a.769.769 0 0 0-.014-.802zm2.631.896a.884.884 0 0 1-.184.782 1.138 1.138 0 0 1-.9.41l-.062-.001a1.067 1.067 0 0 1-.877-.49.873.873 0 0 1-.055-.811 1.133 1.133 0 0 1 1.017-.787 1.218 1.218 0 0 1 1.061.897zm-.484.126v-.004a.712.712 0 0 0-.593-.52h-.005c-.197 0-.406.187-.539.491a.37.37 0 0 0 .026.35.573.573 0 0 0 .475.248.628.628 0 0 0 .546-.224.388.388 0 0 0 .09-.34zm19.855-37.919A.25.25 0 0 0 63 31.5a4.959 4.959 0 0 1 .24 1.355 1.474 1.474 0 0 1-.452 1.115.25.25 0 0 0 .323.382 1.973 1.973 0 0 0 .63-1.488 5.356 5.356 0 0 0-.258-1.495.25.25 0 0 0-.307-.176zm30.465 53.472a.375.375 0 0 1-.375.375h-85a.375.375 0 1 1 0-.75h8.75c.835-7.825 1.265-11.899 1.277-12.104l-.008-.195a42.61 42.61 0 0 1 .102-4.382c.043-.575.107-1.193.2-1.879a24.65 24.65 0 0 1 1.116-4.752c1.086-2.822 3.805-4.754 5.546-5.753a4.492 4.492 0 0 1-1.722-1.377 8.468 8.468 0 0 1-1.547-3.394.375.375 0 0 1 .078-.321.36.36 0 0 1 .3-.136 5.205 5.205 0 0 0 4.495-2.297 6.98 6.98 0 0 1-3.137-3.056.375.375 0 0 1 .275-.544 3.701 3.701 0 0 0 2.423-1.327 4.897 4.897 0 0 0 .612-2.041 12.197 12.197 0 0 0 .01-2.925c-.04-.48-.082-1-.104-1.622a21.07 21.07 0 0 1 .09-3.264 40.394 40.394 0 0 1 4.836-15.569c.234-.41.563-.918.951-1.519.26-.403.548-.848.852-1.333a22.235 22.235 0 0 1 8.664-8.501 16.095 16.095 0 0 1 5.012-1.61 14.676 14.676 0 0 1 5.217.26h.01a14.09 14.09 0 0 1 4.648 1.112 15.398 15.398 0 0 1 3.863 2.466 21.526 21.526 0 0 1 4.269 4.713 23.74 23.74 0 0 1 3.223 8.573 37.101 37.101 0 0 1 .853 6.83 41.05 41.05 0 0 1-.996 10.586l-.054.208a11.006 11.006 0 0 0-.047 3.961 5.485 5.485 0 0 0 1.332 3.13 3.46 3.46 0 0 0 1.74.953 3.825 3.825 0 0 0 3.097-.963.38.38 0 0 1 .395-.066.375.375 0 0 1 .23.328 6.623 6.623 0 0 1-2.145 5.122 6.316 6.316 0 0 1-3.871 1.521c-.024.081-.053.168-.081.253a.367.367 0 0 1 .267.015 68.013 68.013 0 0 1 5.893 3.056 26.943 26.943 0 0 1 4.911 3.306 18.018 18.018 0 0 1 4.263 5.506 11.305 11.305 0 0 1 .553 1.342 22.992 22.992 0 0 1 1.073 7.893 53.839 53.839 0 0 0 .778 9.796h6.508a.375.375 0 0 1 .375.375zm-24.82-30.736a8.45 8.45 0 0 1-5.656 5.038 8.539 8.539 0 0 1-2.225.295l-.179-.002a.364.364 0 0 1-.18-.058c-.23.128-.48.25-.741.366a.364.364 0 0 1-.052.18l-2.483 3.954 5.082-.282a.342.342 0 0 1 .347.187.377.377 0 0 1-.014.395L49.227 84.29h24.375c.204-3.601.297-6.142.282-7.755-.008-.746.046-1.402.154-2.71a6.374 6.374 0 0 1 .448-2.288 7.265 7.265 0 0 1 1.002-1.539 12.803 12.803 0 0 1 1.127-1.272.375.375 0 1 1 .526.534 12.179 12.179 0 0 0-1.06 1.197 6.735 6.735 0 0 0-.91 1.387 5.645 5.645 0 0 0-.386 2.043c-.105 1.284-.159 1.93-.151 2.64.015 1.624-.077 4.168-.28 7.763H86a54.476 54.476 0 0 1-.77-9.813 22.252 22.252 0 0 0-1.035-7.638 10.246 10.246 0 0 0-.516-1.254 17.287 17.287 0 0 0-4.089-5.273 26.059 26.059 0 0 0-4.788-3.216 67.125 67.125 0 0 0-5.827-3.024.364.364 0 0 1-.155-.143zM48.325 84.29l13.356-20.08-5.058.281a.352.352 0 0 1-.345-.183.375.375 0 0 1 .006-.39l2.477-3.945a9.442 9.442 0 0 1-2.732.401 10.21 10.21 0 0 1-2.475-.309.375.375 0 0 1-.028-.718 5.832 5.832 0 0 0 2.047-1.2 5.765 5.765 0 0 0 .639-.681 14.584 14.584 0 0 1-4.066.951 51.639 51.639 0 0 1-.698 6.152 53.276 53.276 0 0 1-7.852 19.721zm-5.615 0a52.607 52.607 0 0 0 8-19.852 51.025 51.025 0 0 0 .68-5.972c-.236.009-.471.015-.708.012a191.98 191.98 0 0 1-11.585 23.746.374.374 0 0 1-.325.187.389.389 0 0 1-.094-.012.376.376 0 0 1-.281-.357c-.062-4.29-.154-8.65-.274-12.96-.04-1.444-.088-2.902-.135-4.357-.002-.023-.014-.042-.015-.065 0-.022.01-.04.011-.061-.02-.612-.035-1.22-.056-1.832-.002-.007 0-.013 0-.02q-.095-2.759-.207-5.513A59.776 59.776 0 0 0 36.11 84.29zm-14.9 0h7.541a60.443 60.443 0 0 1 1.7-27.424 11.507 11.507 0 0 1-1.248 1.033 6.132 6.132 0 0 1-2.814 1.392 4.608 4.608 0 0 1-.666.049 4.85 4.85 0 0 1-1.112-.135l.447 4.497a.375.375 0 0 1-.504.389l-3.43-1.27zm9.872-69.361a21.668 21.668 0 0 0-3.61 9.151 78.249 78.249 0 0 0-.91 14.153 66.476 66.476 0 0 1-.632 11.224 7.395 7.395 0 0 1-2.265 4.453 6.717 6.717 0 0 1-3.834 1.464 4.721 4.721 0 0 0 2.996 2.25l.046.007.03.005a3.313 3.313 0 0 0 1.715-.128c.424-.154 1.288-.679 2.318-2.48a13.938 13.938 0 0 0 1.674-5.03 21.537 21.537 0 0 0 .064-4.287c-.124-2.369-.353-4.116-.555-5.657a37.722 37.722 0 0 1-.442-6.214c.021-1.12.084-2.087.11-2.45a49.41 49.41 0 0 1 .66-5.155 21.825 21.825 0 0 1 1.298-5.147 19.174 19.174 0 0 1 3.1-4.99 16.789 16.789 0 0 1 3.105-3.18c2.937-2.116 6.64-1.984 9.227-1.502a.426.426 0 0 1 .036.009 17.116 17.116 0 0 0 .42-2.154 13.8 13.8 0 0 0-9.494.981 14.13 14.13 0 0 0-5.057 4.677zm24.412 42.27a7.65 7.65 0 0 0 2.634-3.334 7.7 7.7 0 0 0-.532-5.258 11.305 11.305 0 0 0-.957-1.908c-.19-.32-.382-.64-.58-1.04-.14-.283-.239-.499-.318-.69 0 0-.112-.27-.21-.551a17.052 17.052 0 0 1-.465-2.99 27.66 27.66 0 0 1-1.18 2.556 11.066 11.066 0 0 1-.747 1.22c-.049.067-.104.131-.155.198a11.892 11.892 0 0 1 .838 5.135 9.579 9.579 0 0 1-.14 1.165 9.786 9.786 0 0 1-2.72 4.957c-.005.006-.013.008-.019.013a.354.354 0 0 1-.018.118 6.49 6.49 0 0 1-2.63 2.764 8.858 8.858 0 0 0 3.691-.31 9.407 9.407 0 0 0 3.508-2.046zm-5.142-.88a.355.355 0 0 1 .073-.183 8.334 8.334 0 0 0 2.649-5.647 11.074 11.074 0 0 0-.648-4.402c-.134.151-.266.304-.408.447a14 14 0 0 1-3.122 7.139 13.846 13.846 0 0 1-5.693 4.02 13.814 13.814 0 0 0 7.15-1.375zM45.245 68.37a.441.441 0 0 0-.075-.365.619.619 0 0 0-.492-.24.571.571 0 0 0-.276.068.605.605 0 0 0-.223.731.44.44 0 0 0 .261.274.555.555 0 0 0 .485-.047.63.63 0 0 0 .32-.42zm4.639-9.921a14.824 14.824 0 0 1-1.867-.246.375.375 0 0 1-.016-.732 12.997 12.997 0 0 0 9.664-9.851c-.236.253-.472.506-.715.744a13.335 13.335 0 0 1-1.52 1.305c-.457.325-.87.562-1.085.686a12.091 12.091 0 0 1-1.15.586 8.142 8.142 0 0 1-1.897.653 7.307 7.307 0 0 1-3.27-.242 8.3 8.3 0 0 1-.933-.38 7.541 7.541 0 0 1-1.012-.594 19.02 19.02 0 0 1-2.853-2c-.2-.169-.495-.422-.835-.748.055.578.104 1.06.14 1.397a10.64 10.64 0 0 1-.01 3.904 7.391 7.391 0 0 1-.345 1.082.374.374 0 0 1-.347.233.384.384 0 0 1-.097-.019 1.063 1.063 0 0 1-.11.449 1.076 1.076 0 0 1-.954.585 1.03 1.03 0 0 1-.446-.1 1.014 1.014 0 0 1-.522-.596 1.1 1.1 0 0 1 .064-.848 1.062 1.062 0 0 1 .64-.543 1.006 1.006 0 0 1 .79.083 1.05 1.05 0 0 1 .339.312c.04-.105.068-.212.102-.319a1.065 1.065 0 0 1-.19.024 1.02 1.02 0 0 1-.99-.764 1.105 1.105 0 0 1 .122-.842 1.067 1.067 0 0 1 .677-.497.995.995 0 0 1 .693.103c-.006-.546-.063-1.213-.163-2.17a153.72 153.72 0 0 1-.227-2.354l.003-.024a14.414 14.414 0 0 1-1.548-2.15 22.881 22.881 0 0 1 .13 4.738 11.661 11.661 0 0 1-1.324 5.288 9.623 9.623 0 0 1-.541.837c-.054.165-.102.331-.154.496a.381.381 0 0 1 .31.345c.045 1.101.083 2.208.125 3.313a1.039 1.039 0 0 1 .158-.131 1.028 1.028 0 0 1 .789-.077 1.072 1.072 0 0 1-.327 2.09 1.02 1.02 0 0 1-.269-.036h-.001a.991.991 0 0 1-.287-.145l.009.23a.989.989 0 0 1 .558-.037 1.072 1.072 0 0 1 .784 1.241 1.089 1.089 0 0 1-1.06.865.963.963 0 0 1-.13-.008c-.03-.004-.053-.022-.082-.028l.003.076a.992.992 0 0 1 .363-.042 1.088 1.088 0 0 1 .998 1.031 1.114 1.114 0 0 1-.946 1.1.88.88 0 0 1-.133.01.916.916 0 0 1-.218-.04l.011.369a.956.956 0 0 1 .618-.41 1.07 1.07 0 0 1 1.244.755 1.096 1.096 0 0 1-.655 1.296.9.9 0 0 1-.343.067 1 1 0 0 1-.44-.106 1.098 1.098 0 0 1-.384-.328c.016.573.037 1.153.053 1.723.107 3.857.192 7.752.253 11.602a191.126 191.126 0 0 0 5.31-10.052c.218-.445.43-.897.645-1.345a1.105 1.105 0 0 1-.456.109 1.002 1.002 0 0 1-.37-.07.938.938 0 0 1-.554-.584 1.069 1.069 0 0 1 1.861-1.02.894.894 0 0 1 .133.285 191.029 191.029 0 0 0 4.187-9.534zm-11.196 4.583a.455.455 0 0 0 .159.057.586.586 0 0 0 .64-.46.57.57 0 0 0-.42-.657.493.493 0 0 0-.4.062c-.005.003-.008.01-.013.013l.034.985zm.066 2.119a.438.438 0 0 0 .296.077.607.607 0 0 0 .518-.595.586.586 0 0 0-.547-.544.4.4 0 0 0-.048-.003.466.466 0 0 0-.25.081l.03.984zm.354 1.67a.627.627 0 0 0 .32.394.455.455 0 0 0 .372.024.603.603 0 0 0 .363-.7.57.57 0 0 0-.667-.398.476.476 0 0 0-.323.22.575.575 0 0 0-.065.46zm-.378-6.116a.517.517 0 0 0 .314.252.56.56 0 0 0 .68-.392.569.569 0 0 0-.363-.703.528.528 0 0 0-.405.04.574.574 0 0 0-.277.346.6.6 0 0 0 .05.457zm2.456-8v.001a.554.554 0 0 0 .638-.079 5.504 5.504 0 0 0 .107-.731.557.557 0 0 0-.164-.168.507.507 0 0 0-.278-.083.546.546 0 0 0-.119.013.568.568 0 0 0-.36.268.59.59 0 0 0-.068.457.515.515 0 0 0 .244.322zm-.231.99a.508.508 0 0 0-.248-.066.522.522 0 0 0-.154.023.57.57 0 0 0-.34.291.592.592 0 0 0-.036.461.517.517 0 0 0 .265.305.569.569 0 0 0 .513-1.015zm20.77 4.766a7.69 7.69 0 0 0 6.682-5.643.358.358 0 0 1-.015-.065 8.935 8.935 0 0 0-.57-2.91 6.352 6.352 0 0 0-.379-.85 8.133 8.133 0 0 0-.479-.758 11.521 11.521 0 0 1-.692-1.11 15.695 15.695 0 0 1-1.541-7.171 9.54 9.54 0 0 1 .004-1.087l.017-.377c0-.022.017-.344.02-1.214a35.98 35.98 0 0 0-.086-2.101c-.057.165-.11.312-.11.312a22.617 22.617 0 0 1-.874 2.072.366.366 0 0 1-.123.135 1.432 1.432 0 0 1-1.258 2.432 22.679 22.679 0 0 0 .52 4.043c.09.259.193.507.194.51.075.18.166.38.297.645.19.38.371.684.553.99a12.098 12.098 0 0 1 1.009 2.012 8.356 8.356 0 0 1 .546 5.778 8.364 8.364 0 0 1-2.855 3.664c-.22.188-.51.432-.86.693zm3.341-30.323a.898.898 0 0 0-.505-.477c-.266-.064-.614.098-.977.46a3.032 3.032 0 0 0-.765 1.704l-.022.258a.382.382 0 0 1-.297.34.373.373 0 0 1-.407-.19.538.538 0 0 1-.034-.213h-.009c.005-.052.01-.104.013-.156l.007-.084a20.659 20.659 0 0 0-1.402-9.592 11.747 11.747 0 0 0-2.793-4.237 6.147 6.147 0 0 0-3.604-1.995 5.256 5.256 0 0 0-3.058.653.375.375 0 0 1-.509-.15.347.347 0 0 1-.013-.042 9.114 9.114 0 0 0-3.941-.294 7.225 7.225 0 0 0-2.575.833 7.39 7.39 0 0 0-2.457 2.329 26.166 26.166 0 0 0-3.565 8.505c-.017.087-1.756 8.866 1.1 15.568a39.842 39.842 0 0 0 1.18 2.476 13.68 13.68 0 0 0 1.994 2.763 14.26 14.26 0 0 0 1.288 1.21 18.526 18.526 0 0 0 2.768 1.938 7.052 7.052 0 0 0 .94.553 7.182 7.182 0 0 0 .838.34 6.594 6.594 0 0 0 2.899.219 7.454 7.454 0 0 0 1.73-.601 11.112 11.112 0 0 0 1.038-.526c.246-.142.636-.366 1.067-.672a12.535 12.535 0 0 0 1.43-1.23 21.775 21.775 0 0 0 1.566-1.717c.005-.005.004-.014.01-.02.027-.026.05-.056.078-.084.057-.07.117-.134.174-.205a.363.363 0 0 1 .079-.066 9.925 9.925 0 0 0 .797-.968 10.298 10.298 0 0 0 .699-1.14 32.814 32.814 0 0 0 1.696-3.909 1.435 1.435 0 0 1 1.475-2.379.365.365 0 0 1 .029-.11c.196-.401.501-1.074.844-2 0 0 .088-.245.156-.45a8.275 8.275 0 0 0 .378-2.324 11.41 11.41 0 0 1 .295-2.231c.082-.336.172-.621.25-.871.197-.626.27-.894.115-1.216zm-.913-1.207a28.244 28.244 0 0 0-.747-4.878 16.358 16.358 0 0 0-2.723-6.622 11.357 11.357 0 0 0-3.906-3.4 11.053 11.053 0 0 0-4.06-1.192 17.957 17.957 0 0 1-.804 2.65 5.755 5.755 0 0 1 2.437-.28 6.864 6.864 0 0 1 4.038 2.195 12.46 12.46 0 0 1 2.972 4.497 20.717 20.717 0 0 1 1.533 7.863q.076-.091.162-.176a2.23 2.23 0 0 1 1.098-.657zM30.936 58.35a4.117 4.117 0 0 0 1.945.199 5.292 5.292 0 0 0 2.435-1.223 9.72 9.72 0 0 0 2.854-3.094 10.922 10.922 0 0 0 1.228-4.977 22.56 22.56 0 0 0-.53-6.91 28.08 28.08 0 0 1-.307-.692c-2.948-6.92-1.218-15.645-1.143-16.013a26.414 26.414 0 0 1 3.686-8.787 8.2 8.2 0 0 1 2.704-2.55 8.005 8.005 0 0 1 2.828-.92 9.815 9.815 0 0 1 4.386.336q.33-.774.582-1.572c-2.445-.452-5.907-.572-8.614 1.379a15.97 15.97 0 0 0-2.961 3.045 18.511 18.511 0 0 0-2.99 4.803 21.23 21.23 0 0 0-1.251 4.986 48.858 48.858 0 0 0-.651 5.083 47.313 47.313 0 0 0-.109 2.411 37.102 37.102 0 0 0 .435 6.102c.204 1.555.435 3.318.561 5.716a22.234 22.234 0 0 1-.07 4.429 14.68 14.68 0 0 1-1.766 5.297 5.974 5.974 0 0 1-2.714 2.815 3.627 3.627 0 0 1-.538.137zm36.648-15.134a11.842 11.842 0 0 1 .061-4.269l.046-.174a.368.368 0 0 1-.024-.156c.023-.356.057-.933.08-1.644.11-3.511.405-12.839-4.818-21.699-2.16-3.664-4.501-5.981-6.96-6.888a10.223 10.223 0 0 0-2.866-.598c-.017.389-.02.779-.063 1.165s-.106.77-.173 1.151a11.792 11.792 0 0 1 4.256 1.263 12.071 12.071 0 0 1 4.157 3.613 17.185 17.185 0 0 1 2.854 6.895 29.106 29.106 0 0 1 .776 5.097c0 .012-.004.023-.005.035a1.74 1.74 0 0 1 .836.807 2.208 2.208 0 0 1-.075 1.766c-.075.236-.16.506-.238.825a9.428 9.428 0 0 0-.245 1.634c.236 2.423.34 4.414.338 5.24a25.26 25.26 0 0 1-.022 1.244l-.016.381a9.004 9.004 0 0 0-.004 1.017 15.104 15.104 0 0 0 1.45 6.847 10.88 10.88 0 0 0 .653 1.044 8.807 8.807 0 0 1 .52.824 6.761 6.761 0 0 1 .402.893 9.664 9.664 0 0 1 .61 2.841 5.455 5.455 0 0 0 5.23-5.108 4.27 4.27 0 0 1-3.091.655 4.186 4.186 0 0 1-2.117-1.15 6.186 6.186 0 0 1-1.552-3.55zM56.916 6.45a13.296 13.296 0 0 0-3.855-.994c.046.527.084 1.054.082 1.583a10.978 10.978 0 0 1 3.085.644c2.625.967 5.097 3.393 7.347 7.21a38.248 38.248 0 0 1 4.953 18.703 47.393 47.393 0 0 0 .143-5.221 36.4 36.4 0 0 0-.836-6.699 22.805 22.805 0 0 0-3.12-8.325A20.724 20.724 0 0 0 60.6 8.807a14.513 14.513 0 0 0-3.683-2.357zM40.73 7.835a16.159 16.159 0 0 1 1.551-.66 19.951 19.951 0 0 1 4.193-.97 24.412 24.412 0 0 1 5.88-.084c-.013-.254-.01-.51-.034-.764a14.011 14.011 0 0 0-4.883-.225 15.317 15.317 0 0 0-4.77 1.535 17.136 17.136 0 0 0-1.937 1.168zM27.446 47.142a5.209 5.209 0 0 0 1.725-1.777c.525-.937.62-3.091.609-4.733a37.484 37.484 0 0 0-.152-3.117 40.99 40.99 0 0 1 1.815-14.745 22.64 22.64 0 0 1 .904-2.315c0-.001.267-.572.573-1.132a32.056 32.056 0 0 1 5.11-6.105l.008-.003a13.587 13.587 0 0 1 4.357-3.629 14.509 14.509 0 0 1 9.92-1.066c.049-.547.075-1.094.071-1.643a23.658 23.658 0 0 0-5.811.07 19.278 19.278 0 0 0-4.04.933 16.428 16.428 0 0 0-5.883 3.741c-.01.01-.027.007-.039.016a31.163 31.163 0 0 0-2.315 3.261c-.306.489-.596.936-.858 1.342a35.32 35.32 0 0 0-.93 1.484 39.574 39.574 0 0 0-4.74 15.258 21.142 21.142 0 0 0-.09 3.153c.024.632.066 1.141.104 1.611a12.956 12.956 0 0 1-.014 3.086 5.398 5.398 0 0 1-.75 2.384 4.2 4.2 0 0 1-2.388 1.517 6.19 6.19 0 0 0 2.814 2.41zm-1.82 7.437c.115.044.215.074.285.094l.003.001.007-.001a6.153 6.153 0 0 0 3.86-1.335 6.517 6.517 0 0 0 2.012-4.013 65.99 65.99 0 0 0 .62-11.094 78.823 78.823 0 0 1 .923-14.287 24.991 24.991 0 0 1 2.247-6.995 19.089 19.089 0 0 0-2.004 2.735c-.294.536-.55 1.084-.552 1.087a21.771 21.771 0 0 0-.874 2.241 40.135 40.135 0 0 0-1.778 14.436c.095 1.04.147 2.11.155 3.178.028 3.799-.524 4.783-.705 5.106a6.064 6.064 0 0 1-2.258 2.23 5.9 5.9 0 0 1-2.325 2.137 5.98 5.98 0 0 1-2.415.643 7.454 7.454 0 0 0 1.282 2.631 3.649 3.649 0 0 0 1.517 1.206zM17.771 84.29h9.29l-.088-22.008a.375.375 0 0 1 .505-.353l3.375 1.25-.418-4.216a6.247 6.247 0 0 1-1.15-.603 5.397 5.397 0 0 1-3.488-2.585c-1.634.914-4.353 2.77-5.393 5.473a23.773 23.773 0 0 0-1.072 4.584c-.092.67-.154 1.272-.196 1.832a41.681 41.681 0 0 0-.1 4.305l.005.164c.005.11.007.19-1.27 12.157z" data-name="Kamala Harris"/>
</svg>
