<svg height="100" width="100" xmlns="http://www.w3.org/2000/svg" viewBox="0 0 60 60">
    <path d="M10.037 47.624H36.53c.46 0 .832-.372.832-.832v-4.678a.832.832 0 00-.832-.832h-2.794v-3.847a.832.832 0 00-.832-.832h-19.24a.832.832 0 00-.831.832v3.847h-2.795a.832.832 0 00-.831.832v4.678c0 .46.372.832.831.832zm4.458-9.358h17.576v3.016H14.495v-3.016zm-3.626 4.68H35.698v3.015H10.869v-3.016zM48.885 30.4l-16.61-6.75c.187-.664.337-1.34.454-2.026l1.1.478a.832.832 0 001.094-.431l1.306-3.004a.831.831 0 00-.432-1.094l-11.8-5.128a.827.827 0 00-1.095.431l-1.305 3.004a.831.831 0 00.431 1.094l1.1.478a19.412 19.412 0 00-3.719 8.56l-1.1-.479a.829.829 0 00-1.094.432l-1.306 3.003a.831.831 0 00.432 1.094l11.8 5.129a.831.831 0 001.094-.431l1.306-3.004a.83.83 0 00-.431-1.095l-1.101-.478c.422-.553.814-1.124 1.172-1.714l16.267 7.538a3.048 3.048 0 002.374.084 3.034 3.034 0 001.717-1.64c.331-.761.34-1.605.027-2.374a3.035 3.035 0 00-1.68-1.678zM24.096 14.301l10.275 4.465-.642 1.478-10.275-4.465.642-1.478zm3.945 19.032l-10.274-4.466.642-1.477 10.275 4.465-.643 1.478zm-3.346-15.2l6.467 2.81a17.78 17.78 0 01-3.72 8.558l-6.466-2.81a17.779 17.779 0 013.719-8.559zm24.318 15.655c-.15.347-.429.613-.783.747a1.385 1.385 0 01-1.083-.038l-16.166-7.491c.287-.578.544-1.17.771-1.774l16.507 6.707c.352.143.624.415.767.765.143.351.138.736-.013 1.084z"/>
</svg>
