<svg height="100" width="100" viewBox="33 9 60 86" xmlns="http://www.w3.org/2000/svg">
    <path d="M64.83 56.03c-1.72-2.64-6.41-3.96-9.04-4.69l.05-1.03c0-2.22 3.23-5.38 8.91-5.38 0 0-4.54-2.57-.63-7.19 0-1.02-1.42-1.85-3.13-1.85h-2.84c.09-.93.42-2.49 1.53-4.67 3.05-6.05 2.39-10.95-1.98-14.56-.3-.25-.71-.3-1.06-.13-.35.17-.57.52-.57.9 0 1.12-.38 2.45-.84 3.66-.58-2.57-1.96-5.15-3.95-7.21-2.35-2.44-5.17-3.67-7.74-3.36-.37.04-.68.28-.81.63-.13.34-.07.73.17 1.01 2.34 2.74 1.81 4.87 1.21 7.34-.28 1.11-.57 2.32-.59 3.62-1.61-1.02-3.35-1.57-4.84-1.52-1.16.05-2.11.48-2.75 1.24a.98.98 0 0 0-.18.97c.11.33.39.58.74.65.76.16.9 2.21.41 5.93-.32 2.41.46 4.23 1.56 5.52h-.84c-1.71 0-3.13.83-3.13 1.85 3.91 4.62-.63 7.19-.63 7.19 5.67 0 8.91 3.17 8.91 5.38v.08a3.57 3.57 0 0 0-1.8.38 3.89 3.89 0 0 0-1.89 2.17c-.34.95-.3 1.97.1 2.88.16.37.39.69.66.98a3.8 3.8 0 0 0-1.5 1.93c-.34.95-.3 1.97.1 2.88.24.55.61 1 1.06 1.36-.52.44-.92 1.01-1.16 1.67-.34.95-.3 1.97.1 2.88.27.6.69 1.09 1.2 1.46-.59.45-1.04 1.07-1.29 1.79-.34.95-.3 1.97.1 2.88.41.92 1.15 1.61 2.08 1.94l3.49 1.24.33 7.1s.08 6.19 5 6.19 4.77-6.19 4.77-6.19l.13-2.37c1.61.12 3.17.01 4.61-.1 1.32-.1 2.57-.19 3.68-.1.44.38 1.46 1.32 2.53 2.3 2.44 2.24 6.23 5.72 9.67 8.67h3.09c-.17-.14-.36-.3-.53-.45-.04-.34-.31-.61-.65-.61-.02 0-.03.01-.05.01-.42-.36-.86-.74-1.29-1.11a.668.668 0 0 0-.47-.41c-.05-.04-.1-.09-.15-.13-3.01-2.64-6.14-5.51-8.25-7.44-1.81-1.67-2.63-2.41-2.9-2.61-.14-.1-.31-.17-.48-.19-.53-.06-1.08-.07-1.63-.07a.666.666 0 0 0-1.27.04l-1.43.09c-.41.03-.81.06-1.22.08 0-.37-.3-.67-.67-.67-.38 0-.68.3-.68.67 0 .02.01.04.01.06-.6.01-1.2 0-1.8-.04l.06-1.06c.12.11.27.18.45.18.37 0 .67-.3.67-.68 0-.37-.3-.67-.67-.67a.66.66 0 0 0-.39.14l.07-1.33c.05-.2.09-.4.11-.6.07.02.14.04.21.04.37 0 .67-.3.67-.68 0-.37-.3-.67-.67-.67-.08 0-.15.02-.22.04l.09-1.67c.04-.03.09-.07.13-.11.21.32.35.52.38.56.2.26.5.4.8.4.04 0 .09-.02.13-.02.05.32.32.58.66.58.37 0 .67-.3.67-.67 0-.31-.22-.56-.51-.64.04-.13.05-.27.02-.4a.877.877 0 0 0-.18-.45c-.02-.02-.78-1.07-1.48-2.71.11-.12.18-.27.18-.44h-.01a.67.67 0 0 0-.57-.61c-.2-.59-.37-1.23-.5-1.92.11.09.25.15.41.15.37 0 .67-.3.67-.67 0-.38-.3-.68-.67-.68-.23 0-.42.12-.54.29-.08-.74-.09-1.52 0-2.32.12.17.31.28.54.28.37 0 .67-.3.67-.67 0-.38-.3-.68-.67-.68a.66.66 0 0 0-.39.14c.12-.56.27-1.13.5-1.7.03-.07.03-.14.04-.21.29-.07.52-.33.52-.65 0-.37-.3-.67-.67-.67-.2 0-.37.08-.49.21-.64-.27-1.17-.36-1.54-.24-.24.07-.44.23-.56.44-.01.01-.88 1.4-2.53 1.49h-.25a.654.654 0 0 0-.58-.35c-.21 0-.39.1-.51.24-.25-.06-.48-.13-.65-.21.26-.47.61-1.11.99-1.82.06.02.11.03.17.03a.672.672 0 0 0 .45-1.17c.88-1.6 1.77-3.23 2.14-3.84.01-.02.02-.03.03-.05.01-.02.03-.05.04-.07.41-.67 1.32-.82 2.68-.45-.03.08-.05.17-.05.26 0 .38.3.68.68.68.34 0 .61-.26.65-.59 1.24.34 3.03.86 4.62 1.57.06.32.32.57.66.57.11 0 .21-.04.31-.09.39.21.75.44 1.08.68-.04.09-.07.18-.07.28 0 .38.3.68.68.68.11 0 .2-.03.29-.08.05.06.1.12.14.18.59.91 1.13 2.04 1.6 3.21-.02 0-.04-.01-.07-.01a.674.674 0 1 0 0 1.35c.2 0 .37-.09.49-.23.48 1.3.88 2.58 1.19 3.62a.672.672 0 0 0 .31 1.27c.04 0 .07-.02.11-.02.08.12.18.23.3.31l.88.54c0 .01-.01.02-.01.03 0 .38.3.68.68.68.12 0 .23-.04.32-.1l1.08.67c-.04.08-.07.17-.08.26h-.01c0 .37.3.67.68.67.21 0 .39-.1.51-.25l1.01.62c-.08.07-.14.15-.18.25a.672.672 0 0 0 .63.93c.31 0 .56-.22.64-.5l.2.12c.06.04.13.05.19.07l.88.54a.66.66 0 0 0-.57.66c0 .38.29.68.67.68V71.2v1.28c.37 0 .67-.3.67-.68 0-.08-.02-.15-.04-.22l10.6 6.48c.03.35.31.62.67.62.09 0 .18-.02.26-.05l1.08.66c-.03.08-.05.17-.05.26 0 .38.3.68.68.68.2 0 .38-.1.5-.25l1.04.63a.674.674 0 0 0 .46 1.17c.3 0 .55-.21.63-.5l1.15.71v-2.34L68.47 65.1c-.72-2.44-1.92-6.43-3.64-9.07zM52.5 75.8c-.01.02-.02.03-.02.05-.21.11-.36.32-.36.58v.01c-.15.17-.33.31-.53.41-.4.21-.85.24-1.26.1l-.87-.31c.02-.07.04-.14.04-.21 0-.38-.3-.67-.67-.67-.29 0-.54.18-.63.43l-4.76-1.69a.654.654 0 0 0-.53-.29v.1-.1c-.06 0-.12.02-.17.04l-1.33-.47c.11-.12.18-.27.18-.45 0-.37-.3-.67-.67-.67-.25 0-.46.14-.58.34-.03-.06-.07-.11-.1-.18-.19-.43-.21-.93-.04-1.4.08-.24.21-.45.37-.63.1.06.22.11.35.11.37 0 .67-.3.67-.67v-.02c.09-.02.18-.03.27-.03.17 0 .35.03.51.09l.54.19v.64c-.38 0-.67.3-.67.68 0 .38.29.68.67.68v.14-.14c.37 0 .67-.3.67-.68 0-.38-.3-.68-.67-.68v-.64l3.31 1.18c-.01.05-.03.1-.03.15 0 .38.3.68.68.68.26 0 .49-.16.6-.39l4.08 1.45c.41.14.73.45.92.87.18.44.2.94.03 1.4zm.16-7.93c.02.01.03.01.05.01.08.28.16.55.25.82.25.73.53 1.39.8 1.96-.44.64-1.22.96-1.94.7l-2.39-.85a.672.672 0 0 0-.61-.95c-.32 0-.57.22-.65.51L44.3 68.7l-.86-.3a.66.66 0 0 0-.56-.32v-1.75c.37 0 .67-.3.67-.67 0-.38-.3-.68-.67-.68v-.34.34c-.38 0-.67.3-.67.68 0 .37.29.67.67.67v1.75c-.08 0-.16.02-.23.05l-1.29-.46a.67.67 0 0 0-.48-1.14.69.69 0 0 0-.59.35c-.03-.05-.07-.1-.09-.16-.19-.43-.21-.93-.04-1.4.09-.24.22-.46.38-.64.1.06.21.1.34.1.36 0 .66-.3.67-.67.13-.02.26-.03.39-.02l.94.33 3.3 1.17c0 .02-.01.05-.01.07 0 .37.3.67.68.67.23 0 .43-.13.55-.31l1.43.51h-.02a.674.674 0 1 0 .67.67c0-.23-.12-.42-.3-.54l3.48 1.21zm-2.9-5.2c.14-.01.27-.03.4-.05.04.34.31.6.67.6.37 0 .67-.3.67-.67 0-.1-.02-.19-.06-.27.34-.14.65-.31.91-.49l.03.01c-.13.69-.19 1.36-.21 2.02-.04.08-.06.17-.06.27s.02.2.06.28c.01.42.04.84.08 1.24l-.88-.31a.67.67 0 0 0-.56-.33c-.08 0-.16.02-.23.05l-1.29-.46a.67.67 0 0 0-.48-1.14c-.38 0-.68.3-.68.67 0 .02.01.05.01.07l-4.6-1.63c-.02-.36-.31-.65-.66-.65v.37-.37c-.21 0-.38.09-.5.24l-1.26-.45a.488.488 0 0 0-.07-.03.67.67 0 0 0-.17-1.32c-.33 0-.58.23-.65.53-.01-.02-.02-.03-.03-.05-.19-.43-.21-.93-.04-1.4.12-.34.33-.64.6-.85.04.01.08.02.12.02.25 0 .47-.15.58-.37.29-.07.59-.06.87.04l.54.19 2.96 1.05c-.22.41-.37.69-.4.74-.05.1-.09.21-.11.31a.672.672 0 0 0-1.17.45c0 .38.3.68.68.68.29 0 .53-.19.62-.46.05.08.09.15.16.21.06.06.35.31.84.57-.18.12-.31.32-.31.56 0 .37.3.67.68.67.37 0 .67-.3.67-.67 0-.05-.02-.1-.03-.15.65.19 1.4.32 2.3.28zm-1.51-7.56c-.24.44-.49.89-.73 1.34.01-.04.02-.07.02-.11 0-.37-.3-.67-.67-.67a.674.674 0 1 0 0 1.35c.16 0 .31-.07.43-.17-.15.27-.29.53-.43.79l-3.32-1.18c.01-.04.02-.08.02-.12 0-.37-.3-.67-.67-.67v.57-.57c-.26 0-.47.15-.58.36l-.43-.15c-.27-.1-.5-.27-.68-.5a.67.67 0 0 0-.3-1.27c-.03 0-.05.01-.07.01.01-.17.04-.35.1-.52.17-.47.49-.84.91-1.06.24-.12.49-.18.75-.18.1 0 .21.03.31.05v.15c-.38 0-.67.29-.67.67 0 .38.29.68.67.68v-.05.05c.37 0 .67-.3.67-.68 0-.38-.3-.67-.67-.67v-.15c.07.01.14.01.2.04l3.19 1.13c.12.2.32.33.57.33.08 0 .16-.02.23-.05l1.25.44c-.12.12-.2.29-.2.47 0 .13.04.24.1.34zm5.88-19.22H41.58c-1.21-.66-3.12-2.19-2.72-5.26.43-3.25.49-5.69-.35-7.03.08-.01.16-.02.24-.02 1.57-.07 3.82 1 5.43 2.61a1 1 0 0 0 1.65-1.04c-.64-1.81-.23-3.45.2-5.18.54-2.17 1.13-4.57-.38-7.33 1.41.36 2.86 1.26 4.18 2.62 2.63 2.73 4.08 6.61 3.61 9.67a1 1 0 0 0 1.85.66c.09-.15 1.82-3.12 2.5-6.04 2.35 2.8 2.37 6.27.1 10.77-1.28 2.54-1.67 4.4-1.76 5.57h-2z"/>
</svg>
