<svg height='100px' width='100px'  fill="#000000" xmlns="http://www.w3.org/2000/svg" viewBox="0 0 64 64" x="0px" y="0px"><title>login, arrow, log in</title><g><path d="M36.5,6A26,26,0,0,0,10.58,30H3.5a2,2,0,0,0,0,4h7.08A26,26,0,1,0,36.5,6Zm0,48A22,22,0,0,1,14.59,34H38L30,42.65a2,2,0,0,0,.12,2.82A2,2,0,0,0,31.5,46,2,2,0,0,0,33,45.35l11-12,.07-.09.1-.12,0-.07a1,1,0,0,0,.08-.14s.05-.08.07-.13l0-.08s0-.1,0-.15,0-.09,0-.13a.28.28,0,0,0,0-.09.88.88,0,0,0,0-.16s0-.1,0-.15V32c0-.05,0-.1,0-.15a.88.88,0,0,0,0-.16.28.28,0,0,0,0-.09s0-.08,0-.13,0-.1,0-.15l0-.08c0-.05,0-.09-.07-.13a1,1,0,0,0-.08-.14l0-.07-.1-.12L44,30.65l-11-12A2,2,0,0,0,30,21.35L38,30H14.59A22,22,0,1,1,36.5,54Z"></path></g></svg>