<svg height="100" width="100" xmlns="http://www.w3.org/2000/svg">
    <path d="M96.259 84.19a21.008 21.008 0 0 0-2.152-4.534 22.124 22.124 0 0 0-4.954-5.307 29.484 29.484 0 0 0-5.307-3.185c-3.589-1.844-4.153-1.688-8.668-3.892a35.442 35.442 0 0 1-5.705-3.318 17.155 17.155 0 0 1-3.129-2.737c-.707-.81-.755-1.044-2.052-2.64-.618-.76-1.12-1.377-1.76-2.053a27.245 27.245 0 0 0-3.375-2.806s-.484 1.526-.707 2.384a38.67 38.67 0 0 1-.431 1.555 19.888 19.888 0 0 1-1.654 4.144 17.81 17.81 0 0 1-2.208 2.844c-.544.627-1.452 1.62-3.665 3.758-1.791 1.73-2.69 2.597-3.283 3.074a23.24 23.24 0 0 1-4.952 3.015 20.165 20.165 0 0 1-3.56-2.599 23.446 23.446 0 0 1-3.516-4.167 10.9 10.9 0 0 1-.532-.826c-.19-.32-.493-.826-1.208-1.95a.582.582 0 0 0-.176-.277l-.156-.244-.465-.724a14.95 14.95 0 0 1-1.201-2.046 10.766 10.766 0 0 1-.898-3.325.585.585 0 0 0-1.164.123 11.933 11.933 0 0 0 .996 3.686 9.268 9.268 0 0 0 .487.933 74.076 74.076 0 0 1-4.796 1.623c-1.816.545-2.333.623-3.77 1.106a34.605 34.605 0 0 0-4.502 1.842 28.03 28.03 0 0 0-5.73 3.683 21.131 21.131 0 0 0-4.093 4.298 22.52 22.52 0 0 0-2.456 4.843 58.582 58.582 0 0 0-2.592 8.732A361.01 361.01 0 0 0 .81 98.549l22.52-.125c.283-1.696.695-4.69 1.271-7.428.51-2.418.889-4.222 1.564-6.647a80.027 80.027 0 0 1 2.347-7.137c.79-2.048 1.166-2.79 1.818-4.385q-.031.566-.032 1.132a21.195 21.195 0 0 0 1.614 8.144.585.585 0 0 0 .987.156 28.11 28.11 0 0 1 3.945-3.818 16.044 16.044 0 0 1-.538 6.008 35.842 35.842 0 0 0-1.427 1.997c-.555.837-.644 1.059-1.355 2.141-.92 1.397-1.036 1.488-1.428 2.14a19.433 19.433 0 0 0-1.284 2.64 158.737 158.737 0 0 0-1.998 4.924h11.988c.062-.423.144-1.038.214-1.784.123-1.329.095-1.892.142-3.567.089-3.151.257-3.615 0-4.924a10.664 10.664 0 0 0-.57-1.926 10.043 10.043 0 0 1 2.975-5.533 9.01 9.01 0 0 1 .844-.683 22.097 22.097 0 0 0 3.082 3.168.585.585 0 0 0 .377.137.592.592 0 0 0 .083-.006.586.586 0 0 0 .405-.257 378.483 378.483 0 0 0 2.043-3.12l-1.454 4.199a45.71 45.71 0 0 1-1.368 5.279c-.477 1.469-.944 2.629-1.858 4.888a144.793 144.793 0 0 1-1.714 4.105c18.02-.196 36.787.24 54.807.045a82.394 82.394 0 0 0-2.551-14.122zM32.65 80.767a20 20 0 0 1-1.182-6.807 20.274 20.274 0 0 1 1.493-7.576c.357.571.548.892.682 1.116.193.322.289.483.576.895a24.458 24.458 0 0 0 3.686 4.361 21.1 21.1 0 0 0 2.483 1.95 29.094 29.094 0 0 0-7.738 6.061zm18.316-4.021a373.048 373.048 0 0 1-3.222 4.968 20.827 20.827 0 0 1-4.772-6.26 24.329 24.329 0 0 0 4.968-3.064c.635-.51 1.547-1.39 3.37-3.15 2.24-2.165 3.17-3.183 3.73-3.828l.562-.649L52.04 75.05c-.326.519-.682 1.081-1.074 1.696zm11.13-37.511a2.203 2.203 0 0 1 .319.903 3.903 3.903 0 0 1-.266 1.489 43.6 43.6 0 0 0-.319 1.275l.744-.585.32-1.275a3.656 3.656 0 0 0 .212-1.329c-.058-.524-.329-1.126-.585-1.116-.056.002-.237.038-.425.638zM40.544 54.458c-.509.006-.438-.285-1.498-.598a11.427 11.427 0 0 0-1.13-.274c-.34-.064-.472-.075-.792-.156-.048-.013-.248-.062-.516-.15-.32-.108-.576-.21-.802-.3a5.038 5.038 0 0 0-.903-.28 2.464 2.464 0 0 0-.48-.063 2.396 2.396 0 0 0-.412.024c-.533.078-.833.303-.865.254-.031-.046.207-.288.49-.456a2.084 2.084 0 0 1 .618-.235 2.202 2.202 0 0 1 .801-.024 6.025 6.025 0 0 1 .874.315c.191.065.379.116.753.219.18.049.436.12.753.194.297.07.4.087.923.195.647.133.97.199 1.134.248a5.477 5.477 0 0 1 1.017.42 2.766 2.766 0 0 1 .946-.35 5.919 5.919 0 0 1 1.157-.035 5.187 5.187 0 0 0 .577.002 9.578 9.578 0 0 0 .957-.12 11.278 11.278 0 0 0 1.233-.285 4.6 4.6 0 0 1 .713-.161 3.285 3.285 0 0 1 .529-.02 2.409 2.409 0 0 1 1.286.338c.28.186.49.443.456.491-.035.048-.274-.165-.737-.28a4.273 4.273 0 0 0-1.024-.08 3.437 3.437 0 0 0-.44.014 4.159 4.159 0 0 0-.656.149 11.638 11.638 0 0 1-1.279.295 9.936 9.936 0 0 1-.998.126 16.784 16.784 0 0 0-1.374.164c-.858.15-.827.413-1.311.419z"/>
    <path d="M50.33 53.377a2.3 2.3 0 0 0-.543-.853s-.73-.905-1.129-.885c-.03.002-.128.006-.138.045a.05.05 0 0 0 .015.04 8.784 8.784 0 0 1 1.33 1.86c.273.847-.842 1.814-.682 1.938.09.07.453-.231.655-.465a1.974 1.974 0 0 0 .388-.724 1.77 1.77 0 0 0 .104-.956zm-16.016-7.033a7.865 7.865 0 0 1-.722 1.58 5.455 5.455 0 0 1-1.228 1.227 7.1 7.1 0 0 1-1.049.669 7.622 7.622 0 0 1-1.649.649 7.237 7.237 0 0 1-.124.03 3.559 3.559 0 0 0 1.044.05 3.857 3.857 0 0 0 1.241-.36 4.126 4.126 0 0 0 1.253-.787 3.902 3.902 0 0 0 .967-1.468 2.984 2.984 0 0 0 .267-1.59zm16.89 4.403a15.79 15.79 0 0 1-.897-.247 6.243 6.243 0 0 1-1.045-.437 6.166 6.166 0 0 1-.728-.462 4.307 4.307 0 0 1-.607-.51 6.12 6.12 0 0 1-.559-.728c-.413-.58-.486-.717-.51-.705a6.5 6.5 0 0 0 .656 1.506 2.978 2.978 0 0 0 .995 1.141 4.231 4.231 0 0 0 1.555.632 4.316 4.316 0 0 0 2.043.058c.003-.029-.118-.044-.903-.248zm-5.951 3.893c.038-.033.307-.268.273-.318a7.265 7.265 0 0 0-1.09.455 6.334 6.334 0 0 1-1.341.34 8.36 8.36 0 0 1-2.329.043 6.07 6.07 0 0 1-1.42-.247 5.65 5.65 0 0 0-.796-.205c-.226-.04-.506-.092-.523-.045a4.247 4.247 0 0 0 1.473.73 7.127 7.127 0 0 0 3.618.232 4.881 4.881 0 0 0 2.135-.985zM32.59 51.932c-.065-.059-.404.13-.624.418a2.086 2.086 0 0 0-.142 1.793c.029.1.103.359.164.352a6.827 6.827 0 0 1 .327-1.946c.15-.33.334-.564.275-.617zm10.6-5.786a1.049 1.049 0 0 0-1.105-.006 4.073 4.073 0 0 1-.617.44 2.9 2.9 0 0 1-.198.089 5.554 5.554 0 0 1-1.382.556 1.386 1.386 0 0 1-.744.018 1.354 1.354 0 0 1-.394-.199c-.35-.234-.368-.396-.646-.62a1.82 1.82 0 0 0-.801-.362c-.241-.049-.78-.109-.879.103-.059.129.069.302.09.33a.866.866 0 0 0 .582.265 2.714 2.714 0 0 0 .672.052 7.19 7.19 0 0 0 .74.514 2.533 2.533 0 0 0 .992.442 1.712 1.712 0 0 0 .672-.026 2.495 2.495 0 0 0 .672-.31c.181-.104.324-.2.42-.269a1.355 1.355 0 0 0 .566-.004 3.989 3.989 0 0 0 .59-.244 3.26 3.26 0 0 1 .466-.18c.336-.07.504.037.568-.053.075-.104-.057-.384-.264-.536zm-18.35-8.984a9.42 9.42 0 0 1 .107 1.063c.026.605-.313.967 0 1.488a3.329 3.329 0 0 1 .106 1.17l.053.584-.425-.69a2.615 2.615 0 0 1-.425-1.064c0-.7-.06-1.324 0-1.063zm19.752 6.436c-.206-.334-.54-.765-.605-.727-.096.057.45 1.137.588 2.066a1.899 1.899 0 0 1-.04.808 1.825 1.825 0 0 1-.15.369 9.018 9.018 0 0 1-.742 1.119c-.011.013-.034.04-.025.06.024.052.285.004.478-.091a1.265 1.265 0 0 0 .446-.413 2.399 2.399 0 0 0 .414-.711 2.367 2.367 0 0 0 .132-.827 2.988 2.988 0 0 0-.152-.935 3.2 3.2 0 0 0-.344-.718zm-7.918-1.569c.006-.01.022-.034.014-.044-.027-.033-.34.146-.56.34a2.044 2.044 0 0 0-.512.745 2.768 2.768 0 0 0-.231.991 3.294 3.294 0 0 0 .107 1.047 2.124 2.124 0 0 0 .441.954c.05.058.183.209.233.181.072-.04-.128-.398-.233-1.008a3.258 3.258 0 0 1-.036-.959 3.175 3.175 0 0 1 .114-.514 10.72 10.72 0 0 1 .663-1.733zM32.17 38.13a6.184 6.184 0 0 1-.33-.024 2.68 2.68 0 0 1-.355-.047 1.208 1.208 0 0 1-.472-.236 6.616 6.616 0 0 0 1.886-.052 4.508 4.508 0 0 0 1.491-.468 4.051 4.051 0 0 0 1.185-.973l-.24.548a3.2 3.2 0 0 1-.827.756 3.706 3.706 0 0 1-1.535.496 8.88 8.88 0 0 1-.803 0zm17.455.945a5.435 5.435 0 0 1-.78-.024 3.968 3.968 0 0 1-1.346-.354 2.955 2.955 0 0 1-.732-.472 2.85 2.85 0 0 1-.425-.473 6.335 6.335 0 0 0 1.279.632 5.703 5.703 0 0 0 1.328.322 7.43 7.43 0 0 0 3.068-.384 2.986 2.986 0 0 1-.951.564 4.264 4.264 0 0 1-1.441.189zm2.322-4.556a4.454 4.454 0 0 0-.819-.64 4.026 4.026 0 0 0-1.381-.511 4.128 4.128 0 0 0-1.586.077 6.341 6.341 0 0 0-1.1.358 5.721 5.721 0 0 0-.926.452 6.849 6.849 0 0 0-.38.274c-.235.173-.283.219-.306.297a.399.399 0 0 0 .128.41.466.466 0 0 0 .347.047c.24-.03.337.038 1.006.25.194.06.688.191 1.675.453a4.74 4.74 0 0 0 1.022.185 3.09 3.09 0 0 0 .887-.066 1.17 1.17 0 0 0 .46-.166c-.006-.033-.326.035-.862 0l-.017-.002a1.556 1.556 0 0 0 1.242-1.5c.176.118.344.241.508.363.454.339.73.624.767.589a2.574 2.574 0 0 0-.665-.87zm-3.52 1.166a15.082 15.082 0 0 1-.976-.265c-.109-.033-.655-.174-.77-.21a1.258 1.258 0 0 1-.511-.214c-.078-.067-.186-.162-.178-.274.004-.066.051-.169.64-.42a10.1 10.1 0 0 1 .67-.25 5.114 5.114 0 0 1 .803-.234 3.66 3.66 0 0 1 .258-.04 1.549 1.549 0 0 0 .765 2.045c-.176-.028-.403-.07-.701-.138zm1.588-1.05a.358.358 0 1 1 .359-.359.358.358 0 0 1-.359.358zm-13.783-.475a.364.364 0 0 0-.26-.223 6.887 6.887 0 0 0-.517-.365 5.558 5.558 0 0 0-1.568-.741 4.228 4.228 0 0 0-2.15-.051 2.518 2.518 0 0 0-1.022.46c-.477.375-.772.922-.691.998.104.097.639-.762 1.677-1.017a1.55 1.55 0 0 0 1.186 2.115 7.114 7.114 0 0 0-1.129.132 2.206 2.206 0 0 0 1.178.163 4.832 4.832 0 0 0 .597-.083 5.933 5.933 0 0 0 .714-.182 3.955 3.955 0 0 0 .793-.327c.04-.023.11-.066.225-.131.159-.09.198-.106.331-.183.192-.111.161-.107.235-.141.21-.097.293-.053.365-.141a.329.329 0 0 0 .036-.283zm-2.627-.153a.358.358 0 1 1 .358-.358.358.358 0 0 1-.358.358zm2.026.365a10.66 10.66 0 0 1-1.644.737 1.54 1.54 0 0 0 .689-1.569 4.397 4.397 0 0 1 1.014.526c.047.056.086.088.085.138-.001.08-.097.14-.144.168z"/>
    <path d="M51.38 32.984a7.722 7.722 0 0 0-3.604-.296 4.005 4.005 0 0 0-2.345 1.126.038.038 0 0 0-.008.033c.01.026.073.025.093.025.16-.001.587-.333.638-.355a5.752 5.752 0 0 1 .71-.276 6.641 6.641 0 0 1 1.037-.236 10.399 10.399 0 0 1 1.659-.11c1.215.001 1.816.122 1.82.09zm-15.081.418a3.817 3.817 0 0 0-1.704-1.11 6.709 6.709 0 0 0-2.38-.085 10.792 10.792 0 0 0-1.646.253s-1.016.234-1.2.63a.068.068 0 0 0-.006.059c.028.047.173.011.23-.004a4.698 4.698 0 0 0 .892-.409 2.815 2.815 0 0 1 .805-.216 7.105 7.105 0 0 1 1.597-.056 7.151 7.151 0 0 1 1.792.176 7.122 7.122 0 0 1 .985.409c.416.21.626.366.635.353z"/>
    <path d="m59.693 32.387-.254-.393-3.096 1.998-1.051.117a3.51 3.51 0 0 0-.313-.953 4.157 4.157 0 0 0-1.615-1.652 6.214 6.214 0 0 0-2.297-.857 9.03 9.03 0 0 0-2.277-.175 10.17 10.17 0 0 0-2.334.35 5.94 5.94 0 0 0-1.945.828 4.974 4.974 0 0 0-1.162 1.103 4.609 4.609 0 0 0-.35.513 4.734 4.734 0 0 1-.525-.077 4.052 4.052 0 0 1-.368-.094 5.05 5.05 0 0 0-.282-.076 5.134 5.134 0 0 0-.924-.12 8.633 8.633 0 0 0-1.056 0 7.527 7.527 0 0 0-1.204.118 5.874 5.874 0 0 0-.953.276 3.87 3.87 0 0 0-.23-.415 4.222 4.222 0 0 0-.957-1.019 6.32 6.32 0 0 0-1.856-1.003 9.178 9.178 0 0 0-2.162-.526 8.02 8.02 0 0 0-2.81.09 5.831 5.831 0 0 0-2.217.918 4.216 4.216 0 0 0-1.11 1.112 3.587 3.587 0 0 0-.485 1.123 3.726 3.726 0 0 0-.003 1.506 5.392 5.392 0 0 0 .444 1.422 6.885 6.885 0 0 0 1.12 1.738 7.126 7.126 0 0 0 2.206 1.648 5.81 5.81 0 0 0 1.832.59 5.395 5.395 0 0 0 .737.05 6.332 6.332 0 0 0 1.508-.196 6.599 6.599 0 0 0 1.74-.679 4.42 4.42 0 0 0 2.2-2.439 4.921 4.921 0 0 0 .474-1.784 4.396 4.396 0 0 0-.15-1.409c-.028-.1-.06-.199-.096-.297a5.392 5.392 0 0 1 .858-.246 7.1 7.1 0 0 1 1.137-.11 8.154 8.154 0 0 1 1.003 0 4.696 4.696 0 0 1 .846.108c.104.024.181.047.258.07a4.483 4.483 0 0 0 .825.17l-.025.073a3.053 3.053 0 0 0-.035 1.432 6.486 6.486 0 0 0 1.035 3.058 5.894 5.894 0 0 0 1.243 1.274 6.347 6.347 0 0 0 2.358 1.092 7.166 7.166 0 0 0 1.865.266 6.045 6.045 0 0 0 1.345-.15 6.177 6.177 0 0 0 2.718-1.39 6.107 6.107 0 0 0 1.449-1.921 5.874 5.874 0 0 0 .503-1.6 5.981 5.981 0 0 0 .09-1.275l1.16-.129zm-21.984 3.02a4.505 4.505 0 0 1-.44 1.644 4.02 4.02 0 0 1-2.027 2.245 6.19 6.19 0 0 1-1.63.636 5.525 5.525 0 0 1-2.097.14 5.443 5.443 0 0 1-1.71-.554 6.708 6.708 0 0 1-2.079-1.55 6.47 6.47 0 0 1-1.051-1.633 5.024 5.024 0 0 1-.414-1.32 3.327 3.327 0 0 1-.002-1.35 3.212 3.212 0 0 1 .43-.992 3.846 3.846 0 0 1 1.003-1.001 5.38 5.38 0 0 1 2.068-.853 6.967 6.967 0 0 1 1.51-.164 9.297 9.297 0 0 1 1.164.082 8.905 8.905 0 0 1 2.065.502 5.964 5.964 0 0 1 1.744.94 3.589 3.589 0 0 1 1.33 1.952 3.974 3.974 0 0 1 .136 1.276zm17.141.38a5.46 5.46 0 0 1-.468 1.485 5.7 5.7 0 0 1-1.35 1.792 5.768 5.768 0 0 1-2.538 1.296 6.156 6.156 0 0 1-3.017-.113 5.967 5.967 0 0 1-2.213-1.021 5.474 5.474 0 0 1-1.156-1.183 6.077 6.077 0 0 1-.965-2.884l-.202.03.202-.03a2.663 2.663 0 0 1 .023-1.253 2.77 2.77 0 0 1 .51-.907 4.566 4.566 0 0 1 1.066-1.011 5.61 5.61 0 0 1 1.825-.772 9.747 9.747 0 0 1 2.237-.335 8.622 8.622 0 0 1 2.18.167 5.87 5.87 0 0 1 2.158.8 3.75 3.75 0 0 1 1.47 1.49 3.938 3.938 0 0 1 .238 2.449z"/>
    <path d="M56.492 31.857a.283.283 0 0 0-.1-.14.159.159 0 0 0 .083-.125.186.186 0 0 0-.085-.153.126.126 0 0 0 .047-.145.308.308 0 0 0-.066-.11.143.143 0 0 0 .025-.128v-.002a.16.16 0 0 0-.123-.205 5.007 5.007 0 0 0-.542-.149.165.165 0 0 0-.122-.114 2.366 2.366 0 0 1-.198-.075 1.397 1.397 0 0 1 .186.04l.025.022a.12.12 0 0 0 .087.013c.045.015.089.03.132.047.14.053.256.13.407.068.127-.053.078-.223-.037-.253.043.011-.036-.014-.049-.017a.699.699 0 0 0-.087-.007.103.103 0 0 0-.087-.112 1.046 1.046 0 0 0-.27-.026.944.944 0 0 0-.525-.18.584.584 0 0 0-.193-.077.352.352 0 0 0 .196-.05c.14.046.264.118.405.166a.107.107 0 0 0 .114-.174.625.625 0 0 0-.139-.098.16.16 0 0 0 .02-.03.13.13 0 0 0-.041-.139.96.96 0 0 0-.303-.133 1.085 1.085 0 0 0 .189-.043.074.074 0 0 0 .03-.13.122.122 0 0 0-.036-.162.53.53 0 0 0-.245-.108.096.096 0 0 0-.094-.084c-.028 0-.056.004-.084.005l-.003-.009a.43.43 0 0 0-.306-.144.47.47 0 0 0-.162-.076.082.082 0 0 0-.064-.091.906.906 0 0 0-.287-.016.08.08 0 0 0-.033-.083.705.705 0 0 0-.504-.1.067.067 0 0 0-.036-.107l.031-.011a.095.095 0 0 0-.026-.179 1.122 1.122 0 0 0-.52.094c-.13.041-.259.087-.387.132a2.247 2.247 0 0 1-.142.006.083.083 0 0 0-.058.022.099.099 0 0 0 .005-.098l.037-.017c.23-.037.462-.058.688-.115a.092.092 0 0 0 .068-.061c.033-.008.067-.016.1-.026.147-.043.102-.212-.035-.227a1.603 1.603 0 0 0-.84.198c-.14.03-.279.067-.417.106a.512.512 0 0 0 .097-.096l.007-.014c.064-.023.096-.117.02-.15a.706.706 0 0 0-.146-.041.1.1 0 0 0-.084-.098 1.16 1.16 0 0 0-.525.139 6.371 6.371 0 0 0-.334.09.117.117 0 0 0-.004-.024l-.008-.025a.135.135 0 0 0-.127-.086.231.231 0 0 0-.094.013.12.12 0 0 0-.03-.03c-.292-.207-.746-.07-1.13.132a.14.14 0 0 0-.035-.008h-.044c.04-.09-.048-.17-.151-.155a2.545 2.545 0 0 0-.694.26 9.15 9.15 0 0 0-1.41.587c-.078.037-.044.115.016.139-.055.027-.11.05-.165.08-.34.18-.725.403-.767.816-.011.108.172.12.2.025.105-.344.638-.566.972-.71a.18.18 0 0 0 .061.037q-.171.088-.34.18a.057.057 0 0 0-.072-.01.876.876 0 0 1-.123.07.077.077 0 0 0-.048.075l-.17.095c-.113.065-.004.209.102.155q.165-.084.332-.162a2.42 2.42 0 0 0 1.073-.442c.155-.057.31-.111.467-.164a.079.079 0 0 0 .064.019l.035-.004-.029.013c-.11.053-.005.188.094.144l.013-.006a.09.09 0 0 0 .094.004q.16-.086.323-.168a5.85 5.85 0 0 1 .376-.12l.38-.08.012.005c-.175.05-.35.098-.523.144-.14.036-.074.22.06.191.187-.041.374-.077.56-.115a.115.115 0 0 0 .054.016c.142.005.287.003.432-.001.109.003.218.007.327.014-.1.043-.2.084-.302.12a.089.089 0 1 0 .052.17 6.096 6.096 0 0 0 .68-.25.988.988 0 0 0 .46.024.153.153 0 0 0 .104-.12l.08-.006a.104.104 0 0 0 .1.165 1.976 1.976 0 0 1 .651.115.113.113 0 0 0 .151.066l.023-.01c.06.02.122.04.183.058a1.144 1.144 0 0 0 .247.055.099.099 0 0 0 .032.04c-.18-.004-.36-.004-.536 0a.101.101 0 1 0 0 .201 6.178 6.178 0 0 1 .65.054c.051.007.102.016.153.026a.1.1 0 0 0-.042.138l-.142-.037a.099.099 0 1 0-.058.188c.241.082.484.161.726.24a.089.089 0 0 0 .046.136 3.727 3.727 0 0 1 .622.323l-.257-.1c-.127-.047-.239.157-.1.212.188.075.375.154.558.242a.102.102 0 0 0 .098.074c.017 0 .034.005.05.006a.44.44 0 0 0 .312.084.17.17 0 0 0 .052-.025c.027.006.055.011.082.019l.079.026a.659.659 0 0 1 .055.075l-.046-.011a1.982 1.982 0 0 0-.716-.026c-.104.013-.077.169.025.163a1.656 1.656 0 0 1 .264.005.085.085 0 0 0 .003.156 2.796 2.796 0 0 1 .365.228 2.151 2.151 0 0 1 .165.15l-.058-.009a.45.45 0 0 1-.185-.077c-.12-.076-.3.1-.171.197.148.11.398.248.563.097a.103.103 0 0 0 .03-.103c.115.013.24-.076.205-.203zm-7.423-3.452-.094.029a.12.12 0 0 0-.008-.034l.048-.015a1.42 1.42 0 0 1 .078-.006.075.075 0 0 0-.024.026zm1.063-.236a1.651 1.651 0 0 1 .44-.065 4.049 4.049 0 0 1-.44.065zm.464.488a.128.128 0 0 0 .023-.016l.121-.023-.144.04zm.928-.35-.06.022-.18.005a.104.104 0 0 0-.095.055.127.127 0 0 0-.023-.035c.125-.034.25-.068.373-.105.036-.011.08-.022.127-.033l.066-.008a2.266 2.266 0 0 1-.208.098zm.532.005-.045.003c.021-.01.04-.024.06-.036a.071.071 0 0 0-.015.033zm.436.224-.055.019a.113.113 0 0 0-.05.031.118.118 0 0 0-.004-.024.24.24 0 0 0 .114-.052l.005-.006a.074.074 0 0 0-.01.032zm.6.334h.015l.004.004zm1.125.254c.003-.005.001-.012.003-.018.048.001.096 0 .143.003q-.085.017-.169.038a.242.242 0 0 0 .023-.023zm-.505-.292-.3.037a.24.24 0 0 0 .057-.07c.04-.007.08-.015.12-.02a1.16 1.16 0 0 1 .265.003 2.45 2.45 0 0 0-.142.05zm.462.603c-.108-.009-.217-.013-.326-.018l.196-.034a.116.116 0 0 0 .136.041c.059-.024.118-.042.176-.06a.152.152 0 0 0 .096.053c.063.007.126.012.188.017l-.125.035a1.604 1.604 0 0 1-.25-.054.098.098 0 0 0-.09.02zm-22.257-1.487.003.002-.006-.003zm3.532 1.614a1.384 1.384 0 0 1-.697-.327.122.122 0 0 1-.163.087 2.557 2.557 0 0 1-.675-.41l.16.155a.077.077 0 0 1 .014.108c.104.038.208.073.309.103a.072.072 0 1 1-.043.138 7.626 7.626 0 0 1-.875-.277l.043.048c.073.078-.049.173-.119.106-.093-.09-.19-.2-.291-.306a.917.917 0 0 1-.22-.146 1.428 1.428 0 0 0-.178-.038 1.505 1.505 0 0 1 .207.358c.042.106-.148.166-.194.073a1.067 1.067 0 0 0-.147-.223h-.005l-.017-.006a.128.128 0 0 1 0 .035.063.063 0 0 1-.061.042.552.552 0 0 1-.236-.127c-.036-.024-.07-.051-.105-.076a2.072 2.072 0 0 0-.532-.119.19.19 0 0 1-.128-.053c.018.016.034.034.051.05a.863.863 0 0 1 .037.038.158.158 0 0 1 .082-.025.255.255 0 0 1 .254.14 3.407 3.407 0 0 0 .712.292.095.095 0 1 1-.056.182c-.17-.051-.34-.102-.51-.157.089.067-.005.191-.1.138a3.542 3.542 0 0 0-.257-.134.115.115 0 0 1-.116.024 2.947 2.947 0 0 1-.25-.145 1.439 1.439 0 0 0-.157-.026.08.08 0 0 1-.109.071l-.037-.01a.15.15 0 0 1-.085.005c.08.02-.039.004-.06 0a.234.234 0 0 1-.048-.013 1.853 1.853 0 0 1-.647-.118c.04.027.08.055.115.076a4.411 4.411 0 0 1 .467.309c.083.065-.04.151-.114.1a2.912 2.912 0 0 0-.457-.25c-.035-.016-.07-.026-.105-.038a.096.096 0 0 1-.095-.022l-.023-.02c-.046-.014-.091-.027-.136-.045a.092.092 0 0 1-.067-.097.735.735 0 0 0-.178-.059 1.007 1.007 0 0 1 .087.132.876.876 0 0 1 .16.071.084.084 0 0 1 .03.03l.282.042c.13.02.092.21-.031.201a4.9 4.9 0 0 0-.326-.006l.003.011c.01.075-.061.1-.124.087a.092.092 0 0 1-.138.094 3.052 3.052 0 0 0-.34-.149 1.916 1.916 0 0 1 .361.219c.115.093-.058.217-.16.143a1.693 1.693 0 0 0-.605-.257q.076.044.15.094a2.232 2.232 0 0 0 .3.089.11.11 0 0 1 .062.182.102.102 0 0 1-.151.12l-.176-.103a2.316 2.316 0 0 1-.169-.032.092.092 0 0 1-.125.061 1.108 1.108 0 0 0-.745-.063c.073.019.147.036.222.05l.19.01a.1.1 0 1 1 0 .199l-.45.022-.085.008a.061.061 0 0 1-.056.095l-.016.001a.102.102 0 0 1-.074.065c.032.058-.039.131-.112.095a2.377 2.377 0 0 0-.262-.12 1.92 1.92 0 0 1-.085.008l.063.025a.086.086 0 0 1 0 .154l-.018.008a.875.875 0 0 1 .172.064c.089.045.02.164-.066.14-.014-.004-.026-.004-.04-.007a.086.086 0 0 1-.012 0 .328.328 0 0 0-.228.042.198.198 0 0 1-.155.035.082.082 0 0 1-.04-.017.128.128 0 0 1-.114-.22.176.176 0 0 1-.032-.018.138.138 0 0 1-.006-.2.118.118 0 0 1 .014-.168.491.491 0 0 1 .298-.093.141.141 0 0 1 .138-.098.181.181 0 0 1 .08.024c-.03-.02-.055-.021-.014-.014a.243.243 0 0 1 .09.045c.016.01.073.035.104.05.04.02.082.038.123.057h.002l-.005-.004a.111.111 0 0 1-.032-.088c-.044-.005-.088-.01-.132-.012-.2-.012-.196-.298 0-.279l.028.004c-.061-.272.265-.258.561-.207a.13.13 0 0 1 .116-.173c.02-.003.04-.001.06-.003a.161.161 0 0 1 .218-.043c.047.029.092.06.137.09l.039.012a.11.11 0 0 1-.018-.066l.002-.023a.166.166 0 0 1 .038-.088.153.153 0 0 1-.091-.227l.018-.028a.195.195 0 0 1 .245-.057 2.051 2.051 0 0 0 .275.092.996.996 0 0 1 .185-.032h-.001a.124.124 0 0 1-.106-.04.226.226 0 0 0-.08-.062c-.213-.106-.007-.385.187-.284a1.272 1.272 0 0 1 .124.075.14.14 0 0 1 .14-.074.727.727 0 0 1 .185.031c-.046-.135.155-.278.313-.207l.003-.006c.033.022.067.04.1.06a.418.418 0 0 1 .432-.303.225.225 0 0 1 .205-.19h.023a.392.392 0 0 1 .053-.129.218.218 0 0 1 .315-.036c.074.053.153.1.233.145a.101.101 0 0 1 .074-.125l-.019-.01a.115.115 0 0 1-.048-.164.149.149 0 0 1 .185-.044.812.812 0 0 1 .473.542.457.457 0 0 1 .116.026 4.173 4.173 0 0 0-.04-.07 1.258 1.258 0 0 0-.115-.166c-.013-.015-.03-.028-.041-.045l-.019-.023a.116.116 0 0 0 .109-.002.154.154 0 0 1-.111 0c-.01-.01-.01-.007-.003-.001-.08-.03-.136-.114-.05-.188.16-.137.321.045.39.18a1.404 1.404 0 0 1 .148.472.192.192 0 0 1 .165-.112.975.975 0 0 1-.286-.321c-.027-.079.068-.144.138-.122a.355.355 0 0 1 .117.065.138.138 0 0 1 .1-.023.768.768 0 0 1 .416.328.21.21 0 0 1 .144.043.38.38 0 0 1 .082.09c.063.043.122.09.18.138l-.001-.004c-.056-.162.191-.264.296-.154.053.055.105.112.157.168.203-.168.532.07.706.19.305.21.583.463.893.664a.107.107 0 0 1-.06.2zm-5.856-.103-.008-.014h-.02zm.86-.74a.21.21 0 0 1-.024-.057l-.026.04zm.418.115-.029-.015a.14.14 0 0 1-.031.03l.017.006a.256.256 0 0 1 .042-.021zm.616-.137a.169.169 0 0 1-.038-.135 11.258 11.258 0 0 0-.13-.04l.067.075c.032.035.067.067.101.1zm.345-.451a.681.681 0 0 0-.204-.227 1.129 1.129 0 0 0 .144.206l.06.021zm1.057.097-.011-.01-.02-.017.028.036zm.81.67a7.25 7.25 0 0 0-.282-.222 1.641 1.641 0 0 0-.312-.189h-.002a.077.077 0 0 1 .017.035 1.932 1.932 0 0 0 .195.157c.066.033.132.066.198.101a.087.087 0 0 1 .041.044c.048.026.095.051.144.075z"/>
    <path d="M66.295 32.644a1.24 1.24 0 0 0-.615-.454 4.01 4.01 0 0 0-.018-.123 23.27 23.27 0 0 0-.57-10.333l-.027-.122a24.948 24.948 0 0 0-2.806-7.98 17.135 17.135 0 0 0-3.616-4.443 15.122 15.122 0 0 0-1.828-1.32 10.61 10.61 0 0 0-2.268-2.43c-4.221-3.278-9.809-2.328-12.81-1.818a22.206 22.206 0 0 0-5.858 1.831A24.1 24.1 0 0 0 31.5 8.248a23.055 23.055 0 0 0-3.527 3.165 23.57 23.57 0 0 0-3.593 5.712l-.098.2a23.8 23.8 0 0 0-1.968 4.894 20.541 20.541 0 0 0-.213 9.099.51.51 0 0 0 .155.274.205.205 0 0 0-.012.073c.128 1.11.372 2.226.426 3.362a43.747 43.747 0 0 1-.059 5.418c-.023.41-.05.767-.074 1.081a4.557 4.557 0 0 0 .33 2.838 4.493 4.493 0 0 0 2.219 1.92.585.585 0 0 0 .17.047h.003c-.012.686.094 1.294.097 1.807a16.708 16.708 0 0 0 2.323 8.091 8.523 8.523 0 0 0 5.098 3.883c.082.174.176.358.284.552a9.457 9.457 0 0 0 .729 1.118 9.853 9.853 0 0 0 2.953 2.561 10.274 10.274 0 0 0 4.404 1.276c.34.027.789.063 1.313.063a8.768 8.768 0 0 0 4.682-1.258 8.377 8.377 0 0 0 2.161-1.926c4.26-1.06 7.572-3.06 9.28-6.613.14-.291.168-.584 1.23-3.414a25.235 25.235 0 0 0 1.046-3.137c.161-.552.335-1.13.442-1.596.093.005.33.054.434.054a3.599 3.599 0 0 0 2.74-1.05 4.427 4.427 0 0 0 .695-2.194c.207-1.272.134-2.533.422-3.78a40.89 40.89 0 0 0 .79-4.095c.265-2.148.549-3.228-.087-4.03zm-42.99-10.172a23.004 23.004 0 0 1 1.895-4.696l.098-.2a22.425 22.425 0 0 1 3.44-5.485 21.902 21.902 0 0 1 3.385-3.031 23.198 23.198 0 0 1 4.201-2.686 21.166 21.166 0 0 1 5.584-1.744c2.847-.484 8.146-1.384 12.012 1.618a9.611 9.611 0 0 1 2.107 2.283.51.51 0 0 0 .162.156 14.109 14.109 0 0 1 1.795 1.284 15.893 15.893 0 0 1 3.392 4.177 34.296 34.296 0 0 1 2.717 7.808 37.424 37.424 0 0 1 .757 10.35c-.033.065-.064.076-.232.233-.096.09-.088.115-.232.241a3.511 3.511 0 0 0-.787.916 5.688 5.688 0 0 0-.611 1.613 6.895 6.895 0 0 0-.198 1.05c-.028.238-.035.273-.095.357a1.292 1.292 0 0 1-1.43.422c-.154-.1-.479-.5-.18-2.054a3.328 3.328 0 0 1 .303-.898 1.558 1.558 0 0 0 .193-1.06 2.014 2.014 0 0 0-1.095-1.326 3.035 3.035 0 0 1-.964-.846c-.353-.518-.362-1.268-.38-2.762a13.002 13.002 0 0 1 .372-3.993c.085-.305.178-.586.26-.834.265-.798.493-1.487.03-2.036a1.267 1.267 0 0 0-.948-.41 1.007 1.007 0 0 1-.552-.16c-.114-.082-.152-.175-.375-.905-.076-.25-.17-.56-.294-.944-.442-1.366-.685-2.12-.766-2.519a5.782 5.782 0 0 0-.247-.839c-.048-.136-.1-.285-.157-.462a254.86 254.86 0 0 0-1.19-3.674.512.512 0 0 0-.688-.308 18.328 18.328 0 0 1-2.656.906 17.45 17.45 0 0 1-2.322.42c-.497.066-1.095.147-1.9.273a1.095 1.095 0 0 0-.166.002l-.003-.011-.223.042-.135.024-7.285 1.363a9.63 9.63 0 0 1-2.446.364 3.997 3.997 0 0 1-1.405-.41 2.792 2.792 0 0 0-1.67-.329 2.443 2.443 0 0 0-1.209.516 8.716 8.716 0 0 1-1.26.734 5.857 5.857 0 0 1-1.438.518 3.254 3.254 0 0 0-1.1.429c-1.327.797-1.908 2-2.787 3.823a7.838 7.838 0 0 0-.975 3.054 3.924 3.924 0 0 0 .1 1.256 10.1 10.1 0 0 1 .179 1.143 16.877 16.877 0 0 1-.27 4.566 7.97 7.97 0 0 1-.226.912 8.965 8.965 0 0 0-.261 1.076c-.071.369-.129.72-.175 1.048a4.425 4.425 0 0 0-.492-.782 4.516 4.516 0 0 0-1.403-1.167 19.487 19.487 0 0 1 .247-8.406zm42.297 13.984q-.195.913-.334 1.836c-.107.707-.382 1.364-.5 2.076-.186 1.108-.195 2.238-.404 3.342-.093.493-.241.974-.359 1.457a2.475 2.475 0 0 1-.352 1.037 3.988 3.988 0 0 1-2.24.64 8.657 8.657 0 0 0 .107-1.45c.027-.51-.108-1.272-.273-1.276-.141-.003-.243.62-.425 1.479 0 0-.299 1.407-.88 3.394a28.425 28.425 0 0 1-1.135 3.118c-1.036 2.759-1.146 3.01-1.266 3.243a12.304 12.304 0 0 1-2.324 3.156 10.689 10.689 0 0 1-5.04 2.615 6.906 6.906 0 0 0 .388-.95c.243-.757.407-1.754.237-1.814-.097-.034-.417.503-1.052 1.579-.968 1.639-1.008 1.712-1.125 1.875a6.58 6.58 0 0 1-2.188 1.875 8.751 8.751 0 0 1-4.884 1.043 10.396 10.396 0 0 1-4.332-1.095 13.787 13.787 0 0 1-3.857-3.958 20.746 20.746 0 0 1-1.263-1.95c-.135.067.172 1.07.21 1.195l.033.105a8.466 8.466 0 0 1-1.963-1.07 9.008 9.008 0 0 1-2.328-2.586 11.68 11.68 0 0 1-1.08-2.51c-.08-.244-.22-.67-.351-1.243a21.836 21.836 0 0 1-.376-3.143c-.16-1.817-.164-1.949-.164-2.158 0-.363.016-.921.002-1.797-.017-1.056-.055-1.24-.12-1.25-.15-.023-.41.902-.435.997a8.57 8.57 0 0 0-.22 1.231l-.054-.032a4.192 4.192 0 0 1-1.444-1.502 5.293 5.293 0 0 1-.347-2.022 20.279 20.279 0 0 1-.057-1.732c.06-3.306-.054-2.935.042-5.2a.494.494 0 0 0-.001-.055c-.012-.161-.081-1.04-.336-2.82a3.302 3.302 0 0 1 .546.542 4.567 4.567 0 0 1 .835 2.254c.054.369.13.875.643.854.527-.02.573-.476.664-1.386.06-.611.144-1.448.333-2.427a8.013 8.013 0 0 1 .236-.972 8.979 8.979 0 0 0 .25-1.01 17.992 17.992 0 0 0 .285-4.87 11.015 11.015 0 0 0-.195-1.246 2.935 2.935 0 0 1-.081-.978 6.871 6.871 0 0 1 .875-2.68c.828-1.716 1.328-2.751 2.393-3.391a2.25 2.25 0 0 1 .802-.309 6.829 6.829 0 0 0 1.654-.594 9.743 9.743 0 0 0 1.392-.81 1.468 1.468 0 0 1 .762-.345 1.822 1.822 0 0 1 1.117.244 4.99 4.99 0 0 0 1.728.497 9.748 9.748 0 0 0 2.734-.376l4.06-.76v.002l.087-.016.008-.002.482-.09c1.046-.195 1.718-.319 2.59-.46a78.46 78.46 0 0 1 2.434-.36 18.482 18.482 0 0 0 2.44-.442 19.403 19.403 0 0 0 2.29-.745c.355 1.076.696 2.13 1.014 3.137.06.19.116.35.167.496a4.87 4.87 0 0 1 .21.7c.091.457.326 1.184.794 2.632.122.377.215.68.29.926.247.812.349 1.148.759 1.44a1.965 1.965 0 0 0 1.052.347c.174.016.239.026.26.05.093.112-.073.613-.22 1.055-.085.26-.182.553-.274.882a14.002 14.002 0 0 0-.409 4.28c.02 1.646.03 2.553.557 3.325a3.981 3.981 0 0 0 1.258 1.131c.428.275.594.402.641.654.025.132.008.181-.111.432a4.327 4.327 0 0 0-.384 1.144c-.114.593-.46 2.398.627 3.105a1.66 1.66 0 0 0 .913.253 2.466 2.466 0 0 0 1.91-.941 1.563 1.563 0 0 0 .276-.829 5.858 5.858 0 0 1 .171-.91 4.826 4.826 0 0 1 .499-1.345 2.506 2.506 0 0 1 .58-.671 1.88 1.88 0 0 0 .453-.515 1.29 1.29 0 0 1 .353.126c.494.314.057 1.811-.26 3.292z"/>
</svg>
