<svg height='100px' width='100px'  fill="#000000" xmlns="http://www.w3.org/2000/svg" viewBox="0 0 100 100" x="0px" y="0px"><g data-name="nancy pelosi"><path d="M59.6626,44.20605a3.73078,3.73078,0,0,0-2.25928,1.18067l-.7207-.69336a4.714,4.714,0,0,1,2.87549-1.48145,5.02023,5.02023,0,0,1,2.57959.52051,12.40051,12.40051,0,0,1,4.20654,2.96094l-.72559.6875A11.42825,11.42825,0,0,0,61.751,44.6543,4.123,4.123,0,0,0,59.6626,44.20605Zm5.02148,31.5586a3.27679,3.27679,0,0,0,.47949-2.13281A4.44794,4.44794,0,0,0,63.9707,71.4834a12.05937,12.05937,0,0,0-1.28369-1.377l-.67578.73828a10.90748,10.90748,0,0,1,1.17725,1.26172c.648.81347.91357,1.16308.98486,1.666a2.29005,2.29005,0,0,1-.35254,1.48828Zm-7.86084-24.75a17.46024,17.46024,0,0,1,2.52484-1.56891,1.91655,1.91655,0,0,0-.1463.73914,2.36756,2.36756,0,0,0,4.73511,0,1.76731,1.76731,0,0,0-.41913-1.19819c.04675.01447.09491.01893.14142.03479a5.07353,5.07353,0,0,1,2.13916,1.43946l.74609-.666a6.07967,6.07967,0,0,0-2.56347-1.7207,6.19284,6.19284,0,0,0-4.20069.09863,14.94836,14.94836,0,0,0-3.53906,2.0293Zm-28.38086,23.71A2.33643,2.33643,0,1,0,26.106,72.38867,2.33894,2.33894,0,0,0,28.44238,74.72461ZM25.63281,62.36328a4.611,4.611,0,0,0-.29394,2.1709,4.55806,4.55806,0,0,0,.53418,1.70117l.87793-.47851a3.57637,3.57637,0,0,1-.418-1.33008,3.61263,3.61263,0,0,1,.23047-1.69824ZM68.33575,79.68066a35.96148,35.96148,0,0,0,1.65784-4.32141,3.34787,3.34787,0,0,1-.85278-.59723A35.05744,35.05744,0,0,1,67.429,79.25879c-1.18262,2.54394-2.40577,5.1748-4.96338,7.44922a15.25154,15.25154,0,0,1-5.34522,2.65625l-.16992.08105a13.01954,13.01954,0,0,1-2.76758,1.55176,10.78712,10.78712,0,0,1-11.26806-1.39648l-.39356-.15918a13.27509,13.27509,0,0,1-5.15918-2.7334c-2.55762-2.27442-3.78076-4.90528-4.96387-7.44922a34.92206,34.92206,0,0,1-1.69915-4.42853,3.3369,3.3369,0,0,1-.85858.57715,35.96674,35.96674,0,0,0,1.651,4.27325c1.22607,2.63672,2.49365,5.36329,5.20654,7.77539a14.16861,14.16861,0,0,0,5.52,2.93848l.15039.04785a12.11971,12.11971,0,0,0,3.4458,1.89063,11.30634,11.30634,0,0,0,3.73.63183,13.26615,13.26615,0,0,0,5.01611-1.042,14.01686,14.01686,0,0,0,2.90479-1.61523,15.81961,15.81961,0,0,0,5.66455-2.85157C65.84259,85.044,67.11017,82.31738,68.33575,79.68066ZM54.69922,66.2041c-.11817-.0293-.17285-.08691-.29639-.22754a1.54728,1.54728,0,0,0-.61181-.46972c-.62842-.24414-1.38477,0-2.35547.79394-.04834.04981-.11817.11914-.2085.20508a4.117,4.117,0,0,1-.78131.62585,1.12457,1.12457,0,0,1-.91888.02845,3.70024,3.70024,0,0,1-.83448-.65821c-.08691-.082-.15674-.15136-.24951-.24218-.92676-.75293-1.68408-.999-2.31152-.75293a1.54879,1.54879,0,0,0-.61133.46972c-.12354.14063-.17822.19824-.29639.22754a.66086.66086,0,0,1-.76855-.918l-.92774-.373a1.66069,1.66069,0,0,0,1.9375,2.26171,1.49268,1.49268,0,0,0,.80616-.53808.63968.63968,0,0,1,.22558-.19824c.24512-.10254.73731.127,1.271.55566.05517.05762.13672.13867.24756.24414a4.32124,4.32124,0,0,0,1.10547.83594,2.06531,2.06531,0,0,0,.83642.17676,2.16976,2.16976,0,0,0,.84491-.17743l.00031.00067c.00836-.00372.016-.00946.02435-.01331a2.29836,2.29836,0,0,0,.65192-.42419l-.00708-.00757c.1513-.12744.29974-.26318.44653-.40063.10058-.09571.18213-.17676.19287-.19336.835-.67774,1.19775-.64356,1.31543-.59668a.63978.63978,0,0,1,.22559.19824,1.49451,1.49451,0,0,0,.80615.53808,1.7088,1.7088,0,0,0,1.68554-.54589,1.69,1.69,0,0,0,.25147-1.71582l-.92773.373a.66076.66076,0,0,1-.76807.918ZM55.38135,76.751l.33105-.94336a6.63228,6.63228,0,0,0-2.67138-.31543,7.06046,7.06046,0,0,0-1.71485.31836,4.2401,4.2401,0,0,1-1.44531.22949,4.42558,4.42558,0,0,1-1.416-.27246A4.18225,4.18225,0,0,0,46.74023,75.5a15.93966,15.93966,0,0,0-2.53027.30176l.29785.95508a14.24863,14.24863,0,0,1,2.28614-.25879,3.38543,3.38543,0,0,1,1.36084.2207,5.42592,5.42592,0,0,0,1.6997.32129c.04541.001.08936.00195.13233.00195a5.37238,5.37238,0,0,0,1.61523-.27051,6.13754,6.13754,0,0,1,1.49414-.28125A5.59212,5.59212,0,0,1,55.38135,76.751ZM73.08057,65.93945l.85254.52344a4.59507,4.59507,0,0,0,.32373-4.167l-.92286.38476a3.5949,3.5949,0,0,1-.25341,3.25879ZM34.1958,39.2373a10.42518,10.42518,0,0,0-3.84521,2.126A12.43273,12.43273,0,0,0,27.916,44.04883l.83105.55664a11.43835,11.43835,0,0,1,2.23828-2.46973,9.37489,9.37489,0,0,1,3.48242-1.93554,9.6669,9.6669,0,0,1,4.07666-.13086,18.12259,18.12259,0,0,1,5.55176,1.57421l.41992-.9082a19.16382,19.16382,0,0,0-5.8584-1.66015A10.68273,10.68273,0,0,0,34.1958,39.2373ZM69.14355,72.38867a2.33667,2.33667,0,1,0,2.33692-2.33691A2.339,2.339,0,0,0,69.14355,72.38867ZM78.9812,24.28546a36.59779,36.59779,0,0,0-8.07776-9.13129,33.01919,33.01919,0,0,0-11.941-5.97052,33.60288,33.60288,0,0,0-16.13958.20093,19.42069,19.42069,0,0,0-6.354,2.87445,25.07508,25.07508,0,0,0-4.08478,4.18476c-5.561-.07013-11.14263,4.07068-15.95123,15.73474a92.40836,92.40836,0,0,0-3.95123,11.70733A73.97066,73.97066,0,0,0,9.55481,65.21509a41.79006,41.79006,0,0,0,1.97565,13.3902A48.0921,48.0921,0,0,0,15.48163,86.837c1.7716,3.11553,7.48785,10.75152,14.59753,9.98779,4.74542-.50977,7.8924-4.584,9.14844-6.49921a13.6084,13.6084,0,0,1-3.194-2.12219c-2.86731-2.54944-4.17932-5.371-5.44873-8.10089a36.94551,36.94551,0,0,1-1.70728-4.42188,3.27908,3.27908,0,0,1-.43518.044,3.32633,3.32633,0,0,1-2.42206-5.61694c-1.16491-1.878-2.6784-4.37915-2.334-5.65833.69244-2.5719,1.48053-3.66.22583-15.27655a38.17526,38.17526,0,0,1,.15131-10.59c.62951-3.89251,1.207-7.46325,4.08471-10.28741,3.068-3.01074,7.35968-3.15491,9.35559-3.25092a17.80732,17.80732,0,0,1,9.853-3.79467,17.57391,17.57391,0,0,1,9.18066,2.07751c6.77838,3.548,10.81586,11.24463,12.91919,17.94183a10.2447,10.2447,0,0,0-3.73-2.0318,10.64792,10.64792,0,0,0-4.46142-.1621,19.1639,19.1639,0,0,0-5.8584,1.66015l.41992.9082a18.12259,18.12259,0,0,1,5.55176-1.57421,9.68039,9.68039,0,0,1,4.07617.13086,9.37014,9.37014,0,0,1,3.4829,1.93652,11.36189,11.36189,0,0,1,1.0713,1.0202,40.54533,40.54533,0,0,1,1.21582,6.35529,21.86287,21.86287,0,0,0,1.94611,8.088c1.37048,2.99017,2.277,4.21753,2.9226,6.93872.26544,1.11871-1.32013,3.53809-2.43322,5.34393a3.30479,3.30479,0,0,1-2.7168,5.78748,36.98025,36.98025,0,0,1-1.70069,4.43182c-1.26855,2.729-2.5802,5.551-5.44842,8.10114a13.14031,13.14031,0,0,1-3.20172,2.00574c1.50024,2.03875,5.28552,6.23455,10.09637,6.72546,7.38672.297,12.82233-8.56934,14.70728-12.62195a61.82115,61.82115,0,0,0,4.17071-11.85364,48.35763,48.35763,0,0,0,.87806-8.23169C90.60065,57.46344,89.61334,40.30774,78.9812,24.28546Zm-42.24731,47.821a10.95448,10.95448,0,0,1,1.17773-1.26172l-.67578-.73828a12.02746,12.02746,0,0,0-1.28418,1.377,4.44665,4.44665,0,0,0-1.19238,2.14844,3.27784,3.27784,0,0,0,.47851,2.13281l.86426-.50391a2.289,2.289,0,0,1-.35254-1.48828C35.8208,73.26953,36.08643,72.91992,36.73389,72.10645Zm6.8955-21.9043a14.94816,14.94816,0,0,0-3.53906-2.0293,6.19127,6.19127,0,0,0-4.20019-.09863,6.07829,6.07829,0,0,0-2.564,1.7207l.7461.666a5.072,5.072,0,0,1,2.13964-1.43946c.04633-.01586.09443-.02026.141-.03472a1.76736,1.76736,0,0,0-.41907,1.19812,2.36756,2.36756,0,0,0,4.73511,0,1.91628,1.91628,0,0,0-.14631-.73908,17.46481,17.46481,0,0,1,2.52472,1.56885Zm-3.36914-5.9961a3.73075,3.73075,0,0,1,2.25928,1.18067l.7207-.69336a4.714,4.714,0,0,0-2.87548-1.48145,5.01167,5.01167,0,0,0-2.58008.52051,12.40752,12.40752,0,0,0-4.20606,2.96094l.72559.6875a11.42642,11.42642,0,0,1,3.86719-2.72656A4.11765,4.11765,0,0,1,40.26025,44.20605Zm6.627,39.12989.34863.9375a8.92065,8.92065,0,0,1,5.44922.0039l.35058-.9375A9.81913,9.81913,0,0,0,46.88721,83.33594Z"></path></g></svg>