<svg height="100" width="100" xmlns="http://www.w3.org/2000/svg">
    <path d="M59.663 44.206a3.73 3.73 0 0 0-2.26 1.18l-.72-.693a4.714 4.714 0 0 1 2.875-1.481 5.02 5.02 0 0 1 2.58.52 12.4 12.4 0 0 1 4.206 2.961l-.725.688a11.428 11.428 0 0 0-3.868-2.727 4.123 4.123 0 0 0-2.088-.448zm5.021 31.559a3.277 3.277 0 0 0 .48-2.133 4.448 4.448 0 0 0-1.193-2.149 12.06 12.06 0 0 0-1.284-1.377l-.676.739a10.907 10.907 0 0 1 1.177 1.261c.648.814.914 1.163.985 1.666a2.29 2.29 0 0 1-.352 1.489zm-7.86-24.75a17.46 17.46 0 0 1 2.524-1.57 1.917 1.917 0 0 0-.146.74 2.368 2.368 0 0 0 4.735 0 1.767 1.767 0 0 0-.42-1.198c.048.014.096.019.142.034a5.074 5.074 0 0 1 2.14 1.44l.745-.666a6.08 6.08 0 0 0-2.563-1.72 6.193 6.193 0 0 0-4.2.098 14.948 14.948 0 0 0-3.54 2.03zm-28.382 23.71a2.336 2.336 0 1 0-2.336-2.336 2.339 2.339 0 0 0 2.336 2.336zm-2.81-12.362a4.611 4.611 0 0 0-.293 2.171 4.558 4.558 0 0 0 .534 1.701l.878-.478a3.576 3.576 0 0 1-.418-1.33 3.613 3.613 0 0 1 .23-1.698zm42.704 17.318a35.961 35.961 0 0 0 1.658-4.322 3.348 3.348 0 0 1-.853-.597 35.057 35.057 0 0 1-1.712 4.497c-1.183 2.544-2.406 5.175-4.963 7.449a15.252 15.252 0 0 1-5.346 2.656l-.17.081a13.02 13.02 0 0 1-2.767 1.552 10.787 10.787 0 0 1-11.268-1.396l-.394-.16a13.275 13.275 0 0 1-5.159-2.733c-2.558-2.274-3.78-4.905-4.964-7.45A34.922 34.922 0 0 1 30.7 74.83a3.337 3.337 0 0 1-.858.577 35.967 35.967 0 0 0 1.65 4.274c1.227 2.636 2.494 5.363 5.207 7.775a14.169 14.169 0 0 0 5.52 2.939l.15.047a12.12 12.12 0 0 0 3.446 1.891 11.306 11.306 0 0 0 3.73.632 13.266 13.266 0 0 0 5.016-1.042 14.017 14.017 0 0 0 2.905-1.615 15.82 15.82 0 0 0 5.665-2.852c2.713-2.412 3.98-5.139 5.206-7.775zM54.699 66.204c-.118-.03-.173-.087-.296-.227a1.547 1.547 0 0 0-.612-.47c-.628-.244-1.385 0-2.355.794-.049.05-.119.119-.209.205a4.117 4.117 0 0 1-.781.626 1.125 1.125 0 0 1-.92.028 3.7 3.7 0 0 1-.834-.658c-.087-.082-.156-.151-.25-.242-.926-.753-1.683-1-2.31-.753a1.549 1.549 0 0 0-.612.47c-.124.14-.178.198-.296.227a.66.66 0 0 1-.769-.918l-.928-.373a1.66 1.66 0 0 0 1.938 2.262 1.493 1.493 0 0 0 .806-.538.64.64 0 0 1 .226-.199c.245-.102.737.127 1.27.556.056.058.137.139.248.244a4.321 4.321 0 0 0 1.106.836 2.065 2.065 0 0 0 .836.177 2.17 2.17 0 0 0 .845-.177c.009-.003.016-.01.025-.013a2.298 2.298 0 0 0 .652-.424l-.008-.008c.152-.127.3-.263.447-.4.1-.096.182-.177.193-.194.835-.678 1.198-.643 1.315-.597a.64.64 0 0 1 .226.199 1.495 1.495 0 0 0 .806.538 1.709 1.709 0 0 0 1.686-.546 1.69 1.69 0 0 0 .251-1.716l-.928.373a.66.66 0 0 1-.768.918zm.682 10.547.331-.943a6.632 6.632 0 0 0-2.671-.316 7.06 7.06 0 0 0-1.715.319 4.24 4.24 0 0 1-1.445.23 4.426 4.426 0 0 1-1.416-.273 4.182 4.182 0 0 0-1.725-.268 15.94 15.94 0 0 0-2.53.302l.298.955a14.249 14.249 0 0 1 2.286-.259 3.385 3.385 0 0 1 1.36.22 5.426 5.426 0 0 0 1.7.322l.133.002a5.372 5.372 0 0 0 1.615-.27 6.138 6.138 0 0 1 1.494-.282 5.592 5.592 0 0 1 2.285.261zm17.7-10.812.852.524a4.595 4.595 0 0 0 .324-4.167l-.923.385a3.595 3.595 0 0 1-.253 3.258zM34.196 39.237a10.425 10.425 0 0 0-3.845 2.126 12.433 12.433 0 0 0-2.435 2.686l.831.556a11.438 11.438 0 0 1 2.238-2.47 9.375 9.375 0 0 1 3.483-1.935 9.667 9.667 0 0 1 4.076-.13 18.123 18.123 0 0 1 5.552 1.574l.42-.909a19.164 19.164 0 0 0-5.858-1.66 10.683 10.683 0 0 0-4.462.162zM69.144 72.39a2.337 2.337 0 1 0 2.336-2.337 2.339 2.339 0 0 0-2.336 2.337zm9.837-48.104a36.598 36.598 0 0 0-8.078-9.13 33.02 33.02 0 0 0-11.94-5.971 33.603 33.603 0 0 0-16.14.2 19.42 19.42 0 0 0-6.354 2.875 25.075 25.075 0 0 0-4.085 4.185c-5.56-.07-11.143 4.07-15.951 15.735a92.408 92.408 0 0 0-3.951 11.707 73.97 73.97 0 0 0-2.927 21.33 41.79 41.79 0 0 0 1.975 13.39 48.092 48.092 0 0 0 3.952 8.231c1.771 3.116 7.487 10.752 14.597 9.988 4.746-.51 7.893-4.584 9.149-6.5a13.608 13.608 0 0 1-3.194-2.122c-2.868-2.55-4.18-5.37-5.45-8.1a36.946 36.946 0 0 1-1.706-4.422 3.28 3.28 0 0 1-.436.044 3.326 3.326 0 0 1-2.422-5.617c-1.165-1.878-2.678-4.38-2.334-5.659.693-2.572 1.48-3.66.226-15.276a38.175 38.175 0 0 1 .151-10.59c.63-3.893 1.207-7.463 4.085-10.288 3.068-3.01 7.36-3.155 9.356-3.25a17.807 17.807 0 0 1 9.853-3.795 17.574 17.574 0 0 1 9.18 2.077c6.779 3.548 10.816 11.245 12.92 17.942a10.245 10.245 0 0 0-3.73-2.032 10.648 10.648 0 0 0-4.462-.162 19.164 19.164 0 0 0-5.858 1.66l.42.909a18.123 18.123 0 0 1 5.551-1.575 9.68 9.68 0 0 1 4.077.131 9.37 9.37 0 0 1 3.483 1.937 11.362 11.362 0 0 1 1.07 1.02 40.545 40.545 0 0 1 1.217 6.355A21.863 21.863 0 0 0 73.17 57.6c1.37 2.99 2.277 4.218 2.922 6.939.266 1.119-1.32 3.538-2.433 5.344a3.305 3.305 0 0 1-2.717 5.787 36.98 36.98 0 0 1-1.7 4.432c-1.269 2.73-2.58 5.551-5.449 8.101a13.14 13.14 0 0 1-3.201 2.006c1.5 2.039 5.285 6.235 10.096 6.726 7.387.297 12.822-8.57 14.707-12.622a61.821 61.821 0 0 0 4.17-11.854 48.358 48.358 0 0 0 .879-8.232c.156-6.764-.832-23.92-11.464-39.942zm-42.247 47.82a10.954 10.954 0 0 1 1.178-1.261l-.676-.739a12.027 12.027 0 0 0-1.284 1.377 4.447 4.447 0 0 0-1.193 2.149 3.278 3.278 0 0 0 .479 2.133l.864-.504a2.289 2.289 0 0 1-.352-1.488c.07-.503.336-.853.984-1.667zm6.895-21.904a14.948 14.948 0 0 0-3.539-2.03 6.191 6.191 0 0 0-4.2-.098 6.078 6.078 0 0 0-2.564 1.72l.746.667a5.072 5.072 0 0 1 2.14-1.44c.046-.015.094-.02.14-.034a1.767 1.767 0 0 0-.418 1.198 2.368 2.368 0 0 0 4.735 0 1.916 1.916 0 0 0-.146-.74 17.465 17.465 0 0 1 2.524 1.57zm-3.369-5.996a3.73 3.73 0 0 1 2.26 1.18l.72-.693a4.714 4.714 0 0 0-2.875-1.481 5.012 5.012 0 0 0-2.58.52 12.408 12.408 0 0 0-4.206 2.961l.725.688a11.426 11.426 0 0 1 3.867-2.727 4.118 4.118 0 0 1 2.09-.448zm6.627 39.13.349.937a8.92 8.92 0 0 1 5.45.004l.35-.937a9.82 9.82 0 0 0-6.149-.004z" data-name="nancy pelosi"/>
</svg>
