<svg height='100px' width='100px'  fill="#000000" xmlns="http://www.w3.org/2000/svg" data-name="Layer 1" viewBox="0 0 128 128" x="0px" y="0px"><title>miscellaneous 57 solid</title><path d="M33.35,0H22a8.01062,8.01062,0,0,0-8,8V120a8.01066,8.01066,0,0,0,8,8h84a8.01066,8.01066,0,0,0,8-8V8a8.01062,8.01062,0,0,0-8-8H94.65A5.80321,5.80321,0,0,1,95,2V14a6.00476,6.00476,0,0,1-6,6H39a6.00476,6.00476,0,0,1-6-6V2A5.80321,5.80321,0,0,1,33.35,0ZM90.11,31.35,92,26l1.89,5.35H100l-4.94,3.3L96.94,40,92,36.7,87.06,40l1.88-5.35L84,31.35Zm-28,0L64,26l1.89,5.35H72l-4.94,3.3L68.94,40,64,36.7,59.06,40l1.88-5.35L56,31.35ZM49.2,57.79l.87.86a28.86913,28.86913,0,0,1,5.86-2.43V55a3.99887,3.99887,0,0,1,4-4h8.14a3.99887,3.99887,0,0,1,4,4v1.22a28.86913,28.86913,0,0,1,5.86,2.43l.87-.86a4.00769,4.00769,0,0,1,5.66,0l5.75,5.75a4.00765,4.00765,0,0,1,0,5.66l-.86.87A28.86443,28.86443,0,0,1,91.78,75.93H93a3.99887,3.99887,0,0,1,4,4v8.14a3.99891,3.99891,0,0,1-4,4H91.78A28.86731,28.86731,0,0,1,89.35,97.93l.86.87a4.00757,4.00757,0,0,1,0,5.66l-5.75,5.75a4.00754,4.00754,0,0,1-5.66,0l-.87-.86a28.8622,28.8622,0,0,1-5.86,2.43V113a3.99891,3.99891,0,0,1-4,4H59.93a3.99891,3.99891,0,0,1-4-4v-1.22a28.8622,28.8622,0,0,1-5.86-2.43l-.87.86a4.00754,4.00754,0,0,1-5.66,0l-5.75-5.75a4.00757,4.00757,0,0,1,0-5.66l.86-.87A28.86731,28.86731,0,0,1,36.22,92.07H35a3.99891,3.99891,0,0,1-4-4V79.93a3.99887,3.99887,0,0,1,4-4h1.22A28.86443,28.86443,0,0,1,38.65,70.07l-.86-.87a4.00765,4.00765,0,0,1,0-5.66l5.75-5.75a4.00769,4.00769,0,0,1,5.66,0ZM34.11,31.35,36,26l1.89,5.35H44l-4.94,3.3L40.94,40,36,36.7,31.06,40l1.88-5.35L28,31.35Z"></path><path d="M43.73,69.49a24.752,24.752,0,0,0-4.32,10.44H35v8.14h4.41a24.75264,24.75264,0,0,0,4.32,10.44l-3.11,3.12,5.75,5.75,3.12-3.11a24.75187,24.75187,0,0,0,10.44,4.32V113h8.14v-4.41a24.75187,24.75187,0,0,0,10.44-4.32l3.12,3.11,5.75-5.75-3.11-3.12a24.75264,24.75264,0,0,0,4.32-10.44H93V79.93H88.59a24.752,24.752,0,0,0-4.32-10.44l3.11-3.12-5.75-5.75-3.12,3.11a24.75264,24.75264,0,0,0-10.44-4.32V55H59.93v4.41a24.75264,24.75264,0,0,0-10.44,4.32l-3.12-3.11-5.75,5.75ZM64,63A21,21,0,1,1,43,84,20.99741,20.99741,0,0,1,64,63Z"></path><path d="M57.33447,92.167a1.99653,1.99653,0,0,0,1.39453.81934A1.81447,1.81447,0,0,0,58.9585,93a2.00124,2.00124,0,0,0,1.31494-.49316l16.0415-14a1.99991,1.99991,0,1,0-2.62988-3.01367L59.2998,88.04785,54.624,81.542a1.99983,1.99983,0,0,0-3.248,2.334Z"></path><path d="M89,16a2.0001,2.0001,0,0,0,2-2V2a2.0001,2.0001,0,0,0-2-2H39a2.0001,2.0001,0,0,0-2,2V14a2.0001,2.0001,0,0,0,2,2ZM41,4H87v8H41Z"></path></svg>