<svg height='100px' width='100px'  fill="#000000" xmlns:x="http://ns.adobe.com/Extensibility/1.0/" xmlns:i="http://ns.adobe.com/AdobeIllustrator/10.0/" xmlns:graph="http://ns.adobe.com/Graphs/1.0/" xmlns="http://www.w3.org/2000/svg" xmlns:xlink="http://www.w3.org/1999/xlink" version="1.1" baseProfile="basic" x="0px" y="0px" viewBox="0 0 81 81" xml:space="preserve"><g><g i:extraneous="self"><g><polygon points="63.1,64.2 52.4,64.2 52.4,64.2 45.8,64.2 45.8,64.2 35.2,64.2 35.2,64.2 28.6,64.2 28.6,64.2 18,64.2 18,64.2      11.3,64.2 11.3,64.2 2.9,64.2 2.9,67.4 77.4,67.4 77.4,64.2 69.8,64.2 69.8,64.2 63.1,64.2    "></polygon><path d="M18,58.5c0-2.9,2.4-5.3,5.3-5.3s5.3,2.4,5.3,5.3v4.3h6.6v-4.3c0-2.9,2.4-5.3,5.3-5.3c2.9,0,5.3,2.4,5.3,5.3v4.3h6.6v-4.3     c0-2.9,2.4-5.3,5.3-5.3c2.9,0,5.3,2.4,5.3,5.3v4.3h6.7V49H11.3v13.8H18V58.5z"></path><path d="M35.2,44.2c0-2.9,2.4-5.3,5.3-5.3c2.9,0,5.3,2.4,5.3,5.3v3.4h8.7V35.8h-4.9v0H31.5v0h-4.7v11.8h8.4V44.2z"></path><path d="M49.6,34c0-4.2-2.9-7.8-6.8-8.8v-1.8c0-1.1-0.8-2-1.8-2.2v-4.4h2.7v-5H41v-1.6h-0.5h-0.5v11c-0.9,0.3-1.6,1.1-1.6,2.1     v1.8c-3.9,1-6.8,4.5-6.8,8.8v0.5h18.1V34z M40.7,32.7c-1.1,0-2-0.9-2-2c0-1.1,0.9-2,2-2c1.1,0,2,0.9,2,2     C42.7,31.8,41.8,32.7,40.7,32.7z"></path><rect x="46.9" y="11.8" width="3.2" height="5"></rect><rect x="20.7" y="57.9" transform="matrix(0.7071 -0.7071 0.7071 0.7071 -34.4186 33.1855)" width="4.3" height="0.5"></rect><rect x="23.2" y="57.8" transform="matrix(-0.7071 -0.7071 0.7071 -0.7071 -2.2995 118.8692)" width="0.5" height="4.3"></rect><rect x="38.3" y="57.9" transform="matrix(0.7071 -0.7071 0.7071 0.7071 -29.2568 45.6365)" width="4.3" height="0.5"></rect><rect x="40.8" y="57.8" transform="matrix(-0.707 -0.7072 0.7072 -0.707 27.7654 131.3247)" width="0.5" height="4.3"></rect><rect x="38.3" y="42.1" transform="matrix(0.7071 -0.7071 0.7071 0.7071 -18.1167 41.0224)" width="4.3" height="0.5"></rect><rect x="40.8" y="42" transform="matrix(-0.707 -0.7072 0.7072 -0.707 38.9076 104.4303)" width="0.5" height="4.3"></rect><rect x="55.1" y="57.9" transform="matrix(0.7071 -0.7071 0.7071 0.7071 -24.3472 57.4983)" width="4.3" height="0.5"></rect><rect x="57.6" y="57.8" transform="matrix(-0.7071 -0.7071 0.7071 -0.7071 56.3936 143.1807)" width="0.5" height="4.3"></rect></g></g></g></svg>