<svg height='100px' width='100px'  fill="#000000" xmlns="http://www.w3.org/2000/svg" data-name="Layer 1" viewBox="0 0 100 100" x="0px" y="0px"><defs><style>.cls-1{fill:#000000;}</style></defs><title>Day1</title><g data-name="Shape 109"><path class="cls-1" d="M11.93,89A246.66,246.66,0,0,1,40.61,51.45c1-1.07.23-2.78-.56-4C32.42,35.82,23.25,24.22,21.95,10.37c8.09,10.35,18.38,18.72,28.58,27,1,0.84,2.54,1.69,3.56.84A338.83,338.83,0,0,1,96.59,8.05a309.61,309.61,0,0,1-32.37,39.7c-0.9.93-.07,2.44,0.75,3.45A134.87,134.87,0,0,1,88.42,94l-37-32.12c-0.45-.39-1.13-0.79-1.58-0.4Q39.1,70.7,27.8,79.27C22.83,83,17.72,86.74,11.93,89Z"></path></g></svg>