<svg height='100px' width='100px'  fill="#000000" xmlns="http://www.w3.org/2000/svg" xmlns:xlink="http://www.w3.org/1999/xlink" version="1.1" x="0px" y="0px" viewBox="0 0 67 67" enable-background="new 0 0 67 67" xml:space="preserve"><g><path d="M58.7586975,34.4813004c-32.5454979,0.0103989,4.6175003,0.0013008-50.517395,0   c-0.5972929,0-1.0665998,0.4693985-1.0665998,1.0667v5.077301c0,0.5867004,0.4693069,1.0667,1.0665998,1.0667h50.517395   c0.5866013,0,1.0666008-0.4799995,1.0666008-1.0667v-5.077301C59.8252983,34.9506989,59.3452988,34.4813004,58.7586975,34.4813004z   "></path><path d="M10.4280071,64.4332962c0,0.5867004,0.4800005,1.0667038,1.0666933,1.0667038h4.0853071   c0.5866928,0,1.0666924-0.4800034,1.0666924-1.0667038V43.8252983h-6.2186928V64.4332962z"></path><path d="M50.342598,64.4332962c0,0.5867004,0.4801025,1.0667038,1.0667,1.0667038h4.0853996   c0.5866013,0,1.0666008-0.4800034,1.0666008-1.0667038V43.8252983H50.342598V64.4332962z"></path><circle cx="33.4945984" cy="11.6578503" r="5.32655"></circle><path d="M25.1053009,32.3479996c0.0639992,0,0.1599998,0,0.2773991,0.0107002h5.5785999l0.0640011-0.0107002h1.9092999   c-0.094902-1.0210991-0.9235001-1.7707005-1.9305935-1.7707005L27.8892994,30.5667   c-0.5865993,0-1.0665989-0.4799995-1.0665989-1.0667s0.4799995-1.0667,1.0665989-1.0667c0,0,0,0,0.0107079,0l3.1040001,0.0107002   c2.1666927,0,3.994894,1.7141991,4.0640011,3.9039993h5.5999985v-6.0159988c0-0.2880001,0.1173935-0.5653,0.3305931-0.7680016   l7.9894066-7.7332993c0.7572937-0.8854008,1.2053947-2.1014004,1.2053947-3.3599997V3.5053   c0-1.1093001-0.8961029-2.0053-2.005394-2.0053c-1.1409988,0-1.9840012,0.9295001-1.9840012,2.0053l-0.0106049,10.7413006   c0,0.4481001,0,0.9601002-4.0213928,5.2160006c-0.5866089,0.6399994-1.4400024,1.0026989-2.3360023,1.0026989   l-10.8587055-0.1280003c-1.8132935,0-3.4132938,1.1200008-4.010601,2.7733002l-2.6133995,7.1147003   c-0.2560005,0.7040005-0.2560005,1.4507008,0,2.1226997H25.1053009z"></path><path d="M27.1532993,51.9105988c0,1.5681,1.2800007,2.8481026,2.8374004,2.8481026   c1.5680008,0,2.8479996-1.2800026,2.8479996-2.8481026v-8.0853004h-5.6854V51.9105988z"></path><path d="M34.9720078,51.9105988c0,1.5681,1.2692909,2.8481026,2.8372917,2.8481026s2.8373985-1.2800026,2.8373985-2.8481026   v-8.0853004h-5.6746902V51.9105988z"></path><path d="M20.0280075,55.2919998c0,0.5867004,0.4799995,1.0667,1.0666924,1.0667c0.5866013,0,1.0666008-0.4799995,1.0666008-1.0667   V43.8252983h-2.1332932V55.2919998z"></path><path d="M44.8280067,55.2919998c0,0.5867004,0.4799995,1.0667,1.0666924,1.0667c0.5866013,0,1.0666008-0.4799995,1.0666008-1.0667   V43.8252983h-2.1332932V55.2919998z"></path></g></svg>