<svg height='100px' width='100px'  fill="#000000" xmlns="http://www.w3.org/2000/svg" data-name="Layer 1" viewBox="0 0 64 64" x="0px" y="0px"><title>politic election vote box</title><path d="M54,19a5,5,0,0,0-5-5H39V3a1,1,0,0,0-1-1H26a1,1,0,0,0-1,1V14H15a5,5,0,0,0-1,9.9V57a5,5,0,0,0,5,5H45a5,5,0,0,0,5-5V23.9A5,5,0,0,0,54,19ZM27,4H37V14H27ZM48,57a3,3,0,0,1-3,3H19a3,3,0,0,1-3-3V24H48Zm1-35H15a3,3,0,0,1,0-6H49a3,3,0,0,1,0,6Z"></path><path d="M32,54A12,12,0,1,0,20,42,12,12,0,0,0,32,54Zm0-22A10,10,0,1,1,22,42,10,10,0,0,1,32,32Z"></path><path d="M28.43,43.72l-.51,3.12a1,1,0,0,0,1.47,1L32,46.43l2.61,1.45a1,1,0,0,0,.48.12,1,1,0,0,0,.58-.18,1,1,0,0,0,.41-1l-.51-3.12,2.15-2.2a1,1,0,0,0,.23-1,1,1,0,0,0-.8-.67l-2.93-.45-1.31-2.8a1,1,0,0,0-1.82,0l-1.31,2.8-2.93.45a1,1,0,0,0-.8.67,1,1,0,0,0,.23,1Zm2.18-2.44a1,1,0,0,0,.75-.56L32,39.35l.64,1.37a1,1,0,0,0,.75.56l1.53.23-1.14,1.17a1,1,0,0,0-.27.86l.26,1.59-1.29-.71a1,1,0,0,0-1,0l-1.29.71.26-1.59a1,1,0,0,0-.27-.86l-1.14-1.17Z"></path><path d="M34,6H30a1,1,0,0,0,0,2h4a1,1,0,0,0,0-2Z"></path><path d="M34,10H30a1,1,0,0,0,0,2h4a1,1,0,0,0,0-2Z"></path></svg>