<svg height='100px' width='100px'  fill="#000000" xmlns="http://www.w3.org/2000/svg" xmlns:xlink="http://www.w3.org/1999/xlink" version="1.1" x="0px" y="0px" viewBox="0 0 100 100" enable-background="new 0 0 100 100" xml:space="preserve"><polygon points="48.76,16.638 46.27,12.328 46.791,17.942 48.774,16.796 "></polygon><path d="M71.98,11.925l-7.448,37.827c-1.388,0.27-2.741,0.565-4.058,0.881l0.916-17.097c-0.227,0.033-0.451,0.053-0.678,0.053  c-0.496,0-0.968-0.087-1.396-0.248l-0.955,17.823c-2.23,0.586-4.323,1.215-6.225,1.846L49.525,24.9l-1.983,1.146l2.571,27.662  c-1.038,0.369-2.001,0.731-2.88,1.082L39.78,30.532l-1.809,1.046c-0.014,0.008-0.028,0.013-0.041,0.021l7.372,23.987  c-1.892,0.818-3.178,1.49-3.667,1.855c-1.265,0.949-2.766,9.014-3.959,18.059L27.295,85.881l7.407,7.408H24.116v3.537h44.475v-3.537  H54.254L65.49,82.051l-6.152-6.152l2.229-2.227c1.437-1.438,3.203-5.396,1.138-8.283l9.188-7.012c0,0,0.096-2.658,0.002-8.672  c-0.011-0.612-0.578-1.008-1.5-0.894c-1.235,0.153-2.457,0.336-3.662,0.54l7.641-38.81L71.98,11.925z M61.371,82.051L50.134,93.289  H38.823l-7.408-7.408l16.893-16.893l3.785,3.785l-5.496,5.5c-1.525,1.524-1.6,3.922-0.168,5.354c1.434,1.432,3.83,1.357,5.355-0.17  l5.495-5.498L61.371,82.051z"></path><path d="M75.613,5.557c-0.396-0.685-1.146-1.078-2.061-1.078c-0.634,0-1.291,0.187-1.9,0.539l-15.641,9.038l-5.667-9.805  c-0.396-0.685-1.146-1.077-2.061-1.077c-0.635,0-1.292,0.187-1.902,0.539c-0.656,0.379-1.186,0.918-1.492,1.518  c-0.381,0.749-0.389,1.545-0.02,2.184l5.666,9.805l-15.642,9.038c-1.534,0.889-2.198,2.514-1.513,3.701  c0.396,0.686,1.146,1.077,2.061,1.077c0.635,0,1.292-0.186,1.902-0.538l15.641-9.039l5.666,9.805  c0.396,0.685,1.146,1.077,2.062,1.077c0.634,0,1.291-0.187,1.901-0.538c1.533-0.888,2.197-2.513,1.512-3.701l-5.666-9.806  L74.1,9.258C75.637,8.369,76.301,6.744,75.613,5.557z"></path></svg>