<svg height='100px' width='100px'  fill="#000000" xmlns="http://www.w3.org/2000/svg" xmlns:xlink="http://www.w3.org/1999/xlink" version="1.1" x="0px" y="0px" viewBox="0 0 100 100" enable-background="new 0 0 100 100" xml:space="preserve"><path d="M47.092,47.201c0-0.764,0.501-1.386,1.118-1.386h5.314c0.611,0,1.112,0.623,1.112,1.386v21.317h37.747V49.815H66.39v-1.103  h25.994v-3.525h-2.423v-0.702h-3.447v0.702h-3.217v-0.702H79.85v0.702h-3.222v-0.702H73.18v0.702h-3.222V44.5h-3.447v0.688h-0.286  v-2.284H35.378v2.284h-0.567v-0.702h-3.447v0.702h-3.217v-0.702h-3.447v0.702h-3.216v-0.702h-3.448v0.702h-3.222V44.5h-3.441v0.688  H8.954v3.525h26.127v1.103H8.954v18.703h38.138V47.201z M88.605,52.189h0.849v1.074h-0.849V52.189z M88.605,53.434h0.849v0.738  h-0.849V53.434z M88.605,54.342h0.849v0.771h-0.849V54.342z M88.605,55.284h0.849v1.046h-0.849V55.284z M88.605,60.643h0.849v1.278  h-0.849V60.643z M88.605,62.13h0.849v0.889h-0.849V62.13z M88.605,63.231h0.849v0.936h-0.849V63.231z M87.582,52.189h0.87v1.074  h-0.87V52.189z M87.582,53.434h0.87v0.738h-0.87V53.434z M87.582,54.342h0.87v0.771h-0.87V54.342z M87.582,55.284h0.87v1.046h-0.87  V55.284z M87.582,60.643h0.87v1.278h-0.87V60.643z M87.582,62.13h0.87v0.889h-0.87V62.13z M87.582,63.231h0.87v0.936h-0.87V63.231z   M86.519,52.189h0.909v1.074h-0.893v0.17h0.893v0.741h-0.893v0.174h0.893v0.768h-0.893v0.173h0.893v1.046h-0.909V52.189z   M86.519,60.643h0.909v1.278h-0.893v0.209h0.893v0.889h-0.893v0.209h0.893v0.936h-0.893v0.209h0.893v1.495h0.154v-1.492h0.87v1.498  h0.153v-1.498h0.854v1.531h-2.941V60.643z M82.251,52.189h0.886v1.074h-0.886V52.189z M82.251,53.434h0.886v0.738h-0.886V53.434z   M82.251,54.342h0.886v0.771h-0.886V54.342z M82.251,55.284h0.886v1.046h-0.886V55.284z M82.251,60.643h0.886v1.278h-0.886V60.643z   M82.251,62.13h0.886v0.889h-0.886V62.13z M82.251,63.231h0.886v0.936h-0.886V63.231z M81.227,52.189h0.87v1.074h-0.87V52.189z   M81.227,53.434h0.87v0.738h-0.87V53.434z M81.227,54.342h0.87v0.771h-0.87V54.342z M81.227,55.284h0.87v1.046h-0.87V55.284z   M81.227,60.643h0.87v1.278h-0.87V60.643z M81.227,62.13h0.87v0.889h-0.87V62.13z M81.227,63.231h0.87v0.936h-0.87V63.231z   M80.202,52.189h0.87v1.074h-0.87V52.189z M80.202,53.434h0.87v0.738h-0.87V53.434z M80.202,54.342h0.87v0.771h-0.87V54.342z   M80.202,55.284h0.87v1.046h-0.87V55.284z M80.202,60.643h0.87v1.278h-0.87V60.643z M80.202,62.13h0.87v0.889h-0.87V62.13z   M80.202,63.231h0.87v0.936h-0.87V63.231z M80.202,64.377h0.87v1.498h0.159v-1.498h0.87v1.498h0.154v-1.498h0.887v1.531h-2.94  V64.377z M75.763,52.189h0.887v1.074h-0.887V52.189z M75.763,53.434h0.887v0.738h-0.887V53.434z M75.763,54.342h0.887v0.771h-0.887  V54.342z M75.763,55.284h0.887v1.046h-0.887V55.284z M75.763,60.643h0.887v1.278h-0.887V60.643z M75.763,62.13h0.887v0.889h-0.887  V62.13z M75.763,63.231h0.887v0.936h-0.887V63.231z M74.733,52.189h0.875v1.074h-0.875V52.189z M74.733,53.434h0.875v0.738h-0.875  V53.434z M74.733,54.342h0.875v0.771h-0.875V54.342z M74.733,55.284h0.875v1.046h-0.875V55.284z M74.733,60.643h0.875v1.278h-0.875  V60.643z M74.733,62.13h0.875v0.889h-0.875V62.13z M74.733,63.231h0.875v0.936h-0.875V63.231z M73.709,52.189h0.875v1.074h-0.875  V52.189z M73.709,53.434h0.875v0.738h-0.875V53.434z M73.709,54.342h0.875v0.771h-0.875V54.342z M73.709,55.284h0.875v1.046h-0.875  V55.284z M73.709,60.643h0.875v1.278h-0.875V60.643z M73.709,62.13h0.875v0.889h-0.875V62.13z M73.709,63.231h0.875v0.936h-0.875  V63.231z M73.709,64.377h0.875v1.498h0.154v-1.498h0.876v1.498h0.154v-1.498h0.881v1.531h-2.936v-1.531H73.709z M69.407,55.284  h0.903v-0.171h-0.903v-0.771h0.903v-0.17h-0.903v-0.738h0.903V53.26h-0.903v-1.074h0.915v4.141h-0.915V55.284z M68.383,52.189h0.876  v1.074h-0.876V52.189z M68.383,53.434h0.876v0.738h-0.876V53.434z M68.383,54.342h0.876v0.771h-0.876V54.342z M68.383,55.284h0.876  v1.046h-0.876V55.284z M68.383,60.643h0.876v1.278h-0.876V60.643z M68.383,62.13h0.876v0.889h-0.876V62.13z M68.383,63.231h0.876  v0.936h-0.876V63.231z M67.387,52.189h0.842v1.074h-0.842V52.189z M67.387,53.434h0.842v0.738h-0.842V53.434z M67.387,54.342h0.842  v0.771h-0.842V54.342z M67.387,55.284h0.842v1.046h-0.842V55.284z M67.387,60.643h0.842v1.278h-0.842V60.643z M67.387,62.13h0.842  v0.889h-0.842V62.13z M67.387,63.231h0.842v0.936h-0.842V63.231z M67.387,64.377h0.842v1.498h0.154v-1.498h0.876v1.498h0.154v-1.498  h0.903v-0.209h-0.903v-0.936h0.903v-0.209h-0.903V62.13h0.903v-0.207h-0.903v-1.278h0.914v5.265h-2.936v-1.534H67.387z   M56.867,46.921c0-0.614,0.496-1.11,1.112-1.11h5.32c0.611,0,1.107,0.496,1.107,1.11v18.348c0,0.611-0.496,1.107-1.107,1.107h-5.32  c-0.616,0-1.112-0.496-1.112-1.107V46.921z M32.035,63.022V62.13h0.876v0.892H32.035z M32.911,63.231v0.936h-0.876v-0.936H32.911z   M32.035,61.92v-1.278h0.876v1.278H32.035z M31.975,52.189h0.876v1.074h-0.876V52.189z M31.975,53.434h0.876v0.738h-0.876V53.434z   M31.975,54.342h0.876v0.771h-0.876V54.342z M31.975,55.284h0.876v1.046h-0.876V55.284z M30.896,52.189h0.931v1.074h-0.893v0.17  h0.893v0.741h-0.893v0.174h0.893v0.768h-0.893v0.173h0.893v1.046h-0.931V52.189z M25.68,63.022V62.13h0.876v0.892H25.68z   M26.556,63.231v0.936H25.68v-0.936H26.556z M25.68,61.92v-1.278h0.876v1.278H25.68z M25.625,52.189H26.5v1.074h-0.875V52.189z   M25.625,53.434H26.5v0.738h-0.875V53.434z M25.625,54.342H26.5v0.771h-0.875V54.342z M25.625,55.284H26.5v1.046h-0.875V55.284z   M24.572,52.189h0.898v1.074h-0.893v0.17h0.893v0.741h-0.893v0.174h0.893v0.768h-0.893v0.173h0.893v1.046h-0.898V52.189z   M19.197,63.022V62.13h0.87v0.892H19.197z M20.067,63.231v0.936h-0.87v-0.936H20.067z M19.197,61.92v-1.278h0.87v1.278H19.197z   M19.137,52.189h0.876v1.074h-0.876V52.189z M19.137,53.434h0.876v0.738h-0.876V53.434z M19.137,54.342h0.876v0.771h-0.876V54.342z   M19.137,55.284h0.876v1.046h-0.876V55.284z M18.08,52.189h0.902v1.074h-0.892v0.17h0.892v0.741h-0.892v0.174h0.892v0.768h-0.892  v0.173h0.892v1.046H18.08V52.189z M12.837,63.022V62.13h0.876v0.892H12.837z M13.713,63.231v0.936h-0.876v-0.936H13.713z   M12.837,61.92v-1.278h0.876v1.278H12.837z M12.781,52.189h0.871v1.074h-0.871V52.189z M12.781,53.434h0.871v0.738h-0.871V53.434z   M12.781,54.342h0.871v0.771h-0.871V54.342z M12.781,55.284h0.871v1.046h-0.871V55.284z M11.758,52.189h0.87v1.074h-0.87V52.189z   M11.758,53.434h0.87v0.738h-0.87V53.434z M11.758,54.342h0.87v0.771h-0.87V54.342z M11.758,55.284h0.87v1.046h-0.87V55.284z   M14.692,65.908h-2.935v-5.265h0.931v1.278h-0.893v0.209h0.893v0.889h-0.893v0.209h0.893v0.936h-0.893v0.209h0.893v1.495h0.148  v-1.492h0.876v1.498h0.148v-1.498h0.831V65.908z M14.692,64.167h-0.826v-0.936h0.832v0.936H14.692z M14.692,63.022h-0.826V62.13  h0.832v0.892H14.692z M14.692,61.92h-0.826v-1.278h0.832v1.278H14.692z M14.692,56.331h-0.887v-1.046h0.887V56.331z M14.692,55.113  h-0.887v-0.771h0.887V55.113z M14.692,54.172h-0.887v-0.738h0.887V54.172z M14.692,53.263h-0.887v-1.074h0.887V53.263z   M21.015,65.908H18.08v-5.265h0.963v1.278h-0.892v0.209h0.892v0.889h-0.892v0.209h0.892v0.936h-0.892v0.209h0.892v1.495h0.154  v-1.492h0.87v1.498h0.154v-1.498h0.793V65.908z M21.015,64.167h-0.793v-0.936h0.793V64.167z M21.015,63.022h-0.793V62.13h0.793  V63.022z M21.015,61.92h-0.793v-1.278h0.793V61.92z M21.015,56.331h-0.854v-1.046h0.854V56.331z M21.015,55.113h-0.854v-0.771h0.854  V55.113z M21.015,54.172h-0.854v-0.738h0.854V54.172z M21.015,53.263h-0.854v-1.074h0.854V53.263z M27.508,65.908h-2.936v-5.265  h0.959v1.278h-0.893v0.209h0.893v0.889h-0.893v0.209h0.893v0.936h-0.893v0.209h0.893v1.495h0.148v-1.492h0.876v1.498h0.154v-1.498  h0.798V65.908L27.508,65.908z M27.508,64.167H26.71v-0.936h0.798V64.167z M27.508,63.022H26.71V62.13h0.798V63.022z M27.508,61.92  H26.71v-1.278h0.798V61.92z M27.508,56.331h-0.858v-1.046h0.858V56.331L27.508,56.331z M27.508,55.113h-0.858v-0.771h0.858V55.113  L27.508,55.113z M27.508,54.172h-0.858v-0.738h0.858V54.172L27.508,54.172z M27.508,53.263h-0.858v-1.074h0.858V53.263  L27.508,53.263z M33.825,65.908h-2.93v-5.265h0.996v1.278h-0.897v0.209h0.893v0.889h-0.893v0.209h0.893v0.936h-0.893v0.209h0.893  v1.495h0.148v-1.492h0.876v1.498h0.154v-1.498h0.765v1.531H33.825z M33.825,64.167h-0.76v-0.936h0.76V64.167z M33.825,63.022h-0.76  V62.13h0.76V63.022z M33.825,61.92h-0.76v-1.278h0.76V61.92z M33.825,56.331h-0.821v-1.046h0.821V56.331z M33.825,55.113h-0.821  v-0.771h0.821V55.113z M33.825,54.172h-0.821v-0.738h0.821V54.172z M33.825,53.263h-0.821v-1.074h0.821V53.263z M44.801,65.269  c0,0.611-0.495,1.109-1.112,1.109h-5.314c-0.611,0-1.112-0.498-1.112-1.109V46.921c0-0.614,0.501-1.11,1.112-1.11h5.314  c0.617,0,1.112,0.496,1.112,1.11V65.269z M36.882,41.223h28.06v-0.047l3.304,0.011l-2.891-1.289v-2.22h-3.707v0.562l-10.865-4.845  v-2.75c0.353,0.455,1.14,0.065,1.938,0.026c0.881-0.045,1.547,0.753,1.547,0.753l0.094-2.084c0,0-0.534-0.84-1.641-0.53  c-0.942,0.262-1.713-0.425-1.938-0.646v-0.324h-0.259v5.516l-10.789,4.812v-0.484h-3.712v2.144l-3.057,1.362l3.921-0.014v0.047  H36.882z M50.605,35.747l8.696,3.836H41.904L50.605,35.747z M95,69.107v3.051H5v-3.051H95z"></path></svg>