<svg height='100px' width='100px'  fill="#000000" xmlns="http://www.w3.org/2000/svg" xmlns:xlink="http://www.w3.org/1999/xlink" version="1.1" x="0px" y="0px" viewBox="0 0 100 100" style="enable-background:new 0 0 100 100;" xml:space="preserve"><path d="M80.5458984,38.7060547c0.5527344,0,1-0.4477539,1-1v-7.5395508c0-0.5522461-0.4472656-1-1-1h-9.9169922V11  c0-0.5522461-0.4472656-1-1-1h-39c-0.5527344,0-1,0.4477539-1,1v18.1665039h-9.9160156c-0.5527344,0-1,0.4477539-1,1v7.5395508  c0,0.5522461,0.4472656,1,1,1h1.2011719v41.7548828h-1.2011719c-0.5527344,0-1,0.4477539-1,1V89c0,0.5522461,0.4472656,1,1,1  h60.8330078c0.5527344,0,1-0.4477539,1-1v-7.5390625c0-0.5522461-0.4472656-1-1-1h-1.4599609V38.7060547H80.5458984z M31.6289062,12  h37v17.1665039h-37V12z M20.7128906,31.1665039h58.8330078v5.5395508H20.7128906V31.1665039z M79.5458984,88H20.7128906v-5.5390625  h58.8330078V88z M77.0859375,80.4609375h-54.171875V38.7060547h54.171875V80.4609375z"></path><path d="M50,76.6914062c9.4716797,0,17.1777344-7.7060547,17.1777344-17.1782227S59.4716797,42.3349609,50,42.3349609  s-17.1777344,7.7060547-17.1777344,17.1782227S40.5283203,76.6914062,50,76.6914062z M50,44.3349609  c8.3691406,0,15.1777344,6.809082,15.1777344,15.1782227S58.3691406,74.6914062,50,74.6914062  s-15.1777344-6.809082-15.1777344-15.1782227S41.6308594,44.3349609,50,44.3349609z"></path><path d="M38.5644531,56.9575195l4.9921875,4.8666992l-1.1777344,6.871582c-0.0644531,0.375,0.0898438,0.7543945,0.3974609,0.9780273  c0.3095703,0.2241211,0.7177734,0.2529297,1.0537109,0.0761719L50,66.5058594L56.1699219,69.75  c0.1464844,0.0766602,0.3066406,0.1147461,0.4658203,0.1147461c0.2070312,0,0.4130859-0.0644531,0.5878906-0.190918  c0.3076172-0.2236328,0.4619141-0.6030273,0.3974609-0.9780273l-1.1777344-6.871582l4.9921875-4.8666992  c0.2724609-0.265625,0.3701172-0.6630859,0.2529297-1.0249023c-0.1181641-0.3618164-0.4306641-0.6259766-0.8076172-0.6806641  l-6.8984375-1.0024414l-3.0859375-6.2509766c-0.3359375-0.6826172-1.4570312-0.6826172-1.7929688,0l-3.0859375,6.2509766  l-6.8984375,1.0024414c-0.3769531,0.0546875-0.6894531,0.3188477-0.8076172,0.6806641  C38.1943359,56.2944336,38.2919922,56.6918945,38.5644531,56.9575195z M46.8251953,56.1533203  c0.3261719-0.0473633,0.6074219-0.2519531,0.7529297-0.5473633L50,50.7001953l2.421875,4.9057617  c0.1455078,0.2954102,0.4267578,0.5,0.7529297,0.5473633l5.4140625,0.7866211l-3.9179688,3.8193359  c-0.2353516,0.2294922-0.3427734,0.5605469-0.2871094,0.8847656l0.9238281,5.3925781l-4.8417969-2.5458984  C50.3193359,64.4140625,50.1601562,64.3759766,50,64.3759766s-0.3193359,0.0380859-0.4658203,0.1147461l-4.8417969,2.5458984  l0.9238281-5.3925781c0.0556641-0.3242188-0.0517578-0.6552734-0.2871094-0.8847656l-3.9179688-3.8193359L46.8251953,56.1533203z"></path><path d="M41.8789062,23.0834961h-3.6660156c-0.5527344,0-1,0.4477539-1,1s0.4472656,1,1,1h3.6660156c0.5527344,0,1-0.4477539,1-1  S42.4316406,23.0834961,41.8789062,23.0834961z"></path><path d="M62.0458984,23.0834961H48.0087891c-0.5527344,0-1,0.4477539-1,1s0.4472656,1,1,1h14.0371094c0.5527344,0,1-0.4477539,1-1  S62.5986328,23.0834961,62.0458984,23.0834961z"></path><path d="M41.8789062,16.8959961h-3.6660156c-0.5527344,0-1,0.4477539-1,1s0.4472656,1,1,1h3.6660156c0.5527344,0,1-0.4477539,1-1  S42.4316406,16.8959961,41.8789062,16.8959961z"></path><path d="M48.0087891,18.8959961h14.0371094c0.5527344,0,1-0.4477539,1-1s-0.4472656-1-1-1H48.0087891c-0.5527344,0-1,0.4477539-1,1  S47.4560547,18.8959961,48.0087891,18.8959961z"></path></svg>