<svg height='100px' width='100px'  fill="#000000" xmlns="http://www.w3.org/2000/svg" xmlns:xlink="http://www.w3.org/1999/xlink" version="1.1" x="0px" y="0px" viewBox="0 0 64 64" style="enable-background:new 0 0 64 64;" xml:space="preserve"><title>Difference icon</title><desc>Difference icon for website, application, printing, document, poster design, etc.</desc><metadata><?xpacket begin="&#65279;" id="W5M0MpCehiHzreSzNTczkc9d"?><x:xmpmeta xmlns:x="adobe:ns:meta/" x:xmptk="Adobe XMP Core 5.6-c145 79.163499, 2018/08/13-16:40:22        "></x:xmpmeta><?xpacket end="w"?></metadata><path d="M30,21.9v5.2c-1.8,0.5-3,2-3,3.9v1.6l-4.1,4.1C22.3,37.3,22,38,22,38.8v6.6c0,0.6,0.2,1.2,0.5,1.7l3.5,5.2V54h-2v8h2v-2h7  v-2h-7v-2h13v6h2v-8h-2v-1.6l1.1-1.1c0.6-0.6,0.9-1.3,0.9-2.1v-2.8l1.4-1.4c1.1-1.1,1.2-2.8,0.2-4L35,31.6V31c0-1.8-1.2-3.4-3-3.9  v-5.2c5.5-0.6,9.5-5.5,8.9-10.9S35.5,1.5,30,2S20.5,7.5,21.1,13C21.5,17.7,25.3,21.5,30,21.9z M41,43.6l-1,1l-1.5-1.5l2-1.5l0.5,0.6  C41.4,42.6,41.4,43.2,41,43.6z M35.5,40.1l2.4-1.8l1.4,1.7l-2.2,1.6L35.5,40.1z M36.6,36.8L35,38v-3.2L36.6,36.8z M33,31v9.4l6,6  v2.8c0,0.3-0.1,0.5-0.3,0.7L37,51.6V54h-9v-2.3l-3.8-5.7c-0.1-0.2-0.2-0.4-0.2-0.6v-6.6c0-0.3,0.1-0.5,0.3-0.7l2.7-2.7v3.8  c0,0.3-0.1,0.5-0.3,0.7l-1.4,1.4l1.4,1.4l1.4-1.4c0.6-0.6,0.9-1.3,0.9-2.1V31c0-1.1,0.9-2,2-2C32.1,29,33,29.9,33,31z M31,4  c4.4,0,8,3.6,8,8s-3.6,8-8,8s-8-3.6-8-8C23,7.6,26.6,4,31,4z"></path><polygon points="55.3,20.7 56.7,19.3 54.4,17 56.7,14.7 55.3,13.3 53,15.6 50.7,13.3 49.3,14.7 51.6,17 49.3,19.3 50.7,20.7   53,18.4 "></polygon><rect x="35" y="58" width="2" height="2"></rect><path d="M56,34.6V33c0-1.3-0.8-2.4-2-2.8v-5.3c4.4-0.6,7.5-4.6,6.9-8.9c-0.6-4.4-4.6-7.5-8.9-6.9c-4.4,0.6-7.5,4.6-6.9,8.9  c0.5,3.6,3.3,6.5,6.9,6.9v5.3c-1.2,0.4-2,1.5-2,2.8v1.5l-3.9,3.3C45.4,38.3,45,39.1,45,40v4.6c0,0.7,0.3,1.4,0.7,2l3.3,3.8V52h-2v10  h2v-4h8v-2h-8v-2h10v8h2V52h-2v-1.5l1.7-1.1c0.8-0.6,1.3-1.5,1.3-2.5v-1.8l0.6-1.7c0.4-1.1,0.1-2.3-0.7-3.1L56,34.6z M60.7,42.9  l-0.2,0.6l-1.9-1.3l0.7-1.5l1.1,1.1C60.7,42.1,60.8,42.5,60.7,42.9z M57.8,39.2L56.9,41L56,40.5v-3.1L57.8,39.2z M47,17  c0-3.3,2.7-6,6-6s6,2.7,6,6s-2.7,6-6,6C49.7,23,47,20.3,47,17z M60,46.9c0,0.3-0.2,0.6-0.4,0.8L57,49.5V52h-6v-2.4l-3.8-4.3  c-0.2-0.2-0.2-0.4-0.2-0.7V40c0-0.3,0.1-0.6,0.4-0.8l2.6-2.2v3.1c0,0.3-0.1,0.5-0.3,0.7l-1.4,1.4l1.4,1.4l1.4-1.4  c0.6-0.6,0.9-1.3,0.9-2.1V33c0-0.6,0.4-1,1-1s1,0.4,1,1v8.5l6,4V46.9z"></path><polygon points="35.7,8.7 34.3,7.3 28,13.6 26.7,12.3 25.3,13.7 28,16.4 "></polygon><polygon points="12.3,20.7 13.7,19.3 11.4,17 13.7,14.7 12.3,13.3 10,15.6 7.7,13.3 6.3,14.7 8.6,17 6.3,19.3 7.7,20.7 10,18.4 "></polygon><path d="M6,50.4V52H4v10h2v-4h8v-2H6v-2h10v8h2V52h-2v-1.5l1.7-1.1c0.8-0.6,1.3-1.5,1.3-2.5v-1.8l0.6-1.7c0.4-1.1,0.1-2.3-0.7-3.1  L13,34.6V33c0-1.3-0.8-2.4-2-2.8v-5.3c4.4-0.6,7.5-4.6,6.9-8.9S13.4,8.5,9,9.1C4.6,9.6,1.5,13.6,2.1,18c0.5,3.6,3.3,6.5,6.9,6.9v5.3  c-1.2,0.4-2,1.5-2,2.8v1.5l-3.9,3.3C2.4,38.3,2,39.1,2,40v4.6c0,0.7,0.3,1.4,0.7,2L6,50.4z M17.7,42.9l-0.2,0.6l-1.9-1.3l0.7-1.5  l1.1,1.1C17.7,42.1,17.8,42.5,17.7,42.9z M14.8,39.2L13.9,41L13,40.5v-3.1L14.8,39.2z M4,17c0-3.3,2.7-6,6-6s6,2.7,6,6s-2.7,6-6,6  C6.7,23,4,20.3,4,17z M4,40c0-0.3,0.1-0.6,0.4-0.8L7,37.1v3.1c0,0.3-0.1,0.5-0.3,0.7l-1.4,1.4l1.4,1.4l1.4-1.4C8.7,41.7,9,41,9,40.2  V33c0-0.6,0.4-1,1-1s1,0.4,1,1v8.5l6,4v1.4c0,0.3-0.2,0.6-0.4,0.8L14,49.5V52H8v-2.4l-3.8-4.3C4.1,45.1,4,44.9,4,44.6V40z"></path></svg>