<svg height='100px' width='100px'  fill="#000000" xmlns="http://www.w3.org/2000/svg" xmlns:xlink="http://www.w3.org/1999/xlink" version="1.1" x="0px" y="0px" viewBox="0 0 400 400" style="enable-background:new 0 0 400 400;" xml:space="preserve"><g><path d="M46.1,231c15.8-27.6,98.5-38.3,151.3-38.3c55.9,0,135.5,10.6,151.3,38.3l35.8-14.2c0-2.6,0-5,0-5   c-19.5-27.6-95.8-48.3-187-48.3c-91.2,0-167.5,20.6-187,48.3l0,5.8C14.5,219.2,46.1,231,46.1,231z"></path><path d="M348.3,242.7c-15.8-28.3-95.7-40-150.9-40c-51.4,0-134.6,11.7-150.4,40l-31.9-12.2v54.6l31.1,12.1   c15.8-27.6,77.5-48.3,151.3-48.3c73.8,0,135.5,20.6,151.3,48.3l31.1-12.1v-54.7L348.3,242.7z"></path></g><g><circle cx="175.4" cy="122" r="12.4"></circle><circle cx="220.9" cy="122" r="12.4"></circle><path d="M241.1,153.1l0-3c0-7.1-5.7-12.9-12.9-12.9h-14.5c-7.1,0-12.9,5.7-12.9,12.9v1.4C214.7,151.5,228.1,152.1,241.1,153.1z"></path><path d="M195.5,151.5l0-1.4c0-7.1-5.7-12.9-12.9-12.9h-14.5c-7.1,0-12.9,5.7-12.9,12.9v2.9C168.2,152,181.7,151.5,195.5,151.5z"></path><circle cx="127.7" cy="126.7" r="12.4"></circle><path d="M149.9,152.3L149.9,152.3c0-7-6-12.4-12.9-11.7l-16.8,1.7c-6,0.6-10.6,5.7-10.6,11.7v3c0,0.7,0.7,1.3,1.4,1.2   c11.9-2,24.6-3.5,37.8-4.6C149.4,153.4,149.9,152.9,149.9,152.3z"></path><circle cx="36.4" cy="146.9" r="12.4"></circle><path d="M58.6,170.7c-0.1-0.4-0.1-0.8-0.2-1.2c-1.6-6.9-9.1-10.8-16-8.8l-10.4,3c-8,2.3-13.5,9.7-13.5,18v9.4   C27.7,183.5,41.4,176.5,58.6,170.7z"></path><circle cx="81.4" cy="134.3" r="12.4"></circle><path d="M104.1,159.3c-0.5-2.6-1.8-6.1-3.5-7.9c-3-3.1-7.7-4.2-11.9-3.3l-12.5,2.7C69.1,152.4,64,158.7,64,166l0.1,2.9   C76,165.2,89.5,161.9,104.1,159.3z"></path><circle cx="268.8" cy="126.7" r="12.4"></circle><path d="M246.5,152.3L246.5,152.3c0-7,6-12.4,12.9-11.7l16.8,1.7c6,0.6,10.6,5.7,10.6,11.7v3c0,0.7-0.7,1.3-1.4,1.2   c-11.9-2-24.6-3.5-37.8-4.6C247,153.4,246.5,152.9,246.5,152.3z"></path><circle cx="360" cy="146.9" r="12.4"></circle><path d="M337.9,170.7c0.1-0.4,0.1-0.8,0.2-1.2c1.6-6.9,9.1-10.8,16-8.8l10.4,3c8,2.3,13.5,9.7,13.5,18v9.4   C368.7,183.5,355,176.5,337.9,170.7z"></path><circle cx="315" cy="134.3" r="12.4"></circle><path d="M292.3,159.3c0.5-2.6,1.8-6.1,3.5-7.9c3-3.1,7.7-4.2,11.9-3.3l12.5,2.7c7.1,1.6,12.2,7.8,12.2,15.1l-0.1,2.9   C320.4,165.2,306.9,161.9,292.3,159.3z"></path></g></svg>