<svg height='100px' width='100px'  fill="#000000" xmlns="http://www.w3.org/2000/svg" xmlns:xlink="http://www.w3.org/1999/xlink" version="1.1" x="0px" y="0px" viewBox="121 -320 1201 1201" style="enable-background:new 121 -320 1201 1201;" xml:space="preserve"><g><path d="M871.4,101.7c3.9,4.5,9.4,6.9,15.1,6.9c2.3,0,4.7-0.4,7-1.3c7.8-2.9,13-10.4,13-18.7V17.2h2.6   c53.8,0,97.5-43.7,97.5-97.5v-56c0-53.8-43.7-97.5-97.5-97.5H775.4c-17.8-23.1-45.8-38-77.2-38H532.8c-53.7,0-97.5,43.7-97.5,97.5   v56c0,53.8,43.7,97.5,97.5,97.5h2.6v71.4c0,8.4,5.2,15.8,13,18.7c2.3,0.9,4.6,1.3,7,1.3c5.7,0,11.2-2.4,15.1-6.9l73.2-84.5h22.8   c17.8,23.1,45.8,38,77.2,38h54.5L871.4,101.7z M634.6-40.8l-79.2,91.4v-91.4h-22.6c-42.8,0-77.5-34.7-77.5-77.5v-56   c0-42.8,34.7-77.5,77.5-77.5h165.5c18.9,0,36.2,6.8,49.6,18c6.8,5.6,12.5,12.4,17,20c6.9,11.6,10.8,25.1,10.8,39.5v56   c0,42.8-34.7,77.5-77.5,77.5C698.2-40.8,634.6-40.8,634.6-40.8z M694-20.8h4.3c53.8,0,97.5-43.7,97.5-97.5v-26.9L832-109   l-39.8,39.8c-3.9,3.9-3.9,10.2,0,14.1c2,1.9,4.5,2.9,7.1,2.9s5.1-1,7.1-2.9l39.8-39.8L889-52.1c2,1.9,4.5,2.9,7.1,2.9   s5.1-1,7.1-2.9c3.9-3.9,3.9-10.2,0-14.1l-43-42.8l39.1-39.1c3.9-3.9,3.9-10.2,0-14.1c-3.9-3.9-10.2-3.9-14.1,0l-39.1,39.1l-40-39.9   c-2.8-2.8-6.9-3.6-10.5-2.3v-9c0-14.1-3-27.4-8.4-39.5h121.7c42.8,0,77.5,34.7,77.5,77.5v56c0,42.8-34.7,77.5-77.5,77.5h-22.6v91.4   l-79-91.4h-63.7C724.7-2.8,707.4-9.6,694-20.8z"></path><path d="M240.4,255.7h106.5v118.5h194V255.7h10v118.5h52.6V242.3c0-33-26.8-59.8-59.8-59.8h-63.5   c-1.5,0.7-3.1,1.3-4.7,1.9c-9,3.4-18.7,5.2-28.8,5.2c-11.9,0-23.3-2.6-33.5-7.1H266V56c0-14.1-11.4-25.6-25.6-25.6   S214.8,41.9,214.8,56v174.1C214.8,244.2,226.3,255.7,240.4,255.7z"></path><rect x="266.5" y="509.3" width="361.4" height="323.5"></rect><polygon points="233.9,499.3 660.5,499.3 682,384.2 212.3,384.2  "></polygon><path d="M400.3,162.8c12.6,10.5,28.8,16.9,46.5,16.9c17.8,0,34.1-6.4,46.8-17.1c15.7-13.3,25.6-33.1,25.6-55.2   c0-40-32.4-72.4-72.4-72.4s-72.4,32.4-72.4,72.4C374.4,129.6,384.4,149.5,400.3,162.8z"></path><path d="M996.3,189.7c-10.1,0-19.9-1.8-28.8-5.2c-1.6-0.6-3.2-1.2-4.7-1.9h-63.5c-33,0-59.8,26.8-59.8,59.8v131.9   h52.6V255.7h10v118.5h194V255.7h106.5c14.1,0,25.6-11.5,25.6-25.6V56c0-14.1-11.4-25.6-25.6-25.6S1177,41.9,1177,56v126.5h-147.2   C1019.6,187.1,1008.2,189.7,996.3,189.7z"></path><rect x="815.1" y="509.3" width="361.4" height="323.5"></rect><polygon points="761,384.2 782.5,499.3 1209.1,499.3 1230.7,384.2  "></polygon><path d="M923.9,107.3c0,0.7,0,1.4,0,2.1s0,1.4,0.1,2.1c0,0.6,0.1,1.3,0.1,1.9c0,0.1,0,0.2,0,0.3   c0,0.6,0.1,1.2,0.2,1.7c0,0.1,0,0.1,0,0.2c0.1,0.5,0.1,1,0.2,1.5c0,0.3,0.1,0.5,0.1,0.8c0.1,0.4,0.1,0.7,0.2,1.1   c0.1,0.3,0.1,0.6,0.2,0.9c0,0.2,0.1,0.4,0.1,0.6c0.1,0.5,0.2,0.9,0.3,1.4c0.4,2,0.9,3.9,1.5,5.8c0.1,0.5,0.3,1,0.4,1.5   c0.1,0.5,0.3,1,0.5,1.5c0.2,0.4,0.3,0.9,0.5,1.3c0.1,0.1,0.1,0.3,0.1,0.4c0.1,0.3,0.3,0.7,0.4,1c0.1,0.3,0.3,0.7,0.4,1   c0.2,0.5,0.4,0.9,0.6,1.4c0.2,0.4,0.3,0.8,0.5,1.1c0.1,0.2,0.2,0.3,0.2,0.5c0.2,0.4,0.4,0.8,0.6,1.3c1,2.2,2.2,4.3,3.5,6.4   c0.3,0.6,0.7,1.1,1,1.6c0.3,0.4,0.5,0.8,0.8,1.2c0.2,0.3,0.4,0.6,0.6,0.9c0.5,0.7,1,1.4,1.6,2.1c0.2,0.3,0.4,0.6,0.6,0.8   c0.5,0.6,0.9,1.2,1.4,1.8c0.3,0.4,0.6,0.7,0.9,1.1c0.4,0.4,0.7,0.8,1.1,1.2c0.4,0.5,0.8,0.9,1.3,1.4l0,0c0.4,0.5,0.9,0.9,1.4,1.4   c0.5,0.4,0.9,0.9,1.4,1.3c0.5,0.4,0.9,0.9,1.4,1.3c0.5,0.4,1,0.9,1.4,1.3c0.4,0.3,0.8,0.7,1.2,1c0,0,0,0,0.1,0.1   c0.4,0.3,0.8,0.6,1.2,0.9c0.8,0.6,1.6,1.3,2.5,1.9c0.4,0.3,0.8,0.6,1.3,0.9c0.8,0.6,1.6,1.1,2.4,1.6c0.7,0.4,1.5,0.9,2.2,1.3   c0.4,0.3,0.8,0.5,1.3,0.7c1.2,0.6,2.4,1.3,3.6,1.8c0.9,0.4,1.9,0.9,2.9,1.3c1,0.4,2,0.8,3,1.2c0.3,0.1,0.6,0.2,1,0.4   c1,0.4,2,0.7,3,1c0.5,0.1,1,0.3,1.4,0.4c0.5,0.1,0.9,0.3,1.4,0.4c0.2,0.1,0.5,0.1,0.7,0.2c0.5,0.1,1,0.3,1.6,0.4   c1.8,0.4,3.7,0.8,5.6,1.1c0.4,0.1,0.8,0.1,1.3,0.2c0.1,0,0.2,0,0.3,0c0.4,0.1,0.8,0.1,1.2,0.1s0.8,0.1,1.1,0.1c0.1,0,0.1,0,0.2,0   c0.5,0.1,1,0.1,1.5,0.1c0.8,0.1,1.5,0.1,2.3,0.1c0.3,0,0.7,0,1,0c0.6,0,1.1,0,1.7,0c0.6,0,1.1,0,1.6,0c0.4,0,0.7,0,1.1,0h0.7   c0.5,0,1-0.1,1.5-0.1c0.4,0,0.8-0.1,1.2-0.1c0.3,0,0.5,0,0.8-0.1c0.4,0,0.8-0.1,1.3-0.1c0.5-0.1,1.1-0.1,1.6-0.2   c0.5-0.1,1.1-0.1,1.6-0.2s1-0.2,1.6-0.3c1.3-0.2,2.5-0.5,3.8-0.8c0.4-0.1,0.8-0.2,1.2-0.3s0.9-0.2,1.3-0.4c0.4-0.1,0.9-0.2,1.3-0.4   c0.1,0,0.2,0,0.3-0.1c0.4-0.1,0.9-0.3,1.3-0.4c0.1,0,0.2-0.1,0.2-0.1c0.5-0.2,0.9-0.3,1.3-0.5c0.5-0.2,1-0.3,1.5-0.5   c1.5-0.5,2.9-1.1,4.3-1.8c0.4-0.2,0.7-0.3,1.1-0.5c1.3-0.6,2.6-1.3,3.9-2c0.4-0.2,0.8-0.5,1.2-0.7c1.6-0.9,3.1-1.8,4.6-2.8   c0.4-0.3,0.8-0.6,1.3-0.9c0.4-0.3,0.8-0.6,1.3-0.9c0.4-0.3,0.8-0.6,1.2-0.9c0.4-0.3,0.8-0.6,1.2-0.9c0.4-0.3,0.8-0.6,1.2-1l0,0   c0.1,0,0.1-0.1,0.1-0.1c0.4-0.3,0.8-0.7,1.2-1c0.1-0.1,0.2-0.2,0.3-0.3c0.4-0.4,0.9-0.8,1.3-1.2c0.5-0.4,0.9-0.9,1.4-1.3   c0.4-0.4,0.8-0.8,1.2-1.2c0.5-0.5,1-1,1.5-1.6c0.4-0.5,0.9-0.9,1.3-1.4l0,0c0.4-0.5,0.8-1,1.2-1.5c0.8-1,1.6-2,2.4-3.1   c0.3-0.4,0.6-0.9,0.9-1.3c0.5-0.7,1-1.4,1.4-2.1c0.3-0.5,0.6-0.9,0.9-1.4s0.6-1,0.9-1.5c1-1.7,1.9-3.4,2.7-5.1   c0.2-0.4,0.4-0.9,0.6-1.4c0.1-0.1,0.1-0.2,0.2-0.3c0.2-0.4,0.4-0.8,0.5-1.3c0.2-0.4,0.4-0.8,0.5-1.3c0.2-0.4,0.4-0.9,0.5-1.3   c0-0.1,0-0.1,0.1-0.2c0.2-0.4,0.3-0.9,0.5-1.3c1.3-3.7,2.4-7.6,3.1-11.6c0.1-0.3,0.1-0.7,0.2-1c0.1-0.4,0.1-0.8,0.2-1.2   c0-0.2,0.1-0.3,0.1-0.5c0.1-0.4,0.1-0.8,0.2-1.2c0-0.3,0.1-0.6,0.1-0.9c0-0.4,0.1-0.8,0.1-1.2c0-0.3,0-0.5,0.1-0.8   c0-0.6,0.1-1.2,0.1-1.8c0-0.7,0.1-1.4,0.1-2.1s0-1.4,0-2.1c0-40-32.4-72.4-72.4-72.4C956.3,35,923.9,67.4,923.9,107.3z"></path><path d="M702.9-186c-3.3-4.4-9.5-5.4-14-2.1l-7.5,5.5l-10.1,7.4l-22.7,16.6l-60.4,44.3L557-151.6l-3.5-4.1   c-3.6-4.2-9.9-4.8-14.1-1.2c-4.2,3.5-4.8,9.9-1.2,14.1L579-94.2c2,2.4,4.8,3.6,7.7,3.6c2.1,0,4.1-0.6,5.9-1.9l53.5-39.3l20.7-15.2   l33.9-24.9C705.2-175.3,706.2-181.5,702.9-186z"></path></g></svg>