<svg height='100px' width='100px'  fill="#000000" xmlns="http://www.w3.org/2000/svg" xmlns:xlink="http://www.w3.org/1999/xlink" version="1.1" x="0px" y="0px" viewBox="0 0 100 100" style="enable-background:new 0 0 100 100;" xml:space="preserve"><path d="M57.5307617,21.190918h23.9980469c0.5522461,0,1-0.4477539,1-1s-0.4477539-1-1-1H57.5307617c-0.5522461,0-1,0.4477539-1,1  S56.9785156,21.190918,57.5307617,21.190918z"></path><path d="M57.5307617,28.4433594h23.9980469c0.5522461,0,1-0.4477539,1-1s-0.4477539-1-1-1H57.5307617c-0.5522461,0-1,0.4477539-1,1  S56.9785156,28.4433594,57.5307617,28.4433594z"></path><path d="M57.5307617,35.6958008h23.9980469c0.5522461,0,1-0.4477539,1-1s-0.4477539-1-1-1H57.5307617c-0.5522461,0-1,0.4477539-1,1  S56.9785156,35.6958008,57.5307617,35.6958008z"></path><path d="M90,11c0-0.5522461-0.4477539-1-1-1H11c-0.5522461,0-1,0.4477539-1,1v61.6206055c0,0.5522461,0.4477539,1,1,1h51.4584961V89  c0,0.3408203,0.1738281,0.6586914,0.4609375,0.8422852c0.2875977,0.1845703,0.6489258,0.2104492,0.9580078,0.0654297  l5.6523438-2.6083984l5.6523438,2.6083984C75.3154297,89.9697266,75.4584961,90,75.6010742,90  c0.1879883,0,0.3754883-0.0532227,0.5390625-0.1577148C76.4272461,89.6586914,76.6010742,89.3408203,76.6010742,89V73.6206055H89  c0.5522461,0,1-0.4477539,1-1V11z M57.9526367,60.9628906l-1.6367188-2.8339844l1.6367188-2.8344727  c0.0874023-0.1518555,0.1337891-0.3242188,0.1337891-0.5v-3.2729492l2.8339844-1.6357422  c0.1518555-0.0878906,0.2783203-0.2143555,0.3662109-0.3662109l1.6362305-2.8339844h3.2724609  c0.1757812,0,0.3481445-0.0463867,0.5-0.1337891l2.8344727-1.6367188l2.8339844,1.6367188  c0.1518555,0.0874023,0.3242188,0.1337891,0.5,0.1337891h3.2729492l1.6357422,2.8339844  c0.0878906,0.1518555,0.2143555,0.2783203,0.3662109,0.3662109l2.8344727,1.6362305v3.2724609  c0,0.175293,0.0463867,0.3481445,0.1337891,0.5l1.6362305,2.8344727l-1.6362305,2.8339844  c-0.0874023,0.1518555-0.1337891,0.324707-0.1337891,0.5v3.2724609l-2.8344727,1.6362305  c-0.1518555,0.0878906-0.2783203,0.2143555-0.3662109,0.3662109l-1.6362305,2.8344727h-3.2724609  c-0.175293,0-0.3481445,0.0463867-0.5,0.1337891l-2.8339844,1.6362305l-2.8344727-1.6362305  c-0.1518555-0.0874023-0.324707-0.1337891-0.5-0.1337891h-3.2724609l-1.6362305-2.8344727  c-0.0878906-0.1518555-0.2143555-0.2783203-0.3662109-0.3662109l-2.8339844-1.6357422v-3.2729492  C58.0864258,61.2871094,58.0400391,61.1147461,57.9526367,60.9628906z M64.4584961,71.5722656h1.46875l2.6025391,1.5023804  v12.4835205l-4.0712891,1.8788452V71.5722656z M70.5297852,85.5581665V73.074585l2.6020508-1.5023193h1.4692383v15.8647461  L70.5297852,85.5581665z M88,71.6206055H76.6010742v-0.0483398h0.112793c0.3574219,0,0.6875-0.1904297,0.8662109-0.5  l1.7905273-3.1025391l3.1025391-1.7905273c0.3095703-0.1787109,0.5-0.5087891,0.5-0.8662109V61.730957l1.7910156-3.1020508  c0.1782227-0.3095703,0.1782227-0.6904297,0-1l-1.7910156-3.1025391v-3.5820312c0-0.3574219-0.1904297-0.6875-0.5-0.8662109  l-3.1025391-1.7905273l-1.7905273-3.1020508c-0.1787109-0.3095703-0.5087891-0.5-0.8662109-0.5h-3.5820312l-3.1020508-1.7915039  c-0.3095703-0.1787109-0.6904297-0.1787109-1,0l-3.1025391,1.7915039h-3.581543c-0.3574219,0-0.6875,0.1904297-0.8662109,0.5  l-1.7910156,3.1020508l-3.1020508,1.7905273c-0.3095703,0.1787109-0.5,0.5087891-0.5,0.8662109v3.5820312l-1.7915039,3.1025391  c-0.1782227,0.3095703-0.1782227,0.6904297,0,1l1.7915039,3.1020508v3.5820312c0,0.3574219,0.1904297,0.6875,0.5,0.8662109  l3.1020508,1.7905273l1.7910156,3.1025391c0.1787109,0.3095703,0.5087891,0.5,0.8662109,0.5h0.112793v0.0483398H12V12h76V71.6206055  z"></path><path d="M63.1601562,55.7856445h12.7392578c0.5522461,0,1-0.4477539,1-1s-0.4477539-1-1-1H63.1601562c-0.5522461,0-1,0.4477539-1,1  S62.6079102,55.7856445,63.1601562,55.7856445z"></path><path d="M63.1601562,62.4716797h12.7392578c0.5522461,0,1-0.4477539,1-1s-0.4477539-1-1-1H63.1601562c-0.5522461,0-1,0.4477539-1,1  S62.6079102,62.4716797,63.1601562,62.4716797z"></path><path d="M17.4887695,60.2431641c-0.5522461,0-1,0.4477539-1,1s0.4477539,1,1,1h31.9741211c0.5522461,0,1-0.4477539,1-1  s-0.4477539-1-1-1h-0.921875v-8.847168h0.921875c0.5522461,0,1-0.4477539,1-1s-0.4477539-1-1-1h-2.2070312v-9.0117188h0.2851562  c0.5522461,0,1-0.4477539,1-1v-1.4799805c0-7.9691162-6.2247925-14.4956665-14.0649414-15.0142822V20.190918  c0-0.5522461-0.4477539-1-1-1s-1,0.4477539-1,1v2.6990967c-7.8405762,0.5186157-14.0654297,7.045166-14.0654297,15.0142822  v1.4799805c0,0.5522461,0.4477539,1,1,1h0.2851562v9.0117188h-2.2070312c-0.5522461,0-1,0.4477539-1,1s0.4477539,1,1,1h1.2382812  v8.847168H17.4887695z M29.8525391,51.3959961v8.847168h-3.5629883v-8.847168H29.8525391z M40.9785156,51.3959961v8.847168  h-3.5629883v-8.847168H40.9785156z M35.4155273,60.2431641h-3.5629883v-8.847168h3.5629883V60.2431641z M46.5410156,60.2431641  h-3.5625v-8.847168h3.5625V60.2431641z M20.4106445,37.9042969c0-7.2041016,5.8613281-13.0649414,13.0654297-13.0649414  s13.0649414,5.8608398,13.0649414,13.0649414v0.4799805H20.4106445V37.9042969z M21.6958008,40.3842773h23.5600586v9.0117188  H21.6958008V40.3842773z M20.7270508,51.3959961h3.5625v8.847168h-3.5625V51.3959961z"></path><path d="M26.0629883,42.1455078c-0.5522461,0-1,0.4477539-1,1v3.4345703c0,0.5522461,0.4477539,1,1,1s1-0.4477539,1-1v-3.4345703  C27.0629883,42.5932617,26.6152344,42.1455078,26.0629883,42.1455078z"></path><path d="M31.0048828,42.1455078c-0.5522461,0-1,0.4477539-1,1v3.4345703c0,0.5522461,0.4477539,1,1,1s1-0.4477539,1-1v-3.4345703  C32.0048828,42.5932617,31.5571289,42.1455078,31.0048828,42.1455078z"></path><path d="M35.9467773,42.1455078c-0.5522461,0-1,0.4477539-1,1v3.4345703c0,0.5522461,0.4477539,1,1,1s1-0.4477539,1-1v-3.4345703  C36.9467773,42.5932617,36.4990234,42.1455078,35.9467773,42.1455078z"></path><path d="M40.8886719,42.1455078c-0.5522461,0-1,0.4477539-1,1v3.4345703c0,0.5522461,0.4477539,1,1,1s1-0.4477539,1-1v-3.4345703  C41.8886719,42.5932617,41.440918,42.1455078,40.8886719,42.1455078z"></path></svg>