<svg height='100px' width='100px'  fill="#000000" xmlns="http://www.w3.org/2000/svg" xmlns:xlink="http://www.w3.org/1999/xlink" version="1.1" x="0px" y="0px" viewBox="0 0 512 512" style="enable-background:new 0 0 512 512;" xml:space="preserve"><g><g><path style="" d="M425.595,76H441c8.271,0,15-6.729,15-15s-6.729-15-15-15h-15.405    c-8.271,0-15,6.729-15,15S417.323,76,425.595,76z" fill-rule="evenodd" clip-rule="evenodd"></path><path style="" d="M441,436h-15.405c-8.271,0-15,6.729-15,15s6.729,15,15,15H441    c8.271,0,15-6.729,15-15S449.271,436,441,436z" fill-rule="evenodd" clip-rule="evenodd"></path><path style="" d="M86.405,46H71c-8.271,0-15,6.729-15,15s6.729,15,15,15h15.405    c8.271,0,15-6.729,15-15S94.676,46,86.405,46z" fill-rule="evenodd" clip-rule="evenodd"></path><path style="" d="M385.595,426H126.405c-8.271,0-15,6.729-15,15v20c0,8.271,6.729,15,15,15    h259.189c8.271,0,15-6.729,15-15v-20C400.595,432.729,393.866,426,385.595,426z" fill-rule="evenodd" clip-rule="evenodd"></path><path style="" d="M181,136h-55v280h0.405h259.189H386V136h-55c-2.762,0-5-2.239-5-5    s2.238-5,5-5h55V96h-0.405H126.405H126v30h55c2.761,0,5,2.239,5,5S183.761,136,181,136z M205.025,271l-9.232-6.728L186.582,271    l3.54-10.847l-9.252-6.706l11.426,0.021l3.498-10.867l3.519,10.867l11.426-0.021l-9.252,6.706L205.025,271z M162.295,225.068    l3.498-10.867l3.519,10.867l11.426-0.021l-9.252,6.707l3.54,10.846l-9.232-6.727l-9.211,6.727l3.54-10.846l-9.252-6.707    L162.295,225.068z M162.295,253.468l3.498-10.867l3.519,10.867l11.426-0.021l-9.252,6.706l3.54,10.847l-9.232-6.728L156.582,271    l3.54-10.847l-9.252-6.706L162.295,253.468z M351,356H161c-2.761,0-5-2.238-5-5s2.239-5,5-5h190c2.762,0,5,2.238,5,5    S353.762,356,351,356z M351,326H161c-2.761,0-5-2.238-5-5s2.239-5,5-5h190c2.762,0,5,2.238,5,5S353.762,326,351,326z M351,296H161    c-2.761,0-5-2.238-5-5s2.239-5,5-5h190c2.762,0,5,2.238,5,5S353.762,296,351,296z M235.025,271l-9.232-6.728L216.582,271    l3.54-10.847l-9.252-6.706l11.426,0.021l3.498-10.867l3.519,10.867l11.426-0.021l-9.252,6.706L235.025,271z M261,226h90    c2.762,0,5,2.239,5,5s-2.238,5-5,5h-90c-2.762,0-5-2.239-5-5S258.238,226,261,226z M261,256h90c2.762,0,5,2.238,5,5s-2.238,5-5,5    h-90c-2.762,0-5-2.238-5-5S258.238,256,261,256z M237.46,127.46c0.93-0.93,2.22-1.46,3.54-1.46c1.32,0,2.61,0.53,3.54,1.46    c0.93,0.93,1.46,2.22,1.46,3.54c0,1.32-0.53,2.61-1.46,3.53c-0.93,0.94-2.22,1.47-3.54,1.47c-1.32,0-2.61-0.53-3.54-1.47    c-0.93-0.92-1.46-2.21-1.46-3.53C236,129.68,236.53,128.39,237.46,127.46z M225.793,214.201l3.519,10.867l11.426-0.021    l-9.252,6.707l3.54,10.846l-9.232-6.727l-9.211,6.727l3.54-10.846l-9.252-6.707l11.426,0.021L225.793,214.201z M207.46,127.46    c0.94-0.93,2.22-1.46,3.54-1.46c1.32,0,2.6,0.53,3.54,1.46c0.93,0.94,1.46,2.22,1.46,3.54c0,1.32-0.53,2.6-1.46,3.53    c-0.93,0.94-2.22,1.47-3.54,1.47c-1.32,0-2.61-0.53-3.54-1.47c-0.93-0.92-1.46-2.21-1.46-3.53    C206,129.68,206.53,128.39,207.46,127.46z M192.295,225.068l3.498-10.867l3.519,10.867l11.426-0.021l-9.252,6.707l3.54,10.846    l-9.232-6.727l-9.211,6.727l3.54-10.846l-9.252-6.707L192.295,225.068z" fill-rule="evenodd" clip-rule="evenodd"></path><path style="" d="M86.405,436H71c-8.271,0-15,6.729-15,15s6.729,15,15,15h15.405    c8.271,0,15-6.729,15-15S94.676,436,86.405,436z" fill-rule="evenodd" clip-rule="evenodd"></path><path style="" d="M385.595,36H126.405c-8.271,0-15,6.729-15,15v20c0,8.271,6.729,15,15,15    h259.189c8.271,0,15-6.729,15-15V51C400.595,42.729,393.866,36,385.595,36z" fill-rule="evenodd" clip-rule="evenodd"></path></g></g></svg>