<svg height='100px' width='100px'  fill="#000000" xmlns="http://www.w3.org/2000/svg" viewBox="0 0 100 100" x="0px" y="0px"><title>women of the senate</title><g data-name="Kamala Harris"><path d="M59.1709,27.99609a.37481.37481,0,1,1-.59863.45118,2.56118,2.56118,0,0,0-1.07569-.85254,3.30265,3.30265,0,0,0-1.82226-.0669,9.72059,9.72059,0,0,0-2.69825.81006.3751.3751,0,0,1-.31543-.68066,10.46914,10.46914,0,0,1,2.90674-.87159,4.05562,4.05562,0,0,1,2.21338.11475A3.34363,3.34363,0,0,1,59.1709,27.99609Zm-15.23145-.74853a4.722,4.722,0,0,1,2.04248.61279.37483.37483,0,0,0,.3711-.65137,5.36828,5.36828,0,0,0-3.85254-.5913A5.36222,5.36222,0,0,0,40.187,27.80322a.37519.37519,0,0,0,.49219.56641A4.60328,4.60328,0,0,1,42.667,27.34912,4.47029,4.47029,0,0,1,43.93945,27.24756Zm1.1781,2.689c.02369.00831.04425.00788.06849.01752a2.11377,2.11377,0,0,1,.92919.75049.37514.37514,0,0,0,.61231-.43359,2.86615,2.86615,0,0,0-1.26367-1.01368A3.04841,3.04841,0,0,0,44.3252,29.063a5.0236,5.0236,0,0,0-1.94922.37109,5.85079,5.85079,0,0,0-1.479.83545.375.375,0,0,0,.23.67139.37091.37091,0,0,0,.229-.07862,5.11579,5.11579,0,0,1,1.28955-.728c.10071-.03882.25207-.09229.424-.14533a1.13393,1.13393,0,0,0-.1073.47254,1.149,1.149,0,0,0,2.298,0A1.12084,1.12084,0,0,0,45.11755,29.93658Zm10.94886-.90875a3.89209,3.89209,0,0,0-2.73047.65625,4.03351,4.03351,0,0,0-.62158.51074.375.375,0,1,0,.53125.5293,3.27739,3.27739,0,0,1,.50488-.415,3.53839,3.53839,0,0,1,.6969-.35,1.08679,1.08679,0,0,0-.053.17132,1.149,1.149,0,1,0,2.28631.23126,1.13265,1.13265,0,0,0-.03942-.39923,3.21649,3.21649,0,0,1,.96618.60742.37485.37485,0,1,0,.51074-.54882A3.80879,3.80879,0,0,0,56.06641,29.02783Zm-.70557,13.98194a.25017.25017,0,0,1-.24414.23877c-.20557.00445-.47272.01135-.76679.02032a.23858.23858,0,0,1-.0252.13983,4.75428,4.75428,0,0,1-1.52979,1.49414,4.70651,4.70651,0,0,1-2.44971.66846,5.308,5.308,0,0,1-.64257-.03955,5.23428,5.23428,0,0,1-3.38282-1.93067.23222.23222,0,0,1-.03234-.113,3.82622,3.82622,0,0,1-.91443-.13068.25006.25006,0,0,1,.0581-.49121,3.975,3.975,0,0,0,1.51074-.32519c.19288-.08594.498-.24952,1.11524-.58155l.16894-.09082a2.56114,2.56114,0,0,1,.74756-.34033,1.80478,1.80478,0,0,1,1.44385.50781,1.93072,1.93072,0,0,1,1.36719-.60888,2.57776,2.57776,0,0,1,1.06933.352,3.853,3.853,0,0,1,.58692.37646,3.41486,3.41486,0,0,0,1.69873.59424A.24989.24989,0,0,1,55.36084,43.00977Zm-8.09814-.06641c.23291-.01416.38574-.02148.58447-.02148.02148,0,.231,0,.43359.01074a9.45554,9.45554,0,0,1,1.48242.2334l.35645.07421a1.26343,1.26343,0,0,0,.40088.05909.97334.97334,0,0,0,.3125-.07666,5.24468,5.24468,0,0,1,.502-.15625,7.27236,7.27236,0,0,1,.92334-.17774c.3457-.04785.60938-.06152.813-.0708.1499-.00732.29883-.01416.44433-.02a2.70107,2.70107,0,0,1-.33984-.21582,3.6173,3.6173,0,0,0-.55176-.35889,2.1387,2.1387,0,0,0-.85791-.29589,1.51184,1.51184,0,0,0-1.13867.61621.25046.25046,0,0,1-.1748.08789.24405.24405,0,0,1-.18409-.06446c-.46972-.42675-.875-.61425-1.1997-.54736a2.36608,2.36608,0,0,0-.606.28955l-.16894.09082C47.76025,42.687,47.4668,42.84424,47.2627,42.94336Zm6.51886.34479q-.33408.01254-.68635.02874c-.19335.00928-.44238.022-.769.0669a7.01349,7.01349,0,0,0-.86474.166,4.62138,4.62138,0,0,0-.459.14356,1.48574,1.48574,0,0,1-.44482.105c-.03174.00195-.06006.00342-.08741.00342a2.252,2.252,0,0,1-.45361-.07227l-.353-.07324a9.13261,9.13261,0,0,0-1.40918-.22461c-.18994-.00976-.38671-.00976-.40722-.00976-.22168,0-.3833.00976-.67627.02783l-.30737.01971a4.68063,4.68063,0,0,0,2.89965,1.56622,4.29151,4.29151,0,0,0,2.77344-.56054A4.23627,4.23627,0,0,0,53.78156,43.28815ZM48.05566,38.082a.9135.9135,0,0,1,.36475-.0249.85307.85307,0,0,1,.48291.23926.75865.75865,0,0,1,.1416.22168,1.22286,1.22286,0,0,0,.32373.439,1.75616,1.75616,0,0,0,.24414.17188,1.83037,1.83037,0,0,0,.88233.21826,1.74123,1.74123,0,0,0,.85058-.21338,1.32768,1.32768,0,0,0,.40723-.352,2.04773,2.04773,0,0,1,.42139-.39307,3.23932,3.23932,0,0,1,.55175-.31982.25.25,0,1,0-.207-.45508,3.702,3.702,0,0,0-.6372.36963,2.52486,2.52486,0,0,0-.51123.47607.84266.84266,0,0,1-.26807.2378,1.34927,1.34927,0,0,1-1.24121-.00245,1.2388,1.2388,0,0,1-.16553-.11572.7259.7259,0,0,1-.20068-.27881,1.24574,1.24574,0,0,0-.23-.34912,1.35662,1.35662,0,0,0-.77-.38818,1.39,1.39,0,0,0-.57422.0376.25.25,0,0,0,.13476.48144Zm2.8711-4.09131a10.31468,10.31468,0,0,1,.15576,1.91065.24986.24986,0,0,0,.24756.25244h.00244a.25.25,0,0,0,.25-.24756,10.80669,10.80669,0,0,0-.16357-2.00342c-.05616-.31347-.12061-.58984-.18165-.85107a5.59985,5.59985,0,0,1-.21-1.78174,4.87659,4.87659,0,0,1,.126-.82959.25013.25013,0,1,0-.48633-.11719,5.42063,5.42063,0,0,0-.13867.91455,5.9904,5.9904,0,0,0,.22217,1.92774C50.80957,33.419,50.87207,33.687,50.92676,33.99072Zm-4.14746,4.3042a.25.25,0,1,0,.41406-.28027,1.19815,1.19815,0,0,1-.20752-.62158,1.251,1.251,0,0,1,.31348-.8584.25016.25016,0,0,0-.376-.33008,1.76158,1.76158,0,0,0-.4375,1.209A1.69954,1.69954,0,0,0,46.7793,38.29492Zm6.65771-.22851a.24888.24888,0,0,0,.32227-.14453,1.73986,1.73986,0,0,0-.03321-1.33057,1.67408,1.67408,0,0,0-.59033-.68408.25.25,0,1,0-.27734.416,1.17349,1.17349,0,0,1,.41406.47852,1.2383,1.2383,0,0,1,.02.94238A.24906.24906,0,0,0,53.437,38.06641ZM40.04346,57.30078a1.04393,1.04393,0,0,1-.38477-.07422,1.01068,1.01068,0,0,1-.55664-.54785,1.1237,1.1237,0,0,1-.00488-.85644,1.06064,1.06064,0,0,1,.59863-.58985,1.00487,1.00487,0,0,1,.79688.02637,1.08385,1.08385,0,0,1,.53222,1.38281A1.06469,1.06469,0,0,1,40.04346,57.30078Zm.23633-1.58887a.50405.50405,0,0,0-.40381-.01269.55852.55852,0,0,0-.31592.31348.6137.6137,0,0,0,.002.46875.51247.51247,0,0,0,.28125.28027h.00049a.556.556,0,0,0,.71777-.3086A.58052.58052,0,0,0,40.27979,55.71191Zm.28613,2.94239a1.08385,1.08385,0,0,1-1.01612.72168,1.02036,1.02036,0,0,1-.3125-.04883.9889.9889,0,0,1-.58935-.50391,1.115,1.115,0,0,1-.05615-.8584A1.0656,1.0656,0,0,1,39.148,57.333a.99631.99631,0,0,1,.78662-.02637A1.07864,1.07864,0,0,1,40.56592,58.6543Zm-.812-.88086a.4936.4936,0,0,0-.18213-.03418.50333.50333,0,0,0-.21192.04687.56722.56722,0,0,0-.29443.33887.61276.61276,0,0,0,.02832.47168.49748.49748,0,0,0,.29346.25391h.00049a.56908.56908,0,0,0,.36621-1.07715Zm1.8706,11.36621a.836.836,0,0,1-.6792.41211q-.04393.00292-.08789.00293a1.17367,1.17367,0,0,1-.90478-.44434,1.05878,1.05878,0,0,1-.231-.91113.92947.92947,0,0,1,.51465-.63281,1.127,1.127,0,0,1,1.33008.21386A1.27764,1.27764,0,0,1,41.62451,69.13965Zm-.44922-1.04883a.51772.51772,0,0,0-.39209-.14746.80869.80869,0,0,0-.33593.07617.43285.43285,0,0,0-.23877.29395.56988.56988,0,0,0,.13476.48437.63266.63266,0,0,0,.56006.25488.34474.34474,0,0,0,.28467-.15722l.00146-.00293A.76872.76872,0,0,0,41.17529,68.09082Zm2.63086.89551a.88384.88384,0,0,1-.18457.78125,1.13786,1.13786,0,0,1-.89892.41015c-.02051,0-.04151,0-.0625-.001a1.06728,1.06728,0,0,1-.877-.48926A.87316.87316,0,0,1,41.728,68.876a1.133,1.133,0,0,1,1.01709-.78711A1.21836,1.21836,0,0,1,43.80615,68.98633Zm-.48388.126-.001-.0039a.71187.71187,0,0,0-.59277-.51953h-.0044c-.19678,0-.40625.18652-.53906.49023a.3706.3706,0,0,0,.02588.34961.57348.57348,0,0,0,.4751.24805.62788.62788,0,0,0,.54638-.22364A.38768.38768,0,0,0,43.32227,69.1123ZM63.17676,31.19336a.25027.25027,0,0,0-.1753.30713,4.95883,4.95883,0,0,1,.23975,1.355,1.47446,1.47446,0,0,1-.45264,1.11426.25014.25014,0,0,0,.32325.38183,1.97293,1.97293,0,0,0,.62939-1.48779,5.35625,5.35625,0,0,0-.25732-1.49512A.25026.25026,0,0,0,63.17676,31.19336ZM93.64209,84.665a.3751.3751,0,0,1-.375.375h-85a.375.375,0,1,1,0-.75h8.74933c.83533-7.82459,1.26538-11.8985,1.27753-12.10449l-.00782-.19434a42.61074,42.61074,0,0,1,.102-4.38183c.04248-.5752.10645-1.19336.20069-1.87891a24.65023,24.65023,0,0,1,1.11523-4.75195c1.08582-2.822,3.80524-4.75434,5.54566-5.75354a4.49215,4.49215,0,0,1-1.72144-1.37732,8.46814,8.46814,0,0,1-1.54687-3.394.37522.37522,0,0,1,.07763-.3208.36026.36026,0,0,1,.3003-.13574A5.20528,5.20528,0,0,0,26.854,47.69971a6.97942,6.97942,0,0,1-3.13671-3.05616.37513.37513,0,0,1,.2749-.54394,3.70141,3.70141,0,0,0,2.42236-1.32617,4.89665,4.89665,0,0,0,.61231-2.04151,12.19685,12.19685,0,0,0,.00976-2.92529c-.03906-.479-.08154-.99951-.104-1.62158a21.07048,21.07048,0,0,1,.08984-3.26367A40.39418,40.39418,0,0,1,31.85889,17.352c.23437-.40967.563-.91846.95117-1.519.26025-.40283.54834-.84815.852-1.333a22.23522,22.23522,0,0,1,8.66406-8.50146,16.09488,16.09488,0,0,1,5.01172-1.60938,14.6758,14.6758,0,0,1,5.217.26056l.01007-.00128a14.08913,14.08913,0,0,1,4.64844,1.1123,15.39808,15.39808,0,0,1,3.8623,2.46582,21.52577,21.52577,0,0,1,4.26905,4.71338,23.73987,23.73987,0,0,1,3.22314,8.57324,37.10123,37.10123,0,0,1,.85352,6.82959A41.05058,41.05058,0,0,1,68.4248,38.9292l-.05419.208a11.00631,11.00631,0,0,0-.04688,3.96093,5.48475,5.48475,0,0,0,1.33252,3.1294,3.45956,3.45956,0,0,0,1.73926.95361,3.825,3.825,0,0,0,3.09717-.96338.37977.37977,0,0,1,.3955-.06591.37472.37472,0,0,1,.229.32861,6.62277,6.62277,0,0,1-2.14453,5.12109,6.316,6.316,0,0,1-3.87061,1.52149c-.02362.081-.05347.168-.081.25293a.36722.36722,0,0,1,.267.01464c2.00244.917,3.98535,1.94532,5.89306,3.05665a26.943,26.943,0,0,1,4.91114,3.30566,18.01774,18.01774,0,0,1,4.26318,5.50586,11.30512,11.30512,0,0,1,.55224,1.3418A22.99239,22.99239,0,0,1,85.981,74.49414a53.8386,53.8386,0,0,0,.778,9.7959h6.50818A.3751.3751,0,0,1,93.64209,84.665Zm-24.82086-30.736A8.44925,8.44925,0,0,1,63.166,58.9668a8.53878,8.53878,0,0,1-2.2251.29492c-.05957,0-.11914-.001-.17871-.00195a.36379.36379,0,0,1-.18073-.05732c-.22925.12726-.47864.2489-.7409.36567a.36368.36368,0,0,1-.05152.179l-2.4834,3.95508,5.08252-.28223a.3418.3418,0,0,1,.34668.1875.37655.37655,0,0,1-.01367.39453L49.22693,84.29H73.60175c.2044-3.6012.297-6.142.282-7.75488-.00733-.7461.04639-1.40235.1543-2.71a6.3736,6.3736,0,0,1,.44775-2.28809,7.26474,7.26474,0,0,1,1.002-1.53906,12.80291,12.80291,0,0,1,1.127-1.27149.37462.37462,0,1,1,.52636.53321A12.179,12.179,0,0,0,76.08057,70.457a6.735,6.735,0,0,0-.91016,1.38672,5.64539,5.64539,0,0,0-.38525,2.043c-.10547,1.28418-.1587,1.92969-.15137,2.64062.01489,1.62372-.07709,4.16809-.28064,7.7627H86.00067a54.47551,54.47551,0,0,1-.76971-9.81348,22.25161,22.25161,0,0,0-1.03516-7.63769,10.24641,10.24641,0,0,0-.51611-1.25391,17.28708,17.28708,0,0,0-4.08838-5.27344,26.05884,26.05884,0,0,0-4.78809-3.21582c-1.88623-1.09961-3.84717-2.11621-5.82763-3.02343A.3638.3638,0,0,1,68.82123,53.92908ZM48.32623,84.29,61.68213,64.21l-5.05859.28125a.35164.35164,0,0,1-.34424-.18359.3751.3751,0,0,1,.00586-.38965l2.47717-3.94513a9.44191,9.44191,0,0,1-2.73206.40118,10.20935,10.20935,0,0,1-2.47558-.30859.37472.37472,0,0,1-.02783-.71875,5.83241,5.83241,0,0,0,2.04736-1.19922,5.76494,5.76494,0,0,0,.63867-.68164,14.5838,14.5838,0,0,1-4.0658.95136,51.63875,51.63875,0,0,1-.69787,6.15216A53.27618,53.27618,0,0,1,43.59656,84.29Zm-5.61505,0a52.60749,52.60749,0,0,0,7.99976-19.85156,51.0251,51.0251,0,0,0,.68036-5.97235c-.2359.00885-.47168.01483-.708.012-1.70117,4.20019-3.576,8.39245-5.573,12.46136-1.86719,3.80664-3.89014,7.60254-6.01269,11.28418a.37406.37406,0,0,1-.32471.1875.38882.38882,0,0,1-.09424-.01172A.37589.37589,0,0,1,38.398,82.042c-.062-4.29-.1543-8.65039-.27393-12.96094-.03985-1.44323-.088-2.90118-.13476-4.3565-.00183-.02246-.01459-.04169-.01514-.06439-.00043-.02192.0105-.04.01123-.06159-.01971-.61206-.0357-1.219-.05664-1.832-.00134-.00629.00061-.01294-.00061-.01929q-.0942-2.759-.20612-5.5133A59.77647,59.77647,0,0,0,36.11053,84.29Zm-14.90106,0h7.54224a60.44251,60.44251,0,0,1,1.699-27.424,11.50738,11.50738,0,0,1-1.24768,1.03332A6.13217,6.13217,0,0,1,32.99023,59.291a4.60847,4.60847,0,0,1-.666.04882,4.84933,4.84933,0,0,1-1.11194-.13507l.44641,4.49738a.37491.37491,0,0,1-.50342.38867l-3.43066-1.27051Zm9.873-69.36133a21.66847,21.66847,0,0,0-3.60938,9.15137,78.249,78.249,0,0,0-.91064,14.15283,66.47628,66.47628,0,0,1-.63184,11.22363,7.39492,7.39492,0,0,1-2.26563,4.45362,6.71749,6.71749,0,0,1-3.8338,1.46344A4.72149,4.72149,0,0,0,29.42773,57.624l.04657.00733c.00989.00152.01923.00226.029.00458a3.31306,3.31306,0,0,0,1.71594-.12812c.42383-.15332,1.28808-.67871,2.31738-2.48047a13.938,13.938,0,0,0,1.67481-5.02929,21.53709,21.53709,0,0,0,.064-4.28662c-.124-2.36914-.35351-4.11622-.55566-5.65772a37.72189,37.72189,0,0,1-.44141-6.21338c.021-1.12109.084-2.0874.11035-2.45068a49.41031,49.41031,0,0,1,.65967-5.1543,21.82476,21.82476,0,0,1,1.29736-5.147,19.17373,19.17373,0,0,1,3.10108-4.99024,16.789,16.789,0,0,1,3.10449-3.18066c2.93652-2.11572,6.63965-1.98389,9.227-1.501.01221.00245.02393.00489.03564.0083a17.1161,17.1161,0,0,0,.4209-2.15411,13.8,13.8,0,0,0-9.49463.98175A14.13018,14.13018,0,0,0,37.68311,14.92871Zm24.4121,42.26953a7.64949,7.64949,0,0,0,2.63428-3.333,7.69966,7.69966,0,0,0-.53271-5.2583,11.3053,11.3053,0,0,0-.95655-1.9082c-.19091-.32031-.38183-.64062-.58056-1.04-.14063-.28271-.23828-.49853-.31787-.69043,0,0-.11231-.26953-.21045-.55029a17.05162,17.05162,0,0,1-.46436-2.99024,27.66055,27.66055,0,0,1-1.17969,2.55665,11.06589,11.06589,0,0,1-.74755,1.21874c-.04859.06836-.10413.132-.15448.19935a11.89155,11.89155,0,0,1,.83758,5.13464,9.579,9.579,0,0,1-.14062,1.165,9.786,9.786,0,0,1-2.71875,4.957c-.00562.00574-.01325.00763-.01911.01294a.35448.35448,0,0,1-.018.11792A6.49084,6.49084,0,0,1,54.896,59.55371a8.85828,8.85828,0,0,0,3.6914-.30957A9.40733,9.40733,0,0,0,62.09521,57.19824Zm-5.14172-.87988a.35481.35481,0,0,1,.07288-.18262,8.33428,8.33428,0,0,0,2.64843-5.64648,11.07365,11.07365,0,0,0-.64758-4.402c-.13391.15125-.2666.30371-.40857.4469a14.00066,14.00066,0,0,1-3.12158,7.13867,13.84573,13.84573,0,0,1-5.69336,4.01953,13.81412,13.81412,0,0,0,7.14978-1.374ZM45.24414,68.37109a.44149.44149,0,0,0-.07519-.36523h-.00049a.61861.61861,0,0,0-.4917-.23926.57114.57114,0,0,0-.27588.06738.60508.60508,0,0,0-.22266.73145.43958.43958,0,0,0,.26074.27344.5552.5552,0,0,0,.48487-.04688A.62979.62979,0,0,0,45.24414,68.37109ZM49.88287,58.45a14.8242,14.8242,0,0,1-1.86725-.24591.37512.37512,0,0,1-.01611-.73242,12.99712,12.99712,0,0,0,9.66431-9.85095c-.23572.25287-.47132.50653-.71509.7445a13.3355,13.3355,0,0,1-1.52,1.30518c-.45654.32422-.86963.562-1.085.68555a12.091,12.091,0,0,1-1.1499.58642,8.14222,8.14222,0,0,1-1.897.65235,7.30674,7.30674,0,0,1-3.27-.24219,8.29984,8.29984,0,0,1-.93262-.37891,7.54148,7.54148,0,0,1-1.0127-.59424,19.01934,19.01934,0,0,1-2.85254-2c-.1994-.16906-.4945-.42211-.83459-.74859.05475.57788.10345,1.05987.13879,1.397a10.64028,10.64028,0,0,1-.0083,3.90381,7.39108,7.39108,0,0,1-.34619,1.082.37435.37435,0,0,1-.34717.2334.38357.38357,0,0,1-.09668-.01874,1.06256,1.06256,0,0,1-.10888.44843,1.07551,1.07551,0,0,1-.95508.585,1.03042,1.03042,0,0,1-.4458-.10059,1.01358,1.01358,0,0,1-.522-.59472,1.10016,1.10016,0,0,1,.064-.84864,1.06249,1.06249,0,0,1,.63916-.543,1.00588,1.00588,0,0,1,.79053.083,1.0491,1.0491,0,0,1,.33911.31189c.03955-.10492.06781-.2121.102-.31854a1.06477,1.06477,0,0,1-.1897.02423,1.01938,1.01938,0,0,1-.99072-.76465,1.10454,1.10454,0,0,1,.123-.84179,1.06667,1.06667,0,0,1,.67675-.49707.99476.99476,0,0,1,.69294.10308c-.00647-.54547-.06336-1.213-.16315-2.169-.05322-.51075-.13623-1.32764-.22656-2.355-.00074-.0083.00287-.01569.00268-.02393a14.4143,14.4143,0,0,1-1.54809-2.14911,22.88107,22.88107,0,0,1,.12988,4.73749,11.66126,11.66126,0,0,1-1.32373,5.28809,9.62312,9.62312,0,0,1-.54126.83685c-.05414.16449-.10144.33075-.15418.4956a.38125.38125,0,0,1,.31067.34528c.04486,1.10083.08289,2.20782.12415,3.31281a1.03867,1.03867,0,0,1,.15857-.13117,1.02757,1.02757,0,0,1,.78857-.07715,1.07186,1.07186,0,0,1-.32666,2.09082,1.01974,1.01974,0,0,1-.269-.03613h-.001a.99117.99117,0,0,1-.28674-.14551c.00275.07654.00586.15277.00861.22931a.98889.98889,0,0,1,.55841-.03595,1.072,1.072,0,0,1,.78418,1.24121,1.08905,1.08905,0,0,1-1.061.86426.96336.96336,0,0,1-.12939-.00781h-.00049c-.029-.0036-.05286-.022-.08118-.02814l.00238.076a.992.992,0,0,1,.363-.042,1.08778,1.08778,0,0,1,.998,1.03125,1.11426,1.11426,0,0,1-.94531,1.09961.88.88,0,0,1-.1333.00976.9159.9159,0,0,1-.21863-.03979l.01148.36944a.9563.9563,0,0,1,.6178-.4107,1.07059,1.07059,0,0,1,1.24462.75586,1.09638,1.09638,0,0,1-.65576,1.29589.90008.90008,0,0,1-.34228.06739.99942.99942,0,0,1-.44092-.10645,1.098,1.098,0,0,1-.384-.32824c.0169.57336.0376,1.15283.0534,1.72375.10694,3.85645.1919,7.752.25293,11.60156,1.86719-3.293,3.65039-6.66894,5.31006-10.05175.21857-.44538.42975-.89728.64533-1.34546a1.10483,1.10483,0,0,1-.45636.10913,1.00244,1.00244,0,0,1-.37061-.06934.93831.93831,0,0,1-.55322-.585,1.06888,1.06888,0,0,1,1.86133-1.01953.89432.89432,0,0,1,.13293.28448C47.17725,64.84528,48.58069,61.65179,49.88287,58.45ZM38.68726,63.03333a.45451.45451,0,0,0,.15844.05651.58569.58569,0,0,0,.64014-.46.57018.57018,0,0,0-.42041-.65722.49347.49347,0,0,0-.39941.0625c-.00538.00335-.00812.00952-.01337.01306C38.66412,62.37732,38.67615,62.70441,38.68726,63.03333Zm.06567,2.1184a.43762.43762,0,0,0,.29639.07679.60684.60684,0,0,0,.51757-.59473.58583.58583,0,0,0-.54687-.544.40007.40007,0,0,0-.04785-.00293.4658.4658,0,0,0-.24976.08142C38.73315,64.497,38.74249,64.82343,38.75293,65.15173Zm.354,1.67054a.62678.62678,0,0,0,.31983.39355.45538.45538,0,0,0,.37256.02441.60345.60345,0,0,0,.3623-.70019.56939.56939,0,0,0-.6665-.39844.47639.47639,0,0,0-.32324.2207A.57531.57531,0,0,0,39.10693,66.82227Zm-.37841-6.11622a.5169.5169,0,0,0,.31494.252.56027.56027,0,0,0,.68017-.3916.56891.56891,0,0,0-.36377-.70313.52782.52782,0,0,0-.40478.04.57363.57363,0,0,0-.27686.3457A.59965.59965,0,0,0,38.72852,60.70605Zm2.45654-8v.001a.55437.55437,0,0,0,.63757-.07892,5.50376,5.50376,0,0,0,.10706-.73132.55671.55671,0,0,0-.16358-.16827.50739.50739,0,0,0-.27832-.083.54614.54614,0,0,0-.11865.01367.568.568,0,0,0-.35986.26758.58981.58981,0,0,0-.06787.457A.51517.51517,0,0,0,41.18506,52.70605Zm-.23145.98926a.50773.50773,0,0,0-.248-.06543.52216.52216,0,0,0-.15332.02344.56918.56918,0,0,0-.33985.291.59163.59163,0,0,0-.03613.46093.5167.5167,0,0,0,.26514.30469h.00048a.56881.56881,0,0,0,.51172-1.01465Zm20.77106,4.76648a7.69077,7.69077,0,0,0,6.68176-5.64288.358.358,0,0,1-.01532-.065,8.935,8.935,0,0,0-.57031-2.91065,6.35211,6.35211,0,0,0-.37842-.84961,8.13295,8.13295,0,0,0-.479-.75732,11.52139,11.52139,0,0,1-.69287-1.11084A15.69546,15.69546,0,0,1,64.73,39.95459a9.54046,9.54046,0,0,1,.00391-1.08643l.0166-.37744c.001-.022.01758-.34326.02051-1.21386.00152-.42041-.02649-1.15735-.08594-2.101-.0567.165-.10938.31189-.10938.31189-.35449.959-.67138,1.65576-.875,2.07227a.36569.36569,0,0,1-.12231.13476,1.43154,1.43154,0,0,1-1.258,2.43232,22.67885,22.67885,0,0,0,.519,4.04278c.09033.25879.19384.50733.19482.51026.07471.1792.16553.38037.29687.64453.18946.38037.3711.68457.55323.98974a12.09823,12.09823,0,0,1,1.0083,2.01221,8.35639,8.35639,0,0,1,.54687,5.77881,8.36377,8.36377,0,0,1-2.85595,3.66308C62.36383,57.95654,62.07477,58.20074,61.72467,58.46179Zm3.34076-30.32263a.89817.89817,0,0,0-.50586-.47754c-.26562-.06348-.61377.09863-.977.45947a3.03183,3.03183,0,0,0-.76465,1.70508c-.00683.08594-.01416.17188-.02148.2583a.38169.38169,0,0,1-.29785.33985.373.373,0,0,1-.40674-.18946.53825.53825,0,0,1-.03369-.21338l-.00879-.001c.00439-.05176.00879-.10352.01269-.15528.002-.02734.00391-.05517.00684-.08447a20.65873,20.65873,0,0,0-1.40235-9.59131,11.74677,11.74677,0,0,0-2.793-4.2373A6.14739,6.14739,0,0,0,54.27,13.95654a5.25615,5.25615,0,0,0-3.05811.65381.3752.3752,0,0,1-.50879-.15039.34728.34728,0,0,1-.01275-.04163A9.11379,9.11379,0,0,0,46.749,14.124a7.22479,7.22479,0,0,0-2.5747.83252,7.38962,7.38962,0,0,0-2.45752,2.3291,26.1664,26.1664,0,0,0-3.56446,8.50489c-.01757.0874-1.75634,8.8667,1.09912,15.56885.50782,1.19238,1.17286,2.46289,1.17969,2.47558a13.68054,13.68054,0,0,0,1.99463,2.76318,14.25969,14.25969,0,0,0,1.28809,1.209,18.52629,18.52629,0,0,0,2.76806,1.939,7.05206,7.05206,0,0,0,.94043.55274,7.18205,7.18205,0,0,0,.83741.34033,6.59436,6.59436,0,0,0,2.89892.21875,7.45358,7.45358,0,0,0,1.731-.60107,11.1121,11.1121,0,0,0,1.0376-.52637c.24609-.1416.63623-.36524,1.06689-.67139a12.53539,12.53539,0,0,0,1.43066-1.23047,21.77489,21.77489,0,0,0,1.565-1.71649c.00506-.00561.00433-.01452.00976-.01983.02722-.02674.05121-.05677.07813-.08387.05682-.06964.11779-.13482.17382-.2052a.36319.36319,0,0,1,.07911-.0664,9.925,9.925,0,0,0,.79785-.96827,10.29783,10.29783,0,0,0,.69824-1.13916,32.81379,32.81379,0,0,0,1.69641-3.90911,1.43531,1.43531,0,0,1,1.47516-2.37934.36493.36493,0,0,1,.02863-.11c.1958-.40137.50146-1.07373.84423-2,0-.00049.08789-.24463.15625-.45069a8.27466,8.27466,0,0,0,.37745-2.32324,11.4108,11.4108,0,0,1,.29492-2.231c.08252-.33642.17187-.62109.25049-.87109C65.147,28.72852,65.2207,28.46094,65.06543,28.13916Zm-.91364-1.20752a28.24379,28.24379,0,0,0-.74652-4.87793,16.35823,16.35823,0,0,0-2.72363-6.62207,11.35684,11.35684,0,0,0-3.90576-3.3999A11.053,11.053,0,0,0,52.71545,10.84a17.95714,17.95714,0,0,1-.80371,2.65088,5.75488,5.75488,0,0,1,2.43738-.28046,6.86352,6.86352,0,0,1,4.03809,2.19482,12.45982,12.45982,0,0,1,2.97168,4.49707,20.71732,20.71732,0,0,1,1.5332,7.86231q.07617-.09082.16211-.17578A2.22932,2.22932,0,0,1,64.15179,26.93164ZM30.93573,58.3504a4.11729,4.11729,0,0,0,1.94513.19843,5.29206,5.29206,0,0,0,2.43506-1.22266,9.7196,9.7196,0,0,0,2.854-3.09375,10.92223,10.92223,0,0,0,1.228-4.97754,22.56035,22.56035,0,0,0-.5293-6.90973c-.10443-.22772-.2088-.46-.30761-.69183-2.94825-6.92041-1.21827-15.645-1.14307-16.01318A26.41441,26.41441,0,0,1,41.10449,16.853a8.19965,8.19965,0,0,1,2.70313-2.55078,8.005,8.005,0,0,1,2.82812-.91944,9.81519,9.81519,0,0,1,4.38672.33594q.32959-.77416.58106-1.57178c-2.44434-.45215-5.90625-.57177-8.61377,1.37891a15.97059,15.97059,0,0,0-2.96094,3.04492,18.51135,18.51135,0,0,0-2.98975,4.80371,21.23068,21.23068,0,0,0-1.25146,4.98584,48.85843,48.85843,0,0,0-.65088,5.083c-.02588.35742-.08789,1.3081-.1084,2.41064a37.10191,37.10191,0,0,0,.43506,6.102c.2041,1.55518.43506,3.31788.561,5.71631a22.23437,22.23437,0,0,1-.06982,4.42823,14.68078,14.68078,0,0,1-1.7666,5.29785,5.97408,5.97408,0,0,1-2.71387,2.81445A3.62735,3.62735,0,0,1,30.93573,58.3504ZM67.5835,43.21631a11.842,11.842,0,0,1,.06152-4.269l.04559-.17469a.3682.3682,0,0,1-.02411-.15539c.02344-.356.05762-.9336.08008-1.644.11084-3.51123.40576-12.83886-4.81738-21.69921-2.15967-3.66407-4.50147-5.98145-6.96-6.8877a10.22263,10.22263,0,0,0-2.866-.59821c-.01727.3888-.02093.77857-.06366,1.1651-.04254.386-.1051.769-.17261,1.15088a11.79152,11.79152,0,0,1,4.25562,1.2627,12.07115,12.07115,0,0,1,4.15771,3.61279A17.18469,17.18469,0,0,1,64.13379,21.875a29.10639,29.10639,0,0,1,.77637,5.09717c.00073.01208-.0044.02264-.00476.03454a1.73954,1.73954,0,0,1,.83581.80774,2.2083,2.2083,0,0,1-.07568,1.76563c-.07422.23633-.15918.50586-.23731.82471a9.42838,9.42838,0,0,0-.24524,1.63415c.2359,2.42346.34095,4.41406.338,5.24036-.00293.89746-.02051,1.229-.02149,1.24414l-.0166.38086a9.00415,9.00415,0,0,0-.00391,1.0166,15.10407,15.10407,0,0,0,1.45069,6.84717,10.88046,10.88046,0,0,0,.65185,1.04394,8.80741,8.80741,0,0,1,.52.82422,6.76128,6.76128,0,0,1,.40235.89307,9.66429,9.66429,0,0,1,.61078,2.84112,5.455,5.455,0,0,0,5.22955-5.10821,4.26925,4.26925,0,0,1-3.09131.65527,4.1864,4.1864,0,0,1-2.11719-1.1499A6.18586,6.18586,0,0,1,67.5835,43.21631ZM56.91748,6.4502A13.29615,13.29615,0,0,0,53.062,5.45575c.04553.527.08356,1.05469.08222,1.58374a10.978,10.978,0,0,1,3.08483.64313c2.62452.96728,5.09668,3.39355,7.34668,7.21045a38.24841,38.24841,0,0,1,4.95374,18.70245,47.39339,47.39339,0,0,0,.14294-5.22052,36.4,36.4,0,0,0-.83691-6.69873,22.80455,22.80455,0,0,0-3.11865-8.32568,20.724,20.724,0,0,0-4.1167-4.544A14.51344,14.51344,0,0,0,56.91748,6.4502ZM40.729,7.83472a16.1588,16.1588,0,0,1,1.55127-.65943,19.95134,19.95134,0,0,1,4.19287-.97119,24.41169,24.41169,0,0,1,5.88-.08276c-.01294-.25482-.00946-.5105-.03375-.76441a14.01146,14.01146,0,0,0-4.88379-.22461,15.31733,15.31733,0,0,0-4.77,1.53516A17.13579,17.13579,0,0,0,40.729,7.83472ZM27.44641,47.14221a5.209,5.209,0,0,0,1.72449-1.777c.5249-.937.6206-3.0913.60889-4.73339-.00782-1.04737-.0586-2.09571-.15186-3.1167A40.98933,40.98933,0,0,1,31.44287,22.77a22.63965,22.63965,0,0,1,.9043-2.31543c.00049-.001.2666-.57129.57324-1.13135a32.05618,32.05618,0,0,1,5.11035-6.105l.00714-.00287a13.58655,13.58655,0,0,1,4.35663-3.629A14.50861,14.50861,0,0,1,52.31494,8.52c.04883-.54651.07526-1.09418.07153-1.64331a23.65771,23.65771,0,0,0-5.81176.07056,19.27765,19.27765,0,0,0-4.03955.9331,16.42773,16.42773,0,0,0-5.8833,3.74072c-.01081.0105-.0271.00678-.03876.01569a31.16325,31.16325,0,0,0-2.31525,3.26166c-.30615.48828-.5957.936-.85791,1.34179-.37939.58692-.70117,1.0835-.92969,1.48389a39.57431,39.57431,0,0,0-4.73974,15.25781,21.14174,21.14174,0,0,0-.09033,3.15332c.02392.63135.06543,1.14112.104,1.61084A12.956,12.956,0,0,1,27.77,40.83154a5.398,5.398,0,0,1-.75049,2.38477,4.20015,4.20015,0,0,1-2.38721,1.5166,6.19016,6.19016,0,0,0,2.81409,2.4093ZM25.626,54.5791c.11474.044.21484.07422.28466.09375l.00318.00165.00708-.00165a6.15343,6.15343,0,0,0,3.85937-1.335,6.51714,6.51714,0,0,0,2.0127-4.01318,65.98931,65.98931,0,0,0,.62012-11.09326,78.8227,78.8227,0,0,1,.92334-14.28711,24.991,24.991,0,0,1,2.24688-6.99518,19.08863,19.08863,0,0,0-2.0047,2.73443c-.29394.53662-.5498,1.084-.55127,1.08741a21.771,21.771,0,0,0-.87451,2.24121,40.13454,40.13454,0,0,0-1.77783,14.436c.09473,1.04053.147,2.10987.15479,3.17774.02783,3.79882-.52344,4.78271-.70459,5.106a6.064,6.064,0,0,1-2.25812,2.23066,5.89943,5.89943,0,0,1-2.32538,2.13653,5.97915,5.97915,0,0,1-2.41455.64258,7.454,7.454,0,0,0,1.28223,2.63135A3.649,3.649,0,0,0,25.626,54.5791ZM17.77106,84.29h9.28906l-.08746-22.00781a.37467.37467,0,0,1,.50537-.35352l3.375,1.25-.41822-4.2157a6.24669,6.24669,0,0,1-1.15026-.60333,5.39734,5.39734,0,0,1-3.48731-2.585c-1.63458.91406-4.35358,2.77026-5.39294,5.47333A23.77258,23.77258,0,0,0,19.332,65.832c-.09228.66992-.1543,1.27246-.1958,1.832a41.68142,41.68142,0,0,0-.1001,4.30469l.00489.16406C19.0459,72.24353,19.04828,72.32355,17.77106,84.29Z"></path></g></svg>