<svg height='100px' width='100px'  fill="#000000" xmlns="http://www.w3.org/2000/svg" xmlns:xlink="http://www.w3.org/1999/xlink" version="1.1" x="0px" y="0px" viewBox="0 0 101 101" style="enable-background:new 0 0 101 101;" xml:space="preserve"><path d="M85.008,10.226c-1.209-1.846-4.063-1.368-4.342-1.318l-40.718,5.247c-0.164-0.817-0.636-1.577-2.033-1.577  c-0.784,0-1.32,0.135-1.678,0.286c-0.417-0.153-0.885-0.205-1.369-0.133c-1.424,0.214-3.627,1.069-3.859,2.549  c-0.186,1.185,0.065,2.799,0.088,2.946c0.015,0.165,0.301,3.303,0.497,6.533c0.198,3.273,1.681,6.048,3.376,6.316  c0.449,0.071,0.798,0.117,1.071,0.148l-0.149,0.845c-0.047,0.267,0.127,0.522,0.392,0.577l1.512,0.309  c-0.494,1.779-2.046,7.559-2.046,10.011c0,2.038,0.119,2.811,0.246,3.139l0.054,1.18c-0.197,0.589-0.835,2.966-0.437,8.138  c0.474,6.165,2.129,12.174,3.055,14.822c0.012,3.623,0.732,20.503,0.74,20.674c0.006,0.135,0.066,0.262,0.167,0.352  c0.092,0.082,0.21,0.127,0.333,0.127c0.012,0,0.023,0,0.035-0.001l0.773-0.054c-0.389,0.661-0.857,1.823-0.772,3.542  c0.013,0.266,0.233,0.475,0.5,0.475h5.305c0.254,0,0.468-0.191,0.497-0.444c0.205-1.815-0.259-3.173-0.616-3.916l0.93-0.065  c0.269-0.019,0.475-0.247,0.465-0.517c-0.006-0.179-0.518-14.941-0.691-21.622c0.842,2.106,2.085,4.953,3.287,6.722  c2.038,3.001,8.266,12.207,8.266,12.207c0.084,0.124,0.22,0.204,0.369,0.218c0.145,0.014,0.297-0.041,0.402-0.148l0.513-0.523  c0.171,0.389,0.361,0.738,0.512,1.015c0.405,0.74,0.242,1.579,0.053,2.55c-0.116,0.597-0.236,1.214-0.236,1.871  c0,1.817,0.813,3.104,0.848,3.158c0.092,0.144,0.25,0.23,0.421,0.23h2.548c0.152,0,0.295-0.069,0.39-0.187  c0.064-0.08,1.566-1.982,1.566-4.562c0-1.496-0.43-2.599-0.81-3.571c-0.26-0.667-0.506-1.297-0.568-1.962  c-0.095-1.014-0.464-1.827-1-2.342l0.514-0.525c0.163-0.166,0.19-0.422,0.065-0.618l-9.846-15.484  c0.302-1.134,1.643-6.312,1.667-8.876c1.961-7.064-0.024-10.951-0.69-11.991l0.088-0.962c0.159-0.595,2.169-8.353,1.042-15.162  c-0.345-2.082-1.245-3.385-1.599-3.831l0.022-0.413c0.157-0.051,0.288-0.127,0.391-0.227c0.045-0.044,0.082-0.097,0.107-0.155  c0.086-0.196,1.527-3.526,1.379-6.466c-0.049-1.916-0.791-4.196-3.337-4.991c-0.23-0.072-0.455-0.118-0.679-0.162l28.334-3.651  c0.205,0.862,0.725,2.717,1.625,3.771c0.723,0.846,1.538,1.328,2.296,1.357c0.488,0.025,0.944-0.154,1.278-0.489  C86.391,13.757,86.172,12.001,85.008,10.226z M84.845,13.889c-0.139,0.139-0.317,0.212-0.532,0.197  c-0.469-0.019-1.043-0.386-1.574-1.008c-0.724-0.847-1.184-2.424-1.385-3.244c0.768-0.056,2.198-0.008,2.818,0.939  C85.111,12.206,85.252,13.482,84.845,13.889z M54.295,57.899c0,2.664-1.673,8.835-1.69,8.897c-0.037,0.136-0.015,0.281,0.061,0.399  l9.751,15.335l-0.41,0.419c-0.171-0.047-0.347-0.079-0.532-0.079c-0.44,0-0.9,0.14-1.367,0.415c-1.34,0.789-1.514,1.896-1.295,2.922  l-0.443,0.452c-1.332-1.968-6.174-9.124-7.924-11.702c-1.802-2.654-3.788-8.067-4.143-9.053c1.321-4.283,1.375-10.009,1.377-10.253  c0.002-0.276-0.221-0.501-0.497-0.503c-0.312-0.014-0.502,0.22-0.503,0.497c0,0.059-0.055,5.958-1.379,10.114  c-0.018,0.054-0.026,0.111-0.025,0.168c0.002,2.765,0.621,20.843,0.731,24.044l-5.623,0.393c-0.122-2.894-0.717-17.127-0.717-20.204  c0-0.057-0.01-0.113-0.028-0.167c-0.904-2.558-2.559-8.521-3.029-14.646c-0.371-4.825,0.192-7.105,0.367-7.677  c0.635-0.35,3.276-1.671,7.318-1.955c3.746-0.262,8.42,0.553,9.426,0.74c0.485,0.749,2.516,4.45,0.594,11.31  C54.302,57.808,54.295,57.854,54.295,57.899z M62.898,85.907c0.075,0.804,0.346,1.498,0.632,2.232  c0.364,0.934,0.741,1.9,0.741,3.208c0,1.792-0.871,3.248-1.212,3.749h-1.999c-0.199-0.396-0.563-1.272-0.563-2.388  c0-0.561,0.111-1.129,0.218-1.68c0.207-1.064,0.421-2.166-0.158-3.222c-0.951-1.737-1.247-2.892,0.058-3.661  c0.312-0.183,0.601-0.276,0.86-0.276C62.322,83.87,62.806,84.926,62.898,85.907z M40.933,94.359  c0.033-1.999,0.923-2.922,0.967-2.965c0.042-0.042,0.071-0.091,0.095-0.141l2.543-0.177c0.216,0.361,0.83,1.547,0.748,3.284H40.933z   M53.834,44.322c-1.299-0.305-4.954-1.047-8.84-0.776c-4.119,0.289-6.994,1.273-8.152,1.736c-0.046-0.387-0.093-1.079-0.093-2.316  c0-2.715,2.132-10.181,2.153-10.256c0.039-0.134,0.02-0.278-0.053-0.397s-0.191-0.203-0.328-0.23l-1.562-0.319l1.153-6.534  l9.442-0.49c0.17-0.009,0.325-0.104,0.409-0.253l0.096-0.17c0.773-0.042,3.193-0.077,5.111,1.016l-0.045,0.833  c-0.007,0.134,0.041,0.267,0.132,0.366c0.011,0.012,1.118,1.238,1.49,3.484C55.706,35.803,54.266,42.52,53.834,44.322z   M31.997,15.436c0.121-0.772,1.659-1.51,3.02-1.714c0.595-0.088,1.153,0.104,1.478,0.495c0.16,0.193,0.246,0.425,0.271,0.679  c-0.013,0.056-0.02,0.115-0.013,0.176c0.003,0.019,0.013,0.035,0.017,0.053c-0.004,0.069-0.006,0.138-0.019,0.21  c-0.174,0.937-1.366,2.089-1.967,2.587l-2.75-0.222C31.969,17.163,31.881,16.172,31.997,15.436z M37.915,13.579  c0.614,0,0.906,0.161,1.035,0.705l-1.247,0.161c-0.078-0.301-0.217-0.58-0.413-0.826C37.468,13.594,37.674,13.579,37.915,13.579z   M54.97,19.944c-4.622-1.031-6.83-2.385-7.536-2.892c0.337-0.748,1.378-2.565,3.52-2.565c0.453,0,0.94,0.08,1.447,0.238  C55.241,15.612,55.13,18.725,54.97,19.944z M46.611,22.145l0.783-3.642c0.017-0.081,0.05-0.155,0.074-0.233  c0.133,0.081,0.279,0.166,0.443,0.256c-0.046,0.319-0.042,0.637,0.057,0.943c0.196,0.611,0.662,1.113,1.311,1.414  c0.535,0.248,0.811,0.453,0.26,1.788c-0.068,0.164-0.107,0.391-0.064,0.65c-0.998-0.062-1.708,0.012-1.772,0.019  c-0.16,0.018-0.301,0.111-0.38,0.25l-0.093,0.164l-0.48,0.025C46.559,23.26,46.491,22.703,46.611,22.145z M53.845,24.573  c-1.034-0.631-2.183-0.959-3.21-1.122c-0.034-0.039-0.078-0.078-0.104-0.117c-0.114-0.171-0.083-0.248-0.069-0.281  c0.491-1.187,0.737-2.382-0.763-3.077c-0.393-0.182-0.669-0.471-0.779-0.812c-0.015-0.046-0.019-0.094-0.028-0.142  c1.322,0.615,3.266,1.325,6.004,1.926C54.617,22.555,54.07,24.013,53.845,24.573z M47.678,14.928  c-0.523,0.54-0.902,1.141-1.136,1.659c-0.556-0.221-1.357-0.655-1.29-1.195c0.006-0.041,0.082-0.146,0.324-0.256  C46.08,14.905,46.879,14.831,47.678,14.928z M39.039,15.379c0,0.942-0.996,1.999-1.38,2.326c-0.107,0.091-0.172,0.225-0.176,0.365  c-0.002,0.092-0.066,2.275,0.247,3.803c0.153,0.75,0.323,1.646,0.455,2.351l-0.521,0.027c-0.147,0.008-0.273,0.083-0.36,0.193  c-0.352-0.737-0.779-1.628-1.167-2.435c-0.631-1.312-0.696-2.801-0.697-3.333c0.554-0.46,2.042-1.801,2.295-3.16  c0.004-0.023,0.002-0.046,0.006-0.069l1.297-0.167C39.037,15.316,39.039,15.343,39.039,15.379z M34.443,18.898  c0.02,0.739,0.147,2.2,0.793,3.545c0.636,1.324,1.387,2.895,1.72,3.592l-0.742,4.203c-0.262-0.029-0.618-0.074-1.088-0.149  c-0.911-0.145-2.338-2.147-2.535-5.39c-0.15-2.476-0.353-4.902-0.448-5.987L34.443,18.898z M46.58,17.657  c0.009,0.008,0.017,0.014,0.028,0.024c-0.078,0.197-0.147,0.4-0.193,0.612l-0.783,3.641c-0.139,0.646-0.09,1.289,0.086,1.899  l-6.527,0.339c-0.135-0.728-0.318-1.694-0.482-2.499c-0.236-1.153-0.238-2.789-0.231-3.363c0.44-0.42,1.561-1.617,1.561-2.931  c0-0.071-0.002-0.151-0.002-0.227l4.625-0.596c-0.257,0.236-0.368,0.489-0.4,0.697C44.1,16.566,45.57,17.356,46.58,17.657z   M48.72,14.113c-0.074-0.021-0.15-0.033-0.224-0.051l0.403-0.052C48.838,14.043,48.779,14.078,48.72,14.113z"></path></svg>