<svg height='100px' width='100px'  fill="#000000" xmlns="http://www.w3.org/2000/svg" xmlns:xlink="http://www.w3.org/1999/xlink" version="1.1" x="0px" y="0px" viewBox="0 0 100 100" style="enable-background:new 0 0 100 100;" xml:space="preserve"><style type="text/css">
	.st0{fill:#000000;}
</style><path class="st0" d="M28.3,94.6h36c1.3,0,2.3-1,2.3-2.3V51.5H26v40.9C26,93.6,27,94.6,28.3,94.6z M54,60.1c0-1.3,1.1-2.4,2.4-2.4  c1.3,0,2.4,1.1,2.4,2.4v25c0,1.3-1.1,2.4-2.4,2.4c-1.3,0-2.4-1.1-2.4-2.4V60.1z M43.9,60.1c0-1.3,1.1-2.4,2.4-2.4  c1.3,0,2.4,1.1,2.4,2.4v25c0,1.3-1.1,2.4-2.4,2.4c-1.3,0-2.4-1.1-2.4-2.4V60.1z M33.9,60.1c0-1.3,1.1-2.4,2.4-2.4s2.4,1.1,2.4,2.4  v25c0,1.3-1.1,2.4-2.4,2.4s-2.4-1.1-2.4-2.4V60.1z M75.8,34.7L71.7,29l0.9-0.7c2.5-1.8,3-5.3,1.2-7.8L67.6,12  c-1.8-2.5-5.3-3-7.8-1.2l-0.9,0.7l-4.2-5.7c-0.9-1.2-2.5-1.4-3.7-0.6l-5.6,4.1l24.3,33.3l5.6-4.1C76.5,37.6,76.7,35.9,75.8,34.7z   M69.4,25.9l-8.3-11.4l0.9-0.7c0.8-0.6,1.9-0.4,2.5,0.4l6.2,8.5c0.6,0.8,0.4,1.9-0.4,2.5L69.4,25.9z"></path><path class="st0" d="M39.3,50c0-0.4,0-0.4-0.4-1.3c-0.2-0.8,0.2-1,0.5-0.8c0.7,0.5,0.9,1.6,1.3,2.1c0.1,0.1,0.3,0.1,0.4,0.2h2.2  c0.2-0.3,0.3-0.5,0.2-1c-0.1-0.6-1.7-4.2-1.7-4.9c0-0.7,0.3-0.9,0.8-0.7s1.4,3.9,1.9,4.8c0.4,0.9,0.5,1.2,1,1.6  c0.6,0.3,1.6-0.2,2.2-0.6c0.6-0.5,0.4-1.7,0.3-2.1c-0.2-0.8-1.7-4-1.7-4.5c-0.3-0.9,0.4-1.2,0.7-1c0.5,0.1,1.7,3.8,2,4.6  c0.4,0.9,0.6,1.4,1.2,1.6c0.5,0.4,1.4-0.2,2-0.8c0.6-0.7,0-3.5-0.3-4.4c-0.3-0.8-1.6-4.3-2.2-5.3c-1.2-2.2-3.3-5.9-3.9-6.8  c-0.5-0.6-1.6-1.6-2.4-1.3c-0.7,0.2-2.7,1.6-4.1,2.2c-1.4,0.4-3.3,0.1-4.1-1.2c-0.7-1.4-0.3-2.9,0.4-3.2c1.8-0.9,2.6-2.2,3.2-2.9  c0.7-0.6,1.7-1.1,2.2-1.3c0.7-0.2,2.9,0.2,3.3-0.1c0.3-0.1-0.6-1-1.6-1.6c-0.9-0.4-3,0-3.4,0.1c-2.1,0.4-3.5-0.1-4.3-0.4  c-0.8-0.4-1.4-1.1-2.4-2.2c-1-1-4.5,1.2-6.9,3.5c-2.4,2.3-4.3,5.8-3.5,6.3c0.5,0.9,1.9,2.1,2.6,3.2c0.2,0.4,0.9,1.6,0.9,1.6  s1.6,0.2,2.8,1c1.5,0.9,0.5,3.6,1.2,3c1.1-0.9,3-0.8,4,0.1c2,1.6,0,3.1,0.4,3.5c0.4,0.3,2.5-0.4,3.4,1.3c1.1,2.1-1.5,2.9-1.4,3.6  c0,0.6,0.3,0.4,0.6,1.3c0.3,1.5-0.3,1.9-0.7,2.1c-0.2,0.1-0.1,0.5,0,0.9h3.1C39.3,50.1,39.3,50.1,39.3,50z"></path><path class="st0" d="M41.4,25.1c-0.9,0.3-2.4,2.3-2.6,2.5c-0.1,0.2-2.2,1.3-2.2,1.3s-0.2,0.3,0.4,1c0.6,0.8,1.1,0.9,1.8,0.8  c1.8-0.3,2.5-1.3,3.3-1.6c0.9-0.5,1.8-3.1,1.8-3.1c0.7,0.3-0.2,2.8,0.9,2.6c0.9-0.3,2,0.4,3.5,2.7c1.6,2.2,3.2,5.4,4.6,8.4  c0.4,0.7,2.3,1.8,3.9,2.1c-1.6,0.5-3.1,0.2-2.6,1c1.1,2.4,0.4,3.5,0.7,3.3c0.7-0.4,3.8-0.6,4.2-0.6c0.4-0.1,2.3-4,2.2-6  c-0.1-2.4-0.2-4-0.7-5.6c-0.5-1.6-1.5-2.7-1.8-2.6c-0.3,0.1-3.8-0.1-4.5-0.6c-0.8-0.4-4.2-3.8-4.7-4.3c-0.6-0.4-1.8-0.7-2.2-0.9  C47.1,25.2,42.2,24.8,41.4,25.1z"></path><path class="st0" d="M32.6,50.2c1-0.2,1.5-0.3,2-0.7c0.4-0.3,1-1.6,0.6-2.3c-0.4-0.7-1.1-0.5-1.8-0.6c-0.6,0.1,1-0.5,1.8-1.2  c0.8-0.7,1-1.6,0.5-2.5c-0.6-0.8-2.4-1.1-3.7-0.3c-0.7,0.4-0.8-0.4-0.4-0.7c1-0.6,1.2-1.9,0-3c-1.1-1.1-2.2-0.6-3.6,0.4  c-0.8,0.6-0.8-0.1-0.5-0.5c0.7-0.9,0.6-2.2,0-2.9c-1-1.3-2.4-1-3.4-0.6c-1.4,0.7-1.9,2.1-1.2,3.8c0.9,2.2,2.9,0.2,3.2,0.7  c0.3,0.5-2.5,0.7-1.2,3.2c1.1,2.1,3.1,0.9,3.2,1.1c0.1,0.1-1.5,0.8-0.8,2.2c0.9,1.8,2.4,0.7,2.5,1c0,0.3-1.3,0.6-0.7,2  c0.2,0.5,0.7,0.8,1.3,0.9h1.6C32.3,50.2,32.5,50.2,32.6,50.2z"></path></svg>