<svg height='100px' width='100px'  fill="#000000" xmlns="http://www.w3.org/2000/svg" xmlns:xlink="http://www.w3.org/1999/xlink" version="1.1" x="0px" y="0px" viewBox="0 0 75 75" style="enable-background:new 0 0 75 75;" xml:space="preserve"><g transform="scale(1 -1)"><g transform="translate(0 -75)"><g><path marker-start="none" marker-end="none" d="M17.3,9.6c-8,14.4-5.7,30.8-7.7,46.5c-3.1-0.4-6.4-3-8,0.7     c-1.3,2.9-0.1,6.4,2.7,7.8c1.4,0.7,3,0.5,4.5,0.6c2.6,0,5.1,0.1,7.7,0.2c5.1,0.2,10.2,0.4,15.3,0.8c2.5,0.2,5.1,0.4,7.6,0.7     c1.8,0.2,3.4,0.5,5-0.4c2.4-1.4,3.5-4.6,4.3-7.1c1.1-3.4,1.9-6.9,1.8-10.5c-0.1-3.2-0.5-6.3-0.4-9.4c4.1,3.9,9.2,6.6,14.6,8.4     c1.8,0.6,6.1,2.4,8,1.8c2-0.7,0.1-3-0.6-4.3c-2.6-4.8-6.3-9-10.6-12.4c-1.9-1.5-4-2.9-6.1-4.1c-0.7-0.4-4.2-1.5-4.7-2.3     C50,25.6,51.6,22,52,21c0.5-1.4,1.3-3.5,2.8-3.8c2.2-0.4,4.9,1.7,7.2,1.5c1.9-0.2,1.2-2.4,0.6-3.8c-0.9-2-2.5-3.5-4.5-3.9     c-2.4-0.5-5-0.9-7.4-1.3c-9.3-1.7-18.7-3-28.2-4.1l0.1,0.1C21.1,3.8,17.8,8.7,17.3,9.6z M21.2,7.2c1.1,0,1.9,0.5,2.7,1.3     c1.1,1.1,1.2,3.1,2.4,3.9c0.6,0.4,2.5,0.4,3.2,0.5c1.1,0.2,2.1,0.3,3.2,0.5c2.5,0.4,4.9,0.8,7.4,1.2c4.2,0.7,8.4,1.5,12.6,2.2     c-2.1,2.3-3,6.1-3.6,9.2c-1.3-0.6-2.7-1-4.1-1.5c-1.7-0.6-1.9-1.3-2.9-3c-0.7-1.2-1.3-2.3-1.8-3.5c-0.6-1.4-0.6-1.5-1.8-1.5     c0.3,0-0.8,0.3-0.7,0.3c-0.7,0.2-1.3-0.3-1.6,0.8c-0.7-1.5-2-1.5-2.5,0c-1.2-2.2-2.3-1.3-3.2,0.7c-0.8-0.6-0.2-2.2-1-2.6     c-1.9-0.8-0.9,1.6-0.9,2.5c0.1,3.3-2,1.1-2.2-1.1c1.2,0.8,2-0.9,1.1-1.7c-1.5-1.4-2.6,0.9-2.5,2.2c0.2,2.5,4,6.2,5,2.1     c1.3,0.7,1.9-0.6,2.3-1.6c0.9,1.4,2.2,3,2.8,0.4c1.3,2.2,2.4-0.8,3.7,0c0.8,0.5,1.5,2.9,2,3.8c0.4,0.6,1.1,1.5,1.3,2.2     c0.2,0.9-0.1,2,0.1,2.9c0.2,1.1,0.6,2.1,1.1,3.1c0.9,1.9,2,3.7,3.3,5.3c0.5,0.7,1.8,1.6,2.1,2.4c0.3,0.9,0,2.7,0,3.6     c0,1.7,0.2,3.4,0.3,5c0.2,3.6,0,6.9-1,10.4c-0.7,2.7-1.8,7.3-4.7,8.4c-1.7,0.6-4-0.1-5.8-0.2c-2.5-0.2-5.1-0.4-7.6-0.6     c-7-0.5-14.1-0.7-21.1-0.8c2.9-3.7,2.6-9.6,2.9-14c0.3-5.3,0.4-10.7,0.9-16c0.4-4.9,1.1-9.8,2.5-14.5     C16.1,15.5,17.7,9.4,21.2,7.2z M24.7,7.3C30.3,8,35.9,8.7,41.4,9.6c4.9,0.8,9.7,1.6,14.5,2.6c2.7,0.5,5.5,1.3,5.6,4.9     c-6.3-1.3-12.5-2.5-18.8-3.6c-4.3-0.7-8.7-1.4-13-2c-0.8-0.1-2.3-0.1-2.9-0.5c-0.4-0.3-0.9-2.1-1.3-2.6C25.3,7.9,25,7.6,24.7,7.3     z M26.7,24.6l-1,1.7c-1-2.9-2.8-0.5-1,1.2c1.2,1.1,2.1,0.1,2.7-1.1c0.9,1.2,2.8,2.7,3.2,0.1c0.9,0.3,0.9,1.8,1.8,2.2     c1.9,0.9,1.1-1.2,2.2-1.5c0.9-0.3,1.1,1.4,1.7,1.8c1.2,0.7,2.1-0.3,2.2-1.5c0.4,0.5,0.7,1.3,1.2,1.6c1.2,0.6,1.3-0.1,1-1.1     c-0.6-1.6-3.2-3.2-3.7-0.6c-0.9-1.8-3.2-2.4-4-0.2c-0.8-1.2-3.1-3.7-3.8-1C28.8,25.6,27.5,23.3,26.7,24.6z M45.2,26     C56.3,30,66.7,36.9,71.7,48c-7.3-1.2-14.6-4.2-20.1-9.2c-3.4-3.1-7.5-7.7-8-12.5c1.9,2.7,4.1,5.3,6.6,7.6c1.6,1.5,3.3,2.9,5,4.2     c0.9,0.7,3.9,3.3,5,3.1c2.3-0.6-1.2-2.3-2-2.8c-1.9-1.2-3.6-2.5-5.3-4C50,31.9,47.3,29.1,45.2,26z M22.5,30.9     c-1.8,0.6,1.9,5.5,2.7,2.3C26.4,35,27,35,28,33.2c0.9,1.1,2.6,4.1,3.6,1c0.4,0.4,0.8,1.3,1.4,1.5c1.6,0.5,1.1-1,1.9-1.5     c0.8,0.1,1.1,1.4,1.8,1.7c1.3,0.7,1.5-0.2,1.9-1.3c1,1.4,2.2,2.6,2.8,0.2c0.4-0.1,2.7,2,1.9-0.4c-0.4-1.3-2.6-1.5-3.3-0.3     c-1.2-1.6-2-2.2-2.9,0.2c-0.8-1.3-3.3-2.4-3.8-0.3c-0.8-1.1-2.4-2.3-3.1-0.4c-1.1-1.6-2.5-3.6-3.6-1c-0.9-1.3-2.1-2.6-2.7-0.3     C23.7,31.8,23.3,30.7,22.5,30.9z M21.5,38.8c0.2,1.2,1.4,3.9,2.7,1.8c1.2,1.8,1.8,2.2,2.9,0.1c0.9,1.3,2.8,4,3.3,0.7     c0.3,0.5,1,1.7,1.5,2c1.4,0.7,1.4-0.7,1.9-1.8c1.2,1.4,2.5,3.2,3.2,0.4c1,0.8,2.5,2.2,2.9,0c1.1,1.6,2.8,0.9,1.2-0.9     c-0.8-0.9-2.4-1.6-2.6,0.2c-0.7-0.9-2.5-1.2-2.9,0.2c-1-1.3-2.6-2.3-3.4-0.1c-0.8-1.1-2.4-2.6-3.2-0.5c-0.9-1.3-2.4-3.1-3.3-0.7     c-0.5-0.8-2-3-2.6-0.9C22.9,38.3,21.2,37.2,21.5,38.8z M22,45.7c-0.6,0.6-0.3,1.3-0.7,1.9c-0.5-0.5-0.6-1.9-1.6-1.8     c-1.1,0.2-0.4,1.5-0.1,2c0.8,1.5,2.8,2,3.2,0c0.9,1,2,2.6,3,0.6c1.1,1.4,2,2.3,2.9,0.2c0.8,0.9,2.7,3.3,3.1,0.5     c1.1,1.1,2.7,2.9,3.1,0.2c0.4,0.4,0.8,1,1.3,1.2c1.1,0.7,0.7,0.2,1.5-0.2c0.3-0.2-0.3-0.6,0.4-0.7c0.5-0.1,0.6,0.8,1,0.8     c1.4,0.2,0.7,0,1.5-1.1c0.9,1.6,2.6-1.8-0.5-1.4c-0.5,0.1-0.7,0.4-1.2,0.4c-1,0.1-1.6-0.4-2.4,0.6c-0.9-0.8-2.7-2.2-3.2-0.2     c-0.8-0.8-2.6-2.4-3.1-0.4c-0.9-1-2.3-2.4-3.1-0.4c-1.1-1.4-1.6-2.3-2.8-0.5C24.2,47,22.8,44.8,22,45.7z M18.6,53.4     c-0.3,0.7-0.5,1.3-0.7,2c-0.3-0.5-0.4-1.8-1.1-2c-1.6-0.3-0.6,2-0.3,2.6c1.6,2.7,2.3,1,3-0.9c0.9,1,2.5,2.7,3.3,0.5     c0.8,1.1,2.7,2.9,3.2,0.5c0.4,0.4,0.8,1.3,1.4,1.5c1.4,0.5,0.8-0.7,1.6-1.3c0.6,0.4,1.2,1.8,2.1,1.8c1,0,1-1.3,1.6-1.7     c0.6,0.4,1.1,1.6,1.8,1.8c1.5,0.5,0.7-0.6,1.5-1.2c1.3-0.9,1.1,0.5,2,0.7c1,0.2,0.8-0.3,1.5-0.9c0.4-0.4,1.5-0.2,0.9-1.2     c-0.6-0.9-1.3,0.1-1.9,0.1c-1.4-0.1-2.5-1.2-3.7,0.5c-1.2-1.2-2.6-2.2-3.7-0.1c-0.9-1-2.3-2.3-3.4-0.6c-0.7-1.1-2.5-1.6-3-0.1     c-0.9-1.2-2.4-2.8-3.2-0.5C21.1,54.6,19.2,51.9,18.6,53.4z M3.8,56.2c1.8,0.7,3.7,1.2,5.6,1.3c-0.3,2.4-1.8,8-5.2,5.3     C2.2,61.3,2,58,3.8,56.2z"></path></g></g></g></svg>