<svg height='100px' width='100px'  fill="#000000" xmlns="http://www.w3.org/2000/svg" xmlns:xlink="http://www.w3.org/1999/xlink" version="1.1" x="0px" y="0px" viewBox="0 0 67 67" enable-background="new 0 0 67 67" xml:space="preserve"><g><path d="M20.29501,34.32498h-1.88c0.0401-3.98168-2.46327-9.69983-3.82001-13c-1.76837-0.10353-6.04136-0.13434-8.07001-1.84998   l-0.95996-0.79999C4.45143,20.8315,1.78539,25.9894,1.595,28.75504v20.88995h1.45001l1.63,7.17004   c0.20996,0.91998,0.31,1.87994,0.31,2.83997v4.46002h9.42999V40.75504l5.88-1.73004V34.32498z"></path><path d="M35.56503,36.61819v-4.30316l1.82996,0.89996l0.88-1.79999l-5.5-2.69c0.82654-2.41595-1.01776-4.87-3.5-4.87   c-2.02997,0-3.67999,1.65002-3.67999,3.67999c0,2.03003,1.65002,3.67999,3.67999,3.67999   c0.90002,0,1.73999-0.29999,2.34003-0.83997l1.95001,0.95996v5.87189c-5.71259,1.68146-11.6485,3.42871-17.15002,5.04816v22.90997   h0.02997l1.02002-0.04999l0.31-0.02002l0.98999-0.04999c2.02002-0.10004,6.98004-0.34003,18.59003-0.91998l0.95001-0.04004   V37.88498l1.22998-0.35999l-0.46002-1.94C37.9238,35.92386,36.74875,36.26974,35.56503,36.61819z"></path><path d="M56.13498,16.54502v-10.88c0-1.78003-1.44-3.22998-3.22998-3.22998H36.16501c-1.78003,0-3.22998,1.44995-3.22998,3.22998   v8.31l-6.18005,5.81H52.905C54.69498,19.78501,56.13498,18.33499,56.13498,16.54502z M49.44321,15.47928H37.58432v-2h11.85889   V15.47928z M49.93149,12.10721h-2.23242v-2h2.23242V12.10721z M51.6058,8.43338H37.30551v-2H51.6058V8.43338z"></path><rect x="38.14243" y="21.35623" width="12.83545" height="2"></rect><path d="M54.49496,23.06522c0.40328-0.40431,0.39437-1.02656,0-1.41992c-0.37012-0.37012-1.04004-0.37012-1.41016,0   c-0.37431,0.37334-0.39941,1.01948,0,1.41992C53.50486,23.46259,54.11895,23.44021,54.49496,23.06522z"></path><path d="M45.18503,49.69498c3.10999,0,5.54999-3.03998,5.54999-6.91998c0-3.78998-2.48999-6.88-5.54999-6.88   c-3.08002,0-5.58002,3.09003-5.58002,6.88C39.60501,46.595,42.10501,49.69498,45.18503,49.69498z"></path><path d="M51.24503,48.36502l-0.10004-0.07001c-1.35999,2.08002-3.51001,3.39996-5.95996,3.39996   c-1.86005,0-3.56-0.78998-4.88-2.09998v14.52002h13.83997V53.70499C54.14499,50.51498,51.36502,48.44498,51.24503,48.36502z"></path><path d="M5.19498,17.47501l-0.04999,0.90002c0.97313,0.23062,0.40318-0.27647,1.62,0.48999   c0.98999,0.60999,2.64001,1.63,4.91003,1.70996c0.07001,0.01001,0.14001,0.01001,0.21997,0.01001   c3.14001,0,5.90002-2.52997,6.21002-5.73999c0.19-2.01001-0.03003-4.04999-0.67999-6.08997   C17.785,8.47501,18.08499,8.155,18.32498,7.78501c1.11904-1.67857,0.62897-3.29734-0.13-4.98999l-0.87,0.32001   C15.14896,3.92581,12.57154,3.6474,10.155,1.83499c-0.10289,0.03557-5.07036,0.54673-6.46002,3.97003   c-1.25995,3.07996,0.84003,6.67999,1.5,7.70996V17.47501z M6.965,10.36502c0.38,0.17999,0.58002,1.02997,0.60004,1.42999l2-0.04999   c0-0.97003,0.20996-1.47003,0.40997-1.61005c0.19-0.12994,0.53998-0.02997,0.60999,0l0.17999,0.07001l0.19,0.01001   c1.88,0.04999,3.44-0.13,4.67004-0.52997c0.47998,1.66998,0.64996,3.33997,0.48999,4.95996   c-0.22003,2.25-2.17004,4.04004-4.37,3.94c-2.18979-0.08861-3.67055-1.3272-4.55005-1.78998v-3.91003l-0.19-0.25995   c-0.00995-0.02002-0.60999-0.88-1.09998-2.04004C6.57498,10.23502,6.87503,10.32498,6.965,10.36502z"></path><path d="M50.86331,32.64999c0,3.82001,2.5,6.91998,5.58002,6.91998c3.10999,0,5.54999-3.03998,5.54999-6.91998   c0-3.78998-2.48999-6.88-5.54999-6.88C53.36331,25.76999,50.86331,28.86002,50.86331,32.64999z"></path><path d="M62.50497,38.23502l-0.08997-0.07001c-1.35999,2.09003-3.51001,3.40997-5.97003,3.40997   c-1.47998,0-2.85999-0.5-4.02997-1.37c0,0.01001,0,0.01001,0,0.02002c0.54956,2.01495,0.34937,4.47943-0.34998,6.26001   l0.37,0.27002v0.00995c0.56,0.41003,3.70996,2.95001,3.70996,6.94v0.29004H65.405V43.57498   C65.405,40.38498,62.62503,38.31503,62.50497,38.23502z"></path></g></svg>