<svg height='100px' width='100px'  fill="#000000" xmlns="http://www.w3.org/2000/svg" xmlns:xlink="http://www.w3.org/1999/xlink" version="1.1" x="0px" y="0px" viewBox="0 0 64 64" style="enable-background:new 0 0 64 64;" xml:space="preserve"><title>Difference-vote-election-opinion-democracy-decide-disagreement-agree</title><polygon points="35,38 36.6,36.8 35,34.8 "></polygon><polygon points="39.3,40 37.9,38.3 35.5,40.1 37.1,41.7 "></polygon><rect x="26" y="56" width="13" height="6"></rect><path d="M40.6,41.6l-2,1.5l1.5,1.5l1-1c0.4-0.4,0.4-0.9,0.1-1.3L40.6,41.6z"></path><path d="M33,31c0-0.7-0.4-1.4-1-1.7v-9.3c4.4-0.6,7.5-4.6,6.9-8.9c-0.6-4.4-4.6-7.5-8.9-6.9s-7.5,4.6-6.9,8.9  c0.5,3.6,3.3,6.5,6.9,6.9v9.3c-0.6,0.4-1,1-1,1.7v8.2c0,0.8-0.3,1.6-0.9,2.1l-1.4,1.4l-1.4-1.4l1.4-1.4c0.2-0.2,0.3-0.4,0.3-0.7  v-3.8l-2.7,2.7c-0.2,0.2-0.3,0.4-0.3,0.7v6.6c0,0.2,0.1,0.4,0.2,0.6l3.8,5.7V54h9v-2.4l1.7-1.7c0.2-0.2,0.3-0.4,0.3-0.7v-2.8l-6-6  V31z M28,16.4l-2.7-2.7l1.4-1.4l1.3,1.3l6.3-6.3l1.4,1.4L28,16.4z"></path><polygon points="56,40.5 56.9,41 57.8,39.2 56,37.4 "></polygon><rect x="49" y="54" width="10" height="8"></rect><path d="M54,22.9c3.3-0.6,5.5-3.6,4.9-6.9s-3.6-5.5-6.9-4.9c-3.3,0.6-5.5,3.6-4.9,6.9c0.4,2.5,2.4,4.5,4.9,4.9v17.3  c0,0.8-0.3,1.6-0.9,2.1l-1.4,1.4l-1.4-1.4l1.4-1.4c0.2-0.2,0.3-0.4,0.3-0.7v-3.1l-2.6,2.2C47.1,39.4,47,39.7,47,40v4.6  c0,0.2,0.1,0.5,0.2,0.7l3.8,4.3V52h6v-2.5l2.6-1.7c0.3-0.2,0.4-0.5,0.4-0.8v-1.4l-6-4V22.9z M50.7,20.7l-1.4-1.4l2.3-2.3l-2.3-2.3  l1.4-1.4l2.3,2.3l2.3-2.3l1.4,1.4L54.4,17l2.3,2.3l-1.4,1.4L53,18.4L50.7,20.7z"></path><path d="M60.4,41.8l-1.1-1.1l-0.7,1.5l1.9,1.3l0.2-0.6C60.8,42.5,60.7,42.1,60.4,41.8z"></path><polygon points="13,40.5 13.9,41 14.8,39.2 13,37.4 "></polygon><path d="M11,22.9c3.3-0.6,5.5-3.6,4.9-6.9c-0.6-3.3-3.6-5.5-6.9-4.9c-3.3,0.6-5.5,3.6-4.9,6.9c0.4,2.5,2.4,4.5,4.9,4.9v17.3  c0,0.8-0.3,1.6-0.9,2.1l-1.4,1.4l-1.4-1.4l1.4-1.4C6.9,40.7,7,40.4,7,40.2v-3.1l-2.6,2.2C4.1,39.4,4,39.7,4,40v4.6  c0,0.2,0.1,0.5,0.2,0.7L8,49.6V52h6v-2.5l2.6-1.7c0.3-0.2,0.4-0.5,0.4-0.8v-1.4l-6-4V22.9z M7.7,20.7l-1.4-1.4L8.6,17l-2.3-2.3  l1.4-1.4l2.3,2.3l2.3-2.3l1.4,1.4L11.4,17l2.3,2.3l-1.4,1.4L10,18.4L7.7,20.7z"></path><path d="M16.3,40.7l-0.7,1.5l1.9,1.3l0.2-0.6c0.1-0.4,0-0.8-0.2-1L16.3,40.7z"></path><rect x="6" y="54" width="10" height="8"></rect></svg>