<svg height='100px' width='100px'  fill="#000000" xmlns:dc="http://purl.org/dc/elements/1.1/" xmlns:cc="http://creativecommons.org/ns#" xmlns:rdf="http://www.w3.org/1999/02/22-rdf-syntax-ns#" xmlns:svg="http://www.w3.org/2000/svg" xmlns="http://www.w3.org/2000/svg" xmlns:sodipodi="http://sodipodi.sourceforge.net/DTD/sodipodi-0.dtd" xmlns:inkscape="http://www.inkscape.org/namespaces/inkscape" viewBox="0 0 80 80" version="1.1" x="0px" y="0px"><path style="text-indent:0;text-transform:none;direction:ltr;block-progression:tb;baseline-shift:baseline;color:#000000;enable-background:accumulate;" d="m 40.025272,32.738241 c -4.066647,0.0215 -7.996495,0.674831 -11.801188,1.840284 -0.0093,0.0028 -0.0201,-0.0028 -0.02917,0 l -25.3550289,0 -0.4673738,0 0,0.467374 0,21.119454 0,0.467374 0.4673738,0 22.6092079,0 0.175265,0 0.116844,-0.116844 3.70978,-2.979508 22.171045,0 3.359249,2.979508 0.116843,0.116844 0.175266,0 22.433943,0 0.467373,0 0,-0.467374 0,-21.119454 0,-0.467374 -0.467373,0 -24.887656,0 c -4.403474,-1.27837 -8.676888,-1.862064 -12.794358,-1.840284 z m 0.02916,0.934747 c 4.023967,-0.02122 8.178696,0.555895 12.50225,1.811074 l 0.05842,0.02916 0.05842,0 24.566336,0 0,20.184706 -21.791304,0 -3.359249,-2.979508 -0.146054,-0.116843 -0.175265,0 -22.463154,0 -0.175265,0 -0.116844,0.08759 -3.73899,3.008719 -21.9665696,0 0,-20.184707 24.9168666,0 0.08759,0 0.05842,-0.02916 c 3.765482,-1.16779 7.660379,-1.789836 11.684346,-1.811074 z" fill="#000000" fill-opacity="1" stroke="none" marker="none" visibility="visible" display="inline" overflow="visible"></path><path style="text-indent:0;text-transform:none;direction:ltr;block-progression:tb;baseline-shift:baseline;color:#000000;enable-background:accumulate;" d="m 27.815131,36.360388 c -0.02739,0.0037 -0.0602,-0.0037 -0.08759,0 l -25.939247,0 0,0.934747 26.026879,0 0.02916,0 0.02916,0 c 7.295044,-1.577314 15.171893,-2.273913 24.946078,0 l 0.02916,0 0.02916,0 26.085301,0 0,-0.934747 -25.997669,0 c -0.03019,-0.0047 -0.05749,0.0047 -0.08759,0 -8.52206,-2.155157 -16.869301,-2.039105 -25.062802,0 z" fill="#000000" fill-opacity="1" stroke="none" marker="none" visibility="visible" display="inline" overflow="visible"></path><path style="text-indent:0;text-transform:none;direction:ltr;block-progression:tb;baseline-shift:baseline;color:#000000;enable-background:accumulate;" d="m 29.713838,38.521992 0,14.430166 0.934747,0 0,-14.430166 -0.934747,0 z" fill="#000000" fill-opacity="1" stroke="none" marker="none" visibility="visible" display="inline" overflow="visible"></path><path style="text-indent:0;text-transform:none;direction:ltr;block-progression:tb;baseline-shift:baseline;color:#000000;enable-background:accumulate;" d="m 39.996061,18.921501 0,0.817904 0,13.14489 0.934748,0 0,-8.529572 c 0.593555,0.268515 1.185241,0.547023 1.635808,0.555006 0.619224,0.01098 1.08928,-0.176088 1.489754,-0.321319 0.400474,-0.145232 0.727281,-0.267637 1.139224,-0.233687 0.411943,0.03393 0.943319,0.21029 1.752652,0.759482 l 0.730271,0.496585 0,-0.876326 0,-4.498473 0,-0.262898 -0.233686,-0.146055 c -1.388559,-0.809987 -2.562863,-0.467589 -3.563726,-0.204476 -1.000862,0.263114 -1.841845,0.474825 -3.183984,-0.292109 l -0.701061,-0.408952 z m 5.520854,1.31449 c 0.3786,-0.01411 0.781626,0.135174 1.226856,0.35053 l 0,3.446882 c -0.521543,-0.263757 -1.076465,-0.579366 -1.489754,-0.613428 -0.617934,-0.05094 -1.108751,0.143353 -1.518965,0.292109 -0.410214,0.148756 -0.743003,0.270441 -1.168435,0.262898 -0.390126,-0.0065 -0.924325,-0.191885 -1.635808,-0.584218 l 0,-3.037929 c 1.243149,0.465149 2.327194,0.400502 3.183984,0.175265 0.511513,-0.134473 0.952078,-0.275368 1.402122,-0.292109 z" fill="#000000" fill-opacity="1" stroke="none" marker="none" visibility="visible" display="inline" overflow="visible"></path><path style="" d="m 54.184212,40.1578 2.336869,0 0,4.50682 -2.336869,0 z" fill="#000000" stroke="none"></path><path style="" d="m 60.165475,40.1578 2.33687,0 0,4.50682 -2.33687,0 z" fill="#000000" stroke="none"></path><path style="" d="m 66.146804,40.1578 2.336869,0 0,4.50682 -2.336869,0 z" fill="#000000" stroke="none"></path><path style="" d="m 72.128067,40.1578 2.336869,0 0,4.50682 -2.336869,0 z" fill="#000000" stroke="none"></path><path style="" d="m 54.184212,47.752624 2.336869,0 0,4.506821 -2.336869,0 z" fill="#000000" stroke="none"></path><path style="" d="m 60.165475,47.752624 2.33687,0 0,4.506821 -2.33687,0 z" fill="#000000" stroke="none"></path><path style="" d="m 66.146804,47.752624 2.336869,0 0,4.506821 -2.336869,0 z" fill="#000000" stroke="none"></path><path style="" d="m 72.128067,47.752624 2.336869,0 0,4.506821 -2.336869,0 z" fill="#000000" stroke="none"></path><path style="" d="m 6.0280151,40.1578 2.3368691,0 0,4.50682 -2.3368691,0 z" fill="#000000" stroke="none"></path><path style="" d="m 12.009278,40.1578 2.336869,0 0,4.50682 -2.336869,0 z" fill="#000000" stroke="none"></path><path style="" d="m 17.990607,40.1578 2.336869,0 0,4.50682 -2.336869,0 z" fill="#000000" stroke="none"></path><path style="" d="m 23.97187,40.1578 2.336869,0 0,4.50682 -2.336869,0 z" fill="#000000" stroke="none"></path><path style="" d="m 6.0280151,47.752624 2.3368691,0 0,4.506821 -2.3368691,0 z" fill="#000000" stroke="none"></path><path style="" d="m 12.009278,47.752624 2.336869,0 0,4.506821 -2.336869,0 z" fill="#000000" stroke="none"></path><path style="" d="m 17.990607,47.752624 2.336869,0 0,4.506821 -2.336869,0 z" fill="#000000" stroke="none"></path><path style="" d="m 23.97187,47.752624 2.336869,0 0,4.506821 -2.336869,0 z" fill="#000000" stroke="none"></path><path style="text-indent:0;text-transform:none;direction:ltr;block-progression:tb;baseline-shift:baseline;color:#000000;enable-background:accumulate;" d="m 39.411844,37.295135 c -4.12076,0.05711 -7.944196,0.447296 -11.596713,0.99317 -0.02739,0.0037 -0.0602,-0.0037 -0.08759,0 l -24.9460776,0 0,0.934747 25.0337096,0 0.02916,0 0.02916,-0.02916 c 7.29478,-1.095692 15.171497,-1.549877 24.946078,0 l 0.02916,0.02916 0.02916,0 25.004499,0 0,-0.934747 -24.916867,0 c -0.03019,-0.0047 -0.05749,0.0047 -0.08759,0 -4.903733,-0.772298 -9.339924,-1.050386 -13.466208,-0.99317 z" fill="#000000" fill-opacity="1" stroke="none" marker="none" visibility="visible" display="inline" overflow="visible"></path><path style="text-indent:0;text-transform:none;direction:ltr;block-progression:tb;baseline-shift:baseline;color:#000000;enable-background:accumulate;" d="m 33.365195,38.259094 0,14.430166 0.934748,0 0,-14.430166 -0.934748,0 z" fill="#000000" fill-opacity="1" stroke="none" marker="none" visibility="visible" display="inline" overflow="visible"></path><path style="text-indent:0;text-transform:none;direction:ltr;block-progression:tb;baseline-shift:baseline;color:#000000;enable-background:accumulate;" d="m 37.951301,37.937774 0,14.926751 0.934748,0 0,-14.926751 -0.934748,0 z" fill="#000000" fill-opacity="1" stroke="none" marker="none" visibility="visible" display="inline" overflow="visible"></path><path style="text-indent:0;text-transform:none;direction:ltr;block-progression:tb;baseline-shift:baseline;color:#000000;enable-background:accumulate;" d="m 42.800304,38.113039 0,14.693065 0.934748,0 0,-14.693065 -0.934748,0 z" fill="#000000" fill-opacity="1" stroke="none" marker="none" visibility="visible" display="inline" overflow="visible"></path><path style="text-indent:0;text-transform:none;direction:ltr;block-progression:tb;baseline-shift:baseline;color:#000000;enable-background:accumulate;" d="m 47.240356,38.434359 0,14.430166 0.934747,0 0,-14.430166 -0.934747,0 z" fill="#000000" fill-opacity="1" stroke="none" marker="none" visibility="visible" display="inline" overflow="visible"></path><path style="text-indent:0;text-transform:none;direction:ltr;block-progression:tb;baseline-shift:baseline;color:#000000;enable-background:accumulate;" d="m 50.804081,38.755678 0,14.459378 0.934747,0 0,-14.459378 -0.934747,0 z" fill="#000000" fill-opacity="1" stroke="none" marker="none" visibility="visible" display="inline" overflow="visible"></path><path style="text-indent:0;text-transform:none;direction:ltr;block-progression:tb;baseline-shift:baseline;color:#000000;enable-background:accumulate;" d="m 40.843176,43.633893 c -3.499012,-0.02028 -7.012355,0.205466 -10.51591,0.730271 l 0.146054,0.934748 c 6.902821,-1.03399 13.816177,-0.876279 20.739713,0 l 0.116843,-0.934748 c -3.493208,-0.442117 -6.987687,-0.709959 -10.4867,-0.730271 z" fill="#000000" fill-opacity="1" stroke="none" marker="none" visibility="visible" display="inline" overflow="visible"></path><path style="text-indent:0;text-transform:none;direction:ltr;block-progression:tb;baseline-shift:baseline;color:#000000;enable-background:accumulate;" d="m 2.5769456,57.129311 0,0.934748 22.9889494,0 4.031099,1.898706 0.08759,0.02916 0.116843,0 21.908148,0.05842 0.116843,0 0.08759,-0.05842 3.534515,-1.927917 22.755262,0 0,-0.934747 -22.842895,0 -0.146054,0 -0.08759,0.05842 -3.534515,1.927917 -21.703671,-0.05842 -4.06031,-1.898706 -0.08759,-0.02916 -0.08759,0 -23.0765817,0 z" fill="#000000" fill-opacity="1" stroke="none" marker="none" visibility="visible" display="inline" overflow="visible"></path><path style="" d="m 39.099881,55.757887 2.96044,0 0,3.981268 -2.96044,0 z" fill="#000000" fill-opacity="1" fill-rule="nonzero" stroke="none"></path><path style="" d="m 48.426718,56.059007 c 0.705127,0 1.262611,0.567747 1.2728,1.272799 l 0.01804,2.090684 -1.308899,-0.05665 -1.254749,0.01411 0,-2.048181 c 0,-0.705127 0.567672,-1.272799 1.272808,-1.272799 z" fill="#000000" fill-opacity="1" fill-rule="nonzero" stroke="none"></path><path d="m 32.672903,56.059007 c -0.705127,0 -1.262611,0.567747 -1.272799,1.272799 l -0.01804,2.065166 1.308899,-0.03113 1.254749,-0.01145 0,-2.022663 c 0,-0.705127 -0.567672,-1.272799 -1.272808,-1.272799 z" style="" fill="#000000" fill-opacity="1" fill-rule="nonzero" stroke="none"></path></svg>