<svg height='100px' width='100px'  fill="#000000" xmlns="http://www.w3.org/2000/svg" xmlns:xlink="http://www.w3.org/1999/xlink" version="1.1" x="0px" y="0px" viewBox="0 0 97.6 100" enable-background="new 0 0 97.6 100" xml:space="preserve"><g><g><path d="M49.527,50.854c-1.393-0.153-2.652,0.848-2.8,2.248c-0.151,1.391,0.852,2.646,2.243,2.791    c0.1,0.013,0.19,0.016,0.282,0.016c1.285,0,2.377-0.963,2.517-2.257C51.919,52.251,50.918,51.002,49.527,50.854z"></path><path d="M47.579,39.595c-0.183-1.387-1.458-2.363-2.85-2.181c-1.382,0.185-2.361,1.462-2.169,2.849    c0.165,1.279,1.25,2.203,2.509,2.203c0.108,0,0.215-0.004,0.339-0.021C46.792,42.259,47.769,40.987,47.579,39.595z"></path><path d="M46.677,32.713c0.008,1.4,1.143,2.531,2.535,2.531c0.007,0,0.007,0,0.016,0c1.4-0.004,2.525-1.148,2.518-2.548    c0-1.399-1.144-2.53-2.543-2.525C47.802,30.173,46.667,31.313,46.677,32.713z"></path><path d="M2.379,69.149c-1.408,0-2.543,1.136-2.543,2.538c0,1.4,1.135,2.535,2.543,2.535c1.399,0,2.535-1.135,2.535-2.535    C4.914,70.285,3.779,69.149,2.379,69.149z"></path><path d="M3.431,61.482c-1.375-0.234-2.684,0.701-2.916,2.076c-0.231,1.383,0.704,2.692,2.079,2.924    c0.142,0.025,0.282,0.042,0.422,0.042c1.219,0,2.295-0.883,2.501-2.121C5.75,63.02,4.814,61.711,3.431,61.482z"></path><circle cx="30.143" cy="71.686" r="2.537"></circle><path d="M32.778,61.857c-1.275-0.578-2.775,0-3.354,1.275c-0.571,1.278,0.008,2.777,1.283,3.35    c0.339,0.154,0.688,0.227,1.036,0.227c0.969,0,1.897-0.562,2.319-1.506C34.633,63.932,34.053,62.428,32.778,61.857z"></path><path d="M34.583,56.074c-1.044,0.937-1.135,2.54-0.199,3.584c0.506,0.555,1.193,0.84,1.89,0.84c0.605,0,1.208-0.215,1.688-0.643    c1.043-0.937,1.136-2.543,0.2-3.586C37.224,55.229,35.627,55.143,34.583,56.074z"></path><path d="M41.897,51.723c-1.334,0.426-2.071,1.855-1.64,3.191c0.339,1.074,1.342,1.762,2.411,1.762c0.256,0,0.521-0.037,0.778-0.12    c1.333-0.432,2.071-1.855,1.64-3.19C44.656,52.032,43.23,51.296,41.897,51.723z"></path><path d="M23.201,69.149c-1.407,0-2.533,1.136-2.533,2.538c0,1.4,1.126,2.535,2.533,2.535c1.401,0,2.536-1.135,2.536-2.535    C25.737,70.285,24.602,69.149,23.201,69.149z"></path><path d="M25.124,61.645c-1.333-0.422-2.758,0.322-3.18,1.66c-0.414,1.34,0.323,2.759,1.656,3.178    c0.257,0.078,0.514,0.119,0.763,0.119c1.085,0,2.087-0.694,2.426-1.775l0,0C27.203,63.492,26.466,62.062,25.124,61.645z"></path><path d="M26.325,59.227c0.44,0.311,0.953,0.455,1.45,0.455c0.804,0,1.582-0.373,2.08-1.076c0.803-1.146,0.521-2.729-0.622-3.533    c-1.144-0.807-2.733-0.525-3.538,0.622C24.901,56.84,25.173,58.423,26.325,59.227z"></path><path d="M33.109,54.112c0.539,0,1.085-0.169,1.548-0.531c1.103-0.854,1.318-2.446,0.457-3.553    c-0.854-1.111-2.443-1.317-3.554-0.46c-1.11,0.849-1.317,2.444-0.464,3.553C31.593,53.768,32.347,54.112,33.109,54.112z"></path><path d="M40.398,50.123c0.282,0,0.58-0.049,0.87-0.151c1.316-0.486,1.987-1.939,1.507-3.251c-0.481-1.321-1.938-1.996-3.248-1.511    c-1.326,0.476-1.997,1.933-1.516,3.25C38.385,49.485,39.354,50.123,40.398,50.123z"></path><path d="M16.253,69.149c-1.399,0-2.526,1.136-2.526,2.538c0,1.4,1.127,2.535,2.526,2.535c1.409,0,2.544-1.135,2.544-2.535    C18.797,70.285,17.661,69.149,16.253,69.149z"></path><path d="M17.777,61.553c-1.367-0.33-2.733,0.508-3.064,1.869c-0.331,1.358,0.505,2.732,1.863,3.061    c0.198,0.049,0.398,0.075,0.604,0.075c1.135,0,2.179-0.78,2.46-1.938C19.972,63.256,19.136,61.887,17.777,61.553z"></path><path d="M22.142,57.959c0.646-1.242,0.166-2.775-1.077-3.418c-1.241-0.65-2.774-0.168-3.428,1.075    c-0.638,1.241-0.157,2.774,1.085,3.423c0.372,0.195,0.771,0.287,1.168,0.287C20.801,59.326,21.686,58.828,22.142,57.959z"></path><path d="M26.16,52.087c0.919-1.062,0.819-2.66-0.241-3.583c-1.052-0.919-2.659-0.815-3.578,0.237    c-0.92,1.052-0.812,2.659,0.24,3.583c0.48,0.422,1.077,0.625,1.665,0.625C24.959,52.948,25.655,52.658,26.16,52.087z"></path><path d="M32.065,43.79c-0.803-1.145-2.385-1.423-3.528-0.616c-1.152,0.809-1.425,2.386-0.622,3.534    c0.498,0.704,1.284,1.076,2.079,1.076c0.505,0,1.011-0.144,1.458-0.459C32.595,46.516,32.877,44.938,32.065,43.79z"></path><path d="M37.714,43.953c1.309-0.506,1.947-1.979,1.442-3.289c-0.513-1.304-1.988-1.942-3.289-1.437    c-1.309,0.513-1.955,1.983-1.441,3.287c0.398,1.002,1.359,1.616,2.36,1.616C37.101,44.131,37.416,44.077,37.714,43.953z"></path><path d="M55.846,40.092c0.148-1.396-0.861-2.645-2.262-2.788c-1.392-0.148-2.634,0.864-2.784,2.259    c-0.149,1.387,0.862,2.637,2.253,2.788c0.1,0.008,0.183,0.011,0.274,0.011C54.603,42.361,55.706,41.393,55.846,40.092z"></path><path d="M9.047,69.149c-1.4,0-2.534,1.136-2.534,2.538c0,1.4,1.134,2.535,2.534,2.535c1.408,0,2.543-1.135,2.543-2.535    C11.59,70.285,10.455,69.149,9.047,69.149z"></path><path d="M10.289,61.504c-1.375-0.266-2.708,0.625-2.982,2.001c0-0.005,0-0.005,0-0.005c-0.266,1.379,0.622,2.714,1.996,2.982    c0.166,0.033,0.339,0.049,0.497,0.049c1.184,0,2.253-0.835,2.485-2.045C12.559,63.111,11.665,61.777,10.289,61.504z"></path><path d="M12.998,54.256c-1.292-0.537-2.775,0.074-3.313,1.371c0.009,0,0.009,0,0.009,0c-0.538,1.297,0.075,2.775,1.367,3.312    c0.322,0.133,0.654,0.195,0.968,0.195c1.003,0,1.946-0.588,2.353-1.568C14.91,56.273,14.298,54.787,12.998,54.256z"></path><path d="M17.081,47.671c-1.16-0.781-2.742-0.467-3.512,0.7l0,0c-0.787,1.165-0.472,2.742,0.697,3.516    c0.43,0.287,0.928,0.432,1.407,0.432c0.82,0,1.623-0.402,2.112-1.135C18.556,50.024,18.249,48.445,17.081,47.671z"></path><path d="M18.779,45.596c0.498,0.494,1.144,0.737,1.79,0.737c0.654,0,1.301-0.243,1.798-0.748c0.993-0.986,0.985-2.597-0.008-3.583    c-0.986-0.986-2.601-0.986-3.579,0.008C17.785,43.004,17.785,44.607,18.779,45.596z"></path><path d="M24.428,40.296c0.489,0.724,1.292,1.118,2.104,1.118c0.488,0.005,0.985-0.136,1.416-0.427    c1.16-0.783,1.474-2.365,0.688-3.524c-0.779-1.164-2.36-1.47-3.521-0.687C23.956,37.554,23.65,39.136,24.428,40.296z"></path><path d="M30.997,36.193c0.406,0.968,1.341,1.559,2.336,1.559c0.331,0,0.654-0.06,0.985-0.203c1.284-0.537,1.896-2.02,1.357-3.314    c-0.537-1.295-2.028-1.905-3.321-1.366C31.062,33.413,30.458,34.899,30.997,36.193z"></path><path d="M38.236,33.454c0.249,1.196,1.3,2.033,2.486,2.033c0.166,0,0.331-0.016,0.505-0.054c1.366-0.273,2.261-1.611,1.988-2.986    c-0.282-1.371-1.616-2.261-2.99-1.989C38.849,30.742,37.962,32.075,38.236,33.454z"></path><path d="M4.102,58.886c0.273,0.101,0.556,0.143,0.837,0.143c1.043,0,2.021-0.655,2.385-1.702c0.464-1.322-0.232-2.771-1.558-3.228    c-1.325-0.463-2.766,0.237-3.23,1.558C2.072,56.982,2.776,58.428,4.102,58.886z"></path><path d="M6.86,51.652c0.382,0.211,0.804,0.312,1.217,0.312c0.896,0,1.764-0.475,2.228-1.312c0.679-1.228,0.224-2.769-1.002-3.448    c-1.226-0.676-2.766-0.224-3.446,0.998C5.187,49.432,5.626,50.973,6.86,51.652z"></path><path d="M10.795,44.977c0.463,0.367,1.019,0.549,1.574,0.549c0.745,0,1.482-0.331,1.987-0.96c0.871-1.093,0.688-2.696-0.415-3.561    c-1.093-0.871-2.691-0.689-3.562,0.409C9.511,42.512,9.693,44.105,10.795,44.977z"></path><path d="M17.661,39.894c0.604,0,1.217-0.215,1.698-0.65c1.043-0.94,1.126-2.543,0.19-3.587c-0.944-1.039-2.542-1.122-3.587-0.185    c-1.035,0.94-1.126,2.543-0.182,3.586C16.278,39.607,16.974,39.894,17.661,39.894z"></path><path d="M23.823,35.213c0.463,0,0.936-0.127,1.35-0.397c1.193-0.75,1.533-2.319,0.788-3.499c-0.753-1.182-2.319-1.533-3.503-0.783    c-1.184,0.757-1.533,2.322-0.779,3.503C22.159,34.801,22.987,35.213,23.823,35.213z"></path><path d="M30.666,31.627c0.331,0,0.662-0.067,0.985-0.198c1.292-0.539,1.896-2.03,1.351-3.323c-0.54-1.286-2.03-1.895-3.322-1.349    c-1.292,0.539-1.897,2.028-1.351,3.322C28.735,31.047,29.672,31.627,30.666,31.627z"></path><path d="M38.012,29.243c0.19,0,0.39-0.023,0.58-0.067c1.366-0.32,2.211-1.682,1.896-3.045c-0.315-1.37-1.682-2.215-3.047-1.896    c-1.367,0.315-2.212,1.685-1.889,3.048C35.817,28.455,36.861,29.243,38.012,29.243z"></path><path d="M45.666,28.12c0.058,0,0.108,0,0.158,0c1.399-0.091,2.459-1.296,2.377-2.692c-0.091-1.4-1.292-2.459-2.692-2.373    c-1.399,0.083-2.46,1.288-2.368,2.687C43.222,27.083,44.341,28.12,45.666,28.12z"></path><path d="M56.433,51.986c-1.334-0.422-2.766,0.312-3.189,1.645c-0.429,1.338,0.308,2.759,1.641,3.193    c0.256,0.078,0.521,0.117,0.78,0.117c1.067,0,2.062-0.686,2.409-1.762C58.504,53.847,57.767,52.413,56.433,51.986z"></path><path d="M49.418,43.811c-1.399-0.062-2.584,1.023-2.651,2.423c-0.057,1.405,1.027,2.584,2.428,2.647c0.034,0,0.075,0,0.117,0    c1.34,0,2.468-1.06,2.524-2.418C51.902,45.058,50.81,43.878,49.418,43.811z"></path><path d="M95.149,69.149c-1.399,0-2.535,1.136-2.535,2.538c0,1.4,1.136,2.535,2.535,2.535c1.408,0,2.543-1.135,2.543-2.535    C97.692,70.285,96.557,69.149,95.149,69.149z"></path><path d="M94.509,66.524c0.143,0,0.284-0.017,0.424-0.042c1.375-0.231,2.312-1.541,2.08-2.924    c-0.233-1.375-1.541-2.311-2.917-2.076c-1.384,0.229-2.318,1.537-2.085,2.921C92.216,65.642,93.294,66.524,94.509,66.524z"></path><path d="M52.243,28.12c0.049,0,0.1,0,0.157,0c1.326,0,2.444-1.036,2.518-2.377c0.091-1.399-0.969-2.604-2.368-2.687    c-1.401-0.086-2.601,0.973-2.684,2.373C49.774,26.823,50.834,28.028,52.243,28.12z"></path><circle cx="67.385" cy="71.686" r="2.537"></circle><path d="M66.821,66.482c1.276-0.572,1.854-2.071,1.283-3.35c-0.579-1.275-2.078-1.854-3.354-1.275    c-1.275,0.57-1.855,2.074-1.284,3.346c0.424,0.943,1.35,1.506,2.32,1.506C66.134,66.709,66.48,66.637,66.821,66.482z"></path><path d="M62.944,56.074c-1.044-0.932-2.643-0.846-3.578,0.195c-0.936,1.043-0.845,2.649,0.198,3.586    c0.48,0.428,1.085,0.643,1.69,0.643c0.695,0,1.383-0.285,1.888-0.84C64.079,58.614,63.988,57.011,62.944,56.074z"></path><path d="M74.325,69.149c-1.4,0-2.535,1.136-2.535,2.538c0,1.4,1.135,2.535,2.535,2.535c1.408,0,2.536-1.135,2.536-2.535    C76.861,70.285,75.733,69.149,74.325,69.149z"></path><path d="M73.927,66.482c1.334-0.419,2.072-1.838,1.659-3.178c-0.424-1.338-1.849-2.082-3.184-1.66    c-1.341,0.418-2.077,1.848-1.664,3.182l0,0c0.34,1.081,1.343,1.775,2.428,1.775C73.415,66.602,73.67,66.561,73.927,66.482z"></path><path d="M69.753,59.682c0.497,0,1.01-0.145,1.449-0.455c1.152-0.804,1.424-2.387,0.63-3.532c-0.804-1.147-2.394-1.429-3.537-0.622    c-1.143,0.805-1.424,2.387-0.621,3.533C68.171,59.309,68.951,59.682,69.753,59.682z"></path><path d="M62.871,53.581c0.465,0.362,1.01,0.531,1.548,0.531c0.761,0,1.515-0.345,2.013-0.991c0.854-1.109,0.646-2.705-0.463-3.553    c-1.111-0.857-2.701-0.65-3.555,0.46C61.552,51.135,61.767,52.728,62.871,53.581z"></path><path d="M58.264,45.208c-1.31-0.485-2.768,0.19-3.248,1.511c-0.479,1.312,0.191,2.765,1.518,3.251    c0.28,0.102,0.58,0.151,0.868,0.151c1.035,0,2.006-0.638,2.377-1.664C60.26,47.142,59.589,45.685,58.264,45.208z"></path><path d="M81.274,69.149c-1.407,0-2.543,1.136-2.543,2.538c0,1.4,1.136,2.535,2.543,2.535c1.393,0,2.526-1.135,2.526-2.535    C83.801,70.285,82.667,69.149,81.274,69.149z"></path><path d="M80.952,66.482c1.358-0.328,2.193-1.702,1.863-3.061c-0.331-1.361-1.699-2.199-3.065-1.869    c-1.358,0.334-2.194,1.703-1.863,3.066c0.282,1.158,1.326,1.938,2.461,1.938C80.554,66.558,80.752,66.531,80.952,66.482z"></path><path d="M79.89,55.616c-0.653-1.243-2.187-1.726-3.428-1.075c-1.243,0.643-1.724,2.176-1.077,3.418    c0.455,0.869,1.343,1.367,2.254,1.367c0.396,0,0.792-0.092,1.165-0.287C80.048,58.391,80.53,56.857,79.89,55.616z"></path><path d="M74.947,52.323c1.052-0.924,1.159-2.531,0.239-3.583c-0.918-1.052-2.526-1.156-3.578-0.237    c-1.051,0.924-1.158,2.522-0.239,3.583c0.504,0.571,1.199,0.861,1.913,0.861C73.87,52.948,74.467,52.745,74.947,52.323z"></path><path d="M69.612,46.707c0.804-1.147,0.53-2.725-0.623-3.534c-1.143-0.807-2.725-0.529-3.527,0.616    c-0.812,1.148-0.529,2.727,0.613,3.534c0.448,0.315,0.952,0.459,1.457,0.459C68.329,47.783,69.115,47.411,69.612,46.707z"></path><path d="M63.102,42.515c0.513-1.304-0.132-2.774-1.442-3.287c-1.3-0.505-2.772,0.133-3.289,1.437    c-0.505,1.31,0.133,2.783,1.442,3.289c0.299,0.124,0.614,0.178,0.929,0.178C61.743,44.131,62.704,43.517,63.102,42.515z"></path><path d="M88.481,69.149c-1.408,0-2.543,1.136-2.543,2.538c0,1.4,1.135,2.535,2.543,2.535c1.399,0,2.532-1.135,2.532-2.535    C91.013,70.285,89.881,69.149,88.481,69.149z"></path><path d="M87.726,66.531c0.157,0,0.333-0.016,0.497-0.049c1.374-0.269,2.262-1.604,1.988-2.982c0,0,0,0,0,0.005    c-0.265-1.376-1.598-2.267-2.975-2.001c-1.374,0.273-2.27,1.607-1.994,2.982C85.475,65.696,86.542,66.531,87.726,66.531z"></path><path d="M86.469,58.939c1.291-0.537,1.903-2.016,1.365-3.312c0,0,0,0,0.009,0c-0.537-1.297-2.022-1.908-3.312-1.371    c-1.302,0.531-1.916,2.018-1.386,3.311c0.407,0.98,1.352,1.568,2.354,1.568C85.814,59.135,86.143,59.072,86.469,58.939z"></path><path d="M80.447,47.671c-1.168,0.774-1.476,2.353-0.705,3.513c0.488,0.732,1.294,1.135,2.113,1.135    c0.479,0,0.976-0.145,1.408-0.432c1.165-0.773,1.48-2.351,0.694-3.516l0,0C83.187,47.204,81.605,46.89,80.447,47.671z"></path><path d="M75.162,45.585c0.497,0.505,1.143,0.748,1.798,0.748c0.646,0,1.291-0.243,1.788-0.737c0.994-0.989,0.994-2.592,0-3.586    c-0.978-0.994-2.594-0.994-3.579-0.008C74.175,42.988,74.167,44.599,75.162,45.585z"></path><path d="M68.891,37.463c-0.787,1.159-0.472,2.741,0.687,3.524c0.432,0.291,0.929,0.432,1.417,0.427    c0.812,0,1.615-0.394,2.104-1.118c0.778-1.16,0.471-2.743-0.687-3.521C71.252,35.993,69.67,36.299,68.891,37.463z"></path><path d="M63.209,37.549c0.324,0.143,0.653,0.203,0.985,0.203c0.996,0,1.93-0.591,2.337-1.559c0.537-1.293-0.066-2.78-1.359-3.323    c-1.291-0.539-2.783,0.07-3.321,1.366C61.312,35.529,61.926,37.012,63.209,37.549z"></path><path d="M56.302,35.434c0.173,0.038,0.338,0.054,0.504,0.054c1.184,0,2.235-0.837,2.484-2.033    c0.273-1.379-0.612-2.712-1.986-2.995c-1.378-0.272-2.71,0.618-2.99,1.989C54.041,33.822,54.934,35.16,56.302,35.434z"></path><path d="M90.203,57.326c0.365,1.047,1.342,1.702,2.385,1.702c0.284,0,0.564-0.042,0.838-0.143    c1.326-0.458,2.029-1.903,1.564-3.229c-0.463-1.32-1.904-2.021-3.229-1.558C90.434,54.555,89.739,56.004,90.203,57.326z"></path><path d="M87.221,50.652c0.464,0.838,1.334,1.312,2.228,1.312c0.415,0,0.838-0.102,1.219-0.312c1.233-0.68,1.673-2.22,1.002-3.451    c-0.68-1.221-2.221-1.673-3.446-0.998C86.998,47.883,86.542,49.424,87.221,50.652z"></path><path d="M85.16,45.526c0.554,0,1.108-0.182,1.571-0.549c1.103-0.871,1.285-2.464,0.415-3.562c-0.869-1.099-2.468-1.28-3.561-0.409    c-1.102,0.865-1.285,2.468-0.414,3.561C83.677,45.195,84.413,45.526,85.16,45.526z"></path><path d="M78.169,39.244c0.48,0.435,1.094,0.65,1.698,0.65c0.688,0,1.382-0.286,1.879-0.835c0.945-1.043,0.853-2.646-0.183-3.586    c-1.042-0.937-2.642-0.854-3.586,0.185C77.042,36.7,77.124,38.303,78.169,39.244z"></path><path d="M72.354,34.816c0.414,0.27,0.885,0.397,1.349,0.397c0.837,0,1.665-0.413,2.146-1.176c0.754-1.181,0.405-2.746-0.779-3.503    c-1.183-0.75-2.749-0.398-3.502,0.783C70.821,32.497,71.161,34.066,72.354,34.816z"></path><path d="M65.877,31.43c0.323,0.131,0.654,0.198,0.985,0.198c0.993,0,1.931-0.58,2.336-1.548c0.547-1.293-0.06-2.783-1.352-3.322    c-1.29-0.546-2.781,0.062-3.32,1.349C63.98,29.399,64.584,30.891,65.877,31.43z"></path><path d="M58.934,29.176c0.19,0.044,0.39,0.067,0.58,0.067c1.152,0,2.195-0.788,2.461-1.959c0.322-1.364-0.522-2.733-1.889-3.048    c-1.366-0.319-2.733,0.526-3.049,1.896C56.723,27.495,57.569,28.856,58.934,29.176z"></path></g></g></svg>