<svg height='100px' width='100px'  fill="#000000" xmlns="http://www.w3.org/2000/svg" viewBox="0 0 64 64" x="0px" y="0px"><title>Busines and Management Icon - 25 - 64 - Expanded</title><path d="M55,39H9a1,1,0,0,1-1-1V32a1,1,0,0,1,1-1H55a1,1,0,0,1,1,1v6A1,1,0,0,1,55,39ZM10,37H54V33H10Z"></path><path d="M52,56H12a1,1,0,0,1-1-1V38a1,1,0,0,1,1-1H52a1,1,0,0,1,1,1V55A1,1,0,0,1,52,56ZM13,54H51V39H13Z"></path><path d="M42,33H22a1,1,0,0,1-1-1V26a5,5,0,0,1,5-5h2V19a1,1,0,0,1,2,0v3a1,1,0,0,1-1,1H26a3,3,0,0,0-3,3v5H41V26a3,3,0,0,0-3-3H35a1,1,0,0,1-1-1V19a1,1,0,0,1,2,0v2h2a5,5,0,0,1,5,5v6A1,1,0,0,1,42,33Z"></path><path d="M32,21a6,6,0,1,1,6-6A6,6,0,0,1,32,21Zm0-10a4,4,0,1,0,4,4A4,4,0,0,0,32,11Z"></path><path d="M27,32a1,1,0,0,1-1-1V29a1,1,0,0,1,2,0v2A1,1,0,0,1,27,32Z"></path><path d="M26,23H23a1,1,0,0,1-1-1V19a1,1,0,0,1,2,0v2h2a1,1,0,0,1,0,2Z"></path><path d="M30,33H10a1,1,0,0,1-1-1V26a5,5,0,0,1,5-5h2V19a1,1,0,0,1,2,0v3a1,1,0,0,1-1,1H14a3,3,0,0,0-3,3v5H30a1,1,0,0,1,0,2Z"></path><path d="M20,21a6,6,0,1,1,6-6A6,6,0,0,1,20,21Zm0-10a4,4,0,1,0,4,4A4,4,0,0,0,20,11Z"></path><path d="M15,32a1,1,0,0,1-1-1V29a1,1,0,0,1,2,0v2A1,1,0,0,1,15,32Z"></path><path d="M41,23H38a1,1,0,0,1,0-2h2V19a1,1,0,0,1,2,0v3A1,1,0,0,1,41,23Z"></path><path d="M54,33H34a1,1,0,0,1,0-2H53V26a3,3,0,0,0-3-3H47a1,1,0,0,1-1-1V19a1,1,0,0,1,2,0v2h2a5,5,0,0,1,5,5v6A1,1,0,0,1,54,33Z"></path><path d="M44,21a6,6,0,1,1,6-6A6,6,0,0,1,44,21Zm0-10a4,4,0,1,0,4,4A4,4,0,0,0,44,11Z"></path><path d="M49,32a1,1,0,0,1-1-1V29a1,1,0,0,1,2,0v2A1,1,0,0,1,49,32Z"></path><path d="M37,32a1,1,0,0,1-1-1V29a1,1,0,0,1,2,0v2A1,1,0,0,1,37,32Z"></path><path d="M25,42a1,1,0,0,1,1-1h0a1,1,0,0,1,1,1h0a1,1,0,0,1-1,1h0A1,1,0,0,1,25,42Zm-3,0a1,1,0,0,1,1-1h0a1,1,0,0,1,1,1h0a1,1,0,0,1-1,1h0A1,1,0,0,1,22,42Zm-3,0a1,1,0,0,1,1-1h0a1,1,0,0,1,1,1h0a1,1,0,0,1-1,1h0A1,1,0,0,1,19,42Zm-3,0a1,1,0,0,1,1-1h0a1,1,0,0,1,1,1h0a1,1,0,0,1-1,1h0A1,1,0,0,1,16,42Z"></path><path d="M32,28a1,1,0,0,1-.55-.17l-3-2a1,1,0,1,1,1.1-1.66L32,25.8l2.45-1.63a1,1,0,1,1,1.1,1.66l-3,2A1,1,0,0,1,32,28Z"></path><path d="M20,28a1,1,0,0,1-.55-.17l-3-2a1,1,0,1,1,1.1-1.66L20,25.8l1.47-1a1,1,0,0,1,1.1,1.66l-2,1.34A1,1,0,0,1,20,28Z"></path><path d="M44,28a1,1,0,0,1-.55-.17l-2-1.34a1,1,0,1,1,1.1-1.66l1.47,1,2.45-1.63a1,1,0,1,1,1.1,1.66l-3,2A1,1,0,0,1,44,28Z"></path><path d="M31,33a1,1,0,0,1-1-1V29a1,1,0,0,1,.11-.45l1-2a1,1,0,0,1,1.78.9L32,29.24V32A1,1,0,0,1,31,33Z"></path><path d="M33,33a1,1,0,0,1-1-1V29.24l-.89-1.79a1,1,0,0,1,1.78-.9l1,2A1,1,0,0,1,34,29v3A1,1,0,0,1,33,33Z"></path></svg>