<svg height='100px' width='100px'  fill="#000000" xmlns="http://www.w3.org/2000/svg" xmlns:xlink="http://www.w3.org/1999/xlink" version="1.0" x="0px" y="0px" viewBox="0 0 100 100" enable-background="new 0 0 100 100" xml:space="preserve"><path d="M95.0622253,72.2809448h-7.4260178v5.3672867c0,1.3601761-1.1025085,2.4629059-2.4626465,2.4629059  s-2.4631729-1.1027298-2.4631729-2.4629059V46.9160233H5.9537129v40.584137h18.9689598V72.5018158h23.8207092v15.1454163h17.9394646  v-22.056427c0-1.3601074,1.103035-2.4631691,2.4626465-2.4631691c1.3606644,0,2.4631653,1.1030617,2.4631653,2.4631691  l-0.0730057,10.3296127c0,6.5171738,5.2829132,11.8003159,11.7995224,11.8003159  c6.5171432,0,11.8005829-5.2831421,11.8005829-11.8003159L95.0622253,72.2809448z"></path><path d="M45.5199928,10.7434492h-2.2758942c-40.7306786,0-37.2020378,26.1738396-37.2020378,33.2316208h76.6804962  C82.7225571,36.9172897,86.2511978,10.7434492,45.5199928,10.7434492z M24.7893562,33.323082l-1.788126,5.5016327  l-1.7870693-5.5018959h-5.7849617l4.6803436-3.4006481l-1.7870693-5.5018978l4.6798134,3.4003181l4.6798153-3.400053  l-1.7875977,5.5018959l4.6803417,3.4006481H24.7893562z M45.9929466,33.323082l-1.7881279,5.5016327l-1.7870674-5.5018959  h-5.7854919l4.6803436-3.4006481l-1.7875977-5.5018978l4.6803436,3.4003181l4.6803436-3.400053l-1.7881279,5.5018959  l4.6798134,3.4006481H45.9929466z M67.1954803,33.323082l-1.7875977,5.5016327l-1.7876015-5.5018959h-5.7844315l4.6798134-3.4006481  l-1.7870674-5.5018978l4.6798134,3.4003181l4.6798172-3.400053l-1.7875977,5.5018959l4.6803436,3.4006481H67.1954803z"></path></svg>