<svg height='100px' width='100px'  fill="#000000" xmlns:x="http://ns.adobe.com/Extensibility/1.0/" xmlns:i="http://ns.adobe.com/AdobeIllustrator/10.0/" xmlns:graph="http://ns.adobe.com/Graphs/1.0/" xmlns="http://www.w3.org/2000/svg" xmlns:xlink="http://www.w3.org/1999/xlink" version="1.1" x="0px" y="0px" viewBox="0 0 100 100" style="enable-background:new 0 0 100 100;" xml:space="preserve"><g><g i:extraneous="self"><g><path d="M5273.1,2400.1v-2c0-2.8-5-4-9.7-4s-9.7,1.3-9.7,4v2c0,1.8,0.7,3.6,2,4.9l5,4.9c0.3,0.3,0.4,0.6,0.4,1v6.4     c0,0.4,0.2,0.7,0.6,0.8l2.9,0.9c0.5,0.1,1-0.2,1-0.8v-7.2c0-0.4,0.2-0.7,0.4-1l5.1-5C5272.4,2403.7,5273.1,2401.9,5273.1,2400.1z      M5263.4,2400c-4.8,0-7.4-1.3-7.5-1.8v0c0.1-0.5,2.7-1.8,7.5-1.8c4.8,0,7.3,1.3,7.5,1.8C5270.7,2398.7,5268.2,2400,5263.4,2400z"></path><path d="M5268.4,2410.3c-0.6,0-1,0.4-1,1c0,0.6,0.4,1,1,1h4.3c0.6,0,1-0.4,1-1c0-0.6-0.4-1-1-1H5268.4z"></path><path d="M5272.7,2413.7h-4.3c-0.6,0-1,0.4-1,1c0,0.6,0.4,1,1,1h4.3c0.6,0,1-0.4,1-1C5273.7,2414.1,5273.3,2413.7,5272.7,2413.7z"></path><path d="M5272.7,2417h-4.3c-0.6,0-1,0.4-1,1c0,0.6,0.4,1,1,1h4.3c0.6,0,1-0.4,1-1C5273.7,2417.5,5273.3,2417,5272.7,2417z"></path></g><g><path d="M23.3,66.4c-2.1,1.2-4.5,2-7.1,2s-5-0.7-7.1-2c-3,1.4-5.2,4.2-5.7,7.6l-0.9,7.7c-0.1,1,0.5,2,1.5,2.2     c3.8,0.8,7.9,1.2,12.2,1.2s8.4-0.4,12.2-1.2c1-0.2,1.6-1.2,1.5-2.2L29,74C28.6,70.6,26.4,67.8,23.3,66.4z"></path><circle cx="16.2" cy="54.5" r="9"></circle><path d="M7.2,35.6h5.1l2.4,4.8c0.6,1.2,2.4,1.2,3,0l2.4-4.8h5.1c1.6,0,3-1.3,3-3V17.8c0-1.6-1.3-3-3-3h-18c-1.6,0-3,1.3-3,3v14.8     C4.2,34.3,5.6,35.6,7.2,35.6z M11.1,23.7c0.6-0.6,1.6-0.6,2.2,0l1.9,1.9l4.1-4.1c0.6-0.6,1.6-0.6,2.2,0c0.6,0.6,0.6,1.6,0,2.2     l-5.1,5.1c-0.3,0.3-0.7,0.4-1.1,0.4s-0.8-0.1-1.1-0.4l-3-3C10.5,25.3,10.5,24.3,11.1,23.7z"></path><path d="M57.1,66.4c-2.1,1.2-4.5,2-7.1,2c-2.6,0-5-0.7-7.1-2c-3,1.4-5.2,4.2-5.7,7.6l-0.9,7.7c-0.1,1,0.5,2,1.5,2.2     c3.8,0.8,7.9,1.2,12.2,1.2s8.4-0.4,12.2-1.2c1-0.2,1.6-1.2,1.5-2.2L62.8,74C62.4,70.6,60.1,67.8,57.1,66.4z"></path><circle cx="50" cy="54.5" r="9"></circle><path d="M41,35.6h5.1l2.4,4.8c0.6,1.2,2.4,1.2,3,0l2.4-4.8H59c1.6,0,3-1.3,3-3V17.8c0-1.6-1.3-3-3-3H41c-1.6,0-3,1.3-3,3v14.8     C38,34.3,39.3,35.6,41,35.6z M44.9,23.7c0.6-0.6,1.6-0.6,2.2,0l1.9,1.9l4.1-4.1c0.6-0.6,1.6-0.6,2.2,0c0.6,0.6,0.6,1.6,0,2.2     L50,28.9c-0.3,0.3-0.7,0.4-1.1,0.4c-0.4,0-0.8-0.1-1.1-0.4l-3-3C44.3,25.3,44.3,24.3,44.9,23.7z"></path><path d="M96.6,74c-0.4-3.4-2.6-6.3-5.7-7.6c-2.1,1.2-4.5,2-7.1,2s-5-0.7-7.1-2c-3,1.4-5.2,4.2-5.7,7.6l-0.9,7.7     c-0.1,1,0.5,2,1.5,2.2c3.8,0.8,7.9,1.2,12.2,1.2s8.4-0.4,12.2-1.2c1-0.2,1.6-1.2,1.5-2.2L96.6,74z"></path><circle cx="83.8" cy="54.5" r="9"></circle><path d="M74.8,35.6h5.1l2.4,4.8c0.6,1.2,2.4,1.2,3,0l2.4-4.8h5.1c1.6,0,3-1.3,3-3V17.8c0-1.6-1.3-3-3-3h-18c-1.6,0-3,1.3-3,3     v14.8C71.8,34.3,73.1,35.6,74.8,35.6z M78.7,23.7c0.6-0.6,1.6-0.6,2.2,0l1.9,1.9l4.1-4.1c0.6-0.6,1.6-0.6,2.2,0     c0.6,0.6,0.6,1.6,0,2.2l-5.1,5.1c-0.3,0.3-0.7,0.4-1.1,0.4c-0.4,0-0.8-0.1-1.1-0.4l-3-3C78.1,25.3,78.1,24.3,78.7,23.7z"></path></g></g></g></svg>