<svg height='100px' width='100px'  fill="#000000" xmlns="http://www.w3.org/2000/svg" xmlns:xlink="http://www.w3.org/1999/xlink" version="1.1" x="0px" y="0px" viewBox="0 0 100 100" enable-background="new 0 0 100 100" xml:space="preserve"><path d="M91.484,21.42c4.528-2.508,4.598-5.922,0.696-4.947l-20.898,5.225c-8.917,2.439-9.266,10.381-6.896,16.998  c2.229,3.623-2.021,4.389-6.409,5.225c-0.627-0.836-1.463-1.531-2.508-2.229l-0.349-0.07c-2.229-2.438,0.558-7.941-6.13-7.941  c-1.533,0-2.578,0.557-3.135,1.602c-2.438,0-4.11,0.418-4.25,2.787c0,0.141,0,0.418,0.07,0.279c0.696-0.975,2.508-0.488,3.762,0.209  l-0.836,2.926v0.139l-0.418,0.07c-1.045,0.627-1.881,1.393-2.438,2.16c-4.319-0.836-8.29-1.604-6.131-5.156  c2.369-6.617,2.021-14.559-6.896-16.998L7.819,16.473c-3.901-0.975-3.832,2.439,0.696,4.947c0.209,0.068,0.209,0.139-0.069,0.139  c-4.25,0.139-0.836,3.482,1.394,4.736c0.139,0.141,0.139,0.141-0.07,0.209c-1.254,0.488,0.14,2.578,1.603,3.135  c0.209,0.141,0.209,0.209,0,0.35c-0.976,0.836,0.418,2.158,1.672,2.646c0.209,0.07,0.209,0.07,0.069,0.279  c-0.418,0.695,0.836,1.949,1.812,2.158c0.209,0,0.209,0.07,0.14,0.209c-0.07,0.559,0.836,2.021,1.532,2.23  c0.209,0.07,0.209,0.139,0.209,0.279c-0.069,0.766,1.323,2.299,2.09,2.508c0.14,0,0.14,0.068,0.14,0.139  c-0.07,0.697,1.184,2.16,2.09,2.369c0.069,0,0.069,0.068,0.139,0.139c0.07,0.488,1.185,1.602,1.812,1.533  c0.069,0,0.14,0.068,0.14,0.139c0,0.557,1.045,1.254,1.741,1.393c0.14,0,0.209,0.07,0.209,0.209  c0.209,0.627,1.185,1.533,1.951,1.672c0.069,0,0.139,0.07,0.209,0.141c0.278,0.627,1.881,1.602,2.577,1.531  c0.069-0.068,0.14,0,0.209,0.07c0.278,0.418,1.812,0.697,2.508,0.627c0.069-0.07,0.14,0,0.209,0.07  c0.349,0.348,1.114,0.766,1.532,0.557c0.07,0,0.14,0,0.209,0.07c0.209,0.277,1.045,0.486,1.742,0.209c0.069-0.07,0.139-0.07,0.209,0  c0.348,0.557,1.602,0.418,2.02,0.139c0.07-0.07,0.14-0.139,0.209-0.139c0.418-0.07,0.836,0.068,1.672,0.209  c0.279,2.438,0.836,5.572,1.603,9.473c-1.745,0.582-5.11,2.244-4.974,4.484l-1.783,1.02l0.069,1.254l2.178-1.014  c1.329,1.672,4.94,0.047,7.436-1.076l0.349,0.766l0.209,0.418l-5.991,2.09c-0.976,0.35-0.487,2.092,0.14,2.092  c-0.349,0.418,0.627,2.09,1.184,1.881c-0.209,0.557,1.185,1.672,1.603,1.463c0,0.486,1.185,1.254,1.603,1.045  c0,0.557,1.323,1.184,1.603,0.904c0,0.418,1.811,0.977,2.229,0.488c0.209,0.557,1.533,0.836,2.09,0.07  c0.279,0.766,1.603,0.486,1.812-0.07c0.418,0.488,2.229-0.07,2.229-0.488c0.278,0.279,1.602-0.348,1.602-0.904  c0.418,0.209,1.603-0.559,1.603-1.045c0.418,0.209,1.812-0.906,1.603-1.463c0.558,0.209,1.532-1.463,1.185-1.881  c0.627,0,1.114-1.742,0.139-2.092l-5.991-2.09l0.209-0.418l0.349-0.766c2.4,1.08,5.835,2.625,7.275,1.252l2.547,1.186l0.07-1.254  l-2.017-1.15c0.376-2.35-3.149-4.1-4.95-4.701c0.767-3.9,1.324-6.965,1.533-9.404c1.114-0.209,1.672-0.348,2.09-0.277  c0.069,0,0.139,0.068,0.209,0.139c0.418,0.279,1.672,0.418,2.02-0.139c0.07-0.07,0.14-0.07,0.209,0  c0.697,0.277,1.533,0.068,1.742-0.209c0.069-0.07,0.139-0.07,0.209-0.07c0.418,0.209,1.184-0.209,1.532-0.557  c0.069-0.07,0.14-0.141,0.209-0.07c0.696,0.07,2.229-0.209,2.508-0.627c0.069-0.07,0.14-0.139,0.209-0.07  c0.696,0.07,2.299-0.904,2.577-1.531c0.07-0.07,0.14-0.141,0.209-0.141c0.767-0.139,1.742-1.045,1.951-1.672  c0-0.139,0.069-0.209,0.209-0.209c0.696-0.139,1.741-0.836,1.741-1.393c0-0.07,0.07-0.139,0.14-0.139  c0.627,0.068,1.741-1.045,1.812-1.533c0.069-0.07,0.069-0.139,0.139-0.139c0.906-0.209,2.16-1.672,2.09-2.369  c0-0.07,0-0.139,0.14-0.139c0.767-0.209,2.159-1.742,2.09-2.508c0-0.141,0-0.209,0.209-0.279c0.696-0.209,1.603-1.672,1.532-2.23  c-0.069-0.139-0.069-0.209,0.14-0.209c0.976-0.209,2.229-1.463,1.812-2.158c-0.14-0.209-0.14-0.209,0.069-0.279  c1.254-0.488,2.647-1.811,1.672-2.646c-0.209-0.141-0.209-0.209,0-0.35c1.463-0.557,2.856-2.646,1.603-3.135  c-0.209-0.068-0.209-0.068-0.07-0.209c2.229-1.254,5.644-4.598,1.394-4.736C91.275,21.559,91.275,21.488,91.484,21.42z   M46.97,35.699h1.394c0.209,0,0.209,0.35,0,0.35l-1.603,0.068L46.97,35.699z M45.298,36.258c0.14,0,0.209-0.141,0.209-0.209  c0-0.141-0.069-0.209-0.209-0.209s-0.209,0.068-0.209,0.209C45.089,36.117,45.158,36.258,45.298,36.258z M46.761,36.117  c0.278-0.557,1.394-0.486,1.045,0.211C47.527,37.023,46.482,36.885,46.761,36.117z M44.602,67.535L44.602,67.535 M54.562,41.344  c0.906,0.975-2.09,1.602-2.995,0.627c-0.696,1.045-2.368,1.393-3.413-0.07c-1.812,1.254-3.483,0.906-3.135-0.697l0.766-2.508  c0.558,0.209,0.906,0.209,1.115-0.277c0.139-0.559-0.14-0.906-1.115-1.324c0-0.488,0.209-0.977,0.418-1.463  c0.488-0.977,1.394-1.463,2.787-1.463C55.051,34.168,52.543,39.184,54.562,41.344z M67.521,65.863l0.905,0.488l1.603-2.09  l1.323,0.975l1.323-4.527l-2.855,1.533l4.04-4.877l1.185,0.906l1.463-4.529l-4.25,2.369l1.185,0.906l-4.598,5.643l2.09-8.291  l1.603,0.35l-0.697-4.738l-2.855,3.832l1.532,0.348l-2.438,9.404l-1.463,1.742l0.418,0.279l0.836-1.045L67.521,65.863z   M66.545,71.438l-1.114-0.348l-2.16,4.666l1.742-0.348h0.348l1.603,0.975L66.545,71.438z M62.644,73.666l0.976-1.74l0.905-1.463  l-0.139-0.07l-0.488-0.279l-1.045,1.951l-0.836,1.254l-0.278-0.209l-3.832,3.482l1.603,0.35l0.418,0.348l0.07,0.07l-0.488,1.045  l-0.278-0.209l-3.901,3.412l1.672,0.418l0.487,0.209l0.976,1.463l1.672-4.945l-0.209-0.07l0.418-0.836l0.558,0.836L62.644,73.666z   M68.913,63.287l0.767,0.627l-1.741,2.158l0.627-2.367L68.913,63.287z M31.992,65.795l0.349-0.418  c-0.558-0.559-1.254-0.977-1.881-1.395l0.069-0.209c0.418-0.277,1.254-3.135,1.463-4.318c0.487-2.717,0.278-2.438-1.045-0.418  c-0.349,0.488-0.696,0.975-0.836,1.463c-0.209-0.557-0.627-1.324-1.254-2.09c-1.532-2.229-1.741-2.717-1.045,0.488  c0.209,1.254,0.976,3.971,1.463,4.736c-0.418-0.139-0.905-0.418-1.532-0.488c-0.697-0.068-1.254-0.348-1.742-0.627  c0.418-1.881,0.418-1.881-1.394-4.457c-1.393-1.742-1.532-2.021-0.836,0.557c0.07,0.836,0.697,2.717,1.185,3.553  c-2.09-1.115-3.274-2.717-4.11-4.807c0.906-0.836,1.672-1.672,1.881-3.482c0.349-2.09,0.349-2.508-0.975-0.35  c-0.279,0.768-0.976,2.299-1.254,3.205c-0.349-1.045-0.627-2.16-0.836-3.344c0.139-0.627-0.07-2.855-0.209-3.762  c-0.697-2.369-0.697-2.16-0.976,0c-0.209,0.975-0.209,1.742,0.14,2.508c-0.418-0.418-0.836-0.906-1.394-1.254  c-1.741-1.393-2.159-1.742-0.767,0.697c0.558,0.836,2.021,2.646,2.578,3.203c0.209,0.697,0.418,1.463,0.696,2.16  c-0.627-0.627-1.463-1.254-1.95-1.463c-2.09-1.324-1.951-1.184-0.906,0.279c-1.184-0.209-1.184-0.141,0.279,0.975  c0.766,0.488,2.508,1.672,2.995,1.602l0.209-0.068c0.767,1.463,1.881,2.717,3.135,3.621c-1.114-0.277-2.856-0.486-3.622-0.557  c-3.344-0.209-2.856,0.07-0.418,1.184c0.905,0.559,1.672,0.697,2.438,0.697c-0.418,0.418-0.975,0.697-1.532,1.254  c-1.741,1.533-2.021,1.811,0.696,0.906c1.185-0.35,3.762-1.533,3.901-2.16l0.14-0.279v-0.068c0.767,0.418,1.672,0.695,2.577,0.904  c0.558,0.07,1.045,0.141,1.533,0.35c-1.115,0.139-3.553,0.975-4.528,1.322c-3.135,1.324-2.647,1.324,0.069,1.324  c2.926,0,4.041-0.697,5.573-2.09C30.947,65.027,31.505,65.377,31.992,65.795z M34.918,70.811L34.36,71.02  c1.254,2.16,1.394,4.736,0.418,6.758l0.697,0.277C36.45,76.105,36.172,73.18,34.918,70.811z M32.619,69.625  c-0.418,0.209,0.069,1.395,0.558,1.115l2.786-1.463c0.418-0.139-0.069-1.254-0.558-1.045L32.619,69.625z M31.853,68.094  c-0.418,0.209,0.14,1.322,0.558,1.113l2.021-1.045c-0.558,0.07-0.906-0.139-1.045-0.836L31.853,68.094z M33.733,65.098l0.14,2.508  c0,0.418,1.114,0.627,1.114-0.07l-0.069-2.508C34.918,64.609,33.664,64.541,33.733,65.098z M31.017,66.561  c-0.348,0.139,0.209,1.254,0.627,1.045l2.021-1.045l-0.209-1.254L31.017,66.561z M67.241,69.975l-2.786-1.395  c-0.487-0.209-0.976,0.906-0.558,1.045l2.787,1.465C67.172,71.367,67.659,70.184,67.241,69.975z M68.008,68.441l-1.532-0.766  c-0.14,0.695-0.488,0.904-1.045,0.836l2.02,1.045C67.868,69.766,68.426,68.65,68.008,68.441z M66.127,65.445  c0.069-0.557-1.185-0.486-1.185-0.068l-0.069,2.508c0,0.695,1.114,0.486,1.114,0.068L66.127,65.445z M68.844,66.908l-2.438-1.254  l-0.209,1.254l2.021,1.045C68.635,68.162,69.192,67.049,68.844,66.908z"></path></svg>