<svg height='100px' width='100px'  fill="#000000" xmlns="http://www.w3.org/2000/svg" xmlns:xlink="http://www.w3.org/1999/xlink" version="1.1" x="0px" y="0px" viewBox="0 0 512 512" style="enable-background:new 0 0 512 512;" xml:space="preserve"><title>ElectionDay-pollingday-election-vote-democracy</title><path d="M496,64c0-13.2-10.8-24-24-24h-32V16h-16v24h-48V16h-16v24H152V16h-16v24H88V16H72v24H40c-13.2,0-24,10.8-24,24v368  c0,13.2,10.8,24,24,24h168v16c0,13.2,10.8,24,24,24h232c13.2,0,24-10.8,24-24V353.9c5.1-4.5,8-11,8-17.9v-13.4  c0-0.9-0.1-1.7-0.2-2.6h0.2V64z M432,88c4.4,0,8,3.6,8,8s-3.6,8-8,8s-8-3.6-8-8C424,91.6,427.6,88,432,88z M368,88c4.4,0,8,3.6,8,8  s-3.6,8-8,8s-8-3.6-8-8C360,91.6,363.6,88,368,88z M144,88c4.4,0,8,3.6,8,8s-3.6,8-8,8s-8-3.6-8-8C136,91.6,139.6,88,144,88z M80,88  c4.4,0,8,3.6,8,8s-3.6,8-8,8s-8-3.6-8-8C72,91.6,75.6,88,80,88z M440,480H256v-80c0-4.4,3.6-8,8-8h168c4.4,0,8,3.6,8,8V480z   M472,472c0,4.4-3.6,8-8,8h-8v-80c0-13.2-10.8-24-24-24H264c-13.2,0-24,10.8-24,24v80h-8c-4.4,0-8-3.6-8-8V360h248V472z M480,336  c0,4.4-3.6,8-8,8H224c-4.4,0-8-3.6-8-8v-8h264V336z M400,296v-16h-11.7l10.7-24h53.5c3.4,0,6.5,2.2,7.6,5.5l16.8,50.5H219.1  l16.8-50.5c1.1-3.3,4.1-5.5,7.6-5.5h73.9l-10.7,24H296v16H400z M324.3,280l24.9-56h46.5l-24.9,56H324.3z M480,270.7l-4.8-14.3  c-3.3-9.8-12.4-16.4-22.8-16.4h-46.4l4.2-9.5c3.6-8.1,0-17.5-8.1-21.1c-2-0.9-4.3-1.4-6.5-1.4h-46.5c-6.3,0-12.1,3.7-14.6,9.5  l-10,22.5h-81c-10.3,0-19.5,6.6-22.8,16.4L201.2,315c-0.8,2.4-1.2,5-1.2,7.6V336c0,6.8,2.9,13.3,8,17.9V440H40c-4.4,0-8-3.6-8-8V152  h448V270.7z M480,136H32V64c0-4.4,3.6-8,8-8h32v17.4C59.5,77.8,53,91.5,57.4,104s18.1,19,30.6,14.6c12.5-4.4,19-18.1,14.6-30.6  c-2.4-6.8-7.8-12.2-14.6-14.6V56h48v17.4c-12.5,4.4-19,18.1-14.6,30.6c4.4,12.5,18.1,19,30.6,14.6c12.5-4.4,19-18.1,14.6-30.6  c-2.4-6.8-7.8-12.2-14.6-14.6V56h208v17.4c-12.5,4.4-19,18.1-14.6,30.6s18.1,19,30.6,14.6c12.5-4.4,19-18.1,14.6-30.6  c-2.4-6.8-7.8-12.2-14.6-14.6V56h48v17.4c-12.5,4.4-19,18.1-14.6,30.6s18.1,19,30.6,14.6c12.5-4.4,19-18.1,14.6-30.6  c-2.4-6.8-7.8-12.2-14.6-14.6V56h32c4.4,0,8,3.6,8,8V136z"></path><rect x="192" y="88" width="128" height="16"></rect><path d="M112,176H48v64h64V176z M96,224H64v-32h32V224z"></path><path d="M200,176h-64v64h64V176z M184,224h-32v-32h32V224z"></path><path d="M112,264H48v64h64V264z M96,312H64v-32h32V312z"></path><polygon points="184,312 152,312 152,280 200,280 200,264 136,264 136,328 184,328 "></polygon><path d="M112,352H48v64h64V352z M64,368h20.7L64,388.7V368z M96,400H75.3L96,379.3V400z"></path><polygon points="192,400 152,400 152,368 192,368 192,352 136,352 136,416 192,416 "></polygon><polygon points="240,192 272,192 272,224 288,224 288,176 224,176 224,224 240,224 "></polygon><rect x="312" y="176" width="64" height="16"></rect><rect x="400" y="176" width="64" height="16"></rect></svg>