<svg height='100px' width='100px'  fill="#000000" xmlns="http://www.w3.org/2000/svg" xmlns:xlink="http://www.w3.org/1999/xlink" xmlns:a="http://ns.adobe.com/AdobeSVGViewerExtensions/3.0/" version="1.1" x="0px" y="0px" viewBox="-11.987 -5 100 100" enable-background="new -11.987 -5 100 100" xml:space="preserve"><path fill="#000000" d="M75.659,75.796C75.563,75.332,75.153,75,74.68,75h-7.672V11.713c0-5.916-0.01-11.497-3.907-11.694  C63.068,0.016,63.041,0,63.008,0h-0.114H4.432c-0.56,0-1.394,0.2-2.193,1.153C0.297,3.469-0.531,9.189,0.353,14.175  C0.438,14.652,0.853,15,1.338,15h4.671v61.803C6.009,83.71,9.4,90,13.124,90c68.288,0-10.329,0,58.884,0  C74.77,90,76.913,81.825,75.659,75.796z M2.194,13C1.367,6.898,3.257,2,4.432,2c1.871,0,1.578,5.633,1.578,11H2.194z M8.009,76.803  v-65.74C8.011,6.543,7.998,3.756,7.25,2h55.644c1.787,0,2.114,3.271,2.114,9.713V75H16.309c-0.615,0-1.084,0.553-0.987,1.158  C15.964,80.172,15.246,88,13.124,88C11.064,88,8.009,83.298,8.009,76.803z M71.586,88h-55.56c1.523-2.766,1.696-7.896,1.412-11  h56.403C74.599,82.199,72.774,88,71.586,88z M47.347,19H28.68c-1.323,0-1.324-2,0-2h18.667C48.669,17,48.672,19,47.347,19z   M57.347,25H18.679c-1.323,0-1.322,2,0,2h38.667C58.672,27,58.669,25,57.347,25z M57.347,33H18.679c-1.323,0-1.322,2,0,2h38.667  C58.672,35,58.669,33,57.347,33z M57.347,41H18.679c-1.323,0-1.322,2,0,2h38.667C58.672,43,58.669,41,57.347,41z M57.347,49H18.679  c-1.323,0-1.323,2,0,2h38.667C58.671,51,58.669,49,57.347,49z M45.951,66.087c-0.722-0.563-2.685-2.097-3.737-2.578  c0.111,0.472,0.208,0.693,0.344,0.978c0.594,1.256-0.516,2.598-2.209,0.647c-2.938-3.384-6.157-3.976-7.349-3.099  c-0.751,0.551-0.643,1.784,0.29,3.301c0.695,1.132-1.014,2.171-1.704,1.047c-1.809-2.942-1.066-5.008,0.23-5.96  c1.827-1.34,5.28-0.91,8.482,1.841c0.938-2.174,3.958,0.028,5.809,1.421c1.032-1.938,5.231-0.754,10.411-0.685  c1.262,0.016,1.364,1.929-0.025,2c-3.152-0.04-7.361-0.737-8.516-0.367C49.888,67.393,47.817,67.545,45.951,66.087z"></path></svg>