<svg height='100px' width='100px'  fill="#000000" xmlns="http://www.w3.org/2000/svg" xmlns:xlink="http://www.w3.org/1999/xlink" version="1.1" x="0px" y="0px" viewBox="0 0 512 512" style="enable-background:new 0 0 512 512;" xml:space="preserve"><path d="M217,424.1c0-5-4-9-9-9c-2.4,0-4.7,0.9-6.3,2.6l-24,24c-3.5,3.5-3.5,9.2,0,12.7c3.5,3.5,9.2,3.5,12.7,0l8-8l16-16  C216,428.8,217,426.5,217,424.1z"></path><path d="M193,400.1c0-5-4-9-9-9c-2.4,0-4.7,0.9-6.3,2.6l-8,8l-16,16c-3.5,3.5-3.5,9.2,0,12.7c3.5,3.5,9.2,3.5,12.7,0l24-24  C192,404.8,193,402.5,193,400.1z"></path><path d="M161,384.1c0-5-4-9-9-9c-2.4,0-4.7,0.9-6.3,2.6l-16,16c-3.5,3.5-3.5,9.2,0,12.7c3.5,3.5,9.2,3.5,12.7,0l16-16  C160,388.8,161,386.5,161,384.1z"></path><path d="M72,296.1H40c-4.4,0-8,3.6-8,8v112c0,4.4,3.6,8,8,8h32c4.4,0,8-3.6,8-8v-112C80,299.7,76.4,296.1,72,296.1z"></path><path d="M358.3,425.8l-70.8-70.8l-26.6,22.1c-13,10.8-32.2,9-43-3.9c-10.8-13-9-32.2,3.9-43l50.5-42.1h-53.7c-0.9,0-1.7,0.1-2.5,0.4  L149,310.9c-2.4,0.8-5,1.2-7.6,1.2h0L96,312v88l15,0c0-6.6,2.6-13,7.3-17.6l16-16c9.7-9.8,25.5-9.8,35.3,0c2.8,2.8,4.9,6.3,6.1,10.1  c13-4.5,27.3,2.3,31.8,15.4c0.8,2.3,1.3,4.8,1.4,7.3c13.1,0.5,23.5,11,24,24c12.5,0.5,22.7,10,23.9,22.5l8.8,8.8l16,16  c3.5,3.5,9.2,3.5,12.7,0c3.5-3.5,3.5-9.2,0-12.7l-36-36l11.3-11.3l36,36l8,8c3.5,3.5,9.2,3.5,12.7,0c3.5-3.5,3.5-9.2,0-12.7  c0,0,0,0,0,0l-52-52l11.3-11.3l52,52l8,8c3.5,3.5,9.2,3.5,12.7,0C361.8,435,361.9,429.3,358.3,425.8  C358.4,425.8,358.3,425.8,358.3,425.8z"></path><path d="M238.3,441.8c-3.5-3.5-9.2-3.5-12.7,0l-16,16c-3.5,3.5-3.5,9.2,0,12.7c3.5,3.5,9.2,3.5,12.7,0l16-16  C241.8,450.9,241.8,445.3,238.3,441.8z"></path><path d="M386.6,310.7l-54-19.6c-16.7-6-35.4-2.8-49.1,8.6l-51.4,42.9c-6.2,5.1-7,14.3-1.9,20.5c5.1,6.2,14.3,7,20.5,1.9l37.8-31.5  l5.2,5.2c15.3,15.4,39.8,16.7,56.7,3.1l4.7-3.7l10,12.5l-4.7,3.7c-10.8,8.7-24.4,13.2-38.2,12.8l41.2,41.2l27-0.1  c4.7,0,9.3-1.4,13.3-4l12.4-8.3v-83.6h-21.2C392,312.1,389.2,311.6,386.6,310.7z"></path><path d="M472,296.1h-32c-4.4,0-8,3.6-8,8v112c0,4.4,3.6,8,8,8h32c4.4,0,8-3.6,8-8v-112C480,299.7,476.4,296.1,472,296.1z"></path><path d="M254.3,465.8l-2.5-2.5c-0.7,0.9-1.4,1.7-2.2,2.5l-10.3,10.3l2.3,2.3c3.5,3.5,9.2,3.5,12.7,0  C257.8,475,257.9,469.3,254.3,465.8C254.4,465.8,254.3,465.8,254.3,465.8z"></path><polygon points="363.1,144 365,140.2 256,96.6 147,140.2 148.9,144 "></polygon><path d="M280,89V72c0-10.2-6.4-19.2-16-22.6V32h-16v17.4c-9.6,3.4-16,12.5-16,22.6v17l24-9.6L280,89z"></path><polygon points="368,240 360,240 360,160 344,160 344,240 328,240 328,160 312,160 312,240 296,240 296,160 280,160 280,240   264,240 264,160 248,160 248,240 232,240 232,160 216,160 216,240 200,240 200,160 184,160 184,240 168,240 168,160 152,160   152,240 144,240 144,256 368,256 "></polygon></svg>