<svg height="100" width="100" xmlns="http://www.w3.org/2000/svg">
    <path d="M50 2.6C23.8 2.6 2.5 23.9 2.5 50.1S23.8 97.6 50 97.6s47.5-21.3 47.5-47.5S76.2 2.6 50 2.6zm0 91.2c-24.2 0-43.7-19.6-43.7-43.7S25.8 6.4 50 6.4 93.7 26 93.7 50.1 74.1 93.8 50 93.8z"/>
    <path d="M88.8 50.1c0 21.5-17.4 38.8-38.8 38.8S11.2 71.6 11.2 50.1 28.5 11.2 50 11.2c21.5 0 38.8 17.4 38.8 38.9M46.3 38.5s2.5 1.2-.2 3.9c-1.1 1.1-1.9 1.3-2.8 2.5h13.3l-2.8-11.6H47l-1.8 2.4H42v4l1.2-1.2h3.1zM27.6 52.2l10.6 7.2c-.6-1.8-.8-3.8-.6-5.7.1-1.5.3-3 .7-4.4h-2.8l-1-3.3 2.2-1.4v-7l-14.4-7.4v3.6l5.3 6.6v11.8zm35.7-14.5v7l2.2 1.4-1 3.3h-2.8c.4 1.4.6 2.9.7 4.4.2 1.9 0 3.8-.6 5.7l10.6-7.3V40.5l5.3-6.6v-3.6l-14.4 7.4zm-9.5 33.6c-1.2 1-2.5 1.9-3.8 2.7-1.3-.8-2.6-1.7-3.8-2.7v3.6l-3.8 3.6 7.6 5.7 7.6-5.7-3.8-3.6v-3.6zM50 68.9c9-4.1 8.2-13.8 8.2-13.8 0-1.9-.3-3.9-.8-5.8H42.5c-.5 1.9-.8 3.8-.8 5.8.1.1-.7 9.7 8.3 13.8zm-4.9-38.8l4.9-3.6 4.9 3.6-1.9-5.8 5-3.6h-6.1L50 14.9l-1.9 5.8H42l5 3.6-1.9 5.8zm-5.5 33.2l-3.3 2.2 1 1.4-3.5 2.5-.9-1.3-2.4 1.7-3.8-5.3 1.8-1.3-6.1-3.5 1.3 6.9 1.9-1.3 3.8 5.3-2.2 1.6 3.1 4.4 2.2-1.6 3.1 4.4 1.2-.8-3.1-4.4 2.3-1.7-1-1.3 3.5-2.5 1 1.4 3.3-2.2c-1.3-1.4-2.4-3-3.2-4.6zm33.7 1.1l-3.8 5.3-2.4-1.7-.9 1.3-3.5-2.5 1-1.4-3.3-2.2c-.8 1.7-1.9 3.2-3.2 4.5l3.3 2.2 1-1.4L65 71l-1 1.3 2.4 1.7-3.1 4.4 1.1.8 3.1-4.4 2.2 1.6 3.1-4.4-2.2-1.6 3.8-5.3 1.9 1.3 1.3-6.9-6.1 3.4 1.8 1.5z"/>
</svg>
