<svg height="100" width="100" xmlns="http://www.w3.org/2000/svg" viewBox="0 0 39370.08 39370.08" fill-rule="evenodd" clip-rule="evenodd" shape-rendering="geometricPrecision" text-rendering="geometricPrecision" image-rendering="optimizeQuality">
    <path d="m15314.19 28381.07 9966.93-17263.22c99.83-172.92-136.14-311.52-237.56-135.68l-9965.5 17260.75c-110.85 192 127.78 325.8 236.13 138.15zm4179.39-8330.59-5223.29-9047.01c-120.09-208.01-355.28-67.67-238.05 135.36l5303.24 9185.48 158.1-273.83zm-314.99 545.57-704.78-1220.7c-3058.56 541.88-4545.48 2257.68-6328.11 4315.36l-22.05 25.45c-1751.85 2022.11-4532.72 3200.8-7103.48 3739.47-115.39 24.18-242.67 59.43-333.16 54.78-53.48.69-93.17-22.06-119.67-68.18L280.15 20016.61c-52.94-76.71-14.65-184.59 77.01-209.09 2573.52-689.57 5523.22-1745.54 7310.8-3808.87 1701.11-1963.54 3662.88-3885.77 6299.74-4428.11l-172.45-298.7c-288.95-500.46 403.29-937.17 713.2-400.39l5142.31 8906.75 5153.17-8925.55c289.71-501.72 991.91-87.52 713.49 401.15l-176.19 304.44c1303.14 256.5 2442.69 848.36 3474.17 1626.48 4390.1 3311.76 3459.04 4817.25 10197.49 6622.81 91.66 24.49 129.95 132.38 77.01 209.09l-4263.52 7384.64c-57.22 99.12-80.76 118.55-202.3 107.51-82.48-7.49-182.13-33.84-274.2-53.13-1136.38-238.11-2503.72-621.83-3959.86-1367.15-1596.55-817.19-2494.53-1634.67-3607.92-2906.51-1611.89-1841.28-3104.74-3332.07-5947.73-3817.61l-711.43 1232.22 4332.81 7504.64c299.02 517.98-420.85 906.81-703.03 418.03l-4101.97-7104.81-4096.57 7095.48c-298.36 516.78-997.11 90.93-714.68-398.38l4339.07-7515.48zm-953.52-1651.54-484.09-838.47c-1462.2 263.35-2584.55 818.04-3558.99 1557.69-1016.33 771.44-1867 1740.09-2775.23 2788.43-1695.33 1956.87-4721.97 3323.1-7237.8 3756.58l475.42 823.44c2543.6-423.79 5579.15-1830.88 7288.01-3803.37 903.63-1043.03 1738.91-2002.26 2733.43-2757.63 962.03-730.7 2078.02-1274.67 3559.26-1526.67zm-751.16-1301.05-484.01-838.33c-1425.54 262.89-2547.14 823.38-3529.27 1567.91-1022.98 775.5-1892.03 1748.88-2796.48 2792.87-1707.57 1970.99-4715.07 3280.94-7234.32 3762.61l477.96 827.85c2546.78-480.19 5559.62-1825.73 7281.98-3813.81 899.21-1037.93 1751.85-2000.96 2754.68-2761.67 970.53-736.21 2086.07-1286.3 3529.46-1537.44zm-751.18-1301.07-398.59-690.38c-925.54 178.05-1767.37 532.55-2546.19 1006.08-805.26 489.6-1544.61 1107.63-2240.22 1790.27-108.83 106.79-287.93 82.45-364.46-49.58l-.23.13-2061.54-3570.68c-427.01 432.21-837.8 886.77-1237.79 1348.46-1781.85 2056.73-4704.35 3153.66-7275.04 3848.14L948.65 20631c2569.76-667.18 5496.16-1785.21 7270.65-3833.44 252.86-291.87 509.03-580.6 771.75-863.64l264.19 456.67c-278.73 300.15-550.74 606.98-818.95 916.56-1746.22 2015.6-4684.5 3151.65-7224.25 3780.06l468.15 810.86c2595.09-625.89 5497.81-1755.15 7281.72-3814.27 253.77-292.92 507.26-586.14 767.76-873.12l267.81 462.93c-278.45 301.72-549.75 609.5-818.57 919.79-1754.21 2024.83-4682.8 3176.45-7235.64 3760.33l486.36 842.4c2545.56-565.31 5534.44-1817.1 7274.91-3826.07 253.73-292.87 509.53-584 771.12-869.89l263.02 454.65c-276.15 304.78-547.84 613.99-817.14 924.83-1713.21 1977.5-4715 3248.05-7229.57 3770.83l475.96 824.37c2550.55-525.87 5544.3-1815.96 7279.24-3818.56 894.25-1032.2 1763.91-1998.59 2775.93-2765.3 979.48-742.06 2094.66-1298.44 3499.65-1548.63zm-542.13-938.99-2069.35-3584.21c-1901.25 365.79-3448.21 1480.58-4800.28 2810.01l2072.37 3589.45c697.9-681.15 1441.46-1299.03 2253.87-1792.97 779.14-473.72 1620.32-832.39 2543.38-1022.28zm-1522.44-677.57c2.39 54.68 4.78 109.36 6.65 162.48-51.36 18.83-102.73 37.65-153.97 55.77 1.08 30.25 2.17 60.5 3.38 90.05 52.6 15.12 105.2 30.24 157.15 44.51 1.49 55.26 3.11 109.8 4.72 164.35 28.9 8.75 57.92 16.8 86.16 24.69 30.52-45.96 60.9-91.2 91.41-137.17 51.83 14.98 103.65 29.97 155.48 44.96 17.06-24.13 33.47-49.11 49.1-74.22-32.58-42.39-65.95-84.93-99.19-128.17 30.26-44.54 60.65-89.78 91.04-135.04a2461.565 2461.565 0 0 1-54.09-70.38c-51.37 18.83-102.74 37.65-153.33 56.62-33.36-42.54-66.6-85.78-99.84-129.02-28.27 10.43-56.53 20.85-84.67 30.57zm-4175.94-343.89c18.75 51.42 36.72 102.94 54.5 153.04-42.52 33.32-86.62 66.85-129.93 100.27 10.15 28.52 20.2 56.33 29.47 84.24 54.71-1.43 110.21-2.96 164.14-4.28 18.75 51.42 36.72 102.94 54.6 153.76 30.19-.36 60.28-1.44 89.6-2.41 15.34-52.3 30.69-104.6 46.04-156.9 54.71-1.43 108.65-2.75 162.58-4.07 9-28.15 17.02-57.62 25.15-86.38-44.63-30.51-89.25-61.02-133.97-92.24 15.34-52.3 30.69-104.6 46.13-156.19-24.46-16.43-48.23-33.67-73.56-50.71-42.53 33.32-85.84 66.74-129.15 100.17-44.63-30.51-89.35-61.73-134.85-92.85-23.03 18.35-46.84 36.81-70.74 54.55zm1375.06-1075.07c12.09 52.65 24.19 106.03 35.5 158.69a7150.504 7150.504 0 0 1-141.57 83.04c6.46 30.3 12.92 59.15 18.58 88.01 54.46 5.51 108.91 11.01 163.36 15.8l33.93 160.15c30.78 3.46 59.98 6.2 89.18 8.94 21.84-49.94 43.67-99.88 65.51-150.54 54.46 6.23 108.13 11.74 161.79 16.53 12.48-27.51 24.18-55.01 35.87-82.51-40.41-35.91-80.82-72.54-122.02-109.16 22.63-49.22 44.47-99.16 66.3-149.1-22.19-19.39-44.37-39.5-67.35-59.6-46.4 27.67-92.8 55.35-140 82.3-40.41-35.91-80.81-71.09-122.01-107.72-25.17 15.3-51.12 30.59-77.08 45.17zm1596.72-654.09c5.51 54.46 11.03 108.91 15.76 163.28-50.29 22.45-100.41 43.46-150.54 64.48 2.81 30.14 5.62 60.29 8.52 89.71 53.38 12.09 107.54 24.28 160.23 35.56 4.73 54.36 9.46 108.72 15.14 161.75 29.35 7.09 58.78 13.45 87.43 19.73 27.75-46.91 55.5-93.82 83.17-140.02 53.47 11.37 106.85 23.46 159.44 35.46 15.65-25.07 31.39-50.85 46.35-76.72-35.74-40.56-73.05-81.3-109.48-122.66 28.53-46.82 56.37-94.45 84.12-141.36-19.74-21.23-39.32-43.89-58.89-66.55-50.21 21.73-100.42 43.46-150.62 65.19-35.74-40.56-71.39-81.83-107.92-122.48-27.62 12.02-55.16 23.33-82.7 34.64zm-1764.53 2213.44c18.21 51.61 36.41 103.24 53.66 153.51-43.66 32.96-87.32 65.93-131.07 98.17 9.85 28.63 19.6 56.54 28.57 84.55 54.73-.85 109.46-1.69 164.09-3.26 17.51 52.43 34.94 104.14 52.44 156.57 30.98-.14 61.08-.89 90.4-1.55 15.9-52.14 30.93-104.89 46.83-157.03 54.72-.85 109.45-1.69 163.39-2.44 9.3-28.05 17.63-57.44 26.06-86.11-44.3-30.98-88.69-62.68-133.85-94.28 16.77-51.51 32.75-102.93 48.65-155.07-24.28-16.68-48.65-34.08-73.8-51.39-42.88 32.87-86.54 65.83-130.2 98.79-44.3-30.98-88.69-62.67-133.77-93.56-23.31 17.39-47.32 35.59-71.41 53.08zm1509.7-833.71c8.11 54.13 17 108.31 24.31 162.39-49.11 24.1-98.23 48.2-147.29 71.58 4.2 30.69 8.49 59.94 12.79 89.2 53.9 9.53 107.79 19.06 161.74 27.87 7.32 54.07 14.64 108.15 21.95 162.23 29.7 4.96 60.19 9.97 89.11 14.87l76.44-144.54c53.9 9.52 107.8 19.06 160.91 28.53 14.44-25.78 28.98-53 42.68-79.56-37.63-38.8-76.84-77.72-115.21-117.3 26.22-47.41 51.7-95.59 77.18-143.77-20.69-20.98-41.32-42.68-61.95-64.38-49.11 24.1-98.23 48.2-147.29 71.58-37.63-38.8-76-78.39-113.58-117.91-27.02 13.33-54.82 26.6-81.79 39.21zm-1541.59 2373.11c15.46 52.51 30.18 105.79 44.8 157.63-44.55 30.56-89.94 60.45-135.33 90.35 8.32 29.11 16.59 57.49 24.02 85.21 54.69 2.04 109.39 4.09 163.3 6.19 15.41 51.78 30.08 104.34 44.8 157.63 30.94 1.5 61.04 2.33 90.35 3.22 18.63-51.22 37.2-103.17 55.88-153.67 53.91 2.1 108.6 4.14 162.51 6.24 10.76-27.52 20.69-55.71 30.67-83.17-42.6-33.27-85.2-66.54-128.65-100.49 19.42-51.27 38.04-102.5 56.67-153.72-23.37-17.94-46.79-36.6-70.99-55.21-44.55 30.56-89.89 61.17-134.44 91.73-43.39-33.22-86.09-67.93-129.53-101.87-24.15 16.86-49.08 33.77-74.06 49.95zm1396.16-952.54c12.89 53.37 24.2 107.48 35.51 160.15-46.4 27.67-94.39 54.63-140.79 81.59 6.46 29.57 12.91 58.43 18.58 87.29 54.46 5.5 108.91 11.01 162.57 15.8 12.89 53.38 24.2 107.48 35.51 160.86 29.99 2.74 59.98 5.48 89.96 8.94 21.83-50.66 43.67-100.6 65.5-151.26 54.46 6.22 108.92 12.46 162.58 17.96 12.48-28.22 24.18-55.72 35.87-82.5-41.2-35.9-81.61-71.81-122.81-108.43 22.63-49.22 44.46-99.16 66.3-149.1-22.19-19.39-44.37-40.22-67.35-60.33-46.4 27.68-93.59 56.08-140.78 83.03-40.41-36.63-81.61-72.53-122.81-109.15-25.17 15.29-51.91 30.59-77.87 45.16zm6754.22 5689.08 4178.19 7236.83c111.24 192.69 346.8 52.98 238.43-134.7l-4258.52-7375.97-158.1 273.84zm1274.82-2208.06c1512.29 247.23 2646.01 796.19 3621.47 1537.08 837.92 636.43 1562.8 1417.56 2310.75 2271.61 1142.75 1304.84 2040.65 2090.28 3617.89 2898.94 1516.01 777.27 3061.63 1218.65 4092.79 1390.45l475.42-823.44c-2515.83-433.48-5542.47-1799.71-7237.8-3756.58-908.23-1048.34-1758.9-2016.99-2775.23-2788.43-988.15-750.05-2128.37-1309.93-3620.88-1568.65l-484.41 839.03zm751.28-1301.25c1473.58 246.04 2607.15 801.31 3591.56 1548.05 1002.83 760.71 1855.47 1723.74 2754.68 2761.67 1722.36 1988.08 4735.2 3333.62 7281.98 3813.81l477.96-827.85c-2519.24-481.67-5526.75-1791.62-7234.32-3762.61-904.45-1043.98-1773.5-2017.37-2796.48-2792.87-996.27-755.26-2136.04-1321.16-3591.03-1579.11l-484.35 838.92zm751.3-1301.28c1434.24 244.71 2567.79 806.51 3561.62 1559.44 1012.02 766.71 1881.69 1733.09 2775.93 2765.3 1734.94 2002.59 4728.7 3292.69 7279.24 3818.56l475.96-824.37c-3663.61-761.67-5613.64-2010.38-8046.72-4695.67l263.02-454.65c2471.67 2701.28 4367.04 3878.93 8046.02 4695.95l486.36-842.4c-3814.88-872.52-5498.98-1911.34-8054.21-4680.12l267.81-462.93c2531.19 2788.52 4282.35 3778.83 8049.48 4687.39l468.15-810.86c-3830.22-947.7-5451.11-1905.34-8043.2-4696.62l264.19-456.67c2600.15 2801.25 4230.37 3707.38 8042.41 4697.08l349.98-606.17c-4547.54-1228.53-5433.42-2079.7-8512.83-5196.59l-2061.54 3570.68-.23-.13c-76.54 132.03-255.63 156.37-364.46 49.58-695.61-682.65-1434.96-1300.67-2240.22-1790.27-796.06-484.01-1657.95-843.64-2607.76-1017.62l-399 691.1zm542.97-940.46c947.08 186.45 1808.21 550.41 2604.51 1034.56 812.4 493.94 1555.96 1111.82 2253.87 1792.97l2072.37-3589.45c-448.86-441.34-916.11-856.04-1407.85-1227-1025.74-773.79-2158.51-1357.28-3453.98-1594.57l-2068.93 3583.48zm1583.57-665.29c-2.39 54.69-4.78 109.37-6.65 162.49 51.37 18.82 102.74 37.65 153.98 55.77-1.09 30.25-2.17 60.5-3.38 90.05-52.6 15.12-105.2 30.24-157.15 44.52-1.49 55.26-3.11 109.8-4.72 164.34-28.89 8.75-57.91 16.8-86.15 24.69-30.52-45.96-60.9-91.2-91.42-137.16-51.82 14.98-103.65 29.97-155.47 44.95-17.06-24.12-33.47-49.11-49.1-74.22 32.58-42.39 65.95-84.93 99.19-128.17-30.26-44.54-60.65-89.78-91.04-135.04 18.37-23.03 36.62-46.77 54.09-70.37 51.37 18.82 102.73 37.65 153.33 56.61 33.36-42.54 66.6-85.77 99.84-129.02 28.26 10.42 56.53 20.85 84.66 30.56zm4175.94-343.89c-18.75 51.43-36.72 102.95-54.5 153.04 42.52 33.32 86.62 66.85 129.93 100.28-10.15 28.52-20.2 56.33-29.46 84.24-54.72-1.43-110.21-2.96-164.14-4.28-18.75 51.43-36.72 102.95-54.6 153.76-30.19-.36-60.28-1.44-89.59-2.41-15.35-52.3-30.69-104.6-46.04-156.9-54.71-1.43-108.65-2.75-162.58-4.07-9-28.15-17.02-57.62-25.15-86.38 44.63-30.51 89.25-61.02 133.97-92.24-15.34-52.3-30.69-104.6-46.13-156.19 24.46-16.43 48.23-33.67 73.56-50.71 42.53 33.31 85.84 66.74 129.15 100.17 44.63-30.51 89.35-61.73 134.85-92.85 23.03 18.36 46.84 36.81 70.74 54.55zm-1375.06-1075.06c-12.09 52.66-24.19 106.03-35.5 158.69 47.19 28.41 94.37 56.08 141.57 83.04-6.46 30.3-12.91 59.16-18.58 88.01-54.46 5.51-108.91 11.01-163.36 15.8-11.31 53.39-22.62 106.77-33.93 160.15-30.78 3.46-59.98 6.2-89.18 8.94-21.84-49.94-43.67-99.88-65.51-150.54-54.46 6.23-108.13 11.74-161.79 16.53-12.48-27.51-24.18-55.01-35.87-82.51 40.41-35.91 80.82-72.54 122.02-109.16-22.63-49.22-44.46-99.16-66.3-149.1 22.18-19.39 44.37-39.5 67.34-59.61 46.4 27.68 92.8 55.35 140 82.31 40.41-35.91 80.81-71.09 122.02-107.72 25.16 15.3 51.12 30.59 77.07 45.17zm-1596.72-654.09c-5.52 54.46-11.03 108.91-15.76 163.28 50.29 22.45 100.42 43.46 150.54 64.48-2.81 30.14-5.63 60.29-8.52 89.71-53.38 12.09-107.54 24.27-160.22 35.55-4.73 54.36-9.46 108.72-15.15 161.75-29.35 7.09-58.78 13.45-87.43 19.73-27.75-46.91-55.5-93.82-83.17-140.02-53.46 11.37-106.85 23.46-159.44 35.46-15.65-25.06-31.39-50.85-46.35-76.72 35.74-40.56 73.05-81.3 109.48-122.66-28.53-46.82-56.37-94.45-84.12-141.36 19.74-21.23 39.32-43.89 58.9-66.55 50.2 21.73 100.41 43.46 150.62 65.2 35.74-40.56 71.39-81.83 107.91-122.48 27.62 12.02 55.16 23.33 82.7 34.64zm1764.53 2213.44c-18.21 51.61-36.42 103.23-53.66 153.51 43.66 32.96 87.32 65.93 131.07 98.17-9.85 28.63-19.6 56.54-28.57 84.55-54.73-.85-109.46-1.69-164.09-3.26-17.51 52.43-34.94 104.14-52.44 156.57-30.98-.13-61.08-.89-90.4-1.55-15.9-52.13-30.93-104.89-46.83-157.02-54.72-.85-109.45-1.69-163.39-2.44-9.3-28.05-17.63-57.43-26.06-86.11 44.3-30.98 88.69-62.67 133.85-94.27-16.77-51.51-32.75-102.93-48.65-155.06 24.28-16.69 48.65-34.09 73.8-51.39 42.88 32.87 86.54 65.83 130.2 98.79 44.3-30.98 88.69-62.67 133.77-93.56 23.31 17.39 47.31 35.59 71.41 53.08zm-1509.7-833.71c-8.11 54.13-17 108.32-24.31 162.39 49.11 24.09 98.23 48.2 147.29 71.58-4.19 30.69-8.49 59.94-12.78 89.2-53.9 9.52-107.8 19.06-161.74 27.87l-21.96 162.23c-29.7 4.95-60.19 9.96-89.1 14.87-25.48-48.18-50.97-96.36-76.45-144.54-53.9 9.52-107.8 19.06-160.91 28.53-14.44-25.78-28.98-53-42.68-79.56 37.63-38.8 76.84-77.72 115.21-117.3-26.22-47.41-51.7-95.59-77.18-143.77 20.69-20.98 41.32-42.68 61.95-64.37 49.11 24.09 98.23 48.2 147.29 71.58 37.63-38.8 76-78.39 113.59-117.91 27.02 13.33 54.82 26.6 81.79 39.21zm1541.59 2373.12c-15.46 52.5-30.18 105.78-44.8 157.62 44.55 30.56 89.94 60.45 135.33 90.35-8.32 29.1-16.59 57.5-24.02 85.22-54.69 2.04-109.39 4.08-163.3 6.18-15.41 51.78-30.07 104.34-44.8 157.63-30.94 1.5-61.04 2.33-90.35 3.22-18.63-51.22-37.21-103.17-55.89-153.67-53.91 2.1-108.6 4.14-162.51 6.24-10.76-27.52-20.69-55.7-30.67-83.17 42.6-33.28 85.2-66.55 128.65-100.49-19.42-51.27-38.04-102.5-56.67-153.72 23.37-17.94 46.78-36.6 70.99-55.21 44.55 30.56 89.89 61.17 134.45 91.73 43.39-33.22 86.09-67.93 129.53-101.87 24.14 16.86 49.07 33.77 74.06 49.96zm-1396.15-952.54c-12.89 53.37-24.2 107.48-35.51 160.14 46.4 27.67 94.39 54.63 140.79 81.59-6.46 29.57-12.91 58.43-18.57 87.29-54.46 5.51-108.91 11.01-162.58 15.8-12.89 53.38-24.2 107.48-35.51 160.86-29.99 2.74-59.98 5.48-89.96 8.94-21.83-50.66-43.67-100.6-65.5-151.26-54.46 6.22-108.92 12.46-162.59 17.96-12.48-28.23-24.17-55.73-35.87-82.51 41.2-35.9 81.61-71.81 122.8-108.43-22.63-49.22-44.46-99.16-66.3-149.1 22.19-19.39 44.37-40.22 67.35-60.33 46.4 27.68 93.59 56.08 140.78 83.04 40.41-36.63 81.61-72.54 122.81-109.16 25.17 15.3 51.91 30.59 77.87 45.17z" fill-rule="nonzero"/>
</svg>
