<svg height="100" width="100" xmlns="http://www.w3.org/2000/svg">
    <circle cx="21.9" cy="41.7" r="5"/>
    <path d="M31.2 55.1c-.1-.2-.2-.5-.3-.8-.8-2.2-2.3-6.3-6.1-6.3H19c-3.6 0-6.2-1.2-7-1.9-.5-.5-2-3.1-3.1-5.2l2.3-11 5.5 1.2c.9.2 1.8-.4 2-1.3l2.5-12c.2-.9-.4-1.8-1.3-2L7.1 13.1c-.9-.2-1.8.4-2 1.3l-2.5 12c-.2.9.4 1.8 1.3 2l5.5 1.2-2.1 10c-.4-.1-.9 0-1.4.2-1.1.6-1.5 1.9-.9 2.9 1.1 2 3 5.6 4.2 6.7 1.3 1.2 4 2.5 7.8 2.9l.2 12-2.3 19.9c-.2 1.4.8 2.6 2.2 2.8 1.4.2 2.6-.8 2.8-2.2L22 66.7l2 18c.1 1.3 1.2 2.2 2.5 2.2h.3c1.4-.2 2.4-1.4 2.2-2.8l-2.3-19.9.2-8.4.3.9c.5 1.2 1.3 4.8 1.7 6.9.2 1 1.1 1.7 2.1 1.7h.4c1.2-.2 1.9-1.4 1.7-2.5-.1-.6-1.1-5.8-1.9-7.7z"/>
    <circle cx="78.1" cy="41.7" r="5"/>
    <path d="m97.5 26.4-2.5-12c-.2-.9-1.1-1.5-2-1.3l-12.9 2.7c-.9.2-1.5 1.1-1.3 2l2.5 12c.2.9 1.1 1.5 2 1.3l5.5-1.2 2.3 11c-1.2 2.2-2.6 4.7-3.1 5.2-.8.7-3.4 1.9-7 1.9h-5.8c-3.8 0-5.3 4.1-6.1 6.3-.1.3-.2.6-.3.8-.8 2-1.8 7.1-1.9 7.7-.2 1.2.5 2.3 1.7 2.5h.4c1 0 1.9-.7 2.1-1.7.4-2 1.2-5.7 1.7-6.9l.3-.9.2 8.4L71 84.1c-.2 1.4.8 2.6 2.2 2.8 1.4.2 2.6-.8 2.8-2.2l2.1-18.1 2.1 18.1c.1 1.3 1.2 2.2 2.5 2.2h.3c1.4-.2 2.4-1.4 2.2-2.8l-2.3-19.9.2-12c3.8-.4 6.5-1.7 7.8-2.9 1.1-1 3.1-4.6 4.2-6.7.6-1.1.1-2.4-.9-2.9-.4-.2-.9-.3-1.4-.2l-2.1-10 5.5-1.2c.9-.1 1.5-1 1.3-1.9z"/>
    <circle cx="50" cy="41.7" r="5"/>
    <path d="M62.9 49.3c1.1-1 3.1-4.6 4.2-6.7.6-1.1.1-2.4-.9-2.9l-.3-9.7h1.9c.6 0 1-.5 1-1v-9.2c0-.6-.5-1-1-1H32.2c-.6 0-1 .5-1 1V29c0 .6.5 1 1 1H34l.1 9.7c-.1 0-.1 0-.2.1-1.1.6-1.5 1.9-.9 2.9 1.1 2 3 5.6 4.2 6.7 1.3 1.2 4 2.5 7.8 2.9l.2 12-2.3 19.9c-.2 1.4.8 2.6 2.2 2.8 1.4.2 2.6-.8 2.8-2.2L50 66.6l2.1 18.1c.1 1.3 1.2 2.2 2.5 2.2h.3c1.4-.2 2.4-1.4 2.2-2.8l-2.3-19.9.2-12c3.8-.3 6.6-1.7 7.9-2.9zm-26.1-8.6c-.2-.4-.5-.6-.8-.8l-.1-9.9H64l.1 9.7c-.4.2-.8.5-1 .9-1.2 2.2-2.8 5-3.2 5.5-.8.7-3.4 1.9-7 1.9h-5.8c-3.6 0-6.2-1.2-7-1.9-.5-.5-2.1-3.2-3.3-5.4z"/>
</svg>
