<svg height="100" width="100" xmlns="http://www.w3.org/2000/svg" viewBox="0 0 96 96">
    <circle cx="38.701" cy="43.436" r="5.583"/>
    <circle cx="51.748" cy="35.013" r="5.584"/>
    <circle cx="65.623" cy="30.773" r="5.584"/>
    <circle cx="37.876" cy="30.773" r="5.584"/>
    <path d="M45.58 53.855v-1.564a2.618 2.618 0 00-2.618-2.617h-8.523a2.617 2.617 0 00-2.616 2.617v14.831a2.611 2.611 0 002.56 2.61v11.252c0 1.445 1.148 2.616 2.562 2.616h3.514c1.414 0 2.561-1.171 2.561-2.616V69.732c.464-.01.892-.148 1.266-.368v-13.26a2.605 2.605 0 011.294-2.249z"/>
    <circle cx="25.613" cy="38.944" r="5.583"/>
    <path d="M32.491 49.364v-1.566a2.616 2.616 0 00-2.617-2.615h-8.523a2.616 2.616 0 00-2.616 2.615v14.833a2.61 2.61 0 002.56 2.609v11.252c0 1.445 1.148 2.617 2.562 2.617h3.513c1.414 0 2.562-1.172 2.562-2.617V65.24a2.587 2.587 0 001.266-.369V51.61a2.598 2.598 0 011.293-2.246zM51.75 42.252h-.002a5.584 5.584 0 10-.002 11.168 5.584 5.584 0 00.004-11.168z"/>
    <circle cx="64.798" cy="43.436" r="5.583"/>
    <path d="M69.06 49.674h-8.522a2.618 2.618 0 00-2.618 2.617v1.564a2.605 2.605 0 011.294 2.248v13.261c.375.22.804.358 1.267.367v11.251c0 1.446 1.147 2.618 2.561 2.618h3.515c1.414 0 2.563-1.172 2.563-2.618v-11.25a2.612 2.612 0 002.559-2.61V52.291a2.622 2.622 0 00-2.619-2.617z"/>
    <circle cx="77.885" cy="38.944" r="5.583"/>
    <path d="M82.147 45.182h-8.522a2.616 2.616 0 00-2.617 2.616v1.565a2.606 2.606 0 011.295 2.246v13.262c.373.222.802.358 1.265.368v11.25c0 1.446 1.148 2.618 2.562 2.618h3.513c1.414 0 2.563-1.172 2.563-2.618V65.24a2.613 2.613 0 002.561-2.61V47.798a2.621 2.621 0 00-2.62-2.616zM56.889 54.235a2.547 2.547 0 00-.877-.162h-8.525c-.293 0-.57.06-.834.148a2.608 2.608 0 00-1.782 2.468v14.832c0 .803.369 1.51.938 1.988a2.606 2.606 0 001.623.623v11.25c0 .181.018.356.052.527.031.161.081.316.141.465l.008.027c.047.114.103.224.164.328l.011.018c.069.115.147.222.231.324.028.034.062.064.092.097.061.068.125.134.192.193.04.034.08.064.121.096a2.342 2.342 0 00.576.339c.047.02.095.04.145.058.088.03.179.054.27.075.045.009.088.022.132.032.137.024.279.039.425.039h3.514c.145 0 .286-.015.425-.037.045-.01.087-.023.132-.032.092-.021.183-.045.271-.075.049-.018.097-.038.145-.058.08-.034.156-.069.23-.111a2.18 2.18 0 00.346-.228c.041-.031.081-.062.12-.096.067-.06.132-.125.192-.193.03-.032.063-.063.092-.097a2.643 2.643 0 00.405-.67l.009-.027c.061-.148.11-.304.142-.465.034-.171.052-.347.052-.527v-11.25a2.609 2.609 0 001.623-.623 2.597 2.597 0 00.938-1.988V56.689a2.61 2.61 0 00-1.739-2.454zM44.472 29.429h2.214v-9.882h8.875V8H35.6v11.547h8.872zM73.67 32.73h2.214v-9.882h8.874V11.301h-19.96v11.547h8.872zM20.108 32.73h2.213v-9.882h8.875V11.301H11.235v11.547h8.873z"/>
</svg>
