<svg height="100" width="100" xmlns="http://www.w3.org/2000/svg" version="1.0">
    <path d="M95.062 72.28h-7.426v5.368a2.463 2.463 0 1 1-4.926 0V46.916H5.954V87.5h18.969V72.502h23.82v15.145h17.94V65.591a2.463 2.463 0 0 1 4.926 0l-.073 10.33c0 6.517 5.283 11.8 11.8 11.8 6.516 0 11.8-5.283 11.8-11.8l-.074-3.64zM45.52 10.743h-2.276c-40.73 0-37.202 26.174-37.202 33.232h76.68c0-7.058 3.53-33.232-37.202-33.232zm-20.73 22.58L23 38.825l-1.787-5.502H15.43l4.68-3.4-1.787-5.503 4.68 3.4 4.68-3.4-1.787 5.502 4.68 3.401H24.79zm21.203 0-1.788 5.502-1.787-5.502h-5.786l4.68-3.4-1.787-5.503 4.68 3.4 4.68-3.4-1.787 5.502 4.68 3.401h-5.785zm21.202 0-1.787 5.502-1.788-5.502h-5.784l4.68-3.4-1.787-5.503 4.68 3.4 4.68-3.4-1.788 5.502 4.68 3.401h-5.786z"/>
</svg>
