<svg height="100" width="100" xmlns="http://www.w3.org/2000/svg" data-name="Layer 1" viewBox="0 0 128 128">
    <path d="M33.35 0H22a8.01 8.01 0 0 0-8 8v112a8.01 8.01 0 0 0 8 8h84a8.01 8.01 0 0 0 8-8V8a8.01 8.01 0 0 0-8-8H94.65A5.803 5.803 0 0 1 95 2v12a6.005 6.005 0 0 1-6 6H39a6.005 6.005 0 0 1-6-6V2a5.803 5.803 0 0 1 .35-2zm56.76 31.35L92 26l1.89 5.35H100l-4.94 3.3L96.94 40 92 36.7 87.06 40l1.88-5.35-4.94-3.3zm-28 0L64 26l1.89 5.35H72l-4.94 3.3L68.94 40 64 36.7 59.06 40l1.88-5.35-4.94-3.3zM49.2 57.79l.87.86a28.87 28.87 0 0 1 5.86-2.43V55a3.999 3.999 0 0 1 4-4h8.14a3.999 3.999 0 0 1 4 4v1.22a28.87 28.87 0 0 1 5.86 2.43l.87-.86a4.008 4.008 0 0 1 5.66 0l5.75 5.75a4.008 4.008 0 0 1 0 5.66l-.86.87a28.864 28.864 0 0 1 2.43 5.86H93a3.999 3.999 0 0 1 4 4v8.14a3.999 3.999 0 0 1-4 4h-1.22a28.867 28.867 0 0 1-2.43 5.86l.86.87a4.008 4.008 0 0 1 0 5.66l-5.75 5.75a4.008 4.008 0 0 1-5.66 0l-.87-.86a28.862 28.862 0 0 1-5.86 2.43V113a3.999 3.999 0 0 1-4 4h-8.14a3.999 3.999 0 0 1-4-4v-1.22a28.862 28.862 0 0 1-5.86-2.43l-.87.86a4.008 4.008 0 0 1-5.66 0l-5.75-5.75a4.008 4.008 0 0 1 0-5.66l.86-.87a28.867 28.867 0 0 1-2.43-5.86H35a3.999 3.999 0 0 1-4-4v-8.14a3.999 3.999 0 0 1 4-4h1.22a28.864 28.864 0 0 1 2.43-5.86l-.86-.87a4.008 4.008 0 0 1 0-5.66l5.75-5.75a4.008 4.008 0 0 1 5.66 0zM34.11 31.35 36 26l1.89 5.35H44l-4.94 3.3L40.94 40 36 36.7 31.06 40l1.88-5.35-4.94-3.3z"/>
    <path d="M43.73 69.49a24.752 24.752 0 0 0-4.32 10.44H35v8.14h4.41a24.753 24.753 0 0 0 4.32 10.44l-3.11 3.12 5.75 5.75 3.12-3.11a24.752 24.752 0 0 0 10.44 4.32V113h8.14v-4.41a24.752 24.752 0 0 0 10.44-4.32l3.12 3.11 5.75-5.75-3.11-3.12a24.753 24.753 0 0 0 4.32-10.44H93v-8.14h-4.41a24.752 24.752 0 0 0-4.32-10.44l3.11-3.12-5.75-5.75-3.12 3.11a24.753 24.753 0 0 0-10.44-4.32V55h-8.14v4.41a24.753 24.753 0 0 0-10.44 4.32l-3.12-3.11-5.75 5.75zM64 63a21 21 0 1 1-21 21 20.997 20.997 0 0 1 21-21z"/>
    <path d="M57.334 92.167a1.997 1.997 0 0 0 1.395.82 1.814 1.814 0 0 0 .23.013 2.001 2.001 0 0 0 1.314-.493l16.042-14a2 2 0 1 0-2.63-3.014L59.3 88.048l-4.676-6.506a2 2 0 0 0-3.248 2.334zM89 16a2 2 0 0 0 2-2V2a2 2 0 0 0-2-2H39a2 2 0 0 0-2 2v12a2 2 0 0 0 2 2zM41 4h46v8H41z"/>
</svg>
