<svg height="100" width="100" xmlns="http://www.w3.org/2000/svg">
    <style/>
    <path d="M77.4 16.9H76c-.1 0-.2 0-.3.1-.6-1.2-1.8-2-3.3-2H29.6c-1.4 0-2.6.8-3.3 2H25c-1.2 0-2.2 1-2.2 2.2v6.3c0 1.2 1 2.2 2.2 2.2h1.4c.5 1 1.4 1.7 2.5 1.9V70c-1.1.2-2 .9-2.5 1.9H25c-1.2 0-2.2 1-2.2 2.2v6.3c0 1.2 1 2.2 2.2 2.2h1.4c.6 1.2 1.8 2 3.3 2h42.8c1.4 0 2.7-.8 3.3-2 .1 0 .2.1.3.1h1.4c1.2 0 2.2-1 2.2-2.2v-6.3c0-1.2-1-2.2-2.2-2.2H76c-.1 0-.2 0-.3.1-.5-1-1.4-1.7-2.6-1.9V29.6c1.1-.2 2.1-1 2.6-1.9.1 0 .2.1.3.1h1.4c1.2 0 2.2-1 2.2-2.2v-6.3c0-1.4-1-2.4-2.2-2.4zm-52.7 8.5v-6.3c0-.1.1-.2.2-.2h1v6.8h-1c-.1 0-.2-.1-.2-.3zm46.5 4.2v40.2H30.9V29.6h40.3zM24.7 80.4v-6.3c0-.1.1-.2.2-.2h1v6.8h-1c-.1-.1-.2-.2-.2-.3zm52.9-6.3v6.3c0 .1-.1.2-.2.2h-1.2v-6.8h1.2c.1 0 .2.1.2.3zm-3.4-.5v7.3c0 .9-.8 1.7-1.7 1.7H29.6c-.9 0-1.7-.8-1.7-1.7v-7.3c0-.9.8-1.7 1.7-1.7h42.8c1 0 1.8.7 1.8 1.7zm0-47.7c0 .9-.8 1.7-1.7 1.7H29.6c-.9 0-1.7-.8-1.7-1.7v-7.3c0-.9.8-1.7 1.7-1.7h42.8c.9 0 1.7.8 1.7 1.7v7.3zm3.4-.5c0 .1-.1.2-.2.2h-1.2v-6.8h1.2c.1 0 .2.1.2.2v6.4z"/>
    <path d="M35.7 37.3h30.6c.6 0 1-.4 1-1s-.4-1-1-1H35.7c-.6 0-1 .4-1 1s.4 1 1 1zm0 6.3h30.6c.6 0 1-.4 1-1s-.4-1-1-1H35.7c-.6 0-1 .4-1 1s.4 1 1 1zm0 6.4h30.6c.6 0 1-.4 1-1s-.4-1-1-1H35.7c-.6 0-1 .4-1 1s.4 1 1 1zm0 6.4h30.6c.6 0 1-.4 1-1s-.4-1-1-1H35.7c-.6 0-1 .4-1 1s.4 1 1 1zm30.6 4.4H35.7c-.6 0-1 .4-1 1s.4 1 1 1h30.6c.6 0 1-.4 1-1s-.5-1-1-1z"/>
</svg>
