<svg height="100" width="100" xmlns="http://www.w3.org/2000/svg" viewBox="0 0 512 512">
    <path d="M425.595 76H441c8.271 0 15-6.729 15-15s-6.729-15-15-15h-15.405c-8.271 0-15 6.729-15 15s6.728 15 15 15zM441 436h-15.405c-8.271 0-15 6.729-15 15s6.729 15 15 15H441c8.271 0 15-6.729 15-15s-6.729-15-15-15zM86.405 46H71c-8.271 0-15 6.729-15 15s6.729 15 15 15h15.405c8.271 0 15-6.729 15-15s-6.729-15-15-15zm299.19 380h-259.19c-8.271 0-15 6.729-15 15v20c0 8.271 6.729 15 15 15h259.189c8.271 0 15-6.729 15-15v-20c.001-8.271-6.728-15-14.999-15zM181 136h-55v280h260V136h-55a5 5 0 110-10h55V96H126v30h55a5 5 0 010 10zm24.025 135l-9.232-6.728-9.211 6.728 3.54-10.847-9.252-6.706 11.426.021 3.498-10.867 3.519 10.867 11.426-.021-9.252 6.706L205.025 271zm-42.73-45.932l3.498-10.867 3.519 10.867 11.426-.021-9.252 6.707 3.54 10.846-9.232-6.727-9.211 6.727 3.54-10.846-9.252-6.707 11.424.021zm0 28.4l3.498-10.867 3.519 10.867 11.426-.021-9.252 6.706 3.54 10.847-9.232-6.728-9.212 6.728 3.54-10.847-9.252-6.706 11.425.021zM351 356H161a5 5 0 110-10h190c2.762 0 5 2.238 5 5s-2.238 5-5 5zm0-30H161a5 5 0 110-10h190c2.762 0 5 2.238 5 5s-2.238 5-5 5zm0-30H161a5 5 0 110-10h190c2.762 0 5 2.238 5 5s-2.238 5-5 5zm-115.975-25l-9.232-6.728-9.211 6.728 3.54-10.847-9.252-6.706 11.426.021 3.498-10.867 3.519 10.867 11.426-.021-9.252 6.706L235.025 271zM261 226h90a5 5 0 110 10h-90a5 5 0 110-10zm0 30h90c2.762 0 5 2.238 5 5s-2.238 5-5 5h-90c-2.762 0-5-2.238-5-5s2.238-5 5-5zm-23.54-128.54c.93-.93 2.22-1.46 3.54-1.46 1.32 0 2.61.53 3.54 1.46.93.93 1.46 2.22 1.46 3.54a5.003 5.003 0 01-5 5 5.003 5.003 0 01-5-5c0-1.32.53-2.61 1.46-3.54zm-11.667 86.741l3.519 10.867 11.426-.021-9.252 6.707 3.54 10.846-9.232-6.727-9.211 6.727 3.54-10.846-9.252-6.707 11.426.021 3.496-10.867zM207.46 127.46c.94-.93 2.22-1.46 3.54-1.46 1.32 0 2.6.53 3.54 1.46.93.94 1.46 2.22 1.46 3.54a5.003 5.003 0 01-5 5 5.003 5.003 0 01-5-5c0-1.32.53-2.61 1.46-3.54zm-15.165 97.608l3.498-10.867 3.519 10.867 11.426-.021-9.252 6.707 3.54 10.846-9.232-6.727-9.211 6.727 3.54-10.846-9.252-6.707 11.424.021zM86.405 436H71c-8.271 0-15 6.729-15 15s6.729 15 15 15h15.405c8.271 0 15-6.729 15-15s-6.729-15-15-15zm299.19-400h-259.19c-8.271 0-15 6.729-15 15v20c0 8.271 6.729 15 15 15h259.189c8.271 0 15-6.729 15-15V51c.001-8.271-6.728-15-14.999-15z" fill-rule="evenodd" clip-rule="evenodd"/>
</svg>
