<svg height="100" width="100" xmlns="http://www.w3.org/2000/svg">
    <path style="font-size:medium;font-style:normal;font-variant:normal;font-weight:400;font-stretch:normal;text-indent:0;text-align:start;text-decoration:none;line-height:normal;letter-spacing:normal;word-spacing:normal;text-transform:none;direction:ltr;block-progression:tb;writing-mode:lr-tb;text-anchor:start;baseline-shift:baseline;opacity:1;color:#000;fill:#000;fill-opacity:1;stroke:none;stroke-width:4.0998182300000003;marker:none;visibility:visible;display:inline;overflow:visible;enable-background:accumulate;font-family:Sans;-inkscape-font-specification:Sans" d="M39 11c-15.44 0-28 12.56-28 28s12.56 28 28 28a27.917 27.917 0 0 0 17.813-6.406l28.812 27.843a2 2 0 1 0 2.75-2.874l-28.688-27.72C64.225 52.869 67 46.254 67 39c0-15.44-12.56-28-28-28zm0 4c13.279 0 24 10.721 24 24S52.279 63 39 63 15 52.279 15 39s10.721-24 24-24z"/>
</svg>
