<svg height="100" width="100" xmlns="http://www.w3.org/2000/svg" baseProfile="basic" viewBox="0 0 81 81">
    <path d="M63.1 64.2H2.9v3.2h74.5v-3.2H63.1zM18 58.5c0-2.9 2.4-5.3 5.3-5.3s5.3 2.4 5.3 5.3v4.3h6.6v-4.3c0-2.9 2.4-5.3 5.3-5.3s5.3 2.4 5.3 5.3v4.3h6.6v-4.3c0-2.9 2.4-5.3 5.3-5.3s5.3 2.4 5.3 5.3v4.3h6.7V49H11.3v13.8H18v-4.3zM35.2 44.2c0-2.9 2.4-5.3 5.3-5.3s5.3 2.4 5.3 5.3v3.4h8.7V35.8H26.8v11.8h8.4v-3.4zM49.6 34c0-4.2-2.9-7.8-6.8-8.8v-1.8c0-1.1-.8-2-1.8-2.2v-4.4h2.7v-5H41v-1.6h-1v11c-.9.3-1.6 1.1-1.6 2.1v1.8c-3.9 1-6.8 4.5-6.8 8.8v.5h18.1V34zm-8.9-1.3c-1.1 0-2-.9-2-2s.9-2 2-2 2 .9 2 2-.9 2-2 2zM46.9 11.8h3.2v5h-3.2z"/>
    <path d="M21.16 59.49l3.04-3.04.354.353-3.041 3.04zM22.166 61.594l-.353-.353 3.04-3.041.354.354zM38.766 59.496l3.04-3.04.354.353-3.04 3.04zM39.796 61.606l-.354-.353 3.041-3.04.354.353zM38.734 43.71l3.04-3.041.354.353-3.04 3.04zM39.764 45.883l-.353-.354 3.04-3.04.354.353zM55.555 59.478l3.04-3.04.354.353-3.04 3.04zM56.535 61.581l-.354-.353 3.041-3.04.354.353z"/>
</svg>
