<svg height='100px' width='100px'  fill="#000000" xmlns="http://www.w3.org/2000/svg" data-name="Layer 1" viewBox="0 0 100 100" x="0px" y="0px"><title>A</title><path d="M49.37457,79.79639a2.74667,2.74667,0,0,0,0,5.49334h42.8761a2.74667,2.74667,0,1,0,0-5.49334Z"></path><path d="M66.54327,20.19482a2.74228,2.74228,0,1,0,0-5.48455H49.37018a2.74228,2.74228,0,0,0,0,5.48455Z"></path><path d="M49.37457,36.666h23.6698a2.74668,2.74668,0,1,0,0-5.49335H49.37457a2.74668,2.74668,0,0,0,0,5.49335Z"></path><path d="M79.55292,47.64386H49.37457a2.74665,2.74665,0,0,0,0,5.49329H79.55292a2.74665,2.74665,0,0,0,0-5.49329Z"></path><path d="M46.62793,66.86163a2.74669,2.74669,0,0,0,2.74664,2.74671H86.05536a2.74668,2.74668,0,0,0,0-5.49335H49.37457A2.74668,2.74668,0,0,0,46.62793,66.86163Z"></path><path d="M9.68134,32.42426,18.03351,24.072V82.54486a2.74487,2.74487,0,0,0,5.48974,0v-58.465l8.34638,8.34638a2.7447,2.7447,0,0,0,3.8811-3.88208L22.74878,15.54828a2.74723,2.74723,0,0,0-.46515-.38629,2.78875,2.78875,0,0,0-.46869-.24658c-.045-.01844-.09241-.027-.13812-.04291a2.69478,2.69478,0,0,0-.368-.109,2.74778,2.74778,0,0,0-.40851-.0412c-.04041-.00177-.07843-.012-.11926-.012a2.77174,2.77174,0,0,0-.54352.05426c-.07416.01477-.14264.043-.21454.0636a2.70652,2.70652,0,0,0-.29834.09259c-.08124.03375-.15448.08074-.23151.12188a2.68557,2.68557,0,0,0-.2406.13062,2.75873,2.75873,0,0,0-.333.272c-.02679.02472-.05761.0423-.08361.0683L5.80316,28.54608a2.74229,2.74229,0,0,0,3.87818,3.87818Z"></path></svg>