<svg fill="#000000" viewBox="0 21 100 60">
  <g>
    <g>
      <g>
        <path
          d="M24.9,24c-2-1.9-5.1-2-7.1,0L4,37.9C2,39.9,2,43,4,45c1.9,2,5.1,2,7.1,0l5.4-5.4v32.8c0,2.8,2.2,5,5,5s5-2.2,5-5V39.6     l5.4,5.4c1,1,2.3,1.5,3.5,1.5c1.3,0,2.6-0.5,3.5-1.5c2-2,2-5.1,0-7.1L24.9,24z">
        </path>
        <path d="M92.5,67.4H53.2c-2.8,0-5,2.2-5,5s2.2,5,5,5h39.3c2.8,0,5-2.2,5-5S95.3,67.4,92.5,67.4z"></path>
        <path d="M53.2,55h29.3c2.8,0,5-2.2,5-5s-2.2-5-5-5H53.2c-2.8,0-5,2.2-5,5S50.4,55,53.2,55z"></path>
        <path d="M53.2,32.6h19.4c2.8,0,5-2.2,5-5s-2.2-5-5-5H53.2c-2.8,0-5,2.2-5,5S50.4,32.6,53.2,32.6z"></path>
      </g>
    </g>
  </g>
</svg>