<svg fill="#000000" version="1.1" viewBox="11 04 78 92">
  <g>
    <path
      d="M51,20.7c-3,0-6,0.4-8.8,1.1c0-1.1-0.2-1.9-0.3-1.9c0-0.1-0.1-0.2-0.1-0.2c-0.8-1-1.4-1.4-1.9-1.4v-0.7v-0.3h1   c0.4,0,0.7-0.3,0.7-0.7v-2.9c0-0.3-0.2-0.5-0.4-0.6c0.3-0.4,0.6-0.8,0.7-1.2c0.6-1.8-0.3-3.5-0.4-3.5c-0.1-0.2-0.3-0.3-0.5-0.3   s-0.4,0-0.6,0.2c-0.1,0.1-0.2,0.2-0.3,0.3c-0.3-1.3-1-2.7-1.2-3.1C38.7,5.1,38.4,5,38.2,5s-0.5,0.2-0.6,0.4C37.3,6,37,6.6,36.8,7.2   c-0.4-0.6-0.9-1-0.9-1C35.7,6,35.4,6,35.1,6.1c-0.2,0.2-0.4,0.5-0.3,0.7c0.1,0.5-0.2,1.5-0.5,2.1c-1,1.6-0.7,3.1-0.2,4.1h-0.5   c-0.4,0-0.7,0.3-0.7,0.7v2.9c0,0.4,0.3,0.7,0.7,0.7h1.2v0.6c-0.3,0.3-0.5,0.7-0.5,1.1s0.1,0.7,0.3,1c-0.2,0.3-0.3,0.6-0.3,0.9   c0,0.4,0.1,0.7,0.3,1c-0.2,0.3-0.3,0.6-0.3,1c0,0.6,0.3,1.1,0.8,1.4C23,30,14.5,42.2,13.9,56.3c-1.4,0.5-2,1.9-2,2.7   c-0.1,0.9,0.4,1.8,1.2,2.4c0.3,0.2,0.6,0.4,1,0.5C15.7,76.4,25.7,88.4,39.2,93c0.4,0.1,0.9,0.3,1.3,0.4c1.2,0.4,2.4,0.6,3.6,0.9   c0.4,0.1,0.9,0.2,1.3,0.2c1.8,0.3,3.7,0.4,5.6,0.4c0.3,0,0.6,0,0.8,0c0.4,0,0.7,0,1.1,0c0.4,0,0.9-0.1,1.3-0.1l0,0   c0.9-0.1,1.8-0.2,2.6-0.3c0.5-0.1,0.9-0.2,1.4-0.2c0.1,0,0.1,0,0.2,0c0.5-0.1,0.9-0.2,1.4-0.3c0.4-0.1,0.9-0.2,1.3-0.4   c0.4-0.1,0.9-0.3,1.3-0.4c0.5-0.2,0.9-0.3,1.4-0.5c0.4-0.2,0.9-0.3,1.3-0.5c13.5-5.6,23-18.9,23-34.3C88.1,37.4,71.5,20.7,51,20.7z    M40.6,20.4c0.1,0.3,0.2,0.9,0.2,1.8c0,0.6-0.1,1.3-0.3,2c-0.1,0.4-0.4,0.9-0.6,1.4v-1.1v-2.1v-2.5l0,0C40,19.8,40.3,20,40.6,20.4z    M46.7,32.3l1.1,1c-0.2,0.1-0.3,0.2-0.5,0.3L46.7,32.3z M50.5,33.7l0.2,1.2c-0.3,0.1-0.6,0.2-0.9,0.3l-0.6-1.1   C49.6,33.9,50,33.8,50.5,33.7z M55.5,34.4l-0.5,1c-0.2-0.1-0.3-0.1-0.3-0.1c-0.1,0-0.2-0.1-0.4-0.1l0.2-1.3   C54.9,34,55.2,34.2,55.5,34.4z M58.4,37.1c0-0.1,0-0.1,0-0.2l0.5-0.1L58.4,37.1z M70.3,68.7c0,0,0,0.1-0.1,0.2s-0.2,0.2-0.4,0   l-1.4-1.1c-0.1-0.1-0.1-0.1-0.1-0.2c0,0,0-0.1,0.1-0.2s0.1-0.1,0.2-0.1c0,0,0.1,0,0.2,0.1l0.7,0.6l0.7,0.6   C70.2,68.6,70.3,68.6,70.3,68.7C70.2,68.7,70.3,68.7,70.3,68.7z M64.4,87c0-0.3-0.1-0.6-0.1-0.9l0.4,0.1   C64.6,86.4,64.5,86.7,64.4,87z M64.5,72.7l0.9,0.6c0.1,0.1,0.2,0.1,0.4,0.1c0.1,0,0.3-0.1,0.4-0.2c-0.2,0.7-0.5,1.6-1.4,2.2   L64.5,72.7z M67,69.4c-0.1-0.1-0.1-0.3,0-0.4s0.1-0.1,0.2-0.1c0,0,0.1,0,0.2,0.1l1.4,1.1c0.1,0.1,0.1,0.1,0.1,0.2   c0,0,0,0.1-0.1,0.2s-0.2,0.2-0.4,0L67,69.4z M71.4,67.3c0,0,0,0.1-0.1,0.2s-0.2,0.1-0.3,0.1l-0.1-0.1l-0.7-0.6l-0.7-0.6   c-0.1-0.1-0.1-0.1-0.1-0.2c0,0,0-0.1,0.1-0.2s0.1-0.1,0.2-0.1c0,0,0.1,0,0.2,0.1l1.4,1.2C71.4,67.2,71.4,67.3,71.4,67.3z    M70.8,64.9c-0.1-0.1-0.1-0.3,0-0.4s0.1-0.1,0.2-0.1c0,0,0.1,0,0.2,0.1l1.4,1.2c0.1,0.1,0.1,0.1,0.1,0.2c0,0,0,0.1-0.1,0.2   s-0.2,0.2-0.4,0L70.8,64.9z M72.9,64.2L72,63.4c-0.7-0.6-1.7-0.5-2.3,0.2c-0.2,0.3-0.4,0.6-0.4,0.9c-0.3,0.1-0.6,0.2-0.9,0.5   c-0.2,0.3-0.4,0.6-0.4,1c-0.3,0.1-0.6,0.3-0.9,0.5c-0.2,0.3-0.3,0.6-0.3,0.9c-0.4,0.1-0.8,0.3-1,0.6c-0.6,0.7-0.4,1.7,0.3,2.3   l0.5,0.4l-1,1l-1.4-0.9l-0.9-7.3l4.3-4.5l5.9,4.3L72.9,64.2z M63.2,61.9l-0.3-2.7l1.4,1.6L63.2,61.9z M64.6,84.8L61,84l0.5-0.4   c0.2-0.1,0.3-0.4,0.3-0.6l-2.1-21.1c0-0.2,0.1-0.4,0.1-0.6c0-0.6-0.1-1.1-0.2-1.6c-0.2-1-0.3-1.4,0.7-2.1c0.2-0.1,0.3-0.3,0.3-0.6   l-0.2-3.9c0.4,0.5,0.6,1,0.7,1.6L64.6,84.8z M54.6,91.3c-1.1-0.1-1.7-0.6-1.9-1l1.9-1.4V91.3z M52.8,88.5l3.1-21   c0.5-0.5,1.7-1.8,2.6-3.2l1.8,18.5L52.8,88.5z M40.5,87l0.5-8.2c0-0.1,0-0.2,0-0.2l-1.6-5.2l12.1-15.1c1.1-1,2.5-2.2,3.6-3.2   l-0.5,12l-0.9,6L40.5,87z M54.9,51.9c0.2,0.2,0.4,0.5,0.8,0.7c-2.3,2.2-6,5.6-7.2,6.3c-1.7,1.1-7.9,5.4-8.1,5.6   c-0.3,0.2-0.8,0.4-1.1,0.3c-0.5-0.3-0.8-1.5-0.9-2.4C39.5,60,47.9,55.3,54.9,51.9z M58.7,51.5c-0.3,0.2-0.8,0.4-1.6,0.3   c-0.5-0.1-0.8-0.3-0.9-0.4c0.5-0.2,1-0.4,1.4-0.7C58,50.9,58.4,51.1,58.7,51.5z M59.1,56.7c-1.4,1.2-1.2,2.2-0.9,3.3   c0.1,0.4,0.2,0.8,0.2,1.4c0.1,0.9-1.1,2.6-2.3,4l0.4-11.6c0.3-0.3,0.6-0.6,0.8-0.7c0.1,0,0.3,0,0.4,0c0.5,0,0.9-0.1,1.3-0.3   L59.1,56.7z M41.4,65.5c0.8-0.6,3.7-2.6,5.8-4.1l-6.4,8L41.4,65.5z M47.4,44.4C47.4,44.3,47.4,44.3,47.4,44.4   c-0.2-0.1-0.3-0.2-0.4-0.3l0.6-0.9c0.1-0.1,0.1-0.2,0.1-0.4V42c0.1,0,0.2,0,0.3-0.1c0,0.2,0.1,0.5,0.2,0.8c0,0.2,0.1,0.3,0.2,0.5   l0,0c0-0.1-0.1-0.2-0.1-0.3L47.4,44.4z M46.3,36.5l0.7,0.8c-0.1,0.1-0.2,0.2-0.3,0.4c0,0,0,0.1-0.1,0.1l-0.7-0.7   C46,37,46.1,36.8,46.3,36.5z M48,34.7l0.6,1c-0.2,0.2-0.5,0.3-0.7,0.5l-0.7-0.8C47.4,35.2,47.7,35,48,34.7z M47.8,38.4   c1-1.5,2.7-2.4,4.4-2.3c0.7,0.1,1.3,0.2,2,0.4c0,0,2,0.7,2.7,3.2l-0.5-0.4l0,0l-0.1-0.1c0,0-1.7-0.9-3.4-2.5   c-0.2-0.2-0.6-0.2-0.8-0.1l-3.7,2.6c-0.2,0.1-0.3,0.3-0.3,0.5c0,0,0,0.4,0,0.8c-0.7,0.2-1,0.1-1.2,0.1C47,39.9,47.3,39.2,47.8,38.4   z M54.5,43.6c-0.5,0.6-1.2,0.9-2.2,0.9s-1.7-0.3-2.2-0.9c-0.9-1-0.9-2.7-0.9-3.4l3-2.1c1.3,1.1,2.5,1.8,3,2.2   C55.4,41.1,55.3,42.7,54.5,43.6z M57.2,43.6C57.2,43.7,57.2,43.7,57.2,43.6l-0.7-1.3c0.1-0.4,0.1-0.8,0.1-1.1l0.5,0.3   C57.2,42.4,57.2,43.3,57.2,43.6z M56.4,36.4c-0.1-0.1-0.2-0.2-0.3-0.2l0.3-0.7c0.1,0.2,0.2,0.4,0.3,0.6L56.4,36.4z M49,44.3   c0.1,0.1,0.1,0.1,0.2,0.2l0,0v1.1c-0.2-0.1-0.4-0.3-0.7-0.5L49,44.3z M50.5,45.5c0.5,0.2,1.1,0.3,1.8,0.3c0.5,0,1-0.1,1.4-0.2v2.9   c-1.5-0.4-2.8-1.4-3.2-1.8V45.5z M55.1,44.9c0.1-0.1,0.3-0.2,0.4-0.4c0.1-0.1,0.2-0.3,0.3-0.4l0.5,1c0.4,1.5,0.8,3.2,0.9,4   c-0.8-0.3-1.6-0.4-2.2-0.4L55.1,44.9L55.1,44.9z M56.8,33.8c-0.1-0.1-0.2-0.2-0.4-0.3l1-0.8L56.8,33.8z M52.2,33.5   C52.2,33.5,52.3,33.5,52.2,33.5c0.4,0,0.7,0,1,0.1L53,34.9c-0.2,0-0.4-0.1-0.6-0.1c-0.1,0-0.2,0-0.3,0l-0.2-1.3   C51.9,33.5,52.1,33.5,52.2,33.5z M52,32.1l0.6-1.7l0.4,1.8c-0.2,0-0.5,0-0.7,0h-0.1C52.1,32.1,52.1,32.1,52,32.1z M44.7,37.8   l1.2,1.2c-0.2,0.5-0.4,1-0.6,1.5v0.1c0,0.3,0.1,0.7,0.4,1c0.2,0.1,0.4,0.2,0.6,0.3v0.6l-0.5,0.7c-0.5-0.3-0.9-0.6-1.1-0.8   c-0.1-0.8-0.3-2.7-1.4-3.5l0,0l0,0l0,0l0,0l-1.5-1.2c-0.1-0.6-0.1-1.2-0.2-1.8L44.7,37.8z M43,40.7c0.3,0.7,0.4,1.6,0.4,2.1   c0,0.2,0.1,0.4,0.3,0.5s3.5,2.5,5.7,4.2c0.3,0.3,2.5,2.3,5,2.5l0,0c0.3,0,0.7,0,1.1,0.1c-3.6,1.7-10.8,5.3-15.1,8.5l-0.6-0.8   l-0.5-1.2l1-1.7l0,0c0,0,0,0,0.1-0.1l2.4-6.4c0.1-0.3,0-0.7-0.4-0.9c-0.1,0-0.2,0-0.4,0c0.7-0.7,1.2-1.4,1.4-1.6   c0.2-0.3,0.2-0.7-0.1-0.9s-0.7-0.2-0.9,0.1c-0.9,1.2-3.7,4.3-5.3,3.3c-0.9-0.6-0.9-2-0.6-3.3c0.2,0.7,0.6,1.2,1.2,1.7   c0.2,0.2,0.6,0.2,0.9,0C40.1,45.6,42.1,42.3,43,40.7z M38.4,49.9c1.1-0.2,2.2-1,3.2-1.8l-2,5.2L38,51.4L38.4,49.9z M35.9,18.8   L35.9,18.8l1.8,0.1c0.1,0,0.2,0.1,0.2,0.1s0.1,0,0.1,0.1s-0.1,0.3-0.3,0.3l0,0l0,0l-1.8-0.1c-0.1,0-0.3-0.1-0.3-0.3   C35.7,18.9,35.8,18.8,35.9,18.8z M36.5,26.1v-0.5v-1.1h1.1c0.1,0,0.2,0,0.3,0l0,0c0.1,0,0.3-0.1,0.5-0.2v1.8H38h-0.2   C37.8,26.1,36.5,26.1,36.5,26.1z M35.9,20.7L35.9,20.7l1.8,0.1c0.1,0,0.3,0.1,0.3,0.3c0,0.1-0.1,0.2-0.2,0.2c0,0,0,0-0.1,0h-0.9   h-0.9c-0.1,0-0.3-0.1-0.3-0.3C35.6,20.8,35.7,20.7,35.9,20.7z M35.9,22.6h0.9h0.9c0,0,0,0,0.1,0c0,0,0,0,0.1,0s0.2,0.1,0.2,0.2l0,0   l0,0c0,0.1-0.1,0.3-0.3,0.3H36c-0.1,0-0.3-0.1-0.3-0.3C35.6,22.7,35.7,22.6,35.9,22.6z M40.6,42.1c-0.8,1.2-1.6,2.4-2.3,3.2   c-0.2-0.3-0.4-0.7-0.5-1.2c-1-6.1-0.3-16-0.3-16.1c0-0.2,0-0.3-0.1-0.5l-0.1-0.2h1.4c0.2,0,0.4-0.1,0.5-0.3   c-0.1,0.5-0.2,1.1-0.1,1.7l0.1,0.8c0.4,2.1,1.1,6.4,1.3,9.7L40.6,42.1L40.6,42.1z M35.5,9.6C35.6,9.4,35.8,9,36,8.4   c0.2,0.3,0.3,0.7,0.2,1.1c-0.1,0.4,0.2,0.7,0.6,0.8c0.4,0.1,0.7-0.2,0.8-0.5c0,0,0.2-1.2,0.7-2.5c0.4,1.1,0.7,2.2,0.4,2.6   c-0.2,0.3-0.2,0.7,0.1,0.9s0.7,0.2,0.9-0.1c0,0,0.3-0.3,0.8-0.9c0.1,0.4,0.1,1,0,1.6c-0.2,0.7-0.7,1.2-1.5,1.6h-3.2   C35.3,12.6,34.5,11.4,35.5,9.6z M34.2,15.9v-1.6h5.9v1.6h-1h-3.7H34.2z M38.5,17.3v0.3v0.1c-0.2-0.1-0.4-0.2-0.7-0.2l-1.6-0.1v-0.1   C36.2,17.3,38.5,17.3,38.5,17.3z M13.2,59.1c0-0.2,0.2-1.7,1.9-1.7l0,0c0.4,0,0.7-0.3,0.7-0.6c0-0.1,0.3-2.4,2.8-2.1   c0.3,0,0.6-0.1,0.7-0.4c0-0.1,0.8-1.8,2.5-1.8c0.5,0,0.9,0.1,1.4,0.3c0,0,1.5,0.7,1.9,2.6c0.1,0.3,0.3,0.5,0.6,0.6   c0.1,0,2.1,0.2,2.2,2.2c0,0.8-0.2,1.5-0.7,2c-0.6,0.6-1.4,0.8-1.6,0.8h-9.9c-0.7,0-1.3-0.2-1.8-0.6C13.4,60,13.2,59.6,13.2,59.1z    M15.9,62.3h9.7c0.7,0,1.7-0.4,2.5-1.2s1.2-1.8,1.1-3c-0.1-2.2-1.7-3.1-2.9-3.4c-0.6-2.2-2.5-3.1-2.6-3.1c-0.7-0.3-1.4-0.4-2-0.4   c-2,0-3.1,1.4-3.5,2.2c-1.1,0-1.9,0.3-2.4,0.8c1.3-12.2,8.8-22.6,19.3-27.9v0.5c0,0.2,0.1,0.3,0.1,0.4l0,0l0.8,1   c-0.1,1.4-0.5,8.4,0,14c-0.3,0.8-2.4,5.6,0.3,7.3c0.2,0.1,0.4,0.2,0.6,0.3l-0.3,1.7c0,0.2,0,0.4,0.1,0.6l2.2,2.6L38,56.3   c-0.1,0.2-0.1,0.4,0,0.6l0.6,1.6c0,0,0,0.1,0.1,0.1l0.7,0.9c-1.1,1-2,1.9-2.2,2.7c0,0.1,0,0.2,0,0.2c0,0.3,0.1,2.9,1.6,3.7   c0.2,0.1,0.5,0.2,0.9,0.2c0.1,0,0.2,0,0.3,0l-0.8,5.4l-1,1.2C38,73,37.9,73.2,38,73.4l1.6,5.4l-0.5,9.9c0,0.3,0.1,0.5,0.4,0.7   c0.1,0,0.2,0.1,0.3,0.1c-0.1,0.5-0.2,1.1-0.3,1.8C26.9,86.9,17.6,75.8,15.9,62.3z M40.7,91.7c0.3-1.8,0.6-3.2,0.7-3.6l6.2-6.6   c-1,4.3-2.1,8.5-3,11.1C43.3,92.4,42,92.1,40.7,91.7z M51,93.2c-1.7,0-3.3-0.1-5-0.4c1.3-3.9,2.7-10,3.5-13.3l3.9-4.1L51.2,90   c0,0.1,0,0.2,0,0.3l0,0c0.2,0.8,1.1,2.2,3.2,2.4c-0.1,0.1-0.2,0.3-0.3,0.4C53.1,93.1,52,93.2,51,93.2z M55.8,92.9   c0.1-0.3,0.2-0.6,0.2-0.9v-4.2l1.5-1.2c-0.1,1.6-0.2,3.8-0.4,6C56.6,92.7,56.2,92.8,55.8,92.9z M59.8,92.1   c-0.4,0.1-0.9,0.2-1.3,0.3l0,0l0.3-6.7l-0.2,0.1l0.3-0.2l0.7-0.5h0.2l0.7,0.1l0.5,6.5C60.6,91.9,60.2,92,59.8,92.1z M62.3,91.3   l-0.4-5.8l1.1,0.2c0.1,0.9,0.4,2.8,0.7,5.1C63.1,91,62.7,91.2,62.3,91.3z M64.9,90.3c-0.1-0.4-0.1-0.8-0.2-1.2   c1.2-1.5,1.4-3.3,1.4-3.4l0,0v-0.1L65,76.9c2.3-1.2,2.8-3.7,2.7-5.1l0.1-0.1c0.3,0.1,0.5,0.2,0.8,0.2c0.5,0,1-0.2,1.3-0.6   c0.2-0.3,0.3-0.6,0.3-0.9c0.4-0.1,0.8-0.3,1-0.6c0.2-0.3,0.3-0.6,0.3-0.9c0.3-0.1,0.6-0.3,0.8-0.5c0.2-0.3,0.4-0.6,0.4-0.9   c0.3-0.1,0.6-0.3,0.9-0.5c0.3-0.3,0.4-0.8,0.4-1.2c0-0.2-0.1-0.4-0.1-0.5l1.3-1.4c0.1-0.1,0.2-0.3,0.2-0.5s-0.1-0.4-0.3-0.5l-7-5.1   c-0.3-0.2-0.7-0.2-0.9,0.1l-1.9,2l-2.6-3.1l-0.3-2.1c-0.1-1-0.6-1.9-1.3-2.6l-1.5-1.5l0,0c-0.3-0.3-0.6-0.5-0.9-0.7   c0.1-0.5-0.1-1.7-0.9-4.6c0.2-0.2,0.4-0.5,0.6-0.6c0.2-0.2,0.4-0.5,0.1-3.3l0,0c0-0.6-0.1-1.2-0.2-1.7c0.1-0.2,0.2-0.5,0.2-0.8   l4.6-2.8c0.3-0.2,0.4-0.5,0.3-0.8c-0.1-0.3-0.4-0.5-0.8-0.4l-4.6,1c-0.1-0.2-0.2-0.4-0.3-0.6l2.7-4.6c0.2-0.3,0.1-0.6-0.1-0.8   c-0.2-0.2-0.6-0.2-0.9,0l-4.2,3.2c-0.2-0.1-0.5-0.2-0.7-0.3l-1.1-4.6c-0.1-0.3-0.3-0.5-0.6-0.5s-0.6,0.2-0.7,0.5l-1.5,4.5   c-0.5,0.1-1,0.2-1.4,0.4l-4-3.7c-0.2-0.2-0.6-0.2-0.9,0c-0.3,0.2-0.3,0.5-0.2,0.8l2.3,4.8c-0.3,0.3-0.5,0.5-0.7,0.8l-4.1-1l0,0   c-0.3-1.9-0.6-3.6-0.8-4.7l-0.1-0.8c-0.2-1.1,0.3-2.1,0.3-2.1l0,0c0.7-1,1-2,1.2-2.9c2.9-0.8,5.9-1.2,9-1.2   c19.5,0,35.3,15.9,35.3,35.3C86.3,72.4,77.5,84.9,64.9,90.3z">
    </path>
    <path
      d="M77.5,42c0.1-0.9-0.2-2-1.3-2.8c-0.8-0.5-1.7-0.8-2.7-0.6c-0.9,0.1-1.7,0.6-2.2,1.2c-0.2,0-0.4-0.1-0.6-0.1   c-0.8,0-1.6,0.3-2.2,0.9c0,0-0.7,0.6-0.9,1.6c-0.8,0.3-1.7,1.1-1.6,2.7c0.1,2,1.9,2.5,2.8,2.5h7.4c0.8,0,2.5-0.5,2.9-2.3   c0-0.2,0.1-0.3,0.1-0.5C79.4,43.7,78.9,42.5,77.5,42z M78,44.9c-0.3,1.2-1.6,1.3-1.7,1.3H69c-0.2,0-1.4-0.1-1.4-1.3   c-0.1-1.2,0.8-1.4,0.9-1.5c0.3-0.1,0.6-0.3,0.6-0.7c0-0.7,0.5-1.1,0.5-1.1c0.3-0.3,0.8-0.5,1.2-0.5c0.4,0,0.7,0.1,0.7,0.1   c0.3,0.1,0.7,0,0.9-0.3c0.3-0.6,0.8-0.9,1.5-1c0.6-0.1,1.2,0.1,1.7,0.4c1,0.7,0.6,2,0.6,2c-0.1,0.2,0,0.4,0.1,0.6   c0.1,0.2,0.3,0.3,0.5,0.3c0.9,0.1,1.3,0.6,1.3,1.5C78,44.8,78,44.8,78,44.9z">
    </path>
  </g>
</svg>