<svg height="100" width="100" xmlns="http://www.w3.org/2000/svg">
    <circle cx="16.075" cy="27.406" r="6.455"/>
    <circle cx="33.111" cy="27.406" r="6.455"/>
    <circle cx="24.342" cy="12.351" r="6.454"/>
    <circle cx="41.77" cy="12.351" r="6.454"/>
    <circle cx="58.3" cy="12.351" r="6.454"/>
    <circle cx="74.749" cy="12.351" r="6.454"/>
    <circle cx="66.784" cy="27.406" r="6.455"/>
    <path d="M50.037 20.951a6.455 6.455 0 0 1 0 12.91 6.452 6.452 0 0 1-6.455-6.454 6.45 6.45 0 0 1 6.455-6.456zm33.717 0a6.455 6.455 0 1 1 .001 12.91 6.455 6.455 0 0 1-.001-12.91zM7.675 94.266h16.78V66.091h6.287l-.013-22.741c0-3.98-3.219-7.205-7.188-7.205H8.542c-3.971 0-7.192 3.225-7.192 7.205l-.024 22.741h6.349v28.175zm34.002 0h16.778V66.091h6.287l-.013-22.741c0-3.98-3.22-7.205-7.188-7.205H42.544c-3.971 0-7.192 3.225-7.192 7.205l-.023 22.741h6.349v28.175zm33.718 0h16.78V66.091h6.287l-.013-22.741c0-3.98-3.22-7.205-7.188-7.205H76.262c-3.972 0-7.192 3.225-7.192 7.205l-.023 22.741h6.349v28.175z"/>
</svg>
