<svg height="100" width="100" xmlns="http://www.w3.org/2000/svg" viewBox="0 0 101 101">
    <path d="M85.008 10.226c-1.209-1.846-4.063-1.368-4.342-1.318l-40.718 5.247c-.164-.817-.636-1.577-2.033-1.577-.784 0-1.32.135-1.678.286a2.778 2.778 0 0 0-1.369-.133c-1.424.214-3.627 1.069-3.859 2.549-.186 1.185.065 2.799.088 2.946.015.165.301 3.303.497 6.533.198 3.273 1.681 6.048 3.376 6.316a24.7 24.7 0 0 0 1.071.148l-.149.845a.5.5 0 0 0 .392.577l1.512.309c-.494 1.779-2.046 7.559-2.046 10.011 0 2.038.119 2.811.246 3.139l.054 1.18c-.197.589-.835 2.966-.437 8.138.474 6.165 2.129 12.174 3.055 14.822.012 3.623.732 20.503.74 20.674a.501.501 0 0 0 .5.479l.035-.001.773-.054c-.389.661-.857 1.823-.772 3.542a.5.5 0 0 0 .5.475h5.305a.5.5 0 0 0 .497-.444c.205-1.815-.259-3.173-.616-3.916l.93-.065a.5.5 0 0 0 .465-.517c-.006-.179-.518-14.941-.691-21.622.842 2.106 2.085 4.953 3.287 6.722 2.038 3.001 8.266 12.207 8.266 12.207.084.124.22.204.369.218a.504.504 0 0 0 .402-.148l.513-.523c.171.389.361.738.512 1.015.405.74.242 1.579.053 2.55-.116.597-.236 1.214-.236 1.871 0 1.817.813 3.104.848 3.158.092.144.25.23.421.23h2.548a.5.5 0 0 0 .39-.187c.064-.08 1.566-1.982 1.566-4.562 0-1.496-.43-2.599-.81-3.571-.26-.667-.506-1.297-.568-1.962-.095-1.014-.464-1.827-1-2.342l.514-.525a.499.499 0 0 0 .065-.618l-9.846-15.484c.302-1.134 1.643-6.312 1.667-8.876 1.961-7.064-.024-10.951-.69-11.991l.088-.962c.159-.595 2.169-8.353 1.042-15.162-.345-2.082-1.245-3.385-1.599-3.831l.022-.413a.992.992 0 0 0 .391-.227.489.489 0 0 0 .107-.155c.086-.196 1.527-3.526 1.379-6.466-.049-1.916-.791-4.196-3.337-4.991a6.289 6.289 0 0 0-.679-.162l28.334-3.651c.205.862.725 2.717 1.625 3.771.723.846 1.538 1.328 2.296 1.357.488.025.944-.154 1.278-.489.839-.839.62-2.595-.544-4.37zm-.163 3.663a.66.66 0 0 1-.532.197c-.469-.019-1.043-.386-1.574-1.008-.724-.847-1.184-2.424-1.385-3.244.768-.056 2.198-.008 2.818.939.939 1.433 1.08 2.709.673 3.116zm-30.55 44.01c0 2.664-1.673 8.835-1.69 8.897a.496.496 0 0 0 .061.399l9.751 15.335-.41.419a1.995 1.995 0 0 0-.532-.079c-.44 0-.9.14-1.367.415-1.34.789-1.514 1.896-1.295 2.922l-.443.452c-1.332-1.968-6.174-9.124-7.924-11.702-1.802-2.654-3.788-8.067-4.143-9.053 1.321-4.283 1.375-10.009 1.377-10.253a.5.5 0 0 0-.497-.503c-.312-.014-.502.22-.503.497 0 .059-.055 5.958-1.379 10.114a.504.504 0 0 0-.025.168c.002 2.765.621 20.843.731 24.044l-5.623.393c-.122-2.894-.717-17.127-.717-20.204a.527.527 0 0 0-.028-.167c-.904-2.558-2.559-8.521-3.029-14.646-.371-4.825.192-7.105.367-7.677.635-.35 3.276-1.671 7.318-1.955 3.746-.262 8.42.553 9.426.74.485.749 2.516 4.45.594 11.31a.468.468 0 0 0-.02.134zm8.603 28.008c.075.804.346 1.498.632 2.232.364.934.741 1.9.741 3.208 0 1.792-.871 3.248-1.212 3.749H61.06a5.44 5.44 0 0 1-.563-2.388c0-.561.111-1.129.218-1.68.207-1.064.421-2.166-.158-3.222-.951-1.737-1.247-2.892.058-3.661.312-.183.601-.276.86-.276.847.001 1.331 1.057 1.423 2.038zm-21.965 8.452c.033-1.999.923-2.922.967-2.965a.5.5 0 0 0 .095-.141l2.543-.177c.216.361.83 1.547.748 3.284h-4.353zm12.901-50.037c-1.299-.305-4.954-1.047-8.84-.776-4.119.289-6.994 1.273-8.152 1.736-.046-.387-.093-1.079-.093-2.316 0-2.715 2.132-10.181 2.153-10.256a.498.498 0 0 0-.381-.627l-1.562-.319 1.153-6.534 9.442-.49a.5.5 0 0 0 .409-.253l.096-.17c.773-.042 3.193-.077 5.111 1.016l-.045.833a.504.504 0 0 0 .132.366c.011.012 1.118 1.238 1.49 3.484.959 5.787-.481 12.504-.913 14.306zM31.997 15.436c.121-.772 1.659-1.51 3.02-1.714.595-.088 1.153.104 1.478.495.16.193.246.425.271.679-.013.056-.02.115-.013.176.003.019.013.035.017.053-.004.069-.006.138-.019.21-.174.937-1.366 2.089-1.967 2.587l-2.75-.222c-.065-.537-.153-1.528-.037-2.264zm5.918-1.857c.614 0 .906.161 1.035.705l-1.247.161a2.209 2.209 0 0 0-.413-.826c.178-.025.384-.04.625-.04zm17.055 6.365c-4.622-1.031-6.83-2.385-7.536-2.892.337-.748 1.378-2.565 3.52-2.565.453 0 .94.08 1.447.238 2.84.887 2.729 4 2.569 5.219zm-8.359 2.201.783-3.642c.017-.081.05-.155.074-.233.133.081.279.166.443.256-.046.319-.042.637.057.943.196.611.662 1.113 1.311 1.414.535.248.811.453.26 1.788a1.2 1.2 0 0 0-.064.65 11.202 11.202 0 0 0-1.772.019.501.501 0 0 0-.38.25l-.093.164-.48.025c-.191-.519-.259-1.076-.139-1.634zm7.234 2.428c-1.034-.631-2.183-.959-3.21-1.122-.034-.039-.078-.078-.104-.117-.114-.171-.083-.248-.069-.281.491-1.187.737-2.382-.763-3.077-.393-.182-.669-.471-.779-.812-.015-.046-.019-.094-.028-.142 1.322.615 3.266 1.325 6.004 1.926-.279 1.607-.826 3.065-1.051 3.625zm-6.167-9.645a5.978 5.978 0 0 0-1.136 1.659c-.556-.221-1.357-.655-1.29-1.195.006-.041.082-.146.324-.256.504-.231 1.303-.305 2.102-.208zm-8.639.451c0 .942-.996 1.999-1.38 2.326a.501.501 0 0 0-.176.365c-.002.092-.066 2.275.247 3.803.153.75.323 1.646.455 2.351l-.521.027a.492.492 0 0 0-.36.193c-.352-.737-.779-1.628-1.167-2.435-.631-1.312-.696-2.801-.697-3.333.554-.46 2.042-1.801 2.295-3.16.004-.023.002-.046.006-.069l1.297-.167c-.001.036.001.063.001.099zm-4.596 3.519c.02.739.147 2.2.793 3.545.636 1.324 1.387 2.895 1.72 3.592l-.742 4.203a22.682 22.682 0 0 1-1.088-.149c-.911-.145-2.338-2.147-2.535-5.39a238.05 238.05 0 0 0-.448-5.987l2.3.186zm12.137-1.241.028.024c-.078.197-.147.4-.193.612l-.783 3.641a3.867 3.867 0 0 0 .086 1.899l-6.527.339a155.33 155.33 0 0 0-.482-2.499c-.236-1.153-.238-2.789-.231-3.363.44-.42 1.561-1.617 1.561-2.931l-.002-.227 4.625-.596c-.257.236-.368.489-.4.697-.162 1.313 1.308 2.103 2.318 2.404zm2.14-3.544c-.074-.021-.15-.033-.224-.051l.403-.052c-.061.033-.12.068-.179.103z"/>
</svg>
