<svg height="100" width="100" xmlns="http://www.w3.org/2000/svg">
    <path d="M50.379 22.415c.121.08.219.188.273.324l2.756 2.755.041-.041V20.34a.76.76 0 00.603-.308l-.646-.645-3.027 3.028zM46.946 25.848l.048.048h2.299v-2.395zM66.087 84.994h-.154l-1.678 1.678v6.46l1.605 1.605h.3l1.658-1.658v-6.353zM51.73 18.396v-1.244l-1.156 1.244zM54.2 19.475a.749.749 0 00-.345-.536l-.096.096.441.44zM72.27 89.335v1.135l3.564 3.564V85.77zM74.058 54.094c0-.268-.055-.521-.14-.759l-.314.311.454.448zM71.752 51.797h-.021l1.517 1.497.441-.436a2.303 2.303 0 00-1.937-1.061zM49.998 28.399a.705.705 0 01-.705-.705v-1.297h-2.255l-.08.075L50 29.332l3.042-2.86-.079-.075h-2.26v1.297a.705.705 0 01-.705.705zM71.265 49.859a21.981 21.981 0 00-.177-.769l-.769.769h.946zM51.73 13.043v-1.342h-1.247zM70.811 56.402h.941c1.06 0 1.946-.72 2.215-1.695l-.719-.71-2.437 2.405zM69.15 49.859h.462l1.337-1.337a22.293 22.293 0 00-2.048-4.996l-3.042 3.042 3.291 3.291zM72.27 91.177v3.56h3.56zM71.564 51.633c-.055-.429-.12-.854-.198-1.273h-1.092l1.29 1.273zM68.482 42.787a22.255 22.255 0 00-3.253-4.134l-4.134 4.134h7.387zM50.365 29.674l3.043 2.861 2.763-2.598h-1.95a.77.77 0 00-.771-.77v-2.312l-.043-.041-3.042 2.86zM53.006 25.896l.049-.048-2.352-2.351v2.399zM53.772 32.878l.033.031h3.101v-2.805l-.092-.086zM53.626 33.426l-.019-.018h-.399l-.019.018-.017-.018h-2.396l4.359 4.359 3.608-3.608a21.315 21.315 0 00-1.882-.751H53.64l-.014.018zM60.155 42.787h.233l4.487-4.488a21.76 21.76 0 00-5.647-3.915l-3.738 3.738 4.665 4.665zM57.755 46.215l2.929-2.928h-5.858zM68.434 43.287h-5.856l2.928 2.928zM62.568 49.859h5.875l-2.937-2.937zM57.75 53.29l2.969-2.931h-5.938zM65.501 53.29l2.969-2.931h-5.938zM50 53.29l2.969-2.931h-5.938zM54.119 43.287h-.478l-3.283 3.281 3.291 3.291h.462l3.29-3.291zM50.005 46.922l-2.938 2.937h5.875zM57.755 46.922l-2.937 2.937h5.874zM61.399 49.859h.462l3.291-3.291-3.281-3.281h-.48l-3.283 3.281zM53.011 32.909l.032-.031L50 30.018l-3.042 2.86.032.031zM41.958 33.851c-.236.096-.465.208-.697.312l.188.188c.183-.184.355-.353.509-.5zM43.481 33.759c-.021.016-.568.443-1.369 1.255l.969.969c.609-1.302 1.132-2.154 1.411-2.574h-.832a.47.47 0 01-.179.35zM59.448 42.787l-4.311-4.312-4.311 4.312zM80.286 87.81l1.739 1.739.047-.047v-4.508h-1.786zM48.217 84.994v2.777l1.777 1.778 1.785-1.785v-2.77zM48.268 11.701v1.239l1.151-1.239zM51.73 16.417v-2.639l-1.779-1.914-1.683 1.811v2.846l1.683 1.811zM48.268 17.256v1.14h1.061zM49.994 11.201l1.736-1.736v-.248h-.962V6.072l-.817-.816-.721.721v3.24h-.962v.344l1.64 1.64zM52.934 43.287h-5.857l2.928 2.928zM80.286 88.517v2.771l1.386-1.386zM48.268 10.268v.933h.933zM46.144 18.938a.75.75 0 00-.346.539l.442-.442-.096-.097zM49.635 29.674l-3.042-2.86-.044.042v2.311a.768.768 0 00-.771.77H43.83l2.763 2.598 3.042-2.861zM51.73 11.201v-1.029l-1.029 1.029zM46.227 32.878l-3.041-2.859-.093.087v2.803h3.102zM53.053 19.035l-.138-.139h-5.83l-.138.138L50 22.087zM49.343 22.744a.693.693 0 01.276-.331l-3.025-3.025-.647.647a.76.76 0 00.602.306v5.11l.043.043 2.751-2.75zM82.025 90.256l-1.739 1.739v2.742h1.786v-4.434zM43.761 83.719V81.09a2.227 2.227 0 014.451-.045l1.422-1.423-4.321-4.322h-1.326l-4.322 4.322 4.096 4.097zM49.885 42.787h.233l4.665-4.665-4.713-4.713h-.137l-2.831 2.831c-.089.933-.188 2.102-.281 3.484l3.064 3.063zM31.576 43.287l2.928 2.928.49-.49c.22-.854.477-1.666.765-2.438h-4.183zM49.178 42.787l-2.398-2.398c-.047.743-.091 1.542-.131 2.398h2.529zM49.651 46.568l-3.036-3.036a189.36 189.36 0 00-.162 6.234l3.198-3.198zM29.953 78.864c1.229 0 2.226.999 2.226 2.226v1.725l1.68 1.68h.226l1.657-1.657V81.09a2.23 2.23 0 012.226-2.226c.088 0 .172.016.258.026l-3.59-3.591H33.31l-3.588 3.588c.077-.007.152-.023.231-.023zM34.688 52.302a.47.47 0 01-.47-.47c0-.502.023-.989.052-1.473h-2.74l2.969 2.931 2.969-2.931h-2.245c-.03.485-.064.968-.064 1.473a.472.472 0 01-.471.47zM42.608 46.568l2.908 2.909c.025-2.21.083-4.2.159-5.977l-3.067 3.068zM34.504 46.922l-2.938 2.938h2.735c.076-.959.207-1.878.38-2.76l-.177-.178zM40.822 42.787c.025-.112.047-.229.073-.339l-.339.339h.266zM40.198 94.737h3.563V94.7l-3.563-3.563zM40.198 89.375v1.055l3.563 3.563v-8.181zM40.493 44.453c.07-.399.144-.788.223-1.167h-1.389l1.166 1.167zM34.835 94.737h.907v-.907zM24.159 94.736v.001h3.564v-3.565zM41.901 46.568l-.682-.682a39.823 39.823 0 00-.188 1.553l.87-.871zM43.279 75.3h-7.936l3.968 3.969zM42.255 46.215l2.928-2.928h-3.491a38.41 38.41 0 00-.374 1.992l.937.936zM41.103 34.711l-.331-.331c-2.084 1-3.983 2.33-5.643 3.92l1.98 1.98a25.918 25.918 0 013.994-5.569zM19.707 87.805v-2.811h-1.782v4.517l.038.038zM17.925 90.294v4.443h1.782V92l-1.744-1.744zM19.707 81.726l-1.75-1.75-.032.032v4.486h1.782zM32.179 93.795v.942h.942zM21.926 75.3h-4.001c-.984 0-1.782.802-1.782 1.782 0 .149.024.292.059.431l1.293 1.293c.138.035.281.059.43.059v.372l.032.032 3.969-3.969zM37.441 49.859l-1.953-1.953a23.245 23.245 0 00-.244 1.953h2.197zM18.316 89.902l1.391 1.391v-2.781zM45.942 38.844c.042-.563.083-1.088.124-1.567l-.846.846.722.721zM27.723 89.339l-3.564-3.564v8.254l3.564-3.564zM39.28 50.359l.602.594a57.5 57.5 0 01.014-.594h-.616zM32.058 56.402h4.882l-2.441-2.41zM39.317 49.859h.591c.009-.212.022-.417.034-.625l-.625.625zM19.713 81.025a2.224 2.224 0 014.446.065v2.653l4.121-4.121-4.321-4.322h-1.326l-4.322 4.322 1.402 1.403zM32.603 75.3h-7.937l3.968 3.969zM30.818 50.359h-.38l-3.33 3.287 2.793 2.756h1.445l2.797-2.76zM26.033 54.708a2.298 2.298 0 002.211 1.694h.945l-2.437-2.405-.719.711zM61.82 50.359h-.389l-3.325 3.283 2.797 2.76h1.445l2.798-2.76zM39.809 56.402h4.882l-2.441-2.409zM40.501 52.268a.47.47 0 01-.64-.436c0-.066.004-.127.004-.192l-1.296-1.28h-.389l-3.325 3.282 2.797 2.761h1.445l2.797-2.761-1.393-1.374zM80.286 81.709v2.785h1.786v-4.466l-.052-.052zM64.255 93.839v.898h.898zM40.796 51.855l1.454 1.435 2.969-2.931h-4.382c-.016.485-.036.968-.036 1.473 0 .008-.005.016-.005.023zM45.191 49.859l-2.937-2.938-1.293 1.293c-.046.537-.087 1.08-.113 1.644h4.343zM56.232 94.695v.042h3.563v-3.604zM59.795 89.379l-3.563-3.563v8.172l3.563-3.562zM54.069 50.359h-.388l-3.325 3.282 2.797 2.761h1.445l2.797-2.76zM55.31 56.402h4.881l-2.441-2.41zM69.563 50.359h-.381l-3.326 3.283 2.798 2.76h1.445l2.793-2.756zM63.06 56.402h4.882l-2.441-2.41zM46.45 50.487c-.003.445-.007.884-.007 1.345a.47.47 0 01-.94 0c0-.362.003-.703.005-1.056l-2.903 2.865 2.797 2.761h1.444l2.798-2.762-3.194-3.153zM50.348 89.902l1.431 1.432v-2.863zM66.867 94.737h.951v-.951zM47.559 56.402h4.882L50 53.992zM75.311 75.3h-7.937l3.969 3.969zM53.957 75.3H46.02l3.968 3.969zM47.182 35.453l2.044-2.044h-1.807c0 .016.005.03.002.046-.002.021-.103.704-.239 1.998zM51.782 81.063a2.225 2.225 0 014.451.028v2.612l4.08-4.08L55.99 75.3h-1.326l-4.322 4.322 1.44 1.441zM64.634 75.3h-7.937l3.969 3.969zM44.867 38.476l-2.646 2.645a35.43 35.43 0 00-.421 1.666h3.908c.057-1.202.12-2.303.187-3.283l-1.028-1.028zM39.849 42.787l1.281-1.281a32.514 32.514 0 011.734-5.033l-1.096-1.096a24.677 24.677 0 00-3.965 5.597l1.813 1.813h.233zM48.217 92.033v2.704h3.562v-2.696l-1.785-1.785zM37.572 41.45c-.21.43-.414.873-.607 1.336h1.943l-1.336-1.336zM36.771 43.287c-.134.344-.268.688-.389 1.05l1.05-1.05h-.661zM82.072 79.216v-.353c.139 0 .272-.02.402-.05l1.329-1.329c.03-.13.05-.264.05-.403a1.778 1.778 0 00-1.778-1.781h-4.024l3.969 3.969.052-.053zM38.62 43.287h-.48l-2.065 2.065c-.181.63-.339 1.283-.471 1.961l2.546 2.546h.462l1.387-1.387c.091-1.207.225-2.346.395-3.414l-1.774-1.771zM71.738 79.664l4.096 4.096v-2.67a2.23 2.23 0 012.227-2.226 2.22 2.22 0 012.218 2.146l1.388-1.388-4.323-4.322h-1.326L71.7 79.618c.014.015.026.031.038.046zM48.217 88.479v2.847l1.424-1.424zM44.514 38.122l-.923-.922a31.814 31.814 0 00-1.064 2.909l1.987-1.987zM62.025 78.864a2.23 2.23 0 012.229 2.226v1.768l1.637 1.637h.226l1.701-1.701V81.09c0-1.227.996-2.226 2.226-2.226.071 0 .139.015.209.021L66.667 75.3h-1.326l-3.592 3.593c.092-.012.182-.029.276-.029zM43.809 36.71l1.059 1.059 1.269-1.269c.161-1.732.301-2.788.344-3.091h-.086l-.019.018-.017-.018h-.82a.449.449 0 01-.082.254c-.019.025-.763 1.075-1.648 3.047zM59.795 84.494V81.09c0-.093.017-.181.027-.271l-3.59 3.59v.085h3.563zM48.219 68.783l-2.771-2.691h-.638l-1.047 1.017v6.051l.826.802h1.08l2.55-2.478zM48.219 72.183l-1.831 1.779h1.831zM27.723 73.291v.671h4.456v-1.956l-1.567-1.523zM56.236 67.171l-1.11-1.079h-.64l-2.703 2.627v2.83l2.483 2.413h1.082l.888-.864zM40.199 70.571l-3.489 3.391h3.489zM43.763 73.962h.107l-.107-.104zM51.779 84.494v-2.727l-1.791-1.791-1.771 1.771v2.747zM72.27 81.09v3.404h3.564v-.027l-3.586-3.586c.007.07.022.138.022.209zM67.786 65.592h4.525c.035-.176.104-.338.187-.49l-3.241-3.24-2.471 2.471c.507.234.887.697 1 1.259zM72.27 88.628l3.564-3.565v-.069H72.27zM56.236 73.795l-.171.167h.171zM67.822 66.092v2.235l1.501 1.458 2.952-2.869v-.824zM59.799 73.962h3.427l-3.427-3.33zM64.259 66.092h-.095l-4.16 4.042 3.939 3.828h.316zM35.771 66.092h-.028v7.87h.248l3.94-3.827zM36.489 66.092l3.71 3.605v-3.605zM43.955 65.592l-.328-.328c.043.104.078.215.101.328h.227zM63.446 66.092h-3.647v3.544zM30.972 70.135l1.207 1.173v-2.347zM41.981 64.161c.241 0 .47.049.679.136l-2.436-2.436-3.731 3.73h3.742a1.783 1.783 0 011.746-1.43zM32.179 83.521v.973h.973zM55.844 66.092l.392.382v-.382zM53.769 66.092h-1.986v1.929zM58.021 64.161a1.78 1.78 0 011.742 1.431h3.547l-3.731-3.73-3.73 3.73h.424a1.786 1.786 0 011.748-1.431zM46.167 66.092l2.052 1.994v-1.994zM50.001 64.161c.86 0 1.582.616 1.746 1.431h1.886l-3.731-3.73-3.731 3.73h2.083a1.785 1.785 0 011.747-1.431zM44.091 66.092h-.328v.318zM51.783 73.962h1.765l-1.765-1.715zM44.662 65.592h.802l4.084-4.084-3.582-3.583h-1.805l-3.583 3.583zM43.454 57.925h-6.459l3.23 3.229zM33.593 64.2a1.784 1.784 0 012.115 1.392h.079l4.085-4.084-3.583-3.583h-1.805L30.9 61.508l2.693 2.692zM33.776 57.925h-6.459l3.23 3.229zM54.34 65.592h.802l4.084-4.084-3.583-3.583h-1.805l-3.583 3.583zM67.822 69.024v2.219l1.142-1.109zM23.939 58.094l.169-.169h-.169zM56.232 84.994v.115l3.563 3.563v-3.678zM20.521 61.513l-.239-.239a1.807 1.807 0 00-.125.603l.364-.364zM64.255 83.564v.93h.93zM21.875 60.158a1.767 1.767 0 00-1.33.672l.329.329 1.001-1.001zM23.939 60.152h-1.351l-1.36 1.36 3.326 3.326a1.774 1.774 0 011.387-.678c.445 0 .847.169 1.159.439l3.093-3.093-3.583-3.583h-1.795l-.876.876v1.353zM62.809 57.925H56.35l3.229 3.229zM53.131 57.925h-6.458l3.229 3.229zM75.645 65.152c.068.138.126.283.158.439h2.262v-1.874c.734 0 1.365-.444 1.639-1.078l-.773-.773-3.286 3.286zM64.018 65.592h.276a1.781 1.781 0 011.743-1.431c.066 0 .129.013.193.02l2.673-2.673-3.583-3.583h-1.805l-3.583 3.583 4.086 4.084zM66.824 84.494h.994V83.5zM75.838 72.858l2.226-2.163v-1.112l-2.226-2.164zM67.822 71.941v2.021h4.453v-.61l-2.952-2.87zM69.682 70.134l2.593 2.52v-5.041zM75.838 66.722l2.226 2.163v-2.793h-2.226zM64.255 84.994v.971l.971-.971zM76.059 57.925h-.364l.364.363zM66.794 84.994l1.024 1.025v-1.025zM72.486 57.925h-6.459l3.23 3.229zM79.836 62.065c.004-.043.014-.085.014-.13 0-.287-.074-.554-.195-.794l-.371.371.552.553zM78.064 60.152h-.142l1.007 1.007.437-.437a1.78 1.78 0 00-1.302-.57zM72.794 64.69a1.778 1.778 0 011.267-.529c.513 0 .972.222 1.296.571l3.22-3.22-1.36-1.36H76.06v-1.157l-1.07-1.07h-1.795l-3.583 3.583 3.182 3.182zM40.198 88.668l3.563-3.564v-.11h-3.563zM27.723 66.092v.886l2.889 2.807 1.567-1.522v-2.171zM40.198 84.494h3.563v-.068l-3.589-3.589c.009.084.025.166.025.253v3.404zM21.933 73.962h2.226v-.346l-2.226-2.162zM34.763 84.994l.979.98v-.98zM32.179 84.994v1.016l1.015-1.016zM32.215 65.592c.103-.513.43-.94.871-1.191l-2.539-2.539-3.114 3.113c.121.186.209.393.254.617h4.528zM75.838 73.962h2.226v-2.569l-2.226 2.164zM26.396 53.646l-.315-.312c-.085.239-.14.492-.14.761l.455-.449zM29.726 50.359h-1.097c-.077.421-.141.846-.195 1.274l1.292-1.274zM27.723 84.494V81.09c0-.077.015-.151.023-.227l-3.587 3.587v.044h3.564zM28.909 49.078c-.063.259-.12.52-.174.781h.956l-.782-.781zM36.87 40.748l-2.104-2.104a22.245 22.245 0 00-3.239 4.143h4.422c.286-.719.595-1.397.921-2.039zM30.859 49.859l3.291-3.291-3.054-3.054a22.276 22.276 0 00-2.042 5.002l1.343 1.343h.462zM34.056 84.994h-.155l-1.722 1.723v6.371l1.649 1.649h.3l1.614-1.614v-6.442zM24.159 84.994v.074l3.564 3.564v-3.638zM28.269 51.797h-.025a2.3 2.3 0 00-1.934 1.061l.442.437 1.517-1.498zM34.792 84.494h.95v-.95zM24.29 65.282l-3.416-3.416-.626.626a1.778 1.778 0 001.685 1.226v1.874h2.262c.022-.108.055-.21.095-.31zM24.159 66.092h-2.226v2.732l2.226-2.162zM27.723 67.676v4.917l2.53-2.458zM21.933 69.522v1.233l2.226 2.163v-5.559z"/>
    <path d="M76.059 58.288v.707l1.157 1.157h.707zM40.392 45.059l.827.827c.03-.209.067-.404.1-.607l-.826-.826c-.035.199-.068.401-.101.606zM28.409 51.797c.006-.055.018-.108.025-.163l-.165.163h.14zM27.723 84.494h4.456v.5h-4.456zM39.311 79.976l.862.861a2.215 2.215 0 00-1.947-1.946l.731.731-3.215 3.215v.707l3.569-3.568zM48.217 84.994v-.5H45.47l2.747-2.747v-.657c0-.016-.004-.03-.004-.045l-3.45 3.449h-.227l-.775-.775v.707l.068.068h-.068v.5h.11l-.11.109v.708l.817-.817h.155l3.484 3.484v-.707l-2.777-2.777h2.777zM45.895 39.503l.885.885.042-.665-.88-.88-.047.66zM35.742 84.494h4.456v.5h-4.456zM46.066 37.276l1.037-1.037.079-.786-1.046 1.047-.07.776zM40.716 43.287h.977c.036-.167.07-.337.108-.5h-.978c-.037.164-.073.331-.107.5zM51.783 65.945c0-.121-.013-.239-.036-.354h-3.493a1.786 1.786 0 00-.036.354v.146h3.564v-.146zM43.763 65.945c0-.121-.013-.239-.036-.354h-3.493a1.786 1.786 0 00-.036.354v.146h3.564v-.146zM72.312 65.592a1.786 1.786 0 00-.036.354v.146h.849l-.849.824v.697l1.566-1.521h.63l1.366 1.327v-.697l-.648-.63h.648v-.146a1.88 1.88 0 00-.035-.354h-.599l.44-.439a1.799 1.799 0 00-.288-.42l-.859.859h-.802l-.901-.901c-.119.12-.215.261-.296.411l.49.49h-.676zM41.13 41.505c-.08.309-.16.617-.235.942l1.327-1.327c.099-.353.202-.684.305-1.012l-1.397 1.397zM71.59 51.797h.142l-.167-.164c.006.055.018.108.025.164zM67.822 69.024v-.697l-2.301-2.235h2.301v-.146c0-.121-.013-.239-.036-.354h-2.26l1.26-1.26a1.729 1.729 0 00-.556-.151l-1.411 1.411h-.525a1.864 1.864 0 00-.035.354v.146h.545l3.018 2.932zM67.818 84.494h4.451v.5h-4.451zM56.117 84.994h.115v-.5h-.085l.085-.085v-.707l-.792.792h-.227l-3.432-3.432c0 .01-.003.018-.003.027v.677l2.728 2.728h-2.728v.5h2.77l-2.77 2.77v.707l3.477-3.477h.154l.822.822v-.707l-.114-.115zM45.355 33.005a.471.471 0 00-.656.101c-.021.028-.1.14-.207.303h1.046a.467.467 0 00-.183-.404zM23.939 58.094l-2.064 2.064c.02-.001.038-.006.058-.006h.655l1.351-1.352v-.706zM59.795 84.494h4.46v.5h-4.46zM71.343 79.976l.905.905a2.203 2.203 0 00-.51-1.217l-.042-.042.004-.004a2.202 2.202 0 00-1.447-.732l.736.736-3.171 3.171v.707l3.525-3.524zM45.676 43.501l.214-.214h.479l.246.246.033-.746h-.94l-.032.714zM45.898 49.859l-.382-.382c-.004.422-.006.861-.008 1.299l.422-.417h.389l.13.128c.001-.238.001-.487.003-.721l-.093.093h-.461zM34.27 50.359h.953c.01-.165.008-.337.022-.5h-.943c-.014.165-.023.333-.032.5zM80.286 84.994v-.5h-2.785l2.785-2.785v-.619c0-.027-.007-.053-.008-.08l-3.484 3.484h-.226l-.734-.734v.707l.027.027h-.027v.5h.068l-.068.068v.707l.775-.775h.154l3.522 3.522v-.706l-2.815-2.815h2.816zM64.255 83.564v-.707l-3.235-3.235.729-.729a2.216 2.216 0 00-1.927 1.927l.844-.844 3.589 3.588zM48.219 71.484v.699l1.749-1.701 1.815 1.765v-.698l-1.456-1.415 1.456-1.415v-.698l-1.815 1.764-1.749-1.699v.697l1.389 1.351zM40.849 49.859h-.94c-.007.163-.007.335-.012.5h.94c.005-.165.004-.337.012-.5zM32.179 86.717v-.707l-3.539 3.539-.917-.917v.707l.563.563-.563.563v.707l.917-.916 3.539 3.539v-.707l-3.186-3.186zM41.031 47.439l-1.034 1.034c-.019.252-.04.503-.055.762l1.019-1.019c.022-.261.043-.523.07-.777zM43.763 73.858v-.698l-3.114-3.025 3.114-3.026v-.699l-3.473 3.375-.091-.088v.874l.091-.088zM50.379 22.415a.685.685 0 00-.381-.128.685.685 0 00-.379.126l.028.028-.304.303a.707.707 0 00-.05.248v.509l.707-.707.703.703v-.505a.709.709 0 00-.051-.253l-.299-.298.026-.026zM56.236 73.098v.697l3.41-3.313.153.15v-.996l-.153.149-3.41-3.311v.697l3.05 2.963zM59.799 65.945a1.88 1.88 0 00-.035-.354h-3.491a1.786 1.786 0 00-.036.354v.146H59.8v-.146zM64.255 86.672v-.707l-3.583 3.584-.877-.877v.707l.523.523-.523.524v.707l.877-.877 3.583 3.583v-.707l-3.23-3.23zM24.195 65.592a1.786 1.786 0 00-.036.354v.146h.586l-.586.57v.697l1.305-1.268h.628l1.63 1.584v-.698l-.912-.886h.912v-.146c0-.121-.013-.239-.036-.354h-.872l.618-.617a1.747 1.747 0 00-.333-.374l-.992.991h-.802l-.753-.753a1.786 1.786 0 00-.264.443l.31.31h-.403z"/>
    <path d="M83.732 74.25V56.933h-.537l-.02-.02-.02.02H77.08V42.787h-6.465v-9.878h-9.756V18.397h-3.963V4.75H43.104v13.646h-3.963v14.512h-9.756v9.878H22.92v14.146h-6.273l-.02-.02-.02.02h-.341v17.317h-3.712V95.236h74.89V74.25h-3.712zM70.615 43.287h5.57l-2.934 2.933-2.932-2.933h.296zm5.965.312v5.948l-2.975-2.974 2.975-2.974zm-6.814-10.19l-4.347 4.347-4.348-4.347h8.695zm.349.357v8.687l-4.343-4.343 4.343-4.344zm-16.263-7.37h6.085l-3.122 2.936-3.043-2.861.08-.075zm-.09-.548l3.053-3.053 3.101 3.101H53.81l-.048-.048zm6.597.837v5.981l-3.181-2.991 3.181-2.99zm-3.191-4.243l3.191-3.192v6.384l-3.191-3.192zM55.945 5.25l-2.646 2.646-2.647-2.646h5.293zm.451.256v5.488L53.652 8.25l2.744-2.744zM49.25 5.25l-2.646 2.646-2.647-2.646h5.293zm-5.646.354L46.25 8.25l-2.646 2.646V5.604zm0 6.634l2.659 2.86-2.659 2.86v-5.72zm-3.963 7.012l3.192 3.192-3.192 3.192V19.25zm6.549 6.646h-6.105l3.101-3.101 3.053 3.053-.049.048zm.038.576l-3.042 2.86-3.122-2.936h6.084l.08.076zm-6.587.213l3.18 2.991-3.18 2.991v-5.982zm-.708 6.724l-4.348 4.347-4.347-4.347h8.695zm-9.049.353l4.347 4.347-4.347 4.348v-8.695zm-.5 9.525h.306l-2.933 2.933-2.933-2.933h5.56zm-5.964.302l2.983 2.983-2.983 2.983v-5.966zm0 7.118l2.661 2.627c.06-.168.133-.329.229-.477l-2.531-2.498h4.85c.031-.168.071-.333.106-.5h-4.911l2.933-2.933 2.152 2.152c.046-.188.095-.375.146-.562l-1.944-1.944 3.286-3.286h.472l.228.228c.138-.247.283-.487.43-.728h-1.265l4.323-4.324.181.181c.118-.118.244-.228.364-.343l-.191-.191 4.701-4.701h.16l.972.972c.161-.077.326-.145.489-.218l-.754-.754h3.152a.466.466 0 00-.089-.309c-.118-.152-.303-.178-.478-.138v-.053h-2.98l2.98-2.802v-.169h.737l-.278-.262 2.998-2.819v-1.405l-3.009-3.009 2.407-2.407a.744.744 0 01-.169-.458c0-.036.016-.066.02-.101l-2.612 2.612-3.192-3.192H46.102l.042.041a.752.752 0 01.405-.13h1.719v-.411h-4.389l2.725-2.931 1.665 1.791v-.735l-1.323-1.423 1.323-1.423v-.735l-1.665 1.791-2.816-3.029h4.48v-.5h-4.262l2.598-2.598 1.665 1.665v-.708L46.957 8.25l2.273-2.273v-.213c.002-.426.348-.764.77-.764s.768.338.768.764v.308l2.178 2.178-1.216 1.215v.707l1.568-1.568 2.598 2.598H51.73v.5h4.385l-2.816 3.029-1.568-1.688v.735l1.227 1.32-1.227 1.319v.735l1.568-1.687 2.725 2.931H51.73v.411h1.719c.152 0 .287.056.406.132l.043-.042h6.107l-3.191 3.192-2.614-2.614c.005.035.021.066.021.103a.741.741 0 01-.169.456l2.409 2.409-3.012 3.012v1.401l3 2.82-.278.262h.735v.167l2.981 2.804h-2.981v.476H56.8l.063.024h2.633l-.751.751c.162.073.323.147.483.224l.975-.975h.161l4.701 4.701-.189.189c.12.116.235.236.354.354l.189-.19 4.323 4.324h-1.26c.147.242.281.492.419.74l.239-.24h.473l3.285 3.286-1.949 1.95c.051.188.092.379.139.568l2.164-2.165 2.934 2.933h-4.921c.034.167.071.332.102.5h4.854l-2.531 2.499c.095.147.169.309.229.477l2.662-2.628v5.877l-2.522-2.49.001.006c0 .212-.038.413-.092.607l2.255 2.226h-1.519l-.02-.02-.02.02h-1.146l-.02-.02-.02.02h-3.205l.537-.53h-.712l-.537.53h-.37l-.537-.53h-.712l.537.53h-3.444l-.02-.02-.02.02H63.84l-.02-.02-.02.02h-1.278l.537-.53h-.712l-.537.53h-.37l-.537-.53h-.712l.537.53h-5.371l-.02-.02-.02.02h-.546l.537-.53h-.712l-.537.53h-.37l-.537-.53h-.712l.537.53H47.02l.537-.53h-.712l-.537.53h-.37l-.537-.53h-.711l.537.53h-.743l-.02-.02-.02.02h-5.175l.537-.53h-.712l-.537.53h-.371l-.537-.53h-.709l.537.53h-1.475l-.02-.02-.02.02h-1.156l-.02-.02-.02.02h-3.248l.537-.53h-.712l-.537.53h-.37l-.537-.53h-.712l.538.53h-3.402l-.02-.02-.02.02H25.14l-.02-.02-.02.02h-1.322l2.254-2.225a2.264 2.264 0 01-.092-.608v-.005l-2.521 2.488v-5.876zm32.976-38.574v5.929l-2.756-2.965 2.756-2.964zM16.767 57.76l3.514 3.514c.065-.162.156-.309.264-.443l-3.397-3.397H24.601l-.492.492h.707l.492-.492h.811l.492.492h.707l-.492-.492h7.443l-.492.492h.707l.492-.492h.82l.492.492h.707l-.492-.492h7.443l-.492.492h.707l.492-.492h.82l.492.492h.707l-.492-.492h7.442l-.492.492h.707l.492-.492h.82l.492.492h.707l-.492-.492h7.443l-.492.492h.707l.492-.492h.82l.492.492h.707l-.492-.492h7.443l-.492.492h.707l.492-.492h.811l.492.492h.707l-.492-.492H82.654l-3.29 3.29c.115.125.211.266.288.419l3.578-3.578v7.897l-3.396-3.396a1.77 1.77 0 01-.133.574l2.953 2.952h-4.592v.5h4.737l-3.806 3.698-.932-.905v.698l.572.556-.572.557v.697l.932-.905 3.872 3.763h-7.744l.714-.693v-.698l-1.432 1.392h-.488l-1.643-1.596v.697l.928.897h-7.754l2.376-2.309v-.698l-3.094 3.007h-.488l-.297-.288h-.718l.297.288h-7.754l.297-.288h-.718l-.297.288h-.488l-.297-.288h-.718l.297.288h-7.753l.296-.288h-.719l-.296.288h-.487l-.296-.288h-.719l.296.288h-7.753l.296-.288h-.719l-.296.288h-.487l-3.028-2.942v.698l2.31 2.244h-7.753l.987-.959v-.698l-1.706 1.657h-.487l-1.371-1.332v.698l.652.634h-7.743l3.872-3.762.994.966v-.699l-.634-.616.634-.616v-.698l-.994.966-3.806-3.698h4.799v-.5h-4.786l3.101-3.1a1.775 1.775 0 01-.097-.557c0-.021.005-.039.006-.06l-3.39 3.39V57.76zm66.465 8.611v7.535l-3.878-3.768 3.878-3.767zm-66.465.063l3.813 3.705-3.813 3.705v-7.41zm-3.712 8.64l4.548 4.548-4.548 4.548v-9.096zm0 10.274l4.554 4.555-4.554 4.555v-9.11zM82.072 95h-1.786v-.263h-2.742l2.742-2.742v-.707l-3.449 3.449h-.3l-.703-.703V95H72.27v-.263h-4.451V95h-3.563v-.263h-4.46V95h-3.563v-.263h-.043l.042-.042v-.707l-.749.749h-.301l-3.403-3.403v.707l2.696 2.696h-2.696V95h-3.563v-.263h-2.704l2.704-2.704v-.707l-3.411 3.411h-.3l-.744-.744v.707l.037.037h-.037V95h-3.563v-.263h-4.456V95h-3.563v-.263h-4.456V95h-3.564v-.263h-.001l.001-.001v-.707l-.708.708h-.3l-3.444-3.444V92l2.737 2.737h-2.737V95h-1.782v-.263h-4.443l4.443-4.443v-.783l-4.516-4.517h4.516v-.5h-4.486l4.486-4.486v-.771l-.43-.431a1.774 1.774 0 01-1.293-1.293l-2.763-2.763h9.037l-.55.55h.707l.55-.55h.227l.55.55h.707l-.55-.55h9.036l-.55.55h.707l.55-.55h.227l.55.55h.707l-.55-.55h9.036l-.55.55h.707l.55-.55h.227l.55.55h.707l-.55-.55h9.037l-.55.55h.707l.55-.55h.227l.55.55h.707l-.55-.55h9.036l-.55.55h.707l.55-.55h.227l.55.55h.707l-.55-.55h9.036l-.55.55h.707l.55-.55h.227l.55.55h.707l-.55-.55H86.54l-2.734 2.734a1.775 1.775 0 01-1.329 1.329l-.402.402v.813l4.466 4.466h-4.466v.5h4.508l-4.508 4.508v.801l4.435 4.435h-4.435V95zm4.873-.531l-4.566-4.566 4.566-4.566v9.132zm0-10.275l-4.572-4.572 4.572-4.572v9.144z"/>
    <path d="M71.349 89.549l-3.531-3.53v.707l3.177 3.176-3.177 3.177v.707l3.531-3.53.921.921v-.707l-.568-.568.568-.567v-.707zM40.796 51.855l-.914-.902c-.004.23-.016.452-.017.687l.636.628a.467.467 0 00.295-.413zM39.317 89.549l-3.575-3.575v.707l3.221 3.221-3.221 3.221v.707l3.575-3.574.881.881v-.707l-.528-.528.528-.527v-.707zM42.112 35.014l-.663-.663c-.11.112-.228.235-.347.36l.665.665c.117-.124.237-.253.345-.362zM32.215 65.592a1.786 1.786 0 00-.036.354v.146h2.234l-2.234 2.171v.698l2.953-2.869h.611v-.146c0-.121-.013-.239-.036-.354h-.723L33.593 64.2c-.182.038-.35.11-.507.2l1.191 1.191h-2.062zM37.802 40.973l-.692-.692c-.082.152-.161.31-.24.467l.703.703c.076-.159.15-.325.229-.478zM36.965 42.787h-1.016c-.065.164-.127.332-.19.5h1.012c.065-.167.126-.338.194-.5zM49.293 25.896h1.41v.5h-1.41zM32.179 83.521v-.707l-3.192-3.192.734-.734a2.217 2.217 0 00-1.976 1.976l.888-.888 3.546 3.545zM42.66 64.297l.967.967a1.793 1.793 0 00-.967-.967zM46.81 33.426l.017-.018h.593a.465.465 0 00-.391-.489c-.298-.042-.498.138-.536.394l-.014.095h.312l.019.018zM43.591 37.2c.074-.172.145-.33.217-.49l-.727-.727c-.071.151-.145.326-.218.489l.728.728zM24.085 84.994h.074v-.5h-.044l.044-.044v-.707l-.751.751h-.226l-3.469-3.469c0 .021-.006.042-.006.064v.636l2.769 2.769h-2.769v.5h2.811l-2.811 2.811v.707l3.518-3.518h.154l.781.781v-.707l-.075-.074zM36.074 45.352c.098-.343.197-.686.308-1.015l-1.388 1.388a24.08 24.08 0 00-.313 1.375l.808.808c.034-.202.075-.396.114-.593l-.745-.745 1.216-1.218z"/>
</svg>
