<svg height="100" width="100" viewBox="2 20 98 68" xmlns="http://www.w3.org/2000/svg">
    <path fill="none" stroke="#000" stroke-width="2.02" stroke-linecap="round" stroke-miterlimit="10" d="M47.708 81.92l.542-.003M83.375 81.92l.541-.003M45.042 78.227h3.708M80.207 78.227h4.168M42.875 74.538l10.451-.004M78.875 74.538l4.201-.004M61.625 74.538l2.688-.004M34.875 70.848l46.101-.003M24.042 67.161l56.165-.004M17.625 63.467l64.188-.002M11.667 59.781l73.521-.004M7.542 56.091l80.333-.002M6 52.398h81.188M4.833 48.709H88.5M4.167 45.02l85.333-.001M4.167 41.332l60.896-.001M68.313 41.332l5.312-.001M79.875 41.332l11.5-.001M5 37.643l60.063-.008M68.688 37.643l3.125-.008M84.063 37.643l9.375-.008M6.458 33.829l62.917-.001M87.188 33.829l7.271-.001M92.917 30.141l4.521-.003M7.75 30.141l49.264-.003M8.625 26.329l15.292-.001M92.917 26.329l2.667-.001M12.208 22.644l-.875-.006"/>
</svg>
