<svg height="100" width="100" viewBox="4 20 92 60" xmlns="http://www.w3.org/2000/svg">
    <path d="M94.739 24.131c.139.366.219 1.131.261 1.886h-2.27l.592-2.009a.742.742 0 01.681-.41.81.81 0 01.432.125.73.73 0 01.291.376l.013.032zM89.477 30.377h4.995c-.24.51-.552.99-.934 1.427l-.061.075a4.958 4.958 0 00-1.166 2.855h-8.428c.315-.446.59-.92.816-1.425a1.93 1.93 0 011.062-1.014l.934-.366c1-.394 1.934-.917 2.782-1.552zM15.112 23.974l-.229.141-.312.648-.195.133-.704.107c-.213.027-.293.285-.141.438l.507.499.08.221-.125.712a.263.263 0 00.251.301l.123-.035.632-.331.115-.035.125.035.632.331.115.035c.152 0 .285-.141.248-.301l-.115-.712.072-.221.515-.499c.152-.152.061-.411-.141-.438l-.712-.107-.187-.133-.32-.648a.264.264 0 00-.234-.141zm-7.433 7.139l.515.499.072.221-.126.705a.26.26 0 00.259.301l.115-.027.632-.328.123-.037.117.037.63.328.125.027a.253.253 0 00.248-.301l-.123-.704.08-.221.507-.499c.149-.149.069-.408-.144-.435l-.702-.107-.194-.142-.32-.64a.25.25 0 00-.453 0l-.32.64-.187.141-.713.107a.255.255 0 00-.141.435zm20.13-6.176l3.183.323.075.181.518.499.069.221-.123.712a.263.263 0 00.256.301l.117-.035.63-.331.125-.035.115.035.632.331.125.035a.258.258 0 00.248-.301l-.125-.712.08-.221.368-.363 2.772.283c.176.019.355.037.531.059l.021.021.08.221-.125.712a.262.262 0 00.248.301l.125-.035.632-.331.115-.035.125.035.63.331.117.035c.149 0 .283-.141.248-.301l-.101-.638c.608.115 1.214.245 1.817.392l.848.208.352.085v3.455h18.93l1.43.483a.621.621 0 01.209 1.054v.003l-.037.032a3.54 3.54 0 00-1.222 2.687l.005.099H42.539v4.368h30.282c.149.488.414.939.771 1.313a3.29 3.29 0 002.396 1.027c.47 0 .942-.099 1.377-.293.438-.2.84-.499 1.166-.888l.966-1.158h10.52a11.818 11.818 0 00-3.26 4.357H42.539v4.357h42.83a10.71 10.71 0 00-.285 2.452c0 .403.024.808.072 1.217v.016l.003.048c.029.213.045.424.056.635H7.639a17.707 17.707 0 01-2.602-10.425v-.003l.301-4.73a11.01 11.01 0 011.214-4.37 13.178 13.178 0 001.425-4.848l.177-1.908.04.04.072.221-.126.713a.264.264 0 00.259.301l.115-.035.632-.331.123-.035.117.035.63.331.125.035a.256.256 0 00.248-.301l-.123-.712.08-.221.507-.499c.149-.152.069-.411-.144-.438l-.702-.107-.195-.133-.32-.648a.253.253 0 00-.453 0l-.32.648-.187.133-.291.043.304-3.287 6.038 1.547c1.678.432 3.388.736 5.112.91l.99.101-.272.552-.187.133-.712.107c-.203.027-.293.285-.141.438l.515.499.072.221-.125.712a.264.264 0 00.259.301l.115-.035.632-.331.125-.035.115.035.632.331.123.035a.259.259 0 00.251-.301l-.125-.712.08-.221.507-.499c.152-.152.072-.411-.141-.438l-.704-.107-.195-.133-.243-.494 4.992.507-.187.12-.702.107c-.213.027-.293.285-.144.438l.507.499.08.221-.123.712a.262.262 0 00.248.301l.125-.035.63-.331.117-.035.123.035.632.331.115.035c.152 0 .285-.141.251-.301l-.117-.712.072-.221.515-.499c.152-.152.064-.411-.141-.438l-.45-.066zm12.286 6.176c.149-.149.061-.408-.144-.435l-.71-.107-.187-.141-.32-.64a.255.255 0 00-.232-.144.277.277 0 00-.232.144l-.309.64a.236.236 0 01-.197.141l-.702.107c-.213.027-.293.285-.141.435l.507.499.08.221-.125.704a.258.258 0 00.248.301l.125-.027.632-.328.115-.037.125.037.63.328.117.027a.25.25 0 00.248-.301l-.115-.704.069-.221.518-.499zm0 5.675c.149-.152.061-.408-.144-.435l-.71-.107-.187-.133-.32-.648a.255.255 0 00-.232-.144.277.277 0 00-.232.144l-.309.648a.254.254 0 01-.197.133l-.702.107c-.213.027-.293.283-.141.435l.507.499.08.221-.125.712a.255.255 0 00.248.293l.125-.027.632-.331.115-.035.125.035.63.331.117.027c.149 0 .283-.133.248-.293l-.115-.712.069-.221.518-.499zm0 5.675c.149-.152.061-.411-.144-.438l-.71-.107-.187-.133-.32-.648a.257.257 0 00-.232-.141l-.232.141-.309.648a.243.243 0 01-.197.133l-.702.107c-.213.027-.293.285-.141.438l.507.496.08.224-.125.71a.265.265 0 00.248.304l.125-.037.632-.328.115-.035.125.035.63.328.117.037c.149 0 .283-.144.248-.304l-.115-.71.069-.224.518-.496zm0 5.664c.149-.141.061-.4-.144-.435l-.71-.099-.187-.141-.32-.64a.242.242 0 00-.232-.144.26.26 0 00-.232.144l-.309.64a.284.284 0 01-.197.141l-.702.099c-.213.035-.293.293-.141.435l.507.499.08.229-.125.704a.258.258 0 00.248.301l.125-.035.632-.331.115-.027.125.027.63.331.117.035a.25.25 0 00.248-.301l-.115-.704.069-.229.518-.499zm-2.927-19.85c.152-.141.072-.4-.141-.435l-.712-.099-.187-.141-.32-.64a.242.242 0 00-.232-.144.237.237 0 00-.221.144l-.32.64-.187.141-.712.099c-.213.035-.293.293-.141.435l.507.499.08.229-.125.704a.26.26 0 00.259.301l.115-.035.632-.331.115-.027.125.027.632.331.115.035a.26.26 0 00.259-.301l-.125-.704.08-.229.504-.499zm0 5.675c.152-.144.072-.4-.141-.438l-.712-.096-.187-.144-.32-.64a.244.244 0 00-.232-.141.24.24 0 00-.221.141l-.32.64-.187.144-.712.096c-.213.037-.293.293-.141.438l.507.496.08.232-.125.702a.261.261 0 00.259.304l.115-.037.632-.328.115-.027.125.027.632.328.115.037a.262.262 0 00.259-.304l-.125-.702.08-.232.504-.496zm0 5.672a.248.248 0 00-.141-.427l-.712-.107-.187-.141-.32-.64c-.045-.099-.133-.141-.232-.141a.236.236 0 00-.221.141l-.32.64-.187.141-.712.107a.248.248 0 00-.141.427l.507.507.08.224-.125.702a.26.26 0 00.259.301l.115-.027.632-.336.115-.027.125.027.632.336.115.027a.26.26 0 00.259-.301l-.125-.702.08-.224.504-.507zm0 5.675c.152-.152.072-.408-.141-.435l-.712-.107-.187-.144-.32-.64a.257.257 0 00-.232-.141l-.221.141-.32.64-.187.144-.712.107c-.213.027-.293.283-.141.435l.507.499.08.221-.125.702a.261.261 0 00.259.304l.115-.027.632-.331.115-.035.125.035.632.331.115.027a.262.262 0 00.259-.304l-.125-.702.08-.221.504-.499zm-2.927-14.186c.152-.149.072-.408-.141-.435l-.702-.107a.234.234 0 01-.197-.141l-.32-.64a.249.249 0 00-.221-.144.255.255 0 00-.232.144l-.32.64-.187.141-.71.107c-.205.027-.293.285-.144.435l.518.499.069.221-.123.704a.26.26 0 00.256.301l.117-.027.63-.328.125-.037.115.037.632.328.125.027a.254.254 0 00.248-.301l-.125-.704.08-.221.507-.499zm0 5.675c.152-.152.072-.408-.141-.435l-.702-.107a.255.255 0 01-.197-.133l-.32-.648a.249.249 0 00-.221-.144.255.255 0 00-.232.144l-.32.648-.187.133-.71.107c-.205.027-.293.283-.144.435l.518.499.069.221-.123.712c-.027.16.107.293.256.293l.117-.027.63-.331.125-.035.115.035.632.331.125.027a.251.251 0 00.248-.293l-.125-.712.08-.221.507-.499zm0 5.675c.152-.152.072-.411-.141-.438l-.702-.107a.242.242 0 01-.197-.133l-.32-.648-.221-.141a.257.257 0 00-.232.141l-.32.648-.187.133-.71.107c-.205.027-.293.285-.144.438l.518.496.069.224-.123.71a.266.266 0 00.256.304l.117-.037.63-.328.125-.035.115.035.632.328.125.037a.26.26 0 00.248-.304l-.125-.71.08-.224.507-.496zm0 5.664c.152-.141.072-.4-.141-.435l-.702-.099a.284.284 0 01-.197-.141l-.32-.64a.235.235 0 00-.221-.144.242.242 0 00-.232.144l-.32.64-.187.141-.71.099c-.205.035-.293.293-.144.435l.518.499.069.229-.123.704a.26.26 0 00.256.301l.117-.035.63-.331.125-.027.115.027.632.331.125.035a.254.254 0 00.248-.301l-.125-.704.08-.229.507-.499zm-2.924-19.85c.149-.141.069-.4-.144-.435l-.702-.099-.195-.141-.312-.64a.25.25 0 00-.232-.144.245.245 0 00-.229.144l-.312.64-.195.141-.712.099c-.205.035-.293.293-.141.435l.515.499.072.229-.117.704a.255.255 0 00.251.301l.123-.035.632-.331.115-.027.117.027.63.331.125.035a.253.253 0 00.248-.301l-.115-.704.072-.229.506-.499zm0 5.675c.149-.144.069-.4-.144-.438l-.702-.096-.195-.144-.312-.64a.252.252 0 00-.232-.141.247.247 0 00-.229.141l-.312.64-.195.144-.712.096c-.205.037-.293.293-.141.438l.515.496.072.232-.117.702a.256.256 0 00.251.304l.123-.037.632-.328.115-.027.117.027.63.328.125.037a.254.254 0 00.248-.304l-.115-.702.072-.232.506-.496zm0 5.672a.25.25 0 00-.144-.427l-.702-.107-.195-.141-.312-.64a.247.247 0 00-.232-.141.244.244 0 00-.229.141l-.312.64-.195.141-.712.107c-.205.027-.293.285-.141.427l.515.507.072.224-.117.702a.255.255 0 00.251.301l.123-.027.632-.336.115-.027.117.027.63.336.125.027a.253.253 0 00.248-.301l-.115-.702.072-.224.506-.507zm0 5.675c.149-.152.069-.408-.144-.435l-.702-.107-.195-.144-.312-.64a.266.266 0 00-.232-.141l-.229.141-.312.64-.195.144-.712.107c-.205.027-.293.283-.141.435l.515.499.072.221-.117.702a.256.256 0 00.251.304l.123-.027.632-.331.115-.035.117.035.63.331.125.027a.254.254 0 00.248-.304l-.115-.702.072-.221.506-.499zm-2.919-14.186a.255.255 0 00-.141-.435l-.712-.107-.187-.141-.32-.64a.251.251 0 00-.229-.144.273.273 0 00-.232.144l-.312.64-.195.141-.702.107c-.213.027-.293.285-.144.435l.507.499.08.221-.123.704a.258.258 0 00.248.301l.125-.027.63-.328.117-.037.123.037.632.328.115.027a.251.251 0 00.251-.301l-.117-.704.072-.221.514-.499zm0 5.675c.152-.152.064-.408-.141-.435l-.712-.107-.187-.133-.32-.648a.251.251 0 00-.229-.144.273.273 0 00-.232.144l-.312.648-.195.133-.702.107c-.213.027-.293.283-.144.435l.507.499.08.221-.123.712a.255.255 0 00.248.293l.125-.027.63-.331.117-.035.123.035.632.331.115.027c.152 0 .285-.133.251-.293l-.117-.712.072-.221.514-.499zm0 5.675c.152-.152.064-.411-.141-.438l-.712-.107-.187-.133-.32-.648a.254.254 0 00-.229-.141.276.276 0 00-.232.141l-.312.648-.195.133-.702.107c-.213.027-.293.285-.144.438l.507.496.08.224-.123.71a.265.265 0 00.248.304l.125-.037.63-.328.117-.035.123.035.632.328.115.037c.152 0 .285-.144.251-.304l-.117-.71.072-.224.514-.496zm0 5.664c.152-.141.064-.4-.141-.435l-.712-.099-.187-.141-.32-.64a.239.239 0 00-.229-.144.258.258 0 00-.232.144l-.312.64-.195.141-.702.099c-.213.035-.293.293-.144.435l.507.499.08.229-.123.704a.258.258 0 00.248.301l.125-.035.63-.331.117-.027.123.027.632.331.115.035a.251.251 0 00.251-.301l-.117-.704.072-.229.514-.499zm-2.924-19.85c.149-.141.069-.4-.144-.435l-.71-.099-.187-.141-.32-.64a.242.242 0 00-.232-.144.235.235 0 00-.221.144l-.32.64-.187.141-.712.099c-.213.035-.293.293-.141.435l.507.499.08.229-.125.704a.26.26 0 00.259.301l.115-.035.632-.331.115-.027.125.027.63.331.117.035a.26.26 0 00.256-.301l-.123-.704.08-.229.506-.499zm0 5.675c.149-.144.069-.4-.144-.438l-.71-.096-.187-.144-.32-.64a.244.244 0 00-.232-.141.236.236 0 00-.221.141l-.32.64-.187.144-.712.096c-.213.037-.293.293-.141.438l.507.496.08.232-.125.702a.261.261 0 00.259.304l.115-.037.632-.328.115-.027.125.027.63.328.117.037a.26.26 0 00.256-.304l-.123-.702.08-.232.506-.496zm0 5.672a.25.25 0 00-.144-.427l-.71-.107-.187-.141-.32-.64c-.045-.099-.133-.141-.232-.141a.233.233 0 00-.221.141l-.32.64-.187.141-.712.107a.248.248 0 00-.141.427l.507.507.08.224-.125.702a.26.26 0 00.259.301l.115-.027.632-.336.115-.027.125.027.63.336.117.027a.26.26 0 00.256-.301l-.123-.702.08-.224.506-.507zm0 5.675c.149-.152.069-.408-.144-.435l-.71-.107-.187-.144-.32-.64a.257.257 0 00-.232-.141l-.221.141-.32.64-.187.144-.712.107c-.213.027-.293.283-.141.435l.507.499.08.221-.125.702a.261.261 0 00.259.304l.115-.027.632-.331.115-.035.125.035.63.331.117.027a.26.26 0 00.256-.304l-.123-.702.08-.221.506-.499zm-2.926-14.186c.152-.149.072-.408-.141-.435l-.704-.107-.195-.141-.32-.64a.251.251 0 00-.221-.144.255.255 0 00-.232.144l-.32.64-.187.141-.712.107a.256.256 0 00-.141.435l.515.499.072.221-.125.704a.26.26 0 00.259.301l.115-.027.632-.328.125-.037.115.037.632.328.123.027a.255.255 0 00.251-.301l-.125-.704.08-.221.504-.499zm0 5.675c.152-.152.072-.408-.141-.435l-.704-.107-.195-.133-.32-.648a.251.251 0 00-.221-.144.255.255 0 00-.232.144l-.32.648-.187.133-.712.107a.256.256 0 00-.141.435l.515.499.072.221-.125.712c-.027.16.107.293.259.293l.115-.027.632-.331.125-.035.115.035.632.331.123.027a.252.252 0 00.251-.293l-.125-.712.08-.221.504-.499zm0 5.675c.152-.152.072-.411-.141-.438l-.704-.107-.195-.133-.32-.648-.221-.141a.257.257 0 00-.232.141l-.32.648-.187.133-.712.107c-.203.027-.293.285-.141.438l.515.496.072.224-.125.71a.266.266 0 00.259.304l.115-.037.632-.328.125-.035.115.035.632.328.123.037a.261.261 0 00.251-.304l-.125-.71.08-.224.504-.496zm0 5.664c.152-.141.072-.4-.141-.435l-.704-.099-.195-.141-.32-.64a.237.237 0 00-.221-.144.242.242 0 00-.232.144l-.32.64-.187.141-.712.099c-.203.035-.293.293-.141.435l.515.499.072.229-.125.704a.26.26 0 00.259.301l.115-.035.632-.331.125-.027.115.027.632.331.123.035a.255.255 0 00.251-.301l-.125-.704.08-.229.504-.499zm-2.927-19.85c.152-.141.072-.4-.141-.435l-.702-.099-.197-.141-.309-.64c-.045-.099-.144-.144-.232-.144s-.187.045-.232.144l-.31.64-.198.141-.71.099c-.205.035-.293.293-.144.435l.518.499.069.229-.115.704a.254.254 0 00.248.301l.125-.035.632-.331.115-.027.115.027.632.331.125.035a.254.254 0 00.248-.301l-.115-.704.069-.229.509-.499zm0 5.675c.152-.144.072-.4-.141-.438l-.702-.096-.197-.144-.309-.64c-.045-.096-.144-.141-.232-.141s-.187.045-.232.141l-.31.64-.198.144-.71.096c-.205.037-.293.293-.144.438l.518.496.069.232-.115.702a.255.255 0 00.248.304l.125-.037.632-.328.115-.027.115.027.632.328.125.037a.255.255 0 00.248-.304l-.115-.702.069-.232.509-.496zm0 5.672a.248.248 0 00-.141-.427l-.702-.107-.197-.141-.309-.64c-.045-.099-.144-.141-.232-.141s-.187.043-.232.141l-.31.64-.198.142-.71.107c-.205.027-.293.285-.144.427l.518.507.069.224-.115.702a.254.254 0 00.248.301l.125-.027.632-.336.115-.027.115.027.632.336.125.027a.254.254 0 00.248-.301l-.115-.702.069-.224.509-.508zm0 5.675c.152-.152.072-.408-.141-.435l-.702-.107-.197-.144-.309-.64-.232-.141-.232.141-.31.64-.198.144-.71.107c-.205.027-.293.283-.144.435l.518.499.069.221-.115.702a.255.255 0 00.248.304l.125-.027.632-.331.115-.035.115.035.632.331.125.027a.255.255 0 00.248-.304l-.115-.702.069-.221.509-.499zm-2.916-14.186a.256.256 0 00-.141-.435l-.712-.107-.187-.141-.32-.64a.255.255 0 00-.232-.144.272.272 0 00-.229.144l-.312.64-.195.141-.704.107c-.213.027-.293.285-.141.435l.507.499.08.221-.125.704a.259.259 0 00.251.301l.123-.027.632-.328.115-.037.125.037.632.328.115.027c.152 0 .285-.133.248-.301l-.115-.704.072-.221.513-.499zm0 5.675a.256.256 0 00-.141-.435l-.712-.107-.187-.133-.32-.648a.255.255 0 00-.232-.144.272.272 0 00-.229.144l-.312.648-.195.133-.704.107c-.213.027-.293.283-.141.435l.507.499.08.221-.125.712a.256.256 0 00.251.293l.123-.027.632-.331.115-.035.125.035.632.331.115.027c.152 0 .285-.133.248-.293l-.115-.712.072-.221.513-.499zm0 5.675c.152-.152.061-.411-.141-.438l-.712-.107-.187-.133-.32-.648a.257.257 0 00-.232-.141l-.229.141-.312.648-.195.133-.704.107c-.213.027-.293.285-.141.438l.507.496.08.224-.125.71a.265.265 0 00.251.304l.123-.037.632-.328.115-.035.125.035.632.328.115.037c.152 0 .285-.144.248-.304l-.115-.71.072-.224.513-.496zm0 5.664c.152-.141.061-.4-.141-.435l-.712-.099-.187-.141-.32-.64a.242.242 0 00-.232-.144.256.256 0 00-.229.144l-.312.64-.195.141-.704.099c-.213.035-.293.293-.141.435l.507.499.08.229-.125.704a.259.259 0 00.251.301l.123-.035.632-.331.115-.027.125.027.632.331.115.035c.152 0 .285-.133.248-.301l-.115-.704.072-.229.513-.499zm-2.927-19.85c.152-.141.072-.4-.141-.435l-.712-.099-.187-.141-.32-.64a.239.239 0 00-.229-.144.239.239 0 00-.224.144l-.32.64-.187.141-.71.099c-.213.035-.293.293-.144.435l.507.499.08.229-.123.704a.26.26 0 00.256.301l.117-.035.63-.331.117-.027.123.027.632.331.115.035a.26.26 0 00.259-.301l-.125-.704.08-.229.506-.499zm0 5.675c.152-.144.072-.4-.141-.438l-.712-.096-.187-.144-.32-.64a.24.24 0 00-.229-.141.24.24 0 00-.224.141l-.32.64-.187.144-.71.096c-.213.037-.293.293-.144.438l.507.496.08.232-.123.702a.26.26 0 00.256.304l.117-.037.63-.328.117-.027.123.027.632.328.115.037a.262.262 0 00.259-.304l-.125-.702.08-.232.506-.496zm0 5.672a.248.248 0 00-.141-.427l-.712-.107-.187-.141-.32-.64c-.043-.099-.133-.141-.229-.141a.237.237 0 00-.224.141l-.32.64-.187.141-.71.107a.25.25 0 00-.144.427l.507.507.08.224-.123.702a.26.26 0 00.256.301l.117-.027.63-.336.117-.027.123.027.632.336.115.027a.26.26 0 00.259-.301l-.125-.702.08-.224.506-.507zm0 5.675c.152-.152.072-.408-.141-.435l-.712-.107-.187-.144-.32-.64a.254.254 0 00-.229-.141.254.254 0 00-.224.141l-.32.64-.187.144-.71.107c-.213.027-.293.283-.144.435l.507.499.08.221-.123.702a.26.26 0 00.256.304l.117-.027.63-.331.117-.035.123.035.632.331.115.027a.262.262 0 00.259-.304l-.125-.702.08-.221.506-.499zm-2.924-8.511c.149-.152.069-.408-.144-.435l-.702-.107-.195-.133-.32-.648a.25.25 0 00-.453 0l-.32.648-.187.133-.713.107c-.205.027-.293.283-.141.435l.515.499.072.221-.126.713c-.027.16.107.293.259.293l.115-.027.632-.331.123-.035.117.035.63.331.125.027a.25.25 0 00.248-.293l-.123-.712.08-.221.508-.5zm0 5.675c.149-.152.069-.411-.144-.438l-.702-.107-.195-.133-.32-.648a.253.253 0 00-.453 0l-.32.648-.187.133-.713.107c-.205.027-.293.285-.141.438l.515.496.072.224-.125.71a.266.266 0 00.259.304l.115-.037.632-.328.123-.035.117.035.63.328.125.037a.259.259 0 00.248-.304l-.123-.71.08-.224.507-.496zm0 5.664c.149-.141.069-.4-.144-.435l-.702-.099-.195-.141-.32-.64a.239.239 0 00-.224-.144.238.238 0 00-.229.144l-.32.64-.187.141-.713.099c-.205.035-.293.293-.141.435l.515.499.072.229-.126.705a.26.26 0 00.259.301l.115-.035.632-.331.123-.027.117.027.63.331.125.035a.253.253 0 00.248-.301l-.123-.704.08-.229.508-.5zM11.433 56.539h72.81a8.638 8.638 0 01-.523.862l-2.046 2.983a9.999 9.999 0 00-.331.515H18.887l-4.448-2.351a17.798 17.798 0 01-3.006-2.009zM80.633 69.41l.083.213h-6.35a7.046 7.046 0 00-3.516-1.155l-1.297-.069a16.312 16.312 0 00-.795-.019c-2.06 0-4.098.419-5.984 1.243h-24.74a18.598 18.598 0 00-1.505-.632l-6.705-2.487a17.108 17.108 0 01-2.094-.934l-.582-.307H79.99a9.67 9.67 0 00.643 4.147zM78.021 73.988h3.77a7.777 7.777 0 01-.504 2.663.673.673 0 01-.28.355.749.749 0 01-.75.048.723.723 0 01-.272-.24l-1.964-2.826zM44.044 73.988h5.531a3.91 3.91 0 00-.181 1.142l-.011 2.028a1.207 1.207 0 01-1.195 1.19c-.36 0-.707-.163-.936-.448l-2.212-2.764c-.319-.398-.649-.78-.996-1.148z"/>
</svg>
