<svg height="100" width="100" viewBox="10 23 80 55" xmlns="http://www.w3.org/2000/svg">
    <path d="m62.075 48.196.22.521-.646 1.159v.992l-.541.923-.451-.142-.43.313-.229-.885-1.24-1.082.373-.872-.647-.835-.192.188-.161-.813s-.894-.534-1.031-.635c-.017-.092-.127-1.013-.166-1.15l.74-1.303s-.339-.37-.395-.454c.075-.095.158-.22.221-.316h.733l.482-1.063-.586-.756 3.487-.305c.15.495.345 1.148.345 1.148l.111.077.003 5.29zm9.306 2.23 1.631-.889.564-2.48s.642.257.736.297c.147-.164.438-.523.687-.848l.235-1.183s1.326.238 1.56.273l.419-.36-.176-.452-4.83 1.027-.135-.536-.131.707-1.492 1.432-.331 1.123v.538l.838 1.128.425.223zm-9.23.013.669-.491.59.369 1.305-.457.836-1.619.615-.217-.578-5.475-2.779.1-.236.166.004 5.322.281.595-.707 1.271v.436zm0 .002v-.002l-.003.002h.003zm-3.835-16.562 1.535.501 1.33.248v1.113c.068.058.197.155.328.25l.301-.622.52-.134s.913-.349.955-.349.529.185.529.185l.541-.185-.508 1.365-.584.298s-.414 1.868-.414 1.96c0 .092.53 1.56.541 1.591.01.03.201 1.929.213 1.96.002.005-.027.029-.07.063l4.045-.146.04-.018.255-.975.549-.714.041-.952-.525-1.547-.426-.151-.82 1.111-.312-.159-.024-.587.606-.77.099-.667-.386-.659.197-.182-.353-.555-.828-.23-.377-.357-.689-.048-.23-.532-.942-.119-.213-.349-.484-.198-.45.317-.951-.087-.854-.69-.623.389-.041-.262 1.018-1.214-.32-.056-1.238 1.008-1.372.851.391.304zm-3.393 3.381c.2.12.67.483 1.989 1.588l.154.128-.321.62.299.241.224 1.18.293.235.203.264 3.704-.323-.017-.056c-.012-.031-.18-1.724-.18-1.724l.604-2.587.127-.801-1.102 1.631v-.4l.39-.808c-.601-.426-.606-.497-.606-.615v-.79l-.955-.179-1.684-.563-.645-.501v-.067l-.563-.104.106-.294-.09-.278-1.42.644-.147 1.244-.529.569.255.677-.273.33c.058.299.137.622.184.739zm-5.277 2.652-.104.443.213 1.328.925 2.596.364 1.085 5.331-.133.077.083c.044.048.093.097.141.146l.462-.812c-.313-.358-.312-.512-.311-.565.003-.131-.021-.077.091-.211.044-.043.2-.27.315-.452l.074-.116h.684l.226-.494-.948-1.226-.373-.288-.226-1.186-.246-.198h-6.695zm30.611 6.806-.741.194-.678-1.922-.292.343.117 1.602.88.65-.096 1.083.176.294.592-1.625.042-.619zm.037-.542-.726-1.15c-.045-.051-.334-.412-.334-.412l.6 1.699.46-.12v-.017zm-12.349-3.825-.301.123-1.555.056.497 4.715.739.162.333.564.745.183c.554-.335.63-.354.662-.362.088-.021.168-.04.66.301l.279-.948 1.471-1.412c.119-.63.293-1.579.303-1.67l-.416-2.8-.562.292c-.032.016-.95.841-.95.841h-.436l-.492.452-.754-.452-.223-.045zm11.817 7.962.107-.033-.246-.621-.576-.294-.128-1.672-.005-.008h-.74c-.984-.19-1.021-.255-1.076-.353-.072-.126-.067-.072-.02-.214.013-.038.162-.415.253-.646a8.767 8.767 0 0 0-.519-.37 25.985 25.985 0 0 1-1.185-.199l-.198.859c-.929 1.217-1.002 1.23-1.216 1.095a3.88 3.88 0 0 0-.28-.121l-.484 2.13-2.063 1.125-.56-.29-1.293 1.188 1.603-.176 8.626-1.4zm-31.223-8.859c-.132.074-.454.271-.726.443l-.218.137-.131-.222c-.184-.311-.428-.68-.533-.788-.465-.031-4.452-.186-7.257-.292l-.223 3.409 2.536.28-.08 1.952 8.969.043-.666-1.974-.903-2.531a9.464 9.464 0 0 0-.768-.457zm2.538 5.463-9.191-.044-.22 5.35c1.257.049 7.543.219 10.363.293v-3.898c-.738-.66-.738-.753-.738-.859v-.49l-.214-.352zm26.859-.611-.299.753c.159.041.387.091.586.131l.387.03-.33-.502-.275-1.518.643-.756v-.001l-1.113.237.275.705-.512.44c.118.086.638.481.638.481zm-12.868 3.96-1.721.602-.506-.315-.753.551-.751 1.281-.654-.117.303.479-.047.118a5.725 5.725 0 0 1-.104.252l.769-.086.388-.312 6.702-.736 1.758-1.614-.835-1.126v-.613a7.098 7.098 0 0 0-.483-.322 21.81 21.81 0 0 0-.557.329l-.09.055-1.152-.282-.329-.559-.362-.08.063.594-.801.283-.838 1.618zM41.166 52.21l.302-7.344-2.122-.234-7.024-.741-.989 7.346 8.539.974 1.294-.001zm31.407-6.987 6.438-1.368 1.203-1.144.023-.012-.406-.501-.433.124v-1.61l-.692-.643c-1.056.057-1.397.066-1.524.061-.257.041-4.537 1.061-4.537 1.061l-.418-.596s-.36.407-.392.424c.349 2.335.427 2.887.442 3.018l.296 1.186zm-2.066 7.69v-.003h.001l.396-.668-8.713.956-.385.312-1.564.176-.256 1.18-.391.628-.074.493 8.123-.646.209-.979 2.289-1.449h.365zm3.501 7.356.129-.315 2.047-2.104.112-.774.379-.568-1.709-1.288-1.356.282-.881-.728-1.846.199-.998.852.521.271 3.602 4.173zm-1.151-19.645c4.265-1.021 4.306-1.011 4.394-.981.048-.004 1.526-.077 1.526-.077l.766.249.527.789.154.044.428-.252 1.513.623.153-.09-.351-.751-.059-2.592-.315-1.469-.467-1.137v-.702l-.379-.842h-.001l-1.44.403-1.414.067L76.886 35l-.033.399-.521.578.215 1.082-1.612.907-1.307.012c-.013 0-.632.462-.632.462l.364.828-.799.934.296.422zm12.271-4.445-1.603-4.177-.08.049c.033.178.293 1.417.293 1.417l-.391 1.015v2.522l1.264-.309.517-.517zm-3.503-1.25.441 1.037.279 1.285.502-.123.016-2.781.354-.918-.145-.649-1.85.522.403.922v.705zM66.421 55.937l.42 1.901.99 2.948.262 2.636.233.328 3.98-.34.088.071v-.563h.924l.305-1.699.174-.431-3.736-4.33-1.09-.517.271-.231-2.821.227zM31.827 43.825l-2.797-.435.258-1.995a360.944 360.944 0 0 0-3.638-.583l-1.75 9.219 6.939 1.136.988-7.342zM58.432 57.48v-.799l.565-.547.149-.863.222-.356-1.403-.243.906-.798-.039-.041c-2.186.036-5.313.101-6.162.151l.211 1.841.002 3.391.708.21v.778h3.983l-.081-.286.278-1.893.661-.545zM38.953 44.088l.485-7.409-8.852-.948-.131.463-.611 4.787-.022.167-.008.071-.226 1.752 2.546.397 6.819.72zm-22.568.319 5.686 8.618.195-1.656h.683l.157.163 2.051-10.803c-.804-.168-3.361-.738-7.624-1.702l-1.148 5.38zm29.154 13.195.156.334 1.476.272.45.554 1.155-.179.958.435 2.079-.44.57.368v-3.092l-.238-2.061-.09-.777-11.952-.306-.018.621h4.433v4.01l1.021.261zm14.285-4.375.412-.045c.046-.068.119-.213.191-.387l-.212-.335h-.375l-.287-1.108-1.396-1.222.397-.935-.123-.161-.451.436-.299-1.491c-.916-.538-.978-.628-1.008-.672-.058-.084-.188-1.167-.217-1.287a3.86 3.86 0 0 1-.293-.283l-4.953.123.244.728.335.538v.563c.097.114.397.399.655.627l.084.075v4.364l.084.74c.595-.052 6.433-.167 6.433-.167l.539.582-.508.445.5.088.248-1.216zm2.246 3.057-2.732.217-.406.394v.82l-.69.574-.236 1.598.597 2.11-.619.964-.297 1.176h2.817l-.081.828.446.569.728-.332.795-.011-.316-2.549-.006-6.358zM60.65 66.92l.768-1.021-.176-.279-.592.525-.32-.371-.288.17-.608.078.176-.65.705.268-.412-.523.049-.479h-2.909l.496-1.91.519-.81-.341-1.212h-4.124v1.77l.432.447.549 1.359-.422 1.383.129.438-.258.783 2.533.235-.016-.248.32-.294 1.344.96.704.356.399-.388.545.232.303-.511s1.041.681 1.041.728.544-.217.592-.217c.048 0-1.138-.819-1.138-.819zM49.319 31.673l.386 3.424s-.348.779-.361.872c.01-.034.354.221.354.221v3.222h6.579l.16-.31c-.756-.63-1.557-1.277-1.75-1.405-.16-.024-.271-.187-.465-1.196l-.022-.115.239-.29-.26-.694.629-.677.159-1.357 1.062-.505 1.553-1.385.869-.492h-.518l-.197-.175-.786-.008-.336-.167-.451.31-.361.04-.606-.531-.354.23-.549-.627-.713-.087-.377.262-1.344-.445-.131-1.024-.353-.167-.292.69c-.691.047-1.387.075-2.086.096-.002.667.004 1.543.021 1.667.026.065.301.623.301.623zm26.272 36.391-.048-1.037-1.473-1.934-.655-1.672h-.521v1.119l-.748-.613-4.063.346-.353-.496-3.725.39.309.896 1.101-.34 1.312.278 1.024.976.992-.836.784-.17s1.615 1.485 1.664 1.502c.047.015.56.092.56.092l.319.558s-.111 1.347-.111 1.44.641.263.641.263l-.32.866.544.898.464.139.943 1.642.433.015 1.071 1.209.849-.279.192-.465-.032-2.816-1.153-1.971zm4.783-15.789-.08-.495h-.353l-.511-.262.704-.619-.178-.123-.08.024-8.337 1.355-.746 1.255h-.505l-1.989 1.26-.134.629 1.726-.137.785-.669 2.209-.237.856.707 1.346-.277 2.081 1.568.584-.123s.128-.635.128-.681c0-.046.736-.944.736-.944l.608-.324.592-.588-.641-.558.465-.077.734-.684zm-26.332 12.03-.462-1.147-.488-.473v-2.886l-.594-.187-.782-.506-2.038.434-.973-.439-1.291.197-.514-.63-1.548-.287-.165-.354-1.167-.299v-3.897h-3.958l-.677 8.714-5.647-.617.017.189c.521.607 2.343 2.74 2.388 2.85.053.129.133 1.289.133 1.289l2.45 1.676.906-1.367 1.651-.025s1.278 1.34 1.332 1.443c.053.103.479 1.392.479 1.469 0 .077 1.411 1.572 1.411 1.572l.053.722s.533 1.442.533 1.521c0 .079 1.119.594 1.225.619.107.026 1.039.053 1.039.053l.506.412.506-.181-.453-1.005-.141-1.46.288-.341.032-.743 1.6-1.548.336.047.592-.186 1.439-1.316-.287-.434.352-.263.512.418.832-.366.288-.877-.127-.433.412-1.358zm-17.028 7.463.374.258.16.311.56-.311-.961-.489-.133.231zm-1.121-.232h.881l-.881-.31v.31zm4.005 2.116h-.002s-1.228-.646-1.334-.67l.214.594-.507.311.294.375-.16 1.02.507.258.294-.594.801-.207.48-.391-.587-.385v-.311zm45.461-36.531-.139-.327-.355.355-2.453.602.02.867c.402-.121 2.578-.659 2.578-.659l.952.887c.05-.178.128-.489.128-.489s-.949-.857-.963-.857c-.014 0 .232-.379.232-.379zm-.606 1.416.365.904.46-.271-.711-.661-.114.028zm3.946-7.689-.383.021-.289-.636-.42-.112-.895-2.604-.675-.362-.774.67-.172-.503-.335.091-.387 1.298-.116 2.084-.32.873 1.434 3.74.115-.711s1.156-.844 1.179-.853c.021-.008.103-.424.103-.424l.762-.882.369.021L89 31.585l-.301-.737zm-6.722 10.634-1.285-.53-.272.161-.188.884.24.418.639-.093.08.511.992.929.049-.912-.545-.667.688-.248 1.952-1.393-.592-.139-1.758 1.079zm.466-2.353.021.981.279.565.572-.472s1.324-.482 1.365-.506l-.418-1.039c-.72.182-1.496.38-1.819.471zm-2.97 4.978s.928 1.052.944 1.056l.597-1.401-.601-.559-.94.904zM67.578 63.291l-.232-2.398-.986-2.92-.44-1.994-3.349.267v6.367l.252 2.009.228-.193.368.913.421-.13-.508-1.477 4.246-.444zM23.996 32.744l-1.563 2.067.48.479-1.186 4.169c1.963.44 3.611.806 3.746.825.107 0 2.367.366 3.877.613l.58-4.55-1.31-.228-.996.347-.704-2.589-.071-.112-.635.621-.424-.836.576-1.921-.973-1.618-.557-1.322.249-2.204c-.194-.046-.381-.092-.569-.138l-1.151 5.619.631.778zm2.914-1.182-.582 1.94.026.051.588-.576.453.733.573 2.108.612-.214 1.45.253.189-.672 9.252.991c.187-2.856.362-5.545.465-7.142-5.352-.523-10.414-1.508-14.357-2.433l-.229 2.017.49 1.169 1.07 1.775zm-11.056-1.968v.984l1.885.337 3.09-.004 2.085.785 1.119-5.466c-3.887-.964-6.352-1.772-6.352-1.772l-.076 2.161-.479 1.263-.266-.412.346-.567-.027-.67-2.104-1.495s-.133 2.603-.107 2.68c.017.05-.133.868-.241 1.439l1.127.737zm31.218 10.945c.08.017.225.047.689.8.378-.235.605-.366.677-.39.088-.029.181-.047.739.291l-.146-.902.166-.704v-3.17c-.166-.121-.354-.303-.354-.508 0-.107.077-.335.223-.669l-9.011-.409-.35 5.355c2.808.106 7.227.276 7.367.306zm1.779-8.686c-.085-.175-.283-.581-.314-.674-.032-.093-.044-1.032-.037-1.783-2.685.056-5.407-.069-8.066-.314a7387.03 7387.03 0 0 1-.344 5.296l9.079.412-.318-2.937zM21.24 39.35l1.112-3.913-.581-.579 1.59-2.104-.414-.511-2.21-.832h-3.043l-2.341-.415v-1.133l-.728-.477-.003.016-1.092 3.324-1.465 2.474-.023 1.554 5.375 1.734c1.154.262 2.534.573 3.823.862zm15.379 32.878.154-.115-.309-.328.155.443zm2.305-10.236.655-8.426.026-.885-8.338-.949c-.601 4.474-1.19 8.879-1.417 10.63.689.106 1.205.183 1.205.183l.133-.85 2.044.217-.05-.548 5.742.628zm-4.766 8.459v.336l.747.154-.374-.49h-.373zM13.37 51.334c.027.077-.186 1.16-.186 1.237s1.598.618 1.598.618l.693 1.031.666.18v.594l.399-.077s.799 1.134.879 1.211c.08.077.262 1.599.262 1.599l2.994.291c.042-.035.085-.068.126-.104l.104-.086.479.15.027-.062-.539-.456 1.171-1.804.365-.287c-.46-1.093-.46-1.174-.46-1.229 0-.024.013-.154.034-.343l-6.13-9.292 1.197-5.611-5.054-1.63-.276 1.517-.719 1.11.426 1.675-.293.361s-.053 1.005 0 1.186c.053.181.506.928.506.928v.825s.24.516.32.593c.08.077.373-.129.373-.129l.053.464-.293.18-.133 1.108.772.67-.559.67s1.172 2.834 1.198 2.912zm17.853 18.42h.507v-.361h-.507v.361zm-7.417-19.231-.39 2.055-.706-.708c-.111.933-.256 2.176-.262 2.28.02.054.57 1.377.57 1.377l-.632.498-.856 1.337.49.415-.359.813-.558-.175-.009.188s5.06 3.093 5.193 3.17c.079.045 1.731.308 3.07.514.238-1.846.847-6.398 1.415-10.623l-6.966-1.141zm1.778 21.4-1.059.439-.801-.826-.747-.207v-7.153l-.641-.361-.587.078-1.764-.517-1.065-.62h-1.254l-1.468 1.085h-.987l.48.517s.107.646.133.723c.027.077.507.284.507.284s-.214.749-.294.749-.587-.078-.587-.078l-.027-.568-1.148.284s-.133.749-.133.826c0 .077 1.281.646 1.281.646l.64-.31.053.981-1.014.412-.56-.154s-1.041.775-1.121.852c-.08.077.347 1.473.347 1.473l.827.31s-.107.696-.107.774.507 0 .507 0l.374.646 1.041-.284-.427.466-.08.361-.961.671-2.188.724 2.188-.311 2.242-1.266.534-.387-.32-.154 1.841-1.549.267.31-.747 1.085s1.148-.258 1.225-.258c.077 0 0-.594 0-.594l1.097.078.774.646.694-.103.427.181.64.155 1.521 1.006s.214.75.36.853c.147.103.654.646.734.671.08.026.214.387.214.387l.667.646.907-.284v-.801l-.854-.517-1.581-2.017z"/>
</svg>
