<svg height="100" width="100" viewBox="2 20 98 68" xmlns="http://www.w3.org/2000/svg">
    <path fill="none" stroke="#000" stroke-width="2.02" stroke-linecap="round" stroke-miterlimit="10" d="m47.708 81.92.542-.003m35.125.003.541-.003m-38.874-3.69h3.708m31.457 0h4.168m-41.5-3.689 10.451-.004m25.549.004 4.201-.004m-21.451.004 2.688-.004m-29.438-3.686 46.101-.003m-56.934-3.684 56.165-.004m-62.582-3.69 64.188-.002m-70.146-3.684 73.521-.004M7.542 56.091l80.333-.002M6 52.398h81.188M4.833 48.709H88.5M4.167 45.02l85.333-.001M4.167 41.332l60.896-.001m3.25.001 5.312-.001m6.25.001 11.5-.001M5 37.643l60.063-.008m3.625.008 3.125-.008m12.25.008 9.375-.008m-86.98-3.806 62.917-.001m17.813.001 7.271-.001m-1.542-3.687 4.521-.003m-89.688.003 49.264-.003M8.625 26.329l15.292-.001m69 .001 2.667-.001m-83.376-3.684-.875-.006"/>
</svg>
