<svg height="100" width="100" xmlns="http://www.w3.org/2000/svg" viewBox="0 0 69 69">
    <path d="M62.26 2.501a3.34 3.34 0 00-3.337 3.337V16.87h6.674V5.838a3.34 3.34 0 00-3.337-3.337zM48.286 58.793H3.403c.528 4.336 4.233 7.707 8.71 7.707h37.235a5.29 5.29 0 01-1.062-3.185v-4.522zM33.584 8.292L28.1 10.905v5.803a8.271 8.271 0 005.483 7.818 8.267 8.267 0 005.727-7.904v-5.706l-5.727-2.624zm3.989 6.474l-4.747 4.747a1.068 1.068 0 01-1.504 0L29.83 18.03a1.075 1.075 0 010-1.514 1.075 1.075 0 011.515 0l.725.736 4-4a1.062 1.062 0 011.504 0 1.075 1.075 0 010 1.514z"/>
    <path d="M13.637 2.5a3.023 3.023 0 00-3.018 3.019v51.146h38.73c.597 0 1.066.469 1.066 1.066v5.579c0 1.76 1.43 3.189 3.19 3.189s3.189-1.43 3.189-3.19V5.84c0-1.259.437-2.411 1.162-3.339H13.637zm12.33 7.733c0-.405.235-.79.609-.96l6.538-3.114c.288-.14.619-.14.907-.011l6.794 3.115c.384.17.63.554.63.97v6.39c0 4.629-2.976 8.64-7.403 9.994l-.16.053a1.03 1.03 0 01-.31.043c-.106 0-.212-.021-.32-.053a10.396 10.396 0 01-7.284-9.952v-6.475zm25.984 41.365h-36.49c-.597 0-1.067-.48-1.067-1.067 0-.597.47-1.066 1.067-1.066h36.49c.587 0 1.067.469 1.067 1.066a1.07 1.07 0 01-1.067 1.067zm0-6.987h-36.49c-.597 0-1.067-.48-1.067-1.066 0-.587.47-1.067 1.067-1.067h36.49c.587 0 1.067.48 1.067 1.067a1.07 1.07 0 01-1.067 1.066zm0-6.986h-36.49c-.597 0-1.067-.47-1.067-1.067 0-.587.47-1.067 1.067-1.067h36.49c.587 0 1.067.48 1.067 1.067 0 .597-.48 1.067-1.067 1.067zm0-6.976h-36.49c-.597 0-1.067-.48-1.067-1.067 0-.597.47-1.066 1.067-1.066h36.49c.587 0 1.067.469 1.067 1.066a1.07 1.07 0 01-1.067 1.067z"/>
</svg>
