<svg height="100" width="100" xmlns="http://www.w3.org/2000/svg" data-name="Layer 1" viewBox="0 0 64 64">
    <path d="M54 19a5 5 0 0 0-5-5H39V3a1 1 0 0 0-1-1H26a1 1 0 0 0-1 1v11H15a5 5 0 0 0-1 9.9V57a5 5 0 0 0 5 5h26a5 5 0 0 0 5-5V23.9a5 5 0 0 0 4-4.9zM27 4h10v10H27zm21 53a3 3 0 0 1-3 3H19a3 3 0 0 1-3-3V24h32zm1-35H15a3 3 0 0 1 0-6h34a3 3 0 0 1 0 6z"/>
    <path d="M32 54a12 12 0 1 0-12-12 12 12 0 0 0 12 12zm0-22a10 10 0 1 1-10 10 10 10 0 0 1 10-10z"/>
    <path d="m28.43 43.72-.51 3.12a1 1 0 0 0 1.47 1L32 46.43l2.61 1.45a1 1 0 0 0 .48.12 1 1 0 0 0 .58-.18 1 1 0 0 0 .41-1l-.51-3.12 2.15-2.2a1 1 0 0 0 .23-1 1 1 0 0 0-.8-.67l-2.93-.45-1.31-2.8a1 1 0 0 0-1.82 0l-1.31 2.8-2.93.45a1 1 0 0 0-.8.67 1 1 0 0 0 .23 1zm2.18-2.44a1 1 0 0 0 .75-.56l.64-1.37.64 1.37a1 1 0 0 0 .75.56l1.53.23-1.14 1.17a1 1 0 0 0-.27.86l.26 1.59-1.29-.71a1 1 0 0 0-1 0l-1.29.71.26-1.59a1 1 0 0 0-.27-.86l-1.14-1.17zM34 6h-4a1 1 0 0 0 0 2h4a1 1 0 0 0 0-2zm0 4h-4a1 1 0 0 0 0 2h4a1 1 0 0 0 0-2z"/>
</svg>
