<svg height="100" width="100" xmlns="http://www.w3.org/2000/svg" viewBox="0 0 64 64">
    <path d="M30 21.9v5.2c-1.8.5-3 2-3 3.9v1.6l-4.1 4.1c-.6.6-.9 1.3-.9 2.1v6.6c0 .6.2 1.2.5 1.7l3.5 5.2V54h-2v8h2v-2h7v-2h-7v-2h13v6h2v-8h-2v-1.6l1.1-1.1c.6-.6.9-1.3.9-2.1v-2.8l1.4-1.4c1.1-1.1 1.2-2.8.2-4L35 31.6V31c0-1.8-1.2-3.4-3-3.9v-5.2c5.5-.6 9.5-5.5 8.9-10.9S35.5 1.5 30 2s-9.5 5.5-8.9 11c.4 4.7 4.2 8.5 8.9 8.9zm11 21.7-1 1-1.5-1.5 2-1.5.5.6c.4.4.4 1 0 1.4zm-5.5-3.5 2.4-1.8 1.4 1.7-2.2 1.6-1.6-1.5zm1.1-3.3L35 38v-3.2l1.6 2zM33 31v9.4l6 6v2.8c0 .3-.1.5-.3.7L37 51.6V54h-9v-2.3L24.2 46c-.1-.2-.2-.4-.2-.6v-6.6c0-.3.1-.5.3-.7l2.7-2.7v3.8c0 .3-.1.5-.3.7l-1.4 1.4 1.4 1.4 1.4-1.4c.6-.6.9-1.3.9-2.1V31c0-1.1.9-2 2-2s2 .9 2 2zM31 4c4.4 0 8 3.6 8 8s-3.6 8-8 8-8-3.6-8-8 3.6-8 8-8zm24.3 16.7 1.4-1.4-2.3-2.3 2.3-2.3-1.4-1.4-2.3 2.3-2.3-2.3-1.4 1.4 2.3 2.3-2.3 2.3 1.4 1.4 2.3-2.3z"/>
    <path d="M35 58h2v2h-2zm21-23.4V33c0-1.3-.8-2.4-2-2.8v-5.3c4.4-.6 7.5-4.6 6.9-8.9-.6-4.4-4.6-7.5-8.9-6.9-4.4.6-7.5 4.6-6.9 8.9.5 3.6 3.3 6.5 6.9 6.9v5.3c-1.2.4-2 1.5-2 2.8v1.5l-3.9 3.3c-.7.5-1.1 1.3-1.1 2.2v4.6c0 .7.3 1.4.7 2l3.3 3.8V52h-2v10h2v-4h8v-2h-8v-2h10v8h2V52h-2v-1.5l1.7-1.1c.8-.6 1.3-1.5 1.3-2.5v-1.8l.6-1.7c.4-1.1.1-2.3-.7-3.1L56 34.6zm4.7 8.3-.2.6-1.9-1.3.7-1.5 1.1 1.1c.3.3.4.7.3 1.1zm-2.9-3.7-.9 1.8-.9-.5v-3.1l1.8 1.8zM47 17c0-3.3 2.7-6 6-6s6 2.7 6 6-2.7 6-6 6-6-2.7-6-6zm13 29.9c0 .3-.2.6-.4.8L57 49.5V52h-6v-2.4l-3.8-4.3c-.2-.2-.2-.4-.2-.7V40c0-.3.1-.6.4-.8L50 37v3.1c0 .3-.1.5-.3.7l-1.4 1.4 1.4 1.4 1.4-1.4c.6-.6.9-1.3.9-2.1V33c0-.6.4-1 1-1s1 .4 1 1v8.5l6 4v1.4zM35.7 8.7l-1.4-1.4-6.3 6.3-1.3-1.3-1.4 1.4 2.7 2.7zm-23.4 12 1.4-1.4-2.3-2.3 2.3-2.3-1.4-1.4-2.3 2.3-2.3-2.3-1.4 1.4L8.6 17l-2.3 2.3 1.4 1.4 2.3-2.3z"/>
    <path d="M6 50.4V52H4v10h2v-4h8v-2H6v-2h10v8h2V52h-2v-1.5l1.7-1.1c.8-.6 1.3-1.5 1.3-2.5v-1.8l.6-1.7c.4-1.1.1-2.3-.7-3.1L13 34.6V33c0-1.3-.8-2.4-2-2.8v-5.3c4.4-.6 7.5-4.6 6.9-8.9S13.4 8.5 9 9.1c-4.4.5-7.5 4.5-6.9 8.9.5 3.6 3.3 6.5 6.9 6.9v5.3c-1.2.4-2 1.5-2 2.8v1.5l-3.9 3.3C2.4 38.3 2 39.1 2 40v4.6c0 .7.3 1.4.7 2L6 50.4zm11.7-7.5-.2.6-1.9-1.3.7-1.5 1.1 1.1c.3.3.4.7.3 1.1zm-2.9-3.7-.9 1.8-.9-.5v-3.1l1.8 1.8zM4 17c0-3.3 2.7-6 6-6s6 2.7 6 6-2.7 6-6 6-6-2.7-6-6zm0 23c0-.3.1-.6.4-.8L7 37.1v3.1c0 .3-.1.5-.3.7l-1.4 1.4 1.4 1.4 1.4-1.4c.6-.6.9-1.3.9-2.1V33c0-.6.4-1 1-1s1 .4 1 1v8.5l6 4v1.4c0 .3-.2.6-.4.8L14 49.5V52H8v-2.4l-3.8-4.3c-.1-.2-.2-.4-.2-.7V40z"/>
</svg>
