<svg height="100" width="100" xmlns="http://www.w3.org/2000/svg" viewBox="0 0 80 80">
    <path style="text-indent:0;text-transform:none;block-progression:tb" d="M40.025 32.738c-4.066.022-7.996.675-11.8 1.84-.01.003-.021-.002-.03 0H2.373v22.055H25.624l.117-.117 3.71-2.98h22.171l3.36 2.98.116.117h23.077V34.579H52.82c-4.404-1.279-8.677-1.863-12.795-1.84zm.03.935c4.023-.021 8.178.556 12.502 1.811l.058.03H77.24v20.184H55.449l-3.36-2.98-.146-.116H29.13l-.117.087-3.74 3.009H3.308V35.513H28.312l.058-.029a39.96 39.96 0 0111.684-1.811z" overflow="visible" color="#000"/>
    <path style="text-indent:0;text-transform:none;block-progression:tb" d="M27.815 36.36c-.027.004-.06-.003-.087 0H1.788v.935h26.085c7.296-1.577 15.172-2.274 24.947 0h26.143v-.935H52.966c-.03-.004-.058.005-.088 0-8.522-2.155-16.87-2.039-25.063 0zM29.714 38.522v14.43h.935v-14.43h-.935zM39.996 18.922v13.962h.935v-8.53c.593.27 1.185.548 1.636.556.619.01 1.089-.176 1.49-.322.4-.145.727-.267 1.139-.233.412.034.943.21 1.752.76l.73.496v-5.638l-.233-.146c-1.389-.81-2.563-.468-3.564-.204-1 .263-1.842.474-3.184-.293l-.7-.408zm5.52 1.314c.38-.014.783.135 1.228.35v3.447c-.522-.263-1.077-.579-1.49-.613-.618-.051-1.109.143-1.519.292-.41.149-.743.27-1.168.263-.39-.007-.925-.192-1.636-.584v-3.038a5.15 5.15 0 003.184.175c.511-.134.952-.275 1.402-.292z" overflow="visible" color="#000"/>
    <path d="M54.184 40.158h2.337v4.507h-2.337zM60.165 40.158h2.337v4.507h-2.337zM66.147 40.158h2.337v4.507h-2.337zM72.128 40.158h2.337v4.507h-2.337zM54.184 47.753h2.337v4.506h-2.337zM60.165 47.753h2.337v4.506h-2.337zM66.147 47.753h2.337v4.506h-2.337zM72.128 47.753h2.337v4.506h-2.337zM6.028 40.158h2.337v4.507H6.028zM12.01 40.158h2.336v4.507H12.01zM17.99 40.158h2.337v4.507h-2.336zM23.972 40.158h2.337v4.507h-2.337zM6.028 47.753h2.337v4.506H6.028zM12.01 47.753h2.336v4.506H12.01zM17.99 47.753h2.337v4.506h-2.336zM23.972 47.753h2.337v4.506h-2.337z"/>
    <path style="text-indent:0;text-transform:none;block-progression:tb" d="M39.412 37.295c-4.12.057-7.944.447-11.597.993-.027.004-.06-.003-.087 0H2.78v.935h25.064l.028-.03c7.295-1.095 15.172-1.549 24.947 0l.029.03h25.033v-.935H52.966c-.03-.004-.058.005-.088 0-4.904-.772-9.34-1.05-13.466-.993z" overflow="visible" color="#000"/>
    <path style="text-indent:0;text-transform:none;block-progression:tb" d="M33.365 38.26v14.43h.935V38.26h-.935zM37.951 37.938v14.927h.935V37.938h-.935zM42.8 38.113v14.693h.935V38.113H42.8zM47.24 38.434v14.43h.935v-14.43h-.935zM50.804 38.756v14.46h.935v-14.46h-.935z" overflow="visible" color="#000"/>
    <path style="text-indent:0;text-transform:none;block-progression:tb" d="M40.843 43.634a68.256 68.256 0 00-10.516.73l.146.935c6.903-1.034 13.816-.876 20.74 0l.117-.935c-3.493-.442-6.988-.71-10.487-.73zM2.577 57.13v.934h22.989l4.031 1.899.088.029h.116l21.909.058h.116l.088-.058 3.535-1.928h22.755v-.935H55.215l-.088.059-3.534 1.928-21.704-.059-4.06-1.899-.088-.029H2.577z" overflow="visible" color="#000"/>
    <path d="M39.1 55.758h2.96v3.981H39.1zM48.427 56.059c.705 0 1.262.568 1.273 1.273l.018 2.09-1.31-.056-1.254.014v-2.048a1.27 1.27 0 011.273-1.273zM32.673 56.059c-.705 0-1.263.568-1.273 1.273l-.018 2.065 1.309-.031 1.255-.012v-2.022a1.27 1.27 0 00-1.273-1.273z"/>
</svg>
