<svg height="100" width="100" xmlns="http://www.w3.org/2000/svg">
    <path d="M47.092 47.201c0-.764.501-1.386 1.118-1.386h5.314c.611 0 1.112.623 1.112 1.386v21.317h37.747V49.815H66.39v-1.103h25.994v-3.525h-2.423v-.702h-3.447v.702h-3.217v-.702H79.85v.702h-3.222v-.702H73.18v.702h-3.222V44.5h-3.447v.688h-.286v-2.284H35.378v2.284h-.567v-.702h-3.447v.702h-3.217v-.702H24.7v.702h-3.216v-.702h-3.448v.702h-3.222V44.5h-3.441v.688H8.954v3.525h26.127v1.103H8.954v18.703h38.138V47.201zm41.513 4.988h.849v1.074h-.849v-1.074zm0 1.245h.849v.738h-.849v-.738zm0 .908h.849v.771h-.849v-.771zm0 .942h.849v1.046h-.849v-1.046zm0 5.359h.849v1.278h-.849v-1.278zm0 1.487h.849v.889h-.849v-.889zm0 1.101h.849v.936h-.849v-.936zm-1.023-11.042h.87v1.074h-.87v-1.074zm0 1.245h.87v.738h-.87v-.738zm0 .908h.87v.771h-.87v-.771zm0 .942h.87v1.046h-.87v-1.046zm0 5.359h.87v1.278h-.87v-1.278zm0 1.487h.87v.889h-.87v-.889zm0 1.101h.87v.936h-.87v-.936zm-1.063-11.042h.909v1.074h-.893v.17h.893v.741h-.893v.174h.893v.768h-.893v.173h.893v1.046h-.909v-4.146zm0 8.454h.909v1.278h-.893v.209h.893v.889h-.893v.209h.893v.936h-.893v.209h.893v1.495h.154v-1.492h.87v1.498h.153v-1.498h.854v1.531h-2.941v-5.264zm-4.268-8.454h.886v1.074h-.886v-1.074zm0 1.245h.886v.738h-.886v-.738zm0 .908h.886v.771h-.886v-.771zm0 .942h.886v1.046h-.886v-1.046zm0 5.359h.886v1.278h-.886v-1.278zm0 1.487h.886v.889h-.886v-.889zm0 1.101h.886v.936h-.886v-.936zm-1.024-11.042h.87v1.074h-.87v-1.074zm0 1.245h.87v.738h-.87v-.738zm0 .908h.87v.771h-.87v-.771zm0 .942h.87v1.046h-.87v-1.046zm0 5.359h.87v1.278h-.87v-1.278zm0 1.487h.87v.889h-.87v-.889zm0 1.101h.87v.936h-.87v-.936zm-1.025-11.042h.87v1.074h-.87v-1.074zm0 1.245h.87v.738h-.87v-.738zm0 .908h.87v.771h-.87v-.771zm0 .942h.87v1.046h-.87v-1.046zm0 5.359h.87v1.278h-.87v-1.278zm0 1.487h.87v.889h-.87v-.889zm0 1.101h.87v.936h-.87v-.936zm0 1.146h.87v1.498h.159v-1.498h.87v1.498h.154v-1.498h.887v1.531h-2.94v-1.531zm-4.439-12.188h.887v1.074h-.887v-1.074zm0 1.245h.887v.738h-.887v-.738zm0 .908h.887v.771h-.887v-.771zm0 .942h.887v1.046h-.887v-1.046zm0 5.359h.887v1.278h-.887v-1.278zm0 1.487h.887v.889h-.887v-.889zm0 1.101h.887v.936h-.887v-.936zm-1.03-11.042h.875v1.074h-.875v-1.074zm0 1.245h.875v.738h-.875v-.738zm0 .908h.875v.771h-.875v-.771zm0 .942h.875v1.046h-.875v-1.046zm0 5.359h.875v1.278h-.875v-1.278zm0 1.487h.875v.889h-.875v-.889zm0 1.101h.875v.936h-.875v-.936zm-1.024-11.042h.875v1.074h-.875v-1.074zm0 1.245h.875v.738h-.875v-.738zm0 .908h.875v.771h-.875v-.771zm0 .942h.875v1.046h-.875v-1.046zm0 5.359h.875v1.278h-.875v-1.278zm0 1.487h.875v.889h-.875v-.889zm0 1.101h.875v.936h-.875v-.936zm0 1.146h.875v1.498h.154v-1.498h.876v1.498h.154v-1.498h.881v1.531h-2.936v-1.531h-.004zm-4.302-9.093h.903v-.171h-.903v-.771h.903v-.17h-.903v-.738h.903v-.174h-.903v-1.074h.915v4.141h-.915v-1.043zm-1.024-3.095h.876v1.074h-.876v-1.074zm0 1.245h.876v.738h-.876v-.738zm0 .908h.876v.771h-.876v-.771zm0 .942h.876v1.046h-.876v-1.046zm0 5.359h.876v1.278h-.876v-1.278zm0 1.487h.876v.889h-.876v-.889zm0 1.101h.876v.936h-.876v-.936zm-.996-11.042h.842v1.074h-.842v-1.074zm0 1.245h.842v.738h-.842v-.738zm0 .908h.842v.771h-.842v-.771zm0 .942h.842v1.046h-.842v-1.046zm0 5.359h.842v1.278h-.842v-1.278zm0 1.487h.842v.889h-.842v-.889zm0 1.101h.842v.936h-.842v-.936zm0 1.146h.842v1.498h.154v-1.498h.876v1.498h.154v-1.498h.903v-.209h-.903v-.936h.903v-.209h-.903v-.893h.903v-.207h-.903v-1.278h.914v5.265h-2.936v-1.534h-.004zm-10.52-17.456c0-.614.496-1.11 1.112-1.11h5.32c.611 0 1.107.496 1.107 1.11v18.348c0 .611-.496 1.107-1.107 1.107h-5.32a1.109 1.109 0 0 1-1.112-1.107V46.921zM32.035 63.022v-.892h.876v.892h-.876zm.876.209v.936h-.876v-.936h.876zm-.876-1.311v-1.278h.876v1.278h-.876zm-.06-9.731h.876v1.074h-.876v-1.074zm0 1.245h.876v.738h-.876v-.738zm0 .908h.876v.771h-.876v-.771zm0 .942h.876v1.046h-.876v-1.046zm-1.079-3.095h.931v1.074h-.893v.17h.893v.741h-.893v.174h.893v.768h-.893v.173h.893v1.046h-.931v-4.146zM25.68 63.022v-.892h.876v.892h-.876zm.876.209v.936h-.876v-.936h.876zm-.876-1.311v-1.278h.876v1.278h-.876zm-.055-9.731h.875v1.074h-.875v-1.074zm0 1.245h.875v.738h-.875v-.738zm0 .908h.875v.771h-.875v-.771zm0 .942h.875v1.046h-.875v-1.046zm-1.053-3.095h.898v1.074h-.893v.17h.893v.741h-.893v.174h.893v.768h-.893v.173h.893v1.046h-.898v-4.146zm-5.375 10.833v-.892h.87v.892h-.87zm.87.209v.936h-.87v-.936h.87zm-.87-1.311v-1.278h.87v1.278h-.87zm-.06-9.731h.876v1.074h-.876v-1.074zm0 1.245h.876v.738h-.876v-.738zm0 .908h.876v.771h-.876v-.771zm0 .942h.876v1.046h-.876v-1.046zm-1.057-3.095h.902v1.074h-.892v.17h.892v.741h-.892v.174h.892v.768h-.892v.173h.892v1.046h-.902v-4.146zm-5.243 10.833v-.892h.876v.892h-.876zm.876.209v.936h-.876v-.936h.876zm-.876-1.311v-1.278h.876v1.278h-.876zm-.056-9.731h.871v1.074h-.871v-1.074zm0 1.245h.871v.738h-.871v-.738zm0 .908h.871v.771h-.871v-.771zm0 .942h.871v1.046h-.871v-1.046zm-1.023-3.095h.87v1.074h-.87v-1.074zm0 1.245h.87v.738h-.87v-.738zm0 .908h.87v.771h-.87v-.771zm0 .942h.87v1.046h-.87v-1.046zm2.934 10.624h-2.935v-5.265h.931v1.278h-.893v.209h.893v.889h-.893v.209h.893v.936h-.893v.209h.893v1.495h.148v-1.492h.876v1.498h.148v-1.498h.831v1.532zm0-1.741h-.826v-.936h.832v.936h-.006zm0-1.145h-.826v-.892h.832v.892h-.006zm0-1.102h-.826v-1.278h.832v1.278h-.006zm0-5.589h-.887v-1.046h.887v1.046zm0-1.218h-.887v-.771h.887v.771zm0-.941h-.887v-.738h.887v.738zm0-.909h-.887v-1.074h.887v1.074zm6.323 12.645H18.08v-5.265h.963v1.278h-.892v.209h.892v.889h-.892v.209h.892v.936h-.892v.209h.892v1.495h.154v-1.492h.87v1.498h.154v-1.498h.793v1.532zm0-1.741h-.793v-.936h.793v.936zm0-1.145h-.793v-.892h.793v.892zm0-1.102h-.793v-1.278h.793v1.278zm0-5.589h-.854v-1.046h.854v1.046zm0-1.218h-.854v-.771h.854v.771zm0-.941h-.854v-.738h.854v.738zm0-.909h-.854v-1.074h.854v1.074zm6.493 12.645h-2.936v-5.265h.959v1.278h-.893v.209h.893v.889h-.893v.209h.893v.936h-.893v.209h.893v1.495h.148v-1.492h.876v1.498h.154v-1.498h.798v1.532h.001zm0-1.741h-.798v-.936h.798v.936zm0-1.145h-.798v-.892h.798v.892zm0-1.102h-.798v-1.278h.798v1.278zm0-5.589h-.858v-1.046h.858v1.046zm0-1.218h-.858v-.771h.858v.771zm0-.941h-.858v-.738h.858v.738zm0-.909h-.858v-1.074h.858v1.074zm6.317 12.645h-2.93v-5.265h.996v1.278h-.897v.209h.893v.889h-.893v.209h.893v.936h-.893v.209h.893v1.495h.148v-1.492h.876v1.498h.154v-1.498h.765v1.531h-.005zm0-1.741h-.76v-.936h.76v.936zm0-1.145h-.76v-.892h.76v.892zm0-1.102h-.76v-1.278h.76v1.278zm0-5.589h-.821v-1.046h.821v1.046zm0-1.218h-.821v-.771h.821v.771zm0-.941h-.821v-.738h.821v.738zm0-.909h-.821v-1.074h.821v1.074zm10.976 12.006a1.11 1.11 0 0 1-1.112 1.109h-5.314a1.113 1.113 0 0 1-1.112-1.109V46.921c0-.614.501-1.11 1.112-1.11h5.314c.617 0 1.112.496 1.112 1.11v18.348zm-7.919-24.046h28.06v-.047l3.304.011-2.891-1.289v-2.22h-3.707v.562l-10.865-4.845v-2.75c.353.455 1.14.065 1.938.026.881-.045 1.547.753 1.547.753l.094-2.084s-.534-.84-1.641-.53c-.942.262-1.713-.425-1.938-.646v-.324h-.259v5.516l-10.789 4.812v-.484h-3.712v2.144l-3.057 1.362 3.921-.014v.047h-.005zm13.723-5.476 8.696 3.836H41.904l8.701-3.836zM95 69.107v3.051H5v-3.051h90z"/>
</svg>
