<svg height='100px' width='100px'  fill="#000000" xmlns="http://www.w3.org/2000/svg" xmlns:xlink="http://www.w3.org/1999/xlink" version="1.1" x="0px" y="0px" viewBox="0 0 100 100" enable-background="new 0 0 100 100" xml:space="preserve"><path d="M28.123,92.734c-0.632,0-1.241-0.027-1.842-0.081l-0.301-0.029c-1.079-0.113-2.168-0.317-3.332-0.624l-0.615-0.162  l-0.99-5.469c-0.583-0.269-1.14-0.563-1.665-0.878l-5.082,2.225l-0.479-0.42c-0.913-0.802-1.691-1.592-2.377-2.414  c-0.033-0.033-0.069-0.071-0.103-0.113l-0.084-0.11c-0.676-0.835-1.301-1.75-1.914-2.804l-0.32-0.55l3.164-4.559  c-0.209-0.579-0.391-1.183-0.541-1.805l-5.174-2.025l-0.041-0.635c-0.076-1.182-0.065-2.321,0.03-3.388l0.029-0.301  c0.111-1.071,0.315-2.161,0.624-3.333l0.162-0.616l5.468-0.988c0.268-0.581,0.561-1.138,0.878-1.665l-2.225-5.083l0.42-0.479  c0.804-0.916,1.594-1.693,2.414-2.378l0.231-0.19c0.828-0.671,1.743-1.296,2.797-1.909l0.55-0.32l4.56,3.164  c0.576-0.209,1.179-0.39,1.803-0.541l2.025-5.175l0.636-0.04c1.203-0.075,2.311-0.065,3.387,0.03l0.302,0.029  c1.079,0.113,2.168,0.317,3.332,0.624l0.616,0.162l0.989,5.469c0.584,0.269,1.142,0.563,1.666,0.878l5.082-2.225l0.479,0.42  c0.913,0.802,1.691,1.592,2.377,2.414c0.037,0.038,0.071,0.075,0.103,0.114l0.08,0.105c0.68,0.84,1.305,1.755,1.917,2.809  l0.32,0.551l-3.164,4.558c0.209,0.576,0.39,1.18,0.541,1.804l5.176,2.025l0.04,0.636c0.076,1.206,0.066,2.313-0.031,3.387  l-0.03,0.31c-0.111,1.068-0.314,2.157-0.622,3.323l-0.162,0.616l-5.469,0.988c-0.268,0.581-0.561,1.138-0.878,1.665l2.225,5.085  l-0.42,0.478c-0.803,0.914-1.59,1.688-2.405,2.369l-0.241,0.199c-0.829,0.672-1.745,1.298-2.798,1.909l-0.55,0.318l-4.558-3.163  c-0.576,0.209-1.18,0.39-1.804,0.541l-2.025,5.176l-0.636,0.04C29.136,92.717,28.623,92.734,28.123,92.734z M23.772,90.22  c0.835,0.196,1.629,0.333,2.413,0.415l0.276,0.026c0.782,0.071,1.586,0.089,2.447,0.059l1.947-4.978l0.528-0.111  c0.89-0.188,1.735-0.441,2.511-0.754l0.501-0.201l4.382,3.041c0.737-0.454,1.396-0.919,2.001-1.41l0.209-0.172  c0.597-0.497,1.18-1.054,1.771-1.691l-2.139-4.887l0.293-0.452c0.46-0.707,0.871-1.487,1.224-2.318l0.211-0.497l5.261-0.951  c0.196-0.836,0.332-1.63,0.413-2.412l0.027-0.277c0.071-0.781,0.091-1.587,0.06-2.447l-4.978-1.947l-0.111-0.528  c-0.188-0.89-0.441-1.735-0.754-2.511l-0.201-0.501l3.041-4.382c-0.455-0.738-0.919-1.397-1.409-2.002l-0.179-0.217  c-0.494-0.592-1.05-1.173-1.686-1.761l-4.887,2.14l-0.452-0.295c-0.699-0.455-1.479-0.867-2.318-1.225l-0.496-0.211l-0.952-5.259  c-0.835-0.196-1.63-0.333-2.413-0.415l-0.276-0.026c-0.781-0.071-1.584-0.09-2.448-0.059l-1.947,4.977l-0.528,0.111  c-0.89,0.188-1.734,0.441-2.51,0.754l-0.501,0.201l-4.383-3.041c-0.738,0.456-1.396,0.921-2.001,1.41l-0.218,0.178  c-0.591,0.493-1.172,1.049-1.761,1.686l2.139,4.887l-0.293,0.452c-0.46,0.707-0.871,1.487-1.224,2.318l-0.211,0.497l-5.26,0.951  c-0.197,0.84-0.334,1.635-0.414,2.413L8.45,69.074c-0.071,0.786-0.091,1.592-0.059,2.446l4.977,1.948l0.111,0.528  c0.187,0.885,0.44,1.73,0.754,2.514l0.201,0.5l-3.041,4.381c0.456,0.738,0.921,1.396,1.41,2.001l0.161,0.194  c0.509,0.61,1.067,1.194,1.703,1.783l4.887-2.14l0.452,0.295c0.701,0.456,1.48,0.868,2.317,1.225l0.496,0.211L23.772,90.22z   M29,69.947v-3.842c1.407,0.179,2.538,0.975,2.538,1.869c0,0.553,0.447,1,1,1s1-0.447,1-1c0-2.037-1.955-3.644-4.538-3.863V62  c0-0.553-0.447-1-1-1s-1,0.447-1,1v2.228c-2.162,0.459-3.715,1.931-3.715,3.745c0,1.082,0.523,2.88,3.715,3.649v3.797  c-0.996-0.327-1.715-0.968-1.715-1.678c0-0.553-0.447-1-1-1s-1,0.447-1,1c0,1.814,1.553,3.286,3.715,3.745V79c0,0.553,0.447,1,1,1  s1-0.447,1-1v-1.395c2.584-0.219,4.538-1.827,4.538-3.864C33.538,72.804,33.074,70.616,29,69.947z M25.285,67.973  c0-0.709,0.719-1.35,1.715-1.677v3.257C26.096,69.27,25.285,68.79,25.285,67.973z M29,75.611v-3.634  c1.084,0.216,2.538,0.7,2.538,1.764C31.538,74.636,30.407,75.432,29,75.611z M28.217,84.13c-7.571,0-13.731-6.16-13.731-13.732  c0-7.571,6.16-13.731,13.731-13.731s13.731,6.16,13.731,13.731C41.948,77.97,35.788,84.13,28.217,84.13z M28.217,58.666  c-6.469,0-11.731,5.263-11.731,11.731c0,6.47,5.263,11.732,11.731,11.732s11.731-5.263,11.731-11.732  C39.948,63.929,34.686,58.666,28.217,58.666z"></path><path d="M38.514,38.759c-2.603,0-5.153-0.743-7.395-2.183c-3.086-1.983-5.215-5.049-5.995-8.633s-0.118-7.257,1.864-10.343  c1.983-3.086,5.049-5.215,8.633-5.995c3.586-0.778,7.258-0.117,10.343,1.864c3.086,1.983,5.215,5.049,5.996,8.633l0,0  c0.779,3.584,0.117,7.257-1.865,10.343c-1.983,3.086-5.049,5.215-8.633,5.995C40.481,38.653,39.493,38.759,38.514,38.759z   M38.565,13.287c-0.837,0-1.681,0.091-2.519,0.273c-3.063,0.666-5.682,2.484-7.375,5.121c-1.694,2.637-2.26,5.774-1.593,8.836  c0.666,3.063,2.484,5.682,5.121,7.375c2.636,1.694,5.772,2.261,8.836,1.593c3.063-0.666,5.682-2.484,7.376-5.121  c1.693-2.637,2.26-5.774,1.593-8.836l0,0c-0.666-3.063-2.485-5.682-5.122-7.375C42.968,13.923,40.788,13.287,38.565,13.287z   M38.252,24.416c-2.377,0-4.311-1.934-4.311-4.311s1.934-4.311,4.311-4.311s4.311,1.934,4.311,4.311S40.629,24.416,38.252,24.416z   M38.252,17.795c-1.274,0-2.311,1.036-2.311,2.311s1.036,2.311,2.311,2.311s2.311-1.036,2.311-2.311S39.526,17.795,38.252,17.795z   M45.596,27.005C45.376,25.917,44.412,25,43.303,25h-9.155c-1.111,0-2.075,0.917-2.293,2.006l-0.731,3.717  c-0.108,0.542,0.242,1.1,0.784,1.208c0.066,0.014,0.132,0.035,0.197,0.035c0.467,0,0.885-0.32,0.979-0.796l0.731-3.776  C33.847,27.237,33.986,27,34.147,27h2.859c0.233,1,0.686,0.968,1.238,1.186l-1.609,4.894l2.089,2.124l2.091-2.076l-1.612-4.949  C39.757,27.961,40.21,28,40.443,27h2.86c0.16,0,0.301,0.241,0.332,0.398l0.73,3.717c0.108,0.541,0.63,0.93,1.177,0.816  c0.541-0.108,0.893-0.682,0.784-1.224L45.596,27.005z M56.78,27.791c0.804-0.305,1.615-0.681,1.615-0.681L58.5,25l-0.108-2.123  c0,0-0.811-0.376-1.615-0.681c-0.805-0.312-1.598-0.552-1.598-0.552c0.03-0.006-0.229-0.985-0.229-0.985s0.635-0.553,1.251-1.176  c0.604-0.612,1.15-1.282,1.15-1.282s-0.179-0.499-0.357-0.998c-0.195-0.492-0.433-0.967-0.433-0.967s-0.228-0.483-0.455-0.965  c-0.269-0.461-0.539-0.921-0.539-0.921s-0.877-0.01-1.717,0.044c-0.874,0.067-1.709,0.197-1.709,0.197s-0.586-0.825-0.603-0.812  c0,0,0.328-0.76,0.608-1.577c0.285-0.811,0.518-1.674,0.518-1.674s-0.387-0.364-0.774-0.728c-0.195-0.181-0.389-0.362-0.535-0.497  c-0.142-0.14-0.254-0.213-0.254-0.213s-1.685-1.325-1.72-1.276c0,0-0.805,0.38-1.546,0.802c-0.372,0.21-0.732,0.427-0.995,0.594  c-0.267,0.18-0.445,0.301-0.445,0.301L45.49,9.061c0,0-0.018-0.87-0.137-1.699c-0.106-0.842-0.285-1.71-0.285-1.71  s-0.125-0.047-0.313-0.117c-0.185-0.077-0.441-0.154-0.701-0.218c-0.517-0.137-1.034-0.274-1.034-0.274  c0.013-0.06-2.115-0.383-2.115-0.383s-0.546,0.669-1.022,1.41c-0.482,0.725-0.886,1.456-0.886,1.456S38.746,7.513,38.494,7.5  c-0.252,0.013-0.504,0.027-0.504,0.027s-0.405-0.73-0.887-1.456c-0.476-0.741-1.022-1.409-1.022-1.409s-2.114,0.321-2.102,0.381  c0,0-0.52,0.138-1.04,0.275c-0.262,0.064-0.518,0.143-0.705,0.221c-0.189,0.07-0.315,0.117-0.315,0.117s-0.179,0.868-0.284,1.71  c-0.12,0.829-0.136,1.7-0.136,1.7l-0.905,0.448c0,0-0.178-0.12-0.444-0.299c-0.264-0.167-0.623-0.384-0.996-0.594  C28.412,8.2,27.607,7.82,27.607,7.82c-0.035-0.049-1.708,1.269-1.708,1.269s-0.113,0.074-0.256,0.215  C25.496,9.44,25.3,9.622,25.104,9.804c-0.389,0.367-0.779,0.733-0.779,0.733s0.233,0.864,0.518,1.674  c0.28,0.816,0.608,1.576,0.608,1.576s-0.158,0.197-0.305,0.403c-0.149,0.205-0.297,0.409-0.297,0.409s-0.836-0.13-1.709-0.195  c-0.84-0.053-1.718-0.044-1.718-0.044s-0.267,0.458-0.535,0.916c-0.226,0.479-0.452,0.959-0.452,0.959s-0.24,0.478-0.435,0.974  c-0.18,0.502-0.359,1.004-0.359,1.004s0.545,0.67,1.151,1.282c0.616,0.622,1.251,1.175,1.251,1.175s-0.258,0.979-0.228,0.985  c0,0-0.793,0.241-1.598,0.553c-0.804,0.305-1.615,0.681-1.615,0.681L18.5,25l0.108,2.123c0,0,0.811,0.376,1.615,0.681  c0.805,0.312,1.598,0.552,1.598,0.552c-0.03,0.006,0.229,0.985,0.229,0.985s-0.635,0.553-1.251,1.176  c-0.604,0.612-1.15,1.282-1.15,1.282s0.179,0.499,0.357,0.998c0.195,0.492,0.433,0.967,0.433,0.967s0.228,0.483,0.455,0.965  c0.269,0.461,0.539,0.921,0.539,0.921s0.877,0.01,1.717-0.044c0.874-0.067,1.709-0.197,1.709-0.197s0.586,0.825,0.603,0.812  c0,0-0.328,0.76-0.608,1.576c-0.285,0.811-0.518,1.675-0.518,1.675s0.387,0.364,0.775,0.728c0.195,0.181,0.389,0.362,0.535,0.497  c0.142,0.14,0.254,0.213,0.254,0.213s1.685,1.325,1.72,1.276c0,0,0.805-0.38,1.546-0.802c0.372-0.21,0.732-0.427,0.995-0.594  c0.267-0.18,0.445-0.301,0.445-0.301l0.905,0.448c0,0,0.018,0.87,0.137,1.699c0.106,0.842,0.285,1.71,0.285,1.71  s0.125,0.047,0.313,0.117c0.185,0.077,0.441,0.154,0.701,0.218c0.517,0.137,1.034,0.274,1.034,0.274  c-0.012,0.06,2.115,0.383,2.115,0.383s0.546-0.669,1.022-1.41c0.482-0.725,0.886-1.456,0.886-1.456s0.252,0.013,0.504,0.026  c0.252-0.013,0.504-0.027,0.504-0.027s0.405,0.73,0.887,1.456c0.476,0.741,1.022,1.409,1.022,1.409s2.114-0.321,2.102-0.381  c0,0,0.52-0.138,1.04-0.275c0.262-0.064,0.518-0.143,0.705-0.22c0.189-0.07,0.315-0.117,0.315-0.117s0.179-0.868,0.284-1.71  c0.119-0.829,0.136-1.7,0.136-1.7l0.905-0.448c0,0,0.178,0.12,0.445,0.299c0.264,0.167,0.623,0.384,0.996,0.594  c0.741,0.422,1.546,0.801,1.546,0.801c0.035,0.049,1.708-1.269,1.708-1.269s0.113-0.074,0.256-0.215  c0.147-0.137,0.343-0.319,0.539-0.501c0.389-0.367,0.779-0.733,0.779-0.733s-0.233-0.864-0.518-1.674  c-0.28-0.816-0.608-1.576-0.608-1.576s0.158-0.197,0.305-0.403c0.149-0.205,0.297-0.409,0.297-0.409s0.836,0.13,1.709,0.196  c0.84,0.053,1.718,0.044,1.718,0.044s0.267-0.458,0.535-0.916c0.226-0.48,0.452-0.959,0.452-0.959s0.24-0.478,0.435-0.974  c0.18-0.502,0.359-1.004,0.359-1.004s-0.545-0.67-1.151-1.282c-0.616-0.622-1.251-1.175-1.251-1.175s0.258-0.979,0.228-0.985  C55.182,28.343,55.975,28.103,56.78,27.791z M53.871,31.143c0.288,0.309,0.572,0.632,0.781,0.88c0.195,0.246,0.325,0.41,0.325,0.41  l-0.229,0.491l-0.225,0.48c0,0-0.829,0.049-1.69-0.002c-0.85-0.037-1.662-0.136-1.662-0.136s-0.102,0.174-0.255,0.434  c-0.178,0.244-0.415,0.569-0.652,0.894c-0.22,0.339-0.514,0.618-0.706,0.849c-0.199,0.226-0.332,0.377-0.332,0.377  s0.078,0.195,0.195,0.488c0.105,0.286,0.239,0.673,0.362,1.071c0.25,0.793,0.445,1.637,0.445,1.637s-0.397,0.368-0.407,0.358  l-0.42,0.324c0,0-0.791-0.339-1.52-0.722c-0.362-0.184-0.731-0.403-0.999-0.568c-0.265-0.167-0.441-0.278-0.441-0.278  s-0.17,0.106-0.424,0.265c-0.247,0.173-0.599,0.36-0.962,0.527c-0.701,0.388-1.46,0.638-1.46,0.638s-0.052,0.822-0.176,1.67  c-0.128,0.812-0.333,1.64-0.333,1.64L42.56,43.01c0,0-0.512,0.143-0.515,0.127c0,0-0.559-0.67-1.042-1.354  c-0.49-0.683-0.903-1.374-0.903-1.374s-0.198,0.018-0.498,0.031c-0.299,0.016-0.698,0.038-1.096,0.06  c-0.399-0.022-0.797-0.043-1.096-0.059c-0.299-0.014-0.498-0.03-0.498-0.03s-0.413,0.691-0.902,1.374  c-0.482,0.684-1.042,1.354-1.042,1.354c-0.003,0.016-0.527-0.129-0.527-0.129l-0.514-0.136c0,0-0.205-0.83-0.334-1.639  c-0.125-0.849-0.177-1.671-0.177-1.671s-0.759-0.249-1.461-0.637c-0.362-0.169-0.716-0.353-0.963-0.527  c-0.254-0.159-0.424-0.265-0.424-0.265s-0.176,0.111-0.441,0.278c-0.267,0.164-0.637,0.385-0.999,0.569  c-0.73,0.383-1.52,0.722-1.52,0.722l-0.43-0.331c-0.009,0.01-0.398-0.35-0.398-0.35s0.195-0.844,0.445-1.637  c0.123-0.398,0.256-0.786,0.361-1.071c0.117-0.293,0.195-0.488,0.195-0.488s-0.133-0.151-0.332-0.378  c-0.192-0.232-0.487-0.509-0.707-0.849c-0.237-0.325-0.474-0.65-0.652-0.894c-0.153-0.26-0.256-0.433-0.256-0.433  s-0.812,0.1-1.661,0.137c-0.861,0.051-1.691,0.003-1.691,0.003l-0.23-0.491l-0.225-0.48c0,0,0.13-0.164,0.325-0.41  c0.207-0.247,0.492-0.571,0.779-0.88c0.575-0.623,1.173-1.176,1.173-1.176s-0.082-0.185-0.158-0.478  c-0.073-0.293-0.171-0.685-0.268-1.076c-0.12-0.387-0.131-0.796-0.19-1.092c-0.045-0.299-0.076-0.499-0.076-0.499  s-0.2-0.066-0.499-0.166c-0.291-0.104-0.669-0.253-1.053-0.415c-0.766-0.32-1.536-0.711-1.536-0.711L20.5,25l0.026-0.529  c0,0,0.77-0.391,1.536-0.711c0.384-0.162,0.763-0.311,1.052-0.415c0.3-0.1,0.499-0.166,0.499-0.166s0.03-0.2,0.076-0.499  c0.059-0.297,0.071-0.706,0.189-1.093c0.098-0.391,0.195-0.782,0.268-1.076c0.073-0.293,0.157-0.478,0.157-0.478  s-0.598-0.553-1.173-1.176c-0.288-0.309-0.572-0.632-0.781-0.88c-0.195-0.246-0.325-0.41-0.325-0.41l0.229-0.491l0.225-0.48  c0,0,0.829-0.049,1.69,0.002c0.85,0.037,1.662,0.136,1.662,0.136s0.102-0.174,0.255-0.434c0.178-0.244,0.415-0.569,0.652-0.894  c0.22-0.339,0.513-0.618,0.706-0.849c0.199-0.226,0.332-0.377,0.332-0.377s-0.078-0.195-0.195-0.488  c-0.105-0.286-0.238-0.673-0.362-1.071c-0.25-0.793-0.445-1.637-0.445-1.637s0.397-0.368,0.407-0.358l0.42-0.324  c0,0,0.79,0.339,1.52,0.722c0.362,0.184,0.731,0.403,0.999,0.568c0.265,0.167,0.441,0.278,0.441,0.278s0.17-0.106,0.424-0.265  c0.247-0.173,0.599-0.36,0.962-0.528c0.702-0.387,1.46-0.638,1.46-0.638s0.052-0.822,0.176-1.67c0.128-0.812,0.333-1.64,0.333-1.64  L34.44,6.99c0,0,0.512-0.143,0.515-0.127c0,0,0.559,0.67,1.042,1.354c0.49,0.683,0.903,1.374,0.903,1.374s0.198-0.019,0.498-0.031  c0.299-0.016,0.698-0.038,1.096-0.06c0.399,0.021,0.797,0.043,1.096,0.059c0.299,0.014,0.498,0.03,0.498,0.03  s0.412-0.691,0.902-1.374c0.482-0.684,1.041-1.354,1.041-1.354C42.036,6.845,42.56,6.99,42.56,6.99l0.514,0.136  c0,0,0.205,0.83,0.334,1.639c0.125,0.849,0.177,1.671,0.177,1.671s0.759,0.249,1.461,0.637c0.362,0.169,0.716,0.353,0.963,0.527  c0.254,0.159,0.424,0.265,0.424,0.265s0.176-0.111,0.441-0.278c0.267-0.164,0.637-0.385,0.999-0.569  c0.73-0.383,1.52-0.722,1.52-0.722l0.43,0.331c0.009-0.01,0.398,0.35,0.398,0.35s-0.195,0.844-0.445,1.637  c-0.123,0.398-0.257,0.786-0.361,1.071c-0.117,0.293-0.195,0.488-0.195,0.488s0.133,0.151,0.332,0.377  c0.192,0.232,0.487,0.509,0.707,0.849c0.237,0.325,0.474,0.65,0.652,0.894c0.153,0.26,0.256,0.433,0.256,0.433  s0.812-0.1,1.661-0.137c0.861-0.051,1.691-0.003,1.691-0.003l0.23,0.49l0.225,0.48c0,0-0.13,0.164-0.325,0.41  c-0.207,0.247-0.492,0.571-0.779,0.88c-0.575,0.623-1.173,1.176-1.173,1.176s0.082,0.185,0.158,0.478  c0.073,0.293,0.171,0.685,0.268,1.076c0.12,0.387,0.131,0.796,0.19,1.092c0.045,0.299,0.076,0.499,0.076,0.499  s0.2,0.066,0.499,0.166c0.291,0.104,0.669,0.253,1.053,0.415c0.766,0.32,1.536,0.711,1.536,0.711L56.5,25l-0.026,0.529  c0,0-0.77,0.391-1.536,0.711c-0.384,0.162-0.763,0.311-1.052,0.415c-0.3,0.1-0.499,0.166-0.499,0.166s-0.03,0.2-0.076,0.499  c-0.059,0.297-0.071,0.706-0.189,1.093c-0.097,0.391-0.195,0.782-0.268,1.076c-0.073,0.294-0.157,0.478-0.157,0.478  S53.296,30.521,53.871,31.143z"></path><path d="M75.008,38.43c-7.27,0-13.184,5.914-13.184,13.184s5.914,13.185,13.184,13.185s13.185-5.915,13.185-13.185  S82.277,38.43,75.008,38.43z M81.326,60.834l-0.617-1.068c-0.276-0.48-0.89-0.642-1.366-0.366c-0.479,0.276-0.643,0.888-0.366,1.366  l0.603,1.045c-1.11,0.5-2.314,0.825-3.58,0.937V62c0-0.553-0.447-1-1-1s-1,0.447-1,1v0.747c-1.299-0.117-2.53-0.461-3.664-0.985  l0.554-0.965c0.275-0.479,0.109-1.09-0.369-1.365c-0.48-0.275-1.091-0.111-1.365,0.369l-0.555,0.966  c-1.052-0.739-1.969-1.653-2.713-2.702l0.959-0.548c0.479-0.273,0.646-0.885,0.372-1.364s-0.885-0.648-1.364-0.372l-0.971,0.555  c-0.486-1.037-0.818-2.156-0.965-3.336H65c0.553,0,1-0.447,1-1s-0.447-1-1-1h-1.145c0.077-1.404,0.407-2.739,0.957-3.959  l1.095,0.633c0.157,0.091,0.329,0.134,0.499,0.134c0.346,0,0.682-0.179,0.867-0.5c0.276-0.478,0.112-1.09-0.366-1.366l-1.118-0.646  c0.729-1.061,1.641-1.984,2.684-2.738l0.629,1.089c0.186,0.321,0.521,0.5,0.867,0.5c0.17,0,0.342-0.043,0.499-0.134  c0.479-0.276,0.643-0.889,0.366-1.366l-0.642-1.111c1.173-0.563,2.453-0.932,3.808-1.054V42c0,0.553,0.447,1,1,1s1-0.447,1-1v-1.52  c1.325,0.117,2.581,0.471,3.733,1.011l-0.69,1.201c-0.275,0.479-0.11,1.09,0.369,1.365c0.156,0.09,0.328,0.133,0.497,0.133  c0.347,0,0.683-0.18,0.868-0.502l0.685-1.192c1.048,0.744,1.962,1.661,2.7,2.713l-1.199,0.686c-0.479,0.274-0.646,0.885-0.372,1.364  c0.185,0.323,0.522,0.504,0.869,0.504c0.168,0,0.339-0.042,0.495-0.132l1.201-0.687c0.576,1.247,0.925,2.614,1.004,4.056H85  c-0.553,0-1,0.447-1,1s0.447,1,1,1h1.097c-0.151,1.215-0.5,2.366-1.01,3.428l-1.06-0.612c-0.478-0.277-1.09-0.112-1.366,0.366  c-0.276,0.479-0.112,1.09,0.366,1.366l1.038,0.599C83.311,59.191,82.387,60.104,81.326,60.834z M80.466,45.847  c0.401,0.38,0.418,1.013,0.039,1.414l-4.13,4.363c-0.006,0.75-0.615,1.357-1.366,1.357c-0.613,0-1.126-0.406-1.299-0.962  l-2.617-1.509c-0.479-0.275-0.644-0.887-0.367-1.365c0.274-0.479,0.887-0.644,1.365-0.367l2.614,1.506  c0.069-0.016,0.14-0.023,0.212-0.027l4.136-4.37C79.434,45.483,80.065,45.468,80.466,45.847z M96.125,56.261  c0,0-0.043,0.208-0.123,0.516c-0.079,0.308-0.185,0.72-0.291,1.131c-0.093,0.415-0.24,0.814-0.352,1.112  c-0.109,0.299-0.182,0.499-0.182,0.499s-0.26,0.092-0.651,0.23c-0.38,0.136-0.904,0.292-1.446,0.413  c-1.067,0.258-2.079,0.401-2.079,0.401s-0.18,0.314-0.368,0.623c-0.188,0.31-0.376,0.619-0.376,0.619s-0.136,0.26-0.318,0.49  c-0.175,0.234-0.351,0.468-0.351,0.468s0.077,0.252,0.192,0.631c0.105,0.378,0.267,0.92,0.355,1.433  c0.204,1.041,0.321,2.173,0.321,2.173s-0.131,0.169-0.371,0.378c-0.235,0.214-0.548,0.5-0.862,0.785  c-0.31,0.29-0.63,0.568-0.892,0.749c-0.254,0.191-0.424,0.318-0.424,0.318s-0.269-0.064-0.673-0.161  c-0.4-0.102-0.913-0.234-1.436-0.427c-1.04-0.362-1.971-0.791-1.971-0.791s-0.078,0.047-0.194,0.116  c-0.122,0.059-0.286,0.137-0.449,0.215c-0.326,0.157-0.652,0.314-0.652,0.314s-0.261,0.133-0.529,0.248  c-0.275,0.1-0.549,0.2-0.549,0.2s-0.262,1.012-0.654,2.038c-0.393,0.98-0.91,1.989-0.91,1.989c0.019,0.089-3.345,0.585-3.351,0.502  c0,0-0.79-0.81-1.455-1.629c-0.677-0.866-1.228-1.754-1.228-1.754s-0.362-0.018-0.724-0.036c-0.358-0.055-0.716-0.11-0.716-0.11  l0.24-1.683c0,0,0.125,0.019,0.313,0.049c0.187,0.036,0.438,0.069,0.692,0.07c0.507,0.026,1.013,0.051,1.013,0.051  s0.139,0.219,0.347,0.548c0.214,0.307,0.515,0.716,0.841,1.125c0.325,0.409,0.674,0.817,0.948,1.122  c0.274,0.313,0.464,0.483,0.464,0.483l1.39-0.212c0,0,0.13-0.227,0.303-0.591c0.172-0.373,0.385-0.867,0.574-1.354  c0.19-0.488,0.356-0.969,0.469-1.325c0.101-0.375,0.169-0.624,0.169-0.624s1.666-0.602,1.645-0.652c0,0,0.456-0.219,0.913-0.438  c0.442-0.245,0.87-0.518,0.87-0.518s0.234,0.107,0.584,0.267c0.362,0.166,0.84,0.353,1.327,0.508  c0.978,0.33,2.057,0.583,2.057,0.583s0.263-0.233,0.524-0.467c0.26-0.236,0.52-0.473,0.52-0.473s-0.077-1.063-0.311-2.105  c-0.106-0.515-0.229-1.012-0.328-1.375c-0.093-0.359-0.186-0.609-0.186-0.609s1.079-1.41,1.033-1.441c0,0,0.263-0.433,0.526-0.865  c0.144-0.209,0.231-0.45,0.319-0.618c0.082-0.171,0.137-0.285,0.137-0.285s0.254-0.036,0.634-0.091  c0.384-0.06,0.909-0.151,1.397-0.285c0.997-0.252,2.037-0.624,2.037-0.624c0.04,0.013,0.372-1.355,0.372-1.355  s-0.166-0.208-0.415-0.521c-0.239-0.304-0.602-0.703-0.981-1.079c-0.746-0.758-1.505-1.389-1.505-1.389s0.02-0.109,0.022-0.276  c0.008-0.166,0.018-0.388,0.029-0.61C91.426,52.443,91.45,52,91.45,52s-0.027-0.507-0.054-1.013  c-0.013-0.253-0.025-0.507-0.035-0.697c-0.03-0.188-0.05-0.313-0.05-0.313s0.76-0.644,1.503-1.415  c0.387-0.384,0.689-0.778,0.949-1.091c0.247-0.317,0.413-0.529,0.413-0.529s-0.088-0.34-0.176-0.681  c-0.089-0.34-0.225-0.665-0.225-0.665s-1.037-0.359-2.028-0.599c-1.041-0.232-2.045-0.342-2.045-0.342s-0.048-0.1-0.119-0.25  c-0.064-0.154-0.171-0.348-0.293-0.533c-0.23-0.379-0.46-0.758-0.46-0.758c0.05-0.033-1.189-1.638-1.189-1.638  s0.282-0.948,0.483-1.993c0.11-0.527,0.181-1.05,0.215-1.439c0.035-0.399,0.058-0.665,0.058-0.665s-1.038-0.947-1.062-0.918  c0,0-1.069,0.262-2.036,0.599c-0.483,0.16-0.98,0.388-1.327,0.541c-0.346,0.163-0.577,0.271-0.577,0.271s-0.095-0.058-0.236-0.144  c-0.142-0.086-0.326-0.211-0.531-0.297c-0.399-0.192-0.799-0.384-0.799-0.384c0.024-0.057-1.881-0.74-1.881-0.74  s-0.066-0.243-0.185-0.6c-0.118-0.358-0.29-0.841-0.486-1.331c-0.38-1.003-0.908-1.922-0.908-1.922l-1.39-0.206  c0,0-0.757,0.812-1.388,1.631c-0.644,0.792-1.162,1.701-1.162,1.701s-0.444,0.022-0.887,0.043c-0.223-0.001-0.44,0.047-0.605,0.07  c-0.164,0.026-0.274,0.043-0.274,0.043s-0.5,0.076-1.001,0.152c-0.49,0.127-0.979,0.255-0.979,0.255s-0.763-0.716-1.612-1.282  c-0.845-0.595-1.811-1.144-1.811-1.144l-1.267,0.609c0,0-0.05,0.26-0.124,0.65c-0.066,0.394-0.124,0.94-0.168,1.46  c-0.043,0.524-0.065,1.034-0.072,1.409c-0.011,0.37,0.01,0.64,0.01,0.64s-1.43,1.051-1.396,1.093c0,0-0.375,0.34-0.751,0.681  c-0.363,0.353-0.691,0.74-0.691,0.74s-0.254-0.037-0.635-0.092c-0.391-0.055-0.91-0.107-1.418-0.117  c-1.03-0.041-2.136,0.019-2.136,0.019s-0.193,0.293-0.374,0.594c-0.182,0.3-0.365,0.601-0.365,0.601s0.368,0.997,0.889,1.932  c0.248,0.465,0.507,0.907,0.705,1.228c0.192,0.319,0.345,0.529,0.345,0.529s-0.151,0.416-0.302,0.832  c-0.077,0.208-0.154,0.415-0.212,0.571c-0.041,0.161-0.068,0.268-0.068,0.268s-0.126,0.49-0.252,0.98  c-0.074,0.242-0.118,0.492-0.139,0.681c-0.028,0.188-0.047,0.313-0.047,0.313s-0.936,0.403-1.85,0.936  c-0.876,0.525-1.76,1.175-1.76,1.175s-0.032,0.351-0.019,0.702c0.017,0.351,0.035,0.701,0.035,0.701s0.869,0.639,1.774,1.147  c0.94,0.517,1.858,0.909,1.858,0.909c-0.055,0.012,0.4,1.724,0.4,1.724s0.026,0.124,0.082,0.305  c0.066,0.178,0.154,0.415,0.242,0.652c0.086,0.238,0.173,0.475,0.237,0.654c0.058,0.181,0.122,0.291,0.122,0.291  s-0.54,0.83-1.029,1.777c-0.256,0.476-0.461,0.952-0.608,1.319c-0.146,0.374-0.243,0.623-0.243,0.623s0.183,0.3,0.365,0.6  c0.171,0.308,0.398,0.578,0.398,0.578s1.099,0.049,2.12-0.002c1.055-0.063,2.057-0.245,2.057-0.245s0.074,0.082,0.186,0.206  c0.109,0.126,0.258,0.29,0.43,0.432c0.328,0.298,0.657,0.596,0.657,0.596l0,0c-0.038,0.047,1.599,1.242,1.599,1.242  s-0.005,0.987,0.097,2.045c0.044,0.533,0.118,1.064,0.197,1.444c0.079,0.392,0.132,0.653,0.132,0.653s1.262,0.621,1.278,0.584  c0,0,0.953-0.556,1.786-1.155c0.416-0.285,0.827-0.64,1.118-0.89c0.286-0.256,0.477-0.426,0.477-0.426s0.426,0.122,0.859,0.213  c0.438,0.066,0.877,0.131,0.877,0.131l-0.24,1.683c0,0-0.289-0.044-0.578-0.088c-0.289-0.043-0.577-0.095-0.577-0.095  s-0.76,0.681-1.644,1.332c-0.44,0.332-0.902,0.643-1.25,0.844c-0.356,0.209-0.598,0.349-0.598,0.349s-0.207-0.073-0.506-0.183  c-0.298-0.112-0.718-0.246-1.095-0.443c-0.765-0.368-1.558-0.743-1.558-0.743s-0.284-1.123-0.392-2.185  C64.158,68.206,64,67.679,64,67.268c0-0.398,0-0.663,0-0.663s-0.161-0.217-0.451-0.433c-0.148-0.104-0.16-0.218-0.256-0.314  c-0.1-0.091-0.167-0.152-0.167-0.152l-0.866-0.786c0,0-0.264,0.053-0.646,0.096c-0.387,0.048-0.913,0.101-1.456,0.135  c-1.101,0.09-2.197,0.013-2.197,0.013s-0.127-0.17-0.318-0.424c-0.181-0.261-0.465-0.581-0.673-0.951  c-0.44-0.725-0.88-1.451-0.88-1.451s0.099-0.263,0.267-0.65c0.166-0.387,0.396-0.888,0.638-1.367  c0.456-0.955,1.069-1.838,1.069-1.838s-0.513-1.355-0.47-1.368l-0.291-1.132c0,0-0.245-0.106-0.611-0.266  c-0.348-0.17-0.815-0.411-1.285-0.677c-0.47-0.265-0.944-0.555-1.3-0.785c-0.351-0.229-0.563-0.395-0.563-0.395  s-0.042-0.846-0.085-1.693c0.007-0.846,0.067-1.693,0.067-1.693s0.867-0.672,1.835-1.208c0.947-0.55,1.873-0.974,1.873-0.974  l0.361-1.402c-0.033-0.01,0.374-1.106,0.374-1.106s-0.146-0.221-0.364-0.551c-0.214-0.336-0.51-0.805-0.741-1.274  c-0.491-0.942-0.923-1.998-0.923-1.998s0.081-0.197,0.253-0.465c0.165-0.272,0.385-0.635,0.605-0.998  c0.212-0.368,0.448-0.72,0.648-0.969c0.19-0.255,0.317-0.425,0.317-0.425s0.276-0.014,0.69-0.035c0.409-0.018,0.945-0.029,1.5,0.009  c1.098,0.055,2.111,0.203,2.111,0.203c-0.021-0.021,1.062-0.984,1.062-0.984s0.207-0.208,0.441-0.383  c0.234-0.175,0.469-0.35,0.469-0.35s-0.003-0.263-0.007-0.658c0.006-0.391,0.003-0.956,0.06-1.477  c0.097-1.055,0.304-2.173,0.304-2.173c-0.04-0.075,3.046-1.499,3.076-1.426c0,0,0.241,0.138,0.602,0.346  c0.358,0.219,0.808,0.474,1.256,0.81c0.896,0.646,1.669,1.325,1.669,1.325c-0.009-0.043,1.424-0.253,1.424-0.253  s0.289-0.044,0.578-0.089c0.289-0.045,0.583-0.044,0.583-0.044s0.539-0.878,1.203-1.762c0.328-0.451,0.682-0.829,0.958-1.144  c0.283-0.305,0.471-0.508,0.471-0.508s0.212,0.011,0.529,0.028c0.318,0.004,0.739,0.06,1.158,0.129  c0.419,0.065,0.839,0.129,1.153,0.177c0.316,0.041,0.52,0.104,0.52,0.104s0.53,1.011,0.936,1.994  c0.21,0.481,0.382,0.998,0.499,1.384c0.113,0.381,0.188,0.634,0.188,0.634s0.34,0.124,0.68,0.248  c0.173,0.055,0.334,0.139,0.456,0.198c0.122,0.059,0.204,0.098,0.204,0.098l1.053,0.507c0,0,0.234-0.117,0.591-0.27  c0.358-0.155,0.849-0.355,1.361-0.54c1.033-0.398,2.105-0.627,2.105-0.627s0.17,0.127,0.425,0.317  c0.249,0.197,0.607,0.429,0.911,0.726c0.627,0.571,1.254,1.142,1.254,1.142s-0.106,1.14-0.302,2.19  c-0.092,0.526-0.205,1.035-0.322,1.429c-0.112,0.382-0.187,0.637-0.187,0.637s0.87,1.159,0.836,1.181l0.607,0.999  c0,0,0.273,0.02,0.651,0.087c0.384,0.063,0.903,0.161,1.433,0.281c0.524,0.122,1.08,0.258,1.466,0.385  c0.389,0.133,0.648,0.222,0.648,0.222s0.31,0.792,0.565,1.601c0.212,0.822,0.423,1.645,0.423,1.645s-0.149,0.22-0.429,0.545  c-0.272,0.324-0.638,0.74-1.008,1.132c-0.371,0.393-0.741,0.76-1.028,1.025c-0.306,0.261-0.51,0.435-0.51,0.435L93.15,52  l-0.06,1.168c0,0,0.204,0.171,0.51,0.427c0.318,0.263,0.691,0.624,1.06,1.01C95.405,55.371,96.125,56.261,96.125,56.261z"></path><path d="M80.357,75.204c-0.438-0.335-1.066-0.249-1.401,0.191c-7.208,9.474-18.05,15.094-29.875,15.559l0.089-2.471l-6.167,3.27  l5.915,3.706l0.09-2.489c12.483-0.302,23.936-6.37,31.54-16.364C80.882,76.168,80.797,75.538,80.357,75.204z"></path><path d="M81.827,29.998l-0.809-6.933l-1.98,1.474c-5.669-6.62-13.37-11.363-21.803-13.391c-0.537-0.128-1.077,0.201-1.206,0.739  c-0.129,0.537,0.202,1.076,0.739,1.206c7.98,1.918,15.274,6.394,20.663,12.641l-2.013,1.498L81.827,29.998z"></path><path d="M14.886,33.97L15.249,27L9.03,30.17l2.103,1.365C7.785,37.627,6,44.502,6,51.5c0,3.289,0.386,6.563,1.147,9.731  c0.11,0.459,0.521,0.767,0.972,0.767c0.077,0,0.156-0.009,0.234-0.027c0.537-0.13,0.868-0.669,0.739-1.206  C8.367,57.749,8,54.632,8,51.5c0-6.612,1.675-13.108,4.816-18.873L14.886,33.97z"></path></svg>