<svg height='100px' width='100px'  fill="#000000" xmlns="http://www.w3.org/2000/svg" xmlns:xlink="http://www.w3.org/1999/xlink" version="1.1" x="0px" y="0px" viewBox="0 0 64 64" style="enable-background:new 0 0 64 64;" xml:space="preserve"><g><path d="M59,45h-8V4c0-1.654-1.346-3-3-3H12.829c-0.801,0-1.555,0.312-2.122,0.879l-8.828,8.828C1.312,11.273,1,12.027,1,12.829V60   c0,1.654,1.346,3,3,3h44c1.654,0,3-1.346,3-3v-7h8c2.206,0,4-1.794,4-4S61.206,45,59,45z M11,4.414V10c0,0.551-0.449,1-1,1H4.414   L11,4.414z M49,60c0,0.551-0.449,1-1,1H4c-0.551,0-1-0.449-1-1V13h7c1.654,0,3-1.346,3-3V3h35c0.551,0,1,0.449,1,1v41h-2.184   c-0.414-1.161-1.514-2-2.816-2h-1v-1c0-1.654-1.346-3-3-3h-4c-1.302,0-2.402,0.839-2.816,2H32c-1.654,0-3,1.346-3,3v10   c0,1.654,1.346,3,3,3h1.184c0.414,1.161,1.514,2,2.816,2h4c1.654,0,3-1.346,3-3v-1h1c1.302,0,2.402-0.839,2.816-2H49V60z M43,45h1   c0.551,0,1,0.449,1,1v6c0,0.551-0.449,1-1,1h-1V45z M41,42v14c0,0.551-0.449,1-1,1h-4c-0.551,0-1-0.449-1-1V42c0-0.551,0.449-1,1-1   h4C40.551,41,41,41.449,41,42z M33,55h-1c-0.551,0-1-0.449-1-1V44c0-0.551,0.449-1,1-1h1V55z M59,51H47v-4h12c1.103,0,2,0.897,2,2   S60.103,51,59,51z"></path><path d="M26.414,42L22,37.586l-0.753,0.753C19.636,37.461,17.838,37,16,37C9.935,37,5,41.935,5,48c0,1.838,0.461,3.636,1.339,5.247   L5.586,54L10,58.414l0.753-0.753C12.364,58.539,14.162,59,16,59c6.065,0,11-4.935,11-11c0-1.838-0.461-3.636-1.339-5.247L26.414,42   z M7,48c0-4.962,4.038-9,9-9c1.303,0,2.581,0.285,3.757,0.829l-1.537,1.537C17.503,41.124,16.76,41,16,41c-3.86,0-7,3.14-7,7   c0,0.76,0.124,1.503,0.366,2.22l-1.537,1.537C7.285,50.581,7,49.303,7,48z M11.057,48.529C11.037,48.353,11,48.179,11,48   c0-2.757,2.243-5,5-5c0.179,0,0.353,0.037,0.529,0.057L11.057,48.529z M8.414,54L22,40.414L23.586,42L10,55.586L8.414,54z M21,48   c0,2.757-2.243,5-5,5c-0.179,0-0.353-0.037-0.529-0.057l5.473-5.473C20.963,47.647,21,47.821,21,48z M25,48c0,4.962-4.038,9-9,9   c-1.303,0-2.581-0.285-3.757-0.829l1.537-1.537C14.497,54.876,15.24,55,16,55c3.86,0,7-3.14,7-7c0-0.76-0.124-1.503-0.366-2.22   l1.537-1.537C24.715,45.419,25,46.697,25,48z"></path><path d="M42,20.883V23h2v-2.117c1.716-0.411,3-1.948,3-3.789c0-1.684-1.073-3.172-2.67-3.705l-2.026-0.676   C41.523,12.454,41,11.727,41,10.906C41,9.855,41.855,9,42.906,9h0.188C44.145,9,45,9.855,45,10.906V12h2v-1.094   c0-1.841-1.284-3.378-3-3.789V5h-2v2.117c-1.716,0.411-3,1.948-3,3.789c0,1.684,1.073,3.172,2.67,3.705l2.026,0.676   c0.78,0.26,1.303,0.986,1.303,1.808C45,18.145,44.145,19,43.094,19h-0.188C41.855,19,41,18.145,41,17.094V16h-2v1.094   C39,18.935,40.284,20.472,42,20.883z"></path><rect x="15" y="5" width="22" height="2"></rect><rect x="35" y="9" width="2" height="2"></rect><rect x="15" y="9" width="18" height="2"></rect><rect x="15" y="13" width="22" height="2"></rect><rect x="5" y="17" width="32" height="2"></rect><rect x="5" y="21" width="32" height="2"></rect><rect x="35" y="25" width="2" height="2"></rect><rect x="5" y="25" width="28" height="2"></rect><rect x="5" y="29" width="16" height="2"></rect><rect x="5" y="33" width="16" height="2"></rect></g></svg>