<svg height='100px' width='100px'  fill="#000000" xmlns="http://www.w3.org/2000/svg" xmlns:xlink="http://www.w3.org/1999/xlink" version="1.1" x="0px" y="0px" viewBox="0 0 100 100" enable-background="new 0 0 100 100" xml:space="preserve"><g display="none"><polygon display="inline" opacity="0.3" fill-rule="evenodd" clip-rule="evenodd" points="59.458,29.954 58.258,38.46    60.135,47.657 64.057,54.548 66.641,60.361 71.886,64.114 70.886,70.544 66.979,77.681 57.182,80.88 56.812,86.57 53.429,93.892    50.199,95.553 45.861,92.554 41.37,80.941 32.388,80.572 29.758,77.572 31.635,71.959 29.02,67.468 29.02,61.469 31.266,56.239    28.266,48.365 30.512,37.506 32.757,36.384 33.511,32.646 26.282,29.016 26.713,19.957 30.097,12.836 35.264,6.591 37.048,6.96    40.078,11.405 44.354,6.068 44.431,5.761 46.292,7.083 49.599,12.62 51.829,13.158 56.92,16.466 58.428,20.126 58.335,27.724  "></polygon></g><g display="none"><path display="inline" d="M24.021,69.391l2.661-6.968h1l2.846,6.968h-1.046l-0.815-2.107h-2.907l-0.769,2.107H24.021L24.021,69.391   z M26.021,66.529h2.368l-0.738-1.923c-0.215-0.584-0.384-1.076-0.492-1.445c-0.076,0.431-0.199,0.892-0.369,1.322L26.021,66.529   L26.021,66.529z M31.234,69.391v-6.968h0.923v6.152h3.43v0.815H31.234L31.234,69.391z M36.648,69.391v-6.968h2.6   c0.538,0,0.969,0.062,1.292,0.215c0.322,0.123,0.568,0.354,0.753,0.646s0.277,0.6,0.277,0.923c0,0.292-0.093,0.569-0.246,0.83   c-0.154,0.277-0.4,0.478-0.738,0.646c0.431,0.123,0.754,0.338,0.984,0.631c0.215,0.292,0.338,0.661,0.338,1.061   c0,0.323-0.076,0.615-0.215,0.893c-0.139,0.292-0.308,0.508-0.508,0.661c-0.2,0.154-0.461,0.262-0.769,0.354   c-0.293,0.062-0.677,0.108-1.123,0.108H36.648L36.648,69.391z M37.571,65.345h1.507c0.4,0,0.692-0.03,0.877-0.076   c0.23-0.077,0.4-0.185,0.523-0.354c0.123-0.153,0.185-0.354,0.185-0.6c0-0.23-0.062-0.446-0.17-0.6   c-0.107-0.185-0.276-0.308-0.477-0.369s-0.554-0.093-1.062-0.093h-1.384V65.345L37.571,65.345z M37.571,68.575h1.723   c0.308,0,0.508-0.031,0.631-0.031c0.215-0.046,0.384-0.123,0.538-0.199c0.139-0.093,0.262-0.216,0.354-0.385   c0.093-0.185,0.123-0.369,0.123-0.585c0-0.261-0.062-0.492-0.185-0.677c-0.139-0.199-0.323-0.338-0.569-0.415   c-0.23-0.077-0.568-0.107-1.015-0.107h-1.6V68.575L37.571,68.575z M42.4,69.391l2.677-6.968h1l2.845,6.968h-1.046l-0.814-2.107   h-2.907l-0.77,2.107H42.4L42.4,69.391z M44.416,66.529h2.368l-0.738-1.923c-0.215-0.584-0.385-1.076-0.492-1.445   c-0.077,0.431-0.215,0.892-0.369,1.322L44.416,66.529L44.416,66.529z M49.66,69.391v-6.968h0.938l3.66,5.476v-5.476h0.893v6.968   h-0.954l-3.66-5.476v5.476H49.66L49.66,69.391z M56.843,69.391v-6.968h0.923v6.968H56.843L56.843,69.391z M58.627,69.391   l2.677-6.968h1l2.845,6.968h-1.046l-0.814-2.107h-2.907l-0.77,2.107H58.627L58.627,69.391z M60.643,66.529h2.353l-0.723-1.923   c-0.215-0.584-0.385-1.076-0.492-1.445c-0.092,0.431-0.215,0.892-0.369,1.322L60.643,66.529z"></path></g><g><path fill="none" stroke="#000000" stroke-linecap="round" stroke-linejoin="round" stroke-miterlimit="10" d="M31.167,57.501   c0.096-0.702,0.18-1.44,0.195-2.142c1.18-0.647-0.922-1.706-0.029-2.862c-0.569-0.019-0.916-0.405-1.174-0.659   c0.009,0.009-0.867-0.823-0.842-0.779c-0.316-0.558-0.782-1.787-0.863-2.484c-0.125-1.079,0.362-1.879,0.672-2.899   c0.378-1.249,0.036-2.569,0.569-3.652c1.531,0.045,0.19-2.028,0.334-3.059c0.012-0.086,0.818-1.726,0.754-1.683   c0.732-0.496,0.954,0.336,1.217,0.202c1.746-0.888,2.259-4.188,1.032-5.62c-0.645-0.753-1.562-1.511-2.358-1.896   c-1.415-0.685-3.323-0.141-3.974-1.963c-0.453-1.269,0.411-7.565,1.446-7.513c0.079-1.725-0.124-4.861,2.174-5.181   c0.041-0.478-0.164-1.228-0.035-1.66c0.191-0.646,0.512-0.51,0.865-1.114c0.591-1.008,1.287-1.717,2.029-2.661   c0.387-0.493,0.826-1.728,1.309-2.054c0.402-0.272,0.973,0.011,1.366-0.131c0.601-0.217,1.709-1.133,2.319-1.03   c1.969,0.33,0.917,3.049,2.169,3.88c1.51,1.003,1.746-1.545,1.671-2.679c2.728-0.295,3.287-1.848,5.482,0.603   c1.156,1.29,2.423,2.67,3.508,4.166c1.064,1.467,2.099,1.416,3.459,2.524c1.646,1.342,5.032,2.805,5.68,5.012   c0.48,1.641-0.199,4.732-0.435,6.362c-0.11,0.766-0.568,1.685-0.374,2.471c0.176,0.715,0.963,1.036,0.978,1.825   c0.006,0.278-0.842,1.716-0.97,2.168c-0.313,1.101-0.357,2.224-0.37,3.368c-0.014,1.195-0.29,2.062-0.308,3.313   c-0.018,1.158,0.631,1.932,0.849,2.987c0.301,1.46-0.122,2.766,0.488,4.163c0.52,1.19,0.852,2.37,1.329,3.505   c0.583,1.389,1.669,1.444,2.136,2.854c0.319,0.962-0.255,2.599,1.521,2.162c-0.333,1.465,1.3,7.706,3.871,5.646   c0.276,0.787,0.924,1.176,1.305,1.843c0.426,0.743,0.549,1.454,0.868,2.305c0.407-0.676,0.81-1.466,0.786-2.262   c2.658,0.254-1.067,6.443-1.354,7.993c-0.441,2.386-0.961,5.103-3.246,6.418c0.115-0.633,0.271-1.247,0.604-1.772   c-0.367,1.165-1.16,2.725-2.021,3.021c-0.923,0.317-1.977-0.144-2.925,0.166c-1.912,0.626-3.107,1.689-5.171,1.479   c-0.948,0.945-0.659,2.862-0.513,4.123c1.421,0.469-0.794,3.185-1.342,3.986c1.374,0.671-1.63,3.948-2.17,4.9   c-1.214,2.136-1.448,2.198-3.68,1.641c-0.75-0.187-1.533-0.206-2.283-0.495c-1.862-0.718-1.033-1.12-1.668-2.716   c-0.742-1.867-2.405-2.882-2.702-5.096c0.298,0.07,0.649-0.044,0.981,0.079c-0.384-0.957-1.212-1.594-1.657-2.426   c-0.561-1.049-0.327-2.858-1.847-2.992c-0.677,0.875-1.938,0.613-2.194-0.504c-1.945-0.482-4.229,0.36-6.297-0.383   c-3.022-1.085-1.624-3.596-2.819-5.574c0.396,0.144,0.92,0.281,1.281,0.761c0.264-0.815,0.601-1.819,0.575-2.699   c-0.04-1.383-0.317-0.828-1.003-1.942c-0.749-1.217-2.048-4.181-1.712-5.682c0.177-0.793,1.166-1.314,1.192-2.147   c0.04-1.243-0.73-1.439-0.307-2.85c0.389-1.293,2.142-2.368,1.792-3.5"></path></g></svg>