<svg height='100px' width='100px'  fill="#000000" xmlns="http://www.w3.org/2000/svg" xmlns:xlink="http://www.w3.org/1999/xlink" version="1.1" x="0px" y="0px" viewBox="0 0 100 100" enable-background="new 0 0 100 100" xml:space="preserve"><g><path fill="none" stroke="#000000" stroke-linecap="round" stroke-linejoin="round" stroke-miterlimit="10" d="M75.334,86.05   l-34.667-0.216c-0.319-0.041-1.261-1.424-2.038-1.787c-1.106-0.518-2.109-0.409-2.967-1.38c-1.504-1.702-2.54-5.273-2.304-7.474   c0.584-0.06,1.069-0.178,1.613-0.387c0.693-1.772-0.572-1.755-1.147-3.138c-0.493-1.187-0.592-2.856-0.658-4.167   c-0.129-2.549-0.044-4.671-2.295-6.546c-1.577-1.312-4.021-2.433-5.167-3.987c-0.484-0.657-0.277-1.138-1-1.832   c-0.574-0.551-0.92-0.651-1.546-0.958c-0.509-0.25-1.115-0.264-1.49-0.636c-0.525-0.522-0.344-1.546-0.659-1.882   c-0.688-0.734-1.965-0.474-2.975-0.508c-0.266-0.841-0.558-1.548-1.237-2.117c-0.617-0.515-1.534,0.081-1.604-1.172   c1.478-0.249,0.876-1.896,0.682-2.862c-0.322-1.604,0.018-1.994,0.296-3.5c0.241-1.305,0.001-2.219,0.501-3.291   c0.279-0.598,1.791-1.662,0.191-2.235c0.083-0.43-0.144-1.026-0.054-1.461c-0.65-0.001-1.15,0.101-1.783,0.132   c-0.247-1.072,0.255-1.674,0.633-2.524c0.355-0.799,0.5-1.583,0.797-2.491c0.887-2.72,3.261-1.39,4.582-3.121   c0.883-1.157,1.45-4.417,1.463-5.846c0.009-0.988-1.34-5.06,0.967-4.185c1.262-2.832,1.755-0.101,3.895-0.6   c1.028-0.239,1.795-0.97,2.842-1.008c0.418-0.016,0.807,0.369,1.126,0.3c0.694-0.151,0.864-0.617,1.504-0.886   c0.868-0.365,1.905-0.441,2.629-0.785c0.688-0.327,2.064-1.604,3.046-1.511c2.859,0.27-0.255,3.129-0.483,3.987   c0.243-0.013,0.537,0.03,0.782,0.049c-0.209,0.753-1.099,1.312-0.949,2.284c1.499,0.074,1.216-1.753,3.146-1.016   c1.185,0.452,1.771,1.289,2.995,1.578c1.708,0.404,2.34,0.421,3.166,2.092c0.37,0.749-0.068,0.987,0.664,1.578   c0.477,0.386,1.585,0.298,2.162,0.459c2.384,0.664,5.404,0.996,7.809,2.037c0.631,0.273,1.444,0.669,2.07,0.967   c0.943,0.448,0.963,0.697,1.755,1.366c1.435,1.212,2.606,0.364,4.537,0.463c1,0.052,2.981,0.081,3.8,0.704   c1.131,0.86,0.381,1.818,0.229,2.938c2.114,0.114,2.455,0.057,3.299,1.868c0.363,0.779,0.69,1.403,0.667,2.342   c-0.023,0.92-0.899,1.523-0.799,2.461c1.019-0.413,1.625-0.968,2.336-0.103c0.861,1.045-0.142,1.147-0.378,2.292   c0.02-0.094,0.288,1.477,0.216,1.337c0.076,0.149,0.865,0.659,0.808,0.484c0.29,0.888,0.09,1.45,0.133,2.486   c-2.054-0.247-2.289,1.337-3.271,2.863c-0.643,1-2.535,3.647-0.417,4.137c1.687-1.366,2.313-3.9,4.046-5.021   c0.956-0.618,1.621-0.158,2.37-1.28c0.573-0.859,0.434-2.245,1.768-2.2c0.485-1.332,0.824-3.991,2.199-4.741   c0.196,1.226,0.743,2.151,0.505,3.441c-0.249,1.35-1.311,2.165-1.883,3.316c-0.289,0.581-0.19,1.239-0.492,1.838   c-0.388,0.77-1.107,1.252-1.458,2.042c-0.625,1.409-0.603,3.126-1.014,4.633c-0.16,0.585-0.609,1.106-0.795,1.705   c-0.239,0.769,0.089,1.895-0.225,2.624c-0.7,1.627-1.93,2.168-2.142,4.029c-0.188,1.65,0.696,3.228,0.5,4.804   c-0.21,1.685-1.384,2.508-1.629,4.3c-0.387,2.833-1.029,5.241,0.333,8.153c0.582,1.244,1.013,2.055,0.759,3.339   C75.366,83.962,74.723,84.682,75.334,86.05c-0.113,0.152-0.279,0.191-0.5,0.117L75.334,86.05z"></path></g></svg>