<svg height='100px' width='100px'  fill="#000000" xmlns="http://www.w3.org/2000/svg" viewBox="0 0 64 64" x="0px" y="0px"><g><path d="M32,32a6,6,0,1,0,6,6A6.00657,6.00657,0,0,0,32,32Zm0,10a4,4,0,1,1,4-4A4.004,4.004,0,0,1,32,42Z"></path><path d="M32,35a1,1,0,0,0,0,2,1.00067,1.00067,0,0,1,1,1,1,1,0,0,0,2,0A3.00328,3.00328,0,0,0,32,35Z"></path><path d="M40,10H36V6a4,4,0,0,0-8,0v4H24V6H2V20H24V16h4v6H17a.99943.99943,0,0,0-1,1v4c0,.02454.01221.045.01392.06909.00152.02228-.00818.0434-.00513.06568L17.21771,36H3a.99943.99943,0,0,0-1,1V61a.99943.99943,0,0,0,1,1H7a.99943.99943,0,0,0,1-1V57.41406L18.68127,46.73279l.32752,2.402A1.00081,1.00081,0,0,0,20,50h4v3a1.902,1.902,0,0,0,.03027.24219l1,4A.99962.99962,0,0,0,26,58H38a.99962.99962,0,0,0,.96973-.75781l1-4A1.902,1.902,0,0,0,40,53V50h4a1.00081,1.00081,0,0,0,.99121-.86523l.32752-2.402L56,57.41406V61a.99943.99943,0,0,0,1,1h4a.99943.99943,0,0,0,1-1V37a.99943.99943,0,0,0-1-1H46.78229l1.20892-8.86523c.003-.02228-.00665-.0434-.00513-.06562C47.98779,27.045,48,27.02454,48,27V23a.99943.99943,0,0,0-1-1H36V16h4v4H62V6H40ZM6,18H4V8H6Zm4,0H8V8h2Zm4,0H12V8h2Zm4,0H16V8h2Zm4,0H20V8h2ZM30,6a2,2,0,0,1,4,0V22H30Zm-6,8V12h4v2ZM7,40a.99943.99943,0,0,0-1,1V60H4V38H17.49042l.2727,2Zm9.58594,2L8,50.58594V42ZM8,54.58594V53.41406L18.20123,43.21283l.14063,1.03125ZM37.21875,56H26.78125l-.5-2h11.4375ZM38,52H26V50H38Zm5.127-4H38V46h3V44H36v4H20.87305L18.14551,28H24v4H21v2h5V28H45.85449ZM56,54.58594,45.707,44.293l-.06433.06433.15607-1.14447L56,53.41406Zm0-4L47.41406,42H56ZM46.50958,38H60V60H58V41a.99943.99943,0,0,0-1-1H46.23688ZM46,24v2H18V24ZM40,14H36V12h4ZM58,8h2V18H58ZM54,8h2V18H54ZM50,8h2V18H50ZM46,8h2V18H46ZM42,8h2V18H42Z"></path></g></svg>