<svg height='100px' width='100px'  fill="#000000" xmlns="http://www.w3.org/2000/svg" xmlns:xlink="http://www.w3.org/1999/xlink" version="1.1" x="0px" y="0px" viewBox="0 0 100 100" style="enable-background:new 0 0 100 100;" xml:space="preserve"><g><path d="M54.4,41c0,0,0.1,0,0.1,0c1.9-0.5,3.8-0.8,5.7-1.2c0.3,0,0.5-0.3,0.4-0.6c0-0.3-0.3-0.5-0.6-0.4c-2,0.3-3.9,0.7-5.8,1.2   c-0.3,0.1-0.4,0.3-0.4,0.6C54,40.9,54.2,41,54.4,41z"></path><path d="M12.9,34.1c2.1-0.4,4.3-0.8,6.5-1c3.1-0.3,6.3-0.5,9.4-0.4c3.1,0.1,6.3,0.3,9.4,0.8c2.4,0.3,4.7,0.8,7.1,1.4   c0,0,0.1,0,0.1,0c0.2,0,0.4-0.2,0.5-0.4c0.1-0.3-0.1-0.6-0.4-0.6c-2.3-0.6-4.7-1-7.1-1.4c-3.1-0.5-6.3-0.7-9.5-0.8   c-3.2-0.1-6.4,0.1-9.5,0.4c-2.2,0.2-4.4,0.6-6.6,1c-0.3,0.1-0.5,0.3-0.4,0.6C12.4,34,12.6,34.2,12.9,34.1z"></path><path d="M12.9,39.8c2.1-0.4,4.3-0.8,6.5-1c3.1-0.3,6.3-0.5,9.4-0.4c3.1,0.1,6.3,0.3,9.4,0.8c2.4,0.3,4.7,0.8,7.1,1.4   c0,0,0.1,0,0.1,0c0.2,0,0.4-0.2,0.5-0.4c0.1-0.3-0.1-0.6-0.4-0.6c-2.3-0.6-4.7-1-7.1-1.4c-3.1-0.5-6.3-0.7-9.5-0.8   c-3.2-0.1-6.4,0.1-9.5,0.4c-2.2,0.2-4.4,0.6-6.6,1c-0.3,0.1-0.5,0.3-0.4,0.6C12.4,39.7,12.6,39.9,12.9,39.8z"></path><path d="M12.9,45.5c2.1-0.4,4.3-0.8,6.5-1c3.1-0.3,6.3-0.5,9.4-0.4c3.1,0.1,6.3,0.3,9.4,0.8c2.4,0.3,4.7,0.8,7.1,1.4   c0,0,0.1,0,0.1,0c0.2,0,0.4-0.2,0.5-0.4c0.1-0.3-0.1-0.6-0.4-0.6c-2.3-0.6-4.7-1-7.1-1.4c-3.1-0.5-6.3-0.7-9.5-0.8   c-3.2-0.1-6.4,0.1-9.5,0.4c-2.2,0.2-4.4,0.6-6.6,1c-0.3,0.1-0.5,0.3-0.4,0.6C12.4,45.4,12.6,45.6,12.9,45.5z"></path><path d="M12.9,51.2c2.1-0.4,4.3-0.8,6.5-1c3.1-0.3,6.3-0.5,9.4-0.4c3.1,0.1,6.3,0.3,9.4,0.8c2.4,0.3,4.7,0.8,7.1,1.4   c0,0,0.1,0,0.1,0c0.2,0,0.4-0.2,0.5-0.4c0.1-0.3-0.1-0.6-0.4-0.6c-2.3-0.6-4.7-1-7.1-1.4c-3.1-0.5-6.3-0.7-9.5-0.8   c-3.2-0.1-6.4,0.1-9.5,0.4c-2.2,0.2-4.4,0.6-6.6,1c-0.3,0.1-0.5,0.3-0.4,0.6C12.4,51.1,12.6,51.2,12.9,51.2z"></path><path d="M12.9,56.9c2.1-0.4,4.3-0.8,6.5-1c3.1-0.3,6.3-0.5,9.4-0.4c3.1,0.1,6.3,0.3,9.4,0.8c2.4,0.3,4.7,0.8,7.1,1.4   c0,0,0.1,0,0.1,0c0.2,0,0.4-0.2,0.5-0.4c0.1-0.3-0.1-0.6-0.4-0.6c-2.3-0.6-4.7-1-7.1-1.4c-3.1-0.5-6.3-0.7-9.5-0.8   c-3.2-0.1-6.4,0.1-9.5,0.4c-2.2,0.2-4.4,0.6-6.6,1c-0.3,0.1-0.5,0.3-0.4,0.6C12.4,56.7,12.6,56.9,12.9,56.9z"></path><path d="M12.9,62.6c2.1-0.4,4.3-0.8,6.5-1c3.1-0.3,6.3-0.5,9.4-0.4c3.1,0.1,6.3,0.3,9.4,0.8c2.4,0.3,4.7,0.8,7.1,1.4   c0,0,0.1,0,0.1,0c0.2,0,0.4-0.2,0.5-0.4c0.1-0.3-0.1-0.6-0.4-0.6c-2.3-0.6-4.7-1-7.1-1.4c-3.1-0.5-6.3-0.7-9.5-0.8   c-3.2-0.1-6.4,0.1-9.5,0.4c-2.2,0.2-4.4,0.6-6.6,1c-0.3,0.1-0.5,0.3-0.4,0.6C12.4,62.4,12.6,62.6,12.9,62.6z"></path><path d="M12.9,68.3c2.1-0.4,4.3-0.8,6.5-1c3.1-0.3,6.3-0.5,9.4-0.4c3.1,0.1,6.3,0.3,9.4,0.8c2.4,0.3,4.7,0.8,7.1,1.4   c0,0,0.1,0,0.1,0c0.2,0,0.4-0.2,0.5-0.4c0.1-0.3-0.1-0.6-0.4-0.6c-2.3-0.6-4.7-1-7.1-1.4c-3.1-0.5-6.3-0.7-9.5-0.8   c-3.2-0.1-6.4,0.1-9.5,0.4c-2.2,0.2-4.4,0.6-6.6,1c-0.3,0.1-0.5,0.3-0.4,0.6C12.4,68.1,12.6,68.3,12.9,68.3z"></path><path d="M12.9,73.9c2.1-0.4,4.3-0.8,6.5-1c3.1-0.3,6.3-0.5,9.4-0.4c3.1,0.1,6.3,0.3,9.4,0.8c2.4,0.3,4.7,0.8,7.1,1.4   c0,0,0.1,0,0.1,0c0.2,0,0.4-0.2,0.5-0.4c0.1-0.3-0.1-0.6-0.4-0.6c-2.3-0.6-4.7-1-7.1-1.4c-3.1-0.5-6.3-0.7-9.5-0.8   c-3.2-0.1-6.4,0.1-9.5,0.4c-2.2,0.2-4.4,0.6-6.6,1c-0.3,0.1-0.5,0.3-0.4,0.6C12.4,73.8,12.6,74,12.9,73.9z"></path><path d="M12.9,79.6c2.1-0.4,4.3-0.8,6.5-1c3.1-0.3,6.3-0.5,9.4-0.4c3.1,0.1,6.3,0.3,9.4,0.8c2.4,0.3,4.7,0.8,7.1,1.4   c0,0,0.1,0,0.1,0c0.2,0,0.4-0.2,0.5-0.4c0.1-0.3-0.1-0.6-0.4-0.6c-2.3-0.6-4.7-1-7.1-1.4c-3.1-0.5-6.3-0.7-9.5-0.8   c-3.2-0.1-6.4,0.1-9.5,0.4c-2.2,0.2-4.4,0.6-6.6,1c-0.3,0.1-0.5,0.3-0.4,0.6C12.4,79.5,12.6,79.7,12.9,79.6z"></path><path d="M12.9,85.3c2.1-0.4,4.3-0.8,6.5-1c3.1-0.3,6.3-0.5,9.4-0.4c3.1,0.1,6.3,0.3,9.4,0.8c2.4,0.3,4.7,0.8,7.1,1.4   c0,0,0.1,0,0.1,0c0.2,0,0.4-0.2,0.5-0.4c0.1-0.3-0.1-0.6-0.4-0.6c-2.3-0.6-4.7-1-7.1-1.4c-3.1-0.5-6.3-0.7-9.5-0.8   c-3.2-0.1-6.4,0.1-9.5,0.4c-2.2,0.2-4.4,0.6-6.6,1c-0.3,0.1-0.5,0.3-0.4,0.6C12.4,85.2,12.6,85.4,12.9,85.3z"></path><path d="M99,34.4h-3.6v-1c0-0.2-0.2-0.4-0.4-0.5l-1.3-0.3c-0.7-0.2-1.5-0.4-2.2-0.5c-0.2-2.1-0.4-2.2-0.7-2.3   c-3.3-0.8-6.6-1.3-9.9-1.7c-1.3-0.1-2.5-0.2-3.8-0.3L98.9,6C98.9,5.9,99,5.8,99,5.7l0.5-3.6c0,0,0,0,0,0c0,0,0,0,0,0c0,0,0,0,0-0.1   c0-0.1,0-0.2-0.1-0.2c0,0,0,0,0-0.1l-1.5-1.5c0,0,0,0-0.1,0C97.7,0.1,97.6,0,97.5,0c0,0,0,0-0.1,0c0,0,0,0,0,0l-3.6,0.5   c-0.1,0-0.2,0.1-0.3,0.1l-27,27.2c-1.8,0.1-3.7,0.3-5.5,0.6c-3.3,0.5-6.6,1.2-9.9,2.1c-0.2,0-0.3,0.2-0.4,0.4L50,33.5l-0.8-2.7   c0-0.2-0.2-0.3-0.4-0.4c-3.2-0.9-6.5-1.6-9.9-2.1c-3.3-0.5-6.7-0.7-10-0.8c-3.3-0.1-6.7,0.1-10,0.4c-3.3,0.4-6.7,0.9-9.9,1.7   c-0.3,0.1-0.5,0.1-0.7,2.3c-0.7,0.2-1.5,0.3-2.2,0.5L5,32.8c-0.2,0.1-0.4,0.3-0.4,0.5v1H1c-0.6,0-1,0.5-1,1V99   c0,0.3,0.1,0.6,0.4,0.8C0.6,99.9,0.8,100,1,100c0.1,0,0.2,0,0.2,0l2.2-0.6c14.4-3.6,29.6-3.6,44,0l2.2,0.6c0.2,0,0.3,0,0.5,0   l2.2-0.6c14.4-3.6,29.6-3.6,44,0l2.2,0.6c0.3,0.1,0.6,0,0.9-0.2c0.2-0.2,0.4-0.5,0.4-0.8V35.4C100,34.8,99.5,34.4,99,34.4z    M5.6,93.2L6.5,93c3.4-0.9,6.9-1.7,10.5-2.1c7-0.9,14.2-0.9,21.2,0c3.4,0.5,6.9,1.2,10.2,2.1l0.6,1.2l-0.1,0c-3.5-1-7-1.7-10.6-2.2   c-3.5-0.5-7.1-0.7-10.7-0.7s-7.2,0.2-10.7,0.7c-3.6,0.5-7.1,1.2-10.6,2.2l-0.6,0.2V93.2z M51.6,92.9c3.4-0.9,6.8-1.6,10.2-2.1   c7-0.9,14.2-0.9,21.2,0c3.5,0.5,7,1.2,10.5,2.1l0.9,0.2v1L93.8,94c-3.5-1-7-1.7-10.6-2.2c-7.1-0.9-14.4-0.9-21.5,0   c-3.6,0.5-7.1,1.2-10.6,2.2l-0.1,0L51.6,92.9z M93.5,33.5l0.9,0.2v58.4L93.8,92c-3.5-1-7-1.7-10.6-2.2c-7.1-0.9-14.4-0.9-21.5,0   c-3.3,0.4-6.5,1.1-9.7,1.9l0.4-0.9c3.1-0.8,5.5-1.5,8.7-2c3.3-0.5,6.6-0.7,9.9-0.8c3.3-0.1,6.6,0.1,9.9,0.4   c3.3,0.3,6.6,0.9,9.8,1.7c0.2,0,0.3,0,0.5-0.1c0.3-0.2,0.5-0.4,0.7-9.6C92,75.1,92,67.9,92,60.1c0-7.9-0.1-15.1-0.2-20.5   c-0.1-3-0.1-5.1-0.2-6.6C92.3,33.2,92.9,33.3,93.5,33.5z M98,5.4L71.8,31.7l0.3-1.9l2.7-2.7L98.3,3.5L98,5.4z M64.1,35l0.5,0.5   l-0.9,0.4L64.1,35z M65.6,35.1l-1-1l2.2-5l2.4-0.3c0.2,0,0.5,0,0.7,0l1.1,1.1l-0.4,3L65.6,35.1z M97.4,1.2l0.8,0.8L84.9,15.5   L71.6,28.9l-0.8-0.8l13.3-13.4L97.4,1.2z M94.1,1.5L96,1.2L72.5,24.9l-2.7,2.7l-0.7,0.1c-0.4,0-0.7,0-1.1,0.1L94.1,1.5z M51.7,31.4   c3.1-0.8,6.3-1.5,9.5-2c1.5-0.2,3.1-0.4,4.6-0.5l-1.5,3.3c-1,0.1-1.9,0.2-2.8,0.3c-2.4,0.3-4.8,0.8-7.1,1.4   c-0.3,0.1-0.4,0.3-0.4,0.6c0.1,0.2,0.3,0.4,0.5,0.4c0,0,0.1,0,0.1,0c2.3-0.6,4.7-1,7.1-1.4c0.7-0.1,1.5-0.2,2.2-0.2l-1.6,3.5   c-0.1,0.2,0,0.4,0.1,0.6c0.1,0.1,0.2,0.2,0.4,0.2c0.1,0,0.1,0,0.2,0l8.4-3.8c0,0,0-0.1,0.1-0.1c0,0,0.1,0,0.1,0l0.8-0.8   c0,0,0,0,0.1,0c2.7,0,5.4,0.1,8,0.4c2.2,0.2,4.4,0.6,6.5,1c0,0,0.1,0,0.1,0c0.2,0,0.5-0.2,0.5-0.4c0.1-0.3-0.1-0.5-0.4-0.6   c-2.2-0.4-4.4-0.8-6.6-1c-2.4-0.3-4.8-0.4-7.2-0.4l3-3c1.6,0.1,3.1,0.1,4.7,0.3c3.2,0.3,6.4,0.9,9.5,1.6c0.1,0.5,0.3,2.4,0.4,9   C91,45,91,52.3,91,60.1c0,7.8-0.1,15-0.2,20.4c-0.1,5.8-0.3,7.9-0.4,8.6c-3.1-0.7-6.3-1.2-9.5-1.6c-3.3-0.4-6.7-0.5-10-0.4   c-3.3,0.1-6.7,0.3-10,0.8c-3.4,0.5-5.9,1.2-9.1,2.1c-0.1,0-0.3,0.1-0.3,0.3l-1.1,2.3V35.5L51.7,31.4z M9.2,39.6   c0.1-6.6,0.3-8.5,0.4-9c3.1-0.7,6.3-1.3,9.5-1.6c3.3-0.4,6.6-0.5,9.9-0.4c3.3,0.1,6.6,0.3,9.9,0.8c3.2,0.5,6.4,1.1,9.5,2l1.2,4.1   v57.1l-1.1-2.3c-0.1-0.1-0.2-0.2-0.3-0.3c-3.2-0.9-5.7-1.6-9.1-2.1c-3.3-0.5-6.7-0.7-10-0.8c-0.5,0-1,0-1.4,0   c-2.9,0-5.7,0.2-8.6,0.5c-3.2,0.3-6.3,0.9-9.5,1.6c-0.1-0.7-0.2-2.7-0.4-8.6C9,75.2,9,67.9,9,60.1S9,45.1,9.2,39.6z M5.6,33.7   l0.9-0.2c0.6-0.2,1.2-0.3,1.9-0.4c-0.1,1.4-0.1,3.5-0.2,6.6C8,45,8,52.3,8,60.1S8,75.2,8.1,80.5c0.2,9.2,0.4,9.3,0.7,9.6   c0.1,0.1,0.3,0.1,0.5,0.1c3.2-0.8,6.5-1.3,9.8-1.7c3.3-0.4,6.6-0.5,9.9-0.4c3.3,0.1,6.6,0.3,9.9,0.8c3.2,0.5,5.7,1.1,8.7,2l0.4,0.9   c-3.2-0.8-6.5-1.5-9.7-1.9c-3.5-0.5-7.1-0.7-10.7-0.7s-7.2,0.2-10.7,0.7C13.3,90.3,9.7,91,6.2,92l-0.6,0.2V33.7z M98,97.7l-1-0.2   c-14.7-3.7-30.3-3.7-45,0l-2,0.5l-2-0.5c-7.4-1.8-14.9-2.8-22.5-2.8c-7.6,0-15.1,0.9-22.5,2.8l-1,0.2V36.4h2.6v56.4v2.1   c0,0.2,0.1,0.3,0.2,0.4c0.1,0.1,0.3,0.1,0.4,0.1L6.5,95c3.4-0.9,6.9-1.7,10.5-2.1c7-0.9,14.2-0.9,21.2,0c3.5,0.5,7,1.2,10.5,2.1   l1.3,0.3c0,0,0,0,0.1,0c0,0,0,0,0.1,0s0,0,0.1,0c0,0,0,0,0.1,0l1.3-0.3c3.4-0.9,6.9-1.7,10.5-2.1c7-0.9,14.2-0.9,21.2,0   c3.5,0.5,7,1.2,10.5,2.1l1.3,0.3c0,0,0.1,0,0.1,0c0.1,0,0.2,0,0.3-0.1c0.1-0.1,0.2-0.2,0.2-0.4v-2.1V36.4H98V97.7z"></path></g></svg>