<svg height='100px' width='100px'  fill="#000000" xmlns="http://www.w3.org/2000/svg" viewBox="0 0 68 68" x="0px" y="0px"><path fill="#000000" d="M444,539.089107 C445.865765,538.385172 447.887901,538 450,538 C452.112099,538 454.134235,538.385172 456,539.089107 L456,570.910893 C454.134235,571.614828 452.112099,572 450,572 C447.887901,572 445.865765,571.614828 444,570.910893 L444,539.089107 Z M440,541.250797 L440,568.749203 C435.757331,565.658139 433,560.651074 433,555 C433,549.348926 435.757331,544.341861 440,541.250797 Z M460,541.250797 C464.242669,544.341861 467,549.348926 467,555 C467,560.651074 464.242669,565.658139 460,568.749203 L460,541.250797 Z M444,604 L444,576.313827 C445.946459,576.107597 447.947059,576 450,576 C452.052688,576 454.053294,576.107727 456,576.314207 L456,604 L444,604 Z M429,604 L429,580.153471 C432.412811,578.714758 436.084985,577.598673 440,576.887489 L440,604 L429,604 Z M425,604 L418,604 C416.895431,604 416,603.104569 416,602 L416,593.006505 C416,590.134322 417.764849,586.727274 420.126681,585.132762 C420.533649,584.807812 421.223117,584.310039 422.185104,583.695339 C423.048671,583.143528 423.98752,582.592938 425,582.052893 L425,604 Z M471,580.155431 L471,604 L460,604 L460,576.888405 C463.913756,577.599936 467.585977,578.716347 471,580.155431 Z M475,582.054153 C476.019156,582.597404 476.964017,583.151352 477.832887,583.706528 C478.808797,584.330099 479.504702,584.833457 479.910085,585.158393 C482.238364,586.788512 484,590.163359 484,593.006505 L484,602 C484,603.104569 483.104569,604 482,604 L475,604 L475,582.054153 Z M471,580.155431 L471,537 C471,536.447715 471.447715,536 472,536 L474,536 C474.552285,536 475,536.447715 475,537 L475,582.054153 C474.03826,581.541508 473.01036,581.038389 471.917723,580.552753 C471.613925,580.417726 471.308013,580.285265 471,580.155431 Z M425,582.052893 L425,537 C425,536.447715 425.447715,536 426,536 L428,536 C428.552285,536 429,536.447715 429,537 L429,580.153476 C428.695684,580.281765 428.39343,580.412619 428.093251,580.54598 C426.99627,581.033335 425.964711,581.538328 425,582.052893 Z M460,576.888405 C458.693381,576.650859 457.359841,576.45844 456,576.314207 L456,570.910893 C457.436066,570.369079 458.779494,569.638421 460,568.749203 L460,576.888405 Z M456,539.089107 L456,537 C456,536.447715 456.447715,536 457,536 L459,536 C459.552285,536 460,536.447715 460,537 L460,541.250797 C458.779494,540.361579 457.436066,539.630921 456,539.089107 Z M444,576.313827 C442.640032,576.457918 441.306494,576.650158 440,576.887489 L440,568.749203 C441.220506,569.638421 442.563934,570.369079 444,570.910893 L444,576.313827 Z M440,541.250797 L440,537 C440,536.447715 440.447715,536 441,536 L443,536 C443.552285,536 444,536.447715 444,537 L444,539.089107 C442.563934,539.630921 441.220506,540.361579 440,541.250797 Z" transform="translate(-416 -536)"></path></svg>