<svg height='100px' width='100px'  fill="#000000" xmlns:x="http://ns.adobe.com/Extensibility/1.0/" xmlns:i="http://ns.adobe.com/AdobeIllustrator/10.0/" xmlns:graph="http://ns.adobe.com/Graphs/1.0/" xmlns="http://www.w3.org/2000/svg" xmlns:xlink="http://www.w3.org/1999/xlink" version="1.1" x="0px" y="0px" viewBox="0 0 100 100" style="enable-background:new 0 0 100 100;" xml:space="preserve"><g><g i:extraneous="self"><g><path d="M5273.1,2400.1v-2c0-2.8-5-4-9.7-4s-9.7,1.3-9.7,4v2c0,1.8,0.7,3.6,2,4.9l5,4.9c0.3,0.3,0.4,0.6,0.4,1v6.4     c0,0.4,0.2,0.7,0.6,0.8l2.9,0.9c0.5,0.1,1-0.2,1-0.8v-7.2c0-0.4,0.2-0.7,0.4-1l5.1-5C5272.4,2403.7,5273.1,2401.9,5273.1,2400.1z      M5263.4,2400c-4.8,0-7.4-1.3-7.5-1.8v0c0.1-0.5,2.7-1.8,7.5-1.8c4.8,0,7.3,1.3,7.5,1.8C5270.7,2398.7,5268.2,2400,5263.4,2400z"></path><path d="M5268.4,2410.3c-0.6,0-1,0.4-1,1c0,0.6,0.4,1,1,1h4.3c0.6,0,1-0.4,1-1c0-0.6-0.4-1-1-1H5268.4z"></path><path d="M5272.7,2413.7h-4.3c-0.6,0-1,0.4-1,1c0,0.6,0.4,1,1,1h4.3c0.6,0,1-0.4,1-1C5273.7,2414.1,5273.3,2413.7,5272.7,2413.7z"></path><path d="M5272.7,2417h-4.3c-0.6,0-1,0.4-1,1c0,0.6,0.4,1,1,1h4.3c0.6,0,1-0.4,1-1C5273.7,2417.5,5273.3,2417,5272.7,2417z"></path></g><g><path d="M22.7,49.9L7.6,65v-4.8c0-1.4-1.1-2.5-2.5-2.5s-2.5,1.1-2.5,2.5v10.9c0,1.4,1.1,2.5,2.5,2.5H16c0.7,0,1.3-0.3,1.8-0.7     c0.5-0.5,0.7-1.1,0.7-1.8c0-1.4-1.1-2.5-2.5-2.5h-4.8l15.1-15.1c1-1,1-2.6,0-3.6S23.7,48.9,22.7,49.9z"></path><path d="M55.9,80.2l-3.4,3.4V56.1c0-1.4-1.1-2.5-2.5-2.5s-2.5,1.1-2.5,2.5v27.5l-3.4-3.4c-1-1-2.6-1-3.6,0c-1,1-1,2.6,0,3.6     l7.7,7.7c1,1,2.6,1,3.6,0l7.7-7.7c0.5-0.5,0.7-1.1,0.7-1.8c0-0.7-0.2-1.3-0.7-1.8C58.5,79.2,56.9,79.2,55.9,80.2z"></path><path d="M96.8,58.4c-0.5-0.5-1.1-0.7-1.8-0.7c-1.4,0-2.5,1.1-2.5,2.5V65L77.3,49.9c-1-1-2.6-1-3.6,0c-1,1-1,2.6,0,3.6l15.1,15.1     H84c-1.4,0-2.5,1.1-2.5,2.5c0,1.4,1.1,2.5,2.5,2.5H95c1.4,0,2.5-1.1,2.5-2.5V60.2C97.5,59.5,97.2,58.9,96.8,58.4z"></path><path d="M50,44.6c17.2,0,27.8-12,30.6-15.7c1.3-1.7,1.3-4,0-5.6C77.8,19.7,67.2,7.7,50,7.7c-17.2,0-27.8,12-30.6,15.7     c-1.3,1.7-1.3,4,0,5.6C22.2,32.7,32.8,44.6,50,44.6z M66.5,17.9c4.7,2.9,7.9,6.3,9.5,8.3c-1.6,2-4.8,5.4-9.5,8.3     c1.3-2.6,2-5.4,2-8.3C68.5,23.3,67.8,20.4,66.5,17.9z M50,13.1c7.2,0,13,5.9,13,13s-5.9,13-13,13c-7.2,0-13-5.9-13-13     S42.8,13.1,50,13.1z M33.5,17.9c-1.3,2.6-2,5.4-2,8.3s0.7,5.7,2,8.3c-4.7-2.9-7.9-6.3-9.5-8.3C25.6,24.2,28.8,20.8,33.5,17.9z"></path><path d="M50,35c4.9,0,8.9-4,8.9-8.9c0-4.9-4-8.9-8.9-8.9c-1.2,0-2.4,0.2-3.5,0.7c1.5,0.5,2.6,1.9,2.6,3.6c0,2.1-1.7,3.7-3.7,3.7     c-1.7,0-3.1-1.1-3.5-2.6c-0.5,1.1-0.7,2.2-0.7,3.5C41.1,31.1,45.1,35,50,35z"></path></g></g></g></svg>