<svg height='100px' width='100px'  fill="#000000" xmlns="http://www.w3.org/2000/svg" xmlns:xlink="http://www.w3.org/1999/xlink" version="1.1" x="0px" y="0px" viewBox="0 0 100 100" enable-background="new 0 0 100 100" xml:space="preserve"><g><path fill="#000000" d="M87.002,80.538c-4.232-14.56-12.053-15.062-13.736-15.454c-0.195-0.045-0.393-0.088-0.592-0.126   c-5.108-4.72-1.622-24.423-1.622-24.423c0-30.032-20.314-27.078-20.314-27.078c-0.249-0.013-0.494-0.023-0.736-0.032   c-0.242,0.008-0.488,0.019-0.737,0.032c0,0-20.314-2.955-20.314,27.078c0,0,3.486,19.703-1.621,24.423   c-0.201,0.038-0.397,0.081-0.592,0.126c-1.685,0.393-9.504,0.895-13.738,15.454c-0.573,1.979-0.371,4.127,0.562,5.891   c3.467,6.555,21.702,8.573,36.44,8.571c14.739,0.004,32.974-2.017,36.439-8.571C87.373,84.665,87.574,82.518,87.002,80.538z    M66.107,39.271c0.061,0.011,0.119,0.03,0.174,0.056c0.765,0.356,1.092,2.138,0.727,4.169c-0.275,1.559-0.887,2.841-1.532,3.391   c-0.259,0.218-0.522,0.32-0.774,0.275c-0.145-0.023-0.273-0.094-0.389-0.202c-1.428,4.435-4.155,8.854-7.598,11.512   c-2.006,1.55-4.258,2.499-6.636,2.499c-2.393,0-4.658-0.962-6.675-2.529c-3.423-2.658-6.136-7.063-7.557-11.481   c-0.116,0.107-0.246,0.178-0.388,0.202c-0.293,0.053-0.604-0.095-0.9-0.392c-0.601-0.601-1.15-1.817-1.41-3.274   c-0.343-1.917-0.071-3.611,0.604-4.097c0.092-0.066,0.191-0.11,0.297-0.128c0.243-0.042,0.496,0.051,0.744,0.251v0.001l0,0   c0-0.001,0.001-0.021,0.007-0.061c0.085-0.833,1.195-10.173,8.185-9.526l21.387,11.008 M63.096,65.554   c-1.837,2.352-7.005,5.746-13.094,5.746c-6.09,0-11.257-3.395-13.096-5.746c-0.392-0.502-0.635-1.033-0.701-1.582   c0-0.001,0-0.001,0-0.001c0.092-0.031,0.304-0.106,0.58-0.233c0.114-0.052,0.24-0.111,0.371-0.181   c1.113-0.582,2.75-1.804,2.75-3.948c0.002,0,0.002,0,0.002,0c1.758,1.742,3.712,3.121,5.8,3.948   c1.403,0.557,2.867,0.866,4.372,0.866c1.506,0,2.969-0.31,4.374-0.866c2.068-0.819,4.006-2.181,5.75-3.9   c0.014,0.006,0.023,0.011,0.035,0.017c0.045,2.764,2.816,3.975,3.566,4.251c-0.002,0.018-0.003,0.031-0.004,0.049   C63.734,64.521,63.489,65.052,63.096,65.554z"></path><path fill="#000000" d="M75.592,15.646L50.533,5.22c-0.295-0.293-0.772-0.293-1.067,0L24.408,15.646   c-0.294,0.294-0.294,0.772,0,1.067l1.869,1.08l-0.118,1.65c-0.641,0.108-1.13,0.665-1.13,1.337c0,0.605,0.395,1.118,0.942,1.292   l-1.094,15.31l1.509,4.526l1.509-4.526l-1.094-15.31c0.547-0.175,0.942-0.687,0.942-1.292c0-0.672-0.489-1.229-1.13-1.337   l-0.108-1.518l2.614,1.514l0.107,0.061l2.075,1.202l-0.566,7.23l15.716,5.805c3.55,1.395,3.55,1.395,7.101,0l14.693-5.213   l-0.713-7.147l2.22-1.285l1.13-0.653l4.711-2.726C75.887,16.418,75.887,15.941,75.592,15.646z"></path></g></svg>