<svg height='100px' width='100px'  fill="#000000" xmlns="http://www.w3.org/2000/svg" xmlns:xlink="http://www.w3.org/1999/xlink" version="1.1" x="0px" y="0px" viewBox="0 0 100 100" style="enable-background:new 0 0 100 100;" xml:space="preserve"><path d="M66,69H34c-0.6,0-1,0.4-1,1v4c0,0.6,0.4,1,1,1h32c0.6,0,1-0.4,1-1v-4C67,69.4,66.6,69,66,69z M65,73H35v-2h30V73z M66,62H34  c-0.6,0-1,0.4-1,1v4c0,0.6,0.4,1,1,1h32c0.6,0,1-0.4,1-1v-4C67,62.4,66.6,62,66,62z M65,66H35v-2h30V66z M35,53h2v2c0,1.1,0.9,2,2,2  h2c1.1,0,2-0.9,2-2v-2h2c1.1,0,2-0.9,2-2v-2c0-1.1-0.9-2-2-2h-2v-2c0-1.1-0.9-2-2-2h-2c-1.1,0-2,0.9-2,2v2h-2c-1.1,0-2,0.9-2,2v2  C33,52.1,33.9,53,35,53z M35,49h4v-4h2v4h4v2h-4v4h-2v-4h-4V49z M61.5,51.7c0-2.2-5.3-1-5.3-4.5c0-1.5,1.1-2.5,2.9-2.7v-1.8l1.2,0  v1.8c1.1,0.1,2.1,0.5,2.9,1L62.6,47c-1.1-0.6-2.1-0.9-2.9-0.9c-1,0-1.6,0.4-1.6,1c0,2.1,5.3,1,5.3,4.5c0,1.6-1.2,2.6-3,2.8v2h-1.2  v-2c-1.3-0.1-2.6-0.7-3.5-1.5l0.7-1.4c1,0.9,2.3,1.4,3.3,1.4C60.9,52.9,61.5,52.5,61.5,51.7z M72,24H60v-4c0-1.1-0.9-2-2-2H42  c-1.1,0-2,0.9-2,2v4H28c-1.1,0-2,0.9-2,2v54c0,1.1,0.9,2,2,2h44c1.1,0,2-0.9,2-2V26C74,24.9,73.1,24,72,24z M42,26v-6h16v6h14v10H28  V26H42z M28,80V38h44v42H28z M53,25h-6v-2h6V25z"></path></svg>