<svg height='100px' width='100px'  fill="#000000" xmlns="http://www.w3.org/2000/svg" xmlns:xlink="http://www.w3.org/1999/xlink" version="1.1" x="0px" y="0px" viewBox="0 0 90 90" enable-background="new 0 0 90 90" xml:space="preserve"><path d="M85.119,46.063c-4.033-20.744-26.506-14.98-34.428-12.391c-7.042,2.306-8.353-2.158-8.353-2.158  c-1.936-3.604-2.696-17.036-2.956-30.415h-8.936c-0.008,8.451,0.113,17.203,0.511,24.22c1.152,20.311,13.396,20.744,5.907,34.572  c-7.49,13.828-23.622,11.234-29.671,17.286c-1.159,1.157-2.069,3.144-2.793,5.587l6.797,6.139  c1.954-8.529,12.272-5.967,12.272-5.967C67.691,97.482,89.15,66.803,85.119,46.063z M47.436,38.796c2.086,0,3.783,1.692,3.783,3.785  c0,2.087-1.697,3.78-3.783,3.78c-2.089,0-3.783-1.693-3.783-3.78C43.653,40.489,45.345,38.796,47.436,38.796z M33.506,18.236  c0-1.163,0.943-2.104,2.104-2.104c1.163,0,2.104,0.941,2.104,2.104c0,1.163-0.941,2.104-2.104,2.104  C34.449,20.34,33.506,19.399,33.506,18.236z M39.27,39.136c-1.348,0-2.442-1.094-2.442-2.44c0-1.35,1.094-2.441,2.442-2.441  s2.441,1.092,2.441,2.441C41.711,38.042,40.618,39.136,39.27,39.136z M72.502,68.408C66.48,75.745,57.338,82.29,41.694,81.447  c-15.643-0.844-9.216-8.063-5.284-11.204c5.677-4.532,6.921-10.069,6.921-10.069s0.597-2.963,3.479-3.371  c2.885-0.412,4.168,2.518,6.813,2.374s3.053-1.899,7.002-2.415c3.947-0.518,4.855,2.982,7.498,2.699  c2.641-0.284,3.783-3.641,6.715-3.714C77.766,55.675,78.525,61.07,72.502,68.408z"></path></svg>