<svg height='100px' width='100px'  fill="#000000" xmlns="http://www.w3.org/2000/svg" xmlns:xlink="http://www.w3.org/1999/xlink" version="1.1" x="0px" y="0px" viewBox="0 0 100 100" style="enable-background:new 0 0 100 100;" xml:space="preserve"><g><path d="M49.8,49.7c0,3.3-6.7,6-15,6c-8.3,0-15-2.7-15-6s6.7-6,15-6C43.1,43.7,49.8,46.4,49.8,49.7z M34.8,58.7c-8.3,0-15-2.7-15-6   v6c0,3.3,6.7,6,15,6c8.3,0,15-2.7,15-6v-6C49.8,56,43.1,58.7,34.8,58.7z M34.8,67.7c-8.3,0-15-2.7-15-6v6c0,3.3,6.7,6,15,6   c8.3,0,15-2.7,15-6v-6C49.8,65,43.1,67.7,34.8,67.7z M34.8,76.7c-8.3,0-15-2.7-15-6v6c0,3.3,6.7,6,15,6c8.3,0,15-2.7,15-6v-6   C49.8,74,43.1,76.7,34.8,76.7z"></path><g><path d="M47.3,24.1c0-2.1,0.7-3.9,2.1-5.4c1.4-1.5,3.2-2.2,5.5-2.2c2.3,0,4.1,0.7,5.5,2.2c1.4,1.5,2.1,3.3,2.1,5.4v1.9    c0,2.1-0.7,3.9-2.1,5.4c-1.4,1.4-3.2,2.2-5.5,2.2c-2.3,0-4.2-0.7-5.6-2.2c-1.4-1.4-2.1-3.2-2.1-5.4V24.1z M51,26.1    c0,1.2,0.3,2.3,1,3.2c0.7,0.9,1.7,1.3,2.9,1.3c1.2,0,2.2-0.4,2.9-1.3c0.7-0.9,1-1.9,1-3.2v-1.9c0-1.2-0.3-2.3-1-3.2    c-0.7-0.9-1.6-1.3-2.9-1.3c-1.3,0-2.2,0.4-2.9,1.3c-0.7,0.9-1,1.9-1,3.2V26.1z M56.3,51.1l-2.7-1.7l17.9-28.7l2.8,1.7L56.3,51.1z     M65.1,44.8c0-2.1,0.7-3.9,2.1-5.4c1.4-1.5,3.2-2.2,5.5-2.2c2.3,0,4.1,0.7,5.5,2.2c1.4,1.5,2.1,3.3,2.1,5.4v2c0,2.2-0.7,4-2.1,5.4    c-1.4,1.4-3.2,2.2-5.5,2.2c-2.3,0-4.2-0.7-5.6-2.2c-1.4-1.4-2.1-3.2-2.1-5.4V44.8z M68.8,46.8c0,1.3,0.3,2.3,1,3.2    c0.7,0.9,1.7,1.3,2.9,1.3c1.2,0,2.2-0.4,2.9-1.3c0.7-0.9,1-1.9,1-3.2v-2c0-1.2-0.3-2.3-1-3.2c-0.7-0.9-1.7-1.3-2.9-1.3    c-1.2,0-2.2,0.4-2.9,1.3c-0.7,0.9-1,1.9-1,3.2V46.8z"></path></g></g></svg>