<svg height='100px' width='100px'  fill="#000000" xmlns="http://www.w3.org/2000/svg" xmlns:xlink="http://www.w3.org/1999/xlink" version="1.1" x="0px" y="0px" viewBox="0 0 100 100" style="enable-background:new 0 0 100 100;" xml:space="preserve"><path d="M93.3,84H65.9V69c1.9,1,5.9,2.6,10.5,2.6c1.8,0,3.6-0.3,5.5-0.9c5-1.8,8.7-6.2,11-13c2.1-6.3,1.9-11.5-0.8-15.5  c-3.4-5.2-9.9-6.9-12.9-7.4c1.2-2.1,3-6.3,0.9-11.8c-2.2-6.1-9-6.4-12.8-5.7c-0.5-0.5-1.1-1-1.8-1.5c-2.5-1.7-5.7-2.2-8.7-1.5  c-2.8,0.7-5.2,2.4-6.6,4.9c-0.5,0.8-0.8,1.7-0.9,2.5c-3.3-0.8-7.7,1.5-9.5,2.6c-0.4-0.4-0.8-0.7-1.3-1c-1.6-1.7-3.8-2.6-6.1-2.3  c-3.1,0.3-6.2,2.4-7.9,5.3c-1.1,1.8-1.2,3.7-0.5,5.4c0,0.1-0.1,0.1-0.1,0.2c-4.3,0.1-6.5,3.4-7.1,4.5c-0.8,1.3-1,2.7-0.7,4  c-1.3,0.4-3.4,1.3-4.5,3.1c-0.8,1.4-0.9,3.1-0.2,5c0.4,1.1,1.1,1.8,1.8,2.2c-0.3,0.1-0.6,0.3-0.9,0.5c-3.8,2.2-6.6,8.8-5.6,13.4  c1.3,6,7.7,9.7,15.6,9.7c1.5,0,3-0.1,4.6-0.4V84H6.7c-0.6,0-1,0.4-1,1s0.4,1,1,1h86.6c0.6,0,1-0.4,1-1S93.9,84,93.3,84z M55.2,69.7  c-1.1,0.8-2.2,1.3-3.4,1.6c0,0,0,0,0,0C46,73,40.1,69.9,38.9,69.2v-9.1C43.3,67.2,48.6,69.7,55.2,69.7z M38.9,71.5  c1.8,0.9,5.4,2.3,9.5,2.3c0.9,0,1.9-0.1,2.8-0.3V84H38.9V71.5z M53.1,73c1.8-0.6,3.6-1.7,5.2-3.4c1.8-0.2,3.6-0.5,5.6-0.9V84H53.1  V73z M52,20.2c1.1-2,3-3.4,5.3-3.9c2.4-0.6,5-0.1,7.1,1.2c0.7,0.5,1.3,1,1.7,1.5c0.2,0.3,0.6,0.5,1,0.4c0.4-0.1,8.7-2.1,11,4.3  c2.4,6.6-1.4,11.1-1.6,11.3c-0.3,0.3-0.3,0.7-0.2,1s0.5,0.6,0.9,0.6c0.1,0,9.1,0.7,13.1,6.7c2.3,3.5,2.5,8.1,0.6,13.7  c-2.1,6.2-5.4,10.2-9.8,11.8c-6.7,2.4-14.1-1.4-15.3-2.1V56c1.5-1.5,6.4-6,10.5-4.5c0.4,0.1,0.8-0.1,1-0.4c0.1-0.4-0.1-0.8-0.4-1  c-4.2-1.6-8.7,1.7-11,3.8V27.5c0-0.6-0.4-1-1-1s-1,0.4-1,1v13c-1.4-2.9-3.6-6.3-6.9-7c-0.4-0.1-0.8,0.2-0.9,0.6  c-0.1,0.4,0.2,0.8,0.6,0.9c4,0.9,6.4,7.2,7.2,9.6v22c-13.3,2.8-19.7,0-25.1-10.8c0,0,0,0,0,0c0,0,0,0,0,0c-1.4-2.8-1.6-5.5-0.6-7.9  c2.3-5.8,10.3-8.7,10.4-8.8c0.3-0.1,0.5-0.3,0.6-0.6c0.1-0.3,0-0.6-0.1-0.9c-2.2-3.1-2.9-5.7-2.2-7.8c1-2.7,4.3-3.7,4.3-3.7  c0.3-0.1,0.5-0.3,0.7-0.6s0.1-0.6,0-0.9C51,23.3,51.1,21.8,52,20.2z M26.3,27.2c1.4-2.4,3.9-4.1,6.4-4.4c1.2-0.1,3,0.1,4.5,1.8  c0.1,0.1,0.1,0.1,0.2,0.2c0.6,0.4,1.2,0.9,1.5,1.3c0.3,0.4,0.9,0.5,1.3,0.2c1.7-1.2,6.6-3.7,9.1-2.6c0.1,0.3,0.1,0.6,0.2,0.9  c-1.4,0.6-3.7,1.9-4.6,4.5c-0.9,2.5-0.3,5.3,1.7,8.6c-1.8,0.8-5.3,2.6-7.9,5.4v-9.4c0-0.6-0.4-1-1-1s-1,0.4-1,1V46  c-0.2,0.4-0.4,0.8-0.6,1.2c0,0.1,0,0.2-0.1,0.2c0,0,0,0,0,0.1c-1,2.8-0.8,5.9,0.7,9v3.8c-1.4-2.9-3.6-6.3-6.9-7  c-0.4-0.1-0.8,0.2-0.9,0.6s0.2,0.8,0.6,0.9c4,0.9,6.4,7.2,7.2,9.6v4.8c-6.2,0.8-10.8,0-13.6-2.2c-2-1.6-3.1-3.9-3.3-7  c-0.7-9.8,7.3-13.4,7.7-13.6c0.3-0.1,0.5-0.4,0.6-0.6c0.1-0.3,0-0.6-0.1-0.8c-4.4-6.2-3.6-9.9-2.8-11.5c0,0,0.1-0.1,0.1-0.1  c0.2-0.5,0.5-0.7,0.5-0.7c0.3-0.3,0.4-0.8,0.2-1.2C25.4,30,25.4,28.6,26.3,27.2z M8.7,64.1c-0.8-3.7,1.5-9.5,4.6-11.2  c1.4-0.8,2.5-1.2,2.5-1.2c0.3-0.1,0.5-0.3,0.6-0.6c0.1-0.3,0-0.6-0.1-0.9c-0.3-0.4-0.7-0.6-1.1-0.8c-0.7-0.3-1.4-0.7-1.8-1.6  c-0.5-1.3-0.5-2.4,0-3.3c1.1-1.9,4.2-2.4,4.2-2.4c0.3-0.1,0.6-0.3,0.7-0.5s0.1-0.6,0-0.9c-0.5-1-0.5-2,0.2-3.2  c0.4-0.7,1.8-2.9,4.5-3.4c-0.6,2.3-0.5,6,2.9,11.1c-2.5,1.5-8.5,6-7.8,15c0.3,3.6,1.6,6.5,4,8.4c1.3,1.1,3,1.8,4.9,2.3  c0,0.1-0.1,0.2-0.1,0.3v0.7C18,73.5,10,70.2,8.7,64.1z M28.9,71.2c2.3,0.3,5,0.3,8,0V84h-8V71.2z"></path></svg>