<svg height='100px' width='100px'  fill="#000000" xmlns="http://www.w3.org/2000/svg" xmlns:xlink="http://www.w3.org/1999/xlink" xml:space="preserve" version="1.1" style="shape-rendering:geometricPrecision;text-rendering:geometricPrecision;image-rendering:optimizeQuality;" viewBox="0 0 850.04 670.17" x="0px" y="0px" fill-rule="evenodd" clip-rule="evenodd"><defs><style type="text/css">
   
    .fil0 {fill:#000000;fill-rule:nonzero}
   
  </style></defs><g><path class="fil0" d="M850.04 307.8c0,120.79 0,241.58 0,362.37 -204.81,0 -409.62,0 -614.43,0l0 -144.64c83.62,0 167.24,0 250.87,0l0 -73.08 -50.88 0 0 -144.65c138.14,0 276.3,0 414.44,0zm-700.27 361.25l0 -420.73 -149.77 0c143.36,-82.78 286.76,-165.48 430.08,-248.32l404.7 233.65 -71.24 0 -333.38 -192.48 -296.8 171.37 52.19 0 0 456.51 -35.78 0zm302.39 -34.66l0 -73.08 -180.77 0 0 73.08 180.77 0zm362.1 -73.08c-36.59,0 -73.18,0 -109.77,0l0 73.08 109.77 0 0 -73.08zm-145.55 0l-180.77 0 0 73.08 180.77 0 0 -73.08zm34.32 -35.78l0 -73.08c-60.26,0 -120.51,0 -180.77,0l0 73.08c60.26,0 120.51,0 180.77,0zm111.23 -73.08l-75.45 0 0 73.08 75.45 0 0 -73.08zm-153.55 -108.87l0 73.09c51.19,0 102.36,0 153.55,0l0 -73.09 -153.55 0zm-35.78 0l-153.55 0 0 73.09 153.55 0 0 -73.09z"></path></g></svg>