<svg height='100px' width='100px'  fill="#000000" xmlns="http://www.w3.org/2000/svg" xmlns:xlink="http://www.w3.org/1999/xlink" version="1.1" x="0px" y="0px" viewBox="0 0 100 100" style="enable-background:new 0 0 100 100;" xml:space="preserve"><g><path d="M71.8,75.3c-10-6.5-21-12.1-32.7-16.6v-15l4,1.7c0.1,0.1,0.3,0.1,0.4,0.1c0.4,0,0.8-0.2,0.9-0.6c0.2-0.5,0-1.1-0.5-1.3   L7.1,27.9c-0.5-0.2-1.1,0-1.3,0.5s0,1.1,0.5,1.3l2.8,1.2v18.8C6.7,49.2,5.3,49,5.3,49c-0.5-0.1-1.1,0.3-1.1,0.8   C4.1,50.4,4.4,50.9,5,51c0,0,1.5,0.2,4.1,0.8v21.9h-4c-0.6,0-1,0.4-1,1V95c0,0.6,0.4,1,1,1h5c0.6,0,1-0.4,1-1s-0.4-1-1-1h-4V75.7h3   v4.7c0,0.6,0.4,1,1,1h7.2h13H38c0.6,0,1-0.4,1-1v-4.7h10V94h-4.3v-5.1c0-0.6-0.4-1-1-1s-1,0.4-1,1V94h-4v-5.1c0-0.6-0.4-1-1-1   s-1,0.4-1,1V94h-4v-5.1c0-0.6-0.4-1-1-1s-1,0.4-1,1V94h-4v-5.1c0-0.6-0.4-1-1-1s-1,0.4-1,1V94h-4.4c-0.6,0-1,0.4-1,1s0.4,1,1,1H50   c0.6,0,1-0.4,1-1V74.7c0-0.6-0.4-1-1-1H39.1V60.8C50.4,65.3,61,70.7,70.7,77c0.2,0.1,0.4,0.2,0.5,0.2c0.3,0,0.6-0.2,0.8-0.5   C72.4,76.2,72.2,75.6,71.8,75.3z M23.1,79.4h-4.7V68c0.7-0.4,2.4-1.3,4.7-1.5C23.1,66.5,23.1,79.4,23.1,79.4z M25.1,79.4V66.5   c2.1,0.2,3.6,1,4.3,1.4v11.4L25.1,79.4L25.1,79.4z M37.1,79.4h-5.7V67.5c0-0.3-0.1-0.6-0.4-0.8c-0.1-0.1-2.6-2.1-6.9-2.2l0,0l0,0   c-0.1,0-0.1,0-0.2,0c-4.4,0-7,2.1-7.2,2.2c-0.2,0.2-0.4,0.5-0.4,0.8v11.9h-5.2V31.8l6.8,2.9L37,42.8L37.1,79.4L37.1,79.4z"></path><path d="M63.6,21.3c0.4,0.2,0.9,0.2,1.3-0.2c0.7-0.8,1.6-1.3,2.6-1.7c3.2-1,6.6,0.7,7.7,3.9s-0.7,6.6-3.9,7.7   c-0.3,0.1-0.5,0.2-0.8,0.2c-0.5,0.1-0.8,0.5-0.8,1s0.3,0.9,0.8,1c0.7,0.2,1.5,0.3,2.3,0.3c1,0,2.1-0.2,3.1-0.5   c5.2-1.7,8.1-7.4,6.4-12.6s-7.4-8.1-12.6-6.4c-3,1-5.3,3.2-6.3,6.2C63,20.6,63.2,21.1,63.6,21.3z M70.1,15.9   c4.2-1.4,8.7,0.9,10.1,5.1s-0.9,8.7-5.1,10.1c-0.1,0-0.2,0-0.2,0.1c2.2-2.1,3.1-5.3,2.1-8.4c-1.1-3.4-4.3-5.6-7.7-5.6   c-0.7,0-1.3,0.1-2,0.3C68.1,16.8,69.1,16.2,70.1,15.9z"></path><path d="M50,60.8h7.4l0,0c0.1,0,0.2,0,0.4-0.1h0.1c0.1,0,0.1-0.1,0.2-0.1c0,0,0.1,0,0.1-0.1c0.1-0.1,0.1-0.1,0.1-0.2v-0.1l0,0   l4.6-12.4l2,5.4c0.2,0.5,0.8,0.8,1.3,0.6s0.8-0.8,0.6-1.3l-2.9-7.9c-0.1-0.4-0.5-0.7-0.9-0.7s-0.8,0.3-0.9,0.7l-5.3,14.3H50   c-0.6,0-1,0.4-1,1S49.4,60.8,50,60.8z"></path><path d="M95,89.2c0.6,0,1-0.4,1-1V66.8c0-0.6-0.4-1-1-1H84.5v-14h6.6v8c0,0.6,0.4,1,1,1h2.8c0.6,0,1-0.4,1-1s-0.4-1-1-1h-1.8v-8   c0-0.6-0.4-1-1-1h-8.6c-0.6,0-1,0.4-1,1v4.8h-14c-0.6,0-1,0.4-1,1v8.7c0,0.6,0.4,1,1,1s1-0.4,1-1v-7.7h13v8.2h-5c-0.6,0-1,0.4-1,1   v13.6v0.1c0,0.1,0,0.1,0,0.2s0,0.1,0.1,0.2c0,0.1,0.1,0.1,0.1,0.2s0.1,0.1,0.1,0.2c0,0,0,0,0.1,0.1c6.2,4.4,12,9.3,17.3,14.4   c0.2,0.2,0.4,0.3,0.7,0.3c0.3,0,0.5-0.1,0.7-0.3c0.4-0.4,0.4-1,0-1.4c-5.2-5.1-11-9.9-17.2-14.3V67.8H94v20.4   C94,88.7,94.4,89.2,95,89.2z"></path><path d="M89.5,54c0-0.6-0.4-1-1-1h-1.4c-0.6,0-1,0.4-1,1v1.4c0,0.6,0.4,1,1,1h1.4c0.6,0,1-0.4,1-1V54z"></path><path d="M88.5,58h-1.4c-0.6,0-1,0.4-1,1v1.4c0,0.6,0.4,1,1,1h1.4c0.6,0,1-0.4,1-1V59C89.5,58.4,89,58,88.5,58z"></path><path d="M79.5,62.4c0.6,0,1-0.4,1-1V60c0-0.6-0.4-1-1-1h-1.4c-0.6,0-1,0.4-1,1v1.4c0,0.6,0.4,1,1,1H79.5z"></path><path d="M73.5,59h-1.4c-0.6,0-1,0.4-1,1v1.4c0,0.6,0.4,1,1,1h1.4c0.6,0,1-0.4,1-1V60C74.5,59.4,74,59,73.5,59z"></path><path d="M91.5,71c0-0.6-0.4-1-1-1h-1.4c-0.6,0-1,0.4-1,1v1.4c0,0.6,0.4,1,1,1h1.4c0.6,0,1-0.4,1-1V71z"></path><path d="M84.5,71c0-0.6-0.4-1-1-1h-1.4c-0.6,0-1,0.4-1,1v1.4c0,0.6,0.4,1,1,1h1.4c0.6,0,1-0.4,1-1V71z"></path><path d="M83.5,76h-1.4c-0.6,0-1,0.4-1,1v1.4c0,0.6,0.4,1,1,1h1.4c0.6,0,1-0.4,1-1V77C84.5,76.4,84,76,83.5,76z"></path><path d="M91.5,77c0-0.6-0.4-1-1-1h-1.4c-0.6,0-1,0.4-1,1v1.4c0,0.6,0.4,1,1,1h1.4c0.6,0,1-0.4,1-1V77z"></path><path d="M90.5,82h-1.4c-0.6,0-1,0.4-1,1v1.4c0,0.6,0.4,1,1,1h1.4c0.6,0,1-0.4,1-1V83C91.5,82.4,91,82,90.5,82z"></path><path d="M61,57.3c0,1,0.8,1.9,1.9,1.9c1.1,0,1.9-0.8,1.9-1.9s-0.8-1.9-1.9-1.9S61,56.2,61,57.3z M63,57.3c0,0.1-0.2,0.1-0.2,0   s0.1-0.1,0.1-0.1S63,57.2,63,57.3z"></path><path d="M89.1,10.4h1.4v1.4c0,0.6,0.4,1,1,1s1-0.4,1-1v-1.4h1.4c0.6,0,1-0.4,1-1s-0.4-1-1-1h-1.4V7c0-0.6-0.4-1-1-1s-1,0.4-1,1v1.4   h-1.4c-0.6,0-1,0.4-1,1S88.5,10.4,89.1,10.4z"></path><path d="M34.7,21.4h1.4v1.4c0,0.6,0.4,1,1,1s1-0.4,1-1v-1.4h1.4c0.6,0,1-0.4,1-1s-0.4-1-1-1h-1.4V18c0-0.6-0.4-1-1-1s-1,0.4-1,1   v1.4h-1.4c-0.6,0-1,0.4-1,1S34.2,21.4,34.7,21.4z"></path><path d="M50.1,39.4h1.4v1.4c0,0.6,0.4,1,1,1s1-0.4,1-1v-1.4h1.4c0.6,0,1-0.4,1-1s-0.4-1-1-1h-1.4V36c0-0.6-0.4-1-1-1s-1,0.4-1,1   v1.4h-1.4c-0.6,0-1,0.4-1,1S49.5,39.4,50.1,39.4z"></path><path d="M11.1,11.4h1.4v1.4c0,0.6,0.4,1,1,1s1-0.4,1-1v-1.4h1.4c0.6,0,1-0.4,1-1s-0.4-1-1-1h-1.4V8c0-0.6-0.4-1-1-1s-1,0.4-1,1v1.4   h-1.4c-0.6,0-1,0.4-1,1S10.5,11.4,11.1,11.4z"></path><path d="M88.1,37.4h1.4v1.4c0,0.6,0.4,1,1,1s1-0.4,1-1v-1.4h1.4c0.6,0,1-0.4,1-1s-0.4-1-1-1h-1.4V34c0-0.6-0.4-1-1-1s-1,0.4-1,1   v1.4h-1.4c-0.6,0-1,0.4-1,1S87.5,37.4,88.1,37.4z"></path><path d="M21.3,51.2h-7.5c-0.6,0-1,0.4-1,1v7.5c0,0.6,0.4,1,1,1h7.5c0.6,0,1-0.4,1-1v-7.5C22.3,51.7,21.9,51.2,21.3,51.2z M20.3,55   h-1.7v-1.7h1.7V55z M16.6,53.2V55h-1.7v-1.7L16.6,53.2L16.6,53.2z M14.8,57h1.7v1.7h-1.7V57z M18.6,58.7V57h1.7v1.7H18.6z"></path><path d="M21.3,39.2h-7.5c-0.6,0-1,0.4-1,1v7.5c0,0.6,0.4,1,1,1h7.5c0.6,0,1-0.4,1-1v-7.5C22.3,39.7,21.9,39.2,21.3,39.2z M20.3,43   h-1.7v-1.7h1.7V43z M16.6,41.2V43h-1.7v-1.7L16.6,41.2L16.6,41.2z M14.8,45h1.7v1.7h-1.7V45z M18.6,46.7V45h1.7v1.7H18.6z"></path><path d="M34.3,51.2h-7.5c-0.6,0-1,0.4-1,1v7.5c0,0.6,0.4,1,1,1h7.5c0.6,0,1-0.4,1-1v-7.5C35.3,51.7,34.9,51.2,34.3,51.2z M33.3,55   h-1.7v-1.7h1.7V55z M29.6,53.2V55h-1.7v-1.7L29.6,53.2L29.6,53.2z M27.8,57h1.7v1.7h-1.7V57z M31.6,58.7V57h1.7v1.7H31.6z"></path></g></svg>