<svg height='100px' width='100px'  fill="#000000" xmlns="http://www.w3.org/2000/svg" xmlns:xlink="http://www.w3.org/1999/xlink" version="1.1" x="0px" y="0px" viewBox="0 0 90 90" enable-background="new 0 0 90 90" xml:space="preserve"><path fill="#000000" d="M53.623,64.798c-5.135,4.203-11.694,6.729-18.833,6.729c-16.426,0-29.788-13.363-29.788-29.789  c0-16.427,13.362-29.79,29.788-29.79c9.546,0,18.051,4.518,23.506,11.521c0.916-0.986,1.932-1.878,3.029-2.665  C55.125,12.963,45.541,7.916,34.791,7.916c-18.648,0-33.82,15.171-33.82,33.821c0,18.647,15.172,33.82,33.82,33.82  c6.965,0,13.448-2.119,18.833-5.743V64.798z"></path><path fill="#000000" d="M72.99,21.082c-8.857,0-16.039,7.18-16.039,16.039c0,8.857,7.182,16.038,16.039,16.038  s16.039-7.181,16.039-16.038C89.029,28.262,81.848,21.082,72.99,21.082z M59.801,31.999c0.574-1.484,1.387-2.847,2.4-4.039h4.256  c-0.176,0.746-0.236,1.532-0.141,2.337c0.072,0.6,0.227,1.167,0.441,1.702H59.801z M73.6,34.624  c-2.828,0.334-5.391-1.685-5.727-4.513c-0.336-2.826,1.684-5.389,4.51-5.726c2.826-0.334,5.389,1.684,5.727,4.51  C78.445,31.722,76.428,34.286,73.6,34.624z M79.232,31.999c0.406-1.01,0.572-2.132,0.434-3.289c-0.029-0.256-0.078-0.505-0.135-0.75  h4.25c1.014,1.192,1.824,2.555,2.402,4.039H79.232z"></path><circle fill="#000000" cx="72.991" cy="29.503" r="1.905"></circle><path fill="#000000" d="M65.652,63.645l5.313,4.029l-2.357-12.067h-3.883l2.607,5.842c0.145,0.326,0.059,0.71-0.211,0.94  L65.652,63.645z"></path><polygon fill="#000000" points="70.25,55.606 72.162,65.389 74.074,55.606 "></polygon><path fill="#000000" d="M79.6,55.606h-3.883l-2.357,12.067l5.311-4.029l-1.467-1.256c-0.271-0.23-0.359-0.614-0.213-0.94  L79.6,55.606z"></path><path fill="#000000" d="M83.033,55.606h-0.332h-1.336l-2.658,5.95l1.773,1.512c0.182,0.157,0.285,0.392,0.279,0.637  c-0.008,0.242-0.123,0.472-0.318,0.618l-7.473,5.671v12.09h5.191h4.871c2.922,0,5.293-2.367,5.293-5.293V60.897  C88.326,57.975,85.955,55.606,83.033,55.606z M85.045,75.629h-2.398v2.395h-3.252v-2.395h-2.396v-3.253h2.396v-2.396h3.252v2.396  h2.398V75.629z"></path><path fill="#000000" d="M71.355,69.994l-7.475-5.671c-0.193-0.146-0.309-0.376-0.316-0.618c-0.01-0.245,0.096-0.479,0.283-0.637  l1.768-1.512l-2.66-5.95h-0.012c-2.92,0-5.291,2.368-5.289,5.291v15.894c0,2.926,2.369,5.293,5.291,5.293h4.877h3.533V69.994z"></path><circle fill="#000000" cx="33.986" cy="27.128" r="9.35"></circle><path fill="#000000" d="M33.986,37.938c-8.038,0-14.575,6.537-14.575,14.574c0,1.279,1.039,2.313,2.317,2.313  s2.316-1.034,2.316-2.313c0-3.151,1.476-5.959,3.771-7.781v3.732h-1.032c-0.412,0-0.768,0.292-0.846,0.695  c-0.237,1.174-0.268,2.933,0.306,4.584l-3.365,2.994c-0.926,0.826-1.039,2.236-0.254,3.197l4.99,6.104  c0.809,0.991,2.268,1.136,3.259,0.328c0.989-0.811,1.138-2.271,0.328-3.261l-3.582-4.384l1.63-1.452  c0.43,0.22,0.898,0.412,1.432,0.553c0.071,0.019,0.145,0.029,0.222,0.029h6.167c0.073,0,0.146-0.011,0.221-0.029  c0.53-0.141,1-0.333,1.431-0.553l1.632,1.452l-3.584,4.384c-0.811,0.989-0.664,2.45,0.327,3.261  c0.431,0.351,0.948,0.521,1.465,0.521c0.67,0,1.336-0.29,1.796-0.849l4.988-6.104c0.785-0.961,0.673-2.371-0.255-3.197l-3.362-2.995  c0.571-1.65,0.542-3.409,0.307-4.583c-0.083-0.403-0.436-0.695-0.847-0.695h-1.036v-3.732c2.297,1.822,3.774,4.63,3.774,7.781  c0,1.279,1.037,2.313,2.315,2.313c1.279,0,2.316-1.034,2.316-2.313C48.557,44.476,42.019,37.938,33.986,37.938z M36.952,56.125  h-5.935c-3.48-0.989-3.599-4.438-3.478-5.935h12.892C40.559,51.685,40.45,55.131,36.952,56.125z"></path></svg>