<svg height='100px' width='100px'  fill="#000000" xmlns="http://www.w3.org/2000/svg" xmlns:xlink="http://www.w3.org/1999/xlink" xml:space="preserve" version="1.1" style="shape-rendering:geometricPrecision;text-rendering:geometricPrecision;image-rendering:optimizeQuality;" viewBox="0 0 846.66 846.66" x="0px" y="0px" fill-rule="evenodd" clip-rule="evenodd"><defs><style type="text/css">
   
    .fil0 {fill:#000000;fill-rule:nonzero}
   
  </style></defs><g><path class="fil0" d="M594.24 390.77c-48.73,-17.75 -101.74,12.84 -110.67,63.93 48.72,17.75 101.73,-12.84 110.67,-63.93zm-360.14 -61.22c67.95,-32.49 146.65,12.35 154.91,85.82l21.63 21.59 0 -94.52c-87,-6.52 -154.56,-79.35 -154.56,-166.78 0,-92.37 74.89,-167.26 167.26,-167.26 92.31,0 167.26,74.94 167.26,167.26 0,87.43 -67.58,160.23 -154.56,166.78l0 136.04 21.62 -21.58c8.39,-74.17 87.53,-118.05 154.92,-85.83 5,1.97 8.39,7 8.02,12.65 -4.99,73.16 -79.67,120.51 -147.87,93.92l-36.69 36.63 0 46.67c69.63,-21.59 145.66,3.11 189.34,61.51l21.87 0c8.32,0 14.31,7.85 12.32,15.81l-37.54 189.72c-1.18,6.05 -6.5,10.26 -12.45,10.26l-372.49 0.01c-6.38,0 -11.67,-4.72 -12.57,-10.86l-37.54 -189.81c-1.66,-8.52 4.4,-14.3 12.45,-15.13l29.8 0c41.91,-56.05 113.76,-81.26 181.41,-63.79l0 -85.91 -36.7 -36.63c-68.19,26.62 -142.88,-20.78 -147.86,-93.92 -0.37,-5.65 3.02,-10.68 8.02,-12.65zm18.34 19.7c8.92,51.05 61.97,81.71 110.66,63.93 -8.8,-50.58 -61.75,-81.74 -110.66,-63.93zm313.28 298.6l-20.2 103.53c-1.18,6.05 -6.5,10.26 -12.45,10.26l-219.46 0.01c-6.39,0 -11.69,-4.74 -12.57,-10.89l-20.08 -102.91 -66.09 0 32.64 165 351.65 0 32.65 -165 -66.09 0zm-258.91 0l17.25 88.4 198.56 0 17.25 -88.4 -233.06 0zm154.41 -67.01c17,10.98 32.14,25 44.56,41.61l49.82 0 36.48 0c-33.99,-34.45 -83.23,-50.07 -130.86,-41.61zm-50.58 -515.92c0,-16.7 25.4,-16.7 25.4,0l0 11.45c25.64,5.89 44.01,28.87 44.01,55.27 0,16.7 -25.4,16.7 -25.4,0 0,-12.36 -7.34,-23.66 -18.61,-28.63l0 61.38c59.09,13.53 57.36,97.38 0,110.56l0 11.45c0,7.01 -5.69,12.7 -12.7,12.7 -7.01,0 -12.7,-5.69 -12.7,-12.7l0 -11.46c-25.62,-5.91 -44.02,-28.74 -44.02,-55.27 0,-16.7 25.4,-16.7 25.4,0 0,12.42 7.36,23.69 18.62,28.64l0 -61.38c-58.98,-13.55 -57.53,-97.28 0,-110.55l0 -11.46zm25.4 126.12l0 57.28c24.72,-10.86 24.79,-46.28 0,-57.28zm-25.4 -30.75l0 -57.29c-24.34,10.7 -25.12,46.21 0,57.29zm12.7 157.22c77.77,1.74 141.86,-65.15 141.86,-141.85 0,-78.38 -63.48,-141.86 -141.86,-141.86 -78.34,0 -141.86,63.52 -141.86,141.86 0,76.27 64.14,143.58 141.86,141.85zm-160.81 304.94l209.95 0c-57.28,-58.08 -152.04,-58.72 -209.95,0z"></path></g></svg>