<svg height='100px' width='100px'  fill="#000000" xmlns="http://www.w3.org/2000/svg" xmlns:xlink="http://www.w3.org/1999/xlink" version="1.1" x="0px" y="0px" viewBox="0 0 100 100" enable-background="new 0 0 100 100" xml:space="preserve"><g><path fill="none" stroke="#000000" stroke-width="2" stroke-linecap="round" stroke-linejoin="round" stroke-miterlimit="10" d="   M71.266,18.521c-1.585-1.043-1.517-3.525-2.3-5.243c-0.33-0.723-0.742-1.558-1.247-2.281c-0.443-0.634-0.65-0.474-0.721-1.245   c-0.076-0.833,0.74-1.571,0.377-2.502L35.75,7.5c-0.229,1.213,0.896,1.672,1.856,1.89c-0.136,2.369,2.229,2.002,3.122,3.726   c0.38,0.732,0.258,2.414,0.052,3.162c-0.209,0.761-0.989,1.262-1.045,1.938c-0.882,0.31-1.113,1.213-1.214,2.028   c-0.064,0.516,0.335,0.652-0.044,1.221c-0.231,0.348-1.117,0.569-1.478,0.81c-0.911,0.61-1.674,0.808-2.521,1.216   c-0.81,0.39-0.562,0.662-1.477,0.668c-0.515,0.003-1.058-0.306-1.627-0.284c-1.33,0.051-1.748,1.088-1.787,2.488   c-0.037,1.31,1.127,1.562,1.571,2.662c0.195,0.484,0.17,1.44,0.091,1.949c-0.118,0.769-0.13,0.532-0.569,1.273   c-0.795,1.339-0.986,2.196-1.075,3.736c-1.028-0.014-2.713,0.94-3.114,1.885c-0.208,0.491,0.132,1.167,0.011,1.631   c-0.196,0.755-0.924,1.392-1.393,2.009c-1.378,1.813,0.276,5.219,0.278,7.591c1.683,0.329,1.197,1.563,1.981,2.738   c0.861,1.29,2.188,1.365,3.1,2.446c0.478,0.566,0.814,1.121,1.406,1.468c0.308,0.181,1.159,0.174,1.377,0.398   c0.656,0.671,0.592,2.374,1.025,3.359c0.488,1.107,0.493,2.407,0.977,3.5c0.922,2.089,1.162-1.019,2.368-1.146   c0.765-0.081,1.123,0.975,1.598,1.243c0.539,0.305,1.154-0.022,1.6,0.172c1.099,0.48,0.685,2.22-0.676,2.116   c-0.155,0.649-0.087,1.084-0.019,1.722c0.14,1.292,0.208,1.142-0.378,2.037c-0.739,1.127-0.834,1.918-1.244,3.006   c-0.594,1.577-0.75,1.426,0.622,2.466c0.488,0.37,0.734,0.871,1.152,1.256c0.644,0.593,1.454,0.807,2.213,1.241   c0.736,0.422,1.025,1.302,1.501,1.609c0.459,0.297,1.121-0.109,1.641,0.294c0.414,0.322,0.513,1.003,0.966,1.38   c0.632,0.527,1.329,0.707,1.909,1.369c0.545,0.623,0.632,1.209,0.868,1.878c0.216,0.611,0.396,1.091,0.652,1.725   c0.34,0.839,0.41,0.223,0.07,1.088c-0.188,0.477-0.843,0.914-1.007,1.506c-0.22,0.792-0.15,1.029,0.379,1.784   c0.234,0.335,0.897,1.724,1.184,1.968c0.919,0.785,0.882-0.369,1.213-0.389c0.759-0.046,0.865,0.638,1.502,1.038   c0.895-1.114,0.255-2.33,1.61-3.129c0.848-0.5,1.542-0.374,2.491,0.031c1.064,0.454,3.925,2.969,4.311,0.506   c0.1-0.639-0.646-1.026-0.758-1.65c-0.238-1.335,0.49-1.741,1.415-2.006c0.451-0.129,0.889,0.111,1.318-0.116   c0.41-0.217,0.537-0.84,1.001-1.108c0.55-0.318,1.347-0.327,1.974-0.294c-0.197-0.665-0.916-1.075-1.23-1.731   c-0.543-1.138,0.106-1.241,0.53-2.275c0.407-0.993-0.088-2.225,0.238-3.206c0.294-0.88,0.854-1.154,0.875-2.25   c0.148,0,0.313-0.023,0.463-0.032c0.293-1.171-1.13-1.395-0.358-2.746c0.562-0.985,1.982-1.037,2.548-1.988   c0.244-0.41,0.09-1.036,0.32-1.503c0.335-0.68,1.095-0.877,1.511-1.404c0.399-0.506,1.212-1.807,1.376-2.472   c0.302-1.224-0.574-4.04-1.41-5.002c-0.524-0.604-1.282-0.476-0.915-1.771c0.229-0.806,1.452-1.268,0.71-2.194   c0.397-0.167,0.981-0.463,0.737-0.032L71.266,18.521z"></path></g></svg>