<svg height='100px' width='100px'  fill="#000000" xmlns="http://www.w3.org/2000/svg" data-name="Layer 3" viewBox="0 0 64 64" x="0px" y="0px"><title>EVICTION-bankruptcy-real estate-housing-home</title><path d="M32,17a7,7,0,1,0,7,7A7,7,0,0,0,32,17Zm0,12a5,5,0,1,1,5-5A5,5,0,0,1,32,29Z"></path><path d="M32,59a3,3,0,1,0-3-3A3,3,0,0,0,32,59Zm0-4a1,1,0,1,1-1,1A1,1,0,0,1,32,55Z"></path><path d="M63,57H60.82A3,3,0,0,0,58,55H56a3,3,0,0,0-1,.18V31h5a1,1,0,0,0,.92-.62,1,1,0,0,0-.21-1.09l-28-28a1,1,0,0,0-1.42,0l-28,28a1,1,0,0,0-.21,1.09A1,1,0,0,0,4,31H9V55.18A3,3,0,0,0,8,55H6a3,3,0,0,0-2.82,2H1v2H3.18A3,3,0,0,0,6,61H8a3,3,0,0,0,2.82-2h2.36A3,3,0,0,0,16,61h2a3,3,0,0,0,2.82-2H23v3a1,1,0,0,0,1,1H40a1,1,0,0,0,1-1V59h2.18A3,3,0,0,0,46,61h2a3,3,0,0,0,2.82-2h2.36A3,3,0,0,0,56,61h2a3,3,0,0,0,2.82-2H63ZM32,3.41,57.59,29H54.41L32.71,7.29a1,1,0,0,0-1.42,0L9.59,29H6.41ZM8,59H6a1,1,0,0,1,0-2H8a1,1,0,0,1,0,2Zm10,0H16a1,1,0,0,1,0-2h2a1,1,0,0,1,0,2Zm5-9v7H20.82A3,3,0,0,0,18,55H16a3,3,0,0,0-1,.18V37H29v2.68A7,7,0,0,0,25,46v3H24A1,1,0,0,0,23,50Zm14-4v3H35V46a3,3,0,0,0-6,0v3H27V46a5,5,0,0,1,10,0Zm-4,3H31V46a1,1,0,0,1,2,0Zm6,12H25V51H39Zm1-12H39V46a7,7,0,0,0-4-6.32V37H49V49H42v2h8a1,1,0,0,0,1-1V36a1,1,0,0,0-1-1H34a1,1,0,0,0-1,1v3.08a6.29,6.29,0,0,0-2,0V36a1,1,0,0,0-1-1H14a1,1,0,0,0-1,1V57H11V30.41l21-21,21,21V57H50.82A3,3,0,0,0,48,55H46a3,3,0,0,0-2.82,2H41V50A1,1,0,0,0,40,49Zm8,10H46a1,1,0,0,1,0-2h2a1,1,0,0,1,0,2Zm10,0H56a1,1,0,0,1,0-2h2a1,1,0,0,1,0,2Z"></path></svg>