<svg height='100px' width='100px'  fill="#000000" xmlns="http://www.w3.org/2000/svg" xmlns:xlink="http://www.w3.org/1999/xlink" version="1.1" x="0px" y="0px" viewBox="0 0 287.688 245.68" style="enable-background:new 0 0 287.688 245.68;" xml:space="preserve"><g><path d="M97.248,68c8.325,12.723,12.386,32.418,12.425,60.225c0,3.877-0.092,7.973-0.255,12.205   c1.817-0.521,3.729-0.818,5.713-0.818c10.311,0,18.862,7.571,20.449,17.439h73.323c2.026,0,3.67-1.643,3.67-3.67V65.482   c0-2.027-1.644-3.671-3.67-3.671H92.202C94.026,63.63,95.728,65.693,97.248,68z"></path><path d="M245.106,139.611c10.31,0,18.86,7.571,20.447,17.439h12.617c3.028,0,5.506-2.479,5.506-5.507v-23.148   c0-3.027-1.155-7.696-2.57-10.373l-14.897-28.222c-1.412-2.678-5.047-4.869-8.074-4.869h-35.601c-3.026,0-5.503,2.478-5.503,5.505   v61.106c0,3.028,2.477,5.507,5.503,5.507h2.123C226.244,147.183,234.796,139.611,245.106,139.611z M233.761,129.191h-7.585v-2.936   h7.585V129.191z M261.34,92.37l12.852,24.344h-36.515V90.438h20.458C259.115,90.438,260.883,91.506,261.34,92.37z M234.741,90.438   v26.276h-12.207V90.438H234.741z"></path><path d="M262.172,160.347c0-9.425-7.642-17.064-17.066-17.064c-9.427,0-17.067,7.64-17.067,17.064   c0,9.425,7.641,17.066,17.067,17.066C254.53,177.413,262.172,169.771,262.172,160.347z M235.38,160.347   c0-5.362,4.364-9.725,9.727-9.725c5.362,0,9.724,4.362,9.724,9.725c0,5.363-4.361,9.727-9.724,9.727   C239.744,170.073,235.38,165.71,235.38,160.347z"></path><path d="M132.196,160.347c0-9.425-7.639-17.064-17.065-17.064c-2.071,0-4.048,0.388-5.884,1.064   c-0.056,1.125-0.108,2.246-0.175,3.391c-0.108,1.872-0.586,3.64-1.354,5.238c0.263,0.083,0.521,0.18,0.771,0.288   c1.74-1.633,4.072-2.641,6.642-2.641c5.363,0,9.727,4.362,9.727,9.725c0,5.363-4.363,9.727-9.727,9.727   c-0.614,0-1.214-0.064-1.798-0.174v7.417c0.591,0.063,1.19,0.097,1.798,0.097C124.558,177.413,132.196,169.771,132.196,160.347z"></path><polygon points="237.026,179.444 123.21,179.444 113.333,179.444 113.333,184.444 287.688,184.444 287.688,179.444    253.186,179.444  "></polygon><path d="M51.448,53.388c0.729,0.072,1.469,0.11,2.218,0.11c0.749,0,1.488-0.038,2.218-0.109l1.806-7.572l15.661-3.92   c1.792-3.229,2.815-6.943,2.815-10.898c0-2.154-0.31-4.234-0.874-6.207H32.04c-0.564,1.973-0.874,4.053-0.874,6.207   c0,3.955,1.024,7.669,2.815,10.898l15.661,3.92L51.448,53.388z"></path><path d="M90.04,22.791v-3.375H74.95L73.776,5.332c0,0-6.998-5.332-20.111-5.332C40.554,0,33.554,5.332,33.554,5.332l-1.172,14.084   H17.29v3.375H90.04z"></path><path d="M22.667,209.945v-49.333c0-1.104-0.896-2-2-2h-0.048h-0.694h-5.591v-3.969c3.58-0.97,6.114-4.34,5.889-8.19   c-0.392-6.652-0.569-12.709-0.569-18.223c-0.034-24.223,3.497-37.828,6.967-44.926v33.072v18.939v98   c0,6.83,5.537,12.363,12.363,12.363c6.828,0,12.365-5.533,12.365-12.363v-90.271h4.635v90.271c0,6.83,5.537,12.363,12.363,12.363   c6.828,0,12.365-5.533,12.365-12.363v-98v-18.939v-33.02c0.592,1.215,1.189,2.609,1.779,4.236   c2.817,7.813,5.189,20.631,5.179,40.639c0.002,5.516-0.176,11.572-0.563,18.227c-0.224,3.849,2.312,7.218,5.893,8.186v3.968h-6.334   c-1.104,0-2,0.896-2,2v49.333c0,1.104,0.896,2,2,2h18.667c1.104,0,2-0.896,2-2v-49.333c0-1.104-0.896-2-2-2H99v-4.715   c2.3-1.29,3.918-3.682,4.082-6.509c0.4-6.934,0.589-13.299,0.589-19.156c-0.041-30.184-4.86-46.887-11.434-56.932   c-3.286-4.986-7.128-8.184-10.679-9.955c-3.024-1.524-5.72-2.002-7.552-2.108l1.316-5.909l2.343-10.513l-0.474,0.125l-18.526,4.875   l-4.618,19.625h-0.764l-4.618-19.625L30.14,42.941l-0.474-0.125l2.343,10.513l1.316,5.91c-1.83,0.103-4.529,0.58-7.558,2.107   c-5.38,2.668-11.177,8.502-15.237,18.84C6.425,90.564,3.666,105.57,3.653,128.23c0,5.859,0.19,12.227,0.597,19.16   c0.165,2.827,1.784,5.219,4.084,6.508v4.714H4.547H2c-1.105,0-2,0.896-2,2v49.333c0,1.104,0.896,2,2,2h18.619h0.048   C21.771,211.945,22.667,211.05,22.667,209.945z"></path></g></svg>