<svg height='100px' width='100px'  fill="#000000" xmlns="http://www.w3.org/2000/svg" xmlns:xlink="http://www.w3.org/1999/xlink" version="1.1" x="0px" y="0px" viewBox="0 0 100 43.24" enable-background="new 0 0 100 43.24" xml:space="preserve"><path d="M74.249,25.535c-3.508,0-6.352,2.844-6.352,6.351c0,3.508,2.844,6.353,6.352,6.353c3.507,0,6.351-2.845,6.351-6.353  C80.6,28.379,77.756,25.535,74.249,25.535z M74.249,35.361c-1.919,0-3.476-1.557-3.476-3.476s1.557-3.475,3.476-3.475  s3.475,1.556,3.475,3.475S76.168,35.361,74.249,35.361z"></path><path d="M88.649,25.535c-3.508,0-6.351,2.844-6.351,6.351c0,3.508,2.843,6.353,6.351,6.353S95,35.394,95,31.886  C95,28.379,92.157,25.535,88.649,25.535z M88.649,35.361c-1.919,0-3.476-1.557-3.476-3.476s1.557-3.475,3.476-3.475  s3.476,1.556,3.476,3.475S90.568,35.361,88.649,35.361z"></path><path d="M58.311,18.079c9.131,0.954,16.382,3.165,16.197,4.94l-16.546-1.729l0.336-3.213"></path><rect x="48.136" y="23.919" width="18.554" height="9.061"></rect><path d="M17.654,25.535c-3.507,0-6.351,2.844-6.351,6.351c0,3.508,2.843,6.353,6.351,6.353c3.508,0,6.351-2.845,6.351-6.353  C24.005,28.379,21.162,25.535,17.654,25.535z M17.654,35.361c-1.919,0-3.475-1.557-3.475-3.476s1.556-3.475,3.475-3.475  c1.919,0,3.476,1.556,3.476,3.475S19.574,35.361,17.654,35.361z"></path><path d="M33.954,5.002c0,0-7.417,0.225-9.452,4.47l9.781-0.211c0,0,1.877,0,1.877,0.803c0,0.743-0.807,5.596-10.112,6.228v0H5v16.66  h4.688v-1.146c0.511-7.402,7.906-7.402,7.906-7.402h0.215c0,0,7.396,0,7.907,7.402v1.146h20.225V5.002H33.954z M6.924,26.73v-3.497  h6.338C13.262,23.233,10.639,27.168,6.924,26.73z"></path></svg>