<svg height='100px' width='100px'  fill="#000000" xmlns="http://www.w3.org/2000/svg" xmlns:xlink="http://www.w3.org/1999/xlink" version="1.1" x="0px" y="0px" viewBox="0 0 96.001 96.001" enable-background="new 0 0 96.001 96.001" xml:space="preserve"><path d="M31.125,39.856c-1.705,0-3.092,1.167-3.092,2.602c0,1.438,1.387,2.607,3.092,2.607h0.357  c0.326,7.231,5.299,13.262,12.009,15.166c-0.281,1.006-1.027,2.91-2.772,3.545c-0.31,0.113-1.037,0.227-1.879,0.359  c-6.275,0.983-22.943,3.597-22.943,26.365v0.75h64.281v-0.75c0-22.769-16.668-25.382-22.943-26.365  c-0.842-0.133-1.569-0.246-1.879-0.359c-1.754-0.638-2.5-2.562-2.776-3.563c6.675-1.926,11.615-7.941,11.94-15.148h0.357  c1.705,0,3.092-1.17,3.092-2.607c0-1.435-1.387-2.602-3.092-2.602h-0.351c-0.351-7.729-6.071-14.202-13.694-15.481v-0.02  l-0.643-0.093c-0.001,0-0.003,0-0.005,0c-0.003-0.001-0.005-0.002-0.008-0.002v0.001c-1.34-0.192-2.963-0.189-4.358,0.016h0  c-0.002,0.001-0.006,0.001-0.008,0.001l-0.64,0.095v0.023c-7.546,1.337-13.208,7.802-13.559,15.46H31.125z M31.125,43.565  c-0.863,0-1.592-0.507-1.592-1.107c0-0.587,0.744-1.102,1.592-1.102h12.423c0.019,0.031,0.044,0.058,0.064,0.089  c0.061,0.098,0.126,0.191,0.193,0.284l-1.835,1.836H31.125z M17.403,89.751c0.216-12.379,5.779-18.245,11.481-21.161l0.868,13.172  l-4,7.989H17.403z M67.191,68.591c5.702,2.916,11.264,8.782,11.48,21.16h-8.348l-4-7.989L67.191,68.591z M65.732,67.91L64.8,82.068  l3.847,7.683H27.429l3.847-7.683L30.344,67.91c1.274-0.546,2.533-0.964,3.717-1.284l3.88,9.225h20.252l3.873-9.21  C63.236,66.959,64.477,67.372,65.732,67.91z M54.844,65.187c0.447,0.162,1.165,0.275,2.159,0.431  c0.97,0.152,2.206,0.348,3.588,0.659l-3.395,8.074h-18.26l-3.4-8.087c1.362-0.304,2.578-0.496,3.536-0.646  c0.994-0.155,1.712-0.269,2.159-0.431c2.42-0.88,3.38-3.341,3.723-4.607c0.989,0.185,2.005,0.293,3.047,0.293  c1.066,0,2.106-0.11,3.117-0.304C51.458,61.832,52.417,64.304,54.844,65.187z M48.001,59.372c-8.05,0-14.625-6.354-15.02-14.307  h9.442l0.083,0.083l0.083-0.083h10.824l0.081,0.081l0.081-0.081h9.443C62.625,53.019,56.051,59.372,48.001,59.372z M44.09,43.565  l0.76-0.76c0.156,0.119,0.314,0.233,0.483,0.335c0.079,0.048,0.162,0.088,0.243,0.132c0.159,0.084,0.32,0.162,0.487,0.23  c0.045,0.018,0.087,0.045,0.133,0.063H44.09z M49.806,43.565c0.045-0.018,0.086-0.044,0.131-0.063  c0.169-0.068,0.332-0.147,0.493-0.233c0.079-0.042,0.159-0.081,0.236-0.127c0.169-0.103,0.33-0.217,0.487-0.338l0.761,0.761H49.806z   M64.877,41.356c0.848,0,1.592,0.515,1.592,1.102c0,0.601-0.729,1.107-1.592,1.107H54.036l-1.837-1.836  c0.067-0.093,0.132-0.188,0.193-0.285c0.02-0.03,0.045-0.057,0.063-0.088H64.877z M50.833,25.896  c6.782,1.256,11.849,7.05,12.194,13.961h-9.973c0.082-0.368,0.124-0.748,0.124-1.139c0-1.167-0.395-2.27-1.083-3.157l2.462-2.461  l-1.061-1.061l-2.481,2.481c-0.058-0.041-0.122-0.074-0.182-0.113V25.896z M46.669,25.685c0.867-0.082,1.834-0.085,2.663-0.012  v8.053c-0.433-0.116-0.879-0.176-1.327-0.176c-0.458,0-0.904,0.059-1.336,0.175V25.685z M45.432,37.084l1.061-1.061l-0.417-0.418  c0.052-0.031,0.101-0.066,0.154-0.096l0.045-0.024c1.064-0.571,2.379-0.577,3.453,0l0.043,0.023  c0.054,0.029,0.104,0.065,0.157,0.098l-0.417,0.417l1.061,1.061l0.448-0.448c0.417,0.602,0.659,1.321,0.659,2.082  c0,0.558-0.117,1.084-0.35,1.567c-0.061,0.128-0.133,0.248-0.207,0.367l-0.549-0.549l-1.061,1.061l0.571,0.571  c-0.604,0.416-1.325,0.658-2.081,0.658c-0.177,0-0.352-0.013-0.524-0.038c-0.564-0.082-1.094-0.302-1.557-0.62l0.571-0.571  l-1.061-1.061l-0.549,0.549c-0.075-0.119-0.148-0.24-0.209-0.37l0-0.001l0-0.001c-0.23-0.479-0.347-1.005-0.347-1.563  c0-0.761,0.241-1.48,0.659-2.082L45.432,37.084z M45.169,25.92v8.487c-0.059,0.038-0.123,0.071-0.181,0.112l-2.48-2.48L41.448,33.1  l2.461,2.461c-0.689,0.888-1.084,1.99-1.084,3.157c0,0.391,0.042,0.771,0.124,1.139H33.11C33.455,33.013,38.464,27.232,45.169,25.92  z"></path><rect x="47.251" y="35.585" width="1.5" height="1.99"></rect><rect x="47.251" y="39.612" width="1.5" height="1.99"></rect><rect x="49.02" y="37.843" width="1.989" height="1.5"></rect><rect x="44.993" y="37.843" width="1.99" height="1.5"></rect><rect x="62.882" y="57.717" transform="matrix(-0.707 -0.7073 0.7073 -0.707 74.5024 147.8026)" width="9.978" height="1.5"></rect><rect x="23.138" y="17.972" transform="matrix(0.7069 0.7074 -0.7074 0.7069 21.4882 -14.4083)" width="9.979" height="1.5"></rect><rect x="23.144" y="57.718" transform="matrix(0.7071 -0.7072 0.7072 0.7071 -33.1048 37.0213)" width="9.976" height="1.5"></rect><rect x="67.124" y="13.738" transform="matrix(0.7071 0.7071 -0.7071 0.7071 33.1208 -42.5096)" width="1.5" height="9.976"></rect><rect x="47.25" y="61.708" width="1.5" height="9.977"></rect><rect x="47.251" y="5.501" width="1.5" height="9.979"></rect><rect x="14.91" y="37.847" width="9.977" height="1.5"></rect><rect x="71.115" y="37.847" width="9.977" height="1.5"></rect></svg>