<svg height='100px' width='100px'  fill="#000000" xmlns="http://www.w3.org/2000/svg" xmlns:xlink="http://www.w3.org/1999/xlink" version="1.1" x="0px" y="0px" viewBox="-55 147 500 500" style="enable-background:new -55 147 500 500;" xml:space="preserve"><g><path d="M83.4,309.4h146.7c5.6,0,10-4.5,10-10V212c0-5.5-4.5-10-10-10H83.4c-5.6,0-10,4.5-10,10v87.4   C73.4,305,77.9,309.4,83.4,309.4z M93.5,222h126.6v67.4H93.5V222z"></path><path d="M389.9,288.7c0-2.2-1-4.3-2.7-5.7L309,217.2c-4.2-3.6-10.6-3-14.2,1.2s-3,10.5,1.2,14.1l34.8,29.2v50.4   c0,2.8,1.2,5.5,3.4,7.3l35.7,30v126.4c0,13.7-10.6,25.5-24.3,26.2c-14.7,0.7-26.9-11-26.9-25.5v-119c0-22.1-16.7-40.4-38.3-43.1   V201.5c0-30.1-24.5-54.5-54.8-54.5H87.9c-30.2,0-54.8,24.4-54.8,54.5V579H10c-5.6,0-10,4.5-10,10v48c0,5.5,4.5,10,10,10h293.4   c5.6,0,10-4.5,10-10v-48c0-5.5-4.5-10-10-10h-23.1V334.7c10.4,2.5,18.2,11.7,18.2,22.8v118c0,25.5,20.9,47,46.5,46.5   c24.9-0.4,44.9-20.7,44.9-45.5V288.7z M87.9,167h137.7c19.1,0,34.7,15.5,34.7,34.5V578h-207V201.5C53.3,182.5,68.8,167,87.9,167z    M293.4,599v28H20.1v-28H293.4z M369.9,323.2l-19-16v-28.6l19,16V323.2z"></path><path d="M192.3,443.9h-71.1c-5.8,0-10.6,4.7-10.6,10.5s4.7,10.5,10.6,10.5h71.1c5.8,0,10.6-4.7,10.6-10.5   C202.9,448.6,198.2,443.9,192.3,443.9z"></path><path d="M192.3,484.7h-71.1c-5.8,0-10.6,4.7-10.6,10.5s4.7,10.5,10.6,10.5h71.1c5.8,0,10.6-4.7,10.6-10.5   C202.9,489.4,198.2,484.7,192.3,484.7z"></path><path d="M192.3,525.4h-71.1c-5.8,0-10.6,4.7-10.6,10.5c0,5.8,4.7,10.5,10.6,10.5h71.1c5.8,0,10.6-4.7,10.6-10.5   C202.9,530.1,198.2,525.4,192.3,525.4z"></path><path d="M156.8,413.5c22.7,0,41.2-18.4,41.2-41s-18.5-41-41.2-41s-41.2,18.4-41.2,41S134,413.5,156.8,413.5z M156.8,349.9   c12.5,0,22.7,10.1,22.7,22.6s-10.2,22.6-22.7,22.6s-22.7-10.1-22.7-22.6S144.3,349.9,156.8,349.9z"></path></g></svg>