<svg height="127" width="151" xmlns="http://www.w3.org/2000/svg">
    <path d="M117.687 126.285h-.194l.097.098.097-.098zm12.618-4.756h-.097l.097.194zm2.62-.68v-.193l-.193.29.194-.096zm-.97-.193l-.388-.389-.097.098.485.29zm-.291.776l-1.165-1.456.68 1.262zm9.22-5.727v.389l.195-.194zm1.36-.97l.29-.485-.387.388.097.097zm-.583-2.718l-.097-.097v.194l.097-.097zm.68-2.33l-.194.098.29.097-.096-.194zm.388 0l-.194-.194.097.292.097-.097zm-.68-.194l-.097-.097v.194l.098-.097zm3.592-.679v-.097l-.194.388.194-.291zm-4.077.388h-.194l.194.097zm2.039-1.165h-.292l-.097.098.389-.098zm-7.377-.097v-.194l-.097.194zm.873-.29h-.29l.29.582zm-2.33.096v-.582l-.484.097.485.485zm-1.358-.97l.485.485v-.194zm14.268.582l-1.747.777.582.097 1.165-.874zm-13.589-.874h-.582v.195zm15.336-4.853l.097-.485.098-1.262-.195 1.747zm.097-5.435l-.388-.97-.194.387zm-22.421 2.426l-.194.292.485.097-.291-.389zm-1.844-.873l-.874.291.68.097.194-.388zm-1.942.194v-.291l-.097.097.097.194zm-2.038-.097l-.582.388.776.388zm2.718.097l-.097-.291-.486-.097.583.388zM111.28 88.43l-.583.29 1.165.39zm-2.33-3.106l-.776-1.165.29.874zm3.01 1.941l-1.36-3.106-.97-.291zm-3.883-3.883l-.292-.776-.194-.485zM100.02 72.61l-1.747-1.261.68.68zm43.679-6.503l-7.086-11.841h-.388zM94.683 47.18l-.291-.097.29.194v-.097zm-.583-.68l-.097.098.097.097V46.5zm-.29-1.358l.29.194v-.194zm.582-.389l-.389.097h.097l.292-.097zm-.68-.097l-.291-.29.097.096.194.194zm-.68-1.067h-.193l.29.097-.096-.097zm.68-1.165h-.388l-.097.097.485-.097zm.388.194l-.485-.485.194.097.291.388zm-3.688-4.174l-.194-.097v.097zm-4.174 0l-.29-.388.096.485.194-.097zm-35.33-3.203l2.911-2.232-3.203 2.135.291.097zm5.823-4.659l.291-.291-1.164.485zm-36.884-6.503l-10.58 3.397 5.824-1.65zm26.304-16.5l-2.815.484-41.93 6.795 4.367 9.997.291.097-1.067 3.98 3.106-1.359 3.397-3.009 5.824-.194 6.697-2.426 4.562.679-1.068 1.65 8.348 2.815 7.182 3.494 1.65 3.883 5.339-1.165 12.618-10.29 4.659.194L86.335 37.57l3.883-.777 4.077 5.436.776 8.638-1.262 5.436.583 2.718 3.397 6.794-1.553-5.338 4.368-.098.388 3.883-2.33 6.018 8.057 11.065 3.009.097-2.524-3.397 3.106.388 1.844-1.164-.776 6.212 4.173 3.3 2.815 7.57 3.786 2.33 4.853 1.262 6.697 8.542 3.494 1.844-4.659.29 2.136 2.427 7.668-2.523 3.785-2.136 3.495-12.23-1.748-19.024-.388-1.941-9.318-15.53-7.96-11.26-4.464-9.22 3.785 3.203.777-.583 1.65 8.056 4.27 6.115-4.173-8.153.194-3.882-12.52-15.24-3.01-4.755-3.98-8.057-2.717-6.794-2.136-2.427-.485-3.106-.097-.097-6.697-.388-2.621 2.038-1.456 7.474-1.359-3.494-45.814 5.727-3.3-5.145.097-.097z" fill="#f9f9f9" fill-rule="evenodd" stroke="#000" stroke-linejoin="round" stroke-width=".971"/>
</svg>
