<svg height="221" width="422" xmlns="http://www.w3.org/2000/svg">
    <path d="M406.35 195l-3.01-2.233-2.62.68.582 5.435-3.591 4.465 3.106 7.085.874 7.28 3.59 2.33 2.233-3.592 3.98-2.912 4.853-1.262 5.339-4.561-5.242-4.465-.097-2.718-9.997-5.533zm-17.666-7.863l-1.456-1.262-1.359 1.845zm-7.28-4.174l.389-3.59-1.845-.292zm6.115-5.92l-1.65.776 1.165 3.688 2.524.195.776 3.203 2.718 1.164 6.018-2.814-5.63-4.66zm-12.424-3.98l-.873 2.62 4.173-.096 3.883.97-2.038-3.203-5.145-.291zm-12.23-7.668l-2.232-2.135-4.27 3.3 2.717 5.047 1.941-2.038 5.533 1.164-.486-2.33zm-43.484-4.27l.582-1.36 1.65-.873zm15.433-8.834l-6.794 2.524-.68 1.844 2.718 1.942 3.786.97 2.717-5.338zm-47.075-17.86v-.096h-.195zm-51.444-12.714v.194h.097zm-28.925-7.377h-.194v.097zM177.475 89.2l-.097-.29v.096l.097.194zm-66.488-21.256l-.292.29.194.098.098-.388zM1.11.776l.291-.097V.485l-.29.29z" fill="#f9f9f9" fill-rule="evenodd" stroke="#000" stroke-linejoin="round" stroke-width=".971"/>
</svg>
