<svg height="66" width="100" xmlns="http://www.w3.org/2000/svg">
    <path d="M90.531 19.7l-5.338-2.815-2.912-3.98-.97-5.726.776-2.621-2.815-3.397-4.756.485-47.755 3.98L7.639 6.693l-4.853.292-2.038.097 1.65 10.774L1.038 23l2.136 3.203v.68l.68.097 3.106 9.124 3.009 4.756.194 5.435 3.3 4.562-.582 1.941 3.009 12.23v.292l19.897-.583 21.257-1.844 20.869-2.62 4.756 4.173.194.194.874-.388-.68-3.786 3.592-2.232 1.456-9.9-1.456-.68.873-5.047 4.368-.874 4.853-3.494 2.136-6.115.097-3.106-3.883-3.688L93.928 23l-3.688-2.33.194-.485.097-.485z" fill="#f9f9f9" fill-rule="evenodd" stroke="#000" stroke-linejoin="round" stroke-width=".971"/>
</svg>
