<svg height='100px' width='100px'  fill="#000000" xmlns="http://www.w3.org/2000/svg" xmlns:xlink="http://www.w3.org/1999/xlink" version="1.1" x="0px" y="0px" viewBox="0 0 65 65" enable-background="new 0 0 65 65" xml:space="preserve"><g><rect x="14.7" y="6.3" transform="matrix(0.5 0.866 -0.866 0.5 15.0759 -11.8959)" width="6.4" height="1.5"></rect><rect x="3.9" y="17.1" transform="matrix(-0.866 -0.5 0.5 -0.866 4.3439 36.8438)" width="6.4" height="1.5"></rect><rect x="0" y="31.7" width="6.4" height="1.5"></rect><rect x="6.3" y="44" transform="matrix(-0.5 -0.866 0.866 -0.5 -30.1786 76.8976)" width="1.5" height="6.4"></rect><rect x="17.1" y="54.7" transform="matrix(-0.866 -0.5 0.5 -0.866 4.3409 116.9476)" width="1.5" height="6.4"></rect><rect x="44" y="57.1" transform="matrix(-0.5 -0.866 0.866 -0.5 20.6037 127.68)" width="6.4" height="1.5"></rect><rect x="54.7" y="46.4" transform="matrix(-0.866 -0.5 0.5 -0.866 84.4477 116.9483)" width="6.4" height="1.5"></rect><rect x="58.6" y="31.7" width="6.4" height="1.5"></rect><rect x="57.1" y="14.7" transform="matrix(0.5 0.866 -0.866 0.5 44.3932 -41.2155)" width="1.5" height="6.4"></rect><rect x="46.4" y="3.9" transform="matrix(0.866 0.5 -0.5 0.866 9.8736 -22.6295)" width="1.5" height="6.4"></rect><path d="M52.3,31.5c-0.1-10.5-8.5-19.1-19-19.5V9.8c0-0.4-0.3-0.8-0.8-0.8c-0.4,0-0.8,0.3-0.8,0.8V12c-10.5,0.4-19,9.1-19,19.7   c0,0,0,0,0,0c0,0.3,0.2,0.6,0.5,0.7c0.4,0.1,0.8-0.1,1-0.4c0.1-0.3,1.2-1,3.2-1c2,0,4.3,0.6,4.6,1c0.1,0.3,0.4,0.5,0.7,0.5   c0.1,0,0.1,0,0.2,0c0.3-0.1,0.5-0.3,0.5-0.6c0.7-1.8,3.8-2.9,8.3-3.1v23c0,1.4-1.2,2.6-2.6,2.6c-1.4,0-2.6-1.2-2.6-2.6   c0-0.4-0.3-0.8-0.8-0.8c-0.4,0-0.8,0.3-0.8,0.8c0,2.3,1.8,4.1,4.1,4.1c2.3,0,4.1-1.8,4.1-4.1v-23c4.5,0.1,7.7,1.3,8.3,3.1   c0,0,0,0,0,0c0.1,0.2,0.2,0.4,0.5,0.5c0.1,0,0.2,0,0.3,0c0.3,0,0.5-0.1,0.6-0.4c0,0,0-0.1,0.1-0.1c0.3-0.4,2.6-1,4.6-1   c1.9,0,3.1,0.6,3.2,1c0.1,0.4,0.6,0.6,1,0.5C52.1,32.3,52.4,31.9,52.3,31.5C52.2,31.5,52.2,31.5,52.3,31.5z M14.4,30   c0.7-7.5,5.9-13.6,12.8-15.8c-3,3-4.9,8.7-5.2,16c-1.6-0.6-3.9-0.8-4.6-0.8C16.4,29.4,15.2,29.6,14.4,30z M22.5,30.5   C22.5,30.5,22.5,30.5,22.5,30.5L22.5,30.5C22.5,30.5,22.5,30.5,22.5,30.5z M32.5,27.3C32.5,27.3,32.5,27.3,32.5,27.3L32.5,27.3   C32.5,27.3,32.5,27.3,32.5,27.3c-4,0-7.1,0.8-8.9,2.1c0.5-9.5,4-15.9,8.9-15.9c4.9,0,8.4,6.5,8.9,15.9C39.6,28,36.6,27.3,32.5,27.3   z M42.5,30.5C42.5,30.4,42.5,30.4,42.5,30.5l0.1-0.1C42.6,30.4,42.5,30.4,42.5,30.5z M43,30.2c-0.2-7.3-2.1-13-5.2-16   C44.8,16.4,50,22.5,50.6,30c-0.9-0.4-2-0.6-3.1-0.6C46.9,29.4,44.6,29.6,43,30.2z"></path></g></svg>