<svg height='100px' width='100px'  fill="#000000" xmlns="http://www.w3.org/2000/svg" viewBox="0 0 64 64" x="0px" y="0px"><g><path d="M42,8A14,14,0,1,0,56,22,14.0158,14.0158,0,0,0,42,8Zm0,26A12,12,0,1,1,54,22,12.0131,12.0131,0,0,1,42,34ZM42,4A17.9853,17.9853,0,0,0,26.2443,30.6854L7.3519,49.577l0,0,0,0L5.124,51.8047a3.8559,3.8559,0,0,0,0,5.4443l1.627,1.627a3.8559,3.8559,0,0,0,5.4443,0l2.2272-2.2274,0,0,0,0L33.3146,37.7557A17.9962,17.9962,0,1,0,42,4ZM10.7813,57.4619a1.8532,1.8532,0,0,1-2.6163,0L6.5381,55.835a1.8531,1.8531,0,0,1,0-2.6162l1.5206-1.52,4.243,4.243Zm2.9345-2.9346L9.4727,50.2842,27.3448,32.4129a18.1337,18.1337,0,0,0,4.2423,4.2423ZM42,38A16,16,0,1,1,58,22,16.0183,16.0183,0,0,1,42,38Zm3-12v2a1,1,0,0,1-2,0V26a1,1,0,0,1,2,0Zm0-4a1,1,0,0,1-2,0,1,1,0,0,0-2,0v6a1,1,0,0,1-2,0V22a3,3,0,0,1,6,0Zm4,0v6a1,1,0,0,1-2,0V22a5,5,0,0,0-7.7187-4.1963,1,1,0,1,1-1.09-1.6777A7.0009,7.0009,0,0,1,49,22ZM37.2305,20.4941A4.9819,4.9819,0,0,0,37,22v6a1,1,0,0,1-2,0V22a7.0115,7.0115,0,0,1,.3223-2.1074,1,1,0,0,1,1.9082.6015Z"></path></g></svg>