<svg height='100px' width='100px'  fill="#000000" xmlns="http://www.w3.org/2000/svg" data-name="Layer 1" viewBox="0 0 128 128" x="0px" y="0px"><title>Miscellaneous 51 final </title><path d="M120.88647,93.27734A63.98385,63.98385,0,1,0,.05646,61.77509a1.99392,1.99392,0,0,0-.01953.76886C.026,63.02966,0,63.51172,0,64a63.634,63.634,0,0,0,14.077,39.97009L1.43359,107.707A1.99966,1.99966,0,0,0,.082,110.19141,2.02716,2.02716,0,0,0,2.56641,111.543l38.59668-11.40723C58.02454,95.20264,62.82574,91.60382,63.859,88.73169c2.1684,1.37457,2.574,2.56049,2.598,3.20581.26953,7.2627-28.51855,19.44531-49.0459,25.77637a2,2,0,0,0-1.32227,2.5,2.024,2.024,0,0,0,2.5,1.32227c8.74512-2.69629,52.3457-16.80273,51.86523-29.74707-.131-3.542-3.11078-6.39142-9.077-8.63708a16.38234,16.38234,0,0,0-2.83936-1.47021c3.69958.06866,6.548.18518,7.91241.2655,7.92975.46271,15.73187.97815,23.29053,3.58032,5.77173,1.987,12.32422,4.81616,16.11108,9.8338a10.66026,10.66026,0,0,1,1.87085,3.73431c1.37793,5.36426-2.38379,11.751-11.17871,18.98437a2.00024,2.00024,0,0,0,2.541,3.08984c10.10252-8.30859,14.31152-16.07227,12.51074-23.07422-.98645-3.83295-3.69275-6.959-7.08209-9.4776,8.25122,2.99414,14.05151,6.86993,17.03326,11.51276,3.0293,4.71777,3.26465,10.19141.7207,16.73535a2.00013,2.00013,0,0,0,3.72852,1.44922c2.998-7.71191,2.63379-14.55762-1.084-20.3457A23.74039,23.74039,0,0,0,120.88647,93.27734Zm-3.17108-2.52417c-12.39105-8.66333-33.67932-11.78674-51.03278-12.8-3.41016-.19824-15.89154-.627-28.09662,0a2.03841,2.03841,0,0,0-1.80933,2.46832A1.97157,1.97157,0,0,0,38.291,81.91016l15.01074,3.041A53.5252,53.5252,0,0,1,59.84,86.83368a.95189.95189,0,0,1,.25574.42218c-.001.03125-.27539,3.25293-20.06055,9.042l-21.817,6.4483A59.7,59.7,0,0,1,4,64c0-.26886.01672-.53357.02026-.80157l9.30939-6.92413L18.88379,58.272a2.001,2.001,0,0,0,1.35352,0L25.123,56.51563,30.00586,58.272a1.998,1.998,0,0,0,1.35352.00049l4.8877-1.75732,4.8916,1.75732a1.99926,1.99926,0,0,0,1.35156,0l4.53229-1.62787L66.05664,73.49707A2,2,0,0,0,68.709,70.50293l-6.51288-5.76642L71.838,57.48474l4.29968,1.757a2.0006,2.0006,0,0,0,1.51367,0l4.13672-1.69092L85.9248,59.2417a1.99808,1.99808,0,0,0,1.51268,0l4.1426-1.69141,4.14551,1.69141a1.99868,1.99868,0,0,0,1.51172,0l3.99939-1.632,14.83948,10.1217a2.00007,2.00007,0,1,0,2.25391-3.30469L86.80273,42.92236a2.0002,2.0002,0,0,0-2.3291.0542l-25.334,19.05371-26.291-23.27783A2.00207,2.00207,0,0,0,30.3291,38.645l-26.03,19.36084A60.00154,60.00154,0,1,1,117.71539,90.75317ZM17.18176,53.40918l14.23132-10.585L43.6076,53.62109l-1.79315.644-4.8916-1.75732a1.99816,1.99816,0,0,0-1.35254,0l-4.8877,1.75684L25.7998,52.5083a2.001,2.001,0,0,0-1.35352,0l-4.88574,1.75635Zm58.37939,1.27539,10.17126-7.6499,11.54132,7.87207-.7923.32324-4.14551-1.69141a1.99564,1.99564,0,0,0-1.51172,0l-4.14258,1.69092-4.13672-1.69092a2.00061,2.00061,0,0,0-1.51367,0l-4.13672,1.69092Z"></path><path d="M73.54883,85.15723A2.00088,2.00088,0,0,0,72.0166,82.7793c-1.25684-.27148-2.09277-.38281-2.12793-.3877a2,2,0,0,0-.52148,3.96582c.00684.001.72168.09766,1.80371.332a2.03973,2.03973,0,0,0,.4248.04492A2.001,2.001,0,0,0,73.54883,85.15723Z"></path><path d="M83.793,97.51855a1.99838,1.99838,0,0,0-2.7041.83105,19.94254,19.94254,0,0,1-2.27246,3.31055,1.99959,1.99959,0,1,0,3.08008,2.55078,23.9241,23.9241,0,0,0,2.72754-3.98828A2.00143,2.00143,0,0,0,83.793,97.51855Z"></path><path d="M68.91992,113.0332a2,2,0,0,0,2.79883.4082c1.27637-.95215,2.47656-1.89258,3.56836-2.79492a2.00034,2.00034,0,0,0-2.55078-3.082c-1.03906.86035-2.18652,1.75879-3.4082,2.66992A2,2,0,0,0,68.91992,113.0332Z"></path><path d="M84.72266,89.78516a12.48926,12.48926,0,0,0-3.80957-3.59863,1.99988,1.99988,0,0,0-2.14648,3.375,8.56073,8.56073,0,0,1,2.6123,2.41895,2,2,0,1,0,3.34375-2.19531Z"></path><path d="M61.502,119.958a1.98939,1.98939,0,0,0,1.06053-.30566q.87307-.54785,1.708-1.083a2.00026,2.00026,0,0,0-2.16016-3.36719q-.81738.52588-1.67287,1.06152A2,2,0,0,0,61.502,119.958Z"></path><path d="M80.97333,13.95428a11.75009,11.75009,0,0,0-5.61774-1.79437,6.03586,6.03586,0,0,0-3.38489.98743l-5.79687,3.89325-8.8241-5.36285a4,4,0,0,0-5.39807,5.64838l4.529,6.74341-2.38794,1.855a8.07231,8.07231,0,0,0-5.98645,1.2384,4,4,0,0,0-1.09052,5.55078l5.58777,8.31989A4,4,0,0,0,58.15436,42.124a8.06893,8.06893,0,0,0,3.41351-5.07465l2.618-1.5072,4.529,6.74347a4,4,0,0,0,7.27069-2.86011L74.35931,29.22839l5.79688-3.89331c1.20978-.8125,2.68091-2.49152,2.81927-5.87634a14.41377,14.41377,0,0,0-.16058-2.76257A4,4,0,0,0,80.97333,13.95428Zm-1.99451,5.34106a3.417,3.417,0,0,1-1.0528,2.71918l-7.91949,5.31885,2.02893,12.72211-6.61029-9.84241-7.76447,4.47021a4.05781,4.05781,0,0,1-1.73657,4.12018l-5.58777-8.31989a4.07235,4.07235,0,0,1,3.03815-.624,3.95731,3.95731,0,0,1,1.43274.575l7.07526-5.49634-6.61023-9.84235L66.28137,21.7868l7.91949-5.31891a2.0409,2.0409,0,0,1,1.15472-.308,8.31731,8.31731,0,0,1,3.51416,1.19653A10.57066,10.57066,0,0,1,78.97882,19.29535Z"></path></svg>