<svg height='100px' width='100px'  fill="#000000" xmlns="http://www.w3.org/2000/svg" data-name="Layer 1" viewBox="0 0 128 128" x="0px" y="0px"><title>Miscellaneous 50 expandlines</title><path d="M12,20a6,6,0,1,0-6-6A6,6,0,0,0,12,20Zm0-8a2,2,0,1,1-2,2A2,2,0,0,1,12,12Z"></path><circle cx="2" cy="2" r="2"></circle><path d="M116,20a6,6,0,1,0-6-6A6,6,0,0,0,116,20Zm0-8a2,2,0,1,1-2,2A2,2,0,0,1,116,12Z"></path><circle cx="126" cy="2" r="2"></circle><path d="M12,108a6,6,0,1,0,6,6A6,6,0,0,0,12,108Zm0,8a2,2,0,1,1,2-2A2,2,0,0,1,12,116Z"></path><circle cx="2" cy="126" r="2"></circle><path d="M116,108a6,6,0,1,0,6,6A6,6,0,0,0,116,108Zm0,8a2,2,0,1,1,2-2A2,2,0,0,1,116,116Z"></path><circle cx="126" cy="126" r="2"></circle><path d="M50.37,45.76a16.11,16.11,0,0,1-3,3.37,10.16,10.16,0,0,1,7.2,4.95,16,16,0,0,1,3.49-1.94A14.24,14.24,0,0,0,50.37,45.76Z"></path><path d="M14,59.26V73.11A3.88,3.88,0,0,0,17.87,77H41.74A18.28,18.28,0,0,1,47,73H18V59.26a10.23,10.23,0,0,1,8.6-10.13,16.11,16.11,0,0,1-3-3.37A14.27,14.27,0,0,0,14,59.26Z"></path><path d="M113,73.11V59.26a14.27,14.27,0,0,0-9.63-13.51,16.11,16.11,0,0,1-3,3.37A10.23,10.23,0,0,1,109,59.26V73H81a18.28,18.28,0,0,1,5.22,4h22.87A3.88,3.88,0,0,0,113,73.11Z"></path><path d="M69.08,51.84a15.94,15.94,0,0,1,3.63,1.75,10.14,10.14,0,0,1,6.89-4.46,16.11,16.11,0,0,1-3-3.37A14.24,14.24,0,0,0,69.08,51.84Z"></path><path d="M127.11,59.34a2,2,0,0,0-2.77.55l-.44.66a59.93,59.93,0,1,0-3.29,23.38,2,2,0,1,0-3.77-1.33,56.07,56.07,0,1,1,3-22.43l-.19-.29a2,2,0,0,0-3.33,2.22l4,6a2,2,0,0,0,3.33,0l4-6A2,2,0,0,0,127.11,59.34Z"></path><circle cx="120.44" cy="75.25" r="2"></circle><path d="M37,25A12,12,0,1,0,49,37,12,12,0,0,0,37,25Zm0,20a8,8,0,1,1,8-8A8,8,0,0,1,37,45Z"></path><path d="M90,49A12,12,0,1,0,78,37,12,12,0,0,0,90,49Zm0-20a8,8,0,1,1-8,8A8,8,0,0,1,90,29Z"></path><path d="M44.87,107H83.13A3.88,3.88,0,0,0,87,103.11V89.26a14.27,14.27,0,0,0-9.63-13.51,16.11,16.11,0,0,1-3,3.37A10.23,10.23,0,0,1,83,89.26V103H45V89.26a10.23,10.23,0,0,1,8.6-10.13,16.11,16.11,0,0,1-3-3.37A14.27,14.27,0,0,0,41,89.26v13.85A3.88,3.88,0,0,0,44.87,107Z"></path><path d="M52,67A12,12,0,1,0,64,55,12,12,0,0,0,52,67Zm20,0a8,8,0,1,1-8-8A8,8,0,0,1,72,67Z"></path></svg>