<svg height='100px' width='100px'  fill="#000000" xmlns="http://www.w3.org/2000/svg" data-name="Layer 1" viewBox="0 0 64 64" x="0px" y="0px"><title>P B 4</title><path d="M30.76,19.12v0a9.21,9.21,0,0,0-5.57-6.92,9,9,0,0,0-2.45-.63L22,11.49a9.26,9.26,0,0,0-1.9.13A9.19,9.19,0,0,0,21.7,29.87h0a9.2,9.2,0,0,0,8.94-7.26l.06-.31A9.37,9.37,0,0,0,30.76,19.12Zm-6.59,5.51a3.2,3.2,0,0,1-1.77,1v1.66H21V25.71l-.25,0a4.73,4.73,0,0,1-1.85-.57L18.68,25l-.14-.1.51-1.44v0l.24.16a3.7,3.7,0,0,0,.81.4,3.92,3.92,0,0,0,1.31.23,2.14,2.14,0,0,0,.76-.13A1.24,1.24,0,0,0,23,22.91a1.22,1.22,0,0,0-.15-.61,2.76,2.76,0,0,0-1.47-1A5.35,5.35,0,0,1,19.31,20a2.31,2.31,0,0,1-.48-.85,2.52,2.52,0,0,1-.11-.75,2.6,2.6,0,0,1,.5-1.56,2.87,2.87,0,0,1,1.34-1,3.53,3.53,0,0,1,.51-.15V14.07h1.41v1.52a4.53,4.53,0,0,1,1.37.3,3.94,3.94,0,0,1,.55.27l.16.1L24,17.7l-.23-.13c-.08,0-.2-.11-.35-.18a3.54,3.54,0,0,0-1.5-.32c-1.05,0-1.42.6-1.42,1.11s.42,1,1.79,1.57c1.57.64,2.34,1.42,2.51,2.55a3.52,3.52,0,0,1,0,.5A2.78,2.78,0,0,1,24.17,24.63Z"></path><path d="M51,42.17a7.39,7.39,0,0,0-.07-.77q0-.29-.1-.57a7.69,7.69,0,0,0-8.44-6l-.3,0a7.69,7.69,0,0,0-6.29,6c0,.12,0,.25-.07.37A7.83,7.83,0,0,0,35.8,44,7.68,7.68,0,0,0,43,50.12,7.66,7.66,0,0,0,50.84,44,7.51,7.51,0,0,0,51,42.17Zm-5.68,5.61a6.2,6.2,0,0,1-1.51.19H43.6a5.32,5.32,0,0,1-3-1l-.3-.24a5.2,5.2,0,0,1-1.63-2.59l0-.13v0h-1a.07.07,0,0,1-.07-.07v-.73a.07.07,0,0,1,.07-.07h.81l0-.26a7.52,7.52,0,0,1,0-1.05l0-.26h-.82a.07.07,0,0,1-.07-.07v-.76a.07.07,0,0,1,.07-.07h1l.06-.16a5.2,5.2,0,0,1,3.49-3.33,5.54,5.54,0,0,1,1.55-.22,7.27,7.27,0,0,1,1.31.13.07.07,0,0,1,0,0,.06.06,0,0,1,0,.05l0,.08-.29,1.07a.07.07,0,0,1-.08,0,5.23,5.23,0,0,0-1-.11,3.7,3.7,0,0,0-1.27.22l-.37.16a3.5,3.5,0,0,0-1.62,1.7l-.16.34h3.94a.07.07,0,0,1,.05,0,.07.07,0,0,1,0,.06l-.17.77a.09.09,0,0,1-.06.05h-4l0,.22a5.78,5.78,0,0,0,0,1.13l0,.22H43.8a.07.07,0,0,1,.05,0,.07.07,0,0,1,0,.06l-.16.73a.09.09,0,0,1-.07.05H40.36l0,0,.09.23,0,.05a3.85,3.85,0,0,0,.56,1,3.49,3.49,0,0,0,2.79,1.36H44a5.65,5.65,0,0,0,1.07-.14h.05a.07.07,0,0,1,0,0l0,.13.2,1A.07.07,0,0,1,45.32,47.77Z"></path><path d="M49.35,19.44c0-.11,0-.21-.05-.32a6.3,6.3,0,0,0-5.19-5,6.48,6.48,0,0,0-1-.07A6.29,6.29,0,0,0,37,22c0,.12.06.23.1.34a6.29,6.29,0,0,0,5.08,4.27,6.36,6.36,0,0,0,.89.06,6.27,6.27,0,0,0,2.27-.42l.29-.12a6.29,6.29,0,0,0,3.67-6.66ZM46.5,16.33,45.6,18,45,19.12l-.27.5h1.42a.11.11,0,0,1,.11.11v.66a.11.11,0,0,1-.11.11h-1.9l-.46.87v.72h2.36a.11.11,0,0,1,.11.11v.66a.11.11,0,0,1-.11.11H43.82v2a.11.11,0,0,1-.11.11H42.55a.11.11,0,0,1-.11-.11V23H40.08a.11.11,0,0,1-.11-.11v-.66a.11.11,0,0,1,.11-.11h2.36v-.72L42,20.51h-1.9A.11.11,0,0,1,40,20.4v-.66a.11.11,0,0,1,.11-.11H41.5l-.43-.8-.27-.5-1.06-2a.11.11,0,0,1,0-.11.11.11,0,0,1,.1-.05h1.34l.1.06L42,17.64l.45.92c.29.7.55,1.46.55,1.47l0,.09h.22l0-.09s.26-.77.55-1.47l.31-.63.49-1,.34-.7a.11.11,0,0,1,.1-.06H46.4a.11.11,0,0,1,.1.06A.11.11,0,0,1,46.5,16.33Z"></path><path d="M35.35,19.12h-3a11.09,11.09,0,0,1,.11,1.56,10.82,10.82,0,0,1-.12,1.62h3.14a7.94,7.94,0,0,1-.15-3.18Z"></path><path d="M60.66,22.3q-.35-1-.79-2.08-.24-.56-.49-1.1a30.27,30.27,0,0,0-54.76,0q-.26.55-.49,1.1-.43,1-.79,2.08a30.23,30.23,0,0,0,.79,21.47l.1.23a30.27,30.27,0,0,0,55.55,0l.1-.23a30.37,30.37,0,0,0,.79-21.47ZM7.74,44H19.6a44.21,44.21,0,0,0,2.56,8.82,23.31,23.31,0,0,0,3,5.38A27.19,27.19,0,0,1,7.74,44Zm49.85-3.18H52.46c0,.12,0,.24.06.36a9.26,9.26,0,0,1,.08.92h0A9.13,9.13,0,0,1,52.46,44h3.8A27.19,27.19,0,0,1,39,58.15a23.42,23.42,0,0,0,3-5.33q.23-.56.46-1.15a9.17,9.17,0,0,1-3.09-.84q-.15.38-.3.76c-2,4.7-4.52,7.4-7,7.4s-5-2.7-7-7.4A40.27,40.27,0,0,1,22.84,44H34.18a9.5,9.5,0,0,1,0-3.06l0-.12H22.3A64.4,64.4,0,0,1,21.71,32q0-.27,0-.54h0A10.84,10.84,0,0,1,18.53,31q0,.5,0,1a67.78,67.78,0,0,0,.57,8.82H6.41A27.09,27.09,0,0,1,6.73,22.3H11a10.92,10.92,0,0,1,0-3.18H8.2a27.18,27.18,0,0,1,17-13.33,21.74,21.74,0,0,0-2.5,4.15l.2,0a10.58,10.58,0,0,1,2.95.77C27.69,7.07,29.91,5,32.08,5c2.48,0,5,2.7,7,7.4q.2.48.39,1a7.89,7.89,0,0,1,3.07-.88q-.25-.68-.52-1.33a23.42,23.42,0,0,0-3-5.33A27.19,27.19,0,0,1,55.8,19.12h-4.9l0,.1A8.25,8.25,0,0,1,51,20.36a7.81,7.81,0,0,1-.24,1.94h6.51a27.09,27.09,0,0,1,.32,18.52Z"></path><path d="M45.62,33.45q0-.72,0-1.45c0-1.4,0-2.78-.12-4.14a7.81,7.81,0,0,1-2.38.37,7.71,7.71,0,0,1-.78,0c.07,1.25.11,2.52.11,3.81q0,.6,0,1.21A9.27,9.27,0,0,1,45.62,33.45Z"></path></svg>