<svg height='100px' width='100px'  fill="#000000" xmlns="http://www.w3.org/2000/svg" xmlns:xlink="http://www.w3.org/1999/xlink" version="1.1" x="0px" y="0px" viewBox="0 0 64 64" style="enable-background:new 0 0 64 64;" xml:space="preserve"><g><path d="M63,39.071C63,34.621,59.379,31,54.929,31c-1.019,0-2.007,0.194-2.929,0.553V16.858c1.72-0.447,3-2,3-3.858v-0.486   L41.403,1.832v0c-1.365-1.071-3.443-1.072-4.808,0l-13.05,10.254l-4.142-3.255c-1.365-1.071-3.443-1.072-4.808,0L1,19.514V20   c0,1.858,1.28,3.411,3,3.858V50H1v13h38.659c5.605,0,11.103-1.929,15.479-5.43C57.592,55.606,59,52.679,59,49.535   c0-0.848-0.423-1.596-1.064-2.057l2.7-2.7C62.16,43.254,63,41.227,63,39.071z M49.222,33.364L49,33.586l-0.222-0.222   C47.254,31.84,45.227,31,43.071,31c-2.227,0-4.245,0.906-5.707,2.37l-7.957-6.51c-0.412-0.338-0.898-0.56-1.407-0.691V26h22v6.688   C49.73,32.898,49.467,33.119,49.222,33.364z M25,49.834V44h4v3.554c-0.354,0.142-0.702,0.301-1.032,0.499L25,49.834z M23,42v8h-4   V40h16.001v7.697c-0.162-0.06-0.327-0.105-0.488-0.169c-1.117-0.446-2.329-0.594-3.514-0.47V42H23z M6,23.468l11-9.166l9,7.5v4.366   c-0.509,0.132-0.995,0.354-1.407,0.691L23.199,28H6V23.468z M50,24H28v-7.532l11-9.166l11,9.166V24z M25.859,28.407   c0.642-0.525,1.64-0.525,2.281,0l8.001,6.547C35.596,35.87,35.227,36.899,35.08,38H17.999c-0.953,0-1.752-0.67-1.951-1.563   L25.859,28.407z M17,50h-4v-6h4V50z M37.001,44.378c0.118,0.135,0.235,0.272,0.363,0.4l4.193,4.193   c-1.547-0.044-3.069-0.262-4.556-0.648V44.378z M37.83,3.404c0.664-0.521,1.673-0.521,2.337,0L52.95,13.447   c-0.179,0.783-0.82,1.393-1.62,1.526L39,4.698L26.67,14.973c-0.8-0.133-1.441-0.743-1.62-1.526L37.83,3.404z M3.05,20.446   l12.78-10.042c0.664-0.521,1.673-0.521,2.337,0l5.103,4.01c0.457,1.201,1.471,2.117,2.729,2.445v2.341l-9-7.5L4.67,21.973   C3.871,21.84,3.229,21.23,3.05,20.446z M6,30h14.755L14,35.528v0.474c0,1.857,1.28,3.41,3,3.856V42h-6v8H6V30z M3,52h21v9H3V52z    M53.889,56.008C49.865,59.228,44.812,61,39.659,61H26v-9.434l2.997-1.798c1.428-0.855,3.228-1,4.774-0.382   C36.449,50.457,39.27,51,42.155,51H44c0.551,0,1,0.448,1,1c0,0.918-0.414,1.74-1.065,2.291C42.602,54.742,41.2,54.983,39.773,55H36   v2l3.614,0.001c0.057,0,0.113,0,0.17-0.001H42c1.079,0,2.079-0.344,2.896-0.927c1.158-0.42,2.268-0.98,3.308-1.674l7.964-5.31   C56.501,48.868,57,49.134,57,49.535C57,52.067,55.866,54.427,53.889,56.008z M55.251,47.335c-0.063,0.034-0.133,0.051-0.193,0.091   l-7.964,5.31c-0.055,0.037-0.11,0.073-0.166,0.109C46.976,52.569,47,52.287,47,52c0-1.497-1.105-2.73-2.539-2.953l-5.682-5.682   c-1.14-1.139-1.769-2.653-1.777-4.263v-0.059C37.017,35.708,39.733,33,43.071,33c1.622,0,3.146,0.632,4.293,1.778L49,36.414   l1.636-1.636C51.783,33.632,53.307,33,54.929,33C58.276,33,61,35.724,61,39.071c0,1.621-0.631,3.146-1.778,4.293L55.251,47.335z"></path><path d="M55.015,35.001l-0.041,2C56.091,37.023,57,37.952,57,39.071c0,0.545-0.221,1.079-0.607,1.465l-3.765,3.765l1.414,1.414   l3.765-3.765C58.565,41.191,59,40.143,59,39.071C59,36.872,57.212,35.046,55.015,35.001z"></path><path d="M13,18v8h8v-8H13z M19,24h-4v-4h4V24z"></path><path d="M32,22h14v-8H32V22z M44,20h-4v-4h4V20z M34,16h4v4h-4V16z"></path></g></svg>