<svg height='100px' width='100px'  fill="#000000" xmlns="http://www.w3.org/2000/svg" xmlns:xlink="http://www.w3.org/1999/xlink" version="1.1" x="0px" y="0px" viewBox="0 0 50 50" enable-background="new 0 0 50 50" xml:space="preserve"><g><path d="M31.02345,15.50938c-0.8262,0-1.4991,0.6729-1.4991,1.499c0,0.8262,0.6729,1.4991,1.4991,1.4991   c0.8261,0,1.499-0.6729,1.499-1.4991C32.52245,16.18228,31.84954,15.50938,31.02345,15.50938z M31.02345,17.50938   c-0.27638,0-0.501-0.2246-0.501-0.501c0-0.2763,0.22462-0.5009,0.501-0.5009c0.2763,0,0.5009,0.2246,0.5009,0.5009   C31.52434,17.28478,31.29974,17.50938,31.02345,17.50938z"></path><path d="M48.95065,22.86728c-0.4937-5.9159-5.2288-11.0113-10.7085-11.7905c-2.3035-0.3357-4.6194-0.3687-7.2158-0.3757   c0,0-0.0006-0.0003-0.001-0.0003h-5.5312c-1.6582,0-3.0079-1.3496-3.0079-3.0078c0-0.5527-0.44718-1-1-1c-0.5527,0-1,0.4473-1,1   c0,2.7617,2.2461,5.0078,5.0079,5.0078h1.0214c-0.874,0.9029-1.45248,2.0581-1.6852,3.3076h-3.3997c-0.5528,0-1,0.4473-1,1   c0,0.5528,0.4472,1,1,1h3.3326c0.0355,0.2908,0.075,0.5819,0.15082,0.8711c0.72358,2.7852,3.33688,4.8184,6.208,4.833   l1.02538,0.0039c1.1267,0,2.1777-0.011,3.30562,0.0098c0.72758,0.0127,1.33988,0.3164,1.72367,0.8565   c0.45932,0.6457,0.558,1.5981,0.3282,2.7158c-2.0471-0.1985-3.8552,0.4028-5.33988,1.7832   c-0.78272,0.7333-1.53192,1.5207-2.71492,2.748c-0.7549,0.7754-1.21,1.2442-1.1982,1.9678c0.0117,0.7207,0.4746,1.167,1.2519,1.916   c0.1426,0.1328,0.293,0.2422,0.4317,0.3399c1.2754,0.9179,2.7412,1.2822,4.3818,1.0996c-0.2354,2.1386,0.4736,4.0049,2.124,5.5693   c0.1563,0.1445,0.6299,0.584,1.2901,0.584c0.4638,0,0.9004-0.2109,1.2939-0.6231l0.2949-0.3056   c0.8125-0.8428,1.6524-1.7139,2.5147-2.5176c1.8359-1.7097,2.5989-3.7705,2.2953-6.1287c3.1113-1.6568,4.886-5.195,4.8697-9.8967   c-0.0005-0.1665-0.01788-0.3309-0.0253-0.4967C49.00554,23.18198,48.99614,23.02308,48.95065,22.86728z M46.91264,22.67538   c-3.69858,2.49-6.4674,2.2528-7.5005,2.0242c-0.13808-0.4644-0.3347-0.896-0.6055-1.2771   c-0.053-0.0742-0.1244-0.1291-0.1817-0.1992c3.1176-2.5745,3.539-6.1033,3.121-8.7324   C44.61765,16.33878,46.51354,19.58658,46.91264,22.67538z M32.14745,21.71638l-1.0108-0.0039   c-1.9843-0.0107-3.7871-1.413-4.2871-3.3388c-0.5322-2.0264,0.3731-4.1631,2.14752-5.0762   c0.76758-0.3906,1.45988-0.5967,2.02538-0.5967c2.5019,0.0059,4.75,0.0371,6.9355,0.3555c0.5057,0.072,0.9903,0.1971,1.4635,0.3465   c0.45162,1.3698,1.4678,5.7404-2.5179,8.61c-0.445-0.1627-0.9134-0.2776-1.4143-0.2866   C34.34264,21.70558,33.29295,21.71638,32.14745,21.71638z M30.37307,33.76228c0.14008-0.1583,2.31328-2.4275,3.15618-3.2177   c1.05082-0.9766,2.2901-1.3907,3.7109-1.2696c0.0205,0.833,0.2431,1.9671,0.659,2.7095l-2.823,2.9861   C32.93064,35.53398,31.59184,35.03368,30.37307,33.76228z M40.47165,38.39708c-0.9014,0.8389-1.7607,1.7305-2.5918,2.5928   l-0.1719,0.1748c-1.3486-1.3327-1.7257-2.8694-1.199-4.7996l2.77412-2.9343c0.60448,0.3733,1.70078,0.7345,2.89758,0.7651   C42.33685,35.82478,41.78214,37.17538,40.47165,38.39708z M42.81614,32.18168c-2.7776,0.1262-3.69908-1.0574-3.56008-3.6176   c0.19428-0.6277,0.30518-1.2324,0.34938-1.8112c0.3332,0.0435,0.7148,0.0749,1.1523,0.0749c1.53532,0,3.6859-0.3858,6.1978-1.8274   C46.78407,27.26058,45.98895,30.77298,42.81614,32.18168z"></path><path d="M13.02044,15.88438c0.5528,0,1-0.4472,1-1v-0.0771c0-0.5528-0.4472-0.9619-1-0.9619   C11.73545,13.84538,11.66474,15.88438,13.02044,15.88438z"></path><path d="M1.96484,28.72328c0.3339,0.3594,0.8056,0.5644,1.2959,0.5644c0.4599,0,0.8994-0.1748,1.23532-0.4931l0.84038-0.7918   c0.9988,3.8422,3.2985,7.0708,5.0014,9.0564l-4.54,4.5401c-0.2862,0.2861-0.3721,0.7158-0.21678,1.0898   c0.15428,0.374,0.51948,0.6172,0.92378,0.6172h13.1514c0.00782,0.001,0.0156,0.001,0.0195,0c0.5527,0,1-0.4473,1-1   c0-0.333-0.1621-0.6289-0.4131-0.8106l-4.46-4.5546c1.6689-1.9723,3.912-5.1597,4.8998-8.9259   c0.7143,0.5511,1.1157,1.2716,2.11,1.2716c0.4912,0,0.9639-0.2071,1.2998-0.5704c0.8672-0.9433,0.961-2.6591,0.961-3.4414   c0-0.9355-0.1456-2.6337-1.1094-3.4931c-1.2823-1.1786-2.7905,0.4192-2.9033,0.4712c-0.6891-4.9529-4.0892-10.0587-7.378-12.9722   c-0.7862-0.693-1.4951,0.1402-1.982,0.6274c-0.0018,0.0018-0.0042,0.0042-0.0059,0.0061   c-3.2952,3.2986-6.107,7.8009-6.7232,12.4047l-0.4656-0.4532c-0.6455-0.628-1.7422-0.6748-2.3887-0.0957   c-0.9717,0.8662-1.1172,2.5664-1.1172,3.5927C0.99994,26.23008,1.12494,27.81898,1.96484,28.72328z M14.08494,38.04458   l3.1933,3.2617h-8.3593l3.2334-3.2334c0.1778-0.1817,0.5155-0.3346,0.5722-0.8418c0.0323-0.2871-0.06248-0.5742-0.2578-0.7871   c-1.7773-1.9314-4.8544-5.8607-5.5084-10.492c-0.0017-0.02,0.0016-0.0398-0.0014-0.0598c-0.343-2.3796,0.074-4.6331,0.9507-6.8308   c1.5163,0.9842,3.2866,1.5232,5.1128,1.5232c1.8258,0,3.5957-0.5389,5.1118-1.5224c1.0375,2.6086,1.2505,4.8312,0.9507,6.9121   v0.0011c-0.6504,4.5506-3.6767,8.4549-5.4238,10.3768c-0.2002,0.2207-0.292,0.5195-0.25,0.8144   C13.48844,37.72368,13.87774,37.83738,14.08494,38.04458z M22.75875,23.46348c0.3984,0.8106,0.4352,2.8221,0.0049,3.708   l-1.6328-1.4521c0.0044-0.0429,0.0691-0.9719,0.0713-1.0342L22.75875,23.46348z M17.29264,17.22608   c-2.4912,1.7602-6.0531,1.7602-8.5443,0c1.09272-2.0781,2.5986-4.1018,4.2731-5.8046   C14.65564,13.08218,16.17295,15.09628,17.29264,17.22608z M3.30075,23.48398l1.5577,1.5161   c0.0122,0.2193,0.0314,0.4364,0.0544,0.6548l-1.6062,1.5137c-0.1817-0.3789-0.3067-1.1016-0.3067-1.8955   C2.99994,24.49178,3.13664,23.83268,3.30075,23.48398z"></path></g></svg>