<svg height='100px' width='100px'  fill="#000000" xmlns="http://www.w3.org/2000/svg" xmlns:xlink="http://www.w3.org/1999/xlink" version="1.1" x="0px" y="0px" viewBox="0 0 64 64" style="enable-background:new 0 0 64 64;" xml:space="preserve"><g><circle cx="28" cy="26" r="1"></circle><circle cx="36" cy="26" r="1"></circle><rect x="30" y="18.764" transform="matrix(0.8944 -0.4472 0.4472 0.8944 -6.1187 16.0807)" width="2" height="4.472"></rect><rect x="35" y="18.764" transform="matrix(0.8944 -0.4472 0.4472 0.8944 -5.5909 18.3167)" width="2" height="4.472"></rect><path d="M29,29h-2c0,2.206,1.794,4,4,4h4v-2h-4C29.897,31,29,30.103,29,29z"></path><path d="M45,39v6h8v-6H45z M51,43h-4v-2h4V43z"></path><rect x="47" y="47" width="6" height="2"></rect><rect x="47" y="51" width="6" height="2"></rect><path d="M55,16v-1h1c3.859,0,7-3.14,7-7V7h-3c-3.014,0-5.582,1.919-6.566,4.596C52.15,10.014,50.192,9,48,9h-3v1   c0,3.86,3.141,7,7,7h1v5.026C52.162,21.391,51.13,21,50,21h-3v1c0,2.757,2.243,5,5,5h1v4h-8v-7c0-2.775-0.884-5.46-2.51-7.679   C42.804,15.968,43,15.508,43,15V7h2c1.103,0,2-0.897,2-2V3c0-1.103-0.897-2-2-2H19c-1.103,0-2,0.897-2,2v12h2V7h2v8   c0,0.508,0.196,0.968,0.51,1.321c-1.035,1.413-1.757,3.018-2.154,4.712C9.179,21.376,1,29.741,1,40   c0,10.277,8.232,18.675,18.445,18.973C21.443,61.428,24.485,63,27.889,63c2.918,0,5.662-1.137,7.726-3.2L41,54.414V55   c0,1.103,0.897,2,2,2h15c1.654,0,3-1.346,3-3V34c0-1.654-1.346-3-3-3h-3v-4v-1v-1h1c3.859,0,7-3.14,7-7v-1h-3   c-1.958,0-3.728,0.81-5,2.111V17V16z M60,9h0.899c-0.465,2.279-2.484,4-4.899,4h-0.899C55.565,10.721,57.585,9,60,9z M52,15   c-2.415,0-4.435-1.721-4.899-4H48c2.415,0,4.435,1.721,4.899,4H52z M19,3h26v2H19V3z M41,7v8H23V7H41z M21,24   c0-2.564,0.901-5.032,2.528-7h16.944C42.099,18.968,43,21.436,43,24v11c-1.103,0-2,0.897-2,2v5.382   c-0.006-0.003-0.012-0.007-0.019-0.01l-1.909-0.954c-1.39-0.695-2.362-1.968-2.667-3.492l-0.11-0.548   C39.284,34.825,41,31.125,41,27.19V23h-2v4.19c0,3.394-1.496,6.587-4.104,8.761c-1.621,1.354-4.17,1.354-5.791,0   C26.496,33.777,25,30.584,25,27.19V23c0-1.103,0.897-2,2-2v-2c-2.206,0-4,1.794-4,4v4.19c0,3.935,1.716,7.635,4.705,10.188   l-0.11,0.548c-0.305,1.524-1.277,2.797-2.667,3.492l-1.909,0.954c-0.037,0.019-0.069,0.044-0.106,0.063   c-1.427-0.521-2.691-1.368-3.687-2.509C20.389,37.946,21,35.703,21,33.395V24z M42.465,50.121L41,51.586L38.414,49l1.465-1.465   C40.219,47.195,40.69,47,41.172,47C42.18,47,43,47.82,43,48.828C43,49.31,42.805,49.781,42.465,50.121z M29.512,38.486   C30.298,38.811,31.139,39,32,39s1.702-0.189,2.488-0.514c0.218,0.969,0.628,1.862,1.201,2.635l-0.28,1.122   C35.297,42.688,34.898,43,34.438,43h-4.877c-0.46,0-0.858-0.312-0.97-0.757l-0.28-1.123C28.885,40.348,29.294,39.455,29.512,38.486   z M19.65,45h-6.122C13.204,43.471,13,41.812,13,40c0-1.813,0.208-3.47,0.533-5h5.349c-0.235,1.584-0.816,3.097-1.714,4.445   l-0.393,0.589L17.2,40.6c1.001,1.336,2.273,2.405,3.732,3.16C20.47,44.142,20.038,44.552,19.65,45z M18.292,47   C17.471,48.543,17,50.28,17,52.111c0,0.386,0.022,0.767,0.061,1.143c-1.105-1.601-2.238-3.686-3.027-6.254H18.292z M19,33h-4.955   c1.281-4.16,3.458-7.06,4.955-8.675V33z M17.249,23.243C15.529,25.148,13.22,28.4,11.945,33h-7.42   C6.835,27.916,11.57,24.173,17.249,23.243z M3.753,35h7.728C11.186,36.541,11,38.197,11,40c0,1.803,0.186,3.459,0.48,5H3.754   C3.265,43.418,3,41.739,3,40C3,38.26,3.265,36.582,3.753,35z M4.529,47h7.414c1.273,4.594,3.581,7.84,5.314,9.757   C11.579,55.828,6.841,52.083,4.529,47z M34.2,58.386C32.515,60.071,30.272,61,27.889,61C22.987,61,19,57.013,19,52.111   c0-3.388,1.883-6.435,4.913-7.95l1.909-0.954c0.29-0.145,0.563-0.313,0.826-0.493l0.004,0.014C26.985,44.065,28.183,45,29.562,45   h4.877c1.379,0,2.576-0.935,2.91-2.272l0.003-0.013c0.263,0.18,0.536,0.348,0.826,0.493l1.909,0.954   c0.315,0.158,0.618,0.341,0.913,0.536v0.32c-0.957,0.043-1.854,0.423-2.535,1.104l-7.93,7.93C29.923,54.663,29.108,55,28.242,55   C26.454,55,25,53.546,25,51.758V51h-2v0.758C23,54.648,25.352,57,28.242,57c1.4,0,2.717-0.545,3.707-1.535L37,50.414L39.586,53   L34.2,58.386z M43,52.414l0.879-0.879C44.602,50.813,45,49.851,45,48.828c0-1.445-0.815-2.691-2-3.342V37h12v18H43V52.414z M58,55   h-1V37h1c0.352,0,0.686-0.072,1-0.184V54C59,54.552,58.552,55,58,55z M59,34c0,0.552-0.448,1-1,1H45v-2h13   C58.552,33,59,33.448,59,34z M60,19h0.899c-0.465,2.279-2.484,4-4.899,4h-0.899C55.565,20.721,57.585,19,60,19z M52,25   c-1.304,0-2.416-0.836-2.829-2H50c1.304,0,2.416,0.836,2.829,2H52z"></path></g></svg>