<svg height='100px' width='100px'  fill="#000000" xmlns="http://www.w3.org/2000/svg" xmlns:xlink="http://www.w3.org/1999/xlink" version="1.1" x="0px" y="0px" viewBox="0 0 100 100" enable-background="new 0 0 100 100" xml:space="preserve"><g display="none"><path display="inline" opacity="0.3" fill-rule="evenodd" clip-rule="evenodd" d="M84.927,53.98l2.599,2.758l3.775,0.505   l-2.938,2.094l-3.184-1.328l-1.769-3.278L84.927,53.98L84.927,53.98z M14.529,18.142l0.671,2.354l-2.339,4.36l1.841,3.667   l-1.501,5.025l-3.682,1.833l-0.671,1.834l2.173,4.866l-0.167,3.841l-0.332,2.844L5,54.615l0.39,2.57l2.548,0.217l2.512,5.183   l-1.508,3.841l4.18,1.675l1.169,2.339l3.011,1.516l2.844-6.873l5.681-7.523l-0.664-2.339l2.007-3.351l2.671,2.512l3.184,0.347   l2.837-5.689l3.343,2.007l0.339,4.505l2.678,1.675l6.18-1.675l6.187-5.675l6.692-1.169l7.19,0.996l4.52-1.674l3.335,2.671   l5.356,0.346l6.52,1.675l1.336-3.682h2.844l2.173-3.682l-2.007-3.35l-9.364-5.343H79.67l-5.681-1.848l-3.848,0.173l-6.187-3.004   l-6.52-3.855h-4.519l3.176-1.169l6.527,1.848l10.035,0.996l4.014-1.516l-3.01-2.339l-2.679,0.506l-7.522-1.502l-3.675-7.19h-4.187   l-2.007,0.837l-3.01-2.18l-19.392-4.173l-2.18,1.343l-4.346-1.185l-7.689,1.343L14.529,18.142z"></path></g><g display="none"><path display="inline" d="M18.681,35.281v-4.649h1.603c0.361,0,0.635,0.028,0.823,0.057c0.267,0.072,0.498,0.188,0.686,0.346   c0.238,0.203,0.427,0.462,0.549,0.794c0.123,0.318,0.18,0.679,0.18,1.098c0,0.36-0.036,0.664-0.122,0.939   c-0.08,0.274-0.188,0.505-0.318,0.678c-0.13,0.173-0.267,0.317-0.418,0.418c-0.159,0.101-0.34,0.188-0.563,0.231   c-0.217,0.058-0.462,0.087-0.745,0.087H18.681L18.681,35.281z M19.294,34.732h0.99c0.31,0,0.548-0.029,0.729-0.087   c0.173-0.058,0.31-0.129,0.412-0.245c0.152-0.145,0.26-0.332,0.339-0.578c0.087-0.246,0.13-0.549,0.13-0.895   c0-0.491-0.086-0.867-0.245-1.126c-0.159-0.26-0.354-0.434-0.585-0.534c-0.159-0.058-0.426-0.087-0.787-0.087h-0.982V34.732   L19.294,34.732z M23.179,33.014c0-0.765,0.209-1.372,0.621-1.805c0.418-0.448,0.953-0.665,1.61-0.665   c0.426,0,0.815,0.102,1.163,0.318c0.339,0.202,0.606,0.477,0.786,0.852c0.181,0.361,0.268,0.779,0.268,1.256   c0,0.462-0.094,0.881-0.282,1.256c-0.194,0.375-0.461,0.65-0.809,0.837c-0.346,0.203-0.729,0.304-1.126,0.304   c-0.44,0-0.83-0.115-1.176-0.318c-0.347-0.216-0.607-0.505-0.787-0.88C23.272,33.809,23.179,33.418,23.179,33.014L23.179,33.014z    M23.813,33.028c0,0.563,0.151,0.997,0.455,1.329c0.303,0.317,0.679,0.477,1.133,0.477c0.462,0,0.845-0.159,1.148-0.491   c0.296-0.317,0.448-0.78,0.448-1.387c0-0.375-0.072-0.707-0.195-0.996c-0.13-0.275-0.311-0.491-0.563-0.65   c-0.246-0.159-0.52-0.231-0.831-0.231c-0.433,0-0.809,0.145-1.119,0.447C23.972,31.83,23.813,32.321,23.813,33.028L23.813,33.028z    M28.405,35.281v-4.649h0.925l1.104,3.292c0.101,0.303,0.173,0.534,0.216,0.693c0.051-0.173,0.137-0.419,0.252-0.75l1.112-3.234   h0.831v4.649h-0.6v-3.898l-1.351,3.898H30.34l-1.343-3.957v3.957H28.405L28.405,35.281z M33.942,35.281v-4.649h0.614v4.649H33.942   L33.942,35.281z M35.632,35.281v-4.649h0.635l2.44,3.653v-3.653H39.3v4.649h-0.636l-2.44-3.653v3.653H35.632L35.632,35.281z    M40.433,35.281v-4.649h0.614v4.649H40.433L40.433,35.281z M45.45,33.649l0.621,0.159c-0.13,0.505-0.361,0.881-0.7,1.155   c-0.332,0.26-0.744,0.404-1.228,0.404c-0.498,0-0.909-0.101-1.22-0.318c-0.318-0.202-0.556-0.491-0.715-0.88   c-0.166-0.391-0.252-0.81-0.252-1.242c0-0.491,0.094-0.91,0.274-1.271c0.195-0.36,0.455-0.635,0.794-0.823   c0.339-0.188,0.722-0.275,1.126-0.275c0.469,0,0.859,0.116,1.177,0.347c0.317,0.246,0.534,0.563,0.664,0.996l-0.607,0.145   c-0.108-0.332-0.26-0.578-0.469-0.736c-0.203-0.159-0.462-0.231-0.773-0.231c-0.361,0-0.657,0.086-0.895,0.26   c-0.245,0.159-0.411,0.39-0.505,0.693c-0.102,0.274-0.152,0.577-0.152,0.881c0,0.404,0.057,0.75,0.173,1.04   c0.115,0.303,0.296,0.52,0.542,0.664c0.238,0.145,0.505,0.217,0.786,0.217c0.347,0,0.636-0.102,0.874-0.304   C45.212,34.343,45.371,34.04,45.45,33.649L45.45,33.649z M46.317,35.281l1.783-4.649h0.664l1.906,4.649h-0.7l-0.548-1.4h-1.942   l-0.505,1.4H46.317L46.317,35.281z M47.66,33.375h1.574L48.75,32.09c-0.151-0.39-0.26-0.723-0.332-0.967   c-0.058,0.289-0.137,0.592-0.245,0.88L47.66,33.375L47.66,33.375z M51.154,35.281v-4.649h0.635l2.433,3.653v-3.653h0.592v4.649   h-0.628l-2.44-3.653v3.653H51.154L51.154,35.281z M21.034,42.529V37.88h2.057c0.419,0,0.73,0.058,0.946,0.13   c0.217,0.086,0.39,0.231,0.521,0.448c0.129,0.202,0.188,0.433,0.188,0.692c0,0.333-0.101,0.607-0.318,0.838   c-0.217,0.23-0.542,0.375-0.989,0.433c0.166,0.072,0.288,0.159,0.368,0.231c0.181,0.173,0.354,0.375,0.513,0.621l0.809,1.256   h-0.773l-0.613-0.967c-0.181-0.274-0.333-0.491-0.448-0.635c-0.115-0.144-0.217-0.246-0.311-0.303   c-0.086-0.072-0.18-0.102-0.281-0.13c-0.072-0.014-0.181-0.029-0.34-0.029h-0.714v2.064H21.034L21.034,42.529z M21.648,39.931   h1.321c0.281,0,0.505-0.015,0.657-0.087c0.166-0.058,0.282-0.145,0.361-0.274c0.086-0.129,0.123-0.26,0.123-0.419   c0-0.217-0.073-0.39-0.238-0.534c-0.159-0.145-0.412-0.217-0.751-0.217h-1.472V39.931L21.648,39.931z M25.727,42.529V37.88h3.357   v0.548h-2.743v1.43h2.57v0.549h-2.57v1.573h2.858v0.549H25.727L25.727,42.529z M30.044,42.529V37.88h1.754   c0.31,0,0.548,0.015,0.707,0.058c0.224,0.028,0.419,0.102,0.578,0.217c0.151,0.101,0.274,0.245,0.368,0.447   c0.094,0.188,0.137,0.39,0.137,0.621c0,0.404-0.123,0.736-0.368,1.011c-0.26,0.274-0.707,0.418-1.365,0.418h-1.199v1.877H30.044   L30.044,42.529z M30.657,40.104h1.206c0.397,0,0.679-0.086,0.845-0.231s0.253-0.346,0.253-0.621c0-0.202-0.051-0.36-0.145-0.505   c-0.101-0.129-0.231-0.23-0.39-0.274c-0.108-0.029-0.295-0.043-0.578-0.043h-1.191V40.104L30.657,40.104z M37.43,37.88h0.62v2.7   c0,0.462-0.057,0.838-0.159,1.112c-0.115,0.274-0.303,0.491-0.578,0.664c-0.274,0.173-0.635,0.259-1.083,0.259   c-0.441,0-0.794-0.071-1.069-0.23c-0.281-0.145-0.484-0.361-0.599-0.65c-0.115-0.275-0.173-0.665-0.173-1.156v-2.7h0.613v2.686   c0,0.404,0.037,0.708,0.116,0.895c0.072,0.188,0.202,0.347,0.383,0.448c0.18,0.101,0.411,0.159,0.671,0.159   c0.455,0,0.78-0.116,0.968-0.318c0.194-0.202,0.289-0.592,0.289-1.184V37.88L37.43,37.88z M39.04,42.529V37.88h1.747   c0.361,0,0.643,0.058,0.859,0.144c0.209,0.101,0.383,0.246,0.498,0.434c0.123,0.202,0.187,0.404,0.187,0.62   c0,0.203-0.057,0.376-0.166,0.564c-0.108,0.173-0.267,0.317-0.491,0.418c0.289,0.087,0.499,0.232,0.65,0.419   c0.152,0.202,0.231,0.433,0.231,0.707c0,0.217-0.05,0.419-0.145,0.607c-0.086,0.188-0.202,0.332-0.332,0.434   c-0.137,0.101-0.311,0.173-0.512,0.23c-0.203,0.058-0.455,0.072-0.75,0.072H39.04L39.04,42.529z M39.66,39.844h1.004   c0.274,0,0.47-0.028,0.584-0.058c0.159-0.043,0.274-0.129,0.354-0.231c0.08-0.101,0.123-0.245,0.123-0.404   c0-0.159-0.043-0.288-0.108-0.404c-0.08-0.129-0.181-0.202-0.317-0.245c-0.145-0.043-0.376-0.072-0.715-0.072H39.66V39.844   L39.66,39.844z M39.66,41.98h1.156c0.202,0,0.339,0,0.418-0.014c0.145-0.029,0.26-0.072,0.354-0.129   c0.094-0.058,0.18-0.145,0.238-0.26c0.058-0.116,0.086-0.246,0.086-0.391c0-0.173-0.036-0.317-0.129-0.447   c-0.086-0.129-0.209-0.217-0.369-0.274c-0.159-0.043-0.39-0.072-0.678-0.072H39.66V41.98L39.66,41.98z M43.371,42.529V37.88h0.621   v4.1h2.289v0.549H43.371L43.371,42.529z M47.125,42.529V37.88h0.607v4.649H47.125L47.125,42.529z M52.136,40.912l0.621,0.145   c-0.13,0.505-0.362,0.896-0.701,1.155c-0.332,0.275-0.744,0.404-1.227,0.404c-0.498,0-0.91-0.101-1.22-0.303   c-0.317-0.202-0.556-0.505-0.722-0.895c-0.159-0.375-0.246-0.794-0.246-1.242c0-0.491,0.094-0.909,0.281-1.271   c0.188-0.361,0.448-0.635,0.787-0.823c0.339-0.188,0.715-0.275,1.126-0.275c0.47,0,0.859,0.116,1.177,0.361   c0.318,0.231,0.534,0.563,0.664,0.997L52.07,39.31c-0.108-0.346-0.26-0.592-0.476-0.75c-0.195-0.145-0.455-0.231-0.766-0.231   c-0.361,0-0.664,0.087-0.902,0.26c-0.238,0.173-0.404,0.404-0.498,0.693c-0.102,0.289-0.145,0.592-0.145,0.895   c0,0.39,0.05,0.736,0.166,1.025c0.115,0.303,0.296,0.52,0.542,0.664c0.238,0.145,0.505,0.217,0.787,0.217   c0.347,0,0.635-0.087,0.874-0.289C51.897,41.591,52.056,41.302,52.136,40.912z"></path></g><g><path fill="none" stroke="#000000" stroke-width="0.75" stroke-linecap="round" stroke-linejoin="round" stroke-miterlimit="10" d="   M10.833,65.833c-1.505-0.67-0.638-2.703-0.843-3.83c-0.158-0.873-1.365-4.331-2.146-4.82c-0.653-0.41-1.993,0.385-2.64-0.042   c-0.394-0.259-1.048-1.893-0.853-2.317c0.394-0.856,2.166-1.031,2.777-2.117c0.554-0.985,0.492-1.316,1.2-2.19   c1.91-2.357,3.263-6.703,1.796-9.679c-0.611-1.239-2.213-2.167-2.3-3.667c-0.146-2.535,2.08-1.889,3.479-2.49   c0.019-0.151,0.038-0.302,0.057-0.453c1.745,0.195,1.779-3.931,2.008-5.191c0.361-1.992-1.067-2.978-0.536-4.691   c0.303-0.978,1.069-1.814,1.287-2.846c0.249-1.182-0.349-1.602-0.296-2.667c0.1-1.978,2.541-3.309,3.196-4.967   c2.827-0.553,5.587-2.613,8.118-1.574c1.047,0.43,2.047,0.786,3.154,1.079c0.769,0.203,3.871,0.761,2.303-0.879   c1.532-0.9,3.073,0.327,4.575,0.716c1.789,0.464,3.733,0.116,5.533,0.417c4.042,0.677,7.369,2.49,11.612,2.734   c0.711,2.002,1.105,2.573,3.184,1.938c1.779-0.544,4.007-0.873,5.5,0.657c1.546,1.585,0.987,3.476,2.051,5.213   c0.816,1.333,0.406,1.033,1.958,0.833c0.898-0.116,1.464-0.841,2.025,0.659c0.138-0.125,0.32-0.236,0.471-0.359   c0.237,0.824,0.887,1.138,1.675,0.425c0.579,0.959,3.419,0.714,4.188-0.037c1.099,0.63,1.834,1.865,3.112,2.338   c-0.166,0.519-0.92,2.604-1.441,2.828c-0.914,0.393-1.021-0.503-1.87-0.853c-1.037-0.427-2.8-0.626-3.963-0.875   c-1.421-0.304-3.087-0.083-4.529-0.422c-1.691-0.398-2.441-1.291-4.336-1.203c-1.472,0.069-4.643,0.064-6.006,0.842   c-1.838,1.048,0.337,0.725,1.371,0.529c3.417-0.647,4.559,1.49,7.333,2.917c2.738,1.409,5.279,2.285,8.475,2.716   c1.103,0.149,2.431,0.023,3.497,0.366c0.549,0.177,1.03,0.741,1.488,0.845c0.906,0.206,1.717-0.249,2.644-0.193   c0.127,3.072,3.359,0.432,4.989,1.182c0.709,0.327,1.315,1.077,2.012,1.5c1.178,0.717,2.407,1.285,3.526,2.129   c1.669,1.259,3.525,2.821,4.163,4.671c0.821,2.382-1.546,6.71-2.988,3.31c-0.801,0.501-1.792,0.898-2.174,1.854   c-0.327,0.82,0.341,2.059-0.328,2.511c-0.976,0.66-2.236-0.733-2.873-0.974c-1.222-0.463-1.56-0.233-2.788-0.075   c-1.629,0.21-1.749-0.629-3.041-0.975c-1.019-0.273-2.227,0.506-3.268-0.026c-1.136-0.58-1.297-2.317-2.843-2.429   c-1.114-0.081-2.619,1.278-3.496,1.954c-0.888-2.338-11.448-1.53-13.528-0.954c-1.151,0.319-2.553,1.314-3.358,2.171   c-0.816,0.868-1.842,1.73-2.692,2.622c-1.309,1.374-1.899,2.36-4.099,2.648c-0.695,0.091-1.425-0.901-1.888,0.342   c-0.818-0.431-3.139-1.644-3,0.135c-0.55-1.396-1.406-0.879-2.137-1.661c-0.815-0.872-0.105-1.812-0.447-2.949   c-0.679-2.261-2.929-2.514-3.923-0.342c-0.414,0.906-0.047,1.98-0.823,2.833c-1.483,1.632-1.827,0.37-2.97-0.345   c-0.706-0.441-2.045-0.542-2.841-1.025c-0.775-0.471-1.256-1.315-2.171-1.445c-0.944,2.257-0.481,4.187,1.199,5.812   c-0.529,0.815-1.731,0.941-2.52,0.514c-1.005,1.515-3.972,4.124-3.809,5.965c0.373-0.117,0.925,0.025,1.283-0.115   c0.146,1.958-2.212,2.99-3.358,4.103c-1.281,1.245-0.993,2.194-1.771,3.52c-1.439-0.46-3.082-1.502-3.891-2.817   c-0.36-0.584-0.348-1.258-0.821-1.79c-0.247-0.277-1.036-0.052-1.146-0.235C10.743,66.183,11.447,65.929,12,65"></path><path fill="none" stroke="#000000" stroke-width="0.75" stroke-linecap="round" stroke-linejoin="round" stroke-miterlimit="10" d="   M85.5,54.667c-0.375-0.142-1.469-0.199-2.153-0.141c-0.078,1.463,0.294,1.416,0.828,2.462c0.189,0.371,0.24,1.047,0.535,1.346   c0.366,0.371,0.881,0.26,1.124,0.49c1.049,0.994,0.972,1.671,2.704,1.515c1.692-0.153,2.781-1.288,3.661-2.67   c-1.869-1.604-4.679-1.342-6.756-2.637c-0.056-0.063-0.051-0.071,0.013-0.021c0.064,0.157,0.079,0.321,0.045,0.491"></path></g></svg>