<svg height='100px' width='100px'  fill="#000000" xmlns="http://www.w3.org/2000/svg" xmlns:xlink="http://www.w3.org/1999/xlink" version="1.1" x="0px" y="0px" viewBox="0 0 64 64" style="enable-background:new 0 0 64 64;" xml:space="preserve"><path d="M16,18h32v2h2v-3c0-0.552-0.447-1-1-1H37v-2c0-1.896-1.073-3.529-2.633-4.377l0.742-0.495C35.667,8.757,36,8.135,36,7.465V6  c0-2.206-1.794-4-4-4s-4,1.794-4,4v1.465c0,0.67,0.333,1.292,0.891,1.664l0.742,0.495C28.073,10.471,27,12.104,27,14v2H15  c-0.553,0-1,0.448-1,1v3h2V18z"></path><path d="M10,36h44v5h2v-6c0-0.552-0.447-1-1-1h-4v-2c0-1.896-1.073-3.529-2.633-4.377l0.742-0.495  C49.667,26.757,50,26.135,50,25.465V24c0-2.206-1.794-4-4-4s-4,1.794-4,4v1.465c0,0.67,0.333,1.292,0.891,1.664l0.742,0.495  C42.073,28.471,41,30.104,41,32v2h-4v-2c0-1.896-1.073-3.529-2.633-4.377l0.742-0.495C35.667,26.757,36,26.135,36,25.465V24  c0-2.206-1.794-4-4-4s-4,1.794-4,4v1.465c0,0.67,0.333,1.292,0.891,1.664l0.742,0.495C28.073,28.471,27,30.104,27,32v2h-4v-2  c0-1.896-1.073-3.529-2.633-4.377l0.742-0.495C21.667,26.757,22,26.135,22,25.465V24c0-2.206-1.794-4-4-4s-4,1.794-4,4v1.465  c0,0.67,0.333,1.292,0.891,1.664l0.742,0.495C14.073,28.471,13,30.104,13,32v2H9c-0.553,0-1,0.448-1,1v6h2V36z"></path><path d="M3,62h8c0.553,0,1-0.448,1-1v-3c0-1.896-1.073-3.529-2.633-4.377l0.742-0.495C10.667,52.757,11,52.135,11,51.465V50  c0-2.206-1.794-4-4-4s-4,1.794-4,4v1.465c0,0.67,0.333,1.292,0.891,1.664l0.742,0.495C3.073,54.471,2,56.104,2,58v3  C2,61.552,2.447,62,3,62z"></path><path d="M14,58v3c0,0.552,0.447,1,1,1h8c0.553,0,1-0.448,1-1v-3c0-1.896-1.073-3.529-2.633-4.377l0.742-0.495  C22.667,52.757,23,52.135,23,51.465V50c0-2.206-1.794-4-4-4s-4,1.794-4,4v1.465c0,0.67,0.333,1.292,0.891,1.664l0.742,0.495  C15.073,54.471,14,56.104,14,58z"></path><path d="M40,58v3c0,0.552,0.447,1,1,1h8c0.553,0,1-0.448,1-1v-3c0-1.896-1.073-3.529-2.633-4.377l0.742-0.495  C48.667,52.757,49,52.135,49,51.465V50c0-2.206-1.794-4-4-4s-4,1.794-4,4v1.465c0,0.67,0.333,1.292,0.891,1.664l0.742,0.495  C41.073,54.471,40,56.104,40,58z"></path><path d="M59.367,53.623l0.742-0.495C60.667,52.757,61,52.135,61,51.465V50c0-2.206-1.794-4-4-4s-4,1.794-4,4v1.465  c0,0.67,0.333,1.292,0.891,1.664l0.742,0.495C53.073,54.471,52,56.104,52,58v3c0,0.552,0.447,1,1,1h8c0.553,0,1-0.448,1-1v-3  C62,56.104,60.927,54.471,59.367,53.623z"></path></svg>