<svg height='100px' width='100px'  fill="#000000" xmlns="http://www.w3.org/2000/svg" xmlns:xlink="http://www.w3.org/1999/xlink" version="1.1" x="0px" y="0px" viewBox="0 0 62 62" style="enable-background:new 0 0 62 62;" xml:space="preserve"><g><path d="M57,52h-2v-5h-2v6c0,0.552,0.448,1,1,1h1.196L52,59.113L48.804,54H50c0.552,0,1-0.448,1-1v-6h-2v5h-2   c-0.364,0-0.698,0.197-0.875,0.515s-0.166,0.707,0.026,1.015l5,8C51.335,61.822,51.655,62,52,62s0.665-0.178,0.848-0.47l5-8   c0.192-0.308,0.203-0.697,0.026-1.015S57.364,52,57,52z"></path><path d="M53,17h6c1.654,0,3-1.346,3-3v-2c0-1.654-1.346-3-3-3H43.364C41.672,3.784,36.772,0,31,0S20.328,3.784,18.636,9H3   c-1.654,0-3,1.346-3,3v2c0,1.654,1.346,3,3,3h6v2.667L3.5,27H0v18h20V27h-3.5L11,19.667V17h7.636c1.692,5.216,6.591,9,12.364,9   s10.672-3.784,12.364-9H51v2.667L45.5,27H42v18h20V27h-3.5L53,19.667V17z M18,43H2V29h4v4h8v-4h4V43z M8,29h4v2H8V29z M6,27   l4-5.333L14,27H6z M31,24c-1.075,0-2.22-1.527-3.009-4h6.018C33.22,22.473,32.075,24,31,24z M27.481,18   c-0.244-1.209-0.408-2.553-0.46-4h7.958c-0.052,1.447-0.217,2.791-0.46,4H27.481z M20.051,14h4.971   c0.046,1.419,0.184,2.763,0.409,4h-4.217C20.588,16.779,20.18,15.43,20.051,14z M31,2c1.075,0,2.22,1.527,3.009,4h-6.018   C28.78,3.527,29.925,2,31,2z M34.519,8c0.244,1.209,0.408,2.553,0.46,4h-7.958c0.052-1.447,0.217-2.791,0.46-4H34.519z M41.949,12   h-4.971c-0.046-1.419-0.184-2.763-0.409-4h4.217C41.412,9.221,41.82,10.57,41.949,12z M25.022,12h-4.971   c0.13-1.43,0.537-2.779,1.164-4h4.217C25.206,9.237,25.067,10.581,25.022,12z M36.978,14h4.971c-0.13,1.43-0.537,2.779-1.164,4   h-4.217C36.794,16.763,36.933,15.419,36.978,14z M39.479,6h-3.374c-0.368-1.295-0.838-2.422-1.391-3.341   C36.588,3.334,38.232,4.493,39.479,6z M27.286,2.659C26.733,3.578,26.263,4.705,25.895,6h-3.374   C23.768,4.493,25.412,3.334,27.286,2.659z M3,15c-0.551,0-1-0.449-1-1v-2c0-0.551,0.449-1,1-1h15.17C18.069,11.654,18,12.318,18,13   s0.069,1.346,0.17,2H3z M22.521,20h3.374c0.368,1.295,0.838,2.422,1.391,3.341C25.412,22.666,23.768,21.507,22.521,20z    M34.714,23.341c0.553-0.919,1.023-2.046,1.391-3.341h3.374C38.232,21.507,36.588,22.666,34.714,23.341z M43.83,11H59   c0.551,0,1,0.449,1,1v2c0,0.551-0.449,1-1,1H43.83c0.102-0.654,0.17-1.318,0.17-2S43.931,11.654,43.83,11z M60,43H44V29h4v4h8v-4h4   V43z M50,29h4v2h-4V29z M48,27l4-5.333L56,27H48z"></path><path d="M10.848,47.47c-0.366-0.585-1.33-0.585-1.696,0l-5,8c-0.192,0.308-0.203,0.697-0.026,1.015S4.636,57,5,57h2v5h2v-6   c0-0.552-0.448-1-1-1H6.804L10,49.887L13.196,55H12c-0.552,0-1,0.448-1,1v6h2v-5h2c0.364,0,0.698-0.197,0.875-0.515   s0.166-0.707-0.026-1.015L10.848,47.47z"></path><path d="M19,47c-1.654,0-3,1.346-3,3s1.346,3,3,3s3-1.346,3-3S20.654,47,19,47z M19,51c-0.551,0-1-0.449-1-1s0.449-1,1-1   s1,0.449,1,1S19.551,51,19,51z"></path><path d="M27,47c-1.654,0-3,1.346-3,3s1.346,3,3,3s3-1.346,3-3S28.654,47,27,47z M27,51c-0.551,0-1-0.449-1-1s0.449-1,1-1   s1,0.449,1,1S27.551,51,27,51z"></path><path d="M35,47c-1.654,0-3,1.346-3,3s1.346,3,3,3s3-1.346,3-3S36.654,47,35,47z M35,51c-0.551,0-1-0.449-1-1s0.449-1,1-1   s1,0.449,1,1S35.551,51,35,51z"></path><path d="M43,47c-1.654,0-3,1.346-3,3s1.346,3,3,3s3-1.346,3-3S44.654,47,43,47z M43,51c-0.551,0-1-0.449-1-1s0.449-1,1-1   s1,0.449,1,1S43.551,51,43,51z"></path></g></svg>