<svg height='100px' width='100px'  fill="#000000" xmlns:dc="http://purl.org/dc/elements/1.1/" xmlns:cc="http://creativecommons.org/ns#" xmlns:rdf="http://www.w3.org/1999/02/22-rdf-syntax-ns#" xmlns:svg="http://www.w3.org/2000/svg" xmlns="http://www.w3.org/2000/svg" xmlns:sodipodi="http://sodipodi.sourceforge.net/DTD/sodipodi-0.dtd" xmlns:inkscape="http://www.inkscape.org/namespaces/inkscape" viewBox="0 0 100 100" version="1.1" x="0px" y="0px"><g transform="translate(0,-952.36216)"><path style="color:#000000;font-style:normal;font-variant:normal;font-weight:normal;font-stretch:normal;font-size:medium;line-height:normal;font-family:sans-serif;font-variant-ligatures:normal;font-variant-position:normal;font-variant-caps:normal;font-variant-numeric:normal;font-variant-alternates:normal;font-feature-settings:normal;text-indent:0;text-align:start;text-decoration:none;text-decoration-line:none;text-decoration-style:solid;text-decoration-color:#000000;letter-spacing:normal;word-spacing:normal;text-transform:none;writing-mode:lr-tb;direction:ltr;text-orientation:mixed;dominant-baseline:auto;baseline-shift:baseline;text-anchor:start;white-space:normal;shape-padding:0;clip-rule:nonzero;display:inline;overflow:visible;visibility:visible;opacity:1;isolation:auto;mix-blend-mode:normal;color-interpolation:sRGB;color-interpolation-filters:linearRGB;solid-color:#000000;solid-opacity:1;fill:#000000;fill-opacity:1;fill-rule:evenodd;stroke:none;stroke-width:1.51776707;stroke-linecap:round;stroke-linejoin:round;stroke-miterlimit:4;stroke-dasharray:none;stroke-dashoffset:0;stroke-opacity:1;color-rendering:auto;image-rendering:auto;shape-rendering:auto;text-rendering:auto;enable-background:accumulate" d="m 60.771013,957.36369 a 0.75895944,0.75895944 0 0 0 -0.07522,0 l -35.302537,2.4894 a 0.75895944,0.75895944 0 0 0 -0.705154,0.7318 l -1.81013,54.53771 a 0.75895944,0.75895944 0 0 0 0.007,0.1323 l 4.299475,30.0974 a 0.75895944,0.75895944 0 0 0 1.153518,0.5366 l 1.810501,-1.1317 a 0.75895944,0.75895944 0 0 0 0.26383,-0.2801 l 3.290101,-6.0318 2.073961,5.3574 v 2.8002 a 0.75895944,0.75895944 0 0 0 0.958609,0.7323 l 4.978321,-1.3577 a 0.75895944,0.75895944 0 0 0 0.557305,-0.6781 l 0.45281,-6.3364 a 0.75895944,0.75895944 0 0 0 -0.220476,-0.5907 l -3.790342,-3.7903 0.501723,-2.6765 37.234947,-4.2365 a 0.75895944,0.75895944 0 0 0 0.535813,-1.1891 l -1.446622,-2.0669 v -4.9657 a 0.75895944,0.75895944 0 0 0 -7.58e-4,-0.028 l -0.222701,-6.0169 1.791233,-8.5078 a 0.75895944,0.75895944 0 0 0 -0.366102,-0.8152 l -1.201691,-0.6867 v -1.1438 a 0.75895944,0.75895944 0 0 0 -0.16341,-0.4703 l -3.301219,-4.18161 -7.426535,-26.1059 a 0.75895944,0.75895944 0 0 0 -0.0163,-0.05 l -2.902508,-8.0372 -0.221218,-5.3148 a 0.75895944,0.75895944 0 0 0 -0.73628,-0.7267 z m -0.747396,1.5704 0.193426,4.6508 a 0.75895944,0.75895944 0 0 0 0.04447,0.226 l 2.932891,8.122 7.460626,26.2252 a 0.75895944,0.75895944 0 0 0 0.134508,0.2628 l 3.231184,4.09271 v 1.3206 a 0.75895944,0.75895944 0 0 0 0.382407,0.6588 l 1.103865,0.6311 -1.696373,8.0583 a 0.75895944,0.75895944 0 0 0 -0.01594,0.1845 l 0.226033,6.0959 v 5.1907 a 0.75895944,0.75895944 0 0 0 0.137104,0.4354 l 0.852262,1.2176 -36.523865,4.1557 a 0.75895944,0.75895944 0 0 0 -0.660318,0.614 l -0.678845,3.621 a 0.75895944,0.75895944 0 0 0 0.20936,0.6763 l 3.828138,3.8285 -0.389447,5.4541 -3.500943,0.9549 v -1.9484 a 0.75895944,0.75895944 0 0 0 -0.05113,-0.2738 l -2.71575,-7.0152 a 0.75895944,0.75895944 0 0 0 -1.373995,-0.09 l -3.977839,7.2931 -0.653277,0.4084 -4.125318,-28.8776 1.785674,-53.78741 z"></path></g></svg>