<svg height='100px' width='100px'  fill="#000000" xmlns="http://www.w3.org/2000/svg" xmlns:xlink="http://www.w3.org/1999/xlink" version="1.1" x="0px" y="0px" viewBox="0 0 100 100" enable-background="new 0 0 100 100" xml:space="preserve"><path d="M50,12.779l1.51,3.06l0.698,1.414l1.561,0.227l3.377,0.491l-2.443,2.382l-1.129,1.101l0.267,1.554l0.577,3.363l-3.02-1.588  L50,24.049l-1.396,0.734l-3.02,1.588l0.577-3.363l0.267-1.554l-1.129-1.101l-2.443-2.382l3.377-0.491l1.561-0.227l0.698-1.414  L50,12.779 M50,6l-4.2,8.511l-9.392,1.365l6.796,6.625l-1.604,9.354L50,27.438l8.401,4.416L56.796,22.5l6.796-6.625L54.2,14.511  L50,6L50,6z"></path><path d="M19.593,26.959l1.51,3.06l0.698,1.414l1.561,0.227l3.377,0.491l-2.443,2.382l-1.129,1.101l0.267,1.554l0.577,3.363  l-3.02-1.588l-1.396-0.734l-1.396,0.734l-3.02,1.588l0.577-3.363l0.267-1.554l-1.129-1.101l-2.443-2.382l3.377-0.491l1.561-0.227  l0.698-1.414L19.593,26.959 M19.593,20.18l-4.2,8.511L6,30.056l6.796,6.625l-1.604,9.354l8.401-4.416l8.401,4.416l-1.604-9.354  l6.796-6.625l-9.392-1.365L19.593,20.18L19.593,20.18z"></path><path d="M79.593,37.247l1.51,3.06l0.698,1.414l1.561,0.227l3.377,0.491l-2.443,2.382l-1.129,1.101l0.267,1.555l0.577,3.363  l-3.02-1.588l-1.396-0.734l-1.396,0.734l-3.02,1.588l0.577-3.363l0.267-1.554l-1.129-1.101l-2.443-2.382l3.377-0.491l1.561-0.227  l0.698-1.414L79.593,37.247 M79.593,30.469l-4.2,8.511L66,40.344l6.796,6.625l-1.604,9.354l8.401-4.416l8.401,4.416l-1.604-9.354  l6.796-6.625l-9.392-1.365L79.593,30.469L79.593,30.469z"></path><polygon points="91.5,86 91.5,63.017 80,56.26 68.5,63.017 68.5,90.535 41.5,90.535 41.5,40.733 50,35.74 58.5,40.733 58.5,86   61.5,86 61.5,39.017 50,32.26 38.5,39.017 38.5,90.535 11.5,90.535 11.5,54.733 20,49.74 28.5,54.733 28.5,86 31.5,86 31.5,53.017   20,46.26 8.5,53.017 8.5,90.535 8.5,92.035 8.5,93.535 91.5,93.535 91.5,90.535 71.5,90.535 71.5,64.733 80,59.74 88.5,64.733   88.5,86 "></polygon></svg>