<svg height='100px' width='100px'  fill="#000000" xmlns="http://www.w3.org/2000/svg" data-name="layer 1" viewBox="0 0 48 48" x="0px" y="0px"><title>6 quality product</title><path d="M42.581,5.889l-5.832,5.833L34.217,9.19a.75.75,0,1,0-1.061,1.06l3.063,3.063a.748.748,0,0,0,1.06,0L43.642,6.95a.75.75,0,1,0-1.061-1.061Z"></path><path d="M38.4,0A9.6,9.6,0,1,0,48,9.6,9.612,9.612,0,0,0,38.4,0Zm0,17.7a8.1,8.1,0,1,1,8.1-8.1A8.111,8.111,0,0,1,38.4,17.7Z"></path><path d="M38.384,20.414a.75.75,0,0,0-.75.75V46.5H1.5V10.367H13.629v5.741a.75.75,0,0,0,1.5,0V10.367h8.876v9.706H15.129V18.821a.75.75,0,0,0-1.5,0v2a.75.75,0,0,0,.75.75H24.755a.75.75,0,0,0,.75-.75V10.367h1.518a.75.75,0,0,0,0-1.5H.75a.75.75,0,0,0-.75.75V47.25A.75.75,0,0,0,.75,48H38.384a.75.75,0,0,0,.75-.75V21.164A.75.75,0,0,0,38.384,20.414Z"></path></svg>