<svg height='100px' width='100px'  fill="#000000" xmlns="http://www.w3.org/2000/svg" xmlns:xlink="http://www.w3.org/1999/xlink" version="1.1" x="0px" y="0px" viewBox="0 0 100 100" enable-background="new 0 0 100 100" xml:space="preserve"><g><polygon points="78.271,33.734 51.914,16.413 51.914,12.564 57.352,12.564 57.352,7.112 51.914,7.112 50.914,7.112 49.914,7.112    49.914,16.299 23.559,33.621 23.559,35.737 78.271,35.737  "></polygon><rect x="26.5" y="37.888" width="8" height="23"></rect><rect x="39.5" y="37.888" width="8" height="23"></rect><rect x="52.5" y="37.888" width="8" height="23"></rect><rect x="65.5" y="37.888" width="8" height="23"></rect><path d="M21.5,62.89v8h15v24h29.29v-24H78.5v-8H21.5z M61.79,70.89v20H40.5v-20V67.5h21.29V70.89z"></path><polygon points="49.428,87.014 49.428,88.541 52.482,88.541 52.482,87.014 55.537,87.014 57.064,85.486 57.064,79.379    55.537,77.852 47.9,77.852 47.9,74.033 54.01,74.033 54.01,75.561 57.064,75.561 57.064,72.506 55.537,70.979 52.482,70.979    52.482,69.451 49.428,69.451 49.428,70.979 46.374,70.979 44.847,72.506 44.847,79.379 46.375,80.906 54.01,80.906 54.01,83.961    47.9,83.961 47.9,82.434 44.847,82.434 44.847,85.486 46.374,87.014  "></polygon></g></svg>