<svg height='100px' width='100px'  fill="#000000" xmlns="http://www.w3.org/2000/svg" xmlns:xlink="http://www.w3.org/1999/xlink" version="1.1" x="0px" y="0px" viewBox="0 0 66 66" enable-background="new 0 0 66 66" xml:space="preserve"><g><g><g><g><path d="M21.7822,17.7457H2c-1.324,0-1.3226-2,0-2h19.7822C23.1062,15.7457,23.1048,17.7457,21.7822,17.7457z"></path></g><g><path d="M64,17.7457H44.2178c-1.324,0-1.3226-2,0-2H64C65.324,15.7457,65.3226,17.7457,64,17.7457z"></path></g></g><g><polygon points="26.4544,16.7454 33.0027,10.1971 39.5456,16.7454 33.0027,23.2938    "></polygon></g></g><g><g><g><path d="M21.7822,33.9997H2c-1.324,0-1.3226-2,0-2h19.7822C23.1062,31.9997,23.1048,33.9997,21.7822,33.9997z"></path></g><g><path d="M64,33.9997H44.2178c-1.324,0-1.3226-2,0-2H64C65.324,31.9997,65.3226,33.9997,64,33.9997z"></path></g></g><g><polygon points="26.4544,33 33.0027,26.4516 39.5456,33 33.0027,39.5483    "></polygon></g></g><g><g><g><path d="M21.7822,50.2545H2c-1.324,0-1.3226-2,0-2h19.7822C23.1062,48.2545,23.1048,50.2545,21.7822,50.2545z"></path></g><g><path d="M64,50.2545H44.2178c-1.324,0-1.3226-2,0-2H64C65.324,48.2545,65.3226,50.2545,64,50.2545z"></path></g></g><g><polygon points="26.4544,49.2545 33.0027,42.7062 39.5456,49.2545 33.0027,55.8029    "></polygon></g></g></g></svg>