<svg height='100px' width='100px'  fill="#000000" xmlns="http://www.w3.org/2000/svg" xmlns:xlink="http://www.w3.org/1999/xlink" version="1.1" x="0px" y="0px" viewBox="0 0 64 64" style="enable-background:new 0 0 64 64;" xml:space="preserve"><g><path d="M33,49c0.552,0,1,0.449,1,1h2c0-1.654-1.346-3-3-3v-2h-2v2h-3v3c0,1.654,1.346,3,3,3h2c0.552,0,1,0.449,1,1v1h-3   c-0.552,0-1-0.449-1-1h-2c0,1.654,1.346,3,3,3v2h2v-2h3v-3c0-1.654-1.346-3-3-3h-2c-0.552,0-1-0.449-1-1v-1H33z"></path><path d="M49,41c-3.338,0-6.419,1.485-8.497,4.031C38.484,42.572,35.423,41,32,41s-6.484,1.572-8.503,4.031   C21.419,42.485,18.338,41,15,41C8.935,41,4,45.935,4,52s4.935,11,11,11c3.338,0,6.419-1.485,8.497-4.031   C25.516,61.428,28.577,63,32,63s6.484-1.572,8.503-4.031C42.581,61.515,45.662,63,49,63c6.065,0,11-4.935,11-11S55.065,41,49,41z    M15,61c-4.963,0-9-4.038-9-9s4.037-9,9-9c2.936,0,5.62,1.418,7.311,3.8C21.476,48.35,21,50.12,21,52s0.476,3.65,1.311,5.2   C20.62,59.582,17.936,61,15,61z M32,61c-4.963,0-9-4.038-9-9s4.037-9,9-9s9,4.038,9,9S36.963,61,32,61z M49,61   c-2.936,0-5.62-1.418-7.311-3.8C42.524,55.65,43,53.88,43,52s-0.476-3.65-1.311-5.2C43.38,44.418,46.064,43,49,43   c4.963,0,9,4.038,9,9S53.963,61,49,61z"></path><path d="M50,47c1.103,0,2,0.897,2,2h2c0-2.206-1.794-4-4-4s-4,1.794-4,4h-2v2h2v2h-2v2h2c0,2.206,1.794,4,4,4s4-1.794,4-4h-2   c0,1.103-0.897,2-2,2s-2-0.897-2-2h2v-2h-2v-2h2v-2h-2C48,47.897,48.897,47,50,47z"></path><polygon points="20.625,46.781 19.375,45.219 15,48.719 10.625,45.219 9.375,46.781 14,50.481 14,51 12,51 12,53 14,53 14,55    12,55 12,57 14,57 14,59 16,59 16,57 18,57 18,55 16,55 16,53 18,53 18,51 16,51 16,50.481  "></polygon><path d="M32,39c10.477,0,19-8.523,19-19S42.477,1,32,1S13,9.523,13,20S21.523,39,32,39z M18.283,30h6.037   c0.753,2.611,1.795,4.783,3.043,6.341C23.669,35.291,20.494,33.024,18.283,30z M32,3c2.088,0,4.265,2.612,5.626,7H26.374   C27.735,5.612,29.912,3,32,3z M38.154,12c0.467,2.058,0.762,4.412,0.823,7H25.022c0.062-2.588,0.356-4.942,0.823-7H38.154z    M48.949,19h-7.973c-0.059-2.504-0.335-4.862-0.794-7h6.809C48.121,14.108,48.802,16.483,48.949,19z M32,37   c-2.088,0-4.265-2.612-5.626-7h11.251C36.265,34.388,34.088,37,32,37z M25.846,28c-0.467-2.058-0.762-4.412-0.823-7h13.956   c-0.062,2.588-0.356,4.942-0.823,7H25.846z M40.977,21h7.973c-0.148,2.517-0.828,4.892-1.958,7h-6.809   C40.642,25.862,40.918,23.504,40.977,21z M23.023,19h-7.973c0.148-2.517,0.828-4.892,1.958-7h6.809   C23.358,14.138,23.082,16.496,23.023,19z M23.023,21c0.059,2.504,0.335,4.862,0.794,7h-6.809c-1.129-2.108-1.81-4.483-1.958-7   H23.023z M36.638,36.341c1.248-1.557,2.29-3.73,3.043-6.341h6.037C43.506,33.024,40.331,35.291,36.638,36.341z M45.717,10h-6.037   c-0.753-2.611-1.795-4.783-3.043-6.341C40.331,4.709,43.506,6.976,45.717,10z M27.362,3.659c-1.248,1.557-2.29,3.73-3.043,6.341   h-6.037C20.494,6.976,23.669,4.709,27.362,3.659z"></path><rect x="27" y="15" width="2" height="2"></rect><rect x="31" y="15" width="2" height="2"></rect><rect x="35" y="15" width="2" height="2"></rect><rect x="27" y="23" width="2" height="2"></rect><rect x="31" y="23" width="2" height="2"></rect><rect x="35" y="23" width="2" height="2"></rect><polygon points="55,6.662 58.796,11 57,11 57,30 59,30 59,13 63.204,13 53,1.338 53,30 55,30  "></polygon><rect x="57" y="32" width="2" height="2"></rect><rect x="57" y="36" width="2" height="2"></rect><polygon points="11,9 9,9 9,32.338 5.204,28 7,28 7,9 5,9 5,26 0.796,26 11,37.662  "></polygon><rect x="5" y="5" width="2" height="2"></rect><rect x="5" y="1" width="2" height="2"></rect></g></svg>