<svg height='100px' width='100px'  fill="#000000" xmlns="http://www.w3.org/2000/svg" data-name="Layer 1" viewBox="0 0 100 100" x="0px" y="0px"><title>Noun_Project_50Icon_10px_grid</title><path d="M86.75,36.33A23.38,23.38,0,0,0,45.26,23.18a8.6,8.6,0,0,0-5.17,16.41A23.35,23.35,0,0,0,41,44.47a27.43,27.43,0,0,0-7.86,6.9V19.75a1.2,1.2,0,0,0-.06-.37c0-.45.06-.87.06-1.27,0-8.27-6.33-15-14.11-15S4.89,9.86,4.89,18.12c0,.25,0,.5,0,.75V19a6.24,6.24,0,0,0,.88,4.3A5.65,5.65,0,0,0,10.57,26a5.82,5.82,0,0,0,5.6-4.8,6.26,6.26,0,0,0,0-2.31v-.75a3.15,3.15,0,0,1,3-3.29,3.13,3.13,0,0,1,3,3,1.4,1.4,0,0,0,0,.2v6.7a1.37,1.37,0,0,0,0,.35l0,4.4a1.37,1.37,0,0,0,0,.35l0,1h0v3.68a1.37,1.37,0,0,0,0,.35l0,1.61V77.36c-.44,2,.06,5,.4,7l.1.59c.88,5.42,3.85,8.66,9.63,10.49a15,15,0,0,0,4.54.71A15.37,15.37,0,0,0,39.23,96H53.48a1.36,1.36,0,0,0,.52-.11h.55l.42,0,.54,0H86.64A1.37,1.37,0,0,0,88,94.49a11.1,11.1,0,0,0-3.09-7.68A15.06,15.06,0,0,0,85.47,72l-4-11.07,0,0a27.79,27.79,0,0,0-2.31-5.7,23.08,23.08,0,0,0,2.33-2.44,8.6,8.6,0,0,0,5.23-16.4Zm2.95,10a5.86,5.86,0,0,1-6.47,4,23.11,23.11,0,0,0,3.54-11A5.87,5.87,0,0,1,89.7,46.3ZM79,51.46c-.4.46-.82.91-1.26,1.34s-.67.61-1,.9-.71.57-1.08.84a19,19,0,0,1-5.39,2.85c-.45.16-.9.32-1.35.44s-1,.25-1.45.34A20.52,20.52,0,0,1,49.38,53c-.37-.35-.74-.7-1.08-1.07s-.64-.7-.93-1.07a20.81,20.81,0,0,1-3-5.1c-.18-.43-.32-.86-.47-1.3s-.28-.88-.4-1.33A20.59,20.59,0,0,1,42.87,40c0-.45-.06-.91-.08-1.37s0-.91,0-1.37a20.26,20.26,0,0,1,3.35-10.63c.25-.38.51-.76.78-1.12s.55-.72.85-1.07A20.65,20.65,0,0,1,84,35.92c0,.45.06.91.07,1.36s0,.91,0,1.37a20.3,20.3,0,0,1-3.37,10.6c-.25.39-.53.76-.81,1.13S79.32,51.11,79,51.46Zm.5,13.1q.1.64.16,1.29c.05.56.09,1.12.11,1.68s0,1.14,0,1.71c0,.16,0,.33,0,.49A24.92,24.92,0,0,1,79,74.53c-.11.42-.23.84-.36,1.25l-.06.17c-.16.49-.33,1-.52,1.44a24.46,24.46,0,0,1-5.37,8.27c-.42.42-.85.84-1.29,1.23l-.27-.3a11.24,11.24,0,0,0-1.05-.91,11.09,11.09,0,0,0-4.25-2,18.85,18.85,0,0,0,7.85-17.07c0-.47-.12-.94-.2-1.41s-.18-.93-.29-1.39a19,19,0,0,0-1.46-4A22.2,22.2,0,0,0,77,56.91a25.1,25.1,0,0,1,1.79,4.48A24.64,24.64,0,0,1,79.52,64.55Zm4.32,18.11a12.54,12.54,0,0,1-1.05,2.4A11.06,11.06,0,0,0,78,83.4,27.68,27.68,0,0,0,81.08,77c0-.15.1-.29.15-.44.1-.33.2-.66.29-1s.25-.94.35-1.42c.17-.75.3-1.5.4-2.26a12.25,12.25,0,0,1,1.94,4.75A12.36,12.36,0,0,1,83.84,82.67ZM77.3,93.12h-3c0-.2-.06-.4-.09-.6A10.52,10.52,0,0,0,73,89.12a27.28,27.28,0,0,0,3-3,8.44,8.44,0,0,1,.88,0,8.36,8.36,0,0,1,4.32,1.2A8.38,8.38,0,0,1,83.26,89a8.38,8.38,0,0,1,1.9,4.08Zm-38.4.13a12.28,12.28,0,0,1-5.79-.41c-4.73-1.5-7-4-7.75-8.32l-.1-.61c-.29-1.73-.78-4.62-.41-6.05a1.39,1.39,0,0,0,0-.34V36.36s0-.06,0-.1V31a1.38,1.38,0,0,0,0-.16v-.29a1.41,1.41,0,0,0,0-.27v-.2a1.37,1.37,0,0,0,0-.29V26.53s0-.06,0-.1V18.3a1.35,1.35,0,0,0,0-.29A5.9,5.9,0,0,0,19.2,12.1a5.89,5.89,0,0,0-5.73,6V19a1.37,1.37,0,0,0,0,.26,3.55,3.55,0,0,1,0,1.4,3.09,3.09,0,0,1-2.92,2.59,2.93,2.93,0,0,1-2.46-1.42A3.5,3.5,0,0,1,7.59,20a3.61,3.61,0,0,1,.06-.65,2.25,2.25,0,0,0,0-.41v-.2c0-.19,0-.38,0-.58,0-6.76,5.1-12.25,11.37-12.25s11.37,5.5,11.37,12.25a13.33,13.33,0,0,1-.09,1.48,1.21,1.21,0,0,0,.09.59V55.7a27.92,27.92,0,0,0-1.74,4.24A27.63,27.63,0,0,0,43.2,93.24H39.12ZM37.12,29.62a5.88,5.88,0,0,1,5.6-4.1,5.82,5.82,0,0,1,.82.06,23.44,23.44,0,0,0-3.48,11,5.83,5.83,0,0,1-2.94-7Zm33.24,34.2c.13.44.24.88.32,1.33s.15.91.2,1.37a16.15,16.15,0,0,1-8.63,16.12,16.4,16.4,0,0,1-1.86.81c-.43.16-.86.3-1.3.43s-.89.23-1.34.32a16,16,0,0,1-6.06,0c-.44-.09-.88-.2-1.32-.32l-.47-.12c-.29-.09-.56-.21-.84-.32A16.2,16.2,0,0,1,38.64,68.68c0-.46,0-.92,0-1.38s.07-.9.14-1.35a15.9,15.9,0,0,1,7.9-11.67,23.31,23.31,0,0,0,22.36,6.35A16.3,16.3,0,0,1,70.36,63.82ZM44.89,52.18a18.66,18.66,0,0,0-8.84,13.66c-.06.46-.1.92-.12,1.38s0,.92,0,1.38a18.94,18.94,0,0,0,13,17.63l.24.09q.7.22,1.41.39c.52.12,1,.22,1.58.3a18.81,18.81,0,0,0,2.76.21h0a11.16,11.16,0,0,0-1.7,2.63A11.1,11.1,0,0,0,52.22,93l-.87-.11A24.84,24.84,0,0,1,31.24,60.76c.15-.46.33-.9.5-1.35a25,25,0,0,1,1.37-3,24.6,24.6,0,0,1,8.82-9.25A23.58,23.58,0,0,0,44.89,52.18ZM55,93.12H55a8.46,8.46,0,0,1,5.53-6.57,8.35,8.35,0,0,1,7.61,1.06,8.47,8.47,0,0,1,1,.88l.09.09a8.47,8.47,0,0,1,.82,1l.07.09a8.41,8.41,0,0,1,.7,1.18c.08.16.15.32.21.48a8.33,8.33,0,0,1,.43,1.39c0,.14.07.28.09.43H55Z"></path><path d="M68.18,23.07a15.68,15.68,0,0,0-17.31,5.62,15.32,15.32,0,0,0-2.35,4.58,15.65,15.65,0,0,0-.66,3.22,16,16,0,0,0,.34,5c.1.45.22.89.37,1.32s.3.86.48,1.28a15.74,15.74,0,0,0,3.76,5.35,14.94,14.94,0,0,0,4.13,2.77,16,16,0,0,0,6.51,1.44c.34,0,.69,0,1,0a15.57,15.57,0,0,0,2-.26,15.77,15.77,0,0,0,6.12-2.63q.56-.4,1.08-.85c.34-.29.67-.61,1-.93a15.67,15.67,0,0,0-6.44-25.89Zm-6,27.8A12.92,12.92,0,0,1,51.28,42.3c-.11-.3-.21-.6-.29-.9a5.42,5.42,0,0,0,1.44.77l.13.06a5.46,5.46,0,0,0,1.65.26,5.4,5.4,0,0,0,2-.4c.16-.07.32-.13.48-.21a5.43,5.43,0,0,0-4.77-9.76,12.92,12.92,0,0,1,24.2,8.29,5.43,5.43,0,0,0-9.93,4.21,5.48,5.48,0,0,0,1.24,2.22,5.41,5.41,0,0,0,2.19,1.44l.16.06a5.41,5.41,0,0,0,1.1.21c-.16.11-.31.23-.47.33A12.94,12.94,0,0,1,62.22,50.86Zm-5.43-13h0a2.71,2.71,0,1,1-.18-2.07A2.69,2.69,0,0,1,56.79,37.85Zm14.09,7.91-.25-.05a2.88,2.88,0,1,1,.25.05Z"></path><path d="M71.95,41.57a1.62,1.62,0,1,0,.26,3,1.62,1.62,0,0,0-.26-3Z"></path><path d="M54.7,35.48a1.62,1.62,0,1,0,1,.8A1.62,1.62,0,0,0,54.7,35.48Z"></path><path d="M59.93,40.06a.36.36,0,0,0-.17.5l.33.61.85,1.58.3.57a.36.36,0,0,0,.32.19l.12,0,.87-.3,2.09-.73h0a.36.36,0,0,0,.2-.48A3.74,3.74,0,0,0,59.93,40.06Z"></path></svg>