<svg height='100px' width='100px'  fill="#000000" xmlns="http://www.w3.org/2000/svg" viewBox="0 0 512 512" x="0px" y="0px"><title>Disability_Insurance</title><g><path d="M413.31,34.28A28.3,28.3,0,0,1,386.49,15a5,5,0,0,0-4.74-3.4h0A5,5,0,0,0,377,15a28.34,28.34,0,0,1-26.84,19.24h-34a5,5,0,0,0-5,5v66.78a95.69,95.69,0,0,0,55.31,86.56l13.12,6.08a5,5,0,0,0,4.21,0L397,192.62a95.69,95.69,0,0,0,55.3-86.56V39.28a5,5,0,0,0-5-5Zm29,71.78a85.66,85.66,0,0,1-49.5,77.49l-11,5.1-11-5.1a85.67,85.67,0,0,1-49.51-77.49V44.28h29A38.33,38.33,0,0,0,381.75,27.7a38.32,38.32,0,0,0,31.56,16.58h29Z"></path><path d="M333.86,107.77a48.08,48.08,0,0,0,96.16,0,49,49,0,0,0-.28-5.28,5,5,0,0,0-9.95,1.08,37,37,0,0,1,.23,4.2,38.06,38.06,0,1,1-11.41-27.18,5,5,0,0,0,7-7.14,48.09,48.09,0,0,0-81.76,34.32Z"></path><path d="M359.85,104.47a5,5,0,1,0-7.07,7.07l22.31,22.31a5,5,0,0,0,7.07,0l53.29-53.29a5,5,0,0,0-7.07-7.07l-49.76,49.76Z"></path><path d="M105.48,477H65.15a5,5,0,0,0,0,10H481.08a5,5,0,0,0,0-10H330.92a34.81,34.81,0,0,0-19.39-59.32V401.62h29.64a5,5,0,0,0,0-10H296.5V373h44.06a5,5,0,0,0,0-10H296.5V316.94H345l18.18,68.45A5,5,0,0,0,368,389.1H373l7.49,28.22H341.17a5,5,0,0,0,0,10H442.74a5,5,0,0,0,5-5,30.17,30.17,0,0,0-58.43-10.56l-6-22.66H405a5,5,0,0,0,4.81-6.36l-30-105.6A5,5,0,0,0,375,273.5H348.5V257.6a17.49,17.49,0,0,0-5.57-34.08H283a5,5,0,0,0,0,10h59.93a7.5,7.5,0,0,1,0,15h-26.6a5,5,0,0,0,0,10H338.5v15H307.3a17.47,17.47,0,0,0-15.8-25H271.73V177.37a55.49,55.49,0,0,0-29.92-49.2,42.7,42.7,0,0,0,0-79.41,3,3,0,0,0-.38-.15,42.71,42.71,0,0,0-53.91,58.25,4,4,0,0,0,.24.46,43,43,0,0,0,14.94,16.87,41.42,41.42,0,0,0-27.84,39.08V224a5,5,0,1,0,10,0V163.27a31.41,31.41,0,0,1,31.37-31.37,45.52,45.52,0,0,1,45.47,45.47v71.14H216.22l-2.8-7.76V179a5,5,0,0,0-10,0v62.63a5.19,5.19,0,0,0,.29,1.7l25.4,70.31a5,5,0,1,0,9.41-3.4l-9.66-26.72H286.5v108.1H276V296.33a5,5,0,1,0-10,0v42.49H216.2a90.44,90.44,0,0,0-53.45-31.16V283.52H189.7l10.89,30.12a5,5,0,0,0,4.7,3.3,5.06,5.06,0,0,0,1.7-.29,5,5,0,0,0,3-6.41l-24.8-68.65a5,5,0,0,0-9.4,3.4l1.27,3.52H162.75V154.35a5,5,0,0,0-5-5h-17V117.13a5,5,0,0,0-5-5H112a5,5,0,0,0,0,10h18.79V307.66A90.38,90.38,0,0,0,105.48,477Zm312.09-74.85a20.2,20.2,0,0,1,19.54,15.17H398A20.2,20.2,0,0,1,417.57,402.15ZM258.82,88.46a32.7,32.7,0,0,1-57.06,21.83A47.44,47.44,0,0,0,246,63c0-.18,0-.35,0-.53A32.7,32.7,0,0,1,258.82,88.46ZM226.1,55.74a32.51,32.51,0,0,1,9.41,1.39,37.3,37.3,0,0,1-36.89,43.27c-1,0-2-.05-3-.13a32.41,32.41,0,0,1-2.22-11.81A32.76,32.76,0,0,1,226.1,55.74ZM331.37,452.16a24.85,24.85,0,1,1-29.84-24.34V433a19.81,19.81,0,1,0,10,0v-5.19A24.88,24.88,0,0,1,331.37,452.16Zm-24.84.85a5,5,0,0,0,5-5v-4.28a9.82,9.82,0,1,1-10,0V448A5,5,0,0,0,306.53,453Zm-5-35.33A34.81,34.81,0,0,0,282.13,477H188.07A90.5,90.5,0,0,0,237,401.62h64.52Zm96.85-38.58H371.89l-18.18-68.44a5,5,0,0,0-4.83-3.72H296.5V283.5h46.85l.15,0,.15,0h27.57ZM219.83,258.51H291.5a7.5,7.5,0,0,1,5.3,12.81,7.39,7.39,0,0,1-4.92,2.18h-.38l-.19,0H225.25ZM237,391.62A89.92,89.92,0,0,0,234,373h32v18.61Zm29-42.8V363H230.67a90.15,90.15,0,0,0-7.23-14.19Zm-85.33-90.31,5.42,15H162.75v-15Zm-39.88-99.16h12v147.1c-2-.13-4-.21-6-.21s-4,.08-6,.21Zm6,156.89a80.47,80.47,0,0,1,80.38,80.36v0a80.38,80.38,0,1,1-80.38-80.4Z"></path><path d="M146.77,467.85a71.22,71.22,0,0,0,12.14-141.4l-.41-.07a71.22,71.22,0,1,0-11.73,141.47Zm-15.94-81.51a16,16,0,0,0,31.88,0,19,19,0,1,1-31.88,0Zm15.94-50.94q3,0,6,.29v49.95a6,6,0,1,1-12,0V349.51a5,5,0,0,0-10,0v23a29,29,0,1,0,32,0V337.53a61.2,61.2,0,1,1-16-2.13Z"></path><path d="M43.3,482a5,5,0,0,0-5-5H17.67a5,5,0,0,0,0,10H38.3A5,5,0,0,0,43.3,482Z"></path></g></svg>