<svg height='100px' width='100px'  fill="#000000" xmlns="http://www.w3.org/2000/svg" xmlns:xlink="http://www.w3.org/1999/xlink" version="1.1" x="0px" y="0px" viewBox="0 0 100 100" enable-background="new 0 0 100 100" xml:space="preserve"><g><path fill="#000000" d="M5.996,53.46c-0.305,0-0.599-0.166-0.746-0.456c-1.087-2.133-2.642-5.873-0.847-6.95   c0.673-0.405,1.538-0.436,2.435-0.091c1.681,0.646,3.195,2.474,3.859,4.653c0.134,0.442-0.115,0.908-0.557,1.043   c-0.443,0.137-0.909-0.114-1.044-0.557c-0.59-1.939-1.861-3.195-2.859-3.579c-0.406-0.157-0.751-0.17-0.975-0.036   c-0.243,0.423,0.457,2.753,1.477,4.757c0.21,0.411,0.047,0.914-0.365,1.124C6.252,53.432,6.123,53.46,5.996,53.46z"></path></g><g><path fill="#000000" d="M12.266,65.725c0,0-0.836-0.928-0.836-1.764s0.697-1.812,1.394-1.812c0.697,0,0.742,1.021,0.65,1.788   C13.38,64.703,12.777,65.539,12.266,65.725z"></path></g><g><path fill="none" d="M94.282,27.358C88.467,13.851,78.065,7.924,70.364,5.33C59.566,1.693,50.288,2.996,49.473,3.458   C47.094,4.81,38.71,7.945,33.024,8.853c-1.033,0.165-1.844,0.26-2.52,0.338c-2.788,0.326-3.017,0.352-7.937,4.581   c-4.614,3.964-11.25,10.761-14.814,14.414c-1.3,1.332-2.24,2.294-2.628,2.658c-1.521,1.424-2.43,3.35-2.43,5.15   c0,0.716-0.043,2.229-0.1,4.237c-0.097,3.44-0.243,8.641-0.272,13.653c-0.043,7.435,6.036,14.135,6.098,14.201   c2.033,2.203,2.916,4.202,3.377,5.498c0.164-0.338,0.384-0.628,0.669-0.664c0.712-0.091,1.974,0.281,2.44,3.301   c2.029,0.188,3.776-0.982,5.886-5.638c1.58-3.487,1.123-8.721,0.718-13.34c-0.396-4.521-0.737-8.425,0.625-10.713   c2.538-4.261,4.847-9.867,4.87-9.923c0.175-0.427,0.664-0.632,1.091-0.457c0.428,0.175,0.631,0.663,0.458,1.091   c-0.078,0.189-1.579,3.832-3.522,7.527c-0.09,0.628-0.458,3.594,0.356,5.483c0.183,0.423-0.012,0.916-0.437,1.098   c-0.108,0.047-0.22,0.068-0.331,0.068c-0.324,0-0.632-0.188-0.768-0.505c-0.366-0.849-0.54-1.835-0.611-2.781   c-0.673,2.007-0.378,5.398-0.065,8.966c0.268,3.067,0.554,6.392,0.277,9.407c2.461-2.403,7.901-7.5,12.882-10.681   c6.037-3.857,5.9-9.791,5.892-10.042l0.279-6.479c0.02-0.462,0.438-0.817,0.871-0.799c0.462,0.021,0.82,0.412,0.799,0.873   l-0.114,2.619c5.012-5.069,13.681-4.96,17.885-2.344c4.344,2.705,6.678,7.722,6.776,7.935c0.192,0.419,0.008,0.916-0.412,1.107   c-0.112,0.052-0.23,0.077-0.348,0.077c-0.316,0-0.62-0.18-0.761-0.487c-0.021-0.047-2.23-4.779-6.141-7.212   c-3.619-2.251-12.834-2.617-17.03,3.547c-0.024,0.035-0.06,0.055-0.088,0.086l-0.047,1.083c0.012,0.218,0.209,7.056-6.663,11.446   c-2.019,1.289-4.143,2.932-6.108,4.577c-0.01,0.034-0.007,0.069-0.021,0.104c-0.541,1.285-0.583,2.485-0.126,3.562   c0.955,2.258,3.719,3.362,3.748,3.373l3.97,1.555l-4.263,0.06c-7.068,0.101-10.882,1.774-10.882,3.299   c0,1.485,0.484,2.065,0.707,2.254c2.219,0.003,19.156,0.022,23.493,0c0.748-0.005,1.287-0.235,1.646-0.709   c1.044-1.37,0.53-4.406,0.245-5.46c-0.039-0.142-0.026-0.281,0.006-0.414c-4.018-4.919-5.606-11.365-5.143-17.292   c0.037-0.46,0.443-0.821,0.899-0.769c0.46,0.037,0.805,0.439,0.769,0.898c-0.781,9.968,4.665,21.529,18.462,23.356   c12.823,1.699,17.144-2.746,17.466-3.101c-0.135-1.073,0.164-2.381,0.904-3.913c0.201-0.415,0.701-0.589,1.117-0.39   c0.415,0.201,0.59,0.702,0.39,1.118c-0.803,1.659-0.982,2.919-0.521,3.643c0.342,0.535,0.981,0.705,1.326,0.758   C87.498,71.678,105.499,53.414,94.282,27.358z"></path><path fill="#000000" d="M95.817,26.697C89.749,12.601,78.889,6.426,70.847,3.728c-10.92-3.664-20.725-2.562-22.201-1.724   c-2.228,1.267-10.468,4.333-15.885,5.197c-1.005,0.161-1.793,0.252-2.45,0.329c-3.175,0.37-3.696,0.559-8.834,4.973   c-4.669,4.012-11.338,10.844-14.92,14.515c-1.285,1.316-2.213,2.267-2.574,2.604c-1.853,1.734-2.959,4.116-2.959,6.372   c0,0.709-0.042,2.203-0.098,4.19c-0.097,3.448-0.244,8.659-0.273,13.69C0.605,61.96,6.923,68.926,7.193,69.219   c2.243,2.43,2.916,4.523,3.277,5.649c0.071,0.22,0.129,0.401,0.183,0.54c0.069,0.177,0.149,0.597,0.184,0.836l0.067,0.475   l0.443,0.183c1.51,0.617,2.843,1.002,4.066,1.002c2.59,0,4.683-1.729,6.904-6.631c0.293-0.646,0.505-1.35,0.685-2.073   c0.115-0.042,0.223-0.103,0.314-0.195c0.042-0.044,2.449-2.501,5.688-5.365c-0.042,0.86,0.1,1.692,0.437,2.489   c0.503,1.189,1.358,2.113,2.2,2.794c-5.108,0.418-9.759,1.843-9.759,4.84c0,3.029,1.633,3.787,1.819,3.863l0.152,0.063h0.165   c0,0,8.485,0.009,15.52,0.009c3.52,0,6.676-0.003,8.225-0.009c1.267-0.007,2.293-0.479,2.969-1.368   c0.999-1.312,1.057-3.269,0.906-4.773c3.141,2.908,7.36,5.021,12.78,5.739c2.132,0.281,4.046,0.402,5.761,0.402   c7.594,0,11.27-2.359,12.622-3.521c0.022,0.027,0.038,0.059,0.062,0.086c1.003,1.143,2.66,1.256,3.021,1.14   c0.496-0.166,6.096-5.481,9.959-14.092C99.306,53.584,102.112,41.317,95.817,26.697z M85.32,73.742   c-0.345-0.053-0.984-0.223-1.326-0.758c-0.461-0.724-0.281-1.983,0.521-3.643c0.2-0.416,0.025-0.917-0.39-1.118   c-0.416-0.199-0.916-0.025-1.117,0.39c-0.74,1.532-1.039,2.84-0.904,3.913c-0.322,0.354-4.643,4.8-17.466,3.101   C50.841,73.8,45.396,62.238,46.176,52.271c0.036-0.459-0.308-0.861-0.769-0.898c-0.456-0.053-0.862,0.309-0.899,0.769   c-0.464,5.927,1.125,12.373,5.143,17.292c-0.033,0.133-0.045,0.272-0.006,0.414c0.286,1.054,0.799,4.09-0.245,5.46   c-0.359,0.474-0.898,0.704-1.646,0.709c-4.336,0.022-21.274,0.003-23.493,0c-0.222-0.188-0.707-0.769-0.707-2.254   c0-1.524,3.814-3.198,10.882-3.299l4.263-0.06l-3.97-1.555c-0.028-0.011-2.793-1.115-3.748-3.373   c-0.457-1.077-0.414-2.277,0.126-3.562c0.014-0.034,0.011-0.069,0.021-0.104c1.965-1.646,4.09-3.288,6.108-4.577   c6.872-4.391,6.674-11.229,6.663-11.446l0.047-1.083c0.028-0.031,0.064-0.051,0.088-0.086c4.196-6.164,13.411-5.799,17.03-3.547   c3.91,2.433,6.119,7.165,6.141,7.212c0.141,0.307,0.444,0.487,0.761,0.487c0.117,0,0.235-0.025,0.348-0.077   c0.42-0.191,0.604-0.688,0.412-1.107c-0.099-0.212-2.433-5.23-6.776-7.935c-4.204-2.616-12.874-2.725-17.885,2.344l0.114-2.619   c0.021-0.461-0.337-0.852-0.799-0.873c-0.434-0.018-0.852,0.337-0.871,0.799l-0.279,6.479c0.009,0.251,0.145,6.185-5.892,10.042   c-4.981,3.181-10.421,8.277-12.882,10.681c0.277-3.016-0.009-6.34-0.277-9.407c-0.312-3.568-0.607-6.959,0.065-8.966   c0.071,0.946,0.245,1.932,0.611,2.781c0.136,0.316,0.444,0.505,0.768,0.505c0.111,0,0.223-0.021,0.331-0.068   c0.425-0.183,0.619-0.675,0.437-1.098c-0.814-1.889-0.446-4.855-0.356-5.483c1.943-3.695,3.444-7.338,3.522-7.527   c0.174-0.428-0.03-0.916-0.458-1.091c-0.427-0.175-0.916,0.03-1.091,0.457c-0.023,0.056-2.332,5.663-4.87,9.923   c-1.362,2.289-1.021,6.193-0.625,10.713c0.404,4.619,0.861,9.853-0.718,13.34c-2.109,4.655-3.857,5.825-5.886,5.638   c-0.466-3.02-1.729-3.392-2.44-3.301c-0.286,0.036-0.505,0.326-0.669,0.664c-0.461-1.296-1.344-3.295-3.377-5.498   c-0.062-0.066-6.141-6.767-6.098-14.201C2.354,48.872,2.5,43.671,2.597,40.231c0.057-2.008,0.1-3.521,0.1-4.237   c0-1.801,0.908-3.726,2.43-5.15c0.388-0.364,1.328-1.326,2.628-2.658c3.564-3.653,10.2-10.45,14.814-14.414   c4.92-4.229,5.149-4.255,7.937-4.581c0.675-0.078,1.486-0.173,2.52-0.338c5.686-0.907,14.07-4.042,16.449-5.395   c0.814-0.461,10.093-1.765,20.891,1.873c7.701,2.594,18.103,8.521,23.918,22.028C105.499,53.414,87.498,71.678,85.32,73.742z"></path></g></svg>