<svg height='100px' width='100px'  fill="#000000" xmlns="http://www.w3.org/2000/svg" data-name="Layer 1" viewBox="0 0 128 128" x="0px" y="0px"><title>Miscellaneous 51 final </title><path d="M52.23779,121.16162a2.00008,2.00008,0,1,0,1.57568,3.67676c4.15527-1.78076,6.55713-7.1377,7.13916-15.92236a9.81394,9.81394,0,0,0-6.18408-9.77295,1.99994,1.99994,0,1,0-1.48535,3.71387,5.82432,5.82432,0,0,1,3.67822,5.79443C56.50684,115.51025,54.78516,120.06982,52.23779,121.16162Z"></path><path d="M74.7168,102.85693a1.99994,1.99994,0,1,0-1.48535-3.71387,9.81394,9.81394,0,0,0-6.18408,9.77295c.582,8.78467,2.98389,14.1416,7.13916,15.92236a2.00008,2.00008,0,0,0,1.57568-3.67676c-2.54736-1.0918-4.269-5.65137-4.72363-12.51025A5.82432,5.82432,0,0,1,74.7168,102.85693Z"></path><path d="M58.89941,58.77344a1.99983,1.99983,0,0,0,1.13672,2.58984l1.93457.75439a5.56878,5.56878,0,0,0,4.05811,0l1.93506-.75439a1.99993,1.99993,0,0,0-1.45312-3.72656l-1.93555.75439a1.57662,1.57662,0,0,1-1.15088,0l-1.93506-.75439A1.99768,1.99768,0,0,0,58.89941,58.77344Z"></path><path d="M67.17871,65.17432a1.99874,1.99874,0,0,0-1.46094-.06738L64,65.69141l-1.71777-.58447a2.01087,2.01087,0,0,0-1.46094.06738c-5.26758,2.356-5.58252,3.51953-5.752,4.145a2.00958,2.00958,0,0,0-.06787.5957c.019.52881.35938,3.23486,5.16016,4.56641a14.37574,14.37574,0,0,0,7.67725,0c4.80029-1.33154,5.14063-4.0376,5.15967-4.56641a2.00958,2.00958,0,0,0-.06787-.5957C72.76123,68.69385,72.44629,67.53027,67.17871,65.17432ZM66.77,70.627a10.51542,10.51542,0,0,1-5.53955,0,7.72185,7.72185,0,0,1-1.36572-.50488c.54248-.3042,1.20605-.647,1.88574-.97119l1.605.54639a1.99589,1.99589,0,0,0,1.28906,0L66.25,69.15088c.67969.32373,1.34277.6665,1.88574.97119A7.76079,7.76079,0,0,1,66.77,70.627Z"></path><path d="M70,52.17627a2,2,0,0,0,1.96826-1.64453,4.09164,4.09164,0,0,1,2.51611-1.519c1.21338-.11865,2.58057.6167,4.06152,2.18408a1.99992,1.99992,0,1,0,2.9082-2.74609c-2.374-2.51416-4.85254-3.6626-7.35889-3.41895a8.31354,8.31354,0,0,0-5.7876,3.72656A1.99691,1.99691,0,0,0,68,49.82373v.35254A2.0001,2.0001,0,0,0,70,52.17627Z"></path><path d="M48,52.17627a2,2,0,0,0,1.96826-1.64453,4.09164,4.09164,0,0,1,2.51611-1.519c1.08008-.1084,2.291.46924,3.59131,1.71094A2.00039,2.00039,0,0,0,60,50.17627v-.35254a1.99922,1.99922,0,0,0-.5459-1.373c-2.37451-2.51416-4.853-3.6626-7.35889-3.41895a8.31354,8.31354,0,0,0-5.7876,3.72656A1.99691,1.99691,0,0,0,46,49.82373v.35254A2.0001,2.0001,0,0,0,48,52.17627Z"></path><path d="M88,113a2,2,0,0,0,0,4h14a2,2,0,0,0,0-4Z"></path><path d="M15.99854,128.00049a2.00153,2.00153,0,0,0,1.94775-2.46143c-3.13232-13.2251-2.28516-23.04,2.51807-29.17285a17.50383,17.50383,0,0,1,11.51227-6.32867c2.99219,6.97363,10.01013,13.02173,20.96954,18.06378a1.84621,1.84621,0,0,0-1.15466-1.53687,5.98189,5.98189,0,0,1-3.769-5.532c-7.58-4.55273-12.05682-9.736-13.332-15.50171-2.354-10.64307,7.30615-19.98682,7.40186-20.07812a1.99728,1.99728,0,0,0,.24353-.2818c.637,1.407,1.3053,2.73547,2.00146,3.996-2.03479,3.14282-4.217,8.05817-2.97986,13.58612,1.67676,7.49316,9.0708,13.59424,21.97607,18.13379a2.04927,2.04927,0,0,0,.5752.11084h.00391c.02783.00146.05615.00244.08447.00244h.01074a1.98332,1.98332,0,0,0,.79443-.16455l.04248-.01514c12.80566-4.53418,20.14063-10.61816,21.80176-18.08252,1.23315-5.541-.96887-10.46692-3.0097-13.60583.70581-1.25134,1.37323-2.58167,2.01239-3.96942a2.00634,2.00634,0,0,0,.24829.28864c.09766.09326,9.75586,9.42822,7.4165,20.06445-1.26959,5.77258-5.74969,10.96143-13.33643,15.51648a5.98186,5.98186,0,0,1-3.769,5.53235,1.84646,1.84646,0,0,0-1.15472,1.53687C86.02856,103.05511,93.0484,96.999,96.03412,90.01624A17.539,17.539,0,0,1,107.7207,96.3667c4.80322,6.13232,5.65039,15.94727,2.51807,29.17236a2.00013,2.00013,0,1,0,3.89258.92188c3.436-14.50781,2.32324-25.48242-3.30664-32.61816a21.24035,21.24035,0,0,0-13.55884-7.705c2.47382-11.93616-6.81506-21.79974-8.4043-23.382A13.0516,13.0516,0,0,0,96.125,58.47656,15.95638,15.95638,0,0,0,100,47.90869a8.03087,8.03087,0,0,0-5.69592-7.9165c1.47485-7.6983,1.41315-20.897.70129-27.15088C94.09033,4.80029,88.855,0,81,0c-5.39648,0-8.45166,3.38086-10.68213,5.84912-.445.49231-.86774.95789-1.27661,1.36969-1.4137.14636-10.88843-.4024-14.20288.08246a10.29565,10.29565,0,0,0-5.72327,2.66278c-.80493.08307-1.616.17657-2.43982.29718A12.64422,12.64422,0,0,0,37.55762,15.877C32.776,23.09607,34.83215,34.85431,35.616,38.44586c-.04993.43817-.09955.87646-.1297,1.31976h-.08105C31.32178,39.76563,28,43.41846,28,47.90869A15.957,15.957,0,0,0,31.87744,58.479a13.03062,13.03062,0,0,0,7.25922,4.26978c-1.57184,1.56384-10.89618,11.453-8.39612,23.418a21.1839,21.1839,0,0,0-13.38019,7.676c-5.62988,7.13574-6.74268,18.11035-3.30664,32.61816A2.00076,2.00076,0,0,0,15.99854,128.00049ZM45.3241,82.10974c-.01709-.06921-.0423-.137-.058-.20642A13.09171,13.09171,0,0,1,46.73065,73.032c.34161.49377.69916.95044,1.0531,1.41541a1.97917,1.97917,0,0,0,.21869.57117,5.84172,5.84172,0,0,1,.55762,4.09912A5.36314,5.36314,0,0,1,45.3241,82.10974Zm18.672,14.76672c-8.5932-3.10608-14.29651-6.83136-17.05884-11.109,2.82568-1.24152,4.65424-3.05634,5.42358-5.4032a7.54108,7.54108,0,0,0,.21362-.81824A26.0439,26.0439,0,0,0,62.1167,84.7583a6.15608,6.15608,0,0,0,1.707.24121,6.303,6.303,0,0,0,1.74365-.248,26.91439,26.91439,0,0,0,9.82782-5.37476,7.54275,7.54275,0,0,0,.244.98755c.76941,2.347,2.59821,4.162,5.42438,5.40356C78.29871,90.04858,72.588,93.77557,63.99609,96.87646ZM82.74219,81.86914c-.018.08093-.04687.15985-.06671.24042a5.38008,5.38008,0,0,1-3.22772-2.96893,5.76321,5.76321,0,0,1,.55566-4.13184,1.98663,1.98663,0,0,0,.25757-.77948c.32666-.42468.659-.83734.97473-1.28485A13.13537,13.13537,0,0,1,82.74219,81.86914Zm-22.14453-68.895a4.3574,4.3574,0,0,1,3.65479-1.63232H64.291c1.76855.00928,12.50586.38135,15.48-.42187a2.0002,2.0002,0,0,0-1.042-3.8623,18.60594,18.60594,0,0,1-4.55066.50079C75.98767,5.62494,77.89252,4,81,4c3.35156,0,9.11084,1.20752,10.03076,9.29346a119.53023,119.53023,0,0,1,.145,19.58887,11.97946,11.97946,0,0,0-3.17822-2.73437c-4.0752-2.40283-9.458-2.32959-15.99854.22021a17.55315,17.55315,0,0,1-12.76886.2215C58.42548,26.21,57.48517,16.81329,60.59766,12.97412Zm-9.666.99951A6.127,6.127,0,0,1,55.418,11.25928c.53851-.07892,1.06738-.11945,1.59656-.16168-3.313,4.869-2.7453,13.27118-2.07971,17.99194a18.5259,18.5259,0,0,0-5.02722-1.10608l-.031.0285C49.178,24.61621,48.43652,17.73395,50.93164,13.97363Zm-10.03906,4.1123a8.47215,8.47215,0,0,1,5.39746-3.683c-1.82306,5.04681-.93231,11.35236-.37445,14.18451-2.19092.79688-4.49579,2.45746-7.00494,5.49707C38.28271,29.53955,37.96,22.51318,40.89258,18.08594Zm-6.0127,37.75A11.95891,11.95891,0,0,1,32,47.90869c0-2.28467,1.52783-4.14307,3.40527-4.14307h2.01318a2.0001,2.0001,0,0,0,2-2c0-.56244.02313-1.12109.06152-1.67682,6.52179-9.9873,10.05566-8.7113,15.9082-6.59711,4.53613,1.63867,10.18018,3.67773,18.064.603,5.31934-2.07324,9.51953-2.24854,12.48193-.51953a9.39168,9.39168,0,0,1,3.939,5.12067,24.21686,24.21686,0,0,1,.21918,3.06976,2.0001,2.0001,0,0,0,2,2h.50244C94.47217,43.76563,96,45.624,96,47.90869a11.95838,11.95838,0,0,1-2.87744,7.9248,9.06541,9.06541,0,0,1-5.312,3.05957,22.84891,22.84891,0,0,1,.43994-3.36426c.01563-.05811.03027-.12646.04-.18555.00488-.02881.57813-2.87793,1.93018-2.87793a2,2,0,0,0,0-4c-3.78906,0-5.45557,3.80713-5.86084,6.13184a29.39617,29.39617,0,0,0-.5838,4.63715c-4.41675,11.89032-10.917,19.19189-19.341,21.68024a2.17494,2.17494,0,0,1-1.209.001c-8.28931-2.45221-14.50793-9.55817-19.002-21.68011a29.40031,29.40031,0,0,0-.58392-4.63824c-.40527-2.32471-2.07178-6.13184-5.86084-6.13184a2,2,0,1,0,0,4c1.35205,0,1.92529,2.84912,1.92871,2.86914a1.88413,1.88413,0,0,0,.0415.19434,22.84891,22.84891,0,0,1,.43994,3.36426A9.05867,9.05867,0,0,1,34.87988,55.83594Z"></path></svg>