<svg height='100px' width='100px'  fill="#000000" xmlns="http://www.w3.org/2000/svg" xmlns:xlink="http://www.w3.org/1999/xlink" version="1.1" x="0px" y="0px" viewBox="0 0 64 64" style="enable-background:new 0 0 64 64;" xml:space="preserve"><g><path d="M63,41v-2c0-1.103-0.897-2-2-2v-8h-6V17c1.103,0,2-0.897,2-2v-2c0-1.103-0.897-2-2-2h-2.456   C48.604,4.821,41.688,1,34.338,1h-4.676c-7.35,0-14.266,3.821-18.206,10H9c-1.103,0-2,0.897-2,2v2c0,1.103,0.897,2,2,2v12H3v8   c-1.103,0-2,0.897-2,2v2c0,1.103,0.897,2,2,2v14.184C1.839,57.598,1,58.698,1,60v3h62v-3c0-1.302-0.839-2.402-2-2.816V43   C62.103,43,63,42.103,63,41z M61,41H47v-1.46L46.37,39H61V41z M43,57V41h2v16H43z M37,57H27v-9c0-1.654,1.346-3,3-3h4   c1.654,0,3,1.346,3,3V57z M34,43h-4c-2.757,0-5,2.243-5,5v9h-2V41h18v16h-2v-9C39,45.243,36.757,43,34,43z M9,37v-6h2v6H9z M13,31   h2v6h-2V31z M17,31h2v6h-2V31z M53,37v-6h2v6H53z M51,37h-2v-6h2V37z M47,37h-2v-6h2V37z M43,36.112L37.036,31H43V36.112z    M43.297,39h-2.921L32,31.671L23.624,39h-2.921L32,29.317L43.297,39z M37.339,39H26.661L32,34.329L37.339,39z M21,36.112V31h5.964   L21,36.112z M19,41h2v16h-2V41z M59,37h-2v-6h2V37z M29.662,3h4.676c6.232,0,12.12,3.029,15.783,8H13.879   C17.542,6.029,23.43,3,29.662,3z M9,13h46v2H9V13z M11,17h42v12H34.703L32,26.683L29.297,29H11V17z M5,31h2v6H5V31z M3,39h14.63   L17,39.54V41H3V39z M17,43v14h-2V47H7v10H5V43H17z M13,57H9v-8h4V57z M61,61H3v-1c0-0.551,0.449-1,1-1h56c0.551,0,1,0.449,1,1V61z    M55,57h-4v-8h4V57z M59,57h-2V47h-8v10h-2V43h12V57z"></path><path d="M13,27h6v-8h-6V27z M15,21h2v4h-2V21z"></path><path d="M21,19v8h6v-8H21z M25,25h-2v-4h2V25z"></path><path d="M43,19h-6v8h6V19z M41,25h-2v-4h2V25z"></path><path d="M51,19h-6v8h6V19z M49,25h-2v-4h2V25z"></path></g></svg>