<svg height='100px' width='100px'  fill="#000000" xmlns="http://www.w3.org/2000/svg" viewBox="0 0 96 25" x="0px" y="0px"><path fill-rule="evenodd" d="M67.1670888,24.1696369 C67.0467777,24.602337 66.6527529,24.9017519 66.2036379,24.9017519 L1.09397169,24.9017519 C0.200532692,24.9017519 -0.244477723,23.8193722 0.390587857,23.1909417 L2.2026141,21.3978471 L1.48541654,19.4900392 C1.4368697,19.3609003 1.41556947,19.2231131 1.42285547,19.0853432 L1.48960504,17.8231848 C1.5111679,17.4154557 1.77844256,17.0617857 2.16479885,16.9297375 L3.84795587,16.354471 L3.84795587,14.0947503 C3.84795587,13.7570606 4.01838584,13.4421801 4.30111112,13.2575163 L5.7568414,12.3066967 L5.66482858,11.827736 C5.57406852,11.3552965 5.83019955,10.9090842 6.2373344,10.7262001 L5.98680157,10.2651053 C5.7305014,9.79339592 5.892388,9.20347482 6.35355196,8.92865254 L7.40823552,8.30013305 L6.60954994,7.5321098 C6.15806161,7.09795456 6.21228779,6.36034068 6.72241345,5.99687913 L8.28114736,4.88629035 L9.31731884,3.01263109 C9.49340847,2.69421666 9.82855469,2.49657772 10.1924164,2.49657772 L24.381696,2.49657772 L24.2677898,1.30509551 C24.2116526,0.717888642 24.673367,0.20992896 25.2632512,0.20992896 L27.6473392,0.20992896 C28.0027886,0.20992896 28.3283613,0.398224812 28.5070289,0.699068189 L95.003337,0.918121018 C95.5543327,0.919936114 96.0000428,1.36711687 96.0000428,1.91811559 L96.0000428,5.56894881 C96.0000428,6.12123356 95.5523275,6.56894881 95.0000428,6.56894881 L93.75064,6.56894881 L91.9216668,9.07720843 C91.7705636,9.28443174 91.5456198,9.42567952 91.2933292,9.47175702 L90.082434,9.69291087 C89.9878678,9.71018212 89.8913054,9.71372747 89.7957272,9.70343747 L88.3677319,9.54969866 L87.6215289,10.7560477 C87.5191348,10.9215832 87.3706566,11.0536377 87.1943037,11.136016 L85.3533875,11.9959487 C84.7551909,12.2753795 84.0778705,11.9087424 83.9511581,11.2969247 L82.5437518,12.1194348 L81.9109467,13.5323684 C81.7498384,13.8920927 81.392452,14.1236239 80.9982979,14.1236239 L80.0807237,14.1236239 L77.4979304,15.7364482 L75.8400375,17.0868617 C75.6616383,17.2321743 75.4385857,17.3115209 75.2084944,17.3115209 L72.6470958,17.3115209 L70.6196514,18.5202331 L70.1428074,20.4758245 C70.0478269,20.8653501 69.7293762,21.1604883 69.3337665,21.2256385 L67.9209683,21.4583023 L67.1670888,24.1696369 Z M86.9981432,7.96197248 C87.2006124,7.63465055 87.572965,7.45257618 87.9556347,7.49377463 L89.865695,7.69941283 L90.5410247,7.57607287 L92.4341977,4.97976951 C92.6224389,4.72161502 92.9227028,4.56894881 93.2422,4.56894881 L94.0000428,4.56894881 L94.0000428,2.91482681 L27.8626496,2.69695632 C27.5092249,2.69579206 27.185853,2.50855357 27.007509,2.20992896 L26.3634109,2.20992896 L26.4773172,3.40141117 C26.5334544,3.98861804 26.07174,4.49657772 25.4818558,4.49657772 L10.7821259,4.49657772 L9.92145073,6.05289544 C9.84911042,6.18370496 9.74836475,6.29663285 9.62662484,6.38337182 L8.86483243,6.92614445 L9.73948836,7.76722147 C10.2151562,8.22462792 10.1251596,9.0092366 9.55827704,9.34705998 L8.20298261,10.1547231 L8.75009226,11.1616546 C9.11214062,11.8279889 8.6297586,12.6390765 7.87141806,12.6390765 C7.90920342,13.0209859 7.73772694,13.401687 7.41232053,13.6142283 L5.84795587,14.6360031 L5.84795587,17.0694861 C5.84795587,17.4971278 5.57602626,17.8774409 5.17136657,18.0157448 L3.45112289,18.6036868 L3.43111174,18.9820748 L4.30279635,21.3008317 C4.44155874,21.6699517 4.35043818,22.0861535 4.07013676,22.3635264 L3.52622865,22.9017519 L65.4437497,22.9017519 L66.1650893,20.3074473 C66.2693835,19.9323521 66.5818955,19.6518858 66.9660459,19.5886228 L68.3563711,19.3596598 L68.7759057,17.6391008 C68.8394427,17.3785281 69.0049892,17.1544003 69.2353627,17.0170573 L71.8595497,15.452582 C72.0144058,15.3602606 72.1913402,15.3115209 72.3716278,15.3115209 L74.8527638,15.3115209 L76.2834979,14.1461364 L76.3853778,14.0732691 L79.2644785,12.2754158 C79.4233352,12.1762178 79.6068565,12.1236239 79.7941417,12.1236239 L80.3504523,12.1236239 L80.8495748,11.0091782 C80.9348485,10.8187781 81.0775359,10.6598154 81.2576556,10.5545507 L84.4255952,8.70315758 C85.0786257,8.32151645 85.8959911,8.77509282 85.9291222,9.51956553 C85.929583,9.52991869 86.2859233,9.01072101 86.9981432,7.96197248 Z"></path></svg>