<svg height='100px' width='100px'  fill="#000000" xmlns="http://www.w3.org/2000/svg" viewBox="0 0 64 64" x="0px" y="0px"><g><path d="M56,19H47.453A8.974,8.974,0,0,0,41,15.067V4a1,1,0,0,0-1-1H20a1,1,0,0,0-1,1V15.067A8.968,8.968,0,0,0,12.547,19H4a1,1,0,0,0-1,1V40a1,1,0,0,0,1,1H19V56a1,1,0,0,0,1,1H38.641A12.985,12.985,0,1,0,57,38.641V20A1,1,0,0,0,56,19ZM44.887,19H41V17.077A7,7,0,0,1,44.887,19ZM19,17.077V19H15.111A7,7,0,0,1,19,17.077ZM12,29a3,3,0,1,1-3,3A3,3,0,0,1,12,29Zm9,26V40a1,1,0,0,0-1-1H5V21h6.535A8.929,8.929,0,0,0,11,24v3.1a5,5,0,1,0,2,0V24a6.893,6.893,0,0,1,.7-3H20a1,1,0,0,0,1-1V5H39V20a1,1,0,0,0,1,1h6.315a6.7,6.7,0,0,1,.447,1.216A3.993,3.993,0,0,0,44,26v6a1,1,0,0,0,1,1h1a1,1,0,0,0,0-2V26a2,2,0,0,1,4,0v5a1,1,0,0,0,0,2h1a1,1,0,0,0,1-1V26a4.006,4.006,0,0,0-3.211-3.92A8.733,8.733,0,0,0,48.48,21H55V37.063A12.979,12.979,0,0,0,37.063,55Zm38-7A11,11,0,1,1,48,37,11.013,11.013,0,0,1,59,48Z"></path><path d="M49.553,47.95l-2.212-1.106a.618.618,0,0,1,0-1.105,1.475,1.475,0,0,1,1.316,0l.895.448a1,1,0,1,0,.894-1.79l-.894-.447a3.444,3.444,0,0,0-.553-.2V42H47v1.751a3.433,3.433,0,0,0-.552.2,2.618,2.618,0,0,0,0,4.683l2.212,1.106a.618.618,0,0,1,0,1.105,1.481,1.481,0,0,1-1.317,0l-.894-.447a1,1,0,0,0-.894,1.79l.894.446a3.448,3.448,0,0,0,.553.2V54h2V52.833a3.437,3.437,0,0,0,.552-.2,2.618,2.618,0,0,0,0-4.683Z"></path><path d="M48,39a9,9,0,1,0,9,9A9.011,9.011,0,0,0,48,39Zm0,16a7,7,0,1,1,7-7A7.008,7.008,0,0,1,48,55Z"></path><circle cx="12" cy="32" r="1.5"></circle></g></svg>