<svg height='100px' width='100px'  fill="#000000" xmlns="http://www.w3.org/2000/svg" xmlns:xlink="http://www.w3.org/1999/xlink" version="1.1" x="0px" y="0px" viewBox="0 0 100 100" style="enable-background:new 0 0 100 100;" xml:space="preserve"><g><path d="M82.7,47.9H63.8c-0.8,0-1.5,0.7-1.5,1.5s0.7,1.5,1.5,1.5h18.9c0.8,0,1.5-0.7,1.5-1.5S83.6,47.9,82.7,47.9z"></path><path d="M82.7,36.5H52.6c-0.8,0-1.5,0.7-1.5,1.5s0.7,1.5,1.5,1.5h30.2c0.8,0,1.5-0.7,1.5-1.5S83.6,36.5,82.7,36.5z"></path><path d="M82.7,25.2H51.1c-0.8,0-1.5,0.7-1.5,1.5s0.7,1.5,1.5,1.5h31.6c0.8,0,1.5-0.7,1.5-1.5S83.6,25.2,82.7,25.2z"></path><path d="M91.7,17.4C91.7,17.4,91.7,17.4,91.7,17.4c0-0.1-0.1-0.2-0.1-0.4c0,0,0-0.1,0-0.1c-0.1-0.1-0.1-0.2-0.2-0.3L78.6,4   c-0.1-0.1-0.2-0.2-0.3-0.2c0,0-0.1,0-0.1,0c-0.2-0.1-0.4-0.2-0.7-0.2H25.4c-0.8,0-1.5,0.7-1.5,1.5s0.7,1.5,1.5,1.5H76v11.2   c0,0.8,0.7,1.5,1.5,1.5h11.2v74.2H26.9V55c0-0.8-0.7-1.5-1.5-1.5s-1.5,0.7-1.5,1.5v40c0,0.8,0.7,1.5,1.5,1.5h64.9   c0.8,0,1.5-0.7,1.5-1.5V17.7C91.7,17.6,91.7,17.5,91.7,17.4z M79,8.7l3.8,3.8l3.8,3.8H79V8.7z"></path><path d="M37,44.2l4.7,4.7l-2.9,2.9c-0.6,0.6-0.6,1.5,0,2.1l23.4,23.4c0.3,0.3,0.7,0.4,1.1,0.4s0.8-0.1,1.1-0.4l2.9-2.9l4,4   c-1.8,2.7-1.5,6.5,0.9,8.9c1.3,1.3,3.1,2.1,5,2.1c1.9,0,3.7-0.7,5-2.1c1.3-1.3,2.1-3.1,2.1-5c0-1.9-0.7-3.7-2.1-5   c-1.3-1.3-3.1-2.1-5-2.1c-1.4,0-2.7,0.4-3.8,1.1l-4-4l2.9-2.9c0.3-0.3,0.4-0.7,0.4-1.1s-0.2-0.8-0.4-1.1L48.9,43.9   c-0.6-0.6-1.6-0.6-2.1,0l-2.9,2.9L39.1,42c2.8-3.3,4.6-7.6,4.6-12.3c0-10.5-8.5-19-19-19s-19,8.5-19,19c0,10.5,8.5,19,19,19   C29.4,48.7,33.7,47,37,44.2z M80,79.3c0.8,0.8,1.2,1.8,1.2,2.9c0,1.1-0.4,2.1-1.2,2.9c-0.8,0.8-1.8,1.2-2.9,1.2s-2.1-0.4-2.9-1.2   c-1.6-1.6-1.6-4.2,0-5.8c0.8-0.8,1.8-1.2,2.9-1.2S79.3,78.5,80,79.3z M47.8,47.1l21.3,21.3l-5.8,5.8L42,52.8L47.8,47.1z M8.8,29.8   c0-8.8,7.2-16,16-16s16,7.2,16,16c0,8.8-7.2,16-16,16S8.8,38.6,8.8,29.8z"></path><path d="M37.3,30.4c0.2-0.4,0.2-0.9,0-1.3c-2.3-4.8-7.2-8-12.6-8s-10.3,3.1-12.6,8c-0.2,0.4-0.2,0.9,0,1.3c2.3,4.8,7.2,8,12.6,8   S35,35.2,37.3,30.4z M15.2,29.8c1.9-3.4,5.6-5.6,9.5-5.6s7.6,2.2,9.5,5.6c-1.9,3.4-5.6,5.6-9.5,5.6S17.1,33.2,15.2,29.8z"></path><path d="M29.2,29.8c0-2.5-2-4.4-4.4-4.4s-4.4,2-4.4,4.4s2,4.4,4.4,4.4S29.2,32.2,29.2,29.8z M23.3,29.8c0-0.8,0.6-1.4,1.4-1.4   s1.4,0.6,1.4,1.4s-0.6,1.4-1.4,1.4S23.3,30.6,23.3,29.8z"></path></g></svg>