<svg height='100px' width='100px'  fill="#000000" xmlns="http://www.w3.org/2000/svg" xmlns:xlink="http://www.w3.org/1999/xlink" version="1.1" x="0px" y="0px" viewBox="0 0 64 64" style="enable-background:new 0 0 64 64;" xml:space="preserve"><g><path d="M33,27.184V25h-2v2h-2v3c0,1.654,1.346,3,3,3c0.552,0,1,0.448,1,1v1h-1c-0.552,0-1-0.448-1-1v-1h-2v1   c0,1.302,0.839,2.402,2,2.816V39h2v-2h2v-3c0-1.654-1.346-3-3-3c-0.552,0-1-0.448-1-1v-1h1c0.552,0,1,0.448,1,1v1h2v-1   C35,28.698,34.161,27.598,33,27.184z"></path><path d="M32,21c-6.065,0-11,4.935-11,11s4.935,11,11,11s11-4.935,11-11S38.065,21,32,21z M32,41c-4.963,0-9-4.037-9-9s4.037-9,9-9   s9,4.037,9,9S36.963,41,32,41z"></path><path d="M51,13c0,1.103,0.897,2,2,2h2c1.103,0,2-0.897,2-2c1.103,0,2-0.897,2-2V9c0-1.103-0.897-2-2-2c0-1.103-0.897-2-2-2h-2   c-1.103,0-2,0.897-2,2c-1.103,0-2,0.897-2,2v2C49,12.103,49.897,13,51,13z M51,9h2V7h2v2l2,0.003V11h-2v2h-2v-2h-2V9z"></path><path d="M27,53.184V49h-2v4.184c-1.161,0.414-2,1.514-2,2.816c0,1.654,1.346,3,3,3s3-1.346,3-3C29,54.698,28.161,53.598,27,53.184z    M26,57c-0.552,0-1-0.448-1-1s0.448-1,1-1s1,0.448,1,1S26.552,57,26,57z"></path><path d="M39,53.184V49h-2v4.184c-1.161,0.414-2,1.514-2,2.816c0,1.654,1.346,3,3,3s3-1.346,3-3C41,54.698,40.161,53.598,39,53.184z    M38,57c-0.552,0-1-0.448-1-1s0.448-1,1-1s1,0.448,1,1S38.552,57,38,57z"></path><path d="M63,32c0-1.654-1.346-3-3-3c-1.302,0-2.402,0.839-2.816,2H49v-3h-2.08c-0.873,0-1.651-0.521-2.003-1.369   c-0.337-0.812-0.156-1.734,0.461-2.352l1.473-1.472l-2.122-2.122l3.661-3.661C49.929,18.258,51.878,19,54,19c4.963,0,9-4.037,9-9   s-4.037-9-9-9s-9,4.037-9,9c0,2.122,0.742,4.071,1.975,5.611l-3.661,3.661l-2.122-2.121l-1.472,1.472   c-0.618,0.617-1.541,0.799-2.392,0.442C36.521,18.731,36,17.953,36,17.081V15h-3V6.816C34.161,6.402,35,5.302,35,4   c0-1.654-1.346-3-3-3s-3,1.346-3,3c0,1.302,0.839,2.402,2,2.816V15h-3v2.081c0,0.872-0.521,1.65-1.369,2.002   c-0.813,0.336-1.734,0.157-2.352-0.461l-1.472-1.472l-2.122,2.121l-4.523-4.523l2.441-2.17C20.127,11.226,21,9.28,21,7.242   c0-1.713-0.667-3.323-1.879-4.535C18.036,1.622,16.534,1,15,1c-1.478,0-2.926,0.577-4,1.589C9.926,1.577,8.478,1,7,1   C5.466,1,3.964,1.622,2.879,2.707C1.667,3.919,1,5.529,1,7.242c0,2.038,0.873,3.983,2.396,5.337L11,19.338l3.666-3.258l4.606,4.606   l-2.122,2.122l1.473,1.471c0.617,0.618,0.798,1.541,0.442,2.393C18.731,27.479,17.953,28,17.08,28H15v3H6.816   C6.402,29.839,5.302,29,4,29c-1.654,0-3,1.346-3,3s1.346,3,3,3c1.302,0,2.402-0.839,2.816-2H15v3h2.08   c0.873,0,1.651,0.521,2.003,1.369c0.337,0.812,0.156,1.734-0.461,2.352l-1.473,1.472l2.122,2.122l-1.469,1.469L10,40.882l-9,4.5   v5.202c0,4.956,2.754,9.411,7.187,11.627L10,63.118l1.813-0.907C16.246,59.995,19,55.54,19,50.584v-4.17l1.686-1.686l2.121,2.121   l1.471-1.471c0.617-0.616,1.541-0.801,2.393-0.442C27.479,45.269,28,46.047,28,46.92V49h3v8.184c-1.161,0.414-2,1.514-2,2.816   c0,1.654,1.346,3,3,3s3-1.346,3-3c0-1.302-0.839-2.402-2-2.816V49h3v-2.08c0-0.873,0.521-1.651,1.369-2.003   c0.813-0.335,1.735-0.156,2.353,0.461l1.471,1.471l2.121-2.121l1.634,1.634l-3.065,2.452C41.321,49.262,41,49.931,41,50.649   c0,1.176,0.871,2.144,2,2.315V63h18V52.965c1.129-0.171,2-1.139,2-2.315c0-0.719-0.321-1.388-0.882-1.836L52,40.72l-5.481,4.385   l-1.791-1.791l2.122-2.122l-1.473-1.471c-0.617-0.618-0.798-1.541-0.442-2.393C45.269,36.521,46.047,36,46.92,36H49v-3h8.184   c0.414,1.161,1.514,2,2.816,2C61.654,35,63,33.654,63,32z M54,3c3.859,0,7,3.141,7,7s-3.141,7-7,7s-7-3.141-7-7S50.141,3,54,3z    M32,3c0.552,0,1,0.448,1,1s-0.448,1-1,1s-1-0.448-1-1S31.448,3,32,3z M4.725,11.085C3.629,10.11,3,8.71,3,7.242   c0-1.179,0.459-2.287,1.293-3.121C5.006,3.408,5.992,3,7,3s1.994,0.408,2.707,1.121L11,5.414l1.293-1.293   C13.006,3.408,13.992,3,15,3s1.994,0.408,2.707,1.121C18.541,4.955,19,6.063,19,7.242c0,1.468-0.629,2.868-1.725,3.843L11,16.662   L4.725,11.085z M4,33c-0.552,0-1-0.448-1-1s0.448-1,1-1s1,0.448,1,1S4.552,33,4,33z M3,50.584v-3.966l6-3v16.756   C5.299,58.485,3,54.746,3,50.584z M17,50.584c0,4.162-2.299,7.901-6,9.79V43.618l6,3V50.584z M32,61c-0.552,0-1-0.448-1-1   s0.448-1,1-1s1,0.448,1,1S32.552,61,32,61z M53,61h-2v-4h2V61z M55,61v-6h-6v6h-4v-8h14v8H55z M60.869,50.376   C60.951,50.441,61,50.544,61,50.649C61,50.843,60.843,51,60.649,51H43.351C43.157,51,43,50.843,43,50.649   c0-0.105,0.049-0.208,0.132-0.273L52,43.28L60.869,50.376z M47,34h-0.08c-1.686,0-3.19,1.007-3.849,2.602   c-0.65,1.561-0.3,3.341,0.893,4.535l0.057,0.056l-2.828,2.828l-0.057-0.057c-1.193-1.191-2.971-1.542-4.57-0.878   C35.007,43.729,34,45.234,34,46.92V47h-4v-0.08c0-1.686-1.007-3.19-2.602-3.849c-1.561-0.65-3.342-0.301-4.534,0.893l-0.057,0.057   l-2.828-2.828l0.057-0.057c1.192-1.193,1.543-2.974,0.878-4.57C20.271,35.007,18.766,34,17.08,34H17v-4h0.08   c1.686,0,3.19-1.007,3.849-2.602c0.65-1.561,0.3-3.341-0.893-4.535l-0.057-0.056l2.828-2.829l0.058,0.058   c1.191,1.191,2.969,1.542,4.569,0.878C28.993,20.271,30,18.767,30,17.081V17h4v0.081c0,1.686,1.007,3.189,2.602,3.848   c1.562,0.649,3.342,0.299,4.533-0.893l0.058-0.058l2.828,2.829l-0.057,0.057c-1.192,1.193-1.543,2.974-0.878,4.57   C43.729,28.993,45.234,30,46.92,30H47V34z M59,32c0-0.552,0.448-1,1-1s1,0.448,1,1s-0.448,1-1,1S59,32.552,59,32z"></path><path d="M53.184,37H49v2h4.184c0.414,1.161,1.514,2,2.816,2c1.654,0,3-1.346,3-3s-1.346-3-3-3C54.698,35,53.598,35.839,53.184,37z    M57,38c0,0.552-0.448,1-1,1s-1-0.448-1-1s0.448-1,1-1S57,37.448,57,38z"></path><path d="M53.184,25H49v2h4.184c0.414,1.161,1.514,2,2.816,2c1.654,0,3-1.346,3-3s-1.346-3-3-3C54.698,23,53.598,23.839,53.184,25z    M57,26c0,0.552-0.448,1-1,1s-1-0.448-1-1s0.448-1,1-1S57,25.448,57,26z"></path><path d="M37,10.816V15h2v-4.184c1.161-0.414,2-1.514,2-2.816c0-1.654-1.346-3-3-3s-3,1.346-3,3C35,9.302,35.839,10.402,37,10.816z    M38,7c0.552,0,1,0.448,1,1s-0.448,1-1,1s-1-0.448-1-1S37.448,7,38,7z"></path><path d="M25,10.816V15h2v-4.184c1.161-0.414,2-1.514,2-2.816c0-1.654-1.346-3-3-3s-3,1.346-3,3C23,9.302,23.839,10.402,25,10.816z    M26,7c0.552,0,1,0.448,1,1s-0.448,1-1,1s-1-0.448-1-1S25.448,7,26,7z"></path><path d="M10.816,27H15v-2h-4.184C10.402,23.839,9.302,23,8,23c-1.654,0-3,1.346-3,3s1.346,3,3,3C9.302,29,10.402,28.161,10.816,27z    M7,26c0-0.552,0.448-1,1-1s1,0.448,1,1s-0.448,1-1,1S7,26.552,7,26z"></path><path d="M10.816,39H15v-2h-4.184C10.402,35.839,9.302,35,8,35c-1.654,0-3,1.346-3,3s1.346,3,3,3C9.302,41,10.402,40.161,10.816,39z    M7,38c0-0.552,0.448-1,1-1s1,0.448,1,1s-0.448,1-1,1S7,38.552,7,38z"></path></g></svg>