<svg height='100px' width='100px'  fill="#000000" xmlns="http://www.w3.org/2000/svg" xmlns:xlink="http://www.w3.org/1999/xlink" version="1.1" x="0px" y="0px" viewBox="0 0 100 100" enable-background="new 0 0 100 100" xml:space="preserve"><g display="none"><path display="inline" opacity="0.3" fill-rule="evenodd" clip-rule="evenodd" d="M39.521,6.445l0.644,1.32l1.502-0.364L42.759,8.7   l0.284,1.947l-0.893,0.648l0.812,1.418l0.893,0.326l0.973-0.812l2.069,0.042l0.039,0.973l-0.647,1.296l0.647,1.096l-0.039,0.893   l-0.651,0.851l0.487,1.379v1.947l0.098,2.952l1.544-0.812l1.379-0.326l0.161-1.138l1.786-0.812l1.87,0.977l1.138-0.084l0.973,1.218   l2.356-0.241l1.219-2.521l1.866-0.402l2.518,0.647l0.812,1.625l2.437,1.754l1.376,1.016l0.567,1.218l-0.199,0.974l-0.406,0.69   l0.605,1.337l-0.081,1.579l-0.284,0.854l1.016,0.729l1.177,1.299l1.054,0.081l0.973,0.406l-0.364,0.606l1.418,0.935l0.245,0.771   l-0.368,1.257l0.081,0.729l-0.406,1.058l0.406,0.889l-0.081,2.027l-0.729,0.812l-1.337,0.648l-0.974-0.77l-1.583,0.203   l-1.218-0.322h-1.215l-1.583,0.567l-0.486-0.487L62.875,42.6l-2.636,0.851h-1.096l-1.173,1.663l-0.368,1.664l-0.932,1.257   l-0.122,2.188l0.486,2.234l0.974,0.525l0.529,1.096l-0.123,2.069l-0.154,0.865l-0.494-0.06l-0.063,0.784l-0.214,0.084l-0.168-0.273   l-1.169-0.977l-0.445-0.021l0.021-0.512l-0.701-0.36l-1.484-1.442l-0.809-0.298l-0.634,0.532l0.126,0.252l-0.105,0.214l-0.49-0.34   l-1.208-0.298L49.3,54.575l-0.788-0.277l-0.847,0.084l0.297-0.89l0.361-0.385l-0.511-0.889l0.087-1.485l0.315-0.339l-0.298-0.742   l-0.973-0.193l-0.193-0.147l-0.36,0.105l-0.403-0.297l-0.872,0.403l-0.675,0.062l-0.406-0.339l-0.361,0.448l-0.634,0.007   l-0.336-0.171v0.259l-0.259,0.764l0.938,0.469l0.168,1.022l-0.595,0.977l0.042,1.236l-0.21,0.68l0.424,0.343l-0.172,1.576   l-0.805,1.019l-0.171,1.152l-0.809,1.191l-0.297,4.271l-1.334,1.719v1.187l-0.532,1.124l0.574,0.105l0.168,0.276l-0.529,0.679   l0.084,0.511l0.277,1.166v0.743l1.103,1.614l-0.553,1.082l0.34,0.427l0.616-0.172l0.147-0.465l0.553-0.616l0.277,0.192l0.847,0.168   l0.49,0.466l0.126,1.166l0.508,0.683l-0.105,1.208l0.595,0.214l0.574,1.25l0.613-0.021l-0.021-0.616l0.087-0.466l0.273,0.872   l0.637,0.931l0.021,0.935l0.532,0.297l0.445,2.314l-0.213,0.315l-0.189,0.406l-0.277-0.382l-0.889,0.592l-0.151,0.806l1.635,0.616   l0.189-0.826l0.34,0.234l0.108,0.998l0.746,0.62l1.604,1.583l0.676,0.515l0.462-0.325l1.142,0.126l1.043,0.402l0.729,1.625   l0.612,0.802l1.03,0.658l0.126,0.542l-0.266,0.28v1.015l-0.774,0.567l-0.77-0.651l-1.012,0.123l-1.257,1.096l-1.502-0.364   l0.042-0.812L51.6,93.21l0.161-1.621l-0.729-0.729h-1.176l-0.284-0.651l-1.541-0.444l-1.054-0.932l-0.732,0.932l-0.364,1.292   l-0.469-0.763l-2.419-1.74l-0.081-0.456l0.469-0.553l0.042-0.599l-0.595-0.084l-0.385-0.935l-1.106-0.171v-0.767l-1.274-1.702   h-0.809l-0.641-2.044l-1.022-0.168v-0.851l-0.637-0.469l0.042-0.553l-1.064,0.511l0.042,1.064l-0.721-0.084l-0.511-0.767   l-0.297-1.915l0.255-0.511l-0.171-1.618l0.725-0.343l-0.042-2.171l0.595,0.13l0.424-0.851l-0.637-0.129l0.809-1.148l-0.255-0.469   l0.725-1.064l-0.641-0.084l0.234-1.853l0.294-0.844l0.528-0.893l0.161-1.418l1.215-0.893l1.341-3.568l0.648-0.406l0.081-1.866   l-0.729-1.257l0.081-1.622l-0.487-1.015l-0.245-1.66l-0.647-0.69l0.123-1.219l-0.245-1.096l0.406-0.932L38.26,46.13l-1.541-1.502   l-1.706-1.337l-1.46-1.824l-0.039-1.015l-0.812-1.947l1.176-0.687l0.161-0.854l-0.648-2.878l0.445-0.812l1.054-0.567l-0.119-1.135   l-1.177-0.567l-0.203-1.218l-0.651-1.46l-0.89-0.322l-1.337-2.92l-1.464-1.015l-0.322-0.851l-0.812-0.77l-0.931-1.621l-0.851-0.245   l-0.123-0.893l1.46-0.609l1.054-0.77l-0.406-0.931v-1.664l0.812-0.77l-0.284-1.947l0.893-1.215l2.108,0.858l1.299-1.057   l1.239,0.018l0.368-0.588l0.039-1.404l0.711-0.651l1.421,0.203l0.427-0.609l-0.609-0.837l0.021-0.63l1.261-0.448l1.649-0.084   L39.521,6.445L39.521,6.445z M42.615,89.435l0.424,0.896l0.406-0.161l-0.161-0.693l-0.406-0.203L42.615,89.435L42.615,89.435z    M39.079,83.92l0.203,1.159l0.161-0.609l-0.081-0.486L39.079,83.92L39.079,83.92z M35.077,81.074l-0.242,0.732l0.242,0.466   l-0.06,1.163l0.728-0.956v-1.362C35.746,81.116,35.179,81.053,35.077,81.074L35.077,81.074z M55.56,56.886l0.081,0.956l0.795,0.668   l0.588-0.119L55.56,56.886L55.56,56.886z M44.471,70.762l-1.019,0.385l0.735,0.224L44.471,70.762L44.471,70.762z M44.734,71.959   l-0.812,0.529l0.081,0.731l0.816,0.69l0.245-1.138L44.734,71.959z"></path></g><g display="none"><path display="inline" d="M65.042,91.296v-4.461h-1.667v-0.599h4.012v0.599H65.71v4.461H65.042L65.042,91.296z M68.091,91.296   v-5.06h0.672v2.08h2.629v-2.08h0.668v5.06h-0.668v-2.385h-2.629v2.385H68.091L68.091,91.296z M72.622,91.296l1.943-5.06h0.721   l2.073,5.06h-0.763l-0.592-1.53H73.89l-0.557,1.53H72.622L72.622,91.296z M74.082,89.22h1.716l-0.529-1.4   c-0.161-0.427-0.28-0.777-0.357-1.05c-0.067,0.325-0.158,0.647-0.273,0.966L74.082,89.22L74.082,89.22z M78.007,91.296v-5.06h0.668   v5.06H78.007L78.007,91.296z M79.832,91.296v-5.06H80.5v4.464h2.493v0.596H79.832L79.832,91.296z M83.235,91.296l1.943-5.06h0.721   l2.073,5.06h-0.763l-0.592-1.53h-2.115l-0.557,1.53H83.235L83.235,91.296z M84.695,89.22h1.716l-0.529-1.4   c-0.161-0.427-0.28-0.777-0.357-1.05c-0.067,0.325-0.158,0.647-0.273,0.966L84.695,89.22L84.695,89.22z M88.501,91.296v-5.06h0.686   l2.658,3.974v-3.974h0.641v5.06h-0.686l-2.658-3.975v3.975H88.501L88.501,91.296z M93.613,91.296v-5.06h1.74   c0.396,0,0.693,0.024,0.903,0.073c0.291,0.066,0.536,0.186,0.743,0.361c0.266,0.228,0.465,0.515,0.599,0.865   c0.133,0.354,0.2,0.753,0.2,1.205c0,0.385-0.046,0.725-0.137,1.019c-0.091,0.298-0.203,0.546-0.347,0.739   c-0.14,0.196-0.291,0.351-0.458,0.459c-0.168,0.112-0.368,0.199-0.606,0.255c-0.234,0.056-0.508,0.084-0.812,0.084H93.613   L93.613,91.296z M94.282,90.701h1.079c0.333,0,0.599-0.031,0.788-0.094s0.34-0.151,0.452-0.263   c0.161-0.158,0.284-0.371,0.371-0.637c0.091-0.27,0.133-0.595,0.133-0.977c0-0.529-0.087-0.935-0.259-1.218   c-0.175-0.287-0.385-0.477-0.634-0.574c-0.179-0.07-0.469-0.102-0.865-0.102h-1.064V90.701z"></path></g><g><path fill="none" stroke="#000000" stroke-linecap="round" stroke-linejoin="round" stroke-miterlimit="10" d="M28.683,18.5   c0.118-0.385-0.691-1.195-0.724-1.666c-0.053-0.767,0.45-1.329,0.569-2.138c0.291-0.034,0.501-0.228,0.793-0.257   c-0.425-1.076-1.026-2.562,0.812-2.567c0.598-0.001,0.773,0.542,1.247,0.586c0.774,0.073,0.565,0.058,1.287-0.088   c1.244-0.251,1.399-0.891,1.838-1.837c0.213-0.459,0.64-2.605,1.83-1.046c1.176-0.423,0.325-1.482,0.192-2.296   c1.017,0.076,1.953-0.494,2.941-0.324c0.879,0.151,0.894,1.538,2.167,0.322c0.65,0.957,2.708,3.67,1.054,4.505   c0.8,2.326,2.535-0.179,3.954,0.663c0.021,0.528-0.394,0.968-0.348,1.442c0.021,0.221,0.387,1.002,0.386,0.988   c0.032,0.653-0.098,1.691-0.175,2.545c-0.176,1.94,0.078,4.151-0.028,6.308c-0.148,0.057-0.284-0.009-0.426,0.025   c1.4,0.157,2.339-1.341,3.771-1.195c-0.213-0.133-0.482-0.599-0.705-0.771c1.021-0.184,2.404-0.98,3.262-0.911   c0.342,0.027,1.877,0.723,2.289,0.907c1.022,0.458,1.237,1.438,2.629,0.6c1.063-0.64,0.928-2.287,2.01-2.78   c0.019,0.096,0.033,0.192,0.041,0.29c2.101,0.126,3.636-0.365,5.112,1.061c0.927,0.896,1.84,2.289,2.745,3.264   c1.387,1.494,1.193,1.528,1.285,3.37c0.033,0.679,0.456,1.336,0.345,2.167c-0.096,0.713-0.486,1.266-0.44,1.975   c1.081-0.224,0.808,0.566,1.391,0.896c0.658,0.371,0.977,0.525,1.728,0.788c0.734,0.256,2.323,0.647,1.33,1.984   c0.669-0.051,1.132,0.246,1.345,0.854c-0.944,0.998-0.684,2.313-1.013,3.507c0.246,0.052,0.486,0.319,0.804,0.358   c0.089,1.654-1.271,4.136-3.112,3.993c-0.348-0.027-0.44-0.594-0.863-0.691c-0.462-0.107-1.005,0.114-1.467,0.012   c-0.805-0.178-1.566-0.908-2.371-0.978c-0.551-0.048-1.61,0.271-2.326,0.341c-1.027,0.102-2.568-0.066-3.511,0.125   c-1.801,0.366-2.085,2.245-2.858,3.646c-1.097,0.056-1.21,1.156-1.455,2.044c1.005,0.747,0.449,3.24,0.509,4.463   c2.316-0.194,1.593,4.011,1.191,5.012c-0.271-0.885-0.929-1.615-1.83-1.649c0.069-0.092,0.224-0.255,0.301-0.351   c-0.995-0.862-3.429-3.016-4.183-1.308c-1.812-1.666-2.382-1.228-4.649-0.875c0.015-0.719-0.04-1.718,0.108-2.413   c0.079-0.368,0.656-1.436,0.381-1.865c-0.488-0.763-2.999-0.184-3.687-0.139c-0.382,0.62-1.078,0.888-1.802,0.801   c0.835,0.646,0.622,0.692,0.681,1.638c0.031,0.501-0.556,0.8-0.553,1.333c0.001,0.306,0.316,0.92,0.378,1.304   c0.191,0.071,0.298,0.093,0.462,0.222c-0.324,0.223-0.479,0.786-0.803,1.027c0.791,1.169-0.451,2.074-0.86,3.117   c-0.489,1.25-0.468,2.485-0.329,3.829c0.182,1.757-0.136,1.71-1.009,3.134c-0.415,0.677-1.378,2.289-0.642,3.034   c-1.849,1.738,2.061,4.315,0.501,6.137c0.738,0.243,1.413,0.029,1.512-0.779c1.861-0.493,2.87,2.573,2.496,3.95   c0.681,0.143,0.831,0.8,1.142,1.378c0.129-0.387,0.402-0.581,0.362-1.165c1.034,0.561,3.566,6.02,1.333,5.783   c-0.227-0.235-0.282-0.124-0.5-0.275c-0.294,0.554-0.644,1.152-0.669,1.778c0.58,0.045,1.2,0.044,1.778-0.004   c0.127-0.234,0.398-0.467,0.491-0.616c0.645,1.968,2.098,2.911,3.88,4.128c1.337-1.607,3.384,1.248,3.52,2.655   c1.112,0.016,1.339,0.827,1.105,1.846c-0.115,0.065-0.137-0.159-0.267-0.135c0.065,0.392-0.137,0.805-0.188,1.129   c-1.35,0.049-1.049-0.791-2.392-0.192c-1.03,0.46-1.761,1.96-2.578,0.214c-0.549-1.174,0.458-1.607-0.214-2.671   c-0.551-0.872-2.252-0.708-2.021-1.975c-1.185-0.35-3.333-1.637-2.996,0.754c-1.58-0.36-2.171-2.027-3.795-2.471   c0.938-1.409,0.042-1.627-0.684-2.638c-0.663-0.921-1.245-1.98-2.167-2.941c-0.138,0.165-0.397,0.333-0.508,0.465   c-0.34-0.472-0.938-1.542-1.158-2.024c-0.225-0.495-0.283-1.457-0.954-1.812c-0.501,0.436-0.679,1.13-0.572,1.796   c-0.308-0.016-1.002-0.218-1.282-0.341c-0.255-2.153-1.215-3.445-0.326-5.451c0.163,0.021,0.282,0.09,0.442,0.125   c0.036-0.686,0.011-1.414,0.053-2.091c0.283,0.217,0.542,0.133,0.781,0.248c0.11-0.283,0.198-0.834,0.17-1.12   c-0.16-0.055-0.304,0.004-0.467-0.037c0.195-0.54,0.484-0.93,0.931-1.289c-0.083-0.026-0.167-0.044-0.253-0.056   c0.246-0.328,0.416-0.841,0.751-1.151c-0.404,0.05-0.566-0.167-0.917-0.176c0.133-0.966,0.281-1.968,0.678-2.775   c0.117-0.237,0.699-0.236,0.764-0.4c0.131-0.333-0.052-0.983,0.025-1.138c0.797-1.592,1.904-2.572,2.032-4.641   c2.211,0.217,0.73-2.47,0.601-3.318c-0.374-2.449,0.403-4.632-1.439-6.708c0.321-0.764,0.724-1.602,0.126-2.333   c0.091-0.114,0.252-0.199,0.338-0.325c-0.895-1.702-1.046-3.348-2.647-4.166c-2.136-1.092-2.425-1.951-3.166-4.175   c-0.319-0.957-0.504-1.204-0.345-2.008c-0.04,0.202,0.596-0.415,0.674-0.65c0.162-0.487-0.047-1.214,0-1.725   c0.095-1.023,0.694-1.802,0.878-2.575c0.218-0.91-0.006-1.289-0.241-2.354c-0.23,0.032-0.553-0.084-0.779-0.047   c0.126-1.337-0.618-1.994-1.233-2.925c-0.646-0.977-0.567-2.183-1.325-3.003c-0.74-0.801-1.805-0.829-2.592-1.708   c-0.786-0.877-3.176-2.188-2.122-3.319C26.874,18.853,28.301,19.748,28.683,18.5z"></path><path fill="none" stroke="#000000" stroke-linecap="round" stroke-linejoin="round" stroke-miterlimit="10" d="M44.833,70.833   c-0.052,0.007-0.561,0.277-0.805,0.362c-0.137,1.543,0.023,2.231,1.609,2.287c0.423-1.787,0.175-1.844-1.155-2.481   c0.034-0.212,0.249-0.289,0.183-0.168"></path></g></svg>