<svg height='100px' width='100px'  fill="#000000" xmlns="http://www.w3.org/2000/svg" viewBox="0 0 100 100" x="0px" y="0px"><title>Lighthouse</title><g data-name="Iconos"><path d="M79,35.65l-10.8-2.86a1.5,1.5,0,0,0-.76,2.9l10.79,2.86a1.73,1.73,0,0,0,.38.05,1.5,1.5,0,0,0,.39-3Z"></path><path d="M80.08,18.15a1.49,1.49,0,0,0-1.83-1.06L67.46,19.94a1.5,1.5,0,0,0,.38,2.95,1.2,1.2,0,0,0,.38-.05L79,20A1.51,1.51,0,0,0,80.08,18.15Z"></path><path d="M90.72,89.06c-4.87,0-8.66-3.43-8.66-6.39a1.5,1.5,0,0,0-3,0c0,3-3.78,6.39-8.65,6.39a10.24,10.24,0,0,1-4.26-.93l-1-14.79h0L62.9,38.82h0l-.29-4.45a1.51,1.51,0,0,0-1.5-1.4h-3.2V23.56h2.83a1.5,1.5,0,0,0,1.5-1.5,12.81,12.81,0,0,0-25.62,0,1.5,1.5,0,0,0,1.5,1.5H41V33H39.08a1.51,1.51,0,0,0-1.5,1.4L34.05,88.13a10.29,10.29,0,0,1-4.27.93c-4.87,0-8.65-3.43-8.65-6.39a1.5,1.5,0,0,0-3,0c0,3-3.78,6.39-8.66,6.39a1.5,1.5,0,1,0,0,3,12.58,12.58,0,0,0,10.16-4.93,12.58,12.58,0,0,0,10.15,4.93A13.36,13.36,0,0,0,36,90.48a1.51,1.51,0,0,0,.35-.2,11.31,11.31,0,0,0,3.55-3.15,11,11,0,0,0,2.77,2.67l.08.06a13.24,13.24,0,0,0,7.31,2.2,12.58,12.58,0,0,0,10.15-4.93,11.12,11.12,0,0,0,3.54,3.14,1.5,1.5,0,0,0,.39.22,13.23,13.23,0,0,0,6.23,1.57,12.56,12.56,0,0,0,10.15-4.93,12.58,12.58,0,0,0,10.16,4.93,1.5,1.5,0,0,0,0-3ZM39.05,57.82l21-16,.84,12.7a1.46,1.46,0,0,0-.43.22l-22.37,17ZM53.52,26.08a3.29,3.29,0,0,1,1.39.32v5.85a3.29,3.29,0,0,1-1.39.32,3.25,3.25,0,0,1,0-6.49ZM49.43,12.26a9.83,9.83,0,0,1,9.7,8.3H39.74A9.81,9.81,0,0,1,49.43,12.26ZM44,23.56h7.17A6.24,6.24,0,0,0,48.46,33H44ZM59.71,36l.14,2.23L39.31,53.85,40.48,36ZM39.94,81.17a1.5,1.5,0,0,0-1.5,1.5,5,5,0,0,1-1.23,3l.67-10.22a1.42,1.42,0,0,0,.62-.26L61.16,58l1,14.74-18.44,14a5.71,5.71,0,0,1-2.25-4.09A1.5,1.5,0,0,0,39.94,81.17Zm20.31,0a1.5,1.5,0,0,0-1.5,1.5c0,3-3.78,6.39-8.65,6.39a10.25,10.25,0,0,1-3.61-.66L62.36,76.31l.62,9.4a5,5,0,0,1-1.23-3A1.5,1.5,0,0,0,60.25,81.17Z"></path></g></svg>