<svg height='100px' width='100px'  fill="#000000" xmlns="http://www.w3.org/2000/svg" xmlns:xlink="http://www.w3.org/1999/xlink" version="1.1" x="0px" y="0px" viewBox="0 0 64 64" style="enable-background:new 0 0 64 64;" xml:space="preserve"><g><path d="M20,25C9.523,25,1,33.523,1,44s8.523,19,19,19s19-8.523,19-19S30.477,25,20,25z M13,44c0-2.35,0.2-4.511,0.539-6.461   c1.668-0.29,3.497-0.47,5.461-0.517v3.12c-1.72,0.447-3,1.999-3,3.858s1.28,3.411,3,3.858v3.12   c-1.964-0.047-3.793-0.227-5.461-0.517C13.2,48.511,13,46.35,13,44z M11.453,50.031C6.191,48.728,3,46.309,3,44   s3.191-4.728,8.453-6.031C11.162,39.859,11,41.88,11,44S11.162,48.141,11.453,50.031z M20,46c-1.103,0-2-0.897-2-2s0.897-2,2-2   s2,0.897,2,2S21.103,46,20,46z M21,27.213c1.982,0.766,3.916,3.735,5.031,8.239c-1.588-0.244-3.275-0.388-5.031-0.429V27.213z    M19,27.213v7.81c-1.756,0.042-3.443,0.185-5.031,0.429C15.084,30.948,17.018,27.979,19,27.213z M19,52.977v7.81   c-1.982-0.766-3.916-3.735-5.031-8.239C15.557,52.791,17.244,52.935,19,52.977z M21,60.787v-7.81   c1.756-0.042,3.443-0.185,5.031-0.429C24.916,57.052,22.982,60.021,21,60.787z M21,50.978v-3.12c1.72-0.447,3-1.999,3-3.858   s-1.28-3.411-3-3.858v-3.12c1.964,0.047,3.793,0.227,5.461,0.517C26.8,39.489,27,41.65,27,44s-0.2,4.511-0.539,6.461   C24.793,50.751,22.964,50.931,21,50.978z M28.547,37.969C33.809,39.272,37,41.691,37,44s-3.191,4.728-8.453,6.031   C28.838,48.141,29,46.12,29,44S28.838,39.859,28.547,37.969z M36.341,39.362c-1.913-1.532-4.754-2.755-8.191-3.512   c-0.756-3.438-1.979-6.279-3.512-8.191C30.285,29.265,34.735,33.715,36.341,39.362z M15.362,27.659   c-1.532,1.913-2.755,4.754-3.512,8.191c-3.438,0.756-6.279,1.979-8.191,3.512C5.265,33.715,9.715,29.265,15.362,27.659z    M3.659,48.638c1.913,1.532,4.754,2.755,8.191,3.512c0.756,3.438,1.979,6.279,3.512,8.191C9.715,58.735,5.265,54.285,3.659,48.638z    M24.638,60.341c1.532-1.913,2.755-4.754,3.512-8.191c3.438-0.756,6.279-1.979,8.191-3.512   C34.735,54.285,30.285,58.735,24.638,60.341z"></path><path d="M63,3h-6c-0.103,0-0.205,0.016-0.303,0.047l-8.199,2.609C48.814,5.181,49,4.612,49,4c0-1.654-1.346-3-3-3s-3,1.346-3,3   c0,1.274,0.802,2.359,1.925,2.792L34.845,10H29v2h4.301l-4.175,7.514l0.013,0.007C29.058,19.666,29,19.823,29,20   c0,2.757,2.243,5,5,5h2c2.757,0,5-2.243,5-5c0-0.177-0.058-0.334-0.139-0.479l0.013-0.007l-4.406-7.932L45,8.868V23h-1   c-0.552,0-1,0.448-1,1v3h-4c-1.654,0-3,1.346-3,3v2c0,0.552,0.448,1,1,1h18c0.552,0,1-0.448,1-1v-2c0-1.654-1.346-3-3-3h-4v-3   c0-0.552-0.448-1-1-1h-1V8.231l7.902-2.514l-3.776,6.797l0.013,0.007C51.058,12.666,51,12.823,51,13c0,2.757,2.243,5,5,5h2   c2.757,0,5-2.243,5-5c0-0.177-0.058-0.334-0.139-0.479l0.013-0.007L58.699,5H63V3z M54,30v1H38v-1c0-0.551,0.449-1,1-1h14   C53.551,29,54,29.449,54,30z M45,27v-2h2v2H45z M46,3c0.551,0,1,0.449,1,1s-0.449,1-1,1s-1-0.449-1-1S45.449,3,46,3z M38.301,19   h-6.601L35,13.059L38.301,19z M36,23h-2c-1.304,0-2.416-0.836-2.829-2h7.657C38.416,22.164,37.304,23,36,23z M57,6.059L60.301,12   h-6.601L57,6.059z M58,16h-2c-1.304,0-2.416-0.836-2.829-2h7.657C60.416,15.164,59.304,16,58,16z"></path><path d="M38.649,49.805l0.701,1.873c0.718-0.269,1.424-0.578,2.101-0.92l-0.902-1.785C39.938,49.281,39.299,49.562,38.649,49.805z"></path><path d="M42.449,47.871l1.102,1.67c0.817-0.539,1.605-1.143,2.34-1.791l-1.324-1.5C43.902,46.838,43.189,47.384,42.449,47.871z"></path><path d="M46.439,44.35l1.52,1.301c0.573-0.67,1.105-1.376,1.582-2.101l-1.67-1.1C47.439,43.104,46.958,43.743,46.439,44.35z"></path><path d="M48.973,40.55l1.785,0.9c0.346-0.685,0.655-1.392,0.92-2.101l-1.874-0.699C49.565,39.291,49.285,39.93,48.973,40.55z"></path><path d="M50.401,36.751l1.938,0.498c0.177-0.691,0.321-1.398,0.426-2.101l-1.978-0.297C50.692,35.486,50.562,36.126,50.401,36.751z   "></path><path d="M27.25,13.598l-0.499-1.937c-0.712,0.184-1.419,0.406-2.101,0.661l0.701,1.873C25.966,13.965,26.605,13.764,27.25,13.598z"></path><path d="M23.451,15.027l-0.901-1.785c-0.721,0.363-1.427,0.773-2.101,1.218l1.102,1.669C22.159,15.727,22.799,15.356,23.451,15.027   z"></path><path d="M19.65,17.561l-1.301-1.519c-0.745,0.638-1.451,1.333-2.099,2.067l1.499,1.324C18.336,18.769,18.976,18.139,19.65,17.561z"></path><path d="M16.128,21.551l-1.669-1.102c-0.443,0.672-0.853,1.378-1.217,2.1l1.785,0.901C15.357,22.797,15.728,22.158,16.128,21.551z"></path></g></svg>