<svg height='100px' width='100px'  fill="#000000" xmlns:dc="http://purl.org/dc/elements/1.1/" xmlns:cc="http://creativecommons.org/ns#" xmlns:rdf="http://www.w3.org/1999/02/22-rdf-syntax-ns#" xmlns:svg="http://www.w3.org/2000/svg" xmlns="http://www.w3.org/2000/svg" xmlns:sodipodi="http://sodipodi.sourceforge.net/DTD/sodipodi-0.dtd" xmlns:inkscape="http://www.inkscape.org/namespaces/inkscape" version="1.1" x="0px" y="0px" viewBox="0 0 100 100"><g transform="translate(0,-952.36218)"><path style="text-indent:0;text-transform:none;direction:ltr;block-progression:tb;baseline-shift:baseline;color:#000000;enable-background:accumulate;" d="m 16.812569,955.36217 c -0.4584,0.0875 -0.82072,0.5334 -0.8125,1 l 0,92.00003 c 5e-5,0.5236 0.47642,0.9999 1,1 l 66,0 c 0.52358,-10e-5 0.99995,-0.4764 1,-1 l 0,-92.00003 c -5e-5,-0.52358 -0.47642,-0.99995 -1,-1 -23.05128,0 -46.45223,0 -66.1875,0 z m 1.1875,2 64,0 0,90.00003 -64,0 z m 3,3 c 0,29.34691 0,58.75753 0,84.00003 20.30437,0 40.49229,0 58,0 0,-29.2093 0,-58.9828 0,-84.00003 -20.15233,0 -40.73348,0 -58,0 z m 2,2 54,0 0,29.1875 -14.21875,2.65625 -0.75,-6.53125 10.71875,-12.65625 -1.5,-1.28125 c -4.01444,4.6803 -7.78694,9.23283 -11.25,13.31245 l -6.25,-5.34375 0.25,-3.25 c 0.0521,-0.5539 -0.44366,-1.09614 -1,-1.09375 l -3.8125,0 c -1.36956,-0.68421 -2.83723,-1.4852 -4.21875,-2 -0.51308,0.0161 -0.96895,0.48667 -0.96875,1 l 0,6.40625 -1.09375,0.53125 -7.46875,-1.84375 -12.4375,-9.5937 z m 0,12.0625 c 0.20699,0.0791 13.06115,9.72905 21.34375,18.71875 l -5.75,3.28125 -5.46875,0.90625 -10.125,-3.65625 z m 23,3.5625 2.5625,1.28125 c 0.1363,0.0636 0.2871,0.0959 0.4375,0.0937 l 2.90625,0 -0.90625,11.9375 c -0.0179,0.18119 0.0149,0.36712 0.0937,0.53125 l 2,4 c 0.29919,0.5847 1.23392,0.69052 1.65625,0.1875 l 5.5,-6.28125 0.75,6.75 1,7.99998 c 0.024,0.2219 0.12479,0.4347 0.28125,0.5938 l 3.75,3.75 -6.28125,1.5625 c -0.55802,0.1482 -0.89202,0.848 -0.65625,1.375 l 2.6875,6.0312 -4.90625,-3.0625 -2.90625,-9.6562 c -0.19884,-0.6885 -1.2512,-0.9181 -1.71875,-0.375 l -7.53125,8.4687 -4.96875,-2.125 3.96875,-3.9687 c 0.28217,-0.2899 0.3604,-0.7593 0.1875,-1.125 l -3.625,-8.15628 6.21875,-3.5625 c 0.52499,-0.30259 0.64046,-1.12737 0.21875,-1.5625 l -8.46875,-8.46875 4.5,1.125 c 0.22694,0.0608 0.47524,0.0382 0.6875,-0.0625 l 2,-1 c 0.33721,-0.16408 0.56511,-0.53125 0.5625,-0.90625 z m 7.5625,6.1875 5.09375,4.375 -4.40625,5.03125 -1.21875,-2.4375 z m 23.4375,9.40625 0,6.34375 -11.25,-4.21875 z m -54,2.21875 3.125,1.125 5.8125,18.43753 -8.9375,7.8125 z m 40.0625,1.03125 13.9375,5.21878 0,25.4687 -12.21875,-7.8437 -3.40625,-7.625 6.875,-1.7188 c 0.66801,-0.1767 0.94508,-1.1556 0.46875,-1.6562 l -4.75,-4.75 z m -34.5625,0.96875 4.15625,1.5 c 0.15774,0.0628 0.33165,0.0846 0.5,0.0625 l 5.25,-0.875 3.40625,7.65623 c -2.53826,2.818 -5.37047,5.2701 -8.21875,7.75 z m 24.0625,9.59373 2.46875,8.25 c 0.071,0.2323 0.22987,0.4365 0.4375,0.5625 7.24822,4.4578 14.36946,9.0907 21.5312,13.6875 l 0,12.4688 -54,0 0,-16.5625 15.15625,-13.25 5.5,2.3437 -7.5625,16.0625 1.8125,0.8438 7.9375,-16.8438 z" fill="#000000" fill-opacity="1" stroke="none" marker="none" visibility="visible" display="inline" overflow="visible"></path></g></svg>