<svg height='100px' width='100px'  fill="#000000" xmlns="http://www.w3.org/2000/svg" xmlns:xlink="http://www.w3.org/1999/xlink" version="1.1" x="0px" y="0px" viewBox="0 0 66 66" enable-background="new 0 0 66 66" xml:space="preserve"><g><path d="M61.0191,51.651L47.1199,25.9741c0.1301-0.0701,0.2602-0.13,0.3903-0.1901c1.1583-0.591,0.2878-2.3854-0.9206-1.7812   c-0.1401,0.0701-0.2802,0.13-0.4203,0.2001L33.8711,1.4879c-0.3502-0.6506-1.4109-0.6506-1.7612,0L4.8819,51.8113   c-0.3536,0.6442,0.0949,1.4709,0.8805,1.4709h12.7385L12.9672,63.529C12.6169,64.1473,13.0549,65,13.8478,65h38.2854   c0.01,0,0.02,0,0.02,0c0.8693,0,1.2903-1.0123,0.7805-1.631l-5.4536-10.0868h12.7385c0.01,0,0.02,0,0.02,0   C61.116,53.2822,61.5274,52.2688,61.0191,51.651z M50.4621,62.9986H15.5289l5.2535-9.7164h24.4162L50.4621,62.9986z    M46.3994,51.2809L34.6316,29.5365c0.3803-0.03,0.7605-0.0501,1.1308-0.0901c1.3113-0.1432,1.117-2.1347-0.2202-1.9913   c-0.9506,0.1002-1.9213,0.1603-2.8819,0.1603c-0.5783,0-1.1365,0.5194-0.9506,1.2606l-12.1181,22.405H7.4336l13.1287-24.246   c0.02,0,0.03,0.02,0.04,0.0298c0.9707,0.4104,1.9413,0.7808,2.8919,1.0808c0.1101,0.0401,0.2102,0.0501,0.3102,0.0501   c1.1389,0,1.3869-1.6061,0.3102-1.9512c-0.8606-0.2802-1.7311-0.6105-2.6017-0.9706l11.4776-21.214L44.348,25.0536   c-0.13,0.0601-0.2701,0.12-0.4002,0.1801c-1.2854,0.5292-0.3594,2.3996,0.7605,1.8413c0.2001-0.0801,0.4002-0.1703,0.6004-0.2604   l13.2388,24.4664H46.3994z"></path><path d="M55.228,20.8262c0.7935-0.6108,1.5909-1.2567,2.3697-1.9192c1.0104-0.858-0.2911-2.3836-1.2958-1.5244   c-0.7554,0.642-1.5274,1.2674-2.2955,1.8587C52.9448,20.0588,54.1948,21.6261,55.228,20.8262z"></path><path d="M59.8747,16.887l0.3977-0.3694c0.9652-0.9021-0.3946-2.3675-1.3661-1.4639l-0.3899,0.3635   C57.5444,16.3168,58.9019,17.7857,59.8747,16.887z"></path><path d="M15.1653,24.1809c0.8766,0.5531,1.7707,1.073,2.658,1.545c0.1495,0.0792,0.3108,0.1173,0.4691,0.1173   c1.0405,0,1.3873-1.3966,0.471-1.8841c-0.8433-0.4495-1.6955-0.944-2.531-1.4707C15.1088,21.7832,14.0476,23.4771,15.1653,24.1809z   "></path><path d="M50.1876,24.2865c0.8531-0.513,1.7189-1.072,2.573-1.6603c1.0873-0.7466-0.0382-2.3963-1.1355-1.6476   c-0.8209,0.5648-1.6515,1.1013-2.4694,1.5938C48.0089,23.2605,49.0666,24.9659,50.1876,24.2865z"></path><path d="M29.7717,27.4653c-0.9518-0.1026-1.9134-0.258-2.8583-0.4622c-1.2825-0.2845-1.7245,1.6738-0.4222,1.9564   c1.0124,0.2189,2.0443,0.386,3.0655,0.4954c0.0371,0.0039,0.0733,0.0059,0.1085,0.0059   C30.9201,29.4608,31.0217,27.5988,29.7717,27.4653z"></path><path d="M41.2099,26.238c-0.9323,0.2971-1.8762,0.5492-2.8065,0.7495c-1.2885,0.2773-0.8785,2.2414,0.4222,1.9564   c0.9919-0.214,1.9984-0.4827,2.9903-0.7984C43.083,27.7411,42.4637,25.8333,41.2099,26.238z"></path><path d="M7.8959,18.5942c0.9743,0.8804,2.3272-0.59,1.3466-1.4815c-0.7163-0.6498-1.4365-1.3358-2.143-2.0375   c-0.9399-0.9305-2.3505,0.4862-1.4111,1.4209C6.4164,17.2183,7.1591,17.9239,7.8959,18.5942z"></path><path d="M12.6275,22.4601c1.0592,0.7682,2.2545-0.8348,1.1766-1.6202c-0.77-0.559-1.5538-1.1639-2.3297-1.7981   c-1.0202-0.8404-2.2927,0.7091-1.2665,1.5479C11.0132,21.2493,11.8272,21.8776,12.6275,22.4601z"></path></g></svg>