<svg height='100px' width='100px'  fill="#000000" xmlns="http://www.w3.org/2000/svg" xmlns:xlink="http://www.w3.org/1999/xlink" version="1.1" x="0px" y="0px" viewBox="0 0 512 512" style="enable-background:new 0 0 512 512;" xml:space="preserve"><g><path d="M398.453125,418.0517578c-6.0678711-4.5771484-13.7387695-6.0043945-21.0463867-3.9169922l-27.2182617,7.7768555   C351.3583984,418.8295898,352,415.487793,352,412c0-15.4394531-12.5605469-28-28-28h-68   c-2.121582,0-4.1567383,0.8427734-5.6567383,2.3432617L220.6860352,416H208h-32h-64c-4.418457,0-8,3.581543-8,8v80   c0,4.418457,3.581543,8,8,8h64h32h128c0.9594727,0,1.9106445-0.1723633,2.809082-0.5092773l53.6181641-20.1069336   C401.7416992,487.890625,408,478.8598633,408,468.9121094v-31.7001953   C408,429.6118164,404.5205078,422.628418,398.453125,418.0517578z M120,432h48v64h-48V432z M184,432h16v64h-16V432z    M392,468.9121094c0,3.315918-2.0859375,6.3261719-5.190918,7.4902344L334.5493164,496H216v-64h8   c2.121582,0,4.1567383-0.8427734,5.6567383-2.3432617L259.3139648,400H324c6.6166992,0,12,5.3833008,12,12s-5.3833008,12-12,12h-28   c-4.418457,0-8,3.581543-8,8c0,4.4111328-3.5888672,8-8,8c-4.418457,0-8,3.581543-8,8s3.581543,8,8,8   c10.4294434,0,19.3215332-6.6886597,22.6239014-16H344c0.7431641,0,1.4829102-0.1035156,2.1977539-0.3076172l35.6040039-10.1728516   c2.4384766-0.6953125,4.9936523-0.2202148,7.0161133,1.3056641C390.840332,432.3505859,392,434.6787109,392,437.2119141   V468.9121094z"></path><path d="M504,128h-68.6865234l-29.6567383-29.6567383C404.1567383,96.8427734,402.121582,96,400,96h-48.0732422   c0.0029297-0.4277954,0.0166016-0.8519897,0.0166016-1.2802734c0-12.5068359-2.472168-24.6914063-7.3198242-36.1469727   c-4.706543-11.4189453-11.7026367-21.7734375-20.8061523-30.7890625C305.684082,9.9038086,281.5991211,0.0566406,256,0.0566406   s-49.684082,9.847168-67.8154297,27.7250977c-10.5466919,10.3924561-18.4605103,23.0383301-23.0944824,36.7729492   c-1.0192871,0.3983765-1.9581299,0.9996338-2.7468262,1.7885742L108.6865234,120H8c-4.418457,0-8,3.581543-8,8v48v48   c0,2.121582,0.8427734,4.1567383,2.3432617,5.6567383l64,64C67.8432617,295.1572266,69.878418,296,72,296h44.6865234   l29.6567383,29.6567383C147.8432617,327.1572266,149.878418,328,152,328h44.6865234l37.6567383,37.6567383   C235.8432617,367.1572266,237.878418,368,240,368h72c2.121582,0,4.1567383-0.8427734,5.6567383-2.3432617L371.3134766,312H432   c2.121582,0,4.1567383-0.8427734,5.6567383-2.3432617l72-72C511.1572266,236.1567383,512,234.121582,512,232v-48v-48   C512,131.581543,508.418457,128,504,128z M247.9433594,352v-32h56.1132813v32H247.9433594z M375.9433594,296v-32h48.1132813v32   H375.9433594z M159.9433594,312v-32h32.1132813v32H159.9433594z M79.9433594,280v-32h32.1132813v32H79.9433594z M16,220.6865234   v-25.3730469l48.0566406,48.0566406v25.3730469L16,220.6865234z M127.9433594,284.6298828v-25.3730469l16.1132813,16.1132813   v25.3730469L127.9433594,284.6298828z M207.9433594,316.6298828v-25.3730469l24.1132813,24.1132813v25.3730469   L207.9433594,316.6298828z M319.9433594,315.3701172l40.1132813-40.1132813v25.3730469l-40.1132813,40.1132813V315.3701172z    M439.9433594,259.3701172L496,203.3134766v25.3730469l-56.0566406,56.0566406V259.3701172z M199.3369141,39.0961914   C214.4785156,24.1660156,234.6020508,15.9433594,256,15.9433594s41.5214844,8.2226563,56.6508789,23.140625   c7.5751953,7.5024414,13.3911133,16.0961914,17.3134766,25.6113281c4.0424805,9.5541992,6.0922852,19.6557617,6.0922852,30.0244141   c0,2.7080688-0.0720215,5.3981934-0.1967773,8.0285645c-0.0432129,0.2738037-0.074585,0.5515747-0.0893555,0.8342285   c-2.2226563,42.5419922-20.2724609,82.5444336-50.8276367,112.6411133L256,244.7646484l-28.9433594-28.5415039   c-16.3134766-16.0844727-29.0170898-34.8286133-37.7626953-55.7250977C180.4726563,139.5283203,176,117.3974609,176,94.7197266   c0-7.0146484,0.9482422-13.9262695,2.8183594-20.5439453c0.0817261-0.2891846,0.1445923-0.5811157,0.1929321-0.8741455   C182.6356812,60.4594116,189.645752,48.6456909,199.3369141,39.0961914z M16,136h96   c2.121582,0,4.1567383-0.8427734,5.6567383-2.3432617l42.4077148-42.4072266C160.0214844,92.4038086,160,93.5605469,160,94.7197266   c0,24.8198242,4.894043,49.0380859,14.5400391,71.9692383c9.5629883,22.8481445,23.4521484,43.347168,41.2827148,60.9272461   l34.5600586,34.0800781c3.1152344,3.0712891,8.1191406,3.0712891,11.234375,0l34.5566406-34.0771484   C327.7592773,196.5078125,347.125,155.6958008,351.1977539,112h45.4887695l29.6567383,29.6567383   C427.8432617,143.1572266,429.878418,144,432,144h64v36.6865234L428.6865234,248H368   c-2.121582,0-4.1567383,0.8427734-5.6567383,2.3432617L308.6865234,304h-65.3730469l-37.6567383-37.6567383   C204.1567383,264.8427734,202.121582,264,200,264h-44.6865234l-29.6567383-29.6567383   C124.1567383,232.8427734,122.121582,232,120,232H75.3134766L16,172.6865234V136z"></path><path d="M256,151.9433594c30.847168,0,55.9433594-25.0961914,55.9433594-55.9433594S286.847168,40.0566406,256,40.0566406   S200.0566406,65.152832,200.0566406,96S225.152832,151.9433594,256,151.9433594z M256,55.9433594   c22.0874023,0,40.0566406,17.9692383,40.0566406,40.0566406S278.0874023,136.0566406,256,136.0566406   S215.9433594,118.0874023,215.9433594,96S233.9125977,55.9433594,256,55.9433594z"></path></g></svg>