<svg height='100px' width='100px'  fill="#000000" xmlns:dc="http://purl.org/dc/elements/1.1/" xmlns:cc="http://creativecommons.org/ns#" xmlns:rdf="http://www.w3.org/1999/02/22-rdf-syntax-ns#" xmlns:svg="http://www.w3.org/2000/svg" xmlns="http://www.w3.org/2000/svg" xmlns:sodipodi="http://sodipodi.sourceforge.net/DTD/sodipodi-0.dtd" xmlns:inkscape="http://www.inkscape.org/namespaces/inkscape" viewBox="0 0 118.74856 100.67403" version="1.1" x="0px" y="0px"><g transform="translate(-430.73877,-268.65454)"><path style="color:#000000;font-style:normal;font-variant:normal;font-weight:normal;font-stretch:normal;font-size:medium;line-height:normal;font-family:sans-serif;text-indent:0;text-align:start;text-decoration:none;text-decoration-line:none;text-decoration-style:solid;text-decoration-color:#000000;letter-spacing:normal;word-spacing:normal;text-transform:none;direction:ltr;block-progression:tb;writing-mode:lr-tb;baseline-shift:baseline;text-anchor:start;white-space:normal;clip-rule:nonzero;display:inline;overflow:visible;visibility:visible;opacity:1;isolation:auto;mix-blend-mode:normal;color-interpolation:sRGB;color-interpolation-filters:linearRGB;solid-color:#000000;solid-opacity:1;fill:#000000;fill-opacity:1;fill-rule:nonzero;stroke:none;stroke-width:2.02030516;stroke-linecap:round;stroke-linejoin:round;stroke-miterlimit:4;stroke-dasharray:none;stroke-dashoffset:0;stroke-opacity:1;color-rendering:auto;image-rendering:auto;shape-rendering:auto;text-rendering:auto;enable-background:accumulate" d="m 471.95713,271.3174 c -1.82168,-0.0427 -3.71117,0.0121 -5.66809,0.17139 -0.51564,-0.42178 2.20257,1.76553 1.68781,1.34263 l 0,0.002 c 0.26482,0.27924 0.60987,0.61213 1.0522,1.00936 0.98473,0.88429 1.99154,1.86214 2.78525,2.6924 0.39679,0.41512 0.74092,0.79615 0.99984,1.1022 0.25675,0.30355 0.44986,0.58423 0.46658,0.61656 0.0684,0.13218 0.0869,0.20447 0.0857,0.19521 0.004,0.0256 0.0149,-0.0181 -0.0309,0.0881 -0.0783,0.18134 -0.42622,0.69279 -1.09981,1.58544 -0.88753,1.17617 -1.72812,2.56857 -2.35913,3.83506 -0.6289,1.26229 -1.07877,2.34239 -1.08315,3.19709 l 0,0.002 c 0,0.31538 0.0915,0.62255 0.20711,1.02601 0.11786,0.41136 0.27729,0.89326 0.45468,1.36167 1.43511,3.78991 2.21392,6.79087 2.21392,7.98676 0,0.33178 -0.0232,0.52223 -0.0452,0.59513 -0.0282,0.0931 -0.028,0.0898 -0.14761,0.20949 -0.063,0.063 -0.34063,0.23081 -0.70226,0.3666 -0.3616,0.13579 -0.81508,0.26324 -1.28311,0.3428 -0.94211,0.16016 -2.00441,0.15753 -2.54957,0.005 -0.33739,-0.0946 -0.85487,-0.38891 -1.34025,-0.82844 -1.01584,-0.92 -1.96352,-1.2651 -3.45656,-1.26644 -1.45133,-9.5e-4 -2.8329,0.38569 -3.65414,1.20694 -0.62766,0.62764 -0.9103,1.57881 -0.99745,2.67098 -0.0874,1.09426 0.036,2.36266 0.37136,3.68746 0.35024,1.38431 1.60879,3.9823 2.49243,5.16818 1.8917,2.53855 6.19561,4.52926 9.70313,4.59209 1.15526,0.0206 2.03888,-0.11588 4.31832,-0.66179 6.03379,-1.44501 11.35187,-2.164 16.08538,-2.18059 1.6464,-0.006 2.49256,-0.002 2.94474,0.0405 0.46232,0.044 0.46697,0.0734 0.81892,0.269 0.50163,0.27866 0.57977,0.36924 0.93794,1.08553 0.21913,0.43829 0.30063,0.62072 0.34756,0.89033 0.0461,0.26509 0.0547,0.67625 0.0452,1.45451 -0.0525,4.2607 -2.69492,11.87463 -7.80346,22.03439 0.80313,-0.2665 1.46647,-0.49016 1.69258,-0.57372 0.35846,-0.13246 0.45731,-0.26018 0.48801,-0.30709 0.006,-0.011 0.002,-0.006 0.005,-0.01 l -0.002,-0.10474 0.0833,-0.14998 c 0,0 0.70955,-1.26624 1.43547,-2.55433 0.36295,-0.64403 0.72925,-1.29445 1.01411,-1.79494 0.14252,-0.25024 0.2633,-0.46127 0.3547,-0.61894 0.0457,-0.0789 0.0863,-0.14444 0.11665,-0.19521 0.0303,-0.0507 0.0269,-0.0575 0.0881,-0.14044 0.14688,-0.1985 0.14599,-0.14862 0.19757,-0.18807 0.0516,-0.0395 0.10941,-0.0831 0.18092,-0.1333 0.1429,-0.10057 0.33277,-0.22789 0.55467,-0.37614 0.44391,-0.2965 1.01919,-0.6722 1.59022,-1.04268 1.14208,-0.74095 2.26628,-1.45928 2.26628,-1.45928 l 0.0143,-0.01 0.0167,-0.01 c 0,0 4.00486,-2.25671 4.42069,-2.49958 0.32783,-0.19148 0.83859,-0.40441 1.32358,-0.60466 0.485,-0.20027 0.90937,-0.36423 0.90937,-0.36423 l 0.0167,-0.007 3.01139,-0.99984 0.64275,-0.29756 c 0.4347,-1.19177 0.81568,-2.40749 1.13314,-3.64701 0.65218,-2.54643 1.03048,-5.14158 1.14981,-7.73917 1.00105,-16.97655 -11.17534,-39.42906 -38.50066,-40.06944 z m -25.40761,9.64599 c -0.12197,3.1e-4 -0.14756,0.0329 -0.17855,0.05 -0.0313,0.0172 -0.0552,0.0327 -0.0786,0.05 -0.0472,0.0346 -0.0958,0.0738 -0.15236,0.1238 -0.1131,0.10007 -0.25421,0.23731 -0.42373,0.40469 -0.33904,0.33474 -0.78017,0.78947 -1.24741,1.2855 -0.93445,0.99207 -1.96929,2.13905 -2.49958,2.80428 -0.0532,0.0668 -0.10439,0.13752 -0.15712,0.20472 l -0.99982,1.68068 c -11.48369,18.86895 -8.42259,39.19728 6.87741,51.66749 l 0.19282,-0.16188 1.70447,-0.3547 1.22837,0.58085 0.83557,0.29996 0.88318,0.62369 0.92367,0.0881 0.95697,-0.16902 1.68068,0.18568 1.30215,0.49754 1.19028,0.71178 1.19265,0.85462 1.13315,0.79034 0.98078,0.77606 1.37835,0.40946 1.88063,0.44278 1.50213,0.33328 1.6283,0.32613 0.97364,-0.62847 6.61793,-3.06852 c 0.0261,-0.0159 0.34968,-0.2123 0.73322,-0.45945 0.26489,-0.1707 0.51629,-0.35001 0.69512,-0.48087 -0.011,-0.0288 -0.0183,-0.0652 -0.0286,-0.0928 -0.10921,-0.29856 -0.21474,-0.5307 -0.37375,-0.70941 -0.23215,-0.26091 -0.55216,-0.46694 -1.1379,-0.69274 -0.58572,-0.22578 -1.45971,-0.48762 -2.88285,-0.8927 -1.3497,-0.38416 -2.88878,-0.89877 -3.31372,-1.09267 -2.61894,-1.19505 -4.47068,-4.87675 -4.48497,-9.21512 -0.007,-2.06178 0.20907,-3.00278 1.45929,-6.3275 0.5409,-1.43848 0.86891,-2.43482 1.01411,-3.19232 0.14521,-0.75751 0.10366,-1.30626 -0.13093,-1.75208 -0.42585,-0.80936 -1.39215,-1.71343 -3.36371,-3.14947 -1.97157,-1.43607 -4.95855,-3.39294 -9.4389,-6.21564 -2.33144,-1.46885 -3.19546,-2.22438 -4.44687,-3.88505 -2.17956,-2.89254 -3.43753,-6.87184 -3.75888,-12.00989 -0.15215,-2.43186 0.0117,-6.61307 0.34756,-8.87469 0.0581,-0.39132 0.10013,-0.74809 0.11902,-1.01411 0.01,-0.133 0.0147,-0.24117 0.0119,-0.33328 0,-0.0461 -0.005,-0.0864 -0.0167,-0.14283 -0.006,-0.0283 -0.0117,-0.0589 -0.0452,-0.11427 -0.0334,-0.0551 -0.1391,-0.16125 -0.28328,-0.16188 z m 84.89521,29.3022 c -4.2946,5.03289 -11.23144,11.05528 -11.23144,11.05528 l -0.0262,0.0238 -0.0332,0.01 c 0,0 -1.04776,0.29019 -2.14012,0.56657 -0.54618,0.13822 -1.10421,0.27352 -1.54975,0.3666 -0.22273,0.0466 -0.41713,0.0835 -0.57133,0.10475 -0.077,0.011 -0.14428,0.0167 -0.20234,0.019 -0.0581,0.002 -0.10318,0.005 -0.16663,-0.0167 0.009,0.002 -0.0979,-0.0156 -0.23092,-0.019 -0.13301,-0.004 -0.30765,-4e-5 -0.50944,0.005 -0.40354,0.011 -0.91393,0.0349 -1.41167,0.0643 -0.9863,0.0583 -1.91334,0.13197 -1.93062,0.13331 -0.011,0.002 -1.83324,0.57002 -5.82998,1.94968 -3.96616,1.36909 -9.74861,5.32868 -10.91244,6.32749 -0.57109,0.4901 -1.22778,1.43485 -1.8235,2.45912 -0.5957,1.02419 -1.13697,2.12797 -1.50927,2.94713 -0.39082,0.85978 -0.98492,1.26445 -1.56165,1.49498 -0.57677,0.23053 -1.13503,0.31148 -1.48784,0.51896 -0.12632,0.0742 -0.33779,0.15454 -0.64037,0.26187 -0.30252,0.10725 -0.69051,0.23402 -1.13314,0.37374 -0.88528,0.27949 -1.99386,0.61058 -3.09472,0.93317 -1.10076,0.32259 -2.19319,0.63827 -3.04235,0.88557 -0.42454,0.12366 -0.78836,0.22945 -1.06172,0.31185 -0.27331,0.0824 -0.46613,0.14647 -0.50944,0.16426 -0.21667,0.089 -0.78197,0.45869 -1.47831,0.85699 -0.69597,0.39904 -1.54165,0.83259 -2.40913,1.07364 -0.79276,0.22029 -2.22843,1.08783 -3.51369,1.9092 -0.64269,0.41066 -1.25116,0.81001 -1.74018,1.11409 -0.2293,0.14258 -0.42672,0.25844 -0.59515,0.35232 -0.30945,0.45416 -0.62729,1.16573 -0.76654,2.29724 -0.33153,2.69408 1.43072,4.46354 1.43072,4.46354 l 0.007,0.007 0.007,0.007 c 0,0 1.87976,2.04511 4.62541,1.12839 3.07471,-1.02664 4.19465,-1.65267 5.72285,-1.71639 0.4541,-0.0189 2.05347,-0.43209 3.39468,-0.84747 1.32938,-0.41171 2.47426,-0.80937 2.49481,-0.81654 0.0172,-0.007 0.81051,-0.34421 1.68543,-0.7213 0.88407,-0.38106 1.87393,-0.81697 2.06394,-0.91176 0.33646,-0.16776 1.38312,-0.6222 2.55433,-1.05696 0.58562,-0.21738 1.19059,-0.4256 1.73304,-0.57371 0.5424,-0.14809 0.98343,-0.26099 1.45213,-0.20473 0.46715,0.0561 2.15965,0.18796 3.79936,0.3666 0.81985,0.0892 1.63664,0.19112 2.31152,0.3071 0.33745,0.058 0.63766,0.11916 0.89747,0.18807 0.25989,0.069 0.46591,0.12597 0.69273,0.27614 0.39651,0.26258 0.59033,0.38692 0.67609,0.44039 0.0429,0.0268 0.0633,0.037 0.0476,0.0286 l 0.27614,0.28328 0.0119,0.0143 0.007,0.019 0.0428,0.16663 -0.30709,0.62371 -0.24997,0.0833 c -3e-5,3e-5 -0.138,0.002 -0.13807,0.002 -1.6e-4,-2e-5 -0.0988,-0.0184 -0.12378,-0.0263 -0.0998,-0.0315 -0.10002,-0.0423 -0.11904,-0.0524 -0.0381,-0.0204 -0.0635,-0.0359 -0.11663,-0.069 -0.1063,-0.0663 -0.30365,-0.1939 -0.70466,-0.45945 0.0273,0.0182 -0.11681,-0.0536 -0.31899,-0.10712 -0.20213,-0.0536 -0.47362,-0.11021 -0.78796,-0.16427 -0.62871,-0.1081 -1.42683,-0.20736 -2.23296,-0.29519 -1.61235,-0.17566 -3.23283,-0.29691 -3.81364,-0.3666 -0.0552,-0.007 -0.48534,0.0369 -0.96888,0.16902 -0.48351,0.13203 -1.05988,0.32876 -1.62354,0.538 -1.12723,0.41844 -2.24704,0.91066 -2.43054,1.00222 -0.32994,0.16464 -1.24088,0.56023 -2.12821,0.94269 -0.88732,0.38243 -1.70925,0.73083 -1.70925,0.73083 l -0.0214,0.007 -0.019,0.007 c 0,0 -1.19312,0.4149 -2.55909,0.83795 -1.36597,0.42306 -2.8121,0.86453 -3.71604,0.90223 -1.18817,0.0497 -2.2447,0.61003 -5.37291,1.65449 -3.44586,1.15054 -5.92781,-1.44446 -5.94424,-1.46167 -0.0122,-0.0122 -0.54995,-0.55236 -1.04267,-1.50688 -0.49819,-0.96496 -0.94381,-2.34397 -0.74036,-3.99695 0.0475,-0.38698 0.11648,-0.73572 0.19997,-1.05696 0.0305,0.004 0.0586,0.006 0.0881,0.01 l 0.35471,-0.95698 -0.11188,-0.0214 c 0.006,-0.0144 0.0133,-0.031 0.019,-0.0452 -0.1407,-0.0267 -0.25269,-0.0453 -0.41421,-0.0786 -0.69933,-0.14442 -1.574,-0.34409 -2.42818,-0.54754 -1.70839,-0.40691 -3.3399,-0.82606 -3.3399,-0.82606 l -0.0381,-0.01 -0.0309,-0.0262 c 0,0 -0.76907,-0.7092 -3.62318,-2.66621 -1.40579,-0.96394 -2.53679,-1.19212 -3.31374,-1.1879 -0.51863,0.002 -0.85725,0.10296 -1.03554,0.17139 -0.0652,0.12385 -0.17028,0.22271 -0.29757,0.28092 0,0 -0.86793,0.41392 -1.3712,0.64274 -0.53274,0.24224 -0.60891,0.20009 -0.92127,0.56895 -0.0364,0.043 -0.095,0.14155 -0.1595,0.2571 0,0.19547 -0.0927,0.38063 -0.24757,0.49992 -0.0122,0.0274 -0.0268,0.052 -0.0381,0.0786 -0.13443,0.31538 -0.21643,0.55273 -0.22614,0.58086 l -0.0905,0.47611 c 0,0.006 0.005,0.0273 0.0286,0.0976 0.0297,0.0809 0.0883,0.20812 0.1976,0.3809 l -0.002,0 c 0.10933,0.17276 0.26954,0.39302 0.50229,0.65941 0.43903,0.50246 1.39798,1.3489 2.22344,2.03536 0.82547,0.68649 1.52593,1.23076 1.52593,1.23076 l 0.0452,0.0333 0.0381,0.0428 c 0,0 0.5947,0.66063 1.2474,1.39977 0.65274,0.7391 1.33875,1.5221 1.62117,1.89967 -0.0417,-0.0561 0.14997,0.15532 0.39517,0.37615 0.24517,0.22079 0.57899,0.50995 0.9665,0.84032 0.77506,0.66079 1.77081,1.48861 2.75192,2.29724 1.96225,1.61727 3.8684,3.15899 3.8684,3.15899 0.0129,0.011 0.0239,0.0219 0.0357,0.0333 0.52955,0.27405 1.18469,0.60541 1.93777,0.9665 1.7315,0.83019 3.84549,1.74615 5.33719,2.0925 3.00523,0.69774 10.36254,1.36882 10.36254,1.36882 l 0.0119,0 0.0119,0.005 c 0,0 8.45424,2.10983 11.39808,2.87332 1.39802,0.36257 2.65851,-0.37205 3.58749,-1.22361 0.92893,-0.85153 1.50213,-1.79969 1.50213,-1.79969 l 0.0143,-0.0238 18.70638,-15.33789 13.46676,-7.26306 14.5309,-5.95376 -14.91654,-24.71965 -0.002,0 z m -82.00523,29.74736 c -0.10347,0.004 -0.20482,0.0133 -0.30233,0.031 -0.80397,0.14518 -1.15394,0.52327 -1.32597,0.86414 -0.0247,0.0487 -0.0372,0.0918 -0.0548,0.13807 0.24785,0.11116 0.57232,0.26011 0.90699,0.41898 0.34163,0.1622 0.6885,0.33268 0.97602,0.49039 0.078,0.0428 0.14063,0.0826 0.2095,0.12379 0.27721,-0.32615 0.55005,-0.50455 0.82129,-0.64513 0.009,0.006 0.0156,0.0109 0.0238,0.0167 l 0.84272,-0.38326 -0.0357,-0.0238 c 0.16375,-0.0764 0.32336,-0.15151 0.51182,-0.24043 -0.1019,-0.0555 -0.19596,-0.10909 -0.30709,-0.16426 -0.69255,-0.34396 -1.54215,-0.64953 -2.26629,-0.62609 z m -2.39245,2.1068 -1.72114,0.64037 c -0.0658,0.0251 -0.13666,0.0382 -0.20711,0.0405 -0.34641,0.2144 -0.55777,0.50852 -0.68798,0.84986 -0.15444,0.40489 -0.18684,0.87659 -0.15473,1.32596 0.0614,0.85941 0.33667,1.58215 0.36184,1.64735 l 4.93964,3.18755 2.4972,2.46625 c 0.0206,0.01 0.26753,0.11158 0.94032,0.5261 0.69933,0.4309 1.82921,1.18135 3.56607,2.45911 1.77384,1.30496 3.76767,2.16055 5.28958,2.69002 -0.37849,-0.31001 -0.68678,-0.5593 -1.08553,-0.88792 -0.98399,-0.81105 -1.98117,-1.64224 -2.7662,-2.31154 -0.39255,-0.33462 -0.73247,-0.62737 -0.99269,-0.86175 -0.26017,-0.23436 -0.40497,-0.34979 -0.56181,-0.55943 -0.1776,-0.23738 -0.9086,-1.08459 -1.55688,-1.81874 -0.63116,-0.71472 -1.1769,-1.32108 -1.20694,-1.35454 -0.0439,-0.034 -0.69269,-0.53975 -1.50927,-1.21883 -0.84353,-0.70149 -1.80447,-1.53009 -2.36866,-2.17583 -0.26886,-0.30771 -0.47112,-0.5769 -0.62132,-0.81415 -0.15017,-0.23723 -0.24866,-0.44257 -0.31422,-0.62133 -0.0657,-0.17872 -0.098,-0.33018 -0.10713,-0.45706 -0.01,-0.1269 0.0214,-0.29518 0.0214,-0.29518 l 0.11427,-0.59515 0.0143,-0.0428 c 0,0 0.10796,-0.31726 0.26899,-0.69512 0.009,-0.0196 0.018,-0.0419 0.0261,-0.0619 -0.0583,-0.0357 -0.11121,-0.0682 -0.19521,-0.11427 -0.24809,-0.13608 -0.58232,-0.30304 -0.91175,-0.45944 -0.54355,-0.25806 -0.90154,-0.41364 -1.07124,-0.48801 z"></path></g></svg>