<svg height='100px' width='100px'  fill="#000000" xmlns="http://www.w3.org/2000/svg" xmlns:xlink="http://www.w3.org/1999/xlink" version="1.1" x="0px" y="0px" viewBox="0 0 66 66" enable-background="new 0 0 66 66" xml:space="preserve"><g><g><g><path d="M45.278,24.251c0-6.766-5.509-12.27-12.28-12.27c-6.766,0-12.27,5.504-12.27,12.27s5.504,12.27,12.27,12.27     C39.769,36.521,45.278,31.017,45.278,24.251z M22.266,25h5.55c0.042,1.635,0.216,3.277,0.526,4.788h-4.564     C22.922,28.369,22.387,26.743,22.266,25z M23.882,18.543h4.5c-0.332,1.558-0.522,3.259-0.566,4.957h-5.55     C22.392,21.687,22.966,20,23.882,18.543z M33.001,13.504c0.941,0,1.939,1.344,2.663,3.539h-5.326     C31.062,14.848,32.06,13.504,33.001,13.504z M36.081,18.543c0.335,1.438,0.556,3.117,0.605,4.957h-7.369     c0.049-1.839,0.27-3.518,0.605-4.957H36.081z M43.74,23.5h-5.554c-0.044-1.698-0.234-3.399-0.566-4.957h4.502     C43.039,20,43.613,21.687,43.74,23.5z M42.227,29.788h-4.566c0.31-1.511,0.484-3.153,0.526-4.788h5.553     C43.619,26.743,43.083,28.369,42.227,29.788z M29.316,25h7.37c-0.046,1.767-0.251,3.388-0.564,4.788h-6.241     C29.567,28.387,29.362,26.767,29.316,25z M35.723,31.288c-0.727,2.298-1.755,3.709-2.722,3.709c-0.967,0-1.995-1.411-2.722-3.709     H35.723z M35.849,34.627c0.59-0.885,1.072-2.033,1.443-3.339h3.849C39.764,32.876,37.933,34.054,35.849,34.627z M40.984,17.043     h-3.741c-0.364-1.236-0.83-2.32-1.394-3.167C37.856,14.427,39.626,15.542,40.984,17.043z M30.155,13.875     c-0.564,0.847-1.031,1.932-1.395,3.168h-3.741C26.378,15.541,28.148,14.426,30.155,13.875z M24.863,31.288h3.848     c0.371,1.307,0.853,2.455,1.444,3.341C28.07,34.056,26.239,32.877,24.863,31.288z"></path></g><g><path d="M46.614,34.627c2.626-3.433,3.841-7.733,3.42-12.109c-0.827-8.319-7.751-14.924-16.107-15.365     c-9.845-0.514-18.04,7.354-18.039,17.099c0,3.867,1.259,7.516,3.64,10.553c7.123,9.083,6.002,18.16,6.121,18.922l0,0     c0,0.154,0,7.264,0,7.016c0,0.414,0.336,0.75,0.75,0.75h1.392v2.758c0,0.414,0.336,0.75,0.75,0.75h8.924     c0.414,0,0.75-0.336,0.75-0.75v-2.758h1.392c0.414,0,0.75-0.336,0.75-0.75v-3.508c0-0.18-0.009-5.218-0.009-4.903     C40.348,46.126,42.515,40.004,46.614,34.627z M20.708,33.879c-2.172-2.77-3.321-6.1-3.321-9.627     c0.001-8.891,7.505-16.065,16.46-15.601c7.623,0.401,13.939,6.427,14.693,14.013c0.384,3.996-0.724,7.921-3.12,11.053     c-4.3,5.641-6.573,12.078-6.573,18.615v0.64H33.75c0-3.563,0-8.14,0-11.705c0-0.414-0.336-0.75-0.75-0.75     c-0.414,0-0.75,0.336-0.75,0.75c0,3.567,0,8.147,0,11.705h-5.102C27.093,52.638,27.837,42.972,20.708,33.879z M27.149,54.477     h11.708v2.008H27.149V54.477z M36.715,63.5h-7.424v-2.008h7.424V63.5z M38.857,59.992c-2.927,0-8.778,0-11.708,0v-2.008h11.708     V59.992z"></path></g><g><path d="M33,5.52c0.414,0,0.75-0.336,0.75-0.75V1.75C33.75,1.336,33.414,1,33,1c-0.414,0-0.75,0.336-0.75,0.75v3.02     C32.25,5.184,32.586,5.52,33,5.52z"></path></g><g><path d="M23.02,7.645c0.207,0.359,0.667,0.481,1.024,0.274c0.359-0.207,0.481-0.666,0.274-1.024l-1.51-2.615     c-0.208-0.359-0.667-0.481-1.024-0.274c-0.359,0.207-0.481,0.665-0.274,1.024L23.02,7.645z"></path></g><g><path d="M13.849,13.24l2.615,1.51c0.358,0.207,0.817,0.085,1.024-0.274c0.207-0.359,0.084-0.817-0.274-1.024l-2.615-1.51     c-0.359-0.207-0.817-0.084-1.024,0.275C13.367,12.575,13.49,13.033,13.849,13.24z"></path></g><g><path d="M52.151,33.623l-2.615-1.51c-0.358-0.207-0.817-0.084-1.024,0.274c-0.207,0.359-0.084,0.817,0.274,1.025l2.615,1.51     c0.358,0.207,0.818,0.085,1.024-0.274C52.633,34.288,52.51,33.83,52.151,33.623z"></path></g><g><path d="M15.088,23.432c0-0.414-0.336-0.75-0.75-0.75h-3.019c-0.414,0-0.75,0.336-0.75,0.75c0,0.414,0.336,0.75,0.75,0.75h3.019     C14.752,24.182,15.088,23.846,15.088,23.432z"></path></g><g><path d="M54.681,22.682h-3.019c-0.414,0-0.75,0.336-0.75,0.75c0,0.414,0.336,0.75,0.75,0.75h3.019c0.414,0,0.75-0.336,0.75-0.75     C55.431,23.018,55.095,22.682,54.681,22.682z"></path></g><g><path d="M16.463,32.113l-2.615,1.51c-0.359,0.207-0.482,0.666-0.274,1.024c0.207,0.359,0.667,0.481,1.024,0.274l2.615-1.51     c0.359-0.207,0.482-0.666,0.274-1.025C17.281,32.028,16.822,31.906,16.463,32.113z"></path></g><g><path d="M49.537,14.75l2.615-1.51c0.359-0.207,0.481-0.666,0.274-1.024c-0.208-0.359-0.667-0.482-1.024-0.275l-2.615,1.51     c-0.359,0.207-0.481,0.666-0.274,1.024C48.719,14.835,49.179,14.957,49.537,14.75z"></path></g><g><path d="M41.956,7.919c0.358,0.207,0.817,0.085,1.024-0.274l1.51-2.615c0.207-0.359,0.084-0.817-0.274-1.024     c-0.358-0.207-0.818-0.085-1.025,0.274l-1.51,2.615C41.475,7.253,41.597,7.712,41.956,7.919z"></path></g></g></g></svg>