<svg height='100px' width='100px'  fill="#000000" xmlns="http://www.w3.org/2000/svg" viewBox="0 0 32 32" x="0px" y="0px"><title>unemployment, idleness, jobless, population, problem</title><g data-name="12"><path d="M11,10H27v8a1,1,0,0,0,2,0V9a1,1,0,0,0-1-1H21V5a1,1,0,0,0-1-1H11a1,1,0,0,0-1,1V8H2A1,1,0,0,0,1,9V26a1,1,0,0,0,1,1H19a1,1,0,0,0,0-2H3V10Zm1-4h7V8H12Z"></path><path d="M26.66,24.25l2.55-2.54a1,1,0,0,0-1.42-1.42l-2.54,2.55-2.54-2.55a1,1,0,0,0-1.42,1.42l2.55,2.54-2.55,2.54a1,1,0,0,0,0,1.42,1,1,0,0,0,1.42,0l2.54-2.55,2.54,2.55a1,1,0,0,0,1.42,0,1,1,0,0,0,0-1.42Z"></path></g></svg>