<svg height='100px' width='100px'  fill="#000000" xmlns:x="http://ns.adobe.com/Extensibility/1.0/" xmlns:i="http://ns.adobe.com/AdobeIllustrator/10.0/" xmlns:graph="http://ns.adobe.com/Graphs/1.0/" xmlns="http://www.w3.org/2000/svg" xmlns:xlink="http://www.w3.org/1999/xlink" version="1.1" x="0px" y="0px" viewBox="0 0 100 100" enable-background="new 0 0 100 100" xml:space="preserve"><g><g i:extraneous="self"><path d="M51.111,14.522c-19.906,0-36.043,16.137-36.043,36.045c0,19.903,16.137,36.041,36.043,36.041    c19.908,0,36.043-16.138,36.043-36.041C87.154,30.659,71.02,14.522,51.111,14.522z M51.111,80.897    c-16.751,0-30.334-13.578-30.334-30.33c0-16.756,13.583-30.335,30.334-30.335c16.752,0,30.334,13.58,30.334,30.335    C81.445,67.319,67.863,80.897,51.111,80.897z"></path><path d="M4.87,42.735h5.212c-0.01-0.205-0.019-0.399-0.027-0.58H4.897C4.888,42.336,4.878,42.53,4.87,42.735z"></path><path d="M3.062,83.658c0,2.171,1.978,3.933,4.419,3.933c2.442,0,4.423-1.762,4.423-3.933c0-1.654-1.369-30.983-1.801-40.234H4.849    C4.421,52.675,3.062,82.008,3.062,83.658z"></path><path d="M13.714,25.131v-8.734c0-2.496,0-2.496-1.247-2.496c-1.299,0-1.299,0-1.249,2.496v11.232c-0.05,1.396-2.444,1.396-2.496,0    V16.397c0.052-2.496,0.052-2.496-1.247-2.496c-1.249,0-1.249,0-1.249,2.496v11.232c0,1.396-2.544,1.396-2.496,0V16.397    c-0.048-2.496-0.048-2.496-1.247-2.496c-1.196,0-1.196,0-1.247,2.496v8.734c0.051,12.579,3.791,11.38,3.74,14.974    c0,0-0.021,0.488-0.062,1.363h5.119c-0.042-0.875-0.064-1.363-0.064-1.363C9.972,36.512,13.714,37.71,13.714,25.131z"></path><path d="M91.73,42.734h5.215c-0.014-0.203-0.021-0.399-0.029-0.577h-5.158C91.748,42.335,91.74,42.531,91.73,42.734z"></path><path d="M89.922,83.661c0,2.169,1.979,3.93,4.42,3.93c2.443,0,4.42-1.761,4.42-3.93c0-1.655-1.367-30.986-1.797-40.237h-5.256    C91.281,52.675,89.922,82.008,89.922,83.661z"></path><path d="M91.852,41.47h4.994c-0.15-1.078-0.238-2.236-0.029-3.333c0.035-0.159,0.143-19.155,0.143-20.094    c0-0.947-0.035-1.901-0.057-2.849c-0.012-0.522-0.125-2.86-0.916-2.784c-0.518,0.052-0.875,0.459-1.16,0.79    c-1.145,1.327-2.256,2.692-3.088,4.185c-0.867,1.564-1.393,3.249-1.762,4.948c-0.217,1.019-0.377,2.048-0.51,3.077    c-0.26,2.078-0.533,4.203-0.334,6.297c0.109,1.148,0.305,2.304,0.691,3.396C90.561,37.193,93.041,39.09,91.852,41.47z"></path><circle cx="51.111" cy="50.565" r="27.784"></circle></g></g></svg>