<svg height='100px' width='100px'  fill="#000000" xmlns="http://www.w3.org/2000/svg" data-name="Layer 2" viewBox="0 0 100 100" x="0px" y="0px"><title>blockchain_2_exp</title><path d="M91.55371,71.63085,51.82758,31.90423a2.9196,2.9196,0,0,0,.03558-2.5047c10.67541-8.85986,24.2959-7.82507,24.43274-7.81311a1.00064,1.00064,0,0,0,1.084-.939l.52051-9.00538A.99986.99986,0,0,0,76.9375,10.585c-.68182-.02265-16.77808-.418-30.7547,13.10058a2.99383,2.99383,0,0,0-3.41913.56934l-.707-.707A3,3,0,1,0,37.81348,27.79l.70739.70716-.00036.00036A2.99775,2.99775,0,0,0,38.436,32.6361C28.41992,43.14569,25.91956,56.795,27.4043,63.2998a.99944.99944,0,0,0,.97461.77734l.0332-.00048a1.00008,1.00008,0,0,0,.9541-.84229A53.89642,53.89642,0,0,1,42.54993,36.76873l.21374.21369a2.96259,2.96259,0,0,0,3.405.57684L85.89746,77.28759a3.99975,3.99975,0,1,0,5.65625-5.65674ZM75.44043,19.5415c-3.50043-.09766-15.13977.27472-24.83038,8.31714l-2.88556-2.8852A44.63556,44.63556,0,0,1,75.8418,12.60107ZM39.22754,26.376a1.00024,1.00024,0,0,1,1.415-1.41406l.707.707-1.41443,1.41418ZM29.249,55.58691a39.85386,39.85386,0,0,1,10.58454-21.5343l1.31042,1.3103A56.00131,56.00131,0,0,0,29.249,55.58691ZM44.17773,35.56835l-3.65246-3.652-.00086-.00129-.00128-.00085-.58856-.5885a1.0014,1.0014,0,0,1,0-1.41406l.70532-.70527.00269-.00177L43.4707,26.376l.00019-.00024.70684-.70679a1.00083,1.00083,0,0,1,1.41407,0L49.835,29.9121a.99905.99905,0,0,1,0,1.41358L45.5918,35.56835A1.00141,1.00141,0,0,1,44.17773,35.56835ZM90.13965,75.87353a2.04707,2.04707,0,0,1-2.82813,0L47.713,36.27545,50.54218,33.447l39.59747,39.598a1.99985,1.99985,0,0,1,0,2.82861ZM19.10059,69.87988,8.98145,79.99853a.99989.99989,0,0,1-1.41407-1.41406L18.39355,67.75878a.99967.99967,0,0,1,1.41407,0l5.45312,5.45411a.99989.99989,0,0,1-1.41406,1.41406Zm33.25195,1.74707-8.7666-8.76612L15.80078,89.147a1.00028,1.00028,0,0,1-1.375-1.45313L42.918,60.73925a.99992.99992,0,0,1,1.39453.01953l9.4541,9.45411a.99989.99989,0,0,1-1.41406,1.41406Zm21.92871,3.58594a.99989.99989,0,0,1-1.41406,1.41406l-8.74707-8.74707L48.34863,83.65136a.99989.99989,0,1,1-1.41406-1.41406L63.41309,65.75878a.99964.99964,0,0,1,1.41406,0Z"></path></svg>