<svg height='100px' width='100px'  fill="#000000" xmlns="http://www.w3.org/2000/svg" xmlns:xlink="http://www.w3.org/1999/xlink" version="1.1" x="0px" y="0px" viewBox="0 0 100 100" style="enable-background:new 0 0 100 100;" xml:space="preserve"><path d="M13.6464844,82.7431641C13.2255859,84.6230469,13.0078125,86.7265625,13,88.9960938  c-0.0009766,0.2666016,0.1040039,0.5214844,0.2915039,0.7099609C13.4794922,89.8945312,13.734375,90,14,90h36.2446289h36.2441406  c0.265625,0,0.5205078-0.1054688,0.7084961-0.2939453c0.1875-0.1884766,0.2924805-0.4433594,0.2915039-0.7099609  c-0.0078125-2.2695312-0.2255859-4.3730469-0.6459961-6.2529297c-0.8164062-3.6474609-3.2363281-9.9951172-10.2202148-11.5029297  l-2.8404541-0.782959c4.87146-1.7507935,6.7567749-3.8104858,6.8492432-3.9143066  c0.206543-0.2333984,0.2929688-0.5498047,0.2333984-0.8554688s-0.2583008-0.5664062-0.5380859-0.7050781  c-7.4892578-3.7070312-9.8032227-21.078125-9.8256836-21.2529297c-0.0045166-0.0354614-0.0247803-0.0631104-0.0327759-0.0971069  c0.017334-0.3441772,0.0410767-0.6870728,0.0410767-1.034729v-3.0300903  c1.5933228-0.9919434,2.6152344-2.7623901,2.6152344-4.7072144V33.90625l2.7597656-9.6396484  c0.1445312-0.5058594-0.1308594-1.0380859-0.6245117-1.2167969c-0.0556641-0.0205078-5.6489258-2.1269531-16.1547852-12.7529297  C58.9174805,10.1064453,58.6611328,10,58.394043,10h-16.543457c-0.2670898,0-0.5234375,0.1064453-0.7109375,0.296875  C30.6337891,20.9228516,25.0405273,23.0292969,24.9892578,23.0478516c-0.4990234,0.1757812-0.7744141,0.7099609-0.6289062,1.21875  l2.7597656,9.6396484v0.9541016c0,2.0724487,1.1549683,3.953064,2.9319458,4.8967896l-0.0725708,2.8405151  c0,0.3477173,0.0236816,0.6906128,0.0410767,1.0348511c-0.0079956,0.0339355-0.0282593,0.0615845-0.0327759,0.0969849  c-0.0224609,0.1748047-2.3359375,17.5458984-9.8256836,21.2529297c-0.2797852,0.1386719-0.4785156,0.3994141-0.5380859,0.7050781  s0.0268555,0.6220703,0.2333984,0.8554688c0.0924683,0.1038208,1.9785156,2.1640625,6.8509521,3.914856l-2.7874756,0.7687378  C16.8823242,72.7480469,14.4624023,79.0957031,13.6464844,82.7431641z M78.1733398,66.0175781  c-1.2325439,0.8964233-3.7402954,2.3579102-7.9907227,3.4475098l-2.8770752-0.7930298l-6.6546631-2.053894v-6.6107788  c4.1668701-2.4927368,7.2820435-6.385376,8.8075562-10.953064C70.6891479,54.4252319,73.286377,62.5742188,78.1733398,66.0175781z   M50.2446289,75.991272l-8.6176758-8.9724731v-6.0717773c0.7540283,0.3556519,1.5275879,0.6818848,2.3359375,0.9484863  c2.2773438,0.6054688,4.4296875,0.8085938,6.2915039,0.8085938c3.6362305,0,6.1621094-0.7734375,6.328125-0.8261719  c0.7127686-0.2351685,1.3973999-0.5195312,2.0683594-0.8254395v6.1864624L50.2446289,75.991272z M32.0330811,40.510437  c5.824585,1.9645996,11.9020386,2.9378662,18.0889893,2.8733521c0.1987305,0.0019531,0.3969727,0.0029297,0.5952148,0.0029297  c6.088562,0,12.0637207-1.0083618,17.7919922-2.9768677v2.1878052c0,6.6899414-3.6088867,12.701416-9.2446289,15.901123  c-0.0048828,0.0020752-0.008667,0.0056152-0.0135498,0.0077515c-1.0313721,0.5844116-2.1224976,1.0858765-3.2803955,1.4680786  c-0.0532227,0.015625-5.3544922,1.6220703-11.4370117,0.0048828c-7.5092773-2.4775391-12.5541992-9.4628906-12.5546875-17.3564453  L32.0330811,40.510437z M40.3330078,68.5585938l8.5751953,8.9277344l-4.0185547,4.8974609l-9.7373047-12.2265625  L40.3330078,68.5585938z M60.15625,68.5585938l5.1806641,1.5986328l-9.737793,12.2265625l-4.0180664-4.8974609L60.15625,68.5585938z   M42.2670898,12h15.7104492c8.4589844,8.5048828,13.7666016,11.5898438,15.7441406,12.5537109l-2.2489624,7.8551025  c-2.6575928-1.0339966-10.102356-3.4525146-21.3198853-3.3023682c-11.2272339-0.1565552-18.7132568,2.2696533-21.3804321,3.3041382  l-2.2494507-7.8568726C28.5004883,23.5898438,33.8081055,20.5048828,42.2670898,12z M29.1201172,34.4267578  c2.0620117-0.828125,9.5927734-3.4814453,21.0327148-3.3203125c11.4165039-0.1757812,18.9165039,2.4912109,20.9716797,3.3193359  v0.4345703c0,1.4882812-0.9208984,2.8251953-2.2915039,3.3261719c-5.9946289,2.1914062-12.2719727,3.2587891-18.7001953,3.1972656  c-0.003418,0-0.0073242,0-0.0107422,0s-0.0073242,0-0.0107422,0c-6.402832,0.0673828-12.7045898-1.0058594-18.699707-3.1972656  c-1.3706055-0.5009766-2.2915039-1.8378906-2.2915039-3.3261719V34.4267578z M22.3154297,66.0185547  c4.8873901-3.4443359,7.4847412-11.5947266,8.715271-16.9657593c1.4983521,4.4820557,4.5267944,8.3220825,8.5962524,10.8265381  v6.8040771l-6.4432373,1.9886475l-2.8765259,0.7932739C26.0546875,68.3747559,23.5462036,66.913147,22.3154297,66.0185547z   M33.0859985,70.7731323l11.0097046,13.8245239c0.1879883,0.2363281,0.4731445,0.375,0.7749023,0.3769531  c0.0024414,0,0.0048828,0,0.0073242,0c0.2993164,0,0.5830078-0.1337891,0.7729492-0.3652344l4.593689-5.5980835l4.5933228,5.5980835  c0.1899414,0.2314453,0.4736328,0.3652344,0.7729492,0.3652344c0.0024414,0,0.0048828,0,0.0073242,0  c0.3017578-0.0019531,0.5869141-0.140625,0.7749023-0.3769531l11.0102539-13.824585l8.7421875,2.4085693  c5.9506836,1.2861328,8.0336914,6.8164062,8.7456055,9.9990234C85.2182617,84.6416016,85.4125977,86.2587891,85.4707031,88  H50.2446289H15.0180664c0.0581055-1.7412109,0.2524414-3.3583984,0.5800781-4.8193359  c0.7114258-3.1826172,2.7944336-8.7128906,8.7998047-10.0126953L33.0859985,70.7731323z"></path><path d="M23.1210938,77.8808594c0.0795898,0,0.1601562-0.0097656,0.2407227-0.0292969l8.5263672-2.1064453  c0.5361328-0.1328125,0.8637695-0.6748047,0.730957-1.2109375c-0.1323242-0.5361328-0.6777344-0.8613281-1.2104492-0.7304688  l-8.5263672,2.1064453c-0.5361328,0.1328125-0.8637695,0.6748047-0.730957,1.2109375  C22.2636719,77.5761719,22.6723633,77.8808594,23.1210938,77.8808594z"></path><path d="M68.1118164,75.7451172l8.5263672,2.1064453c0.0805664,0.0195312,0.1611328,0.0292969,0.2407227,0.0292969  c0.4487305,0,0.8574219-0.3046875,0.9697266-0.7597656c0.1328125-0.5361328-0.1948242-1.078125-0.730957-1.2109375  l-8.5263672-2.1064453c-0.5351562-0.1308594-1.0786133,0.1943359-1.2104492,0.7304688  C67.2480469,75.0703125,67.5756836,75.6123047,68.1118164,75.7451172z"></path><path d="M45.5385742,19.2011719c-0.9970703,2.3603516-0.0317383,5.0712891,2.2456055,6.3066406l1.7392578,0.9423828  C49.6723633,26.53125,49.8359375,26.5712891,50,26.5712891s0.3276367-0.0400391,0.4765625-0.1210938l1.7392578-0.9423828  c2.2773438-1.2353516,3.2426758-3.9462891,2.2314453-6.3408203c-0.1699219-0.3984375,0.171875-1.1367188,0.3505859-1.4082031  c0.2890625-0.4277344,0.2045898-1.0058594-0.1943359-1.3330078l-0.887207-0.7275391  c-0.2817383-0.2294922-0.6650391-0.2900391-1.0024414-0.15625c-1.1977539,0.4765625-1.8198242-0.1474609-1.9375-0.2832031  c-0.3818359-0.4726562-1.1875-0.4677734-1.5629883,0.0126953c-0.0068359,0.0078125-0.6352539,0.7822266-1.9272461,0.2705078  c-0.3374023-0.1337891-0.7211914-0.0732422-1.0024414,0.15625l-0.887207,0.7275391  c-0.3989258,0.3271484-0.4833984,0.9052734-0.1943359,1.3330078C45.3579102,17.9892578,45.7299805,18.7509766,45.5385742,19.2011719  z M47.3935547,19.9501953c0.3466797-0.8164062,0.1958008-1.6679688-0.0341797-2.3056641  c1.1694336,0.234375,2.0600586-0.0966797,2.640625-0.4619141c0.5805664,0.3652344,1.4716797,0.6982422,2.6430664,0.4609375  c-0.2294922,0.6416016-0.378418,1.5029297-0.0244141,2.3359375c0.5947266,1.4082031,0.0117188,3.0283203-1.355957,3.7705078  L50,24.4335938L48.7373047,23.75C47.3696289,23.0078125,46.7866211,21.3876953,47.3935547,19.9501953z"></path></svg>