<svg height='100px' width='100px'  fill="#000000" xmlns="http://www.w3.org/2000/svg" xmlns:xlink="http://www.w3.org/1999/xlink" version="1.1" x="0px" y="0px" viewBox="0 0 100 100" enable-background="new 0 0 100 100" xml:space="preserve"><g><polygon points="45.605,22.635 46.544,18.593 99.302,29.484 98.364,33.528  "></polygon><polygon points="0.715,26.061 30.661,18.174 31.601,21.833 1.653,29.72  "></polygon><polygon points="54.243,31.885 42.436,24.387 41.159,26.242 52.965,33.743  "></polygon><polygon points="26.405,27.464 14.277,31.505 21.207,33.238 19.475,39.014 25.827,39.014  "></polygon><polygon points="17.524,7.773 26.912,4.68 28.877,14.591  "></polygon><polygon points="41.055,15.337 45.703,3.935 51.016,12.834  "></polygon><polygon points="61.269,13.24 65.113,17.068 67.117,13.299 65.129,9.16  "></polygon><polygon points="28.877,51.218 33.244,55.567 35.521,51.288 33.259,46.587  "></polygon><polygon points="35.034,8.68 32.76,13.227 37.875,15.5  "></polygon></g><g><path d="M71.133,32.892c5.252,0,9.521,4.263,9.521,9.518c0,5.257-4.266,9.507-9.521,9.507c-5.244,0-9.503-4.25-9.503-9.507   C61.63,37.155,65.889,32.892,71.133,32.892z"></path><path d="M80.707,54.116H63.67L40.077,29.674c-0.067-0.069-0.146-0.119-0.217-0.183c-0.103-0.093-0.204-0.185-0.314-0.266   c-0.107-0.078-0.218-0.143-0.331-0.209c-0.115-0.068-0.228-0.136-0.349-0.192c-0.12-0.055-0.243-0.098-0.367-0.142   c-0.12-0.041-0.24-0.084-0.364-0.114c-0.129-0.033-0.259-0.051-0.39-0.07c-0.125-0.018-0.247-0.036-0.372-0.042   c-0.133-0.007-0.265,0-0.398,0.006c-0.125,0.006-0.249,0.011-0.372,0.029c-0.133,0.019-0.264,0.05-0.394,0.083   c-0.122,0.03-0.242,0.058-0.36,0.1c-0.13,0.046-0.255,0.104-0.381,0.164c-0.113,0.053-0.226,0.104-0.335,0.169   c-0.122,0.072-0.236,0.158-0.353,0.243c-0.073,0.055-0.152,0.095-0.223,0.154c-0.031,0.028-0.054,0.061-0.084,0.088   c-0.032,0.029-0.07,0.049-0.101,0.08c-0.069,0.067-0.12,0.146-0.183,0.217c-0.093,0.103-0.185,0.204-0.266,0.314   c-0.078,0.106-0.142,0.217-0.208,0.33c-0.068,0.115-0.136,0.229-0.193,0.35c-0.055,0.119-0.097,0.24-0.139,0.363   c-0.043,0.123-0.086,0.244-0.117,0.37c-0.031,0.125-0.049,0.251-0.068,0.379c-0.018,0.128-0.037,0.255-0.043,0.384   c-0.006,0.128,0,0.255,0.006,0.383c0.006,0.13,0.012,0.259,0.03,0.389c0.019,0.128,0.049,0.251,0.08,0.377   c0.031,0.127,0.061,0.251,0.104,0.376c0.044,0.126,0.102,0.248,0.158,0.369c0.055,0.116,0.107,0.232,0.173,0.344   c0.071,0.121,0.157,0.233,0.241,0.348c0.055,0.074,0.096,0.154,0.156,0.226l22.883,26.857l-6.133,30.41h29.959l0.979-25.095h3.255   v22.202c0,5.69,7.994,5.69,7.994,0v-22.98C93.041,59.616,87.454,54.116,80.707,54.116z"></path></g></svg>