<svg height='100px' width='100px'  fill="#000000" xmlns:x="http://ns.adobe.com/Extensibility/1.0/" xmlns:i="http://ns.adobe.com/AdobeIllustrator/10.0/" xmlns:graph="http://ns.adobe.com/Graphs/1.0/" xmlns="http://www.w3.org/2000/svg" xmlns:xlink="http://www.w3.org/1999/xlink" version="1.1" x="0px" y="0px" viewBox="0 0 100 100" style="enable-background:new 0 0 100 100;" xml:space="preserve"><g><g i:extraneous="self"><g><path d="M97.5,88.8c0-2.1-9.5-3.7-21.3-3.8c-1.7,3.6-5.4,6-9.5,6c-0.6,0-1.2,0-1.8-0.1c-3.5-0.6-6.3-2.9-7.7-5.9     C55.8,85,54.2,85,52.6,85c-11.8,0-21.4,1.7-21.4,3.9c0,1.5,4.8,2.8,11.8,3.4c0.1,2.1,9.6,3.8,21.4,3.8c11.8,0,21.4-1.7,21.4-3.8     c0,0,0,0,0-0.1C92.7,91.5,97.5,90.3,97.5,88.8z"></path><path d="M65.8,86.4c0.3,0,0.7,0.1,1,0.1c2.8,0,5.3-2,5.8-4.9l2.9-17c0.3-1.7-0.2-3.5-1.3-4.8l-4.3-5.2l-10.5,5.8l4.1,4.9L61,79.6     C60.4,82.8,62.6,85.9,65.8,86.4z"></path><path d="M28.5,33.7c-0.1,2.3,1,4.6,2.8,6.1c4.4,3.5,8.7,7.2,12.9,11l5.5,5.1c1.1,1,2.6,1.6,4,1.6c1,0,2-0.2,2.9-0.7l16.7-9.2     l16.2,3.9c3.4,0.8,6.8-1.4,7.2-5c0.4-3.1-1.8-5.9-4.8-6.6l-18.1-4.4c-1.4-0.3-3-0.1-4.2,0.6l-9.4,5.2L48.9,28.1l5.3-3.7     c0.6-0.4,1.2-1,1.5-1.7l5.7-10.4c1.2-2.1,0.8-4.9-1.1-6.5c-2.5-1.9-5.9-1.1-7.4,1.5l-5.3,9.6L31.7,27.8     C29.8,29.2,28.6,31.4,28.5,33.7z"></path><ellipse transform="matrix(1.084434e-02 -0.9999 0.9999 1.084434e-02 13.172 41.9243)" cx="27.8" cy="14.3" rx="10.4" ry="10.4"></ellipse><path d="M38.1,76.6c0.8-1.3,0.8-2.9,0.1-4.2L24.3,46.9c-0.8-1.4-2.1-2.2-3.7-2.2c-1.6,0-3,0.8-3.7,2.2L3,72.5     c-0.7,1.3-0.7,2.9,0.1,4.2c0.8,1.3,2.1,2.1,3.6,2.1h27.8C36,78.7,37.4,77.9,38.1,76.6z M18.7,55.5c0.5-0.5,1.2-0.9,1.9-0.9     c1.4,0,2.6,1.1,2.6,2.6c0,0.1,0,0.2,0,0.4l-1,8.5c-0.5-0.2-1-0.3-1.5-0.3c-0.5,0-1,0.1-1.5,0.3l-1.1-8.5     C18,56.8,18.2,56.1,18.7,55.5z M20.6,73.3c-1.4,0-2.6-1.1-2.6-2.6c0-1.4,1.1-2.6,2.6-2.6c1.4,0,2.6,1.2,2.6,2.6     C23.2,72.2,22,73.3,20.6,73.3z"></path></g></g></g></svg>