<svg height='100px' width='100px'  fill="#000000" xmlns="http://www.w3.org/2000/svg" viewBox="0 0 64 64" x="0px" y="0px"><title>plant-growth-bills-money-dollar</title><g><rect x="4" y="54" width="4" height="2"></rect><rect x="4" y="50" width="4" height="2"></rect><rect x="4" y="58" width="4" height="2"></rect><rect x="4" y="44" width="4" height="4"></rect><path d="M10.517,35.9l.351.039-.039-.351a4.973,4.973,0,0,0-4.417-4.417l-.35-.039.039.35h0A4.969,4.969,0,0,0,10.517,35.9Z"></path><rect x="10" y="50" width="6" height="2"></rect><polygon points="11 44 10 44 10 48 16 48 16 44 15 44 11 44"></polygon><rect x="10" y="58" width="6" height="2"></rect><rect x="10" y="54" width="6" height="2"></rect><path d="M15,13H59a1,1,0,0,0,0-2H45.375L39.944,6.248c-.019-.017-.043-.021-.062-.036a2.983,2.983,0,0,0-5.756-.026L28.625,11H15a1,1,0,0,0,0,2ZM37,6a1,1,0,1,1-1,1A1,1,0,0,1,37,6ZM34.45,8.56a2.978,2.978,0,0,0,5.1,0L42.339,11H31.661Z"></path><path d="M15.064,36.527l1.489-.04a5,5,0,0,0,4.862-4.863h0l.041-1.489-1.605.1a5,5,0,0,0-4.69,4.689Z"></path><path d="M19.9,19.483h0l.039-.35-.35.039a4.957,4.957,0,0,0-4.312,3.885.972.972,0,0,1,.685.75A4.954,4.954,0,0,0,19.9,19.483Z"></path><path d="M14,38.556a1,1,0,0,1-1-1.06l.163-2.695A6.951,6.951,0,0,1,14,31.9V26.071A.989.989,0,0,1,13.01,25h-.178a.837.837,0,0,1-.832.485V32.8a7,7,0,0,1,.817,2.564l.177,1.594A1,1,0,0,1,12,38.071V42h2Z"></path><path d="M4.585,18.553a5,5,0,0,0,4.862,4.863l.749.02a.978.978,0,0,1,.713-.418l-.07-1.167a5,5,0,0,0-4.69-4.69l-1.605-.1.041,1.489Z"></path><path d="M58,47V15H16v3.492a6.991,6.991,0,0,1,3.367-1.308l1.594-.178a1,1,0,0,1,1.1,1.105L21.888,19.7A6.947,6.947,0,0,1,16,25.829V29.6a6.962,6.962,0,0,1,3.729-1.361l2.7-.163a.956.956,0,0,1,.756.28,1,1,0,0,1,.3.746l-.07,2.579a7,7,0,0,1-6.808,6.808L16,38.5V42h7a1,1,0,0,1,1,1v3H45a1,1,0,0,1,1,1ZM43,41H27a1,1,0,0,1-1-1V27a1,1,0,0,1,1-1h4a1,1,0,0,1,1,1V39h2V29a1,1,0,0,1,1-1h4a1,1,0,0,1,1,1V39h2V24a1,1,0,0,1,1-1h4a1,1,0,0,1,1,1V39h2V20a1,1,0,0,1,1-1h4a1,1,0,0,1,1,1V40a1,1,0,0,1-1,1H43Z"></path><rect x="28" y="28" width="2" height="11"></rect><rect x="36" y="30" width="2" height="9"></rect><rect x="52" y="21" width="2" height="18"></rect><path d="M59,49H46v2H59a1,1,0,0,0,0-2Z"></path><rect x="44" y="25" width="2" height="14"></rect><path d="M24,49V60H44V48H24Zm16,4h2v2H40Zm-6-3a4,4,0,1,1-4,4A4,4,0,0,1,34,50Zm-8,3h2v2H26Z"></path><rect x="18" y="54" width="4" height="2"></rect><rect x="18" y="50" width="4" height="2"></rect><rect x="18" y="58" width="4" height="2"></rect><polygon points="18 48 22 48 22 47 22 44 18 44 18 48"></polygon><circle cx="34" cy="54" r="2"></circle></g></svg>