<svg height='100px' width='100px'  fill="#000000" xmlns="http://www.w3.org/2000/svg" data-name="Layer 1" viewBox="0 0 100 100" x="0px" y="0px"><title>Health Icons</title><path d="M67,44A11,11,0,1,1,78,33,11,11,0,0,1,67,44Zm0-18a7,7,0,1,0,7,7A7,7,0,0,0,67,26Z"></path><path d="M67,58a2,2,0,0,1-2-2V42a2,2,0,0,1,4,0V56A2,2,0,0,1,67,58Z"></path><path d="M74,51H60a2,2,0,0,1,0-4H74a2,2,0,0,1,0,4Z"></path><path d="M50,86a2,2,0,0,1-1.41-.59l-31-31a23.89,23.89,0,0,1,0-33.79,22.53,22.53,0,0,1,17-6.6A24.94,24.94,0,0,1,50,20.1,24.94,24.94,0,0,1,65.41,14a22.55,22.55,0,0,1,17,6.6h0a23.89,23.89,0,0,1,0,33.79l-31,31A2,2,0,0,1,50,86ZM33.72,18a18.57,18.57,0,0,0-13.27,5.44,19.89,19.89,0,0,0,0,28.14L50,81.13,79.55,51.58a19.89,19.89,0,0,0,0-28.14h0a18.63,18.63,0,0,0-14-5.43,21,21,0,0,0-14.14,6.23,2,2,0,0,1-2.83,0A21,21,0,0,0,34.45,18Z"></path></svg>