<svg height='100px' width='100px'  fill="#000000" xmlns="http://www.w3.org/2000/svg" xmlns:xlink="http://www.w3.org/1999/xlink" version="1.1" x="0px" y="0px" viewBox="0 0 1024 1024" style="enable-background:new 0 0 1024 1024;" xml:space="preserve"><g><g><g><path d="M938,171.5c0,28.4,0,56.7,0,85.1c0,61.3,0,122.6,0,183.9c0,59.7,0,119.3,0,179c0,18.3,0,36.7,0,55     c0,12.5,1,25.4-4.8,37c-8.2,16.3-24.5,26.4-42.8,26.6c-1.7,0-3.4,0-5.1,0c-11.1,0-22.2,0-33.3,0c-45.4,0-90.9,0-136.3,0     c-62.9,0-125.9,0-188.8,0c-64.2,0-128.3,0-192.5,0c-49.1,0-98.2,0-147.3,0c-13.9,0-27.7,0-41.6,0c-10,0-19.8,0.5-29.3-3.2     c-18.3-7-30-25-30.2-44.3c0-2.2,0-4.4,0-6.6c0-14.8,0-29.5,0-44.3c0-56.4,0-112.8,0-169.2c0-63.3,0-126.6,0-189.8     c0-35.6,0-71.2,0-106.8c0-8.5,1.4-16.7,5.4-24.3c8.4-15.7,24.4-25.3,42.2-25.4c6.3-0.1,12.5,0,18.8,0c38.8,0,77.5,0,116.3,0     c60.2,0,120.4,0,180.6,0c65.4,0,130.7,0,196.1,0c54.2,0,108.5,0,162.7,0c26.8,0,53.7,0,80.5,0c6.6,0,13,0.8,19.3,3.2     C926,134.2,937.8,152.2,938,171.5c0.2,12.9,20.2,12.9,20,0c-0.4-37.8-31.2-67.4-68.7-67.5c-8.4,0-16.8,0-25.3,0     c-17.6,0-35.2,0-52.8,0c-24.8,0-49.6,0-74.5,0c-29.7,0-59.4,0-89.1,0c-32.8,0-65.5,0-98.3,0c-33.4,0-66.8,0-100.1,0     c-32.2,0-64.4,0-96.7,0c-28.6,0-57.3,0-85.9,0c-23.1,0-46.2,0-69.3,0c-15.6,0-31.1,0-46.7,0c-5.7,0-11.5-0.1-17.2,0     c-38.1,0.4-67.4,31.5-67.5,69.1c0,11.6,0,23.1,0,34.7c0,23.4,0,46.8,0,70.2c0,30.5,0,61,0,91.5c0,33.3,0,66.5,0,99.8     c0,31.7,0,63.4,0,95.1c0,25.3,0,50.7,0,76c0,14.7,0,29.5,0,44.2c0,2.9-0.1,5.7,0.1,8.6c1.1,23.8,15,46.3,36.4,57.2     c13.4,6.8,27.1,7.5,41.5,7.5c13.4,0,26.8,0,40.3,0c21.6,0,43.3,0,64.9,0c27.6,0,55.1,0,82.7,0c31.5,0,62.9,0,94.4,0     c33.4,0,66.9,0,100.3,0c33,0,65.9,0,98.9,0c30.7,0,61.4,0,92.1,0c26,0,52.1,0,78.1,0c19.5,0,39,0,58.5,0c10.7,0,21.4,0,32.1,0     c1.7,0,3.3,0,5,0c24.2-0.4,47.2-13.9,58.7-35.3c8-15,8.1-30.3,8.1-46.6c0-18.2,0-36.3,0-54.5c0-27.7,0-55.4,0-83.1     c0-32.5,0-65,0-97.5c0-33.1,0-66.2,0-99.3c0-28.9,0-57.8,0-86.7c0-20.5,0-40.9,0-61.4c0-7.4,0-14.8,0-22.1     C958,158.6,938,158.6,938,171.5z"></path></g></g><g><g><path d="M593,748c0,47.4,0,94.8,0,142.2c0,6.6,0,13.2,0,19.8c3.3-3.3,6.7-6.7,10-10c-20.5,0-41,0-61.5,0     c-32.7,0-65.3,0-98,0c-7.5,0-15,0-22.5,0c3.3,3.3,6.7,6.7,10,10c0-47.4,0-94.8,0-142.2c0-6.6,0-13.2,0-19.8     c-3.3,3.3-6.7,6.7-10,10c20.5,0,41,0,61.5,0c32.7,0,65.3,0,98,0c7.5,0,15,0,22.5,0c12.9,0,12.9-20,0-20c-20.5,0-41,0-61.5,0     c-32.7,0-65.3,0-98,0c-7.5,0-15,0-22.5,0c-5.4,0-10,4.6-10,10c0,47.4,0,94.8,0,142.2c0,6.6,0,13.2,0,19.8c0,5.4,4.6,10,10,10     c20.5,0,41,0,61.5,0c32.7,0,65.3,0,98,0c7.5,0,15,0,22.5,0c5.4,0,10-4.6,10-10c0-47.4,0-94.8,0-142.2c0-6.6,0-13.2,0-19.8     C613,735.1,593,735.1,593,748z"></path></g></g><g><g><path d="M286,920c15,0,30,0,45,0c36,0,72.1,0,108.1,0c43.4,0,86.8,0,130.3,0c37.7,0,75.3,0,113,0     c18.2,0,36.6,0.6,54.8,0c0.3,0,0.5,0,0.8,0c12.9,0,12.9-20,0-20c-15,0-30,0-45,0c-36,0-72.1,0-108.1,0c-43.4,0-86.8,0-130.3,0     c-37.7,0-75.3,0-113,0c-18.2,0-36.6-0.6-54.8,0c-0.3,0-0.5,0-0.8,0C273.1,900,273.1,920,286,920L286,920z"></path></g></g><g><g><path d="M502,231c0,22.7,0,45.4,0,68.1c0,36,0,72,0,108c0,8.3,0,16.6,0,24.9c3.3-3.3,6.7-6.7,10-10     c-47.3,0-94.5,0-141.8,0c-6.8,0-13.5,0-20.3,0c3.3,3.3,6.7,6.7,10,10c0-40,0-80,0-120.1c0-5.8,0-11.6,0-17.3     c-3.3,3.3-6.7,6.7-10,10c38-0.2,75.5-9,109.5-25.9c21.8-10.8,40.6-25.7,59.6-40.6c4.3-3.3,3.5-10.6,0-14.1     c-4.2-4.2-9.9-3.3-14.1,0c-17.3,13.5-34.4,26.7-54.1,36.7c-31.2,15.8-66,23.8-101,23.9c-5.4,0-10,4.6-10,10c0,40,0,80,0,120.1     c0,5.8,0,11.6,0,17.3c0,5.4,4.6,10,10,10c47.3,0,94.5,0,141.8,0c6.8,0,13.5,0,20.3,0c5.4,0,10-4.6,10-10c0-22.7,0-45.4,0-68.1     c0-36,0-72,0-108c0-8.3,0-16.6,0-24.9C522,218.2,502,218.1,502,231z"></path></g></g><g><g><path d="M502,432c0,22.5,0,45,0,67.5c0,35.9,0,71.7,0,107.6c0,8.3,0,16.5,0,24.8c1.7-2.9,3.3-5.8,5-8.6     c-0.7,0.4-1.3,0.7-2,1.1c3.4,0,6.7,0,10.1,0c-24-14-47.9-27.9-71.9-41.9c-11.7-6.8-23.6-13.2-33.9-22     c-20.1-17.1-35.3-39.5-43.1-64.7c-6.5-21-6.3-42.1-6.3-63.8c-3.3,3.3-6.7,6.7-10,10c47.3,0,94.5,0,141.8,0c6.8,0,13.5,0,20.3,0     c12.9,0,12.9-20,0-20c-47.3,0-94.5,0-141.8,0c-6.8,0-13.5,0-20.3,0c-5.4,0-10,4.6-10,10c0,20.4-0.3,40.6,4.6,60.6     c7,28.6,22.3,55.2,43.5,75.6c12.3,11.9,26.6,20.8,41.3,29.3c15.6,9.1,31.2,18.2,46.8,27.2c7.4,4.3,14.9,8.7,22.3,13     c6.4,3.7,11,7,18.6,2.7c3.1-1.7,5-5.1,5-8.6c0-22.5,0-45,0-67.5c0-35.9,0-71.7,0-107.6c0-8.3,0-16.5,0-24.8     C522,419.1,502,419.1,502,432z"></path></g></g><g><g><path d="M664.1,432c0,18.3,0.5,36.4-3.9,54.3c-6.3,25.6-19.8,49-38.9,67.3c-11.2,10.7-24.1,18.4-37.5,26     c-14.7,8.3-29.3,16.7-44,25c-11,6.2-21.9,12.5-32.9,18.7c5,2.9,10,5.8,15,8.6c0-22.5,0-45,0-67.5c0-35.9,0-71.7,0-107.6     c0-8.3,0-16.5,0-24.8c-3.3,3.3-6.7,6.7-10,10c47.3,0,94.5,0,141.8,0c6.8,0,13.5,0,20.3,0c12.9,0,12.9-20,0-20     c-47.3,0-94.5,0-141.8,0c-6.8,0-13.5,0-20.3,0c-5.4,0-10,4.6-10,10c0,22.5,0,45,0,67.5c0,35.9,0,71.7,0,107.6     c0,8.3,0,16.5,0,24.8c0,7.7,8.5,12.4,15,8.6c24.8-14.1,49.6-28.2,74.4-42.3c13.7-7.8,27.1-15.6,39.1-26     c21.6-18.9,37.7-44,46.4-71.4c7.1-22.6,7.2-45.4,7.2-68.8C684.1,419.1,664.1,419.1,664.1,432z"></path></g></g><g><g><path d="M664.1,294.6c0,40,0,80,0,120.1c0,5.8,0,11.6,0,17.3c3.3-3.3,6.7-6.7,10-10c-47.3,0-94.5,0-141.8,0     c-6.8,0-13.5,0-20.3,0c3.3,3.3,6.7,6.7,10,10c0-22.7,0-45.4,0-68.1c0-36,0-72,0-108c0-8.3,0-16.6,0-24.9     c-5.7,2.4-11.4,4.7-17.1,7.1c13.5,10.6,26.8,21.5,41.4,30.5c24.2,14.8,51.2,25.5,79.1,31.1c16,3.2,32.3,4.8,48.6,4.9     c12.9,0,12.9-20,0-20c-33.8-0.1-67.4-7.6-97.8-22.4c-20.9-10.2-39-24-57.2-38.3c-6.5-5.1-17.1-2.3-17.1,7.1c0,22.7,0,45.4,0,68.1     c0,36,0,72,0,108c0,8.3,0,16.6,0,24.9c0,5.4,4.6,10,10,10c47.3,0,94.5,0,141.8,0c6.8,0,13.5,0,20.3,0c5.4,0,10-4.6,10-10     c0-40,0-80,0-120.1c0-5.8,0-11.6,0-17.3C684.1,281.7,664.1,281.7,664.1,294.6z"></path></g></g></g></svg>