<svg height='100px' width='100px'  fill="#000000" xmlns="http://www.w3.org/2000/svg" xmlns:xlink="http://www.w3.org/1999/xlink" version="1.1" x="0px" y="0px" viewBox="0 0 100 100" enable-background="new 0 0 100 100" xml:space="preserve"><g><g><path fill="none" stroke="#000000" stroke-width="0.75" stroke-linecap="round" stroke-linejoin="round" stroke-miterlimit="10" d="    M71.5,73.75c0.344,1.218,3.944-0.288,5.16-0.466c1.606-0.236,4.217-0.211,3.196-2.639c-1.362,0.39-2.378,0.959-2.25-1.128    c-0.862-0.117-3.038,0.739-3.581,1.386c-0.332,0.396-0.535,1.121-0.928,1.598c-0.485,0.588-0.983,1.148-1.613,1.496    c0.207,0.441,0.139,0.048,0.266,0.003"></path><path fill="none" stroke="#000000" stroke-width="0.75" stroke-linecap="round" stroke-linejoin="round" stroke-miterlimit="10" d="    M87.131,74.756c0.316-0.007,1.633-0.051,1.874-0.15c1.713-0.707-0.074-2.219-0.845-2.833c1.933-0.383,5.002,3.461,2.496,4.584    c-1.851,0.83-4.604,0.018-5.375-1.702L87.131,74.756z"></path><path fill="none" stroke="#000000" stroke-width="0.75" stroke-linecap="round" stroke-linejoin="round" stroke-miterlimit="10" d="    M57.994,51.941L8.25,50.078l6.25-21.203l46,1.5c0.321-0.068,0.866-1.861,1.397-0.397c1.152,0.215,0.754-0.845,0.979-1.478    c0.451-1.27,0.817-0.572,2-0.994c0.849-0.303,1.194-1.122,1.869-1.606c0.669-0.48,1.624-0.749,2.381-0.916    c0.514,0.657,1.363,0.437,1.85,1.013c0.554,0.655,0.137,2.082,0.297,2.875c0.181,0.898,0.894,2.486,1.603,3.134    c0.948,0.867,1.865,0.616,1.892-0.862c1.699-0.392,1.459,1.164,0.858,2.203c-0.586,1.015-1.838,1.618-3.009,1.887    c-0.633-0.883-2.629,0.122-2.473,1.122c0.418,0.048,0.516,0.257,0.812,0.488c-1.014,0.812-4.258,2.773-3.94,3.884    c1.268,0.285-0.74,1.552-0.551,2.278c0.364,1.404,1.836,0.607,2.502,0.734c0.409-0.968,3.376,1.123,3.975,1.869    c0.626,0.781,0.689,1.787,1.337,2.546c0.539,0.632,1.04,1.161,1.462,1.87c-0.562,1.161-2.97,1.562-1.625,2.95    c0.727,0.75,2.048,1.103,2.851,1.93c1.102,1.138,0.316,2.148,0.812,3.47c0.384,1.024,2.078,1.786,3.1,2.125    c1.218,0.404,2.273,0.776,3.51,0.281c0.51-0.204,0.899-0.659,1.487-0.756c0.542-0.09,1.023,0.152,1.501,0.103    c2.748-0.283,3.08-3.086,1.968-4.972c-0.41-0.695-0.634-0.46-0.844-1.406c-0.147-0.661-0.059-1.108-0.403-1.719    c-0.3-0.532-0.78-1.254-1.471-1.155c-1.059,0.151-0.42,1.169-1.098,1.615c-0.472-0.579-1.643-1.793-0.948-2.649    c0.616-0.76,2.243-0.368,2.914-0.091c0.738,0.305,2.022,0.919,2.506,1.528c0.493,0.62,0.452,1.686,0.657,2.441    c0.597,2.196,1.215,3.784,1.219,6.031c0.001,0.987,0.359,2.031,0.221,3.003c-0.146,1.033-0.958,1.563-1.353,2.461    c0.174-1.07-0.154-1.727-1.12-1.964c-1.184-0.292-1.657,0.641-2.625,0.877c-0.462,0.113-0.915-0.178-1.381-0.127    c-0.383,0.042-0.731,0.316-1.016,0.349c-0.947,0.11-1.7-0.513-2.497-0.331c-1.186,0.271-2.101,1.832-3.132,2.35    c-1.09,0.547-1.907,0.361-2.946,1.103c-1.086,0.776-5.501,4.744-6.644,3.375c0.274-0.574,0.799-0.574,1.249-0.941    c0.614-0.501,1.057-1.168,1.586-1.75c0.505-0.555,2.61-2.018,2.789-2.677c0.136-0.5-0.359-0.816-0.362-1.131    c-0.005-0.514,0.616-1.176,0.584-1.569c-0.083-1.035-1.288-0.882-1.85-1.555c-0.717,0.77-0.917,1.822-1.726,2.403    c-0.561,0.402-1.78,1.751-2.634,1.394c-0.862,2.551-2.223,2.81-4.65,3.312c-0.684-1.463-0.769-3.378-1.144-4.937    c-0.209,0.066-0.473-0.029-0.703,0.087c-0.505-0.522-0.59-1.158-0.995-1.737c-0.492-0.704-1.334-0.838-1.905-1.369    c-1.05-0.977,0.359-4.109-1.484-4.144C58.185,55.118,57.463,52.824,57.994,51.941c0.008,0.117,0.052,0.22,0.131,0.309"></path></g></g></svg>