<svg height='100px' width='100px'  fill="#000000" xmlns="http://www.w3.org/2000/svg" data-name="Layer 1" viewBox="0 0 512 512" x="0px" y="0px"><title> Utility Bill Payment water</title><path d="M107.016,266.981H67.06a6,6,0,0,0-6,6v39.957a6,6,0,0,0,6,6h39.956a6,6,0,0,0,6-6V272.981A6,6,0,0,0,107.016,266.981Zm-6,39.957H73.06V278.981h27.956Z"></path><path d="M173.942,266.981H133.986a6,6,0,0,0-6,6v39.957a6,6,0,0,0,6,6h39.956a6,6,0,0,0,6-6V272.981A6,6,0,0,0,173.942,266.981Zm-6,39.957H139.986V278.981h27.956Z"></path><path d="M246.862,266.981H206.906a6,6,0,0,0-6,6v39.957a6,6,0,0,0,6,6h39.956a6,6,0,0,0,6-6V272.981A6,6,0,0,0,246.862,266.981Zm-6,39.957H212.906V278.981h27.956Z"></path><path d="M107.016,336.9H67.06a6,6,0,0,0-6,6V382.86a6,6,0,0,0,6,6h39.956a6,6,0,0,0,6-6V342.9A6,6,0,0,0,107.016,336.9Zm-6,39.956H73.06V348.9h27.956Z"></path><path d="M173.942,336.9H133.986a6,6,0,0,0-6,6V382.86a6,6,0,0,0,6,6h39.956a6,6,0,0,0,6-6V342.9A6,6,0,0,0,173.942,336.9Zm-6,39.956H139.986V348.9h27.956Z"></path><path d="M246.862,336.9H206.906a6,6,0,0,0-6,6V382.86a6,6,0,0,0,6,6h39.956a6,6,0,0,0,6-6V342.9A6,6,0,0,0,246.862,336.9Zm-6,39.956H212.906V348.9h27.956Z"></path><path d="M107.016,406.827H67.06a6,6,0,0,0-6,6v39.956a6,6,0,0,0,6,6h39.956a6,6,0,0,0,6-6V412.827A6,6,0,0,0,107.016,406.827Zm-6,39.956H73.06V418.827h27.956Z"></path><path d="M173.942,406.827H133.986a6,6,0,0,0-6,6v39.956a6,6,0,0,0,6,6h39.956a6,6,0,0,0,6-6V412.827A6,6,0,0,0,173.942,406.827Zm-6,39.956H139.986V418.827h27.956Z"></path><path d="M246.862,406.827H206.906a6,6,0,0,0-6,6v39.956a6,6,0,0,0,6,6h39.956a6,6,0,0,0,6-6V412.827A6,6,0,0,0,246.862,406.827Zm-6,39.956H212.906V418.827h27.956Z"></path><path d="M123.964,191.385c-.036,0-.07,0-.107,0s-.07,0-.106,0a8.9,8.9,0,0,1-8.785-8.887,6,6,0,0,0-12,0,20.924,20.924,0,0,0,14.891,20v3.748a6,6,0,0,0,12,0V202.5a20.888,20.888,0,0,0-6-40.9,8.893,8.893,0,1,1,8.893-8.892,6,6,0,0,0,12,0,20.922,20.922,0,0,0-14.893-20v-3.07a6,6,0,1,0-12,0v3.07a20.888,20.888,0,0,0,6,40.9,8.89,8.89,0,0,1,.107,17.779Z"></path><path d="M190.58,82.729h12.441a6,6,0,0,0,0-12H190.58a6,6,0,0,0,0,12Z"></path><path d="M108.966,82.729h60.119a6,6,0,0,0,0-12H108.966a6,6,0,0,0,0,12Z"></path><path d="M180.591,202.066h22.43a6,6,0,0,0,0-12h-22.43a6,6,0,0,0,0,12Z"></path><path d="M163.953,190.066h-3.341a6,6,0,0,0,0,12h3.341a6,6,0,0,0,0-12Z"></path><path d="M108.966,112.7h60.119a6,6,0,0,0,0-12H108.966a6,6,0,1,0,0,12Z"></path><path d="M190.58,52.762h12.441a6,6,0,0,0,0-12H190.58a6,6,0,0,0,0,12Z"></path><path d="M108.966,52.762h60.119a6,6,0,0,0,0-12H108.966a6,6,0,0,0,0,12Z"></path><path d="M421.267,365.9a6,6,0,1,0,0,12h52.559a6,6,0,0,0,1-11.91V327.24a66.075,66.075,0,0,0-66-66H397.487V245.878a6,6,0,0,0-6-6h-16V211.421h8.5v4a6,6,0,0,0,6,6h30a16,16,0,0,0,0-32h-30a6,6,0,0,0-6,6v4h-45v-4a6,6,0,0,0-6-6h-30a16,16,0,0,0,0,32h30a6,6,0,0,0,6-6v-4h8.5v28.457h-16a6,6,0,0,0-6,6V261.24H282.829V158.107a26.007,26.007,0,0,0-25.978-25.977H232.884V110.579L287,111.44a6,6,0,0,0,6.1-6V47.367a36.146,36.146,0,0,0-36.105-36.1l-.092,0-.045,0H117.005A36.007,36.007,0,0,0,81.038,47.229v84.9H57.071a26.007,26.007,0,0,0-25.978,25.977V474.759a26.008,26.008,0,0,0,25.978,25.978h199.78a26.008,26.008,0,0,0,25.978-25.978V315.24H319.8a41,41,0,0,0,80.333.171,24.037,24.037,0,0,1,21.131,23.829Zm-25.28-164.479h24a4,4,0,0,1,0,8h-24Zm-69,8h-24a4,4,0,0,1,0-8h24Zm-94.1-35.324h7.978v47.934h-7.978Zm48.209-126.73V99.345l-48.209-.768V47.367a24.1,24.1,0,0,1,48.209,0ZM93.038,47.229a23.993,23.993,0,0,1,23.967-23.966H230.137a35.956,35.956,0,0,0-9.253,24.1V222.031H93.038ZM73.06,222.031V174.1h7.978v47.934ZM270.829,474.759a13.993,13.993,0,0,1-13.978,13.978H57.071a13.993,13.993,0,0,1-13.978-13.978V158.107A13.993,13.993,0,0,1,57.071,144.13H81.038V162.1H67.06a6,6,0,0,0-6,6v59.934a6,6,0,0,0,6,6h179.8a6,6,0,0,0,6-6V168.1a6,6,0,0,0-6-6H232.884V144.13h23.967a13.993,13.993,0,0,1,13.978,13.977Zm88.658-263.338h4v28.457h-4Zm-22,40.457h48v9.362h-48Zm59.78,51.362h-2.351a6,6,0,0,0-5.989,5.638,29,29,0,0,1-57.881,0,6,6,0,0,0-5.989-5.638H282.829v-30h126a54.061,54.061,0,0,1,54,54V365.9H433.267V339.24A36.041,36.041,0,0,0,397.267,303.24Z"></path><path d="M453.224,389.773a6,6,0,0,0-10.354,0l-23.176,39.563a32.863,32.863,0,0,0,51.588,39.846h0a32.868,32.868,0,0,0,5.117-39.844ZM462.8,460.7h0a20.86,20.86,0,0,1-32.749-25.3l18-30.725,18,30.726A20.868,20.868,0,0,1,462.8,460.7Z"></path></svg>