<svg height='100px' width='100px'  fill="#000000" xmlns:x="http://ns.adobe.com/Extensibility/1.0/" xmlns:i="http://ns.adobe.com/AdobeIllustrator/10.0/" xmlns:graph="http://ns.adobe.com/Graphs/1.0/" xmlns="http://www.w3.org/2000/svg" xmlns:xlink="http://www.w3.org/1999/xlink" version="1.1" x="0px" y="0px" viewBox="0 0 150 150" style="enable-background:new 0 0 150 150;" xml:space="preserve"><g><g i:extraneous="self"><g><path d="M139.4,84.3l-17.5-21c-0.2-0.2-0.4-0.4-0.7-0.6v-3.6c0-0.8-0.7-1.5-1.5-1.5h-9.6c-0.8,0-1.5,0.7-1.5,1.5v3.3H85l-19.1-33     c-0.4-0.8-1.3-1.3-2.2-1.3s-1.7,0.5-2.2,1.3L30.5,83.2c-0.1,0.1-0.2,0.2-0.2,0.3L10.3,118c-0.2,0.4-0.3,0.9-0.3,1.3     c0,0,0,0.1,0,0.1c0,1.4,1.1,2.5,2.5,2.5h63.2H128c1.4,0,2.5-1.1,2.5-2.5v-31h7c1,0,1.9-0.6,2.3-1.4C140.2,86.1,140,85,139.4,84.3     z M54.8,51.1h17.9l7.9,13.7L64.3,84.3c-0.6,0.7-0.8,1.8-0.3,2.7c0.4,0.9,1.3,1.4,2.3,1.4h7v28.2H53.7L35.3,84.8L54.8,51.1z      M28.3,96.8h8.1L48,116.7H16.8L28.3,96.8z M30.1,93.8l2.3-4.1l2.3,4.1H30.1z M56.5,48.1l7.2-12.5L71,48.1H56.5z M125.5,116.9     H78.2V88.4h47.3V116.9z M71.6,83.4l13.3-16h23.8V75c0,0.8,0.7,1.5,1.5,1.5h9.6c0.8,0,1.5-0.7,1.5-1.5v-4.7l10.9,13.1H71.6z      M118.3,60.6v12.9h-6.6V60.6H118.3z"></path><path d="M84,109.2h13.4c0.8,0,1.5-0.7,1.5-1.5V94.3c0-0.8-0.7-1.5-1.5-1.5H84c-0.8,0-1.5,0.7-1.5,1.5v13.4     C82.5,108.6,83.1,109.2,84,109.2z M95.9,106.2h-3.7V95.8h3.7V106.2z M85.5,95.8h3.7v10.4h-3.7V95.8z"></path><path d="M104.9,107.7c0,0.8,0.7,1.5,1.5,1.5h13.4c0.8,0,1.5-0.7,1.5-1.5V94.3c0-0.8-0.7-1.5-1.5-1.5h-13.4     c-0.8,0-1.5,0.7-1.5,1.5V107.7z M118.3,106.2h-3.7V95.8h3.7V106.2z M111.6,95.8v10.4h-3.7V95.8H111.6z"></path></g></g></g></svg>