<svg height='100px' width='100px'  fill="#000000" xmlns="http://www.w3.org/2000/svg" xmlns:xlink="http://www.w3.org/1999/xlink" viewBox="0 0 49 33" version="1.1" x="0px" y="0px"><title>svg/005-ASM--American Samoa</title><desc>Created with Sketch.</desc><g stroke="none" stroke-width="1" fill="none" fill-rule="evenodd"><g transform="translate(-431.000000, -30.000000)"><g transform="translate(430.500000, 29.500000)" fill="#000000" fill-rule="nonzero"><path d="M49.5,0.5 L49.5,33.5 L0.5,33.5 L0.5,0.5 L49.5,0.5 Z M1.5,1.5 L1.5,32.5 L48.5,32.5 L48.5,1.5 L1.5,1.5 Z"></path><polygon points="2.58113883 17 49.1581139 32.5256584 48.8418861 33.4743416 0.841886117 17.4743416 0.841886117 16.5256584 48.8418861 0.525658351 49.1581139 1.47434165"></polygon><polygon points="8.58113883 17 49.1581139 30.5256584 48.8418861 31.4743416 5.41886117 17 48.8418861 2.52565835 49.1581139 3.47434165"></polygon><g transform="translate(28.500000, 7.250000)"><path d="M6.67366869,6.43470655 C6.40366791,6.38750316 4.95072319,7.69331791 4.13255385,6.74936079 C3.31438452,5.80540367 5.60961079,5.00303123 5.76844794,4.62547943 C5.75256368,4.34228785 5.40315046,4.12204376 5.72079569,3.50845832 C6.08608199,2.92632999 14.8370283,0.0423728946 16.933595,4.84920891e-05 C18.9559109,0.770952722 16.1235646,4.08804997 15.472377,4.26359517 C14.8211893,4.43914038 12.947157,5.80540367 12.947157,5.80540367 C12.947157,5.80540367 14.058569,5.80540367 14.9779455,6.12909137 L17.3832444,5.91278419 C18.2921878,6.58312812 18.4912462,8.20353306 17.2935267,9.90122242 C16.5277536,9.90122242 15.2789581,9.12938812 14.7343275,8.76663571 C14.358858,9.40552438 13.3820977,12.1383829 10.6735708,13.2283007 C10.3682409,13.4798694 9.83424515,12.7591677 9.83424515,12.7591677 C9.84885743,12.5887722 10.3868133,10.4745033 10.0273122,9.65569561 C9.7398716,9.00101473 8.53086697,8.96395115 7.79438432,9.00606714 C7.12237521,9.38449762 5.11026968,9.67140778 4.45763686,10.5054915 C4.44683617,10.5063326 4.43560561,10.5071912 4.42397391,10.5080654 C3.79729519,10.9999298 2.69075386,10.9001342 2.69075386,10.9001342 C2.90174335,10.8179402 3.11124179,10.6734136 3.23812944,10.5770702 C3.07168527,10.5842778 2.9539289,10.5874208 2.93776331,10.5833797 C2.64361118,10.6837886 2.32292874,10.8662858 2.43818801,11.1698015 C1.01677932,10.7194679 2.64623405,9.84658718 2.64623405,9.84658718 C2.64902194,9.85541879 2.65244713,9.86399889 2.65647251,9.87233465 C2.88172566,9.57235817 2.79421883,9.10085653 2.98410436,8.92048044 C3.17653404,8.7376769 6.10313505,7.42701467 6.56025253,6.6271643 C6.64517534,6.6271643 6.64517534,6.50333263 6.67366869,6.43470655 Z M3.56053162,9.7714386 L4.0769043,9.75 C4.94166386,8.9055871 7.03412911,8.57480064 7.5420223,8.22862661 C9.70507508,8.1008067 10.2528617,8.6798137 10.4918594,8.9055871 C11.0853289,9.46621861 10.9890311,10.8193272 10.7535219,12.3156354 C11.5136021,11.9353677 12.1548015,11.3762481 12.7054847,10.6655905 C13.019504,10.2603482 13.2869973,9.82986947 13.5446711,9.34133969 C13.6377624,9.16484554 13.9711269,8.48634578 14.0446163,8.36129826 L14.4734232,7.63165208 L15.1778043,8.1008067 C15.8065991,8.51961686 16.4521484,8.86937092 16.9045649,9.02072427 C17.4354057,8.06972015 17.4473865,7.20882952 17.0949221,6.74194127 C16.3580805,6.79511624 15.6185563,6.86162123 14.8763495,6.94145625 C14.1302937,6.65583035 13.7252997,6.65583035 13.3861921,6.62775992 C13.1826234,6.61090905 13.0274374,6.60540367 12.947157,6.60540367 L10.4918594,6.60540367 C12.967624,4.7859655 14.5583871,3.74788752 15.2641488,3.49116974 C15.234781,3.49908663 15.449469,3.32677743 15.6757764,3.08503404 C15.9867064,2.75289602 16.2903735,2.34761404 16.509448,1.96081974 C16.8825687,1.30204433 16.9328314,0.965829216 16.7589142,0.811947794 C14.4734232,1.00354793 6.57754687,3.67432334 6.3947867,3.99540019 C6.51662682,4.23932729 6.57754687,4.49595411 6.57754687,4.76528066 L6.50584844,4.93570598 C6.38987156,5.21138002 6.22608489,5.35143121 5.89305188,5.57267873 C5.80123244,5.63367816 5.05228427,6.05180196 4.84968877,6.29215237 C5.18910605,6.33546945 5.98702511,5.84449064 6.04301552,5.81573693 C6.36396506,5.65091428 6.51598381,5.59500524 6.81144056,5.64665902 L7.79563843,5.81872323 L7.4275994,6.70520965 C7.4275994,7.14292524 6.51579027,7.81760795 6.00328124,8.14726447 C5.7619177,8.30251455 5.49136291,8.46340273 5.18910605,8.63328965 C4.83309924,8.83338733 4.59034196,8.9622754 3.97749654,9.28190575 C3.8445813,9.35122788 3.71158689,9.4226 3.62553318,9.46621861 C3.61670989,9.51898694 3.5950427,9.62072693 3.56053162,9.7714386 Z"></path><path d="M3.73772709,12.0483311 C3.73772709,12.0483311 4.72878627,12.6337538 4.75710031,12.6894558 C4.78541435,12.7452333 4.6438385,13.2190971 4.6438385,13.2190971 L6.45609492,13.637255 C6.45609492,13.637255 6.59767081,12.9403527 6.7392467,13.0239832 C6.88083377,13.1076137 7.50377662,13.9717769 8.3816076,14.027549 C9.25938254,14.0833265 9.68414378,13.637255 9.87216658,12.7452444 C10.0601894,11.8532338 10.9029364,12.7452444 10.760162,13.3027441 C10.4203765,13.637255 10.5902608,14.5572454 10.5902608,14.5572454 L14.4978582,15.4771807 C14.4978582,15.4771807 14.6961239,15.7838552 14.3563272,15.9511217 C14.3563272,15.9789741 10.4203765,15.0590448 10.4203765,15.0590448 L9.68414378,15.5608332 L13.9315323,15.8953607 C13.9315323,15.8953607 14.2430373,16.2856656 14.01648,16.3971546 C13.7333395,16.4250064 5.7199351,15.8395798 5.7199351,15.8395798 C2.74671553,16.1184047 8.72107544,16.588296 9.31603305,16.6759022 C9.91099065,16.7635085 11.5991418,17.1387112 11.779524,17.7630973 C8.22312106,18.922124 3.36961354,16.6759022 2.74671553,15.6166196 C2.74671553,15.6166196 2.77502958,14.8639453 3.5395427,14.9475758 C4.53056265,14.8360869 5.60658642,15.1304706 5.6915342,15.3534374 C5.93549005,15.3886504 7.16399954,15.421434 7.16399954,15.421434 C7.16399954,15.421434 8.3816076,15.3534374 7.7868202,14.5262772 C7.48708262,14.4313051 6.78802613,14.5020807 6.34279668,14.8360869 C6.14458709,14.6408958 6.28616857,14.111271 6.28616857,14.111271 L4.53056265,13.7488907 L4.34229223,14.2189301 C4.34229223,14.2189301 3.17139834,14.3758419 3.17139834,14.3621696 C3.17139834,14.3343173 3.36961354,13.3586039 3.36961354,13.3864623 C3.36961354,13.4143903 2.8032764,13.4422454 2.01044923,14.0276477 C1.78392558,13.3307454 0,12.4108102 0,12.3829518 C0.0283409518,12.3828696 1.75562553,12.3549411 2.5484527,11.9089286 C2.94487749,12.5222004 3.48287817,12.9403527 3.48287817,12.9403527 L3.73772709,12.0483311 Z"></path></g></g></g></g></svg>