<svg height='100px' width='100px'  fill="#000000" xmlns="http://www.w3.org/2000/svg" xmlns:xlink="http://www.w3.org/1999/xlink" version="1.1" x="0px" y="0px" viewBox="0 0 64 64" style="enable-background:new 0 0 64 64;" xml:space="preserve"><g><path d="M45,1c-9.718,0-17.642,7.746-17.969,17.386c-1.005-0.764-2.089-1.411-3.262-1.899l-1.538-0.64   c-2.696-1.124-5.767-1.124-8.462,0l-1.539,0.641C6.623,18.824,3,24.258,3,30.333V42c0,5.455,2.971,10.376,7.549,13H6   c-2.757,0-5,2.243-5,5v3h12h10h12v-3c0-2.757-2.243-5-5-5h-4.549C30.029,52.376,33,47.455,33,42v-9.622   C36.188,35.241,40.388,37,45,37c9.925,0,18-8.075,18-18S54.925,1,45,1z M13,18.333l1.539-0.641c2.206-0.919,4.717-0.919,6.924,0   L23,18.333c1.548,0.645,2.933,1.587,4.135,2.779c0.246,2.095,0.86,4.075,1.764,5.888H5.44C6.456,23.149,9.198,19.918,13,18.333z    M3,61v-1c0-1.654,1.346-3,3-3h7.249L13,60v1H3z M14.998,61l-0.001-0.917l0.751-9.01C15.844,49.911,16.833,49,18,49   s2.156,0.911,2.252,2.073L21,60v1H14.998z M33,60v1H22.998l-0.001-1.083L22.753,57H30C31.654,57,33,58.346,33,60z M22.518,54.172   l-0.272-3.265C22.063,48.716,20.198,47,18,47s-4.063,1.716-4.246,3.907l-0.271,3.266C8.434,52.303,5,47.46,5,42v-5h22v-2H5v-2h2v-2   H5v-0.667C5,29.883,5.031,29.44,5.076,29H30v-0.072c0.322,0.485,0.667,0.954,1.033,1.405H31V31H9v2h22v2h-2v2h2v5   C31,47.46,27.566,52.302,22.518,54.172z M45,35c-8.822,0-16-7.178-16-16S36.178,3,45,3s16,7.178,16,16S53.822,35,45,35z"></path><path d="M58.993,18.507l-0.042-1.042l-10.026,0.791c-0.171-0.905-0.654-1.691-1.325-2.271l5.117-7.443l0.586-0.863l-0.885-0.554   C50.197,5.735,47.632,5,45,5c-2.634,0-5.201,0.736-7.423,2.127l-0.881,0.558l5.705,8.299c-0.671,0.579-1.154,1.366-1.326,2.271   l-8.99-0.709l-0.915-0.066l-0.151,0.904l-0.013,0.129c-0.093,2.619,0.554,5.207,1.869,7.486c1.317,2.281,3.238,4.136,5.555,5.364   l0.924,0.485l4.333-9.089C44.101,22.906,44.538,23,45,23c0.462,0,0.899-0.094,1.313-0.239l3.886,8.15l0.455,0.94l0.922-0.489   c2.314-1.229,4.233-3.083,5.549-5.361C58.441,23.719,59.087,21.128,58.993,18.507z M39.548,8.307   c3.37-1.719,7.587-1.699,10.904-0.002l-4.658,6.776C45.537,15.028,45.272,15,45,15s-0.537,0.028-0.794,0.08L39.548,8.307z    M38.465,29.067c-1.583-1.026-2.904-2.417-3.857-4.067c-0.953-1.65-1.497-3.49-1.594-5.374l8.214,0.648   c0.172,0.506,0.437,0.963,0.783,1.356L38.465,29.067z M43,19c0-1.103,0.897-2,2-2s2,0.897,2,2s-0.897,2-2,2S43,20.103,43,19z    M55.392,25c-0.958,1.661-2.29,3.058-3.855,4.07l-3.548-7.44c0.346-0.393,0.612-0.85,0.783-1.356l8.214-0.648   C56.889,21.509,56.345,23.349,55.392,25z"></path></g></svg>