<svg height='100px' width='100px'  fill="#000000" xmlns:x="http://ns.adobe.com/Extensibility/1.0/" xmlns:i="http://ns.adobe.com/AdobeIllustrator/10.0/" xmlns:graph="http://ns.adobe.com/Graphs/1.0/" xmlns="http://www.w3.org/2000/svg" xmlns:xlink="http://www.w3.org/1999/xlink" version="1.1" x="0px" y="0px" viewBox="0 0 100 100" style="enable-background:new 0 0 100 100;" xml:space="preserve"><g><g i:extraneous="self"><g><circle cx="20.9" cy="34.5" r="9.1"></circle><path d="M44.3,56.4c-1.5,0.2-5.4,0.3-7.3-0.6c-1.1-0.5-2.3-3.4-2.8-4.6c-0.3-0.6-0.5-1.1-0.7-1.5c-0.9-1.7-2.7-3.7-6.5-3.7H15.4     c-3,0-5.3,1.5-6.9,4.4l-0.4,0.7c-1.5,2.8-3.1,5.8-3.7,8c-0.6,2.3-1.9,8.9-2,9.2c-0.4,1.9,0.9,3.7,2.8,4.1c0.2,0,0.5,0.1,0.7,0.1     c1.6,0,3.1-1.2,3.4-2.8c0-0.1,1.3-6.6,1.9-8.8c0.2-0.8,0.8-2.1,1.4-3.4l-0.5,15.2c0,1.2,1,2.3,2.2,2.3h12.9c1.2,0,2.2-1,2.2-2.3     l-0.5-15.6c1.1,2,2.6,4.2,4.9,5.2c4.3,2,10.5,1.2,11.2,1.2c1.9-0.3,3.3-2,3-3.9C48,57.5,46.3,56.2,44.3,56.4z"></path><circle cx="79.1" cy="34.5" r="9.1"></circle><path d="M95.5,59c-0.6-2.2-2.1-5.2-3.7-8l-0.4-0.7c-1.6-2.9-3.9-4.4-6.9-4.4H73c-3.8,0-5.6,2-6.5,3.7c-0.2,0.4-0.4,0.9-0.7,1.5     c-0.5,1.2-1.7,4.1-2.8,4.6c-2,0.9-5.8,0.8-7.3,0.6c-1.9-0.2-3.7,1.1-3.9,3c-0.3,1.9,1.1,3.7,3,3.9c0.7,0.1,6.9,0.9,11.2-1.2     c2.3-1.1,3.9-3.2,4.9-5.2l-0.5,15.6c0,1.2,1,2.3,2.2,2.3h12.9c1.2,0,2.2-1,2.2-2.3l-0.5-15.2c0.6,1.3,1.2,2.6,1.4,3.4     c0.6,2.1,1.9,8.7,1.9,8.8c0.3,1.7,1.8,2.8,3.4,2.8c0.2,0,0.5,0,0.7-0.1c1.9-0.4,3.1-2.2,2.8-4.1C97.4,67.9,96.1,61.4,95.5,59z"></path><path d="M39.2,36.7l0.9-1.1c0.6-0.7,1.4-1,2.3-1h10.8l-0.6,3.1c-0.2,0.8,0.7,1.4,1.4,0.9l8-5.9c0.5-0.4,0.5-1.1,0-1.4l-8-5.9     c-0.6-0.5-1.5,0.1-1.4,0.9l0.6,3.1h-11c-2.5,0-4.5,2-4.5,4.5v2.4C37.7,36.9,38.7,37.3,39.2,36.7z"></path><path d="M46,51.8c0.6,0.5,1.5-0.1,1.4-0.9l-0.6-3.1h11c2.5,0,4.5-2,4.5-4.5V41c0-0.8-1-1.1-1.5-0.6l-0.9,1.1     c-0.6,0.7-1.4,1-2.3,1H46.8l0.6-3.1c0.2-0.8-0.7-1.4-1.4-0.9l-8,5.9c-0.5,0.4-0.5,1.1,0,1.4L46,51.8z"></path></g></g></g></svg>