<svg height='100px' width='100px'  fill="#000000" xmlns="http://www.w3.org/2000/svg" xmlns:xlink="http://www.w3.org/1999/xlink" version="1.1" x="0px" y="0px" viewBox="0 0 134 134" style="enable-background:new 0 0 134 134;" xml:space="preserve"><g><g><path d="M100.4,82.3c-16.8,0-30.5-13.7-30.5-30.5V23c0-5.5,4.5-9.9,9.9-9.9v2c-4.4,0-8,3.6-8,8v28.8c0,15.7,12.8,28.5,28.5,28.5    s28.5-12.8,28.5-28.5V23c0-4.4-3.6-8-8-8v-2c5.5,0,9.9,4.5,9.9,9.9v28.8C130.9,68.6,117.2,82.3,100.4,82.3z"></path></g><g><path d="M100.4,73.3c-16.8,0-30.5-9.7-30.5-21.5h2c0,10.8,12.8,19.6,28.5,19.6s28.5-8.8,28.5-19.6h2    C130.9,63.6,117.2,73.3,100.4,73.3z"></path></g><g><path d="M87,22.3h-3.2c-2.7,0-4.9-2.2-4.9-4.9v-6.7c0-2.7,2.2-4.9,4.9-4.9H87c1.6,0,2.9,1.3,2.9,2.9v10.6    C89.9,21,88.6,22.3,87,22.3z M83.8,7.8c-1.6,0-2.9,1.3-2.9,2.9v6.7c0,1.6,1.3,2.9,2.9,2.9H87c0.5,0,1-0.4,1-1V8.8c0-0.5-0.4-1-1-1    H83.8z"></path></g><g><path d="M117.1,22.3h-3.2c-1.6,0-2.9-1.3-2.9-2.9V8.8c0-1.6,1.3-2.9,2.9-2.9h3.2c2.7,0,4.9,2.2,4.9,4.9v6.7    C122,20.1,119.8,22.3,117.1,22.3z M113.9,7.8c-0.5,0-1,0.4-1,1v10.6c0,0.5,0.4,1,1,1h3.2c1.6,0,2.9-1.3,2.9-2.9v-6.7    c0-1.6-1.3-2.9-2.9-2.9H113.9z"></path></g><g><path d="M70.9,128.2c-16.8,0-30.5-13.7-30.5-30.5V69.1c0-4.4-3.6-8-8-8h-7.4v-2h7.4c5.5,0,9.9,4.5,9.9,9.9v28.7    c0,15.7,12.8,28.5,28.5,28.5c7.6,0,14.8-3,20.2-8.4c5.4-5.4,8.4-12.5,8.4-20.2V81.3h2v16.4c0,8.2-3.2,15.8-8.9,21.6    C86.7,125,79.1,128.2,70.9,128.2z"></path></g><g><path d="M14.6,71.6c-6.3,0-11.5-5.2-11.5-11.5c0-6.3,5.2-11.5,11.5-11.5s11.5,5.2,11.5,11.5C26.1,66.4,20.9,71.6,14.6,71.6z     M14.6,50.6c-5.2,0-9.5,4.3-9.5,9.5s4.3,9.5,9.5,9.5s9.5-4.3,9.5-9.5S19.8,50.6,14.6,50.6z"></path></g><g><path d="M14.6,66.7c-3.6,0-6.6-3-6.6-6.6s3-6.6,6.6-6.6s6.6,3,6.6,6.6S18.2,66.7,14.6,66.7z M14.6,55.5c-2.5,0-4.6,2.1-4.6,4.6    s2.1,4.6,4.6,4.6s4.6-2.1,4.6-4.6S17.1,55.5,14.6,55.5z"></path></g><g><g><path d="M100.9,63c-5.7,0-10.3-4.6-10.3-10.3s4.6-10.3,10.3-10.3c5.7,0,10.3,4.6,10.3,10.3S106.6,63,100.9,63z M100.9,44.4     c-4.6,0-8.4,3.7-8.4,8.4s3.7,8.4,8.4,8.4s8.4-3.7,8.4-8.4S105.5,44.4,100.9,44.4z"></path></g><g><path d="M86.1,45.4c-2.1,0-3.8-1.7-3.8-3.8s1.7-3.8,3.8-3.8c2.1,0,3.8,1.7,3.8,3.8S88.2,45.4,86.1,45.4z M86.1,39.8     c-1,0-1.8,0.8-1.8,1.8s0.8,1.8,1.8,1.8c1,0,1.8-0.8,1.8-1.8S87.1,39.8,86.1,39.8z"></path></g><g><path d="M94.7,39.9c-0.6,0-1.3-0.2-1.9-0.5c-1.8-1-2.4-3.3-1.4-5.1c1-1.8,3.3-2.4,5.1-1.4c0.9,0.5,1.5,1.3,1.8,2.3     c0.3,1,0.1,2-0.4,2.9C97.2,39.3,96,39.9,94.7,39.9z M94.7,34.4c-0.2,0-0.3,0-0.5,0.1c-0.5,0.1-0.9,0.4-1.1,0.8     c-0.2,0.4-0.3,0.9-0.2,1.4c0.1,0.5,0.4,0.9,0.8,1.1c0.4,0.2,0.9,0.3,1.4,0.2c0.5-0.1,0.9-0.4,1.1-0.8c0.2-0.4,0.3-0.9,0.2-1.4     c-0.1-0.5-0.4-0.9-0.8-1.1C95.3,34.4,95,34.4,94.7,34.4z"></path></g><g><path d="M114.7,45.4c-2.1,0-3.8-1.7-3.8-3.8s1.7-3.8,3.8-3.8s3.8,1.7,3.8,3.8S116.8,45.4,114.7,45.4z M114.7,39.8     c-1,0-1.8,0.8-1.8,1.8s0.8,1.8,1.8,1.8s1.8-0.8,1.8-1.8S115.7,39.8,114.7,39.8z"></path></g><g><path d="M106.2,39.9c-1.3,0-2.6-0.7-3.3-1.9c-1-1.8-0.4-4.1,1.4-5.1c1.8-1,4.1-0.4,5.1,1.4s0.4,4.1-1.4,5.1     C107.5,39.8,106.8,39.9,106.2,39.9z M106.2,34.4c-0.3,0-0.6,0.1-0.9,0.2c-0.9,0.5-1.2,1.6-0.7,2.5c0.5,0.9,1.6,1.2,2.5,0.7     c0.4-0.2,0.7-0.6,0.8-1.1c0.1-0.5,0.1-0.9-0.2-1.4C107.4,34.7,106.8,34.4,106.2,34.4z"></path></g></g></g></svg>