<svg height='100px' width='100px'  fill="#000000" xmlns="http://www.w3.org/2000/svg" xmlns:xlink="http://www.w3.org/1999/xlink" version="1.1" x="0px" y="0px" viewBox="0 0 100 100" enable-background="new 0 0 100 100" xml:space="preserve"><path d="M78.416,30.916H21.584C11.044,30.916,2.5,39.46,2.5,50c0,10.54,8.544,19.084,19.084,19.084h56.832  C88.955,69.084,97.5,60.54,97.5,50C97.5,39.46,88.955,30.916,78.416,30.916z M21.584,66.54c-9.12,0-16.54-7.42-16.54-16.54  s7.42-16.54,16.54-16.54H50v33.08H21.584z M86.02,38.684c-3.181-2.173-8.062-0.919-10.025-4.94  c-0.041-0.085-0.071-0.193-0.108-0.284h2.53c5.934,0,11.132,3.151,14.051,7.857C90.962,42.73,88.398,40.308,86.02,38.684z"></path></svg>