<svg height='100px' width='100px'  fill="#000000" xmlns:dc="http://purl.org/dc/elements/1.1/" xmlns:cc="http://creativecommons.org/ns#" xmlns:rdf="http://www.w3.org/1999/02/22-rdf-syntax-ns#" xmlns:svg="http://www.w3.org/2000/svg" xmlns="http://www.w3.org/2000/svg" xmlns:sodipodi="http://sodipodi.sourceforge.net/DTD/sodipodi-0.dtd" xmlns:inkscape="http://www.inkscape.org/namespaces/inkscape" version="1.1" x="0px" y="0px" viewBox="0 0 100 100"><g transform="translate(0,-952.36218)"><path style="text-indent:0;text-transform:none;direction:ltr;block-progression:tb;baseline-shift:baseline;color:#000000;enable-background:accumulate;" d="m 39.991884,963.34044 c -4.9469,0 -9.0312,4.1156 -9.0312,9.0624 0,4.2506 3.0433,7.7699 7.0312,8.6876 l 0,24.24996 a 2.0001998,2.0001998 0 0 0 2,2 l 24.8125,0 11.4375,20.9687 a 2.0001998,2.0001998 0 0 0 1.75,1.0625 l 7,-0.031 a 2.0001998,2.0001998 0 1 0 0,-4 l -5.8125,0.031 -11.4375,-20.9688 a 2.0001998,2.0001998 0 0 0 -1.75,-1.0624 l -24,0 0,-8.99995 20,0 a 2.0001999,2.0001999 0 1 0 0,-4.00001 l -20,0 0,-9.2188 c 3.9899,-0.9042 6.9688,-4.4552 6.9688,-8.7188 0,-4.9468 -4.0219,-9.0624 -8.9688,-9.0624 z m -0.5,4.0312 c 0.1694,-0.017 0.3259,0 0.5,0 2.7851,0 5.0312,2.2461 5.0312,5.0312 0,2.7852 -2.2461,4.9376 -5.0312,4.9376 -2.7851,0 -5,-2.1524 -5,-4.9376 0,-2.611 1.9587,-4.7746 4.5,-5.0312 z m -12.5938,25.1875 a 2.0002,2.0002 0 0 0 -0.9062,0.2813 c -5.9711,3.44741 -10.3405,9.15246 -12.125,15.81236 -3.7103,13.8473 4.5591,28.1334 18.4062,31.8438 13.8472,3.7104 28.1334,-4.559 31.8438,-18.4062 a 2.0049442,2.0049442 0 1 0 -3.875,-1.0313 c -3.1509,11.7591 -15.1784,18.7133 -26.9375,15.5625 -11.7592,-3.1508 -18.7133,-15.1784 -15.5625,-26.9375 1.5104,-5.6367 5.1963,-10.45715 10.25,-13.37495 a 2.0002,2.0002 0 0 0 -0.5,-3.68751 2.0002,2.0002 0 0 0 -0.5938,-0.062 z" fill="#000000" fill-opacity="1" stroke="none" marker="none" visibility="visible" display="inline" overflow="visible"></path></g></svg>