<svg height='100px' width='100px'  fill="#000000" xmlns="http://www.w3.org/2000/svg" xmlns:xlink="http://www.w3.org/1999/xlink" version="1.1" x="0px" y="0px" viewBox="0 0 66 66" enable-background="new 0 0 66 66" xml:space="preserve"><g><path d="M32.9946327,1C15.3559589,1,1.005373,15.3554688,1.005373,33s14.3505859,32,31.9892597,32   c17.6445313,0,31.9999962-14.3554688,31.9999962-32S50.639164,1,32.9946327,1z M32.9946327,63   C16.458498,63,3.005373,49.5419922,3.005373,33S16.458498,3,32.9946327,3c16.5419922,0,30,13.4580078,30,30   S49.5366249,63,32.9946327,63z"></path><path d="M32.9956093,5C17.5305481,5,5.005373,17.6512718,5.005373,33c0,15.4394531,12.5566406,28,27.9902363,28   c15.2096024,0,28-12.4260674,28-28C60.9956093,17.5605469,48.4350624,5,32.9956093,5z M32.9956093,59   C18.6645527,59,7.005373,47.3369141,7.005373,33c0-5.8621826,2.0093994-11.5238647,5.6467285-16.0983887l9.3355713,9.3355713   c-0.2415161,0.5117188-0.4679565,1.0336914-0.6682129,1.5722046l-4.675415-2.5457153v-2.4599609c0-0.5527344-0.4472656-1-1-1   s-1,0.4472656-1,1v3.0537109c0,0.3662109,0.2001953,0.703125,0.5214844,0.8779297l5.5426025,3.0181274   c-0.4550171,1.7055054-0.7156372,3.5040894-0.7716064,5.3521729l-4.362793,1.3816528   c-0.3808594,0.1201172-0.6533203,0.4560547-0.6933594,0.8535156l-0.5703125,5.6699219   c-0.0546875,0.5488281,0.3457031,1.0390625,0.8955078,1.0947266c0.0332031,0.0029297,0.0673828,0.0048828,0.1005859,0.0048828   c0.5078125,0,0.9423828-0.3847656,0.9941406-0.9003906l0.5039063-5.0146484l3.152832-0.9985962   c0.1752319,3.2904053,0.9926758,6.3444214,2.3025513,8.9144287l-3.067688,3.4191284   c-0.1650391,0.1835938-0.2558594,0.421875-0.2558594,0.6679688v3.2021484c0,0.5527344,0.4472656,1,1,1s1-0.4472656,1-1v-2.8193359   l2.3834229-2.6564331c1.5940552,2.3869629,3.6727905,4.1790771,6.072937,5.1091919   c0.1520386,1.8789063,1.7122192,3.3665771,3.6295795,3.3665771c1.9180298,0,3.4786987-1.4887085,3.6298218-3.3685303   c2.3026123-0.8977051,4.3920288-2.6400146,6.017334-5.0408325l2.3245239,2.5900269   c0.1804352,1.5408211-0.5690384,3.8193359,1,3.8193359c1.5139389,0,0.8599854-2.1688805,1-3.1572266l2.1005859,2.1005859   C44.521183,56.9850464,38.8558388,59,32.9956093,59z M34.4155312,53.6416016   c-0.2958984,0.4560547-0.8105469,0.7587891-1.3935547,0.7587891s-1.0976582-0.3027344-1.3935566-0.7597656   c0.0199585,0.0029297,0.0402832,0.0015259,0.0602417,0.0043335c0.4288349,0.0592041,0.85956,0.0921021,1.296999,0.093811   C33.4641151,53.7406006,33.9423256,53.7097778,34.4155312,53.6416016z M34.0249062,51.6655884V38.2744141l7.6054688,7.6054688   c-1.6035156,2.7998047-3.8320313,4.7539063-6.2822266,5.5048828c-0.3803101,0.1191406-0.7659912,0.208374-1.1542969,0.2678833   c-0.0112305,0.001709-0.022583,0.0009766-0.0338745,0.0026245C34.1151161,51.6619263,34.069767,51.659729,34.0249062,51.6655884z    M32.0249062,51.6653442c-0.323122-0.0423584-0.6454487-0.1136475-0.9677753-0.1969604   c-0.1200562-0.0313721-0.2422485-0.0464478-0.3613281-0.0836182c-0.0014648-0.0004883-0.0029907,0.000061-0.0044556-0.0004272   c-0.0007935-0.0002441-0.0015869-0.0003052-0.0023804-0.0005493c-4.8540649-1.4927368-8.4284058-7.513855-8.7425537-14.5234375   h10.0784931V51.6653442z M21.9625874,34.8603516c0.111145-2.5313721,0.6165161-4.9575806,1.5310669-7.1171875l7.1171875,7.1171875   H21.9625874z M50.6276894,52.0490723l-7.0559082-7.0559082l-9.838562-9.838562   c-0.0007935-0.0007935-0.00177-0.00177-0.0025635-0.0025635l-9.8287983-9.8287964l-9.9525146-9.9525146   c0.5734539-0.6262341,0.8074055-0.8581343,1.4163208-1.4157104l16.94977,16.9491577   c0.0018921,0.0018921,0.0036011,0.0036011,0.0054932,0.0054932l5.6542358,5.6540527   c0.0021973,0.0021973,0.0043335,0.0043335,0.0065308,0.0065308l5.6447754,5.6445923   c0.0253906,0.0332031,0.0527344,0.0634766,0.0820313,0.0927734l8.3342896,8.3255615   C51.4194679,51.3192444,51.1711578,51.5558243,50.6276894,52.0490723z M39.1001015,34.8603516l-5.0751953-5.0751953v-3.644043   c2.7913399-1.0145016,1.7399712-4.2012882,1.9550781-5.5513916c3.5048485,1.3904572,5.8452301,4.8190269,7.0576172,8.4014893   c0.62677,1.8457642,0.97052,3.8188477,1.059082,5.8691406H39.1001015z M44.0941811,36.8603516   c-0.0402832,0.9242554-0.1170654,1.8383789-0.2685165,2.7255859l-2.725563-2.7255859H44.0941811z M37.3618202,18.9892578   c-3.1889992-1.331789-5.6502018-1.450798-8.6787128,0.0009766c-0.0546875-0.2763672-0.0820313-0.5615234-0.0820313-0.8535156   c0-2.4375,1.9833984-4.4208984,4.4209003-4.4208984s4.4208984,1.9833984,4.4208984,4.4208984   C37.4428749,18.4287109,37.4155312,18.7138672,37.3618202,18.9892578z M33.9799843,20.0671997   c-0.1920471,1.9043789,0.5931129,4.2609253-0.9580078,4.2609253c-0.2519531,0-0.4951172-0.1025391-0.6699219-0.2724609   c-0.4906731-0.5035839-0.2025986-0.8219166-0.2880859-3.9882202c0.2736206-0.0336914,0.5478516-0.0541992,0.8223877-0.059021   c0.0908203-0.0013428,0.1795654-0.0018311,0.270874-0.0003052C33.4319496,20.0128174,33.7062416,20.0335693,33.9799843,20.0671997z    M30.0639668,20.590271c0.1504593,2.1226044-0.4489841,3.5292416,0.875,4.8804321   c0.3151245,0.3074951,0.6869507,0.5289307,1.0859394,0.6731567v1.6412964l-5.1298847-5.1298828   C27.8925495,21.6964512,28.9158688,21.0458698,30.0639668,20.590271z M53.3386269,49.100769l-7.8284912-7.8199463   c0.3087158-1.3143311,0.5079346-2.6740112,0.5835571-4.0680542l3.1021118,0.9825439l0.5039063,5.0146484   c0.1333656,1.3286285,2.1216202,1.1193542,1.9902344-0.1992188l-0.5693359-5.6699219   c-0.0400391-0.3974609-0.3125-0.7333984-0.6933594-0.8535156l-4.3207397-1.368103   c-0.060791-2.0672607-0.3752441-4.0621338-0.9362793-5.9546509l5.4347534-2.9584961   c0.3212891-0.1748047,0.5214844-0.5117188,0.5214844-0.8779297v-3.0537109c0-0.5527344-0.4472656-1-1-1s-1,0.4472656-1,1v2.4599609   l-4.6132813,2.5111084c-1.2354126-3.0667725-3.1032715-5.5610962-5.3741455-7.1814575   c0.8860512-2.7585888-0.2136002-5.7424116-2.633728-7.3132324l0.8711548-1.6912231   c0.2529297-0.4912109,0.0605469-1.09375-0.4306641-1.3466797c-0.4912109-0.2558594-1.0947266-0.0605469-1.3466797,0.4306641   L34.6741982,11.93927c-0.5281982-0.1410522-1.0802002-0.2234497-1.6522217-0.2234497   c-0.4432983,0-0.8762207,0.0452271-1.2944965,0.1312256l-0.4799194-1.5423584   c-0.1640625-0.5263672-0.7216797-0.8212891-1.2519531-0.6582031c-0.5273438,0.1640625-0.8222656,0.7246094-0.6582031,1.2519531   l0.5166626,1.6605225c-1.9395752,1.1062012-3.2529907,3.1900024-3.2529907,5.5777588   c0,0.6654663,0.1057739,1.3061523,0.3013306,1.9180298c-0.4921265,0.352417-0.9663086,0.7496948-1.4202271,1.1883545   l-8.5870361-8.586731C21.4592915,9.0150146,27.125246,7,32.9956093,7c14.3369141,0,26,11.6630859,26,26   C58.9956093,38.8640137,56.9840736,44.5250244,53.3386269,49.100769z"></path><path d="M34.757328,15.1396484c-0.6337891,0-1.1494141,0.515625-1.1494141,1.1503906s0.515625,1.1503906,1.1494141,1.1503906   c0.6347656,0,1.1503906-0.515625,1.1503906-1.1503906S35.3920937,15.1396484,34.757328,15.1396484z"></path><path d="M31.2875996,15.1396484c-0.6347656,0-1.1503906,0.515625-1.1503906,1.1503906s0.515625,1.1503906,1.1503906,1.1503906   C32.8090706,17.4404297,32.8069839,15.1396484,31.2875996,15.1396484z"></path></g></svg>