<svg height='100px' width='100px'  fill="#000000" xmlns="http://www.w3.org/2000/svg" viewBox="0 0 512 512" x="0px" y="0px"><title>foreign-investment-Financial-money-Finance</title><path d="M488,24H456a8,8,0,0,0-7.761,6.06l-7.463,29.85L402.7,97.987,383.353,52.849a8,8,0,0,0-6.755-4.827l-31.183-2.336a55.958,55.958,0,0,0-94.341-7.078L56.6,24.022a7.985,7.985,0,0,0-7.753,4.4l-32,64A7.994,7.994,0,0,0,16,96v72a8,8,0,0,0,.646,3.15l13.71,32,14.707-6.3L32,166.358V97.889l28.755-57.51L242.97,54.045A55.742,55.742,0,0,0,240,72c0,43.778,49.457,77.253,51.562,78.656a8,8,0,0,0,8.876,0C302.543,149.253,352,115.778,352,72a56.02,56.02,0,0,0-.884-9.842l19.444,1.457,22.087,51.536a8,8,0,0,0,13.01,2.506l48-48a7.994,7.994,0,0,0,2.1-3.717L462.246,40H480V62.357l-23.353,54.492A8,8,0,0,0,456,120v53.578l-30.656,45.984a8,8,0,0,0-.2,8.554l22.107,36.845-5.572,16.715-14.408,4.8-28.611-42.917a8,8,0,0,0-8.955-3.224l-80,24a8,8,0,0,0-5.639,6.67L296.938,328H285.766l-22.177-66.53-15.178,5.06,24,72A8,8,0,0,0,280,344h24a8,8,0,0,0,7.938-7.008l7.354-58.827,69.336-20.8,28.716,43.074a8,8,0,0,0,9.186,3.152l24-8a8,8,0,0,0,5.059-5.06l8-24a8,8,0,0,0-.729-6.646l-21.4-35.658,29.191-43.788A8.005,8.005,0,0,0,472,176V121.643l23.353-54.492A8,8,0,0,0,496,64V32A8,8,0,0,0,488,24ZM295.99,134.093a148.018,148.018,0,0,1-18.112-16.519C267.9,106.761,256,90.077,256,72a40,40,0,0,1,80,0C336,100.448,307.236,125.419,295.99,134.093Z"></path><path d="M32,281.4A88.173,88.173,0,0,1,68.851,209.8L82.564,200h90.872l13.713,9.795A88.173,88.173,0,0,1,224,281.4V344h16V281.4a104.206,104.206,0,0,0-43.551-84.628L184,187.883V160a8,8,0,0,0-8-8h-5.394l8.062-28.219a21.793,21.793,0,0,0-36.365-21.4l-14.3,14.3-14.3-14.3a21.793,21.793,0,0,0-36.365,21.4L85.394,152H80a8,8,0,0,0-8,8v27.883l-12.449,8.892A104.206,104.206,0,0,0,16,281.4V424a72,72,0,0,0,9.637,36.006l13.85-8.012A55.964,55.964,0,0,1,32,424ZM168,184H88V168h80ZM92.716,119.385a5.793,5.793,0,0,1,9.667-5.688l19.96,19.96a8,8,0,0,0,11.314,0l19.96-19.96a5.794,5.794,0,0,1,9.667,5.689L153.966,152H102.035Z"></path><path d="M200,376h64v24h16V368a8,8,0,0,0-8-8H64a8,8,0,0,0-8,8V488a8,8,0,0,0,8,8H232V480H200V456h16V440H200V416h32V400H200ZM72,408h32V392H72V376h64v64H80v16h56v24H72Zm80,72V376h32V480Z"></path><path d="M444.9,451.777a23.974,23.974,0,0,0-14.6-34.931,23.981,23.981,0,0,0-18.789-32.586,48,48,0,1,0-71.028,0A23.989,23.989,0,0,0,321.376,416H264a23.99,23.99,0,0,0-12.9,44.223A23.982,23.982,0,0,0,272,496h64a23.9,23.9,0,0,0,16-6.131A23.9,23.9,0,0,0,368,496h64a23.99,23.99,0,0,0,12.9-44.223ZM424,448H360a8,8,0,0,1,0-16h64a8,8,0,0,1,0,16ZM376,320a32,32,0,1,1-32,32A32.036,32.036,0,0,1,376,320Zm-32,80h64a8,8,0,0,1,0,16H344a8,8,0,0,1,0-16Zm-80,32h64a8,8,0,0,1,0,16H264a8,8,0,0,1,0-16Zm72,48H272a8,8,0,0,1,0-16h64a8,8,0,0,1,0,16Zm96,0H368a8,8,0,0,1,0-16h64a8,8,0,0,1,0,16Z"></path><rect x="304" y="232" width="16" height="16"></rect><rect x="424" y="160" width="16" height="16"></rect><rect x="368" y="216" width="16" height="16"></rect><rect x="208" y="152" width="16" height="16"></rect><path d="M296,48a24,24,0,1,0,24,24A24.027,24.027,0,0,0,296,48Zm0,32a8,8,0,1,1,8-8A8.009,8.009,0,0,1,296,80Z"></path><path d="M128,280a64.072,64.072,0,0,0-64,64H80a48,48,0,0,1,96,0h16A64.072,64.072,0,0,0,128,280Z"></path></svg>