<svg height='100px' width='100px'  fill="#000000" xmlns="http://www.w3.org/2000/svg" xmlns:xlink="http://www.w3.org/1999/xlink" version="1.1" x="0px" y="0px" viewBox="0 0 64 64" style="enable-background:new 0 0 64 64;" xml:space="preserve"><g><path d="M38,18c0,1.654,1.346,3,3,3h4c1.392,0,2.556-0.958,2.892-2.246L58,21.281V4.719L40.879,9H36v8h2V18z M45,19h-4   c-0.552,0-1-0.448-1-1v-1h0.879l5.067,1.267C45.827,18.686,45.457,19,45,19z M56,18.719L42,15.22V10.78l14-3.499V18.719z M38,11h2   v4h-2V11z"></path><path d="M59,24.35c1.279-0.739,2.195-2.047,2.369-3.611L62.971,6.32C62.99,6.144,63,5.967,63,5.79C63,3.148,60.852,1,58.21,1H35.79   C33.148,1,31,3.148,31,5.79c0,0.177,0.01,0.354,0.029,0.529L31.993,15H10c-2.757,0-5,2.243-5,5v33H1v5c0,2.757,2.243,5,5,5h52   c2.757,0,5-2.243,5-5v-5h-4V24.35z M35.79,3h22.42C59.748,3,61,4.252,61,5.79c0,0.103-0.006,0.205-0.018,0.309l-1.602,14.42   C59.224,21.933,58.031,23,56.607,23h-7.021l-3.879,3.879C45.469,27.117,45,26.924,45,26.586V23h-7.607   c-1.424,0-2.616-1.067-2.773-2.481L33.018,6.098C33.006,5.995,33,5.893,33,5.79C33,4.252,34.252,3,35.79,3z M18,37   c-1.103,0-2-0.897-2-2s0.897-2,2-2V37z M18,31c-0.702,0-1.352,0.197-1.926,0.516C16.04,31.263,16,31.012,16,30.754   C16,27.581,18.581,25,21.754,25h4.492C29.419,25,32,27.581,32,30.754c0,0.258-0.04,0.509-0.074,0.762   C31.352,31.197,30.702,31,30,31h-1h-0.172c-1.534,0-3.036-0.622-4.121-1.707L24,28.586l-0.707,0.707   C22.208,30.378,20.706,31,19.172,31H19H18z M30,33c1.103,0,2,0.897,2,2s-0.897,2-2,2V33z M20,32.955   c1.453-0.157,2.849-0.724,4-1.623c1.151,0.899,2.547,1.466,4,1.623V38c0,1.654-1.346,3-3,3h-2c-1.654,0-3-1.346-3-3V32.955z M23,43   h2c0.24,0,0.47-0.038,0.702-0.071l0.191,0.764L24,45.586l-1.893-1.893l0.191-0.764C22.53,42.962,22.76,43,23,43z M20.693,45.107   L24,48.414l3.307-3.307l3.586,0.898c1.5,0.375,2.615,1.547,2.974,2.995H14.132c0.357-1.453,1.476-2.629,2.981-3.003L20.693,45.107z    M35.918,49c-0.386-2.376-2.142-4.336-4.54-4.935l-3.554-0.89l-0.231-0.922c1.164-0.712,2.024-1.874,2.305-3.254H30   c2.206,0,4-1.794,4-4c0-0.631-0.16-1.22-0.421-1.751C33.853,32.445,34,31.61,34,30.754C34,26.479,30.521,23,26.246,23h-4.492   C17.479,23,14,26.479,14,30.754c0,0.856,0.147,1.691,0.421,2.495C14.16,33.78,14,34.369,14,35c0,2.206,1.794,4,4,4h0.101   c0.281,1.38,1.141,2.541,2.305,3.254l-0.231,0.921l-3.545,0.881c-2.399,0.597-4.158,2.556-4.547,4.944H11V21h21.685   c0.385,2.295,2.355,4,4.708,4H43v1.586C43,27.917,44.083,29,45.414,29c0.636,0,1.258-0.258,1.707-0.707L50.414,25H53v24H35.918z    M7,20c0-1.654,1.346-3,3-3h22.216l0.222,2H11c-1.103,0-2,0.897-2,2v28c0,1.103,0.897,2,2,2h42c1.103,0,2-0.897,2-2V25h1.607   c0.134,0,0.261-0.026,0.393-0.037V53H7V20z M61,58c0,1.654-1.346,3-3,3H6c-1.654,0-3-1.346-3-3v-3h58V58z"></path><rect x="38" y="45" width="13" height="2"></rect><rect x="47" y="41" width="4" height="2"></rect><rect x="38" y="41" width="7" height="2"></rect><rect x="38" y="37" width="13" height="2"></rect><rect x="38" y="33" width="13" height="2"></rect><circle cx="8" cy="58" r="1"></circle><circle cx="12" cy="58" r="1"></circle><circle cx="16" cy="58" r="1"></circle></g></svg>