<svg height='100px' width='100px'  fill="#000000" xmlns="http://www.w3.org/2000/svg" viewBox="0 0 64 64" x="0px" y="0px"><g><path d="M31,47H30V44a1,1,0,0,0-1-1H7a1,1,0,0,0-1,1v3H5a1,1,0,0,0-1,1v6a1,1,0,0,0,1,1H31a1,1,0,0,0,1-1V48A1,1,0,0,0,31,47ZM8,45H28v2H8Zm22,8H6V49H30ZM56,19H26V15h1a1,1,0,0,0,1-1V10a1,1,0,0,0-1-1H9a1,1,0,0,0-1,1v4a1,1,0,0,0,1,1h1V31H9a1,1,0,0,0-1,1v4a1,1,0,0,0,1,1H27a1,1,0,0,0,1-1V32a1,1,0,0,0-1-1H26V27H56a4,4,0,0,0,0-8ZM10,11H26v2H10ZM26,35H10V33H26ZM12,31V15H24V31ZM26,21H52v4H26Zm30,4H54V21h2a2,2,0,0,1,0,4Z"></path></g></svg>