<svg height='100px' width='100px'  fill="#000000" xmlns="http://www.w3.org/2000/svg" xmlns:xlink="http://www.w3.org/1999/xlink" version="1.1" x="0px" y="0px" viewBox="0 0 64 64" enable-background="new 0 0 64 64" xml:space="preserve"><g><g><g><g><path d="M0.998,55c-0.553,0-1-0.447-1-1c0-4.963,4.037-9,9-9c0.553,0,1,0.447,1,1s-0.447,1-1,1c-3.859,0-7,3.141-7,7      C1.998,54.553,1.551,55,0.998,55z"></path></g><g><path d="M45,55.001c-0.553,0-1-0.447-1-1c0-3.942-4.301-7-8.001-7c-0.553,0-1-0.447-1-1s0.447-1,1-1      c4.721,0,10.001,3.849,10.001,9C46,54.554,45.553,55.001,45,55.001z"></path></g><g><path d="M15.999,47.001L15.999,47.001L8.998,47c-0.553,0-1-0.448-1-1c0-0.553,0.448-1,1-1l0,0l7.001,0.001c0.553,0,1,0.448,1,1      C16.999,46.554,16.551,47.001,15.999,47.001z"></path></g><g><path d="M35.999,47.001L35.999,47.001l-6-0.002c-0.553,0-1-0.448-1-1c0-0.553,0.448-1,1-1l0,0l6,0.002c0.553,0,1,0.448,1,1      C36.999,46.554,36.551,47.001,35.999,47.001z"></path></g><g><path d="M0.999,61.999c-0.552,0-1-0.447-1-1L-0.002,54c0-0.552,0.447-1,1-1c0.552,0,1,0.447,1,1l0.001,6.999      C1.999,61.551,1.552,61.999,0.999,61.999z"></path></g><g><path d="M1.999,62.999c-1.103,0-2-0.897-2-2c0-0.553,0.447-1,1-1s1,0.447,1,1v0.002c0.553,0,1,0.446,1,0.999      C2.999,62.552,2.552,62.999,1.999,62.999z"></path></g><g><path d="M44,62.999c-0.553,0-1-0.447-1-1s0.447-1,1-1h0.002c0-0.553,0.446-1,0.999-1c0.552,0,0.999,0.447,0.999,1      C46,62.102,45.103,62.999,44,62.999z"></path></g><g><path d="M45,61.999c-0.553,0-1-0.447-1-1v-6.998c0-0.553,0.447-1,1-1s1,0.447,1,1v6.998C46,61.552,45.553,61.999,45,61.999z"></path></g><g><path d="M44,62.999H1.999c-0.553,0-1-0.447-1-1s0.447-1,1-1H44c0.553,0,1,0.447,1,1S44.553,62.999,44,62.999z"></path></g></g><g><path d="M15.999,47.001c-0.553,0-1-0.447-1-1v-4.73c0-0.553,0.447-1,1-1s1,0.447,1,1v4.73     C16.999,46.554,16.552,47.001,15.999,47.001z"></path></g><g><path d="M29.999,46.999c-0.553,0-1-0.447-1-1v-4.729c0-0.553,0.447-1,1-1s1,0.447,1,1v4.729     C30.999,46.552,30.552,46.999,29.999,46.999z"></path></g><g><path d="M22.999,44.001c-8.822,0-16-7.178-16-16c0-0.553,0.447-1,1-1s1,0.447,1,1c0,7.72,6.28,14,14,14s14-6.28,14-14     c0-0.553,0.447-1,1-1s1,0.447,1,1C38.999,36.823,31.821,44.001,22.999,44.001z"></path></g><g><path d="M7.999,29.001c-0.553,0-1-0.447-1-1V22.26c0-0.553,0.447-1,1-1s1,0.447,1,1v5.741     C8.999,28.554,8.552,29.001,7.999,29.001z"></path></g><g><path d="M37.999,29.001c-0.553,0-1-0.447-1-1v-5.735c0-0.553,0.447-1,1-1s1,0.447,1,1v5.735     C38.999,28.554,38.552,29.001,37.999,29.001z"></path></g><g><path d="M18.998,48.999c-0.19,0-0.383-0.055-0.554-0.168l-3-1.998c-0.459-0.306-0.584-0.927-0.277-1.387     c0.306-0.46,0.925-0.584,1.387-0.277l3,1.998c0.459,0.306,0.584,0.927,0.277,1.387C19.639,48.843,19.321,48.999,18.998,48.999z"></path></g><g><path d="M18.998,48.999c-0.448,0-0.855-0.303-0.969-0.758c-0.135-0.536,0.191-1.078,0.728-1.212l4-0.999     c0.533-0.137,1.078,0.191,1.212,0.728c0.135,0.536-0.191,1.078-0.728,1.212l-4,0.999C19.16,48.989,19.078,48.999,18.998,48.999z"></path></g><g><path d="M27,48.999c-0.323,0-0.641-0.156-0.833-0.445c-0.307-0.46-0.182-1.081,0.277-1.387l3-1.998     c0.46-0.307,1.08-0.183,1.387,0.277s0.182,1.081-0.277,1.387l-3,1.998C27.383,48.944,27.19,48.999,27,48.999z"></path></g><g><path d="M27,48.999c-0.08,0-0.162-0.01-0.243-0.03l-4-0.999c-0.536-0.134-0.862-0.676-0.728-1.212     c0.133-0.536,0.677-0.865,1.212-0.728l4,0.999c0.536,0.134,0.862,0.676,0.728,1.212C27.855,48.695,27.448,48.999,27,48.999z"></path></g><g><path d="M40.003,43.998H34c-0.553,0-1-0.447-1-1s0.447-1,1-1h6.003c0.553,0,1,0.447,1,1S40.556,43.998,40.003,43.998z"></path></g><g><path d="M12,43.998H5.997c-0.553,0-1-0.447-1-1s0.447-1,1-1H12c0.553,0,1,0.447,1,1S12.553,43.998,12,43.998z"></path></g><g><path d="M22.999,28.011c-14.425,0-15.851-5.22-15.965-5.815c-0.105-0.542,0.249-1.066,0.792-1.171     c0.529-0.106,1.047,0.236,1.165,0.763c0.042,0.138,1.419,4.224,14.008,4.224c12.745,0,14.029-4.189,14.041-4.232     c0.142-0.52,0.672-0.854,1.198-0.729c0.524,0.123,0.861,0.623,0.756,1.151C38.876,22.796,37.419,28.011,22.999,28.011z"></path></g><g><path d="M38.014,23.006H8.016c-0.553,0-1-0.447-1-1s0.447-1,1-1h29.998c0.553,0,1,0.447,1,1S38.566,23.006,38.014,23.006z"></path></g><g><path d="M38.014,18.005H8.016c-0.553,0-1-0.447-1-1s0.447-1,1-1h29.998c0.553,0,1,0.447,1,1S38.566,18.005,38.014,18.005z"></path></g><g><path d="M8.016,23.006c-0.553,0-1-0.447-1-1v-5.001c0-0.553,0.447-1,1-1s1,0.447,1,1v5.001     C9.016,22.559,8.568,23.006,8.016,23.006z"></path></g><g><path d="M38.015,23.006c-0.553,0-1-0.447-1-1v-5.001c0-0.553,0.447-1,1-1s1,0.447,1,1v5.001     C39.015,22.559,38.567,23.006,38.015,23.006z"></path></g><g><path d="M38.013,18.005c-0.174,0-0.351-0.045-0.511-0.141c-0.475-0.283-0.63-0.896-0.348-1.371l2.982-5.005     c0.283-0.476,0.896-0.631,1.371-0.348s0.63,0.896,0.348,1.371l-2.982,5.005C38.686,17.831,38.354,18.005,38.013,18.005z"></path></g><g><path d="M40.997,13c-0.324,0-0.642-0.157-0.834-0.447l-3.98-5.998c-0.306-0.46-0.18-1.081,0.28-1.386     c0.46-0.308,1.08-0.18,1.386,0.28l3.98,5.998c0.306,0.46,0.18,1.081-0.28,1.386C41.379,12.946,41.187,13,40.997,13z"></path></g><g><path d="M37.017,7.002c-0.092,0-0.184-0.013-0.275-0.038L22.725,2.963c-0.531-0.152-0.839-0.705-0.688-1.236     c0.152-0.532,0.711-0.833,1.236-0.688L37.29,5.04c0.531,0.152,0.839,0.705,0.688,1.236C37.852,6.716,37.451,7.002,37.017,7.002z"></path></g><g><path d="M8.001,18.005c-0.341,0-0.673-0.174-0.86-0.488l-2.982-5.005c-0.282-0.475-0.127-1.088,0.348-1.371     s1.088-0.128,1.371,0.348l2.982,5.005c0.282,0.475,0.127,1.088-0.348,1.371C8.352,17.96,8.175,18.005,8.001,18.005z"></path></g><g><path d="M5.017,13c-0.189,0-0.382-0.054-0.552-0.167c-0.46-0.305-0.586-0.926-0.28-1.386l3.98-5.998     c0.304-0.46,0.925-0.588,1.386-0.28c0.46,0.305,0.586,0.926,0.28,1.386l-3.98,5.998C5.658,12.843,5.341,13,5.017,13z"></path></g><g><path d="M8.997,7.002c-0.435,0-0.835-0.286-0.961-0.726C7.885,5.745,8.192,5.192,8.724,5.04L22.74,1.039     c0.526-0.146,1.084,0.155,1.236,0.688c0.151,0.531-0.156,1.084-0.688,1.236L9.272,6.964C9.181,6.989,9.089,7.002,8.997,7.002z"></path></g><g><path d="M23.015,14c-2.206,0-4-1.794-4-4s1.794-4,4-4s4,1.794,4,4S25.221,14,23.015,14z M23.015,8c-1.103,0-2,0.897-2,2     s0.897,2,2,2s2-0.897,2-2S24.117,8,23.015,8z"></path></g><g><path d="M22.015,51.999c-0.255,0-0.51-0.097-0.705-0.291l-3.016-3c-0.392-0.39-0.394-1.022-0.004-1.414     c0.39-0.391,1.022-0.394,1.414-0.004l3.016,3c0.392,0.39,0.394,1.022,0.004,1.414C22.528,51.9,22.271,51.999,22.015,51.999z"></path></g><g><path d="M24.015,51.999c-0.255,0-0.51-0.097-0.705-0.291c-0.392-0.39-0.394-1.022-0.004-1.414l2.984-3     c0.39-0.391,1.022-0.394,1.414-0.004s0.394,1.022,0.004,1.414l-2.984,3C24.528,51.9,24.271,51.999,24.015,51.999z"></path></g><g><path d="M24.015,51.999h-2c-0.553,0-1-0.447-1-1s0.447-1,1-1h2c0.553,0,1,0.447,1,1S24.567,51.999,24.015,51.999z"></path></g><g><path d="M20.017,62.999c-0.06,0-0.119-0.005-0.18-0.016c-0.544-0.1-0.904-0.62-0.806-1.163l2-11     c0.098-0.544,0.62-0.899,1.162-0.806c0.544,0.1,0.904,0.62,0.805,1.163l-1.998,11C20.912,62.661,20.491,62.999,20.017,62.999z"></path></g><g><path d="M25.997,62.999c-0.475,0-0.896-0.339-0.983-0.822l-1.983-11c-0.098-0.544,0.264-1.063,0.807-1.162     c0.553-0.1,1.063,0.264,1.162,0.807l1.983,11c0.098,0.544-0.264,1.063-0.807,1.162C26.115,62.994,26.056,62.999,25.997,62.999z"></path></g><g><path d="M34.007,57.992c-1.654,0-3-1.346-3-3s1.346-3,3-3s3,1.346,3,3S35.661,57.992,34.007,57.992z M34.007,53.992     c-0.552,0-1,0.448-1,1s0.448,1,1,1s1-0.448,1-1S34.559,53.992,34.007,53.992z"></path></g><g><path d="M11.015,11c-0.366,0-0.718-0.201-0.894-0.55L8.105,6.452C7.856,5.959,8.055,5.357,8.548,5.109     c0.493-0.252,1.094-0.051,1.343,0.442l2.016,3.998c0.249,0.493,0.051,1.095-0.442,1.343C11.319,10.966,11.166,11,11.015,11z"></path></g><g><path d="M35.006,11c-0.151,0-0.305-0.034-0.449-0.107c-0.493-0.248-0.691-0.85-0.442-1.343l2.016-3.998     c0.248-0.493,0.847-0.694,1.343-0.442c0.493,0.248,0.691,0.85,0.442,1.343l-2.016,3.998C35.724,10.799,35.372,11,35.006,11z"></path></g></g><g><path d="M62.999,39.999H47c-0.553,0-1-0.447-1-1V12.993c0-0.553,0.447-1,1-1h15.999c0.553,0,1,0.447,1,1v26.006    C63.999,39.552,63.552,39.999,62.999,39.999z M48,37.999h13.999V13.993H48V37.999z"></path></g><g><path d="M46.995,16.996c-0.553,0-1-0.447-1-1s0.447-1,1-1c1.104,0,2.003-0.898,2.003-2.003c0-0.553,0.447-1,1-1s1,0.447,1,1    C50.998,15.2,49.202,16.996,46.995,16.996z"></path></g><g><path d="M63.002,16.996c-2.207,0-4.003-1.796-4.003-4.003c0-0.553,0.447-1,1-1s1,0.447,1,1c0,1.104,0.898,2.003,2.003,2.003    c0.553,0,1,0.447,1,1S63.555,16.996,63.002,16.996z"></path></g><g><path d="M59.999,40c-0.553,0-1-0.447-1-1c0-2.207,1.796-4.003,4.003-4.003c0.553,0,1,0.447,1,1s-0.447,1-1,1    c-1.104,0-2.003,0.898-2.003,2.003C60.999,39.553,60.552,40,59.999,40z"></path></g><g><path d="M49.998,40c-0.553,0-1-0.447-1-1c0-1.104-0.898-2.003-2.003-2.003c-0.553,0-1-0.447-1-1s0.447-1,1-1    c2.207,0,4.003,1.796,4.003,4.003C50.998,39.553,50.551,40,49.998,40z"></path></g><g><path d="M54.999,30.998c-2.757,0-5-2.243-5-5s2.243-5,5-5s5,2.243,5,5S57.756,30.998,54.999,30.998z M54.999,22.998    c-1.654,0-3,1.346-3,3s1.346,3,3,3s3-1.346,3-3S56.653,22.998,54.999,22.998z"></path></g><g><path d="M47,46c-0.553,0-1-0.447-1-1v-6.001c0-0.553,0.447-1,1-1s1,0.447,1,1V45C48,45.553,47.553,46,47,46z"></path></g><g><path d="M62.999,46H47c-0.553,0-1-0.447-1-1s0.447-1,1-1h15.999c0.553,0,1,0.447,1,1S63.552,46,62.999,46z"></path></g><g><path d="M62.999,42.997H47c-0.553,0-1-0.447-1-1s0.447-1,1-1h15.999c0.553,0,1,0.447,1,1S63.552,42.997,62.999,42.997z"></path></g><g><path d="M62.999,46c-0.553,0-1-0.447-1-1v-6.001c0-0.553,0.447-1,1-1s1,0.447,1,1V45C63.999,45.553,63.552,46,62.999,46z"></path></g><g><path d="M56,55.997c-0.553,0-1-0.447-1-1v-6.999c0-0.553,0.447-1,1-1s1,0.447,1,1v6.999C57,55.55,56.553,55.997,56,55.997z"></path></g><g><path d="M56,55.997h-8.001c-0.553,0-1-0.447-1-1s0.447-1,1-1H56c0.553,0,1,0.447,1,1S56.553,55.997,56,55.997z"></path></g><g><path d="M49.999,57.997c-0.256,0-0.512-0.098-0.707-0.293l-2-2c-0.391-0.391-0.391-1.023,0-1.414s1.023-0.391,1.414,0l2,2    c0.391,0.391,0.391,1.023,0,1.414C50.511,57.899,50.255,57.997,49.999,57.997z"></path></g><g><path d="M47.999,55.997c-0.256,0-0.512-0.098-0.707-0.293c-0.391-0.391-0.391-1.023,0-1.414l2-2c0.391-0.391,1.023-0.391,1.414,0    s0.391,1.023,0,1.414l-2,2C48.511,55.899,48.255,55.997,47.999,55.997z"></path></g></g></svg>