<svg height='100px' width='100px'  fill="#000000" xmlns="http://www.w3.org/2000/svg" xmlns:xlink="http://www.w3.org/1999/xlink" version="1.1" x="0px" y="0px" viewBox="0 0 512 512" style="enable-background:new 0 0 512 512;" xml:space="preserve"><title>PublicDebt-governmentdebt-debt-financial-loan-bank</title><path d="M416,208h-16v-96h-40V96h-64V76.7l-8-8V64c0-14.6-9.9-27.3-24-31V16h-16v17c-14.1,3.7-24,16.4-24,31v4.7l-8,8V96h-64v16h-40  v96H96v16h320V208z M152,208h-24v-32h24V208z M152,160h-24v-32h24V160z M256,48c8.8,0,16,7.2,16,16h-32C240,55.2,247.2,48,256,48z   M232,83.3l3.3-3.3h41.4l3.3,3.3V96h-48V83.3z M344,208H168v-96h176V208z M384,208h-24v-32h24V208z M384,160h-24v-32h24V160z"></path><polygon points="248,340.7 234.3,354.3 245.7,365.7 264,347.3 264,320 248,320 "></polygon><path d="M322.3,266.3L308,280.7l-12-12l-22.2,22.2c-29.3-9.8-61.1,6-71,35.3c-9.8,29.3,6,61.1,35.3,71c29.3,9.8,61.1-6,71-35.3  c3.9-11.6,3.9-24.1,0-35.6l22.2-22.2l-12-12l14.3-14.3L322.3,266.3z M256,384c-22.1,0-40-17.9-40-40s17.9-40,40-40s40,17.9,40,40  C296,366.1,278.1,384,256,384z M301.4,311.3c-3.5-4.9-7.8-9.2-12.7-12.7l7.3-7.3l12.7,12.7L301.4,311.3z"></path><rect x="332.7" y="248" transform="matrix(0.7071 -0.7071 0.7071 0.7071 -80.2667 318.2071)" width="22.6" height="16"></rect><rect x="344" y="284.7" transform="matrix(0.7071 -0.7071 0.7071 0.7071 -106.2052 335.598)" width="16" height="22.6"></rect><rect x="296" y="236.7" transform="matrix(0.7071 -0.7071 0.7071 0.7071 -86.323 287.598)" width="16" height="22.6"></rect><path d="M472,240h-96v16h96c4.4,0,8,3.6,8,8v144c0,4.4-3.6,8-8,8H40c-4.4,0-8-3.6-8-8V264c0-4.4,3.6-8,8-8h232v-16H40  c-13.2,0-24,10.8-24,24v208c0,13.2,10.8,24,24,24h432c13.2,0,24-10.8,24-24V264C496,250.8,485.2,240,472,240z M208,480H40  c-4.4,0-8-3.6-8-8v-9.4c2.6,0.9,5.3,1.4,8,1.4h168V480z M208,448H40c-4.4,0-8-3.6-8-8v-9.4c2.6,0.9,5.3,1.4,8,1.4h168V448z M288,480  h-64v-48h64V480z M480,472c0,4.4-3.6,8-8,8H304v-16h168c2.7,0,5.4-0.5,8-1.4V472z M480,440c0,4.4-3.6,8-8,8H304v-16h168  c2.7,0,5.4-0.5,8-1.4V440z"></path><path d="M176,272H72v9c0,8.3-6.7,15-15,15h-9v80h9c8.3,0,15,6.7,15,15v9h104v-16H87.2c-2.7-11.5-11.7-20.5-23.2-23.2v-49.6  c11.5-2.7,20.5-11.7,23.2-23.2H176V272z"></path><rect x="120" y="336" width="56" height="16"></rect><path d="M424.8,384H336v16h104v-9c0-8.3,6.7-15,15-15h9v-80h-9c-8.3,0-15-6.7-15-15v-9h-48v16h32.8c2.7,11.5,11.7,20.5,23.2,23.2  v49.6C436.5,363.5,427.5,372.5,424.8,384z"></path><rect x="336" y="336" width="56" height="16"></rect><rect x="184" y="128" width="16" height="24"></rect><rect x="184" y="168" width="16" height="24"></rect><rect x="216" y="128" width="16" height="24"></rect><rect x="216" y="168" width="16" height="24"></rect><rect x="248" y="128" width="16" height="24"></rect><rect x="248" y="168" width="16" height="24"></rect><rect x="280" y="128" width="16" height="24"></rect><rect x="280" y="168" width="16" height="24"></rect><rect x="312" y="128" width="16" height="24"></rect><rect x="312" y="168" width="16" height="24"></rect></svg>