<svg height='100px' width='100px'  fill="#000000" xmlns="http://www.w3.org/2000/svg" xmlns:xlink="http://www.w3.org/1999/xlink" version="1.1" x="0px" y="0px" viewBox="0 0 100 100" enable-background="new 0 0 100 100" xml:space="preserve"><g display="none"><path display="inline" opacity="0.3" fill-rule="evenodd" clip-rule="evenodd" d="M76.578,53.712l6.875-6.708l11.502,3.135   l-3.136,2.673L76.578,53.712L76.578,53.712z M68.431,32.534l-5.051-2.365l-16.976,2.365L16.345,29.86l-3.277,5.963l-7.145,3.572   l0.899,5.655l-1.195,4.164l3.573,6.837l19.65,0.9l5.359,1.773l14.277-3.573l5.359,2.699l13.699-6.271l10.718-11.592l-7.736-2.391   L68.431,32.534z"></path></g><g display="none"><path display="inline" d="M18.118,42.455v-5.32h2.005c0.359,0,0.629,0.025,0.809,0.051c0.257,0.052,0.476,0.129,0.656,0.257   c0.167,0.128,0.308,0.282,0.424,0.514c0.103,0.205,0.154,0.462,0.154,0.719c0,0.463-0.141,0.848-0.424,1.157   c-0.283,0.309-0.81,0.463-1.555,0.463h-1.362v2.159H18.118L18.118,42.455z M18.825,39.679h1.362c0.463,0,0.784-0.103,0.977-0.257   c0.18-0.18,0.283-0.411,0.283-0.72c0-0.231-0.051-0.411-0.167-0.565s-0.257-0.257-0.45-0.308c-0.116-0.052-0.334-0.052-0.655-0.052   h-1.35V39.679L18.825,39.679z M26.562,37.134h0.693v3.084c0,0.54-0.051,0.951-0.18,1.259c-0.115,0.334-0.334,0.565-0.655,0.771   c-0.309,0.206-0.72,0.308-1.234,0.308c-0.501,0-0.899-0.103-1.221-0.256c-0.321-0.18-0.54-0.437-0.681-0.746   c-0.141-0.334-0.206-0.771-0.206-1.336v-3.084h0.707v3.084c0,0.463,0.039,0.796,0.128,1.002c0.09,0.231,0.231,0.385,0.437,0.514   c0.219,0.103,0.463,0.18,0.771,0.18c0.514,0,0.887-0.128,1.105-0.36c0.219-0.231,0.334-0.694,0.334-1.336V37.134L26.562,37.134z    M28.451,42.455v-5.32h3.842v0.643h-3.136v1.619h2.93v0.617h-2.93v1.825h3.251v0.617H28.451L28.451,42.455z M33.398,42.455v-5.32   h2.352c0.488,0,0.835,0.051,1.092,0.154c0.244,0.103,0.437,0.257,0.591,0.514c0.142,0.231,0.219,0.488,0.219,0.796   c0,0.36-0.129,0.694-0.373,0.951c-0.245,0.257-0.617,0.411-1.131,0.488c0.192,0.103,0.334,0.18,0.424,0.257   c0.206,0.206,0.398,0.437,0.591,0.719l0.913,1.439h-0.874l-0.707-1.105c-0.206-0.309-0.373-0.565-0.514-0.72   c-0.128-0.18-0.244-0.309-0.347-0.36c-0.115-0.077-0.218-0.128-0.321-0.154c-0.077,0-0.219-0.026-0.398-0.026h-0.81v2.365H33.398   L33.398,42.455z M34.104,39.499h1.504c0.321,0,0.579-0.051,0.758-0.103c0.18-0.077,0.321-0.18,0.411-0.334   c0.09-0.154,0.142-0.308,0.142-0.463c0-0.257-0.09-0.462-0.27-0.617c-0.18-0.18-0.475-0.257-0.861-0.257h-1.684V39.499   L34.104,39.499z M39.965,42.455v-4.678h-1.748v-0.643h4.215v0.643h-1.76v4.678H39.965L39.965,42.455z M42.805,39.859   c0-0.874,0.244-1.568,0.707-2.056c0.476-0.514,1.092-0.746,1.837-0.746c0.488,0,0.938,0.103,1.324,0.334   c0.398,0.257,0.694,0.565,0.913,1.002c0.192,0.411,0.296,0.874,0.296,1.414c0,0.54-0.104,1.028-0.322,1.439   c-0.219,0.437-0.527,0.745-0.925,0.977c-0.398,0.206-0.823,0.333-1.285,0.333c-0.501,0-0.951-0.128-1.336-0.359   c-0.398-0.257-0.707-0.591-0.899-1.002C42.908,40.784,42.805,40.347,42.805,39.859L42.805,39.859z M43.525,39.885   c0,0.642,0.18,1.13,0.514,1.516c0.359,0.36,0.784,0.54,1.298,0.54c0.54,0,0.977-0.18,1.311-0.54   c0.347-0.386,0.514-0.925,0.514-1.593c0-0.437-0.077-0.823-0.218-1.131c-0.142-0.334-0.36-0.565-0.643-0.745   s-0.591-0.283-0.938-0.283c-0.501,0-0.938,0.18-1.297,0.514C43.705,38.522,43.525,39.087,43.525,39.885L43.525,39.885z    M18.131,50.756v-5.32h2.352c0.476,0,0.835,0.051,1.08,0.155c0.244,0.103,0.45,0.256,0.591,0.488   c0.154,0.257,0.218,0.514,0.218,0.796c0,0.386-0.116,0.694-0.359,0.977c-0.245,0.257-0.63,0.412-1.131,0.488   c0.18,0.077,0.321,0.18,0.424,0.257c0.206,0.206,0.398,0.437,0.578,0.694l0.925,1.465h-0.887l-0.694-1.105   c-0.206-0.334-0.386-0.565-0.514-0.746c-0.128-0.154-0.257-0.282-0.36-0.333c-0.103-0.077-0.206-0.129-0.321-0.155   c-0.077-0.026-0.206-0.026-0.385-0.026h-0.823v2.365H18.131L18.131,50.756z M18.825,47.775h1.517c0.321,0,0.578-0.025,0.758-0.077   c0.18-0.077,0.321-0.18,0.411-0.334c0.09-0.154,0.142-0.308,0.142-0.488c0-0.231-0.09-0.437-0.271-0.617   c-0.192-0.154-0.475-0.231-0.874-0.231h-1.684V47.775L18.825,47.775z M23.605,50.756v-5.32h0.694v5.32H23.605L23.605,50.756z    M29.337,48.88l0.694,0.18c-0.142,0.591-0.412,1.028-0.784,1.336c-0.398,0.309-0.861,0.437-1.413,0.437   c-0.579,0-1.042-0.103-1.401-0.333c-0.36-0.232-0.63-0.565-0.81-1.028c-0.192-0.437-0.283-0.899-0.283-1.414   c0-0.565,0.103-1.028,0.309-1.465c0.218-0.411,0.514-0.72,0.913-0.925c0.385-0.206,0.822-0.309,1.285-0.309   c0.527,0,0.977,0.128,1.336,0.386c0.36,0.283,0.617,0.668,0.759,1.157l-0.694,0.154c-0.116-0.386-0.295-0.668-0.54-0.848   c-0.231-0.18-0.527-0.257-0.873-0.257c-0.412,0-0.759,0.103-1.029,0.309c-0.27,0.18-0.462,0.437-0.578,0.771   s-0.167,0.668-0.167,1.028c0,0.437,0.064,0.848,0.193,1.182c0.142,0.334,0.347,0.591,0.63,0.746c0.27,0.18,0.565,0.257,0.899,0.257   c0.386,0,0.72-0.128,1.002-0.334C29.054,49.677,29.234,49.343,29.337,48.88L29.337,48.88z M30.687,48.161   c0-0.874,0.244-1.568,0.707-2.082c0.488-0.488,1.092-0.746,1.838-0.746c0.501,0,0.938,0.128,1.323,0.36   c0.398,0.231,0.707,0.565,0.913,0.977c0.193,0.437,0.309,0.9,0.309,1.439s-0.116,1.028-0.322,1.439   c-0.231,0.437-0.54,0.745-0.925,0.977c-0.411,0.206-0.835,0.308-1.297,0.308c-0.502,0-0.938-0.103-1.337-0.359   c-0.398-0.231-0.694-0.565-0.899-0.977C30.79,49.086,30.687,48.624,30.687,48.161L30.687,48.161z M31.419,48.187   c0,0.617,0.167,1.131,0.514,1.491c0.347,0.386,0.771,0.565,1.298,0.565c0.527,0,0.964-0.18,1.297-0.565   c0.347-0.36,0.514-0.9,0.514-1.568c0-0.437-0.077-0.823-0.218-1.131c-0.141-0.334-0.36-0.591-0.629-0.771   c-0.283-0.18-0.604-0.257-0.951-0.257c-0.501,0-0.938,0.18-1.298,0.514S31.419,47.364,31.419,48.187L31.419,48.187z M39.901,52.324   c-0.36-0.462-0.655-1.002-0.913-1.593c-0.244-0.617-0.373-1.259-0.373-1.902c0-0.565,0.09-1.13,0.283-1.645   c0.219-0.617,0.552-1.234,1.002-1.825h0.462c-0.282,0.488-0.488,0.849-0.578,1.054c-0.141,0.36-0.257,0.694-0.347,1.054   c-0.103,0.463-0.154,0.9-0.154,1.362c0,1.157,0.373,2.313,1.079,3.496H39.901L39.901,52.324z M44.694,45.436h0.694v3.059   c0,0.54-0.051,0.977-0.167,1.285c-0.128,0.309-0.334,0.565-0.655,0.771c-0.321,0.18-0.733,0.282-1.247,0.282   c-0.501,0-0.9-0.077-1.221-0.257c-0.322-0.154-0.54-0.411-0.682-0.746c-0.128-0.308-0.205-0.745-0.205-1.336v-3.059h0.707v3.059   c0,0.488,0.039,0.796,0.129,1.028c0.09,0.231,0.231,0.386,0.45,0.514c0.205,0.103,0.462,0.18,0.771,0.18   c0.514,0,0.874-0.128,1.092-0.36c0.219-0.231,0.334-0.694,0.334-1.362V45.436L44.694,45.436z M46.339,49.035l0.656-0.051   c0.039,0.257,0.103,0.488,0.218,0.668c0.116,0.154,0.296,0.309,0.54,0.412c0.244,0.103,0.501,0.154,0.81,0.154   c0.27,0,0.514-0.051,0.707-0.128c0.219-0.077,0.36-0.18,0.463-0.309c0.103-0.154,0.154-0.308,0.154-0.462   c0-0.18-0.051-0.308-0.154-0.437c-0.09-0.128-0.244-0.231-0.476-0.308c-0.141-0.077-0.45-0.155-0.938-0.283   c-0.489-0.103-0.835-0.206-1.028-0.308c-0.257-0.154-0.437-0.309-0.565-0.515c-0.128-0.18-0.192-0.411-0.192-0.642   c0-0.283,0.077-0.54,0.231-0.771c0.155-0.231,0.373-0.411,0.668-0.515c0.295-0.128,0.617-0.18,0.977-0.18   c0.385,0,0.732,0.051,1.041,0.18c0.308,0.129,0.54,0.309,0.694,0.566c0.155,0.231,0.245,0.514,0.257,0.822l-0.668,0.052   c-0.039-0.334-0.154-0.591-0.373-0.746c-0.206-0.18-0.514-0.257-0.925-0.257c-0.424,0-0.733,0.078-0.925,0.232   c-0.193,0.154-0.296,0.334-0.296,0.565c0,0.18,0.064,0.334,0.206,0.462c0.141,0.128,0.488,0.257,1.054,0.386   c0.578,0.128,0.977,0.231,1.182,0.334c0.309,0.154,0.54,0.309,0.681,0.54c0.154,0.231,0.231,0.488,0.231,0.745   c0,0.309-0.077,0.565-0.244,0.823c-0.167,0.231-0.398,0.437-0.694,0.565c-0.308,0.154-0.655,0.206-1.041,0.206   c-0.476,0-0.874-0.051-1.208-0.206c-0.309-0.128-0.566-0.334-0.758-0.617C46.442,49.729,46.339,49.394,46.339,49.035L46.339,49.035   z M50.94,50.756l2.043-5.32h0.758l2.172,5.32h-0.797L54.5,49.137h-2.223l-0.579,1.619H50.94L50.94,50.756z M52.469,48.572h1.812   l-0.565-1.465c-0.154-0.462-0.283-0.823-0.373-1.105c-0.064,0.334-0.154,0.668-0.283,1.002L52.469,48.572L52.469,48.572z    M56.826,52.324h-0.475c0.732-1.182,1.079-2.338,1.079-3.496c0-0.437-0.039-0.899-0.141-1.362   c-0.077-0.333-0.206-0.693-0.347-1.028c-0.09-0.231-0.282-0.591-0.591-1.08h0.475c0.45,0.591,0.784,1.208,1.002,1.825   c0.193,0.514,0.283,1.08,0.283,1.645c0,0.643-0.129,1.286-0.373,1.902C57.481,51.322,57.186,51.862,56.826,52.324z"></path></g><g><path fill="none" stroke="#000000" stroke-linecap="round" stroke-linejoin="round" stroke-miterlimit="10" d="M10.5,55.833   c-0.329,0.032-2.245,0.072-2.677-0.369c-0.651-0.663,0.042-2.502-0.147-3.298c-0.383-1.611-2.001-2.338-1.849-4.288   c0.066-0.857,0.963-1.659,0.981-2.509c0.016-0.761-0.558-1.683-0.641-2.571c-0.273-2.913,0.588-2.377,2.529-3.834   C9.657,38.244,10.026,36.91,11,36.33c0.762-0.454,1.55-0.179,2.194-0.685c1.718-1.346,0.99-4.153,3.314-5.27   c1.015-0.488,1.951-0.279,3.087-0.376c1.129-0.096,2.438-0.749,3.571-0.474c0.928,0.225,1.482,0.84,2.492,0.975   c1.05,0.14,2.253,0.112,3.305,0.176c2.402,0.145,4.537,0.516,6.838,0.958c2.036,0.391,3.404-0.966,5.494-0.68   c2.704,0.371,5.475,0.953,8.183,0.713c1.598-0.142,2.936-0.179,4.363-0.675c1.672-0.582,2.961-0.426,4.75-0.65   c1.269-0.159,3.189-1.348,4.408-0.97c0.971,0.302,1.07,1.538,2.134,1.478c0.057,0.212,0.149,0.431,0.234,0.634   c2.199-0.348,1.311,3.417,3.315,2.033c0.625,0.809,0.101,1.748,0.318,2.679c0.328,1.41,1.195,1.887,2.691,2.183   c1.464,0.291,2.846,0.067,4.279,0.581c0.984,0.352,1.556,1.004,2.353,1.404c-2.159,2.774-4.122,5.553-6.831,8.015   c-1.029,0.935-2.099,1.747-3.158,2.622c-1.203,0.994-1.385,0.668-2.713,1.159c-1.652,0.609-3.154,2.159-4.657,3.047   c-0.747,0.442-1.581,0.705-2.338,1.127c-0.792,0.442-2.507,2.334-3.317,2.323c-0.9-0.012-1.04-0.973-1.816-1.458   c-0.742-0.464-1.69-0.297-2.466-0.536c-1.018-0.313-2.068-0.893-3.034-1.52c-1.022,1.124-3.184,1.72-4.662,2.019   c-0.935,0.189-1.862,0.069-2.826,0.172c-1.196,0.127-1.18,0.572-2.171,0.845c-0.613,0.169-1.375-0.155-2-0.011   c-0.772,0.178-1.429,0.864-2.208,0.962c-2.077,0.26-2.75-2.238-4.833-2.007c-0.823,0.091-1.591,0.655-2.464,0.72   c-1.036,0.077-1.875-0.355-2.866-0.35c-1.905,0.008-3.699,0.409-5.629,0.166c-3.035-0.382-3.866-0.692-6.987-0.849L10.5,55.833z"></path><path fill="none" stroke="#000000" stroke-linecap="round" stroke-linejoin="round" stroke-miterlimit="10" d="M77.167,53.333   c1.56-0.521,2.588-2.481,3.186-3.884c0.337-0.792-0.286-1.298,1.006-1.79c0.744-0.283,2.17-0.354,3.012-0.53   c1.318-0.275,0.764-0.468,2.004,0.333c1.41,0.911,1.933,1.333,3.609,1.538c0.725,0.089,4.019,0.31,4.032,1.329   c0.008,0.589-2.909,1.803-3.478,1.967c-1.205,0.347-2.601,0.328-3.871,0.371c-3.005,0.102-5.978,0.019-8.833,0.667"></path></g></svg>