<svg height='100px' width='100px'  fill="#000000" xmlns="http://www.w3.org/2000/svg" data-name="Layer 1" viewBox="0 0 64 64" x="0px" y="0px"><title>Artboard 37</title><path d="M59,5H5A1,1,0,0,0,4,6V36a1,1,0,0,0,1,1H27.68l-1.52,5.3-4.27,2.14A7.78,7.78,0,0,0,17.6,50.6L17.22,54a4,4,0,0,0,1.91,3.86l2.64,1.57a3.93,3.93,0,0,0,2.06.58H29a1,1,0,0,0,1-.77L32,50.63l3,8.7A1,1,0,0,0,36,60h4.76a4,4,0,0,0,2.82-1.16l2.12-2.12a4,4,0,0,0,1.13-3.26l-.37-3.38a7.85,7.85,0,0,0-5.06-6.5l-3.65-1.37L35.52,37H59a1,1,0,0,0,1-1V6A1,1,0,0,0,59,5ZM41,13.23a1,1,0,0,0-1.61-1l-3,2.54a12.54,12.54,0,0,0-4.17,6.68L29.4,31H15.93A7,7,0,0,0,10,25.07V16.93A7,7,0,0,0,15.93,11H48.07A7,7,0,0,0,54,16.93v8.14A7,7,0,0,0,48.07,31H36.73ZM28.21,58H23.83a2,2,0,0,1-1-.29l-2.65-1.58a2,2,0,0,1-.95-1.92l.38-3.39a5.86,5.86,0,0,1,3.21-4.6l4.66-2.33a1,1,0,0,0,.51-.61l2-7v0l.45-1.56L34.07,22a10.56,10.56,0,0,1,3.52-5.66l.74-.62-5,20.82h0L30.88,46.84v0Zm8.44-14.06,4.05,1.52a5.86,5.86,0,0,1,3.78,4.84l.37,3.38h0a2,2,0,0,1-.57,1.62l-2.12,2.12a2,2,0,0,1-1.4.58h-4L32.89,47l1.7-7.1,1.49,3.47A1,1,0,0,0,36.65,43.94ZM58,35H35.77l.48-2H49a1,1,0,0,0,1-1,5,5,0,0,1,5-5,1,1,0,0,0,1-1V16a1,1,0,0,0-1-1,5,5,0,0,1-5-5,1,1,0,0,0-1-1H15a1,1,0,0,0-1,1,5,5,0,0,1-5,5,1,1,0,0,0-1,1V26a1,1,0,0,0,1,1,5,5,0,0,1,5,5,1,1,0,0,0,1,1H28.83l-.41,1.44-.17.56H6V7H58Z"></path><path d="M27.49,46.14l-5,3a1,1,0,0,0-.46.62l-1,4A1,1,0,0,0,21.76,55l4,1A1,1,0,0,0,27,55.24l2-8a1,1,0,0,0-1.48-1.1Zm-2.22,7.65-2.06-.52.66-2.63,2.57-1.54Z"></path><path d="M35.06,47.35l3,8a1,1,0,0,0,.63.6A1.12,1.12,0,0,0,39,56a1,1,0,0,0,.55-.17l3-2a1,1,0,0,0,.43-1l-1-5A1,1,0,0,0,41.2,47l-5-1a1,1,0,0,0-1,.33A1,1,0,0,0,35.06,47.35Zm5.09,1.5.74,3.69-1.4.93-1.92-5.14Z"></path></svg>