<svg height='100px' width='100px'  fill="#000000" xmlns="http://www.w3.org/2000/svg" data-name="Layer 1" viewBox="0 0 64 64" x="0px" y="0px"><title>cooperation- participation- collaboration- teamwork- community</title><path d="M61,7H51a1,1,0,0,0-1,1V9H48.414L44.707,5.293A1,1,0,0,0,44,5H39V3a1,1,0,0,0-1-1H25a1,1,0,0,0-1,1V8.071A7.016,7.016,0,0,0,18.679,12H12V10a1,1,0,0,0-1.53-.848l-8,5a1,1,0,0,0,0,1.7l8,5A1,1,0,0,0,12,20V18h6.679A7.016,7.016,0,0,0,24,21.929V27a1,1,0,0,0,1,1H38a1,1,0,0,0,1-1V23H50v1a1,1,0,0,0,1,1H61a1,1,0,0,0,1-1V8A1,1,0,0,0,61,7ZM18.079,16H11a1,1,0,0,0-1,1v1.2L4.887,15,10,11.805V13a1,1,0,0,0,1,1h7.079a6.369,6.369,0,0,0,0,2ZM37,26H26V21a1,1,0,0,0-1-1,5,5,0,0,1,0-10,1,1,0,0,0,1-1V4H37v9.319l-1.579-.987a3.808,3.808,0,0,0-4.126,6.4l5.7,3.8Zm13-5H38.3l-5.9-3.93a1.816,1.816,0,0,1-.807-1.51,1.806,1.806,0,0,1,2.76-1.532l6.109,3.82,1.062-1.7L39,14.57V7h4.586l3.707,3.707A1,1,0,0,0,48,11h2Zm10,2H52V9h8Z"></path><path d="M61.53,42.152l-8-5A1,1,0,0,0,52,38v2H39.026A4.977,4.977,0,0,1,43,38a1,1,0,0,0,1-1V31a1,1,0,0,0-1-1H27a1,1,0,0,0-1,1V42H20a1,1,0,0,0-.707.293L15.586,46H14V45a1,1,0,0,0-1-1H3a1,1,0,0,0-1,1V61a1,1,0,0,0,1,1H13a1,1,0,0,0,1-1V60H26a1.006,1.006,0,0,0,.555-.168L32.3,56H43a1,1,0,0,0,1-1V49a1,1,0,0,0-1-1,4.977,4.977,0,0,1-3.974-2H52v2a1,1,0,0,0,1.53.848l8-5a1,1,0,0,0,0-1.7ZM12,47V60H4V46h8Zm19.6,7.066L25.7,58H14V48h2a1,1,0,0,0,.707-.293L20.414,44H26v6.945l-3.53,2.207,1.06,1.7,6.112-3.821A1.806,1.806,0,0,1,32.4,52.56,1.813,1.813,0,0,1,31.6,54.066ZM42,49.929V54H34.114a3.8,3.8,0,0,0-5.534-4.668L28,49.7V32H42v4.071a7,7,0,0,0,0,13.858ZM54,46.2V45a1,1,0,0,0-1-1H38.1a5,5,0,0,1,0-2H53a1,1,0,0,0,1-1v-1.2L59.113,43Z"></path></svg>