<svg height='100px' width='100px'  fill="#000000" xmlns="http://www.w3.org/2000/svg" viewBox="0 0 64 64" x="0px" y="0px"><title>a</title><g data-name="10 Necklace Healthcare"><path d="M45,53a1,1,0,1,0-.71-1.71,1.014,1.014,0,0,0,0,1.42A1.05,1.05,0,0,0,45,53Z"></path><path d="M57.528,16.517a8.3,8.3,0,0,0-1.538-.692l-4.654-1.662a1,1,0,0,0-.672,1.884l4.654,1.662c.285.1.509.191.682.268V24a1,1,0,0,0,2,0V17.366A1,1,0,0,0,57.528,16.517Z"></path><path d="M47.29,13.29a1.014,1.014,0,0,0,0,1.42,1,1,0,1,0,0-1.42Z"></path><path d="M34,27H33V26a1,1,0,0,0-2,0v1H30a1,1,0,0,0,0,2h1v1a1,1,0,0,0,2,0V29h1a1,1,0,0,0,0-2Z"></path><path d="M57.336,12.058l-9.5-3.393L43.394,7.079,42,6.382V1a1,1,0,0,0-1-1H23a1,1,0,0,0-1,1V6.385c-.671.339-1.08.55-1.344.7a1.019,1.019,0,0,0-.261.143c-.186.093-.974.445-4.118,1.556-2.364.835-5.592,1.935-9.593,3.269C5.525,12.438,2,13.612,2,17V28a1,1,0,0,0,1,1h9a.978.978,0,0,0,.166.52A7.936,7.936,0,0,0,14,33.287V63a1,1,0,0,0,1,1H49a1,1,0,0,0,1-1V33.287a7.936,7.936,0,0,0,1.834-3.767A.978.978,0,0,0,52,29h9a1,1,0,0,0,1-1V17C62,13.724,58.612,12.514,57.336,12.058ZM29,32a1,1,0,0,1-1-1V25a1,1,0,0,1,1-1h6a1,1,0,0,1,1,1v6a1,1,0,0,1-1,1ZM20.789,9.24l10.48,11.228L32.7,22H29.435L18.38,10.156C19.525,9.743,20.282,9.456,20.789,9.24Zm22.494-.078,2.447.875-1.6,1.718L35,21.534l-1.632-1.748,1.906-2.042ZM23.45,7.893A1,1,0,0,0,24,7V2H40V7a1,1,0,0,0,.553.895l.8.4-3.377,3.619L32,18.32,22.646,8.3ZM60,27H52V24a1,1,0,0,0-2,0v4a6.008,6.008,0,0,1-6,6,1,1,0,0,0,0,2,7.922,7.922,0,0,0,4-1.079V62H46V56a1,1,0,0,0-2,0v6H16V34.921A7.922,7.922,0,0,0,20,36a1,1,0,0,0,0-2,6.008,6.008,0,0,1-6-6V24a1,1,0,0,0-2,0v3H4V17c0-.906.377-2.072,3.316-3.051,3.675-1.225,6.7-2.255,9.009-3.064l10.916,11.7A2.989,2.989,0,0,0,26,25v2H20a1,1,0,0,1-1-1V22.816a3,3,0,1,0-2,0V26a3,3,0,0,0,3,3h6v2a3,3,0,0,0,3,3V45a1,1,0,0,1-1,1H26.815a3,3,0,1,0,0,2H28a3,3,0,0,0,3-3V34h2v6a3,3,0,0,0,3,3h1.185a3,3,0,1,0,0-2H36a1,1,0,0,1-1-1V34a3,3,0,0,0,3-3h3a3,3,0,0,0,3-3v-.184a3,3,0,1,0-2,0V28a1,1,0,0,1-1,1H38V25a2.989,2.989,0,0,0-1.241-2.419L47.783,10.77l8.881,3.172C59.033,14.788,60,15.674,60,17ZM18,21a1,1,0,1,1,1-1A1,1,0,0,1,18,21Zm7,26a1,1,0,1,1-1-1A1,1,0,0,1,25,47Zm14-5a1,1,0,1,1,1,1A1,1,0,0,1,39,42Zm4-16a1,1,0,1,1,1-1A1,1,0,0,1,43,26Z"></path></g></svg>