<svg height='100px' width='100px'  fill="#000000" xmlns:x="http://ns.adobe.com/Extensibility/1.0/" xmlns:i="http://ns.adobe.com/AdobeIllustrator/10.0/" xmlns:graph="http://ns.adobe.com/Graphs/1.0/" xmlns="http://www.w3.org/2000/svg" xmlns:xlink="http://www.w3.org/1999/xlink" version="1.1" x="0px" y="0px" viewBox="0 0 100 100" enable-background="new 0 0 100 100" xml:space="preserve"><g><g i:extraneous="self"><g display="none"><path display="inline" fill="#000000" stroke="#000000" stroke-width="4" stroke-miterlimit="10" d="M14.6,2C7.6,2,2,7.7,2,14.6     v70.8C2,92.4,7.6,98,14.6,98h70.8C92.4,98,98,92.4,98,85.4V14.6C98,7.7,92.4,2,85.4,2H14.6z"></path><rect x="14" y="14" display="inline" fill="#000000" stroke="#000000" stroke-miterlimit="10" width="72" height="72"></rect></g><g><path d="M33,52c0,3.3-2.7,6-6,6s-6-2.7-6-6s2.7-6,6-6S33,48.7,33,52"></path><path d="M54.5,71h-9.6L43,68.1l-1.3-1.9l-1.9-3C38.8,61.4,36.9,60,34,60l-13,0c-5,0-7,4-7,7l0,15l22,0l0-14l1,0l4.4,6.8     c0,0,0,0.1,0.1,0.1l0,0l0,0c0.5,0.6,1.2,1,2,1h11c1.4,0,2.5-1.1,2.5-2.5C57,72.1,55.9,71,54.5,71z"></path><path d="M86,60H42V16h44V60z M44,58h40V18H44V58z"></path><path d="M59.7,31.5c0,0,0-0.1-0.1-0.1l-2.9-3.7V23c0.6,0,1-0.4,1-1s-0.4-1-1-1h-6c-0.6,0-1,0.4-1,1s0.4,1,1,1v4.7l-2.9,3.7     c0,0-0.1,0.1-0.1,0.1c-0.4,0.7-0.4,1.6,0,2.4c0.4,0.7,1.2,1.2,2,1.2h8c0.9,0,1.6-0.4,2-1.2C60.1,33.1,60.1,32.2,59.7,31.5z      M54.7,23v5c0,0.2,0.1,0.4,0.2,0.6L56,30h-4.6l1.1-1.4c0.1-0.2,0.2-0.4,0.2-0.6v-5H54.7z"></path><path d="M61,49v-2h-2.1c-0.1-0.6-0.4-1.2-0.7-1.8l1.5-1.5l-1.4-1.4l-1.5,1.5c-0.5-0.3-1.1-0.6-1.8-0.7V41h-2v2.1     c-0.6,0.1-1.2,0.4-1.8,0.7l-1.5-1.5l-1.4,1.4l1.5,1.5c-0.3,0.5-0.6,1.1-0.7,1.8H47v2h2.1c0.1,0.6,0.4,1.2,0.7,1.8l-1.5,1.5     l1.4,1.4l1.5-1.5c0.5,0.3,1.1,0.6,1.8,0.7V55h2v-2.1c0.6-0.1,1.2-0.4,1.8-0.7l1.5,1.5l1.4-1.4l-1.5-1.5c0.3-0.5,0.6-1.1,0.7-1.8     H61z M53.9,50c-1.1,0-2-0.9-2-2c0-1.1,0.9-2,2-2s2,0.9,2,2C55.9,49.1,55,50,53.9,50z"></path><path d="M80.1,44v-2h-9.9c0,0-2.3,0-3,3.2c0,0-0.1,0.6,0.4,0.4c0.7-0.2,0.5-2,3.3-1.7c0,0,0.3,5.9-2.3,8.5c0,0-1.1,0.9,0.1,1.7     c0.6,0.5,2.6-0.2,3.4-2.2c0.9-2.5,1-8,1-8l1.9,0c0,0-1.9,10.5,2.5,10.5c2.2,0,2.7-3.9,2.7-3.9l-0.4,0c0,0-1.3,3-2.4,1.5     c-1.5-2-0.4-8-0.4-8L80.1,44L80.1,44z"></path><g><path d="M64.3,26.5l1.4,1.4c3.9-3.9,10.2-3.9,14,0l1.4-1.4C76.5,21.8,68.9,21.8,64.3,26.5z"></path><path d="M67.3,29l1.4,1.4c1.1-1.1,2.5-1.7,4-1.7s3,0.6,4,1.7l1.4-1.4C75.2,25.9,70.3,25.9,67.3,29z"></path><circle cx="72.7" cy="32.2" r="2"></circle></g></g></g></g></svg>