<svg height='100px' width='100px'  fill="#000000" xmlns:x="http://ns.adobe.com/Extensibility/1.0/" xmlns:i="http://ns.adobe.com/AdobeIllustrator/10.0/" xmlns:graph="http://ns.adobe.com/Graphs/1.0/" xmlns="http://www.w3.org/2000/svg" xmlns:xlink="http://www.w3.org/1999/xlink" version="1.1" x="0px" y="0px" viewBox="0 0 100 100" style="enable-background:new 0 0 100 100;" xml:space="preserve"><g><g i:extraneous="self"><path d="M96.4,91c-3.9-3.1-10-5.7-17.7-7.6L88,16.1c0.4-3.1-1.8-6-4.9-6.5L40.3,3.7c-3.1-0.4-6,1.8-6.5,4.9L23.6,82.8    c-8.7,1.9-15.8,4.8-20,8.2c-2.4,1.9-0.8,5.7,2.3,5.3c13-1.7,27.7-2.7,43.2-2.7l8.4-9c0.2-0.2,0.2-0.4,0.1-0.6l-4.7-10.2    c-0.1-0.2,0-0.5,0.1-0.6l8.6-8c0.1-0.1,0.2-0.3,0.2-0.5l-0.8-7.1c-0.1-0.6,0.7-0.9,1-0.4l4.8,7.8c0.1,0.2,0.1,0.4,0,0.6l-5.5,8.4    c-0.1,0.2-0.1,0.4,0,0.6l6.2,12.7c0.1,0.2,0.1,0.4,0,0.6l-4.2,5.9c11,0.4,21.3,1.2,30.8,2.5C97.1,96.7,98.7,92.9,96.4,91z     M48.3,64.8c-0.1,0.9-0.9,1.5-1.8,1.4l-7-1c-0.9-0.1-1.5-0.9-1.4-1.8l1-7c0.1-0.9,0.9-1.5,1.8-1.4l7,1c0.9,0.1,1.5,0.9,1.4,1.8    L48.3,64.8z M50.9,45.7c-0.1,0.9-0.9,1.5-1.8,1.4l-7-1c-0.9-0.1-1.5-0.9-1.4-1.8l1-7c0.1-0.9,0.9-1.5,1.8-1.4l7,1    c0.9,0.1,1.5,0.9,1.4,1.8L50.9,45.7z M53.6,26.6c-0.1,0.9-0.9,1.5-1.8,1.4l-7-1c-0.9-0.1-1.5-0.9-1.4-1.8l1-7    c0.1-0.9,0.9-1.5,1.8-1.4l7,1c0.9,0.1,1.5,0.9,1.4,1.8L53.6,26.6z M71.7,48.6c-0.1,0.9-0.9,1.5-1.8,1.4l-7-1    c-0.9-0.1-1.5-0.9-1.4-1.8l1-7c0.1-0.9,0.9-1.5,1.8-1.4l7,1c0.9,0.1,1.5,0.9,1.4,1.8L71.7,48.6z M74.3,29.5    c-0.1,0.9-0.9,1.5-1.8,1.4l-7-1c-0.9-0.1-1.5-0.9-1.4-1.8l1-7c0.1-0.9,0.9-1.5,1.8-1.4l7,1c0.9,0.1,1.5,0.9,1.4,1.8L74.3,29.5z"></path></g></g></svg>