<svg height='100px' width='100px'  fill="#000000" xmlns="http://www.w3.org/2000/svg" xmlns:xlink="http://www.w3.org/1999/xlink" version="1.1" x="0px" y="0px" viewBox="0 0 100 100" enable-background="new 0 0 100 100" xml:space="preserve"><g display="none"><polygon display="inline" opacity="0.3" fill-rule="evenodd" clip-rule="evenodd" points="54.975,87.668 56.995,84.476    57.125,83.977 56.939,81.694 58.635,79.935 58.635,75.959 59.959,71.594 59.829,66.489 60.97,65.794 60.97,62.003 61.762,58.039    61.643,55.398 62.315,47.807 61.013,48.23 58.873,48.23 55.983,49.74 54.344,48.111 55.093,42.702 55.093,34.513 54.095,32.754    54.975,27.974 59.124,27.974 59.504,30.743 61.263,30.993 63.358,29.114 63.273,27.104 63.717,27.137 62.926,25.584 62.229,22.554    63.24,17.372 64.055,12.963 65.02,10.899 63.273,10.986 61.382,14.635 55.854,14.767 53.747,14.354 50.021,18.546 48.707,31.231    43.678,41.29 38.27,48.556 40.203,49.425 43.625,54.476 45.438,60.949 50.379,68.422 54.214,77.503 52.693,81.748  "></polygon></g><g display="none"><path display="inline" d="M13.714,19.099v-3.602h0.475v3.602H13.714L13.714,19.099z M14.862,17.94l0.453-0.04   c0.023,0.183,0.07,0.325,0.15,0.444c0.079,0.119,0.198,0.206,0.357,0.277c0.166,0.072,0.348,0.104,0.555,0.104   c0.182,0,0.341-0.023,0.476-0.08c0.143-0.055,0.245-0.127,0.31-0.222c0.07-0.087,0.103-0.198,0.103-0.31   c0-0.11-0.032-0.205-0.095-0.293c-0.063-0.088-0.175-0.15-0.325-0.214c-0.095-0.032-0.31-0.095-0.643-0.175   c-0.325-0.079-0.556-0.15-0.69-0.223c-0.174-0.086-0.301-0.197-0.38-0.332c-0.087-0.135-0.127-0.285-0.127-0.444   c0-0.19,0.048-0.349,0.15-0.508c0.103-0.158,0.254-0.285,0.452-0.364c0.198-0.08,0.42-0.119,0.658-0.119   c0.27,0,0.5,0.039,0.706,0.127c0.206,0.087,0.356,0.214,0.468,0.373c0.111,0.174,0.166,0.364,0.174,0.57l-0.451,0.031   c-0.023-0.222-0.104-0.396-0.246-0.507c-0.143-0.119-0.357-0.175-0.627-0.175c-0.293,0-0.499,0.048-0.634,0.158   c-0.127,0.104-0.198,0.23-0.198,0.381c0,0.127,0.055,0.23,0.143,0.318c0.096,0.078,0.333,0.166,0.714,0.253   c0.388,0.087,0.658,0.167,0.801,0.229c0.206,0.096,0.364,0.215,0.46,0.365c0.104,0.15,0.15,0.325,0.15,0.516   s-0.055,0.365-0.166,0.539c-0.104,0.166-0.262,0.301-0.469,0.396c-0.205,0.088-0.436,0.143-0.689,0.143   c-0.325,0-0.603-0.055-0.824-0.143c-0.215-0.096-0.389-0.238-0.516-0.428C14.942,18.4,14.871,18.179,14.862,17.94L14.862,17.94z    M18.384,19.099v-3.602h1.594c0.317,0,0.563,0.032,0.73,0.104c0.166,0.063,0.301,0.175,0.396,0.342   c0.103,0.158,0.15,0.349,0.15,0.539c0,0.254-0.08,0.468-0.246,0.65c-0.166,0.174-0.42,0.277-0.77,0.332   c0.127,0.057,0.223,0.111,0.294,0.175c0.135,0.127,0.27,0.286,0.388,0.476l0.627,0.984h-0.595l-0.476-0.754   c-0.143-0.215-0.254-0.381-0.35-0.5c-0.086-0.111-0.166-0.189-0.237-0.237s-0.143-0.079-0.214-0.095   c-0.056-0.009-0.143-0.017-0.27-0.017H18.86v1.603H18.384L18.384,19.099z M18.86,17.084h1.022c0.214,0,0.38-0.017,0.507-0.063   c0.127-0.048,0.215-0.119,0.278-0.223c0.063-0.095,0.095-0.197,0.095-0.316c0-0.167-0.062-0.31-0.182-0.42   c-0.127-0.104-0.318-0.168-0.588-0.168H18.86V17.084L18.86,17.084z M21.604,19.099l1.38-3.602h0.516l1.467,3.602h-0.539   l-0.42-1.095h-1.508l-0.388,1.095H21.604L21.604,19.099z M22.643,17.623h1.214l-0.373-0.999c-0.111-0.302-0.199-0.555-0.254-0.746   c-0.048,0.23-0.111,0.461-0.198,0.69L22.643,17.623L22.643,17.623z M25.354,19.099v-3.602h2.602v0.429h-2.125v1.095h1.99v0.428   h-1.99v1.222h2.204v0.429H25.354L25.354,19.099z M28.677,19.099v-3.602h0.469v3.173h1.775v0.429H28.677z"></path></g><g><path fill="none" stroke="#000000" stroke-linecap="round" stroke-linejoin="round" stroke-miterlimit="10" d="M40.25,47.5   c0.004-0.11,0.881-2.28,1.318-3.4c0.57-1.46,1.126-2.437,2.188-3.343c1.2-1.023,1.98-1.181,2.513-2.738   c0.612-1.789,0.396-2.701,1.206-4.213c1.657-3.092,1.272-5.104,1.275-8.576c0.003-3.128,0.501-4.646,2.487-7.011   c0.224,0.154,0.49,0.268,0.725,0.451c-0.162-1.879,1.525-3.31,2.994-4.145c0.351,1.16,1.3,1.323,2.05,0.241   c0.929,0.311,1.974,0.354,2.938,0.039c1.978-0.645,0.881-0.834,1.806-2.312c1.119-1.789,2.104-1.991,4.443-2.707   c-0.985,2.305-2.457,3.612-2.943,5.963c-0.281,1.358-0.128,2.79-0.056,4.056c0.164,2.894-1.139,6.312-0.233,8.907   c-2.07,0.212-0.252,3.536-2.96,3.036c-2.167-0.399-0.242-3.453-2.714-3.211c-0.081,0.232-0.004,0.438-0.074,0.674   c-0.407-0.268-1.008-0.201-1.457-0.742c-1.922,1.147-0.352,3.374-0.25,5.03c0.143,2.32-0.759,4.01-1.197,5.944   c-0.06,0.26-0.047,1.846-0.07,2.306c-0.047,0.896-0.249,1.973-0.238,2.806c0.022,1.795,0.921,3.473,0.788,5.406   c0.356,0.089,0.814,0.085,1.174,0.013c-0.046-0.42,0.16-0.992,0.076-1.404c0.454,0.396,1.336,0.568,1.924,0.904   c-0.005-0.296,0.06-0.635,0.077-0.931c0.598-0.282,4.111-0.906,4.218-0.854c1.88,0.928-0.289,3.208-0.506,4.559   c-0.553,3.441,0.121,7.513,0.061,10.89c-0.04,2.204-1.251,2.265-1.823,3.862c-0.518,1.443,0.366,3.674,0.274,4.986   c-0.232,3.334-1.848,6.183-2.057,9.73c-0.239-0.089-0.654-0.108-0.899-0.186c-0.697,1.611-0.088,5.793-2.513,5.929   c-0.49-2.457-3.154-4.314-2.806-7.135c0.4,0.323,0.614,0.204,0.975,0.39c-0.177-1.594,0.801-2.224,0.799-3.467   c-0.001-1.299-0.868-3.058-1.318-4.225c-0.743-1.926-1.726-3.792-2.694-5.499c-0.847-1.492-3.21-3.291-3.711-4.776   c-0.492-1.455,0.346-2.988-0.031-4.444c-0.304-1.174-1.178-2.242-1.751-3.293c-1.014-1.86-4.638-4.846-4.694-6.742L40.25,47.5z"></path></g></svg>