<svg height='100px' width='100px'  fill="#000000" xmlns="http://www.w3.org/2000/svg" data-name="Layer 1" viewBox="0 0 64 64" x="0px" y="0px"><title>training-man- nurture- culture- tuition- inculcation</title><path d="M61,2H13a1,1,0,0,0-1,1V16.09A5.993,5.993,0,0,0,7.705,27.009,5.882,5.882,0,0,0,2,32.879v8.149a1,1,0,0,0,.563.9l1.437.7V51a1,1,0,0,0,1,1H17a1,1,0,0,0,1-1V42.626l1.437-.7a1,1,0,0,0,.563-.9V36H61a1,1,0,0,0,1-1V3A1,1,0,0,0,61,2ZM7,22a4,4,0,1,1,4,4A4,4,0,0,1,7,22ZM18.5,32.821a1,1,0,0,0-.5.865V40.4l-1.437.7A1,1,0,0,0,16,42v8H6V42a1,1,0,0,0-.563-.9L4,40.4V32.879A3.883,3.883,0,0,1,7.879,29H18a.986.986,0,0,0,.414-.09l7.772-3.533A1.283,1.283,0,0,1,28,26.545a1.284,1.284,0,0,1-.638,1.108ZM60,34H20.446l7.924-4.618a3.283,3.283,0,0,0-3.012-5.825L17.783,27H14.31A5.989,5.989,0,0,0,14,16.812V4H60Z"></path><rect x="40" y="9" width="18" height="2"></rect><rect x="32" y="15" width="26" height="2"></rect><rect x="32" y="22" width="26" height="2"></rect><rect x="32" y="29" width="26" height="2"></rect><path d="M20,59.8V61a1,1,0,0,0,1,1H39a1,1,0,0,0,1-1V59.8a7.815,7.815,0,0,0-6.17-7.629A4.955,4.955,0,0,0,35,49a5,5,0,0,0-10,0,4.955,4.955,0,0,0,1.17,3.175A7.815,7.815,0,0,0,20,59.8ZM30,46a3,3,0,1,1-3,3A3,3,0,0,1,30,46Zm-2.2,8H32.2A5.811,5.811,0,0,1,38,59.8V60H22v-.2A5.811,5.811,0,0,1,27.8,54Z"></path><path d="M55.83,52.175A4.955,4.955,0,0,0,57,49a5,5,0,0,0-10,0,4.955,4.955,0,0,0,1.17,3.175A7.815,7.815,0,0,0,42,59.8V61a1,1,0,0,0,1,1H61a1,1,0,0,0,1-1V59.8A7.815,7.815,0,0,0,55.83,52.175ZM52,46a3,3,0,1,1-3,3A3,3,0,0,1,52,46Zm8,14H44v-.2A5.811,5.811,0,0,1,49.8,54H54.2A5.811,5.811,0,0,1,60,59.8Z"></path></svg>