<svg height='100px' width='100px'  fill="#000000" xmlns="http://www.w3.org/2000/svg" x="0px" y="0px" viewBox="0 0 100 100"><path d="m50 7c-8.824711 0-16 7.17529-16 16 0 .339506.041574.665692.0625 1h-12.0625a1.0001 1.0001 0 0 0 -.1875 0 1.0001 1.0001 0 0 0 -.8125 1v67a1.0001 1.0001 0 0 0 1 1h22.8125 10.34375 22.84375a1.0001 1.0001 0 0 0 1-1v-13a1.0001 1.0001 0 1 0 -2 0v12h-21v-15a1.0001 1.0001 0 0 0 -.8125-1 1.0001 1.0001 0 0 0 -.1875 0h-10a1.0001 1.0001 0 0 0 -1 1v15h-21v-65h11.28125c1.409967 7.391882 7.921369 13 15.71875 13s14.308783-5.608118 15.71875-13h11.28125v47a1.0001 1.0001 0 1 0 2 0v-48a1.0001 1.0001 0 0 0 -1-1h-12.0625c.020926-.334308.0625-.660494.0625-1 0-8.82471-7.175289-16-16-16zm0 2.1875a1.0001 1.0001 0 0 0 .28125.5c1.173639 1.208164 2.444291 3.435651 3.15625 7.3125h-6.875c.711959-3.876849 1.982611-6.104336 3.15625-7.3125a1.0001 1.0001 0 0 0 .28125-.5zm-2.5.03125c-1.240287 1.641278-2.379647 4.136338-3 7.78125h-7.15625c1.898328-4.012191 5.652689-6.968981 10.15625-7.78125zm5 0c4.503561.812269 8.257922 3.769059 10.15625 7.78125h-7.15625c-.620353-3.644912-1.759713-6.139972-3-7.78125zm-15.90625 9.78125h7.65625c-.132559 1.225164-.228767 2.505757-.25 3.96875a1.0001 1.0001 0 0 0 0 .03125c.021233 1.462993.117441 2.774836.25 4h-7.65625c-.378924-1.271727-.59375-2.603556-.59375-4s.214826-2.728273.59375-4zm9.6875 0h7.4375c.137685 1.20176.258686 2.487194.28125 3.96875.00018.0118-.000172.01945 0 .03125-.022657 1.487647-.142581 2.794395-.28125 4h-7.4375c-.138669-1.205604-.258593-2.512353-.28125-4-.00018-.0118.000172-.01945 0-.03125.022564-1.481556.143565-2.76699.28125-3.96875zm9.46875 0h7.65625c.378924 1.271727.59375 2.603556.59375 4s-.214826 2.728273-.59375 4h-7.65625c.132559-1.225164.228767-2.537007.25-4a1.0001 1.0001 0 0 0 0-.03125c-.021233-1.462993-.117441-2.743586-.25-3.96875zm-18.40625 10h7.1875c.620817 3.637278 1.730036 6.142054 2.96875 7.78125-4.503561-.812269-8.257922-3.769059-10.15625-7.78125zm9.21875 0h6.875c-.712443 3.868934-1.98389 6.074403-3.15625 7.28125a1.0054782 1.0054782 0 0 0 -.28125.53125 1.0054782 1.0054782 0 0 0 -.28125-.53125c-1.17236-1.206812-2.443807-3.41232-3.15625-7.28125zm8.90625 0h7.1875c-1.898328 4.012191-5.652689 6.968981-10.15625 7.78125 1.238714-1.639174 2.347933-4.143974 2.96875-7.78125zm-25.53125 16a1.0001 1.0001 0 0 0 -.9375 1v22a1.0001 1.0001 0 0 0 1 1h40a1.0001 1.0001 0 0 0 1-1v-22a1.0001 1.0001 0 0 0 -.8125-1 1.0001 1.0001 0 0 0 -.1875 0h-40a1.0001 1.0001 0 0 0 -.0625 0zm1.0625 2h11v9h-11zm13 0h12v9h-12zm14 0h11v9h-11zm-27 11h11v9h-11zm13 0h12v9h-12zm14 0h11v9h-11zm-12 19h8v14h-8z"></path></svg>