<svg height='100px' width='100px'  fill="#000000" xmlns="http://www.w3.org/2000/svg" xmlns:xlink="http://www.w3.org/1999/xlink" version="1.1" x="0px" y="0px" viewBox="0 0 64 64" style="enable-background:new 0 0 64 64;" xml:space="preserve"><g><path d="M60.808,1l-4.812,1.923l-5.004-2l-5.001,2l-4.997-2l-4.999,2l-4.998-2l-4.998,2L21.192,1H19v25.003   C17.46,25.359,15.771,25,14,25C6.832,25,1,30.832,1,38s5.832,13,13,13c1.771,0,3.46-0.359,5-1.003V53h-8v5c0,2.757,2.243,5,5,5h42   c2.757,0,5-2.243,5-5V1H60.808z M3,38c0-6.065,4.935-11,11-11s11,4.935,11,11s-4.935,11-11,11S3,44.065,3,38z M16,61   c-1.654,0-3-1.346-3-3v-3h40v3c0,1.125,0.373,2.164,1.002,3H16z M45,53V41.445l4-3.6V53H45z M43,53h-4V37.414l4,4V53z M37,53h-4   V41.414l4-4V53z M31,53h-4v-5.586l4-4V53z M61,58c0,1.654-1.346,3-3,3s-3-1.346-3-3v-5h-4V36.045l2.964-2.667l3.743,3.743   l1.472-10.3l-10.3,1.472l3.669,3.669l-8.512,7.66L38,33.586l-13,13V53h-4v-4.063c3.602-2.314,6-6.347,6-10.937   s-2.398-8.623-6-10.937V3.077l4.998,2l4.998-2l4.998,2l4.999-2l4.997,2l5.001-2l5.004,2l5.005-2V58z M53.121,29.707l3.7-0.528   l-0.528,3.7L53.121,29.707z"></path><path d="M23,25h36V7H23V25z M25,13h6v10h-6V13z M43,13v10h-4V13H43z M45,13h4v10h-4V13z M33,11V9h16v2H33z M37,13v10h-4V13H37z    M51,23V13h6v10H51z M57,11h-6V9h6V11z M31,9v2h-6V9H31z"></path><path d="M14,33c1.103,0,2,0.897,2,2h2c0-1.858-1.279-3.411-3-3.858V29h-2v2h-3v4c0,2.206,1.794,4,4,4c1.103,0,2,0.897,2,2v2h-2   c-1.103,0-2-0.897-2-2h-2c0,1.858,1.279,3.411,3,3.858V47h2v-2h3v-4c0-2.206-1.794-4-4-4c-1.103,0-2-0.897-2-2v-2H14z"></path><circle cx="22" cy="38" r="1"></circle><circle cx="6" cy="38" r="1"></circle><rect x="15" y="57" width="2" height="2"></rect><rect x="19" y="57" width="2" height="2"></rect><rect x="23" y="57" width="2" height="2"></rect><rect x="57" y="57" width="2" height="2"></rect><rect x="57" y="53" width="2" height="2"></rect><rect x="57" y="49" width="2" height="2"></rect></g></svg>