<svg height='100px' width='100px'  fill="#000000" xmlns:dc="http://purl.org/dc/elements/1.1/" xmlns:cc="http://creativecommons.org/ns#" xmlns:rdf="http://www.w3.org/1999/02/22-rdf-syntax-ns#" xmlns:svg="http://www.w3.org/2000/svg" xmlns="http://www.w3.org/2000/svg" xmlns:sodipodi="http://sodipodi.sourceforge.net/DTD/sodipodi-0.dtd" xmlns:inkscape="http://www.inkscape.org/namespaces/inkscape" viewBox="0 0 100 100" version="1.1" x="0px" y="0px"><g transform="translate(0,-952.36216)"><path style="color:#000000;font-style:normal;font-variant:normal;font-weight:normal;font-stretch:normal;font-size:medium;line-height:normal;font-family:sans-serif;text-indent:0;text-align:start;text-decoration:none;text-decoration-line:none;text-decoration-style:solid;text-decoration-color:#000000;letter-spacing:normal;word-spacing:normal;text-transform:none;direction:ltr;block-progression:tb;writing-mode:lr-tb;baseline-shift:baseline;text-anchor:start;white-space:normal;clip-rule:nonzero;display:inline;overflow:visible;visibility:visible;opacity:1;isolation:auto;mix-blend-mode:normal;color-interpolation:sRGB;color-interpolation-filters:linearRGB;solid-color:#000000;solid-opacity:1;fill:#000000;fill-opacity:1;fill-rule:evenodd;stroke:none;stroke-width:8;stroke-linecap:round;stroke-linejoin:round;stroke-miterlimit:4;stroke-dasharray:none;stroke-dashoffset:0;stroke-opacity:1;color-rendering:auto;image-rendering:auto;shape-rendering:auto;text-rendering:auto;enable-background:accumulate" d="m 78.415751,966.54394 -4.69102,0.084 a 0.73891967,0.73891967 0 0 0 -0.725139,0.7659 l 0.05628,1.5246 -3.618467,0.1393 a 0.73891967,0.73891967 0 0 0 -0.494248,1.2605 l 1.681523,1.6815 -0.303041,3.2566 a 0.73891967,0.73891967 0 0 0 0.116165,0.4708 l 0.746422,1.1484 -4.057879,3.6819 a 0.73891967,0.73891967 0 0 0 -0.171363,0.2309 l -0.709624,1.4983 -3.919706,4.4684 -3.020683,0.211 -4.385454,-3.3493 a 0.73891967,0.73891967 0 0 0 -0.167033,-0.096 l -2.848238,-1.1724 a 0.73891967,0.73891967 0 0 0 -0.674268,0.057 l -2.931933,1.8432 a 0.73891967,0.73891967 0 0 0 -0.345613,0.6255 l 0,1.9417 -2.947086,0 a 0.73891967,0.73891967 0 0 0 -0.553052,0.2489 l -2.381045,2.6881 -4.644122,0.072 -1.212891,-1.727 a 0.73891967,0.73891967 0 0 0 -0.573254,-0.3135 l -6.930287,-0.2962 a 0.73891967,0.73891967 0 0 0 -0.437608,0.1208 l -1.943078,1.2786 -2.662442,-0.951 -0.763017,-1.8305 a 0.73891967,0.73891967 0 0 0 -0.08767,-0.1551 l -1.954983,-2.6448 -0.67499,-1.7436 a 0.73891967,0.73891967 0 0 0 -0.832645,-0.4581 l -6.574934,1.303 a 0.73891967,0.73891967 0 0 0 -0.548001,0.4654 l -0.355353,0.9478 a 0.73891967,0.73891967 0 0 0 -0.04401,0.1926 l -0.05015,0.5491 -0.449151,1.1681 -0.858259,0.4066 a 0.73891967,0.73891967 0 0 0 -0.411994,0.5437 l -0.4192083,2.4626 -0.555216,0.3571 a 0.73891967,0.73891967 0 0 0 -0.337676,0.5722 l -0.05087,0.7627 -0.305568,0.7132 a 0.73891967,0.73891967 0 0 0 -0.05989,0.2911 l 0,1.9814 -2.091713,1.0956 a 0.73891967,0.73891967 0 0 0 -0.356075,0.4145 l -0.238826,0.6948 a 0.73891967,0.73891967 0 0 0 0.115445,0.6938 l -0.09741,-0.1256 -0.398645,0.4189 a 0.73891967,0.73891967 0 0 0 -0.200945,0.4427 l -0.06277,0.6912 a 0.73891967,0.73891967 0 0 0 0.18435,0.5584 l 0.85862,0.9633 a 0.73891967,0.73891967 0 0 0 0.612939,0.2446 l 1.178978,-0.098 0.513729,0.48546 a 0.73891967,0.73891967 0 0 0 0.695554,0.1772 l 0.9809193,-0.258 0.733074,0.2443 0.246041,0.5743 a 0.73891967,0.73891967 0 0 0 0.183268,0.2572 l 0.852126,0.7706 0.56135,0.6216 a 0.73891967,0.73891967 0 0 0 0.568925,0.2435 l 0.390708,-0.011 0.473684,0.5801 0.0065,0.052 -0.687257,0.5584 a 0.73891967,0.73891967 0 0 0 -0.224756,0.8356 l 0.230168,0.6071 a 0.73891967,0.73891967 0 0 0 0.348137,0.3925 l 0.682206,0.3576 0.35355,0.6425 a 0.73891967,0.73891967 0 0 0 0.320358,0.3063 l 1.640036,0.8095 3.352585,1.8403 0.329017,1.1281 a 0.73891967,0.73891967 0 0 0 0.36329,0.4459 l 1.739607,0.9221 -0.529242,0.802 a 0.73891967,0.73891967 0 0 0 -0.112198,0.5281 l 0.118331,0.7111 a 0.73891967,0.73891967 0 0 0 0.336233,0.5044 l 1.251131,0.7846 -0.165591,0.4824 a 0.73891967,0.73891967 0 0 0 0.418848,0.9232 l 2.45861,1.0069 a 0.73891967,0.73891967 0 0 0 0.05917,0.022 l -0.07937,-0.025 0.01082,0.1826 a 0.73891967,0.73891967 0 0 0 0.572172,0.6753 l 1.219384,0.28 0.877741,0.3575 0.574697,0.8048 0.164148,0.3283 -0.30701,1.1761 a 0.73891967,0.73891967 0 0 0 0.0202,0.438 l 0.356075,0.9842 a 0.73891967,0.73891967 0 0 0 0.09344,0.1782 l 0.418848,0.5866 a 0.73891967,0.73891967 0 0 0 0.191566,0.1851 l 0.436525,0.2911 0.02381,0.1187 a 0.73891967,0.73891967 0 0 0 0.288251,0.4502 l 0.0487,-0.2265 a 0.73891967,0.73891967 0 0 0 -0.0087,0.255 0.73891967,0.73891967 0 0 0 0.02561,0.015 l -0.02525,-0.015 a 0.73891967,0.73891967 0 0 0 0.152603,0.3593 l 0.900468,1.131 a 0.73891967,0.73891967 0 0 0 0.628813,0.2767 l 0.186515,-0.013 0.22187,0.3229 a 0.73891967,0.73891967 0 0 0 0.356436,0.2756 l 0.05989,0.022 0.0285,0.1627 -0.08153,0.4575 a 0.73891967,0.73891967 0 0 0 0.260833,0.7027 l 0.900468,0.7331 a 0.73891967,0.73891967 0 0 0 0.556659,0.1602 l 0.386019,-0.047 0,0 a 0.73891967,0.73891967 0 0 0 0.260111,0.5444 l 0.418848,0.356 a 0.73891967,0.73891967 0 0 0 0.452759,0.1747 l 0.689783,0.4177 a 0.73891967,0.73891967 0 0 0 0.43436,0.105 l 0.476931,-0.033 0.117249,0.1725 a 0.73891967,0.73891967 0 0 0 0.598868,0.3232 l 0.598147,0.01 a 0.73891967,0.73891967 0 0 0 0.5848,-0.272 l 0.514089,-0.6306 0.799455,-0.2587 a 0.73891967,0.73891967 0 0 0 0.466829,-0.4502 l 0.06169,-0.1696 a 0.73891967,0.73891967 0 0 0 0.531405,0.2114 l 1.333386,-0.025 1.493204,1.0216 a 0.73891967,0.73891967 0 0 0 0.928247,-0.076 l 1.39183,-1.3326 a 0.73891967,0.73891967 0 0 0 0.133121,-0.1714 l 0.469356,-0.8341 1.322201,0.6021 -0.0267,0.08 a 0.73891967,0.73891967 0 0 0 -0.03752,0.2594 l 0.02958,0.8586 a 0.73891967,0.73891967 0 0 0 0.805227,0.7107 l 0.306649,-0.028 a 0.73891967,0.73891967 0 0 0 0.457089,0.8403 l 0.466108,0.1793 0.147913,0.3777 a 0.73891967,0.73891967 0 0 0 0.578306,0.4614 l 0.185072,0.028 0.01551,0.036 a 0.73891967,0.73891967 0 0 0 0.12302,0.1952 l 0.231612,0.2648 0,0.1963 a 0.73891967,0.73891967 0 0 0 0.937988,0.7117 l 0.187237,-0.053 -0.134926,-0.2345 a 0.73891967,0.73891967 0 0 0 0.488475,0.3546 l 0.128072,0.027 0.06385,0.084 a 0.73891967,0.73891967 0 0 0 0.812802,0.2576 l -0.105343,0.033 0.07215,0.048 a 0.73891967,0.73891967 0 0 0 0.28356,0.1108 l 0.144668,0.6454 -0.156933,0.3669 a 0.73891967,0.73891967 0 0 0 0.394675,0.973 l 0.251453,0.1046 a 0.73891967,0.73891967 0 0 0 0.667054,-0.05 l 0.375917,-0.228 0.129154,0.052 a 0.73891967,0.73891967 0 0 0 0.250369,0.052 0.73891967,0.73891967 0 0 0 0.186156,0.1277 l 0.05267,0.025 -0.0072,0.067 a 0.73891967,0.73891967 0 0 0 1.378481,0.4413 l 0.503989,-0.8948 0.37267,-0.5898 0.88315,-0.3907 a 0.73891967,0.73891967 0 0 0 0.03139,-0.015 l 0.425701,-0.2128 0.48054,0.1201 1.67575,0.9174 a 0.73891967,0.73891967 0 0 0 0.648655,0.03 l 1.256544,-0.5444 a 0.73891967,0.73891967 0 0 0 0.216818,-0.144 l 0.409468,-0.3918 0.365093,0.4109 0.1692,0.8125 a 0.73891967,0.73891967 0 0 0 0.838776,0.579 l 0.296911,-0.047 0.0386,0.066 a 0.73891967,0.73891967 0 0 0 0.560989,0.3622 l 0.795486,0.084 a 0.73891967,0.73891967 0 0 0 0.816409,-0.7348 l 0,-0.4102 1.162384,-0.6685 2.307811,-0.1955 a 0.73891967,0.73891967 0 0 0 0.06963,-0.01 l 1.382089,-0.2514 a 0.73891967,0.73891967 0 0 0 0.302681,-0.1292 l 0.518058,-0.377 0.917063,0.5736 a 0.73891967,0.73891967 0 0 0 0.370505,0.1119 l 2.889724,0.084 a 0.73891967,0.73891967 0 0 0 0.54223,-0.2143 l 13.989727,-13.9057 a 0.73891967,0.73891967 0 0 0 -0.09164,-1.1252 l -1.534691,-1.0964 -0.98633,-4.0972 0.38674,-1.9344 a 0.73891967,0.73891967 0 0 0 -0.182909,-0.6479 l -1.089147,-1.1729 a 0.73891967,0.73891967 0 0 0 -0.152965,-0.1255 l -2.786544,-1.7212 -3.331301,-3.0932 -0.525995,-1.5026 a 0.73891967,0.73891967 0 0 0 -0.23125,-0.3294 l -2.68048,-2.1779 a 0.73891967,0.73891967 0 0 0 -0.338397,-0.1544 l -4.21806,-0.7399 -0.0069,-0.075 1.086263,-1.4482 a 0.73891967,0.73891967 0 0 0 0.115806,-0.2283 l 0.435083,-1.43046 2.749025,-0.1407 a 0.73891967,0.73891967 0 0 0 0.251453,-0.058 l 3.35042,-1.424 a 0.73891967,0.73891967 0 0 0 0.449872,-0.671 l 0.0837,-6.953 a 0.73891967,0.73891967 0 0 0 -0.681845,-0.7454 l -0.546197,-0.042 -0.207439,-0.9138 0.549083,-0.5494 a 0.73891967,0.73891967 0 0 0 0.216459,-0.5224 l 0,-2.7645 a 0.73891967,0.73891967 0 0 0 -0.738845,-0.7389 l -0.395399,0 -2.877457,-3.6553 a 0.73891967,0.73891967 0 0 0 -0.355354,-0.2464 l -1.645448,-0.5267 -0.763377,-6.0309 1.065338,-5.3267 a 0.73891967,0.73891967 0 0 0 -0.737764,-0.8835 z m -0.891449,1.4936 -0.908765,4.5449 a 0.73891967,0.73891967 0 0 0 -0.0087,0.2378 l 0.837696,6.6178 a 0.73891967,0.73891967 0 0 0 0.507956,0.6108 l 1.878501,0.6014 2.959712,3.7592 a 0.73891967,0.73891967 0 0 0 0.580471,0.2817 l 0.01515,0 0,1.7198 -0.621238,0.6212 a 0.73891967,0.73891967 0 0 0 -0.198059,0.6862 l 0.418848,1.8428 a 0.73891967,0.73891967 0 0 0 0.663807,0.5729 l 0.398644,0.031 -0.06999,5.778 -2.786183,1.1841 -3.136127,0.1609 a 0.73891967,0.73891967 0 0 0 -0.669217,0.5227 l -0.548362,1.8024 -1.178618,1.57146 a 0.73891967,0.73891967 0 0 0 -0.144668,0.5101 l 0.0837,0.9214 a 0.73891967,0.73891967 0 0 0 0.608249,0.6609 l 4.585678,0.8045 2.369141,1.9251 0.516976,1.478 a 0.73891967,0.73891967 0 0 0 0.194813,0.2973 l 3.518175,3.2671 a 0.73891967,0.73891967 0 0 0 0.114724,0.087 l 2.762735,1.7068 0.763737,0.8225 -0.344529,1.7234 a 0.73891967,0.73891967 0 0 0 0.0061,0.3179 l 1.089149,4.5236 a 0.73891967,0.73891967 0 0 0 0.288612,0.4282 l 1.047299,0.7479 -13.143734,13.0654 -2.37275,-0.069 -1.170318,-0.7316 a 0.73891967,0.73891967 0 0 0 -0.826152,0.029 l -0.784663,0.5707 -1.181865,0.215 -2.435882,0.2064 a 0.73891967,0.73891967 0 0 0 -0.305929,0.096 l -1.67539,0.9632 a 0.73891967,0.73891967 0 0 0 -0.284282,0.2962 0.73891967,0.73891967 0 0 0 -0.551609,-0.1338 l -0.101013,0.016 -0.06566,-0.3164 a 0.73891967,0.73891967 0 0 0 -0.171364,-0.3402 l -1.005089,-1.131 a 0.73891967,0.73891967 0 0 0 -1.062813,-0.043 l -0.86764,0.8302 -0.803783,0.3481 -1.441976,-0.7897 a 0.73891967,0.73891967 0 0 0 -0.175692,-0.069 l -0.837695,-0.2092 a 0.73891967,0.73891967 0 0 0 -0.509759,0.056 l -0.654427,0.3272 -1.072913,0.4744 a 0.73891967,0.73891967 0 0 0 -0.325772,0.2814 l -0.27923,0.4423 a 0.73891967,0.73891967 0 0 0 -0.05087,-0.073 l -0.178217,-0.2197 a 0.73891967,0.73891967 0 0 0 -1.141459,-0.01 l 0.119414,0.048 a 0.73891967,0.73891967 0 0 0 -0.128072,-0.038 0.73891967,0.73891967 0 0 0 -0.06927,0.1017 l 0.05844,-0.1042 a 0.73891967,0.73891967 0 0 0 -0.173527,-0.011 l -0.149356,-0.6645 -0.02778,-0.4741 a 0.73891967,0.73891967 0 0 0 -0.893614,-0.6789 l -0.231251,0.05 -0.107507,-0.071 a 0.73891967,0.73891967 0 0 0 -0.320358,-0.1155 l 0.04257,0.056 a 0.73891967,0.73891967 0 0 0 -0.04797,-0.057 0.73891967,0.73891967 0 0 0 -0.304124,0.03 l 0.252173,-0.08 a 0.73891967,0.73891967 0 0 0 -0.336594,-0.1691 l -0.07432,-0.016 0.01336,0.023 a 0.73891967,0.73891967 0 0 0 -0.799455,-0.3524 0.73891967,0.73891967 0 0 0 -0.02561,-0.033 l -0.337676,-0.3857 -0.132039,-0.3073 a 0.73891967,0.73891967 0 0 0 -0.569287,-0.4395 l -0.169559,-0.026 -0.110755,-0.2832 a 0.73891967,0.73891967 0 0 0 -0.422816,-0.4203 l -0.06277,-0.024 a 0.73891967,0.73891967 0 0 0 -0.102095,-0.3179 l -0.355354,-0.5923 a 0.73891967,0.73891967 0 0 0 -0.700605,-0.3558 l -0.177856,0.016 0.176054,-0.5274 a 0.73891967,0.73891967 0 0 0 -0.394677,-0.9063 l -2.665689,-1.2143 a 0.73891967,0.73891967 0 0 0 -0.767707,0.096 l -0.148275,0.1183 a 0.73891967,0.73891967 0 0 0 -0.277428,0.5769 l 0,0.2211 -0.384214,0.6837 -0.879545,0.842 -1.193047,-0.8164 a 0.73891967,0.73891967 0 0 0 -0.431113,-0.1288 l -0.952418,0.018 0.0025,0.013 A 0.73891967,0.73891967 0 0 0 42.6033,1028.18 l -0.799455,0.059 a 0.73891967,0.73891967 0 0 0 -0.639996,0.4845 l -0.231972,0.6378 -0.663084,0.2147 a 0.73891967,0.73891967 0 0 0 -0.345254,0.2363 l -0.348136,0.4268 -0.07432,-0.109 a 0.73891967,0.73891967 0 0 0 -0.662364,-0.3218 l -0.666694,0.046 -0.134564,-0.082 0,0.123 a 0.73891967,0.73891967 0 0 0 -0.788993,-0.7363 l -0.0069,-0.267 a 0.73891967,0.73891967 0 0 0 -0.828675,-0.7146 l -0.881709,0.1086 -0.318915,-0.2598 0.0285,-0.158 a 0.73891967,0.73891967 0 0 0 0,-0.2583 l -0.125545,-0.7122 a 0.73891967,0.73891967 0 0 0 -0.475127,-0.566 l -0.238466,-0.087 -0.326492,-0.4751 a 0.73891967,0.73891967 0 0 0 -0.659838,-0.3186 l -0.220066,0.015 -0.441216,-0.5542 -0.01046,0.049 a 0.73891967,0.73891967 0 0 0 -0.352106,-0.7945 l -0.109311,-0.063 -0.0184,-0.092 a 0.73891967,0.73891967 0 0 0 -0.314586,-0.4697 l -0.578306,-0.3857 -0.281035,-0.3936 -0.243516,-0.6728 0.319276,-1.223 a 0.73891967,0.73891967 0 0 0 -0.05411,-0.517 l -0.314226,-0.6284 a 0.73891967,0.73891967 0 0 0 -0.05953,-0.099 l -0.733073,-1.026 a 0.73891967,0.73891967 0 0 0 -0.322524,-0.255 l -1.130996,-0.4608 a 0.73891967,0.73891967 0 0 0 -0.113281,-0.036 l -0.738845,-0.1695 -0.0083,-0.1393 a 0.73891967,0.73891967 0 0 0 -0.516975,-0.6605 l -0.376278,-0.1176 -1.784341,-0.731 0.129515,-0.3773 a 0.73891967,0.73891967 0 0 0 -0.30629,-0.8655 l -1.465786,-0.9192 -0.01623,-0.097 0.817492,-1.2389 a 0.73891967,0.73891967 0 0 0 -0.270573,-1.0595 l -2.182265,-1.157 -0.327213,-1.122 a 0.73891967,0.73891967 0 0 0 -0.35391,-0.4408 l -3.634717,-1.9951 a 0.73891967,0.73891967 0 0 0 -0.0285,-0.015 l -1.446305,-0.7139 -0.348499,-0.6339 a 0.73891967,0.73891967 0 0 0 -0.304485,-0.2983 l -0.480538,-0.2518 0.498937,-0.4052 a 0.73891967,0.73891967 0 0 0 0.266966,-0.6652 l -0.0837,-0.6703 a 0.73891967,0.73891967 0 0 0 -0.160901,-0.3752 l -0.837696,-1.0264 a 0.73891967,0.73891967 0 0 0 -0.592736,-0.2713 l -0.413436,0.012 -0.358239,-0.3965 a 0.73891967,0.73891967 0 0 0 -0.05231,-0.053 l -0.75977,-0.6873 -0.313144,-0.73116 a 0.73891967,0.73891967 0 0 0 -0.445544,-0.4099 l -1.256904,-0.4188 a 0.73891967,0.73891967 0 0 0 -0.4213733,-0.014 l -0.796929,0.21 -0.455284,-0.4304 a 0.73891967,0.73891967 0 0 0 -0.568926,-0.1992 l -1.140377,0.095 -0.399727,-0.4484 0.01046,-0.1158 0.660199,-0.6931 a 0.73891967,0.73891967 0 0 0 0.04798,-0.9632 l -0.04762,-0.061 0.01335,-0.039 2.22736,-1.1667 a 0.73891967,0.73891967 0 0 0 0.39612,-0.6548 l 0,-2.2768 0.2958273,-0.6898 a 0.73891967,0.73891967 0 0 0 0.05808,-0.2417 l 0.03427,-0.5177 0.516614,-0.3319 a 0.73891967,0.73891967 0 0 0 0.328657,-0.4975 l 0.409468,-2.4049 0.777808,-0.3683 a 0.73891967,0.73891967 0 0 0 0.373391,-0.4026 l 0.592015,-1.5401 a 0.73891967,0.73891967 0 0 0 0.04618,-0.1981 l 0.05051,-0.5523 0.175692,-0.4694 5.562629,-1.1025 0.487032,1.2577 a 0.73891967,0.73891967 0 0 0 0.09488,0.1724 l 1.960394,2.6527 0.85393,2.0495 a 0.73891967,0.73891967 0 0 0 0.433639,0.4116 l 3.316869,1.1848 a 0.73891967,0.73891967 0 0 0 0.654788,-0.079 l 2.051668,-1.3497 6.32817,0.2702 1.228404,1.7494 a 0.73891967,0.73891967 0 0 0 0.616186,0.3142 l 5.361322,-0.084 a 0.73891967,0.73891967 0 0 0 0.541507,-0.2489 l 2.376355,-2.683 3.353307,0 a 0.73891967,0.73891967 0 0 0 0.738846,-0.7389 l 0,-2.2724 2.263798,-1.4229 2.405938,0.9907 4.530121,3.4594 a 0.73891967,0.73891967 0 0 0 0.499659,0.1497 l 3.602233,-0.2511 a 0.73891967,0.73891967 0 0 0 0.503989,-0.25 l 4.188476,-4.7747 a 0.73891967,0.73891967 0 0 0 0.112198,-0.171 l 0.691225,-1.459 4.415036,-4.0063 a 0.73891967,0.73891967 0 0 0 0.123021,-0.9499 l -0.949171,-1.46 0.311339,-3.3464 a 0.73891967,0.73891967 0 0 0 -0.213211,-0.5906 l -0.730909,-0.7309 2.66605,-0.1028 a 0.73891967,0.73891967 0 0 0 0.709984,-0.7656 l -0.05592,-1.509 3.02032,-0.054 z m -40.484637,61.16286 0.0065,0.01 a 0.73891967,0.73891967 0 0 0 -0.09308,0.041 l 0.08658,-0.046 z m 5.012463,0.4568 a 0.73891967,0.73891967 0 0 0 0.01191,0.048 l -0.0022,0 -0.0097,-0.048 z m 8.994583,1.4001 a 0.73891967,0.73891967 0 0 0 -0.02129,0.035 l -0.0011,0 0.02237,-0.034 z"></path></g></svg>