<svg height='100px' width='100px'  fill="#000000" xmlns="http://www.w3.org/2000/svg" viewBox="0 0 64 64" x="0px" y="0px"><g><path d="M60,25a4.95,4.95,0,0,0-2,.428V25a2,2,0,0,0-2-2H55a4.95,4.95,0,0,0-2,.424V23a3,3,0,0,0-3-3,5.006,5.006,0,0,0-5,5v1a4.992,4.992,0,0,0-4.72,3.42A6.911,6.911,0,0,0,33,27.3v-4.89l3.42-3.42c1.2-.013,4.492-.253,6.656-2.417,2.629-2.629,2.423-6.944,2.412-7.126a1,1,0,0,0-.943-.944c-.179-.008-4.5-.216-7.125,2.413-2.163,2.162-2.407,5.459-2.42,6.665l-2,2V7a5.006,5.006,0,0,0-5-5H19.75A4.561,4.561,0,0,0,15,6.333V7a1,1,0,0,0,1,1h1.5a5.637,5.637,0,0,0,4.663-2.361A3.786,3.786,0,0,1,23,8a4,4,0,0,0,4,4h4V23.586l-2-2c-.013-1.21-.259-4.5-2.419-6.662-2.629-2.629-6.944-2.422-7.126-2.412a1,1,0,0,0-.943.943c-.011.183-.217,4.5,2.413,7.126,2.166,2.167,5.459,2.405,6.659,2.417L31,26.414V28.27a7,7,0,0,0-1.5,1.405,4.951,4.951,0,0,0-5.59.411A5,5,0,0,0,19,26V25a5.006,5.006,0,0,0-5-5,3,3,0,0,0-3,3v.424A4.95,4.95,0,0,0,9,23a3,3,0,0,0-2.945,2.46A4.945,4.945,0,0,0,3.917,25,1.985,1.985,0,0,0,2,27V45.83a4.984,4.984,0,0,0,.8,2.7l8.364,13.006a1,1,0,1,0,1.682-1.082L4.477,47.453A3,3,0,0,1,4,45.83l0-.819L4,45V40a4,4,0,0,1,4,4v3a1.006,1.006,0,0,0,.168.555L9.13,49a1,1,0,0,0,1.241.357A3.985,3.985,0,0,1,16,53a1,1,0,0,0,2,0,6.006,6.006,0,0,0-6-6,5.9,5.9,0,0,0-1.643.234L10,46.7V44a5.968,5.968,0,0,0-1.034-3.363A.933.933,0,0,0,9,40.47V30a4.972,4.972,0,0,0-1-2.968V26a1,1,0,0,1,1-1,3,3,0,0,1,3,3V43a1,1,0,0,0,2,0V28a4.952,4.952,0,0,0-1-2.969V23a1,1,0,0,1,1-1,3,3,0,0,1,3,3V36.4A6.995,6.995,0,0,0,23,47h1.8l1.425,2.133a11.06,11.06,0,0,1,1.512,8.775l-.71,2.85a1,1,0,0,0,.729,1.212A.974.974,0,0,0,28,62a1,1,0,0,0,.97-.758l.709-2.849a13.069,13.069,0,0,0-1.788-10.368L27.207,47h9.585l-.685,1.027a13.069,13.069,0,0,0-1.788,10.365l.71,2.85A1,1,0,0,0,36,62a.974.974,0,0,0,.243-.03,1,1,0,0,0,.729-1.212l-.711-2.851a11.057,11.057,0,0,1,1.512-8.772L39.2,47H41a7,7,0,0,0,6-10.6V25a3,3,0,0,1,3-3,1,1,0,0,1,1,1v2.031A4.952,4.952,0,0,0,50,28V42a1,1,0,0,0,2,0V28a3,3,0,0,1,3-3h1v2.031A4.97,4.97,0,0,0,55,30V40.69A5.962,5.962,0,0,0,54,44v2.7l-.357.537A5.9,5.9,0,0,0,52,47a6.006,6.006,0,0,0-6,6,1,1,0,0,0,2,0,3.985,3.985,0,0,1,5.629-3.645A1,1,0,0,0,54.87,49l.962-1.443A1.006,1.006,0,0,0,56,47V44a4,4,0,0,1,4-4v5.83a3,3,0,0,1-.477,1.623L51.159,60.459a1,1,0,1,0,1.682,1.082l8.364-13.006a4.984,4.984,0,0,0,.8-2.7V27A2,2,0,0,0,60,25ZM38.834,12.334a7.518,7.518,0,0,1,4.634-1.8,7.48,7.48,0,0,1-1.806,4.632,7.51,7.51,0,0,1-4.635,1.8A7.485,7.485,0,0,1,38.834,12.334Zm-16.5,6.832a7.516,7.516,0,0,1-1.8-4.631,7.516,7.516,0,0,1,4.632,1.8,7.522,7.522,0,0,1,1.8,4.632A7.518,7.518,0,0,1,22.338,19.166ZM17.5,6h-.472A2.65,2.65,0,0,1,19.75,4h.836l.141.141A3.54,3.54,0,0,1,17.5,6ZM25,8a5.789,5.789,0,0,0-1.589-4H28a3,3,0,0,1,3,3v3H27A2,2,0,0,1,25,8ZM4,38H3.979L3.95,27a2.976,2.976,0,0,1,2.168.872A3.018,3.018,0,0,1,7,30v8.812A5.958,5.958,0,0,0,4,38Zm38-5V31a3,3,0,0,1,3-3v6.265a6.952,6.952,0,0,0-3.063-1.2c0-.022-.008-.042-.011-.063ZM22,31v2.075a6.956,6.956,0,0,0-3,1.191V28A3,3,0,0,1,22,31ZM41,45H23a5,5,0,0,1,0-10,1,1,0,0,0,1-1,2.991,2.991,0,0,1,5.058-2.171,1,1,0,0,0,1.563-.242A5,5,0,0,1,40,34a1,1,0,0,0,1,1,5,5,0,0,1,0,10Zm16-6.188V30a2.994,2.994,0,0,1,3-3V38A5.958,5.958,0,0,0,57,38.812Z"></path></g></svg>