<svg height='100px' width='100px'  fill="#000000" xmlns="http://www.w3.org/2000/svg" viewBox="0 0 128 128" x="0px" y="0px"><title>Abortion, baby, effect, sick, pregnancy</title><path d="M63.175,127.408c-.023,0-.045,0-.068,0a1.5,1.5,0,0,1-1.432-1.564c.43-9.686-1.883-11.451-5.2-12.888C41.391,106.416,22.932,93.81,20.665,70.882,18.291,46.859,32.231,25.563,60.98,9.3a2.2,2.2,0,0,0,1.084-1.511,2.15,2.15,0,0,0-.449-1.778L59.207,3.041A1.5,1.5,0,0,1,61.536,1.15l2.408,2.967a5.192,5.192,0,0,1-1.486,7.791C34.821,27.546,21.4,47.836,23.65,70.587c2.123,21.476,19.673,33.4,34.021,39.615,5.579,2.418,7.412,6.545,7,15.773A1.5,1.5,0,0,1,63.175,127.408Z"></path><path d="M105.346,127.408a1.532,1.532,0,0,1-.26-.023,1.5,1.5,0,0,1-1.219-1.734,32.879,32.879,0,0,1,3.763-10.091c15.179-25.253,23.037-42.694,4.2-71.887-10.335-16.021-1.726-35.115,1.1-41.39l.357-.8a1.5,1.5,0,0,1,2.742,1.219l-.365.812c-2.944,6.531-10.768,23.88-1.318,38.529,19.779,30.659,11.625,48.809-4.153,75.058a30.364,30.364,0,0,0-3.379,9.063A1.5,1.5,0,0,1,105.346,127.408Z"></path><path d="M70.528,99.874a37.131,37.131,0,0,1-26.016-4.853A33.811,33.811,0,0,1,28.659,71.834c-3.98-22.4,18.123-48.442,39.011-54.05,13.392-3.585,25.221-.646,31.638,7.893,6.446,8.577,6.056,20.7-1.042,32.434h0c-2.531,4.182-3.1,9.02-3.7,14.143-1.17,9.967-2.5,21.264-20.556,26.763A33.434,33.434,0,0,1,70.528,99.874ZM71.6,19.958q-1.557.3-3.153.724C48.756,25.969,27.892,50.369,31.613,71.309A30.854,30.854,0,0,0,46.079,92.464a33.8,33.8,0,0,0,27.057,3.683C89.32,91.22,90.421,81.838,91.587,71.9,92.2,66.689,92.832,61.3,95.7,56.557h0c6.441-10.646,6.894-21.516,1.212-29.077C91.75,20.614,82.437,17.9,71.6,19.958Z"></path><path d="M73.178,91.59c-9.709,1.847-18.081-5.221-21.6-8.794-3.748-3.81-6.353-4.115-11.084-4.67-.5-.06-1.022-.121-1.566-.188-3.578-.451-6.181-2.42-6.8-5.137a5.32,5.32,0,0,1,1.306-4.9,6.148,6.148,0,0,1,5.787-1.459c2.613.5,7.949-1.042,10.515-1.784.918-.268,1.487-.439,1.916-.515a12.69,12.69,0,0,1,3.831-.116.206.206,0,0,0,.169-.353,37.91,37.91,0,0,1-5.175-6.439c-1.848-3.14-1.084-5.928.492-7.3,1.482-1.289,4.34-1.9,7.522.631,3.476,2.759,9.6,5.431,11.809,5.49a1.037,1.037,0,0,0,1.119-.63,1.108,1.108,0,0,0-.6-1.384c-.928-.224-1.551-.432-1.578-.441-6.051-2.144-4.732-7.157-3.955-9.607-.065-.135-.175-.326-.255-.465-.508-.886-1.86-3.24.761-5.1,1.211-.851,1.88-1.615,1.993-2.272a14.949,14.949,0,0,1,6.4-10.03c3.411-2.178,7.754-2.642,12.559-1.341h0a15.808,15.808,0,0,1,10.462,8.306,14.435,14.435,0,0,1,.807,11.445A21.708,21.708,0,0,1,91.573,53.4c-.458.41-.9.8-1.3,1.209-.913.91-.913,2.134-.831,4.6.021.586.041,1.208.045,1.865.07,14.706-3.666,24.561-10.806,28.5A18.491,18.491,0,0,1,73.178,91.59Zm-36.3-22.249a2.2,2.2,0,0,0-1.812,2.8c.391,1.734,2.448,2.593,4.241,2.82q.8.1,1.543.185c4.868.571,8.385.984,12.873,5.545,3.688,3.748,13.362,11.861,23.51,6.257,7.731-4.267,9.3-16.417,9.254-25.86,0-.627-.023-1.218-.042-1.778-.089-2.657-.166-4.95,1.71-6.822.444-.443.921-.872,1.421-1.319a18.872,18.872,0,0,0,5.671-7.761,11.53,11.53,0,0,0-.717-8.982,12.885,12.885,0,0,0-8.558-6.744c-4.025-1.09-7.443-.764-10.16.974a11.911,11.911,0,0,0-5.057,8.006c-.341,1.992-2.147,3.144-3.366,4-.214.152-.441.555.257,1.371a2.956,2.956,0,0,1,.668,2.317,1.611,1.611,0,0,1-.055.238c-1.231,3.811-.788,5.2,1.974,6.174,0,0,.523.173,1.3.359a3.975,3.975,0,0,1,2.813,2.514,3.8,3.8,0,0,1-.5,3.572,4.232,4.232,0,0,1-3.608,1.845c-3.061-.081-9.795-3.122-13.6-6.14C55.2,51.775,53.753,51.5,52.944,52.2c-.64.557-.85,1.859.124,3.515a42.816,42.816,0,0,0,10.05,10.556,1.757,1.757,0,0,1,.406,2.4,1.812,1.812,0,0,1-2.409.582c-2.473-1.422-5.465-2.79-8.913-2.156-.276.042-.915.241-1.626.446-4.158,1.2-8.851,2.44-11.917,1.848A4.807,4.807,0,0,0,36.873,69.341Z"></path><path d="M70.608,40.852a.75.75,0,0,1-.421-1.432l2.479-1a.75.75,0,0,1,.563,1.39l-2.479,1A.742.742,0,0,1,70.608,40.852Z"></path><path d="M72.376,41.662a.752.752,0,0,1-.843-.476l-.957-2.577a.749.749,0,1,1,1.405-.522l.958,2.577a.749.749,0,0,1-.441.964A.638.638,0,0,1,72.376,41.662Z"></path><path d="M68.824,46.868a.75.75,0,0,1-.744-.292,2.814,2.814,0,0,0-1.647-.876.751.751,0,0,1,.279-1.475,4.222,4.222,0,0,1,2.575,1.461.75.75,0,0,1-.463,1.182Z"></path><path d="M65.194,48.734A1.494,1.494,0,0,1,64,48.379a10.75,10.75,0,0,1-2.433-2.992A3.753,3.753,0,0,0,59.4,43.538a1.492,1.492,0,0,0-1.242.162,3.061,3.061,0,0,0-1.232,2.561,1.5,1.5,0,0,1-3-.1,6,6,0,0,1,2.608-4.984,4.528,4.528,0,0,1,3.614-.545A6.7,6.7,0,0,1,64.21,43.96a7.78,7.78,0,0,0,1.764,2.157,1.5,1.5,0,0,1-.78,2.617Z"></path><path d="M44.168,65.533a1.49,1.49,0,0,1-1.134-.24c-1.5-1.042-2.919-2.1-3.443-2.563-2.781-2.48-3.42-5.4-1.71-7.81.681-.961,2.822-2.949,7.98-.69a35.085,35.085,0,0,0,7.055,2.08,1.5,1.5,0,1,1-.558,2.947,38.991,38.991,0,0,1-7.7-2.279c-2.11-.927-3.809-1.053-4.328-.322-.974,1.373.147,2.843,1.259,3.834.313.279,1.5,1.188,3.156,2.337a1.5,1.5,0,0,1-.575,2.706Z"></path><path d="M26.991,31.845a1.5,1.5,0,0,1-2.467-1.172c0-.293-.04-2.934-2.061-3.049A6.564,6.564,0,0,1,17.378,24.9a4.87,4.87,0,0,1-.193-4.662,1.5,1.5,0,0,1,2.769,1.156c-.493,1.18-.146,1.733-.033,1.915a3.693,3.693,0,0,0,2.712,1.324c3.946.224,4.924,4.085,4.891,6.095A1.5,1.5,0,0,1,26.991,31.845Z"></path><path d="M16.771,49.947a1.5,1.5,0,0,1-2.6.825c-.2-.216-2.03-2.12-3.587-.826A6.565,6.565,0,0,1,5,51.418,4.867,4.867,0,0,1,1.681,48.14,1.5,1.5,0,1,1,4.494,47.1c.444,1.2,1.075,1.366,1.282,1.423a3.7,3.7,0,0,0,2.887-.881c3.039-2.526,6.387-.369,7.733,1.123A1.5,1.5,0,0,1,16.771,49.947Z"></path><path d="M16.914,73.875a1.5,1.5,0,0,1-2.279,1.5c-.25-.154-2.532-1.484-3.676.186a6.565,6.565,0,0,1-4.965,2.94A4.865,4.865,0,0,1,1.905,76.26a1.5,1.5,0,0,1,2.422-1.771c.754,1.032,1.406,1.021,1.621,1.018a3.7,3.7,0,0,0,2.536-1.636c2.233-3.26,6.043-2.1,7.746-1.032A1.493,1.493,0,0,1,16.914,73.875Z"></path><path d="M25.839,93.484a1.5,1.5,0,0,1-1.127,2.488c-.293,0-2.934.094-3.012,2.116a6.564,6.564,0,0,1-2.634,5.134,4.867,4.867,0,0,1-4.657.279,1.5,1.5,0,0,1,1.1-2.79c1.188.471,1.735.115,1.915,0A3.7,3.7,0,0,0,18.7,97.973c.152-3.949,4-5,6-5A1.5,1.5,0,0,1,25.839,93.484Z"></path></svg>