<svg height='100px' width='100px'  fill="#000000" xmlns="http://www.w3.org/2000/svg" xmlns:xlink="http://www.w3.org/1999/xlink" version="1.1" x="0px" y="0px" viewBox="0 0 100 100" enable-background="new 0 0 100 100" xml:space="preserve"><path d="M82.504,69.002c0-3.119-4.713-5.471-10.963-5.471c-0.629,0-1.233,0.034-1.826,0.081c-0.41-2.906-5.054-5.052-11.136-5.052  c-1.098,0-2.145,0.074-3.133,0.206l9.142-11.469c0.239-0.3,0.285-0.711,0.119-1.057c-0.167-0.347-0.518-0.566-0.901-0.566H46.208  l6.832-34.261c0.091-0.452-0.141-0.908-0.56-1.103c-0.415-0.192-0.914-0.077-1.203,0.284L17.714,52.7  c-0.239,0.3-0.285,0.711-0.119,1.057c0.167,0.347,0.518,0.566,0.901,0.566h17.597l-6.83,34.262c-0.091,0.452,0.141,0.908,0.56,1.103  c0.135,0.063,0.278,0.093,0.421,0.093c0.297,0,0.587-0.133,0.782-0.377l16.446-20.633V85.2c0,2.955,5.757,4.301,11.107,4.301  c4.531,0,9.341-0.971,10.711-3.062c0.995,0.052,1.809,0.062,2.23,0.062c1.831,0,10.965-0.159,10.965-3.312V69.198  C82.489,69.132,82.504,69.068,82.504,69.002z M80.485,74.429c-1.008,1.047-4.355,2.09-8.93,2.09c-0.626,0-1.25-0.028-1.87-0.069  v-2.061c0.602,0.049,1.216,0.084,1.855,0.084c3.781,0,6.992-0.864,8.944-2.235V74.429z M80.504,69.002  c0,1.639-3.833,3.471-8.963,3.471c-0.645,0-1.258-0.038-1.855-0.093v-6.742c0.596-0.061,1.206-0.106,1.855-0.106  C76.671,65.531,80.504,67.363,80.504,69.002z M67.755,64.03c0,1.449-3.491,3.471-9.176,3.471s-9.176-2.021-9.176-3.471  s3.492-3.47,9.176-3.47S67.755,62.581,67.755,64.03z M32.03,84.935l6.263-31.416c0.059-0.294-0.018-0.598-0.207-0.829  c-0.19-0.232-0.474-0.366-0.773-0.366H20.573l29.7-37.259l-6.264,31.415c-0.059,0.294,0.018,0.598,0.207,0.829  c0.19,0.232,0.474,0.366,0.773,0.366h16.74l-9.376,11.762c-3.025,0.958-4.951,2.621-4.951,4.594c0,0.25,0.042,0.492,0.102,0.732  c-0.01,0.055-0.032,0.105-0.032,0.164v0.634L32.03,84.935z M58.579,87.501c-5.915,0-9.107-1.633-9.107-2.301v-1.43  c1.856,0.982,4.798,1.625,8.148,1.719c0.01,0,0.02,0,0.029,0c0.539,0,0.983-0.43,0.999-0.972c0.015-0.553-0.42-1.013-0.972-1.028  c-4.166-0.116-7.041-1.08-8.042-1.984c-0.049-0.044-0.108-0.063-0.162-0.096v-1.602c0.521,0.277,1.13,0.527,1.829,0.747  c0.101,0.031,0.201,0.046,0.301,0.046c0.425,0,0.819-0.272,0.954-0.699c0.166-0.527-0.127-1.089-0.653-1.255  c-1.463-0.461-2.1-0.951-2.349-1.202c-0.024-0.023-0.056-0.033-0.081-0.055v-1.621c1.349,0.715,3.027,1.114,4.146,1.313  c0.06,0.011,0.119,0.016,0.177,0.016c0.476,0,0.897-0.34,0.983-0.824c0.097-0.544-0.266-1.063-0.809-1.16  c-2.627-0.468-4.033-1.237-4.498-1.798v-1.52c0.611,0.324,1.341,0.611,2.199,0.858c0.093,0.026,0.186,0.039,0.276,0.039  c0.436,0,0.835-0.285,0.961-0.724c0.152-0.531-0.154-1.085-0.685-1.237c-1.322-0.38-2.334-0.896-2.751-1.394v-2.065  c1.993,1.366,5.259,2.228,9.107,2.228s7.114-0.861,9.106-2.228v1.91c-0.074,0.05-0.152,0.095-0.214,0.166  c-0.924,1.072-4.312,2.158-8.998,2.158c-1.063,0-2.113-0.059-3.122-0.175c-0.55-0.065-1.044,0.33-1.107,0.879  s0.33,1.045,0.879,1.107c1.084,0.125,2.212,0.188,3.351,0.188c3.851,0,7.221-0.695,9.212-1.836v1.373  c-0.027,0.037-0.064,0.063-0.086,0.104c-0.5,0.944-3.747,2.341-9.126,2.341c-0.249,0-0.496-0.003-0.744-0.011  c-0.551-0.012-1.013,0.417-1.03,0.97c-0.017,0.552,0.418,1.013,0.97,1.03c0.268,0.008,0.536,0.011,0.805,0.011  c3.349,0,7.021-0.579,9.212-1.832v1.323c-0.012,0.032-0.035,0.058-0.043,0.092c-0.213,0.878-3.458,2.445-9.169,2.445  c-0.866,0-1.725-0.039-2.552-0.116c-0.562-0.053-1.037,0.354-1.089,0.903c-0.051,0.55,0.354,1.037,0.903,1.089  c0.89,0.082,1.81,0.124,2.737,0.124c3.354,0,7.024-0.586,9.212-1.835v1.287c-0.013,0.033-0.037,0.059-0.047,0.094  c-0.195,0.727-2.495,1.972-6.81,2.338c-0.55,0.046-0.958,0.53-0.911,1.081c0.044,0.521,0.48,0.915,0.995,0.915  c0.028,0,0.057-0.001,0.086-0.004c1.263-0.106,4.546-0.496,6.687-1.714v1.52C67.686,85.868,64.494,87.501,58.579,87.501z   M71.521,84.501c-0.649,0-1.253-0.019-1.835-0.044v-2.036c0.338,0.023,0.666,0.059,1.017,0.068c0.01,0,0.02,0,0.029,0  c0.539,0,0.983-0.43,0.999-0.972c0.015-0.553-0.42-1.013-0.972-1.028c-0.371-0.01-0.728-0.029-1.073-0.055v-1.98  c0.621,0.038,1.245,0.064,1.87,0.064c3.666,0,6.909-0.632,8.93-1.679v1.563c-0.754,0.794-3.023,1.698-6.574,2  c-0.55,0.047-0.958,0.53-0.911,1.081c0.044,0.521,0.481,0.915,0.995,0.915c0.028,0,0.057-0.001,0.086-0.004  c2.685-0.229,4.889-0.787,6.404-1.579v2.229C79.925,83.57,76.822,84.501,71.521,84.501z"></path></svg>