<svg height='100px' width='100px'  fill="#000000" xmlns="http://www.w3.org/2000/svg" viewBox="0 0 512 512" x="0px" y="0px"><circle cx="80" cy="456" r="8"></circle><rect x="256" y="368" width="16" height="16"></rect><rect x="288" y="368" width="16" height="16"></rect><path d="M240,304H208a8.00039,8.00039,0,0,0-8,8v32a8.00039,8.00039,0,0,0,8,8h32a8.00039,8.00039,0,0,0,8-8V312A8.00039,8.00039,0,0,0,240,304Zm-8,32H216V320h16Z"></path><rect x="408" y="368" width="16" height="16"></rect><rect x="440" y="368" width="16" height="16"></rect><path d="M360,352h32a8.00039,8.00039,0,0,0,8-8V312a8.00039,8.00039,0,0,0-8-8H360a8.00039,8.00039,0,0,0-8,8v32A8.00039,8.00039,0,0,0,360,352Zm8-32h16v16H368Z"></path><rect x="256" y="240" width="16" height="16"></rect><rect x="288" y="240" width="16" height="16"></rect><path d="M208,224h32a8.00039,8.00039,0,0,0,8-8V184a8.00039,8.00039,0,0,0-8-8H208a8.00039,8.00039,0,0,0-8,8v32A8.00039,8.00039,0,0,0,208,224Zm8-32h16v16H216Z"></path><rect x="408" y="240" width="16" height="16"></rect><rect x="440" y="240" width="16" height="16"></rect><path d="M360,224h32a8.00039,8.00039,0,0,0,8-8V184a8.00039,8.00039,0,0,0-8-8H360a8.00039,8.00039,0,0,0-8,8v32A8.00039,8.00039,0,0,0,360,224Zm8-32h16v16H368Z"></path><path d="M480,16H176a8.00039,8.00039,0,0,0-8,8V416H146.89575l-45.77466-38.14551A7.99881,7.99881,0,0,0,96,376H88V241.54l15.42773-38.56934A7.99723,7.99723,0,0,0,104,200V168a8.00039,8.00039,0,0,0-8-8H32a8.00039,8.00039,0,0,0-8,8v32a7.99723,7.99723,0,0,0,.57227,2.9707L40,241.54V376H32a8.00039,8.00039,0,0,0-8,8v64a8.00039,8.00039,0,0,0,8,8h8a40,40,0,0,0,80,0h48v32a8.00039,8.00039,0,0,0,8,8h48a8.00039,8.00039,0,0,0,8-8V456h64v32a8.00039,8.00039,0,0,0,8,8h48a8.00039,8.00039,0,0,0,8-8V456h64v32a8.00039,8.00039,0,0,0,8,8h48a8.00039,8.00039,0,0,0,8-8V24A8.00039,8.00039,0,0,0,480,16ZM184,440V416H472v24ZM472,272H336V160H472Zm0,128H336V288H472Zm-288,0V288H320V400ZM320,272H184V160H320ZM472,144H336V32H472ZM184,32H320V144H184ZM40,176H88v22.459L74.584,232H72V192H56v40H53.416L40,198.459Zm16,72H72V376H56ZM80,480a24,24,0,1,1,24-24A24.0275,24.0275,0,0,1,80,480Zm36.6499-40a39.98365,39.98365,0,0,0-73.2998,0H40V392H93.10352L136,427.74707V440ZM152,432h16v8H152Zm64,48H184V456h32Zm128,0H312V456h32Zm128,0H440V456h32Z"></path><rect x="256" y="112" width="16" height="16"></rect><rect x="288" y="112" width="16" height="16"></rect><path d="M240,48H208a8.00039,8.00039,0,0,0-8,8V88a8.00039,8.00039,0,0,0,8,8h32a8.00039,8.00039,0,0,0,8-8V56A8.00039,8.00039,0,0,0,240,48Zm-8,32H216V64h16Z"></path><rect x="408" y="112" width="16" height="16"></rect><rect x="440" y="112" width="16" height="16"></rect><path d="M360,96h32a8.00039,8.00039,0,0,0,8-8V56a8.00039,8.00039,0,0,0-8-8H360a8.00039,8.00039,0,0,0-8,8V88A8.00039,8.00039,0,0,0,360,96Zm8-32h16V80H368Z"></path></svg>