<svg height='100px' width='100px'  fill="#000000" xmlns="http://www.w3.org/2000/svg" xmlns:xlink="http://www.w3.org/1999/xlink" version="1.1" x="0px" y="0px" viewBox="0 0 1000 1000" enable-background="new 0 0 1000 1000" xml:space="preserve"><g><path d="M702.5,706v-48h-262v-18.151l-5.49-2.774c-40.598-20.512-82.341-33.921-124.257-39.979V380.571L369.42,274h-49.001l12-68   h-43.695c3.02-4.782,4.775-10.438,4.775-16.5c0-17.093-13.907-31-31-31s-31,13.907-31,31c0,6.062,1.755,11.718,4.775,16.5h-44.401   l16,68h-47.709L214.5,380.405v215.716c-8.441,1.059-16.847,2.407-25.204,4.071c-61.455,12.24-98.733,36.429-100.291,37.452   l-4.506,2.963V794h850v-88H702.5z M262.5,178.5c6.065,0,11,4.935,11,11s-4.935,11-11,11s-11-4.935-11-11S256.435,178.5,262.5,178.5   z M830.5,726v48h-58v-48H830.5z M752.5,726v48h-50v-48H752.5z M682.5,678v96h-22v-68h-220v-28H682.5z M640.5,726v48h-90v-48H640.5z    M300.11,274H272.5v-48h36.081L300.11,274z M217.126,226H252.5v48h-24.08L217.126,226z M192.834,294H335.58l-40.737,74h-64.22   L192.834,294z M234.5,388h56.252v206.752c-18.785-1.662-37.58-1.846-56.252-0.567V388z M368.5,728h-210v-29.422   c9.075-4.986,31.076-15.775,61.241-21.903c51.769-10.518,101.784-2.831,148.759,22.845V728z M158.5,748h210v26h-210V748z    M420.5,774h-32v-86.11l-5.005-2.886c-65.731-37.894-127.496-36.103-167.735-27.929c-43.59,8.855-71.504,26.598-72.671,27.349   l-4.588,2.953V774h-34V651.667c11.35-6.467,43.48-22.981,89.599-32.037c52.208-10.248,133.476-12.716,226.401,32.57V774z    M440.5,726h90v48h-90V726z M914.5,774h-64v-48h64V774z"></path><path d="M590.551,476.5l-20,59h54.991l31-59h95.367l2.157-7.088c5.21-17.118-17.586-30.537-25.077-34.946   c-12.243-7.208-27.206-13.299-27.206-13.299h-55.072L590.712,368h-50.539l32.667,53.167h-32.075L509.431,388.5h-50.677l28.471,88   H590.551z M613.458,515.5h-15.009l13.22-39h22.28L613.458,515.5z M575.935,388h6.795l34.935,33.167h-21.351L575.935,388z    M500.901,408.5l31.334,32.667h165.581c3.212,1.378,10.425,4.595,17.877,8.734c4.51,2.505,7.968,4.708,10.616,6.599H501.774   l-15.529-48H500.901z"></path></g></svg>