<svg height='100px' width='100px'  fill="#000000" xmlns="http://www.w3.org/2000/svg" xmlns:xlink="http://www.w3.org/1999/xlink" version="1.1" x="0px" y="0px" viewBox="0 0 100 100" style="enable-background:new 0 0 100 100;" xml:space="preserve"><style type="text/css">
	.st0{fill:none;stroke:#000000;stroke-width:2;stroke-linecap:round;stroke-linejoin:round;stroke-miterlimit:10;}
</style><path d="M70.501,34.29c-0.043-0.082-0.107-0.143-0.168-0.208c-0.082-0.15-0.187-0.286-0.334-0.378L51.007,21.821  c-0.028-0.018-0.06-0.025-0.09-0.04c-0.032-0.016-0.062-0.03-0.096-0.043c-0.109-0.04-0.221-0.067-0.335-0.068  c-0.002,0-0.004-0.001-0.006-0.001c-0.001,0-0.002,0-0.003,0c0,0,0,0-0.001,0c-0.117,0-0.231,0.028-0.343,0.069  c-0.032,0.012-0.061,0.026-0.092,0.041c-0.032,0.015-0.066,0.024-0.096,0.043L30.938,33.73c-0.202,0.127-0.342,0.326-0.413,0.553  c-0.027,0.037-0.064,0.062-0.086,0.103L10.245,71.785c-0.079,0.146-0.12,0.31-0.12,0.476v2.096c0,0.553,0.447,1,1,1s1-0.447,1-1  v-1.843l16.6-30.741l-7.721,32.352c-0.008,0.033,0.004,0.066-0.001,0.099c-0.012,0.085-0.013,0.168-0.002,0.256  c0.007,0.059,0.018,0.114,0.036,0.17c0.011,0.034,0.007,0.07,0.022,0.104c0.03,0.068,0.073,0.126,0.114,0.184  c0.009,0.012,0.009,0.027,0.018,0.039c0.003,0.004,0.008,0.005,0.012,0.009c0.085,0.105,0.19,0.184,0.306,0.246  c0.026,0.014,0.052,0.025,0.079,0.036c0.123,0.052,0.252,0.089,0.387,0.089c0.001,0,0.001,0,0.002,0h57  c0.136,0,0.266-0.037,0.389-0.089c0.027-0.012,0.053-0.022,0.079-0.036c0.116-0.062,0.221-0.141,0.306-0.246  c0.003-0.004,0.009-0.005,0.012-0.01c0.01-0.012,0.01-0.028,0.019-0.041c0.041-0.058,0.084-0.115,0.113-0.183  c0.014-0.033,0.011-0.068,0.022-0.102c0.018-0.057,0.029-0.112,0.036-0.172c0.011-0.087,0.01-0.17-0.002-0.255  c-0.004-0.033,0.007-0.066-0.001-0.099l-7.665-32.092l15.841,30.364v1.96c0,0.553,0.447,1,1,1s1-0.447,1-1v-2.205  c0-0.161-0.039-0.319-0.113-0.463L70.501,34.29z M77.519,72.558C55.169,61.438,51.991,31.93,51.549,24.519l17.042,10.663  L77.519,72.558z M49.477,73.356H26.203c14.412-8.193,20.613-23.868,23.274-35.63V73.356z M51.477,37.823  c2.658,11.725,8.846,27.358,23.248,35.534H51.477V37.823z M49.397,24.525c-0.472,7.67-3.743,36.945-25.962,48.03l8.913-37.347  L49.397,24.525z"></path><path d="M36.227,41.588h2.167v2.167c0,0.553,0.447,1,1,1s1-0.447,1-1v-2.167h2.167c0.553,0,1-0.447,1-1s-0.447-1-1-1h-2.167v-2.166  c0-0.553-0.447-1-1-1s-1,0.447-1,1v2.166h-2.167c-0.553,0-1,0.447-1,1S35.674,41.588,36.227,41.588z"></path><path d="M58.944,41.588h2.167v2.167c0,0.553,0.447,1,1,1s1-0.447,1-1v-2.167h2.166c0.553,0,1-0.447,1-1s-0.447-1-1-1h-2.166v-2.166  c0-0.553-0.447-1-1-1s-1,0.447-1,1v2.166h-2.167c-0.553,0-1,0.447-1,1S58.392,41.588,58.944,41.588z"></path></svg>