<svg height='100px' width='100px'  fill="#000000" xmlns="http://www.w3.org/2000/svg" viewBox="0 0 512 512" x="0px" y="0px"><g><path d="M485.182,395.827l-87.79-54.8a104.13,104.13,0,0,0-74.248-14.092l-15.153,2.8a104.547,104.547,0,0,0-59.4,33.7l-64.9,5.207a36.966,36.966,0,0,0-9.243,1.949l-70.172-48.352a35.906,35.906,0,0,0-45,55.691l81.817,77.14a7.963,7.963,0,0,0,2.486,1.6l88.616,35.874a8.014,8.014,0,0,0,4.451.453l72.11-13.275a8.218,8.218,0,0,0,.86-.208l59.891-18.05,48.066,33.119a8,8,0,0,0,11.127-2.049l58.835-85.387a8,8,0,0,0-2.351-11.325Zm-65.12,81.046-44.645-30.762a8,8,0,0,0-6.848-1.072l-63.147,19.032-69.384,12.773-85.064-34.436L70.251,366.3A19.906,19.906,0,0,1,95.2,335.425l64.719,44.594a37.32,37.32,0,0,0-3.59,4.438,36.807,36.807,0,0,0,26.488,57.491l80.964,8.449a8,8,0,1,0,1.66-15.914l-80.963-8.449a20.805,20.805,0,0,1,.5-41.432l68.2-5.473a8,8,0,0,0,5.539-2.893A88.518,88.518,0,0,1,310.9,345.474l15.153-2.8A88.2,88.2,0,0,1,388.92,354.6l80.688,50.364Z"></path><path d="M144,312H368a8,8,0,0,0,8-8V144h32a8,8,0,0,0,4.745-14.44l-152-112a7.993,7.993,0,0,0-9.49,0l-152,112A8,8,0,0,0,104,144h32V304A8,8,0,0,0,144,312Zm8-171.875L256.177,65.958,360,140.117V216l-.96-1.28a36.8,36.8,0,0,0-51.519-7.361L298.667,214,296,212V182.624a23.995,23.995,0,0,0-.6-45.449,40.066,40.066,0,0,0-17.142-26.389,23.006,23.006,0,1,0-44.515-.007,40.071,40.071,0,0,0-17.153,26.4A23.995,23.995,0,0,0,216,182.624V212l-16,12a40.191,40.191,0,0,0-16,32v40H152ZM312,264H296V248h16ZM200,276.944l16,8V296H200Zm27.578-4.1L200,259.056V256a24.113,24.113,0,0,1,9.6-19.2l7.11-5.333A40.108,40.108,0,0,0,248,263.2V296H232V280A8,8,0,0,0,227.578,272.845ZM256,104a39.967,39.967,0,0,0-6.981.623,6.991,6.991,0,0,1,13.962,0A39.967,39.967,0,0,0,256,104Zm0,16a24.042,24.042,0,0,1,22.629,16H233.371A24.042,24.042,0,0,1,256,120Zm-32,32h64a8,8,0,0,1,0,16H224a8,8,0,0,1,0-16Zm32,96a24.031,24.031,0,0,1-23.792-20.894L243.313,216h25.374l11.1,11.106A24.031,24.031,0,0,1,256,248Zm24-43.314-2.343-2.343A8,8,0,0,0,272,200H240a8,8,0,0,0-5.657,2.343L232,204.686V184h48ZM264,263.2a39.841,39.841,0,0,0,16-7.217V296H264ZM296,296V280h16v16Zm64,0H328V240a8,8,0,0,0-8-8H301.334l15.786-11.84a20.8,20.8,0,0,1,29.119,4.159l9.6,12.8A20.935,20.935,0,0,1,360,249.6ZM256,33.938,383.656,128H370.934L261.02,49.49a8.66,8.66,0,0,0-9.669,0L141.437,128H128.344Z"></path><circle cx="241" cy="192" r="7"></circle><circle cx="271" cy="192" r="7"></circle><path d="M61.359,48a8,8,0,0,0,8-8V24a8,8,0,1,0-16,0V40A8,8,0,0,0,61.359,48Z"></path><path d="M22.718,50.928l13.856,8a8,8,0,0,0,8-13.856l-13.856-8a8,8,0,0,0-8,13.856Z"></path><path d="M47.5,72a8,8,0,0,0-10.928-2.928l-13.856,8a8,8,0,1,0,8,13.856l13.856-8A8,8,0,0,0,47.5,72Z"></path><path d="M53.359,104a8,8,0,1,0,16,0V88a8,8,0,1,0-16,0Z"></path><path d="M78.144,82.928l13.856,8a8,8,0,1,0,8-13.856l-13.856-8a8,8,0,0,0-8,13.856Z"></path><path d="M82.151,60a7.97,7.97,0,0,0,3.993-1.073l13.856-8a8,8,0,1,0-8-13.856l-13.856,8A8,8,0,0,0,82.151,60Z"></path><path d="M443.713,304a8,8,0,0,0,16,0v-8a8,8,0,0,0-16,0Z"></path><path d="M417.072,292A8,8,0,0,0,428,294.928l6.928-4a8,8,0,0,0-8-13.856l-6.928,4A8,8,0,0,0,417.072,292Z"></path><path d="M420,262.928l6.928,4a8,8,0,0,0,8-13.856l-6.928-4a8,8,0,0,0-8,13.856Z"></path><path d="M451.713,256a8,8,0,0,0,8-8v-8a8,8,0,1,0-16,0v8A8,8,0,0,0,451.713,256Z"></path><path d="M472.505,268a7.978,7.978,0,0,0,3.992-1.072l6.929-4a8,8,0,0,0-8-13.858l-6.929,4A8,8,0,0,0,472.505,268Z"></path><path d="M468.5,290.929l6.929,4a8,8,0,0,0,8-13.858l-6.929-4a8,8,0,1,0-8,13.858Z"></path></g></svg>