<svg height='100px' width='100px'  fill="#000000" xmlns="http://www.w3.org/2000/svg" data-name="Line EX" viewBox="0 0 64 64" x="0px" y="0px"><title>appropriation-accountion-coin-branch</title><path d="M7,56c0,1.71,2.149,3,5,3a6.471,6.471,0,0,0,4-1.175A6.471,6.471,0,0,0,20,59c2.851,0,5-1.29,5-3V48c0-1.5-1.662-2.68-4-2.943V33h7.142A4,4,0,0,0,31,35.858v2.2C28.662,38.32,27,39.5,27,41V57c0,1.71,2.149,3,5,3s5-1.29,5-3V41c0-1.5-1.662-2.68-4-2.943v-2.2A4,4,0,0,0,35.858,33H43V49.057C40.662,49.32,39,50.5,39,52v4c0,1.71,2.149,3,5,3a6.471,6.471,0,0,0,4-1.175A6.471,6.471,0,0,0,52,59c2.851,0,5-1.29,5-3V48c0-1.5-1.662-2.68-4-2.943v-9.2A3.992,3.992,0,1,0,48.142,31H35.858A4,4,0,0,0,33,28.142V25.949a11,11,0,1,0-2,0v2.193A4,4,0,0,0,28.142,31H15.858A3.992,3.992,0,1,0,11,35.858v5.2C8.662,41.32,7,42.5,7,44Zm40,0c0,.249-1.064,1-3,1s-3-.751-3-1V54.421a8.062,8.062,0,0,0,6,0Zm8,0c0,.249-1.064,1-3,1s-3-.751-3-1V54.421a8.062,8.062,0,0,0,6,0Zm0-4c0,.249-1.064,1-3,1s-3-.751-3-1V50.421a8.062,8.062,0,0,0,6,0Zm0-4c0,.249-1.064,1-3,1s-3-.751-3-1,1.064-1,3-1S55,47.751,55,48ZM52,30a2,2,0,1,1-2,2A2,2,0,0,1,52,30Zm-7,3h3.142A4,4,0,0,0,51,35.858v9.2C48.662,45.32,47,46.5,47,48v1.579a6.906,6.906,0,0,0-2-.522Zm2,19c0,.249-1.064,1-3,1s-3-.751-3-1,1.064-1,3-1S47,51.751,47,52ZM35,57c0,.249-1.064,1-3,1s-3-.751-3-1V55.421a8.062,8.062,0,0,0,6,0Zm0-4c0,.249-1.064,1-3,1s-3-.751-3-1V51.421a8.062,8.062,0,0,0,6,0Zm0-4c0,.249-1.064,1-3,1s-3-.751-3-1V47.421a8.062,8.062,0,0,0,6,0Zm0-4c0,.249-1.064,1-3,1s-3-.751-3-1V43.421a8.062,8.062,0,0,0,6,0Zm0-4c0,.249-1.064,1-3,1s-3-.751-3-1,1.064-1,3-1S35,40.751,35,41ZM23,15a9,9,0,1,1,9,9A9.01,9.01,0,0,1,23,15Zm9,15a2,2,0,1,1-2,2A2,2,0,0,1,32,30ZM23,56c0,.249-1.064,1-3,1s-3-.751-3-1V54.421A7.519,7.519,0,0,0,20,55a7.519,7.519,0,0,0,3-.579Zm0-4c0,.249-1.064,1-3,1s-3-.751-3-1V50.421A7.519,7.519,0,0,0,20,51a7.519,7.519,0,0,0,3-.579Zm0-4c0,.249-1.064,1-3,1s-3-.751-3-1,1.064-1,3-1S23,47.751,23,48ZM15.858,33H19V45.057a6.906,6.906,0,0,0-2,.522V44c0-1.5-1.662-2.68-4-2.943v-5.2A4,4,0,0,0,15.858,33ZM10,32a2,2,0,1,1,2,2A2,2,0,0,1,10,32Zm2,11c1.936,0,3,.751,3,1s-1.064,1-3,1-3-.751-3-1S10.064,43,12,43ZM9,46.421A7.519,7.519,0,0,0,12,47a7.519,7.519,0,0,0,3-.579V48c0,.249-1.064,1-3,1s-3-.751-3-1Zm0,4A7.519,7.519,0,0,0,12,51a7.519,7.519,0,0,0,3-.579V52c0,.249-1.064,1-3,1s-3-.751-3-1Zm0,4A7.519,7.519,0,0,0,12,55a7.519,7.519,0,0,0,3-.579V56c0,.249-1.064,1-3,1s-3-.751-3-1Z"></path><path d="M33,22V19.816A2.993,2.993,0,0,0,32,14a1,1,0,1,1,1-1h2a3,3,0,0,0-2-2.816V8H31v2.184A2.993,2.993,0,0,0,32,16a1,1,0,1,1-1,1H29a3,3,0,0,0,2,2.816V22Z"></path><rect x="25" y="14" width="2" height="2"></rect><rect x="37" y="14" width="2" height="2"></rect><rect x="12" y="14" width="2" height="7"></rect><rect x="12" y="23" width="2" height="2"></rect><rect x="7" y="8" width="2" height="7"></rect><rect x="15" y="5" width="2" height="4"></rect><rect x="51" y="9" width="2" height="7"></rect><rect x="51" y="5" width="2" height="2"></rect><rect x="56" y="15" width="2" height="7"></rect><rect x="47" y="18" width="2" height="7"></rect></svg>