<svg height='100px' width='100px'  fill="#000000" xmlns="http://www.w3.org/2000/svg" xmlns:xlink="http://www.w3.org/1999/xlink" version="1.1" x="0px" y="0px" viewBox="0 0 100 100" enable-background="new 0 0 100 100" xml:space="preserve"><g><g><path fill="none" stroke="#000000" stroke-width="0.5" stroke-linecap="round" stroke-linejoin="round" stroke-miterlimit="10" d="    M9.167,31.667c-0.705-0.638-1.934-0.187-0.935-1.5c0.428-0.562,1.945-1.848,2.671-1.742c0.255,0.65,0.386,1.179,0.022,1.738    c-0.345,0.531-1.283,1.428-1.758,1.337"></path><path fill="none" stroke="#000000" stroke-width="0.5" stroke-linecap="round" stroke-linejoin="round" stroke-miterlimit="10" d="    M18.833,30c-1.139,0.435-1.054-0.738-1.584-1.168c-0.227-0.185-0.574-0.028-0.81-0.187c-0.298-0.201-0.54-0.707-0.61-1.058    c-0.246-1.235,0.532-2.012,1.594-2.487c1-0.448,2.251-1.206,3.329-1.019c0.383,0.066,1.14,0.162,1.338,0.432    c0.126,0.171-0.099,0.603,0.009,0.808c0.11,0.21,0.476,0.214,0.575,0.362c0.726,1.09-0.298,1.868-0.661,2.966    c-0.344,1.042-0.472,1.292-1.691,1.681c-0.521,0.167-1.915,0.474-1.992-0.343c0.104-0.126,0.021,0.094,0.087,0.096"></path><path fill="none" stroke="#000000" stroke-width="0.5" stroke-linecap="round" stroke-linejoin="round" stroke-miterlimit="10" d="    M38.417,35.75c0.581,0.055,1.477,1.81,1.831,2.352c0.562,0.86,0.779,1.671,1.94,1.504c1.026-0.147,1.611-0.328,2.629,0.061    c1.118,0.427,1.498,0.449,2.672,0.239c-0.036-0.477-0.442-1.091-0.577-1.573c-0.145-0.516,0.301-0.48-0.306-0.73    c-0.422-0.175-0.783,0.28-1.191,0.089c-0.644-0.302-0.266-1.056-0.476-1.547c-0.19-0.444-0.821-0.722-1.024-1.135    c-0.246-0.501,0.01-1.265-0.411-1.677c-0.604-0.593-1.238-0.027-1.606,0.475c-0.556,0.757-0.597,1.048-1.564,1.441    c-0.482,0.196-1.254,0.234-1.584,0.586"></path><path fill="none" stroke="#000000" stroke-width="0.5" stroke-linecap="round" stroke-linejoin="round" stroke-miterlimit="10" d="    M53.667,43c-0.728,0.121,0.371-1.339,0.432-1.57c0.97-0.053,1.504,0.21,2.475,0.154c0.959-0.055,1.044,0.34,1.842,0.585    c1.242,0.381,2.68-0.951,3.581,0.328c-0.788,0.614-1.574,1.1-2.592,1.17c-0.729,0.051-0.963-0.294-1.671-0.479    c-0.709-0.187-1.445-0.092-2.162-0.021c-0.549,0.055-1.861-0.142-2.236,0.167"></path><path fill="none" stroke="#000000" stroke-width="0.5" stroke-linecap="round" stroke-linejoin="round" stroke-miterlimit="10" d="    M59.5,46.667c-0.49,0.043-1.604-1.092-1.983-0.5c-0.357,0.559,0.394,0.838,0.507,1.231c0.137,0.473-0.31,0.873,0.078,1.333    c0.432,0.512,2.157-0.04,2.487-0.644c0.511-0.936-0.606-1.444-1.089-1.171"></path><path fill="none" stroke="#000000" stroke-width="0.5" stroke-linecap="round" stroke-linejoin="round" stroke-miterlimit="10" d="    M63.25,52.833c-0.048-0.497-0.021-1.208,0.728-1.418c0.651-0.183,1.105,0.09,1.146,0.754c-0.305,0.145-0.655,0.432-0.89,0.579    c-0.275,0.172-0.547,0.119-0.737,0.41c-0.137-0.192,0.014-0.222,0.087-0.408"></path><path fill="none" stroke="#000000" stroke-width="0.5" stroke-linecap="round" stroke-linejoin="round" stroke-miterlimit="10" d="    M64.667,44.167c-0.28-0.275-1.009-0.411-1.402,0.079c-0.187,0.233-0.424,1.87-0.356,2.172c0.135,0.599,0.913,1.188,1.429,1.44    c0.263,0.128,0.624,0.329,0.917,0.375c0.275,0.043,0.777-0.212,1.004-0.072c1.034,0.637-0.606,3.667,2.052,2.659    c1.174-0.445,1.96-1.304,3.259-1.635c0.558-0.142,1.855-0.297,1.752-1.088c-0.858-0.352-1.433-0.967-2.371-1.241    c-0.479-0.14-1.031-0.253-1.449-0.519c-0.388-0.247-0.344-0.53-0.842-0.589c-1.086-0.129-1.367,1.167-2.496,0.314    c-0.586-0.443-0.656-1.243-1.246-1.646"></path><path fill="none" stroke="#000000" stroke-width="0.5" stroke-linecap="round" stroke-linejoin="round" stroke-miterlimit="10" d="    M75.75,76.417c-0.991-0.393-0.098-1.894-0.084-2.66c0.018-0.925-0.25-1.786-0.25-2.775c0-1.023-0.095-1.829-0.604-2.738    c-0.383-0.684-1.156-1.161-1.46-1.846c-1.259-2.836,2.428-3.087,3.068-4.988c0.306-0.909-0.216-1.406-0.754-1.931    c-0.417-0.407-0.579-0.303-0.584-1.06c-0.005-0.626,0.27-1.207,0.345-1.829c0.832,0.188,1.804,0.119,2.489,0.676    c0.543,0.441,0.695,1.403,1.33,1.654c0.515,0.204,1.18-0.022,1.754,0.163c0.625,0.201,1.371,0.312,1.921,0.662    c1.092,0.697,2.033,1.74,3.148,2.421c0.911,0.556,1.155,0.68,1.014,1.644c-0.125,0.858,0.076,0.912,0.346,1.758    c0.394,0.073,0.915-0.213,1.232,0.032c0.46,0.354,0.107,0.853,0.318,1.316c0.466,1.024,2.122,0.561,2.672,1.4    c0.402,0.614-2.067,2.373-2.639,2.943c-0.294,0.294-0.705,0.853-1.026,1.01c-0.407,0.2-1.174,0.099-1.639,0.209    c-0.812,0.194-1.778,0.197-2.514,0.586c-0.579,0.305-0.941,0.817-1.488,1.151c-0.578,0.353-1.48,0.344-1.916,0.932    c-0.499,0.671-0.093,2.047-0.911,2.46c-0.886,0.447-1.172-0.521-1.773-0.86c-0.633-0.357-1.371-0.026-2.066-0.103    c-0.023,0.117-0.027,0.235-0.013,0.354"></path></g></g></svg>