<svg height='100px' width='100px'  fill="#000000" xmlns="http://www.w3.org/2000/svg" xmlns:xlink="http://www.w3.org/1999/xlink" version="1.1" x="0px" y="0px" viewBox="0 0 1024 1024" style="enable-background:new 0 0 1024 1024;" xml:space="preserve"><g><path d="M244.9,589.8C99.6,410.3,97.2,289.7,120.8,220.1c21.6-63.8,74.9-111.6,142.6-128c105.3-25.5,171.7,34.8,215.6,74.6   c4.9,4.4,9.5,8.6,13.9,12.4c39.1,34.1,71.6,41.7,71.9,41.7l-0.1,0l-8.2,39.1c-1.7-0.4-42.2-9.2-89.8-50.7c-4.7-4.1-9.5-8.4-14.5-13   c-42.2-38.2-94.6-85.8-179.4-65.4c-54.3,13.2-97,51.3-114.2,102c-13.1,38.6-11.9,83.7,3.3,134c18.3,60.3,56.6,126.8,114,197.7   L244.9,589.8z"></path><path d="M863.3,355.2l-39.1-8.3c15.9-75,8.3-138.6-21.5-179.2c-21.2-28.9-53.6-45.7-96.2-49.9c-53.7-5.2-110.4,21.1-155.9,42.3   c-16.5,7.7-32,14.9-46.1,20c-26.8,9.8-47.1,8.9-56.9,7.5l-0.6-0.1c-2.9-0.5-4.6-0.9-5.2-1.1l10.5-38.6l-0.3-0.1   c0,0,0.5,0.1,1.5,0.3c5,0.7,18.2,1.4,37.1-5.5c12.4-4.6,27.3-11.5,42.9-18.8c49.9-23.2,112.1-52.1,176.7-45.9   c27.4,2.7,52.1,9.8,73.2,21.3c20.4,11,37.7,26.1,51.4,44.8C871.5,194,881.5,269,863.3,355.2z"></path><path d="M311.5,946.7c-18.2,0-34.3-11.1-40.7-28.4c-36.4-97.6-60.8-188-72.6-268.7c-7.6-51.6-9.8-97.6-7-140.5l39.9,2.6   c-6.8,103,19.9,238.8,77.2,392.6c0.3,0.7,0.9,2.5,3.6,2.3c2.7-0.2,3.1-2,3.2-2.8c8.5-38.2,26.2-117.8,52.7-183.5   c14.5-36.1,30.3-64.6,46.9-84.8c22-26.8,46.5-40.4,72.8-40.4c26.6,0,51.2,13.2,73.2,39.3c16.9,20,32.1,47.3,46.6,83.2   c25.1,62.3,41.1,134.5,51.8,182.2l0.9,3.9c0.2,0.8,0.6,2.6,3.2,2.8c2.7,0.2,3.3-1.6,3.6-2.3c41.5-111.4,66.8-210.3,75-293.9   l39.8,3.9c-8.6,87.1-34.6,189.3-77.4,303.9c-6.8,18.2-24.4,29.6-43.8,28.3c-19.4-1.3-35.3-15-39.5-34l-0.9-3.9   c-10.3-46.5-26-116.7-49.8-176c-17.9-44.5-46.8-97.5-82.7-97.5c-27.7,0-56.3,34.6-82.6,100.1c-25.3,62.7-42.5,140.1-50.7,177.3   c-4.2,19-20.1,32.7-39.5,34C313.6,946.7,312.5,946.7,311.5,946.7z"></path><path d="M204.5,345.1c-5.7-28.9-4.1-55.6,4.6-79.3c7.8-21.1,21.4-39.5,39.4-53.3l24.3,31.8c-26.6,20.4-37,53.5-29.1,93.2   L204.5,345.1z"></path><path d="M305.5,228.7l-9.5-38.9c16.6-4.1,33.1-4.8,49-2.2l-6.4,39.5C328,225.4,317.1,225.9,305.5,228.7z"></path><path d="M712.7,639.9c-48.6,0-96-19.1-131.6-54.5c-72.6-72.6-72.6-190.8,0-263.4c72.6-72.6,190.8-72.6,263.4,0   c5.2,5.2,10.2,10.8,14.9,16.8c58.2,74,51.8,180-14.9,246.6h0c-21.7,21.7-47.6,37.3-76.9,46.3C749.6,637.2,731.1,639.9,712.7,639.9z    M712.9,307.5c-37.5,0-74.9,14.3-103.4,42.8c-57,57-57,149.8,0,206.8c38.4,38.4,94.6,52.3,146.5,36.3c23-7.1,43.3-19.3,60.3-36.3   c52.3-52.3,57.4-135.6,11.7-193.6c-3.8-4.8-7.6-9.1-11.7-13.2C787.8,321.7,750.3,307.5,712.9,307.5z"></path><path d="M941.5,733c-11.6,0-23.2-4.4-32.1-13.3l-73.6-73.6c-10-10-10-26.3,0-36.3l33.4-33.4c10-10,26.3-10,36.3,0l73.6,73.6   c8.6,8.6,13.3,20,13.3,32.1c0,12.1-4.7,23.5-13.3,32.1l-5.5,5.5C964.7,728.6,953.1,733,941.5,733z M874.2,628l63.5,63.5   c2.1,2.1,5.5,2.1,7.6,0l5.5-5.5c2.1-2.1,2.1-5.5,0-7.6l-63.5-63.5L874.2,628z"></path><rect x="822.9" y="569.2" transform="matrix(0.7071 0.7071 -0.7071 0.7071 665.168 -427.3575)" width="51.1" height="40"></rect><path d="M632.2,499.1c-4-23.6,2-43.7,16.7-56.7c12.2-10.8,35.7-21,78.1-8.2c9.2,2.8,16.3,2.6,21-0.5c7.7-5,10.9-17.8,11.4-21.9   l0,0.2l39.8,4.3c-0.4,3.5-4.4,34.4-29,50.7c-10.4,6.9-28.4,13.5-54.7,5.6c-18.8-5.7-33.8-5.7-40.1-0.1c-5.4,4.7-4.6,14.6-3.7,20   L632.2,499.1z"></path></g></svg>