<svg height='100px' width='100px'  fill="#000000" xmlns="http://www.w3.org/2000/svg" data-name="Layer 1" viewBox="0 0 100 100" x="0px" y="0px"><title>Artboard 403</title><path d="M6,98c5.43,0,8.24-3.06,10.29-5.29C18.05,90.78,18.84,90,20.68,90s2.63.78,4.4,2.71C27.13,94.94,29.94,98,35.37,98s8.23-3.06,10.28-5.3C47.41,90.78,48.2,90,50,90s2.62.78,4.38,2.7c2.05,2.24,4.85,5.3,10.28,5.3S72.92,94.94,75,92.7c1.76-1.92,2.55-2.7,4.38-2.7s2.62.78,4.38,2.7c2,2.24,4.85,5.3,10.28,5.3a4,4,0,0,0,0-8c-1.83,0-2.62-.78-4.38-2.7a15.06,15.06,0,0,0-6.48-4.71L89.85,59.1a4,4,0,0,0-2.23-4.75L74,48.29V22a4,4,0,0,0-4-4H62V6a4,4,0,0,0-4-4H42a4,4,0,0,0-4,4V18H30a4,4,0,0,0-4,4V48.29L12.37,54.35a4,4,0,0,0-2.22,4.75l6.72,23.49a15.27,15.27,0,0,0-6.48,4.7C8.63,89.22,7.84,90,6,90a4,4,0,0,0,0,8ZM74.72,82.9a16.18,16.18,0,0,0-5.66,4.4C67.3,89.22,66.52,90,64.69,90s-2.62-.78-4.38-2.7A15.36,15.36,0,0,0,54,82.65V48.15L81.2,60.24ZM46,10h8v8H46ZM34,26H66V44.73L51.62,38.35a3.92,3.92,0,0,0-3.25,0L34,44.73ZM46,48.15V82.68a15.25,15.25,0,0,0-6.25,4.62C38,89.22,37.2,90,35.37,90s-2.63-.78-4.4-2.71a16.06,16.06,0,0,0-5.7-4.4L18.8,60.24Z"></path></svg>