<svg height='100px' width='100px'  fill="#000000" xmlns="http://www.w3.org/2000/svg" viewBox="0 0 512 512" x="0px" y="0px"><g><path d="M256,224a32,32,0,1,0,32,32A32.036,32.036,0,0,0,256,224Zm0,48a16,16,0,1,1,16-16A16.019,16.019,0,0,1,256,272Z"></path><path d="M488,224H320V208h16a8,8,0,0,0,6.51-12.65L264,85.436V64h4.686l21.657,21.657A8,8,0,0,0,296,88h24a8,8,0,0,0,8-8V40a8,8,0,0,0-8-8H307.314L293.657,18.343A8,8,0,0,0,288,16H248V85.436L169.49,195.35A8,8,0,0,0,176,208h16v16H24a8,8,0,0,0-8,8v32a8,8,0,0,0,8,8h8V440a8,8,0,0,0,8,8H192v8a8,8,0,0,0,8,8H312a8,8,0,0,0,8-8v-8H472a8,8,0,0,0,8-8V272h8a8,8,0,0,0,8-8V232A8,8,0,0,0,488,224ZM264,32h20.686l13.657,13.657A8,8,0,0,0,304,48h8V72H299.314L277.657,50.343A8,8,0,0,0,272,48h-8Zm-8,69.764L320.455,192H191.545ZM32,240H192v16H32ZM48,432V272H192V432Zm192,16V384a16,16,0,0,1,32,0v64Zm64,0H288V384a32,32,0,0,0-64,0v64H208V208h96V448Zm160-16H320V272H464Zm16-176H320V240H480Z"></path><path d="M104,288H72a8,8,0,0,0-8,8v48a8,8,0,0,0,8,8h32a8,8,0,0,0,8-8V296A8,8,0,0,0,104,288Zm-8,48H80V304H96Z"></path><path d="M168,288H136a8,8,0,0,0-8,8v48a8,8,0,0,0,8,8h32a8,8,0,0,0,8-8V296A8,8,0,0,0,168,288Zm-8,48H144V304h16Z"></path><path d="M344,352h32a8,8,0,0,0,8-8V296a8,8,0,0,0-8-8H344a8,8,0,0,0-8,8v48A8,8,0,0,0,344,352Zm8-48h16v32H352Z"></path><path d="M408,352h32a8,8,0,0,0,8-8V296a8,8,0,0,0-8-8H408a8,8,0,0,0-8,8v48A8,8,0,0,0,408,352Zm8-48h16v32H416Z"></path><path d="M344,424h32a8,8,0,0,0,8-8V368a8,8,0,0,0-8-8H344a8,8,0,0,0-8,8v48A8,8,0,0,0,344,424Zm8-48h16v32H352Z"></path><path d="M408,424h32a8,8,0,0,0,8-8V368a8,8,0,0,0-8-8H408a8,8,0,0,0-8,8v48A8,8,0,0,0,408,424Zm8-48h16v32H416Z"></path><path d="M104,360H72a8,8,0,0,0-8,8v48a8,8,0,0,0,8,8h32a8,8,0,0,0,8-8V368A8,8,0,0,0,104,360Zm-8,48H80V376H96Z"></path><path d="M168,360H136a8,8,0,0,0-8,8v48a8,8,0,0,0,8,8h32a8,8,0,0,0,8-8V368A8,8,0,0,0,168,360Zm-8,48H144V376h16Z"></path></g></svg>