<svg height='100px' width='100px'  fill="#000000" xmlns="http://www.w3.org/2000/svg" xmlns:xlink="http://www.w3.org/1999/xlink" version="1.1" x="0px" y="0px" viewBox="0 0 100 100" enable-background="new 0 0 100 100" xml:space="preserve"><g><path d="M91.704,39.104V26.19H87.34V2.91H60.366L57.457,0H42.543l-2.909,2.91H12.66v23.28H8.296v12.913h4.365v-1.272h14.368v-4.365   l5.638-5.094v-4.547h4.729l2-1.999l1.834,10.447h-0.738c-4.801,0-6.854,0.98-7.754,3.158c-6.697,1.665-4.836,7.522-5.59,19.131   c-0.909,14.006-2.545,19.823-9.82,26.735C10.051,88.21,9.87,92.395,9.87,92.395s4.2,7.018,35.971,7.596l-2.132-3.381   c-26.471-0.83-30.344-6.771-30.18-7.238l0.071-0.043c0.365-0.135,4.269,5.529,29.563,6.416l-1.053-1.67l1.283-4.994   c-21.785-0.865-25.025-5.838-24.838-6.266l0.072-0.043c0.358-0.146,3.681,4.644,24.981,5.472l0.383-1.491   c0.004-0.005-0.005-0.007-0.014-0.006l0.002-0.006l-6.102-8.73l3.472-7.496l-0.239-1.525l2.417-9.131l0.517,9.283l-1.357,7.89   l8.75,7.907l-0.875,3.427c26.773-0.062,30.612-5.728,30.977-5.593l0.072,0.041c0.182,0.445-3.568,6.365-31.266,6.396l-0.988,3.863   l1.797,2.785c30.744-0.152,34.885-6.651,35.252-6.527l0.074,0.042c0.162,0.478-4.047,7.096-34.783,7.326l2.13,3.302   c32.19-0.518,36.306-7.605,36.306-7.605s-0.182-4.184-7.459-11.096c-7.275-6.912-8.91-12.73-9.82-26.734   c-0.752-11.61,1.109-17.467-5.59-19.132c-0.897-2.178-2.951-3.158-7.752-3.158h-0.738l1.834-10.446l1.998,1.998h4.729v4.547   l5.64,5.094v4.365h14.366v1.272H91.704z M45.661,32.273l-1.994-11.358h4.151v11.358H46.43H45.661z M53.57,32.273h-1.389V20.916   h4.15L54.34,32.274L53.57,32.273L53.57,32.273z"></path></g></svg>