<svg height='100px' width='100px'  fill="#000000" xmlns="http://www.w3.org/2000/svg" xmlns:xlink="http://www.w3.org/1999/xlink" version="1.0" x="0px" y="0px" viewBox="0 0 100 100" enable-background="new 0 0 100 100" xml:space="preserve"><g><g><rect x="29.3087425" y="47.1897392" width="7.1999998" height="2.4000001"></rect><rect x="29.3087425" y="41.1897392" width="7.1999998" height="2.4000001"></rect><rect x="29.3087425" y="35.1897392" width="7.1999998" height="2.4000001"></rect><rect x="46.1087418" y="41.1897392" width="7.1999998" height="2.4000001"></rect><rect x="46.1087418" y="47.1897392" width="7.1999998" height="2.4000001"></rect><rect x="63.0505638" y="32.7897415" width="7.0581799" height="2.4000001"></rect><rect x="63.0505638" y="39.9897385" width="7.0581799" height="2.4000001"></rect><rect x="63.0505638" y="47.1897392" width="7.0581799" height="2.4000001"></rect><rect x="63.0505638" y="26.7897396" width="7.0581799" height="2.4000001"></rect><path d="M86.7575455,70.0472183c-1.1941452-4.426796-6.9726257-4.048317-7.2128601-4.0289993    c-0.0996017,0.0070801-0.1969223,0.0270004-0.2906418,0.0580826c-0.0326385,0.0109177-1.2952805,0.4273148-3.1453018,0.9158401    V19.6753006c0-0.6627598-0.5367813-1.2000008-1.1999969-1.2000008H58.1087418    c-0.6632576,0-1.1999969,0.537241-1.1999969,1.2000008v14.3144379H42.6388054v-6.0134392    c0-0.6627598-0.5367622-1.1999989-1.2000008-1.1999989H24.5509644c-0.6633606,0-1.2000008,0.5372391-1.2000008,1.1999989    v28.7886009c-1.7255993,0.0506401-3.4760399,0.1041603-5.2910213,0.1795197    c-0.662178,0.0275993-1.1778183,0.5865593-1.1495991,1.2486c0.0266209,0.6276016,0.5733414,1.0979996,1.1524601,1.1323204    c0.0324001,0.0019188,0.0628815,0.0176392,0.0955391,0.0167999c2.2195015-0.092041,4.3546619-0.1535988,6.4465008-0.2133598    c5.2679005-0.15168,10.3111191-0.3045616,15.6951599-0.9126015c0.7709999-0.0871201,1.5494423-0.1833572,2.3362808-0.29076    c0.6589203-0.0898781,1.3178406-0.1801186,1.9899597-0.2860794l12.2825012-1.9393196l0.0714989-0.0112801    c1.6619987-0.2636414,2.1977997,0.1006813,2.3284988,0.2271614c0.0014191,0.0013199,0.0045395,0.0035973,0.0058594,0.0049171    c0.6286812,0.6274834,0.435482,1.4667625-0.0058594,2.2413635c-0.185421,0.3254395-0.4100609,0.6406784-0.6433411,0.9220772    c-0.3475189,0.4184418-0.9908371,0.8544006-1.7566566,1.2666016c-1.3340607,0.7179604-3.0476608,1.3624802-4.2738228,1.7081985    c-3.2168388,0.9081612-10.8339577,3.8367615-11.1574783,3.9609604c-0.5132408,0.197403-0.827282,0.7195206-0.7593613,1.2656403    c0.0668411,0.5466003,0.4969215,0.9772797,1.0430603,1.0447235c0.7089424,0.0884399,17.4245796,2.1597595,23.2018623,2.582756    c5.6132355,0.403801,13.6241989-2.0976028,14.891037-2.5077591c0.6668396-0.0251999,3.7628403-0.0064774,4.5175171,2.0524826    c-1.1237946,1.5761948-10.0405197,5.5066757-17.9495926,8.2963181l-0.4030838,0.1371613    c-6.3926392,2.180275-12.4312782,4.2398376-18.4969177,4.3341599c-3.830761,0.0503998-9.0890427-1.3441238-14.1538811-2.7030029    c-3.7429199-1.0036774-7.2784805-1.9522781-10.2105408-2.309761l-5.7000008-0.7136383    c-0.0355377-0.0044403-0.0675774,0.0090027-0.1027374,0.0076828c-0.6164417-0.0235214-1.1580009,0.412796-1.236721,1.0341568    c-0.0819607,0.6573639,0.3843594,1.2573624,1.0418587,1.3394394l5.7034607,0.714241    c2.7679214,0.3375626,6.2238007,1.2644424,9.8824806,2.2459183c5.1093597,1.3705215,10.3886414,2.7867584,14.5370407,2.7867584    c0.0926399,0,0.1851578-0.0005951,0.276619-0.0017929c6.4440994-0.1008072,12.6562576-2.2195206,19.2339363-4.4625626    l0.3949203-0.134758C70.6408005,79.8773804,87.8087463,73.9401398,86.7575455,70.0472183z M59.3087425,34.8458214V20.8752995    h14.3999977v46.6376419c0,0.0212402,0.0109024,0.0388794,0.012001,0.059761    c-2.7347946,0.6109161-5.9895782,1.1361618-8.5819397,0.9463196c-1.3965569-0.1019974-3.4798775-0.3066025-5.8300591-0.5574036    v-6.2756348c0.4700203-0.3331223,0.8880997-0.6895218,1.2034607-1.0694427    c1.9570808-2.3595581,2.1434402-4.7501984,0.4991989-6.3932381c-0.4379997-0.4379997-1.0121994-0.7273216-1.7026596-0.8852425    V35.1897392c0-0.0609589-0.0259399-0.1133995-0.0346985-0.1719589    C59.2828026,34.9592209,59.3087425,34.9067802,59.3087425,34.8458214z M46.9243622,66.5409393    c2.2792816-0.8349609,4.8620415-1.7485199,6.3620415-2.1721191c0.1239586-0.0347977,1.8304787-0.5228386,3.6223412-1.3400383    v4.67136C53.4653244,67.3181763,49.7693214,66.8824615,46.9243622,66.5409393z M56.9087448,36.38974v16.9020004    c-0.1052628,0.0135612-0.1951408,0.0091209-0.3035011,0.0262794l-12.3540001,1.9505997    c-0.5440788,0.0859222-1.0766411,0.1568413-1.6124382,0.231842V36.38974H56.9087448z M25.7509632,29.1763h14.4878407v26.6305199    c-4.9562416,0.5698814-9.6452408,0.7453194-14.4878407,0.8867989V29.1763z"></path></g></g></svg>