<svg height='100px' width='100px'  fill="#000000" xmlns="http://www.w3.org/2000/svg" viewBox="0 0 68 66" x="0px" y="0px"><path fill="#000000" d="M213.672864,226.871056 L213.672864,226.871056 C214.306845,225.28794 214.773756,223.843923 215.044395,222.580942 C215.284585,221.460057 215.452843,220.226165 215.553423,218.898505 C215.773517,215.99326 215.663297,212.849948 215.344196,209.800758 C215.273717,209.127295 215.198349,208.514301 215.123259,207.974767 C215.078925,207.656219 215.045179,207.436597 215.027212,207.328798 C214.824035,206.109735 215.764121,205 217,205 L231,205 C232.235879,205 233.175965,206.109735 232.972788,207.328798 C232.954821,207.436597 232.921075,207.656219 232.876741,207.974767 C232.801651,208.514301 232.726283,209.127295 232.655804,209.800758 C232.336703,212.849948 232.226483,215.99326 232.446577,218.898505 C232.547157,220.226165 232.715415,221.460057 232.955605,222.580942 C233.253199,223.969716 233.793435,225.594097 234.542942,227.398468 C235.129338,228.81016 235.831919,230.303987 236.625847,231.849358 C237.513333,233.576838 238.466358,235.276347 239.419251,236.871938 C239.661387,237.277387 239.890736,237.654599 240.104167,238 L242,238 C243.104569,238 244,238.895431 244,240 C244,241.104569 243.104569,242 242,242 L178,242 C176.895431,242 176,241.104569 176,240 C176,238.895431 176.895431,238 178,238 L179.78787,238 C179.96417,237.65169 180.15254,237.270858 180.35076,236.859875 C181.192809,235.114001 182.035723,233.194254 182.821807,231.163223 C184.357252,227.196045 185.481448,223.307847 186.022127,219.703319 C186.828304,214.32881 186.828304,208.552451 186.341384,203.142238 C186.270451,202.354094 186.194619,201.646327 186.119061,201.030664 C186.074411,200.666854 186.04037,200.418299 186.022127,200.296681 C185.840746,199.087473 186.777264,198 188,198 L210,198 C211.222736,198 212.159254,199.087473 211.977873,200.296681 C211.95963,200.418299 211.925589,200.666854 211.880939,201.030664 C211.805381,201.646327 211.729549,202.354094 211.658616,203.142238 C211.171696,208.552451 211.171696,214.32881 211.977873,219.703319 C212.321686,221.995405 212.901448,224.402194 213.672864,226.871056 Z M235.440521,238 C234.630074,236.609631 233.82754,235.155832 233.067915,233.67723 C232.227518,232.041408 231.47987,230.451761 230.848956,228.932893 C230.01312,226.920696 229.399168,225.074662 229.044395,223.419058 C228.763924,222.110191 228.57155,220.699454 228.458006,219.200669 C228.217294,216.023269 228.335474,212.652959 228.677529,209.384427 C228.691155,209.254226 228.704962,209.126059 228.718918,209 L219.281082,209 C219.295038,209.126059 219.308845,209.254226 219.322471,209.384427 C219.664526,212.652959 219.782706,216.023269 219.541994,219.200669 C219.42845,220.699454 219.236076,222.110191 218.955605,223.419058 C218.407263,225.977987 217.246606,228.978108 215.625947,232.293451 C216.280318,233.907997 216.965065,235.44133 217.64924,236.859875 C217.84746,237.270858 218.03583,237.65169 218.21213,238 L235.440523,238 L235.440521,238 Z M190.325282,202.783688 C190.838363,208.484586 190.838363,214.560078 189.977873,220.296681 C189.388358,224.226779 188.185685,228.386401 186.552154,232.607006 C185.813913,234.514423 185.029141,236.326006 184.238761,238 L213.761239,238 C212.970859,236.326006 212.186087,234.514423 211.447846,232.607006 C209.814315,228.386401 208.611642,224.226779 208.022127,220.296681 C207.161637,214.560078 207.161637,208.484586 207.674718,202.783688 C207.699013,202.513736 207.72389,202.252377 207.749167,202 L190.250833,202 C190.27611,202.252377 190.300987,202.513736 190.325282,202.783688 Z M200.664101,193.1094 C200.051396,194.028458 198.809657,194.276806 197.8906,193.664101 C196.971542,193.051396 196.723194,191.809657 197.335899,190.8906 C197.366509,190.844686 197.462356,190.663641 197.571786,190.371827 C198.054697,189.084066 198.054697,187.581529 197.211146,185.894427 C195.832474,183.137085 195.832474,180.491473 196.682897,178.223679 C196.9068,177.626604 197.144287,177.178019 197.335899,176.8906 C197.948604,175.971542 199.190343,175.723194 200.1094,176.335899 C201.028458,176.948604 201.276806,178.190343 200.664101,179.1094 C200.633491,179.155314 200.537644,179.336359 200.428214,179.628173 C199.945303,180.915934 199.945303,182.418471 200.788854,184.105573 C202.167526,186.862915 202.167526,189.508527 201.317103,191.776321 C201.0932,192.373396 200.855713,192.821981 200.664101,193.1094 Z M192.788854,192.894427 C192.294876,193.882384 191.09353,194.282833 190.105573,193.788854 C189.117616,193.294876 188.717167,192.09353 189.211146,191.105573 C189.218095,191.091674 189.258542,190.992803 189.30657,190.832712 C189.506307,190.166921 189.506307,189.484749 189.211146,188.894427 C188.395196,187.262527 188.395196,185.574329 188.862125,184.017897 C188.980765,183.622432 189.106984,183.313897 189.211146,183.105573 C189.705124,182.117616 190.90647,181.717167 191.894427,182.211146 C192.882384,182.705124 193.282833,183.90647 192.788854,184.894427 C192.781905,184.908326 192.741458,185.007197 192.69343,185.167288 C192.493693,185.833079 192.493693,186.515251 192.788854,187.105573 C193.604804,188.737473 193.604804,190.425671 193.137875,191.982103 C193.019235,192.377568 192.893016,192.686103 192.788854,192.894427 Z M208.788854,192.894427 C208.294876,193.882384 207.09353,194.282833 206.105573,193.788854 C205.117616,193.294876 204.717167,192.09353 205.211146,191.105573 C205.218095,191.091674 205.258542,190.992803 205.30657,190.832712 C205.506307,190.166921 205.506307,189.484749 205.211146,188.894427 C204.395196,187.262527 204.395196,185.574329 204.862125,184.017897 C204.980765,183.622432 205.106984,183.313897 205.211146,183.105573 C205.705124,182.117616 206.90647,181.717167 207.894427,182.211146 C208.882384,182.705124 209.282833,183.90647 208.788854,184.894427 C208.781905,184.908326 208.741458,185.007197 208.69343,185.167288 C208.493693,185.833079 208.493693,186.515251 208.788854,187.105573 C209.604804,188.737473 209.604804,190.425671 209.137875,191.982103 C209.019235,192.377568 208.893016,192.686103 208.788854,192.894427 Z" transform="translate(-176 -176)"></path></svg>