<svg height='100px' width='100px'  fill="#000000" xmlns="http://www.w3.org/2000/svg" xmlns:xlink="http://www.w3.org/1999/xlink" version="1.1" x="0px" y="0px" viewBox="0 0 100 100" enable-background="new 0 0 100 100" xml:space="preserve"><g><g><path d="M80.719,95.577c-8.386,0-16.771,0-25.158,0c-10.807,0-21.615,0-32.422,0c-0.547,0-1.093,0-1.64,0    c-0.315,0-0.139-8.669,0.006-9.57c0.159-0.998,0.479-1.97,0.588-2.977c0.042-0.395,0.044-0.794-0.024-1.186    c-0.089-0.51-0.395-0.96-0.349-1.486c-0.118-2.084-0.034-4.254,0.043-6.341c0.042-1.12,0.127-2.239,0.291-3.349    c0.138-0.929,0.715-2.168,0.596-3.088c-0.108-0.842-1.181-1.354-1.76-1.839c-0.537-0.449-1.24-0.62-1.884-0.891    c0.449-0.828,0.813-1.693,1.234-2.535c0.639-1.275,1.77-2.142,2.451-3.391c0.631-1.158,1.018-2.428,1.489-3.654    c0.534-1.389,1.13-2.778,1.722-4.145c0.519-1.199,1.309-2.245,1.082-3.626c-0.248-1.51-1.32-1.92-2.527-2.532    c-2.227-1.129-2.266-4.292-2.548-6.434c-0.835-6.339-0.71-12.749-0.559-19.126c0.077-3.248,0.158-6.496,0.119-9.744    c-0.019-1.496-0.179-3.02-0.063-4.512c0.028-0.466,0.159-0.868,0.612-0.868c2.344,0,4.687,0,7.029,0    c0.435,0,0.233,0.495,0.235,0.863c0.003,1.347,0.023,2.693,0.034,4.04c0.011,1.356,0.01,2.714-0.034,4.07    c-0.04,1.271-0.118,2.444,0.435,3.629c0.894,1.915,2.768,3.181,3.062,5.392c0.156,1.169,0.21,1.952,1.083,2.839    c0.919,0.934,1.981,1.739,2.935,2.641c1.856,1.755,3.562,3.557,5.19,5.523c1.307,1.577,2.63,2.288,4.684,2.288    c-0.229,1.804-0.796,3.485-0.846,5.323c-0.029,1.057-0.017,2.138-0.271,3.172c-0.259,1.049-0.789,1.979-0.887,3.077    c-0.183,2.068,1.246,3.305,3.097,3.868c0.721,0.229,1.979-0.65,2.56-0.995c0.586-0.349,1.166-0.708,1.755-1.052    c0.341,0.871,0.666,1.748,1.004,2.62c0.509,1.311,1.169,2.43,1.891,3.626c0.276,0.461,0.672,0.854,0.821,1.384    c0.144,0.508,0.119,1.04,0.291,1.548c0.338,0.999,1.086,1.716,2.034,2.144c0.988,0.444,1.864,0.804,1.952,2.066    c0.09,1.285,0.96,2.158,1.938,2.89c0.522,0.392,1.301,1.124,1.946,0.373c0.848-1.409,2.019-0.853,3.36-0.937    c1.389-0.086,2.798-0.538,4.18-0.731c1.493-0.208,2.975,0.108,4.47-0.045c0.905-0.092,1.838-0.335,2.545-0.936    c0.375-0.222,0.207-0.253,0.606-0.032c0.551,0.377,0.997,0.885,1.264,1.498c0.471,1.083,0.364,2.313,0.358,3.462    c-0.009,1.726-0.015,3.452-0.019,5.178c-0.008,3.32-0.008,6.64-0.007,9.959C80.715,87.211,80.717,91.395,80.719,95.577z     M22.439,94.577c8.549,0,17.099,0,25.647,0c10.278,0,20.556,0,30.834,0c0.267,0,0.532,0,0.798,0    c-0.003-8.233-0.02-16.466,0.012-24.699c0.006-1.417,0.184-2.951-0.064-4.353c-0.09-0.506-0.287-0.984-0.64-1.364    c-0.286-0.309-0.979,0.269-1.384,0.406c-1.063,0.362-2.215,0.415-3.328,0.371c-1.572-0.063-2.937,0.054-4.491,0.302    c-1.257,0.201-2.394,0.527-3.675,0.338c-1.155-0.17-1.44,0.991-2.503,1.247c-1.614,0.39-3.611-1.659-4.22-2.993    c-0.271-0.595-0.211-1.276-0.483-1.851c-0.271-0.567-0.815-0.589-1.344-0.84c-1.075-0.512-1.942-1.35-2.381-2.469    c-0.216-0.55-0.327-1.136-0.369-1.724c-0.042-0.586-0.837-1.403-1.157-1.898c-0.939-1.446-1.505-3.024-2.118-4.627    c-1.588,0.981-3.147,2.018-5.012,1.21c-1.494-0.647-2.678-1.83-2.878-3.501c-0.23-1.929,0.912-3.52,1.065-5.382    c0.09-1.076,0.049-2.158,0.146-3.233c0.091-1.013,0.353-1.992,0.588-2.978c-2.509-0.248-3.873-2.185-5.358-3.971    c-1.837-2.208-4.025-4.184-6.206-6.043c-0.846-0.721-1.677-1.551-1.975-2.657c-0.161-0.6-0.084-1.223-0.223-1.827    c-0.148-0.647-0.469-1.23-0.853-1.767c-1.354-1.893-2.756-3.455-2.629-5.96c0.151-3.008,0.054-6.02,0.043-9.03    c-0.148-0.116-0.85,0-1.029,0c-0.797,0-1.594,0-2.392,0c-0.651,0-1.304,0-1.956,0c-0.152,0-0.305,0-0.457,0    c-0.156,0-0.052,1.479-0.047,1.599c0.12,3.28,0.081,6.563,0.011,9.842c-0.104,4.882-0.277,9.768-0.087,14.65    c0.096,2.457,0.283,4.912,0.617,7.348c0.208,1.525,0.202,4.081,1.583,5.117c0.643,0.482,1.46,0.601,2.094,1.122    c0.774,0.635,1.257,1.562,1.376,2.552c0.123,1.012-0.131,2.043-0.639,2.921c-0.601,1.039-0.96,2.193-1.422,3.294    c-0.785,1.87-1.396,3.891-2.367,5.672c-0.475,0.871-1.104,1.521-1.742,2.263c-0.657,0.767-0.99,1.77-1.421,2.669    c0.893,0.324,1.69,0.999,2.387,1.644c1.021,0.944,0.88,1.855,0.583,3.104c-0.699,2.939-0.657,5.98-0.643,8.981    c0.004,0.736,0.005,1.473-0.006,2.209c-0.01,0.563,0.298,1.071,0.365,1.644c0.159,1.347-0.31,2.647-0.549,3.954    C22.017,88.736,22.403,91.688,22.439,94.577z"></path></g></g><g display="none"><rect x="4.997" y="5" display="inline" fill-rule="evenodd" clip-rule="evenodd" fill="none" stroke="#000000" stroke-linejoin="round" stroke-miterlimit="10" width="90" height="90"></rect></g></svg>