<svg height='100px' width='100px'  fill="#000000" xmlns="http://www.w3.org/2000/svg" xmlns:xlink="http://www.w3.org/1999/xlink" version="1.0" x="0px" y="0px" viewBox="0 0 100 100" enable-background="new 0 0 100 100" xml:space="preserve"><g><path d="M19.881,9.549l-0.286,0.41c0.434,0.298,0.98,0.492,1.494,0.702c0.511,0.202,0.983,0.428,1.171,0.618l0,0   c0.795,0.762,1.804,0.982,2.779,0.979c1.517-0.007,3.088-0.481,4.262-0.473c0.111,0,0.218,0.004,0.32,0.012l0.12,0.03   c0.033,0.016,0.089,0.072,0.212,0.198c0.12,0.121,0.323,0.29,0.605,0.375h0c0.519,0.154,1.043,0.104,1.511,0.124   c0.473,0.009,0.825,0.091,0.976,0.246l0.045,0.043l-0.045-0.043c0.451,0.433,0.911,0.538,1.145,0.617   c0.122,0.042,0.196,0.076,0.285,0.143c0.087,0.068,0.198,0.181,0.337,0.404v0c0.236,0.371,0.605,0.546,0.969,0.655   c0.553,0.16,1.182,0.185,1.766,0.209c0.577,0.02,1.123,0.045,1.367,0.12l0,0c0.157,0.046,0.207,0.088,0.225,0.106l0.038,0.07   c0.06,0.126,0.048,0.56,0.219,1.113l0.017,0.053l-0.017-0.053c0.281,0.861,0.419,1.911,0.783,2.878   c0.184,0.483,0.431,0.952,0.804,1.351c0.371,0.398,0.87,0.714,1.496,0.889c0.467,0.131,1.008,0.356,1.585,0.556   c0.578,0.198,1.198,0.375,1.852,0.376c0.401,0,0.815-0.07,1.217-0.247l-0.201-0.458l-0.1,0.49c0,0,0.202,0.042,0.529,0.116   c0.49,0.113,1.254,0.301,1.994,0.532c0.736,0.227,1.461,0.513,1.805,0.753c0.431,0.295,0.891,0.452,1.326,0.584   c0.437,0.131,0.853,0.24,1.224,0.402c0.918,0.393,1.663,1.199,2.617,1.936c0.401,0.307,0.878,0.68,1.406,0.994   c0.529,0.313,1.112,0.576,1.752,0.624c0.173,0.013,0.341,0.019,0.504,0.019c0.683,0,1.28-0.114,1.815-0.349   c0.535-0.234,0.996-0.583,1.43-1.018c0.612-0.613,1.229-1.283,1.703-2.06c0.473-0.775,0.799-1.67,0.798-2.687   c0-0.125-0.005-0.251-0.015-0.378l0,0c-0.056-0.748-0.453-1.219-0.715-1.575c-0.27-0.375-0.444-0.625-0.453-1.188   c0-0.397,0.11-0.968,0.447-1.792l0,0c0.07-0.179,0.294-0.531,0.54-0.839c0.242-0.31,0.528-0.602,0.661-0.692l0,0   c0.276-0.196,0.593-0.471,0.91-0.75c0.314-0.278,0.627-0.559,0.85-0.738l0,0c0.697-0.565,1.717-1.117,2.537-1.309   c0.997-0.24,1.919-0.324,3.054-1.03h0c0.188-0.111,0.222-0.105,0.285-0.11c0.082-0.009,0.336,0.068,0.755,0.072   c0.085,0,0.176-0.004,0.274-0.012l0,0l0.227-0.009c0.814-0.006,1.741,0.369,2.707,0.633l0,0c0.675,0.18,1.018,0.274,1.299,0.404   c0.281,0.127,0.561,0.314,1.113,0.72l0,0c0.16,0.117,0.33,0.27,0.443,0.422c0.116,0.154,0.166,0.292,0.165,0.393h0.104l-0.082-0.06   l-0.022,0.06h0.104l-0.082-0.06l0.049,0.036l-0.046-0.041l-0.003,0.004l0.049,0.036l-0.046-0.041l-0.036,0.029   c-0.041,0.032-0.116,0.074-0.22,0.168c-0.101,0.086-0.243,0.293-0.237,0.53l0.039,0.239l0-0.001   c0.094,0.271,0.262,0.394,0.398,0.498c0.212,0.149,0.431,0.25,0.575,0.339l0.126,0.088l0.087-0.088l-0.107,0.059l0.02,0.03   l0.087-0.088l-0.107,0.059l0.259-0.142l-0.293,0.01l0.034,0.131l0.259-0.142l-0.293,0.01l0.016,0.457l0.457,0.025   c0.679,0.036,0.856,0.058,1.071,0.073c0.219,0.015,0.434,0.02,1.121,0.02c0.201,0.001,0.306,0.036,0.399,0.081   c0.138,0.065,0.271,0.207,0.509,0.406c0.233,0.197,0.606,0.405,1.094,0.428c0.159,0.01,0.328,0.013,0.507,0.013   c0.485,0,1.044-0.024,1.596-0.024c0.654-0.001,1.3,0.037,1.751,0.163c0.226,0.061,0.396,0.144,0.5,0.226   c0.104,0.085,0.146,0.152,0.174,0.263l0,0c0.084,0.361,0.268,0.603,0.382,0.791c0.123,0.191,0.169,0.308,0.168,0.39v-0.001v0.005   l-0.068,0.146c-0.092,0.107-0.34,0.248-0.616,0.421c-0.138,0.09-0.284,0.192-0.42,0.337c-0.135,0.143-0.262,0.34-0.308,0.581   l-0.016,0.082l0.016-0.082c-0.065,0.333-0.095,0.626-0.095,0.891c-0.006,0.753,0.264,1.265,0.465,1.645   c0.201,0.393,0.346,0.665,0.352,1.267c0,0.134-0.009,0.285-0.029,0.456c-0.022,0.266-0.283,0.772-0.586,1.285   c-0.297,0.525-0.634,1.056-0.735,1.648l0,0c-0.027,0.177-0.039,0.359-0.039,0.549c0.002,0.854,0.228,1.858,0.495,2.826   c0.268,0.965,0.584,1.888,0.78,2.509c0.388,1.201,0.235,2.612,0.417,4.21l0.497-0.059h-0.5v49.167h-5.46l-0.225,2.703   L43.424,67.536l-9.79,4.709l-3.222-3.103l-8.255-2.032l-0.12,0.485l0.454-0.21c-0.485-1.041-0.885-2.331-1.584-3.411   c-0.165-0.252-0.297-0.432-0.439-0.579c-0.209-0.226-0.476-0.346-0.67-0.404c-0.198-0.065-0.378-0.113-0.716-0.28   c-0.309-0.152-0.598-0.395-0.923-0.668c-0.325-0.271-0.688-0.572-1.167-0.78c-0.811-0.343-1.648-0.348-2.346-0.467   c-0.35-0.057-0.661-0.136-0.92-0.265c-0.261-0.13-0.476-0.302-0.669-0.587c-0.179-0.271-0.233-0.516-0.267-0.855   c-0.034-0.334-0.029-0.748-0.136-1.229c-0.223-0.978-0.745-1.668-1.159-2.383c-0.857-1.458-2.174-3.261-2.699-4.808l-0.473,0.162   l0.09,0.492c0.837-0.155,1.541-0.445,2.238-0.636l0.26-0.072l0.083-0.257c0.272-0.849,0.343-1.706,0.343-2.546   c0-1.038-0.106-2.057-0.105-3.031c0-1.001,0.108-1.943,0.515-2.832c0.125-0.272,0.237-0.434,0.355-0.646   c0.119-0.208,0.226-0.5,0.221-0.834c0-0.166-0.02-0.342-0.057-0.543l0,0c-0.083-0.432-0.259-0.797-0.409-1.13   c-0.153-0.333-0.281-0.632-0.323-0.904c-0.09-0.559-0.112-1.142-0.112-1.744c0-0.47,0.013-0.952,0.013-1.442   c0-0.294-0.005-0.592-0.02-0.893c-0.055-1.119-0.392-1.946-0.792-2.662c-0.401-0.72-0.848-1.341-1.211-2.158l0,0   c-0.123-0.272-0.158-0.455-0.156-0.54c0.008-0.096,0.005-0.071,0.043-0.116c0.058-0.065,0.322-0.175,0.678-0.283   c0.354-0.115,0.795-0.254,1.219-0.541c0.688-0.464,1.092-1.12,1.297-1.808c0.208-0.69,0.243-1.42,0.244-2.138   c0-0.504-0.019-1.004-0.019-1.479c-0.004-1.029,0.103-1.91,0.535-2.473c0.161-0.219,0.485-0.49,0.855-0.762   c0.37-0.274,0.782-0.556,1.137-0.866l0,0c0.569-0.514,0.83-0.995,1.295-1.289l0,0c0.413-0.271,1.367-0.86,2.215-1.413   c0.425-0.277,0.824-0.545,1.128-0.77c0.153-0.113,0.28-0.213,0.386-0.31l0.151-0.159c0.042-0.07,0.123-0.13,0.139-0.375   c0.012-0.148-0.102-0.364-0.235-0.439l0,0l-0.069,0.104l0.092-0.085l-0.022-0.018l-0.069,0.104l0.092-0.085l-0.031-0.05   c-0.07-0.127-0.159-0.451-0.208-0.826c-0.052-0.377-0.078-0.816-0.078-1.225c0-0.411,0.027-0.798,0.071-1.05   c0.021-0.125,0.049-0.218,0.059-0.237l0.001-0.003l-0.215-0.111l0.161,0.177l0.055-0.066l-0.215-0.111l0.161,0.177l-0.276-0.304   v0.408c0.128,0.001,0.235-0.063,0.276-0.104l-0.276-0.304v0.408V9.628l-0.23,0.331c0.04,0.029,0.124,0.07,0.23,0.07V9.628   l-0.23,0.331l0.004,0.003l-0.005-0.003L19.881,9.549l0.285-0.411c-0.078-0.055-0.199-0.109-0.34-0.109   c-0.196-0.001-0.353,0.104-0.43,0.188c-0.138,0.154-0.172,0.277-0.217,0.41c-0.112,0.389-0.151,0.921-0.153,1.521   c0,0.549,0.04,1.136,0.132,1.642c0.047,0.254,0.105,0.487,0.189,0.698c0.088,0.208,0.185,0.409,0.419,0.575l-0.001,0l0.263-0.392   h-0.472C19.544,13.8,19.649,14,19.766,14.064l0.263-0.392h-0.472h0.38l-0.308-0.241c0.001,0.014-0.057,0.029-0.072,0.241h0.38   l-0.308-0.241l0.02,0.015L19.63,13.43l-0.001,0.001l0.02,0.015L19.63,13.43c-0.008,0.011-0.078,0.077-0.175,0.153   c-0.347,0.275-1.051,0.741-1.739,1.181c-0.691,0.443-1.373,0.865-1.728,1.099l0,0c-0.698,0.47-0.996,1.029-1.405,1.373l0,0   c-0.288,0.253-0.684,0.527-1.073,0.814c-0.39,0.291-0.775,0.59-1.06,0.965c-0.664,0.897-0.73,2.002-0.735,3.074   c0,0.5,0.019,1,0.019,1.479c0.001,0.683-0.04,1.322-0.201,1.848c-0.164,0.529-0.421,0.94-0.902,1.271   c-0.363,0.251-0.846,0.37-1.314,0.533c-0.233,0.085-0.473,0.182-0.692,0.377c-0.223,0.19-0.379,0.522-0.371,0.856   c0.001,0.299,0.088,0.599,0.243,0.947l0,0c0.412,0.922,0.892,1.587,1.25,2.236c0.359,0.652,0.615,1.277,0.667,2.229   c0.015,0.276,0.019,0.557,0.019,0.841c0,0.473-0.013,0.954-0.013,1.442c0,0.625,0.021,1.262,0.125,1.904   c0.074,0.446,0.248,0.822,0.401,1.16c0.155,0.337,0.289,0.636,0.336,0.9l0.002,0.014l-0.003-0.014   c0.03,0.159,0.041,0.276,0.041,0.36c-0.005,0.169-0.022,0.206-0.098,0.354c-0.077,0.144-0.229,0.366-0.387,0.71   c-0.492,1.075-0.606,2.179-0.606,3.248c0.001,1.042,0.106,2.062,0.105,3.031c0,0.786-0.067,1.533-0.295,2.24l0.476,0.153   l-0.133-0.482c-0.772,0.215-1.443,0.489-2.151,0.616l-0.571,0.104l0.188,0.55c0.612,1.77,1.972,3.594,2.782,4.989   c0.459,0.777,0.888,1.372,1.047,2.097c0.079,0.348,0.08,0.7,0.116,1.105c0.037,0.4,0.127,0.867,0.432,1.317   c0.288,0.433,0.662,0.734,1.056,0.927c0.594,0.291,1.216,0.364,1.79,0.436c0.575,0.068,1.105,0.135,1.524,0.318   c0.316,0.135,0.604,0.362,0.921,0.629c0.318,0.264,0.664,0.569,1.119,0.796c0.531,0.264,0.866,0.326,0.969,0.378l0.144,0.105   c0.068,0.07,0.173,0.204,0.32,0.43c0.599,0.911,0.997,2.159,1.515,3.284l0.101,0.218l8.228,2.025l3.528,3.397l9.96-4.791   l42.571,22.612l0.275-3.297h5.54V37.775l-0.003-0.03c-0.179-1.448,0.002-2.912-0.458-4.394c-0.202-0.64-0.512-1.545-0.77-2.476   c-0.259-0.926-0.46-1.884-0.458-2.559c0-0.148,0.009-0.281,0.027-0.395l0,0c0.034-0.276,0.308-0.786,0.612-1.301   c0.298-0.529,0.632-1.063,0.714-1.667c0.024-0.207,0.036-0.397,0.036-0.575c0.006-0.799-0.257-1.338-0.465-1.729   c-0.207-0.404-0.346-0.648-0.352-1.183c0-0.19,0.021-0.418,0.076-0.699l0,0c0.004-0.022,0.018-0.06,0.112-0.142   c0.137-0.121,0.415-0.26,0.699-0.462c0.142-0.104,0.291-0.229,0.414-0.407c0.124-0.176,0.209-0.415,0.207-0.666v-0.02v-0.006v0.005   c-0.009-0.404-0.192-0.695-0.322-0.906c-0.139-0.214-0.232-0.37-0.252-0.475l0,0c-0.074-0.344-0.278-0.634-0.529-0.83   c-0.38-0.295-0.843-0.427-1.333-0.508c-0.492-0.078-1.021-0.096-1.537-0.097c-0.579,0-1.143,0.024-1.596,0.024   c-0.167,0-0.318-0.003-0.446-0.011c-0.186-0.013-0.284-0.051-0.38-0.104c-0.142-0.077-0.283-0.236-0.538-0.437   c-0.251-0.2-0.647-0.383-1.146-0.376c-0.687,0-0.873-0.005-1.05-0.018c-0.184-0.013-0.401-0.038-1.087-0.075l-0.027,0.5l0.5-0.018   c-0.005-0.161-0.069-0.298-0.136-0.391c-0.121-0.165-0.248-0.247-0.368-0.326c-0.18-0.112-0.361-0.201-0.485-0.278l-0.124-0.088   l-0.007-0.007l-0.118,0.106l0.147-0.047l-0.029-0.06l-0.118,0.106l0.147-0.047l0-0.001l-0.205,0.066h0.214l-0.009-0.066   l-0.205,0.066h0.214h-0.27l0.195,0.197c0.011-0.002,0.08-0.105,0.075-0.197h-0.27l0.195,0.197l-0.022-0.022l0.021,0.024   l0.002-0.001l-0.022-0.022l0.021,0.024c0.008-0.012,0.117-0.071,0.255-0.196c0.14-0.12,0.298-0.382,0.29-0.666   c-0.001-0.4-0.169-0.733-0.365-0.994c-0.198-0.263-0.435-0.469-0.652-0.628l0,0c-0.557-0.407-0.894-0.642-1.289-0.823   c-0.395-0.179-0.787-0.28-1.455-0.46l-0.011-0.003l0.011,0.003c-0.877-0.229-1.869-0.661-2.965-0.667   c-0.103,0-0.207,0.004-0.311,0.013l0,0l-0.19,0.008c-0.277,0.003-0.423-0.063-0.755-0.072c-0.25-0.004-0.537,0.084-0.813,0.26h0   c-0.948,0.589-1.661,0.647-2.758,0.907c-1.029,0.25-2.118,0.852-2.932,1.503l0,0c-0.26,0.209-0.573,0.492-0.884,0.767   c-0.309,0.273-0.618,0.538-0.825,0.683l-0.006,0.004l0.006-0.004c-0.288,0.208-0.582,0.528-0.869,0.888   c-0.283,0.362-0.537,0.736-0.681,1.081l0,0c-0.367,0.9-0.521,1.59-0.521,2.17c-0.008,0.833,0.356,1.398,0.649,1.783   c0.299,0.404,0.487,0.635,0.522,1.057l0,0c0.008,0.103,0.012,0.203,0.012,0.301c-0.001,0.801-0.25,1.501-0.653,2.167   c-0.403,0.664-0.964,1.282-1.555,1.873c-0.376,0.375-0.731,0.637-1.125,0.81c-0.394,0.172-0.837,0.264-1.413,0.265   c-0.137,0-0.281-0.005-0.433-0.016c-0.398-0.026-0.857-0.213-1.313-0.486c-0.457-0.271-0.905-0.619-1.31-0.928   c-0.863-0.652-1.652-1.541-2.825-2.059c-0.468-0.203-0.926-0.318-1.334-0.442c-0.409-0.124-0.763-0.254-1.05-0.452   c-0.354-0.241-0.807-0.439-1.306-0.625c-1.487-0.547-3.375-0.929-3.388-0.932l-0.155-0.032l-0.146,0.063   c-0.261,0.114-0.527,0.162-0.815,0.163c-0.467,0.001-0.989-0.135-1.526-0.321c-0.538-0.185-1.087-0.416-1.64-0.573   c-0.466-0.134-0.783-0.341-1.038-0.611c-0.38-0.403-0.619-0.985-0.806-1.668c-0.188-0.681-0.323-1.447-0.559-2.183l0,0   c-0.109-0.329-0.1-0.619-0.184-0.991c-0.044-0.184-0.132-0.402-0.307-0.581c-0.174-0.179-0.403-0.296-0.667-0.372l0,0   c-0.315-0.089-0.661-0.114-1.035-0.134c-0.556-0.028-1.169-0.034-1.658-0.104c-0.244-0.034-0.454-0.086-0.598-0.147   c-0.147-0.062-0.213-0.125-0.237-0.167v0c-0.184-0.295-0.372-0.511-0.573-0.667c-0.306-0.237-0.604-0.306-0.796-0.372   c-0.199-0.069-0.333-0.119-0.562-0.328l0,0c-0.498-0.452-1.11-0.495-1.628-0.516c-0.522-0.011-1.014,0.002-1.245-0.079   l-0.015-0.005l0.016,0.005c-0.117-0.04-0.142-0.073-0.297-0.229c-0.074-0.074-0.177-0.174-0.325-0.258   c-0.147-0.085-0.333-0.144-0.535-0.159c-0.132-0.01-0.266-0.015-0.4-0.015c-1.4,0.008-2.953,0.48-4.262,0.473   c-0.846-0.003-1.534-0.175-2.088-0.702h0c-0.413-0.385-0.959-0.603-1.488-0.822c-0.526-0.209-1.042-0.413-1.297-0.595l0,0   L19.881,9.549z"></path></g></svg>