<svg height='100px' width='100px'  fill="#000000" xmlns="http://www.w3.org/2000/svg" viewBox="0 0 128 128" x="0px" y="0px"><title>Alcoholism, mental health, disorder, mental illness, smoking, drugs, alcohol</title><g data-name="Layer 5"><path d="M93.05,104.2c-.25-3.93.94-9.35,3.34-12.47,9.58-12.43,13.83-23.21,11.83-36.47-1.77-11.64-7.03-20.32-14.83-25.99C91,24.9,89.65,21.18,89.65,16.61V5A3.256,3.256,0,0,0,86.4,1.75H81.27A3.25,3.25,0,0,0,78.02,5V16.61a20.89,20.89,0,0,1-.79,5.77,54.873,54.873,0,0,0-8.42-1.06C45.87,20.13,26.24,34.86,26.87,55.17c.08,2.69.55,6.63.54,9.21-.02,9.17-7.95,12.93-8.1,15.85-.25,4.79,5.37,3.29,7.36,10.07,2.51,8.6-1.1,18.41,10.62,17.8,4.68-.19,12.28-2,15.54,1.02,2.08,1.94,3.75,10.36,4.4,14.09A2.157,2.157,0,0,0,59.36,125h35.2a2.162,2.162,0,0,0,2.08-2.76C95.47,118.21,93.45,110.51,93.05,104.2ZM46.814,66.138c2.122-2.054,1.652-2.576.4-3.97-1.2-1.335-3.015-3.353-.9-6.723a1.25,1.25,0,0,1,2.118,1.33c-1.114,1.772-.492,2.465.638,3.722,1.328,1.476,3.334,3.707-.518,7.437a1.25,1.25,0,1,1-1.739-1.8ZM50.94,71.08v5.27H47.88a1,1,0,0,1-1-1V72.08a1,1,0,0,1,1-1ZM52.5,67.2a1.25,1.25,0,0,1,.029-1.767c3.849-3.727,2.717-4.985.664-7.269-1.853-2.062-4.392-4.886-1.34-9.743a1.25,1.25,0,0,1,2.117,1.33c-2.048,3.26-.735,4.72,1.083,6.742,2.023,2.251,4.8,5.334-.785,10.735A1.251,1.251,0,0,1,52.5,67.2Zm.94,9.146V71.08H70.59v5.04c0,.078.009.153.012.23Zm23.3,3.42a3.643,3.643,0,0,1-.721-.073c-.1-.02-.189-.057-.285-.085a2.2,2.2,0,0,1-.715-.292c-.092-.05-.188-.093-.275-.15a3.7,3.7,0,0,1-.321-.252c-.07-.058-.145-.11-.21-.173a3.784,3.784,0,0,1-.278-.316c-.055-.067-.115-.131-.166-.2a3.718,3.718,0,0,1-.215-.36c-.043-.079-.09-.154-.128-.237a3.749,3.749,0,0,1-.141-.385c-.03-.092-.063-.183-.086-.278a3.672,3.672,0,0,1-.064-.4,3.744,3.744,0,0,1-.045-.451V40.21a19.139,19.139,0,0,1,2.03-7.37,39.592,39.592,0,0,0,4.55-9.9,23.342,23.342,0,0,0,.76-4.33h6.81a25.338,25.338,0,0,0,2.08,8.09,52.74,52.74,0,0,0,3.22,6.14,19.138,19.138,0,0,1,2.04,7.37v2.947a1.99,1.99,0,0,0-.75-.149H82.538a2,2,0,0,0-2,2V68.417a2,2,0,0,0,2,2H93.83a1.99,1.99,0,0,0,.75-.149V76.12a3.658,3.658,0,0,1-3.65,3.65Z"></path></g></svg>