<svg height='100px' width='100px'  fill="#000000" xmlns="http://www.w3.org/2000/svg" xmlns:xlink="http://www.w3.org/1999/xlink" xmlns:serif="http://www.serif.com/" viewBox="0 0 123 123" version="1.1" xml:space="preserve" style="" x="0px" y="0px" fill-rule="evenodd" clip-rule="evenodd" stroke-linejoin="round" stroke-miterlimit="1.41421"><rect x="0" y="0" width="122.88" height="122.88" style="" fill="none"></rect><path d="M107.917,16.868c0.157,-0.018 0.313,-0.04 0.469,-0.063c1.027,-0.155 2.318,-0.556 2.7,0.467c0.243,0.65 0.071,1.415 -0.135,2.135l-1.038,2.702c-0.099,0.358 -0.166,0.723 -0.24,1.087c-0.016,0.079 -0.033,0.158 -0.05,0.236c-0.122,0.546 -0.284,1.11 -0.638,1.558c-0.627,0.796 -1.747,1.121 -2.297,1.953c-0.656,0.991 -0.442,2.352 -0.357,3.644c0.037,0.615 0.046,1.249 -0.16,1.838c-0.352,1.005 -1.234,1.76 -1.643,2.759c-0.511,1.248 -0.503,2.668 -1.025,3.926c-0.302,0.726 -0.823,1.36 -1.489,1.779c-0.493,0.309 -1.037,0.53 -1.585,0.724l-2.684,0.793l-2.664,0.946c-0.052,0.022 -0.103,0.045 -0.155,0.068c-0.132,0.059 -0.264,0.12 -0.395,0.184c-0.677,0.332 -1.355,0.764 -1.631,1.446c-0.325,0.802 -0.253,1.726 -0.612,2.553c-0.355,0.818 -1,1.522 -1.814,1.871c-0.921,0.396 -1.987,0.283 -2.875,0.71c-0.738,0.354 -1.301,1.004 -1.861,1.626l-1.952,2.117l-1.975,2.022c-0.653,0.692 -1.293,1.409 -2.095,1.917l-2.508,1.267c-1.029,0.667 -1.733,1.743 -2.462,2.742c-0.357,0.483 -0.746,0.956 -1.263,1.277c-0.85,0.527 -1.913,0.61 -2.804,1.097c-0.861,0.471 -1.498,1.259 -1.906,2.187c-0.309,0.716 -0.543,1.538 -1.197,1.896c-0.706,0.387 -1.57,0.113 -2.278,0.043c-0.307,-0.029 -0.618,-0.036 -0.921,0.015c-0.883,0.147 -1.662,0.636 -2.491,1.028c-0.647,0.311 -1.477,0.712 -1.295,1.252c0.264,0.782 1.453,1.281 1.266,2.201c-0.134,0.656 -0.865,0.96 -1.298,1.292c-0.573,0.445 -0.855,1.094 -1.057,1.899c-0.096,0.374 -0.231,0.749 -0.491,1.027c-0.491,0.526 -1.312,0.668 -1.887,1.099c-0.432,0.325 0.113,0.971 0.54,1.589c0.272,0.399 0.507,0.841 0.52,1.339c0.033,1.23 -0.902,2.274 -1.339,3.194c-0.236,0.495 -0.424,1.025 -0.435,1.578c-0.018,0.946 0.423,1.853 0.534,2.802c0.115,0.992 -0.007,1.975 0.267,3.017c0.223,0.832 0.696,1.822 0.082,2.387c-0.439,0.403 -1.095,0.312 -1.632,0.301c-0.165,-0.004 -0.331,-0.009 -0.496,-0.012c-0.043,0 -0.087,0 -0.13,0c-0.146,0.001 -0.387,-0.005 -0.335,0.064c0.367,0.461 0.915,0.773 1.362,1.203c1.093,1.051 1.41,2.684 1.33,4.294l-0.243,2.803c-0.017,0.982 0.125,1.974 -0.171,2.891c-0.331,1.027 -1.127,1.816 -1.51,2.9c-0.207,0.587 -0.337,1.232 -0.766,1.681l-1.421,1.267c-0.594,0.74 -0.803,1.942 -1.891,1.858c-0.464,-0.035 -0.897,-0.315 -1.347,-0.351c-0.419,-0.034 0.13,0.98 -0.289,1.678c-0.349,0.582 -1.123,0.649 -1.705,0.727c-0.163,0.022 -0.327,0.041 -0.49,0.063c-0.159,0.022 -0.386,0.074 -0.386,0.074l0.96,0.872c0,0 0.121,0.182 0.086,0.372c-0.091,0.497 -0.626,0.708 -1.031,0.944c-0.123,0.071 -0.246,0.142 -0.367,0.214c-0.053,0.031 -0.106,0.063 -0.158,0.096c-1.216,0.762 -1.645,2.38 -2.733,3.119c-0.306,0.207 -0.677,0.355 -1.053,0.293c-0.676,-0.11 -1.184,-0.781 -1.863,-0.848c-1.053,-0.103 -1.78,0.998 -3.06,1.191c-0.763,0.115 -1.534,-0.024 -2.282,-0.184c-1.004,-0.216 -2.019,-0.489 -2.891,-1.042c-0.601,-0.381 -1.145,-0.866 -1.818,-1.058c-0.896,-0.255 -1.967,0 -2.7,-0.54c-0.72,-0.532 -0.862,-1.593 -1.5,-2.291c-0.684,-0.747 -1.892,-0.992 -2.252,-1.905c-0.305,-0.772 0.106,-1.711 -0.095,-2.592c-0.189,-0.825 -0.971,-1.416 -1.269,-2.332c-0.261,-0.802 -0.161,-1.686 -0.011,-2.534l0.154,-1.083c0.031,-1.093 -0.574,-2.103 -1.153,-3.029c-0.293,-0.475 -0.604,-0.989 -0.587,-1.553l0.116,-1.142c0.041,-0.789 -0.29,-1.54 -0.591,-2.253l-1.141,-2.223c-0.992,-1.29 -2.856,-1.571 -4.159,-2.149c-0.24,-0.107 -0.534,-0.263 -0.438,-0.501c0.152,-0.376 0.83,-0.408 1.39,-0.586c0.773,-0.25 1.512,-0.665 1.877,-1.389c0.227,-0.451 0.356,-0.943 0.53,-1.419l1.226,-2.687c0.772,-2.619 0.78,-2.62 1.261,-5.307c0.024,-0.249 0.043,-0.499 0.072,-0.749c0.061,-0.523 0.169,-1.071 0.509,-1.496c0.518,-0.648 1.373,-0.956 1.821,-1.624c0.458,-0.684 0.429,-1.582 0.332,-2.462c-0.124,-1.131 -0.388,-2.364 -1.398,-2.799c-0.736,-0.317 -1.592,-0.361 -2.226,-0.869l-0.863,-0.876c-0.661,-0.506 -1.657,-0.473 -2.221,-1.107c-0.695,-0.781 -0.246,-2.02 -0.832,-2.889c-0.386,-0.572 -1.096,-0.792 -1.718,-0.993c-1.124,-0.356 -2.358,-0.69 -2.953,-1.654c-0.427,-0.691 -0.587,-1.595 -0.378,-2.314c0.082,-0.281 0.298,-0.55 0.611,-0.585c0.837,-0.094 1.658,0.621 2.532,1.109c0.784,0.433 1.625,0.783 2.531,0.855l0.03,0.002l2.555,-0.213c0.198,-0.031 0.397,-0.063 0.595,-0.094c1.355,-0.203 2.781,-0.318 4.025,0.204c0.389,0.163 0.773,0.44 0.906,0.86c0.004,-0.026 0.009,-0.052 0.014,-0.078c0.022,-0.109 0.051,-0.216 0.087,-0.322c0.029,-0.083 0.062,-0.165 0.1,-0.246c0.211,-0.454 0.568,-0.885 1.053,-0.938c0.755,-0.083 1.488,0.652 2.161,0.537c0.807,-0.138 1.257,-1.29 1.058,-2.15c-0.199,-0.858 -1.049,-1.527 -1.925,-1.501c-0.543,0.015 -1.062,0.244 -1.552,0.495l-1.119,0.553c-0.071,0.022 -0.112,0.07 -0.213,-0.061c-0.177,-0.23 0.355,-0.689 0.87,-1.073c0.52,-0.386 1.134,-0.686 1.766,-0.635c0.779,0.062 1.538,0.478 2.264,-0.003c0.317,-0.21 0.617,-0.469 0.8,-0.792c0,0 -0.554,0.141 -1.103,0.323c-0.86,0.282 -1.738,0.341 -2.722,0.246c-0.838,-0.075 -1.632,0.326 -2.533,0.403c-0.253,0.021 -0.522,-0.015 -0.727,-0.174c-0.017,-0.013 -0.03,-0.029 -0.044,-0.044l-0.674,-0.996c-0.025,-0.027 -0.053,-0.052 -0.083,-0.074c-0.37,-0.276 -0.87,-0.158 -1.281,-0.086c-0.73,0.133 -1.47,0.232 -2.204,0.131c-0.236,-0.032 -0.471,-0.074 -0.707,-0.113c-0.373,-0.06 -0.757,-0.12 -1.135,-0.057c-0.744,0.124 -1.345,0.651 -1.963,1.155c-0.693,0.569 -1.328,1.214 -2.124,1.666c-0.124,0.069 -0.299,0.166 -0.392,-0.032c0,0 -0.043,-0.03 0.019,-0.15c0,0 1.329,-1.743 1.329,-1.743c0.621,-0.639 1.342,-1.193 2.18,-1.452c1.024,-0.316 2.125,-0.278 3.201,-0.235l2.875,0.069c1.13,-0.049 2.24,-0.174 3.373,0.193c0.823,0.271 1.67,0.635 2.46,0.198c0.59,-0.325 1.045,-0.871 1.639,-1.186c0.249,-0.132 0.558,-0.211 0.825,-0.053c0.009,0.005 0.036,0.022 0.066,0.048l0.629,0.695c0.044,0.037 0.091,0.071 0.142,0.099c0.558,0.312 1.221,0.007 1.75,-0.186c1.049,-0.382 2.213,-0.597 3.027,-1.23c0.611,-0.475 1.014,-1.224 1.738,-1.498c0.903,-0.341 1.891,0.119 2.872,-0.038c0.982,-0.157 1.807,-0.805 2.738,-1.071c0.573,-0.164 1.176,-0.218 1.769,-0.166c1.037,0.092 2.068,0.589 3.024,0.353c0.906,-0.223 1.647,-0.979 2.585,-0.973c0.964,0.007 1.832,0.828 2.75,0.756c0.826,-0.065 1.491,-0.66 2.059,-1.193c0.575,-0.54 1.187,-1.126 1.374,-1.841c0.136,-0.521 -0.336,-0.997 -0.74,-1.309c-0.496,-0.383 -1.078,-0.748 -1.163,-1.353c-0.117,-0.835 0.55,-1.535 1.115,-2.05c0.891,-0.813 2.022,-1.482 3.208,-1.186c0.972,0.242 1.68,1.245 2.668,1.325c0.963,0.077 1.767,-0.659 2.411,-1.264c0.674,-0.632 1.316,-1.374 1.382,-2.287c0.123,-1.692 -1.518,-3.415 -0.914,-5.188c0.256,-0.751 0.812,-1.348 1.288,-2.005l0.042,-0.059l1.274,-2.466l0.898,-2.021l0.018,-0.03l1.548,-2.04c0.02,-0.035 0.039,-0.071 0.058,-0.106c0.43,-0.823 0.622,-1.785 1.201,-2.473c0.606,-0.72 1.577,-1.055 2.168,-1.782c0.647,-0.796 0.657,-1.91 0.987,-2.811c0.31,-0.846 0.828,-1.626 0.899,-2.526c0.087,-1.124 -0.468,-2.193 -0.536,-3.358c-0.069,-1.186 0.019,-2.365 0.05,-3.584c0.019,-0.741 0.165,-1.512 0.622,-2.098c0.636,-0.818 1.559,-1.379 2.175,-2.227c1.031,-1.419 1.393,-3.265 2.557,-4.535c0.79,-0.862 1.924,-1.479 3.059,-1.311c0.806,0.12 1.542,0.54 2.256,0.956l2.42,1.695l0.03,0.028l1.86,2.281l1.743,2.345l1.92,1.847c0.825,0.849 1.468,1.846 1.804,3.031c0.211,0.756 0.339,1.598 0.887,2.109c0.668,0.623 1.707,0.666 2.616,0.864l0.049,0.011l2.842,0.663l2.775,-0.083l2.751,0.044c0.014,-0.001 0.028,-0.003 0.042,-0.004Zm-76.927,40.899c0.113,0.007 0.227,0.065 0.253,0.184c0.042,0.201 -0.127,0.395 -0.284,0.576c-0.501,0.576 -1.221,0.997 -1.948,0.889c-0.631,-0.094 -1.255,-0.367 -1.867,-0.16c-0.47,0.159 -0.883,0.471 -1.259,0.806l-0.052,0.048c0.953,-0.472 1.934,-1.029 2.922,-0.725c0.977,0.302 1.707,1.317 1.598,2.336c-0.086,0.814 -0.551,1.672 -1.316,1.819c-0.959,0.184 -1.856,-0.953 -2.576,-0.363c-0.477,0.391 -0.752,1.102 -0.606,1.675c0.118,0.461 0.761,0.52 1.195,0.559c0.522,0.046 1.125,0.04 1.365,0.462c0.313,0.551 -0.01,1.205 -0.184,1.735c-0.221,0.668 -0.416,1.344 -0.62,2.018c-0.16,0.519 -0.31,1.146 -0.833,1.285c-0.493,0.131 -0.932,-0.272 -1.233,-0.57c-0.073,-0.073 -0.144,-0.149 -0.212,-0.228c-0.499,-0.579 -0.871,-1.289 -0.844,-2.069c0.039,-1.15 0.841,-2.172 0.824,-3.328c-0.01,-0.669 -0.754,-1.039 -1.315,-1.173c-1.272,-0.304 -2.616,-0.131 -3.937,0.08c0,0 -2.601,0.215 -2.601,0.215c-1.794,-0.127 -3.377,-1.822 -4.91,-1.968c-0.677,-0.064 -0.68,1.382 -0.26,2.245c0.404,0.83 1.386,1.248 2.224,1.515c1.057,0.331 2.257,0.549 2.705,1.607c0.353,0.835 0.1,1.951 0.652,2.571c0.513,0.577 1.545,0.507 2.203,1.088l0.851,0.865c0.783,0.627 1.988,0.492 2.753,1.202c0.742,0.688 0.882,1.777 0.981,2.712c0.106,0.999 0.099,2.088 -0.556,2.832c-0.514,0.582 -1.316,0.879 -1.745,1.532c-0.363,0.552 -0.371,1.261 -0.432,1.917l-0.008,0.075c0,0 -0.475,2.65 -0.475,2.65c0,0 -0.805,2.729 -0.805,2.729l-1.226,2.687c-0.331,0.906 -0.614,1.905 -1.378,2.436c-0.651,0.453 -1.492,0.575 -2.232,0.865c-0.064,0.025 -0.153,0.071 -0.153,0.071c0.244,0.184 0.568,0.265 0.873,0.37c1.338,0.453 2.737,0.833 3.635,1.986l0.037,0.053l1.153,2.245c0.322,0.763 0.662,1.558 0.618,2.403l-0.115,1.139c0.036,0.886 0.722,1.57 1.153,2.383c0.358,0.675 0.608,1.429 0.587,2.196c0,0 -0.158,1.113 -0.158,1.113c-0.151,0.856 -0.258,1.76 0.053,2.541c0.304,0.762 0.989,1.341 1.204,2.132c0.237,0.878 -0.183,1.909 0.101,2.628c0.347,0.877 1.555,1.055 2.258,1.886c0.585,0.691 0.72,1.731 1.434,2.207c0.759,0.505 1.847,0.197 2.746,0.524c0.853,0.31 1.497,0.983 2.332,1.371c0.858,0.398 1.795,0.607 2.716,0.773c0.762,0.136 1.574,0.188 2.306,-0.111c0.449,-0.184 0.852,-0.465 1.281,-0.691c0.385,-0.204 0.822,-0.383 1.269,-0.307c0.675,0.115 1.196,0.799 1.869,0.848c0.976,0.071 1.66,-1.202 2.199,-2.064c0.56,-0.887 1.56,-1.329 2.442,-2.02c0.027,-0.021 0.053,-0.043 0.079,-0.066c0.016,-0.014 0.031,-0.028 0.047,-0.043c0.014,-0.014 0.027,-0.028 0.04,-0.042c0.095,-0.103 0.102,-0.314 0.102,-0.314l-1.022,-0.928c0,0 -0.097,-0.13 -0.046,-0.251c0.107,-0.254 0.442,-0.234 0.677,-0.266c0.163,-0.022 0.327,-0.041 0.49,-0.063c0.555,-0.076 1.202,-0.158 1.473,-0.561c0.344,-0.512 -0.196,-1.453 0.285,-1.783c0.487,-0.335 1.179,0.511 1.944,0.255c0.77,-0.257 0.922,-1.279 1.361,-1.741l1.421,-1.268c0.536,-0.661 0.63,-1.593 1.027,-2.346c0.396,-0.752 0.982,-1.409 1.208,-2.229c0.238,-0.864 0.105,-1.798 0.122,-2.697l0.243,-2.807c0.055,-1.128 -0.013,-2.309 -0.579,-3.252c-0.454,-0.757 -1.248,-1.249 -1.882,-1.858c-0.17,-0.163 -0.398,-0.383 -0.219,-0.589c0.22,-0.253 0.595,-0.146 0.948,-0.138c0.637,0.016 1.425,0.168 1.773,-0.261c0.26,-0.322 0.112,-0.779 0.029,-1.133c-0.196,-0.836 -0.45,-1.664 -0.471,-2.537c-0.026,-1.032 -0.168,-2.022 -0.425,-3.096c-0.101,-0.427 -0.179,-0.866 -0.152,-1.307c0.084,-1.315 1.008,-2.433 1.496,-3.51c0.285,-0.629 0.375,-1.372 -0.029,-2.042c-0.454,-0.752 -1.339,-1.5 -0.801,-2.105c0.559,-0.63 1.77,-0.635 2.224,-1.519c0.31,-0.603 0.294,-1.358 0.669,-1.941c0.404,-0.63 1.178,-0.947 1.685,-1.486c0.153,-0.161 0.251,-0.387 0.177,-0.592c-0.225,-0.626 -0.916,-1.036 -1.2,-1.717c-0.067,-0.161 -0.097,-0.341 -0.053,-0.51c0.143,-0.554 0.733,-0.813 1.181,-1.04c1.017,-0.516 2.041,-1.135 3.108,-1.229c0.803,-0.07 1.61,0.221 2.398,0.138c0.961,-0.1 1.266,-1.428 1.753,-2.36c0.513,-0.979 1.393,-1.743 2.429,-2.136c0.778,-0.295 1.628,-0.419 2.297,-0.889c0.694,-0.487 1.147,-1.257 1.65,-1.952c0.55,-0.752 1.167,-1.476 1.953,-1.986c0,0 2.51,-1.268 2.51,-1.268c0.723,-0.459 1.314,-1.104 1.91,-1.738l0.123,-0.13l1.973,-2.02l1.949,-2.113c0.194,-0.216 0.388,-0.431 0.589,-0.64c0.684,-0.706 1.53,-1.219 2.56,-1.393c0.618,-0.1 1.251,-0.16 1.804,-0.429c1.031,-0.501 1.646,-1.605 1.838,-2.769c0.09,-0.567 0.144,-1.145 0.414,-1.654c0.428,-0.808 1.339,-1.255 2.249,-1.65l2.681,-0.952l2.684,-0.793c0.864,-0.306 1.745,-0.693 2.318,-1.366c1.181,-1.387 0.932,-3.573 1.725,-5.179c0.438,-0.886 1.218,-1.579 1.521,-2.494c0.455,-1.37 -0.168,-2.926 0.128,-4.453c0.081,-0.418 0.231,-0.83 0.49,-1.172c0.569,-0.753 1.574,-1.073 2.193,-1.812c0.637,-0.76 0.651,-1.882 0.915,-2.831c0,0 1.041,-2.71 1.041,-2.71c0.221,-0.775 0.442,-1.737 -0.011,-2.175c-0.352,-0.339 -0.898,-0.218 -1.326,-0.166c-0.478,0.058 -0.953,0.151 -1.432,0.202c0,0 -2.772,-0.044 -2.772,-0.044l-2.788,0.084l-0.038,-0.004l-2.86,-0.668c-0.288,-0.064 -0.578,-0.118 -0.868,-0.175c-0.737,-0.15 -1.506,-0.312 -2.014,-0.852c-0.691,-0.732 -0.748,-1.884 -1.091,-2.79c-0.326,-0.859 -0.882,-1.613 -1.528,-2.277c0,0 -1.941,-1.871 -1.941,-1.871l-1.747,-2.349c-1.838,-2.255 -1.852,-2.268 -4.235,-3.936c-0.823,-0.48 -1.701,-0.997 -2.651,-0.935c-1.193,0.077 -2.235,0.997 -2.865,2.023c-0.875,1.424 -1.295,3.121 -2.468,4.347c-0.683,0.714 -1.614,1.234 -1.994,2.168c-0.377,0.925 -0.205,1.994 -0.238,2.956c-0.038,1.075 -0.095,2.153 0.156,3.198c0.2,0.835 0.463,1.67 0.284,2.533c-0.184,0.89 -0.696,1.672 -0.963,2.544c-0.277,0.901 -0.345,1.885 -0.949,2.613c-0.612,0.738 -1.617,1.08 -2.209,1.833c-0.57,0.725 -0.688,1.728 -1.192,2.495l-1.544,2.035l-0.895,2.013l-1.293,2.501c-0.491,0.692 -1.111,1.336 -1.329,2.099c-0.332,1.158 0.359,2.432 0.736,3.604c0.184,0.572 0.306,1.194 0.169,1.775c-0.338,1.431 -1.738,2.61 -2.848,3.173c-0.588,0.298 -1.311,0.372 -1.918,0.078c-0.786,-0.38 -1.417,-1.088 -2.288,-1.173c-1.652,-0.161 -3.182,1.396 -3.581,2.371c-0.085,0.206 -0.134,0.438 -0.079,0.658c0.146,0.588 0.778,0.872 1.209,1.218c0.327,0.267 0.654,0.575 0.709,1.001c0.087,0.68 -0.39,1.279 -0.802,1.753c-0.455,0.524 -0.961,1.008 -1.527,1.408c-0.532,0.376 -1.176,0.666 -1.847,0.563c-0.844,-0.129 -1.578,-0.787 -2.428,-0.736c-0.886,0.052 -1.59,0.794 -2.509,0.982c-1.006,0.205 -2.048,-0.294 -3.1,-0.371c-0.569,-0.042 -1.145,0.02 -1.69,0.189c-0.974,0.303 -1.833,0.97 -2.841,1.072c-1.01,0.102 -2.137,-0.397 -2.952,0.162c-0.62,0.426 -1.031,1.127 -1.695,1.524c-0.91,0.543 -1.964,0.765 -2.992,1.123c-0.104,0.036 -0.207,0.07 -0.312,0.101c-0.088,0.026 -0.176,0.05 -0.266,0.071c-0.473,0.109 -1.035,0.128 -1.411,-0.238l-0.623,-0.687c-0.319,-0.196 -0.654,0.107 -0.895,0.286c-0.625,0.466 -1.183,1.085 -1.981,1.187c-0.973,0.123 -1.914,-0.51 -2.95,-0.631c-0.739,-0.086 -1.482,0.001 -2.231,0.038l-0.093,0.004l-2.888,-0.069c-0.219,-0.009 -0.438,-0.016 -0.657,-0.021c-1.061,-0.018 -2.155,0.023 -3.083,0.504c-0.535,0.277 -0.993,0.677 -1.41,1.107l-0.872,1.145c0.799,-0.604 1.532,-1.292 2.339,-1.876c0.428,-0.311 0.901,-0.591 1.432,-0.67c0.908,-0.135 1.82,0.262 2.762,0.229c0.986,-0.034 2.023,-0.589 2.756,-0.042c0.053,0.039 0.104,0.084 0.145,0.135l0.667,0.988c0.373,0.284 0.879,0.05 1.268,-0.066c0.099,-0.029 0.199,-0.059 0.298,-0.088c1.006,-0.287 2.103,0.046 3.11,-0.106c0.69,-0.105 1.338,-0.422 2.008,-0.582c0.094,-0.023 0.159,-0.042 0.285,-0.039Zm-5.399,7.283c-0.171,1.242 -1.062,2.397 -0.732,3.623c0.225,0.838 0.858,1.661 1.555,1.917c0.499,0.184 0.811,-0.691 1.01,-1.392c0.275,-0.967 0.757,-1.942 0.794,-2.814c0.018,-0.437 -0.405,-0.597 -1.325,-0.687c-0.044,-0.004 -0.087,-0.009 -0.131,-0.014c-0.057,-0.007 -0.115,-0.015 -0.172,-0.024c-0.043,-0.007 -0.086,-0.014 -0.128,-0.022c-0.353,-0.071 -0.729,-0.247 -0.867,-0.611c0,0 -0.002,0.015 -0.004,0.024Z" style="" fill-rule="nonzero"></path></svg>