<svg height='100px' width='100px'  fill="#000000" xmlns:dc="http://purl.org/dc/elements/1.1/" xmlns:cc="http://creativecommons.org/ns#" xmlns:rdf="http://www.w3.org/1999/02/22-rdf-syntax-ns#" xmlns:svg="http://www.w3.org/2000/svg" xmlns="http://www.w3.org/2000/svg" xmlns:sodipodi="http://sodipodi.sourceforge.net/DTD/sodipodi-0.dtd" xmlns:inkscape="http://www.inkscape.org/namespaces/inkscape" viewBox="0 0 100 100" version="1.1" x="0px" y="0px"><g transform="translate(0,-952.36213)"><path style="color:#000000;font-style:normal;font-variant:normal;font-weight:normal;font-stretch:normal;font-size:medium;line-height:normal;font-family:sans-serif;text-indent:0;text-align:start;text-decoration:none;text-decoration-line:none;text-decoration-style:solid;text-decoration-color:#000000;letter-spacing:normal;word-spacing:normal;text-transform:none;direction:ltr;block-progression:tb;writing-mode:lr-tb;baseline-shift:baseline;text-anchor:start;white-space:normal;clip-rule:nonzero;display:inline;overflow:visible;visibility:visible;opacity:1;isolation:auto;mix-blend-mode:normal;color-interpolation:sRGB;color-interpolation-filters:linearRGB;solid-color:#000000;solid-opacity:1;fill:#000000;fill-opacity:1;fill-rule:evenodd;stroke:none;stroke-width:5.25;stroke-linecap:butt;stroke-linejoin:miter;stroke-miterlimit:4;stroke-dasharray:none;stroke-dashoffset:0;stroke-opacity:1;color-rendering:auto;image-rendering:auto;shape-rendering:auto;text-rendering:auto;enable-background:accumulate" d="m 49.991228,976.61462 c -2.760249,0 -5.005197,2.245 -5.005197,5.0052 0,2.7775 2.245696,5.0052 5.005197,5.0052 2.777389,0 5.028586,-2.2277 5.028586,-5.0052 0,-2.7602 -2.251122,-5.0052 -5.028586,-5.0052 z m -33.868405,1.4721 c -2.760249,0 -5.005197,2.2449 -5.005197,5.0052 0,2.7774 2.245696,5.0052 5.005197,5.0052 2.777389,0 5.028587,-2.2278 5.028587,-5.0052 0,-2.7603 -2.251123,-5.0052 -5.028587,-5.0052 z m 67.754352,0 c -2.777463,0 -5.028586,2.2449 -5.028586,5.0052 0,2.7774 2.251198,5.0052 5.028586,5.0052 2.759501,0 5.005198,-2.2278 5.005198,-5.0052 0,-2.7603 -2.244948,-5.0052 -5.005198,-5.0052 z m -40.516664,10.0089 c -0.647401,0.031 -1.237977,0.3784 -1.578742,0.9297 l -7.003475,10.98248 c -0.831967,1.307 0.105483,3.0179 1.654755,3.0201 l 10.779301,0.01 c 2.656815,0.037 2.656815,-3.96678 0,-3.92928 l -7.199357,-0.01 3.194029,-5.0082 0,4.2626 13.588878,0 0,-4.2523 3.189644,5.0008 -7.199357,0.01 c -2.656815,-0.037 -2.656815,3.96688 0,3.92938 l 10.779301,-0.01 c 1.55002,0 2.488633,-1.7126 1.656217,-3.0201 l -7.004937,-10.98248 c -0.351169,-0.5679 -0.966682,-0.9186 -1.634291,-0.9311 l -6.594172,0 -6.595634,0 c -0.01048,3e-4 -0.02168,0 -0.03216,0 l 0,0 z m -30.620289,0.7791 -0.0058,0 c -2.933513,-0.084 -3.659571,1.0629 -4.253833,5.5022 l 0,0.02 -1.606517,12.04528 c -0.760191,5.6972 -1.019928,7.6437 5.969985,7.6437 l 3.805061,0 5.021277,0 0,11.1491 c -0.02694,1.8978 1.389854,2.8462 2.806653,2.8462 1.416723,0 2.833447,-0.9484 2.806653,-2.8462 l 0,-13.9558 c -1.5e-4,-1.55 -1.256632,-2.8065 -2.806653,-2.8066 l -6.994705,0 1.347778,-10.09958 1.907647,3.60038 c 0.340391,0.6427 1.007894,1.0448 1.735154,1.0452 l 7.655438,0.01 c 2.656815,0.037 2.656815,-3.96688 0,-3.92928 l -6.474305,-0.01 -2.923596,-5.5168 0,-0.01 c -1.669323,-3.1486 -2.820785,-4.0873 -6.727196,-4.6003 -0.457447,-0.047 -0.883609,-0.083 -1.262994,-0.094 z m 74.519554,0 c -0.379384,0.011 -0.805546,0.046 -1.262993,0.094 -3.906412,0.513 -5.057874,1.4517 -6.727196,4.6003 l 0,0.01 -2.923597,5.5168 -6.474305,0.01 c -2.656815,-0.038 -2.656815,3.96678 0,3.92928 l 7.655438,-0.01 c 0.72726,-4e-4 1.394764,-0.4025 1.735155,-1.0452 l 1.907646,-3.60038 1.347779,10.09958 -6.994705,0 c -1.550021,10e-5 -2.806503,1.2566 -2.806653,2.8066 l 0,13.9558 c -0.02679,1.8978 1.38993,2.8462 2.806653,2.8462 1.416798,0 2.833597,-0.9484 2.806653,-2.8462 l 0,-11.1491 5.021277,0 3.805061,0 c 6.989913,0 6.730174,-1.9465 5.969984,-7.6437 l -1.606516,-12.04528 0,-0.02 c -0.594262,-4.4393 -1.32032,-5.5863 -4.253833,-5.5022 l -0.0058,0 z m -60.650012,14.91618 0,3.9293 46.78047,0 0,-3.9293 -46.78047,0 z m 3.929314,4.6851 0,19.61 3.929314,0 0,-19.61 -3.929314,0 z m 10.467938,0 1.305386,16.9773 a 2.8069334,2.8069334 0 1 0 5.595764,-0.4312 l -1.071498,-13.9558 6.326663,0 -1.07296,13.9558 a 2.8069334,2.8069334 0 1 0 5.597225,0.4312 l 1.305386,-16.9773 -5.630846,0 -6.724272,0 -5.630848,0 z m 24.52459,0 0,19.61 3.929314,0 0,-19.61 -3.929314,0 z M 5,1014.8436 l 0,13.241 3.929314,0 0,-9.3117 8.054509,0 0,9.3117 3.929313,0 0,-9.3117 0,-3.9293 -3.929313,0 -8.054509,0 -3.929314,0 z m 74.086862,0 0,3.9293 0,9.3117 3.929314,0 0,-9.3117 8.054509,0 0,9.3117 3.929315,0 0,-13.241 -3.929315,0 -8.054509,0 -3.929314,0 z"></path></g></svg>