<svg height='100px' width='100px'  fill="#000000" xmlns="http://www.w3.org/2000/svg" xmlns:xlink="http://www.w3.org/1999/xlink" version="1.1" x="0px" y="0px" viewBox="0 0 100 100" style="enable-background:new 0 0 100 100;" xml:space="preserve"><path d="M26.6708984,10.3349609L10.3466797,28.6547852c-0.2617188,0.2939453-0.3261719,0.7148438-0.1650391,1.0742188  s0.5185547,0.5908203,0.9121094,0.5908203h7.8671875v13.199707c0,0.5522461,0.4472656,1,1,1h14.8525391c0.5527344,0,1-0.4477539,1-1  v-13.199707h7.9287109c0.3935547,0,0.7509766-0.2314453,0.9121094-0.5908203s0.0966797-0.7802734-0.1650391-1.0742188  L28.1650391,10.3349609C27.7841797,9.9082031,27.0517578,9.9082031,26.6708984,10.3349609z M41.5117188,28.3198242h-6.6982422  c-0.5527344,0-1,0.4477539-1,1v13.199707H20.9609375v-13.199707c0-0.5522461-0.4472656-1-1-1h-6.6367188l14.09375-15.8168945  L41.5117188,28.3198242z"></path><path d="M89,42.5195312h-0.5654297V15.6689453c0-0.5522461-0.4472656-1-1-1H73.3789062c-0.5527344,0-1,0.4477539-1,1v26.8505859  h-3.3505859V11c0-0.5522461-0.4472656-1-1-1H53.9736328c-0.5527344,0-1,0.4477539-1,1v31.5195312h-0.5664062  c-0.5527344,0-1,0.4477539-1,1s0.4472656,1,1,1H89c0.5527344,0,1-0.4477539,1-1S89.5527344,42.5195312,89,42.5195312z   M74.3789062,16.6689453h12.0556641v25.8505859H74.3789062V16.6689453z M54.9736328,12h12.0546875v30.5195312H54.9736328V12z"></path><path d="M13.8154297,56.590332c0,2.8598633,2.3271484,5.1865234,5.1865234,5.1865234S24.1875,59.4501953,24.1875,56.590332  c0-2.859375-2.3261719-5.1860352-5.1855469-5.1860352S13.8154297,53.730957,13.8154297,56.590332z M22.1875,56.590332  c0,1.7568359-1.4287109,3.1865234-3.1855469,3.1865234s-3.1865234-1.4296875-3.1865234-3.1865234  s1.4296875-3.1860352,3.1865234-3.1860352S22.1875,54.8334961,22.1875,56.590332z"></path><path d="M12.5097656,79.6801758V89c0,0.5522461,0.4472656,1,1,1h10.9833984c0.5527344,0,1-0.4477539,1-1v-9.3198242  c1.4238281-0.4301758,2.4638672-1.7543945,2.4638672-3.3164062V67.331543c0-1.9995117-1.6269531-3.6264648-3.6259766-3.6264648  H13.671875c-1.9990234,0-3.6259766,1.6269531-3.6259766,3.6264648v9.0322266  C10.0458984,77.9257812,11.0859375,79.25,12.5097656,79.6801758z M12.0458984,67.331543  c0-0.8969727,0.7294922-1.6264648,1.6259766-1.6264648h10.6591797c0.8964844,0,1.6259766,0.7294922,1.6259766,1.6264648v9.0322266  c0,0.8071289-0.65625,1.4633789-1.4638672,1.4633789c-0.5527344,0-1,0.4477539-1,1V88h-8.9833984v-9.1728516  c0-0.5522461-0.4472656-1-1-1c-0.8076172,0-1.4638672-0.65625-1.4638672-1.4633789V67.331543z"></path><path d="M65.5498047,56.590332c0-2.859375-2.3271484-5.1860352-5.1865234-5.1860352s-5.1865234,2.3266602-5.1865234,5.1860352  c0,2.8598633,2.3271484,5.1865234,5.1865234,5.1865234S65.5498047,59.4501953,65.5498047,56.590332z M57.1767578,56.590332  c0-1.7568359,1.4296875-3.1860352,3.1865234-3.1860352s3.1865234,1.4291992,3.1865234,3.1860352  s-1.4296875,3.1865234-3.1865234,3.1865234S57.1767578,58.347168,57.1767578,56.590332z"></path><path d="M54.8710938,90h10.984375c0.5527344,0,1-0.4477539,1-1v-9.3198242  c1.4238281-0.4301758,2.4638672-1.7543945,2.4638672-3.3164062V67.331543c0-1.9995117-1.6269531-3.6264648-3.6269531-3.6264648  H55.0341797c-2,0-3.6269531,1.6269531-3.6269531,3.6264648v9.0322266c0,1.5620117,1.0400391,2.8862305,2.4638672,3.3164062V89  C53.8710938,89.5522461,54.3183594,90,54.8710938,90z M53.4072266,76.3637695V67.331543  c0-0.8969727,0.7294922-1.6264648,1.6269531-1.6264648h10.6582031c0.8974609,0,1.6269531,0.7294922,1.6269531,1.6264648v9.0322266  c0,0.8071289-0.65625,1.4633789-1.4638672,1.4633789c-0.5527344,0-1,0.4477539-1,1V88h-8.984375v-9.1728516  c0-0.5522461-0.4472656-1-1-1C54.0634766,77.8271484,53.4072266,77.1708984,53.4072266,76.3637695z"></path><path d="M44.8691406,56.590332c0-2.859375-2.3271484-5.1860352-5.1865234-5.1860352s-5.1865234,2.3266602-5.1865234,5.1860352  c0,2.8598633,2.3271484,5.1865234,5.1865234,5.1865234S44.8691406,59.4501953,44.8691406,56.590332z M36.4960938,56.590332  c0-1.7568359,1.4296875-3.1860352,3.1865234-3.1860352s3.1865234,1.4291992,3.1865234,3.1860352  s-1.4296875,3.1865234-3.1865234,3.1865234S36.4960938,58.347168,36.4960938,56.590332z"></path><path d="M35.5839844,90H43.78125c0.5527344,0,1-0.4477539,1-1v-5.1020508h2.8574219  c0.2880859,0,0.5625-0.1245117,0.7529297-0.3417969c0.1894531-0.2172852,0.2763672-0.5058594,0.2382812-0.7915039  l-2.1679688-16.1191406c-0.2402344-1.6762695-1.6972656-2.9404297-3.390625-2.9404297h-6.7783203  c-1.6933594,0-3.1513672,1.2646484-3.390625,2.9487305l-2.1669922,16.1108398  c-0.0380859,0.2856445,0.0488281,0.5742188,0.2382812,0.7915039c0.1904297,0.2172852,0.4648438,0.3417969,0.7529297,0.3417969  h2.8574219V89C34.5839844,89.5522461,35.03125,90,35.5839844,90z M32.8701172,81.8979492l2.0136719-14.9702148  c0.0986328-0.6967773,0.7050781-1.2226562,1.4091797-1.2226562h6.7783203c0.7041016,0,1.3105469,0.5258789,1.4091797,1.215332  l2.0146484,14.9775391H43.78125c-0.5527344,0-1,0.4477539-1,1V88h-6.1972656v-5.1020508c0-0.5522461-0.4472656-1-1-1H32.8701172z"></path><path d="M86.2304688,56.590332c0-2.859375-2.3271484-5.1860352-5.1865234-5.1860352s-5.1855469,2.3266602-5.1855469,5.1860352  c0,2.8598633,2.3261719,5.1865234,5.1855469,5.1865234S86.2304688,59.4501953,86.2304688,56.590332z M77.8583984,56.590332  c0-1.7568359,1.4287109-3.1860352,3.1855469-3.1860352s3.1865234,1.4291992,3.1865234,3.1860352  s-1.4296875,3.1865234-3.1865234,3.1865234S77.8583984,58.347168,77.8583984,56.590332z"></path><path d="M76.9453125,90h8.1972656c0.5527344,0,1-0.4477539,1-1v-5.1020508H89c0.2880859,0,0.5625-0.1245117,0.7529297-0.3417969  c0.1894531-0.2172852,0.2763672-0.5058594,0.2382812-0.7915039l-2.1679688-16.1181641  c-0.2382812-1.6767578-1.6962891-2.9414062-3.3896484-2.9414062h-6.7783203c-1.6933594,0-3.1503906,1.2641602-3.3916016,2.9487305  l-2.1660156,16.1108398c-0.0380859,0.2861328,0.0488281,0.574707,0.2382812,0.7915039  c0.1904297,0.2172852,0.4648438,0.3417969,0.7529297,0.3417969h2.8564453V89C75.9453125,89.5522461,76.3925781,90,76.9453125,90z   M74.2324219,81.8979492l2.0126953-14.9692383c0.0996094-0.6977539,0.7060547-1.2236328,1.4101562-1.2236328h6.7783203  c0.7041016,0,1.3105469,0.5258789,1.4082031,1.215332l2.0146484,14.9775391h-2.7138672c-0.5527344,0-1,0.4477539-1,1V88h-6.1972656  v-5.1020508c0-0.5522461-0.4472656-1-1-1H74.2324219z"></path></svg>