<svg height='100px' width='100px'  fill="#000000" xmlns="http://www.w3.org/2000/svg" data-name="Layer 1" viewBox="0 0 100 100" x="0px" y="0px"><title>Artboard 7</title><path d="M6.33,89.22H21.81a3.75,3.75,0,0,0,3.35-2.06l4.21-8.35,4.36,17.35A3.75,3.75,0,0,0,37,99l.38,0a3.75,3.75,0,0,0,3.38-2.12l6.81-14.1H63.3a3.75,3.75,0,0,0,0-7.5H45.2a3.75,3.75,0,0,0-3.38,2.12l-3.34,6.92-4.3-17.09a3.75,3.75,0,0,0-7-.77L19.5,81.72H6.33a3.75,3.75,0,0,0,0,7.5Z"></path><path d="M97.42,65a34,34,0,0,0-18.08-30,14.14,14.14,0,0,0-9.61-15.62l2-7.47a6.13,6.13,0,0,0-4.33-7.5L55.71,1.21a6.13,6.13,0,0,0-7.5,4.33L37.77,44.48A6.12,6.12,0,0,0,42,52l-1.34,5a3.74,3.74,0,0,0,2.65,4.58L48,62.76a3.74,3.74,0,0,0,4.58-2.65l1.34-5a6.12,6.12,0,0,0,7.43-4.35l1-3.91a14.26,14.26,0,0,0,12.77-3.73A24.79,24.79,0,0,1,63.39,89.79H52L47.57,99H63.39A34.07,34.07,0,0,0,97.42,65ZM65.22,38a5.09,5.09,0,1,1,5.09-5.09A5.09,5.09,0,0,1,65.22,38Z"></path></svg>