<svg height='100px' width='100px'  fill="#000000" xmlns="http://www.w3.org/2000/svg" data-name="Слой 1" viewBox="0 0 128 128" x="0px" y="0px"><title>ic_books</title><path d="M127.34,124.47S124,121.55,124,118s3.33-6.41,3.39-6.47a2,2,0,0,0,.66-2V24a2,2,0,0,0-2-2h-8a2,2,0,0,0,0,4h6v82H57.86A9.75,9.75,0,0,0,52,109.92V89a2,2,0,0,0-4,0v29a9.82,9.82,0,0,0,9.86,10h68.2a2,2,0,0,0,1.28-3.53ZM60.14,124H57.86a6,6,0,0,1,0-12H121.8a10.68,10.68,0,0,0,0,12Z"></path><path d="M54.71,84.52a1.77,1.77,0,0,0,.43.28,2,2,0,0,0,2.12-.25c.11-.08,11.19-8.9,25.74-8.9a42.38,42.38,0,0,1,25.68,8.85A2,2,0,0,0,110,85a2,2,0,0,0,.83-.18A2,2,0,0,0,112,83V12.9a2,2,0,0,0-.57-1.39C111,11,100,0,83,0,69.88,0,59.62,6.8,56,9.53A44.19,44.19,0,0,0,29,0C12.9,0,1.12,11,.63,11.45A2,2,0,0,0,0,12.9V83a2,2,0,0,0,1.14,1.8,2,2,0,0,0,2.12-.25c.11-.08,11.19-8.9,25.74-8.9a42.28,42.28,0,0,1,25.68,8.86ZM58,13.08C60.62,11,70.54,4,83,4c13.22,0,22.65,7.66,25,9.77v65.3a46.45,46.45,0,0,0-25-7.42c-11.24,0-20.38,4.63-25,7.53Zm-4,66a46.45,46.45,0,0,0-25-7.42c-11.24,0-20.38,4.63-25,7.53V13.81C6.53,11.66,16.44,4,29,4a40.63,40.63,0,0,1,25,9Z"></path><path d="M14.55,19.45a2,2,0,0,0,1.84,1.22,2.16,2.16,0,0,0,.78-.15A30.48,30.48,0,0,1,29,18a33.43,33.43,0,0,1,12,2.26,2,2,0,0,0,1.43-3.74A37.53,37.53,0,0,0,29,14a34.41,34.41,0,0,0-13.38,2.83A2,2,0,0,0,14.55,19.45Z"></path><path d="M16.39,33.92a2,2,0,0,0,.78-.16A30.47,30.47,0,0,1,29,31.25a2,2,0,0,0,0-4,34.58,34.58,0,0,0-13.38,2.82,2,2,0,0,0,.77,3.85Z"></path><path d="M42.44,43.91A37.32,37.32,0,0,0,29,41.39a34.58,34.58,0,0,0-13.38,2.82,2,2,0,1,0,1.55,3.69A30.47,30.47,0,0,1,29,45.39a33.63,33.63,0,0,1,12,2.25,2,2,0,1,0,1.43-3.73Z"></path><path d="M42.44,56.85A37.53,37.53,0,0,0,29,54.33a34.41,34.41,0,0,0-13.38,2.83,2,2,0,1,0,1.55,3.68A30.47,30.47,0,0,1,29,58.33a33.43,33.43,0,0,1,12,2.26,2,2,0,0,0,1.43-3.74Z"></path><path d="M70.39,20.67a2.16,2.16,0,0,0,.78-.15A30.48,30.48,0,0,1,83,18a33.43,33.43,0,0,1,12,2.26,2,2,0,0,0,1.43-3.74A37.53,37.53,0,0,0,83,14a34.41,34.41,0,0,0-13.38,2.83,2,2,0,0,0,.77,3.84Z"></path><path d="M70.39,33.92a2,2,0,0,0,.78-.16A30.47,30.47,0,0,1,83,31.25,33.63,33.63,0,0,1,95,33.5a2,2,0,0,0,1.43-3.73A37.32,37.32,0,0,0,83,27.25a34.58,34.58,0,0,0-13.38,2.82,2,2,0,0,0,.77,3.85Z"></path><path d="M70.39,48.06a2,2,0,0,0,.78-.16A30.47,30.47,0,0,1,83,45.39a33.63,33.63,0,0,1,12,2.25,2,2,0,0,0,1.43-3.73A37.32,37.32,0,0,0,83,41.39a34.58,34.58,0,0,0-13.38,2.82,2,2,0,0,0,.77,3.85Z"></path><path d="M85,56.33a2,2,0,0,0-2-2,34.41,34.41,0,0,0-13.38,2.83,2,2,0,1,0,1.55,3.68A30.47,30.47,0,0,1,83,58.33,2,2,0,0,0,85,56.33Z"></path></svg>