<svg height='100px' width='100px'  fill="#000000" xmlns="http://www.w3.org/2000/svg" xmlns:xlink="http://www.w3.org/1999/xlink" version="1.1" x="0px" y="0px" viewBox="0 0 91 91" enable-background="new 0 0 91 91" xml:space="preserve"><g><path d="M86.174,79.371c1.326,0,2.4-1.076,2.4-2.4c0-0.584-0.207-1.117-0.553-1.533L47.371,12.57   c-0.443-0.686-1.201-1.098-2.016-1.098s-1.574,0.412-2.016,1.098L2.539,75.668c-0.477,0.736-0.512,1.678-0.092,2.449   s1.229,1.254,2.107,1.254h81.6C86.16,79.369,86.168,79.369,86.174,79.371z M8.965,74.57L23.24,52.494   c0.398,0.885,1.285,1.502,2.318,1.502h0.303c-1.139,1.666-1.785,3.684-1.785,5.816c0,2.563,0.916,4.91,2.426,6.674   c-0.014,0.086-0.025,0.172-0.025,0.262v4.189c0,1.502,0.752,2.826,1.895,3.633H8.965z M34.236,70.938   c0,0.582-0.475,1.059-1.061,1.059h-2.25c-0.584,0-1.059-0.477-1.059-1.059v-1.959c0.744,0.314,1.531,0.537,2.355,0.635   c0.369,0.047,0.711,0.068,1.047,0.068h0.967V70.938z M31.533,51.641c2.006-4.369,6.641-6.586,13.818-6.586   c7.188,0,11.818,2.217,13.828,6.586H31.533z M60.195,60.471c0,1.875-1.527,3.4-3.402,3.4s-3.4-1.525-3.4-3.4s1.525-3.398,3.4-3.398   S60.195,58.596,60.195,60.471z M33.764,57.072c1.875,0,3.396,1.523,3.396,3.398s-1.521,3.4-3.396,3.4s-3.4-1.525-3.4-3.4   S31.889,57.072,33.764,57.072z M35.732,74.57c1.143-0.807,1.895-2.131,1.895-3.633v-1.256H53.08v1.256   c0,1.502,0.752,2.826,1.895,3.633H35.732z M60.84,70.938c0,0.582-0.477,1.059-1.061,1.059h-2.246c-0.588,0-1.063-0.477-1.063-1.059   v-1.256h0.971c0.332,0,0.672-0.021,1.041-0.064c0.828-0.1,1.619-0.322,2.357-0.637V70.938z M61.598,48.951   c-2.82-4.779-8.35-7.291-16.246-7.291c-7.895,0-13.422,2.512-16.238,7.291c-0.137-0.021-0.271-0.041-0.414-0.041h-3.141h-0.002   l19.799-30.617L65.152,48.91l0,0h-3.141C61.867,48.91,61.732,48.93,61.598,48.951z M62.336,74.57   c1.143-0.807,1.895-2.131,1.895-3.633v-4.189c0-0.09-0.014-0.176-0.025-0.26c1.512-1.764,2.424-4.111,2.424-6.676   c0-2.133-0.643-4.15-1.781-5.816h0.305c1.035,0,1.92-0.619,2.316-1.504L81.744,74.57H62.336z"></path></g></svg>