<svg height='100px' width='100px'  fill="#000000" xmlns="http://www.w3.org/2000/svg" xmlns:xlink="http://www.w3.org/1999/xlink" version="1.1" x="0px" y="0px" viewBox="0 0 100 100" enable-background="new 0 0 100 100" xml:space="preserve"><g><path fill="none" stroke="#000000" stroke-width="0.5" stroke-linecap="round" stroke-linejoin="round" stroke-miterlimit="10" d="   M64.294,71.013L66,91.875l-30.875-0.75L31,14.75c0.603-0.151,1.569-1.981,1.991-2.647c1.175-1.856,3.058-2.442,4.912-3.5   c1.277-0.728,1.856-1.585,3.35-1.385c1.086,0.145,2.038,0.59,3.147,0.656c2.008,0.121,2.676,1.205,4.259,2.031   c-2.14,0.34-1.862,3.147-2.688,4.594c-0.302,0.53-0.971,1.591-1.472,1.89c-0.39,0.232-1.436,0.036-2.003,0.579   c-0.405,0.388-0.471,1.006-0.896,1.43c-0.667,0.664-1.243,0.234-1.972,0.72c-1.315,0.876-0.863,3.192-0.106,4.233   c1.413-0.019,2.243,0.777,2.45,2.139c0.283,1.861-1.448,2.032-1.73,3.506c-0.263,1.371,0.777,2.013,1.637,2.787   c1.069,0.963,1.242,1.893,1.716,3.219c0.401,1.122,0.939,2.634,1.784,3.468c1.077,1.063,2.008,1.229,2.715,2.688   c0.249,0.514,0.751,0.99,0.909,1.46c0.193,0.575-0.069,1.402-0.009,2.009c0.086,0.866,0.884,2.401,0.006,2.997L48.875,54.5   c0.505,0.864,1.372,1.365,2.125,1.906c0.976,0.701,0.908,0.925,1.466,2.003c0.492,0.952,0.916,1.35,0.909,2.557   c-0.007,1.075-0.05,2.067,0.532,3.005c0.537,0.865,1.449,1.74,2.121,2.535c0.846,1.001,1.813,2.092,2.698,3.019   C59.937,70.794,62.734,73.489,64.294,71.013"></path></g></svg>