<svg height='100px' width='100px'  fill="#000000" xmlns="http://www.w3.org/2000/svg" xmlns:xlink="http://www.w3.org/1999/xlink" version="1.1" x="0px" y="0px" viewBox="0 0 64 64" style="enable-background:new 0 0 64 64;" xml:space="preserve"><g><path d="M47.589,19h-3.177c-0.17,0.61-0.297,1.28-0.362,2h3.901C47.886,20.28,47.759,19.61,47.589,19z"></path><path d="M49.021,27c-0.252,0.619-0.529,1.162-0.801,1.633c1.012-0.34,1.922-0.902,2.67-1.633H49.021z"></path><path d="M46,15.606c-0.251,0.363-0.538,0.831-0.818,1.394h1.637C46.538,16.436,46.251,15.968,46,15.606z"></path><path d="M43.78,15.367c-1.012,0.34-1.922,0.902-2.67,1.633h1.868C43.232,16.381,43.508,15.838,43.78,15.367z"></path><path d="M42.347,19h-2.662c-0.297,0.622-0.503,1.294-0.605,2h2.958C42.091,20.288,42.202,19.623,42.347,19z"></path><path d="M47.589,25c0.17-0.61,0.297-1.28,0.362-2h-3.901c0.065,0.72,0.192,1.39,0.362,2H47.589z"></path><path d="M46,28.395c0.251-0.363,0.538-0.831,0.818-1.395h-1.637C45.462,27.564,45.749,28.032,46,28.395z"></path><path d="M50.889,17c-0.747-0.731-1.657-1.293-2.67-1.633c0.273,0.471,0.549,1.014,0.801,1.633H50.889z"></path><path d="M42.347,25c-0.145-0.623-0.256-1.288-0.309-2H39.08c0.102,0.706,0.308,1.378,0.605,2H42.347z"></path><path d="M49.962,21h2.958c-0.102-0.706-0.308-1.378-0.605-2h-2.662C49.798,19.623,49.909,20.288,49.962,21z"></path><path d="M49.653,25h2.662c0.297-0.622,0.503-1.294,0.605-2h-2.958C49.909,23.712,49.798,24.377,49.653,25z"></path><path d="M41.111,27c0.747,0.731,1.657,1.293,2.67,1.633c-0.273-0.471-0.549-1.014-0.801-1.633H41.111z"></path><path d="M31,42.541V46c0,0.871,5.257,3,15,3s15-2.129,15-3v-3.459C57.529,44.429,50.34,45,46,45S34.471,44.429,31,42.541z"></path><path d="M31,54.541V58c0,0.871,5.257,3,15,3s15-2.129,15-3v-3.459C57.529,56.429,50.34,57,46,57S34.471,56.429,31,54.541z"></path><path d="M31,48.541V52c0,0.871,5.257,3,15,3s15-2.129,15-3v-3.459C57.529,50.429,50.34,51,46,51S34.471,50.429,31,48.541z"></path><path d="M54.674,37.66c-1.31,0.758-2.82,1.556-4.563,2.4C48.82,40.685,47.442,41,46.006,41c-0.259,0-0.52-0.01-0.782-0.03   c-1.159-0.091-2.339-0.426-3.506-0.993c-1.675-0.816-3.111-1.584-4.38-2.318C32.123,38.522,31,39.782,31,40c0,0.871,5.257,3,15,3   s15-2.129,15-3C61,39.782,59.879,38.524,54.674,37.66z"></path><path d="M42.593,38.178c0.941,0.458,1.879,0.727,2.787,0.798c1.367,0.108,2.661-0.134,3.859-0.717C59.663,33.211,61,30.125,61,28   c0-3.071-1.695-14.247-2.035-16.456L58.573,9h-2.431c-2.938,0-5.701-1.145-7.778-3.222L46,3.414l-2.364,2.364   C41.559,7.855,38.796,9,35.857,9h-2.431l-0.392,2.544C32.695,13.753,31,24.929,31,28C31,30.111,32.317,33.176,42.593,38.178z    M35.012,11.848L35.142,11h1.201c3.381,0,6.56-1.316,8.95-3.707L46,6.586l0.707,0.707C49.098,9.684,52.276,11,55.657,11h1.201   l0.13,0.848C57.07,12.382,59,24.959,59,28c0,2.196-3.577,5.042-10.633,8.46C47.626,36.818,46.83,37,46,37s-1.626-0.182-2.367-0.54   C36.577,33.042,33,30.196,33,28C33,24.959,34.93,12.382,35.012,11.848z"></path><path d="M44.504,34.659c0.934,0.453,2.059,0.453,2.992,0C54.469,31.282,57,28.826,57,28c0-2.456-1.422-12.094-1.861-15.009   C51.741,12.874,48.544,11.604,46,9.37c-2.544,2.234-5.741,3.504-9.139,3.621C36.422,15.906,35,25.544,35,28   C35,28.826,37.531,31.282,44.504,34.659z M46,13c4.963,0,9,4.037,9,9s-4.037,9-9,9s-9-4.037-9-9S41.037,13,46,13z"></path><path d="M11,13c-2.757,0-5,2.243-5,5c0,2.414,1.721,4.434,4,4.899v20.152C4.954,43.554,1,47.824,1,53c0,5.514,4.486,10,10,10   c5.176,0,9.446-3.954,9.949-9H29v-2h-8.051c-0.471-4.717-4.232-8.479-8.949-8.949V22.899c1.956-0.399,3.5-1.943,3.899-3.899h14.033   c0.092-0.676,0.184-1.347,0.276-2H15.899C15.434,14.721,13.414,13,11,13z M16.707,50.707L9,58.414l-3.707-3.707l1.414-1.414   L9,55.586l6.293-6.293L16.707,50.707z"></path></g></svg>