<svg height='100px' width='100px'  fill="#000000" xmlns="http://www.w3.org/2000/svg" xmlns:xlink="http://www.w3.org/1999/xlink" version="1.1" x="0px" y="0px" viewBox="0 0 64 64" style="enable-background:new 0 0 64 64;" xml:space="preserve"><path d="M6,32.981V33h0.026c1.669,1.25,3.733,2,5.974,2s4.305-0.75,5.974-2H18v-0.019c2.423-1.827,4-4.719,4-7.981  c0-5.514-4.486-10-10-10S2,19.486,2,25C2,28.262,3.577,31.154,6,32.981z M8,31.918V30c0-1.654,1.346-3,3-3h2c1.654,0,3,1.346,3,3  v1.918C14.822,32.602,13.458,33,12,33S9.178,32.602,8,31.918z M12,25c-1.103,0-2-0.897-2-2s0.897-2,2-2s2,0.897,2,2S13.103,25,12,25  z M12,17c4.411,0,8,3.589,8,8c0,2.021-0.759,3.864-2,5.274V30c0-2-1.188-3.717-2.889-4.516C15.658,24.799,16,23.943,16,23  c0-2.206-1.794-4-4-4s-4,1.794-4,4c0,0.943,0.342,1.799,0.889,2.484C7.188,26.283,6,28,6,30v0.274C4.759,28.864,4,27.021,4,25  C4,20.589,7.589,17,12,17z"></path><path d="M52,35c5.514,0,10-4.486,10-10s-4.486-10-10-10s-10,4.486-10,10S46.486,35,52,35z M52,17c4.411,0,8,3.589,8,8s-3.589,8-8,8  s-8-3.589-8-8S47.589,17,52,17z"></path><path d="M32,22c5.514,0,10-4.486,10-10S37.514,2,32,2S22,6.486,22,12S26.486,22,32,22z M32,4c4.411,0,8,3.589,8,8s-3.589,8-8,8  s-8-3.589-8-8S27.589,4,32,4z"></path><path d="M49.5,28H51v3h2v-3h1.5c1.93,0,3.5-1.57,3.5-3.5c0-1.54-1.021-2.88-2.456-3.33C54.866,19.852,53.506,19,52,19  s-2.866,0.852-3.544,2.17C47.021,21.62,46,22.96,46,24.5C46,26.43,47.57,28,49.5,28z M49.305,23.024  c0.377-0.049,0.692-0.308,0.815-0.667C50.397,21.545,51.153,21,52,21s1.603,0.545,1.88,1.356c0.123,0.359,0.438,0.618,0.815,0.667  C55.439,23.122,56,23.757,56,24.5c0,0.827-0.673,1.5-1.5,1.5h-5c-0.827,0-1.5-0.673-1.5-1.5C48,23.757,48.561,23.122,49.305,23.024z  "></path><path d="M28,12v4c0,0.552,0.447,1,1,1h6c0.553,0,1-0.448,1-1v-4h1c0.425,0,0.803-0.268,0.943-0.669s0.013-0.847-0.318-1.112l-5-4  c-0.365-0.292-0.885-0.292-1.25,0l-5,4c-0.331,0.265-0.459,0.711-0.318,1.112S26.575,12,27,12H28z M34,15h-4v-3h4V15z M32,8.281  L34.149,10h-4.299L32,8.281z"></path><rect x="29" y="36" width="6" height="2"></rect><rect x="29" y="40" width="6" height="2"></rect><rect x="41" y="41" width="2" height="2"></rect><rect x="41" y="45" width="2" height="2"></rect><rect x="21" y="41" width="2" height="2"></rect><rect x="21" y="45" width="2" height="2"></rect><path d="M37.293,56.293c-0.268,0.268-0.361,0.664-0.241,1.023l1,3c0.159,0.479,0.648,0.762,1.145,0.664l4.663-0.933l3.693,1.847  C47.692,61.964,47.846,62,48,62c0.037,0,0.073-0.002,0.11-0.006l8.926-0.992c0.483,0.527,0.956,1.066,1.409,1.627L60,61.371  c-3.56-4.4-8.018-7.817-13-10.101V38c0-0.552-0.447-1-1-1h-7v-4c0-0.552-0.447-1-1-1h-1v-1c0-1.654-1.346-3-3-3h-1v-2h-2v2h-1  c-1.654,0-3,1.346-3,3v1h-1c-0.553,0-1,0.448-1,1v4h-7c-0.553,0-1,0.448-1,1v13.272c-4.876,2.235-9.252,5.558-12.771,9.819  l1.543,1.273c0.784-0.949,1.614-1.846,2.483-2.696l2.038,2.038C10.488,61.902,10.744,62,11,62s0.512-0.098,0.707-0.293l1.563-1.563  l2.413,0.805C15.786,60.983,15.893,61,16,61h3c0.082,0,0.163-0.01,0.242-0.03l4-1c0.271-0.067,0.5-0.245,0.635-0.489  c0.134-0.245,0.16-0.533,0.071-0.798l-1-3C22.812,55.275,22.431,55,22,55h-3.586l-1.478-1.478C21.559,51.235,26.693,50,32,50  c2.73,0,5.41,0.332,8,0.955v2.631L37.293,56.293z M45,39v11.428c-1.938-0.749-3.944-1.33-6-1.734V39H45z M29,31c0-0.551,0.448-1,1-1  h4c0.552,0,1,0.449,1,1v1h-6V31z M37,34v14.359c-0.663-0.092-1.329-0.166-2-0.221V45c0-0.552-0.447-1-1-1h-4c-0.553,0-1,0.448-1,1  v3.138c-0.671,0.056-1.337,0.129-2,0.222V34H37z M19,39h6v9.695c-2.055,0.405-4.062,0.985-6,1.735V39z M17.293,56.707  C17.48,56.895,17.734,57,18,57h3.279l0.431,1.292L18.877,59h-2.715l-2.846-0.949c-0.359-0.121-0.756-0.025-1.023,0.242L11,59.586  L9.724,58.31c1.669-1.45,3.471-2.714,5.368-3.804L17.293,56.707z M31,48.028V46h2v2.028C32.667,48.019,32.335,48,32,48  C31.665,48,31.333,48.018,31,48.028z M55.234,59.19l-7.051,0.783l-3.735-1.868c-0.199-0.1-0.425-0.131-0.644-0.086l-4.134,0.827  l-0.525-1.576l2.562-2.563C41.895,54.52,42,54.265,42,54v-2.496C46.918,53.012,51.437,55.627,55.234,59.19z"></path></svg>