<svg height='100px' width='100px'  fill="#000000" xmlns="http://www.w3.org/2000/svg" xmlns:xlink="http://www.w3.org/1999/xlink" version="1.1" x="0px" y="0px" viewBox="0 0 64 64" style="enable-background:new 0 0 64 64;" xml:space="preserve"><path d="M18.785,31.229C19.532,30.355,20,29.237,20,28c0-2.757-2.243-5-5-5s-5,2.243-5,5c0,1.237,0.468,2.355,1.215,3.229  c-1.913,0.57-3.352,2.227-3.541,4.318l-0.669,7.362c-0.033,0.365,0.136,0.72,0.441,0.923L10,45.535V57c0,0.553,0.448,1,1,1h8  c0.552,0,1-0.447,1-1V45.535l2.555-1.703c0.305-0.203,0.475-0.558,0.441-0.923l-0.669-7.362  C22.137,33.456,20.698,31.799,18.785,31.229z M15,25c1.654,0,3,1.346,3,3s-1.346,3-3,3s-3-1.346-3-3S13.346,25,15,25z   M18.445,44.168C18.167,44.354,18,44.666,18,45v11h-6V45c0-0.334-0.167-0.646-0.445-0.832l-2.505-1.67l0.616-6.77  C9.807,34.173,11.091,33,12.653,33h4.694c1.562,0,2.846,1.173,2.987,2.729l0.616,6.77L18.445,44.168z"></path><path d="M41.445,43.832L44,45.535V57c0,0.553,0.448,1,1,1h8c0.552,0,1-0.447,1-1V45.535l2.555-1.703  c0.305-0.203,0.475-0.558,0.441-0.923l-0.669-7.362c-0.19-2.091-1.629-3.748-3.541-4.318C53.532,30.355,54,29.237,54,28  c0-2.757-2.243-5-5-5s-5,2.243-5,5c0,1.237,0.468,2.355,1.215,3.229c-1.913,0.57-3.352,2.227-3.541,4.318l-0.669,7.362  C40.971,43.274,41.14,43.629,41.445,43.832z M49,25c1.654,0,3,1.346,3,3s-1.346,3-3,3s-3-1.346-3-3S47.346,25,49,25z M43.666,35.729  C43.807,34.173,45.091,33,46.653,33h4.694c1.562,0,2.846,1.173,2.987,2.729l0.616,6.77l-2.505,1.67C52.167,44.354,52,44.666,52,45  v11h-6V45c0-0.334-0.167-0.646-0.445-0.832l-2.505-1.67L43.666,35.729z"></path><path d="M34.954,38.674C35.597,37.964,36,37.032,36,36c0-2.206-1.794-4-4-4s-4,1.794-4,4c0,1.032,0.403,1.964,1.046,2.674  c-1.321,0.761-2.276,2.103-2.477,3.706l-0.562,4.496c-0.039,0.307,0.067,0.613,0.285,0.831L28,49.414V57c0,0.553,0.448,1,1,1h6  c0.552,0,1-0.447,1-1v-7.586l1.707-1.707c0.218-0.218,0.324-0.524,0.285-0.831L37.43,42.38  C37.23,40.777,36.275,39.435,34.954,38.674z M32,34c1.103,0,2,0.897,2,2s-0.897,2-2,2s-2-0.897-2-2S30.897,34,32,34z M34.293,48.293  C34.105,48.48,34,48.734,34,49v7h-4v-7c0-0.266-0.105-0.52-0.293-0.707l-1.654-1.654l0.501-4.011C28.741,41.13,30.021,40,31.531,40  h0.938c1.51,0,2.79,1.13,2.977,2.628l0.501,4.011L34.293,48.293z"></path><path d="M61.548,21.163l-29-19c-0.332-0.217-0.764-0.217-1.096,0l-29,19C2.17,21.349,2,21.663,2,22v39c0,0.553,0.448,1,1,1h58  c0.552,0,1-0.447,1-1V22C62,21.663,61.83,21.349,61.548,21.163z M60,60H4V22.54L32,4.195L60,22.54V60z"></path><path d="M31.615,13.935c-1.279-1.242-3.36-1.242-4.639,0C26.347,14.545,26,15.358,26,16.227s0.347,1.682,0.976,2.292l4.328,4.199  C31.498,22.906,31.749,23,32,23s0.502-0.094,0.696-0.282l4.328-4.199C37.653,17.908,38,17.095,38,16.227s-0.347-1.682-0.976-2.292  c-1.28-1.243-3.361-1.242-4.639,0L32,14.309L31.615,13.935z M32.696,16.42l1.082-1.05h0c0.511-0.496,1.342-0.496,1.853,0  C35.869,15.601,36,15.904,36,16.227s-0.131,0.626-0.369,0.856L32,20.606l-3.631-3.523C28.131,16.853,28,16.549,28,16.227  s0.131-0.626,0.369-0.856c0.255-0.248,0.59-0.372,0.926-0.372s0.671,0.124,0.927,0.372l1.082,1.05  C31.691,16.797,32.309,16.797,32.696,16.42z"></path></svg>