<svg height='100px' width='100px'  fill="#000000" xmlns="http://www.w3.org/2000/svg" xmlns:xlink="http://www.w3.org/1999/xlink" version="1.1" x="0px" y="0px" viewBox="0 0 64 64" style="enable-background:new 0 0 64 64;" xml:space="preserve"><path d="M10,21h8v10h-4c-0.552,0-1,0.448-1,1v16c0,0.552,0.448,1,1,1h2v12c0,0.552,0.448,1,1,1h30c0.552,0,1-0.448,1-1V49h2  c0.552,0,1-0.448,1-1V32c0-0.552-0.448-1-1-1h-1.646l1.134-3.684L51.2,29.6c0.223,0.297,0.593,0.445,0.96,0.387  c0.367-0.06,0.671-0.318,0.789-0.671l2-6c0.104-0.312,0.048-0.654-0.149-0.917l-3-4c-0.225-0.301-0.597-0.45-0.972-0.385  c-0.37,0.065-0.673,0.332-0.784,0.691L47,28.6l-3.044-9.894c-0.11-0.36-0.414-0.626-0.784-0.691  c-0.376-0.063-0.747,0.084-0.972,0.385l-3,4c-0.197,0.263-0.252,0.605-0.149,0.917l2,6c0.118,0.353,0.421,0.611,0.789,0.671  c0.371,0.059,0.737-0.089,0.96-0.387l1.713-2.284L45.646,31H37V21c0-3.86-3.14-7-7-7h-0.11c1.3-1.272,2.11-3.042,2.11-5  c0-3.86-3.14-7-7-7s-7,3.14-7,7c0,1.958,0.81,3.728,2.11,5h-7.696L6.707,8.293c-0.391-0.391-1.023-0.391-1.414,0l-3,3  c-0.373,0.372-0.392,0.969-0.045,1.366l7,8C9.438,20.875,9.711,21,10,21z M51.378,21.171l1.507,2.01l-1.231,3.692l-1.44-1.92  L51.378,21.171z M42.345,26.873l-1.231-3.692l1.507-2.01l1.164,3.782L42.345,26.873z M46,60H18V49h6v8  c0,0.336,0.169,0.65,0.45,0.835c0.28,0.185,0.635,0.217,0.944,0.084L32,55.088l6.606,2.831C38.732,57.973,38.866,58,39,58  c0.193,0,0.385-0.056,0.55-0.165C39.831,57.65,40,57.336,40,57v-8h6V60z M26,49h12v6.483l-5.606-2.402  c-0.252-0.108-0.536-0.108-0.788,0L26,55.483V49z M49,47h-2H17h-2V33h34V47z M20,9c0-2.757,2.243-5,5-5s5,2.243,5,5s-2.243,5-5,5  S20,11.757,20,9z M6,10.414l5.293,5.293C11.48,15.895,11.735,16,12,16h18c2.757,0,5,2.243,5,5v10h-3V20h-2v11h-6v-7.764l1.895-3.789  l-1.789-0.895l-2,4C22.036,22.691,22,22.845,22,23v8h-2V20c0-0.552-0.448-1-1-1h-8.546l-6.085-6.955L6,10.414z"></path><path d="M32,35c-2.757,0-5,2.243-5,5s2.243,5,5,5s5-2.243,5-5S34.757,35,32,35z M32,43c-1.654,0-3-1.346-3-3s1.346-3,3-3  s3,1.346,3,3S33.654,43,32,43z"></path><path d="M59,2H43c-1.654,0-3,1.346-3,3v5.586l-3.707,3.707c-0.286,0.286-0.372,0.716-0.217,1.09C36.231,15.756,36.596,16,37,16h22  c1.654,0,3-1.346,3-3V5C62,3.346,60.654,2,59,2z M60,13c0,0.551-0.449,1-1,1H39.414l2.293-2.293C41.895,11.52,42,11.265,42,11V5  c0-0.551,0.449-1,1-1h16c0.551,0,1,0.449,1,1V13z"></path><rect x="44" y="6" width="14" height="2"></rect><rect x="44" y="10" width="14" height="2"></rect></svg>