<svg height='100px' width='100px'  fill="#000000" xmlns="http://www.w3.org/2000/svg" xmlns:xlink="http://www.w3.org/1999/xlink" version="1.1" x="0px" y="0px" viewBox="0 0 100 100" enable-background="new 0 0 100 100" xml:space="preserve"><path d="M23.4,41.1c2.5,0,4.6,2.1,4.6,4.6s-2.1,4.6-4.6,4.6s-4.6-2.1-4.6-4.6S20.8,41.1,23.4,41.1z M91.7,66.2H70.3  c-1,0-1.8,0.8-1.8,1.8v2.9c0,1,0.8,1.8,1.8,1.8h21.3c1,0,1.8-0.8,1.8-1.8V68C93.5,67,92.7,66.2,91.7,66.2z M88.6,75H67.3  c-1,0-1.8,0.8-1.8,1.8v2.9c0,1,0.8,1.8,1.8,1.8h21.3c1,0,1.8-0.8,1.8-1.8v-2.9C90.4,75.8,89.6,75,88.6,75z M94.4,48.6H73.1  c-1,0-1.8,0.8-1.8,1.8v2.9c0,1,0.8,1.8,1.8,1.8h21.3c1,0,1.8-0.8,1.8-1.8v-2.9C96.2,49.4,95.4,48.6,94.4,48.6z M65.5,59.2v2.9  c0,1,0.8,1.8,1.8,1.8h21.3c1,0,1.8-0.8,1.8-1.8v-2.9c0-1-0.8-1.8-1.8-1.8H67.3C66.3,57.4,65.5,58.2,65.5,59.2z M92.8,46.3  c1,0,1.8-0.8,1.8-1.8v-2.9c0-1-0.8-1.8-1.8-1.8H71.4c-1,0-1.8,0.8-1.8,1.8v2.9c0,1,0.8,1.8,1.8,1.8H92.8z M66.5,71.2v-3.6  c0-0.8-0.7-1.5-1.5-1.5h-8.7H19.2c0.2-1.1,0.2-2.4-0.2-3.6c-0.6-2-2.1-3.7-4-4.7c-1.7-0.8-3.2-0.9-4.7-0.7V33.9  c1.7,0.3,3.6,0.1,5.7-1.3c1.2-0.8,2.2-2,2.8-3.3c0.6-1.5,0.7-3,0.5-4.4h56.4c-0.3,1.1-0.3,2.4,0,3.7c0.7,2.8,3,5.1,5.8,5.7  c1.2,0.3,2.4,0.2,3.6-0.1v1.8c0,0.8,0.7,1.5,1.5,1.5h3.5c0.8,0,1.5-0.7,1.5-1.5v-10c0-4.2-3.4-7.6-7.6-7.6H11.4  c-4.2,0-7.6,3.4-7.6,7.6v39c0,4.2,3.4,7.6,7.6,7.6h45H65h0C65.8,72.7,66.5,72,66.5,71.2z M47.6,29c9.2,0,16.6,7.5,16.6,16.6  s-7.5,16.6-16.6,16.6s-16.6-7.5-16.6-16.6S38.4,29,47.6,29z M47.6,34.5c-6.1,0-11.1,5-11.1,11.1c0,2.8,1,5.3,2.7,7.2  c2.3-1.7,4.5-2.9,5-3.1c0.1,0,0.1-0.1,0.1-0.2v-1.5c-0.4-0.6-0.6-1.3-0.7-2c-0.2,0-0.5-0.3-0.8-1.4c-0.4-1.4,0-1.7,0.3-1.7  c0,0,0,0,0.1,0c-0.3-0.8-0.3-1.6-0.1-2.3c0.2-0.9,0.7-1.5,1.2-2.1c0.3-0.3,0.7-0.7,1.1-0.9c0.3-0.2,0.7-0.4,1.1-0.5l0,0  c0.3-0.1,0.6-0.2,1-0.2c0.1,0,0.3,0,0.4,0c0.8,0,1.5,0.2,2,0.5c0.9,0.5,1.2,1.1,1.2,1.1s2.2,0.2,1.2,4.7c0.3,0.1,0.5,0.5,0.2,1.7  c-0.3,1.1-0.6,1.4-0.8,1.4c-0.1,0-0.1,0-0.2-0.1c-0.1,0.5-0.2,1.1-0.5,1.6c0,0.7,0,1.4,0,1.7c0,0.1,0,0.1,0.1,0.2  c0.5,0.2,2.7,1.4,5,3.1c1.7-1.9,2.7-4.5,2.7-7.2C58.7,39.5,53.7,34.5,47.6,34.5z"></path></svg>