<svg height='100px' width='100px'  fill="#000000" xmlns="http://www.w3.org/2000/svg" viewBox="0 0 64 64" x="0px" y="0px"><title>41-nature, water, outdoor, river, forest</title><g data-name="41-nature, water, outdoor, river, forest"><path d="M55,52.29A1,1,0,0,1,54,53a.92.92,0,0,1-.29,0c-.33-.1-8-2.52-9.57-7.13a5.79,5.79,0,0,1,1-5.41,3.15,3.15,0,0,0,.61-3c-1.21-3.27-8.19-5.7-10.93-6.4h-.11C36,32.24,37.21,34,37,35.81S35.16,39,32.32,40c-1.92.64-3.93,1.14-5.88,1.62-4.7,1.18-9.14,2.28-10.57,4.94-.71,1.31-.68,3,.07,5.16a1,1,0,0,1-.61,1.27A1,1,0,0,1,15,53a1,1,0,0,1-.94-.67c-1-2.73-.94-4.94,0-6.77C16,42.13,20.81,40.92,26,39.63c1.91-.47,3.88-1,5.72-1.58,1.42-.47,3.14-1.29,3.31-2.51.22-1.62-2.17-3.72-3.31-4.54H10a1,1,0,0,1-.92-.62,1,1,0,0,1,.21-1.09L11.59,27H10a1,1,0,0,1-.91-.58,1,1,0,0,1,.15-1.07L13.83,20H13a1,1,0,0,1-.92-.62,1,1,0,0,1,.21-1.09l7-7a1,1,0,0,1,1.42,0l7,7a1,1,0,0,1,.21,1.09A1,1,0,0,1,27,20h-.83l4.59,5.35a1,1,0,0,1,.15,1.07A1,1,0,0,1,30,27H26a1,1,0,0,1,0-2h1.83l-4.59-5.35a1,1,0,0,1-.15-1.07A1,1,0,0,1,24,18h.59L20,13.41,15.41,18H16a1,1,0,0,1,.91.58,1,1,0,0,1-.15,1.07L12.17,25H14a1,1,0,0,1,.92.62,1,1,0,0,1-.21,1.09L12.41,29H54a1,1,0,0,1,0,2H40.88c2.84,1.28,5.86,3.17,6.79,5.7a5,5,0,0,1-.86,4.88A3.87,3.87,0,0,0,46,45.19c1,3,6.31,5.25,8.26,5.85A1,1,0,0,1,55,52.29ZM38,27h2.6a1,1,0,0,0,0-2h-.43l2.49-2.9a1,1,0,0,0-.37-1.57l2.21-2.22,2.21,2.22a1,1,0,0,0-.37,1.57L48.83,25H48.4a1,1,0,0,0,0,2H51a1,1,0,0,0,.91-.58,1,1,0,0,0-.15-1.07l-2.5-2.92a1,1,0,0,0,.5-1.69l-4.55-4.55a1,1,0,0,0-1.42,0l-4.55,4.55a1,1,0,0,0,.5,1.69l-2.5,2.92a1,1,0,0,0-.15,1.07A1,1,0,0,0,38,27Z"></path></g></svg>