<svg height='100px' width='100px'  fill="#000000" xmlns="http://www.w3.org/2000/svg" xmlns:xlink="http://www.w3.org/1999/xlink" version="1.1" viewBox="0 0 96 96" x="0px" y="0px"><path d="M90.5 82h-45c-1.104 0-2-0.9-2-2v-64c0-1.104 0.896-2 2-2h20c1.1 0 2 0.896 2 2v38c0 13.456 10.1 24 23 24 1.1 0 2 0.9 2 2s-0.9 2-2 2zM47.5 78h28.9c-7.788-4.86-12.9-13.696-12.9-24v-36h-16v60z" fill="#000000"></path><path d="M37.5 26c-3.268 0-6.172-1.576-8-4.004-1.828 2.428-4.732 4.004-8 4.004s-6.172-1.576-8-4.004c-1.828 2.428-4.732 4.004-8 4.004-1.104 0-2-0.896-2-2s0.896-2 2-2c3.308 0 6-2.692 6-6 0-1.104 0.896-2 2-2s2 0.896 2 2c0 3.308 2.692 6 6 6s6-2.692 6-6c0-1.104 0.896-2 2-2s2 0.896 2 2c0 3.308 2.692 6 6 6s6-2.692 6-6c0-1.104 0.896-2 2-2s2 0.896 2 2c0 5.512-4.488 10-10 10z" fill="#000000"></path><path d="M37.5 42c-3.268 0-6.172-1.576-8-4.004-1.828 2.428-4.732 4.004-8 4.004s-6.172-1.576-8-4.004c-1.828 2.428-4.732 4.004-8 4.004-1.104 0-2-0.896-2-2s0.896-2 2-2c3.308 0 6-2.692 6-6 0-1.104 0.896-2 2-2s2 0.896 2 2c0 3.308 2.692 6 6 6s6-2.692 6-6c0-1.104 0.896-2 2-2s2 0.896 2 2c0 3.308 2.692 6 6 6s6-2.692 6-6c0-1.104 0.896-2 2-2s2 0.896 2 2c0 5.512-4.488 10-10 10z" fill="#000000"></path><path d="M37.5 58c-3.268 0-6.172-1.58-8-4.004-1.828 2.424-4.732 4.004-8 4.004s-6.172-1.58-8-4.004c-1.828 2.424-4.732 4.004-8 4.004-1.104 0-2-0.9-2-2s0.896-2 2-2c3.308 0 6-2.692 6-6 0-1.104 0.896-2 2-2s2 0.896 2 2c0 3.308 2.692 6 6 6s6-2.692 6-6c0-1.104 0.896-2 2-2s2 0.896 2 2c0 3.308 2.692 6 6 6s6-2.692 6-6c0-1.104 0.896-2 2-2s2 0.896 2 2c0 5.512-4.488 10-10 10z" fill="#000000"></path><path d="M43.5 66h-36c-1.104 0-2-0.9-2-2s0.896-2 2-2h36c1.104 0 2 0.9 2 2s-0.896 2-2 2z" fill="#000000"></path><path d="M51.5 82h-44c-1.104 0-2-0.9-2-2s0.896-2 2-2h44c1.1 0 2 0.9 2 2s-0.9 2-2 2z" fill="#000000"></path></svg>