<svg height='100px' width='100px'  fill="#000000" xmlns="http://www.w3.org/2000/svg" xmlns:xlink="http://www.w3.org/1999/xlink" version="1.1" x="0px" y="0px" viewBox="0 0 76.674 119.959" style="enable-background:new 0 0 76.674 119.959;" xml:space="preserve"><g><path d="M64.928,91.922c-17.168,0-29.266-6.791-36.391-12.49C21.406,73.75,17.674,68.09,16.699,66.489   c-1.256-2.134-1.596-4.555-0.992-6.884c0.601-2.328,2.074-4.28,4.148-5.5c1.383-0.815,2.959-1.245,4.557-1.245   c3.156,0,6.119,1.682,7.734,4.391c0.084,0.132,0.17,0.258,0.291,0.435c0.264,0.385,0.711,1.01,1.346,1.795   c1.016,1.251,2.631,3.05,4.834,4.937c1.66-7.598-1.59-15.853-8.6-17.332c-7.594-1.603-18.699,2.291-23.381,14.149   c-6.336,16.34-7.813,26.937-5.791,44.799c2.584,12.928,12.414,14.118,20.596,13.905c2.615-0.068,4.766-0.203,6.467-0.719   c2.281-0.481,4.414-1.729,5.976-3.697h-0.002L49.18,96.261l5.289,16.337c1.422,4.391,5.492,7.184,9.871,7.184   c1.059,0,2.135-0.163,3.197-0.507c5.449-1.765,8.439-7.615,6.674-13.067l-4.676-14.45c-1.529,0.101-3.047,0.163-4.518,0.165H64.928   z"></path><path d="M62.963,71.456c-1.184-3.653-4.248-6.33-8.023-7.014c-3.779-0.685-7.586,0.751-9.975,3.757l-0.35,0.439   c5.727,3.291,12.135,5.055,19.137,5.256L62.963,71.456z"></path><path d="M69.133,75.757c-1.43,0.11-2.801,0.164-4.119,0.164c-12.314-0.021-20.797-4.5-26.516-9.01   c-2.84-2.255-4.928-4.521-6.268-6.171c-0.67-0.825-1.15-1.495-1.447-1.927c-0.149-0.217-0.25-0.374-0.305-0.461   c-0.021-0.033-0.035-0.057-0.043-0.069c-0.004-0.007-0.006-0.008-0.006-0.008c-1.971-3.305-6.242-4.399-9.56-2.447   c-3.332,1.961-4.445,6.253-2.482,9.584h-0.002c0.301,0.492,3.834,6.429,11.4,12.459c7.512,6.007,19.301,12.051,35.145,12.051   c0.029,0,0.055,0,0.084,0c1.699-0.002,3.434-0.071,5.201-0.207c3.854-0.3,6.736-3.666,6.438-7.52   C76.356,78.34,72.986,75.459,69.133,75.757z"></path><circle cx="37.905" cy="20.91" r="20.91"></circle></g></svg>