<svg height='100px' width='100px'  fill="#000000" xmlns="http://www.w3.org/2000/svg" viewBox="0 0 25 25" x="0px" y="0px"><title>Space Exploration_expanded</title><g data-name="Layer 2"><path d="M21.066,15.943l-2.829-1.879a3.357,3.357,0,0,1-1.461-2.376l-.651-5.246a4.491,4.491,0,0,0-.837-2.064L14.133,2.854a2.09,2.09,0,0,0-3.262-.006L9.709,4.382a4.5,4.5,0,0,0-.835,2.066l-.65,5.24a3.355,3.355,0,0,1-1.46,2.375l-2.83,1.88A4.327,4.327,0,0,0,2,19.56v.94a.5.5,0,0,0,.45.5l7.045.7-.077.269A1.6,1.6,0,0,0,10.952,24h3.1a1.6,1.6,0,0,0,1.534-2.033l-.077-.269L22.55,21a.5.5,0,0,0,.45-.5v-.94A4.327,4.327,0,0,0,21.066,15.943Zm-6.543,6.82a.59.59,0,0,1-.475.237h-3.1a.6.6,0,0,1-.573-.759L11.706,17.6a.826.826,0,0,1,1.588,0l1.327,4.642A.592.592,0,0,1,14.523,22.763ZM22,20.047l-6.774.674-.971-3.4a1.825,1.825,0,0,0-3.51,0l-.971,3.4L3,20.047V19.56a3.333,3.333,0,0,1,1.486-2.784L7.317,14.9a4.352,4.352,0,0,0,1.9-3.084l.649-5.235a3.484,3.484,0,0,1,.644-1.595l1.163-1.536a1.056,1.056,0,0,1,1.66.006l1.156,1.526a3.48,3.48,0,0,1,.646,1.593l.65,5.241a4.35,4.35,0,0,0,1.9,3.084l2.83,1.88A3.333,3.333,0,0,1,22,19.56Z"></path><path d="M12.854,5.146a.5.5,0,0,0-.708,0l-1,1a.5.5,0,0,0,.708.708l.646-.647.646.647a.5.5,0,0,0,.708-.708Z"></path><path d="M8.5,18h-4a.5.5,0,0,0,0,1h4a.5.5,0,0,0,0-1Z"></path><path d="M20.5,18h-4a.5.5,0,0,0,0,1h4a.5.5,0,0,0,0-1Z"></path></g></svg>