<svg height='100px' width='100px'  fill="#000000" xmlns="http://www.w3.org/2000/svg" viewBox="0 0 100 100" x="0px" y="0px"><title>Museum</title><g data-name="Iconos"><path d="M11.12,36.26H88.66a1.5,1.5,0,0,0,.68-2.84L50.57,13.87a1.46,1.46,0,0,0-1.35,0L10.45,33.42a1.5,1.5,0,0,0,.67,2.84ZM49.89,16.89,82.36,33.26H17.43Z"></path><path d="M88.74,39.36a1.5,1.5,0,0,0-1.5-1.5H12.55a1.5,1.5,0,1,0,0,3H18a4.46,4.46,0,0,0-.23,1.32,4.31,4.31,0,0,0,1.76,3.46,71.19,71.19,0,0,0-.15,28.16,1.5,1.5,0,0,0-.77,1.3v4.59h-5a1.5,1.5,0,1,0,0,3H86.15a1.5,1.5,0,0,0,0-3h-5V75.1a1.5,1.5,0,0,0-.76-1.3,71,71,0,0,0-.12-28l0-.13A4.33,4.33,0,0,0,82,42.18a4.16,4.16,0,0,0-.23-1.32h5.47A1.5,1.5,0,0,0,88.74,39.36ZM71.54,76.6h6.61v2.91H71.54Zm5.82-3h-5a67.52,67.52,0,0,1,0-27.09h5A67.52,67.52,0,0,1,77.36,73.6ZM61,40.86a1.33,1.33,0,0,1,0,2.65H55.39a1.33,1.33,0,1,1,0-2.65Zm-16.64,0a1.33,1.33,0,0,1,0,2.65H38.75a1.33,1.33,0,1,1,0-2.65Zm-22,5.65h5a67.34,67.34,0,0,1,0,27.09h-5A67.7,67.7,0,0,1,22.41,46.51ZM21.62,76.6h6.62v2.91H21.62Zm6.14-35.74a1.33,1.33,0,0,1,0,2.65H22.11a1.33,1.33,0,1,1,0-2.65ZM38.5,79.69A3.86,3.86,0,0,1,42,77.35h15.7a3.85,3.85,0,0,1,3.53,2.34ZM58.9,61.45a1.22,1.22,0,1,1,0,2.43h-18a1.22,1.22,0,1,1,0-2.43Zm-13.67-3a4.88,4.88,0,0,1,9.32,0Zm-1.69,8.43h12.7v7.47H43.54ZM64.41,79.69a6.87,6.87,0,0,0-5.17-5.17V66.85a4.21,4.21,0,0,0-.34-8.4H57.66a7.91,7.91,0,0,0-15.54,0H40.87a4.21,4.21,0,0,0-.33,8.4v7.67a6.87,6.87,0,0,0-5.17,5.17H31.24V75.1a1.49,1.49,0,0,0-.77-1.3,71,71,0,0,0-.12-28l0-.13a4.32,4.32,0,0,0,1.76-3.47,4.16,4.16,0,0,0-.23-1.32h2.8a4.46,4.46,0,0,0-.23,1.32,4.33,4.33,0,0,0,4.33,4.33H44.4a4.33,4.33,0,0,0,4.32-4.33,4.16,4.16,0,0,0-.23-1.32h2.8a4.46,4.46,0,0,0-.23,1.32,4.33,4.33,0,0,0,4.33,4.33H61a4.33,4.33,0,0,0,4.32-4.33,4.16,4.16,0,0,0-.23-1.32h2.8a4.16,4.16,0,0,0-.23,1.32,4.31,4.31,0,0,0,1.76,3.46,71,71,0,0,0-.15,28.16,1.48,1.48,0,0,0-.77,1.3v4.59ZM79,42.18a1.33,1.33,0,0,1-1.32,1.33H72a1.33,1.33,0,1,1,0-2.65h5.65A1.32,1.32,0,0,1,79,42.18Z"></path><path d="M49.74,20.23a5.55,5.55,0,1,0,5.54,5.55A5.56,5.56,0,0,0,49.74,20.23Zm0,8.09a2.55,2.55,0,1,1,2.54-2.54A2.55,2.55,0,0,1,49.74,28.32Z"></path><path d="M90.15,84.6H9.63a1.5,1.5,0,1,0,0,3H90.15a1.5,1.5,0,0,0,0-3Z"></path></g></svg>