<svg height='100px' width='100px'  fill="#000000" xmlns="http://www.w3.org/2000/svg" xmlns:xlink="http://www.w3.org/1999/xlink" version="1.1" x="0px" y="0px" viewBox="0 0 64 64" style="enable-background:new 0 0 64 64;" xml:space="preserve"><g><path d="M53,29c-2.206,0-4,1.794-4,4s1.794,4,4,4s4-1.794,4-4S55.206,29,53,29z M53,35c-1.103,0-2-0.897-2-2s0.897-2,2-2   s2,0.897,2,2S54.103,35,53,35z"></path><path d="M59.969,27.828c-1.142-1.11-2.496-1.894-3.969-2.352v-1.608l0.961,0.573C57.578,24.807,58.283,25,59,25   c1.406,0,2.726-0.752,3.441-1.96c0.544-0.918,0.698-1.994,0.434-3.03s-0.917-1.907-1.832-2.449L34.372,1.654   c-1.434-0.855-3.31-0.855-4.743,0L2.961,17.559c-0.918,0.544-1.57,1.415-1.835,2.451c-0.266,1.036-0.111,2.112,0.433,3.029   C2.276,24.249,3.595,25,5.001,25c0.717,0,1.422-0.193,2.041-0.561L8,23.869V63h44h2c1.654,0,3-1.346,3-3v-3h-2v-2h2v-6h-2v-2h2   v-2.844c3.617-1.579,6-5.173,6-9.156C63,32.275,61.924,29.728,59.969,27.828z M6.021,22.72c-0.918,0.546-2.2,0.213-2.741-0.701   c-0.272-0.457-0.349-0.995-0.216-1.514s0.458-0.954,0.92-1.228L30.654,3.371c0.813-0.485,1.88-0.487,2.692,0l26.674,15.908   c0.459,0.271,0.784,0.707,0.917,1.226c0.132,0.519,0.056,1.056-0.217,1.515c-0.541,0.911-1.825,1.242-2.738,0.701L34.371,8.652   C33.654,8.226,32.835,8,32.001,8s-1.654,0.226-2.371,0.652L6.021,22.72z M10,22.677l20.653-12.306c0.814-0.486,1.88-0.486,2.694,0   L54,22.676v2.391c-0.426-0.044-0.855-0.071-1.292-0.063c-3.016,0.086-5.743,1.595-7.535,3.858C42.573,24.037,37.583,21,32,21   c-8.271,0-15,6.729-15,15c0,3.299,1.07,6.418,3.019,9H14v2h35v13c0,0.352,0.072,0.686,0.184,1H10V22.677z M49,45h-5.012   c0.714-0.955,1.317-1.991,1.788-3.093c0.899,0.938,1.985,1.711,3.224,2.25V45z M43,36c0-6.065-4.935-11-11-11s-11,4.935-11,11   c0,3.72,1.861,7.008,4.695,9h-3.058C20.296,42.567,19,39.391,19,36c0-7.168,5.832-13,13-13c5.233,0,9.867,3.079,11.926,7.871   c-0.549,1.175-0.879,2.463-0.921,3.811h0.001c-0.06,1.915,0.427,3.74,1.334,5.311c-0.608,1.881-1.629,3.594-2.986,5.007h-3.049   C41.139,43.008,43,39.72,43,36z M32,45c-4.963,0-9-4.037-9-9s4.037-9,9-9s9,4.037,9,9S36.963,45,32,45z M55.666,42.534L55,42.77V45   h-2v6h2v2h-2v6h2v1c0,0.552-0.448,1-1,1h-2c-0.552,0-1-0.448-1-1V42.77l-0.666-0.235c-3.297-1.167-5.438-4.298-5.33-7.79h0.001   c0.129-4.149,3.609-7.622,7.76-7.74C52.844,27.001,52.923,27,53.002,27c2.095,0,4.066,0.799,5.573,2.263   C60.139,30.782,61,32.82,61,35C61,38.377,58.856,41.404,55.666,42.534z"></path><rect x="41" y="57" width="2" height="2"></rect><rect x="37" y="57" width="2" height="2"></rect><rect x="45" y="57" width="2" height="2"></rect><path d="M33,33c0.552,0,1,0.448,1,1h2c0-1.654-1.346-3-3-3v-2h-2v2h-3v3c0,1.654,1.346,3,3,3h2c0.552,0,1,0.448,1,1v1h-3   c-0.552,0-1-0.448-1-1h-2c0,1.654,1.346,3,3,3v2h2v-2h3v-3c0-1.654-1.346-3-3-3h-2c-0.552,0-1-0.448-1-1v-1H33z"></path></g></svg>