<svg height='100px' width='100px'  fill="#000000" xmlns="http://www.w3.org/2000/svg" xmlns:xlink="http://www.w3.org/1999/xlink" version="1.1" x="0px" y="0px" viewBox="0 0 100 100" enable-background="new 0 0 100 100" xml:space="preserve"><path d="M84.236,28.17c-0.082-0.123-0.174-0.239-0.262-0.357l-13.822,7.329c0.047,0.14,0.094,0.28,0.15,0.417  c0.055,0.136,0.118,0.266,0.182,0.399l13.979-7.413C84.391,28.422,84.316,28.293,84.236,28.17z"></path><path d="M83.182,26.907c-0.109-0.108-0.224-0.214-0.341-0.316l-13.063,6.926c0.02,0.155,0.043,0.308,0.07,0.46  c0.026,0.151,0.062,0.298,0.096,0.447l13.556-7.186C83.396,27.125,83.292,27.013,83.182,26.907z"></path><path d="M81.787,25.824c-0.146-0.09-0.294-0.178-0.449-0.259L69.77,31.699c-0.019,0.173-0.028,0.343-0.037,0.515  c-0.006,0.169-0.014,0.336-0.012,0.502l12.489-6.62C82.074,26,81.932,25.913,81.787,25.824z"></path><path d="M79.975,24.996c-0.015-0.004-0.029-0.005-0.045-0.01c-0.212-0.064-0.424-0.115-0.634-0.161l-8.991,4.768  c-0.082,0.2-0.158,0.403-0.225,0.616c-0.004,0.014-0.01,0.027-0.016,0.04c-0.055,0.179-0.094,0.357-0.135,0.537l10.562-5.601  C80.32,25.118,80.15,25.052,79.975,24.996z"></path><path d="M77.083,24.675c-0.458,0.032-0.905,0.104-1.345,0.214l-3.385,1.793c-0.336,0.303-0.647,0.633-0.933,0.992  c-0.196,0.249-0.375,0.512-0.542,0.787l7.155-3.796C77.716,24.65,77.396,24.651,77.083,24.675z"></path><path d="M85.212,34.944c0.003-0.015,0.011-0.026,0.015-0.041c0.056-0.179,0.094-0.356,0.135-0.536l-10.562,5.6  c0.173,0.067,0.345,0.133,0.521,0.189c0.015,0.003,0.025,0.006,0.043,0.009c0.212,0.064,0.421,0.116,0.635,0.161l8.99-4.768  C85.068,35.359,85.145,35.155,85.212,34.944z"></path><path d="M83.871,37.478c0.195-0.249,0.376-0.512,0.543-0.785l-7.158,3.795c0.32,0.017,0.639,0.013,0.955-0.009  c0.456-0.033,0.904-0.104,1.342-0.215l3.387-1.795C83.275,38.167,83.588,37.837,83.871,37.478z"></path><path d="M85.561,32.938c0.006-0.169,0.015-0.337,0.012-0.504l-12.49,6.624c0.136,0.095,0.279,0.184,0.425,0.273  s0.294,0.178,0.446,0.259l11.568-6.135C85.543,33.281,85.551,33.109,85.561,32.938z"></path><path d="M85.445,31.173c-0.027-0.148-0.061-0.297-0.098-0.444l-13.555,7.188c0.104,0.112,0.207,0.223,0.316,0.33  c0.111,0.108,0.224,0.215,0.342,0.315l13.062-6.926C85.498,31.48,85.475,31.326,85.445,31.173z"></path><path d="M84.991,29.593c-0.056-0.136-0.122-0.267-0.185-0.399l-13.98,7.412c0.076,0.128,0.148,0.254,0.229,0.376  c0.084,0.123,0.174,0.241,0.264,0.358l13.822-7.329C85.093,29.87,85.046,29.731,84.991,29.593z"></path><path d="M86.184,34.425c-0.525,2.427-2.08,4.615-4.445,5.869c-4.262,2.259-9.549,0.638-11.809-3.625  c-1.007-1.896-1.242-3.996-0.82-5.941c0.527-2.427,2.08-4.614,4.445-5.869c4.264-2.261,9.549-0.637,11.809,3.625  C86.369,30.381,86.605,32.48,86.184,34.425 M87.041,34.612L87.041,34.612c0.479-2.214,0.16-4.536-0.9-6.539  c-1.203-2.27-3.218-3.934-5.674-4.688c-2.453-0.753-5.058-0.506-7.324,0.698c-2.506,1.328-4.289,3.683-4.893,6.457  c-0.48,2.213-0.159,4.536,0.902,6.539c2.484,4.684,8.313,6.473,12.996,3.99C84.656,39.74,86.439,37.387,87.041,34.612L87.041,34.612  z"></path><path d="M30.646,70.156c-0.526,2.429-2.079,4.615-4.444,5.867c-4.262,2.26-9.55,0.639-11.809-3.623  c-1.005-1.896-1.242-3.996-0.82-5.942c0.527-2.425,2.08-4.612,4.445-5.867c4.263-2.262,9.55-0.638,11.809,3.625  C30.831,66.111,31.069,68.213,30.646,70.156 M31.504,70.344L31.504,70.344c0.481-2.213,0.16-4.535-0.901-6.537  c-1.204-2.271-3.219-3.935-5.673-4.688c-2.454-0.755-5.057-0.507-7.325,0.698c-2.505,1.326-4.289,3.683-4.891,6.457  c-0.48,2.213-0.16,4.535,0.901,6.539c2.484,4.683,8.314,6.472,12.998,3.99C29.12,75.473,30.903,73.12,31.504,70.344L31.504,70.344z"></path><path d="M28.6,63.695c0.043,0.061,0.088,0.119,0.128,0.184c0.033,0.047,0.062,0.098,0.093,0.146L14.8,71.458  c-0.025-0.052-0.047-0.104-0.069-0.155c-0.028-0.07-0.053-0.142-0.079-0.211L28.6,63.695z"></path><path d="M27.459,62.409c0.073,0.065,0.142,0.133,0.211,0.2c0.03,0.027,0.058,0.058,0.088,0.086l-13.461,7.139  c-0.009-0.039-0.017-0.08-0.024-0.121c-0.017-0.096-0.034-0.191-0.047-0.287L27.459,62.409z"></path><path d="M25.938,61.326c0.113,0.061,0.223,0.128,0.332,0.193c0.021,0.016,0.042,0.027,0.065,0.041L14.157,68.02  c0-0.023,0.002-0.051,0.003-0.076c0.005-0.129,0.013-0.258,0.024-0.385L25.938,61.326z"></path><path d="M14.509,65.925c0.058-0.18,0.122-0.356,0.191-0.53l9.157-4.854c0.182,0.04,0.365,0.087,0.546,0.14l0.019,0.006l-9.92,5.262  L14.509,65.925z"></path><path d="M15.918,63.305c0.255-0.316,0.541-0.619,0.851-0.898l3.455-1.831c0.402-0.099,0.812-0.166,1.22-0.202L15.918,63.305z"></path><path d="M29.717,70.664c-0.067,0.207-0.132,0.384-0.199,0.552l-9.157,4.854c-0.184-0.039-0.364-0.086-0.547-0.141l-0.02-0.006  L29.717,70.664z"></path><path d="M28.302,73.305c-0.256,0.318-0.543,0.621-0.85,0.898l-3.457,1.833c-0.404,0.097-0.813,0.165-1.22,0.2L28.302,73.305z"></path><path d="M30.062,68.59c-0.001,0.025-0.001,0.051-0.002,0.077c-0.007,0.129-0.013,0.257-0.024,0.386l-11.754,6.231  c-0.113-0.062-0.222-0.13-0.331-0.195c-0.023-0.015-0.043-0.026-0.066-0.04L30.062,68.59z"></path><path d="M29.921,66.775c0.007,0.039,0.016,0.08,0.023,0.121c0.018,0.096,0.034,0.19,0.047,0.287L16.759,74.2  c-0.072-0.065-0.142-0.134-0.211-0.201c-0.029-0.026-0.06-0.058-0.087-0.088L29.921,66.775z"></path><path d="M29.419,65.15c0.023,0.053,0.047,0.104,0.068,0.158c0.028,0.067,0.054,0.139,0.079,0.209L15.62,72.915  c-0.045-0.06-0.089-0.123-0.13-0.185c-0.033-0.047-0.063-0.096-0.092-0.146L29.419,65.15z"></path><path d="M74.334,73.805c-0.082-0.123-0.172-0.238-0.262-0.357l-13.822,7.33c0.048,0.141,0.093,0.279,0.148,0.416  s0.121,0.267,0.185,0.4l13.979-7.412C74.486,74.057,74.415,73.928,74.334,73.805z"></path><path d="M73.279,72.54c-0.11-0.106-0.225-0.213-0.342-0.313L59.874,79.15c0.021,0.154,0.043,0.309,0.071,0.461  c0.025,0.15,0.061,0.298,0.095,0.445l13.556-7.186C73.491,72.76,73.391,72.648,73.279,72.54z"></path><path d="M71.885,71.458c-0.146-0.09-0.293-0.179-0.449-0.259l-11.568,6.135c-0.02,0.172-0.028,0.342-0.036,0.516  c-0.007,0.168-0.015,0.336-0.011,0.502l12.488-6.621C72.172,71.635,72.027,71.547,71.885,71.458z"></path><path d="M70.07,70.63c-0.014-0.005-0.028-0.006-0.043-0.011c-0.213-0.062-0.424-0.113-0.637-0.16l-8.988,4.77  c-0.082,0.199-0.158,0.403-0.225,0.613c-0.005,0.014-0.011,0.027-0.017,0.041c-0.054,0.18-0.091,0.357-0.134,0.536l10.561-5.601  C70.418,70.752,70.249,70.688,70.07,70.63z"></path><path d="M67.18,70.309c-0.457,0.032-0.904,0.104-1.344,0.215l-3.385,1.793c-0.336,0.303-0.648,0.634-0.932,0.992  c-0.197,0.25-0.375,0.512-0.543,0.785l7.154-3.795C67.812,70.283,67.494,70.285,67.18,70.309z"></path><path d="M75.311,80.577c0.004-0.013,0.01-0.024,0.014-0.04c0.056-0.18,0.094-0.355,0.135-0.536l-10.561,5.601  c0.172,0.066,0.344,0.135,0.519,0.189c0.015,0.003,0.028,0.006,0.043,0.01c0.213,0.062,0.423,0.116,0.636,0.159l8.991-4.767  C75.167,80.993,75.242,80.79,75.311,80.577z"></path><path d="M73.967,83.111c0.198-0.248,0.379-0.512,0.545-0.784l-7.158,3.794c0.32,0.018,0.64,0.014,0.955-0.008  c0.457-0.032,0.903-0.105,1.342-0.215l3.388-1.797C73.374,83.801,73.686,83.473,73.967,83.111z"></path><path d="M75.657,78.57c0.006-0.168,0.014-0.336,0.012-0.504L63.18,84.691c0.137,0.096,0.28,0.184,0.424,0.271  c0.146,0.091,0.295,0.179,0.447,0.261l11.568-6.136C75.641,78.915,75.648,78.743,75.657,78.57z"></path><path d="M75.543,76.809c-0.027-0.148-0.061-0.297-0.098-0.445l-13.553,7.189c0.102,0.11,0.205,0.223,0.314,0.329  c0.111,0.106,0.225,0.214,0.341,0.315l13.063-6.928C75.596,77.115,75.57,76.961,75.543,76.809z"></path><path d="M75.088,75.227c-0.055-0.136-0.121-0.267-0.184-0.398L60.925,82.24c0.076,0.127,0.147,0.255,0.229,0.375  c0.082,0.123,0.173,0.24,0.261,0.359l13.821-7.33C75.189,75.505,75.143,75.365,75.088,75.227z"></path><path d="M76.281,80.059c-0.527,2.428-2.08,4.615-4.445,5.869c-4.262,2.26-9.549,0.637-11.811-3.625  c-1.004-1.896-1.241-3.996-0.819-5.939c0.526-2.43,2.079-4.614,4.444-5.869c4.264-2.262,9.551-0.637,11.811,3.626  C76.467,76.016,76.703,78.113,76.281,80.059 M77.139,80.246L77.139,80.246c0.48-2.213,0.16-4.536-0.9-6.539  c-1.205-2.27-3.219-3.934-5.674-4.688s-5.057-0.506-7.322,0.696c-2.508,1.329-4.292,3.685-4.895,6.459  c-0.479,2.212-0.158,4.535,0.903,6.538c2.481,4.684,8.313,6.473,12.997,3.989C74.754,85.374,76.537,83.021,77.139,80.246  L77.139,80.246z"></path><path d="M40.551,24.521c-0.527,2.428-2.079,4.615-4.444,5.869c-4.262,2.259-9.55,0.638-11.81-3.625  c-1.004-1.896-1.242-3.996-0.819-5.941c0.526-2.427,2.079-4.614,4.444-5.868c4.263-2.262,9.55-0.638,11.81,3.625  C40.736,20.477,40.973,22.576,40.551,24.521 M41.41,24.708L41.41,24.708c0.48-2.213,0.159-4.536-0.902-6.539  c-1.204-2.269-3.218-3.933-5.672-4.687c-2.456-0.754-5.057-0.505-7.325,0.697c-2.506,1.328-4.29,3.683-4.892,6.458  c-0.48,2.213-0.16,4.536,0.903,6.54c2.483,4.682,8.312,6.472,12.997,3.989C39.024,29.836,40.807,27.483,41.41,24.708L41.41,24.708z"></path><path d="M38.504,18.06c0.044,0.061,0.089,0.12,0.129,0.185c0.031,0.046,0.062,0.095,0.093,0.144l-14.021,7.434  c-0.025-0.051-0.048-0.104-0.07-0.156c-0.028-0.07-0.054-0.141-0.079-0.21L38.504,18.06z"></path><path d="M37.364,16.772c0.072,0.066,0.141,0.134,0.21,0.201c0.031,0.029,0.06,0.058,0.089,0.087l-13.46,7.138  c-0.009-0.041-0.017-0.081-0.023-0.122c-0.019-0.095-0.034-0.191-0.047-0.287L37.364,16.772z"></path><path d="M35.843,15.689c0.112,0.062,0.221,0.128,0.332,0.196c0.021,0.014,0.042,0.026,0.065,0.039l-12.178,6.459  c0-0.025,0.002-0.051,0.004-0.077c0.005-0.128,0.012-0.257,0.022-0.384L35.843,15.689z"></path><path d="M24.414,20.289c0.057-0.18,0.121-0.356,0.191-0.531l9.157-4.855c0.182,0.04,0.365,0.086,0.547,0.141l0.019,0.006  l-9.921,5.26L24.414,20.289z"></path><path d="M25.822,17.668c0.257-0.317,0.542-0.619,0.852-0.897l3.454-1.832c0.403-0.1,0.812-0.167,1.22-0.204L25.822,17.668z"></path><path d="M39.622,25.028c-0.067,0.208-0.131,0.385-0.198,0.553l-9.159,4.855c-0.182-0.04-0.363-0.086-0.546-0.141l-0.02-0.005  L39.622,25.028z"></path><path d="M38.207,27.669c-0.257,0.318-0.544,0.621-0.851,0.898l-3.457,1.834c-0.403,0.096-0.812,0.164-1.22,0.2L38.207,27.669z"></path><path d="M39.967,22.955c-0.001,0.026-0.002,0.05-0.004,0.077c-0.006,0.129-0.012,0.257-0.023,0.385l-11.753,6.232  c-0.112-0.062-0.222-0.129-0.332-0.196c-0.021-0.014-0.043-0.027-0.065-0.041L39.967,22.955z"></path><path d="M39.825,21.139c0.009,0.041,0.017,0.081,0.024,0.122c0.018,0.095,0.033,0.192,0.048,0.288l-13.234,7.017  c-0.072-0.066-0.142-0.133-0.21-0.202c-0.03-0.028-0.06-0.058-0.089-0.087L39.825,21.139z"></path><path d="M39.323,19.515c0.024,0.053,0.048,0.104,0.069,0.158c0.028,0.069,0.054,0.14,0.079,0.21l-13.947,7.396  c-0.046-0.059-0.089-0.122-0.131-0.183c-0.032-0.048-0.062-0.096-0.091-0.146L39.323,19.515z"></path><circle cx="42.876" cy="82.701" r="7.929"></circle><path d="M34.338,80.854c0.527-2.426,2.079-4.613,4.445-5.867c4.264-2.26,9.55-0.639,11.81,3.623  c1.007,1.896,1.242,3.996,0.819,5.941c-0.525,2.428-2.079,4.613-4.445,5.868c-4.262,2.261-9.548,0.638-11.81-3.626  C34.153,84.896,33.917,82.799,34.338,80.854 M33.481,80.666L33.481,80.666C33,82.88,33.321,85.2,34.382,87.205  c1.203,2.27,3.218,3.934,5.673,4.688s5.056,0.504,7.323-0.699c2.507-1.326,4.289-3.682,4.892-6.457  c0.479-2.213,0.16-4.532-0.9-6.539c-2.485-4.682-8.314-6.471-12.998-3.986C35.866,75.538,34.083,77.893,33.481,80.666L33.481,80.666  z"></path><path d="M48.346,16.314c0.527-2.428,2.079-4.614,4.445-5.869c4.264-2.26,9.55-0.638,11.811,3.624  c1.006,1.897,1.241,3.996,0.819,5.942c-0.526,2.427-2.079,4.613-4.444,5.867c-4.264,2.262-9.549,0.638-11.811-3.625  C48.162,20.358,47.925,18.258,48.346,16.314 M47.488,16.127L47.488,16.127c-0.48,2.212-0.159,4.535,0.902,6.538  c1.203,2.269,3.219,3.934,5.672,4.687c2.455,0.753,5.058,0.506,7.324-0.698c2.508-1.328,4.291-3.681,4.893-6.457  c0.479-2.213,0.16-4.535-0.901-6.539C62.895,8.976,57.064,7.186,52.38,9.67C49.874,10.998,48.091,13.353,47.488,16.127  L47.488,16.127z"></path><circle cx="49.88" cy="50.436" r="19.607"></circle><circle cx="82.146" cy="57.441" r="7.928"></circle><path d="M80.298,65.98c-2.427-0.527-4.614-2.08-5.866-4.444c-2.262-4.265-0.64-9.552,3.623-11.811  c1.896-1.006,3.996-1.243,5.941-0.82c2.427,0.527,4.611,2.08,5.865,4.447c2.263,4.262,0.64,9.549-3.623,11.811  C84.342,66.165,82.243,66.402,80.298,65.98 M80.111,66.838L80.111,66.838c2.213,0.48,4.535,0.159,6.537-0.9  c2.27-1.203,3.936-3.219,4.688-5.674c0.755-2.455,0.507-5.057-0.695-7.324c-1.33-2.506-3.683-4.29-6.457-4.892  c-2.215-0.48-4.535-0.16-6.541,0.903c-4.682,2.482-6.472,8.312-3.988,12.996C74.982,64.452,77.338,66.236,80.111,66.838  L80.111,66.838z"></path><path d="M15.759,51.973c-2.428-0.527-4.615-2.079-5.869-4.445c-2.259-4.264-0.637-9.549,3.625-11.811  c1.896-1.005,3.995-1.243,5.941-0.82c2.427,0.526,4.614,2.08,5.868,4.445c2.262,4.263,0.638,9.55-3.625,11.811  C19.803,52.158,17.704,52.395,15.759,51.973 M15.572,52.831L15.572,52.831c2.213,0.479,4.536,0.159,6.538-0.901  c2.27-1.203,3.935-3.219,4.688-5.674c0.752-2.455,0.504-5.057-0.698-7.324c-1.328-2.506-3.682-4.289-6.457-4.892  c-2.214-0.48-4.536-0.16-6.54,0.902c-4.682,2.484-6.472,8.313-3.988,12.997C10.444,50.445,12.797,52.229,15.572,52.831  L15.572,52.831z"></path></svg>