<svg height='100px' width='100px'  fill="#000000" xmlns="http://www.w3.org/2000/svg" viewBox="0 0 64 64" x="0px" y="0px"><g><path d="M49,46a1,1,0,0,1,1,1h2a3,3,0,0,0-2-2.816V43H48v1.184A2.993,2.993,0,0,0,49,50a1,1,0,1,1-1,1H46a3,3,0,0,0,2,2.816V55h2V53.816A2.993,2.993,0,0,0,49,48a1,1,0,0,1,0-2Z"></path><path d="M57,6.09V3a1,1,0,0,0-1.555-.832L52.7,4H43a3,3,0,0,0-3,3V9a1,1,0,0,0,1,1h3.649l4.726,3.781A1,1,0,0,0,50,14h5a1,1,0,0,0,.625-1.781L52.851,10H54a1,1,0,0,0,.447-.105l2-1a1,1,0,0,0,.534-.759A4,4,0,0,1,60,12v8a4,4,0,0,1-3,3.858V23a3,3,0,0,0-3-3H46V19a7.008,7.008,0,0,0-7-7H25a7.007,7.007,0,0,0-6.971,6.424,8.776,8.776,0,0,1-1.151-.959l-2.257-2.258.6-3.011a1,1,0,0,0-.273-.9L9.293,5.636a1.029,1.029,0,0,0-1.414,0L3.636,9.879a1,1,0,0,0,0,1.414l5.657,5.656a1,1,0,0,0,.707.293,1.084,1.084,0,0,0,.2-.019l3.01-.6,2.258,2.258A10.884,10.884,0,0,0,16.8,20H10a3,3,0,0,0-3,3V39.142A4,4,0,0,0,4,43v1.7L2.168,47.445a.9.9,0,0,0-.057.117c-.013.027-.028.052-.039.081A.989.989,0,0,0,2,47.982c0,.006,0,.011,0,.018V61a1,1,0,0,0,1,1H62V60h-.612l.561-1.684a1,1,0,0,0-.054-.763L61,55.764V47a9,9,0,0,0-4-7.478V25.91A6.006,6.006,0,0,0,62,20V12A6.006,6.006,0,0,0,57,6.09ZM52.149,12h-1.8l-2.5-2h1.8ZM55,7.382,53.764,8H42V7a1,1,0,0,1,1-1H53a1.006,1.006,0,0,0,.555-.168L55,4.868Zm-49.243,3.2L8.586,7.757l4.571,4.572-.471,2.357-2.357.47ZM54,22a1,1,0,0,1,1,1v1H46V22ZM47.221,36h3.56L50.4,37.892a11.613,11.613,0,0,1-2.807-.018Zm7.287.586a10.468,10.468,0,0,1-1.972.832L52.98,35.2A1,1,0,0,0,52,34H46a1,1,0,0,0-.98,1.2l.435,2.167a10.369,10.369,0,0,1-1.8-.778,1,1,0,1,0-.984,1.74c.262.148.541.263.813.392A9.013,9.013,0,0,0,38,47v8.764l-.9,1.789a1,1,0,0,0-.051.188L30,54.656v-1.8A4,4,0,0,0,33,49V46a4,4,0,0,0-8,0v3a4,4,0,0,0,3,3.858v.989A14.969,14.969,0,0,0,23.07,53H23V48c0-.007,0-.012,0-.018a.989.989,0,0,0-.068-.339c-.011-.029-.026-.054-.039-.081a.9.9,0,0,0-.057-.117l-4-6c-.007-.01-.02-.013-.028-.024A.993.993,0,0,0,18,41H15V37c0-.012-.006-.021-.007-.033a.952.952,0,0,0-.069-.341c-.008-.022-.023-.039-.033-.06A.994.994,0,0,0,14.8,36.4l-3-4a1.036,1.036,0,0,0-1.6,0L9,34V31a1,1,0,0,1,1-1H54a1,1,0,0,1,1,1v5.472A.983.983,0,0,0,54.508,36.586ZM28,50.722A1.993,1.993,0,0,1,27,49V46a2,2,0,0,1,4,0v3a1.993,1.993,0,0,1-1,1.722V48H28ZM17,51v2H15V49h6v4H19V51ZM9,53V50.858A4,4,0,0,0,11.444,49H13v4ZM4,49h.556A4,4,0,0,0,7,50.858V53H4Zm16.131-2H15.869L18,43.8Zm-6.666,0H12V43h4.131ZM9,38h4v3H11.444A4,4,0,0,0,9,39.142Zm1-2,1-1.333L12,36Zm44-8H10a2.966,2.966,0,0,0-1,.184V26H55v2.184A2.966,2.966,0,0,0,54,28ZM20,21.569a10.564,10.564,0,0,0,2,.382V24H20ZM26,18H39a1,1,0,0,1,1,1v1H24V19a1,1,0,0,1,1-1Zm-2,6V22H40v2Zm20-5v5H42V19a3,3,0,0,0-3-3V14A5.006,5.006,0,0,1,44,19Zm-7-5v2H27V14ZM20,19a5.006,5.006,0,0,1,5-5v2a3,3,0,0,0-3,3v.937a8.546,8.546,0,0,1-2-.479ZM9,23a1,1,0,0,1,1-1h8v2H9ZM6,43a2,2,0,0,1,4,0v4a1.993,1.993,0,0,1-1,1.722V46H7v2.722A1.993,1.993,0,0,1,6,47Zm4,17H4V55H23.07a12.978,12.978,0,0,1,5.209,1.086L37.229,60ZM59,47v9a1,1,0,0,0,.1.447l.815,1.63L59.279,60H39.721l-.641-1.923.815-1.63A1,1,0,0,0,40,56V47a7.008,7.008,0,0,1,7-7h5A7.008,7.008,0,0,1,59,47Z"></path><rect x="15" y="32" width="4" height="2"></rect><rect x="23" y="32" width="4" height="2"></rect><rect x="31" y="32" width="4" height="2"></rect><rect x="39" y="32" width="4" height="2"></rect></g></svg>