<svg height='100px' width='100px'  fill="#000000" xmlns="http://www.w3.org/2000/svg" xmlns:xlink="http://www.w3.org/1999/xlink" version="1.1" x="0px" y="0px" viewBox="0 0 100 100" enable-background="new 0 0 100 100" xml:space="preserve"><g><path fill-rule="evenodd" clip-rule="evenodd" d="M50.002,4.96C25.165,4.96,4.96,25.165,4.96,50   c0,12.03,4.686,23.339,13.191,31.847c8.505,8.508,19.816,13.193,31.851,13.193c12.028,0,23.342-4.686,31.847-13.193   C90.354,73.339,95.04,62.03,95.04,50C95.04,25.165,74.835,4.96,50.002,4.96z M79.729,79.728   C71.788,87.669,61.23,92.04,50.002,92.04c-11.232,0-21.792-4.371-29.731-12.313C12.332,71.785,7.958,61.229,7.958,50   C7.96,26.818,26.82,7.96,50.002,7.96c23.181,0,42.04,18.858,42.04,42.04C92.042,61.229,87.669,71.785,79.729,79.728z"></path><path fill-rule="evenodd" clip-rule="evenodd" d="M89.106,46.182c-0.243-1.027-0.57-2.041-0.971-3.022   c-3.155-7.702-10.569-12.679-18.894-12.679c-2.65,0-5.249,0.512-7.725,1.524c-1.473,0.604-2.822,1.409-4.091,2.318   c1.273-1.512,2.161-3.446,1.972-6.289c-0.244-3.618-1.207-4.87-1.979-5.874c-0.519-0.673-0.859-1.118-0.959-2.583   c-0.093-1.366,1.111-3.874,2.967-4.537c0.665-0.238,1.074-0.905,0.983-1.604c-0.091-0.7-0.657-1.241-1.359-1.301   c-1.039-0.089-2.095-0.102-3.173-0.031c-11.227,0.758-19.743,10.51-18.984,21.736c0.138,2.06,0.611,4.047,1.336,5.925   c-1.12-2.188-2.805-4.167-6.33-4.886c-1.115-0.228-2.074-0.339-2.925-0.339c-1.572,0-2.51,0.382-3.262,0.69   c-0.868,0.351-1.446,0.504-2.744,0.238c-1.341-0.273-3.439-2.101-3.588-4.066c-0.052-0.705-0.587-1.275-1.285-1.374   c-0.698-0.086-1.368,0.302-1.615,0.963c-0.366,0.992-0.659,2.019-0.872,3.054C13.36,45.071,20.5,55.869,31.524,58.119   c1.252,0.254,2.525,0.38,3.789,0.401c-1.868,0.512-3.659,1.582-5.111,3.96c-1.89,3.093-1.826,4.671-1.776,5.938   c0.033,0.847,0.056,1.407-0.711,2.661c-0.62,1.017-2.438,2.104-4.157,2.104c-0.314,0-0.616-0.038-0.888-0.114   c-0.678-0.192-1.396,0.118-1.725,0.742c-0.329,0.621-0.184,1.39,0.353,1.845c0.802,0.68,1.667,1.306,2.574,1.859   c3.208,1.96,6.88,2.995,10.621,2.995c7.177,0,13.693-3.652,17.431-9.77c3.293-5.386,3.797-11.986,1.642-17.786   c0.366,0.368,0.781,0.822,1.279,1.409c2.386,2.804,1.676,5.167,0.774,8.156c-0.948,3.15-2.024,6.725,1.242,10.56   c2.351,2.762,3.867,3.193,5.088,3.541c0.816,0.233,1.354,0.386,2.304,1.502c0.889,1.043,1.413,3.776,0.318,5.415   c-0.391,0.584-0.322,1.363,0.165,1.871c0.291,0.302,0.687,0.461,1.083,0.461c0.269,0,0.539-0.072,0.78-0.221   c0.893-0.546,1.761-1.174,2.57-1.863c8.569-7.295,9.606-20.199,2.314-28.767c-1.027-1.209-2.187-2.267-3.437-3.19   c0.8,0.263,1.646,0.437,2.572,0.437c1.135,0,2.316-0.248,3.511-0.735c3.354-1.376,4.237-2.684,4.947-3.734   c0.476-0.704,0.789-1.167,2.145-1.723c1.229-0.51,4.021-0.182,5.246,1.382c0.434,0.554,1.195,0.729,1.83,0.426   C88.933,47.572,89.27,46.866,89.106,46.182z M49.895,44.536c-0.004-0.091-0.012-0.167-0.021-0.263   c-0.248-3.673,1.731-5.146,4.233-7.014c0.019-0.015,0.035-0.027,0.054-0.042C52.254,39.329,50.797,41.819,49.895,44.536z    M54.815,15.23c-0.946,1.458-1.441,3.155-1.347,4.551c0.159,2.372,0.909,3.347,1.572,4.208c0.607,0.789,1.182,1.535,1.365,4.248   c0.228,3.396-1.678,4.818-4.09,6.619c-2.114,1.574-4.618,3.496-5.269,7.041c-0.847-3.357-0.359-7.173,2.297-12.117l-2.641-1.417   c-3.677,6.84-3.56,11.997-1.967,16.149c-2.789-2.907-4.574-6.735-4.853-10.873C39.267,24.489,45.874,16.486,54.815,15.23z    M44.277,48.161c-2.965-0.896-3.839-3.045-4.886-5.731c-0.095-0.244-0.196-0.492-0.295-0.739   C40.362,44.174,42.129,46.372,44.277,48.161z M18.339,35.9c1.157,1.299,2.657,2.229,4.03,2.508   c2.122,0.434,3.473,0.013,4.475-0.398c0.638-0.263,1.146-0.467,2.13-0.467c0.641,0,1.421,0.093,2.326,0.276   c3.337,0.68,4.202,2.896,5.297,5.7c0.891,2.283,1.958,4.985,4.714,6.617c-3.558-0.029-7.181-1.516-11.323-5.545l-2.091,2.148   c4.977,4.838,9.491,6.405,13.559,6.405c1.24,0,2.43-0.165,3.584-0.407c-3.76,2.413-8.433,3.365-12.918,2.444   C23.138,53.347,17.178,44.854,18.339,35.9z M47.302,54.802c-1.834,2.934-4.167,3.117-7.084,3.193   C42.763,57.4,45.162,56.297,47.302,54.802z M49.366,69.179c-3.19,5.218-8.747,8.334-14.873,8.334c-2.766,0-5.493-0.665-7.952-1.937   c1.57-0.623,2.971-1.684,3.731-2.936c1.24-2.026,1.192-3.256,1.149-4.343c-0.042-0.995-0.079-1.936,1.339-4.256   c1.776-2.904,4.152-2.962,7.163-3.036c2.818-0.07,6.241-0.157,8.91-3.229c-0.992,4.361-3.689,7.938-10.28,10.749l1.177,2.756   c8.07-3.443,11.026-8.225,12.07-13.04C52.198,61.995,51.393,65.858,49.366,69.179z M68.164,80.643   c-0.109-1.735-0.719-3.396-1.626-4.463c-1.541-1.81-2.723-2.146-3.769-2.441c-0.958-0.273-1.863-0.531-3.628-2.602   c-2.204-2.593-1.521-4.869-0.652-7.754c0.93-3.08,2.082-6.914-1.361-10.962c-0.271-0.317-0.525-0.609-0.771-0.882   c3.949,1.535,7.016,4.617,9.007,11.156l2.868-0.872c-1.318-4.332-3.141-7.345-5.237-9.464c2.361,1.037,4.489,2.582,6.208,4.601   C75.146,63.945,74.604,74.309,68.164,80.643z M55.936,47.837c-0.293,0-0.583,0.043-0.874,0.056   c0.209-0.091,0.415-0.178,0.655-0.277c0.925-0.38,1.776-0.564,2.599-0.564c1.976,0,3.607,1.122,5.33,2.324   C61.225,48.389,58.617,47.837,55.936,47.837z M80.089,43.296c-2.198,0.901-2.887,1.921-3.494,2.82   c-0.558,0.826-1.086,1.607-3.601,2.636c-2.961,1.217-5.089-0.062-7.571-1.793c-1.953-1.361-4.165-2.907-7.107-2.907   c-0.876,0-1.76,0.184-2.665,0.455c2.851-2.531,6.73-3.841,12.899-3.25l0.288-2.983c-6.583-0.645-10.981,0.783-14.13,3.124   c1.901-2.907,4.634-5.26,7.946-6.615c2.111-0.866,4.328-1.304,6.588-1.304c6.676,0,12.667,3.752,15.594,9.658   C83.004,42.668,81.343,42.784,80.089,43.296z"></path><polygon fill-rule="evenodd" clip-rule="evenodd" points="49.097,25.653 50.084,27.274 50.238,25.423 52.102,25.051 50.337,24.285    50.502,22.436 49.254,23.812 47.494,23.039 48.49,24.659 47.238,26.031  "></polygon><polygon fill-rule="evenodd" clip-rule="evenodd" points="26.524,42.596 26.69,40.747 25.442,42.125 23.682,41.352 24.678,42.972    23.425,44.343 25.285,43.963 26.272,45.585 26.427,43.734 28.289,43.362  "></polygon><polygon fill-rule="evenodd" clip-rule="evenodd" points="74.277,38.009 73.031,39.385 71.271,38.612 72.265,40.232 71.013,41.604    72.872,41.226 73.859,42.848 74.015,40.997 75.876,40.625 74.114,39.858  "></polygon><polygon fill-rule="evenodd" clip-rule="evenodd" points="67.94,65.627 66.179,64.854 67.175,66.472 65.922,67.846 67.781,67.466    68.77,69.088 68.924,67.236 70.785,66.864 69.021,66.098 69.187,64.249  "></polygon><polygon fill-rule="evenodd" clip-rule="evenodd" points="36.66,69.108 35.412,70.486 33.652,69.714 34.648,71.333 33.396,72.705    35.255,72.325 36.243,73.946 36.397,72.096 38.259,71.724 36.495,70.957  "></polygon></g></svg>