<svg height='100px' width='100px'  fill="#000000" xmlns="http://www.w3.org/2000/svg" xmlns:xlink="http://www.w3.org/1999/xlink" version="1.1" x="0px" y="0px" viewBox="0 0 100 100" enable-background="new 0 0 100 100" xml:space="preserve"><g><path fill="none" stroke="#000000" stroke-width="0.25" stroke-linecap="round" stroke-linejoin="round" stroke-miterlimit="10" d="   M28.125,9.125c0.726,0.608,1.467,1.439,2.369,1.75c1.24,0.428,2.556-0.238,3.73-0.51c1.726-0.398,3.937-1.656,5.521-2.578h32.379   L72.625,65c0.482-0.063,0.188,1.249,0.5,1.909c0.267,0.562,0.517,0.016,0.347,0.82c-0.03,0.143-0.795,0.673-0.828,0.893   c-0.192,1.276,1.02,0.625,1.49,1.22c0.358,0.452-0.007,1.404-0.152,1.893c-1.237-0.491-2.755-0.172-3.973,0.378   c-1.162,0.525-2.028,2.289-3.239,2.368c0.373-1.708-1.815-2.391-3.054-1.489c-1.074,0.782-0.429,0.969-0.366,1.912   c0.046,0.692-0.287,1.152-0.203,1.825c1.275,0.238,0.064,1.406-0.371,1.897c-0.577,0.649-0.346,0.577-1.157,0.875   c-0.405,0.149-0.912-0.033-1.271,0.234c-0.987,0.734-0.124,2.048-0.966,2.74c-0.859,0.705-1.993-0.45-2.985-0.083   c-0.161,0.577,0.012,1.294-0.182,1.728c-0.255,0.573-0.642,0.57-0.863,1.101c-0.332,0.792-0.259,2.448,0.014,3.375   c-0.503,0.424-1.105,0.835-1.752,0.896c-0.13-1.358-2.939-1.473-3.619-2.485c-0.476-0.708-0.619-1.452-1.747-1.365   c-0.936,0.072-1.64,0.98-2.711,0.65c0.257,0.346,0.584,0.645,0.953,0.871c-0.318,0.226-1.163,0.429-1.379,0.832   c-0.296,0.552,0.166,1.066,0.025,1.525c-0.182,0.595-1.022,1.093-1.263,1.607c-0.321,0.686,0.05,1.584-1.116,1.761   c-0.206-0.622-0.065-1.341-0.22-1.967c-1.933,0.879-0.438-1.988-1.912-2.052c-0.372-0.017-1.846,1.111-2.256,1.301   c-0.73,0.34-1.478,0.688-2.234,1.075c0.304,0.678-0.125,1.999-1.016,1.734c-0.289-0.085-0.992-1.599-1.488-1.944   c-0.938-0.651-2.139-1.236-3.274-1.284c-1.276-0.054-1.475,0.523-2.331,1.233c-0.251-0.631-1.21-1.358-1.872-0.713   c-0.966,0.941,0.671,1.444,0.584,2.335c-0.918,0.211-1.006-0.862-1.675-1.267c-0.735-0.446-0.877-0.084-1.597-0.21   c-1.112-0.196-2.454-1.707-2.83,0.39c0.116,0.014,0.322,0.099,0.471,0.124c0.46,2.228-1.793,1.575-2.106,0.233   c-0.275-1.179,0.061-3.392,0.399-4.483c0.759,0.188,1.506-1.311,1.578-1.995c-0.524-0.24-1.123-0.722-0.95-1.369   c0.249-0.927,0.927-0.241,1.498-0.544c0.636-0.338,1.382-1.805,1.85-2.387c0.794-0.989,1.296-2.295,1.763-3.459   c0.524-1.309,1.022-1.903,1.997-2.903c0.43-0.442,1.14-1.191,1.246-1.852c0.18-1.109-0.818-1.233-0.98-2.035   c-0.16-0.796,0.654-1.016,0.449-1.844c-0.094,0.086-0.216,0.171-0.325,0.234c-0.542-1.005-0.145-1.761-0.556-2.74   c-0.289-0.687-1.047-1.076-1.487-1.616c0.536-0.797,0.93-1.543,1.53-2.257c-1.067-0.893-0.32-2.407,0.738-3L28.125,9.125z"></path></g></svg>