<svg height='100px' width='100px'  fill="#000000" xmlns="http://www.w3.org/2000/svg" data-name="Layer 1" viewBox="0 0 250 250" x="0px" y="0px"><title>red button-war-aggression-president</title><path d="M241,227H201.7a3.9,3.9,0,1,1,0-7.81h23.73a13.89,13.89,0,0,0,0-27.78h-45.2V166.91H205a4.5,4.5,0,0,0,4.5-4.52l-.26-70.57a4.52,4.52,0,0,0,0-1.79l-.08-21.77a4.49,4.49,0,0,0,0-2.38l-.1-28.3a4.5,4.5,0,0,0-4.47-4.48l-46.36-.32a4.56,4.56,0,0,0-3.2,1.31,4.5,4.5,0,0,0-1.33,3.19V53.86a4.5,4.5,0,0,0,1.47,3.32l16.11,14.7v86.06H138.13v-7.32h9.56a4.5,4.5,0,0,0,4.5-4.5,23,23,0,0,0-23-23H104a23,23,0,0,0-23,23,4.5,4.5,0,0,0,4.5,4.5h8v7.32H50.37a4.5,4.5,0,0,0-4.5,4.5v16.49s0,0,0,.06v28.72a4.5,4.5,0,0,0,4.5,4.5H175.73a4.5,4.5,0,0,0,4.5-4.5v-7.25h45.2a4.89,4.89,0,0,1,0,9.78H201.7a12.9,12.9,0,1,0,0,25.81H241a4.5,4.5,0,0,0,0-9ZM162.68,51.87V41.8l37.37.26.09,23.34L185.69,79.85a4.5,4.5,0,1,0,6.36,6.36l8.13-8.13,0,11.09-14.54,14.54a4.5,4.5,0,1,0,6.36,6.36l8.22-8.22.21,56.05h-20.2v-88a4.5,4.5,0,0,0-1.47-3.32ZM104,132.16h25.27a14,14,0,0,1,13.21,9.45h-8.55l-.26,0H98l-.26,0h-7A14,14,0,0,1,104,132.16Zm-1.43,18.45h26.59v7.32H102.54ZM72.63,166.92l-6.89,7.49H54.86v-7.49Zm98.6,36.27H54.86V183.41H67.72A4.5,4.5,0,0,0,71,182l13.82-15H97.66c.13,0,.25,0,.38,0h35.59c.13,0,.25,0,.38,0h37.22Z"></path><path d="M71.24,115a80.71,80.71,0,0,0,33.91-5.48L140,95.66a13.53,13.53,0,0,0,7.59-17.54,13.31,13.31,0,0,0-2.85-4.4,13.54,13.54,0,0,0,4-15.44,13.39,13.39,0,0,0-4.21-5.64,13.5,13.5,0,0,0-8.27-20.91A13.51,13.51,0,0,0,118,17.17l-14,5.59a32.85,32.85,0,0,0-37.82-6.13l-2.4,1.19a32.78,32.78,0,0,0-13.84,13A80.79,80.79,0,0,1,10.54,64.26l-.47.19a4.5,4.5,0,1,0,3.3,8.37l.47-.19A89.89,89.89,0,0,0,57.68,35.37a23.87,23.87,0,0,1,10.08-9.49l2.4-1.19a23.87,23.87,0,0,1,24.38,1.84l-10,4a4.5,4.5,0,0,0,3.34,8.36l33.43-13.37a4.51,4.51,0,1,1,3.32,8.39,4.5,4.5,0,0,0,3.31,8.37h0l3.88-1.53a4.51,4.51,0,1,1,3.31,8.4l-3.89,1.56a4.5,4.5,0,0,0,3.33,8.36,4.54,4.54,0,0,1,5.85,2.54,4.52,4.52,0,0,1-2.54,5.86l-7.61,3a4.5,4.5,0,0,0,3.22,8.41,4.51,4.51,0,0,1,3.21,8.42l-34.86,13.88A71.6,71.6,0,0,1,71.75,106a60,60,0,0,0-25.23,4.08L30.62,116.4a4.5,4.5,0,1,0,3.31,8.37l15.89-6.29A50.8,50.8,0,0,1,71.24,115Z"></path></svg>