<svg height='100px' width='100px'  fill="#000000" xmlns="http://www.w3.org/2000/svg" viewBox="0 0 100 100" x="0px" y="0px"><title>cctv</title><g data-name="cctv"><ellipse cx="27.04" cy="53.77" rx="2.47" ry="2.8" transform="translate(-10.84 7) rotate(-12.31)"></ellipse><path d="M30.48,56.25a4.88,4.88,0,0,0-1.35-6.17,3.7,3.7,0,0,0-5.54,1.21,4.74,4.74,0,0,0-.46,3.33,4.39,4.39,0,0,0,4.09,3.61,3.58,3.58,0,0,0,.76-.08A3.76,3.76,0,0,0,30.48,56.25Zm-6.85-1.74a4.25,4.25,0,0,1,.41-3,3.27,3.27,0,0,1,2.16-1.65,3.11,3.11,0,0,1,.66-.07,3.36,3.36,0,0,1,2,.68A4.38,4.38,0,0,1,30,56a3.27,3.27,0,0,1-2.16,1.65A3.77,3.77,0,0,1,23.63,54.52Z"></path><ellipse cx="32.03" cy="52.69" rx="0.64" ry="0.72" transform="translate(-10.49 8.04) rotate(-12.31)"></ellipse><path d="M30.89,56.59a.79.79,0,0,0,.22,1,.59.59,0,0,0,.88-.19.79.79,0,0,0-.22-1A.59.59,0,0,0,30.89,56.59Z"></path><ellipse cx="28.27" cy="59.41" rx="0.64" ry="0.72" transform="translate(-12.02 7.39) rotate(-12.31)"></ellipse><path d="M23.84,58.13a.79.79,0,0,0,.22,1,.59.59,0,0,0,.88-.19.79.79,0,0,0-.22-1A.59.59,0,0,0,23.84,58.13Z"></path><ellipse cx="22.05" cy="54.86" rx="0.64" ry="0.72" transform="translate(-11.19 5.96) rotate(-12.3)"></ellipse><path d="M32.21,54.3a.61.61,0,0,0-.74.55.76.76,0,0,0,.53.85.61.61,0,0,0,.74-.55A.76.76,0,0,0,32.21,54.3Z"></path><path d="M29.66,58a.75.75,0,0,0-.15,1,.61.61,0,0,0,.89.22.75.75,0,0,0,.15-1A.61.61,0,0,0,29.66,58Z"></path><path d="M26.31,58.69a.61.61,0,0,0-.74.55.76.76,0,0,0,.53.85.61.61,0,0,0,.74-.55A.76.76,0,0,0,26.31,58.69Z"></path><path d="M22.49,56.28a.75.75,0,0,0-.15,1,.61.61,0,0,0,.89.22.75.75,0,0,0,.15-1A.61.61,0,0,0,22.49,56.28Z"></path><path d="M82.66,51.57a.25.25,0,0,0-.21-.15,46.28,46.28,0,0,0-7.48,0c-.19,0-1.14,0-1.72,2.65L58,56.67a4.29,4.29,0,0,0-1-4.12,9.46,9.46,0,0,1-.46-4.25A51.82,51.82,0,0,0,62,43.83c.81-1-.23-4.19-.47-4.87a7,7,0,0,0,0-5,2.12,2.12,0,0,0,.4-1.57,4.2,4.2,0,0,0-1.67-2.37l0,0h-.06l-4.79-.9a.25.25,0,0,0-.15,0L22.43,43.29c-2.61.41-5.59,6.58-5.72,6.84a.25.25,0,0,0,.29.35,32,32,0,0,1,3.72-.5,9.37,9.37,0,0,0-.35,5.3,9.22,9.22,0,0,0,3.5,5.52,7.44,7.44,0,0,0,4.4,1.49,7,7,0,0,0,1.48-.16,7.24,7.24,0,0,0,4.72-3.54,66.58,66.58,0,0,0,7.34-4.19c.47.06,3,.36,4,.57h.07a9.43,9.43,0,0,0,2.91-1.42,2.58,2.58,0,0,0,1,1.55,2.1,2.1,0,0,0,.42,2L51,63.59a.25.25,0,0,0,.22.22l.82.07a2.11,2.11,0,0,0,.53,1.26,1.77,1.77,0,0,0,1.33.51,1.82,1.82,0,0,0,1.36-.51,2.07,2.07,0,0,0,.53-1.25c.3,0,.6,0,.89-.08h6.76a.25.25,0,0,0,.19.14c.06,0,3.55.59,6.58,1.43.13.89.71,4.5,1.52,5.42a.25.25,0,0,0,.19.09l2.78,0c2.85,0,6.76-.07,7.7,0h0a.25.25,0,0,0,.23-.15C83.42,69,83.62,53.92,82.66,51.57Zm-9.26,3,3.36,2.2H60.5Zm-12-22A1.64,1.64,0,0,1,61,33.82a.25.25,0,0,0,0,.26A6.67,6.67,0,0,1,61,38.8a55.63,55.63,0,0,1-7.16,4.58,9,9,0,0,0-3.11-5.63.25.25,0,0,0-.25,0L35.44,44.8a7.58,7.58,0,0,0-3-2.2L60,30.55A3.54,3.54,0,0,1,61.39,32.51ZM55.3,29.63l3.92.73-27.6,12a4.14,4.14,0,0,0-1.73.34,4,4,0,0,1-.77.22c-.61.06-3.11.28-3.86.33a4.4,4.4,0,0,1-.63,0l-.77-.05ZM34.13,58.21a6.62,6.62,0,0,1-10,2.17A9,9,0,0,1,21.7,49a6.77,6.77,0,0,1,4.47-3.42,6.4,6.4,0,0,1,1.36-.15c3.41,0,6.58,2.72,7.43,6.61A8.73,8.73,0,0,1,34.13,58.21ZM35.45,52c-1-4.68-5.23-7.75-9.39-6.85a7.26,7.26,0,0,0-4.8,3.66c-.12.21-.23.43-.33.66-.54,0-2.41.22-3.54.43,1-2,3.36-5.89,5.16-6.11a8.53,8.53,0,0,1,2,0,4.39,4.39,0,0,0,.71,0c.75-.05,3.26-.28,3.87-.33a4.19,4.19,0,0,0,.89-.25,3.52,3.52,0,0,1,1.57-.32,6.41,6.41,0,0,1,3.49,2.29v0a.25.25,0,0,0,.12.12c1.4,1.7,2.8,4.57,3.38,9.39L35,57.54A9.34,9.34,0,0,0,35.45,52Zm1.09,5L39,55a.25.25,0,0,0,.1-.23C38.58,50,37.19,47,35.77,45.2l14.82-6.95c.56.47,3,2.82,3,7.62C52.46,46.67,42.49,53.7,36.54,57Zm9.39-2.51h0c-.78-.16-2.47-.38-3.42-.5,5.58-3.57,11.4-7.69,11.49-7.75a.25.25,0,0,0,.11-.2A13.54,13.54,0,0,0,54,43.89a50.77,50.77,0,0,0,7.16-4.54c.47,1.44,1,3.6.48,4.15C59.9,45.51,47.08,54.47,45.93,54.47Zm3.32-1.2c1.94-1.22,4.41-2.92,6.66-4.57a9.61,9.61,0,0,0,.45,3.84l-6.27,2.18A2.18,2.18,0,0,1,49.25,53.26Zm1,1.92L56.62,53a3.61,3.61,0,0,1,.77,3.77H50.53A1.66,1.66,0,0,1,50.26,55.19Zm4.65,9.6a1.34,1.34,0,0,1-1,.36,1.29,1.29,0,0,1-1-.36,1.58,1.58,0,0,1-.39-.88c.45,0,1,0,1.57,0l1.17,0A1.54,1.54,0,0,1,54.92,64.78Zm1.56-1.45a25.82,25.82,0,0,1-5,0l-.77-6.09h6.57C57.11,59.47,56.61,62.55,56.47,63.33Zm.51,0c.15-.92.64-3.9.8-6.06H77.35v6.06Zm8.65.5H77.16a16.56,16.56,0,0,1-2.78,2.69C72.75,65.32,68.24,64.31,65.64,63.81Zm16.62,6.56c-1.2-.07-4.71,0-7.55,0l-2.66,0c-.57-.81-1.08-3.48-1.3-4.85A11.1,11.1,0,0,1,74.22,67a.25.25,0,0,0,.31,0c.11-.08,2.63-2,3.3-3.34a.25.25,0,0,0,0-.1h0V57a.45.45,0,0,0-.09-.16v0l-4-2.62c.49-2.21,1.19-2.25,1.24-2.25a45.93,45.93,0,0,1,7.27,0C83.08,54.5,82.89,68.15,82.26,70.37Z"></path></g></svg>