<svg height='100px' width='100px'  fill="#000000" xmlns="http://www.w3.org/2000/svg" xmlns:xlink="http://www.w3.org/1999/xlink" version="1.1" x="0px" y="0px" viewBox="0 0 100 100" enable-background="new 0 0 100 100" xml:space="preserve"><g display="none"><polygon display="inline" opacity="0.3" fill-rule="evenodd" clip-rule="evenodd" points="80.732,87.458 80.622,84.384    78.73,81.357 81.756,75.682 84.973,73.03 85.352,70.575 82.51,70.38 80.622,66.596 84.782,62.438 84.594,57.136 81.564,55.242    78.159,48.817 81.376,48.059 83.648,48.44 87.053,43.711 84.782,41.436 87.619,38.597 87.999,30.271 87.432,26.861 92.35,22.131    94.242,22.131 95,19.488 92.35,15.703 91.971,12.491 85.727,11.732 83.269,14.187 76.08,12.678 71.728,14.953 70.595,13.062    70.97,10.224 68.764,9.62 62.948,10.534 63.181,13.266 65.163,17.727 64.274,25.956 64.771,27.244 63.776,30.915 65.665,33.092    64.274,34.976 62.688,38.353 62.488,42.618 59.515,46.875 59.515,49.354 56.041,54.313 54.258,61.946 54.36,63.831 57.036,63.831    58.324,61.946 61.004,60.259 60.604,61.946 61.301,63.334 57.431,65.225 57.235,67.998 58.426,69.287 60.408,67.395 63.776,67.501    62.39,69.287 63.283,72.762 61.99,75.828 62.194,82.769 60.902,87.727 59.911,89.212 60.902,90.003 64.771,87.327 70.223,89.514    72.703,90.997 76.568,88.812 80.039,88.519 80.634,87.425  "></polygon></g><g display="none"><path display="inline" d="M5,94.603v-6.132h2.313c0.407,0,0.72,0.017,0.933,0.06c0.301,0.048,0.556,0.143,0.759,0.286   c0.203,0.139,0.368,0.335,0.49,0.586C9.62,89.659,9.68,89.94,9.68,90.239c0,0.526-0.165,0.969-0.496,1.327   s-0.932,0.543-1.799,0.543H5.813v2.493H5L5,94.603z M5.813,91.387h1.584c0.526,0,0.899-0.096,1.117-0.299   c0.221-0.191,0.329-0.466,0.329-0.818c0-0.257-0.062-0.479-0.191-0.664c-0.132-0.179-0.302-0.299-0.514-0.357   C8,89.212,7.75,89.193,7.381,89.193H5.813V91.387L5.813,91.387z M10.469,91.614c0-1.017,0.272-1.816,0.818-2.391   c0.547-0.574,1.252-0.86,2.119-0.86c0.564,0,1.076,0.131,1.53,0.406c0.454,0.269,0.8,0.645,1.04,1.123   c0.239,0.49,0.355,1.04,0.355,1.65c0,0.621-0.122,1.183-0.374,1.672c-0.254,0.491-0.606,0.861-1.067,1.112   c-0.463,0.251-0.956,0.383-1.488,0.383c-0.58,0-1.097-0.144-1.551-0.419c-0.455-0.28-0.798-0.663-1.034-1.147   C10.585,92.665,10.469,92.151,10.469,91.614L10.469,91.614z M11.305,91.625c0,0.741,0.2,1.328,0.595,1.746   c0.397,0.431,0.896,0.64,1.497,0.64c0.61,0,1.112-0.209,1.506-0.64c0.394-0.43,0.595-1.04,0.595-1.828   c0-0.503-0.087-0.939-0.254-1.31c-0.17-0.377-0.415-0.663-0.741-0.866c-0.325-0.204-0.69-0.312-1.093-0.312   c-0.574,0-1.07,0.204-1.482,0.599C11.511,90.048,11.305,90.705,11.305,91.625L11.305,91.625z M17.393,94.603v-6.132h2.72   c0.546,0,0.962,0.053,1.246,0.167c0.284,0.107,0.511,0.299,0.684,0.58c0.171,0.28,0.251,0.591,0.251,0.926   c0,0.431-0.138,0.802-0.421,1.101c-0.281,0.299-0.714,0.489-1.306,0.566c0.219,0.103,0.38,0.204,0.493,0.306   c0.236,0.215,0.46,0.49,0.672,0.812l1.067,1.674h-1.022l-0.81-1.279c-0.239-0.365-0.434-0.646-0.586-0.843   c-0.155-0.197-0.29-0.329-0.413-0.412c-0.123-0.072-0.245-0.132-0.37-0.161c-0.093-0.019-0.242-0.03-0.451-0.03h-0.945v2.726   H17.393L17.393,94.603z M18.202,91.172h1.749c0.367,0,0.661-0.035,0.866-0.107c0.212-0.084,0.371-0.204,0.479-0.371   c0.111-0.167,0.165-0.353,0.165-0.55c0-0.293-0.105-0.525-0.317-0.717c-0.209-0.186-0.544-0.275-0.998-0.275h-1.943V91.172   L18.202,91.172z M24.974,94.603v-5.409h-2.02v-0.723h4.862v0.723h-2.029v5.409H24.974L24.974,94.603z M32.672,88.471h0.813v3.544   c0,0.615-0.069,1.105-0.209,1.464c-0.14,0.364-0.392,0.657-0.756,0.884c-0.364,0.228-0.839,0.348-1.431,0.348   c-0.577,0-1.046-0.102-1.411-0.299c-0.364-0.203-0.627-0.49-0.783-0.861c-0.155-0.376-0.233-0.885-0.233-1.535v-3.544h0.81v3.538   c0,0.531,0.051,0.926,0.149,1.177c0.099,0.251,0.269,0.448,0.511,0.58c0.239,0.144,0.535,0.21,0.884,0.21   c0.595,0,1.022-0.139,1.276-0.407s0.379-0.789,0.379-1.56V88.471L32.672,88.471z M37.707,92.2v-0.724l2.597-0.006v2.277   c-0.4,0.316-0.81,0.556-1.234,0.723c-0.424,0.155-0.86,0.239-1.306,0.239c-0.601,0-1.15-0.132-1.641-0.395   c-0.493-0.251-0.863-0.628-1.114-1.111c-0.251-0.49-0.376-1.04-0.376-1.638c0-0.599,0.125-1.16,0.374-1.674   c0.248-0.514,0.61-0.896,1.079-1.153c0.466-0.245,1.007-0.376,1.617-0.376c0.442,0,0.846,0.071,1.202,0.215   c0.361,0.144,0.642,0.347,0.845,0.598c0.203,0.263,0.359,0.598,0.463,1.004l-0.732,0.203c-0.092-0.311-0.206-0.556-0.34-0.735   c-0.14-0.173-0.335-0.316-0.589-0.43c-0.254-0.103-0.535-0.162-0.843-0.162c-0.371,0-0.693,0.06-0.962,0.168   c-0.271,0.119-0.49,0.263-0.657,0.454c-0.165,0.179-0.293,0.383-0.385,0.604c-0.156,0.376-0.233,0.789-0.233,1.231   c0,0.55,0.092,1.01,0.281,1.374c0.188,0.365,0.463,0.64,0.822,0.819c0.361,0.179,0.741,0.27,1.145,0.27   c0.355,0,0.696-0.066,1.031-0.204s0.589-0.28,0.762-0.437V92.2H37.707L37.707,92.2z M40.827,94.603l2.357-6.132h0.873l2.51,6.132   h-0.926l-0.714-1.859h-2.564l-0.672,1.859H40.827L40.827,94.603z M42.596,92.08h2.083l-0.642-1.697   c-0.194-0.514-0.341-0.938-0.434-1.268c-0.077,0.395-0.191,0.777-0.332,1.172L42.596,92.08L42.596,92.08z M47.18,94.603v-6.132   h0.816v5.408h3.018v0.724H47.18z"></path></g><g><path fill="none" stroke="#000000" stroke-width="0.75" stroke-linecap="round" stroke-linejoin="round" stroke-miterlimit="10" d="   M56,63.167c-0.65,0.358-2.289,0.223-2.507-0.83c-0.224-1.077,1.789-2.345,2.219-3.34c0.58-1.341,0.247-2.92,0.662-4.339   c0.38-1.297,1.106-2.057,1.922-3.016c0.789-0.928,1.419-2.38,1.699-3.676c0.176-0.814-0.047-1.467,0.001-2.154   c0.042-0.599-0.062-1.258,0.292-1.799c0.244-0.371,0.678-0.177,0.881-0.464c0.719-1.018,1.159-1.936,1.45-3.095   c0.294-1.169,0.16-4.211,2.033-4.151c0-0.534,0.042-0.999-0.267-1.485c1.411-0.977,2.013-3.357-0.195-4.001   c0.013-0.802,0.006-1.636,0.255-2.271c0.375-0.958,0.907-0.897,0.89-2.043c-0.016-1.028-0.577-1.64-0.637-2.666   c-0.059-1.005,0.144-2.893,0.3-3.866c0.098-0.61,0.743-1.642,0.672-2.138c-0.125-0.884-1.124-1.062-1.523-1.781   c-0.914-1.648-0.317-4.098-0.636-5.872c1.041,0.023,2.094,0.57,3.14,0.507c0.641-0.039,1.913-0.499,2.658-0.629   c-0.014,0.688,0.341,1.022,0.996,0.992c-0.114,1.017-0.052,2.301,0.489,3.246c0.792,1.384,0.695,1.052,2.082,0.292   c0.754-0.413,0.616-0.652,1.634-0.913c0.578-0.147,0.982-0.073,1.658-0.172c1.054-0.152,2.707-0.709,3.801-0.349   c1.024,0.338,1.237,1.22,2.692,1.182c1.79-0.046,1.707-1.353,2.995-2.007c0.486-0.247,3.131-0.479,3.553-0.34   c0.925,0.303,0.983,2.81,2.275,1.052c0.107,0.813,0.475,2.804,0.192,3.441c0.279-0.062,0.685,0.097,0.961,0.043   c-0.056,1.497,1.18,1.822,1.688,2.809c0.302,0.585,0.427,3.042-0.801,3.498c-0.167-0.522-0.657-0.712-0.89-1.115   c-1.313,1.186-1.958,2.49-3.354,3.404c-0.398,0.261-1.144,0.519-1.451,0.867c-0.986,1.12-0.2,1.024-0.155,1.8   c0.068,1.174,0.205,2.584,0.154,3.915c-0.048,1.275-0.365,3.841-0.984,4.938c1.175,1.242-0.433,2.648-1.18,3.838   c-0.416,0.663-1.188,0.396-0.84,1.732c0.228,0.877,0.991,0.934,1.646,1.482c0.077,0.284,0.201,0.886,0.219,1.126   c-0.429,0.545-1.125,0.956-1.536,1.479c-0.253,0.322-0.583,1.27-0.826,1.504c-0.641,0.619-1.511,1.229-1.696-0.285   c-0.988,1.025-3.248,2.059-4.611,2.34c-0.258,0.998,0.514,1.111,0.975,1.771c0.612,0.875,0.824,1.464,1.121,2.542   c0.632,2.292,1.64,1.861,3.542,2.703c1.667,0.737,2.225,3.299,1.52,5.117c-0.268,0.69-1.391,1.421-1.841,1.834   c-0.969,0.891-1.592,1.702-2.337,2.797c-0.166-0.083-0.334-0.2-0.479-0.28c-0.176,0.907,0.347,1.616,1.283,1.517   c0.111,0.676,0.239,1.291,0.046,1.945c0.342,0.006,0.565,0.249,0.954,0.213c-0.078,0.384,0.133,0.913,0.051,1.295   c0.625-0.343,1.348-0.66,1.958-0.075c-0.039,0.646-0.24,1.259-0.659,1.776c-0.431,0.532-1.069,0.541-1.324,0.833   c-0.872,0.999-1.333,2.428-1.958,3.667c-0.658,1.303-1.257,1.462-1.583,3.12c-0.175,0.89-1.007,3.145,0.691,3.046   c-0.175,2.896,1.139,4.299-2.462,5.304c-0.041-0.152-0.026-0.306-0.042-0.461c-0.787,0.04-1.314,0.693-1.483,1.425   c-1.7-0.509-2.431,1.828-4.164,1.02c-0.966-0.451-1.271-1.409-2.328-1.815c-1.436-0.552-1.442,0.637-2.208-1.479   c-1.308,0.18-2.538-0.559-4.112,0.029c0.045,0.171,0.048,0.411,0.124,0.599c-1.056,0.467-1.667,1.875-2.958,1.858   c-0.196-0.576-0.257-1.193-0.159-1.796c1.365-0.588,0.926-5.676,1.142-7.153c0.357-2.446,1.081-4.665,0.599-7.062   c1.662-0.201,0.95-1.678,0.743-2.646c-0.451-2.102,1.038-2.003,1.161-3.82c0.185-2.737-1.825-0.89-2.836-0.345   c-0.988,0.532-1.552,0.701-2.164,1.705c-0.567-0.684-1.145-2.072-1.144-3.01c0.986-0.143,1.248-1.138,1.157-2.025   c2.172,0.634,2.013-2.566,1.971-3.945c-1.414,0.103-1.527,1.202-2.362,2.09c-0.669-0.164-0.982,0.255-0.992,0.997   c-0.344,0.081-1.315,0.355-1.301,0.354"></path></g></svg>