<svg height='100px' width='100px'  fill="#000000" xmlns="http://www.w3.org/2000/svg" xmlns:xlink="http://www.w3.org/1999/xlink" version="1.1" x="0px" y="0px" viewBox="0 0 64 64" style="enable-background:new 0 0 64 64;" xml:space="preserve"><g><path d="M62,21c0.552,0,1-0.447,1-1v-4c0-0.553-0.448-1-1-1H51v-2h4c0.474,0,0.883-0.332,0.979-0.796   c0.097-0.464-0.146-0.933-0.58-1.121l-23-10c-0.255-0.111-0.543-0.111-0.798,0l-23,10c-0.434,0.188-0.677,0.657-0.58,1.121   C8.117,12.668,8.526,13,9,13h4v2H2c-0.552,0-1,0.447-1,1v4c0,0.553,0.448,1,1,1h1v36H2c-0.552,0-1,0.447-1,1v4c0,0.553,0.448,1,1,1   h60c0.552,0,1-0.447,1-1v-4c0-0.553-0.448-1-1-1h-1V21H62z M32,3.091L50.192,11H13.808L32,3.091z M15,13h34v2H15V13z M3,17h58v2H50   H40H24H14H3V17z M51,57v-3c0-0.553-0.448-1-1-1h-1v-8h6v12H51z M37,57V40c0-0.553-0.448-1-1-1h-8c-0.552,0-1,0.447-1,1v17h-2v-3   c0-0.553-0.448-1-1-1h-1V25h1c0.552,0,1-0.447,1-1v-3h14v3c0,0.553,0.448,1,1,1h1v28h-1c-0.552,0-1,0.447-1,1v3H37z M35,43h-6v-2h6   V43z M29,45h6v12h-6V45z M9,57V45h6v8h-1c-0.552,0-1,0.447-1,1v3H9z M22,23h-6h-1v-2h8v2H22z M21,25v28h-4V25H21z M15,43H9v-2h6V43   z M15,55h1h6h1v2h-8V55z M41,55h1h6h1v2h-8V55z M55,43h-6v-2h6V43z M47,53h-4V25h4V53z M48,23h-6h-1v-2h8v2H48z M5,21h8v3   c0,0.553,0.448,1,1,1h1v14H8c-0.552,0-1,0.447-1,1v17H5V21z M61,61H3v-2h11h10h16h10h11V61z M59,57h-2V40c0-0.553-0.448-1-1-1h-7   V25h1c0.552,0,1-0.447,1-1v-3h8V57z"></path><path d="M30,27h-4c-0.552,0-1,0.447-1,1v6c0,0.553,0.448,1,1,1h4c0.552,0,1-0.447,1-1v-6C31,27.447,30.552,27,30,27z M29,33h-2v-4   h2V33z"></path><path d="M39,28c0-0.553-0.448-1-1-1h-4c-0.552,0-1,0.447-1,1v6c0,0.553,0.448,1,1,1h4c0.552,0,1-0.447,1-1V28z M37,33h-2v-4h2V33z"></path><path d="M51,28v6c0,0.553,0.448,1,1,1h4c0.552,0,1-0.447,1-1v-6c0-0.553-0.448-1-1-1h-4C51.448,27,51,27.447,51,28z M53,29h2v4h-2   V29z"></path><path d="M8,35h4c0.552,0,1-0.447,1-1v-6c0-0.553-0.448-1-1-1H8c-0.552,0-1,0.447-1,1v6C7,34.553,7.448,35,8,35z M9,29h2v4H9V29z"></path></g></svg>