<svg height='100px' width='100px'  fill="#000000" xmlns="http://www.w3.org/2000/svg" xmlns:xlink="http://www.w3.org/1999/xlink" version="1.0" x="0px" y="0px" viewBox="0 0 32 32" enable-background="new 0 0 32 32" xml:space="preserve"><path d="M6,28c-0.6,0-1-0.4-1-1V5c0-0.6,0.4-1,1-1s1,0.4,1,1v22C7,27.6,6.6,28,6,28z"></path><path d="M16,16H6c-0.6,0-1-0.4-1-1V5c0-0.6,0.4-1,1-1h10c0.6,0,1,0.4,1,1v10C17,15.6,16.6,16,16,16z M7,14h8V6H7V14z"></path><path d="M26,18H16c-0.6,0-1-0.4-1-1V7c0-0.6,0.4-1,1-1h10c0.4,0,0.8,0.2,0.9,0.6C27.1,7,27,7.4,26.7,7.7L22.4,12l4.3,4.3  c0.3,0.3,0.4,0.7,0.2,1.1C26.8,17.8,26.4,18,26,18z M17,16h6.6l-3.3-3.3c-0.4-0.4-0.4-1,0-1.4L23.6,8H17V16z"></path></svg>