<svg height='100px' width='100px'  fill="#000000" xmlns:dc="http://purl.org/dc/elements/1.1/" xmlns:cc="http://creativecommons.org/ns#" xmlns:rdf="http://www.w3.org/1999/02/22-rdf-syntax-ns#" xmlns:svg="http://www.w3.org/2000/svg" xmlns="http://www.w3.org/2000/svg" xmlns:sodipodi="http://sodipodi.sourceforge.net/DTD/sodipodi-0.dtd" xmlns:inkscape="http://www.inkscape.org/namespaces/inkscape" viewBox="0 0 100 100" version="1.1" x="0px" y="0px"><g transform="translate(0,-952.36216)"><path style="color:#000000;font-style:normal;font-variant:normal;font-weight:normal;font-stretch:normal;font-size:medium;line-height:normal;font-family:sans-serif;text-indent:0;text-align:start;text-decoration:none;text-decoration-line:none;text-decoration-style:solid;text-decoration-color:#000000;letter-spacing:normal;word-spacing:normal;text-transform:none;direction:ltr;block-progression:tb;writing-mode:lr-tb;baseline-shift:baseline;text-anchor:start;white-space:normal;clip-rule:nonzero;display:inline;overflow:visible;visibility:visible;opacity:1;isolation:auto;mix-blend-mode:normal;color-interpolation:sRGB;color-interpolation-filters:linearRGB;solid-color:#000000;solid-opacity:1;fill:#000000;fill-opacity:1;fill-rule:evenodd;stroke:none;stroke-width:8;stroke-linecap:round;stroke-linejoin:round;stroke-miterlimit:4;stroke-dasharray:none;stroke-dashoffset:0;stroke-opacity:1;color-rendering:auto;image-rendering:auto;shape-rendering:auto;text-rendering:auto;enable-background:accumulate" d="m 52.09584,957.36104 a 0.74173458,0.74173458 0 0 0 -0.163325,0.023 l -1.354037,0.3469 a 0.74173458,0.74173458 0 0 0 -0.219818,0.097 l -2.004077,1.3026 a 0.74173458,0.74173458 0 0 0 -0.191933,0.1807 l -1.433346,1.9393 -0.153185,-0.026 a 0.74173458,0.74173458 0 0 0 -0.461003,0.072 l -3.50659,1.8035 a 0.74173458,0.74173458 0 0 0 -0.400164,0.7152 l 0.202798,2.7055 a 0.74173458,0.74173458 0 0 0 -0.725364,0 l -0.378073,0.2101 -0.306732,-0.3509 a 0.74173458,0.74173458 0 0 0 -1.298992,0.5247 l 0.188312,3.8542 -0.555883,0.7942 a 0.74173458,0.74173458 0 0 0 -0.08402,0.6917 0.74173458,0.74173458 0 0 0 -0.638089,0.5968 l -0.400888,2.104 a 0.74173458,0.74173458 0 0 0 0.66706,0.8779 l 0.818434,0.068 -0.39618,1.5181 -0.04346,0.026 0.02245,-0.4067 a 0.74173458,0.74173458 0 0 0 -0.166584,-0.5106 l -0.901726,-1.1024 a 0.74173458,0.74173458 0 0 0 -1.237428,0.138 l -0.480196,0.9608 -0.575439,0.8633 a 0.74173458,0.74173458 0 0 0 -0.08655,0.6461 l 0.478385,1.4348 -0.969083,1.2921 a 0.74173458,0.74173458 0 0 0 -0.14558,0.5091 l 0.200263,2.3043 a 0.74173458,0.74173458 0 0 0 0.159703,0.3995 l 1.602827,2.0037 a 0.74173458,0.74173458 0 0 0 0.100312,0.1021 0.74173458,0.74173458 0 0 0 -0.340772,0.457 l -0.601151,2.4046 a 0.74173458,0.74173458 0 0 0 -0.01666,0.2684 l 0.253859,2.116 -0.506995,0.4436 a 0.74173458,0.74173458 0 0 0 -0.151374,0.1843 l -0.02209,-0.4632 a 0.74173458,0.74173458 0 0 0 -0.0775,-0.2962 l -0.509167,-1.0187 0.08438,-1.0976 a 0.74173458,0.74173458 0 0 0 -0.0507,-0.3325 l -0.09959,-0.2488 0.214748,-0.6439 a 0.74173458,0.74173458 0 0 0 0.0036,-0.011 l 0.601151,-1.9034 a 0.74173458,0.74173458 0 0 0 -0.41139,-0.9035 l -2.304652,-1.0021 a 0.74173458,0.74173458 0 0 0 -0.820244,1.2045 l 0.236839,0.2369 -0.914401,0 a 0.74173458,0.74173458 0 0 0 -0.715586,0.5464 l -0.300938,1.102 a 0.74173458,0.74173458 0 0 0 0.560229,0.9206 l 0.795619,0.1705 -0.07895,2.2848 a 0.74173458,0.74173458 0 0 0 0.01738,0.1865 l 0.502648,2.2615 -1.001676,-2.3158 a 0.74173458,0.74173458 0 0 0 -1.048754,-0.3495 l -0.701101,0.4005 a 0.74173458,0.74173458 0 0 0 -0.316871,0.3589 l -0.500838,1.2023 a 0.74173458,0.74173458 0 0 0 -0.0536,0.2147 l -0.400888,4.2081 a 0.74173458,0.74173458 0 0 0 -0.0014,0.1249 l 0.500114,6.80206 0.29804,6.755 -0.196279,2.3579 a 0.74173458,0.74173458 0 0 0 0.269431,0.6355 l 0.922368,0.7547 0.673216,2.3564 -0.724278,2.0827 a 0.74173458,0.74173458 0 0 0 0.05649,0.6116 l 1.202299,2.1041 a 0.74173458,0.74173458 0 0 0 0.07424,0.1068 l 1.413428,1.6959 0.622879,1.8694 0.09669,2.7986 a 0.74173458,0.74173458 0 0 0 0.02463,0.1655 l 0.33534,1.2577 -0.606582,1.4406 -1.688292,0.9774 a 0.74173458,0.74173458 0 0 0 -0.286814,0.9835 l 5.410717,10.4202 a 0.74173458,0.74173458 0 0 0 0.209678,0.2488 l 2.905803,2.2044 a 0.74173458,0.74173458 0 0 0 0.197003,0.1068 l 5.009467,1.8038 a 0.74173458,0.74173458 0 0 0 0.409942,0.026 l 9.618408,-2.104 a 0.74173458,0.74173458 0 0 0 0.58232,-0.6891 l 0.200263,-4.2081 a 0.74173458,0.74173458 0 0 0 -0.174551,-0.5142 l -1.101989,-1.3026 a 0.74173458,0.74173458 0 0 0 -0.513513,-0.2608 l -2.012406,-0.1438 2.5567,-1.0273 2.000456,0.4765 -0.64823,2.3778 a 0.74173458,0.74173458 0 0 0 0.05215,0.527 l 0.708345,1.417 a 0.74173458,0.74173458 0 0 0 1.108507,0.2615 l 1.133494,-0.85 a 0.74173458,0.74173458 0 0 0 0.265086,-0.3802 l 0.732245,-2.4398 1.161741,-0.3168 a 0.74173458,0.74173458 0 0 0 0.471505,-0.3911 l 2.550544,-5.2427 a 0.74173458,0.74173458 0 0 0 0.02282,-0.052 l 2.386133,-6.0351 4.50211,-7.4568 a 0.74173458,0.74173458 0 0 0 0.106108,-0.4132 l -0.566747,-14.0278 a 0.74173458,0.74173458 0 0 0 -0.454486,-0.654 l -3.839758,-1.6104 0.739849,-3.94516 a 0.74173458,0.74173458 0 0 0 0.01087,-0.087 l 0.141595,-2.1254 a 0.74173458,0.74173458 0 0 0 -0.16079,-0.5128 l -3.067678,-3.8347 0.987191,-1.5355 a 0.74173458,0.74173458 0 0 0 0.1119,-0.4928 l -0.219817,-1.7593 1.956274,-1.0357 a 0.74173458,0.74173458 0 0 0 0.316509,-0.3238 l 0.708343,-1.417 a 0.74173458,0.74173458 0 0 0 -0.18288,-0.8967 l -0.987189,-0.8391 1.416686,0.1576 a 0.74173458,0.74173458 0 0 0 0.818434,-0.6504 l 0.283555,-2.409 a 0.74173458,0.74173458 0 0 0 -0.305646,-0.6902 l -0.898466,-0.6417 2.169574,-0.9039 a 0.74173458,0.74173458 0 0 0 0.427324,-0.8902 l -2.125393,-7.368 a 0.74173458,0.74173458 0 0 0 -0.341136,-0.4364 l -2.69214,-1.5587 a 0.74173458,0.74173458 0 0 0 -0.287177,-0.095 l -4.458291,-0.5096 -0.860804,-3.1973 a 0.74173458,0.74173458 0 0 0 -0.241546,-0.377 l -0.638451,-0.532 -0.521842,-3.1292 a 0.74173458,0.74173458 0 0 0 -0.461728,-0.5689 l -5.809431,-2.267 a 0.74173458,0.74173458 0 0 0 -0.290435,-0.051 z m -0.02644,1.5192 5.19452,2.0268 0.497216,2.9852 a 0.74173458,0.74173458 0 0 0 0.256757,0.4476 l 0.669957,0.5584 0.931058,3.4573 a 0.74173458,0.74173458 0 0 0 0.631934,0.544 l 4.80522,0.5493 2.300305,1.3316 1.859223,6.4457 -2.789919,1.1625 a 0.74173458,0.74173458 0 0 0 -0.145942,1.2881 l 1.62709,1.1621 -0.145943,1.2414 -3.093389,-0.3437 a 0.74173458,0.74173458 0 0 0 -0.562401,1.3023 l 2.390841,2.0323 -0.341859,0.6841 -2.198909,1.1639 a 0.74173458,0.74173458 0 0 0 -0.388936,0.7475 l 0.250238,2.0004 -1.129873,1.7575 a 0.74173458,0.74173458 0 0 0 0.0449,0.8644 l 3.220139,4.0256 -0.119505,1.794 -0.841974,4.49086 a 0.74173458,0.74173458 0 0 0 0.442173,0.8206 l 3.957453,1.6593 0.538501,13.3336 -4.418818,7.3192 a 0.74173458,0.74173458 0 0 0 -0.05469,0.1104 l -2.398808,6.0666 -2.390841,4.9149 -1.233805,0.3365 a 0.74173458,0.74173458 0 0 0 -0.515325,0.5022 l -0.780047,2.6002 -0.227422,0.1706 -0.184331,-0.3687 0.775703,-2.8439 a 0.74173458,0.74173458 0 0 0 -0.543934,-0.9165 l -2.975332,-0.7084 a 0.74173458,0.74173458 0 0 0 -0.448328,0.033 l -3.445027,1.3845 a 0.74173458,0.74173458 0 0 0 -0.462089,0.755 l 0.100312,1.1024 a 0.74173458,0.74173458 0 0 0 0.685891,0.6725 l 2.493689,0.1782 0.711603,0.8412 -0.159342,3.3487 -8.854295,1.9371 -4.702011,-1.6926 -2.682363,-2.0349 -5.006932,-9.643 1.290663,-0.7475 a 0.74173458,0.74173458 0 0 0 0.311802,-0.3538 l 0.801775,-1.9038 a 0.74173458,0.74173458 0 0 0 0.03295,-0.4787 l -0.37916,-1.4218 -0.09742,-2.8214 a 0.74173458,0.74173458 0 0 0 -0.0373,-0.209 l -0.701463,-2.104 a 0.74173458,0.74173458 0 0 0 -0.133629,-0.2401 l -1.461231,-1.7535 -1.0024,-1.7545 0.690599,-1.9856 a 0.74173458,0.74173458 0 0 0 0.01267,-0.4473 l -0.801775,-2.8054 a 0.74173458,0.74173458 0 0 0 -0.243357,-0.3705 l -0.800327,-0.6548 0.168032,-2.016 a 0.74173458,0.74173458 0 0 0 0.0018,-0.094 l -0.300575,-6.8129 a 0.74173458,0.74173458 0 0 0 -0.0014,-0.022 l -0.496131,-6.75056 0.38423,-4.0343 0.21511,-0.516 1.181659,2.7323 a 0.74173458,0.74173458 0 0 0 0.987553,0.381 l 1.102351,-0.5012 a 0.74173458,0.74173458 0 0 0 0.417175,-0.8358 l -0.781133,-3.5149 0.09705,-2.8113 a 0.74173458,0.74173458 0 0 0 -0.425875,-0.6957 0.74173458,0.74173458 0 0 0 0.0069,0 l 0.966187,-0.1608 -0.190485,0.603 -0.298765,0.8963 a 0.74173458,0.74173458 0 0 0 0.01485,0.5099 l 0.136526,0.3407 -0.08691,1.1306 a 0.74173458,0.74173458 0 0 0 0.07605,0.3882 l 0.530896,1.0626 0.09271,1.9475 a 0.74173458,0.74173458 0 0 0 0.688064,0.7044 l 1.402564,0.1003 a 0.74173458,0.74173458 0 0 0 0.792722,-0.7923 l -0.07388,-1.035 0.524015,-0.4581 a 0.74173458,0.74173458 0 0 0 0.248065,-0.6468 l -0.284279,-2.3691 0.250239,-1.0013 0.07569,0.076 a 0.74173458,0.74173458 0 0 0 0.825676,0.1536 l 0.901726,-0.4009 a 0.74173458,0.74173458 0 0 0 0.432032,-0.5678 l 0.300575,-2.0037 a 0.74173458,0.74173458 0 0 0 -0.803586,-0.8485 l -1.705312,0.1626 -1.212079,-1.5156 -0.156444,-1.7984 1.032096,-1.3761 a 0.74173458,0.74173458 0 0 0 0.110452,-0.6797 l -0.486352,-1.4591 0.399801,-0.6 a 0.74173458,0.74173458 0 0 0 0.02789,-0.047 l -0.08293,1.4982 a 0.74173458,0.74173458 0 0 0 1.121906,0.6772 l 1.502876,-0.9018 a 0.74173458,0.74173458 0 0 0 0.336065,-0.4487 l 0.601151,-2.3046 a 0.74173458,0.74173458 0 0 0 -0.19302,-0.7116 l -0.400888,-0.4009 a 0.74173458,0.74173458 0 0 0 -0.462813,-0.2144 l -0.381333,-0.032 0.131819,-0.6916 -0.01268,0 a 0.74173458,0.74173458 0 0 0 0.617085,-0.3303 l 0.400887,-0.6012 a 0.74173458,0.74173458 0 0 0 -0.09271,-0.9357 l 0.03947,0.039 0.344394,-0.4922 a 0.74173458,0.74173458 0 0 0 0.133267,-0.4613 l -0.123851,-2.5383 a 0.74173458,0.74173458 0 0 0 0.244081,-0.084 l 0.28609,-0.159 0.127473,0.2043 a 0.74173458,0.74173458 0 0 0 0.832919,0.3201 l 0.701101,-0.2006 a 0.74173458,0.74173458 0 0 0 0.535966,-0.7685 l -0.263637,-3.5175 2.850757,-1.4663 0.358879,0.06 a 0.74173458,0.74173458 0 0 0 0.718122,-0.2908 l 1.623468,-2.1964 1.789328,-1.1632 1.004574,-0.2574 z m -12.679931,13.5892 a 0.74173458,0.74173458 0 0 0 0.02788,0.031 l -0.02897,-0.029 0.0011,0 z m -0.421892,13.6599 -0.09959,0.6634 -0.0641,0.028 -0.617447,-0.6171 0.781133,-0.075 z"></path></g></svg>