<svg height='100px' width='100px'  fill="#000000" xmlns="http://www.w3.org/2000/svg" data-name="Layer 1" viewBox="0 0 128 128" x="0px" y="0px"><title>expand lines</title><path d="M3.33,71.49,4,70.9V88a2,2,0,0,0,2,2H16.84a21.9,21.9,0,0,1-.74-4H8V67.33L20,56.68l5.91,5.24V56.57L21.28,52.5a2,2,0,0,0-2.66,0L.67,68.51a2,2,0,1,0,2.66,3Z"></path><path d="M71,74H83a2,2,0,0,0,2-2V62a2,2,0,0,0-2-2H71a2,2,0,0,0-2,2V72A2,2,0,0,0,71,74Zm2-10h8v6H73Z"></path><path d="M72,40a8,8,0,1,0-8,8A8,8,0,0,0,72,40Zm-8,4a4,4,0,1,1,4-4A4,4,0,0,1,64,44Z"></path><path d="M44,52a2,2,0,0,0,0,4H54a2,2,0,0,0,0-4Z"></path><path d="M56.67,102H71.33a2,2,0,0,0,0-4H56.67a2,2,0,0,0,0,4Z"></path><path d="M87.33,106H40.67a2,2,0,0,0,0,4H87.33a2,2,0,0,0,0-4Z"></path><path d="M56,84a18,18,0,1,0-18,18A18,18,0,0,0,56,84ZM38,98A14,14,0,1,1,52,84,14,14,0,0,1,38,98Z"></path><path d="M44.33,86.67c-.92-2.95-3.62-3.73-5.59-4.3-1.54-.45-2.5-.77-2.92-1.47a1.61,1.61,0,0,1,0-1.66c.55-.86,2-1,3.13-.81a3,3,0,0,1,2.17,1.94,2,2,0,0,0,3.85-1.07A7,7,0,0,0,40,74.6V74a2,2,0,1,0-4,0v.61a5.82,5.82,0,0,0-3.59,2.47,5.62,5.62,0,0,0,0,5.86c1.25,2.1,3.46,2.75,5.24,3.26s2.64.84,2.89,1.66-.53,1.34-1,1.53a3.6,3.6,0,0,1-2.83-.09,3.29,3.29,0,0,1-1.83-1.89A2,2,0,0,0,31.1,88.7a7.29,7.29,0,0,0,4,4.26,8.1,8.1,0,0,0,.9.33V94a2,2,0,1,0,4,0v-.56a6.87,6.87,0,0,0,1.14-.37A5.27,5.27,0,0,0,44.33,86.67Z"></path><path d="M127,110.29,93.22,90H96a2,2,0,0,0,2-2V69l-2.19-4.89-.64-1.43L94,60.12v3.64l-5.33,4.75a2,2,0,0,0,2.66,3L94,69.11V78H60V62a2,2,0,0,0-2-2H40a2,2,0,0,0-2,2,21.86,21.86,0,0,1,9.15,2H56v7.37a22,22,0,0,1,3.22,6.88c.13.47.24.95.33,1.43,0,.15.06.3.09.46.1.54.24,1.8.25,1.88L94,82v4L59.9,86c0,.06,0,.13,0,.19A21.84,21.84,0,0,1,59.16,90H85.45L125,113.71a2,2,0,0,0,2.06-3.43Z"></path><path d="M28.31,49.51,30,48V63.51a21.75,21.75,0,0,1,4-1.14V44.58L63.9,18.64,87.57,39.06h0l1.53-4L86,32.42V26h4v6.74L91.05,30A6.27,6.27,0,0,1,94,26.74v-.59A2.14,2.14,0,0,1,96.07,24a2.4,2.4,0,0,1,1.86,1.36,8.87,8.87,0,0,1,1,5.22l-1.28-.45a2.27,2.27,0,0,0-.76-.13,2.29,2.29,0,0,0-2.14,1.45l-3.48,9a6.11,6.11,0,0,0,.11,4.09L102.24,68.7a2.2,2.2,0,0,0,2.94,1.09l14.51-6.65a2.26,2.26,0,0,0,1.13-3L110.26,36.31a5.91,5.91,0,0,0-3-2.78L102.85,32a13.29,13.29,0,0,0-1.53-8.73A6.18,6.18,0,0,0,95.81,20a5.12,5.12,0,0,0-3.66,2L92,22H84a2,2,0,0,0-2,2v5L65.2,14.49a2,2,0,0,0-2.62,0l-36.89,32a2,2,0,0,0,2.62,3Zm77.57-12.22a2.46,2.46,0,0,1,.72.64l9.85,22.3-11.31,5.18L95.07,43a2.61,2.61,0,0,1,0-1l2.88-7.47.18.06c-.08.21-.16.44-.25.63a2,2,0,1,0,3.62,1.69c.14-.31.28-.64.41-1Z"></path><path d="M120,67V86H101.87v2a6,6,0,0,1-.35,2H126a2,2,0,0,0,0-4h-2V70.9l.67.6a2,2,0,1,0,2.65-3l-3.81-3.38a3.46,3.46,0,0,0-1.47-.31A2.21,2.21,0,0,0,120,67Z"></path><path d="M21.18,98.16,1,110.29A2,2,0,1,0,3,113.71l21.1-12.66A22.21,22.21,0,0,1,21.18,98.16Z"></path></svg>