<svg height='100px' width='100px'  fill="#000000" xmlns="http://www.w3.org/2000/svg" data-name="Icons" viewBox="0 0 100 100" x="0px" y="0px"><title>Blood</title><path d="M36.12,84.15a20.47,20.47,0,0,0,3.44-.31A28.93,28.93,0,0,0,54,88h.32c1.46,0,11.16-.25,17.88-6.84,4.18-4.09,6.3-9.73,6.3-16.77,0-13.21-6.16-22-12.11-30.42-4.56-6.5-8.88-12.63-10.75-20.75A1.45,1.45,0,0,0,54.09,12a1.51,1.51,0,0,0-1.44,1.25c-1.31,7.94-4.41,12-8,16.75a62.46,62.46,0,0,0-8.06,13c-.16,0-.31,0-.47,0a20.58,20.58,0,0,0,0,41.15ZM47,31.85c2.82-3.72,5.51-7.27,7.27-12.64,2.37,6.2,6,11.4,9.58,16.46,5.94,8.45,11.56,16.43,11.56,28.69,0,6.19-1.81,11.11-5.38,14.61-6.21,6.1-15.81,6-16,6a27.2,27.2,0,0,1-10.39-2.29,20.55,20.55,0,0,0-4-39.34A60,60,0,0,1,47,31.85ZM36.12,46A17.58,17.58,0,1,1,18.55,63.58,17.6,17.6,0,0,1,36.12,46Z"></path><path d="M31.35,68.64v7.19a1.5,1.5,0,0,0,1.5,1.5h7a1.5,1.5,0,0,0,1.5-1.5V68.64h7.19a1.5,1.5,0,0,0,1.5-1.5v-7a1.5,1.5,0,0,0-1.5-1.5H41.33V51.48a1.5,1.5,0,0,0-1.5-1.5h-7a1.5,1.5,0,0,0-1.5,1.5v7.19H24.16a1.5,1.5,0,0,0-1.5,1.5v7a1.5,1.5,0,0,0,1.5,1.5Zm-5.69-7h7.19a1.5,1.5,0,0,0,1.5-1.5V53h4v7.19a1.5,1.5,0,0,0,1.5,1.5H47v4H39.83a1.5,1.5,0,0,0-1.5,1.5v7.19h-4V67.14a1.5,1.5,0,0,0-1.5-1.5H25.66Z"></path></svg>