<svg height='100px' width='100px'  fill="#000000" xmlns="http://www.w3.org/2000/svg" xmlns:xlink="http://www.w3.org/1999/xlink" version="1.1" x="0px" y="0px" viewBox="0 0 60 60" style="enable-background:new 0 0 60 60;" xml:space="preserve"><path d="M42.66,6H7.31c-0.55,0-1,0.45-1,1v46c0,0.55,0.45,1,1,1h35.36c0.55,0,1-0.45,1-1V36.14l2.59-5.29  c0.11,0.04,0.23,0.08,0.35,0.08c0.11,0,0.22-0.02,0.32-0.05c0.25-0.09,0.46-0.27,0.57-0.51l5.66-11.57c0.61-1.26,0.7-2.68,0.25-4  c-0.45-1.32-1.39-2.39-2.65-3.01c-1.26-0.62-2.68-0.71-4.01-0.25c-1.32,0.46-2.39,1.41-3,2.65l-0.09,0.18V7  C43.66,6.45,43.22,6,42.66,6z M41.66,52H8.31V8h33.36v10.47l-3.57,7.3c-0.12,0.24-0.13,0.51-0.05,0.76c0.08,0.22,0.24,0.4,0.44,0.52  L32.01,40.3c-0.05,0.11-0.08,0.22-0.09,0.34c0,0.03-0.01,0.05-0.01,0.08c0,0.02-0.01,0.04-0.01,0.07l0.34,6.85  c0.02,0.36,0.23,0.69,0.56,0.85c0.14,0.07,0.29,0.1,0.44,0.1c0.2,0,0.4-0.06,0.57-0.18l5.62-3.93c0.01-0.01,0.01-0.02,0.03-0.03  c0.12-0.09,0.23-0.21,0.3-0.35l1.89-3.87V52z M33.99,42.38l2.92,1.43l-2.75,1.92L33.99,42.38z M38.41,42.32l-4.17-2.04l6.03-12.33  l4.17,2.04L38.41,42.32z M45.55,15.08c0.38-0.77,1.04-1.36,1.86-1.64c0.82-0.28,1.7-0.22,2.48,0.16c0.78,0.38,1.36,1.04,1.63,1.86  c0.28,0.82,0.22,1.7-0.16,2.47l-5.22,10.67l-5.81-2.84l3.25-6.64c0-0.01,0.01-0.01,0.01-0.02L45.55,15.08z"></path><path d="M12.8,13.74h24.38c0.55,0,1-0.45,1-1s-0.45-1-1-1H12.8c-0.55,0-1,0.45-1,1S12.25,13.74,12.8,13.74z"></path><path d="M12.8,18.12h24.38c0.55,0,1-0.45,1-1s-0.45-1-1-1H12.8c-0.55,0-1,0.45-1,1S12.25,18.12,12.8,18.12z"></path><path d="M23.82,20.51H12.8c-0.55,0-1,0.45-1,1s0.45,1,1,1h11.02c0.55,0,1-0.45,1-1S24.37,20.51,23.82,20.51z"></path><path d="M23.82,24.89H12.8c-0.55,0-1,0.45-1,1s0.45,1,1,1h11.02c0.55,0,1-0.45,1-1S24.37,24.89,23.82,24.89z"></path><path d="M23.82,29.28H12.8c-0.55,0-1,0.45-1,1s0.45,1,1,1h11.02c0.55,0,1-0.45,1-1S24.37,29.28,23.82,29.28z"></path><path d="M23.82,33.66H12.8c-0.55,0-1,0.45-1,1s0.45,1,1,1h11.02c0.55,0,1-0.45,1-1S24.37,33.66,23.82,33.66z"></path></svg>