<svg height='100px' width='100px'  fill="#000000" xmlns="http://www.w3.org/2000/svg" xmlns:xlink="http://www.w3.org/1999/xlink" version="1.1" x="0px" y="0px" viewBox="0 0 72 72" style="enable-background:new 0 0 72 72;" xml:space="preserve"><g><path d="M10.7,28.3c0-12.3,8.9-22.6,20.5-24.9c-2.5,5.6-4,15.4-4.3,25.3c-4.1-3.8-10.5-3.8-14.5,0.2C11.8,29.6,10.7,29.2,10.7,28.3   z"></path><path d="M41.3,67.7c0.2,0.5-0.1,1.1-0.7,1.3c-0.5,0.2-1.1-0.1-1.3-0.7c-1.2-3.9-15-18.9-35.3-18.5c-0.5,0-1-0.4-1-1   c0-0.6,0.4-1,1-1C25.4,47.4,39.8,62.9,41.3,67.7z"></path><path d="M31.5,67.3c0.4,0.4,0.4,1,0.1,1.4c-0.4,0.4-1,0.4-1.4,0C26.2,65,19.4,56.1,4,56.5c-0.6,0-1-0.4-1-1c0-0.5,0.4-1,1-1   C20.3,54.1,27.5,63.5,31.5,67.3z"></path><path d="M68,52.9c-9.9,0-19,1.1-26.6,3.1c1.2,1.1,2.3,2.2,3.2,3.3c6.5-1.8,14.5-2.8,23.4-2.8c0.5,0,1,0.4,1,1c0,0.6-0.5,1-1,1   c-8.3,0-15.8,0.9-21.9,2.5c1.1,1.3,2,2.5,2.8,3.6c4.6-1.5,11.7-2.4,19.1-2.4c0.5,0,1,0.4,1,1c0,0.5-0.5,1-1,1c-7,0-13.6,0.8-18,2.2   c0.3,0.5,0.5,0.9,0.7,1.3c0.2,0.5,0,1.1-0.5,1.3c-0.5,0.2-1.1,0-1.3-0.5C45.3,61,28.4,42.7,4,43.1c-0.5,0-1-0.4-1-1s0.4-1,1-1   c12.3-0.2,22.4,4,30,9.1c0.3-0.1,0.6-0.2,1-0.3V26c-2.3,0.2-4.4,1.2-6.1,2.7c0.3-12.6,2.4-21.6,4.6-25.6c1.6-0.2,3.3-0.2,4.9,0   c2.2,4,4.3,13,4.6,25.6c-1.7-1.6-3.8-2.5-6.1-2.7v23.3c9-2.6,19.6-3.9,31-3.9c0.5,0,1,0.4,1,1c0,0.6-0.5,1-1,1   c-11.8,0-22.8,1.5-31.9,4.3c1.3,0.9,2.5,1.9,3.6,2.8c7.9-2.3,17.7-3.6,28.3-3.6c0.5,0,1,0.4,1,1C69,52.5,68.5,52.9,68,52.9z"></path><path d="M45.1,28.8C44.8,18.8,43.3,9,40.8,3.5C52.5,5.7,61.3,16,61.3,28.3c0,0.9-1.1,1.3-1.7,0.7C55.6,25,49.2,24.9,45.1,28.8z"></path><path d="M22,67.2c0.4,0.4,0.5,1,0.1,1.4c-0.4,0.4-1,0.5-1.4,0.1c-3.4-2.9-7.3-5.6-16.7-5.6c-0.5,0-1-0.4-1-1c0-0.5,0.5-1,1-1   C14.2,61.2,18.5,64.2,22,67.2z"></path></g></svg>