<svg height='100px' width='100px'  fill="#000000" xmlns:dc="http://purl.org/dc/elements/1.1/" xmlns:cc="http://creativecommons.org/ns#" xmlns:rdf="http://www.w3.org/1999/02/22-rdf-syntax-ns#" xmlns:svg="http://www.w3.org/2000/svg" xmlns="http://www.w3.org/2000/svg" xmlns:sodipodi="http://sodipodi.sourceforge.net/DTD/sodipodi-0.dtd" xmlns:inkscape="http://www.inkscape.org/namespaces/inkscape" viewBox="0 0 6.6145832 6.6145835" version="1.1" x="0px" y="0px"><g transform="translate(0,-290.38541)"><path style="color:#000000;font-style:normal;font-variant:normal;font-weight:normal;font-stretch:normal;font-size:medium;line-height:normal;font-family:sans-serif;font-variant-ligatures:normal;font-variant-position:normal;font-variant-caps:normal;font-variant-numeric:normal;font-variant-alternates:normal;font-feature-settings:normal;text-indent:0;text-align:start;text-decoration:none;text-decoration-line:none;text-decoration-style:solid;text-decoration-color:#000000;letter-spacing:normal;word-spacing:normal;text-transform:none;writing-mode:lr-tb;direction:ltr;text-orientation:mixed;dominant-baseline:auto;baseline-shift:baseline;text-anchor:start;white-space:normal;shape-padding:0;clip-rule:nonzero;display:inline;overflow:visible;visibility:visible;opacity:1;isolation:auto;mix-blend-mode:normal;color-interpolation:sRGB;color-interpolation-filters:linearRGB;solid-color:#000000;solid-opacity:1;vector-effect:none;fill:#000000;fill-opacity:1;fill-rule:evenodd;stroke:none;stroke-width:0.99999994;stroke-linecap:butt;stroke-linejoin:miter;stroke-miterlimit:4;stroke-dasharray:none;stroke-dashoffset:0;stroke-opacity:1;color-rendering:auto;image-rendering:auto;shape-rendering:auto;text-rendering:auto;enable-background:accumulate" d="M 12.498047 1.9980469 C 11.39941 1.9980469 10.496107 2.8994138 10.496094 3.9980469 C 10.496548 4.1311141 10.559245 4.2526504 10.591797 4.3808594 C 10.588593 4.3821915 10.585232 4.383427 10.582031 4.3847656 C 10.513848 4.2722914 10.472743 4.1444108 10.378906 4.0507812 C 9.6020773 3.2741261 8.3276098 3.2741261 7.5507812 4.0507812 C 6.7741057 4.8276253 6.7741057 6.100109 7.5507812 6.8769531 C 7.6445068 6.9701892 7.7743803 7.0123673 7.8867188 7.0800781 C 7.8845956 7.0851572 7.8829662 7.0906156 7.8808594 7.0957031 C 7.7525373 7.0639975 7.6329892 7.0039062 7.5 7.0039062 C 6.4013435 7.0039062 5.4999864 7.9052354 5.5 9.0039062 C 5.500014 10.102539 6.4013624 10.996094 7.5 10.996094 C 7.6324588 10.995663 7.7513199 10.931673 7.8789062 10.900391 C 7.8817131 10.907199 7.8819296 10.915082 7.8847656 10.921875 C 7.7730691 10.989035 7.6436856 11.030448 7.5507812 11.123047 C 6.7741057 11.899891 6.7741057 13.172412 7.5507812 13.949219 C 7.9649558 14.363301 8.520383 14.5509 9.0664062 14.523438 L 9.0644531 14.53125 L 7.1875 21.609375 A 0.50004998 0.50004998 0 0 0 7.5390625 22.220703 L 7.6113281 22.238281 A 0.50004998 0.50004998 0 0 0 8.046875 22.154297 L 8.921875 21.480469 L 9.3222656 21.169922 L 9.515625 21.642578 A 0.50004998 0.50004998 0 0 0 9.5175781 21.644531 L 9.9433594 22.667969 A 0.50004998 0.50004998 0 0 0 10.267578 22.957031 L 10.335938 22.976562 A 0.50004998 0.50004998 0 0 0 10.955078 22.625 L 12.5 16.800781 L 14.044922 22.625 A 0.50004998 0.50004998 0 0 0 14.662109 22.978516 L 14.732422 22.958984 A 0.50004998 0.50004998 0 0 0 15.060547 22.667969 L 15.484375 21.644531 A 0.50004998 0.50004998 0 0 0 15.484375 21.642578 L 15.677734 21.169922 L 16.078125 21.480469 L 16.953125 22.154297 A 0.50004998 0.50004998 0 0 0 17.388672 22.238281 L 17.460938 22.220703 A 0.50004998 0.50004998 0 0 0 17.8125 21.609375 L 15.935547 14.53125 L 15.933594 14.523438 C 16.480242 14.551456 17.036507 14.363791 17.451172 13.949219 C 18.227847 13.172412 18.227847 11.899891 17.451172 11.123047 C 17.357446 11.029811 17.227573 10.987633 17.115234 10.919922 C 17.11736 10.914838 17.118984 10.909389 17.121094 10.904297 C 17.248746 10.933001 17.369947 10.998047 17.501953 10.998047 C 18.60059 10.998047 19.503893 10.102539 19.503906 9.0039062 C 19.50392 7.9052354 18.60061 7.0039062 17.501953 7.0039062 L 17.494141 7.0039062 C 17.363661 7.0043309 17.246514 7.0677682 17.121094 7.0996094 C 17.118515 7.0933835 17.117838 7.0862914 17.115234 7.0800781 C 17.22747 7.0120852 17.357629 6.9701892 17.451172 6.8769531 C 18.227847 6.100109 18.227847 4.8276253 17.451172 4.0507812 C 16.674343 3.2741261 15.399876 3.2741261 14.623047 4.0507812 C 14.52941 4.1447408 14.490238 4.2742522 14.421875 4.3867188 C 14.416787 4.3845839 14.411346 4.3829778 14.40625 4.3808594 C 14.436186 4.2525294 14.497894 4.1308318 14.498047 3.9980469 C 14.498033 2.8994138 13.596684 1.9980469 12.498047 1.9980469 z M 12.498047 3.0019531 C 13.056234 3.0019531 13.501946 3.4398485 13.501953 3.9980469 C 13.501914 4.0324206 13.491986 4.0656793 13.488281 4.0996094 C 13.167816 4.0347494 12.837083 3.9980469 12.498047 3.9980469 C 12.1611 3.9980469 11.832103 4.0335733 11.513672 4.0976562 C 11.510168 4.0643791 11.502069 4.0319183 11.501953 3.9980469 C 11.50196 3.4398485 11.939845 3.0019531 12.498047 3.0019531 z M 8.9648438 4.4628906 C 9.2186559 4.4628906 9.4725755 4.5605023 9.6699219 4.7578125 C 9.6946716 4.7825954 9.7123 4.8128054 9.734375 4.8398438 C 9.182931 5.208338 8.7098683 5.6823764 8.3417969 6.234375 C 8.3145668 6.2118523 8.2851027 6.1931939 8.2597656 6.1679688 C 7.8651508 5.7732727 7.8651508 5.1525086 8.2597656 4.7578125 C 8.4571118 4.5605023 8.7110316 4.4628906 8.9648438 4.4628906 z M 16.037109 4.4667969 C 16.291139 4.4662866 16.545869 4.5634948 16.742188 4.7597656 C 17.136802 5.1544617 17.136802 5.7732727 16.742188 6.1679688 C 16.716882 6.1932772 16.685866 6.2118962 16.658203 6.234375 C 16.290058 5.6835969 15.818351 5.2099472 15.267578 4.8417969 C 15.289626 4.8147207 15.307421 4.7845323 15.332031 4.7597656 C 15.529535 4.5655357 15.78308 4.4673071 16.037109 4.4667969 z M 12.498047 5.0019531 C 12.978562 5.0019531 13.431147 5.1016206 13.857422 5.2558594 C 13.984455 5.3026126 14.110627 5.3525456 14.232422 5.4121094 C 15.046614 5.8053184 15.70232 6.4601657 16.09375 7.2753906 C 16.150906 7.394521 16.200914 7.5164577 16.246094 7.640625 C 16.400735 8.0673919 16.498045 8.522732 16.498047 9.0039062 C 16.498049 9.4763913 16.403253 9.92206 16.253906 10.341797 C 16.204318 10.480244 16.148407 10.615973 16.083984 10.748047 C 15.694054 11.548164 15.048793 12.192253 14.248047 12.582031 C 14.228381 12.591746 14.207264 12.59803 14.1875 12.607422 C 14.07046 12.661972 13.951915 12.712944 13.830078 12.755859 C 13.411491 12.903336 12.968299 12.998047 12.498047 12.998047 C 12.024963 12.998047 11.576966 12.903086 11.15625 12.753906 C 11.016663 12.703399 10.879235 12.647758 10.746094 12.582031 C 10.744263 12.58114 10.742064 12.580972 10.740234 12.580078 C 9.959985 12.198795 9.3310513 11.574396 8.9394531 10.800781 C 8.8535378 10.630543 8.7816068 10.454154 8.7207031 10.273438 C 8.5862378 9.8728077 8.4960918 9.4511832 8.4960938 9.0039062 C 8.4960957 8.5205597 8.5959759 8.0631491 8.7519531 7.6347656 C 8.7955517 7.5153763 8.8418091 7.39786 8.8964844 7.2832031 C 9.2858939 6.4672079 9.9392694 5.8111451 10.751953 5.4160156 C 10.8845 5.3513716 11.021286 5.2978814 11.160156 5.2480469 C 11.579927 5.0990943 12.026221 5.0019531 12.498047 5.0019531 z M 7.5 8 C 7.5336733 8.0000392 7.5663509 8.0081527 7.5996094 8.0117188 C 7.5346979 8.3327688 7.5000014 8.664207 7.5 9.0039062 C 7.4999986 9.3401917 7.5340129 9.6684805 7.5976562 9.9863281 C 7.5649452 9.9896949 7.533295 9.9999231 7.5 10 C 6.9417982 10 6.5039134 9.5621047 6.5039062 9.0039062 C 6.5038994 8.44567 6.9417876 8 7.5 8 z M 17.501953 8 C 18.060165 8 18.498054 8.44567 18.498047 9.0039062 C 18.49804 9.5621047 18.060155 10 17.501953 10 C 17.468614 9.9999612 17.43723 9.9898248 17.404297 9.9863281 C 17.468133 9.6684805 17.501955 9.3401917 17.501953 9.0039062 C 17.501952 8.664207 17.467452 8.3327688 17.402344 8.0117188 C 17.435874 8.0082848 17.468322 8.0000777 17.501953 8 z M 8.3398438 11.767578 C 8.7076417 12.318917 9.1811535 12.792258 9.7324219 13.160156 C 9.7108849 13.18646 9.6938853 13.216127 9.6699219 13.240234 C 9.2752292 13.634855 8.6544579 13.634855 8.2597656 13.240234 C 7.8651508 12.845538 7.8651508 12.224774 8.2597656 11.830078 C 8.2838939 11.805947 8.313567 11.789164 8.3398438 11.767578 z M 16.660156 11.767578 C 16.687077 11.789532 16.71758 11.807533 16.742188 11.832031 C 17.136802 12.226727 17.136802 12.845538 16.742188 13.240234 C 16.35402 13.628331 15.74133 13.631124 15.345703 13.255859 C 15.340011 13.250439 15.333719 13.245787 15.328125 13.240234 C 15.303906 13.215983 15.287081 13.186621 15.265625 13.160156 C 15.817765 12.792262 16.291478 12.318904 16.660156 11.767578 z M 14.417969 13.613281 C 14.418535 13.613045 14.419356 13.613518 14.419922 13.613281 C 14.451944 13.666308 14.477914 13.722266 14.505859 13.777344 C 14.506261 13.778127 14.50741 13.778514 14.507812 13.779297 C 14.538857 13.840271 14.572228 13.900355 14.621094 13.949219 C 14.621456 13.949578 14.622684 13.948861 14.623047 13.949219 C 14.64113 13.967062 14.661496 13.982485 14.681641 13.998047 C 14.713579 14.0276 14.747865 14.053003 14.78125 14.080078 L 14.970703 14.791016 L 16.494141 20.541016 L 15.769531 19.982422 A 0.50004998 0.50004998 0 0 0 15.001953 20.189453 L 14.654297 21.033203 L 13.277344 15.841797 C 13.893934 15.577821 14.349702 15.010261 14.464844 14.332031 C 14.48621 14.225648 14.499975 14.115105 14.5 14 A 0.50004998 0.50004998 0 0 0 14.5 13.998047 C 14.499546 13.865657 14.435958 13.746687 14.404297 13.619141 C 14.408831 13.617263 14.413441 13.615172 14.417969 13.613281 z M 10.582031 13.615234 C 10.585802 13.616807 10.589975 13.617577 10.59375 13.619141 C 10.59293 13.622524 10.590708 13.625533 10.589844 13.628906 C 10.557852 13.754054 10.496239 13.871779 10.496094 14.001953 C 10.496095 14.093727 10.511261 14.180915 10.523438 14.269531 C 10.524678 14.277138 10.524048 14.285406 10.525391 14.292969 C 10.629562 14.989749 11.090429 15.575559 11.720703 15.84375 L 10.345703 21.033203 L 9.9980469 20.189453 A 0.50004998 0.50004998 0 0 0 9.2304688 19.982422 L 8.5058594 20.541016 L 10.029297 14.791016 L 10.216797 14.082031 C 10.271091 14.038192 10.328521 13.999593 10.378906 13.949219 C 10.462784 13.864879 10.503835 13.751981 10.560547 13.648438 C 10.566938 13.636806 10.575169 13.626575 10.582031 13.615234 z M 13.486328 13.900391 C 13.489991 13.934351 13.499883 13.967598 13.5 14.001953 C 13.499877 14.060463 13.478358 14.112205 13.46875 14.167969 C 13.456921 14.236783 13.45271 14.308178 13.427734 14.371094 C 13.404838 14.428966 13.364866 14.475382 13.332031 14.527344 C 13.298081 14.580608 13.269817 14.638015 13.226562 14.683594 C 13.189342 14.723104 13.141032 14.750173 13.097656 14.783203 C 13.04246 14.824748 12.989279 14.868878 12.925781 14.898438 C 12.879181 14.920339 12.82588 14.928645 12.775391 14.943359 C 12.685609 14.968983 12.596693 14.998047 12.498047 14.998047 C 12.415439 14.998047 12.341951 14.971295 12.265625 14.953125 C 12.193906 14.935542 12.120897 14.920295 12.056641 14.888672 C 12.020348 14.87089 11.990561 14.84416 11.957031 14.822266 C 11.888609 14.777442 11.820589 14.731498 11.765625 14.671875 C 11.737095 14.64066 11.719654 14.601186 11.695312 14.566406 C 11.650581 14.50312 11.603322 14.442154 11.574219 14.369141 C 11.529907 14.2553 11.501955 14.133174 11.501953 14.001953 C 11.50199 13.968277 11.510114 13.935595 11.513672 13.902344 C 11.832104 13.966232 12.161098 14.001953 12.498047 14.001953 C 12.836422 14.001953 13.166444 13.964808 13.486328 13.900391 z " transform="matrix(0.26458333,0,0,0.26458333,0,290.38541)"></path></g></svg>