<svg height='100px' width='100px'  fill="#000000" xmlns="http://www.w3.org/2000/svg" xmlns:xlink="http://www.w3.org/1999/xlink" version="1.1" x="0px" y="0px" viewBox="0 0 68 68" style="enable-background:new 0 0 68 68;" xml:space="preserve"><style type="text/css">
	.st0{fill:#000000;}
</style><g><g><path class="st0" d="M14.3,56.5c1.6-1.1,2.6-2.8,2.6-4.9c0-3.2-2.6-5.9-5.9-5.9c-3.2,0-5.9,2.6-5.9,5.9c0,2,1,3.8,2.6,4.8    C4,56.6,1,59.7,1,63.5V66c0,0.6,0.4,1,1,1h17.9c0.6,0,1-0.4,1-1v-2.5C20.9,59.8,17.9,56.7,14.3,56.5z M11,47.8    c2.1,0,3.9,1.7,3.9,3.9c0,2.1-1.7,3.8-3.9,3.8s-3.9-1.7-3.9-3.8C7.1,49.5,8.9,47.8,11,47.8z M18.9,65H3v-1.5c0-2.8,2.3-5,5-5h5.8    c2.8,0,5,2.3,5,5V65z"></path></g><g><path class="st0" d="M38.7,54.7h-1.4c2.1-1.2,3.6-3.4,3.6-6c0-3.8-3.1-6.8-6.8-6.8c-3.8,0-6.8,3.1-6.8,6.8c0,2.6,1.5,4.9,3.6,6    h-1.5c-3.9,0-7,3.2-7,7V66c0,0.6,0.4,1,1,1h21.5c0.6,0,1-0.4,1-1v-4.3C45.7,57.9,42.6,54.7,38.7,54.7z M29.2,48.7    c0-2.7,2.2-4.8,4.8-4.8c2.7,0,4.8,2.2,4.8,4.8s-2.2,4.8-4.8,4.8C31.4,53.5,29.2,51.4,29.2,48.7z M43.7,65H24.3v-3.3    c0-2.8,2.3-5,5-5h9.4c2.8,0,5,2.3,5,5V65z"></path></g><g><path class="st0" d="M60.4,56.5c1.6-1.1,2.6-2.8,2.6-4.9c0-3.2-2.6-5.9-5.9-5.9s-5.9,2.6-5.9,5.9c0,2,1,3.8,2.6,4.8    c-3.7,0.2-6.7,3.3-6.7,7V66c0,0.6,0.4,1,1,1H66c0.6,0,1-0.4,1-1v-2.5C67,59.8,64.1,56.7,60.4,56.5z M57.1,47.8    c2.1,0,3.9,1.7,3.9,3.9c0,2.1-1.7,3.8-3.9,3.8c-2.1,0-3.9-1.7-3.9-3.8C53.3,49.5,55,47.8,57.1,47.8z M65,65H49.1v-1.5    c0-2.8,2.3-5,5-5H60c2.8,0,5,2.3,5,5V65z"></path></g><g><path class="st0" d="M20.9,8.4C20.9,8.4,20.9,8.4,20.9,8.4l5.1,0.5C26.5,9,27,8.6,27,8c0.1-0.5-0.3-1-0.9-1.1l-2.8-0.3    C26.4,4.3,30.1,3,34,3c9.5,0,17.3,7.7,17.3,17.3c0,2.8-0.6,5.4-1.9,7.9c-0.3,0.5-0.1,1.1,0.4,1.3c0.5,0.3,1.1,0.1,1.3-0.4    c1.4-2.7,2.1-5.7,2.1-8.8C53.3,9.6,44.6,1,34,1c-4.2,0-8.2,1.4-11.5,3.8L23,2.2c0.1-0.5-0.3-1.1-0.8-1.2c-0.5-0.1-1.1,0.3-1.2,0.8    l-1,5.4C19.9,7.8,20.3,8.4,20.9,8.4z"></path></g><g><path class="st0" d="M47.9,33.3c0.1-0.6-0.3-1.1-0.9-1.1l-5.3-0.5c-0.6,0-1,0.4-1.1,0.9c-0.1,0.5,0.4,1,0.9,1.1l2.9,0.3    c-3,2.3-6.7,3.6-10.5,3.6c-9.5,0-17.3-7.7-17.3-17.3c0-2.8,0.7-5.6,2-8c0.3-0.5,0.1-1.1-0.4-1.4c-0.5-0.3-1.1-0.1-1.3,0.4    c-1.4,2.7-2.2,5.8-2.2,8.9c0,10.6,8.7,19.3,19.3,19.3c4.2,0,8.1-1.3,11.4-3.8l-0.5,2.6c-0.1,0.5,0.3,1.1,0.8,1.2    c0.5,0.1,1.1-0.2,1.2-0.8L47.9,33.3C47.9,33.4,47.9,33.4,47.9,33.3z"></path></g><g><path class="st0" d="M34,7.4c-7.1,0-12.9,5.8-12.9,12.9S26.9,33.2,34,33.2c7.1,0,12.9-5.8,12.9-12.9S41.1,7.4,34,7.4z M34,31.2    c-6,0-10.9-4.9-10.9-10.9c0-6,4.9-10.9,10.9-10.9c6,0,10.9,4.9,10.9,10.9C44.9,26.3,40,31.2,34,31.2z"></path></g><g><path class="st0" d="M34.9,18.9L34.9,18.9l-0.1-3.8c1.1,0.1,2,0.5,2.9,1.2l1.3-1.9c-1.3-0.9-2.8-1.4-4.3-1.5v-1h-1.3v1    c-1.3,0.1-2.4,0.5-3.2,1.2c-0.8,0.7-1.2,1.7-1.2,2.9c0,1.2,0.4,2.1,1.1,2.7c0.7,0.6,1.9,1.1,3.4,1.5v4c-1.2-0.2-2.4-0.8-3.6-1.8    L28.5,25c1.5,1.3,3.2,2,5,2.2v1.5h1.3v-1.5c1.4-0.1,2.5-0.5,3.4-1.2c0.8-0.8,1.3-1.7,1.3-2.9c0-1.2-0.4-2.1-1.1-2.7    C37.7,19.8,36.5,19.3,34.9,18.9z M33.5,18.5c-0.8-0.2-1.3-0.5-1.6-0.8c-0.3-0.3-0.4-0.6-0.4-1.1c0-0.5,0.2-0.8,0.5-1.1    c0.3-0.3,0.8-0.5,1.4-0.5V18.5z M36.4,24.5c-0.4,0.3-0.9,0.5-1.6,0.6v-3.7c0.8,0.2,1.4,0.5,1.7,0.8c0.3,0.3,0.5,0.7,0.5,1.1    C37,23.8,36.8,24.2,36.4,24.5z"></path></g><g><path class="st0" d="M2,47.4c0.6,0,1-0.4,1-1V26.2h6.8l-3.1,2.9c-0.4,0.4-0.4,1-0.1,1.4c0.2,0.2,0.5,0.3,0.7,0.3    c0.2,0,0.5-0.1,0.7-0.3l5-4.6c0,0,0,0,0,0c0.4-0.4,0.4-1.1,0-1.4c0,0,0,0,0,0l-5-4.5c-0.4-0.4-1-0.3-1.4,0.1    c-0.4,0.4-0.3,1,0.1,1.4l3.1,2.7H2c-0.6,0-1,0.4-1,1v21.3C1,47,1.4,47.4,2,47.4z"></path></g><g><path class="st0" d="M66,24.2h-7.8l3.1-2.7c0.4-0.4,0.4-1,0.1-1.4c-0.4-0.4-1-0.4-1.4-0.1c0,0-5,4.5-5.1,4.5    c-0.3,0.4-0.4,1,0.1,1.4l5,4.6c0.4,0.4,1,0.4,1.4-0.1c0.4-0.4,0.4-1-0.1-1.4l-3.1-2.9H65v20.3c0,0.6,0.4,1,1,1c0.6,0,1-0.4,1-1    V25.2C67,24.6,66.6,24.2,66,24.2z"></path></g></g></svg>