<svg height='100px' width='100px'  fill="#000000" xmlns="http://www.w3.org/2000/svg" xmlns:xlink="http://www.w3.org/1999/xlink" version="1.1" x="0px" y="0px" viewBox="0 0 105 105" style="enable-background:new 0 0 105 105;" xml:space="preserve"><path d="M94.5,38.7c-4.6-5.1-10.7-8.4-17.4-9.5c-0.5-0.1-0.6-0.2-1.6-0.2v0c1,0.1,1.1,0.1,1.6,0.2l9.2-8.8c0.2-0.2,0.4-0.5,0.4-0.8  c0-0.3-0.1-0.5-0.2-0.7l-3.9-4.8l-0.7,0.6l0.7-0.6c-0.2-0.3-0.5-0.5-0.9-0.5H63c-0.3,0-0.7,0.2-0.9,0.5l-4,4.8  c-0.2,0.2-0.3,0.5-0.3,0.7c0,0.3,0.1,0.6,0.3,0.8l8.9,8.6c0.5-0.1,1.4-0.1,1.4-0.2v0c0,0-0.9,0.1-1.4,0.2c-3.2,0.5-6.2,1.5-9.1,2.9  c-5.7-4.8-12.6-7.6-20.2-7.9c-0.5,0-1.1,0-1.6,0c-8.7,0-16.9,3.3-23.2,9.3c-6.3,6-10,14.1-10.4,22.9c-0.4,9,2.7,17.6,8.8,24.3  c6.1,6.7,14.4,10.6,23.4,11c0.5,0,1.1,0,1.6,0c7,0,13.8-2.2,19.4-6.2l0.6,0.4c4.3,2.9,8.1,4,14,4.3c0.5,0,1,0,1.5,0  c7.9,0,15.4-3,21.1-8.5c5.8-5.5,9.1-12.9,9.5-20.8C102.9,52.7,100,44.8,94.5,38.7z M76.1,27.9l2.1-6.5l5.5-0.8L76.1,27.9z   M76.2,14.3l0.4,1.2h4.8l2.7,3.3l1.5-0.1l0.3,1.8h0l-0.3-1.8l-1.5,0.2L78,19.7l-1.4-4.3L76.2,14.3l-1.7,0.5l0,0L76.2,14.3z   M76.1,19.5h-7.6l1.3-4l0,0h4.8l0,0L76.1,19.5z M59,18.5l1.5,0.3l2.8-3.3H68l0.4-1.2l1.7,0.5l0,0l-1.6-0.5L68,15.4l-1.4,4.3  l-6.1-0.9L59,18.5z M61,20.6l5.4,0.8l2.1,6.3L61,20.6z M68.2,21.5h8.2l-2.5,7.4c-0.2,0-0.4-0.1-0.7-0.1c-0.5,0-1-0.1-1.5-0.1  c-0.4,0-0.8,0.1-1.1,0.1L68.2,21.5z M36.3,89.8c-0.5,0-1,0-1.5,0C17.1,88.9,3.5,73.9,4.3,56.2c0.8-17.2,15-30.5,32-30.5  c0.5,0,1,0,1.5,0c7.1,0.3,13.5,2.9,18.6,7.1c-2,1.1-3.8,2.5-5.5,4.1c-3.8-2.7-8.4-4.4-13.4-4.6c-0.4,0-0.8,0-1.2,0  c-13.5,0-24.7,10.6-25.3,24.2c-0.7,14,10.2,25.9,24.2,26.6c0.4,0,0.8,0,1.2,0c5.9,0,11.4-2.1,15.8-5.5c0.5-0.4,0.9-0.7,1.3-1.1  c4.8-4.4,7.9-10.6,8.3-17.6c0.3-5.6-1.3-10.8-4.2-15.2c1.6-1.5,3.5-2.7,5.5-3.7c3.6,5.5,5.6,12.1,5.3,19.1  C67.4,76.4,53.3,89.8,36.3,89.8z M47.6,78.5c-3.4,1.8-7.2,2.9-11.3,2.9c-0.4,0-0.8,0-1.1,0c-6.3-0.3-12.1-3-16.4-7.7  c-4.2-4.7-6.4-10.7-6.1-17c0.6-12.6,11-22.5,23.6-22.5c0.4,0,0.8,0,1.1,0c4.4,0.2,8.6,1.6,12.2,4.1c-5.1,5.4-8.1,12.3-8.5,19.8  C40.7,66.1,42.9,72.9,47.6,78.5z M50.6,58.4c0.2-5.2,2.3-9.8,5.6-13.4c2.6,4.1,3.9,8.9,3.7,13.8c-0.2,5.1-2.1,9.8-5,13.5  C51.7,68.6,50.4,64.2,50.6,58.4z M64.7,39.4c2.2-0.8,4.6-1.2,7.1-1.2c0.3,0,0.7,0,1,0c5.7,0.3,10.9,2.7,14.7,6.9  c3.8,4.2,5.8,9.6,5.5,15.3c-0.5,11.3-9.8,20.2-21.2,20.2c-0.3,0-0.7,0-1,0c-3.6-0.2-5.3-0.5-8-2c4.3-5.5,6.8-12.2,7.2-19.3  C70.3,52.2,68.5,45.3,64.7,39.4z M100.7,60.8C100,76.3,87.2,88.4,71.8,88.4c-0.5,0-0.9,0-1.4,0c-5.4-0.3-8.9-1.3-13.1-4  c1.7-1.5,3.2-2.9,4.5-4.3c3,1.7,5.1,2.1,8.9,2.3c0.4,0,0.7,0,1.1,0c12.2,0,22.3-9.6,22.9-21.9c0.6-12.7-9.2-23.4-21.9-24  c-0.4,0-0.7,0-1.1,0c-12.2,0-22.3,9.6-22.9,21.9c-0.3,6,1.1,10.9,4.7,15.2c-1,1.6-2.6,2.9-4.5,4c-4.6-5.4-6.5-11.8-6.2-19.4  c0.7-15.5,13.5-27.6,28.9-27.6c0.5,0,0.9,0,1.4,0C89.1,31.2,101.5,44.8,100.7,60.8z"></path></svg>