<svg height='100px' width='100px'  fill="#000000" xmlns="http://www.w3.org/2000/svg" viewBox="0 0 64 64" x="0px" y="0px"><path d="M21,24H43a1,1,0,0,0,1-1V3a1,1,0,0,0-1-1H37a1,1,0,0,0-1,1V6H21a1,1,0,0,0-1,1V23A1,1,0,0,0,21,24ZM38,4h4V6H38ZM22,8H42V22H22Z"></path><path d="M32,10a5,5,0,1,0,5,5A5.00588,5.00588,0,0,0,32,10Zm0,8a3,3,0,1,1,3-3A3.00328,3.00328,0,0,1,32,18Z"></path><path d="M26.221,40.60858A5.18691,5.18691,0,0,0,26,42c0,2.009,1.59686,3.55994,3.09741,4.574a.9953.9953,0,0,0-.095.35474l-1,14A.99978.99978,0,0,0,29,62h6a.99978.99978,0,0,0,.99756-1.07129l-1-14a.9953.9953,0,0,0-.095-.35474C36.40314,45.55994,38,44.009,38,42a4.75462,4.75462,0,0,0-.13379-1.0332c-.74609-3.34864-4.92041-8.39307-5.09766-8.60645a.99975.99975,0,0,0-1.5371,0c-.166.19922-4.07422,4.91992-5.01026,8.24707ZM30.07422,60l.85693-12h2.1377l.85693,12ZM31.999,45.91016c-1.1499-.5293-3.2622-1.75928-3.8457-3.18018l.02.00574A3.76729,3.76729,0,0,0,28.77,42.907c.04834.01.09857.01795.1488.02643A4.406,4.406,0,0,0,29.66455,43a4.16806,4.16806,0,0,0,2.98486-1.24072A2.26107,2.26107,0,0,1,34.332,41a2.3282,2.3282,0,0,1,.5199.05377c.05292.012.09527.03552.14435.05127a1.822,1.822,0,0,1,.27075.09986c.05536.02838.10675.06738.15973.10095.06927.04382.13977.08355.20807.13556.06714.051.13781.1112.20739.16937.04407.0368.0868.07049.133.10992A1.911,1.911,0,0,1,36,42C36,43.71,33.34229,45.28906,31.999,45.91016Zm.00244-11.30127a35.8146,35.8146,0,0,1,2.93995,4.42968c-.01-.00128-.022-.00079-.032-.002A4.6287,4.6287,0,0,0,34.332,39a4.16772,4.16772,0,0,0-2.98437,1.24072A2.26133,2.26133,0,0,1,29.66455,41a2.30409,2.30409,0,0,1-.47778-.04956c-.0434-.009-.08332-.02148-.124-.0329a1.74549,1.74549,0,0,1-.27941-.10333c-.03553-.017-.07215-.03247-.10639-.05151a2.56393,2.56393,0,0,1-.313-.20459l-.01562-.01081-.00061-.00049A27.88814,27.88814,0,0,1,32.00146,34.60889Z"></path><path d="M9.55566,43.18945a3.81156,3.81156,0,0,0,3.31055.6875l2.86914-.74267A3.05537,3.05537,0,0,0,18,40.15771V21a1.00046,1.00046,0,0,0-1.24268-.97021l-4,1A1.00026,1.00026,0,0,0,12,22V35.82422l-1.04639.27051a4.05418,4.05418,0,0,0-1.39795,7.09472Zm1.89893-5.1582,1.7959-.46484A1.00032,1.00032,0,0,0,14,36.59814V22.78076l2-.5v17.877a1.056,1.056,0,0,1-.76562,1.04l-2.86915.74268a1.82811,1.82811,0,0,1-1.585-.332A2.03158,2.03158,0,0,1,10,39.98535,1.99011,1.99011,0,0,1,11.45459,38.03125Z"></path><path d="M46.06946,39.34375c.00818.02216.01318.04449.02289.06586.00549.01227.00708.02557.01312.03766l3,6a1.00021,1.00021,0,0,0,1.78906,0l3-6c.006-.01209.00763-.02539.01312-.03766.00971-.02137.01471-.0437.02289-.06586A2.09223,2.09223,0,0,0,54,39V20a2.002,2.002,0,0,0-2-2H48a2.002,2.002,0,0,0-2,2V39A2.09223,2.09223,0,0,0,46.06946,39.34375ZM48,28h4V38H48Zm4-2H48V24h4ZM50,42.76416,48.61816,40h2.76368ZM48,20h4v2H48Z"></path><rect x="31" y="26" width="2" height="4"></rect><rect x="21.99988" y="35.76393" width="2.00023" height="4.47214" transform="translate(-21.27415 41.57771) rotate(-63.43495)"></rect><rect x="38.76393" y="36.99988" width="4.47214" height="2.00023" transform="translate(-12.66563 22.34752) rotate(-26.56505)"></rect><rect x="38" y="10" width="2" height="2"></rect><rect x="24" y="10" width="2" height="10"></rect><path d="M9,14a3.00328,3.00328,0,0,1,3,3,1,1,0,0,0,2,0,3.00328,3.00328,0,0,1,3-3,1,1,0,0,0,0-2,3.00328,3.00328,0,0,1-3-3,1,1,0,0,0-2,0,3.00328,3.00328,0,0,1-3,3,1,1,0,0,0,0,2Zm4-2.03094A5.02336,5.02336,0,0,0,14.03094,13,5.02336,5.02336,0,0,0,13,14.03094,5.02336,5.02336,0,0,0,11.96906,13,5.02336,5.02336,0,0,0,13,11.96906Z"></path><path d="M47,8a3.00328,3.00328,0,0,1,3,3,1,1,0,0,0,2,0,3.00328,3.00328,0,0,1,3-3,1,1,0,0,0,0-2,3.00328,3.00328,0,0,1-3-3,1,1,0,0,0-2,0,3.00328,3.00328,0,0,1-3,3,1,1,0,0,0,0,2Zm4-2.03094A5.02336,5.02336,0,0,0,52.03094,7,5.02336,5.02336,0,0,0,51,8.03094,5.02336,5.02336,0,0,0,49.96906,7,5.02336,5.02336,0,0,0,51,5.96906Z"></path><path d="M16,51a1,1,0,0,0,1,1,3.00328,3.00328,0,0,1,3,3,1,1,0,0,0,2,0,3.00328,3.00328,0,0,1,3-3,1,1,0,0,0,0-2,3.00328,3.00328,0,0,1-3-3,1,1,0,0,0-2,0,3.00328,3.00328,0,0,1-3,3A1,1,0,0,0,16,51Zm5-1.03094A5.02336,5.02336,0,0,0,22.03094,51,5.02336,5.02336,0,0,0,21,52.03094,5.02336,5.02336,0,0,0,19.96906,51,5.02336,5.02336,0,0,0,21,49.96906Z"></path></svg>