<svg fill="#000000" version="1.1" viewBox="33 9 60 86">
  <g>
    <path
      d="M64.83,56.03c-1.72-2.64-6.41-3.96-9.04-4.69l0.05-1.03c0-2.22,3.23-5.38,8.91-5.38c0,0-4.54-2.57-0.63-7.19   c0-1.02-1.42-1.85-3.13-1.85c-0.53,0-1.64,0-2.84,0c0.09-0.93,0.42-2.49,1.53-4.67c3.05-6.05,2.39-10.95-1.98-14.56   c-0.3-0.25-0.71-0.3-1.06-0.13c-0.35,0.17-0.57,0.52-0.57,0.9c0,1.12-0.38,2.45-0.84,3.66c-0.58-2.57-1.96-5.15-3.95-7.21   c-2.35-2.44-5.17-3.67-7.74-3.36c-0.37,0.04-0.68,0.28-0.81,0.63c-0.13,0.34-0.07,0.73,0.17,1.01c2.34,2.74,1.81,4.87,1.21,7.34   c-0.28,1.11-0.57,2.32-0.59,3.62c-1.61-1.02-3.35-1.57-4.84-1.52c-1.16,0.05-2.11,0.48-2.75,1.24c-0.23,0.27-0.3,0.64-0.18,0.97   c0.11,0.33,0.39,0.58,0.74,0.65c0.76,0.16,0.9,2.21,0.41,5.93c-0.32,2.41,0.46,4.23,1.56,5.52c-0.32,0-0.62,0-0.84,0   c-1.71,0-3.13,0.83-3.13,1.85c3.91,4.62-0.63,7.19-0.63,7.19c5.67,0,8.91,3.17,8.91,5.38l0,0.08c-0.61-0.03-1.23,0.09-1.8,0.38   c-0.88,0.45-1.55,1.22-1.89,2.17c-0.34,0.95-0.3,1.97,0.1,2.88c0.16,0.37,0.39,0.69,0.66,0.98c-0.69,0.46-1.22,1.12-1.5,1.93   c-0.34,0.95-0.3,1.97,0.1,2.88c0.24,0.55,0.61,1,1.06,1.36c-0.52,0.44-0.92,1.01-1.16,1.67c-0.34,0.95-0.3,1.97,0.1,2.88   c0.27,0.6,0.69,1.09,1.2,1.46c-0.59,0.45-1.04,1.07-1.29,1.79c-0.34,0.95-0.3,1.97,0.1,2.88c0.41,0.92,1.15,1.61,2.08,1.94   l3.49,1.24l0.33,7.1c0,0,0.08,6.19,5,6.19c4.92,0,4.77-6.19,4.77-6.19l0.13-2.37c1.61,0.12,3.17,0.01,4.61-0.1   c1.32-0.1,2.57-0.19,3.68-0.1c0.44,0.38,1.46,1.32,2.53,2.3c2.44,2.24,6.23,5.72,9.67,8.67h3.09c-0.17-0.14-0.36-0.3-0.53-0.45   c-0.04-0.34-0.31-0.61-0.65-0.61c-0.02,0-0.03,0.01-0.05,0.01c-0.42-0.36-0.86-0.74-1.29-1.11c-0.08-0.21-0.26-0.36-0.47-0.41   c-0.05-0.04-0.1-0.09-0.15-0.13c0,0,0,0,0,0c-3.01-2.64-6.14-5.51-8.25-7.44c-1.81-1.67-2.63-2.41-2.9-2.61   c-0.14-0.1-0.31-0.17-0.48-0.19c-0.53-0.06-1.08-0.07-1.63-0.07c-0.09-0.26-0.33-0.45-0.63-0.45c-0.31,0-0.56,0.21-0.64,0.49   c-0.47,0.03-0.94,0.06-1.43,0.09c-0.41,0.03-0.81,0.06-1.22,0.08c0-0.37-0.3-0.67-0.67-0.67c-0.38,0-0.68,0.3-0.68,0.67   c0,0.02,0.01,0.04,0.01,0.06c-0.6,0.01-1.2,0-1.8-0.04l0.06-1.06c0.12,0.11,0.27,0.18,0.45,0.18c0.37,0,0.67-0.3,0.67-0.68   c0-0.37-0.3-0.67-0.67-0.67c-0.15,0-0.28,0.06-0.39,0.14l0.07-1.33c0.05-0.2,0.09-0.4,0.11-0.6c0.07,0.02,0.14,0.04,0.21,0.04   c0.37,0,0.67-0.3,0.67-0.68c0-0.37-0.3-0.67-0.67-0.67c-0.08,0-0.15,0.02-0.22,0.04l0.09-1.67c0.04-0.03,0.09-0.07,0.13-0.11   c0.21,0.32,0.35,0.52,0.38,0.56c0.2,0.26,0.5,0.4,0.8,0.4c0.04,0,0.09-0.02,0.13-0.02c0.05,0.32,0.32,0.58,0.66,0.58   c0.37,0,0.67-0.3,0.67-0.67c0-0.31-0.22-0.56-0.51-0.64c0.04-0.13,0.05-0.27,0.02-0.4c-0.02-0.16-0.07-0.31-0.18-0.45   c-0.02-0.02-0.78-1.07-1.48-2.71c0.11-0.12,0.18-0.27,0.18-0.44c0,0,0,0,0,0h-0.01c0,0,0,0,0,0c-0.03-0.32-0.26-0.56-0.57-0.61   c-0.2-0.59-0.37-1.23-0.5-1.92c0.11,0.09,0.25,0.15,0.41,0.15c0.37,0,0.67-0.3,0.67-0.67c0-0.38-0.3-0.68-0.67-0.68   c-0.23,0-0.42,0.12-0.54,0.29c-0.08-0.74-0.09-1.52,0-2.32c0.12,0.17,0.31,0.28,0.54,0.28c0.37,0,0.67-0.3,0.67-0.67   c0-0.38-0.3-0.68-0.67-0.68c-0.15,0-0.28,0.06-0.39,0.14c0.12-0.56,0.27-1.13,0.5-1.7c0.03-0.07,0.03-0.14,0.04-0.21   c0.29-0.07,0.52-0.33,0.52-0.65c0-0.37-0.3-0.67-0.67-0.67c-0.2,0-0.37,0.08-0.49,0.21c-0.64-0.27-1.17-0.36-1.54-0.24   c-0.24,0.07-0.44,0.23-0.56,0.44c-0.01,0.01-0.88,1.4-2.53,1.49c-0.09,0-0.17,0-0.25,0c-0.11-0.21-0.33-0.35-0.58-0.35   c-0.21,0-0.39,0.1-0.51,0.24c-0.25-0.06-0.48-0.13-0.65-0.21c0.26-0.47,0.61-1.11,0.99-1.82c0.06,0.02,0.11,0.03,0.17,0.03   c0.37,0,0.67-0.3,0.67-0.68c0-0.19-0.09-0.37-0.22-0.49c0.88-1.6,1.77-3.23,2.14-3.84c0.01-0.02,0.02-0.03,0.03-0.05   c0.01-0.02,0.03-0.05,0.04-0.07c0.41-0.67,1.32-0.82,2.68-0.45c-0.03,0.08-0.05,0.17-0.05,0.26c0,0.38,0.3,0.68,0.68,0.68   c0.34,0,0.61-0.26,0.65-0.59c1.24,0.34,3.03,0.86,4.62,1.57c0.06,0.32,0.32,0.57,0.66,0.57c0.11,0,0.21-0.04,0.31-0.09   c0.39,0.21,0.75,0.44,1.08,0.68c-0.04,0.09-0.07,0.18-0.07,0.28c0,0.38,0.3,0.68,0.68,0.68c0.11,0,0.2-0.03,0.29-0.08   c0.05,0.06,0.1,0.12,0.14,0.18c0.59,0.91,1.13,2.04,1.6,3.21c-0.02,0-0.04-0.01-0.07-0.01c-0.38,0-0.68,0.3-0.68,0.67   c0,0.38,0.3,0.68,0.68,0.68c0.2,0,0.37-0.09,0.49-0.23c0.48,1.3,0.88,2.58,1.19,3.62c-0.22,0.11-0.37,0.33-0.37,0.6   c0,0.37,0.3,0.67,0.68,0.67c0.04,0,0.07-0.02,0.11-0.02c0.08,0.12,0.18,0.23,0.3,0.31l0.88,0.54c0,0.01-0.01,0.02-0.01,0.03   c0,0.38,0.3,0.68,0.68,0.68c0.12,0,0.23-0.04,0.32-0.1l1.08,0.67c-0.04,0.08-0.07,0.17-0.08,0.26c0,0,0,0,0,0h-0.01c0,0,0,0,0,0   c0,0.37,0.3,0.67,0.68,0.67c0.21,0,0.39-0.1,0.51-0.25l1.01,0.62c-0.08,0.07-0.14,0.15-0.18,0.25c-0.03,0.08-0.05,0.17-0.05,0.26   c0,0.37,0.3,0.67,0.68,0.67c0.31,0,0.56-0.22,0.64-0.5l0.2,0.12c0.06,0.04,0.13,0.05,0.19,0.07l0.88,0.54   c-0.33,0.05-0.57,0.32-0.57,0.66c0,0.38,0.29,0.68,0.67,0.68V71.2l0,0v1.28c0,0,0,0,0,0c0.37,0,0.67-0.3,0.67-0.68   c0-0.08-0.02-0.15-0.04-0.22l10.6,6.48c0.03,0.35,0.31,0.62,0.67,0.62c0.09,0,0.18-0.02,0.26-0.05l1.08,0.66   c-0.03,0.08-0.05,0.17-0.05,0.26c0,0.38,0.3,0.68,0.68,0.68c0.2,0,0.38-0.1,0.5-0.25l1.04,0.63c-0.13,0.12-0.22,0.29-0.22,0.49   c0,0.38,0.3,0.68,0.68,0.68c0.3,0,0.55-0.21,0.63-0.5l1.15,0.71v-2.34L68.47,65.1C67.75,62.66,66.55,58.67,64.83,56.03z M52.5,75.8   c-0.01,0.02-0.02,0.03-0.02,0.05c-0.21,0.11-0.36,0.32-0.36,0.58c0,0,0,0.01,0,0.01c-0.15,0.17-0.33,0.31-0.53,0.41   c-0.4,0.21-0.85,0.24-1.26,0.1c0,0,0,0,0,0l-0.87-0.31c0.02-0.07,0.04-0.14,0.04-0.21c0-0.38-0.3-0.67-0.67-0.67   c-0.29,0-0.54,0.18-0.63,0.43l-4.76-1.69c-0.12-0.17-0.31-0.29-0.53-0.29c0,0,0,0,0,0v0.1l0,0v-0.1c-0.06,0-0.12,0.02-0.17,0.04   l-1.33-0.47c0.11-0.12,0.18-0.27,0.18-0.45c0-0.37-0.3-0.67-0.67-0.67c-0.25,0-0.46,0.14-0.58,0.34c-0.03-0.06-0.07-0.11-0.1-0.18   c-0.19-0.43-0.21-0.93-0.04-1.4c0.08-0.24,0.21-0.45,0.37-0.63c0.1,0.06,0.22,0.11,0.35,0.11c0.37,0,0.67-0.3,0.67-0.67   c0-0.01,0-0.01,0-0.02c0.09-0.02,0.18-0.03,0.27-0.03c0.17,0,0.35,0.03,0.51,0.09l0.54,0.19v0.64c-0.38,0-0.67,0.3-0.67,0.68   c0,0.38,0.29,0.68,0.67,0.68v0.14c0,0,0,0,0,0v-0.14c0,0,0,0,0,0c0.37,0,0.67-0.3,0.67-0.68c0-0.38-0.3-0.68-0.67-0.68c0,0,0,0,0,0   v-0.64l3.31,1.18c-0.01,0.05-0.03,0.1-0.03,0.15c0,0.38,0.3,0.68,0.68,0.68c0.26,0,0.49-0.16,0.6-0.39l4.08,1.45   c0.41,0.14,0.73,0.45,0.92,0.87C52.65,74.84,52.67,75.34,52.5,75.8z M52.66,67.87L52.66,67.87c0.02,0.01,0.03,0.01,0.05,0.01   c0.08,0.28,0.16,0.55,0.25,0.82c0,0,0,0,0,0c0.25,0.73,0.53,1.39,0.8,1.96c-0.44,0.64-1.22,0.96-1.94,0.7h0l-2.39-0.85   c0.04-0.08,0.06-0.17,0.06-0.27c0-0.38-0.3-0.68-0.67-0.68c-0.32,0-0.57,0.22-0.65,0.51l-3.87-1.37l0,0l-0.86-0.3   c-0.12-0.19-0.32-0.32-0.56-0.32c0,0,0,0,0,0v-1.75c0,0,0,0,0,0c0.37,0,0.67-0.3,0.67-0.67c0-0.38-0.3-0.68-0.67-0.68c0,0,0,0,0,0   v-0.34c0,0,0,0,0,0v0.34c-0.38,0-0.67,0.3-0.67,0.68c0,0.37,0.29,0.67,0.67,0.67v1.75c-0.08,0-0.16,0.02-0.23,0.05l-1.29-0.46   c0.12-0.12,0.19-0.29,0.19-0.47c0-0.37-0.3-0.67-0.67-0.67c-0.26,0-0.47,0.15-0.59,0.35c-0.03-0.05-0.07-0.1-0.09-0.16   c-0.19-0.43-0.21-0.93-0.04-1.4c0.09-0.24,0.22-0.46,0.38-0.64c0.1,0.06,0.21,0.1,0.34,0.1c0.36,0,0.66-0.3,0.67-0.67   c0.13-0.02,0.26-0.03,0.39-0.02l0.94,0.33l0,0l3.3,1.17c0,0.02-0.01,0.05-0.01,0.07c0,0.37,0.3,0.67,0.68,0.67   c0.23,0,0.43-0.13,0.55-0.31l1.43,0.51c-0.01,0-0.01,0-0.02,0c-0.38,0-0.68,0.3-0.68,0.67c0,0.38,0.3,0.68,0.68,0.68   c0.37,0,0.67-0.3,0.67-0.68c0-0.23-0.12-0.42-0.3-0.54L52.66,67.87z M49.76,62.67c0.14-0.01,0.27-0.03,0.4-0.05   c0.04,0.34,0.31,0.6,0.67,0.6c0.37,0,0.67-0.3,0.67-0.67c0-0.1-0.02-0.19-0.06-0.27c0.34-0.14,0.65-0.31,0.91-0.49l0.03,0.01   c-0.13,0.69-0.19,1.36-0.21,2.02c-0.04,0.08-0.06,0.17-0.06,0.27c0,0.1,0.02,0.2,0.06,0.28c0.01,0.42,0.04,0.84,0.08,1.24   l-0.88-0.31c-0.12-0.19-0.32-0.33-0.56-0.33c-0.08,0-0.16,0.02-0.23,0.05l-1.29-0.46c0.12-0.12,0.19-0.29,0.19-0.47   c0-0.37-0.3-0.67-0.67-0.67c-0.38,0-0.68,0.3-0.68,0.67c0,0.02,0.01,0.05,0.01,0.07l-4.6-1.63c-0.02-0.36-0.31-0.65-0.66-0.65   c0,0,0,0,0,0v0.37c0,0,0,0,0,0v-0.37c-0.21,0-0.38,0.09-0.5,0.24l-1.26-0.45c-0.02-0.01-0.04-0.02-0.07-0.03   c0.28-0.08,0.5-0.33,0.5-0.65c0-0.37-0.3-0.67-0.67-0.67c-0.33,0-0.58,0.23-0.65,0.53c-0.01-0.02-0.02-0.03-0.03-0.05   c-0.19-0.43-0.21-0.93-0.04-1.4c0.12-0.34,0.33-0.64,0.6-0.85c0.04,0.01,0.08,0.02,0.12,0.02c0.25,0,0.47-0.15,0.58-0.37   c0.29-0.07,0.59-0.06,0.87,0.04l0.54,0.19l0,0l2.96,1.05c-0.22,0.41-0.37,0.69-0.4,0.74c-0.05,0.1-0.09,0.21-0.11,0.31   c-0.12-0.13-0.29-0.22-0.49-0.22c-0.38,0-0.68,0.3-0.68,0.67c0,0.38,0.3,0.68,0.68,0.68c0.29,0,0.53-0.19,0.62-0.46   c0.05,0.08,0.09,0.15,0.16,0.21c0.06,0.06,0.35,0.31,0.84,0.57c-0.18,0.12-0.31,0.32-0.31,0.56c0,0.37,0.3,0.67,0.68,0.67   c0.37,0,0.67-0.3,0.67-0.67c0-0.05-0.02-0.1-0.03-0.15C48.11,62.58,48.86,62.71,49.76,62.67z M48.25,55.11   c-0.24,0.44-0.49,0.89-0.73,1.34c0.01-0.04,0.02-0.07,0.02-0.11c0-0.37-0.3-0.67-0.67-0.67c-0.38,0-0.68,0.3-0.68,0.67   c0,0.38,0.3,0.68,0.68,0.68c0.16,0,0.31-0.07,0.43-0.17c-0.15,0.27-0.29,0.53-0.43,0.79l-3.32-1.18c0.01-0.04,0.02-0.08,0.02-0.12   c0-0.37-0.3-0.67-0.67-0.67c0,0,0,0,0,0v0.57l0,0v-0.57c-0.26,0-0.47,0.15-0.58,0.36l-0.43-0.15c-0.27-0.1-0.5-0.27-0.68-0.5   c0.21-0.11,0.37-0.33,0.37-0.6c0-0.37-0.3-0.67-0.67-0.67c-0.03,0-0.05,0.01-0.07,0.01c0.01-0.17,0.04-0.35,0.1-0.52   c0.17-0.47,0.49-0.84,0.91-1.06c0.24-0.12,0.49-0.18,0.75-0.18c0.1,0,0.21,0.03,0.31,0.05v0.15c-0.38,0-0.67,0.29-0.67,0.67   c0,0.38,0.29,0.68,0.67,0.68v-0.05l0,0.01v0.04c0,0,0,0,0,0c0.37,0,0.67-0.3,0.67-0.68c0-0.38-0.3-0.67-0.67-0.67c0,0,0,0,0,0   v-0.15c0.07,0.01,0.14,0.01,0.2,0.04l3.19,1.13c0.12,0.2,0.32,0.33,0.57,0.33c0.08,0,0.16-0.02,0.23-0.05l1.25,0.44   c-0.12,0.12-0.2,0.29-0.2,0.47C48.15,54.9,48.19,55.01,48.25,55.11z M54.13,35.89c-1.22,0-4.29,0-5.51,0c-1.22,0-4.29,0-5.51,0   c-0.37,0-0.92,0-1.53,0c-1.21-0.66-3.12-2.19-2.72-5.26c0.43-3.25,0.49-5.69-0.35-7.03c0.08-0.01,0.16-0.02,0.24-0.02   c1.57-0.07,3.82,1,5.43,2.61c0.33,0.33,0.85,0.39,1.24,0.14c0.4-0.25,0.56-0.74,0.41-1.18c-0.64-1.81-0.23-3.45,0.2-5.18   c0.54-2.17,1.13-4.57-0.38-7.33c1.41,0.36,2.86,1.26,4.18,2.62c2.63,2.73,4.08,6.61,3.61,9.67c-0.07,0.47,0.2,0.93,0.65,1.09   c0.45,0.16,0.95-0.02,1.2-0.43c0.09-0.15,1.82-3.12,2.5-6.04c2.35,2.8,2.37,6.27,0.1,10.77c-1.28,2.54-1.67,4.4-1.76,5.57   C55.27,35.89,54.53,35.89,54.13,35.89z">
    </path>
  </g>
</svg>