<svg height='100px' width='100px'  fill="#000000" xmlns="http://www.w3.org/2000/svg" viewBox="0 0 120 120" x="0px" y="0px"><title>Boss</title><path d="M46.74,28.6a6.05,6.05,0,0,0,1.58,1.08C50.47,35.16,55,38.75,60,38.75s9.53-3.59,11.68-9.07a6.06,6.06,0,0,0,1.58-1.08A5.26,5.26,0,0,0,75,24.86a3.73,3.73,0,0,0-1.15-2.75,3.67,3.67,0,0,0-1.15-.73A13.12,13.12,0,0,0,60,10,13.12,13.12,0,0,0,47.3,21.38a3.67,3.67,0,0,0-1.15.73A3.73,3.73,0,0,0,45,24.86,5.26,5.26,0,0,0,46.74,28.6Z"></path><path d="M57,55.16,50.15,42.38c-5.2,1.65-8.9,6.3-8.9,11.32V60h37.5V53.7c0-5-3.7-9.67-8.9-11.32L63,55.16h-.52l-1-8.16,1.09-1.22V44.39L61.25,43h-2.5L57.5,44.39v1.39L58.59,47l-1,8.16Z"></path><rect x="12.5" y="75" width="95" height="35"></rect><rect x="10" y="62.5" width="100" height="10"></rect><path d="M38.75,53.7C38.75,47.62,43.13,42,49.39,40l2-.63h0V38.08a17.79,17.79,0,0,1-5-6.63,8.67,8.67,0,0,1-1.32-1,7.76,7.76,0,0,1-2.52-5.56,6.21,6.21,0,0,1,1.93-4.56,6.11,6.11,0,0,1,.63-.52c.09-.38.19-.75.3-1.12A22.54,22.54,0,0,0,30,40V60h8.75Z"></path><path d="M75.57,20.3a6.21,6.21,0,0,1,1.93,4.56A7.76,7.76,0,0,1,75,30.42a8.67,8.67,0,0,1-1.32,1,17.79,17.79,0,0,1-5,6.63v1.28h0l2,.63c6.27,2,10.64,7.63,10.64,13.71V60H90V40A22.54,22.54,0,0,0,74.63,18.66c.11.37.22.74.3,1.12A6.13,6.13,0,0,1,75.57,20.3Z"></path></svg>