<svg height='100px' width='100px'  fill="#000000" xmlns="http://www.w3.org/2000/svg" xmlns:xlink="http://www.w3.org/1999/xlink" version="1.1" x="0px" y="0px" viewBox="0 0 96 96" enable-background="new 0 0 96 96" xml:space="preserve"><g><path fill="#000000" d="M36.417,85.726l23.167,0.002V82.12l-23.167-0.002V85.726z M37.417,83.118l21.167,0.002v1.607l-21.167-0.002   V83.118z"></path><path fill="#000000" d="M89.895,34.885l-7.934-23.459l0.627-0.201l-0.307-0.952L49.877,20.689v-0.082l-3.753,1.188v0.101   L13.849,32.272l0.14,0.436l-7.88,23.293H5.545v0.811c0,2.977,3.963,5.309,9.022,5.309c5.059,0,9.021-2.332,9.021-5.309v-0.811   h-0.562l-7.818-23.115l30.916-9.939l-0.002,59.172h3.755V21.74l30.906-9.936l-7.805,23.081h-0.564v0.808   c0,2.977,3.963,5.309,9.021,5.309c5.057,0,9.02-2.332,9.02-5.309v-0.809H89.895z M14.067,32.953l0.087,0.271l0.913-0.294v23.07h-1   V32.953z M13.067,38.551v16.45H7.502L13.067,38.551z M16.067,38.547l5.565,16.454h-5.565V38.547z M22.58,57.001   c-0.192,2.252-3.783,4.119-8.013,4.119c-4.23,0-7.822-1.867-8.014-4.119H22.58z M48.877,81.118h-1.755l0.002-58.493l1.753-0.563   V81.118z M82.936,17.429L88.5,33.885l-5.564,0.001V17.429z M80.936,11.756l1-0.321v23.45h-1V11.756z M79.936,17.434v16.452h-5.563   L79.936,17.434z M81.436,40.002c-4.303,0-7.826-1.829-8.014-4.116l16.025-0.001C89.252,38.136,85.662,40.002,81.436,40.002z"></path></g></svg>