<svg height='100px' width='100px'  fill="#000000" xmlns="http://www.w3.org/2000/svg" xmlns:xlink="http://www.w3.org/1999/xlink" version="1.1" x="0px" y="0px" viewBox="0 0 96 96" enable-background="new 0 0 96 96" xml:space="preserve"><g><circle fill="#000000" cx="38.701" cy="43.436" r="5.583"></circle><circle fill="#000000" cx="51.748" cy="35.013" r="5.584"></circle><circle fill="#000000" cx="65.623" cy="30.773" r="5.584"></circle><circle fill="#000000" cx="37.876" cy="30.773" r="5.584"></circle><path fill="#000000" d="M45.58,53.855v-1.564c0-1.445-1.172-2.617-2.618-2.617h-8.523c-1.445,0-2.616,1.172-2.616,2.617v14.831   c0,1.426,1.142,2.581,2.56,2.61v11.252c0,1.445,1.148,2.616,2.562,2.616h3.514c1.414,0,2.561-1.171,2.561-2.616V69.732   c0.464-0.01,0.892-0.148,1.266-0.368V56.104C44.285,55.143,44.807,54.311,45.58,53.855z"></path><circle fill="#000000" cx="25.613" cy="38.944" r="5.583"></circle><path fill="#000000" d="M32.491,49.364v-1.566c0-1.444-1.171-2.615-2.617-2.615h-8.523c-1.444-0.001-2.616,1.171-2.616,2.615   v14.833c0,1.425,1.142,2.581,2.56,2.609v11.252c0,1.445,1.148,2.617,2.562,2.617h3.513c1.414,0,2.562-1.172,2.562-2.617V65.24   c0.464-0.011,0.892-0.147,1.266-0.369V51.61C31.196,50.65,31.719,49.818,32.491,49.364z"></path><path fill="#000000" d="M51.75,42.252c0,0,0,0-0.002,0c-3.082,0-5.583,2.5-5.583,5.583s2.501,5.584,5.583,5.584   c3.085,0,5.586-2.501,5.586-5.584S54.833,42.252,51.75,42.252z"></path><circle fill="#000000" cx="64.798" cy="43.436" r="5.583"></circle><path fill="#000000" d="M69.06,49.674h-8.522c-1.446,0-2.618,1.172-2.618,2.617v1.564c0.772,0.455,1.294,1.286,1.294,2.248v13.261   c0.375,0.22,0.804,0.358,1.267,0.367v11.251c0,1.446,1.147,2.618,2.561,2.618h3.515c1.414,0,2.563-1.172,2.563-2.618v-11.25   c1.418-0.029,2.559-1.186,2.559-2.61V52.291C71.676,50.846,70.504,49.674,69.06,49.674z"></path><circle fill="#000000" cx="77.885" cy="38.944" r="5.583"></circle><path fill="#000000" d="M82.147,45.182h-8.522c-1.446,0-2.617,1.171-2.617,2.616v1.565c0.771,0.454,1.295,1.286,1.295,2.246v13.262   c0.373,0.222,0.802,0.358,1.265,0.368v11.25c0,1.446,1.148,2.618,2.562,2.618h3.513c1.414,0,2.563-1.172,2.563-2.618V65.24   c1.419-0.029,2.561-1.186,2.561-2.61V47.798C84.765,46.354,83.592,45.182,82.147,45.182z"></path><path fill="#000000" d="M56.889,54.235c-0.274-0.1-0.567-0.162-0.877-0.162h-0.001H56.01h-8.521h-0.001h-0.001   c-0.293,0-0.57,0.06-0.834,0.148c-1.034,0.351-1.782,1.316-1.782,2.468v14.832c0,0.803,0.369,1.51,0.938,1.988   c0.441,0.371,1.002,0.609,1.623,0.623v11.25c0,0.181,0.018,0.356,0.052,0.527c0.031,0.161,0.081,0.316,0.141,0.465   c0.003,0.009,0.005,0.018,0.008,0.027c0.047,0.114,0.103,0.224,0.164,0.328c0.003,0.005,0.008,0.013,0.011,0.018   c0.069,0.115,0.147,0.222,0.231,0.324c0.028,0.034,0.062,0.064,0.092,0.097c0.061,0.068,0.125,0.134,0.192,0.193   c0.04,0.034,0.08,0.064,0.121,0.096c0.066,0.052,0.135,0.102,0.207,0.147c0.046,0.029,0.091,0.056,0.139,0.081   c0.074,0.042,0.15,0.077,0.23,0.111c0.047,0.02,0.095,0.04,0.145,0.058c0.088,0.03,0.179,0.054,0.27,0.075   c0.045,0.009,0.088,0.022,0.132,0.032C49.704,87.985,49.846,88,49.992,88h3.512h0.001h0.001c0.145,0,0.286-0.015,0.425-0.037   c0.045-0.01,0.087-0.023,0.132-0.032c0.092-0.021,0.183-0.045,0.271-0.075c0.049-0.018,0.097-0.038,0.145-0.058   c0.08-0.034,0.156-0.069,0.23-0.111c0.048-0.025,0.092-0.052,0.139-0.081c0.071-0.046,0.14-0.095,0.207-0.147   c0.041-0.031,0.081-0.062,0.12-0.096c0.067-0.06,0.132-0.125,0.192-0.193c0.03-0.032,0.063-0.063,0.092-0.097   c0.085-0.103,0.162-0.209,0.231-0.324c0.003-0.006,0.007-0.013,0.011-0.018c0.062-0.106,0.116-0.215,0.163-0.328   c0.004-0.01,0.006-0.019,0.009-0.027c0.061-0.148,0.11-0.304,0.142-0.465c0.034-0.171,0.052-0.347,0.052-0.527v-11.25   c0.62-0.014,1.182-0.252,1.623-0.623c0.568-0.479,0.938-1.188,0.938-1.988V56.689C58.628,55.554,57.9,54.597,56.889,54.235z"></path><polygon fill="#000000" points="44.472,29.429 46.686,29.429 46.686,19.547 55.561,19.547 55.561,8 35.6,8 35.6,19.547    44.472,19.547  "></polygon><polygon fill="#000000" points="73.67,32.73 75.884,32.73 75.884,22.848 84.758,22.848 84.758,11.301 64.798,11.301 64.798,22.848    73.67,22.848  "></polygon><polygon fill="#000000" points="20.108,32.73 22.321,32.73 22.321,22.848 31.196,22.848 31.196,11.301 11.235,11.301    11.235,22.848 20.108,22.848  "></polygon></g></svg>