<svg height='100px' width='100px'  fill="#000000" xmlns="http://www.w3.org/2000/svg" xmlns:xlink="http://www.w3.org/1999/xlink" version="1.1" x="0px" y="0px" viewBox="0 0 100 100" enable-background="new 0 0 100 100" xml:space="preserve"><g><path d="M64.01,45.157c3.302,0,5.987-2.686,5.987-5.988c0-3.303-2.686-5.99-5.987-5.99c-3.302,0-5.988,2.687-5.988,5.99   C58.022,42.471,60.708,45.157,64.01,45.157z M64.01,33.778c2.971,0,5.388,2.418,5.388,5.391c0,2.971-2.417,5.389-5.388,5.389   c-2.971,0-5.389-2.417-5.389-5.389C58.622,36.197,61.039,33.778,64.01,33.778z"></path><path d="M73.144,52.081c0-3.311-2.692-6.004-6.002-6.004h-0.141c-0.809,0-1.593,0.158-2.332,0.47l0.117,0.276l-0.129-0.271   l-5.7,2.713l-4.962-6.776c-0.093-0.125-0.266-0.159-0.398-0.079l-2.959,1.799c-0.135,0.082-0.183,0.254-0.111,0.394l2.904,5.612   l-1.663,2.958c-0.077,0.138-0.035,0.312,0.097,0.398l9.07,5.951c0.02,0.011,0.042,0.017,0.062,0.026v1.832H39.003v-1.829   c0.027-0.015,0.05-0.023,0.08-0.04l9.052-5.94c0.132-0.087,0.174-0.261,0.097-0.398l-1.664-2.959l2.905-5.611   c0.072-0.14,0.024-0.312-0.111-0.394l-2.959-1.799c-0.131-0.08-0.305-0.046-0.398,0.079l-4.962,6.776l-5.518-2.626l0.002-0.005   c-0.026-0.012-0.054-0.021-0.081-0.032l-0.104-0.05l-0.003,0.006c-0.741-0.314-1.526-0.481-2.341-0.481h-0.141   c-3.31,0-6.002,2.693-6.002,6.004v9.3h-4.364v1h55.016v-1h-4.364V52.081z M61.597,59.778c0.146,0.038,0.293,0.075,0.446,0.089   c0.082,0.007,0.163,0.011,0.245,0.011c0.876,0,1.717-0.419,2.24-1.129l5.95-8.077l-0.483-0.355l-5.95,8.077   c-0.448,0.608-1.206,0.94-1.946,0.876c-0.307-0.028-0.599-0.119-0.851-0.26l-8.818-5.786l1.424-2.535l7.623,3.461   c0.129,0.057,0.281,0.019,0.366-0.096l4.653-6.316l-0.483-0.355l-4.509,6.12l-7.443-3.378l-2.871-5.548l2.484-1.51l4.947,6.754   c0.085,0.117,0.24,0.156,0.371,0.094l5.915-2.815c0.664-0.279,1.369-0.422,2.096-0.422h0.141c2.979,0,5.402,2.425,5.402,5.405v9.3   H61.597V59.778z M47.571,53.224l-8.568,5.623v-4.448l1.972,0.927c0.36,0.163,0.744,0.245,1.139,0.245   c0.963,0,1.872-0.511,2.382-1.352l1.743-3.367L47.571,53.224z M27.456,52.081c0-2.98,2.424-5.405,5.402-5.405h0.141   c0.764,0,1.5,0.16,2.19,0.467l5.82,2.77c0.131,0.062,0.286,0.023,0.371-0.094l4.947-6.754l2.484,1.51l-4.839,9.35   c-0.397,0.654-1.092,1.045-1.859,1.045c-0.31,0-0.609-0.064-0.888-0.19l-8.173-3.841l-0.255,0.543l5.605,2.634v7.265H27.456V52.081   z"></path><path d="M36.966,45.843c3.302,0,5.988-2.686,5.988-5.988c0-3.303-2.686-5.99-5.988-5.99s-5.987,2.687-5.987,5.99   C30.979,43.157,33.664,45.843,36.966,45.843z M36.966,34.464c2.971,0,5.388,2.418,5.388,5.391c0,2.971-2.417,5.389-5.388,5.389   c-2.971,0-5.388-2.417-5.388-5.389C31.578,36.882,33.995,34.464,36.966,34.464z"></path><path d="M50,9.5C27.668,9.5,9.5,27.668,9.5,50c0,22.332,18.168,40.5,40.5,40.5S90.5,72.332,90.5,50C90.5,27.668,72.332,9.5,50,9.5z    M50,89.5c-21.78,0-39.5-17.72-39.5-39.5S28.22,10.5,50,10.5S89.5,28.22,89.5,50S71.78,89.5,50,89.5z"></path><path d="M25.47,24.36c0.09,0,0.18-0.04,0.24-0.1c0.14-0.13,0.15-0.35,0.02-0.49c-0.14-0.14-0.36-0.15-0.5-0.02   c-0.14,0.13-0.14,0.35-0.01,0.5C25.29,24.32,25.38,24.36,25.47,24.36z"></path><path d="M23.38,26.5c0.1,0,0.2-0.04,0.27-0.12c0.12-0.14,0.11-0.37-0.03-0.5c-0.14-0.12-0.37-0.11-0.5,0.03   c-0.12,0.15-0.11,0.37,0.03,0.5C23.22,26.47,23.3,26.5,23.38,26.5z"></path><path d="M21.27,28.74c0.07,0.04,0.14,0.07,0.21,0.07c0.11,0,0.22-0.05,0.28-0.14c0.12-0.16,0.09-0.38-0.06-0.49   c-0.16-0.12-0.38-0.09-0.5,0.06h0.01C21.09,28.4,21.12,28.62,21.27,28.74z"></path><path d="M30.15,20.64c0.07,0,0.14-0.02,0.19-0.06c0.16-0.11,0.21-0.33,0.1-0.49c-0.11-0.16-0.32-0.2-0.48-0.1V20   c-0.17,0.1-0.21,0.32-0.1,0.48C29.93,20.58,30.04,20.64,30.15,20.64z"></path><path d="M32.7,19.08c0.06,0,0.12-0.01,0.17-0.04c0.17-0.1,0.24-0.31,0.14-0.48c-0.09-0.17-0.3-0.23-0.47-0.14v0.01   c-0.17,0.09-0.23,0.3-0.14,0.47C32.46,19.02,32.58,19.08,32.7,19.08z"></path><path d="M35.38,17.75c0.05,0,0.1-0.01,0.15-0.03c0.17-0.08,0.25-0.29,0.17-0.47c-0.08-0.17-0.29-0.25-0.46-0.17   c-0.18,0.07-0.26,0.28-0.18,0.46C35.12,17.67,35.25,17.75,35.38,17.75z"></path><path d="M27.73,22.4c0.08,0,0.16-0.03,0.22-0.08c0.15-0.12,0.18-0.34,0.06-0.49c-0.12-0.15-0.34-0.18-0.49-0.06   c-0.16,0.12-0.18,0.34-0.06,0.5C27.53,22.35,27.63,22.4,27.73,22.4z"></path><path d="M18.14,33.82c0.05,0.03,0.1,0.04,0.16,0.04c0.12,0,0.25-0.07,0.31-0.19c0.09-0.17,0.02-0.38-0.15-0.47   c-0.17-0.09-0.38-0.02-0.47,0.15C17.9,33.52,17.97,33.73,18.14,33.82z"></path><path d="M14.87,56.53c-0.19,0.039-0.32,0.22-0.28,0.409c0.03,0.17,0.18,0.28,0.34,0.28c0.03,0,0.05,0,0.07,0   c0.19-0.04,0.31-0.229,0.28-0.41C15.24,56.62,15.06,56.49,14.87,56.53z"></path><path d="M14.83,53.88c-0.03-0.19-0.2-0.33-0.39-0.311c-0.187,0.021-0.324,0.186-0.309,0.383c0.021,0.179,0.169,0.317,0.349,0.317   c0.01,0,0.02,0,0.04-0.01C14.71,54.24,14.85,54.069,14.83,53.88z"></path><path d="M15.54,59.45c-0.19,0.05-0.3,0.239-0.24,0.43c0.04,0.15,0.18,0.25,0.33,0.25c0.03,0,0.07,0,0.1-0.01   c0.18-0.051,0.29-0.25,0.24-0.431C15.92,59.5,15.72,59.39,15.54,59.45z"></path><path d="M19.79,31.27c0.11,0,0.23-0.06,0.29-0.17c0.1-0.16,0.06-0.38-0.11-0.48c-0.16-0.1-0.38-0.05-0.48,0.11   c-0.1,0.16-0.05,0.38,0.11,0.48C19.66,31.25,19.72,31.27,19.79,31.27z"></path><path d="M16.07,38.8c-0.19-0.06-0.38,0.04-0.44,0.23c-0.06,0.18,0.04,0.38,0.22,0.44c0.04,0.01,0.07,0.02,0.11,0.02   c0.15,0,0.29-0.1,0.33-0.25C16.35,39.06,16.25,38.86,16.07,38.8z"></path><path d="M16.45,62.3c-0.18,0.06-0.27,0.26-0.2,0.45c0.05,0.14,0.18,0.22,0.32,0.22c0.05,0,0.09,0,0.13-0.02   c0.18-0.07,0.27-0.271,0.2-0.45C16.83,62.319,16.63,62.229,16.45,62.3z"></path><polygon points="14.13,53.96 14.131,53.952 14.13,53.95  "></polygon><path d="M38.16,16.64c0.04,0,0.08-0.01,0.12-0.02c0.18-0.07,0.27-0.27,0.21-0.45c-0.06-0.18-0.26-0.28-0.45-0.21   c-0.18,0.06-0.27,0.26-0.21,0.44C37.88,16.55,38.02,16.64,38.16,16.64z"></path><path d="M15.09,42.36c0.03,0.01,0.05,0.01,0.08,0.01c0.16,0,0.3-0.11,0.34-0.27c0.04-0.19-0.08-0.38-0.26-0.42   c-0.19-0.04-0.38,0.08-0.42,0.26h-0.01C14.78,42.13,14.9,42.32,15.09,42.36z"></path><path d="M14.3,48.29c0,0,0.01,0,0.02,0c0.18,0,0.34-0.14,0.35-0.33c0.01-0.19-0.14-0.36-0.33-0.37c-0.19-0.01-0.36,0.14-0.37,0.33   C13.96,48.11,14.11,48.28,14.3,48.29z"></path><path d="M14.28,51.28c0.2,0,0.35-0.171,0.34-0.36c0-0.19-0.16-0.34-0.36-0.34c-0.19,0.01-0.34,0.17-0.34,0.36   c0.01,0.19,0.16,0.34,0.35,0.34H14.28z"></path><path d="M14.57,45.31c0.01,0,0.03,0,0.05,0c0.17,0,0.32-0.12,0.34-0.3c0.03-0.19-0.1-0.37-0.29-0.39c-0.19-0.03-0.37,0.1-0.4,0.29   C14.24,45.1,14.38,45.28,14.57,45.31z"></path><path d="M69.68,20.52c0.12,0,0.23-0.05,0.3-0.15c0.1-0.16,0.06-0.38-0.1-0.49c-0.16-0.1-0.38-0.06-0.49,0.1   c-0.1,0.16-0.06,0.38,0.1,0.49C69.55,20.51,69.62,20.52,69.68,20.52z"></path><path d="M76.48,26.35c0.08,0,0.17-0.03,0.24-0.09c0.14-0.13,0.15-0.35,0.02-0.49c-0.13-0.15-0.35-0.16-0.49-0.03   c-0.15,0.13-0.16,0.35-0.03,0.5C76.29,26.31,76.39,26.35,76.48,26.35z"></path><path d="M16.71,36.09c-0.01,0.02-0.01,0.04-0.02,0.05c-0.01,0.02-0.01,0.04-0.02,0.05c-0.08,0.18,0.01,0.39,0.19,0.46   c0.04,0.02,0.09,0.03,0.13,0.03c0.14,0,0.27-0.08,0.32-0.22c0.01-0.02,0.02-0.04,0.02-0.06c0.01-0.01,0.02-0.03,0.03-0.04   c0.07-0.18-0.01-0.39-0.19-0.46C16.99,35.82,16.79,35.91,16.71,36.09z"></path><path d="M72.11,22.27c0.1,0,0.21-0.04,0.28-0.13c0.12-0.15,0.09-0.37-0.06-0.49c-0.15-0.12-0.37-0.1-0.49,0.06   c-0.12,0.15-0.1,0.37,0.06,0.49C71.96,22.25,72.04,22.27,72.11,22.27z"></path><path d="M80.1,31.1c0.07,0,0.13-0.02,0.19-0.05c0.17-0.11,0.21-0.32,0.11-0.49c-0.11-0.16-0.32-0.21-0.48-0.1   c-0.17,0.1-0.22,0.32-0.11,0.48C79.88,31.04,79.99,31.1,80.1,31.1z"></path><path d="M74.38,24.22c0.1,0,0.19-0.04,0.26-0.11c0.13-0.14,0.12-0.36-0.02-0.49c-0.14-0.14-0.36-0.13-0.49,0.01   s-0.13,0.36,0.01,0.5C74.21,24.19,74.3,24.22,74.38,24.22z"></path><path d="M78.39,28.65c0.08,0,0.15-0.02,0.21-0.07c0.16-0.12,0.19-0.34,0.07-0.49c-0.12-0.16-0.34-0.19-0.49-0.07   c-0.15,0.12-0.18,0.34-0.07,0.49C78.18,28.6,78.29,28.65,78.39,28.65z"></path><path d="M85.31,47.65c0.01,0.19,0.16,0.33,0.35,0.33c0,0,0.01,0,0.02,0c0.19-0.02,0.34-0.18,0.33-0.37   c-0.02-0.2-0.18-0.34-0.38-0.33C85.44,47.29,85.3,47.46,85.31,47.65z"></path><path d="M81.61,33.69c0.05,0,0.11-0.02,0.16-0.04c0.17-0.09,0.24-0.3,0.15-0.48c-0.09-0.17-0.31-0.23-0.48-0.14   s-0.23,0.3-0.14,0.47C81.36,33.62,81.48,33.69,81.61,33.69z"></path><path d="M41.02,15.76c0.03,0,0.06,0,0.09-0.01c0.19-0.05,0.3-0.24,0.25-0.42c-0.05-0.19-0.24-0.3-0.43-0.25   c-0.18,0.04-0.3,0.23-0.25,0.42C40.72,15.66,40.87,15.76,41.02,15.76z"></path><path d="M84.76,42.07c0.03,0,0.05,0,0.08-0.01c0.19-0.05,0.3-0.24,0.26-0.42c-0.05-0.19-0.24-0.31-0.42-0.26   c-0.19,0.04-0.31,0.23-0.26,0.42C84.46,41.96,84.6,42.07,84.76,42.07z"></path><path d="M84.99,44.71c0.02,0.17,0.17,0.3,0.34,0.3c0.02,0,0.04-0.01,0.05-0.01c0.2-0.03,0.33-0.21,0.3-0.4   c-0.03-0.19-0.21-0.32-0.4-0.29C85.09,44.34,84.96,44.52,84.99,44.71z"></path><path d="M46.91,14.75c0.01,0,0.02,0,0.03,0c0.2-0.02,0.34-0.19,0.32-0.38c-0.02-0.2-0.19-0.34-0.38-0.32   c-0.19,0.01-0.33,0.18-0.32,0.38C46.58,14.61,46.73,14.75,46.91,14.75z"></path><path d="M52.86,14.73c0.01,0,0.02,0,0.03,0c0.18,0,0.33-0.14,0.35-0.33c0.01-0.19-0.13-0.36-0.32-0.37   c-0.2-0.02-0.36,0.13-0.38,0.32C52.52,14.54,52.67,14.71,52.86,14.73z"></path><path d="M49.9,14.61c0.19,0,0.35-0.16,0.35-0.35s-0.16-0.35-0.35-0.35s-0.35,0.16-0.35,0.35S49.71,14.61,49.9,14.61z"></path><path d="M43.95,15.13c0.02,0,0.04,0,0.06,0c0.19-0.04,0.31-0.22,0.28-0.41c-0.03-0.19-0.21-0.32-0.4-0.28   c-0.19,0.03-0.32,0.21-0.29,0.4C43.63,15.01,43.78,15.13,43.95,15.13z"></path><path d="M61.54,16.55c0.04,0.02,0.07,0.02,0.11,0.02c0.15,0,0.28-0.09,0.33-0.23c0.07-0.19-0.03-0.38-0.21-0.45   c-0.19-0.06-0.39,0.04-0.45,0.22S61.35,16.49,61.54,16.55z"></path><path d="M67.12,18.99c0.12,0,0.25-0.07,0.31-0.19c0.09-0.17,0.03-0.38-0.14-0.47c-0.17-0.09-0.39-0.03-0.48,0.14   c-0.09,0.17-0.03,0.38,0.14,0.47C67.01,18.97,67.06,18.99,67.12,18.99z"></path><path d="M55.8,15.09c0.02,0,0.04,0.01,0.06,0.01c0.17,0,0.32-0.13,0.34-0.3c0.04-0.19-0.09-0.37-0.28-0.4   c-0.19-0.03-0.38,0.1-0.41,0.29C55.48,14.88,55.61,15.06,55.8,15.09z"></path><path d="M64.3,17.64c0.04,0.02,0.09,0.03,0.14,0.03c0.13,0,0.26-0.08,0.32-0.21c0.07-0.18-0.01-0.38-0.18-0.46   c-0.18-0.08-0.39,0-0.46,0.18C64.04,17.35,64.12,17.56,64.3,17.64z"></path><path d="M58.7,15.7c0.03,0.01,0.06,0.01,0.09,0.01c0.15,0,0.29-0.1,0.33-0.26c0.05-0.19-0.06-0.38-0.25-0.43   c-0.18-0.05-0.37,0.07-0.42,0.26C58.4,15.46,58.51,15.65,58.7,15.7z"></path><path d="M57.5,84.569c0,0.011,0,0.011,0,0.011c-0.18,0.029-0.3,0.22-0.26,0.41c0.03,0.159,0.18,0.279,0.34,0.279   c0.02,0,0.05,0,0.08-0.01h-0.01c0.19-0.04,0.31-0.229,0.27-0.42S57.69,84.53,57.5,84.569z"></path><path d="M73.23,76.689c-0.15,0.13-0.16,0.351-0.03,0.5c0.07,0.08,0.16,0.12,0.26,0.12c0.08,0,0.16-0.029,0.23-0.09   c0.15-0.13,0.16-0.35,0.03-0.49C73.6,76.58,73.38,76.56,73.23,76.689z"></path><path d="M75.38,74.66c-0.13,0.14-0.13,0.359,0.01,0.489c0.07,0.07,0.15,0.101,0.24,0.101s0.18-0.03,0.25-0.11v0.01   c0.14-0.14,0.13-0.369,0-0.5C75.74,74.51,75.52,74.52,75.38,74.66z"></path><path d="M77.35,72.45c-0.12,0.149-0.1,0.369,0.05,0.489c0.07,0.061,0.14,0.08,0.22,0.08c0.1,0,0.21-0.04,0.28-0.13   c0.12-0.14,0.1-0.37-0.05-0.49C77.7,72.28,77.48,72.3,77.35,72.45z"></path><path d="M79.13,70.08c-0.11,0.16-0.07,0.38,0.09,0.489c0.06,0.04,0.13,0.061,0.2,0.061c0.11,0,0.22-0.05,0.29-0.15   c0.11-0.16,0.07-0.38-0.09-0.489C79.46,69.88,79.24,69.92,79.13,70.08z"></path><path d="M80.71,67.569c-0.1,0.171-0.04,0.391,0.13,0.48c0.05,0.03,0.11,0.05,0.17,0.05c0.12,0,0.24-0.069,0.31-0.18   c0.09-0.17,0.03-0.38-0.13-0.48C81.02,67.35,80.8,67.41,80.71,67.569z"></path><path d="M70.92,78.54c-0.16,0.109-0.2,0.33-0.08,0.49c0.07,0.09,0.17,0.14,0.28,0.14c0.07,0,0.15-0.021,0.21-0.07   c0.15-0.109,0.19-0.33,0.07-0.49C71.29,78.46,71.07,78.43,70.92,78.54z"></path><path d="M65.86,81.62c-0.17,0.09-0.24,0.3-0.15,0.47c0.06,0.12,0.18,0.19,0.31,0.19c0.06,0,0.11-0.011,0.16-0.03   c0.17-0.09,0.24-0.3,0.15-0.47C66.25,81.6,66.04,81.53,65.86,81.62z"></path><path d="M68.45,80.189c-0.16,0.101-0.21,0.311-0.11,0.48c0.06,0.1,0.18,0.16,0.3,0.16c0.06,0,0.12-0.011,0.18-0.05   c0.16-0.101,0.22-0.311,0.11-0.48C68.83,80.14,68.62,80.08,68.45,80.189z"></path><path d="M85.59,53.26c-0.19-0.02-0.36,0.12-0.38,0.31c-0.02,0.19,0.12,0.36,0.31,0.381c0.01,0.01,0.02,0.01,0.03,0.01   c0.18,0,0.34-0.141,0.35-0.32C85.92,53.45,85.78,53.28,85.59,53.26z"></path><path d="M85.19,56.22c-0.19-0.03-0.37,0.09-0.41,0.28c-0.03,0.189,0.09,0.37,0.28,0.41c0.02,0,0.04,0.01,0.07,0.01   c0.16,0,0.31-0.12,0.34-0.29C85.51,56.439,85.38,56.26,85.19,56.22z"></path><path d="M82.07,64.939c-0.08,0.181-0.01,0.391,0.17,0.471c0.05,0.02,0.09,0.029,0.14,0.029c0.14,0,0.26-0.069,0.32-0.199   c0.08-0.181,0.01-0.381-0.17-0.471C82.36,64.689,82.15,64.77,82.07,64.939z"></path><path d="M84.55,59.14c-0.19-0.05-0.38,0.061-0.44,0.25c-0.05,0.18,0.06,0.38,0.25,0.43c0.03,0.011,0.06,0.011,0.09,0.011   c0.15,0,0.3-0.101,0.34-0.261C84.84,59.39,84.73,59.189,84.55,59.14z"></path><path d="M85.74,50.27c-0.19-0.01-0.35,0.15-0.36,0.34c0,0.2,0.15,0.36,0.35,0.36c0.19,0,0.35-0.15,0.35-0.34   C86.09,50.43,85.93,50.27,85.74,50.27z"></path><path d="M63.16,82.84c-0.18,0.07-0.26,0.27-0.19,0.45c0.05,0.14,0.19,0.22,0.33,0.22c0.04,0,0.08-0.01,0.12-0.02   c0.18-0.08,0.27-0.28,0.2-0.46C63.55,82.85,63.34,82.77,63.16,82.84z"></path><path d="M83.21,35.9c-0.07-0.17-0.28-0.26-0.46-0.18c-0.18,0.07-0.26,0.28-0.18,0.46c0.05,0.13,0.18,0.21,0.32,0.21   c0.05,0,0.09-0.01,0.14-0.03C83.2,36.29,83.29,36.08,83.21,35.9z"></path><path d="M84.28,38.73h-0.01c-0.06-0.18-0.25-0.28-0.44-0.22c-0.18,0.06-0.28,0.26-0.22,0.44c0.05,0.15,0.18,0.24,0.33,0.24   c0.04,0,0.08,0,0.11-0.02C84.23,39.11,84.34,38.92,84.28,38.73z"></path><path d="M83.66,62c-0.19-0.07-0.39,0.03-0.45,0.21c-0.07,0.18,0.02,0.38,0.2,0.45c0.04,0.01,0.08,0.02,0.12,0.02   c0.15,0,0.28-0.09,0.33-0.229C83.93,62.27,83.84,62.069,83.66,62z"></path><path d="M45.72,85.13c-0.19-0.03-0.37,0.11-0.39,0.3c-0.02,0.19,0.11,0.37,0.3,0.39c0.02,0,0.03,0.011,0.05,0.011   c0.17,0,0.32-0.13,0.34-0.311C46.05,85.319,45.91,85.149,45.72,85.13z"></path><path d="M60.37,83.819c-0.19,0.061-0.29,0.261-0.23,0.44c0.04,0.15,0.18,0.25,0.33,0.25c0.04,0,0.07-0.01,0.11-0.02   c0.18-0.051,0.28-0.25,0.23-0.431C60.75,83.87,60.55,83.77,60.37,83.819z"></path><path d="M31.81,80.35c-0.17-0.1-0.38-0.05-0.48,0.12c-0.1,0.16-0.05,0.38,0.12,0.48C31.5,80.979,31.57,81,31.63,81   c0.12,0,0.23-0.061,0.3-0.17C32.03,80.66,31.97,80.45,31.81,80.35z"></path><path d="M28.84,78.8c-0.11,0.16-0.07,0.38,0.08,0.49c0.06,0.05,0.14,0.069,0.21,0.069c0.11,0,0.21-0.05,0.28-0.149   c0.12-0.16,0.08-0.38-0.08-0.49C29.17,78.609,28.96,78.649,28.84,78.8z"></path><path d="M34.41,81.76c-0.17-0.08-0.38-0.01-0.47,0.16c-0.08,0.17-0.01,0.38,0.16,0.47c0.05,0.021,0.1,0.03,0.16,0.03   c0.13,0,0.25-0.07,0.31-0.19C34.66,82.05,34.58,81.84,34.41,81.76z"></path><path d="M24.34,74.88c-0.14,0.13-0.14,0.35,0,0.49c0.06,0.069,0.15,0.109,0.24,0.109c0.09,0,0.18-0.04,0.25-0.109   c0.14-0.13,0.14-0.351,0-0.49C24.7,74.74,24.48,74.74,24.34,74.88z"></path><path d="M20.56,70.25c-0.16,0.109-0.2,0.33-0.09,0.49c0.07,0.09,0.18,0.149,0.29,0.149c0.07,0,0.14-0.02,0.2-0.07   c0.16-0.109,0.19-0.329,0.08-0.479C20.93,70.18,20.72,70.14,20.56,70.25z"></path><path d="M18.97,67.72c-0.17,0.09-0.22,0.311-0.13,0.47c0.07,0.11,0.18,0.181,0.3,0.181c0.06,0,0.13-0.021,0.18-0.051   c0.17-0.1,0.22-0.31,0.13-0.479C19.35,67.67,19.14,67.62,18.97,67.72z"></path><path d="M22.35,72.64c-0.15,0.13-0.17,0.351-0.04,0.5H22.3c0.07,0.08,0.17,0.12,0.27,0.12c0.08,0,0.16-0.03,0.23-0.08   c0.15-0.12,0.17-0.34,0.04-0.49C22.72,72.54,22.5,72.52,22.35,72.64z"></path><path d="M37.12,82.95c-0.18-0.07-0.38,0.02-0.45,0.199c-0.07,0.181,0.02,0.381,0.2,0.45c0.04,0.021,0.08,0.03,0.13,0.03   c0.14,0,0.27-0.09,0.32-0.22C37.39,83.229,37.3,83.02,37.12,82.95z"></path><path d="M26.51,76.93c-0.13,0.15-0.11,0.37,0.04,0.5c0.06,0.05,0.14,0.08,0.22,0.08c0.1,0,0.2-0.04,0.27-0.12   c0.13-0.149,0.11-0.37-0.04-0.49C26.85,76.77,26.63,76.79,26.51,76.93z"></path><path d="M17.6,65.06c-0.18,0.08-0.25,0.29-0.17,0.46c0.06,0.13,0.19,0.2,0.32,0.2c0.05,0,0.1-0.01,0.15-0.03   c0.17-0.09,0.25-0.29,0.16-0.47C17.98,65.05,17.77,64.97,17.6,65.06z"></path><path d="M42.8,84.64c-0.19-0.04-0.38,0.09-0.42,0.271c-0.04,0.189,0.08,0.38,0.27,0.42c0.03,0,0.05,0.01,0.07,0.01   c0.17,0,0.31-0.12,0.35-0.28C43.11,84.87,42.99,84.68,42.8,84.64z"></path><path d="M48.67,85.359c-0.19-0.01-0.35,0.15-0.36,0.341c-0.01,0.189,0.14,0.35,0.34,0.359h0.01c0.19,0,0.34-0.149,0.35-0.34   C49.02,85.53,48.87,85.37,48.67,85.359z"></path><path d="M39.93,83.92c-0.19-0.061-0.38,0.05-0.44,0.229c-0.06,0.19,0.05,0.381,0.24,0.44c0.03,0.01,0.06,0.01,0.09,0.01   c0.15,0,0.29-0.1,0.34-0.25C40.22,84.17,40.11,83.97,39.93,83.92z"></path><path d="M54.59,85.08c0,0.01,0,0.01,0,0.01c-0.19,0.02-0.33,0.19-0.3,0.39c0.02,0.17,0.17,0.301,0.34,0.301c0.02,0,0.03,0,0.05,0   c0.19-0.03,0.32-0.2,0.3-0.391C54.95,85.189,54.78,85.06,54.59,85.08z"></path><path d="M51.64,85.35c-0.2,0.01-0.35,0.17-0.34,0.36c0.01,0.189,0.16,0.34,0.35,0.34c0.01,0,0.01,0,0.02,0   c0.19-0.01,0.34-0.18,0.33-0.37C51.99,85.49,51.83,85.34,51.64,85.35z"></path><path d="M80.098,37.533c-3.33-8.04-9.591-14.301-17.631-17.631c-8.041-3.331-16.896-3.331-24.934,0   c-8.04,3.331-14.301,9.592-17.631,17.632c-6.875,16.596,1.035,35.69,17.631,42.565c4.02,1.665,8.244,2.498,12.467,2.498   s8.447-0.833,12.467-2.498c8.04-3.33,14.301-9.592,17.631-17.632C83.428,54.428,83.428,45.572,80.098,37.533z M79.174,62.084   c-3.228,7.793-9.297,13.862-17.09,17.091c-7.793,3.229-16.376,3.229-24.169,0c-16.087-6.664-23.753-25.173-17.09-41.259   c3.228-7.793,9.297-13.863,17.09-17.09c3.896-1.614,7.99-2.421,12.084-2.421c4.094,0,8.188,0.807,12.084,2.421   c7.793,3.228,13.862,9.297,17.09,17.09C82.402,45.708,82.402,54.291,79.174,62.084z"></path><path d="M47.318,29.604l-1.373,4.223c-0.041,0.124,0.004,0.259,0.109,0.335c0.105,0.076,0.247,0.076,0.353,0L50,31.552l3.593,2.611   c0.053,0.038,0.114,0.057,0.176,0.057s0.124-0.019,0.176-0.057c0.105-0.076,0.149-0.212,0.109-0.335l-1.373-4.223l3.593-2.611   c0.105-0.076,0.149-0.212,0.109-0.335c-0.04-0.124-0.155-0.207-0.285-0.207h-4.441l-1.373-4.224c-0.08-0.247-0.49-0.247-0.57,0   l-1.373,4.224h-4.441c-0.13,0-0.245,0.083-0.285,0.207c-0.041,0.124,0.004,0.259,0.109,0.335L47.318,29.604z M48.56,27.051   c0.13,0,0.245-0.083,0.285-0.207L50,23.291l1.155,3.553c0.04,0.124,0.155,0.207,0.285,0.207h3.735l-3.022,2.196   c-0.105,0.076-0.149,0.212-0.109,0.335l1.154,3.552l-3.022-2.196c-0.053-0.038-0.114-0.057-0.176-0.057s-0.124,0.019-0.176,0.057   l-3.022,2.196l1.154-3.552c0.041-0.124-0.004-0.259-0.109-0.335l-3.022-2.196H48.56z"></path><rect x="49.7" y="65.546" width="0.6" height="12.178"></rect><rect x="52.165" y="69.692" transform="matrix(-0.3827 -0.9239 0.9239 -0.3827 15.8823 150.5966)" width="12.179" height="0.601"></rect><rect x="41.445" y="63.903" transform="matrix(-0.9235 -0.3837 0.3837 -0.9235 53.4406 150.6447)" width="0.601" height="12.179"></rect><rect x="63.212" y="66.694" transform="matrix(-0.7071 -0.7071 0.7071 -0.7071 66.8876 161.6912)" width="7.435" height="0.599"></rect><rect x="32.781" y="63.252" transform="matrix(-0.7071 -0.7071 0.7071 -0.7071 9.1085 137.7397)" width="0.599" height="7.463"></rect></g></svg>