<svg height='100px' width='100px'  fill="#000000" xmlns="http://www.w3.org/2000/svg" viewBox="0 0 100 100" x="0px" y="0px"><g><path d="M52.86641,79.46289l.498.04688-.09424.99609-.49756-.04688c-.958-.09082-1.93018-.13769-2.89014-.14062-.894-.001-1.77685.03125-2.668.10254l-.498.04-.08057-.9961.49853-.04c.919-.07421,1.84668-.10839,2.75147-.10644C50.87569,79.32129,51.87862,79.37012,52.86641,79.46289Zm-9.3208-15.15723a2.864,2.864,0,0,0,1.71582.5459,3.72864,3.72864,0,0,0,2.1626-.73187,4.42378,4.42378,0,0,0,2.68847.93011h.0542a4.41215,4.41215,0,0,0,2.48816-.812l-.08728.12055a3.72852,3.72852,0,0,0,2.1709.73633,2.862,2.862,0,0,0,1.71582-.5459,2.98536,2.98536,0,0,0,1.09717-1.78613l-.97852-.20508a1.98517,1.98517,0,0,1-.71289,1.18652,2.28441,2.28441,0,0,1-2.5401-.09228,4.481,4.481,0,0,0,.89948-1.37256l-.92481-.38086A3.44834,3.44834,0,0,1,50.154,64.0498a3.51383,3.51383,0,0,1-3.25782-2.21875l-.93261.36133a4.45258,4.45258,0,0,0,.71533,1.21619,2.28544,2.28544,0,0,1-2.53858.09241,1.99221,1.99221,0,0,1-.71289-1.1875l-.97851.207A2.99494,2.99494,0,0,0,43.54561,64.30566ZM37.133,71.16113l.37012-.33691-.67285-.73926-.37012.33594a2.388,2.388,0,0,0-.55322.73926A3.2572,3.2572,0,0,0,35.7126,72.751a5.61376,5.61376,0,0,0,.144,1.04394l.457,2.37207.98194-.1875-.458-2.38086a4.71171,4.71171,0,0,1-.125-.875,2.4888,2.4888,0,0,1,.09717-1.13379A1.39146,1.39146,0,0,1,37.133,71.16113Zm26.40723-.74023-.37012-.33594-.67285.73926.37012.33691a1.3823,1.3823,0,0,1,.32275.42871,2.4797,2.4797,0,0,1,.09766,1.13379,4.71256,4.71256,0,0,1-.125.875l-.458,2.38086.98193.1875.457-2.37207A5.61381,5.61381,0,0,0,64.2878,72.751a3.2512,3.2512,0,0,0-.19483-1.59082A2.37876,2.37876,0,0,0,63.54024,70.4209ZM24.04658,60.92969c-.17236-.1377-.28515-.68262-.48388-2.33008-.13135-1.08789-.15772-1.502-.04444-1.65723a.36718.36718,0,0,1,.18067-.12988l.56738-.206-.41113-1.13379-.56738.20507a1.55776,1.55776,0,0,0-.74512.55469c-.396.543-.34082,1.16211-.17822,2.51172.24072,1.99414.36572,2.67676.92822,3.12793a1.64537,1.64537,0,0,0,.67822.32227l.58936.12793.25634-1.17969-.58984-.12793A.43287.43287,0,0,1,24.04658,60.92969Zm52.58838-5.252-.56738-.20507-.41113,1.13379.56738.206a.36766.36766,0,0,1,.18164.13086c.11231.1543.08594.56836-.04541,1.65625-.19873,1.64746-.31152,2.19238-.4834,2.3291a.42737.42737,0,0,1-.18066.08594l-.58985.12793.25635,1.17969.58936-.12793a1.6332,1.6332,0,0,0,.6792-.32325c.56152-.45019.68652-1.13281.92724-3.127.1626-1.34961.21778-1.96875-.17724-2.51172A1.56116,1.56116,0,0,0,76.635,55.67773Zm4.77881-7.92187c-.06006.584-.062,1.17969-.06445,1.80957a18.81389,18.81389,0,0,1-.07813,1.99219c-.12353,1.1289-.13574,1.50683-.15283,2.03027-.01855.57324-.042,1.28809-.21924,3.25879-.30761,3.415-.67431,6.44141-2.04687,8.88867a3.93889,3.93889,0,0,1-3.69483,2.18653,6.00538,6.00538,0,0,1-1.1004-.10718c-1.05334,3.85992-2.19043,7.96783-2.63446,9.48218a15.12444,15.12444,0,0,1-1.82715,4.10644c-.063.09863-.1333.2041-.21679.32227a15.93447,15.93447,0,0,1-3.22413,3.34863c-.812.64648-3.79931,2.99316-8.13574,6.0498l-.23968.1684c-.10779.11175-.22028.22272-.3404.32965-1.33642,1.18945-3.58154,1.77051-6.85107,1.77051-.19434,0-.3916-.002-.59326-.00586-3.584.06348-6.01709-.50488-7.43262-1.76465a6.48605,6.48605,0,0,1-.4917-.49292L42.0627,91.124c-4.20606-2.96484-7.09082-5.21875-8.13623-6.0498a15.95865,15.95865,0,0,1-3.22364-3.34863c-.083-.11719-.15332-.22364-.21728-.32325a15.11862,15.11862,0,0,1-1.82617-4.10546C28.2162,75.788,27.07631,71.67,26.02058,67.801a6.07708,6.07708,0,0,1-1.17712.12092,3.939,3.939,0,0,1-3.69531-2.18555c-1.37256-2.44824-1.73926-5.47461-2.04688-8.88965-.17724-1.9707-.20068-2.68555-.21924-3.25879-.01709-.52344-.02929-.90137-.15283-2.03027a18.81386,18.81386,0,0,1-.07812-1.99219c-.00244-.62988-.0044-1.22559-.06592-1.82129-.02442-.19434-.229-2.03027.55029-2.89844a1.71125,1.71125,0,0,1,1.09229-.64294,30.28518,30.28518,0,0,1-.65577-3.1969s-.06787-.41211-.11376-.84961c-.00538-.0498-.53223-5.17969-.44727-7.82715.21094-6.56933,3.48975-12.668,4.70264-14.0039l-.06934-.04981a26.09,26.09,0,0,1,10.57227-8.292,35.41209,35.41209,0,0,1,15.59082-3.376h.37939a35.41975,35.41975,0,0,1,15.59717,3.376,26.08988,26.08988,0,0,1,10.57226,8.292l-.06933.04981c1.21289,1.33593,4.4917,7.43457,4.70264,14.0039.085,2.64746-.4419,7.77735-.44727,7.82813-.04639.44043-.11523.85742-.11523.85742a30.17657,30.17657,0,0,1-.65418,3.18786,1.70486,1.70486,0,0,1,1.09168.64222C81.64424,45.71387,81.43965,47.5498,81.41377,47.75586ZM20.51094,40.044c.043.4082.10645.792.10742.79785a30.098,30.098,0,0,0,.7207,3.42871c.28809,1.08008.48584,1.66894.71436,2.35058.18164.54.37939,1.12989.65088,2.04786.28809.9746.55469,1.96386.79248,2.94531l1.91406,1.12207c.31873-1.55017.56647-3.10474.74542-4.65442L23.59883,46.082l.61572-.78808L26.26839,46.9c.10162-1.09912.18017-2.1958.20983-3.28381a37.31665,37.31665,0,0,0-.188-4.73242c-.124-1.457-.26514-3.10742-.32715-5.74317-.12256-5.18554-.18994-8.042.86621-9.98437a12.62949,12.62949,0,0,1,9.2793-6.043,8.92838,8.92838,0,0,1,2.99121.1416c.95166.14844,2.25537.35157,4.51611.57813,2.44629.24707,4.38037.44238,6.38428.48242,2.0039-.04,3.938-.23535,6.38379-.48145,2.26123-.22753,3.56494-.43066,4.5166-.5791A12.51071,12.51071,0,0,1,62.8669,17.041a8.00315,8.00315,0,0,1,1.0249.07226,12.62785,12.62785,0,0,1,9.27881,6.043c1.05664,1.94238.98926,4.79883.8667,9.98437-.062,2.63575-.20313,4.28614-.32715,5.74317a37.31653,37.31653,0,0,0-.188,4.73242c.03064,1.12427.11279,2.25763.22028,3.39362l2.04339-1.59772.61572.78809-2.54583,1.99053c.178,1.51355.42254,3.03174.73382,4.5456l1.91407-1.12207c.23779-.98145.50439-1.97071.79248-2.94531.27148-.918.46923-1.50782.65087-2.04786.22852-.68164.42627-1.2705.71436-2.35058a30.00153,30.00153,0,0,0,.71924-3.4209c.00244-.01367.06592-.39746.10889-.80469.00537-.0498.52441-5.10351.4414-7.68262a27.15775,27.15775,0,0,0-4.43408-13.46777,24.79174,24.79174,0,0,0-10.17578-7.958A34.4041,34.4041,0,0,0,50.18037,7.666h-.3667a34.39642,34.39642,0,0,0-15.13427,3.2705,24.79314,24.79314,0,0,0-10.17481,7.95606A27.164,27.164,0,0,0,20.06953,32.3623C19.98653,34.94141,20.50557,39.99512,20.51094,40.044Zm50.95514,8.74566,1.29083-1.00928c-.1488-1.3847-.256-2.766-.29333-4.13482A38.18,38.18,0,0,1,72.655,38.794c.12305-1.44141.26221-3.0752.32373-5.67872.127-5.37988.146-7.82714-.73828-9.45312a11.66728,11.66728,0,0,0-8.48242-5.498,7.9227,7.9227,0,0,0-2.69434.13672c-.90966.14258-2.28369.35645-4.57373.58594-2.47119.25-4.42529.44726-6.47314.48828h-.023c-2.05176-.04-4.0083-.23828-6.48389-.48828-2.28955-.22949-3.66357-.44336-4.57324-.58594a7.92023,7.92023,0,0,0-2.69433-.13672,11.66905,11.66905,0,0,0-8.48292,5.498c-.88378,1.626-.86474,4.07324-.73779,9.45312.06153,2.60352.20069,4.23731.32373,5.67872a38.17806,38.17806,0,0,1,.19141,4.85156c-.03638,1.33276-.14038,2.67755-.28241,4.02557L28.67,48.778a6.64064,6.64064,0,0,1,1.18591-3.061,5.86033,5.86033,0,0,1,2.96234-1.86255c1.60944-.56964,3.342-.65582,6.74133-.80493a18.34752,18.34752,0,0,1,3.72284.10065,9.36328,9.36328,0,0,1,2.35126.6018h8.67883a8.73184,8.73184,0,0,1,2.52906-.68438,18.34752,18.34752,0,0,1,3.72284-.10065c3.39935.14911,5.13189.23529,6.74133.80493a5.86033,5.86033,0,0,1,2.96234,1.86255,6.656,6.656,0,0,1,1.18756,3.071C71.46046,48.73444,71.46162,48.76074,71.46608,48.78961ZM52.99025,44.78516H47.05574a3.913,3.913,0,0,1,.88318,1.50451,2.39034,2.39034,0,0,1,.79858-.14612h2.8833a2.399,2.399,0,0,1,.56055.07209A3.90731,3.90731,0,0,1,52.99025,44.78516Zm27.07684.77539c-.25293-.2818-.37561-.31818-.57843-.30774-.19787.69049-.35895,1.17163-.53778,1.7052-.17822.53027-.37256,1.11035-.63916,2.01172-.30469,1.02929-.584,2.07519-.83057,3.11035l-.05224.21972-3.56543,2.08985-.15625-.71192c-.34552-1.57367-.61481-3.15368-.81921-4.73034l-1.31995,1.032c.007.34931-.00372.64917-.01282.86682a12.46718,12.46718,0,0,1-.19916,1.74262,9.51875,9.51875,0,0,1-.89618,2.88769,7.13074,7.13074,0,0,1-3.0371,2.88776,7.587,7.587,0,0,1-4.48206.72839,9.17413,9.17413,0,0,1-2.477-.832,13.10834,13.10834,0,0,1-2.63116-1.56067,14.24391,14.24391,0,0,1-2.80213-3.06775,16.573,16.573,0,0,1-1.8111-2.81726,8.56689,8.56689,0,0,1-1.18548-3.56854,1.36908,1.36908,0,0,0-.41309-.06976H48.7375a1.3706,1.3706,0,0,0-.64679.1673,8.61749,8.61749,0,0,1-1.18609,3.55358,16.573,16.573,0,0,1-1.8111,2.81726,14.24386,14.24386,0,0,1-2.80212,3.06775,13.11083,13.11083,0,0,1-2.63117,1.56067,9.174,9.174,0,0,1-2.477.832,7.58721,7.58721,0,0,1-4.48211-.72839,7.13066,7.13066,0,0,1-3.03705-2.88776,9.51707,9.51707,0,0,1-.89618-2.88769,12.45775,12.45775,0,0,1-.19916-1.74262c-.00995-.23822-.021-.57483-.00934-.96765L27.128,48.8418c-.20569,1.61169-.48157,3.22717-.83484,4.83593l-.15625.71192L22.57149,52.2998l-.05225-.21972c-.24658-1.03516-.52588-2.08106-.83057-3.11035-.2666-.90137-.46093-1.48145-.63916-2.01172-.17877-.53327-.33966-1.014-.53741-1.70386-.20252-.00861-.32507.02472-.57929.30737a3.35826,3.35826,0,0,0-.28271,2.06153,19.38435,19.38435,0,0,1,.07275,1.93847,17.77405,17.77405,0,0,0,.07178,1.87891c.12793,1.16992.1416,1.58594.15869,2.1123.01807.56055.041,1.25782.21533,3.19825.29639,3.29.645,6.19726,1.91407,8.46093a3.13791,3.13791,0,0,0,.99463,1.15332,3.61794,3.61794,0,0,0,2.66052.39838c-.17847-.65594-.35272-1.29809-.518-1.90912l-.13086-.4834.96534-.26074.13037.48242c1.208,4.46582,2.87646,10.52344,3.43408,12.42285a14.17841,14.17841,0,0,0,1.708,3.84668c.05664.08887.11816.18165.19238.28516A14.925,14.925,0,0,0,34.549,84.291c.69622.55365,2.99871,2.36193,6.35864,4.78076a4.34616,4.34616,0,0,1-.1062-.86768v-.52344h1.04687v.52344a4.26406,4.26406,0,0,0,.23926,1.23438,8.0288,8.0288,0,0,0,.822,1.058l.138.09729-.01959.02777c.07379.07434.15015.14813.23.2193,1.20947,1.07617,3.416,1.56738,6.72656,1.499,3.34375.05957,5.54834-.42382,6.75782-1.499a6.95359,6.95359,0,0,0,1.19921-1.459,4.67061,4.67061,0,0,0,.21045-1.17774v-.52344h1.04688v.52344a4.56873,4.56873,0,0,1-.11627.93372c3.41986-2.45886,5.74963-4.28949,6.44928-4.8468a14.94407,14.94407,0,0,0,3.02978-3.14161c.07422-.10449.13574-.19824.19238-.28613a14.21231,14.21231,0,0,0,1.709-3.84766c.44165-1.50561,1.57178-5.5885,2.6214-9.43457l-.015-.0039L73.341,66.54l.02539.00665c.1828-.67157.36133-1.32922.53027-1.95392l.13037-.48242.96534.26074-.13086.4834c-.16633.615-.34192,1.26184-.52173,1.92267a3.56972,3.56972,0,0,0,2.58276-.41193,3.12992,3.12992,0,0,0,.99512-1.15429c1.269-2.2627,1.61767-5.16992,1.91406-8.46.17432-1.94043.19727-2.6377.21533-3.19825.01709-.52636.03076-.94238.15869-2.1123a17.76871,17.76871,0,0,0,.07178-1.87891c.00244-.6289.0044-1.27929.07129-1.92675A3.373,3.373,0,0,0,80.06709,45.56055ZM57.71631,73.678,56.397,73.09823l-.30224-.02667a7.91049,7.91049,0,0,0-.96192-.02734,9.02539,9.02539,0,0,0-1.92529.28906c-.37256.085-.7832.17774-1.29346.26856a11.40745,11.40745,0,0,1-1.87793.24218c-.05371.001-.10742.001-.16015.001a14.24219,14.24219,0,0,1-3.20362-.48437l-.28174-.06348a8.03032,8.03032,0,0,0-1.70019-.25293,8.27164,8.27164,0,0,0-.9624.02734l-.29444.026-1.18359.557-.42627-.9043,1.30518-.61425.01861.03942-.00494-.056.49853-.04394a9.499,9.499,0,0,1,1.082-.03125,9.10662,9.10662,0,0,1,1.88868.27734l.27636.0625a12.64488,12.64488,0,0,0,3.12842.46,10.50789,10.50789,0,0,0,1.72217-.22656c.49219-.08789.88818-.17773,1.24707-.25879a10.003,10.003,0,0,1,2.1167-.31445,9.08472,9.08472,0,0,1,1.08008.03125l.498.04394-.00091.01044,1.43841.63214Z"></path></g></svg>