<svg height='100px' width='100px'  fill="#000000" xmlns="http://www.w3.org/2000/svg" xmlns:xlink="http://www.w3.org/1999/xlink" version="1.1" x="0px" y="0px" viewBox="0 0 64 64" style="enable-background:new 0 0 64 64;" xml:space="preserve"><path d="M43.068,32.064L42.06,35.92c-0.08,0.306-0.299,0.556-0.592,0.674l-8.393,3.399c-0.122,0.049-0.249,0.073-0.375,0.073  c-0.244,0-0.483-0.089-0.671-0.259c-0.284-0.257-0.396-0.654-0.289-1.021l2.647-9.055c0.09-0.307,0.32-0.552,0.62-0.66l3.054-1.103  l7.724-8.599c0.401-0.447,0.827-0.87,1.25-1.293L47.04,14C47.29,9.86,49.05,5.95,52,3H16.05c-4.41,0-7.99,3.58-8,7.99L8.001,49H36  c0-6.492,4.788-11.872,11.015-12.832l0.009-8.509L43.068,32.064z M16,9h27v2H16V9z M12,16h31v2H12V16z M12,23h27v2H12V23z M11,30h21  v2H11V30z M11,37h18v2H11V37z M26,46H11v-2h15V46z M31,43h-2v-2h2V43z"></path><path d="M49,37c-6.627,0-12,5.373-12,12c0,6.627,5.373,12,12,12s12-5.373,12-12C61,42.373,55.627,37,49,37z M47.774,55.633  C47.576,55.875,47.289,56,47,56c-0.219,0-0.44-0.071-0.624-0.219l-5-4l1.249-1.562l4.228,3.383l8.374-10.234l1.548,1.266  L47.774,55.633z"></path><g><path d="M39.272,54.119c0.04,0.076,0.081,0.152,0.123,0.228L39.272,54.119z"></path><path d="M36.051,50H8H3.94c-0.41,0-0.79,0.21-0.99,0.56l-0.01,0.01c-1.56,2.6-1.15,5.94,1,8.09C5.44,60.16,7.48,61,9.6,61H43   l-0.368-0.678C38.954,58.244,36.39,54.431,36.051,50z"></path></g><path d="M47.018,19.461l-7.893,8.787L42.65,31l6.902-7.684c1.188-1.323,2.266-2.741,3.223-4.24l8.713-13.653L48.669,17.752  C48.098,18.301,47.547,18.871,47.018,19.461z"></path><polyline points="38.637,28.824 35.347,30.012 32.699,39.067 41.092,35.667 42.162,31.576 "></polyline><path d="M52.959,3.381c-0.044,0.167-0.125,0.324-0.252,0.451c-1.911,1.912-3.278,4.256-4.029,6.802l5.575,0.045l2.561-2.463  C56.526,5.985,55.004,4.142,52.959,3.381z"></path></svg>