<svg height='100px' width='100px'  fill="#000000" xmlns="http://www.w3.org/2000/svg" xmlns:xlink="http://www.w3.org/1999/xlink" xml:space="preserve" version="1.1" style="shape-rendering:geometricPrecision;text-rendering:geometricPrecision;image-rendering:optimizeQuality;" viewBox="0 0 10000000 10000000" x="0px" y="0px" fill-rule="evenodd" clip-rule="evenodd"><defs><style type="text/css">
   
    .fil0 {fill:#000000}
   
  </style></defs><g><polygon class="fil0" points="695650,6249960 9304350,6249960 9500000,8206490 500000,8206490 "></polygon><polygon class="fil0" points="8619570,8304340 9010870,8304340 9010870,8500000 8619570,8500000 "></polygon><polygon class="fil0" points="989130,8304340 1380430,8304340 1380430,8500000 989130,8500000 "></polygon><path class="fil0" d="M1715080 5760800l0 -538060c0,-269020 220100,-489090 489130,-489090l85240 340870c-49120,32810 -84460,87810 -95290,149100 -9020,50930 -1220,104240 23380,149070l-68400 388110 -434060 0z"></path><path class="fil0" d="M2407220 5142010c53210,9390 87210,68740 75940,132570 -7540,42860 -33490,76760 -65800,91690l-69590 394530 -99300 0 72540 -411550c-25240,-25080 -38070,-65840 -30530,-108630 11270,-63860 63520,-108000 116740,-98610z"></path><polygon class="fil0" points="1764010,5858630 2840090,5858630 2840090,6152140 1666180,6152140 "></polygon><path class="fil0" d="M2693340 4733650c269030,0 489130,220500 489130,489090l0 929400 -244550 0 0 -391340 -490790 0 8610 -48890 16720 -94700 34120 -193550c6600,-5800 12990,-12150 18970,-18850l440 -530 1940 -2220 220 -220 400 -540 630 -750 220 -220 410 -530 620 -750 220 -250 410 -500 620 -780 220 -250 410 -500 590 -760 250 -280 380 -500 600 -780 210 -250 380 -500 590 -790 260 -280 340 -500 590 -780 250 -280 350 -500 590 -790 220 -310 350 -470 590 -810 250 -320 320 -460 560 -820 250 -310 310 -470 570 -820 250 -340 310 -470 560 -780 250 -380 320 -440 530 -810 280 -380 280 -430 530 -820 250 -400 290 -410 530 -850 280 -400 250 -410 530 -850 280 -400 260 -410c16090,-25540 27100,-54380 32430,-84460 5510,-31150 4500,-62920 -2450,-92910l116270 -464990z"></path><path class="fil0" d="M2509930 4855920l61130 -122270 -122270 0 -122310 0 61170 122270 -13430 187760c16120,-1620 32870,-1030 50000,1980 42260,7480 77100,28170 103330,56810l-17620 -246550z"></path><path class="fil0" d="M2448790 3510740c270160,0 489130,246340 489130,550240 0,303900 -218970,550300 -489130,550300 -270160,0 -489130,-246400 -489130,-550300 0,-303900 218970,-550240 489130,-550240z"></path><path class="fil0" d="M8269430 5760800l0 -538060c0,-269020 -220100,-489090 -489130,-489090l-85210 340870c49080,32810 84420,87810 95250,149100 9020,50930 1230,104240 -23380,149070l68400 388110 434070 0z"></path><path class="fil0" d="M7577290 5142010c-53220,9390 -87220,68740 -75950,132570 7550,42860 33500,76760 65800,91690l69590 394530 99300 0 -72530 -411550c25230,-25080 38070,-65840 30520,-108630 -11270,-63860 -63520,-108000 -116730,-98610z"></path><polygon class="fil0" points="8220530,5858630 7144440,5858630 7144440,6152140 7658020,6152140 8318350,6152140 "></polygon><path class="fil0" d="M7291170 4733650c-269030,0 -489140,220500 -489140,489090l0 929400 244590 0 0 -391340 490750 0 -8600 -48890 -16720 -94700 -34120 -193550c-7830,-6860 -15150,-14400 -21980,-22360l-620 -750 -220 -220 -410 -530 -630 -750 -220 -250 -400 -500 -1220 -1530 -630 -760 -250 -280 -1570 -2030 -590 -790 -250 -280 -350 -500 -590 -780 -1160 -1570 -250 -310 -340 -470 -2290 -3190 -560 -820 -250 -340 -850 -1250 -280 -380 -280 -440 -1100 -1620 -530 -820 -280 -400 -250 -410 -2130 -3320 0 30c-16060,-25510 -27140,-54410 -32460,-84490 -5510,-31150 -4480,-62920 2440,-92910l-116260 -464990z"></path><path class="fil0" d="M7474580 4855920l-61140 -122270 122310 0 122270 0 -61170 122270 13430 187760c-16120,-1620 -32870,-1030 -49960,1980 -42260,7480 -77130,28170 -103370,56810l17630 -246550z"></path><path class="fil0" d="M7535750 3510740c-270160,0 -489130,246340 -489130,550240 0,303900 218970,550300 489130,550300 270150,0 489130,-246400 489130,-550300 0,-303900 -218980,-550240 -489130,-550240z"></path><path class="fil0" d="M6229230 4703660l664120 -664090c91280,-91290 91280,-240700 0,-331990l0 0c-91350,-91340 -240760,-91340 -332050,-60l-498080 498120 -497990 -498030 -90 -90c-85120,-85120 -202480,-137990 -331550,-137990l-143460 573900 -32620 -456510 58690 -117390 -117390 0 -117390 0 58690 117390 -32610 456510 -143470 -573900c-130480,0 -248970,53910 -334270,140590l-492980 492980 -498080 -498110c-91290,-91290 -240700,-91290 -332050,60l0 0c-91280,91280 -91280,240700 0,331980l664120 664090 4320 4230 4420 4070 4470 3940 4570 3820 4640 3660 4690 3540 30 30 4760 3380 0 30 4820 3260 30 0 4890 3130 30 30 4940 2970 40 40 4970 2840 70 40 5040 2720 30 0 5100 2600 30 30 5130 2440 70 30 5190 2320 40 30 5220 2190 70 0 5250 2070 70 0 5290 1940 60 0 5350 1780 70 30 5350 1660 60 0 5420 1540 60 0 5450 1410 30 0 5480 1280 60 0 5480 1130 60 0 5510 1000 60 0 5510 870 60 0 5550 720 60 0 5570 600 60 30 5540 440 70 30 5570 310 60 0 5570 220 100 0 5540 60 90 0 5570 -60 70 0 5570 -220 60 0 5570 -310 70 -30 5540 -440 90 -30 5540 -600 60 0 5550 -720 60 0 5510 -870 90 0 5480 -1000 60 0 5480 -1130 60 0 5450 -1280 90 0 5420 -1410 60 0 5420 -1540 60 0 5350 -1660 100 -30 5320 -1780 60 0 5290 -1940 60 0 5260 -2070 70 0 5190 -2190 100 -30 5160 -2320 60 -30 5110 -2440 90 -30 10140 -5320 70 -40 4940 -2840 100 -40 4880 -2970 90 -30c3290,-2040 6450,-4200 9650,-6390l90 -30 4700 -3380c9510,-6980 18620,-14710 27200,-23290l191610 -191610 0 1642630 11490 0 65240 -391490 474170 0 0 -365790c-32000,-39850 -48900,-91040 -48900,-142780 0,-110790 79830,-215380 195810,-215380 115950,0 195810,104590 195810,215380 0,51740 -16910,102960 -48930,142840l0 365730 474130 0 65270 391490 24610 0 0 -1642480 193990 194000c8580,8570 17690,16310 27200,23290l4700 3380 90 30c3170,2220 6420,4350 9680,6380l60 40 4880 2970 100 30 4940 2850 70 30 10140 5320 90 30 5110 2450 60 30 5160 2310 100 40 5190 2190 70 0 5260 2060 60 0 5290 1940 60 0 5350 1790 70 30 5350 1660 60 0 5420 1530 60 0 5450 1410 60 0 5450 1280 60 0 5480 1130 60 0 5510 1000 60 0 5510 880 60 0 5550 720 60 0 5570 590 60 40 5540 430 70 40 5570 310 60 0 5570 220 70 0 5600 60 60 0 5570 -60 70 0 5570 -220 60 0 5570 -310 70 -40 5570 -430 30 -40 5570 -590 60 0 5550 -720 60 0 5510 -880 60 0 5510 -1000 60 0 5480 -1130 60 0 5480 -1280 30 0 5450 -1410 60 0 5420 -1530 60 0 5390 -1660 30 -30 5350 -1790 60 0 5290 -1940 70 0 5250 -2060 70 0 5220 -2190 40 -40 5190 -2310 70 -30 5130 -2450 30 -30 5100 -2600 30 0 5080 -2720 30 -30 4970 -2850 40 -30 4940 -2970 30 -40 4890 -3130 30 0 4820 -3250 0 -30 4760 -3380 30 -30 4690 -3540 4640 -3660 4570 -3820 4470 -3950 4420 -4070 4320 -4220z"></path><path class="fil0" d="M4998810 2395520c259360,0 469570,236480 469570,528270 0,291720 -210210,528260 -469570,528260 -259320,0 -469560,-236540 -469560,-528260 0,-291790 210240,-528270 469560,-528270z"></path><polygon class="fil0" points="4454210,5858640 5530300,5858640 5579210,6152120 4405300,6152120 "></polygon><path class="fil0" d="M4992250 5134690c54040,0 97830,52550 97830,117390 0,43480 -19680,81430 -48910,101700l0 407040 -97830 0 0 -407080c-29230,-20300 -48910,-58180 -48910,-101660 0,-64840 43780,-117390 97820,-117390z"></path></g></svg>