<svg height='100px' width='100px'  fill="#000000" xmlns="http://www.w3.org/2000/svg" xmlns:xlink="http://www.w3.org/1999/xlink" version="1.1" x="0px" y="0px" viewBox="0 0 100 100" style="enable-background:new 0 0 100 100;" xml:space="preserve"><title>icons saved for noun</title><path d="M50,2.6C23.8,2.6,2.5,23.9,2.5,50.1S23.8,97.6,50,97.6s47.5-21.3,47.5-47.5l0,0C97.5,23.9,76.2,2.6,50,2.6z M50,93.8  c-24.2,0-43.7-19.6-43.7-43.7S25.8,6.4,50,6.4s43.7,19.6,43.7,43.7C93.7,74.2,74.1,93.8,50,93.8z"></path><path d="M88.8,50.1c0,21.5-17.4,38.8-38.8,38.8S11.2,71.6,11.2,50.1S28.5,11.2,50,11.2l0,0C71.5,11.2,88.8,28.6,88.8,50.1   M46.3,38.5c0,0,2.5,1.2-0.2,3.9c-1.1,1.1-1.9,1.3-2.8,2.5h13.3l-2.8-11.6H47l-1.8,2.4H42v4l1.2-1.2L46.3,38.5L46.3,38.5z   M27.6,52.2l10.6,7.2c-0.6-1.8-0.8-3.8-0.6-5.7c0.1-1.5,0.3-3,0.7-4.4h-2.8l-1-3.3l2.2-1.4v-7l-14.4-7.4v3.6l5.3,6.6  C27.6,40.5,27.6,52.2,27.6,52.2z M63.3,37.7v7l2.2,1.4l-1,3.3h-2.8c0.4,1.4,0.6,2.9,0.7,4.4c0.2,1.9,0,3.8-0.6,5.7l10.6-7.3V40.5  l5.3-6.6v-3.6L63.3,37.7z M53.8,71.3c-1.2,1-2.5,1.9-3.8,2.7c-1.3-0.8-2.6-1.7-3.8-2.7v3.6l-3.8,3.6l7.6,5.7l7.6-5.7l-3.8-3.6  L53.8,71.3L53.8,71.3z M50,68.9c9-4.1,8.2-13.8,8.2-13.8c0-1.9-0.3-3.9-0.8-5.8H42.5c-0.5,1.9-0.8,3.8-0.8,5.8  C41.8,55.2,41,64.8,50,68.9z M45.1,30.1l4.9-3.6l4.9,3.6L53,24.3l5-3.6h-6.1L50,14.9l-1.9,5.8H42l5,3.6L45.1,30.1z M39.6,63.3  l-3.3,2.2l1,1.4l-3.5,2.5l-0.9-1.3l-2.4,1.7l-3.8-5.3l1.8-1.3l-6.1-3.5l1.3,6.9l1.9-1.3l3.8,5.3l-2.2,1.6l3.1,4.4l2.2-1.6l3.1,4.4  l1.2-0.8l-3.1-4.4l2.3-1.7l-1-1.3l3.5-2.5l1,1.4l3.3-2.2C41.5,66.5,40.4,64.9,39.6,63.3z M73.3,64.4l-3.8,5.3l-2.4-1.7l-0.9,1.3  l-3.5-2.5l1-1.4l-3.3-2.2c-0.8,1.7-1.9,3.2-3.2,4.5l3.3,2.2l1-1.4l3.5,2.5l-1,1.3l2.4,1.7l-3.1,4.4l1.1,0.8l3.1-4.4l2.2,1.6l3.1-4.4  l-2.2-1.6l3.8-5.3l1.9,1.3l1.3-6.9l-6.1,3.4L73.3,64.4z"></path></svg>