<svg height='100px' width='100px'  fill="#000000" xmlns="http://www.w3.org/2000/svg" xmlns:xlink="http://www.w3.org/1999/xlink" version="1.1" x="0px" y="0px" viewBox="206 206 100 100" enable-background="new 206 206 100 100" xml:space="preserve"><g><path fill="#000000" d="M294.873,270.27c-1.019,0-1.978,0.397-2.699,1.118c-0.402,0.402-0.698,0.878-0.886,1.396l-2.792-2.131   c-0.007-0.006-0.016-0.009-0.023-0.014c-0.028-0.02-0.059-0.038-0.089-0.055c-0.026-0.015-0.051-0.03-0.078-0.042   c-0.028-0.013-0.058-0.022-0.087-0.032c-0.031-0.011-0.062-0.022-0.094-0.029c-0.027-0.006-0.055-0.009-0.083-0.013   c-0.036-0.005-0.072-0.01-0.108-0.011c-0.009,0-0.018-0.003-0.026-0.003h-3.145v-15.072c9.197-2.153,16.067-10.422,16.067-20.266   c0-11.476-9.337-20.812-20.813-20.812s-20.812,9.336-20.812,20.812c0,9.844,6.87,18.113,16.067,20.266v15.072l-7.543,0   c0,0-0.001,0-0.001,0c-1.1,0-2.135,0.428-2.913,1.206c-0.778,0.778-1.206,1.813-1.206,2.913c0,1.1,0.428,2.135,1.206,2.913   c0.366,0.366,0.789,0.651,1.248,0.854c-0.571,0.704-0.917,1.584-0.917,2.527c0,1.59,0.98,3.003,2.37,3.686   c-0.583,0.711-0.935,1.62-0.936,2.609c0.001,1.1,0.43,2.134,1.208,2.911c0.297,0.296,0.631,0.541,0.991,0.732   c-0.625,0.742-0.967,1.669-0.966,2.649c0,1.1,0.428,2.134,1.206,2.912c0.728,0.728,1.683,1.145,2.704,1.196   c0.035,0.004,0.069,0.01,0.105,0.01h16.121c1.35,0,2.619-0.525,3.573-1.48c0.049-0.049,0.097-0.1,0.144-0.151   c0.68,1.054,1.863,1.756,3.208,1.756c2.104,0,3.816-1.713,3.816-3.817l0-19.796C298.69,271.981,296.979,270.27,294.873,270.27z    M261.149,235.116c0-10.403,8.463-18.866,18.866-18.866s18.866,8.463,18.866,18.866c0,10.403-8.463,18.866-18.866,18.866   C269.612,253.982,261.149,245.519,261.149,235.116z M282.814,255.739v14.714l-5.598,0v-14.715c0.916,0.124,1.85,0.189,2.799,0.189   C280.964,255.928,281.898,255.863,282.814,255.739z M291.056,292.523c0,0.829-0.323,1.609-0.91,2.195   c-0.587,0.587-1.367,0.91-2.197,0.91h-16.013c-0.001,0-0.003,0-0.004,0c-0.581,0-1.127-0.226-1.538-0.637   c-0.41-0.41-0.636-0.955-0.636-1.536c0-0.581,0.226-1.127,0.637-1.538c0.411-0.411,0.957-0.637,1.537-0.637   c0.001,0,0.002,0,0.003,0l2.333,0c0.538,0,0.973-0.436,0.973-0.973c0-0.538-0.436-0.973-0.973-0.973l-3.568,0   c-0.001,0-0.002,0-0.003,0c-0.579,0-1.124-0.226-1.534-0.636c-0.411-0.41-0.637-0.956-0.638-1.535   c0.001-1.198,0.975-2.172,2.172-2.175h0.005l2.233-0.002c0.537-0.001,0.973-0.437,0.972-0.974   c-0.001-0.537-0.436-0.972-0.973-0.972c0,0-0.001,0-0.001,0l-3.566,0.002c-1.234,0-2.276-0.996-2.276-2.174   c0-1.179,1.042-2.174,2.276-2.174c0,0,0.001,0,0.001,0l2.639,0c0.537,0,0.973-0.436,0.973-0.973c0-0.537-0.436-0.973-0.973-0.973   l-4.281,0c0,0,0,0-0.001,0c-0.58,0-1.126-0.226-1.536-0.637c-0.41-0.411-0.637-0.957-0.637-1.537c0-0.581,0.226-1.127,0.637-1.537   c0.41-0.41,0.956-0.636,1.537-0.636c0,0,0,0,0,0l19.85,0l3.479,2.656l0,17.462C291.057,292.52,291.056,292.521,291.056,292.523z    M294.874,295.753c-1.032,0-1.871-0.839-1.871-1.871l0-19.796c0-0.499,0.194-0.968,0.547-1.321s0.823-0.548,1.325-0.548   c1.031,0,1.869,0.839,1.869,1.87l0,19.796C296.744,294.914,295.905,295.753,294.874,295.753z"></path><path fill="#000000" d="M291.192,227.435c-0.38-0.38-0.996-0.38-1.376,0l-13.297,13.297l-6.304-6.304   c-0.38-0.38-0.996-0.38-1.376,0c-0.38,0.38-0.38,0.996,0,1.376l6.992,6.992c0.19,0.19,0.439,0.285,0.688,0.285   c0.249,0,0.498-0.095,0.688-0.285l13.985-13.985C291.572,228.431,291.572,227.815,291.192,227.435z"></path><path fill="#000000" d="M252.798,235.116c0-11.476-9.336-20.812-20.812-20.812c-11.476,0-20.812,9.336-20.812,20.812   c0,9.844,6.87,18.113,16.067,20.266v15.072h-3.146c-0.009,0-0.018,0.002-0.026,0.003c-0.036,0.001-0.071,0.006-0.107,0.011   c-0.028,0.004-0.057,0.007-0.085,0.013c-0.031,0.007-0.062,0.018-0.092,0.029c-0.03,0.01-0.061,0.02-0.09,0.033   c-0.026,0.012-0.051,0.027-0.076,0.041c-0.031,0.018-0.062,0.035-0.09,0.056c-0.007,0.005-0.016,0.009-0.023,0.014l-2.791,2.13   c-0.188-0.518-0.485-0.995-0.886-1.396c-0.721-0.721-1.679-1.118-2.7-1.118c-1.019,0-1.977,0.397-2.698,1.118   c-0.721,0.721-1.118,1.679-1.118,2.698l0,19.796c0,2.105,1.712,3.817,3.816,3.817l0,0c1.345,0,2.528-0.701,3.208-1.756   c0.047,0.051,0.095,0.102,0.144,0.151c0.955,0.954,2.224,1.48,3.573,1.48h16.121c0.035,0,0.068-0.007,0.101-0.01   c1.023-0.05,1.979-0.467,2.708-1.196c0.778-0.778,1.207-1.812,1.206-2.912c0-0.981-0.342-1.908-0.966-2.65   c0.36-0.19,0.694-0.435,0.991-0.731c0.778-0.778,1.207-1.812,1.208-2.914c-0.001-0.988-0.352-1.896-0.936-2.607   c1.39-0.683,2.37-2.096,2.37-3.686c0-0.943-0.346-1.824-0.917-2.527c0.459-0.203,0.883-0.488,1.248-0.854   c0.778-0.778,1.206-1.813,1.206-2.913c0-1.101-0.428-2.135-1.206-2.914c-0.778-0.778-1.813-1.206-2.913-1.206c0,0-0.001,0-0.001,0   l-7.543,0v-15.072C245.928,253.229,252.798,244.96,252.798,235.116z M218.998,293.881c0,1.032-0.839,1.871-1.871,1.871   c-1.031,0-1.87-0.839-1.87-1.871l0-19.796c0-0.499,0.195-0.968,0.548-1.322c0.353-0.353,0.823-0.548,1.323-0.548   c0.499,0,0.969,0.195,1.322,0.548c0.353,0.353,0.548,0.822,0.547,1.322V293.881z M244.273,272.4   C244.273,272.4,244.273,272.4,244.273,272.4c0.581,0,1.127,0.226,1.537,0.636c0.41,0.41,0.637,0.956,0.636,1.537   c0,0.58-0.226,1.126-0.637,1.537c-0.41,0.411-0.956,0.637-1.537,0.637c0,0,0,0,0,0l-4.281,0c-0.537,0-0.973,0.436-0.973,0.973   c0,0.538,0.436,0.973,0.973,0.973l2.637,0c0.001,0,0.002,0,0.003,0c1.234,0,2.276,0.996,2.276,2.174   c0,1.179-1.042,2.174-2.276,2.174l-3.566-0.002c0,0-0.001,0-0.001,0c-0.537,0-0.973,0.435-0.973,0.972   c0,0.538,0.435,0.974,0.972,0.974l2.228,0.001c0.002,0,0.004,0.001,0.006,0.001c1.199,0,2.175,0.976,2.176,2.173   c-0.001,0.581-0.227,1.127-0.638,1.537c-0.41,0.41-0.955,0.636-1.535,0.636c-0.001,0-0.002,0-0.003,0l-3.567,0   c-0.537,0-0.973,0.436-0.973,0.973c0,0.538,0.436,0.973,0.973,0.973l2.335,0c0,0,0,0,0.001,0c0.581,0,1.127,0.226,1.537,0.637   c0.41,0.411,0.637,0.957,0.637,1.539c0,0.58-0.226,1.125-0.636,1.535c-0.41,0.41-0.957,0.637-1.538,0.637c-0.001,0-0.001,0-0.002,0   h-16.014c-0.83,0-1.61-0.323-2.197-0.91c-0.587-0.587-0.91-1.366-0.91-2.195c0-0.001,0-0.002,0-0.004l0-17.464l3.479-2.655   L244.273,272.4z M229.187,270.454v-14.714c0.916,0.124,1.85,0.189,2.799,0.189s1.883-0.065,2.799-0.189v14.715L229.187,270.454z    M231.985,253.982c-10.403,0-18.866-8.463-18.866-18.866c0-10.403,8.463-18.866,18.866-18.866c10.403,0,18.866,8.463,18.866,18.866   C250.852,245.519,242.388,253.982,231.985,253.982z"></path><path fill="#000000" d="M239.948,227.153c-0.38-0.38-0.996-0.38-1.376,0l-6.586,6.586l-6.586-6.586c-0.38-0.38-0.996-0.38-1.376,0   c-0.38,0.38-0.38,0.996,0,1.376l6.586,6.586l-6.586,6.586c-0.38,0.38-0.38,0.996,0,1.376c0.19,0.19,0.439,0.285,0.688,0.285   c0.249,0,0.498-0.095,0.688-0.285l6.586-6.586l6.586,6.586c0.19,0.19,0.439,0.285,0.688,0.285c0.249,0,0.498-0.095,0.688-0.285   c0.38-0.38,0.38-0.996,0-1.376l-6.586-6.586l6.586-6.586C240.328,228.15,240.328,227.534,239.948,227.153z"></path></g></svg>