<svg height='100px' width='100px'  fill="#000000" xmlns="http://www.w3.org/2000/svg" xmlns:xlink="http://www.w3.org/1999/xlink" version="1.1" x="0px" y="0px" viewBox="0 0 100 100" style="enable-background:new 0 0 100 100;" xml:space="preserve"><g><path d="M85.6,67.7c0-1.5-1.1-2.8-2.6-2.9c-0.9-0.1-1.8-0.2-2.7,0V27.2l3.3-3.3c0.3-0.3,0.4-0.6,0.4-1v-7.3c0-0.9-0.4-1.4-1.4-1.4   H72.2c0-0.1,0.1-7.7,0.1-7.7c0-1-0.5-1.4-1.4-1.4H55.3c-0.4,0-0.8,0.2-1,0.4l-8.7,8.7H26c-0.4,0-0.8,0.2-1,0.4l-7.3,7.3   c-0.3,0.3-0.4,0.7-0.4,1v7.3c0,0.8,0.6,1.4,1.4,1.4h2.1v37.1c-0.4,0.2-0.7,0.5-1,0.7c-0.6,0.5-1,1.3-1.6,1.8   c-0.2,0.2-0.5,0.3-0.8,0.5c-0.5,0.4-0.7,0.8-1,1.3c-0.4,0.7-1,1.3-1.1,2.1c-0.1,0.4-0.1,0.6-0.3,1c-0.3,0.5-0.6,1-0.7,1.5   c-0.1,0.4,0,0.7-0.1,1.1s-0.4,0.8-0.4,1.3c-0.1,1.2,0.5,2.3,1.5,2.8c0,2.1,1.8,2.7,3.5,2.9c0.4,0,0.9,0,1.2,0.1   c0.5,0.2,0.9,0.6,1.4,0.8c1.8,0.8,4,1.4,6,1.2c0.5,1.6,2.6,3,4.3,2.7c0.1,0.5,0.2,0.9,0.4,1.2V64c-0.4-0.1-0.9-0.1-1.3-0.2   c-0.4-0.1-0.8-0.1-1.2-0.2c-0.5-0.1-0.9,0-1.4,0.1s-1.1,0-1.6,0.2c-1.2,0.4-1.9,1.5-2.6,2.4c-0.1,0.1-0.2,0.2-0.3,0.3v-35H28   l-1.2,1.2c-0.3,0.3-0.4,0.6-0.4,1v7.3c0,0.8,0.6,1.4,1.4,1.4H34v50.6l0,0c0.4,0.1,0.8,0.2,1.2,0.3c0.8,0.1,1.5,0.3,2.3,0.1   c1-0.3,1.7-1.1,2-2c0.8-0.4,1.6-0.6,2.4-0.8c0.8-0.2,1.5-0.6,2.3-0.7c1.1-0.1,2.1,0.5,3.2,0.5c1.6,0,3.3,0.2,4.4-1.3   c0.4,0,0.8-0.1,1.1-0.1c0.6-0.1,0.9,0.2,1.6,0.3c0,1.6,0.6,3.5,1.9,4.5c1.4,1.1,3.3,1.5,4.8,0.4c1.3-0.9,2.2-2.1,2.3-3.7   c0.1-1.5,0.2-2.9-0.1-4.4c0.6-0.3,1.3-0.6,1.9-0.9c0.4-0.2,0.7-0.5,1.1-0.7c0.5-0.2,1-0.3,1.4-0.5s0.6-0.5,1-0.6s0.8-0.2,1.2-0.4   c1.2-0.5,2.7-2,2.8-3.3c0.7-0.5,1.1-1.2,1.8-1.7c0.3-0.2,0.6-0.4,0.8-0.6l0,0v-0.1v-9.9c-1.2,0.2-2.4,0.4-3.6,1   c-0.5,0.3-1.1,0.6-1.6,0.8c-0.6,0.2-1.3,0.2-2,0.4c-0.5-0.7-1.3-1-1.9-1.5c-0.5-0.4-1.1-0.5-1.7-0.7c-0.9-0.3-1.7-0.8-2.5-1.1   c-0.1,0-0.2,0-0.2-0.1V31.6h13.3c0.4,0,0.8-0.1,1-0.4l1.1-1.1v37v9.6c1.6-0.6,3.5-1.5,3.7-3.2c0.6-0.2,1.2-0.5,1.7-0.7   s1-0.3,1.4-0.5C86.2,71.5,86.9,69.3,85.6,67.7z M73.9,28.8H55.8v-4.4h18.1V28.8z M44.9,34.5l8.1-8.1v3.2l-8.1,8.1V34.5z M74.8,21.4   H57.9l4.4-4.4h16.9L74.8,21.4z M65.2,14.1l4.2-4.2v3.2l-1,1H65.2z M55.9,7.9h11.4L42.8,32.4H31.4L55.9,7.9z M26.6,17h16l-4.4,4.4   h-16L26.6,17z M20.2,28.8v-4.4h15.2L31,28.8H20.2z M29.3,35.3H42v4.4H29.3V35.3z M59.2,66.4c-0.3,0-0.6,0-0.9-0.2   c-0.5-0.2-1-0.3-1.4-0.5s-0.8-0.4-1.3-0.5c-0.7-0.1-1.3,0.3-2,0.4c-1.7,0.3-3.8,0-5.5-0.1s-3.3-0.1-4.9-0.2c-2.1,0-4.2-0.3-6.2-0.6   V42.6h6.4c0.4,0,0.8-0.2,1-0.4L55,31.6h4.2V66.4z M76.8,23.5l4.4-4.4v3.2l-4.4,4.4V23.5z"></path><path d="M50.1,20.8c2,0,3.7-0.8,3.7-1.8s-1.6-1.8-3.7-1.8c-2,0-3.7,0.8-3.7,1.8C46.5,19.9,48.1,20.8,50.1,20.8z"></path></g></svg>