<svg height='100px' width='100px'  fill="#000000" xmlns="http://www.w3.org/2000/svg" xmlns:xlink="http://www.w3.org/1999/xlink" version="1.1" x="0px" y="0px" viewBox="0 0 66 66" enable-background="new 0 0 66 66" xml:space="preserve"><g><g><path d="M45.2,18.7c0-1.4-0.7-2.8-1.9-3.6C43.1,15,43.1,15,40,13.9c-1.6,2.6-4.1,4.5-7,4.5c-2.9,0-5.5-1.9-7-4.5    c-3.2,1.2-3,1.1-3.3,1.2c-1.2,0.8-1.9,2.1-1.9,3.5v4.6h24.3V18.7z"></path></g><g><path d="M33,16.4c3.8,0,6.8-4.6,6.8-8.4c0-3.8-3.1-6.8-6.8-6.8S26.2,4.2,26.2,8C26.2,11.8,29.2,16.4,33,16.4z"></path></g><g><path d="M51.5,19.7c-1.6,0-3.2-0.7-4.4-1.7c0.1,0.5,0,0.6,0,5.2h15.2v-3.6c0-1.3-0.6-2.5-1.7-3.2c-0.3-0.2-0.3-0.1-2.5-0.9    C56.7,17.9,54.3,19.7,51.5,19.7z"></path></g><g><path d="M51.5,17.7c3.4,0,6.1-4.1,6.1-7.5c0-3.4-2.7-6.1-6.1-6.1c-3.4,0-6.1,2.7-6.1,6.1C45.5,13.6,48.2,17.7,51.5,17.7z"></path></g><g><path d="M62.1,58.4H3.9c-0.5,0-1,0.4-1,1v4.5c0,0.6,0.5,1,1,1h58.1c0.5,0,1-0.4,1-1v-4.5C63.1,58.8,62.6,58.4,62.1,58.4z"></path></g><g><path d="M64.5,25.2h-63c-0.6,0-1,0.4-1,1v3.5c0,0.6,0.4,1,1,1H3v2.5c0,0.6,0.5,1,1,1H62c0.6,0,1-0.4,1-1v-2.5h1.5c0.6,0,1-0.4,1-1    v-3.5C65.5,25.7,65.1,25.2,64.5,25.2z"></path></g><g><rect x="44.6" y="40.2" width="8.8" height="12.2"></rect></g><g><rect x="28.4" y="40.2" width="8.8" height="12.2"></rect></g><g><rect x="12.2" y="40.2" width="8.8" height="12.2"></rect></g><g><path d="M5.2,36.3v20.1h55.6V36.3H5.2z M22.9,53.4c0,0.6-0.4,1-1,1H11.1c-0.5,0-1-0.4-1-1V39.2c0-0.6,0.5-1,1-1h10.8    c0.6,0,1,0.4,1,1V53.4z M39.1,53.4c0,0.6-0.5,1-1,1H27.4c-0.6,0-1-0.4-1-1V39.2c0-0.6,0.4-1,1-1h10.8c0.5,0,1,0.4,1,1V53.4z     M55.3,53.4c0,0.6-0.5,1-1,1H43.5c-0.5,0-1-0.4-1-1V39.2c0-0.6,0.5-1,1-1h10.8c0.5,0,1,0.4,1,1V53.4z"></path></g><g><path d="M18.9,18c-1.3,1.1-2.8,1.7-4.4,1.7c-2.8,0-5.1-1.9-6.6-4.3L6.2,16c-0.3,0.1-0.6,0.4-0.6,0.7l-1.3,6.5h14.6    C18.8,18.5,18.8,18.5,18.9,18z"></path></g><g><path d="M14.4,17.7c3.4,0,6.1-4.1,6.1-7.5c0-3.4-2.7-6.1-6.1-6.1c-3.4,0-6.1,2.7-6.1,6.1C8.3,13.6,11.1,17.7,14.4,17.7z"></path></g></g></svg>