<svg height='100px' width='100px'  fill="#000000" xmlns="http://www.w3.org/2000/svg" xmlns:xlink="http://www.w3.org/1999/xlink" version="1.1" x="0px" y="0px" viewBox="0 0 100 100" enable-background="new 0 0 100 100" xml:space="preserve"><path d="M53,60c-1,0-5,0-6,0c0-1.656,1.343-3,3-3C51.657,57,53,58.344,53,60z"></path><rect x="35.25" y="39.25" width="28.5" height="1.5"></rect><polygon points="50,31.276 36.127,37.75 63.873,37.75 "></polygon><path d="M92.125,43v1h-0.25v-1h-0.75v1h-0.25v-1h-0.75v1h-0.25v-1h-0.75v1h-0.25v-1h-0.75v1h-0.25v-1h-2.75v1h-0.25v-1h-0.75v1  h-0.25v-1h-0.75v1h-0.25v-1h-0.75v1h-0.25v-1h-0.75v1h-0.25v-1h-1.75v1h-0.25v-1h-0.75v1h-0.25v-1h-0.75v1h-0.25v-1h-0.75v1h-0.25  v-1h-0.75v1h-0.25v-1h-1.75v1h-0.25v-1h-0.75v1h-0.25v-1H72v-2h-3v2h0.125v1h-0.25v-1H68.25c0-0.689-0.561-1.25-1.25-1.25h-2v-3.166  h3.081L64,36.647V35h-3.469l-10.406-4.94v-4.009C52.039,26.944,53.066,26,56,26c0-1,0-2,0-4c-2.934,0-3.961,0.944-5.875,0.051V22  h-0.25v8.06L39.469,35H35v2.122l-3.081,1.462H34v3.166h-1c-0.689,0-1.25,0.561-1.25,1.25h-0.625v1h-0.25v-1h-0.75v1h-0.25v-1H30v-2  h-3v2h0.125v1h-0.25v-1h-2.75v1h-0.25v-1h-0.75v1h-0.25v-1h-0.75v1h-0.25v-1h-0.75v1h-0.25v-1h-0.75v1h-0.25v-1h-1.75v1h-0.25v-1  h-0.75v1h-0.25v-1h-0.75v1h-0.25v-1h-0.75v1h-0.25v-1h-0.75v1h-0.25v-1h-1.75v1h-0.25v-1h-0.75v1h-0.25v-1h-0.75v1h-0.25v-1h-0.75v1  h-0.25v-1h-0.75v1h-0.25v-1H6v28h88V43H92.125z M70.875,43h0.25v1h-0.25V43z M69.875,43h0.25v1h-0.25V43z M50,31l15,7H35L50,31z   M35,39h29v2H35V39z M60,63v1h-1v-1H60z M59,62v-1h1v1H59z M60,65v1h-1v-1H60z M63,66.875v0.25h-5v-0.25H63z M62,63v1h-1v-1H62z   M61,62v-1h1v1H61z M62,65v1h-1v-1H62z M58,60l2.5-2l2.5,2H58z M58,56.125v-0.25h5v0.25H58z M60,52v1h-1v-1H60z M59,51v-1h1v1H59z   M60,54v1h-1v-1H60z M62,52v1h-1v-1H62z M61,51v-1h1v1H61z M62,54v1h-1v-1H62z M57,65v2h-1h-2h-1v-2h1V44c-0.553,0-1-0.448-1-1  s0.447-1,1-1h2c0.553,0,1,0.448,1,1s-0.447,1-1,1v21H57z M48,60.875v-0.75h-1.125V60c0-1.723,1.402-3.125,3.125-3.125  c1.723,0,3.125,1.402,3.125,3.125v0.125H52v0.75H48z M52,61.125V67h-1.875v-5.875H52z M49.875,61.125V67H48v-5.875H49.875z M43,43  c0-0.552,0.448-1,1-1h2c0.552,0,1,0.448,1,1s-0.448,1-1,1v21h1v2h-1h-2h-1v-2h1V44C43.448,44,43,43.552,43,43z M49.5,52v1h-1v-1  H49.5z M48.5,51v-1h1v1H48.5z M49.5,54v1h-1v-1H49.5z M52.5,55.875v0.25h-5v-0.25H52.5z M51.5,52v1h-1v-1H51.5z M50.5,51v-1h1v1  H50.5z M51.5,54v1h-1v-1H51.5z M39,63v1h-1v-1H39z M38,62v-1h1v1H38z M39,65v1h-1v-1H39z M42,66.875v0.25h-5v-0.25H42z M41,63v1h-1  v-1H41z M40,62v-1h1v1H40z M41,65v1h-1v-1H41z M37,60l2.5-2l2.5,2H37z M37,56.125v-0.25h5v0.25H37z M39,52v1h-1v-1H39z M38,51v-1h1  v1H38z M39,54v1h-1v-1H39z M41,52v1h-1v-1H41z M40,51v-1h1v1H40z M41,54v1h-1v-1H41z M28.875,43h0.25v1h-0.25V43z M27.875,43h0.25v1  h-0.25V43z M7,45.875h25v0.25H7V45.875z M31,62v-1h1v1H31z M32,63v1h-1v-1H32z M28,60l2.5-2l2.25,1.8V60H28z M29,64v-1h1v1H29z   M30,65v1h-1v-1H30z M29,62v-1h1v1H29z M28,56.125v-0.25h4.75v0.25H28z M30,52v1h-1v-1H30z M29,51v-1h1v1H29z M30,54v1h-1v-1H30z   M32,52v1h-1v-1H32z M31,51v-1h1v1H31z M32,54v1h-1v-1H32z M23,63v1h-1v-1H23z M22,62v-1h1v1H22z M23,65v1h-1v-1H23z M26,66.875  v0.25h-5v-0.25H26z M25,63v1h-1v-1H25z M24,62v-1h1v1H24z M25,65v1h-1v-1H25z M21,60l2.5-2l2.5,2H21z M21,56.125v-0.25h5v0.25H21z   M23,52v1h-1v-1H23z M22,51v-1h1v1H22z M23,54v1h-1v-1H23z M25,52v1h-1v-1H25z M24,51v-1h1v1H24z M25,54v1h-1v-1H25z M16,63v1h-1v-1  H16z M15,62v-1h1v1H15z M16,65v1h-1v-1H16z M19,66.875v0.25h-5v-0.25H19z M18,63v1h-1v-1H18z M17,62v-1h1v1H17z M18,65v1h-1v-1H18z   M14,60l2.5-2l2.5,2H14z M14,56.125v-0.25h5v0.25H14z M16,52v1h-1v-1H16z M15,51v-1h1v1H15z M16,54v1h-1v-1H16z M18,52v1h-1v-1H18z   M17,51v-1h1v1H17z M18,54v1h-1v-1H18z M10,53v-1h1v1H10z M11,54v1h-1v-1H11z M10,51v-1h1v1H10z M8,53v-1h1v1H8z M9,54v1H8v-1H9z   M8,51v-1h1v1H8z M7,55.875h5v0.25H7V55.875z M9.5,58l2.5,2H7L9.5,58z M10,64v-1h1v1H10z M11,65v1h-1v-1H11z M10,62v-1h1v1H10z   M8,64v-1h1v1H8z M9,65v1H8v-1H9z M8,62v-1h1v1H8z M7,66.875h5v0.25H7V66.875z M31,69h-1v1h-2v-1h-5v1h-2v-1h-5v1h-2v-1H9v1H7v-1v-1  h2h5h2h5h2h5h2h1V69z M31.75,67v0.125H28v-0.25h3.75V67z M31.75,66H31v-1h0.75V66z M31.875,64.875h1V44.118  c-0.562-0.062-1-0.54-1-1.118c0-0.62,0.505-1.125,1.125-1.125h2c0.62,0,1.125,0.505,1.125,1.125c0,0.578-0.438,1.056-1,1.118v20.757  h1v2.25h-4.25V64.875z M68,70.125H32v-0.25h36V70.125z M68,69.125H32v-0.25h36V69.125z M68,68.125H32v-0.25h36V68.125z   M68.125,67.125h-4.25v-2.25h1V44.118c-0.562-0.062-1-0.54-1-1.118c0-0.62,0.505-1.125,1.125-1.125h2  c0.62,0,1.125,0.505,1.125,1.125c0,0.578-0.438,1.056-1,1.118v20.757h1V67.125z M71,52v1h-1v-1H71z M70,51v-1h1v1H70z M71,54v1h-1  v-1H71z M72,55.875v0.25h-4.75v-0.25H72z M70,64v-1h1v1H70z M71,65v1h-1v-1H71z M70,62v-1h1v1H70z M67.25,60v-0.2L69.5,58l2.5,2  H67.25z M68,64v-1h1v1H68z M69,65v1h-0.75v-1H69z M68,62v-1h1v1H68z M69,54v1h-1v-1H69z M68,53v-1h1v1H68z M69,51h-1v-1h1V51z   M68.25,67v-0.125H72v0.25h-3.75V67z M93,69v1h-2v-1h-5v1h-2v-1h-5v1h-2v-1h-5v1h-2v-1h-1v-1h1h2h5h2h5h2h5h2V69z M76,52v1h-1v-1H76  z M75,51v-1h1v1H75z M76,54v1h-1v-1H76z M79,55.875v0.25h-5v-0.25H79z M78,52v1h-1v-1H78z M77,51v-1h1v1H77z M78,54v1h-1v-1H78z   M76.5,58l2.5,2h-5L76.5,58z M77,64v-1h1v1H77z M78,65v1h-1v-1H78z M77,62v-1h1v1H77z M75,64v-1h1v1H75z M76,65v1h-1v-1H76z M75,62  v-1h1v1H75z M79,66.875v0.25h-5v-0.25H79z M83,52v1h-1v-1H83z M82,51v-1h1v1H82z M83,54v1h-1v-1H83z M86,55.875v0.25h-5v-0.25H86z   M85,52v1h-1v-1H85z M84,51v-1h1v1H84z M85,54v1h-1v-1H85z M83.5,58l2.5,2h-5L83.5,58z M84,64v-1h1v1H84z M85,65v1h-1v-1H85z M84,62  v-1h1v1H84z M82,64v-1h1v1H82z M83,65v1h-1v-1H83z M82,62v-1h1v1H82z M86,66.875v0.25h-5v-0.25H86z M93,67.125h-5v-0.25h5V67.125z   M90,63v1h-1v-1H90z M89,62v-1h1v1H89z M90,65v1h-1v-1H90z M92,63v1h-1v-1H92z M91,62v-1h1v1H91z M92,65v1h-1v-1H92z M88,60l2.5-2  l2.5,2H88z M93,56.125h-5v-0.25h5V56.125z M90,52v1h-1v-1H90z M89,51v-1h1v1H89z M90,54v1h-1v-1H90z M92,52v1h-1v-1H92z M91,51v-1h1  v1H91z M92,54v1h-1v-1H92z M93,46.125H68v-0.25h25V46.125z"></path></svg>