<svg height='100px' width='100px'  fill="#000000" xmlns="http://www.w3.org/2000/svg" xmlns:xlink="http://www.w3.org/1999/xlink" version="1.1" x="0px" y="0px" viewBox="0 0 66 66" enable-background="new 0 0 66 66" xml:space="preserve"><g><path d="M9.3178711,41.675293h2.0576172V63c0,0.5522461,0.4477539,1,1,1h3.824707c0.5522461,0,1-0.4477539,1-1V41.675293h3.1704102   v12.7548828c0,0.5522461,0.4477539,1,1,1s1-0.4477539,1-1V41.675293h2.6826172v9.5874023   c0,2.5712891,2.0917969,4.6635742,4.6630859,4.6635742c1.4927979,0,2.809021-0.7178345,3.6630859-1.8126221   c0.8540649,1.0947876,2.1702881,1.8126221,3.6630859,1.8126221c2.5712891,0,4.6635742-2.0922852,4.6635742-4.6635742V41.675293   h1.918457v12.7548828c0,0.5522461,0.4477539,1,1,1s1-0.4477539,1-1V41.675293h3.1704102V63c0,0.5522461,0.4477539,1,1,1h3.8242188   c0.5522461,0,1-0.4477539,1-1V41.675293h2.0629883c0.5522461,0,1-0.4477539,1-1v-4.7602539c0-0.5522461-0.4477539-1-1-1h-14.956543   v-7.2138672l7.2578125-7.0244141c1.0751953-1.2602539,1.6674805-2.8642578,1.6674805-4.5166016V5.8759766   C50.6508789,3.7387695,48.9121094,2,46.7749023,2c-2.176239,0-3.8662109,1.7793849-3.8662109,3.875l-0.0097656,9.8833008   c-0.2875977,0.4584961-1.4287109,1.8129883-3.2241211,3.71875c-0.1796875,0.1938477-0.4472656,0.3046875-0.7226563,0.3046875   l-10.1669922-0.1191406c-2.5537109-0.0068359-4.8051758,1.5488281-5.6591797,3.9082031l-2.449707,6.6748047   c-0.553854,1.5127487-0.3825989,3.2260971,0.687439,4.6694336H9.3178711c-0.5522461,0-1,0.4477539-1,1v4.7602539   C8.3178711,41.2275391,8.765625,41.675293,9.3178711,41.675293z M15.2001953,62h-1.824707V41.675293h1.824707V62z    M29.7163086,53.9262695c-1.4682617,0-2.6630859-1.1948242-2.6630859-2.6635742V41.675293h5.3261719v9.5874023   C32.3793945,52.7314453,31.1845703,53.9262695,29.7163086,53.9262695z M39.7060547,51.2626953   c0,1.46875-1.1948242,2.6635742-2.6635742,2.6635742c-1.4682617,0-2.6630859-1.1948242-2.6630859-2.6635742V41.675293h5.3266602   V51.2626953z M52.6191406,62h-1.8242188V41.675293h1.8242188V62z M22.5541992,30.934082l2.4511719-6.6782227   c0.5664063-1.5673828,2.09375-2.5722656,3.7583008-2.5932617l10.1767578,0.1191406   c0.8422852,0,1.6445313-0.3447266,2.1958008-0.9389648c3.7626953-3.9936523,3.7626953-4.4702148,3.7626953-4.8901367   l0.0097656-10.0766602C44.9086914,4.8958459,45.694561,4,46.7749023,4c1.0341797,0,1.8759766,0.8417969,1.8759766,1.8759766   v10.2841797c0,1.1767578-0.4223633,2.3198242-1.1235352,3.1489258l-7.4970703,7.2495117   c-0.1948242,0.1884766-0.3046875,0.4477539-0.3046875,0.71875v7.6376953h-5.7125244   c0.2947998-0.5458374,0.4727783-1.1638794,0.4727783-1.8261719c0-2.1026516-1.6931267-3.8266602-3.8227539-3.8266602   l-2.9155273-0.0097656c-0.0009766,0-0.0024414,0-0.003418,0c-0.5507813,0-0.9980469,0.4453125-1,0.996582   c-0.0019531,0.5522461,0.4443359,1.0014648,0.996582,1.003418l2.9189453,0.0097656   c1.0394993,0,1.8261719,0.8330421,1.8261719,1.8266602c0,0.9369507-0.6930542,1.7160034-1.6152344,1.8261719h-5.6918945   C23.1980038,34.8149834,21.8661785,32.8125534,22.5541992,30.934082z M10.3178711,36.9150391   c1.9419632,0.0015907,43.6717262,0.0005417,45.3642578,0v2.7602539c-11.5808296-0.0076828-34.6410751-0.00214-45.3642578,0   V36.9150391z"></path><path d="M32.9975586,18.2661133c3.3046875,0,5.9936523-2.6889648,5.9936523-5.9936523s-2.6889648-5.9936523-5.9936523-5.9936523   s-5.9936523,2.6889648-5.9936523,5.9936523S29.6928711,18.2661133,32.9975586,18.2661133z M32.9975586,8.2788086   c2.2021484,0,3.9936523,1.7915039,3.9936523,3.9936523s-1.7915039,3.9936523-3.9936523,3.9936523   s-3.9936523-1.7915039-3.9936523-3.9936523S30.7954102,8.2788086,32.9975586,8.2788086z"></path></g></svg>