<svg height='100px' width='100px'  fill="#000000" xmlns="http://www.w3.org/2000/svg" xmlns:xlink="http://www.w3.org/1999/xlink" version="1.1" x="0px" y="0px" viewBox="0 0 100 100" enable-background="new 0 0 100 100" xml:space="preserve"><path d="M46.862,53.041L40.11,35.03l-0.031-0.083l-0.013-0.007c-0.167-0.345-0.521-0.57-0.906-0.57h-9.71v-2.577l-0.016-0.248  h-3.061v2.825h-9.71c-0.373,0-0.713,0.208-0.885,0.529l-6.84,18.203c-0.036,0.113-0.048,0.242-0.02,0.469  c0.014,0.096,0.044,0.19,0.112,0.311L9.09,54c0.077,0.099,0.157,0.175,0.204,0.198c0.118,0.14,2.939,3.409,7.368,3.409  c4.345,0,7.247-3.267,7.33-3.37c0.089-0.066,0.168-0.145,0.241-0.237l0.053-0.067V53.91c0.062-0.115,0.1-0.222,0.131-0.414  c0.017-0.127,0.008-0.26-0.025-0.387l-0.007-0.018l0-0.004l-6.255-16.682h8.241v22.903H20.84v3.063h14v-3.063h-5.409l0.018-22.903  h8.241l-6.188,16.559L31.433,53.1c-0.036,0.112-0.048,0.234-0.017,0.476c0.019,0.113,0.06,0.225,0.124,0.342l0.045,0.076  c0.066,0.09,0.146,0.17,0.206,0.208c0.122,0.14,3.021,3.406,7.37,3.406c4.431,0,7.25-3.27,7.322-3.367  c0.099-0.07,0.181-0.15,0.234-0.222l0.061-0.097c0.069-0.124,0.109-0.235,0.125-0.342l0.02-0.102  C46.931,53.336,46.92,53.214,46.862,53.041z M44.445,52.379h-10.57l5.285-14.09L44.445,52.379z M16.663,38.289l5.285,14.09H11.38  L16.663,38.289z"></path><path d="M74.658,21.07h-4.09l-7.354,16.343L55.862,21.07h-4.006c-0.362,0-0.686,0.024-0.988,0.061H21.47  c-5.547-0.017-5.547,7.93,0,7.93h28.158l0.009,70.871h27.237l0.009-66.145h2.803v24.325c0,5.547,7.231,5.547,7.217,0V33.199  C86.902,27.074,81.828,21.07,74.658,21.07z"></path><circle cx="63.188" cy="23.978" r="2.78"></circle><path d="M57.959,17.967L57.959,17.967l0.016,0.008c1.322,0.814,8.146,3.621,15.786-3.543c3.073-3.12,4.525-7.868,4.525-7.868  s-3.266,1.471-5.812,0.487c-1.724-0.668-3.439-2.731-3.768-3.141c-0.795-0.894-1.781-1.657-2.938-2.177  c-4.491-2.042-9.8-0.005-11.84,4.535C51.941,10.692,53.753,15.788,57.959,17.967z"></path></svg>