<svg height='100px' width='100px'  fill="#000000" xmlns="http://www.w3.org/2000/svg" xmlns:xlink="http://www.w3.org/1999/xlink" version="1.1" x="0px" y="0px" viewBox="0 0 600 446" enable-background="new 0 0 600 446" xml:space="preserve"><g><g><path d="M486.335,250.168c0.254-0.312,0.346-0.496,0.346-0.496l-19.254-12.439c1.486-2.3,7.759-10.348,26.074-17.33    c12.841-4.895,26.645-5.128,44.121-5.424c6.372-0.108,13.593-0.23,21.366-0.603c6.32-0.311,11.695,4.574,11.999,10.896    c0.305,6.323-4.574,11.695-10.896,11.999c-8.129,0.391-15.542,0.517-22.08,0.627c-15.826,0.267-27.26,0.461-36.344,3.924    C489.988,245.775,486.371,250.125,486.335,250.168z"></path></g><g><path d="M218.561,234.112c-13.463,0-26.383-6.442-36.073-18.164c-3.615-4.374-3.485-10.734,0.303-14.957    c15.013-16.732,16.434-38.207,17.468-53.887c0.732-11.061,1.308-19.796,6.508-25.797c6.405-7.389,15.158-12.729,25.295-18.911    c6.648-4.054,14.183-8.651,22.508-14.652c7.132-5.141,13.075-10.408,18.823-15.5c10.819-9.587,20.162-17.867,32.282-20.122    c29.931-5.564,91.716,5.359,150.423,26.588c9.526,2.114,25.596-5.522,45.857-15.16c7.538-3.585,16.083-7.649,25.369-11.731    c5.789-2.546,12.556,0.087,15.105,5.882c2.546,5.794-0.087,12.557-5.882,15.105c-8.972,3.942-17.353,7.929-24.747,11.446    c-25.747,12.246-44.352,21.096-61.9,16.541c-0.348-0.09-0.693-0.197-1.03-0.32C387.072,78.046,332.162,70.51,309.868,74.659    c-5.869,1.092-12.666,7.116-21.273,14.742c-5.884,5.213-12.554,11.123-20.621,16.938c-9.04,6.517-16.974,11.356-23.975,15.627    c-8.533,5.204-15.336,9.354-19.458,13.847c-0.705,2.152-1.11,8.27-1.41,12.802c-1.033,15.645-2.527,38.262-16.351,58.798    c3.711,2.485,8.503,4.322,14.173,3.629c13.072-1.608,26.864-16.047,38.937-40.719c1.454-5.207,6.778-7.538,13.19-10.347    c3.621-1.586,8.657-3.736,14.964-6.39c10.817-4.553,21.642-9.015,21.642-9.015c5.851-2.409,12.553,0.378,14.964,6.228    c2.412,5.852-0.376,12.551-6.229,14.964c-15.245,6.285-32.079,13.365-38.81,16.384c-19.716,39.321-41.159,49.835-55.859,51.644    C222.016,234.006,220.284,234.112,218.561,234.112z M224.665,135.485L224.665,135.485z"></path></g><g><path d="M444.018,300.271c-9.693,0-20.755-1.569-33.247-5.216c-34.135-9.968-55.913-24.611-56.824-25.229    c-5.235-3.557-6.597-10.686-3.04-15.921c3.554-5.232,10.669-6.597,15.908-3.049c0.318,0.214,20.02,13.331,50.38,22.195    c31.782,9.284,51.542,1.841,56.449-8.997c0.671-1.481,2.347-6.143-1.115-9.635c-70.889-9.645-94.043-35.852-112.698-56.967    c-12.963-14.675-23.204-26.265-47.943-31.027c-6.215-1.198-10.284-7.207-9.088-13.422c1.198-6.215,7.207-10.271,13.422-9.088    c32.412,6.24,46.838,22.57,60.789,38.36c18.069,20.452,36.753,41.6,101.487,49.81c1.674,0.212,3.281,0.791,4.704,1.696    c13.402,8.516,18.06,24.851,11.327,39.726C488.239,287.396,471.764,300.271,444.018,300.271z"></path></g><g><path d="M415.492,346.935c-5.673,0-11.824-0.747-18.444-2.421c-38.734-9.797-68.876-31.619-70.141-32.543    c-5.11-3.735-6.224-10.907-2.488-16.017c3.735-5.107,10.897-6.221,16.007-2.495l0,0c0.276,0.2,27.96,20.161,62.243,28.832    c18.972,4.796,30.844-1.351,35.628-8.706c3.423-5.262,3.406-11.028-0.043-15.423c-3.908-4.98-3.039-12.185,1.94-16.093    c4.983-3.906,12.187-3.039,16.093,1.94c9.496,12.102,9.978,28.616,1.227,42.072C450.374,337.063,436.117,346.935,415.492,346.935z    "></path></g><g><path d="M374.454,381.936c-3.582,0-7.216-0.363-10.85-1.105c-23.504-4.799-51.929-20.598-53.127-21.269    c-5.525-3.09-7.499-10.074-4.41-15.597c3.09-5.524,10.068-7.498,15.594-4.411l0,0c0.263,0.146,26.545,14.739,46.528,18.818    c9.754,1.992,19.352-0.759,25.661-7.356c3.942-4.124,5.898-9.14,4.983-12.783c-1.543-6.139,2.183-12.366,8.324-13.908    c6.128-1.543,12.366,2.183,13.908,8.324c2.875,11.44-1.105,24.229-10.647,34.208C401.074,376.629,388.143,381.936,374.454,381.936    z"></path></g><g><path d="M322.532,400.993c-17.791,0-38.368-6.327-56.025-18.003c-5.279-3.491-6.729-10.602-3.237-15.883    c3.493-5.279,10.601-6.729,15.883-3.237c18.927,12.515,43.916,17.698,56.896,11.8c4.652-2.114,7.032-5.339,7.717-10.456    c0.841-6.275,6.618-10.689,12.881-9.838c6.273,0.841,10.678,6.608,9.838,12.881c-1.725,12.88-9.166,22.923-20.949,28.281    C338.924,399.543,331.045,400.993,322.532,400.993z"></path></g><g><path d="M100.245,262.809c-3.037,0-6.069-1.199-8.324-3.579c-14.08-14.867-28.729-24.693-52.252-35.044    c-5.794-2.551-8.424-9.314-5.873-15.108c2.551-5.795,9.315-8.425,15.108-5.873c26.221,11.54,43.505,23.206,59.661,40.262    c4.351,4.596,4.156,11.851-0.441,16.204C105.909,261.768,103.074,262.809,100.245,262.809z"></path></g><g><path d="M175.205,101.488c-21.085,0.001-44.855-12.857-72.748-29.298c-5.453-3.214-7.269-10.239-4.054-15.693    c3.214-5.453,10.242-7.268,15.693-4.054c26.815,15.803,52.157,29.64,67.522,25.284c29.643-8.379,82.989-20.86,107.215-10.281    c5.801,2.533,8.451,9.29,5.918,15.09c-2.534,5.8-9.293,8.452-15.09,5.918c-9.378-4.095-39.046-3.584-91.807,11.333    C183.743,100.947,179.529,101.488,175.205,101.488z"></path></g><g><path d="M499.787,227.172"></path></g><g><path d="M253.011,393.576c-1.342,0-2.706-0.061-4.087-0.185c-17.927-1.608-31.682-13.135-33.45-28.029    c-0.745-6.285,3.745-11.985,10.032-12.732c6.287-0.726,11.987,3.745,12.732,10.032c0.439,3.7,6.27,7.319,12.735,7.898    c3.709,0.329,12.632,0.112,15.45-9.088c2.453-8.011,1.445-15.282-2.568-18.523c-3.451-2.788-9.118-2.319-15.554,1.275    c-5.522,3.084-12.508,1.109-15.596-4.417c-3.087-5.525-1.11-12.508,4.417-15.596c14.807-8.27,30.185-7.935,41.133,0.902    c11.512,9.294,15.376,25.798,10.087,43.069C283.52,383.925,269.888,393.576,253.011,393.576z"></path></g><g><path d="M114.035,308.604c-12.051,0-24.06-7.405-30.669-18.941c-6.423-11.21-6.42-24.29,0.009-34.989    c8.621-14.346,20.882-23.109,36.444-26.044c15.439-2.912,30.621,2.474,39.639,14.05c7.771,9.977,9.261,22.731,3.989,34.12    l-10.401-4.817l10.401,4.817c-9.387,20.264-26.821,31.559-49.093,31.803C114.247,308.604,114.141,308.604,114.035,308.604z     M128.015,250.776c-1.253,0-2.571,0.118-3.947,0.378c-9.108,1.719-15.794,6.588-21.045,15.326    c-2.76,4.592-1.396,8.945,0.231,11.787c2.47,4.31,6.989,7.414,10.774,7.414c0.025,0,0.049,0,0.075,0    c13.504-0.146,22.84-6.203,28.541-18.515c2.106-4.544,0.47-8.162-1.271-10.399C139.054,253.787,134.348,250.776,128.015,250.776z"></path></g><g><path d="M203.232,382.788c-8.097,0-16.444-2.164-23.524-6.557c-14.422-8.951-20.124-24.575-15.251-41.794    c1.723-6.09,8.059-9.633,14.149-7.907c6.091,1.723,9.63,8.058,7.907,14.149c-2.073,7.325-0.345,12.582,5.282,16.075    c7.116,4.417,17.07,3.824,20.884,0.372c9.729-8.807,15.756-20.828,17.916-35.733c0.881-6.078-2.026-12.854-6.914-16.111    c-3.573-2.385-7.366-2.315-11.595,0.215c-5.434,3.246-12.472,1.477-15.718-3.957c-3.248-5.433-1.475-12.47,3.957-15.718    c11.893-7.11,25.038-6.966,36.072,0.387c12.251,8.167,19.036,23.628,16.885,38.473c-2.946,20.324-11.431,36.957-25.219,49.438    C221.717,379.865,212.643,382.788,203.232,382.788z"></path></g><g><path d="M160.224,353.466c-8.601,0-17.667-3.091-25.799-10.438c-7.041-6.363-11.521-14.827-12.615-23.833    c-1.236-10.166,1.811-20.346,8.81-29.437c10.192-13.238,19.323-23.153,33.338-31.679l0,0c14.219-8.649,31.553-6.668,43.143,4.92    c12.245,12.245,13.862,30.505,4.121,46.52l-1.001,1.65c-5.286,8.733-12.526,20.694-24.735,32.236    C178.977,349.56,169.895,353.466,160.224,353.466z M175.871,277.663c-11.026,6.708-18.281,14.642-27.087,26.079    c-9.002,11.692-1.504,20.009,1.008,22.278c3.935,3.556,12.563,7.707,19.946,0.73c9.954-9.411,16.008-19.413,20.873-27.45    l1.024-1.69c6.196-10.187,0.998-16.659-0.744-18.4C187.68,275.998,182.048,273.906,175.871,277.663L175.871,277.663z"></path></g></g></svg>