<svg height='100px' width='100px'  fill="#000000" xmlns="http://www.w3.org/2000/svg" xmlns:xlink="http://www.w3.org/1999/xlink" version="1.1" x="0px" y="0px" viewBox="0 0 100 100" enable-background="new 0 0 100 100" xml:space="preserve"><g><path d="M48.216,17.442l-0.817,2.518c-0.041,0.124,0.004,0.259,0.109,0.335c0.053,0.038,0.114,0.057,0.176,0.057   s0.124-0.019,0.176-0.057l2.141-1.557l2.141,1.557c0.104,0.076,0.247,0.076,0.353,0c0.105-0.076,0.149-0.211,0.109-0.335   l-0.817-2.518l2.141-1.557c0.105-0.077,0.149-0.212,0.109-0.335c-0.04-0.124-0.155-0.207-0.285-0.207h-2.647l-0.818-2.519   c-0.08-0.247-0.49-0.247-0.57,0l-0.818,2.519H46.25c-0.13,0-0.245,0.083-0.285,0.207c-0.041,0.124,0.004,0.259,0.109,0.335   L48.216,17.442z M49.116,15.943c0.13,0,0.245-0.083,0.285-0.207l0.6-1.847l0.6,1.847c0.04,0.124,0.155,0.207,0.285,0.207h1.942   l-1.57,1.142c-0.105,0.076-0.149,0.212-0.109,0.335l0.599,1.847l-1.571-1.142c-0.052-0.038-0.114-0.057-0.176-0.057   s-0.124,0.019-0.176,0.057l-1.571,1.142l0.6-1.847c0.041-0.124-0.004-0.259-0.109-0.335l-1.571-1.142H49.116z"></path><path d="M51.785,82.555l0.817-2.518c0.041-0.124-0.004-0.259-0.109-0.335c-0.105-0.076-0.248-0.076-0.353,0L50,81.258l-2.141-1.557   c-0.104-0.076-0.247-0.076-0.353,0c-0.105,0.076-0.149,0.211-0.109,0.335l0.816,2.518l-2.14,1.557   c-0.105,0.077-0.149,0.212-0.109,0.335c0.04,0.124,0.155,0.207,0.285,0.207h2.647l0.817,2.518c0.04,0.124,0.155,0.207,0.285,0.207   s0.245-0.083,0.285-0.207l0.818-2.518h2.647c0.13,0,0.245-0.083,0.285-0.207c0.041-0.124-0.004-0.259-0.109-0.335L51.785,82.555z    M50.886,84.055c-0.13,0-0.245,0.083-0.285,0.207L50,86.108l-0.6-1.847c-0.04-0.124-0.155-0.207-0.285-0.207h-1.943l1.57-1.143   c0.105-0.077,0.149-0.212,0.109-0.335l-0.599-1.847l1.571,1.142c0.104,0.076,0.248,0.076,0.353,0l1.57-1.142l-0.599,1.847   c-0.041,0.124,0.004,0.259,0.109,0.335l1.572,1.143H50.886z"></path><path d="M87.173,49.714l-2.518-0.818v-2.647c0-0.13-0.083-0.245-0.207-0.285c-0.125-0.041-0.259,0.004-0.335,0.109l-1.557,2.142   l-2.518-0.817c-0.126-0.042-0.259,0.004-0.335,0.109c-0.077,0.105-0.076,0.248,0,0.353l1.557,2.14l-1.557,2.142   c-0.076,0.105-0.077,0.248,0,0.353c0.077,0.105,0.209,0.15,0.335,0.109l2.518-0.817l1.557,2.141   c0.058,0.079,0.148,0.124,0.243,0.124c0.031,0,0.062-0.004,0.093-0.015c0.124-0.04,0.207-0.155,0.207-0.285v-2.647l2.518-0.818   c0.124-0.04,0.207-0.155,0.207-0.285S87.297,49.754,87.173,49.714z M84.263,50.6c-0.124,0.04-0.207,0.155-0.207,0.285v1.942   l-1.143-1.571c-0.058-0.079-0.148-0.124-0.243-0.124c-0.031,0-0.062,0.004-0.093,0.015l-1.847,0.599l1.142-1.571   c0.077-0.105,0.077-0.248,0-0.353l-1.142-1.57l1.846,0.599c0.124,0.041,0.259-0.003,0.335-0.109l1.143-1.572v1.942   c0,0.13,0.083,0.245,0.207,0.285l1.847,0.6L84.263,50.6z"></path><path d="M20.298,47.505c-0.076-0.105-0.21-0.15-0.335-0.109l-2.518,0.816l-1.557-2.14c-0.077-0.105-0.211-0.15-0.335-0.109   c-0.124,0.04-0.207,0.155-0.207,0.285v2.646l-2.519,0.818c-0.124,0.04-0.207,0.155-0.207,0.285s0.083,0.245,0.207,0.285   l2.519,0.818v2.647c0,0.13,0.083,0.245,0.207,0.285c0.031,0.01,0.062,0.015,0.093,0.015c0.094,0,0.185-0.044,0.243-0.124   l1.557-2.142l2.518,0.817c0.125,0.042,0.259-0.004,0.335-0.109c0.077-0.105,0.076-0.248,0-0.353l-1.557-2.141l1.557-2.141   C20.374,47.753,20.375,47.611,20.298,47.505z M18.127,49.822c-0.077,0.105-0.077,0.248,0,0.353l1.142,1.571l-1.847-0.599   c-0.125-0.042-0.259,0.004-0.335,0.109l-1.143,1.571v-1.942c0-0.13-0.083-0.245-0.207-0.285l-1.847-0.601l1.847-0.6   c0.124-0.04,0.207-0.155,0.207-0.285v-1.942l1.143,1.57c0.077,0.105,0.21,0.151,0.335,0.109l1.847-0.599L18.127,49.822z"></path><path d="M23.102,28.654l2.616-0.414l1.203,2.359c0.052,0.102,0.156,0.164,0.267,0.164c0.016,0,0.031-0.001,0.047-0.003   c0.128-0.021,0.229-0.121,0.25-0.25l0.412-2.615l2.615-0.413c0.128-0.021,0.229-0.121,0.25-0.25   c0.021-0.128-0.044-0.255-0.16-0.314l-2.358-1.204l0.413-2.613c0.02-0.128-0.044-0.255-0.16-0.314   c-0.117-0.061-0.256-0.037-0.348,0.055l-1.872,1.872l-2.358-1.202c-0.117-0.061-0.255-0.037-0.348,0.055   c-0.092,0.092-0.114,0.232-0.055,0.348l1.202,2.358l-1.873,1.873c-0.092,0.092-0.114,0.232-0.055,0.348   C22.847,28.609,22.976,28.673,23.102,28.654z M25.294,26.543c0.092-0.092,0.114-0.232,0.055-0.348l-0.881-1.729l1.729,0.881   c0.116,0.06,0.257,0.037,0.348-0.055l1.374-1.374l-0.303,1.917c-0.02,0.128,0.044,0.255,0.16,0.314l1.729,0.883l-1.918,0.303   c-0.128,0.021-0.229,0.121-0.25,0.25l-0.302,1.918l-0.882-1.73c-0.052-0.102-0.156-0.164-0.267-0.164   c-0.016,0-0.031,0.001-0.047,0.003l-1.92,0.304L25.294,26.543z"></path><path d="M76.899,71.344l-2.616,0.414l-1.203-2.358c-0.06-0.116-0.188-0.181-0.314-0.16c-0.128,0.021-0.229,0.121-0.25,0.25   l-0.413,2.614l-2.614,0.413c-0.128,0.021-0.229,0.121-0.25,0.25s0.044,0.255,0.16,0.314l2.358,1.203l-0.413,2.615   c-0.02,0.128,0.044,0.255,0.16,0.314c0.043,0.022,0.09,0.032,0.136,0.032c0.078,0,0.154-0.03,0.212-0.088l1.872-1.872l2.358,1.202   c0.114,0.059,0.256,0.037,0.348-0.055c0.092-0.092,0.114-0.232,0.055-0.348l-1.202-2.358l1.873-1.873   c0.092-0.092,0.114-0.232,0.055-0.348S77.026,71.321,76.899,71.344z M74.708,73.454c-0.092,0.092-0.114,0.233-0.055,0.349   l0.881,1.73l-1.73-0.882c-0.115-0.059-0.255-0.038-0.349,0.055l-1.374,1.374l0.303-1.919c0.02-0.128-0.044-0.255-0.16-0.314   l-1.729-0.882l1.918-0.303c0.128-0.021,0.229-0.121,0.25-0.25l0.303-1.917l0.882,1.73c0.059,0.116,0.187,0.18,0.314,0.16   l1.919-0.304L74.708,73.454z"></path><path d="M69.49,27.483l2.615,0.413l0.413,2.615c0.021,0.128,0.121,0.229,0.25,0.25c0.016,0.002,0.031,0.003,0.047,0.003   c0.111,0,0.215-0.062,0.267-0.164l1.203-2.358l2.615,0.413c0.127,0.019,0.256-0.044,0.314-0.16   c0.059-0.116,0.037-0.256-0.056-0.349l-1.872-1.87l1.202-2.36c0.059-0.116,0.037-0.256-0.055-0.348s-0.233-0.114-0.348-0.055   l-2.359,1.202l-1.873-1.872c-0.092-0.092-0.233-0.114-0.348-0.055c-0.116,0.059-0.18,0.186-0.16,0.314l0.414,2.615l-2.358,1.203   c-0.116,0.059-0.181,0.186-0.16,0.314C69.261,27.362,69.362,27.462,69.49,27.483z M72.226,26.152   c0.116-0.059,0.18-0.186,0.16-0.314l-0.304-1.919l1.375,1.374c0.092,0.092,0.233,0.113,0.348,0.055l1.73-0.882l-0.882,1.731   c-0.059,0.116-0.037,0.256,0.055,0.349l1.373,1.372l-1.918-0.303c-0.127-0.02-0.255,0.044-0.314,0.16l-0.882,1.729l-0.303-1.918   c-0.021-0.128-0.121-0.229-0.25-0.25l-1.918-0.303L72.226,26.152z"></path><path d="M30.511,72.516l-2.615-0.413l-0.414-2.615c-0.021-0.128-0.121-0.229-0.25-0.25c-0.127-0.019-0.255,0.044-0.314,0.16   l-1.203,2.359l-2.614-0.413c-0.126-0.022-0.255,0.044-0.314,0.16s-0.037,0.256,0.055,0.348l1.872,1.873l-1.202,2.358   c-0.059,0.116-0.037,0.256,0.055,0.348c0.093,0.092,0.233,0.114,0.348,0.055l2.358-1.202l1.873,1.872   c0.058,0.058,0.134,0.088,0.212,0.088c0.046,0,0.093-0.01,0.136-0.033c0.116-0.059,0.18-0.186,0.16-0.314l-0.414-2.615l2.358-1.203   c0.116-0.059,0.181-0.186,0.16-0.314S30.64,72.536,30.511,72.516z M27.776,73.847c-0.116,0.059-0.18,0.186-0.16,0.314l0.303,1.919   l-1.374-1.374c-0.058-0.058-0.134-0.088-0.212-0.088c-0.046,0-0.093,0.011-0.136,0.033l-1.729,0.881l0.881-1.729   c0.059-0.116,0.037-0.256-0.055-0.348l-1.374-1.374l1.918,0.303c0.129,0.021,0.255-0.044,0.314-0.16l0.882-1.73l0.303,1.918   c0.021,0.128,0.121,0.229,0.25,0.25l1.918,0.303L27.776,73.847z"></path><path d="M50,22.306L50,22.306c-7.397,0-14.352,2.88-19.582,8.111c-5.23,5.23-8.111,12.184-8.111,19.582s2.88,14.352,8.111,19.582   c5.399,5.399,12.49,8.098,19.582,8.098c7.091,0,14.183-2.699,19.582-8.098c5.23-5.23,8.111-12.184,8.111-19.581   s-2.88-14.351-8.111-19.581C64.352,25.188,57.398,22.306,50,22.306z M69.159,69.157c-10.563,10.563-27.751,10.563-38.316,0   c-5.117-5.117-7.935-11.921-7.935-19.158c0-7.237,2.818-14.041,7.935-19.158C35.96,25.724,42.764,22.906,50,22.906   c7.237,0,14.041,2.818,19.158,7.936c5.117,5.117,7.935,11.92,7.935,19.157C77.094,57.236,74.275,64.04,69.159,69.157z"></path><path d="M36.371,30.102l-0.339-0.495c-0.417,0.286-0.826,0.586-1.229,0.9l0.37,0.473C35.565,30.673,35.965,30.38,36.371,30.102z"></path><path d="M34.031,31.93l-0.397-0.449c-0.377,0.334-0.747,0.682-1.108,1.043l-0.051,0.051l0.475,0.373   C33.303,32.595,33.664,32.256,34.031,31.93z"></path><path d="M38.918,28.576l-0.275-0.533c-0.45,0.232-0.894,0.479-1.331,0.742l0.309,0.515C38.047,29.044,38.479,28.803,38.918,28.576z   "></path><path d="M41.634,27.377l-0.208-0.563c-0.475,0.175-0.946,0.366-1.411,0.571l0.242,0.549C40.712,27.734,41.171,27.548,41.634,27.377   z"></path><path d="M28.547,38.974L28.014,38.7c-0.233,0.452-0.451,0.911-0.653,1.374l0.55,0.24C28.108,39.862,28.32,39.416,28.547,38.974z"></path><path d="M27.357,41.692l-0.563-0.206c-0.174,0.477-0.334,0.958-0.479,1.443L26.89,43.1C27.031,42.627,27.187,42.157,27.357,41.692z   "></path><path d="M30.064,36.425l-0.495-0.338c-0.288,0.42-0.561,0.848-0.818,1.282l0.516,0.307C29.518,37.253,29.784,36.836,30.064,36.425z   "></path><path d="M26.511,44.535L25.926,44.4c-0.114,0.494-0.213,0.992-0.297,1.492l0.592,0.099C26.302,45.503,26.399,45.018,26.511,44.535z   "></path><path d="M44.476,26.523l-0.137-0.584c-0.493,0.115-0.983,0.246-1.47,0.393l0.173,0.574C43.517,26.764,43.995,26.636,44.476,26.523z   "></path><path d="M69.002,34.196c-0.323-0.387-0.66-0.767-1.01-1.139l-0.437,0.411c0.342,0.363,0.67,0.734,0.986,1.112L69.002,34.196z"></path><path d="M64.577,30.039c-0.411-0.301-0.83-0.587-1.254-0.86l-0.324,0.505c0.415,0.266,0.822,0.545,1.224,0.839L64.577,30.039z"></path><path d="M62.019,28.398c-0.445-0.248-0.896-0.481-1.352-0.699l-0.259,0.541c0.444,0.213,0.884,0.44,1.318,0.682L62.019,28.398z"></path><path d="M66.916,31.982c-0.372-0.349-0.752-0.685-1.139-1.007l-0.384,0.461c0.378,0.314,0.749,0.642,1.112,0.983L66.916,31.982z"></path><path d="M26.021,47.462L25.424,47.4c-0.053,0.504-0.09,1.011-0.113,1.517l0.6,0.026C25.932,48.449,25.969,47.955,26.021,47.462z"></path><path d="M59.275,27.086c-0.471-0.191-0.947-0.367-1.428-0.527l-0.189,0.569c0.468,0.156,0.932,0.327,1.392,0.513L59.275,27.086z"></path><path d="M53.409,25.521c-0.502-0.069-1.007-0.124-1.512-0.163l-0.046,0.599c0.494,0.038,0.986,0.09,1.476,0.159L53.409,25.521z"></path><path d="M47.403,26.026l-0.064-0.597c-0.503,0.054-1.006,0.124-1.507,0.209l0.101,0.592C46.421,26.147,46.911,26.079,47.403,26.026   z"></path><path d="M50,25.886l0.367,0.003l0.01-0.6L50,25.286c-0.382,0-0.763,0.009-1.145,0.026l0.028,0.6   C49.256,25.895,49.628,25.886,50,25.886z"></path><path d="M56.391,26.122c-0.491-0.13-0.984-0.246-1.481-0.346l-0.119,0.588c0.485,0.098,0.967,0.211,1.446,0.338L56.391,26.122z"></path><path d="M31.885,34.083l-0.45-0.396c-0.337,0.383-0.661,0.774-0.97,1.172l0.474,0.368C31.241,34.838,31.556,34.456,31.885,34.083z"></path><path d="M70.716,62.353l0.516,0.308c0.261-0.438,0.507-0.881,0.739-1.33l-0.533-0.275C71.211,61.494,70.971,61.926,70.716,62.353z"></path><path d="M69.041,64.8l0.474,0.369c0.313-0.402,0.612-0.812,0.897-1.228l-0.495-0.339C69.638,64.008,69.347,64.407,69.041,64.8z"></path><path d="M72.077,59.717l0.549,0.241c0.205-0.465,0.395-0.936,0.569-1.411l-0.563-0.207C72.462,58.803,72.276,59.262,72.077,59.717z   "></path><path d="M67.076,67.025l0.425,0.424c0.361-0.362,0.708-0.732,1.041-1.109l-0.449-0.397C67.767,66.311,67.428,66.672,67.076,67.025z   "></path><path d="M73.101,56.932l0.575,0.172c0.145-0.486,0.275-0.977,0.391-1.47l-0.584-0.137C73.37,55.979,73.243,56.458,73.101,56.932z"></path><path d="M64.856,68.997l0.37,0.472c0.397-0.311,0.787-0.636,1.168-0.976l-0.398-0.448C65.624,68.375,65.243,68.692,64.856,68.997z"></path><path d="M59.776,72.049l0.243,0.549c0.463-0.205,0.92-0.425,1.372-0.66l-0.276-0.532C60.674,71.634,60.228,71.849,59.776,72.049z"></path><path d="M62.411,70.68l0.309,0.515c0.433-0.26,0.86-0.535,1.28-0.824l-0.341-0.494C63.25,70.158,62.833,70.426,62.411,70.68z"></path><path d="M56.994,73.081l0.174,0.574c0.484-0.146,0.965-0.308,1.442-0.485l-0.209-0.563C57.936,72.781,57.466,72.938,56.994,73.081z   "></path><path d="M73.774,54.042l0.592,0.1c0.084-0.5,0.154-1.002,0.208-1.507l-0.597-0.063C73.924,53.063,73.857,53.554,73.774,54.042z"></path><path d="M72.288,39.307c-0.218-0.457-0.452-0.907-0.701-1.353l-0.523,0.293c0.242,0.434,0.47,0.874,0.684,1.318L72.288,39.307z"></path><path d="M70.804,36.65c-0.273-0.425-0.561-0.843-0.863-1.255l-0.483,0.355c0.294,0.401,0.575,0.809,0.841,1.224L70.804,36.65z"></path><path d="M73.432,42.125c-0.161-0.479-0.337-0.956-0.528-1.427l-0.556,0.226c0.187,0.46,0.358,0.924,0.516,1.393L73.432,42.125z"></path><path d="M74.114,49.999c0,0.364-0.008,0.729-0.025,1.092l0.6,0.027c0.017-0.373,0.025-0.746,0.025-1.12l-0.003-0.401l-0.6,0.009   L74.114,49.999z"></path><path d="M25.891,50.428l-0.6,0.011c0.009,0.506,0.034,1.014,0.074,1.519l0.598-0.047C25.923,51.417,25.899,50.922,25.891,50.428z"></path><path d="M74.041,48.123l0.599-0.046c-0.039-0.506-0.094-1.01-0.165-1.513l-0.594,0.083C73.95,47.137,74.003,47.63,74.041,48.123z"></path><path d="M73.631,45.183l0.588-0.119c-0.101-0.497-0.217-0.991-0.349-1.481l-0.579,0.155C73.419,44.217,73.532,44.699,73.631,45.183   z"></path><path d="M32.47,66.556l-0.437,0.411c0.161,0.171,0.325,0.339,0.492,0.507c0.193,0.192,0.388,0.382,0.586,0.567l0.41-0.438   c-0.193-0.181-0.384-0.366-0.572-0.554C32.787,66.887,32.627,66.722,32.47,66.556z"></path><path d="M30.082,64.633c0.3,0.407,0.613,0.806,0.94,1.198l0.46-0.385c-0.319-0.382-0.625-0.771-0.917-1.168L30.082,64.633z"></path><path d="M36.709,70.84c0.429,0.274,0.865,0.533,1.306,0.778l0.291-0.524c-0.431-0.239-0.855-0.493-1.275-0.76L36.709,70.84z"></path><path d="M28.432,62.076c0.247,0.441,0.509,0.876,0.786,1.305l0.504-0.325c-0.27-0.417-0.525-0.842-0.766-1.272L28.432,62.076z"></path><path d="M34.252,69.047c0.393,0.325,0.793,0.637,1.201,0.934l0.354-0.484c-0.397-0.291-0.788-0.594-1.171-0.912L34.252,69.047z"></path><path d="M26.125,53.387l-0.594,0.084c0.07,0.501,0.157,1.001,0.258,1.499l0.588-0.12C26.278,54.364,26.194,53.876,26.125,53.387z"></path><path d="M54.104,73.763l0.102,0.591c0.5-0.086,0.997-0.187,1.491-0.304l-0.138-0.584C55.077,73.58,54.592,73.679,54.104,73.763z"></path><path d="M27.112,59.334c0.191,0.468,0.396,0.933,0.617,1.392l0.541-0.261c-0.216-0.447-0.417-0.9-0.603-1.357L27.112,59.334z"></path><path d="M26.72,56.295l-0.579,0.156c0.132,0.488,0.279,0.974,0.441,1.456l0.568-0.191C26.992,57.246,26.849,56.771,26.72,56.295z"></path><path d="M48.141,74.643c0.505,0.038,1.013,0.06,1.52,0.067l0.008-0.6c-0.495-0.007-0.989-0.029-1.483-0.066L48.141,74.643z"></path><path d="M39.367,72.315c0.459,0.219,0.924,0.422,1.393,0.611l0.224-0.557c-0.458-0.184-0.911-0.383-1.359-0.597L39.367,72.315z"></path><path d="M42.188,73.45c0.482,0.161,0.968,0.306,1.458,0.435l0.153-0.58c-0.477-0.126-0.952-0.268-1.422-0.424L42.188,73.45z"></path><path d="M45.127,74.229c0.498,0.1,0.998,0.184,1.5,0.253l0.081-0.595c-0.49-0.067-0.978-0.149-1.463-0.246L45.127,74.229z"></path><path d="M51.154,74.085l0.028,0.6c0.506-0.024,1.012-0.064,1.516-0.119l-0.064-0.597C52.141,74.023,51.647,74.062,51.154,74.085z"></path><path d="M78.637,21.362C70.988,13.713,60.818,9.5,50,9.5h0c-10.817,0-20.988,4.213-28.637,11.862   C5.571,37.152,5.57,62.847,21.361,78.638c7.896,7.896,18.267,11.843,28.638,11.843s20.743-3.948,28.638-11.844   C86.287,70.988,90.5,60.818,90.5,50C90.5,39.182,86.287,29.012,78.637,21.362z M77.93,77.93   c-15.4,15.402-40.46,15.401-55.862,0.001C6.667,62.529,6.668,37.47,22.069,22.069C29.53,14.608,39.449,10.5,50,10.5   s20.47,4.109,27.93,11.569C85.391,29.53,89.5,39.449,89.5,50C89.5,60.551,85.391,70.47,77.93,77.93z"></path><rect x="22.996" y="43.321" transform="matrix(-0.7071 0.7071 -0.7071 -0.7071 105.3095 43.6206)" width="41.25" height="0.599"></rect><rect x="35.755" y="56.08" transform="matrix(0.7071 -0.7071 0.7071 0.7071 -23.3531 56.3794)" width="41.25" height="0.599"></rect></g></svg>