<svg height='100px' width='100px'  fill="#000000" xmlns="http://www.w3.org/2000/svg" viewBox="0 0 64 64" x="0px" y="0px"><title>a</title><g data-name="One Voice"><path d="M48.93,47.63l-4-10A1,1,0,0,0,44,37H14a1,1,0,0,0-.93.63l-4,10A1,1,0,0,0,9,48s0,0,0,0v8a1,1,0,0,0,1,1H48a1,1,0,0,0,1-1V48s0,0,0,0A1,1,0,0,0,48.93,47.63ZM14.68,39H43.32l3.2,8h-35ZM47,55H11V49H47Z"></path><path d="M38,40.76A1,1,0,0,0,37,40H21a1,1,0,0,0-1,.76l-1,4a1,1,0,0,0,.18.86A1,1,0,0,0,20,46H38a1,1,0,0,0,.79-.38,1,1,0,0,0,.18-.86ZM21.28,44l.5-2H36.22l.5,2Z"></path><path d="M54.75,16.34l-8-9a1,1,0,0,0-1-.31l-8,2a1,1,0,0,0-.62.47l-1.21-.3a4,4,0,0,0-1.84,0l-7,1.56a4,4,0,0,0-2.61,1.92l-2.83,4.95a4,4,0,0,0-.48,2.55L22,26.11,20.3,29.06a1.05,1.05,0,0,0-.1.76,1,1,0,0,0,.47.61l8.66,5a1,1,0,0,0,1.37-.37l7-12.12a1,1,0,0,0,.11-.59l.44-.3.21.05c.89.25,2.53.71,4.31-1.47.35-.42.94-1.31,1.41-2l1.11,1.12A1,1,0,0,0,46,20a1,1,0,0,0,.24,0l8-2a1,1,0,0,0,.51-1.63Zm-22.7,2.18-2-1.15.34-.11a1,1,0,0,1,.87.11l.37.25a1,1,0,0,1,.43.68A.54.54,0,0,1,32.05,18.52Zm2.27,6.27L29.46,33.2l-6.92-4,6-10.4L31,20.2l-.77,1a2.73,2.73,0,0,0,3.41,4.11l.1-.06Zm6.91-5.42c-1,1.16-1.46,1-2.23.81a1.87,1.87,0,0,0-1.57,0l-4.81,3.36a.75.75,0,0,1-.82-.15.73.73,0,0,1-.05-1l1.5-1.88h0l.17-.21A3,3,0,0,0,34,18a3,3,0,0,0-1.3-2l-.37-.25a3,3,0,0,0-1.66-.5,3.09,3.09,0,0,0-.95.15l-2.08.69a1,1,0,0,0-.55.46l-3.56,6.41-.43-3a2,2,0,0,1,.24-1.28l2.83-5a2,2,0,0,1,1.3-1l7-1.56a2,2,0,0,1,.91,0l2.83.71,4.49,5.24C42.27,17.87,41.56,19,41.23,19.37Zm5.08-1.48-1.55-1.54h0l-4.82-5.79,5.72-1.43,6.51,7.31Z"></path></g></svg>