<svg height='100px' width='100px'  fill="#000000" xmlns="http://www.w3.org/2000/svg" xmlns:xlink="http://www.w3.org/1999/xlink" version="1.1" x="0px" y="0px" viewBox="0 0 100 100" style="enable-background:new 0 0 100 100;" xml:space="preserve"><style type="text/css">
	.st0{fill:#000000;}
	.st1{fill:#000000;}
</style><path class="st0" d="M45.6,9.1h9.5c1.4,0,2.4,1.3,2.2,2.6l-6.2,45.5l-7.6-45.4C43.1,10.5,44.2,9.1,45.6,9.1z"></path><path class="st1" d="M52.1,78.4c1.4,2.7,0.3,4.6,0.2,5.5c0,0.6,0.4,0.9,1.5,2.1c0.9,0.9,2.7,0.1,3.9-0.7c0.8-0.4,1-2.1,0.9-2.9  c-0.1-0.8-0.1-0.8-1.5-2.2c-0.8-1.4-0.2-2,0.5-1.9c1.7,0.5,2.7,2.6,3.8,3.3c1.4,0.4,4.5,0.3,4.8-0.4c0.3-0.7,0.7-1.7,0.1-2.7  c-0.6-1.1-5.8-7.1-6.2-8.4c-0.3-1.3,0-2,1-1.9c1,0.1,5.1,6.7,6.4,8.1c1.3,1.4,1.7,2,2.9,2.4c1.2,0.2,2.9-1.4,3.8-2.5  c0.9-1.4-0.3-3.6-0.7-4.1c-0.8-1.4-5.6-6.8-6-7.6c-1-1.6,0.1-2.5,0.8-2.4c1-0.1,5.4,6.2,6.5,7.6c1.3,1.4,2,2.3,3.2,2.4  c1.2,0.4,2.7-1.2,3.4-2.8c0.7-1.7-2.1-6.8-3.2-8.2c-1.1-1.4-5.6-7.3-7.3-9c-3.6-3.5-9.8-9.3-11.6-10.8c-0.8-0.6-2.1-1.2-3.2-1.3  l-5,37.7C51.6,77.7,51.8,78,52.1,78.4z"></path><path class="st1" d="M94.5,48.6c-1.7-4.5-2.7-7.6-4.6-10.4c-1.9-2.8-4.4-4.4-5-3.9c-0.6,0.4-7.3,2-9,1.6c-1.7-0.2-10.4-4.9-11.6-5.6  c-1.4-0.4-4-0.3-4.7-0.4c-0.2,0-0.9,0.1-1.9,0.3l-1,7.3c1.6-0.7,4,0,8,3.3c4.3,3.3,9.4,8.5,13.8,13.4c1.1,1.2,5.5,2,8.8,1.7  c-2.8,1.9-5.8,2.2-4.5,3.4c3.5,4,2.9,6.4,3.2,6c1.2-1.1,7-3.3,7.8-3.7C94.6,61.2,95.7,52.6,94.5,48.6z"></path><path class="st1" d="M43.3,41.1c-0.8,1.1-2.6,5.7-4.5,8.3c-1.9,2.3-5.4,3.9-8.2,2.6c-2.8-1.6-3.7-4.4-3-5.8c1.9-3.6,2-6.6,2.2-8.4  c0.5-1.8,1.7-3.8,2.3-4.7c0.8-1.1,5.1-2.8,5.4-3.9c0.4-0.6-2.2-0.9-4.4-0.8c-2,0.3-5,3.3-5.7,3.9c-3,3-6,3.7-7.6,4.3  c-1.7,0.3-3.6-0.2-6.5-1c-2.9-0.5-6.2,7-7.6,13.6c-1.5,6.5-0.7,14.5,1.3,14.4c1.9,1,5.5,1.4,8,2.5c0.8,0.4,3.3,1.7,3.3,1.7  s2.8-1.5,5.8-1.4c3.5-0.1,4.9,5.5,5.4,3.7c0.8-2.7,4-4.7,6.9-4.4c5.1,0.4,3.6,5.2,4.6,5.3c1,0.1,3.7-3.4,7-1.6  c4.2,2.4,0.8,6.4,1.7,7.5c0.5,0.6,0.8,0.5,1.5,0.8l-6.1-37.5C44.5,40.2,43.7,40.5,43.3,41.1z"></path><path class="st1" d="M35.2,36.1c-1.3,1.5-1.5,6.5-1.6,7.1c0.1,0.5-2.3,4.7-2.3,4.7s0.1,0.7,1.7,1.2c1.9,0.7,2.8,0.3,3.9-0.6  c2.6-2.4,2.7-5,3.8-6.4c1-1.9-0.4-7.2-0.4-7.2c1.5-0.2,2.8,4.8,4.3,3.3c0.1-0.1,0.2-0.2,0.3-0.3l-1.2-7.3C41,32,36,35,35.2,36.1z"></path><path class="st1" d="M20.1,80.1c4,2.6,5.1-2.8,6.1-2.5c1.1,0.6-3.4,4.1,1.6,6.8c4.2,2.4,6.2-2,6.5-1.8c0.2,0-1.5,3,1.2,4.6  c3.6,1.9,4.8-1.5,5.4-1.1c0.3,0.5-1.4,2.5,1.2,4.1c2.2,1.4,5.2-0.8,6.4-2.3c1.5-1.5,2.2-2.1,2.5-3.4c0.3-1.1-0.1-3.8-1.5-4.5  c-1.4-0.8-2.5,0.4-3.6,1.1c-0.9,0.9,1.2-2,1.6-4c0.4-2.1-0.1-3.8-2-4.7c-1.9-0.7-5.2,0.8-6.5,3.6c-0.8,1.4-1.7,0.3-1.4-0.8  c0.9-2.2-0.2-4.5-3.3-5c-3.1-0.5-4.3,1.4-5.5,4.7c-0.7,1.9-1.4,0.7-1.3-0.3c0.1-2.3-1.4-4.3-3.3-4.8c-3.2-1-5.1,1.1-6.4,2.8  C16.3,75.2,17,78.1,20.1,80.1z"></path></svg>