<svg height='100px' width='100px'  fill="#000000" xmlns="http://www.w3.org/2000/svg" xmlns:xlink="http://www.w3.org/1999/xlink" version="1.1" x="0px" y="0px" viewBox="0 0 100 100" style="enable-background:new 0 0 100 100;" xml:space="preserve"><style type="text/css">
	.st0{fill:none;stroke:#000000;stroke-width:2;stroke-linecap:round;stroke-linejoin:round;stroke-miterlimit:10;}
	.st1{fill:none;stroke:#000000;stroke-width:2;stroke-miterlimit:10;}
</style><path d="M77.4,16.9H76c-0.1,0-0.2,0-0.3,0.1c-0.6-1.2-1.8-2-3.3-2H29.6c-1.4,0-2.6,0.8-3.3,2c0,0,0,0,0,0H25c-1.2,0-2.2,1-2.2,2.2  v6.3c0,1.2,1,2.2,2.2,2.2h1.4c0,0,0,0,0,0c0.5,1,1.4,1.7,2.5,1.9v40.4c-1.1,0.2-2,0.9-2.5,1.9c0,0,0,0,0,0H25c-1.2,0-2.2,1-2.2,2.2  v6.3c0,1.2,1,2.2,2.2,2.2h1.4c0,0,0,0,0,0c0.6,1.2,1.8,2,3.3,2h42.8c1.4,0,2.7-0.8,3.3-2c0.1,0,0.2,0.1,0.3,0.1h1.4  c1.2,0,2.2-1,2.2-2.2v-6.3c0-1.2-1-2.2-2.2-2.2H76c-0.1,0-0.2,0-0.3,0.1c-0.5-1-1.4-1.7-2.6-1.9V29.6c1.1-0.2,2.1-1,2.6-1.9  c0.1,0,0.2,0.1,0.3,0.1h1.4c1.2,0,2.2-1,2.2-2.2v-6.3C79.6,17.9,78.6,16.9,77.4,16.9z M24.7,25.4v-6.3c0-0.1,0.1-0.2,0.2-0.2h1v6.8  h-1C24.8,25.7,24.7,25.6,24.7,25.4z M71.2,29.6v40.2H30.9V29.6H71.2z M24.7,80.4v-6.3c0-0.1,0.1-0.2,0.2-0.2h1v6.8h-1  C24.8,80.6,24.7,80.5,24.7,80.4z M77.6,74.1v6.3c0,0.1-0.1,0.2-0.2,0.2h-1.2v-6.8h1.2C77.5,73.8,77.6,73.9,77.6,74.1z M74.2,73.6  v7.3c0,0.9-0.8,1.7-1.7,1.7H29.6c-0.9,0-1.7-0.8-1.7-1.7v-7.3c0-0.9,0.8-1.7,1.7-1.7h42.8C73.4,71.9,74.2,72.6,74.2,73.6z   M74.2,25.9c0,0.9-0.8,1.7-1.7,1.7H29.6c-0.9,0-1.7-0.8-1.7-1.7v-7.3c0-0.9,0.8-1.7,1.7-1.7h42.8c0.9,0,1.7,0.8,1.7,1.7V25.9z   M77.6,25.4c0,0.1-0.1,0.2-0.2,0.2h-1.2v-6.8h1.2c0.1,0,0.2,0.1,0.2,0.2V25.4z"></path><path d="M35.7,37.3h30.6c0.6,0,1-0.4,1-1s-0.4-1-1-1H35.7c-0.6,0-1,0.4-1,1S35.1,37.3,35.7,37.3z"></path><path d="M35.7,43.6h30.6c0.6,0,1-0.4,1-1s-0.4-1-1-1H35.7c-0.6,0-1,0.4-1,1S35.1,43.6,35.7,43.6z"></path><path d="M35.7,50h30.6c0.6,0,1-0.4,1-1s-0.4-1-1-1H35.7c-0.6,0-1,0.4-1,1S35.1,50,35.7,50z"></path><path d="M35.7,56.4h30.6c0.6,0,1-0.4,1-1s-0.4-1-1-1H35.7c-0.6,0-1,0.4-1,1S35.1,56.4,35.7,56.4z"></path><path d="M66.3,60.8H35.7c-0.6,0-1,0.4-1,1s0.4,1,1,1h30.6c0.6,0,1-0.4,1-1S66.8,60.8,66.3,60.8z"></path></svg>