<svg height='100px' width='100px'  fill="#000000" xmlns="http://www.w3.org/2000/svg" xmlns:xlink="http://www.w3.org/1999/xlink" version="1.1" x="0px" y="0px" viewBox="0 0 64 64" style="enable-background:new 0 0 64 64;" xml:space="preserve"><path d="M50,36c-0.338,0-0.669,0.025-1,0.051v-9.477l1.808-2.013c1.221-1.359,2.338-2.83,3.321-4.37l8.713-13.652  c0.273-0.427,0.183-0.99-0.209-1.312c-0.393-0.321-0.962-0.3-1.327,0.053l-1.651,1.588C58.75,4.054,56.096,2,53,2H17.05  c-4.951,0-8.988,4.032-9,8.989L8.001,49H4.94c-0.74,0-1.426,0.375-1.811,0.985c-0.017,0.022-0.032,0.046-0.046,0.07  c-1.802,3.003-1.329,6.832,1.15,9.312C5.906,61.04,8.227,62,10.6,62H44c0.794,0,1.563-0.197,2.261-0.554  C47.446,61.803,48.7,62,50,62c7.168,0,13-5.832,13-13S57.168,36,50,36z M52.444,19.114c-0.925,1.449-1.976,2.832-3.124,4.11  l-6.278,6.989l-1.945-1.52l7.177-7.989c0.514-0.572,1.053-1.13,1.601-1.656l6.76-6.502L52.444,19.114z M42.028,31.96l-0.776,2.969  l-6.013,2.436l1.925-6.585l2.293-0.828L42.028,31.96z M49,17.116V15.07c0-0.023,0.003-0.047,0.003-0.07H51.2L49,17.116z   M53.403,4.041c2.391,0.197,4.312,2.088,4.542,4.472L53.279,13h-4.128C49.58,9.646,51.063,6.515,53.403,4.041z M10.05,10.992  C10.059,7.137,13.199,4,17.05,4h33.738c-2.213,2.853-3.526,6.306-3.744,9.916C47.011,14.305,47,14.682,47,15.07v4.077  c-0.07,0.076-0.146,0.145-0.214,0.222l-7.724,8.599l-3.054,1.103c-0.3,0.108-0.53,0.354-0.62,0.66l-2.647,9.055  c-0.107,0.367,0.005,0.765,0.289,1.021c0.188,0.17,0.427,0.259,0.671,0.259c0.126,0,0.254-0.024,0.375-0.073l8.393-3.399  c0.292-0.118,0.512-0.368,0.592-0.674l1.008-3.856L47,28.8v7.563C41.276,37.723,37,42.866,37,49H10.001L10.05,10.992z M10.6,60  c-1.847,0-3.652-0.746-4.953-2.047c-1.814-1.815-2.173-4.608-0.881-6.815c0.019-0.026,0.037-0.054,0.053-0.082  C4.837,51.022,4.886,51,4.94,51h32.23c0.589,3.789,2.812,7.036,5.933,9H10.6z M50,60c-6.065,0-11-4.935-11-11s4.935-11,11-11  s11,4.935,11,11S56.065,60,50,60z"></path><path d="M47.853,53.602l-4.228-3.383l-1.249,1.562l5,4C47.56,55.929,47.78,56,48,56c0.29,0,0.577-0.125,0.774-0.367l9-11  l-1.548-1.266L47.853,53.602z"></path><rect x="17" y="9" width="27" height="2"></rect><rect x="13" y="16" width="31" height="2"></rect><rect x="13" y="23" width="27" height="2"></rect><rect x="12" y="30" width="21" height="2"></rect><rect x="12" y="37" width="18" height="2"></rect><rect x="30" y="41" width="2" height="2"></rect><rect x="12" y="44" width="15" height="2"></rect></svg>