<svg height='100px' width='100px'  fill="#000000" xmlns="http://www.w3.org/2000/svg" data-name="Layer 1" viewBox="0 0 64 64" x="0px" y="0px"><title>politic election vote box_1</title><path d="M24.59,12H37.41l2.3-2.29a1,1,0,0,0,0-1.42l-6-6a1,1,0,0,0-1.42,0l-8,8a1,1,0,0,0,0,1.42Z"></path><path d="M32,32A10,10,0,1,0,42,42,10,10,0,0,0,32,32Zm5.72,9.52-2.15,2.2.51,3.12a1,1,0,0,1-.41,1,1,1,0,0,1-.58.18,1,1,0,0,1-.48-.12L32,46.43l-2.61,1.45a1,1,0,0,1-1.47-1l.51-3.12-2.15-2.2a1,1,0,0,1-.23-1,1,1,0,0,1,.8-.67l2.93-.45,1.31-2.8a1,1,0,0,1,1.82,0l1.31,2.8,2.93.45a1,1,0,0,1,.8.67A1,1,0,0,1,37.72,41.52Z"></path><path d="M32.64,40.72,32,39.35l-.64,1.37a1,1,0,0,1-.75.56l-1.53.23,1.14,1.17a1,1,0,0,1,.27.86l-.26,1.59,1.29-.71a1,1,0,0,1,1,0l1.29.71-.26-1.59a1,1,0,0,1,.27-.86l1.14-1.17-1.53-.23A1,1,0,0,1,32.64,40.72Z"></path><path d="M49,14H15a5,5,0,0,0-1,9.9V57a5,5,0,0,0,5,5H45a5,5,0,0,0,5-5V23.9A5,5,0,0,0,49,14ZM32,54A12,12,0,1,1,44,42,12,12,0,0,1,32,54Z"></path></svg>