<svg height='100px' width='100px'  fill="#000000" xmlns="http://www.w3.org/2000/svg" viewBox="0 0 100 100" x="0px" y="0px"><title>Artboard 1</title><path d="M96.2587,84.19027a21.00813,21.00813,0,0,0-2.15183-4.53432,22.12359,22.12359,0,0,0-4.95345-5.30729,29.48416,29.48416,0,0,0-5.30729-3.18436c-3.58867-1.8448-4.15318-1.68819-8.66855-3.892a35.44192,35.44192,0,0,1-5.70484-3.31815,17.155,17.155,0,0,1-3.12829-2.73725c-.70789-.81059-.75548-1.04382-2.05294-2.6395-.61766-.75959-1.1198-1.37716-1.75966-2.05293a27.245,27.245,0,0,0-3.3747-2.80674s-.48383,1.52661-.70735,2.38436c-.10852.41749-.24382.93691-.43108,1.55525a19.88767,19.88767,0,0,1-1.65418,4.14414A17.80977,17.80977,0,0,1,54.157,64.645c-.544.62694-1.45173,1.62-3.66539,3.75782-1.79088,1.72972-2.68981,2.59768-3.28307,3.07373a23.24027,23.24027,0,0,1-4.95131,3.0152,20.16532,20.16532,0,0,1-3.56069-2.5985,23.44585,23.44585,0,0,1-3.516-4.16732c-.26361-.37812-.34744-.51842-.53111-.82579-.19065-.31924-.49366-.82646-1.20793-1.95a.58154.58154,0,0,0-.17649-.277c-.05046-.079-.10216-.15994-.15633-.24454-.17437-.2724-.32816-.511-.465-.72366A14.95084,14.95084,0,0,1,31.443,61.65938a10.76623,10.76623,0,0,1-.89834-3.32534.58532.58532,0,0,0-1.16414.12311,11.933,11.933,0,0,0,.99666,3.68627,9.26765,9.26765,0,0,0,.48711.93269c-1.97686.744-3.62693,1.27169-4.79655,1.62285-1.81576.54515-2.33293.6227-3.76939,1.10576a34.60528,34.60528,0,0,0-4.50227,1.84184,28.02929,28.02929,0,0,0-5.73016,3.68368,21.131,21.131,0,0,0-4.093,4.29762,22.51979,22.51979,0,0,0-2.45578,4.84334,58.5817,58.5817,0,0,0-2.59222,8.73168c-.60378,2.51227-1.33375,5.66949-2.1147,9.34563l22.52025-.12483c.28207-1.69577.69491-4.69041,1.27086-7.42753.50886-2.41827.88843-4.22217,1.56414-6.64761,1.02187-3.66794,2.06938-6.41848,2.34623-7.13641.78978-2.04822,1.166-2.79107,1.81864-4.385q-.03144.56585-.03213,1.13176a21.195,21.195,0,0,0,1.61391,8.14418.58527.58527,0,0,0,.98737.15549,28.11093,28.11093,0,0,1,3.9445-3.81793,16.0437,16.0437,0,0,1-.53764,6.00788c-.33556.43694-.84536,1.12212-1.42707,1.9979-.5555.83633-.64381,1.05854-1.35571,2.14059-.91911,1.397-1.03551,1.48816-1.42707,2.1406a19.43334,19.43334,0,0,0-1.28436,2.64007c-.52992,1.24438-1.21668,2.90415-1.99789,4.92338H40.80161c.06239-.423.14482-1.03848.21407-1.78383.12346-1.3288.09562-1.89271.14271-3.56767.08856-3.15075.25621-3.615,0-4.92338a10.66436,10.66436,0,0,0-.57083-1.92654,10.04284,10.04284,0,0,1,2.97572-5.53217,9.00909,9.00909,0,0,1,.84416-.68343,22.09654,22.09654,0,0,0,3.08186,3.16755.5848.5848,0,0,0,.37632.1371.59247.59247,0,0,0,.08384-.006.58553.58553,0,0,0,.4041-.25621c.68586-1.03551,1.36836-2.07835,2.04348-3.11982l-1.45371,4.19811a45.7102,45.7102,0,0,1-1.36863,5.279c-.47672,1.46918-.94344,2.62876-1.85743,4.888-.79586,1.96723-1.16548,2.84465-1.71456,4.10475,18.02025-.19552,36.78709.24126,54.80734.04574A82.39376,82.39376,0,0,0,96.2587,84.19027Zm-63.60753-3.423a20.00023,20.00023,0,0,1-1.18243-6.80717,20.274,20.274,0,0,1,1.49288-7.57642c.35724.57181.54844.8919.68281,1.1168.19216.32156.28859.483.57577.89494a24.45817,24.45817,0,0,0,3.68548,4.36078,21.10043,21.10043,0,0,0,2.48284,1.94972,29.094,29.094,0,0,0-7.73735,6.06136Zm18.316-4.02143C49.9182,78.3922,48.836,80.06077,47.745,81.71435a20.82659,20.82659,0,0,1-4.77217-6.26,24.32858,24.32858,0,0,0,4.96823-3.06473c.63523-.50962,1.54716-1.39037,3.36921-3.14987,2.24114-2.1646,3.17106-3.18265,3.73084-3.82757.20414-.23526.38971-.44924.56175-.64918l-3.5621,10.28682C51.71471,75.56865,51.35886,76.13108,50.96713,76.74582Z"></path><path d="M62.09594,39.235a2.20331,2.20331,0,0,1,.31888.90348,3.90274,3.90274,0,0,1-.26573,1.48808c-.077.28815-.19077.7268-.31887,1.2755l.744-.5846c.08943-.35508.19725-.78539.31888-1.2755a3.65565,3.65565,0,0,0,.21259-1.32865c-.05748-.52478-.32851-1.126-.58461-1.11606C62.46531,38.59944,62.2836,38.6355,62.09594,39.235Z"></path><path d="M40.54375,54.45764c-.50848.006-.438-.28505-1.49781-.5973a11.42666,11.42666,0,0,0-1.12984-.2739c-.33923-.0645-.47194-.0752-.79207-.15668-.0482-.01227-.24836-.06171-.51558-.15059-.32086-.10672-.57667-.20885-.80231-.29878a5.03752,5.03752,0,0,0-.903-.27949,2.46446,2.46446,0,0,0-.47948-.06409,2.3962,2.3962,0,0,0-.41286.02429c-.53328.07742-.83265.303-.86521.25379-.03069-.04635.2079-.28789.49087-.45581a2.08417,2.08417,0,0,1,.61719-.23513,2.20194,2.20194,0,0,1,.80143-.02428,6.02463,6.02463,0,0,1,.87429.31571c.1908.06471.37815.116.75286.21858.17908.049.43605.11913.75286.19428.2966.07036.39975.0868.92286.19429.64708.133.97062.19943,1.13394.24818a5.477,5.477,0,0,1,1.01681.42075,2.76555,2.76555,0,0,1,.94668-.35063,5.91892,5.91892,0,0,1,1.15706-.03506,5.18713,5.18713,0,0,0,.57685.0023c.18631-.01062.34906-.03146.48082-.04778.136-.01685.28742-.03915.47637-.07213a11.278,11.278,0,0,0,1.23229-.28519,4.60071,4.60071,0,0,1,.71345-.161,3.28547,3.28547,0,0,1,.52843-.01907,2.4088,2.4088,0,0,1,1.28621.33743c.27982.18563.49056.44312.45581.49087-.03456.0475-.27386-.16505-.73631-.2805A4.27293,4.27293,0,0,0,46.602,53.291a3.4374,3.4374,0,0,0-.43942.01355,4.15858,4.15858,0,0,0-.65707.14913,11.63752,11.63752,0,0,1-1.27845.29578,9.9364,9.9364,0,0,1-.99766.12511c-.13307.01143-.27361.0235-.44378.04154-.41658.04417-.79348.0987-.9304.12274C40.99746,54.18939,41.02773,54.452,40.54375,54.45764Z"></path><path d="M50.32954,53.3766a2.29972,2.29972,0,0,0-.54277-.85293s-.7293-.90421-1.12851-.88456c-.03039.00149-.128.0063-.13816.04448a.05041.05041,0,0,0,.01463.04035,8.78428,8.78428,0,0,1,1.32958,1.85944c.27348.84746-.84082,1.81414-.681,1.9384.09014.07008.453-.23088.65516-.46516a1.9741,1.9741,0,0,0,.38769-.7237A1.77084,1.77084,0,0,0,50.32954,53.3766Z"></path><path d="M34.31409,46.34375a7.865,7.865,0,0,1-.72258,1.58063,5.45472,5.45472,0,0,1-1.22734,1.22652,7.10085,7.10085,0,0,1-1.04911.66877,7.62179,7.62179,0,0,1-1.649.64894c-.05212.01356-.09524.02414-.1239.03106a3.55884,3.55884,0,0,0,1.04429.04857,3.85687,3.85687,0,0,0,1.24062-.359,4.12643,4.12643,0,0,0,1.25314-.78769,3.90219,3.90219,0,0,0,.96671-1.468A2.9838,2.9838,0,0,0,34.31409,46.34375Z"></path><path d="M51.20425,50.74693c-.4673-.12141-.70489-.18342-.89773-.24726a6.24335,6.24335,0,0,1-1.04429-.43715,6.16632,6.16632,0,0,1-.72857-.46143,4.30722,4.30722,0,0,1-.60714-.51,6.11923,6.11923,0,0,1-.55857-.72857c-.41247-.5804-.48606-.7165-.51-.70429a6.49994,6.49994,0,0,0,.65572,1.50572,2.97823,2.97823,0,0,0,.99571,1.14142,4.23126,4.23126,0,0,0,1.55429.63143,4.316,4.316,0,0,0,2.0438.0585C52.10983,50.96609,51.98913,50.95085,51.20425,50.74693Z"></path><path d="M45.25341,54.64035c.03808-.03339.30624-.26848.27268-.31813a7.26505,7.26505,0,0,0-1.09074.45447,6.33372,6.33372,0,0,1-1.3407.34086A8.36051,8.36051,0,0,1,40.7664,55.16a6.06907,6.06907,0,0,1-1.42118-.247,5.65084,5.65084,0,0,0-.79533-.20452c-.22572-.04137-.50614-.09276-.52265-.04545a4.24725,4.24725,0,0,0,1.47269.72954,7.12671,7.12671,0,0,0,3.61849.23262A4.88128,4.88128,0,0,0,45.25341,54.64035Z"></path><path d="M32.59049,51.93213c-.06521-.05874-.40493.12921-.62476.418a2.08626,2.08626,0,0,0-.14135,1.79262c.02858.0996.10307.35922.16394.35251a6.82722,6.82722,0,0,1,.32634-1.94577C32.46513,52.21935,32.64918,51.985,32.59049,51.93213Z"></path><path d="M43.18991,46.14556a1.04893,1.04893,0,0,0-1.10535-.00593,4.073,4.073,0,0,1-.61616.4403c-.08221.04155-.15213.07067-.198.08868a5.55355,5.55355,0,0,1-1.38275.55657,1.38593,1.38593,0,0,1-.74375.0174,1.35391,1.35391,0,0,1-.39349-.19833c-.35083-.23425-.36873-.39631-.64616-.62031a1.82006,1.82006,0,0,0-.80124-.36185c-.24108-.04893-.78088-.109-.87878.10339-.05924.12855.06877.30171.08934.32953a.86581.86581,0,0,0,.58267.26493,2.71445,2.71445,0,0,0,.672.05169,7.19029,7.19029,0,0,0,.73883.514,2.53255,2.53255,0,0,0,.99287.44231,1.71168,1.71168,0,0,0,.672-.02585,2.49494,2.49494,0,0,0,.672-.31016c.18125-.10415.32445-.20065.42028-.26844a1.35489,1.35489,0,0,0,.56534-.004,3.98882,3.98882,0,0,0,.591-.24449,3.26084,3.26084,0,0,1,.46523-.18092c.33638-.06907.50456.03825.56862-.05169C43.52891,46.57782,43.39731,46.29827,43.18991,46.14556Z"></path><path d="M24.84071,37.16234a9.4192,9.4192,0,0,1,.10629,1.06292c.02614.60427-.3128.96675,0,1.48808a3.32883,3.32883,0,0,1,.10629,1.16921l.05315.58461-.42517-.6909a2.61535,2.61535,0,0,1-.42517-1.06292c0-.70034-.05994-1.32423,0-1.06292Z"></path><path d="M44.592,43.59846c-.20582-.33452-.53975-.76541-.6045-.72726-.09676.057.44995,1.13643.588,2.06619a1.89883,1.89883,0,0,1-.0404.80746,1.82539,1.82539,0,0,1-.15018.36893,9.0184,9.0184,0,0,1-.742,1.11926c-.01136.01258-.03392.04068-.02526.05932.0243.0523.2851.00446.47843-.09034a1.26489,1.26489,0,0,0,.44631-.41325,2.39879,2.39879,0,0,0,.41325-.71079,2.36657,2.36657,0,0,0,.13224-.8265,2.98778,2.98778,0,0,0-.152-.9351A3.2,3.2,0,0,0,44.592,43.59846Z"></path><path d="M36.6742,42.02866c.00591-.00935.02182-.034.01415-.04342-.02741-.03374-.34005.14564-.55974.34041a2.04358,2.04358,0,0,0-.51243.74385,2.76837,2.76837,0,0,0-.23142.9918,3.29363,3.29363,0,0,0,.10747,1.04693,2.12407,2.12407,0,0,0,.44091.95385c.0506.05774.18279.20857.23262.18093.07223-.04008-.12809-.3983-.23262-1.008a3.25761,3.25761,0,0,1-.036-.95881,3.17526,3.17526,0,0,1,.11349-.51443A10.72,10.72,0,0,1,36.6742,42.02866Z"></path><path d="M32.17016,38.1301c-.05953-.00264-.1787-.0087-.33067-.02362a2.67961,2.67961,0,0,1-.35429-.04724,1.20785,1.20785,0,0,1-.47239-.23619,6.61636,6.61636,0,0,0,1.88658-.05181,4.5079,4.5079,0,0,0,1.491-.46782,4.05107,4.05107,0,0,0,1.18492-.97381l-.24014.54866a3.20043,3.20043,0,0,1-.82668.75582,3.7059,3.7059,0,0,1-1.53526.496C32.668,38.15149,32.197,38.13129,32.17016,38.1301Z"></path><path d="M49.625,39.07488a5.435,5.435,0,0,1-.77944-.02362,3.96817,3.96817,0,0,1-1.34631-.35429,2.95537,2.95537,0,0,1-.73221-.47239,2.85015,2.85015,0,0,1-.42515-.47239,6.33516,6.33516,0,0,0,1.27915.632,5.70331,5.70331,0,0,0,1.32832.32206,7.43093,7.43093,0,0,0,3.068-.38472,2.98593,2.98593,0,0,1-.9516.56439A4.26351,4.26351,0,0,1,49.625,39.07488Z"></path><path d="M51.9468,34.519a4.45415,4.45415,0,0,0-.81859-.63953,4.02622,4.02622,0,0,0-1.38138-.51162,4.12765,4.12765,0,0,0-1.586.07674,6.34128,6.34128,0,0,0-1.1.35814,5.7212,5.7212,0,0,0-.92572.45193c-.07361.04562-.176.12171-.38077.27392-.2339.17386-.28252.2191-.30512.29739a.39876.39876,0,0,0,.12791.4093.46592.46592,0,0,0,.34706.04755c.24048-.03006.33659.03857,1.00611.24932.19408.06109.68762.19211,1.6747.45416a4.74023,4.74023,0,0,0,1.02185.1845,3.09023,3.09023,0,0,0,.88743-.06577,1.1697,1.1697,0,0,0,.46046-.16628c-.007-.0324-.32651.03546-.86317-.00051l-.01636-.00112a1.55649,1.55649,0,0,0,1.24216-1.50055c.17578.11844.34322.24191.50714.36383.45474.33822.7299.62394.76743.58836A2.57353,2.57353,0,0,0,51.9468,34.519Zm-3.51987,1.1659c-.22821-.05216-.4738-.11633-.976-.26533-.10891-.03231-.65465-.17323-.77028-.2096a1.258,1.258,0,0,1-.51112-.21435c-.07715-.06619-.18563-.16189-.17769-.274.00465-.06564.05157-.16836.64061-.419.21186-.09016.36442-.1438.66955-.25108a5.11364,5.11364,0,0,1,.80271-.23366c.10651-.02009.19589-.03257.25833-.04027a1.54856,1.54856,0,0,0,.76446,2.04538C48.95156,35.79475,48.7254,35.75317,48.42693,35.68494Zm1.5885-1.05079a.35814.35814,0,1,1,.35814-.35814A.35814.35814,0,0,1,50.01543,34.63416Z"></path><path d="M36.23161,34.16031a.364.364,0,0,0-.25893-.22362c-.12277-.09527-.29829-.22481-.51785-.36487a5.55835,5.55835,0,0,0-1.56827-.74113,4.22828,4.22828,0,0,0-2.14881-.05116A2.51765,2.51765,0,0,0,30.7145,33.24c-.4763.37515-.77145.92217-.69069.99766.1038.097.63884-.76157,1.67717-1.01695a1.55009,1.55009,0,0,0,1.186,2.115,7.11429,7.11429,0,0,0-1.12872.13244,2.20559,2.20559,0,0,0,1.17808.16309,4.83235,4.83235,0,0,0,.59715-.08294,5.93255,5.93255,0,0,0,.71325-.18245,3.95514,3.95514,0,0,0,.7929-.327c.03963-.02323.10951-.06586.22568-.13133.15823-.08916.19748-.1052.33074-.18225.1924-.11124.16142-.10717.23539-.14123.20976-.0966.29292-.05292.36487-.14125A.32851.32851,0,0,0,36.23161,34.16031Zm-2.62645-.15289a.35814.35814,0,1,1,.35814-.35814A.35814.35814,0,0,1,33.60517,34.00742Zm2.0262.36474a10.65921,10.65921,0,0,1-1.6443.73634,1.54022,1.54022,0,0,0,.6887-1.56809,4.39654,4.39654,0,0,1,1.01444.52574c.04649.05565.08557.08821.08485.13741C35.77386,34.2847,35.67787,34.34415,35.63137,34.37216Z"></path><path d="M51.38092,32.98429a7.7221,7.7221,0,0,0-3.60443-.29622A4.00486,4.00486,0,0,0,45.43128,33.814a.0384.0384,0,0,0-.00851.03251c.00962.02637.07275.02585.09325.02568.15944-.00131.58707-.33306.63829-.355a5.75194,5.75194,0,0,1,.709-.27637,6.64114,6.64114,0,0,1,1.03748-.23615,10.39854,10.39854,0,0,1,1.65879-.10956C50.7746,32.89646,51.37616,33.0166,51.38092,32.98429Z"></path><path d="M36.2988,33.40221a3.81726,3.81726,0,0,0-1.70406-1.11067,6.70879,6.70879,0,0,0-2.3792-.08411,10.79224,10.79224,0,0,0-1.64621.25234s-1.01633.23417-1.20079.6304a.06839.06839,0,0,0-.00566.05846c.02825.04781.17267.01133.22966-.00351a4.69764,4.69764,0,0,0,.89268-.409,2.81532,2.81532,0,0,1,.80508-.21629,7.10532,7.10532,0,0,1,1.59683-.05545,7.15105,7.15105,0,0,1,1.79173.17561,7.1215,7.1215,0,0,1,.98533.40855C36.0802,33.25808,36.29038,33.41452,36.2988,33.40221Z"></path><path d="M59.69288,32.38692l-.25381-.39331-3.09591,1.99812-1.0515.11688a3.5096,3.5096,0,0,0-.31269-.95246,4.15681,4.15681,0,0,0-1.61461-1.65168,6.2144,6.2144,0,0,0-2.2971-.857A9.02926,9.02926,0,0,0,48.79,30.47184a10.17076,10.17076,0,0,0-2.334.35044,5.94029,5.94029,0,0,0-1.94526.82789A4.97367,4.97367,0,0,0,43.34886,32.753a4.60851,4.60851,0,0,0-.34949.51273,4.73416,4.73416,0,0,1-.52526-.07656c-.16158-.03318-.26181-.06255-.368-.09373-.08424-.02468-.169-.04946-.28219-.07614a5.13359,5.13359,0,0,0-.92362-.12,8.633,8.633,0,0,0-1.056-.0002,7.52685,7.52685,0,0,0-1.20441.11831,5.87371,5.87371,0,0,0-.95243.27517,3.86985,3.86985,0,0,0-.23069-.41437,4.22167,4.22167,0,0,0-.95719-1.01885,6.31907,6.31907,0,0,0-1.85523-1.00306,9.17845,9.17845,0,0,0-2.162-.52591,8.02041,8.02041,0,0,0-2.81082.08893,5.83147,5.83147,0,0,0-2.21636.91832,4.21584,4.21584,0,0,0-1.11048,1.11278,3.587,3.587,0,0,0-.48484,1.12257,3.72574,3.72574,0,0,0-.0025,1.506,5.392,5.392,0,0,0,.44367,1.42235,6.88451,6.88451,0,0,0,1.11917,1.73752,7.12582,7.12582,0,0,0,2.20667,1.64828,5.80974,5.80974,0,0,0,1.83195.58976,5.39506,5.39506,0,0,0,.73725.05046,6.33213,6.33213,0,0,0,1.50818-.19685,6.59884,6.59884,0,0,0,1.73961-.6781,4.41961,4.41961,0,0,0,2.20067-2.4391,4.921,4.921,0,0,0,.47365-1.784,4.39575,4.39575,0,0,0-.15009-1.409c-.02787-.09955-.06-.19907-.09562-.29752a5.39214,5.39214,0,0,1,.85765-.246,7.10069,7.10069,0,0,1,1.13716-.11012,8.15379,8.15379,0,0,1,1.00246-.0002,4.69579,4.69579,0,0,1,.84647.10842c.10362.02448.18117.04727.25821.06985.11062.03248.225.066.4055.103.13881.02853.27894.04926.419.06635-.00829.02468-.01732.04815-.025.07375a3.0526,3.0526,0,0,0-.035,1.43214v.0003A6.48557,6.48557,0,0,0,43.77355,38.278a5.89446,5.89446,0,0,0,1.24358,1.27376,6.34672,6.34672,0,0,0,2.35756,1.092,7.1656,7.1656,0,0,0,1.865.2665,6.045,6.045,0,0,0,1.34511-.15089,6.17749,6.17749,0,0,0,2.71839-1.389,6.10742,6.10742,0,0,0,1.44853-1.92168,5.874,5.874,0,0,0,.50323-1.59942,5.9813,5.9813,0,0,0,.0898-1.27532l1.15988-.12894ZM37.70943,35.407a4.50482,4.50482,0,0,1-.44047,1.64368l-.0001.0001a4.02065,4.02065,0,0,1-2.0264,2.24534,6.19028,6.19028,0,0,1-1.63139.63593,5.52529,5.52529,0,0,1-2.09635.1394,5.44311,5.44311,0,0,1-1.71024-.553,6.70794,6.70794,0,0,1-2.07806-1.55105,6.46977,6.46977,0,0,1-1.05172-1.63289,5.02378,5.02378,0,0,1-.41329-1.32,3.32668,3.32668,0,0,1-.0026-1.3503,3.21248,3.21248,0,0,1,.42938-.99127,3.84631,3.84631,0,0,1,1.00336-1.00106,5.3799,5.3799,0,0,1,2.06827-.85277,6.96741,6.96741,0,0,1,1.51108-.16458,9.29725,9.29725,0,0,1,1.16264.08224,8.90492,8.90492,0,0,1,2.06567.50233,5.96378,5.96378,0,0,1,1.74391.93931,3.58858,3.58858,0,0,1,1.33082,1.95236A3.974,3.974,0,0,1,37.70943,35.407Zm17.141.38a5.45979,5.45979,0,0,1-.46805,1.4854,5.69951,5.69951,0,0,1-1.3506,1.79168,5.76794,5.76794,0,0,1-2.53772,1.29614,6.156,6.156,0,0,1-3.01707-.11282,5.96669,5.96669,0,0,1-2.21266-1.02184,5.47358,5.47358,0,0,1-1.15595-1.18293,6.07749,6.07749,0,0,1-.96489-2.88327l-.20235.03028.20235-.03048a2.66266,2.66266,0,0,1,.02218-1.25307,2.76992,2.76992,0,0,1,.51012-.90683,4.56592,4.56592,0,0,1,1.06641-1.01155,5.60973,5.60973,0,0,1,1.825-.77153,9.74693,9.74693,0,0,1,2.23685-.33525,8.62165,8.62165,0,0,1,2.17969.16728,5.8696,5.8696,0,0,1,2.1584.79991,3.74962,3.74962,0,0,1,1.47031,1.4901A3.938,3.938,0,0,1,54.85046,35.787Z"></path><path d="M56.49183,31.85679a.28287.28287,0,0,0-.10078-.13951.15888.15888,0,0,0,.08394-.12559.18649.18649,0,0,0-.08484-.15287.12577.12577,0,0,0,.047-.14531.30837.30837,0,0,0-.0659-.10939.14256.14256,0,0,0,.02493-.12858l-.00057-.00122a.16052.16052,0,0,0-.12255-.20516,5.00709,5.00709,0,0,0-.5423-.149.16514.16514,0,0,0-.12142-.11449c-.06781-.02071-.133-.04763-.19832-.07444a1.3967,1.3967,0,0,1,.18636.04067c.00833.00665.01526.01458.02423.02063a.1196.1196,0,0,0,.08756.01305c.04445.015.08842.031.13139.04728.14.05311.25685.13105.40721.0681.12717-.05322.0778-.22328-.03715-.2529.04288.011-.03581-.01426-.0483-.01661a.69875.69875,0,0,0-.087-.00721.1033.1033,0,0,0-.08721-.11209,1.04552,1.04552,0,0,0-.2702-.02627.94423.94423,0,0,0-.52461-.18023.58443.58443,0,0,0-.193-.07691.35156.35156,0,0,0,.19551-.05006c.14031.04622.26384.11867.40558.16653a.10708.10708,0,0,0,.11389-.17413.62513.62513,0,0,0-.13893-.09846.15989.15989,0,0,0,.01966-.02879.12959.12959,0,0,0-.04138-.13938.95964.95964,0,0,0-.303-.13363,1.08455,1.08455,0,0,0,.189-.04271.07435.07435,0,0,0,.03035-.13057.12151.12151,0,0,0-.0364-.16107.52949.52949,0,0,0-.24419-.10827.09632.09632,0,0,0-.09466-.08384c-.02777-.00015-.05558.00393-.0834.005l-.0034-.00936a.43023.43023,0,0,0-.30581-.14414.4705.4705,0,0,0-.16219-.076.08152.08152,0,0,0-.064-.09122.9056.9056,0,0,0-.28691-.01608.07957.07957,0,0,0-.0326-.08216.70494.70494,0,0,0-.50425-.09971.06735.06735,0,0,0-.03589-.10775l.031-.01142a.09532.09532,0,0,0-.02622-.17853,1.12155,1.12155,0,0,0-.5205.09383c-.12994.04142-.25837.08714-.38686.13266-.04719.0021-.09421.00575-.14163.0059a.08281.08281,0,0,0-.05849.02168.09883.09883,0,0,0,.00506-.09814c.01242-.00542.02468-.01152.03721-.0165.23008-.03746.46181-.058.68853-.11523a.09168.09168,0,0,0,.06775-.06159c.03326-.00794.06658-.01566.0996-.02534.14725-.04316.10239-.21261-.03452-.227a1.60342,1.60342,0,0,0-.84005.19762c-.1401.03076-.279.06688-.417.10567a.5117.5117,0,0,0,.0968-.09542l.00717-.01414c.06414-.02268.09619-.11709.01935-.14984A.70614.70614,0,0,0,52.099,27.946a.09985.09985,0,0,0-.08426-.09819,1.15991,1.15991,0,0,0-.52431.1389c-.11309.02653-.22548.05867-.33415.0905a.11715.11715,0,0,0-.00393-.02428l-.00884-.02532a.13546.13546,0,0,0-.127-.086.23117.23117,0,0,0-.09383.01343.11979.11979,0,0,0-.03034-.03046c-.29108-.20637-.74526-.07025-1.1288.132a.14008.14008,0,0,0-.03522-.00762c-.01465-.00115-.0294.00059-.04407-.00022.04017-.08892-.04789-.16926-.15149-.155a2.54514,2.54514,0,0,0-.69344.25972,9.14955,9.14955,0,0,0-1.41058.588c-.07727.0366-.04422.11482.01624.13852-.05495.02657-.11091.05095-.16488.0796-.33951.18022-.725.40353-.76735.8169-.011.10781.17236.11957.2012.02424.104-.344.63755-.56533.97094-.71061a.18.18,0,0,0,.0612.03778q-.1711.08789-.33976.1798a.05708.05708,0,0,0-.072-.00981.87593.87593,0,0,1-.12366.0703.07689.07689,0,0,0-.04785.07466c-.05635.03176-.11305.06312-.169.09529-.11343.0652-.00447.20865.10156.15461q.165-.08405.33132-.16151a2.41944,2.41944,0,0,0,1.07341-.44251c.15469-.0567.31047-.11088.46687-.16384a.079.079,0,0,0,.0636.01889l.0356-.004-.029.01356c-.11012.05229-.00538.18761.09417.14337l.01279-.00535a.08937.08937,0,0,0,.09363.00395q.16072-.08679.32289-.16849c.12542-.0444.251-.08426.37683-.12042q.19-.03805.37881-.0795l.01287.0053c-.175.04916-.34945.0979-.52313.14339-.14022.03675-.07413.22112.05933.19152.18741-.04158.37419-.07731.56112-.11518a.11463.11463,0,0,0,.05331.01626c.14212.00507.28683.00309.432-.00152.10889.00327.21794.00762.32686.01384-.09949.043-.19965.08456-.30206.12077a.08886.08886,0,1,0,.05251.16954,6.09609,6.09609,0,0,0,.67986-.25018.98785.98785,0,0,0,.46043.02418.15263.15263,0,0,0,.10347-.1191l.0803-.00679a.10371.10371,0,0,0,.09889.16475,1.97583,1.97583,0,0,1,.65214.11494.11263.11263,0,0,0,.151.06614l.02237-.01006c.06118.02012.12222.04013.1831.05872a1.14364,1.14364,0,0,0,.24763.05485.09881.09881,0,0,0,.03214.04058c-.17968-.00492-.35953-.0053-.53694-.00169a.10116.10116,0,1,0,0,.20186,6.17753,6.17753,0,0,1,.65126.05357c.05068.00733.10133.01684.15188.02669a.10062.10062,0,0,0-.04179.13751c-.04733-.012-.09478-.02331-.14173-.03717a.09873.09873,0,1,0-.05836.18836c.2415.082.48412.161.7267.23985a.08873.08873,0,0,0,.04574.13587,3.72711,3.72711,0,0,1,.62185.32322c-.08555-.0335-.171-.06729-.25711-.09945-.12734-.04758-.23856.1562-.10006.21126.18836.07486.37522.15386.55781.24181a.10168.10168,0,0,0,.09815.07484c.01706.00032.03381.00422.05084.00516a.44051.44051,0,0,0,.31157.08439.17015.17015,0,0,0,.0521-.02538c.027.00692.0546.01149.08134.0192s.053.01706.07909.02647a.65874.65874,0,0,1,.05537.07528l-.04619-.01173a1.982,1.982,0,0,0-.71627-.02581c-.10392.0134-.07647.16871.02481.16307a1.65629,1.65629,0,0,1,.26447.00472.085.085,0,0,0,.00311.15623,2.79642,2.79642,0,0,1,.36489.22754,2.15138,2.15138,0,0,1,.16537.14981c-.019-.00276-.03733-.00575-.058-.00832a.44917.44917,0,0,1-.18571-.07716c-.11942-.07564-.30043.1-.17067.19688.14849.11084.39823.248.56326.097a.1035.1035,0,0,0,.03048-.10232C56.40238,32.07311,56.52772,31.98367,56.49183,31.85679Zm-7.42262-3.45187c-.03178.00946-.0632.01909-.09378.029a.11929.11929,0,0,0-.00832-.03421L49.015,28.385c.02563-.00261.05139-.00511.07828-.00637A.07484.07484,0,0,0,49.06921,28.40491Zm1.06311-.2358a1.65136,1.65136,0,0,1,.43876-.0656A4.04893,4.04893,0,0,1,50.13232,28.16911Zm.46348.48823a.12839.12839,0,0,0,.02345-.01614c.04-.00812.08057-.01575.12092-.02355C50.692,28.63087,50.64387,28.64394,50.5958,28.65734Zm.928-.35107-.05889.02287-.18.00438a.10422.10422,0,0,0-.09567.05566.127.127,0,0,0-.02291-.03517c.12441-.03381.24882-.0676.37229-.105.03661-.01109.08083-.02182.12766-.03348.02191-.00251.04362-.00567.06566-.00771A2.26623,2.26623,0,0,1,51.52375,28.30627Zm.53237.0058-.04479.003c.0209-.011.0403-.02391.06-.03649A.07146.07146,0,0,0,52.05612,28.31207Zm.436.2238c-.01859.00615-.0369.01312-.05555.01909a.11267.11267,0,0,0-.04923.03129.11837.11837,0,0,0-.00438-.02417.24094.24094,0,0,0,.11447-.05166l.00445-.00607A.07433.07433,0,0,0,52.49211,28.53587Zm.60038.33438.01469-.00061.00334.00446Zm1.124.25349c.0034-.005.00169-.01174.00376-.01742.04763.00072.09527.00061.14288.00234q-.08478.0175-.169.03858A.24248.24248,0,0,0,54.21653,29.12373Zm-.50486-.292c-.10025.01184-.20039.02486-.30049.03745a.23957.23957,0,0,0,.05742-.07071c.03983-.00661.07947-.01453.11956-.01942a1.16066,1.16066,0,0,1,.2661.00292C53.8064,28.79719,53.759,28.81341,53.71166,28.83171Zm.46268.60319c-.108-.00887-.21746-.01337-.32683-.01807.06563-.01087.13122-.022.19668-.03376a.116.116,0,0,0,.13624.04117c.05843-.02393.11709-.042.17577-.06014a.15241.15241,0,0,0,.0955.05286c.06305.00746.12582.01235.18862.017-.04233.0118-.08429.02346-.12576.03462a1.60434,1.60434,0,0,1-.24887-.05321A.0975.0975,0,0,0,54.17434,29.4349Z"></path><path d="M31.91726,27.94805l.00229.00215-.00508-.00317Zm3.53153,1.61364a1.384,1.384,0,0,1-.69721-.32652.122.122,0,0,1-.16238.08732,2.55746,2.55746,0,0,1-.67508-.40988c.05284.05144.10561.103.15917.154a.07651.07651,0,0,1,.01463.10877c.1045.03771.20846.07223.30877.10247a.07241.07241,0,1,1-.04278.13815,7.6259,7.6259,0,0,1-.87452-.27727c.01448.0159.02822.03211.04293.0479.07282.07812-.04883.17373-.119.1059-.09353-.09045-.18948-.2-.29155-.30574a.91737.91737,0,0,1-.22052-.14614,1.4278,1.4278,0,0,0-.177-.03735,1.50485,1.50485,0,0,1,.20672.35749c.04177.1063-.14783.16654-.19389.07277a1.06676,1.06676,0,0,0-.14675-.223l-.005-.00037-.0173-.00482a.12772.12772,0,0,1,.00036.0347.06339.06339,0,0,1-.06172.04184.55181.55181,0,0,1-.23526-.12711c-.03607-.024-.07029-.05082-.10582-.07577a2.07228,2.07228,0,0,0-.532-.11874.18953.18953,0,0,1-.12726-.05346c.0173.0166.0335.03424.05106.05081.012.01129.02428.02436.03681.03773a.15848.15848,0,0,1,.08219-.02559.255.255,0,0,1,.25364.13958,3.4066,3.4066,0,0,0,.71215.29288.09543.09543,0,1,1-.0564.18209c-.17007-.05166-.34007-.1025-.50889-.15687.08777.0667-.00578.19093-.10041.13751-.08345-.04713-.16924-.09324-.25732-.13385a.11469.11469,0,0,1-.11656.02369c-.08619-.04318-.16845-.09338-.25-.14479a1.43858,1.43858,0,0,0-.15668-.02629.08008.08008,0,0,1-.10868.07177c-.01222-.00458-.02493-.00678-.03721-.01107a.14939.14939,0,0,1-.08521.00606c.07935.01975-.03887.00362-.05948.00016a.2344.2344,0,0,1-.0482-.01388,1.85308,1.85308,0,0,1-.64736-.11785c.041.02757.08015.05518.11544.07653a4.41113,4.41113,0,0,1,.467.3082c.08261.06563-.04113.15139-.11382.1013a2.91219,2.91219,0,0,0-.45726-.2511c-.03469-.0156-.0701-.026-.10531-.03791a.09564.09564,0,0,1-.09446-.02152c-.00752-.00746-.0157-.0127-.02332-.01981-.04567-.01418-.09142-.02777-.13619-.04568a.09214.09214,0,0,1-.0669-.09722.73482.73482,0,0,0-.17839-.05822,1.00722,1.00722,0,0,1,.0879.13155.87623.87623,0,0,1,.15992.07131.08421.08421,0,0,1,.03038.03c.09512.01379.18914.02828.28075.04171.12985.019.09278.209-.03064.20144-.1079-.00658-.21668-.00732-.32565-.0067l.00234.01149c.01029.07464-.0609.09988-.12406.08624a.09248.09248,0,0,1-.13739.09421,3.05159,3.05159,0,0,0-.34029-.14865,1.91606,1.91606,0,0,1,.36113.21889c.11458.093-.05829.21679-.16037.14274a1.69292,1.69292,0,0,0-.60485-.257q.07657.04461.15111.09441a2.23209,2.23209,0,0,0,.29959.08872.11045.11045,0,0,1,.06147.18234.10163.10163,0,0,1-.1509.11921c-.05972-.035-.11783-.06942-.17573-.10274-.05611-.00816-.11272-.01874-.1691-.03128a.09172.09172,0,0,1-.12532.06067,1.10755,1.10755,0,0,0-.74514-.06287c.0736.01881.14755.03621.22242.05045l.18947.00948a.09953.09953,0,1,1,0,.1986c-.1497.00748-.29945.01435-.44912.02245-.02619.00142-.05545.005-.08581.00813a.06128.06128,0,0,1-.0555.09463l-.01645.0013a.10178.10178,0,0,1-.07373.06436c.0317.05837-.039.13162-.11238.09512a2.3774,2.3774,0,0,0-.26212-.12037c-.02813.00367-.05621.00651-.08428.00892.02315.00846.04473.01685.063.02458a.08573.08573,0,0,1,0,.15461l-.01869.00742a.87478.87478,0,0,1,.17232.0639c.089.04517.01984.1645-.06624.13983-.01313-.00376-.02579-.004-.03882-.007a.08633.08633,0,0,1-.01292.00069.32821.32821,0,0,0-.22756.04167.19774.19774,0,0,1-.15546.03555.08212.08212,0,0,1-.03937-.01724.12792.12792,0,0,1-.114-.2198.17584.17584,0,0,1-.0323-.0185.13782.13782,0,0,1-.006-.19938.1179.1179,0,0,1,.014-.16875.49145.49145,0,0,1,.29739-.09241.14142.14142,0,0,1,.13807-.09809.1814.1814,0,0,1,.08129.0232c-.03051-.0194-.05573-.02081-.01455-.01335a.243.243,0,0,1,.0892.045c.01629.00991.07372.03471.10462.04971.04067.01975.08181.03846.1232.05686l.00144.00011-.00506-.00422a.11133.11133,0,0,1-.03219-.088c-.044-.00423-.08784-.00949-.132-.012-.199-.01145-.19587-.29765,0-.27821l.028.00317c-.06083-.27209.26532-.25722.56188-.20685a.12926.12926,0,0,1,.11586-.173c.02027-.00282.03921-.00117.05906-.00257a.16146.16146,0,0,1,.21818-.04333c.04755.02872.09233.05946.13761.08977.01283.00427.026.00744.03867.01218a.10987.10987,0,0,1-.01779-.06609l.0024-.02231a.166.166,0,0,1,.0379-.0886.15289.15289,0,0,1-.09166-.22633l.01832-.02809a.19542.19542,0,0,1,.24526-.05723,2.05112,2.05112,0,0,0,.275.09234.99647.99647,0,0,1,.18483-.0321l-.00124-.00094a.124.124,0,0,1-.10576-.04.2255.2255,0,0,0-.07937-.06183c-.214-.10516-.00816-.38419.186-.28325a1.2725,1.2725,0,0,1,.12467.07474.14068.14068,0,0,1,.13922-.07446.72653.72653,0,0,1,.18489.03146c-.0454-.1349.155-.27818.31327-.20715l.003-.00636c.03319.022.06731.04038.10069.06115a.41823.41823,0,0,1,.43183-.30413.225.225,0,0,1,.20512-.19043c.00772-.00064.01484.00082.02251.00039a.39176.39176,0,0,1,.05262-.12811.2182.2182,0,0,1,.315-.03615c.07476.05225.15332.09984.23363.14482a.10138.10138,0,0,1,.07421-.12523l-.01912-.00957a.11509.11509,0,0,1-.04856-.16482.149.149,0,0,1,.18519-.04321.81173.81173,0,0,1,.47347.54135.45731.45731,0,0,1,.11564.02649c-.01349-.02351-.02709-.047-.04089-.07a1.25765,1.25765,0,0,0-.11424-.16615c-.0129-.01528-.02972-.02847-.04126-.04462l-.01836-.02321a.116.116,0,0,0,.10872-.00216.15416.15416,0,0,1-.111,0c-.01-.01015-.01093-.00731-.0028-.001-.081-.02958-.13662-.114-.05024-.18819.15982-.13726.32126.04539.38929.1805a1.40391,1.40391,0,0,1,.14847.47178.19222.19222,0,0,1,.16539-.11208.9752.9752,0,0,1-.28561-.32126c-.02793-.07848.0674-.14361.13725-.12216a.35465.35465,0,0,1,.11708.0658.1379.1379,0,0,1,.101-.02311.76813.76813,0,0,1,.41484.32758.2103.2103,0,0,1,.14421.04336.37966.37966,0,0,1,.08229.08893c.06259.04359.122.0907.18072.1386l-.00195-.00417c-.056-.16173.1913-.26353.29627-.15349.0524.05492.10459.11149.157.16819.2028-.16849.53132.06912.70565.18894.30544.20992.58317.46372.89355.66525A.107.107,0,0,1,35.44878,29.5617Zm-5.85612-.10226-.00781-.01461c-.00638.00007-.01273-.00007-.01911,0Zm.85945-.74124a.20981.20981,0,0,1-.02325-.05652c-.00818.01342-.01735.02657-.02629.04026Zm.41838.11546c-.00954-.00442-.01842-.01018-.02805-.01441a.13943.13943,0,0,1-.03158.02925l.01688.00691A.25571.25571,0,0,1,30.87049,28.83366Zm.61647-.13626a.169.169,0,0,1-.03785-.13539c-.04349-.01393-.0871-.02735-.13069-.04073.02242.02526.04477.05045.06749.07556C31.418,28.63232,31.45284,28.66447,31.487,28.6974Zm.34532-.45142a.68105.68105,0,0,0-.2041-.22721,1.12866,1.12866,0,0,0,.14406.20635C31.79212,28.23272,31.81231,28.23877,31.83228,28.246Zm1.05654.09718-.01115-.01105-.01947-.016.0277.036Zm.80949.67052c-.09254-.076-.18541-.15158-.28158-.22289a1.6415,1.6415,0,0,0-.312-.18837l-.002-.00086a.07651.07651,0,0,1,.01694.03524,1.93238,1.93238,0,0,0,.19519.157c.066.03361.13234.0663.19774.10154a.0874.0874,0,0,1,.04157.04407C33.60166,28.96515,33.64943,28.99023,33.69831,29.01368Z"></path><path d="M66.29536,32.64379a1.24054,1.24054,0,0,0-.61561-.45379c-.00354-.02769-.00935-.07075-.01771-.12312a23.2693,23.2693,0,0,0-.57-10.33269l-.02678-.12231a24.94834,24.94834,0,0,0-2.80593-7.9799,17.1348,17.1348,0,0,0-3.61593-4.44341,15.1217,15.1217,0,0,0-1.828-1.31882,10.61041,10.61041,0,0,0-2.26792-2.4302C50.3256,2.16137,44.73823,3.111,41.73615,3.62089a22.20558,22.20558,0,0,0-5.85677,1.83125A24.09981,24.09981,0,0,0,31.50012,8.248a23.05518,23.05518,0,0,0-3.52719,3.165,23.56932,23.56932,0,0,0-3.59284,5.71178l-.09823.19945a23.80064,23.80064,0,0,0-1.96755,4.89468,20.541,20.541,0,0,0-.21334,9.09877.50907.50907,0,0,0,.15544.274.20485.20485,0,0,0-.01238.07375c.12751,1.10908.37164,2.22533.4261,3.36109a43.747,43.747,0,0,1-.05907,5.41832c-.02288.4111-.05036.76713-.07454,1.0816a4.55745,4.55745,0,0,0,.32986,2.8379,4.49335,4.49335,0,0,0,2.21916,1.91988.58541.58541,0,0,0,.17109.04664l.00254.00026c-.01205.68613.09355,1.29435.0969,1.80725a16.70835,16.70835,0,0,0,2.3232,8.091,8.52267,8.52267,0,0,0,5.09746,3.88281c.08263.17365.17669.35816.28425.55179a9.45688,9.45688,0,0,0,.729,1.1181A9.85346,9.85346,0,0,0,36.74334,64.343a10.2737,10.2737,0,0,0,4.40354,1.27626c.34075.027.789.06255,1.31283.06255a8.7677,8.7677,0,0,0,4.68254-1.25787,8.37669,8.37669,0,0,0,2.16116-1.92561C53.5625,61.4375,56.875,59.4375,58.5837,55.88465c.14-.291.16725-.58389,1.23006-3.4138a25.235,25.235,0,0,0,1.04554-3.13663c.16086-.55189.33469-1.13032.44211-1.59577.09268.00475.33033.054.43336.054a3.599,3.599,0,0,0,2.73977-1.05,4.4268,4.4268,0,0,0,.695-2.19486c.2071-1.272.13476-2.5321.42214-3.77866a40.88908,40.88908,0,0,0,.79028-4.09551C66.64732,34.5249,66.93051,33.44467,66.29536,32.64379ZM23.30578,22.47155a23.00435,23.00435,0,0,1,1.8941-4.69533l.09833-.19985a22.425,22.425,0,0,1,3.44056-5.48494,21.90157,21.90157,0,0,1,3.3841-3.03156,23.19774,23.19774,0,0,1,4.20139-2.68621,21.16568,21.16568,0,0,1,5.58387-1.744C44.75482,4.1461,50.054,3.246,53.91994,6.24775a9.61131,9.61131,0,0,1,2.10744,2.28371.51056.51056,0,0,0,.16188.15509,14.10885,14.10885,0,0,1,1.79507,1.28475A15.89254,15.89254,0,0,1,61.376,14.1482,34.29649,34.29649,0,0,1,64.09322,21.956a37.42425,37.42425,0,0,1,.75632,10.35085c-.03228.06465-.06388.07466-.23154.23214-.09568.08987-.08769.11533-.2324.24111a3.51107,3.51107,0,0,0-.78642.91582,5.68751,5.68751,0,0,0-.61135,1.613A6.89543,6.89543,0,0,0,62.79,36.35888c-.02818.23812-.03537.2734-.09473.357a1.29169,1.29169,0,0,1-1.43094.42209c-.15349-.09983-.478-.49963-.17987-2.05388a3.32808,3.32808,0,0,1,.30378-.89844,1.558,1.558,0,0,0,.19246-1.06032A2.01443,2.01443,0,0,0,60.48569,31.8a3.03494,3.03494,0,0,1-.96389-.84647c-.35294-.51712-.36173-1.26706-.37932-2.762a13.00154,13.00154,0,0,1,.37173-3.99255c.08474-.30507.17787-.586.26-.83378.2644-.79781.49284-1.4869.03018-2.03579a1.26741,1.26741,0,0,0-.9483-.4104,1.007,1.007,0,0,1-.55239-.16088c-.11351-.08094-.15189-.17387-.37432-.90463-.07614-.25031-.17007-.55879-.29438-.9434-.44187-1.36649-.68549-2.11923-.76563-2.51884a5.78241,5.78241,0,0,0-.24722-.83908c-.04816-.1366-.10073-.28529-.15668-.46266-.37053-1.17493-.77143-2.41082-1.19132-3.67308a.51164.51164,0,0,0-.68749-.30857,18.32831,18.32831,0,0,1-2.65544.90623,17.44945,17.44945,0,0,1-2.32208.41919c-.49763.06715-1.09519.14779-1.9.2734a1.09529,1.09529,0,0,0-.16638.0023l-.0023-.01149-.22323.04207c-.04507.00779-.09033.01629-.1355.02468L39.89661,14.127a9.63026,9.63026,0,0,1-2.44549.36373,3.9967,3.9967,0,0,1-1.40516-.41,2.79186,2.79186,0,0,0-1.66917-.32826,2.44336,2.44336,0,0,0-1.20981.51562,8.71583,8.71583,0,0,1-1.26037.73356,5.85651,5.85651,0,0,1-1.43764.51842,3.2538,3.2538,0,0,0-1.10039.42858c-1.32652.79711-1.90749,2.00092-2.78694,3.82327a7.83759,7.83759,0,0,0-.97448,3.05384,3.92429,3.92429,0,0,0,.09993,1.25607,10.09946,10.09946,0,0,1,.17887,1.14365,16.87714,16.87714,0,0,1-.2702,4.56512,7.9695,7.9695,0,0,1-.22563.91273,8.965,8.965,0,0,0-.26161,1.0758c-.071.36843-.12821.72057-.175,1.04813a4.42469,4.42469,0,0,0-.49194-.78222,4.51575,4.51575,0,0,0-1.40276-1.16694A19.487,19.487,0,0,1,23.30578,22.47155ZM65.6022,36.4561q-.19537.91246-.3342,1.83578c-.10681.70731-.3815,1.36407-.50052,2.0759-.18524,1.10776-.19409,2.23817-.403,3.34248-.09317.49242-.24185.97348-.35928,1.45708a2.475,2.475,0,0,1-.35248,1.03622,3.98828,3.98828,0,0,1-2.23993.6398,8.65745,8.65745,0,0,0,.10742-1.45c.02686-.51021-.10818-1.27132-.27307-1.27518-.14157-.00331-.24347.62006-.42557,1.47871,0,0-.2984,1.40685-.87927,3.39418a28.425,28.425,0,0,1-1.13516,3.11818c-1.036,2.75879-1.14655,3.00919-1.26587,3.24283a12.30425,12.30425,0,0,1-2.32388,3.15567,10.68855,10.68855,0,0,1-5.04114,2.61536,6.90585,6.90585,0,0,0,.38885-.94922c.24319-.758.4071-1.75452.23672-1.81482-.097-.03433-.41656.50281-1.05182,1.57846-.96809,1.63922-1.00787,1.71255-1.125,1.875a6.5805,6.5805,0,0,1-2.1875,1.875,8.75106,8.75106,0,0,1-4.885,1.04307A10.39627,10.39627,0,0,1,37.221,63.6363a13.78692,13.78692,0,0,1-3.857-3.9579,20.74607,20.74607,0,0,1-1.26275-1.95061c-.1355.06754.17206,1.07108.21007,1.19562.00975.032.02151.06863.03317.105a8.466,8.466,0,0,1-1.9632-1.07062,9.00789,9.00789,0,0,1-2.32874-2.5853,11.68045,11.68045,0,0,1-1.07907-2.51c-.08037-.24448-.22034-.67078-.35187-1.24326a21.83566,21.83566,0,0,1-.37532-3.14336c-.15994-1.81674-.16458-1.94876-.16422-2.15813.00064-.36249.01622-.92082.00223-1.79654-.01686-1.05646-.05544-1.23956-.11971-1.24966-.14975-.02356-.4108.90115-.43527.99677a8.57068,8.57068,0,0,0-.21947,1.23077l-.0549-.03224a4.19234,4.19234,0,0,1-1.444-1.50179,5.29324,5.29324,0,0,1-.34657-2.02165c-.07178-.97-.05847-1.69365-.05777-1.73285.06062-3.30574-.05383-2.93436.04213-5.19928a.49376.49376,0,0,0-.00069-.05542c-.01161-.16084-.08153-1.04-.33612-2.82056a3.30177,3.30177,0,0,1,.5461.54308,4.567,4.567,0,0,1,.835,2.25352c.05437.36914.13062.875.64333.85457.52661-.02017.57228-.47684.66331-1.38676.06105-.61095.14479-1.44783.33356-2.42671a8.013,8.013,0,0,1,.23592-.97177,8.97877,8.97877,0,0,0,.25032-1.01106A17.99171,17.99171,0,0,0,26.904,25.1216a11.01545,11.01545,0,0,0-.19485-1.247,2.935,2.935,0,0,1-.08115-.97768,6.871,6.871,0,0,1,.87515-2.68033c.828-1.71553,1.32773-2.75107,2.39244-3.39079a2.25083,2.25083,0,0,1,.80231-.30836,6.829,6.829,0,0,0,1.65387-.59447,9.74263,9.74263,0,0,0,1.39217-.8098,1.46841,1.46841,0,0,1,.76215-.34564,1.82174,1.82174,0,0,1,1.11658.24481A4.99021,4.99021,0,0,0,37.351,15.509a9.74837,9.74837,0,0,0,2.73387-.37613c1.68666-.31566,3.01648-.56448,4.0603-.75984l.0004.00221.08594-.0161.0089-.00169.48184-.09024c1.04573-.19565,1.718-.319,2.58919-.461,1.08569-.177,1.83354-.2778,2.43449-.35893a18.48219,18.48219,0,0,0,2.44069-.44238,19.40341,19.40341,0,0,0,2.28931-.74454c.35556,1.0761.69571,2.129,1.01367,3.137.05994.19016.11612.34924.16788.49564a4.87063,4.87063,0,0,1,.20865.69978c.09192.45706.32693,1.18391.7952,2.632.1221.37772.21423.68069.28918.92661.247.8114.34915,1.14735.759,1.43964a1.96511,1.96511,0,0,0,1.05283.34685c.17328.016.23862.02608.25961.05086.09354.11113-.07254.61226-.219,1.05453-.08594.2589-.18329.55238-.27481.88174a14.00241,14.00241,0,0,0-.40891,4.27913c.01938,1.64648.03,2.55351.55719,3.326a3.98137,3.98137,0,0,0,1.25726,1.13116c.42789.27429.594.4017.64133.65321.02478.132.0076.18187-.1113.43248a4.32741,4.32741,0,0,0-.38412,1.14426c-.11392.593-.46005,2.39742.62692,3.10449a1.6598,1.6598,0,0,0,.91373.25311,2.46586,2.46586,0,0,0,1.90961-.9409A1.56324,1.56324,0,0,0,63.806,36.479a5.85841,5.85841,0,0,1,.17126-.90912,4.82572,4.82572,0,0,1,.49844-1.346,2.50589,2.50589,0,0,1,.581-.67131,1.87956,1.87956,0,0,0,.45261-.51474,1.29016,1.29016,0,0,1,.35284.12584C66.35638,33.4778,65.91928,34.97548,65.6022,36.4561Z"></path></svg>