<svg height='100px' width='100px'  fill="#000000" xmlns="http://www.w3.org/2000/svg" xmlns:xlink="http://www.w3.org/1999/xlink" version="1.1" x="0px" y="0px" viewBox="0 0 60 60" style="enable-background:new 0 0 60 60;" xml:space="preserve"><path d="M10.0372314,47.6242676h26.4921875c0.4593506,0,0.8317871-0.3724365,0.8317871-0.8317871v-4.6789551  c0-0.4593506-0.3724365-0.8317871-0.8317871-0.8317871h-2.7945557v-3.847229c0-0.4593506-0.3724365-0.8317871-0.8317261-0.8317871  h-19.239563c-0.4593506,0-0.8317261,0.3724365-0.8317261,0.8317871v3.847229h-2.7946167  c-0.4592896,0-0.8317261,0.3724365-0.8317261,0.8317871v4.6789551C9.2055054,47.2518311,9.5779419,47.6242676,10.0372314,47.6242676  z M14.4953613,38.2662354h17.5759888v3.0155029H14.4953613V38.2662354z M10.8690186,42.9452515h2.7945557h19.239563h2.7945557  v3.0155029H10.8690186V42.9452515z"></path><path d="M48.885498,30.3991089l-16.6101685-6.7485962c0.1868896-0.6645508,0.3369751-1.3406372,0.453186-2.0264893  l1.1005859,0.4782715c0.1055908,0.0458984,0.2185059,0.0690918,0.3313599,0.0690918  c0.1035767,0,0.2071533-0.019104,0.3050537-0.0581055c0.2050781-0.0808105,0.3699341-0.2399902,0.4577026-0.4422607  l1.3052979-3.0037231c0.1831665-0.4211426-0.0097656-0.911377-0.4313354-1.0941162l-11.8009033-5.1281738  c-0.203064-0.0881348-0.4317017-0.0925903-0.6363525-0.0109863c-0.2051392,0.0808105-0.3699951,0.2400513-0.4577026,0.4422607  l-1.3052979,3.0037231c-0.1831665,0.4211426,0.0097046,0.911377,0.4312744,1.0941162l1.1003418,0.4781494  c-1.9210205,2.5165405-3.1902466,5.4373779-3.7194214,8.5592041l-1.1002197-0.4781494  c-0.2026978-0.0877686-0.4317627-0.0926514-0.6364136-0.0109863c-0.2050781,0.0808105-0.3699951,0.2399902-0.4577026,0.4422607  l-1.3052979,3.0037231c-0.1831665,0.4211426,0.0097046,0.911377,0.4312744,1.0941162l11.8004761,5.1281738  c0.1080322,0.0471191,0.2201538,0.069458,0.3309937,0.069458c0.3212891,0,0.6270752-0.1871948,0.7631226-0.5007324  l1.3057251-3.0037231c0.0881348-0.2022705,0.0921631-0.4313354,0.0109863-0.6364136  c-0.0808716-0.2050781-0.2400513-0.3699951-0.4423218-0.4577026l-1.100708-0.4783325  c0.4220581-0.5529785,0.8139038-1.1239014,1.1721802-1.7138062l16.2667236,7.5379639  c0.4101563,0.1901245,0.8467407,0.2855225,1.2841797,0.2855225c0.3671265,0,0.7354736-0.0670166,1.0895996-0.2018433  c0.776123-0.2952271,1.3861084-0.8776245,1.7171021-1.6395264c0.3314209-0.7619019,0.3407593-1.6054077,0.0272217-2.3746338  C50.2521362,31.3076172,49.6550903,30.711853,48.885498,30.3991089z M24.0961914,14.3021851l10.2750854,4.4650269  l-0.6420898,1.4779053l-10.2750854-4.4650269L24.0961914,14.3021851z M28.0413208,33.3338013l-10.2745972-4.4653931  l0.6420898-1.4779053l10.2750244,4.4650269L28.0413208,33.3338013z M24.6948242,18.1332397l6.4672241,2.8104248  c-0.4593506,3.1417847-1.7354126,6.078064-3.7193604,8.5587158l-6.4671631-2.8104248  C21.4352417,23.5493774,22.7113037,20.6126099,24.6948242,18.1332397z M49.0134277,33.7886963  c-0.151062,0.347229-0.4292603,0.612854-0.7834473,0.7476807c-0.3545532,0.1348267-0.7383423,0.1210327-1.0827026-0.038208  l-16.1660767-7.491333c0.286438-0.5783081,0.543457-1.1697388,0.770752-1.7736816l16.5072632,6.7068481  c0.3513184,0.1429443,0.6234131,0.4146118,0.7664185,0.7651367C49.1689453,33.0560303,49.1644897,33.44104,49.0134277,33.7886963z"></path></svg>