<svg height='100px' width='100px'  fill="#000000" xmlns="http://www.w3.org/2000/svg" xmlns:xlink="http://www.w3.org/1999/xlink" version="1.1" x="0px" y="0px" viewBox="0 0 69 69" style="enable-background:new 0 0 69 69;" xml:space="preserve"><g><path d="M62.25999,2.50098c-1.8406,0-3.33745,1.49685-3.33745,3.33745v11.03108h6.6749V5.83843   C65.59744,3.99783,64.10059,2.50098,62.25999,2.50098z"></path><path d="M48.28625,58.79283H3.40256C3.93067,63.12922,7.63583,66.5,12.11284,66.5h1.59268h35.64217   c-0.66666-0.88853-1.06144-1.99164-1.06144-3.18537V58.79283z"></path><path d="M33.58354,8.2919l-5.4826,2.61331v5.80258c0,3.53061,2.18662,6.63453,5.4826,7.81857   c3.43459-1.12003,5.72791-4.27728,5.72791-7.90392v-5.70655L33.58354,8.2919z M37.5728,14.76648l-4.7466,4.74661   c-0.20267,0.20267-0.48001,0.30931-0.75735,0.30931c-0.26666,0-0.544-0.10664-0.74667-0.30931l-1.49327-1.48266   c-0.41601-0.41601-0.41601-1.09862,0-1.51463c0.41601-0.41601,1.09862-0.41601,1.51463,0l0.72531,0.73599l3.99994-3.99994   c0.41601-0.41601,1.08801-0.41601,1.50401,0C37.98875,13.66786,37.98875,14.35047,37.5728,14.76648z"></path><path d="M13.63717,2.5c-1.66397,0-3.01864,1.35467-3.01864,3.01864v51.1459H49.3486c0.59732,0,1.06665,0.46933,1.06665,1.06665   v5.57856c0,1.75994,1.42934,3.18927,3.18927,3.18927c1.76,0,3.18927-1.42934,3.18927-3.18927V5.83862   c0-1.25864,0.43736-2.41064,1.16268-3.33862H13.63717z M25.96764,10.23322c0-0.40533,0.23463-0.78931,0.608-0.96001l6.53857-3.1146   c0.28795-0.13867,0.61861-0.13867,0.90663-0.01068l6.79456,3.11467c0.38398,0.17064,0.62935,0.55461,0.62935,0.97062v6.38923   c0,4.62929-2.976,8.63991-7.40256,9.99451l-0.16002,0.05332c-0.10664,0.03203-0.20267,0.04271-0.30931,0.04271   c-0.1067,0-0.21334-0.02135-0.31998-0.05332c-4.36263-1.37602-7.28524-5.38663-7.28524-9.95187V10.23322z M51.95123,51.59795   H15.4611c-0.59732,0-1.06665-0.48001-1.06665-1.06665c0-0.59732,0.46933-1.06665,1.06665-1.06665h36.49014   c0.58664,0,1.06665,0.46933,1.06665,1.06665C53.01788,51.11794,52.53788,51.59795,51.95123,51.59795z M51.95123,44.61134H15.4611   c-0.59732,0-1.06665-0.47994-1.06665-1.06665c0-0.58664,0.46933-1.06665,1.06665-1.06665h36.49014   c0.58664,0,1.06665,0.48001,1.06665,1.06665C53.01788,44.1314,52.53788,44.61134,51.95123,44.61134z M51.95123,37.62479H15.4611   c-0.59732,0-1.06665-0.46933-1.06665-1.06665c0-0.58665,0.46933-1.06665,1.06665-1.06665h36.49014   c0.58664,0,1.06665,0.48,1.06665,1.06665C53.01788,37.15546,52.53788,37.62479,51.95123,37.62479z M51.95123,30.64892H15.4611   c-0.59732,0-1.06665-0.48001-1.06665-1.06665c0-0.59732,0.46933-1.06665,1.06665-1.06665h36.49014   c0.58664,0,1.06665,0.46933,1.06665,1.06665C53.01788,30.16891,52.53788,30.64892,51.95123,30.64892z"></path></g></svg>