<svg fill="#000000" version="1.1" viewBox="04 20 92 60">
  <g>
    <path fill="#000000"
      d="M94.739,24.131c0.139,0.366,0.219,1.131,0.261,1.886h-2.27l0.592-2.009c0.08-0.152,0.179-0.243,0.291-0.309   c0.112-0.064,0.248-0.101,0.39-0.101c0.152,0,0.309,0.045,0.432,0.125c0.123,0.083,0.221,0.189,0.291,0.376L94.739,24.131z">
    </path>
    <path fill="#000000"
      d="M89.477,30.377h4.995c-0.24,0.51-0.552,0.99-0.934,1.427l-0.061,0.075   c-0.686,0.808-1.091,1.809-1.166,2.855h-8.428c0.315-0.446,0.59-0.92,0.816-1.425c0.205-0.464,0.59-0.83,1.062-1.014l0.934-0.366   C87.695,31.535,88.629,31.012,89.477,30.377z">
    </path>
    <path fill="#000000"
      d="M15.112,23.974l-0.229,0.141l-0.312,0.648l-0.195,0.133l-0.704,0.107c-0.213,0.027-0.293,0.285-0.141,0.438   l0.507,0.499l0.08,0.221l-0.125,0.712c-0.027,0.16,0.107,0.301,0.251,0.301l0.123-0.035l0.632-0.331l0.115-0.035l0.125,0.035   l0.632,0.331l0.115,0.035c0.152,0,0.285-0.141,0.248-0.301l-0.115-0.712l0.072-0.221l0.515-0.499   c0.152-0.152,0.061-0.411-0.141-0.438l-0.712-0.107l-0.187-0.133l-0.32-0.648C15.299,24.027,15.21,23.974,15.112,23.974z    M7.679,31.113l0.515,0.499l0.072,0.221L8.14,32.538c-0.027,0.168,0.107,0.301,0.259,0.301l0.115-0.027l0.632-0.328l0.123-0.037   l0.117,0.037l0.63,0.328l0.125,0.027c0.152,0,0.275-0.133,0.248-0.301l-0.123-0.704l0.08-0.221l0.507-0.499   c0.149-0.149,0.069-0.408-0.144-0.435l-0.702-0.107L9.813,30.43l-0.32-0.64c-0.045-0.091-0.133-0.144-0.224-0.144   c-0.096,0-0.187,0.053-0.229,0.144l-0.32,0.64l-0.187,0.141L7.82,30.678C7.615,30.705,7.527,30.964,7.679,31.113z M27.809,24.937   l3.183,0.323l0.075,0.181l0.518,0.499l0.069,0.221l-0.123,0.712c-0.027,0.16,0.107,0.301,0.256,0.301l0.117-0.035l0.63-0.331   l0.125-0.035l0.115,0.035l0.632,0.331l0.125,0.035c0.149,0,0.275-0.141,0.248-0.301l-0.125-0.712l0.08-0.221l0.368-0.363   l2.772,0.283c0.176,0.019,0.355,0.037,0.531,0.059l0.021,0.021l0.08,0.221l-0.125,0.712c-0.027,0.16,0.107,0.301,0.248,0.301   l0.125-0.035l0.632-0.331l0.115-0.035l0.125,0.035l0.63,0.331l0.117,0.035c0.149,0,0.283-0.141,0.248-0.301l-0.101-0.638   c0.608,0.115,1.214,0.245,1.817,0.392l0.848,0.208c0.117,0.029,0.235,0.056,0.352,0.085v3.455h18.93l1.43,0.483   c0.251,0.083,0.422,0.323,0.422,0.587c0,0.179-0.077,0.35-0.213,0.467v0.003l-0.037,0.032c-0.4,0.347-0.707,0.771-0.912,1.23   c-0.205,0.459-0.31,0.955-0.31,1.457l0.005,0.099H42.539v4.368h30.282c0.149,0.488,0.414,0.939,0.771,1.313   c0.651,0.686,1.531,1.03,2.396,1.027c0.47,0,0.942-0.099,1.377-0.293c0.438-0.2,0.84-0.499,1.166-0.888l0.966-1.158h10.52   c-1.411,1.179-2.527,2.671-3.26,4.357H42.539v4.357h42.83c-0.189,0.803-0.285,1.627-0.285,2.452c0,0.403,0.024,0.808,0.072,1.217   v0.016l0.003,0.048c0.029,0.213,0.045,0.424,0.056,0.635H7.639C5.912,49.386,5,46.166,5,42.882c0-0.374,0.013-0.75,0.037-1.123   v-0.003l0.301-4.73c0.099-1.529,0.51-3.015,1.214-4.37c0.784-1.51,1.267-3.156,1.425-4.848L8.154,25.9l0.04,0.04l0.072,0.221   L8.14,26.874c-0.027,0.16,0.107,0.301,0.259,0.301l0.115-0.035l0.632-0.331l0.123-0.035l0.117,0.035l0.63,0.331l0.125,0.035   c0.152,0,0.275-0.141,0.248-0.301l-0.123-0.712l0.08-0.221l0.507-0.499c0.149-0.152,0.069-0.411-0.144-0.438l-0.702-0.107   l-0.195-0.133l-0.32-0.648c-0.045-0.088-0.133-0.141-0.224-0.141c-0.096,0-0.187,0.053-0.229,0.141l-0.32,0.648l-0.187,0.133   l-0.291,0.043l0.304-3.287l6.038,1.547c1.678,0.432,3.388,0.736,5.112,0.91l0.99,0.101l-0.272,0.552l-0.187,0.133l-0.712,0.107   c-0.203,0.027-0.293,0.285-0.141,0.438l0.515,0.499l0.072,0.221l-0.125,0.712c-0.027,0.16,0.107,0.301,0.259,0.301l0.115-0.035   l0.632-0.331l0.125-0.035l0.115,0.035l0.632,0.331l0.123,0.035c0.152,0,0.277-0.141,0.251-0.301l-0.125-0.712l0.08-0.221   l0.507-0.499c0.152-0.152,0.072-0.411-0.141-0.438l-0.704-0.107l-0.195-0.133l-0.243-0.494l4.992,0.507l-0.187,0.12l-0.702,0.107   c-0.213,0.027-0.293,0.285-0.144,0.438l0.507,0.499l0.08,0.221l-0.123,0.712c-0.027,0.16,0.107,0.301,0.248,0.301l0.125-0.035   l0.63-0.331l0.117-0.035l0.123,0.035l0.632,0.331l0.115,0.035c0.152,0,0.285-0.141,0.251-0.301l-0.117-0.712l0.072-0.221   l0.515-0.499c0.152-0.152,0.064-0.411-0.141-0.438L27.809,24.937z M40.095,31.113c0.149-0.149,0.061-0.408-0.144-0.435l-0.71-0.107   l-0.187-0.141l-0.32-0.64c-0.045-0.091-0.133-0.144-0.232-0.144c-0.088,0-0.179,0.053-0.232,0.144l-0.309,0.64   c-0.037,0.08-0.107,0.133-0.197,0.141l-0.702,0.107c-0.213,0.027-0.293,0.285-0.141,0.435l0.507,0.499l0.08,0.221l-0.125,0.704   c-0.027,0.168,0.107,0.301,0.248,0.301l0.125-0.027l0.632-0.328l0.115-0.037l0.125,0.037l0.63,0.328l0.117,0.027   c0.149,0,0.283-0.133,0.248-0.301l-0.115-0.704l0.069-0.221L40.095,31.113z M40.095,36.788c0.149-0.152,0.061-0.408-0.144-0.435   l-0.71-0.107l-0.187-0.133l-0.32-0.648c-0.045-0.091-0.133-0.144-0.232-0.144c-0.088,0-0.179,0.053-0.232,0.144l-0.309,0.648   c-0.037,0.069-0.107,0.123-0.197,0.133l-0.702,0.107c-0.213,0.027-0.293,0.283-0.141,0.435l0.507,0.499l0.08,0.221l-0.125,0.712   c-0.027,0.16,0.107,0.293,0.248,0.293l0.125-0.027l0.632-0.331l0.115-0.035l0.125,0.035l0.63,0.331l0.117,0.027   c0.149,0,0.283-0.133,0.248-0.293l-0.115-0.712l0.069-0.221L40.095,36.788z M40.095,42.463c0.149-0.152,0.061-0.411-0.144-0.438   l-0.71-0.107l-0.187-0.133l-0.32-0.648c-0.045-0.088-0.133-0.141-0.232-0.141l-0.232,0.141l-0.309,0.648   c-0.037,0.072-0.107,0.125-0.197,0.133l-0.702,0.107c-0.213,0.027-0.293,0.285-0.141,0.438l0.507,0.496l0.08,0.224l-0.125,0.71   c-0.027,0.16,0.107,0.304,0.248,0.304l0.125-0.037l0.632-0.328l0.115-0.035l0.125,0.035l0.63,0.328l0.117,0.037   c0.149,0,0.283-0.144,0.248-0.304l-0.115-0.71l0.069-0.224L40.095,42.463z M40.095,48.127c0.149-0.141,0.061-0.4-0.144-0.435   l-0.71-0.099l-0.187-0.141l-0.32-0.64c-0.045-0.099-0.133-0.144-0.232-0.144c-0.088,0-0.179,0.045-0.232,0.144l-0.309,0.64   c-0.037,0.069-0.107,0.123-0.197,0.141l-0.702,0.099c-0.213,0.035-0.293,0.293-0.141,0.435l0.507,0.499l0.08,0.229l-0.125,0.704   c-0.027,0.168,0.107,0.301,0.248,0.301l0.125-0.035l0.632-0.331l0.115-0.027l0.125,0.027l0.63,0.331l0.117,0.035   c0.149,0,0.283-0.133,0.248-0.301l-0.115-0.704l0.069-0.229L40.095,48.127z M37.168,28.277c0.152-0.141,0.072-0.4-0.141-0.435   l-0.712-0.099l-0.187-0.141l-0.32-0.64c-0.045-0.099-0.133-0.144-0.232-0.144c-0.088,0-0.176,0.045-0.221,0.144l-0.32,0.64   l-0.187,0.141l-0.712,0.099c-0.213,0.035-0.293,0.293-0.141,0.435l0.507,0.499l0.08,0.229l-0.125,0.704   c-0.027,0.168,0.107,0.301,0.259,0.301l0.115-0.035l0.632-0.331l0.115-0.027l0.125,0.027l0.632,0.331l0.115,0.035   c0.152,0,0.285-0.133,0.259-0.301l-0.125-0.704l0.08-0.229L37.168,28.277z M37.168,33.952c0.152-0.144,0.072-0.4-0.141-0.438   l-0.712-0.096l-0.187-0.144l-0.32-0.64c-0.045-0.096-0.133-0.141-0.232-0.141c-0.088,0-0.176,0.045-0.221,0.141l-0.32,0.64   l-0.187,0.144l-0.712,0.096c-0.213,0.037-0.293,0.293-0.141,0.438l0.507,0.496l0.08,0.232l-0.125,0.702   c-0.027,0.171,0.107,0.304,0.259,0.304l0.115-0.037l0.632-0.328l0.115-0.027l0.125,0.027l0.632,0.328l0.115,0.037   c0.152,0,0.285-0.133,0.259-0.304l-0.125-0.702l0.08-0.232L37.168,33.952z M37.168,39.624c0.152-0.141,0.072-0.4-0.141-0.427   l-0.712-0.107l-0.187-0.141l-0.32-0.64c-0.045-0.099-0.133-0.141-0.232-0.141c-0.088,0-0.176,0.043-0.221,0.141l-0.32,0.64   l-0.187,0.141l-0.712,0.107c-0.213,0.027-0.293,0.285-0.141,0.427l0.507,0.507l0.08,0.224l-0.125,0.702   c-0.027,0.168,0.107,0.301,0.259,0.301l0.115-0.027l0.632-0.336l0.115-0.027l0.125,0.027l0.632,0.336l0.115,0.027   c0.152,0,0.285-0.133,0.259-0.301l-0.125-0.702l0.08-0.224L37.168,39.624z M37.168,45.299c0.152-0.152,0.072-0.408-0.141-0.435   l-0.712-0.107l-0.187-0.144l-0.32-0.64c-0.045-0.088-0.133-0.141-0.232-0.141l-0.221,0.141l-0.32,0.64l-0.187,0.144l-0.712,0.107   c-0.213,0.027-0.293,0.283-0.141,0.435l0.507,0.499l0.08,0.221l-0.125,0.702c-0.027,0.171,0.107,0.304,0.259,0.304l0.115-0.027   l0.632-0.331l0.115-0.035l0.125,0.035l0.632,0.331l0.115,0.027c0.152,0,0.285-0.133,0.259-0.304l-0.125-0.702l0.08-0.221   L37.168,45.299z M34.241,31.113c0.152-0.149,0.072-0.408-0.141-0.435l-0.702-0.107c-0.091-0.008-0.16-0.061-0.197-0.141l-0.32-0.64   c-0.043-0.091-0.133-0.144-0.221-0.144c-0.099,0-0.187,0.053-0.232,0.144l-0.32,0.64l-0.187,0.141l-0.71,0.107   c-0.205,0.027-0.293,0.285-0.144,0.435l0.518,0.499l0.069,0.221l-0.123,0.704c-0.027,0.168,0.107,0.301,0.256,0.301l0.117-0.027   l0.63-0.328l0.125-0.037l0.115,0.037l0.632,0.328l0.125,0.027c0.149,0,0.275-0.133,0.248-0.301l-0.125-0.704l0.08-0.221   L34.241,31.113z M34.241,36.788c0.152-0.152,0.072-0.408-0.141-0.435l-0.702-0.107c-0.091-0.011-0.16-0.064-0.197-0.133   l-0.32-0.648c-0.043-0.091-0.133-0.144-0.221-0.144c-0.099,0-0.187,0.053-0.232,0.144l-0.32,0.648l-0.187,0.133l-0.71,0.107   c-0.205,0.027-0.293,0.283-0.144,0.435l0.518,0.499l0.069,0.221l-0.123,0.712c-0.027,0.16,0.107,0.293,0.256,0.293l0.117-0.027   l0.63-0.331l0.125-0.035l0.115,0.035l0.632,0.331l0.125,0.027c0.149,0,0.275-0.133,0.248-0.293l-0.125-0.712l0.08-0.221   L34.241,36.788z M34.241,42.463c0.152-0.152,0.072-0.411-0.141-0.438l-0.702-0.107c-0.091-0.008-0.16-0.061-0.197-0.133   l-0.32-0.648l-0.221-0.141c-0.099,0-0.187,0.053-0.232,0.141l-0.32,0.648l-0.187,0.133l-0.71,0.107   c-0.205,0.027-0.293,0.285-0.144,0.438l0.518,0.496l0.069,0.224l-0.123,0.71c-0.027,0.16,0.107,0.304,0.256,0.304l0.117-0.037   l0.63-0.328l0.125-0.035l0.115,0.035l0.632,0.328l0.125,0.037c0.149,0,0.275-0.144,0.248-0.304l-0.125-0.71l0.08-0.224   L34.241,42.463z M34.241,48.127c0.152-0.141,0.072-0.4-0.141-0.435l-0.702-0.099c-0.091-0.019-0.16-0.072-0.197-0.141l-0.32-0.64   c-0.043-0.099-0.133-0.144-0.221-0.144c-0.099,0-0.187,0.045-0.232,0.144l-0.32,0.64l-0.187,0.141l-0.71,0.099   c-0.205,0.035-0.293,0.293-0.144,0.435l0.518,0.499l0.069,0.229l-0.123,0.704c-0.027,0.168,0.107,0.301,0.256,0.301l0.117-0.035   l0.63-0.331l0.125-0.027l0.115,0.027l0.632,0.331l0.125,0.035c0.149,0,0.275-0.133,0.248-0.301l-0.125-0.704l0.08-0.229   L34.241,48.127z M31.317,28.277c0.149-0.141,0.069-0.4-0.144-0.435l-0.702-0.099l-0.195-0.141l-0.312-0.64   c-0.045-0.099-0.141-0.144-0.232-0.144c-0.088,0-0.187,0.045-0.229,0.144l-0.312,0.64l-0.195,0.141l-0.712,0.099   c-0.205,0.035-0.293,0.293-0.141,0.435l0.515,0.499l0.072,0.229l-0.117,0.704c-0.027,0.168,0.099,0.301,0.251,0.301l0.123-0.035   l0.632-0.331l0.115-0.027l0.117,0.027l0.63,0.331l0.125,0.035c0.152,0,0.275-0.133,0.248-0.301l-0.115-0.704l0.072-0.229   L31.317,28.277z M31.317,33.952c0.149-0.144,0.069-0.4-0.144-0.438l-0.702-0.096l-0.195-0.144l-0.312-0.64   c-0.045-0.096-0.141-0.141-0.232-0.141c-0.088,0-0.187,0.045-0.229,0.141l-0.312,0.64l-0.195,0.144l-0.712,0.096   c-0.205,0.037-0.293,0.293-0.141,0.438l0.515,0.496l0.072,0.232l-0.117,0.702c-0.027,0.171,0.099,0.304,0.251,0.304l0.123-0.037   l0.632-0.328l0.115-0.027l0.117,0.027l0.63,0.328l0.125,0.037c0.152,0,0.275-0.133,0.248-0.304l-0.115-0.702l0.072-0.232   L31.317,33.952z M31.317,39.624c0.149-0.141,0.069-0.4-0.144-0.427l-0.702-0.107l-0.195-0.141l-0.312-0.64   c-0.045-0.099-0.141-0.141-0.232-0.141c-0.088,0-0.187,0.043-0.229,0.141l-0.312,0.64l-0.195,0.141l-0.712,0.107   c-0.205,0.027-0.293,0.285-0.141,0.427l0.515,0.507l0.072,0.224l-0.117,0.702c-0.027,0.168,0.099,0.301,0.251,0.301l0.123-0.027   l0.632-0.336l0.115-0.027l0.117,0.027l0.63,0.336l0.125,0.027c0.152,0,0.275-0.133,0.248-0.301l-0.115-0.702l0.072-0.224   L31.317,39.624z M31.317,45.299c0.149-0.152,0.069-0.408-0.144-0.435l-0.702-0.107l-0.195-0.144l-0.312-0.64   c-0.045-0.088-0.141-0.141-0.232-0.141l-0.229,0.141l-0.312,0.64l-0.195,0.144l-0.712,0.107c-0.205,0.027-0.293,0.283-0.141,0.435   l0.515,0.499l0.072,0.221l-0.117,0.702c-0.027,0.171,0.099,0.304,0.251,0.304l0.123-0.027l0.632-0.331l0.115-0.035l0.117,0.035   l0.63,0.331l0.125,0.027c0.152,0,0.275-0.133,0.248-0.304l-0.115-0.702l0.072-0.221L31.317,45.299z M28.398,31.113   c0.152-0.149,0.064-0.408-0.141-0.435l-0.712-0.107l-0.187-0.141l-0.32-0.64c-0.043-0.091-0.133-0.144-0.229-0.144   c-0.091,0-0.179,0.053-0.232,0.144l-0.312,0.64l-0.195,0.141l-0.702,0.107c-0.213,0.027-0.293,0.285-0.144,0.435l0.507,0.499   l0.08,0.221l-0.123,0.704c-0.027,0.168,0.107,0.301,0.248,0.301l0.125-0.027l0.63-0.328l0.117-0.037l0.123,0.037l0.632,0.328   l0.115,0.027c0.152,0,0.285-0.133,0.251-0.301l-0.117-0.704l0.072-0.221L28.398,31.113z M28.398,36.788   c0.152-0.152,0.064-0.408-0.141-0.435l-0.712-0.107l-0.187-0.133l-0.32-0.648c-0.043-0.091-0.133-0.144-0.229-0.144   c-0.091,0-0.179,0.053-0.232,0.144l-0.312,0.648l-0.195,0.133l-0.702,0.107c-0.213,0.027-0.293,0.283-0.144,0.435l0.507,0.499   l0.08,0.221l-0.123,0.712c-0.027,0.16,0.107,0.293,0.248,0.293l0.125-0.027l0.63-0.331l0.117-0.035l0.123,0.035l0.632,0.331   l0.115,0.027c0.152,0,0.285-0.133,0.251-0.293l-0.117-0.712l0.072-0.221L28.398,36.788z M28.398,42.463   c0.152-0.152,0.064-0.411-0.141-0.438l-0.712-0.107l-0.187-0.133l-0.32-0.648c-0.043-0.088-0.133-0.141-0.229-0.141   c-0.091,0-0.179,0.053-0.232,0.141l-0.312,0.648l-0.195,0.133l-0.702,0.107c-0.213,0.027-0.293,0.285-0.144,0.438l0.507,0.496   l0.08,0.224l-0.123,0.71c-0.027,0.16,0.107,0.304,0.248,0.304l0.125-0.037l0.63-0.328l0.117-0.035l0.123,0.035l0.632,0.328   l0.115,0.037c0.152,0,0.285-0.144,0.251-0.304l-0.117-0.71l0.072-0.224L28.398,42.463z M28.398,48.127   c0.152-0.141,0.064-0.4-0.141-0.435l-0.712-0.099l-0.187-0.141l-0.32-0.64c-0.043-0.099-0.133-0.144-0.229-0.144   c-0.091,0-0.179,0.045-0.232,0.144l-0.312,0.64l-0.195,0.141l-0.702,0.099c-0.213,0.035-0.293,0.293-0.144,0.435l0.507,0.499   l0.08,0.229l-0.123,0.704c-0.027,0.168,0.107,0.301,0.248,0.301l0.125-0.035l0.63-0.331l0.117-0.027l0.123,0.027l0.632,0.331   l0.115,0.035c0.152,0,0.285-0.133,0.251-0.301l-0.117-0.704l0.072-0.229L28.398,48.127z M25.474,28.277   c0.149-0.141,0.069-0.4-0.144-0.435l-0.71-0.099l-0.187-0.141l-0.32-0.64c-0.045-0.099-0.133-0.144-0.232-0.144   c-0.088,0-0.179,0.045-0.221,0.144l-0.32,0.64l-0.187,0.141l-0.712,0.099c-0.213,0.035-0.293,0.293-0.141,0.435l0.507,0.499   l0.08,0.229l-0.125,0.704c-0.027,0.168,0.107,0.301,0.259,0.301l0.115-0.035l0.632-0.331l0.115-0.027l0.125,0.027l0.63,0.331   l0.117,0.035c0.149,0,0.283-0.133,0.256-0.301l-0.123-0.704l0.08-0.229L25.474,28.277z M25.474,33.952   c0.149-0.144,0.069-0.4-0.144-0.438l-0.71-0.096l-0.187-0.144l-0.32-0.64c-0.045-0.096-0.133-0.141-0.232-0.141   c-0.088,0-0.179,0.045-0.221,0.141l-0.32,0.64l-0.187,0.144l-0.712,0.096c-0.213,0.037-0.293,0.293-0.141,0.438l0.507,0.496   l0.08,0.232l-0.125,0.702c-0.027,0.171,0.107,0.304,0.259,0.304l0.115-0.037l0.632-0.328l0.115-0.027l0.125,0.027l0.63,0.328   l0.117,0.037c0.149,0,0.283-0.133,0.256-0.304l-0.123-0.702l0.08-0.232L25.474,33.952z M25.474,39.624   c0.149-0.141,0.069-0.4-0.144-0.427l-0.71-0.107l-0.187-0.141l-0.32-0.64c-0.045-0.099-0.133-0.141-0.232-0.141   c-0.088,0-0.179,0.043-0.221,0.141l-0.32,0.64l-0.187,0.141l-0.712,0.107c-0.213,0.027-0.293,0.285-0.141,0.427l0.507,0.507   l0.08,0.224l-0.125,0.702c-0.027,0.168,0.107,0.301,0.259,0.301l0.115-0.027l0.632-0.336l0.115-0.027l0.125,0.027l0.63,0.336   l0.117,0.027c0.149,0,0.283-0.133,0.256-0.301l-0.123-0.702l0.08-0.224L25.474,39.624z M25.474,45.299   c0.149-0.152,0.069-0.408-0.144-0.435l-0.71-0.107l-0.187-0.144l-0.32-0.64c-0.045-0.088-0.133-0.141-0.232-0.141l-0.221,0.141   l-0.32,0.64l-0.187,0.144l-0.712,0.107c-0.213,0.027-0.293,0.283-0.141,0.435l0.507,0.499l0.08,0.221l-0.125,0.702   c-0.027,0.171,0.107,0.304,0.259,0.304l0.115-0.027l0.632-0.331l0.115-0.035l0.125,0.035l0.63,0.331l0.117,0.027   c0.149,0,0.283-0.133,0.256-0.304l-0.123-0.702l0.08-0.221L25.474,45.299z M22.548,31.113c0.152-0.149,0.072-0.408-0.141-0.435   l-0.704-0.107l-0.195-0.141l-0.32-0.64c-0.045-0.091-0.133-0.144-0.221-0.144c-0.099,0-0.187,0.053-0.232,0.144l-0.32,0.64   l-0.187,0.141l-0.712,0.107c-0.203,0.027-0.293,0.285-0.141,0.435l0.515,0.499l0.072,0.221l-0.125,0.704   c-0.027,0.168,0.107,0.301,0.259,0.301l0.115-0.027l0.632-0.328l0.125-0.037l0.115,0.037l0.632,0.328l0.123,0.027   c0.152,0,0.277-0.133,0.251-0.301l-0.125-0.704l0.08-0.221L22.548,31.113z M22.548,36.788c0.152-0.152,0.072-0.408-0.141-0.435   l-0.704-0.107l-0.195-0.133l-0.32-0.648c-0.045-0.091-0.133-0.144-0.221-0.144c-0.099,0-0.187,0.053-0.232,0.144l-0.32,0.648   l-0.187,0.133l-0.712,0.107c-0.203,0.027-0.293,0.283-0.141,0.435l0.515,0.499l0.072,0.221l-0.125,0.712   c-0.027,0.16,0.107,0.293,0.259,0.293l0.115-0.027l0.632-0.331l0.125-0.035l0.115,0.035l0.632,0.331l0.123,0.027   c0.152,0,0.277-0.133,0.251-0.293l-0.125-0.712l0.08-0.221L22.548,36.788z M22.548,42.463c0.152-0.152,0.072-0.411-0.141-0.438   l-0.704-0.107l-0.195-0.133l-0.32-0.648l-0.221-0.141c-0.099,0-0.187,0.053-0.232,0.141l-0.32,0.648l-0.187,0.133l-0.712,0.107   c-0.203,0.027-0.293,0.285-0.141,0.438l0.515,0.496l0.072,0.224l-0.125,0.71c-0.027,0.16,0.107,0.304,0.259,0.304l0.115-0.037   l0.632-0.328l0.125-0.035l0.115,0.035l0.632,0.328l0.123,0.037c0.152,0,0.277-0.144,0.251-0.304l-0.125-0.71l0.08-0.224   L22.548,42.463z M22.548,48.127c0.152-0.141,0.072-0.4-0.141-0.435l-0.704-0.099l-0.195-0.141l-0.32-0.64   c-0.045-0.099-0.133-0.144-0.221-0.144c-0.099,0-0.187,0.045-0.232,0.144l-0.32,0.64l-0.187,0.141l-0.712,0.099   c-0.203,0.035-0.293,0.293-0.141,0.435l0.515,0.499l0.072,0.229l-0.125,0.704c-0.027,0.168,0.107,0.301,0.259,0.301l0.115-0.035   l0.632-0.331l0.125-0.027l0.115,0.027l0.632,0.331l0.123,0.035c0.152,0,0.277-0.133,0.251-0.301l-0.125-0.704l0.08-0.229   L22.548,48.127z M19.621,28.277c0.152-0.141,0.072-0.4-0.141-0.435l-0.702-0.099l-0.197-0.141l-0.309-0.64   c-0.045-0.099-0.144-0.144-0.232-0.144s-0.187,0.045-0.232,0.144l-0.31,0.64L17.3,27.743l-0.71,0.099   c-0.205,0.035-0.293,0.293-0.144,0.435l0.518,0.499l0.069,0.229l-0.115,0.704c-0.027,0.168,0.099,0.301,0.248,0.301l0.125-0.035   l0.632-0.331l0.115-0.027l0.115,0.027l0.632,0.331l0.125,0.035c0.149,0,0.275-0.133,0.248-0.301l-0.115-0.704l0.069-0.229   L19.621,28.277z M19.621,33.952c0.152-0.144,0.072-0.4-0.141-0.438l-0.702-0.096l-0.197-0.144l-0.309-0.64   c-0.045-0.096-0.144-0.141-0.232-0.141s-0.187,0.045-0.232,0.141l-0.31,0.64L17.3,33.418l-0.71,0.096   c-0.205,0.037-0.293,0.293-0.144,0.438l0.518,0.496l0.069,0.232l-0.115,0.702c-0.027,0.171,0.099,0.304,0.248,0.304l0.125-0.037   l0.632-0.328l0.115-0.027l0.115,0.027l0.632,0.328l0.125,0.037c0.149,0,0.275-0.133,0.248-0.304l-0.115-0.702l0.069-0.232   L19.621,33.952z M19.621,39.624c0.152-0.141,0.072-0.4-0.141-0.427l-0.702-0.107l-0.197-0.141l-0.309-0.64   c-0.045-0.099-0.144-0.141-0.232-0.141s-0.187,0.043-0.232,0.141l-0.31,0.64L17.3,39.091l-0.71,0.107   c-0.205,0.027-0.293,0.285-0.144,0.427l0.518,0.507l0.069,0.224l-0.115,0.702c-0.027,0.168,0.099,0.301,0.248,0.301l0.125-0.027   l0.632-0.336l0.115-0.027l0.115,0.027l0.632,0.336l0.125,0.027c0.149,0,0.275-0.133,0.248-0.301l-0.115-0.702l0.069-0.224   L19.621,39.624z M19.621,45.299c0.152-0.152,0.072-0.408-0.141-0.435l-0.702-0.107l-0.197-0.144l-0.309-0.64l-0.232-0.141   l-0.232,0.141l-0.31,0.64L17.3,44.757l-0.71,0.107c-0.205,0.027-0.293,0.283-0.144,0.435l0.518,0.499l0.069,0.221l-0.115,0.702   c-0.027,0.171,0.099,0.304,0.248,0.304l0.125-0.027l0.632-0.331l0.115-0.035l0.115,0.035l0.632,0.331l0.125,0.027   c0.149,0,0.275-0.133,0.248-0.304l-0.115-0.702l0.069-0.221L19.621,45.299z M16.705,31.113c0.152-0.149,0.061-0.408-0.141-0.435   l-0.712-0.107l-0.187-0.141l-0.32-0.64c-0.045-0.091-0.133-0.144-0.232-0.144c-0.088,0-0.176,0.053-0.229,0.144l-0.312,0.64   l-0.195,0.141l-0.704,0.107c-0.213,0.027-0.293,0.285-0.141,0.435l0.507,0.499l0.08,0.221l-0.125,0.704   c-0.027,0.168,0.107,0.301,0.251,0.301l0.123-0.027l0.632-0.328l0.115-0.037l0.125,0.037l0.632,0.328l0.115,0.027   c0.152,0,0.285-0.133,0.248-0.301l-0.115-0.704l0.072-0.221L16.705,31.113z M16.705,36.788c0.152-0.152,0.061-0.408-0.141-0.435   l-0.712-0.107l-0.187-0.133l-0.32-0.648c-0.045-0.091-0.133-0.144-0.232-0.144c-0.088,0-0.176,0.053-0.229,0.144l-0.312,0.648   l-0.195,0.133l-0.704,0.107c-0.213,0.027-0.293,0.283-0.141,0.435l0.507,0.499l0.08,0.221l-0.125,0.712   c-0.027,0.16,0.107,0.293,0.251,0.293l0.123-0.027l0.632-0.331l0.115-0.035l0.125,0.035l0.632,0.331l0.115,0.027   c0.152,0,0.285-0.133,0.248-0.293l-0.115-0.712l0.072-0.221L16.705,36.788z M16.705,42.463c0.152-0.152,0.061-0.411-0.141-0.438   l-0.712-0.107l-0.187-0.133l-0.32-0.648c-0.045-0.088-0.133-0.141-0.232-0.141l-0.229,0.141l-0.312,0.648l-0.195,0.133   l-0.704,0.107c-0.213,0.027-0.293,0.285-0.141,0.438l0.507,0.496l0.08,0.224l-0.125,0.71c-0.027,0.16,0.107,0.304,0.251,0.304   l0.123-0.037l0.632-0.328l0.115-0.035l0.125,0.035l0.632,0.328l0.115,0.037c0.152,0,0.285-0.144,0.248-0.304l-0.115-0.71   l0.072-0.224L16.705,42.463z M16.705,48.127c0.152-0.141,0.061-0.4-0.141-0.435l-0.712-0.099l-0.187-0.141l-0.32-0.64   c-0.045-0.099-0.133-0.144-0.232-0.144c-0.088,0-0.176,0.045-0.229,0.144l-0.312,0.64l-0.195,0.141l-0.704,0.099   c-0.213,0.035-0.293,0.293-0.141,0.435l0.507,0.499l0.08,0.229l-0.125,0.704c-0.027,0.168,0.107,0.301,0.251,0.301l0.123-0.035   l0.632-0.331l0.115-0.027l0.125,0.027l0.632,0.331l0.115,0.035c0.152,0,0.285-0.133,0.248-0.301l-0.115-0.704l0.072-0.229   L16.705,48.127z M13.778,28.277c0.152-0.141,0.072-0.4-0.141-0.435l-0.712-0.099l-0.187-0.141l-0.32-0.64   c-0.043-0.099-0.133-0.144-0.229-0.144c-0.091,0-0.179,0.045-0.224,0.144l-0.32,0.64l-0.187,0.141l-0.71,0.099   c-0.213,0.035-0.293,0.293-0.144,0.435l0.507,0.499l0.08,0.229l-0.123,0.704c-0.027,0.168,0.107,0.301,0.256,0.301l0.117-0.035   l0.63-0.331l0.117-0.027l0.123,0.027l0.632,0.331l0.115,0.035c0.152,0,0.285-0.133,0.259-0.301l-0.125-0.704l0.08-0.229   L13.778,28.277z M13.778,33.952c0.152-0.144,0.072-0.4-0.141-0.438l-0.712-0.096l-0.187-0.144l-0.32-0.64   c-0.043-0.096-0.133-0.141-0.229-0.141c-0.091,0-0.179,0.045-0.224,0.141l-0.32,0.64l-0.187,0.144l-0.71,0.096   c-0.213,0.037-0.293,0.293-0.144,0.438l0.507,0.496l0.08,0.232l-0.123,0.702c-0.027,0.171,0.107,0.304,0.256,0.304l0.117-0.037   l0.63-0.328l0.117-0.027l0.123,0.027l0.632,0.328l0.115,0.037c0.152,0,0.285-0.133,0.259-0.304l-0.125-0.702l0.08-0.232   L13.778,33.952z M13.778,39.624c0.152-0.141,0.072-0.4-0.141-0.427l-0.712-0.107l-0.187-0.141l-0.32-0.64   c-0.043-0.099-0.133-0.141-0.229-0.141c-0.091,0-0.179,0.043-0.224,0.141l-0.32,0.64l-0.187,0.141l-0.71,0.107   c-0.213,0.027-0.293,0.285-0.144,0.427l0.507,0.507l0.08,0.224l-0.123,0.702c-0.027,0.168,0.107,0.301,0.256,0.301l0.117-0.027   l0.63-0.336l0.117-0.027l0.123,0.027l0.632,0.336l0.115,0.027c0.152,0,0.285-0.133,0.259-0.301l-0.125-0.702l0.08-0.224   L13.778,39.624z M13.778,45.299c0.152-0.152,0.072-0.408-0.141-0.435l-0.712-0.107l-0.187-0.144l-0.32-0.64   c-0.043-0.088-0.133-0.141-0.229-0.141c-0.091,0-0.179,0.053-0.224,0.141l-0.32,0.64l-0.187,0.144l-0.71,0.107   c-0.213,0.027-0.293,0.283-0.144,0.435l0.507,0.499l0.08,0.221l-0.123,0.702c-0.027,0.171,0.107,0.304,0.256,0.304l0.117-0.027   l0.63-0.331l0.117-0.035l0.123,0.035l0.632,0.331l0.115,0.027c0.152,0,0.285-0.133,0.259-0.304l-0.125-0.702l0.08-0.221   L13.778,45.299z M10.854,36.788c0.149-0.152,0.069-0.408-0.144-0.435l-0.702-0.107l-0.195-0.133l-0.32-0.648   c-0.045-0.091-0.133-0.144-0.224-0.144c-0.096,0-0.187,0.053-0.229,0.144l-0.32,0.648l-0.187,0.133L7.82,36.353   c-0.205,0.027-0.293,0.283-0.141,0.435l0.515,0.499l0.072,0.221L8.14,38.221c-0.027,0.16,0.107,0.293,0.259,0.293l0.115-0.027   l0.632-0.331l0.123-0.035l0.117,0.035l0.63,0.331l0.125,0.027c0.152,0,0.275-0.133,0.248-0.293l-0.123-0.712l0.08-0.221   L10.854,36.788z M10.854,42.463c0.149-0.152,0.069-0.411-0.144-0.438l-0.702-0.107l-0.195-0.133l-0.32-0.648   c-0.045-0.088-0.133-0.141-0.224-0.141c-0.096,0-0.187,0.053-0.229,0.141l-0.32,0.648l-0.187,0.133L7.82,42.025   c-0.205,0.027-0.293,0.285-0.141,0.438l0.515,0.496l0.072,0.224l-0.125,0.71c-0.027,0.16,0.107,0.304,0.259,0.304l0.115-0.037   l0.632-0.328l0.123-0.035l0.117,0.035l0.63,0.328l0.125,0.037c0.152,0,0.275-0.144,0.248-0.304l-0.123-0.71l0.08-0.224   L10.854,42.463z M10.854,48.127c0.149-0.141,0.069-0.4-0.144-0.435l-0.702-0.099l-0.195-0.141l-0.32-0.64   c-0.045-0.099-0.133-0.144-0.224-0.144c-0.096,0-0.187,0.045-0.229,0.144l-0.32,0.64l-0.187,0.141L7.82,47.692   c-0.205,0.035-0.293,0.293-0.141,0.435l0.515,0.499l0.072,0.229L8.14,49.56c-0.027,0.168,0.107,0.301,0.259,0.301l0.115-0.035   l0.632-0.331l0.123-0.027l0.117,0.027l0.63,0.331l0.125,0.035c0.152,0,0.275-0.133,0.248-0.301l-0.123-0.704l0.08-0.229   L10.854,48.127z">
    </path>
    <path fill="#000000"
      d="M11.433,56.539h72.81c-0.157,0.296-0.331,0.584-0.523,0.862l-2.046,2.983   c-0.115,0.168-0.227,0.341-0.331,0.515H18.887l-4.448-2.351C13.37,57.98,12.361,57.308,11.433,56.539z">
    </path>
    <path fill="#000000"
      d="M80.633,69.41l0.083,0.213h-6.35c-1.035-0.683-2.246-1.089-3.516-1.155l-1.297-0.069   c-0.267-0.013-0.531-0.019-0.795-0.019c-2.06,0-4.098,0.419-5.984,1.243h-24.74c-0.491-0.232-0.993-0.443-1.505-0.632l-6.705-2.487   c-0.718-0.264-1.417-0.576-2.094-0.934l-0.582-0.307H79.99c-0.016,0.205-0.021,0.411-0.021,0.616   C79.968,67.073,80.187,68.268,80.633,69.41z">
    </path>
    <path fill="#000000"
      d="M78.021,73.988h3.77c-0.011,0.904-0.179,1.806-0.504,2.663c-0.064,0.171-0.157,0.277-0.28,0.355   c-0.117,0.08-0.267,0.125-0.416,0.125c-0.12,0-0.235-0.027-0.334-0.077c-0.101-0.051-0.189-0.123-0.272-0.24L78.021,73.988z">
    </path>
    <path fill="#000000"
      d="M44.044,73.988h5.531c-0.115,0.36-0.176,0.744-0.181,1.142l-0.011,2.028   c-0.005,0.536-0.371,1.011-0.891,1.15c-0.101,0.024-0.203,0.04-0.304,0.04c-0.36,0-0.707-0.163-0.936-0.448l-2.212-2.764   C44.721,74.738,44.391,74.356,44.044,73.988z">
    </path>
  </g>
</svg>