<svg fill="#000000" version="1.1" viewBox="10 23 80 55">
  <path
    d="M62.075,48.196l0.22,0.521l-0.646,1.159v0.992l-0.541,0.923l-0.451-0.142l-0.43,0.313l-0.229-0.885l-1.24-1.082l0.373-0.872  l-0.647-0.835l-0.192,0.188l-0.161-0.813c0,0-0.894-0.534-1.031-0.635c-0.017-0.092-0.127-1.013-0.166-1.15l0.74-1.303  c0,0-0.339-0.37-0.395-0.454c0.075-0.095,0.158-0.22,0.221-0.316h0.733l0.482-1.063l-0.586-0.756l3.487-0.305  c0.15,0.495,0.345,1.148,0.345,1.148l0.111,0.077L62.075,48.196z M71.381,50.426l1.631-0.889l0.564-2.48  c0,0,0.642,0.257,0.736,0.297c0.147-0.164,0.438-0.523,0.687-0.848l0.235-1.183c0,0,1.326,0.238,1.56,0.273l0.419-0.36l-0.176-0.452  l-4.83,1.027l-0.135-0.536c-0.034,0.182-0.131,0.707-0.131,0.707l-1.492,1.432l-0.331,1.123v0.538l0.838,1.128L71.381,50.426z   M62.151,50.439l0.669-0.491l0.59,0.369l1.305-0.457l0.836-1.619l0.615-0.217l-0.578-5.475l-2.779,0.1  c-0.086,0.06-0.162,0.115-0.236,0.166l0.004,5.322l0.281,0.595l-0.707,1.271V50.439z M62.151,50.441v-0.002l-0.003,0.002H62.151z   M58.316,33.879l1.535,0.501l1.33,0.248v1.113c0.068,0.058,0.197,0.155,0.328,0.25l0.301-0.622l0.52-0.134  c0,0,0.913-0.349,0.955-0.349s0.529,0.185,0.529,0.185l0.541-0.185l-0.508,1.365l-0.584,0.298c0,0-0.414,1.868-0.414,1.96  c0,0.092,0.53,1.56,0.541,1.591c0.01,0.03,0.201,1.929,0.213,1.96c0.002,0.005-0.027,0.029-0.07,0.063l4.045-0.146l0.04-0.018  l0.255-0.975l0.549-0.714l0.041-0.952l-0.525-1.547l-0.426-0.151l-0.82,1.111l-0.312-0.159l-0.024-0.587l0.606-0.77l0.099-0.667  l-0.386-0.659l0.197-0.182l-0.353-0.555l-0.828-0.23l-0.377-0.357l-0.689-0.048l-0.23-0.532l-0.942-0.119l-0.213-0.349l-0.484-0.198  l-0.45,0.317l-0.951-0.087l-0.854-0.69l-0.623,0.389l-0.041-0.262l1.018-1.214l-0.32-0.056l-1.238,1.008l-1.372,0.851L58.316,33.879  z M54.923,37.26c0.2,0.12,0.67,0.483,1.989,1.588l0.154,0.128l-0.321,0.62l0.299,0.241l0.224,1.18l0.293,0.235l0.203,0.264  l3.704-0.323c-0.008-0.025-0.016-0.054-0.017-0.056c-0.012-0.031-0.18-1.724-0.18-1.724l0.604-2.587l0.127-0.801L60.9,37.656v-0.4  l0.39-0.808c-0.601-0.426-0.606-0.497-0.606-0.615v-0.79l-0.955-0.179l-1.684-0.563L57.4,33.8v-0.067l-0.563-0.104l0.106-0.294  l-0.09-0.278l-1.42,0.644l-0.147,1.244l-0.529,0.569l0.255,0.677l-0.273,0.33C54.797,36.82,54.876,37.143,54.923,37.26z   M49.646,39.912l-0.104,0.443l0.213,1.328l0.925,2.596l0.364,1.085l5.331-0.133l0.077,0.083c0.044,0.048,0.093,0.097,0.141,0.146  l0.462-0.812c-0.313-0.358-0.312-0.512-0.311-0.565c0.003-0.131-0.021-0.077,0.091-0.211c0.044-0.043,0.2-0.27,0.315-0.452  l0.074-0.116h0.684l0.226-0.494l-0.948-1.226l-0.373-0.288l-0.226-1.186l-0.246-0.198H49.646z M80.257,46.718l-0.741,0.194  l-0.678-1.922l-0.292,0.343l0.117,1.602l0.88,0.65l-0.096,1.083l0.176,0.294l0.592-1.625L80.257,46.718z M80.294,46.176l-0.726-1.15  c-0.045-0.051-0.334-0.412-0.334-0.412l0.6,1.699l0.46-0.12V46.176z M67.945,42.351l-0.301,0.123l-1.555,0.056l0.497,4.715  l0.739,0.162l0.333,0.564l0.745,0.183c0.554-0.335,0.63-0.354,0.662-0.362c0.088-0.021,0.168-0.04,0.66,0.301l0.279-0.948  l1.471-1.412c0.119-0.63,0.293-1.579,0.303-1.67c-0.01-0.066-0.227-1.531-0.416-2.8c-0.268,0.14-0.545,0.284-0.562,0.292  c-0.032,0.016-0.95,0.841-0.95,0.841h-0.436l-0.492,0.452l-0.754-0.452L67.945,42.351z M79.762,50.313c0,0,0.045-0.014,0.107-0.033  l-0.246-0.621l-0.576-0.294l-0.128-1.672l-0.005-0.008h-0.74c-0.984-0.19-1.021-0.255-1.076-0.353  c-0.072-0.126-0.067-0.072-0.02-0.214c0.013-0.038,0.162-0.415,0.253-0.646c-0.215-0.162-0.437-0.321-0.519-0.37  c-0.119-0.014-0.408-0.059-1.185-0.199l-0.198,0.859c-0.929,1.217-1.002,1.23-1.216,1.095c-0.037-0.021-0.159-0.072-0.28-0.121  l-0.484,2.13l-2.063,1.125l-0.56-0.29l-1.293,1.188l1.603-0.176L79.762,50.313z M48.539,41.454  c-0.132,0.074-0.454,0.271-0.726,0.443l-0.218,0.137l-0.131-0.222c-0.184-0.311-0.428-0.68-0.533-0.788  c-0.465-0.031-4.452-0.186-7.257-0.292c-0.096,1.463-0.176,2.683-0.223,3.409l2.536,0.28l-0.08,1.952l8.969,0.043l-0.666-1.974  l-0.903-2.531C49.015,41.723,48.683,41.522,48.539,41.454z M51.077,46.917l-9.191-0.044l-0.22,5.35  c1.257,0.049,7.543,0.219,10.363,0.293v-3.898c-0.738-0.66-0.738-0.753-0.738-0.859v-0.49L51.077,46.917z M77.936,46.306  c0,0-0.205,0.515-0.299,0.753c0.159,0.041,0.387,0.091,0.586,0.131l0.387,0.03l-0.33-0.502L78.005,45.2l0.643-0.756v-0.001  l-1.113,0.237l0.275,0.705l-0.512,0.44C77.416,45.911,77.936,46.306,77.936,46.306z M65.068,50.266l-1.721,0.602l-0.506-0.315  l-0.753,0.551l-0.751,1.281l-0.654-0.117l0.303,0.479l-0.047,0.118c-0.037,0.095-0.071,0.178-0.104,0.252l0.769-0.086l0.388-0.312  l6.702-0.736l1.758-1.614l-0.835-1.126V48.63c-0.183-0.131-0.38-0.263-0.483-0.322c-0.107,0.061-0.354,0.204-0.557,0.329  l-0.09,0.055l-1.152-0.282l-0.329-0.559l-0.362-0.08l0.063,0.594l-0.801,0.283L65.068,50.266z M41.166,52.21l0.302-7.344  l-2.122-0.234l-7.024-0.741c-0.281,2.08-0.634,4.704-0.989,7.346l8.539,0.974L41.166,52.21z M72.573,45.223l6.438-1.368l1.203-1.144  c0.01-0.005,0.014-0.007,0.023-0.012l-0.406-0.501l-0.433,0.124v-1.61l-0.692-0.643c-1.056,0.057-1.397,0.066-1.524,0.061  c-0.257,0.041-4.537,1.061-4.537,1.061l-0.418-0.596c0,0-0.36,0.407-0.392,0.424c0.349,2.335,0.427,2.887,0.442,3.018L72.573,45.223  z M70.507,52.913V52.91h0.001l0.396-0.668l-8.713,0.956l-0.385,0.312l-1.564,0.176l-0.256,1.18l-0.391,0.628l-0.074,0.493  l8.123-0.646l0.209-0.979l2.289-1.449H70.507z M74.008,60.269l0.129-0.315l2.047-2.104l0.112-0.774l0.379-0.568l-1.709-1.288  l-1.356,0.282l-0.881-0.728l-1.846,0.199l-0.998,0.852l0.521,0.271L74.008,60.269z M72.857,40.624  c4.265-1.021,4.306-1.011,4.394-0.981c0.048-0.004,1.526-0.077,1.526-0.077l0.766,0.249l0.527,0.789l0.154,0.044l0.428-0.252  l1.513,0.623l0.153-0.09l-0.351-0.751l-0.059-2.592l-0.315-1.469l-0.467-1.137v-0.702l-0.379-0.842h-0.001l-1.44,0.403l-1.414,0.067  L76.886,35l-0.033,0.399l-0.521,0.578l0.215,1.082l-1.612,0.907c0,0-1.293,0.012-1.307,0.012c-0.013,0-0.632,0.462-0.632,0.462  l0.364,0.828l-0.799,0.934L72.857,40.624z M85.128,36.179l-1.603-4.177l-0.08,0.049c0.033,0.178,0.293,1.417,0.293,1.417  l-0.391,1.015v2.522l1.264-0.309L85.128,36.179z M81.625,34.929L81.625,34.929l0.441,1.037l0.279,1.285l0.502-0.123l0.016-2.781  l0.354-0.918l-0.145-0.649l-1.85,0.522l0.403,0.922V34.929z M66.421,55.937l0.42,1.901l0.99,2.948l0.262,2.636l0.233,0.328  l3.98-0.34l0.088,0.071v-0.563h0.924l0.305-1.699l0.174-0.431l-3.736-4.33l-1.09-0.517l0.271-0.231L66.421,55.937z M31.827,43.825  L29.03,43.39l0.258-1.995c-1.311-0.215-3.042-0.495-3.638-0.583l-1.75,9.219l6.939,1.136C31.259,48.041,31.646,45.169,31.827,43.825  z M58.432,57.48v-0.799l0.565-0.547l0.149-0.863l0.222-0.356l-1.403-0.243l0.906-0.798l-0.039-0.041  c-2.186,0.036-5.313,0.101-6.162,0.151l0.211,1.841l0.002,3.391l0.708,0.21v0.778h3.983l-0.081-0.286l0.278-1.893L58.432,57.48z   M38.953,44.088c0.137-2.085,0.314-4.791,0.485-7.409l-8.852-0.948l-0.131,0.463l-0.611,4.787l-0.022,0.167l-0.008,0.071  l-0.226,1.752l2.546,0.397L38.953,44.088z M16.385,44.407l5.686,8.618c0.056-0.48,0.195-1.656,0.195-1.656h0.683l0.157,0.163  l2.051-10.803c-0.804-0.168-3.361-0.738-7.624-1.702L16.385,44.407z M45.539,57.602l0.156,0.334l1.476,0.272l0.45,0.554l1.155-0.179  l0.958,0.435l2.079-0.44l0.57,0.368v-3.092l-0.238-2.061l-0.09-0.777c-3.202-0.082-11.952-0.306-11.952-0.306l-0.018,0.621h4.433  v4.01L45.539,57.602z M59.824,53.227l0.412-0.045c0.046-0.068,0.119-0.213,0.191-0.387l-0.212-0.335H59.84l-0.287-1.108  l-1.396-1.222l0.397-0.935l-0.123-0.161L57.98,49.47l-0.299-1.491c-0.916-0.538-0.978-0.628-1.008-0.672  c-0.058-0.084-0.188-1.167-0.217-1.287c-0.089-0.073-0.206-0.192-0.293-0.283L51.21,45.86l0.244,0.728l0.335,0.538v0.563  c0.097,0.114,0.397,0.399,0.655,0.627l0.084,0.075v4.364l0.084,0.74c0.595-0.052,6.433-0.167,6.433-0.167l0.539,0.582l-0.508,0.445  l0.5,0.088L59.824,53.227z M62.07,56.284l-2.732,0.217l-0.406,0.394v0.82l-0.69,0.574l-0.236,1.598l0.597,2.11l-0.619,0.964  l-0.297,1.176h2.817l-0.081,0.828l0.446,0.569l0.728-0.332l0.795-0.011l-0.316-2.549L62.07,56.284z M60.65,66.92l0.768-1.021  l-0.176-0.279l-0.592,0.525l-0.32-0.371l-0.288,0.17l-0.608,0.078l0.176-0.65l0.705,0.268l-0.412-0.523l0.049-0.479h-2.909  l0.496-1.91l0.519-0.81l-0.341-1.212h-4.124v1.77l0.432,0.447l0.549,1.359l-0.422,1.383l0.129,0.438l-0.258,0.783l2.533,0.235  l-0.016-0.248l0.32-0.294l1.344,0.96l0.704,0.356l0.399-0.388l0.545,0.232l0.303-0.511c0,0,1.041,0.681,1.041,0.728  s0.544-0.217,0.592-0.217C61.836,67.739,60.65,66.92,60.65,66.92z M49.319,31.673l0.386,3.424c0,0-0.348,0.779-0.361,0.872  c0.01-0.034,0.354,0.221,0.354,0.221v3.222h6.579l0.16-0.31c-0.756-0.63-1.557-1.277-1.75-1.405  c-0.16-0.024-0.271-0.187-0.465-1.196L54.2,36.386l0.239-0.29l-0.26-0.694l0.629-0.677l0.159-1.357l1.062-0.505l1.553-1.385  l0.869-0.492h-0.518l-0.197-0.175l-0.786-0.008l-0.336-0.167l-0.451,0.31l-0.361,0.04l-0.606-0.531l-0.354,0.23l-0.549-0.627  l-0.713-0.087l-0.377,0.262l-1.344-0.445l-0.131-1.024l-0.353-0.167l-0.292,0.69c-0.691,0.047-1.387,0.075-2.086,0.096  c-0.002,0.667,0.004,1.543,0.021,1.667C49.044,31.115,49.319,31.673,49.319,31.673z M75.591,68.064l-0.048-1.037l-1.473-1.934  l-0.655-1.672h-0.521v1.119l-0.748-0.613l-4.063,0.346l-0.353-0.496l-3.725,0.39l0.309,0.896l1.101-0.34l1.312,0.278l1.024,0.976  l0.992-0.836l0.784-0.17c0,0,1.615,1.485,1.664,1.502c0.047,0.015,0.56,0.092,0.56,0.092l0.319,0.558c0,0-0.111,1.347-0.111,1.44  s0.641,0.263,0.641,0.263l-0.32,0.866l0.544,0.898l0.464,0.139l0.943,1.642l0.433,0.015l1.071,1.209l0.849-0.279l0.192-0.465  l-0.032-2.816L75.591,68.064z M80.374,52.275l-0.08-0.495h-0.353l-0.511-0.262l0.704-0.619l-0.178-0.123  c-0.049,0.015-0.08,0.024-0.08,0.024l-8.337,1.355l-0.746,1.255h-0.505l-1.989,1.26l-0.134,0.629l1.726-0.137l0.785-0.669  l2.209-0.237l0.856,0.707l1.346-0.277l2.081,1.568l0.584-0.123c0,0,0.128-0.635,0.128-0.681c0-0.046,0.736-0.944,0.736-0.944  l0.608-0.324l0.592-0.588l-0.641-0.558l0.465-0.077L80.374,52.275z M54.042,64.305l-0.462-1.147l-0.488-0.473v-2.886l-0.594-0.187  l-0.782-0.506l-2.038,0.434l-0.973-0.439l-1.291,0.197l-0.514-0.63l-1.548-0.287l-0.165-0.354l-1.167-0.299v-3.897h-3.958  l-0.677,8.714l-5.647-0.617l0.017,0.189c0.521,0.607,2.343,2.74,2.388,2.85c0.053,0.129,0.133,1.289,0.133,1.289l2.45,1.676  l0.906-1.367l1.651-0.025c0,0,1.278,1.34,1.332,1.443c0.053,0.103,0.479,1.392,0.479,1.469c0,0.077,1.411,1.572,1.411,1.572  l0.053,0.722c0,0,0.533,1.442,0.533,1.521c0,0.079,1.119,0.594,1.225,0.619c0.107,0.026,1.039,0.053,1.039,0.053l0.506,0.412  l0.506-0.181l-0.453-1.005l-0.141-1.46l0.288-0.341l0.032-0.743l1.6-1.548l0.336,0.047l0.592-0.186l1.439-1.316l-0.287-0.434  l0.352-0.263l0.512,0.418l0.832-0.366l0.288-0.877l-0.127-0.433L54.042,64.305z M37.014,71.768l0.374,0.258l0.16,0.311l0.56-0.311  l-0.961-0.489L37.014,71.768z M35.893,71.536h0.881l-0.881-0.31V71.536z M39.898,73.652h-0.002c0,0-1.228-0.646-1.334-0.67  l0.214,0.594l-0.507,0.311l0.294,0.375l-0.16,1.02l0.507,0.258l0.294-0.594l0.801-0.207l0.48-0.391l-0.587-0.385V73.652z   M85.359,37.121l-0.139-0.327l-0.355,0.355l-2.453,0.602l0.02,0.867c0.402-0.121,2.578-0.659,2.578-0.659l0.952,0.887  c0.05-0.178,0.128-0.489,0.128-0.489S85.141,37.5,85.127,37.5C85.113,37.5,85.359,37.121,85.359,37.121z M84.753,38.537l0.365,0.904  c0.155-0.092,0.317-0.187,0.46-0.271l-0.711-0.661C84.831,38.518,84.79,38.528,84.753,38.537z M88.699,30.848l-0.383,0.021  l-0.289-0.636l-0.42-0.112l-0.895-2.604l-0.675-0.362l-0.774,0.67l-0.172-0.503l-0.335,0.091l-0.387,1.298l-0.116,2.084l-0.32,0.873  l1.434,3.74l0.115-0.711c0,0,1.156-0.844,1.179-0.853c0.021-0.008,0.103-0.424,0.103-0.424l0.762-0.882l0.369,0.021L89,31.585  L88.699,30.848z M81.977,41.482l-1.285-0.53l-0.272,0.161l-0.188,0.884l0.24,0.418l0.639-0.093l0.08,0.511l0.992,0.929l0.049-0.912  l-0.545-0.667l0.688-0.248l1.952-1.393l-0.592-0.139L81.977,41.482z M82.443,39.129l0.021,0.981l0.279,0.565l0.572-0.472  c0,0,1.324-0.482,1.365-0.506l-0.418-1.039C83.542,38.84,82.766,39.038,82.443,39.129z M79.473,44.107c0,0,0.928,1.052,0.944,1.056  l0.597-1.401l-0.601-0.559L79.473,44.107z M67.578,63.291l-0.232-2.398l-0.986-2.92l-0.44-1.994l-3.349,0.267v6.367l0.252,2.009  l0.228-0.193l0.368,0.913l0.421-0.13l-0.508-1.477L67.578,63.291z M23.996,32.744l-1.563,2.067l0.48,0.479l-1.186,4.169  c1.963,0.44,3.611,0.806,3.746,0.825c0.107,0,2.367,0.366,3.877,0.613l0.58-4.55l-1.31-0.228l-0.996,0.347l-0.704-2.589  l-0.071-0.112l-0.635,0.621L25.79,33.55l0.576-1.921l-0.973-1.618l-0.557-1.322l0.249-2.204c-0.194-0.046-0.381-0.092-0.569-0.138  l-1.151,5.619L23.996,32.744z M26.91,31.562l-0.582,1.94l0.026,0.051l0.588-0.576l0.453,0.733l0.573,2.108l0.612-0.214l1.45,0.253  l0.189-0.672l9.252,0.991c0.187-2.856,0.362-5.545,0.465-7.142c-5.352-0.523-10.414-1.508-14.357-2.433l-0.229,2.017l0.49,1.169  L26.91,31.562z M15.854,29.594v0.984l1.885,0.337l3.09-0.004l2.085,0.785l1.119-5.466c-3.887-0.964-6.352-1.772-6.352-1.772  l-0.076,2.161l-0.479,1.263L16.86,27.47l0.346-0.567l-0.027-0.67l-2.104-1.495c0,0-0.133,2.603-0.107,2.68  c0.017,0.05-0.133,0.868-0.241,1.439L15.854,29.594z M47.072,40.539c0.08,0.017,0.225,0.047,0.689,0.8  c0.378-0.235,0.605-0.366,0.677-0.39c0.088-0.029,0.181-0.047,0.739,0.291l-0.146-0.902l0.166-0.704v-3.17  c-0.166-0.121-0.354-0.303-0.354-0.508c0-0.107,0.077-0.335,0.223-0.669l-9.011-0.409c-0.119,1.817-0.242,3.709-0.35,5.355  C42.513,40.339,46.932,40.509,47.072,40.539z M48.851,31.853c-0.085-0.175-0.283-0.581-0.314-0.674  c-0.032-0.093-0.044-1.032-0.037-1.783c-2.685,0.056-5.407-0.069-8.066-0.314c-0.082,1.275-0.208,3.209-0.344,5.296l9.079,0.412  L48.851,31.853z M21.24,39.35l1.112-3.913l-0.581-0.579l1.59-2.104l-0.414-0.511l-2.21-0.832h-3.043l-2.341-0.415v-1.133  l-0.728-0.477c0,0.002-0.003,0.016-0.003,0.016l-1.092,3.324L12.065,35.2l-0.023,1.554l5.375,1.734  C18.571,38.75,19.951,39.061,21.24,39.35z M36.619,72.228l0.154-0.115l-0.309-0.328L36.619,72.228z M38.924,61.992l0.655-8.426  l0.026-0.885l-8.338-0.949c-0.601,4.474-1.19,8.879-1.417,10.63c0.689,0.106,1.205,0.183,1.205,0.183l0.133-0.85l2.044,0.217  l-0.05-0.548L38.924,61.992z M34.158,70.451v0.336l0.747,0.154l-0.374-0.49H34.158z M13.37,51.334  c0.027,0.077-0.186,1.16-0.186,1.237s1.598,0.618,1.598,0.618l0.693,1.031l0.666,0.18v0.594l0.399-0.077  c0,0,0.799,1.134,0.879,1.211c0.08,0.077,0.262,1.599,0.262,1.599l2.994,0.291c0.042-0.035,0.085-0.068,0.126-0.104l0.104-0.086  l0.479,0.15l0.027-0.062l-0.539-0.456l1.171-1.804l0.365-0.287c-0.46-1.093-0.46-1.174-0.46-1.229c0-0.024,0.013-0.154,0.034-0.343  l-6.13-9.292l1.197-5.611l-5.054-1.63l-0.276,1.517L11,39.891l0.426,1.675l-0.293,0.361c0,0-0.053,1.005,0,1.186  c0.053,0.181,0.506,0.928,0.506,0.928v0.825c0,0,0.24,0.516,0.32,0.593c0.08,0.077,0.373-0.129,0.373-0.129l0.053,0.464l-0.293,0.18  l-0.133,1.108l0.772,0.67l-0.559,0.67C12.172,48.422,13.344,51.256,13.37,51.334z M31.223,69.754h0.507v-0.361h-0.507V69.754z   M23.806,50.523l-0.39,2.055L22.71,51.87c-0.111,0.933-0.256,2.176-0.262,2.28c0.02,0.054,0.57,1.377,0.57,1.377l-0.632,0.498  l-0.856,1.337l0.49,0.415l-0.359,0.813l-0.558-0.175l-0.009,0.188c0,0,5.06,3.093,5.193,3.17c0.079,0.045,1.731,0.308,3.07,0.514  c0.238-1.846,0.847-6.398,1.415-10.623L23.806,50.523z M25.584,71.923l-1.059,0.439l-0.801-0.826l-0.747-0.207v-7.153l-0.641-0.361  l-0.587,0.078l-1.764-0.517l-1.065-0.62h-1.254l-1.468,1.085h-0.987l0.48,0.517c0,0,0.107,0.646,0.133,0.723  c0.027,0.077,0.507,0.284,0.507,0.284s-0.214,0.749-0.294,0.749s-0.587-0.078-0.587-0.078l-0.027-0.568l-1.148,0.284  c0,0-0.133,0.749-0.133,0.826c0,0.077,1.281,0.646,1.281,0.646l0.64-0.31l0.053,0.981l-1.014,0.412l-0.56-0.154  c0,0-1.041,0.775-1.121,0.852c-0.08,0.077,0.347,1.473,0.347,1.473l0.827,0.31c0,0-0.107,0.696-0.107,0.774s0.507,0,0.507,0  l0.374,0.646l1.041-0.284l-0.427,0.466l-0.08,0.361l-0.961,0.671l-2.188,0.724l2.188-0.311l2.242-1.266l0.534-0.387l-0.32-0.154  l1.841-1.549l0.267,0.31l-0.747,1.085c0,0,1.148-0.258,1.225-0.258c0.077,0,0-0.594,0-0.594l1.097,0.078l0.774,0.646l0.694-0.103  l0.427,0.181l0.64,0.155l1.521,1.006c0,0,0.214,0.75,0.36,0.853c0.147,0.103,0.654,0.646,0.734,0.671  c0.08,0.026,0.214,0.387,0.214,0.387l0.667,0.646l0.907-0.284v-0.801l-0.854-0.517L25.584,71.923z">
  </path>
</svg>