<svg height='100px' width='100px'  fill="#000000" xmlns="http://www.w3.org/2000/svg" data-name="Line EX" viewBox="0 0 64 64" x="0px" y="0px"><title>leasing-key-accounting-contract</title><path d="M24,34V31.816A2.993,2.993,0,0,0,23,26a1,1,0,1,1,1-1h2a3,3,0,0,0-2-2.816V20H22v2.184A2.993,2.993,0,0,0,23,28a1,1,0,1,1-1,1H20a3,3,0,0,0,2,2.816V34Z"></path><rect x="16" y="26" width="2" height="2"></rect><rect x="28" y="26" width="2" height="2"></rect><path d="M51,20H49V16h1a1,1,0,0,0,.641-1.769l-6-5a1,1,0,0,0-1.282,0l-6,5A1,1,0,0,0,38,16h1v4H37v2H51Zm-8,0H41V16h2Zm4,0H45V16h2Zm-6.238-6L44,11.3,47.238,14Z"></path><rect x="37" y="26" width="14" height="2"></rect><rect x="37" y="38" width="14" height="2"></rect><rect x="39" y="30" width="10" height="2"></rect><rect x="39" y="34" width="10" height="2"></rect><path d="M44,43a4.986,4.986,0,0,0-2.208,9.463l-.74,2.221,1.9.632.782-2.343c.091.005.177.027.27.027s.179-.022.27-.027l.782,2.343,1.9-.632-.74-2.221A4.986,4.986,0,0,0,44,43Zm0,8a3,3,0,1,1,3-3A3,3,0,0,1,44,51Z"></path><rect x="43" y="47" width="2" height="2"></rect><path d="M5,56h8a1,1,0,0,0,1-1V52h5v3c0,1.729.836,5,4,5s4-3.271,4-5V51H25V49.618l2-1V37.236a10.976,10.976,0,0,0,2-1.028V55a5.006,5.006,0,0,0,5,5H59V9a5.006,5.006,0,0,0-5-5H26a5.006,5.006,0,0,0-5,5v5h8v3.792A10.981,10.981,0,0,0,12.051,26H9a1,1,0,0,0-1,1v3h2V28h2.051A11.014,11.014,0,0,0,19,37.236V43h2v1.382l-2,1V50H14V47a1,1,0,0,0-1-1H12V44a3,3,0,0,0-2-2.816V36H8v5.184A3,3,0,0,0,6,44v2H5a1,1,0,0,0-1,1v8A1,1,0,0,0,5,56ZM54,6a3,3,0,0,1,3,3V58H34a3,3,0,0,1-3-3V34.526a10.94,10.94,0,0,0,0-15.052V9a5.013,5.013,0,0,0-.873-3ZM23,12V9a3,3,0,0,1,3-3,2.852,2.852,0,0,1,3,3v3ZM14,27a9,9,0,1,1,9,9A9.01,9.01,0,0,1,14,27Zm7,19.618,2-1V41H21V37.809a10.567,10.567,0,0,0,4,0v9.573l-2,1V53h2v2c0,.122-.041,3-2,3s-2-2.881-2-3ZM8,44a1,1,0,0,1,2,0v2H8ZM6,48h6v6H6Z"></path><rect x="8" y="50" width="2" height="2"></rect><rect x="8" y="32" width="2" height="2"></rect><rect x="6" y="11" width="2" height="2"></rect><rect x="8" y="9" width="2" height="2"></rect><rect x="8" y="13" width="2" height="2"></rect><rect x="10" y="11" width="2" height="2"></rect><rect x="14" y="7" width="2" height="2"></rect><rect x="8" y="19" width="2" height="2"></rect></svg>