<svg height='100px' width='100px'  fill="#000000" xmlns="http://www.w3.org/2000/svg" viewBox="0 0 120 120" x="0px" y="0px"><title>Make-up</title><path d="M109.54,78.72,95.35,53.94a3.46,3.46,0,0,0-3.6-1.7,18.37,18.37,0,0,0-4.84,1.56L84.5,55l2.84,5H55v5H52.5v8.75a18.66,18.66,0,0,0,5.23,13l.74.77H84l.74-.77a18.66,18.66,0,0,0,5.23-13V64.94H87.5V60.21l15.73,27.48,2.21-1.52a18.56,18.56,0,0,0,3.76-3.45A3.54,3.54,0,0,0,109.54,78.72Zm-22-5A16.19,16.19,0,0,1,83,84.94H59.53A16.19,16.19,0,0,1,55,73.69V67.44H87.5Zm-30-8.75v-2.5H85v2.5Zm49.85,16.18a16.14,16.14,0,0,1-3.29,3L87.87,56.05A16.14,16.14,0,0,1,92.1,54.7a1,1,0,0,1,1,.49L107.45,80A1,1,0,0,1,107.35,81.12Z"></path><path d="M21.5,34.94h-8a3.5,3.5,0,0,0-3.5,3.5v45.5a3.5,3.5,0,0,0,3.5,3.5h8a3.5,3.5,0,0,0,3.5-3.5V38.44A3.5,3.5,0,0,0,21.5,34.94Zm1,49a1,1,0,0,1-1,1h-8a1,1,0,0,1-1-1v-19h10Zm0-21.5h-10v-2.5h10Zm-10-5v-19a1,1,0,0,1,1-1h8a1,1,0,0,1,1,1v19Z"></path><path d="M43.75,47.44H42.5V35.81a3.5,3.5,0,0,0-6-2.48l-3,3a3.51,3.51,0,0,0-1,2.48v8.65H31.25v10H30v26.5a3.5,3.5,0,0,0,3.5,3.5h8a3.5,3.5,0,0,0,3.5-3.5V57.44H43.75ZM35,38.79a1,1,0,0,1,.29-.7l3-3a1,1,0,0,1,1.71.7V47.44H35Zm7.5,45.15a1,1,0,0,1-1,1h-8a1,1,0,0,1-1-1v-19h10Zm-10-21.5v-2.5h10v2.5Zm1.25-5v-7.5h7.5v7.5Z"></path></svg>