<svg height='100px' width='100px'  fill="#000000" xmlns="http://www.w3.org/2000/svg" xmlns:xlink="http://www.w3.org/1999/xlink" version="1.1" x="0px" y="0px" viewBox="0 0 100 100" enable-background="new 0 0 100 100" xml:space="preserve"><g><path fill="none" stroke="#000000" stroke-linecap="round" stroke-linejoin="round" stroke-miterlimit="10" d="M84.556,8.756   c-0.854,0.53-1.723,0.973-2.688,1.368c-1.284,0.526-2.615,0.445-3.946,0.91C75.73,11.798,72.889,13.355,71,14.75   c-1.047,0.773-2.004,1.29-2.868,2.25c-0.787,0.873-1.63,2.072-2.625,2.631c-0.99,0.557-2.797,0.979-3.889,0.652   c-1.306-0.391-1.289-1.37-2.712-0.787c-1.17,0.48-2.318,1.678-3.663,2.043c-0.747,0.203-1.112-0.051-1.743,0.057   c-0.644,0.111-0.903,0.572-1.479,0.78c-1.314,0.476-1.662-0.475-2.549-1.381c-0.239-0.244-0.589-0.225-0.819-0.525   c-0.127-0.165-0.058-0.604-0.181-0.721c-0.366-0.345-0.366-0.684-1.079-0.52c0.056-0.24-0.093-0.597-0.037-0.837   c-0.884,0.014-1.042-0.587-1.89-0.05c-0.604,0.381-0.34,1.403-1.342,1.287c-1.172-0.135-1.323-2.338-2.25-2.881   c-0.782-0.458-1.029-0.154-1.854-0.278c-0.543-0.082-1.007-0.509-1.646-0.562c-0.699-0.059-1.211,0.071-1.844-0.19   c-0.37-0.153-0.656-0.776-1.031-0.969l-22.25,0.375c0,0.042,0,0.083,0,0.125l-1.375,56.875c0.009-0.061-0.028,0.019-0.116,0.125   c0.186,0.136,0.4,0.182,0.622,0.237c0.739-2.204,1.877,1.02,3.396,0.542c0.839-0.263,0.922-1.41,1.973-1.377   c1.164,0.036,0.843,0.987,0.894,1.952c1.093-0.021,1.489,0.412,2.075,1.297c0.608,0.921,1.329,1.619,1.531,2.576   c0.125,0.592-0.192,1.111,0.244,1.559c0.402,0.412,1.392,0.227,1.881,0.332c1.106,0.236,2.421,0.14,3.354,0.624   c1.052,0.546,1.518,1.987,2.512,2.663c0.19,0.129,1.381,0.789,1.635,0.724c0.528-0.134,0.583-0.956,1.019-1.346   c1.962-1.76,4.181,2.131,6.328,1.75c1.075-0.19,2.351-0.459,2.934-1.284c0.825-1.166,1.234-2.319,2.948-1.733   c0.146,0.64,0.099,1.398,0.365,2.001c0.158,0.356,0.642,0.553,0.757,0.852c0.587,1.522-0.2,1.091,1.405,1.5   c0.96,0.244,3.712,1.853,2.723,2.891c1.91,1.042,3.171-1.623,4.754-1.022c0.291-0.795-0.532-1.539-0.345-2.112   c0.216-0.66,1.638-0.812,2.212-0.762c0.312-0.693,0.472-1.262,0.31-1.988c-0.154-0.69-0.782-0.848-0.888-1.239   c-0.261-0.972,0.158-1.155,0.729-1.642c0.725-0.618,0.861,0.184,1-1.182c0.083-0.821-0.017-1.14,0.372-1.805   c0.142-0.241,1.123-1.653,1.272-1.713c0.517-0.207,1.644,0.592,1.827,0.95c0.299,0.583-0.052,1.757-0.08,2.365   c1.535-0.207,1.743-0.573,2.353-1.733c0.152-0.292,0.455-0.561,0.502-0.866c0.12-0.777-0.232-0.833-0.273-1.484   c-0.062-0.987,0.701-0.943,0.902-2.019c0.15-0.803-0.216-1.011,0.192-1.734c0.214-0.38,0.994-0.874,1.311-1.162   c0.966,1.807,1.432-1.204,1.872-1.735c0.761-0.917,2.677-1.363,2.517,0.355c1.244,0.098,2.043-1.249,2.858-1.867   c0.694-0.527,1.738-1.062,2.407-1.699c1.744-1.662,3.149-2.94,4.078-5.137c-0.787-0.729,0.179-1.468,0.614-2.153   c0.568-0.892,0.726-1.967,0.904-2.97c0.17-0.958,0.421-1.978,0.499-2.902c0.123-1.452,0.45-1.723,1.091-3.028   c0.53-1.08,0.045-1.483,0.028-2.476c-0.018-1.047,0.636-2.026,0.378-3.127c-0.168-0.717-1.167-1.314-1.1-2.122   c0.096-1.13,1.354-0.843,2.203-0.897c0.079-0.155,0.119-0.305,0.145-0.463L84.556,8.756z"></path></g></svg>