<svg height='100px' width='100px'  fill="#000000" xmlns="http://www.w3.org/2000/svg" xmlns:xlink="http://www.w3.org/1999/xlink" xmlns:a="http://ns.adobe.com/AdobeSVGViewerExtensions/3.0/" version="1.2" baseProfile="tiny" x="0px" y="0px" viewBox="0 0 100 100" xml:space="preserve"><path d="M90,30V10H75V5h-7.5v5h-35V5H25v5H10v20h15v10H10v20h15v10H10v20h15v5h7.5v-5h35v5H75v-5h15V70H75V60h15V40  H75V30H90z M75,15h10v10H75V15z M25,85H15V75h10V85z M25,55H15V45h10V55z M25,25H15V15h10V25z M67.5,85h-35V75h35V85z M67.5,70h-35  V60h35V70z M67.5,55h-35V45h35V55z M67.5,40h-35V30h35V40z M67.5,25h-35V15h35V25z M85,75v10H75V75H85z M85,45v10H75V45H85z"></path></svg>