<svg height='100px' width='100px'  fill="#000000" xmlns="http://www.w3.org/2000/svg" xmlns:xlink="http://www.w3.org/1999/xlink" version="1.1" x="0px" y="0px" viewBox="0 0 100 100" style="enable-background:new 0 0 100 100;" xml:space="preserve"><path d="M96.8,54.7H75.7v-2.3h1.6c0.9,0,1.6-0.7,1.6-1.6v-3.1h0.8c0.9,0,1.6-0.7,1.6-1.6v-5.5c0-0.9-0.7-1.6-1.6-1.6h-6.1  c-0.4-10.8-7.6-19.8-17.3-22.5v-3.2c0-0.9-0.7-1.6-1.6-1.6h-3.1v-1.6h7.8c0.9,0,1.6-0.7,1.6-1.6V3.2c0-0.9-0.7-1.6-1.6-1.6H50  c-0.9,0-1.6,0.7-1.6,1.6c0,3.1,0,5.5,0,8.6h-3.1c-0.9,0-1.6,0.7-1.6,1.6v3.2c-9.8,2.8-17.4,11.9-17.8,22.5h-5.6  c-0.9,0-1.6,0.7-1.6,1.6v5.5c0,0.9,0.7,1.6,1.6,1.6h0.8v3.1c0,0.9,0.7,1.6,1.6,1.6h1.6v2.3H3.2c-0.9,0-1.6,0.7-1.6,1.6v5.5  c0,0.9,0.7,1.6,1.6,1.6h1.6c0,12.9,0,21.1,0,33.5c0,0.9,0.7,1.6,1.6,1.6h87.4c0.9,0,1.6-0.7,1.6-1.6v-4.7V63.3h1.6  c0.9,0,1.6-0.7,1.6-1.6v-5.5C98.4,55.4,97.7,54.7,96.8,54.7z M57.8,7.1h-6.2V4.8h6.2V7.1z M85.9,90.6H14.1V89c14.6,0,56.5,0,71.8,0  V90.6z M38.3,52.3c0.9,0,1.6-0.7,1.6-1.6v-3.1h20.3v3.1c0,0.9,0.7,1.6,1.6,1.6h1.6v33.5h-3.9V67.7c0-4.8-3.8-9.2-9.4-9.2  c-5.5,0-9.4,4.3-9.4,9.2v18.1h-3.9V52.3H38.3z M56.2,85.9H43.8V67.7c0-3.2,2.5-6,6.2-6c3.8,0,6.2,2.9,6.2,6V85.9z M72.6,85.9h-6.2  V52.3h6.2C72.6,66.4,72.6,63.1,72.6,85.9z M75.7,49.2c-2.7,0-10,0-12.5,0v-1.6h12.5V49.2z M46.9,14.9h6.2v1c-2.2-0.3-4.1-0.3-6.2,0  V14.9z M50,18.8c11,0,19.9,9,20.4,20.3H29.1C29.6,28,39,18.8,50,18.8z M21.9,42.2h56.2v2.3c-63.9,0,2,0-55.4,0h-0.8V42.2z   M36.7,47.7v1.6c-2.7,0-10,0-12.5,0v-1.6H36.7z M33.6,52.3v33.5h-6.2c0-31.5,0,3.3,0-33.5H33.6z M4.8,57.8h19.5v2.3  c-7.7,0-11.9,0-19.5,0V57.8z M24.3,63.3v22.6H12.6c-0.9,0-1.6,0.7-1.6,1.6v3.1H7.9V63.3H24.3z M92.1,95.2H7.9v-1.6  c8.6,0,75.2,0,84.2,0V95.2z M92.1,90.6H89v-3.1c0-0.9-0.7-1.6-1.6-1.6H75.7V63.3h16.4V90.6z M95.2,60.1c-7.6,0-11.8,0-19.5,0v-2.3  h19.5V60.1z M11.8,82.8h8.6c0.9,0,1.6-0.7,1.6-1.6V67.9c0-0.9-0.7-1.6-1.6-1.6h-8.6c-0.9,0-1.6,0.7-1.6,1.6v13.3  C10.2,82.1,10.9,82.8,11.8,82.8z M13.3,69.5h5.5v10.1h-5.5V69.5z M79.6,82.8h8.6c0.9,0,1.6-0.7,1.6-1.6V67.9c0-0.9-0.7-1.6-1.6-1.6  h-8.6c-0.9,0-1.6,0.7-1.6,1.6v13.3C78.1,82.1,78.8,82.8,79.6,82.8z M81.2,69.5h5.5v10.1h-5.5V69.5z"></path></svg>