<svg height='100px' width='100px'  fill="#000000" xmlns="http://www.w3.org/2000/svg" xmlns:xlink="http://www.w3.org/1999/xlink" version="1.1" x="0px" y="0px" viewBox="0 0 100 100" style="enable-background:new 0 0 100 100;" xml:space="preserve"><path d="M89.1782227,17.9921875L45.1376953,10.015625c-0.5385742-0.09375-1.0620117,0.2626953-1.1616211,0.8037109  l-4.9814453,27.168457l-28.1928711,5.7006836c-0.2602539,0.0527344-0.4892578,0.2070312-0.6357422,0.4287109  s-0.1987305,0.4921875-0.1455078,0.7519531l7.8271484,38.2363281c0.0966797,0.4736328,0.5131836,0.7998047,0.9785156,0.7998047  c0.0654297,0,0.1323242-0.0058594,0.1992188-0.0195312l22.0293579-4.4549561l1.9403687,9.7635498  c0.0947266,0.4755859,0.5126953,0.8046875,0.9799805,0.8046875c0.0644531,0,0.1298828-0.0058594,0.1958008-0.0195312  c0.5419922-0.1074219,0.8935547-0.6337891,0.7861328-1.1757812l-1.9415283-9.7694092l11.9110718-2.4088135L52.800293,88.828125  c-0.0947266,0.5439453,0.2695312,1.0625,0.8134766,1.1572266C53.671875,89.9951172,53.7299805,90,53.7866211,90  c0.4770508,0,0.8994141-0.3427734,0.984375-0.828125l2.2603149-12.9719238l7.3241577-1.4812012  c0.2602539-0.0527344,0.4892578-0.2070312,0.6357422-0.4287109s0.1987305-0.4921875,0.1455078-0.7519531l-4.142395-20.2355957  l21.0164185,3.8068848c0.0600586,0.0107422,0.1201172,0.015625,0.1791992,0.015625  c0.4736328,0,0.894043-0.3378906,0.9824219-0.8193359l6.8110352-37.1484375c0.0483398-0.2617188-0.0097656-0.53125-0.1611328-0.75  C89.6713867,18.1894531,89.4394531,18.0400391,89.1782227,17.9921875z M19.6069336,81.7275391l-7.4262695-36.2773438  l27.8727417-5.6359863c0.0132446-0.0025635,0.0258179-0.0047607,0.0388184-0.0078125l15.4580688-3.1257324l7.4262695,36.2763672  L19.6069336,81.7275391z M81.3852539,54.9628906L60.5620117,51.190918l-3.2524414-15.8881836  c-0.1103516-0.5410156-0.6352539-0.8945312-1.1777344-0.7802734L41.105957,37.560791l4.6572266-25.3986816l42.0722656,7.6201172  L81.3852539,54.9628906z"></path><path d="M35.1396484,46.9179688c-2.2353516,0.4482422-4.1586914,1.7373047-5.4160156,3.6289062  c-1.2485352,1.8798828-1.6894531,4.1308594-1.2412109,6.3398438c0.8139648,4.0097656,4.3720703,6.7871094,8.3364258,6.7871094  c0.229248,0,0.4605713-0.0153809,0.6920776-0.0343018l0.5149536,2.5369873L35.7900391,66.625  c-0.5415039,0.1083984-0.8920898,0.6357422-0.7836914,1.1767578c0.0952148,0.4755859,0.5126953,0.8037109,0.9794922,0.8037109  c0.0649414,0,0.1313477-0.0058594,0.1977539-0.0195312l2.2401733-0.4492188l0.7017212,3.4570312  c0.0961914,0.4736328,0.5131836,0.8007812,0.9790039,0.8007812c0.065918,0,0.1328125-0.0068359,0.199707-0.0195312  c0.5415039-0.1103516,0.8911133-0.6376953,0.78125-1.1796875l-0.7006836-3.4519043l2.2358398-0.4484863  c0.5415039-0.1083984,0.8920898-0.6357422,0.7836914-1.1767578c-0.1083984-0.5419922-0.6318359-0.8945312-1.1772461-0.7841797  l-2.2401733,0.4492188l-0.5150146-2.5371094C41.2907715,62.65625,42.8475342,61.4870605,43.918457,59.875  c1.2480469-1.8789062,1.6884766-4.1298828,1.2402344-6.3378906C44.230957,48.9658203,39.7314453,45.9921875,35.1396484,46.9179688z   M42.2524414,58.7685547c-0.9614258,1.4472656-2.4331055,2.4326172-4.1435547,2.7763672c-0.000061,0-0.000061,0-0.0001221,0  c-0.0007935,0.0001221-0.0015259-0.0001221-0.0023193,0c-0.0004883,0.0001221-0.0008545,0.0004883-0.0013428,0.0004883  c-3.5205688,0.7019043-6.9544678-1.5651855-7.6627197-5.0571289c-0.3417969-1.6835938-0.0053711-3.4003906,0.9472656-4.8339844  c0.9609375-1.4472656,2.4321289-2.4326172,4.1425781-2.7753906C35.965332,48.7919922,36.3969727,48.75,36.8222656,48.75  c3.0332031,0,5.7548828,2.1220703,6.3764648,5.1855469C43.5405273,55.6181641,43.2041016,57.3349609,42.2524414,58.7685547z"></path><path d="M63.3555298,37.2575684l-0.4591064,2.5479736l-2.2489624-0.4002686  c-0.5473633-0.1025391-1.0639648,0.2646484-1.159668,0.8095703c-0.097168,0.5429688,0.265625,1.0625,0.809082,1.1591797  l2.2449341,0.3996582l-0.6248169,3.4675293c-0.0976562,0.5439453,0.2636719,1.0634766,0.8071289,1.1621094  c0.0600586,0.0107422,0.1196289,0.015625,0.1782227,0.015625c0.4746094,0,0.8959961-0.3388672,0.9833984-0.8222656  l0.6257324-3.4725342l2.2487793,0.4002686c0.0595703,0.0107422,0.1181641,0.015625,0.1762695,0.015625  c0.4755859,0,0.8974609-0.3398438,0.9833984-0.8251953c0.097168-0.5429688-0.265625-1.0625-0.809082-1.1591797l-2.244751-0.3995361  l0.4592285-2.5488281c0.1697388,0.0101318,0.3398438,0.022583,0.5081787,0.022583  c4.0380859,0,7.6318359-2.8808594,8.3691406-6.9697266c0.3989258-2.2177734-0.0913086-4.4580078-1.3803711-6.3095703  c-1.2988281-1.8652344-3.25-3.1113281-5.4946289-3.5107422c-4.6142578-0.8212891-9.0439453,2.2441406-9.871582,6.8349609  c-0.3994141,2.2177734,0.0908203,4.4580078,1.3793945,6.3095703C59.9413452,35.5731201,61.5238037,36.7076416,63.3555298,37.2575684  z M59.4248047,28.0302734c0.5625-3.1240234,3.3105469-5.3232422,6.4008789-5.3232422  c0.3793945,0,0.7651367,0.0332031,1.1513672,0.1015625c1.7182617,0.3056641,3.2109375,1.2587891,4.2036133,2.6845703  c0.9838867,1.4121094,1.3579102,3.1210938,1.0532227,4.8115234c-0.6316528,3.5087891-4.0172729,5.847168-7.5493774,5.2230225  c-0.0003052-0.0001221-0.0006104-0.0003662-0.0009155-0.0003662c-0.0006104-0.0001221-0.0010986,0.0002441-0.001709,0  c-0.000061,0-0.0001831,0-0.0002441,0c-1.71875-0.3056641-3.2119141-1.2597656-4.2045898-2.6855469  C59.4936523,31.4287109,59.1201172,29.7207031,59.4248047,28.0302734z"></path></svg>