<svg height='100px' width='100px'  fill="#000000" xmlns="http://www.w3.org/2000/svg" viewBox="0 0 64 64" x="0px" y="0px"><g><path d="M55,17V7a1,1,0,0,0-1-1H50V8h3v9Z"></path><path d="M9,32V57a1,1,0,0,0,1,1H50a1,1,0,0,0,1-1V50H49v6H11V32Z"></path><path d="M41.414,2.1c-.031-.014-.061-.022-.093-.033a1,1,0,0,0-.259-.052C41.04,2.011,41.021,2,41,2H10A1,1,0,0,0,9,3V5h2V4H40v8a1,1,0,0,0,1,1h8v5h2V12c0-.021-.011-.04-.012-.062a1,1,0,0,0-.052-.259c-.011-.032-.019-.062-.033-.093a1,1,0,0,0-.2-.293l-9-9A1,1,0,0,0,41.414,2.1ZM47.586,11H42V5.414Z"></path><path d="M25,44v8a1,1,0,0,0,1,1H39V51H27V45h5V43H26A1,1,0,0,0,25,44Z"></path><rect x="29" y="47" width="6" height="2"></rect><path d="M55,19a7.009,7.009,0,0,0-7,7v.1l-5.1,5.384-3.193-3.193a1,1,0,0,0-1.414,0l-6,6-3,3a1,1,0,0,0,0,1.414l14,14a1,1,0,0,0,1.414,0l3-3L53,44.414V60H14v2H54a1,1,0,0,0,1-1V37H53v4.586L49.514,38.1,54.9,33H55a7,7,0,0,0,0-14ZM44,50.586,31.414,38,33,36.414,45.586,49ZM51.586,43,47,47.586,34.414,35,39,30.414l2.524,2.524-2.25,2.374a1,1,0,0,0,.019,1.4l5,5a1,1,0,0,0,1.394.019l2.375-2.25ZM55,31h-.5a1,1,0,0,0-.688.274L45.019,39.6,41.4,35.981l8.33-8.793A1,1,0,0,0,50,26.5V26a5,5,0,1,1,5,5Z"></path><rect x="21" y="31" width="10" height="2"></rect><rect x="15" y="35" width="12" height="2"></rect><rect x="24" y="27" width="12" height="2"></rect><rect x="15" y="39" width="6" height="2"></rect><rect x="15" y="43" width="8" height="2"></rect><rect x="15" y="47" width="8" height="2"></rect><rect x="15" y="51" width="8" height="2"></rect><rect x="15" y="31" width="4" height="2"></rect><rect x="23" y="39" width="4" height="2"></rect><rect x="27" y="22" width="10" height="2"></rect><path d="M14,30A12,12,0,0,0,25.979,18.42a2.645,2.645,0,0,0,1.939.606,2.712,2.712,0,0,0,4.164,0,2.713,2.713,0,0,0,2.944-2.944,2.712,2.712,0,0,0,0-4.164,2.713,2.713,0,0,0-2.944-2.944,2.712,2.712,0,0,0-4.164,0,2.713,2.713,0,0,0-2.944,2.944,2.609,2.609,0,0,0-.4.412A12,12,0,1,0,14,30ZM26.466,13.34a1,1,0,0,0,.568-1.371.7.7,0,0,1,.935-.935,1,1,0,0,0,1.371-.568.7.7,0,0,1,1.32,0,1,1,0,0,0,1.371.568.7.7,0,0,1,.935.935,1,1,0,0,0,.568,1.371.7.7,0,0,1,0,1.32,1,1,0,0,0-.568,1.371.673.673,0,0,1-.138.8.68.68,0,0,1-.8.138,1,1,0,0,0-1.371.568.7.7,0,0,1-1.32,0,1,1,0,0,0-.56-.589,1.018,1.018,0,0,0-.383-.076.988.988,0,0,0-.428.1.7.7,0,0,1-.935-.935,1,1,0,0,0-.568-1.371.7.7,0,0,1,0-1.32ZM14,8A10,10,0,1,1,4,18,10.011,10.011,0,0,1,14,8Z"></path><path d="M9.293,23.707a1,1,0,0,0,1.414,0l10-10-1.414-1.414L10,21.586,7.707,19.293,6.293,20.707Z"></path></g></svg>