<svg height='100px' width='100px'  fill="#000000" xmlns="http://www.w3.org/2000/svg" xmlns:xlink="http://www.w3.org/1999/xlink" version="1.1" x="0px" y="0px" viewBox="0 0 100 100" enable-background="new 0 0 100 100" xml:space="preserve"><g display="none"><polygon display="inline" opacity="0.3" fill-rule="evenodd" clip-rule="evenodd" points="86.293,15.057 89.412,13.074    91.393,12.629 91.743,14.064 94.318,13.767 95.209,12.676 98.135,12.676 98.455,13.829 96.367,15.615 97.459,15.915 96.072,18.295    92.996,19.585 86.147,20.976 84.561,20.081 82.275,21.273 80.59,22.762 78.703,22.762 77.613,24.449 76.325,25.739 79.299,30.105    79.5,33.083 76.223,37.35 77.912,38.939 77.912,40.824 76.124,43.504 73.545,43.504 71.062,42.511 69.377,43.602 70.139,45.38    71.576,46.173 72.415,48.056 72.119,49.243 70.485,50.137 68.949,50.285 68.402,51.275 68.205,53.703 67.709,55.29 67.662,56.229    67.166,56.826 67.688,59.878 66.199,62.062 64.886,60.392 64.094,60.392 63.996,61.335 62.311,61.234 61.515,60.688 59.881,60.838    59.436,61.73 56.859,63.711 57.998,64.06 57.207,65.05 54.678,66.188 53.887,65.645 52.201,65.991 51.705,67.033 51.41,68.122    50.122,68.569 49.229,69.707 49.326,71.591 49.822,73.82 49.725,75.255 50.268,76.595 49.973,77.882 47.247,79.022 44.869,78.973    42.687,79.271 39.021,79.469 36.595,80.113 35.752,80.806 33.57,80.706 31.269,81.313 23.328,81.512 13.921,78.849 19.055,71.837    19.598,70.997 18.904,68.27 19.055,66.387 17.964,64.008 11.966,63.91 11.77,61.384 11.076,60.146 11.572,59.202 10.58,55.983    8.749,52.415 9.096,50.631 11.227,48.006 10.631,48.006 8.3,47.461 8.3,46.122 7.855,43.645 7.508,43.348 8.796,41.515    7.658,40.623 7.063,39.681 8.548,39.286 10.332,38.096 10.233,37.202 10.58,36.855 9.689,35.668 10.187,34.627 10.037,33.686    10.135,31.754 10.054,31.594 10.729,31.356 12.266,31.754 13.356,32.597 14.494,32.597 15.389,31.754 16.578,31.754 18.113,32.894    18.508,33.885 19.102,34.43 19.795,33.686 21.779,33.388 22.772,32.248 22.969,31.356 23.859,30.564 23.512,29.624 25.643,28.483    28.316,27.938 28.564,27.245 29.609,26.402 30.699,26.156 31.145,24.321 31.191,22.588 32.779,20.903 32.779,19.465 32.133,18.971    32.244,18.103 32.941,17.803 33.686,17.258 35.475,16.785 36.043,16.809 38.105,15.292 39.718,14.809 41.104,15.651 42.588,15.303    43.084,15.799 45.313,15.204 46.803,15.897 47.645,17.138 48.586,17.185 49.725,16.146 50.914,16.244 52.398,18.175 53.441,18.625    55.723,18.128 57.207,17.286 57.951,16.195 58.742,16.047 59.533,15.303 60.227,15.799 60.971,16.79 63.35,16.988 63.303,15.897    62.656,15.253 62.755,14.312 64.244,13.917 64.787,13.172 65.48,13.172 65.678,13.917 67.166,13.767 68.107,12.28 67.76,10.398    68.355,9.457 69.197,8.712 69.445,6.731 70.139,5.493 71.773,5.493 72.963,6.336 74.203,6.979 74.203,8.068 73.904,9.656    74.302,10.943 75.439,10.894 75.936,12.182 75.838,13.917 76.034,15.303 76.133,17.979 77.172,19.367 77.172,20.308 78.412,20.802    80.146,20.802 81.335,19.91 81.583,19.217 83.961,18.128 85.069,17.134 85.365,15.865  "></polygon></g><g display="none"><path display="inline" d="M20.099,41.705l1.784-4.642h0.658l1.9,4.642h-0.697L23.2,40.299h-1.938l-0.509,1.405H20.099   L20.099,41.705z M21.438,39.799h1.574l-0.483-1.283c-0.149-0.392-0.257-0.712-0.329-0.965c-0.061,0.299-0.146,0.595-0.252,0.888   L21.438,39.799L21.438,39.799z M24.963,41.705v-4.642h3.131v0.55h-2.516v1.438h2.178v0.547h-2.178v2.107H24.963L24.963,41.705z    M31.067,39.884v-0.543l1.964-0.004v1.724c-0.3,0.24-0.611,0.419-0.933,0.541c-0.321,0.122-0.65,0.184-0.988,0.184   c-0.454,0-0.868-0.099-1.241-0.293c-0.371-0.195-0.654-0.479-0.847-0.847c-0.188-0.37-0.282-0.783-0.282-1.239   c0-0.451,0.094-0.873,0.282-1.264c0.188-0.394,0.462-0.685,0.817-0.875c0.351-0.188,0.762-0.285,1.223-0.285   c0.339,0,0.639,0.056,0.912,0.165c0.27,0.109,0.483,0.259,0.637,0.454c0.154,0.195,0.27,0.447,0.352,0.759l-0.553,0.154   c-0.072-0.237-0.158-0.424-0.26-0.559c-0.104-0.135-0.253-0.244-0.445-0.325c-0.188-0.081-0.406-0.122-0.638-0.122   c-0.282,0-0.526,0.042-0.728,0.128c-0.205,0.085-0.371,0.199-0.496,0.338c-0.128,0.139-0.223,0.291-0.295,0.458   c-0.115,0.289-0.176,0.599-0.176,0.935c0,0.415,0.068,0.759,0.215,1.04c0.141,0.278,0.35,0.485,0.619,0.62   c0.274,0.135,0.561,0.203,0.869,0.203c0.266,0,0.525-0.053,0.778-0.156c0.253-0.101,0.445-0.21,0.577-0.325v-0.867H31.067   L31.067,39.884z M33.955,41.705v-4.642h0.616v1.908h2.413v-1.908H37.6v4.642h-0.615v-2.186h-2.413v2.186H33.955L33.955,41.705z    M38.109,41.705l1.783-4.642h0.664l1.898,4.642h-0.701l-0.539-1.405h-1.941l-0.51,1.405H38.109L38.109,41.705z M39.453,39.799   h1.574l-0.488-1.283c-0.146-0.392-0.257-0.712-0.329-0.965c-0.06,0.299-0.142,0.595-0.249,0.888L39.453,39.799L39.453,39.799z    M42.939,41.705v-4.642h0.629l2.442,3.645v-3.645h0.586v4.642h-0.629l-2.438-3.647v3.647H42.939L42.939,41.705z M47.734,41.705   v-4.642h0.612v4.642H47.734L47.734,41.705z M49.224,40.214l0.577-0.049c0.025,0.231,0.095,0.421,0.193,0.571   c0.098,0.15,0.256,0.27,0.466,0.361c0.21,0.09,0.449,0.137,0.714,0.137c0.231,0,0.441-0.034,0.621-0.105   c0.18-0.068,0.312-0.165,0.397-0.287c0.09-0.122,0.133-0.252,0.133-0.398s-0.043-0.271-0.128-0.381   c-0.082-0.109-0.223-0.199-0.416-0.273c-0.128-0.047-0.401-0.124-0.829-0.227c-0.424-0.103-0.724-0.199-0.895-0.289   c-0.222-0.116-0.385-0.261-0.496-0.432c-0.106-0.173-0.163-0.366-0.163-0.58c0-0.233,0.068-0.454,0.201-0.655   c0.133-0.205,0.326-0.359,0.582-0.466c0.257-0.104,0.539-0.158,0.852-0.158c0.342,0,0.646,0.058,0.911,0.167   c0.261,0.111,0.466,0.274,0.607,0.49c0.142,0.214,0.218,0.46,0.228,0.731l-0.591,0.045c-0.03-0.293-0.138-0.516-0.321-0.667   c-0.184-0.15-0.453-0.225-0.809-0.225c-0.372,0-0.642,0.068-0.812,0.205c-0.167,0.137-0.257,0.302-0.257,0.492   c0,0.169,0.064,0.304,0.185,0.413c0.115,0.107,0.423,0.216,0.924,0.33c0.5,0.113,0.842,0.211,1.026,0.295   c0.27,0.126,0.471,0.285,0.599,0.475c0.129,0.192,0.193,0.411,0.193,0.659c0,0.25-0.068,0.481-0.21,0.699   c-0.142,0.218-0.347,0.388-0.612,0.509c-0.265,0.122-0.561,0.184-0.894,0.184c-0.419,0-0.771-0.062-1.057-0.184   c-0.282-0.124-0.505-0.308-0.667-0.554C49.318,40.804,49.232,40.526,49.224,40.214L49.224,40.214z M54.939,41.705v-4.092h-1.531   v-0.55h3.679v0.55h-1.536v4.092H54.939L54.939,41.705z M56.728,41.705h0.654l0.509-1.405h1.938l0.543,1.405h0.702l-1.904-4.642   h-0.658L56.728,41.705L56.728,41.705z M58.066,39.799l0.51-1.36c0.106-0.293,0.191-0.588,0.252-0.888   c0.072,0.252,0.18,0.573,0.329,0.965l0.483,1.283H58.066L58.066,39.799z M61.557,41.705v-4.642h0.629l2.439,3.645v-3.645h0.59   v4.642h-0.633l-2.438-3.647v3.647H61.557z"></path></g><g><path fill="none" stroke="#000000" stroke-linecap="round" stroke-linejoin="round" stroke-miterlimit="10" d="M12.25,63.5   c0-0.318,0.018-1.484-0.019-2.106c-1.463-0.118-1.423-4.908-2.079-6.031c-0.513-0.879-1.375-1.765-1.533-2.878   c-0.202-1.417,0.697-1.517,1.384-2.587c0.428-0.667,0.503-1.336,1.085-2.053c-0.914-0.408-1.992-0.35-2.944-0.61   c-0.059-1.578-0.802-2.659-0.756-4.219c0.926-0.109,1.361-1.143,0.834-1.896c-0.484-0.691-1.749-0.336-1.442-1.591   c1.27-0.278,2.21-0.763,3.003-1.622c0.827-0.896,0.587-0.578,0.312-1.626c-0.234-0.893,0.164-1.47,0.031-2.281   c-0.122-0.744-1.1-1.406-0.478-2.259c0.567-0.779,1.662-0.33,2.346,0.028c0.932,0.486,1.253,1.072,2.495,0.469   c0.849-0.413,0.638-0.741,1.505-0.646c0.372,0.04,1.28,0.41,1.666,0.534c1.094,0.352,1.347,0.534,1.484,1.856   c0.725,0.233,1.216-0.154,1.392-0.843c1.626,1.515,1.312,0.094,1.837-1.013c0.613-1.295,1.868-0.632,0.778-2.372   c1.185-0.565,4.017-2.682,5.259-2.301c0.134-0.229,0.343-0.948,0.557-1.086c0.332-0.214,0.823,0.064,1.159-0.11   c1.027-0.535,0.824-0.917,0.875-2.006c0.056-1.192,0.225-1.419,0.756-2.26c0.432-0.683,1.021-1.629,1.484-2.465   c-0.693-0.194-1.376-0.743-0.837-1.403c0.44-0.54,1.618-0.148,2.222-0.357c0.115,0.292,0.439,0.579,0.493,0.857   c0.246-0.28,0.287-0.799,0.501-1.003c0.432-0.413,0.706-0.348,1.168-0.646c0.743-0.48,1.368-1.497,2.196-1.746   c-0.072-0.094-0.093-0.221-0.218-0.332c1.407,1.205,2.915,0.321,4.24-0.537c0.376,0.392,0.848,0.916,0.888,1.499   c1.188,0.193,1.52-0.105,2.606,0.513c0.91,0.518,2.917,0.954,3.521-0.232c2.192,0.875,2.154,2.688,4.671,2.112   c0.84-0.192,2.686-0.386,3.342-0.963c0.713-0.626,0.43-1.681,1.56-1.768c0.513,0.551,0.546,1.123,1.307,1.363   c0.396,0.125,1.901,0.187,2.331,0.1c0.106-0.173,0.253-0.664,0.257-0.862c-1.346-0.828-0.723-1.875,0.424-2.337   c0.602-0.242,0.653,0.155,1.215-0.182c0.489-0.293,0.209-0.779,0.842-0.962c0.18,0.381,0.33,0.662,0.301,1.093   c1.734,0.034,1.848-1.488,2.008-2.73c0.103-0.795,0.192-0.923,0.473-1.531c0.201-0.438,0.962-0.767,0.24-1.143   c-0.032-0.399-0.162-0.831-0.353-1.176c0.653-0.077,0.847-0.707,1.391-0.93c0.677-0.278,1.236,0.043,1.847,0.158   c0.562,0.105,0.847-0.055,1.35,0.279c0.443,0.294,0.103,0.83,0.764,0.994c-0.564,0.908-1.641,2.355-0.578,3.225   c0.407,0.333,1.188,0.016,1.562,0.404c0.388,0.403,0.005,1.088,0.028,1.59c0.066,1.437,0.571,2.977,0.875,4.381   c0.224,1.041,0.982,1.896,1.019,2.953c0.148-0.025,0.329-0.036,0.463-0.059c0.086,0.899,0.995,0.714,1.682,0.731   c1.222,0.03,1.254-0.067,1.965-0.902c0.724-0.849,0.647-0.733,1.744-1.094c0.668-0.22,1.644-0.625,2.037-1.248   c0.516-0.817,0.146-1.685,0.713-2.491c0.483-0.688,1.614-1.1,2.356-1.398c0.546-0.22,2.072-0.653,2.556-0.625   c1.307,0.074,0.815,0.414,0.354,1.49c0.735,0.146,2.038-0.207,2.709-0.505c0.342-0.152,0.65-0.6,0.965-0.725   c0.998-0.396,0.717,0.117,1.791,0.143c0.744,0.018,3.348-0.828,1.443,0.763c-1.071,0.896-2.066,1.067-0.406,2.216   c-1.31,1.87-3.216,2.188-5.28,2.903c-1.286,0.445-2.568,0.653-3.86,1c-0.417,0.112-1.087,0.639-1.506,0.609   c-0.579-0.041-0.648-0.531-1.11-0.643c-1.163-0.282-2.058,0.489-2.987,1.009c-1.09,0.61-1.775,0.982-3,1.35   c-0.658,0.198-4.818,3.02-2.665,3.422c-0.09,0.914-0.13,1.476,0.394,2.228c0.266,0.38,0.652,0.366,0.913,0.739   c0.85,1.225,1.466,2.779,0.923,4.247c-0.558,1.51-2.166,2.392-2.576,3.993c2.071,1.075,1.806,4.442,0.018,5.787   c-1.346,1.013-4.239,0.321-5.534-0.471c-0.838,1.189-1.639,0.707-1.111,2.05c0.352,0.897,1.106,1.174,1.593,2.152   c1.03,2.069,0.322,3.767-2.212,3.647c0.014,0.918-0.776,1.61-1.044,2.478c-0.315,1.022-0.281,1.809-0.872,2.723   c-0.797,1.233-0.759,1.511-0.322,2.902c0.516,1.639,0.234,1.738-0.649,3.455c-0.242-0.479-0.355-1.023-0.391-1.562   c-0.663,0.212-1.307,0.741-1.98,0.248c-0.852,1.694-1.679,0.779-3.354,0.835c-1.599,0.053-2.279,1.809-3.812,2.16   c1.759-0.388-0.438,2.862-2.115,2.502c-0.808-0.173-0.575-0.505-1.57-0.259c-0.778,0.193-1.061,0.547-1.401,1.097   c-0.343,0.551-0.499,1.171-1.008,1.759c-0.556,0.643-0.696,0.458-0.868,1.396c-0.256,1.405-0.443,2.789-0.153,4.247   c0.313,1.578,0.897,2.815-0.85,4.168c-1.036,0.802-3.294,0.663-4.629,0.798c-1.693,0.171-3.321,0.086-5.108,0.409   c-1.073,0.194-2.139,0.739-3.226,0.978c-1.062,0.234-2.186,0.172-3.292,0.272c-3.416,0.309-6.466,1.142-9.898,0.25   c-1.442-0.375-2.774-1.021-4.2-1.538c-1.492-0.541-3.177-0.588-4.633-1.233c0.342-2.135,2.074-4.629,2.982-6.697   c0.431-0.979,0.929-1.911,1.227-2.932c0.247-0.851-0.047-1.25,0.05-2.01c0.129-1.013,0.896-0.411,0.137-1.694   c-0.868-1.467-1.901-0.947-3.281-1.016c-0.835-0.042-2.658-0.042-2.878-1.025"></path></g></svg>