<svg height='100px' width='100px'  fill="#000000" xmlns="http://www.w3.org/2000/svg" viewBox="0 0 64 64" x="0px" y="0px"><title>tax-Slip-bill-report-finance</title><g><path d="M12,18H52v4h2V7a1,1,0,0,0-1-1H11a1,1,0,0,0-1,1V51H7a1,1,0,0,0-1,1v5a5.006,5.006,0,0,0,5,5H35V60H11a3,3,0,0,1-3-3V53H35V51H12ZM52,8v8H12V8Z"></path><path d="M62,35a11,11,0,1,0-17.3,9H43a3,3,0,0,0-3,3,2.966,2.966,0,0,0,.184,1H40a3,3,0,0,0,0,6h.184a2.809,2.809,0,0,0,0,2H40a3,3,0,0,0,0,6H56a3,3,0,0,0,3-3,2.966,2.966,0,0,0-.184-1H59a3,3,0,0,0,0-6h-.184a2.809,2.809,0,0,0,0-2H59a3,3,0,0,0,0-6h-1.7A10.99,10.99,0,0,0,62,35ZM57,59a1,1,0,0,1-1,1H40a1,1,0,0,1,0-2H56A1,1,0,0,1,57,59Zm3-4a1,1,0,0,1-1,1H43a1,1,0,0,1,0-2H59A1,1,0,0,1,60,55Zm-3-4a1,1,0,0,1-1,1H40a1,1,0,0,1,0-2H56A1,1,0,0,1,57,51Zm2-5a1,1,0,0,1,0,2H43a1,1,0,0,1,0-2Zm-8-2a9,9,0,1,1,9-9A9.01,9.01,0,0,1,51,44Z"></path><rect x="46.757" y="34" width="8.485" height="2" transform="translate(-9.811 46.314) rotate(-45)"></rect><rect x="47" y="31" width="2" height="2"></rect><rect x="53" y="37" width="2" height="2"></rect><path d="M21,25v-.146a2.849,2.849,0,0,0-2-2.709V21H17v1.145a2.844,2.844,0,0,0-.422,5.262l1.949.975A.854.854,0,0,1,18.146,30h-.292A.855.855,0,0,1,17,29.146V29H15v.146a2.849,2.849,0,0,0,2,2.709V33h2V31.855a2.844,2.844,0,0,0,.422-5.262l-1.949-.975A.854.854,0,0,1,17.854,24h.292a.855.855,0,0,1,.854.854V25Z"></path><rect x="24" y="21" width="2" height="2"></rect><rect x="24" y="25" width="14" height="2"></rect><rect x="24" y="29" width="14" height="2"></rect><rect x="24" y="33" width="14" height="2"></rect><rect x="28" y="21" width="13" height="2"></rect><path d="M17,40H38V38H16a1,1,0,0,0-1,1v8a1,1,0,0,0,1,1H35V46H17Z"></path><rect x="15" y="11" width="2" height="2"></rect><rect x="19" y="11" width="30" height="2"></rect><path d="M58,15V6a4,4,0,0,0-4-4H38V4H54a2,2,0,0,1,2,2v9Z"></path><rect x="34" y="2" width="2" height="2"></rect><rect x="6" y="28" width="2" height="19"></rect></g></svg>