<svg height='100px' width='100px'  fill="#000000" xmlns="http://www.w3.org/2000/svg" data-name="Layer 1" viewBox="0 0 64 64" x="0px" y="0px"><defs><style>.cls-1{stroke:#000000;stroke-miterlimit:10;}</style></defs><title>transportation-airplane-truck-boat-transport-carry-logistics</title><rect class="cls-1" x="11" y="38" width="8" height="2"></rect><path class="cls-1" d="M61.9,49.553l-3-6A1,1,0,0,0,58,43H52V40a1,1,0,0,0-1-1H31a1,1,0,0,0-1,1V58a1,1,0,0,0,1,1h4.142a3.981,3.981,0,0,0,7.716,0h7.284a3.981,3.981,0,0,0,7.716,0H61a1,1,0,0,0,1-1V50c0-.011-.007-.02-.007-.031A1.011,1.011,0,0,0,61.9,49.553ZM57.382,45l2,4H56V45ZM32,41H50V57H42.874a3.939,3.939,0,0,0-.142-.4c-.022-.06-.038-.123-.063-.182a3.952,3.952,0,0,0-.343-.63c-.029-.043-.065-.08-.095-.122a4.21,4.21,0,0,0-.356-.432c-.059-.06-.123-.113-.185-.17a3.957,3.957,0,0,0-.359-.3c-.074-.053-.15-.1-.227-.15a3.8,3.8,0,0,0-.4-.218c-.082-.039-.163-.078-.248-.112a3.99,3.99,0,0,0-.473-.147c-.078-.02-.152-.045-.231-.06a3.739,3.739,0,0,0-1.5,0c-.079.015-.153.04-.231.06a3.99,3.99,0,0,0-.473.147c-.085.034-.166.073-.248.112a3.8,3.8,0,0,0-.4.218c-.077.048-.153.1-.227.15a3.957,3.957,0,0,0-.359.3c-.062.057-.126.11-.185.17a4.21,4.21,0,0,0-.356.432c-.03.042-.066.079-.095.122a3.952,3.952,0,0,0-.343.63c-.025.059-.041.122-.063.182a3.939,3.939,0,0,0-.142.4H32Zm7,19a2,2,0,1,1,2-2A2,2,0,0,1,39,60Zm15,0a2,2,0,1,1,2-2A2,2,0,0,1,54,60Zm3.874-3a3.939,3.939,0,0,0-.142-.4c-.022-.06-.038-.123-.063-.182a3.952,3.952,0,0,0-.343-.63c-.029-.043-.065-.08-.095-.122a4.21,4.21,0,0,0-.356-.432c-.059-.06-.123-.113-.185-.17a3.957,3.957,0,0,0-.359-.3c-.074-.053-.15-.1-.227-.15a3.8,3.8,0,0,0-.4-.218c-.082-.039-.163-.078-.248-.112a3.99,3.99,0,0,0-.473-.147c-.078-.02-.152-.045-.231-.06a3.653,3.653,0,0,0-1.468,0c-.057.01-.113.021-.168.034a3.969,3.969,0,0,0-.664.206l-.026.013a3.892,3.892,0,0,0-.424.211V45h2v5a1,1,0,0,0,1,1h5v6Z"></path><rect class="cls-1" x="24" y="16" width="1.999" height="2"></rect><rect class="cls-1" x="28" y="16" width="1.999" height="2"></rect><rect class="cls-1" x="32" y="16" width="1.999" height="2"></rect><rect class="cls-1" x="36" y="16" width="1.999" height="2"></rect><path class="cls-1" d="M12.066,13.327c.011.031.019.062.033.092a.971.971,0,0,0,.193.288l6.247,6.251A13.705,13.705,0,0,0,28.293,24h.269l-2.484,5.594a1,1,0,0,0,.6,1.355l3,1A1.02,1.02,0,0,0,29.99,32a1,1,0,0,0,.819-.427L36.107,24H54.892a3.106,3.106,0,0,0,2.2-5.3h0l-3.1-3.1A12.2,12.2,0,0,0,45.306,12H37.554L32.848,4.47A1,1,0,0,0,32,4H29a1,1,0,0,0-.97,1.243L29.719,12H21.744L18.958,2.713A1,1,0,0,0,18,2H13a1,1,0,0,0-1,1V13c0,.022.011.04.012.062A1.007,1.007,0,0,0,12.066,13.327ZM29.6,29.815,28.353,29.4l2.661-5.993h0L31.639,22h3.426ZM51.379,16H44v2h9.561l2.111,2.112A1.106,1.106,0,0,1,54.892,22H37.506l.3-.427A1,1,0,0,0,36.985,20h-6a1.063,1.063,0,0,0-.914.594L29.451,22H28.293a11.713,11.713,0,0,1-8.339-3.457L15.413,14H45.306A10.185,10.185,0,0,1,51.379,16ZM30.281,6h1.165l3.75,6H31.781ZM14,4h3.256l2.4,8H14Z"></path><path class="cls-1" d="M6.337,60a1.641,1.641,0,0,1,.618.115c.008,0,.014.012.022.015a3.079,3.079,0,0,1,.842.617A3.936,3.936,0,0,0,10.674,62a3.884,3.884,0,0,0,2.846-1.265,1.873,1.873,0,0,1,2.975,0A3.874,3.874,0,0,0,19.339,62a3.924,3.924,0,0,0,2.852-1.254,3.091,3.091,0,0,1,.835-.613c.009,0,.015-.012.023-.016a1.631,1.631,0,0,1,.62-.117,1.935,1.935,0,0,1,1.487.735A3.877,3.877,0,0,0,28,62V60a1.935,1.935,0,0,1-1.487-.735,3.994,3.994,0,0,0-2.39-1.237l3.819-10.692a1,1,0,0,0-.626-1.285l-2.438-.813L22.984,34.821A1,1,0,0,0,22,34H18V31a1,1,0,0,0-1-1H13a1,1,0,0,0-1,1v3H8a1,1,0,0,0-.984.821L5.122,45.238l-2.438.813a1,1,0,0,0-.626,1.285L5.877,58.029a3.993,3.993,0,0,0-2.386,1.236A1.945,1.945,0,0,1,2,60v2a3.88,3.88,0,0,0,2.846-1.265A1.946,1.946,0,0,1,6.337,60Zm15.5-1.523a5.662,5.662,0,0,0-1.014.789,1.871,1.871,0,0,1-2.972,0A4.274,4.274,0,0,0,16,58.125V44.388l7.684,2.561h0l2.03.676ZM14,32h2v2H14ZM8.834,36H21.166l1.548,8.517-7.4-2.466a1,1,0,0,0-.632,0l-7.4,2.466ZM6.315,46.949h0L14,44.388V58.13a4.313,4.313,0,0,0-1.837,1.135,1.877,1.877,0,0,1-2.979,0,5.755,5.755,0,0,0-1.025-.8L4.285,47.625Z"></path><rect class="cls-1" x="40.001" y="16" width="1.999" height="2"></rect></svg>