<svg height='100px' width='100px'  fill="#000000" xmlns="http://www.w3.org/2000/svg" xmlns:xlink="http://www.w3.org/1999/xlink" version="1.1" x="0px" y="0px" viewBox="0 0 100 100" style="enable-background:new 0 0 100 100;" xml:space="preserve"><style type="text/css">
	.st0{fill:none;stroke:#000000;stroke-width:2;stroke-linecap:round;stroke-linejoin:round;stroke-miterlimit:10;}
	.st1{fill:none;stroke:#000000;stroke-width:2;stroke-linecap:round;stroke-miterlimit:10;}
</style><path d="M46.1,46.1c0.2,0,0.4-0.1,0.6-0.2l1-0.7v13.2c0,0.6,0.4,1,1,1h16.1c0.6,0,1-0.4,1-1V45.3l0.9,0.6c0.2,0.1,0.4,0.2,0.6,0.2  c0.3,0,0.6-0.1,0.8-0.4c0.3-0.4,0.2-1.1-0.2-1.4L57.2,37c-0.3-0.2-0.8-0.2-1.1,0l-10.6,7.3c-0.5,0.3-0.6,0.9-0.2,1.4  C45.4,46,45.8,46.1,46.1,46.1z M49.6,43.8l7-4.8l7,4.8v13.6H49.6V43.8z"></path><path d="M79.1,27.6c0.6,0,1-0.4,1-1v-7c0-0.6-0.4-1-1-1H29.9v-5.8c0-0.6-0.4-1-1-1h-7c-0.6,0-1,0.4-1,1v5.8h-2.4c-0.6,0-1,0.4-1,1v7  c0,0.6,0.4,1,1,1h2.4v60.1c0,0.6,0.4,1,1,1h7c0.6,0,1-0.4,1-1V27.6h6.9v4.2h-2.5c-0.6,0-1,0.4-1,1v32.6c0,0.6,0.4,1,1,1H79  c0.6,0,1-0.4,1-1V32.8c0-0.6-0.4-1-1-1h-3.3v-4.2H79.1z M22.9,13.8h5v4.8h-5V13.8z M19.5,20.6h58.5v5H19.5V20.6z M27.9,86.7h-5V27.6  h5V86.7z M78,64.4H35.3V33.8H78V64.4z M73.7,31.8H38.8v-4.2h34.8V31.8z"></path></svg>