<svg height='100px' width='100px'  fill="#000000" xmlns="http://www.w3.org/2000/svg" xmlns:xlink="http://www.w3.org/1999/xlink" version="1.1" x="0px" y="0px" viewBox="0 0 32 32" enable-background="new 0 0 32 32" xml:space="preserve"><path d="M27.873,24.732h-0.166v-2.24c0-0.727-0.592-1.316-1.316-1.316h-3.457v-1.319c0-0.76,0.229-1.116,0.52-1.566  c0.271-0.423,0.58-0.903,0.654-1.69c0.088-0.941-0.126-1.703-0.637-2.264c-0.788-0.866-1.985-0.876-2.035-0.876  c-0.051,0-1.249,0.01-2.037,0.876c-0.51,0.561-0.725,1.322-0.636,2.263c0.073,0.788,0.382,1.269,0.654,1.692  c0.289,0.45,0.519,0.807,0.519,1.565v1.319h-3.456c-0.726,0-1.317,0.59-1.317,1.316v2.24h-0.166c-0.32,0-0.58,0.26-0.58,0.58v1.785  c0,0.32,0.26,0.58,0.58,0.58h12.877c0.32,0,0.58-0.26,0.58-0.58v-1.785C28.453,24.992,28.193,24.732,27.873,24.732z M16.322,22.492  c0-0.086,0.07-0.156,0.157-0.156h4.036c0.32,0,0.58-0.26,0.58-0.58v-1.899c0-1.101-0.39-1.706-0.703-2.192  c-0.238-0.373-0.428-0.667-0.475-1.174c-0.057-0.599,0.056-1.059,0.333-1.367c0.438-0.487,1.181-0.503,1.181-0.503  c0.008,0,0.749,0.016,1.188,0.503c0.277,0.309,0.389,0.769,0.333,1.367c-0.047,0.506-0.235,0.801-0.476,1.173  c-0.313,0.487-0.703,1.093-0.703,2.193v1.899c0,0.32,0.26,0.58,0.58,0.58h4.037c0.086,0,0.156,0.07,0.156,0.156v2.24H16.322V22.492z   M27.293,26.518H15.576v-0.625h11.717V26.518z"></path><path d="M7.427,11.18c0.245,0.139,0.574,0.299,0.891,0.453c0.286,0.139,0.56,0.271,0.743,0.377c0.24,0.138,0.344,0.322,0.35,0.355  c-0.006,0.008-0.031,0.038-0.096,0.074c-0.261,0.152-1.027-0.078-1.551-0.377c-0.28-0.16-0.633-0.063-0.792,0.214  c-0.159,0.278-0.064,0.632,0.213,0.791c0.208,0.12,1.061,0.579,1.886,0.579c0.287,0,0.571-0.056,0.824-0.201  c0.584-0.338,0.671-0.813,0.671-1.065c0-0.234-0.075-0.469-0.206-0.687c0.172-0.17,0.319-0.361,0.422-0.625  c0.418-1.084-0.76-1.745-1.146-1.961c-0.249-0.141-0.581-0.303-0.9-0.459C8.453,8.512,8.183,8.381,8.002,8.277  c-0.24-0.139-0.344-0.322-0.35-0.357c0.006-0.008,0.031-0.037,0.096-0.074c0.26-0.15,1.026,0.078,1.552,0.379  c0.278,0.158,0.632,0.063,0.791-0.215s0.064-0.631-0.213-0.791c-0.28-0.162-1.733-0.943-2.71-0.378  C6.583,7.179,6.496,7.653,6.496,7.906c0.001,0.234,0.076,0.469,0.207,0.688c-0.173,0.17-0.32,0.361-0.422,0.624  C5.863,10.301,6.999,10.939,7.427,11.18z M7.363,9.636c0.036-0.093,0.095-0.167,0.213-0.271C7.76,9.463,7.988,9.576,8.228,9.691  c0.298,0.145,0.606,0.295,0.839,0.426c0.621,0.35,0.649,0.488,0.633,0.533c-0.037,0.094-0.096,0.167-0.213,0.27  c-0.186-0.099-0.419-0.213-0.66-0.33c-0.296-0.145-0.602-0.293-0.831-0.422C7.374,9.819,7.346,9.68,7.363,9.636z"></path><path d="M4.707,5.482h16.147v6.285c0.274-0.038,0.486-0.048,0.581-0.048c0.094,0,0.305,0.01,0.578,0.048V4.902  c0-0.32-0.259-0.58-0.58-0.58H4.127c-0.32,0-0.58,0.26-0.58,0.58v20.711c0,0.32,0.26,0.58,0.58,0.58h8.55v-0.881  c0-0.096,0.019-0.187,0.029-0.279H4.707V5.482z"></path><path d="M6.64,22.913h6.782v-0.421c0-0.257,0.041-0.502,0.102-0.738H6.64V22.913z"></path><path d="M17.953,19.231c-0.168-0.263-0.379-0.593-0.559-1.017H6.64v1.16h11.404C18.018,19.332,17.992,19.291,17.953,19.231z"></path><path d="M6.64,15.838h10.384c0.029-0.434,0.105-0.82,0.219-1.16H6.64V15.838z"></path><rect x="12.26" y="11.141" width="6.662" height="1.159"></rect><rect x="12.26" y="7.602" width="6.662" height="1.16"></rect></svg>