<svg height='100px' width='100px'  fill="#000000" xmlns="http://www.w3.org/2000/svg" viewBox="0 0 100 100" x="0px" y="0px"><title>Monument</title><g data-name="Iconos"><path d="M66.8,82.54c-.47-2.65-2.7-5.26-5.58-5.26h-5V72.64h.5a1.5,1.5,0,0,0,0-3H55V65.55a1.5,1.5,0,0,0-.3-3h-.27V44h.65a1.5,1.5,0,0,0,0-3h-.65V39.91A4.3,4.3,0,0,0,53.31,37l.28-4.23h1.32a1.51,1.51,0,0,0,1.14-.52,1.49,1.49,0,0,0,.34-1.2l-.68-4.54a3,3,0,0,0,2.14-1.77,3,3,0,0,0-.29-2.86l-1.23-1.79a2.93,2.93,0,0,0-.74-.75l-1.82-1.88c0-.18,0-.36-.05-.49a1.66,1.66,0,0,0,.1-.29c.08-.33.71-3.28-.76-5.13A3.74,3.74,0,0,0,50,10.15a4.67,4.67,0,0,0-3.66,2.22,3.31,3.31,0,0,0-.3,3.39l.69,1.43-7.66-.7a1.48,1.48,0,0,0-1.63,1.36,1.5,1.5,0,0,0,1.36,1.63l3.12.28.83,3.08a1.51,1.51,0,0,0,1.19,1.09l1.14.19-.51,7A1.51,1.51,0,0,0,46,32.75h.61L46.93,37a4.3,4.3,0,0,0-1.12,2.88V41h-.65a1.5,1.5,0,0,0,0,3h.65v18.6h-.27a1.5,1.5,0,0,0-.3,3v4.09h-1.7a1.5,1.5,0,0,0,0,3H44v4.64h-5c-2.88,0-5.11,2.61-5.58,5.26a7.2,7.2,0,0,0-4.24,6.27v.73a1.5,1.5,0,0,0,1.5,1.5h38.8a1.5,1.5,0,0,0,1.5-1.5v-.73A7.2,7.2,0,0,0,66.8,82.54ZM48.81,44h2.66v18.6H48.81Zm0-4.07a1.33,1.33,0,0,1,2.66,0V41H48.81Zm-.57,25.67H52v4.06h-3.8ZM45.38,21.14l-.29-1.09,3,.28a1.49,1.49,0,0,0,1.64-1.49v-1.9a1.47,1.47,0,0,0-.15-.65l-.89-1.83a.31.31,0,0,1,0-.32c.53-.73,1-1,1.23-1,.53,0,.67.17.73.24A3.56,3.56,0,0,1,51,15.68a4.56,4.56,0,0,0-.07,2.74,1.59,1.59,0,0,0,.4.77l2.27,2.33a1.48,1.48,0,0,0,.31.25l1.19,1.8,0,0a1.75,1.75,0,0,0-.24-.23l-2.73-2a1.5,1.5,0,0,0-1.77,2.43l2.23,1.62.65,4.37H47.66L48.15,23a1.51,1.51,0,0,0-1.24-1.59Zm5.2,11.61L50.4,35.6l-.26,0-.3,0-.18-2.86ZM47,72.64h6.2v4.64H47ZM32.33,88a4.74,4.74,0,0,1,2.85-3h5.71a1.5,1.5,0,0,0,0-3H36.77a2.82,2.82,0,0,1,2.29-1.76H61.22A2.82,2.82,0,0,1,63.51,82H59.39a1.5,1.5,0,0,0,0,3H65.1a4.7,4.7,0,0,1,2.84,3Z"></path></g></svg>