<svg height='100px' width='100px'  fill="#000000" xmlns="http://www.w3.org/2000/svg" xmlns:xlink="http://www.w3.org/1999/xlink" version="1.1" x="0px" y="0px" viewBox="0 0 512 512" style="enable-background:new 0 0 512 512;" xml:space="preserve"><g><path d="M389.89,242.823c-19.768-27.476-48.658-60.574-81.56-93.767c3.114,1.432,6.447,2.338,9.968,2.338c0.019,0,0.056,0,0.075,0   c6.425-0.019,12.457-2.547,16.971-7.099c4.533-4.552,7.024-10.583,7.006-17.008c-0.019-6.425-2.529-12.475-7.081-16.99   c-9.385-9.347-24.669-9.291-34.017,0.075c-7.346,7.39-8.68,18.296-4.443,27.223c-33.438-32.792-66.757-61.568-94.385-81.226   c-44.422-31.581-57.375-28.36-63.687-21.991c-25.775,25.906-35.365,64.549-27.002,108.793   c6.956,36.834,25.816,73.911,53.618,106.336c-3.828,5.912-5.89,12.8-5.89,19.971c0,11.574,5.486,21.794,13.877,28.541   l-35.474,101.095c-12.612,2.64-22.113,13.881-22.113,27.615v11.059c-11.818,5.46-20.08,17.355-20.08,31.2v5.132   c0,4.233,3.437,7.68,7.671,7.68h185.789c4.233,0,7.68-3.447,7.68-7.68v-5.132c0-13.845-8.271-25.738-20.099-31.2v-11.471   c0-13.378-9.511-24.578-22.123-27.208l-35.428-100.989c0.063-0.05,0.114-0.118,0.176-0.169   c26.746,18.243,55.574,30.771,84.237,36.037c10.153,1.854,20.005,2.772,29.465,2.772c31.768,0,59.194-10.371,79.041-30.268   c0.037-0.036,0.1-0.059,0.137-0.096C418.53,300.048,421.696,287.067,389.89,242.823z M400.979,295.234c-0.037,0-0.094,0-0.15,0   c-11.5,0-61.109-29.416-136.164-103.093l32.488-32.668C371.549,234.416,401.161,283.988,400.979,295.234z M312.116,121.199   c1.705-1.705,3.952-2.566,6.181-2.566s4.458,0.843,6.144,2.529c1.648,1.648,2.566,3.821,2.566,6.163   c0,2.323-0.899,4.496-2.529,6.144c0,0-0.019,0-0.019,0.019c-1.63,1.648-3.803,2.548-6.144,2.566c0,0,0,0-0.019,0   c-2.323,0-4.514-0.918-6.144-2.529C308.763,130.134,308.744,124.608,312.116,121.199z M286.277,148.657l-32.485,32.666   c-76.256-76.86-105.445-126.908-104.879-135.297c0.115-0.119,0.207-0.259,0.324-0.377c0.268-0.052,0.529-0.107,0.87-0.107   C161.626,45.542,211.252,74.976,286.277,148.657z M180.461,265.9c8.159,8.119,16.746,15.541,25.581,22.406   c-3.02,1.576-6.31,2.581-9.809,2.581c-11.81,0-21.429-9.609-21.429-21.41c0-2.762,0.536-5.451,1.54-7.955   C177.738,262.968,179.03,264.478,180.461,265.9z M187.164,304.98c0.476,0.122,0.915,0.331,1.399,0.434v93.105H154.34   L187.164,304.98z M111.183,466.44c1.246-9.31,9.253-16.521,18.91-16.521h132.273c9.665,0,17.683,7.212,18.919,16.521H111.183z    M261.354,426.729v7.83H131.094v-8.242c0-6.856,5.591-12.438,12.456-12.438h105.365   C255.772,413.879,261.354,419.461,261.354,426.729z M238.126,398.519h-34.223v-93.113c0.481-0.102,0.933-0.279,1.408-0.399   L238.126,398.519z M306.328,318.892c-40.217-7.38-81.07-30.064-115.04-63.856c-33.988-33.81-56.888-74.552-64.474-114.712   c-5.923-31.361-1.737-59.164,11.471-80.45c3.75,9.119,10.754,21.353,22.78,38.079c20.933,29.109,51.924,64.512,87.289,99.689   c35.384,35.197,70.955,66.01,100.176,86.783c16.829,11.967,29.062,18.849,38.21,22.539   C365.494,320.299,337.675,324.614,306.328,318.892z"></path><path d="M321.576,76.243c-4.683,0.3-7.811,3.091-8.017,7.305c-0.206,4.233,3.072,7.83,7.305,8.017   c9.178,0.431,17.645,4.402,23.827,11.183c6.2,6.781,9.366,15.566,8.954,24.744c-0.206,4.233,3.072,7.83,7.305,8.017   c0.131,0,0.243,0.019,0.356,0.019c4.083,0,7.474-3.222,7.661-7.324c0.618-13.281-3.971-25.981-12.925-35.796   C347.088,82.593,334.838,76.842,321.576,76.243z"></path><path d="M320.864,66.821c32.612,0.993,58.368,28.322,57.394,60.953c-0.131,4.233,3.203,7.774,7.436,7.886   c0.075,0.019,0.15,0.019,0.225,0.019c4.14,0,7.549-3.297,7.661-7.455c1.236-41.078-31.188-75.507-72.266-76.725   c-4.102-1.012-7.774,3.203-7.886,7.436C313.296,63.168,316.63,66.708,320.864,66.821z"></path></g></svg>