<svg height='100px' width='100px'  fill="#000000" xmlns="http://www.w3.org/2000/svg" xmlns:xlink="http://www.w3.org/1999/xlink" version="1.1" x="0px" y="0px" viewBox="0 0 70 70" style="enable-background:new 0 0 70 70;" xml:space="preserve"><g><path d="M12.59863,6.61182c-4.3418,0-7.87402,3.53223-7.87402,7.87402c0,4.34277,3.53223,7.875,7.87402,7.875   c4.33496,0,7.8623-3.53223,7.8623-7.875C20.46094,10.14404,16.93359,6.61182,12.59863,6.61182z M12.59863,20.86084   c-3.51465,0-6.37402-2.85938-6.37402-6.375c0-3.51465,2.85938-6.37402,6.37402-6.37402c3.50781,0,6.3623,2.85938,6.3623,6.37402   C18.96094,18.00146,16.10645,20.86084,12.59863,20.86084z"></path><path d="M56.42676,17.63037c-0.1416-0.18652-0.3623-0.29492-0.5957-0.29492H31.68359c-0.22949,0-0.43945,0.10834-0.58032,0.28278   c-0.00415,0.00525-0.01123,0.00677-0.01538,0.01215L20.91992,30.9292c-0.10059,0.12988-0.1543,0.29004-0.1543,0.45508v15.36816   h-3.34961v-7.16699c0-0.41406-0.33594-0.75-0.75-0.75s-0.75,0.33594-0.75,0.75v7.16699h-3.16699v-7.16699   c0-0.41406-0.33594-0.75-0.75-0.75s-0.75,0.33594-0.75,0.75v7.16699H8.08203v-7.16699c0-0.41406-0.33594-0.75-0.75-0.75   s-0.75,0.33594-0.75,0.75v7.16699H4.00195c-0.41406,0-0.75,0.33594-0.75,0.75s0.33594,0.75,0.75,0.75h17.51367h5.09961   c0.99036,1.07666,1.89929,2.20795,2.6875,3.37891c0.03625,0.05353,0.06763,0.11218,0.10364,0.16602H4.00195   c-0.41406,0-0.75,0.33594-0.75,0.75s0.33594,0.75,0.75,0.75h25.92188c0.1311,0,0.24817-0.0426,0.35547-0.10181   c0.41089,0.69928,0.80298,1.41498,1.15918,2.15454c0.23828,0.48779,0.453,0.9895,0.6626,1.49316H4.00195   c-0.41406,0-0.75,0.33594-0.75,0.75s0.33594,0.75,0.75,0.75H32.6676c0.08301,0.23779,0.17908,0.47131,0.25525,0.71094   c0.29907,0.9306,0.53284,1.88153,0.72791,2.83398H4c-0.41406,0-0.75,0.33594-0.75,0.75s0.33594,0.75,0.75,0.75h62   c0.41406,0,0.75-0.33594,0.75-0.75s-0.33594-0.75-0.75-0.75H49.90259c-0.22351-1.12964-0.47974-2.23187-0.77759-3.27148   c-0.02649-0.09167-0.05908-0.18188-0.08618-0.27344h16.95923c0.41406,0,0.75-0.33594,0.75-0.75s-0.33594-0.75-0.75-0.75H48.56567   c-0.23853-0.70789-0.49121-1.40985-0.76392-2.09766c-0.19263-0.48779-0.40283-0.96802-0.6123-1.44824h18.80859   c0.41406,0,0.75-0.33594,0.75-0.75s-0.33594-0.75-0.75-0.75h-19.5c-0.14929-0.30994-0.29175-0.6261-0.44727-0.92969   c-0.45337-0.88373-0.95288-1.75482-1.4707-2.61523h21.41797H66c0.41406,0,0.75-0.33594,0.75-0.75v-3.91406v-5.58594v-6.61816   c0-0.16504-0.05371-0.3252-0.1543-0.45508L56.42676,17.63037z M65.25,42.83838H44.91992v-4.08594H65.25V42.83838z    M55.45996,18.83545l9.12622,11.93457H42.32654l-9.12537-11.93457H55.45996z M22.26563,31.63818l9.41797-12.31836l9.41895,12.31836   v15.11426h-4.45996h-0.32031v-6.69629c0-1.22852-0.48535-2.39063-1.36719-3.27246   c-0.88086-0.88086-2.04297-1.36621-3.27148-1.36621c-2.55762,0-4.63867,2.08105-4.63867,4.63867v6.69629h-0.08789h-0.08887   h-4.60254V31.63818z M34.82227,46.75244h-6.27734v-6.69629c0-1.73047,1.4082-3.13867,3.13867-3.13867   c0.82813,0,1.61328,0.3291,2.21094,0.92676c0.59863,0.59863,0.92773,1.38379,0.92773,2.21191V46.75244z M30.5459,50.7915   c-0.58398-0.86719-1.22656-1.7168-1.91797-2.53906h6.94434h0.64856c0.203,0.32343,0.39587,0.64423,0.58618,0.96454   c0.12268,0.20654,0.25415,0.41547,0.37146,0.62036c0.33154,0.57959,0.64417,1.1532,0.92896,1.7149   c0.61621,1.20313,1.18457,2.46289,1.69141,3.74512c0.48047,1.21191,0.91016,2.46875,1.27734,3.7334   c0.22241,0.77954,0.41309,1.57452,0.58813,2.37048c0.02295,0.10468,0.04419,0.20935,0.06628,0.31409h-6.56946   c-0.20898-1.04883-0.48145-2.0957-0.80957-3.11816c-0.05225-0.16431-0.11987-0.3241-0.17505-0.48767   c0.12866-0.1347,0.21021-0.31531,0.21021-0.51624c0-0.38153-0.28931-0.6842-0.6582-0.73145   c-0.28711-0.7356-0.59619-1.46173-0.94043-2.16602C32.12988,53.32959,31.375,52.01514,30.5459,50.7915z M44.91846,51.97333   c-0.16956,0.13751-0.28467,0.33881-0.28467,0.57404c0,0.41406,0.33594,0.75,0.75,0.75h0.17175   c0.29895,0.65753,0.58484,1.32446,0.85168,1.99902v0.00098c0.48145,1.21484,0.91113,2.47168,1.27637,3.7334   c0.24512,0.8584,0.4668,1.75781,0.66113,2.68457h-5.07129c-0.05688-0.28082-0.12463-0.56024-0.18774-0.84039   c-0.04102-0.18256-0.07861-0.36475-0.12207-0.54681c-0.1377-0.57465-0.28467-1.14679-0.44604-1.7124   c-0.38086-1.3125-0.82617-2.61523-1.32422-3.87012c-0.52344-1.32617-1.1123-2.63086-1.74902-3.875   c-0.27527-0.54126-0.5791-1.0946-0.89563-1.65234c-0.08875-0.15619-0.17957-0.31219-0.27136-0.46936   c-0.09692-0.16589-0.18677-0.32965-0.28711-0.49646h3.8623h0.98047c0.67676,1.07422,1.30957,2.18262,1.88281,3.2998   C44.78613,51.6897,44.84937,51.83447,44.91846,51.97333z M43.24414,46.75244h-0.06348h-0.57813V32.27002H65.25v4.98242H44.16992   c-0.41406,0-0.75,0.33594-0.75,0.75v5.58594c0,0.41406,0.33594,0.75,0.75,0.75H65.25v2.41406H43.24414z"></path></g></svg>