<svg height='100px' width='100px'  fill="#000000" xmlns="http://www.w3.org/2000/svg" data-name="Layer 1" viewBox="0 0 128 128" x="0px" y="0px"><title>Miscellaneous 88 solid</title><path d="M126.00006,107H113.00031V99a6.00476,6.00476,0,0,0-3.99988-5.65V91a8.00909,8.00909,0,0,0-7.99982-8H57.00153a8.00909,8.00909,0,0,0-7.99982,8v2.35A6.00481,6.00481,0,0,0,45.00177,99v8H2.00269a2,2,0,0,0,0,4H126.00006a2,2,0,0,0,0-4ZM105.00049,93H53.00159V91a4.00394,4.00394,0,0,1,3.99994-4h43.99908a4.00389,4.00389,0,0,1,3.99988,4Z"></path><path d="M7.47,72A7.374,7.374,0,0,0,9.71,71.66l6.11-1.9-4.71-14.1L5.24,57.49a7.365,7.365,0,0,0-4.4,3.67,7.29963,7.29963,0,0,0-.48,5.66A7.434,7.434,0,0,0,7.47,72Z"></path><path d="M53.3,71.3a6.59912,6.59912,0,0,0,8.35,4.38l26.74-8.63A6.703,6.703,0,0,0,92.7,58.7a6.59912,6.59912,0,0,0-8.35-4.38l-1.23.39L75.25,30.42l1.14-.37A6.703,6.703,0,0,0,80.7,21.7a6.59912,6.59912,0,0,0-8.35-4.38L45.61,25.95A6.7113,6.7113,0,0,0,41.3,34.3a6.59912,6.59912,0,0,0,8.35,4.38l1.52-.49,1.47,4.52L22.78,52.02l4.7,14.1,29.74-9.27,1.83,5.63-1.44.47A6.7113,6.7113,0,0,0,53.3,71.3Zm1.68-34.34,16.46-5.31,7.88,24.29L62.86,61.25Z"></path><polygon points="14.93 54.47 19.63 68.57 23.66 67.31 18.96 53.21 14.93 54.47"></polygon><path d="M115.58618,52.58594l-7.99982,8a1.99976,1.99976,0,1,0,2.82806,2.82813l7.99982-8a1.99976,1.99976,0,0,0-2.82806-2.82812Z"></path><path d="M111.63318,76.10254a2.0002,2.0002,0,0,0-1.26562,3.79492l11.99976,4a2.0002,2.0002,0,0,0,1.26563-3.79492Z"></path><path d="M127.97949,67.7168a2.00221,2.00221,0,0,0-2.26263-1.69629l-13.99969,2A1.99984,1.99984,0,0,0,111.99744,72a2.03474,2.03474,0,0,0,.28613-.02051l13.99969-2A1.99974,1.99974,0,0,0,127.97949,67.7168Z"></path></svg>