<svg height='100px' width='100px'  fill="#000000" xmlns="http://www.w3.org/2000/svg" xmlns:xlink="http://www.w3.org/1999/xlink" viewBox="0 0 24 24" version="1.1" x="0px" y="0px"><title>community service</title><desc>Created with Sketch.</desc><g stroke="none" stroke-width="1" fill="none" fill-rule="evenodd"><circle fill="#000000" fill-rule="nonzero" cx="4.483" cy="9.564" r="1.553"></circle><path d="M6.49,11.669 C6.094,11.524 6.081,11.519 6.024,11.493 C5.975,11.471 5.896,11.435 5.553,11.299 L5.383,11.232 L5.232,11.335 C4.855,11.59 4.1,11.586 3.738,11.336 L3.589,11.233 L2.438,11.674 C1.032,12.252 1.032,13.145 1.032,13.863 L1.032,16.969 C1.032,18.102 2.413,18.102 2.413,16.969 L2.413,13.863 C2.413,13.508 2.582,13.334 2.758,13.25 L2.758,22.147 C2.758,23.28 4.138,23.28 4.138,22.147 L4.138,17.66 C4.138,17.343 4.317,17.229 4.483,17.229 C4.65,17.229 4.828,17.342 4.828,17.66 L4.828,22.147 C4.828,22.713 5.175,23.01 5.518,23.01 C5.861,23.01 6.208,22.713 6.208,22.142 C6.189,20.963 6.203,14.908 6.207,13.248 C6.381,13.331 6.553,13.504 6.553,13.862 L6.553,16.968 C6.553,18.101 7.933,18.101 7.933,16.968 L7.933,13.862 C7.935,13.145 7.935,12.25 6.49,11.669 Z" fill="#000000" fill-rule="nonzero"></path><path d="M21.555,11.669 C21.162,11.525 21.147,11.519 21.091,11.494 C21.041,11.472 20.964,11.436 20.616,11.299 L20.446,11.232 L20.295,11.335 C19.92,11.59 19.165,11.586 18.802,11.336 L18.653,11.233 L17.504,11.674 C16.098,12.252 16.098,13.145 16.098,13.863 L16.098,16.969 C16.098,18.102 17.479,18.102 17.479,16.969 L17.479,13.863 C17.479,13.508 17.648,13.334 17.824,13.25 L17.824,22.147 C17.824,23.28 19.205,23.28 19.205,22.147 L19.205,17.66 C19.205,17.343 19.383,17.229 19.55,17.229 C19.718,17.229 19.896,17.342 19.896,17.66 L19.896,22.147 C19.896,22.713 20.243,23.01 20.586,23.01 C20.929,23.01 21.276,22.713 21.276,22.142 C21.257,20.963 21.27,14.908 21.274,13.248 C21.449,13.331 21.621,13.504 21.621,13.862 L21.621,16.968 C21.621,18.101 23.002,18.101 23.002,16.968 L23.002,13.862 C23,13.145 23,12.25 21.555,11.669 Z" fill="#000000" fill-rule="nonzero"></path><circle fill="#000000" fill-rule="nonzero" cx="19.548" cy="9.564" r="1.553"></circle><path d="M14.006,5.659 C13.613,5.515 13.598,5.509 13.543,5.484 C13.492,5.462 13.416,5.426 13.068,5.289 L12.898,5.222 L12.746,5.325 C12.371,5.58 11.617,5.576 11.253,5.326 L11.104,5.223 L9.955,5.664 C9.688,5.767 9.479,5.5 9.5,5 L9.5,1.938 C9.5,0.672 8,0.704 8,1.938 L8,5 C8,7 9.5,7.5 10.274,7.239 L10.274,16.136 C10.274,17.269 11.655,17.269 11.655,16.136 L11.655,11.649 C11.655,11.332 11.833,11.218 12,11.218 C12.168,11.218 12.346,11.331 12.346,11.649 L12.346,16.136 C12.346,16.702 12.692,16.999 13.036,16.999 C13.38,16.999 13.727,16.702 13.727,16.131 C13.707,14.952 13.721,8.897 13.725,7.237 C13.899,7.32 14.071,7.493 14.071,7.851 L14.071,10.957 C14.071,12.09 15.452,12.09 15.452,10.957 L15.452,7.853 C15.451,7.134 15.451,6.239 14.006,5.659 Z" fill="#000000" fill-rule="nonzero"></path><circle fill="#000000" fill-rule="nonzero" cx="12" cy="3.553" r="1.553"></circle></g></svg>