<svg height='100px' width='100px'  fill="#000000" xmlns="http://www.w3.org/2000/svg" xmlns:xlink="http://www.w3.org/1999/xlink" version="1.1" x="0px" y="0px" viewBox="0 0 100 100" enable-background="new 0 0 100 100" xml:space="preserve"><g display="none"><path display="inline" opacity="0.3" fill-rule="evenodd" clip-rule="evenodd" d="M7.546,40.05l1.035-0.261l0.552-1.098   l-0.208-1.034l1.239-0.757l0.068-1.169l-0.964-0.415l0.208-1.305l0.756-0.824l0.756-0.071l0.548-0.617h1.379l1.305,1.032   l0.688-0.552l1.059,0.265l0.143,1.699l1.441,1.263l1.043,0.143l1.083,1.118l0.973,0.543v0.61l-0.827,0.831l-1.189-0.11   l-0.649-0.358h-1.083l-0.433,0.395l-1.623-0.036l-0.973,0.397l-0.504,1.296l-2.488,1.264l-1.984,1.696l-0.071-0.652l0.469-1.405   l0.54-0.036l0.937-0.61l-0.901,0.106l-0.575-0.181L8.753,41.36l-0.756-0.469l-0.394-0.83L7.546,40.05L7.546,40.05z M77.439,34.237   l-0.223,0.309l-0.575,1.228l-1.189,0.718l-1.586,0.795l-0.288,0.724l-1.48,0.106l-0.575,0.469l-1.948-0.434l-0.576-0.361h-0.685   l-0.291-0.178l-0.937,0.284l-1.729,0.113l-2.02,0.827l-1.622-0.323l-1.083-0.759l-0.575,0.396l-1.839-0.901l-0.937-0.142   l-1.661-1.121h-0.504l-0.433,0.613l-0.792-0.181l-0.831-1.115l-0.216-1.156l-0.756-0.646l-0.54,0.106l-1.154,1.154l-0.397-0.182   l-0.433,0.291l-1.732-1.59l-0.142-0.938l-0.288-0.106l-1.154,0.575h-1.515l-0.721-0.249l-0.937,0.249l-2.343-0.106l-1.153,0.252   l-2.201,0.976l-1.008,0.107l-1.768,0.326L34.1,35.05l-0.831,0.217l-0.792,0.83l-0.433,0.252l-0.469,1.154l-0.433,0.287l0.071,0.504   l-1.693,0.11l-2.523-0.938h-0.795l-0.575,0.43l-1.047-0.213l-1.441,0.361l-0.721-0.255l-1.189,0.326l-0.217,0.646l0.866,1.441   l1.332,0.039l1.118,0.181l-0.181,0.504l-1.945,0.036l-1.693,0.504l-0.614,0.795l0.323,0.468l0.901-0.29l0.362,0.543l-0.721,0.252   l-2.201,0.035l-0.937-0.504l-1.118,0.504l-0.54-0.795l-0.614,0.035l-0.828,0.94l-0.794-0.035l-1.154-0.905h-1.118l-2.162,1.661   L8.97,45.038l-0.359,0.83l0.359,0.611l-0.036,0.973L8.611,47.85l0.323,0.575l1.263-0.434l0.359,0.148l0.937-0.219l1.154,0.035   l-1.115,1.047l0.143,0.721l0.468,0.76l-0.026,0.574l-0.092,0.413l0.306,0.216l0.863-0.557l0.074,0.486l-0.575,0.593l-1.186,0.735   l0.412,0.287l0.682,0.072l-0.682,0.447l-0.412,0.83h-0.504l-0.522-1.26l-0.359-0.178l-0.163,0.791l0.323,0.878l-0.412,0.469   l0.148,0.679l0.792,0.508l0.181-0.397l0.937,0.794l0.721-0.147l1.083,0.652l0.288,1.115l-0.756,0.759l0.614,0.575l0.036,0.575   l0.614,0.039l1.189,1.153l-0.433,0.757l-0.756-0.217l-0.181,0.539l0.611,0.256l1.444-0.362h2.017l-0.143,0.397l-0.462,0.492   l-1.035,0.448l-1.545-0.065l-0.362,0.543l0.569,0.148l0.792-0.262l1.062-0.006L17.804,64v0.688l0.288,0.249l0.542-0.683   l0.646-0.795l0.685-0.035L20.435,64h0.614l0.902,0.54l0.433-0.611l0.721,0.107l-0.11,0.504l-0.358,0.184l0.433,0.646l0.107,0.649   l1.011,0.827l0.359-0.178l1.083,0.434l1.153-0.182l0.54-0.433h0.937L28.8,66.02l0.828,0.433l0.578-0.322l-0.109-1.119l0.181-0.578   l-0.181-1.043l2.02-0.182l1.729,0.146l2.31,1.187h0.827l1.516,2.022l1.299,0.827l4.327-0.543l1.296-0.539h0.433l0.217,0.219   l0.611-0.433l0.216-0.795l2.055-2.343l0.507-0.106l1.945,0.682l1.189,0.54l1.479-0.285l0.107-0.433l1.047-0.759l0.792,0.255   l0.109,0.682l-0.721,1.157l-0.94,0.753l0.039,0.469l0.863,1.011l-0.189,0.662l0.943,0.178l0.994-0.172l0.928-0.345l-0.104-1.062   l0.62-0.379l0.032-1.786l0.276-0.756l1.373,0.344l0.825,0.205l2.301-0.893l0.548-0.068l0.688-0.412l2.474-0.24l0.893,0.24   l0.48,0.447l1.548,0.309l2.162,0.068l0.208-0.412l1.234-0.38l0.724-0.789l1.681-0.516h1.204l0.925-0.172l2.405,0.139l1.889-0.652   l1.34-0.035l0.379,0.314l1.302-1.07h1.136l0.48-0.377h1.957l1.649,0.412l1.237-0.344l0.652,0.412l-0.036,0.928l0.789,0.377   l1.062-0.312l0.246-0.821l-0.448-1.101l-1.029-1.853l-1.272-0.48l0.104-0.549l-0.068-1.377l0.617-1.44l-0.309-0.585l-1.097-0.139   l-0.036-1.305l0.137-0.893l-0.445-1.786l-0.516-0.928l-0.036-0.48l1.34-0.101l0.48-1.272l0.516-0.448l-0.552-0.89l-0.821-0.824   l-0.928,0.065l-1.477-0.065l-1.376-0.824l-0.068-1.893l0.312-1.477l-0.516-0.996l-0.86-0.205l-0.068-0.584l-0.824-0.893   l-0.857-0.205l-1.993-1.685l-0.789-0.207l-0.688,0.584l-0.584,0.104l-1.237-0.48l-0.448,0.582l-0.548-0.17l-0.205-0.859   L77.439,34.237L77.439,34.237z M16.674,65.104L17,64.759l0.395,0.019l0.104,0.344l-0.412,0.122L16.674,65.104L16.674,65.104z    M6.161,43.822l0.738,0.29l0.946-0.258l0.139-0.516l-0.448-0.294l-0.498,0.38l-0.691,0.018L6.161,43.822z"></path></g><g display="none"><path display="inline" d="M26.65,53.857V48.49h-2.008V47.77h4.825v0.721h-2.014v5.367H26.65L26.65,53.857z M36.108,47.77h0.804   v3.521c0,0.61-0.068,1.094-0.208,1.455c-0.139,0.359-0.388,0.65-0.75,0.875c-0.359,0.229-0.833,0.338-1.42,0.338   c-0.57,0-1.038-0.095-1.4-0.29c-0.362-0.196-0.62-0.48-0.774-0.854c-0.157-0.373-0.234-0.881-0.234-1.523V47.77h0.807v3.514   c0,0.528,0.05,0.92,0.146,1.169c0.098,0.249,0.27,0.441,0.507,0.578c0.24,0.137,0.534,0.205,0.878,0.205   c0.593,0,1.017-0.137,1.269-0.404c0.25-0.267,0.377-0.782,0.377-1.548V47.77L36.108,47.77z M40.084,53.857V47.77h2.699   c0.543,0,0.955,0.056,1.24,0.166c0.282,0.109,0.504,0.3,0.676,0.578c0.169,0.276,0.252,0.581,0.252,0.919   c0,0.431-0.139,0.795-0.418,1.092c-0.282,0.293-0.712,0.48-1.296,0.563c0.214,0.101,0.374,0.202,0.487,0.303   c0.234,0.216,0.457,0.486,0.667,0.81l1.059,1.657h-1.014l-0.804-1.269c-0.234-0.362-0.43-0.645-0.581-0.837   c-0.154-0.192-0.288-0.329-0.409-0.406c-0.122-0.08-0.243-0.134-0.368-0.163c-0.092-0.018-0.24-0.029-0.448-0.029h-0.935v2.704   H40.084L40.084,53.857z M40.891,50.456h1.732c0.365,0,0.656-0.038,0.863-0.115c0.208-0.074,0.365-0.196,0.471-0.362   c0.11-0.169,0.163-0.35,0.163-0.546c0-0.29-0.104-0.527-0.314-0.711c-0.208-0.185-0.537-0.279-0.991-0.279h-1.925V50.456   L40.891,50.456z M48,53.857V47.77h0.807v3.019l3.022-3.019h1.091l-2.554,2.468l2.666,3.62h-1.064l-2.165-3.081l-0.996,0.97v2.111   H48L48,53.857z M55.542,53.857V47.77h4.401v0.721h-3.597v1.862h3.369v0.712h-3.369v2.075h3.739v0.718H55.542L55.542,53.857z    M64.729,53.857v-2.58l-2.343-3.508h0.979l1.198,1.835c0.223,0.345,0.427,0.688,0.62,1.032c0.181-0.319,0.403-0.679,0.664-1.076   l1.177-1.791h0.94l-2.429,3.508v2.58H64.729z"></path></g><g><path fill="none" stroke="#000000" stroke-width="0.5" stroke-linecap="round" stroke-linejoin="round" stroke-miterlimit="10" d="   M30,66c-0.024-0.116-0.062-0.812-0.106-1.106c0.118-0.032,0.22-0.005,0.337-0.037c0.039-1.928,0.775-1.566,2.519-1.481   c1.4,0.068,2.312,0.624,3.507,1.207c0.087-0.123,0.152-0.235,0.237-0.352c0.63,0.163,1.586,1.371,2.079,1.9   c0.241,0.26,0.671,1,0.953,1.101c0.831,0.297,1.022-0.454,1.6-0.622c0.847-0.246,1.874-0.134,2.75-0.366   c0.807-0.214,2.035-1.079,1.894,0.362c0.381-0.067,0.79-0.29,1.115-0.599c0.217-0.206-0.019-0.47,0.108-0.639   c0.182-0.243,0.573-0.324,0.739-0.615c0.633-1.107,1.203-2.027,2.747-2.109c0.479,1.299,2.165,1.074,3.25,1.086   c0.014-0.073,0.029-0.146,0.046-0.218c0.491,0.442,0.97,0.04,0.9-0.621c2.364-0.283,1.39,2.387-0.152,2.756   c0.012,0.54,0.583,0.568,1.093,0.72c-0.164,0.237-0.119,0.659-0.221,0.864c0.573,0.113,4.317,0.497,2.646-1.087   c1.192-0.084,0.505-1.722,0.604-2.5c0.751-0.148,1.477,0.087,2.084,0.469c0.348-1.382,2.45-0.422,3.168-1.469   c0.969-0.276,3.612-0.881,3.872,0.588c1.081-0.251,2.107,0.046,3.209-0.025c0.009-0.228,0.169-0.479,0.179-0.674   c0.507,1.04,0.737,0.626,1.312,0.44c0.542-0.176,1.514-1.09,2.189-1.348c0.94-0.357,2.038-0.193,3.351-0.51   c0.051-0.012,0.489,0.052,0.613,0.043c0.098-0.007,0.48-0.255,0.469-0.257c0.067,0.013,0.622,0.191,0.637,0.193   c0.031,0.005,0.325,0.462,0.519,0.508c0.168,0.04,0.706-0.382,0.878-0.452c1.464-0.604,1.76-0.747,3.15,0.187   c0.771-1.517,3.686-2.664,5.35-2.09c0.183,0.063,0.812,0.604,0.868,0.61c0.338,0.032,1.033-0.363,1.035-0.363   c0.649,0.143,0.879,0.812,0.359,1.605c0.743,0.034,1.5-0.153,2.112-0.6c0.84-0.612,0.75-0.856,0.382-1.875   c-0.3-0.831-0.465-1.466-1.131-1.85c-0.517-0.299-1.423,0.115-1.613-0.875c0.928,0.077,0.409-0.526,0.522-1.035   c0.008-0.037,0.126-0.88,0.122-0.987c-0.031-0.758-0.105-2.04-1.144-1.289c0.17-1.33,0.293-2.153-0.137-3.339   c-0.32-0.884-0.875-1.78-1.12-2.74c1.154,0.27,1.079,0.727,1.769-0.26c0.647-0.926,0.316-1.357,0.079-2.356   c-1.412-0.528-3.141-0.428-4.319-1.431c-0.878-0.748,1.029-4.426-1.393-3.984c0.209-0.398,0.556-0.927,0.464-1.466   c-0.591,0.009-1.936-0.358-2.48-0.663c-0.587-0.327-0.851-1.215-1.372-1.505c-1.011-0.564-1.139,0.314-2,0.445   c-0.642,0.097-1.034-0.704-1.966-0.262c0.21,0.16,0.223,0.342,0.324,0.453c-0.238,0.075-0.598,0.041-0.842,0   c0.179-2.635-1.495-0.148-2.02,0.519c-0.43,0.546-1.184,0.746-1.622,1.118c-0.674,0.573-0.508,0.918-0.976,1.369   c-1.128-1.03-1.649,0.575-2.386,0.753c0.068-0.169,0.038-0.541,0.093-0.721c-0.802-0.18-1.344,0.035-2.108-0.113   c-1.182-0.229-1.016-0.436-2.288,0.297c-0.846-0.664-2.918-0.232-3.993-0.081c-0.365,0.052-0.869,0.39-1.25,0.233   c-0.33-0.135-0.387-0.771-0.564-0.834c-0.583-0.207-0.665-0.166-1.287,0.368c-0.719-0.733-1.499-0.914-2.473-1.237   c-0.864-0.287-1.518-0.947-2.372-1.134c-0.119,0.285-0.524,0.634-0.619,0.847c-0.354-0.448-0.811-0.725-1.037-1.24   c-0.192-0.439,0.024-0.895-0.244-1.378c-0.719-1.296-1.023-0.585-1.872-0.125c-0.853,0.462-1.474,0.766-2.412,0.287   c-0.795-0.407-1.384-1.397-1.235-2.271c-0.628-0.182-1.089,0.04-0.997,0.719c-1.242,0.276-2.063-0.094-3.234-0.231   c-1.176-0.139-1.999,0.292-3.097,0.009c-0.304,0.833-1.14,0.159-1.426,0.97c-1.036-0.033-1.231,0.569-2.005,0.75   c-1.034,0.241-1.474-0.14-2.485,0.618c-1.262,0.946-2.152,1.913-3.225,3.001c0.381,0.075,0.695,0.35,0.977,0.496   c-2.024,0.978-4.042-2.213-5.974-0.812c0.071,0.084,0.172,0.249,0.252,0.346c-0.775,0.648-1.721,0.229-2.637,0.095   c-1.437-0.211-1.63-0.301-2.74,0.802c0.489,1.353,0.918,1.338,2.109,1.097c0.519-0.104,0.919-0.516,1.401-0.252   c0.504,0.274,0.613,0.809,0.225,1.168c-0.819,0.756-4.818-0.434-4.483,1.819c0.487,0.065,0.93-0.077,1.324-0.338   c1.079,1.731-4.489,0.494-5.09,0.972c-0.118-0.312-0.489-0.564-0.628-0.864c-0.591,0.171-0.67,0.838-1.119,1.005   c-0.483,0.18-1.303-0.238-1.658-0.354c-0.46-0.148-0.792-0.573-1.347-0.381c-0.629,0.219-0.436,0.804-0.745,1.106   c-0.704,0.692-1.783,0.813-2.012,1.99c-0.124,0.635,0.269,0.783,0.27,1.251c0,0.517-0.303,1.227-0.372,1.737   c0.771,0.189,1.132-0.584,1.734-0.853c0.549-0.246,1.522-0.425,2.105-0.36c-0.075,0.909-0.993,1.6-0.986,2.488   c0.003,0.426,0.716,1.959,1.105,1.978c0.155-0.444,0.363-0.521,0.628-0.719c0.188,1.486-0.949,1.286-1.74,1.859   c0.205,0.179,0.329,0.604,0.5,0.753c-0.354,0.279-0.667,0.593-0.988,0.887c-0.534-0.481-0.504-1.271-1-1.782   c-0.362,0.373-0.12,0.685-0.229,1.145c-0.024,0.102,0.284,0.297,0.239,0.505c-0.043,0.203-0.515,0.276-0.52,0.46   c-0.024,0.949,0.242,1.059,1.136,1.773c-0.021-0.501,0.118-0.877,0.598-0.975c0.311,1.161,1.42,0.679,2.149,1.262   c0.698,0.559,0.88,1.702-0.237,1.87c0.121,0.443,0.309,0.718,0.719,0.874c-0.237,1.196,1.493,0.743,1.752,1.832   c-0.414,0.17-0.837,0.183-1.205,0.037c-1.189,1.927,3.193,1.086,3.927,1.003c-0.789,1.596-2.119,0.468-3.331,0.981   c-1.97,0.835,1.477,0.724,2,0.748c0.369,0.017,0.386,0.465,0.75,0.379c0.486-0.115,0.329-0.371,0.726-0.599   c0.448-0.257,0.676-0.752,1.4-0.659c0.586,0.075,2.737,2.141,2.644,0.147c1.332,0.2,0.21,0.928,0.347,1.355   c0.04,0.123,0.832,1.413,0.909,1.478c1.066,0.891,3.435-0.16,3.944,0.513c0.233-0.987,1.79-0.333,2.406-1.362"></path><path fill="none" stroke="#000000" stroke-width="0.5" stroke-linecap="round" stroke-linejoin="round" stroke-miterlimit="10" d="   M7.5,43.125c-0.256,0.005-2.454,0.535-1.256,1.252c0.874,0.524,2.777-0.959,1.256-1.127"></path><path fill="none" stroke="#000000" stroke-width="0.5" stroke-linecap="round" stroke-linejoin="round" stroke-miterlimit="10" d="   M9.875,37.125c0.03-0.232,0.16-1.057,0.238-1.49c-1.958,0.303-0.503-4.178,0.915-2.389c0.558-1.975,2.278-0.047,3.226,0.365   c0.233-0.685,0.955-1.115,1.505-0.464c0.413,0.489,0.022,1.574,0.391,2.216c0.58,0.062,0.939,0.371,1.444,0.274   c0.034,0.233,0.278,0.473,0.303,0.725c1.301-0.245,3.181,1.892,1.972,3.025c-0.67,0.628-1.1,0.26-1.869,0.075   c-0.967-0.233-1.051-0.082-2,0.044c-0.685,0.09-1.221-0.137-1.774,0.24c-0.514,0.35-0.889,1.044-1.357,1.472   c-1.265,1.155-2.554,1.548-3.975,2.399c-0.036-0.542,0.047-1.345,0.353-1.745c0.296-0.387,0.765-0.142,0.987-0.602   C9.185,41.134,7.829,41.3,7.378,40.15c0.464-0.154,0.916-0.354,1.352-0.547c0.047-0.864-0.161-3.171,1.395-2.354"></path></g></svg>