<svg height='100px' width='100px'  fill="#000000" xmlns="http://www.w3.org/2000/svg" viewBox="0 0 512 512" x="0px" y="0px"><title>military-Base-camp-house</title><path d="M193.329,227.222l-2.659-15.778A247.721,247.721,0,0,0,37.6,302.172l12.537,9.941A231.746,231.746,0,0,1,193.329,227.222Z"></path><path d="M43.487,320.916,30.5,311.578c-2.836,3.945-5.594,8.03-8.2,12.141l13.519,8.558C38.253,328.431,40.833,324.608,43.487,320.916Z"></path><path d="M240,240.161V200h40a8,8,0,0,0,8-8V152a8,8,0,0,0-8-8H240v-8H224V240.161A215.977,215.977,0,0,0,16,456v32a8,8,0,0,0,8,8H440a8,8,0,0,0,8-8V456A215.977,215.977,0,0,0,240,240.161ZM272,160v24H240V160ZM400,480H272V440a40,40,0,0,0-80,0v40H64V456c0-92.636,75.364-168,168-168s168,75.364,168,168Zm-144,0H208V440a24,24,0,0,1,48,0Zm176,0H416V456c0-101.458-82.542-184-184-184S48,354.542,48,456v24H32V456c0-110.28,89.72-200,200-200s200,89.72,200,200Z"></path><path d="M488,176H472V128h8a8,8,0,0,0,5.657-13.657l-72-72a8,8,0,0,0-11.314,0l-72,72A8,8,0,0,0,336,128h16v48H336a8,8,0,0,0-8,8v64h16V192h72V336h16V320h16v72h16V192h16V480H464v16h24a8,8,0,0,0,8-8V184A8,8,0,0,0,488,176Zm-40,0H432v-8a8,8,0,0,1,16,0ZM408,59.313,460.687,112H355.313ZM368,176V128h88v22.131A23.984,23.984,0,0,0,416,168v8Zm64,80h16v16H432Zm0-16V224h16v16Zm0,64V288h16v16Zm16-96H432V192h16Z"></path><path d="M160,408H128a8,8,0,0,0-8,8v32a8,8,0,0,0,8,8h32a8,8,0,0,0,8-8V416A8,8,0,0,0,160,408Zm-8,32H136V424h16Z"></path><path d="M336,408H304a8,8,0,0,0-8,8v32a8,8,0,0,0,8,8h32a8,8,0,0,0,8-8V416A8,8,0,0,0,336,408Zm-8,32H312V424h16Z"></path><path d="M294.06,320.239l-32,8a8,8,0,0,0-4.716,3.323L243.719,352H220.281l-13.625-20.438a8,8,0,0,0-5.087-3.407l-40-8-3.138,15.69,36.751,7.349,14.162,21.244A8,8,0,0,0,216,368h32a8,8,0,0,0,6.656-3.562l14.285-21.427,29-7.25Z"></path><rect x="224" y="312" width="16" height="16"></rect></svg>