<svg height='100px' width='100px'  fill="#000000" xmlns="http://www.w3.org/2000/svg" xmlns:xlink="http://www.w3.org/1999/xlink" version="1.1" x="0px" y="0px" viewBox="0 0 100 100" enable-background="new 0 0 100 100" xml:space="preserve"><g><path fill="none" stroke="#000000" stroke-linecap="round" stroke-linejoin="round" stroke-miterlimit="10" d="M67.856,20.088   c0.036,0.779-0.405,1.51-0.61,2.276c-0.56,2.097-1.152,4.175-1.497,6.376c-0.167,1.07-0.518,0.829-1.125,1.487   c-0.457,0.495-0.479,1.009-0.878,1.481c-1.062,1.253-2.086,0.154-3.28,0.772c-0.863,0.446-0.208,2.171-0.744,3.1   c-0.431,0.746-1.616,1.723-0.847,2.902c0.625,0.96,2.012,0.056,3.127,0.247c1.088,0.187,1.789,1.177,2.854,0.619   c-0.034-0.252,0.099-0.616,0.044-0.858c1.904,1.93,1.292,3.521,0.875,6.153c-0.221,1.398-0.133,2.778-0.4,4.184   c-0.258,1.355-0.53,2.696-0.82,4.044c-0.549,2.555-0.708,5.278-1.086,7.89c-0.155,1.072-0.264,2.319-0.587,3.344   c-0.438,1.387-1.524,2.396-2.287,3.622c-0.912,1.465-1.66,2.928-2.313,4.509c-0.671,1.625-2.324,2.819-3.756,3.878   c-0.577,0.427-1.178,1.103-1.785,1.394c-1.224,0.587-1.242,0.283-1.984,1.47c-0.571,0.911-1.347,1.359-2.011,2.165   c-0.556,0.672-0.457,1.053-0.766,1.807c-0.652,1.587-1.946,3.194-2.859,4.665c-0.692,1.114-1.518,2.489-2.397,3.46   c-0.975,1.076-2.565,1.401-2.979-0.097c-0.285-1.031,0.334-2.313,0.847-3.275c0.605-1.136,1.579-2.088,1.409-3.469   c-0.217-1.76-1.661-1.58-3.105-1.976c-0.431-0.117-1.229-0.543-1.644-0.53c-0.849,0.026-0.546,0.383-1.122,0.631   c-1.936,0.834-0.755-1.031-1.591-2.137c-0.505-0.669-1.677-0.454-2.43-0.832c-0.592-0.298-0.667-0.725-1.132-1.152   c-0.227-0.209-0.534-0.519-0.853-0.605c-0.322-0.089-0.353,0.475-0.623,0.36c-0.76-0.322-0.351-0.489-0.777-0.98   c-0.53-0.61-1.613-1.056-2.009-1.75c-0.525-0.922-0.296-1.566-1.096-2.032c-0.532-0.31-1.271,0.32-1.501-0.878   c-0.077-0.402,0.366-1.955,0.403-2.6c1.643-0.305-1.615-1.564-0.998-2.753c1.711-0.218,1.431-1.686,1.857-2.737   c0.38-0.938,0.807-2.086,1.873-2.746c1.207-0.748,1.675-1.405,3.115-1.535c1.623-0.147,3.151-1.102,4.74-1.013   c0.026-0.529-0.002-1.074,0.022-1.609c0.047-1.035-0.062-0.718,0.594-1.566c1.156-1.495,1.333-1.617,3.028-2.059   c0.958-0.249,0.981-0.755,1.75-1.255c0.662-0.431,1.329-0.438,2.034-0.995c0.552-0.437,0.907-0.982,1.619-1.127   c0.609-0.124,1.123,0.444,1.634-0.213c1.127-1.449-2.53-3.831-3.199-4.66c-0.579-0.717-0.938-1.872-1.458-2.503   c-0.155-0.188-0.585-0.142-0.757-0.366c-0.166-0.216-0.057-0.54-0.217-0.759c-0.364-0.495-0.44-0.778-1.059-1.091   c-0.631-0.318-1.669-0.002-2.078-0.656c-0.368-0.588,0.08-2.101-0.016-2.747c-0.158-1.069-1.4-4.338-2.625-2.112   c-1.317-1.081-1.059-6.067-0.104-7.377c1.201,1.092,2.195-1.739,2.113-2.744c0.391,0.032,0.829-0.062,1.219-0.038   c0.124-0.918-0.471-1.527-0.825-2.355c-0.309-0.725-0.245-1.827-1.015-2.272c0.37-1.06,0.814-1.03,1.733-1.45   c0.812-0.371,1.15-0.654,1.731-1.531c0.254-0.384,0.024-0.569,0.388-0.966c0.233-0.253,0.828-0.433,1.128-0.655   c0.73-0.544,1.048-0.964,1.35-1.903c0.456-1.42,0.731-3.477,1.875-4.472c0.757-0.658,3.158-1.831,4.153-1.376L67.856,20.088z"></path></g></svg>