<svg height='100px' width='100px'  fill="#000000" xmlns="http://www.w3.org/2000/svg" viewBox="0 0 64 64" x="0px" y="0px"><g><rect x="14" y="9" width="2" height="15"></rect><rect x="22" y="8" width="2" height="2"></rect><polygon points="22 24 22 25 22 26 24 26 24 24 22 24"></polygon><path d="M20,23a1,1,0,0,1,1-1h4a1,1,0,0,1,1,1v4a1,1,0,0,1-1,1H22v2H33v2H22v2H33a4.973,4.973,0,0,1,3,1V7a3,3,0,0,0-3-3H18V24h2ZM28,6h5V8H28Zm0,4h5v2H28Zm0,4h5v2H28Zm0,4h5v2H28Zm0,4h5v2H28Zm0,4h5v2H28ZM20,7a1,1,0,0,1,1-1h4a1,1,0,0,1,1,1v4a1,1,0,0,1-1,1H21a1,1,0,0,1-1-1Zm0,8a1,1,0,0,1,1-1h4a1,1,0,0,1,1,1v4a1,1,0,0,1-1,1H21a1,1,0,0,1-1-1Z"></path><rect x="22" y="16" width="2" height="2"></rect><path d="M20.126,38.485A.991.991,0,0,1,20,38V26H14V38a.991.991,0,0,1-.126.485L8.588,48H25.412Zm-6.253,8.2-1.746-.974,1.71-3.064,1.746.975Zm2.571-4.606L14.7,41.107l.891-1.594,1.746.974Z"></path><path d="M22,36v1.741l.144.259H35.816A3,3,0,0,0,33,36Z"></path><path d="M58,9V39a1,1,0,0,1-1,1H23.255l1.111,2H60V9Z"></path><path d="M26.523,50H7.477l-3.1,5.586A2.973,2.973,0,0,0,4,57.029a3.017,3.017,0,0,0,.06.6A2.978,2.978,0,0,0,6.971,60H27.029a2.978,2.978,0,0,0,2.911-2.373,3.017,3.017,0,0,0,.06-.6,2.973,2.973,0,0,0-.374-1.443ZM11,54H9V52h2Zm5,4H14V56h2Zm9-3H23V53h2Z"></path><path d="M38.184,38H56V36H41A3,3,0,0,0,38.184,38Z"></path><path d="M56,34V9H52a1,1,0,0,1-1-1V4H41a3,3,0,0,0-3,3V35a4.973,4.973,0,0,1,3-1Zm-2-6H50V26h4Zm0-8H47V18h7ZM41,6h8V8H41Zm0,4h8v2H41Zm0,4H54v2H41Zm0,4h4v2H41Zm0,4H54v2H41Zm0,4h7v2H41Zm0,4H54v2H41Z"></path><polygon points="53 5.414 53 7 54.586 7 53 5.414"></polygon><path d="M35.561,51a5.79,5.79,0,0,0,3.268,1H49V50H38.829A5.79,5.79,0,0,0,35.561,51Z"></path><path d="M59,50H58v2h1a1,1,0,0,0,0-2Z"></path><rect x="51" y="50" width="5" height="2"></rect></g></svg>