<svg height='100px' width='100px'  fill="#000000" xmlns="http://www.w3.org/2000/svg" data-name="Layer 1" viewBox="0 0 128 128" x="0px" y="0px"><title>expand lines</title><path d="M91,14H41a2,2,0,0,0,0,4H91a2,2,0,0,0,0-4Z"></path><path d="M91,22H41a2,2,0,0,0,0,4H91a2,2,0,0,0,0-4Z"></path><path d="M78,108a2,2,0,0,0-2,2v2a2,2,0,0,0,4,0v-2A2,2,0,0,0,78,108Z"></path><path d="M86,108a2,2,0,0,0-2,2v2a2,2,0,0,0,4,0v-2A2,2,0,0,0,86,108Z"></path><path d="M94,108a2,2,0,0,0-2,2v2a2,2,0,0,0,4,0v-2A2,2,0,0,0,94,108Z"></path><path d="M102,108a2,2,0,0,0-2,2v2a2,2,0,0,0,4,0v-2A2,2,0,0,0,102,108Z"></path><path d="M110,108a2,2,0,0,0-2,2v2a2,2,0,0,0,4,0v-2A2,2,0,0,0,110,108Z"></path><path d="M118,108a2,2,0,0,0-2,2v2a2,2,0,0,0,4,0v-2A2,2,0,0,0,118,108Z"></path><path d="M122,100H111V98.12c0-3.43-1.86-6-4.33-6h-.43a41.08,41.08,0,0,1,4.46-14l.14-.29a18.54,18.54,0,1,0-25.48.43l.14.29a40.75,40.75,0,0,1,4.27,13.55h-.43c-2.47,0-4.33,2.58-4.33,6V100H74a6,6,0,0,0-6,6v10a6,6,0,0,0,6,6v2a4,4,0,0,0,4,4h40a4,4,0,0,0,4-4v-2a6,6,0,0,0,6-6V106A6,6,0,0,0,122,100Zm-4,24H78v-2h40Zm6-8a2,2,0,0,1-2,2H74a2,2,0,0,1-2-2V106a2,2,0,0,1,2-2H89V98.12a3.33,3.33,0,0,1,.53-2h4.66L94,93.92a44.89,44.89,0,0,0-4.88-17.09l-.48-1-.31-.27a14.54,14.54,0,1,1,19.51-.35l-.27.25-.45.94A44.77,44.77,0,0,0,102,93.92l-.2,2.18h4.66a3.33,3.33,0,0,1,.53,2V104h15a2,2,0,0,1,2,2Z"></path><path d="M64,52A22,22,0,1,0,42,74,22,22,0,0,0,64,52ZM42,70A18,18,0,1,1,60,52,18,18,0,0,1,42,70Z"></path><path d="M91,30H55.83a26.17,26.17,0,0,1,4.9,4H91a2,2,0,0,0,0-4Z"></path><path d="M93,40a2,2,0,0,0-2-2H63.89A25.93,25.93,0,0,1,66,42H91A2,2,0,0,0,93,40Z"></path><path d="M85.09,46H67.29a25.88,25.88,0,0,1,.62,4H80.68A22.71,22.71,0,0,1,85.09,46Z"></path><path d="M67.29,58h9A22.45,22.45,0,0,1,78,54H67.92A25.88,25.88,0,0,1,67.29,58Z"></path><path d="M66,62a25.93,25.93,0,0,1-2.11,4H75.38c0-.47-.05-.94-.05-1.42A22.73,22.73,0,0,1,75.49,62Z"></path><path d="M15,16a2,2,0,0,1,2-2h6V34.28a26.19,26.19,0,0,1,4-3.5V6a2,2,0,0,1,2-2h74a2,2,0,0,1,2,2V43.16A22.32,22.32,0,0,1,109,45V6a6,6,0,0,0-6-6H29a6,6,0,0,0-6,6v4H17a6,6,0,0,0-6,6V67.55a27.15,27.15,0,0,1,4-1.87Z"></path><path d="M40.14,77.93a25.86,25.86,0,0,1-4-.59L33.1,98.19a6.11,6.11,0,0,0,1.82,5.42l4,4.2.17.16A4.74,4.74,0,0,0,45,108l4.18-4.36a5.92,5.92,0,0,0,1.73-5.42L47,77.51A25.94,25.94,0,0,1,43,78L47,99l0,.1a1.92,1.92,0,0,1-.48,1.55l-4.12,4.3a.79.79,0,0,1-.68,0l-4-4.15-.17-.16A2.16,2.16,0,0,1,37,98.88Z"></path><path d="M81.17,96a10.31,10.31,0,0,1,2.59-5.45c-1.55-11.83-10.37-21.12-21.41-22.4A26.23,26.23,0,0,1,58.59,72h1.14C70.91,72,80,82,80,94.28V96Z"></path><path d="M70.58,126.93a8,8,0,0,1-.31-.93,7.73,7.73,0,0,1-.17-.79A10,10,0,0,1,68,124H4a.44.44,0,0,1,0,0V94.28C4,82,13.09,72,24.27,72h1.14a26.23,26.23,0,0,1-3.76-3.85C9.48,69.57,0,80.73,0,94.28V124a3.9,3.9,0,0,0,3.74,4H71.09a8.13,8.13,0,0,1-.43-.87Z"></path><path d="M98,55A10,10,0,0,0,88,65a2,2,0,0,0,4,0,6,6,0,0,1,6-6,2,2,0,0,0,0-4Z"></path></svg>