<svg height='100px' width='100px'  fill="#000000" xmlns="http://www.w3.org/2000/svg" xmlns:xlink="http://www.w3.org/1999/xlink" version="1.1" x="0px" y="0px" viewBox="0 0 100 100" style="enable-background:new 0 0 100 100;" xml:space="preserve"><g><g><g><g><g><path d="M78.1,50.5c-3.1,0-5.6-2.5-5.6-5.6c0-0.6,0.5-1,1-1c0.6,0,1,0.5,1,1c0,2,1.6,3.6,3.6,3.6       c2,0,3.6-1.6,3.6-3.6c0-1.7-1.1-2.7-3.9-3.6c-1.3-0.4-5.3-1.7-5.3-5.6c0-3.1,2.5-5.6,5.6-5.6c3.1,0,5.6,2.5,5.6,5.6       c0,0.6-0.5,1-1,1c-0.6,0-1-0.5-1-1c0-2-1.6-3.6-3.6-3.6c-2,0-3.6,1.6-3.6,3.6c0,1.6,1.2,2.7,3.9,3.6c2.5,0.8,5.3,2.2,5.3,5.6       C83.7,48,81.2,50.5,78.1,50.5z"></path></g><g><path d="M78.1,32.1c-0.6,0-1-0.5-1-1v-2.6c0-0.6,0.5-1,1-1c0.6,0,1,0.5,1,1v2.6C79.1,31.6,78.7,32.1,78.1,32.1       z"></path></g><g><path d="M78.1,53.1c-0.6,0-1-0.5-1-1v-2.6c0-0.6,0.5-1,1-1c0.6,0,1,0.5,1,1v2.6C79.1,52.6,78.7,53.1,78.1,53.1       z"></path></g></g></g></g><g><g><g><path d="M61.4,100c-5.1,0-10.1-0.7-15.1-2c-1.6-0.4-2.7-1.9-2.7-3.5v-3.1c0-0.6,0.5-1,1-1c0.6,0,1,0.5,1,1v3.1      c0,0.7,0.5,1.3,1.2,1.5c9.5,2.5,19.6,2.5,29.1,0c0.7-0.2,1.2-0.8,1.2-1.5v-3.1c0-0.6,0.5-1,1-1c0.6,0,1,0.5,1,1v3.1      c0,1.6-1.1,3.1-2.7,3.5C71.5,99.3,66.4,100,61.4,100z"></path></g><g><path d="M61.4,90.4c-5.1,0-10.1-0.7-15.1-2c-1.6-0.4-2.7-1.9-2.7-3.5v-3.1c0-0.6,0.5-1,1-1c0.6,0,1,0.5,1,1v3.1      c0,0.7,0.5,1.3,1.2,1.5c9.5,2.5,19.6,2.5,29.1,0c0.7-0.2,1.2-0.8,1.2-1.5v-3.1c0-0.6,0.5-1,1-1c0.6,0,1,0.5,1,1v3.1      c0,1.6-1.1,3.1-2.7,3.5C71.5,89.8,66.4,90.4,61.4,90.4z"></path></g><g><path d="M61.4,80.9c-5.1,0-10.1-0.7-15.1-2c-1.6-0.4-2.7-1.9-2.7-3.5v-3.1c0-0.6,0.5-1,1-1c0.6,0,1,0.5,1,1v3.1      c0,0.7,0.5,1.3,1.2,1.5c9.5,2.5,19.6,2.5,29.1,0c0.7-0.2,1.2-0.8,1.2-1.5v-3.1c0-0.6,0.5-1,1-1c0.6,0,1,0.5,1,1v3.1      c0,1.6-1.1,3.1-2.7,3.5C71.5,80.2,66.4,80.9,61.4,80.9z"></path></g><g><path d="M61.4,72.4c-8.8,0-17.8-2-17.8-5.8c0-3.8,8.9-5.8,17.8-5.8c8.8,0,17.8,2,17.8,5.8      C79.1,70.4,70.2,72.4,61.4,72.4z M61.4,62.9c-10.2,0-15.7,2.5-15.7,3.7c0,1.3,5.5,3.7,15.7,3.7s15.7-2.5,15.7-3.7      C77.1,65.3,71.5,62.9,61.4,62.9z"></path></g></g></g><g><g><g><g><rect x="29.8" y="56" width="2.1" height="2.3"></rect></g></g><g><g><rect x="29.8" y="48.8" width="2.1" height="2.3"></rect></g><g><rect x="29.8" y="41.9" width="2.1" height="2.3"></rect></g></g><g><g><rect x="38.3" y="56" width="2.1" height="2.3"></rect></g></g><g><g><rect x="38.3" y="48.8" width="2.1" height="2.3"></rect></g><g><rect x="38.3" y="41.9" width="2.1" height="2.3"></rect></g></g><g><g><rect x="46.8" y="56" width="2.1" height="2.3"></rect></g></g><g><g><rect x="46.8" y="48.8" width="2.1" height="2.3"></rect></g><g><rect x="46.8" y="41.9" width="2.1" height="2.3"></rect></g></g></g><g><g><g><rect x="29.8" y="77.4" width="2.1" height="2.3"></rect></g></g><g><g><rect x="29.8" y="70.1" width="2.1" height="2.3"></rect></g><g><rect x="29.8" y="63.2" width="2.1" height="2.3"></rect></g></g><g><g><rect x="38.3" y="77.4" width="2.1" height="2.3"></rect></g></g><g><g><rect x="38.3" y="70.1" width="2.1" height="2.3"></rect></g><g><rect x="38.3" y="63.2" width="2.1" height="2.3"></rect></g></g></g><g><path d="M40.6,88.6H17.3c-0.6,0-1-0.5-1-1v-50c0-1.9,1.6-3.5,3.5-3.5h39.1c1.9,0,3.5,1.6,3.5,3.5v24.3     c0,0.6-0.5,1-1,1c-0.6,0-1-0.5-1-1V37.6c0-0.8-0.7-1.5-1.5-1.5H19.8c-0.8,0-1.5,0.7-1.5,1.5v49h22.3c0.6,0,1,0.5,1,1     C41.7,88.1,41.2,88.6,40.6,88.6z"></path></g><g><path d="M54,36.1c-0.6,0-1-0.5-1-1V22.3c0-0.6-0.5-1-1-1H26.7c-0.6,0-1,0.5-1,1v12.7c0,0.6-0.5,1-1,1s-1-0.5-1-1     V22.3c0-1.7,1.4-3.1,3.1-3.1H52c1.7,0,3.1,1.4,3.1,3.1v12.7C55,35.6,54.6,36.1,54,36.1z"></path></g><g><path d="M47.2,21.3c-0.6,0-1-0.5-1-1c0-3.8-3.1-6.8-6.8-6.8s-6.8,3.1-6.8,6.8c0,0.6-0.5,1-1,1c-0.6,0-1-0.5-1-1     c0-4.9,4-8.9,8.9-8.9s8.9,4,8.9,8.9C48.2,20.8,47.8,21.3,47.2,21.3z"></path></g><g><path d="M39.3,13.4c-0.6,0-1-0.5-1-1V1c0-0.6,0.5-1,1-1s1,0.5,1,1v11.4C40.4,13,39.9,13.4,39.3,13.4z"></path></g></g></g></svg>