<svg height='100px' width='100px'  fill="#000000" xmlns="http://www.w3.org/2000/svg" xmlns:xlink="http://www.w3.org/1999/xlink" version="1.1" x="0px" y="0px" viewBox="0 0 100 100" enable-background="new 0 0 100 100" xml:space="preserve"><path fill="#000000" d="M85.844,49.219c-0.223-0.294-0.587-0.443-0.939-0.587c-0.149-0.061-0.384-0.157-0.488-0.232  c0.028-0.105,0.101-0.277,0.147-0.389c0.136-0.324,0.265-0.63,0.22-0.93c-0.069-0.462-0.361-0.847-0.618-1.187  c-0.198-0.261-0.402-0.53-0.426-0.738c-0.021-0.186,0.33-0.606,0.587-0.913c0.493-0.589,1.107-1.323,0.902-2.167  c-0.036-0.156-0.05-0.169-0.405-0.489l-0.081-0.074c0.017-0.121,0.066-0.28,0.112-0.425c0.108-0.345,0.231-0.736,0.118-1.128  c-0.127-0.454-0.453-0.778-0.74-1.063C83.87,38.54,83.668,38.321,83.711,38c0.025-0.181,0.21-0.467,0.372-0.72  c0.283-0.438,0.575-0.892,0.541-1.399c-0.078-1.131-1.179-1.826-2.149-2.439c-0.653-0.412-1.328-0.839-1.47-1.261  c-0.195-0.582,0.107-0.857,0.897-1.39c0.309-0.208,0.628-0.424,0.854-0.694c0.355-0.422,1.027-2.431,1.062-2.922  c0.007-0.112,0.002-0.261-0.013-0.433l-0.017-0.152c-0.013-0.113-0.027-0.232-0.047-0.362l-0.106-0.626  c-0.001-0.003-0.02-0.104-0.021-0.107c0-0.002-0.019-0.1-0.019-0.102l-0.119-0.598c0-0.001-0.021-0.1-0.021-0.101l-0.179-0.853  c-0.106-0.505-0.215-1.026-0.318-1.545c-0.054-0.273-0.105-0.54-0.151-0.799c-0.019-0.104-0.069-0.198-0.144-0.27  c0.021-0.062,0.037-0.125,0.045-0.189c0.005-0.035,0.005-0.071,0.002-0.106c-0.001-0.009-0.017-0.119-0.018-0.128  c-0.016-0.104-0.063-0.2-0.137-0.275c-0.094-0.097-0.305-0.185-0.44-0.185c-0.288,0-0.458,0.18-0.57,0.352  c-0.697-0.14-1.102-0.493-1.322-0.778c-0.307-0.395-0.372-0.79-0.359-0.881c0.051-0.281-0.056-0.674-0.284-1.345l-0.059-0.175  c-0.071-0.231-0.299-1.017-0.434-1.484c-0.063-0.22-0.108-0.374-0.115-0.392c-0.071-0.198-0.291-0.347-0.501-0.347  c-0.15,0-0.273,0.058-0.404,0.118c-0.062,0.029-0.135,0.066-0.283,0.092c-0.073,0-0.148-0.009-0.224-0.017  c-0.168-0.018-0.246-0.083-0.622,0.013c-0.078-0.187-0.186-0.359-0.354-0.48c-0.131-0.093-0.273-0.186-0.421-0.281  c-0.887-0.575-1.462-1.019-1.384-1.921c0.027-0.332-0.179-0.551-0.302-0.682c-0.118-0.126-0.123-0.145-0.121-0.175  c0.015-0.141-0.033-0.288-0.128-0.393c-0.095-0.104-0.242-0.168-0.384-0.168c-0.098,0-0.193,0.018-0.438,0.135  c-0.044-0.133-0.129-0.258-0.231-0.328c-0.188-0.129-0.436-0.162-0.717-0.145l-0.136,0.004l-1.434-0.13  c-0.083-0.154-0.268-0.473-0.668-0.473c-0.482,0.006-0.814,0.523-1.408,1.514c-0.166,0.276-0.393,0.655-0.472,0.732  c-0.125,0.105-0.385,0.2-0.637,0.292c-0.457,0.167-1.002,0.366-1.316,0.808c-0.08-0.004-0.174-0.005-0.285-0.005  c-0.593,0-2.408,0.074-2.698,0.163c-0.463,0.137-1.003,0.823-2.037,2.6c-0.464-0.411-0.495-0.434-0.653-0.435  c-0.118-0.011-0.194,0.009-0.27,0.04c-0.025-0.268-0.103-0.639-0.513-0.902c-0.52-0.334-1.258-0.029-1.817,0.282  c-0.172,0.096-0.433,0.24-0.438,0.269c-0.682-0.315-0.791-0.516-0.803-0.516c0.091-0.247,1.073-0.67,1.493-0.851  c0.744-0.32,1.175-0.517,1.36-0.836c0.269-0.464,0.23-0.861,0.199-1.181c-0.032-0.335-0.057-0.577,0.264-0.996  c0.117-0.154,0.392-0.516,0.209-0.883c-0.101-0.203-0.31-0.324-0.559-0.324c-0.35,0-0.888,0.238-1.735,0.625  c-0.411,0.188-0.87,0.398-1.07,0.474c-0.148-0.104-0.415-0.319-0.638-0.5c-1.022-0.827-1.791-1.418-2.361-1.487  c-0.19-0.024-0.349-0.016-0.491,0.012c0.001-0.014,0.001-0.027,0.001-0.042c0.001-0.19-0.072-0.369-0.204-0.501  c-0.243-0.243-0.615-0.271-0.875-0.271c-0.068,0-0.139,0.002-0.211,0.006c0.051-0.049,0.094-0.102,0.128-0.162  c0.362-0.636,0.098-2.891-0.41-3.497c-0.058-0.068-0.132-0.12-0.215-0.15l-0.286-0.104c-0.151-0.054-0.32-0.035-0.456,0.057  c-0.059,0.04-0.108,0.092-0.144,0.151c-0.04-0.036-0.077-0.07-0.108-0.1c-0.172-0.162-0.335-0.314-0.578-0.433l-0.841-0.293  c-0.196-0.144-0.483-0.132-0.757-0.061c-0.121-0.128-0.292-0.178-0.468-0.131c-0.561-0.015-1.222-0.385-1.862-0.743  c-0.579-0.324-1.178-0.659-1.788-0.791c-0.08-0.017-0.18-0.033-0.301-0.047C44.046,2.229,43.9,2.215,43.744,2.2  c-0.402-0.04-0.903-0.089-1.244-0.185c-0.128-0.036-0.267-0.021-0.383,0.045c-0.116,0.065-0.202,0.173-0.238,0.302l-0.122,0.489  c-0.001,0.005-0.025,0.13-0.026,0.135c-0.009,0.047-0.019,0.1-0.022,0.134c-0.011,0.084-0.015,0.156-0.012,0.207  c0.042,0.999,0.367,1.348,0.711,1.718c0.143,0.154,0.291,0.312,0.442,0.55c0.047,0.074,0.078,0.167,0.089,0.253  c-0.124,0.057-0.276,0.167-0.316,0.389c-0.034,0.185,0.054,0.396,0.205,0.51c0.142,0.108,0.29,0.196,0.435,0.282  c0.377,0.224,0.585,0.347,0.667,0.83c0.015,0.09,0.006,0.141-0.004,0.152c-0.011,0.013-0.127,0.13-0.71,0.13  c-0.27,0-0.553-0.023-0.811-0.044c-0.577-0.046-0.959-0.057-1.195,0.066c-0.147,0.077-0.29,0.273-0.308,0.438  c-0.012,0.105,0.004,0.198,0.039,0.28c-0.115,0.051-0.195,0.125-0.249,0.192c-0.219,0.27-0.269,0.585-0.136,0.865  c0.25,0.524,1.064,0.683,1.619,0.729c-0.135,0.172-0.238,0.41-0.26,0.751c-0.049,0.772,0.206,1.141,0.853,1.233  c0.124,0.018,0.215,0.031,0.302,0.113c-0.111-0.027-0.226-0.045-0.338-0.045c-0.371,0-0.566,0.199-0.648,0.317  c-0.222,0.316-0.199,0.774,0.076,1.53c0.064,0.18,0.155,0.344,0.28,0.506c0.031,0.041,0.066,0.076,0.118,0.126  c0.047,0.049,0.095,0.097,0.145,0.141c-0.168-0.009-0.354-0.027-0.572-0.057c-0.145-0.021-0.367-0.228-0.545-0.395  c-0.288-0.27-0.614-0.575-1.043-0.575c-0.196,0-0.381,0.063-0.547,0.188c-0.526,0.39-1.256,2.029-1.367,2.37  c-0.143,0.438-0.081,0.822,0.024,1.154c-0.065-0.123-0.157-0.277-0.319-0.457c-0.227-0.25-0.479-0.303-0.649-0.303  c-0.445,0-0.79,0.338-1.009,0.681c-0.049-0.073-0.1-0.139-0.148-0.201c-0.125-0.162-0.232-0.302-0.283-0.492  c-0.002-0.028,0.014-0.112,0.025-0.167c0.042-0.21,0.104-0.529-0.096-0.83c-0.438-0.658-3.536-0.691-4.152-0.691  c-2.078,0-3.374,0.277-3.851,0.824c-0.187,0.214-0.266,0.47-0.229,0.742c0.02,0.146,0.084,0.26,0.168,0.355  c-0.489,0.349-1.144,0.897-1.207,1.616c-0.024,0.284,0.037,0.711,0.471,1.134c0.12,0.117,0.289,0.204,0.547,0.281  c0.025,0.007,0.119,0.02,0.145,0.023c0.085,0.003,0.19,0.011,0.242,0.043c0.05,0.03,0.106,0.052,0.164,0.063l0.142,0.025  c-0.043,0.065-0.078,0.128-0.106,0.188c-0.072,0.082-0.115,0.186-0.123,0.294c-0.084,1.164-0.911,3.144-1.48,4.117  c-0.058,0.096-0.112,0.182-0.153,0.236c-0.156,0.2-0.268,0.561-0.502,1.397c-0.084,0.301-0.212,0.756-0.308,1.016  c-0.159-0.039-0.342-0.118-0.521-0.195c-0.323-0.139-0.688-0.296-1.121-0.3c-0.259,0-0.742,0-0.948,0.372  c-0.183,0.333,0.014,0.646,0.121,0.814c0,0,0,0.001,0.001,0.001c-0.261,0.079-0.587,0.221-0.719,0.573  c-0.107,0.287-0.041,0.61,0.198,0.959c0.211,0.31,1.8,1.141,2.292,1.141c0.002,0,0.005,0,0.007,0c0.058-0.01,0.11-0.027,0.157-0.05  c0.057,0.568-0.113,1.587-0.29,1.849c-0.299,0.423-0.885,0.625-1.505,0.837c-0.5,0.171-1.016,0.348-1.415,0.667  c-0.236,0.188-0.294,0.407-0.302,0.558c-0.02,0.395,0.276,0.684,0.537,0.938c0.084,0.083,0.214,0.209,0.277,0.296  c-0.061,0.046-0.192,0.125-0.454,0.219c-0.248,0.087-1.974,0.342-2.575,0.342c-0.117-0.021-0.332-0.244-0.489-0.408  c-0.281-0.292-0.599-0.623-1.039-0.699c-0.423-0.072-0.771,0.322-0.967,0.597c-0.085-0.016-0.171-0.03-0.329-0.053  c-0.089-0.023-0.201-0.053-0.329-0.053c-0.233,0-0.389,0.099-0.481,0.184c-0.643,0.602-0.228,1.64,0.253,2.843  c0.448,1.122,1.005,2.518,0.573,3.362c-0.101,0.197-0.352,0.407-0.595,0.609c-0.349,0.292-0.744,0.622-0.917,1.084  c-0.071,0.189-0.027,0.366,0.02,0.553c0.071,0.284,0.119,0.536-0.005,0.736c-0.123,0.197-0.417,0.357-0.795,0.459  c-0.003-0.003-0.007-0.007-0.011-0.011c-0.122-0.124-0.307-0.311-0.593-0.311c-0.098,0-0.259,0.05-0.341,0.104  c-0.284,0.187-0.426,0.415-0.423,0.677c0.006,0.423,0.374,0.65,0.73,0.87c0.65,0.402,0.927,0.665,0.83,1.123  c-0.086,0.063-0.205,0.15-0.324,0.237c-0.582,0.424-0.582,0.424-0.631,0.554c-0.123,0.296-0.021,0.565,0.039,0.726  c0.013,0.035,0.028,0.068,0.035,0.102c0.007,0.038,0.018,0.075,0.033,0.11l0.053,0.123c0.117,0.256,0.393,0.666,0.713,1.14  c0.204,0.303,0.493,0.73,0.625,0.966c-0.014,0.013-0.028,0.025-0.041,0.037c-0.167,0.151-0.478,0.435-0.391,0.868  c0.105,0.53,0.494,0.78,0.778,0.962c0.316,0.203,0.39,0.272,0.393,0.492c0.001,0.09-0.013,0.177-0.069,0.349  c-0.037,0.094-0.078,0.17-0.141,0.247c-0.06,0.075-0.128,0.145-0.203,0.211l0.33,0.375l-0.418-0.3  c-0.079,0.063-0.16,0.127-0.244,0.188l-0.261,0.182c-0.36,0.247-0.768,0.528-1.16,0.96c-0.146,0.17-0.263,0.337-0.356,0.511  c-0.008,0.015-0.017,0.03-0.023,0.047h0.001c-0.022,0.042-0.043,0.091-0.088,0.196c-0.029,0.065-0.058,0.131-0.078,0.193  c-0.017,0.051-0.03,0.106-0.042,0.163l0.337,0.073c0.01,0.012,0.02,0.023,0.03,0.033l-0.393,0.002  c-0.018,0.072-0.036,0.144-0.046,0.216c-0.009,0.061-0.014,0.129-0.017,0.195l0.5,0.023l-0.507,0.089  c-0.007,0.08-0.013,0.159-0.011,0.238c0.001,0.188,0.017,0.385,0.048,0.601c0.277,1.838,1.77,2.546,2.487,2.886  c0.122,0.058,0.274,0.133,0.259,0.093c0.213,0.34-0.088,0.698-0.891,1.427c-0.741,0.673-1.757,1.595-1.046,2.69  c0.019,0.028,0.04,0.055,0.063,0.079c0.078,0.079,0.078,0.079,1.071,0.45l0.034,0.013c0.111,0.183,0.271,0.699,0.391,1.087  c0.275,0.89,0.618,1.998,1.227,2.699c0.128,0.146,0.308,0.228,0.504,0.228c0.243,0,0.446-0.118,0.661-0.243  c0.264-0.155,0.501-0.345,0.747-0.061l-0.101,0.617c-0.03,0.187,0.047,0.374,0.2,0.485c0.421,0.308,1.24,0.205,2.164,0.033  c0.445-0.082,0.905-0.167,1.238-0.167c0.174,0,0.251,0.03,0.26,0.019c0.013,0.048,0.014,0.161,0.015,0.238  c0.003,0.235,0.007,0.558,0.216,0.835c0.705,0.935,1.821,1.084,2.806,1.217c0.935,0.125,1.75,0.234,2.278,0.877  c-0.286,0.413-1.372,1.342-2.046,1.918c-1.04,0.889-1.637,1.41-1.828,1.773c-0.296,0.565-0.411,1.18-0.522,1.773  c-0.099,0.53-0.192,1.03-0.404,1.487c-0.158,0.337-0.443,0.648-0.746,0.979c-0.299,0.326-0.609,0.664-0.832,1.067  c-0.465,0.845-0.376,1.297-0.274,1.82c0.022,0.112,0.046,0.233,0.066,0.372c0.064,0.45-0.308,1.113-0.668,1.755  c-0.356,0.635-0.725,1.291-0.78,1.924c-0.014,0.164,0.223,1.489,0.55,1.76c0.015,0.012,0.032,0.024,0.052,0.037  c0.019,0.132,0.074,0.229,0.117,0.286c0.236,0.316,0.736,0.292,1.341,0.17c0.219-0.044,0.473-0.098,0.68-0.09  c0.08,0.013,0.139,0.058,0.275,0.176c0.171,0.148,0.405,0.351,0.779,0.408c0.467,0.067,0.938-0.112,1.374-0.288  c0.278-0.113,0.525-0.241,0.844-0.227c0.15,0.022,0.371,0.188,0.583,0.347c0.362,0.271,0.813,0.608,1.384,0.608  c0.277,0,0.551-0.08,0.815-0.238c0.204-0.121,0.278-0.3,0.296-0.479c0.448,0.065,0.473,0.067,0.511,0.067  c0.077-0.013,0.188-0.025,0.269-0.076c0.358-0.225,0.37-0.507,0.345-0.654c-0.006-0.035-0.014-0.068-0.025-0.1  c0.228,0.36,0.677,0.454,1.058,0.311l0.169,0.348c0.044,0.09,0.114,0.165,0.201,0.215c0.175,0.101,0.395,0.127,0.635,0.109  l0.119-0.003l2.159,0.152c0.012,0.001,0.112,0.004,0.124,0.004l0.107-0.002l0.082-0.501l0.082,0.504  c0.395,0.153,0.752,0.519,1.131,0.905c0.425,0.433,0.864,0.881,1.437,1.118c0.622,0.259,1.295,0.086,1.729-0.177  c0.04,0.148,0.123,0.295,0.29,0.407c0.318,0.208,0.749,0.099,0.983-0.006c0.004-0.003,0.009-0.005,0.014-0.007  c0.178,0.298,0.49,0.828,0.663,1.124c-0.105,0.155-0.322,0.521-0.056,0.878c0.173,0.235,0.363,0.466,0.613,0.547  c-0.08,0.13-0.139,0.271-0.159,0.424c-0.018,0.143,0.027,0.287,0.123,0.396c0.095,0.106,0.24,0.17,0.383,0.17  c0.274,0,2.633-0.595,3.205-1.855c0.09-0.197,0.1-0.47,0.082-1.027c0.307,0.081,0.621,0.081,0.813,0.081  c0.181,0,0.371-0.007,0.564-0.014c0.452-0.017,0.908-0.015,1.14,0.028c-0.027,0.043-0.049,0.093-0.066,0.15  c-0.058,0.199,0.013,0.414,0.179,0.539l0.471,0.354l0.034,0.612c0.007,0.139,0.072,0.268,0.179,0.356  c0.17,0.142,0.452,0.236,1.274,0.236c0.026,0,2.637-0.028,3.112-0.473c0.209-0.192,0.252-0.446,0.262-0.641l0.838,0.091  c0.107,0.012,0.214-0.011,0.307-0.065c0.314-0.184,0.443-0.498,0.537-0.729c0.024-0.06,0.058-0.141,0.085-0.192  c0.004,0.001,0.009,0.003,0.014,0.005c0.087,0.023,0.175,0.045,0.256,0.054l0.528,0.055c0.938,0.099,1.855,0.13,2.709,0.148  l1.083,0.02c0.056,0,0.111-0.01,0.164-0.027c0.418-0.146,0.394-0.586,0.374-0.94c-0.004-0.068-0.01-0.173-0.014-0.278  c0.074,0.105,0.177,0.202,0.325,0.263c0.256,0.104,0.475,0.064,0.652,0.085c0.016,0.001,0.089,0.004,0.104,0.004l0.123-0.025  c0.06,0.109,0.138,0.254,0.207,0.381c0.201,0.372,0.284,0.524,0.484,0.563c0.404,0.15,0.946,0.036,1.433-0.099  c0.336-0.092,0.736-0.155,0.815-0.127c0.018,0.006,0.033,0.012,0.047,0.018c-0.013,0.031-0.026,0.064-0.038,0.092  c-0.114,0.267-0.328,0.763,0.059,1.23c0.306,0.371,1.103,1.232,1.87,1.232c0.351,0,0.653-0.172,0.852-0.483  c0.62-0.975,0.801-1.756,0.551-2.39c-0.262-0.664-0.92-0.923-1.335-1.043c0.104-0.12,0.271-0.268,0.366-0.353  c0.297-0.264,0.553-0.491,0.592-0.82c0.089-0.739-0.508-1.444-1.084-2.126c-0.384-0.453-0.908-1.073-0.868-1.335  c0.223-0.382,2.22-1.057,3.18-1.381c1.046-0.353,1.702-0.58,2.019-0.8c0.779-0.544,0.812-1.324,0.836-1.895  c0.015-0.352,0.027-0.655,0.168-0.862c0.132,0.002,0.489,0.289,0.682,0.443c0.478,0.384,0.993,0.718,1.442,0.524  c0.128-0.055,0.246-0.142,0.42-0.324c0.084-0.098,0.163-0.214,0.262-0.398c0.429-0.837,0.575-2.183,0.593-2.783  c0.003-0.201,0.001-0.381-0.014-0.504c-0.093-0.692-1.99-3.106-2.895-2.904c-0.062,0.014-0.128,0.037-0.191,0.079  c-0.008-0.063-0.013-0.124-0.018-0.169c-0.022-0.25-0.042-0.467-0.18-0.642c-0.262-0.333-0.653-0.506-0.998-0.657  c-0.237-0.104-0.482-0.213-0.6-0.341c-0.201-0.221-0.331-0.602-0.469-1.004c-0.168-0.489-0.341-0.995-0.691-1.394  c-0.402-0.456-0.934-0.7-1.447-0.937c-0.539-0.247-1.048-0.481-1.355-0.938c-0.32-0.478-0.554-1.161-0.78-1.821  c-0.189-0.555-0.387-1.129-0.618-1.562l-0.238-0.638c0.094-0.094,0.246-0.207,0.358-0.29c0.44-0.327,1.043-0.774,0.971-1.519  c0-0.226-0.056-0.29-0.392-0.546c0.14-0.235,0.065-0.451,0.012-0.557c-0.11-0.212-0.32-0.333-0.574-0.333  c-0.059,0-0.123,0.008-0.229,0.025c-0.249-0.233-0.747-0.917-1.184-1.59c0.075,0.021,0.15,0.032,0.225,0.032  c0.72,0,0.902-0.853,1.001-1.312c0.019-0.089,0.024-0.149,0.018-0.149c0.321-0.489,2.42-1.541,3.047-1.546  c0.062,0.019,0.236,0.129,0.352,0.202c0.343,0.218,0.731,0.464,1.144,0.464c0.216,0,0.416-0.07,0.575-0.201  c0.301-0.245,0.33-0.612,0.349-0.855c0.001-0.014,0.003-0.029,0.004-0.045c0.083,0.021,0.167,0.039,0.247,0.046  c0.039,0.004,0.079,0.017,0.12,0.028c0.2,0.053,0.519,0.095,0.756-0.033c0.191-0.102,0.358-0.307,0.59-0.59  c0.193-0.237,0.565-0.692,0.8-0.833l0.133,0.098c0.428,0.317,0.439,0.326,0.594,0.326c0.049,0.001,0.123-0.008,0.183-0.029  c0.423-0.153,0.605-0.59,0.767-0.977c0.061-0.146,0.162-0.39,0.21-0.435c0.164-0.087,0.567-0.033,0.923,0.023  c0.537,0.088,1.062,0.125,1.43-0.023c0.166-0.066,0.179-0.071,0.487-0.674c0.266-0.091,0.618-0.145,0.961-0.197  c0.41-0.062,0.834-0.126,1.209-0.262c0.104-0.038,0.261-0.079,0.436-0.126c0.689-0.185,1.199-0.337,1.473-0.624  c0.214-0.222,0.25-0.452,0.244-0.606c-0.015-0.33-0.225-0.57-0.436-0.765c0.011-0.002,0.022-0.004,0.033-0.007  c0.08-0.015,0.16-0.04,0.24-0.066c0.04-0.014,0.102-0.034,0.085-0.039c0.271,0.062,0.376,0.119,0.398,0.118  c-0.006,0.043-0.027,0.122-0.042,0.177c-0.061,0.221-0.152,0.554-0.011,0.91c0.071,0.179,0.239,0.301,0.432,0.313l0.204,0.014  c-0.004,0.326,0.03,0.763,0.332,1.077c0.197,0.205,0.559,0.463,1.412,0.257c0.11-0.033,0.264-0.162,0.327-0.258l0.183-0.314  c0.003-0.005,0.068-0.135,0.07-0.14l0.074-0.153c0.008-0.015,0.016-0.029,0.022-0.044l1.018-2.399  c0.001-0.001,0.053-0.137,0.053-0.137l0.151-0.394l-0.468-0.177l0.504,0.083l0.063-0.168c0,0,0.044-0.118,0.044-0.119l0.312-0.897  l-0.478-0.146l0.522,0.006l0.101-0.355c0.001-0.007,0.023-0.108,0.025-0.115c0.023-0.116,0.031-0.194,0.027-0.243  C86.686,51.653,86.271,49.776,85.844,49.219z M37.65,18.31c0.072,0.091,0.11,0.167,0.153,0.253c0.03,0.061,0.061,0.119,0.095,0.176  c-0.088-0.108-0.222-0.196-0.406-0.22C37.541,18.437,37.598,18.359,37.65,18.31z M36.601,19.395  c0.097,0.079,0.212,0.128,0.345,0.146c-0.062,0.114-0.139,0.224-0.199,0.277c-0.085-0.159-0.23-0.254-0.391-0.341  C36.454,19.462,36.535,19.432,36.601,19.395z M29.873,91.264c-0.034,0.105-0.031,0.22,0.007,0.324  c0.007,0.019,0.014,0.036,0.021,0.055c-0.179-0.243-0.551-0.328-0.995-0.431c-0.123-0.028-0.299-0.068-0.458-0.113  c0.111-0.05,0.219-0.104,0.314-0.166c0.338-0.225,1.08-0.39,1.289-0.23L29.873,91.264z M86.041,52.9l-0.513-0.038l-0.285,0.812  l0.469,0.173L85.2,53.791l-0.098,0.258c0,0-0.036,0.096-0.037,0.097l-0.108,0.282l0.465,0.184l-0.516-0.051l-1.008,2.371l0.401,0.2  l-0.001,0.002l-0.407-0.187l-0.069,0.142l0.448,0.22l-0.504-0.109l-0.061,0.107c-0.155,0.022-0.251-0.008-0.258-0.016  c-0.065-0.069-0.053-0.398-0.048-0.522c0.009-0.215,0.016-0.4-0.08-0.573c-0.083-0.148-0.234-0.245-0.404-0.257l-0.18-0.012  c0.063-0.231,0.155-0.578-0.047-0.919c-0.174-0.291-0.497-0.479-1.043-0.607c-0.039-0.009-0.16-0.023-0.2-0.023  c-0.171,0-0.315,0.048-0.431,0.087c-0.04,0.013-0.079,0.027-0.115,0.034c-0.505,0.095-0.988,0.242-1.105,0.675  c-0.118,0.435,0.22,0.729,0.467,0.946c0.039,0.033,0.089,0.077,0.135,0.12c-0.229,0.103-0.653,0.216-0.881,0.276  c-0.209,0.056-0.396,0.106-0.519,0.151c-0.281,0.102-0.655,0.159-1.018,0.214c-0.481,0.073-0.979,0.148-1.384,0.34  c-0.101,0.047-0.182,0.126-0.232,0.225c0,0-0.116,0.228-0.205,0.399c-0.197,0.023-0.485-0.024-0.747-0.068  c-0.593-0.095-1.16-0.125-1.54,0.075c-0.36,0.183-0.527,0.584-0.675,0.938c-0.026,0.062-0.059,0.14-0.09,0.213  c-0.389-0.287-0.399-0.284-0.599-0.286c-0.673,0.059-1.208,0.714-1.639,1.24c-0.082,0.101-0.188,0.23-0.258,0.305  c-0.02-0.005-0.038-0.011-0.058-0.016c-0.099-0.026-0.198-0.05-0.294-0.058c-0.037-0.003-0.076-0.018-0.115-0.027  c-0.207-0.057-0.546-0.094-0.775,0.043c-0.386,0.224-0.419,0.648-0.439,0.901c-0.002,0.035-0.006,0.078-0.01,0.117  c-0.148-0.052-0.386-0.202-0.524-0.291c-0.286-0.181-0.533-0.338-0.857-0.353c-0.922,0-3.376,1.172-3.912,1.992  c-0.013,0.019-0.023,0.037-0.034,0.057c-0.25-0.342-0.727-0.58-1.182-0.58c-0.576,0-0.984,0.376-1.04,0.956  c-0.07,0.716,1.978,3.633,2.585,4.046c0,0.007,0,0.015,0,0.021c0,0.251,0.068,0.303,0.515,0.639l0.08,0.061  c-0.077,0.148-0.267,0.297-0.531,0.493c-0.322,0.239-0.655,0.487-0.79,0.874c-0.038,0.11-0.036,0.23,0.004,0.339l0.351,0.926  c0.222,0.423,0.397,0.936,0.583,1.479c0.247,0.721,0.503,1.467,0.896,2.055c0.465,0.691,1.157,1.009,1.769,1.29  c0.438,0.201,0.852,0.392,1.114,0.689c0.219,0.248,0.354,0.64,0.495,1.055c0.164,0.481,0.335,0.979,0.677,1.354  c0.26,0.285,0.618,0.442,0.935,0.582c0.22,0.097,0.446,0.196,0.57,0.312c0.007,0.047,0.01,0.104,0.016,0.164  c0.035,0.381,0.128,1.394,1.066,1.394c0.019,0,0.114-0.005,0.133-0.007c0.112-0.013,0.273-0.061,0.39-0.23  c0.545,0.447,1.441,1.556,1.519,1.871c0.01,0.084,0.008,0.215,0.005,0.355c-0.021,0.724-0.197,1.793-0.501,2.385  c-0.03,0.058-0.062,0.106-0.126,0.181c-0.125-0.068-0.331-0.234-0.464-0.341c-0.406-0.326-0.826-0.663-1.308-0.663  c-0.211,0-0.516,0.067-0.77,0.39c-0.356,0.452-0.378,0.972-0.397,1.432c-0.022,0.546-0.053,0.867-0.408,1.115  c-0.216,0.149-1.04,0.428-1.768,0.673c-2.291,0.773-3.692,1.303-3.831,2.116c-0.134,0.763,0.481,1.489,1.076,2.192  c0.397,0.47,0.892,1.055,0.882,1.271c-0.034,0.055-0.188,0.191-0.29,0.282c-0.384,0.34-1.098,0.974-0.655,1.717  c0.119,0.199,0.31,0.248,0.512,0.3c0.271,0.07,0.726,0.188,0.846,0.494c0.119,0.301-0.046,0.829-0.468,1.506l-0.004,0.5v-0.5  c-0.183,0-0.655-0.332-1.092-0.839c0.001-0.041,0.052-0.159,0.082-0.229c0.094-0.22,0.236-0.552,0.082-0.9  c-0.109-0.248-0.333-0.428-0.683-0.549c-0.136-0.047-0.28-0.069-0.443-0.069c-0.32,0-0.648,0.091-0.965,0.178  c-0.259,0.071-0.562,0.139-0.708,0.142l-0.064-0.119c-0.371-0.684-0.416-0.766-0.579-0.808c-0.173-0.08-0.338-0.08-0.398-0.08  l-0.24,0.009c-0.091-0.009-0.175-0.009-0.285-0.009c-0.004-0.014-0.008-0.026-0.013-0.04c-0.06-0.188-0.2-0.632-0.671-0.676  c-0.016-0.001-0.099-0.005-0.114-0.005c-0.27,0-0.503,0.096-0.676,0.278c-0.333,0.353-0.327,0.904-0.305,1.337l-0.598-0.011  c-0.83-0.018-1.723-0.048-2.623-0.143l-0.526-0.055c-0.032-0.004-0.065-0.015-0.099-0.024c-0.184-0.051-0.492-0.088-0.703,0.022  c-0.35,0.175-0.486,0.508-0.586,0.751c-0.017,0.042-0.04,0.1-0.062,0.148l-0.643-0.077c-0.164-0.049-0.477-0.092-0.703,0.055  c-0.336,0.229-0.342,0.612-0.345,0.819c0,0.01,0,0.021-0.001,0.032c-0.397,0.097-1.458,0.218-2.375,0.218  c-0.216,0-0.371-0.008-0.475-0.014l-0.026-0.479c-0.008-0.147-0.081-0.283-0.198-0.372l-0.051-0.038  c0.038-0.104,0.05-0.224,0.029-0.321c-0.229-1.067-1.47-1.067-1.937-1.067c-0.193,0-0.392,0.007-0.588,0.014  c-0.181,0.007-0.359,0.014-0.528,0.014c-0.56,0-0.671-0.083-0.682-0.091c-0.075-0.206-0.215-0.59-0.61-0.59  c-0.136,0-0.279,0.062-0.374,0.16c-0.198,0.206-0.188,0.457-0.157,1.201c0.012,0.287,0.031,0.768,0.018,0.853  c-0.156,0.345-0.652,0.651-1.149,0.877c0.022-0.091,0.027-0.186,0.008-0.287c-0.039-0.198-0.167-0.362-0.357-0.459  c-0.242-0.125-0.473-0.16-0.66-0.125c0.014-0.054,0.023-0.112,0.024-0.175c0-0.195-1.037-1.944-1.167-2.011  c-0.267-0.175-0.618-0.146-0.853-0.052c0.009-0.24-0.033-0.578-0.375-0.756c-0.265-0.135-0.543,0.011-0.773,0.2  c-0.273,0.225-0.729,0.566-1.191,0.376c-0.384-0.159-0.735-0.517-1.105-0.895c-0.437-0.445-0.888-0.905-1.484-1.138  c-0.166-0.063-0.324-0.071-0.443-0.071c-0.004,0-0.103,0.001-0.107,0.001l-2.289-0.151c-0.014-0.001-0.087-0.004-0.101-0.004  c-0.038,0-0.076,0.001-0.143,0.012l-0.256-0.525c-0.022-0.046-0.052-0.088-0.087-0.125c-0.159-0.168-0.46-0.192-0.651-0.113  l0.083-0.26c0.041-0.127,0.028-0.265-0.034-0.383c-0.256-0.491-0.726-0.761-1.323-0.761c-0.582,0-1.18,0.26-1.516,0.483  c-0.065,0.043-0.143,0.075-0.219,0.108c-0.245,0.109-0.581,0.259-0.744,0.621c-0.096,0.211-0.095,0.437,0.003,0.635  c0.117,0.236,0.347,0.388,0.627,0.498c-0.016,0.087-0.021,0.187-0.012,0.3c-0.285,0.056-0.563-0.161-0.881-0.398  c-0.312-0.233-0.635-0.475-1.036-0.535c-0.466-0.064-0.935,0.113-1.368,0.289c-0.279,0.114-0.567,0.242-0.846,0.227  c-0.079-0.013-0.141-0.061-0.275-0.176c-0.172-0.148-0.407-0.353-0.777-0.408c-0.222-0.033-0.514-0.001-0.799,0.053  c-0.002-0.106-0.03-0.214-0.084-0.293c-0.17-0.249-0.536-0.25-0.833-0.121c-0.08-0.271-0.17-0.642-0.179-0.728  c0.037-0.417,0.351-0.979,0.656-1.521c0.441-0.786,0.898-1.6,0.787-2.385c-0.022-0.158-0.05-0.297-0.075-0.425  c-0.086-0.438-0.122-0.618,0.168-1.145c0.165-0.299,0.421-0.578,0.692-0.874c0.34-0.371,0.691-0.754,0.915-1.231  c0.266-0.572,0.375-1.159,0.481-1.727c0.102-0.545,0.198-1.061,0.425-1.492c0.119-0.219,0.97-0.946,1.592-1.478  c1.941-1.66,2.781-2.422,2.341-3.081c-0.77-1.154-2.002-1.32-3.089-1.466c-0.905-0.122-1.688-0.227-2.135-0.818  c-0.017-0.038-0.019-0.168-0.02-0.254c-0.003-0.25-0.007-0.593-0.251-0.875c-0.214-0.249-0.55-0.37-1.024-0.37  c-0.424,0-0.93,0.094-1.42,0.184c-0.401,0.074-0.816,0.151-1.118,0.161l0.059-0.357c0.02-0.122-0.006-0.248-0.073-0.352  c-0.323-0.502-0.724-0.756-1.193-0.756c-0.409,0-0.753,0.201-1.005,0.348c-0.017,0.01-0.036,0.021-0.054,0.032  c-0.389-0.563-0.658-1.434-0.878-2.147c-0.273-0.884-0.43-1.356-0.742-1.606c-0.039-0.03-0.082-0.056-0.127-0.074l-0.864-0.323  c-0.077-0.289,0.212-0.621,0.937-1.278c0.742-0.674,1.758-1.596,1.064-2.701c-0.129-0.203-0.347-0.307-0.676-0.463  c-0.688-0.326-1.729-0.819-1.926-2.13c-0.025-0.166-0.036-0.318-0.038-0.469c-0.001-0.048,0.003-0.091,0.013-0.207  c0-0.004,0.011-0.171,0.011-0.175c0.006-0.042,0.017-0.081,0.041-0.179c0.001-0.004,0.017-0.072,0.026-0.111  c0.168-0.104,0.256-0.293,0.236-0.481c0.042-0.059,0.094-0.123,0.159-0.198c0.261-0.287,0.603-0.521,0.934-0.749l0.276-0.192  c0.101-0.071,0.198-0.146,0.288-0.22l0.123-0.106c0.121-0.105,0.23-0.218,0.277-0.285c0.021-0.02,0.064-0.067,0.082-0.09  c0.102-0.135,0.185-0.287,0.253-0.46c0.018-0.045,0.035-0.091,0.051-0.143c0.041-0.134,0.094-0.34,0.09-0.593  c-0.01-0.778-0.517-1.104-0.853-1.319c-0.147-0.095-0.238-0.157-0.289-0.219c0.012-0.011,0.024-0.021,0.034-0.031  c0.15-0.137,0.377-0.343,0.416-0.669c0.034-0.295-0.129-0.573-0.844-1.633c-0.258-0.382-0.55-0.815-0.628-0.986l-0.03-0.069  c-0.014-0.054-0.032-0.109-0.052-0.165c0.069-0.051,0.149-0.109,0.228-0.167c0.582-0.424,0.582-0.424,0.645-0.59  c0.317-0.975-0.136-1.608-0.622-2.016c0.547-0.182,0.938-0.458,1.164-0.822c0.358-0.576,0.208-1.18,0.126-1.505  c-0.004-0.017-0.008-0.032-0.012-0.047c0.111-0.19,0.349-0.389,0.58-0.582c0.319-0.267,0.649-0.543,0.843-0.921  c0.639-1.25-0.012-2.879-0.535-4.189c-0.197-0.493-0.508-1.271-0.521-1.61c0.056,0.012,0.119,0.023,0.188,0.026  c0.034,0.001,0.069,0.01,0.104,0.017c0.233,0.043,0.461,0.047,0.653-0.044c0.141-0.068,0.219-0.178,0.317-0.317  c0.029-0.041,0.081-0.115,0.13-0.175c0.114,0.082,0.257,0.23,0.37,0.348c0.28,0.292,0.598,0.623,1.041,0.701  c0.05,0.008,0.122,0.014,0.212,0.014c0.605,0,2.482-0.262,2.87-0.4c0.429-0.154,1.012-0.421,1.127-0.954  c0.115-0.53-0.292-0.928-0.589-1.218c-0.037-0.036-0.083-0.08-0.125-0.123c0.254-0.146,0.585-0.26,0.931-0.378  c0.708-0.243,1.511-0.518,1.996-1.204c0.341-0.479,0.647-2.09,0.372-2.962c-0.152-0.48-0.439-0.671-0.658-0.749  c-0.052-0.018-0.134-0.032-0.189-0.032c-0.244,0-0.395,0.138-0.493,0.284c-0.404-0.18-1.089-0.55-1.187-0.623  c-0.003-0.004-0.006-0.009-0.009-0.014c0.042-0.012,0.084-0.023,0.116-0.032c0.221-0.058,0.495-0.13,0.617-0.411  c0.107-0.25,0.079-0.481,0.01-0.674c0.156,0.04,0.336,0.117,0.513,0.193c0.327,0.141,0.699,0.301,1.092,0.301  c0.014,0,0.111-0.004,0.125-0.006c0.485-0.041,0.627-0.546,0.969-1.765c0.105-0.376,0.265-0.943,0.331-1.056  c0.062-0.08,0.138-0.198,0.255-0.394c0.486-0.832,1.42-2.923,1.572-4.363c0.004-0.008,0.008-0.015,0.011-0.02  c0.153-0.313,0.394-0.382,0.562-0.407c0.241-0.035,0.458-0.247,0.463-0.49s-0.231-0.472-0.471-0.519  c-0.08-0.016-0.243-0.048-0.523-0.121l-0.162-0.036c-0.003-0.001-0.146-0.026-0.149-0.027c-0.002,0-0.104-0.019-0.106-0.019  c-0.002,0-0.124-0.021-0.125-0.021l-0.14-0.024c-0.195-0.095-0.394-0.123-0.571-0.133c-0.067-0.021-0.099-0.032-0.094-0.03  c-0.179-0.178-0.169-0.288-0.166-0.325c0.032-0.374,0.744-0.86,1.012-1.042c0.221-0.151,0.332-0.227,0.406-0.377  c0.086-0.176,0.156-0.505-0.262-0.815c0.307-0.157,1.151-0.389,2.966-0.389c1.587,0,2.83,0.169,3.273,0.293  c-0.002,0.012-0.004,0.023-0.006,0.033c-0.031,0.158-0.074,0.374-0.014,0.606c0.105,0.396,0.302,0.652,0.459,0.857  c0.027,0.035,0.052,0.067,0.073,0.096c-0.213,0.009-0.39,0.083-0.526,0.22c-0.303,0.308-0.331,0.6-0.301,0.791  c0.073,0.464,0.519,0.696,0.813,0.85c0.03,0.016,0.058,0.03,0.084,0.043c0.032,0.111,0.088,0.271,0.229,0.406  c0.133,0.126,0.306,0.196,0.487,0.196c0.271,0,0.481-0.147,0.646-0.261c0.438-0.265,0.966-1.136,0.772-1.749  c-0.01-0.034-0.025-0.069-0.042-0.103c0.118,0.163,0.288,0.319,0.593,0.486c-0.302,0.471-0.659,1.164-0.491,1.607  c0.086,0.228,0.287,0.385,0.536,0.42c0.275,0.043,0.526-0.15,0.566-0.424l0.116-0.807c0.325-0.311,0.639-0.78,0.632-0.871  c0.092-0.473-0.065-0.873-0.203-1.226c-0.14-0.359-0.222-0.592-0.138-0.849c0.154-0.476,0.796-1.697,0.942-1.869  c0.076,0.022,0.26,0.194,0.381,0.307c0.281,0.263,0.63,0.59,1.089,0.655c0.599,0.083,1.065,0.083,1.602,0.059  c0.213-0.01,0.445-0.02,0.732-0.021h0.511c0.062,0,0.129-0.009,0.251-0.028c0.009,0.005,0.019,0.011,0.029,0.018  c0.312,0.316,0.508,1.01,0.697,1.681c0.129,0.458,0.263,0.932,0.441,1.32c0.004,0.012,0.037,0.09,0.042,0.102  c0.09,0.185,0.19,0.347,0.299,0.481c0.425,0.524,1.775,1.114,2.24,1.114c0.169,0,0.392-0.106,0.484-0.249  c0.091-0.142,0.104-0.357,0.035-0.511c-0.215-0.487-0.695-0.673-1.119-0.837c-0.329-0.127-0.639-0.248-0.752-0.47  c-0.14-0.273-0.244-0.646-0.354-1.041c-0.22-0.789-0.469-1.683-1.131-2.211c-0.077-0.064-0.161-0.116-0.235-0.148  c-0.028-0.032-0.109-0.111-0.144-0.135c-0.091-0.063-0.194-0.103-0.31-0.12c-0.354-0.154-0.715-0.248-1.036-0.331l-0.232-0.061  c-0.103-0.028-0.201-0.06-0.386-0.13c-0.062-0.026-0.121-0.057-0.256-0.137c-0.042-0.03-0.078-0.068-0.169-0.158  c-0.06-0.077-0.099-0.149-0.13-0.234c-0.073-0.202-0.115-0.349-0.138-0.454c0.049,0.015,0.097,0.031,0.138,0.045  c0.446,0.147,0.916,0.172,1.129-0.152c0.199-0.301,0.087-0.665-0.049-0.982c-0.385-0.895-0.96-0.977-1.27-1.021  c-0.002-0.042-0.001-0.1,0.003-0.179c0.013-0.208,0.023-0.212,0.292-0.338c0.117-0.055,0.24-0.114,0.363-0.194  c0.009-0.006,0.861-0.625,0.708-1.138c-0.09-0.302-0.528-0.436-0.796-0.268c-0.108,0.067-0.427,0.14-0.875,0.14  c-0.156,0-0.299-0.008-0.429-0.022c0.021-0.02,0.039-0.04,0.055-0.06c0.129-0.16,0.169-0.33,0.121-0.508  c0.276,0.022,0.577,0.045,0.864,0.045c0.457,0,1.106-0.05,1.473-0.483c0.148-0.175,0.308-0.483,0.227-0.965  c-0.145-0.851-0.604-1.196-1.014-1.446C44,5.868,43.924,5.423,43.695,5.059c-0.202-0.316-0.397-0.526-0.555-0.695  c-0.287-0.309-0.418-0.449-0.444-1.071l-0.491-0.108l0.513-0.032l-0.482-0.145l0.119,0.002c0.401,0.097,0.872,0.144,1.292,0.185  l0.408,0.042c0.081,0.01,0.152,0.02,0.208,0.032c0.463,0.1,0.972,0.385,1.51,0.686c0.601,0.336,1.218,0.682,1.868,0.814  c0.077,0.136,0.219,0.233,0.375,0.254c0.287,0.04,0.575-0.033,0.788-0.089c0.028-0.008,0.055-0.016,0.08-0.022  c0.01,0.004,0.021,0.008,0.032,0.012l0.881,0.302c0.055,0.028,0.194,0.159,0.287,0.246c0.27,0.253,0.55,0.515,0.896,0.559  c0.021,0.002,0.111,0.009,0.131,0.009c0.107,0,0.197-0.019,0.273-0.047c0.145,0.589,0.233,1.521,0.147,1.853  c-0.098,0.055-0.292,0.138-0.427,0.196c-0.559,0.239-1.087,0.464-1.137,0.944c-0.012,0.115-0.005,0.408,0.322,0.637  c0.145,0.1,0.307,0.112,0.417,0.112c0.163,0,0.434-0.037,0.738-0.083c0.338-0.05,0.719-0.107,1.007-0.11  c-0.069,0.207-0.158,0.472-0.24,0.716c-0.315,0.937-0.315,0.937-0.158,1.148s0.452,0.268,0.673,0.123  c0.357-0.23,0.541-0.552,0.689-0.812c0.205-0.357,0.24-0.389,0.504-0.379c0.329,0.04,1.358,0.872,1.854,1.272  c0.843,0.682,1.007,0.798,1.306,0.734c0.34-0.071,0.853-0.305,1.446-0.577c0.14-0.064,0.31-0.142,0.482-0.219  c-0.13,0.394-0.099,0.72-0.072,0.983c0.026,0.275,0.034,0.404-0.046,0.55c-0.102,0.103-0.59,0.313-0.914,0.452  c-1.025,0.441-2.085,0.897-2.097,1.743c-0.01,0.722,0.784,1.173,1.383,1.45c0.387,0.178,0.871-0.04,1.343-0.303  c0.258-0.143,0.562-0.316,0.791-0.315c0.043,0.028,0.051,0.033,0.065,0.247c0.012,0.174,0.026,0.391,0.135,0.626  c0.105,0.225,0.332,0.359,0.607,0.359c0.123,0,0.238-0.025,0.323-0.044c0.043-0.009,0.083-0.022,0.119-0.039l0.113,0.101  c0.543,0.48,0.517,0.465,0.753,0.48c0.285-0.01,0.363-0.146,0.621-0.593c1.017-1.761,1.426-2.241,1.54-2.317  c0.19-0.038,1.531-0.119,2.325-0.126c-0.034,0.407,0.003,0.687,0.179,0.889c0.116,0.135,0.278,0.209,0.455,0.209  c0.068,0,0.204-0.03,0.267-0.057c0.591-0.255,0.397-0.895,0.325-1.136c-0.023-0.076-0.062-0.202-0.066-0.217  c0.077-0.253,0.492-0.405,0.895-0.552c0.085-0.031,0.17-0.062,0.255-0.095c0.078,0.213,0.274,0.361,0.58,0.386  c0.424,0,0.86-0.293,1.538-0.771c0.353-0.249,0.928-0.654,1.146-0.732c0.036,0.154,0.124,0.421,0.426,0.535  c0.056,0.021,0.116,0.032,0.176,0.032c0.123-0.014,0.164-0.015,0.493-0.206c0.175-0.101,0.575-0.333,0.891-0.505  c0.068,0.099,0.142,0.176,0.196,0.235c0.009,0.009,0.018,0.018,0.026,0.027c-0.072,1.488,1.032,2.204,1.843,2.73  c0.136,0.087,0.267,0.172,0.36,0.234c0.045,0.058,0.106,0.277,0.14,0.395c0.095,0.337,0.237,0.845,0.742,0.845  c0.106,0,0.302-0.068,0.388-0.131c0.066-0.049,0.221-0.188,0.221-0.438c0.231,0.023,0.461,0.031,0.656-0.021  c0.014-0.004,0.028-0.008,0.042-0.012c0.138,0.477,0.334,1.152,0.4,1.366l0.066,0.2c0.061,0.177,0.244,0.718,0.247,0.84  c-0.067,0.354,0.062,1.009,0.502,1.61c0.333,0.456,0.944,1.018,2.06,1.223c0.009,0.18,0.1,0.377,0.239,0.468  c0.066,0.043,0.162,0.074,0.247,0.084c0.017,0.086,0.034,0.173,0.052,0.261c0.102,0.514,0.211,1.038,0.317,1.547l0.424,2.135  c0,0.002,0.029,0.189,0.03,0.191c0.017,0.119,0.031,0.225,0.043,0.332l0.014,0.125c0.009,0.112,0.016,0.209,0.011,0.28  c-0.022,0.326-0.622,2.072-0.83,2.346c-0.137,0.163-0.385,0.331-0.648,0.508c-0.694,0.468-1.743,1.176-1.286,2.537  c0.255,0.76,1.046,1.26,1.884,1.789c0.808,0.51,1.643,1.038,1.686,1.663c0.012,0.176-0.207,0.516-0.383,0.79  c-0.229,0.356-0.467,0.725-0.522,1.125c-0.113,0.832,0.419,1.359,0.807,1.745c0.22,0.217,0.427,0.423,0.483,0.626  c0.03,0.106-0.048,0.355-0.11,0.555c-0.102,0.322-0.216,0.687-0.143,1.025c0.026,0.182,0.068,0.22,0.396,0.516  c0.039,0.036,0.078,0.071,0.114,0.103c-0.017,0.343-0.382,0.779-0.709,1.169c-0.435,0.519-0.884,1.056-0.813,1.669  c0.057,0.48,0.357,0.877,0.623,1.227c0.194,0.256,0.395,0.521,0.425,0.703c-0.005,0.074-0.097,0.292-0.151,0.423  c-0.167,0.398-0.34,0.81-0.16,1.188c0.199,0.401,0.648,0.584,1.045,0.746c0.173,0.071,0.462,0.189,0.522,0.267  c0.239,0.312,0.638,1.919,0.626,2.535l-0.029,0.114l0.478,0.147l-0.506-0.046c-0.002,0.006-0.054,0.174-0.055,0.18L86.041,52.9z   M62.75,63.787c-0.194-0.341-0.328-0.616-0.34-0.739c0.115,0,0.243,0.06,0.318,0.115C62.736,63.432,62.742,63.633,62.75,63.787z"></path></svg>