<svg height='100px' width='100px'  fill="#000000" xmlns="http://www.w3.org/2000/svg" xmlns:xlink="http://www.w3.org/1999/xlink" version="1.1" x="0px" y="0px" viewBox="0 0 64 64" style="enable-background:new 0 0 64 64;" xml:space="preserve"><g><path d="M58,8H6c-2.757,0-5,2.243-5,5v32c0,2.757,2.243,5,5,5h13v4h-4v2h34v-2h-4v-4h13c2.757,0,5-2.243,5-5V13   C63,10.243,60.757,8,58,8z M6,10h52c1.654,0,3,1.346,3,3v27H18v-2.723l-2.504-0.827c-0.241-0.85-0.583-1.666-0.994-2.45H37V12H7   v15.661c-0.151-0.049-0.297-0.113-0.451-0.157L5.723,25H3V13C3,11.346,4.346,10,6,10z M3,33c3.86,0,7,3.141,7,7H3V33z M3,31.007V27   h1.277l0.719,2.179l0.544,0.128c1.137,0.27,2.221,0.72,3.222,1.337l0.476,0.294l2.052-1.033l1.806,1.807l-1.033,2.052l0.293,0.476   c0.618,1,1.067,2.084,1.336,3.222l0.129,0.544L16,38.723V40h-4C12,35.041,7.92,31.013,3,31.007z M11.681,27.469l-2.357,1.187   C9.219,28.596,9.107,28.554,9,28.498V14h26v18H15.189l0.343-0.682L11.681,27.469z M43,54H21v-4h22V54z M58,48H6   c-1.654,0-3-1.346-3-3v-3h58v3C61,46.654,59.654,48,58,48z"></path><rect x="49" y="44" width="2" height="2"></rect><rect x="53" y="44" width="2" height="2"></rect><rect x="57" y="44" width="2" height="2"></rect><rect x="35" y="36" width="2" height="2"></rect><rect x="31" y="36" width="2" height="2"></rect><rect x="23" y="36" width="6" height="2"></rect><polygon points="57,17 55,17 55,24 53,24 53,12 51,12 51,24 49,24 49,20 47,20 47,24 45,24 45,15 43,15 43,24 41,24 41,12 39,12    39,26 57,26  "></polygon><path d="M57,28H39v10h18V28z M55,36H41v-6h14V36z"></path><rect x="11" y="16" width="2" height="2"></rect><rect x="15" y="16" width="18" height="2"></rect><rect x="11" y="20" width="22" height="2"></rect><rect x="11" y="24" width="4" height="2"></rect><rect x="17" y="24" width="16" height="2"></rect><rect x="17" y="28" width="16" height="2"></rect></g></svg>