<svg height='100px' width='100px'  fill="#000000" xmlns="http://www.w3.org/2000/svg" xmlns:cc="http://creativecommons.org/ns#" xmlns:dc="http://purl.org/dc/elements/1.1/" xmlns:rdf="http://www.w3.org/1999/02/22-rdf-syntax-ns#" clip-rule="evenodd" fill-rule="evenodd" stroke-linecap="round" stroke-linejoin="round" stroke-miterlimit="1.5" version="1.1" viewBox="0 0 64 64" xml:space="preserve" x="0px" y="0px"><rect width="64" height="64" fill="none"></rect><clipPath id="a"><rect width="64" height="64"></rect></clipPath><g clip-path="url(#a)"><path d="m40 10" fill="none" stroke="#000000" stroke-dashoffset="20" stroke-miterlimit="1.5" stroke-width="2"></path><g clip-rule="nonzero" fill-rule="nonzero" shape-rendering="auto"><path d="m39.984 8.9883a1.0001 1.0001 0 0 0 -0.98438 1.0137v1a1.0001 1.0001 0 1 0 2 0v-1a1.0001 1.0001 0 0 0 -1.0156 -1.0137z" color="#000000" color-rendering="auto" dominant-baseline="auto" image-rendering="auto" solid-color="#000000" style="font-feature-settings:normal;font-variant-alternates:normal;font-variant-caps:normal;font-variant-ligatures:normal;font-variant-numeric:normal;font-variant-position:normal;isolation:auto;mix-blend-mode:normal;shape-padding:0;text-decoration-color:#000000;text-decoration-line:none;text-decoration-style:solid;text-indent:0;text-orientation:mixed;text-transform:none;white-space:normal;"></path><path d="m39.984 12.99a1.0001 1.0001 0 0 0 -0.98438 1.0137v1a1.0001 1.0001 0 1 0 2 0v-1a1.0001 1.0001 0 0 0 -1.0156 -1.0137z" color="#000000" color-rendering="auto" dominant-baseline="auto" image-rendering="auto" solid-color="#000000" style="font-feature-settings:normal;font-variant-alternates:normal;font-variant-caps:normal;font-variant-ligatures:normal;font-variant-numeric:normal;font-variant-position:normal;isolation:auto;mix-blend-mode:normal;shape-padding:0;text-decoration-color:#000000;text-decoration-line:none;text-decoration-style:solid;text-indent:0;text-orientation:mixed;text-transform:none;white-space:normal;"></path><path d="m39.984 16.99a1.0001 1.0001 0 0 0 -0.98438 1.0137v1a1.0001 1.0001 0 1 0 2 0v-1a1.0001 1.0001 0 0 0 -1.0156 -1.0137z" color="#000000" color-rendering="auto" dominant-baseline="auto" image-rendering="auto" solid-color="#000000" style="font-feature-settings:normal;font-variant-alternates:normal;font-variant-caps:normal;font-variant-ligatures:normal;font-variant-numeric:normal;font-variant-position:normal;isolation:auto;mix-blend-mode:normal;shape-padding:0;text-decoration-color:#000000;text-decoration-line:none;text-decoration-style:solid;text-indent:0;text-orientation:mixed;text-transform:none;white-space:normal;"></path><path d="m39.984 20.992a1.0001 1.0001 0 0 0 -0.98438 1.0137v1a1.0001 1.0001 0 1 0 2 0v-1a1.0001 1.0001 0 0 0 -1.0156 -1.0137z" color="#000000" color-rendering="auto" dominant-baseline="auto" image-rendering="auto" solid-color="#000000" style="font-feature-settings:normal;font-variant-alternates:normal;font-variant-caps:normal;font-variant-ligatures:normal;font-variant-numeric:normal;font-variant-position:normal;isolation:auto;mix-blend-mode:normal;shape-padding:0;text-decoration-color:#000000;text-decoration-line:none;text-decoration-style:solid;text-indent:0;text-orientation:mixed;text-transform:none;white-space:normal;"></path><path d="m39.984 24.992a1.0001 1.0001 0 0 0 -0.98438 1.0137v1.002a1.0001 1.0001 0 1 0 2 0v-1.002a1.0001 1.0001 0 0 0 -1.0156 -1.0137z" color="#000000" color-rendering="auto" dominant-baseline="auto" image-rendering="auto" solid-color="#000000" style="font-feature-settings:normal;font-variant-alternates:normal;font-variant-caps:normal;font-variant-ligatures:normal;font-variant-numeric:normal;font-variant-position:normal;isolation:auto;mix-blend-mode:normal;shape-padding:0;text-decoration-color:#000000;text-decoration-line:none;text-decoration-style:solid;text-indent:0;text-orientation:mixed;text-transform:none;white-space:normal;"></path><path d="m39.984 28.994a1.0001 1.0001 0 0 0 -0.98438 1.0137v1a1.0001 1.0001 0 1 0 2 0v-1a1.0001 1.0001 0 0 0 -1.0156 -1.0137z" color="#000000" color-rendering="auto" dominant-baseline="auto" image-rendering="auto" solid-color="#000000" style="font-feature-settings:normal;font-variant-alternates:normal;font-variant-caps:normal;font-variant-ligatures:normal;font-variant-numeric:normal;font-variant-position:normal;isolation:auto;mix-blend-mode:normal;shape-padding:0;text-decoration-color:#000000;text-decoration-line:none;text-decoration-style:solid;text-indent:0;text-orientation:mixed;text-transform:none;white-space:normal;"></path><path d="m39.984 32.994a1.0001 1.0001 0 0 0 -0.98438 1.0137v1a1.0001 1.0001 0 1 0 2 0v-1a1.0001 1.0001 0 0 0 -1.0156 -1.0137z" color="#000000" color-rendering="auto" dominant-baseline="auto" image-rendering="auto" solid-color="#000000" style="font-feature-settings:normal;font-variant-alternates:normal;font-variant-caps:normal;font-variant-ligatures:normal;font-variant-numeric:normal;font-variant-position:normal;isolation:auto;mix-blend-mode:normal;shape-padding:0;text-decoration-color:#000000;text-decoration-line:none;text-decoration-style:solid;text-indent:0;text-orientation:mixed;text-transform:none;white-space:normal;"></path><path d="m39.984 36.994a1.0001 1.0001 0 0 0 -0.98438 1.0156v0.99805a1.0001 1.0001 0 1 0 2 0v-0.99805a1.0001 1.0001 0 0 0 -1.0156 -1.0156z" color="#000000" color-rendering="auto" dominant-baseline="auto" image-rendering="auto" solid-color="#000000" style="font-feature-settings:normal;font-variant-alternates:normal;font-variant-caps:normal;font-variant-ligatures:normal;font-variant-numeric:normal;font-variant-position:normal;isolation:auto;mix-blend-mode:normal;shape-padding:0;text-decoration-color:#000000;text-decoration-line:none;text-decoration-style:solid;text-indent:0;text-orientation:mixed;text-transform:none;white-space:normal;"></path><path d="m39.984 40.994a1.0001 1.0001 0 0 0 -0.98438 1.0137v1a1.0001 1.0001 0 1 0 2 0v-1a1.0001 1.0001 0 0 0 -1.0156 -1.0137z" color="#000000" color-rendering="auto" dominant-baseline="auto" image-rendering="auto" solid-color="#000000" style="font-feature-settings:normal;font-variant-alternates:normal;font-variant-caps:normal;font-variant-ligatures:normal;font-variant-numeric:normal;font-variant-position:normal;isolation:auto;mix-blend-mode:normal;shape-padding:0;text-decoration-color:#000000;text-decoration-line:none;text-decoration-style:solid;text-indent:0;text-orientation:mixed;text-transform:none;white-space:normal;"></path><path d="m39.984 44.992a1.0001 1.0001 0 0 0 -0.98438 1.0156v1a1.0001 1.0001 0 1 0 2 0v-1a1.0001 1.0001 0 0 0 -1.0156 -1.0156z" color="#000000" color-rendering="auto" dominant-baseline="auto" image-rendering="auto" solid-color="#000000" style="font-feature-settings:normal;font-variant-alternates:normal;font-variant-caps:normal;font-variant-ligatures:normal;font-variant-numeric:normal;font-variant-position:normal;isolation:auto;mix-blend-mode:normal;shape-padding:0;text-decoration-color:#000000;text-decoration-line:none;text-decoration-style:solid;text-indent:0;text-orientation:mixed;text-transform:none;white-space:normal;"></path><path d="m39.984 48.99a1.0001 1.0001 0 0 0 -0.98438 1.0156v0.99805a1.0001 1.0001 0 1 0 2 0v-0.99805a1.0001 1.0001 0 0 0 -1.0156 -1.0156z" color="#000000" color-rendering="auto" dominant-baseline="auto" image-rendering="auto" solid-color="#000000" style="font-feature-settings:normal;font-variant-alternates:normal;font-variant-caps:normal;font-variant-ligatures:normal;font-variant-numeric:normal;font-variant-position:normal;isolation:auto;mix-blend-mode:normal;shape-padding:0;text-decoration-color:#000000;text-decoration-line:none;text-decoration-style:solid;text-indent:0;text-orientation:mixed;text-transform:none;white-space:normal;"></path><path d="m39.984 52.988a1.0001 1.0001 0 0 0 -0.98438 1.0137v0.99805a1.0001 1.0001 0 1 0 2 0v-0.99805a1.0001 1.0001 0 0 0 -1.0156 -1.0137z" color="#000000" color-rendering="auto" dominant-baseline="auto" image-rendering="auto" solid-color="#000000" style="font-feature-settings:normal;font-variant-alternates:normal;font-variant-caps:normal;font-variant-ligatures:normal;font-variant-numeric:normal;font-variant-position:normal;isolation:auto;mix-blend-mode:normal;shape-padding:0;text-decoration-color:#000000;text-decoration-line:none;text-decoration-style:solid;text-indent:0;text-orientation:mixed;text-transform:none;white-space:normal;"></path><path d="m4 3a1.0001 1.0001 0 0 0 -1 1v14 14 14 14a1.0001 1.0001 0 0 0 1 1h30a1.0001 1.0001 0 0 0 1 -1v-4h1c0.55226-5.5e-5 0.99994-0.44774 1-1v-4c-5.5e-5 -0.55226-0.44774-0.99994-1-1h-1v-4-4h1c0.55226-5.5e-5 0.99994-0.44774 1-1v-4c-5.5e-5 -0.55226-0.44774-0.99994-1-1h-1v-4-4h1c0.55226-5.5e-5 0.99994-0.44774 1-1v-4c-5.5e-5 -0.55226-0.44774-0.99994-1-1h-1v-4-4h1c0.55226-5.5e-5 0.99994-0.44774 1-1v-4c-5.5e-5 -0.55226-0.44774-0.99994-1-1h-1v-4a1.0001 1.0001 0 0 0 -1 -1h-30zm1 2h28v12h-28v-12zm15.488 1.9883a1.0001 1.0001 0 0 0 -0.75586 0.37109l-2.5 3a1.0001 1.0001 0 0 0 0.76758 1.6406h0.86523l-1.1328 1.3594a1.0001 1.0001 0 1 0 1.5352 1.2812l2.5-3a1.0001 1.0001 0 0 0 -0.76758 -1.6406h-0.86523l1.1328-1.3594a1.0001 1.0001 0 0 0 -0.7793 -1.6523zm-15.488 12.012h28v12h-28v-12zm15.488 1.9883a1.0001 1.0001 0 0 0 -0.75586 0.37109l-2.5 3a1.0001 1.0001 0 0 0 0.76758 1.6406h0.86523l-1.1328 1.3594a1.0001 1.0001 0 1 0 1.5352 1.2812l2.5-3a1.0001 1.0001 0 0 0 -0.76758 -1.6406h-0.86523l1.1328-1.3594a1.0001 1.0001 0 0 0 -0.7793 -1.6523zm-15.488 12.012h28v12h-28v-12zm14.988 1.9883a1.0001 1.0001 0 0 0 -0.75586 0.37109l-2.5 3a1.0001 1.0001 0 0 0 0.76758 1.6406h0.86523l-1.1328 1.3594a1.0001 1.0001 0 1 0 1.5352 1.2812l2.5-3a1.0001 1.0001 0 0 0 -0.76758 -1.6406h-0.86523l1.1328-1.3594a1.0001 1.0001 0 0 0 -0.7793 -1.6523zm-14.988 12.012h28v12h-28v-12zm14.988 1.9883a1.0001 1.0001 0 0 0 -0.75586 0.37109l-2.5 3a1.0001 1.0001 0 0 0 0.76758 1.6406h0.86523l-1.1328 1.3594a1.0001 1.0001 0 1 0 1.5352 1.2812l2.5-3a1.0001 1.0001 0 0 0 -0.76758 -1.6406h-0.86523l1.1328-1.3594a1.0001 1.0001 0 0 0 -0.7793 -1.6523z" color="#000000" color-rendering="auto" dominant-baseline="auto" image-rendering="auto" solid-color="#000000" style="font-feature-settings:normal;font-variant-alternates:normal;font-variant-caps:normal;font-variant-ligatures:normal;font-variant-numeric:normal;font-variant-position:normal;isolation:auto;mix-blend-mode:normal;shape-padding:0;text-decoration-color:#000000;text-decoration-line:none;text-decoration-style:solid;text-indent:0;text-orientation:mixed;text-transform:none;white-space:normal;"></path></g><g transform="translate(.014242 4e-5)" clip-rule="evenodd" fill-rule="evenodd" stroke-linecap="round" stroke-linejoin="round" stroke-miterlimit="1.5"><path d="m44 36a1.0001 1.0001 0 1 0 0 2h0.99805a1.0001 1.0001 0 1 0 0 -2zm3.998 0a1.0001 1.0001 0 1 0 0 2h1a1.0001 1.0001 0 1 0 0 -2zm4.002 0a1.0001 1.0001 0 1 0 0 2h0.99805a1.0001 1.0001 0 1 0 0 -2zm0.98438 2.9844a1.0001 1.0001 0 0 0 -0.98438 1.0137v1a1.0001 1.0001 0 1 0 2 0v-1a1.0001 1.0001 0 0 0 -1.0156 -1.0137zm0 4a1.0001 1.0001 0 0 0 -0.98438 1.0156v0.99805a1.0001 1.0001 0 0 0 2e-3 0.07031c-3.9376 0.49451-7.002 3.8637-7.002 7.9316 0 4.4064 3.5936 8 8 8s8-3.5936 8-8c0-4.068-3.0644-7.4371-7.002-7.9316a1.0001 1.0001 0 0 0 2e-3 -0.07031v-0.99805a1.0001 1.0001 0 0 0 -1.0156 -1.0156zm0.015625 4.0156c3.3256 0 6 2.6744 6 6s-2.6744 6-6 6-6-2.6744-6-6 2.6744-6 6-6zm0.98828 1.9883a1.0001 1.0001 0 0 0 -0.75586 0.37109l-2.5 3a1.0001 1.0001 0 0 0 0.76758 1.6406h0.86523l-1.1328 1.3594a1.0001 1.0001 0 1 0 1.5352 1.2812l2.5-3a1.0001 1.0001 0 0 0 -0.76758 -1.6406h-0.86523l1.1328-1.3594a1.0001 1.0001 0 0 0 -0.7793 -1.6523z" clip-rule="nonzero" color="#000000" color-rendering="auto" dominant-baseline="auto" fill-rule="nonzero" image-rendering="auto" shape-rendering="auto" solid-color="#000000" style="font-feature-settings:normal;font-variant-alternates:normal;font-variant-caps:normal;font-variant-ligatures:normal;font-variant-numeric:normal;font-variant-position:normal;isolation:auto;mix-blend-mode:normal;shape-padding:0;text-decoration-color:#000000;text-decoration-line:none;text-decoration-style:solid;text-indent:0;text-orientation:mixed;text-transform:none;white-space:normal;"></path><path d="m53 46" fill="none" stroke="#000000" stroke-dashoffset="3" stroke-width="2px"></path><path d="m53 37" fill="none" stroke="#000000" stroke-dashoffset="3" stroke-width="2px"></path></g></g></svg>