<svg height='100px' width='100px'  fill="#000000" xmlns="http://www.w3.org/2000/svg" data-name="Layer 1" viewBox="0 0 128 128" x="0px" y="0px"><title>Miscellaneous 67 expandline</title><path d="M64,0C40.80408,0,22,3.80554,22,8.5v111c0,4.6944,18.80408,8.5,42,8.5s42-3.8056,42-8.5V8.5C106,3.80554,87.19592,0,64,0Zm0,124c-22.04327,0-35.25616-3.37292-38-5.34442V86.729a39.31365,39.31365,0,0,0,10.08862,3.02313A38.242,38.242,0,0,1,32.247,84.83905C28.45483,83.83917,26.32806,82.7901,26,82V42.7334a28.41109,28.41109,0,0,0,5.30042,1.93994,38.14562,38.14562,0,0,1,2.3338-3.49042C28.97559,40.08484,26.366,38.88141,26,38V9.34436C28.74384,7.37292,41.95673,4,64,4s35.25616,3.37292,38,5.34436V37.92462c-.402.92065-3.01019,2.13855-7.64618,3.2431a38.14889,38.14889,0,0,1,2.34576,3.50562A28.41109,28.41109,0,0,0,102,42.7334V81.92554c-.36035.82257-2.476,1.88245-6.22974,2.88672a38.25,38.25,0,0,1-3.85889,4.93988A39.31365,39.31365,0,0,0,102,86.729v31.92657C99.25616,120.62708,86.04327,124,64,124Z"></path><path d="M64,30A34,34,0,1,0,98,64,34,34,0,0,0,64,30Zm0,64A30,30,0,1,1,94,64,30.034,30.034,0,0,1,64,94Z"></path><path d="M77.94714,42.2254a.95942.95942,0,0,0-.51337-.148,1.01141,1.01141,0,0,0-.86981.50122L70.07343,53.6684a12.0795,12.0795,0,0,1,3.10376,2.61591L78.33942,47.464a21.81677,21.81677,0,0,1,7.316,12.65L75.33032,60.083A11.92349,11.92349,0,0,1,76,64c0,.02869-.00415.0564-.00433.085l12.99408.039h.003a1.004,1.004,0,0,0,1.00659-1.0304A25.79343,25.79343,0,0,0,77.94714,42.2254Z"></path><path d="M69.89746,74.4386a11.90177,11.90177,0,0,1-3.81525,1.36816L71.047,84.75708A21.33278,21.33278,0,0,1,63.83844,86,21.59865,21.59865,0,0,1,56.489,84.70544L61.736,75.77887a11.90044,11.90044,0,0,1-3.79449-1.43817L51.35388,85.54816a1.00907,1.00907,0,0,0,.37341,1.39648,25.52908,25.52908,0,0,0,24.00909.113,1.00647,1.00647,0,0,0,.39679-1.37756Z"></path><path d="M64,72a8,8,0,1,0-8-8A8,8,0,0,0,64,72Zm0-12a4,4,0,1,1-4,4A4.0045,4.0045,0,0,1,64,60Z"></path><path d="M52,64a11.91926,11.91926,0,0,1,.69458-3.985l-10.34039-.031a21.902,21.902,0,0,1,7.40216-12.60846l5.11255,8.858A12.07494,12.07494,0,0,1,57.986,53.63226L51.56549,42.50806A1.01444,1.01444,0,0,0,50.69043,42a.95884.95884,0,0,0-.50793.14471A25.80109,25.80109,0,0,0,38.00092,62.94043,1.00319,1.00319,0,0,0,39.00409,63.974l12.99658.039Z"></path></svg>