<svg height='100px' width='100px'  fill="#000000" xmlns="http://www.w3.org/2000/svg" xmlns:xlink="http://www.w3.org/1999/xlink" version="1.1" x="0px" y="0px" viewBox="0 0 120 120" style="enable-background:new 0 0 120 120;" xml:space="preserve"><path d="M108.3,69.8c-1.6-2.9-4.3-4.4-8.1-4.5c-1.9,0-4,0.4-6.1,1.3L81.3,72c-1-1.8-2.7-3.1-4.7-3.6c0-0.4,0.1-0.9,0.1-1.3v-4.4  l0-8.5l8.6,4.8c3,1.7,6.8,0.6,8.4-2.4c0.8-1.4,1-3.1,0.6-4.7c-0.4-1.6-1.5-2.9-2.9-3.7l-17-9.5c1.9-2.4,3.1-5.4,3.1-8.7  c0-7.7-6.2-13.9-13.9-13.9S49.6,22.3,49.6,30c0,3.3,1.2,6.3,3.1,8.7l-17,9.5c-1.4,0.8-2.5,2.1-2.9,3.7c-0.4,1.6-0.2,3.3,0.6,4.7  c1.7,3,5.5,4,8.4,2.4l8.6-4.8v8.5v1.6c-3.4-1-6.8-1.4-10.1-1.3c-1.9,0.1-3.7,0.4-5.2,0.9c-2.7,0.9-6.9,3.2-10.3,5.2  c-0.2-1.2-1.2-2.1-2.5-2.1h-8.9c-1.4,0-2.5,1.1-2.5,2.5v31.9c0,1.4,1.1,2.5,2.5,2.5h8.9c1.4,0,2.5-1.1,2.5-2.5V99l3.7-2.9  c2.8-2.1,6.3-3.1,9.8-2.8c4.2,0.3,7.2,0.6,8.8,1l9.9,2.1c4.8,1,9.7,0.9,14.1-0.3c1.6-0.4,2.9-0.9,4-1.5l30.8-17.1  c1.3-0.7,2.3-1.9,2.7-3.3C109.2,72.6,109,71.1,108.3,69.8z M104,72.7c0,0.1-0.1,0.2-0.3,0.3L72.9,90.1c-0.7,0.4-1.7,0.8-2.9,1.1  c-3.7,1-7.8,1.1-11.8,0.2l-9.9-2.1c-1.9-0.4-5.1-0.7-9.5-1.1c-4.7-0.3-9.3,1-13.1,3.8l-0.7,0.5l0-11.6v-6.2c0.4-0.2,0.9-0.5,1.3-0.8  c3.1-1.8,7.9-4.6,10.4-5.4c1.1-0.3,2.4-0.6,4-0.7c3-0.2,6.2,0.3,9.4,1.4c7.4,2.5,12.4,3.8,14.8,3.8H75h0c1.2,0,2.2,1,2.2,2.1  c0,0,0,0.1,0,0.1c0,0.6-0.2,1.1-0.6,1.5c-0.4,0.4-1,0.6-1.5,0.6l-19.4,0c-1.4,0-2.5,1.1-2.5,2.5s1.1,2.5,2.5,2.5h0l19.4,0  c1.9,0,3.7-0.7,5.1-2.1c0.9-0.9,1.6-2.1,1.9-3.3L96,71.2c1.4-0.6,2.8-0.9,4-0.9c2.5,0,3.3,1,3.8,1.9C104,72.4,104,72.6,104,72.7z   M16,72h3.9v26.9H16V72z M38.4,54.8c-0.2,0-0.5-0.2-0.7-0.6c-0.2-0.4-0.2-0.7-0.1-0.9s0.2-0.5,0.6-0.7l18.6-10.4  c2,1.1,4.3,1.7,6.7,1.7c2.4,0,4.7-0.6,6.7-1.7l18.6,10.4c0.4,0.2,0.5,0.5,0.6,0.7c0,0.2,0.1,0.5-0.1,0.9c-0.3,0.6-1.1,0.8-1.6,0.5  l-12.3-6.9c-0.8-0.4-1.7-0.4-2.5,0c-0.8,0.4-1.2,1.3-1.2,2.2l0,10.3H55.4V49.9c0-0.9-0.5-1.7-1.2-2.2c-0.8-0.4-1.7-0.5-2.5,0  l-12.3,6.9C39,54.9,38.6,54.8,38.4,54.8z M63.5,21.1c4.9,0,8.9,4,8.9,8.9s-4,8.9-8.9,8.9s-8.9-4-8.9-8.9S58.6,21.1,63.5,21.1z   M55.4,65.2h16.2v1.9c0,0.4,0,0.8-0.1,1.1h-6.7c-1.4,0-4.9-0.9-9.5-2.3V65.2z"></path></svg>