<svg height='100px' width='100px'  fill="#000000" xmlns="http://www.w3.org/2000/svg" xmlns:xlink="http://www.w3.org/1999/xlink" version="1.1" x="0px" y="0px" viewBox="0 0 512 512" style="enable-background:new 0 0 512 512;" xml:space="preserve"><path d="M448,268.2V104c0-22.1-17.9-40-40-40h-96V40c0-13.2-10.8-24-24-24h-64c-13.2,0-24,10.8-24,24v24h-96c-22.1,0-40,17.9-40,40  v48h16v-16h352v121.2c-34.1-19.7-75.5-22.6-112-7.8V208c0-13.2-10.8-24-24-24h-24v-16h-16v16H80v-16H64v16H40c-13.2,0-24,10.8-24,24  v240c0,13.2,10.8,24,24,24h253.5c57.4,41.2,137.3,28.1,178.5-29.4C511.7,387.4,501.1,310.7,448,268.2z M216,40c0-4.4,3.6-8,8-8h64  c4.4,0,8,3.6,8,8v24h-80V40z M80,120v-16c0-13.2,10.8-24,24-24h304c13.2,0,24,10.8,24,24v16H80z M32,208c0-4.4,3.6-8,8-8h24v32h16  v-32h176v32h16v-32h24c4.4,0,8,3.6,8,8v40H32V208z M40,456c-4.4,0-8-3.6-8-8V264h261.5c-57.4,41.1-70.7,120.9-29.6,178.3  c3.4,4.8,7.2,9.4,11.3,13.7H40z M376,479.7V456h-16v23.7c-24.1-1.7-47-11.2-65.3-27.1l15-15l-11.3-11.3l-15,15  C267.5,423,258,400.1,256.3,376H280v-16h-23.7c1.7-24.1,11.2-47,27.1-65.3l15,15l11.3-11.3l-15-15c18.3-15.9,41.2-25.4,65.3-27.1  V280h16v-23.7c24.1,1.7,47,11.2,65.3,27.1l-15,15l11.3,11.3l15-15c15.9,18.3,25.4,41.2,27.1,65.3H456v16h23.7  C475.7,431.5,431.5,475.7,376,479.7z"></path><polygon points="360,364.7 314.3,410.3 325.7,421.7 376,371.3 376,296 360,296 "></polygon><path d="M389.8,445l4.4,15.4c32-9.2,57-34.2,66.2-66.2l-15.4-4.4C437.3,416.5,416.5,437.3,389.8,445z"></path><rect x="120" y="216" width="96" height="16"></rect><polygon points="69.7,325.7 80,315.3 90.3,325.7 101.7,314.3 91.3,304 101.7,293.7 90.3,282.3 80,292.7 69.7,282.3 58.3,293.7   68.7,304 58.3,314.3 "></polygon><path d="M200,296h-88v16h88c4.4,0,8,3.6,8,8v24c0,4.4-3.6,8-8,8H72c-13.2,0-24,10.8-24,24v24c0,13.2,10.8,24,24,24h48v-16H72  c-4.4,0-8-3.6-8-8v-24c0-4.4,3.6-8,8-8h128c13.2,0,24-10.8,24-24v-24C224,306.8,213.2,296,200,296z"></path><polygon points="162.3,394.3 152,404.7 141.7,394.3 130.3,405.7 140.7,416 130.3,426.3 141.7,437.7 152,427.3 162.3,437.7   173.7,426.3 163.3,416 173.7,405.7 "></polygon></svg>