<svg height='100px' width='100px'  fill="#000000" xmlns="http://www.w3.org/2000/svg" xmlns:xlink="http://www.w3.org/1999/xlink" version="1.1" x="0px" y="0px" viewBox="0 0 66 66" enable-background="new 0 0 66 66" xml:space="preserve"><g><path d="M33.261,17.032c-0.185-0.125-0.431-0.114-0.604,0.031c-8.236,6.94-10.364,15.702-8.034,22.376   c1.408,4.033,4.586,7.239,8.351,8.506l0.017,2.246c0.002,0.275,0.226,0.496,0.5,0.496c0.001,0,0.002,0,0.004,0   c0.276-0.002,0.498-0.228,0.496-0.504l-0.017-2.256C45.064,39.229,42.716,23.48,33.261,17.032z M35.096,45.604l-0.43-0.43   l0.789-0.789l0.407,0.407C35.615,45.068,35.36,45.34,35.096,45.604z M33.953,45.169l0.005,0.005l-0.005,0.005L33.953,45.169z    M34.275,44.784c-0.09-0.09-0.227-0.087-0.325-0.012l-0.022-2.94c0.271-0.069,3.497-4.126,3.691-4.365   c0.028,0.011,0.053,0.034,0.083,0.034c0.064,0,0.128-0.024,0.177-0.073l0.617-0.617l1.127,1.127   c0.012,0.012,0.029,0.009,0.042,0.018c-0.152,0.522-0.326,1.036-0.527,1.541l-0.385-0.385l0.719-0.719   c0.098-0.098,0.098-0.256,0-0.354s-0.256-0.098-0.354,0l-0.719,0.719l-0.405-0.405c-0.098-0.098-0.256-0.098-0.354,0   s-0.098,0.256,0,0.354l0.405,0.405l-1.102,1.102l-0.176-0.176c-0.098-0.098-0.256-0.098-0.354,0s-0.098,0.256,0,0.354l0.176,0.176   l-0.305,0.305c-0.098,0.098-0.098,0.256,0,0.354c0.098,0.098,0.256,0.098,0.354,0l0.305-0.305l0.668,0.668   c-0.04,0.011-0.082,0.016-0.114,0.047l-0.784,0.784l-0.772-0.772c-0.098-0.098-0.256-0.098-0.354,0s-0.098,0.256,0,0.354   l0.772,0.772l-0.906,0.906l-0.288-0.288c-0.098-0.098-0.256-0.098-0.354,0s-0.098,0.256,0,0.354l0.288,0.288l-0.789,0.789   L34.275,44.784z M38.208,41.476l-0.911-0.911l1.102-1.102l0.529,0.529C38.709,40.496,38.474,40.993,38.208,41.476z M37.275,42.98   l-0.208-0.208l0.784-0.784c0.031-0.031,0.036-0.074,0.047-0.114l0.048,0.048C37.735,42.281,37.512,42.634,37.275,42.98z    M36.186,44.409l-0.378-0.378l0.906-0.906l0.27,0.27C36.731,43.741,36.464,44.078,36.186,44.409z M40.359,32.698l-0.29-0.29   l0.176-0.176c0.098-0.098,0.098-0.256,0-0.354s-0.256-0.098-0.354,0l-0.176,0.176l-1.167-1.167   c0.117,0.101,0.252,0.078,0.337-0.007l0.346-0.346l0.603,0.603c0.098,0.098,0.256,0.098,0.354,0   c0.039-0.039,0.051-0.091,0.059-0.142C40.334,31.815,40.348,32.193,40.359,32.698z M39.588,27.626l-0.061-0.061l0.034-0.034   C39.57,27.563,39.579,27.594,39.588,27.626z M40.236,30.899c-0.011-0.041-0.016-0.084-0.048-0.116l-0.603-0.603l0.48-0.48   C40.134,30.096,40.19,30.496,40.236,30.899z M25.568,39.109c-2.137-6.12-0.312-14.333,7.442-21.033   c2.357,1.691,4.229,4.006,5.498,6.688l-0.358-0.358c-0.098-0.098-0.256-0.098-0.354,0s-0.098,0.256,0,0.354l0.83,0.831   l-0.288,0.288c-0.098,0.098-0.098,0.256,0,0.354c0.098,0.098,0.256,0.098,0.354,0l0.316-0.315c0.142,0.362,0.275,0.728,0.396,1.1   c-0.019,0.011-0.042,0.008-0.058,0.024l-0.172,0.172l-0.521-0.521c-0.098-0.098-0.256-0.098-0.354,0s-0.098,0.256,0,0.354   l0.521,0.521l-0.598,0.598c-0.098,0.098-0.098,0.256,0,0.354c0.098,0.098,0.256,0.098,0.354,0l0.598-0.598l0.665,0.665   c0.044,0.188,0.089,0.377,0.127,0.567c-0.034,0.012-0.07,0.013-0.097,0.04l-0.636,0.636l-0.152-0.152   c-0.098-0.098-0.256-0.098-0.354,0s-0.098,0.256,0,0.354l0.152,0.152l-0.346,0.346c-0.093,0.093-0.091,0.239-0.007,0.337   l-0.027-0.027c-0.098-0.098-0.256-0.098-0.354,0s-0.098,0.256,0,0.354l1.218,1.218l-0.286,0.286l-0.191-0.191   c-0.098-0.098-0.256-0.098-0.354,0s-0.098,0.256,0,0.354l0.191,0.191l-0.54,0.54c-0.098,0.098-0.098,0.256,0,0.354   c0.098,0.098,0.256,0.098,0.354,0l0.54-0.54l0.564,0.564c0.098,0.098,0.256,0.098,0.354,0c0.098-0.098,0.098-0.256,0-0.354   l-0.564-0.564l0.286-0.286l0.292,0.292c0.095,0.095,0.25,0.1,0.351,0.001c0.001,1.491-0.184,2.954-0.547,4.365l-0.963-0.963   l0.892-0.892c0.019-0.019,0.017-0.046,0.029-0.069c0.062-0.001,0.125-0.024,0.173-0.071c0.098-0.098,0.098-0.256,0-0.354   l-1.096-1.096c-0.098-0.098-0.256-0.098-0.354,0s-0.098,0.256,0,0.354l0.889,0.889l-1.642,1.642   c-0.031-0.064-0.073-0.123-0.132-0.171c-0.214-0.175-0.529-0.142-0.703,0.072l-2.988,3.671l-0.053-6.955l2.63-2.618   c0.196-0.195,0.197-0.512,0.002-0.707c-0.195-0.196-0.512-0.197-0.707-0.002l-1.936,1.926l-0.049-6.529   c-0.002-0.275-0.226-0.496-0.5-0.496c-0.001,0-0.002,0-0.004,0c-0.276,0.002-0.498,0.228-0.496,0.504l0.055,7.287   c-0.023-0.048-0.05-0.095-0.089-0.135l-3.181-3.193c-0.195-0.196-0.511-0.197-0.707-0.001c-0.195,0.195-0.196,0.511-0.001,0.707   l3.18,3.193c0.192,0.192,0.501,0.198,0.701,0.006c0.008,0.094,0.043,0.183,0.104,0.261l0.053,7.081   c-1.27-1.296-2.79-2.388-4.431-3.154c-0.25-0.115-0.547-0.008-0.665,0.242c-0.117,0.25-0.009,0.548,0.242,0.665   c1.625,0.759,3.132,1.851,4.358,3.159c0.124,0.131,0.299,0.191,0.504,0.132l0.038,5.079C29.633,45.639,26.834,42.736,25.568,39.109   z M33.958,45.881l0.353-0.353l0.421,0.421c-0.249,0.236-0.505,0.466-0.769,0.691L33.958,45.881z"></path><path d="M11.557,9.873c0.015,0,7.28-0.398,7.295-0.398c0.276-0.015,0.487-0.25,0.472-0.526s-0.255-0.507-0.526-0.472l-5.819,0.318   c7.551-5.927,17.817-8.18,27.147-5.862c9.789,2.43,18.143,9.778,21.804,19.176c3.661,9.397,2.478,20.461-3.088,28.872   c-0.152,0.23-0.089,0.541,0.141,0.693c0.085,0.056,0.181,0.083,0.275,0.083c0.162,0,0.321-0.079,0.417-0.224   c5.742-8.678,6.962-20.091,3.186-29.787C59.084,12.049,50.465,4.469,40.366,1.961c-9.699-2.408-20.374-0.031-28.179,6.188   c0.251-1.98,0.842-3.925,1.774-5.685c0.129-0.244,0.036-0.546-0.208-0.676c-0.245-0.129-0.547-0.036-0.676,0.208   c-1.176,2.22-1.864,4.715-2.006,7.223c-0.007,0.038-0.013,0.116-0.014,0.129C11.044,9.634,11.272,9.873,11.557,9.873z"></path><path d="M25.673,64.037c9.691,2.406,20.366,0.046,28.178-6.174c-0.252,1.975-0.843,3.915-1.773,5.671   c-0.129,0.244-0.036,0.546,0.208,0.676c0.075,0.04,0.155,0.058,0.233,0.058c0.179,0,0.353-0.097,0.442-0.266   c1.329-2.51,2.007-5.537,2.015-7.305c0.019-0.388-0.239-0.582-0.522-0.571l-7.268,0.397c-0.276,0.015-0.487,0.25-0.472,0.526   c0.015,0.276,0.252,0.493,0.526,0.472l5.819-0.317c-7.55,5.928-17.814,8.182-27.147,5.862C4.842,57.833-4.791,33.137,7.198,15.018   c0.152-0.23,0.089-0.541-0.141-0.693c-0.231-0.152-0.541-0.089-0.693,0.141C-5.996,33.146,3.918,58.634,25.673,64.037z"></path><path d="M19.627,52.268c6.27,4.149,14.519,5.034,21.53,2.303c14.433-5.622,19.756-23.766,10.051-36.35   c1.283,0.203,2.54,0.605,3.685,1.211c0.245,0.129,0.547,0.036,0.676-0.208c0.129-0.244,0.036-0.546-0.208-0.676   c-1.75-0.926-3.843-1.433-5.304-1.464c-0.369-0.02-0.576,0.244-0.56,0.523l0.286,5.222c0.014,0.267,0.235,0.473,0.499,0.473   c0.009,0,0.019,0,0.028-0.001c0.276-0.015,0.487-0.25,0.472-0.526l-0.204-3.737c9.094,12.087,3.929,29.262-9.782,34.602   c-6.709,2.612-14.61,1.769-20.615-2.205C19.625,51.068,19.076,51.903,19.627,52.268z"></path><path d="M11.147,46.567c-0.242-0.129-0.546-0.037-0.676,0.208c-0.129,0.244-0.036,0.546,0.208,0.676   c1.827,0.968,4.059,1.468,5.315,1.468c0.001,0,0.026,0,0.025,0c0.284,0.017,0.541-0.221,0.524-0.527l-0.286-5.222   c-0.015-0.276-0.264-0.51-0.526-0.472c-0.276,0.015-0.487,0.25-0.472,0.526l0.204,3.737c-4.03-5.356-5.529-12.515-3.911-19.034   C15.29,12.879,32.926,6.005,45.861,14.565c0.552,0.364,1.101-0.471,0.552-0.834c-13.504-8.935-31.925-1.768-35.83,13.956   c-1.712,6.896-0.082,14.476,4.249,20.092C13.548,47.576,12.292,47.174,11.147,46.567z"></path></g></svg>