<svg height='100px' width='100px'  fill="#000000" xmlns="http://www.w3.org/2000/svg" xmlns:xlink="http://www.w3.org/1999/xlink" version="1.1" x="0px" y="0px" viewBox="0 0 100 100" style="enable-background:new 0 0 100 100;" xml:space="preserve"><g><g><g><path d="M41.6,46.3h-8.1c-0.6,0-1-0.4-1-1s0.4-1,1-1h8.1c0.6,0,1,0.4,1,1S42.2,46.3,41.6,46.3z"></path></g><g><path d="M89.7,73.8H10.3c-0.3,0-0.6-0.2-0.8-0.4c-0.2-0.3-0.2-0.6-0.1-0.9l11.1-27.5c0.2-0.4,0.5-0.6,0.9-0.6h4c0.6,0,1,0.4,1,1     s-0.4,1-1,1h-3.4L11.8,71.8h76.4L77.9,46.3h-3.4c-0.6,0-1-0.4-1-1s0.4-1,1-1h4c0.4,0,0.8,0.2,0.9,0.6l11.1,27.5     c0.1,0.3,0.1,0.7-0.1,0.9C90.3,73.6,90,73.8,89.7,73.8z"></path></g><g><path d="M67.3,46.3h-9c-0.6,0-1-0.4-1-1s0.4-1,1-1h9c0.6,0,1,0.4,1,1S67.9,46.3,67.3,46.3z"></path></g><g><g><path d="M50,60c-0.3,0-0.7-0.2-0.8-0.5c-0.4-0.7-10.5-16.1-10.5-22c0-6.2,5.1-11.3,11.3-11.3s11.3,5.1,11.3,11.3      c0,5.9-10,21.3-10.5,22C50.7,59.9,50.3,60,50,60z M50,28.3c-5.1,0-9.3,4.2-9.3,9.3c0,4,6.1,14.5,9.3,19.6      c3.2-5.1,9.3-15.6,9.3-19.6C59.3,32.5,55.1,28.3,50,28.3z"></path></g><g><path d="M50,41.4c-2.4,0-4.3-1.9-4.3-4.3s1.9-4.3,4.3-4.3c2.4,0,4.3,1.9,4.3,4.3S52.4,41.4,50,41.4z M50,34.7      c-1.3,0-2.3,1-2.3,2.3s1,2.3,2.3,2.3c1.3,0,2.3-1,2.3-2.3S51.3,34.7,50,34.7z"></path></g></g></g><g><path d="M29.3,49.1c-0.6,0-1-0.4-1-1V35.8c0-0.6,0.4-1,1-1s1,0.4,1,1v12.3C30.3,48.6,29.8,49.1,29.3,49.1z"></path></g><g><path d="M29.3,41c-4.3,0-7.8-3.5-7.8-7.8s3.5-7.8,7.8-7.8c4.3,0,7.8,3.5,7.8,7.8S33.6,41,29.3,41z M29.3,27.4    c-3.2,0-5.8,2.6-5.8,5.8s2.6,5.8,5.8,5.8s5.8-2.6,5.8-5.8S32.5,27.4,29.3,27.4z"></path></g><g><path d="M34.5,49.9H24.1c-0.6,0-1-0.4-1-1s0.4-1,1-1h10.4c0.6,0,1,0.4,1,1S35.1,49.9,34.5,49.9z"></path></g><g><path d="M70.8,49.1c-0.6,0-1-0.4-1-1V35.8c0-0.6,0.4-1,1-1s1,0.4,1,1v12.3C71.8,48.6,71.4,49.1,70.8,49.1z"></path></g><g><path d="M70.8,41c-4.3,0-7.8-3.5-7.8-7.8s3.5-7.8,7.8-7.8s7.8,3.5,7.8,7.8S75.1,41,70.8,41z M70.8,27.4c-3.2,0-5.8,2.6-5.8,5.8    s2.6,5.8,5.8,5.8s5.8-2.6,5.8-5.8S74,27.4,70.8,27.4z"></path></g><g><path d="M76,49.9H65.6c-0.6,0-1-0.4-1-1s0.4-1,1-1H76c0.6,0,1,0.4,1,1S76.6,49.9,76,49.9z"></path></g><g><path d="M64.6,22.4c-1,0-2-0.2-2.8-0.6c-3.2,0.3-5.8-1.3-5.8-3.5c0-1.4,1.1-2.6,2.9-3.2c0.7-1.4,2.6-2.3,4.8-2.3    c2.8,0,5.1,1.5,5.1,3.5c0,0.2,0,0.3,0,0.5c0.6,0.6,0.9,1.3,0.9,2C69.7,20.9,67.4,22.4,64.6,22.4z M62,19.8c0.2,0,0.3,0,0.5,0.1    c0.6,0.3,1.4,0.5,2.2,0.5c1.7,0,3.1-0.8,3.1-1.5c0-0.3-0.2-0.6-0.6-0.9c-0.4-0.3-0.6-0.9-0.3-1.3c0.1-0.1,0.1-0.2,0.1-0.3    c0-0.7-1.3-1.5-3.1-1.5c-1.6,0-2.9,0.7-3.1,1.4c-0.1,0.4-0.4,0.7-0.8,0.7c-1.2,0.3-1.9,0.9-1.9,1.4c0,0.7,1.3,1.5,3.1,1.5    c0.3,0,0.5,0,0.8-0.1C61.9,19.8,61.9,19.8,62,19.8z"></path></g><g><path d="M35.3,23.5c-1,0-2-0.2-2.8-0.6c-3.2,0.3-5.8-1.3-5.8-3.5c0-1.4,1.1-2.6,2.9-3.2c0.7-1.4,2.6-2.3,4.8-2.3    c2.8,0,5.1,1.5,5.1,3.5c0,0.2,0,0.3,0,0.5c0.6,0.6,0.9,1.3,0.9,2C40.3,21.9,38.1,23.5,35.3,23.5z M32.6,20.9c0.2,0,0.3,0,0.5,0.1    c0.6,0.3,1.4,0.5,2.2,0.5c1.7,0,3.1-0.8,3.1-1.5c0-0.3-0.2-0.6-0.6-0.9c-0.4-0.3-0.6-0.9-0.3-1.3c0.1-0.1,0.1-0.2,0.1-0.3    c0-0.7-1.3-1.5-3.1-1.5c-1.6,0-2.9,0.7-3.1,1.4c-0.1,0.4-0.4,0.7-0.8,0.7c-1.2,0.3-1.9,0.9-1.9,1.4c0,0.7,1.3,1.5,3.1,1.5    c0.3,0,0.5,0,0.8-0.1C32.5,20.9,32.6,20.9,32.6,20.9z"></path></g><g><path d="M50.3,62.9c-5.8,0-11.6-1.6-11.6-4.6c0-2.1,2.9-3.8,7.8-4.4c0.5-0.1,1,0.3,1.1,0.9c0.1,0.5-0.3,1-0.9,1.1    c-4.2,0.5-6.1,1.8-6.1,2.4c0,0.8,3.3,2.6,9.6,2.6c6.3,0,9.6-1.8,9.6-2.6c0-0.6-2-2-6.7-2.4c-0.5-0.1-1-0.5-0.9-1.1    c0.1-0.5,0.5-0.9,1.1-0.9c4.1,0.4,8.5,1.8,8.5,4.4C61.9,61.3,56.1,62.9,50.3,62.9z"></path></g></g></svg>