<svg height='100px' width='100px'  fill="#000000" xmlns="http://www.w3.org/2000/svg" xmlns:xlink="http://www.w3.org/1999/xlink" version="1.1" x="0px" y="0px" viewBox="0 0 64 64" style="enable-background:new 0 0 64 64;" xml:space="preserve"><path d="M39,20C39,9.5,30.5,1,20,1c-2.2,0-4.3,0.4-6.3,1.1c-0.5,0.2-0.8,0.8-0.6,1.3c0.2,0.5,0.8,0.8,1.3,0.6c1.8-0.6,3.7-1,5.7-1  c2.2,0,4.3,0.4,6.2,1.2l-0.9,2.6c0,0.1-0.1,0.2-0.3,0.2h-0.8c-0.3,0-0.6,0-1,0.2l-3.1,1.5c-0.8,0.4-1.3,1.2-1.3,2  c0,1.2,1,2.2,2.2,2.2l2.6,0c0,0,0.1,0,0.1,0l5.7,1.9c0,0,0.1,0,0.1,0.1l2.7,1.3c0.3,0.1,0.6,0.2,1,0.2c0.3,0,0.7-0.1,1-0.2  c0.6-0.3,1-0.7,1.1-1.3l0.5-1.4c0.7,1.7,1.1,3.5,1.2,5.5h-2.6c-0.1,0-0.1,0-0.2,0l-3.3-1.6C30.4,17,29.9,17,29.7,17h-1.2  c0,0-0.1,0-0.2-0.1L27,15.6c-0.5-0.5-1-0.7-1.6-0.7h-4.7c-0.8,0-1.6,0.5-2,1.3l-1.5,3.1c-0.2,0.5,0,1.1,0.5,1.3  c0.5,0.2,1.1,0,1.3-0.5l1.5-3.1c0,0,0.1-0.1,0.2-0.1h4.7c0,0,0.1,0,0.2,0.1l1.3,1.3c0.5,0.5,1,0.7,1.6,0.7l1.1,0  c0.1,0,0.1,0.1,0.2,0.1l3.5,1.7c0.4,0.2,0.8,0.2,1,0.2h2.6c-0.3,5.6-3.4,10.5-7.8,13.3v-5c0-1.2-1-2.2-2.2-2.2h-4.3  c0,0-0.1,0-0.2-0.1l-3.3-3.3C19,23.6,19,23.5,19,23.5c0-0.6-0.4-1-1-1s-1,0.4-1,1c0,0.6,0.2,1.1,0.7,1.6l3.3,3.3  c0.5,0.5,1,0.7,1.6,0.7h4.3c0.1,0,0.2,0.1,0.2,0.2v6.1c-2.2,1-4.6,1.6-7.1,1.6c-1.7,0-3.4-0.3-5-0.8v-5.7c0-0.6-0.2-1.2-0.7-1.6  l-5.2-5.2C9,23.6,9,23.5,9,23.5v-3c0-0.6-0.3-1.2-0.8-1.7l-1-1c0,0-0.1-0.2,0-0.3l1.2-2.3c0.5-0.8,0.4-1.9-0.4-2.6l-2.1-2.1  c0.4-0.6,0.9-1.3,1.4-1.9c0.4-0.4,0.3-1-0.1-1.4c-0.4-0.4-1-0.3-1.4,0.1C2.7,10.8,1,15.3,1,20c0,3,0.7,5.8,2,8.5  c0.2,0.3,0.5,0.6,0.9,0.6c0.2,0,0.3,0,0.4-0.1c0.5-0.2,0.7-0.8,0.4-1.3C3.6,25.2,3,22.7,3,20c0-2.7,0.7-5.4,1.9-7.7L6.6,14  c0.1,0.1,0.1,0.1,0.1,0.1c0,0-0.1,0.1-0.1,0.1l-1.2,2.5c-0.3,0.9-0.2,1.9,0.4,2.5l1,1C6.9,20.3,7,20.4,7,20.5v3  c0,0.6,0.2,1.1,0.7,1.6l5.2,5.2c0.1,0.1,0.1,0.2,0.1,0.2v5c-2.3-1.1-4.4-2.6-6.1-4.7c-0.4-0.4-1-0.5-1.4-0.1C5,31,5,31.7,5.3,32.1  C9,36.5,14.3,39,20,39C30.5,39,39,30.5,39,20z M33.4,14.3c0,0-0.1,0.1-0.1,0.1c-0.1,0-0.2,0-0.2,0l-2.5-1.2  c-0.2-0.1-0.3-0.2-0.6-0.3l-5.4-1.8c-0.3-0.2-0.7-0.2-0.9-0.2h-2.6c-0.1,0-0.2-0.1-0.2-0.2c0-0.1,0.1-0.2,0.1-0.2L24.1,9  c0.1,0,0.1,0,0.2,0h0.8c1,0,1.8-0.6,2.1-1.6L28.1,5c2.6,1.4,4.8,3.5,6.4,6L33.4,14.3z"></path><path d="M9.3,6.5c0.2,0,0.4-0.1,0.6-0.2c0.3-0.2,0.6-0.4,0.9-0.6c0.5-0.3,0.6-0.9,0.3-1.4C10.8,3.8,10.2,3.7,9.7,4  C9.4,4.2,9,4.5,8.7,4.7C8.3,5,8.2,5.7,8.5,6.1C8.7,6.4,9,6.5,9.3,6.5z"></path><path d="M27,44c0-1,0.1-1.9,0.2-2.8c0.1-0.5-0.3-1.1-0.8-1.1c-0.5-0.1-1.1,0.3-1.1,0.8c-0.2,1-0.3,2.1-0.3,3.2c0,4.3,1.4,8.3,4,11.7  c0.2,0.3,0.5,0.4,0.8,0.4c0.2,0,0.4-0.1,0.6-0.2c0.4-0.3,0.5-1,0.2-1.4C28.2,51.4,27,47.8,27,44z"></path><path d="M44,25c-1.2,0-2.5,0.1-3.7,0.3c-0.5,0.1-0.9,0.6-0.8,1.2c0.1,0.5,0.6,0.9,1.2,0.8c1.1-0.2,2.2-0.3,3.3-0.3  c9.4,0,17,7.6,17,17s-7.6,17-17,17c-3.9,0-7.7-1.4-10.7-3.9c-0.4-0.3-1.1-0.3-1.4,0.1c-0.4,0.4-0.3,1.1,0.1,1.4  c3.4,2.8,7.7,4.3,12,4.3c10.5,0,19-8.5,19-19S54.5,25,44,25z"></path><path d="M44,33c-0.6,0-1,0.4-1,1v1.1c-2.3,0.5-4,2.5-4,4.9c0,2.8,2.2,5,5,5c1.7,0,3,1.3,3,3s-1.3,3-3,3s-3-1.3-3-3c0-0.6-0.4-1-1-1  s-1,0.4-1,1c0,2.4,1.7,4.4,4,4.9V54c0,0.6,0.4,1,1,1s1-0.4,1-1v-1.1c2.3-0.5,4-2.5,4-4.9c0-2.8-2.2-5-5-5c-1.7,0-3-1.3-3-3  s1.3-3,3-3s3,1.3,3,3c0,0.6,0.4,1,1,1s1-0.4,1-1c0-2.4-1.7-4.4-4-4.9V34C45,33.4,44.6,33,44,33z"></path><path d="M47.7,56.4c-0.5,0.2-0.8,0.7-0.7,1.2c0.1,0.4,0.5,0.7,1,0.7c0.1,0,0.2,0,0.3,0c4.8-1.4,8.7-5.3,10.1-10.1  c0.2-0.5-0.2-1.1-0.7-1.2c-0.5-0.2-1.1,0.2-1.2,0.7C55.2,51.9,51.9,55.2,47.7,56.4z"></path><path d="M56.8,42.1c0.1,0.5,0.5,0.9,1,0.9c0,0,0.1,0,0.1,0c0.5-0.1,0.9-0.6,0.8-1.1c-0.1-0.7-0.2-1.5-0.4-2.2  c-0.2-0.5-0.7-0.8-1.3-0.6c-0.5,0.2-0.8,0.7-0.6,1.3C56.6,40.8,56.7,41.5,56.8,42.1z"></path></svg>