<svg height='100px' width='100px'  fill="#000000" xmlns:x="http://ns.adobe.com/Extensibility/1.0/" xmlns:i="http://ns.adobe.com/AdobeIllustrator/10.0/" xmlns:graph="http://ns.adobe.com/Graphs/1.0/" xmlns="http://www.w3.org/2000/svg" xmlns:xlink="http://www.w3.org/1999/xlink" version="1.1" x="0px" y="0px" viewBox="0 0 100 100" style="enable-background:new 0 0 100 100;" xml:space="preserve"><g><g i:extraneous="self"><g><path d="M53.2,36.3c5.5,0,10-2.8,10-8.6c0-4-3.8-8.5-6.8-10.9c0.9-1.8,1.9-4.1,1.9-4.9c0-1.1-1.4-1.7-2.2-0.5     c-1.1,1.5-1.5-0.7-2.8-0.7c-1.2,0-1.9,2-2.8,0.7c-0.9-1.2-2.4-0.5-2.4,0.5c0,1.2,0.9,3.3,1.8,5c-3,2.4-6.7,6.8-6.7,10.8     C43.2,33.6,47.7,36.3,53.2,36.3z M52.5,22.6v-1.1c0-0.1,0.1-0.2,0.2-0.2h1.1c0.1,0,0.2,0.1,0.2,0.2v1.1c1.1,0.1,2,0.9,2.1,2     c0,0.1-0.1,0.2-0.2,0.2h-1.1c-0.1,0-0.2-0.1-0.2-0.2c-0.1-0.3-0.4-0.6-0.7-0.6h-0.9c-0.6,0-1.1,0.4-1.1,1     c-0.1,0.6,0.4,1.2,1.1,1.2h0.8c1.5,0,2.7,1.3,2.5,2.8C56,30.2,55.1,31,54,31.2v1.1c0,0.1-0.1,0.2-0.2,0.2h-1.1     c-0.1,0-0.2-0.1-0.2-0.2v-1.1c-1.1-0.1-2-0.9-2.1-2c0-0.1,0.1-0.2,0.2-0.2h1.1c0.1,0,0.2,0.1,0.2,0.2c0.1,0.3,0.4,0.6,0.7,0.6     h0.9c0.6,0,1.1-0.4,1.1-1c0.1-0.6-0.4-1.2-1.1-1.2h-0.7c-1.3,0-2.5-1-2.7-2.3C50.1,24,51.1,22.8,52.5,22.6z"></path><path d="M49.4,45.5c0.2-2.1-1.3-4-3.4-4.2c-1.2-0.1-5-1-6.4-3.1c-0.3-0.4-0.7-1.4-1.2-2.3c-1.9-4.1-4.9-10.4-10.8-10.4h-0.3     l-2.9,7.7l-1.1-5h0.1c0.4,0,0.7-0.3,0.7-0.7v-1.4c0-0.4-0.3-0.7-0.7-0.7h-1.8c-0.4,0-0.7,0.3-0.7,0.7v1.4c0,0.4,0.3,0.7,0.7,0.7     h0.1l-1.1,5l-2.9-7.7h-0.3c-6.7,0-9.3,7.2-10.8,11.1c-0.2,0.5-0.4,1-0.5,1.4c-1.4,3.5-3.3,12.6-3.5,13.6c-0.4,2.1,0.9,4.1,3,4.5     c0.2,0,0.5,0.1,0.7,0.1c1.8,0,3.4-1.2,3.7-3.1c0.7-3.6,2.2-10.1,3-12.2c0.2-0.4,0.4-1,0.6-1.6L14,54.1L9.9,89.3     c-0.3,2.4,1.5,4.7,3.9,4.9c2.4,0.3,4.6-1.5,4.9-3.9l3.7-32l3.7,32c0.3,2.3,2.2,3.9,4.4,3.9c0.2,0,0.3,0,0.5,0     c2.4-0.3,4.2-2.5,3.9-4.9l-4.1-35.2l0.3-15.5c0.1,0.2,0.1,0.3,0.3,0.5c0.6,1.3,1.2,2.5,1.8,3.4c3.7,5.4,11.1,6.3,12,6.4     C47.3,49.1,49.1,47.6,49.4,45.5z"></path><circle cx="22.4" cy="14.6" r="8.9"></circle><path d="M96.2,65.9c0.7,0,1.3-0.6,1.3-1.3v-3.2c0-0.7-0.6-1.3-1.3-1.3h-3.6c-1.3-9.3-8.9-16.7-18.4-17.5v-6.3h8.2     c0.8,0,1.5-0.7,1.5-1.5v-5.2c0-0.8-0.7-1.5-1.5-1.5h-8.2v-0.7c0-1-0.8-1.8-1.8-1.8c-1,0-1.8,0.8-1.8,1.8v15.2     c-9.5,0.8-17.1,8.1-18.4,17.5h-3.6c-0.7,0-1.3,0.6-1.3,1.3v3.2c0,0.7,0.6,1.3,1.3,1.3H52v22.4h-3.4c-0.7,0-1.3,0.6-1.3,1.3v3.2     c0,0.7,0.6,1.3,1.3,1.3h47.6c0.7,0,1.3-0.6,1.3-1.3v-3.2c0-0.7-0.6-1.3-1.3-1.3h-3.4V65.9H96.2z M63.6,88.3h-5.9V65.9h5.9V88.3z      M75.3,88.3h-5.9V65.9h5.9V88.3z M87,88.3h-5.9V65.9H87V88.3z"></path></g></g></g></svg>