<svg height='100px' width='100px'  fill="#000000" xmlns="http://www.w3.org/2000/svg" data-name="Layer 1" viewBox="0 0 64 64" x="0px" y="0px"><title>Industrial- diligent- assiduous- Social media- Social</title><rect x="31" y="48" width="2" height="2"></rect><rect x="31" y="52" width="2" height="2"></rect><rect x="31" y="56" width="2" height="2"></rect><rect x="35" y="52" width="2" height="2"></rect><rect x="27" y="52" width="2" height="2"></rect><rect x="35" y="56" width="2" height="2"></rect><rect x="27" y="56" width="2" height="2"></rect><path d="M61,2H43a1,1,0,0,0-1,1V9.917A27.022,27.022,0,0,0,21.8,10,10,10,0,1,0,8.681,21.422,26.927,26.927,0,0,0,15.4,56.269L15.081,60H11v2H53V60H48.919L48.6,56.269A27.1,27.1,0,0,0,59,35a26.643,26.643,0,0,0-4.568-15H59a1,1,0,0,0,.387-1.922l-3.2-1.343V16H61a1,1,0,0,0,1-1V3A1,1,0,0,0,61,2ZM10.347,16.982a10.992,10.992,0,0,1,3.306,0C13.141,18.978,12.405,20,12,20S10.859,18.978,10.347,16.982ZM9.1,19.447A7.939,7.939,0,0,1,7.224,18.4c.027-.229.432-.6,1.2-.924A12.215,12.215,0,0,0,9.1,19.447ZM12,4c.4,0,1.141,1.022,1.653,3.018A11.254,11.254,0,0,1,12,7.143a11.254,11.254,0,0,1-1.653-.125C10.859,5.022,11.6,4,12,4ZM8.426,6.521c-.77-.324-1.175-.7-1.2-.924A7.939,7.939,0,0,1,9.1,4.553,12.215,12.215,0,0,0,8.426,6.521ZM14.9,4.553A7.939,7.939,0,0,1,16.776,5.6c-.027.229-.432.6-1.2.924A12.215,12.215,0,0,0,14.9,4.553ZM12,9.143a13.549,13.549,0,0,0,2.025-.153c.08.616.141,1.282.17,2.01H9.805c.029-.728.09-1.394.17-2.01A13.549,13.549,0,0,0,12,9.143ZM14.2,13c-.026.666-.079,1.283-.149,1.855-.051.044-.1.089-.149.134a13.583,13.583,0,0,0-3.922.021c-.08-.616-.141-1.282-.17-2.01Zm1.379,4.479c.77.324,1.175.7,1.2.924A7.939,7.939,0,0,1,14.9,19.447,12.215,12.215,0,0,0,15.574,17.479Zm2.686-.513a4.977,4.977,0,0,0-2.292-1.48A24.037,24.037,0,0,0,16.194,13h3.737A7.955,7.955,0,0,1,18.26,16.966ZM19.931,11H16.194a24.037,24.037,0,0,0-.226-2.486,4.977,4.977,0,0,0,2.292-1.48A7.955,7.955,0,0,1,19.931,11ZM5.74,7.034a4.977,4.977,0,0,0,2.292,1.48A24.037,24.037,0,0,0,7.806,11H4.069A7.955,7.955,0,0,1,5.74,7.034ZM4.069,13H7.806a24.037,24.037,0,0,0,.226,2.486,4.977,4.977,0,0,0-2.292,1.48A7.955,7.955,0,0,1,4.069,13ZM17,42V40h8v2H17Zm6-4H19V36h4Zm-4.551,6h4.265l.242,2.872-.264.086a1,1,0,0,0-.692.951V60H17.089ZM24,60V48.637l8-2.586,8,2.586V60Zm18,0V47.909a1,1,0,0,0-.692-.951l-.264-.086L41.286,44h4.265l1.36,16Zm3-22H41V36h4Zm-5,2h7v2H39V40Zm17-5a25.1,25.1,0,0,1-8.6,18.852L47.559,44H48a1,1,0,0,0,1-1V39a1,1,0,0,0-1-1H47V35a1,1,0,0,0-1-1H40a1,1,0,0,0-1,1v3H38a1,1,0,0,0-1,1v4a1,1,0,0,0,1,1h1.279l-.189,2.241-6.782-2.193a1.012,1.012,0,0,0-.616,0L24.91,46.241,24.721,44H26a1,1,0,0,0,1-1V39a1,1,0,0,0-1-1H25V35a1,1,0,0,0-1-1H18a1,1,0,0,0-1,1v3H16a1,1,0,0,0-1,1v4a1,1,0,0,0,1,1h.441L15.6,53.852a24.93,24.93,0,0,1-4.883-31.943A9.931,9.931,0,0,0,22,12.1a24.92,24.92,0,0,1,20.005,0V15a1,1,0,0,0,1,1h4.818v.735l-3.2,1.343A1,1,0,0,0,45,20h6.969A24.676,24.676,0,0,1,57,35ZM54.382,18H49.618a.993.993,0,0,0,.2-.6V16h4.364v1.4A.993.993,0,0,0,54.382,18ZM60,14H44V4H60Z"></path><rect x="46" y="6" width="6" height="2"></rect><rect x="54" y="6" width="2" height="2"></rect><rect x="48" y="10" width="2" height="2"></rect><rect x="52" y="10" width="6" height="2"></rect><path d="M17.5,28h-3a.5.5,0,0,1,0-1H18V25H14.5a2.5,2.5,0,0,0,0,5h3a.5.5,0,0,1,.5.5V32h2V30.5A2.5,2.5,0,0,0,17.5,28Z"></path><path d="M50,27.5a.5.5,0,0,1-.5.5h-3A2.5,2.5,0,0,0,44,30.5V32h2V30.5a.5.5,0,0,1,.5-.5h3a2.5,2.5,0,0,0,0-5H46v2h3.5A.5.5,0,0,1,50,27.5Z"></path><rect x="22" y="30" width="2" height="2"></rect><rect x="24" y="26" width="2" height="2"></rect><rect x="22" y="22" width="2" height="2"></rect><rect x="40" y="30" width="2" height="2"></rect><rect x="38" y="26" width="2" height="2"></rect><rect x="40" y="22" width="2" height="2"></rect></svg>