<svg height='100px' width='100px'  fill="#000000" xmlns="http://www.w3.org/2000/svg" xmlns:xlink="http://www.w3.org/1999/xlink" version="1.1" x="0px" y="0px" viewBox="0 0 100 100" enable-background="new 0 0 100 100" xml:space="preserve"><g><g><path d="M77.82,25.135c6.291-0.37,11.084-5.764,10.719-12.053c-0.37-6.286-5.762-11.088-12.056-10.719    C70.2,2.732,65.403,8.13,65.771,14.416C66.14,20.705,71.533,25.503,77.82,25.135z"></path><path d="M98.551,38.478c-1.094-2.39-3.913-3.443-6.304-2.349l-18.533,8.475l-2.537-16.023c-0.174-1.094-0.709-2.038-1.462-2.737    c-0.451-0.996-1.24-1.842-2.307-2.343l-20.466-9.63c-1.218-0.572-2.619-0.604-3.858-0.086c-1.241,0.516-2.206,1.534-2.653,2.8    l-6.78,19.132c-0.881,2.475,0.417,5.196,2.892,6.073c0.526,0.185,1.062,0.275,1.588,0.275c1.957,0,3.794-1.219,4.486-3.171    l5.024-14.178l7.247,3.41L39.101,48.186c-0.275,0.203-0.534,0.437-0.768,0.706L1.865,90.838c-1.724,1.983-1.513,4.986,0.468,6.711    c0.898,0.783,2.012,1.168,3.12,1.168c1.329,0,2.653-0.553,3.593-1.637l31.025-35.685L54.642,72.06L32.577,82.379    c-2.38,1.112-3.407,3.944-2.295,6.327c0.807,1.724,2.524,2.74,4.312,2.74c0.676,0,1.362-0.146,2.014-0.447l29.34-13.723    c1.526-0.713,2.559-2.176,2.723-3.849c0.162-1.673-0.569-3.307-1.927-4.299l-14.479-10.6l11.674-14.828l1.358,8.579    c0.232,1.471,1.139,2.747,2.449,3.449c0.702,0.374,1.474,0.564,2.251,0.564c0.671,0,1.347-0.144,1.976-0.431l24.23-11.082    C98.594,43.689,99.644,40.866,98.551,38.478z"></path></g><g><path d="M188.639,26.298c4.975,0.81,9.653-2.562,10.463-7.532c0.809-4.967-2.558-9.655-7.532-10.466    c-4.967-0.809-9.65,2.565-10.459,7.533C180.3,20.806,183.673,25.489,188.639,26.298z"></path><path d="M203.679,51.574c-2.558-0.563-5.111-0.587-7.543-0.153l-2.788-7.277l3.866,0.003c2.102,0.001,3.804-1.702,3.806-3.8    c0.001-2.09-1.682-3.788-3.766-3.808c-0.012,0-0.021-0.001-0.034-0.001l-12.556-0.007c0,0-4.303-12.111-4.754-12.92    c-1.84-3.305-6.01-4.489-9.312-2.649l-21.954,12.228c-3.302,1.838-4.489,6.007-2.649,9.31c0.578,1.038,1.387,1.861,2.326,2.452    c0.941,0.855,2.07,1.408,3.256,1.645l13.58,6.454l-0.594,16.258c-0.077,2.101,1.563,3.863,3.66,3.939    c0.036,0.001,0.07,0.002,0.107,0.002c2.051,0.02,3.757-1.6,3.834-3.663l0.684-18.757c0.055-1.518-0.796-2.921-2.169-3.573    l-10.225-4.863l-0.281,0.044l15.43-8.598l0.426,1.214l2.4,6.581c0.545,1.487,1.955,2.483,3.539,2.497    c0.01,0.001,0.02,0.001,0.031,0.001l5.693,0.005c0.028,0.153,0.065,0.305,0.123,0.456l3.252,8.476    c-5.16,2.504-9.173,7.253-10.499,13.279c-2.297,10.442,4.331,20.812,14.776,23.109c10.443,2.298,20.812-4.332,23.11-14.775    C220.753,64.238,214.124,53.872,203.679,51.574z M213.255,73.54c-1.667,7.578-9.188,12.388-16.766,10.721    c-7.579-1.667-12.387-9.188-10.719-16.767c0.926-4.211,3.663-7.561,7.213-9.426l4.618,12.049c0.334,0.869,1.071,1.462,1.916,1.647    c0.491,0.107,1.019,0.079,1.523-0.113c1.372-0.528,2.06-2.066,1.533-3.439l-4.481-11.687c1.451-0.148,2.945-0.08,4.443,0.249    C210.113,58.441,214.923,65.962,213.255,73.54z"></path><path d="M140.979,51.21c-10.692,0-19.394,8.699-19.394,19.395c0,10.694,8.701,19.396,19.394,19.396    c10.695,0,19.397-8.702,19.397-19.396C160.376,59.909,151.675,51.21,140.979,51.21z M140.979,84.678    c-7.758,0-14.07-6.313-14.07-14.073c0-7.758,6.312-14.071,14.07-14.071c7.76,0,14.071,6.313,14.071,14.071    C155.051,78.364,148.739,84.678,140.979,84.678z"></path></g><g><path d="M299.116,35.601c0.291,4.963,4.548,8.75,9.511,8.456c4.965-0.293,8.749-4.546,8.456-9.511    c-0.29-4.96-4.545-8.75-9.513-8.459C302.61,26.379,298.823,30.64,299.116,35.601z"></path><path d="M245.654,43.074c0.028,0.001,2.995,0.188,5.18,3.137c2.52,3.406,7.776,10.496,16.32,9.13    c3.746-0.595,6.954-3.664,10.06-6.63c3.211-3.071,6.537-6.256,9.668-5.945c2.42,0.232,4.365,2.336,6.614,4.774    c3.298,3.565,7.382,7.987,14.669,7.987c0.16,0,0.322,0,0.484-0.004c6.796-0.179,10.883-4.131,14.488-7.618    c3.203-3.099,5.711-5.544,9.657-5.43c1.43,0.073,2.661-1.098,2.703-2.551c0.045-1.45-1.096-2.659-2.549-2.702    c-6.138-0.19-10.031,3.583-13.464,6.904c-3.201,3.093-6.224,6.017-10.975,6.141c-3.03,0.08-5.268-0.943-7.212-2.458l-4.626-7.986    c-0.057-0.365-0.052-0.772-0.261-1.093c-0.785-1.216-1.32-2.479-2.408-3.26l-6.185-11.277l17.752-6.277    c1.956-0.689,2.981-2.835,2.288-4.79c-0.69-1.953-2.834-2.981-4.79-2.288l-21.918,7.745c-1.039,0.367-1.864,1.173-2.256,2.202    c-0.393,1.029-0.316,2.178,0.215,3.145l6.314,11.516l-28.808,9.655c-0.534-0.654-1.052-1.331-1.559-2.018    c-3.711-5.009-8.995-5.254-9.219-5.262c-1.466-0.029-2.669,1.084-2.721,2.534C243.067,41.806,244.201,43.023,245.654,43.074z     M301.289,47.801c-0.692-0.54-1.352-1.144-1.992-1.787C299.94,46.654,300.597,47.258,301.289,47.801z"></path><path d="M319.468,61.19c-3.2,3.094-6.221,6.017-10.975,6.142c-5.188,0.135-8.098-2.986-11.152-6.296    c-2.732-2.956-5.557-6.016-9.972-6.439c-5.534-0.532-9.927,3.671-13.805,7.376c-2.523,2.411-5.13,4.904-7.255,5.242    c-4.982,0.788-8.3-3.057-11.27-7.068c-3.709-5.009-8.994-5.253-9.219-5.261c-1.448-0.031-2.631,1.062-2.7,2.5    c-0.069,1.437,1.045,2.663,2.481,2.752c0.122,0.008,3.052,0.22,5.213,3.138c2.522,3.407,7.78,10.498,16.322,9.131    c3.741-0.598,6.952-3.665,10.059-6.631c3.213-3.072,6.546-6.264,9.671-5.945c2.419,0.232,4.361,2.335,6.611,4.772    c3.298,3.567,7.38,7.989,14.67,7.989c0.159,0,0.321-0.001,0.48-0.005c6.799-0.18,10.886-4.13,14.492-7.616    c3.132-3.029,5.619-5.435,9.392-5.435c0.089,0,0.178,0.001,0.267,0.003c1.423,0.07,2.66-1.099,2.701-2.549    c0.045-1.449-1.098-2.661-2.549-2.705C326.828,54.086,322.903,57.87,319.468,61.19z"></path><path d="M332.95,71.35c-6.138-0.18-10.031,3.583-13.464,6.904c-3.201,3.095-6.224,6.016-10.975,6.142    c-5.228,0.123-8.096-2.987-11.152-6.296c-2.732-2.96-5.556-6.015-9.973-6.439c-5.534-0.528-9.926,3.671-13.804,7.377    c-2.523,2.41-5.131,4.903-7.254,5.24c-4.986,0.789-8.299-3.057-11.27-7.066c-3.711-5.01-8.995-5.255-9.219-5.261    c-1.466-0.029-2.669,1.082-2.721,2.532c-0.053,1.451,1.081,2.668,2.534,2.722c0.028,0,2.995,0.185,5.18,3.136    c2.52,3.404,7.776,10.493,16.32,9.128c3.746-0.595,6.954-3.662,10.06-6.63c3.211-3.071,6.537-6.259,9.668-5.946    c2.42,0.233,4.365,2.338,6.614,4.775c3.298,3.569,7.382,7.989,14.669,7.989c0.16,0,0.322-0.001,0.484-0.005    c6.796-0.18,10.883-4.132,14.488-7.618c3.203-3.099,5.711-5.524,9.657-5.43c1.43,0.075,2.661-1.099,2.703-2.55    C335.544,72.603,334.403,71.392,332.95,71.35z"></path></g><g><path d="M418.973,16.517c0.168,2.886,2.643,5.085,5.527,4.916c2.884-0.172,5.087-2.643,4.915-5.529    c-0.169-2.882-2.64-5.085-5.529-4.916C421.003,11.157,418.802,13.634,418.973,16.517z"></path><path d="M387.9,20.859c0.018,0.002,1.742,0.111,3.012,1.825c1.465,1.978,4.52,6.099,9.484,5.307    c2.177-0.348,4.041-2.132,5.848-3.854c1.866-1.785,3.799-3.636,5.618-3.456c1.408,0.135,2.539,1.359,3.844,2.776    c1.918,2.072,4.292,4.642,8.526,4.642c0.094,0,0.188,0,0.282-0.002c3.95-0.105,6.324-2.402,8.421-4.429    c1.86-1.801,3.318-3.223,5.612-3.155c0.831,0.042,1.546-0.64,1.568-1.482c0.027-0.843-0.635-1.546-1.478-1.571    c-3.567-0.11-5.832,2.083-7.827,4.012c-1.859,1.799-3.615,3.497-6.379,3.57c-1.758,0.047-3.06-0.548-4.189-1.429l-2.688-4.642    c-0.033-0.21-0.03-0.447-0.152-0.633c-0.458-0.707-0.768-1.441-1.4-1.895l-3.593-6.554l10.315-3.648    c1.136-0.399,1.734-1.647,1.329-2.784c-0.401-1.134-1.645-1.732-2.783-1.329l-12.737,4.501c-0.605,0.214-1.084,0.681-1.312,1.28    c-0.228,0.598-0.185,1.266,0.125,1.827l3.669,6.693l-16.742,5.612c-0.31-0.38-0.611-0.776-0.906-1.173    c-2.156-2.911-5.228-3.055-5.359-3.059c-0.849-0.016-1.548,0.631-1.579,1.473C386.398,20.124,387.057,20.831,387.9,20.859z     M420.235,23.608c-0.402-0.314-0.785-0.664-1.157-1.041C419.45,22.941,419.833,23.291,420.235,23.608z"></path><path d="M430.801,31.389c-1.859,1.799-3.614,3.497-6.379,3.568c-3.015,0.08-4.707-1.733-6.481-3.655    c-1.587-1.719-3.23-3.498-5.793-3.746c-3.22-0.307-5.771,2.135-8.025,4.288c-1.469,1.4-2.981,2.851-4.219,3.046    c-2.894,0.458-4.823-1.778-6.547-4.108c-2.157-2.913-5.229-3.054-5.358-3.057c-0.841-0.018-1.53,0.618-1.57,1.453    c-0.039,0.835,0.607,1.547,1.44,1.598c0.074,0.006,1.776,0.13,3.03,1.823c1.468,1.982,4.522,6.103,9.488,5.307    c2.174-0.346,4.04-2.128,5.846-3.853c1.865-1.785,3.805-3.639,5.618-3.455c1.408,0.135,2.537,1.356,3.847,2.774    c1.914,2.074,4.287,4.643,8.525,4.643c0.091,0,0.185,0,0.277-0.003c3.953-0.103,6.329-2.4,8.423-4.425    c1.822-1.761,3.268-3.16,5.459-3.16c0.054,0,0.105,0.003,0.155,0.003c0.825,0.041,1.548-0.639,1.571-1.481    c0.025-0.844-0.639-1.547-1.483-1.574C435.08,27.262,432.797,29.459,430.801,31.389z"></path><path d="M438.638,37.295c-3.567-0.106-5.832,2.08-7.827,4.012c-1.859,1.797-3.615,3.494-6.379,3.57    c-3.036,0.068-4.702-1.738-6.478-3.661c-1.59-1.722-3.229-3.495-5.798-3.742c-3.217-0.307-5.768,2.133-8.021,4.288    c-1.469,1.399-2.984,2.848-4.218,3.045c-2.897,0.459-4.823-1.776-6.55-4.107c-2.156-2.912-5.228-3.053-5.359-3.056    c-0.849-0.019-1.548,0.627-1.579,1.472c-0.03,0.844,0.628,1.55,1.472,1.58c0.018,0,1.742,0.108,3.012,1.823    c1.465,1.978,4.52,6.099,9.484,5.304c2.177-0.345,4.041-2.126,5.848-3.853c1.866-1.786,3.799-3.636,5.618-3.455    c1.408,0.135,2.539,1.358,3.844,2.775c1.918,2.074,4.292,4.643,8.526,4.643c0.094,0,0.188,0,0.282-0.003    c3.95-0.104,6.324-2.402,8.421-4.429c1.86-1.799,3.318-3.21,5.612-3.156c0.831,0.046,1.546-0.636,1.568-1.48    C440.144,38.021,439.481,37.319,438.638,37.295z"></path></g><g><circle cx="395.664" cy="56.783" r="4.952"></circle><path d="M404.956,67.521c-0.477-1.039-1.699-1.496-2.739-1.021l-8.045,3.682l-1.104-6.961c-0.073-0.475-0.305-0.883-0.633-1.188    c-0.196-0.43-0.54-0.799-1.002-1.018l-8.888-4.182c-0.527-0.248-1.137-0.26-1.674-0.035c-0.541,0.223-0.959,0.664-1.152,1.215    l-2.943,8.309c-0.383,1.074,0.181,2.258,1.254,2.639c0.229,0.078,0.462,0.117,0.69,0.117c0.85,0,1.647-0.527,1.947-1.375    l2.183-6.16l3.147,1.484l-6.854,8.709c-0.122,0.09-0.233,0.191-0.335,0.305l-15.837,18.217c-0.748,0.861-0.656,2.162,0.206,2.914    c0.388,0.34,0.872,0.506,1.353,0.506c0.575,0,1.151-0.24,1.562-0.711l13.47-15.496l6.328,4.631l-9.582,4.484    c-1.035,0.482-1.478,1.711-0.997,2.746c0.351,0.748,1.097,1.191,1.874,1.191c0.293,0,0.589-0.064,0.873-0.197l12.741-5.959    c0.662-0.309,1.111-0.945,1.183-1.668c0.069-0.73-0.248-1.438-0.84-1.869l-6.285-4.602l5.069-6.441l0.591,3.725    c0.102,0.641,0.495,1.193,1.062,1.498c0.306,0.164,0.642,0.248,0.977,0.248c0.293,0,0.586-0.062,0.859-0.188l10.521-4.812    C404.976,69.785,405.431,68.557,404.956,67.521z"></path></g><g><path d="M442.377,60.266c2.731,0.443,5.3-1.41,5.744-4.137c0.446-2.729-1.402-5.302-4.134-5.748    c-2.728-0.443-5.301,1.41-5.744,4.137C437.798,57.248,439.65,59.82,442.377,60.266z"></path><path d="M450.634,74.143c-1.4-0.309-2.807-0.322-4.141-0.084l-1.531-3.996l2.123,0.004c1.153,0,2.088-0.936,2.089-2.088    c0-1.146-0.923-2.08-2.066-2.09c-0.007,0-0.012,0-0.018,0l-6.896-0.006c0,0-2.364-6.65-2.611-7.094    c-1.01-1.816-3.299-2.467-5.113-1.455l-12.054,6.715c-1.814,1.01-2.464,3.299-1.455,5.113c0.318,0.568,0.762,1.021,1.278,1.346    c0.517,0.471,1.137,0.771,1.785,0.902l7.459,3.543l-0.327,8.932c-0.041,1.15,0.859,2.117,2.011,2.162c0.02,0,0.038,0,0.06,0    c1.124,0.01,2.061-0.879,2.104-2.012l0.374-10.299c0.03-0.834-0.435-1.605-1.188-1.963l-5.616-2.672l-0.155,0.025l8.474-4.721    l0.235,0.666l1.316,3.615c0.3,0.816,1.074,1.365,1.944,1.371c0.003,0,0.01,0,0.016,0l3.128,0.002    c0.015,0.086,0.033,0.168,0.065,0.25l1.787,4.656c-2.833,1.373-5.037,3.982-5.767,7.293c-1.26,5.728,2.38,11.426,8.116,12.688    c5.733,1.26,11.426-2.379,12.69-8.115C460.011,81.098,456.37,75.404,450.634,74.143z M455.895,86.203    c-0.915,4.162-5.046,6.803-9.205,5.891c-4.165-0.918-6.804-5.049-5.886-9.207c0.506-2.312,2.01-4.152,3.959-5.176l2.537,6.615    c0.184,0.479,0.587,0.803,1.052,0.902c0.271,0.061,0.559,0.043,0.836-0.061c0.754-0.289,1.131-1.135,0.841-1.889l-2.459-6.416    c0.794-0.082,1.616-0.047,2.439,0.135C454.169,77.914,456.81,82.045,455.895,86.203z"></path><path d="M416.208,73.943c-5.871,0-10.651,4.775-10.651,10.648c0,5.873,4.78,10.652,10.651,10.652    c5.873,0,10.65-4.779,10.65-10.652C426.858,78.719,422.081,73.943,416.208,73.943z M416.208,92.322    c-4.261,0-7.729-3.469-7.729-7.731c0-4.258,3.468-7.727,7.729-7.727c4.26,0,7.726,3.469,7.726,7.727    C423.934,88.854,420.468,92.322,416.208,92.322z"></path></g><path d="M319.842,217.465c-3.164-6.835-7.85-23.325-2.93-36.803c0.269-0.734,0.304-1.491,0.176-2.211   c0.283-1.353,0.271-2.788-0.109-4.215c-1.727-6.465-8.883-19.079-10.301-21.543c-2.515-4.37-8.091-5.872-12.471-3.357   c-1.201,0.689-2.174,1.616-2.917,2.681c-0.128-0.748-0.253-1.507-0.375-2.278c3.629-1.956,6.095-5.791,6.095-10.204   c0-6.395-5.182-11.58-11.579-11.58c-6.397,0-11.58,5.185-11.58,11.58c0,1.182,0.18,2.318,0.507,3.393   c-0.405,0.511-0.695,1.121-0.793,1.802c-0.688,4.924-1.812,16.871,2.635,21.447c1.261,1.304,2.945,2.021,4.741,2.021   c0.255,0,0.512-0.012,0.825-0.047l0.322-0.057c0.546-0.115,2.065-0.567,4.552-2.235c2.096,6.135,4.078,6.465,5.39,6.683   c0.338,0.058,0.662,0.083,0.971,0.083c1.245,0,2.25-0.425,3.077-1.105c1.615,3.22,2.883,6.027,3.255,7.424   c0.019,0.073,0.055,0.14,0.077,0.212c-0.175,0.301-0.326,0.62-0.426,0.97c-0.736,2.609-7.171,25.764-6.573,35.901   c0.133,2.266,2.011,4.013,4.25,4.013c0.084,0,0.169,0,0.253-0.01c2.351-0.136,4.143-2.154,4.002-4.506   c-0.378-6.441,3.248-21.764,5.43-30.002c0.177,0.036,0.352,0.072,0.531,0.097c-2.848,17.646,4.852,34.607,5.23,35.425   c0.721,1.555,2.262,2.472,3.872,2.472c0.6,0,1.208-0.129,1.786-0.393C319.898,222.132,320.829,219.599,319.842,217.465z    M283.378,150.928c0.4,2.641,0.806,4.966,1.214,6.991c-1.497,1.232-2.612,1.952-3.316,2.35c-0.6-1.593-0.892-5.63-0.614-10.186   C281.517,150.472,282.427,150.759,283.378,150.928z"></path><g><path d="M192.292,162.152c-1.31-1.02-3.332-0.766-4.353,0.544c-2.079,2.675-5.36,5.983-7.556,7.108    c-1.229-0.846-4.167-3.123-9.376-8.553c-0.303-0.316-0.669-0.545-1.064-0.699c-0.811-0.537-1.741-0.924-2.758-1.112    c-0.352-0.065-0.702-0.096-1.048-0.11c-0.256-0.23-0.543-0.426-0.868-0.561c-0.108-0.047-10.771-4.952-10.458-26.404    c0.012-0.829-0.299-1.612-0.877-2.207c-0.577-0.594-1.352-0.927-2.227-0.939c-1.683,0-3.075,1.37-3.101,3.056    c-0.27,18.447,6.817,26.848,11.108,30.232c-0.594,0.849-1.023,1.83-1.224,2.912c-0.878,4.73-2.708,11.227-3.935,12.975    c-1.778,2.541-1.75,5.811-0.184,8.279c0.621,1.674,1.307,3.297,1.941,4.781c0.711,1.664,1.638,3.84,1.935,5.033    c-1.088,1.291-4.109,4.053-7.079,6.441c-1.499,1.209-1.736,3.402-0.528,4.9c0.686,0.852,1.695,1.297,2.714,1.297    c0.765,0,1.536-0.252,2.18-0.77c4.591-3.693,7.004-6.074,8.29-7.709c1.575,5.25,4.42,16.209,3.953,20.518    c-0.206,1.908,1.176,3.631,3.088,3.834c0.128,0.014,0.254,0.021,0.378,0.021c1.756,0,3.265-1.324,3.458-3.107    c0.814-7.523-4.583-24.686-5.19-26.295c-1.136-3.002-2.31-5.893-3.213-8.057c0.169-0.195,0.333-0.395,0.485-0.607    c2.796-3.998,4.71-11.079,5.713-15.574c3.924,3.533,5.829,4.494,6.577,4.745l0.793,0.272l0.816-0.164    c5.012-1,10.566-7.696,12.152-9.727C193.883,165.156,193.64,163.203,192.292,162.152z"></path><path d="M171,158c4.933,0,8.935-4,8.935-8.938c0-4.932-4.002-8.932-8.935-8.932c-4.937,0-8.936,4-8.936,8.932    C162.064,154,166.063,158,171,158z"></path></g><g><path d="M48.708,157.67c7.635,0,13.831-6.195,13.831-13.839c0-7.638-6.196-13.831-13.831-13.831    c-7.645,0-13.837,6.193-13.837,13.831C34.871,151.475,41.063,157.67,48.708,157.67z"></path><path d="M75.411,210.244c0.793,0.629,1.74,0.935,2.681,0.935c1.27,0,2.529-0.558,3.382-1.631c1.481-1.865,1.17-4.581-0.695-6.062    c-9.213-7.315-18.863-29.35-21.805-37.223c-0.229-0.612-0.59-1.132-1.028-1.56c-0.312-0.699-0.815-1.254-1.425-1.631    c-2.122-2.334-5.213-3.761-8.586-3.642c-5.12,0.17-9.289,3.796-10.399,8.559c-3.077,6.745-11.635,24.175-21.689,33.165    c-1.775,1.589-1.929,4.316-0.34,6.093c0.852,0.954,2.033,1.438,3.218,1.438c1.024,0,2.051-0.362,2.874-1.097    c6.17-5.518,11.689-13.533,15.975-20.874c0.038,3.036,0.064,6.316,0.064,9.711c0,1.057,0.158,2.076,0.435,3.044    c-22.03,11.206-25.333,15.346-23.317,20.664c1.187,3.139,3.998,4.415,8.776,4.413c3.938,0,9.217-0.864,16.03-2.273    c2.803-0.578,5.57-1.203,8.062-1.789c10.895,2.809,17.833,4.038,22.329,4.038c5.186,0,7.141-1.629,8.235-4.341    c1.151-2.84,3.039-7.53-19.064-19.914c0.439-1.202,0.696-2.489,0.696-3.842c0-2.595-0.016-5.112-0.038-7.511    C64.067,197.017,69.543,205.584,75.411,210.244z M48.532,211.896c-1.13-0.298-2.327-0.626-3.601-0.982    c0.684-0.354,1.397-0.716,2.149-1.084c0.705,0.178,1.437,0.292,2.195,0.292c0.519,0,1.023-0.053,1.511-0.142    c0.211,0.172,0.436,0.324,0.681,0.457c0.294,0.163,0.582,0.329,0.874,0.487C51.087,211.259,49.806,211.58,48.532,211.896z"></path></g><g><circle cx="432.518" cy="142.266" r="12.107"></circle><path d="M437.302,178.848c-0.534-0.284-3.714-1.97-6.849-3.434c2.302-3.919,4.095-10.453,5.304-15.975    c0.394-1.805-0.748-3.587-2.552-3.982c-1.809-0.389-3.589,0.747-3.983,2.553c-1.114,5.092-2.728,10.294-3.967,13.031    c-1.537-2.962-3.261-8.965-4.093-11.872c-0.152-0.528-0.299-1.036-0.441-1.528c0.025-1.532-0.338-3.089-1.149-4.518    c-2.421-4.267-7.845-5.768-12.115-3.341c-0.785,0.445-19.26,11.152-20.14,30.991c-0.193,4.322,2.734,8.054,6.788,9.03    c0.818,0.363,1.753,0.483,2.689,0.254c0.054-0.014,0.105-0.024,0.159-0.037c0.845-0.072,1.654-0.264,2.418-0.557    c10.62-2.301,18.149-1.801,21.846,1.486c0.88,0.782,1.554,1.732,2.064,2.803c-1.393,2.864-3.258,5.949-4.473,7.959    c-3.046,5.034-5.674,9.383-5.877,13.05c-0.124,2.305,1.642,4.277,3.945,4.402c0.08,0.006,0.157,0.008,0.231,0.008    c2.206,0,4.051-1.726,4.172-3.952c0.06-1.111,1.387-3.606,2.843-6.102c-0.058,0.47-0.116,0.933-0.173,1.381    c-0.214,1.7-0.418,3.302-0.491,4.67c-0.126,2.305,1.641,4.275,3.944,4.401c0.079,0.006,0.155,0.006,0.233,0.006    c2.204,0,4.049-1.725,4.171-3.95c0.058-1.072,0.234-2.464,0.438-4.078c0.626-4.959,1.448-11.517-0.021-17.464    c1.308-3.599,1.738-7.068,0.424-10.121c0.602,0.309,1.119,0.582,1.506,0.788c0.502,0.267,1.041,0.392,1.57,0.392    c1.196,0,2.354-0.64,2.955-1.77C439.546,181.743,438.931,179.717,437.302,178.848z M414.131,166.714    c1.949,4.701,3.79,8.22,5.718,10.442c-3.832-0.239-8.526,0.078-14.199,0.954C407.212,172.72,411.501,168.738,414.131,166.714z"></path></g><g><path d="M34.806,295.048c2.583,0.774,10.933,0.908,16.389,0.908c1.597,0,2.949-0.012,3.831-0.021    c1.734-0.02,3.126-1.445,3.104-3.179c-0.019-1.723-1.421-3.105-3.14-3.105c-0.013,0-0.024,0-0.036,0    c-7.532,0.087-16.688-0.126-18.34-0.621c-1.479-0.562-3.472-6.865-4.322-9.556c-0.118-0.372-0.231-0.726-0.347-1.087    c-0.014-2.581-1.212-5.121-3.471-6.742c-3.745-2.686-8.958-1.834-11.649,1.91c-16.534,23.01-14.795,29.524-14.141,31.978    c0.803,3.009,3.16,5.168,5.974,5.903c0.52,0.254,1.096,0.409,1.712,0.409c0.015,0,0.027,0,0.039,0    c11.486-0.119,19.033,1.907,22.411,5.996c3.623,4.387,2.207,11.385,1.07,17.009c-0.449,2.214-0.871,4.303-0.97,6.127    c-0.12,2.167,1.54,4.018,3.706,4.136c0.072,0.005,0.145,0.005,0.218,0.005c2.07,0,3.802-1.618,3.917-3.713    c0.07-1.252,0.438-3.07,0.827-4.997c1.39-6.874,3.297-16.293-2.713-23.567c-3.914-4.739-10.461-7.538-19.838-8.484    c0.068-0.575,0.083-1.162,0.028-1.754c0.699-2.607,4.542-9.381,9.007-15.979C29.606,290.665,31.548,294.07,34.806,295.048z"></path><circle cx="39.931" cy="261.129" r="11.375"></circle><path d="M66.203,299.567H53.636c-1.301,0-2.354,1.796-2.354,3.097c0,1.3,1.054,3.098,2.354,3.098h12.567    c1.301,0,2.355-1.798,2.355-3.098C68.559,301.363,67.504,299.567,66.203,299.567z"></path><path d="M79.468,283.798c-0.005-0.013-0.014-0.023-0.019-0.035l8.649-20.443c0.845-1.998-0.089-4.304-2.085-5.147    c-1.997-0.842-4.303,0.088-5.147,2.085l-12.477,29.49c-0.847,2.001,0.088,4.305,2.085,5.149c0.498,0.21,1.019,0.312,1.529,0.312    c1.529,0,2.983-0.901,3.617-2.399l1.437-3.395l4.433,10.152h-7.434c-1.302,0-2.354,1.796-2.354,3.097    c0,1.3,1.053,3.098,2.354,3.098h14.559L79.468,283.798z"></path></g><g><circle cx="162.689" cy="273.241" r="12.912"></circle><path d="M187.678,314.509h-13.169c-1.363,0-2.468,1.882-2.468,3.246c0,1.362,1.104,3.245,2.468,3.245h13.169    c1.362,0,2.468-1.883,2.468-3.245C190.145,316.391,189.04,314.509,187.678,314.509z"></path><path d="M201.576,297.986c-0.007-0.014-0.015-0.025-0.02-0.037l9.062-21.421c0.885-2.094-0.094-4.509-2.186-5.393    c-2.092-0.882-4.507,0.092-5.393,2.185l-13.073,30.899c-0.888,2.096,0.093,4.511,2.186,5.397c0.521,0.22,1.066,0.326,1.603,0.326    c1.602,0,3.126-0.944,3.789-2.513l1.506-3.558l4.643,10.637h-7.788c-1.363,0-2.468,1.882-2.468,3.246    c0,1.362,1.105,3.245,2.468,3.245h15.255L201.576,297.986z"></path><path d="M139.132,320.98c0.016-0.393,0.016-0.788-0.022-1.186c0.778-2.9,5.055-10.436,10.021-17.778    c1.707,4.498,3.867,8.285,7.49,9.373c2.876,0.862,12.164,1.012,18.235,1.012c1.777,0,3.28-0.014,4.262-0.025    c1.93-0.022,3.479-1.607,3.454-3.535c-0.021-1.917-1.582-3.456-3.493-3.456c-0.015,0-0.027,0-0.04,0    c-8.38,0.098-18.565-0.139-20.405-0.69c-1.644-0.625-3.863-7.637-4.808-10.63c-0.131-0.414-0.258-0.809-0.386-1.21    c-0.016-2.871-1.349-5.698-3.86-7.501c-4.167-2.989-9.968-2.04-12.96,2.125c-14.984,20.854-16.48,29.528-16.125,33.502H139.132z"></path></g><g><circle cx="296.426" cy="261.326" r="9.874"></circle><path d="M320.638,268.973c4-7.002,3.265-19.625,3.23-20.16c-0.103-1.634-1.493-2.848-3.142-2.774    c-1.635,0.101-2.878,1.507-2.775,3.142c0.191,3.151,0.127,12.323-2.462,16.849c-1.01,1.766-3.423,2.98-6.218,4.39    c-0.967,0.485-1.965,0.99-2.959,1.539c-1.875,0.077-3.727,0.808-5.17,2.218c-0.478,0.469-0.877,0.986-1.213,1.533    c-3.014,1.06-8.728,2.564-13.072,1.693c-2.052-0.409-8.934-3.196-11.779-8.073c-0.828-1.414-2.642-1.893-4.057-1.067    c-1.415,0.824-1.892,2.64-1.066,4.056c3.868,6.628,12.274,10.206,15.739,10.9c1.313,0.265,2.671,0.376,4.026,0.376    c3.432,0,6.832-0.706,9.405-1.427c0.356,1.137,0.973,2.214,1.869,3.128c0.038,0.045,2.706,2.946,4.44,7.639    c-10.187-2.67-17.025-0.58-21.014,1.726c-5.559,3.211-8.499,8.409-9.33,11.885c-0.474,1.993,0.756,3.991,2.746,4.469    c0.29,0.066,0.576,0.1,0.863,0.1c1.677,0,3.196-1.145,3.601-2.849c0.396-1.645,2.062-5.012,5.829-7.185    c3.424-1.979,7.731-2.502,12.839-1.566c-1.888,0.428-3.457,1.213-4.732,2.365c-4.893,4.428-3.205,12.172-1.97,17.827    c0.385,1.761,0.964,4.418,0.836,5.228c-0.561,1.944,0.543,3.986,2.485,4.577c0.358,0.106,0.72,0.159,1.076,0.159    c1.591,0,3.061-1.031,3.547-2.631c0.722-2.387,0.094-5.266-0.701-8.912c-0.801-3.666-2.009-9.204-0.303-10.749    c0.462-0.414,2.144-1.372,7.288-0.445c1.366,1.779,3.479,2.969,5.899,3.075c0.116,0.006,0.235,0.009,0.353,0.009    c4.191,0,7.678-3.301,7.865-7.531c0.635-14.31-7.08-24.459-9.561-27.334C316.031,273.623,318.952,271.922,320.638,268.973z"></path><path d="M301.16,334.431c-5.65-1.728-24.105-18.988-27.311-23.346c-2.57-3.49-3.294-8.938-3.306-9.02    c-0.184-1.458-1.498-2.498-2.975-2.315c-1.464,0.182-2.502,1.515-2.319,2.978c0.035,0.28,0.888,6.884,4.304,11.525    c2.816,3.826,22.286,22.906,30.05,25.276c0.259,0.08,0.522,0.119,0.782,0.119c1.141,0,2.199-0.741,2.55-1.89    C303.365,336.348,302.571,334.856,301.16,334.431z"></path><circle cx="266.35" cy="318.858" r="3.736"></circle><path d="M287.104,334.396c-2.061,0-3.736,1.672-3.736,3.733c0,2.066,1.675,3.74,3.736,3.74c2.065,0,3.737-1.674,3.737-3.74    C290.842,336.067,289.17,334.396,287.104,334.396z"></path></g><g><path d="M412.524,270.938c5.821,0,10.539-4.721,10.539-10.545c0-5.818-4.718-10.538-10.539-10.538    c-5.823,0-10.54,4.72-10.54,10.538C401.984,266.217,406.701,270.938,412.524,270.938z"></path><path d="M412.17,273.178c-0.03,0-0.062,0-0.094,0.001c-3.355,0.038-6.212,2.087-7.448,4.986c-0.334,0.465-0.764,1.048-1.295,1.756    l9.838,3.307l8.239-2.884c-0.674-0.855-1.237-1.573-1.688-2.15C418.478,275.244,415.562,273.178,412.17,273.178z"></path><path d="M420.58,303.806c-0.005-0.939-0.014-1.983-0.022-3.074l-7.809,3.32l-8.597-4.069c0.026,3.086,0.044,5.781,0.044,7.318    c-0.561,0.634-1.028,1.316-1.41,2.04c-0.48,0.019-0.948,0.037-1.447,0.055c-2.443,0.085-4.355,2.136-4.269,4.58    c0.082,2.367,2.012,4.228,4.353,4.265c0.401,4.596,1.953,9.454,3.223,13.432c0.94,2.933,1.824,5.703,2.127,7.691    c0.332,2.193,2.219,3.764,4.371,3.764c0.22,0,0.444-0.018,0.67-0.052c2.417-0.366,4.079-2.625,3.711-5.042    c-0.407-2.685-1.396-5.779-2.444-9.058c-1.354-4.237-2.505-8.123-2.827-11.098c5.672-0.288,10.144-0.634,13.344-1.027    c4.026-0.497,9.541-1.177,9.722-5.871C433.468,307.066,430.578,305.267,420.58,303.806z"></path><path d="M408.189,290.156c-0.763-1.666-2.733-2.398-4.402-1.635l-5.117,2.345v-4.931c-1.533,1.934-3.38,4.233-5.62,6.978    c-0.28,0.342-0.451,0.733-0.539,1.137c-0.801,0.952-1.039,2.311-0.487,3.516c0.56,1.22,1.764,1.938,3.022,1.938    c0.463,0,0.933-0.097,1.381-0.302l10.128-4.643C408.221,293.795,408.954,291.823,408.189,290.156z"></path><path d="M433.106,294.875c-2.153-2.64-4.033-4.958-5.659-6.975v4.449l-7.18-3.113c-1.684-0.727-3.638,0.045-4.367,1.727    c-0.729,1.683,0.043,3.638,1.727,4.367l12.254,5.312c0.429,0.185,0.878,0.274,1.318,0.274c1.283,0,2.504-0.749,3.048-2    C434.885,297.443,434.373,295.762,433.106,294.875z"></path></g></g><g display="none"><text display="inline"><tspan x="0" y="0" font-family="'MyriadPro-Regular'" font-size="12">&lt;nyt_prefs></tspan><tspan x="0" y="14.4" font-family="'MyriadPro-Regular'" font-size="12">  &lt;nyt_prefix>&lt;/nyt_prefix></tspan><tspan x="0" y="28.8" font-family="'MyriadPro-Regular'" font-size="12">  &lt;nyt_suffix>&lt;/nyt_suffix></tspan><tspan x="0" y="43.2" font-family="'MyriadPro-Regular'" font-size="12">  &lt;nyt_base_path>~/Dropbox/MyCloud/NounProject&lt;/nyt_base_path></tspan><tspan x="0" y="57.6" font-family="'MyriadPro-Regular'" font-size="12">  &lt;nyt_scaling>100&lt;/nyt_scaling></tspan><tspan x="0" y="72" font-family="'MyriadPro-Regular'" font-size="12">  &lt;nyt_transparency>true&lt;/nyt_transparency></tspan><tspan x="0" y="86.4" font-family="'MyriadPro-Regular'" font-size="12">  &lt;nyt_embedImage>false&lt;/nyt_embedImage></tspan><tspan x="0" y="100.8" font-family="'MyriadPro-Regular'" font-size="12">  &lt;nyt_embedFont>true&lt;/nyt_embedFont></tspan><tspan x="0" y="115.2" font-family="'MyriadPro-Regular'" font-size="12">  &lt;nyt_trimEdges>false&lt;/nyt_trimEdges></tspan><tspan x="0" y="129.6" font-family="'MyriadPro-Regular'" font-size="12">  &lt;nyt_format>SVG&lt;/nyt_format></tspan><tspan x="0" y="144" font-family="'MyriadPro-Regular'" font-size="12">  &lt;nyt_artboards>all&lt;/nyt_artboards></tspan><tspan x="0" y="158.4" font-family="'MyriadPro-Regular'" font-size="12">  &lt;nyt_layers>all&lt;/nyt_layers></tspan><tspan x="0" y="172.8" font-family="'MyriadPro-Regular'" font-size="12">  &lt;nyt_exportArtboards>false&lt;/nyt_exportArtboards></tspan><tspan x="0" y="187.2" font-family="'MyriadPro-Regular'" font-size="12">  &lt;nyt_ignoreWarnings>false&lt;/nyt_ignoreWarnings></tspan><tspan x="0" y="201.6" font-family="'MyriadPro-Regular'" font-size="12">&lt;/nyt_prefs></tspan></text></g></svg>