<svg height='100px' width='100px'  fill="#000000" xmlns="http://www.w3.org/2000/svg" xmlns:xlink="http://www.w3.org/1999/xlink" version="1.1" x="0px" y="0px" viewBox="0 0 100 100" style="enable-background:new 0 0 100 100;" xml:space="preserve"><path d="M57.44,75.372c0.308,0,0.61-0.141,0.807-0.407l6.749-9.175l6.749,9.175c0.196,0.266,0.499,0.407,0.807,0.407  c0.205,0,0.413-0.063,0.592-0.194c0.267-0.196,0.407-0.5,0.407-0.808c0-0.205-0.063-0.413-0.194-0.591l-7.114-9.672  c1.258-1.709,4.471-6.36,4.471-9.283c0-3.152-2.564-5.717-5.717-5.717s-5.717,2.564-5.717,5.717c0,3.149,3.185,7.627,4.462,9.296  l-7.105,9.659c-0.131,0.178-0.194,0.386-0.194,0.591c0,0.308,0.141,0.611,0.407,0.808C57.027,75.309,57.234,75.372,57.44,75.372z   M64.996,51.107c2.05,0,3.717,1.667,3.717,3.717c0,1.937-2.254,5.529-3.732,7.614c-1.475-2.011-3.701-5.501-3.701-7.614  C61.279,52.775,62.946,51.107,64.996,51.107z"></path><path d="M79.709,17.707H50c-0.553,0-1,0.448-1,1v17.037c0,0.552,0.447,1,1,1h29.709c0.553,0,1-0.448,1-1V18.707  C80.709,18.154,80.262,17.707,79.709,17.707z M78.709,34.744H51V19.707h27.709V34.744z"></path><path d="M79.709,41.812H50c-0.553,0-1,0.448-1,1v38.854c0,0.552,0.447,1,1,1h29.709c0.553,0,1-0.448,1-1V42.812  C80.709,42.26,80.262,41.812,79.709,41.812z M78.709,80.667H51V43.812h27.709V80.667z"></path><path d="M57.427,25.511h14.854c0.553,0,1-0.448,1-1s-0.447-1-1-1H57.427c-0.553,0-1,0.448-1,1S56.874,25.511,57.427,25.511z"></path><path d="M57.427,30.753h14.854c0.553,0,1-0.448,1-1s-0.447-1-1-1H57.427c-0.553,0-1,0.448-1,1S56.874,30.753,57.427,30.753z"></path><path d="M37.048,30.501c-0.911-0.454-1.075-0.536-1.075-1.903v-1.592c0.867-0.251,1.506-1.042,1.506-1.988v-5.232  c0-1.146-0.933-2.079-2.079-2.079h-8.157c-1.146,0-2.079,0.933-2.079,2.079v5.232c0,1.025,0.748,1.874,1.727,2.043v1.187  c0,1.488-0.181,1.585-1.186,2.12c-0.573,0.305-1.358,0.723-2.253,1.504c-2.539,2.214-3.995,5.397-3.995,8.733v39.057  c0,1.657,1.363,3.005,3.04,3.005h17.649c1.677,0,3.04-1.348,3.04-3.005V40.605c0-3.237-1.386-6.356-3.802-8.558  C38.459,31.205,37.644,30.798,37.048,30.501z M27.163,19.786c0-0.043,0.035-0.079,0.079-0.079h8.157  c0.044,0,0.079,0.036,0.079,0.079v5.232c0,0.043-0.035,0.079-0.079,0.079h-8.157c-0.044,0-0.079-0.035-0.079-0.079V19.786z   M41.186,60.11H21.456v-3.804h19.729V60.11z M21.456,62.11h19.729v3.803H21.456V62.11z M41.186,54.306H21.456v-3.803h19.729V54.306z   M40.146,80.667H22.496c-0.573,0-1.04-0.451-1.04-1.005V67.913h19.729v11.748C41.186,80.215,40.719,80.667,40.146,80.667z   M41.186,48.503H21.456v-7.898c0-2.758,1.206-5.392,3.31-7.227c0.723-0.63,1.337-0.957,1.878-1.246  c1.397-0.744,2.246-1.376,2.246-3.885v-1.151h5.083v1.501c0,2.424,0.864,3.036,2.184,3.693c0.544,0.271,1.161,0.579,1.88,1.234  c2.031,1.851,3.149,4.365,3.149,7.08V48.503z"></path><path d="M35.455,34.841c-0.485-0.265-1.094-0.083-1.355,0.402c-0.264,0.485-0.083,1.092,0.402,1.355  c1.527,0.828,2.477,2.401,2.477,4.106v2.108c0,0.552,0.447,1,1,1s1-0.448,1-1v-2.108C38.979,38.266,37.628,36.019,35.455,34.841z"></path><path d="M10.989,90h78c0.553,0,1-0.448,1-1V11c0-0.552-0.447-1-1-1h-78c-0.553,0-1,0.448-1,1v78C9.989,89.552,10.437,90,10.989,90z   M11.989,12h76v76h-76V12z"></path></svg>