<svg height='100px' width='100px'  xmlns:dc="http://purl.org/dc/elements/1.1/" xmlns:cc="http://creativecommons.org/ns#" xmlns:rdf="http://www.w3.org/1999/02/22-rdf-syntax-ns#" xmlns:svg="http://www.w3.org/2000/svg" xmlns="http://www.w3.org/2000/svg" xmlns:sodipodi="http://sodipodi.sourceforge.net/DTD/sodipodi-0.dtd" xmlns:inkscape="http://www.inkscape.org/namespaces/inkscape" fill="#000000" version="1.1" x="0px" y="0px" viewBox="0 0 100 100"><path style="font-size:medium;font-style:normal;font-variant:normal;font-weight:normal;font-stretch:normal;text-indent:0;text-align:start;text-decoration:none;line-height:normal;letter-spacing:normal;word-spacing:normal;text-transform:none;direction:ltr;block-progression:tb;writing-mode:lr-tb;text-anchor:start;baseline-shift:baseline;opacity:1;color:#000000;fill:#000000;fill-opacity:1;stroke:none;stroke-width:2;marker:none;visibility:visible;display:inline;overflow:visible;enable-background:accumulate;font-family:Sans;-inkscape-font-specification:Sans" d="M 49.84375 13 A 1.0001 1.0001 0 0 0 49.46875 13.15625 L 12.46875 36.125 A 1.0001 1.0001 0 0 0 12 36.96875 L 12 42 A 1.0001 1.0001 0 0 0 13 43 L 20 43 L 20 73 L 13 73 A 1.0001 1.0001 0 0 0 12.90625 73 A 1.0001 1.0001 0 0 0 12 74 L 12 78 L 8 78 A 1.0001 1.0001 0 0 0 7 79 L 7 86 A 1.0001 1.0001 0 0 0 8 87 L 92 87 A 1.0001 1.0001 0 0 0 93 86 L 93 79 A 1.0001 1.0001 0 0 0 92 78 L 88 78 L 88 74 A 1.0001 1.0001 0 0 0 87 73 L 72 73 L 72 43 L 78 43 L 78 68 A 1.0001 1.0001 0 1 0 80 68 L 80 43 L 87 43 A 1.0001 1.0001 0 0 0 88 42 L 88 36.96875 A 1.0001 1.0001 0 0 0 87.53125 36.125 L 50.53125 13.15625 A 1.0001 1.0001 0 0 0 49.84375 13 z M 50 15.1875 L 86 37.53125 L 86 41 L 14 41 L 14 37.53125 L 50 15.1875 z M 50 22 C 46.698135 22 44 24.698137 44 28 C 44 31.301864 46.698135 34 50 34 C 53.301865 34 56 31.301864 56 28 C 56 24.698137 53.301865 22 50 22 z M 50 24 C 52.220985 24 54 25.779017 54 28 C 54 30.220984 52.220985 32 50 32 C 47.779015 32 46 30.220984 46 28 C 46 25.779017 47.779015 24 50 24 z M 22 43 L 28 43 L 28 73 L 22 73 L 22 43 z M 30 43 L 45 43 L 45 73 L 30 73 L 30 43 z M 47 43 L 53 43 L 53 73 L 47 73 L 47 43 z M 55 43 L 70 43 L 70 73 L 55 73 L 55 43 z M 14 75 L 86 75 L 86 79 A 1.0001 1.0001 0 0 0 87 80 L 91 80 L 91 85 L 9 85 L 9 80 L 13 80 A 1.0001 1.0001 0 0 0 14 79 L 14 75 z "></path></svg>