<svg height='100px' width='100px'  fill="#000000" xmlns="http://www.w3.org/2000/svg" xmlns:xlink="http://www.w3.org/1999/xlink" version="1.1" x="0px" y="0px" viewBox="0 0 96 96" enable-background="new 0 0 96 96" xml:space="preserve"><path d="M24.691,12.77l-3.064,9.709c-0.16,0.507-0.039,1.062,0.317,1.456c0.287,0.318,0.693,0.495,1.113,0.495  c0.101,0,0.202-0.01,0.303-0.031l10.589-2.185l-0.605-2.938l-4.8,0.99c5.654-4.004,12.387-6.169,19.456-6.169  c3.312,0,6.55,0.478,9.639,1.393c-0.056,0.486-0.091,0.978-0.091,1.479c0,7.15,5.816,12.968,12.966,12.968  c1.909,0,3.718-0.426,5.353-1.17c8.023,11.615,8.054,27.13-0.517,38.924l2.428,1.764c9.297-12.795,9.297-29.609,0.658-42.24  c3.064-2.375,5.048-6.078,5.048-10.245C83.483,9.817,77.665,4,70.514,4C64.91,4,60.14,7.58,58.332,12.569  c-3.314-0.965-6.784-1.472-10.332-1.472c-8.004,0-15.617,2.541-21.92,7.24l1.473-4.666L24.691,12.77z M60.571,16.513  c0.047-1.045,0.255-2.047,0.601-2.984C62.577,9.725,66.229,7,70.514,7c5.497,0,9.97,4.472,9.97,9.969  c0,3.185-1.508,6.019-3.84,7.845c-0.797,0.623-1.689,1.125-2.653,1.485c-1.084,0.405-2.252,0.638-3.477,0.638  c-5.495,0-9.966-4.472-9.966-9.968C60.548,16.814,60.564,16.665,60.571,16.513z"></path><path d="M18.223,26.289c-9.339,12.853-9.301,29.763-0.546,42.412c-3.128,2.37-5.16,6.112-5.16,10.33  C12.517,86.183,18.333,92,25.482,92c5.699,0,10.541-3.699,12.276-8.819C41.1,84.144,44.549,84.63,48,84.63  c7.98,0,15.956-2.585,22.568-7.734l-1.28,6.205l2.938,0.605l2.186-10.59c0.107-0.521-0.068-1.06-0.464-1.416  c-0.396-0.357-0.95-0.479-1.457-0.317l-9.709,3.066l0.904,2.861l1.918-0.605C60.355,79.922,54.312,81.647,48,81.647  c-3.302,0-6.529-0.476-9.61-1.385c0.038-0.406,0.063-0.815,0.063-1.231c0-7.15-5.818-12.968-12.97-12.968  c-1.855,0-3.617,0.398-5.215,1.104c-8.155-11.636-8.234-27.255,0.383-39.114L18.223,26.289z M19.483,71.091  c0.812-0.614,1.716-1.106,2.693-1.451c1.036-0.366,2.146-0.576,3.306-0.576c5.497,0,9.97,4.472,9.97,9.968  c0,0.069-0.009,0.137-0.011,0.206c-0.021,1.045-0.204,2.048-0.524,2.99C33.58,86.16,29.86,89,25.482,89  c-5.495,0-9.966-4.472-9.966-9.969C15.517,75.789,17.079,72.912,19.483,71.091z"></path><path d="M64.271,15.77c0.127,0.485,0.338,0.92,0.621,1.284c0.325,0.421,0.755,0.756,1.29,0.999c0.518,0.23,1.13,0.348,1.818,0.348  h1.013v0.693v2.343v0.143h-1.936h-1.169v1.5v1.5h3.104v1.089h1.5h1.5v-1.089h0.432h1.106c0.88,0,1.618-0.316,2.175-0.854  c0.67-0.648,1.07-1.624,1.07-2.829v-1.813c0-2.203-1.304-3.684-3.245-3.684h-1.538v-0.157v-2.885h2.247h1.169v-1.5v-1.5h-3.416  V8.271h-1.5h-1.5v1.088h-1.013c-0.688,0-1.301,0.117-1.833,0.354c-0.526,0.241-0.956,0.576-1.273,0.99  c-0.287,0.371-0.496,0.803-0.625,1.293c-0.11,0.437-0.167,0.93-0.167,1.466v0.834c0,0.18,0.016,0.348,0.028,0.517  C64.156,15.149,64.197,15.473,64.271,15.77z M72.014,20.033V18.4h1.538c0.061,0,0.095,0.01,0.103,0.004  c0.061,0.078,0.143,0.352,0.143,0.68v1.813c0,0.33-0.082,0.601-0.121,0.661c-0.001,0.002-0.003,0.008-0.004,0.009  c0,0-0.034,0.013-0.12,0.013h-1.538V20.033z M67.103,13.462c0-0.357,0.041-0.592,0.072-0.716c0.031-0.118,0.066-0.174,0.097-0.213  c0,0,0.034-0.042,0.132-0.087c0.06-0.026,0.236-0.088,0.598-0.088h1.013V15.4h-1.013c-0.361,0-0.538-0.062-0.586-0.083  c-0.088-0.04-0.133-0.078-0.151-0.103c-0.025-0.032-0.058-0.084-0.086-0.192c-0.049-0.193-0.075-0.444-0.075-0.727V13.462z"></path><path d="M19.864,79.12c0.326,0.42,0.756,0.753,1.284,0.994c0.517,0.231,1.129,0.349,1.82,0.349h1.014v0.695v2.483h-1.935H20.88v1.5  v1.5h3.103v1.088h1.5h1.5v-1.088h1.538c1.941,0,3.246-1.48,3.246-3.684v-1.812c0-0.104-0.017-0.196-0.022-0.297  c-0.115-2.033-1.373-3.387-3.224-3.387h-1.538v-0.157v-2.885h0.147h2.1h1.168v-1.5v-1.5h-3.415v-1.089h-1.5h-1.5v1.089h-0.184h-0.83  c-0.694,0-1.308,0.118-1.831,0.354c-0.259,0.118-0.494,0.261-0.706,0.425c-0.216,0.167-0.408,0.357-0.574,0.572  c-0.283,0.371-0.49,0.801-0.618,1.287c-0.111,0.439-0.168,0.933-0.168,1.465v0.834c0,0.533,0.057,1.026,0.17,1.474  C19.366,78.313,19.575,78.744,19.864,79.12z M26.982,80.463h1.538c0.061,0,0.094,0.009,0.103,0.004  c0.061,0.077,0.144,0.352,0.144,0.68v1.812c0,0.34-0.088,0.622-0.125,0.671c-0.001,0-0.034,0.013-0.121,0.013h-1.538V80.463z   M22.071,75.524c0-0.354,0.041-0.59,0.073-0.716c0.031-0.118,0.068-0.178,0.091-0.206c0.017-0.021,0.066-0.061,0.145-0.097  c0.031-0.015,0.104-0.038,0.22-0.058c0.092-0.015,0.209-0.027,0.369-0.027h1.014v1.285v1.757h-1.014  c-0.36,0-0.534-0.061-0.584-0.083c-0.083-0.037-0.132-0.076-0.146-0.096c-0.027-0.035-0.063-0.091-0.091-0.2  c-0.05-0.194-0.076-0.445-0.076-0.726V75.524z"></path><path d="M23.101,49.032c0.334,8.212,4.703,15.725,11.687,20.101c0,0.001,0.001,0.001,0.001,0.001l0.001,0.001  c1.124,0.702,2.285,1.31,3.452,1.806c0.001,0,0.002,0,0.002,0.001c3.089,1.315,6.371,1.983,9.757,1.983  c11.252,0,21.146-7.581,24.065-18.437c0.001-0.003,0.002-0.005,0.003-0.007c0.567-2.119,0.855-4.299,0.855-6.48  c0-8.655-4.392-16.564-11.747-21.157c-3.953-2.466-8.51-3.769-13.177-3.769c-3.375,0-6.649,0.664-9.733,1.972  c-0.001,0-0.003,0.001-0.004,0.001c-9.226,3.922-15.187,12.932-15.187,22.953c0,0.343,0.012,0.685,0.024,1.025  c0,0.001,0,0.001,0,0.002S23.101,49.031,23.101,49.032z M26.223,50.513l2.326,0.057l2.046,3.537l1.301,4.068l1.045,3.471  l1.203,3.342C29.726,61.382,26.873,56.192,26.223,50.513z M38.716,62.493c0.008,0.08,0.005,0.19-0.006,0.32  c-0.003,0.045-0.013,0.104-0.019,0.153c-0.011,0.094-0.021,0.189-0.04,0.3c-0.012,0.072-0.027,0.154-0.042,0.232  c-0.02,0.107-0.04,0.217-0.064,0.336c-0.02,0.092-0.042,0.19-0.064,0.289c-0.026,0.119-0.054,0.24-0.085,0.367  c-0.026,0.11-0.055,0.224-0.084,0.339c-0.032,0.128-0.066,0.258-0.103,0.39c-0.033,0.124-0.066,0.248-0.103,0.375  c-0.037,0.132-0.076,0.267-0.115,0.402c-0.039,0.134-0.078,0.268-0.12,0.403c-0.04,0.134-0.083,0.27-0.126,0.405  c-0.044,0.14-0.087,0.278-0.133,0.418c-0.008,0.023-0.017,0.048-0.024,0.071c-0.134-0.071-0.266-0.146-0.398-0.221l0.181-1.512  c0.028-0.232,0.001-0.468-0.078-0.687l-1.504-4.17l-1.027-3.42l-1.357-4.248c-0.032-0.102-0.076-0.2-0.13-0.293  c0.016,0.018,0.037,0.031,0.054,0.049c0.083,0.088,0.173,0.171,0.271,0.248c0.04,0.031,0.083,0.061,0.126,0.09  c0.087,0.062,0.177,0.121,0.271,0.177c0.048,0.028,0.096,0.057,0.146,0.084c0.103,0.057,0.207,0.11,0.313,0.163  c0.044,0.021,0.087,0.044,0.131,0.064c0.146,0.069,0.292,0.137,0.438,0.203c0.267,0.121,0.68,0.308,0.906,0.44  c0.198,0.433,0.555,0.925,1.134,1.711c0.601,0.813,1.423,1.927,1.641,2.579c0.128,0.384,0.065,0.746-0.057,1.353  C38.504,60.627,38.325,61.519,38.716,62.493z M59.894,66.412c0.055-0.079,0.103-0.164,0.143-0.254c0,0,0.804-1.821,1.129-2.478  c0.098-0.193,0.298-0.547,0.533-0.964c1.006-1.785,1.479-2.679,1.604-3.194c0.081-0.209,0.504-0.873,0.757-1.27  c0.793-1.246,1.175-1.874,1.175-2.549v-1.939l1.233-1.925c0.071-0.097,0.146-0.194,0.225-0.293c0.092,0.303,0.179,0.583,0.263,0.85  c0.028,0.09,0.057,0.173,0.084,0.259c0.058,0.179,0.115,0.352,0.171,0.512c0.031,0.088,0.063,0.175,0.093,0.258  c0.055,0.146,0.109,0.284,0.163,0.414c0.029,0.071,0.06,0.146,0.09,0.212c0.064,0.145,0.132,0.275,0.2,0.397  c0.02,0.035,0.037,0.076,0.058,0.108c0.088,0.147,0.181,0.276,0.278,0.39c0.025,0.029,0.054,0.051,0.08,0.078  c0.076,0.077,0.154,0.147,0.237,0.206c0.038,0.026,0.079,0.049,0.119,0.071c0.041,0.022,0.078,0.054,0.121,0.072  C67.001,60,63.872,63.841,59.894,66.412z M59.349,32.255c0.032-0.014,0.064-0.029,0.097-0.045c0.095-0.045,0.187-0.097,0.277-0.157  c0.023-0.016,0.048-0.029,0.071-0.046c0.111-0.079,0.219-0.171,0.325-0.275c0.021-0.021,0.041-0.044,0.062-0.065  c0.088-0.092,0.174-0.192,0.259-0.303c0.025-0.032,0.051-0.063,0.075-0.098c0.183-0.25,0.361-0.539,0.537-0.882  c5.586,4.132,8.872,10.596,8.872,17.617c0,1.042-0.075,2.084-0.224,3.118c-0.032-0.103-0.065-0.209-0.095-0.306  c-0.004-0.012-0.008-0.024-0.012-0.036c-0.056-0.183-0.107-0.353-0.149-0.493c-0.304-1.003-0.47-1.542-0.637-1.869  c-0.291-0.578-0.872-0.938-1.515-0.938c-0.432,0-1.33,0-3.293,2.66l-1.527,2.377c-0.155,0.241-0.238,0.523-0.238,0.811v2.155  c-0.141,0.273-0.486,0.817-0.705,1.16c-0.607,0.953-0.986,1.564-1.113,2.074c-0.073,0.231-0.406,0.861-0.743,1.476  c-0.217,0.394-0.436,0.781-0.589,1.054c-0.198,0.353-0.373,0.664-0.496,0.895c-0.042,0.076-0.077,0.144-0.105,0.2  c-0.188,0.38-0.524,1.118-0.792,1.713h-1.309c0.03-0.28,0.069-0.53,0.106-0.772c0.158-1.034,0.322-2.103-0.144-4.316  c-0.503-2.407-2.005-2.667-2.627-2.667c-0.537,0-1.012,0.181-1.371,0.378c-1.122-0.193-2.227-0.444-2.879-0.648  c0.155-0.751,0.502-1.934,0.692-2.586c0.189-0.646,0.31-1.061,0.381-1.364c0.304-0.216,0.865-0.543,1.264-0.776  c0.551-0.321,1.119-0.653,1.574-0.975c0.002-0.001,0.192-0.104,0.775-0.104c1.032,0,2.209,0.315,2.221,0.318  c0.233,0.063,0.479,0.069,0.716,0.018c0.339-0.074,3.329-0.795,3.862-3.19c0.452-2.048-1.236-3.417-2.998-3.822  c-0.11-0.025-0.223-0.038-0.336-0.038h-3.131c-0.58-0.582-1.113-1.208-1.297-1.529c0.109-0.881,0.734-4.023,1.359-6.967  c1.687-1.209,3.731-2.482,4.434-2.636C59.109,32.346,59.23,32.304,59.349,32.255z M39.354,33.569  c0.588-0.701,1.254-1.495,1.254-2.492c0-0.089-0.003-0.211-0.007-0.347c-0.002-0.041-0.004-0.087-0.005-0.132  c-0.004-0.104-0.009-0.217-0.015-0.339c-0.002-0.059-0.005-0.114-0.008-0.176c-0.007-0.138-0.014-0.282-0.021-0.432  c-0.005-0.092-0.01-0.183-0.016-0.277c-0.008-0.14-0.016-0.279-0.023-0.424c-0.009-0.14-0.017-0.278-0.025-0.42  c-0.002-0.038-0.005-0.076-0.007-0.114c-0.021-0.343-0.042-0.682-0.063-0.997c5.836-2.151,12.593-1.669,18.089,1.337  c-0.008,0.017-0.016,0.031-0.023,0.048c-0.035,0.075-0.07,0.146-0.102,0.208c-0.012,0.023-0.022,0.044-0.034,0.064  c-0.029,0.056-0.057,0.106-0.082,0.151c-0.009,0.015-0.018,0.03-0.025,0.044c-0.027,0.046-0.052,0.086-0.074,0.12  c-0.004,0.007-0.009,0.015-0.013,0.021c-0.025,0.039-0.048,0.071-0.066,0.096c-1.787,0.534-4.845,2.731-5.775,3.419  c-0.294,0.217-0.499,0.534-0.575,0.892c-0.583,2.723-1.561,7.42-1.561,8.297c0,0.372,0,1.506,2.689,3.99  c0.276,0.256,0.641,0.398,1.018,0.398h3.528c0.108,0.036,0.22,0.083,0.32,0.133c0.07,0.034,0.124,0.071,0.18,0.107  c0.024,0.017,0.061,0.033,0.08,0.049c-0.143,0.242-0.685,0.564-1.244,0.748c-0.558-0.126-1.591-0.322-2.593-0.322  c-1.06,0-1.875,0.21-2.494,0.646c-0.361,0.255-0.873,0.554-1.367,0.843c-0.875,0.512-1.588,0.928-2.056,1.394  c-0.155,0.155-0.284,0.316-0.383,0.488c-0.131,0.229-0.208,0.478-0.225,0.758c-0.043,0.205-0.211,0.78-0.349,1.248  c-0.892,3.045-1.104,4.126-0.684,4.97c0.258,0.513,0.689,1.371,5.869,2.168c0.325,0.05,0.656-0.009,0.94-0.162  c0.001,0.003,0.001,0.005,0.002,0.008c0.354,1.682,0.253,2.338,0.113,3.246c-0.05,0.326-0.102,0.666-0.139,1.058l-0.145,1.527  c-0.04,0.421,0.1,0.839,0.384,1.151s0.687,0.49,1.109,0.49h3.932c0.067,0,0.134-0.005,0.198-0.013  c-3.231,1.846-6.954,2.886-10.862,2.886c-2.646,0-5.221-0.463-7.665-1.377c0.073-0.214,0.134-0.409,0.201-0.615  c0.069-0.211,0.144-0.43,0.207-0.632c0.067-0.216,0.123-0.415,0.184-0.621c0.058-0.195,0.12-0.398,0.171-0.585  c0.053-0.193,0.094-0.368,0.14-0.551c0.045-0.179,0.095-0.366,0.134-0.535c0.038-0.171,0.064-0.323,0.096-0.484  c0.032-0.161,0.07-0.331,0.095-0.482c0.025-0.149,0.037-0.281,0.056-0.422c0.018-0.142,0.042-0.291,0.054-0.423  c0.012-0.136,0.011-0.253,0.015-0.379c0.004-0.114,0.015-0.239,0.013-0.345c-0.003-0.133-0.02-0.244-0.032-0.362  c-0.009-0.078-0.01-0.168-0.022-0.239c-0.032-0.181-0.077-0.341-0.137-0.48c-0.065-0.151,0.007-0.513,0.083-0.896  c0.146-0.73,0.347-1.729-0.038-2.891c-0.37-1.104-1.274-2.331-2.073-3.413c-0.295-0.399-0.693-0.939-0.806-1.15  c-0.301-0.995-1.326-1.46-2.41-1.951c-0.122-0.056-0.271-0.123-0.411-0.189v-3.604c0.309-0.596,1.433-2.275,2.428-3.67  c3.35-3.069,3.35-3.658,3.35-4.228c0-1.083-1.266-3.51-2.886-5.045C38.893,34.119,39.17,33.788,39.354,33.569z M37.495,28.748  c0.001,0.015,0.002,0.026,0.002,0.041c0.015,0.233,0.027,0.454,0.039,0.66c0.001,0.019,0.002,0.035,0.003,0.054  c0.01,0.188,0.02,0.358,0.027,0.519c0.002,0.036,0.004,0.073,0.006,0.107c0.006,0.129,0.012,0.242,0.017,0.35  c0.002,0.043,0.004,0.089,0.005,0.128c0.006,0.127,0.01,0.241,0.012,0.328c-0.104,0.175-0.368,0.489-0.55,0.706  c-0.688,0.819-2.511,2.994-0.473,4.803c0.935,0.832,1.631,2.069,1.919,2.729c-0.485,0.56-1.498,1.556-2.362,2.345  c-0.077,0.071-0.147,0.149-0.209,0.234c-3.079,4.299-3.079,4.825-3.079,5.29v4.586c0,0.175,0.029,0.332,0.071,0.479  c0.004,0.013,0.003,0.03,0.007,0.043l-2.206-3.811c-0.261-0.452-0.739-0.735-1.261-0.749l-3.381-0.083  C26.257,39.611,30.636,32.489,37.495,28.748z"></path><path d="M44.373,39.2c0.162,0,0.326-0.026,0.486-0.081l2.971-1.018c0.521-0.179,0.902-0.628,0.993-1.172  c0,0,0.367-2.196,0.515-3.046c0.348-0.56,1.83-2.241,3.083-3.554c0.356-0.374,0.496-0.905,0.368-1.406  c-0.127-0.501-0.503-0.9-0.995-1.059l-3.445-1.104c-0.367-0.117-0.768-0.09-1.114,0.08l-4.537,2.207  c-0.389,0.188-0.677,0.537-0.791,0.954c-1.17,4.286,1.068,8.274,1.165,8.441C43.344,38.923,43.847,39.2,44.373,39.2z M44.662,31.429  l3.344-1.626l0.628,0.2c0,0,0,0-0.001,0.001c-0.725,0.813-1.207,1.407-1.53,1.852c-0.108,0.148-0.198,0.279-0.273,0.396  c-0.101,0.156-0.175,0.286-0.231,0.397c-0.09,0.178-0.132,0.306-0.156,0.406c-0.013,0.051-0.021,0.096-0.027,0.136  c-0.075,0.42-0.267,1.554-0.402,2.361l-0.826,0.283C44.803,34.791,44.38,33.139,44.662,31.429z"></path></svg>