<svg height='100px' width='100px'  fill="#000000" xmlns="http://www.w3.org/2000/svg" xmlns:xlink="http://www.w3.org/1999/xlink" xml:space="preserve" version="1.1" style="shape-rendering:geometricPrecision;text-rendering:geometricPrecision;image-rendering:optimizeQuality;" viewBox="0 0 412 365" x="0px" y="0px" fill-rule="evenodd" clip-rule="evenodd"><defs><style type="text/css">
   
    .fil0 {fill:#000000;fill-rule:nonzero}
   
  </style></defs><g><path class="fil0" d="M79 305l2 0 0 -90c0,-69 56,-125 125,-125 69,0 125,56 125,125l0 90 2 0c16,0 30,14 30,30l0 21c0,5 -4,9 -9,9l-296 0c-5,0 -9,-4 -9,-9l0 -21c0,-16 14,-30 30,-30zm19 0l217 0 0 -90c0,-59 -49,-108 -109,-108 -60,0 -108,49 -108,108l0 90zm235 17l-254 0c-7,0 -13,6 -13,13l0 13 280 0 0 -13c0,-7 -6,-13 -13,-13z"></path><path class="fil0" d="M206 132c5,0 9,4 9,9 0,4 -4,8 -9,8 -36,0 -66,30 -66,66 0,5 -4,9 -8,9 -5,0 -9,-4 -9,-9 0,-45 38,-83 83,-83z"></path><path class="fil0" d="M198 8c0,-4 3,-8 8,-8 5,0 9,4 9,8l0 43c0,4 -4,8 -9,8 -5,0 -8,-4 -8,-8l0 -43z"></path><path class="fil0" d="M298 31c2,-4 7,-6 11,-3 4,2 6,7 3,11l-21 37c-2,4 -7,5 -12,3 -4,-2 -5,-8 -3,-12l22 -36z"></path><path class="fil0" d="M373 100c4,-2 9,-1 12,3 2,4 0,9 -4,12l-36 21c-4,2 -9,1 -12,-3 -2,-4 -1,-10 3,-12l37 -21z"></path><path class="fil0" d="M404 198c4,0 8,3 8,8 0,5 -4,9 -8,9l-43 0c-4,0 -8,-4 -8,-9 0,-5 4,-8 8,-8l43 0z"></path><path class="fil0" d="M100 39c-2,-4 -1,-9 3,-11 4,-3 9,-1 12,3l21 36c2,4 1,10 -3,12 -4,2 -10,1 -12,-3l-21 -37z"></path><path class="fil0" d="M31 115c-4,-3 -6,-8 -3,-12 2,-4 7,-5 11,-3l37 21c4,2 5,8 3,12 -2,4 -8,5 -12,3l-36 -21z"></path><path class="fil0" d="M8 215c-4,0 -8,-4 -8,-9 0,-5 4,-8 8,-8l43 0c4,0 8,3 8,8 0,5 -4,9 -8,9l-43 0z"></path></g></svg>