<svg height='100px' width='100px'  fill="#000000" xmlns="http://www.w3.org/2000/svg" xmlns:xlink="http://www.w3.org/1999/xlink" version="1.1" x="0px" y="0px" viewBox="0 0 64 64" style="enable-background:new 0 0 64 64;" xml:space="preserve"><g><path d="M38,53h-1v-2c0-1.654-1.346-3-3-3H7c-1.654,0-3,1.346-3,3v2H3c-1.654,0-3,1.346-3,3v3c0,0.553,0.447,1,1,1h39   c0.553,0,1-0.447,1-1v-3C41,54.346,39.654,53,38,53z M6,51c0-0.552,0.448-1,1-1h27c0.552,0,1,0.448,1,1v2H6V51z M39,58H2v-2   c0-0.552,0.448-1,1-1h35c0.552,0,1,0.448,1,1V58z"></path><path d="M63,21h-3.185c-0.414-1.162-1.514-2-2.815-2H45c-1.302,0-2.401,0.838-2.815,2H33V11c1.654,0,3-1.346,3-3V5   c0-0.552-0.447-1-1-1H5C4.447,4,4,4.448,4,5v3c0,1.654,1.346,3,3,3v28c-1.654,0-3,1.346-3,3v3c0,0.553,0.447,1,1,1h30   c0.553,0,1-0.447,1-1v-3c0-1.654-1.346-3-3-3V29h9.185c0.414,1.162,1.514,2,2.815,2h12c1.302,0,2.401-0.838,2.815-2H63   c0.553,0,1-0.448,1-1v-6C64,21.448,63.553,21,63,21z M6,8V6h28v2c0,0.551-0.448,1-1,1H7C6.448,9,6,8.551,6,8z M34,42v2H6v-2   c0-0.552,0.448-1,1-1h26C33.552,41,34,41.448,34,42z M9,39V11h22v11v6v11H9z M33,23h9v4h-9V23z M57,29H45c-0.552,0-1-0.449-1-1v-6   c0-0.551,0.448-1,1-1h12c0.552,0,1,0.449,1,1v6C58,28.551,57.552,29,57,29z M62,27h-2v-4h2V27z"></path><path d="M47,23c-0.553,0-1,0.448-1,1v2c0,0.552,0.447,1,1,1c0.553,0,1-0.448,1-1v-2C48,23.448,47.553,23,47,23z"></path><path d="M51,23c-0.553,0-1,0.448-1,1v2c0,0.552,0.447,1,1,1c0.553,0,1-0.448,1-1v-2C52,23.448,51.553,23,51,23z"></path><path d="M55,23c-0.553,0-1,0.448-1,1v2c0,0.552,0.447,1,1,1c0.553,0,1-0.448,1-1v-2C56,23.448,55.553,23,55,23z"></path><path d="M28,35H12c-0.553,0-1,0.447-1,1s0.447,1,1,1h16c0.553,0,1-0.447,1-1S28.553,35,28,35z"></path><path d="M28,13H12c-0.553,0-1,0.448-1,1s0.447,1,1,1h16c0.553,0,1-0.448,1-1S28.553,13,28,13z"></path><path d="M20,30c-1.103,0-2-0.897-2-2c0-0.552-0.447-1-1-1c-0.553,0-1,0.448-1,1c0,1.858,1.279,3.411,3,3.858V32   c0,0.552,0.447,1,1,1c0.553,0,1-0.448,1-1v-0.142c1.721-0.447,3-2,3-3.858c0-2.206-1.794-4-4-4c-1.103,0-2-0.897-2-2s0.897-2,2-2   c1.102,0,2,0.897,2,2c0,0.552,0.447,1,1,1c0.553,0,1-0.448,1-1c0-1.858-1.279-3.411-3-3.858V18c0-0.552-0.447-1-1-1   c-0.553,0-1,0.448-1,1v0.142c-1.721,0.447-3,2-3,3.858c0,2.206,1.794,4,4,4c1.102,0,2,0.897,2,2S21.102,30,20,30z"></path></g></svg>