<svg height='100px' width='100px'  fill="#000000" xmlns="http://www.w3.org/2000/svg" xmlns:xlink="http://www.w3.org/1999/xlink" version="1.1" x="0px" y="0px" viewBox="0 0 10 10" enable-background="new 0 0 10 10" xml:space="preserve"><g><path d="M6.144,4.444H6.071V4.242c0-0.591-0.48-1.071-1.071-1.071s-1.071,0.48-1.071,1.071v0.202H3.856   c-0.055,0-0.099,0.044-0.099,0.099v1.043c0,0.685,0.557,1.243,1.243,1.243c0.685,0,1.242-0.558,1.242-1.243V4.543   C6.242,4.488,6.198,4.444,6.144,4.444z M4.126,4.242C4.126,3.76,4.518,3.369,5,3.369c0.481,0,0.873,0.392,0.873,0.873v0.202H5.814   V4.242c0-0.449-0.365-0.813-0.814-0.813c-0.449,0-0.813,0.365-0.813,0.813v0.202h-0.06V4.242z M5.616,4.444H4.384V4.242   C4.384,3.902,4.66,3.626,5,3.626c0.339,0,0.616,0.276,0.616,0.616V4.444z M6.044,5.586c0,0.576-0.469,1.044-1.044,1.044   c-0.576,0-1.045-0.468-1.045-1.044V4.642h2.089V5.586z"></path><path d="M4.901,5.781v0.478c0,0.054,0.044,0.099,0.099,0.099c0.054,0,0.099-0.045,0.099-0.099V6.172h0.086   c0.055,0,0.099-0.044,0.099-0.099S5.24,5.974,5.186,5.974H5.099V5.781c0.195-0.046,0.344-0.214,0.344-0.423   c0-0.244-0.199-0.443-0.443-0.443S4.557,5.114,4.557,5.358C4.557,5.567,4.706,5.735,4.901,5.781z M5,5.113   c0.135,0,0.245,0.11,0.245,0.245S5.135,5.603,5,5.603c-0.135,0-0.246-0.11-0.246-0.245S4.865,5.113,5,5.113z"></path><path d="M8.844,5.063c0.031-0.037,0.031-0.09,0-0.127C8.817,4.903,8.538,4.58,8.089,4.201l0.514-0.563   c0.037-0.04,0.034-0.103-0.007-0.14c-0.04-0.037-0.103-0.034-0.14,0.006L7.934,4.077C7.252,3.531,6.249,2.93,5.099,2.896v-0.79   c0-0.055-0.045-0.099-0.099-0.099c-0.055,0-0.099,0.044-0.099,0.099v0.79C3.75,2.93,2.748,3.53,2.066,4.077L1.543,3.505   c-0.037-0.04-0.099-0.043-0.14-0.006c-0.041,0.037-0.043,0.1-0.006,0.14l0.513,0.563C1.462,4.58,1.183,4.903,1.155,4.936   c-0.03,0.037-0.03,0.09,0,0.127c0.027,0.033,0.307,0.356,0.755,0.735L1.397,6.361c-0.037,0.041-0.034,0.103,0.006,0.14   c0.019,0.017,0.043,0.026,0.067,0.026c0.026,0,0.054-0.011,0.073-0.032l0.522-0.573C2.748,6.469,3.75,7.069,4.901,7.104v0.791   c0,0.054,0.044,0.099,0.099,0.099c0.054,0,0.099-0.045,0.099-0.099V7.104c1.15-0.034,2.153-0.635,2.835-1.182l0.522,0.573   c0.02,0.021,0.046,0.032,0.073,0.032c0.024,0,0.047-0.009,0.066-0.026c0.041-0.037,0.043-0.1,0.006-0.14L8.089,5.799   C8.538,5.419,8.817,5.096,8.844,5.063z M5,6.917C3.197,6.917,1.67,5.339,1.363,5C1.67,4.661,3.197,3.083,5,3.083   S8.33,4.661,8.637,5C8.33,5.339,6.805,6.917,5,6.917z"></path></g></svg>