<svg height="222" width="137" xmlns="http://www.w3.org/2000/svg">
    <path d="M57.014 201.775l.388 2.135v.389zm-14.268-8.348l.679 1.456.388-.097-1.067-1.359zm16.986-.29l.29 2.523 1.748 1.262zm-11.745-13.784l-1.068-.29.874.387.194-.097zm-10.774-2.912l-2.62 1.553.679.68zm-5.047-1.844l-.194.777.873.194zm8.541 1.941l4.271 2.427.777-.68zM17.994 91.511l-.097-.291v.388l.097-.097zM74 17.841l-3.786-.971L28.671 5.416 13.238.757v.388l-.873 9.61L8.288 22.11l-6.794 8.445-.194 4.27 3.3 5.921 1.65 7.765-2.33 6.31.389 6.308-1.165 2.621 3.98 8.639 2.523 3.3-.194 9.415 6.018 5.727 3.494-5.824 3.786 3.009 1.456-1.359-5.242.97-.097 4.95 1.068 6.213-2.912-2.815-1.65-3.785-.486 5.241 1.36 10.386 5.435 6.697-3.591 4.66.582 5.92 3.882 6.018 6.795 18.636 2.135 1.165-.68 12.91 1.068 1.552 14.56 5.242 4.465 4.756 1.553 3.106 4.27 2.426 4.66.874 1.94 5.338 3.883 1.845 5.824 6.891 5.436 9.027-.388 8.347 3.008 3.98 39.7 3.882 3.494-.194 1.553-4.27-3.01-2.233.098-7.086 1.747-.388 3.494-8.541 2.136-3.98 5.435-3.203-3.009-4.077-3.397-9.124.194-2.426v-.097l-2.524-3.397-7.765-10.386-15.044-21.16-20.966-30.09-11.842-16.403-11.453-16.5 13.2-56.006L74 17.84z" fill="#f9f9f9" fill-rule="evenodd" stroke="#000" stroke-linejoin="round" stroke-width=".971"/>
</svg>
