<svg height="157" width="97" xmlns="http://www.w3.org/2000/svg">
    <path d="M43.095 3.882l-8.639-1.747-2.815-.68-1.261-.291L19.12 51.83l.486 4.174-.389 4.367.194.971v.097l.098 1.844 3.3 3.592-4.756 11.938L7.958 92.015l-.291 2.427 2.62 6.212-9.22 38.243-.389 2.038 2.718.582 27.469 5.436 10.968 2.038 2.815.485 2.718.486 13.977 2.232 25.042 3.786 2.815.388.388-3.203.874-6.31 3.3-25.236 1.747-12.52.388-3.204-.582-.291-3.01-5.436-2.523 3.3-10.191-1.067-8.057.097-.97.776-3.786-7.765-.97-.776-5.436-13.298-.776-4.465-9.61-.68 1.845-5.338 1.358-.388 3.398-15.918-2.912.194-.68-2.038-7.182-12.036-2.524-2.136-1.844-5.047.873-.776-1.456-5.533-1.844-3.591 4.174-19.801h-.097z" fill="#f9f9f9" fill-rule="evenodd" stroke="#000" stroke-linejoin="round" stroke-width=".971"/>
</svg>
