<svg height="68" width="120" xmlns="http://www.w3.org/2000/svg">
    <path d="M2.174 66.185l-.292-.777-.582-.194-.388 1.262.097.097 1.068-.097.097-.291zm66.39-63.48l-.193.194 1.262 4.757-5.242 4.173-4.27.097.97 3.689-6.115 8.056.097 2.815-6.891-.583-2.524 4.95-4.66-.679-3.105 2.33-.582 2.232-5.436-2.038-4.368 1.456h-3.591l-1.456 2.718-.388.097v.29l-1.456 3.301 1.65 2.33-6.115 3.59 1.456 4.272-1.844 2.135-7.474-2.038-1.942 4.562.583.582.194.388-.874 7.96-.388.194-2.524 1.553-.097.29 2.815-.387 19.607-2.621-.97-3.883 3.3-.097 39.504-5.241 27.76-4.66.388-.29.68-.777 7.28-3.882 5.63-7.377.776-2.524 3.688-2.912 4.66-5.92.679-.971-.292-.097h-2.426l-3.106-1.747-5.533-6.698L105.74 9.5v-.194l-.194-.195-4.077-2.329-1.844-3.106-3.688 3.591-2.33.583-2.912-1.165-2.523 1.941-5.242-2.33-1.359.583-4.95-4.27-2.524-1.263-4.756.583-.776.776z" fill="#f9f9f9" fill-rule="evenodd" stroke="#000" stroke-linejoin="round" stroke-width=".971"/>
</svg>
