<svg height="109" width="130" xmlns="http://www.w3.org/2000/svg">
    <path d="M2.238 80.757l15.433 4.66L59.214 96.87l3.786.97 2.718.68 24.557 5.824 13.686 3.008 2.717.583.389-2.038 9.22-38.243-2.62-6.212.291-2.427 10.095-13.2 4.756-11.94-3.3-3.59-.098-1.845v-.097l-1.844-.388-27.274-6.212-1.456.68-5.339-.874-10.774 1.164-6.6-.873-6.989-.097-.582-1.747-14.754-1.36-5.241-2.814-.68-1.844.583-7.28-3.494-3.786-.292.098-.68.485L35.144.97l-2.912.874-1.941-.97-2.039 8.347-1.359 2.33-6.018 14.656-1.747 8.056-1.067.097-5.63 13.395-3.785 5.726-1.36.971-3.494 6.794-.68 7.183-2.134 6.406 1.261 5.824v.097zM37.764 1.068l-.292-.873-.097.68.388.193z" fill="#f9f9f9" fill-rule="evenodd" stroke="#000" stroke-linejoin="round" stroke-width=".971"/>
</svg>
