<svg height='100px' width='100px'  fill="#000000" xmlns="http://www.w3.org/2000/svg" xmlns:xlink="http://www.w3.org/1999/xlink" version="1.1" x="0px" y="0px" viewBox="0 0 100 100" style="enable-background:new 0 0 100 100;" xml:space="preserve"><path d="M50.0527344,42.6611328c-4.046875,0-7.3393555,3.2919922-7.3393555,7.3388672s3.2924805,7.3388672,7.3393555,7.3388672  S57.3920898,54.046875,57.3920898,50S54.0996094,42.6611328,50.0527344,42.6611328z M50.0527344,55.3388672  c-2.9443359,0-5.3393555-2.3945312-5.3393555-5.3388672s2.3950195-5.3388672,5.3393555-5.3388672  S55.3920898,47.0556641,55.3920898,50S52.9970703,55.3388672,50.0527344,55.3388672z"></path><path d="M64.4907227,47.9033203c0.2822266-0.0292969,0.5385742-0.1777344,0.7050781-0.4072266  s0.2275391-0.5195312,0.1679688-0.796875c-0.3969727-1.8486328-1.1210938-3.5947266-2.1523438-5.1904297  c-0.1538086-0.2382812-0.4018555-0.3994141-0.6821289-0.4443359c-0.2763672-0.046875-0.5654297,0.03125-0.7866211,0.2099609  c-0.840332,0.6777344-2.0488281,0.6132812-2.8134766-0.1513672c-0.7641602-0.7646484-0.8291016-1.9746094-0.1508789-2.8144531  c0.1782227-0.2197266,0.2543945-0.5058594,0.2094727-0.7861328s-0.206543-0.5273438-0.4443359-0.6816406  c-1.5952148-1.03125-3.3413086-1.7548828-5.1894531-2.1513672c-0.2792969-0.0595703-0.5673828,0.0009766-0.796875,0.1679688  c-0.2294922,0.1660156-0.3779297,0.4228516-0.4077148,0.7050781c-0.1132812,1.0742188-1.0146484,1.8837891-2.0966797,1.8837891  s-1.9833984-0.8095703-2.0966797-1.8837891c-0.0297852-0.2822266-0.1782227-0.5390625-0.4077148-0.7050781  s-0.5175781-0.2255859-0.796875-0.1679688c-1.847168,0.3964844-3.5932617,1.1201172-5.1894531,2.1513672  c-0.237793,0.1542969-0.3994141,0.4013672-0.4443359,0.6816406s0.03125,0.5664062,0.2094727,0.7861328  c0.6782227,0.8398438,0.6132812,2.0498047-0.1513672,2.8144531c-0.7636719,0.765625-1.9736328,0.8291016-2.8129883,0.1513672  c-0.2202148-0.1787109-0.5073242-0.2568359-0.7866211-0.2099609c-0.2802734,0.0449219-0.5283203,0.2060547-0.6821289,0.4443359  c-1.03125,1.5957031-1.7553711,3.3417969-2.1523438,5.1904297c-0.0595703,0.2773438,0.0014648,0.5673828,0.1679688,0.796875  s0.4228516,0.3779297,0.7050781,0.4072266C36.6894531,48.0166016,37.4995117,48.9179688,37.4995117,50  s-0.8100586,1.9833984-1.8847656,2.0966797c-0.2822266,0.0292969-0.5385742,0.1777344-0.7050781,0.4072266  s-0.2275391,0.5195312-0.1679688,0.796875c0.3969727,1.8486328,1.1210938,3.5947266,2.1523438,5.1904297  c0.1538086,0.2382812,0.4018555,0.3994141,0.6821289,0.4443359c0.2773438,0.0478516,0.565918-0.03125,0.7866211-0.2099609  c0.8388672-0.6787109,2.0483398-0.6132812,2.8134766,0.1513672c0.7641602,0.7646484,0.8291016,1.9746094,0.1508789,2.8144531  c-0.1782227,0.2197266-0.2543945,0.5058594-0.2094727,0.7861328s0.206543,0.5273438,0.4443359,0.6816406  c1.5961914,1.03125,3.3422852,1.7548828,5.1894531,2.1513672c0.2773438,0.0566406,0.5668945-0.0019531,0.796875-0.1679688  c0.2294922-0.1660156,0.3779297-0.4228516,0.4077148-0.7050781c0.1132812-1.0742188,1.0146484-1.8837891,2.0966797-1.8837891  s1.9833984,0.8095703,2.0966797,1.8837891c0.0297852,0.2822266,0.1782227,0.5390625,0.4077148,0.7050781  c0.1723633,0.125,0.3779297,0.1904297,0.5869141,0.1904297c0.0698242,0,0.1401367-0.0078125,0.2099609-0.0224609  c1.8481445-0.3964844,3.5942383-1.1201172,5.1894531-2.1513672c0.237793-0.1542969,0.3994141-0.4013672,0.4443359-0.6816406  s-0.03125-0.5664062-0.2094727-0.7861328c-0.6782227-0.8398438-0.6132812-2.0498047,0.1513672-2.8144531  c0.7641602-0.7646484,1.9731445-0.8291016,2.8129883-0.1513672c0.2197266,0.1787109,0.5063477,0.2558594,0.7866211,0.2099609  c0.2802734-0.0449219,0.5283203-0.2060547,0.6821289-0.4443359c1.03125-1.5957031,1.7553711-3.3417969,2.1523438-5.1904297  c0.0595703-0.2773438-0.0014648-0.5673828-0.1679688-0.796875s-0.4228516-0.3779297-0.7050781-0.4072266  C63.4160156,51.9833984,62.605957,51.0820312,62.605957,50S63.4160156,48.0166016,64.4907227,47.9033203z M63.1743164,53.8115234  c-0.2792969,0.9628906-0.6640625,1.8896484-1.1503906,2.7705078c-1.5058594-0.6416016-3.2958984-0.3339844-4.5087891,0.8808594  c-1.2128906,1.2128906-1.5214844,3.0019531-0.8798828,4.5087891c-0.8808594,0.4863281-1.8081055,0.8701172-2.7709961,1.1494141  c-0.6108398-1.5195312-2.0947266-2.5673828-3.8115234-2.5673828s-3.2006836,1.0478516-3.8115234,2.5673828  c-0.9628906-0.2792969-1.8896484-0.6630859-2.7709961-1.1494141c0.6416016-1.5068359,0.3330078-3.2958984-0.8793945-4.5087891  c-1.2138672-1.2148438-3.0043945-1.5205078-4.5092773-0.8808594c-0.4863281-0.8808594-0.8710938-1.8076172-1.1503906-2.7705078  C38.4516602,53.2001953,39.4995117,51.7167969,39.4995117,50s-1.0478516-3.2001953-2.5683594-3.8115234  c0.2792969-0.9628906,0.6640625-1.8896484,1.1503906-2.7705078c1.5068359,0.6425781,3.2954102,0.3339844,4.5087891-0.8808594  c1.2128906-1.2128906,1.5214844-3.0019531,0.8798828-4.5087891c0.8813477-0.4863281,1.8081055-0.8701172,2.7709961-1.1494141  c0.6108398,1.5195312,2.0947266,2.5673828,3.8115234,2.5673828s3.2006836-1.0478516,3.8115234-2.5673828  c0.9628906,0.2792969,1.8901367,0.6630859,2.7709961,1.1494141c-0.6416016,1.5068359-0.3330078,3.2958984,0.8793945,4.5087891  c1.2133789,1.2148438,3.0043945,1.5195312,4.5092773,0.8808594c0.4863281,0.8808594,0.8710938,1.8076172,1.1503906,2.7705078  C61.6538086,46.7998047,60.605957,48.2832031,60.605957,50S61.6538086,53.2001953,63.1743164,53.8115234z"></path><path d="M83.4199219,35.1171875V16.1630859c0-1.2929688-0.7421875-2.4042969-1.9375-2.8994141  c-1.1948242-0.4960938-2.5068359-0.2353516-3.4204102,0.6796875l-4.0673828,4.0673828  c-7.6220703-5.7265625-17.0288086-8.5351562-26.6064453-7.9277344c-18.890625,1.2050781-34.4580078,15.6943359-37.015625,34.453125  c-0.6298828,4.6191406-0.4594727,9.2675781,0.5073242,13.8164062c0.0981445,0.4619141,0.5058594,0.7919922,0.9780273,0.7919922  h9.1899414c0.3129883,0,0.6079102-0.1464844,0.796875-0.3964844c0.1889648-0.2490234,0.2504883-0.5722656,0.1660156-0.8740234  c-0.9692383-3.4501953-1.293457-7.0078125-0.9633789-10.5742188c1.3222656-14.2900391,13.1210938-25.6142578,27.4448242-26.3388672  c6.3583984-0.328125,12.4462891,1.3613281,17.6743164,4.8779297l-4.9204102,4.9199219  c-0.9150391,0.9150391-1.175293,2.2255859-0.6801758,3.4208984s1.605957,1.9375,2.8994141,1.9375h18.9545898  C82.972168,36.1171875,83.4199219,35.6699219,83.4199219,35.1171875z M81.4199219,34.1171875H63.465332  c-0.7055664,0-0.9833984-0.5380859-1.0517578-0.703125s-0.2524414-0.7421875,0.246582-1.2412109l5.762207-5.7617188  c0.206543-0.2060547,0.3125-0.4931641,0.2900391-0.7841797s-0.1713867-0.5576172-0.4067383-0.7304688  c-5.8105469-4.2470703-12.6962891-6.2988281-19.9145508-5.9335938  c-15.3105469,0.7753906-27.921875,12.8789062-29.3349609,28.1533203c-0.3125,3.3740234-0.0766602,6.7421875,0.7001953,10.0283203  h-7.0800781c-0.7758789-4.0683594-0.8842773-8.2158203-0.3222656-12.3388672  c2.4296875-17.8183594,17.2172852-31.5820312,35.1611328-32.7265625C56.8930664,11.484375,66.1074219,14.3378906,73.4628906,20.125  c0.3979492,0.3134766,0.9682617,0.2792969,1.3251953-0.0791016l4.6879883-4.6884766  c0.4995117-0.5,1.0756836-0.3144531,1.2407227-0.2460938s0.703125,0.3457031,0.703125,1.0517578V34.1171875z"></path><path d="M18.5175781,86.7363281c1.1943359,0.4951172,2.5053711,0.2353516,3.4204102-0.6796875l4.0727539-4.0732422  C32.9804688,87.2314453,41.2548828,90,50,90c22.0561523,0,40-17.9443359,40-40c0-3.0410156-0.3544922-6.1025391-1.0527344-9.1015625  C88.8417969,40.4453125,88.4379883,40.125,87.9731445,40.125h-9.2280273c-0.3173828,0-0.6162109,0.1503906-0.8046875,0.40625  c-0.1884766,0.2548828-0.2446289,0.5849609-0.1508789,0.8886719c1.0595703,3.4355469,1.4682617,7.0205078,1.2158203,10.6533203  c-1.0068359,14.4775391-12.6943359,26.0625-27.1860352,26.9482422c-6.4638672,0.3994141-12.6572266-1.2832031-17.9814453-4.8652344  l4.9160156-4.9160156c0.9145508-0.9140625,1.175293-2.2246094,0.6806641-3.4199219  c-0.4951172-1.1953125-1.6064453-1.9375-2.8999023-1.9375H17.5800781c-0.5522461,0-1,0.4472656-1,1v18.9541016  C16.5800781,85.1298828,17.3222656,86.2412109,18.5175781,86.7363281z M18.5800781,65.8828125H36.534668  c0.7060547,0,0.9838867,0.5380859,1.0517578,0.703125c0.0683594,0.1650391,0.2524414,0.7412109-0.246582,1.2402344  l-5.7578125,5.7578125c-0.206543,0.2060547-0.3125,0.4931641-0.2900391,0.7841797s0.1713867,0.5576172,0.4072266,0.7304688  c5.9125977,4.3222656,12.9101562,6.3701172,20.2421875,5.9189453C67.4316406,80.0712891,79.9243164,67.6875,81.0004883,52.2119141  c0.2382812-3.4257812-0.074707-6.8125-0.9311523-10.0869141h7.1015625C87.7211914,44.7275391,88,47.3730469,88,50  c0,20.953125-17.046875,38-38,38c-8.5883789,0-16.6992188-2.8115234-23.456543-8.1308594  c-0.1826172-0.1435547-0.4008789-0.2138672-0.6181641-0.2138672c-0.2573242,0-0.5136719,0.0986328-0.7075195,0.2929688  l-4.6938477,4.6943359c-0.4990234,0.4990234-1.0756836,0.3144531-1.2407227,0.2460938s-0.703125-0.3457031-0.703125-1.0517578  V65.8828125z"></path></svg>