<svg height='100px' width='100px'  fill="#000000" xmlns="http://www.w3.org/2000/svg" data-name="Layer 1" viewBox="0 0 64 64" x="0px" y="0px"><path d="M32,2A30,30,0,1,0,62,32,30.034,30.034,0,0,0,32,2Zm0,58A28,28,0,1,1,60,32,28.032,28.032,0,0,1,32,60Z"></path><path d="M40.5,8.5a14.043,14.043,0,0,0-9.528,3.766,13.982,13.982,0,0,0-19.2,20.261A13.983,13.983,0,0,0,32.028,51.734a13.982,13.982,0,0,0,19.2-20.261A13.985,13.985,0,0,0,40.5,8.5Zm12,14a11.928,11.928,0,0,1-2.728,7.605,13.9,13.9,0,0,0-14.863-1.691A13.936,13.936,0,0,0,32.4,13.661,11.857,11.857,0,0,1,40.5,10.5,12.013,12.013,0,0,1,52.5,22.5ZM22,11A12,12,0,1,1,10,23,12.013,12.013,0,0,1,22,11ZM10.5,41.5a11.928,11.928,0,0,1,2.728-7.6,13.9,13.9,0,0,0,14.863,1.691A13.936,13.936,0,0,0,30.6,50.339,11.857,11.857,0,0,1,22.5,53.5,12.013,12.013,0,0,1,10.5,41.5ZM41,53A12,12,0,1,1,53,41,12.013,12.013,0,0,1,41,53Z"></path><path d="M25,23a4,4,0,1,0-4-4A4,4,0,0,0,25,23Zm0-6a2,2,0,1,1-2,2A2,2,0,0,1,25,17Z"></path><path d="M39,43a4,4,0,1,0,4,4A4,4,0,0,0,39,43Zm0,6a2,2,0,1,1,2-2A2,2,0,0,1,39,49Z"></path><path d="M20,40a4,4,0,1,0,4,4A4,4,0,0,0,20,40Zm0,6a2,2,0,1,1,2-2A2,2,0,0,1,20,46Z"></path><path d="M47,26a4,4,0,1,0-4-4A4,4,0,0,0,47,26Zm0-6a2,2,0,1,1-2,2A2,2,0,0,1,47,20Z"></path></svg>