<svg height='100px' width='100px'  fill="#000000" xmlns="http://www.w3.org/2000/svg" xmlns:xlink="http://www.w3.org/1999/xlink" version="1.1" x="0px" y="0px" viewBox="0 0 90 90" enable-background="new 0 0 90 90" xml:space="preserve"><path d="M38.76,29.002v0.172c0.172,0.148,0.263,0.373,0.234,0.617l-0.077,0.646h5.32v-0.718c0-0.21,0.09-0.401,0.239-0.53  c0.125-0.115,0.292-0.187,0.479-0.187H38.76z M44.237,53.061l-6.798-5.679l-0.517,0.436l-0.105,0.908l7.08,5.922l0.34-0.281  l0.779-0.657L44.237,53.061z M44.237,40.473v-1.875l-5.707-4.783l-0.196,1.707l5.506,4.617l-6.678,5.601l-0.148,1.282l0.425,0.36  l6.798-5.703l0.722-0.604L44.237,40.473z M59.014,86.889l-2.731-23.421c0-0.052-0.005-0.104-0.02-0.152v-0.005l-1.86-16.002  c0-0.019-0.005-0.038-0.009-0.057l-1.958-16.815l-0.096-0.813c-0.018-0.182-0.104-0.345-0.233-0.459  c-0.105-0.087-0.24-0.149-0.383-0.163c-0.059-0.01-0.115-0.015-0.177-0.004c-0.011,0-0.015,0-0.024,0.004h-2.731v-3.148h-0.957  v3.148h-2.401v-3.148h-0.957v3.148h0.479c-0.187,0-0.354,0.071-0.479,0.187c-0.148,0.129-0.239,0.32-0.239,0.53v10.754l0.722,0.603  l-0.722,0.604v11.381l0.779,0.648l0.656,0.551l0.462,0.388l6.995-5.861l1.511,12.97l0.24,2.075l2.708,23.226  c0.042,0.364,0.353,0.631,0.712,0.631c0.028,0,0.058,0,0.086-0.004C58.779,87.64,59.061,87.281,59.014,86.889z M52.775,45.76  l-6.702-5.621l5.512-4.617L52.775,45.76z M50.991,30.437l0.393,3.378l-5.711,4.788v-8.166H50.991z M45.672,53.164v-11.49l6.85,5.746  L45.672,53.164z M45.433,29.189c-0.124-0.115-0.292-0.187-0.478-0.187s-0.354,0.071-0.479,0.187c-0.148,0.129-0.239,0.32-0.239,0.53  v57.251c0,0.396,0.32,0.717,0.717,0.717s0.718-0.32,0.718-0.717V29.719C45.672,29.509,45.581,29.318,45.433,29.189z M44.955,24.658  c-0.263,0-0.479,0.21-0.479,0.479v4.569c0,0.268,0.215,0.479,0.479,0.479c0.268,0,0.478-0.21,0.478-0.479v-4.569  C45.433,24.869,45.222,24.658,44.955,24.658z M48.313,24.658c-0.264,0-0.479,0.21-0.479,0.479v4.569  c0,0.268,0.216,0.479,0.479,0.479c0.263,0,0.478-0.21,0.478-0.479v-4.569C48.791,24.869,48.576,24.658,48.313,24.658z   M51.628,24.658c-0.264,0-0.479,0.21-0.479,0.479v4.569c0,0.268,0.215,0.479,0.479,0.479c0.268,0,0.479-0.21,0.479-0.479v-4.569  C52.106,24.869,51.896,24.658,51.628,24.658z M41.501,24.645c-0.264,0-0.479,0.21-0.479,0.478v4.573  c0,0.263,0.215,0.478,0.479,0.478c0.268,0,0.478-0.215,0.478-0.478v-4.573C41.979,24.855,41.769,24.645,41.501,24.645z   M37.803,29.002v0.172c0.095-0.086,0.215-0.148,0.344-0.172H37.803z M38.281,24.658c-0.263,0-0.478,0.21-0.478,0.479v0.718h0.957  v-0.718C38.76,24.869,38.545,24.658,38.281,24.658z M51.628,11.916H38.281c-0.397,0-0.717,0.32-0.717,0.717v12.504  c0,0.211,0.091,0.402,0.239,0.531c0.124,0.115,0.292,0.187,0.478,0.187h2.741v3.148h0.957v-3.148h9.17v-0.187  c0.125,0.115,0.292,0.187,0.479,0.187c0.186,0,0.354-0.072,0.479-0.187c0.147-0.129,0.239-0.32,0.239-0.531V12.632  C52.346,12.235,52.024,11.916,51.628,11.916z M38.999,24.419V13.35H50.91v11.069H38.999z M52.015,9.997l-0.134-0.11l-6.185-5.066  l-0.263-0.216c-0.263-0.219-0.646-0.219-0.908,0l-0.264,0.216l-6.19,5.066l-0.201,0.163c-0.234,0.191-0.321,0.512-0.22,0.799  c0.101,0.281,0.373,0.474,0.674,0.474h13.312c0.397,0,0.718-0.321,0.718-0.718C52.354,10.351,52.222,10.122,52.015,9.997z   M40.333,9.887l4.645-3.798l4.641,3.798H40.333z M54.368,24.419H35.541c-0.397,0-0.718,0.32-0.718,0.717v4.583  c0,0.398,0.32,0.718,0.718,0.718h1.933l0.095-0.813c0.02-0.182,0.11-0.334,0.235-0.45c0.095-0.086,0.215-0.148,0.344-0.172h-1.89  v-3.148h4.765v3.148H38.76v0.172c0.172,0.148,0.263,0.373,0.234,0.617l-0.077,0.646h15.451c0.397,0,0.718-0.32,0.718-0.718v-4.583  C55.086,24.74,54.766,24.419,54.368,24.419z M47.834,29.002h-2.401v-3.148h2.401V29.002z M41.979,29.002v-3.148h2.497v3.148H41.979z   M48.791,29.002v-3.148h2.358v3.148H48.791z M53.651,29.002h-1.545v-3.148h1.545V29.002z M41.022,25.854v3.148h0.957v-3.148H41.022z   M44.476,25.854v3.148h0.957v-3.148H44.476z M47.834,25.854v3.148h0.957v-3.148H47.834z M51.628,25.854  c-0.187,0-0.354-0.072-0.479-0.187v3.334h0.957v-3.148H51.628z M38.324,9.887h-2.841c-0.397,0-0.717,0.321-0.717,0.718  c0,0.396,0.32,0.718,0.717,0.718h2.841c0.397,0,0.718-0.321,0.718-0.718C39.042,10.208,38.722,9.887,38.324,9.887z M54.388,9.887  h-2.841c-0.397,0-0.718,0.321-0.718,0.718c0,0.396,0.32,0.718,0.718,0.718h2.841c0.397,0,0.718-0.321,0.718-0.718  C55.105,10.208,54.785,9.887,54.388,9.887z M44.979,2.281c-0.397,0-0.718,0.326-0.718,0.718V5.16c0,0.398,0.321,0.718,0.718,0.718  s0.717-0.32,0.717-0.718V2.999C45.696,2.606,45.375,2.281,44.979,2.281z M52.67,33.671c-0.253-0.302-0.707-0.34-1.014-0.086  l-0.272,0.229l-5.711,4.788v-8.166h-1.435v9.372l-0.397,0.33l-6.678,5.601l-0.148,1.282l0.425,0.36l6.798-5.703l0.722-0.604  l0.713-0.598l0.401-0.339l5.512-4.617l0.995-0.836C52.886,34.432,52.924,33.977,52.67,33.671z M53.757,46.669  c-0.043-0.092-0.105-0.178-0.188-0.245l-0.794-0.664l-6.702-5.621l-0.401-0.334l-0.713-0.604l-0.722-0.603l-5.707-4.783  l-0.196,1.707l5.506,4.617l0.397,0.334l0.722,0.603l0.713,0.598l6.85,5.746l0.124,0.104c0.105,0.092,0.225,0.143,0.354,0.157  c0.032,0.006,0.071,0.01,0.104,0.01c0.206,0,0.412-0.087,0.551-0.253C53.843,47.214,53.871,46.912,53.757,46.669z M54.394,47.252  c-0.02-0.121-0.072-0.234-0.154-0.331c-0.129-0.151-0.301-0.237-0.482-0.252c-0.188-0.021-0.378,0.032-0.531,0.162l-0.297,0.249  l-0.406,0.34l-6.85,5.744v-11.49l-0.713-0.598l-0.722,0.604v11.381l0.779,0.648l-0.779,0.657l-0.34,0.281l-8.586,7.2l-0.239,2.075  l9.166-7.683l0.779-0.654l0.656-0.551l0.462-0.388l6.995-5.861l1.02-0.855c0.19-0.157,0.276-0.392,0.253-0.622  C54.402,47.29,54.397,47.271,54.394,47.252z M56.263,63.315v-0.005c-0.032-0.148-0.115-0.293-0.239-0.397l-1.383-1.157l-8.506-7.108  l-0.462-0.388l-0.656-0.551l-0.779-0.648l-6.798-5.679l-0.517,0.436l-0.105,0.908l7.08,5.922l0.34,0.281l0.779,0.657l0.656,0.545  l9.208,7.7l0.22,0.184c0.135,0.113,0.301,0.166,0.459,0.166c0.206,0,0.412-0.086,0.556-0.258c0.109-0.134,0.167-0.296,0.167-0.455  C56.282,63.416,56.277,63.363,56.263,63.315z M38.76,29.174v-3.32h-0.957v3.148h0.344c-0.129,0.024-0.249,0.086-0.344,0.172  c-0.125,0.115-0.215,0.268-0.235,0.45l-0.095,0.813l-6.487,56.452c-0.048,0.398,0.234,0.751,0.631,0.795  c0.024,0.004,0.053,0.004,0.082,0.004c0.358,0,0.669-0.267,0.713-0.637l2.66-23.128l0.239-2.075l1.506-13.122l0.105-0.908  l0.517-0.436l-0.425-0.36l0.148-1.282l1.172-10.218l0.196-1.707l0.387-3.378l0.077-0.646C39.023,29.547,38.932,29.322,38.76,29.174z   M35.842,46.855c0-0.01,0.01-0.015,0.019-0.024l0.034-0.023C35.875,46.822,35.856,46.835,35.842,46.855z"></path></svg>