<svg height='100px' width='100px'  fill="#000000" xmlns="http://www.w3.org/2000/svg" xmlns:xlink="http://www.w3.org/1999/xlink" version="1.1" x="0px" y="0px" viewBox="0 0 100 100" enable-background="new 0 0 100 100" xml:space="preserve"><path d="M91.756,51.006c-5.883-5.883-13.938-8.298-21.607-7.255c3.43-4.36,5.483-9.851,5.483-15.815  c0-9.33-5.078-17.932-13.252-22.448c-0.964-0.534-2.183-0.184-2.718,0.783c-0.534,0.967-0.183,2.184,0.784,2.718  c6.899,3.813,11.186,11.073,11.186,18.947c0,5.546-2.101,10.61-5.544,14.442c-3.669-4.906-9.505-8.101-16.087-8.101  c-6.583,0-12.419,3.196-16.087,8.102c-3.445-3.833-5.545-8.896-5.545-14.443c0-7.871,4.284-15.13,11.181-18.945  c0.967-0.535,1.317-1.751,0.782-2.718c-0.534-0.967-1.75-1.319-2.718-0.782c-8.17,4.519-13.245,13.119-13.245,22.445  c0,5.965,2.054,11.455,5.483,15.815c-7.669-1.043-15.724,1.373-21.607,7.255c-6.598,6.599-9.09,16.271-6.503,25.243  c0.306,1.062,1.414,1.67,2.476,1.368c1.061-0.306,1.673-1.414,1.368-2.476c-2.184-7.574-0.081-15.738,5.488-21.308  c5.388-5.388,12.932-7.316,19.878-5.82c-0.67,2.002-1.049,4.137-1.049,6.362c0,10.181,7.616,18.598,17.446,19.902  c-0.906,3.72-2.784,7.25-5.683,10.149c-5.567,5.566-13.728,7.669-21.302,5.488c-1.06-0.306-2.169,0.308-2.475,1.368  c-0.306,1.062,0.307,2.17,1.369,2.476c2.342,0.675,4.73,1.003,7.101,1.003c6.709,0,13.263-2.633,18.137-7.507  c2.427-2.427,4.259-5.226,5.507-8.212c1.248,2.986,3.08,5.785,5.507,8.212c4.874,4.874,11.426,7.507,18.135,7.507  c2.37,0,4.76-0.329,7.102-1.003c1.062-0.306,1.674-1.414,1.368-2.476s-1.41-1.676-2.476-1.368  c-7.573,2.181-15.734,0.076-21.301-5.488c-2.899-2.899-4.776-6.429-5.683-10.148c9.83-1.305,17.447-9.723,17.447-19.903  c0-2.226-0.378-4.36-1.049-6.362c6.947-1.495,14.489,0.434,19.877,5.82c5.568,5.569,7.671,13.734,5.487,21.308  c-0.306,1.061,0.307,2.169,1.368,2.476c1.057,0.301,2.169-0.306,2.476-1.368C100.846,67.277,98.354,57.604,91.756,51.006z   M50,59.217c-0.868-2.075-2.021-4.058-3.458-5.889c1.132,0.153,2.285,0.239,3.458,0.239s2.327-0.087,3.458-0.24  C52.021,55.159,50.867,57.141,50,59.217z M50,38.277c5.424,0,10.22,2.704,13.138,6.827c-3.646,2.796-8.2,4.464-13.139,4.464  c-4.938,0-9.493-1.667-13.138-4.463C39.78,40.981,44.576,38.277,50,38.277z M33.902,54.376c0-1.809,0.313-3.543,0.866-5.167  c2.507,1.053,4.858,2.587,6.896,4.625c4.521,4.521,6.594,10.561,6.269,16.492C40.031,69.307,33.902,62.551,33.902,54.376z   M66.1,54.376c0,8.176-6.13,14.932-14.033,15.951c-0.325-5.933,1.748-11.973,6.269-16.493c2.039-2.038,4.391-3.573,6.898-4.625  C65.786,50.833,66.1,52.566,66.1,54.376z"></path></svg>