<svg height='100px' width='100px'  fill="#000000" xmlns:dc="http://purl.org/dc/elements/1.1/" xmlns:cc="http://creativecommons.org/ns#" xmlns:rdf="http://www.w3.org/1999/02/22-rdf-syntax-ns#" xmlns:svg="http://www.w3.org/2000/svg" xmlns="http://www.w3.org/2000/svg" xmlns:sodipodi="http://sodipodi.sourceforge.net/DTD/sodipodi-0.dtd" xmlns:inkscape="http://www.inkscape.org/namespaces/inkscape" viewBox="0 0 26.458333 26.458334" version="1.1" x="0px" y="0px"><g transform="translate(131.02975,-196.70833)"><path d="m -118.05528,197.36979 c 0,0.83434 -0.46032,2.01197 -1.18284,3.34468 -0.72253,1.33268 -1.6964,2.82696 -2.68209,4.35556 -1.97138,3.05723 -4.00843,6.22332 -4.15281,8.69191 -0.2909,4.97386 3.70782,8.74327 8.27959,8.74327 4.57139,0 8.3141,-3.76157 8.27999,-8.72981 -0.0173,-2.51149 -2.0624,-5.65935 -4.0645,-8.69865 -1.00106,-1.51965 -1.99758,-3.00557 -2.73854,-4.33709 -0.74095,-1.33152 -1.21514,-2.51439 -1.21514,-3.36987 z m 0.26262,1.37769 c 0.22473,0.69725 0.57234,1.44467 1.01872,2.24684 0.75738,1.36105 1.75929,2.85324 2.75873,4.37042 1.99887,3.03438 3.96288,6.19534 3.97811,8.41419 0.0323,4.70494 -3.47108,8.20261 -7.75633,8.20261 -4.28486,0 -8.03053,-3.50925 -7.75681,-8.18919 0.12854,-2.19782 2.10053,-5.3842 4.07001,-8.43845 0.98473,-1.52714 1.96424,-3.02817 2.70248,-4.38985 0.43076,-0.79454 0.76633,-1.53196 0.98509,-2.21657 z m 3.39663,9.91572 c -0.99308,0 -1.80363,0.81092 -1.80363,1.80422 0,0.99333 0.81054,1.80441 1.80363,1.80441 0.99308,0 1.80362,-0.81108 1.80362,-1.80441 0,-0.9933 -0.81055,-1.80422 -1.80362,-1.80422 z m 0,0.52367 c 0.70996,0 1.27996,0.57015 1.27996,1.28055 0,0.71043 -0.57,1.28075 -1.27996,1.28075 -0.70996,0 -1.27996,-0.57032 -1.27996,-1.28075 0,-0.7104 0.57,-1.28055 1.27996,-1.28055 z m -7.0802,0.81973 c -0.11685,-0.001 -0.23478,0.004 -0.35346,0.0148 -0.11874,0.0106 -0.23818,0.0285 -0.35804,0.0512 -0.11992,0.0228 -0.24029,0.0512 -0.36107,0.0848 -0.12075,0.0336 -0.2419,0.0721 -0.3631,0.11584 -0.24233,0.0871 -0.48508,0.19363 -0.72676,0.31689 -0.14689,0.0748 -0.28026,0.16129 -0.40453,0.23447 a 0.26185429,0.26185429 0 0 0 -0.104,0.11415 c -0.48785,1.0375 -0.83202,2.02118 -0.88401,2.91152 -0.25416,4.35275 3.24075,7.65436 7.23684,7.65436 3.34297,0 6.17494,-2.30744 6.99197,-5.60736 a 0.26185429,0.26185429 0 0 0 -0.35941,-0.30269 c -0.0621,0.0273 -0.10766,0.0514 -0.14469,0.067 -0.13459,0.0567 -0.27073,0.11034 -0.40834,0.16002 -0.13759,0.0497 -0.2767,0.0953 -0.41707,0.13592 -0.14034,0.0406 -0.28198,0.0759 -0.42518,0.10527 -0.14313,0.0292 -0.28769,0.0522 -0.43358,0.0681 -0.14582,0.0148 -0.29298,0.0243 -0.44152,0.0245 -0.14928,0 -0.29966,-0.008 -0.45148,-0.0254 -0.15198,-0.0169 -0.30589,-0.0444 -0.46175,-0.082 -0.15581,-0.0376 -0.3136,-0.0858 -0.47364,-0.14606 -0.16011,-0.0602 -0.32239,-0.13233 -0.48712,-0.21794 -0.16478,-0.0856 -0.33204,-0.18454 -0.50166,-0.29839 -0.16959,-0.11373 -0.34164,-0.24238 -0.51617,-0.38726 -0.1745,-0.1448 -0.35147,-0.30603 -0.53071,-0.48467 -0.17928,-0.17862 -0.36074,-0.3747 -0.54446,-0.58972 -0.18371,-0.21504 -0.36959,-0.44901 -0.55761,-0.70305 -0.18803,-0.25406 -0.37829,-0.52827 -0.57032,-0.82377 -0.19205,-0.29548 -0.38589,-0.61232 -0.58177,-0.95174 -0.0706,-0.1224 -0.14569,-0.23663 -0.22483,-0.34302 -0.0791,-0.10633 -0.16245,-0.20504 -0.24975,-0.29564 -0.0872,-0.0907 -0.17837,-0.17334 -0.27314,-0.24821 -0.0949,-0.075 -0.19327,-0.14184 -0.29443,-0.20103 -0.10121,-0.0592 -0.20553,-0.11056 -0.31243,-0.15431 -0.10679,-0.0438 -0.21606,-0.0799 -0.32717,-0.10865 -0.11123,-0.0288 -0.22432,-0.0501 -0.33861,-0.0647 -0.11436,-0.0148 -0.23008,-0.0222 -0.347,-0.0235 z m -0.006,0.52356 h 4.3e-4 c 0.0976,0.001 0.19306,0.008 0.28645,0.019 0.0935,0.0127 0.18465,0.0292 0.27343,0.0522 0.0889,0.023 0.17562,0.0516 0.26003,0.0863 0.0843,0.0344 0.16649,0.075 0.24667,0.12197 0.0802,0.0469 0.15823,0.0998 0.23385,0.15959 0.0757,0.0598 0.14937,0.12662 0.2207,0.20061 0.0713,0.074 0.1403,0.15537 0.20678,0.24487 0.0665,0.0894 0.13034,0.18665 0.19133,0.29226 0.20018,0.34686 0.39886,0.67168 0.59629,0.97546 0.19746,0.3038 0.39361,0.58657 0.58837,0.84975 0.19475,0.26315 0.38831,0.5068 0.58056,0.73182 0.19226,0.22502 0.38315,0.43135 0.57291,0.62048 0.18978,0.18919 0.37845,0.36102 0.56591,0.51662 0.18744,0.15558 0.37379,0.29493 0.55899,0.41918 0.18517,0.1243 0.36922,0.23346 0.55195,0.32839 0.18276,0.0949 0.36419,0.17566 0.54417,0.2433 0.18002,0.0676 0.35859,0.12219 0.53528,0.16489 0.17668,0.0427 0.35154,0.0734 0.52443,0.0932 0.17304,0.019 0.34365,0.0288 0.51145,0.0288 0.16836,-2.2e-4 0.33428,-0.0106 0.49748,-0.0275 0.16327,-0.0169 0.32408,-0.0433 0.4821,-0.0755 0.15795,-0.0323 0.3132,-0.071 0.46584,-0.1152 0.15262,-0.0442 0.30252,-0.0934 0.44965,-0.14671 0.0263,-0.0106 0.0513,-0.0211 0.0774,-0.0302 -0.91368,2.80261 -3.40751,4.69726 -6.3349,4.69726 -3.70871,0 -6.95113,-3.04082 -6.71411,-7.10011 0.0442,-0.7572 0.34914,-1.66838 0.80357,-2.64737 0.10677,-0.0643 0.21183,-0.12979 0.30418,-0.17672 0.22387,-0.11415 0.44669,-0.2117 0.66606,-0.29059 0.10964,-0.0393 0.21834,-0.0742 0.3259,-0.104 0.10754,-0.0298 0.21392,-0.055 0.31875,-0.0748 0.10487,-0.019 0.20817,-0.0349 0.30956,-0.0444 0.10145,-0.0106 0.20107,-0.0148 0.29868,-0.0127 z m 4.64802,0.80858 c -0.42539,0 -0.77572,0.3506 -0.77572,0.77599 0,0.42542 0.35033,0.77606 0.77572,0.77606 0.4254,0 0.77584,-0.35064 0.77585,-0.77606 -1e-5,-0.42539 -0.35045,-0.77599 -0.77585,-0.77599 z m 4.66052,0.0419 c -0.42539,0 -0.77584,0.3506 -0.77584,0.77602 0,0.42539 0.35045,0.77587 0.77584,0.77587 0.42541,0 0.77573,-0.35048 0.77573,-0.77587 0,-0.42542 -0.35032,-0.77602 -0.77573,-0.77602 z m -4.66052,0.48175 c 0.14228,0 0.25218,0.10992 0.25218,0.25233 0,0.14247 -0.1099,0.25239 -0.25218,0.25239 -0.14228,0 -0.25206,-0.10992 -0.25206,-0.25239 0,-0.14247 0.10978,-0.25233 0.25206,-0.25233 z m 4.66052,0.0418 c 0.14229,0 0.25206,0.10992 0.25206,0.25235 0,0.14248 -0.10977,0.25221 -0.25206,0.25221 -0.14228,0 -0.25218,-0.10971 -0.25218,-0.25221 0,-0.14247 0.1099,-0.25235 0.25218,-0.25235 z m -2.69281,0.86244 c -0.70924,0 -1.28975,0.58084 -1.28975,1.29021 -1e-5,0.70935 0.58051,1.29002 1.28975,1.29002 0.70924,0 1.28976,-0.58067 1.28976,-1.29002 -1e-5,-0.70937 -0.58052,-1.29021 -1.28976,-1.29021 z m 0,0.52366 c 0.42612,0 0.76609,0.34008 0.76609,0.76655 0,0.42645 -0.33997,0.76636 -0.76609,0.76636 -0.42612,0 -0.76605,-0.33991 -0.76605,-0.76636 0,-0.42647 0.33993,-0.76655 0.76605,-0.76655 z m 2.67906,0.15706 c -0.56732,0 -1.0328,0.46575 -1.0328,1.03311 0,0.56738 0.46548,1.03298 1.0328,1.03298 0.56732,0 1.0328,-0.4656 1.0328,-1.03298 0,-0.56736 -0.46548,-1.03311 -1.0328,-1.03311 z m -11.34052,0.4414 a 0.26185429,0.26185429 0 0 0 -0.27298,0.25006 c -0.1972,3.36795 2.51619,5.92642 5.61762,5.92642 a 0.26185429,0.26185429 0 1 0 0,-0.52367 c -2.81484,0 -5.27485,-2.2985 -5.09488,-5.3722 a 0.26185429,0.26185429 0 0 0 -0.24976,-0.28061 z m 11.34052,0.0822 c 0.28421,0 0.50913,0.22498 0.50913,0.50947 0,0.28448 -0.22492,0.50946 -0.50913,0.50946 -0.2842,0 -0.50914,-0.22498 -0.50914,-0.50946 0,-0.28449 0.22494,-0.50947 0.50914,-0.50947 z" style="color:#000000;font-style:normal;font-variant:normal;font-weight:normal;font-stretch:normal;font-size:medium;line-height:normal;font-family:sans-serif;text-indent:0;text-align:start;text-decoration:none;text-decoration-line:none;text-decoration-style:solid;text-decoration-color:#000000;letter-spacing:normal;word-spacing:normal;text-transform:none;writing-mode:lr-tb;direction:ltr;baseline-shift:baseline;text-anchor:start;white-space:normal;clip-rule:nonzero;display:inline;overflow:visible;visibility:visible;opacity:1;isolation:auto;mix-blend-mode:normal;color-interpolation:sRGB;color-interpolation-filters:linearRGB;solid-color:#000000;solid-opacity:1;fill:#000000;fill-opacity:1;fill-rule:nonzero;stroke:none;stroke-width:1.3964268;stroke-linecap:round;stroke-linejoin:round;stroke-miterlimit:4;stroke-dasharray:none;stroke-dashoffset:0;stroke-opacity:1;paint-order:fill markers stroke;color-rendering:auto;image-rendering:auto;shape-rendering:auto;text-rendering:auto;enable-background:accumulate"></path></g></svg>