<svg height='100px' width='100px'  fill="#000000" xmlns="http://www.w3.org/2000/svg" xmlns:xlink="http://www.w3.org/1999/xlink" version="1.1" x="0px" y="0px" viewBox="0 0 100 100" enable-background="new 0 0 100 100" xml:space="preserve"><g><path d="M33.67,75.561c-0.274,0-0.569-0.048-0.886-0.145l-0.499-0.152l0.173-0.491c0.086-0.246,0.299-0.852,0.335-1.099   c-0.022-0.011-0.046-0.021-0.071-0.034c-0.248-0.121-0.662-0.322-1.135-0.855c-0.372-0.419-0.416-0.966-0.454-1.449   c-0.062-0.764-0.127-0.886-0.504-0.934l-0.467-0.06l0.032-0.47c0.02-0.291,0.02-0.291-0.418-0.382   c-0.301-0.062-0.676-0.14-1.009-0.405c-0.51-0.404-1.018-1.224-1.466-1.947c-0.132-0.213-0.255-0.413-0.365-0.576l-0.106-0.158   c-0.913-1.363-1.634-2.439-1.119-3.199c0.311-0.458,0.932-0.599,2.026-0.44c-0.089-0.113-0.192-0.234-0.276-0.333   c-0.566-0.665-1.341-1.577-0.947-2.791c0.273-0.842,0.955-1.194,1.452-1.451c0.168-0.087,0.45-0.232,0.479-0.306   c0-0.001,0.03-0.161-0.346-0.661c-0.157-0.209-0.438-0.46-0.736-0.726c-0.815-0.729-1.831-1.637-1.577-2.81   c0.251-1.158,3.431-3.09,4.549-3.505c0.894-1.333-0.082-2.654-1.495-4.09c-0.122,0.135-0.251,0.254-0.373,0.368   c-0.1,0.092-0.196,0.18-0.277,0.271l-0.336,0.375l-0.373-0.338c-1.429-1.296-1.424-3.249-1.42-4.972   c0.005-2.368-0.096-3.846-2.153-4.382c0.003,0.009-0.122,0.048-0.205,0.074c-0.227,0.072-0.484,0.153-0.747,0.102   c-0.23-0.044-0.554-0.2-0.985-0.417c-0.137-0.068-0.26-0.13-0.344-0.167c-0.242-0.105-0.469-0.173-0.677-0.236   c-0.671-0.203-1.365-0.413-1.667-1.507c-0.312-1.13,0.155-2.441,1.136-3.19c0.605-0.462,1.303-0.623,1.958-0.466   c0.133-0.488,0.362-0.982,0.756-1.262c0.284-0.202,0.623-0.27,0.975-0.202l0.468,0.092l-0.07,0.472   c-0.026,0.174-0.028,0.285-0.024,0.351c0.131-0.021,0.344-0.088,0.496-0.136c0.281-0.089,0.599-0.19,0.914-0.215   c0.906-0.072,1.542,0.274,2.096,0.597c-0.038-0.104-0.074-0.207-0.11-0.31c-0.139-0.399-0.271-0.775-0.475-1.103   c-0.151-0.242-0.421-0.433-0.708-0.635c-0.314-0.222-0.639-0.451-0.843-0.784c-0.251-0.41-0.287-0.796-0.315-1.106   c-0.026-0.288-0.045-0.496-0.208-0.724c-0.078-0.11-0.399-0.313-0.633-0.462c-0.382-0.243-0.777-0.495-1.044-0.81   c-0.825-0.974-1.109-2.021-1.383-3.035c-0.249-0.92-0.484-1.788-1.128-2.492c-0.867-0.95-2.56-2.326-3.64-2.195l-2.82,0.318   l2.541-1.263c0.035-0.018,0.065-0.033,0.091-0.047c-0.902-0.082-2.105-0.184-2.753,0.043c-0.41,0.143-0.77,0.458-1.152,0.792   c-0.272,0.237-0.551,0.481-0.868,0.683l0.024,0.049c-0.166,0.083-0.337,0.152-0.513,0.208l-0.271-0.719l-0.239-0.062   c0.019-0.085,0.004-0.386-0.007-0.628c-0.046-0.975-0.115-2.448,0.729-3.283c0.325-0.321,0.791-0.416,1.202-0.5   c0.219-0.044,0.446-0.091,0.579-0.161c0.443-0.233,0.854-0.549,1.29-0.884c0.472-0.363,0.961-0.738,1.521-1.028   c0.648-0.335,1.346-0.644,2.021-0.942c1.479-0.654,3.007-1.331,4.033-2.294c0.278-0.262,0.503-0.494,0.704-0.7   c0.776-0.8,1.289-1.329,3.028-1.681c1.132-0.229,2.406-0.42,3.511-0.581c0.575-0.083,1.169-0.077,1.745-0.077   c0.82,0.005,1.601,0.01,2.246-0.23c1.517-0.567,3.917-1.854,4.249-2.814l0.229-0.663l0.552,0.433   c1.328,1.042,1.838,2.172,2.378,3.368c0.156,0.346,0.319,0.707,0.51,1.086c0.476,0.947,1.208,1.44,1.981,1.962   c0.717,0.483,1.458,0.983,2.033,1.852c0.387,0.583,0.627,1.189,0.859,1.774c0.276,0.697,0.537,1.355,1.025,1.931   c0.252,0.298,0.503,0.625,0.756,0.956c0.446,0.583,0.907,1.187,1.397,1.637c0.146,0.134,0.405,0.276,0.656,0.414   c0.261,0.143,0.53,0.29,0.748,0.465c0.329,0.263,0.602,0.593,0.867,0.912c0.253,0.305,0.492,0.593,0.755,0.799   c1.281,1.001,1.49,1.354,2.182,2.524l0.099,0.166c0.37,0.625,0.859,1.153,1.376,1.712c0.618,0.668,1.258,1.36,1.698,2.244   c0.413,0.831,0.813,1.922,0.54,2.643c0.139,0.564,0.097,1.174,0.057,1.766c-0.041,0.593-0.082,1.207,0.065,1.731   c0.074,0.265,0.208,0.566,0.351,0.884c0.147,0.331,0.297,0.669,0.399,1c0.172,0.556,0.265,1.065,0.363,1.604   c0.039,0.212,0.078,0.429,0.124,0.655c0.403,1.993,0.821,3.479,1.443,5.131c0.309,0.821,0.429,1.691,0.545,2.532   c0.051,0.369,0.1,0.726,0.164,1.07c0.174-0.061,0.367-0.084,0.585-0.102l0.762-0.071l-0.038,0.585   c-0.068,1.064,0.334,2.141,0.761,3.281c0.409,1.093,0.831,2.223,0.879,3.446c0.085,2.17-0.011,2.817-1.362,3.979   c0.23,0.297,0.351,0.674,0.354,1.117c0.014,1.887-2.15,4.552-3.239,5.167c-0.883,0.5-1.438,0.438-1.974,0.378   c-0.299-0.034-0.607-0.067-1.036-0.016c-0.578,0.069-1.11,0.381-1.675,0.711c-0.383,0.224-0.775,0.453-1.191,0.604   c-0.025,1.274-0.08,2.835-1.764,3.399l-0.287,0.096l-0.218-0.209c-0.359-0.345-1.495-0.252-2.079,0.069l-0.312,0.171L50.447,66.8   c-0.492-0.445-0.652-1.108-0.792-1.693c-0.158-0.658-0.276-1.028-0.548-1.204c-0.522,1.078-1.147,1.758-2.19,2.415l-0.897,0.566   l0.135-1.052c0.051-0.398,0.085-0.813,0.101-1.219c-1.535-0.353-3.102,1.079-4.379,2.242c-0.292,0.265-0.565,0.514-0.816,0.722   c-0.408,0.338-0.733,0.749-1.078,1.184c-0.262,0.331-0.535,0.675-0.865,1.023c-0.251,0.265-0.496,0.483-0.732,0.693   c-0.36,0.32-0.67,0.596-0.934,0.988c-0.11,0.163-0.176,0.337-0.253,0.54c-0.1,0.263-0.213,0.562-0.442,0.859l-0.463,0.604   l-0.37-0.665c-0.021-0.038-0.048-0.076-0.079-0.115c-0.105,0.967-0.336,2.032-1.115,2.563   C34.425,75.458,34.071,75.561,33.67,75.561z M33.589,74.56c0.231,0.015,0.424-0.032,0.576-0.136   c0.58-0.396,0.678-1.676,0.744-2.523l0.155-1.727l0.781,1.091c0.071,0.1,0.197,0.215,0.33,0.337   c0.026,0.023,0.052,0.047,0.078,0.072c0.003-0.008,0.007-0.017,0.01-0.026c0.086-0.227,0.184-0.484,0.358-0.743   c0.335-0.498,0.724-0.843,1.1-1.178c0.216-0.192,0.441-0.391,0.67-0.634c0.308-0.325,0.562-0.647,0.807-0.956   c0.378-0.478,0.735-0.929,1.225-1.334c0.241-0.199,0.502-0.438,0.781-0.691c1.49-1.356,3.532-3.214,5.747-2.33l0.318,0.127   l-0.003,0.342c-0.002,0.186-0.008,0.375-0.017,0.566c0.477-0.447,0.806-0.966,1.128-1.724l0.149-0.35l0.377,0.05   c1.267,0.169,1.532,1.271,1.726,2.076c0.085,0.354,0.167,0.692,0.305,0.943c0.769-0.282,1.868-0.375,2.588,0.053   c0.77-0.382,0.828-1.194,0.853-2.431l0.018-0.706l0.382-0.084c0.407-0.089,0.834-0.339,1.286-0.603   c0.599-0.35,1.276-0.746,2.061-0.841c0.541-0.066,0.942-0.021,1.265,0.015c0.479,0.054,0.769,0.086,1.372-0.255   c0.859-0.485,2.742-2.876,2.731-4.289c-0.003-0.439-0.198-0.602-0.368-0.695l-0.662-0.361l0.59-0.469   c1.504-1.195,1.534-1.387,1.449-3.539c-0.042-1.063-0.436-2.116-0.816-3.135c-0.373-0.997-0.756-2.021-0.822-3.079   c-0.051,0.039-0.079,0.105-0.131,0.228l-0.541,1.266l-0.398-1.318c-0.203-0.672-0.302-1.385-0.396-2.074   c-0.114-0.823-0.221-1.6-0.49-2.316c-0.642-1.705-1.073-3.236-1.488-5.285c-0.047-0.232-0.087-0.456-0.127-0.674   c-0.092-0.508-0.18-0.988-0.334-1.486c-0.091-0.293-0.226-0.593-0.357-0.888c-0.15-0.337-0.306-0.686-0.4-1.021   c-0.194-0.69-0.146-1.391-0.101-2.069c0.041-0.594,0.079-1.155-0.067-1.586l-0.082-0.242l0.147-0.208   c0.103-0.144,0.017-0.835-0.493-1.859c-0.376-0.755-0.939-1.365-1.536-2.01c-0.53-0.573-1.078-1.165-1.502-1.881l-0.099-0.167   c-0.667-1.126-0.805-1.361-1.938-2.246c-0.348-0.273-0.633-0.616-0.909-0.948c-0.244-0.293-0.474-0.57-0.722-0.77   c-0.15-0.121-0.381-0.247-0.604-0.369c-0.303-0.167-0.617-0.338-0.852-0.554c-0.555-0.51-1.043-1.148-1.515-1.766   c-0.243-0.318-0.482-0.631-0.725-0.917c-0.595-0.701-0.898-1.468-1.192-2.209c-0.223-0.562-0.434-1.094-0.763-1.59   c-0.466-0.703-1.094-1.126-1.759-1.575C42.636,8.291,41.761,7.7,41.167,6.52c-0.198-0.393-0.366-0.766-0.528-1.125   c-0.455-1.008-0.828-1.835-1.643-2.612c-1.185,1.559-4.467,2.8-4.504,2.813c-0.817,0.305-1.727,0.301-2.602,0.294   c-0.562-0.003-1.094-0.006-1.594,0.066c-1.092,0.159-2.35,0.347-3.457,0.572c-1.435,0.291-1.771,0.638-2.509,1.397   c-0.21,0.216-0.446,0.459-0.737,0.732c-1.149,1.08-2.758,1.792-4.312,2.48c-0.672,0.297-1.341,0.593-1.967,0.917   c-0.481,0.249-0.914,0.581-1.371,0.932c-0.45,0.346-0.916,0.704-1.434,0.976c-0.258,0.136-0.556,0.197-0.844,0.256   c-0.274,0.056-0.585,0.119-0.699,0.231c-0.518,0.511-0.473,1.681-0.435,2.478c0.072-0.062,0.146-0.126,0.219-0.19   c0.437-0.381,0.888-0.776,1.48-0.983c0.865-0.303,2.175-0.185,3.23-0.09c0.27,0.024,0.521,0.047,0.736,0.06l0.856,0.049   l-0.464,0.721c-0.063,0.098-0.096,0.183-0.127,0.259c-0.002,0.005-0.004,0.009-0.006,0.014c1.63,0.48,3.215,2.171,3.425,2.401   c0.807,0.883,1.085,1.911,1.355,2.905c0.257,0.95,0.5,1.847,1.181,2.65c0.169,0.2,0.514,0.419,0.818,0.613   c0.386,0.245,0.719,0.457,0.911,0.726c0.319,0.448,0.358,0.872,0.389,1.213c0.023,0.259,0.042,0.464,0.171,0.675   c0.097,0.158,0.325,0.319,0.567,0.49c0.338,0.239,0.721,0.51,0.978,0.921c0.264,0.422,0.42,0.87,0.571,1.303   c0.168,0.481,0.327,0.937,0.62,1.324l0.724,0.958l-1.19-0.161c-0.564-0.076-1.002-0.333-1.427-0.58   c-0.507-0.296-0.944-0.553-1.578-0.502c-0.202,0.016-0.451,0.095-0.692,0.171c-0.497,0.158-1.059,0.334-1.472-0.016   c-0.15-0.128-0.237-0.292-0.283-0.469c-0.124,0.224-0.226,0.566-0.283,0.971l-0.105,0.743l-0.646-0.383   c-0.624-0.371-1.188-0.067-1.466,0.146c-0.561,0.428-1.008,1.297-0.779,2.129c0.156,0.563,0.384,0.632,0.993,0.816   c0.242,0.073,0.504,0.154,0.785,0.276c0.096,0.042,0.237,0.111,0.394,0.19c0.198,0.099,0.608,0.304,0.728,0.329   c0.03-0.002,0.173-0.047,0.259-0.074c0.231-0.073,0.494-0.152,0.754-0.088c2.913,0.76,2.908,3.2,2.903,5.353   c-0.003,1.482-0.006,2.891,0.772,3.885c0.196-0.182,0.39-0.37,0.48-0.572l0.294-0.657l0.513,0.504   c1.467,1.442,3.685,3.622,1.925,5.949l-0.106,0.14l-0.17,0.043c-0.945,0.239-3.875,2.209-4.006,2.808   c-0.131,0.603,0.611,1.267,1.266,1.853c0.334,0.299,0.651,0.583,0.868,0.87c0.457,0.606,0.618,1.064,0.522,1.484   c-0.118,0.519-0.583,0.76-0.994,0.972c-0.418,0.216-0.813,0.42-0.96,0.872c-0.206,0.634,0.184,1.16,0.757,1.834   c0.461,0.542,1.035,1.217,0.513,1.902l-0.192,0.251l-0.31-0.066c-1.436-0.307-1.691-0.106-1.701-0.097   c-0.075,0.276,0.678,1.401,1.128,2.073l0.106,0.159c0.115,0.172,0.244,0.38,0.383,0.604c0.365,0.588,0.864,1.394,1.238,1.69   c0.147,0.117,0.363,0.162,0.59,0.208c0.389,0.081,1.066,0.221,1.196,1c0.841,0.319,0.911,1.194,0.955,1.745   c0.029,0.358,0.056,0.696,0.206,0.864c0.341,0.385,0.609,0.515,0.824,0.62C33.939,73.119,33.902,73.61,33.589,74.56z"></path></g><g><path d="M35.817,93.838c-0.16,0-0.319-0.01-0.476-0.032c-0.701-0.099-1.431-0.67-2.138-1.221c-0.388-0.303-1.294-1.018-1.49-0.9   l-0.505-0.863c0.139-0.082,0.282-0.126,0.428-0.14l-0.1-0.183c0.214-0.118,0.301-0.292,0.435-0.591   c0.12-0.267,0.256-0.569,0.549-0.812c0.546-0.453,0.73-0.53,1.179-0.51c0.14,0.009,0.314,0.019,0.661-0.035   c0.735-0.113,1.341-0.369,1.981-0.64c0.41-0.173,0.827-0.349,1.292-0.498c1.858-0.594,2.797-0.066,3.258,0.483   c0.9,1.074,0.308,2.05-0.124,2.762c-0.281,0.462-0.546,0.899-0.503,1.347l0.035,0.367l-0.339,0.142   c-0.218,0.091-0.448,0.195-0.688,0.303C38.245,93.277,37,93.838,35.817,93.838z M32.552,90.913   c0.407,0.213,0.831,0.544,1.266,0.883c0.575,0.449,1.227,0.958,1.663,1.02c1.029,0.143,2.277-0.416,3.378-0.911   c0.139-0.062,0.274-0.124,0.406-0.182c0.053-0.608,0.365-1.122,0.646-1.584c0.483-0.797,0.617-1.119,0.212-1.601   c-0.477-0.57-1.453-0.408-2.186-0.173c-0.435,0.139-0.825,0.305-1.208,0.467c-0.668,0.283-1.36,0.575-2.218,0.708   c-0.451,0.07-0.702,0.056-0.87,0.045c-0.041-0.002-0.072-0.007-0.104-0.003c-0.02,0.008-0.106,0.058-0.379,0.284   c-0.114,0.095-0.186,0.253-0.275,0.453C32.803,90.496,32.707,90.709,32.552,90.913z"></path></g><g><path d="M66.561,76.109l-0.04-0.999c0.274-0.011,0.521-0.063,0.743-0.158c-0.043-0.113-0.09-0.234-0.14-0.36   c-0.327-0.827-0.774-1.959-0.611-3.046c0.125-0.831,0.608-1.449,1.034-1.995c0.252-0.323,0.49-0.628,0.626-0.939l0.439-1.001   l0.47,0.987c0.664,1.392,1.006,4.274-0.077,6.067C68.46,75.567,67.615,76.067,66.561,76.109z M68.495,69.959   c-0.053,0.069-0.107,0.138-0.161,0.207c-0.384,0.492-0.747,0.957-0.833,1.528c-0.124,0.821,0.251,1.769,0.552,2.53   c0.006,0.015,0.012,0.03,0.018,0.044c0.027-0.039,0.053-0.08,0.078-0.122C68.819,73.038,68.804,71.25,68.495,69.959z"></path></g><g><path d="M74.92,21.32l-1.15-2.109c-0.353-0.646-0.23-1.148-0.066-1.456c0.622-1.16,2.854-1.41,3.295-1.449l0.496-0.043l0.046,0.496   c0.001,0.017,0.164,1.721,0.751,2.602c0.267,0.4,0.166,0.738,0.083,0.904c-0.396,0.787-2.138,0.989-3.14,1.039L74.92,21.32z    M76.611,17.364c-0.824,0.135-1.799,0.44-2.026,0.864c-0.029,0.054-0.105,0.197,0.062,0.504l0.847,1.552   c0.844-0.071,1.663-0.251,1.927-0.425C76.943,19.093,76.712,18.001,76.611,17.364z"></path></g><g><path d="M90.213,25.619l-0.366-0.237l-0.035,0.002c-0.212,0-0.439-0.134-0.543-0.387c-0.839-0.641-1.338-1.699-0.643-2.743   c0.368-0.551,0.778-0.667,1.058-0.667c0.335,0,0.609,0.162,0.801,0.327c0.126-0.051,0.262-0.088,0.386-0.088h0.313l0.224,0.324   c0.168,0.345,0.012,0.722-0.64,1.551c-0.333,0.422-0.467,0.689-0.522,0.835c0.132,0.208,0.094,0.402,0.072,0.473l-0.107,0.353   L90.213,25.619z M89.684,22.586c-0.021,0-0.105,0.041-0.226,0.222c-0.26,0.39-0.164,0.737,0.026,1.005   c0.124-0.223,0.29-0.465,0.498-0.73c0.031-0.039,0.059-0.076,0.086-0.111l-0.109-0.164C89.885,22.7,89.744,22.586,89.684,22.586z"></path></g></svg>