<svg height='100px' width='100px'  fill="#000000" xmlns="http://www.w3.org/2000/svg" xmlns:xlink="http://www.w3.org/1999/xlink" version="1.1" x="0px" y="0px" viewBox="0 0 100 100" enable-background="new 0 0 100 100" xml:space="preserve"><g><path fill="none" stroke="#000000" stroke-width="2" stroke-linecap="round" stroke-linejoin="round" stroke-miterlimit="10" d="   M90.333,69.833H7.75L9,28l72.583,0.417c0.267,0.1,0.437,0.382,0.648,0.581c0.091,0.085-0.003,0.306,0.118,0.423   c0.135,0.13,0.38,0.071,0.502,0.159c0.681,0.489,1.675,0.553,2.234-0.341c0.51,0.574,0.85,2.138,1.501,2.425   c-0.653,0.544-2.938,2.057-2.82,3.003c0.054,0.431,0.685,0.754,0.967,1.104c0.29,0.361,0.636,0.831,0.912,1.233   c0.259,0.378,0.187,0.798,0.43,1.163c0.228,0.342,0.789,0.935,1.114,1.231c0.563,0.516,0.776,0.205,1.48,0.165   c0.398-0.023,1.203,0.18,1.246,0.104L90.333,69.833z"></path></g></svg>