<svg height='100px' width='100px'  fill="#000000" xmlns="http://www.w3.org/2000/svg" xmlns:xlink="http://www.w3.org/1999/xlink" version="1.1" x="0px" y="0px" viewBox="0 0 60 60" style="enable-background:new 0 0 60 60;" xml:space="preserve"><path d="M46.2232056,30c0-5.3565063-4.357605-9.7141113-9.7141113-9.7141113c-2.505249,0-4.7844849,0.9614258-6.5090942,2.5241699  c-1.5361328-1.3919678-3.5126953-2.3012085-5.697937-2.4830933v-7.8366089l1.444519,1.444458  c0.1583862,0.1584473,0.3659668,0.2376709,0.5734863,0.2376709c0.2075806,0,0.4151001-0.0792236,0.5735474-0.2376709  c0.3168335-0.3168335,0.3168335-0.8301392,0-1.1470337l-2.8288574-2.8288574  c-0.0748291-0.0748901-0.1645508-0.1341553-0.263916-0.175354c-0.1982422-0.0819702-0.4215698-0.0819702-0.619873,0  c-0.0993652,0.0411987-0.1890259,0.1004639-0.263855,0.175354l-2.8288574,2.8288574  c-0.3168945,0.3168945-0.3168945,0.8302002,0,1.1470337c0.3168335,0.3168945,0.8301392,0.3168945,1.1470337,0l1.444458-1.444458  v7.8366089C17.7022705,20.741272,13.7767944,24.9172974,13.7767944,30c0,5.3565063,4.357605,9.7141113,9.7141113,9.7141113  c2.505249,0,4.7844849-0.9614258,6.5090942-2.5241699c1.5361328,1.3919678,3.5126953,2.3012085,5.697937,2.4830933v5.2244873  h-1.7213745c-0.447937,0-0.8111572,0.3632202-0.8111572,0.8111572s0.3632202,0.8111572,0.8111572,0.8111572h1.7213745v2.947998  c0,0.447937,0.3631592,0.8111572,0.8111572,0.8111572c0.447937,0,0.8111572-0.3632202,0.8111572-0.8111572v-2.947998h1.7213135  c0.447998,0,0.8111572-0.3632202,0.8111572-0.8111572s-0.3631592-0.8111572-0.8111572-0.8111572h-1.7213135v-5.2244873  C42.2977295,39.258728,46.2232056,35.0827026,46.2232056,30z M44.6008911,30c0,4.461731-3.6300659,8.0917969-8.0917969,8.0917969  c-2.0762939,0-3.9661865-0.7927856-5.4002686-2.0829468C32.4171753,34.3536377,33.2050171,32.2688599,33.2050171,30  s-0.7878418-4.3536377-2.0961914-6.0088501c1.434082-1.2901611,3.3239746-2.0829468,5.4002686-2.0829468  C40.9708252,21.9082031,44.6008911,25.538208,44.6008911,30z M28.4172974,30c0-1.7921143,0.5927734-3.444397,1.5827026-4.7868042  C30.9899292,26.555603,31.5827026,28.2078857,31.5827026,30c0,1.7920532-0.5927734,3.4443359-1.5827026,4.7867432  C29.0100708,33.4443359,28.4172974,31.7920532,28.4172974,30z M15.3991089,30c0-4.461792,3.6300659-8.0917969,8.0917969-8.0917969  c2.0762939,0,3.9661865,0.7927856,5.4002686,2.0829468C27.5828247,25.6463623,26.7949829,27.7311401,26.7949829,30  s0.7878418,4.3536377,2.0961914,6.0088501c-1.434082,1.2901611-3.3239746,2.0829468-5.4002686,2.0829468  C19.0291748,38.0917969,15.3991089,34.461731,15.3991089,30z"></path></svg>