<svg height='100px' width='100px'  fill="#000000" xmlns="http://www.w3.org/2000/svg" xmlns:xlink="http://www.w3.org/1999/xlink" version="1.1" x="0px" y="0px" viewBox="0 0 185.716 242.179" style="enable-background:new 0 0 185.716 242.179;" xml:space="preserve"><g><circle cx="91.333" cy="25.104" r="22.5"></circle><path d="M31.963,186.074c1.065-0.294,2.167,0.326,2.464,1.39c0.296,1.064-0.326,2.167-1.39,2.463l-24.069,6.706l2.781,42.117h39   l3.302-50h2.698v-6.5h-51v6.5h2.698l0.251,3.806L31.963,186.074z"></path><path d="M9.648,194.368c-0.296-1.063-1.397-1.688-2.463-1.389l-0.003,0.001l-5.719,1.595c-1.064,0.296-1.686,1.399-1.389,2.463   c0.247,0.884,1.05,1.463,1.925,1.463c0.178,0,0.358-0.024,0.538-0.074l5.719-1.595l0.003-0.001   C9.323,196.535,9.945,195.432,9.648,194.368z"></path><path d="M46.867,0h-35.05v25.467h10.105c5.73,24.024,27.101,37.283,42.366,42.454v42.564v18.939v98   c0,6.83,5.537,12.363,12.363,12.363c6.828,0,12.365-5.533,12.365-12.363v-90.271h4.635v90.271c0,6.83,5.537,12.363,12.363,12.363   c6.828,0,12.365-5.533,12.365-12.363v-98v-18.939V77.396c4.471,9.297,8.452,28.028,6.397,63.167   c-0.23,3.937,2.43,7.368,6.141,8.245v69.764v2.049c-5.416,1.308-10.078,3.026-6.692,5.974c5.697,4.962-5.128,13.844,9.115,14.989   c14.244,1.145,38.173,0.658,47.288-1.633c9.116-2.289,5.697-10.685-7.976-10.303c-13.674,0.381-13.104-4.199-10.256-6.87   c2.849-2.671-2.278-2.29-7.406-3.816c-5.128-1.526-9.114-2.62-14.242-0.712c-1.143,0.425-2.883,0.83-4.831,1.255v-2.047v-69.081   c2.692-1.159,4.648-3.754,4.832-6.879c1.591-27.19-0.036-48.287-4.832-63.109V16.584h-5v50.453   c-1.742-2.922-3.697-5.419-5.874-7.464c-5.606-5.268-11.083-6.177-13.901-6.245c-0.164-0.01-0.326-0.025-0.492-0.025H72.016   c-0.222,0-0.44,0.015-0.657,0.033c-6.649-2.086-26.222-9.655-32.752-27.869h8.259V0z M91.622,73.9h18.75v3.75h-18.75V73.9z    M44.566,23.167H14.117V2.3h30.449V23.167z"></path><rect x="18.154" y="5.983" width="22.375" height="2.167"></rect><rect x="18.154" y="10.733" width="22.375" height="2.167"></rect></g></svg>