<svg height='100px' width='100px'  fill="#000000" xmlns="http://www.w3.org/2000/svg" xmlns:xlink="http://www.w3.org/1999/xlink" version="1.1" x="0px" y="0px" viewBox="0 0 100 100" enable-background="new 0 0 100 100" xml:space="preserve"><g><circle cx="31.6921997" cy="62.7081757" r="2.6136596"></circle><path d="M93.3603058,5.977036H34.7846375v29.1857834H6.615283v58.5754776h58.5756645V64.5525131h28.1693573V5.977036z    M88.8003006,18.4571037L65.1909485,42.0664597v-6.9036407l-8.6822739-0.0000725l24.4222107-24.4223518l-0.203331-0.2033596   h8.0727463V18.4571037z M60.6309471,64.4065094c-3.9128838-0.6588745-9.9889145-1.3995323-12.1752129,5.9621582   c-1.1680183,3.932106-4.3312225,8.4501724-6.8728447,12.0805817c-2.0668983,2.9523544-3.4801178,5.0254745-4.1604462,6.7290497   h-7.2220421c0.0347443-2.6387329,0.6468391-6.3723984,3.272049-9.6543808   c0.9286613-1.1607819,2.1480789-2.0039063,3.4389267-2.8963852c2.9624405-2.0488052,6.6494446-4.5982208,7.7784958-11.8248978   c0.9600182-6.1442032-0.3061523-9.5924072-1.5305748-12.9266815c-1.1705246-3.1875343-2.2820663-6.2148476-1.6317482-12.1531372   h6.6778793c0.1884689,0.9308434,0.3490372,1.8949203,0.5184174,2.9145699   c0.9564972,5.7612305,2.146965,12.9309502,9.8041115,16.8708496c0.4282417,0.2204323,0.7069359,0.3733215,0.8843193,0.4757423   c0.2772751,0.324501,0.6867294,0.5667305,1.2186699,0.7972717V64.4065094z M23.5738964,68.4612427   c-0.1207905-2.4417953-0.2163467-4.3707428,0.451622-6.9472427c0.6809559-2.6269722,1.8113079-4.3250999,3.1201553-6.291153   c2.2062454-3.3136368,4.6997395-7.0651398,5.063364-15.5000305h4.7373848   c-0.6438026,6.701931,0.7155151,10.4114761,1.9323082,13.72509c1.1179199,3.0440826,2.0835037,5.6736526,1.3056946,10.6507568   c-0.8269844,5.2932816-3.1622772,6.908287-5.8666229,8.7782288c-1.5042267,1.0401764-3.0598526,2.1159744-4.4061813,3.7985153   c-3.4492245,4.3120346-4.2356873,9.1323853-4.2711506,12.5028915H20.876276   C24.0465317,78.0192719,23.7862778,72.7471237,23.5738964,68.4612427z M60.6309471,55.4623413   c-0.0057297-0.0029449-0.0109711-0.0057297-0.0167007-0.0086746c-5.6202126-2.8919334-6.4807777-8.0753708-7.3921852-13.5631065   c-0.1187286-0.7152138-0.2447357-1.4436684-0.3777733-2.1677437h7.7866592V55.4623413z M39.3446388,31.1271725   l20.5897903-20.5901375H74.68573L50.0599022,35.1627007L39.3446388,35.162632V31.1271725z M53.4859085,10.5370359   L39.3446388,24.6783066V10.5370359H53.4859085z M18.2599258,39.7228165   c-0.6308823,3.1336098-2.3380289,7.1984787-4.2567225,11.759407c-0.9288483,2.2078896-1.897542,4.5143318-2.82792,6.9028282   V39.7228165H18.2599258z M11.1752834,74.5255203c1.2595148-7.549881,4.3234968-14.8390198,7.0311127-21.2750359   c2.1661434-5.1491356,4.0834236-9.714447,4.6804428-13.527668h4.7589302   c-0.3332424,7.0189133-2.259428,9.9143028-4.2958279,12.9732513c-1.4084854,2.1156082-2.8648434,4.3032036-3.7385845,7.6734772   c-0.8427525,3.250782-0.7208481,5.7118759-0.5917091,8.3173218c0.2030811,4.1008682,0.4529438,9.1822281-2.8917007,20.4914322   h-4.9526634V74.5255203z M42.5485687,89.178299c0.7825203-1.2743835,1.8706627-2.8294754,2.7699356-4.113945   c2.7308807-3.9005661,6.1297264-8.7552185,7.5083427-13.3975983c1.0257034-3.4545135,2.8718948-3.4797516,7.5009155-2.686348   c0.1003838,0.0172043,0.2020607,0.0343704,0.3031845,0.0516281V89.178299H42.5485687z M65.1909485,48.5149574   l23.6093521-23.6093559v15.3682899L69.0818634,59.9925156h-3.8909149V48.5149574z M75.5300369,59.9925156l13.2702637-13.2701492   v13.2701492H75.5300369z"></path></g></svg>