<svg height='100px' width='100px'  fill="#000000" xmlns="http://www.w3.org/2000/svg" xmlns:xlink="http://www.w3.org/1999/xlink" xml:space="preserve" style="shape-rendering:geometricPrecision;text-rendering:geometricPrecision;image-rendering:optimizeQuality;" viewBox="0 0 6.82666 6.82666" x="0px" y="0px" fill-rule="evenodd" clip-rule="evenodd"><defs><style type="text/css">
   
    .fil1 {fill:none}
    .fil0 {fill:#000000;fill-rule:nonzero}
   
  </style></defs><g><g><path class="fil0" d="M2.80376 3.1897l1.21915 0c0.0804567,0 0.153547,0.0328583 0.206476,0.0857874 0.0529291,0.0529291 0.0857874,0.12602 0.0857874,0.206476 0,0.0804567 -0.0328583,0.153543 -0.0857874,0.206472 -0.0529291,0.0529291 -0.12602,0.0857874 -0.206476,0.0857874l-1.21915 0c-0.0804567,0 -0.153547,-0.0328583 -0.206476,-0.0857874 -0.0529291,-0.0529291 -0.0857874,-0.126016 -0.0857874,-0.206472 0,-0.0804567 0.0328583,-0.153547 0.0857874,-0.206476 0.0529291,-0.0529291 0.12602,-0.0857874 0.206476,-0.0857874zm1.21915 0.16l-1.21915 0c-0.0362874,0 -0.0693425,0.0149055 -0.0933504,0.0389134 -0.0240079,0.0240079 -0.0389134,0.057063 -0.0389134,0.0933504 0,0.0362874 0.0149055,0.0693386 0.0389134,0.0933465 0.0240079,0.0240079 0.057063,0.0389134 0.0933504,0.0389134l1.21915 0c0.0362874,0 0.0693425,-0.0149055 0.0933504,-0.0389134 0.0240079,-0.0240079 0.0389134,-0.0570591 0.0389134,-0.0933465 0,-0.0362874 -0.0149055,-0.0693425 -0.0389134,-0.0933504 -0.0240079,-0.0240079 -0.057063,-0.0389134 -0.0933504,-0.0389134z"></path><path class="fil0" d="M2.93438 3.61422l0.957906 0 0.08 0 0 0.08 0 0.21248c0,0.0833898 -0.0340591,0.159146 -0.0889213,0.214008 -0.0548622,0.0548622 -0.130618,0.0889213 -0.214008,0.0889213l-0.512047 0c-0.0833898,0 -0.159146,-0.0340591 -0.214008,-0.0889213 -0.0548622,-0.0548622 -0.0889213,-0.130618 -0.0889213,-0.214008l0 -0.21248 0 -0.08 0.08 0zm0.877906 0.16l-0.797906 0 0 0.13248c0,0.0392205 0.0161063,0.0749409 0.0420472,0.100882 0.0259409,0.0259409 0.0616614,0.0420472 0.100882,0.0420472l0.512047 0c0.0392205,0 0.0749409,-0.0161063 0.100882,-0.0420472 0.0259409,-0.0259409 0.0420472,-0.0616614 0.0420472,-0.100882l0 -0.13248z"></path><path class="fil0" d="M3.23372 4.04963l0.359213 0 0.08 0 0 0.08 0 1.58381c0,0.0714724 -0.029185,0.136398 -0.0761969,0.183409 -0.0470079,0.0470079 -0.111933,0.0761929 -0.183409,0.0761929 -0.0714724,0 -0.136398,-0.029185 -0.183409,-0.0761969 -0.0470118,-0.0470079 -0.0761969,-0.111933 -0.0761969,-0.183406l0 -1.58381 0 -0.08 0.08 0zm0.279213 0.16l-0.199213 0 0 1.50381c0,0.0273031 0.0112323,0.052189 0.0293228,0.0702795 0.0180906,0.0180906 0.0429803,0.0293228 0.0702835,0.0293228 0.0273071,0 0.0521969,-0.0112323 0.0702835,-0.0293189 0.0180906,-0.0180906 0.0293228,-0.0429803 0.0293228,-0.0702835l0 -1.50381z"></path><path class="fil0" d="M3.22067 1.55039c0.011626,-0.0742795 0.00997244,-0.165571 -0.0198937,-0.273681l-9.84252e-005 2.75591e-005 -0.000425197 -0.00138189 -8.26772e-005 2.3622e-005 -0.000413386 -0.00156299c-0.0070748,-0.0215433 -0.0568386,-0.158732 -0.211315,-0.274591l-0.000188976 0.000248031c-0.0353425,-0.0265079 -0.0425079,-0.0766575 -0.016,-0.112 0.0146929,-0.0195866 0.0366457,-0.0305157 0.059315,-0.0318583 0.0452165,-0.00512598 0.273465,-0.0173858 0.519177,0.214791l3.54331e-005 -3.54331e-005 0.00084252 0.000799213 0.000114173 -0.000122047c0.00123622,0.00116929 0.00241732,0.00237402 0.00356299,0.00360236 0.238921,0.224579 0.339591,0.639406 0.397429,0.92337 0.00108268,-0.0105 0.00250394,-0.0213701 0.00429921,-0.0326063 -0.000744094,-0.0907992 0.00505906,-0.144496 0.0148976,-0.171433 0.0417126,-0.114197 0.0972323,-0.109409 0.160043,-0.0227008 0.013189,0.0182047 0.0257165,0.0471024 0.0370669,0.0814291 0.0296732,0.0897323 0.0587441,0.244047 0.0640472,0.309213l0.00112205 -0.000153543c0.0358898,0.253524 -0.0544016,0.478106 -0.210362,0.642764 -0.0979882,0.103453 -0.222102,0.182965 -0.356917,0.230614 -0.135433,0.047874 -0.282146,0.0637992 -0.424646,0.0398425 -0.216134,-0.0363346 -0.421142,-0.163063 -0.561354,-0.407154l-0.000169291 -0.000255906 -5.11811e-005 3.14961e-005 -0.000437008 -0.000783465c-0.0335118,-0.0517835 -0.249197,-0.419937 0.10387,-0.831094l-6.69291e-005 -0.000244094c0.00209055,-0.00243701 0.00429921,-0.00470866 0.0066063,-0.00683071 0.016189,-0.0208543 0.0568661,-0.140547 0.094374,-0.250925 0.0383031,-0.112724 0.0737953,-0.217142 0.104614,-0.248547 0.0395118,-0.0402402 0.0797165,-0.0432323 0.120941,-0.00282283 0.0302087,0.0296535 0.0791181,0.0940157 0.108598,0.217768l0.00146457 0.00625984zm0.133445 -0.317717c0.11011,0.395622 -0.091878,0.629295 -0.127776,0.666894 -0.0151378,0.017811 -0.0379134,0.0288661 -0.0630984,0.0282008 -0.0441654,-0.00116535 -0.0790236,-0.0379213 -0.0778583,-0.0820866l0.000287402 7.87402e-006c0.00301575,-0.114819 -0.00684646,-0.20072 -0.0220866,-0.264685 -0.00152362,-0.00638976 -0.00308661,-0.0125118 -0.0046811,-0.0183898 -0.00718504,0.0210079 -0.0148228,0.0434843 -0.0225984,0.0663701 -0.0412835,0.121496 -0.0859134,0.252791 -0.126169,0.304736 -0.00145276,0.00205512 -0.00300787,0.00405906 -0.00467717,0.00600394l-0.00015748 -0.000133858 -3.54331e-005 3.93701e-005c-0.278307,0.324252 -0.117,0.600547 -0.0925315,0.63839 0.00245669,0.00310236 0.00471654,0.00641732 0.00674409,0.00995276l-1.1811e-005 0.000129921c0.113701,0.198122 0.277476,0.300539 0.449067,0.329382 0.11513,0.0193543 0.234461,0.00620866 0.345268,-0.0329606 0.111429,-0.0393858 0.213815,-0.104894 0.294421,-0.189992 0.123217,-0.130083 0.195043,-0.306681 0.168563,-0.505622 -0.000472441,-0.00227953 -0.000850394,-0.00458661 -0.00112205,-0.00691732 -0.0388425,0.153598 -0.0810118,0.212496 -0.13878,0.202638 -0.0730669,-0.0124685 -0.0935,-0.116047 -0.123803,-0.269673 -0.0514843,-0.26102 -0.140398,-0.711614 -0.367598,-0.924402 -0.00128346,-0.0010748 -0.00255118,-0.00218898 -0.00378346,-0.00335827l1.9685e-005 -0.00026378c-0.0627126,-0.0594134 -0.122039,-0.0988661 -0.174701,-0.124976 0.054185,0.0786693 0.0783504,0.143776 0.084878,0.163209 0.000909449,0.00237402 0.00172047,0.00480709 0.00241732,0.00730709l-0.00019685 0.000200787z"></path></g></g><rect class="fil1" width="6.82666" height="6.82666"></rect></svg>