<svg height='100px' width='100px'  fill="#000000" xmlns="http://www.w3.org/2000/svg" viewBox="0 0 100 100" x="0px" y="0px"><title>Music</title><g data-name="Iconos"><path d="M54.24,18.54l-19-5h0a.85.85,0,0,0-.23,0h-.12a1.36,1.36,0,0,0-.29,0h0a1.71,1.71,0,0,0-.3.09l-.09.05a2,2,0,0,0-.19.12l0,0,0,.05a.54.54,0,0,0-.15.15l-.08.09a1,1,0,0,0-.11.17.31.31,0,0,0-.05.1.9.9,0,0,0-.08.21l0,.09a1.75,1.75,0,0,0,0,.33V45.17a8.23,8.23,0,1,0,3,6.35v-26L53.48,30a1.65,1.65,0,0,0,.38.05,1.54,1.54,0,0,0,.92-.31,1.51,1.51,0,0,0,.58-1.19V20A1.5,1.5,0,0,0,54.24,18.54ZM28.08,56.76a5.24,5.24,0,1,1,5.24-5.24A5.25,5.25,0,0,1,28.08,56.76ZM52.36,26.59l-16-4.17V17l16,4.17Z"></path><path d="M71.92,70a8.24,8.24,0,1,0,8.24,8.24V39.94A1.5,1.5,0,0,0,79,38.49l-19-5h0l-.23,0h-.12a1.53,1.53,0,0,0-.3,0h0a1.32,1.32,0,0,0-.3.1l-.08,0-.2.12,0,0-.05.05L58.5,34l-.07.09a1.63,1.63,0,0,0-.11.17l-.06.1a1.42,1.42,0,0,0-.07.22l0,.09a1.65,1.65,0,0,0,0,.32V65.12a8.24,8.24,0,1,0,3,6.36v-26l16,4.17V71.87A8.2,8.2,0,0,0,71.92,70Zm0,13.48a5.24,5.24,0,1,1,5.24-5.24A5.25,5.25,0,0,1,71.92,83.46Zm-19-6.74a5.25,5.25,0,1,1,5.24-5.24A5.25,5.25,0,0,1,52.88,76.72Zm8.24-34.35V36.93l16,4.17v5.44Z"></path></g></svg>