<svg height='100px' width='100px'  fill="#000000" xmlns="http://www.w3.org/2000/svg" xmlns:xlink="http://www.w3.org/1999/xlink" version="1.1" x="0px" y="0px" viewBox="0 0 100 100" enable-background="new 0 0 100 100" xml:space="preserve"><g><path fill="none" stroke="#000000" stroke-width="2" stroke-linecap="round" stroke-linejoin="round" stroke-miterlimit="10" d="   M74.75,65c0,13.669-11.081,24.75-24.75,24.75S25.25,78.669,25.25,65s0-13.669,24.75-54.75C74.75,51.331,74.75,51.331,74.75,65z"></path></g><g><g><g><path d="M60.771,51.45h-3.344c0-2.403-0.4-3.929-1.201-4.577c-0.801-0.648-2.688-0.972-5.658-0.972     c-3.525,0-5.797,0.31-6.816,0.929s-1.529,1.999-1.529,4.14c0,2.403,0.4,3.867,1.201,4.391c0.801,0.524,3.182,0.881,7.145,1.071     c4.646,0.204,7.6,0.794,8.859,1.77c1.26,0.976,1.889,3.161,1.889,6.554c0,3.67-0.725,6.044-2.174,7.122     c-1.449,1.078-4.65,1.617-9.602,1.617c-4.297,0-7.154-0.542-8.574-1.627c-1.42-1.085-2.131-3.273-2.131-6.565l-0.021-1.333h3.342     v0.743c0,2.666,0.408,4.322,1.225,4.97c0.814,0.648,2.906,0.972,6.27,0.972c3.859,0,6.234-0.324,7.123-0.972     c0.887-0.648,1.332-2.377,1.332-5.188c0-1.821-0.303-3.033-0.906-3.638c-0.605-0.604-1.869-0.965-3.791-1.082l-3.496-0.175     l-3.32-0.175c-5.055-0.349-7.58-2.971-7.58-7.865c0-3.393,0.734-5.658,2.205-6.794c1.473-1.136,4.406-1.704,8.805-1.704     c4.457,0,7.363,0.528,8.717,1.583C60.094,45.7,60.771,47.969,60.771,51.45z"></path></g></g><g><rect x="45.93" y="38.5" width="2" height="39.743"></rect></g><g><rect x="51.93" y="38.5" width="2" height="39.743"></rect></g></g></svg>