<svg height='100px' width='100px'  fill="#000000" xmlns="http://www.w3.org/2000/svg" xmlns:xlink="http://www.w3.org/1999/xlink" version="1.1" x="0px" y="0px" viewBox="0 0 100 100" style="enable-background:new 0 0 100 100;" xml:space="preserve"><path d="M23.309082,53.737793h-5.8701172c-0.5522461,0-1,0.4477539-1,1v7.1982422c0,0.5522461,0.4477539,1,1,1h5.8701172  c0.5522461,0,1-0.4477539,1-1V54.737793C24.309082,54.1855469,23.8613281,53.737793,23.309082,53.737793z M22.309082,60.9360352  h-3.8701172V55.737793h3.8701172V60.9360352z"></path><path d="M34.3764648,53.737793h-5.8701172c-0.5522461,0-1,0.4477539-1,1v7.1982422c0,0.5522461,0.4477539,1,1,1h5.8701172  c0.5522461,0,1-0.4477539,1-1V54.737793C35.3764648,54.1855469,34.9287109,53.737793,34.3764648,53.737793z M33.3764648,60.9360352  h-3.8701172V55.737793h3.8701172V60.9360352z"></path><path d="M23.309082,69.6142578h-5.8701172c-0.5522461,0-1,0.4477539-1,1V77.8125c0,0.5522461,0.4477539,1,1,1h5.8701172  c0.5522461,0,1-0.4477539,1-1v-7.1982422C24.309082,70.0620117,23.8613281,69.6142578,23.309082,69.6142578z M22.309082,76.8125  h-3.8701172v-5.1982422h3.8701172V76.8125z"></path><path d="M34.3764648,69.6142578h-5.8701172c-0.5522461,0-1,0.4477539-1,1V77.8125c0,0.5522461,0.4477539,1,1,1h5.8701172  c0.5522461,0,1-0.4477539,1-1v-7.1982422C35.3764648,70.0620117,34.9287109,69.6142578,34.3764648,69.6142578z M33.3764648,76.8125  h-3.8701172v-5.1982422h3.8701172V76.8125z"></path><path d="M45.6259766,57.0791016h8.6826172c0.5522461,0,1-0.4477539,1-1v-8.0195312c0-0.5522461-0.4477539-1-1-1h-8.6826172  c-0.5522461,0-1,0.4477539-1,1v8.0195312C44.6259766,56.6313477,45.0737305,57.0791016,45.6259766,57.0791016z   M46.6259766,49.0595703h6.6826172v6.0195312h-6.6826172V49.0595703z"></path><path d="M45.6259766,40.3256836h8.6826172c0.5522461,0,1-0.4477539,1-1v-8.0200195c0-0.5522461-0.4477539-1-1-1h-8.6826172  c-0.5522461,0-1,0.4477539-1,1v8.0200195C44.6259766,39.8779297,45.0737305,40.3256836,45.6259766,40.3256836z   M46.6259766,32.3056641h6.6826172v6.0200195h-6.6826172V32.3056641z"></path><path d="M23.309082,37.9472656h-5.8701172c-0.5522461,0-1,0.4477539-1,1v7.1982422c0,0.5522461,0.4477539,1,1,1h5.8701172  c0.5522461,0,1-0.4477539,1-1v-7.1982422C24.309082,38.3950195,23.8613281,37.9472656,23.309082,37.9472656z M22.309082,45.1455078  h-3.8701172v-5.1982422h3.8701172V45.1455078z"></path><path d="M34.3764648,37.9472656h-5.8701172c-0.5522461,0-1,0.4477539-1,1v7.1982422c0,0.5522461,0.4477539,1,1,1h5.8701172  c0.5522461,0,1-0.4477539,1-1v-7.1982422C35.3764648,38.3950195,34.9287109,37.9472656,34.3764648,37.9472656z   M33.3764648,45.1455078h-3.8701172v-5.1982422h3.8701172V45.1455078z"></path><path d="M65.6235352,62.9360352h5.8696289c0.5522461,0,1-0.4477539,1-1V54.737793c0-0.5522461-0.4477539-1-1-1h-5.8696289  c-0.5522461,0-1,0.4477539-1,1v7.1982422C64.6235352,62.4882812,65.0712891,62.9360352,65.6235352,62.9360352z   M66.6235352,55.737793h3.8696289v5.1982422h-3.8696289V55.737793z"></path><path d="M76.690918,62.9360352h5.8696289c0.5522461,0,1-0.4477539,1-1V54.737793c0-0.5522461-0.4477539-1-1-1H76.690918  c-0.5522461,0-1,0.4477539-1,1v7.1982422C75.690918,62.4882812,76.1386719,62.9360352,76.690918,62.9360352z M77.690918,55.737793  h3.8696289v5.1982422H77.690918V55.737793z"></path><path d="M65.6235352,78.8125h5.8696289c0.5522461,0,1-0.4477539,1-1v-7.1982422c0-0.5522461-0.4477539-1-1-1h-5.8696289  c-0.5522461,0-1,0.4477539-1,1V77.8125C64.6235352,78.3647461,65.0712891,78.8125,65.6235352,78.8125z M66.6235352,71.6142578  h3.8696289V76.8125h-3.8696289V71.6142578z"></path><path d="M76.690918,78.8125h5.8696289c0.5522461,0,1-0.4477539,1-1v-7.1982422c0-0.5522461-0.4477539-1-1-1H76.690918  c-0.5522461,0-1,0.4477539-1,1V77.8125C75.690918,78.3647461,76.1386719,78.8125,76.690918,78.8125z M77.690918,71.6142578  h3.8696289V76.8125H77.690918V71.6142578z"></path><path d="M65.6235352,47.1455078h5.8696289c0.5522461,0,1-0.4477539,1-1v-7.1982422c0-0.5522461-0.4477539-1-1-1h-5.8696289  c-0.5522461,0-1,0.4477539-1,1v7.1982422C64.6235352,46.6977539,65.0712891,47.1455078,65.6235352,47.1455078z   M66.6235352,39.9472656h3.8696289v5.1982422h-3.8696289V39.9472656z"></path><path d="M76.690918,47.1455078h5.8696289c0.5522461,0,1-0.4477539,1-1v-7.1982422c0-0.5522461-0.4477539-1-1-1H76.690918  c-0.5522461,0-1,0.4477539-1,1v7.1982422C75.690918,46.6977539,76.1386719,47.1455078,76.690918,47.1455078z M77.690918,39.9472656  h3.8696289v5.1982422H77.690918V39.9472656z"></path><path d="M89,88h-0.2280273V31.21875c0-0.5522461-0.4477539-1-1-1H61.4121094v-3.0444336  c0-0.3125-0.1459961-0.6069336-0.3945312-0.7958984l-10.0146484-7.6192627v-1.3187256h6.6196289c0.5522461,0,1-0.4477539,1-1V11  c0-0.5522461-0.4477539-1-1-1h-7.6196289c-0.5522461,0-1,0.4477539-1,1v7.7592773L38.987793,26.378418  c-0.2485352,0.1889648-0.3945312,0.4833984-0.3945312,0.7958984V30.21875H12.2280273c-0.5522461,0-1,0.4477539-1,1V88H11  c-0.5522461,0-1,0.4477539-1,1s0.4477539,1,1,1h78c0.5522461,0,1-0.4477539,1-1S89.5522461,88,89,88z M86.7719727,32.21875V88  H61.4121094V32.21875H86.7719727z M40.5932617,83.5571289h18.8188477V88H40.5932617V83.5571289z M53.3085938,81.5571289h-6.4379883  V69.203125h6.4379883V81.5571289z M56.6225586,15.4404297h-5.6196289V12h5.6196289V15.4404297z M50.0029297,20.5114136  l9.4091797,7.1585083v53.887207h-4.1035156V68.203125c0-0.5522461-0.4477539-1-1-1h-8.4379883c-0.5522461,0-1,0.4477539-1,1  v13.3540039h-4.2773438v-53.887207L50.0029297,20.5114136z M13.2280273,32.21875h25.3652344V88H13.2280273V32.21875z"></path></svg>