<svg height='100px' width='100px'  fill="#000000" xmlns="http://www.w3.org/2000/svg" xmlns:xlink="http://www.w3.org/1999/xlink" xml:space="preserve" version="1.1" style="shape-rendering:geometricPrecision;text-rendering:geometricPrecision;image-rendering:optimizeQuality;" viewBox="0 0 846.66 846.66" x="0px" y="0px" fill-rule="evenodd" clip-rule="evenodd"><defs><style type="text/css">
   
    .fil0 {fill:#000000}
   
  </style></defs><g><path class="fil0" d="M15.02 581.87l640.91 0 0 134.66 -640.91 0 0 -134.66zm418.14 -276.09c40.55,-80.05 116.33,-85.93 116.33,-85.93 0,0 -41.12,-41.74 4.27,-53.9 45.39,-12.16 104.6,-3.2 104.6,-3.2 0,0 16.17,-67.55 94.99,-46.43 100.41,26.91 -0.79,76.32 64.05,76.32 28.81,0 14.94,25.61 -51.23,23.48 -66.17,-2.14 -95,-12.28 -95,-12.28 0,0 85.68,34.87 44.3,49.1 -33.05,11.36 -212.07,-18.42 -282.31,52.84zm-289.3 -67.73c40.56,-80.05 116.34,-85.93 116.34,-85.93 0,0 -41.12,-41.74 4.27,-53.9 45.38,-12.16 104.59,-3.2 104.59,-3.2 0,0 16.17,-67.55 95,-46.43 100.41,26.91 -0.8,76.32 64.04,76.32 28.82,0 14.94,25.61 -51.23,23.48 -66.17,-2.14 -94.99,-12.28 -94.99,-12.28 0,0 85.67,34.87 44.29,49.1 -33.05,11.36 -212.06,-18.42 -282.31,52.84zm434.17 81.22l24.62 224.79c-70.56,0 -141.11,0 -211.66,0l24.61 -224.79c54.14,0 108.29,0 162.43,0zm-130.27 39.34l40.45 0 -15.47 153.87 -40.45 0 15.47 -153.87zm-125.76 -119.43l33.38 304.88c-95.69,0 -191.38,0 -287.07,0l33.38 -304.88c73.44,0 146.87,0 220.31,0zm-182.19 46.31l56.74 0 -21.7 215.86 -56.75 0 21.71 -215.86zm516.12 471.1l0 45.59 -640.91 0 0 -45.59 640.91 0z"></path></g></svg>