<svg height='100px' width='100px'  fill="#000000" xmlns="http://www.w3.org/2000/svg" xmlns:xlink="http://www.w3.org/1999/xlink" version="1.1" x="0px" y="0px" viewBox="0 0 100 100" enable-background="new 0 0 100 100" xml:space="preserve"><g display="none"><polygon display="inline" opacity="0.3" fill-rule="evenodd" clip-rule="evenodd" points="56.055,89.954 56.11,88.52 57.27,87.761    58.029,87.561 58.509,86.162 59.346,86.362 60.268,85.882 64.063,86.082 66.263,85.283 66.703,84.804 67.98,84.404 67.542,85.203    68.06,85.842 69.302,85.083 70.34,84.725 69.899,84.203 70.062,83.404 68.822,79.888 67.742,78.45 68.021,77.69 67.263,77.05    66.183,77.129 64.385,75.97 64.146,73.932 64.223,72.575 63.425,70.856 62.387,70.815 61.786,71.135 60.468,70.696 59.551,70.735    59.551,69.338 60.426,67.098 61.27,66.819 62.746,64.7 62.983,63.741 64.025,63.221 64.743,62.702 65.944,63.221 66.183,64.299    66.982,64.46 69.061,63.382 71.976,63.221 73.736,61.263 74.816,57.987 77.373,56.187 78.012,54.988 78.253,53.19 79.491,51.432    81.289,50.552 81.89,49.194 81.849,48.154 81.131,47.595 82.729,45.837 83.608,45.157 83.767,43.839 84.047,41.08 83.487,39.042    83.167,38.562 84.927,36.884 85.966,36.525 87.004,35.845 87.685,35.966 88.795,34.729 88.657,33.531 87.253,33.189 85.914,33.713    84.229,33.35 83.55,31.927 81.606,31.125 79.526,30.625 77.531,28.811 77.253,27.172 76.372,23.416 75.376,21.777 75.334,20.058    76.255,19.66 76.414,18.5 77.974,17.501 77.933,16.142 76.335,15.704 76.014,14.583 74.537,13.704 73.018,12.425 71.897,11.026    70.779,11.426 69.979,11.746 69.182,10.986 68.94,8.788 71.618,6.989 71.255,6.045 69.664,6.369 68.384,5.648 66.542,6.609    65.183,7.81 63.66,7.81 62.779,9.171 61.741,10.212 64.139,13.733 64.302,16.135 61.659,19.577 63.022,20.859 63.022,22.378    61.579,24.541 59.498,24.541 57.497,23.74 56.138,24.62 56.752,26.054 57.911,26.694 58.587,28.212 58.35,29.17 57.031,29.891    55.793,30.01 55.352,30.809 55.191,32.767 54.792,34.047 54.754,34.805 54.354,35.287 54.774,37.749 53.573,39.51 52.514,38.163    51.876,38.163 51.797,38.923 50.438,38.842 49.795,38.402 48.477,38.523 48.118,39.243 46.04,40.84 46.959,41.122 46.319,41.92    44.281,42.838 43.642,42.4 42.282,42.679 41.883,43.52 41.645,44.397 40.606,44.759 39.884,45.676 39.964,47.196 40.365,48.994    40.285,50.152 40.723,51.232 40.485,52.271 38.286,53.19 36.369,53.15 34.608,53.39 31.651,53.551 29.695,54.07 29.015,54.629    27.255,54.548 25.399,55.038 18.994,55.198 11.406,53.051 11.389,53.071 14.267,56.908 14.908,58.185 16.344,59.705 17.744,60.464    18.225,61.023 20.064,61.184 21.103,61.584 21.261,62.183 22.779,62.341 22.82,64.22 23.218,65.499 23.301,67.019 23.58,68.018    24.939,67.937 26.375,68.896 26.537,71.056 25.736,71.815 24.298,71.254 21.62,72.053 21.062,72.654 19.381,73.334 18.821,74.412    19.104,75.372 18.262,76.531 18.783,77.891 18.545,79.849 18.566,80.746 19.215,80.746 19.173,81.543 19.678,81.753 21.271,80.789    22.527,80.704 22.614,81.208 23.073,81.039 23.873,80.37 25.088,80.453 25.633,80.622 26.555,80.37 27.228,80.453 27.855,80.453    27.982,79.866 28.445,79.277 29.532,79.992 30.288,79.992 30.416,79.531 31.002,79.655 31.338,80.285 32.217,80.285 32.973,80.83    33.855,80.83 35.111,79.614 36.582,79.614 37.462,79.866 38.301,79.32 39.185,79.32 39.351,78.899 39.771,79.236 41.365,79.447    42.707,78.943 44.344,78.899 45.516,79.825 46.003,81.056 45.816,81.976 46.003,82.164 45.71,82.269 45.73,82.666 46.651,82.687    48.283,81.955 48.263,83.085 49.494,84.487 49.795,86.452 50.006,86.662 49.964,87.418 49.544,87.711 49.881,87.835 50.34,87.835    50.72,89.01 51.728,88.928 53.322,88.884 55.292,89.85 55.165,90.522  "></polygon></g><g display="none"><path display="inline" d="M45.676,51.349v-4.527h1.708c0.299,0,0.53,0.016,0.688,0.043c0.222,0.036,0.407,0.107,0.56,0.212   c0.148,0.104,0.27,0.25,0.362,0.437c0.09,0.187,0.135,0.393,0.135,0.618c0,0.385-0.12,0.711-0.366,0.979   c-0.244,0.264-0.686,0.398-1.328,0.398h-1.159v1.841H45.676L45.676,51.349z M46.275,48.974h1.169c0.387,0,0.663-0.071,0.826-0.216   c0.161-0.143,0.244-0.347,0.244-0.607c0-0.19-0.048-0.352-0.146-0.486c-0.096-0.137-0.22-0.225-0.378-0.268   c-0.101-0.026-0.287-0.04-0.56-0.04h-1.156V48.974L46.275,48.974z M48.929,51.349h0.636l0.497-1.372h1.89l0.529,1.372h0.683   l-1.851-4.527h-0.644L48.929,51.349L48.929,51.349z M50.232,49.489l0.498-1.327c0.107-0.287,0.186-0.575,0.245-0.866   c0.068,0.247,0.179,0.559,0.321,0.94l0.473,1.252H50.232L50.232,49.489z M53.618,51.349v-4.527h0.601v2.245l2.246-2.245h0.812   l-1.897,1.834l1.979,2.693h-0.79l-1.611-2.291l-0.738,0.721v1.57H53.618L53.618,51.349z M57.963,51.349v-4.527h0.6v4.527H57.963   L57.963,51.349z M59.416,49.895l0.562-0.05c0.027,0.226,0.09,0.413,0.186,0.557c0.101,0.145,0.252,0.263,0.455,0.352   c0.208,0.09,0.439,0.133,0.698,0.133c0.228,0,0.427-0.033,0.604-0.1c0.176-0.069,0.304-0.162,0.39-0.279   c0.087-0.119,0.128-0.247,0.128-0.388c0-0.142-0.038-0.266-0.121-0.371c-0.083-0.107-0.221-0.195-0.407-0.266   c-0.124-0.048-0.39-0.123-0.807-0.222c-0.414-0.101-0.708-0.196-0.874-0.281c-0.217-0.114-0.379-0.256-0.486-0.423   c-0.104-0.167-0.155-0.355-0.155-0.564c0-0.228,0.062-0.442,0.194-0.64c0.131-0.199,0.316-0.348,0.565-0.452   c0.252-0.102,0.527-0.155,0.831-0.155c0.338,0,0.632,0.055,0.89,0.164c0.256,0.107,0.452,0.266,0.591,0.476   c0.138,0.208,0.211,0.447,0.221,0.713l-0.572,0.043c-0.031-0.285-0.135-0.502-0.314-0.647c-0.179-0.147-0.441-0.221-0.786-0.221   c-0.362,0-0.628,0.067-0.794,0.2c-0.166,0.133-0.249,0.293-0.249,0.479c0,0.165,0.06,0.297,0.176,0.402   c0.118,0.105,0.415,0.212,0.904,0.323c0.487,0.109,0.818,0.206,1.001,0.288c0.263,0.123,0.459,0.276,0.583,0.462   c0.124,0.186,0.187,0.4,0.187,0.644c0,0.242-0.065,0.468-0.203,0.68c-0.138,0.214-0.339,0.38-0.598,0.499   c-0.256,0.117-0.548,0.176-0.869,0.176c-0.411,0-0.756-0.059-1.029-0.18c-0.279-0.119-0.496-0.297-0.654-0.538   C59.506,50.467,59.423,50.197,59.416,49.895L59.416,49.895z M64.988,51.349v-3.993h-1.493v-0.535h3.588v0.535h-1.498v3.993H64.988   L64.988,51.349z M66.73,51.349h0.639l0.497-1.372h1.892l0.527,1.372h0.684l-1.853-4.527h-0.646L66.73,51.349L66.73,51.349z    M68.036,49.489l0.5-1.327c0.104-0.287,0.187-0.575,0.244-0.866c0.069,0.247,0.176,0.559,0.318,0.94l0.476,1.252H68.036   L68.036,49.489z M71.441,51.349v-4.527h0.614l2.377,3.554v-3.554h0.573v4.527h-0.614l-2.377-3.558v3.558H71.441z"></path></g><g><path fill="none" stroke="#000000" stroke-width="0.75" stroke-linecap="round" stroke-linejoin="round" stroke-miterlimit="10" d="   M40.375,51.75c0.609-0.678-0.016-0.901-0.125-1.507c-0.042-0.232-0.264-0.41-0.287-0.74c-0.02-0.284,0.412-0.565,0.418-0.872   c0.014-0.766-0.68-1.318-0.631-2.231c0.047-0.879,0.14-1.117,0.777-1.655c0.234-0.197,0.449,0.082,0.719-0.237   c0.354-0.417,0.171-0.865,0.369-1.258c0.533-1.055,0.484-0.845,1.51-0.775c1.412,0.096,3.04,0.449,3.396-1.484   c-0.08-0.007-0.345-0.089-0.49-0.104c0.568-0.475,1.368-1.148,1.846-1.658c0.818-0.873,0.492-1.007,1.758-0.729   c1.742,0.383,1.837,1.431,2.99-0.396c0.315,0.476,0.438,1.333,1.125,1.029c0.461-0.204,0.699-1.516,0.784-1.975   c0.126-0.682-0.077-1.269-0.064-1.909c0.016-0.823,0.347-0.854,0.515-1.598c0.258-1.144-0.348-2.967,1.01-3.786   c0.444-0.269,1.138,0.089,1.814-0.422c0.771-0.582,0.994-0.834,0.785-1.663c-0.334-1.321-1.565-0.78-1.976-1.899   c-0.659-1.803,0.988-1.529,2.223-1.41c1.337,0.129,2.496,0.576,3.25-0.741c0.29-0.506,0.372-1.203,0.531-1.735   c0.075-0.252,0.401-0.489,0.388-0.777c-0.034-0.669-0.5-0.54-0.616-0.948c-0.085-0.005-0.169-0.017-0.252-0.036   c-0.201-0.771,0.887-1.805,1.264-2.414c0.637-1.026,0.916-1.539,0.845-2.828c-0.082-1.48-0.438-3.911-2.357-4.009   c-0.059-0.113-0.195-0.643-0.205-0.762c1.196-0.432,1.078-1.35,1.785-2.072c0.637-0.651,0.966-0.148,1.553-0.272   c1.44-0.305,2.528-2.452,4.709-2.109c0.031,0.125,0.021,0.219,0.057,0.34c0.5,0.001,0.97-0.213,1.449-0.349   c1.267,2.161-1.963,2.088-2.121,3.99c-0.026,0.327,0.571,1.617,0.868,1.756c0.425,0.199,0.84-0.323,1.142-0.24   c0.417,0.115,0.599,0.454,0.906,0.728c0.812,0.723,1.246,1.76,2.352,2.271c0.643,0.296,1.939,0.073,2.47,0.63   c0.163,0.171-0.02,0.772,0.113,1.012c0.173,0.312,0.55,0.491,0.689,0.816c0.364,0.85,0.315,1.306-0.777,1.518   c0.097,0.081,0.188,0.294,0.358,0.413c-0.602,0.917-1.371,0.547-2.064,1.125c0.393,0.588,0.764,1.749,0.823,2.473   c0.043,0.523-0.087,0.961-0.03,1.402c0.051,0.396,0.293,1.207,0.4,1.604c0.25,0.93,0.604,2.271,1.165,3.09   c0.397,0.581,0.681,0.369,1.072,0.772c0.514,0.529,0.61,1.235,0.955,1.852c1.771-0.694,1.779-0.367,3.153,0.688   c0.306,0.234,0.734,0.285,1.007,0.619c0.352,0.431,0.151,1.062,0.651,1.356c0.335,0.198,1.485-0.006,1.883,0.013   c0.219,0.01,0.447,0.372,0.742,0.334c0.342-0.043,0.719-0.675,1.004-0.62c1.623,0.314-0.176,2.023-0.273,2.504   c-0.639-0.467-2.915,0.798-3.519,1.391c-1.046,1.027-0.782,2.405-0.707,3.877c0.057,1.101,0.235,3.187-0.118,4.116   c-0.267,0.699-2.19,2.468-2.709,2.159c0.247,0.997,1.252,1.189,0.702,2.438c-0.25,0.569-0.687,0.672-1.128,1.032   c-0.527,0.429-0.643,0.73-1.125,1.255c-0.419,0.456-1.098,0.625-1.35,1.241c-0.167,0.409,0.076,0.951-0.022,1.375   c-0.245,1.051-1.261,1.929-1.994,2.618c-1.478,1.39-1.961,4.201-3.729,5.51c-0.555,0.411-1.842,0.66-2.537,0.753   c-0.335,0.045-0.827-0.105-1.236-0.009c-0.779,0.183-1.387,0.875-2.115,1.121c-0.526-0.752-0.739-2.141-1.898-1.78   c-0.776,0.242-1.406,1.79-1.655,2.25c-0.595,1.096-1.7,1.863-2.21,2.913c-0.383,0.79-1.134,2.667-0.734,3.505   c0.29-0.385,0.558-1.112,1.106-1.139c0.5-0.024,0.454,0.664,0.744,0.743c0.742,0.203,1.025-0.274,1.749,0.29   c1.594,1.242,0.502,3.851,2.354,5.128c0.516,0.356,1.377,0.298,1.785,0.619c0.333,0.263,0.333,0.551,0.499,0.881   c0.12,0.239-0.193,0.401-0.088,0.625c0.11,0.232,0.494,0.438,0.585,0.628c0.646,1.345,1.926,3.021,1.267,4.572   c1.965,0.402-1.623,1.891-1.894,2.165c-0.542-0.45,0.116-1.065,0.229-1.624c-0.993-0.223-1.572,0.622-2.411,0.953   c-0.7,0.276-1.768,0.386-2.539,0.5c-0.441,0.065-0.812,0.187-1.268,0.153c-0.434-0.032-1.132-0.419-1.382-0.386   c-0.855,0.11-1.229,0.877-2.234,0.78c-0.002,0.285-0.203,0.536-0.168,0.834c-2.097,0.297-1.125,2.665-2.835,3.384   c0.162-0.859-1.158-1.769-1.891-1.99c-1.044-0.315-2.048,0.294-2.984,0.358c0.064-0.279-0.051-0.566,0.061-0.865   c-1.098-0.249-0.789-3.102-1.356-4.116c-0.182-0.324-1.127-1.837-1.22-1.88c-0.746-0.342-1.669,1.224-2.02-0.12   c0.056-0.126,0.153-0.111,0.217-0.216c-0.716-1.148-0.901-3.006-2.568-3.287c-0.734-0.124-1.736,0.616-2.354,0.54   c-0.599-0.074-1-1.068-1.777-0.427c-0.108-0.103-0.13-0.176-0.25-0.25c-0.534,0.352-1.291,0.946-1.906,1.109   c-0.832,0.22-1.588-0.251-2.469,0.062c-0.388,0.138-0.669,0.616-1.007,0.721c-0.662,0.206-0.372,0.012-1.021-0.13   c-0.559-0.122-1.734-0.436-1.997-0.985c-0.128,0.128-0.327,0.157-0.469,0.347c-1.101-0.575-2.549-0.755-2.653,0.869   c-0.793-0.064-1.809,0.56-2.485,0.405c-0.34-0.078-0.424-0.72-0.861-0.768c-0.473-0.052-0.882,0.473-1.284,0.604   c-0.846,0.275-1.584,0.078-2.47,0.406c-0.334,0.124-0.952,0.859-1.353,0.599c-0.414-0.269-0.201-0.789,0.053-1.081   c-0.921,0.041-0.83-2.707-0.923-3.516c-0.183-1.605,0.467-0.428,1.072-1.627c0.427-0.846-0.52-0.798-0.493-1.487   c0.031-0.802,1.243-1.682,1.888-1.894c0.29-0.095,0.68,0.199,1.01,0.14c0.22-0.039,0.603-0.531,0.875-0.643   c0.28-0.115,1.313-0.295,1.743-0.366c0.499-0.082,1.489,0.14,1.972,0.362c0.936-1.026,0.092-1.467-0.35-2.235   c-0.159-0.275-0.22-0.933-0.487-1.165c-0.329-0.285-0.91-0.086-1.267-0.338c-0.853-0.604-1.795-4.242-1.381-5.35   c-0.226,0.071-0.61-0.01-0.842,0.084c-0.411-0.463-0.431-0.981-1.021-1.366c-0.447-0.291-1.571-0.255-2.1-0.341   c-1.147-0.187-2.023-0.918-2.907-1.772c-0.928-0.897-1.486-2.062-2.463-2.972c-1.131-1.054-1.696-2.062-2.486-3.265   c3.169,0.845,6.622,1.365,9.953,1.481c1.684,0.059,3.343-0.147,5.003-0.125c0.657,0.009,1.594,0.351,2.25,0.256   c0.982-0.142,1.624-0.877,2.51-1.387c0.11,0.336,0.44,0.596,0.512,0.968c0.479-0.664,1.385-0.448,2.094-0.553   c1.205-0.178,2.183-1.235,3.153-1.265c0.382-0.012,0.924,0.384,1.481,0.353c0.381-0.021,0.729-0.075,1.098-0.147   c0.4-0.078,1.947-0.679,1.652-0.475"></path></g></svg>