<svg height='100px' width='100px'  fill="#000000" xmlns="http://www.w3.org/2000/svg" xmlns:xlink="http://www.w3.org/1999/xlink" version="1.1" x="0px" y="0px" viewBox="0 0 100 100" style="enable-background:new 0 0 100 100;" xml:space="preserve"><g><g><g><path d="M41,43.9C41,43.9,40.9,43.9,41,43.9c-0.4,0-0.7-0.2-0.9-0.4L25.2,25.7c-2-2.4-2.4-5.6-1.1-8.5     c0.8-1.7,2.1-3,3.7-3.8c0.1,0,0.1-0.1,0.2-0.1c1-0.5,2.1-0.7,3.3-0.7c0,0,0,0,0,0c3.1,0,5.9,1.7,7.2,4.5c1.3,2.8,0.9,6.1-1,8.5     l-1,1.3l9.6,11.4c0.4,0.5,0.3,1.2-0.1,1.6l-4.2,3.8C41.5,43.8,41.3,43.9,41,43.9z M27,16.9c-0.3,0.4-0.6,0.8-0.8,1.3     c-1,2.1-0.7,4.3,0.8,6.1l14.1,16.9l2.5-2.3l-9.5-11.2c0,0,0,0,0,0l-5.3-6.2C27.8,20.1,27.1,18.5,27,16.9z M29.4,15.2     c-0.3,1.7,0.1,3.4,1.2,4.8l4.4,5.2l0.8-1c1.4-1.8,1.7-4,0.7-6.1c-1-2-2.9-3.3-5.2-3.2C30.7,14.9,30,15,29.4,15.2z"></path></g><g><path d="M21.9,44c-0.3,0-0.5-0.1-0.7-0.3c-0.5-0.4-0.6-1.1-0.2-1.6l9.5-11.6c0.4-0.5,1.1-0.6,1.6-0.2     c0.5,0.4,0.6,1.1,0.2,1.6l-9.5,11.6C22.6,43.9,22.3,44,21.9,44z"></path></g></g><g><g><g><g><path d="M32.1,65.7c-0.1,0-0.2,0-0.3,0c-1.8-0.5-3.8-1.4-5.9-2.5C14.4,57,6.2,45.6,3.8,32.6       C2.7,26.1,2.1,18.9,2.1,11c0-0.6,0.4-1.1,1-1.1c0.2,0,16.5-2.1,28.4-9.7C32-0.2,32.7,0,33,0.5c0.3,0.5,0.2,1.2-0.3,1.6       C21.9,9,8.2,11.4,4.3,12c0,7.4,0.6,14.2,1.7,20.2c2.2,12.4,10.1,23.2,20.9,29c1.9,1,3.8,1.8,5.4,2.3c0.6,0.2,1,0.8,0.8,1.4       C33,65.3,32.6,65.7,32.1,65.7z"></path></g></g></g><g><g><g><path d="M32.1,65.7c-0.5,0-0.9-0.3-1.1-0.8c-0.2-0.6,0.2-1.2,0.8-1.4c1.7-0.5,3.5-1.3,5.4-2.3       c10.8-5.8,18.7-16.6,20.9-29c1.1-6,1.7-12.8,1.7-20.2C56,11.4,42.3,9,31.5,2.1c-0.5-0.3-0.7-1-0.3-1.6c0.3-0.5,1-0.7,1.6-0.3       c11.9,7.6,28.2,9.6,28.4,9.7c0.6,0.1,1,0.6,1,1.1c0,7.9-0.6,15.2-1.7,21.6C58,45.6,49.7,57,38.3,63.1c-2.1,1.1-4.1,1.9-5.9,2.5       C32.3,65.6,32.2,65.7,32.1,65.7z"></path></g></g></g></g><g><g><path d="M65.2,83.5c-8.9,0-16.2-7.3-16.2-16.2C49,58.3,56.2,51,65.2,51s16.2,7.3,16.2,16.2     C81.4,76.2,74.1,83.5,65.2,83.5z M65.2,53.3c-7.7,0-13.9,6.3-13.9,13.9c0,7.7,6.3,13.9,13.9,13.9c7.7,0,13.9-6.3,13.9-13.9     C79.1,59.6,72.9,53.3,65.2,53.3z"></path></g><g><g><path d="M65.2,53.3c-0.6,0-1.1-0.5-1.1-1.1v-8.1c0-0.6,0.5-1.1,1.1-1.1c0.6,0,1.1,0.5,1.1,1.1v8.1      C66.3,52.8,65.8,53.3,65.2,53.3z"></path></g><g><path d="M65.2,45.2c-1.9,0-3.7-1-4.7-2.7C60.2,42,60.4,41.3,61,41c0.5-0.3,1.2-0.1,1.6,0.4      c0.5,1,1.6,1.6,2.7,1.6c1.7,0,3.1-1.4,3.1-3.1c0-1.7-1.4-3.1-3.1-3.1c-0.4,0-0.9,0.1-1.3,0.3c-0.6,0.3-1.2,0-1.5-0.6      c-0.3-0.6,0-1.2,0.6-1.5c0.7-0.3,1.4-0.5,2.2-0.5c3,0,5.4,2.4,5.4,5.4C70.5,42.8,68.1,45.2,65.2,45.2z"></path></g></g><g><g><path d="M50.1,68.4H42c-0.6,0-1.1-0.5-1.1-1.1c0-0.6,0.5-1.1,1.1-1.1h8.1c0.6,0,1.1,0.5,1.1,1.1      C51.3,67.9,50.7,68.4,50.1,68.4z"></path></g><g><path d="M37.8,72.6c-2.2,0-4.2-1.4-5-3.5c-0.2-0.6,0.1-1.2,0.7-1.5c0.6-0.2,1.2,0.1,1.5,0.7      c0.4,1.2,1.6,2,2.9,2c1.7,0,3.1-1.4,3.1-3.1c0-0.6-0.2-1.2-0.5-1.7C40,65,40.1,64.3,40.7,64c0.5-0.4,1.2-0.2,1.6,0.3      c0.6,0.9,0.9,1.9,0.9,3C43.2,70.2,40.8,72.6,37.8,72.6z"></path></g></g><g><g><path d="M48.8,84.8c-0.3,0-0.6-0.1-0.8-0.3c-0.4-0.4-0.4-1.2,0-1.6l5.7-5.7c0.4-0.4,1.2-0.4,1.6,0      s0.4,1.2,0,1.6l-5.7,5.7C49.4,84.7,49.1,84.8,48.8,84.8z"></path></g><g><path d="M45.8,92c-1.4,0-2.7-0.5-3.8-1.6c-2.1-2.1-2.1-5.5,0-7.6c1-1,2.4-1.6,3.8-1.6c1.4,0,2.8,0.6,3.8,1.6      c1,1,1.6,2.4,1.6,3.8c0,1.4-0.6,2.8-1.6,3.8C48.6,91.5,47.2,92,45.8,92z M45.8,83.5c-0.8,0-1.6,0.3-2.2,0.9      c-1.2,1.2-1.2,3.2,0,4.4c1.2,1.2,3.2,1.2,4.4,0c0.6-0.6,0.9-1.4,0.9-2.2c0-0.8-0.3-1.6-0.9-2.2C47.4,83.9,46.6,83.5,45.8,83.5z"></path></g></g><g><g><path d="M65.2,91.6c-0.6,0-1.1-0.5-1.1-1.1v-8.1c0-0.6,0.5-1.1,1.1-1.1c0.6,0,1.1,0.5,1.1,1.1v8.1      C66.3,91.1,65.8,91.6,65.2,91.6z"></path></g><g><path d="M65.2,100c-3,0-5.4-2.4-5.4-5.4c0-3,2.4-5.4,5.4-5.4c3,0,5.4,2.4,5.4,5.4C70.5,97.6,68.1,100,65.2,100      z M65.2,91.6c-1.7,0-3.1,1.4-3.1,3.1c0,1.7,1.4,3.1,3.1,3.1c1.7,0,3.1-1.4,3.1-3.1C68.3,92.9,66.9,91.6,65.2,91.6z"></path></g></g><g><g><path d="M81.6,84.8c-0.3,0-0.6-0.1-0.8-0.3L75,78.7c-0.4-0.4-0.4-1.2,0-1.6c0.4-0.4,1.2-0.4,1.6,0l5.7,5.7      c0.4,0.4,0.4,1.2,0,1.6C82.2,84.7,81.9,84.8,81.6,84.8z"></path></g><g><path d="M84.6,92c-1.4,0-2.7-0.5-3.8-1.6l0,0l0,0c-1-1-1.6-2.4-1.6-3.8c0-1.4,0.6-2.8,1.6-3.8      c1-1,2.4-1.6,3.8-1.6c1.4,0,2.8,0.6,3.8,1.6c2.1,2.1,2.1,5.5,0,7.6C87.3,91.5,85.9,92,84.6,92z M84.6,83.5      c-0.8,0-1.6,0.3-2.2,0.9c-0.6,0.6-0.9,1.4-0.9,2.2c0,0.8,0.3,1.6,0.9,2.2l0,0c1.2,1.2,3.2,1.2,4.4,0c1.2-1.2,1.2-3.2,0-4.4      C86.1,83.9,85.4,83.5,84.6,83.5z"></path></g></g><g><g><path d="M88.4,68.4h-8.1c-0.6,0-1.1-0.5-1.1-1.1c0-0.6,0.5-1.1,1.1-1.1h8.1c0.6,0,1.1,0.5,1.1,1.1      C89.5,67.9,89,68.4,88.4,68.4z"></path></g><g><path d="M92.6,72.6c-3,0-5.4-2.4-5.4-5.4c0-3,2.4-5.4,5.4-5.4c3,0,5.4,2.4,5.4,5.4      C97.9,70.2,95.5,72.6,92.6,72.6z M92.6,64.2c-1.7,0-3.1,1.4-3.1,3.1c0,1.7,1.4,3.1,3.1,3.1c1.7,0,3.1-1.4,3.1-3.1      C95.7,65.6,94.3,64.2,92.6,64.2z"></path></g></g><g><g><path d="M75.8,57.7c-0.3,0-0.6-0.1-0.8-0.3c-0.4-0.4-0.4-1.2,0-1.6l5.7-5.7c0.4-0.4,1.2-0.4,1.6,0      c0.4,0.4,0.4,1.2,0,1.6l-5.7,5.7C76.4,57.6,76.1,57.7,75.8,57.7z"></path></g><g><path d="M84.6,53.2c-1.4,0-2.7-0.5-3.8-1.6c-1-1-1.6-2.4-1.6-3.8c0-1.4,0.6-2.8,1.6-3.8c1-1,2.4-1.6,3.8-1.6      c1.4,0,2.8,0.6,3.8,1.6c2.1,2.1,2.1,5.5,0,7.6l0,0C87.3,52.7,85.9,53.2,84.6,53.2z M84.6,44.8c-0.8,0-1.6,0.3-2.2,0.9      c-0.6,0.6-0.9,1.4-0.9,2.2c0,0.8,0.3,1.6,0.9,2.2c1.2,1.2,3.2,1.2,4.4,0c1.2-1.2,1.2-3.2,0-4.4C86.1,45.1,85.4,44.8,84.6,44.8z"></path></g></g><g><circle cx="60.2" cy="63.5" r="1.9"></circle><circle cx="72" cy="66.5" r="1.9"></circle><circle cx="63.9" cy="73" r="1.9"></circle></g></g></g></svg>