<svg height='100px' width='100px'  fill="#000000" xmlns="http://www.w3.org/2000/svg" xmlns:xlink="http://www.w3.org/1999/xlink" version="1.1" x="0px" y="0px" viewBox="0 0 512 512" style="enable-background:new 0 0 512 512;" xml:space="preserve"><g><g><g><path d="M381,473H131c-6.617,0-12-5.383-12-12V206c0-75.542,61.458-137,137-137s137,61.458,137,137v255     C393,467.617,387.617,473,381,473z M256,73c-73.336,0-133,59.664-133,133v255c0,4.411,3.589,8,8,8h250c4.411,0,8-3.589,8-8V206     C389,132.664,329.337,73,256,73z"></path></g><g><path d="M257.049,189.829c-18.452,0-33.464-15.012-33.464-33.464c0-18.452,15.012-33.463,33.464-33.463     c18.451,0,33.463,15.011,33.463,33.463C290.512,174.817,275.5,189.829,257.049,189.829z M257.049,126.902     c-16.247,0-29.464,13.217-29.464,29.463c0,16.247,13.217,29.464,29.464,29.464c16.246,0,29.463-13.217,29.463-29.464     C286.512,140.119,273.295,126.902,257.049,126.902z"></path></g><g><path d="M250.756,126.903c-0.813,0-1.577-0.5-1.876-1.307c-14.388-38.9-44.511-59.283-67.248-69.532     c-24.704-11.136-46.196-13.053-46.41-13.071c-1.101-0.093-1.918-1.061-1.825-2.161c0.093-1.101,1.066-1.911,2.161-1.825     c0.903,0.076,22.395,1.996,47.718,13.411c23.434,10.563,54.488,31.593,69.356,71.791c0.383,1.036-0.146,2.187-1.182,2.57     C251.221,126.863,250.986,126.903,250.756,126.903z"></path></g><g><path d="M189.537,432.879c-0.404,0-0.81-0.122-1.16-0.371c-0.795-0.566-1.065-1.624-0.639-2.503l45.625-93.951H181.7     c-0.679,0-1.312-0.345-1.68-0.915c-0.369-0.57-0.423-1.288-0.144-1.907l47.02-104.273c0.323-0.717,1.037-1.178,1.823-1.178     h62.692c0.68,0,1.313,0.345,1.681,0.916c0.368,0.571,0.422,1.29,0.142,1.909l-21.839,48.263l60.34,8.15     c0.754,0.103,1.385,0.622,1.627,1.343c0.243,0.721,0.058,1.517-0.48,2.054L190.951,432.293     C190.564,432.681,190.052,432.879,189.537,432.879z M184.796,332.054h51.761c0.689,0,1.33,0.354,1.695,0.938     s0.405,1.315,0.104,1.936l-41.829,86.136l130.67-130.621l-58.999-7.97c-0.626-0.085-1.176-0.461-1.482-1.014     c-0.306-0.553-0.333-1.218-0.072-1.793l21.668-47.886h-58.3L184.796,332.054z"></path></g></g></g></svg>