<svg height='100px' width='100px'  fill="#000000" xmlns="http://www.w3.org/2000/svg" viewBox="0 0 512 512" x="0px" y="0px"><title>Glyph Archeology symbol</title><path d="M30.75,81.57c47.33-6.78,84.77-3.79,109.34.45a6.27,6.27,0,0,0,7-4.34L153,59a6.3,6.3,0,0,0-5.09-8.11,226.53,226.53,0,0,0-26.32-2.36C71.92,47,42.22,62,27.28,73A4.74,4.74,0,0,0,30.75,81.57Z"></path><path d="M302.69,159c-6-17.54-21.92-46.79-63.61-73.79a226.68,226.68,0,0,0-24.83-13.94A4.56,4.56,0,0,0,207.91,74L201,96.1a4.52,4.52,0,0,0,2.44,5.48C226.12,112,259.23,130.91,295,164A4.74,4.74,0,0,0,302.69,159Z"></path><path d="M203.25,400.55a44,44,0,0,1,4,17.61c.18,7.75.36,18,.24,24.49-.11,5.66-.31,11.33-.51,17-.76,21.24,8,24.06,14.73,25h0a4.6,4.6,0,0,0,5.21-4.45c.31-13.65,1.36-24.92,1.42-25.5a7.17,7.17,0,1,1,14.28,1.35c0,.14-1,11.14-1.36,24.27a4.69,4.69,0,0,0,4.67,4.8h15.39a4.69,4.69,0,0,0,4.67-4.78,167.3,167.3,0,0,1,2.24-28.58,7.17,7.17,0,1,1,14.12,2.52,155.25,155.25,0,0,0-2,26.2,4.68,4.68,0,0,0,4.66,4.64h10.85a24.66,24.66,0,0,0,23.76-17.72,75.7,75.7,0,0,0,2.07-10.06c-.81-32.53,13-47.14,19.95-52.37a7.37,7.37,0,0,1,10,.87,7.18,7.18,0,0,1-1.16,10.45c-2.48,1.83-8,6.89-11.42,17.41a2.75,2.75,0,0,0,2.36,3.57h0c1.56.15,3,.3,4.18.37a51.61,51.61,0,0,0,13.8-1.09c9.72-2.1,18.7-6.94,26.57-12.9,16.22-12.28,28.38-29.54,32.29-50a114.39,114.39,0,0,0-5.8-64.55,98.47,98.47,0,0,0-20.2-31.69,4.1,4.1,0,0,0-5.78-.18,29.67,29.67,0,0,1-14.45,7.47H372A34.35,34.35,0,0,1,330.87,250v0a4.12,4.12,0,0,0-3.73-4.18,105.78,105.78,0,0,0-14.16-.45,130,130,0,0,0-77.79,28.9C200.27,302.06,183.64,358.43,203.25,400.55Zm152-14.55a12.4,12.4,0,0,0,.25-1.36,7.18,7.18,0,0,1,14.26,1.63c0,.19-.15,1.21-.5,2.8a7.17,7.17,0,0,1-7,5.64,7.51,7.51,0,0,1-1.55-.17A7.17,7.17,0,0,1,355.22,386Zm-63.1-54.15c11.43,0,20.69,12.44,20.69,27.79s-9.26,27.79-20.69,27.79S271.43,375,271.43,359.64,280.69,331.85,292.12,331.85Zm-28.45,52.63a62.93,62.93,0,0,1,6.66,14.39,7.24,7.24,0,0,1-6.88,9.44H251.66a7.21,7.21,0,0,1-7.07-8.73,40.76,40.76,0,0,1,7.11-15.49A7.24,7.24,0,0,1,263.67,384.48Zm-26.2-54c9.53,1.41,15.72,12.93,13.82,25.72s-11.15,22-20.67,20.62-15.72-12.93-13.82-25.72S228,329,237.47,330.45Z"></path><path d="M126,241.08a36.49,36.49,0,0,1,7.14,3.09,5.23,5.23,0,0,0,7.6-2.95L186.46,94.55l9.71-31.09.47-1.54c2.24-7.17-1.21-15.12-8.23-17.82a14.1,14.1,0,0,0-18.55,9l-.63,2-9.7,31.1L113.75,232.82a5.22,5.22,0,0,0,4.58,6.74A36.62,36.62,0,0,1,126,241.08Z"></path><path d="M61.9,446.33a22.37,22.37,0,0,0,28-14.7L134.5,288.79l1.87-6a22.39,22.39,0,0,0-14.69-28h0a22.39,22.39,0,0,0-28,14.69l-1.87,6L47.2,418.3A22.38,22.38,0,0,0,61.9,446.33Z"></path><path d="M344.21,191.89a5.56,5.56,0,0,0-3.63,6.31,244.28,244.28,0,0,1,4.65,51c0,.46,0,.91,0,1.37a20,20,0,0,0,24,20.12h0a15.31,15.31,0,0,0,9-5.55,14.94,14.94,0,0,0,2.56-4.83A109.12,109.12,0,0,0,385.09,230a7.17,7.17,0,1,1,14.33-.37,119.24,119.24,0,0,1-2,22.56,7.86,7.86,0,0,0,9.92,9c5-1.48,10.2-3.1,15.46-4.88a19.69,19.69,0,0,0,13.37-17,131.42,131.42,0,0,0-.27-23.15,7.17,7.17,0,1,1,14.23-1.75,138.64,138.64,0,0,1,.65,20.68,6.61,6.61,0,0,0,9.45,6.23q6.36-3,12.61-6.39a26.41,26.41,0,0,0,12.74-30.8,321.73,321.73,0,0,0-19.7-49.6,5.59,5.59,0,0,0-6.86-2.8C444.57,156.86,401.25,172,401.25,172S358.51,186.93,344.21,191.89Z"></path><path d="M333.35,164.72l.12.59,1.52,7.91a5.56,5.56,0,0,0,7.29,4.2l54.25-18.93,54.24-18.93a5.56,5.56,0,0,0,3.1-7.82l-3.74-7.15-.28-.53a23.1,23.1,0,0,0-27.44-10L399.81,122,377.7,42.47c-3.12-11.24-14.86-18.15-26-14.7a20.54,20.54,0,0,0-12.86,27.62L371.25,132l-22.6,7.89A23.12,23.12,0,0,0,333.35,164.72Z"></path></svg>