<svg height='100px' width='100px'  fill="#000000" xmlns="http://www.w3.org/2000/svg" xmlns:xlink="http://www.w3.org/1999/xlink" viewBox="0 0 100 100" version="1.1" x="0px" y="0px"><title>Hands E</title><desc>Created with Sketch.</desc><g stroke="none" stroke-width="1" fill="none" fill-rule="evenodd"><path d="M61.6631598,71.9411042 C63.3643254,71.9411042 65.8670696,70.4031357 68.8928326,67.5185934 C70.4160364,66.0664817 72.032316,64.3184723 73.7936702,62.2511995 C75.5809151,60.1535391 80.4391847,54.0406475 80.9096875,53.4875345 C82.1533596,52.0255005 81.8536972,50.2930908 80.3904319,49.1703265 C78.852486,47.9902598 76.8552498,48.1310917 75.3344781,49.8908505 C72.4801621,53.1937181 69.0184694,56.9546076 64.9484287,61.1750613 C63.6137447,62.5590701 61.4887615,60.6655498 62.710372,59.180784 C63.2185836,58.5630951 63.5,57.7926711 63.5,56.9750143 C63.5,55.0731363 61.970738,53.524755 60.0919893,53.5 L42.563008,53.5 C40.0801162,53.5 37.1770605,54.8815808 35.2194367,56.9128051 C33.0020841,59.2135232 31.2286155,61.1907136 29.9019716,62.8390097 L35.4329778,71.9411042 L61.6631598,71.9411042 Z M73.0646345,47.9292669 C75.6524326,44.9348001 79.4495907,44.6670495 82.2166766,46.7902362 C84.9755602,48.9071292 85.6124577,52.5891634 83.1947779,55.4313354 C82.767734,55.9333591 77.9084733,62.0474976 76.0772124,64.196819 C74.2539127,66.3367962 72.57067,68.1572263 70.9628754,69.6899807 C67.4131435,73.0740369 64.374855,74.9411042 61.6631598,74.9411042 C50.5004159,74.9411042 42.128358,74.9411042 36.5469861,74.9411042 C34.68486,74.9411042 27.8673412,60.5796498 28.3101705,60.0522466 C29.5888383,58.529372 31.1713375,56.7899687 33.0593424,54.8309808 C35.554172,52.2423533 39.2153035,50.5 42.563008,50.5 L55.3248512,50.5 C57.4745633,50.5 57.4745633,50.5 60.1116492,50.5001288 C63.1078124,50.5394017 65.6092854,52.6126175 66.3065032,55.3978823 C68.8539014,52.6845754 71.1067207,50.194864 73.0646345,47.9292669 Z" fill="#000000" fill-rule="nonzero"></path><path d="M24.514134,79.253675 L31.514134,79.253675 L31.514134,60.253675 L24.514134,60.253675 L24.514134,79.253675 Z M23.514134,57.253675 L32.514134,57.253675 C33.6187035,57.253675 34.514134,58.1491055 34.514134,59.253675 L34.514134,80.253675 C34.514134,81.3582445 33.6187035,82.253675 32.514134,82.253675 L23.514134,82.253675 C22.4095645,82.253675 21.514134,81.3582445 21.514134,80.253675 L21.514134,59.253675 C21.514134,58.1491055 22.4095645,57.253675 23.514134,57.253675 Z" fill="#000000" fill-rule="nonzero" transform="translate(28.014134, 69.753675) rotate(-30.000000) translate(-28.014134, -69.753675) "></path><path d="M49.5432928,53.5 C48.7148657,53.5 48.0432928,52.8284271 48.0432928,52 C48.0432928,51.1715729 48.7148657,50.5 49.5432928,50.5 L60,50.5 C63.5898509,50.5 66.5,53.4101491 66.5,57 C66.5,60.5898509 63.5898509,63.5 60,63.5 L50,63.5 C49.1715729,63.5 48.5,62.8284271 48.5,62 C48.5,61.1715729 49.1715729,60.5 50,60.5 L60,60.5 C61.9329966,60.5 63.5,58.9329966 63.5,57 C63.5,55.0670034 61.9329966,53.5 60,53.5 L49.5432928,53.5 Z" fill="#000000" fill-rule="nonzero"></path><path d="M42.5,46.5 L42.5,49.5 L61.5,49.5 L61.5,46.5 L42.5,46.5 Z M64.5,43.5 L64.5,52.5 L39.5,52.5 L39.5,43.5 L64.5,43.5 Z" fill="#000000" fill-rule="nonzero"></path><path d="M42.5,40.5 L42.5,43.5 L61.5,43.5 L61.5,40.5 L42.5,40.5 Z M64.5,37.5 L64.5,46.5 L39.5,46.5 L39.5,37.5 L64.5,37.5 Z" fill="#000000" fill-rule="nonzero"></path><path d="M42.5,34.5 L42.5,37.5 L61.5,37.5 L61.5,34.5 L42.5,34.5 Z M64.5,31.5 L64.5,40.5 L39.5,40.5 L39.5,31.5 L64.5,31.5 Z" fill="#000000" fill-rule="nonzero"></path><path d="M43.5,24.5 L43.5,27.5 L62.5,27.5 L62.5,24.5 L43.5,24.5 Z M65.5,21.5 L65.5,30.5 L40.5,30.5 L40.5,21.5 L65.5,21.5 Z" fill="#000000" fill-rule="nonzero" transform="translate(53.000000, 26.000000) rotate(15.000000) translate(-53.000000, -26.000000) "></path></g></svg>