<svg height='100px' width='100px'  fill="#000000" xmlns="http://www.w3.org/2000/svg" xmlns:xlink="http://www.w3.org/1999/xlink" version="1.1" x="0px" y="0px" viewBox="0 0 100 100" enable-background="new 0 0 100 100" xml:space="preserve"><path fill="#000000" d="M94.26,32.1c-0.759-0.103-1.414-0.19-1.768-0.653c-0.011-0.031-0.012-0.128-0.014-0.192  c-0.002-0.213-0.006-0.534-0.232-0.795c-0.295-0.342-0.773-0.342-0.931-0.342c-0.369,0-0.806,0.08-1.228,0.158  c-0.303,0.057-0.613,0.114-0.857,0.132l0.036-0.217c0.021-0.122-0.005-0.247-0.073-0.352c-0.361-0.562-0.787-0.68-1.08-0.68  c-0.362,0-0.662,0.171-0.883,0.3c-0.307-0.473-0.525-1.177-0.705-1.759c-0.219-0.707-0.363-1.173-0.66-1.41  c-0.027-0.021-0.057-0.041-0.088-0.057c-0.006-0.003-0.576-0.24-0.91-0.341l0.001-0.001c-0.103-0.046-0.224-0.113-0.353-0.184  c-0.352-0.191-0.75-0.409-1.197-0.451c-0.228,0-0.477,0.093-0.738,0.19c-0.115,0.043-0.293,0.11-0.398,0.135  c-0.016-0.012-0.026-0.021-0.026-0.021c-0.064-0.053-0.138-0.119-0.22-0.192c-0.285-0.257-0.677-0.609-1.139-0.837  c-0.113-0.055-0.285-0.134-0.484-0.18s-0.505-0.009-0.879,0.049c-0.155,0.024-0.316,0.051-0.488,0.062  c0.004-0.063,0.01-0.13,0.015-0.182c0.029-0.339,0.06-0.688-0.139-0.964c-0.054-0.074-0.127-0.133-0.212-0.168  c0,0-0.047-0.02-0.118-0.05c0.042-0.084,0.065-0.184,0.057-0.3c-0.032-0.42-0.476-0.606-0.691-0.697  c-0.061-0.025-0.188-0.05-0.253-0.05c-0.113,0-0.211,0.027-0.283,0.062l-0.135-0.166c-0.299-0.373-0.707-0.884-1.273-1.117  l-0.4-0.164c0.02-0.034,0.037-0.067,0.054-0.095c0.164-0.285,0.319-0.555,0.296-0.835c-0.033-0.418-0.155-0.65-0.273-0.862  c0-0.008,0.01-0.085,0.137-0.319l0.057-0.093c0.577-0.97,0.697-1.172,0.425-1.469c-0.276-0.313-0.569-0.379-0.767-0.379  c-0.686,0-1.153,0.752-1.496,1.302c-0.069,0.112-0.128,0.214-0.179,0.281c-0.172,0.043-0.648,0.104-1.286,0.104  c-0.668,0-1.118-0.069-1.359-0.14c0.029-0.028,0.059-0.057,0.084-0.081c0.311-0.293,0.603-0.57,0.588-0.937  c-0.002-0.034-0.007-0.068-0.016-0.102c-0.029-0.121-0.029-0.121-0.338-0.47c-0.041-0.048-0.085-0.098-0.127-0.145  c0.061-0.069,0.135-0.145,0.189-0.2c0.291-0.3,0.623-0.64,0.556-1.083c-0.136-0.895-2.685-1.917-3.283-1.917  c-0.027,0-0.099,0.006-0.144,0.012c0-0.056,0-0.11,0-0.158c0.006-0.634,0.011-1.29-0.467-1.578  c-0.283-0.169-0.646-0.207-0.997-0.243c-0.44-0.046-0.78-0.094-0.827-0.259c-0.045-0.149-0.02-0.503,0.001-0.814  c0.058-0.843,0.137-1.998-0.759-2.504c-0.416-0.235-0.968,0.066-1.439,0.396c-0.121,0.086-0.315,0.222-0.418,0.269  c-0.061-0.02-0.126-0.05-0.223-0.103c-0.01-0.006-0.1-0.056-0.108-0.061c-0.003-0.003-0.083-0.075-0.087-0.077  c-0.002-0.003-0.092-0.087-0.096-0.09c-0.004-0.006-0.062-0.078-0.066-0.083l-0.098-0.145c-0.026-0.044-0.055-0.088-0.098-0.188  c-0.029-0.063-0.059-0.127-0.09-0.221c-0.243-0.712-0.245-1.65-0.247-2.404c-0.001-0.226-0.001-0.435-0.007-0.62  c-0.006-0.152-0.08-0.294-0.203-0.385c-0.122-0.091-0.28-0.12-0.427-0.08c-0.606,0.164-1.466,0.087-2.362-0.027  c-0.703-0.091-1.378-0.187-2.154-0.113c-0.106,0.011-0.211,0.027-0.408,0.06c-0.081,0.018-0.164,0.04-0.285,0.074  c-0.004,0.001-0.094,0.025-0.098,0.027c-0.131,0.041-0.257,0.09-0.383,0.149c-1.5,0.703-1.826,2.159-2.143,3.568  c-0.129,0.573-0.262,1.166-0.475,1.686c-0.051,0.124-0.092,0.2-0.119,0.252c-0.123,0.227-0.131,0.4-0.068,0.556  c-0.262,0.15-0.496,0.451-0.426,1.071c0.012,0.098,0.033,0.192,0.063,0.284c-0.069,0.025-0.134,0.062-0.191,0.109  c-2.418,1.928-3.774,1.987-5.491,2.063c-1.168,0.052-2.493,0.111-4.33,0.753c-1.344,0.47-1.672,1.518-1.544,2.271  c0.046,0.272,0.146,0.522,0.29,0.741c-0.304,0.087-0.59,0.217-0.872,0.344c-0.445,0.202-0.866,0.393-1.312,0.393  c-0.507,0-2.584-1.216-3.583-1.801c-0.437-0.256-0.818-0.479-1.083-0.621c-0.517-0.274-1.083-0.295-1.594-0.065  c-0.136-0.563-0.31-1.357-0.338-1.681c0.016-0.019,0.074-0.062,0.116-0.093c0.198-0.146,0.53-0.393,0.621-0.965  c0.053-0.148,0.163-0.457-0.052-0.754c-0.313-0.426-0.904-0.442-1.653-0.464c-1.05-0.029-2.241-0.062-2.797-1.079  c-0.087-0.163-0.278-0.283-0.463-0.283c-0.421,0-0.595,0.454-0.606,0.742c-0.012,0.363,0.155,0.65,0.29,0.881  c0.166,0.284,0.168,0.329,0.104,0.373c-0.152,0.081-0.436,0.233-0.5,0.585c-0.105,0.584,0.055,2.239,0.662,2.799  c0.001,0.043,0.001,0.097,0,0.142c-0.001,0.242-0.003,0.608,0.127,1.011c0.014,0.053,0.076,0.337,0.128,0.58  c-0.11,0.055-0.228,0.143-0.307,0.292c-0.064,0.122-0.271,1.01-0.023,1.42c0.004,0.007,0.008,0.014,0.013,0.021  c-0.33,0.636-0.704,1.521-0.688,1.694c0.015,0.58,0.054,1.21,0.214,1.642c-0.79-0.01-1.187-0.069-1.336-0.13  c-0.067-0.027-0.095-0.104-0.077-0.482c0.012-0.269,0.026-0.574-0.192-0.803c-0.221-0.232-0.555-0.268-0.988-0.049  c-0.018,0.008-0.039,0.02-0.062,0.036c-0.045-0.006-0.1-0.007-0.153-0.01c-0.188,0.017-0.332,0.072-0.441,0.142  c-0.391-0.171-0.639-0.009-0.881,0.137c-0.013-0.051-0.033-0.102-0.061-0.151c-0.021-0.037-0.052-0.075-0.088-0.111  c0.016-0.08,0.019-0.165,0.002-0.254c-0.029-0.156-0.143-0.438-0.585-0.562c-0.211-0.056-0.511-0.036-0.697,0.404  c-0.004-0.004-0.005-0.012-0.003-0.023c-0.16-0.136-0.57-0.359-0.952-0.146c-0.077,0.042-0.276,0.178-0.284,0.479  c-0.172,0.046-0.385,0.098-0.538,0.135c-0.244,0.059-0.406,0.099-0.52,0.131c-0.171-0.55-0.402-1.335-0.538-1.797l-0.232-0.78  c-0.151-0.491-0.379-0.736-0.607-0.851c0.028-0.122,0.038-0.244,0.022-0.363c-0.006-0.047-0.078-0.462-0.628-0.468  c-0.211-0.018-0.369-0.022-0.518,0.005c-0.217-0.265-0.603-0.239-0.99-0.094c-0.163,0.061-0.345,0.13-0.523,0.146  c-0.001-0.142-0.033-0.311-0.164-0.457c-0.107-0.119-0.41-0.32-0.998-0.102c-0.595,0.221-0.721,0.805-0.804,1.19  c-0.003,0.017-0.008,0.035-0.012,0.054c-0.056-0.056-0.111-0.114-0.155-0.16c-0.315-0.331-0.64-0.674-1.125-0.674  c-0.002,0-0.004,0-0.006,0c-0.222,0.021-0.415,0.126-0.569,0.277c-0.123-0.305-0.321-0.599-0.713-0.599  c-0.165,0-0.308,0.059-0.432,0.146c-0.013-0.008-0.025-0.015-0.039-0.021c-0.409-0.205-0.857-0.061-1.146,0.122  c-0.092-0.326-0.432-0.432-0.562-0.472c-0.049-0.016-0.188-0.037-0.239-0.037c-0.287,0-0.528,0.148-0.732,0.304  c-0.014-0.007-0.029-0.013-0.044-0.019c-0.486-0.2-1.149-0.269-1.365,0.162c-0.046,0.012-0.11,0.024-0.161,0.035  c-0.551,0.11-1.576,0.316-2.159,2.149c-0.123,0.382,0.009,0.644,0.098,0.766c0.181,0.249,0.472,0.35,0.768,0.389  c-0.03,0.05-0.052,0.103-0.062,0.154c-0.062,0.325,0.168,0.537,0.33,0.68c-0.013,0.02-0.026,0.037-0.037,0.053  c-0.136,0.19-0.321,0.452-0.217,0.763c0.01,0.031,0.023,0.061,0.039,0.089c-0.605-0.039-1.129,0.087-1.497,0.379  c-0.157,0.126-0.244,0.368-0.189,0.562c0.1,0.354,0.443,0.398,0.67,0.428c0.044,0.006,0.088,0.011,0.109,0.015  c0.39,0.123,0.96,0.6,1.108,0.925c0.09,0.199,0.066,0.525,0.043,0.841c-0.034,0.472-0.073,1.006,0.277,1.383  c0.285,0.307,0.681,0.422,1.401,0.307c0.329-0.054,0.534-0.293,0.679-0.566c0.129,0.248,0.427,0.517,0.828,0.384  C9.35,26.743,9.439,27,9.63,27.23c0.227,0.274,0.645,0.331,1.066,0.279c0.032-0.004,0.063-0.009,0.092-0.012  c0.208,0.172,0.417,0.472,0.619,0.764c0.223,0.321,0.454,0.653,0.734,0.896c0.268,0.229,0.664,0.24,0.958,0.124  c-0.003,0.056,0.002,0.112,0.018,0.165c0.003,0.107,0.041,0.21,0.108,0.295c0.127,0.16,0.347,0.384,0.347,0.384  c0.029,0.028,0.061,0.054,0.095,0.074c0.051,0.086,0.108,0.156,0.156,0.207c-0.004,0.071-0.109,0.27-0.171,0.388  c-0.191,0.361-0.479,0.906-0.081,1.36c0.131,0.151,0.316,0.325,0.578,0.325c0.135,0,0.302-0.071,0.396-0.168  c0.2-0.205,0.193-0.481,0.186-0.803c-0.001-0.051-0.003-0.123-0.003-0.192c0.128,0.028,0.249,0.086,0.281,0.123  c0.144,0.196,0.438,0.262,0.658,0.142c0.302,0.134,0.648-0.026,0.897-0.225c0.021,0.087,0.061,0.179,0.136,0.264  c0.021,0.023,0.042,0.044,0.064,0.062c-0.047,0.133-0.062,0.281,0.019,0.445c0.071,0.145,0.18,0.223,0.294,0.269  c0.023,0.116,0.08,0.229,0.162,0.305c0.084,0.078,0.193,0.125,0.308,0.133l0.379,0.027c-0.042,0.105-0.072,0.254-0.033,0.439  c-0.494,0.031-0.6,0.355-0.622,0.492c-0.035,0.201-0.013,0.386,0.041,0.552c-0.125,0.081-0.217,0.211-0.238,0.358  c-0.079,0.55,0.853,1.04,1.022,1.09c0.287,0.083,0.445,0.246,0.573,0.378c0.103,0.106,0.209,0.216,0.381,0.267  c0.022,0.006,0.044,0.012,0.066,0.017c-0.338,0.203-0.454,0.469-0.346,0.793c0.12,0.358,0.487,0.536,0.875,0.724  c0.19,0.092,0.585,0.283,0.614,0.432c-0.116,0.244-0.329,0.385-0.599,0.562c-0.387,0.256-0.87,0.573-1.068,1.277  c-0.154,0.533,1.23,2.255,1.252,2.28c0.19,0.216,0.168,0.685,0.148,1.099c-0.012,0.259-0.02,0.498,0.006,0.689  c0.079,0.584,0.537,0.892,0.841,1.095c0.027,0.019,0.06,0.04,0.091,0.062c-0.07,0.232,0.005,0.406,0.096,0.521  c0.067,0.084,0.161,0.146,0.265,0.173l0.722,0.199c-0.063,0.18-0.16,0.5,0.042,0.791c0.117,0.241,0.333,0.266,0.964,0.269  c0.021,0.048,0.04,0.107,0.06,0.167c0.076,0.229,0.185,0.561,0.499,0.794c-0.293,0.214-0.524,0.506-0.34,0.905l0.22,0.469  c0.108,0.228,0.174,0.366,0.278,0.64c-0.229,0.128-0.437,0.4-0.217,0.98c0.012,0.033,0.027,0.065,0.037,0.098  c-0.024,0.089-0.028,0.172-0.026,0.249c-0.287,0.053-0.542,0.13-0.658,0.398c-0.034,0.079-0.058,0.156-0.074,0.231  c-0.18-0.049-0.379-0.015-0.506,0.059c-0.517,0.304-0.587,0.721-0.583,0.941c0.008,0.463,0.348,0.885,0.676,1.062  c0.227,0.125,0.469,0.45,0.661,0.81c-0.222,0.011-0.448,0.129-0.769,0.399c-0.608,0.508-0.825,1.34-1.017,2.074  c-0.052,0.198-0.102,0.39-0.158,0.565c-0.26,0.812-0.651,1.611-1.066,2.459c-0.58,1.185-1.18,2.41-1.407,3.703  c-0.033,0.189,0.004,0.33,0.057,0.429c-0.345,0.547-0.542,1.296-0.712,1.943c-0.073,0.279-0.137,0.528-0.204,0.703  c-1.106,2.882-3.65,8.228-4.776,8.619c-0.035,0.012-0.07,0.02-0.145,0.04c-0.027-0.007-0.081-0.015-0.109-0.017  c-0.039-0.002-0.078-0.007-0.128-0.018c-0.156-0.029-0.307-0.083-0.445-0.131c-0.104-0.036-0.205-0.07-0.297-0.096  c-0.177-0.051-0.369,0.003-0.496,0.138c-0.127,0.134-0.17,0.328-0.111,0.503l0.07,0.209c0.02,0.06,0.051,0.113,0.09,0.161  c0.075,0.09,0.164,0.22,0.264,0.363c0.306,0.44,0.654,0.94,1.045,1.118c0.172,0.081,0.372,0.127,0.583,0.176  c0.26,0.061,0.654,0.15,0.731,0.294c0.063,0.115-0.038,0.262-0.45,0.652c-0.291,0.276-0.592,0.562-0.669,0.941  c-0.058,0.287-0.013,0.523,0.133,0.703c0.247,0.302,0.721,0.294,1.21,0.076c0.013,0.039,0.03,0.079,0.053,0.12  c0.48,0.839,1.495,1.136,2.39,1.397c0.593,0.173,1.206,0.353,1.503,0.652c0.095,0.095,0.146,0.454,0.185,0.716  c0.068,0.477,0.146,1.017,0.538,1.344c0.429,0.354,0.94,0.396,1.288,0.396c0.188,0,0.382-0.014,0.577-0.028  c0.172-0.013,0.345-0.025,0.514-0.025c0.392,0,0.623,0.075,0.797,0.261c0.088,0.095,0.131,0.295,0.177,0.507  c0.1,0.463,0.25,1.161,1.117,1.381c0.306,0.074,0.653-0.03,0.927-0.131c0.122-0.044,0.274-0.1,0.345-0.102  c0.065,0.024,0.218,0.184,0.31,0.277c0.242,0.251,0.516,0.534,0.962,0.579c0.181,0,0.181,0,0.614-0.359l0.035-0.028  c0.157,0.062,0.393,0.196,0.562,0.293c0.672,0.381,1.448,0.721,1.971,0.351c0.353-0.248,0.352-0.692,0.35-1.05  c0-0.098,0-0.246,0.012-0.342c0.004,0.002,0.009,0.004,0.016,0.005c0.387,0.077,1.736,0.906,2.143,1.308  c0.08,0.187,0.279,0.659,0.284,0.659c0.027,0.109,0.091,0.206,0.18,0.274c0.26,0.201,0.607,0.262,0.942,0.319  c0.186,0.032,0.53,0.092,0.607,0.193c0.071,0.158,0.127,0.486,0.167,0.727c0.022,0.127,0.042,0.243,0.062,0.337  c0.043,0.199,0.203,0.352,0.404,0.387c0.204,0.035,0.402-0.057,0.51-0.229c0.111-0.181,0.217-0.279,0.265-0.312  c0.297,0.006,0.947,0.247,1.088,0.576c0.094,0.221-0.119,0.512-0.314,0.717c-0.105,0.11-0.154,0.263-0.133,0.414  s0.11,0.284,0.242,0.361c0.141,0.083,0.327,0.172,0.525,0.267c0.32,0.152,0.759,0.36,0.892,0.522  c0.018,0.028,0.033,0.138,0.042,0.211c0.037,0.276,0.114,0.852,0.811,1.01c0.394,0.089,0.846-0.029,1.244-0.154  c0.236-0.073,0.444-0.136,0.703-0.139c0.165,0.057,0.797,0.489,1.216,0.775c1.141,0.78,1.466,0.977,1.756,0.977  c0.054,0,0.128-0.012,0.18-0.028c0.142-0.048,0.256-0.156,0.309-0.297l0.265-0.694c0.122-0.063,0.282-0.096,0.479-0.096  c0.696,0,1.623,0.389,2.299,0.673c0.21,0.088,0.397,0.166,0.552,0.223c0.056,0.021,0.115,0.031,0.173,0.031  c0.005-0.001,0.012-0.001,0.02,0c0.276,0,0.5-0.224,0.5-0.5c0-0.077-0.018-0.149-0.048-0.215c-0.075-0.368-0.25-0.656-0.407-0.915  c-0.096-0.157-0.187-0.307-0.237-0.449c-0.137-0.386,0.02-0.76,0.202-1.192c0.179-0.426,0.381-0.908,0.24-1.422  c-0.041-0.145-0.127-0.238-0.231-0.311c0.097-0.027,0.217-0.067,0.345-0.142c0.342-0.19,0.402-0.612,0.311-0.929  c-0.039-0.13-0.033-0.186-0.036-0.187c0.02-0.021,0.089-0.061,0.136-0.087c0.331-0.187,0.505-0.418,0.523-0.689  c0.271-0.161,0.503-0.46,0.744-0.772c0.11-0.143,0.276-0.357,0.342-0.404c0.401-0.271,0.666-0.199,0.945-0.178  c0.327,0.028,0.661,0.031,0.972-0.051c0.125-0.036,0.25-0.084,0.365-0.142c0.01-0.005,0.091-0.05,0.1-0.055  c0.084-0.047,0.168-0.097,0.309-0.188c0.174-0.121,0.347-0.259,0.523-0.4c0.254-0.203,0.516-0.413,0.777-0.558v-0.001  c0.043-0.023,0.084-0.053,0.118-0.088c0.077-0.077,0.124-0.175,0.14-0.276c0.439-0.296,1.023-0.59,1.35-0.59  c0.664,0.01,0.758,0.16,0.963,0.488c0.174,0.278,0.41,0.659,0.973,0.925c0.136,0.064,0.385,0.134,0.848,0.261  c0.324,0.089,0.89,0.244,1.27,0.378c-0.014,0.018-0.021,0.028-0.021,0.029c-0.075,0.099-0.11,0.223-0.098,0.347  c0.075,0.799,2.046,1.152,2.176,1.152c0.042,0,0.127-0.009,0.167-0.02c0.095-0.025,0.179-0.057,0.265-0.108  c0.041-0.018,0.079-0.041,0.113-0.07c0.084-0.069,0.148-0.155,0.188-0.259c0.114-0.055,0.209-0.123,0.283-0.178  c0.021-0.016,0.049-0.035,0.073-0.052c0.03,0.016,0.063,0.033,0.099,0.051c0.025,0.014,0.051,0.026,0.078,0.04  c-0.002,0.026,0,0.054,0.004,0.082c0.006,0.104,0.025,0.211,0.045,0.315l0.022,0.117c0.056,0.342,0.322,0.749,1.269,0.749  c0.314,0,0.664-0.04,0.951-0.074c0.095-0.012,0.181-0.022,0.254-0.03c-0.016,0.101-0.059,0.247-0.088,0.345  c-0.098,0.322-0.207,0.688-0.045,1.03c0.146,0.301,0.462,0.381,1.305,0.593c0.371,0.094,1.062,0.268,1.206,0.371  c0.292,0.236,0.438,0.598,0.569,0.916c0.156,0.383,0.35,0.86,0.872,0.86c0.026,0,0.087-0.005,0.112-0.009  c0.135-0.021,0.544-0.085,0.752-0.424c0.023-0.04,0.043-0.079,0.059-0.119c0.074,0.063,0.15,0.124,0.23,0.174  c0.02,0.012,0.04,0.023,0.061,0.033c-0.01,0.068-0.01,0.147,0.006,0.236c0.043,0.214,0.227,0.464,0.604,0.464  c0.015,0,0.107-0.013,0.121-0.015c0.152,0.027,0.265,0.037,0.344,0.037c0.299,0,0.457-0.137,0.537-0.251  c0.15-0.217,0.098-0.444,0.037-0.624c0.08,0.053,0.211,0.202,0.286,0.287c0.203,0.23,0.413,0.469,0.727,0.522  c0.028,0.005,0.085,0.01,0.113,0.01c0.552,0,0.646-0.576,0.676-0.794c0.122,0.043,0.278,0.09,0.524,0.084  c0.236-0.023,0.41-0.028,0.547-0.032c0.704-0.019,0.855-0.154,1.391-0.896c0.09-0.076,0.259-0.219,0.277-0.468  c0.01-0.126-0.042-0.283-0.121-0.386c0.172-0.2,0.354-0.425,0.533-0.7c0.287,0.152,0.74,0.288,1.047,0.062  c0.299-0.222,0.47-0.529,0.607-0.777c0.082-0.148,0.167-0.302,0.234-0.353c0.002,0,0.366,0.013,0.602,0.071  c0.238,0.06,0.454,0.091,0.625,0.011c0.386-0.182,0.383-0.601,0.382-0.878c-0.001-0.052-0.001-0.126,0.003-0.186  c0.32-0.096,0.589-0.104,0.871-0.112c0.523-0.016,1.111-0.032,1.814-0.675c0.015,0.002,0.029,0.004,0.044,0.007  c0.159,0.028,0.319-0.018,0.437-0.127c0.115-0.109,0.174-0.269,0.153-0.427l-0.085-0.673c0.115-0.139,0.369-0.369,0.562-0.547  c0.707-0.645,1.508-1.375,1.494-2.188c-0.004-0.242-0.086-0.597-0.455-0.913c-0.268-0.228-0.639-0.23-1.201-0.234  c-1.155-0.008-2.9-0.02-4.035-1.941c-0.145-0.243-0.121-0.28,0.034-0.517c0.086-0.132,0.193-0.296,0.25-0.506  c0.136-0.5-0.278-0.783-0.456-0.904c-0.01-0.008-0.022-0.016-0.035-0.024c0.174-0.239,0.454-0.47,0.748-0.712  c0.746-0.611,1.766-1.449,1.023-2.854c-0.232-0.441-0.705-0.685-1.123-0.898c-0.246-0.126-0.52-0.266-0.644-0.403  c0.003-0.008,0.007-0.017,0.011-0.025c0.066-0.156,0.166-0.393,0.088-0.672c-0.059-0.204-0.207-0.388-0.467-0.693  c-0.02-0.024-0.043-0.052-0.066-0.08c0.082-0.016,0.139-0.021,0.176-0.021l0.113,0.051c0.121,0.101,0.322,0.27,0.724,0.27h0.001  c0.659-0.011,2.361-1.457,2.934-2.091c0.395-0.437,0.553-0.749,0.527-1.045c-0.038-0.457-0.429-0.758-0.807-1.049  c-0.113-0.087-0.289-0.223-0.371-0.31l0.055-0.76c0.026-0.128,0.07-0.341-0.027-0.577c-0.271-0.629-0.654-1.026-0.934-1.316  c-0.064-0.066-0.145-0.148-0.197-0.212c0.16-0.141,0.613-0.411,1.766-0.931c0.225-0.102,0.342-0.352,0.275-0.589l-0.031-0.117  l-0.482,0.133l0.457-0.252l-0.046-0.233c-0.041-0.236-0.082-0.465-0.129-0.613c-0.003-0.018-0.028-0.101-0.034-0.118  c-0.031-0.095-0.07-0.182-0.111-0.256c-0.003-0.005-0.053-0.088-0.057-0.093c-0.09-0.134-0.201-0.232-0.332-0.297  c0.049-0.146,0.064-0.313-0.004-0.492c-0.104-0.281-0.332-0.391-0.527-0.438c0.032-0.032,0.063-0.062,0.089-0.086  c0.206-0.196,0.419-0.399,0.457-0.691c0.043-0.349-0.162-0.626-0.327-0.849c-0.051-0.07-0.125-0.171-0.139-0.128  c0.012-0.089,0.078-0.21,0.141-0.326c0.128-0.235,0.321-0.592,0.131-0.971c-0.207-0.41-0.735-0.562-1.464-0.663  c-0.354-0.05-0.685-0.075-0.981-0.075c-2.146,0-2.418,1.306-2.564,2.007c-0.026,0.129-0.062,0.306-0.051,0.315  c-0.037,0.024-0.09,0.057-0.154,0.093c0.197-0.315,0.229-0.824,0.271-1.523c0.04-0.677,0.103-1.699,0.39-2.022  c0.181-0.203,0.646-0.358,1.056-0.496c0.62-0.207,1.261-0.422,1.591-0.93c0.229-0.354,0.191-0.8,0.156-1.191  c-0.015-0.18-0.041-0.479-0.006-0.551c0.082-0.081,0.476-0.144,0.711-0.181c0.479-0.076,1.023-0.162,1.362-0.516  c0.171-0.178,0.351-0.418,0.538-0.671c0.199-0.271,0.406-0.55,0.616-0.757c0.308-0.302,0.745-0.557,1.097-0.762  c0.313-0.182,0.561-0.325,0.727-0.492c0.287-0.187,0.402-0.419,0.341-0.693c-0.043-0.185-0.177-0.425-0.572-0.567  c0.007-0.006,0.015-0.011,0.022-0.016c0.05-0.033,0.129-0.1,0.164-0.148c0.066-0.094,0.099-0.207,0.092-0.321l-0.008-0.128  c0.189,0.002,0.304,0.121,0.555,0.433c0.34,0.424,0.828,1.035,1.873,0.854c0.498-0.081,0.945-0.576,1.378-1.055  c0.157-0.174,0.3-0.336,0.417-0.43c0.115-0.095,0.184-0.236,0.185-0.386c0.001-0.106-0.032-0.21-0.094-0.295  c-0.067-0.161-0.204-0.708-0.217-0.798c0.03-0.343,0.296-0.815,0.552-1.272c0.384-0.683,0.779-1.389,0.682-2.084  c-0.02-0.138-0.043-0.258-0.064-0.369c-0.072-0.365-0.1-0.501,0.135-0.927c0.137-0.248,0.354-0.483,0.582-0.733  c0.295-0.321,0.6-0.653,0.795-1.072c0.231-0.498,0.326-1.005,0.418-1.495c0.086-0.46,0.167-0.896,0.354-1.253  c0.108-0.187,0.821-0.796,1.343-1.241c1.697-1.45,2.43-2.117,2.017-2.731C96.273,32.371,95.203,32.227,94.26,32.1z M94.283,35.356  c-0.894,0.764-1.408,1.212-1.576,1.534c-0.259,0.493-0.357,1.023-0.454,1.536c-0.083,0.449-0.163,0.873-0.341,1.256  c-0.131,0.279-0.371,0.542-0.625,0.819c-0.259,0.282-0.526,0.574-0.721,0.927c-0.411,0.744-0.328,1.161-0.242,1.603  c0.02,0.096,0.04,0.198,0.057,0.316c0.051,0.36-0.275,0.941-0.562,1.454c-0.309,0.55-0.628,1.117-0.677,1.672  c-0.009,0.1,0.071,0.631,0.214,1.057c-0.079,0.083-0.164,0.175-0.25,0.271c-0.205,0.227-0.63,0.696-0.801,0.739  c-0.432,0.077-0.611-0.097-0.93-0.494c-0.273-0.34-0.648-0.806-1.338-0.806c-0.219,0-0.447,0.047-0.698,0.142  c-0.204,0.078-0.335,0.279-0.321,0.498l0.016,0.267c-0.476,0.335-0.65,0.537-0.69,0.778c-0.052,0.31,0.056,0.513,0.153,0.628  c0.072,0.086,0.162,0.15,0.268,0.195c-0.398,0.231-0.893,0.521-1.287,0.908c-0.266,0.262-0.506,0.587-0.719,0.874  c-0.158,0.216-0.309,0.421-0.455,0.572c-0.105,0.111-0.522,0.178-0.798,0.221c-0.511,0.081-1.038,0.165-1.34,0.551  c-0.28,0.361-0.239,0.836-0.204,1.255c0.016,0.181,0.042,0.483,0,0.562c-0.139,0.215-0.633,0.38-1.068,0.525  c-0.555,0.186-1.127,0.377-1.486,0.78c-0.517,0.582-0.582,1.668-0.641,2.626c-0.023,0.391-0.055,0.925-0.143,0.984  c-0.072-0.022-0.172-0.053-0.291-0.053c-0.541,0-0.707,0.534-0.785,0.924c-0.48,0.286-0.354,0.666-0.302,0.779  c0.067,0.146,0.284,0.483,0.845,0.483c0.85-0.001,2.105-0.79,2.118-0.799c0.32-0.217,0.396-0.584,0.471-0.939  c0.136-0.649,0.253-1.211,1.585-1.211c0.246,0,0.525,0.021,0.844,0.065c0.316,0.044,0.505,0.09,0.614,0.125  c-0.008,0.015-0.016,0.029-0.022,0.042c-0.096,0.178-0.216,0.398-0.252,0.67c-0.047,0.352,0.159,0.631,0.325,0.854  c0.028,0.039,0.064,0.088,0.093,0.116c-0.035,0.036-0.076,0.074-0.108,0.105c-0.272,0.259-0.778,0.741-0.496,1.341  c0.112,0.233,0.311,0.334,0.489,0.382c-0.225,0.389-0.201,0.704,0.067,0.936c0.092,0.08,0.287,0.154,0.409,0.154  c0.088,0,0.168-0.019,0.233-0.044c0.044,0.152,0.075,0.336,0.12,0.6l0.014,0.067c-1.473,0.684-1.92,1.028-2.012,1.507  c-0.087,0.453,0.215,0.767,0.508,1.07c0.251,0.262,0.537,0.558,0.702,1.001c-0.015,0.072-0.027,0.145-0.031,0.21l-0.054,0.838  c-0.004,0.069,0.006,0.139,0.029,0.204c0.121,0.332,0.438,0.574,0.742,0.809c0.119,0.093,0.305,0.235,0.391,0.331  c-0.308,0.533-2.059,1.944-2.518,2.025c-0.184-0.155-0.501-0.407-1.467-0.175c-0.4,0.01-0.642,0.169-0.718,0.474  c-0.097,0.391,0.191,0.731,0.557,1.163c0.074,0.088,0.178,0.21,0.237,0.292c-0.006,0.013-0.012,0.026-0.018,0.04  c-0.072,0.171-0.192,0.457-0.041,0.775c0.226,0.463,0.711,0.712,1.14,0.932c0.285,0.146,0.608,0.312,0.694,0.474  c0.33,0.625,0.051,0.939-0.773,1.615c-0.373,0.307-0.76,0.625-1.013,1.031c-0.3,0.479-0.185,0.91,0.341,1.282  c-0.012,0.019-0.024,0.038-0.037,0.058c-0.194,0.297-0.52,0.795-0.059,1.573c1.423,2.409,3.678,2.425,4.889,2.433  c0.239,0.002,0.535,0.005,0.559-0.006c0.104,0.09,0.105,0.144,0.105,0.17c0.006,0.362-0.729,1.032-1.168,1.434  c-0.485,0.442-0.766,0.707-0.875,1c-0.027,0.076-0.031,0.204-0.021,0.285l0.035,0.281c-0.064,0.03-0.12,0.07-0.165,0.119  c-0.469,0.472-0.765,0.48-1.255,0.495c-0.348,0.01-0.779,0.022-1.311,0.214c-0.451,0.164-0.522,0.613-0.533,0.925  c-0.396-0.082-0.896-0.076-1.203,0.15c-0.244,0.182-0.389,0.442-0.516,0.672c-0.074,0.134-0.146,0.263-0.227,0.359  c-0.036-0.019-0.075-0.039-0.104-0.055c-0.357-0.188-0.931-0.26-1.157,0.138s-0.465,0.67-0.716,0.958l-0.012,0.013  c-0.042,0.005-0.097,0.008-0.136,0.01c-0.221,0.014-0.525,0.031-0.689,0.315c-0.085,0.146-0.084,0.397-0.008,0.548  c0.078,0.154,0.104,0.204,0.468,0.279c-0.028,0.035-0.052,0.06-0.066,0.069c-0.03,0.01-0.142,0.013-0.239,0.016  c-0.154,0.004-0.352,0.01-0.606,0.035c-0.026-0.002-0.099-0.028-0.146-0.046c-0.192-0.07-0.486-0.15-0.748-0.06  c-0.249,0.086-0.376,0.274-0.445,0.467c-0.311-0.333-0.84-0.653-1.365-0.372c-0.084,0.046-0.17,0.102-0.247,0.17  c-0.119-0.045-0.251-0.145-0.472-0.005c-0.065-0.04-0.123-0.096-0.182-0.148c-0.16-0.146-0.382-0.345-0.703-0.404  c-0.108-0.02-0.194-0.026-0.262-0.026c-0.296,0-0.456,0.136-0.539,0.25c-0.017,0.023-0.031,0.048-0.044,0.071  c-0.151-0.346-0.369-0.749-0.764-1.068c-0.274-0.22-0.783-0.358-1.588-0.562c-0.194-0.049-0.437-0.109-0.606-0.16  c0.018-0.068,0.041-0.146,0.059-0.206c0.12-0.4,0.37-1.234-0.447-1.59c-0.062-0.025-0.219-0.05-0.286-0.05  c-0.113,0-0.295,0.02-0.508,0.045c-0.16,0.019-0.341,0.041-0.522,0.055c0.861-0.282,1.182-0.536,1.23-0.91  c0.014-0.099,0.025-0.438-0.367-0.661c-0.143-0.079-0.297-0.112-0.436-0.11c-0.021-0.128-0.086-0.229-0.158-0.304  c-0.229-0.229-0.538-0.36-0.848-0.36c-0.48,0-0.865,0.323-0.957,0.807c-0.016,0.085-0.016,0.163-0.004,0.234  c-0.09-0.033-0.182-0.056-0.289-0.06c-0.295,0-0.515,0.159-0.66,0.266c-0.01,0.007-0.02,0.015-0.03,0.022  c-0.001-0.111,0.021-0.279,0.034-0.392c0.024-0.186,0.045-0.369,0.041-0.527c-0.002-0.069-0.008-0.13-0.016-0.175  c-0.003-0.025-0.021-0.112-0.028-0.137c-0.036-0.12-0.093-0.228-0.239-0.387c-0.121-0.112-0.266-0.183-0.41-0.206  c-0.218-0.045-0.481,0.073-0.582,0.271C60.561,86.62,60.742,86.867,60.84,87c0.012,0.016,0.023,0.031,0.035,0.047  c-0.016,0.062-0.049,0.151-0.072,0.216c-0.078,0.217-0.174,0.477-0.112,0.793c-0.055-0.021-0.108-0.043-0.157-0.064  c0.156-0.224,0.154-0.275,0.15-0.446c-0.074-0.487-0.607-0.672-2.233-1.118c-0.319-0.088-0.585-0.157-0.685-0.201  c-0.297-0.14-0.404-0.312-0.553-0.55c-0.32-0.515-0.678-0.942-1.816-0.959c-0.818,0-1.982,0.758-2.414,1.156  c-0.07,0.061-0.125,0.146-0.158,0.24c-0.148,0.109-0.291,0.224-0.432,0.336C52.234,86.575,52.08,86.7,52,86.765  c-0.021,0.01-0.079,0.047-0.098,0.059c-0.07,0.045-0.139,0.085-0.257,0.151c-0.065,0.032-0.13,0.059-0.188,0.075  c-0.181,0.047-0.41,0.037-0.629,0.019c-0.13-0.01-0.259-0.02-0.391-0.02c-0.279,0-0.707,0.038-1.192,0.365  c-0.196,0.132-0.371,0.358-0.574,0.622c-0.036,0.046-0.081,0.104-0.126,0.164c-0.095-0.106-0.249-0.175-0.391-0.175  c-0.201,0-0.346,0.106-0.458,0.207c-0.204,0.18-0.307,0.38-0.306,0.595c0,0.216,0.104,0.371,0.206,0.475  c-0.253,0.158-0.652,0.493-0.5,1.208c-0.27,0.072-0.54,0.177-0.866,0.591c-0.094,0.118-0.15,0.349-0.117,0.496  c0.069,0.312,0.353,0.474,0.6,0.599c-0.021,0.168-0.111,0.381-0.204,0.603c-0.218,0.519-0.489,1.164-0.223,1.915  c0.039,0.108,0.085,0.209,0.135,0.305c-1.12-0.437-2.515-0.702-3.25-0.104c-0.068,0.056-0.12,0.128-0.151,0.21l-0.131,0.345  c-0.278-0.175-0.653-0.431-0.936-0.624c-0.889-0.607-1.277-0.86-1.544-0.922c-0.098-0.021-0.203-0.033-0.311-0.033  c-0.323,0-0.63,0.097-0.927,0.188c-0.236,0.074-0.459,0.144-0.63,0.144l-0.101,0.011c-0.014-0.028-0.026-0.124-0.035-0.188  c-0.026-0.197-0.062-0.468-0.257-0.708c-0.265-0.324-0.745-0.561-1.18-0.768c0.302-0.532,0.242-0.974,0.112-1.277  c-0.416-0.971-1.879-1.246-2.227-1.163c-0.055,0.01-0.105,0.026-0.15,0.046c-0.036-0.145-0.081-0.285-0.138-0.413  c-0.041-0.086-0.083-0.156-0.133-0.218c-0.295-0.365-0.778-0.448-1.203-0.522c-0.11-0.02-0.272-0.047-0.385-0.079  c-0.123-0.407-0.263-0.652-0.401-0.793l0.007-0.007c-0.411-0.466-2.041-1.537-2.745-1.677c-0.515-0.104-0.782,0.078-0.925,0.222  c-0.301,0.302-0.299,0.744-0.298,1.1c0,0.063,0,0.146-0.002,0.215c-0.213-0.042-0.562-0.24-0.825-0.39  c-0.417-0.236-0.81-0.459-1.193-0.459h0c-0.181,0-0.222,0.033-0.537,0.295l-0.04,0.033c-0.062-0.058-0.129-0.127-0.178-0.178  c-0.213-0.22-0.454-0.469-0.782-0.552c-0.308-0.077-0.658,0.03-0.933,0.131c-0.122,0.044-0.273,0.099-0.343,0.101  c-0.238-0.061-0.285-0.172-0.381-0.621c-0.066-0.305-0.147-0.684-0.425-0.98c-0.485-0.518-1.104-0.577-1.526-0.577  c-0.193,0-0.391,0.014-0.587,0.028c-0.496,0.037-0.94,0.035-1.152-0.14c-0.095-0.08-0.153-0.479-0.187-0.717  c-0.064-0.445-0.137-0.949-0.466-1.279c-0.478-0.48-1.217-0.697-1.931-0.906c-0.698-0.204-1.418-0.415-1.738-0.837  c0.015-0.059,0.028-0.12,0.04-0.186c0.147-0.435-0.017-0.67-0.189-0.797c-0.152-0.107-0.346-0.117-0.512-0.043  c0.352-0.386,0.673-0.913,0.331-1.546c-0.294-0.539-0.925-0.685-1.386-0.791c-0.151-0.034-0.307-0.07-0.387-0.108  c-0.077-0.037-0.2-0.178-0.324-0.338c0.047-0.001,0.1-0.004,0.174-0.009c0.104-0.012,0.209-0.035,0.316-0.071  c2.078-0.723,5.353-9.123,5.386-9.208c0.077-0.2,0.153-0.486,0.238-0.807c0.142-0.54,0.389-1.483,0.71-1.83  c0.48,0.227,0.808,0.329,1.047,0.329c0.374,0,0.571-0.241,0.625-0.446c0.236-0.878,0.235-1.361-0.001-1.67  c-0.296-0.388-0.846-0.319-1.423,0.084c0.271-0.793,0.658-1.584,1.036-2.356c0.412-0.842,0.838-1.713,1.12-2.594  c0.062-0.191,0.117-0.401,0.173-0.618c0.149-0.572,0.318-1.22,0.663-1.534c0.12,0.268,0.254,0.534,0.386,0.795  c0.401,0.793,0.815,1.613,0.829,2.482c0.014,0.832,0.083,1.263,0.188,1.64c0,0.088,0.015,0.17,0.043,0.245l0.104,0.248  c0.022,0.069,0.043,0.143,0.066,0.224c-0.039,0.114-0.046,0.266,0.041,0.452c0.005,0.012,0.01,0.023,0.017,0.035  c0.019,0.038,0.042,0.082,0.07,0.13l-0.089,0.774c-0.029,0.25,0.133,0.482,0.378,0.542c0.141,0.035,0.248,0.05,0.417,0.056  c0.128,0,0.239-0.021,0.336-0.065c0.035-0.015,0.068-0.033,0.099-0.056c0.127-0.091,0.214-0.22,0.247-0.35  c0.009-0.031,0.02-0.091,0.023-0.123c0.009-0.085,0.003-0.169-0.027-0.311c-0.02-0.072-0.051-0.156-0.084-0.227  c-0.004-0.009-0.048-0.099-0.052-0.107l-0.281-0.472c-0.014-0.066-0.027-0.129-0.041-0.188c0.025-0.205-0.059-0.39-0.109-0.499  l-0.145-0.41c0.004-0.037,0.007-0.079,0.008-0.09l0.003-0.155c0.003-0.129,0.003-0.129,0.015-0.242l0.031-0.311  c0.019-0.195,0.045-0.394,0.072-0.594c0.058-0.435,0.117-0.886,0.113-1.336c-0.011-1.001-0.42-1.599-0.781-2.126  c-0.211-0.308-0.41-0.599-0.547-0.975c-0.051-0.141-0.239-0.624-0.554-1.084c0.078,0.043,0.161,0.067,0.243,0.069  c0.148-0.002,0.288-0.07,0.381-0.186c0.093-0.114,0.13-0.265,0.102-0.41c-0.055-0.282-0.221-0.519-0.368-0.727  c-0.121-0.172-0.195-0.286-0.228-0.375c0.013-0.002,0.025-0.004,0.038-0.006c0.196-0.033,0.312-0.055,0.395-0.098  c0.128-0.057,0.416-0.241,0.308-0.716c0.002-0.048,0.003-0.084-0.031-0.094c0.049-0.113,0.062-0.226,0.056-0.332  c0.161-0.031,0.328-0.148,0.398-0.291c0.146-0.293-0.021-0.555-0.166-0.776c-0.201-0.562-0.277-0.722-0.434-1.052l-0.095-0.203  c0.077-0.044,0.166-0.092,0.236-0.129c0.425-0.227,0.907-0.483,0.96-0.959c0.016-0.146-0.002-0.431-0.306-0.692  c-0.43-0.373-0.891-0.36-1.157-0.161c-0.075-0.216-0.188-0.478-0.455-0.668c-0.082-0.058-0.178-0.09-0.278-0.093  c-0.005,0-0.104-0.003-0.229-0.006c0.076-0.409-0.066-0.715-0.424-0.912c-0.034-0.02-0.071-0.034-0.108-0.045  c-0.194-0.054-0.352-0.097-0.479-0.132c-0.006-0.085-0.032-0.168-0.079-0.248c-0.132-0.224-0.343-0.365-0.548-0.502  c-0.234-0.157-0.389-0.271-0.406-0.397c-0.019-0.142-0.007-0.318,0.002-0.509c0.027-0.574,0.062-1.289-0.378-1.785  c-0.152-0.2-0.807-1.143-1.008-1.507c0.109-0.24,0.304-0.378,0.606-0.577c0.319-0.211,0.716-0.473,0.952-0.97  c0.473-0.999-0.561-1.508-1.071-1.754c0.128-0.093,0.243-0.22,0.297-0.409c0.029-0.104,0.043-0.222,0.053-0.338  c0.004-0.048,0.003-0.118-0.023-0.098c0.086-0.062,0.167-0.091,0.244-0.091c0.328,0,0.74,0.489,0.962,0.752  c0.108,0.129,0.201,0.234,0.268,0.294l0.083,0.075c0.341,0.313,0.607,0.535,0.923,0.535c0.276,0,0.503-0.177,0.579-0.447  c0.205-0.723-1.926-2.156-1.948-2.168c-0.323-0.169-0.618-0.251-0.902-0.251c-0.478,0-0.794,0.23-1.024,0.399  c-0.092,0.066-0.197,0.139-0.216,0.146c-0.125-0.129-0.33-0.342-0.654-0.504c0.051-0.261-0.126-0.462-0.228-0.576  c-0.036-0.041-0.084-0.095-0.128-0.153c0.018-0.003,0.034-0.005,0.049-0.006c0,0,0.077,0,0.108-0.001  c0.277,0.141,0.536,0.051,0.67-0.148c0.084-0.126,0.107-0.286,0.062-0.431c-0.019-0.06-0.046-0.11-0.077-0.152l0.074,0.021  c0.005,0.002,0.012,0.003,0.018,0.005c0.002,0,0.004,0.001,0.006,0.002c0.035,0.009,0.069,0.014,0.103,0.015  c0.008,0,0.017,0.001,0.022,0.001c0.252,0,0.465-0.188,0.496-0.438c0.03-0.242-0.157-0.481-0.392-0.551  c-0.157-0.047-0.211-0.103-0.32-0.215c-0.118-0.121-0.279-0.287-0.562-0.407c-0.007-0.003-0.013-0.006-0.02-0.009  c-0.067-0.133-0.19-0.241-0.334-0.283c-0.124-0.036-0.234-0.063-0.336-0.087c0.051-0.117,0.158-0.424,0.038-0.702  c-0.07-0.162-0.205-0.284-0.379-0.338c-0.048-0.013-0.114-0.023-0.161-0.021c-0.042-0.069-0.096-0.139-0.168-0.204  c-0.273-0.253-0.691-0.191-0.979,0.003c-0.096-0.303-0.358-0.45-0.602-0.521c-0.214-0.064-0.479,0.028-0.596,0.223  c-0.079,0.131-0.083,0.258-0.06,0.366c-0.074-0.02-0.148-0.035-0.22-0.046c-0.009-0.093-0.034-0.188-0.079-0.282  c-0.019-0.039-0.048-0.087-0.094-0.152c0.222-0.092,0.553-0.256,0.569-0.572c0.07-0.119,0.182-0.365,0.031-0.639  c-0.053-0.095-0.114-0.172-0.188-0.236c-0.007-0.006-0.074-0.055-0.082-0.061c-0.08-0.05-0.23-0.095-0.324-0.095  c-0.074,0-0.172,0.014-0.287,0.077c0.027-0.146-0.002-0.326-0.085-0.439c-0.094-0.127-0.252-0.206-0.41-0.206  c-0.218,0-0.354,0.122-0.51,0.263c-0.059,0.053-0.182,0.163-0.172,0.172c-0.12,0.018-0.211,0.071-0.3,0.123  c-0.036,0.021-0.101,0.059-0.149,0.079c-0.166-0.16-0.334-0.402-0.51-0.657c-0.282-0.405-0.572-0.825-0.966-1.085  c-0.171-0.112-0.383-0.129-0.691-0.089c-0.06,0.008-0.123,0.017-0.212,0.017c-0.078-0.136-0.093-0.32-0.107-0.485  c-0.016-0.193-0.065-0.784-0.625-0.784c-0.136,0-0.262,0.046-0.385,0.116c-0.097-0.221-0.247-0.487-0.535-0.682  c-0.082-0.054-0.199-0.089-0.297-0.089c-0.408,0-0.543,0.361-0.662,0.682c-0.042,0.113-0.125,0.335-0.189,0.432  c-0.266,0.034-0.424-0.011-0.429-0.011c-0.054-0.079-0.029-0.425-0.014-0.631c0.03-0.419,0.065-0.895-0.13-1.326  c-0.132-0.291-0.375-0.58-0.656-0.827c0.286,0.055,0.57,0.132,0.819,0.2c0.34,0.092,0.585,0.158,0.782,0.158  c0.34,0,0.492-0.203,0.537-0.282c0.09-0.152,0.148-0.332,0.174-0.54c0.038-0.33-0.148-0.717-0.346-1.011  c0.371,0.088,0.717,0.152,0.91,0.152c0.062,0,0.254,0,0.415-0.131c0.15-0.122,0.248-0.378,0.202-0.565  c-0.059-0.238-0.228-0.353-0.433-0.423c0.054-0.242-0.035-0.414-0.097-0.498c-0.167-0.227-0.434-0.286-0.889-0.229  c0-0.004,0-0.008-0.001-0.011c-0.032-0.409-0.451-0.542-0.698-0.619c-0.179-0.059-0.444-0.048-0.841-0.017  c-0.319,0.023-0.734,0.041-0.906,0.018c0.398-1.139,0.906-1.241,1.356-1.331c0.221-0.045,0.528-0.106,0.728-0.34  c0.077,0.027,0.164,0.063,0.222,0.087c0.241,0.1,0.45,0.177,0.643,0.123c0.062-0.016,0.115-0.04,0.164-0.069  c0.041,0.074,0.103,0.152,0.196,0.226c0.189,0.147,0.396,0.223,0.615,0.223c0.324,0,0.574-0.163,0.775-0.295  c0.077-0.051,0.206-0.135,0.197-0.153c0.074,0.12,0.227,0.367,0.541,0.367c0.107,0,0.226-0.045,0.32-0.113  c0.125,0.414,0.316,1.018,0.913,1.021c0.147,0,0.319-0.078,0.415-0.191c0.172-0.204,0.13-0.443,0.105-0.539  c0.004-0.06,0.032-0.127,0.061-0.177c0.098,0.082,0.23,0.222,0.318,0.314c0.314,0.33,0.61,0.642,1.005,0.642  c0.059,0,0.18-0.021,0.236-0.041c0.455-0.168,0.555-0.633,0.628-0.972c0.015-0.068,0.031-0.146,0.051-0.217  c0.089,0.18,0.241,0.268,0.382,0.31c0.371,0.112,0.796,0.062,1.112-0.035c0,0.113,0.034,0.229,0.1,0.316  c0.094,0.125,0.244,0.199,0.4,0.199c-0.005-0.032,0.045-0.003,0.067-0.004c-0.058,0.128-0.064,0.278-0.007,0.408  c0.136,0.31,0.606,0.376,0.834,0.129c0.12-0.13,0.206-0.197,0.258-0.23c0.021,0.039,0.05,0.103,0.08,0.199l0.228,0.769  c0.809,2.75,0.809,2.75,1.123,2.837c0.208,0.061,0.51,0.051,0.701-0.377c0.111-0.029,0.265-0.065,0.428-0.104  c0.899-0.218,1.09-0.277,1.23-0.458c0.006,0.003,0.013,0.006,0.02,0.008c0.014,0.105,0.063,0.188,0.1,0.238  c0.094,0.127,0.243,0.202,0.401,0.202c0.031,0,0.047,0,0.125-0.019c-0.004,0.125,0.023,0.253,0.114,0.373  c0.113,0.149,0.37,0.242,0.555,0.206c0.362-0.068,0.644-0.247,0.849-0.377c0.005-0.003,0.011-0.007,0.017-0.01  c0.042,0.201,0.084,0.48,0.103,0.661c-0.108,0.112-0.184,0.268-0.171,0.409c0.019,0.206,0.176,0.389,0.375,0.445  c0.332,0.095,0.607,0.015,0.777-0.203c0.23-0.293,0.141-0.658,0.046-1.045c-0.024-0.101-0.062-0.256-0.081-0.38  c0.062,0.018,0.108,0.03,0.223,0.025c0.014,0.395,0.127,0.905,0.704,1.139c0.34,0.139,0.869,0.203,1.667,0.203  c0.243,0,0.472-0.006,0.66-0.01l0.012-0.019c0.022,0.011,0.079,0.055,0.116,0.083c0.14,0.108,0.331,0.256,0.588,0.256  c0.156,0,0.303-0.055,0.425-0.16c0.16-0.14,0.238-0.337,0.215-0.541c-0.047-0.414-0.458-0.666-0.992-0.953  c-0.017-0.01-0.034-0.019-0.049-0.026c-0.052-0.15-0.123-0.498-0.143-1.295c0.145-0.322,0.648-1.376,0.765-1.599  c0.104-0.129,0.162-0.301,0.129-0.45c-0.035-0.162-0.17-0.303-0.329-0.37c0.003-0.046,0.007-0.09,0.011-0.126  c0.11-0.037,0.259-0.103,0.372-0.242c0.147-0.135,0.229-0.359-0.11-1.479c-0.088-0.273-0.087-0.512-0.086-0.722  c0.002-0.287,0.004-0.68-0.336-0.893c-0.181-0.176-0.401-1.199-0.357-1.756c0,0,0.001,0,0.002-0.001  c0.129-0.069,0.325-0.174,0.443-0.395c0.101-0.191,0.137-0.374,0.133-0.543c0.792,0.377,1.704,0.402,2.396,0.422  c0.248,0.007,0.564,0.016,0.743,0.032c-0.009,0.033-0.016,0.068-0.021,0.106c-0.012,0.086-0.039,0.117-0.205,0.24  c-0.179,0.133-0.511,0.379-0.495,0.854c0.001,0.027,0.27,2.825,0.876,3.006c0.047,0.014,0.083-0.013,0.144,0.021  c0.128,0,0.27-0.066,0.363-0.155c0.333-0.318,0.686-0.396,1.051-0.201c0.256,0.138,0.626,0.354,1.05,0.603  c1.875,1.098,3.367,1.938,4.088,1.938c0.661,0,1.226-0.256,1.724-0.481c0.403-0.183,0.784-0.355,1.118-0.357l0.142,0.014  c0.276,0.026,0.811,0.077,1.182,0.077c0.254,0,0.638,0,0.817-0.313c0.096-0.167,0.095-0.368-0.007-0.543  c-0.09-0.15-0.335-0.284-0.51-0.284c-0.129,0-0.238,0.038-0.33,0.076c-0.747,0.062-1.183-0.402-1.256-0.832  c-0.085-0.503,0.247-0.937,0.888-1.161c1.697-0.593,2.89-0.646,4.044-0.697c1.796-0.079,3.351-0.148,5.951-2.188  c0.105,0.062,0.252,0.183,0.309,0.229c0.143,0.117,0.266,0.219,0.463,0.219c0.161,0,0.318-0.081,0.412-0.213  c0.096-0.134,0.116-0.328,0.059-0.482c-0.057-0.157-0.161-0.31-0.281-0.486c-0.137-0.199-0.324-0.472-0.344-0.647  c-0.006-0.051-0.008-0.089-0.012-0.11c0.031-0.005,0.066-0.011,0.094-0.015c0.113-0.017,0.253-0.037,0.401-0.105  c0.154-0.075,0.28-0.25,0.299-0.421c0.032-0.305-0.188-0.479-0.311-0.569c0.022-0.047,0.047-0.102,0.073-0.166  c0.244-0.598,0.387-1.232,0.525-1.846c0.287-1.281,0.535-2.387,1.592-2.882c0.087-0.041,0.174-0.074,0.359-0.129  c0.062-0.018,0.127-0.035,0.246-0.056c0.08-0.014,0.157-0.028,0.258-0.037c0.602-0.059,1.232,0.024,1.912,0.111  c0.709,0.089,1.483,0.178,2.126,0.112c0,0.003,0,0.006,0,0.01c0.002,0.828,0.004,1.858,0.306,2.741  c0.035,0.104,0.078,0.205,0.104,0.25c0.005,0.017,0.032,0.084,0.039,0.101c0.039,0.084,0.086,0.163,0.133,0.241  c0.004,0.006,0.055,0.092,0.059,0.098c0.037,0.057,0.078,0.109,0.162,0.211c0.012,0.017,0.072,0.09,0.087,0.104  c0.031,0.032,0.065,0.062,0.159,0.146c0.041,0.037,0.082,0.074,0.118,0.101c0.044,0.035,0.095,0.065,0.173,0.108  c0.061,0.041,0.123,0.079,0.191,0.112c0.123,0.057,0.255,0.106,0.398,0.144c0.041,0.011,0.139,0.023,0.182,0.023  c0.336,0,0.655-0.224,0.994-0.46c0.131-0.093,0.338-0.237,0.446-0.291c0.267,0.257,0.219,0.946,0.181,1.51  c-0.031,0.452-0.059,0.843,0.035,1.161c0.236,0.825,1.108,0.915,1.686,0.976c0.208,0.021,0.494,0.053,0.515,0.039  c0.058,0.112,0.054,0.546,0.052,0.779c-0.004,0.533-0.008,0.993,0.27,1.272c0.146,0.146,0.389,0.219,0.596,0.185  c0.208-0.037,0.338-0.163,0.424-0.283c0.537,0.119,1.837,0.74,2.115,1.009c-0.062,0.081-0.176,0.197-0.25,0.273  c-0.279,0.287-0.569,0.585-0.565,0.976c0,0.191,0,0.194,0.448,0.704c-0.052,0.052-0.107,0.104-0.15,0.146  c-0.201,0.19-0.375,0.354-0.459,0.546c-0.11,0.255-0.091,0.528,0.055,0.751c0.105,0.16,0.426,0.649,2.367,0.649  c0.455,0,1.55-0.028,1.891-0.294c0.08-0.063,0.151-0.149,0.227-0.258c-0.029,0.241,0.031,0.434,0.145,0.647  c0.058,0.11,0.107,0.205,0.128,0.348c-0.016,0.06-0.112,0.228-0.169,0.327c-0.205,0.356-0.418,0.726-0.252,1.091  c0.024,0.055,0.059,0.104,0.102,0.146c0.072,0.072,0.072,0.072,0.982,0.446c0.328,0.135,0.644,0.528,0.873,0.815l0.162,0.199  c0.145,0.17,0.275,0.296,0.437,0.353c0.032,0.012,0.087,0.024,0.138,0.032c-0.004,0.042-0.001,0.085,0.009,0.131  c0,0.308,0,0.332,0.831,0.683c-0.004,0.074-0.012,0.162-0.017,0.226c-0.032,0.374-0.069,0.798,0.233,1.073  c0.199,0.182,0.46,0.202,0.639,0.202c0.214,0,0.49-0.04,0.753-0.081c0.187-0.029,0.365-0.061,0.499-0.062  c0.075,0.018,0.158,0.05,0.268,0.103c0.337,0.166,0.656,0.453,0.912,0.684c0.094,0.084,0.179,0.16,0.2,0.171  c0.018,0.02,0.068,0.066,0.088,0.082c0.071,0.058,0.136,0.103,0.202,0.14c0.307,0.166,0.756,0.036,1.172-0.121  c0.131-0.049,0.328-0.122,0.367-0.129c0.166,0.018,0.512,0.206,0.74,0.331c0.154,0.085,0.301,0.163,0.457,0.231  c0.031,0.013,0.525,0.197,0.76,0.285c0.09,0.163,0.219,0.58,0.316,0.894c0.237,0.767,0.533,1.722,1.063,2.332  c0.271,0.313,0.75,0.199,1.087,0.002c0.188-0.108,0.385-0.239,0.524-0.091l-0.081,0.493c-0.031,0.187,0.047,0.375,0.199,0.485  c0.382,0.277,1.133,0.184,1.907,0.041c0.378-0.069,0.768-0.142,1.045-0.142c0.081,0,0.136,0.006,0.159,0.003  c0.004,0.043,0.004,0.103,0.005,0.146c0.003,0.211,0.007,0.499,0.198,0.756c0.621,0.822,1.592,0.953,2.448,1.068  c0.761,0.103,1.428,0.191,1.863,0.682C95.711,34.137,94.834,34.886,94.283,35.356z M6.857,22.02  c0.132-0.108,0.223-0.255,0.288-0.372c0.16,0.122,0.361,0.387,0.455,0.566c-0.063-0.017-0.127-0.034-0.188-0.05  C7.246,22.118,7.058,22.067,6.857,22.02z"></path></svg>