<svg height='100px' width='100px'  fill="#000000" xmlns="http://www.w3.org/2000/svg" xmlns:xlink="http://www.w3.org/1999/xlink" xml:space="preserve" version="1.1" style="shape-rendering:geometricPrecision;text-rendering:geometricPrecision;image-rendering:optimizeQuality;" viewBox="0 0 846.66 846.66" x="0px" y="0px" fill-rule="evenodd" clip-rule="evenodd"><defs><style type="text/css">
   
    .fil0 {fill:#000000;fill-rule:nonzero}
   
  </style></defs><g><path class="fil0" d="M474.26 361.92c-14.36,-18.37 -35.66,-32.95 -59.37,-32.95l-133.54 0c-40.29,0 -75.45,42.46 -79.8,80.65l-13.46 118.35 49.37 0c10.84,0 19.64,8.75 19.71,19.57l21.57 230.61 138.76 0 8.2 -87.63 -44.98 0c-10.89,0 -19.72,-8.82 -19.72,-19.71l0 -222.91c0,-10.89 8.83,-19.72 19.72,-19.72l63.87 0 0 -46.54c0,-10.89 8.83,-19.72 19.72,-19.72l9.95 0zm9.76 66.26l93.26 0 0 -26.83 -93.26 0 0 26.83zm-272.78 -262.22c0,-75.6 61.29,-136.88 136.88,-136.88 75.6,0 136.89,61.28 136.89,136.88 0,53.74 -31.15,101.21 -77.95,123.58 51.65,0 90.45,26.67 113.47,72.38l76.46 0c10.89,0 19.72,8.83 19.72,19.72l0 46.54 63.87 0c10.89,0 19.72,8.83 19.72,19.72l0 222.91c0,10.89 -8.83,19.71 -19.72,19.71l-215.43 0 -10.05 107.49c-0.07,10.82 -8.87,19.57 -19.71,19.57l-174.53 0 0 -0.07c-10.06,0.01 -18.64,-7.66 -19.56,-17.87l-21.72 -232.24 -53.54 0 0 -0.04c-11.64,-0.03 -20.86,-10.22 -19.56,-21.84l15.95 -140.21c6.52,-57.32 57.69,-115.77 118.92,-115.77l7.83 0c-46.79,-22.37 -77.94,-69.84 -77.94,-123.58zm189.19 339.18l260.44 0 0 -37.53c-86.81,0 -173.62,0 -260.44,0l0 37.53zm260.44 39.43l-260.44 0 0 106.52 260.44 0 0 -106.52zm-312.75 -476.06c-53.82,0 -97.45,43.63 -97.45,97.45 0,53.82 43.63,97.45 97.45,97.45 53.83,0 97.46,-43.63 97.46,-97.45 0,-53.82 -43.63,-97.45 -97.46,-97.45z"></path></g></svg>