<svg height='100px' width='100px'  fill="#000000" xmlns="http://www.w3.org/2000/svg" xmlns:xlink="http://www.w3.org/1999/xlink" version="1.1" x="0px" y="0px" viewBox="0 0 100 100" style="enable-background:new 0 0 100 100;" xml:space="preserve"><g><g><path d="M50.379,22.415c0.121,0.08,0.219,0.188,0.273,0.324l2.756,2.755l0.041-0.041v-5.113c0.25,0,0.461-0.125,0.603-0.308    l-0.646-0.645L50.379,22.415z"></path><polygon points="46.946,25.848 46.994,25.896 49.293,25.896 49.293,23.501   "></polygon><polygon points="66.087,84.994 65.933,84.994 64.255,86.672 64.255,93.132 65.86,94.737 66.16,94.737 67.818,93.079     67.818,86.726   "></polygon><polygon points="51.73,18.396 51.73,17.152 50.574,18.396   "></polygon><path d="M54.2,19.475c-0.032-0.229-0.158-0.417-0.345-0.536l-0.096,0.096L54.2,19.475z"></path><polygon points="72.27,89.335 72.27,90.47 75.834,94.034 75.834,85.77   "></polygon><path d="M74.058,54.094c0-0.268-0.055-0.521-0.14-0.759l-0.314,0.311L74.058,54.094z"></path><path d="M71.752,51.797h-0.021l1.517,1.497l0.441-0.436C73.278,52.221,72.565,51.797,71.752,51.797z"></path><path d="M49.998,28.399c-0.389,0-0.705-0.316-0.705-0.705v-1.297h-2.255l-0.08,0.075L50,29.332l3.042-2.86l-0.079-0.075h-2.26    v1.297C50.703,28.083,50.388,28.399,49.998,28.399z"></path><path d="M71.265,49.859c-0.054-0.258-0.114-0.514-0.177-0.769l-0.769,0.769H71.265z"></path><polygon points="51.73,13.043 51.73,11.701 50.483,11.701   "></polygon><path d="M70.811,56.402h0.941c1.06,0,1.946-0.72,2.215-1.695l-0.719-0.71L70.811,56.402z"></path><path d="M69.15,49.859h0.462l1.337-1.337c-0.481-1.766-1.179-3.437-2.048-4.996l-3.042,3.042L69.15,49.859z"></path><polygon points="72.27,91.177 72.27,94.737 75.83,94.737   "></polygon><path d="M71.564,51.633c-0.055-0.429-0.12-0.854-0.198-1.273h-1.092L71.564,51.633z"></path><path d="M68.482,42.787c-0.919-1.511-2.018-2.894-3.253-4.134l-4.134,4.134H68.482z"></path><path d="M50.365,29.674l3.043,2.861l2.763-2.598h-1.95c0-0.427-0.346-0.77-0.771-0.77v-2.312l-0.043-0.041L50.365,29.674z"></path><polygon points="53.006,25.896 53.055,25.848 50.703,23.497 50.703,25.896   "></polygon><polygon points="53.772,32.878 53.805,32.909 56.906,32.909 56.906,30.104 56.814,30.018   "></polygon><path d="M53.626,33.426l-0.019-0.018h-0.399l-0.019,0.018l-0.017-0.018h-2.396l4.359,4.359l3.608-3.608    c-0.615-0.276-1.239-0.533-1.882-0.751h-3.221L53.626,33.426z"></path><path d="M60.155,42.787h0.233l4.487-4.488c-1.659-1.591-3.563-2.915-5.647-3.915l-3.738,3.738L60.155,42.787z"></path><polygon points="57.755,46.215 60.684,43.287 54.826,43.287   "></polygon><polygon points="68.434,43.287 62.578,43.287 65.506,46.215   "></polygon><polygon points="62.568,49.859 68.443,49.859 65.506,46.922   "></polygon><polygon points="57.75,53.29 60.719,50.359 54.781,50.359   "></polygon><polygon points="65.501,53.29 68.47,50.359 62.532,50.359   "></polygon><polygon points="50,53.29 52.969,50.359 47.031,50.359   "></polygon><polygon points="54.119,43.287 53.641,43.287 50.358,46.568 53.649,49.859 54.111,49.859 57.401,46.568   "></polygon><polygon points="50.005,46.922 47.067,49.859 52.942,49.859   "></polygon><polygon points="57.755,46.922 54.818,49.859 60.692,49.859   "></polygon><polygon points="61.399,49.859 61.861,49.859 65.152,46.568 61.871,43.287 61.391,43.287 58.108,46.568   "></polygon><polygon points="53.011,32.909 53.043,32.878 50,30.018 46.958,32.878 46.99,32.909   "></polygon><path d="M41.958,33.851c-0.236,0.096-0.465,0.208-0.697,0.312l0.188,0.188C41.632,34.167,41.804,33.998,41.958,33.851z"></path><path d="M43.481,33.759c-0.021,0.016-0.568,0.443-1.369,1.255l0.969,0.969c0.609-1.302,1.132-2.154,1.411-2.574H43.66    C43.652,33.542,43.595,33.671,43.481,33.759z"></path><polygon points="59.448,42.787 55.137,38.475 50.826,42.787   "></polygon><polygon points="80.286,87.81 82.025,89.549 82.072,89.502 82.072,84.994 80.286,84.994   "></polygon><polygon points="48.217,84.994 48.217,87.771 49.994,89.549 51.779,87.764 51.779,84.994   "></polygon><polygon points="48.268,11.701 48.268,12.94 49.419,11.701   "></polygon><polygon points="51.73,16.417 51.73,13.778 49.951,11.864 48.268,13.675 48.268,16.521 49.951,18.332   "></polygon><polygon points="48.268,17.256 48.268,18.396 49.329,18.396   "></polygon><polygon points="49.994,11.201 51.73,9.465 51.73,9.217 50.768,9.217 50.768,6.072 49.951,5.256 49.23,5.977 49.23,9.217     48.268,9.217 48.268,9.561 49.908,11.201   "></polygon><polygon points="52.934,43.287 47.077,43.287 50.005,46.215   "></polygon><polygon points="80.286,88.517 80.286,91.288 81.672,89.902   "></polygon><polygon points="48.268,10.268 48.268,11.201 49.201,11.201   "></polygon><path d="M46.144,18.938c-0.188,0.119-0.314,0.309-0.346,0.539l0.442-0.442L46.144,18.938z"></path><path d="M49.635,29.674l-3.042-2.86l-0.044,0.042v2.311c-0.429,0-0.771,0.344-0.771,0.77H43.83l2.763,2.598L49.635,29.674z"></path><polygon points="51.73,11.201 51.73,10.172 50.701,11.201   "></polygon><polygon points="46.227,32.878 43.186,30.019 43.093,30.106 43.093,32.909 46.195,32.909   "></polygon><polygon points="53.053,19.035 52.915,18.896 47.085,18.896 46.947,19.034 50,22.087   "></polygon><path d="M49.343,22.744c0.053-0.14,0.153-0.25,0.276-0.331l-3.025-3.025l-0.647,0.647c0.141,0.181,0.351,0.306,0.602,0.306v5.11    l0.043,0.043L49.343,22.744z"></path><polygon points="82.025,90.256 80.286,91.995 80.286,94.737 82.072,94.737 82.072,90.303   "></polygon><path d="M43.761,83.719V81.09c0-1.227,0.996-2.226,2.23-2.226c1.211,0,2.196,0.975,2.221,2.181l1.422-1.423L45.313,75.3h-1.326    l-4.322,4.322L43.761,83.719z"></path><path d="M49.885,42.787h0.233l4.665-4.665l-4.713-4.713h-0.137l-2.831,2.831c-0.089,0.933-0.188,2.102-0.281,3.484L49.885,42.787z    "></path><path d="M31.576,43.287l2.928,2.928l0.49-0.49c0.22-0.854,0.477-1.666,0.765-2.438H31.576z"></path><path d="M49.178,42.787l-2.398-2.398c-0.047,0.743-0.091,1.542-0.131,2.398H49.178z"></path><path d="M49.651,46.568l-3.036-3.036c-0.079,1.844-0.139,3.918-0.162,6.234L49.651,46.568z"></path><path d="M29.953,78.864c1.229,0,2.226,0.999,2.226,2.226v1.725l1.68,1.68h0.226l1.657-1.657V81.09    c0-1.227,0.999-2.226,2.226-2.226c0.088,0,0.172,0.016,0.258,0.026l-3.59-3.591H33.31l-3.588,3.588    C29.799,78.88,29.874,78.864,29.953,78.864z"></path><path d="M34.688,52.302c-0.259,0-0.47-0.21-0.47-0.47c0-0.502,0.023-0.989,0.052-1.473h-2.74l2.969,2.931l2.969-2.931h-2.245    c-0.03,0.485-0.064,0.968-0.064,1.473C35.158,52.092,34.947,52.302,34.688,52.302z"></path><path d="M42.608,46.568l2.908,2.909c0.025-2.21,0.083-4.2,0.159-5.977L42.608,46.568z"></path><path d="M34.504,46.922l-2.938,2.938h2.735c0.076-0.959,0.207-1.878,0.38-2.76L34.504,46.922z"></path><path d="M40.822,42.787c0.025-0.112,0.047-0.229,0.073-0.339l-0.339,0.339H40.822z"></path><polygon points="40.198,94.737 43.761,94.737 43.761,94.7 40.198,91.137   "></polygon><polygon points="40.198,89.375 40.198,90.43 43.761,93.993 43.761,85.812   "></polygon><path d="M40.493,44.453c0.07-0.399,0.144-0.788,0.223-1.167h-1.389L40.493,44.453z"></path><polygon points="34.835,94.737 35.742,94.737 35.742,93.83   "></polygon><polygon points="24.159,94.736 24.159,94.737 27.723,94.737 27.723,91.172   "></polygon><path d="M41.901,46.568l-0.682-0.682c-0.072,0.501-0.133,1.022-0.188,1.553L41.901,46.568z"></path><polygon points="43.279,75.3 35.343,75.3 39.311,79.269   "></polygon><path d="M42.255,46.215l2.928-2.928h-3.491c-0.137,0.635-0.262,1.297-0.374,1.992L42.255,46.215z"></path><path d="M41.103,34.711l-0.331-0.331c-2.084,1-3.983,2.33-5.643,3.92l1.98,1.98C38.432,37.799,39.949,35.931,41.103,34.711z"></path><polygon points="19.707,87.805 19.707,84.994 17.925,84.994 17.925,89.511 17.963,89.549   "></polygon><polygon points="17.925,90.294 17.925,94.737 19.707,94.737 19.707,92 17.963,90.256   "></polygon><polygon points="19.707,81.726 17.957,79.976 17.925,80.008 17.925,84.494 19.707,84.494   "></polygon><polygon points="32.179,93.795 32.179,94.737 33.121,94.737   "></polygon><path d="M21.926,75.3h-4.001c-0.984,0-1.782,0.802-1.782,1.782c0,0.149,0.024,0.292,0.059,0.431l1.293,1.293    c0.138,0.035,0.281,0.059,0.43,0.059v0.372l0.032,0.032L21.926,75.3z"></path><path d="M37.441,49.859l-1.953-1.953c-0.106,0.631-0.189,1.282-0.244,1.953H37.441z"></path><polygon points="18.316,89.902 19.707,91.293 19.707,88.512   "></polygon><path d="M45.942,38.844c0.042-0.563,0.083-1.088,0.124-1.567l-0.846,0.846L45.942,38.844z"></path><polygon points="27.723,89.339 24.159,85.775 24.159,94.029 27.723,90.465   "></polygon><path d="M39.28,50.359l0.602,0.594c0.004-0.199,0.008-0.397,0.014-0.594H39.28z"></path><polygon points="32.058,56.402 36.94,56.402 34.499,53.992   "></polygon><path d="M39.317,49.859h0.591c0.009-0.212,0.022-0.417,0.034-0.625L39.317,49.859z"></path><path d="M19.713,81.025c0.035-1.196,1.012-2.161,2.22-2.161c1.231,0,2.226,0.999,2.226,2.226v2.653l4.121-4.121L23.959,75.3    h-1.326l-4.322,4.322L19.713,81.025z"></path><polygon points="32.603,75.3 24.666,75.3 28.634,79.269   "></polygon><polygon points="30.818,50.359 30.438,50.359 27.108,53.646 29.901,56.402 31.346,56.402 34.143,53.642   "></polygon><path d="M26.033,54.708c0.269,0.975,1.154,1.694,2.211,1.694h0.945l-2.437-2.405L26.033,54.708z"></path><polygon points="61.82,50.359 61.431,50.359 58.106,53.642 60.903,56.402 62.348,56.402 65.146,53.642   "></polygon><polygon points="39.809,56.402 44.691,56.402 42.25,53.993   "></polygon><path d="M40.501,52.268c-0.053,0.021-0.11,0.034-0.17,0.034c-0.259,0-0.47-0.21-0.47-0.47c0-0.066,0.004-0.127,0.004-0.192    l-1.296-1.28H38.18l-3.325,3.282l2.797,2.761h1.445l2.797-2.761L40.501,52.268z"></path><polygon points="80.286,81.709 80.286,84.494 82.072,84.494 82.072,80.028 82.02,79.976   "></polygon><polygon points="64.255,93.839 64.255,94.737 65.153,94.737   "></polygon><path d="M40.796,51.855l1.454,1.435l2.969-2.931h-4.382c-0.016,0.485-0.036,0.968-0.036,1.473    C40.801,51.84,40.796,51.848,40.796,51.855z"></path><path d="M45.191,49.859l-2.937-2.938l-1.293,1.293c-0.046,0.537-0.087,1.08-0.113,1.644H45.191z"></path><polygon points="56.232,94.695 56.232,94.737 59.795,94.737 59.795,91.133   "></polygon><polygon points="59.795,89.379 56.232,85.816 56.232,93.988 59.795,90.426   "></polygon><polygon points="54.069,50.359 53.681,50.359 50.356,53.641 53.153,56.402 54.598,56.402 57.395,53.642   "></polygon><polygon points="55.31,56.402 60.191,56.402 57.75,53.992   "></polygon><polygon points="69.563,50.359 69.182,50.359 65.856,53.642 68.654,56.402 70.099,56.402 72.892,53.646   "></polygon><polygon points="63.06,56.402 67.942,56.402 65.501,53.992   "></polygon><path d="M46.45,50.487c-0.003,0.445-0.007,0.884-0.007,1.345c0,0.26-0.211,0.47-0.47,0.47c-0.259,0-0.47-0.21-0.47-0.47    c0-0.362,0.003-0.703,0.005-1.056l-2.903,2.865l2.797,2.761h1.444l2.798-2.762L46.45,50.487z"></path><polygon points="50.348,89.902 51.779,91.334 51.779,88.471   "></polygon><polygon points="66.867,94.737 67.818,94.737 67.818,93.786   "></polygon><polygon points="47.559,56.402 52.441,56.402 50,53.992   "></polygon><polygon points="75.311,75.3 67.374,75.3 71.343,79.269   "></polygon><polygon points="53.957,75.3 46.02,75.3 49.988,79.269   "></polygon><path d="M47.182,35.453l2.044-2.044h-1.807c0,0.016,0.005,0.03,0.002,0.046C47.419,33.476,47.318,34.159,47.182,35.453z"></path><path d="M51.782,81.063c0.015-1.214,1.007-2.198,2.224-2.198c1.234,0,2.227,0.999,2.227,2.226v2.612l4.08-4.08L55.99,75.3h-1.326    l-4.322,4.322L51.782,81.063z"></path><polygon points="64.634,75.3 56.697,75.3 60.666,79.269   "></polygon><path d="M44.867,38.476l-2.646,2.645c-0.148,0.527-0.288,1.085-0.421,1.666h3.908c0.057-1.202,0.12-2.303,0.187-3.283    L44.867,38.476z"></path><path d="M39.849,42.787l1.281-1.281c0.531-2.046,1.153-3.727,1.734-5.033l-1.096-1.096c-1.145,1.21-2.665,3.081-3.965,5.597    l1.813,1.813H39.849z"></path><polygon points="48.217,92.033 48.217,94.737 51.779,94.737 51.779,92.041 49.994,90.256   "></polygon><path d="M37.572,41.45c-0.21,0.43-0.414,0.873-0.607,1.336h1.943L37.572,41.45z"></path><path d="M36.771,43.287c-0.134,0.344-0.268,0.688-0.389,1.05l1.05-1.05H36.771z"></path><path d="M82.072,79.216v-0.353c0.139,0,0.272-0.02,0.402-0.05l1.329-1.329c0.03-0.13,0.05-0.264,0.05-0.403    c0.004-0.979-0.793-1.781-1.778-1.781h-4.024l3.969,3.969L82.072,79.216z"></path><path d="M38.62,43.287h-0.48l-2.065,2.065c-0.181,0.63-0.339,1.283-0.471,1.961l2.546,2.546h0.462l1.387-1.387    c0.091-1.207,0.225-2.346,0.395-3.414L38.62,43.287z"></path><path d="M71.738,79.664l4.096,4.096v-2.67c0-1.227,0.999-2.226,2.227-2.226c1.206,0,2.175,0.957,2.218,2.146l1.388-1.388    L77.344,75.3h-1.326L71.7,79.618C71.714,79.633,71.726,79.649,71.738,79.664z"></path><polygon points="48.217,88.479 48.217,91.326 49.641,89.902   "></polygon><path d="M44.514,38.122L43.591,37.2c-0.353,0.827-0.716,1.804-1.064,2.909L44.514,38.122z"></path><path d="M62.025,78.864c1.23,0,2.229,0.999,2.229,2.226v1.768l1.637,1.637h0.226l1.701-1.701V81.09    c0-1.227,0.996-2.226,2.226-2.226c0.071,0,0.139,0.015,0.209,0.021L66.667,75.3h-1.326l-3.592,3.593    C61.841,78.881,61.931,78.864,62.025,78.864z"></path><path d="M43.809,36.71l1.059,1.059l1.269-1.269c0.161-1.732,0.301-2.788,0.344-3.091h-0.086l-0.019,0.018l-0.017-0.018h-0.82    c-0.004,0.089-0.025,0.177-0.082,0.254C45.438,33.688,44.694,34.738,43.809,36.71z"></path><path d="M59.795,84.494V81.09c0-0.093,0.017-0.181,0.027-0.271l-3.59,3.59v0.085H59.795z"></path><polygon points="48.219,68.783 45.448,66.092 44.81,66.092 43.763,67.109 43.763,73.16 44.589,73.962 45.669,73.962     48.219,71.484   "></polygon><polygon points="48.219,72.183 46.388,73.962 48.219,73.962   "></polygon><polygon points="27.723,73.291 27.723,73.962 32.179,73.962 32.179,72.006 30.612,70.483   "></polygon><polygon points="56.236,67.171 55.126,66.092 54.486,66.092 51.783,68.719 51.783,71.549 54.266,73.962 55.348,73.962     56.236,73.098   "></polygon><polygon points="40.199,70.571 36.71,73.962 40.199,73.962   "></polygon><polygon points="43.763,73.962 43.87,73.962 43.763,73.858   "></polygon><polygon points="51.779,84.494 51.779,81.767 49.988,79.976 48.217,81.747 48.217,84.494   "></polygon><path d="M72.27,81.09v3.404h3.564v-0.027l-3.586-3.586C72.255,80.951,72.27,81.019,72.27,81.09z"></path><path d="M67.786,65.592h4.525c0.035-0.176,0.104-0.338,0.187-0.49l-3.241-3.24l-2.471,2.471    C67.293,64.567,67.673,65.03,67.786,65.592z"></path><polygon points="72.27,88.628 75.834,85.063 75.834,84.994 72.27,84.994   "></polygon><polygon points="56.236,73.795 56.065,73.962 56.236,73.962   "></polygon><polygon points="67.822,66.092 67.822,68.327 69.323,69.785 72.275,66.916 72.275,66.092   "></polygon><polygon points="59.799,73.962 63.226,73.962 59.799,70.632   "></polygon><polygon points="64.259,66.092 64.164,66.092 60.004,70.134 63.943,73.962 64.259,73.962   "></polygon><polygon points="35.771,66.092 35.743,66.092 35.743,73.962 35.991,73.962 39.931,70.135   "></polygon><polygon points="36.489,66.092 40.199,69.697 40.199,66.092   "></polygon><path d="M43.955,65.592l-0.328-0.328c0.043,0.104,0.078,0.215,0.101,0.328H43.955z"></path><polygon points="63.446,66.092 59.799,66.092 59.799,69.636   "></polygon><polygon points="30.972,70.135 32.179,71.308 32.179,68.961   "></polygon><path d="M41.981,64.161c0.241,0,0.47,0.049,0.679,0.136l-2.436-2.436l-3.731,3.73h3.742    C40.399,64.777,41.117,64.161,41.981,64.161z"></path><polygon points="32.179,83.521 32.179,84.494 33.152,84.494   "></polygon><polygon points="55.844,66.092 56.236,66.474 56.236,66.092   "></polygon><polygon points="53.769,66.092 51.783,66.092 51.783,68.021   "></polygon><path d="M58.021,64.161c0.862,0,1.578,0.616,1.742,1.431h3.547l-3.731-3.73l-3.73,3.73h0.424    C56.437,64.777,57.158,64.161,58.021,64.161z"></path><polygon points="46.167,66.092 48.219,68.086 48.219,66.092   "></polygon><path d="M50.001,64.161c0.86,0,1.582,0.616,1.746,1.431h1.886l-3.731-3.73l-3.731,3.73h2.083    C48.418,64.777,49.138,64.161,50.001,64.161z"></path><polygon points="44.091,66.092 43.763,66.092 43.763,66.41   "></polygon><polygon points="51.783,73.962 53.548,73.962 51.783,72.247   "></polygon><polygon points="44.662,65.592 45.464,65.592 49.548,61.508 45.966,57.925 44.161,57.925 40.578,61.508   "></polygon><polygon points="43.454,57.925 36.995,57.925 40.225,61.154   "></polygon><path d="M33.593,64.2c0.119-0.025,0.242-0.039,0.368-0.039c0.864,0,1.583,0.616,1.747,1.431h0.079l4.085-4.084l-3.583-3.583    h-1.805L30.9,61.508L33.593,64.2z"></path><polygon points="33.776,57.925 27.317,57.925 30.547,61.154   "></polygon><polygon points="54.34,65.592 55.142,65.592 59.226,61.508 55.643,57.925 53.838,57.925 50.255,61.508   "></polygon><polygon points="67.822,69.024 67.822,71.243 68.964,70.134   "></polygon><polygon points="23.939,58.094 24.108,57.925 23.939,57.925   "></polygon><polygon points="56.232,84.994 56.232,85.109 59.795,88.672 59.795,84.994   "></polygon><path d="M20.521,61.513l-0.239-0.239c-0.075,0.188-0.117,0.391-0.125,0.603L20.521,61.513z"></path><polygon points="64.255,83.564 64.255,84.494 65.185,84.494   "></polygon><path d="M21.875,60.158c-0.541,0.018-1.015,0.276-1.33,0.672l0.329,0.329L21.875,60.158z"></path><path d="M23.939,60.152h-1.351l-1.36,1.36l3.326,3.326c0.327-0.409,0.824-0.678,1.387-0.678c0.445,0,0.847,0.169,1.159,0.439    l3.093-3.093l-3.583-3.583h-1.795l-0.876,0.876V60.152z"></path><polygon points="62.809,57.925 56.35,57.925 59.579,61.154   "></polygon><polygon points="53.131,57.925 46.673,57.925 49.902,61.154   "></polygon><path d="M75.645,65.152c0.068,0.138,0.126,0.283,0.158,0.439h2.262v-1.874c0.734,0,1.365-0.444,1.639-1.078l-0.773-0.773    L75.645,65.152z"></path><path d="M64.018,65.592h0.276c0.164-0.814,0.88-1.431,1.743-1.431c0.066,0,0.129,0.013,0.193,0.02l2.673-2.673l-3.583-3.583    h-1.805l-3.583,3.583L64.018,65.592z"></path><polygon points="66.824,84.494 67.818,84.494 67.818,83.5   "></polygon><polygon points="75.838,72.858 78.064,70.695 78.064,69.583 75.838,67.419   "></polygon><polygon points="67.822,71.941 67.822,73.962 72.275,73.962 72.275,73.352 69.323,70.482   "></polygon><polygon points="69.682,70.134 72.275,72.654 72.275,67.613   "></polygon><polygon points="75.838,66.722 78.064,68.885 78.064,66.092 75.838,66.092   "></polygon><polygon points="64.255,84.994 64.255,85.965 65.226,84.994   "></polygon><polygon points="76.059,57.925 75.695,57.925 76.059,58.288   "></polygon><polygon points="66.794,84.994 67.818,86.019 67.818,84.994   "></polygon><polygon points="72.486,57.925 66.027,57.925 69.257,61.154   "></polygon><path d="M79.836,62.065c0.004-0.043,0.014-0.085,0.014-0.13c0-0.287-0.074-0.554-0.195-0.794l-0.371,0.371L79.836,62.065z"></path><path d="M78.064,60.152h-0.142l1.007,1.007l0.437-0.437C79.04,60.374,78.579,60.152,78.064,60.152z"></path><path d="M72.794,64.69c0.323-0.326,0.771-0.529,1.267-0.529c0.513,0,0.972,0.222,1.296,0.571l3.22-3.22l-1.36-1.36h-1.157v-1.157    l-1.07-1.07h-1.795l-3.583,3.583L72.794,64.69z"></path><polygon points="40.198,88.668 43.761,85.104 43.761,84.994 40.198,84.994   "></polygon><polygon points="27.723,66.092 27.723,66.978 30.612,69.785 32.179,68.263 32.179,66.092   "></polygon><path d="M40.198,84.494h3.563v-0.068l-3.589-3.589c0.009,0.084,0.025,0.166,0.025,0.253V84.494z"></path><polygon points="21.933,73.962 24.159,73.962 24.159,73.616 21.933,71.454   "></polygon><polygon points="34.763,84.994 35.742,85.974 35.742,84.994   "></polygon><polygon points="32.179,84.994 32.179,86.01 33.194,84.994   "></polygon><path d="M32.215,65.592c0.103-0.513,0.43-0.94,0.871-1.191l-2.539-2.539l-3.114,3.113c0.121,0.186,0.209,0.393,0.254,0.617H32.215    z"></path><polygon points="75.838,73.962 78.064,73.962 78.064,71.393 75.838,73.557   "></polygon><path d="M26.396,53.646l-0.315-0.312c-0.085,0.239-0.14,0.492-0.14,0.761L26.396,53.646z"></path><path d="M29.726,50.359h-1.097c-0.077,0.421-0.141,0.846-0.195,1.274L29.726,50.359z"></path><path d="M27.723,84.494V81.09c0-0.077,0.015-0.151,0.023-0.227l-3.587,3.587v0.044H27.723z"></path><path d="M28.909,49.078c-0.063,0.259-0.12,0.52-0.174,0.781h0.956L28.909,49.078z"></path><path d="M36.87,40.748l-2.104-2.104c-1.236,1.239-2.319,2.633-3.239,4.143h4.422C36.235,42.068,36.544,41.39,36.87,40.748z"></path><path d="M30.859,49.859l3.291-3.291l-3.054-3.054c-0.871,1.559-1.56,3.236-2.042,5.002l1.343,1.343H30.859z"></path><polygon points="34.056,84.994 33.901,84.994 32.179,86.717 32.179,93.088 33.828,94.737 34.128,94.737 35.742,93.123     35.742,86.681   "></polygon><polygon points="24.159,84.994 24.159,85.068 27.723,88.632 27.723,84.994   "></polygon><path d="M28.269,51.797h-0.025c-0.812,0-1.523,0.424-1.934,1.061l0.442,0.437L28.269,51.797z"></path><polygon points="34.792,84.494 35.742,84.494 35.742,83.544   "></polygon><path d="M24.29,65.282l-3.416-3.416l-0.626,0.626c0.235,0.709,0.896,1.226,1.685,1.226v1.874h2.262    C24.217,65.484,24.25,65.382,24.29,65.282z"></path><polygon points="24.159,66.092 21.933,66.092 21.933,68.824 24.159,66.662   "></polygon><polygon points="27.723,67.676 27.723,72.593 30.253,70.135   "></polygon><polygon points="21.933,69.522 21.933,70.755 24.159,72.918 24.159,67.359   "></polygon><polygon points="76.059,58.288 76.059,58.995 77.216,60.152 77.923,60.152   "></polygon><path d="M40.392,45.059l0.827,0.827c0.03-0.209,0.067-0.404,0.1-0.607l-0.826-0.826C40.458,44.652,40.425,44.854,40.392,45.059z"></path><path d="M28.409,51.797c0.006-0.055,0.018-0.108,0.025-0.163l-0.165,0.163H28.409z"></path><rect x="27.723" y="84.494" width="4.456" height="0.5"></rect><path d="M39.311,79.976l0.862,0.861c-0.118-1.021-0.923-1.827-1.947-1.946l0.731,0.731l-3.215,3.215v0.707L39.311,79.976z"></path><path d="M48.217,84.994v-0.5H45.47l2.747-2.747V81.09c0-0.016-0.004-0.03-0.004-0.045l-3.45,3.449h-0.227l-0.775-0.775v0.707    l0.068,0.068h-0.068v0.5h0.11l-0.11,0.109v0.708l0.817-0.817h0.155l3.484,3.484v-0.707l-2.777-2.777H48.217z"></path><path d="M45.895,39.503l0.885,0.885c0.014-0.225,0.028-0.45,0.042-0.665l-0.88-0.88C45.927,39.062,45.911,39.273,45.895,39.503z"></path><rect x="35.742" y="84.494" width="4.456" height="0.5"></rect><path d="M46.066,37.276l1.037-1.037c0.028-0.284,0.054-0.544,0.079-0.786L46.136,36.5C46.113,36.747,46.09,37.002,46.066,37.276z"></path><path d="M40.716,43.287h0.977c0.036-0.167,0.07-0.337,0.108-0.5h-0.978C40.786,42.951,40.75,43.118,40.716,43.287z"></path><path d="M51.783,65.945c0-0.121-0.013-0.239-0.036-0.354h-3.493c-0.023,0.114-0.036,0.232-0.036,0.354v0.146h3.564V65.945z"></path><path d="M43.763,65.945c0-0.121-0.013-0.239-0.036-0.354h-3.493c-0.023,0.114-0.036,0.232-0.036,0.354v0.146h3.564V65.945z"></path><path d="M72.312,65.592c-0.023,0.114-0.036,0.232-0.036,0.354v0.146h0.849l-0.849,0.824v0.697l1.566-1.521h0.63l1.366,1.327    v-0.697l-0.648-0.63h0.648v-0.146c0-0.121-0.013-0.239-0.035-0.354h-0.599l0.44-0.439c-0.077-0.154-0.173-0.296-0.288-0.42    l-0.859,0.859h-0.802l-0.901-0.901c-0.119,0.12-0.215,0.261-0.296,0.411l0.49,0.49H72.312z"></path><path d="M41.13,41.505c-0.08,0.309-0.16,0.617-0.235,0.942l1.327-1.327c0.099-0.353,0.202-0.684,0.305-1.012L41.13,41.505z"></path><path d="M71.59,51.797h0.142l-0.167-0.164C71.571,51.688,71.583,51.741,71.59,51.797z"></path><path d="M67.822,69.024v-0.697l-2.301-2.235h2.301v-0.146c0-0.121-0.013-0.239-0.036-0.354h-2.26l1.26-1.26    c-0.172-0.081-0.359-0.13-0.556-0.151l-1.411,1.411h-0.525c-0.022,0.114-0.035,0.232-0.035,0.354v0.146h0.545L67.822,69.024z"></path><rect x="67.818" y="84.494" width="4.451" height="0.5"></rect><path d="M56.117,84.994h0.115v-0.5h-0.085l0.085-0.085v-0.707l-0.792,0.792h-0.227l-3.432-3.432c0,0.01-0.003,0.018-0.003,0.027    v0.677l2.728,2.728h-2.728v0.5h2.77l-2.77,2.77v0.707l3.477-3.477h0.154l0.822,0.822v-0.707L56.117,84.994z"></path><path d="M45.355,33.005c-0.204-0.152-0.501-0.108-0.656,0.101c-0.021,0.028-0.1,0.14-0.207,0.303h1.046    C45.545,33.256,45.487,33.103,45.355,33.005z"></path><path d="M23.939,58.094l-2.064,2.064c0.02-0.001,0.038-0.006,0.058-0.006h0.655l1.351-1.352V58.094z"></path><rect x="59.795" y="84.494" width="4.46" height="0.5"></rect><path d="M71.343,79.976l0.905,0.905c-0.044-0.462-0.226-0.88-0.51-1.217l-0.042-0.042l0.004-0.004    c-0.363-0.409-0.872-0.678-1.447-0.732l0.736,0.736l-3.171,3.171V83.5L71.343,79.976z"></path><path d="M45.676,43.501l0.214-0.214h0.479l0.246,0.246c0.011-0.253,0.022-0.502,0.033-0.746h-0.94    C45.697,43.021,45.686,43.258,45.676,43.501z"></path><path d="M45.898,49.859l-0.382-0.382c-0.004,0.422-0.006,0.861-0.008,1.299l0.422-0.417h0.389l0.13,0.128    c0.001-0.238,0.001-0.487,0.003-0.721l-0.093,0.093H45.898z"></path><path d="M34.27,50.359h0.953c0.01-0.165,0.008-0.337,0.022-0.5h-0.943C34.288,50.024,34.279,50.192,34.27,50.359z"></path><path d="M80.286,84.994v-0.5h-2.785l2.785-2.785V81.09c0-0.027-0.007-0.053-0.008-0.08l-3.484,3.484h-0.226l-0.734-0.734v0.707    l0.027,0.027h-0.027v0.5h0.068l-0.068,0.068v0.707l0.775-0.775h0.154l3.522,3.522V87.81l-2.815-2.815H80.286z"></path><path d="M64.255,83.564v-0.707l-3.235-3.235l0.729-0.729c-1.01,0.126-1.803,0.92-1.927,1.927l0.844-0.844L64.255,83.564z"></path><polygon points="48.219,71.484 48.219,72.183 49.968,70.482 51.783,72.247 51.783,71.549 50.327,70.134 51.783,68.719     51.783,68.021 49.968,69.785 48.219,68.086 48.219,68.783 49.608,70.134   "></polygon><path d="M40.849,49.859h-0.94c-0.007,0.163-0.007,0.335-0.012,0.5h0.94C40.842,50.194,40.841,50.022,40.849,49.859z"></path><polygon points="32.179,86.717 32.179,86.01 28.64,89.549 27.723,88.632 27.723,89.339 28.286,89.902 27.723,90.465     27.723,91.172 28.64,90.256 32.179,93.795 32.179,93.088 28.993,89.902   "></polygon><path d="M41.031,47.439l-1.034,1.034c-0.019,0.252-0.04,0.503-0.055,0.762l1.019-1.019C40.983,47.955,41.004,47.693,41.031,47.439    z"></path><polygon points="43.763,73.858 43.763,73.16 40.649,70.135 43.763,67.109 43.763,66.41 40.29,69.785 40.199,69.697 40.199,70.571     40.29,70.483   "></polygon><path d="M50.379,22.415c-0.111-0.074-0.238-0.128-0.381-0.128c-0.143,0-0.268,0.053-0.379,0.126l0.028,0.028l-0.304,0.303    c-0.029,0.078-0.05,0.16-0.05,0.248v0.509L50,22.794l0.703,0.703v-0.505c0-0.09-0.021-0.174-0.051-0.253l-0.299-0.298    L50.379,22.415z"></path><polygon points="56.236,73.098 56.236,73.795 59.646,70.482 59.799,70.632 59.799,69.636 59.646,69.785 56.236,66.474     56.236,67.171 59.286,70.134   "></polygon><path d="M59.799,65.945c0-0.121-0.013-0.239-0.035-0.354h-3.491c-0.023,0.114-0.036,0.232-0.036,0.354v0.146h3.563V65.945z"></path><polygon points="64.255,86.672 64.255,85.965 60.672,89.549 59.795,88.672 59.795,89.379 60.318,89.902 59.795,90.426     59.795,91.133 60.672,90.256 64.255,93.839 64.255,93.132 61.025,89.902   "></polygon><path d="M24.195,65.592c-0.023,0.114-0.036,0.232-0.036,0.354v0.146h0.586l-0.586,0.57v0.697l1.305-1.268h0.628l1.63,1.584v-0.698    l-0.912-0.886h0.912v-0.146c0-0.121-0.013-0.239-0.036-0.354h-0.872l0.618-0.617c-0.092-0.142-0.206-0.265-0.333-0.374    l-0.992,0.991h-0.802l-0.753-0.753c-0.107,0.135-0.199,0.281-0.264,0.443l0.31,0.31H24.195z"></path><path d="M83.732,74.25v-8.158v-0.5v-8.659h-0.537l-0.02-0.02l-0.02,0.02H77.08v-6.573v-0.5v-7.073h-6.465v-9.878h-9.756v-6.512    v-0.5v-7.5h-3.963v-6.695v-0.5V4.75H43.104v6.451v0.5v6.695h-3.963v7.5v0.5v6.512h-9.756v9.878H22.92v7.073v0.5v6.573h-6.273    l-0.02-0.02l-0.02,0.02h-0.341v8.659v0.5v8.158h-3.712v10.244v0.5v10.243h74.89V84.994v-0.5V74.25H83.732z M70.615,43.287h5.57    l-2.934,2.933l-2.932-2.933H70.615z M76.58,43.599v5.948l-2.975-2.974L76.58,43.599z M69.766,33.409l-4.347,4.347l-4.348-4.347    H69.766z M70.115,33.766v8.687l-4.343-4.343L70.115,33.766z M53.852,26.396h6.085l-3.122,2.936l-3.043-2.861L53.852,26.396z     M53.762,25.848l3.053-3.053l3.101,3.101H53.81L53.762,25.848z M60.359,26.685v5.981l-3.181-2.991L60.359,26.685z M57.168,22.442    l3.191-3.192v6.384L57.168,22.442z M55.945,5.25l-2.646,2.646L50.652,5.25H55.945z M56.396,5.506v5.488L53.652,8.25L56.396,5.506z     M49.25,5.25l-2.646,2.646L43.957,5.25H49.25z M43.604,5.604L46.25,8.25l-2.646,2.646V5.604z M43.604,12.238l2.659,2.86    l-2.659,2.86V12.238z M39.641,19.25l3.192,3.192l-3.192,3.192V19.25z M46.19,25.896h-6.105l3.101-3.101l3.053,3.053L46.19,25.896z     M46.228,26.472l-3.042,2.86l-3.122-2.936h6.084L46.228,26.472z M39.641,26.685l3.18,2.991l-3.18,2.991V26.685z M38.933,33.409    l-4.348,4.347l-4.347-4.347H38.933z M29.884,33.762l4.347,4.347l-4.347,4.348V33.762z M29.384,43.287h0.306l-2.933,2.933    l-2.933-2.933H29.384z M23.42,43.589l2.983,2.983l-2.983,2.983V43.589z M23.42,50.707l2.661,2.627    c0.06-0.168,0.133-0.329,0.229-0.477l-2.531-2.498h4.85c0.031-0.168,0.071-0.333,0.106-0.5h-4.911l2.933-2.933l2.152,2.152    c0.046-0.188,0.095-0.375,0.146-0.562l-1.944-1.944l3.286-3.286h0.472l0.228,0.228c0.138-0.247,0.283-0.487,0.43-0.728h-1.265    l4.323-4.324l0.181,0.181c0.118-0.118,0.244-0.228,0.364-0.343l-0.191-0.191l4.701-4.701H39.8l0.972,0.972    c0.161-0.077,0.326-0.145,0.489-0.218l-0.754-0.754h3.152c0.005-0.107-0.019-0.217-0.089-0.309    c-0.118-0.152-0.303-0.178-0.478-0.138v-0.053h-2.98l2.98-2.802v-0.169h0.737l-0.278-0.262l2.998-2.819v-1.405l-3.009-3.009    l2.407-2.407c-0.1-0.129-0.169-0.283-0.169-0.458c0-0.036,0.016-0.066,0.02-0.101l-2.612,2.612l-3.192-3.192h3.109h2.999    l0.042,0.041c0.119-0.075,0.252-0.13,0.405-0.13h1.719v-0.411h-4.389l2.725-2.931l1.665,1.791v-0.735l-1.323-1.423l1.323-1.423    V12.94l-1.665,1.791l-2.816-3.029h4.48v-0.5h-4.262l2.598-2.598l1.665,1.665V9.561L46.957,8.25l2.273-2.273V5.764    C49.232,5.338,49.578,5,50,5s0.768,0.338,0.768,0.764v0.308l2.178,2.178L51.73,9.465v0.707l1.568-1.568l2.598,2.598H51.73v0.5    h4.385l-2.816,3.029l-1.568-1.688v0.735l1.227,1.32l-1.227,1.319v0.735l1.568-1.687l2.725,2.931H51.73v0.411h1.719    c0.152,0,0.287,0.056,0.406,0.132l0.043-0.042h2.998h3.109l-3.191,3.192L54.2,19.475c0.005,0.035,0.021,0.066,0.021,0.103    c0,0.174-0.069,0.327-0.169,0.456l2.409,2.409l-3.012,3.012v1.401l3,2.82l-0.278,0.262h0.735v0.167l2.981,2.804h-2.981v0.476H56.8    c0.021,0.007,0.042,0.017,0.063,0.024h2.633l-0.751,0.751c0.162,0.073,0.323,0.147,0.483,0.224l0.975-0.975h0.161l4.701,4.701    l-0.189,0.189c0.12,0.116,0.235,0.236,0.354,0.354l0.189-0.19l4.323,4.324h-1.26c0.147,0.242,0.281,0.492,0.419,0.74l0.239-0.24    h0.473l3.285,3.286l-1.949,1.95c0.051,0.188,0.092,0.379,0.139,0.568l2.164-2.165l2.934,2.933h-4.921    c0.034,0.167,0.071,0.332,0.102,0.5h4.854l-2.531,2.499c0.095,0.147,0.169,0.309,0.229,0.477l2.662-2.628v5.877l-2.522-2.49    c0,0.002,0.001,0.004,0.001,0.006c0,0.212-0.038,0.413-0.092,0.607l2.255,2.226h-1.519l-0.02-0.02l-0.02,0.02h-1.146l-0.02-0.02    l-0.02,0.02h-3.205l0.537-0.53h-0.712l-0.537,0.53h-0.37l-0.537-0.53h-0.712l0.537,0.53h-3.444l-0.02-0.02l-0.02,0.02H63.84    l-0.02-0.02l-0.02,0.02h-1.278l0.537-0.53h-0.712l-0.537,0.53h-0.37l-0.537-0.53h-0.712l0.537,0.53h-5.371l-0.02-0.02l-0.02,0.02    h-0.546l0.537-0.53h-0.712l-0.537,0.53h-0.37l-0.537-0.53h-0.712l0.537,0.53h-5.957l0.537-0.53h-0.712l-0.537,0.53h-0.37    l-0.537-0.53h-0.711l0.537,0.53h-0.743l-0.02-0.02l-0.02,0.02h-5.175l0.537-0.53h-0.712l-0.537,0.53h-0.371l-0.537-0.53H36.94    l0.537,0.53h-1.475l-0.02-0.02l-0.02,0.02h-1.156l-0.02-0.02l-0.02,0.02h-3.248l0.537-0.53h-0.712l-0.537,0.53h-0.37l-0.537-0.53    h-0.712l0.538,0.53h-3.402l-0.02-0.02l-0.02,0.02H25.14l-0.02-0.02l-0.02,0.02h-1.322l2.254-2.225    c-0.054-0.195-0.092-0.396-0.092-0.608c0-0.002,0-0.003,0-0.005l-2.521,2.488V50.707z M56.396,12.133v5.929l-2.756-2.965    L56.396,12.133z M16.767,57.76l3.514,3.514c0.065-0.162,0.156-0.309,0.264-0.443l-3.397-3.397h5.773h1.68l-0.492,0.492h0.707    l0.492-0.492h0.811l0.492,0.492h0.707l-0.492-0.492h7.443l-0.492,0.492h0.707l0.492-0.492h0.82l0.492,0.492h0.707l-0.492-0.492    h7.443l-0.492,0.492h0.707l0.492-0.492h0.82l0.492,0.492h0.707l-0.492-0.492h7.442l-0.492,0.492h0.707l0.492-0.492h0.82    l0.492,0.492h0.707l-0.492-0.492h7.443l-0.492,0.492h0.707l0.492-0.492h0.82l0.492,0.492h0.707l-0.492-0.492h7.443l-0.492,0.492    h0.707l0.492-0.492h0.811l0.492,0.492h0.707l-0.492-0.492h1.877h5.576l-3.29,3.29c0.115,0.125,0.211,0.266,0.288,0.419    l3.578-3.578v7.897l-3.396-3.396c-0.015,0.202-0.056,0.396-0.133,0.574l2.953,2.952h-4.592v0.5h4.737l-3.806,3.698l-0.932-0.905    v0.698l0.572,0.556l-0.572,0.557v0.697l0.932-0.905l3.872,3.763h-7.744l0.714-0.693v-0.698l-1.432,1.392h-0.488l-1.643-1.596    v0.697L73.2,74.25h-7.754l2.376-2.309v-0.698l-3.094,3.007H64.24l-0.297-0.288h-0.718l0.297,0.288h-7.754l0.297-0.288h-0.718    l-0.297,0.288h-0.488l-0.297-0.288h-0.718l0.297,0.288h-7.753l0.296-0.288h-0.719l-0.296,0.288h-0.487l-0.296-0.288H43.87    l0.296,0.288h-7.753l0.296-0.288h-0.719l-0.296,0.288h-0.487l-3.028-2.942v0.698l2.31,2.244h-7.753l0.987-0.959v-0.698    l-1.706,1.657H25.53l-1.371-1.332v0.698l0.652,0.634h-7.743l3.872-3.762l0.994,0.966v-0.699l-0.634-0.616l0.634-0.616v-0.698    l-0.994,0.966l-3.806-3.698h4.799v-0.5h-4.786l3.101-3.1c-0.058-0.177-0.097-0.361-0.097-0.557c0-0.021,0.005-0.039,0.006-0.06    l-3.39,3.39V57.76z M83.232,66.371v7.535l-3.878-3.768L83.232,66.371z M16.767,66.434l3.813,3.705l-3.813,3.705V66.434z     M13.055,75.074l4.548,4.548l-4.548,4.548V75.074z M13.055,85.348l4.554,4.555l-4.554,4.555V85.348z M82.072,95h-1.786v-0.263    h-2.742l2.742-2.742v-0.707l-3.449,3.449h-0.3l-0.703-0.703V95H72.27v-0.263h-4.451V95h-3.563v-0.263h-4.46V95h-3.563v-0.263    H56.19l0.042-0.042v-0.707l-0.749,0.749h-0.301l-3.403-3.403v0.707l2.696,2.696h-2.696V95h-3.563v-0.263h-2.704l2.704-2.704    v-0.707l-3.411,3.411h-0.3l-0.744-0.744V94.7l0.037,0.037h-0.037V95h-3.563v-0.263h-4.456V95h-3.563v-0.263h-4.456V95h-3.564    v-0.263h-0.001l0.001-0.001v-0.707l-0.708,0.708h-0.3l-3.444-3.444V92l2.737,2.737h-2.737V95h-1.782v-0.263h-4.443l4.443-4.443    v-0.783l-4.516-4.517h4.516v-0.5h-4.486l4.486-4.486v-0.771l-0.43-0.431c-0.637-0.158-1.134-0.656-1.293-1.293l-2.763-2.763h2.829    h6.208l-0.55,0.55h0.707l0.55-0.55h0.227l0.55,0.55h0.707l-0.55-0.55h9.036l-0.55,0.55h0.707l0.55-0.55h0.227l0.55,0.55h0.707    l-0.55-0.55h9.036l-0.55,0.55h0.707l0.55-0.55h0.227l0.55,0.55h0.707l-0.55-0.55h9.037l-0.55,0.55h0.707l0.55-0.55h0.227    l0.55,0.55h0.707l-0.55-0.55h9.036l-0.55,0.55h0.707l0.55-0.55h0.227l0.55,0.55h0.707l-0.55-0.55h9.036l-0.55,0.55h0.707    l0.55-0.55h0.227l0.55,0.55h0.707l-0.55-0.55h6.231h2.806l-2.734,2.734c-0.152,0.66-0.67,1.177-1.329,1.329l-0.402,0.402v0.813    l4.466,4.466h-4.466v0.5h4.508l-4.508,4.508v0.801l4.435,4.435h-4.435V95z M86.945,94.469l-4.566-4.566l4.566-4.566V94.469z     M86.945,84.194l-4.572-4.572l4.572-4.572V84.194z"></path><polygon points="71.349,89.549 67.818,86.019 67.818,86.726 70.995,89.902 67.818,93.079 67.818,93.786 71.349,90.256     72.27,91.177 72.27,90.47 71.702,89.902 72.27,89.335 72.27,88.628   "></polygon><path d="M40.796,51.855l-0.914-0.902c-0.004,0.23-0.016,0.452-0.017,0.687l0.636,0.628C40.669,52.202,40.786,52.044,40.796,51.855    z"></path><polygon points="39.317,89.549 35.742,85.974 35.742,86.681 38.963,89.902 35.742,93.123 35.742,93.83 39.317,90.256     40.198,91.137 40.198,90.43 39.67,89.902 40.198,89.375 40.198,88.668   "></polygon><path d="M42.112,35.014l-0.663-0.663c-0.11,0.112-0.228,0.235-0.347,0.36l0.665,0.665C41.884,35.252,42.004,35.123,42.112,35.014z    "></path><path d="M32.215,65.592c-0.023,0.114-0.036,0.232-0.036,0.354v0.146h2.234l-2.234,2.171v0.698l2.953-2.869h0.611v-0.146    c0-0.121-0.013-0.239-0.036-0.354h-0.723L33.593,64.2c-0.182,0.038-0.35,0.11-0.507,0.2l1.191,1.191H32.215z"></path><path d="M37.802,40.973l-0.692-0.692c-0.082,0.152-0.161,0.31-0.24,0.467l0.703,0.703C37.649,41.292,37.723,41.126,37.802,40.973z    "></path><path d="M36.965,42.787h-1.016c-0.065,0.164-0.127,0.332-0.19,0.5h1.012C36.836,43.12,36.897,42.949,36.965,42.787z"></path><rect x="49.293" y="25.896" width="1.41" height="0.5"></rect><path d="M32.179,83.521v-0.707l-3.192-3.192l0.734-0.734c-1.045,0.109-1.868,0.934-1.976,1.976l0.888-0.888L32.179,83.521z"></path><path d="M42.66,64.297l0.967,0.967C43.446,64.827,43.097,64.479,42.66,64.297z"></path><path d="M46.81,33.426l0.017-0.018h0.593c0.012-0.238-0.151-0.453-0.391-0.489c-0.298-0.042-0.498,0.138-0.536,0.394    c0,0.004-0.005,0.037-0.014,0.095h0.312L46.81,33.426z"></path><path d="M43.591,37.2c0.074-0.172,0.145-0.33,0.217-0.49l-0.727-0.727c-0.071,0.151-0.145,0.326-0.218,0.489L43.591,37.2z"></path><path d="M24.085,84.994h0.074v-0.5h-0.044l0.044-0.044v-0.707l-0.751,0.751h-0.226l-3.469-3.469c0,0.021-0.006,0.042-0.006,0.064    v0.636l2.769,2.769h-2.769v0.5h2.811l-2.811,2.811v0.707l3.518-3.518h0.154l0.781,0.781v-0.707L24.085,84.994z"></path><path d="M36.074,45.352c0.098-0.343,0.197-0.686,0.308-1.015l-1.388,1.388c-0.115,0.448-0.221,0.904-0.313,1.375l0.808,0.808    c0.034-0.202,0.075-0.396,0.114-0.593l-0.745-0.745L36.074,45.352z"></path></g></g></svg>