<svg height='100px' width='100px'  fill="#000000" xmlns="http://www.w3.org/2000/svg" viewBox="0 0 64 64" x="0px" y="0px"><g><path d="M32,4A28,28,0,1,0,60,32,28.0314,28.0314,0,0,0,32,4Zm0,54A26,26,0,1,1,58,32,26.03,26.03,0,0,1,32,58ZM28,32a4,4,0,1,0,4-4A4.0045,4.0045,0,0,0,28,32Zm4-2a2,2,0,1,1-2,2A2.002,2.002,0,0,1,32,30ZM44.3164,51.333,36.3662,37.56a1,1,0,0,0-1.37-.3638,6.0179,6.0179,0,0,1-5.9942.001,1,1,0,0,0-1.3686.3647L19.6592,51.3745a1.0129,1.0129,0,0,0-.1592.544,1.0006,1.0006,0,0,0,.6064.9194,23.9478,23.9478,0,0,0,23.7867,0A1.0424,1.0424,0,0,0,44,52.7847a1.01,1.01,0,0,0,.3638-1.378A.8261.8261,0,0,0,44.3164,51.333ZM32,54a21.8852,21.8852,0,0,1-10.1206-2.4707l7.0171-12.1558a8.1068,8.1068,0,0,0,6.2065.001l7.0176,12.1548A21.8852,21.8852,0,0,1,32,54ZM44.0005,11.2241a1,1,0,0,0-1.3628.3594l-.0039-.002-8,13.8584a1,1,0,0,0,.3672,1.3667A6.0084,6.0084,0,0,1,38,32a1,1,0,0,0,1,1H55a1,1,0,0,0,1-1A24.0693,24.0693,0,0,0,44.0005,11.2241ZM39.937,31a8.0347,8.0347,0,0,0-3.1025-5.3735l7.0166-12.1529A22.0754,22.0754,0,0,1,53.9771,31ZM26,32a6.0147,6.0147,0,0,1,3-5.1958,1.0008,1.0008,0,0,0,.3662-1.3662l-8-13.8565A1,1,0,0,0,20,11.2153a1.082,1.082,0,0,0-.103.0684A24.07,24.07,0,0,0,8,32a1,1,0,0,0,1,1H25A1,1,0,0,0,26,32ZM10.0229,31a22.0781,22.0781,0,0,1,10.126-17.5264L27.165,25.6279A8.0288,8.0288,0,0,0,24.063,31Z"></path></g></svg>