<svg height='100px' width='100px'  fill="#000000" xmlns="http://www.w3.org/2000/svg" xmlns:xlink="http://www.w3.org/1999/xlink" version="1.1" x="0px" y="0px" viewBox="0 0 100 100" enable-background="new 0 0 100 100" xml:space="preserve"><g><g><path d="M93,71h-4V22.4304l1.3535,0.4622C90.5684,22.9658,90.7861,23.001,91,23.001c0.832,0,1.6094-0.5234,1.8926-1.3545    c0.3574-1.0459-0.2012-2.1826-1.2461-2.5391L89,18.2037V17c0-1.1045-0.8955-2-2-2c-1.0508,0-1.903,0.8133-1.9842,1.8433    L50.6465,5.1074c-0.4199-0.1426-0.873-0.1426-1.293,0L14.9842,16.8433C14.903,15.8133,14.0508,15,13,15c-1.1045,0-2,0.8955-2,2    v1.2037l-2.6465,0.9037c-1.0449,0.3564-1.6035,1.4932-1.2461,2.5391c0.3574,1.0449,1.4941,1.6035,2.5391,1.2461L11,22.4304V71H7    c-1.1045,0-2,0.8955-2,2v20c0,1.1045,0.8955,2,2,2h12c1.1045,0,2-0.8955,2-2v-3.8129l0.5879-0.3209    c2.707-1.4775,5.75-2.1738,8.8223-2.0088c2.708,0.1357,5.375,0.9473,7.7109,2.3477l0.8496,0.5098    c0.6387,0.3838,1.4355,0.3799,2.0703-0.0068l0.3984-0.2432c0.4834-0.29,0.984-0.5458,1.4921-0.784    c2.2032-1.0323,4.6143-1.5812,7.0684-1.5812c3.0205,0,5.9814,0.8184,8.5488,2.3584l0.4102,0.25    c0.1636,0.0997,0.3378,0.1722,0.5168,0.2208c0.0616,0.0167,0.1251,0.0148,0.1876,0.0255C59.7755,89.9734,59.8868,90,60,90    c0.007,0,0.0137-0.003,0.0206-0.0031c0.1276-0.0014,0.2523-0.0298,0.3776-0.0555c0.0624-0.0128,0.1262-0.012,0.1873-0.0307    c0.1839-0.0564,0.3617-0.1383,0.5267-0.2486c0.3136-0.2098,0.6337-0.4084,0.9597-0.5956    c2.2821-1.3101,4.8531-2.0592,7.5012-2.1788c2.8086-0.0977,5.6777,0.4736,8.2051,1.7422L79,89.2382V93c0,1.1045,0.8955,2,2,2h12    c1.1045,0,2-0.8955,2-2V73C95,71.8955,94.1045,71,93,71z M17,91H9V75h8V91z M38.3688,84.8193    c-0.1036-0.0488-0.2062-0.0991-0.3106-0.1462c-0.5428-0.2449-1.095-0.4664-1.6561-0.6635    c-0.1022-0.0359-0.2053-0.068-0.3081-0.1023c-0.5746-0.1918-1.155-0.3651-1.7436-0.5057    c-0.0135-0.0032-0.0267-0.0076-0.0402-0.0107c-0.5996-0.142-1.2064-0.2489-1.8159-0.3365    c-0.063-0.009-0.1246-0.0263-0.1877-0.0348l-3.1172-26.5225l3.2849-0.8571c0.0101-0.0024,0.0205-0.0016,0.0306-0.0043L50,51.0674    l17.4951,4.5684c0.0086,0.0022,0.0176,0.0012,0.0262,0.0034l3.2883,0.858l-3.125,26.543    c-0.0674,0.0087-0.1328,0.0267-0.2001,0.036c-0.607,0.0844-1.2104,0.1871-1.8055,0.3247    c-0.0226,0.0052-0.0446,0.0123-0.0672,0.0176c-0.578,0.1357-1.1473,0.3026-1.7106,0.4875    c-0.1108,0.0363-0.222,0.0704-0.3321,0.1086c-0.5543,0.1925-1.0998,0.4089-1.6361,0.6484    c-0.1136,0.0507-0.2252,0.105-0.338,0.1578c-0.5388,0.2524-1.0706,0.5212-1.5871,0.8206    c-0.0125,0.0072-0.0258,0.0126-0.0382,0.0198c-2.4595-1.3561-5.1738-2.1833-7.9697-2.4546V75c0-1.1045-0.8955-2-2-2s-2,0.8955-2,2    v8.2066c-2.8008,0.2718-5.5206,1.1021-7.9912,2.4672C39.4761,85.3615,38.9263,85.082,38.3688,84.8193z M54,23h-8v-2h8V23z M46,27    h8v7.4323l-3.7783-0.4196C50.1484,34.0039,50.0742,34,50,34s-0.1484,0.0039-0.2217,0.0127L46,34.4323V27z M44.1988,38.6575    c0.0077-0.0009,0.0152,0.0007,0.0229-0.0002L50,38.0127l5.7783,0.6445c0.0143,0.0017,0.0284,0.0011,0.0427,0.0024L66,39.791    v11.316l-15.4951-4.0425C50.3398,47.0215,50.1699,47,50,47s-0.3398,0.0215-0.5049,0.0645L34,51.107V39.791L44.1988,38.6575z     M71.726,82.9221l3.2604-27.6877c0.1172-0.9922-0.5166-1.9189-1.4834-2.1699L70,52.1506V38c0-1.0195-0.7666-1.876-1.7793-1.9883    L58,34.8766V19c0-1.1045-0.8955-2-2-2H44c-1.1045,0-2,0.8955-2,2v15.8766l-10.2207,1.1351C30.7666,36.124,30,36.9805,30,38    v14.1506l-3.5029,0.9139c-0.9668,0.251-1.5996,1.1768-1.4834,2.1689l3.2501,27.6515C25.7582,83.04,23.2971,83.6448,21,84.6924V73    c0-1.1045-0.8955-2-2-2h-4V21.0645L50,9.1133l35,11.9512V71h-4c-1.1045,0-2,0.8955-2,2v11.7886    C76.7198,83.7311,74.2406,83.0934,71.726,82.9221z M91,91h-8V75h8V91z"></path><circle cx="36" cy="62" r="4"></circle><circle cx="64" cy="62" r="4"></circle><path d="M41.4336,45.9521L50,44.0488l8.5664,1.9033C58.7119,45.9844,58.8584,46,59.002,46c0.917,0,1.7432-0.6338,1.9502-1.5664    c0.2402-1.0781-0.4404-2.1465-1.5186-2.3857l-9-2c-0.2852-0.0645-0.582-0.0645-0.8672,0l-9,2    c-1.0781,0.2393-1.7588,1.3076-1.5186,2.3857C39.2871,45.5117,40.3574,46.1914,41.4336,45.9521z"></path></g></g></svg>