<svg height='100px' width='100px'  fill="#000000" xmlns="http://www.w3.org/2000/svg" viewBox="0 0 512 512" x="0px" y="0px"><title>law-Justice-scales-Balance</title><path d="M375.276,113.377l.108.052c13.306,6.4,23.813,11.453,32.616,13.534v-16.62c-6.223-2.074-14.609-6.009-25.678-11.334-23.815-11.455-59.017-28.383-101.2-33.486l.437,16.171C319.8,86.729,351.653,102.027,375.276,113.377Z"></path><path d="M264.435,40.21a8.438,8.438,0,0,0-16.87,0L247.354,48h17.292Z"></path><polygon points="265.078 64 246.922 64 241.084 280 270.916 280 265.078 64"></polygon><path d="M312,328H200a16.019,16.019,0,0,0-16,16v8H328v-8A16.019,16.019,0,0,0,312,328Z"></path><rect x="272" y="400" width="16" height="48"></rect><path d="M304,400v16h80V368H128a24,24,0,0,0,0,48H256V400H176V384H368v16Zm-144,0H144V384h16Z"></path><path d="M457.638,106.709l-13.406-9c-4.449,4.679-11.524,10.664-20.232,13.135v16.409C439.569,124.364,451.382,113.683,457.638,106.709Z"></path><polygon points="271.348 296 240.652 296 240.219 312 271.781 312 271.348 296"></polygon><path d="M88,127.252V110.831c-8.668-2.481-15.749-8.464-20.184-13.1l-13.454,8.976C60.618,113.683,72.431,124.364,88,127.252Z"></path><polygon points="381.766 296 450.234 296 460.9 264 371.1 264 381.766 296"></polygon><path d="M304,456a8,8,0,0,1-8,8H264a8,8,0,0,1-8-8V432H104a24,24,0,0,0,0,48H408V432H304Zm-64,8H112V448H240Zm80-16h64v16H320Z"></path><polygon points="140.9 264 51.1 264 61.766 296 130.234 296 140.9 264"></polygon><path d="M136.724,113.377c23.623-11.35,55.478-26.648,93.714-31.683l.437-16.171c-42.18,5.1-77.382,22.031-101.2,33.486-11.07,5.325-19.455,9.26-25.678,11.334v16.62c8.8-2.081,19.309-7.132,32.612-13.532Z"></path><polygon points="96 161.298 124.901 248 141.766 248 106.689 142.77 85.231 143.01 50.234 248 67.099 248 96 161.298"></polygon><polygon points="405.311 142.77 370.234 248 387.099 248 416 161.298 444.901 248 461.766 248 426.769 143.01 405.311 142.77"></polygon></svg>