<svg height='100px' width='100px'  fill="#000000" xmlns="http://www.w3.org/2000/svg" xmlns:xlink="http://www.w3.org/1999/xlink" version="1.1" x="0px" y="0px" viewBox="0 0 512 512" style="enable-background:new 0 0 512 512;" xml:space="preserve"><path d="M320,264.6c0-3.7-2.5-6.9-6.1-7.8l-10.1-2.4l-1.6-3.8l5.5-8.9c1.9-3.2,1.5-7.2-1.2-9.8l-10.4-10.4c-2.6-2.6-6.7-3.1-9.8-1.2  l-8.9,5.5l-3.8-1.6l-2.4-10.1c-0.9-3.6-4.1-6.1-7.8-6.1h-14.7c-3.7,0-6.9,2.5-7.8,6.1l-2.4,10.1l-3.8,1.6l-8.9-5.5  c-3.2-1.9-7.2-1.5-9.8,1.2l-10.4,10.4c-2.6,2.6-3.1,6.7-1.2,9.8l5.5,8.9l-1.6,3.8l-10.1,2.4c-3.6,0.9-6.1,4.1-6.1,7.8v14.7  c0,3.7,2.5,6.9,6.1,7.8l10.1,2.4l1.6,3.8l-5.5,8.9c-1.9,3.2-1.5,7.2,1.2,9.8l10.4,10.4c2.6,2.6,6.7,3.1,9.8,1.2l8.9-5.5l3.8,1.6  l2.4,10.1c0.9,3.6,4.1,6.1,7.8,6.1h14.7c3.7,0,6.9-2.5,7.8-6.1l2.4-10.1l3.8-1.6l8.9,5.5c3.2,1.9,7.2,1.5,9.8-1.2l10.4-10.4  c2.6-2.6,3.1-6.7,1.2-9.8l-5.5-8.9l1.6-3.8l10.1-2.4c3.6-0.9,6.1-4.1,6.1-7.8V264.6z M304,273.1l-7.9,1.9c-2.5,0.6-4.5,2.4-5.5,4.7  l-4.7,11.3c-1,2.4-0.8,5.1,0.6,7.2l4.3,7l-1.5,1.5l-7-4.3c-2.2-1.3-4.9-1.6-7.2-0.6l-11.3,4.7c-2.4,1-4.1,3-4.7,5.5l-1.9,7.9h-2.1  l-1.9-7.9c-0.6-2.5-2.4-4.5-4.7-5.5l-11.3-4.7c-2.4-1-5.1-0.8-7.2,0.6l-7,4.3l-1.5-1.5l4.3-7c1.3-2.2,1.5-4.9,0.6-7.2l-4.7-11.3  c-1-2.4-3-4.1-5.5-4.7l-7.9-1.9v-2.1l7.9-1.9c2.5-0.6,4.5-2.4,5.5-4.7l4.7-11.3c1-2.4,0.8-5.1-0.6-7.2l-4.3-7l1.5-1.5l7,4.3  c2.2,1.3,4.9,1.5,7.2,0.6l11.3-4.7c2.4-1,4.1-3,4.7-5.5l1.9-7.9h2.1l1.9,7.9c0.6,2.5,2.4,4.5,4.7,5.5l11.3,4.7  c2.4,1,5.1,0.8,7.2-0.6l7-4.3l1.5,1.5l-4.3,7c-1.3,2.2-1.5,4.9-0.6,7.2l4.7,11.3c1,2.4,3,4.1,5.5,4.7l7.9,1.9V273.1z"></path><path d="M256,248c-13.3,0-24,10.7-24,24s10.7,24,24,24c13.3,0,24-10.7,24-24C280,258.8,269.2,248,256,248z M256,280  c-4.4,0-8-3.6-8-8s3.6-8,8-8s8,3.6,8,8C264,276.4,260.4,280,256,280z"></path><path d="M136,69.7V40c0-13.2-10.8-24-24-24H80c-13.2,0-24,10.8-24,24v29.7L22.1,124c-4,6.4-6.1,13.7-6.1,21.2V456  c0,22.1,17.9,40,40,40h80c22.1,0,40-17.9,40-40V145.2c0-7.5-2.1-14.8-6.1-21.2L136,69.7z M80,32h32c4.4,0,8,3.6,8,8v24H72V40  C72,35.6,75.6,32,80,32z M160,456c0,13.2-10.8,24-24,24H56c-13.2,0-24-10.8-24-24V145.2c0-4.5,1.3-8.9,3.6-12.7L68.4,80h55.1  l32.8,52.5c2.4,3.8,3.6,8.2,3.6,12.7V456z"></path><rect x="48" y="416" width="96" height="16"></rect><rect x="48" y="368" width="96" height="16"></rect><rect x="48" y="320" width="96" height="16"></rect><rect x="48" y="176" width="96" height="16"></rect><path d="M477.6,292.9c-7.8-17.5-6.1-37.9,4.6-53.8l1.7-2.6c7.9-11.8,12.1-25.7,12.1-39.9c0-41.1-9.6-81.6-28-118.4l-18.2-36.3  c-11.6-23.1-39.7-32.5-62.8-20.9c-9.1,4.5-16.4,11.9-20.9,20.9L348,78.2c-18.3,36.8-27.9,77.3-28,118.4c0,14.2,4.2,28.1,12.1,39.9  l1.7,2.6c10.7,15.9,12.4,36.3,4.6,53.8l-12.2,27.4c-4.1,9.2-6.2,19.2-6.2,29.2V456c0,22.1,17.9,40,40,40h96c22.1,0,40-17.9,40-40  V349.6c0-10.1-2.1-20-6.2-29.2L477.6,292.9z M380.4,49c7.6-15.2,26.1-21.4,41.4-13.8c6,3,10.8,7.8,13.8,13.8l18.2,36.3  c4.2,8.4,7.9,17.1,11.1,25.9l-6.4,3.5c-31.4,17.6-69.6,17.6-101,0l-6.4-3.5c3.2-8.8,6.9-17.5,11.1-25.9L380.4,49z M353,299.4  c4.2-9.5,6.4-19.7,6.2-30.1l8.4-4.2c7.1-3.5,15.7-0.7,19.2,6.4c2.4,4.7,1.9,10.4-1.2,14.7L360.2,322c-2.7,3.8-7,6-11.7,6h-8.2  c0.2-0.4,0.3-0.8,0.5-1.2L353,299.4z M480,456c0,13.2-10.8,24-24,24h-96c-13.2,0-24-10.8-24-24V349.6c0-1.9,0.1-3.7,0.3-5.6h12.2  c9.8,0,19-4.7,24.7-12.7l25.5-35.7c9.7-13.6,6.6-32.6-7.1-42.3c-9.1-6.5-21.1-7.5-31.2-2.4l-3.4,1.7c-2-7.9-5.4-15.5-9.9-22.3  l-1.7-2.6c-6.1-9.2-9.4-20-9.4-31.1c0-23.7,3.4-47.2,10.1-69.9l3.7,2c36.2,20.1,80.3,20.1,116.6,0l3.7-2c6.6,22.7,10,46.2,10.1,69.9  c0,11.1-3.3,21.9-9.4,31.1l-1.7,2.6c-13.8,20.5-16,46.6-5.9,69.2l12.2,27.4c3.2,7.2,4.8,14.9,4.8,22.7V456z"></path><rect x="368" y="408" width="80" height="16"></rect><rect x="368" y="368" width="80" height="16"></rect><path d="M128,256c0-17.7-14.3-32-32-32s-32,14.3-32,32s14.3,32,32,32C113.7,288,128,273.7,128,256z M80,256c0-8.8,7.2-16,16-16  s16,7.2,16,16c0,8.8-7.2,16-16,16C87.2,272,80,264.8,80,256z"></path><path d="M440,200c0-17.7-14.3-32-32-32s-32,14.3-32,32s14.3,32,32,32C425.7,232,440,217.7,440,200z M392,200c0-8.8,7.2-16,16-16  s16,7.2,16,16s-7.2,16-16,16C399.2,216,392,208.8,392,200z"></path><path d="M256,176c6.2,0,12.4,0.6,18.5,1.8l-14.1,7.1l7.2,14.3l32-16c4-2,5.6-6.8,3.6-10.7c0,0,0,0,0,0l-16-32l-14.3,7.2l7.5,15.1  c-8-1.8-16.2-2.7-24.4-2.7c-25-0.1-49.3,8.3-68.9,23.7l9.9,12.6C213.8,183.1,234.6,175.9,256,176z"></path><path d="M300.4,361.3l-24-16l-8.9,13.3l10.3,6.8c-7.2,1.7-14.5,2.5-21.8,2.5c-21.4,0.1-42.2-7.1-59.1-20.3l-9.9,12.6  c19.6,15.4,43.9,23.8,68.9,23.7c8.2,0,16.4-0.9,24.4-2.7l-7.5,15.1l14.3,7.2l16-32C305,368,303.8,363.6,300.4,361.3z"></path></svg>