<svg height='100px' width='100px'  fill="#000000" xmlns="http://www.w3.org/2000/svg" xmlns:xlink="http://www.w3.org/1999/xlink" version="1.1" x="0px" y="0px" viewBox="0 0 100 100" style="enable-background:new 0 0 100 100;" xml:space="preserve"><style type="text/css">
	.st0{fill:none;stroke:#000000;stroke-width:2;stroke-linecap:round;stroke-linejoin:round;stroke-miterlimit:10;}
</style><path d="M37.5,62.7c1.1,0.9,2.6,1.5,4,1.5c0.2,0,0.4,0,0.6,0c1.5-0.1,2.8-0.8,3.8-1.8c0.5,0.1,1.1,0.1,1.6,0.1  c1.9,0,3.9-0.6,5.6-1.7c2.3-1.5,3.9-3.7,4.4-6.2c1.4-6.9-5.1-18-5.4-18.4c0,0,0,0,0,0c-0.1-0.1-0.1-0.2-0.2-0.2c0,0,0,0-0.1-0.1  c-0.1-0.1-0.2-0.1-0.4-0.2c0,0,0,0,0,0c0,0,0,0,0,0c0,0,0,0,0,0c-0.1,0-0.2,0-0.4,0c0,0-0.1,0-0.1,0c-0.1,0-0.2,0.1-0.3,0.1  c0,0,0,0,0,0c-0.4,0.3-10.5,8.1-12.2,14.7c-2.5-0.3-4.7-0.2-4.8-0.2c0,0,0,0,0,0c-0.1,0-0.2,0-0.3,0.1c0,0-0.1,0-0.1,0  c-0.1,0.1-0.2,0.1-0.3,0.3c0,0,0,0,0,0c0,0,0,0,0,0c0,0,0,0,0,0.1c-0.1,0.1-0.1,0.2-0.1,0.3c0,0,0,0.1,0,0.1c0,0.1,0,0.2,0,0.3  c0,0,0,0,0,0C32.9,51.8,34.1,59.9,37.5,62.7z M44.3,54.4c0.9,0.7,1.4,1.8,1.6,2.9c0.1,0.8-0.1,1.6-0.4,2.3l-8.8-7.3  C39.2,52.5,42.7,53,44.3,54.4z M42,62.1c-1.2,0.1-2.3-0.2-3.2-1c-1.6-1.3-2.8-4.6-3.4-7.2l8.8,7.3C43.5,61.7,42.8,62,42,62.1z   M55.7,54.2c-0.7,3.6-4.3,6.3-8.1,6.3l4.2-20.9C53.7,43.1,56.6,49.8,55.7,54.2z M49.9,39.2l-3,15.1c-0.3-0.5-0.8-1-1.2-1.4  c-1.3-1-3.1-1.7-5-2C41.8,46.7,46.9,41.8,49.9,39.2z"></path><path d="M64.2,13.3c-0.1-0.2-0.3-0.4-0.5-0.5c-0.2-0.1-0.5-0.1-0.8,0L23.2,29.3c-0.5,0.2-0.8,0.8-0.5,1.3l0.8,2l-5.1,1  c-0.3,0.1-0.5,0.2-0.6,0.4c-0.1,0.2-0.2,0.5-0.2,0.8l0.5,2.7L17,37.6c-0.5,0.1-0.9,0.6-0.8,1.2c0.1,0.5,0.5,0.8,1,0.8  c0.1,0,0.1,0,0.2,0l1.1-0.2l0.5,2.4L17.9,42c-0.5,0.1-0.9,0.6-0.8,1.2c0.1,0.5,0.5,0.8,1,0.8c0.1,0,0.1,0,0.2,0l1.1-0.2l0.5,2.4  l-1.1,0.2c-0.5,0.1-0.9,0.6-0.8,1.2c0.1,0.5,0.5,0.8,1,0.8c0.1,0,0.1,0,0.2,0l1.1-0.2l0.5,2.4l-1.1,0.2c-0.5,0.1-0.9,0.6-0.8,1.2  c0.1,0.5,0.5,0.8,1,0.8c0.1,0,0.1,0,0.2,0l1.1-0.2l0.5,2.4l-1.1,0.2c-0.5,0.1-0.9,0.6-0.8,1.2c0.1,0.5,0.5,0.8,1,0.8  c0.1,0,0.1,0,0.2,0l1.1-0.2l0.5,2.4l-1.1,0.2c-0.5,0.1-0.9,0.6-0.8,1.2c0.1,0.5,0.5,0.8,1,0.8c0.1,0,0.1,0,0.2,0l1.1-0.2l0.5,2.4  L22.2,64c-0.5,0.1-0.9,0.6-0.8,1.2c0.1,0.5,0.5,0.8,1,0.8c0.1,0,0.1,0,0.2,0l1.1-0.2l0.5,2.4L23,68.4c-0.5,0.1-0.9,0.6-0.8,1.2  c0.1,0.5,0.5,0.8,1,0.8c0.1,0,0.1,0,0.2,0l1.1-0.2l0.5,2.4l-1.1,0.2c-0.5,0.1-0.9,0.6-0.8,1.2c0.1,0.5,0.5,0.8,1,0.8  c0.1,0,0.1,0,0.2,0l1.1-0.2l0.5,2.4l-1.1,0.2c-0.5,0.1-0.9,0.6-0.8,1.2c0.1,0.5,0.5,0.8,1,0.8c0.1,0,0.1,0,0.2,0l1.1-0.2l0.5,2.4  l-1.1,0.2c-0.5,0.1-0.9,0.6-0.8,1.2c0.1,0.5,0.5,0.8,1,0.8c0.1,0,0.1,0,0.2,0l1.1-0.2l0.5,2.4L26.4,86c-0.5,0.1-0.9,0.6-0.8,1.2  c0.1,0.5,0.5,0.8,1,0.8c0.1,0,0.1,0,0.2,0l1.1-0.2l0.6,3.2c0.1,0.3,0.2,0.5,0.4,0.6c0.2,0.1,0.4,0.2,0.6,0.2c0.1,0,0.1,0,0.2,0  l42.2-8.2c0.5-0.1,0.9-0.6,0.8-1.2L71,73.7l14.7-6.1c0.2-0.1,0.4-0.3,0.5-0.5c0.1-0.2,0.1-0.5,0-0.8L64.2,13.3z M30.3,89.6l-0.4-2.3  l1.1-0.2c0.5-0.1,0.9-0.6,0.8-1.2c-0.1-0.5-0.6-0.9-1.2-0.8l-1.1,0.2L29,83l1.1-0.2c0.5-0.1,0.9-0.6,0.8-1.2s-0.6-0.9-1.2-0.8  L28.7,81l-0.5-2.4l1.1-0.2c0.5-0.1,0.9-0.6,0.8-1.2c-0.1-0.5-0.6-0.9-1.2-0.8l-1.1,0.2l-0.5-2.4l1.1-0.2c0.5-0.1,0.9-0.6,0.8-1.2  s-0.6-0.9-1.2-0.8l-1.1,0.2l-0.5-2.4l1.1-0.2c0.5-0.1,0.9-0.6,0.8-1.2s-0.6-0.9-1.2-0.8l-1.1,0.2l-0.5-2.4l1.1-0.2  c0.5-0.1,0.9-0.6,0.8-1.2s-0.6-0.9-1.2-0.8l-1.1,0.2L24.8,61l1.1-0.2c0.5-0.1,0.9-0.6,0.8-1.2s-0.6-0.9-1.2-0.8L24.4,59l-0.5-2.4  l1.1-0.2c0.5-0.1,0.9-0.6,0.8-1.2s-0.6-0.9-1.2-0.8l-1.1,0.2L23,52.2l1.1-0.2c0.5-0.1,0.9-0.6,0.8-1.2s-0.6-0.9-1.2-0.8l-1.1,0.2  l-0.5-2.4l1.1-0.2c0.5-0.1,0.9-0.6,0.8-1.2s-0.6-0.9-1.2-0.8l-1.1,0.2l-0.5-2.4l1.1-0.2c0.5-0.1,0.9-0.6,0.8-1.2s-0.6-0.9-1.2-0.8  l-1.1,0.2l-0.5-2.4l1.1-0.2c0.5-0.1,0.9-0.6,0.8-1.2c-0.1-0.5-0.6-0.9-1.2-0.8L20.1,37l-0.3-1.7l32-6.2l8.3-1.6l10.6,54.3L30.3,89.6  z M70.6,71.6l-8.9-45.5c-0.1-0.3-0.2-0.5-0.4-0.6c-0.2-0.1-0.5-0.2-0.8-0.2l-35.1,6.9c0-0.1,0-0.2-0.1-0.3l-0.5-1.2L62.8,15L84,66.1  L70.6,71.6z"></path><path d="M35.5,74.5c-0.5,0.1-0.9,0.6-0.8,1.2c0.1,0.5,0.5,0.8,1,0.8c0.1,0,0.1,0,0.2,0l24.4-4.8c0.5-0.1,0.9-0.6,0.8-1.2  c-0.1-0.5-0.6-0.9-1.2-0.8L35.5,74.5z"></path><path d="M36.4,79c-0.5,0.1-0.9,0.6-0.8,1.2c0.1,0.5,0.5,0.8,1,0.8c0.1,0,0.1,0,0.2,0l24.4-4.8c0.5-0.1,0.9-0.6,0.8-1.2  s-0.6-0.9-1.2-0.8L36.4,79z"></path></svg>