<svg height='100px' width='100px'  fill="#000000" xmlns="http://www.w3.org/2000/svg" xmlns:xlink="http://www.w3.org/1999/xlink" version="1.1" x="0px" y="0px" viewBox="0 0 100 100" style="enable-background:new 0 0 100 100;" xml:space="preserve"><path d="M71.9,27.9c-4.6,0-8.7,1.2-11.4,3.1v-2v-2.4v-7.8v-3.6h-3.4v7l-1.7,1.7V10.2H52v17.2l-1.7,1.7V5h-3.4v24l-1.7-1.7V10.2h-3.4  v13.8l-1.7-1.7v-7h-3.4v3.6v7.8V29v4.8V39c-2.7-5.1-5-9.2-5.6-10.2l-1.4-2.5l-1.5,2.4c-0.6,1-14.9,23.9-14.9,34.4  c0,9.1,7,16.2,16,16.4v3.4v1l0.9,0.5l0,0l17.7,10.1l0,0l0.9,0.5l19.4-11.1v-1v-2.1c1.3,0.2,2.6,0.3,4,0.3c8.3,0,14.9-3.8,14.9-8.7  V36.6C86.8,31.8,80.3,27.9,71.9,27.9z M50.3,90.1V73.7l14.2-8.1v16.3L50.3,90.1z M48.6,70.8l-14.2-8.1l14.2-8.1l14.2,8.1L48.6,70.8z   M57.1,52.9l-1.6,1.6l-3.4-1.9l5-5L57.1,52.9L57.1,52.9z M50.3,33.9l6.8-6.8v5.3l-6.8,6.8V33.9z M50.3,47.5v-3.4l6.8-6.8v5.3  l-6.8,6.8V47.5z M40.1,27.1l6.8,6.8v5.3l-6.8-6.8V27.1z M40.1,37.3l6.8,6.8v3.4v1.9l-6.8-6.8V37.3z M45.1,52.6l-1.7,1  c-0.6-1.5-1.2-3.1-1.9-4.6L45.1,52.6z M16.6,63.2c0-3.9,2.5-10.7,7.1-19.7c2.2-4.2,4.4-8,5.8-10.4c3.2,5.7,8.1,15,10.9,22.2  l-6.5,3.7l-3.8,2.2l-0.9,0.5v1v13.5C22.1,75.9,16.6,70.3,16.6,63.2z M32.6,65.6l14.2,8.1v16.3l-14.2-8.1V65.6z M83.4,72.5  c0,2.5-4.7,5.3-11.4,5.3c-1.4,0-2.8-0.1-4-0.4v-8.5c1.3,0.2,2.6,0.3,4,0.3c4.6,0,8.7-1.2,11.4-3.1V72.5z M83.4,60.5  c0,2.5-4.7,5.3-11.4,5.3c-1.4,0-2.8-0.1-4-0.4v-2.8v-1l-0.9-0.5l0,0l-5.8-3.3l-0.8-0.4v-3.2c2.7,1.9,6.8,3.1,11.4,3.1  c4.6,0,8.7-1.2,11.4-3.1V60.5z M83.4,48.6c0,2.5-4.7,5.3-11.4,5.3s-11.4-2.8-11.4-5.3v-4.5v-0.7v-1.1c2.7,1.9,6.8,3.1,11.4,3.1  c4.6,0,8.7-1.2,11.4-3.1V48.6z M71.9,41.9c-6.7,0-11.4-2.8-11.4-5.3s4.7-5.3,11.4-5.3s11.4,2.8,11.4,5.3S78.7,41.9,71.9,41.9z"></path></svg>