<svg height='100px' width='100px'  fill="#000000" xmlns="http://www.w3.org/2000/svg" xmlns:xlink="http://www.w3.org/1999/xlink" version="1.1" x="0px" y="0px" viewBox="0 0 100 100" style="enable-background:new 0 0 100 100;" xml:space="preserve"><path d="M49.378,34.038c-0.395,0.585-9.673,14.372-9.673,19.863c0,5.791,4.711,10.502,10.502,10.502s10.502-4.711,10.502-10.502  c0-5.491-9.278-19.278-9.673-19.863C50.664,33.489,49.75,33.489,49.378,34.038z M50.207,62.403c-4.688,0-8.502-3.813-8.502-8.502  c0-3.673,5.534-12.933,8.502-17.492c2.968,4.56,8.502,13.817,8.502,17.492C58.709,58.59,54.895,62.403,50.207,62.403z"></path><path d="M53.796,11.455c-0.958-0.959-2.233-1.486-3.589-1.486s-2.63,0.527-3.589,1.486L11.662,46.411  c-0.959,0.959-1.487,2.233-1.487,3.589s0.528,2.63,1.487,3.589l34.956,34.956c0.958,0.959,2.233,1.486,3.589,1.486  s2.63-0.527,3.589-1.486l34.956-34.956c0.959-0.959,1.487-2.233,1.487-3.589s-0.528-2.63-1.487-3.589L53.796,11.455z M87.338,52.175  L52.382,87.131c-1.199,1.199-3.15,1.199-4.35,0L13.076,52.175c-1.199-1.199-1.199-3.15,0-4.35l34.956-34.956  c0.6-0.6,1.387-0.899,2.175-0.899s1.575,0.3,2.175,0.899l34.956,34.956C88.537,49.024,88.537,50.976,87.338,52.175z"></path><path d="M71.452,38.071l-2.154-2.154c-0.391-0.391-1.023-0.391-1.414,0s-0.391,1.023,0,1.414l2.154,2.154  c0.195,0.195,0.451,0.293,0.707,0.293s0.512-0.098,0.707-0.293C71.843,39.095,71.843,38.462,71.452,38.071z"></path><path d="M42.938,73.077c-0.391-0.391-1.023-0.391-1.414,0s-0.391,1.023,0,1.414l2.154,2.154c0.195,0.195,0.451,0.293,0.707,0.293  s0.512-0.098,0.707-0.293c0.391-0.391,0.391-1.023,0-1.414L42.938,73.077z"></path><path d="M54.081,76.472l-2.154,2.154c-0.391,0.391-0.391,1.023,0,1.414c0.195,0.195,0.451,0.293,0.707,0.293  s0.512-0.098,0.707-0.293l2.154-2.154c0.391-0.391,0.391-1.023,0-1.414S54.472,76.081,54.081,76.472z"></path><path d="M61.399,28.018l-2.154-2.154c-0.391-0.391-1.023-0.391-1.414,0s-0.391,1.023,0,1.414l2.154,2.154  c0.195,0.195,0.451,0.293,0.707,0.293s0.512-0.098,0.707-0.293C61.79,29.041,61.79,28.408,61.399,28.018z"></path><path d="M59.108,71.445L56.954,73.6c-0.391,0.391-0.391,1.023,0,1.414c0.195,0.195,0.451,0.293,0.707,0.293s0.512-0.098,0.707-0.293  l2.154-2.154c0.391-0.391,0.391-1.023,0-1.414S59.499,71.055,59.108,71.445z"></path><path d="M69.161,61.392l-2.154,2.154c-0.391,0.391-0.391,1.023,0,1.414c0.195,0.195,0.451,0.293,0.707,0.293  s0.512-0.098,0.707-0.293l2.154-2.154c0.391-0.391,0.391-1.023,0-1.414S69.552,61.001,69.161,61.392z"></path><path d="M66.425,33.045l-2.154-2.154c-0.391-0.391-1.023-0.391-1.414,0s-0.391,1.023,0,1.414l2.154,2.154  c0.195,0.195,0.451,0.293,0.707,0.293s0.512-0.098,0.707-0.293C66.816,34.068,66.816,33.436,66.425,33.045z"></path><path d="M64.134,66.418l-2.154,2.154c-0.391,0.391-0.391,1.023,0,1.414c0.195,0.195,0.451,0.293,0.707,0.293  s0.512-0.098,0.707-0.293l2.154-2.154c0.391-0.391,0.391-1.023,0-1.414S64.525,66.027,64.134,66.418z"></path><path d="M47.965,78.104c-0.391-0.391-1.023-0.391-1.414,0s-0.391,1.023,0,1.414l2.163,2.163c0.194,0.194,0.447,0.291,0.701,0.291  c0.256,0,0.513-0.099,0.709-0.295c0.391-0.391,0.386-1.028-0.004-1.419L47.965,78.104z"></path><path d="M38.09,31.356c0.256,0,0.512-0.098,0.707-0.293l2.154-2.154c0.391-0.391,0.391-1.023,0-1.414s-1.023-0.391-1.414,0  l-2.154,2.154c-0.391,0.391-0.391,1.023,0,1.414C37.579,31.259,37.834,31.356,38.09,31.356z"></path><path d="M20.845,49.017c0.391-0.391,0.391-1.023,0-1.414s-1.023-0.391-1.414,0L18.533,48.5c-0.399,0.402-0.62,0.936-0.62,1.5  c0,0.567,0.221,1.101,0.622,1.502l0.01,0.01c0.194,0.194,0.447,0.291,0.7,0.291c0.256,0,0.513-0.1,0.709-0.296  c0.391-0.391,0.386-1.028-0.005-1.419v-0.176L20.845,49.017z"></path><path d="M22.832,52.97c-0.391-0.391-1.023-0.391-1.414,0s-0.391,1.023,0,1.414l2.154,2.154c0.195,0.195,0.451,0.293,0.707,0.293  s0.512-0.098,0.707-0.293c0.391-0.391,0.391-1.023,0-1.414L22.832,52.97z"></path><path d="M37.912,68.05c-0.391-0.391-1.023-0.391-1.414,0s-0.391,1.023,0,1.414l2.154,2.154c0.195,0.195,0.451,0.293,0.707,0.293  s0.512-0.098,0.707-0.293c0.391-0.391,0.391-1.023,0-1.414L37.912,68.05z"></path><path d="M54.958,24.405c0.195,0.195,0.451,0.293,0.707,0.293s0.512-0.098,0.707-0.293c0.391-0.391,0.391-1.023,0-1.414l-2.154-2.154  c-0.391-0.391-1.023-0.391-1.414,0s-0.391,1.023,0,1.414L54.958,24.405z"></path><path d="M48.144,21.304c0.256,0,0.512-0.098,0.707-0.293l1.269-1.269l0.127-0.031c0.523,0.176,1.09-0.101,1.27-0.623  c0.179-0.522-0.101-1.091-0.623-1.27c-0.747-0.255-1.618-0.059-2.188,0.51l-1.269,1.269c-0.391,0.391-0.391,1.023,0,1.414  C47.632,21.206,47.888,21.304,48.144,21.304z"></path><path d="M43.117,26.33c0.256,0,0.512-0.098,0.707-0.293l2.154-2.154c0.391-0.391,0.391-1.023,0-1.414s-1.023-0.391-1.414,0  l-2.154,2.154c-0.391,0.391-0.391,1.023,0,1.414C42.605,26.232,42.861,26.33,43.117,26.33z"></path><path d="M35.925,32.522c-0.391-0.391-1.023-0.391-1.414,0l-2.154,2.154c-0.391,0.391-0.391,1.023,0,1.414  c0.195,0.195,0.451,0.293,0.707,0.293s0.512-0.098,0.707-0.293l2.154-2.154C36.315,33.546,36.315,32.913,35.925,32.522z"></path><path d="M32.885,63.023c-0.391-0.391-1.023-0.391-1.414,0s-0.391,1.023,0,1.414l2.154,2.154c0.195,0.195,0.451,0.293,0.707,0.293  s0.512-0.098,0.707-0.293c0.391-0.391,0.391-1.023,0-1.414L32.885,63.023z"></path><path d="M30.898,37.549c-0.391-0.391-1.023-0.391-1.414,0l-2.154,2.154c-0.391,0.391-0.391,1.023,0,1.414  c0.195,0.195,0.451,0.293,0.707,0.293s0.512-0.098,0.707-0.293l2.154-2.154C31.289,38.572,31.289,37.939,30.898,37.549z"></path><path d="M27.858,57.997c-0.391-0.391-1.023-0.391-1.414,0s-0.391,1.023,0,1.414l2.154,2.154c0.195,0.195,0.451,0.293,0.707,0.293  s0.512-0.098,0.707-0.293c0.391-0.391,0.391-1.023,0-1.414L27.858,57.997z"></path><path d="M25.872,42.575c-0.391-0.391-1.023-0.391-1.414,0l-2.154,2.154c-0.391,0.391-0.391,1.023,0,1.414  c0.195,0.195,0.451,0.293,0.707,0.293s0.512-0.098,0.707-0.293l2.154-2.154C26.262,43.599,26.262,42.966,25.872,42.575z"></path><path d="M74.188,56.365l-2.154,2.154c-0.391,0.391-0.391,1.023,0,1.414c0.195,0.195,0.451,0.293,0.707,0.293  s0.512-0.098,0.707-0.293l2.154-2.154c0.391-0.391,0.391-1.023,0-1.414S74.579,55.975,74.188,56.365z"></path><path d="M79.214,51.338l-2.154,2.154c-0.391,0.391-0.391,1.023,0,1.414c0.195,0.195,0.451,0.293,0.707,0.293  s0.512-0.098,0.707-0.293l2.154-2.154c0.391-0.391,0.391-1.023,0-1.414S79.605,50.947,79.214,51.338z"></path><path d="M76.479,43.098l-2.154-2.154c-0.391-0.391-1.023-0.391-1.414,0s-0.391,1.023,0,1.414l2.154,2.154  c0.195,0.195,0.451,0.293,0.707,0.293s0.512-0.098,0.707-0.293C76.87,44.121,76.87,43.488,76.479,43.098z"></path><path d="M79.351,45.971c-0.391-0.391-1.023-0.391-1.414,0s-0.391,1.023,0,1.414l2.154,2.154c0.195,0.195,0.451,0.293,0.707,0.293  s0.512-0.098,0.707-0.293c0.391-0.391,0.391-1.023,0-1.414L79.351,45.971z"></path></svg>