<svg height='100px' width='100px'  fill="#000000" xmlns="http://www.w3.org/2000/svg" xmlns:xlink="http://www.w3.org/1999/xlink" version="1.1" x="0px" y="0px" viewBox="0 0 101 101" style="enable-background:new 0 0 101 101;" xml:space="preserve"><path d="M61.559,53.85c-0.041-1.149-0.394-2.347-0.522-2.748c0.984-8.352-0.474-22.603-1.827-24.946  c-0.022-0.038-0.049-0.072-0.08-0.104c-1.6-1.602-5.449-2.469-6.256-2.636l-1.036-0.971l-0.098-0.188  c0.102-0.283,0.171-0.579,0.205-0.885l0.298-2.713l0.162,0.013c0.014,0.001,0.028,0.002,0.042,0.002  c0.118,0,0.232-0.042,0.323-0.118c0.101-0.086,0.164-0.208,0.175-0.341l0.111-1.335c0.763-0.092,1.151-0.411,1.348-0.699  c0.278-0.408,0.292-0.922,0.039-1.446c-0.568-1.176-2.591-2.467-5.829-2.701c-3.357-0.232-5.476,1.126-5.585,2.589  c-0.046,0.619,0.308,1.271,1.165,1.566l-0.107,1.293c-0.022,0.275,0.182,0.517,0.457,0.539l0.094,0.008l-0.276,2.51  c-0.09,0.815,0.08,1.618,0.482,2.315l-0.364,0.697c-0.917,0.306-4.59,1.564-6.219,2.599c-0.089,0.057-0.158,0.141-0.197,0.238  c-1.086,2.758-2.618,11.255-2.618,12.432c0,1.032,3.338,6.448,4.899,8.925c-0.003,0.221-0.007,0.602-0.013,1.088  c-1.291,0.776-3.136,2.047-4.245,3.524c-0.114,0.151-0.148,0.353-0.063,0.522c0.085,0.169,0.242,0.275,0.431,0.275  c0.23,0.045,1.083,0.59,1.736,1.069c0.087,0.064,0.191,0.098,0.296,0.098c0.057,0,0.114-0.01,0.169-0.029  c0.029-0.01,0.324-0.118,0.939-0.371c0.086,0.064,0.19,0.099,0.298,0.099h0.008c0.009,0,0.137-0.003,0.371-0.014  c-0.019,1.703-0.035,3.106-0.035,3.232c0,0.276,0.224,0.5,0.5,0.5c0.186,0,0.37-0.004,0.552-0.01  c0.148,2.359,0.33,5.057,0.548,7.975c0.704,9.422,2.113,19.085,2.282,20.229c-0.041,0.044-0.08,0.09-0.117,0.138  c-0.421,0.547-0.51,1.29-0.267,2.208c0.111,0.417,0.521,0.667,2.283,0.711c0.231,0.006,0.469,0.009,0.708,0.009  c1.14,0,2.308-0.077,2.902-0.348c0.291,0.194,0.864,0.31,2.015,0.339c0.231,0.006,0.469,0.009,0.708,0.009  c1.529,0,3.108-0.139,3.287-0.696c0.187-0.587,0.379-1.427-0.031-2.104c0.035-0.068,0.055-0.146,0.055-0.228  c0-0.03,0.007-3.096,0.56-8.625c0.352-3.523,0.85-12.692,1.172-19.029c0.027-0.002,0.054-0.006,0.081-0.013V86.88  c0,0.276,0.224,0.5,0.5,0.5s0.5-0.224,0.5-0.5v-29.23c0-0.513,0.112-0.951,0.304-1.318c0.234,0.047,0.479,0.074,0.733,0.074  c0.217,0,0.44-0.02,0.668-0.063c0.453-0.087,0.817-0.347,1.052-0.75c0.126-0.216,0.21-0.469,0.261-0.742c0.006,0,0.012,0,0.018,0  c1.463,0,3.038,0.876,3.038,2.8c0,0.236,0.163,0.433,0.382,0.486c0.038,0.009,0.077,0.014,0.118,0.014c0.276,0,0.5-0.224,0.5-0.5  C65.553,55.174,63.551,53.869,61.559,53.85z M59.994,55.359c-0.838,0.162-1.623-0.142-2.184-0.471l-0.054-3.117  c0.809,0.177,1.761,0.293,2.464,0.096c0.294,1.088,0.522,2.584,0.15,3.222C60.28,55.243,60.164,55.327,59.994,55.359z   M42.013,49.036c0.291,0.753,0.724,1.605,1.322,2.127c-2.71,1.267-4.219,1.879-4.771,2.095c-0.408-0.293-0.859-0.594-1.256-0.808  C38.815,50.784,41.27,49.426,42.013,49.036z M45.357,20.648l0.279-2.536l5.611,0.466l-0.295,2.686  c-0.082,0.748-0.45,1.418-1.037,1.889c-0.585,0.471-1.317,0.688-2.067,0.602c-0.748-0.082-1.418-0.45-1.889-1.037  C45.488,22.131,45.274,21.396,45.357,20.648z M45.125,17.066l0.059-0.71l6.869,0.525l-0.063,0.754L45.125,17.066z M42.599,47.601  c0.174-0.141,0.444-0.356,0.819-0.649c0.351-0.273,0.629-0.452,0.814-0.56c0.888,0.72,1.815,1.571,1.913,1.761  c0,0.441-0.421,2.5-1.615,2.5C43.656,50.652,42.904,48.758,42.599,47.601z M54.475,50.753c-0.451-0.024-0.818-0.313-0.801-0.631  c0.018-0.316,0.424-0.559,0.865-0.541c0.238,0.013,0.462,0.101,0.616,0.24c0.073,0.066,0.195,0.206,0.186,0.391  C55.322,50.529,54.925,50.773,54.475,50.753z M43.177,31.76c0.366,0,0.665,0.298,0.665,0.665s-0.298,0.665-0.665,0.665  c-0.367,0-0.665-0.298-0.665-0.665S42.81,31.76,43.177,31.76z M48.804,27.425c0.008,0,0.016,0,0.025-0.001l1.03,4.195  c-0.199,1.22-0.41,2.481-0.611,3.666l-0.943-3.355L48.804,27.425z M55.928,32.425c0,0.367-0.298,0.665-0.665,0.665  c-0.366,0-0.665-0.298-0.665-0.665s0.298-0.665,0.665-0.665C55.629,31.76,55.928,32.058,55.928,32.425z M56.313,48.69  c-0.226,0.224-0.685,0.145-1.004-0.176c-0.166-0.167-0.274-0.378-0.297-0.58c0.276-0.096,0.541-0.261,0.765-0.49  c0.13,0.052,0.255,0.134,0.361,0.241C56.457,48.005,56.537,48.466,56.313,48.69z M51.323,46.25c0.017-0.303,0.378-0.542,0.803-0.542  c0.021,0,0.041,0,0.062,0.001c0.238,0.013,0.462,0.101,0.615,0.24c0.074,0.066,0.196,0.207,0.186,0.392  c-0.018,0.316-0.414,0.552-0.865,0.54c-0.238-0.013-0.462-0.101-0.616-0.24C51.435,46.574,51.313,46.435,51.323,46.25z   M52.752,31.76c0.367,0,0.665,0.298,0.665,0.665s-0.298,0.665-0.665,0.665s-0.665-0.298-0.665-0.665S52.385,31.76,52.752,31.76z   M55.135,46.664c-0.284,0.352-0.733,0.479-0.981,0.278c-0.247-0.2-0.215-0.666,0.07-1.017c0.193-0.238,0.462-0.374,0.692-0.374  c0.109,0,0.209,0.031,0.289,0.096c0.144,0.116,0.166,0.301,0.166,0.399C55.371,46.255,55.285,46.479,55.135,46.664z M51.725,34.663  h1.692v1.028h-1.692V34.663z M53.417,37.72h-1.692v-1.028h1.692V37.72z M53.144,43.697c0.021,0,0.041,0,0.062,0.001  c0.451,0.024,0.818,0.313,0.801,0.631c-0.018,0.317-0.411,0.564-0.865,0.54c-0.238-0.014-0.462-0.101-0.616-0.24  c-0.074-0.066-0.195-0.206-0.186-0.391C52.357,43.936,52.718,43.697,53.144,43.697z M56.109,35.691h-1.692v-1.028h1.692V35.691z   M53.266,30.175l-0.514,0.432l-0.514-0.432v-1.312h1.028V30.175z M42.149,36.691h1.692v1.028h-1.692V36.691z M43.841,35.691h-1.692  v-1.028h1.692V35.691z M51.88,49.079c-0.085-0.052-0.232-0.165-0.258-0.349c-0.026-0.183,0.083-0.332,0.151-0.405  c0.141-0.152,0.356-0.259,0.592-0.292c0.053-0.008,0.106-0.012,0.159-0.012c0.181,0,0.354,0.044,0.491,0.127  c0.085,0.052,0.232,0.165,0.258,0.349c0.026,0.183-0.083,0.332-0.151,0.405c-0.141,0.152-0.356,0.259-0.592,0.292  C52.293,49.229,52.058,49.187,51.88,49.079z M55.777,30.174l-0.515,0.433l-0.514-0.432v-1.312h1.029V30.174z M49.402,26.148  c-0.093,0.131-0.279,0.277-0.637,0.277c-0.393,0-0.542-0.169-0.597-0.313l0.419-0.873L49.402,26.148z M43.691,30.175l-0.514,0.432  l-0.515-0.433v-1.312h1.029V30.175z M47.145,48.152c0-0.172,0-0.585-1.545-1.924c2.609-1.065,4.506-1.546,5.76-1.744  c0.019,0.115,0.052,0.229,0.099,0.338c-0.639,0.219-1.099,0.739-1.133,1.374C50.303,46.6,50.461,47,50.761,47.309  c-0.04,0.32-0.051,0.599-0.05,0.809c-0.782,0.266-2.254,0.803-3.847,1.46C47.062,49.016,47.145,48.474,47.145,48.152z   M50.803,25.045c0,0.442-0.224,2.028-0.538,4.039l-0.478-1.944c0.429-0.284,0.633-0.717,0.687-0.995  c0.03-0.154-0.014-0.312-0.118-0.43l-1.015-1.132c0.429-0.141,0.835-0.359,1.198-0.65c0.092-0.074,0.179-0.151,0.263-0.232V25.045z   M47.193,25.832c-0.039,0.081-0.055,0.17-0.047,0.259c0.026,0.308,0.207,0.799,0.679,1.091l-0.241,2.183l-1.454-5.174  c0.474,0.297,1.013,0.487,1.585,0.554L47.193,25.832z M44.649,51.649c0.555-0.03,0.999-0.271,1.351-0.618  c1.872-0.822,3.723-1.506,4.712-1.854c0.119,0.307,0.346,0.574,0.651,0.758c0.295,0.178,0.644,0.271,1.005,0.271  c0.1,0,0.201-0.007,0.302-0.021c0.001,0,0.002,0,0.004-0.001c0.005,0.158,0.036,0.311,0.092,0.456  c-4.488,1.436-8.451,2.007-10.758,2.233C42.749,52.539,43.626,52.134,44.649,51.649z M54.728,86.676  c0.163,0.223,0.169,0.584,0.017,1.129c-0.787,0.205-3.73,0.279-4.455,0.054c-0.113-0.521-0.069-0.918,0.132-1.18  c0.285-0.371,0.955-0.567,1.937-0.567C53.976,86.111,54.54,86.418,54.728,86.676z M44.664,87.858  c-0.113-0.521-0.069-0.918,0.132-1.18c0.285-0.371,0.955-0.567,1.937-0.567c1.617,0,2.181,0.307,2.369,0.564  c0.163,0.223,0.169,0.584,0.017,1.129C48.333,88.01,45.39,88.084,44.664,87.858z M49.764,85.913c-0.02-0.021-0.04-0.041-0.061-0.06  l0.106-4.571l0.204,4.411C49.923,85.76,49.84,85.834,49.764,85.913z M55.229,77.245c-0.427,4.275-0.531,7.099-0.557,8.203  c-0.555-0.228-1.316-0.336-2.313-0.336c-0.522,0-0.976,0.048-1.365,0.144l-0.817-17.68c-0.003-0.064-0.019-0.126-0.043-0.182  l0.21-8.987c0.006-0.276-0.212-0.505-0.488-0.512c-0.3-0.024-0.505,0.212-0.512,0.488l-0.629,26.95  c-0.515-0.149-1.17-0.222-1.981-0.222c-0.673,0-1.233,0.079-1.687,0.239c-0.326-2.248-1.565-11.089-2.21-19.723  c-0.218-2.917-0.4-5.613-0.548-7.97c3.467-0.357,5.909-1.824,6.89-2.516c1.044,0.751,3.736,2.467,7.224,3.05  C56.082,64.506,55.582,73.724,55.229,77.245z"></path></svg>