<svg height='100px' width='100px'  fill="#000000" xmlns:x="http://ns.adobe.com/Extensibility/1.0/" xmlns:i="http://ns.adobe.com/AdobeIllustrator/10.0/" xmlns:graph="http://ns.adobe.com/Graphs/1.0/" xmlns="http://www.w3.org/2000/svg" xmlns:xlink="http://www.w3.org/1999/xlink" version="1.1" x="0px" y="0px" viewBox="0 0 100 100" style="enable-background:new 0 0 100 100;" xml:space="preserve"><g><g i:extraneous="self"><g><path d="M5273.1,2400.1v-2c0-2.8-5-4-9.7-4s-9.7,1.3-9.7,4v2c0,1.8,0.7,3.6,2,4.9l5,4.9c0.3,0.3,0.4,0.6,0.4,1v6.4     c0,0.4,0.2,0.7,0.6,0.8l2.9,0.9c0.5,0.1,1-0.2,1-0.8v-7.2c0-0.4,0.2-0.7,0.4-1l5.1-5C5272.4,2403.7,5273.1,2401.9,5273.1,2400.1z      M5263.4,2400c-4.8,0-7.4-1.3-7.5-1.8v0c0.1-0.5,2.7-1.8,7.5-1.8c4.8,0,7.3,1.3,7.5,1.8C5270.7,2398.7,5268.2,2400,5263.4,2400z"></path><path d="M5268.4,2410.3c-0.6,0-1,0.4-1,1c0,0.6,0.4,1,1,1h4.3c0.6,0,1-0.4,1-1c0-0.6-0.4-1-1-1H5268.4z"></path><path d="M5272.7,2413.7h-4.3c-0.6,0-1,0.4-1,1c0,0.6,0.4,1,1,1h4.3c0.6,0,1-0.4,1-1C5273.7,2414.1,5273.3,2413.7,5272.7,2413.7z"></path><path d="M5272.7,2417h-4.3c-0.6,0-1,0.4-1,1c0,0.6,0.4,1,1,1h4.3c0.6,0,1-0.4,1-1C5273.7,2417.5,5273.3,2417,5272.7,2417z"></path></g><g><path d="M76.8,70h-7.8c-0.3,0-0.5,0.2-0.5,0.5v3.7c0,0.3,0.2,0.5,0.5,0.5h7.8c0.3,0,0.5-0.2,0.5-0.5v-3.7     C77.3,70.2,77.1,70,76.8,70z"></path><path d="M86.9,70h-7.8c-0.3,0-0.5,0.2-0.5,0.5v3.7c0,0.3,0.2,0.5,0.5,0.5h7.8c0.3,0,0.5-0.2,0.5-0.5v-3.7     C87.4,70.2,87.2,70,86.9,70z"></path><path d="M74.1,64c-0.3,0-0.5,0.2-0.5,0.5v3.7c0,0.3,0.2,0.5,0.5,0.5h7.8c0.3,0,0.5-0.2,0.5-0.5v-3.7c0-0.3-0.2-0.5-0.5-0.5H74.1z     "></path><path d="M83.7,64.5v3.7c0,0.3,0.2,0.5,0.5,0.5H92c0.3,0,0.5-0.2,0.5-0.5v-3.7c0-0.3-0.2-0.5-0.5-0.5h-7.8     C83.9,64,83.7,64.2,83.7,64.5z"></path><path d="M79.1,62.7h7.8c0.3,0,0.5-0.2,0.5-0.5v-3.7c0-0.3-0.2-0.5-0.5-0.5h-7.8c-0.3,0-0.5,0.2-0.5,0.5v3.7     C78.6,62.4,78.9,62.7,79.1,62.7z"></path><path d="M97,70h-7.8c-0.3,0-0.5,0.2-0.5,0.5v3.7c0,0.3,0.2,0.5,0.5,0.5H97c0.3,0,0.5-0.2,0.5-0.5v-3.7C97.5,70.2,97.3,70,97,70z"></path><path d="M97,58h-7.8c-0.3,0-0.5,0.2-0.5,0.5v3.7c0,0.3,0.2,0.5,0.5,0.5H97c0.3,0,0.5-0.2,0.5-0.5v-3.7C97.5,58.2,97.3,58,97,58z"></path><path d="M69,60.5l6.5-4.2c0.2-0.2,0.3-0.5,0.2-0.7l-2-3.1c-0.2-0.2-0.5-0.3-0.7-0.1l-3.9,2.5c0.7,0.8,0.8,2,0.3,3     c-0.4,0.7-1,1.3-1.8,1.5l0.6,1C68.4,60.5,68.7,60.6,69,60.5z"></path><path d="M97,64h-2.7c-0.3,0-0.5,0.2-0.5,0.5v3.7c0,0.3,0.2,0.5,0.5,0.5H97c0.3,0,0.5-0.2,0.5-0.5v-3.7C97.5,64.2,97.3,64,97,64z"></path><path d="M69.1,64c-0.3,0-0.5,0.2-0.5,0.5v3.7c0,0.3,0.2,0.5,0.5,0.5h2.7c0.3,0,0.5-0.2,0.5-0.5v-3.7c0-0.3-0.2-0.5-0.5-0.5H69.1z     "></path><path d="M84.2,56.7H92c0.3,0,0.5-0.2,0.5-0.5v-3.7c0-0.3-0.2-0.5-0.5-0.5h-7.8c-0.3,0-0.5,0.2-0.5,0.5v3.7     C83.7,56.5,83.9,56.7,84.2,56.7z"></path><path d="M97,52h-2.7c-0.3,0-0.5,0.2-0.5,0.5v3.7c0,0.3,0.2,0.5,0.5,0.5H97c0.3,0,0.5-0.2,0.5-0.5v-3.7C97.5,52.2,97.3,52,97,52z"></path><path d="M67.5,55.2c0,0-1.5-0.7-2.5-1.9c-0.3-0.3-0.6-0.8-0.9-1.3c-0.7-1.2-1.4-2.2-2.3-2.6c-0.8-0.4-2.3-0.9-2.3-0.9     c-1.5-0.6-2.4,0-3.1,0.6c-1.3,1.1-2.9,4.6-3.7,6.7c-0.8,2.1-0.5,5-0.2,7.1c0.1,0.8,0.2,1.8,0.2,2c-0.3,0.9-1.2,3-1.9,4.7     l-1.4-0.1c-0.2,0-0.5-0.1-0.7-0.1c0.1-0.2,0.2-0.5,0.2-0.8c0-0.4-0.2-0.7-0.5-1l-1-0.9c-0.5-0.4-1.2-0.5-1.7-0.1l-0.7-1     c0.3-0.2,0.5-0.4,0.6-0.7c0.1-0.4,0.1-0.8-0.1-1.1l-0.6-1.2c-0.2-0.3-0.5-0.6-0.8-0.7c-0.3-0.1-0.6-0.1-0.9,0l-0.6-1.3     c0.2-0.1,0.5-0.3,0.6-0.5c0.2-0.3,0.3-0.7,0.2-1.1L43,57.5c-0.1-0.7-0.8-1.1-1.5-1.1l-0.3-1.6c0.6-0.3,1-0.9,0.9-1.6l-0.3-1.4     c-0.1-0.6-0.6-1-1.1-1.1c0-0.4,0.1-0.8,0.1-1.1l0-0.3c0.1,0,0.1,0,0.2,0c1.2,0.1,2.2-0.7,2.3-1.9c0.1-1.2-0.7-2.2-1.9-2.3     c-0.7-0.1-2.8-0.6-3.6-1.7c-0.2-0.2-0.4-0.8-0.7-1.3c-1.1-2.3-2.7-5.8-6.1-5.8h-0.2l-1.6,4.3l-0.6-2.8h0.1c0.2,0,0.4-0.2,0.4-0.4     v-0.8c0-0.2-0.2-0.4-0.4-0.4h-1c-0.2,0-0.4,0.2-0.4,0.4v0.8c0,0.2,0.2,0.4,0.4,0.4h0.1l-0.6,2.8l-1.6-4.3h-0.2     c-3.7,0-5.2,4-6,6.2c-0.1,0.3-0.2,0.6-0.3,0.8c-0.8,1.9-1.8,7-1.9,7.6c-0.2,1.2,0.5,2.3,1.7,2.5c0.1,0,0.3,0,0.4,0     c1,0,1.9-0.7,2.1-1.7c0.4-2,1.2-5.6,1.7-6.8c0.1-0.2,0.2-0.6,0.3-0.9l0.2,8.3L21.2,72c-0.2,1.4,0.8,2.6,2.2,2.8     c1.4,0.2,2.6-0.8,2.8-2.2l2.1-17.9l2.1,17.9c0.2,1.3,1.2,2.2,2.5,2.2c0.1,0,0.2,0,0.3,0c1.4-0.2,2.3-1.4,2.2-2.8L33,52.3l0.2-8.7     c0,0.1,0.1,0.2,0.1,0.3c0.3,0.7,0.7,1.4,1,1.9c1.4,2.1,3.9,3,5.4,3.3l-0.1,0.3c-0.1,0.5-0.1,1-0.1,1.4l0,0     c-0.4,0.1-0.7,0.3-0.9,0.6c-0.2,0.3-0.3,0.7-0.2,1.1l0.3,1.4v0c0.1,0.7,0.7,1.1,1.4,1.1l0.3,1.6c-0.6,0.3-0.9,0.9-0.8,1.6     l0.3,1.4c0.1,0.4,0.3,0.7,0.6,0.9c0.2,0.2,0.5,0.2,0.8,0.2c0,0,0,0,0.1,0l0.8,1.6c-0.2,0.2-0.4,0.4-0.4,0.6     c-0.1,0.4-0.1,0.8,0.1,1.1l0.6,1.3c0.2,0.3,0.5,0.6,0.8,0.7c0.1,0,0.3,0.1,0.4,0.1c0.1,0,0.2,0,0.3,0l1,1.4     c-0.2,0.3-0.3,0.6-0.3,0.9c0,0.4,0.2,0.7,0.5,1l1,0.9c0.3,0.2,0.6,0.4,1,0.4c0.3,0,0.6-0.1,0.8-0.3c0.5,0.2,0.9,0.3,1.5,0.4     l1.1,0.1c-0.3,0.8-0.5,1.3-0.5,1.3c-0.4,0.9,0,2,1,2.4c0.2,0.1,0.5,0.1,0.7,0.1c0.7,0,1.4-0.4,1.7-1.1c0.1-0.2,2.3-5.5,3-7.3     c0.3-0.9,0.2-1.9,0.1-3.2c0.9,1.1,1.8,2.5,2.2,3.2c0.1,0.8-0.1,3.9-0.4,6.3c-0.1,1,0.6,2,1.6,2.1c0.1,0,0.2,0,0.2,0     c0.9,0,1.7-0.7,1.8-1.6c0.8-6.7,0.3-7.8,0.2-8.2c-0.2-0.5-1.5-2.8-3.2-4.8c0.6-1.8,1.6-4.6,2.8-6.4c0.3,0.5,0.7,1.1,1.1,1.5     C64,57,66.1,58,66.2,58c0.2,0.1,0.4,0.1,0.7,0.1c0.6,0,1.1-0.3,1.4-0.9C68.6,56.5,68.3,55.6,67.5,55.2z M40.1,53.9     c-0.1,0-0.3-0.1-0.3-0.2l-0.3-1.4c0-0.1,0.1-0.3,0.2-0.3l0.6-0.1c0.1,0,0.3,0.1,0.3,0.2l0.3,1.4c0,0.1-0.1,0.3-0.2,0.3L40.1,53.9     z M42,59.5l-0.6,0.1c-0.1,0-0.3-0.1-0.3-0.2L40.7,58c0-0.1,0.1-0.3,0.2-0.3l0.6-0.1c0,0,0,0,0,0c0.1,0,0.2,0.1,0.2,0.2l0.3,1.4     C42.2,59.3,42.1,59.4,42,59.5z M44.4,64.6l-0.6,0.3c-0.1,0.1-0.3,0-0.3-0.1l-0.6-1.3c-0.1-0.1,0-0.3,0.1-0.3l0.6-0.3     c0,0,0.1,0,0.1,0c0.1,0,0.2,0.1,0.2,0.1l0.6,1.2C44.5,64.4,44.5,64.6,44.4,64.6z M47.3,69.4c-0.1,0.1-0.2,0.1-0.3,0l-1-0.9     c-0.1-0.1-0.1-0.3,0-0.3l0.4-0.5c0.1-0.1,0.2-0.1,0.3,0l1,0.9c0.1,0.1,0.1,0.3,0,0.3L47.3,69.4z"></path><ellipse transform="matrix(0.3805 -0.9248 0.9248 0.3805 -2.1737 85.4308)" cx="62.7" cy="44.3" rx="3.9" ry="3.9"></ellipse><circle cx="28.2" cy="30.2" r="5"></circle><path d="M12.9,59.6c0.7-1.4,1.5-3.2,1.5-3.9c0-0.9-1.1-1.3-1.7-0.4c-0.8,1.2-1.2-0.5-2.2-0.5c-1,0-1.5,1.6-2.2,0.5     c-0.7-1-1.9-0.4-1.9,0.4c0,0.9,0.7,2.6,1.4,3.9c-2.4,1.9-5.3,5.3-5.3,8.4c0,4.6,3.5,6.7,7.8,6.7c4.3,0,7.8-2.2,7.8-6.7     C18.2,64.9,15.2,61.4,12.9,59.6z M10.9,70.8v0.9c0,0.1-0.1,0.2-0.2,0.2H9.9c-0.1,0-0.2-0.1-0.2-0.2v-0.8     c-0.8-0.1-1.5-0.7-1.6-1.6c0-0.1,0.1-0.2,0.2-0.2h0.8c0.1,0,0.1,0,0.2,0.1c0.1,0.3,0.3,0.5,0.6,0.5h0.7c0.4,0,0.8-0.3,0.9-0.7     c0.1-0.5-0.3-0.9-0.8-0.9h-0.5c-1,0-2-0.8-2.1-1.8c-0.1-1.1,0.7-2,1.7-2.2v-0.8c0-0.1,0.1-0.2,0.2-0.2h0.8c0.1,0,0.2,0.1,0.2,0.2     V64c0.8,0.1,1.5,0.7,1.6,1.6c0,0.1-0.1,0.2-0.2,0.2h-0.8c-0.1,0-0.1,0-0.2-0.1c-0.1-0.3-0.3-0.5-0.6-0.5h-0.7     c-0.4,0-0.8,0.3-0.9,0.7c-0.1,0.5,0.3,0.9,0.8,0.9h0.6c1.2,0,2.1,1,2,2.2C12.6,69.9,11.8,70.6,10.9,70.8z"></path></g></g></g></svg>