<svg height='100px' width='100px'  fill="#000000" xmlns="http://www.w3.org/2000/svg" data-name="Слой 1" viewBox="0 0 128 128" x="0px" y="0px"><title>ic_world_research</title><path d="M44,82a2,2,0,0,0-2-2c-6.21,0-11.79-7.1-15-17.59a37.93,37.93,0,0,1,12.1-3,2,2,0,0,0-.3-4,42.09,42.09,0,0,0-12.86,3.09A71.41,71.41,0,0,1,24.1,44H40V54a2,2,0,0,0,4,0V44a2,2,0,0,0,0-4V27a40.63,40.63,0,0,0,13.71-3.12c0,.21.12.42.17.64a2,2,0,1,0,3.88-1c-.12-.49-.26-1-.4-1.44A40.08,40.08,0,0,0,69.83,16a2,2,0,0,0,2.36-3.16A42,42,0,0,0,0,42,42,42,0,0,0,42,84,2,2,0,0,0,44,82ZM22.19,60.28a41.88,41.88,0,0,0-9,6.48A37.69,37.69,0,0,1,4.05,44H20.1A75.78,75.78,0,0,0,22.19,60.28ZM24.1,40a71,71,0,0,1,2.18-16.1A40.46,40.46,0,0,0,40,27V40ZM66.85,13.27a36,36,0,0,1-6.69,5A37.32,37.32,0,0,0,53.08,5.63,37.56,37.56,0,0,1,66.85,13.27Zm-10.3,6.78A36.66,36.66,0,0,1,44,23V4.27C49,5.52,53.57,11.34,56.55,20.05ZM40,4.26V23a36.61,36.61,0,0,1-12.55-3,44.8,44.8,0,0,1,2.25-5.44C32.6,8.78,36.2,5.2,40,4.26ZM26.12,12.82a47.65,47.65,0,0,0-2.28,5.42,35.92,35.92,0,0,1-6.68-5,38,38,0,0,1,13.7-7.61A32.17,32.17,0,0,0,26.12,12.82ZM14.27,16.06a40.85,40.85,0,0,0,8.35,6.08A74.51,74.51,0,0,0,20.1,40h-16A37.82,37.82,0,0,1,14.27,16.06ZM16,69.65a37.74,37.74,0,0,1,7.35-5.43,38.75,38.75,0,0,0,7.56,14.13A37.75,37.75,0,0,1,16,69.65Z"></path><path d="M117.59,109.55C124.49,97.74,128,85.46,128,73c0-13.47-7.55-28.37-19.72-39a1.53,1.53,0,0,0-.26-.31l-3.09-3.1,9.27-9.28,1.14,1.14a2,2,0,0,0,2.82,0,2,2,0,0,0,0-2.83L115.62,17,101.71,3.13,99.16.59a2,2,0,0,0-2.83,2.82l1.14,1.14-9.28,9.27-3.1-3.1a2,2,0,0,0-2.82,0L48.4,44.59a2,2,0,0,0,0,2.83L53,52,38.25,66.74a2,2,0,0,0,0,2.83L49.18,80.5a2,2,0,0,0,1.42.59A2,2,0,0,0,52,80.5L66.75,65.77l4.58,4.58a2,2,0,0,0,1.41.59,2,2,0,0,0,1.42-.59l20-20A33.7,33.7,0,0,1,102,73c0,11.53-8.92,23.77-16.78,31H43v-4H65a2,2,0,0,0,2-2V90a2,2,0,0,0-2-2H17a2,2,0,0,0-2,2v8a2,2,0,0,0,2,2H39v4H17a2,2,0,0,0-2,2v20a2,2,0,0,0,2,2H123a2,2,0,0,0,2-2A22,22,0,0,0,117.59,109.55ZM19,92H63v4H19ZM91,16.65l9.27-9.27,11.08,11.08-9.27,9.27-1.89-1.89ZM63.92,62.94,50.6,76.26l-8.11-8.11L55.81,54.83l1.59,1.59Zm8.82,3.17L52.64,46l31-31,20.1,20.1ZM97.07,47.67l9.59-9.79a55.13,55.13,0,0,1,15.7,24.41,13,13,0,0,0-17.16,2.19A37.86,37.86,0,0,0,97.07,47.67ZM124,73a9,9,0,1,1-9-9A9,9,0,0,1,124,73Zm-19.16,8.09a13,13,0,0,0,18.33,2,70.9,70.9,0,0,1-8.82,24.06A21.9,21.9,0,0,0,103,104H90.94C96.89,97.81,102.5,89.65,104.84,81.09ZM19,124V108h84a18,18,0,0,1,17.89,16Z"></path></svg>