<svg height='100px' width='100px'  fill="#000000" xmlns="http://www.w3.org/2000/svg" xmlns:xlink="http://www.w3.org/1999/xlink" version="1.1" x="0px" y="0px" viewBox="0 0 100 100" enable-background="new 0 0 100 100" xml:space="preserve"><g><path d="M14.646,135.853v-3.418l-2.555-4.666h1.188L14.417,130c0.312,0.623,0.552,1.115,0.804,1.667h0.024   c0.216-0.528,0.504-1.056,0.816-1.667l1.163-2.231h1.175l-2.698,4.642v3.442H14.646z"></path><path d="M23.643,132.95c0,2.146-1.571,3.034-2.914,3.034c-1.523,0-2.759-1.14-2.759-3.01c0-1.943,1.319-3.047,2.891-3.047   C22.48,129.928,23.643,131.091,23.643,132.95z M19.038,132.975c0,1.163,0.588,2.219,1.763,2.219c1.151,0,1.775-1.056,1.775-2.231   c0-1.007-0.468-2.255-1.775-2.255C19.505,130.707,19.038,131.942,19.038,132.975z"></path><path d="M24.834,134.773c0.312,0.203,0.864,0.42,1.392,0.42c0.768,0,1.127-0.384,1.127-0.864c0-0.504-0.3-0.768-1.079-1.055   c-1.043-0.384-1.535-0.96-1.535-1.655c0-0.924,0.755-1.691,2.003-1.691c0.587,0,1.104,0.156,1.427,0.348l-0.264,0.768   c-0.228-0.132-0.647-0.348-1.199-0.348c-0.612,0-0.959,0.372-0.959,0.804c0,0.479,0.336,0.695,1.104,0.995   c0.996,0.372,1.523,0.863,1.523,1.739c0,1.02-0.792,1.751-2.171,1.751c-0.635,0-1.223-0.168-1.631-0.407L24.834,134.773z"></path><path d="M30.318,133.142c0.024,1.428,0.923,2.016,1.991,2.016c0.755,0,1.223-0.132,1.607-0.3l0.18,0.755   c-0.36,0.168-1.007,0.372-1.931,0.372c-1.787,0-2.854-1.188-2.854-2.927c0-1.763,1.032-3.13,2.735-3.13   c1.883,0,2.387,1.655,2.387,2.723c0,0.216-0.024,0.384-0.048,0.491H30.318z M33.413,132.387c0.012-0.66-0.276-1.703-1.463-1.703   c-1.067,0-1.535,0.972-1.619,1.703H33.413z"></path><path d="M35.85,135.853v-5.001h-0.815v-0.792h0.815v-0.288c0-0.815,0.18-1.559,0.672-2.026c0.396-0.384,0.923-0.54,1.403-0.54   c0.384,0,0.732,0.084,0.912,0.18l-0.18,0.804c-0.168-0.071-0.36-0.144-0.648-0.144c-0.887,0-1.115,0.791-1.115,1.691v0.323h1.403   v0.792h-1.403v5.001H35.85z"></path><path d="M41.826,127.877c0.468-0.096,1.199-0.168,1.919-0.168c1.044,0,1.715,0.18,2.207,0.588c0.432,0.312,0.684,0.791,0.684,1.427   c0,0.78-0.528,1.476-1.367,1.775v0.023c0.768,0.192,1.667,0.816,1.667,2.039c0,0.684-0.264,1.212-0.695,1.607   c-0.552,0.516-1.464,0.756-2.783,0.756c-0.732,0-1.271-0.048-1.631-0.097V127.877z M42.881,131.199h0.947   c1.092,0,1.751-0.588,1.751-1.367c0-0.947-0.72-1.319-1.775-1.319c-0.479,0-0.755,0.036-0.923,0.072V131.199z M42.881,135.061   c0.216,0.036,0.492,0.049,0.875,0.049c1.08,0,2.087-0.396,2.087-1.56c0-1.115-0.959-1.571-2.099-1.571h-0.863V135.061z"></path><path d="M48.941,133.142c0.024,1.428,0.924,2.016,1.991,2.016c0.755,0,1.223-0.132,1.607-0.3l0.18,0.755   c-0.36,0.168-1.008,0.372-1.93,0.372c-1.787,0-2.854-1.188-2.854-2.927c0-1.763,1.031-3.13,2.734-3.13   c1.882,0,2.386,1.655,2.386,2.723c0,0.216-0.024,0.384-0.048,0.491H48.941z M52.035,132.387c0.012-0.66-0.276-1.703-1.462-1.703   c-1.067,0-1.535,0.972-1.619,1.703H52.035z"></path><path d="M54.366,131.858c0-0.684-0.024-1.259-0.049-1.799h0.924l0.036,1.14h0.036c0.275-0.779,0.923-1.271,1.619-1.271   c0.12,0,0.203,0,0.287,0.024v0.995c-0.096-0.024-0.203-0.036-0.348-0.036c-0.755,0-1.271,0.563-1.415,1.355   c-0.036,0.144-0.048,0.323-0.048,0.479v3.106h-1.043V131.858z"></path><path d="M62.308,135.637c-0.276,0.144-0.888,0.348-1.668,0.348c-1.751,0-2.89-1.188-2.89-2.962c0-1.787,1.223-3.095,3.118-3.095   c0.611,0,1.175,0.156,1.463,0.3l-0.24,0.815c-0.251-0.144-0.647-0.275-1.223-0.275c-1.331,0-2.051,0.995-2.051,2.194   c0,1.344,0.863,2.171,2.026,2.171c0.588,0,0.983-0.156,1.283-0.288L62.308,135.637z"></path><path d="M68.739,132.95c0,2.146-1.571,3.034-2.915,3.034c-1.522,0-2.758-1.14-2.758-3.01c0-1.943,1.319-3.047,2.89-3.047   C67.575,129.928,68.739,131.091,68.739,132.95z M64.134,132.975c0,1.163,0.588,2.219,1.763,2.219c1.151,0,1.775-1.056,1.775-2.231   c0-1.007-0.468-2.255-1.775-2.255C64.602,130.707,64.134,131.942,64.134,132.975z"></path><path d="M70.397,130.06l1.14,3.25c0.191,0.528,0.348,1.008,0.468,1.5h0.036c0.132-0.48,0.3-0.972,0.479-1.5l1.14-3.25h1.103   l-2.278,5.793h-1.008l-2.206-5.793H70.397z"></path><path d="M76.948,128.417c0,0.359-0.264,0.647-0.671,0.647c-0.384,0-0.648-0.288-0.636-0.647c-0.013-0.36,0.264-0.66,0.647-0.66   S76.937,128.045,76.948,128.417z M75.762,135.853v-5.793h1.043v5.793H75.762z"></path><path d="M82.707,135.637c-0.276,0.144-0.888,0.348-1.668,0.348c-1.751,0-2.89-1.188-2.89-2.962c0-1.787,1.223-3.095,3.118-3.095   c0.611,0,1.175,0.156,1.463,0.3l-0.239,0.815c-0.252-0.144-0.648-0.275-1.224-0.275c-1.331,0-2.051,0.995-2.051,2.194   c0,1.344,0.863,2.171,2.026,2.171c0.588,0,0.983-0.156,1.283-0.288L82.707,135.637z"></path><path d="M83.945,127.337h1.043v3.622h0.024c0.18-0.3,0.443-0.563,0.768-0.743c0.312-0.18,0.684-0.288,1.079-0.288   c0.779,0,2.015,0.468,2.015,2.471v3.454h-1.043v-3.334c0-0.947-0.348-1.728-1.344-1.728c-0.695,0-1.224,0.492-1.415,1.044   c-0.06,0.168-0.084,0.323-0.084,0.516v3.502h-1.043V127.337z"></path></g><g><path d="M33.043,27.086c0,1.261,3.253,4.584,3.609,4.584c0.358,0,3.613-3.323,3.613-4.584l0.213-1.612c0,0,1.272-4.931-3.813-4.931   c-5.087,0-3.836,4.931-3.836,4.931L33.043,27.086z"></path><path d="M77.589,65.342c-0.369,0-0.711,0.025-1.018,0.084l-0.351-1.035l-1.599-3.626v0.002l-0.001-0.002   c-0.447-0.446-7.022-1.899-7.022-1.899l-4.088-2.487l-0.112-0.517c0.228-0.191,0.446-0.401,0.644-0.655   c3.084-3.95,0.55-11.296-4.023-14.795l-0.644-2.946h0.001l-0.526-6.113h-0.001h-0.005l0.006-0.845   c-0.099-2.227-1.911-4.007-4.152-4.007c-1.049,0-1.994,0.4-2.723,1.043c-0.516,0.454-0.911,1.032-1.154,1.691   c-0.148,0.401-0.254,0.824-0.273,1.273v0.001v0.844h-0.002l-0.525,6.112c0,0,0-0.001,0-0.002v0.003l-0.067,0.665   c-1.15,0.032-2.151,0.209-2.835,0.67c-0.483-2.972-7.309-8.164-7.309-8.164l-3.153,3.088l-0.001,0l0.001,0L33.5,30.634   c0,0-6.467,4.911-7.275,7.915c-0.054,0.2-0.083,0.392-0.083,0.574v9.694v0.001v3.97v3.105c-0.303-0.021-0.615-0.032-0.939-0.032   c-2.322,0-4.204,0.444-4.204,2.53v9.664v3.58v3.776h8.407v-3.776v-1.27h2.043l0.755,10.177h2.581l0.224-10.177h3.285l0.225,8.589   h2.361l0.976-8.589h4.724l-0.393,3.639l4.026,1.407l-0.214,4.442h2.496l0.492-4.442h6.463l0.492,3.438h1.79l0.492-3.438h3.309   L64.15,60.883l2.96,3.347c-0.056,3.66,0.087,7.784,0.087,7.784l0.862-0.062l0.422,5.626h1.437l0.413-5.785l1.865-0.131l0.407,7.682   h1.436l0.399-7.841l0.916-0.063v0.387v1.905v2.01h4.471v-2.01v-1.905v-5.14C79.825,65.577,78.825,65.342,77.589,65.342z    M47.163,64.985V54.752l1.189-0.773L47.163,64.985z"></path><path d="M66.271,55.604c0.419,1.972,6.36,3.447,6.36,3.447s1.223-2.997,0.803-4.969c-0.419-1.972-2.362-3.229-4.34-2.809   C67.117,51.695,65.853,53.635,66.271,55.604z"></path></g></svg>