<svg height='100px' width='100px'  fill="#000000" xmlns="http://www.w3.org/2000/svg" viewBox="0 0 512 512" x="0px" y="0px"><g><circle cx="128" cy="200" r="16"></circle><path d="M24,496H232a40.045,40.045,0,0,0,40-40V432a32.049,32.049,0,0,0-19.7-29.539l3.62-25.329A8,8,0,0,0,248,368h-1.052l7.708-11.562A8,8,0,0,0,248,344H160a8,8,0,0,0-7.589,10.53L156.9,368H152a8,8,0,0,0-7.919,6.868l-5.956,41.665q-1.322-2.031-2.747-4.006L120,351.015V304h16a32.036,32.036,0,0,0,32-32V240h16a8,8,0,0,0,7.822-9.676l-11.26-52.552a83.05,83.05,0,0,0-7.039-19.993A7.971,7.971,0,0,0,176,152V128h16v24a8,8,0,0,0,13.657,5.657L235.314,128H240a32.036,32.036,0,0,0,32-32V48a32.036,32.036,0,0,0-32-32H112A32.036,32.036,0,0,0,80,48V73.5L70,106.84l-1.28.142L30.86,43.884A8,8,0,0,0,16,48V152a7.987,7.987,0,0,0,3.919,6.872A79.092,79.092,0,0,0,16,183.63V488A8,8,0,0,0,24,496Zm80-352V126.987A31.94,31.94,0,0,0,112,128h16v16ZM88,120.938V144H64V123.605ZM90.791,160h49.5a18.175,18.175,0,0,1-15.511,5.168l-4.1-.578a35.574,35.574,0,0,0-38.3,22.364A26.183,26.183,0,0,0,70.47,184.4,79.471,79.471,0,0,1,90.791,160ZM37.032,304.252c3.5-6.635,7.128-13.5,10.25-20.509,6.614-14.859,8.108-30.891,9.553-46.4.138-1.476.283-2.934.424-4.4l15.227,11.416a101.622,101.622,0,0,1,.574,10.865c0,14.553-2.954,30.3-8.782,46.8-.018.049-.037.1-.054.149h0c-2.1,5.913-4.567,11.9-7.32,17.782-.024.051-.047.1-.07.154A206.622,206.622,0,0,1,43.728,344H32V313.91C33.637,310.686,35.356,307.424,37.032,304.252Zm78.025,92.96A211.772,211.772,0,0,1,79.285,360h26.469ZM32,396.609c1.793,3.887,3.75,7.922,5.894,12.066,11.3,21.836,29.5,49.878,56.088,71.325H32ZM136,480H122.13c-53.526-30.819-79.2-95.278-87.363-120H59.621c7.143,10.772,29.307,41.362,62.8,61.956A81.563,81.563,0,0,1,137.235,480Zm105.505-1.974,2-14.026h11.121A24.125,24.125,0,0,1,241.505,478.026ZM256,448H201.444l5.333-32H240a16.019,16.019,0,0,1,16,16Zm-97.062-64H168a8,8,0,0,0,7.589-10.53L171.1,360h61.952l-7.708,11.562A8,8,0,0,0,232,384h6.775l-2.287,16H200a8,8,0,0,0-7.891,6.685l-8,48A8,8,0,0,0,192,464h35.346l-2.284,16H153.335a97.575,97.575,0,0,0-2.948-36.178ZM160,224a8,8,0,0,0-8,8v8h-4.687a19.187,19.187,0,0,1-13.656-5.657l-11.314,11.314A35.082,35.082,0,0,0,147.313,256H152v16a16.019,16.019,0,0,1-16,16H112a8,8,0,0,0-8,8v48H62.44c2.663-4.638,5.746-10.394,8.87-17.071.063-.128.123-.257.179-.388,2.9-6.221,5.506-12.548,7.741-18.812.028-.073.056-.146.082-.219,6.468-18.273,9.748-35.863,9.748-52.28a115.739,115.739,0,0,0-1.141-16.366A8,8,0,0,0,84.8,233.6L64.947,218.715a10.128,10.128,0,0,1-4.077-8.165c0-.194.023-.39.034-.584.3-1.26.609-2.515.944-3.74.033-.072.063-.15.1-.221a10.177,10.177,0,0,1,14.758-3.917l6.859,4.57A8,8,0,0,0,96,200v-.25a19.483,19.483,0,0,1,6.72-14.731,19.7,19.7,0,0,1,15.712-4.588l4.1.578A34.272,34.272,0,0,0,157.96,162.57a66.962,66.962,0,0,1,6.958,18.556L174.1,224Zm0-80H144V128h16ZM96,48a16.019,16.019,0,0,1,16-16H240a16.019,16.019,0,0,1,16,16V96a16.019,16.019,0,0,1-16,16h-8a8,8,0,0,0-5.657,2.343L208,132.686V120a8,8,0,0,0-8-8H112A16.019,16.019,0,0,1,96,96ZM51.226,108.926,32,111.062V76.882ZM32,127.16l16-1.778V144H32V127.16Zm0,56.47A62.957,62.957,0,0,1,36.555,160H67.819c-9.684,11.323-16.732,25.022-21.241,41.3a25.579,25.579,0,0,0-1.462,5.754c-1.32,9.652-3.306,19.093-4.211,28.811-1.325,14.217-2.7,28.918-8.24,41.374-.212.476-.447.954-.665,1.431Z"></path><rect x="112" y="48" width="80" height="16"></rect><rect x="208" y="48" width="32" height="16"></rect><rect x="112" y="80" width="128" height="16"></rect><path d="M488,16H330.619a8,8,0,0,0-8,8V44a84.042,84.042,0,0,0,5.61,30.306L242.5,149.953a101.962,101.962,0,0,0-16.07,134.9L318.47,416.336l-2.919,4.867a72.809,72.809,0,0,0-2.706,70.376A8,8,0,0,0,320,496H488a8,8,0,0,0,8-8V352a8,8,0,0,0-8-8H464V296a93.749,93.749,0,0,1,9.879-41.881l2.546-5.071A110.22,110.22,0,0,0,488,200v-4.8a82.647,82.647,0,0,0-20.17-54.331,23.966,23.966,0,0,0,4.5-38.434A83.373,83.373,0,0,0,496,44V24A8,8,0,0,0,488,16ZM464,120a8.009,8.009,0,0,1-8,8H360a8,8,0,0,1,0-16h96A8.009,8.009,0,0,1,464,120ZM313.779,237.029A8,8,0,0,0,320,240h16v32a32.036,32.036,0,0,0,32,32h16v40H364L274.226,224.3l56.251-66.471a83.124,83.124,0,0,0-7.039,19.944l-11.26,52.55A8,8,0,0,0,313.779,237.029ZM426.156,240H428a27.87,27.87,0,0,0,18.2-6.747A16.015,16.015,0,1,1,426.156,240Zm40,172.806-9.326-13.989A39.962,39.962,0,0,0,460.65,392h17.009A55.966,55.966,0,0,1,466.152,412.806Zm-21.1-2.812L453.92,423.3A55.605,55.605,0,0,1,432,431.419V415.2A39.741,39.741,0,0,0,445.048,409.994ZM416,431.419a55.606,55.606,0,0,1-20.732-7.374l11.812-11.811A39.681,39.681,0,0,0,416,415.2Zm-33.2-17.536A56,56,0,0,1,370.341,392H387.35a40.09,40.09,0,0,0,6.776,10.561ZM384,376H368V360h16ZM362.829,96a67.614,67.614,0,0,1-21.208-32H477A67.623,67.623,0,0,1,455.79,96ZM464,48H448l8-10.667Zm-32-5.333L424,32h16ZM416,48H400l8-10.667Zm-32-5.333L376,32h16Zm-24-5.334L368,48H352Zm120,5.334L472,32h8ZM344,32l-5.381,7.175V32ZM480,480H325.168a56.857,56.857,0,0,1,4.1-50.565l5.59-9.32a8,8,0,0,0-.307-8.7L239.538,275.678a85.938,85.938,0,0,1,13.545-113.729l82.606-72.887a83.733,83.733,0,0,0,9.423,12.134,23.949,23.949,0,0,0-8.419,24.519l-78.8,93.117a8,8,0,0,0-.293,9.968L352,354.666V376a71.962,71.962,0,0,0,128,45.185Zm0-104H464V360h16Zm-8-176a94.182,94.182,0,0,1-5.164,30.627,32,32,0,0,0-11.92-10.931A27.983,27.983,0,0,0,428,184h-4v16h4a12,12,0,0,1,3.346,23.516l-2.012-5.693a32,32,0,0,0,20.07,60.765A109.844,109.844,0,0,0,448,296v80a24,24,0,0,1-48,0V296a8,8,0,0,0-8-8H368a16.019,16.019,0,0,1-16-16V256h4.687a35.082,35.082,0,0,0,24.97-10.343l-11.314-11.314A19.187,19.187,0,0,1,356.687,240H352v-8a8,8,0,0,0-8-8H329.9l9.186-42.872A67.469,67.469,0,0,1,361.3,144h86.989A66.784,66.784,0,0,1,472,195.2Z"></path><circle cx="384" cy="200" r="16"></circle></g></svg>