<svg height='100px' width='100px'  fill="#000000" xmlns="http://www.w3.org/2000/svg" xmlns:xlink="http://www.w3.org/1999/xlink" version="1.1" x="0px" y="0px" viewBox="0 0 100 100" enable-background="new 0 0 100 100" xml:space="preserve"><g><path d="M88.593,74.307H77.307V41.725c3.351-0.695,5.877-3.67,5.877-7.226c0-3.553-2.526-6.527-5.877-7.222v-3.084   c0-0.829-0.671-1.5-1.5-1.5s-1.5,0.671-1.5,1.5v3.084c-3.351,0.695-5.877,3.668-5.877,7.222c0,3.555,2.526,6.531,5.877,7.226   v32.582H51.5v-3.144c3.351-0.695,5.877-3.669,5.877-7.223c0-3.555-2.526-6.53-5.877-7.225v-4.007   c3.351-0.695,5.877-3.669,5.877-7.223s-2.526-6.528-5.877-7.223v-14.07c0-0.829-0.671-1.5-1.5-1.5s-1.5,0.671-1.5,1.5v14.07   c-3.351,0.695-5.877,3.669-5.877,7.223s2.526,6.528,5.877,7.223v4.007c-3.351,0.695-5.877,3.67-5.877,7.225   c0,3.554,2.526,6.528,5.877,7.223v3.144H25.693V62.504c3.351-0.695,5.877-3.67,5.877-7.226c0-3.554-2.526-6.528-5.877-7.223v-5.14   c3.351-0.695,5.877-3.668,5.877-7.222c0-3.555-2.526-6.53-5.877-7.225v-4.276c0-0.829-0.671-1.5-1.5-1.5s-1.5,0.671-1.5,1.5v4.276   c-3.351,0.695-5.877,3.67-5.877,7.225c0,3.553,2.526,6.527,5.877,7.222v5.14c-3.351,0.695-5.877,3.669-5.877,7.223   c0,3.555,2.526,6.531,5.877,7.226v11.803H11.407c-0.829,0-1.5,0.671-1.5,1.5s0.671,1.5,1.5,1.5h77.186c0.829,0,1.5-0.671,1.5-1.5   S89.421,74.307,88.593,74.307z M71.43,34.499c0-2.413,1.963-4.376,4.377-4.376s4.377,1.963,4.377,4.376   c0,2.415-1.963,4.38-4.377,4.38S71.43,36.914,71.43,34.499z M45.623,45.486c0-2.414,1.963-4.377,4.377-4.377   s4.377,1.963,4.377,4.377S52.414,49.863,50,49.863S45.623,47.9,45.623,45.486z M45.623,63.94c0-2.415,1.963-4.379,4.377-4.379   s4.377,1.964,4.377,4.379c0,2.414-1.963,4.377-4.377,4.377S45.623,66.354,45.623,63.94z M19.816,35.694   c0-2.415,1.963-4.379,4.377-4.379s4.377,1.964,4.377,4.379c0,2.413-1.963,4.376-4.377,4.376S19.816,38.107,19.816,35.694z    M19.816,55.278c0-2.414,1.963-4.377,4.377-4.377s4.377,1.963,4.377,4.377c0,2.415-1.963,4.38-4.377,4.38   S19.816,57.693,19.816,55.278z"></path></g></svg>