<svg height='100px' width='100px'  fill="#000000" xmlns="http://www.w3.org/2000/svg" viewBox="0 0 64 64" x="0px" y="0px"><g><path d="M51,4H13a1,1,0,0,0-1,1V51a1,1,0,0,0,.293.707l8,8A1,1,0,0,0,21,60H51a1,1,0,0,0,1-1V5A1,1,0,0,0,51,4ZM20,56.5859,15.4141,52H20ZM50,58H22V51a1,1,0,0,0-1-1H14V6H50ZM26,48a1.0013,1.0013,0,0,0,1,1,2.9926,2.9926,0,0,1,1,5.8157V55a1,1,0,0,1-2,0v-.1843A2.995,2.995,0,0,1,24,52a1,1,0,0,1,2,0,1,1,0,1,0,1-1,2.9926,2.9926,0,0,1-1-5.8157V45a1,1,0,0,1,2,0v.1843A2.995,2.995,0,0,1,30,48a1,1,0,0,1-2,0,1,1,0,0,0-2,0Zm22,7a1,1,0,0,1-1,1H33a1,1,0,0,1,0-2H47A1,1,0,0,1,48,55ZM32,28A10,10,0,1,0,22,18,10.0111,10.0111,0,0,0,32,28ZM33,10.07A8.0069,8.0069,0,0,1,39.9305,17H33ZM32.2682,19h7.6623a7.9841,7.9841,0,0,1-14.2938,3.8286ZM24,18a8.007,8.007,0,0,1,7-7.93v7.353l-6.3735,3.68A7.9548,7.9548,0,0,1,24,18ZM22,33a1,1,0,0,1,1-1H41a1,1,0,0,1,0,2H23A1,1,0,0,1,22,33Zm-6,4a1,1,0,0,1,1-1H47a1,1,0,0,1,0,2H17A1,1,0,0,1,16,37Zm0,4a1,1,0,0,1,1-1H47a1,1,0,0,1,0,2H17A1,1,0,0,1,16,41Z"></path></g></svg>