<svg height='100px' width='100px'  fill="#000000" xmlns="http://www.w3.org/2000/svg" xmlns:xlink="http://www.w3.org/1999/xlink" version="1.1" x="0px" y="0px" viewBox="0 0 100 100" enable-background="new 0 0 100 100" xml:space="preserve"><path d="M50,6.03C25.755,6.03,6.03,25.755,6.03,50S25.755,93.97,50,93.97S93.97,74.245,93.97,50S74.245,6.03,50,6.03z M50,89.97  C27.961,89.97,10.03,72.04,10.03,50S27.961,10.03,50,10.03S89.97,27.96,89.97,50S72.039,89.97,50,89.97z M81.869,38.422H62.623  V18.827c0-1.104-0.896-2-2-2h-20.55c-1.104,0-2,0.896-2,2v19.595H18.479c-1.104,0-2,0.896-2,2v20.549c0,1.104,0.896,2,2,2h19.595  v19.247c0,1.104,0.896,2,2,2h20.55c1.104,0,2-0.896,2-2V62.971h19.246c1.104,0,2-0.896,2-2V40.422  C83.869,39.317,82.974,38.422,81.869,38.422z M79.869,58.971H60.623c-1.104,0-2,0.896-2,2v19.247h-16.55V60.971c0-1.104-0.896-2-2-2  H20.479V42.422h19.595c1.104,0,2-0.896,2-2V20.827h16.55v19.595c0,1.104,0.896,2,2,2h19.246V58.971z"></path></svg>