<svg height='100px' width='100px'  fill="#000000" xmlns="http://www.w3.org/2000/svg" xmlns:xlink="http://www.w3.org/1999/xlink" version="1.1" x="0px" y="0px" viewBox="0 0 64 64" style="enable-background:new 0 0 64 64;" xml:space="preserve"><g><path d="M37.001,10H39V8h-1.999C33.141,8,30,11.141,30,15.001h2C32,12.243,34.244,10,37.001,10z"></path><circle cx="50" cy="11" r="1"></circle><path d="M13,45c-3.309,0-6,2.691-6,6s2.691,6,6,6s6-2.691,6-6S16.309,45,13,45z M13,55c-2.206,0-4-1.794-4-4s1.794-4,4-4   s4,1.794,4,4S15.206,55,13,55z"></path><path d="M59,23v-3.78c0.609-0.549,1-1.337,1-2.22v-4c0-1.654-1.346-3-3-3h-0.425c-0.872-1.411-1.986-2.484-3.679-3.552L51.822,1H51   c-2.034,0-3.853,1.185-4.688,3h-9.311c-6.066,0-11,4.934-11.001,11H9v8H5v19.029l-2.439,2.439l1.35,2.367   c-0.104,0.227-0.2,0.455-0.286,0.684L1,48.236v5.527l2.625,0.718c0.086,0.229,0.181,0.457,0.286,0.684l-1.35,2.367l3.908,3.907   l2.365-1.351c0.226,0.104,0.455,0.2,0.685,0.286L10.237,63h5.526l0.718-2.625c0.23-0.086,0.459-0.182,0.685-0.286l2.365,1.351   L21.971,59h5.412c1.295,2.472,3.817,4,6.617,4s5.321-1.528,6.617-4H63V23H59z M35,29h2c1.103,0,2-0.897,2-2v-1h6v1   c0,1.103,0.897,2,2,2h2c1.103,0,2-0.897,2-2v-2.371c1.895-0.947,4.173-2.448,5.569-4.629H57v33H35V29z M28,15.001   C28,10.038,32.038,6,37.001,6h10.721L48,5.162c0.344-1.032,1.181-1.794,2.198-2.06L51.105,7.7l0.38,0.229   c1.792,1.075,2.846,2.104,3.637,3.551L55.407,12H57c0.551,0,1,0.448,1,1v4c0,0.552-0.449,1-1,1h-1.593l-0.285,0.52   c-0.95,1.736-2.918,3.36-5.542,4.572L49,23.36V27h-2v-3H37v3h-2v-3.64l-0.581-0.269C30.46,21.262,28,18.208,28,15.121V15.001z    M26.224,17c0.16,0.684,0.406,1.353,0.733,2H13v10h14v-9.912c1.137,2.193,3.204,4.13,6,5.539V27v26h-8v-4.764l-2.625-0.718   c-0.086-0.229-0.181-0.457-0.286-0.684l1.35-2.367l-3.908-3.907l-2.365,1.351c-0.226-0.104-0.455-0.2-0.685-0.286L15.763,39H11V17   H26.224z M25,21v6H15v-6H25z M9,25v16.842c-0.055,0.024-0.111,0.044-0.166,0.069L7,40.864V25H9z M19.196,58.945l-1.979-1.13   l-0.486,0.258c-0.445,0.236-0.906,0.429-1.369,0.572l-0.525,0.161L14.237,61h-2.474l-0.6-2.193l-0.525-0.161   c-0.463-0.144-0.924-0.336-1.369-0.572l-0.486-0.258l-1.979,1.13l-1.75-1.749l1.129-1.979l-0.256-0.485   c-0.238-0.45-0.43-0.912-0.572-1.371l-0.162-0.524L3,52.236v-2.473l2.193-0.601l0.162-0.524c0.142-0.459,0.334-0.921,0.572-1.371   l0.256-0.485l-1.129-1.979l1.75-1.749l1.979,1.13l0.486-0.258c0.445-0.236,0.906-0.429,1.369-0.572l0.525-0.161l0.6-2.193h2.474   l0.6,2.193l0.525,0.161c0.463,0.144,0.924,0.336,1.369,0.572l0.486,0.258l1.979-1.13l1.75,1.749l-1.129,1.979l0.256,0.485   c0.238,0.45,0.43,0.912,0.572,1.371l0.162,0.524L23,49.764v2.473l-2.193,0.601l-0.162,0.524c-0.142,0.459-0.334,0.921-0.572,1.371   l-0.256,0.485l1.129,1.979L19.196,58.945z M61,57H39.382l-0.487,0.975C37.961,59.841,36.086,61,34,61s-3.961-1.159-4.895-3.025   L28.618,57h-5.483l-1.046-1.835c0.025-0.055,0.045-0.11,0.069-0.165H59V25h2V57z"></path><rect x="13" y="31" width="18" height="2"></rect><rect x="29" y="35" width="2" height="2"></rect><rect x="13" y="35" width="14" height="2"></rect><rect x="25" y="39" width="6" height="2"></rect><rect x="25" y="43" width="6" height="2"></rect><path d="M45,51h10V41H45V51z M47,43h6v6h-6V43z"></path><rect x="37" y="49" width="6" height="2"></rect><rect x="37" y="45" width="6" height="2"></rect><rect x="37" y="41" width="6" height="2"></rect><path d="M37,39h18v-8H37V39z M39,33h14v4H39V33z"></path></g></svg>