<svg height='100px' width='100px'  fill="#000000" xmlns="http://www.w3.org/2000/svg" xmlns:xlink="http://www.w3.org/1999/xlink" version="1.1" x="0px" y="0px" viewBox="0 0 50 50" enable-background="new 0 0 50 50" xml:space="preserve"><g><path d="M23.1,17.1c-1.7-0.6-3.5-0.9-5.3-0.9c-9.2,0-16.6,7.5-16.6,16.6c0,9.6,8.2,17.3,17.8,16.6C37,48.2,40.4,22.9,23.1,17.1z    M17.2,18.6c0,0-0.1,0.1-0.1,0.1c0,0-0.1,0-0.1,0c-0.1,0-0.1,0.1-0.1,0.2c0,0.1,0,0.1-0.1,0c-0.1-0.2-1.6,0.1-1.7,0.1   c0,0.1,0.1,0.3,0.2,0.4c0.1,0.1,0,0.2,0,0.2C15,19.3,15,19.4,15,19.4c-0.1-0.1-0.1-0.2-0.3-0.1c0,0,0-0.1,0-0.1   c-0.2,0-0.4,0.1-0.6,0.1c-0.1,0-0.1,0-0.2,0.1c0,0.1,0,0.2,0.1,0.2c0.1,0,0.2,0,0.3-0.1c0,0,0,0.1,0,0.1c0,0.1,0.1,0.1,0.1,0.2   c0,0.1-0.1,0-0.2,0c0,0-0.1,0.1-0.1,0.1c0,0,0,0.1,0.1,0.1c-0.4-0.2-0.5-0.5-0.7-0.3c0,0,0-0.1,0-0.1c-1.1-0.1-0.6,0-0.7-0.2   c0,0-0.1,0-0.1,0c0,0,0-0.1,0-0.1c1.6-0.6,3.3-0.9,5.1-0.9c0.5,0,0.9,0,1.4,0.1c-0.2,0-0.4,0-0.5,0c0,0.1,0,0.1-0.1,0.1   c-0.1,0-0.2,0.1-0.5,0.3c0-0.1,0-0.2,0.1-0.2C18,18.4,17.3,18.5,17.2,18.6z M22.6,18L22,18.3c-0.1-0.1-0.4-0.2-0.6-0.3   c-0.1-0.1-0.1-0.1-0.2-0.2c-0.2-0.1-0.3-0.2-0.5-0.2c-0.1,0-0.1,0-0.2-0.1c-0.1-0.1-0.2-0.1-0.2-0.1C21.1,17.5,21.8,17.7,22.6,18z    M19.1,17.3L19.1,17.3l-0.2,0c-0.3,0-0.5,0.1-0.6,0.2c0,0,0,0,0,0c-0.1,0-0.2,0-0.3,0c0,0-0.9,0-1.2,0.2c0,0-0.1,0-0.1,0   c-0.1,0-0.2,0-0.2,0.1h-0.1c-0.6,0-1.5,0.2-1.5,0.2l-0.9,0.2l0,0.1c-0.1,0-0.2,0-0.2,0.1c-0.1-0.2-0.3-0.3-0.5-0.4   c1.5-0.5,3-0.7,4.7-0.7C18.2,17.2,18.7,17.2,19.1,17.3z M2.2,32.9c0-5.2,2.6-9.8,6.5-12.7l0.1,1.1c0.5-0.4,0.9-0.7,1.4-1   c0,0,0.1,0.1,0.1,0.1c0.1,0,0.1,0,0.2,0c0.2,0.3,0.3,0.5,0,0.7c0.2,0.4-0.2,0.8-0.3,1.3c0,0.2-0.4,0.2-0.1,0.7   c0.3,0.7-0.1,0.3-0.2,0.5c0,0.1-0.1,0.1-0.6,1C9.1,24.8,9.1,25,9,25.2c0,0.1-0.3,0.5-0.3,0.5c-0.1,0.1-0.1,0.6,0,0.9   C8.8,27,9,27.1,9,27.6c0,1,0.3,0.9,0,1c-0.1,0,0,0.1,0,0.2c0.5,0.4,0,0.2,0.4,0.9c0.1,0.1,0.1,0.3,0.2,0.4c0.1-0.1,0.1-0.4,0-0.5   c-0.2-0.1,0.1-0.4-0.1-0.7c-0.1-0.2-0.1-0.2-0.1-0.4c0-0.3-0.5-0.5,0-1c0,0.2,0.2,0.2,0.2,0.6c0.2,1.3,0.6,1.5,0.7,1.9   c0.3,1.1-0.5,0.6,0.6,1.5c1.5,1.2,1.4,0.7,1.7,0.7c0.4,0,1.1,1.2,1.8,0.8c0,0.3,0.3,0.5,0.4,0.8c0,0.1,0,0.2,0.1,0.2   c0.1,0.1,0.2,0,0.2,0c0.7,0.5,0,0.3,1,0.7c0.1,0,0.2,0.3,0.3,0.2c0,0-0.1-0.1-0.1-0.1c0,0,0-0.1,0.1-0.1c0.1,0,0.3-0.5,0.5-0.1   c0.3,0.7,0.3,0.5,0.3,0.8c0,0.2,0.1,0.4,0.1,0.4c0,0.2-0.4,0.2-0.4,0.4c0,0.1,0,0.2-0.2,0.3c-0.1,0-0.1,0.1-0.1,0.2   c0,0.1-0.1,0.2-0.1,0.1c0.1,0.2-0.3,0.2,0.1,0.5c0.3,0.3-0.3,0.1-0.3,0.7c0,0.5,0.5,0.5,0.6,0.8c0.3,0.6,0.3,0.7,0.5,1   c0.2,0.2,0.1,0.2,0.1,0.4c0.1,0.5,1.5,0.6,1.6,1.3c0,0.2,0,0.6,0,0.7c-0.1,0.1-0.1,0.2-0.1,0.4c0,0.3-0.3,1.1-0.3,1.4   c0,0.6-0.3,0.7-0.4,1.2c-0.2,0.6,0.4,0.4-0.2,1.1c-0.1,0-0.2,0.5,0,0.8c0.1,0.2,0.3,0.3,0.4,0.4c-0.1,0-0.2,0-0.3,0   c-0.3,0-0.7,0-1,0c0,0,0,0.1,0,0.1c0.3,0.6,0.8,0.8,1.1,0.9C10,48.6,2.2,42.4,2.2,32.9z M30,26.9c0,0.1-0.3,1.7-0.2,2.2   c0,0,0,0,0,0c0,0.1,0.3,0.5,0.4,0.9c0,0,0,0,0,0c0.4,1.3-0.4,0.2,0.6,1.8c0.1,0.2,0.2,0.4,0.3,0.6c0,0,0,0.1,0.1,0.1c0,0,0,0,0,0   c0.1,0.1,0.4-0.1,0.5,0.3c0,0,0,0,0,0c0,0.1,0.1,0.3,0.1,0.3c0,0,0.1,0.1,0.1,0.1c0,0,0.1,0,0.2,0c0.3-0.5,0.3-0.2,0.6-0.6   c0.1-0.2,0.2-0.5,0.4-0.6c0.1,0.2,0.3,0.5,0.3,0.8l0,0c0.1,0.4,0.1,0.5,0.1,0.6c0,0,0,0,0,0c-0.2,4-1.8,7.6-4.4,10.2   c-2.7,2.8-6.1,4.3-9.5,4.6l0.2-0.1l0.2-0.3l0.3-0.4l-0.1-0.2c0,0,0,0,0-0.1c-0.2,0-0.4,0-0.5,0.1c0,0,0,0,0,0c0,0-0.1,0-0.1,0   c0,0-0.1-0.1-0.1-0.1c0-0.1-0.1-0.1-0.1-0.2c0.1-0.1,0.2,0,0.3-0.1c0,0,0,0,0-0.1c0-0.1,0.1-0.1,0.2-0.1c0.1,0,0.2-0.1,0.2-0.2   c-0.1,0-0.3-0.1-0.3-0.2c0,0,0,0,0,0c0,0,0,0,0,0c0.1,0,0.2,0,0.3,0c0,0,0.1,0,0.1,0c0,0,0-0.1,0.1-0.1c0-0.1,0.1-0.2,0.3-0.2   c0,0,0,0-0.1,0c0,0,0-0.1,0-0.1c-0.1,0-0.1-0.1,0-0.2c0.1,0,0.2,0,0.2,0c0.2,0,0.3-0.1,0.4-0.2c0,0,0,0,0-0.1c0,0,0,0,0-0.1   c0.1,0,0.1,0,0.2,0c0.2,0,0.4-0.1,0.6-0.1c0.2-0.1,0.4-0.2,0.6-0.4c0,0-0.1,0-0.1,0c0-0.1,0-0.1,0-0.2c0.1,0,0.1-0.1,0.2-0.1   c0,0,0.1,0,0.1,0c0.3,0,0.6-0.2,0.8-0.4c0.2-0.2,0.4-0.3,0.6-0.5c0.1-0.1,0.2-0.2,0.3-0.3c0.1-0.1,0.2-0.2,0.4-0.3c0,0,0,0,0.1-0.1   c0.1-0.1-0.1-0.4,0.1-0.4c-0.1-0.3,0.8-0.7,1.1-0.8c0.3-0.1,0.4-0.1,0.6-0.4c1.4-1.5,0.6-1.4,1.3-2.6c0.2-0.3,0.4-0.6,0.6-0.9   c0.1-0.2,0.3-0.8,0.1-0.9c-0.1-0.1-0.3,0.1-0.4-0.1c-0.7-0.5-0.5-0.4-0.7-0.3c-0.2,0.1-0.5-0.1-0.7,0c0,0-0.1,0.1-0.1,0   c0-0.1-0.1-0.1-0.1-0.2c0,0,0,0,0,0c0,0-0.1,0.1-0.1,0c0,0,0,0,0,0c-0.1-0.1-0.5-0.2-0.6-0.1c-0.1,0-0.3,0.4-0.3,0.3c0,0,0,0,0-0.1   c0,0,0.2,0,0.2-0.3c0-0.2-0.5,0-0.7,0.1c0-0.2,0.6-0.5,0.3-0.7c-0.3-0.2,0-0.5-0.4-0.7c-1-0.5-1.3-0.2-1.4-0.2   c-0.1,0-0.2-0.2-0.3-0.2c0,0-0.1,0-0.1,0c0,0,0-0.1,0-0.1c0-0.1-0.5-0.5-0.6-0.4c-0.1,0-0.1-0.2-0.1-0.2c-0.1-0.1-0.2,0-0.4-0.2   c0,0,0.1-0.1,0.1-0.1c0-0.1-0.3,0-0.5,0c-0.3,0.2-0.5,0-0.8,0c-0.1,0-0.3,0.1-0.4,0c-0.1-0.2-0.2-0.1-0.4-0.2c0,0,0-0.1,0-0.1   c-0.1,0-0.2,0-0.1,0.1c-0.1,0-0.2,0.1-0.2,0.2c-0.1,0.1,0.1,0.2,0,0.4c-0.1,0-0.1,0-0.2,0c0-0.1,0.1-0.2,0.1-0.3c0,0,0-0.1,0-0.1   c0-0.1,0.1-0.2,0.1-0.2c-0.1,0-0.2,0.1-0.2,0.1c-0.1,0-0.1,0-0.2,0l-0.3,0.5c-0.2-0.1-0.8,0.1-1,0.5c-0.1,0.1-0.1,0.3-0.2,0.4   c-0.1,0.1-0.2,0-0.3-0.1c-0.4-0.4-1,0.2-1.2-0.2c-0.1-0.4-0.3-0.1-0.3-0.6c0-0.5,0.5-1.2-1.3-1.1c0.2-1.2,0.6-1.2,0.6-1.4   c0-0.1-0.2-0.1-0.3-0.1c-0.9,0-0.7,0.5-0.9,0.7c0,0.1-0.1,0.1-0.2,0c-0.2-0.2-0.4,0-0.5,0c-0.2,0-0.7-0.8-0.6-1.2   c0.1-0.1-0.1-0.3,0-0.5c0-0.2,0.2-0.3,0.2-0.5c0-0.1-0.1-0.4,0.5-0.5c0.2,0,0.1-0.1,0.2-0.2c0.1-0.1,0.2,0,0.3-0.1c0,0,0.1,0,0.1,0   c0.3-0.1,0.4,0.5,0.8,0.1c0.1-0.1,0,0,0-0.1c0-0.1,0.4-0.1,0.8,0c0.4,0.2,0.3,0,0.4,0c0.2,0,0.2,0.2,0.3,0.4   c0.1,1.1,0.6,0.9,0.6,0.7c0-0.2-0.1,0,0-0.4c0.1-0.3-0.5-0.7-0.1-1.2c0.2-0.2,0.6-0.4,1.4-0.9c-0.1-0.4,0.1-0.7,0.1-0.8   c0-0.1,0-0.1,0-0.2c0,0,0.1-0.1,0.1-0.1c0.1-0.1,0-0.3,0.4-0.4c0.1,0,0.4,0,0.4-0.1c0-0.1-0.1-0.1-0.2-0.2   c-0.2-0.2,0.3-0.3,0.4-0.4c0.1-0.1,0.6-0.5,0.8-0.4c-0.1,0.1-0.4,0.2-0.4,0.4c0,0.1,0.2,0.2,0.5-0.1c0.2-0.3,0.7-0.2,0.6-0.5   c-0.2,0.1-0.4,0.1-0.5,0.1c-0.2-0.1-0.3-0.3-0.5-0.4c0-0.1,0.1-0.1,0.2-0.1c0.2-0.3-0.6-0.1-0.8,0c0,0,0-0.1,0.1-0.1   c0.1,0,0.1,0,0.2-0.1c0,0,0-0.2,0.3-0.3c0.2,0,0.7,0.1,1.3-0.3c-0.3,1.5-0.1,0.7,0.5,0.9c0,0.1,0,0.1,0.1,0.1c0.1,0,0.1,0,0.2,0   c0.6-0.1-0.1-0.3-0.1-0.4c-0.1-0.3-0.1-0.1-0.3-0.1c-0.1,0-0.2-0.1-0.2-0.2c0-0.1,0.1-0.2,0-0.3c0,0-0.1,0-0.1-0.1   c-0.1-0.1,0-0.2-0.1-0.2c-0.1-0.1-0.2,0-0.3-0.1c-0.1-0.1,0-0.1-0.2-0.2c-0.2,0-0.3-0.1-0.4-0.2c-0.3,0-0.2-0.2-0.3-0.3   c0,0-0.4-0.4-0.4-0.5c-0.3-0.3-0.1,0.6-0.7,0.2c0.1-0.5-1-0.7-1.2-0.6c0,0,0,0.1,0,0.2c0,0.3-0.1,0.4-0.2,0.5c0,0.1,0,0.1,0.1,0.1   c0.4,0.7-0.2,0.5-0.3,0.7c0,0,0.1,0.3,0.1,0.4c0,0.3-0.4,0.3-0.5-0.1c0-0.2,0-0.3,0-0.5c-0.5,0-0.9-0.5-1.4-0.5   c0.1-0.1,0.1-0.3,0-0.4c0,0-0.1,0-0.1,0c0-0.5,0.5-0.6,0.6-0.6c0.1,0,0.2-0.1,0.8-0.5c0.1,0.1,0,0.3,0.1,0.4   c0.1,0.1,0.3-0.2,0.5-0.1c0,0,0.1,0.1,0.1,0.1c0.1,0,0.3-0.2-0.2-0.3c-0.1-0.1,0-0.2,0.1-0.3c0.2-0.2,0.1-0.2,0.1-0.3   c0-0.2,0.3-0.4,0.7,0c0.2,0.2,0,0.3,0,0.4c0,0.1,0.1,0.1-0.1,0.2c0,0-0.1,0.1,0,0.1c0.2-0.1,0.4,0.2,0.6,0.1c0,0.2,0.5,0.3,0.7,0.3   c-0.1-0.1-0.2-0.2-0.3-0.2c0.1,0,0.3,0,0.4,0.1c0.3,0.2,0.2-0.3-0.4-0.5c0.1-0.1,0.3,0,0.5,0.1c0-0.1,0.1-0.2,0.2-0.3   c-0.4-0.1-0.7-0.3-1-0.5c0-0.2-0.4-0.3-0.9-0.5c-0.1-0.4,0.6-0.6,0.8-0.4c0.2,0.2,0,0.1,0.4,0.1c0.1,0,0.2,0,1,0.5   c0,0.1,0.1,0.1,0.2,0.1c0.1,0,0.2,0.2,0.2,0.3c0,0.1-0.1,0.2,0,0.4c0.6,0.8,1.7,1.1,1.8,1c0.1-0.1,0-0.1-0.1-0.2c0,0,0-0.1,0-0.2   c0-0.2-0.2-0.3-0.3-0.5c0-0.1,0-0.2,0.1-0.2c0,0,0.1,0,0.1,0c0.2-0.1,0-0.3,0-0.4c0-0.1,0.1-0.1,0.2-0.1c0-0.1,0.1-0.3,0-0.4   c-0.1,0.1-0.3,0-0.4-0.1c0.1,0,0.1,0,0.2,0c0-0.2-0.3-0.1-0.4-0.2c-0.1-0.1,0-0.2-0.2-0.2c-0.4,0-0.5-0.3-0.6-0.4   c-0.1-0.1-0.3-0.1-0.6-0.3c0.6,0.1,1.3,0.2,1.9,0.4l0.1,0.3l0.3,0.9l0.6-0.1c0-0.2,0-0.5,0-0.7L22.6,18c0.1,0,0.2,0,0.2,0.1   c0,0,0,0,0,0.1c0,0,0,0.1,0,0.1c0.1,0.2,0.1,0.4,0.2,0.7c0.3-0.1,0.7,0,0.9,0.2c0.4,0.3,0.3,0.6,1.5,1c0.1,0,0.2,0.1,0.3,0.1   c0.1,0,0.2-0.1,0.2,0c0.1,0,0.1,0.1,0.2,0.2c0.1,0.2,0.3,0.3,0.4,0.4c0.1,0.1,0.2,0.4,0.1,0.5c-0.5-0.2-1-0.5-1.5-0.7   c0,0.4,0.6,0.6,0.9,1c0.1,0.1,0.3,0.9,0.6,0.6c-0.2-0.1-0.2-0.4-0.2-0.6c0.1,0.1,0.6,0.7,0.7,0.7c0-0.4-0.1-0.7-0.2-0.9   c1,1.5,0.7,1.2,1.1,1.3c0.2,0.1,0.3,0.4,0.3,0.6c-0.1,0.2-0.3,0.3-0.3,0.2c0.2,0.4,0.3,0.7,0.5,1.1c0.2,0,0.3,0.1,0.4,0.3   c0,0.2,0.2,0.3,0.3,0.3c0.2,0.2,0.3,0.5,0.4,0.8C29.8,26.3,30,26.6,30,26.9z"></path><path d="M41,12.8c0-0.5,0.3-1,0.7-1.3l-3.6-5.7c-0.3-0.4-0.8-0.8-1.3-0.9L17.6,0.5c-1-0.2-1.5,0.5-1,1.4l4.7,7.5c1-0.7,2-1.3,3-1.8   c0.6-0.3,1.2-0.4,1.8-0.4c0.4,0,0.9,0.1,1.3,0.2c4.5,1.6,8.2,4.3,11.4,8.1c0.7,0.8,1,1.9,0.8,3c-0.2,1.2-0.4,2.3-0.7,3.5l0.4,0.1   c0.2-0.5,0.5-0.9,0.9-1.2L41,12.8z"></path><path d="M48.6,22.5l-4-6.3l-0.4,5c0.5,0.6,0.8,1.3,0.7,2.1l2.7,0.6C48.6,24.1,49.1,23.4,48.6,22.5z"></path><path d="M27.1,8.3c-0.8-0.3-1.6-0.2-2.3,0.2c-2.8,1.4-5.6,3.6-8.3,6.8c0,0,0,0,0,0c0.3,0,0.5,0,0.8-0.1c0.4,0,0.7,0,1.1,0   c1.9,0,3.7,0.3,5.4,0.9c5.7,1.9,9.9,6.6,11.2,12.3c2.1-3.6,3.3-6.9,3.7-10.1c0.1-0.8-0.1-1.6-0.6-2.2C35,12.5,31.5,9.9,27.1,8.3z"></path><path d="M43,12c-0.5,0-1,0.4-1.1,0.9l-0.8,8.5c-0.6,0.3-1,0.8-1,1.5c-0.1,0.5,0.1,1,0.5,1.4l-1.2,4.2c-0.1,0.4,0.2,0.9,0.6,0.9   l2.9,0.3c0.4,0,0.8-0.3,0.8-0.8l-0.5-4.3c0.4-0.3,0.7-0.8,0.7-1.3c0.1-0.7-0.2-1.3-0.7-1.6l0.8-8.5C43.9,12.6,43.6,12.1,43,12z"></path></g></svg>