<svg height='100px' width='100px'  fill="#000000" xmlns="http://www.w3.org/2000/svg" xmlns:xlink="http://www.w3.org/1999/xlink" version="1.1" x="0px" y="0px" viewBox="0 0 91 91" enable-background="new 0 0 91 91" xml:space="preserve"><g><path d="M45.79,83.253c16.433,0,29.801-13.364,29.801-29.791c0-2.483-0.652-5.457-1.938-8.837   c-0.344-0.903-1.357-1.356-2.258-1.014c-0.903,0.344-1.357,1.354-1.014,2.258c1.135,2.981,1.71,5.536,1.71,7.593   c0,14.497-11.799,26.291-26.301,26.291c-14.514,0-26.322-11.794-26.322-26.289C19.484,40.67,40.31,15.506,45.79,9.104   c2.531,2.954,8.333,9.907,13.825,17.785c-2.566,1.326-4.938,3.201-6.946,5.556c-4.456,5.224-6.53,11.983-5.69,18.544   c0.017,0.129,0.07,0.242,0.113,0.36c-0.477,1.078-0.909,2.218-1.289,3.416c-1.061-2.33-2.608-4.533-4.6-6.475   c-4.316-4.206-10.139-6.534-15.745-6.304c-0.883,0.037-1.6,0.725-1.672,1.606c-0.44,5.384,1.819,10.922,6.2,15.196   c3.937,3.833,9.09,6.082,14.245,6.281c-0.002,2.347,0.213,4.832,0.726,7.472c0.162,0.836,0.895,1.416,1.716,1.416   c0.11,0,0.223-0.01,0.336-0.032c0.948-0.185,1.568-1.103,1.384-2.052c-1.549-7.97-0.29-14.406,1.913-19.359   c5.666-0.236,11.183-3.044,15.241-7.799c4.458-5.232,6.53-11.99,5.684-18.542c-0.108-0.839-0.801-1.48-1.646-1.523   c-2.245-0.116-4.492,0.193-6.658,0.873C55.424,14.662,47.183,5.367,47.098,5.271c-0.332-0.374-0.808-0.587-1.308-0.587   s-0.976,0.213-1.308,0.587c-1.163,1.308-28.494,32.208-28.515,48.19C15.968,69.889,29.346,83.253,45.79,83.253z M32.429,56.282   c-3.128-3.052-4.993-6.979-5.18-10.777c4.157,0.271,8.303,2.166,11.511,5.292c3.132,3.053,4.998,6.981,5.181,10.779   C39.785,61.305,35.64,59.409,32.429,56.282z M67.892,28.146c0.226,5.043-1.592,10.29-5.008,14.299   c-2.9,3.398-6.651,5.608-10.584,6.328c3.56-5.702,7.944-8.615,8.299-8.844c0.813-0.521,1.051-1.602,0.53-2.416   s-1.603-1.053-2.417-0.532c-0.088,0.057-4.323,2.844-8.192,8.328c0.564-3.827,2.23-7.565,4.812-10.592   C58.717,30.748,63.257,28.383,67.892,28.146z"></path></g></svg>