<svg height='100px' width='100px'  fill="#000000" xmlns="http://www.w3.org/2000/svg" xmlns:xlink="http://www.w3.org/1999/xlink" version="1.1" x="0px" y="0px" viewBox="0 0 512 512" enable-background="new 0 0 512 512" xml:space="preserve"><g><path d="M337.5,185.3c5.6,5.4,14.6,5.2,20-0.4c5.4-5.6,5.2-14.6-0.4-20L191.5,5.9c-5.5-5.2-14.1-5.2-19.6,0L6.3,164.9   c-5.6,5.4-5.8,14.3-0.4,20c5.4,5.6,14.3,5.8,20,0.4L181.7,35.7L337.5,185.3z"></path><path d="M500.5,350.3l-23.1-7.9l10.7-21.9c2.6-5.4,1.6-11.9-2.7-16.2l-25.8-25.8c-4.3-4.2-10.7-5.3-16.2-2.7l-21.9,10.7l-7.9-23.1   c-2-5.7-7.3-9.5-13.3-9.5h-36.5c-6,0-11.4,3.8-13.3,9.5l-7.9,23.1l-10.1-4.9v-67.7c0-3.8-1.6-7.5-4.3-10.2L191.5,72.6   c-5.5-5.2-14.1-5.2-19.6,0L35.4,203.6c-2.8,2.7-4.3,6.3-4.3,10.2v165.8c0,7.8,6.3,14.1,14.1,14.1h208.6v6.5c0,6,3.8,11.4,9.5,13.3   l23.1,7.9l-10.7,21.9c-2.6,5.4-1.6,11.9,2.7,16.2l25.8,25.8c4.3,4.3,10.8,5.3,16.2,2.7l21.9-10.7l7.9,23.1c2,5.7,7.3,9.5,13.3,9.5   h36.5c6,0,11.4-3.8,13.3-9.5l7.9-23.1l21.9,10.7c5.4,2.6,11.9,1.6,16.2-2.7l25.8-25.8c4.3-4.3,5.3-10.8,2.7-16.2l-10.7-21.9   l23.1-7.9c5.7-2,9.5-7.3,9.5-13.3v-36.5C510,357.7,506.2,352.3,500.5,350.3z M203.8,365.5h-44.2v-77.9h44.2V365.5z M253.9,363.7   v1.8H232v-92c0-7.8-6.3-14.1-14.1-14.1h-72.4c-7.8,0-14.1,6.3-14.1,14.1v92h-72v-38.9h14.5c7.8,0,14.1-6.3,14.1-14.1   s-6.3-14.1-14.1-14.1H59.3v-28.2h42.7c7.8,0,14.1-6.3,14.1-14.1c0-7.8-6.3-14.1-14.1-14.1H59.3v-22.1l122.4-117.5L304,219.8v58.9   l-25.6,25.6c-4.3,4.3-5.3,10.8-2.7,16.2l10.7,21.9l-23.1,7.9C257.7,352.3,253.9,357.7,253.9,363.7z M481.8,390.1l-20.9,7.2   c-4.1,1.4-7.3,4.6-8.8,8.8c-1,2.8-2.1,5.6-3.5,8.4c-1.9,3.9-1.9,8.5,0,12.4l9.7,19.9l-11.6,11.6l-19.9-9.7c-3.9-1.9-8.5-1.9-12.4,0   c-2.8,1.4-5.6,2.5-8.4,3.5c-4.1,1.4-7.3,4.6-8.8,8.8l-7.2,20.9h-16.4l-7.2-20.9c-1.4-4.1-4.7-7.3-8.8-8.8c-2.8-1-5.6-2.1-8.4-3.5   c-3.9-1.9-8.5-1.9-12.4,0l-19.9,9.7l-11.6-11.6l9.7-19.9c1.9-3.9,1.9-8.5,0-12.4c-1.4-2.8-2.5-5.6-3.5-8.4   c-1.4-4.1-4.6-7.3-8.8-8.8l-20.9-7.2v-16.4l20.9-7.2c4.1-1.4,7.3-4.6,8.8-8.8c1-2.8,2.1-5.6,3.5-8.4c1.9-3.9,1.9-8.5,0-12.4   l-9.7-19.9l11.6-11.6l19.9,9.7c3.9,1.9,8.5,1.9,12.4,0c2.8-1.4,5.6-2.5,8.4-3.5c4.1-1.4,7.3-4.6,8.8-8.8l7.2-20.9h16.4l7.2,20.9   c1.4,4.1,4.7,7.3,8.8,8.8c2.8,1,5.6,2.1,8.4,3.5c3.9,1.9,8.5,1.9,12.4,0l19.9-9.7l11.6,11.6l-9.7,19.9c-1.9,3.9-1.9,8.5,0,12.4   c1.4,2.8,2.5,5.6,3.5,8.4c1.4,4.1,4.6,7.3,8.8,8.8l20.9,7.2V390.1z"></path><path d="M381.9,332.2c-27.4,0-49.8,22.3-49.8,49.8c0,27.4,22.3,49.8,49.8,49.8c27.4,0,49.8-22.3,49.8-49.8   C431.7,354.5,409.4,332.2,381.9,332.2z M381.9,403.5c-11.9,0-21.5-9.7-21.5-21.5c0-11.9,9.7-21.5,21.5-21.5   c11.9,0,21.5,9.7,21.5,21.5C403.5,393.8,393.8,403.5,381.9,403.5z"></path></g></svg>