<svg height='100px' width='100px'  fill="#000000" xmlns:dc="http://purl.org/dc/elements/1.1/" xmlns:cc="http://creativecommons.org/ns#" xmlns:rdf="http://www.w3.org/1999/02/22-rdf-syntax-ns#" xmlns:svg="http://www.w3.org/2000/svg" xmlns="http://www.w3.org/2000/svg" xmlns:sodipodi="http://sodipodi.sourceforge.net/DTD/sodipodi-0.dtd" xmlns:inkscape="http://www.inkscape.org/namespaces/inkscape" viewBox="0 0 64.000001 64.000001" version="1.1" x="0px" y="0px"><g transform="translate(0,-988.36219)"><path style="color:#000000;font-style:normal;font-variant:normal;font-weight:normal;font-stretch:normal;font-size:medium;line-height:normal;font-family:sans-serif;text-indent:0;text-align:start;text-decoration:none;text-decoration-line:none;text-decoration-style:solid;text-decoration-color:#000000;letter-spacing:normal;word-spacing:normal;text-transform:none;direction:ltr;block-progression:tb;writing-mode:lr-tb;baseline-shift:baseline;text-anchor:start;white-space:normal;clip-rule:nonzero;display:inline;overflow:visible;visibility:visible;opacity:1;isolation:auto;mix-blend-mode:normal;color-interpolation:sRGB;color-interpolation-filters:linearRGB;solid-color:#000000;solid-opacity:1;fill:#000000;fill-opacity:1;fill-rule:nonzero;stroke:none;stroke-width:1;stroke-linecap:butt;stroke-linejoin:miter;stroke-miterlimit:4;stroke-dasharray:none;stroke-dashoffset:0;stroke-opacity:1;color-rendering:auto;image-rendering:auto;shape-rendering:auto;text-rendering:auto;enable-background:accumulate" d="M 31.5 7.1015625 C 28.744491 7.1015525 26.499989 9.3460425 26.5 12.101562 C 26.499996 14.857062 28.7445 17.101562 31.5 17.101562 C 34.2555 17.101562 36.500004 14.857062 36.5 12.101562 C 36.500011 9.3460425 34.255509 7.1015525 31.5 7.1015625 z M 31.5 8.1015625 C 33.715065 8.1015525 35.500009 9.8864825 35.5 12.101562 C 35.500004 14.316663 33.715066 16.101562 31.5 16.101562 C 29.284934 16.101562 27.499996 14.316663 27.5 12.101562 C 27.499991 9.8864825 29.284935 8.1015525 31.5 8.1015625 z M 24.75 18 C 21.581519 18 18.5 20.550038 18.5 23.773438 L 18.5 24.5 L 18.5 25 L 18.5 34.25 C 18.5 35.7624 19.736777 37 21.25 37 C 22.763222 37 24 35.7624 24 34.25 L 24 24.5 L 24 23.822266 C 24.002348 23.819376 23.999392 23.823217 24.003906 23.818359 C 24.035516 23.784359 24.113171 23.724375 24.208984 23.671875 C 24.400611 23.567775 24.688204 23.5 24.75 23.5 L 25 23.5 L 25 24.5 L 25 25 L 25 38.75 L 25 39.5 L 25 53.75 C 25 55.2624 26.236778 56.5 27.75 56.5 C 29.263223 56.5 30.5 55.2624 30.5 53.75 L 30.5 43 L 32.5 43 L 32.5 53.75 C 32.5 55.2624 33.736781 56.5 35.25 56.5 C 36.763219 56.5 38 55.2624 38 53.75 L 38 39.5 L 38 38.75 L 38 24.5 L 38 23.5 L 38.0625 23.5 C 38.13507 23.5 38.485515 23.580019 38.730469 23.699219 C 38.851291 23.758219 38.952466 23.825087 39 23.867188 L 39 24.501953 L 39 25 L 39 33.5 C 39 35.0124 40.236781 36.25 41.75 36.25 C 42.128924 36.25 42.490573 36.171351 42.818359 36.03125 C 43.778918 35.623188 44.455223 34.682601 44.490234 33.585938 C 44.491107 33.5586 44.499941 33.533386 44.5 33.505859 L 44.5 24.501953 L 44.5 23.773438 C 44.5 22.170138 43.666506 20.7241 42.462891 19.6875 C 41.259275 18.6509 39.672729 18 38.0625 18 L 36 18 L 33 18 L 30 18 L 27 18 L 24.75 18 z M 24.75 19 L 27 19 L 30 19 L 33 19 L 36 19 L 38.0625 19 C 39.399526 19 40.782226 19.559713 41.810547 20.445312 C 42.838867 21.331013 43.5 22.518937 43.5 23.773438 L 43.5 24.501953 L 40 24.501953 L 40 23.773438 C 40 23.457437 39.82496 23.2627 39.671875 23.125 C 39.51879 22.9874 39.347067 22.886628 39.166016 22.798828 C 38.803913 22.623128 38.436709 22.5 38.0625 22.5 L 37 22.5 L 37 24.5 L 26 24.5 L 26 22.5 L 24.75 22.5 C 24.397979 22.5 24.060388 22.613669 23.730469 22.792969 C 23.565509 22.882969 23.407638 22.991025 23.269531 23.140625 C 23.131425 23.290125 23 23.501437 23 23.773438 L 23 24.5 L 19.5 24.5 L 19.5 23.773438 C 19.5 21.207738 22.129427 19 24.75 19 z M 19.5 25.5 L 23 25.5 L 23 34.25 C 23 35.2219 22.222612 36 21.25 36 C 20.277387 36 19.5 35.2219 19.5 34.25 L 19.5 25.5 z M 26 25.5 L 37 25.5 L 37 38.75 L 37 39.5 L 37 53.75 C 37 54.7219 36.222607 55.5 35.25 55.5 C 34.277393 55.5 33.5 54.7219 33.5 53.75 L 33.5 42 L 29.5 42 L 29.5 53.75 C 29.5 54.7219 28.722613 55.5 27.75 55.5 C 26.777388 55.5 26 54.7219 26 53.75 L 26 39.5 L 26 38.75 L 26 25.5 z M 40 25.5 L 43.5 25.5 L 43.5 33.494141 C 43.499977 33.496133 43.50003 33.498009 43.5 33.5 C 43.49092 34.108693 43.191099 34.638419 42.730469 34.951172 C 42.45252 35.13989 42.115265 35.25 41.75 35.25 C 40.777393 35.25 40 34.4719 40 33.5 L 40 25.5 z " transform="translate(0,988.36219)"></path></g></svg>