<svg height='100px' width='100px'  fill="#000000" xmlns="http://www.w3.org/2000/svg" xmlns:xlink="http://www.w3.org/1999/xlink" version="1.1" x="0px" y="0px" viewBox="0 0 64 64" style="enable-background:new 0 0 64 64;" xml:space="preserve"><g><path d="M50,53c-1.654,0-3,1.346-3,3s1.346,3,3,3s3-1.346,3-3S51.654,53,50,53z M50,57c-0.551,0-1-0.449-1-1s0.449-1,1-1   s1,0.449,1,1S50.551,57,50,57z"></path><path d="M14,53c-1.654,0-3,1.346-3,3s1.346,3,3,3s3-1.346,3-3S15.654,53,14,53z M14,57c-0.551,0-1-0.449-1-1s0.449-1,1-1   s1,0.449,1,1S14.551,57,14,57z"></path><path d="M59.778,36.364l-1.638-1.638C58.702,32.539,59,30.281,59,28c0-4.09-0.947-8.15-2.724-11.803C57.711,14.848,59,13.067,59,11   c0-4.343-5.709-9.226-6.36-9.768L52,0.698l-0.64,0.534c-0.382,0.318-2.501,2.134-4.19,4.455C42.685,2.629,37.47,1,32,1   c-7.103,0-13.965,2.843-19,7.826V8c0-1.654-1.346-3-3-3H6C4.346,5,3,6.346,3,8v1.184C1.839,9.598,1,10.698,1,12v14   c0,1.654,1.346,3,3,3h1.035c0.155,4.221,1.276,8.321,3.3,12H8c-3.86,0-7,3.14-7,7v6c0,2.757,2.243,5,5,5h1.685   c1.126,2.361,3.53,4,6.315,4s5.189-1.639,6.315-4h23.37c1.126,2.361,3.53,4,6.315,4s5.189-1.639,6.315-4H58c2.757,0,5-2.243,5-5   v-9.858C63,41.204,61.856,38.442,59.778,36.364z M61,44.142v4.674c-1.161-0.414-2-1.514-2-2.816c0-1.27,0.811-2.354,1.952-2.781   C60.983,43.524,61,43.831,61,44.142z M52,3.331c1.823,1.671,5,5.116,5,7.669c0,2.091-2.248,4.074-4,5.247v-3.833l2.707-2.707   l-1.414-1.414L53,9.586V6h-2v5l-1.2-1.6l-1.6,1.2l2.8,3.733v1.916c-1.752-1.17-4-3.151-4-5.25C47,8.447,50.177,5.002,52,3.331z    M6,7h4c0.551,0,1,0.449,1,1v1H5V8C5,7.449,5.449,7,6,7z M3,26V12c0-0.551,0.449-1,1-1h8c0.551,0,1,0.449,1,1v14   c0,0.551-0.449,1-1,1H4C3.449,27,3,26.551,3,26z M7.035,29H12c1.654,0,3-1.346,3-3V12c0-0.66-0.221-1.266-0.584-1.762   C19.077,5.629,25.427,3,32,3c5.084,0,9.932,1.52,14.094,4.372C45.446,8.554,45,9.797,45,11c0,3.834,4.422,6.694,6,7.594V24h2   v-5.406c0.414-0.236,1.013-0.601,1.688-1.09C56.199,20.772,57,24.374,57,28c0,1.711-0.174,3.41-0.516,5.07l-3.434-3.434   c-1.7-1.7-3.96-2.636-6.364-2.636H22.034c-3.997,0-7.556,2.684-8.653,6.527L11.246,41h-0.588C8.444,37.373,7.204,33.257,7.035,29z    M8,43h4.754l2.549-8.923C16.158,31.088,18.925,29,22.034,29h24.652c1.87,0,3.627,0.728,4.95,2.05l6.728,6.728   c0.995,0.995,1.719,2.185,2.156,3.48C58.477,41.893,57,43.779,57,46c0,2.414,1.721,4.434,4,4.899V53h-4.685   c-0.913-1.915-2.666-3.351-4.784-3.826l4.664-9.327l-5.649-6.457c-1.33-1.519-3.25-2.39-5.268-2.39H38c-1.654,0-3,1.346-3,3v19h-2   V34c0-1.654-1.346-3-3-3h-8.024c-2.225,0-4.15,1.432-4.789,3.563l-2.224,7.413l1.912,7.649C15.997,49.227,15.025,49,14,49   c-1.835,0-3.501,0.715-4.751,1.874l-0.9-3.601C8.015,45.935,6.818,45,5.438,45H4.026C4.939,43.793,6.373,43,8,43z M43.685,53H37V41   h16.382l-4.016,8.032C46.853,49.259,44.725,50.821,43.685,53z M37,39v-5c0-0.551,0.449-1,1-1h7.277   c1.441,0,2.813,0.623,3.763,1.708L52.796,39H37z M19.428,51.587L17.281,43H21c1.474,0,2.75-0.81,3.444-2H31v12H20.315   C20.073,52.494,19.778,52.018,19.428,51.587z M31,39h-6c0-1.103-0.897-2-2-2h-4.456l0.559-1.862C19.486,33.859,20.641,33,21.976,33   H30c0.551,0,1,0.449,1,1V39z M17.944,39H23c0,1.103-0.897,2-2,2h-3.656L17.944,39z M3.101,47h2.337c0.46,0,0.859,0.312,0.97,0.758   L6.719,49H3v-1C3,47.658,3.035,47.323,3.101,47z M9.11,51c-0.587,0.574-1.068,1.251-1.425,2H3v-2H9.11z M6,57   c-1.302,0-2.402-0.839-2.816-2H7.08C7.033,55.328,7,55.66,7,56s0.033,0.672,0.08,1H6z M14,61c-2.757,0-5-2.243-5-5s2.243-5,5-5   s5,2.243,5,5S16.757,61,14,61z M20.92,57c0.047-0.328,0.08-0.66,0.08-1s-0.033-0.672-0.08-1h22.16C43.033,55.328,43,55.66,43,56   s0.033,0.672,0.08,1H20.92z M50,61c-2.757,0-5-2.243-5-5s2.243-5,5-5s5,2.243,5,5S52.757,61,50,61z M58,57h-1.08   c0.047-0.328,0.08-0.66,0.08-1s-0.033-0.672-0.08-1h3.896C60.402,56.161,59.302,57,58,57z"></path><polygon points="8.949,13.316 7.051,12.684 4.613,20 8.131,20 5.168,24.445 6.832,25.555 11.869,18 7.387,18  "></polygon></g></svg>