<?xml version="1.0" encoding="UTF-8"?>
<svg xmlns="http://www.w3.org/2000/svg" xmlns:xlink="http://www.w3.org/1999/xlink" width="365pt" height="368.96pt" viewBox="0 0 365 368.96" version="1.1">
<g id="surface1">
<path style=" stroke:none;fill-rule:nonzero;fill:rgb(0.799561%,0.799561%,0.799561%);fill-opacity:1;" d="M 93.449219 307.71875 C 91.738281 306.644531 90.195313 305.339844 88.464844 304.453125 C 87.875 305.21875 89.183594 305.640625 88.582031 306.472656 C 87.636719 307.71875 87.042969 309.203125 85.796875 310.386719 C 83.246094 314.121094 80.449219 317.914063 77.726563 321.835938 L 75.882813 321.898438 L 75.882813 322.367188 C 77.367188 323.378906 78.847656 324.6875 80.339844 325.449219 C 81.472656 325.214844 80.046875 324.503906 80.515625 323.800781 C 82.234375 321.835938 83.246094 319.335938 85.203125 317.800781 L 93.03125 323.03125 C 92.496094 325.277344 90.304688 327.183594 89.121094 329.253906 C 88.464844 329.671875 87.113281 329.542969 87.222656 330.371094 C 88.941406 331.21875 90.433594 332.925781 92.089844 333.578125 C 93.285156 333.164063 91.792969 332.21875 92.089844 331.386719 L 102.113281 317.03125 C 102.476563 316.015625 103.589844 315.546875 104.480469 315.78125 L 104.480469 315.546875 C 103.007813 314.300781 101.097656 313.175781 99.382813 312.105469 C 98.839844 312.753906 99.972656 313.226563 99.925781 314 L 94.398438 321.898438 L 93.863281 322.066406 C 90.90625 320.589844 88.464844 318.457031 85.796875 316.433594 L 91.667969 308.136719 L 93.449219 308.136719 L 93.449219 307.71875 "/>
<path style=" stroke:none;fill-rule:nonzero;fill:rgb(0.799561%,0.799561%,0.799561%);fill-opacity:1;" d="M 73.632813 77.492188 C 73.214844 76.730469 72.5 77.679688 71.847656 77.492188 C 64.441406 75.597656 57.261719 73.40625 49.832031 71.566406 C 48.835938 73.109375 46.996094 73.945313 46.457031 75.769531 C 47.585938 76.203125 48.644531 74.113281 49.832031 75.238281 C 52.800781 81.054688 55.832031 86.871094 58.800781 92.566406 L 58.800781 94.816406 L 59.148438 94.816406 C 59.976563 93.753906 61.347656 92.75 61.46875 91.441406 C 60.6875 91.554688 60.039063 92.09375 59.441406 91.324219 C 58.320313 89.421875 57.253906 87.527344 56.601563 85.511719 C 58.792969 83.246094 60.746094 80.394531 63.183594 78.507813 C 65.3125 78.917969 67.28125 79.578125 69.1875 80.222656 C 69.648438 80.523438 68.996094 81.710938 69.832031 81.539063 C 71.082031 80.222656 72.570313 78.980469 73.632813 77.492188 M 61.324219 78.640625 C 59.789063 80.722656 58.003906 82.320313 56.277344 84.15625 L 55.984375 84.15625 L 51.601563 75.675781 L 51.765625 75.433594 C 55.027344 75.976563 58.109375 77.09375 61.320313 77.929688 C 61.503906 78.105469 61.675781 78.511719 61.324219 78.640625 "/>
<path style=" stroke:none;fill-rule:nonzero;fill:rgb(0.799561%,0.799561%,0.799561%);fill-opacity:1;" d="M 109.574219 48.898438 C 108.507813 48.351563 108.328125 49.84375 107.675781 50.257813 C 104.949219 51.089844 102.570313 49.300781 100.199219 48.480469 C 99.140625 48.0625 97.824219 48.121094 96.761719 47.65625 C 97.886719 45.804688 98.238281 42.960938 97.296875 40.875 C 96.589844 39.339844 94.925781 38.570313 93.441406 38.160156 C 89.230469 37.5625 85.550781 39.160156 82.460938 41.949219 C 82.40625 43.195313 83.707031 42.007813 84.320313 42.671875 L 94.746094 57.433594 C 95.289063 58.09375 94.925781 58.621094 94.746094 59.269531 L 94.925781 59.269531 C 96.40625 58.621094 98.128906 57.492188 99.378906 56.304688 C 98.894531 55.957031 98.136719 56.1875 97.71875 55.714844 C 96.472656 53.820313 94.929688 52.15625 94.214844 50.074219 C 98.136719 49.195313 100.867188 53.460938 105.136719 52.28125 C 106.84375 51.730469 109.164063 50.847656 109.574219 48.898438 M 96.054688 45.183594 C 96.121094 46.910156 95.0625 48.390625 93.566406 49.394531 C 91.132813 46.730469 89.296875 43.585938 87.339844 40.75 C 87.339844 40.085938 88.347656 40.085938 88.890625 39.792969 C 90.542969 39.730469 92.027344 40.144531 93.449219 40.75 C 94.761719 42.042969 96 43.46875 96.054688 45.183594 "/>
<path style=" stroke:none;fill-rule:nonzero;fill:rgb(0.799561%,0.799561%,0.799561%);fill-opacity:1;" d="M 47.722656 111.683594 L 47.066406 111.683594 C 46.65625 117.609375 39.769531 114.816406 36.570313 117.851563 L 36.148438 117.609375 C 36.039063 116.132813 35.441406 114.886719 34.785156 113.640625 C 33.832031 111.734375 31.519531 110.675781 29.15625 111.09375 C 24.402344 112.398438 21.972656 116.613281 20.785156 120.996094 L 21.019531 121.230469 C 21.613281 121.296875 21.972656 120.820313 22.382813 120.578125 C 28.550781 122.476563 34.484375 124.855469 40.308594 127.402344 L 40.847656 128.585938 C 42.378906 127.53125 42.320313 125.210938 43.273438 123.609375 C 42.625 122.953125 42.210938 124.199219 41.492188 123.96875 C 39.546875 122.90625 37.222656 122.535156 35.394531 121.230469 C 37.699219 118.511719 41.90625 120.167969 44.519531 118.03125 C 46.65625 116.613281 48.128906 114.234375 47.722656 111.683594 M 33.894531 120.890625 L 23.742188 116.917969 C 24.582031 115.074219 26.835938 114.296875 28.617188 113.828125 C 30.871094 114.070313 33.238281 114.78125 34.304688 116.917969 C 34.726563 118.167969 34.726563 119.878906 33.894531 120.890625 "/>
<path style=" stroke:none;fill-rule:nonzero;fill:rgb(0.799561%,0.799561%,0.799561%);fill-opacity:1;" d="M 336.648438 263.851563 C 336.230469 262.199219 335.390625 264.511719 334.515625 263.800781 C 329.046875 260.722656 323.589844 258.402344 318.316406 255.019531 L 318.023438 253.945313 C 316.585938 254.960938 316.003906 257.035156 315.050781 258.511719 C 315.34375 259.585938 316.007813 258.28125 316.707031 258.511719 C 318.664063 259.476563 320.628906 260.597656 322.460938 261.78125 C 319.914063 264.035156 315.707031 262.3125 312.984375 264.09375 C 311.085938 265.164063 309.300781 267.292969 309.109375 269.621094 C 309.167969 269.972656 309.527344 270.023438 309.824219 270.144531 C 310.832031 264.453125 317.480469 267.589844 321.160156 265.164063 C 321.511719 267.589844 321.875 270.144531 324.128906 271.75 C 325.496094 272.761719 327.441406 272.460938 329.097656 272.101563 C 332.730469 270.976563 335.390625 267.292969 336.648438 263.851563 M 333.039063 267.125 C 331.871094 268.96875 329.488281 269.800781 327.238281 269.5625 C 325.507813 268.96875 323.554688 268.195313 322.953125 266.179688 C 322.542969 264.746094 322.953125 263.507813 323.730469 262.265625 C 326.820313 263.683594 330.082031 265.394531 333.039063 267.125 "/>
<path style=" stroke:none;fill-rule:nonzero;fill:rgb(0.799561%,0.799561%,0.799561%);fill-opacity:1;" d="M 196.269531 17.839844 L 186.828125 17.839844 L 183.871094 8.355469 L 180.964844 17.839844 L 171.472656 17.839844 L 179.175781 23.710938 L 176.21875 33.203125 L 183.871094 27.339844 L 191.574219 33.203125 L 188.613281 23.710938 Z M 192.460938 19.113281 L 187.246094 22.972656 L 189.273438 29.257813 L 184.035156 25.339844 L 178.820313 29.257813 L 180.832031 22.972656 L 175.621094 19.113281 L 182.089844 19.113281 L 184.035156 12.824219 L 186.050781 19.113281 L 192.460938 19.113281 "/>
<path style=" stroke:none;fill-rule:nonzero;fill:rgb(0.799561%,0.799561%,0.799561%);fill-opacity:1;" d="M 216.4375 342.765625 L 206.992188 343.945313 L 202.957031 334.867188 L 201.183594 344.660156 L 191.816406 345.792969 L 200.117188 350.707031 L 198.328125 360.445313 L 205.277344 353.679688 L 213.578125 358.605469 L 209.546875 349.523438 Z M 212.691406 344.796875 L 208.007813 349.25 L 210.730469 355.242188 L 205.097656 352.042969 L 200.40625 356.488281 L 201.59375 350.089844 L 195.964844 346.824219 L 202.367188 346.050781 L 203.5625 339.589844 L 206.28125 345.570313 L 212.691406 344.796875 "/>
<path style=" stroke:none;fill-rule:nonzero;fill:rgb(0.799561%,0.799561%,0.799561%);fill-opacity:1;" d="M 299.085938 65.738281 L 303.421875 56.835938 L 294.820313 61.757813 L 287.875 55.292969 L 289.484375 64.785156 L 280.878906 69.710938 L 290.484375 70.65625 L 292.027344 80.210938 L 296.425781 71.25 L 305.964844 72.261719 Z M 297.640625 65.859375 L 302.324219 70.308594 L 295.855469 69.535156 L 293.003906 75.464844 L 291.890625 69.0625 L 285.417969 68.347656 L 291.179688 65.148438 L 290.046875 58.738281 L 294.730469 63.132813 L 300.496094 59.929688 L 297.640625 65.859375 "/>
<path style=" stroke:none;fill-rule:nonzero;fill:rgb(0.799561%,0.799561%,0.799561%);fill-opacity:1;" d="M 44.777344 259.34375 L 46.570313 249.558594 L 39.566406 256.617188 L 31.207031 252.226563 L 35.230469 261.007813 L 28.292969 268.011719 L 37.785156 266.398438 L 41.882813 275.128906 L 43.660156 265.34375 L 53.152344 263.742188 Z M 44.460938 253.675781 L 43.339844 260.148438 L 49.027344 263.117188 L 42.625 264.117188 L 41.5 270.589844 L 38.636719 264.761719 L 32.238281 265.773438 L 36.867188 261.148438 L 34.082031 255.28125 L 39.773438 258.308594 L 44.460938 253.675781 "/>
<path style=" stroke:none;fill-rule:nonzero;fill:rgb(0.799561%,0.799561%,0.799561%);fill-opacity:1;" d="M 176.085938 346.109375 L 166.71875 344.855469 L 165.050781 335.070313 L 160.902344 344.03125 L 151.53125 342.726563 L 158.289063 349.601563 L 154.078125 358.5625 L 162.507813 353.816406 L 169.265625 360.640625 L 167.660156 350.847656 Z M 171.945313 347.074219 L 166.253906 350.164063 L 167.382813 356.683594 L 162.746094 352.125 L 157.054688 355.261719 L 159.910156 349.265625 L 155.277344 344.769531 L 161.628906 345.65625 L 164.464844 339.71875 L 165.605469 346.1875 L 171.945313 347.074219 "/>
<path style=" stroke:none;fill-rule:nonzero;fill:rgb(0.799561%,0.799561%,0.799561%);fill-opacity:1;" d="M 294.902344 289.394531 C 294.730469 288.507813 296.992188 287.382813 295.09375 287.019531 L 286.421875 295.621094 C 286.613281 296.511719 286.015625 297.820313 286.90625 298.289063 L 287.441406 297.886719 C 287.441406 295.210938 290.054688 293.96875 291.773438 291.953125 L 292.195313 291.953125 L 299.117188 298.417969 L 299.304688 299.0625 C 298.535156 299.664063 297.640625 301.621094 296.386719 300.3125 C 296.097656 301.679688 297.699219 302.453125 298.65625 303.335938 C 298.71875 302.214844 298.949219 300.609375 300.371094 300.078125 L 305.71875 305.003906 C 304.820313 306.894531 302.808594 308.859375 300.554688 308.617188 C 300.792969 309.628906 302.039063 309.445313 302.8125 309.683594 C 305.476563 307.613281 307.796875 305.058594 310.101563 302.683594 L 310.527344 301.679688 C 309.574219 300.609375 308.675781 302.746094 307.605469 301.851563 L 300.660156 295.210938 C 298.65625 293.1875 296.570313 291.714844 294.902344 289.394531 "/>
<path style=" stroke:none;fill-rule:nonzero;fill:rgb(0.799561%,0.799561%,0.799561%);fill-opacity:1;" d="M 354.890625 164.828125 L 354.824219 159.96875 L 354.414063 159.539063 C 354.175781 161.441406 352.214844 162.867188 350.789063 164.171875 C 345.511719 164.171875 340.644531 164.828125 335.191406 164.769531 C 334.65625 164.59375 334.292969 163.945313 334.070313 163.402344 C 333.824219 163.289063 333.597656 163.402344 333.410156 163.519531 C 333.464844 164.890625 333.464844 166.371094 333.710938 167.734375 C 334.902344 168.15625 334.476563 166.546875 335.488281 166.25 C 340.359375 166.25 344.203125 165.476563 348.835938 165.828125 L 348.894531 165.949219 L 334.71875 180.484375 C 334.539063 180.777344 334.296875 181.734375 334.960938 181.792969 L 353.996094 181.3125 C 355.191406 181.367188 355.011719 182.796875 355.71875 183.097656 C 356.78125 181.914063 356.261719 180.070313 356.132813 178.355469 L 355.71875 178.113281 C 355.066406 178.410156 355.242188 179.183594 354.828125 179.65625 C 350.136719 180.070313 345.335938 180.484375 340.585938 180.484375 L 340.054688 180.070313 L 354.890625 164.828125 "/>
<path style=" stroke:none;fill-rule:nonzero;fill:rgb(0.799561%,0.799561%,0.799561%);fill-opacity:1;" d="M 65.066406 281.253906 C 64.003906 281.320313 62.8125 281.191406 62.15625 281.914063 C 62.507813 282.261719 62.925781 282.558594 63.582031 282.390625 C 65.769531 283.214844 67.203125 285.476563 68.632813 287.421875 C 65.957031 290.097656 63.234375 292.113281 60.386719 294.25 C 59.324219 293.769531 58.65625 292.519531 59.195313 291.402344 C 58.0625 291.460938 57.308594 292.882813 56.46875 293.714844 C 56.875 294.1875 57.304688 293.597656 57.824219 293.714844 C 58.300781 294.1875 59.429688 294.660156 59.136719 295.613281 L 54.335938 299.527344 C 53.023438 301.375 52.183594 298.285156 51.300781 297.863281 C 49.765625 296.75 51.894531 295.316406 50.53125 294.1875 C 49.886719 295.027344 49.582031 296.03125 49.226563 296.921875 C 51.359375 299.527344 53.441406 302.667969 56.230469 304.75 C 56.761719 304.210938 56.058594 303.503906 56.347656 302.734375 C 60.441406 298.632813 65.066406 295.613281 69.523438 291.632813 C 70.226563 290.867188 71.421875 290.582031 72.480469 290.757813 C 72.542969 290.097656 71.902344 289.734375 71.710938 289.273438 C 69.691406 286.59375 67.023438 284.042969 65.066406 281.253906 "/>
<path style=" stroke:none;fill-rule:nonzero;fill:rgb(0.799561%,0.799561%,0.799561%);fill-opacity:1;" d="M 329.308594 90.828125 C 328.664063 89.347656 327.296875 87.988281 325.820313 87.453125 C 322.238281 86.203125 318.511719 87.039063 315.425781 88.515625 C 311.800781 90.417969 309.96875 94.148438 309.488281 97.953125 C 309.316406 100.617188 311.035156 102.699219 312.992188 104.183594 C 314.351563 104.71875 316.078125 105.488281 317.433594 104.65625 C 317.386719 102.753906 315.304688 104.246094 314.417969 103.347656 C 313.167969 102.816406 312.113281 101.695313 312.046875 100.386719 C 312.289063 94.75 317.5625 91.367188 322.070313 89.347656 C 324.089844 88.820313 326.347656 89.050781 327.769531 90.652344 C 328.535156 91.902344 328.832031 93.265625 328.664063 94.863281 C 328.832031 95.753906 327.410156 97.003906 328.664063 97.296875 L 331.984375 95.113281 L 331.984375 94.863281 C 331.628906 94.335938 330.921875 94.566406 330.5 94.566406 C 329.308594 93.859375 330.140625 91.902344 329.308594 90.828125 "/>
<path style=" stroke:none;fill-rule:nonzero;fill:rgb(0.799561%,0.799561%,0.799561%);fill-opacity:1;" d="M 35.488281 223.558594 C 35.183594 222.011719 34.421875 220.296875 32.402344 220.65625 L 32.34375 221.1875 C 34.890625 222.429688 34.953125 225.644531 35.375 228.011719 C 29.199219 230.085938 22.972656 231.871094 16.675781 233.765625 C 15.90625 233.765625 16.203125 232.457031 15.25 233.050781 L 17.03125 238.453125 C 17.921875 238.980469 17.746094 237.671875 18.101563 237.148438 L 35.117188 231.871094 C 35.769531 231.621094 36.847656 231.445313 37.078125 232.398438 C 37.253906 232.695313 37.667969 232.640625 37.851563 232.457031 C 37.390625 229.429688 36.136719 226.585938 35.488281 223.558594 "/>
<path style=" stroke:none;fill-rule:nonzero;fill:rgb(0.799561%,0.799561%,0.799561%);fill-opacity:1;" d="M 32.019531 159.914063 C 31.671875 157.820313 29.75 156.335938 27.988281 155.746094 C 25.257813 154.804688 22.230469 155.925781 20.328125 158.0625 L 20.089844 158.0625 C 19.792969 157.238281 19.265625 156.527344 18.726563 155.746094 C 17.589844 154.375 15.695313 155.03125 14.21875 155.089844 C 9.828125 156.933594 10.367188 162.214844 9.535156 165.949219 C 10.003906 167.855469 10.421875 165.238281 11.421875 165.304688 C 17.589844 165.714844 22.9375 166.730469 29.101563 166.902344 C 30.292969 166.664063 30.707031 168.027344 31.117188 168.679688 L 31.242188 168.445313 C 31.664063 165.59375 32.613281 162.746094 32.019531 159.914063 M 30.46875 163.144531 C 23.945313 162.734375 17.425781 161.726563 11.308594 161.015625 C 11.421875 159.761719 12.253906 158.699219 13.324219 158.222656 C 15.460938 157.578125 18.074219 157.878906 19.136719 160.125 C 19.246094 160.367188 19.378906 160.78125 19.730469 160.835938 C 20.550781 159.535156 22.042969 158.457031 23.578125 158.222656 C 26.488281 157.808594 28.972656 159.59375 30.519531 162.03125 C 30.355469 162.441406 31.121094 162.796875 30.46875 163.144531 "/>
<path style=" stroke:none;fill-rule:nonzero;fill:rgb(0.799561%,0.799561%,0.799561%);fill-opacity:1;" d="M 30.816406 192.835938 C 29.625 192.546875 30.632813 193.96875 29.625 194.03125 C 23.214844 194.800781 16.804688 195.632813 10.277344 195.6875 C 9.929688 195.277344 9.6875 194.625 9.09375 194.734375 C 8.730469 196.523438 9.09375 198.777344 9.503906 200.675781 C 10.160156 200.554688 10.273438 199.546875 10.867188 199.3125 C 17.09375 198.777344 23.269531 198.425781 29.738281 197.828125 C 30.871094 198.007813 30.207031 199.722656 31.339844 199.480469 C 31.21875 197.292969 31.464844 194.855469 30.816406 192.835938 "/>
<path style=" stroke:none;fill-rule:nonzero;fill:rgb(0.799561%,0.799561%,0.799561%);fill-opacity:1;" d="M 273.6875 35.507813 C 269.867188 33.734375 266.375 31.230469 262.457031 29.574219 C 260.980469 30.769531 263.882813 31 263.238281 32.367188 C 260.203125 37.65625 258.125 43.34375 254.925781 48.566406 C 254.332031 48.984375 253.085938 48.027344 253.027344 49.035156 C 254.925781 50.285156 256.878906 51.355469 258.957031 52.363281 L 259.445313 52.183594 C 259.675781 51 258.199219 50.578125 258.429688 49.453125 C 259.796875 46.847656 260.980469 44.238281 262.640625 41.6875 L 264.953125 42.511719 C 266.019531 42.753906 265.605469 43.707031 265.605469 44.410156 C 265.542969 44.828125 265.949219 44.941406 266.375 44.941406 C 266.84375 43.515625 268.328125 42.339844 268.152344 40.796875 C 267.507813 40.496094 267.082031 41.214844 266.789063 41.628906 C 265.542969 42.105469 264.125 41.035156 263.296875 40.144531 C 264.367188 37.824219 265.371094 35.460938 266.910156 33.324219 L 271.53125 35.628906 C 272.191406 35.929688 272.84375 36.703125 272.785156 37.59375 C 272.964844 38.003906 272.84375 38.84375 273.617188 38.648438 C 274.027344 37.65625 274.210938 36.519531 273.6875 35.507813 "/>
<path style=" stroke:none;fill-rule:nonzero;fill:rgb(0.799561%,0.799561%,0.799561%);fill-opacity:1;" d="M 349.824219 218.683594 C 347.6875 215.546875 344.484375 213.582031 340.683594 213.527344 C 336.238281 213.347656 332.023438 216.191406 330.253906 220.351563 C 329.660156 222.660156 329.660156 225.628906 331.210938 227.761719 C 331.5 227.710938 331.789063 227.820313 332.023438 227.578125 C 333.628906 228.652344 336.898438 227.398438 336.898438 230.253906 C 337.082031 230.371094 337.433594 230.371094 337.664063 230.253906 C 338.082031 228.480469 338.800781 226.574219 338.628906 224.859375 C 338.324219 224.617188 337.964844 224.976563 337.664063 225.101563 C 335.539063 224.441406 333.039063 224.554688 331.070313 223.554688 C 330.660156 221.359375 331.910156 219.269531 333.75 218.023438 C 336.476563 216.191406 340.511719 216.488281 343.59375 217.445313 C 346.441406 218.925781 349.945313 221.171875 350.015625 224.859375 C 349.945313 226.460938 349.121094 227.820313 347.816406 228.882813 C 347.039063 229.953125 344.242188 229.480469 345.382813 231.03125 C 346.378906 231.148438 347.640625 232.273438 348.339844 231.320313 C 347.273438 229.425781 350.363281 228.769531 350.472656 227.105469 C 351.839844 224.441406 351.425781 221.171875 349.824219 218.683594 "/>
<path style=" stroke:none;fill-rule:nonzero;fill:rgb(0.799561%,0.799561%,0.799561%);fill-opacity:1;" d="M 347.539063 128.8125 C 346.59375 125.246094 342.679688 123.710938 339.410156 123.226563 C 338.582031 122.824219 337.570313 123.710938 337.039063 122.824219 C 336.324219 123.53125 335.199219 123.355469 334.304688 123.710938 C 330.507813 124.835938 326.714844 128.390625 326.242188 132.542969 C 325.714844 135.628906 327.722656 138.480469 330.277344 140.078125 C 335.019531 142.214844 340.429688 141.03125 344.511719 138.121094 C 346.890625 135.574219 348.910156 132.542969 347.539063 128.8125 M 345.617188 132.6875 C 341.234375 136.484375 334.578125 139.445313 328.878906 136.664063 C 328.230469 135.71875 327.277344 134.890625 327.394531 133.699219 C 328.109375 129.898438 331.902344 127.585938 335.296875 126.757813 C 338.855469 125.75 342.296875 125.863281 345.496094 127.410156 L 346.269531 128.480469 C 347.105469 129.960938 346.5625 131.449219 345.617188 132.6875 "/>
<path style=" stroke:none;fill-rule:nonzero;fill:rgb(0.799561%,0.799561%,0.799561%);fill-opacity:1;" d="M 146.132813 14.609375 L 145.785156 14.378906 C 144.589844 14.550781 143.113281 14.609375 142.285156 15.4375 L 143.234375 16.152344 L 141.453125 20.539063 C 140.800781 21.796875 140.628906 23.507813 139.316406 24.285156 C 137.054688 22.628906 134.929688 20.898438 132.976563 18.8125 C 133.214844 18.230469 134.035156 18.054688 133.515625 17.398438 C 131.308594 17.515625 129.050781 18.46875 127.046875 19.292969 L 127.046875 19.957031 L 129.011719 20.125 L 137.011719 26.890625 C 138.082031 30.09375 139.035156 33.304688 139.621094 36.617188 C 139.566406 37.449219 137.671875 37.691406 138.914063 38.339844 C 140.871094 38.046875 142.53125 37.09375 144.601563 36.859375 L 144.65625 36.261719 C 144.074219 36.199219 143.359375 36.152344 143.121094 35.609375 C 142.171875 32.230469 141.226563 29.027344 140.453125 25.585938 C 142.402344 21.964844 143.347656 17.628906 146.132813 14.609375 "/>
<path style=" stroke:none;fill-rule:nonzero;fill:rgb(0.799561%,0.799561%,0.799561%);fill-opacity:1;" d="M 234.410156 18.835938 C 232.925781 16.882813 230.554688 16.234375 227.996094 16.292969 C 223.96875 17.125 220.351563 20.683594 219.277344 24.539063 C 218.273438 28.816406 218.683594 33.441406 222.011719 36.578125 C 223.972656 38.125 227.128906 38.535156 229.484375 37.65625 C 233.28125 35.984375 235.84375 31.953125 236.605469 27.980469 C 237.316406 24.890625 236.675781 21.335938 234.410156 18.835938 M 231.878906 31.019531 C 230.574219 33.339844 229.085938 35.773438 226.414063 36.667969 C 225.539063 36.839844 224.28125 36.960938 223.699219 36.1875 C 220.847656 33.695313 221.253906 29.191406 222.203125 25.808594 C 223.394531 22.539063 225.539063 18.75 229.140625 17.320313 C 230.628906 17.261719 232.105469 17.738281 232.757813 19.160156 C 234.484375 22.953125 232.941406 27.355469 231.878906 31.019531 "/>
<path style=" stroke:none;fill-rule:nonzero;fill:rgb(0.799561%,0.799561%,0.799561%);fill-opacity:1;" d="M 128.535156 326.503906 C 127.589844 326.804688 126.933594 325.972656 126.046875 325.84375 C 125.332031 326.320313 126.464844 326.972656 126.632813 327.445313 C 124.320313 333.378906 122.25 339.320313 119.929688 345.1875 L 119.402344 345.78125 C 117.324219 345.660156 115.835938 343.941406 114.945313 342.460938 L 114.59375 342.699219 C 115.0625 343.535156 114.828125 344.597656 115.605469 345.246094 C 119.09375 346.851563 122.839844 348.160156 126.457031 349.582031 L 127.042969 349.40625 C 127.703125 348.929688 128.941406 348.332031 128.527344 347.496094 L 126.453125 348.386719 C 125.207031 347.980469 123.542969 348.097656 122.996094 346.738281 L 127.578125 334.804688 C 128.527344 332.847656 129.183594 330.707031 130.308594 328.808594 C 130.726563 328.640625 131.316406 328.808594 131.492188 328.277344 C 130.910156 327.21875 129.195313 327.566406 128.535156 326.503906 "/>
<path style=" stroke:none;fill-rule:nonzero;fill:rgb(0.799561%,0.799561%,0.799561%);fill-opacity:1;" d="M 268.464844 314.789063 C 268.296875 313.789063 267.992188 312.710938 267.226563 311.828125 L 266.984375 313.132813 C 265.375 313.132813 263.839844 313.371094 262.527344 314.144531 C 261.222656 315.039063 260.570313 316.511719 260.351563 318 C 260.570313 319.664063 260.515625 321.4375 262.125 322.453125 C 265.738281 324.402344 270.722656 324.644531 272.910156 328.855469 C 273.09375 329.808594 273.445313 330.875 272.621094 331.582031 C 271.253906 333.011719 270.179688 330.875 269.117188 330.875 C 269.53125 332.175781 270.542969 333.191406 271.136719 334.367188 L 271.425781 334.367188 C 271.195313 332.832031 273.042969 333.3125 273.867188 332.832031 C 274.988281 332.058594 275.460938 330.875 275.648438 329.507813 C 276 326.839844 274.214844 324.53125 272.203125 323.105469 C 269.058594 320.730469 263.722656 321.140625 262.65625 316.578125 C 262.707031 315.625 263.488281 314.617188 264.4375 314.195313 C 265.847656 313.371094 267.164063 314.441406 268.464844 314.789063 "/>
<path style=" stroke:none;fill-rule:nonzero;fill:rgb(0.799561%,0.799561%,0.799561%);fill-opacity:1;" d="M 239.914063 329.898438 C 239.558594 328.832031 239.324219 327.40625 238.488281 326.402344 C 238.429688 328.949219 236.175781 326.402344 234.984375 327.476563 C 233.378906 328.066406 232.320313 329.480469 231.492188 330.726563 C 228.949219 337.375 237.363281 338.261719 240.574219 342 C 241.636719 342.898438 241.699219 344.3125 241.636719 345.683594 C 241.277344 346.628906 240.386719 347.164063 239.5 347.164063 C 238.304688 346.867188 238.078125 345.203125 237.136719 345.203125 C 237.136719 346.328125 237.964844 347.164063 238.1875 348.175781 C 238.914063 350.964844 239.269531 347.039063 240.976563 348.226563 C 242.710938 347.996094 244.007813 346.75 244.425781 345.027344 C 244.960938 340.277344 240.15625 336.898438 236.53125 335.0625 C 235.042969 333.753906 232.976563 332.039063 233.796875 329.898438 C 234.460938 328.296875 236.109375 328.417969 237.53125 328.722656 C 238.304688 328.890625 238.847656 330.308594 239.914063 329.898438 "/>
<path style=" stroke:none;fill-rule:nonzero;fill:rgb(0.799561%,0.799561%,0.799561%);fill-opacity:1;" d="M 136.835938 274.691406 C 136.78125 276.074219 136.304688 277.734375 136.976563 279.007813 C 137.507813 280.167969 138.617188 279.964844 139.527344 280.226563 C 140.449219 281.507813 141.015625 282.890625 141.453125 284.378906 C 140.773438 284.542969 140.34375 283.375 139.8125 283.105469 C 137.933594 281.398438 134.5625 279.589844 135.53125 276.234375 C 135.050781 275.222656 137.65625 271.019531 136.835938 274.691406 M 299.851563 165.722656 C 296.402344 161.929688 292.730469 166.796875 289.46875 168.21875 C 288.636719 168.628906 287.746094 169.464844 286.917969 169.234375 C 291.066406 161.929688 296.351563 155.230469 296.996094 146.449219 C 297.066406 144.308594 296.402344 142.230469 294.5 141.160156 C 293.269531 140.09375 291.605469 141.046875 290.46875 141.589844 C 287.027344 144.492188 284.074219 148.046875 280.324219 150.832031 L 280.085938 150.660156 C 281.160156 146.214844 282.695313 141.9375 283.644531 137.304688 C 284.539063 132.386719 286.847656 125.855469 282.882813 121.648438 C 281.738281 120.578125 280.265625 121.117188 279.015625 121.46875 C 276.476563 124.316406 274.332031 127.402344 271.964844 130.066406 L 271.605469 129.71875 C 272.667969 122.292969 274.152344 114.058594 272.617188 106.339844 C 271.847656 105.097656 270.53125 103.679688 269.113281 103.679688 C 267.390625 103.4375 266.269531 104.621094 265.25 105.6875 C 262.523438 109.90625 260.347656 114.46875 257.371094 118.378906 C 257.371094 109.488281 258.492188 99.753906 255.640625 91.335938 C 254.398438 89.671875 252.5625 88.546875 250.492188 88.777344 C 249.53125 89.441406 248.53125 90.203125 247.886719 91.273438 C 243.664063 100.585938 239.335938 109.71875 235.195313 119.042969 C 234.128906 120.820313 233.769531 123.0625 232.460938 124.734375 C 228.246094 134.347656 224.210938 144.015625 219.535156 153.386719 L 219.109375 153.386719 C 216.558594 150.238281 214.652344 146.859375 212.117188 144.128906 C 208.070313 139.203125 203.5625 135.828125 198.875 131.726563 C 202.132813 128.824219 206.292969 126.457031 208.425781 122.476563 L 208.480469 110.378906 C 208.480469 109.0625 207.597656 108.296875 206.710938 107.410156 C 205.945313 107 204.628906 107 204.808594 105.976563 C 213.355469 102.070313 221 96.261719 228.964844 90.617188 C 231.386719 87.714844 229.917969 83.4375 230.140625 79.707031 C 230.324219 77.6875 230.503906 75.492188 229.253906 73.773438 C 222.488281 67.714844 213.113281 66.605469 204.453125 64.636719 L 203.734375 64.996094 C 203.5625 68.679688 203.5625 73.359375 203.734375 76.917969 C 208.070313 78.570313 213.003906 78.992188 216.664063 82.253906 L 214.132813 83.914063 C 204.515625 88.371094 194.84375 92.339844 186.484375 99.226563 C 184.285156 102.304688 185.65625 106.757813 185.234375 110.019531 C 186.894531 114.058594 191.707031 114.769531 194.902344 116.785156 C 191.882813 119.742188 187.675781 120.9375 185.59375 124.800781 C 185.179688 129.0625 185.519531 133.21875 185.65625 137.484375 L 188.082031 139.800781 C 196.984375 144.960938 205.523438 152.964844 209.730469 162.347656 L 205.460938 165.960938 L 205.050781 165.84375 C 204.507813 163.53125 204.09375 161.460938 203.445313 159.261719 C 203.445313 158.015625 204.921875 157.363281 204.445313 156 C 202.90625 154.273438 201.429688 152.085938 199.410156 150.832031 C 194.007813 149.769531 187.960938 150.421875 182.015625 150.179688 L 180.480469 151.433594 C 177.160156 151.492188 173.71875 151.25 170.570313 151.542969 C 169.089844 152.617188 167.78125 153.804688 166.953125 155.351563 L 166.308594 163.824219 C 166.367188 165.84375 168.855469 166.140625 169.636719 167.742188 C 169.328125 168.28125 169.089844 169.234375 168.261719 169.234375 C 165.238281 167.566406 162.328125 165.011719 159.53125 162.703125 L 159.476563 162.050781 C 162.679688 154.632813 169.507813 147.632813 176.085938 142.949219 C 178.347656 140.515625 181.851563 140.214844 183.445313 137.074219 L 183.5 127.933594 C 184.511719 121.820313 177.28125 120.289063 174.074219 116.722656 L 174.3125 116.363281 C 177.390625 114.589844 181.726563 113.996094 183.5 110.378906 C 183.324219 106.757813 184.453125 102.488281 182.617188 99.226563 C 174.074219 92.160156 163.691406 88.070313 153.960938 83.199219 C 153.371094 82.667969 152.304688 82.609375 152.117188 81.722656 C 155.980469 78.765625 160.78125 78.101563 165.230469 76.679688 C 165.890625 72.710938 165.175781 68.792969 165.46875 64.8125 L 165.296875 64.578125 C 159.121094 64.867188 153.367188 66.945313 147.621094 68.492188 C 144.535156 70.265625 140.496094 71.171875 138.777344 74.78125 L 138.707031 87.65625 C 138.777344 88.71875 139.601563 89.554688 140.253906 90.324219 C 148.09375 96.144531 155.980469 101.894531 164.40625 106.105469 C 162.980469 107 161.496094 107.886719 160.550781 109.3125 C 160.3125 113.398438 160.375 117.558594 160.375 121.820313 C 162.214844 126.035156 166.785156 128.824219 170.277344 131.792969 C 168.679688 133.21875 166.785156 134.523438 165.238281 135.828125 C 159.128906 141.105469 154.378906 147.097656 149.988281 153.628906 C 149.824219 153.738281 149.574219 153.628906 149.515625 153.4375 L 135.636719 122.953125 C 132.78125 116.613281 129.824219 110.3125 126.910156 103.851563 C 124.84375 99.164063 122.824219 94.539063 120.328125 90.089844 C 119.4375 89.140625 118.25 88.308594 116.773438 88.546875 C 115.460938 89.25 113.792969 89.96875 113.269531 91.515625 C 111.605469 96.84375 111.371094 103.550781 111.492188 108.886719 C 111.605469 112.039063 111.777344 115.539063 111.777344 118.683594 L 106.507813 110.136719 C 104.664063 107.757813 103.660156 103.316406 99.625 103.617188 C 98.320313 104.03125 97.25 104.855469 96.605469 106.105469 C 95.109375 114.175781 96.246094 122.894531 97.902344 130.90625 L 97.667969 131.082031 C 94.882813 127.933594 92.730469 124.734375 90.074219 121.648438 C 89.128906 121.226563 87.878906 120.699219 86.871094 121.347656 C 84.796875 122.292969 83.960938 124.800781 83.851563 126.929688 C 84.148438 134.996094 86.816406 142.640625 88.828125 150.179688 C 88.828125 150.589844 89.410156 151.132813 88.769531 151.308594 L 77.972656 141.519531 L 75.421875 141.046875 C 73.875 141.460938 72.453125 142.824219 72.042969 144.425781 C 71.441406 154.460938 77.914063 161.929688 82.417969 170.121094 L 82.234375 170.289063 C 78.613281 168.628906 75.65625 165.191406 71.441406 164.78125 C 70.496094 165.070313 69.3125 165.3125 68.605469 166.382813 C 66.996094 168.691406 67.417969 171.839844 68.605469 174.152344 C 72.449219 181.328125 77.308594 188.089844 82.839844 194.4375 L 82.59375 194.847656 L 79.152344 194.027344 C 77.136719 193.90625 75.421875 194.550781 74.347656 196.15625 C 73.761719 197.289063 73.527344 198.476563 73.9375 199.777344 C 77.316406 206.601563 84.375 212.300781 91.253906 215.613281 C 92.984375 216.507813 95.0625 217.160156 96.609375 218.402344 C 96.128906 219.113281 95.472656 219.890625 95.472656 220.851563 C 95.472656 223.269531 97.019531 225.054688 98.976563 226.242188 C 104.023438 229.4375 109.179688 232.351563 114.992188 233.710938 L 148.921875 233.894531 L 149.929688 234.128906 C 145.132813 238.929688 139.191406 243.496094 134.746094 248.957031 C 132.125 252.570313 129.46875 256.375 129.050781 261.058594 C 129.050781 262.253906 130.234375 262.957031 130.882813 263.621094 C 130.769531 264.03125 130.351563 263.96875 130.121094 264.03125 C 128.753906 262.90625 126.96875 262.304688 125.425781 261.410156 C 123.34375 262.0625 122.402344 259.695313 120.738281 259.171875 C 119.730469 258.863281 118.609375 259.050781 117.773438 258.6875 C 117.835938 256.144531 117.355469 253.222656 116.292969 250.914063 C 113.742188 244.925781 110.535156 238.988281 105.558594 234.128906 C 105.015625 233.945313 104.242188 233.945313 103.953125 234.539063 C 103.121094 237.871094 102.285156 241.710938 102.9375 244.925781 C 102.117188 249.730469 103.359375 254.660156 106.917969 258.210938 L 106.621094 258.335938 C 104.242188 255.78125 101.695313 252.75 100.386719 249.429688 C 100.277344 245.347656 99.09375 241.484375 97.605469 237.871094 C 94.335938 233.300781 93.453125 228.015625 90.246094 223.570313 C 88.53125 223.570313 88.046875 225.699219 87.101563 226.769531 C 84.664063 234.363281 85.859375 243.027344 89.128906 249.972656 C 90.484375 252.339844 93.042969 252.691406 95.167969 253.472656 L 98.015625 257.859375 C 96.597656 256.964844 95.46875 255.488281 93.804688 255.128906 C 91.363281 255.070313 89.121094 251.929688 87.042969 253.882813 C 86.8125 254.59375 86.863281 255.371094 87.28125 255.898438 C 91.074219 260.828125 93.5625 267.113281 99.394531 270.496094 C 103.359375 271.683594 107.453125 273.761719 112.015625 272.507813 C 112.429688 272.6875 112.136719 273.046875 112.253906 273.292969 C 111.257813 275.007813 111.773438 277.3125 112.910156 278.679688 C 113.914063 279.625 115.230469 280.332031 116.710938 280.042969 C 117.835938 281.820313 119.855469 283.421875 122.285156 283.011719 C 123.289063 284.316406 125.015625 284.910156 126.675781 284.789063 C 132.671875 289.183594 138.488281 294.101563 143.996094 299.328125 L 147.078125 299.980469 C 152.898438 299.449219 161.257813 304.660156 164.351563 297.183594 C 165 297.316406 165.652344 297.316406 166.132813 297.96875 C 166.542969 302.058594 171.878906 300.503906 172.714844 304.246094 C 176.210938 306.625 180.246094 308.699219 184.699219 307.867188 C 187.535156 306.625 191.277344 306.089844 192.9375 302.941406 C 194.058594 301.101563 196.613281 301.453125 198.042969 299.738281 C 198.867188 296.179688 203.027344 296.597656 205.046875 293.863281 C 206.703125 292.144531 204.921875 290.191406 204.695313 288.410156 C 205.570313 286.695313 207.65625 285.332031 206.765625 283.0625 C 203.324219 274.535156 199.347656 266.035156 196.378906 257.382813 C 199.757813 257.445313 203.210938 257.203125 206.414063 257.628906 C 211.039063 264.851563 216.730469 272.273438 224.089844 277.613281 C 225.152344 278.207031 226.519531 278.855469 227.28125 279.625 C 221.242188 282.835938 214.648438 285.03125 208.476563 287.992188 C 207.765625 288.410156 206.761719 289.246094 206.820313 290.25 C 206.710938 292.027344 207.773438 293.507813 208.949219 294.703125 C 211.863281 295.347656 214.121094 293.09375 216.65625 292.800781 C 215.890625 294.042969 214.585938 294.28125 213.765625 295.410156 C 212.9375 297.246094 213.941406 299.089844 215.234375 300.398438 C 216.136719 301.042969 217.199219 301.101563 218.390625 300.867188 L 229.066406 292.800781 L 229.660156 292.800781 C 229.839844 293.628906 229.300781 294.339844 229.71875 294.996094 C 230.429688 295.949219 231.375 296.769531 232.453125 297.011719 C 233.648438 297.183594 234.875 296.890625 235.652344 295.949219 C 237.730469 293.28125 239.148438 290.191406 241.347656 287.582031 C 242.835938 288.765625 244.140625 290.839844 246.386719 290.015625 C 247.9375 289.65625 249.113281 288.351563 249.949219 286.929688 C 252.089844 286.808594 253.859375 284.789063 254.695313 282.894531 C 256.421875 282.242188 258.195313 280.875 258.316406 278.855469 C 258.484375 276.964844 257.546875 275.59375 256.113281 274.648438 C 258.609375 273.292969 261.386719 271.976563 264.1875 270.792969 C 265.84375 269.304688 267.332031 271.683594 268.804688 271.261719 L 276.867188 261.238281 L 277.171875 260.226563 C 275.632813 259.933594 273.792969 260.523438 272.246094 260.410156 L 271.535156 260.226563 C 272.488281 259.105469 273.964844 258.210938 275.152344 257.382813 C 276.039063 257.445313 276.867188 258.039063 277.703125 257.675781 L 283.632813 245.519531 L 283.828125 244.746094 C 279.898438 246.046875 276.039063 247.480469 272.183594 248.898438 C 270.351563 249.136719 271.121094 250.503906 270.941406 251.867188 L 262.109375 258.101563 L 261.871094 257.859375 C 264.238281 253.820313 266.96875 249.972656 269.753906 246.046875 C 270.578125 245.695313 271.953125 246.167969 272.488281 245.347656 C 273.257813 240.539063 274.101563 235.664063 274.574219 230.925781 C 270.359375 233.414063 266.976563 237.023438 262.6875 239.464844 C 262.351563 240.664063 263.761719 241.308594 263.585938 242.558594 C 259.140625 248.785156 255.105469 255.238281 250.652344 261.410156 L 248.210938 262.0625 C 244.71875 262.722656 244.71875 266.992188 241.871094 268 C 239.988281 267.179688 238.910156 264.980469 238.316406 263.136719 C 238.492188 262.78125 238.90625 262.660156 239.140625 262.367188 C 239.804688 261.664063 239.984375 260.648438 239.863281 259.703125 C 237.019531 249.320313 227.695313 241.261719 219.632813 234.488281 L 219.34375 233.710938 L 249.015625 233.535156 C 254.042969 234.296875 258.082031 232.226563 262.234375 230.457031 C 266.035156 227.777344 271.257813 226.53125 273.273438 221.84375 C 273.574219 220.59375 273.273438 219.054688 272.445313 218.050781 C 277.96875 214.847656 283.847656 212.351563 288.757813 207.488281 C 291.96875 204.40625 295.421875 200.671875 294.871094 196.335938 C 294.039063 194.671875 292.4375 193.785156 290.722656 193.609375 C 289.167969 193.429688 287.691406 194.4375 286.449219 193.851563 C 289.472656 189.453125 293.390625 185.414063 295.992188 180.976563 C 298.136719 176.226563 304 171.179688 299.851563 165.722656 M 219.65625 224.84375 L 234.191406 222.828125 L 265.402344 218.90625 C 267.410156 219.027344 270.265625 217.066406 271.335938 219.855469 C 271.152344 223.242188 267.539063 224.300781 265.402344 225.960938 C 261.554688 227.570313 258.167969 230.171875 254.070313 230.882813 L 219.65625 230.882813 Z M 219.65625 219.929688 C 228.195313 216.539063 236.796875 213.6875 245.402344 210.605469 L 274.9375 200.292969 C 279.828125 198.445313 284.496094 196.667969 289.542969 195.246094 C 290.789063 195.363281 292.273438 195.597656 292.742188 196.960938 C 292.324219 201.769531 287.996094 205.210938 284.371094 208.109375 C 279.398438 212.09375 273.757813 214.882813 267.9375 217.023438 C 251.757813 219.386719 235.847656 220.996094 219.652344 223.1875 L 219.652344 219.929688 Z M 245.695313 270.898438 C 245.566406 271.785156 245.148438 272.5625 244.085938 272.382813 C 243.734375 272.445313 243.550781 272.199219 243.550781 272.027344 C 243.785156 271.199219 244.855469 270.425781 245.695313 270.898438 M 252.78125 268.929688 C 251.941406 269.394531 251.011719 268.144531 250.058594 268.144531 C 248.050781 268.144531 246.4375 269.097656 244.539063 268.867188 C 246.011719 267.027344 247.082031 263.640625 250.058594 264.230469 L 250.476563 264.890625 C 249.9375 266.789063 252.4375 267.382813 252.78125 268.929688 M 252.304688 264.019531 C 253.910156 263.789063 254.859375 265.03125 255.804688 266.101563 C 256.335938 266.816406 256.457031 268 256.515625 268.828125 C 256.046875 269.007813 256.214844 268.300781 255.972656 268.171875 C 254.796875 266.816406 252.414063 267.648438 252.007813 265.632813 C 252.0625 265.085938 251.644531 264.261719 252.304688 264.019531 M 255.332031 263.035156 C 254.554688 263.277344 254.085938 262.328125 253.421875 262.222656 C 257.15625 255.628906 262.144531 249.273438 266.121094 242.75 C 266.296875 241.871094 265.226563 240.910156 265.882813 240.074219 C 267.773438 238.949219 269.390625 237.238281 271.277344 236.34375 L 271.585938 236.460938 L 270.152344 243.464844 L 268.207031 243.875 C 263.867188 250.230469 259.59375 256.691406 255.332031 263.035156 M 265.898438 260.859375 C 264.835938 260.980469 263.402344 260.921875 262.933594 261.925781 C 263.765625 263.886719 261.628906 264.3125 260.449219 264.890625 C 259.371094 265.003906 258.066406 266.429688 257.171875 265.351563 L 257.171875 264.761719 C 262.6875 260.671875 268.027344 256.824219 273.5 252.851563 L 273.683594 250.882813 C 275.394531 249.941406 277.300781 249.410156 279.261719 248.867188 L 279.308594 249.046875 C 278.417969 250.949219 278.015625 252.902344 276.636719 254.566406 C 275.9375 254.503906 275.277344 253.914063 274.734375 254.386719 Z M 254.421875 272.761719 L 253.222656 270.671875 C 253.585938 270.207031 254.175781 269.972656 254.835938 269.855469 C 254.945313 270.382813 254.835938 271.21875 255.308594 271.691406 C 256.785156 271.328125 257.257813 269.789063 257.625 268.539063 L 264.664063 265.164063 C 265.261719 264.742188 264.792969 263.910156 265.09375 263.441406 C 267.53125 263.441406 269.652344 262.796875 272.085938 262.851563 C 271.433594 265.046875 269.304688 266.824219 268.042969 268.71875 C 266.8125 268.539063 265.628906 266.894531 264.382813 268.253906 C 261.066406 269.855469 257.789063 271.457031 254.421875 272.761719 M 247.734375 273.082031 C 246.90625 272.839844 247.085938 272.257813 247.214844 271.597656 C 247.613281 270.886719 248.449219 270.539063 249.089844 270.113281 C 250.585938 269.878906 251.832031 270.765625 252.601563 272.015625 C 253.722656 273.554688 253.253906 276.042969 255.269531 277.058594 C 256.273438 277.53125 256.34375 278.78125 256.042969 279.609375 C 255.621094 280.085938 255.269531 280.558594 254.738281 280.851563 C 251.773438 278.839844 249.523438 276.042969 247.734375 273.082031 M 241.792969 276.511719 C 241.378906 276.101563 241.730469 275.445313 242.09375 275.042969 C 242.628906 274.207031 243.570313 273.851563 244.535156 273.785156 C 247.3125 273.308594 247.855469 276.402344 249.566406 278 C 250.695313 279.246094 252.585938 279.902344 252.585938 281.800781 C 252.46875 282.867188 251.9375 284.164063 250.695313 284.40625 L 249.503906 284.351563 C 246.246094 282.089844 245.59375 278.066406 241.792969 276.511719 M 238.40625 281.046875 C 238.222656 280.328125 238.40625 279.496094 238.871094 278.902344 C 239.703125 277.84375 240.941406 278.191406 242.128906 278.433594 C 244.566406 279.496094 245.097656 282.699219 247.476563 284.011719 C 247.949219 284.605469 248.359375 285.492188 247.949219 286.320313 C 247.121094 287.386719 245.808594 288.15625 244.6875 287.386719 C 243.328125 286.4375 243.496094 284.363281 241.839844 283.894531 C 240.535156 283.46875 238.761719 282.699219 238.40625 281.046875 M 239.050781 276.894531 C 238.800781 276.371094 239.46875 275.65625 240.011719 275.535156 C 240.050781 275.839844 240.230469 276.070313 240.230469 276.496094 Z M 232.308594 293.785156 C 233.722656 290.171875 236.515625 287.207031 238.648438 283.820313 C 239.234375 283.882813 239.710938 284.292969 240.253906 284.710938 L 239.65625 286.136719 C 237.519531 288.808594 235.910156 292.128906 233.664063 294.492188 C 232.941406 294.675781 232.53125 294.265625 232.308594 293.785156 M 236.199219 282.988281 L 235.90625 283.222656 C 235.328125 282.390625 235.253906 281.441406 235.546875 280.433594 C 235.546875 279.785156 236.136719 279.425781 236.742188 279.132813 C 236.972656 279.546875 236.972656 280.433594 236.972656 280.90625 C 236.625 281.558594 236.019531 282.152344 236.199219 282.988281 M 216.667969 296.265625 L 233.40625 283.464844 C 234.480469 283.464844 234.714844 284.824219 235.246094 285.476563 C 229.433594 289.925781 224.089844 294.433594 218.214844 298.585938 C 217.578125 298.828125 216.609375 298.289063 216.5 297.578125 Z M 233.089844 276.980469 C 232.847656 275.796875 232.664063 274.316406 232.5 273.007813 L 232.5 272.359375 C 233.5625 272.65625 233.730469 274.019531 234.402344 274.84375 C 234.402344 275.382813 234.628906 275.90625 234.570313 276.449219 C 234.09375 276.808594 233.683594 277.105469 233.089844 276.980469 M 233.746094 279.589844 C 233.339844 280.660156 234.289063 282.558594 232.570313 282.851563 C 225.328125 285.992188 218.269531 289.382813 210.976563 292.34375 C 210.253906 292.707031 209.78125 291.875 209.601563 291.34375 C 209.1875 290.382813 210.429688 289.976563 210.976563 289.734375 C 218.378906 285.992188 226.214844 283.035156 233.746094 279.589844 M 209.78125 257.324219 C 210.617188 257.324219 211.019531 255.488281 211.917969 256.550781 C 212.097656 256.90625 212.332031 257.324219 212.761719 257.382813 C 213.464844 256.550781 212.097656 256.144531 212.210938 255.371094 L 212.097656 255.371094 L 219.625 247.652344 L 219.625 237.023438 C 226.925781 243.207031 235.007813 250.203125 238.136719 258.980469 C 238.246094 259.816406 237.785156 260.355469 237.195313 260.769531 C 233.804688 260.949219 231.613281 258.390625 229.359375 256.429688 C 229.121094 257.261719 230.3125 258.039063 230.785156 258.800781 L 232.515625 260.585938 C 231.859375 260.523438 230.832031 259.40625 230.007813 259.636719 C 231.207031 261.710938 233.574219 262.605469 235.652344 263.433594 L 240.15625 269.660156 C 240.746094 270.199219 241.765625 270.078125 242.59375 269.902344 C 242.050781 270.847656 241.820313 272.15625 241.226563 273.164063 C 239.746094 273.292969 238.246094 274.054688 237.425781 275.417969 L 237.1875 275.417969 C 236.953125 272.992188 235.648438 270.847656 233.332031 269.660156 C 232.917969 267.058594 231.613281 264.324219 229.527344 262.847656 C 230.542969 264.796875 231.378906 267.230469 231.484375 269.425781 C 231.257813 270.019531 230.824219 270.496094 230.300781 270.667969 C 224.839844 270.496094 220.988281 266.167969 217.195313 262.488281 L 216.832031 262.90625 C 220.046875 267.53125 224.671875 271.917969 230.179688 272.738281 C 230.824219 273.933594 231.257813 275.359375 230.953125 276.839844 C 228.875 278.679688 226.738281 275.839844 224.839844 275.121094 C 224.480469 274.230469 223.539063 274.113281 222.945313 273.644531 C 218.03125 268.773438 212.628906 263.554688 209.78125 257.324219 M 208.597656 205.105469 L 212.4375 205.105469 L 212.4375 252.21875 C 211.144531 253.21875 210.3125 255.183594 208.597656 255.117188 Z M 198.53125 205.171875 L 202.445313 205.171875 L 202.445313 255.183594 L 198.53125 255.183594 Z M 203.097656 285.988281 C 199.191406 276.617188 195.507813 267.066406 192.011719 257.402344 L 193.96875 257.402344 C 197.40625 266.414063 201.078125 275.308594 204.710938 284.09375 C 204.351563 284.867188 203.9375 285.808594 203.097656 285.988281 M 188.449219 205.171875 L 192.308594 205.171875 L 192.308594 255.183594 L 188.449219 255.183594 Z M 197.675781 295.265625 C 194.226563 282.933594 191.082031 270.824219 188.054688 258.253906 C 188.175781 257.355469 189.425781 257.355469 190.378906 257.355469 C 194.644531 268.742188 199.320313 279.847656 203.363281 291.296875 C 202.53125 293.613281 199.746094 294.910156 197.675781 295.265625 M 185.292969 260.78125 L 186.367188 259.707031 C 189.988281 272.28125 193.121094 285.339844 196.210938 297.96875 C 195.023438 298.984375 193.769531 299.753906 192.175781 299.8125 L 191.707031 298.804688 C 189.5625 286.109375 187.246094 273.523438 185.292969 260.78125 M 174.902344 298.3125 C 177.339844 286.46875 178.464844 273.765625 181.609375 262.253906 C 181.847656 262.660156 182.269531 262.722656 182.617188 263.144531 L 183.742188 262.132813 L 188.609375 289.902344 C 189.199219 294.050781 190.265625 298.078125 190.449219 302.300781 C 187.789063 304.195313 185.230469 305.5 182.019531 305.734375 C 179.347656 305.261719 177.101563 304.078125 174.851563 302.59375 C 173.835938 301.226563 175.027344 299.621094 174.902344 298.3125 M 178.386719 255.867188 L 178.386719 205.273438 L 182.230469 205.273438 L 182.230469 259.726563 Z M 169.097656 297.746094 C 172.355469 285.121094 175.460938 272.183594 179.070313 259.550781 C 179.546875 259.550781 179.953125 260.199219 180.316406 260.558594 C 178.117188 273.730469 175.75 286.488281 173.554688 299.527344 C 173.367188 300.015625 172.488281 299.832031 172.128906 299.59375 C 171.0625 299.179688 169.929688 298.769531 169.097656 297.746094 M 161.984375 291.839844 C 163.058594 288.523438 164.121094 285.089844 165.613281 281.875 C 168.929688 273.695313 172.136719 265.566406 175.335938 257.316406 C 176.234375 257.316406 177.410156 257.195313 177.71875 258.269531 L 167.925781 295.347656 C 166.671875 296.070313 165.550781 294.824219 164.472656 294.226563 C 163.894531 293.214844 163.058594 292.261719 161.984375 291.839844 M 163.164063 257.324219 L 169.261719 257.324219 C 165.878906 266.277344 161.789063 275.007813 158.410156 284.019531 C 157.765625 286.335938 161.03125 287.226563 160.378906 289.296875 C 160.316406 290.191406 159.960938 291.320313 158.953125 291.503906 C 157.765625 291.265625 156.160156 291.917969 154.859375 291.503906 C 154.203125 285.921875 151 281.121094 146.796875 277.140625 L 146.796875 276.664063 C 153.3125 271.203125 158.949219 264.5625 163.164063 257.324219 M 158.238281 252.773438 L 158.238281 205.128906 L 162.101563 205.128906 L 162.101563 255.140625 C 160.195313 255.972656 159.539063 253.597656 158.238281 252.773438 M 144.988281 283.699219 C 146.710938 286.550781 148.734375 289.339844 150.335938 292.300781 C 143.867188 291.238281 146.003906 283.351563 142.449219 279.378906 C 142.921875 279.078125 143.511719 278.3125 144.34375 278.429688 C 148.015625 281.921875 151.507813 285.546875 151.8125 290.769531 C 149.867188 288.214844 147.132813 285.425781 145.226563 282.699219 C 144.515625 282.699219 145.109375 283.289063 144.988281 283.699219 M 168.710938 205.171875 L 172.566406 205.171875 L 172.566406 255.183594 L 168.710938 255.183594 Z M 173.613281 257.179688 C 169.878906 266.898438 166.5625 276.753906 162.175781 286.183594 C 161.523438 285.832031 161.289063 284.992188 160.800781 284.40625 C 164.191406 275.21875 168.21875 266.257813 172.070313 257.179688 Z M 130.351563 280.554688 C 131.015625 279.664063 132.261719 279.664063 132.671875 278.597656 C 133.078125 279.480469 133.078125 280.726563 133.902344 281.441406 C 138.246094 285 142.804688 288.976563 147.257813 292.472656 C 149.15625 293.84375 151.414063 294.371094 153.304688 295.386719 C 153.714844 295.027344 153.304688 294.671875 153.417969 294.316406 C 156.265625 294.964844 160.011719 292.777344 162.210938 295.207031 C 162.378906 296.394531 161.664063 297.453125 160.722656 298.289063 C 159.359375 299.425781 157.640625 298.585938 155.855469 298.527344 C 152.351563 297.867188 147.964844 298.527344 144.699219 296.863281 C 140.253906 291.574219 134.613281 287.613281 129.15625 283.515625 C 128.226563 282.441406 129.59375 281.441406 130.351563 280.554688 M 124.601563 279.957031 C 125.675781 278.066406 127.34375 276.285156 129.230469 275.101563 C 130.304688 274.914063 131.371094 275.871094 131.546875 276.816406 C 131.546875 279.074219 128.351563 279.546875 127.753906 281.804688 C 127.273438 282.636719 126.03125 282.636719 125.386719 282.214844 C 124.601563 281.804688 124.078125 280.789063 124.601563 279.957031 M 120.179688 276.207031 C 121.671875 274.492188 122.558594 271.757813 125.058594 271.109375 C 125.949219 271.222656 127.128906 271.222656 127.363281 272.417969 C 127.777344 273.238281 127.363281 274.308594 126.941406 275.019531 L 122.4375 280.300781 C 121.671875 280.660156 120.78125 280.480469 120.179688 279.996094 C 118.941406 278.9375 119.476563 277.449219 120.179688 276.207031 M 104.679688 264.96875 C 105.566406 265.375 106.816406 265.199219 107.40625 266.273438 C 104.621094 266.511719 102.128906 265.03125 99.761719 263.777344 C 99.636719 264.726563 100.707031 265.375 101.476563 265.863281 C 103.84375 267.109375 106.332031 267.988281 109.183594 267.988281 L 111.089844 269.828125 C 106.160156 270.78125 101.238281 268.589844 97.320313 265.503906 L 91.09375 256.898438 L 91.269531 256.480469 C 96.671875 257.132813 99.398438 263.898438 104.679688 264.96875 M 97.957031 247.359375 C 96.246094 246.585938 95.824219 244.328125 94.097656 243.617188 C 93.566406 240.289063 91.316406 237.738281 90.78125 234.417969 C 90.601563 234.363281 90.484375 234.363281 90.375 234.1875 C 89.949219 235.191406 90.3125 236.554688 90.546875 237.675781 C 92.679688 241.597656 93.515625 246.167969 95.003906 250.320313 C 93.867188 250.441406 92.789063 249.777344 91.847656 248.84375 C 89.949219 246.40625 89.832031 243.199219 89 240.234375 C 88.347656 236.085938 87.933594 230.984375 90.0625 227.363281 L 90.78125 228.015625 C 92.859375 234.597656 97.605469 240.234375 97.957031 247.359375 M 115.019531 262.105469 L 114.421875 262.699219 C 113.429688 261.039063 113.65625 258.726563 112.535156 257.128906 C 112.050781 254.925781 112.183594 252.492188 110.15625 251.246094 C 109.746094 252.492188 110.816406 253.808594 110.988281 255.222656 C 111.40625 258.253906 112.363281 261.039063 113.429688 263.773438 L 112.945313 264.664063 C 112.292969 258.90625 105.707031 255.222656 105.175781 249.171875 L 105.113281 239.386719 L 105.699219 237.546875 C 109.207031 242.527344 112.464844 247.695313 114.609375 253.203125 C 115.320313 256.058594 115.734375 259.386719 115.019531 262.105469 M 115.53125 270.230469 L 114.535156 271.175781 C 106.222656 264.296875 97.316406 255.691406 94.652344 245.433594 C 99.109375 252.488281 104.96875 260.265625 111.921875 265.957031 C 112.273438 266.078125 112.445313 265.605469 112.683594 265.414063 C 113.21875 267.085938 113.511719 269.339844 115.53125 270.230469 M 118.527344 268.457031 C 119.488281 267.804688 120.839844 267.753906 121.796875 268.398438 C 123.917969 270.539063 120.597656 272.261719 119.890625 273.917969 C 118.945313 275.339844 118.0625 277.894531 115.976563 277.648438 C 115.09375 277.539063 114.679688 276.640625 114.019531 275.996094 C 113.605469 272.78125 116.988281 271.007813 118.527344 268.457031 M 150.488281 236.5625 L 150.488281 247.894531 L 157.777344 255.132813 C 157.480469 255.839844 156.296875 256.90625 157.121094 257.4375 L 158.375 255.949219 C 159.144531 256.195313 159.375 257.503906 160.328125 257.023438 C 157.074219 263.675781 151.371094 269.355469 145.84375 274.292969 C 144.847656 274.292969 144.957031 275.523438 144.007813 275.714844 C 142.289063 276.542969 140.570313 278.078125 138.621094 277.550781 C 138.023438 276.066406 138.371094 274.222656 139.097656 272.929688 C 141.402344 272.683594 143.359375 271.675781 145.265625 270.429688 C 148.167969 268.242188 150.894531 266.164063 152.617188 262.84375 L 152.378906 262.714844 C 148.636719 266.335938 144.609375 270.546875 139.335938 270.902344 C 138.675781 270.789063 138.082031 270.25 137.953125 269.597656 C 138.074219 267.226563 139.027344 265.152344 139.984375 263.191406 C 139.265625 262.953125 139.097656 264.027344 138.503906 264.4375 C 136.308594 266.222656 137.375 270.015625 134.582031 270.902344 C 133.398438 272.085938 132.695313 273.511719 132.574219 275.117188 C 130.855469 274.164063 131.742188 271.617188 129.546875 270.902344 C 128.242188 271.082031 127.46875 269.539063 126.632813 268.765625 C 125.921875 267.582031 124.492188 266.757813 123.007813 267.171875 C 121.945313 266.757813 120.816406 266.164063 119.582031 266.453125 C 118.507813 266.453125 117.496094 269.058594 116.613281 267.226563 C 115.789063 265.980469 117.859375 265.742188 118.046875 264.675781 C 118.382813 263.425781 117.023438 261.476563 118.75 260.886719 C 120.707031 260.515625 121.648438 262.183594 123.144531 263.015625 C 125.691406 262.953125 127.472656 264.617188 129.492188 265.921875 C 132.871094 266.09375 134.054688 262.300781 137.324219 262.011719 C 138.027344 261.476563 139.269531 260.707031 139.445313 259.8125 L 139.269531 259.753906 C 138.082031 260.285156 137.132813 261.289063 135.882813 261.539063 C 135.882813 261.054688 137.375 260.515625 137.960938 259.8125 C 138.628906 258.742188 140.285156 257.855469 140.285156 256.488281 C 138.082031 258.679688 135.476563 261.289063 132.089844 260.886719 C 130.371094 258.976563 132.574219 256.609375 133.398438 254.585938 C 137.960938 247.535156 143.902344 242.257813 150.488281 236.5625 M 97.808594 220.429688 C 98.160156 219.601563 98.699219 218.765625 99.652344 218.527344 C 116.496094 220.660156 133.582031 222.6875 150.308594 224.878906 L 150.308594 231.226563 L 128.953125 231.226563 C 128.601563 231.277344 127.890625 231.171875 127.300781 231.226563 L 115.015625 231.226563 C 109.5 229.382813 104.210938 226.953125 99.53125 223.449219 C 98.699219 222.566406 97.808594 221.734375 97.808594 220.429688 M 150.574219 219.945313 L 150.574219 223.382813 C 133.667969 221.605469 117.59375 219.171875 100.859375 217.035156 C 91.738281 213.539063 82.351563 208.554688 76.839844 199.417969 C 76.597656 198.589844 76.476563 197.636719 76.898438 196.808594 C 78.324219 195.09375 80.75 195.445313 82.535156 196.152344 C 105.011719 204.453125 127.96875 211.636719 150.574219 219.945313 M 86.65625 174.230469 L 91.222656 177.195313 L 115.492188 192.675781 L 141.648438 209.222656 C 144.5 211.074219 147.46875 212.789063 150.132813 214.683594 L 150.246094 218.246094 C 129.726563 211.074219 108.773438 204.300781 88.257813 196.824219 C 81.1875 189.175781 74.667969 180.636719 70.160156 171.679688 C 69.582031 170.550781 70.046875 169.117188 70.160156 167.996094 C 70.703125 166.621094 72.0625 166.335938 73.316406 166.21875 C 77.992188 168.308594 82.203125 171.632813 86.65625 174.230469 M 108.160156 170.515625 L 130.242188 190.636719 L 150.226563 209.195313 L 150.335938 213.113281 C 149.269531 212.648438 148.210938 212.171875 147.199219 211.332031 C 127.507813 198.820313 107.511719 186.539063 87.871094 173.664063 C 82.40625 164.828125 75.230469 156.453125 74.105469 145.660156 C 74.171875 144.59375 75 143.589844 76.066406 143.351563 C 78.082031 143.292969 79.574219 144.472656 80.871094 145.546875 Z M 120.300781 162.320313 L 146.527344 196.023438 L 150.328125 200.996094 L 150.328125 206.992188 L 149.136719 206.394531 C 133.605469 192.222656 118.164063 178.335938 102.6875 163.980469 L 92.769531 154.847656 C 89.8125 146.949219 87.855469 138.472656 86.429688 129.875 C 86.191406 127.914063 85.949219 125.121094 87.675781 123.46875 C 88.210938 122.695313 89.273438 122.816406 89.921875 123.351563 C 100.191406 136.042969 110.164063 149.386719 120.300781 162.320313 M 140.050781 168.707031 C 143.601563 174.632813 147.226563 180.507813 150.558594 186.496094 L 150.558594 198.296875 C 145.5 192.253906 140.464844 185.914063 136.007813 179.910156 L 117.5625 156.179688 L 101.480469 135.183594 C 99.464844 126.109375 97.214844 115.671875 99.289063 106.351563 C 99.703125 105.347656 101.007813 105.347656 101.902344 105.695313 C 103.496094 106.351563 104.566406 108.128906 105.390625 109.613281 Z M 148.648438 157.332031 C 147.585938 160.355469 150.183594 162.433594 151.96875 164.445313 C 154.644531 170.265625 157.484375 176.019531 159.863281 181.957031 L 150.308594 181.957031 C 150.136719 182.359375 150.1875 183.019531 150.1875 183.492188 C 144.972656 175.421875 140.175781 166.882813 135.238281 158.699219 C 128.480469 147.25 121.78125 135.730469 115.015625 124.347656 C 113.898438 113.902344 113.421875 103.636719 115.015625 93.023438 C 115.3125 92.199219 116.019531 91.417969 116.910156 91.238281 C 117.976563 91.125 118.992188 91.714844 119.40625 92.722656 C 129.125 114.316406 139.097656 135.730469 148.648438 157.332031 M 156.855469 168.769531 C 160.832031 171.074219 164.632813 173.867188 168.484375 176.363281 C 169.78125 177.0625 171.265625 176.363281 172.511719 175.816406 L 172.570313 182.109375 L 162.726563 182.109375 C 160.417969 177.847656 158.585938 173.269531 156.855469 168.769531 M 151.808594 78.710938 C 150.925781 79.289063 150.082031 80.605469 148.847656 80.132813 C 146.351563 78.589844 144.046875 77.101563 142.441406 74.554688 C 143.332031 72.886719 145.222656 72.117188 146.882813 71.292969 C 152.171875 69.394531 157.511719 67.859375 163.207031 66.953125 L 163.507813 67.859375 L 163.328125 74.199219 C 159.410156 75.4375 155.488281 76.800781 151.808594 78.710938 M 178.964844 101.175781 C 175.945313 103.546875 172.5625 104.316406 168.820313 105.09375 L 166.445313 104.316406 C 157.96875 99.988281 149.894531 95.007813 142.296875 88.714844 C 141.171875 88.011719 141.066406 86.761719 141.171875 85.515625 L 141.226563 76.265625 C 142.242188 76.792969 142.886719 77.738281 143.789063 78.566406 C 154.929688 87.171875 168.167969 91.207031 179.144531 99.515625 C 179.570313 99.988281 179.144531 100.765625 178.964844 101.175781 M 171.367188 114.769531 C 169.226563 112.871094 164.953125 112.039063 165.183594 108.359375 C 168.210938 105.6875 172.78125 106.277344 176.21875 104.5625 C 177.941406 103.738281 179.90625 102.957031 180.726563 100.941406 C 181.964844 102.488281 181.144531 104.320313 181.375 106.339844 C 181.144531 107.828125 181.742188 109.492188 180.5 110.734375 C 177.53125 112.214844 174.742188 114.121094 171.367188 114.769531 M 179.390625 126.082031 C 177.796875 128.214844 175.117188 128.867188 172.925781 130.175781 C 169.304688 127.972656 165.273438 124.886719 162.785156 121.214844 L 162.847656 109.882813 L 163.433594 109.234375 C 163.601563 110.886719 164.09375 112.367188 165.324219 113.613281 L 178.847656 123.53125 C 179.511719 124.058594 180.335938 125.246094 179.390625 126.082031 M 158.105469 160.382813 C 156.6875 159.726563 155.375 158.015625 154.671875 156.53125 C 154.078125 155.289063 153.304688 153.804688 153.71875 152.316406 C 158.585938 145.140625 164.695313 138.617188 171.523438 133.039063 C 174.480469 130.3125 178.691406 129.835938 181.070313 126.277344 L 181.359375 126.457031 L 181.480469 136.007813 C 179.347656 138.074219 176.554688 139.621094 174.066406 141.460938 C 167.597656 146.386719 161.722656 153.320313 158.105469 160.382813 M 171.257813 168.238281 C 172.035156 166.339844 170.019531 164.027344 172.269531 162.71875 C 173.339844 162.78125 174.351563 163.136719 175.179688 164.027344 C 172.269531 166.339844 172.507813 170.195313 171.441406 173.394531 C 170.855469 174.414063 169.714844 174.347656 168.835938 174.175781 C 162.554688 170.015625 156.316406 165.988281 150.367188 161.0625 C 149.429688 159.808594 148.957031 158.15625 150.023438 156.847656 L 152.109375 153.828125 C 154.003906 160.886719 161.011719 165.335938 166.347656 170.144531 C 167.171875 170.605469 168.242188 170.855469 169.304688 170.605469 C 170.429688 170.378906 170.855469 169.121094 171.257813 168.238281 M 176.269531 168.9375 C 175.621094 169.9375 174.851563 171.128906 173.835938 171.839844 C 173.953125 170.417969 173.953125 168.632813 174.792969 167.339844 C 175.742188 167.398438 176.679688 167.75 176.269531 168.9375 M 175.621094 165.382813 C 176.570313 163.546875 178.164063 165.976563 179.699219 165.625 C 180.898438 165.566406 182.269531 165.683594 183.261719 166.390625 C 183.332031 166.921875 182.679688 166.863281 182.273438 166.921875 C 179.699219 167.109375 177.757813 166.039063 175.621094 165.382813 M 204.097656 182.109375 L 174.675781 182.109375 L 174.675781 174.515625 C 176.042969 172.5625 178.589844 170.839844 178.710938 168.285156 C 181.085938 168.585938 183.34375 169.410156 185.605469 169.828125 L 185.953125 169.410156 C 185.769531 168.40625 183.214844 168.9375 184.820313 167.863281 C 185.0625 167.277344 185.0625 166.617188 184.820313 166.039063 C 182.390625 163.652344 178.769531 166.039063 176.460938 163.546875 C 174.976563 162.175781 172.953125 161.113281 171.0625 161.933594 C 170.050781 162.835938 169.640625 163.957031 169.457031 165.144531 C 168.800781 165.144531 168.625 164.378906 168.507813 163.894531 C 168.621094 161.292969 168.746094 158.441406 169.214844 155.707031 C 171.117188 151.808594 176.042969 154.105469 179.421875 153.574219 C 180.488281 154.527344 181.023438 156.726563 183.042969 156.128906 C 183.816406 157.074219 184.941406 157.195313 186 156.953125 C 188.445313 156.835938 186.363281 152.917969 189.386719 154.164063 C 189.980469 154.527344 190.632813 154.40625 191.285156 154.527344 C 191.464844 154.222656 191.824219 153.753906 191.402344 153.515625 C 189.976563 152.449219 188.023438 152.628906 186.363281 153.039063 C 184.40625 152.75 182.324219 156.953125 181.078125 153.574219 C 181.144531 152.917969 181.910156 152.75 182.324219 152.273438 L 198.164063 152.273438 C 200.015625 153.039063 201.484375 155.183594 202.679688 156.65625 C 202.839844 157.605469 201.90625 158.148438 201.90625 159.027344 C 203.804688 166.6875 204.582031 174.105469 204.097656 182.109375 M 217.675781 184.082031 L 217.675781 247.199219 L 213.753906 251.007813 L 213.753906 203.953125 L 207.289063 203.835938 L 207.160156 255.277344 L 203.902344 255.277344 L 203.902344 203.953125 L 197.378906 203.835938 L 197.328125 255.277344 L 193.703125 255.277344 L 193.703125 203.953125 L 187.0625 203.835938 L 187 256.339844 L 183.625 259.726563 L 183.625 203.953125 L 177.089844 203.835938 L 177.03125 255.277344 L 174.007813 255.277344 L 174.007813 203.953125 L 167.484375 203.835938 L 167.300781 255.277344 L 163.621094 255.277344 L 163.621094 203.953125 L 157.097656 203.835938 L 156.929688 251.652344 L 152.710938 247.441406 L 152.710938 184.082031 Z M 206.144531 173.214844 C 208.230469 171.488281 210.367188 170.25 212.613281 169.003906 C 210.890625 173.453125 209.222656 177.957031 206.867188 181.929688 C 206.496094 182.109375 206.140625 181.757813 206.320313 181.457031 C 206.6875 178.546875 206.023438 176 206.144531 173.214844 M 189.960938 102.664063 C 193.75 105.511719 198.507813 105.867188 202.890625 107.230469 C 203.65625 107.777344 204.367188 108.246094 204.316406 109.257813 C 203.308594 111.980469 200.273438 113.097656 198.144531 114.769531 C 195.050781 113.9375 192.261719 112.632813 189.539063 111.035156 C 188.226563 110.378906 188.113281 108.949219 188.050781 107.640625 L 188.296875 101.296875 C 189.304688 100.414063 189.125 102.304688 189.960938 102.664063 M 224.246094 77.714844 C 222.582031 78.785156 220.988281 80.796875 219.199219 80.210938 L 217.484375 78.902344 C 213.921875 76.835938 209.949219 75.808594 206.144531 74.28125 C 206.03125 71.839844 206.144531 69.882813 206.441406 67.332031 C 211.324219 67.988281 215.828125 69.644531 220.453125 70.957031 C 222.472656 71.96875 224.71875 72.371094 226.441406 74.039063 C 227.21875 75.585938 225.199219 76.707031 224.246094 77.714844 M 200.847656 105.289063 C 198.121094 104.816406 195.570313 103.984375 192.898438 102.96875 C 191.953125 102.496094 190.886719 102.027344 190.238281 100.949219 L 190.238281 99.589844 C 196.460938 95.4375 202.988281 92.054688 209.566406 88.558594 C 215.917969 85.472656 222.28125 82.207031 227.730469 76.875 L 228.027344 77.28125 L 227.960938 87.308594 C 226.472656 90.398438 223.15625 91.53125 220.847656 93.601563 C 214.496094 98.042969 207.914063 102.261719 200.847656 105.289063 M 196.386719 130.175781 C 193.960938 128.929688 190.878906 128.09375 189.441406 125.546875 C 189.441406 123.652344 191.570313 122.878906 192.761719 121.808594 L 203.804688 113.917969 C 205.105469 112.785156 205.460938 111.1875 205.996094 109.703125 L 206.53125 110.78125 L 206.417969 121.683594 C 205.523438 123.46875 203.855469 124.472656 202.488281 125.78125 C 200.480469 127.445313 198.578125 129.160156 196.386719 130.175781 M 216.023438 152.375 C 216.078125 155.40625 214.707031 158.367188 212.226563 160.382813 L 211.75 160.382813 C 206.941406 150.722656 197.800781 142.292969 188.550781 136.652344 L 188.257813 136.128906 L 188.3125 126.519531 C 190.8125 129.539063 194.484375 130.546875 197.449219 132.675781 C 204.5625 138.257813 210.917969 144.902344 216.023438 152.375 M 219.910156 159.132813 C 219.148438 163.039063 214.683594 163.992188 212.324219 166.539063 L 206.503906 170.460938 C 205.445313 170.460938 206.09375 168.855469 205.914063 168.207031 C 210.253906 164.171875 215.527344 160.203125 217.3125 154.511719 C 218.605469 155.632813 219.851563 157.230469 219.910156 159.132813 M 255.421875 104.59375 C 255.242188 111.171875 255.492188 117.765625 254.425781 124.230469 L 231.28125 163.738281 L 219.882813 182.902344 C 219.546875 182.71875 219.546875 182.308594 219.546875 181.957031 C 216.460938 181.714844 212.953125 182.128906 209.996094 181.53125 C 212.652344 175.363281 215.265625 169.195313 218.589844 163.265625 C 220.488281 161.71875 221.789063 159.589844 220.96875 156.96875 C 230.753906 135.320313 240.421875 113.605469 250.628906 92.015625 C 251.523438 91.238281 253.007813 91.65625 253.828125 92.429688 C 255.421875 96.105469 255.066406 100.5 255.421875 104.59375 M 268.121094 134.644531 C 258.988281 147.9375 248.785156 160.574219 239.109375 173.15625 C 232.699219 181.21875 226.527344 189.9375 220.011719 197.703125 L 219.65625 197.46875 L 219.835938 185.914063 L 238.164063 154.765625 L 263.671875 110.917969 C 264.976563 109.019531 266.050781 105.988281 268.902344 105.699219 C 269.601563 105.578125 270.378906 106.230469 270.496094 106.886719 C 272.101563 115.964844 270.4375 126.109375 268.121094 134.644531 M 276.546875 154.632813 L 254.542969 175.042969 L 223.867188 203.21875 L 220.015625 206.589844 L 219.664063 206.539063 L 219.664063 200.839844 L 230.347656 186.964844 L 253.953125 156.347656 C 262.140625 145.199219 271.09375 134.515625 279.339844 123.539063 C 280.222656 122.289063 281.953125 123.1875 282.359375 124.257813 C 284.195313 128.464844 282.058594 132.921875 281.648438 137.132813 C 280.101563 143.070313 278.855469 148.984375 276.546875 154.632813 M 281.292969 173.390625 C 260.78125 186.554688 240.773438 199.90625 220.015625 212.71875 L 219.664063 212.609375 L 219.84375 208.988281 L 242.441406 187.984375 L 289.773438 144.328125 C 291.140625 143.550781 293.105469 142.367188 294.53125 143.847656 C 295.59375 145.15625 294.824219 147.050781 294.773438 148.539063 C 292.324219 157.722656 286.515625 165.496094 281.292969 173.390625 M 295.472656 177.757813 C 291.382813 184.398438 286.515625 190.5625 280.878906 196.5 C 260.886719 204.085938 240.535156 210.800781 220.183594 217.851563 L 219.84375 217.851563 C 219.664063 216.851563 219.664063 215.71875 219.84375 214.714844 C 232.117188 207.058594 244.398438 198.929688 256.742188 191.105469 L 282.90625 174.199219 C 287.238281 171.644531 291.273438 168.265625 296.015625 166.308594 C 297.210938 166.308594 298.382813 166.835938 299.046875 168.027344 C 299.859375 171.875 297.078125 174.664063 295.472656 177.757813 "/>
<path style=" stroke:none;fill-rule:nonzero;fill:rgb(0.799561%,0.799561%,0.799561%);fill-opacity:1;" d="M 182.496094 41.511719 L 182.496094 41.757813 C 221.441406 41.757813 256.695313 57.710938 282.21875 83.511719 C 307.738281 109.308594 323.527344 144.949219 323.527344 184.316406 C 323.527344 223.6875 307.738281 259.328125 282.21875 285.125 C 256.695313 310.925781 221.441406 326.882813 182.496094 326.882813 C 143.550781 326.882813 108.292969 310.925781 82.773438 285.125 C 57.25 259.328125 41.464844 223.6875 41.464844 184.316406 C 41.464844 144.949219 57.25 109.308594 82.773438 83.511719 C 108.292969 57.710938 143.550781 41.757813 182.496094 41.757813 L 182.496094 41.269531 C 143.414063 41.269531 108.035156 57.28125 82.425781 83.167969 C 56.816406 109.054688 40.976563 144.816406 40.976563 184.316406 C 40.976563 223.820313 56.816406 259.582031 82.425781 285.46875 C 108.035156 311.355469 143.414063 327.367188 182.496094 327.367188 C 221.574219 327.367188 256.953125 311.355469 282.5625 285.46875 C 308.171875 259.582031 324.011719 223.820313 324.011719 184.316406 C 324.011719 144.816406 308.171875 109.054688 282.5625 83.167969 C 256.953125 57.28125 221.574219 41.269531 182.496094 41.269531 L 182.496094 41.511719 "/>
<path style=" stroke:none;fill-rule:nonzero;fill:rgb(0.799561%,0.799561%,0.799561%);fill-opacity:1;" d="M 182.5 0.125 L 182.5 0.246094 C 232.828125 0.246094 278.390625 20.867188 311.375 54.207031 C 344.355469 87.546875 364.757813 133.605469 364.757813 184.480469 C 364.757813 235.355469 344.355469 281.414063 311.375 314.757813 C 278.390625 348.097656 232.828125 368.714844 182.5 368.714844 C 132.171875 368.714844 86.609375 348.097656 53.625 314.757813 C 20.644531 281.414063 0.242188 235.355469 0.242188 184.480469 C 0.242188 133.605469 20.644531 87.546875 53.625 54.207031 C 86.609375 20.867188 132.171875 0.246094 182.5 0.246094 L 182.5 0.00390625 C 132.105469 0.00390625 86.476563 20.652344 53.453125 54.035156 C 20.425781 87.421875 0 133.539063 0 184.480469 C 0 235.421875 20.425781 281.542969 53.453125 314.925781 C 86.476563 348.3125 132.105469 368.960938 182.5 368.960938 C 232.894531 368.960938 278.523438 348.3125 311.546875 314.925781 C 344.574219 281.542969 365 235.421875 365 184.480469 C 365 133.539063 344.574219 87.421875 311.546875 54.035156 C 278.523438 20.652344 232.894531 0.00390625 182.5 0.00390625 L 182.5 0.125 "/>
</g>
</svg>
