<svg height='100px' width='100px'  fill="#000000" xmlns="http://www.w3.org/2000/svg" xmlns:xlink="http://www.w3.org/1999/xlink" version="1.1" x="0px" y="0px" viewBox="0 0 64 64" style="enable-background:new 0 0 64 64;" xml:space="preserve"><g><path d="M14,51c1.654,0,3-1.346,3-3s-1.346-3-3-3s-3,1.346-3,3S12.346,51,14,51z M14,47c0.551,0,1,0.448,1,1s-0.449,1-1,1   s-1-0.448-1-1S13.449,47,14,47z"></path><path d="M47.587,41.933l-10.26,9.327l1.346,1.48l1.379-1.253L42.685,61H21.315l2.634-9.513l1.379,1.253l1.346-1.48l-10.261-9.327   c-1.323-1.203-3.5-1.203-4.825,0L1.327,51.26l1.346,1.48l1.379-1.253L6.685,61H5v2h54v-2h-1.685l2.634-9.513l1.379,1.253   l1.346-1.48l-10.261-9.327C51.089,40.729,48.912,40.729,47.587,41.933z M5.71,49.98l7.223-6.566c0.586-0.533,1.549-0.533,2.134,0   l7.224,6.567L19.239,61H18v-6h-8v6H8.761L5.71,49.98z M16,61h-4v-4h4V61z M52,61h-4v-4h4V61z M55.239,61H54v-6h-8v6h-1.239   L41.71,49.98l7.223-6.566c0.586-0.533,1.549-0.533,2.134,0l7.224,6.567L55.239,61z"></path><path d="M47,48c0,1.654,1.346,3,3,3s3-1.346,3-3s-1.346-3-3-3S47,46.346,47,48z M51,48c0,0.552-0.449,1-1,1s-1-0.448-1-1   s0.449-1,1-1S51,47.448,51,48z"></path><path d="M10,24c4.624,0,8.442-3.507,8.941-8H22v3c0,1.502,0.694,2.884,1.798,3.816C21.473,24.393,20,27.042,20,29.983V33h11v2H17   c-2.206,0-4,1.794-4,4h2c0-1.103,0.897-2,2-2h30c1.103,0,2,0.897,2,2h2c0-2.206-1.794-4-4-4H33v-2h11v-2.998   c0.005-2.938-1.46-5.586-3.811-7.176C41.301,21.895,42,20.509,42,19v-3h3.059c0.5,4.493,4.317,8,8.941,8c4.962,0,9-4.037,9-9   s-4.038-9-9-9c-4.624,0-8.442,3.507-8.941,8H42v-3c0-5.514-4.486-10-10-10S22,5.486,22,11v3h-3.059c-0.5-4.493-4.317-8-8.941-8   c-4.962,0-9,4.037-9,9S5.038,24,10,24z M61,15c0,3.519-2.613,6.432-6,6.92V20c1.654,0,3-1.346,3-3s-1.346-3-3-3h-2   c-0.551,0-1-0.448-1-1s0.449-1,1-1h2c0.551,0,1,0.448,1,1h2c0-1.654-1.346-3-3-3V8.08C58.387,8.568,61,11.481,61,15z M53,8.08V10   c-1.654,0-3,1.346-3,3s1.346,3,3,3h2c0.551,0,1,0.448,1,1s-0.449,1-1,1h-2c-0.551,0-1-0.448-1-1h-2c0,1.654,1.346,3,3,3v1.92   c-3.387-0.488-6-3.401-6-6.92S49.613,8.568,53,8.08z M32,9.712c1.029,1.193,2.446,1.976,4,2.213V16c0,1.654-1.346,3-3,3h-2   c-1.654,0-3-1.346-3-3v-4.075C29.554,11.688,30.971,10.905,32,9.712z M30.262,21.077l0.037-0.148C30.53,20.962,30.76,21,31,21h2   c0.24,0,0.47-0.038,0.701-0.071l0.038,0.151c0.212,0.844,0.778,1.529,1.529,1.92h-6.539C29.482,22.609,30.051,21.923,30.262,21.077   z M35.171,25c-0.686,1.522-1.768,2.841-3.171,3.811c-1.402-0.969-2.485-2.288-3.17-3.811H35.171z M22,29.983   c0-2.801,1.742-5.243,4.309-6.215c0.696,2.959,2.541,5.507,5.244,7.126L31.764,31H22V29.983z M42,30v1h-9.723l0.238-0.143   c2.643-1.586,4.482-4.127,5.177-7.085C40.262,24.746,42.004,27.194,42,30z M40,11v8c0,1.234-0.771,2.334-1.901,2.781   c-0.244-0.084-0.494-0.159-0.749-0.223l-0.947-0.237c-0.357-0.09-0.634-0.368-0.724-0.727l-0.085-0.341   C37.03,19.374,38,17.804,38,16v-6h-1c-1.543,0-2.976-0.767-3.832-2.051L33,7.697V3.069C36.94,3.564,40,6.928,40,11z M24,11   c0-4.072,3.06-7.436,7-7.931v4.628l-0.168,0.252C29.976,9.233,28.543,10,27,10h-1v6c0,1.804,0.97,3.374,2.406,4.253l-0.085,0.339   c-0.09,0.359-0.369,0.639-0.729,0.728l-1.018,0.253c-0.235,0.058-0.465,0.127-0.691,0.203C24.764,21.323,24,20.227,24,19V11z    M17,15c0,3.519-2.613,6.432-6,6.92V20c1.654,0,3-1.346,3-3s-1.346-3-3-3H9c-0.551,0-1-0.448-1-1s0.449-1,1-1h2   c0.551,0,1,0.448,1,1h2c0-1.654-1.346-3-3-3V8.08C14.387,8.568,17,11.481,17,15z M9,8.08V10c-1.654,0-3,1.346-3,3s1.346,3,3,3h2   c0.551,0,1,0.448,1,1s-0.449,1-1,1H9c-0.551,0-1-0.448-1-1H6c0,1.654,1.346,3,3,3v1.92C5.613,21.432,3,18.519,3,15   S5.613,8.568,9,8.08z"></path></g></svg>