<svg height='100px' width='100px'  fill="#000000" xmlns="http://www.w3.org/2000/svg" xmlns:xlink="http://www.w3.org/1999/xlink" version="1.1" x="0px" y="0px" viewBox="0 0 98 98" enable-background="new 0 0 98 98" xml:space="preserve"><g><path d="M67.4175,7.3893H6.8992v19.3809h60.5183V7.3893z M65.4379,24.7906H8.8788V9.3689h56.5591V24.7906z"></path><path d="M11.8511,89.9863h12.5263V77.9264H11.8511V89.9863z M13.8307,79.906h8.567v8.1006h-8.567V79.906z"></path><path d="M30.8952,89.9863h12.5263V77.9264H30.8952V89.9863z M32.8748,79.906h8.567v8.1006h-8.567V79.906z"></path><path d="M11.8511,74.2688h12.5263V62.2089H11.8511V74.2688z M13.8307,64.1885h8.567v8.1006h-8.567V64.1885z"></path><path d="M11.8511,58.5518h12.5263V46.4919H11.8511V58.5518z M13.8307,48.4715h8.567v8.1006h-8.567V48.4715z"></path><path d="M11.8511,42.8343h12.5263V30.7744H11.8511V42.8343z M13.8307,32.754h8.567v8.1007h-8.567V32.754z"></path><path d="M30.8952,42.8343h12.5263V30.7744H30.8952V42.8343z M32.8748,32.754h8.567v8.1007h-8.567V32.754z"></path><path d="M84.4887,62.4414c0.2107-1.3421,0.318-2.7176,0.318-4.0883c0-3.1946-0.5703-6.3076-1.6935-9.2524l-1.8501,0.7056   c1.0381,2.7186,1.564,5.5942,1.564,8.5467c0,1.2677-0.0986,2.5398-0.2948,3.7809L84.4887,62.4414z"></path><path d="M80.0742,47.1845l1.7496-0.926c-0.5867-1.1092-1.2634-2.1874-2.0105-3.2048l-1.5949,1.1715   C78.9075,45.1647,79.532,46.1604,80.0742,47.1845z"></path><path d="M46.3435,49.3676l1.6084,1.1532c0.4282-0.5978,0.9096-1.1648,1.4306-1.6858l-1.3996-1.3996   C47.3855,48.0322,46.8336,48.6827,46.3435,49.3676z"></path><path d="M46.6741,52.7197l-1.7979-0.8265c-2.6872,5.8485-1.4393,12.8317,3.1067,17.3772l1.3996-1.3996   C45.4194,63.9082,44.332,57.8196,46.6741,52.7197z"></path><path d="M95.1949,85.9701l-14.7069-14.707l2.6069-2.6069l-4.9378-4.9382c1.8276-6.6044,0.2125-13.9588-4.8433-19.2184V1.4886H1   v94.395h72.3138V81.5513l13.1497,13.1501c2.4122,2.4131,6.317,2.4133,8.7314,0C97.6017,92.2941,97.6017,88.3774,95.1949,85.9701z    M71.6483,71.1007c-7.0461,7.0451-18.4483,7.0459-25.4952,0c-7.0456-7.0455-7.0469-18.4488,0-25.4957   c7.0463-7.0453,18.4484-7.0457,25.4952,0C78.6765,52.6342,78.6765,64.0716,71.6483,71.1007z M60.4859,79.906v8.1006h-8.567V79.906   H60.4859z M41.437,68.1037v4.1807h-8.5603v-8.0973h6.876C40.1667,65.5515,40.7395,66.8588,41.437,68.1037z M38.9795,56.5741   h-6.1028v-8.1074h8.5603v0.1354C40.0695,51.0427,39.2275,53.7445,38.9795,56.5741z M51.9208,39.6147v-6.8588h8.569v5.6668   C57.6392,38.1998,54.8443,38.5274,51.9208,39.6147z M71.3342,93.904H2.9796V3.4682h68.3546v39.2222   c-2.5924-2.0658-5.6224-3.4334-8.8647-4.0147v-7.8994H49.9412v9.6965c-1.8919,0.9503-3.6473,2.1919-5.1878,3.7326   c-0.7141,0.714-1.3468,1.485-1.9371,2.2817H30.8971v12.0666h8.0056c0.0122,1.2395,0.1312,2.4617,0.3627,3.6538h-8.3683V74.264   h12.5195v-3.2371c0.4185,0.5095,0.8644,1.0012,1.3368,1.4735c2.7842,2.7845,6.2477,4.6385,10.0143,5.426h-4.8284v12.0599h12.5263   V78.0306c0.5804-0.1039,1.1517-0.2375,1.7174-0.3915l4.9638,4.9643l2.1874-2.1873V93.904z M69.1467,79.8041l-2.8587-2.859   c2.5006-0.9931,4.7999-2.4848,6.76-4.4446c1.9678-1.9678,3.4358-4.2479,4.4109-6.6813l2.8367,2.8371   C78.7589,70.1921,70.5733,78.3725,69.1467,79.8041z M93.7952,93.3018c-1.6395,1.6385-4.2931,1.64-5.9321,0L73.3138,78.7519v-0.3153   l5.7744-5.774l14.707,14.707C95.4297,89.0052,95.4297,91.6663,93.7952,93.3018z"></path><rect x="80.9061" y="83.826" transform="matrix(-0.7071 -0.7071 0.7071 -0.7071 85.7547 205.1502)" width="8.9138" height="1.9794"></rect><rect x="77.8954" y="77.7407" transform="matrix(-0.707 -0.7072 0.7072 -0.707 79.6518 190.4595)" width="2.7658" height="1.9794"></rect><path d="M57.9109,46.1816v3.3454c-2.2551,0.4598-3.9573,2.4577-3.9573,4.8466c0,2.7278,2.2193,4.9466,4.9471,4.9466   c1.6355,0,2.9665,1.331,2.9665,2.9675c0,1.636-1.331,2.967-2.9665,2.967c-1.6365,0-2.9675-1.331-2.9675-2.967h-1.9796   c0,2.3889,1.7022,4.3868,3.9573,4.8466v3.3899h1.9796v-3.3899c2.2549-0.4598,3.9563-2.4577,3.9563-4.8466   c0-2.7278-2.2184-4.9471-4.9461-4.9471c-1.6365,0-2.9675-1.331-2.9675-2.967c0-1.636,1.331-2.967,2.9675-2.967   c1.6355,0,2.9665,1.331,2.9665,2.967h1.9796c0-2.3889-1.7015-4.3868-3.9563-4.8466v-3.3454H57.9109z"></path><rect x="78.288" y="7.6739" width="1.9796" height="28.9494"></rect><rect x="88.18" y="75.6214" transform="matrix(0.7071 0.7071 -0.7071 0.7071 80.8304 -41.9028)" width="5.6241" height="1.9794"></rect><rect x="86.0057" y="71.604" transform="matrix(-0.7071 -0.7071 0.7071 -0.7071 97.1439 185.4257)" width="1.9384" height="1.9794"></rect></g></svg>