<svg height='100px' width='100px'  fill="#000000" xmlns="http://www.w3.org/2000/svg" xmlns:xlink="http://www.w3.org/1999/xlink" version="1.1" x="0px" y="0px" viewBox="0 0 100 100" enable-background="new 0 0 100 100" xml:space="preserve"><path d="M54.61,27.939c-4.328,0-8.392,1.854-11.217,5.043c-2.832-3.189-6.895-5.043-11.213-5.043  c-8.268,0-14.993,6.728-14.993,14.998c0,18.375,24.697,26.651,25.748,26.994c0.151,0.05,0.309,0.074,0.466,0.074  s0.314-0.024,0.466-0.074c1.051-0.343,25.746-8.619,25.746-26.995C69.609,34.667,62.879,27.939,54.61,27.939z M43.401,66.916  c-3.324-1.207-23.214-9.061-23.214-23.979c0-6.616,5.38-11.998,11.993-11.998c4,0,7.727,1.992,9.97,5.327  c0.279,0.415,0.746,0.663,1.245,0.663c0.001,0,0.001,0,0.002,0c0.5,0,0.967-0.25,1.244-0.666c2.232-3.334,5.959-5.325,9.969-5.325  c6.615,0,11.999,5.383,12.003,11.998C66.613,57.855,46.726,65.709,43.401,66.916z M93.064,17.636l0.004-0.014  c-0.017-0.003-0.085-0.02-0.243-0.058c-0.022-0.006-0.046-0.011-0.069-0.017v0.001c-0.369-0.088-1.12-0.269-2.551-0.612  c-3.5-0.837-7.821-3.258-11.633-5.395c-3.137-1.757-5.846-3.275-7.769-3.735c-5.652-1.354-8.284-0.786-22.892,2.376l-0.403,0.087  c-3.538,0.765-4.919,3.565-4.704,5.843c0.209,2.215,1.936,4.488,5.36,4.573h12.824c0.116,1.316,0.708,2.58,1.767,3.492l0.085,0.073  c3.4,2.924,9.532,7.932,12.404,8.617c1.624,0.391,3.758,0.461,6.017,0.536c2.587,0.086,5.261,0.174,7.523,0.716  c0.118,0.028,0.235,0.042,0.351,0.042c0.678,0,1.293-0.463,1.458-1.151c0.192-0.806-0.304-1.615-1.109-1.808  c-2.559-0.612-5.515-0.71-8.123-0.797c-2.103-0.069-4.088-0.135-5.418-0.455c-1.576-0.376-5.951-3.506-11.146-7.974l-0.089-0.076  c-0.963-0.829-0.909-2.141-0.368-2.955c0.663-0.999,1.871-1.16,3.314-0.443c5.609,2.787,8.008,4.266,8.031,4.28  c0.704,0.437,1.629,0.22,2.065-0.484c0.437-0.703,0.221-1.627-0.482-2.064c-0.101-0.063-2.517-1.556-8.279-4.418  c-3.425-1.703-5.992-0.272-7.149,1.47c-0.085,0.129-0.143,0.267-0.216,0.4l-13.422,0c-1.653-0.042-2.329-0.985-2.411-1.855  c-0.098-1.035,0.592-2.249,2.352-2.63l0.402-0.087c14.367-3.109,16.572-3.586,21.559-2.392c1.519,0.364,4.182,1.856,7.001,3.436  c3.982,2.231,8.496,4.761,12.401,5.695l2.319,0.556c0.064,0.016,0.142,0.034,0.229,0.052l0.313,0.078l0.005-0.022  c0.664,0.087,1.551,0.013,1.814-1.083C94.286,19.025,94.354,18.076,93.064,17.636z M51.835,79.313H39.011  c-0.115-1.315-0.706-2.579-1.763-3.488c-0.001-0.001-0.077-0.066-0.078-0.067c-3.4-2.926-9.534-7.939-12.415-8.626  c-1.623-0.39-3.757-0.461-6.015-0.536c-2.587-0.085-5.262-0.174-7.524-0.716c-0.807-0.194-1.616,0.304-1.809,1.108  c-0.192,0.807,0.304,1.615,1.109,1.809c2.559,0.613,5.516,0.711,8.124,0.798c2.102,0.069,4.087,0.135,5.416,0.454  c1.582,0.378,5.961,3.512,11.155,7.982l0.079,0.068c0.963,0.828,0.909,2.141,0.368,2.955c-0.662,0.999-1.868,1.16-3.314,0.443  c-5.609-2.788-8.008-4.267-8.031-4.281c-0.704-0.437-1.629-0.219-2.065,0.484s-0.221,1.628,0.483,2.064  c0.1,0.063,2.516,1.555,8.278,4.418c1.086,0.54,2.086,0.766,2.981,0.766c1.93,0,3.378-1.045,4.168-2.236  c0.085-0.128,0.143-0.267,0.216-0.399l13.422-0.001c1.653,0.042,2.33,0.986,2.412,1.855c0.098,1.035-0.592,2.25-2.353,2.63  l-0.404,0.088c-14.361,3.108-16.57,3.585-21.557,2.391c-1.519-0.364-4.182-1.855-7.001-3.435c-3.982-2.232-8.496-4.761-12.4-5.695  L8.175,79.59c-0.064-0.016-0.142-0.033-0.229-0.052l-0.306-0.075l-0.006,0.021c-0.656-0.087-1.557-0.018-1.821,1.082  c-0.099,0.409-0.168,1.36,1.129,1.802l-0.003,0.012c0.018,0.005,0.079,0.02,0.207,0.05c0.031,0.009,0.063,0.017,0.097,0.024v-0.002  c0.366,0.088,1.116,0.268,2.551,0.613c3.502,0.838,7.822,3.258,11.635,5.395c3.136,1.757,5.845,3.274,7.768,3.735  c1.882,0.45,3.428,0.688,5.192,0.688c3.538,0,7.953-0.956,17.698-3.064l0.403-0.088c3.539-0.765,4.92-3.564,4.705-5.844  C56.987,81.672,55.26,79.398,51.835,79.313z"></path></svg>