<svg height='100px' width='100px'  fill="#000000" xmlns="http://www.w3.org/2000/svg" xmlns:xlink="http://www.w3.org/1999/xlink" xmlns:serif="http://www.serif.com/" viewBox="0 0 123 123" version="1.1" xml:space="preserve" style="" x="0px" y="0px" fill-rule="evenodd" clip-rule="evenodd" stroke-linejoin="round" stroke-miterlimit="1.41421"><rect serif:id="British Virgin Islands" x="0" y="0" width="122.88" height="122.88" style="" fill="none"></rect><path d="M100.918,66.553c0.323,0.009 0.675,0.13 0.779,0.45c0.131,0.406 -0.159,0.823 -0.215,1.187c0,0 0.546,-0.086 0.929,-0.336c0.513,-0.336 0.981,-0.81 1.593,-0.781c0.754,0.036 1.329,0.182 2.302,-0.209c0.837,-0.336 2.184,-0.229 2.029,0.418c-0.12,0.502 -0.763,0.664 -1.304,0.934l-0.105,0.052l-1.151,0.625c-0.079,0.046 -0.159,0.091 -0.238,0.136c-0.156,0.088 -0.314,0.172 -0.476,0.249c-0.369,0.174 -0.777,0.306 -1.189,0.274c-0.759,-0.058 -1.472,-0.495 -2.242,-0.321c-0.602,0.136 -0.66,0.839 -1.258,1.511c-0.79,0.887 -2.373,0.371 -3.287,0.92c-0.423,0.254 -0.809,0.609 -1.316,0.548c-0.819,-0.098 -1.483,-0.983 -2.458,-0.764c-0.572,0.128 -0.626,0.967 -0.692,1.591c-0.108,1.014 1.215,1.979 0.638,2.403c-0.588,0.432 -1.444,-0.242 -2.443,-0.091c-0.411,0.062 -1.013,0.221 -2.053,-0.102c-0.04,-0.012 -0.08,-0.024 -0.12,-0.035c-0.71,-0.193 -1.06,0.834 -1.707,1.236c-0.99,0.615 -2.767,0.022 -2.808,1.701c-0.021,0.848 -0.247,1.595 -0.496,2.576c-0.017,0.065 -0.03,0.131 -0.036,0.198c-0.073,0.758 0.92,1.306 1.063,2.238c0.011,0.069 0.014,0.14 0.004,0.21c-0.007,0.046 -0.018,0.09 -0.036,0.133c-0.012,0.029 -0.027,0.057 -0.045,0.084c-0.29,0.438 -0.905,0.347 -1.326,0.338c-0.821,-0.023 -1.544,0.045 -2.289,0.757c-0.264,0.249 -0.568,0.535 -0.948,0.426c-0.85,-0.246 -0.925,-1.393 -0.711,-2.142c0.326,-1.148 0.777,-2.399 1.531,-3.497c0.227,-0.332 0.184,-0.63 -0.233,-1.223c-0.458,-0.665 -0.504,-1.831 0.302,-1.853c0.605,-0.018 1.018,0.43 1.723,-0.327c0.397,-0.415 0.945,-0.683 1.507,-0.681c0.627,0.002 1.293,0.349 1.735,-0.001c0.78,-0.618 0.918,-1.87 0.666,-2.896c-0.245,-0.997 -0.731,-2.018 -0.011,-2.886c0.338,-0.407 1,-0.577 0.295,-1.32c-0.577,-0.618 -0.643,-1.778 0.239,-1.798c0.734,-0.017 1.395,0.215 2.305,0.042c0.688,-0.127 1.429,-0.044 1.922,0.417c0.499,0.465 0.545,1.287 1.545,1.05c0.469,-0.114 1.014,-0.369 1.318,0.011c0.465,0.579 -0.496,1.333 1.21,1.625c0.423,0.077 0.757,0.39 1.44,0.254c0.503,-0.1 0.899,-0.544 1.435,-0.695c0.367,-0.103 0.81,-0.033 1.082,-0.208c0.172,-0.112 -0.454,-1.342 0.253,-1.96c0.366,-0.319 0.869,-0.476 1.348,-0.468Zm-9.587,8.262c0.492,0.017 0.972,0.151 1.459,0.205c0,0 -0.772,-0.964 -0.675,-1.972c0.068,-0.669 0.071,-1.422 0.579,-1.849c0.594,-0.499 1.478,-0.284 2.079,0.004c0.416,0.199 0.555,0.996 1.922,0.113c0.215,-0.137 0.246,-0.152 0.366,-0.21c0.529,-0.252 1.017,-0.143 1.778,-0.217c0.744,-0.072 1.093,-0.481 1.672,-1.453c0.45,-0.755 1.52,-0.84 2.239,-0.68c0.438,0.098 0.853,0.315 1.288,0.301c0.528,-0.018 1.017,-0.326 1.493,-0.601l1.164,-0.631c0.133,-0.067 0.265,-0.133 0.398,-0.199c0.273,-0.14 0.661,-0.384 0.661,-0.384c-0.724,-0.196 -1.325,0.346 -2.276,0.478c-0.776,0.108 -1.577,-0.391 -2.274,0.16c-0.928,0.733 -2.685,1.601 -2.056,-0.32c0.067,-0.213 0.298,-0.459 -0.171,-0.504c-0.576,-0.054 -1.273,0.264 -1.282,0.789c-0.008,0.498 0.377,1.046 0.008,1.458c-0.349,0.391 -0.883,0.189 -1.475,0.415c-0.471,0.18 -0.85,0.561 -1.33,0.657c-0.759,0.151 -1.461,-0.207 -2.237,-0.345c-0.554,-0.105 -0.912,-0.59 -0.882,-1.416c0.016,-0.595 -0.091,-0.316 -0.403,-0.242c-0.19,0.047 -0.378,0.1 -0.568,0.14c-0.451,0.094 -0.971,0.005 -1.282,-0.395c-0.318,-0.409 -0.561,-0.916 -1.044,-1.073c-0.735,-0.239 -1.516,0.17 -2.262,0.111c-0.426,-0.034 -0.856,-0.244 -1.252,-0.159c-0.337,0.072 0.091,0.781 0.487,1.23c0.573,0.662 -0.582,1.406 -0.793,2.124c-0.289,0.98 0.556,2.005 0.498,3.226c-0.049,1.032 -0.518,2.163 -1.398,2.425c-0.583,0.174 -1.182,-0.16 -1.757,-0.11c-0.857,0.075 -1.285,1.116 -1.924,1.224c-0.609,0.102 -1.199,-0.55 -1.299,-0.004c-0.117,0.631 0.723,1.151 0.771,1.818c0.057,0.804 -0.748,1.303 -0.984,1.874c-0.253,0.611 -0.36,1.248 -0.643,1.918c-0.242,0.583 -0.339,1.307 0.117,1.82c0.013,0.016 0.028,0.031 0.044,0.044c0.313,0.275 0.882,-0.812 1.617,-1.064c0.77,-0.264 1.721,0.183 2.42,-0.18c0.395,-0.206 -0.985,-1.301 -1.033,-2.276c-0.04,-0.811 0.546,-1.485 0.539,-2.403c-0.001,-0.123 -0.004,-0.246 -0.005,-0.37c0,-0.345 0.02,-0.709 0.204,-1.009c0.444,-0.728 1.399,-0.851 2.136,-1.011c1.119,-0.25 1.079,-0.615 1.34,-0.983c0.18,-0.25 0.385,-0.5 0.674,-0.594c0.758,-0.248 1.412,0.397 2.25,0.251c0.371,-0.064 0.652,-0.141 1.102,-0.131Z" style="" fill-rule="nonzero"></path><path d="M105.007,10.651c2.031,0.041 4.041,1.492 5.622,2.089c0.978,0.38 1.373,1.429 2.159,1.766c0.291,0.124 0.646,0.158 1.151,0.535c1.144,0.854 2.004,2.043 3.164,3.47l0.062,0.077l1.038,1.233c0.958,1.121 1.71,2.467 1.461,3.964c-0.012,0.067 -0.025,0.134 -0.041,0.2c-0.012,0.055 -0.027,0.109 -0.043,0.163c-0.203,0.665 -0.977,1.101 -1.763,0.847c-0.907,-0.294 -1.557,-1.108 -2.291,-1.721c-0.307,-0.256 -0.632,-0.488 -0.961,-0.712l-1.374,-0.9c-1.021,-0.677 -2.393,-0.881 -3.183,-1.4c-0.605,-0.397 -1.018,-1.058 -1.73,-1.251c-1.102,-0.299 -2.247,-0.238 -3.459,-0.493c-1.244,-0.257 -2.524,0.227 -3.774,-0.199c-1.807,-0.615 -3.556,-1.665 -5.573,-1.349c-0.686,0.107 -1.241,0.261 -1.749,0.055c-0.597,-0.243 -0.924,-0.972 -1.736,-0.489c-0.376,0.228 -0.736,0.493 -1.175,0.521c-1.363,0.086 -2.264,-1.32 -2.774,-2.266c-0.125,-0.229 -0.15,-0.267 -0.236,-0.383c-0.48,-0.653 -1.698,-0.641 -1.864,-1.398c-0.213,-0.97 0.94,-1.632 1.633,-1.553c0.678,0.078 1.258,0.664 1.98,0.557c0.892,-0.132 1.654,-0.764 2.553,-0.944c1.278,-0.256 2.731,-0.144 3.711,0.518c0.515,0.348 0.973,0.867 1.544,0.772c0.559,-0.093 1.078,-0.387 1.654,-0.416c1.002,-0.049 1.964,0.636 2.868,0.68c0.435,0.022 0.739,-0.425 1.005,-0.793c0.158,-0.216 0.178,-0.239 0.268,-0.34c0.464,-0.523 1.152,-0.844 1.853,-0.84Zm-0.054,0.5c-0.818,0.017 -1.425,0.681 -1.949,1.367c-0.168,0.216 -0.363,0.425 -0.622,0.528c-0.735,0.293 -1.525,-0.176 -2.142,-0.386c-0.772,-0.256 -1.531,-0.164 -2.438,0.107c-0.303,0.089 -0.625,0.149 -0.927,0.081c-0.657,-0.147 -1.086,-0.764 -1.653,-1.022c-1.538,-0.702 -3.306,-0.105 -4.875,0.486c-0.479,0.18 -1.007,0.296 -1.516,0.167c-0.792,-0.202 -1.604,-1.105 -2.313,0.114c-0.356,0.612 1.139,0.662 1.782,1.657c0.592,0.914 0.977,1.767 1.905,2.183c0.785,0.351 1.624,-0.688 2.395,-0.587c0.553,0.073 0.909,0.616 1.421,0.752c0.598,0.16 1.161,-0.163 2.072,-0.184c1.555,-0.036 3.049,0.549 4.481,1.182c0.883,0.386 1.807,0.481 2.857,0.365c1.386,-0.146 2.708,0.243 4.299,0.44c0.505,0.063 1.021,0.178 1.448,0.469c0.482,0.328 0.799,0.81 1.203,1.033c0.588,0.326 1.298,0.34 1.938,0.646c0.505,0.242 1.147,0.696 1.147,0.696l1.376,0.901c1.168,0.795 2.024,2.19 3.379,2.437c1.053,0.192 1.273,-1.897 0.567,-3.157c-0.261,-0.466 -0.617,-0.873 -0.966,-1.281l-1.042,-1.238c-0.886,-1.088 -1.891,-2.023 -2.725,-3.051c-0.617,-0.745 -1.744,-0.803 -2.419,-1.635c-0.662,-0.83 -1.73,-1.154 -2.995,-1.79c-0.85,-0.422 -1.747,-0.711 -2.641,-1.05c-0.342,-0.127 -0.641,-0.234 -1.047,-0.23Z" style="" fill-rule="nonzero"></path><path d="M66.664,73.835c0.672,0.033 0.429,1.44 -0.78,2.01c-1.009,0.476 -2.212,-0.119 -3.27,-0.264c-0.485,-0.066 -1.082,-0.025 -1.274,-0.195c0,0 -0.148,-0.179 -0.041,-0.341c0.31,-0.467 1.017,-0.361 1.98,-0.752c0.922,-0.368 1.897,-0.223 2.977,-0.419c0.135,-0.023 0.271,-0.042 0.408,-0.039Zm-0.046,0.5c-0.776,0.017 -1.55,0.241 -2.417,0.258c-0.535,0.015 -1.015,0.301 -1.538,0.482c0,0 1.502,0.569 2.435,0.474c0.688,-0.07 1.355,-0.601 1.542,-1.208c0,0 0.015,-0.007 -0.022,-0.006Z" style="" fill-rule="nonzero"></path><path d="M48.268,98.592c0.722,0.116 1.173,1.254 1.945,1.674c0.535,0.292 1.248,-0.897 1.853,-0.426c0.596,0.463 0.306,1.327 0.329,1.983c0.057,1.468 0.251,2.97 0.252,4.403c0,0.241 -0.044,0.507 -0.241,0.672c-0.656,0.55 -1.973,-0.215 -2.069,-0.971c-0.048,-0.379 0.121,-0.627 0.337,-1.169c0.226,-0.594 -0.389,-1.117 -0.682,-1.744c-0.311,-0.666 -0.21,-1.276 -1.515,-1.193c-0.265,0.015 -0.3,0.013 -0.439,0.008c-0.588,-0.024 -1.013,-0.214 -1.645,0.745c-0.021,0.031 -0.042,0.062 -0.064,0.092c-0.249,0.349 -0.677,0.519 -1.29,0.021c-0.446,-0.357 -0.923,-0.585 -1.602,-0.366c-0.958,0.301 -2.486,-0.747 -1.867,-1.234c0.477,-0.376 1.622,0.582 2.209,-0.417c0.166,-0.282 0.279,-0.528 0.499,-0.711c0.833,-0.691 2.037,-0.13 2.843,0.402c0.523,0.34 1.414,0.178 1.188,-0.612c-0.119,-0.415 -0.34,-0.93 -0.34,-0.93c0.05,-0.279 0.163,-0.239 0.299,-0.227Zm-4.263,3.1c0.645,0.028 1.126,0.658 1.715,0.884c0.094,0.036 0.562,-1.049 1.221,-1.234c0.598,-0.167 1.209,-0.003 1.861,-0.044c0.678,-0.038 0.647,-0.062 0.97,0.178c0.567,0.423 0.513,1.15 1.117,2.033c0.384,0.57 0.307,1.251 0.028,1.947c-0.151,0.393 0.017,0.832 0.694,1.039c0.035,0.011 0.071,0.021 0.106,0.029c0.298,0.065 0.35,0.766 0.306,-1.958c-0.016,-1.41 0.134,-2.907 -0.212,-4.203c-0.015,-0.059 0.342,-0.382 -0.582,0.184c-0.3,0.181 -0.632,0.345 -0.982,0.264c-0.572,-0.132 -0.948,-0.665 -1.396,-1.106c0,0 -0.069,-0.14 -0.032,0.023c0.158,0.758 -0.624,1.492 -1.4,1.316c-0.804,-0.183 -1.357,-1.003 -2.243,-0.917c-0.462,0.045 -0.641,0.382 -1.084,0.977c-0.439,0.591 -1.31,0.459 -1.947,0.402c0,0 0.589,0.515 1.14,0.339c0.239,-0.076 0.409,-0.16 0.72,-0.153Z" style="" fill-rule="nonzero"></path><path d="M58.258,79.262c0.679,0.036 1.343,0.447 1.965,0.194c0.392,-0.159 0.741,-0.472 1.176,-0.386c0.696,0.138 1.028,0.873 1.483,1.293c0.356,0.328 0.751,0.627 0.985,1.039c0.515,0.907 0.3,2.177 -0.699,2.83c-0.291,0.19 -0.677,0.294 -1.006,0.121c-1.222,-0.644 -0.89,-3.067 -3.556,-2.658c-0.889,0.143 -1.712,0.127 -2.627,-0.501c-0.294,-0.197 -0.343,-0.672 -0.746,0.393c-0.112,0.283 -0.255,0.605 -0.579,0.637c-0.498,0.048 -0.82,-0.437 -1.285,-0.529c-0.855,-0.17 -1.824,0.945 -1.325,1.423c0.335,0.32 0.914,0.444 0.938,0.978c0.029,0.629 -0.594,0.987 -1.011,1.365l-1.114,1.101c-0.045,0.043 -0.09,0.085 -0.135,0.128c-0.812,0.75 -1.772,1.713 -2.774,1.06c-0.372,-0.242 -0.442,-0.659 -0.836,0.021c-0.121,0.202 -0.295,0.386 -0.538,0.417c-0.541,0.07 -0.962,-0.372 -1.376,-0.672c-0.242,-0.173 -0.283,-0.195 -0.42,-0.28c-0.899,-0.558 -1.677,-1.211 -2.326,-2.155c-0.346,-0.495 -0.985,-0.797 -1.544,-0.349c-0.074,0.059 -0.734,-0.106 0.772,0.631c0.219,0.109 0.426,0.361 0.426,0.361c0.053,0.209 0.141,0.086 -0.084,0.299c-0.25,0.236 -0.678,0.2 -1.107,0.283c0,0 0.918,0.523 1.001,1.179c0.149,1.184 -1.1,2.134 -2.136,2.147c-0.385,0.005 -0.764,-0.078 -1.14,-0.144c-0.484,-0.083 -0.487,-0.064 -0.651,-0.065c-0.401,0.001 -0.803,-0.024 -1.19,-0.137c0.332,0.712 1.21,1.47 -0.391,1.953c-0.597,0.187 -0.716,1.027 -1.273,1.315c-0.564,0.291 -1.234,-0.005 -1.882,0.1c-1.126,0.183 -2.072,1.049 -3.469,1.939c-0.863,0.55 -2.055,0.335 -2.711,-0.482c-0.463,-0.576 -0.537,-1.015 -1.532,-0.644c-0.728,0.265 -1.684,-0.096 -2.128,-0.073c0,0 0.114,0.739 -0.136,1.106c-0.676,0.993 -2.275,1.006 -2.889,0.951c-0.332,-0.029 -0.706,-0.335 -0.556,-0.722c0.142,-0.367 0.475,-0.658 0.606,-1.013c0,0 -1.528,-0.11 -2.093,-0.21c-0.061,-0.01 -0.122,-0.022 -0.183,-0.036c-0.047,-0.01 -0.093,-0.021 -0.14,-0.034c-0.035,-0.009 -0.069,-0.019 -0.103,-0.03c-0.033,-0.01 -0.065,-0.022 -0.097,-0.034c-0.229,-0.09 -0.364,-0.426 -0.364,-0.426c0.067,-0.817 1.821,-0.714 2.792,-0.827c0.616,-0.072 0.597,-1.417 1.293,-1.635c0.673,-0.211 1.292,0.402 1.845,0.453c0.668,0.063 1.251,-0.207 2.092,-0.411c1.038,-0.261 1.683,-1.378 2.303,-2.574c0.273,-0.526 0.064,-1.135 0.57,-1.869c0.422,-0.613 1.376,-0.229 2.042,-0.968c0,0 -0.426,-1.066 -0.764,-1.951c-0.092,-0.245 -0.101,-0.28 -0.132,-0.415c-0.174,-0.772 0.492,-1.492 1.227,-1.928c0.553,-0.327 1.227,-0.17 1.856,0.156c0.316,0.161 0.676,0.049 0.76,-0.421c0.086,-0.485 -0.352,-0.807 -0.851,-1.019c-0.183,-0.088 -0.142,-0.039 -0.167,-0.241c0,0 0.074,-0.18 0.074,-0.18c0.32,-0.278 1.249,0.155 1.9,-0.254c0.334,-0.21 0.533,-0.599 0.916,-0.701c0.924,-0.245 1.767,0.825 2.82,0.831c0.623,0.004 1.219,-0.304 1.862,-0.32c1.001,-0.024 2.085,0.759 2.511,0.277c0.346,-0.39 0.439,-1.178 1.016,-1.081c0.727,0.122 0.708,1.12 1.53,1.555c0.633,0.335 1.45,0.516 1.91,-0.023c0.196,-0.229 0.357,-0.45 0.57,-0.576c0.595,-0.354 1.445,-0.004 1.893,-0.469c0.283,-0.294 0.352,-0.745 1.041,-1.154c0.876,-0.52 1.992,-0.614 2.809,-0.498c0.967,0.137 1.147,1.458 1.459,2.422c0,0 1.085,-1.231 1.705,-0.511c0.264,0.306 0.209,0.803 0.326,1.162c0,0 0.965,-0.534 1.592,-0.514Zm-31.93,13.452c1.015,0.086 1.156,2.157 2.772,1.659c0.611,-0.189 1.051,-0.729 1.624,-1.051c1.01,-0.568 2.002,-1.24 3.096,-1.178c0.579,0.038 1.046,0.197 1.5,-0.601c0.309,-0.527 1.035,-0.591 1.447,-0.966c0.206,-0.187 -1.118,-1.558 -0.324,-1.825c0.291,-0.098 0.625,0.131 1.015,0.163c0.556,0.047 1.115,0.055 1.669,0.152c0.5,0.085 0.687,0.112 1.062,0.008c0.996,-0.276 1.837,-1.446 0.599,-2.253c-0.067,-0.045 -0.135,-0.088 -0.203,-0.132c-0.233,-0.157 -0.479,-0.396 -0.301,-0.639c0.264,-0.361 1.014,-0.318 1.014,-0.318c-0.063,-0.029 -0.125,-0.059 -0.187,-0.089c-0.383,-0.19 -0.877,-0.406 -0.804,-0.866c0.111,-0.698 1.305,-1.024 1.932,-0.638c0.415,0.255 0.65,0.712 0.925,1.09c0.696,0.951 1.77,1.525 2.81,2.229c0.29,0.193 0.476,0.476 0.843,-0.187c0.193,-0.345 0.21,-0.395 0.487,-0.422c0.477,-0.046 0.75,0.506 1.17,0.6c0.729,0.162 1.367,-0.605 2.033,-1.246l1.078,-1.068c0.109,-0.099 0.218,-0.197 0.326,-0.296c0.462,-0.426 0.842,-0.569 -0.013,-1.196c-0.208,-0.154 -0.407,-0.347 -0.472,-0.609c-0.317,-1.275 1.397,-2.306 2.628,-1.602c0.102,0.058 0.202,0.122 0.303,0.182c0.135,0.079 0.193,0.315 0.375,-0.121c0.051,-0.125 0.095,-0.252 0.143,-0.378c0.109,-0.279 0.252,-0.581 0.543,-0.641c0.744,-0.151 1.206,0.713 1.841,0.826c0.652,0.116 1.294,-0.171 1.962,-0.157c1.12,0.024 1.965,0.769 2.604,1.999c0.262,0.5 0.577,1.049 1.146,0.617c0.793,-0.603 0.89,-1.84 -0.007,-2.655c-0.546,-0.496 -0.942,-1.225 -1.574,-1.515c-0.311,-0.142 -0.659,0.229 -1.114,0.379c-0.879,0.29 -1.789,-0.463 -2.653,-0.062c-0.135,0.063 -0.266,0.134 -0.399,0.201c-0.291,0.145 -0.632,0.31 -0.887,0.07c-0.421,-0.396 0.012,-1.409 -0.625,-1.275c-0.569,0.119 -0.647,0.758 -0.635,1.437l-0.085,0.19c-0.413,0.292 -0.353,0.107 -0.602,-0.578c-0.28,-0.773 -0.415,-1.614 -0.737,-2.34c-0.318,-0.714 -1.608,-0.397 -2.362,-0.227c-0.583,0.131 -1,0.545 -1.441,1.125c-0.572,0.736 -1.865,0.425 -2.299,0.854c-0.185,0.182 -0.27,0.458 -0.691,0.697c-0.951,0.538 -2.268,-0.022 -2.909,-0.856c-0.13,-0.169 -0.242,-0.35 -0.36,-0.526c-0.085,-0.126 -0.227,-0.293 -0.227,-0.293c-0.352,0.402 -0.471,1.079 -1.102,1.208c-0.95,0.193 -1.761,-0.615 -2.986,-0.33c-0.432,0.103 -0.856,0.241 -1.296,0.227c-0.88,-0.027 -1.623,-0.695 -2.394,-0.844c-0.404,-0.077 -0.674,0.458 -1.116,0.693c-0.28,0.149 -0.602,0.194 -0.915,0.212c0.087,0.091 0.104,0.122 0.145,0.19c0.399,0.68 0.087,1.779 -0.662,1.861c-0.573,0.063 -1.036,-0.51 -1.503,-0.534c-0.822,-0.041 -1.69,0.894 -1.552,1.553c0.147,0.697 0.418,1.414 0.745,2.052c0,0 0.407,-0.569 0.407,-0.569c0.092,-0.045 0.026,-0.096 0.25,-0.006c0,0 0.129,0.186 0.129,0.186c0.009,0.123 0.085,-0.059 -0.109,0.352c-0.148,0.311 -0.442,0.578 -0.537,0.693c-0.461,0.559 -1.207,0.675 -1.936,0.919c-0.581,0.196 -0.323,1.196 -0.705,1.933c-0.15,0.29 -0.342,0.556 -0.522,0.829c-0.354,0.538 -0.602,1.166 -1.082,1.552c-0.652,0.524 -1.535,0.554 -2.307,0.759c-0.305,0.079 -0.383,0.093 -0.575,0.111c-0.666,0.064 -1.29,-0.41 -1.929,-0.478c-0.424,-0.045 -0.397,1.148 -1.032,1.518c-0.676,0.394 -1.614,0.041 -2.647,0.469c0,0 2.611,-0.089 2.801,0.62c0.126,0.471 -0.435,0.812 -0.64,1.359c0,0 2.746,0.08 2.645,-1.126c-0.025,-0.286 -0.11,-0.619 0.16,-0.809c0.462,-0.325 1.103,0.179 1.807,0.123c0.513,-0.042 0.887,-0.425 1.422,-0.395Z" style="" fill-rule="nonzero"></path><path d="M62.589,95.518c0.336,0.017 0.451,0.34 -0.183,0.801c-0.322,0.239 -0.565,0.227 -0.148,1.066c0.453,0.912 -0.728,2.887 -1.239,1.259c-0.175,-0.575 0.006,-1.119 -1.209,-0.664c-0.256,0.094 -0.564,0.167 -0.745,-0.053c-0.478,-0.578 0.07,-1.573 0.697,-1.888c0.313,-0.157 0.671,-0.168 1.02,-0.213c0.623,-0.084 1.195,-0.316 1.807,-0.308Zm-1.997,1.726c0.663,0.032 0.764,0.923 0.959,1.41c0,0 0.559,-0.527 0.217,-1.125c-0.049,-0.085 -0.103,-0.167 -0.154,-0.251c-0.103,-0.174 -0.189,-0.368 -0.16,-0.568c0.041,-0.274 0.369,-0.564 0.369,-0.564c-0.808,0.164 -1.797,0.045 -2.15,0.663c-0.161,0.283 -0.224,0.76 -0.224,0.76c0.387,-0.083 0.734,-0.336 1.143,-0.325Z" style="" fill-rule="nonzero"></path><path d="M73.685,91.533c0.263,0.008 0.555,0.084 0.647,0.344c0.152,0.43 -0.258,0.886 -0.308,1.415c-0.048,0.503 0.138,0.969 -0.158,1.289c-0.566,0.613 -1.568,0.271 -2.09,-0.17c-0.329,-0.277 -0.592,-0.623 -1.09,-0.546c-0.474,0.073 -1.012,0.447 -1.269,0.161c-0.324,-0.362 0.696,-0.954 1.398,-1.459c0.855,-0.614 1.856,-1.041 2.87,-1.034Zm-0.062,0.5c-1.115,0.035 -2.147,0.664 -3.078,1.348c0.685,-0.124 1.304,0.531 1.741,0.782c0.444,0.255 1.266,0.436 1.259,-0.147c-0.002,-0.241 -0.088,-0.469 0.009,-0.958c0.084,-0.423 0.306,-0.998 0.306,-0.998c-0.071,-0.029 -0.153,-0.028 -0.237,-0.027Z" style="" fill-rule="nonzero"></path><path d="M15.486,92.027c0.57,0.019 0.724,1.098 0.093,1.514c-0.304,0.201 -0.614,0.17 -1.089,0.175c-0.03,0 -0.059,0.001 -0.089,0.002c-0.027,0.001 -0.054,0.002 -0.082,0.005c-0.025,0.002 -0.05,0.004 -0.075,0.008c-0.576,0.08 -0.206,1.335 -0.871,1.438c-0.616,0.096 -1.132,-0.686 -1.982,-0.527c-0.555,0.104 -1.224,0.557 -1.48,0.09c-0.338,-0.62 0.323,-1.258 0.826,-1.592c0.839,-0.554 2.043,-0.105 2.924,-0.343c0.665,-0.181 1.248,-0.772 1.825,-0.77Zm-0.021,0.5c-0.706,0.052 -1.448,0.877 -2.478,0.834c-0.212,-0.01 -0.423,-0.037 -0.634,-0.057c-0.793,-0.069 -1.653,0.241 -1.953,1.061c0,0 1.078,-0.437 1.9,-0.153c0.411,0.142 0.961,0.454 0.961,0.454c0.148,-0.436 0.053,-0.997 0.505,-1.29c0.602,-0.391 1.686,0.351 1.718,-0.697c0.002,-0.067 -0.003,-0.152 -0.019,-0.152Z" style="" fill-rule="nonzero"></path><path d="M49.27,69.689c0.786,0.02 0.999,1.129 1.225,1.545c0.029,0.053 0.059,0.104 0.091,0.154c0.027,0.042 0.055,0.083 0.086,0.123c0.808,1.074 3.506,-0.465 3.631,1.614c0.038,0.641 -0.231,1.309 -0.775,1.662c-0.517,0.335 -1.089,0.571 -1.596,0.949c-0.508,0.374 -0.554,0.537 -0.988,0.284c-0.739,-0.43 -0.277,-1.576 -1.4,-1.954c-0.873,-0.294 -1.776,-0.669 -1.368,-1.362c0.21,-0.356 0.657,-0.554 0.906,-0.856c0,0 -1.218,-0.385 -1.255,-0.991c-0.046,-0.764 0.891,-1.171 1.443,-1.168Zm-0.022,0.5c-0.662,0.021 -1.447,0.475 -0.222,1.051c0.28,0.135 0.619,0.304 0.576,0.642c-0.071,0.559 -0.898,0.736 -1.012,1.112c-0.067,0.25 1.68,0.485 2.115,1.37c0.194,0.396 0.185,0.926 0.481,1.216c0.243,0.229 0.847,-0.605 1.789,-1.059c0.916,-0.45 1.211,-1.928 0.093,-2.044c-0.678,-0.071 -1.368,0.21 -2.001,-0.032c-0.828,-0.318 -1.024,-1.421 -1.55,-2.104c-0.064,-0.084 -0.156,-0.153 -0.269,-0.152Z" style="" fill-rule="nonzero"></path><path d="M60.013,68.271c0.511,0.012 0.672,0.551 0.45,1.256c-0.012,0.038 -0.024,0.077 -0.035,0.116c-0.011,0.042 -0.021,0.083 -0.029,0.126c-0.005,0.029 -0.009,0.058 -0.011,0.087c-0.03,0.428 1.156,0.199 1.359,0.832c0.234,0.73 -0.528,1.277 -0.901,1.802c-0.306,0.439 -0.595,0.955 -0.245,1.362c0.296,0.344 0.603,0.598 0.634,0.974c0.042,0.524 -0.336,0.952 -0.036,1.464c0.623,1.064 0.433,0.739 0.305,0.853c-0.385,0.341 -0.9,-0.569 -1.381,-0.047c-0.67,0.745 -1.869,0.904 -2.39,-0.051c-0.327,-0.599 -0.22,-1.452 0.378,-1.858c0.35,-0.237 0.942,-0.469 0.942,-0.469c-0.483,-0.351 -1.136,-0.494 -0.492,-1.568c0.238,-0.41 -0.54,-0.854 -0.591,-1.441c-0.06,-0.68 0.406,-1.087 0.342,-2c-0.043,-0.813 0.808,-1.445 1.701,-1.438Zm-0.029,0.5c-0.563,0.01 -1.194,0.31 -1.175,0.859c0.011,0.326 0.063,0.594 0.015,0.85c-0.114,0.614 -0.612,1.013 0.013,1.745c0.026,0.031 0.051,0.061 0.075,0.092c0.316,0.408 0.095,0.879 -0.123,1.444c-0.133,0.345 1.058,0.545 0.816,1.109c-0.279,0.65 -1.902,0.449 -1.529,1.705c0.184,0.621 0.988,0.935 1.495,0.391c0.294,-0.326 0.652,-0.638 1.107,-0.523c0,0 -0.152,-0.383 -0.106,-0.764c0.055,-0.458 0.401,-0.689 -0.263,-1.404c-0.29,-0.316 -0.374,-0.416 -0.399,-0.766c-0.052,-0.739 0.535,-1.317 0.933,-1.861c0.318,-0.437 0.373,-0.431 0.427,-0.75c0.05,-0.296 -1.043,-0.058 -1.333,-0.74c-0.199,-0.467 0.222,-0.98 0.203,-1.365c0,0 -0.083,-0.023 -0.156,-0.022Z" style="" fill-rule="nonzero"></path><path d="M64.458,92.47c0.943,0.049 1.552,1.523 1.535,2.52c-0.006,0.407 -0.155,0.836 -0.009,1.198c0.123,0.304 1.106,-0.153 1.635,0.368c0.47,0.463 0.312,1.299 0.098,1.713c-0.112,0.217 -0.352,0.406 -0.615,0.333c-0.602,-0.169 -0.858,-0.963 -1.592,-1.184c-0.242,-0.071 -0.492,-0.119 -0.701,-0.258c-0.709,-0.473 -0.903,-1.234 -1.262,-2.154c-0.396,-1.015 0.026,-2.558 0.911,-2.536Zm-0.024,0.5c-0.37,0.01 -0.68,1.079 -0.454,1.762c0.167,0.509 0.406,0.866 0.687,1.443c0.274,0.545 0.955,0.456 1.8,1.231c0.314,0.288 0.757,0.709 0.757,0.709c0.369,-0.417 0.336,-1.313 -0.481,-1.315c-0.41,0.001 -0.871,0.06 -1.122,-0.25c-0.431,-0.535 -0.024,-1.308 -0.164,-2.019c-0.131,-0.669 -0.591,-1.561 -1.023,-1.561Z" style="" fill-rule="nonzero"></path><path d="M43.571,107.454c0.762,0.021 1.345,0.55 2.385,0.535c0.046,0 0.092,-0.001 0.138,0c0.283,0.005 0.614,0.032 0.792,0.296c0.373,0.555 -0.088,1.571 -0.801,1.688c-1.047,0.171 -1.856,-1.039 -2.957,-0.645c-0.872,0.312 -0.626,1.94 -1.395,2.367c-0.442,0.246 -0.886,0.054 -1.614,0.372c-0.861,0.369 -2.084,0.099 -1.89,-0.892c0.152,-0.759 0.069,-1.701 0.688,-1.916c0.441,-0.154 0.899,0.106 1.288,0.261c0,0 -0.712,-1.06 -0.894,-1.484c-0.115,-0.268 -0.271,-0.912 1.151,0.017c0.388,0.251 0.823,0.496 1.29,0.361c0.72,-0.207 1.117,-0.935 1.769,-0.96c0.017,0 0.033,0 0.05,0Zm-0.026,0.5c-0.616,0.013 -0.865,1.165 -2.266,0.989c-0.429,-0.053 -0.819,-0.29 -1.191,-0.537c0.401,0.642 1.189,1.451 0.599,1.703c-0.51,0.217 -0.986,-0.433 -1.561,-0.387c-0.45,0.037 -0.476,1.589 -0.418,1.764c0.143,0.438 1.472,-0.063 2.502,-0.159c0.809,-0.089 0.413,-1.782 1.514,-2.366c0.939,-0.499 2.044,0.301 3.067,0.508c0.632,0.128 1.172,-0.998 0.117,-0.979c-0.075,0.001 -0.15,0.003 -0.225,0.004c-0.049,0 -0.098,0 -0.148,0c-0.718,-0.012 -1.373,-0.544 -1.99,-0.54Z" style="" fill-rule="nonzero"></path><path d="M9.666,76.833c0.984,0.037 1.881,0.606 2.967,0.709c1.118,0.107 2.45,0.186 2.778,1.068c0.201,0.539 -0.271,1.008 0.755,1.342c1.333,0.449 1.515,3.375 -0.049,2.254c-0.428,-0.311 -0.655,-0.88 -1.468,0.069c-0.645,0.742 -1.748,0.453 -2.864,0.118c-0.264,-0.082 -0.315,-0.103 -0.458,-0.171c-0.605,-0.289 -0.934,-0.945 -1.361,-1.498c0,0 -0.228,0.806 -0.333,1.044c-0.114,0.257 -0.431,0.468 -0.734,0.272c-0.391,-0.252 -0.637,-0.721 -1.111,-0.867c-0.781,-0.24 -1.563,0.307 -2.379,0.432c-0.955,0.147 -2.244,-0.042 -2.246,-0.772c-0.002,-0.64 0.675,-0.982 1.163,-1.19c1.209,-0.517 2.699,-0.298 3.701,-1.555c0.511,-0.641 0.826,-1.27 1.639,-1.255Zm-0.06,0.499c-0.663,0.016 -0.956,0.893 -1.556,1.474c-0.918,0.889 -2.477,0.908 -3.425,1.256c-0.402,0.147 -0.905,0.39 -0.962,0.765c-0.017,0.153 1.095,0.412 1.838,0.253c0.955,-0.204 1.917,-0.764 2.812,-0.214c0.323,0.198 0.548,0.529 0.84,0.743c0,0 0.201,-1.558 0.789,-1.493c0.78,0.086 0.763,1.426 1.988,1.798c0.825,0.251 1.684,0.736 2.238,0.149c0.33,-0.348 0.579,-0.856 1.115,-0.856c0.573,-0.001 0.953,0.588 1.395,0.756c0,0 0.312,-1.221 -0.69,-1.544c-0.321,-0.103 -0.692,-0.146 -0.883,-0.438c-0.414,-0.636 0.781,-1.643 -1.861,-1.887c-0.977,-0.086 -1.883,-0.284 -2.939,-0.626c-0.227,-0.071 -0.46,-0.136 -0.699,-0.136Z" style="" fill-rule="nonzero"></path></svg>