<?xml version="1.0" encoding="UTF-8" standalone="no"?>
<svg xmlns:svg="http://www.w3.org/2000/svg"
xmlns="http://www.w3.org/2000/svg" version="1.1"
width="360" height="185">
<!-- Created with the Wikimedia parliament diagram creator (http://tools.wmflabs.org/parliamentdiagram/parliamentinputform.html) -->
<g>
<text x="175" y="175" style="font-size:36px;font-weight:bold;text-align:center;text-anchor:middle;font-family:sans-serif">235</text>
  <g style="fill:#008307; stroke:none" id="ConservativeParty">
    <circle cx="11.32" cy="175.00" r="5.00"/>
    <circle cx="23.83" cy="175.00" r="5.00"/>
    <circle cx="36.34" cy="175.00" r="5.00"/>
    <circle cx="48.85" cy="175.00" r="5.00"/>
    <circle cx="61.36" cy="175.00" r="5.00"/>
    <circle cx="73.87" cy="175.00" r="5.00"/>
    <circle cx="86.38" cy="175.00" r="5.00"/>
    <circle cx="98.90" cy="175.01" r="5.00"/>
    <circle cx="12.28" cy="161.35" r="5.00"/>
    <circle cx="24.83" cy="161.69" r="5.00"/>
    <circle cx="37.42" cy="161.67" r="5.00"/>
    <circle cx="50.04" cy="161.65" r="5.00"/>
    <circle cx="62.68" cy="161.63" r="5.00"/>
    <circle cx="75.35" cy="161.60" r="5.00"/>
    <circle cx="14.35" cy="147.82" r="5.00"/>
    <circle cx="88.08" cy="161.57" r="5.00"/>
    <circle cx="26.96" cy="148.50" r="5.00"/>
    <circle cx="39.74" cy="148.49" r="5.00"/>
    <circle cx="100.87" cy="161.54" r="5.00"/>
    <circle cx="52.59" cy="148.49" r="5.00"/>
    <circle cx="65.51" cy="148.49" r="5.00"/>
    <circle cx="17.50" cy="134.51" r="5.00"/>
    <circle cx="30.21" cy="135.55" r="5.00"/>
    <circle cx="78.53" cy="148.50" r="5.00"/>
    <circle cx="43.28" cy="135.59" r="5.00"/>
    <circle cx="91.69" cy="148.53" r="5.00"/>
    <circle cx="56.47" cy="135.66" r="5.00"/>
    <circle cx="21.72" cy="121.49" r="5.00"/>
    <circle cx="34.55" cy="122.92" r="5.00"/>
    <circle cx="69.80" cy="135.75" r="5.00"/>
    <circle cx="105.07" cy="148.59" r="5.00"/>
    <circle cx="48.00" cy="123.08" r="5.00"/>
    <circle cx="83.33" cy="135.90" r="5.00"/>
    <circle cx="26.98" cy="108.86" r="5.00"/>
    <circle cx="61.63" cy="123.29" r="5.00"/>
    <circle cx="39.95" cy="110.71" r="5.00"/>
    <circle cx="97.14" cy="136.14" r="5.00"/>
    <circle cx="75.51" cy="123.59" r="5.00"/>
    <circle cx="53.86" cy="111.05" r="5.00"/>
    <circle cx="33.25" cy="96.69" r="5.00"/>
    <circle cx="46.38" cy="99.01" r="5.00"/>
    <circle cx="68.04" cy="111.51" r="5.00"/>
    <circle cx="89.70" cy="124.02" r="5.00"/>
    <circle cx="111.36" cy="136.53" r="5.00"/>
    <circle cx="60.82" cy="99.63" r="5.00"/>
    <circle cx="40.48" cy="85.08" r="5.00"/>
    <circle cx="82.55" cy="112.14" r="5.00"/>
    <circle cx="53.78" cy="87.89" r="5.00"/>
    <circle cx="104.32" cy="124.66" r="5.00"/>
    <circle cx="75.61" cy="100.45" r="5.00"/>
    <circle cx="48.63" cy="74.08" r="5.00"/>
    <circle cx="97.51" cy="113.03" r="5.00"/>
    <circle cx="68.81" cy="88.90" r="5.00"/>
    <circle cx="62.11" cy="77.45" r="5.00"/>
    <circle cx="90.84" cy="101.56" r="5.00"/>
    <circle cx="119.58" cy="125.68" r="5.00"/>
    <circle cx="84.27" cy="90.21" r="5.00"/>
    <circle cx="57.64" cy="63.79" r="5.00"/>
    <circle cx="113.08" cy="114.34" r="5.00"/>
    <circle cx="77.76" cy="78.95" r="5.00"/>
    <circle cx="71.30" cy="67.76" r="5.00"/>
    <circle cx="106.66" cy="103.12" r="5.00"/>
    <circle cx="100.28" cy="91.99" r="5.00"/>
    <circle cx="67.46" cy="54.26" r="5.00"/>
    <circle cx="93.92" cy="80.92" r="5.00"/>
    <circle cx="87.59" cy="69.89" r="5.00"/>
    <circle cx="81.28" cy="58.89" r="5.00"/>
    <circle cx="129.49" cy="116.35" r="5.00"/>
    <circle cx="123.24" cy="105.39" r="5.00"/>
    <circle cx="78.02" cy="45.55" r="5.00"/>
    <circle cx="116.98" cy="94.45" r="5.00"/>
    <circle cx="110.73" cy="83.55" r="5.00"/>
    <circle cx="104.48" cy="72.65" r="5.00"/>
    <circle cx="98.23" cy="61.77" r="5.00"/>
    <circle cx="91.98" cy="50.90" r="5.00"/>
    <circle cx="89.25" cy="37.73" r="5.00"/>
    <circle cx="103.32" cy="43.86" r="5.00"/>
    <circle cx="109.57" cy="54.68" r="5.00"/>
    <circle cx="115.82" cy="65.51" r="5.00"/>
    <circle cx="122.07" cy="76.34" r="5.00"/>
    <circle cx="128.32" cy="87.16" r="5.00"/>
    <circle cx="134.58" cy="97.99" r="5.00"/>
    <circle cx="140.83" cy="108.82" r="5.00"/>
    <circle cx="101.08" cy="30.84" r="5.00"/>
    <circle cx="115.23" cy="37.81" r="5.00"/>
    <circle cx="121.53" cy="48.68" r="5.00"/>
    <circle cx="127.84" cy="59.56" r="5.00"/>
    <circle cx="113.42" cy="24.94" r="5.00"/>
    <circle cx="134.16" cy="70.46" r="5.00"/>
    <circle cx="140.50" cy="81.37" r="5.00"/>
    <circle cx="146.86" cy="92.30" r="5.00"/>
    <circle cx="127.60" cy="32.80" r="5.00"/>
    <circle cx="153.26" cy="103.28" r="5.00"/>
    <circle cx="133.99" cy="43.81" r="5.00"/>
    <circle cx="126.20" cy="20.05" r="5.00"/>
    <circle cx="140.39" cy="54.87" r="5.00"/>
    <circle cx="146.83" cy="65.98" r="5.00"/>
    <circle cx="140.36" cy="28.86" r="5.00"/>
    <circle cx="153.31" cy="77.16" r="5.00"/>
    <circle cx="139.34" cy="16.22" r="5.00"/>
    <circle cx="146.85" cy="40.13" r="5.00"/>
    <circle cx="159.84" cy="88.44" r="5.00"/>
    <circle cx="153.36" cy="51.48" r="5.00"/>
    <circle cx="153.41" cy="26.03" r="5.00"/>
    <circle cx="159.93" cy="62.96" r="5.00"/>
    <circle cx="166.44" cy="99.89" r="5.00"/>
    <circle cx="152.74" cy="13.47" r="5.00"/>
    <circle cx="159.99" cy="37.65" r="5.00"/>
    <circle cx="166.54" cy="74.61" r="5.00"/>
    <circle cx="166.61" cy="49.43" r="5.00"/>
    <circle cx="166.66" cy="24.32" r="5.00"/>
    <circle cx="166.33" cy="11.80" r="5.00"/>
    <circle cx="173.23" cy="86.49" r="5.00"/>
    <circle cx="173.28" cy="61.44" r="5.00"/>
    <circle cx="173.31" cy="36.41" r="5.00"/>
    <circle cx="180.00" cy="48.75" r="5.00"/>
    <circle cx="180.00" cy="11.25" r="5.00"/>
    <circle cx="180.00" cy="23.75" r="5.00"/>
    <circle cx="180.00" cy="73.75" r="5.00"/>
    <circle cx="180.00" cy="98.75" r="5.00"/>
    <circle cx="186.69" cy="36.41" r="5.00"/>
    <circle cx="186.72" cy="61.44" r="5.00"/>
    <circle cx="186.77" cy="86.49" r="5.00"/>
    <circle cx="193.67" cy="11.80" r="5.00"/>
    <circle cx="193.34" cy="24.32" r="5.00"/>
    <circle cx="193.39" cy="49.43" r="5.00"/>
    <circle cx="193.46" cy="74.61" r="5.00"/>
    <circle cx="200.01" cy="37.65" r="5.00"/>
    <circle cx="207.26" cy="13.47" r="5.00"/>
    <circle cx="193.56" cy="99.89" r="5.00"/>
    <circle cx="200.07" cy="62.96" r="5.00"/>
    <circle cx="206.59" cy="26.03" r="5.00"/>
    <circle cx="206.64" cy="51.48" r="5.00"/>
    <circle cx="200.16" cy="88.44" r="5.00"/>
    <circle cx="213.15" cy="40.13" r="5.00"/>
    <circle cx="220.66" cy="16.22" r="5.00"/>
    <circle cx="206.69" cy="77.16" r="5.00"/>
    <circle cx="219.64" cy="28.86" r="5.00"/>
    <circle cx="213.17" cy="65.98" r="5.00"/>
    <circle cx="219.61" cy="54.87" r="5.00"/>
    <circle cx="233.80" cy="20.05" r="5.00"/>
    <circle cx="226.01" cy="43.81" r="5.00"/>
    <circle cx="206.74" cy="103.28" r="5.00"/>
    <circle cx="232.40" cy="32.80" r="5.00"/>
    <circle cx="213.14" cy="92.30" r="5.00"/>
    <circle cx="219.50" cy="81.37" r="5.00"/>
    <circle cx="225.84" cy="70.46" r="5.00"/>
    <circle cx="246.58" cy="24.94" r="5.00"/>
    <circle cx="232.16" cy="59.56" r="5.00"/>
    <circle cx="238.47" cy="48.68" r="5.00"/>
    <circle cx="244.77" cy="37.81" r="5.00"/>
  </g>
  <g style="fill:#0D00FF; stroke:none" id="ProgressiveParty">
    <circle cx="258.92" cy="30.84" r="5.00"/>
    <circle cx="219.17" cy="108.82" r="5.00"/>
    <circle cx="225.42" cy="97.99" r="5.00"/>
    <circle cx="231.68" cy="87.16" r="5.00"/>
    <circle cx="237.93" cy="76.34" r="5.00"/>
    <circle cx="244.18" cy="65.51" r="5.00"/>
    <circle cx="250.43" cy="54.68" r="5.00"/>
    <circle cx="256.68" cy="43.86" r="5.00"/>
    <circle cx="270.75" cy="37.73" r="5.00"/>
    <circle cx="268.02" cy="50.90" r="5.00"/>
    <circle cx="261.77" cy="61.77" r="5.00"/>
    <circle cx="255.52" cy="72.65" r="5.00"/>
    <circle cx="249.27" cy="83.55" r="5.00"/>
    <circle cx="243.02" cy="94.45" r="5.00"/>
    <circle cx="281.98" cy="45.55" r="5.00"/>
    <circle cx="236.76" cy="105.39" r="5.00"/>
    <circle cx="230.51" cy="116.35" r="5.00"/>
    <circle cx="278.72" cy="58.89" r="5.00"/>
    <circle cx="272.41" cy="69.89" r="5.00"/>
    <circle cx="266.08" cy="80.92" r="5.00"/>
    <circle cx="292.54" cy="54.26" r="5.00"/>
    <circle cx="259.72" cy="91.99" r="5.00"/>
    <circle cx="253.34" cy="103.12" r="5.00"/>
    <circle cx="288.70" cy="67.76" r="5.00"/>
    <circle cx="282.24" cy="78.95" r="5.00"/>
    <circle cx="246.92" cy="114.34" r="5.00"/>
    <circle cx="302.36" cy="63.79" r="5.00"/>
    <circle cx="275.73" cy="90.21" r="5.00"/>
    <circle cx="240.42" cy="125.68" r="5.00"/>
    <circle cx="269.16" cy="101.56" r="5.00"/>
    <circle cx="297.89" cy="77.45" r="5.00"/>
    <circle cx="291.19" cy="88.90" r="5.00"/>
    <circle cx="262.49" cy="113.03" r="5.00"/>
    <circle cx="311.37" cy="74.08" r="5.00"/>
    <circle cx="284.39" cy="100.45" r="5.00"/>
    <circle cx="255.68" cy="124.66" r="5.00"/>
    <circle cx="306.22" cy="87.89" r="5.00"/>
    <circle cx="277.45" cy="112.14" r="5.00"/>
    <circle cx="319.52" cy="85.08" r="5.00"/>
    <circle cx="299.18" cy="99.63" r="5.00"/>
    <circle cx="248.64" cy="136.53" r="5.00"/>
    <circle cx="270.30" cy="124.02" r="5.00"/>
    <circle cx="291.96" cy="111.51" r="5.00"/>
    <circle cx="313.62" cy="99.01" r="5.00"/>
    <circle cx="326.75" cy="96.69" r="5.00"/>
    <circle cx="306.14" cy="111.05" r="5.00"/>
    <circle cx="284.49" cy="123.59" r="5.00"/>
    <circle cx="262.86" cy="136.14" r="5.00"/>
    <circle cx="320.05" cy="110.71" r="5.00"/>
    <circle cx="298.37" cy="123.29" r="5.00"/>
    <circle cx="333.02" cy="108.86" r="5.00"/>
    <circle cx="276.67" cy="135.90" r="5.00"/>
    <circle cx="312.00" cy="123.08" r="5.00"/>
    <circle cx="254.93" cy="148.59" r="5.00"/>
    <circle cx="290.20" cy="135.75" r="5.00"/>
    <circle cx="325.45" cy="122.92" r="5.00"/>
    <circle cx="338.28" cy="121.49" r="5.00"/>
    <circle cx="303.53" cy="135.66" r="5.00"/>
    <circle cx="268.31" cy="148.53" r="5.00"/>
    <circle cx="316.72" cy="135.59" r="5.00"/>
    <circle cx="281.47" cy="148.50" r="5.00"/>
    <circle cx="329.79" cy="135.55" r="5.00"/>
    <circle cx="342.50" cy="134.51" r="5.00"/>
    <circle cx="294.49" cy="148.49" r="5.00"/>
    <circle cx="307.41" cy="148.49" r="5.00"/>
    <circle cx="259.13" cy="161.54" r="5.00"/>
    <circle cx="320.26" cy="148.49" r="5.00"/>
    <circle cx="333.04" cy="148.50" r="5.00"/>
    <circle cx="271.92" cy="161.57" r="5.00"/>
    <circle cx="345.65" cy="147.82" r="5.00"/>
    <circle cx="284.65" cy="161.60" r="5.00"/>
    <circle cx="297.32" cy="161.63" r="5.00"/>
    <circle cx="309.96" cy="161.65" r="5.00"/>
    <circle cx="322.58" cy="161.67" r="5.00"/>
    <circle cx="335.17" cy="161.69" r="5.00"/>
    <circle cx="347.72" cy="161.35" r="5.00"/>
    <circle cx="261.10" cy="175.01" r="5.00"/>
    <circle cx="273.62" cy="175.00" r="5.00"/>
    <circle cx="286.13" cy="175.00" r="5.00"/>
    <circle cx="298.64" cy="175.00" r="5.00"/>
    <circle cx="311.15" cy="175.00" r="5.00"/>
  </g>
  <g style="fill:#9A21D2; stroke:none" id="SovereigntyParty">
    <circle cx="323.66" cy="175.00" r="5.00"/>
    <circle cx="336.17" cy="175.00" r="5.00"/>
    <circle cx="348.68" cy="175.00" r="5.00"/>
  </g>
</g>
</svg>
