<?xml version="1.0" standalone="no"?>
<!DOCTYPE svg PUBLIC "-//W3C//DTD SVG 20010904//EN"
 "http://www.w3.org/TR/2001/REC-SVG-20010904/DTD/svg10.dtd">
<svg version="1.0" xmlns="http://www.w3.org/2000/svg"
 width="300.000000pt" height="298.000000pt" viewBox="0 0 300.000000 298.000000"
 preserveAspectRatio="xMidYMid meet">
<metadata>
Created by potrace 1.10, written by Peter Selinger 2001-2011
</metadata>
<g transform="translate(0.000000,298.000000) scale(0.100000,-0.100000)"
fill="#000000" stroke="none">
<path d="M1432 2963 c37 -2 100 -2 140 0 40 1 10 3 -67 3 -77 0 -110 -1 -73
-3z"/>
<path d="M1293 2953 c9 -2 25 -2 35 0 9 3 1 5 -18 5 -19 0 -27 -2 -17 -5z"/>
<path d="M1673 2953 c9 -2 25 -2 35 0 9 3 1 5 -18 5 -19 0 -27 -2 -17 -5z"/>
<path d="M1233 2943 c9 -2 23 -2 30 0 6 3 -1 5 -18 5 -16 0 -22 -2 -12 -5z"/>
<path d="M1748 2943 c6 -2 18 -2 25 0 6 3 1 5 -13 5 -14 0 -19 -2 -12 -5z"/>
<path d="M1178 2933 c6 -2 18 -2 25 0 6 3 1 5 -13 5 -14 0 -19 -2 -12 -5z"/>
<path d="M1798 2933 c6 -2 18 -2 25 0 6 3 1 5 -13 5 -14 0 -19 -2 -12 -5z"/>
<path d="M1138 2923 c7 -3 16 -2 19 1 4 3 -2 6 -13 5 -11 0 -14 -3 -6 -6z"/>
<path d="M1848 2923 c7 -3 16 -2 19 1 4 3 -2 6 -13 5 -11 0 -14 -3 -6 -6z"/>
<path d="M1888 2913 c7 -3 16 -2 19 1 4 3 -2 6 -13 5 -11 0 -14 -3 -6 -6z"/>
<path d="M1068 2903 c7 -3 16 -2 19 1 4 3 -2 6 -13 5 -11 0 -14 -3 -6 -6z"/>
<path d="M1709 2889 c-28 -28 -21 -50 24 -74 43 -23 48 -58 9 -63 -28 -4 -53
14 -45 34 3 8 1 14 -5 14 -15 0 -21 -38 -8 -50 28 -22 71 -22 99 0 38 30 32
60 -15 83 -50 25 -54 60 -5 55 23 -2 32 -8 31 -20 -2 -25 12 -22 19 3 4 15 -1
22 -19 30 -39 14 -62 11 -85 -12z"/>
<path d="M1355 2890 c-16 -4 -25 -8 -18 -9 18 -2 28 -101 12 -112 -9 -6 -1 -9
24 -9 35 0 37 1 22 16 -23 24 -15 48 19 52 28 3 29 2 23 -30 -5 -33 -4 -34 25
-30 16 3 26 7 20 11 -16 10 -24 108 -10 114 7 3 -3 6 -21 6 -27 1 -32 -2 -23
-11 7 -7 12 -20 12 -30 0 -13 -8 -18 -30 -18 -22 0 -30 5 -30 18 0 10 5 23 12
30 13 13 8 13 -37 2z"/>
<path d="M1506 2890 c6 -6 8 -33 4 -65 l-6 -55 33 -1 c18 -1 39 -2 45 -3 7 -1
14 8 15 19 2 11 0 14 -3 8 -3 -7 -17 -13 -30 -13 -19 0 -24 5 -24 25 0 26 25
35 33 13 7 -20 14 -7 22 40 l7 42 -53 0 c-35 0 -50 -3 -43 -10z m80 -27 c-3
-8 -6 -17 -6 -19 0 -2 -9 -4 -20 -4 -19 0 -28 28 -14 42 11 12 45 -5 40 -19z"/>
<path d="M975 2875 c-25 -12 -26 -14 -5 -9 28 7 60 23 45 23 -5 0 -23 -6 -40
-14z"/>
<path d="M1280 2879 c-14 -4 -40 -7 -57 -8 -35 -1 -39 -7 -23 -31 8 -13 10
-12 10 3 0 9 6 17 14 17 15 0 19 -10 31 -69 5 -23 3 -36 -6 -43 -11 -7 -9 -8
4 -4 10 3 28 6 40 6 18 0 19 1 5 13 -21 16 -35 107 -16 107 8 0 19 -5 26 -12
13 -13 16 0 4 18 -4 6 -17 7 -32 3z"/>
<path d="M1848 2881 c11 -7 10 -21 -8 -80 -11 -39 -25 -69 -31 -66 -5 4 -9 2
-9 -2 0 -5 18 -14 40 -20 22 -5 40 -7 40 -2 0 4 -5 9 -12 11 -16 6 19 138 36
138 20 0 34 -20 29 -41 -5 -19 -15 -23 -42 -20 -7 2 -10 -2 -6 -8 10 -16 51
-13 70 5 29 30 15 57 -40 76 -57 19 -89 23 -67 9z"/>
<path d="M2060 2855 c14 -8 30 -14 35 -14 6 0 -1 6 -15 14 -14 8 -29 14 -35
14 -5 0 1 -6 15 -14z"/>
<path d="M910 2850 c-8 -5 -10 -10 -5 -10 6 0 17 5 25 10 8 5 11 10 5 10 -5 0
-17 -5 -25 -10z"/>
<path d="M1070 2829 c-25 -10 -40 -18 -34 -18 17 -1 44 -97 30 -111 -8 -9 -5
-11 14 -5 14 4 32 11 40 16 13 7 13 8 -2 9 -10 0 -22 17 -32 47 -9 26 -16 47
-16 49 0 8 41 9 49 1 12 -12 15 2 3 19 -5 9 -20 7 -52 -7z"/>
<path d="M1990 2839 c0 -5 4 -9 10 -9 10 0 -22 -90 -45 -126 -13 -19 -10 -22
38 -42 38 -16 54 -19 64 -11 7 6 13 16 13 21 0 6 -6 6 -14 -1 -10 -8 -21 -8
-40 -1 -22 8 -26 14 -21 33 4 12 10 26 14 30 12 12 41 -3 41 -21 0 -21 16 -4
25 28 7 21 6 23 -7 12 -17 -14 -48 -6 -48 12 0 45 54 55 69 12 8 -20 8 -20 18
-1 10 18 5 23 -53 46 -35 15 -64 23 -64 18z"/>
<path d="M2111 2836 c10 -9 109 -56 109 -51 0 5 -95 55 -106 55 -4 0 -5 -2 -3
-4z"/>
<path d="M728 2755 c-117 -71 -195 -134 -304 -247 -77 -79 -160 -183 -189
-238 -15 -28 10 3 58 72 105 149 287 316 453 414 86 51 92 54 78 53 -5 0 -48
-24 -96 -54z"/>
<path d="M1102 2785 c-7 -8 -8 -15 -3 -15 5 0 16 -3 24 -6 12 -4 14 0 10 15
-6 25 -13 26 -31 6z"/>
<path d="M935 2778 c-27 -15 -35 -28 -35 -58 0 -64 61 -91 114 -49 67 53 -4
150 -79 107z m75 -49 c13 -29 12 -33 -10 -51 -20 -16 -25 -17 -44 -5 -12 8
-25 27 -31 42 -8 23 -6 30 14 46 29 23 53 13 71 -32z"/>
<path d="M2250 2767 c0 -3 23 -20 51 -38 125 -80 259 -201 355 -320 31 -38 59
-69 61 -69 20 0 -161 201 -240 268 -89 75 -227 171 -227 159z"/>
<path d="M2151 2689 c-35 -27 -71 -49 -80 -49 -13 -1 -13 -3 3 -15 11 -8 27
-15 35 -15 12 0 13 2 3 9 -10 6 -10 10 2 20 22 18 76 -11 69 -38 -3 -13 -10
-18 -21 -14 -10 4 -14 3 -11 0 9 -11 129 -87 137 -87 4 0 1 4 -6 9 -18 11 72
123 93 115 25 -10 17 2 -22 32 -27 21 -35 23 -30 10 5 -12 -6 -34 -35 -72 -24
-30 -46 -54 -49 -54 -22 0 -26 30 -15 108 11 78 11 93 -3 91 -3 0 -35 -22 -70
-50z m43 -16 c-9 -36 -9 -36 -32 -22 -20 12 -20 13 2 30 30 26 37 23 30 -8z"/>
<path d="M683 2677 c-33 -22 -44 -41 -20 -31 13 5 87 -93 87 -115 0 -23 -37
-17 -105 16 -41 20 -77 34 -81 30 -4 -4 5 -41 19 -82 27 -80 27 -125 0 -89
-14 18 -15 18 -11 -1 1 -11 -5 -31 -14 -44 l-18 -25 -25 24 c-23 22 -24 25 -9
41 9 10 23 15 32 12 10 -4 15 -4 12 -2 -49 41 -53 44 -47 27 3 -9 -2 -23 -12
-32 -16 -15 -19 -15 -35 3 -14 16 -15 23 -6 41 8 15 18 20 31 17 22 -6 25 6 5
22 -11 9 -22 2 -55 -38 -44 -52 -49 -64 -27 -55 18 7 106 -72 106 -95 0 -9 30
16 70 59 70 75 80 87 59 74 -10 -6 -28 11 -29 27 0 4 11 14 24 23 27 17 60 11
52 -9 -2 -7 34 14 80 48 57 40 83 65 79 74 -3 8 -5 17 -5 19 0 2 -4 4 -10 4
-5 0 -7 -7 -3 -15 5 -16 -21 -44 -42 -45 -17 0 -76 105 -69 123 8 21 6 21 -33
-6z m-60 -153 c22 -8 22 -21 -2 -34 -16 -8 -21 -5 -30 21 -8 23 -8 29 2 25 6
-3 20 -9 30 -12z"/>
<path d="M1547 2582 c-21 -23 -21 -41 -2 -69 13 -18 13 -22 0 -33 -18 -15 -20
-51 -3 -68 18 -18 73 -14 91 6 21 23 21 41 2 70 -14 19 -14 24 -1 45 14 21 14
25 0 45 -19 27 -64 29 -87 4z m73 -31 c-1 -44 -43 -50 -56 -8 -8 26 22 52 43
36 7 -6 13 -19 13 -28z m-3 -125 c-4 -9 -17 -16 -31 -16 -30 0 -42 30 -26 61
l12 22 25 -26 c16 -15 23 -31 20 -41z"/>
<path d="M2385 2587 c-22 -5 -46 -11 -52 -13 -9 -2 -13 -22 -13 -56 0 -52 2
-54 66 -117 62 -62 65 -64 82 -46 15 16 15 17 1 12 -10 -3 -25 4 -38 17 l-21
22 23 23 c21 18 26 20 36 7 6 -7 11 -18 10 -22 -4 -22 2 -23 21 -4 23 23 25
31 7 24 -8 -3 -20 2 -27 11 -11 14 -10 19 8 37 l21 21 19 -23 c11 -14 17 -31
14 -40 -4 -12 -1 -11 14 3 18 17 17 19 -28 62 -49 47 -61 54 -53 32 7 -18 -92
-114 -105 -101 -5 5 -11 36 -12 69 l-3 60 53 0 c55 0 62 4 35 20 -12 7 -32 8
-58 2z"/>
<path d="M1308 2544 c-29 -15 -39 -30 -13 -20 12 4 15 -5 15 -53 0 -39 -4 -61
-12 -64 -7 -2 4 -6 25 -8 20 -3 37 -1 37 3 0 4 -4 8 -10 8 -5 0 -10 33 -12 74
l-3 74 -27 -14z"/>
<path d="M1378 2525 c-4 -21 -2 -23 13 -15 10 6 34 10 54 10 l36 0 -42 -75
c-22 -41 -39 -80 -37 -87 4 -10 108 170 108 186 0 3 -29 6 -64 6 -60 0 -64 -2
-68 -25z"/>
<path d="M1687 2532 c-20 -22 -22 -73 -5 -90 14 -14 54 -16 63 -3 3 5 -5 11
-17 13 -18 2 -24 10 -26 39 -2 26 2 38 12 42 25 10 46 -21 46 -68 0 -58 -6
-71 -47 -96 -48 -30 -33 -36 17 -8 69 39 90 110 49 163 -24 31 -68 35 -92 8z"/>
<path d="M909 2391 c-14 -33 -21 -39 -59 -45 l-43 -7 32 -27 c32 -26 33 -29
22 -67 -6 -21 -9 -41 -6 -43 2 -2 18 6 36 19 l32 23 38 -22 c21 -12 40 -22 42
-22 3 0 0 19 -6 42 -10 39 -9 42 20 69 30 26 31 27 10 33 -12 3 -32 6 -43 6
-16 0 -26 11 -38 40 -9 22 -17 40 -18 40 -2 0 -10 -17 -19 -39z m35 -36 c5
-20 13 -25 38 -25 l32 0 -23 -16 c-19 -14 -22 -22 -16 -51 l6 -36 -27 22 c-23
18 -29 19 -43 8 -35 -30 -41 -29 -29 4 10 28 8 34 -13 50 l-24 19 28 0 c19 0
31 7 39 25 6 14 15 25 19 25 4 0 10 -11 13 -25z"/>
<path d="M2593 2420 c5 -20 -99 -101 -120 -93 -12 5 -10 -2 7 -25 24 -32 43
-43 35 -19 -6 16 92 90 110 83 20 -7 19 -30 -1 -47 -12 -10 -20 -10 -34 -2
-16 10 -20 6 -35 -34 -14 -37 -15 -49 -5 -71 12 -27 12 -27 26 23 7 28 13 53
14 56 0 3 13 4 28 1 33 -4 57 18 48 45 -8 23 -79 103 -73 83z"/>
<path d="M2128 2370 c-14 -35 -21 -40 -59 -46 l-43 -7 32 -26 c29 -25 30 -29
22 -66 -13 -56 -12 -60 8 -43 41 36 61 40 91 18 16 -11 32 -20 35 -20 3 0 3
20 0 43 -6 41 -4 46 27 70 33 26 34 27 9 27 -48 0 -67 12 -86 51 l-19 39 -17
-40z m32 -35 c7 -18 17 -25 35 -25 28 0 34 -15 9 -24 -13 -5 -15 -15 -11 -41
l6 -35 -29 17 c-27 16 -30 16 -48 0 -26 -24 -33 -21 -21 10 8 22 6 30 -12 50
l-22 23 30 0 c25 0 32 5 37 25 4 14 9 25 11 25 3 0 10 -11 15 -25z"/>
<path d="M340 2338 c-25 -41 -25 -53 0 -78 26 -26 32 -25 68 5 33 28 43 30 60
13 8 -8 8 -17 0 -32 -15 -28 -29 -37 -53 -30 -20 5 -20 5 -1 -10 26 -21 31
-20 55 10 26 33 27 76 3 97 -25 23 -35 21 -71 -9 -31 -26 -61 -27 -61 -1 0 23
35 48 56 40 17 -6 17 -5 5 10 -20 25 -39 21 -61 -15z"/>
<path d="M1638 2273 c-16 -37 -21 -41 -63 -48 l-47 -7 34 -24 c18 -14 32 -28
32 -32 -1 -4 -5 -24 -8 -45 l-7 -38 40 23 40 23 31 -24 c17 -12 34 -21 37 -18
2 3 0 22 -6 44 -11 36 -10 39 21 65 l33 27 -43 7 c-38 6 -44 11 -60 48 l-18
40 -16 -41z m68 -63 l27 0 -20 -22 c-15 -18 -18 -29 -13 -50 7 -25 6 -27 -10
-18 -11 6 -22 15 -25 20 -4 6 -18 2 -36 -10 -30 -22 -33 -19 -19 15 5 14 2 26
-13 43 l-20 22 27 0 c21 0 29 7 38 31 l11 31 13 -31 c10 -24 19 -31 40 -31z"/>
<path d="M2770 2250 c6 -11 13 -20 16 -20 2 0 0 9 -6 20 -6 11 -13 20 -16 20
-2 0 0 -9 6 -20z"/>
<path d="M210 2230 c-6 -11 -8 -20 -6 -20 3 0 10 9 16 20 6 11 8 20 6 20 -3 0
-10 -9 -16 -20z"/>
<path d="M2827 2145 c20 -41 39 -73 41 -71 4 5 -66 146 -73 146 -3 0 12 -34
32 -75z"/>
<path d="M165 2149 c-9 -17 -15 -33 -13 -35 3 -2 12 12 21 31 21 43 13 47 -8
4z"/>
<path d="M1025 2143 c-11 -3 -102 -32 -203 -65 -177 -58 -382 -144 -396 -167
-11 -18 43 -32 119 -32 150 2 225 -4 225 -16 0 -18 39 -35 65 -29 18 5 25 1
30 -13 3 -11 16 -23 28 -27 12 -4 33 -15 46 -25 13 -11 33 -19 44 -19 19 0 20
-1 2 -20 -17 -19 -17 -20 19 -35 28 -12 36 -20 31 -34 -3 -11 1 -24 11 -32 14
-11 19 -10 34 9 l18 22 6 -25 c4 -16 13 -25 26 -25 16 0 20 -7 20 -30 0 -27 3
-30 24 -24 21 5 23 3 19 -19 -6 -33 11 -42 41 -22 22 15 25 15 33 0 9 -15 11
-15 23 -1 11 15 14 15 25 -1 11 -15 15 -16 30 -3 17 14 18 11 11 -48 -10 -89
-20 -111 -76 -160 -34 -30 -61 -67 -87 -119 -35 -71 -38 -82 -36 -159 3 -127
40 -194 151 -276 53 -39 54 -41 46 -77 -8 -37 -11 -318 -3 -325 2 -2 28 -6 57
-9 51 -6 52 -6 52 20 0 26 -1 26 -15 7 -22 -30 -18 -3 6 31 15 23 19 25 14 8
-3 -12 -1 -24 5 -28 5 -3 10 -16 10 -28 0 -18 2 -19 10 -7 9 13 10 13 11 0 1
-8 5 5 8 29 9 63 31 66 33 4 l1 -48 7 50 7 50 1 -47 c2 -58 22 -65 22 -9 0 22
5 43 10 46 6 4 10 -10 10 -34 0 -55 20 -64 22 -9 l1 43 4 -38 c5 -44 22 -40
24 6 l1 32 8 -30 c4 -16 8 -22 9 -12 2 27 19 20 24 -10 4 -27 4 -26 6 4 0 17
6 44 11 58 13 34 -7 200 -27 232 -13 20 -11 24 44 66 120 92 159 153 179 278
8 45 -9 123 -37 185 -25 52 -114 154 -135 154 -9 0 -14 11 -14 29 0 16 -7 34
-15 41 -9 7 -15 29 -15 51 0 33 3 39 20 39 11 0 23 7 27 16 3 9 13 14 24 11
11 -3 23 2 28 11 8 13 12 14 25 3 20 -17 36 -6 36 25 0 21 4 24 20 19 18 -6
20 -2 20 40 l0 45 25 -16 25 -16 0 34 c0 32 2 35 25 30 20 -3 25 0 25 17 0 16
6 21 29 21 16 0 34 6 40 14 7 8 27 17 45 20 28 5 33 10 29 26 -5 19 -1 18 59
-9 52 -23 75 -28 128 -26 36 2 85 -3 110 -10 25 -7 78 -16 117 -20 61 -5 73
-4 73 9 0 74 -455 381 -596 402 -38 5 -54 2 -107 -24 -85 -42 -152 -106 -166
-158 -10 -38 -27 -60 -58 -78 -8 -4 -28 17 -56 61 -57 89 -67 97 -120 90 -71
-10 -132 -94 -93 -126 11 -10 20 -10 38 0 21 11 22 11 8 -5 -23 -29 -59 -38
-97 -25 -38 12 -64 57 -41 71 45 27 44 25 23 65 -16 30 -38 48 -110 86 -77 41
-97 47 -145 46 -30 -1 -64 -3 -75 -6z m210 -55 c69 -41 115 -79 115 -95 0 -5
-13 -14 -29 -20 -21 -8 -31 -19 -33 -39 -4 -26 -5 -27 -13 -10 -6 14 -2 31 12
58 l21 38 -72 44 c-82 49 -118 60 -169 51 l-35 -7 16 -29 c10 -16 25 -29 35
-29 29 0 19 -17 -14 -22 -25 -4 -33 -1 -36 13 -4 15 -9 16 -23 9 -10 -6 -27
-10 -37 -10 -10 0 -26 -9 -36 -20 -18 -21 -57 -28 -57 -10 0 6 -12 2 -27 -9
-37 -25 -73 -36 -73 -21 0 7 -15 -1 -32 -16 -33 -27 -33 -27 -36 -5 -3 18 -6
20 -17 11 -8 -7 -64 -27 -125 -45 -101 -30 -110 -32 -93 -13 26 29 96 63 101
49 2 -7 20 1 45 18 52 37 222 98 422 152 54 14 116 0 190 -43z m875 8 c61 -29
45 -28 -42 3 l-57 21 -58 -22 c-38 -15 -77 -41 -112 -75 -31 -30 -59 -49 -64
-44 -16 16 101 114 168 139 43 16 102 8 165 -22z m-972 -6 c20 0 23 -4 20 -32
-3 -37 -24 -40 -21 -4 1 22 -1 23 -38 19 -22 -3 -39 -1 -39 4 0 17 14 24 35
19 11 -3 30 -6 43 -6z m892 -10 c0 -12 -42 -23 -67 -17 -15 3 -14 5 7 15 32
14 60 15 60 2z m70 -6 l25 -15 -25 7 c-14 3 -29 10 -34 15 -16 14 6 10 34 -7z
m-906 -16 c-5 -8 -2 -9 9 -5 10 3 17 2 17 -4 0 -16 -31 -23 -41 -8 -13 21 -11
29 7 29 9 0 12 -5 8 -12z m939 -10 c17 14 93 -1 120 -24 12 -11 38 -27 57 -37
79 -40 293 -217 279 -231 -2 -3 -37 20 -77 51 -41 30 -76 53 -79 50 -2 -3 21
-24 51 -47 66 -50 75 -64 14 -21 -82 56 -114 89 -99 100 16 10 -34 50 -137
108 -60 33 -132 51 -132 31 0 -12 -55 -10 -85 4 -52 24 -19 43 38 20 26 -10
41 -11 50 -4z m-209 -15 c13 -34 -51 -52 -71 -20 -4 6 4 7 22 3 22 -6 26 -4
22 8 -6 14 0 26 14 26 4 0 10 -8 13 -17z m64 1 c18 -13 21 -19 11 -30 -15 -19
-33 -18 -50 2 -12 15 -11 16 11 9 25 -8 25 -8 6 14 -22 25 -10 28 22 5z m-724
-16 c18 -26 13 -38 -14 -31 -25 7 -32 17 -24 37 8 22 20 20 38 -6z m-245 8
c-2 -2 -20 -6 -39 -10 -25 -4 -31 -3 -20 4 14 9 69 15 59 6z m101 -21 c-7 -8
-24 -15 -39 -14 l-26 1 30 13 c40 18 50 18 35 0z m84 -1 c23 -22 20 -37 -4
-24 -11 6 -20 17 -20 25 0 19 5 19 24 -1z m381 -8 c41 -41 85 -140 85 -193 0
-36 -3 -44 -12 -35 -9 9 -14 7 -24 -6 -10 -13 -17 -15 -30 -6 -24 14 -29 32
-10 36 13 3 13 5 0 22 -14 19 -14 19 -14 -5 l-1 -24 -18 23 c-23 26 -31 28
-31 5 0 -14 -4 -13 -24 6 -24 23 -25 23 -19 2 3 -13 18 -25 42 -31 36 -11 89
-65 76 -78 -3 -4 -13 2 -21 12 -13 18 -14 18 -14 2 0 -9 7 -24 15 -32 8 -9 15
-21 15 -27 0 -13 -49 43 -50 57 0 4 -7 6 -15 2 -12 -4 -14 0 -9 22 4 23 3 24
-6 10 -15 -25 -27 -22 -44 10 -14 25 -15 26 -16 5 0 -27 -7 -29 -32 -6 -10 9
-18 12 -18 7 0 -17 23 -34 46 -34 15 0 26 -9 32 -27 6 -16 11 -22 11 -15 1 6
8 12 16 12 11 0 15 -11 15 -42 l-1 -43 -20 24 c-30 37 -35 16 -6 -28 l26 -38
-24 -11 c-19 -9 -25 -8 -29 5 -14 36 -14 4 0 -36 14 -42 12 -61 -7 -61 -5 0
-9 10 -9 23 0 12 -5 29 -10 37 -7 11 -10 6 -11 -20 0 -33 -1 -34 -12 -12 -8
17 -8 32 0 52 9 23 8 27 -3 23 -8 -3 -15 1 -16 8 -2 23 -5 33 -18 67 -10 26
-15 30 -26 21 -11 -9 -14 -7 -14 10 0 39 35 25 50 -19 13 -41 20 -44 54 -31
14 5 16 10 8 15 -17 10 -15 26 3 26 20 0 19 6 -5 30 -20 20 -20 20 -20 -4 0
-31 -14 -40 -30 -21 -10 12 -10 18 0 30 11 13 10 14 -4 9 -12 -5 -16 0 -17 22
l-1 29 -13 -29 c-12 -28 -13 -29 -19 -8 -4 12 -4 27 0 33 4 7 -1 7 -16 -1 -29
-16 -38 -5 -15 20 18 20 17 20 -15 20 -28 0 -31 -2 -20 -15 10 -12 10 -18 0
-30 -21 -25 -32 -17 -25 16 7 30 6 31 -19 25 -22 -5 -26 -3 -26 14 0 19 2 20
29 6 21 -11 31 -12 40 -3 14 14 15 30 1 22 -6 -4 -17 -4 -25 -1 -12 4 -13 10
-3 30 l11 25 34 -29 c18 -17 39 -30 46 -30 7 0 -5 15 -25 33 -29 26 -35 36
-28 52 8 19 9 19 9 -2 1 -33 47 -63 96 -63 36 0 48 5 71 33 24 28 27 29 21 9
-4 -18 -2 -22 8 -18 8 3 21 -5 30 -17 12 -18 15 -19 15 -4 0 20 11 22 28 5 9
-9 12 -9 12 2 0 18 -40 60 -57 60 -7 0 -13 6 -13 14 0 12 -7 13 -31 6 -17 -5
-37 -14 -44 -20 -9 -8 -14 -7 -18 4 -7 18 23 46 50 46 28 0 53 10 53 20 0 5
-17 6 -37 4 -29 -4 -34 -3 -23 5 28 20 89 13 115 -13z m465 -12 c0 -16 -8 -28
-24 -36 -30 -13 -56 -5 -56 18 0 12 6 15 25 10 20 -5 25 -3 25 12 0 10 3 22 6
25 12 11 24 -4 24 -29z m148 13 c4 -17 2 -18 -27 -2 -38 19 -39 27 -4 23 17
-2 29 -10 31 -21z m-1150 -12 c11 -25 11 -26 -21 -24 -17 0 -43 -3 -56 -7 -17
-5 -22 -4 -17 4 10 16 9 16 -49 -12 -27 -14 -51 -21 -53 -16 -2 4 -22 -3 -45
-15 -23 -13 -62 -26 -87 -29 l-45 -6 39 10 c22 6 42 13 45 17 6 6 -63 -3 -106
-14 -13 -3 -23 -1 -23 4 0 6 66 29 148 53 242 71 253 73 270 35z m112 6 c-14
-28 -13 -29 18 -33 23 -4 24 -5 9 -12 -20 -9 -67 10 -67 27 0 11 30 36 43 37
4 0 3 -9 -3 -19z m947 4 c9 -25 -2 -27 -22 -5 -17 18 -17 20 -1 20 9 0 19 -7
23 -15z m191 -35 c34 -22 62 -46 62 -55 0 -8 -3 -15 -8 -15 -12 0 -56 32 -65
47 -5 7 -13 11 -18 7 -12 -7 -36 12 -50 38 -16 30 11 22 79 -22z m-408 15 c27
-14 30 -14 30 0 0 8 3 15 8 15 10 0 35 -41 28 -47 -10 -10 -75 8 -98 27 -28
23 -9 26 32 5z m399 -77 c41 -27 98 -61 126 -75 27 -14 61 -34 74 -44 l24 -19
-27 0 c-27 0 -96 25 -96 34 0 3 12 1 26 -4 14 -6 23 -6 19 -1 -3 5 -27 17 -53
25 -26 9 -73 32 -105 51 -32 19 -62 35 -67 35 -5 0 -29 10 -53 23 -39 19 -43
25 -35 43 l10 21 41 -20 c23 -11 75 -42 116 -69z m-1163 25 c-1 -1 -23 -4 -49
-6 -25 -2 -53 -10 -61 -16 -8 -7 -20 -11 -28 -10 -7 2 -28 -5 -46 -15 -37 -19
-132 -34 -132 -20 1 31 74 64 182 83 37 6 78 15 90 20 18 7 25 4 35 -13 6 -11
10 -22 9 -23z m134 37 c0 -6 -7 -13 -15 -16 -14 -6 -13 -8 2 -20 17 -14 16
-14 -7 -12 -43 5 -36 57 8 58 6 0 12 -5 12 -10z m620 -52 c0 -12 -16 -9 -54 8
-22 11 -32 22 -29 31 4 11 9 11 26 -4 19 -18 19 -17 13 7 -7 24 -6 24 18 -5
14 -16 26 -33 26 -37z m238 17 c29 -17 94 -53 145 -81 96 -53 124 -80 66 -64
-18 5 -44 21 -59 35 -14 14 -35 25 -46 25 -10 0 -46 18 -78 40 -33 22 -70 43
-83 46 -13 4 -23 9 -23 13 0 10 12 22 19 19 3 -2 30 -17 59 -33z m-1458 6
c-24 -14 -125 -42 -115 -32 10 9 100 39 120 40 6 0 3 -4 -5 -8z m1110 -14 c0
-17 -10 -28 -35 -40 -49 -23 -67 -21 -28 3 18 11 38 29 45 40 16 25 18 25 18
-3z m183 -10 c-5 14 1 12 23 -8 16 -14 48 -37 72 -49 23 -13 42 -30 42 -37 0
-7 8 -13 17 -13 14 0 14 -3 5 -12 -10 -10 -15 -10 -20 -1 -4 6 -49 32 -100 58
-70 35 -92 51 -92 66 0 20 0 20 30 -1 27 -19 29 -19 23 -3z m58 -3 c21 -24 22
-26 3 -16 -25 13 -50 42 -37 42 5 0 20 -12 34 -26z m103 -28 c17 -13 59 -37
94 -55 34 -17 62 -34 62 -37 0 -10 -44 8 -93 38 -27 16 -54 27 -60 25 -5 -1
-20 5 -31 16 -12 10 -34 29 -51 43 l-30 25 39 -16 c22 -9 54 -26 70 -39z
m-978 29 c-11 -8 -25 -15 -30 -15 -6 0 -5 -4 2 -8 8 -6 -11 -18 -55 -36 -111
-46 -234 -47 -138 -2 28 13 215 73 235 75 3 0 -4 -6 -14 -14z m699 -12 c40
-19 48 -37 9 -23 -32 13 -37 12 -29 0 3 -5 1 -10 -5 -10 -7 0 -10 6 -7 14 3 7
0 19 -6 25 -16 16 -3 14 38 -6z m-595 -12 c-26 -21 -40 -19 -40 5 0 9 11 14
33 14 l32 0 -25 -19z m-53 -33 c-26 -17 -37 -9 -25 18 11 24 13 25 25 8 10
-14 10 -19 0 -26z m606 0 c6 -8 7 -23 4 -32 -6 -14 -10 -15 -29 -5 -24 13 -38
28 -38 43 0 5 10 1 21 -10 22 -19 22 -19 14 5 -8 27 11 26 28 -1z m199 -43
c58 -31 68 -45 31 -45 -45 0 -73 11 -73 29 0 9 -16 26 -35 39 -19 12 -35 27
-35 33 0 6 15 1 33 -10 17 -12 53 -33 79 -46z m-867 35 c-3 -5 -12 -10 -19
-10 -7 0 -21 -7 -32 -15 -17 -13 -14 -13 25 0 68 24 61 9 -13 -26 -54 -25 -73
-30 -104 -24 -37 7 -37 7 -12 18 14 6 52 24 85 39 64 30 80 34 70 18z m576
-18 c1 -11 4 -8 9 8 7 22 8 21 9 -12 1 -21 -3 -38 -7 -38 -9 0 -32 44 -32 61
0 17 20 -1 21 -19z m184 8 c3 -5 1 -10 -4 -10 -6 0 -11 5 -11 10 0 6 2 10 4
10 3 0 8 -4 11 -10z m-681 -42 c-6 -31 -5 -32 8 -14 10 13 17 15 22 8 4 -6 -6
-18 -24 -27 -28 -14 -30 -14 -30 2 0 29 12 63 21 63 5 0 6 -15 3 -32z m610 -5
c-4 -16 -8 -30 -10 -32 -6 -6 -44 31 -44 42 0 6 8 2 19 -7 17 -16 19 -16 24 4
8 31 18 24 11 -7z m66 -3 c19 -16 30 -29 23 -30 -6 0 -15 5 -18 10 -3 6 -11
10 -17 10 -7 0 2 -14 19 -30 29 -28 49 -70 34 -70 -13 0 -81 62 -92 83 -9 18
-5 16 22 -8 l33 -30 -17 28 c-10 15 -14 27 -11 27 4 0 -1 9 -11 20 -27 30 -4
24 35 -10z m-765 -10 c-36 -24 -26 -26 16 -4 47 24 45 9 -3 -24 -54 -37 -82
-46 -116 -37 -26 6 -27 7 -7 22 24 18 116 63 130 63 6 0 -3 -9 -20 -20z m635
-5 c0 -27 -6 -30 -29 -16 -12 8 -12 12 -2 25 19 23 31 20 31 -9z m199 -5 c22
-11 34 -37 21 -45 -5 -3 -18 8 -30 25 -23 32 -20 36 9 20z m-609 -30 c0 -11
-7 -20 -15 -20 -8 0 -15 9 -15 20 0 11 7 20 15 20 8 0 15 -9 15 -20z m312 -22
c-13 -13 -26 8 -17 30 6 16 7 16 17 -1 7 -13 7 -22 0 -29z m-509 -11 c-20 -43
-33 -48 -33 -13 0 14 10 32 22 40 29 21 30 17 11 -27z m59 4 c-6 -17 -7 -31
-2 -31 5 0 14 16 21 35 7 19 16 35 20 35 9 0 -21 -92 -45 -138 -9 -18 -19 -32
-23 -32 -9 0 6 130 18 152 16 29 23 14 11 -21z m613 -10 c5 -16 4 -21 -4 -17
-17 11 -13 -5 9 -42 14 -22 18 -41 14 -58 -7 -25 -7 -25 -35 18 -15 23 -30 57
-34 73 -4 24 -1 21 15 -14 11 -24 23 -41 26 -38 3 3 -2 19 -10 36 -18 35 -20
45 -6 36 6 -4 8 7 4 27 -6 36 8 22 21 -21z m55 -30 c17 -60 13 -67 -20 -36
-28 27 -41 53 -20 40 14 -9 12 5 -5 35 -22 38 -18 46 10 20 14 -13 29 -40 35
-59z m-609 28 c-17 -50 -12 -58 9 -14 10 22 19 32 19 23 1 -28 -40 -131 -60
-153 -19 -19 -19 -19 -19 11 0 25 8 53 46 163 2 8 7 11 10 8 4 -3 1 -20 -5
-38z m439 10 c0 -24 -23 -21 -28 4 -2 10 3 17 12 17 10 0 16 -9 16 -21z m50
11 c0 -5 -4 -10 -10 -10 -5 0 -10 5 -10 10 0 6 5 10 10 10 6 0 10 -4 10 -10z
m-596 -49 c-9 -22 -20 -41 -25 -41 -5 0 1 20 13 45 27 55 35 53 12 -4z m-75
-2 c-13 -19 -25 -27 -27 -20 -4 13 38 65 46 57 2 -3 -6 -19 -19 -37z m581 17
c0 -23 -13 -26 -32 -9 -25 22 -23 31 7 25 14 -2 25 -10 25 -16z m-98 -18 c-9
-9 -12 -7 -12 12 0 19 3 21 12 12 9 -9 9 -15 0 -24z m198 -28 c20 -40 27 -90
12 -90 -14 0 -50 43 -61 73 -18 48 -11 65 9 21 21 -48 47 -72 35 -33 -4 13
-14 37 -22 53 -8 15 -10 25 -4 21 6 -3 20 -24 31 -45z m-412 -33 c12 -13 13
-24 6 -44 -23 -67 -52 -12 -37 74 6 41 8 44 11 18 2 -16 11 -38 20 -48z m337
32 c-6 -19 -9 -20 -16 -6 -11 20 0 52 13 39 6 -6 7 -20 3 -33z m-310 6 c0 -10
-5 -20 -11 -22 -13 -4 -27 24 -18 38 9 15 29 4 29 -16z m248 6 c10 -3 27 -26
37 -49 19 -42 14 -56 -10 -27 -7 8 -17 12 -23 8 -5 -3 -16 2 -23 11 -11 16
-13 16 -18 -1 -9 -29 -46 -24 -46 6 0 46 38 70 83 52z m-327 -77 c-4 -18 -11
-36 -15 -39 -17 -10 -18 32 -2 71 18 44 27 26 17 -32z m404 3 c0 -18 -2 -19
-10 -7 -13 20 -13 43 0 35 6 -3 10 -16 10 -28z m-300 -12 c0 -13 -4 -27 -10
-30 -6 -4 -10 8 -10 30 0 22 4 34 10 30 6 -3 10 -17 10 -30z m120 -20 c0 -14
-4 -25 -10 -25 -5 0 -10 11 -10 25 0 14 5 25 10 25 6 0 10 -11 10 -25z m110
-1 c0 -17 -12 -18 -28 -2 -18 18 -15 27 8 21 11 -3 20 -12 20 -19z m100 1 c0
-25 -14 -34 -24 -16 -8 12 3 41 15 41 5 0 9 -11 9 -25z m-150 -16 c0 -10 -4
-19 -9 -19 -12 0 -23 29 -15 41 8 14 24 0 24 -22z m93 -5 c-8 -21 -23 -17 -23
6 0 13 5 18 14 14 8 -3 12 -12 9 -20z m-263 -30 c0 -22 -4 -33 -11 -29 -6 4
-8 13 -5 21 3 7 0 16 -6 20 -7 4 -6 9 3 15 19 12 19 13 19 -27z m230 22 c0 -2
-3 -12 -6 -20 -5 -13 -9 -14 -20 -5 -20 16 -17 29 6 29 11 0 20 -2 20 -4z
m-82 -28 c5 -7 12 -28 14 -45 4 -26 1 -33 -13 -33 -13 0 -18 10 -21 45 -3 46
2 55 20 33z m42 2 c0 -5 -4 -10 -10 -10 -5 0 -10 5 -10 10 0 6 5 10 10 10 6 0
10 -4 10 -10z m-78 -32 c5 -29 4 -30 -9 -12 -8 10 -19 18 -24 17 -14 -4 -11
15 4 20 22 9 25 7 29 -25z m158 22 c0 -5 -7 -10 -15 -10 -8 0 -15 5 -15 10 0
6 7 10 15 10 8 0 15 -4 15 -10z m-222 -25 c16 -35 16 -35 -17 -22 -24 9 -28
14 -20 29 13 25 24 23 37 -7z m-68 -6 c0 -5 -4 -9 -10 -9 -5 0 -10 7 -10 16 0
8 5 12 10 9 6 -3 10 -10 10 -16z m253 6 c18 -13 18 -14 -1 -24 -16 -8 -21 -7
-26 5 -14 36 -4 43 27 19z m-255 -52 c-2 -14 -9 -28 -16 -31 -11 -3 -12 0 -3
17 7 12 9 26 6 31 -3 6 -1 10 5 10 6 0 10 -12 8 -27z m122 11 c0 -8 -4 -12
-10 -9 -5 3 -10 10 -10 16 0 5 5 9 10 9 6 0 10 -7 10 -16z m-70 -24 c0 -11 -2
-20 -5 -20 -2 0 -9 9 -15 20 -9 16 -8 20 5 20 8 0 15 -9 15 -20z m40 10 c0 -5
-2 -10 -4 -10 -3 0 -8 5 -11 10 -3 6 -1 10 4 10 6 0 11 -4 11 -10z m100 -16
c0 -12 -6 -15 -22 -10 -13 3 -30 6 -38 7 -8 1 -1 5 15 9 45 11 45 11 45 -6z
m55 -4 c17 -19 17 -20 0 -20 -18 0 -18 -1 1 -15 17 -13 13 -14 -47 -15 -86 0
-129 -9 -129 -26 0 -9 -11 -14 -30 -14 -16 0 -30 -4 -30 -9 0 -5 26 -8 58 -5
45 3 50 2 24 -5 -53 -14 -49 -21 9 -16 39 3 47 2 29 -4 -24 -9 -24 -9 8 -10
37 -1 41 10 10 32 -29 19 -21 27 31 34 37 5 41 3 47 -21 3 -14 2 -32 -4 -39
-8 -9 7 -11 71 -7 82 4 82 4 27 10 l-55 6 50 5 50 5 -65 4 -65 3 55 7 c55 8
55 8 92 -32 34 -36 78 -128 78 -163 0 -12 -18 -15 -87 -17 -87 -1 -87 -1 -28
-8 l60 -7 -53 -1 c-66 -2 -61 -22 6 -23 46 -1 46 -1 12 -8 -20 -4 -42 -11 -49
-15 -7 -5 -31 -8 -53 -8 -22 1 -37 -2 -34 -5 3 -4 54 -6 113 -6 l108 1 -90
-13 -90 -12 85 -4 85 -3 -105 -6 -105 -6 85 -4 c52 -2 68 -5 40 -7 -162 -11
-190 -15 -190 -28 0 -9 -11 -14 -27 -14 -16 0 -83 -1 -151 -1 -88 0 -121 -4
-116 -12 5 -8 74 -9 243 -6 155 4 227 2 211 -4 -14 -5 -121 -10 -239 -11 -244
-2 -228 -8 -254 93 l-14 55 51 6 51 6 -52 1 c-55 2 -67 14 -35 38 10 8 12 13
5 14 -18 0 -16 43 2 88 52 125 148 190 267 183 68 -4 108 7 108 29 0 10 -6 21
-12 23 -9 4 -7 6 3 6 9 1 24 -8 34 -19z m35 10 c0 -5 -4 -10 -9 -10 -6 0 -13
5 -16 10 -3 6 1 10 9 10 9 0 16 -4 16 -10z m40 -15 c0 -8 -2 -15 -4 -15 -2 0
-6 7 -10 15 -3 8 -1 15 4 15 6 0 10 -7 10 -15z m-290 -15 c0 -5 -7 -10 -15
-10 -8 0 -15 5 -15 10 0 6 7 10 15 10 8 0 15 -4 15 -10z m118 -7 c-10 -2 -26
-2 -35 0 -10 3 -2 5 17 5 19 0 27 -2 18 -5z m152 3 c0 -3 -4 -8 -10 -11 -5 -3
-10 -1 -10 4 0 6 5 11 10 11 6 0 10 -2 10 -4z m-320 -14 c0 -4 -14 -16 -30
-26 -52 -30 -108 -111 -131 -189 -21 -67 -21 -74 -7 -131 9 -34 19 -70 23 -80
6 -14 5 -17 -3 -12 -19 12 -14 -5 13 -40 14 -18 49 -49 78 -68 51 -33 53 -34
112 -24 69 11 231 6 245 -8 5 -5 -41 -8 -125 -6 -73 2 -141 0 -150 -5 -11 -6
14 -8 72 -7 75 3 84 2 60 -8 -20 -9 -27 -18 -24 -30 4 -15 -1 -18 -28 -18 -19
0 -37 -4 -40 -10 -4 -6 23 -11 72 -12 73 -1 75 -2 28 -8 -46 -6 -47 -7 -12 -8
20 -1 37 -7 37 -12 0 -6 -11 -8 -25 -4 -15 4 -32 1 -42 -7 -9 -8 -14 -9 -10
-3 5 8 -7 10 -38 6 -28 -3 -45 -1 -45 6 0 6 15 13 33 15 l32 4 -36 1 c-34 2
-37 -1 -41 -28 -4 -27 -2 -30 16 -23 12 3 38 6 58 5 21 0 40 3 43 9 4 5 14 5
26 -2 11 -6 33 -7 49 -4 16 3 38 1 50 -5 18 -10 21 -8 27 20 5 27 8 30 20 17
9 -8 12 -23 8 -38 l-6 -24 -160 0 -161 0 6 35 c3 19 8 49 11 66 6 28 3 35 -32
60 -65 48 -114 97 -135 138 -11 21 -15 35 -9 31 16 -9 13 7 -10 60 -41 94 -1
225 98 323 49 47 83 65 83 44z m350 -44 c0 -5 -21 -8 -47 -7 -44 1 -46 1 -20
11 15 5 25 13 22 18 -3 4 6 3 20 -3 14 -7 25 -15 25 -19z m150 -152 c11 -33
20 -78 20 -101 0 -44 -23 -132 -47 -178 -17 -34 -30 -29 -14 5 11 21 10 21 -6
-2 -10 -14 -35 -43 -57 -65 -22 -22 -40 -44 -41 -49 0 -14 -45 -41 -45 -26 0
6 9 14 20 17 11 3 18 9 15 13 -2 4 15 27 39 52 24 25 57 74 75 108 41 84 44
178 6 258 -14 30 -25 59 -25 65 1 25 40 -41 60 -97z m-40 -106 c0 -5 -5 -10
-11 -10 -5 0 -7 5 -4 10 3 6 8 10 11 10 2 0 4 -4 4 -10z m-12 -37 c-15 -2 -42
-2 -60 0 -18 2 -6 4 27 4 33 0 48 -2 33 -4z m-23 -103 c-3 -6 -50 -10 -106
-10 -59 0 -99 4 -99 10 0 6 42 10 106 10 67 0 103 -4 99 -10z m-30 -40 c-3 -5
-12 -10 -18 -10 -7 0 -6 4 3 10 19 12 23 12 15 0z m-80 -30 c-106 -11 -368
-11 -385 0 -10 6 65 9 220 8 161 -1 213 -3 165 -8z m24 -36 c-6 -8 -15 -14
-20 -14 -14 0 -11 28 4 33 20 7 29 -4 16 -19z m-41 11 c-10 -10 -313 -14 -328
-5 -10 6 48 10 159 10 96 0 172 -2 169 -5z m-13 -84 c2 -4 1 -19 -3 -33 -7
-26 -7 -26 -52 -11 -81 26 -77 23 -54 42 21 17 98 18 109 2z m-19 -83 c5 -8 0
-9 -16 -5 -13 3 -30 1 -37 -5 -13 -11 -19 3 -6 15 11 11 51 8 59 -5z m-163
-70 c-12 -6 -24 -17 -27 -24 -4 -11 0 -11 19 2 18 12 28 13 44 5 13 -7 28 -8
44 -2 37 14 52 -2 48 -51 -1 -16 -9 -17 -77 -11 -64 5 -76 4 -72 -8 3 -10 24
-14 75 -14 39 0 69 -3 66 -7 -2 -5 5 -8 16 -8 10 0 27 -3 35 -6 12 -5 15 -2
10 10 -5 12 -2 15 10 10 12 -5 15 -2 10 10 -4 10 -13 15 -20 12 -47 -19 -45
-20 -34 10 10 26 8 32 -18 55 l-29 26 36 -3 c20 -1 41 -2 48 -3 24 -2 43 -33
43 -71 0 -21 -5 -42 -10 -45 -6 -4 -7 -11 -4 -17 5 -8 -9 -9 -47 -5 -30 4
-105 7 -166 7 l-113 0 0 65 c0 50 3 65 15 65 8 0 19 -9 25 -21 9 -16 14 -18
26 -8 8 6 14 18 14 25 0 9 10 14 28 13 26 0 26 -1 5 -11z m72 2 c3 -5 -1 -10
-9 -10 -8 0 -18 5 -21 10 -3 6 1 10 9 10 8 0 18 -4 21 -10z m-115 -10 c0 -5
-4 -10 -10 -10 -5 0 -10 5 -10 10 0 6 5 10 10 10 6 0 10 -4 10 -10z m4 -161
c-14 -29 -17 -30 -32 -16 -13 13 -13 19 -2 31 7 9 21 16 31 16 19 0 19 -2 3
-31z"/>
<path d="M945 2070 c-3 -5 -23 -10 -43 -10 -40 0 -153 -29 -216 -55 -67 -28
-34 -24 59 7 62 21 108 30 147 30 48 -1 60 2 68 18 11 21 -3 29 -15 10z"/>
<path d="M1610 1854 c0 -8 5 -12 10 -9 6 4 8 11 5 16 -9 14 -15 11 -15 -7z"/>
<path d="M1620 1800 c0 -5 5 -10 10 -10 6 0 10 5 10 10 0 6 -4 10 -10 10 -5 0
-10 -4 -10 -10z"/>
<path d="M1321 1594 c0 -11 3 -14 6 -6 3 7 2 16 -1 19 -3 4 -6 -2 -5 -13z"/>
<path d="M1458 1223 c7 -3 16 -2 19 1 4 3 -2 6 -13 5 -11 0 -14 -3 -6 -6z"/>
<path d="M1550 1220 c-8 -5 -42 -10 -75 -11 l-60 -2 45 -7 c39 -6 40 -7 13 -8
-36 -2 -46 -22 -12 -22 16 0 19 -3 11 -13 -8 -9 0 -12 36 -13 35 -1 40 1 22 6
-28 8 -22 12 45 29 46 12 82 13 45 1 -16 -5 11 -8 75 -8 86 0 93 1 51 9 -28 4
-53 6 -58 3 -4 -3 -8 -1 -8 5 0 5 19 14 43 20 37 9 30 10 -50 8 -51 -2 -93 0
-93 5 0 11 -12 10 -30 -2z m20 -20 c12 -8 9 -10 -13 -10 -16 0 -26 4 -22 10 8
12 16 12 35 0z"/>
<path d="M1743 1193 c9 -2 25 -2 35 0 9 3 1 5 -18 5 -19 0 -27 -2 -17 -5z"/>
<path d="M1565 1150 c7 -12 178 -12 215 0 16 5 -21 8 -98 9 -80 1 -121 -3
-117 -9z"/>
<path d="M1468 1123 c12 -2 30 -2 40 0 9 3 -1 5 -23 4 -22 0 -30 -2 -17 -4z"/>
<path d="M1683 1123 c26 -2 67 -2 90 0 23 2 2 3 -48 3 -49 0 -68 -1 -42 -3z"/>
<path d="M1431 1106 c11 -9 69 -14 69 -6 0 6 -16 10 -37 10 -20 0 -34 -2 -32
-4z"/>
<path d="M1735 1100 c-44 -3 -65 -7 -47 -8 19 -1 31 -6 27 -12 -4 -6 16 -10
54 -10 54 0 60 2 58 20 -1 11 -4 19 -7 18 -3 -1 -41 -5 -85 -8z"/>
<path d="M1430 1080 c-11 -7 -1 -9 35 -9 40 1 45 3 25 9 -35 11 -43 11 -60 0z"/>
<path d="M1390 1046 l-45 -10 45 -6 45 -6 -35 -6 c-20 -3 -2 -5 42 -5 74 0 76
1 63 20 -16 23 -53 27 -115 13z"/>
<path d="M1243 1023 c9 -2 23 -2 30 0 6 3 -1 5 -18 5 -16 0 -22 -2 -12 -5z"/>
<path d="M1405 991 l60 -5 -60 -6 -60 -7 82 -1 c85 -2 117 4 107 19 -3 5 -47
8 -97 7 -82 -2 -85 -2 -32 -7z"/>
<path d="M1234 978 c-3 -4 13 -8 35 -8 23 0 41 2 41 4 0 8 -71 12 -76 4z"/>
<path d="M1235 950 c-4 -6 11 -10 39 -10 25 0 48 5 51 10 4 6 -11 10 -39 10
-25 0 -48 -4 -51 -10z"/>
<path d="M1365 951 c3 -2 22 -7 42 -11 27 -6 9 -8 -65 -9 -99 -1 -102 -2 -92
-21 9 -17 20 -20 68 -18 54 1 54 2 12 5 -25 3 -49 8 -54 14 -12 11 137 12 174
1 22 -6 19 -8 -20 -13 -42 -6 -41 -6 19 -7 60 -2 63 -1 48 16 -14 16 -14 17
13 17 16 0 31 -3 34 -6 9 -8 66 2 66 12 0 5 -10 11 -22 13 -31 7 -228 13 -223
7z"/>
<path d="M1624 549 c-7 -12 13 -29 35 -29 11 0 10 5 -4 20 -21 23 -22 23 -31
9z"/>
<path d="M1370 530 c0 -5 5 -10 10 -10 6 0 10 5 10 10 0 6 -4 10 -10 10 -5 0
-10 -4 -10 -10z"/>
<path d="M1660 500 c-13 -8 -12 -10 3 -10 9 0 17 5 17 10 0 12 -1 12 -20 0z"/>
<path d="M1378 465 c-4 -19 -1 -25 13 -25 22 0 23 8 5 33 -13 16 -14 16 -18
-8z"/>
<path d="M1420 470 c6 -11 13 -20 15 -20 3 0 5 9 5 20 0 11 -7 20 -15 20 -13
0 -14 -4 -5 -20z"/>
<path d="M2741 2098 c-21 -7 -22 -13 -19 -61 3 -46 1 -52 -16 -52 -28 0 -44
30 -28 55 13 21 6 26 -17 11 -30 -19 11 -91 52 -91 40 0 49 14 45 66 -3 46 -2
49 22 49 35 0 52 -48 24 -71 -17 -14 -17 -15 -1 -10 10 3 23 6 28 6 29 0 -15
93 -48 102 -10 3 -29 1 -42 -4z"/>
<path d="M197 2072 c-24 -26 -35 -65 -27 -88 5 -13 30 -30 64 -45 41 -16 56
-28 56 -42 0 -17 -5 -19 -32 -13 -75 15 -108 28 -108 41 0 26 -17 16 -23 -12
-5 -28 2 -48 10 -27 2 8 19 7 55 -2 28 -8 53 -15 54 -17 2 -2 -30 -19 -71 -38
-41 -18 -77 -39 -79 -45 -3 -7 21 -18 62 -29 37 -9 72 -18 79 -20 6 -2 9 -13
6 -25 -4 -16 -11 -20 -32 -16 -14 3 -45 8 -68 11 -27 4 -43 12 -43 21 0 8 -4
14 -10 14 -5 0 -10 -13 -10 -29 0 -16 -3 -36 -6 -45 -3 -9 -1 -16 5 -16 6 0
11 6 11 13 0 11 13 12 67 5 71 -10 99 -28 60 -40 -12 -3 -16 -6 -9 -7 6 -1 12
-12 12 -26 0 -24 -2 -25 -65 -25 -49 0 -66 4 -73 17 -7 12 -11 7 -14 -25 -2
-23 0 -42 4 -42 5 0 8 5 8 10 0 11 81 13 118 4 25 -7 31 -44 7 -44 -8 0 -15
-4 -15 -10 0 -5 9 -10 21 -10 12 0 19 -5 17 -12 -5 -14 -148 -29 -148 -15 0 4
-3 7 -7 7 -5 0 -6 -28 -3 -62 5 -58 7 -63 30 -66 22 -2 23 -1 9 10 -9 7 -18
25 -21 40 -4 24 -2 27 29 30 29 4 33 1 33 -19 0 -13 -4 -23 -10 -23 -5 0 -10
-4 -10 -9 0 -5 14 -9 30 -9 17 1 30 5 30 10 0 4 -4 8 -10 8 -5 0 -10 11 -10
25 0 21 5 25 30 25 27 0 30 -3 30 -30 0 -16 -4 -30 -10 -30 -5 0 -10 -5 -10
-11 0 -5 4 -7 10 -4 5 3 10 0 10 -8 0 -17 -121 -44 -140 -32 -15 9 -5 -65 14
-105 16 -37 70 -60 109 -49 44 12 60 36 53 79 -3 19 -10 64 -15 100 -19 119
-11 347 15 433 5 15 3 17 -13 7 -13 -8 -29 -7 -63 3 l-45 15 71 32 c65 30 73
36 84 72 6 22 14 47 18 57 5 13 3 14 -9 4 -12 -10 -25 -7 -66 11 -28 13 -53
29 -57 34 -8 14 9 58 26 64 21 9 118 -33 118 -50 0 -20 12 -6 28 31 11 26 11
28 -6 23 -11 -4 -39 3 -63 14 -54 24 -72 25 -92 2z m47 -808 c20 -52 -11 -94
-70 -94 -33 0 -57 20 -68 57 -6 18 -3 23 16 28 39 9 103 23 109 24 4 1 10 -6
13 -15z"/>
<path d="M126 2065 c-9 -26 -7 -32 5 -12 6 10 9 21 6 23 -2 3 -7 -2 -11 -11z"/>
<path d="M2870 2055 c0 -5 5 -17 10 -25 5 -8 10 -10 10 -5 0 6 -5 17 -10 25
-5 8 -10 11 -10 5z"/>
<path d="M106 2015 c-9 -26 -7 -32 5 -12 6 10 9 21 6 23 -2 3 -7 -2 -11 -11z"/>
<path d="M2897 1990 c3 -14 12 -41 20 -60 11 -30 12 -31 8 -6 -4 16 -13 43
-20 60 -11 23 -13 25 -8 6z"/>
<path d="M2815 1979 c-4 -6 0 -9 10 -7 12 2 21 -6 28 -25 11 -34 10 -35 -28
-39 -25 -2 -31 1 -33 20 -2 12 2 22 9 22 7 0 10 2 7 5 -9 9 -58 -6 -58 -17 0
-5 4 -7 9 -4 4 3 13 -5 19 -18 9 -21 8 -25 -11 -30 -12 -3 -27 -6 -33 -6 -16
0 -23 46 -10 61 8 9 7 10 -7 5 -10 -3 -20 -6 -22 -6 -1 0 6 -27 16 -61 10 -33
19 -72 19 -85 0 -25 16 -33 22 -11 2 9 16 10 62 2 l59 -10 -53 -33 c-42 -26
-55 -30 -62 -20 -6 9 -8 3 -4 -17 4 -16 9 -87 13 -157 6 -122 7 -128 27 -128
12 0 16 3 10 8 -6 4 -13 17 -16 30 -6 21 -4 22 67 22 62 0 74 -3 78 -17 3 -10
5 5 6 32 0 35 -2 46 -9 35 -7 -11 -28 -15 -75 -15 -61 0 -65 1 -65 23 0 12 5
22 10 22 6 0 10 5 10 10 0 6 -7 10 -15 10 -26 0 -16 18 13 24 61 12 113 10
123 -4 6 -10 7 0 3 30 -7 46 -14 66 -14 38 0 -11 -14 -17 -46 -22 -127 -17
-135 1 -29 70 41 27 75 52 75 56 0 4 -35 14 -77 23 -102 22 -105 23 -101 37 5
15 108 50 131 44 13 -3 17 0 13 12 -3 9 -10 36 -17 60 -12 41 -39 57 -54 31z"/>
<path d="M71 1904 c0 -11 3 -14 6 -6 3 7 2 16 -1 19 -3 4 -6 -2 -5 -13z"/>
<path d="M2931 1874 c0 -11 3 -14 6 -6 3 7 2 16 -1 19 -3 4 -6 -2 -5 -13z"/>
<path d="M52 1830 c0 -14 2 -19 5 -12 2 6 2 18 0 25 -3 6 -5 1 -5 -13z"/>
<path d="M2941 1834 c0 -11 3 -14 6 -6 3 7 2 16 -1 19 -3 4 -6 -2 -5 -13z"/>
<path d="M2951 1794 c0 -11 3 -14 6 -6 3 7 2 16 -1 19 -3 4 -6 -2 -5 -13z"/>
<path d="M41 1784 c0 -11 3 -14 6 -6 3 7 2 16 -1 19 -3 4 -6 -2 -5 -13z"/>
<path d="M2962 1740 c0 -14 2 -19 5 -12 2 6 2 18 0 25 -3 6 -5 1 -5 -13z"/>
<path d="M32 1730 c0 -14 2 -19 5 -12 2 6 2 18 0 25 -3 6 -5 1 -5 -13z"/>
<path d="M2972 1670 c0 -19 2 -27 5 -17 2 9 2 25 0 35 -3 9 -5 1 -5 -18z"/>
<path d="M22 1660 c0 -19 2 -27 5 -17 2 9 2 25 0 35 -3 9 -5 1 -5 -18z"/>
<path d="M655 1622 c-17 -32 -26 -38 -63 -42 l-42 -5 34 -27 c33 -26 34 -29
25 -69 -5 -23 -8 -43 -6 -45 2 -2 19 7 37 21 19 14 34 25 35 25 1 0 16 -11 35
-25 18 -14 35 -23 37 -21 2 2 -1 22 -6 45 -9 40 -8 43 25 69 l34 27 -42 5
c-36 4 -46 10 -60 38 -22 46 -21 45 -43 4z m70 -52 c30 0 32 -11 6 -27 -16
-10 -18 -18 -11 -43 10 -33 4 -36 -24 -15 -17 13 -22 13 -42 0 -32 -21 -35
-19 -23 12 9 23 7 30 -10 44 -28 23 -26 29 8 29 23 0 30 5 36 28 l7 27 14 -27
c10 -19 23 -28 39 -28z"/>
<path d="M2371 1582 c-20 -39 -24 -42 -64 -42 l-42 -1 34 -28 c34 -28 35 -29
24 -75 -5 -25 -7 -46 -4 -45 3 0 22 11 41 23 l35 23 33 -25 c18 -14 34 -23 37
-21 2 3 0 22 -5 44 -8 37 -7 42 22 73 l32 32 -35 0 c-42 0 -50 6 -70 50 l-16
35 -22 -43z m72 -52 l30 0 -22 -24 c-16 -17 -20 -30 -15 -50 7 -29 -2 -33 -26
-11 -15 14 -20 13 -43 -6 -28 -21 -33 -13 -17 26 6 15 1 25 -19 42 l-26 22 33
1 c26 0 35 5 43 28 l11 27 10 -27 c8 -22 16 -28 41 -28z"/>
<path d="M2984 1490 c0 -74 1 -105 3 -67 2 37 2 97 0 135 -2 37 -3 6 -3 -68z"/>
<path d="M14 1490 c0 -58 1 -81 3 -52 2 28 2 76 0 105 -2 28 -3 5 -3 -53z"/>
<path d="M2926 1411 c-3 -4 -42 -18 -86 -31 -44 -13 -79 -27 -77 -33 1 -5 34
-28 72 -49 39 -22 73 -44 76 -50 3 -5 9 1 12 14 10 35 8 42 -7 29 -7 -6 -20
-9 -28 -6 -21 8 -11 72 13 78 12 3 19 0 19 -9 0 -8 5 -14 10 -14 6 0 10 18 10
40 0 40 -4 48 -14 31z m-60 -77 c-3 -9 -6 -20 -6 -25 0 -5 -15 -2 -32 8 l-33
17 25 7 c42 12 53 10 46 -7z"/>
<path d="M2088 1353 c-14 -36 -20 -41 -59 -47 l-44 -7 33 -27 c30 -25 32 -29
22 -62 -15 -52 -13 -53 29 -29 l39 22 36 -22 c39 -24 40 -24 27 31 -8 33 -6
38 21 58 34 25 25 40 -23 40 -19 0 -29 9 -45 41 l-20 41 -16 -39z m70 -63 l27
-1 -23 -18 c-19 -16 -21 -23 -12 -46 14 -38 13 -39 -19 -15 -18 12 -32 16 -36
10 -3 -5 -15 -14 -25 -20 -17 -9 -18 -7 -9 22 8 28 6 35 -13 50 l-23 18 28 0
c23 0 31 6 40 31 l12 31 13 -31 c9 -24 18 -31 40 -31z"/>
<path d="M981 1327 c-14 -42 -35 -57 -81 -57 l-32 0 34 -27 c18 -15 34 -27 35
-28 1 -1 -2 -18 -8 -39 -6 -21 -8 -40 -6 -42 2 -3 21 5 41 17 l36 21 37 -28
36 -27 -7 37 c-4 21 -9 43 -11 49 -3 7 12 24 32 40 34 25 35 27 12 27 -51 0
-71 13 -88 54 l-18 41 -12 -38z m66 -67 l26 0 -20 -22 c-16 -18 -18 -29 -13
-50 9 -31 -1 -36 -20 -13 -16 19 -29 19 -52 -2 -23 -21 -31 -13 -19 18 7 19 4
29 -12 47 l-20 22 26 0 c20 0 31 7 39 26 l12 25 13 -25 c9 -18 22 -26 40 -26z"/>
<path d="M22 1320 c0 -19 2 -27 5 -17 2 9 2 25 0 35 -3 9 -5 1 -5 -18z"/>
<path d="M2972 1310 c0 -19 2 -27 5 -17 2 9 2 25 0 35 -3 9 -5 1 -5 -18z"/>
<path d="M545 1292 c-15 -37 -21 -42 -49 -42 -50 0 -59 -13 -26 -35 32 -22 35
-33 21 -83 -6 -18 -7 -32 -3 -30 4 2 23 12 44 22 36 19 36 19 68 -4 17 -12 33
-20 35 -18 3 2 0 22 -6 43 -11 38 -10 41 20 65 30 25 40 41 24 39 -5 -1 -23
-1 -41 0 -29 1 -35 7 -52 43 l-19 42 -16 -42z m72 -62 l28 0 -23 -18 c-18 -14
-22 -24 -17 -45 7 -27 -7 -38 -20 -17 -9 15 -36 12 -58 -7 -18 -17 -19 -17
-12 18 6 31 3 39 -16 53 l-23 16 31 0 c26 0 33 5 43 33 l11 32 14 -32 c11 -26
20 -33 42 -33z"/>
<path d="M2745 1238 c-4 -24 -18 -71 -30 -105 -12 -35 -19 -63 -14 -63 5 0 9
4 9 9 0 9 83 -18 96 -31 3 -4 -27 -17 -67 -29 -87 -26 -75 -19 -83 -46 -5 -17
-4 -22 6 -18 18 7 134 -41 131 -54 -6 -22 14 -10 26 15 10 23 9 25 -7 20 -9
-3 -40 3 -67 14 -28 10 -48 19 -45 20 26 3 164 57 167 65 1 6 -31 23 -72 38
-48 18 -75 34 -75 43 0 11 6 13 20 9 11 -4 20 -2 20 4 0 6 -4 11 -10 11 -10 0
-14 33 -5 42 9 9 126 -27 135 -42 12 -19 16 -13 24 35 4 25 3 35 -2 27 -8 -12
-20 -12 -73 0 -53 12 -65 18 -67 36 -3 17 2 22 18 22 12 0 18 5 15 10 -3 6
-15 10 -25 10 -14 0 -20 -10 -25 -42z"/>
<path d="M32 1250 c0 -14 2 -19 5 -12 2 6 2 18 0 25 -3 6 -5 1 -5 -13z"/>
<path d="M2962 1240 c0 -14 2 -19 5 -12 2 6 2 18 0 25 -3 6 -5 1 -5 -13z"/>
<path d="M41 1194 c0 -11 3 -14 6 -6 3 7 2 16 -1 19 -3 4 -6 -2 -5 -13z"/>
<path d="M2951 1184 c0 -11 3 -14 6 -6 3 7 2 16 -1 19 -3 4 -6 -2 -5 -13z"/>
<path d="M756 1140 c-15 -37 -18 -40 -56 -40 -48 0 -50 -8 -10 -35 23 -15 29
-25 25 -42 -3 -13 -8 -35 -11 -49 l-7 -27 38 26 c35 24 40 25 66 12 15 -8 31
-19 34 -25 13 -21 24 -9 15 16 -18 46 -12 71 23 96 l32 23 -45 5 c-40 4 -47 9
-63 43 -9 20 -19 37 -21 37 -2 0 -11 -18 -20 -40z m34 -25 c7 -20 17 -25 42
-25 l33 -1 -26 -22 c-22 -18 -25 -26 -18 -46 12 -32 4 -38 -21 -16 -18 16 -21
17 -44 1 -34 -22 -37 -20 -25 11 9 23 7 30 -10 44 -28 23 -26 29 9 29 23 0 31
5 36 25 3 14 8 25 10 25 3 0 9 -11 14 -25z"/>
<path d="M52 1150 c0 -14 2 -19 5 -12 2 6 2 18 0 25 -3 6 -5 1 -5 -13z"/>
<path d="M2941 1144 c0 -11 3 -14 6 -6 3 7 2 16 -1 19 -3 4 -6 -2 -5 -13z"/>
<path d="M2357 1102 c-14 -35 -21 -42 -44 -42 -50 0 -58 -15 -24 -40 20 -14
30 -28 27 -38 -3 -10 -8 -30 -12 -46 l-7 -30 38 24 38 24 39 -22 c41 -25 42
-24 29 31 -8 34 -7 39 20 58 35 25 30 39 -15 39 -28 0 -35 5 -52 42 l-20 41
-17 -41z m71 -62 l27 -1 -23 -18 c-19 -16 -21 -23 -12 -46 14 -38 13 -39 -18
-17 -27 20 -28 20 -55 0 -30 -22 -31 -21 -16 18 9 24 7 30 -13 46 l-23 18 28
0 c23 0 31 6 40 31 l12 31 13 -31 c9 -24 18 -31 40 -31z"/>
<path d="M2931 1104 c0 -11 3 -14 6 -6 3 7 2 16 -1 19 -3 4 -6 -2 -5 -13z"/>
<path d="M242 1084 c-18 -12 -22 -23 -20 -57 3 -38 1 -42 -21 -42 -30 0 -47
38 -26 59 20 20 19 25 -5 19 -45 -12 -5 -113 45 -113 33 0 49 25 46 76 -2 39
1 44 19 44 29 0 43 -39 21 -64 -15 -18 -15 -19 2 -13 10 4 21 7 23 7 15 0 0
55 -21 75 -28 29 -33 30 -63 9z"/>
<path d="M71 1074 c0 -11 3 -14 6 -6 3 7 2 16 -1 19 -3 4 -6 -2 -5 -13z"/>
<path d="M2068 1021 c-14 -34 -21 -41 -45 -41 -50 0 -59 -15 -24 -40 20 -14
30 -28 27 -38 -3 -10 -8 -30 -12 -46 l-7 -30 38 24 38 24 39 -22 c41 -24 42
-24 29 30 -8 33 -6 38 21 58 34 25 25 40 -23 40 -19 0 -29 9 -45 41 l-20 41
-16 -41z m70 -61 l27 -1 -23 -18 c-19 -16 -21 -23 -12 -46 14 -37 13 -38 -16
-18 -24 16 -29 16 -54 1 l-28 -16 9 31 c8 27 6 34 -13 49 l-23 18 28 0 c23 0
31 6 40 31 l12 31 13 -31 c9 -24 18 -31 40 -31z"/>
<path d="M2902 1013 c-15 -48 -8 -55 8 -8 7 20 10 38 8 41 -3 2 -10 -13 -16
-33z"/>
<path d="M100 985 c0 -5 5 -17 10 -25 5 -8 10 -10 10 -5 0 6 -5 17 -10 25 -5
8 -10 11 -10 5z"/>
<path d="M314 974 c-14 -12 -15 -14 -3 -11 18 6 39 -10 39 -28 0 -15 -115 -69
-129 -61 -15 10 -14 0 6 -37 11 -21 18 -27 20 -17 2 8 31 29 64 46 59 32 60
32 71 11 8 -16 8 -22 -1 -25 -12 -4 -15 -22 -3 -22 4 0 13 4 21 9 11 7 7 22
-20 79 -19 39 -37 71 -40 71 -3 1 -14 -6 -25 -15z"/>
<path d="M2876 945 c-9 -26 -7 -32 5 -12 6 10 9 21 6 23 -2 3 -7 -2 -11 -11z"/>
<path d="M120 935 c0 -5 5 -17 10 -25 5 -8 10 -10 10 -5 0 6 -5 17 -10 25 -5
8 -10 11 -10 5z"/>
<path d="M2616 892 c-13 -26 -38 -65 -56 -87 -25 -31 -30 -46 -26 -69 5 -23 4
-26 -8 -17 -11 9 -22 2 -55 -38 -46 -55 -49 -61 -23 -55 10 3 37 -14 70 -44
l52 -49 36 44 c30 37 34 46 23 59 -11 13 -10 15 2 14 29 -5 39 1 54 30 20 38
19 63 -3 83 -26 23 -41 21 -73 -9 -30 -29 -59 -27 -59 4 0 26 23 44 46 35 17
-6 17 -5 6 10 -8 9 -11 21 -7 27 7 11 110 -41 130 -65 8 -10 18 0 40 42 23 45
26 56 14 64 -21 13 -33 11 -20 -5 9 -10 9 -20 0 -40 -14 -31 -17 -31 -47 -8
-25 19 -21 58 4 48 20 -8 17 4 -3 20 -24 18 -32 17 -27 -3 2 -10 0 -24 -5 -32
-8 -12 -13 -12 -36 3 -25 16 -25 19 -12 39 9 12 20 21 26 20 17 -4 13 14 -4
21 -10 4 -22 -9 -39 -42z m62 -175 c5 -25 -27 -59 -49 -52 -14 5 -17 1 -14
-22 1 -15 -5 -37 -13 -49 l-17 -21 -27 20 c-26 19 -27 22 -12 38 9 10 23 15
32 12 21 -9 7 14 -18 27 -15 8 -18 7 -14 -3 3 -8 -2 -20 -11 -27 -14 -11 -19
-10 -36 6 -17 18 -17 22 -4 40 14 21 40 24 76 9 10 -4 27 3 45 19 33 29 57 30
62 3z"/>
<path d="M2827 835 c-20 -41 -35 -75 -32 -75 7 0 77 141 73 146 -2 2 -21 -30
-41 -71z"/>
<path d="M927 830 c-14 -38 -18 -40 -56 -40 -49 0 -51 -8 -11 -35 23 -15 29
-25 25 -42 -3 -13 -8 -35 -12 -50 l-6 -27 35 22 c43 27 56 27 88 2 36 -28 38
-25 27 25 -10 45 -10 46 24 75 l34 29 -47 1 c-44 0 -47 2 -58 35 -16 49 -25
50 -43 5z m33 -25 c7 -18 17 -25 35 -25 30 0 33 -15 5 -30 -16 -9 -18 -15 -9
-37 12 -33 6 -39 -22 -20 -20 14 -24 14 -47 -1 l-24 -16 6 32 c6 25 3 33 -13
44 -29 18 -26 28 9 28 23 0 31 5 36 25 3 14 8 25 10 25 3 0 9 -11 14 -25z"/>
<path d="M160 841 c0 -6 4 -13 10 -16 6 -3 7 1 4 9 -7 18 -14 21 -14 7z"/>
<path d="M345 784 c-33 -7 -66 -11 -72 -9 -17 6 -16 -5 1 -27 16 -21 28 -24
20 -4 -3 8 3 15 14 18 27 7 59 -46 42 -67 -7 -8 -16 -12 -21 -9 -17 10 -8 -11
16 -41 20 -24 24 -26 23 -9 -1 10 17 47 40 81 23 34 42 67 42 72 0 14 -29 12
-105 -5z m49 -26 c-10 -13 -20 -25 -21 -27 -2 -3 -10 4 -17 15 -13 17 -12 20
7 26 44 13 51 9 31 -14z"/>
<path d="M1889 751 c-14 -33 -21 -39 -59 -45 l-43 -7 31 -27 c30 -25 31 -29
22 -67 -5 -22 -7 -41 -5 -43 2 -2 18 6 36 19 l32 23 38 -22 c48 -28 51 -28 39
4 -17 44 -12 68 20 89 25 17 27 21 12 27 -9 4 -29 7 -43 7 -22 1 -30 9 -43 41
-9 22 -17 40 -18 40 -2 0 -10 -17 -19 -39z m32 -31 c9 -25 16 -30 42 -30 l31
0 -23 -16 c-19 -14 -22 -23 -18 -51 l6 -34 -29 21 c-17 12 -31 16 -35 10 -3
-5 -15 -14 -25 -20 -18 -9 -18 -8 -8 21 10 28 8 34 -13 50 l-24 19 28 0 c23 0
31 6 40 30 6 17 13 30 15 30 2 0 8 -13 13 -30z"/>
<path d="M210 750 c6 -11 13 -20 16 -20 2 0 0 9 -6 20 -6 11 -13 20 -16 20 -2
0 0 -9 6 -20z"/>
<path d="M2770 730 c-6 -11 -8 -20 -6 -20 3 0 10 9 16 20 6 11 8 20 6 20 -3 0
-10 -9 -16 -20z"/>
<path d="M471 727 c-16 -16 -14 -32 3 -18 12 10 17 8 26 -9 9 -18 6 -24 -21
-48 -71 -59 -75 -62 -87 -50 -7 7 -12 8 -12 2 0 -6 14 -23 32 -40 18 -17 29
-22 25 -12 -4 11 9 29 43 57 27 23 53 41 58 41 14 0 22 -27 15 -47 -6 -16 -5
-16 11 -4 11 9 20 11 27 4 12 -12 -75 -113 -98 -113 -8 0 7 -20 34 -44 35 -32
51 -41 61 -34 6 6 12 15 12 20 0 7 -5 6 -13 -1 -11 -8 -19 -5 -35 12 l-22 23
23 23 c24 22 38 17 48 -17 3 -10 10 -7 24 9 16 18 17 21 3 16 -9 -3 -23 2 -32
12 -15 16 -14 19 7 39 l24 22 18 -20 c20 -22 27 -58 13 -66 -15 -9 -8 -36 17
-66 20 -24 23 -33 14 -44 -26 -31 -76 -4 -66 36 7 25 -5 26 -20 1 -11 -17 -8
-23 18 -45 36 -31 69 -33 92 -8 23 25 21 39 -8 74 -20 24 -23 33 -14 44 16 19
33 18 52 -4 13 -14 14 -21 5 -30 -8 -8 -8 -12 -1 -12 6 0 16 6 22 14 18 21
-43 70 -77 61 -20 -5 -23 -4 -15 7 15 18 -189 232 -206 215z"/>
<path d="M244 695 c72 -119 260 -317 386 -406 70 -50 180 -114 180 -106 0 3
-29 21 -64 41 -149 84 -349 267 -453 414 -52 74 -76 103 -49 57z"/>
<path d="M2667 583 c-60 -78 -217 -228 -300 -287 -37 -26 -107 -70 -155 -97
-48 -27 -83 -49 -78 -49 34 0 260 148 368 243 65 56 231 247 215 247 -3 0 -26
-26 -50 -57z"/>
<path d="M2351 558 c-77 -68 -100 -85 -191 -142 -41 -25 -67 -46 -58 -46 18 0
78 -96 78 -124 0 -15 6 -13 43 9 23 14 48 29 55 33 13 9 6 42 -9 42 -4 0 -6
-6 -3 -14 4 -11 -44 -54 -50 -44 -35 53 -35 54 -14 67 17 11 22 10 29 -1 7
-10 9 -10 9 2 -1 8 -7 24 -15 34 -12 16 -15 17 -15 4 0 -8 -7 -21 -15 -28 -13
-11 -18 -10 -30 6 -20 27 -18 39 9 52 17 8 27 7 36 -1 10 -9 11 -7 5 11 -12
41 22 25 64 -30 29 -39 37 -56 29 -65 -16 -20 0 -15 40 12 30 20 33 25 16 25
-14 0 -36 19 -63 55 -39 51 -40 55 -22 65 15 7 23 6 35 -6 19 -19 20 -26 4
-42 -7 -7 -8 -12 -2 -12 33 0 44 52 17 82 -14 15 -14 18 -1 18 19 0 101 -97
93 -110 -14 -22 13 -8 41 21 26 28 27 31 7 25 -17 -6 -29 2 -60 39 -44 54 -48
70 -13 70 22 0 25 -4 24 -31 -2 -29 1 -32 44 -42 33 -7 50 -7 64 1 26 17 22
27 -9 27 -55 0 -73 10 -73 41 0 18 -7 32 -20 39 -17 9 -29 3 -79 -42z"/>
<path d="M837 409 c9 -11 4 -27 -23 -74 -21 -38 -39 -59 -49 -57 -27 5 -16 -7
25 -28 22 -11 40 -16 40 -10 0 5 -5 10 -10 10 -6 0 -4 13 5 30 18 35 17 35 56
15 28 -15 29 -16 14 -45 -10 -19 -20 -27 -30 -24 -30 12 -14 -12 18 -26 17 -7
37 -16 42 -18 6 -3 5 1 -2 9 -9 11 -5 27 21 74 17 33 37 59 44 57 26 -5 10 15
-24 31 -35 17 -35 17 -29 -2 3 -11 1 -30 -5 -41 -12 -22 -9 -22 -79 17 -2 1 4
14 13 28 9 14 21 23 26 20 6 -4 10 -2 10 3 0 7 -24 23 -65 41 -5 2 -5 -2 2
-10z"/>
<path d="M2003 337 c-51 -21 -68 -37 -39 -37 7 0 25 -28 40 -62 21 -48 24 -63
14 -69 -19 -13 1 -11 39 3 18 7 33 15 33 20 0 4 -6 5 -13 2 -9 -3 -23 15 -40
56 -15 34 -27 66 -27 71 0 16 48 10 54 -7 8 -21 8 -20 -9 -37 -12 -13 -9 -18
26 -42 30 -19 48 -25 67 -20 25 6 25 7 -19 32 -24 14 -45 27 -47 29 -2 1 1 12
8 23 8 15 8 27 0 41 -13 25 -22 24 -87 -3z"/>
<path d="M1017 299 c-17 -10 -47 -66 -47 -88 0 -21 52 -70 81 -76 65 -14 129
48 113 111 -12 49 -100 81 -147 53z m102 -22 c17 -15 8 -82 -15 -108 -34 -38
-94 -14 -94 37 0 30 24 80 42 87 16 6 48 -2 67 -16z"/>
<path d="M1189 261 c12 -8 13 -20 4 -68 -13 -69 -5 -87 42 -103 30 -10 40 -9
60 4 14 9 27 29 31 44 3 15 9 40 13 56 4 16 13 32 21 34 13 5 13 3 1 -11 -23
-29 -6 -65 35 -73 41 -8 54 -29 31 -51 -22 -23 -67 -10 -68 20 0 22 0 22 -10
-2 -11 -27 0 -40 36 -42 53 -4 88 21 83 60 -2 19 -12 29 -36 37 -47 15 -60 30
-40 50 18 19 58 11 58 -12 0 -8 5 -14 10 -14 6 0 10 9 10 19 0 23 -24 32 -72
30 -18 -1 -46 2 -63 6 -25 7 -28 6 -18 -6 14 -17 -1 -106 -21 -127 -15 -16
-65 -6 -73 14 -2 7 1 38 7 68 8 40 16 56 28 57 20 2 -33 16 -63 18 -16 0 -17
-1 -6 -8z"/>
<path d="M1868 246 c-37 -11 -60 -26 -40 -26 14 0 35 -75 27 -100 -5 -17 -3
-18 31 -7 20 6 30 13 23 16 -17 5 -29 21 -29 40 0 9 7 11 24 7 20 -5 23 -3 19
14 -5 20 -23 28 -23 10 0 -18 -28 -10 -33 9 -6 24 19 36 39 20 11 -9 14 -8 14
4 0 23 -10 25 -52 13z"/>
<path d="M1525 230 c-27 -4 -44 -8 -37 -8 17 -3 17 -148 0 -155 -7 -3 17 -6
53 -6 63 -1 67 0 71 24 3 14 1 25 -3 25 -5 0 -9 -7 -9 -15 0 -11 -11 -15 -36
-15 -34 0 -35 1 -32 32 2 24 8 32 26 33 12 1 22 -4 22 -12 0 -7 5 -13 11 -13
6 0 8 7 5 16 -3 9 -6 23 -7 32 0 11 -2 12 -6 5 -2 -7 -16 -13 -29 -13 -20 0
-24 5 -24 30 0 27 3 30 30 30 17 0 30 -4 30 -10 0 -5 5 -10 10 -10 6 0 10 9
10 20 0 21 -1 22 -85 10z"/>
<path d="M1712 204 c-15 -10 -22 -25 -22 -48 0 -48 21 -70 65 -70 63 0 95 61
59 112 -18 26 -69 30 -102 6z m78 -14 c6 -12 10 -35 8 -53 -2 -26 -8 -33 -29
-35 -29 -3 -44 11 -54 49 -12 49 52 82 75 39z"/>
<path d="M900 135 c14 -8 30 -14 35 -14 6 0 -1 6 -15 14 -14 8 -29 14 -35 14
-5 0 1 -6 15 -14z"/>
<path d="M2080 135 c-14 -8 -20 -14 -15 -14 6 0 21 6 35 14 14 8 21 14 15 14
-5 0 -21 -6 -35 -14z"/>
<path d="M950 117 c0 -6 120 -47 134 -46 6 0 -11 8 -39 18 -76 27 -95 33 -95
28z"/>
<path d="M2005 105 c-25 -12 -26 -14 -5 -9 28 7 60 23 45 23 -5 0 -23 -6 -40
-14z"/>
<path d="M1115 60 c11 -5 27 -9 35 -9 9 0 8 4 -5 9 -11 5 -27 9 -35 9 -9 0 -8
-4 5 -9z"/>
<path d="M1888 63 c7 -3 16 -2 19 1 4 3 -2 6 -13 5 -11 0 -14 -3 -6 -6z"/>
<path d="M1848 53 c7 -3 16 -2 19 1 4 3 -2 6 -13 5 -11 0 -14 -3 -6 -6z"/>
<path d="M1188 43 c7 -3 16 -2 19 1 4 3 -2 6 -13 5 -11 0 -14 -3 -6 -6z"/>
<path d="M1798 43 c6 -2 18 -2 25 0 6 3 1 5 -13 5 -14 0 -19 -2 -12 -5z"/>
<path d="M1238 33 c6 -2 18 -2 25 0 6 3 1 5 -13 5 -14 0 -19 -2 -12 -5z"/>
<path d="M1743 33 c9 -2 23 -2 30 0 6 3 -1 5 -18 5 -16 0 -22 -2 -12 -5z"/>
<path d="M1303 23 c9 -2 25 -2 35 0 9 3 1 5 -18 5 -19 0 -27 -2 -17 -5z"/>
<path d="M1673 23 c9 -2 25 -2 35 0 9 3 1 5 -18 5 -19 0 -27 -2 -17 -5z"/>
<path d="M1433 13 c37 -2 97 -2 135 0 37 2 6 3 -68 3 -74 0 -105 -1 -67 -3z"/>
</g>
</svg>
