<svg height='100px' width='100px'  fill="#000000" xmlns="http://www.w3.org/2000/svg" xmlns:xlink="http://www.w3.org/1999/xlink" version="1.1" x="0px" y="0px" viewBox="0 0 100 100" enable-background="new 0 0 100 100" xml:space="preserve"><g><path d="M57.419,10H54.31v13.716c0.962,0.576,2.088,1.239,3.109,1.837V10z"></path><path d="M78.666,80.728c-1.191-1.058-3.429-0.715-4.887-0.663c-2.056,0.065-4.369,0.118-5.539-1.901   c-1.468-2.542-0.63-6.911-0.23-9.635c0.93-6.431-2.611-7.553-8.481-7.553c-5.871,0-8.013-3.076-8.013-3.076   c-1.768,5.875,2.575,9.08,6.468,12.968c2.051,2.051,1.672,4.689-0.154,6.677c-0.913,0.982-2.105,1.473-3.44,1.388   c-1.501-0.096-3.098-0.865-4.529-0.043c-1.501,0.865-2.548,3.216-0.251,3.781c2.147,0.524,4.354,0.193,6.527,0.204   c1.058,0.011,3.172,0.063,2.366,1.741c-0.812,1.677-4.46,1.623-4.61,3.557c-0.192,2.457,12.654,1.72,14.181,1.73   c1.81,0.01,3.761,0.032,5.486-0.609c2.371-0.897,1.047-2.948-0.893-3.717c-2.403-0.962-2.371-3.536,0.471-3.536   c1.277-0.011,2.579,0.491,3.878,0.524C78.116,82.597,80.231,82.127,78.666,80.728z"></path><path d="M41.112,20.212c-0.321,0-0.641,0.01-0.962,0.043v1.559c0.726-0.491,1.597-0.993,2.601-1.473   C42.217,20.265,41.667,20.212,41.112,20.212z"></path><path d="M47.484,22.178l-0.406-0.246c-0.246-0.161-0.502-0.309-0.759-0.438c-1.912,0.693-3.989,1.751-6.168,3.268v2.275   C40.279,26.301,43.019,23.833,47.484,22.178z"></path><path d="M43.911,20.565c-1.201,0.502-2.457,1.154-3.76,1.955v1.634c1.116-0.94,2.943-2.105,5.309-3.055   C44.957,20.885,44.444,20.693,43.911,20.565z"></path><path d="M37.107,49.151c2.094,0,3.791-1.838,3.791-4.102c0-1.667-0.919-3.098-2.238-3.739V10h-3.103v31.31   c-1.319,0.641-2.237,2.072-2.237,3.739C33.32,47.313,35.017,49.151,37.107,49.151z"></path><path d="M56.201,74.746c0.528,0,1.057-0.032,1.586-0.096c0.197-0.812,0.091-1.784-0.854-2.724c-0.316-0.31-0.626-0.609-0.946-0.919   c-1.725-0.032-3.339-0.502-4.7-1.464c-5.201-3.696-4.844-13.139,0.796-21.076c5.64-7.948,14.432-11.387,19.634-7.702   c5.203,3.696,4.845,13.129-0.795,21.076c-0.529,0.748-1.095,1.443-1.678,2.105c0.439,1.304,0.518,2.885,0.241,4.797l-0.048,0.309   c1.64-1.453,3.173-3.141,4.524-5.053c3.146-4.433,4.973-9.454,5.149-14.155c0.193-5.191-1.714-9.614-5.24-12.114   c-0.513-0.363-1.058-0.684-1.623-0.961l-4.856-2.863c-3.039-0.192-9.203,0.321-16.082,6.036c0-1.004,5.785-6.207,14.581-6.922   l-0.887-0.524c-3.3,0.022-8.84,0.983-14.939,6.014c0.005-0.972,5.4-5.801,13.662-6.761l-0.999-0.588   c-3.359,0.203-8.396,1.421-13.903,5.929c0.006-0.94,5.015-5.437,12.765-6.601l-1.057-0.619c-3.323,0.352-7.937,1.709-12.953,5.79   c0.01-0.898,4.662-5.075,11.91-6.399l-1.089-0.652c-3.231,0.492-7.472,1.923-12.06,5.619c0.016-0.865,4.315-4.732,11.089-6.196   l-1.128-0.662c-3.108,0.597-7.007,2.072-11.2,5.437c0.011-0.833,3.991-4.412,10.292-5.972l-1.149-0.673   c-2.964,0.684-6.553,2.169-10.389,5.213c0.016-0.791,3.675-4.092,9.523-5.727l-1.153-0.673c-2.805,0.737-6.1,2.201-9.609,4.978   c0.015-0.769,3.37-3.803,8.775-5.469l-1.164-0.695c-2.64,0.802-5.656,2.222-8.856,4.732c0.021-0.726,3.082-3.504,8.06-5.203   l-1.164-0.684c-2.458,0.823-5.208,2.19-8.119,4.444v13.407c1.383,1.025,2.238,2.735,2.238,4.561c0,3.087-2.366,5.587-5.282,5.587   c-2.912,0-5.278-2.5-5.278-5.587c0-1.827,0.855-3.536,2.238-4.561V22.028c-3.226,1.634-6.281,4.295-8.712,7.713   c-2.788,3.93-4.412,8.386-4.566,12.562c-0.15,3.899,1.047,7.296,3.306,9.603l0.006,0.011c0.411,0.406,0.854,0.801,1.336,1.132   c0.074,0.065,0.16,0.107,0.24,0.161l22.204,18.33c0.391,0.374,0.806,0.716,1.25,1.037C51.132,73.998,53.578,74.746,56.201,74.746z"></path></g></svg>