<svg height='100px' width='100px'  fill="#000000" xmlns="http://www.w3.org/2000/svg" xmlns:xlink="http://www.w3.org/1999/xlink" version="1.1" x="0px" y="0px" viewBox="0 0 100 100" enable-background="new 0 0 100 100" xml:space="preserve"><g><path fill="none" stroke="#000000" stroke-width="0.75" stroke-linecap="round" stroke-linejoin="round" stroke-miterlimit="10" d="   M87.084,79.417c0.028,0,0.056,0,0.084,0L86.5,54c-0.061,0.13,0.158-0.434,0.19-0.639c0.719-0.334,0.831-4.298,0.452-5.169   c-0.519,0.07-1.088,0.171-1.618,0.287c-0.199-1.216-1.04-1.55-1.024-2.987c0.016-1.468,0.77-1.917,1.291-3.201   c0.889-2.185,1.583-4.205,2.339-6.628c0.793-2.543,2.526-4.394,2.37-7.164c-0.14-2.476-3.625-2.661-4-5l-19.547,0.337   c-0.96,0.072-1.509,0.792-2.174,1.488c-0.649-0.544-1.346-0.171-1.987,0c-0.57,0.152-1.393,0.254-1.983,0.371   c-0.92,0.184-1.719,0.728-2.654,0.97c-0.703,0.182-1.724,0.191-2.358,0.488c-0.795,0.371-1.146,1.663-1.926,1.857   c-1.172,0.292-0.587-0.426-1.538-0.727c-1.172-0.372-3.398-0.305-4.503,0.208c-0.839,0.389-1.404,1.693-2.509,1.316   c-0.545-0.186-0.723-1.794-1.662-1.999c-0.459-0.1-1.896,0.46-2.495,0.524c-0.894,0.095-1.557,0.216-2.393,0.496   c-2.103,0.703-3.453,2.026-5.429,1.846c-1.533-0.14-3.534,0.046-3.642-1.675c-0.05-0.812,0.565-1.782,0.458-2.83   c-0.103-1.004-0.207-1.29-0.531-2.134c-0.582-1.515-1.765-2.625-3.46-2.585c-0.654,0.015-1.319,1.001-2.012,0.394   c-0.523-0.458,0.224-1.566-0.273-2.024c-0.711-0.654-1.276,0.328-1.882,0.521c-0.992,0.316-1.922,0.46-2.982,0.175   c0.229,5.235-1.122,10.23-1.342,15.358c-0.116,2.701,0.027,5.264-0.806,7.889c-0.717,2.26-0.846,4.458-1.203,6.753   c-0.414,2.662-2.086,4.759-2.842,7.292c-0.362,1.215-0.069,2.308-0.28,3.56c-0.159,0.949-0.74,1.761-1.086,2.636   c-0.619,1.564-1.29,2.887-0.58,4.497c0.735,1.668,1.265,2.109,1.075,3.95c-0.204,1.984,0.123,7.044,2.713,6.883L87.084,79.417z"></path></g></svg>