<svg height='100px' width='100px'  fill="#000000" xmlns="http://www.w3.org/2000/svg" xmlns:xlink="http://www.w3.org/1999/xlink" viewBox="0 0 60 60" version="1.1" x="0px" y="0px"><title>050 - Housing </title><desc>Created with Sketch.</desc><g stroke="none" stroke-width="1" fill="none" fill-rule="evenodd" stroke-linecap="round" stroke-linejoin="round"><g transform="translate(1.000000, 1.000000)" stroke="#000000" stroke-width="2"><path d="M13.31694,40.73771 L8.74846,36.16923 C7.7685094,35.189281 6.98454701,34.0313444 6.43863,32.75754 L4.20231,27.53945 C3.85747006,26.7348265 3.06629477,26.2131296 2.19089,26.21313 C1.44686162,26.213136 0.753807906,26.5911746 0.350997821,27.2167321 C-0.0518122632,27.8422897 -0.109187599,28.6296554 0.19868,29.307 L4.11768,37.92881 C4.59815075,38.9858499 5.26481993,39.9478571 6.08585,40.76889 L13.31694,48 L23,48 L23,45.13889 C23.0323446,42.9974105 22.3369276,40.908353 21.02753,39.21352 C20.2954906,38.2480768 19.2987522,37.5160827 18.15848,37.10652 C15.9387033,36.1698076 13.892576,34.8658608 12.10598,33.24941 C10.6792187,32.0580789 8.57849077,32.1550832 7.26759,33.47283 L7.26504,33.47538"></path><rect x="12" y="48" width="13" height="10" rx="1"></rect><path d="M22,53 L21,53"></path><path d="M44.68306,40.73771 L49.25154,36.16923 C50.2314906,35.189281 51.015453,34.0313444 51.56137,32.75754 L53.7977,27.53945 C54.1425399,26.7348265 54.9337152,26.2131296 55.80912,26.21313 C56.5531466,26.2131394 57.2461972,26.5911793 57.6490049,27.2167363 C58.0518126,27.8422933 58.1091869,28.629657 57.80132,29.307 L53.88232,37.92881 C53.4018492,38.9858499 52.7351801,39.9478571 51.91415,40.76889 L44.68306,48 L35,48 L35,45.13889 C34.9676554,42.9974105 35.6630724,40.908353 36.97247,39.21352 C37.7045094,38.2480768 38.7012478,37.5160827 39.84152,37.10652 C42.0612967,36.1698076 44.107424,34.8658608 45.89402,33.24941 C47.3207813,32.0580789 49.4215092,32.1550832 50.73241,33.47283 L50.73496,33.47538"></path><rect transform="translate(39.500000, 53.000000) rotate(-180.000000) translate(-39.500000, -53.000000) " x="33" y="48" width="13" height="10" rx="1"></rect><path d="M36,53 L37,53"></path><polyline points="46 33.16 46 25 46 14 49 14 46 11.9 44.71 11 29 0 12 11.9 9 14 12 14 12 25 12 33.16"></polyline><polyline points="22.12 41 34 41 35.88 41"></polyline><rect x="16" y="19" width="14" height="7" rx="1"></rect><rect x="34" y="19" width="8" height="7" rx="1"></rect><path d="M35.88,41 L34,41 L34,32 C34.0016146,31.4483854 34.4483854,31.0016146 35,31 L39,31 C39.5516146,31.0016146 39.9983854,31.4483854 40,32 L40,37.05"></path></g></g></svg>