<svg height='100px' width='100px'  fill="#000000" xmlns:dc="http://purl.org/dc/elements/1.1/" xmlns:cc="http://creativecommons.org/ns#" xmlns:rdf="http://www.w3.org/1999/02/22-rdf-syntax-ns#" xmlns:svg="http://www.w3.org/2000/svg" xmlns="http://www.w3.org/2000/svg" xmlns:sodipodi="http://sodipodi.sourceforge.net/DTD/sodipodi-0.dtd" xmlns:inkscape="http://www.inkscape.org/namespaces/inkscape" viewBox="0 0 8.4666665 8.4666669" version="1.1" x="0px" y="0px"><g transform="translate(0,-288.53332)"><path style="" d="m 1.0583334,288.7979 a 0.79375003,0.79375003 0 0 0 -0.79374999,0.79375 v 6.35 a 0.79375003,0.79375003 0 0 0 0.79374999,0.79375 h 6.35 a 0.79375003,0.79375003 0 0 0 0.79375,-0.79375 v -6.35 a 0.79375003,0.79375003 0 0 0 -0.79375,-0.79375 z m 0,0.26458 h 6.35 a 0.52916667,0.52916667 0 0 1 0.5291667,0.52917 v 6.35 a 0.52916667,0.52916667 0 0 1 -0.5291667,0.52917 h -6.35 a 0.52916667,0.52916667 0 0 1 -0.52916663,-0.52917 v -6.35 a 0.52916667,0.52916667 0 0 1 0.52916663,-0.52917 z" fill="#000000" stroke="none"></path><path style="" d="M 18 8 L 18 13.771484 A 5.5000002 5.5000002 0 0 0 20.650391 18.476562 A 4.8701979 4.8701979 0 0 1 23 22.642578 L 23 24.128906 A 4.8701979 4.8701979 0 0 1 20.025391 28.615234 A 0.20000013 0.20000013 0 0 0 20.103516 29 L 26.896484 29 A 0.20000013 0.20000013 0 0 0 26.972656 28.615234 A 4.8701979 4.8701979 0 0 1 24 24.128906 L 24 22.642578 A 4.8701979 4.8701979 0 0 1 26.347656 18.476562 A 5.5000002 5.5000002 0 0 0 29 13.771484 L 29 8 L 18 8 z M 19 9 L 28 9 L 28 12.445312 A 4.6162027 4.6162027 0 0 1 23.878906 12.445312 A 5.6456859 5.6456859 0 0 0 19 12.367188 L 19 9 z M 21.207031 12.853516 A 4.6456859 4.6456859 0 0 1 23.431641 13.339844 A 5.6162025 5.6162025 0 0 0 28 13.539062 L 28 13.771484 A 4.4999999 4.4999999 0 0 1 25.830078 17.621094 A 5.8701981 5.8701981 0 0 0 23.5 20.271484 A 5.8701981 5.8701981 0 0 0 21.167969 17.621094 A 4.4999999 4.4999999 0 0 1 19 13.771484 L 19 13.494141 A 4.6456859 4.6456859 0 0 1 21.207031 12.853516 z M 23.5 26.5 A 5.8701981 5.8701981 0 0 0 24.455078 28 L 22.542969 28 A 5.8701981 5.8701981 0 0 0 23.5 26.5 z " transform="matrix(0.26458333,0,0,0.26458333,0,288.53332)" fill="#000000" stroke="none"></path><path style="" d="M 16.052734 3.3632812 A 2.0031964 2.0031964 0 0 0 15.462891 3.4609375 A 12.445372 12.445372 0 0 0 8.7792969 8.609375 A 49.065229 49.065229 0 0 0 7.2871094 11.107422 A 4.1733721 4.1733721 0 0 1 10.546875 11.144531 A 8.2586849 8.2586849 0 0 0 6.4804688 12.611328 A 49.065229 49.065229 0 0 0 4.2734375 17.566406 A 3.1122992 3.1122992 0 0 1 7.5644531 17.367188 A 7.8107142 7.8107142 0 0 0 3.6582031 19.277344 A 12.445372 12.445372 0 0 0 3.8183594 27.710938 A 2.0031964 2.0031964 0 0 0 6.8515625 28.628906 A 6.9968292 6.9968292 0 0 0 8.9257812 26.296875 A 182.67918 182.67918 0 0 0 17.552734 8.3300781 A 6.9968292 6.9968292 0 0 0 18.074219 5.2539062 A 2.0031964 2.0031964 0 0 0 16.052734 3.3632812 z M 16.087891 4.3632812 A 1.0031965 1.0031965 0 0 1 17.076172 5.3105469 A 5.9968293 5.9968293 0 0 1 16.628906 7.9472656 A 181.67918 181.67918 0 0 1 8.0488281 25.816406 A 5.9968293 5.9968293 0 0 1 6.2714844 27.814453 A 1.0031965 1.0031965 0 0 1 4.7519531 27.355469 A 11.445372 11.445372 0 0 1 4.5234375 19.849609 A 6.8107143 6.8107143 0 0 1 7.7363281 18.353516 A 1.0000001 1.0000001 0 0 0 8.0429688 16.488281 A 4.1122994 4.1122994 0 0 0 5.9921875 15.990234 A 48.065231 48.065231 0 0 1 7.2539062 13.294922 A 7.2586851 7.2586851 0 0 1 10.626953 12.142578 A 1.0000001 1.0000001 0 0 0 10.947266 10.228516 A 5.1733723 5.1733723 0 0 0 9.2089844 9.8046875 A 48.065231 48.065231 0 0 1 9.6230469 9.1464844 A 11.445372 11.445372 0 0 1 15.767578 4.4121094 A 1.0031965 1.0031965 0 0 1 16.087891 4.3632812 z " transform="matrix(0.26458333,0,0,0.26458333,0,288.53332)" fill="#000000" stroke="none"></path></g></svg>