<svg height='100px' width='100px'  fill="#000000" xmlns="http://www.w3.org/2000/svg" xmlns:xlink="http://www.w3.org/1999/xlink" version="1.1" x="0px" y="0px" viewBox="0 0 292.213 254.812" style="enable-background:new 0 0 292.213 254.812;" xml:space="preserve"><g><path d="M292.213,193.687c0-0.42-3.935-0.42-3.935-0.84c0-0.421,2.641-0.834,2.346-1.135c-0.287-0.294-0.711,0.441-1.123,0.441   c-0.41,0-0.41-0.115-0.822-0.115c-0.41,0-0.41-0.913-0.82-0.913c-0.408,0-0.408,2.997-0.818,2.997   c-0.408,0-0.408-1.928-0.816-1.928s-0.408,0.907-0.816,0.907c-0.408,0-0.408-3.003-0.816-3.003s-0.408,1.374-0.818,1.374   c-0.406,0-0.406-0.552-0.814-0.552s-0.408,0.29-0.816,0.29s-0.408,2.425-0.816,2.425c-0.408,0-0.408-0.956-0.814-0.956   c-0.406,0-0.406-0.007-0.813-0.007c-0.406,0-0.406,0.118-0.813,0.118c-0.408,0-0.408-2.293-0.816-2.293   c-0.406,0-0.406,2.769-0.814,2.769c-0.404,0-0.404,0.469-0.811,0.469c-0.406,0-0.406-2.913-0.814-2.913   c-0.408,0-0.408-0.898-0.816-0.898c-0.406,0-0.406,2.541-0.814,2.541c-0.406,0-0.406-1.987-0.813-1.987   c-0.408,0-0.408,3.641-0.815,3.641c-0.408,0-0.408-0.662-0.816-0.662c-0.406,0-0.406-1.626-0.814-1.626   c-0.406,0-0.406,1.184-0.815,1.184c-0.406,0-0.406-1.394-0.813-1.394c-0.406,0-0.406,0.128-0.813,0.128   c-0.406,0-0.406,1.645-0.813,1.645c-0.408,0-0.408-2.402-0.814-2.402c-0.408,0-0.408,0.152-0.814,0.152   c-0.408,0-0.408,1.904-0.814,1.904c-0.406,0-0.406-1.546-0.813-1.546c-0.406,0-0.406-0.78-0.813-0.78   c-0.404,0-0.404-0.579-0.811-0.579c-0.406,0-0.406,1.578-0.811,1.578c-0.406,0-0.406,2.247-0.811,2.247   c-0.406,0-0.406-2.364-0.813-2.364c-0.406,0-0.406,0.104-0.813,0.104c-0.406,0-0.406,1.046-0.813,1.046   c-0.406,0-0.406-0.373-0.814-0.373c-0.406,0-0.406-1.916-0.813-1.916c-0.406,0-0.406,2.804-0.813,2.804   c-0.406,0-0.406-1.4-0.811-1.4c-0.406,0-0.406-0.366-0.811-0.366s-0.404-0.489-0.811-0.489c-0.404,0-0.404,0.292-0.809,0.292   s-0.404,0.923-0.809,0.923c-0.402,0-0.402-0.855-0.807-0.855c-0.404,0-0.404,2.039-0.809,2.039s-0.404-2.687-0.809-2.687   c-0.402,0-0.402,1.588-0.807,1.588s-0.404,0.409-0.809,0.409c-0.404,0-0.404,0.89-0.811,0.89c-0.404,0-0.404-1.328-0.809-1.328   c-0.406,0-0.406-1.278-0.811-1.278c-0.406,0-0.406,2.601-0.813,2.601c-0.406,0-0.406,0.06-0.813,0.06   c-0.406,0-0.406-3.263-0.813-3.263c-0.406,0-0.406,2.116-0.813,2.116c-0.404,0-0.404-1.477-0.811-1.477   c-0.406,0-0.406,0.441-0.813,0.441c-0.404,0-0.404,2.618-0.81,2.618c-0.406,0-0.406-2.44-0.813-2.44   c-0.404,0-0.404-1.124-0.811-1.124c-0.404,0-0.404,0.042-0.811,0.042c-0.406,0-0.406,3.558-0.813,3.558   c-0.404,0-0.404-2.142-0.811-2.142c-0.406,0-0.406,1.567-0.813,1.567c-0.404,0-0.404,0.35-0.811,0.35   c-0.406,0-0.406,0.044-0.813,0.044c-0.406,0-0.406-0.278-0.813-0.278c-0.404,0-0.408-1.541-0.809-1.555l-3.42-18.211l-0.256-20.797   l4.594,1.531l8.166,3.063l3.465-8.662l0.588,0.43l4.234-2.39l3.021,2.163l3.865,1.664l-0.115-4.049l3.244-1.854l-0.539-3.275   l-1.799-4.689l5.154-0.64l4.615-0.175l1.027-2.775l1.107,1.918l5.148-1.605l0.551,4.395l3.4,0.67l3.518,0.513l-0.547,2.431   l0.996-2.092l-0.084-3.66l-2.084-3.057l-1.608-3.248l0.348-3.102l1.678-2.705l1.059-2.859l-1.086-3.404l-1.478-2.704l0.156-2.872   l-0.367-3.461l0.15-3.553l-1.992-3.16l-0.748-3.387l3.641-5.352l-4.225,3.074l-3.277-0.979l-3.023,2.374l-3.522-4.319l-1.857,0.824   l0.264-2.568l-5.844-1.795l-0.209-3.625l-0.483-2.582l-1.973,1.643l-4.125-3.943l-3.15,0.789l-2.084,5.955l-2.492-5.182   l-0.605-1.481l-2.826-2.251l-2.672-2.336l-1.316-4.598l-4.303,1.535l-2.383,2.297l-3.883-0.656l-1.695,3.645l-1.443,5.03   l-5.301-5.212l-2.279,6.695l-3.797-4.156l-3.664,0.215l-3.611,1.254l-0.576,1.109l-3.127,0.357l-2.199,2.087l-3.771-0.14   l-3.701-0.947l-3.412-0.594l-3.414-0.504l-3.432,0.955l-3.307-0.252l-1.301,3.09l1.02,4.129l-1.426,3.15l-4.15,2.061l-0.727,3.426   l-0.162,3.246l-0.16,2.889l1.277,2.695l-1.418,3.963l4.527,1.24l0.549,2.412c14.584,5.258,25.039,19.23,25.039,35.603v1.542   l5.348,2.706l-0.848-6.31l-0.074-1.748l0.016-0.004l12.193,13.84l4.594,11.227l-2.375,18.161c-0.205,0.108-0.281,0.348-0.598,0.348   c-0.404,0-0.404-0.04-0.811-0.04c-0.406,0-0.406-2.629-0.813-2.629c-0.404,0-0.404,3.141-0.811,3.141   c-0.406,0-0.406-1.081-0.811-1.081c-0.406,0-0.406,0.122-0.81,0.122c-0.404,0-0.404-0.508-0.811-0.508   c-0.404,0-0.404,0.101-0.809,0.101s-0.404,2.305-0.811,2.305c-0.404,0-0.404-1.321-0.809-1.321c-0.404,0-0.404,1.092-0.811,1.092   c-0.404,0-0.404-3.271-0.809-3.271s-0.404,1.863-0.809,1.863c-0.404,0-0.404,1.791-0.809,1.791s-0.404-1.251-0.809-1.251   s-0.404-2.108-0.811-2.108c-0.404,0-0.404,1.629-0.809,1.629c-0.404,0-0.404-1.906-0.809-1.906s-0.404-0.464-0.809-0.464   c-0.404,0-0.404,4.157-0.811,4.157c-0.404,0-0.404-4.311-0.809-4.311c-0.406,0-0.406,1.472-0.811,1.472s-0.404-0.303-0.811-0.303   c-0.227,0-0.326,0.904-0.441,1.699c-0.09,0.622-0.191,1.178-0.369,1.178c-0.404,0-0.404-0.857-0.811-0.857   c-0.406,0-0.406,0.402-0.811,0.402c-0.406,0-0.406-0.262-0.813-0.262c-0.406,0-0.406-1.721-0.813-1.721   c-0.404,0-0.404-0.037-0.811-0.037c-0.406,0-0.406,2.295-0.811,2.295c-0.389,0-0.406-2.264-0.762-2.457v-38.48   c0-17.583-14.254-31.838-31.838-31.838s-31.838,14.255-31.838,31.838v37.152c-0.037-0.035-0.076-0.061-0.121-0.061   c-0.402,0-0.402,1.08-0.805,1.08c-0.402,0-0.402,1.318-0.805,1.318c-0.402,0-0.402,0.896-0.805,0.896   c-0.402,0-0.402-3.105-0.805-3.105c-0.402,0-0.402,2.621-0.805,2.621c-0.402,0-0.402,1.339-0.805,1.339   c-0.402,0-0.402-3.616-0.805-3.616c-0.105,0-0.182,0.007-0.246,0.016c-0.184,0.026-0.262,0.077-0.559,0.077   c-0.403,0-0.403,2.424-0.807,2.424c-0.402,0-0.402-2.726-0.805-2.726c-0.402,0-0.402,1.266-0.806,1.266   c-0.403,0-0.403,0.45-0.806,0.45c-0.404,0-0.404-2.046-0.807-2.046c-0.402,0-0.402,1.167-0.807,1.167   c-0.402,0-0.402,1.585-0.806,1.585c-0.403,0-0.403-2.791-0.808-2.791c-0.402,0-0.402,2.718-0.807,2.718   c-0.403,0-0.403-1.965-0.807-1.965c-0.404,0-0.404,2.969-0.808,2.969c-0.403,0-0.403-2.115-0.808-2.115   c-0.404,0-0.404,0.66-0.809,0.66c-0.404,0-0.404-1.979-0.808-1.979c-0.405,0-0.405,3.171-0.81,3.171   c-0.404,0-0.404-2.184-0.809-2.184c-0.404,0-0.404,1.998-0.81,1.998c-0.405,0-0.405-1.892-0.81-1.892s-0.404,2.964-0.809,2.964   c-0.405,0-0.405-0.439-0.811-0.439c-0.404,0-0.404-2.179-0.809-2.179c-0.404,0-0.404,2.52-0.809,2.52   c-0.404,0-0.404-3.096-0.809-3.096c-0.404,0-0.404,2.759-0.809,2.759s-0.404-0.258-0.809-0.258c-0.404,0-0.404-2.524-0.809-2.524   c-0.404,0-0.404-0.822-0.809-0.822c-0.404,0-0.404-0.036-0.808-0.036c-0.403,0-0.403,1.26-0.808,1.26s-0.404-1.162-0.809-1.162   c-0.404,0-0.404,2.348-0.808,2.348c-0.2,0-0.302,0.212-0.401,0.426v9.904h192.832v-3.487c0.039,0.028,0.074,0.036,0.104,0.006   c0.293-0.306,0.297-1.016-0.076-1.794c-0.006-0.011-0.022-0.017-0.027-0.027v-1.041h-1.068c0.1-0.083,0.186-0.175,0.186-0.329   c0-0.421-0.209-0.421-0.209-0.843c0-0.419,0.477-0.419,0.477-0.838C290.291,194.106,292.213,194.106,292.213,193.687z    M236.43,141.703l3.647-2.212l1.277,2.233l-5.064,10.37l-1.699-2.208l0.035-1.499l-0.029-3.098l-0.535-3.191L236.43,141.703z    M209.984,147.735l0.734-0.156l-0.795-3.238l-0.479-3.162l3.107,1.174l1.447,1.476l-1.188,6.735L209.984,147.735z"></path><path d="M37.982,242.448c0,6.83,5.537,12.363,12.363,12.363c6.828,0,12.365-5.533,12.365-12.363v-90.271h4.635v90.271   c0,6.83,5.537,12.363,12.363,12.363c6.828,0,12.365-5.533,12.365-12.363v-98v-18.94V92.49c0.592,1.216,1.189,2.61,1.779,4.237   c2.818,7.813,5.189,20.63,5.18,40.638c0.002,5.515-0.176,11.573-0.564,18.224c-0.258,4.41,3.111,8.195,7.521,8.451   c0.158,0.01,0.316,0.015,0.473,0.015c4.205,0,7.732-3.281,7.98-7.534c0.402-6.932,0.592-13.299,0.592-19.155   c-0.041-30.181-4.863-46.887-11.436-56.931c-3.285-4.987-7.129-8.184-10.678-9.956c-3.42-1.723-6.424-2.111-8.227-2.134   c-0.117-0.005-0.232-0.018-0.35-0.018h-6.639c-0.092,6.952-3.693,16.648-7.038,24.186l-1.616-11.9   c-1.295,0.486-2.656,0.74-4.02,0.74h-0.006h-0.002c-1.365,0.001-2.729-0.253-4.027-0.739L59.384,92.51   c-3.345-7.537-6.944-17.232-7.036-24.183h-6.637c-0.129,0-0.252,0.013-0.379,0.019c-1.585,0.024-4.073,0.322-6.967,1.559   c-1.987,0.831-4.1,2.115-6.186,3.919c-2.725,2.356-5.402,5.603-7.694,9.901c-4.087,7.606-7.255,18.428-8.681,34.412   c-0.001,0.01,0,0.02-0.001,0.03c-0.219,2.466-0.392,5.063-0.522,7.783c-0.17,3.576-0.264,7.37-0.264,11.417   c0.002,5.854,0.189,12.221,0.596,19.155c0.248,4.251,3.775,7.532,7.981,7.532c0.156,0,0.314-0.005,0.473-0.014   c4.412-0.26,7.777-4.047,7.52-8.455c-0.391-6.65-0.568-12.705-0.568-18.219c0-4.497,0.119-8.623,0.336-12.42   c0.106-1.865,0.233-3.656,0.383-5.36c0.002-0.013,0.004-0.024,0.006-0.037c0.074-0.847,0.155-1.668,0.24-2.476   c1.263-12.058,3.654-19.796,6-24.611v30.449l-4.685,3.172c-0.063,1.221-0.114,2.464-0.156,3.73l4.558-3.086l17.945,26.494   l-33.533,22.711L4.168,149.439l8.922-6.043c-0.025-1.212-0.041-2.405-0.053-3.589L0,148.639l21.311,31.463l10.672-7.229l6-4.064   V242.448z"></path><rect x="39.153" y="135.184" transform="matrix(0.8194 -0.5732 0.5732 0.8194 -75.7456 49.167)" width="2.001" height="19.211"></rect><path d="M33.227,147.896c0.045,1.227,0.094,2.461,0.154,3.715l4.451,6.376l1.641-1.146L33.227,147.896z"></path><path d="M70.727,75.935l-1.9-7.5h-3.799h-3.801l-1.9,7.5l0.291,0.46c1.564,1.303,3.48,1.956,5.408,1.958   c1.928-0.002,3.846-0.656,5.412-1.962L70.727,75.935z"></path><path d="M65.027,62.629c4.129,0,7.994-1.117,11.32-3.058c6.685-3.901,11.18-11.144,11.18-19.442c0-1.979-0.258-3.897-0.738-5.725   H43.264c-0.478,1.828-0.736,3.746-0.736,5.725c0,8.298,4.494,15.541,11.18,19.442C57.033,61.512,60.898,62.629,65.027,62.629z"></path><path d="M101.277,32.403v-3.375H86.248L85.014,5.332c0,0-6.998-5.332-20.111-5.332C51.791,0,44.791,5.332,44.791,5.332   l-1.232,23.696H28.527v3.375H101.277z"></path></g></svg>