<svg height='100px' width='100px'  fill="#000000" xmlns="http://www.w3.org/2000/svg" xmlns:xlink="http://www.w3.org/1999/xlink" version="1.1" x="0px" y="0px" viewBox="0 0 100 100" enable-background="new 0 0 100 100" xml:space="preserve"><g><path fill="none" stroke="#000000" stroke-width="2" stroke-linecap="round" stroke-linejoin="round" stroke-miterlimit="10" d="   M53,25c-0.332-0.132-0.353-1.825-0.625-2.495c-0.405-0.993-1.34-1.328-0.9-2.638c-0.869-0.738-2.211-0.421-2.337,0.782   c-0.853-0.264-1.324-1.183-1.163-2.124c-0.986,0.134-2.18,0.292-2.141-1.025L25.667,17c-2.894,0.554-5.597,2.041-8.495,2.505   c-1.014,0.162-2.75,0.584-3.718,1.446c-1.413,1.255-1.797,3.388-3.937,3.916c0.066,1.482-1.255,1.992-0.492,3.372   c0.53,0.958,1.885,1.17,2.805,1.549C13.023,30.28,13.886,31.625,15,32c0.636,0.214,1.377-0.207,1.962,0.155   c0.705,0.436,0.632,1.354,0.908,2.013c0.557,1.325,1.617,2.161,2.129,3.492c0.34,0.883,0.421,1.76,0.791,2.638   c0.451,1.068,1.075,1.31,1.745,2.079c0.533,0.611,0.472,1.256,0.918,1.836c0.432,0.562,1.306,0.734,1.878,1.122   c1.23,0.833,2.056,2.059,2.787,3.362c0.252,0.45,0.535,1.636,0.913,1.967c0.668,0.585,1.104,0.407,1.967,0.713   c1.406,0.498,2.698,1.9,2.979,3.299c-0.633,0.094-1.286,0.457-1.461,1.167c1.649,0.674,1.606,2.08,2.483,3.359   c0.873,1.272,2.473,1.732,3.833,2.43c1.87,0.959,2.181,1.599,2.871,3.664c0.711,2.127,2.148,3.904,2.007,6.077   c-0.063,0.985-0.496,1.091,0.122,2.101c0.318,0.52,1.418,1.054,1.841,1.695c1.021,1.544,1.669,3.69,1.955,5.504   c0.338,2.147,0.345,1.572,2.167,1.984c0.976,0.221,0.613,0.877,1.858,0.353c0.983-0.414,2.078-1.882,2.688-2.714   c0.385-0.526,0.832-1.779,1.362-2.1c0.452-0.274,1.22,0.035,1.746-0.23c1.035-0.523,1.746-2.589,0.4-3.15   c0.719-2.476,3.127-1.034,4.895-1.634c1.063-0.361,1.477-1.548,2.317-1.978c1.019-0.521,1.816-0.176,2.913-1.079   c1.727-1.423,2.743-3.45,4.821-4.125c2.875-0.935,0.12-1.423,1.912-3.166c0.935-0.91,2.136-0.3,2.971-0.651   c0.676-0.285,0.946-0.961,1.488-1.516c1.32-1.351,2.021-2.833,2.679-4.663c0.462-1.285,0.49-2.051,1.487-3.342   c1.038-1.344,2.219-2.596,3.379-3.833c1.215-1.296,2.781-2.691,4.455-3.325L72.5,25.833c-0.045,0.012-0.119,0.025,0,0.167L53,25z"></path></g></svg>