<svg height='100px' width='100px'  fill="#000000" xmlns="http://www.w3.org/2000/svg" viewBox="0 0 64 64" x="0px" y="0px"><g><path d="M55,32H9a1,1,0,0,0-1,1V59a1,1,0,0,0,1,1H55a1,1,0,0,0,1-1V33A1,1,0,0,0,55,32ZM54,58H10V34H54ZM13,52a3.0033,3.0033,0,0,1,3,3,1,1,0,0,0,1,1H47a1,1,0,0,0,1-1,3.0033,3.0033,0,0,1,3-3,1,1,0,0,0,1-1V41a1,1,0,0,0-1-1,3.0033,3.0033,0,0,1-3-3,1,1,0,0,0-1-1H17a1,1,0,0,0-1,1,3.0033,3.0033,0,0,1-3,3,1,1,0,0,0-1,1V51A1,1,0,0,0,13,52Zm1-10.1006A5.0146,5.0146,0,0,0,17.8994,38H46.1006A5.0146,5.0146,0,0,0,50,41.8994v8.2012A5.0146,5.0146,0,0,0,46.1006,54H17.8994A5.0146,5.0146,0,0,0,14,50.1006ZM24,22h4a1,1,0,0,0,1-1V13a3,3,0,0,1,6,0v8a1,1,0,0,0,1,1h4a1,1,0,0,0,1-1V13a9,9,0,0,0-18,0v8A1,1,0,0,0,24,22Zm1-2V18h2v2Zm12,0V18h2v2ZM32,6a7.0081,7.0081,0,0,1,7,7v3H37V13a5,5,0,0,0-10,0v3H25V13A7.0081,7.0081,0,0,1,32,6ZM26,24a1,1,0,0,1,1,1v2a1,1,0,0,1-2,0V25A1,1,0,0,1,26,24Zm6-2a1,1,0,0,1,1,1v6a1,1,0,0,1-2,0V23A1,1,0,0,1,32,22Zm6,2a1,1,0,0,1,1,1v2a1,1,0,0,1-2,0V25A1,1,0,0,1,38,24ZM33,48a1.0009,1.0009,0,0,0-1-1,2.9926,2.9926,0,0,1-1-5.8157V41a1,1,0,0,1,2,0v.1843A2.995,2.995,0,0,1,35,44a1,1,0,0,1-2,0,1,1,0,1,0-1,1,2.9926,2.9926,0,0,1,1,5.8157V51a1,1,0,0,1-2,0v-.1843A2.995,2.995,0,0,1,29,48a1,1,0,0,1,2,0,1,1,0,0,0,2,0ZM17,47a1,1,0,1,1,1-1A1,1,0,0,1,17,47Zm29-1a1,1,0,1,1,1,1A1,1,0,0,1,46,46Z"></path></g></svg>