<svg height='100px' width='100px'  fill="#000000" xmlns="http://www.w3.org/2000/svg" xmlns:xlink="http://www.w3.org/1999/xlink" version="1.1" x="0px" y="0px" viewBox="0 0 10 10" enable-background="new 0 0 10 10" xml:space="preserve"><g><path d="M2422.471,3770.852c0.484,0,0.879-0.395,0.879-0.879c0-0.361-0.219-0.67-0.527-0.807c0.182-0.162,0.299-0.396,0.299-0.66   c0-0.484-0.395-0.879-0.881-0.879h-0.219v-0.391c0-0.082-0.066-0.148-0.146-0.148c-0.082,0-0.146,0.066-0.146,0.148v0.391h-0.266   h-0.174v-0.391c0-0.082-0.064-0.148-0.146-0.148c-0.08,0-0.146,0.066-0.146,0.148v0.391h-0.426c-0.082,0-0.146,0.064-0.146,0.146   s0.064,0.146,0.146,0.146h0.426v1.174c-0.076,0.006-0.137,0.066-0.137,0.145s0.061,0.141,0.137,0.145v1.178h-0.426   c-0.082,0-0.146,0.063-0.146,0.145s0.064,0.146,0.146,0.146h0.426v0.393c0,0.08,0.066,0.146,0.146,0.146   c0.082,0,0.146-0.066,0.146-0.146v-0.393h0.174h0.266v0.393c0,0.08,0.064,0.146,0.146,0.146c0.08,0,0.146-0.066,0.146-0.146v-0.393   H2422.471L2422.471,3770.852z M2421.461,3767.92h0.779c0.324,0,0.586,0.264,0.586,0.586s-0.262,0.586-0.586,0.586h-0.951v-1.172   H2421.461L2421.461,3767.92z M2421.289,3770.559v-1.172h0.951h0.229c0.322,0,0.586,0.262,0.586,0.586   c0,0.322-0.264,0.586-0.586,0.586h-1.008H2421.289L2421.289,3770.559z"></path><path d="M2419.309,3767.354c0.043,0,0.084-0.018,0.113-0.051l0.025-0.035c0.051-0.063,0.029-0.143-0.033-0.193   c-0.064-0.049-0.166-0.025-0.217,0.037c-0.053,0.064-0.045,0.156,0.018,0.207   C2419.242,3767.342,2419.275,3767.354,2419.309,3767.354z"></path><path d="M2419.002,3767.664c0.023,0.014,0.051,0.021,0.076,0.021c0.049,0,0.098-0.025,0.125-0.07l0.02-0.029   c0.043-0.07,0.014-0.145-0.057-0.188s-0.17-0.006-0.213,0.063C2418.912,3767.529,2418.934,3767.621,2419.002,3767.664z"></path><path d="M2419.883,3766.787c0.029,0,0.059-0.01,0.084-0.027l0.033-0.025c0.064-0.049,0.064-0.133,0.016-0.195   c-0.051-0.064-0.154-0.066-0.219-0.018c-0.064,0.047-0.08,0.139-0.033,0.203   C2419.791,3766.766,2419.836,3766.787,2419.883,3766.787z"></path><path d="M2425.168,3769.076c-0.002,0-0.004,0-0.006,0c-0.08,0.002-0.145,0.092-0.143,0.174l0.146,0.002h-0.146   c0,0.08,0.064,0.141,0.146,0.141c0.08,0,0.146-0.072,0.146-0.154v-0.041C2425.311,3769.119,2425.246,3769.076,2425.168,3769.076z"></path><path d="M2420.576,3766.377c0.021,0,0.041-0.004,0.061-0.014l0.027-0.014c0.076-0.029,0.111-0.115,0.082-0.189   c-0.031-0.074-0.115-0.111-0.189-0.08l-0.041,0.018c-0.074,0.033-0.105,0.119-0.072,0.193   C2420.467,3766.344,2420.521,3766.377,2420.576,3766.377z"></path><path d="M2425.068,3768.439l-0.143,0.033c0.016,0.066,0.074,0.113,0.143,0.113c0.01,0,0.021-0.002,0.033-0.006   c0.08-0.02,0.127-0.098,0.107-0.178c0,0-0.01-0.037-0.01-0.039l-0.281,0.084L2425.068,3768.439z"></path><path d="M2418.83,3768.027c0.021,0.012,0.041,0.016,0.063,0.016c0.055,0,0.107-0.033,0.133-0.086l0.016-0.035   c0.033-0.074-0.008-0.145-0.08-0.176c-0.074-0.035-0.17,0.016-0.201,0.09C2418.727,3767.908,2418.758,3767.996,2418.83,3768.027z"></path><path d="M2418.625,3769.617c0.08-0.008,0.143-0.078,0.135-0.158l-0.002-0.033c-0.006-0.08-0.082-0.135-0.154-0.137   c-0.082,0.004-0.145,0.072-0.139,0.152l0.002,0.041c0.008,0.076,0.07,0.135,0.146,0.135   C2418.617,3769.617,2418.621,3769.617,2418.625,3769.617z"></path><path d="M2418.705,3768.414c0.016,0.004,0.031,0.006,0.045,0.006c0.063,0,0.119-0.039,0.141-0.104l0.01-0.035   c0.023-0.078-0.025-0.143-0.104-0.166c-0.074-0.021-0.164,0.037-0.188,0.115   C2418.586,3768.307,2418.629,3768.389,2418.705,3768.414z"></path><path d="M2418.816,3770.4c0.076-0.025,0.117-0.109,0.09-0.186l-0.01-0.031c-0.023-0.078-0.105-0.121-0.184-0.098   c-0.076,0.023-0.123,0.104-0.098,0.184l0.012,0.039c0.021,0.063,0.078,0.1,0.141,0.1   C2418.783,3770.408,2418.801,3770.406,2418.816,3770.4z"></path><path d="M2418.701,3770.014c0.078-0.02,0.127-0.1,0.107-0.176l-0.008-0.027c-0.014-0.08-0.086-0.137-0.168-0.119   c-0.08,0.014-0.135,0.09-0.119,0.17l0.01,0.045c0.016,0.066,0.076,0.113,0.143,0.113   C2418.678,3770.02,2418.689,3770.018,2418.701,3770.014z"></path><path d="M2418.629,3768.811c0.008,0.002,0.018,0.004,0.025,0.004c0.068,0,0.131-0.051,0.145-0.121l0.008-0.037   c0.014-0.08-0.043-0.139-0.123-0.15c-0.078-0.014-0.158,0.057-0.174,0.135C2418.496,3768.721,2418.549,3768.797,2418.629,3768.811z   "></path><path d="M2418.605,3769.213c0,0.002,0.002,0.002,0.004,0.002c0.078,0,0.145-0.064,0.146-0.145l-0.145-0.041l0.145,0.01   c0.004-0.082-0.057-0.15-0.137-0.154c-0.084-0.004-0.15,0.057-0.154,0.137c0,0.002-0.002,0.041-0.002,0.041   C2418.461,3769.145,2418.523,3769.211,2418.605,3769.213z"></path><path d="M2424.992,3768.82l0.004,0.031c0.008,0.076,0.072,0.129,0.145,0.129c0.008,0,0.014,0,0.02,0   c0.08-0.01,0.137-0.082,0.127-0.162l-0.006-0.041c-0.012-0.08-0.084-0.135-0.166-0.125   C2425.035,3768.666,2424.98,3768.74,2424.992,3768.82z"></path><path d="M2424.176,3767.1l0.027,0.029c0.025,0.027,0.059,0.041,0.09,0.041c0.035,0,0.074-0.018,0.105-0.045   c0.061-0.055,0.053-0.16-0.004-0.219c-0.053-0.063-0.145-0.068-0.207-0.016C2424.129,3766.945,2424.123,3767.039,2424.176,3767.1z"></path><path d="M2419.049,3770.572l-0.014-0.029c-0.033-0.072-0.121-0.105-0.193-0.072c-0.074,0.033-0.105,0.121-0.072,0.193l0.018,0.039   c0.025,0.053,0.076,0.082,0.133,0.082c0.02,0,0.043-0.006,0.063-0.018C2419.057,3770.732,2419.084,3770.645,2419.049,3770.572z"></path><path d="M2424.422,3767.396l0.023,0.031c0.025,0.037,0.063,0.053,0.1,0.053c0.031,0,0.064-0.01,0.096-0.031   c0.064-0.047,0.07-0.152,0.023-0.219c-0.045-0.066-0.137-0.084-0.205-0.039C2424.395,3767.238,2424.377,3767.328,2424.422,3767.396   z"></path><path d="M2424.797,3768.074l0.012,0.031c0.021,0.059,0.078,0.096,0.137,0.096c0.02,0,0.035-0.004,0.053-0.01   c0.076-0.029,0.113-0.113,0.086-0.189l-0.016-0.037c-0.029-0.074-0.117-0.111-0.189-0.08   C2424.803,3767.914,2424.766,3768,2424.797,3768.074z"></path><path d="M2424.631,3767.725l0.018,0.031c0.025,0.051,0.076,0.078,0.129,0.078c0.023,0,0.047-0.006,0.068-0.018   c0.072-0.039,0.1-0.127,0.061-0.199l-0.018-0.033c-0.039-0.07-0.129-0.098-0.199-0.059   C2424.617,3767.564,2424.592,3767.652,2424.631,3767.725z"></path><path d="M2422.896,3766.271l0.035,0.012c0.014,0.006,0.029,0.008,0.047,0.008c0.061,0,0.117-0.037,0.139-0.1   c0.025-0.076-0.014-0.158-0.092-0.186l-0.035-0.014c-0.078-0.023-0.16,0.018-0.186,0.094   C2422.779,3766.164,2422.82,3766.246,2422.896,3766.271z"></path><path d="M2423.285,3766.434c0.02,0.01,0.037,0.014,0.055,0.014c0.053,0,0.098-0.031,0.123-0.086   c0.037-0.07-0.006-0.166-0.076-0.203l-0.068,0.129l-0.041,0.145l0.072-0.127L2423.285,3766.434z"></path><path d="M2420.955,3766.238c0.018,0,0.031-0.002,0.049-0.008l0.025-0.008c0.078-0.021,0.125-0.104,0.104-0.18   c-0.021-0.078-0.102-0.123-0.18-0.104l-0.043,0.012c-0.076,0.025-0.117,0.109-0.094,0.188   C2420.838,3766.199,2420.895,3766.238,2420.955,3766.238z"></path><path d="M2422.525,3766.17l0.063-0.137l-0.029,0.145c0.012,0.002,0.021,0.004,0.029,0.004c0.068,0,0.129-0.049,0.146-0.117   c0.016-0.078-0.035-0.156-0.115-0.174l-0.035-0.008c-0.082-0.018-0.156,0.035-0.174,0.113   C2422.395,3766.076,2422.445,3766.152,2422.525,3766.17z"></path><path d="M2421.35,3766.148c0.01,0,0.02-0.002,0.029-0.004l0.027-0.004c0.08-0.014,0.137-0.086,0.125-0.166   c-0.014-0.082-0.084-0.137-0.168-0.125l-0.045,0.008c-0.076,0.018-0.129,0.096-0.111,0.174   C2421.221,3766.102,2421.281,3766.148,2421.35,3766.148z"></path><path d="M2422.146,3766.115l0.045-0.145l-0.014,0.146c0.006,0,0.01,0,0.014,0c0.074,0,0.139-0.059,0.145-0.133   c0.008-0.082-0.053-0.152-0.133-0.16c-0.002,0-0.039-0.004-0.041-0.004c-0.08,0.002-0.15,0.059-0.154,0.141   C2422.004,3766.041,2422.064,3766.111,2422.146,3766.115z"></path><path d="M2421.75,3766.107c0.004,0,0.006,0,0.01,0l0.031-0.002c0.082-0.002,0.146-0.07,0.145-0.15   c-0.004-0.08-0.064-0.148-0.152-0.143l-0.041,0.002c-0.08,0.004-0.143,0.074-0.137,0.154   C2421.609,3766.047,2421.674,3766.107,2421.75,3766.107z"></path><path d="M2425.16,3769.473c-0.078-0.012-0.152,0.049-0.162,0.129l-0.004,0.035c-0.01,0.082,0.047,0.152,0.129,0.164   c0.006,0,0.012,0,0.018,0c0.072,0,0.137-0.055,0.145-0.129l0.006-0.037C2425.299,3769.555,2425.242,3769.48,2425.16,3769.473z"></path><path d="M2423.623,3771.848l0.066,0.133l-0.08-0.123c-0.068,0.043-0.088,0.135-0.043,0.203c0.027,0.043,0.076,0.064,0.123,0.064   c0.027,0,0.055-0.008,0.08-0.021l0.031-0.021l-0.08-0.123L2423.623,3771.848z"></path><path d="M2422.576,3772.297l-0.029,0.006c-0.078,0.018-0.129,0.096-0.111,0.174c0.014,0.07,0.074,0.117,0.143,0.117   c0.01,0,0.021-0.002,0.031-0.004l0.041-0.01c0.078-0.021,0.127-0.102,0.104-0.18   C2422.734,3772.322,2422.656,3772.275,2422.576,3772.297z"></path><path d="M2423.943,3771.604l-0.025,0.021c-0.063,0.053-0.07,0.145-0.02,0.207c0.029,0.033,0.072,0.051,0.113,0.051   c0.033,0,0.066-0.01,0.094-0.033l0.031-0.025c0.061-0.055,0.064-0.146,0.012-0.207   C2424.096,3771.555,2424.004,3771.551,2423.943,3771.604z"></path><path d="M2423.926,3766.859c0.025,0.021,0.053,0.029,0.08,0.029c0.041,0,0.084-0.02,0.113-0.057   c0.055-0.064,0.033-0.166-0.029-0.219c-0.061-0.055-0.152-0.049-0.205,0.014c-0.057,0.061-0.051,0.152,0.012,0.207   L2423.926,3766.859z"></path><path d="M2423.299,3772.037l-0.023,0.012c-0.074,0.035-0.104,0.123-0.066,0.195c0.023,0.053,0.076,0.084,0.131,0.084   c0.021,0,0.043-0.004,0.063-0.016l0.043-0.021c0.07-0.039,0.096-0.129,0.055-0.199S2423.369,3771.998,2423.299,3772.037z"></path><path d="M2422.945,3772.188l-0.027,0.012c-0.076,0.025-0.117,0.109-0.09,0.186c0.02,0.061,0.076,0.1,0.137,0.1   c0.018,0,0.033-0.002,0.049-0.008l0.041-0.016c0.074-0.029,0.111-0.113,0.082-0.189S2423.021,3772.158,2422.945,3772.188z"></path><path d="M2423.668,3766.482l-0.064,0.133l0.096-0.111l-0.082,0.121c0.023,0.016,0.045,0.021,0.07,0.021   c0.045,0,0.088-0.025,0.119-0.07c0.045-0.066,0.012-0.168-0.057-0.213L2423.668,3766.482z"></path><path d="M2425.006,3770.264c-0.076-0.027-0.16,0.012-0.188,0.086l-0.014,0.035c-0.029,0.074,0.01,0.16,0.086,0.188   c0.018,0.006,0.033,0.01,0.051,0.01c0.061,0,0.115-0.035,0.139-0.096l0.012-0.033   C2425.119,3770.377,2425.082,3770.293,2425.006,3770.264z"></path><path d="M2424.217,3771.334l-0.021,0.023c-0.055,0.061-0.051,0.152,0.008,0.207c0.029,0.025,0.064,0.039,0.1,0.039   c0.041,0,0.08-0.018,0.107-0.047l0.027-0.031c0.053-0.059,0.047-0.152-0.014-0.205   C2424.363,3771.266,2424.271,3771.271,2424.217,3771.334z"></path><path d="M2425.107,3769.873c-0.08-0.02-0.158,0.027-0.176,0.107l-0.01,0.035c-0.02,0.078,0.033,0.141,0.111,0.16   c0.008,0.002,0.02,0.002,0.027,0.002c0.07,0,0.137-0.061,0.154-0.129C2425.234,3769.973,2425.188,3769.893,2425.107,3769.873z"></path><path d="M2424.859,3770.643c-0.068-0.041-0.158-0.016-0.199,0.055l-0.018,0.035c-0.039,0.072-0.004,0.146,0.066,0.186   c0.02,0.01,0.039,0.014,0.061,0.014c0.057,0,0.117-0.035,0.145-0.088C2424.955,3770.771,2424.932,3770.682,2424.859,3770.643z"></path><path d="M2424.461,3771.025l-0.023,0.033c-0.047,0.064-0.021,0.143,0.045,0.188c0.021,0.018,0.049,0.025,0.074,0.025   c0.055,0,0.109-0.027,0.141-0.072c0.049-0.063,0.035-0.156-0.031-0.205C2424.602,3770.947,2424.51,3770.961,2424.461,3771.025z"></path><path d="M2421.053,3772.262l-0.035-0.01c-0.078-0.023-0.158,0.023-0.18,0.102s0.023,0.158,0.102,0.18l0.037,0.012   c0.012,0.004,0.025,0.006,0.039,0.006c0.063,0,0.123-0.043,0.141-0.109C2421.178,3772.361,2421.131,3772.281,2421.053,3772.262z"></path><path d="M2419.992,3771.736c-0.063-0.049-0.156-0.039-0.205,0.025c-0.051,0.063-0.039,0.156,0.025,0.205l0.033,0.025   c0.025,0.02,0.057,0.027,0.084,0.027c0.047,0,0.092-0.021,0.119-0.063c0.047-0.064,0.033-0.156-0.033-0.203L2419.992,3771.736z"></path><path d="M2419.479,3766.799l0.1,0.107l0.121,0.088l-0.094-0.113l0.104,0.105c0.057-0.057,0.047-0.135-0.01-0.193   C2419.645,3766.734,2419.539,3766.744,2419.479,3766.799z"></path><path d="M2419.324,3771.291l0.115-0.092c-0.049-0.063-0.143-0.074-0.203-0.023c-0.066,0.049-0.076,0.141-0.027,0.205   c0.002,0,0.025,0.029,0.025,0.029l0.225-0.188L2419.324,3771.291z"></path><path d="M2420.313,3771.949c-0.07-0.041-0.145-0.008-0.186,0.063s-0.002,0.168,0.068,0.209l0.074-0.127l0.059-0.135l-0.09,0.117   L2420.313,3771.949z"></path><path d="M2419.699,3771.484c-0.057-0.057-0.148-0.057-0.207,0c-0.057,0.059-0.057,0.15,0,0.207l0.027,0.025l0.104-0.104l0.09-0.117   l-0.115,0.092L2419.699,3771.484z"></path><path d="M2419.236,3770.914l-0.02-0.031c-0.043-0.068-0.125-0.074-0.191-0.031c-0.07,0.041-0.08,0.148-0.039,0.217   c0.027,0.045,0.076,0.07,0.125,0.07c0.027,0,0.053-0.008,0.078-0.021C2419.258,3771.072,2419.277,3770.982,2419.236,3770.914z"></path><path d="M2420.176,3766.268l-0.033,0.021c-0.07,0.041-0.094,0.129-0.053,0.199c0.027,0.049,0.076,0.072,0.127,0.072   c0.025,0,0.051-0.008,0.072-0.02l0.031-0.018c0.07-0.041,0.096-0.129,0.055-0.201   C2420.336,3766.252,2420.246,3766.229,2420.176,3766.268z"></path><path d="M2421.432,3772.34l-0.037-0.006c-0.082-0.012-0.137,0.047-0.148,0.127s0.063,0.156,0.143,0.168   c0.008,0.002,0.016,0.002,0.021,0.002c0.07,0,0.133-0.053,0.145-0.123C2421.566,3772.428,2421.512,3772.354,2421.432,3772.34z"></path><path d="M2421.813,3772.371l-0.037,0.146l0.004-0.146c-0.002,0-0.002,0-0.004,0c-0.08,0-0.145,0.063-0.145,0.143   c-0.004,0.08,0.061,0.148,0.141,0.15c0.002,0,0.039,0,0.041,0c0.082,0,0.146-0.064,0.146-0.146   C2421.957,3772.438,2421.893,3772.371,2421.813,3772.371z"></path><path d="M2420.688,3772.137l-0.088,0.121l0.057-0.135c-0.072-0.031-0.16,0.004-0.191,0.078s0.004,0.16,0.078,0.191l0.035,0.014   c0.02,0.008,0.037,0.012,0.055,0.012c0.059,0,0.113-0.035,0.137-0.092C2420.799,3772.252,2420.764,3772.166,2420.688,3772.137z"></path><path d="M2422.197,3772.357l-0.033,0.004c-0.08,0.006-0.139,0.078-0.133,0.158c0.006,0.076,0.072,0.133,0.146,0.133   c0.004,0,0.008,0,0.012,0l0.041-0.004c0.082-0.01,0.139-0.082,0.129-0.162C2422.352,3772.404,2422.275,3772.35,2422.197,3772.357z"></path><path d="M2421.887,3765.061c-2.305,0-4.178,1.875-4.178,4.178c0,2.305,1.873,4.18,4.178,4.18c2.303,0,4.176-1.875,4.176-4.18   C2426.063,3766.936,2424.188,3765.061,2421.887,3765.061z M2421.887,3773.123c-2.143,0-3.887-1.742-3.887-3.885   c0-2.141,1.744-3.885,3.887-3.885c2.141,0,3.883,1.744,3.883,3.885C2425.77,3771.381,2424.027,3773.123,2421.887,3773.123z"></path></g><path d="M8.117,2.318C7.729,1.929,7.213,1.715,6.664,1.715S5.6,1.929,5.212,2.318L5,2.53L4.789,2.318  C4.4,1.929,3.884,1.715,3.336,1.715c-0.549,0-1.064,0.214-1.453,0.603C1.496,2.706,1.282,3.221,1.282,3.77s0.214,1.064,0.602,1.452  l3.025,3.024C4.934,8.271,4.966,8.283,5,8.283s0.066-0.012,0.092-0.037l3.026-3.024C8.506,4.834,8.719,4.319,8.719,3.77  S8.506,2.706,8.117,2.318z M2.066,2.5c0.34-0.339,0.791-0.525,1.271-0.525S4.266,2.161,4.605,2.5l0.304,0.305  C4.933,2.828,4.965,2.841,5,2.841c0.035,0,0.067-0.014,0.092-0.037L5.395,2.5c0.339-0.339,0.791-0.525,1.269-0.525  c0.48,0,0.932,0.187,1.27,0.525c0.34,0.34,0.527,0.791,0.527,1.271c0,0.406-0.141,0.787-0.389,1.101H6.166L5.947,3.866  c-0.014-0.058-0.064-0.1-0.123-0.102C5.76,3.757,5.711,3.802,5.695,3.859L4.987,6.447L4.203,2.993  C4.189,2.934,4.136,2.892,4.077,2.892c-0.001,0-0.001,0-0.001,0c-0.061,0-0.113,0.043-0.125,0.102L3.552,4.832L1.914,4.854  C1.676,4.543,1.541,4.168,1.541,3.77C1.541,3.291,1.727,2.839,2.066,2.5z M5,7.973L2.136,5.109l1.522-0.021  C3.718,5.087,3.77,5.045,3.783,4.987L4.08,3.618l0.77,3.388c0.014,0.059,0.064,0.1,0.123,0.102c0.001,0,0.002,0,0.003,0  c0.058,0,0.109-0.039,0.125-0.096l0.707-2.579l0.131,0.594c0.012,0.061,0.064,0.102,0.125,0.102h1.782L5,7.973z"></path></svg>