<svg height='100px' width='100px'  fill="#000000" xmlns="http://www.w3.org/2000/svg" data-name="Layer 1" viewBox="0 0 144 144" x="0px" y="0px"><title>Artboard 67</title><path d="M77.2,14.7A11.2,11.2,0,1,0,66,25.9,11.212,11.212,0,0,0,77.2,14.7Zm-18.4,0A7.2,7.2,0,1,1,66,21.9,7.207,7.207,0,0,1,58.8,14.7Z"></path><path d="M106.9,50.361a11.958,11.958,0,0,0,13.085-.969,7.958,7.958,0,0,1,8.709-.649l3.841,2.135a2,2,0,0,0,2.971-1.748V28.181a2,2,0,0,0-1.028-1.748L130.641,24.3a11.952,11.952,0,0,0-13.084.97,7.956,7.956,0,0,1-8.709.648l-3.13-1.74V23.27a2,2,0,1,0-4,0V94.579H84.12a2,2,0,0,0-2,2v11.589H78.827v-16.6h6.719a2,2,0,0,0,1.931-2.521L81.245,65.967a6.486,6.486,0,0,0,.672.037,6.3,6.3,0,0,0,6.3-6.3V41.061a14.886,14.886,0,0,0-14.869-14.87H58.656a14.886,14.886,0,0,0-14.869,14.87V59.707a6.3,6.3,0,0,0,6.3,6.3,6.2,6.2,0,0,0,.671-.037L44.523,89.052a2,2,0,0,0,1.931,2.521h6.719v16.6H44.026a2,2,0,0,0-2,2v11.589H10.489a2,2,0,0,0-2,2V138.5a2,2,0,0,0,2,2H127.577a2,2,0,0,0,2-2V96.579a2,2,0,0,0-2-2H105.718V49.7ZM55.173,87.573H49.065l6.977-25.847a6.146,6.146,0,0,0,.219-.812l.05-.184a1.984,1.984,0,0,0,.054-.72c0-.1.015-.2.015-.3V43.178a2,2,0,0,0-4,0V59.707a2.254,2.254,0,0,1-.038.379l-.114.424a2.292,2.292,0,0,1-4.441-.8V41.061a10.882,10.882,0,0,1,10.869-10.87H73.344a10.882,10.882,0,0,1,10.869,10.87V59.707a2.292,2.292,0,0,1-4.441.8l-.114-.424a2.254,2.254,0,0,1-.038-.379V43.178a2,2,0,0,0-4,0V59.707c0,.1.01.2.015.3a1.979,1.979,0,0,0,.054.719l.05.184a6.146,6.146,0,0,0,.219.812l6.977,25.847H76.827a2,2,0,0,0-2,2v18.6H68v-18.6a2,2,0,1,0-4,0v18.6H57.173v-18.6A2,2,0,0,0,55.173,87.573Zm70.4,48.927H12.489V125.757H44.026a2,2,0,0,0,2-2V112.168H84.12a2,2,0,0,0,2-2V98.579h39.457ZM106.905,29.411a11.953,11.953,0,0,0,13.084-.969,7.963,7.963,0,0,1,8.709-.649l2.813,1.563V45.73l-.869-.483a11.96,11.96,0,0,0-13.085.969,7.955,7.955,0,0,1-8.708.649l-3.13-1.74V28.751Z"></path></svg>