<svg height='100px' width='100px'  fill="#000000" xmlns="http://www.w3.org/2000/svg" xmlns:xlink="http://www.w3.org/1999/xlink" version="1.1" x="0px" y="0px" viewBox="0 0 100 100" style="enable-background:new 0 0 100 100;" xml:space="preserve"><g><path d="M39.0820313,23.7094727c0.5527344,0,1-0.4477539,1-1v-2.7792969l2.6074219-2.6074219h5.5585938l2.6083984,2.6074219   v2.7792969c0,0.5522461,0.4472656,1,1,1s1-0.4477539,1-1v-3.1933594c0-0.2651367-0.1054688-0.5195313-0.2929688-0.7070313   l-3.1943359-3.1933594c-0.1875-0.1875-0.4414063-0.2929688-0.7070313-0.2929688h-6.3867188   c-0.265625,0-0.5195313,0.1054688-0.7070313,0.2929688L38.375,18.809082c-0.1875,0.1875-0.2929688,0.4418945-0.2929688,0.7070313   v3.1933594C38.0820313,23.2617188,38.5292969,23.7094727,39.0820313,23.7094727z"></path><path d="M46.1289063,47.2583008h-3.4394531l-2.6074219-2.6079102v-2.7792969c0-0.5522461-0.4472656-1-1-1s-1,0.4477539-1,1   v3.1933594c0,0.2651367,0.1054688,0.5195313,0.2929688,0.7070313l3.1933594,3.1938477   c0.1875,0.1875,0.4414063,0.2929688,0.7070313,0.2929688h3.8535156c0.5527344,0,1-0.4477539,1-1   S46.6816406,47.2583008,46.1289063,47.2583008z"></path><path d="M86.4697266,56.3798828h-4.6894531v-3.4296875c0-2.6411133-2.1533203-4.7900391-4.7998047-4.7900391h-0.890625v-1.5302734   c0-0.5522461-0.4472656-1-1-1h-8.5943604l1.5601807-2.5522461c0.4887085-0.8080444,0.734314-1.7055664,0.74646-2.6150513   l9.03479-13.7985229c0.1445313-0.222168,0.1962891-0.4926758,0.1416016-0.7519531   c-0.0537109-0.2597656-0.2089844-0.4873047-0.4306641-0.6323242l-9.4614258-6.194397l0.5258789-1.7660522   c0.15625-0.5283203-0.1445313-1.0834961-0.671875-1.2416992l-10.8261719-3.2358398V11c0-0.5522461-0.4472656-1-1-1H34.8242188   c-0.5527344,0-1,0.4477539-1,1v17.6162109l-1.5791016,1.2631836c-2.3613281,1.8886719-4.0703125,4.4169922-4.9433594,7.3139648   l-1.8032837,6.0287476l-12.4349976,4.3071899C10,48.5932617,10,48.5932617,10,49.309082V77   c0,0.3881836,0.2246094,0.7412109,0.5761719,0.9057617C10.7109375,77.9692383,10.8564453,78,11,78   c0.2294922,0,0.4570313-0.0791016,0.640625-0.2319336l21.4694214-17.9082642l5.6308594-0.621582   c-0.0429688,0.2201538-0.0709839,0.4443359-0.0709839,0.671936v5.699707v21.4902344   C38.6699219,88.6992188,39.9707031,90,41.5703125,90h45.5292969C88.6992188,90,90,88.6992188,90,87.1000977V65.6098633v-5.699707   C90,57.9633789,88.4160156,56.3798828,86.4697266,56.3798828z M76.0898438,50.1601563h0.890625   c1.5439453,0,2.7998047,1.2514648,2.7998047,2.7900391v3.4296875H79.25v-3.4296875   c0-1.2460938-1.0185547-2.2602539-2.2695313-2.2602539h-0.890625V50.1601563z M76.9804688,52.6899414   c0.1464844,0,0.2695313,0.1191406,0.2695313,0.2602539v3.4296875H59.0714722   c0.7982178-0.4351196,1.49646-1.0574951,1.986145-1.8544922l1.1220093-1.8354492h12.9102173H76.9804688z M74.0898438,47.6298828   v3.0600586h-10.6875l0.1320801-0.2162476l1.7384644-2.843811H74.0898438z M67.4941406,21.0878906l8.1210938,5.3173828   l-7.4510498,11.380127c-0.3369141-0.616333-0.7988281-1.1486206-1.3528442-1.5803833   c-0.0259399-0.0205078-0.0525513-0.0392456-0.0788574-0.0592651c-0.2327881-0.1743774-0.4803467-0.3286133-0.7435303-0.4631348   c-0.0646973-0.0337524-0.1265259-0.0699463-0.192749-0.1009521c-0.27948-0.1283569-0.5708008-0.2367554-0.8776855-0.3163452   c-0.0269775-0.007019-0.0505371-0.0214233-0.0776978-0.0280151l-1.4550781-0.3637695l2.5219727-8.4625244l1.0463867,0.6851807   l0.7548828,3.6098633L66.1865234,33.03125c-0.3027344,0.4624023-0.1728516,1.0820313,0.2890625,1.3847656   c0.1689453,0.1103516,0.359375,0.1630859,0.546875,0.1630859c0.3261719,0,0.6455078-0.1591797,0.8378906-0.4521484   l1.7490234-2.671875c0.1455078-0.222168,0.1962891-0.4926758,0.1416016-0.7524414l-0.9238281-4.4208984   c-0.0537109-0.2592773-0.2089844-0.4868164-0.4306641-0.6318359l-1.8926392-1.2390137L67.4941406,21.0878906z    M57.1142578,20.4869385l1.2001953,0.3577881l1.7539063,3.2441406l-0.7939453,2.6630859   c-0.1582031,0.5292969,0.1425781,1.0864258,0.671875,1.2446289c0.0957031,0.0283203,0.1914063,0.0419922,0.2861328,0.0419922   c0.4306641,0,0.8291016-0.2807617,0.9580078-0.7143555l0.9130859-3.0610352   c0.0761719-0.2539063,0.0478516-0.527832-0.078125-0.7612305l-2.1484375-3.9726563   c-0.1259766-0.2333984-0.3398438-0.4067383-0.59375-0.4829102l-2.1689453-0.6469116v-3.4707642l9.296875,2.7792969   l-4.7254639,15.8691406l-0.2415161,0.8104858l-2.039856-0.512146c-0.2876587-0.0724487-0.578064-0.1182861-0.8692017-0.149292   c-0.0646362-0.0070801-0.1289063-0.006897-0.1935425-0.0119629c-0.154541-0.0115967-0.309021-0.0286865-0.463623-0.0286865   c-0.0570068,0-0.1137085,0.0090332-0.1707153,0.0105591c-0.1143188,0.0027466-0.227417,0.012146-0.3411865,0.0211792   c-0.0838623,0.006958-0.168396,0.005188-0.25177,0.015625V20.4869385z M56.4414063,35.9389648   c0.0014648-0.0004883,0.0026245-0.0016479,0.0040894-0.0021973c0.0025024-0.0008545,0.005127-0.0007935,0.0076294-0.001709   c0.1312256-0.0472412,0.2659912-0.0775757,0.3999634-0.1113892c0.0738525-0.0185547,0.1469116-0.0445557,0.2211914-0.05896   c0.1159668-0.022644,0.2335815-0.0305176,0.350647-0.0432739c0.1096802-0.0115967,0.2190552-0.0261841,0.3295288-0.0288086   c0.1287231-0.0038452,0.2575684,0.0018921,0.3864136,0.0099487c0.0703125,0.0048828,0.1403809,0.0050659,0.2108765,0.0135498   c0.0842896,0.0095215,0.1677246,0.02948,0.2516479,0.0440674c0.1048584,0.0188599,0.2094116,0.0333862,0.3145752,0.0601196   l5.4453125,1.3613281c1.4072266,0.3427734,2.390625,1.5512695,2.4472656,3.0068359c0,0.0078125,0,0.015625,0.0009766,0.0234375   c0.0390625,0.628418-0.1230469,1.2612305-0.4648438,1.8266602l-2.4790649,4.0563965   c-0.0032349,0.0050659-0.0079956,0.008728-0.0111694,0.013916l-3.0898438,5.0600586   c-0.000061,0.0001221-0.0001221,0.0003662-0.0001831,0.0004883l-1.4187622,2.3173828   c-0.4658203,0.7587891-1.2207031,1.2963867-2.0947266,1.4794922c-0.3427734,0.0800781-0.7158203,0.1000977-1.078125,0.0629883   c-0.1728516-0.0234375-0.3457031-0.0639648-0.5644531-0.1220703c-0.7207031-0.2025146-1.3557129-0.5775146-1.8683472-1.0984497   c-0.1708984-0.173645-0.328186-0.3634644-0.47052-0.5685425c-0.0126953-0.019043-0.0498047-0.0649414-0.0634766-0.0830078   c-0.0258789-0.0316162-0.0459595-0.0679932-0.0670166-0.1033936c-0.0022583-0.0036011-0.0029907-0.0077515-0.005249-0.0113525   c-0.0123901-0.0194702-0.0198975-0.0414429-0.0319824-0.0610962c-0.1223755-0.2037354-0.2303467-0.414917-0.3179932-0.6323853   c-0.0297241-0.0742798-0.0483398-0.1522827-0.0737915-0.2280884c-0.0554199-0.163208-0.1057739-0.3271484-0.1399536-0.4927368   c-0.0345459-0.1677246-0.0605469-0.3374023-0.0747681-0.5089111c-0.0030518-0.0361328-0.0098877-0.071106-0.012085-0.1074219   c-0.0133057-0.230957-0.0097656-0.4637451,0.0148315-0.6964111l0.8649292-8.7154541l0.2005005-2.0081787   c0.0298462-0.2922974,0.0985107-0.5733032,0.184021-0.8475952C54.1551514,37.4486084,55.1417236,36.3892822,56.4414063,35.9389648z    M55.6178589,56.9623413l-2.2272339,3.4033813l-5.8427734-3.8227539c-0.0068359-0.0039063-0.09375-0.0581055-0.0996094-0.0620117   c-0.0212402-0.0134888-0.043396-0.0258789-0.0665283-0.0375977l-2.8341675-1.862793h7.2263184   c0.0998535,0.1323242,0.2199707,0.2460327,0.3297729,0.3695068c0.0985107,0.1109009,0.1895142,0.2278442,0.2955933,0.3312378   c0.1484985,0.1447144,0.3135376,0.2702026,0.4759521,0.3994141c0.1099243,0.0874634,0.211731,0.1837158,0.3276367,0.2637939   c0.1881714,0.1299438,0.3922729,0.2366943,0.5950317,0.3460693c0.1065674,0.0575562,0.2049561,0.1266479,0.3152466,0.1782837   c0.3197632,0.1495972,0.6535645,0.2755737,1.0011597,0.3724365C55.2752686,56.887207,55.4421997,56.9286499,55.6178589,56.9623413z    M35.8242188,12h19.2900391v1.5869141v20.7407227c-0.0157471,0.0076294-0.0296631,0.0179443-0.0452881,0.0256958   c-0.1532593,0.0759277-0.2979126,0.1636353-0.4435425,0.2512817c-0.0983887,0.0591431-0.1977539,0.1160278-0.2924805,0.1802979   c-0.1329346,0.090271-0.2584839,0.1881714-0.383667,0.2879639c-0.0969849,0.0771484-0.192749,0.1546021-0.2848511,0.2371826   c-0.1133423,0.1018066-0.2213745,0.2077026-0.3269653,0.3172607c-0.0921631,0.095459-0.1806641,0.1931763-0.2666626,0.2941284   c-0.09375,0.1102295-0.1845093,0.2216797-0.2705688,0.3380737c-0.085083,0.1147461-0.1634521,0.2335815-0.2407837,0.3540039   c-0.0731201,0.1141357-0.1462402,0.2272339-0.2120972,0.3460083c-0.0771484,0.138916-0.1439819,0.282959-0.2107544,0.4276733   c-0.0509033,0.1104126-0.1053467,0.2182617-0.1499023,0.3317871c-0.0706787,0.1793213-0.1262817,0.3647461-0.1807251,0.5510864   c-0.0252686,0.086853-0.0576782,0.1706543-0.0792847,0.2588501c-0.0690308,0.2805176-0.1221313,0.5665894-0.1524658,0.8587646   l-0.9744263,9.8262939l-0.0949097,0.9085693c-0.007019,0.0712891-0.0015869,0.140564-0.0062866,0.2115479   c-0.0124512,0.1794434-0.019043,0.3585205-0.0160522,0.5376587c0.0018311,0.1063232,0.0072021,0.2107544,0.0143433,0.3156738   c0.0117798,0.1750488,0.0321045,0.3486938,0.0584717,0.5217896c0.0090942,0.0581665,0.0090332,0.1195068,0.0198364,0.177002   c0.0040894,0.0228271,0.0114746,0.0455933,0.0158691,0.0684204c0.0092163,0.0478516,0.022644,0.0946655,0.032959,0.1422729   c0.0314941,0.144165,0.0646362,0.2879639,0.1071167,0.4312134c0.0050049,0.0170898,0.0077515,0.0348511,0.0128784,0.0519409   h-9.5340576h-5.3857422v-12.487793l4.2886353-5.3609619l0.4574585-0.571106   c0.756958,1.975708,2.6595459,3.3881226,4.8984375,3.3881226c2.8994141,0,5.2587891-2.3583984,5.2587891-5.2578125   s-2.359375-5.2583008-5.2587891-5.2583008c-0.5311279,0-1.0515137,0.0838013-1.5491943,0.2377319l-0.3297119-1.3119507   c-0.1552734-0.6230469-0.5839844-1.128418-1.1757813-1.387207c-0.151001-0.0664673-0.3070679-0.1135254-0.4654541-0.1425171   c-0.0211792-0.0038452-0.0428467-0.0011597-0.0640869-0.0043945c-0.4481812-0.0675659-0.9118042,0.007019-1.3317871,0.2382202   l-3.425415,1.9631958l-1.3031006,0.7462769V12z M42.2109375,32.2905273c0-0.062439,0.0010986-0.1234741,0.0038452-0.1835327   l1.3652954-1.7046509c0.1133423-0.1462402,0.2059937-0.3034668,0.2880249-0.4656372   c0.019104-0.0374756,0.0337524-0.0760498,0.0511475-0.1143188c0.0574951-0.1275024,0.1055298-0.258667,0.1436768-0.3942261   c0.0090332-0.0316772,0.0258179-0.06073,0.0337524-0.0927124c0.4248047-0.1992188,0.8925781-0.3032227,1.3720703-0.3032227   c1.796875,0,3.2587891,1.4619141,3.2587891,3.2583008s-1.4619141,3.2578125-3.2587891,3.2578125   C43.6728516,35.5483398,42.2109375,34.0869141,42.2109375,32.2905273z M12,74.8637695v-24.847168   c2.2531738-0.7860107,9.8058472-3.4005737,13.7568359-4.7679443l5.7237549,13.3654785L12,74.8637695z M33.3173828,57.824707   l-5.9462891-13.8852539l1.8457031-6.1708984c0.7548828-2.5048828,2.234375-4.6928711,4.2783203-6.3276367l1.8896484-1.5117188   l2.6983032-1.5465088l3.4647827-1.9842529l-0.494812-0.8637085l0.0385742,0.0587158l0.5548706,0.8513794l0.5,1.9873047   c0.0140381,0.0698242,0.0206909,0.1289063,0.0258789,0.1843262c0.0012817,0.0179443,0.0073242,0.0441895,0.0073242,0.0593262   c-0.0009155,0.0424805-0.0150757,0.0813599-0.0221558,0.1224976c-0.0239868,0.1334229-0.0697632,0.2620239-0.1526489,0.3657837   l-4.1970215,5.2466431l-3.7687988,4.7050171c-0.1416016,0.1772461-0.21875,0.3974609-0.21875,0.6245117v13.8398438   c0,0.5522461,0.4472656,1,1,1h0.0014648c0.0008545,0,0.0015869,0.0004883,0.0024414,0.0004883h6.0817871l2.7346191,1.7993164   h-1.4404297c-0.7514038,0-1.4685669,0.2516479-2.0707397,0.6920166L33.3173828,57.824707z M88,87.1000977   C88,87.5961914,87.5957031,88,87.0996094,88H41.5703125c-0.4960938,0-0.9003906-0.4038086-0.9003906-0.8999023v-15.769043   c0.0132446,0.0165405,0.0292969,0.03125,0.0426636,0.0477295c0.2049561,0.2533569,0.4220581,0.4991455,0.6556396,0.7330933   c0.0008545,0.0008545,0.0010376,0.0020142,0.0018921,0.0028687c1.7392578,1.7509766,4.0546875,2.715332,6.5195313,2.715332   h5.9501953v2.7900391c0,0.1113281,0.0146484,0.2148438,0.0371094,0.3461914   c0.0048828,0.1079102,0.0166016,0.2138672,0.0292969,0.2666016c0.0117188,0.0805664,0.0253906,0.1650391,0.0449219,0.2451172   c0.0001221,0.0006714,0.0004883,0.0012207,0.0006104,0.0018921c0.0001831,0.0007935,0.0001831,0.001709,0.0003662,0.0025024   c0.0214844,0.1162109,0.0556641,0.2265625,0.1015625,0.3344727c0.0040894,0.0126953,0.0126343,0.0248413,0.0169067,0.0374756   c0.0003052,0.0006714,0.0003662,0.0014038,0.0006714,0.0020752c0.0576172,0.1469727,0.1162109,0.284668,0.1855469,0.4223633   c0.0029297,0.0058594,0.0048828,0.0112305,0.0078125,0.0170898c0.0068359,0.0136719,0.0150146,0.0236816,0.0220337,0.0370483   c0.0042114,0.0073853,0.0059204,0.0151367,0.0101929,0.022522l0.0009766-0.0004883   c0.0042725,0.0073853,0.0101318,0.013855,0.0145874,0.0211182c0.098877,0.1774902,0.2084351,0.3294678,0.2909546,0.4318848   c0.0004272,0.0004883,0.0006714,0.0010986,0.0010986,0.0015869c0.0004272,0.0005493,0.0008545,0.0010376,0.0012817,0.0015869   c0.0001831,0.0002441,0.0004883,0.0006104,0.0006714,0.0008545c0.0117188,0.0161133,0.0234375,0.0317383,0.0322266,0.0424805   c0.0132446,0.0165405,0.0274048,0.0299072,0.0410156,0.0460815c0.005127,0.0057373,0.0107422,0.0137329,0.015625,0.0188599   c0.0026855,0.0027466,0.0054321,0.0050659,0.0081177,0.0077515c0.1106567,0.1282959,0.2261353,0.2453613,0.3102417,0.3086548   c0.1259766,0.1123047,0.2607422,0.2138672,0.3896484,0.3066406c0.0845947,0.0630493,0.1643066,0.1118164,0.2324829,0.149292   c0.0738525,0.0406494,0.1434937,0.0733643,0.2069702,0.1016846c0.1191406,0.0527344,0.2382813,0.1044922,0.3574219,0.1445313   c0.0175781,0.0058594,0.1552734,0.0498047,0.1728516,0.0546875c0.0001831,0.000061,0.0003052,0.000061,0.0004883,0.0001221   c0.0314941,0.0100708,0.0796509,0.0252075,0.0893555,0.0281982c0.0445557,0.0126343,0.0892334,0.0151978,0.133667,0.0234985   c0.2666016,0.064209,0.5241089,0.1054077,0.7735596,0.1054077h13.9199219c0.8056641,0,1.5859375-0.2773438,2.2041016-0.7817383   c0.1054688-0.0756836,0.2021484-0.1606445,0.2910156-0.2578125c0.1484375-0.1411133,0.2861328-0.3051758,0.4033203-0.4799805   c0.0068359-0.0092773,0.0136719-0.0185547,0.0205078-0.027832v0.0004883   c0.1376953-0.1972656,0.2421875-0.3901367,0.3183594-0.5878906c0.0151978-0.0304565,0.0213013-0.0614014,0.034668-0.0925293   c0.0348511-0.0810547,0.0725708-0.1663818,0.0864258-0.2258301c0.0016479-0.0049438,0.0020752-0.0101318,0.0037231-0.0150757   c0.0021362-0.0078125,0.007019-0.0162964,0.0089722-0.0239868c0.0097656-0.0339966,0.0131226-0.0675659,0.0219116-0.1014404   c0.086792-0.3013306,0.1372681-0.6078491,0.1372681-0.9361572v-2.7900391h5.9599609   c2.4648438,0,4.7802734-0.9643555,6.5195313-2.715332c0.0008545-0.0008545,0.0010376-0.0020142,0.0018921-0.0028687   c0.2335815-0.2339478,0.4506836-0.4797363,0.6556396-0.7330933C87.9707031,71.3623047,87.9867554,71.3475952,88,71.3310547   V87.1000977z M55.8496094,77.6201172v-3.7900391v-0.0102539v-3.7900391c0-0.1672974,0.0307617-0.3447876,0.0841675-0.5029297   c0.0655518-0.1748657,0.1435547-0.321106,0.2478638-0.4560547c0.0004883-0.0006714,0.0006104-0.0014648,0.0010986-0.0021362   c0.0038452-0.0048218,0.0078735-0.0097656,0.0115967-0.0144653c0.0402832-0.0458374,0.0928955-0.1003418,0.1619873-0.1654663   c0.0603638-0.053894,0.1149292-0.0960693,0.2208252-0.1616821c0.0478516-0.0336914,0.1015625-0.0615234,0.1298828-0.0751953   c0.0498047-0.0161133,0.2167969-0.0732422,0.2636719-0.0966797c0.0537109-0.0146484,0.1123047-0.0336914,0.1904297-0.0405273   C57.2285156,68.5078125,57.2958984,68.5,57.3701172,68.5h13.9199219c0.84375,0,1.5302734,0.6860352,1.5302734,1.5297852v3.7368164   c-0.0010376,0.0186157-0.0107422,0.0343628-0.0107422,0.0532227v3.800293c0,0.1616211-0.0224609,0.3188477-0.0664063,0.4921875   c-0.0322266,0.0561523-0.0595703,0.1152344-0.0800781,0.1767578c-0.0087891,0.0263672-0.0283203,0.0698242-0.0703125,0.1337891   c-0.0195313,0.0249023-0.0371094,0.0507813-0.0546875,0.0776367c-0.0400391,0.0625-0.09375,0.1269531-0.2001953,0.2353516   c-0.03125,0.0209961-0.0615234,0.043457-0.0908203,0.0678711c-0.2587891,0.2167969-0.6025391,0.3364258-0.9667969,0.3364258   H57.3798828c-0.0585938,0-0.1142578-0.0131836-0.1689453-0.0219727l-0.2601929-0.0407715l-0.0075073-0.0023804   c-0.0637817-0.0188599-0.1271362-0.0392456-0.1878052-0.06604c-0.0424194-0.0184326-0.0924683-0.041687-0.1685181-0.0783081   c-0.0750732-0.0549316-0.1506958-0.1099243-0.2215576-0.1710815c-0.0083008-0.0068359-0.0159302-0.0128784-0.0247192-0.0202637   c-0.0568848-0.0518188-0.107666-0.1110229-0.164856-0.1748657c-0.0087891-0.0102539-0.0185547-0.0205078-0.0283203-0.0307617   c-0.0195313-0.0292969-0.0371094-0.0600586-0.0556641-0.090332l-0.0686035-0.1095581   c-0.0354614-0.0753784-0.0684204-0.1506958-0.0993652-0.2317505c-0.0037842-0.0097656-0.0079346-0.019165-0.0119629-0.0286255   c-0.00177-0.0042114-0.0028076-0.008667-0.0046387-0.0128784c-0.0039063-0.0176392-0.0078735-0.0335083-0.0117798-0.0482178   l-0.0292358-0.2642822c-0.0001831-0.001709-0.0011597-0.0049438-0.0014038-0.0068359   C55.861084,77.7079468,55.8512573,77.6335449,55.8496094,77.6201172z M88,65.6098633   c0,1.9189453-0.7519531,3.7280273-2.1171875,5.0932617c-1.3652344,1.3647461-3.1777344,2.1166992-5.1025391,2.1166992h-5.9599609   v-2.7900391c0-1.9462891-1.5839844-3.5297852-3.5302734-3.5297852H57.3701172   c-0.1464844,0-0.2783203,0.0117188-0.3925781,0.0234375c-0.1796875,0.0146484-0.3613281,0.0561523-0.4462891,0.0825195   c-0.0073242,0.0013428-0.0144653,0.0057983-0.0217285,0.0072021c-0.020874,0.0053711-0.0435791,0.0067749-0.064209,0.0123291   c-0.1552734,0.0424805-0.296875,0.0883789-0.4375,0.1538086c-0.0390625,0.0146484-0.0810547,0.03125-0.0986328,0.0390625   c-0.1679688,0.0756836-0.3349609,0.1679688-0.4121094,0.2270508c-0.2060547,0.1201172-0.3808594,0.2539063-0.4921875,0.3681641   c-0.1191406,0.1054688-0.2255859,0.2226563-0.3095703,0.3168945c-0.024292,0.026062-0.0540771,0.0623779-0.0800781,0.097168   v0.000061c-0.0021973,0.0029907-0.0046997,0.0053101-0.0068359,0.0082397   c-0.2529297,0.3115234-0.4384766,0.6508789-0.5507813,0.9936523c-0.0021973,0.0056152-0.0027466,0.0118408-0.0048828,0.0174561   c-0.0032349,0.0094604-0.0085449,0.0174561-0.0117188,0.0269775c-0.0029297,0.0087891-0.0006104,0.0176392-0.0032959,0.0264282   c-0.1275635,0.354126-0.197876,0.7322388-0.197876,1.1293335v2.7900391h-5.9501953   c-1.9248047,0-3.7373047-0.7519531-5.1025391-2.1166992c-1.3652344-1.3652344-2.1171875-3.1743164-2.1171875-5.0932617v-5.699707   c0-0.3334961,0.109375-0.6557617,0.3066406-0.9169922l0.3398438-0.0376587l5.2000122-0.5756226h0.1852417l6.4301758,4.2070313   c0.1038208,0.0678101,0.2163086,0.1066895,0.3306885,0.1321411c0.0339966,0.0075684,0.0665894,0.010376,0.1008911,0.0144043   C53.6019897,62.7379761,53.6401978,62.75,53.6787109,62.75c0.0567627,0,0.1124268-0.0109863,0.1681519-0.0205078   c0.0171509-0.0029297,0.0339966-0.0024414,0.0509644-0.0062256c0.1086426-0.024292,0.2106934-0.0695801,0.3064575-0.1289673   c0.0220947-0.0136719,0.0419312-0.0286865,0.0630493-0.0441284c0.0941162-0.0689087,0.1814575-0.1490479,0.2492676-0.2523193   l2.5644531-3.9179688h29.3886719c0.84375,0,1.5302734,0.6865234,1.5302734,1.5302734V65.6098633z"></path><path d="M63.9824219,74.8237305h0.6884766c0.1044922,0,0.1894531,0.0849609,0.1894531,0.1894531v0.1508789   c0,0.1044922-0.0849609,0.1894531-0.1894531,0.1894531h-1.5996094c-0.5527344,0-1,0.4477539-1,1s0.4472656,1,1,1h0.3388672   c0.1467896,0.3694458,0.5036011,0.6323242,0.9257813,0.6323242c0.4567871,0,0.8256836-0.3119507,0.9454956-0.7297363   c0.9088745-0.2663574,1.5789185-1.0983276,1.5789185-2.092041v-0.1508789c0-1.1870117-0.9492188-2.15625-2.1289063-2.1884766   c-0.0136719-0.0004883-0.0273438-0.0009766-0.0410156-0.0009766h-0.7080078c-0.1044922,0-0.1894531-0.0849609-0.1894531-0.1894531   v-0.1508789c0-0.1044922,0.0849609-0.1894531,0.1894531-0.1894531h1.6181641c0.5527344,0,1-0.4477539,1-1s-0.4472656-1-1-1   h-0.3388062c-0.1467896-0.3694458-0.5036621-0.6323242-0.9258423-0.6323242c-0.4545898,0-0.8224487,0.3087769-0.9442139,0.7235718   c-0.9191284,0.2597656-1.5987549,1.097168-1.5987549,2.0982056v0.1508789   C61.7929688,73.8413086,62.7753906,74.8237305,63.9824219,74.8237305z"></path></g></svg>