<svg height='100px' width='100px'  fill="#000000" xmlns="http://www.w3.org/2000/svg" version="1.0" viewBox="0 0 180.000000 280.000000" preserveAspectRatio="xMidYMid meet" x="0px" y="0px"><metadata>
Created by potrace 1.13, written by Peter Selinger 2001-2015
</metadata><g transform="translate(0.000000,280.000000) scale(0.100000,-0.100000)" fill="#000000" stroke="none"><path d="M780 2780 c-40 -13 -67 -32 -98 -66 -40 -44 -47 -47 -96 -50 -29 -1 -66 -9 -83 -17 -42 -22 -87 -77 -107 -129 -17 -43 -19 -45 -59 -45 -55 0 -101 -25 -132 -71 -30 -45 -65 -187 -65 -262 0 -30 -14 -106 -30 -168 l-31 -114 9 -181 c9 -177 9 -183 -13 -227 -68 -137 -90 -360 -64 -639 12 -129 38 -239 75 -320 42 -92 74 -249 74 -362 l0 -99 39 0 c36 0 40 3 51 36 7 19 10 46 7 60 -2 13 2 32 9 41 7 10 14 30 14 45 0 26 1 27 58 24 31 -2 71 -9 87 -16 46 -20 189 -16 261 7 54 18 64 18 100 5 63 -23 211 -28 258 -8 21 9 46 16 55 16 28 -1 -47 -57 -94 -70 -32 -9 -42 -16 -38 -27 4 -11 15 -14 42 -9 30 4 39 2 49 -15 11 -16 21 -20 48 -17 33 4 35 2 45 -36 15 -55 26 -66 64 -66 30 0 33 3 39 37 3 21 6 69 6 107 0 83 4 90 164 250 158 159 212 250 254 428 17 73 36 192 42 263 6 72 18 164 26 205 8 41 19 125 23 185 5 61 14 133 20 160 16 66 7 108 -29 138 -38 32 -86 40 -162 27 -113 -21 -176 -71 -227 -180 l-25 -55 -22 325 c-43 623 -67 751 -150 788 -31 15 -109 16 -134 2 -16 -9 -22 -4 -39 35 -16 36 -29 50 -63 65 -54 24 -88 24 -158 0z m118 -56 c44 -31 46 -43 49 -389 2 -181 4 -350 5 -375 3 -69 -14 -208 -26 -224 -7 -8 -42 -16 -91 -20 -64 -6 -78 -5 -67 5 6 7 12 23 12 36 0 18 -6 23 -24 23 -14 0 -28 5 -32 12 -4 7 -8 196 -9 421 -2 397 -1 410 19 450 34 66 114 96 164 61z m263 -120 c33 -29 50 -108 59 -264 5 -82 11 -154 15 -159 3 -6 10 -103 16 -217 11 -215 8 -238 -31 -232 -9 2 -23 -2 -31 -8 -9 -7 -31 -9 -59 -5 -34 5 -47 12 -57 31 -8 17 -19 24 -33 22 -25 -4 -24 -9 -26 163 -1 77 -5 243 -8 369 -8 248 -5 270 43 307 30 24 81 21 112 -7z m-548 -34 c23 -18 25 -28 32 -132 4 -61 8 -246 8 -409 0 -332 0 -334 -60 -323 -42 8 -87 -10 -101 -41 -7 -15 -17 -22 -25 -19 -32 12 -35 49 -28 285 4 129 4 285 -1 348 -8 126 1 196 33 247 40 65 94 82 142 44z m-252 -186 c17 -20 29 -275 17 -354 -4 -31 -9 -132 -11 -226 -2 -93 -6 -175 -10 -181 -4 -6 -29 -19 -55 -29 -26 -10 -65 -30 -86 -46 -22 -15 -43 -25 -48 -20 -11 11 -27 348 -18 385 5 18 20 59 33 92 17 42 26 88 31 154 8 118 22 165 62 207 34 37 64 43 85 18z m1323 -654 c31 -11 41 -44 31 -106 -5 -38 -9 -44 -23 -39 -9 4 -28 10 -41 13 -22 4 -23 3 -17 -24 10 -39 25 -56 46 -49 27 9 33 -35 16 -118 -25 -122 -56 -351 -56 -413 0 -117 -53 -266 -138 -390 -80 -118 -252 -260 -378 -315 -36 -15 -54 -18 -73 -10 -14 5 -102 12 -194 15 -138 4 -176 2 -210 -11 -27 -10 -78 -16 -142 -17 -86 -1 -106 2 -143 22 -55 29 -115 90 -142 142 -12 23 -34 53 -50 68 -24 22 -36 50 -62 147 -32 118 -33 124 -33 335 0 227 14 328 55 411 25 48 39 58 107 74 32 8 115 43 185 79 70 36 135 66 143 66 12 0 6 -13 -20 -46 -33 -44 -46 -84 -26 -84 15 0 85 51 131 95 47 45 73 59 146 75 51 12 70 6 77 -22 4 -15 11 -19 24 -13 82 32 267 45 313 22 36 -18 47 -47 64 -175 l16 -113 -31 -62 c-49 -97 -65 -113 -142 -151 -125 -60 -228 -134 -333 -240 -55 -55 -121 -115 -147 -133 -56 -38 -104 -103 -113 -150 -12 -61 11 -61 46 0 29 52 60 89 60 72 0 -5 -14 -39 -32 -77 -23 -51 -28 -72 -20 -80 17 -17 32 1 77 89 49 98 106 174 214 286 76 78 188 167 212 167 5 0 -2 -22 -15 -49 -35 -67 -52 -139 -38 -153 17 -17 49 16 56 56 3 17 19 47 35 66 l30 35 -2 -30 c-2 -24 2 -30 18 -30 15 0 31 22 66 95 26 52 59 117 74 144 l27 50 14 -32 c14 -35 38 -41 69 -18 20 14 19 16 -4 109 -29 116 -25 175 18 262 45 89 78 124 141 145 63 22 79 24 114 10z"></path><path d="M970 1431 c-113 -37 -592 -251 -622 -278 -46 -41 -3 -56 67 -24 243 113 537 243 580 256 57 16 88 48 59 59 -20 8 -20 8 -84 -13z"></path><path d="M951 1185 c-52 -36 -99 -65 -104 -65 -21 0 -318 -221 -461 -344 -67 -57 -116 -120 -116 -148 0 -35 31 -17 122 72 51 50 127 112 168 137 41 26 93 63 115 84 22 20 112 87 200 147 208 144 210 145 202 165 -3 10 -12 17 -19 17 -7 0 -55 -29 -107 -65z"></path><path d="M322 188 c-18 -18 -14 -52 9 -82 18 -22 19 -31 10 -57 -6 -17 -8 -35 -5 -40 10 -18 56 -9 90 18 20 14 56 32 82 38 35 9 48 17 50 33 2 15 13 21 47 27 46 6 64 20 48 36 -6 6 -39 5 -86 -3 -83 -13 -174 0 -197 28 -15 17 -32 18 -48 2z"></path></g></svg>