<svg height='100px' width='100px'  fill="#000000" xmlns="http://www.w3.org/2000/svg" xmlns:xlink="http://www.w3.org/1999/xlink" version="1.1" x="0px" y="0px" viewBox="0 0 100 100" enable-background="new 0 0 100 100" xml:space="preserve"><g><g><g><path fill="#000000" d="M51.91,82.054c-0.433,0-0.797-0.126-1.089-0.377l-0.051,0.026c-0.146,0.075-0.323,0.074-0.47-0.008     c-0.096-0.053-0.191-0.102-0.287-0.15c-0.244-0.125-0.498-0.255-0.729-0.437c-0.201-0.155-0.307-0.368-0.391-0.539     c-0.027-0.056-0.055-0.112-0.087-0.163c-0.125-0.199-0.257-0.545,0.024-0.888l-0.553-0.755c-0.081-0.109-0.112-0.247-0.089-0.382     c0.023-0.134,0.101-0.253,0.214-0.328l0.169-0.118c0.095-0.067,0.188-0.133,0.283-0.192c-0.241-0.196-0.442-0.436-0.623-0.673     l-0.18,0.081c-0.123,0.057-0.268,0.058-0.395,0.007c-0.127-0.052-0.227-0.154-0.276-0.282l-0.061-0.161     c-0.026-0.073-0.052-0.146-0.083-0.217c-0.642-0.101-0.751-0.669-0.789-0.868c-0.004-0.019-0.008-0.041-0.013-0.063     c-0.062,0.028-0.131,0.044-0.204,0.044l-0.681,0.002c-0.228,0-0.45-0.002-0.673-0.009c-0.33-0.016-0.544-0.287-0.62-0.445     c-0.126-0.269-0.258-0.334-0.379-0.35c-0.028,0.078-0.051,0.148-0.054,0.201c-0.021,0.354-0.007,0.649,0.044,0.901     c0.06,0.3,0.077,0.625-0.191,0.979c-0.063,0.084-0.115,0.216-0.176,0.368c-0.037,0.092-0.074,0.188-0.118,0.285     c-0.077,0.169-0.24,0.282-0.426,0.293l-0.042,0.003l-0.457,0.99c-0.073,0.158-0.225,0.268-0.397,0.287     c-0.18,0.019-0.345-0.053-0.452-0.19c-0.076-0.1-0.145-0.192-0.207-0.28c-0.113-0.155-0.202-0.279-0.296-0.363     c-0.085-0.078-0.21-0.148-0.354-0.23c-0.082-0.046-0.167-0.094-0.253-0.146c-0.229-0.142-0.305-0.439-0.172-0.674l0.193-0.34     c0.142-0.251,0.281-0.498,0.427-0.742c0.128-0.217,0.151-0.512,0.062-0.789c-0.086-0.265-0.258-0.471-0.473-0.563l-0.439-0.191     c-0.165-0.07-0.279-0.225-0.3-0.402c-0.02-0.179,0.057-0.354,0.201-0.46c0.062-0.09,0.006-0.228-0.03-0.319l-0.004-0.008     c-0.362-0.021-0.664-0.152-0.88-0.469l0,0c-0.007,0-0.057-0.03-0.091-0.051c-0.115-0.07-0.274-0.166-0.392-0.333     c-0.118-0.167-0.209-0.354-0.296-0.544c-0.05-0.107-0.1-0.215-0.159-0.315c-0.083-0.14-0.127-0.174-0.132-0.177     c-0.574-0.226-1.399-0.662-1.673-1.703c-0.016-0.059-0.059-0.158-0.179-0.312l-0.125-0.02l-0.34,0.009     c-0.162,0-0.313-0.078-0.407-0.211c-0.095-0.132-0.118-0.301-0.064-0.454c0-0.055-0.091-0.12-0.15-0.164l-0.101-0.075     c-0.406-0.312-0.518-0.726-0.322-1.191c0.152-0.363,0.006-0.659-0.267-1.15l-0.039-0.071c-0.104-0.003-0.21-0.011-0.315-0.02     c-0.3-0.023-0.579-0.03-0.756,0.078c-0.252,0.153-0.524,0.224-0.729,0.188c-0.084-0.006-0.136-0.006-0.231,0.154     c-0.24,0.406-0.606,0.592-0.9,0.741c-0.085,0.043-0.17,0.085-0.251,0.135c-0.078,0.048-0.253,0.092-0.345,0.092     c-0.09,0-0.182-0.016-0.267-0.044c-0.861-0.283-1.634-0.625-2.355-1.045c-0.051-0.029-0.228-0.042-0.294-0.047L27.8,66.413     c-0.203-0.004-0.566-0.01-0.848-0.335l-0.008,0.052c-0.276,0.001-0.624,0.268-0.655,0.402c-0.078,0.354-0.139,0.712-0.2,1.07     l-0.106,0.605c-0.025,0.165-0.063,0.415-0.287,0.571l-0.15,0.107c-0.808,0.575-1.642,1.171-2.823,1.21     c-0.559,0.019-0.91,0.202-1.139,0.597c-0.287,0.491-0.852,0.798-1.275,0.97c-0.382,0.152-0.364,0.244-0.328,0.443     c0.024,0.136,0.02,0.258,0.015,0.355c-0.003,1.16-0.241,1.495-1.255,1.732c-0.12,0.323-0.359,0.529-0.728,0.629     c-0.537,0.144-1.068,0.306-1.598,0.469c-0.169,0.189-0.282,0.318-0.386,0.455c-0.488,0.651-1.088,0.829-1.745,0.529     c-0.01,0.004-0.021,0.008-0.031,0.012c-0.064,0.021-0.129,0.043-0.188,0.057c-0.158,0.062-0.361,0.124-0.541,0.08     c-0.145-0.032-0.287-0.079-0.43-0.127c-0.135-0.045-0.269-0.093-0.407-0.114c-0.089-0.014-0.178-0.017-0.269-0.017l-0.256,0.006     c-0.251,0.007-0.547,0.015-0.705-0.186c-0.409,0.261-0.98,0.193-1.318,0.084c-0.262-0.085-0.53-0.152-0.817-0.226l-0.423-0.108     c-0.219-0.059-0.371-0.257-0.371-0.483v-0.199H8.339c-0.276,0-0.5-0.224-0.5-0.5l0.001-0.156c0-0.021,0.001-0.04,0.001-0.06     c-0.133,0.06-0.288,0.092-0.443,0.092c-0.397,0-0.706-0.213-0.93-0.397c-0.196-0.163-0.478-0.279-0.774-0.402     c-0.152-0.063-0.308-0.128-0.461-0.201c-0.136-0.064-0.234-0.188-0.271-0.333c-0.035-0.146-0.003-0.301,0.088-0.421l0.258-0.336     c0.249-0.325,0.51-0.665,0.76-1.014c0.03-0.043,0.057-0.122,0.061-0.185c0.01-0.151,0.006-0.304,0.003-0.457     c-0.004-0.207-0.007-0.414,0.012-0.619c0.018-0.199,0.057-0.396,0.096-0.593c0.03-0.148,0.062-0.297,0.077-0.445     c0.02-0.188,0.026-0.379,0.034-0.569c0.009-0.224,0.019-0.446,0.043-0.668c0.033-0.293,0.13-0.574,0.271-0.794     c0.252-0.389,0.523-0.758,0.806-1.099c-0.102-0.18-0.094-0.412,0.042-0.575c0.179-0.216,0.396-0.348,0.589-0.463     c0.279-0.17,0.358-0.234,0.379-0.366c0.019-0.119,0.045-0.236,0.072-0.354c0.091-0.398,0.112-0.566-0.022-0.75     c-0.081-0.111-0.113-0.251-0.088-0.387c0.024-0.136,0.105-0.256,0.222-0.33l0.391-0.251c0.06-0.037,0.083-0.065,0.087-0.073     c0,0.001-0.001,0.001-0.001,0.001c-0.006,0-0.021-0.043-0.07-0.107c-0.435-0.586-0.44-1.106-0.019-1.689     c0.064-0.092,0.212-0.302,0.497-0.302c0.201,0.014,0.331-0.09,0.545-0.254c0.184-0.14,0.392-0.298,0.662-0.391     c0.762-0.258,1.248-0.11,1.661,0.408c0.259,0.323,0.533,0.478,0.917,0.515c0.311,0.031,0.526,0.23,0.7,0.391     c0.041,0.038,0.082,0.076,0.122,0.108c0.044,0.034,0.086,0.07,0.128,0.107c0.419-0.144,0.701,0.033,0.886,0.14     c0.137,0.066,0.273,0.089,0.433,0.114c0.347,0.057,0.821,0.134,1.216,0.593c0.108,0.126,0.461,0.209,0.744,0.275     c0.165,0.039,0.33,0.078,0.481,0.126c0.079,0.025,0.159,0.046,0.241,0.065c0.104-0.546,0.533-0.896,0.896-1.152     c-0.109-0.768,0.438-1.39,1.099-1.956l-0.33-0.803c-0.233-0.58-0.188-1.156,0.128-1.666c0.204-0.327,0.184-0.434,0.142-0.521     c-0.009-0.018-0.053-0.06-0.09-0.078c-0.062-0.03-0.151-0.053-0.247-0.076c-0.229-0.056-0.559-0.137-0.812-0.423     c-0.146-0.091-0.247-0.248-0.247-0.423c0.003-0.007-0.081-0.042-0.137-0.064c-0.088-0.037-0.176-0.074-0.255-0.12     c-0.232-0.134-0.284-0.368-0.31-0.48l-0.196-0.839c-0.047-0.054-0.081-0.116-0.097-0.185c-0.036-0.16-0.021-0.326,0.068-0.445     l-0.035-0.134c-0.041-0.153-0.006-0.318,0.095-0.442c0.1-0.123,0.249-0.21,0.412-0.185l0.315-0.005     c0.351-0.016,0.739-0.049,1.178,0.234c0.036,0.001,0.067,0.003,0.096,0.004c-0.016-0.055-0.021-0.112-0.018-0.171     c0.013-0.175,0.116-0.331,0.273-0.41c1.072-0.543,2.042-0.596,2.959-0.168c0.226,0.105,0.418,0.34,0.479,0.585     c0.015,0.042,0.036,0.062,0.129,0.087c0.3,0.087,0.57,0.229,0.747,0.329c0.135,0.079,0.299,0.045,0.459-0.074     c0.228-0.169,0.493-0.21,0.707-0.243l0.109-0.018c0.213-0.038,0.326-0.104,0.435-0.254c0.315-0.435,0.78-0.686,1.422-0.771     c0.406-0.053,0.812-0.167,1.239-0.288c0.122-0.035,0.244-0.069,0.366-0.103c0.032-0.031,0.068-0.058,0.109-0.077     c0.094-0.044,0.17-0.068,0.294-0.069c0.012-0.101,0.011-0.219,0.008-0.361c-0.004-0.17-0.005-0.333,0.017-0.482     c0.019-0.125,0.083-0.238,0.182-0.316l0.198-0.157c0.104-0.081,0.193-0.15,0.276-0.227c0.395-0.369,0.864-0.805,1.604-0.661     c0,0,0.07,0.005,0.095,0.006c0-0.013,0.028-0.068,0.053-0.199c0.026-0.137,0.109-0.257,0.229-0.331     c0.12-0.074,0.264-0.093,0.398-0.055l0.884,0.25l0.236-0.53c0.056-0.125,0.159-0.221,0.287-0.268     c0.126-0.047,0.27-0.038,0.392,0.022l0.291,0.138c0.223,0.104,0.422,0.198,0.605,0.316c0.118,0.077,0.216,0.005,0.254-0.189     c0.009-0.047-0.004-0.146-0.016-0.235c-0.017,0.001-0.032,0.003-0.048,0.004c-0.178,0.018-0.354-0.059-0.458-0.204     s-0.124-0.335-0.051-0.499l0.054-0.125c0.05-0.117,0.094-0.217,0.151-0.308c0.211-0.333,0.215-0.681,0.014-1.033     c-0.288-0.503-0.279-0.979-0.271-1.438c0.005-0.253,0.198-0.503,0.449-0.53l0.001-0.025c0.005-0.269,0.011-0.547,0.069-0.833     c0.073-0.351,0.172-0.748,0.428-1.053c0.29-0.349,0.747-0.526,0.993-0.601c0.194-0.059,0.428-0.062,0.681-0.046     c0.064,0.004,0.13,0.008,0.194,0.008l0.135-0.002c0.186-0.001,0.193-0.009,0.236-0.049c0.229-0.219,0.544-0.219,0.663-0.219     l0.363,0.011c0.276,0,0.593,0.221,0.593,0.498v0.931c0,0.214-0.136,0.404-0.338,0.473l-0.011,0.003     c0.055,0.254,0.091,0.542,0.077,0.853c0.07,0.023,0.136,0.051,0.196,0.079c0.068,0.031,0.093,0.036,0.095,0.036     c0.229-0.292,0.568-0.292,0.696-0.292c0.071,0,0.147,0.003,0.225,0.007l0.102,0.003c0.052-0.169,0.122-0.349,0.223-0.515     c0.039-0.063,0.039-0.094,0.039-0.095c-0.818-0.548-0.842-1.319-0.79-1.853c0.064-0.657,0.112-1.315,0.15-1.974l-0.279,0.176     c-0.22,0.137-0.504,0.086-0.663-0.118l-0.151-0.197c-0.102,0.066-0.128,0.115-0.141,0.189c-0.094,0.581-0.578,0.694-0.761,0.736     c-0.789,0.185-1.668,0.307-2.367-0.018c-0.529-0.247-0.934-0.618-1.179-0.885c-0.168-0.182-0.246-0.449-0.226-0.772     c0.016-0.252,0.097-0.571,0.243-0.842l-0.348-0.469c-0.146-0.197-0.128-0.47,0.042-0.646l0.222-0.225     c0.167-0.167,0.329-0.329,0.476-0.503l0,0c-0.005,0,0.012-0.059,0.022-0.098l0.196-0.585l-0.016-0.031     c-0.117-0.229-0.265-0.515-0.353-0.836c-0.083-0.298,0.001-0.643,0.229-0.944c0.062-0.081,0.129-0.153,0.201-0.215     c-0.056-0.171-0.016-0.361,0.11-0.496c0.577-0.619,1.15-1,1.806-1.197c0.343-0.104,0.398-0.153,0.407-0.6l0.018-0.285     c0.01-0.139,0.076-0.267,0.185-0.355c0.107-0.087,0.248-0.126,0.385-0.106l0.971,0.14c0.069,0.01,0.141,0.028,0.21,0.046     c0.039,0.01,0.097,0.025,0.116,0.026c0.153-0.016,0.308-0.034,0.463-0.055c-0.029-0.084-0.036-0.176-0.017-0.268     c0.158-0.733,0.504-1.242,1.058-1.555c0.315-0.178,0.624-0.367,0.934-0.555l0.288-0.175c0.062-0.038,0.123-0.082,0.182-0.127     l0.317-0.251c0.222-0.178,0.443-0.355,0.676-0.518c0.126-0.088,0.151-0.134,0.153-0.138c-0.001,0,0.001-0.042-0.046-0.148     c-0.213-0.496-0.028-0.846,0.165-1.052c0.324-0.348,0.646-0.7,0.962-1.058c0.151-0.663,0.438-1.114,0.923-1.423     c0.353-0.224,0.57-0.38,0.622-0.655c0.047-0.259,0.24-0.415,0.403-0.522c0.314-0.209,0.635-0.416,0.954-0.623l1.239-0.806     c0.188-0.12,0.433-0.104,0.6,0.04c0.119,0.101,0.168,0.142,0.215,0.187c0.055,0.052,0.173,0.163,0.219,0.178     c0.134-0.088,0.262-0.134,0.381-0.159c0.014-0.103,0.06-0.201,0.133-0.279c0.067-0.094,0.172-0.162,0.284-0.191     c0.375-0.092,0.622-0.354,0.949-0.804c0.265-0.365,0.568-0.703,0.99-0.703c0.203,0,0.374,0.076,0.522,0.195     c0.08-0.065,0.178-0.121,0.296-0.153c0.127-0.157,0.335-0.287,0.68-0.287l0.143,0.002c0.098-0.006,0.157-0.009,0.215-0.009     c0.445,0,0.727,0.185,0.902,0.396c0.071-0.015,0.169-0.024,0.269-0.024c0.467,0,0.896,0.202,1.121,0.527     c0.18,0.259,0.103,0.574,0.061,0.698c-0.05,0.146-0.103,0.289-0.157,0.432l0.058,0.03c0.172-0.119,0.365-0.25,0.586-0.345     c0.227-0.099,0.453-0.145,0.693-0.194c0.097-0.02,0.197-0.041,0.305-0.066c0.171-0.043,0.35,0.009,0.473,0.134     s0.172,0.305,0.129,0.475l-0.071,0.284c-0.039,0.158-0.075,0.301-0.113,0.442c0.297-0.022,0.52,0.062,0.696,0.127l0.134,0.047     c0.179,0.049,0.31,0.084,0.441,0.162c0.333,0.198,0.651,0.198,1.05,0.012c0.155-0.072,0.299-0.106,0.44-0.106     c0.218,0,0.525,0.083,0.757,0.481c0.197,0.341,0.548,0.528,0.953,0.744c0.211,0.112,0.42,0.225,0.614,0.358     c0.195,0.134,0.403,0.25,0.619,0.371l0.323,0.184c0.195,0.114,0.289,0.344,0.23,0.562l-0.057,0.215     c0.084-0.035,0.173-0.057,0.259-0.064s0.173-0.011,0.26-0.013l-1.273-2.556c-0.063-0.128-0.07-0.276-0.017-0.409     c0.053-0.132,0.159-0.236,0.294-0.285l0.273-0.1c0.299-0.11,0.583-0.214,0.871-0.304c0.346-0.106,0.698,0.216,0.747,0.274     l0.215,0.256c0.283,0.336,0.576,0.684,0.828,1.067c0.121,0.182,0.145,0.379,0.146,0.566c0.558-0.053,0.716-0.268,0.807-0.494     c0.089-0.22,0.227-0.394,0.348-0.547c0.38-0.482,0.506-0.869,0.445-1.3c-0.038-0.273,0.086-0.602,0.297-0.781     c0.461-0.39,0.928-0.769,1.402-1.154l0.447-0.363c0.18-0.146,0.431-0.148,0.608-0.017l1.046-1.534     c0.017-0.025,0.035-0.047,0.055-0.068L73.1,15.945c-0.17-0.111-0.256-0.314-0.218-0.513c0.038-0.2,0.193-0.356,0.393-0.396     l3.247-0.653c0.006-0.002,0.116-0.047,0.122-0.05c0.142-0.051,0.372-0.036,0.501,0.042c0.004,0.002,0.027,0.018,0.05,0.034     c0.795,0.162,1.279,0.711,1.707,1.198c0.471,0.533,0.936,1.022,1.4,1.51l0.277,0.292c0.367,0.384,0.438,0.789,0.209,1.203     c-0.273,0.497-0.34,1.018-0.2,1.592c0.174,0.72,0.105,1.498-0.202,2.311c-0.335,0.883-0.243,1.705,0.296,2.667     c0.268,0.476,0.488,0.975,0.702,1.458c0.13,0.292,0.259,0.585,0.398,0.873c0.005,0.004,0.05,0.043,0.104,0.067     c0.342,0.149,0.695,0.274,1.051,0.392c0.653,0.216,0.612,0.755,0.584,0.915c-0.087,0.495,0.066,0.934,0.527,1.517     c0.012,0.014,0.066,0.095,0.076,0.109c0.669,0.777,0.964,1.618,0.887,2.516c0.102,0.005,0.205,0.015,0.316,0.026l0.232,0.021     c0.261,0.02,0.463,0.237,0.463,0.499v2.786c0.336-0.025,0.668,0.041,0.944,0.101c0.12,0.026,0.24,0.052,0.36,0.068     c0.396,0.054,0.688,0.262,0.866,0.618c0.093,0.185,0.189,0.367,0.291,0.56l0.149,0.283c0.113,0.217,0.053,0.484-0.143,0.632     l-0.65,0.488c0.063-0.002,0.147-0.006,0.222-0.016c0.692-0.096,1.105,0.188,1.346,0.821c0.122,0.325,0.272,0.638,0.423,0.951     c0.146,0.302,0.29,0.605,0.413,0.916c0.036,0.091,0.061,0.116,0.062,0.117c0.019-0.003,0.115-0.026,0.168-0.036     c0.688-0.414,1.372-0.243,1.896,0.492l0,0c0.001,0,0.136,0.024,0.137,0.024l0,0c0.44-0.089,0.918-0.158,1.419-0.204     c0.004,0,0.008,0,0.013,0c0.333,0,0.62,0.13,0.787,0.323c0.184,0.212,0.351,0.44,0.527,0.683l0.205,0.28     c0.165,0.222,0.12,0.535-0.102,0.7l-1.859,1.388c-0.112,0.083-0.254,0.116-0.393,0.09c-0.084-0.016-0.162-0.053-0.226-0.107     l-1.139,0.487c-0.134,0.059-0.27,0.088-0.401,0.088c-0.193,0-0.475-0.063-0.716-0.367c-0.047-0.059-0.072-0.071-0.072-0.071     c-0.006,0.002-0.053,0.006-0.159,0.052c-0.321,0.139-0.463,0.292-0.604,0.655c-0.176,0.45-0.562,0.768-0.902,1.048     c-0.087,0.071-0.174,0.143-0.254,0.214c-0.157,0.141-0.34,0.194-0.473,0.232c-0.039,0.011-0.099,0.029-0.117,0.039     c-0.749,0.468-1.553,0.454-2.481-0.089c-0.203-0.118-0.419-0.216-0.635-0.311c-0.227,0.443-0.666,0.621-1.016,0.718     c-0.112,0.032-0.287,0.21-0.427,0.354c-0.068,0.069-0.136,0.138-0.203,0.201c-0.202,0.191-0.454,0.429-0.841,0.455     c-0.049,0.124-0.099,0.246-0.147,0.369c-0.201,0.495-0.391,0.963-0.494,1.443c-0.108,0.505-0.144,1.029-0.181,1.586     c-0.013,0.194-0.026,0.39-0.042,0.583c0.195,0.303,0.392,0.604,0.593,0.91l0.081-0.096c0.117-0.141,0.301-0.205,0.481-0.169     c0.18,0.036,0.325,0.168,0.379,0.343l0.13,0.411c0.106,0.338,0.21,0.665,0.3,0.995c0.035,0.13,0.073,0.17,0.16,0.215     c0.259,0.133,0.511,0.276,0.763,0.42c0.221,0.127,0.441,0.253,0.667,0.371c0.386,0.203,0.539,0.519,0.469,0.965     c-0.143,0.889-0.447,1.564-0.961,2.129c-0.364,0.4-0.656,0.907-0.945,1.642c-0.253,0.644-1.179,0.974-1.725,0.814     c-0.327-0.098-0.655-0.201-0.982-0.305c-0.689-0.217-1.401-0.442-2.104-0.598c-0.943-0.208-1.921-0.366-2.867-0.52     c-0.407-0.066-0.814-0.133-1.221-0.202l-0.276-0.041c-0.204-0.027-0.406-0.057-0.604-0.108c-0.425-0.112-0.921-0.012-1.441,0.114     c-0.203,0.049-0.406,0.098-0.611,0.133c-0.64,0.111-1.274,0.256-1.904,0.409c-0.073,0.019-0.175,0.079-0.265,0.159     c-0.102,0.091-0.207,0.181-0.312,0.27c-0.218,0.185-0.42,0.354-0.573,0.532l0.854,0.197c0.243,0.056,0.408,0.283,0.386,0.532     c-0.083,0.92-0.619,1.448-1.116,1.871c-0.208,0.178-0.411,0.362-0.614,0.546c-0.244,0.222-0.488,0.443-0.741,0.654     c-0.223,0.187-0.59,0.302-0.851,0.268c-0.333-0.049-0.66-0.124-0.998-0.203l-0.382-0.087c-0.229-0.051-0.393-0.254-0.393-0.488     c0-0.095-0.005-0.19-0.009-0.284c-0.012-0.263-0.023-0.534,0.038-0.817c0.006-0.029,0.014-0.059,0.022-0.087     c-0.078-0.023-0.16-0.054-0.245-0.092c-0.163-0.072-0.336-0.116-0.513-0.163l-0.277-0.077c-0.235-0.07-0.385-0.301-0.354-0.545     l0.032-0.246c-0.344,0.148-0.679,0.294-1.01,0.444c-0.002,0.007-0.004,0.014-0.006,0.021c-0.049,0.161-0.079,0.278-0.084,0.381     c-0.029,0.517-0.318,0.868-0.792,0.969c-0.013,0.015-0.039,0.122-0.057,0.193c-0.041,0.159-0.056,0.236-0.07,0.313     c-0.033,0.17-0.07,0.362-0.151,0.553c-0.1,0.236-0.337,0.517-0.644,0.614c0.01,0.12,0.008,0.218,0.004,0.315     c-0.002,0.056-0.006,0.111,0,0.167c0.062,0.679-0.057,1.354-0.363,2.066c-0.032,0.076-0.039,0.125-0.039,0.146     c0.003-0.015,0.062,0.003,0.162,0.005c0.065,0.001,0.127,0.006,0.211,0.014l0.121,0.012c0.199,0.017,0.369,0.149,0.433,0.338     c0.063,0.189,0.009,0.398-0.14,0.532c-0.114,0.103-0.228,0.198-0.338,0.291c-0.22,0.185-0.409,0.344-0.553,0.521     c-0.396,0.49-0.919,0.682-1.589,0.603c-0.41-0.049-0.72,0.048-0.985,0.335c-0.059,0.062-0.119,0.128-0.131,0.152     c0.025,0.166-0.02,0.35-0.132,0.553c-0.194,0.354-0.392,0.712-0.609,1.057c-0.152,0.242-0.428,0.338-0.579,0.374     c-0.261,0.063-0.528,0.108-0.795,0.15c-0.331,0.052-0.661,0.1-1.009,0.15l-0.042,0.006v0.605c0,0.276-0.224,0.5-0.5,0.5     c-0.104,0-0.205-0.005-0.304-0.009c-0.159-0.008-0.316-0.011-0.413,0.007c0.233,0.338,0.3,0.755,0.201,1.25     c0.611,0.259,0.852,0.83,0.981,1.271c0.074,0.252,0.182,0.494,0.287,0.735l0.152,0.357c0.09,0.219,0.013,0.471-0.183,0.603     c-0.235,0.159-0.485,0.311-0.752,0.401c-0.006,0.119-0.055,0.235-0.145,0.326c-0.22,0.221-0.507,0.467-0.872,0.561     c0.02,0.159,0.014,0.31,0.008,0.445l-0.005,0.18c0,0.24-0.171,0.446-0.406,0.491C52.302,82.029,52.102,82.054,51.91,82.054z      M50.935,80.558c0.16,0,0.316,0.077,0.412,0.217c0.14,0.205,0.298,0.273,0.578,0.279c-0.001-0.03-0.004-0.058-0.008-0.083     c-0.015-0.077-0.057-0.178-0.101-0.283l-0.076-0.189c-0.068-0.186-0.021-0.394,0.12-0.532c0.141-0.139,0.352-0.181,0.534-0.105     c0.042,0.017,0.079,0.028,0.112,0.037c-0.157-0.157-0.295-0.376-0.331-0.697c-0.024-0.22,0.098-0.429,0.301-0.516     c0.201-0.088,0.438-0.03,0.581,0.141c0.206,0.247,0.335,0.247,0.384,0.247c0.096,0,0.21-0.041,0.33-0.102     c-0.114-0.261-0.225-0.524-0.306-0.797c-0.156-0.531-0.335-0.65-0.61-0.685c-0.138-0.017-0.295-0.124-0.376-0.235     c-0.099-0.135-0.165-0.363-0.107-0.52c0.238-0.649,0.113-0.845-0.258-1.036c-0.167-0.087-0.271-0.26-0.271-0.448     c0.002-0.188,0.108-0.36,0.277-0.444c0.094-0.046,0.179-0.094,0.258-0.138c0.204-0.112,0.396-0.219,0.632-0.272     c0.134-0.028,0.279-0.054,0.448-0.04v-0.522c0-0.248,0.182-0.459,0.427-0.495l0.472-0.068c0.344-0.05,0.67-0.097,0.997-0.148     c0.24-0.038,0.48-0.077,0.717-0.135c0.004-0.001,0.007-0.001,0.008-0.001c0.19-0.307,0.365-0.623,0.538-0.939     c-0.035-0.43,0.222-0.706,0.392-0.889c0.498-0.535,1.108-0.75,1.851-0.661c0.303,0.036,0.514-0.017,0.693-0.239     c0.087-0.107,0.18-0.205,0.276-0.298c-0.096-0.068-0.178-0.153-0.242-0.252c-0.111-0.171-0.264-0.538-0.032-1.074     c0.238-0.555,0.332-1.071,0.285-1.578c-0.009-0.098-0.007-0.197-0.003-0.297c0.002-0.06,0.007-0.119-0.001-0.178     c-0.071-0.526,0.177-0.9,0.696-1.055c0.063-0.145,0.087-0.27,0.112-0.402c0.02-0.099,0.039-0.197,0.064-0.294     c0.082-0.331,0.216-0.873,0.84-1.002c0.009-0.255,0.062-0.457,0.119-0.644c0.052-0.179,0.136-0.465,0.417-0.596     c0.497-0.229,0.999-0.444,1.526-0.671l0.444-0.191c0.163-0.071,0.354-0.05,0.499,0.06c0.144,0.107,0.218,0.284,0.195,0.463     l-0.089,0.688c0.173,0.048,0.341,0.101,0.501,0.172c0.119,0.053,0.18,0.062,0.202,0.062c0.003-0.006,0.022-0.028,0.047-0.076     c0.075-0.147,0.271-0.261,0.436-0.28l0.101-0.015c0.187-0.034,0.367,0.042,0.48,0.189c0.112,0.147,0.134,0.345,0.057,0.513     l-0.061,0.137c-0.048,0.11-0.088,0.199-0.138,0.28c-0.052,0.086-0.114,0.171-0.177,0.255c-0.061,0.081-0.143,0.19-0.152,0.238     c-0.03,0.14-0.027,0.309-0.02,0.489l0.014,0.003c0.31,0.072,0.609,0.143,0.913,0.187c-0.006-0.004,0.045-0.025,0.068-0.045     c0.242-0.202,0.476-0.415,0.71-0.627c0.21-0.191,0.421-0.383,0.638-0.567c0.318-0.271,0.541-0.502,0.664-0.78l-1.002-0.23     c-0.132-0.03-0.245-0.113-0.315-0.229c-0.07-0.116-0.09-0.255-0.056-0.386c0.179-0.679,0.7-1.12,1.16-1.51     c0.099-0.082,0.196-0.165,0.292-0.251c0.153-0.137,0.396-0.312,0.695-0.386c0.533-0.13,1.238-0.295,1.969-0.422     c0.184-0.032,0.367-0.077,0.55-0.121c0.609-0.146,1.304-0.272,1.929-0.108c0.157,0.041,0.32,0.062,0.484,0.084     c0.104,0.015,0.208,0.028,0.311,0.046c0.404,0.07,0.809,0.136,1.213,0.201c0.959,0.155,1.951,0.316,2.921,0.53     c0.747,0.165,1.481,0.396,2.19,0.621c0.322,0.102,0.644,0.203,0.967,0.299c0.244,0.03,0.466-0.142,0.511-0.226     c0.225-0.57,0.558-1.31,1.134-1.944c0.369-0.405,0.594-0.904,0.706-1.567c-0.225-0.121-0.431-0.238-0.636-0.355     c-0.24-0.137-0.48-0.273-0.726-0.4c-0.348-0.179-0.56-0.446-0.667-0.842c-0.047-0.171-0.097-0.342-0.149-0.513     c-0.095,0.072-0.212,0.115-0.335,0.103c-0.158-0.009-0.302-0.093-0.389-0.225l-0.205-0.312c-0.269-0.409-0.527-0.804-0.783-1.2     c-0.075-0.116-0.161-0.3-0.142-0.512c0.02-0.214,0.034-0.431,0.049-0.647c0.037-0.566,0.077-1.152,0.2-1.729     c0.122-0.564,0.337-1.094,0.544-1.607c0.067-0.166,0.135-0.332,0.198-0.498c0.091-0.241,0.384-0.503,0.697-0.503l0.111,0.009     c0.028,0,0.123-0.089,0.186-0.148c0.098-0.091,0.154-0.149,0.211-0.208c0.235-0.241,0.503-0.514,0.874-0.618     c0.396-0.11,0.421-0.209,0.436-0.404c0.011-0.141,0.112-0.304,0.224-0.391c0.149-0.116,0.385-0.167,0.553-0.087l0.353,0.158     c0.291,0.127,0.583,0.256,0.858,0.416c0.604,0.353,1.002,0.384,1.451,0.103c0.13-0.081,0.26-0.118,0.364-0.149     c0.038-0.011,0.077-0.019,0.11-0.036c0.066-0.063,0.162-0.143,0.26-0.223c0.259-0.213,0.525-0.433,0.606-0.64     c0.239-0.613,0.569-0.963,1.141-1.209c0.596-0.256,1.049-0.136,1.408,0.314l1.453-0.663c0.138-0.06,0.291-0.051,0.418,0.012     l1.086-0.811c-0.129-0.177-0.255-0.346-0.393-0.504c-0.416,0.062-0.858,0.125-1.265,0.208c-0.499,0.102-0.881-0.052-1.146-0.422     c-0.079-0.111-0.23-0.295-0.355-0.295c-0.063,0-0.152,0.036-0.251,0.102c-0.156,0.104-0.319,0.11-0.407,0.114     c-0.106,0.016-0.188,0.023-0.263,0.023c-0.309,0-0.727-0.126-0.967-0.73c-0.114-0.29-0.25-0.571-0.385-0.852     c-0.163-0.34-0.325-0.68-0.457-1.031c-0.103-0.27-0.156-0.2-0.275-0.183c-0.653,0.089-1.24-0.081-1.679-0.524     c-0.101-0.103-0.153-0.244-0.143-0.388s0.083-0.276,0.199-0.363l0.975-0.732c-0.087-0.164-0.169-0.322-0.249-0.481     c-0.032-0.062-0.038-0.067-0.107-0.076c-0.146-0.02-0.291-0.051-0.438-0.082c-0.38-0.082-0.708-0.132-0.999,0.022     c-0.155,0.082-0.343,0.078-0.492-0.014c-0.15-0.09-0.242-0.253-0.242-0.428v-2.987c-0.05-0.003-0.099-0.006-0.147-0.006     l-0.107,0.002c-0.268,0-0.477-0.086-0.621-0.255c-0.1-0.117-0.206-0.325-0.154-0.654c0.111-0.696-0.089-1.328-0.613-1.932     c-0.017-0.019-0.087-0.118-0.101-0.14c-0.421-0.536-0.865-1.239-0.767-2.163c-0.36-0.122-0.699-0.245-1.026-0.389     c-0.268-0.117-0.493-0.321-0.603-0.546c-0.146-0.298-0.28-0.603-0.415-0.906c-0.213-0.482-0.414-0.938-0.658-1.373     c-0.688-1.226-0.803-2.341-0.36-3.51c0.238-0.631,0.293-1.194,0.165-1.722c-0.195-0.809-0.099-1.58,0.286-2.29     c-0.01-0.011-0.025-0.028-0.046-0.05l-0.278-0.292c-0.474-0.498-0.947-0.996-1.401-1.511c-0.405-0.459-0.733-0.833-1.229-0.915     c-0.051-0.009-0.097-0.023-0.138-0.04c-0.031,0.01-0.06,0.018-0.089,0.023l-2.062,0.415c0.47,0.367,0.521,0.76,0.194,1.355     c-0.066,0.12-0.179,0.208-0.311,0.243c-0.132,0.035-0.273,0.015-0.391-0.058l-0.356-0.22l-1.137,1.669     c-0.088,0.129-0.23,0.209-0.387,0.218c-0.155,0.014-0.307-0.057-0.407-0.176l-0.029-0.034l-0.068,0.056     c-0.45,0.365-0.894,0.725-1.329,1.092c0.075,0.677-0.129,1.312-0.623,1.938c-0.121,0.154-0.207,0.262-0.242,0.349     c-0.274,0.68-0.838,1.057-1.673,1.12c-0.013,0.001-0.1,0.004-0.112,0.004c-0.141,0-0.28-0.02-0.398-0.039l-0.101-0.014     c-0.243-0.024-0.433-0.221-0.449-0.465c-0.008-0.121-0.006-0.237-0.003-0.345c0.002-0.074,0.005-0.174-0.002-0.207     c-0.197-0.284-0.459-0.595-0.735-0.924l-0.123-0.147c-0.116,0.04-0.233,0.081-0.352,0.124l1.386,2.781     c0.077,0.155,0.069,0.339-0.022,0.486c-0.091,0.147-0.252,0.237-0.425,0.237l-0.596-0.005c-0.117,0-0.231,0.002-0.344,0.009     c-0.105,0.196-0.202,0.396-0.299,0.597c-0.079,0.164-0.158,0.327-0.241,0.488c0.29,0.402,0.557,0.791,0.824,1.183l0.329,0.478     c0.087,0.125,0.111,0.283,0.067,0.428c-0.043,0.146-0.15,0.263-0.291,0.32c-0.149,0.06-0.295,0.09-0.433,0.09     c-0.444,0-0.696-0.293-0.851-0.483c-0.479,0.203-0.973,0.181-1.451-0.061c-0.167-0.084-0.352-0.152-0.548-0.219     c0.012,0.094,0.074,0.201,0.274,0.369c0.251,0.211,0.492,0.435,0.732,0.658l0.303,0.28c0.114,0.104,0.174,0.255,0.161,0.409     l-0.008,0.104c-0.02,0.254-0.228,0.46-0.482,0.469c-0.042,0.001-0.088,0.01-0.134,0.017c-0.284,0.042-0.535,0.029-0.721-0.092     c-0.458-0.298-0.96-0.411-1.529-0.354c-0.133,0.014-0.266,0.011-0.398,0.001c-0.205-0.012-0.502-0.055-0.701-0.295     c-0.197-0.239-0.186-0.534-0.16-0.736l0.052-0.373c0.036-0.253,0.073-0.505,0.092-0.759c-0.382-0.26-0.802-0.596-1.243-0.891     c-0.506-0.339-0.597-0.816-0.642-1.236c-0.021-0.198,0.077-0.391,0.251-0.489c0.172-0.098,0.389-0.084,0.548,0.037l0.232,0.167     c0.186,0.131,0.355,0.254,0.501,0.4c0.429,0.428,0.921,0.601,1.755,0.618l0.111,0.001c0.873,0,1.464-0.209,1.976-0.7     c0.036-0.035,0.075-0.068,0.116-0.102c0.159-0.404,0.271-0.832,0.385-1.258l0.025-0.097c-0.235-0.132-0.46-0.26-0.673-0.406     c-0.164-0.112-0.342-0.206-0.52-0.3c-0.459-0.244-0.977-0.52-1.317-1.073c-0.705,0.314-1.34,0.268-1.923-0.08     c-0.016-0.008-0.077-0.025-0.118-0.036c-0.006-0.001-0.101-0.029-0.106-0.03c-0.065-0.02-0.128-0.043-0.19-0.066     c-0.112-0.042-0.185-0.068-0.247-0.068c-0.031,0.006-0.206,0.023-0.238,0.023c-0.274,0-0.525-0.123-0.688-0.337     c-0.176-0.23-0.234-0.539-0.162-0.852c-0.01,0.004-0.02,0.008-0.028,0.012c-0.162,0.069-0.308,0.174-0.45,0.274     c-0.078,0.054-0.154,0.107-0.231,0.156c-0.152,0.098-0.345,0.105-0.502,0.021l-0.717-0.376c-0.223-0.118-0.323-0.383-0.234-0.619     l0.093-0.241c0.057-0.148,0.113-0.294,0.166-0.442c-0.085-0.03-0.228-0.043-0.318-0.015c-0.049,0.015-0.176,0.033-0.227,0.033     c-0.111,0-0.488-0.024-0.651-0.337c-0.034-0.067-0.044-0.085-0.164-0.085c-0.015,0.001-0.2,0.009-0.215,0.009l-0.08-0.001     c-0.097,0.149-0.262,0.258-0.434,0.261c-0.013,0.023-0.026,0.048-0.037,0.069c-0.038,0.073-0.077,0.146-0.121,0.211     c-0.095,0.14-0.219,0.229-0.422,0.22c-0.169-0.003-0.325-0.09-0.415-0.233c-0.062-0.098-0.109-0.166-0.146-0.212     c-0.035,0.045-0.092,0.115-0.168,0.219c-0.288,0.397-0.61,0.797-1.096,1.035c0.031,0.138,0.003,0.283-0.078,0.399     c-0.083,0.118-0.213,0.194-0.356,0.209c-0.157,0.017-0.392,0.002-0.468,0.023c-0.165,0.112-0.369,0.177-0.57,0.177     c-0.351,0-0.602-0.185-0.793-0.356l-0.924,0.6c-0.315,0.205-0.633,0.409-0.946,0.618c0,0-0.001,0-0.001,0.001     c-0.171,0.635-0.669,0.951-1.039,1.186c-0.241,0.154-0.368,0.363-0.424,0.699c-0.03,0.182-0.124,0.359-0.285,0.542     c-0.321,0.364-0.649,0.724-0.98,1.079c0.287,0.583,0.14,1.075-0.43,1.475c-0.215,0.151-0.42,0.315-0.625,0.48l-0.33,0.261     c-0.089,0.068-0.18,0.133-0.274,0.191l-0.287,0.174c-0.319,0.194-0.638,0.388-0.962,0.571c-0.198,0.113-0.341,0.267-0.442,0.488     l0.363,0.136c0.18,0.067,0.305,0.23,0.323,0.42c0.018,0.19-0.074,0.375-0.237,0.475c-0.053,0.032-0.097,0.063-0.136,0.091     c-0.112,0.08-0.239,0.169-0.419,0.201c-0.449,0.08-0.903,0.147-1.358,0.193c-0.223-0.003-0.357-0.027-0.457-0.054     c-0.036-0.009-0.072-0.02-0.109-0.025l-0.429-0.062c-0.084,0.665-0.417,1.031-1.097,1.237c-0.395,0.12-0.747,0.33-1.111,0.669     l0.027,0.05c0.086,0.157,0.081,0.348-0.012,0.501s-0.249,0.244-0.44,0.239c-0.02,0.018-0.123,0.145-0.132,0.208     c0.057,0.183,0.173,0.408,0.274,0.607c0.045,0.088,0.087,0.17,0.121,0.243c0.054,0.117,0.061,0.251,0.019,0.373L36.4,35.485     c-0.062,0.22-0.113,0.4-0.245,0.558c-0.14,0.167-0.291,0.323-0.447,0.481l0.312,0.422c0.157,0.212,0.123,0.51-0.079,0.68     c-0.104,0.093-0.223,0.487-0.186,0.619c0.221,0.221,0.528,0.454,0.824,0.592c0.452,0.209,1.063,0.104,1.713-0.047     c0.009-0.001,0.015,0,0.021,0c0.137-0.616,0.627-0.846,0.955-1.001c0.21-0.101,0.55-0.08,0.694,0.108l0.129,0.167l0.569-0.357     c0.142-0.089,0.317-0.101,0.47-0.033c0.152,0.068,0.261,0.208,0.289,0.373c0.014,0.08,0.029,0.153,0.045,0.221     c0.037,0.17,0.075,0.346,0.065,0.542c-0.04,0.748-0.093,1.495-0.165,2.239c-0.048,0.486,0.036,0.717,0.33,0.916     c0.493,0.333,0.605,0.917,0.28,1.453c-0.094,0.153-0.147,0.366-0.185,0.535c-0.031,0.143,0.022,0.237,0.238,0.509     c0.007,0.009,0.014,0.018,0.021,0.026l1.803-1.07c0.207-0.123,0.479-0.08,0.637,0.108l0.104,0.122     c0.159-0.103,0.312-0.205,0.454-0.321c0.009-0.011,0.037-0.067,0.043-0.107c0.031-0.233,0.049-0.47,0.067-0.707     c0.022-0.281,0.045-0.562,0.085-0.841c0.068-0.464,0.156-0.925,0.24-1.366l0.101-0.54c0.029-0.16,0.135-0.296,0.283-0.365     l0.57-0.264l-0.528-0.683c-0.101-0.129-0.131-0.3-0.081-0.457c0.05-0.156,0.173-0.278,0.329-0.327     c0.451-0.138,0.925-0.062,1.307,0.078c-0.006-0.351-0.007-0.688,0.025-1.034c0.028-0.293-0.051-0.465-0.312-0.679     c-0.442-0.361-0.874-0.997-0.424-1.972l0.296-0.641c0.228-0.495,0.456-0.99,0.688-1.483c0.089-0.185,0.224-0.318,0.313-0.407     c0.072-0.071,0.148-0.138,0.225-0.205c0.094-0.083,0.189-0.164,0.269-0.259c0.114-0.138,0.218-0.284,0.322-0.43     c0.108-0.151,0.217-0.302,0.333-0.445c0.149-0.187,0.39-0.325,0.626-0.357c0.107-0.033,0.33-0.291,0.344-0.41     c-0.231-0.687-0.188-1.459,0.139-2.306c0.066-0.169,0.219-0.29,0.398-0.315c0.282-0.039,0.282-0.039,0.684-0.365     c0.195-0.16,0.47-0.248,0.773-0.248c0.507,0,1.101,0.246,1.206,0.787c0.063,0.329,0.248,0.601,0.502,0.949     c0.137,0.189,0.237,0.509,0.158,0.8c-0.274,1.021-0.832,2.438-2.5,2.995c-0.098,0.548-0.371,0.979-0.686,1.371     c0.228,0.192,0.411,0.455,0.407,0.836c0.305,0.383,0.354,0.789,0.171,1.191c-0.013,0.029-0.026,0.092-0.039,0.152     c-0.022,0.102-0.05,0.228-0.108,0.356c-0.112,0.252-0.055,0.513,0.05,0.918l0.001,0.007l0.261,0.105     c0.31,0.127,0.601,0.248,0.881,0.287c0.39,0.055,0.648,0.209,0.824,0.402c0.361-0.44,0.82-0.795,1.495-0.891     c0.405-0.396,0.793-0.47,1.149-0.332c0.263-0.309,0.741-0.566,1.337-0.38c0.233,0.073,0.537,0.224,0.649,0.523     c0.021,0.06,0.022,0.062,0.101,0.081c0.107,0.027,0.212,0.065,0.316,0.105c0.064,0.024,0.129,0.05,0.194,0.067     c0.307,0.081,0.443,0.257,0.504,0.391c0.138,0.302-0.005,0.591-0.059,0.699c-0.078,0.158-0.232,0.263-0.407,0.277     c-0.178,0.007-0.346-0.064-0.447-0.208c-0.221,0.067-0.434,0.147-0.646,0.228c-0.197,0.074-0.394,0.148-0.586,0.233     C56.587,38.857,56.083,39,55.714,39c-0.06,0-0.122-0.003-0.188-0.011l-0.26-0.028c-0.325-0.035-0.651-0.07-0.972-0.133     c-0.187-0.037-0.319-0.141-0.426,0.078c-0.067,0.139-0.168,0.216-0.222,0.257l-0.114,0.102c-0.036,0.032-0.092,0.08-0.104,0.1     c-0.067,0.101-0.144,0.215,0.084,0.504c0.086,0.11,0.155,0.234,0.224,0.359c0.037,0.069,0.072,0.138,0.118,0.201     c0.263,0.363,0.273,0.756,0.031,1.137c-0.069,0.108-0.116,0.23-0.168,0.358l-0.099,0.232c-0.089,0.199-0.293,0.315-0.512,0.292     c-0.208-0.023-0.379-0.174-0.43-0.376c-0.019,0.003-0.064,0-0.131,0.001c0,0,0,0-0.001,0c-0.383,0-0.632-0.228-0.754-0.423     c-0.028-0.044-0.055-0.088-0.081-0.133c-0.152,0.237-0.299,0.469-0.44,0.703l-0.096,0.155c-0.13,0.209-0.253,0.406-0.305,0.591     c-0.308,1.11-0.585,2.229-0.863,3.349l-0.067,0.272c-0.11,0.438-0.374,0.703-0.786,0.789c-0.256,0.053-0.509,0.126-0.76,0.202     c-0.094,0.37-0.415,0.528-0.555,0.596c-0.199,0.115-0.529,0.12-0.688-0.048c-0.246-0.257-0.429-0.448-0.489-0.482     c-0.022,0.009-0.072,0.016-0.134,0.022c-0.088,0.01-0.207,0.059-0.322,0.108c-0.096,0.041-0.187,0.089-0.276,0.137     c-0.31,0.164-0.715,0.371-1.211,0.313c-0.107-0.013-0.195-0.024-0.278-0.024c-0.382,0.296-0.81,0.308-1.153,0.318     c-0.229,0.007-0.343,0.042-0.402,0.069c-0.13,0.061-0.252,0.091-0.371,0.091c-0.47,0-0.63-0.419-0.689-0.577     c-0.002-0.004-0.004-0.009-0.005-0.013c-0.162,0.063-0.351,0.039-0.494-0.075l-0.028-0.023l-0.104,0.054     c-0.207,0.106-0.458,0.058-0.609-0.118l-0.123-0.144c-0.325,0.302-0.716,0.457-1.079,0.568c-0.124,0.038-0.255,0.027-0.37-0.031     l-0.273-0.138c-0.155-0.08-0.259-0.235-0.271-0.409l-0.001-0.012l-0.609-0.25c-0.208-0.085-0.334-0.298-0.307-0.521     c0.006-0.054,0.019-0.115,0.033-0.179c0.01-0.041,0.023-0.103,0.023-0.126c-0.175-0.572,0.046-1.07,0.258-1.436     c0.063-0.108,0.133-0.213,0.202-0.315l0.079-0.12c0.078-0.12,0.204-0.201,0.346-0.222c0.026-0.003,0.058,0,0.079-0.005     c-0.115-0.128-0.159-0.31-0.096-0.484c0.166-0.451,0.151-0.927-0.046-1.542c-0.084-0.26,0.057-0.539,0.314-0.626l0.114-0.039     v-0.076c-0.313,0.259-0.632,0.261-0.848,0.263c-0.001,0-0.142,0.002-0.143,0.002c-0.085,0-0.171-0.005-0.257-0.01     c-0.124-0.008-0.267-0.014-0.327,0.005c-0.23,0.07-0.429,0.179-0.518,0.285c-0.115,0.139-0.18,0.448-0.215,0.614     c-0.04,0.196-0.045,0.417-0.05,0.652l-0.004,0.188l0.05,0.152c0.034,0.141,0.005,0.29-0.08,0.408     c-0.085,0.118-0.217,0.193-0.361,0.207l-0.051,0.004c0.011,0.196,0.046,0.359,0.136,0.517c0.334,0.582,0.367,1.226,0.104,1.807     c0.191,0.129,0.312,0.337,0.344,0.606l0.013,0.101c0.021,0.162,0.049,0.362,0.008,0.574c-0.167,0.85-1.08,1.293-1.779,0.836     c-0.102-0.065-0.21-0.12-0.325-0.175l-0.204,0.458c-0.102,0.228-0.354,0.347-0.593,0.279l-0.854-0.242     c-0.244,0.424-0.627,0.5-0.869,0.5c-0.082,0-0.172-0.008-0.27-0.027c-0.243-0.005-0.442,0.141-0.704,0.385     c-0.133,0.123-0.242,0.209-0.372,0.31l-0.014,0.011c0,0.044,0.002,0.088,0.003,0.134c0.008,0.391,0.021,0.981-0.485,1.456     c-0.179,0.169-0.454,0.181-0.645,0.033c-0.126,0.034-0.25,0.069-0.375,0.104c-0.444,0.125-0.902,0.255-1.381,0.318     c-0.37,0.048-0.592,0.157-0.743,0.365c-0.261,0.36-0.601,0.568-1.068,0.651l-0.132,0.021c-0.084,0.013-0.226,0.035-0.266,0.059     c-0.477,0.354-1.072,0.41-1.546,0.142c-0.211-0.119-0.379-0.195-0.529-0.238c-0.16-0.045-0.643-0.182-0.81-0.751     c-0.383-0.168-0.767-0.21-1.188-0.126l0.153,0.108c0.127,0.089,0.204,0.231,0.211,0.386c0.007,0.155-0.058,0.304-0.176,0.404     c-0.403,0.341-0.799,0.405-1.255,0.187c-0.063-0.03-0.181-0.046-0.294-0.062l-0.192-0.029c-0.218-0.008-0.426-0.014-0.616-0.151     c-0.092-0.066-0.193-0.094-0.368-0.096c-0.002,0.08-0.023,0.158-0.061,0.228l0.162,0.692c0.211,0.087,0.608,0.255,0.72,0.712     c0.005,0.007,0.009,0.013,0.014,0.02c0.035,0.054,0.105,0.079,0.313,0.13c0.136,0.033,0.289,0.071,0.445,0.147     c0.239,0.116,0.447,0.321,0.556,0.548c0.313,0.662-0.043,1.234-0.195,1.479c-0.15,0.24-0.165,0.477-0.05,0.765l0.467,1.133     c0.085,0.205,0.024,0.44-0.146,0.58c-1.182,0.958-1.075,1.21-0.981,1.432c0.092,0.216,0.021,0.466-0.17,0.603l-0.164,0.115     c-0.564,0.391-0.695,0.53-0.582,0.902c0.053,0.17,0.011,0.355-0.11,0.486s-0.299,0.189-0.478,0.147l-0.307-0.065     c-0.237-0.049-0.454-0.095-0.664-0.161c-0.128-0.041-0.268-0.073-0.407-0.105c-0.446-0.105-0.951-0.224-1.272-0.596     c-0.151-0.176-0.316-0.21-0.62-0.259c-0.205-0.033-0.438-0.071-0.672-0.184c-0.011-0.006-0.084-0.043-0.095-0.05     c-0.085-0.048-0.117-0.055-0.12-0.055c-0.087,0.105-0.179,0.169-0.315,0.18c-0.129,0.012-0.236-0.037-0.339-0.129l-0.142-0.13     c-0.076-0.07-0.146-0.137-0.222-0.196c-0.061-0.048-0.121-0.103-0.181-0.158c-0.055-0.05-0.136-0.125-0.17-0.143     c-0.602-0.052-1.125-0.342-1.551-0.875c-0.122-0.153-0.192-0.153-0.243-0.153c-0.075,0-0.179,0.022-0.314,0.069     c-0.116,0.039-0.244,0.137-0.378,0.239c-0.233,0.178-0.516,0.393-0.906,0.447c-0.089,0.145-0.066,0.21,0.079,0.405     c0.275,0.37,0.287,0.693,0.248,0.899c-0.038,0.203-0.163,0.492-0.538,0.726l-0.011,0.007c0.111,0.401,0.023,0.783-0.045,1.085     c-0.021,0.095-0.044,0.19-0.059,0.285c-0.095,0.612-0.531,0.876-0.85,1.068c-0.035,0.021-0.069,0.042-0.103,0.062     c0.031,0.202-0.018,0.451-0.252,0.729c-0.267,0.318-0.522,0.666-0.76,1.033c-0.058,0.089-0.102,0.225-0.117,0.361     c-0.022,0.197-0.03,0.397-0.038,0.597c-0.008,0.212-0.017,0.423-0.039,0.633c-0.019,0.182-0.055,0.36-0.091,0.54     c-0.032,0.16-0.065,0.32-0.08,0.482c-0.015,0.17-0.011,0.341-0.008,0.513c0.004,0.18,0.007,0.36-0.005,0.539     c-0.017,0.251-0.105,0.507-0.245,0.703c-0.212,0.296-0.432,0.585-0.646,0.865c0.301,0.127,0.604,0.27,0.869,0.488     c0.338,0.279,0.322,0.189,0.475,0.098c0.533-0.323,1.22,0.07,1.257,0.695h0.19c0.276,0,0.5,0.224,0.5,0.5l0.04,0.322     c0.309,0.078,0.597,0.151,0.88,0.243c0.255,0.083,0.351,0.132,0.517-0.01c0.096-0.08,0.201-0.146,0.314-0.217l0.122-0.076     c0.126-0.084,0.279-0.105,0.425-0.059c0.143,0.045,0.258,0.151,0.313,0.29l0.049,0.122c0.224-0.007,0.438-0.009,0.651,0.024     c0.193,0.029,0.384,0.091,0.573,0.154c0.082,0.028,0.164,0.056,0.247,0.079c0.077-0.029,0.128-0.046,0.177-0.058l0.097-0.03     c0.107-0.037,0.242-0.082,0.393-0.082c0.085,0,0.244,0.038,0.318,0.08c0.092,0.05,0.175,0.077,0.237,0.077     c0.036,0,0.146,0,0.351-0.271c0.124-0.164,0.26-0.318,0.395-0.472c0.105-0.118,0.229-0.257,0.431-0.316     c0.559-0.173,1.124-0.346,1.696-0.499c0.121-0.27,0.344-0.546,0.643-0.61c0.325-0.069,0.511-0.125,0.554-0.167     c0.019-0.031,0.043-0.15,0.043-0.528l0.004-0.136c0.002-0.048,0.005-0.107,0.001-0.131c-0.134-0.725,0.182-1.247,0.938-1.55     c0.375-0.152,0.677-0.361,0.784-0.545c0.404-0.695,1.066-1.063,1.97-1.094c0.88-0.028,1.526-0.49,2.275-1.024l0.031-0.022     c0.002-0.011,0.004-0.019,0.004-0.02l0.104-0.597c0.063-0.374,0.128-0.747,0.209-1.117c0.133-0.599,0.896-1.186,1.541-1.186     l0.173-0.003c0.146,0,0.486,0,0.676,0.286c-0.002-0.002,0.065-0.001,0.115-0.001l0.16,0.006c0.239,0.018,0.492,0.046,0.722,0.18     c0.638,0.37,1.318,0.675,2.08,0.932c0.061-0.033,0.122-0.064,0.185-0.097c0.248-0.125,0.404-0.21,0.491-0.357     c0.291-0.49,0.694-0.708,1.224-0.638c-0.001-0.007,0.032-0.021,0.081-0.052c0.357-0.215,0.708-0.239,0.941-0.239     c0.136,0,0.273,0.01,0.41,0.021c0.11,0.009,0.222,0.019,0.331,0.019l0.101-0.004c0.316-0.011,0.536,0.254,0.619,0.405     l0.101,0.184c0.295,0.532,0.661,1.194,0.313,2.021l0.09,0.071c0.147,0.107,0.422,0.308,0.53,0.636     c0.051,0.005,0.099,0.012,0.145,0.021c0.237,0.05,0.466,0.189,0.61,0.375c0.185,0.234,0.302,0.455,0.359,0.675     c0.125,0.477,0.443,0.778,1.098,1.038c0.294,0.116,0.482,0.389,0.599,0.582c0.077,0.131,0.143,0.27,0.206,0.407     c0.062,0.135,0.122,0.27,0.206,0.389c-0.002-0.002,0.049,0.026,0.094,0.054c0.118,0.071,0.28,0.17,0.397,0.342     c0.044,0.003,0.191,0.021,0.213,0.021c0.238,0,0.559,0.096,0.736,0.555c0.103,0.256,0.245,0.609,0.169,0.965     c0.436,0.223,0.771,0.628,0.933,1.129c0.18,0.554,0.124,1.14-0.153,1.606c-0.124,0.21-0.244,0.422-0.365,0.636     c0.116,0.071,0.231,0.149,0.34,0.248c0.041,0.038,0.079,0.076,0.116,0.116l0.235-0.51c0.077-0.167,0.239-0.277,0.423-0.289     l0.028-0.002c0.077-0.193,0.159-0.392,0.298-0.573c0.025-0.045,0.027-0.073,0.007-0.179c-0.068-0.336-0.088-0.716-0.062-1.159     c0.015-0.225,0.088-0.418,0.152-0.589c0.021-0.058,0.044-0.115,0.062-0.175c0.055-0.173,0.199-0.303,0.378-0.339     c0.134-0.027,0.262-0.04,0.382-0.04c0.398,0,0.938,0.144,1.298,0.804c0.147,0.003,0.298,0.004,0.451,0.004l0.197-0.001     c-0.001-0.049-0.005-0.093-0.013-0.129c-0.113-0.504-0.159-0.556-0.312-0.593c-0.316-0.075-0.55-0.362-0.632-0.598     c-0.047-0.134-0.158-0.204-0.419-0.346c-0.001,0-0.089-0.048-0.09-0.049l-0.104-0.05c-0.095-0.044-0.212-0.099-0.325-0.185     l-0.126-0.096c-0.444-0.335-0.945-0.712-1.153-1.383c-0.102-0.093-0.208-0.178-0.314-0.263c-0.376-0.302-0.799-0.642-1.008-1.211     c-0.005-0.005-0.009-0.008-0.011-0.009c-0.92-0.762-1.485-1.683-1.684-2.739c-0.005-0.024-0.021-0.081-0.073-0.176     c-0.096-0.173-0.195-0.341-0.303-0.522c-0.522-0.079-0.69-0.629-0.766-0.874c-0.006-0.021-0.03-0.134-0.034-0.155     c-0.176-0.468-0.026-0.871,0.408-1.124c0.03-0.018,0.062-0.036,0.092-0.056c-0.165-0.148-0.214-0.393-0.111-0.596l0.181-0.357     c0.065-0.13,0.185-0.225,0.326-0.259c0.144-0.034,0.291-0.006,0.41,0.078c0.034,0.012,0.133-0.037,0.197-0.068     c0.152-0.074,0.342-0.167,0.576-0.179c0.132-0.019,0.271,0.042,0.37,0.136c0.1,0.095,0.156,0.227,0.156,0.363l-0.004,0.18     c-0.002,0.086-0.007,0.167,0.003,0.246c0.021,0.165,0.046,0.328,0.072,0.492c0.01,0.065,0.021,0.132,0.03,0.197     c0.128-0.064,0.279-0.072,0.415-0.019c0.222,0.09,0.472,0.374,0.427,0.608l-0.098,0.501c0.066,0.089,0.143,0.187,0.221,0.283     c0.044,0.053,0.101,0.104,0.156,0.157c0.186,0.175,0.416,0.392,0.464,0.718c0.05,0.336,0.211,0.535,0.639,0.79     c0.186,0.11,0.355,0.247,0.524,0.386c0.08,0.065,0.16,0.132,0.244,0.193c0.102,0.076,0.202,0.147,0.29,0.187     c0.18,0.08,0.36,0.155,0.541,0.23c0.293,0.122,0.585,0.244,0.869,0.382c0.23,0.112,0.524,0.36,0.604,0.693     c0.015,0.062,0.033,0.089,0.299,0.181c0.569,0.196,0.842,0.413,0.871,1.127c0.004,0.113,0.034,0.224,0.061,0.333l0.042,0.129     c0.047,0.117,0.118,0.294,0.096,0.503l-0.027,0.252c-0.049,0.467-0.1,0.95-0.231,1.424l-0.042,0.149     c-0.16,0.562-0.183,0.748-0.016,0.906c0.157,0.147,0.201,0.379,0.11,0.574c-0.041,0.088-0.09,0.173-0.137,0.252     c-0.007,0.011-0.013,0.021-0.02,0.032c0.018,0.063,0.029,0.125,0.04,0.18c0.004,0.022,0.01,0.051,0.015,0.077     c0.413,0.039,0.608,0.379,0.646,0.45c0.01,0.019,0.02,0.037,0.028,0.056l0.07-0.032c0.215-0.096,0.471-0.03,0.61,0.163     l0.175,0.239c0.442,0.593,0.767,0.876,1.324,0.791c0.479-0.065,0.738,0.104,0.874,0.246c0.264,0.278,0.279,0.675,0.263,0.989     c-0.007,0.148-0.08,0.285-0.198,0.374c-0.117,0.088-0.271,0.121-0.413,0.088l-0.369-0.086c-0.312-0.072-0.616-0.144-0.921-0.209     c-0.047-0.011-0.079-0.019-0.104-0.024c-0.014,0.008-0.027,0.017-0.042,0.024l0.527,0.719c0.156,0.213,0.12,0.511-0.083,0.68     c-0.026,0.021-0.054,0.043-0.082,0.062c0.014,0.026,0.026,0.052,0.039,0.078c0.033,0.067,0.084,0.169,0.11,0.195     c0.156,0.121,0.356,0.224,0.569,0.332c0.025,0.014,0.052,0.026,0.077,0.04l0.159-0.081     C50.778,80.575,50.857,80.558,50.935,80.558z M39.471,65.247c0.169,0,0.327,0.091,0.419,0.248l0.153,0.26     c0.113,0.19,0.218,0.367,0.316,0.548c0.093,0.165,0.152,0.321,0.182,0.474c0.156,0.835,0.593,1.538,1.335,2.152     c0.071,0.045,0.235,0.153,0.294,0.369c0.098,0.348,0.385,0.577,0.717,0.845c0.146,0.117,0.292,0.234,0.426,0.363     c0.045,0.042,0.16,0.153,0.203,0.329c0.098,0.395,0.43,0.645,0.814,0.934l0.132,0.1c0.026,0.021,0.083,0.047,0.138,0.072     c0.057,0.025,0.112,0.052,0.165,0.081c0.382,0.206,0.791,0.427,0.971,0.94c0.341,0.07,0.555,0.26,0.694,0.484     c0.021-0.078,0.042-0.153,0.062-0.225l0.04-0.141c0.108-0.395,0.153-0.815,0.2-1.263l0.027-0.257     c-0.06-0.095-0.089-0.173-0.106-0.249c-0.052-0.213-0.091-0.39-0.098-0.566c-0.004-0.093-0.01-0.142-0.015-0.167     c-0.004,0.009-0.064-0.014-0.173-0.051c-0.29-0.101-0.811-0.28-0.956-0.9c0.008,0.032-0.038-0.008-0.066-0.022     c-0.266-0.128-0.542-0.243-0.817-0.358c-0.188-0.078-0.376-0.157-0.562-0.239c-0.18-0.08-0.335-0.189-0.479-0.296     c-0.099-0.072-0.191-0.148-0.285-0.226c-0.13-0.106-0.259-0.214-0.4-0.299c-0.485-0.289-0.999-0.693-1.117-1.504h-0.001     c-0.015,0-0.102-0.081-0.159-0.136c-0.088-0.082-0.175-0.166-0.245-0.252c-0.106-0.131-0.208-0.265-0.292-0.375     c-0.134,0.118-0.323,0.154-0.496,0.096c-0.199-0.071-0.333-0.26-0.333-0.472l0.004-0.286c0.003-0.148,0.008-0.275-0.006-0.4     c-0.016-0.146-0.037-0.293-0.059-0.438c-0.018,0.016-0.035,0.03-0.055,0.044l-0.224,0.158c-0.161,0.116-0.315,0.228-0.477,0.324     c0.013,0.05,0.02,0.091,0.025,0.122c0.012,0.048,0.033,0.121,0.055,0.182C39.439,65.248,39.455,65.247,39.471,65.247z      M42.172,46.487c0.006,0,0.011,0,0.017,0c0.152,0.005,0.294,0.079,0.385,0.202l0.614,0.829c0.017,0,0.033-0.001,0.051-0.002     c0.314-0.009,0.451-0.017,0.587-0.13c0.227-0.187,0.623-0.203,0.979-0.162c0.29-0.01,0.447-0.089,0.656-0.201     c0.115-0.061,0.231-0.122,0.351-0.172c0.184-0.079,0.384-0.159,0.61-0.184c0.565-0.061,0.72,0.037,1.062,0.363     c0.102-0.191,0.3-0.316,0.447-0.361c0.337-0.103,0.676-0.205,1.02-0.276l0.087-0.323c0.28-1.128,0.561-2.256,0.871-3.375     c0.09-0.324,0.265-0.605,0.42-0.853l0.088-0.144c0.195-0.324,0.401-0.644,0.619-0.982l0.286-0.447     c0.095-0.148,0.24-0.235,0.438-0.231c0.176,0.005,0.336,0.104,0.422,0.258l0.151,0.277c0.097,0.178,0.185,0.342,0.281,0.499     c0.11,0.004,0.241,0.015,0.372,0.05c0.019-0.033,0.037-0.065,0.058-0.097c-0.068-0.111-0.128-0.218-0.187-0.326     c-0.04-0.075-0.078-0.15-0.13-0.216c-0.557-0.709-0.378-1.302-0.131-1.675c0.063-0.095,0.138-0.17,0.206-0.233     c-0.061-0.091-0.105-0.16-0.13-0.26c-0.074-0.316-0.145-0.352-0.343-0.379c-0.405-0.057-0.771-0.207-1.123-0.353l-0.29-0.117     c-0.216-0.083-0.464-0.293-0.535-0.575c-0.138-0.538-0.279-1.087-0.017-1.673c0.015-0.034,0.028-0.097,0.042-0.158     c0.021-0.1,0.049-0.224,0.104-0.351c0.031-0.068,0.037-0.08-0.039-0.161c-0.088-0.091-0.276-0.285-0.228-0.568     c0.018-0.091,0.021-0.114-0.32-0.302c-0.133-0.073-0.258-0.22-0.285-0.368c-0.026-0.148-0.019-0.319,0.08-0.434     c0.437-0.506,0.785-0.91,0.841-1.424c0.025-0.243,0.189-0.391,0.277-0.47c0.131-0.124,0.252-0.17,0.346-0.2     c0.966-0.31,1.529-1.003,1.883-2.317c-0.252-0.294-0.564-0.722-0.676-1.291c0.007,0.056-0.097,0.016-0.226,0.016     c-0.086,0-0.135,0.019-0.146,0.025c-0.429,0.35-0.573,0.459-0.868,0.526c-0.159,0.522-0.165,0.982-0.021,1.43     c0.088,0.271,0.027,0.595-0.17,0.912c-0.19,0.304-0.565,0.681-0.996,0.741c-0.091,0.125-0.187,0.26-0.283,0.395     c-0.118,0.165-0.237,0.33-0.366,0.486c-0.112,0.135-0.244,0.254-0.378,0.372c-0.062,0.054-0.124,0.108-0.183,0.166     c-0.028,0.029-0.098,0.098-0.113,0.126c-0.229,0.486-0.456,0.979-0.683,1.471l-0.296,0.642c-0.186,0.4-0.091,0.583,0.148,0.778     c0.521,0.426,0.735,0.918,0.676,1.547c-0.033,0.351-0.025,0.719-0.018,1.109c0.004,0.185,0.008,0.374,0.008,0.567     c0,0.161-0.077,0.312-0.208,0.406s-0.299,0.12-0.45,0.068c-0.122-0.041-0.241-0.088-0.358-0.137l0.154,0.2     c0.093,0.12,0.126,0.276,0.09,0.424s-0.138,0.271-0.275,0.335L46.521,40.2l-0.055,0.292c-0.082,0.427-0.167,0.874-0.232,1.324     c-0.038,0.256-0.058,0.515-0.078,0.774c-0.02,0.254-0.04,0.509-0.073,0.762c-0.04,0.289-0.191,0.574-0.397,0.744     c-0.202,0.167-0.421,0.309-0.65,0.456l-0.26,0.169c-0.21,0.142-0.495,0.103-0.659-0.092L44,44.493l-1.84,1.092     c-0.116,0.07-0.261,0.09-0.391,0.051c-0.132-0.037-0.243-0.127-0.307-0.249c-0.053-0.099-0.123-0.188-0.192-0.275     c-0.081,0.21-0.182,0.411-0.318,0.608c-0.093,0.135-0.13,0.392-0.166,0.64c-0.012,0.079-0.022,0.158-0.036,0.236     c0.024,0.019,0.047,0.041,0.067,0.064l0.267,0.311l0.041-0.021c0.138-0.07,0.297-0.073,0.433-0.012l0.233-0.275     C41.886,46.551,42.025,46.487,42.172,46.487z M39.344,46.62c0.072,0.012,0.146,0.023,0.224,0.033     c0.052,0.007,0.097,0.011,0.138,0.011c-0.006,0.022,0.007,0.036,0.043-0.144c0.02-0.097,0.034-0.199,0.049-0.301     c0.05-0.347,0.105-0.739,0.334-1.067c0.136-0.198,0.222-0.407,0.292-0.647c-0.349,0.256-0.805,0.179-1.058,0.064     c-0.007-0.003-0.013-0.005-0.018-0.008c-0.099,0.12-0.247,0.192-0.399,0.194l0.113,0.095c0.137,0.114,0.249,0.207,0.355,0.306     c0.13,0.118,0.373,0.341,0.314,0.668c-0.039,0.217-0.108,0.495-0.302,0.706C39.401,46.56,39.373,46.59,39.344,46.62z      M54.226,37.805c0.085,0.009,0.172,0.023,0.261,0.041c0.292,0.057,0.59,0.088,0.887,0.12l0.267,0.029     c0.165,0.005,0.23,0.004,0.327-0.215c0.083-0.19,0.264-0.435,0.52-0.549c0.211-0.093,0.425-0.174,0.64-0.255     c0.016-0.006,0.031-0.012,0.048-0.018c-0.057-0.07-0.105-0.148-0.146-0.236c-0.016-0.007-0.034-0.014-0.055-0.021     c-0.046-0.015-0.087-0.022-0.119-0.022c-0.034,0-0.14,0-0.334,0.388c-0.076,0.15-0.222,0.253-0.39,0.272     c-0.17,0.02-0.333-0.046-0.441-0.176c-0.048-0.057-0.081-0.083-0.098-0.094c-0.007,0.009-0.041,0.03-0.093,0.078     c-0.193,0.177-0.38,0.276-0.572,0.303C54.646,37.489,54.426,37.61,54.226,37.805z M61.613,28.491     c0.164,0,0.325,0.011,0.483,0.034c-0.242-0.274-0.441-0.657-0.339-1.189c0.007-0.033,0.004-0.107,0-0.178l-0.005-0.199     c0-0.002,0-0.005,0-0.007c-0.009,0-0.018,0-0.027,0l-0.131-0.001c-0.16-0.003-0.325-0.011-0.493-0.028     c0.08,0.153,0.121,0.332,0.107,0.499c-0.021,0.274-0.06,0.549-0.099,0.824l-0.037,0.265l0.063,0.004     C61.358,28.498,61.486,28.491,61.613,28.491z M63.151,26.734c0.194,0.068,0.389,0.144,0.577,0.239     c0.284,0.143,0.51,0.121,0.817-0.077c0.003-0.001,0.005-0.003,0.008-0.005c-0.101-0.143-0.201-0.284-0.304-0.425     c-0.061-0.083-0.107-0.167-0.14-0.251C63.812,26.443,63.495,26.614,63.151,26.734z"></path></g><g><path fill="#000000" d="M10.129,25.962c-0.004,0-0.007,0-0.011,0c-0.139-0.003-0.271-0.064-0.362-0.167     c-0.072-0.006-0.144-0.011-0.215-0.016c-0.303-0.021-0.616-0.043-0.934-0.125c-0.278-0.073-0.475-0.259-0.633-0.409     c-0.052-0.049-0.104-0.099-0.157-0.14c-0.008-0.005-0.087-0.07-0.094-0.076c-0.006-0.005-0.011-0.009-0.015-0.012     c-0.284,0.018-0.581,0.05-0.887,0.083l-0.396,0.042c-0.143,0.011-0.28-0.031-0.385-0.127c-0.105-0.095-0.165-0.229-0.165-0.371     V23.55c0-0.062,0.012-0.122,0.032-0.177l-0.149,0.03c-0.217,0.039-0.427-0.067-0.528-0.257l-0.426-0.803     c-0.073-0.14-0.076-0.305-0.011-0.446c-0.137-0.091-0.223-0.246-0.223-0.416c0-0.089,0.023-0.248,0.069-0.324     c0.103-0.175,0.2-0.341,0.23-0.412c-0.007,0.014-0.021-0.02-0.035-0.053c-0.051-0.132-0.045-0.279,0.019-0.406     c0.062-0.126,0.176-0.221,0.312-0.259l0.128-0.034c0.294-0.076,0.297-0.086,0.328-0.214c0.09-0.366,0.418-0.553,0.682-0.703     c0.072-0.042,0.145-0.081,0.204-0.125c0.144-0.107,0.335-0.126,0.497-0.055c0.439,0.193,0.888,0.547,1.191,0.959     c0.02-0.018,0.04-0.036,0.062-0.054c0.139-0.111,0.549-0.164,0.871-0.053c0.042-0.012,0.083-0.024,0.125-0.036     c0.405-0.119,0.933-0.228,1.391-0.065l0.265-0.134c0.058-0.245,0.157-0.569,0.512-0.633c0.409-0.076,0.862-0.01,1.156,0.315     c-0.019-0.023,0.026-0.021,0.078-0.012c0.091-0.055,0.199-0.079,0.309-0.07c0.187,0.019,0.348,0.141,0.416,0.316l0.085,0.213     c0.067,0.169,0.135,0.338,0.195,0.51c0.036,0.103,0.074,0.212,0.104,0.284c0.108-0.004,0.222-0.019,0.366-0.036     c0.194-0.022,0.384,0.07,0.486,0.237c0.102,0.167,0.096,0.378-0.014,0.54c-0.107,0.158-0.157,0.289,0.114,0.654     c0.082,0.11,0.115,0.25,0.091,0.385c-0.008,0.046-0.022,0.09-0.042,0.132c0.021,0.066,0.027,0.137,0.02,0.207     c-0.017,0.136-0.087,0.26-0.196,0.342c-0.106,0.08-0.219,0.149-0.33,0.216c-0.243,0.146-0.362,0.224-0.417,0.387     c-0.111,0.326-0.479,0.717-0.881,0.781c-0.179,0.029-0.328,0.124-0.518,0.245l-0.146,0.092c-0.157,0.096-0.328,0.168-0.501,0.239     c-0.104,0.043-0.208,0.085-0.307,0.138c-0.229,0.124-0.441,0.261-0.63,0.409c-0.067,0.053-0.137,0.134-0.218,0.228L10.497,25.8     C10.402,25.903,10.269,25.962,10.129,25.962z M7.78,24.011c0.289,0,0.469,0.152,0.588,0.253c0.136,0.106,0.215,0.18,0.294,0.254     c0.063,0.061,0.161,0.153,0.202,0.169c0.223,0.058,0.477,0.075,0.746,0.094c0.141,0.01,0.28,0.02,0.42,0.035     c0.064-0.069,0.134-0.136,0.215-0.199c0.231-0.181,0.491-0.351,0.771-0.501c0.129-0.07,0.266-0.126,0.402-0.183     c0.123-0.051,0.247-0.099,0.358-0.167l0.13-0.082c0.241-0.154,0.515-0.328,0.897-0.389c0.007-0.009,0.076-0.081,0.094-0.119     c0.146-0.433,0.448-0.668,0.71-0.833c-0.007-0.046-0.007-0.094,0-0.141c0.009-0.061,0.029-0.119,0.059-0.171     c-0.08-0.169-0.146-0.375-0.149-0.605c-0.498-0.082-0.638-0.48-0.797-0.933c-0.036-0.104-0.074-0.204-0.112-0.301     c-0.024-0.004-0.048-0.009-0.072-0.013c-0.204-0.036-0.481-0.085-0.684-0.295c-0.013,0.05-0.025,0.098-0.038,0.14     c-0.06,0.187-0.233,0.368-0.428,0.391c-0.016,0.002-0.032,0.003-0.048,0.004l-0.449,0.227c-0.149,0.076-0.332,0.075-0.48-0.009     c-0.239-0.139-0.528-0.063-0.874,0.038c-0.103,0.03-0.206,0.06-0.309,0.084c-0.099,0.023-0.198,0.018-0.291-0.017     c-0.029-0.011-0.063-0.023-0.099-0.036c-0.006,0.017-0.013,0.033-0.018,0.048c-0.003,0.006-0.006,0.013-0.008,0.02     c0,0.007,0,0.015,0,0.022c-0.009,0.208-0.109,0.406-0.308,0.471L8.352,20.9l0.017,0.411l-0.14,0.046     c-0.154,0.054-0.33,0.023-0.462-0.079c-0.132-0.102-0.204-0.262-0.193-0.427c0.012-0.177-0.288-0.635-0.748-0.921     c-0.009,0.005-0.018,0.01-0.026,0.015c-0.079,0.045-0.211,0.12-0.245,0.156c-0.096,0.451-0.4,0.653-0.687,0.762     c-0.011,0.095-0.039,0.188-0.086,0.291c0.18,0.022,0.338,0.003,0.489-0.072c0.276-0.138,0.61,0.072,0.725,0.197     c0.095,0.103,0.179,0.304,0.167,0.443c-0.022,0.272-0.147,0.504-0.344,0.668c0.28,0.122,0.49,0.363,0.619,0.715     c0.046,0.125,0.138,0.447-0.002,0.739c-0.038,0.081-0.095,0.149-0.166,0.204c0.17-0.016,0.34-0.028,0.509-0.037     C7.779,24.011,7.78,24.011,7.78,24.011z"></path></g><g><path fill="#000000" d="M26.744,52.484c-0.089,0-0.222-0.014-0.349-0.078c-0.185-0.097-0.404-0.117-0.658-0.142     c-0.145-0.014-0.29-0.028-0.434-0.054c-0.511-0.093-1.057-0.292-1.62-0.593c-0.131-0.07-0.265-0.138-0.341-0.138     c-0.012,0-0.041,0-0.101,0.031c-0.447,0.237-0.879,0.146-1.219-0.257c-0.018-0.018-0.064-0.043-0.117-0.068     c-0.484,0.502-0.817,0.322-1.154,0.068c-0.234-0.177-0.428-0.302-0.609-0.393c-0.005-0.003-0.008-0.006-0.01-0.008     c-0.464,0.31-0.882,0.266-1.26,0.252c-0.156-0.009-0.314-0.019-0.475,0.005c-0.17,0.021-0.344-0.041-0.455-0.174     s-0.146-0.314-0.091-0.479l0.086-0.262c0.073-0.227,0.141-0.436,0.223-0.639c0.104-0.258,0.37-0.392,0.584-0.432     c0.161-0.03,0.339-0.03,0.508-0.009c0.292,0.035,0.538-0.03,0.818-0.215l-0.082,0.001c-0.163,0-0.316-0.08-0.41-0.213     c-0.093-0.134-0.115-0.305-0.06-0.458c0.032-0.088,0.057-0.179,0.08-0.268c0.073-0.268,0.155-0.572,0.394-0.796     c0.223-0.21,0.513-0.265,0.759-0.3c0.021-0.098,0.038-0.197,0.056-0.296c0.112-0.623,0.252-1.396,0.973-1.942     c0.213-0.161,0.516-0.127,0.687,0.08c0.141-0.037,0.295-0.038,0.431-0.013l0.065-0.264c-0.273-0.409-0.372-0.987-0.263-1.489     c-0.501-0.394-0.605-0.856-0.319-1.411c-0.009-0.092-0.008-0.177-0.001-0.254c-0.025-0.007-0.05-0.015-0.074-0.026     c-0.152-0.066-0.262-0.204-0.292-0.367c-0.113-0.61-0.019-1.202,0.273-1.727c-0.027-0.084-0.048-0.185-0.033-0.302     c0.036-0.313,0.122-1.049,1.01-1.321c0.168-0.051,0.314-0.265,0.436-0.635l0.035-0.108c0.112-0.346,0.239-0.737,0.476-1.071     c0.267-0.376,0.647-0.567,1.134-0.567c0.21,0,0.43,0.038,0.643,0.077l0.143,0.025c0.261,0.045,0.48,0.152,0.693,0.256     c0.081,0.04,0.164,0.081,0.252,0.118c0.142,0.06,0.247,0.182,0.287,0.33c0.04,0.149,0.01,0.308-0.082,0.431l-0.182,0.24     c-0.13,0.172-0.256,0.338-0.377,0.506c-0.03,0.042-0.062,0.085-0.092,0.128c0.563,0.181,1.154,0.529,1.546,1.244     c0.115,0.21,0.065,0.472-0.119,0.625l-0.278,0.228c-0.218,0.176-0.438,0.354-0.645,0.547c-0.013,0.014-0.045,0.07-0.067,0.107     c-0.073,0.127-0.174,0.302-0.362,0.422c-0.118,0.076-0.24,0.14-0.361,0.198c0.21,0.253,0.428,0.521,0.635,0.797     c0.149,0.198,0.303,0.53,0.284,0.867c-0.036,0.683,0.112,1.35,0.269,2.056l0.107,0.498c0.081,0.375,0.208,0.96-0.185,1.382     c0.057,0.153,0.109,0.302,0.158,0.453c0.052,0.167,0.106,0.404,0.014,0.632c0.011,0.007,0.022,0.015,0.036,0.024     c0.506,0.32,0.826,0.86,0.903,1.52c0.086,0.745-0.164,1.518-0.653,2.017c-0.09,0.092-0.193,0.145-0.284,0.178     c0.049,0.125,0.066,0.24,0.068,0.336c0.007,0.224-0.062,0.562-0.425,0.905C27.098,52.46,26.866,52.484,26.744,52.484z      M23.343,50.48c0.308,0,0.56,0.121,0.812,0.256c0.473,0.252,0.919,0.417,1.327,0.491c0.115,0.021,0.233,0.031,0.351,0.043     c0.264,0.024,0.557,0.053,0.855,0.171c0.005-0.011,0.007-0.019,0.008-0.021c-0.002-0.013-0.029-0.069-0.128-0.151     c-0.119-0.1-0.185-0.249-0.179-0.405c0.007-0.155,0.086-0.299,0.213-0.388l0.088-0.064c0.094-0.07,0.186-0.137,0.286-0.189     c0.095-0.05,0.188-0.074,0.258-0.092c0.003,0,0.006-0.001,0.009-0.002c0.249-0.289,0.376-0.731,0.327-1.151     c-0.023-0.205-0.113-0.581-0.445-0.791c-0.607-0.387-0.604-0.833-0.462-1.17c-0.07-0.228-0.133-0.396-0.199-0.572l-0.08-0.217     c-0.089-0.243,0.022-0.513,0.256-0.624c0.105-0.05,0.125-0.06,0.039-0.454l-0.125-0.578c-0.164-0.74-0.334-1.506-0.29-2.326     c0.001-0.033-0.026-0.134-0.086-0.213c-0.251-0.335-0.518-0.655-0.764-0.951l-0.267-0.322c-0.099-0.12-0.136-0.279-0.101-0.43     s0.139-0.277,0.279-0.342l0.274-0.119c0.19-0.08,0.388-0.161,0.564-0.274c-0.003-0.007,0.015-0.044,0.036-0.081     c0.059-0.102,0.132-0.228,0.251-0.339c0.196-0.182,0.402-0.353,0.607-0.52c-0.291-0.307-0.711-0.483-1.332-0.569     c-0.172-0.024-0.318-0.135-0.389-0.294c-0.069-0.159-0.052-0.342,0.046-0.485l0.146-0.211c0.131-0.192,0.254-0.371,0.381-0.546     c0.064-0.089,0.13-0.178,0.196-0.267c-0.052-0.02-0.101-0.035-0.146-0.042l-0.154-0.027c-0.153-0.028-0.311-0.061-0.462-0.061     c-0.181,0-0.251,0.051-0.317,0.145c-0.148,0.209-0.241,0.497-0.34,0.802l-0.036,0.111c-0.086,0.26-0.345,1.051-1.094,1.28     c-0.194,0.06-0.259,0.118-0.3,0.405c0.026,0.065,0.043,0.11,0.061,0.162c0.049,0.149,0.024,0.313-0.065,0.441     c-0.044,0.064-0.083,0.129-0.117,0.195l0.06-0.053c0.149-0.128,0.356-0.156,0.535-0.075c0.178,0.082,0.291,0.259,0.291,0.454     v0.807c0,0.265-0.207,0.484-0.472,0.499c-0.116,0.007-0.171,0.03-0.182,0.039c0.002-0.005-0.002,0.035,0.019,0.143     c0.039,0.215-0.056,0.377-0.096,0.446c-0.039,0.071-0.056,0.112-0.062,0.133c0.013,0.005,0.048,0.04,0.119,0.093l0.24,0.17     c0.207,0.148,0.271,0.427,0.147,0.65c-0.152,0.274-0.062,0.78,0.113,0.943c0.134,0.124,0.189,0.31,0.146,0.486l-0.25,1.015     c-0.064,0.264-0.329,0.428-0.596,0.369c-0.08-0.018-0.164-0.047-0.25-0.078c-0.065-0.023-0.156-0.055-0.191-0.055     c-0.099,0.106-0.234,0.165-0.381,0.166c-0.089-0.003-0.174-0.027-0.247-0.072c-0.159,0.274-0.22,0.608-0.286,0.977     c-0.043,0.239-0.087,0.477-0.154,0.702c-0.052,0.171-0.189,0.302-0.363,0.344c-0.1,0.024-0.209,0.04-0.317,0.055     c-0.082,0.011-0.198,0.027-0.261,0.046c0.104,0.004,0.207,0.014,0.308,0.031c0.334,0.056,0.675,0.381,0.742,0.709     c0.094,0.478-0.429,0.805-0.534,0.866c-0.137,0.079-0.274,0.118-0.385,0.149c-0.054,0.016-0.134,0.039-0.157,0.053     c-0.1,0.069-0.2,0.129-0.301,0.181c0.088,0.024,0.165,0.055,0.225,0.085c0.209,0.105,0.424,0.239,0.669,0.418     c0.023-0.029,0.048-0.056,0.075-0.084c0.155-0.166,0.471-0.279,0.668-0.172c0.058,0.031,0.118,0.057,0.179,0.083     c0.19,0.083,0.428,0.187,0.604,0.396C22.96,50.53,23.15,50.48,23.343,50.48z"></path></g><g><path fill="#000000" d="M16.365,47.329c-0.134,0-0.269-0.005-0.404-0.016c-0.271-0.023-0.654-0.108-0.848-0.587     c-0.165-0.403-0.349-0.801-0.541-1.194c-0.188-0.386-0.116-0.75,0.199-1.026c0.243-0.212,0.483-0.428,0.724-0.643     c0.313-0.281,0.627-0.562,0.946-0.835c-0.072-0.141-0.134-0.279-0.193-0.419l-0.107-0.242c-0.16-0.341-0.182-0.652-0.065-0.926     c0.118-0.277,0.362-0.48,0.728-0.606c0.242-0.083,0.465-0.159,0.713-0.174c0.238-0.014,0.411-0.135,0.663-0.46l0.486,0.197     l-0.399-0.301c0.381-0.507,0.849-0.683,1.57-0.557c0.852,0.149,1.492,0.516,2.017,1.154c0.071,0.087,0.162,0.157,0.249,0.228     l0.164,0.138c0.181,0.16,0.221,0.427,0.095,0.634l-0.215,0.362c-0.154,0.264-0.3,0.51-0.465,0.743     c-0.196,0.275-0.296,0.591-0.314,0.993c-0.036,0.792-0.372,1.417-0.696,2.022c-0.335,0.625-0.8,0.958-1.508,1.08     c-0.268,0.046-0.534,0.103-0.8,0.159C17.723,47.188,17.062,47.329,16.365,47.329z M15.516,45.184     c0.189,0.392,0.364,0.775,0.523,1.165c0.111-0.023,0.22-0.02,0.326-0.02c0.592,0,1.173-0.124,1.789-0.254     c0.279-0.06,0.559-0.119,0.84-0.167c0.399-0.068,0.607-0.217,0.795-0.567c0.284-0.53,0.553-1.03,0.579-1.595     c0.026-0.594,0.189-1.093,0.498-1.527c0.148-0.208,0.277-0.431,0.416-0.668l0.005-0.008c-0.074-0.067-0.146-0.138-0.208-0.214     c-0.368-0.449-0.805-0.697-1.415-0.803c-0.262-0.046-0.408-0.081-0.6,0.173c-0.007,0.01-0.064,0.079-0.072,0.087     c-0.328,0.422-0.733,0.833-1.417,0.874c-0.112,0.007-0.253,0.055-0.402,0.106c-0.1,0.034-0.148,0.059-0.171,0.073     c0.008,0.013,0.019,0.049,0.044,0.103l0.12,0.27c0.062,0.146,0.125,0.292,0.204,0.43c0.16,0.277,0.251,0.693-0.224,1.1     c-0.333,0.284-0.658,0.575-0.983,0.867C15.948,44.801,15.732,44.994,15.516,45.184z"></path></g><g><path fill="#000000" d="M31.579,76.282c-0.359,0-0.738-0.18-1.012-0.48c-0.252-0.276-0.373-0.607-0.343-0.932     c0.062-0.673,0.142-1.282,0.24-1.861c0.101-0.593,0.123-1.012-0.062-1.401c-0.251-0.53,0.081-0.88,0.206-1.012     c0.026-0.146,0.134-0.274,0.264-0.348c0.13-0.074,0.303-0.087,0.439-0.032c0.197,0.075,0.4,0.152,0.511,0.182     c0.007-0.01,0.015-0.02,0.022-0.03l-0.033-0.083c-0.116-0.295-0.232-0.586-0.329-0.885c-0.06-0.184-0.041-0.353-0.028-0.477     c0.004-0.034,0.01-0.068,0.008-0.102c-0.047-0.114-0.095-0.171-0.142-0.229l-0.089-0.113c-0.123-0.162-0.135-0.383-0.031-0.558     c0.169-0.283,0.45-0.756,1.149-0.756c-0.028-0.008,0.079-0.117,0.144-0.183l0.099-0.099c0.202-0.199,0.726-0.41,1.114-0.026     c0.013,0.013,0.049,0.041,0.135,0.084c0.262,0.13,0.548,0.4,0.424,0.956c-0.046,0.209-0.07,0.423-0.095,0.637     c-0.017,0.137-0.032,0.273-0.053,0.408c-0.028,0.191-0.071,0.354-0.132,0.493c-0.056,0.128-0.12,0.251-0.184,0.373     c-0.042,0.081-0.085,0.162-0.124,0.244L33.6,70.214c-0.047,0.094-0.124,0.247-0.129,0.308c0.006,0.001,0.032,0.029,0.098,0.069     c0.192,0.118,0.285,0.299,0.348,0.419l0.093,0.168c0.188,0.331,0.541,0.946-0.028,1.624c-0.004,0.017-0.019,0.135-0.028,0.213     c-0.015,0.11-0.029,0.222-0.055,0.324c-0.036,0.143-0.08,0.282-0.124,0.422l-0.037,0.119c-0.008,0.027-0.042,0.107-0.055,0.133     l-0.196,1.457c-0.03,0.216-0.196,0.387-0.411,0.424l-0.221,0.033c-0.126,0.019-0.246,0.033-0.36,0.068     c-0.083,0.024-0.161,0.062-0.24,0.097c-0.129,0.059-0.258,0.115-0.393,0.152C31.771,76.27,31.677,76.282,31.579,76.282z      M31.36,71.299c0.266,0.655,0.188,1.31,0.091,1.878c-0.095,0.555-0.171,1.139-0.23,1.786c-0.003,0.025,0.019,0.092,0.087,0.166     c0.102,0.111,0.281,0.151,0.283,0.152c0.087-0.024,0.168-0.062,0.249-0.1c0.12-0.055,0.241-0.108,0.367-0.146     c0.109-0.032,0.223-0.055,0.34-0.074l0.165-1.172c0.008-0.053,0.053-0.181,0.077-0.229l0.03-0.099     c0.038-0.122,0.077-0.245,0.108-0.368c0.016-0.063,0.023-0.134,0.031-0.204c0.028-0.225,0.063-0.504,0.256-0.733     c0.106-0.126,0.12-0.143-0.074-0.483c-0.039-0.067-0.077-0.135-0.112-0.203c-0.21-0.138-0.348-0.287-0.435-0.439     C32.329,71.36,31.999,71.521,31.36,71.299z M32.26,68.178c0.021,0.029,0.039,0.06,0.058,0.091     c0.082,0.144,0.133,0.317,0.144,0.492c0.005,0.089-0.002,0.179-0.012,0.268c0.064,0.289,0.152,0.528,0.244,0.763     c0.005-0.009,0.009-0.018,0.014-0.026l0.066-0.136c0.046-0.098,0.095-0.19,0.144-0.284c0.053-0.102,0.106-0.203,0.152-0.308     c0.024-0.058,0.045-0.137,0.061-0.241c0.019-0.125,0.033-0.251,0.047-0.377c0.025-0.218,0.052-0.436,0.094-0.649     c-0.032-0.02-0.062-0.038-0.091-0.058c-0.197,0.199-0.462,0.453-0.814,0.453C32.321,68.16,32.29,68.165,32.26,68.178z"></path></g><g><path fill="#000000" d="M40.059,81.436c-0.223,0-0.449-0.001-0.676-0.005c-0.231-0.007-0.529-0.134-0.647-0.398     c-0.012-0.006-0.093-0.025-0.146-0.038c-0.072-0.017-0.145-0.034-0.217-0.058c-0.235-0.076-0.479-0.134-0.722-0.191     c-0.563-0.133-1.145-0.27-1.69-0.622c-0.067-0.043-0.195-0.075-0.331-0.11c-0.096-0.024-0.194-0.05-0.295-0.082     c-0.23-0.074-0.374-0.301-0.344-0.54l0.053-0.456c0.045-0.402,0.09-0.819,0.186-1.235c0.104-0.463,0.531-0.786,1.037-0.786     c0.26,0.006,0.492,0.007,0.726,0.007l0.815-0.002l0.417,0.002c0.112,0.001,0.306,0.02,0.482,0.113     c0.128-0.093,0.385-0.14,0.63-0.089c0.186,0.039,0.366,0.082,0.547,0.125c0.215,0.052,0.431,0.103,0.647,0.146     c0.376,0.076,0.679,0.275,0.851,0.562c0.163,0.27,0.199,0.599,0.102,0.929c-0.024,0.082-0.023,0.108-0.023,0.111     c0.27,0.292,0.289,0.601,0.304,0.826c0.005,0.064,0.008,0.128,0.019,0.186c0.104,0.576-0.162,0.896-0.434,1.069     c-0.009,0.019-0.018,0.039-0.027,0.06c-0.032,0.071-0.068,0.147-0.113,0.226c-0.09,0.155-0.255,0.251-0.434,0.251L40.059,81.436z      M39.538,80.433c0.173,0.003,0.348,0.003,0.521,0.003h0.403c0.066-0.132,0.162-0.278,0.332-0.371     c-0.014-0.148-0.022-0.252-0.028-0.355c-0.005-0.068-0.012-0.172-0.023-0.205c-0.362-0.367-0.31-0.774-0.219-1.081     c0.01-0.033,0.022-0.094,0.001-0.129c-0.019-0.032-0.08-0.075-0.191-0.098c-0.229-0.046-0.455-0.1-0.682-0.153     c-0.139-0.033-0.277-0.066-0.417-0.098c-0.171,0.161-0.353,0.19-0.465,0.19c-0.248,0-0.439-0.134-0.578-0.25l-1.2,0.034     c-0.241,0-0.481-0.002-0.722-0.007c-0.148,0.369-0.191,0.756-0.232,1.131l-0.005,0.041c0.157,0.044,0.316,0.1,0.469,0.198     c0.402,0.259,0.876,0.37,1.379,0.489c0.27,0.063,0.539,0.128,0.802,0.213c0.046,0.016,0.093,0.025,0.138,0.036     C39.015,80.068,39.322,80.141,39.538,80.433z"></path></g><g><path fill="#000000" d="M55.88,85.812c-0.064,0-0.128-0.005-0.185-0.012c-0.334-0.041-0.667-0.106-1-0.172l-0.182-0.035     c-0.181-0.033-0.397-0.071-0.572-0.234c-0.307-0.291-0.719-0.376-1.195-0.475c-0.02-0.004-0.086-0.022-0.104-0.028     c-0.979-0.284-1.116-0.451-1.232-1.492c-0.029-0.263,0.15-0.502,0.41-0.548c0.66-0.118,1.284,0.016,1.869,0.145l0.305,0.065     c0.327,0.067,0.579,0.09,0.817,0.069c0.874-0.081,1.69-0.068,2.362,0.229c0.197,0.088,0.468,0.107,0.754,0.128     c0.156,0.012,0.312,0.023,0.465,0.045c0.269,0.037,0.458,0.282,0.428,0.552c-0.084,0.738-0.246,0.998-1.038,1.083     c-0.586,0.063-0.943,0.196-1.231,0.459C56.352,85.772,56.076,85.812,55.88,85.812z M52.5,83.774     c0.06,0.016,0.241,0.068,0.418,0.119c0.577,0.124,1.197,0.252,1.709,0.736l0.263,0.018c0.308,0.061,0.617,0.122,0.928,0.16     l0.062,0.004c0.039,0,0.063-0.005,0.069-0.007c0.276-0.263,0.603-0.42,0.936-0.52c-0.04-0.014-0.079-0.029-0.118-0.047     c-0.507-0.226-1.163-0.212-1.864-0.147c-0.338,0.029-0.683,0.002-1.11-0.085l-0.318-0.069     C53.136,83.862,52.814,83.792,52.5,83.774z"></path></g><g><path fill="#000000" d="M24.019,73.903c-0.315,0-0.477-0.138-0.557-0.253c0,0-0.045-0.052-0.062-0.07     c-0.01,0.007-0.055,0.021-0.133,0.066c-0.118,0.069-0.263,0.087-0.394,0.045c-0.133-0.04-0.242-0.133-0.304-0.257     c-0.494-0.997-0.519-1.432,0.291-2.211c0.124-0.12,0.301-0.168,0.47-0.124l0.311,0.073c0.26,0.058,0.527,0.118,0.785,0.227     c0.311,0.132,0.584,0.443,0.667,0.758c0.173,0.649,0.02,1.201-0.431,1.553C24.434,73.889,24.112,73.903,24.019,73.903z      M24.015,72.902l0.004,0.501v-0.5C24.018,72.903,24.017,72.903,24.015,72.902z M23.423,72.58c0.19,0,0.447,0.057,0.688,0.293     c0.028-0.041,0.094-0.166,0.016-0.461c-0.01-0.022-0.062-0.077-0.091-0.093c-0.188-0.078-0.395-0.122-0.613-0.171l-0.059-0.015     c-0.141,0.154-0.164,0.25-0.085,0.457C23.328,72.584,23.376,72.58,23.423,72.58z"></path></g></g></g></svg>