<svg height='100px' width='100px'  fill="#000000" xmlns="http://www.w3.org/2000/svg" xmlns:xlink="http://www.w3.org/1999/xlink" version="1.1" x="0px" y="0px" viewBox="0 0 100 100" enable-background="new 0 0 100 100" xml:space="preserve"><g><path fill="none" stroke="#000000" stroke-width="0.75" stroke-linecap="round" stroke-linejoin="round" stroke-miterlimit="10" d="   M91.125,70c0.129-0.045-1.533-0.227-2.402-0.528c-0.898-0.311-1.824-1.046-2.507-1.691c-0.641-0.605-1.42-1.776-2.565-1.633   c-0.843,0.105-1.792,1.448-2.803,0.493c-1.215,0.475-2.24,0.769-3.451,1.11c-0.721,0.204-1.108,0.507-1.725,0.99   c-0.309,0.242-1.05,1.068-1.427,1.12c-0.39,0.054-0.229-0.283-0.488-0.339c-0.571-0.125-0.828-0.543-1.217-0.683   c-0.417-0.15-0.914,0.025-1.29-0.214c-0.395-0.251-0.325-0.902-0.778-1.099c-0.52-0.226-0.747,0.372-1.328,0.203   c0.158-1.167-1.655-1.438-2.402-0.828c-0.643,0.524-0.36,2.242-1.973,1.84c0.06-0.391-0.151-0.75-0.166-1.111   c-0.669,0.353-1.573,1.509-2.336,0.97c1.197-1.332-0.88-2.219-1.988-1.937c-1.103,0.281-1.96,2.025-2.9,1.084   c-0.521-0.522-0.179-1.16-0.466-1.75c-0.251-0.515-0.937-0.968-1.412-1.247c-1.317-0.772-2.415-0.621-2.777,0.987   c-0.601-0.542-0.817-0.744-1.598-0.987c-0.607-0.189-1.648,0.084-2.125-0.12c-0.617-0.263-0.673-1.141-1.369-1.386   c-0.674-0.237-2.285,0.412-2.843,0.767c0.038-0.024,0.284-0.121,0.325-0.134c-0.26-0.928,0.479-2.2-0.732-2.727   c-0.704-0.307-1.889-0.109-2.763,0.09c-0.407,0.093-0.343,0.497-0.966,0.484c-0.12-0.002-1.046-0.46-1.158-0.569   c-0.637-0.618-1.145-1.754-1.744-2.531l0.125-22.75C37.917,35.917,9.25,35,9.25,35c0.108,0.076,0.053-5.196,0-5.125l79.125,0.375   c0.177,1.483-0.376,2.894,0.027,4.472c0.342,1.338,0.763,2.959,0.947,4.399c0.259,2.004,0.346,3.633,1.057,5.534   c0.555,1.483,0.656,2.687,0.737,4.269c-0.04-0.119-0.13-0.178-0.269-0.175L91.125,70z"></path></g></svg>