<svg height='100px' width='100px'  fill="#000000" xmlns="http://www.w3.org/2000/svg" xmlns:xlink="http://www.w3.org/1999/xlink" xml:space="preserve" style="shape-rendering:geometricPrecision;text-rendering:geometricPrecision;image-rendering:optimizeQuality;" viewBox="0 0 6.82666 6.82666" x="0px" y="0px" fill-rule="evenodd" clip-rule="evenodd"><defs><style type="text/css">
   
    .fil1 {fill:none}
    .fil0 {fill:#000000;fill-rule:nonzero}
   
  </style></defs><g><path class="fil0" d="M3.43445 3.88675l-2.25206 -0.200768 0.00358268 -0.0413425 -0.00370079 0.0415039c-0.0229213,-0.00204331 -0.0398465,-0.0222835 -0.0378031,-0.0452047 0.000925197,-0.0103858 0.00558661,-0.0195394 0.0125433,-0.0262598l2.4679 -2.46791 -3.93701e-006 -3.93701e-006c0.0162717,-0.0162717 0.0426575,-0.0162717 0.0589291,0 0.0094252,0.0094252 0.0133898,0.022248 0.0118937,0.0345315l-0.212319 2.66771 -0.0415039 -0.00325591 0.0415354 0.00330709c-0.00182283,0.022937 -0.0219055,0.0400512 -0.0448425,0.0382283 -0.00140945,-0.000110236 -0.00279134,-0.000291339 -0.00415354,-0.00053937zm-2.15613 -0.275539l2.12541 0.189476 0.200173 -2.51506 -2.32558 2.32559z"></path><path class="fil0" d="M3.01082 3.33922l0.068378 -0.981043 -0.906339 0.906339 0.837961 0.0747047zm0.15911 -1.08631l-0.0788858 1.1318c-1.1811e-005,0.00109055 -6.69291e-005,0.00219685 -0.000165354,0.00330709 -0.00204331,0.0229213 -0.0222835,0.0398465 -0.0452047,0.0378031l1.5748e-005 -0.000169291 -0.965106 -0.0860394c-0.010689,1.5748e-005 -0.0213858,-0.00405118 -0.0295394,-0.0122047 -0.0162717,-0.0162717 -0.0162717,-0.0426575 0,-0.0589291l3.93701e-006 3.93701e-006 1.04757 -1.04757c0.00824803,-0.00844488 0.0200157,-0.0133465 0.0327126,-0.0124606 0.0229567,0.00159843 0.0402677,0.0215079 0.0386693,0.0444646l-7.08661e-005 -3.93701e-006z"></path><path class="fil0" d="M3.33172 1.80412c0.0162677,0.0162677 0.0426535,0.0162677 0.0589213,0 0.0162677,-0.0162677 0.0162677,-0.0426535 0,-0.0589213l-0.152614 -0.152618c-0.0162677,-0.0162677 -0.0426535,-0.0162677 -0.0589213,0 -0.0162677,0.0162677 -0.0162677,0.0426535 0,0.0589213l0.152614 0.152618z"></path><path class="fil0" d="M3.09749 1.92028c0.0162677,0.0162677 0.0426535,0.0162677 0.0589213,0 0.0162677,-0.0162677 0.0162677,-0.0426535 0,-0.0589213l-0.0935787 -0.0935827c-0.0162677,-0.0162677 -0.0426535,-0.0162677 -0.0589213,0 -0.0162677,0.0162677 -0.0162677,0.0426535 0,0.0589213l0.0935787 0.0935827z"></path><path class="fil0" d="M2.98133 2.15452c0.0162677,0.0162677 0.0426535,0.0162677 0.0589213,0 0.0162677,-0.0162677 0.0162677,-0.0426535 0,-0.0589213l-0.152614 -0.152618c-0.0162677,-0.0162677 -0.0426535,-0.0162677 -0.0589213,0 -0.0162677,0.0162677 -0.0162677,0.0426535 0,0.0589213l0.152614 0.152618z"></path><path class="fil0" d="M2.74709 2.27068c0.0162677,0.0162677 0.0426535,0.0162677 0.0589213,0 0.0162677,-0.0162677 0.0162677,-0.0426535 0,-0.0589213l-0.0935827 -0.0935827c-0.0162677,-0.0162677 -0.0426535,-0.0162677 -0.0589213,0 -0.0162677,0.0162677 -0.0162677,0.0426535 0,0.0589213l0.0935827 0.0935827z"></path><path class="fil0" d="M2.63093 2.50492c0.0162677,0.0162677 0.0426535,0.0162677 0.0589213,0 0.0162677,-0.0162677 0.0162677,-0.0426535 0,-0.0589213l-0.152618 -0.152618c-0.0162677,-0.0162677 -0.0426535,-0.0162677 -0.0589213,0 -0.0162677,0.0162677 -0.0162677,0.0426535 0,0.0589213l0.152618 0.152618z"></path><path class="fil0" d="M2.3967 2.62108c0.0162677,0.0162677 0.0426535,0.0162677 0.0589213,0 0.0162677,-0.0162677 0.0162677,-0.0426535 0,-0.0589213l-0.0935827 -0.0935827c-0.0162677,-0.0162677 -0.0426535,-0.0162677 -0.0589213,0 -0.0162677,0.0162677 -0.0162677,0.0426535 0,0.0589213l0.0935827 0.0935827z"></path><path class="fil0" d="M2.28053 2.85531c0.0162677,0.0162677 0.0426535,0.0162677 0.0589213,0 0.0162677,-0.0162677 0.0162677,-0.0426535 0,-0.0589213l-0.152618 -0.152618c-0.0162677,-0.0162677 -0.0426535,-0.0162677 -0.0589213,0 -0.0162677,0.0162677 -0.0162677,0.0426535 0,0.0589213l0.152618 0.152618z"></path><path class="fil0" d="M2.0463 2.97148c0.0162677,0.0162677 0.0426535,0.0162677 0.0589213,0 0.0162677,-0.0162677 0.0162677,-0.0426535 0,-0.0589213l-0.0935827 -0.0935827c-0.0162677,-0.0162677 -0.0426535,-0.0162677 -0.0589213,0 -0.0162677,0.0162677 -0.0162677,0.0426535 0,0.0589213l0.0935827 0.0935827z"></path><path class="fil0" d="M1.93013 3.20571c0.0162677,0.0162677 0.0426535,0.0162677 0.0589213,0 0.0162677,-0.0162677 0.0162677,-0.0426535 0,-0.0589213l-0.152618 -0.152614c-0.0162677,-0.0162677 -0.0426535,-0.0162677 -0.0589213,0 -0.0162677,0.0162677 -0.0162677,0.0426535 0,0.0589213l0.152618 0.152614z"></path><path class="fil0" d="M1.6959 3.32188c0.0162677,0.0162677 0.0426535,0.0162677 0.0589213,0 0.0162677,-0.0162677 0.0162677,-0.0426535 0,-0.0589213l-0.0935827 -0.0935787c-0.0162677,-0.0162677 -0.0426535,-0.0162677 -0.0589213,0 -0.0162677,0.0162677 -0.0162677,0.0426535 0,0.0589213l0.0935827 0.0935787z"></path><path class="fil0" d="M3.52233 2.79362c-0.0230118,0 -0.0416693,0.0186575 -0.0416693,0.0416693 0,0.0230118 0.0186575,0.0416693 0.0416693,0.0416693l2.32933 0 0 2.7318 -4.87666 0 0 -0.544469 0 -2.18733 1.02032 0c0.0230118,0 0.0416693,-0.0186575 0.0416693,-0.0416693 0,-0.0230118 -0.0186575,-0.0416693 -0.0416693,-0.0416693l-1.06199 0c-0.0230118,0 -0.0416693,0.0186575 -0.0416693,0.0416693l0 2.229 0 0.586138c0,0.0230118 0.0186575,0.0416693 0.0416693,0.0416693l4.96 0c0.0230118,0 0.0416693,-0.0186575 0.0416693,-0.0416693l0 -2.81513c0,-0.0230118 -0.0186575,-0.0416693 -0.0416693,-0.0416693l-2.371 0z"></path><path class="fil0" d="M4.02163 4.25406l1.37258 0c0.0230118,0 0.0416693,0.0186575 0.0416693,0.0416693l0 0.873461c0,0.0230118 -0.0186575,0.0416693 -0.0416693,0.0416693l-1.37258 0c-0.0230118,0 -0.0416693,-0.0186575 -0.0416693,-0.0416693l0 -0.873461c0,-0.0230118 0.0186575,-0.0416693 0.0416693,-0.0416693zm1.33091 0.0833386l-1.28924 0 0 0.790122 1.28924 0 0 -0.790122z"></path><path class="fil0" d="M4.0633 3.75494l1.28924 0 0 -0.415783 -1.28924 0 0 0.415783zm1.33091 0.0833386l-1.37258 0c-0.0230118,0 -0.0416693,-0.0186575 -0.0416693,-0.0416693l0 -0.499122c0,-0.0230118 0.0186575,-0.0416693 0.0416693,-0.0416693l1.37258 0c0.0230118,0 0.0416693,0.0186575 0.0416693,0.0416693l0 0.499122c0,0.0230118 -0.0186575,0.0416693 -0.0416693,0.0416693z"></path><path class="fil0" d="M0.933331 4.92513c-0.0230118,0 -0.0416693,0.0186575 -0.0416693,0.0416693 0,0.0230118 0.0186575,0.0416693 0.0416693,0.0416693l1.33355 0c0.0230118,0 0.0416693,-0.0186575 0.0416693,-0.0416693 0,-0.0230118 -0.0186575,-0.0416693 -0.0416693,-0.0416693l-1.33355 0z"></path><path class="fil0" d="M2.54944 4.92513c-0.0230118,0 -0.0416693,0.0186575 -0.0416693,0.0416693 0,0.0230118 0.0186575,0.0416693 0.0416693,0.0416693l0.452622 0c0.0230118,0 0.0416693,-0.0186575 0.0416693,-0.0416693 0,-0.0230118 -0.0186575,-0.0416693 -0.0416693,-0.0416693l-0.452622 0z"></path><path class="fil0" d="M3.64729 5.33564c0.0230118,0 0.0416693,-0.0186575 0.0416693,-0.0416693 0,-0.0230118 -0.0186575,-0.0416693 -0.0416693,-0.0416693l-1.74947 0c-0.0230118,0 -0.0416693,0.0186575 -0.0416693,0.0416693 0,0.0230118 0.0186575,0.0416693 0.0416693,0.0416693l1.74947 0z"></path><path class="fil0" d="M1.52713 5.33564c0.0230118,0 0.0416693,-0.0186575 0.0416693,-0.0416693 0,-0.0230118 -0.0186575,-0.0416693 -0.0416693,-0.0416693l-0.593791 0c-0.0230118,0 -0.0416693,0.0186575 -0.0416693,0.0416693 0,0.0230118 0.0186575,0.0416693 0.0416693,0.0416693l0.593791 0z"></path></g><rect class="fil1" width="6.82666" height="6.82666"></rect></svg>