<svg height='100px' width='100px'  fill="#000000" xmlns="http://www.w3.org/2000/svg" xmlns:xlink="http://www.w3.org/1999/xlink" version="1.1" x="0px" y="0px" viewBox="0 0 94 94" enable-background="new 0 0 94 94" xml:space="preserve"><g><g><path d="M10.77441,86.03957H2c-0.41406,0-0.75,0.33594-0.75,0.75s0.33594,0.75,0.75,0.75h8.77441    c0.41406,0,0.75-0.33594,0.75-0.75S11.18848,86.03957,10.77441,86.03957z"></path></g><g><path d="M92,86.03957h-8.77441c-0.41406,0-0.75,0.33594-0.75,0.75s0.33594,0.75,0.75,0.75H92c0.41406,0,0.75-0.33594,0.75-0.75    S92.41406,86.03957,92,86.03957z"></path></g><g><path d="M14.34766,87.53957c8.08694,0,57.00467,0,65.30469,0c0.41406,0,0.75-0.33594,0.75-0.75s-0.33594-0.75-0.75-0.75h-3.77051    c0.29492-0.47803,0.47363-1.0354,0.47363-1.63721c0-1.72998-1.40723-3.13721-3.1377-3.13721h-0.90674    c0.89746-1.34723,1.38037-2.92834,1.38037-4.58398c0-1.67914-0.49805-3.28076-1.42017-4.64044    c1.2771-0.25952,2.24146-1.39056,2.24146-2.74335c0-1.53857-1.25586-2.79004-2.7998-2.79004h-1.34033    c-2.75684-3.41937-2.50952-12.94189-2.38159-15.58984h0.19165c1.79199,0,3.25-1.45801,3.25-3.25s-1.45801-3.25-3.25-3.25h-3.03955    l1.65088-7.25342c0.05078-0.22266-0.00293-0.45605-0.14551-0.63428c-0.1416-0.17822-0.35742-0.28223-0.58594-0.28223h-4.00781    v-3.95264h1.97754c0.41406,0,0.75-0.33594,0.75-0.75s-0.33594-0.75-0.75-0.75h-1.97754v-1.97852c0-0.41406-0.33594-0.75-0.75-0.75    s-0.75,0.33594-0.75,0.75v1.97852H58.5752c-0.41406,0-0.75,0.33594-0.75,0.75s0.33594,0.75,0.75,0.75h1.97949v3.92151    c-4.34871-8.39588-12.82215-13.22913-21.76172-13.22913c-13.59401,0-24.53597,11.07371-24.54077,24.53119    c0,0.00378-0.0022,0.00696-0.0022,0.0108c0,0.00403,0.0022,0.00732,0.00244,0.01135    c0.00886,17.71054,18.20675,29.35181,33.99121,22.64124c0.34172,1.00219,1.16127,1.66444,2.10034,1.85541    c-1.87744,2.77435-1.89404,6.44043-0.04395,9.22784h-0.90942c-1.72949,0-3.13672,1.40723-3.13672,3.13721    c0,0.60181,0.17871,1.15918,0.47363,1.63721H14.34766c-0.41406,0-0.75,0.33594-0.75,0.75S13.93359,87.53957,14.34766,87.53957z     M33.46509,25.1321c-2.21997,1.89105-4.08765,4.94037-5.40405,8.77533c-1.72339-0.90924-3.34497-2.02783-4.81104-3.37158    C26.15336,27.88314,29.5293,26.06148,33.46509,25.1321z M22.18311,31.58406c1.64551,1.51752,3.46484,2.78766,5.41455,3.78839    c-0.98364,3.3634-1.56348,7.23865-1.62622,11.40686H15.771C15.95996,40.89223,18.36621,35.55855,22.18311,31.58406z     M15.771,48.27931h10.20044c0.06274,4.16907,0.64282,8.04517,1.62671,11.40906c-1.94897,0.99976-3.76807,2.26831-5.41357,3.78369    C18.36768,59.49831,15.96118,54.16554,15.771,48.27931z M23.25146,64.52034c1.46631-1.34155,3.0874-2.45898,4.8103-3.36707    c1.31445,3.82849,3.17822,6.87384,5.39355,8.76532C29.48351,68.97878,26.07474,67.10358,23.25146,64.52034z M38.03906,70.51326    c-3.57275-0.47778-6.69824-4.33569-8.60718-10.01721c2.68726-1.1947,5.59619-1.86713,8.60718-1.96381V70.51326z M38.03906,57.0157    c-3.16309,0.09503-6.22559,0.78632-9.05713,2.01984c-0.90674-3.18518-1.44873-6.84839-1.51074-10.75623h10.56787V57.0157z     M38.03906,46.77931H27.47119c0.06201-3.9068,0.60376-7.56909,1.51001-10.75366c2.83105,1.23407,5.8938,1.92535,9.05786,2.01984    V46.77931z M38.03906,36.52907c-3.01196-0.09613-5.92114-0.76868-8.60815-1.96399    c1.90894-5.68262,5.03491-9.54138,8.60815-10.01923V36.52907z M68.57324,66.50734H54.03613    c2.1418-3.80471,2.29606-11.23393,2.08105-15.58984H66.4873C66.35547,53.60255,66.14844,62.18214,68.57324,66.50734z     M53.94312,62.26399c-1.24536-0.9809-2.57202-1.83533-3.96948-2.55139c0.91357-3.11517,1.4812-6.67029,1.61133-10.49188    c0.55322,1.00568,1.61035,1.69678,2.83691,1.69678h0.18457C54.75156,54.36125,54.68024,58.86634,53.94312,62.26399z     M68.18262,45.9175c0.96484,0,1.75,0.78516,1.75,1.75s-0.78516,1.75-1.75,1.75c-2.79348,0-10.97143,0-13.76074,0    c-0.96484,0-1.75-0.78516-1.75-1.75s0.78516-1.75,1.75-1.75C55.10448,45.91745,68.28348,45.91661,68.18262,45.9175z     M65.12305,37.74757l-1.51855,6.66992h-1.13184h-3.4624l-1.52588-6.66992C58.19045,37.74757,65.59609,37.74757,65.12305,37.74757z     M58.88281,36.24757h-2.33984c-0.22852,0-0.44434,0.104-0.58691,0.28271c-0.1416,0.17822-0.19531,0.41211-0.14453,0.63477    l1.65918,7.25244h-3.04883c-1.21924,0-2.27075,0.6828-2.8269,1.67847c-0.11255-3.90973-0.68408-7.54547-1.61401-10.72498    c1.9585-1.00574,3.78564-2.28369,5.43677-3.81085C56.74561,32.95119,57.91626,34.51711,58.88281,36.24757z M54.33008,30.53175    c-1.46631,1.34491-3.08838,2.46411-4.8125,3.37408c-1.31641-3.83374-3.18359-6.88226-5.40308-8.77307    C47.90063,26.02815,51.41016,27.85274,54.33008,30.53175z M39.53906,24.54585c3.57324,0.47778,6.69922,4.33606,8.6084,10.01807    c-2.68677,1.19574-5.59595,1.86859-8.6084,1.96503V24.54585z M39.53906,38.04543c3.16431-0.09467,6.22705-0.7865,9.05811-2.02106    c0.90674,3.18481,1.44873,6.8476,1.51074,10.75494H39.53906V38.04543z M39.53906,48.27931h10.56885    c-0.06201,3.91809-0.60693,7.59033-1.51807,10.78131c-2.84106-1.23804-5.90698-1.93384-9.05078-2.02948V48.27931z     M39.53906,70.51326V58.53017c2.99268,0.09692,5.91235,0.76483,8.60889,1.96301    C46.23877,66.17628,43.11255,70.03542,39.53906,70.51326z M48.19434,68.55605c-1.5267,0.64299-2.60358,1.04057-4.10156,1.38867    c2.22681-1.88763,4.10059-4.93933,5.4209-8.7804c1.41943,0.74701,2.77344,1.62604,4.01904,2.66541    c-0.76275,2.30477-0.97714,2.17206-1.68701,2.67517c-0.59078-0.0311-0.60786-0.00317-0.73438,0.00244    C51.01127,66.53911,48.73717,66.36339,48.19434,68.55605z M49.61816,69.16261c0.38272-1.65024-0.26234-1.15527,22.09473-1.15527    c0.7168,0,1.2998,0.57861,1.2998,1.29004c0,0.7168-0.58301,1.2998-1.2998,1.2998c-6.07045,0-14.65987,0-20.82031,0    C50.06845,70.59718,49.47401,69.7933,49.61816,69.16261z M72.19141,76.68117c0,1.71289-0.62988,3.3291-1.78027,4.58398H52.19727    c-2.36816-2.58789-2.36816-6.58008,0-9.16797h18.21387C71.56152,73.35207,72.19141,74.96828,72.19141,76.68117z     M49.39063,82.76515c8.861,0,14.85824,0,23.82715,0c0.90332,0,1.6377,0.73438,1.6377,1.63721s-0.73438,1.63721-1.6377,1.63721    H49.39063c-0.90234,0-1.63672-0.73438-1.63672-1.63721S48.48828,82.76515,49.39063,82.76515z"></path></g><g><path d="M45.78027,6.68019c-0.29297-0.29297-0.76758-0.29297-1.06055,0l-1.48047,1.48029l-1.48047-1.48029    c-0.29297-0.29297-0.76758-0.29297-1.06055,0s-0.29297,0.76758,0,1.06055l1.48047,1.48022l-1.48047,1.48022    c-0.29297,0.29297-0.29297,0.76758,0,1.06055c0.14648,0.14648,0.33789,0.21973,0.53027,0.21973s0.38379-0.07324,0.53027-0.21973    l1.48047-1.48029l1.48047,1.48029c0.14648,0.14648,0.33789,0.21973,0.53027,0.21973s0.38379-0.07324,0.53027-0.21973    c0.29297-0.29297,0.29297-0.76758,0-1.06055L44.2998,9.22096l1.48047-1.48022C46.07324,7.44777,46.07324,6.97316,45.78027,6.68019    z"></path></g><g><path d="M79.53027,21.19923c-0.29297-0.29297-0.76758-0.29297-1.06055,0l-1.48047,1.48047l-1.48047-1.48047    c-0.29297-0.29297-0.76758-0.29297-1.06055,0s-0.29297,0.76758,0,1.06055l1.48047,1.48047l-1.48047,1.48047    c-0.29297,0.29297-0.29297,0.76758,0,1.06055c0.14648,0.14648,0.33789,0.21973,0.53027,0.21973s0.38379-0.07324,0.53027-0.21973    l1.48047-1.48047l1.48047,1.48047c0.14648,0.14648,0.33789,0.21973,0.53027,0.21973s0.38379-0.07324,0.53027-0.21973    c0.29297-0.29297,0.29297-0.76758,0-1.06055l-1.48047-1.48047l1.48047-1.48047    C79.82324,21.96681,79.82324,21.4922,79.53027,21.19923z"></path></g><g><path d="M52.84082,8.47072c-0.41406,0-0.75,0.33594-0.75,0.75s0.33594,0.75,0.75,0.75h2c0.41406,0,0.75-0.33594,0.75-0.75    s-0.33594-0.75-0.75-0.75H52.84082z"></path></g><g><path d="M59.68359,14.6133c-0.41406,0-0.75,0.33594-0.75,0.75v2c0,0.41406,0.33594,0.75,0.75,0.75s0.75-0.33594,0.75-0.75v-2    C60.43359,14.94923,60.09766,14.6133,59.68359,14.6133z"></path></g><g><path d="M60.43359,11.53273c0.00098-0.07666-0.00098-0.15186-0.00684-0.22656c-0.03223-0.41309-0.4043-0.68408-0.80371-0.64111    c-0.41309,0.03125-0.7207,0.44092-0.68945,0.854v1.84424c0,0.41406,0.33594,0.75,0.75,0.75s0.75-0.33594,0.75-0.75V11.53273z"></path></g><g><path d="M64.29102,22.99025c-0.41406,0-0.75,0.33594-0.75,0.75s0.33594,0.75,0.75,0.75h2c0.41406,0,0.75-0.33594,0.75-0.75    s-0.33594-0.75-0.75-0.75H64.29102z"></path></g><g><path d="M68.29102,22.99025c-0.41406,0-0.75,0.33594-0.75,0.75s0.33594,0.75,0.75,0.75h2c0.41406,0,0.75-0.33594,0.75-0.75    s-0.33594-0.75-0.75-0.75H68.29102z"></path></g><g><path d="M48.84082,8.47072c-0.41406,0-0.75,0.33594-0.75,0.75s0.33594,0.75,0.75,0.75h2c0.41406,0,0.75-0.33594,0.75-0.75    s-0.33594-0.75-0.75-0.75H48.84082z"></path></g><g><path d="M59.68359,22.1133c0.41406,0,0.75-0.33594,0.75-0.75v-2c0-0.41406-0.33594-0.75-0.75-0.75s-0.75,0.33594-0.75,0.75v2    C58.93359,21.77736,59.26953,22.1133,59.68359,22.1133z"></path></g><g><path d="M61.98145,24.49025h0.30957c0.41406,0,0.75-0.33594,0.75-0.75s-0.33594-0.75-0.75-0.75h-0.30859    c-0.38574-0.00049-0.75488-0.14209-1.04004-0.3999c-0.30762-0.27832-0.78223-0.25488-1.05859,0.05273    c-0.27832,0.30713-0.25488,0.78125,0.05273,1.05957C60.49609,24.20998,61.22266,24.48976,61.98145,24.49025z"></path></g><g><path d="M57.38477,8.47072h-0.54395c-0.41406,0-0.75,0.33594-0.75,0.75s0.33594,0.75,0.75,0.75h0.54395    c0.33301,0,0.64941,0.10352,0.91602,0.2998c0.13379,0.09814,0.29004,0.14551,0.44336,0.14551    c0.23047,0,0.45801-0.10596,0.60547-0.30615c0.24512-0.3335,0.17383-0.80322-0.16016-1.04834    C58.66309,8.67482,58.03906,8.47072,57.38477,8.47072z"></path></g></g></svg>