<svg height='100px' width='100px'  fill="#000000" xmlns="http://www.w3.org/2000/svg" xmlns:xlink="http://www.w3.org/1999/xlink" version="1.1" x="0px" y="0px" viewBox="0 0 100 100" enable-background="new 0 0 100 100" xml:space="preserve"><g><path fill="none" stroke="#000000" stroke-width="0.75" stroke-linecap="round" stroke-linejoin="round" stroke-miterlimit="10" d="   M66.966,37.153c-0.018,0.15,0.207,0.377,0.165,0.603c-0.048,0.26-0.46,0.185-0.483,0.266c-0.236,0.831-0.303,1.755-0.253,2.709   c1.333,0.072,1.532,0.207,2.6,0.925c0.903,0.607,2.683,0.368,3.262,0.994c1.367,1.478-1.239,1.682-1.261,2.599   c-0.026,1.131,1.793,0.606,1.483,2.229C71.271,47.882,72.6,51.946,74,51.749c0.669-0.094,0.525-0.767,0.997-0.883   c0.585-0.145,0.871,0.378,1.28,0.63c1.198,0.736,0.808,1.03,1.191,2.159c0.54,1.587,2.52,3.191,1.79,5.101   c-0.467,1.222-3.402,4.132-4.746,3.724c0.158-0.505,0.125-1.107-0.26-1.504c-0.845,0.595-0.34,2.323-1.608,2.382   c0.054-0.243-0.083-0.591-0.036-0.839c-1.957-0.174-0.946,1.632-2.13,2.236c-0.799,0.408-2.79-0.034-3.712,0.013   c0.046,0.218-0.009,0.37,0.09,0.575c-0.619,0.716-0.646,1.425-1.385,2.122c-1.203,1.132-1.327,0.405-2.702,0.275   c0.04-1.019,0.088-1.59-0.985-1.619c-0.781-0.021-1.409,0.476-1.256,1.283c0.146,0.771,1.009,0.583,1.35,1.12   c0.686,1.077-0.217,0.667-0.738,1.257c-0.517,0.586-0.47,1.528-1.548,1.224c-0.498-0.14-1.218-1.098-1.226-1.631   c-0.016-1.077,1.013-1.088,0.135-1.75c-0.306-0.23-1.069-0.333-1.482-0.231c-0.131,0.736-0.312,1.55-0.421,2.23   c-0.15,0.935-0.206,0.745-0.634,1.467c-0.277,0.467-0.877,2.363-1.848,1.914c-0.866-0.4,0.157-1.25,0.509-1.63   c0.393-0.424,1.394-0.645,0.756-1.256c-0.196-0.188-1.687-0.042-1.981-0.116c-2.446-0.619-0.35-1.969-1.048-3.49   c-0.558,0.048-1.596,0.187-2.001,0.6c-0.578,0.59-0.676,1.335,0.261,1.413c-0.536,1.035-1.005,2.052-1.396,3.196   c-0.301,0.878-1.132,1.984-1.197,2.882C48.968,75.204,47.175,78.049,46,78c-1.491-0.062-1.952-1.95-3.125-0.25   c-0.38,0.551-0.085,0.924-0.845,1.351c-0.73,0.41-1.465,0.273-2.162,0.9c-1.019,0.916-2.415,3.147-3.141,0.771   c-1.012-0.279-1.368,0.898-2.333,0.833c-0.029-0.637-0.208-1.262-0.642-1.621c-1.051,0.869-3.335,2.573-2.384,4.096   c0.201-0.167,0.565-0.203,0.734-0.314c0.051,0.879,0.174,1.353-0.478,1.733c-0.538,0.314-1.415-0.028-1.975,0.495   c-0.939,0.876,0.113,1.208-0.017,1.752c-0.036,0.151-1.026,1.471-1.154,1.627c-1.094,1.331-2.632,0.377-2.857,2.625   c-0.166,1.654-0.392,2.307-1.119,3.873c-0.879-0.167-1.506-0.612-1.755-1.497C22.63,93.958,22.895,93.408,22.75,93   c-0.167-0.469-0.396-0.42-0.625-0.781c-0.35-0.554-0.733-1.25-1.132-1.719c-0.432-0.507-1.028-0.682-1.243-1.375L19.125,49.25   c0.372-0.45,1.021-0.664,1.625-0.5c1.031,0.28,0.471,1.479,1.216,1.787c1.306,0.539,1.016-3.081,1.053-3.771   c1.021-0.226,1.54,0.665,2.462,0.718c0.433-1.854-2.285-1.901-1.231-3.984c0.461-0.911,1.709-1.32,2.622-2.024   c0.778-0.601,1.442-1.212,2.484-1.373c0.146-0.586-0.443-1.075-0.362-1.479c0.159-0.795,0.667-0.602,1.262-1.094   c0.954-0.789,1.282-2.438-0.487-2.172c-0.063-1.522,1.729-2.449,1.455-3.861c-0.094-0.485-0.801-0.872-0.853-1.397   c-0.065-0.669,0.38-1.179,0.719-1.723c0.758-1.217,2.297-2.09,2.79-3.372c0.546-1.418-0.06-3.854,0.694-5.065   c-0.208-0.007-0.399-0.07-0.575-0.191L45.25,4.125c0.904,0.025,2.01-0.037,2.978,0.022c0.769,2.136-1.024,3.872,1.491,5.259   c1.512,0.834,1.312-0.374,2.656-0.875c0.58-0.216,0.969,0.083,1.5-0.032c0.771-0.167,0.661-0.445,1.151-0.844   c0.676-0.549,1.137-0.341,1.724-0.524c0.222-0.069,0.547,0.094,0.752-0.025c0.413-0.24,0.035-0.655,0.272-0.859   c1.18-1.012,1.696-0.403,2.847,0.412c0.869,0.616,2.105,0.827,2.822,1.591c0.811,0.864,0.629,2.461,1.407,3.155   c0.283,0.252,0.752,0.309,1.146,0.247L66.966,37.153z"></path></g></svg>