<svg height='100px' width='100px'  fill="#000000" xmlns="http://www.w3.org/2000/svg" viewBox="0 0 64 64" x="0px" y="0px"><title>neurology-medical-brain-science-anatomy</title><g data-name="outline create copy"><path d="M9.5,31v2A2.5,2.5,0,0,1,12,35.5a2.43,2.43,0,0,1-.24,1.07l1.81.86A4.61,4.61,0,0,0,14,35.5,4.51,4.51,0,0,0,9.5,31Z"></path><path d="M19.13,27.09A4.92,4.92,0,0,0,22,28V26a3,3,0,0,1-2.11-.89A5.8,5.8,0,0,0,20,24a6,6,0,0,0-.57-2.54A3,3,0,0,1,22,20V18a5,5,0,0,0-3.78,1.74A6,6,0,0,0,14,18v2a4,4,0,1,1-2.4,7.2l-1.2,1.6a6,6,0,0,0,8.73-1.71Z"></path><path d="M33,32a6,6,0,0,0-6,6h2a4,4,0,0,1,8,0h2A6,6,0,0,0,33,32Z"></path><path d="M39,18a3,3,0,0,1-3-3H34a5,5,0,0,0,5,5,4.93,4.93,0,0,0,.87-.09A5,5,0,0,1,35,26v2a7,7,0,0,0,6.75-8.83A5,5,0,0,0,44,15H42A3,3,0,0,1,39,18Z"></path><path d="M45,18v2a3,3,0,0,1,0,6v2a5,5,0,0,0,0-10Z"></path><path d="M30.76,29.43l1.81-.86A4.5,4.5,0,0,0,24,30.5h2a2.5,2.5,0,0,1,4.76-1.07Z"></path><path d="M32,25V23a4,4,0,0,1-4-4H26A6,6,0,0,0,32,25Z"></path><path d="M21,31a5,5,0,0,0-5,5h2a3,3,0,0,1,6,0h2A5,5,0,0,0,21,31Z"></path><path d="M61.91,23.54a5.11,5.11,0,0,0-.17-.7l-.06-.17a3.89,3.89,0,0,0-.21-.51c0-.08-.07-.16-.12-.24a4.15,4.15,0,0,0-.32-.53l-.2-.27a3.47,3.47,0,0,0-.25-.29,3.34,3.34,0,0,0-.32-.33c-.11-.11-.23-.21-.35-.31L59.66,20a5.5,5.5,0,0,0-.57-.36l-.1,0s0-.07,0-.1A6.51,6.51,0,0,0,52.5,13a6.39,6.39,0,0,0-1.63.21h0a6.06,6.06,0,0,0-.29-1l0-.15a6.9,6.9,0,0,0-.43-.86L50,11.07a7.22,7.22,0,0,0-.56-.77l-.1-.11a6.51,6.51,0,0,0-.7-.69h0a7.52,7.52,0,0,0-.82-.57l-.13-.08a8.65,8.65,0,0,0-.87-.41l-.17-.06a7.36,7.36,0,0,0-.95-.25l-.14,0A7.45,7.45,0,0,0,44.5,8a7.91,7.91,0,0,0-.85.06l-.2,0a6.11,6.11,0,0,0-.74.17l-.08,0a7.47,7.47,0,0,0-.79.29l-.14.07a6.21,6.21,0,0,0-.62.35l-.14.08a4.86,4.86,0,0,0-.64.48l-.15.13-.46.46-.13.15-.07.07a6.45,6.45,0,0,0-9.15-.84A6.94,6.94,0,0,0,26,8a7,7,0,0,0-.93.07l-.25,0a7.25,7.25,0,0,0-.78.17l-.13,0a6.47,6.47,0,0,0-.77.3l-.31.15c-.17.09-.34.18-.5.28s-.29.19-.43.29a5,5,0,0,0-.43.34c-.11.09-.22.18-.32.28l-.35.37c-.12.14-.24.27-.35.42a5.85,5.85,0,0,0-.34.48l-.13.2A7.39,7.39,0,0,0,17.5,11,7.5,7.5,0,0,0,10,18.09,6,6,0,0,0,5,24a5.87,5.87,0,0,0,.25,1.67l0,0a4.08,4.08,0,0,0-.57.34l-.35.26-.22.19a5.11,5.11,0,0,0-.57.57l-.15.17c-.1.13-.2.25-.29.38L2.84,28a5,5,0,0,0-.27.51,4.68,4.68,0,0,0-.19.45l-.1.27q-.1.36-.18.75l0,.21A6.11,6.11,0,0,0,2,31c0,.21,0,.43,0,.63l0,.18c0,.15,0,.3.07.44l.06.22c0,.13.06.25.1.38l.1.25.12.31c0,.1.09.19.13.28s.09.17.14.26l.17.28.15.22.21.28a1,1,0,0,1,.08.11A6.87,6.87,0,0,0,2,39a7,7,0,0,0,7,7,6.79,6.79,0,0,0,2.38-.44A9,9,0,0,0,20,52a8.94,8.94,0,0,0,5-1.52V54a1,1,0,0,0,1,1h5a1,1,0,0,0,.95-.68l3.17-9.51A5.67,5.67,0,0,0,36.5,45a5.5,5.5,0,0,0,5.13-3.54A7,7,0,0,0,46,35.8a1.54,1.54,0,0,0,0-.3V35s0-.06,0-.08a6,6,0,0,0,4.29-3.06h0l.2,0a5.34,5.34,0,0,0,3.89-.73A5.34,5.34,0,0,0,55.78,30h.07c.22,0,.43,0,.65,0A5.51,5.51,0,0,0,62,24.5a6.83,6.83,0,0,0-.06-.78ZM20,50a7,7,0,0,1-6.82-5.41A7.31,7.31,0,0,0,14.73,43a5.92,5.92,0,0,0,7.57-.83A7,7,0,0,0,26.92,44,7,7,0,0,1,20,50Zm10.28,3H27V48.64a8.87,8.87,0,0,0,2-4.93,7,7,0,0,0,2.73-1.53A5.58,5.58,0,0,0,33.29,44ZM56.5,28a3.39,3.39,0,0,1-.64-.07l-.12,0A3.5,3.5,0,0,1,53,24.5H51a5.49,5.49,0,0,0,2.69,4.72,3.36,3.36,0,0,1-.43.31A3.54,3.54,0,0,1,51.5,30a3.42,3.42,0,0,1-.79-.1l-.24-.07a3.44,3.44,0,0,1-1.88-1.39l-1.67,1.12a5.78,5.78,0,0,0,1.5,1.5A4,4,0,0,1,45.48,33a6.52,6.52,0,0,0-6-4v2A4.5,4.5,0,0,1,44,35.26,4.94,4.94,0,0,1,42,39a5.53,5.53,0,0,0-1.18-3L39.22,37.3A3.46,3.46,0,0,1,40,39.5,3.5,3.5,0,0,1,36.5,43a3.46,3.46,0,0,1-3.37-2.62A7,7,0,0,0,34,37H32a5,5,0,0,1-10,0H20a7,7,0,0,0,1,3.62A4,4,0,0,1,18,42a4,4,0,0,1-3.93-3.23l-.93.19H12.09a1.36,1.36,0,0,0,0,.2,5.92,5.92,0,0,0,1.14,2.46A5,5,0,0,1,4,39a4.92,4.92,0,0,1,.92-2.86A6,6,0,0,0,8,37V35a4,4,0,0,1-2.71-1.07c-.11-.11-.22-.23-.32-.35s-.15-.17-.22-.27a3.45,3.45,0,0,1-.25-.41l-.16-.29a4.26,4.26,0,0,1-.17-.54,1.69,1.69,0,0,1-.08-.24A3.84,3.84,0,0,1,4,31a3.67,3.67,0,0,1,.08-.75c0-.06,0-.12,0-.18a3.5,3.5,0,0,1,.17-.55l.06-.14a3.7,3.7,0,0,1,.32-.59l0,0a4.06,4.06,0,0,1,1.7-1.42l.14-.05A4,4,0,0,1,8,27V25a5.83,5.83,0,0,0-.84.07A3.91,3.91,0,0,1,7,24a4,4,0,0,1,3.18-3.91,7.49,7.49,0,0,0,3.32,4.76l1.07-1.7A5.5,5.5,0,0,1,17.5,13a5.53,5.53,0,0,1,1.72.28A7,7,0,0,0,19,15h2a5,5,0,0,1,.82-2.74l.1-.13a5.58,5.58,0,0,1,.49-.6.94.94,0,0,1,.1-.1,5,5,0,0,1,1.48-1l.19-.07a4,4,0,0,1,.67-.21l.24-.06A5.5,5.5,0,0,1,26,10a5.67,5.67,0,0,1,1,.1c.15,0,.3.1.45.14a3.52,3.52,0,0,1,.49.16,3.07,3.07,0,0,1,.31.17,4.59,4.59,0,0,1,.57.32L29,11a4.88,4.88,0,0,1,.59.52A5,5,0,0,1,31,15h2a7,7,0,0,0-1.28-4,4.46,4.46,0,0,1,6.68,1.3A6.57,6.57,0,0,0,38,14.5h2A4.47,4.47,0,0,1,40.75,12c0-.06.08-.1.11-.16a4.31,4.31,0,0,1,.39-.46l.16-.17a4.54,4.54,0,0,1,.48-.39l.13-.1a5.44,5.44,0,0,1,.67-.37l.2-.07a5.4,5.4,0,0,1,.57-.18l.24-.05a4.17,4.17,0,0,1,.8-.08,4.43,4.43,0,0,1,.9.09A4.52,4.52,0,0,1,49,14.47v.15a1,1,0,0,0,1,1,1,1,0,0,0,.6-.17,4.36,4.36,0,0,1,2-.45A4.49,4.49,0,0,1,57,19l-.45,0v2a3.42,3.42,0,0,1,1.24.24l.23.1a2.32,2.32,0,0,1,.41.22l.11.07a3.39,3.39,0,0,1,.9.91l0,0a4.11,4.11,0,0,1,.27.51l.06.14a2.44,2.44,0,0,1,.14.46,1.36,1.36,0,0,1,0,.17A3.46,3.46,0,0,1,56.5,28Z"></path><path d="M20,46a3,3,0,0,1-2.6-1.5l-1.73,1a5,5,0,0,0,8.66,0l-1.73-1A3,3,0,0,1,20,46Z"></path></g></svg>