<svg height='100px' width='100px'  fill="#000000" xmlns="http://www.w3.org/2000/svg" xmlns:xlink="http://www.w3.org/1999/xlink" version="1.1" x="0px" y="0px" viewBox="0 0 100 100" style="enable-background:new 0 0 100 100;" xml:space="preserve"><g><path d="M85.2,79.5h-4.8c0,0,0,0,0-0.1l-4-53.9h1c0.6,0,1-0.4,1-1v-5c0-0.6-0.4-1-1-1H64.8c-0.6,0-1,0.4-1,1v5   c0,0.6,0.4,1,1,1h1l-1.4,18.4l-2-4.8c-0.2-0.4-0.5-0.6-0.9-0.6H23.8c-0.4,0-0.8,0.2-0.9,0.6l-3,7c-0.1,0.1-0.1,0.3-0.1,0.4h-2   c-0.6,0-1,0.4-1,1v5c0,0.6,0.4,1,1,1h2v26h-5c-0.6,0-1,0.4-1,1s0.4,1,1,1h70.5c0.6,0,1-0.4,1-1S85.8,79.5,85.2,79.5z M77.7,69.7   H65.4v-6h11.8L77.7,69.7z M65.4,71.7h12.4l0.6,7.8h-13V71.7z M65.8,20.5h10.7v3H65.8V20.5z M74.5,25.5   C74.5,25.5,74.5,25.5,74.5,25.5l2.7,36.2H65.4v-8.2h2c0.6,0,1-0.4,1-1v-5c0-0.6-0.4-1-1-1h-1.2l1.6-20.9c0,0,0,0,0-0.1H74.5z    M24.4,40.5h36.3l2.6,6H21.9L24.4,40.5z M18.8,51.5v-3h47.7v3H18.8z M21.8,53.5h41.7v26h-15v-14c0-0.6-0.4-1-1-1h-9.7   c-0.6,0-1,0.4-1,1v14h-15V53.5z M46.4,79.5h-7.7v-13h7.7V79.5z"></path><rect x="26.3" y="58" width="5.8" height="2"></rect><rect x="26.3" y="65" width="5.8" height="2"></rect><rect x="26.3" y="72" width="5.8" height="2"></rect><rect x="53.3" y="58" width="5.8" height="2"></rect><rect x="53.3" y="65" width="5.8" height="2"></rect><rect x="53.3" y="72" width="5.8" height="2"></rect><rect x="39.3" y="58" width="5.8" height="2"></rect></g></svg>