<svg height='100px' width='100px'  fill="#000000" xmlns="http://www.w3.org/2000/svg" xmlns:xlink="http://www.w3.org/1999/xlink" version="1.1" x="0px" y="0px" viewBox="0 0 100 100" style="enable-background:new 0 0 100 100;" xml:space="preserve"><path d="M14.7055664,11v78c0,0.5522461,0.4477539,1,1,1h68.5888672c0.5522461,0,1-0.4477539,1-1V11c0-0.5522461-0.4477539-1-1-1  H15.7055664C15.1533203,10,14.7055664,10.4477539,14.7055664,11z M16.7055664,12h66.5888672v76H16.7055664V12z"></path><path d="M46.8334961,56.9755859l-8.890625-5.1328125c-0.3095703-0.1787109-0.6904297-0.1787109-1,0l-8.8901367,5.1328125  c-0.3095703,0.1787109-0.5,0.5087891-0.5,0.8662109v10.265625c0,0.3574219,0.1904297,0.6875,0.5,0.8662109l8.8901367,5.1328125  c0.1547852,0.0893555,0.3271484,0.1337891,0.5,0.1337891s0.3452148-0.0444336,0.5-0.1337891l8.890625-5.1328125  c0.3095703-0.1787109,0.5-0.5087891,0.5-0.8662109v-10.265625C47.3334961,57.484375,47.1430664,57.1542969,46.8334961,56.9755859z   M45.3334961,67.5302734l-7.890625,4.5551758l-7.8901367-4.5551758v-9.1113281l7.8901367-4.5551758l7.890625,4.5551758V67.5302734z"></path><path d="M62.3837891,52.3188477c-5.8759766,0-10.65625,4.7802734-10.65625,10.6557617s4.7802734,10.6557617,10.65625,10.6557617  c5.8754883,0,10.6557617-4.7802734,10.6557617-10.6557617S68.2592773,52.3188477,62.3837891,52.3188477z M62.3837891,71.6303711  c-4.7729492,0-8.65625-3.8828125-8.65625-8.6557617s3.8833008-8.6557617,8.65625-8.6557617s8.6557617,3.8828125,8.6557617,8.6557617  S67.1567383,71.6303711,62.3837891,71.6303711z"></path><path d="M38.328125,26.2944336c-0.3457031-0.6572266-1.4248047-0.6572266-1.7705078,0l-9.4824219,18.0385742  c-0.1630859,0.3100586-0.1518555,0.6826172,0.0292969,0.9824219s0.5058594,0.4829102,0.855957,0.4829102H46.925293  c0.3500977,0,0.6748047-0.1831055,0.855957-0.4829102s0.1923828-0.6723633,0.0292969-0.9824219L38.328125,26.2944336z   M29.6157227,43.7983398l7.8271484-14.8896484l7.8271484,14.8896484H29.6157227z"></path><path d="M54.4111328,45.7983398H70.355957c0.5522461,0,1-0.4477539,1-1V27.3813477c0-0.5522461-0.4477539-1-1-1H54.4111328  c-0.5522461,0-1,0.4477539-1,1v17.4169922C53.4111328,45.3505859,53.8588867,45.7983398,54.4111328,45.7983398z   M55.4111328,28.3813477H69.355957v15.4169922H55.4111328V28.3813477z"></path></svg>