<svg height='100px' width='100px'  fill="#000000" xmlns="http://www.w3.org/2000/svg" data-name="Layer 1" viewBox="0 0 100 100" x="0px" y="0px"><title>1</title><path d="M79.63,57.66a15.5,15.5,0,1,0,4.57,11A15.41,15.41,0,0,0,79.63,57.66ZM78.16,78.17a13.44,13.44,0,1,1,4-9.5A13.36,13.36,0,0,1,78.16,78.17Z"></path><path d="M68.66,60.12a8.54,8.54,0,1,0,6,2.48A8.59,8.59,0,0,0,68.66,60.12Zm4.56,13.12a6.48,6.48,0,1,1-4.56-11.07,6.39,6.39,0,0,1,4.56,1.9A6.51,6.51,0,0,1,73.22,73.24Z"></path><path d="M31.33,46.88a15.53,15.53,0,1,0-11-4.54A15.53,15.53,0,0,0,31.33,46.88ZM21.82,21.83a13.42,13.42,0,0,1,19,0,13.46,13.46,0,1,1-19,0Z"></path><path d="M31.33,39.88a8.54,8.54,0,1,0-6-2.48A8.57,8.57,0,0,0,31.33,39.88ZM26.76,26.76a6.49,6.49,0,0,1,9.16,0,6.52,6.52,0,0,1,0,9.17,6.48,6.48,0,0,1-9.16-9.17Z"></path><path d="M82.42,31.64a1.05,1.05,0,0,0,1.78-.73V16.83a1.06,1.06,0,0,0-1-1H69.09a1,1,0,0,0-1,.65,1.08,1.08,0,0,0,.21,1.13l3.8,3.77-55,55a4.6,4.6,0,0,0,3.25,7.85,4.52,4.52,0,0,0,3.22-1.35l55-55ZM22.16,81.39a2.58,2.58,0,0,1-3.56,0,2.52,2.52,0,0,1,0-3.56L74.33,22.07a1,1,0,0,0,.31-.73.88.88,0,0,0-.31-.7L71.6,17.87H82.11V28.39l-2.75-2.76a1.05,1.05,0,0,0-1.47,0Z"></path></svg>