<svg height='100px' width='100px'  fill="#000000" xmlns="http://www.w3.org/2000/svg" xmlns:xlink="http://www.w3.org/1999/xlink" version="1.1" x="0px" y="0px" viewBox="0 0 100 100" enable-background="new 0 0 100 100" xml:space="preserve"><g><g><path fill="none" stroke="#000000" stroke-linecap="round" stroke-linejoin="round" stroke-miterlimit="10" d="M80.667,43.167    c1.119,1.184-0.841,2.896-0.667,4.5c0.156,1.428,0.888,2.467,1,4.038c0.122,1.71,0.046,3.652,0.5,5.295    c0.218,0.79,1.719,3.846-0.629,2.688c-0.33,0.975-0.617,1.68-1.372,2.349c-0.97,0.858-2.449,0.947-2.191,2.608    c-1.693-0.294-0.678-2.811-0.93-3.849c-0.413-1.698-1.377-2.553-1.378-4.492c0-1.938,0.178-3.395,0.638-5.142    c0.377-1.435,0.739-3.686-1.138-3.663c-3.302,0.042-1.894,6.375-2,8.496c-0.042,0.85-0.344,2.126-0.304,2.85    c0.037,0.676,0.637,1.216,0.479,1.988c-0.268,1.308-0.808,0.859-1.516,0.8c-0.209-0.018-0.208-0.762-0.655-0.815    c-0.313-0.038-0.762,0.528-1.041,0.645c-2.21,0.932-0.971,1.606-1.938,3.158c-0.887,1.423-4.313,1.473-4.367-0.449    c-0.058-2.085,2.202-1.003,2.879-2.505c0.621-1.378-0.695-2.514-0.37-3.992c0.242-1.099,0.812-1.321,1.291-2.297    c0.376-0.765,0.078-1.974,0.493-2.593c0.241-0.36,1.055-0.505,1.423-1.081c0.326-0.511,0.307-1.427,0.459-2.037    c0.441-1.77,1.052-2.547,2.495-3.704c0.609-0.489,1.054-0.975,1.833-1.133c0.442-0.09,1.833,0.445,1.999,0.35    c0.114,0.019,0.221,0.003,0.323-0.047c-0.337-0.866-0.081-1.886,0.212-2.774c1.021-0.226,1.842,0.313,2.638,0.613    c0.136,0.051,0.364-0.41,0.67-0.283c0.269,0.111,0.286,0.486,0.538,0.603c0.44,0.204,0.559,0.5,0.82,0.848    c0.417-0.051,0.409,0.166,0.638,0.361"></path><path fill="none" stroke="#000000" stroke-linecap="round" stroke-linejoin="round" stroke-miterlimit="10" d="M63,56.5    c0.674-1.159,0.019-5.945-1.509-3c-0.578,1.114-1.289,5.159,0.146,5.695c-0.108,0.884-0.971,1.499-1.266,2.342    c-0.296,0.846-0.227,1.85-0.179,2.783c1.095-0.712,2.142-2.665,2.512-3.945c0.426-1.477-0.446-2.964,0.463-4.375"></path><path fill="none" stroke="#000000" stroke-linecap="round" stroke-linejoin="round" stroke-miterlimit="10" d="M64.833,44.167    c0.091-0.377-0.002-0.829-0.155-1.159c-0.931-0.27-1.504,0.223-1.516,1.159c-0.012,1.069,0.819,0.916,1.3,1.543    c0.972,1.267-0.092,3.646,0.729,4.632c1.394,1.675,1.772-2.393,1.267-3.308c-0.376-0.682-0.922-0.964-1.255-1.7    c-0.324-0.716,0.217-1.312-0.675-1.696C64.487,43.423,64.527,43.218,64.5,43"></path><path fill="none" stroke="#000000" stroke-linecap="round" stroke-linejoin="round" stroke-miterlimit="10" d="M47.5,92    c0.015-0.751,0.863-5.133-0.879-3.37c-0.686,0.694-0.207,1.584-0.572,2.378c-0.414,0.899-1.683,1.391-2.054,2.496    c-0.629,1.875,0.524,3.601,2.514,2.458c1.344-0.772,1.465-4.36,0.825-4.129"></path><path fill="none" stroke="#000000" stroke-linecap="round" stroke-linejoin="round" stroke-miterlimit="10" d="M29.167,7    c-0.148,0.044-0.07-0.072,0-0.167L61,6.333c0.046,0.019,0.457,0.214,0.167,0L63,18.167c-0.51,0.01,1.042,0.18,0.529,0.161    c1.032,0.47,0.975-0.143,1.812,0.494c2.153,1.636-0.274,7.656,0.317,10.011c0.83,3.303,3.839,2.054,5.471,4.497    c0.728,1.09,2.095,2.879,2.287,4.208c0.187,1.291-0.399,0.846-0.72,1.955c-0.196,0.677,0.191,1.202,0.137,1.842    c-0.074,0.888-0.778,4.337-2.174,3.845c-0.685-0.241-1.131-2.6-1.788-3.162c-0.216,0.839-0.43,2.108-1.004,2.633    c-0.315-0.776-0.245-1.792-0.2-2.658c0.024-0.467-0.124-0.822-0.041-1.199c0.073-0.33,0.684-0.71,0.683-0.959    c-0.003-1.003-1.735-3.154-2.842-3.3c-1.92-0.254-3.097,1.589-3.133,3.3c-0.012,0.554,0.395,2.208-0.159,2.474    c-1.007,0.485-1.464-1.116-1.367-1.782c-1.514-0.079-3.884-0.65-4.142,0.975c-0.441,2.784,1.682,0.979,2.812,1.026    c-0.469,1.929,1.123,6.487-0.17,7.986c-0.647,0.751-2.468-0.361-2.641,1.497c-0.047,0.509,0.699,2.524,0.95,2.991    c0.9,1.676,1.206,1.165,0.879,3.333c-0.179,1.19-0.283,2.291-0.537,3.491c-0.203,0.959-0.258,2.574-0.744,3.38    c-0.658,1.093-1.576,1.078-1.728,2.463c-0.072,0.659,0.566,1.234,0.35,2c-0.23,0.812-0.877,0.958-1.374,1.629    c-0.478,0.646-0.417,1.332-1.126,1.707c-0.41,0.217-1.817,0.056-2.328,0.005c-1.681-0.166-3.038-0.726-4.676-0.138    c-1.775,0.638-3.644,0.892-5.337,1.628c-0.873,0.38-1.802,0.613-2.705,0.955c-1.125,0.427-1.515,1.213-2.454,1.724    c-0.912,0.496-2.939,0.392-4,0.498c-1.557,0.154-3.032,0.055-4.504,0.491c-0.728,0.215-1.003,0.379-1.537,0.629    c-3.597,1.685-0.355-1.277,0.379-2.629c0.766-1.41,0.203-3.144,0.642-4.8c-1.082-0.577-1.305-1.715-1.125-2.841    c1.266-0.227,3.754-0.152,3.475-0.192V7z"></path></g></g></svg>