<svg height='100px' width='100px'  fill="#000000" xmlns:dc="http://purl.org/dc/elements/1.1/" xmlns:cc="http://creativecommons.org/ns#" xmlns:rdf="http://www.w3.org/1999/02/22-rdf-syntax-ns#" xmlns:svg="http://www.w3.org/2000/svg" xmlns="http://www.w3.org/2000/svg" xmlns:sodipodi="http://sodipodi.sourceforge.net/DTD/sodipodi-0.dtd" xmlns:inkscape="http://www.inkscape.org/namespaces/inkscape" viewBox="0 0 100 100" version="1.1" x="0px" y="0px"><g transform="translate(0,-952.36216)"><path style="color:#000000;font-style:normal;font-variant:normal;font-weight:normal;font-stretch:normal;font-size:medium;line-height:normal;font-family:sans-serif;text-indent:0;text-align:start;text-decoration:none;text-decoration-line:none;text-decoration-style:solid;text-decoration-color:#000000;letter-spacing:normal;word-spacing:normal;text-transform:none;direction:ltr;block-progression:tb;writing-mode:lr-tb;baseline-shift:baseline;text-anchor:start;white-space:normal;clip-rule:nonzero;display:inline;overflow:visible;visibility:visible;opacity:1;isolation:auto;mix-blend-mode:normal;color-interpolation:sRGB;color-interpolation-filters:linearRGB;solid-color:#000000;solid-opacity:1;fill:#000000;fill-opacity:1;fill-rule:evenodd;stroke:none;stroke-width:8;stroke-linecap:round;stroke-linejoin:round;stroke-miterlimit:4;stroke-dasharray:none;stroke-dashoffset:0;stroke-opacity:1;color-rendering:auto;image-rendering:auto;shape-rendering:auto;text-rendering:auto;enable-background:accumulate" d="m 36.653664,981.18366 a 0.73856145,0.73856145 0 0 0 -0.549178,0.2539 l -1.306777,1.5029 a 0.73856145,0.73856145 0 0 0 -0.0076,0.01 l -1.04571,1.2415 a 0.73856145,0.73856145 0 0 0 -0.11611,0.1901 l -0.849549,2.0254 a 0.73856145,0.73856145 0 0 0 0.08726,0.7248 l 0.966381,1.3071 0,0.9484 -1.926991,1.0341 -0.885248,-0.5127 a 0.73856145,0.73856145 0 0 0 -0.354459,-0.099 l -5.721476,-0.1204 -0.797263,-1.967 a 0.73856145,0.73856145 0 0 0 -0.620575,-0.4583 l -2.99614,-0.2604 -2.865245,-0.3256 a 0.73856145,0.73856145 0 0 0 -0.463358,0.1006 l -1.458224,0.8748 -2.017139,0 a 0.73856145,0.73856145 0 0 0 -0.716491,0.9173 l 0.09664,0.3862 -2.62365,0.8921 a 0.73856145,0.73856145 0 0 0 -0.472373,0.9022 l 0.04796,0.1681 -2.9023874,0.6739 a 0.73856145,0.73856145 0 0 0 -0.378619,0.2214 l -1.372048,1.5026 a 0.73856145,0.73856145 0 0 0 -0.18281,0.6213 l 0.11791,-0.075 a 0.73856145,0.73856145 0 0 0 -0.11467,0.09 0.73856145,0.73856145 0 0 0 0.0591,0.1821 l -0.0779,-0.1623 a 0.73856145,0.73856145 0 0 0 -0.14892,0.7994 l 0.17993,0.4248 a 0.73856145,0.73856145 0 0 0 0.32129,0.3581 l 0.0667,0.037 -0.0289,0.1807 a 0.73856145,0.73856145 0 0 0 0.50014,0.8189 l 0.624898,0.2037 0.263952,0.2751 a 0.73856145,0.73856145 0 0 0 0.304698,0.1908 0.73856145,0.73856145 0 0 0 0.17092,0.2852 l 0.490041,0.5066 a 0.73856145,0.73856145 0 0 0 0.256379,0.172 l 0.228974,0.092 0.01839,0.068 a 0.73856145,0.73856145 0 0 0 0.735963,0.5463 l 0.522855,-0.016 a 0.73856145,0.73856145 0 0 0 0.4114334,-0.1409 l 0.13486,-0.098 3.7e-4,0 a 0.73856145,0.73856145 0 0 0 0.346887,0.3187 l 0.83152,0.3696 a 0.73856145,0.73856145 0 0 0 0.03966,0.015 0.73856145,0.73856145 0 0 0 0.314073,0.3119 l 0.400976,0.2077 0.298929,0.91414 a 0.73856145,0.73856145 0 0 0 0.04399,0.1053 l 0.646537,1.2708 a 0.73856145,0.73856145 0 0 0 0.451458,0.3739 l 0.174525,0.051 0.09952,0.3181 0.09339,0.5138 -0.272245,0.7075 a 0.73856145,0.73856145 0 0 0 -0.04111,0.3746 l 0.06923,0.462 a 0.73856145,0.73856145 0 0 0 0.01262,0.064 l 0.106374,0.4381 -0.61733,0.882 a 0.73856145,0.73856145 0 0 0 -0.120076,0.2831 l -0.138467,0.7161 a 0.73856145,0.73856145 0 0 0 0.01551,0.3458 l 0.254215,0.8777 a 0.73856145,0.73856145 0 0 0 0.09916,0.2109 l 0.346526,0.5081 a 0.73856145,0.73856145 0 0 0 0.58704,0.322 l 0.619854,0.02 1.019747,0.3746 a 0.73856145,0.73856145 0 0 0 0.176329,0.041 l 2.379531,0.2542 a 0.73856145,0.73856145 0 0 0 0.03281,0 l 2.764281,0.1713 2.066178,1.5123 a 0.73856145,0.73856145 0 0 0 0.0833,0.053 l 1.90139,1.0353 a 0.73856145,0.73856145 0 0 0 0.420447,0.086 0.73856145,0.73856145 0 0 0 0.44641,0.7626 l 0.327055,0.1374 0.248086,0.6653 a 0.73856145,0.73856145 0 0 0 0.0072,0.019 l 0.506268,1.2498 0.135582,0.4965 a 0.73856145,0.73856145 0 0 0 0.135581,0.2672 l 0.168035,0.2102 0.319483,0.5171 a 0.73856145,0.73856145 0 0 0 0.07789,0.1042 l 0.389437,0.4353 0.02921,0.3721 a 0.73856145,0.73856145 0 0 0 0.81349,0.6761 l 0.814211,-0.085 0.571174,0.1223 a 0.73856145,0.73856145 0 0 0 0.4767,-0.058 l 0.322367,-0.1561 2.457779,0.4471 a 0.73856145,0.73856145 0 0 0 0.0732,0.01 l 3.791239,0.3047 a 0.73856145,0.73856145 0 0 0 0.260706,-0.026 l 1.183816,-0.3353 0.606512,0.1734 a 0.73856145,0.73856145 0 0 0 0.747142,-0.2109 l 0.04147,-0.045 0.571895,-0.013 2.613554,0.7093 0.539441,0.7911 a 0.73856145,0.73856145 0 0 0 0.440281,0.3026 l 0.877674,0.208 a 0.73856145,0.73856145 0 0 0 0.05661,0.011 l 0.908325,0.1414 1.408462,0.7897 a 0.73856145,0.73856145 0 0 0 0.229336,0.082 l 1.888769,0.3422 a 0.73856145,0.73856145 0 0 0 0.254215,0 l 0.62923,-0.106 a 0.73856145,0.73856145 0 0 0 0.712524,0.6714 l 0.712164,0.022 0.03245,0.046 a 0.73856145,0.73856145 0 0 0 1.088621,0.1247 l 0.749305,-0.6591 3.555053,-1.848 1.537556,-0.4039 a 0.73856145,0.73856145 0 0 0 0.148561,-0.057 l 0.383668,-0.1962 3.496278,0.2478 a 0.73856145,0.73856145 0 0 0 0.461914,-0.1223 l 0.326694,-0.2178 1.473732,-0.1226 a 0.73856145,0.73856145 0 0 0 0.441001,-0.1947 l 0.434149,-0.4035 0.634278,0 a 0.73856145,0.73856145 0 0 0 0.505184,-0.1998 l 0.73921,-0.693 a 0.73856145,0.73856145 0 0 0 0.06419,-0.069 l 1.506542,-1.8245 1.358703,-0.4591 a 0.73856145,0.73856145 0 0 0 0.444966,-0.4157 l 0.2077,-0.4976 0.528626,-0.2117 a 0.73856145,0.73856145 0 0 0 0.347608,-1.0836 l -0.522855,-0.8167 a 0.73856145,0.73856145 0 0 0 -0.325974,-0.2787 l -0.331742,-0.145 -0.418644,-0.6007 0.368521,-1.0832 0.680794,-0.9758 0.630312,0.044 0.288472,0.423 a 0.73856145,0.73856145 0 0 0 0.50807,0.3151 l 2.809714,0.3923 a 0.73856145,0.73856145 0 0 0 0.569371,-0.1597 l 2.319312,-1.8949 a 0.73856145,0.73856145 0 0 0 0.257101,-0.4269 l 0.02704,-0.136 0.09916,-0.049 0.67214,0.2687 a 0.73856145,0.73856145 0 0 0 0.378979,0.045 l 1.601018,-0.2286 a 0.73856145,0.73856145 0 0 0 0.380423,-0.1742 l 0.87515,-0.7619 0.377177,-0.089 a 0.73856145,0.73856145 0 0 0 0.567207,-0.7752 l -0.04688,-0.6105 0.547737,-0.8903 0.323808,-0.1619 1.410266,-0.059 a 0.73856145,0.73856145 0 0 0 0.669976,-0.5045 l 0.07681,-0.2304 0.03966,0.022 a 0.73856145,0.73856145 0 0 0 0.713606,0 l 1.162902,-0.6368 1.069869,0.1338 a 0.73856145,0.73856145 0 0 0 0.608676,-0.2055 l -0.147121,0.1471 0.188589,0.1168 a 0.73856145,0.73856145 0 0 0 0.26972,0.101 l 1.796819,0.2939 a 0.73856145,0.73856145 0 0 0 0.627425,-0.1926 l 0.620575,-0.5881 a 0.73856145,0.73856145 0 0 0 0.212027,-0.7006 l -0.261428,-1.1435 a 0.73856145,0.73856145 0 0 0 -0.126206,-0.2747 L 92.8294,999.05586 a 0.73856145,0.73856145 0 0 0 -0.312271,-0.2437 l -0.861088,-0.3545 -0.332823,-0.6422 a 0.73856145,0.73856145 0 0 0 -0.589564,-0.3956 l -2.18914,-0.1958 a 0.73856145,0.73856145 0 0 0 -0.579829,0.2049 l -1.010733,0.9793 -0.921305,-0.6577 a 0.73856145,0.73856145 0 0 0 -0.698464,-0.087 l -0.561437,0.2199 -0.779595,-0.1298 a 0.73856145,0.73856145 0 0 0 -0.702068,0.2723 l -0.204454,0.2603 -0.348329,-0.3483 0.0015,-0.017 0.369965,-0.096 a 0.73856145,0.73856145 0 0 0 0.553144,-0.7147 l 0,-0.7453 0.419727,-0.5921 a 0.73856145,0.73856145 0 0 0 0.129451,-0.3292 l 0.05193,-0.3891 1.691164,-3.925 a 0.73856145,0.73856145 0 0 0 -0.361353,-0.9598 l -1.307136,-0.6206 a 0.73856145,0.73856145 0 0 0 -0.603267,-0.014 l -1.023714,0.4309 -0.867218,-0.195 -0.600022,-0.6001 a 0.73856145,0.73856145 0 0 0 -0.326334,-0.19 L 79.559,988.62186 a 0.73856145,0.73856145 0 0 0 -0.08041,-0.018 l -0.620935,-0.098 a 0.73856145,0.73856145 0 0 0 -0.483912,0.089 l -3.005514,1.7315 a 0.73856145,0.73856145 0 0 0 -0.315517,0.3614 l -0.259264,0.6364 -0.334627,0.1803 -0.285586,-0.095 a 0.73856145,0.73856145 0 0 0 -0.403861,-0.018 l -3.169223,0.7514 a 0.73856145,0.73856145 0 0 0 -0.109619,0.035 l -1.71857,0.7042 -0.638965,-0.251 a 0.73856145,0.73856145 0 0 0 -0.792215,0.1652 l 0.05878,-0.058 -1.2837,-0.158 -0.288112,-0.247 a 0.73856145,0.73856145 0 0 0 -0.480665,-0.1777 l -2.34816,0 -1.029845,-0.8507 0,-0.6324 a 0.73856145,0.73856145 0 0 0 -0.578385,-0.7209 l -2.111973,-0.4694 -0.819622,-0.9563 a 0.73856145,0.73856145 0 0 0 -0.657353,-0.2517 l -1.010373,0.133 -0.544491,-0.2845 a 0.73856145,0.73856145 0 0 0 -0.290995,-0.082 l -1.894899,-0.1306 a 0.73856145,0.73856145 0 0 0 -0.23871,0.022 l -2.483021,0.6534 a 0.73856145,0.73856145 0 0 0 -0.04183,0.012 l -1.440194,0.471 -3.57633,-1.4694 -0.394845,-2.5927 a 0.73856145,0.73856145 0 0 0 -0.524659,-0.5982 l -5.349707,-1.5469 -3.003351,-1.5974 a 0.73856145,0.73856145 0 0 0 -0.35482,-0.087 z m 0.179934,1.6663 2.552254,1.3576 a 0.73856145,0.73856145 0 0 0 0.141712,0.058 l 4.969645,1.437 0.386552,2.5385 a 0.73856145,0.73856145 0 0 0 0.449296,0.5719 l 4.214571,1.7316 a 0.73856145,0.73856145 0 0 0 0.510234,0.019 l 1.678185,-0.5488 2.344914,-0.617 1.61977,0.1118 0.614443,0.3205 a 0.73856145,0.73856145 0 0 0 0.437757,0.078 l 0.844862,-0.1111 0.719737,0.8395 a 0.73856145,0.73856145 0 0 0 0.400615,0.2405 l 1.7741,0.3941 0,0.3876 a 0.73856145,0.73856145 0 0 0 0.26828,0.5694 l 1.502576,1.2415 a 0.73856145,0.73856145 0 0 0 0.47057,0.1691 l 2.340587,0 0.249889,0.2146 a 0.73856145,0.73856145 0 0 0 0.390518,0.172 l 1.862445,0.229 a 0.73856145,0.73856145 0 0 0 0.605071,-0.2041 l -0.138828,0.1391 0.46444,0.1825 a 0.73856145,0.73856145 0 0 0 0.55026,0 l 1.93925,-0.7947 2.908517,-0.6898 0.388716,0.1294 a 0.73856145,0.73856145 0 0 0 0.583433,-0.05 l 0.84955,-0.4576 a 0.73856145,0.73856145 0 0 0 0.333905,-0.3714 l 0.263593,-0.6476 2.560185,-1.4748 0.322368,0.051 1.078522,0.2968 0.613364,0.6134 a 0.73856145,0.73856145 0 0 0 0.360229,0.1983 l 1.306778,0.2942 a 0.73856145,0.73856145 0 0 0 0.448572,-0.04 l 0.936812,-0.3945 0.365278,0.1735 -1.449932,3.3646 a 0.73856145,0.73856145 0 0 0 -0.05373,0.1947 l -0.04147,0.3094 -0.450015,0.6354 a 0.73856145,0.73856145 0 0 0 -0.135943,0.4269 l 0,0.4089 -0.328858,0.085 a 0.73856145,0.73856145 0 0 0 -0.551342,0.6606 l -0.06527,0.882 a 0.73856145,0.73856145 0 0 0 0.214189,0.5766 l 1.176244,1.1762 a 0.73856145,0.73856145 0 0 0 1.103044,-0.066 l 0.448212,-0.5705 0.548457,0.091 a 0.73856145,0.73856145 0 0 0 0.390519,-0.041 l 0.378979,-0.1482 1.275045,0.91084 a 0.73856145,0.73856145 0 0 0 1.10593,-0.30504 l 0.170197,-0.3894 0.698462,-0.6762 1.448849,0.1299 0.270804,0.5224 a 0.73856145,0.73856145 0 0 0 0.374291,0.343 l 0.920946,0.37894 1.549814,2.0958 0.133419,0.582 -0.04904,0.047 -1.291272,-0.2113 -0.561077,-0.3472 a 0.73856145,0.73856145 0 0 0 -0.91121,0.1056 l -0.0058,0.01 -0.948349,-0.1186 a 0.73856145,0.73856145 0 0 0 -0.44641,0.085 l -1.01506,0.556 -0.23186,-0.1291 a 0.73856145,0.73856145 0 0 0 -0.688726,-0.015 l -0.327054,0.1634 a 0.73856145,0.73856145 0 0 0 -0.370326,0.4269 l -0.100244,0.3011 -1.059412,0.044 a 0.73856145,0.73856145 0 0 0 -0.299651,0.077 l -0.653388,0.3267 a 0.73856145,0.73856145 0 0 0 -0.298568,0.2734 l -0.783921,1.2743 a 0.73856145,0.73856145 0 0 0 -0.107456,0.4435 l 0.01695,0.2189 0.06022,-0.014 a 0.73856145,0.73856145 0 0 0 -0.315877,0.1619 l -0.848468,0.7389 -1.189584,0.1698 -0.796904,-0.3187 a 0.73856145,0.73856145 0 0 0 -0.604348,0.025 l -0.718656,0.3592 a 0.73856145,0.73856145 0 0 0 -0.394123,0.5156 l -0.0458,0.2308 -1.864969,1.5231 -2.166424,-0.3022 -0.30578,-0.4485 a 0.73856145,0.73856145 0 0 0 -0.558913,-0.3206 l -1.404858,-0.098 a 0.73856145,0.73856145 0 0 0 -0.656994,0.3141 l -0.980082,1.4048 a 0.73856145,0.73856145 0 0 0 -0.09339,0.1847 l -0.522854,1.5357 a 0.73856145,0.73856145 0 0 0 0.09339,0.6599 l 0.751468,1.0782 a 0.73856145,0.73856145 0 0 0 0.309746,0.2545 l 0.144597,0.063 a 0.73856145,0.73856145 0 0 0 -0.301454,0.348 l -0.198325,0.4756 -1.241148,0.4194 a 0.73856145,0.73856145 0 0 0 -0.333185,0.2293 l -1.610032,1.9504 -0.491846,0.4612 -0.632112,0 a 0.73856145,0.73856145 0 0 0 -0.502663,0.1976 l -0.459751,0.427 -1.409186,0.1172 a 0.73856145,0.73856145 0 0 0 -0.348328,0.1215 l -0.275131,0.1835 -2.594803,-0.1839 0,0.5899 a 0.73856145,0.73856145 0 0 0 -1.074557,-0.6573 l -0.664207,0.3393 -1.539717,0.4042 a 0.73856145,0.73856145 0 0 0 -0.153251,0.059 l -3.707942,1.9278 a 0.73856145,0.73856145 0 0 0 -0.147482,0.1006 l -0.285586,0.2513 a 0.73856145,0.73856145 0 0 0 -0.266116,-0.059 l -0.302534,-0.01 0.0036,-0.043 a 0.73856145,0.73856145 0 0 0 -0.858564,-0.7872 l -1.42469,0.2402 -1.639961,-0.2972 -1.416757,-0.7943 a 0.73856145,0.73856145 0 0 0 -0.247726,-0.086 l -1.011093,-0.1572 -0.571174,-0.1352 -0.53151,-0.78 a 0.73856145,0.73856145 0 0 0 -0.416841,-0.2964 l -2.980273,-0.8088 a 0.73856145,0.73856145 0 0 0 -0.210584,-0.026 l -0.993425,0.023 a 0.73856145,0.73856145 0 0 0 -0.524297,0.2366 l 0.05156,-0.056 -0.369965,-0.1056 a 0.73856145,0.73856145 0 0 0 -0.404221,0 l -1.258097,0.3566 -3.622484,-0.291 -2.658988,-0.4836 a 0.73856145,0.73856145 0 0 0 -0.454343,0.062 l -0.310467,0.1504 -0.437756,-0.094 a 0.73856145,0.73856145 0 0 0 -0.231859,-0.012 l -0.190392,0.02 a 0.73856145,0.73856145 0 0 0 -0.162265,-0.3011 l -0.511677,-0.5719 -0.308664,-0.4998 a 0.73856145,0.73856145 0 0 0 -0.05192,-0.073 l -0.100244,-0.1255 -0.106735,-0.3916 a 0.73856145,0.73856145 0 0 0 -0.02813,-0.083 l -0.518888,-1.2808 -0.355902,-0.9545 a 0.73856145,0.73856145 0 0 0 -0.405303,-0.4223 l -0.09411,-0.04 0.08474,-0.1598 a 0.73856145,0.73856145 0 0 0 -0.755796,-1.0767 l -0.803755,0.1132 -1.643928,-0.8949 -2.201039,-1.6115 a 0.73856145,0.73856145 0 0 0 -0.390519,-0.141 l -2.963686,-0.1839 -2.272796,-0.2427 -1.046432,-0.3844 a 0.73856145,0.73856145 0 0 0 -0.231498,-0.045 l -0.363835,-0.011 -0.06851,-0.1006 -0.171641,-0.5936 0.075,-0.3869 0.718294,-1.0266 a 0.73856145,0.73856145 0 0 0 0.112504,-0.5975 l -0.177049,-0.7302 -0.03534,-0.2369 0.276572,-0.719 a 0.73856145,0.73856145 0 0 0 0.03714,-0.3974 l -0.138466,-0.7623 a 0.73856145,0.73856145 0 0 0 -0.02164,-0.088 l -0.231138,-0.7396 a 0.73856145,0.73856145 0 0 0 -0.497974,-0.4886 l -0.248086,-0.072 -0.475978,-0.935 -0.375013,-1.14714 a 0.73856145,0.73856145 0 0 0 -0.362753,-0.4262 l -0.386552,-0.2001 -0.0512,-0.1789 a 0.73856145,0.73856145 0 0 0 -1.063379,-0.4453 l 0.06599,-0.036 -0.271164,-0.1204 -0.1345,-0.2441 a 0.73856145,0.73856145 0 0 0 -0.716852,-0.3794 l -0.6029064,0.058 a 0.73856145,0.73856145 0 0 0 -0.349411,0.1273 0.73856145,0.73856145 0 0 0 -0.302895,-0.225 l -0.425135,-0.1702 -0.157218,-0.1622 3.7e-4,-0.01 a 0.73856145,0.73856145 0 0 0 -0.215272,-0.5597 l -0.244841,-0.2452 a 0.73856145,0.73856145 0 0 0 -0.796542,-0.1633 l 0.217075,-0.087 -0.04724,-0.049 a 0.73856145,0.73856145 0 0 0 -0.303617,-0.1904 l -0.04904,-0.016 a 0.73856145,0.73856145 0 0 0 -0.377538,-0.8192 l -0.121879,-0.063 a 0.73856145,0.73856145 0 0 0 0.02308,-0.6044 l 0.882723,-0.9663 3.4356984,-0.7977 a 0.73856145,0.73856145 0 0 0 0.543048,-0.9223 l -0.06851,-0.2391 2.601655,-0.8845 a 0.73856145,0.73856145 0 0 0 0.478863,-0.8781 l -0.03209,-0.128 1.275767,0 a 0.73856145,0.73856145 0 0 0 0.380061,-0.1053 l 1.41892,-0.8513 2.626535,0.2985 a 0.73856145,0.73856145 0 0 0 0.01911,0 l 2.555499,0.2221 0.810245,1.9988 a 0.73856145,0.73856145 0 0 0 0.66888,0.4598 l 6.01752,0.1266 1.077081,0.6238 a 0.73856145,0.73856145 0 0 0 0.719016,0.012 l 2.679181,-1.4376 a 0.73856145,0.73856145 0 0 0 0.389437,-0.6505 l 0,-1.6339 a 0.73856145,0.73856145 0 0 0 -0.144597,-0.4388 l -0.861448,-1.1654 0.643652,-1.5347 0.968905,-1.151 0.9177,-1.0551 z m -30.1777474,11.9074 0.0054,0.013 -0.11647,0.075 a 0.73856145,0.73856145 0 0 0 0.111061,-0.088 z m 1.137299,2.4873 -0.206978,0.083 -0.03173,-0.032 a 0.73856145,0.73856145 0 0 0 0.23871,-0.051 z m 1.936727,0.1915 0.0375,0.1396 a 0.73856145,0.73856145 0 0 0 -0.05301,-0.1392 l 0.01551,0 z"></path></g></svg>