<svg height='100px' width='100px'  fill="#000000" xmlns="http://www.w3.org/2000/svg" xmlns:xlink="http://www.w3.org/1999/xlink" version="1.1" x="0px" y="0px" viewBox="-34.196 -156.25 159 264" enable-background="new -34.196 -156.25 159 264" xml:space="preserve"><path d="M39.221-5.081l-8.68-15.033C22.848-15.662,17.67-7.35,17.669,2.178H34.93C34.972-0.931,36.69-3.634,39.221-5.081z"></path><path d="M56.296-20.111L47.617-5.077c2.53,1.449,4.248,4.16,4.286,7.271h17.259c0-0.004,0-0.008,0-0.014  C69.162-7.345,63.984-15.657,56.296-20.111z"></path><path d="M37.346,2.178c-0.001,0.039-0.006,0.077-0.006,0.117c0,2.227,1.203,4.17,2.991,5.228c0.904,0.534,1.956,0.847,3.083,0.847  c1.125,0,2.178-0.311,3.082-0.846c1.789-1.057,2.993-3,2.993-5.229c0-0.034-0.004-0.066-0.005-0.102  c-0.036-2.222-1.265-4.15-3.074-5.18C45.526-3.49,44.506-3.78,43.415-3.78c-1.088,0-2.105,0.289-2.989,0.79  C38.616-1.966,37.389-0.041,37.346,2.178z"></path><path d="M43.415,10.788c-1.566,0-3.029-0.434-4.29-1.175l-8.581,14.864c3.786,2.191,8.18,3.451,12.87,3.451  c4.688,0,9.082-1.26,12.869-3.451L47.702,9.614C46.443,10.356,44.978,10.788,43.415,10.788z"></path><path d="M43.811-90.915c-9.793,0-19.007,4.721-27.024,13C-0.474-60.092-12.189-25.76-12.189,13.586  c0,53.485,48.914,80.619,55.99,84.261c7.31-3.82,56.01-31.269,56.01-84.261c0-39.346-11.715-73.678-28.977-91.501  C62.817-86.194,53.604-90.915,43.811-90.915z M43.415,33.932c-17.471,0-31.634-14.165-31.634-31.637  c0-17.474,14.163-31.637,31.634-31.637c17.472,0,31.636,14.163,31.636,31.637C75.051,19.767,60.886,33.932,43.415,33.932z"></path><path d="M49.611-145.915h-11.6v40.984l-52.205-40.525v67.541h25.61c9.549-11.071,20.695-17,32.395-17  c11.699,0,22.845,5.929,32.395,17h25.609v-67.541l-52.204,40.523V-145.915z"></path></svg>