<svg height='100px' width='100px'  fill="#000000" xmlns="http://www.w3.org/2000/svg" viewBox="0 0 64 64" x="0px" y="0px"><title>manufacture, factory, industry, machine, internet</title><g data-name="Layer 2"><path d="M54.61,50.64h-.12a6,6,0,0,0-2-3.51L52.48,33a1,1,0,0,0-2,0l.05,13h0L50,45.83l-.35-.08a5.36,5.36,0,0,0-.7-.06l-.22,0h-.05a5.83,5.83,0,0,0-.84.06l-.14,0a5,5,0,0,0-.69.16l-.09,0V27l.36.07.22,0a5.62,5.62,0,0,0,.7.05,5.88,5.88,0,0,0,.6,0,4.67,4.67,0,0,0,.81-.17,5.14,5.14,0,0,0,2.27-1.33,5.34,5.34,0,0,0,.39-.44h0a5.17,5.17,0,0,0-4.07-8.38,5,5,0,0,0-2.22.52L21.26,10.66a5.17,5.17,0,0,0-9.47,2.88,5.08,5.08,0,0,0,.52,2.24,5.19,5.19,0,0,0,1.82,2.09,5.34,5.34,0,0,0,1.86.74v7.64L7.55,30.46a2.56,2.56,0,0,0-1.41,2.28v3.71a1,1,0,0,0,2,0V32.74a.55.55,0,0,1,.3-.49L17,28l8.54,4.74a.56.56,0,0,1,.28.47v3.24a1,1,0,0,0,2,0V33.21A2.54,2.54,0,0,0,26.48,31L18,26.28V18.59a5,5,0,0,0,1.85-.75A5.13,5.13,0,0,0,21,16.74a5.19,5.19,0,0,0,1.12-3.2,5.63,5.63,0,0,0,0-.58L44,18.84l0,.06a4.38,4.38,0,0,0-.37.58,1.47,1.47,0,0,0-.1.22,3.48,3.48,0,0,0-.21.48l-.09.25a4.37,4.37,0,0,0-.12.52,1.89,1.89,0,0,0,0,.23A4.9,4.9,0,0,0,43,22c0,.13,0,.27,0,.4L27.89,18.29a1,1,0,0,0-.52,1.93l16.39,4.4a5.28,5.28,0,0,0,1.13,1.32V47.05a5.89,5.89,0,0,0-2.07,3.59H41.74a5.89,5.89,0,0,0-5.88,5.89v2.18a1.79,1.79,0,0,0,1.78,1.79H58.71a1.79,1.79,0,0,0,1.79-1.79V56.53A5.89,5.89,0,0,0,54.61,50.64ZM19.46,15.5a3.42,3.42,0,0,1-.74.68,3.2,3.2,0,0,1-3.49,0,3.21,3.21,0,0,1-1.44-2.65A3.17,3.17,0,0,1,17,10.36,3.19,3.19,0,0,1,19.75,12a3.26,3.26,0,0,1,.39,1.54A3.19,3.19,0,0,1,19.46,15.5ZM51.36,22a3.18,3.18,0,0,1-4.92,2.65,3.16,3.16,0,0,1-1.12-1.28,3,3,0,0,1-.21-.6l0-.14A2.56,2.56,0,0,1,45,22v0a3.3,3.3,0,0,1,.08-.64,3.58,3.58,0,0,1,.09-.35,2.52,2.52,0,0,1,.14-.33,2.82,2.82,0,0,1,.23-.42l.11-.15a5.34,5.34,0,0,1,.39-.44l.19-.14a2.82,2.82,0,0,1,.39-.29,3.06,3.06,0,0,1,1.54-.41A3.19,3.19,0,0,1,51.36,22ZM45.63,49.13l1-.91a3.94,3.94,0,0,1,2.77-.46,3.73,3.73,0,0,1,1.5.65,4,4,0,0,1,1.52,2.23H44.85A3.89,3.89,0,0,1,45.63,49.13ZM58.5,58.5H37.86v-2a3.89,3.89,0,0,1,3.88-3.89H54.61a3.89,3.89,0,0,1,3.89,3.89Z"></path><path d="M29.92,56.26A3.56,3.56,0,0,0,26.4,53.5H24.89V44.57a3,3,0,0,0-3-3H12.06a3,3,0,0,0-3,3V53.5H7.48a3.51,3.51,0,0,0-3.42,4.24A3.56,3.56,0,0,0,7.58,60.5H18.9a1,1,0,0,0,1-1h0a1,1,0,0,0-1-1H7.48a1.5,1.5,0,0,1,0-3h19a1.5,1.5,0,0,1,.57,2.89,1,1,0,0,0-.57.9,1,1,0,0,0,1.43.9A3.49,3.49,0,0,0,29.92,56.26ZM11.09,53.5V44.57a1,1,0,0,1,1-1H16v2.56a1,1,0,0,0,2,0V43.6h3.93a1,1,0,0,1,1,1V53.5Z"></path></g></svg>