<svg height='100px' width='100px'  fill="#000000" xmlns="http://www.w3.org/2000/svg" xmlns:xlink="http://www.w3.org/1999/xlink" version="1.0" x="0px" y="0px" viewBox="0 0 100 100" enable-background="new 0 0 100 100" xml:space="preserve"><g><path d="M41.949707,91.8759766c-0.6723633,0-0.9536133-0.5883789-1.0791016-0.8510742   c-0.0146484-0.0307617-0.0322266-0.0678711-0.0483398-0.0986328c-0.097168-0.0351562-0.1826172-0.1000977-0.2426758-0.1879883   c-0.2885742-0.421875-0.7319336-0.5820312-1.3164062-0.4799805c-0.0419922,0.0068359-0.1289062,0.0444336-0.1923828,0.0717773   c-0.1425781,0.0605469-0.315918,0.1347656-0.5102539,0.1508789c-0.078125,0.0214844-0.1630859,0.0551758-0.2539062,0.0893555   c-0.4770508,0.1796875-1.277832,0.480957-1.9545898-0.1962891c-0.0742188-0.0742188-0.1450195-0.1508789-0.2148438-0.2265625   c-0.3110352-0.3369141-0.4755859-0.4990234-0.8115234-0.4990234c-0.0449219,0-0.1694336,0.0585938-0.2441406,0.0932617   c-0.1606445,0.0751953-0.3427734,0.1606445-0.5551758,0.1606445c-0.5185547,0.050293-0.887207-0.2822266-1.2983398-0.6914062   c-0.0976562,0.0302734-0.2578125,0.1083984-0.3613281,0.1586914c-0.3681641,0.1801758-0.8256836,0.4018555-1.2519531,0.1894531   c-0.1083984-0.0541992-0.1938477-0.1464844-0.2392578-0.2587891c-0.1513672-0.3706055-0.6860352-0.5615234-1.2519531-0.7636719   c-0.4887695-0.1748047-0.9936523-0.3549805-1.3535156-0.6958008c-0.1572266-0.0800781-1.3173828-0.496582-1.6782227-0.5581055   c-0.5600586,0.253418-0.9741211,0.1762695-1.3432617,0.1074219c-0.2006836-0.0375977-0.4775391-0.0668945-0.6816406-0.0664062   c-0.0473633,0-0.0869141,0-0.1206055,0.0014648c-0.0683594,0.0961914-0.1459961,0.1962891-0.2739258,0.3242188   c-0.1728516,0.1733398-0.4121094,0.2568359-0.6655273,0.3452148c-0.1040039,0.0366211-0.2143555,0.074707-0.3208008,0.121582   c-0.1669922,0.0839844-0.3701172,0.2299805-0.5429688,0.3525391l-0.2182617,0.1513672   c-0.8579102,0.65625-1.7207031-0.1220703-2.1367188-0.4960938c-0.0756836-0.0678711-0.1733398-0.15625-0.2353516-0.2026367   c-0.6894531-0.0883789-1.4633789,0.1166992-1.8374023,0.4907227c-0.2490234,0.1958008-0.5078125,0.355957-0.7822266,0.5244141   c-0.5053711,0.3105469-1.1347656,0.6972656-1.2993164,1.043457c-0.2573242,0.5678711-0.9067383,0.9399414-1.6503906,0.9399414   c-0.0732422,0-0.1625977,0.0922852-0.2905273,0.2333984c-0.1352539,0.1489258-0.3095703,0.3408203-0.5600586,0.4199219   c-0.184082,0.1425781-0.3671875,0.1484375-0.4750977,0.1381836c-0.4321289-0.0488281-0.6342773-0.4770508-0.8295898-0.8911133   c-0.0683594-0.1455078-0.1831055-0.3886719-0.2441406-0.4482422c-0.7441406-0.2866211-0.918457-0.6376953-1.1557617-1.2304688   l-0.0673828-0.1660156c-0.0375977-0.0727539-0.2773438-0.2163086-0.4697266-0.3320312   c-0.4614258-0.2768555-1.0932617-0.6557617-1.0932617-1.456543c0-0.2817383-0.1352539-0.5527344-0.2924805-0.8662109   c-0.1865234-0.3730469-0.3979492-0.7958984-0.3979492-1.3134766c0-0.1791992,0.0961914-0.3452148,0.2519531-0.434082   c0.3852539-0.2202148,0.5605469-0.59375,0.5019531-0.8134766c-0.0600586-0.2260742-0.4262695-0.2504883-0.5810547-0.2504883   c-0.2119141,0-0.4008789-0.1337891-0.4716797-0.3334961c-0.1787109-0.5068359-0.046875-0.8525391,0.0952148-1.0532227   c0.050293-0.0712891,0.1098633-0.1352539,0.1767578-0.1918945c-0.0756836-0.0893555-0.1547852-0.234375-0.1547852-0.4467773   c0-0.15625-0.0249023-0.3378906-0.0703125-0.5175781c-0.0131836-0.0131836-0.0273438-0.0268555-0.0419922-0.0415039   c-0.0883789-0.0883789-0.1982422-0.1982422-0.2709961-0.34375c-0.0898438-0.2387695-0.1445312-0.4541016-0.1987305-0.6743164   c-0.0610352-0.2456055-0.1240234-0.5-0.2084961-0.6860352c-0.1420898-0.2485352-0.3535156-0.4829102-0.5576172-0.7094727   c-0.1049805-0.1162109-0.2045898-0.2285156-0.2939453-0.3398438C7.0996094,78.144043,6.965332,78.065918,6.875,77.9907227   c-0.3574219-0.2973633-0.3774414-0.8041992-0.3789062-1.2680664c-0.1245117,0.1323242-0.2924805,0.2470703-0.5234375,0.2797852   c-0.5488281,0.0722656-0.8652344-0.4013672-1.175293-0.8696289c-0.0698242-0.0019531-0.152832,0.0043945-0.21875,0.0087891   c-0.1879883,0.012207-0.4008789,0.0258789-0.6186523-0.0146484c-0.4375-0.0336914-0.8920898-0.3032227-1.340332-0.8168945   c-0.0913086-0.1044922-0.1347656-0.2421875-0.1206055-0.3803711l0.3637695-3.4873047   c0.0405273-0.3671875,0.2182617-0.6450195,0.3613281-0.8676758l0.1010742-0.1635742   c0.206543-0.4155273,0.4628906-0.7788086,0.7705078-1.0864258c0.1494141-0.1494141,0.3232422-0.2827148,0.4960938-0.4135742   c0.1655273-0.1245117,0.3217773-0.2426758,0.4248047-0.3608398c0.1342773-0.1352539,0.2827148-0.2475586,0.4516602-0.3710938   c0.1708984-0.1254883,0.3676758-0.2675781,0.5527344-0.4526367c0.1499023-0.1186523,0.2392578-0.2167969,0.3251953-0.3076172   c0.2036133-0.2148438,0.4140625-0.4370117,0.7099609-0.4858398c0.2001953-0.0322266,0.4106445-0.046875,0.6186523-0.0610352   c0.2915039-0.0195312,0.7324219-0.0493164,0.8183594-0.1611328c0.0297852-0.0385742,0.0493164-0.1606445,0.0083008-0.378418   c-0.0595703-0.0581055-0.1933594-0.1523438-0.277832-0.2114258c-0.2524414-0.1772461-0.5126953-0.3603516-0.6352539-0.6352539   l-0.5253906-1.5698242c-0.1767578-0.5893555,0.1606445-0.9355469,0.4072266-1.1884766l0.1674805-0.1762695   c-0.0043945-0.0014648,0.0083008-0.043457,0.0234375-0.0864258c0.0571289-0.1586914,0.1274414-0.355957,0.284668-0.5136719   l0.0742188-0.1186523c0.0756836-0.1108398,0.1572266-0.2294922,0.2529297-0.3491211   c0.1191406-0.1831055,0.3959961-0.5825195,0.6176758-0.8037109c0.409668-0.409668,0.8022461-0.644043,1.3120117-0.7827148   c0.1196289-0.034668,0.2529297-0.0517578,0.3969727-0.0678711c0.059082-0.0068359,0.1162109-0.0131836,0.1738281-0.0219727   c0.0771484-0.4765625,0.2866211-0.8583984,0.4907227-1.2299805c0.0620117-0.112793,0.125-0.2275391,0.1845703-0.347168   c0.1044922-0.2084961,0.0620117-0.3105469-0.2822266-0.6816406c-0.1547852-0.1669922-0.3144531-0.3393555-0.4145508-0.5556641   c-0.137207-0.2739258-0.1547852-0.6025391-0.1713867-0.9199219c-0.0102539-0.2016602-0.0214844-0.4106445-0.0673828-0.5488281   c-0.027832-0.0834961-0.0664062-0.1791992-0.1074219-0.2817383c-0.1943359-0.4863281-0.4609375-1.1523438-0.1987305-1.7202148   c0.0600586-0.1254883,0.0610352-0.1855469-0.3017578-0.5615234c-0.2744141-0.2841797-0.6162109-0.6376953-0.6162109-1.1538086   c0-0.4321289,0.2675781-0.6074219,0.3828125-0.6625977c0.1416016-0.0693359,0.5727539-0.2753906,1.6645508,0.5991211   c0.2954102,0.1767578,1.2675781,0.3100586,1.65625,0.2001953c0.0209961-0.0537109,0.2553711-0.5209961,0.3950195-0.8007812   c0.2202148-0.4394531,0.4101562-0.8188477,0.625-1.0336914l0.144043-0.1337891   c0.5839844-0.5302734,0.7705078-0.796875,0.8276367-0.9228516c-0.0654297-0.0483398-0.1225586-0.1123047-0.1577148-0.1826172   c-0.3505859-0.7011719-0.4199219-1.347168-0.2011719-1.8676758c0.1992188-0.4741211,0.6103516-0.8139648,1.222168-1.0112305   c0.3623047-0.1455078,0.5810547-0.2451172,0.6948242-0.4536133c-0.003418-0.0068359,0.0039062-0.0712891,0.0146484-0.1386719   c0.0307617-0.1972656,0.0664062-0.4208984,0.1772461-0.6054688c0.0419922-0.1201172,0.1259766-0.3022461,0.2695312-0.4677734   c0.0297852-0.0566406,0.0600586-0.109375,0.090332-0.1625977c0.03125-0.0546875,0.0625-0.109375,0.0942383-0.171875   c0.0727539-0.1459961,0.0678711-0.3896484,0.0625-0.6474609c-0.0087891-0.4423828-0.0200195-0.9931641,0.394043-1.4077148   c0.2587891-0.2744141,0.2734375-0.628418,0.2763672-1.2290039c0.0009766-0.2910156,0.0024414-0.6210938,0.0551758-0.9633789   c0.0375977-0.2436523,0.2475586-0.4238281,0.4941406-0.4238281c0.3251953,0,0.6044922,0.0776367,0.8286133,0.1396484   c0.0976562,0.0268555,0.2285156,0.0634766,0.2851562,0.0664062c-0.0166016-0.0087891,0.0258789-0.0698242,0.0581055-0.1157227   c0.1264648-0.1821289,0.2998047-0.4316406,0.6025391-0.5825195l0.1269531-0.0703125   c0.1503906-0.0864258,0.3369141-0.1938477,0.6523438-0.2329102c0.1743164-0.0249023,0.3793945-0.0385742,0.5869141-0.0512695   c0.3208008-0.0205078,0.6845703-0.043457,0.8662109-0.1259766c0.0141602-0.0253906,0.059082-0.1967773,0.0859375-0.2993164   c0.0742188-0.28125,0.175293-0.6665039,0.5507812-0.8544922c0.3066406-0.137207,0.5717773-0.171875,0.7851562-0.2001953   c0.3549805-0.046875,0.4003906-0.0527344,0.4921875-0.3164062c0.1210938-0.3886719-0.0791016-1.5708008-0.269043-1.7827148   c-0.0551758-0.0268555-0.1425781-0.0556641-0.2358398-0.0913086c-0.3662109-0.1401367-1.0483398-0.4008789-1.0483398-1.0854492   c0-0.5913086,0.0268555-1.4462891,0.2529297-2.1479492c-0.0249023-0.5981445-0.3598633-0.7304688-1.7143555-0.7304688   c-0.612793,0-1.0205078-0.2841797-1.3178711-0.4916992c-0.3588867-0.25-0.3583984-0.2504883-0.6469727,0.0483398   c-0.6845703,0.6289062-1.2617188,0.6582031-1.6308594,0.5766602c-0.1699219-0.0336914-0.2924805-0.1210938-0.3735352-0.1787109   c-0.1523438-0.0273438-0.4125977-0.0273438-1.2514648-0.8632812c-0.2651367-0.2407227-0.5390625-0.2993164-0.9926758-0.3959961   c-0.1821289-0.0029297-0.6010742-0.003418-0.871582-0.4169922l-0.2241211-0.1123047l-0.5317383,0.0839844l-1.171875,0.0786133   c-0.0625,0.0048828-0.128418-0.0043945-0.1904297-0.0249023L11.737793,28.996582   c-0.1811523-0.0600586-0.3120117-0.21875-0.3374023-0.4077148l-0.0727539-0.5449219   c-0.0131836-0.0996094,0.003418-0.2001953,0.0483398-0.2895508l0.1816406-0.3637695l0.2978516-0.3984375l-0.0541992-0.7363281   l-0.0898438-0.2836914c-0.0966797,0.0058594-0.1899414,0.034668-0.2958984,0.0668945   c-0.1962891,0.0600586-0.4404297,0.1352539-0.730957,0.0620117c-0.2075195-0.0585938-0.3681641-0.1748047-0.5102539-0.277832   c-0.0683594-0.0498047-0.1835938-0.1328125-0.2290039-0.1455078c-0.8007812,0.0024414-1.2050781,0.3056641-1.875,0.8081055   c-0.074707,0.0561523-0.2158203,0.1289062-0.309082,0.1367188l-1.2714844,0.1088867   c-0.2631836,0.0322266-0.5073242-0.1713867-0.5390625-0.4394531c-0.0517578-0.4399414-0.0581055-1.7260742,0.527832-2.3852539   c0.2041016-0.2294922,0.4609375-0.3613281,0.746582-0.3847656c0.0336914-0.0205078,0.0708008-0.0478516,0.109375-0.0737305   c0.0209961-0.0146484,0.0424805-0.0288086,0.0639648-0.043457c-0.0483398-0.0356445-0.0961914-0.0766602-0.1425781-0.1230469   c-0.128418-0.128418-0.519043-0.5195312-0.3374023-0.9736328c0.1225586-0.3066406,0.40625-0.4233398,0.7299805-0.4707031   c-0.081543-0.0688477-0.1430664-0.1552734-0.1787109-0.2543945c-0.1606445-0.3842773,0.1396484-0.690918,0.2871094-0.8408203   c0.0717773-0.0732422,0.1464844-0.1494141,0.1918945-0.222168c-0.0024414-0.0048828,0.0102539-0.0961914,0.0185547-0.15625   c0.0253906-0.184082,0.0541992-0.3920898,0.1870117-0.5693359c0.0014648-0.0019531,0.003418-0.0043945,0.0048828-0.0063477   c-0.2182617,0.0532227-0.4560547,0.1176758-0.690918,0.0688477c-0.387207-0.0830078-0.6523438-0.3686523-0.6918945-0.7460938   c-0.0463867-0.4423828,0.2299805-0.9287109,0.6289062-1.1074219c0.1435547-0.0786133,0.3564453-0.1694336,0.5786133-0.2626953   c0.1455078-0.0615234,0.2993164-0.1264648,0.4428711-0.1943359c-0.1230469-0.0039062-0.269043-0.0053711-0.4438477-0.003418   l-0.1191406,0.0009766c-0.2763672,0-0.5-0.2236328-0.5-0.5l-0.0019531-0.3222656   c-0.0097656-1.0004883-0.0200195-2.0356445,1.0200195-2.7436523l2.7119141-1.3422852   c0.0473633-0.0234375,0.0981445-0.0390625,0.1503906-0.046875c0.7983398-0.1137695,1.7036133-0.2431641,2.5371094,0.1523438   c1.1083984,0.5732422,1.6948242,0.3569336,1.9902344,0.1376953c-0.0649414-0.0126953-0.1274414-0.0209961-0.1704102-0.0209961   c-0.4189453,0-0.7011719-0.1352539-0.8388672-0.4013672c-0.2124023-0.4111328,0.0786133-0.8212891,0.2524414-1.065918   c0.03125-0.0439453,0.0605469-0.0834961,0.0791016-0.1162109c0.0493164-0.0859375,0.1225586-0.1552734,0.2109375-0.199707   l0.1870117-0.0952148c0.5317383-0.2724609,1.1933594-0.6113281,1.8891602-0.6113281   c0.0976562,0,0.2084961-0.0058594,0.3261719-0.0117188c0.6264648-0.0297852,1.5664062-0.078125,1.9443359,0.6274414   c0.2236328,0.2285156,0.6108398,0.3530273,1.019043,0.4838867c0.527832,0.1694336,1.1259766,0.3613281,1.5771484,0.8354492   l1.1591797,1.1953125c0.1206055,0.1210938,0.3261719,0.2119141,0.4038086,0.2119141   c0.6635742,0,1.0571289,0.097168,1.2304688,0.3144531c0.6259766,0.4414062,1.5439453,0.8364258,2.6035156,1.1191406   c0.1162109,0.0249023,0.2612305,0.0302734,0.40625,0.0380859c0.2001953,0.0107422,0.4003906,0.0234375,0.5898438,0.0654297   c0.1044922,0.0073242,0.2602539,0.0361328,0.4145508,0.0654297c0.1748047,0.0327148,0.347168,0.0683594,0.5307617,0.0683594   c0.1108398,0,0.21875,0.0371094,0.3066406,0.1049805c0.0893555,0.0693359,0.2045898,0.1142578,0.3388672,0.1665039   c0.21875,0.0854492,0.4907227,0.1914062,0.7119141,0.4443359c0.1196289,0.1181641,0.1967773,0.2714844,0.2592773,0.3945312   c0.0678711,0.1337891,0.0839844,0.1547852,0.1118164,0.1674805c0.2041016,0.0551758,0.9194336-0.1850586,1.0795898-0.3334961   c0.3144531-0.3144531,0.6269531-0.3037109,0.7851562-0.2695312c0.5078125,0.1098633,0.7265625,0.6928711,0.7983398,0.8847656   c0.1000977,0.3540039,0.7177734,0.5263672,1.168457,0.6523438l0.2114258,0.0600586   c0.4487305,0.1323242,0.6347656,0.4355469,0.7583008,0.6367188c0.1171875,0.190918,0.1323242,0.215332,0.3720703,0.215332   c0.0634766,0,0.1259766,0.012207,0.1850586,0.0356445c0.2485352,0.0986328,0.6508789,0.2578125,0.7592773,0.6044922   l0.0288086,0.0463867c0.0454102,0.074707,0.1005859,0.171875,0.1479492,0.2368164l0.5166016,0.3100586l5.4975586,2.0483398   l1.3447266,0.1967773c0.4384766-0.1040039,1.4003906-0.2407227,1.7460938-0.0273438   c0.1474609,0.0908203,0.2631836,0.2895508,0.2631836,0.4628906l0.0625,0.4223633   c0.034668-0.0039062,0.0688477-0.0073242,0.1025391-0.0107422c0.1860352-0.0195312,0.3789062-0.0390625,0.4916992-0.0957031   c0.421875-0.1699219,0.9555664-0.3012695,1.3203125-0.0546875c0.1816406,0.1230469,0.2919922,0.3203125,0.309082,0.5483398   c0.1352539,0.6523438,0.1518555,0.6523438,1.0283203,0.6523438c0.1171875,0,0.2304688,0.0410156,0.3203125,0.1157227   l1.0893555,0.9077148c0.0693359,0.0673828,0.1054688,0.09375,0.1206055,0.1030273   c-0.0161133-0.0180664,0.0454102-0.0678711,0.0874023-0.1015625c0.1176758-0.0957031,0.269043-0.2182617,0.4672852-0.2714844   c0.4033203-0.2841797,0.7133789-0.2509766,0.9682617-0.2236328c0.0644531,0.0068359,0.1342773,0.0151367,0.2158203,0.0151367   c1.0341797,0,1.9111328,0.9106445,2.5517578,1.5751953l0.371582,0.3862305   c0.5722656,0.6083984,0.8876953,0.9438477,1.6899414,0.9438477c0.2734375,0.0307617,0.4570312,0.0869141,0.6328125,0.1435547   c0.3012695,0.0966797,0.4399414,0.1416016,0.7324219-0.0126953c0.3349609-0.1674805,1.4135742-0.3779297,1.8979492-0.1005859   c0.1279297,0.0732422,0.2172852,0.1987305,0.2436523,0.34375c0.0761719,0.4125977,0.4311523,0.644043,0.9643555,0.949707   c0.5419922,0.3105469,1.3613281,0.7797852,1.0551758,1.7597656c-0.0449219,0.125-0.0888672,0.2290039-0.1333008,0.3320312   c-0.0673828,0.1567383-0.1474609,0.3447266-0.159668,0.4648438c0.0097656,0.0063477,0.0200195,0.0131836,0.0302734,0.0205078   l0.1220703,0.0864258c0.0527344,0.0395508,0.097168,0.0893555,0.1308594,0.1464844   c0.0141602-0.0195312,0.0585938-0.0405273,0.0922852-0.0566406c0.1430664-0.0688477,0.3203125-0.1538086,0.5302734-0.1538086   c0.4433594,0,0.7250977,0.2548828,0.8237305,0.5507812c0.0791016,0.0849609,0.1552734,0.1699219,0.2304688,0.2529297   c0.5893555,0.6538086,0.9785156,1.0854492,1.996582,1.0854492c1.0463867,0,1.3544922,0.2553711,1.6489258,0.828125   c0.0874023,0.1704102,0.1782227,0.3466797,0.3837891,0.5620117c0.0732422,0.0615234,0.1464844,0.1459961,0.2094727,0.2202148   c0.0332031,0.0512695,0.0639648,0.0605469,0.1552734,0.0605469c1.5664062,0,2.3310547,0.9023438,2.8217773,1.6879883   c0.0859375,0.1079102,0.3671875,0.3564453,0.5292969,0.4370117c0.5561523-0.4287109,1.0888672-0.1835938,1.3525391-0.0620117   c0.0668945,0.0307617,0.1679688,0.0771484,0.2036133,0.0805664c0.1088867,0.0107422,0.2558594,0.0585938,0.3359375,0.1323242   c0.1806641,0.1665039,0.3276367,0.1967773,0.5708008,0.2460938c0.1923828,0.0390625,0.4311523,0.0874023,0.6938477,0.21875   c-0.0205078-0.0185547,0.0966797-0.0131836,0.2348633-0.0029297c0.2729492,0.0205078,0.5732422,0.0424805,0.8325195,0.1079102   c0.4794922-0.6352539,0.9472656-0.6665039,1.796875-0.6665039c0.0776367,0,0.1542969,0.0180664,0.2241211,0.0527344   C79.6542969,37.1958008,80,37.5068359,80.3999023,37.8671875c0.3081055,0.2773438,0.8823242,0.7939453,1.0805664,0.8359375   c0.0004883,0,0.0014648,0,0.0024414,0c0.8095703,0,1.4580078,0.8115234,1.671875,1.3227539   c0.1796875,0.2905273-0.0068359,0.6225586-0.0961914,0.7817383c-0.043457,0.0776367-0.0810547,0.1445312-0.0952148,0.2099609   c-0.065918,0.2641602-0.050293,0.7373047,0.2490234,1.0112305c0.2255859,0.2089844,1.1333008,0.4267578,1.3388672,0.2915039   c0-0.1713867,0.0717773-0.3105469,0.2167969-0.4018555c0.1455078-0.0917969,0.3110352-0.0810547,0.4658203-0.0073242   c0.9130859,0.4365234,1.1523438,0.6171875,1.6118164,1.5351562c0.1069336,0.0678711,0.6157227-0.0068359,0.8325195-0.0390625   c0.2070312-0.0307617,0.3955078-0.0561523,0.5361328-0.0561523c0.8344727,0,2.2363281,0.8662109,2.6254883,1.2207031   c0.1020508,0.1020508,0.2768555,0.0307617,0.7290039-0.2685547c0.2636719-0.175293,0.5136719-0.3417969,0.7880859-0.3671875   c1.0283203-0.2329102,1.5175781,0.1206055,1.9130859,0.4052734c0.2749023,0.1982422,0.4926758,0.3544922,0.9550781,0.3544922   c0.1479492,0,0.2885742,0.0654297,0.3833008,0.1791992c0.0952148,0.1132812,0.1347656,0.2631836,0.1088867,0.4086914   c-0.0644531,0.3613281,0.0229492,0.4716797,0.1972656,0.6918945c0.1650391,0.2089844,0.3916016,0.4951172,0.3916016,0.9633789   c0,0.3901367-0.1254883,0.6665039-0.3725586,0.8217773c-0.3911133,0.2475586-0.8291016,0.0361328-1.1494141-0.1186523   c-0.0727539-0.0351562-0.1831055-0.0883789-0.222168-0.0981445c-0.0825195,0.0043945-0.1157227,0.043457-0.1269531,0.0561523   c-0.0512695,0.0595703-0.0913086,0.2177734-0.0595703,0.425293c0-0.0224609,0.043457,0.0424805,0.0917969,0.1088867   c0.0878906,0.1210938,0.1972656,0.2714844,0.2583008,0.4833984c0.2568359,0.8359375,0.4365234,1.9248047-0.4907227,2.8520508   c-0.0288086,0.0288086-0.0610352,0.0541992-0.0961914,0.0751953c-0.121582,0.0732422-0.2382812,0.1469727-0.3520508,0.2197266   c-0.5874023,0.3735352-1.1943359,0.7597656-2.1210938,0.7597656c-0.2114258,0-0.3486328,0.1079102-0.5917969,0.3144531   c-0.2954102,0.2504883-0.699707,0.5932617-1.3696289,0.5932617l-1.5019531,0.0727539   c-0.1162109,0.0068359-0.2480469,0.0913086-0.4536133,0.2294922c-0.3208008,0.2148438-0.7548828,0.5063477-1.4326172,0.5322266   c-0.1040039,0.0786133-0.3222656,0.2978516-0.78125,0.8657227l-0.0961914,0.1181641   c-0.5410156,0.5131836-1.1918945,0.3764648-1.6665039,0.2783203c-0.3735352-0.078125-0.6254883-0.1225586-0.7358398-0.0161133   c-0.3354492,0.3852539-1.0058594,0.3676758-1.546875,0.3569336l-1.4765625-0.003418   c-0.3847656,0.1196289-0.7192383,0.1201172-0.9804688,0.1181641c-0.2758789,0.0014648-0.4873047-0.0004883-0.7285156,0.1196289   c-0.5141602,0.2382812-1.0405273,0.1884766-1.5073242,0.1450195c-0.7104492-0.0673828-0.9086914-0.0400391-1.0634766,0.2792969   c-0.1743164,0.3076172-0.7490234,0.9282227-1.1411133,1.1245117c-0.0576172,0.0449219-0.1469727,0.1235352-0.2304688,0.2036133   c0.3378906,0.3027344,0.7290039,0.699707,0.6640625,1.199707c-0.0273438,0.2099609-0.1484375,0.5048828-0.5727539,0.7163086   c-0.1176758,0.059082-0.2441406,0.2089844-0.3657227,0.3540039c-0.2246094,0.2670898-0.5039062,0.5996094-0.9594727,0.6191406   c-0.3374023,0.0322266-0.6542969-0.144043-0.9951172-0.4853516c-0.012207-0.012207-0.0239258-0.0239258-0.0351562-0.0361328   c-0.0136719,0.0068359-0.0273438,0.0136719-0.0415039,0.0209961c0.0341797-0.0219727-0.0410156,0.0478516-0.1303711,0.125   c-0.6708984,0.5732422-1.0258789,0.8540039-1.2954102,0.9282227l-2.4868164,2.3500977   c-0.0541992,0.0512695-0.1186523,0.0898438-0.1899414,0.112793c-0.668457,0.215332-0.9853516,0.6040039-1.3867188,1.0961914   c-0.1728516,0.2119141-0.3496094,0.4272461-0.5561523,0.6337891c0.0327148-0.0356445-0.0078125,0.0288086-0.046875,0.090332   c-0.3115234,0.4887695-0.5581055,0.8461914-0.8481445,0.9799805l-1.2988281,1.1962891   c-0.4726562,0.4726562-0.7851562,0.9624023-0.8657227,1.3647461c-0.0834961,0.3764648-0.0146484,0.8217773,0.0581055,1.293457   c0.0356445,0.230957,0.0717773,0.4658203,0.0942383,0.7041016c0.0268555,0.2114258,0.0068359,0.4291992-0.0117188,0.6401367   c-0.0107422,0.1162109-0.0219727,0.2338867-0.0219727,0.3520508l-0.0249023,0.2216797   c-0.0332031,0.2485352-0.1108398,0.8310547,0.0161133,0.8994141c0.0727539,0.0395508,0.1347656,0.0957031,0.1801758,0.1650391   c0.0390625,0.0595703,0.1069336,0.1625977,0.1538086,0.2202148c0.1552734,0.0708008,0.269043,0.2192383,0.2890625,0.3989258   c0.0112305,0.1040039,0.0102539,0.2382812,0.0063477,0.3793945c-0.0014648,0.0732422-0.0043945,0.1782227-0.0009766,0.2592773   c0.0517578,0.0297852,0.0981445,0.0683594,0.137207,0.1152344c0.2177734,0.2636719,0.4545898,0.4658203,0.6831055,0.6611328   c0.6176758,0.5283203,1.3178711,1.1264648,0.652832,2.4921875c-0.2006836,0.3369141-0.5463867,0.3779297-1.2358398,0.4589844   c-0.2524414,0.0297852-0.6748047,0.0795898-0.7841797,0.1289062c-0.512207,0.5292969-0.9208984,0.5004883-1.390625,0.2646484   c-0.0849609-0.0424805-0.1625977-0.0810547-0.2563477-0.1064453c-0.409668,0.4897461-1.2197266,1.1699219-1.6503906,1.1699219   c-0.0664062,0-0.1987305-0.0195312-0.3549805-0.0498047c-0.0654297-0.012207-0.1679688-0.0322266-0.262207-0.0463867   c-0.0195312,0.0385742-0.0385742,0.0712891-0.0537109,0.0976562c-0.0014648,0.0024414-0.0024414,0.0043945-0.003418,0.0053711   l-0.0639648,0.5688477c-0.0078125,0.0664062-0.0292969,0.1308594-0.0625,0.1894531   c-0.3178711,0.5566406-0.8359375,0.5883789-1.1455078,0.6074219c-0.0703125,0.0043945-0.1743164,0.0112305-0.2143555,0.0239258   c0.0053711,0.0087891-0.0273438,0.0957031-0.0273438,0.3193359c0,0.7324219-0.0507812,1.1870117-0.7539062,1.3198242   c-0.1191406,0.0224609-0.2421875,0.0458984-0.4223633,0.1401367c-0.3432617,0.1547852-0.7583008,0.4638672-1.0722656,0.8208008   c0.1347656-0.0327148,0.402832-0.0483398,0.6533203,0.2363281c0.3041992,0.3452148,0.5737305,1.1665039,0.265625,1.7485352   c-0.3173828,0.6689453-1.21875,0.9736328-1.9360352,0.9160156c-0.6679688-0.0522461-1.1713867-0.402832-1.3613281-0.9423828   c-0.0869141,0.0356445-0.2319336,0.1186523-0.4091797,0.2753906l-0.0004883-0.0004883   c-0.0874023,0.0771484-0.203125,0.1318359-0.3125,0.1416016c-0.2832031,0.0244141-0.4609375-0.1577148-0.6318359-0.3359375   c-0.1064453-0.1103516-0.2387695-0.2475586-0.3813477-0.3383789c-0.081543-0.0541992-0.2402344-0.0932617-0.3950195-0.1015625   c-0.0087891,0.0224609-0.0166016,0.046875-0.0263672,0.0717773c-0.0385742,0.1005859-0.081543,0.2094727-0.1445312,0.3227539   l-0.0039062-0.0024414c-0.3588867,0.5654297-2.1220703,0.659668-2.140625,0.659668   c-0.0507812,0-0.1162109-0.003418-0.1894531-0.0073242c-0.0913086-0.0053711-0.2631836-0.0146484-0.3300781-0.0024414   c-0.0063477,0.0092773-0.1040039,0.0791016-0.2070312,0.152832c-0.1445312,0.1030273-0.3076172,0.2197266-0.5146484,0.2973633   c-0.2958984,0.0581055-0.4975586,0.0078125-0.6918945-0.0410156c-0.065918-0.0166016-0.1704102-0.0429688-0.2255859-0.0498047   c0.0063477,0.0117188-0.0327148,0.0576172-0.0996094,0.1694336l-0.0327148,0.0717773   c-0.0620117,0.1318359-0.1391602,0.2954102-0.2519531,0.4453125c-0.1513672,0.2275391-0.3632812,0.3173828-0.5170898,0.3608398   c-0.0668945,0.1938477-0.1142578,0.4477539-0.1640625,0.7158203c-0.1518555,0.8208008-0.378418,2.0395508-1.5830078,2.1630859   c-0.0361328,0.2905273-0.1625977,0.4931641-0.2788086,0.6220703c-0.2856445,0.3173828-0.7495117,0.4780273-1.3798828,0.4780273   C42.0595703,91.8720703,42.003418,91.8759766,41.949707,91.8759766z M41.2895508,90.0195312   c0.2685547,0.125,0.4023438,0.4047852,0.4833984,0.5742188c0.1396484,0.2924805,0.1567383,0.2895508,0.2807617,0.2749023   c0.4365234-0.0043945,0.6401367-0.0834961,0.7011719-0.1513672c0.0078125-0.0087891,0.0292969-0.0327148,0.0317383-0.1030273   c-0.0214844-0.0571289-0.0327148-0.1166992-0.0327148-0.1762695c0-0.2749023,0.1806641-0.4975586,0.4272461-0.5449219   c0.0913086-0.0537109,0.2182617-0.1186523,0.3901367-0.1186523c0.4741211,0,0.6166992-0.3383789,0.8056641-1.3554688   c0.0512695-0.277832,0.1044922-0.5634766,0.1875-0.8183594c0.03125-0.355957,0.2426758-0.5791016,0.6298828-0.6640625   c0.0991211-0.0820312,0.1474609-0.1845703,0.1943359-0.2841797l0.0605469-0.1254883   c0.152832-0.2587891,0.3354492-0.5092773,0.6606445-0.6396484c0.2841797-0.0957031,0.5498047-0.0288086,0.7851562,0.0307617   c0.0512695,0.0126953,0.1206055,0.0302734,0.1704102,0.0395508c0.0649414-0.0356445,0.1362305-0.0869141,0.2104492-0.1396484   c0.1445312-0.1035156,0.3081055-0.2202148,0.515625-0.2978516c0.2675781-0.0605469,0.4848633-0.0473633,0.6601562-0.0375977   l0.1323242,0.0058594c0.1650391-0.0058594,1.0024414-0.1552734,1.3242188-0.2568359   c0.0112305-0.027832,0.0209961-0.0546875,0.0307617-0.0800781c0.0883789-0.230957,0.2524414-0.6606445,0.8525391-0.7148438   c0.1850586,0.0009766,0.6787109,0.0166016,1.0488281,0.2641602c0.175293,0.1108398,0.3237305,0.2470703,0.4438477,0.3676758   c0.3115234-0.2075195,0.6850586-0.3583984,1.0463867-0.2651367c0.1689453,0.043457,0.4746094,0.1821289,0.6289062,0.6186523   c0.0385742,0.1289062,0.1289062,0.2060547,0.2299805,0.2524414c-0.1660156-0.2451172-0.2568359-0.5522461-0.2568359-0.8486328   c0-1.199707,1.2597656-2.3251953,2.1108398-2.7080078c0.2441406-0.128418,0.4575195-0.1806641,0.6044922-0.2104492   c0.0048828-0.0727539,0.0087891-0.1831055,0.0087891-0.3505859c0-1.2680664,0.796875-1.3173828,1.1796875-1.3413086   c0.1806641-0.0112305,0.2529297-0.0229492,0.2924805-0.0488281l0.0571289-0.4848633   c-0.003418-0.1240234,0.0756836-0.2602539,0.1230469-0.3417969c0-0.1489258,0.1171875-0.359375,0.2324219-0.4541016   c0.2885742-0.2397461,0.7192383-0.1572266,1.1362305-0.0766602c0.0439453,0.0083008,0.0844727,0.0166016,0.1191406,0.0229492   c0.2602539-0.1396484,0.8979492-0.6967773,1.0073242-0.8896484c0.0732422-0.1953125,0.2490234-0.300293,0.4575195-0.300293   c0.4560547,0,0.7460938,0.1455078,0.9375,0.2412109c0.0356445,0.0180664,0.081543,0.0410156,0.1088867,0.0517578   c0.0039062-0.0136719,0.0732422-0.0581055,0.1982422-0.1831055c0.2246094-0.2246094,0.6010742-0.2783203,1.3027344-0.3613281   c0.1650391-0.019043,0.3930664-0.0463867,0.534668-0.0722656c0.2226562-0.5209961,0.0625-0.6582031-0.4838867-1.1254883   c-0.2158203-0.184082-0.4560547-0.3896484-0.6943359-0.6557617c-0.0864258-0.0356445-0.1650391-0.0883789-0.2314453-0.15625   c-0.2626953-0.2695312-0.2519531-0.6796875-0.2436523-1.0092773c0.0004883-0.0131836,0.0004883-0.0263672,0.0009766-0.0390625   c-0.0874023-0.0908203-0.1611328-0.1962891-0.2260742-0.2939453c-0.6000977-0.4272461-0.487793-1.2685547-0.4121094-1.8369141   l0.0200195-0.1513672c-0.0039062-0.0859375,0.0087891-0.234375,0.0219727-0.3793945   c0.0146484-0.1660156,0.0288086-0.3222656,0.0141602-0.4418945c-0.0224609-0.2329102-0.0561523-0.4482422-0.0888672-0.6601562   c-0.0839844-0.5424805-0.1704102-1.1030273-0.0483398-1.652832c0.1499023-0.7509766,0.7094727-1.4375,1.1518555-1.8793945   l1.3950195-1.2856445c0.0507812-0.046875,0.1098633-0.0820312,0.1738281-0.1044922   c0.1201172-0.1206055,0.3481445-0.4780273,0.4267578-0.6020508c0.0605469-0.0952148,0.109375-0.1699219,0.137207-0.2070312   c0.2280273-0.2353516,0.3828125-0.4257812,0.534668-0.6123047c0.4077148-0.4995117,0.8671875-1.0625,1.7436523-1.3779297   l2.5732422-2.4316406c0.09375-0.0888672,0.215332-0.1357422,0.3393555-0.1367188   c0.2275391-0.1557617,0.6669922-0.5317383,0.8276367-0.6689453c0.2207031-0.1884766,0.2602539-0.2226562,0.3320312-0.2587891   c0.2177734-0.1088867,0.2827148-0.1689453,0.2832031-0.1694336c0.1469727-0.1401367,0.3959961-0.2104492,0.5805664-0.1274414   c0.1669922,0.0742188,0.2773438,0.2363281,0.2939453,0.4145508c0.0131836,0.0180664,0.0361328,0.0463867,0.0742188,0.0844727   c0.1757812,0.1757812,0.2563477,0.1938477,0.2573242,0.1943359c0.0195312-0.0205078,0.1430664-0.1674805,0.2246094-0.2646484   c0.1650391-0.1962891,0.3691406-0.4389648,0.6591797-0.5917969c-0.0942383-0.1196289-0.2768555-0.28125-0.3745117-0.3671875   c-0.2275391-0.0668945-0.3569336-0.2329102-0.4047852-0.390625c-0.1884766-0.621582,0.8164062-1.3017578,0.859375-1.3300781   c0.0371094-0.0249023,0.0776367-0.0449219,0.1196289-0.0585938c0.1220703-0.065918,0.5751953-0.5180664,0.6679688-0.6816406   c0.4628906-0.9570312,1.3745117-0.871582,2.0415039-0.8100586c0.3725586,0.0351562,0.7246094,0.0678711,0.980957-0.050293   c0.4394531-0.2192383,0.8310547-0.2143555,1.1635742-0.2182617c0.2607422-0.0004883,0.4736328,0.0014648,0.7333984-0.0898438   c0.0527344-0.019043,0.1088867-0.0283203,0.1650391-0.0283203l1.5805664,0.0039062   c0.2084961,0.0039062,0.6982422,0.0161133,0.8178711-0.0639648c0.5175781-0.4902344,1.1694336-0.3544922,1.6450195-0.2563477   c0.3720703,0.0771484,0.625,0.1201172,0.7353516,0.0166016l0.0458984-0.0629883   c0.7744141-0.9580078,1.1015625-1.2348633,1.4594727-1.2348633c0.4306641,0,0.6831055-0.1689453,0.9746094-0.3647461   c0.2617188-0.175293,0.5581055-0.3740234,0.9575195-0.3974609l1.53125-0.0737305   c0.3134766-0.0004883,0.4707031-0.1225586,0.746582-0.3564453c0.2895508-0.2456055,0.6503906-0.5517578,1.2387695-0.5517578   c0.6357422,0,1.0541992-0.2661133,1.5839844-0.6035156c0.1035156-0.065918,0.2089844-0.1328125,0.3178711-0.1992188   c0.4106445-0.4375,0.465332-0.9541016,0.1992188-1.8193359c-0.0146484-0.0517578-0.0581055-0.1108398-0.1079102-0.1796875   c-0.0883789-0.1210938-0.1977539-0.2719727-0.2583008-0.484375c-0.0874023-0.5410156,0.0180664-0.9892578,0.2758789-1.2895508   c0.1567383-0.1826172,0.4453125-0.4003906,0.9311523-0.4003906c0.2104492,0,0.4052734,0.09375,0.6108398,0.1928711   c0.0083008,0.0039062,0.0170898,0.0083008,0.0258789,0.0126953c-0.0263672-0.0454102-0.0629883-0.09375-0.1137695-0.1577148   c-0.1611328-0.2036133-0.3837891-0.4848633-0.4257812-0.9501953c-0.4667969-0.0957031-0.7661133-0.3110352-1.019043-0.4931641   c-0.3398438-0.2446289-0.5249023-0.3798828-1.1416016-0.2338867c-0.0375977,0.0092773-0.0766602,0.0136719-0.1157227,0.0136719   c-0.0205078,0.0136719-0.1918945,0.1274414-0.3051758,0.203125c-0.4467773,0.2973633-1.2792969,0.8535156-1.9736328,0.1591797   c-0.3515625-0.3193359-1.4985352-0.9438477-1.9350586-0.9438477c-0.1025391,0-0.2387695,0.0229492-0.3891602,0.0454102   c-0.6103516,0.0908203-1.5327148,0.2285156-1.8798828-0.515625c-0.2558594-0.5112305-0.3544922-0.6572266-0.6953125-0.8452148   c-0.0893555,0.0888672-0.1992188,0.1611328-0.328125,0.2148438c-0.7158203,0.2949219-2.003418-0.1020508-2.4008789-0.4990234   c-0.5693359-0.5205078-0.6806641-1.3647461-0.5307617-1.9633789c0.043457-0.1962891,0.1313477-0.3540039,0.1958008-0.46875   c-0.1879883-0.331543-0.4951172-0.6176758-0.7280273-0.6176758c-0.4799805,0-0.9726562-0.4121094-1.7270508-1.0913086   c-0.2578125-0.2319336-0.5444336-0.4902344-0.7329102-0.6162109c-0.7363281,0.0019531-0.753418,0.0317383-1.0634766,0.581543   c-0.1118164,0.1982422-0.3427734,0.2949219-0.5625,0.237793c-0.1137695-0.0297852-0.2094727-0.097168-0.2753906-0.1870117   c-0.1660156-0.0390625-0.4951172-0.0634766-0.6669922-0.0761719c-0.2734375-0.0205078-0.4223633-0.0327148-0.5424805-0.0732422   c-0.2094727-0.0991211-0.3491211-0.1274414-0.5107422-0.1601562c-0.2626953-0.0532227-0.5820312-0.1181641-0.9204102-0.3808594   c-0.1557617-0.0332031-0.2929688-0.0961914-0.409668-0.1499023c-0.2563477-0.1191406-0.2631836-0.1152344-0.3481445-0.0341797   c-0.1464844,0.1469727-0.3642578,0.2241211-0.5986328,0.2089844c-0.668457-0.0478516-1.3344727-0.8847656-1.3408203-0.8930664   c-0.5712891-0.9116211-1.125-1.2529297-1.9975586-1.2529297c-0.5249023,0-0.734375-0.1962891-0.9189453-0.4145508   c-0.0356445-0.0424805-0.0756836-0.0913086-0.1362305-0.144043c-0.3383789-0.3520508-0.4794922-0.6264648-0.5825195-0.8271484   c-0.1303711-0.2524414-0.1469727-0.2851562-0.7597656-0.2851562c-1.4628906,0-2.1118164-0.7197266-2.7392578-1.4155273   c-0.1000977-0.1108398-0.2016602-0.2241211-0.3100586-0.3374023c-0.0273438-0.0288086-0.0512695-0.0605469-0.0708008-0.0947266   c-0.0092773,0.0043945-0.0185547,0.0092773-0.0283203,0.0136719c-0.1186523,0.0571289-0.2661133,0.1274414-0.4394531,0.15625   c-0.0048828,0-0.0102539,0-0.015625,0c-0.3999023,0-0.6982422-0.1967773-0.8569336-0.387207l-0.0332031-0.0234375   c-0.1401367-0.0966797-0.3325195-0.2290039-0.4121094-0.4711914c-0.1396484-0.4628906,0.0429688-0.8891602,0.1899414-1.2314453   c0.0366211-0.0859375,0.0737305-0.1723633,0.1054688-0.2587891c0.0419922-0.1357422,0.0268555-0.2089844-0.6054688-0.5712891   c-0.4707031-0.2700195-1.0922852-0.6259766-1.3564453-1.3037109c-0.2392578,0.0039062-0.6542969,0.0620117-0.7954102,0.1328125   c-0.6577148,0.3447266-1.1230469,0.1948242-1.4956055,0.074707c-0.1201172-0.0385742-0.2446289-0.0810547-0.3891602-0.0991211   c-0.0039062,0-0.0073242,0-0.0112305,0c-1.1645508,0-1.737793-0.609375-2.3447266-1.2548828l-0.3637695-0.3774414   c-0.4863281-0.5053711-1.222168-1.269043-1.8310547-1.269043c-0.121582,0-0.2260742-0.0107422-0.3227539-0.0209961   c-0.199707-0.0209961-0.2055664-0.0219727-0.3408203,0.0893555c-0.0874023,0.0717773-0.1962891,0.1113281-0.3085938,0.1132812   c0.0405273,0.0019531-0.0136719,0.0458984-0.0498047,0.0751953c-0.2001953,0.1621094-0.8120117,0.6601562-1.5112305-0.0405273   l-0.9179688-0.7626953c-1.034668-0.0151367-1.5224609-0.1860352-1.7954102-1.3178711   c-0.0766602,0.0170898-0.1713867,0.0449219-0.2705078,0.0849609c-0.2387695,0.1210938-0.5366211,0.1518555-0.7993164,0.1787109   c-0.1708984,0.0175781-0.3320312,0.0341797-0.4355469,0.0756836c-0.1420898,0.0571289-0.3037109,0.0458984-0.4360352-0.03125   c-0.1328125-0.0771484-0.2231445-0.2104492-0.2451172-0.3623047L46.0327148,22.84375   c-0.2973633,0.015625-0.7363281,0.0742188-0.8623047,0.1132812c-0.0922852,0.046875-0.1533203,0.0444336-0.2568359,0.0302734   l-1.4858398-0.2177734c-0.0356445-0.0053711-0.0708008-0.0141602-0.1044922-0.0268555l-5.6303711-2.1069336l-0.5654297-0.3305664   c-0.2133789-0.0839844-0.3491211-0.309082-0.5229492-0.5966797l-0.0600586-0.0986328   c-0.0112305-0.0161133-0.0209961-0.0332031-0.0297852-0.050293c-0.0375977-0.0185547-0.0864258-0.0395508-0.1293945-0.0566406   c-0.7202148-0.0351562-0.9702148-0.4423828-1.1220703-0.6899414c-0.0961914-0.1567383-0.1171875-0.1791992-0.1875-0.2001953   l-0.1992188-0.0561523C34.1967773,18.3666992,33.2651367,18.105957,33.0273438,17.25   c-0.0175781-0.0463867-0.034668-0.0844727-0.0507812-0.1162109c-0.4667969,0.3310547-1.5146484,0.7177734-2.0888672,0.4291992   c-0.3398438-0.1499023-0.4829102-0.4331055-0.5776367-0.6201172c-0.034668-0.0688477-0.0673828-0.1337891-0.097168-0.1635742   c-0.0791016-0.0888672-0.1821289-0.1313477-0.3447266-0.1948242c-0.1313477-0.0512695-0.2871094-0.1118164-0.4448242-0.2084961   c-0.1972656-0.0131836-0.3779297-0.0473633-0.5541992-0.0805664c-0.1264648-0.0239258-0.2539062-0.0488281-0.3867188-0.0620117   c-0.1948242-0.0395508-0.3398438-0.0449219-0.4848633-0.0527344c-0.2001953-0.0107422-0.4003906-0.0234375-0.5898438-0.0654297   c-1.2558594-0.3344727-2.3354492-0.8154297-3.0615234-1.359375l0,0c-0.1357422-0.0244141-0.4067383-0.0454102-0.5356445-0.0454102   c-0.4194336,0-0.8632812-0.2563477-1.1166992-0.5107422l-1.1674805-1.2036133   c-0.2788086-0.2924805-0.7075195-0.4301758-1.1616211-0.5761719c-0.5463867-0.175293-1.1113281-0.3569336-1.512207-0.8286133   c-0.0317383-0.0371094-0.0576172-0.0786133-0.0771484-0.1235352c-0.0698242-0.159668-0.7587891-0.1264648-1.019043-0.1123047   c-0.1352539,0.0063477-0.2631836,0.0126953-0.3754883,0.0126953c-0.4545898,0-0.9970703,0.277832-1.4331055,0.5014648   l-0.0385742,0.0195312c0.3325195,0.0551758,0.8369141,0.2060547,1.0083008,0.6201172   c0.0581055,0.1391602,0.1503906,0.5048828-0.2363281,0.8920898c-0.5668945,0.597168-1.6162109,1.1298828-3.3442383,0.2353516   c-0.5249023-0.2490234-1.206543-0.1640625-1.8725586-0.0688477l-2.5800781,1.2719727   c-0.4824219,0.3339844-0.5283203,0.8017578-0.5239258,1.7036133c0.6870117,0.0126953,1.2724609,0.1079102,1.46875,0.5561523   c0.0708008,0.1616211,0.1362305,0.4897461-0.2216797,0.8686523c-0.3510742,0.3212891-0.8208008,0.519043-1.2353516,0.6938477   c-0.0712891,0.0297852-0.1416016,0.0595703-0.2099609,0.0888672c0.0102539-0.0029297,0.0200195-0.0053711,0.0297852-0.0083008   c0.3964844-0.1132812,0.8916016-0.2553711,1.434082-0.1118164c0.3925781,0.0776367,0.6494141,0.4067383,0.609375,0.8120117   c-0.0488281,0.4921875-0.5917969,1.0429688-1.2451172,1.0429688c0,0-0.012207,0-0.0302734-0.0004883   c-0.0004883,0.0048828-0.0014648,0.0097656-0.0019531,0.0151367c-0.012207,0.0888672-0.0263672,0.1899414-0.0537109,0.2919922   c0.6337891-0.234375,0.9594727-0.003418,1.1020508,0.1689453c0.2172852,0.2612305,0.2216797,0.640625,0.0214844,0.9970703   c0.2075195,0.0200195,0.4970703,0.159668,0.4970703,0.7856445c0,0.1225586-0.0097656,0.4404297-0.0986328,0.7485352   c-0.1748047,0.6074219-0.5424805,0.6982422-0.7460938,0.6982422c0.0092773,0.0117188-0.074707,0.0620117-0.1669922,0.1118164   c-0.2202148,0.1186523-0.4692383,0.253418-0.7148438,0.2841797c-0.3818359,0.1367188-0.7016602-0.1787109-0.8554688-0.3310547   c-0.0024414-0.0024414-0.0048828-0.0048828-0.0073242-0.0073242c-0.0126953,0.0087891-0.0253906,0.0170898-0.0375977,0.0258789   c-0.184082,0.1254883-0.3574219,0.2436523-0.5786133,0.2436523c-0.0205078,0-0.0458984,0-0.0932617,0.0532227   c-0.1796875,0.2016602-0.2734375,0.6875-0.2939453,1.1186523l0.6015625-0.0512695   c0.7197266-0.5380859,1.3354492-0.9584961,2.4370117-0.9584961c0.3300781,0,0.5849609,0.1845703,0.7900391,0.3330078   c0.0605469,0.0439453,0.1518555,0.1098633,0.1875,0.1235352c0.0073242-0.0024414,0.1079102-0.0332031,0.1748047-0.0537109   c0.1547852-0.0473633,0.3671875-0.1123047,0.6274414-0.1123047h0.3271484c0.2182617,0,0.4111328,0.1416016,0.4770508,0.3496094   l0.2177734,0.6904297c0.0112305,0.0366211,0.0185547,0.074707,0.0214844,0.1132812l0.0727539,0.980957   c0.0092773,0.1230469-0.0273438,0.2446289-0.1025391,0.3422852l-0.4262695,0.6079102l0.0595703,0.1074219l1.0283203-0.0668945   l0.6445312-0.1040039c0.1035156-0.0170898,0.2089844,0.0004883,0.3022461,0.0463867l0.5078125,0.2543945   c0.1010742,0.0507812,0.1821289,0.1342773,0.2294922,0.2368164c0.019043-0.0004883,0.0483398,0.0009766,0.0917969,0.0009766   c0.0351562,0,0.0708008,0.0039062,0.1049805,0.0112305c0.5761719,0.1230469,1.0576172,0.2260742,1.5390625,0.6640625   c0.2026367,0.2016602,0.5131836,0.4746094,0.6489258,0.5664062c0.2431641,0.0283203,0.4023438,0.1416016,0.4931641,0.206543   c0.2045898,0.0595703,0.4570312-0.0517578,0.7265625-0.2993164c0.8574219-0.8920898,1.5200195-0.4287109,1.9169922-0.152832   c0.2397461,0.1674805,0.4467773,0.3120117,0.7456055,0.3120117c1.015625,0,2.7158203,0,2.7158203,1.8076172   c0,0.0566406-0.0097656,0.1132812-0.0288086,0.1665039c-0.2021484,0.5727539-0.2255859,1.3613281-0.2255859,1.9042969   c0.034668,0.0097656,0.2758789,0.1015625,0.4052734,0.1513672c0.1621094,0.0620117,0.3100586,0.1230469,0.4130859,0.1875   c0.7089844,0.3168945,0.8857422,2.2895508,0.684082,2.934082c-0.2988281,0.8608398-0.9077148,0.9414062-1.3110352,0.9946289   c-0.171875,0.0224609-0.3344727,0.0439453-0.4882812,0.1123047c0.0332031-0.0107422,0.0117188,0.1171875-0.0107422,0.2050781   c-0.0766602,0.2915039-0.1923828,0.7319336-0.6225586,0.9472656c-0.3657227,0.1669922-0.8071289,0.1948242-1.234375,0.2216797   c-0.1801758,0.0112305-0.3583984,0.0219727-0.5175781,0.0444336c-0.1230469,0.0151367-0.1704102,0.0424805-0.2851562,0.1083984   c-0.0546875,0.0317383-0.112793,0.0644531-0.1787109,0.0976562c-0.074707,0.0375977-0.1533203,0.1503906-0.2290039,0.2592773   c-0.1293945,0.1860352-0.2900391,0.4169922-0.5834961,0.5014648c-0.2695312,0.1010742-0.5629883,0.019043-0.8476562-0.059082   c-0.0356445-0.0102539-0.0717773-0.0200195-0.1074219-0.0297852c-0.0029297,0.1074219-0.0029297,0.2133789-0.003418,0.3173828   c-0.0029297,0.6264648-0.0058594,1.3364258-0.5595703,1.921875c-0.1225586,0.1230469-0.1166992,0.3989258-0.1108398,0.6904297   c0.0068359,0.3505859,0.0151367,0.7480469-0.168457,1.1157227c-0.0405273,0.0805664-0.0800781,0.1503906-0.1201172,0.2207031   c-0.0322266,0.0561523-0.0649414,0.112793-0.097168,0.1772461c-0.0239258,0.0488281-0.0556641,0.0932617-0.0942383,0.1313477   c-0.0537109,0.0537109-0.1049805,0.1713867-0.144043,0.2685547c-0.0483398,0.1030273-0.0693359,0.237793-0.0820312,0.3183594   c-0.0258789,0.1606445-0.0498047,0.3125-0.1166992,0.4458008c-0.3022461,0.5556641-0.8178711,0.7612305-1.1943359,0.9116211   c-0.4013672,0.1342773-0.6054688,0.284668-0.6865234,0.4770508c-0.0913086,0.2172852-0.0493164,0.5380859,0.1166992,0.9125977   c0.1875,0.1416016,0.3046875,0.3359375,0.3354492,0.5615234c0.0893555,0.6479492-0.5576172,1.2958984-1.1708984,1.8525391   l-0.1083984,0.0996094c-0.1005859,0.1010742-0.2958984,0.4902344-0.4379883,0.7749023   c-0.3803711,0.7592773-0.6142578,1.1943359-1.0078125,1.3125c-0.5888672,0.1699219-1.6606445,0.0498047-2.3007812-0.2338867   c0.2304688,0.3242188,0.3911133,0.75,0.1386719,1.2783203c-0.0791016,0.1708984,0.1166992,0.6601562,0.2216797,0.9233398   c0.0493164,0.1230469,0.0947266,0.2373047,0.128418,0.3378906c0.0883789,0.2666016,0.1035156,0.5561523,0.1171875,0.8120117   c0.0107422,0.2050781,0.0224609,0.4375,0.0737305,0.5390625c0.0400391,0.0859375,0.1494141,0.2041016,0.246582,0.3085938   c0.3061523,0.3300781,0.8759766,0.9443359,0.4433594,1.809082c-0.0654297,0.1308594-0.1342773,0.2568359-0.2026367,0.3808594   c-0.2226562,0.4057617-0.3984375,0.7265625-0.3984375,1.1391602c0,0.2045898-0.1245117,0.3881836-0.3139648,0.4643555   c-0.2827148,0.1132812-0.5244141,0.1396484-0.7182617,0.1611328c-0.0844727,0.0097656-0.1630859,0.015625-0.2373047,0.0371094   c-0.3461914,0.0942383-0.5893555,0.2412109-0.875,0.5268555c-0.0888672,0.0893555-0.2719727,0.3164062-0.5185547,0.6860352   c-0.1044922,0.1337891-0.1708984,0.2319336-0.2329102,0.3232422c-0.050293,0.0737305-0.0981445,0.144043-0.1459961,0.2080078   c-0.0488281,0.0620117-0.0791016,0.1469727-0.097168,0.1977539c-0.0517578,0.144043-0.1103516,0.3076172-0.2402344,0.4375   c-0.0507812,0.0571289-0.1162109,0.1245117-0.1767578,0.1865234C8.1171875,63.496582,8.0224609,63.59375,8.0048828,63.6303711   l0.5146484,1.4941406c0.0087891-0.0102539,0.1782227,0.1079102,0.2788086,0.1782227   c0.3081055,0.2167969,0.6918945,0.4863281,0.6918945,0.9248047c0.0869141,0.3999023,0.0214844,0.7998047-0.2045898,1.0932617   c-0.3613281,0.4697266-0.9897461,0.5117188-1.5439453,0.5488281c-0.1767578,0.012207-0.3564453,0.0234375-0.5249023,0.050293   c0.0292969,0.003418-0.0751953,0.1137695-0.1445312,0.1865234c-0.125,0.1323242-0.2587891,0.2695312-0.3979492,0.3740234   c-0.1708984,0.1782227-0.4077148,0.3530273-0.6147461,0.5048828c-0.1225586,0.0898438-0.2329102,0.1679688-0.3129883,0.2475586   c-0.1479492,0.1713867-0.3535156,0.3266602-0.5522461,0.4765625c-0.1357422,0.1025391-0.2744141,0.2050781-0.3916016,0.3222656   c-0.2333984,0.2333984-0.4228516,0.5039062-0.5961914,0.8505859c-0.0522461,0.09375-0.0961914,0.1621094-0.140625,0.2314453   c-0.1000977,0.15625-0.1943359,0.3037109-0.2089844,0.4355469l-0.3393555,3.2568359   c0.2089844,0.2055664,0.4013672,0.3164062,0.5737305,0.3305664c0.1450195,0.0244141,0.2866211,0.015625,0.4248047,0.0068359   c0.3081055-0.0200195,0.7353516-0.0463867,1.0078125,0.28125l0.0986328,0.1430664   c0.0712891,0.1074219,0.1586914,0.2392578,0.2324219,0.3374023c0.0078125-0.0151367,0.015625-0.0297852,0.0229492-0.0424805   l0.0678711-0.121582c0.2041016-0.2763672,0.5234375-0.4604492,0.7558594-0.4604492   c0.793457,0,0.7939453,0.8862305,0.7944336,1.3618164c0,0.1552734,0.0004883,0.3930664,0.0244141,0.5302734   c0.1723633,0.0009766,0.3461914,0.0839844,0.4384766,0.2285156c0.09375,0.1474609,0.2236328,0.2875977,0.3613281,0.4404297   c0.2294922,0.2543945,0.4897461,0.5429688,0.7055664,0.9267578c0.1425781,0.3085938,0.2167969,0.6083984,0.2885742,0.8979492   c0.0454102,0.184082,0.0888672,0.3642578,0.1455078,0.5205078c-0.0073242-0.0361328,0.0292969,0,0.0610352,0.03125   c0.1005859,0.1000977,0.2143555,0.2143555,0.2700195,0.3798828c0.0512695,0.1791992,0.0878906,0.3530273,0.1098633,0.5200195   c0.1845703-0.0141602,0.4296875,0.0146484,0.6000977,0.2373047c0.2617188,0.3417969,0.0581055,0.78125-0.0400391,0.9926758   c-0.0795898,0.1713867-0.2480469,0.2827148-0.4360352,0.2890625c0.409668,0.1586914,0.6948242,0.4584961,0.8027344,0.8662109   c0.1601562,0.6020508-0.1245117,1.293457-0.6894531,1.7456055c0.0488281,0.1992188,0.1499023,0.4008789,0.2617188,0.6245117   c0.1865234,0.3730469,0.3979492,0.7958984,0.3979492,1.3134766c0,0.2114258,0.1943359,0.3510742,0.6074219,0.5991211   c0.3198242,0.1918945,0.6821289,0.4091797,0.8652344,0.7753906l0.0859375,0.2080078   c0.184082,0.4604492,0.2124023,0.5307617,0.6699219,0.7138672c0.3525391,0.1601562,0.5244141,0.5244141,0.7060547,0.9101562   c0.03125,0.0654297,0.0693359,0.1469727,0.1064453,0.2197266c0.0170898-0.0019531,0.0336914-0.003418,0.0507812-0.003418   c-0.0527344-0.0014648,0.0166016-0.078125,0.0629883-0.1289062c0.203125-0.2236328,0.5092773-0.5610352,1.0307617-0.5610352   c0.3466797,0,0.6455078-0.1450195,0.7431641-0.3603516c0.2954102-0.6225586,1.0327148-1.0756836,1.6835938-1.4750977   c0.2421875-0.1489258,0.472168-0.2885742,0.6479492-0.4233398c0.5678711-0.5722656,1.7172852-0.8842773,2.7470703-0.7133789   c0.043457,0.0073242,0.0854492,0.0200195,0.1254883,0.0380859c0.1787109,0.081543,0.340332,0.2270508,0.5268555,0.3955078   c0.515625,0.4633789,0.7148438,0.5581055,0.887207,0.4248047l0.2211914-0.1542969   c0.2119141-0.1499023,0.4638672-0.3251953,0.6943359-0.4399414c0.1518555-0.0678711,0.2880859-0.1162109,0.4165039-0.1611328   c0.1035156-0.0361328,0.2597656-0.0908203,0.3027344-0.1210938c0.0864258-0.0878906,0.1357422-0.1606445,0.171875-0.2128906   c0.2587891-0.3769531,0.5058594-0.3930664,1.0395508-0.3930664c0.2963867,0,0.5332031,0.0444336,0.7416992,0.0830078   c0.3378906,0.0644531,0.5073242,0.0952148,0.8051758-0.0620117c0.5092773-0.3061523,2.6020508,0.6513672,2.7294922,0.7792969   c0.1972656,0.1865234,0.6015625,0.3310547,0.9926758,0.4707031c0.6118164,0.21875,1.2939453,0.4624023,1.6772461,1.0224609   c0.0791016-0.0429688,0.2041016-0.1040039,0.2905273-0.1459961c0.3945312-0.1923828,0.9907227-0.4838867,1.4350586-0.0395508   c0.3110352,0.3115234,0.5,0.4814453,0.6132812,0.4731445c0.0488281-0.0063477,0.128418-0.0439453,0.1816406-0.0683594   c0.1787109-0.0839844,0.4008789-0.1879883,0.6679688-0.1879883c0.7890625,0,1.2089844,0.4550781,1.5463867,0.8208008   c0.0610352,0.0664062,0.1225586,0.1333008,0.1875,0.1977539c0.1884766,0.1894531,0.3891602,0.1577148,0.8945312-0.0327148   c0.1513672-0.0566406,0.2929688-0.1083984,0.4189453-0.1376953c0.0371094-0.0083008,0.074707-0.0126953,0.112793-0.0126953   c0.0292969-0.0039062,0.1269531-0.0458984,0.1914062-0.0737305c0.1225586-0.0522461,0.2617188-0.1118164,0.4165039-0.137207   C39.984375,89.1166992,40.7744141,89.3862305,41.2895508,90.0195312z M43.2851562,89.9926758   c0.0385742,0.0004883,0.0761719,0.0048828,0.112793,0.0136719C43.3623047,89.9980469,43.324707,89.9931641,43.2851562,89.9926758z    M43.2836914,89.9926758c0.0004883,0,0.0009766,0,0.0014648,0C43.284668,89.9926758,43.2841797,89.9926758,43.2836914,89.9926758z    M43.2822266,89.9926758c0.0004883,0,0.0009766,0,0.0009766,0S43.2827148,89.9926758,43.2822266,89.9926758z    M43.2807617,89.8833008c-0.0004883,0-0.0004883,0-0.0009766,0C43.2802734,89.8833008,43.2802734,89.8833008,43.2807617,89.8833008   z M51.8735352,85.4189453c0,0.0004883-0.0004883,0.0009766-0.0009766,0.0014648   C51.8730469,85.4199219,51.8735352,85.4194336,51.8735352,85.4189453z M59.1826172,79.7402344l-0.0097656,0.0888672   C59.1767578,79.8095703,59.1826172,79.777832,59.1826172,79.7402344z M59.3276367,79.3408203c0,0.0004883,0,0.0009766,0,0.0014648   C59.3276367,79.3417969,59.3276367,79.3413086,59.3276367,79.3408203z M64.4516602,77.2919922L64.4516602,77.2919922   L64.4516602,77.2919922z M64.6650391,65.671875L64.6650391,65.671875L64.6650391,65.671875z M72.75,59.4453125   c0,0.0004883,0,0.0004883,0,0.0004883S72.75,59.4458008,72.75,59.4453125z M82.2333984,40.4086914   c0.0078125,0.0214844,0.0175781,0.0444336,0.0307617,0.0664062C82.2543945,40.453125,82.2446289,40.4311523,82.2333984,40.4086914z    M73.019043,37.0180664c-0.0048828,0.0043945-0.0097656,0.0087891-0.0146484,0.0136719   C73.0092773,37.0273438,73.0141602,37.0224609,73.019043,37.0180664z M8.0620117,24.1699219L8.0620117,24.1699219   L8.0620117,24.1699219z M8.6098633,23.6088867c-0.0107422,0.0014648-0.0214844,0.0039062-0.0317383,0.0073242   C8.5883789,23.6142578,8.5991211,23.6118164,8.6098633,23.6088867z M8.625,23.5244141   c0.0073242,0.0068359,0.0141602,0.0136719,0.0205078,0.0200195c0.0141602,0.0136719,0.0273438,0.027832,0.0410156,0.0415039   c0.1337891-0.0458984,0.2705078-0.1196289,0.3515625-0.1635742c0.1513672-0.081543,0.2890625-0.1557617,0.4262695-0.1972656   c0.0063477-0.0214844,0.012207-0.0463867,0.0180664-0.0727539c-0.0302734,0.0151367-0.059082,0.0292969-0.0864258,0.0429688   C9.1723633,23.3056641,8.9057617,23.4375,8.625,23.5244141z M45.9819336,22.4902344   c-0.0004883,0.0302734,0.0039062,0.0600586,0.0126953,0.0878906L45.9819336,22.4902344z M8.3447266,22.1640625   c0,0.0004883,0,0.0009766,0,0.0014648C8.3447266,22.1650391,8.3447266,22.1645508,8.3447266,22.1640625z M8.3447266,22.1625977   v0.0004883V22.1625977z M9.4003906,19.6044922c0.0004883,0,0.0009766,0,0.0009766,0.0004883   C9.4008789,19.6044922,9.4008789,19.6044922,9.4003906,19.6044922z M24.1459961,14.3598633   c0,0.0131836,0.0004883,0.0258789,0.0019531,0.0385742C24.1464844,14.3857422,24.1459961,14.3725586,24.1459961,14.3598633z    M24.1459961,14.3579102c0,0.0004883,0,0.0009766,0,0.0014648C24.1459961,14.3588867,24.1459961,14.3583984,24.1459961,14.3579102z    M24.1459961,14.355957c0,0.0004883,0,0.0009766,0,0.0019531C24.1459961,14.3569336,24.1459961,14.3564453,24.1459961,14.355957z"></path></g></svg>