<svg height='100px' width='100px'  fill="#000000" xmlns="http://www.w3.org/2000/svg" xmlns:xlink="http://www.w3.org/1999/xlink" version="1.1" x="0px" y="0px" viewBox="0 0 64 64" style="enable-background:new 0 0 64 64;" xml:space="preserve"><g><path d="M29.101,29H27v2h2v2h-2v2h2.101c0.465,2.279,2.484,4,4.899,4h1v-2h-1c-1.302,0-2.402-0.839-2.816-2H33v-2h-2v-2h2v-2   h-1.816c0.414-1.161,1.514-2,2.816-2h1v-2h-1C31.586,25,29.566,26.721,29.101,29z"></path><polygon points="19.8,42.6 18.2,41.4 16,44.333 13.8,41.4 12.2,42.6 15,46.333 15,47 13,47 13,49 15,49 15,51 13,51 13,53 15,53    15,55 17,55 17,53 19,53 19,51 17,51 17,49 19,49 19,47 17,47 17,46.333  "></polygon><path d="M47,20.816V23h2v-2h2v-3c0-1.654-1.346-3-3-3c-0.551,0-1-0.449-1-1v-1h1c0.551,0,1,0.449,1,1v1h2v-1   c0-1.302-0.839-2.402-2-2.816V9h-2v2h-2v3c0,1.654,1.346,3,3,3c0.551,0,1,0.449,1,1v1h-1c-0.551,0-1-0.449-1-1v-1h-2v1   C45,19.302,45.839,20.402,47,20.816z"></path><path d="M48,27c6.065,0,11-4.935,11-11S54.065,5,48,5S37,9.935,37,16S41.935,27,48,27z M48,7c4.962,0,9,4.038,9,9s-4.038,9-9,9   s-9-4.038-9-9S43.038,7,48,7z"></path><path d="M63,16c0-8.271-6.729-15-15-15c-3.252,0-6.256,1.051-8.716,2.816C36.91,3.281,34.464,3,32,3C14.907,3,1,16.009,1,32   c0,3.166,0.557,6.271,1.626,9.244C1.594,43.277,1,45.568,1,48c0,8.271,6.729,15,15,15c3.252,0,6.256-1.051,8.716-2.816   C27.09,60.719,29.536,61,32,61c17.093,0,31-13.01,31-29c0-3.167-0.557-6.272-1.626-9.244C62.406,20.723,63,18.432,63,16z M61,16   c0,7.168-5.832,13-13,13s-13-5.832-13-13S40.832,3,48,3S61,8.832,61,16z M49,32c0,4.097-0.99,7.77-2.491,11h-4.346   C45.129,40.258,47,36.348,47,32c0-0.351-0.016-0.702-0.041-1.053C47.305,30.971,47.649,31,48,31c0.323,0,0.64-0.028,0.958-0.049   C48.972,31.302,49,31.648,49,32z M27.219,57.922c0.397,0.311,0.78,0.603,1.138,0.865c-0.569-0.066-1.135-0.151-1.698-0.249   C26.854,58.341,27.035,58.13,27.219,57.922z M28.454,56.349C30.06,53.961,31,51.088,31,48c0-0.35-0.016-0.702-0.041-1.053   C31.305,46.971,31.649,47,32,47c2.713,0,5.253-0.735,7.451-2h6.037c-4.392,7.848-11.569,12.649-13.49,13.836   C31.339,58.432,30.049,57.596,28.454,56.349z M25,48c0,4.963-4.038,9-9,9s-9-4.037-9-9s4.038-9,9-9   c1.053,0,2.078,0.188,3.055,0.541c1.307,2.234,3.17,4.097,5.404,5.404C24.812,45.922,25,46.947,25,48z M15.042,33.049   C15.027,32.698,15,32.351,15,32c0-4.096,0.99-7.77,2.491-11h4.346C18.871,23.742,17,27.652,17,32c0,0.351,0.029,0.695,0.053,1.041   C16.703,33.016,16.352,33,16,33C15.677,33,15.36,33.028,15.042,33.049z M36.781,6.078C36.384,5.767,36,5.474,35.643,5.212   c0.569,0.066,1.135,0.151,1.698,0.249C37.146,5.658,36.965,5.87,36.781,6.078z M35.546,7.651C33.94,10.039,33,12.912,33,16   c0,0.351,0.029,0.695,0.053,1.041C32.702,17.016,32.351,17,32,17c-2.713,0-5.253,0.735-7.451,2h-6.037   c4.392-7.848,11.569-12.649,13.49-13.836C32.663,5.569,33.956,6.408,35.546,7.651z M40.459,28.945C40.812,29.923,41,30.948,41,32   c0,4.963-4.038,9-9,9s-9-4.037-9-9c0-4.962,4.038-9,9-9c1.052,0,2.077,0.188,3.055,0.541   C36.361,25.775,38.225,27.639,40.459,28.945z M19,32c0-7.168,5.832-13,13-13c0.44,0,0.881,0.031,1.32,0.075   c0.151,0.723,0.369,1.42,0.62,2.102C33.303,21.063,32.656,21,32,21c-6.065,0-11,4.935-11,11s4.935,11,11,11s11-4.935,11-11   c0-0.656-0.063-1.303-0.176-1.94c0.681,0.252,1.378,0.469,2.102,0.62C44.969,31.119,45,31.56,45,32c0,7.168-5.832,13-13,13   S19,39.168,19,32z M28.308,5.226C24.901,7.709,19.574,12.354,16.186,19H6.592C10.968,11.617,18.948,6.339,28.308,5.226z M3,32   c0-3.917,0.908-7.638,2.526-11h9.724C13.879,24.248,13,27.918,13,32c0,0.433,0.032,0.863,0.052,1.294   c-3.684,0.737-6.872,2.836-9.047,5.738C3.344,36.749,3,34.394,3,32z M3,48c0-7.168,5.832-13,13-13c0.442,0,0.883,0.03,1.32,0.075   c0.151,0.723,0.369,1.421,0.62,2.102C17.303,37.063,16.656,37,16,37C9.935,37,5,41.935,5,48s4.935,11,11,11s11-4.935,11-11   c0-0.656-0.063-1.303-0.176-1.94c0.681,0.252,1.379,0.469,2.102,0.62C28.969,47.119,29,47.559,29,48c0,7.168-5.832,13-13,13   S3,55.168,3,48z M35.692,58.774c3.407-2.482,8.734-7.128,12.122-13.774h9.594C53.032,52.383,45.052,57.661,35.692,58.774z M61,32   c0,3.917-0.908,7.638-2.526,11H48.75C50.121,39.752,51,36.082,51,32c0-0.433-0.032-0.863-0.052-1.294   c3.684-0.737,6.872-2.836,9.047-5.738C60.656,27.25,61,29.606,61,32z"></path><rect x="61" y="61" width="2" height="2"></rect><rect x="61" y="55" width="2" height="2"></rect><rect x="55" y="61" width="2" height="2"></rect><rect x="1" y="1" width="2" height="2"></rect><rect x="7" y="1" width="2" height="2"></rect><rect x="1" y="7" width="2" height="2"></rect></g></svg>