<svg height='100px' width='100px'  fill="#000000" xmlns="http://www.w3.org/2000/svg" xmlns:xlink="http://www.w3.org/1999/xlink" version="1.1" x="0px" y="0px" viewBox="0 0 512 512" enable-background="new 0 0 512 512" xml:space="preserve"><g><path d="M60.184,109.291c10.029,0,18.188-8.175,18.188-18.224c0-10.009-8.159-18.152-18.188-18.152s-18.188,8.143-18.188,18.152   C41.996,101.116,50.155,109.291,60.184,109.291z M60.184,84.915c3.412,0,6.188,2.76,6.188,6.152c0,3.432-2.776,6.224-6.188,6.224   s-6.188-2.792-6.188-6.224C53.996,87.675,56.772,84.915,60.184,84.915z"></path><path d="M112.996,109.291c10.011,0,18.156-8.175,18.156-18.224c0-10.009-8.145-18.152-18.156-18.152   c-10.029,0-18.188,8.143-18.188,18.152C94.808,101.116,102.967,109.291,112.996,109.291z M112.996,84.915   c3.395,0,6.156,2.76,6.156,6.152c0,3.432-2.761,6.224-6.156,6.224c-3.47,0-6.188-2.734-6.188-6.224   C106.808,87.675,109.584,84.915,112.996,84.915z"></path><path d="M486.201,292.672h-35.17V55.688c0-3.313-2.687-6-6-6H16.937c-3.313,0-6,2.687-6,6v322.119c0,3.313,2.687,6,6,6h272.967   v63.606c0,8.603,6.997,15.601,15.598,15.601h180.699c8.582,0,15.563-6.998,15.563-15.601V308.207   C501.765,299.641,494.783,292.672,486.201,292.672z M439.031,61.688v23.379h-231.83c-3.313,0-6,2.687-6,6s2.687,6,6,6h231.83   v24.981H22.937v-60.36H439.031z M22.937,371.807V134.048h416.094v158.624H305.502c-8.601,0-15.598,6.969-15.598,15.535v63.6H22.937   z M489.765,447.413c0,1.952-1.632,3.601-3.563,3.601H305.502c-1.95,0-3.598-1.648-3.598-3.601V308.207   c0-1.916,1.647-3.535,3.598-3.535h180.699c1.932,0,3.563,1.619,3.563,3.535V447.413z"></path><path d="M436.163,372.438l-69.444-34.673c-1.861-0.927-4.068-0.829-5.837,0.266c-1.768,1.093-2.844,3.023-2.844,5.103v69.418   c0,2.08,1.077,4.011,2.847,5.104c0.963,0.595,2.057,0.896,3.153,0.896c0.918,0,1.838-0.21,2.685-0.634l69.444-34.745   c2.033-1.018,3.316-3.096,3.315-5.369C439.481,375.531,438.196,373.454,436.163,372.438z M370.038,402.841v-50.005l50.023,24.977   L370.038,402.841z"></path><path d="M212.864,171.051H60.665c-3.313,0-6,2.687-6,6s2.687,6,6,6h152.199c3.313,0,6-2.687,6-6S216.177,171.051,212.864,171.051z"></path><path d="M212.864,201.06h-97.435c-3.313,0-6,2.687-6,6s2.687,6,6,6h97.435c3.313,0,6-2.687,6-6S216.177,201.06,212.864,201.06z"></path><path d="M54.665,237.063c0,3.313,2.687,6,6,6h104.92c2.28,0,4.264-1.272,5.278-3.146c1.016,1.874,2.999,3.146,5.279,3.146h27.318   c3.313,0,6-2.687,6-6s-2.687-6-6-6h-27.318c-2.28,0-4.263,1.272-5.279,3.146c-1.015-1.874-2.998-3.146-5.278-3.146H60.665   C57.352,231.063,54.665,233.75,54.665,237.063z"></path><path d="M212.864,261.001H60.665c-3.313,0-6,2.687-6,6s2.687,6,6,6h152.199c3.313,0,6-2.687,6-6S216.177,261.001,212.864,261.001z"></path><path d="M98.731,213.06c3.313,0,6-2.687,6-6s-2.687-6-6-6H71.413c-3.313,0-6,2.687-6,6s2.687,6,6,6H98.731z"></path></g></svg>