<svg height='100px' width='100px'  fill="#000000" xmlns="http://www.w3.org/2000/svg" xmlns:xlink="http://www.w3.org/1999/xlink" version="1.1" x="0px" y="0px" viewBox="0 0 100 100" style="enable-background:new 0 0 100 100;" xml:space="preserve"><style type="text/css">
	.st0{fill:none;stroke:#000000;stroke-linecap:round;stroke-linejoin:round;stroke-miterlimit:10;}
</style><path class="st0" d="M18.8,46.3c0-0.1,0-0.2,0-0.3c0,0,0-0.1,0-0.1c0,0,0-0.1-0.1-0.1c-0.1-0.1-0.1-0.2-0.2-0.4c0,0,0-0.1-0.1-0.1  c0,0,0,0.1,0,0.1c0,0,0,0.1,0,0.1C18.4,45.9,18.5,46.2,18.8,46.3z"></path><path class="st0" d="M19.5,48c0.1-0.1,0.1-0.2,0.1-0.3c0,0,0,0-0.1-0.1c-0.1-0.1,0-0.2,0-0.3c0,0-0.1-0.1-0.1-0.1c0,0,0,0,0,0  c-0.1,0.1-0.1,0.2,0,0.3c0,0,0.1,0.1,0.1,0.1c0,0,0,0,0,0.1C19.4,47.8,19.4,47.9,19.5,48z"></path><path class="st0" d="M20.9,48.9c-0.1-0.2-0.1-0.3-0.2-0.5c0,0,0-0.1,0-0.1c0,0,0.1,0,0.1,0c0,0,0.1,0.1,0.1,0.1  c0,0.1,0.1,0.1,0.1,0.2c0.1,0.1,0,0.3,0.1,0.4c0,0,0,0.1,0,0.1c0,0-0.1,0-0.1,0C21,49.1,20.9,49,20.9,48.9z"></path><path class="st0" d="M16.3,32c0,0.1,0.2,0.2,0.2,0.3c0,0.1,0,0.2,0,0.4c0,0.1,0.1,0.2,0.1,0.3c0.2,0.2,0.5,0.3,0.7,0.5  c0.1,0.1,0.1,0.1,0.2,0.2c0.1,0.1,0.1,0.3,0.1,0.4c0,0.1,0.1,0.1,0.1,0.2c0,0.1,0.1,0.1,0.1,0.2c0,0.1,0,0.1,0.1,0.1  c0,0.1,0.1,0.1,0.2,0.2c0,0.1,0.1,0.2,0.1,0.3c0,0,0,0,0,0c0,0,0,0,0,0c0.1,0,0.1,0,0.2,0c0.1,0,0.1,0,0.2,0c0,0,0,0.1,0,0.1  c0,0.1,0,0.2,0,0.2c0,0,0.1,0,0.1,0c0,0,0.1,0,0.1-0.1c0.1,0,0.3-0.1,0.4,0c0.1,0.1,0.2,0,0.3,0.1c0,0,0,0,0,0c0,0,0,0,0,0  c0,0.1,0,0.2,0,0.2c0,0,0,0.1,0.1,0.1c0.1,0.2,0,0.3-0.1,0.5c-0.1,0-0.1,0.1-0.1,0.1c0,0.2,0.1,0.4,0.2,0.6c0,0,0,0,0.1,0.1  c0,0.1,0,0.2,0,0.4c0,0.2,0.1,0.3,0.2,0.4c0.1,0,0.2,0,0.3,0c0.2,0.1,0.3,0.2,0.4,0.4c0,0,0,0,0.1,0.1c0,0,0,0,0.1,0  c0.1,0,0.1-0.1,0.2-0.1c0-0.1,0.1-0.1,0.1-0.1c0,0,0.1,0,0.1,0.1c0,0.1,0.1,0.1,0.1,0.2c0.1,0.1,0.2,0.2,0.2,0.4c0,0-0.1,0-0.1,0  c0.1,0.1,0,0.2,0.1,0.3c0,0.1,0.2,0.2,0.2,0.3c0,0,0,0.1,0,0.1c0,0.1,0.2,0.2,0.3,0.2c0,0,0,0.1,0,0.1c0,0,0.1,0,0.1,0  c0,0,0-0.1,0.1-0.1c0,0,0,0,0.1,0c0.1,0.1,0.2,0.1,0.3,0.1c0.1,0,0.3,0,0.4,0.1c0.1,0,0.1,0.1,0.1,0.1c0.1,0.1,0.2,0.2,0.2,0.4  c0.1,0.2,0.1,0.5,0.2,0.7c0.1,0,0.2-0.1,0.2-0.2c0.1,0.1,0.2,0.2,0.1,0.3c0.1,0,0.2,0.1,0.2,0.3c0,0.1-0.2,0.2-0.3,0.2  c0-0.1,0-0.2,0-0.3c-0.1,0.1-0.2,0.3-0.2,0.4c0-0.1,0-0.3,0-0.4c-0.1,0-0.1,0.1-0.1,0.1c-0.1,0.3-0.2,0.5-0.3,0.8  c-0.1,0.2-0.2,0.4-0.1,0.6c0.1,0,0.2,0,0.2,0c0.1,0.1-0.1,0.2-0.1,0.4c0,0.1,0,0.4,0.2,0.4c0.1,0.1,0.3,0,0.4,0.1c0,0,0,0,0.1,0.1  c0,0,0.1,0,0.1,0c0.1,0,0.3,0,0.4-0.1c0,0,0.1-0.1,0.1-0.1c0.1-0.1,0.3,0,0.3,0.1c-0.1,0.1-0.3,0.1-0.4,0.3c-0.1,0-0.1,0-0.2,0  c-0.1,0-0.1,0-0.1,0.1c0,0,0,0.1,0,0.1c0,0.1,0.1,0.2,0.3,0.2c0,0,0.1,0,0.1,0c0,0,0.1,0,0.1,0c0,0,0.1,0,0.1-0.1c0,0,0-0.1,0.1-0.1  c0,0,0.1-0.1,0.2,0c0,0,0.1,0.1,0.1,0.1c0.1,0.1,0.1,0.2,0.2,0.2c0.4,0.3,0.8,0.7,1.2,1c0.1,0.1,0.3,0.2,0.4,0.4  c0.2,0.1,0.3,0.3,0.5,0.4c0.1,0.1,0.1,0.2,0.1,0.3c0,0.1,0.1,0.2,0,0.2c0,0,0,0,0,0.1c0,0.1,0,0.2,0,0.3c0,0.1-0.1,0.2-0.1,0.3  c0,0,0,0.1,0,0.1c0,0.1,0,0.1,0.1,0.1c0.1,0.1,0.1,0.1,0.2,0.2c0.1,0.1,0.3,0.2,0.5,0.2c0,0.1,0.1,0.2,0.3,0.2c0.1,0,0.2,0,0.3,0.1  c0.1,0,0.2,0.1,0.2,0.2c0,0,0,0,0,0.1c0,0.1-0.1,0.1-0.2,0.1s-0.1-0.1-0.2-0.1c-0.1,0-0.1,0-0.2-0.1c-0.1,0-0.1-0.1-0.1-0.1  c0,0.1,0,0.2,0.1,0.3c0.1,0.1,0.3,0.2,0.4,0.3c0.1,0.1,0.2,0.2,0.4,0.2c0.1,0.1,0.3,0.1,0.4,0.2c0.3,0.3,0.5,0.8,0.9,1.1  c0.2,0.2,0.6,0.3,0.7,0.6c0,0.2,0.1,0.3,0.1,0.5c0.1,0.2,0.3,0.3,0.4,0.5c0,0,0,0.1,0.1,0.1c0,0,0.1,0,0.1,0  c0.2,0.1,0.3,0.2,0.4,0.4c0,0.2,0.1,0.3,0.2,0.4c0.1,0.1,0.2,0.3,0.4,0.4c0.1,0,0.2,0.1,0.3,0.1c0.2,0.1,0.3,0.4,0.5,0.5  c0,0,0.1,0,0.1,0c0,0,0,0.1,0,0.1c0.1,0.2,0.2,0.5,0.4,0.6c0.1,0.1,0.3,0.1,0.4,0.2c0.1,0.1,0.3,0.1,0.4,0.3  c0.1,0.3-0.1,0.6-0.1,0.9c0,0.2,0.2,0.3,0.2,0.5c-0.1,0-0.1-0.1-0.1-0.2c-0.1-0.2-0.2-0.3-0.4-0.4c0.1,0.3,0.2,0.5,0.3,0.8  c0,0.5,0.1,1,0.3,1.5c0.1,0.1,0.1,0.2,0.2,0.3c0.1,0.2,0.1,0.5,0.3,0.7c0.1,0.1,0.2,0.1,0.4,0.2s0.2,0.2,0.2,0.4c0,0,0,0.1-0.1,0.1  c-0.1,0.1-0.1,0.3-0.1,0.5c0,0.1,0.1,0.2,0.1,0.4c0,0.1-0.1,0.1-0.1,0.2s-0.1,0.2-0.1,0.3c-0.2,0.1-0.3,0.3-0.5,0.4  c-0.1,0.1-0.1,0.2-0.2,0.3c-0.1,0.1-0.1,0.2-0.2,0.3c0.2,0,0.4,0,0.6,0.1c0.1,0,0.2,0.1,0.3,0.2c0.1,0.1,0.1,0.2,0.1,0.3  c-0.1,0.1-0.2,0.2-0.4,0.3c-0.2,0.1-0.4,0.1-0.6,0.1c-0.1,0-0.1,0-0.2,0c-0.1,0-0.1,0.1-0.2,0.1c-0.1,0.1-0.2,0.2-0.2,0.3  c0,0.1,0,0.1,0.1,0.2c0.1,0.1,0.2,0.3,0.3,0.4c0.1,0.2,0.1,0.3,0.1,0.5c0,0.1,0,0.1,0,0.2c0,0,0,0.1,0.1,0.1  c0.1,0.2,0.2,0.3,0.3,0.5c0.1,0.1,0.1,0.2,0.2,0.3c0.1,0.2,0.2,0.3,0.3,0.4c0.1,0.1,0.1,0.1,0.2,0.2c0.2,0.2,0.3,0.3,0.4,0.6  c0,0.1,0.1,0.2,0.1,0.4c0,0.1,0.2,0.2,0.3,0.3c0.1,0,0.3,0.1,0.4,0.1c0,0,0.1,0.1,0.1,0.1c0.1,0.1,0.2,0,0.3,0.1  c0.1,0,0.2,0.1,0.3,0.2c0.4,0.3,0.7,0.6,1.1,0.8c0.3,0.2,0.6,0.3,0.8,0.5c0.4,0.2,0.6,0.6,1,0.8c0.3,0.1,0.5,0.4,0.6,0.6  c0.1,0.1,0.1,0.3,0.2,0.4c0.1,0.1,0.1,0.1,0.2,0.2c0.3,0.2,0.7,0.2,1,0.4c0.3,0.1,0.6,0.3,0.9,0.4c0.1,0,0.1,0.1,0.2,0.1  c0,0,0,0,0.1,0.1c0,0,0.1,0,0.1,0c0.2,0,0.5,0,0.7,0c0.2,0.1,0.5,0.1,0.7,0.2c0.2,0,0.3,0.1,0.5,0.1c0.1,0,0.2,0,0.4-0.1  c0.3,0,0.6,0.1,0.8,0.2c0.2,0.2,0.5,0.3,0.6,0.6c0.1,0.3,0.5,0.4,0.7,0.6c0.1,0.1,0.2,0.3,0.4,0.3c0.1,0,0.2,0,0.3,0.1  c0.2,0.1,0.4,0.3,0.5,0.5c0.1,0.1,0.2,0.2,0.3,0.3c0,0,0.1,0.1,0.1,0.1c0.1,0,0.1,0,0.2,0c0.1,0,0.1,0.1,0.2,0.2  c0.2,0.2,0.5,0,0.7,0.1c0.1,0,0.1,0.1,0.2,0.1c0.1,0.1,0.3,0.1,0.4,0.1c0.5,0.1,1,0.2,1.4,0.5c0.2,0.2,0.5,0.2,0.6,0.4  c0,0,0,0.1,0.1,0.1c0,0,0.1,0,0.1,0c0.1,0,0.3,0,0.4,0.1c0.1,0.1,0.2,0.1,0.3,0.1c0-0.1-0.2-0.1-0.2-0.3c0.1,0.1,0.3,0.1,0.4,0.2  c0,0,0.1,0.1,0.1,0.1c0,0,0.1,0,0.1,0c0.3,0,0.7,0,1,0c0.1,0.2,0.3,0.1,0.5,0.2c0.1,0,0.1,0.1,0.2,0.1c0.2,0.1,0.4,0.1,0.6,0.2  c0.2,0,0.5,0.1,0.7,0.1c0,0.1,0.1,0.1,0.1,0.1c0.1,0,0.1,0.1,0.1,0.2c0.1,0.1,0.1,0.1,0.2,0.1c0.1,0,0.1,0.1,0.1,0.2  c0.1,0.1,0.2,0.2,0.3,0.2c0.1,0,0.2,0,0.3,0c0.2,0,0.4,0,0.5,0c0.1,0,0.2,0.1,0.3,0.1c0.2,0.1,0.3,0.1,0.5,0.2  c0.1,0.1,0.3,0.2,0.4,0.3c0.1,0,0.1,0.1,0.2,0.1c0.1,0,0.2,0,0.3,0c0.2,0,0.5,0,0.7,0c-0.1,0.1-0.1,0.1-0.2,0.2c0.5,0,1-0.1,1.4,0  c0.2,0.1,0.3,0.1,0.5,0.2c0,0,0.1,0,0.1,0c0,0,0.1,0.1,0.1,0.1c0.1,0.1,0.2,0,0.3,0c0.1,0,0.2,0.2,0.3,0.2c0.1,0,0.1,0,0.2,0  c0.2,0,0.3,0.1,0.4,0.2c0.1,0.1,0.3,0.1,0.5,0.1c0.4,0,0.8,0,1.1-0.2c0.2-0.1,0.3-0.3,0.4-0.4c0.2-0.1,0.3-0.1,0.5-0.2  c0.1-0.1,0.2-0.1,0.3-0.2c0.3-0.1,0.7-0.1,0.9-0.3c0.1-0.1,0.2-0.1,0.4-0.1c0.1,0,0.3,0,0.3-0.2c0-0.1,0-0.2,0.1-0.2  c0,0,0.1-0.1,0.1-0.1c0.2-0.1,0.5-0.2,0.7-0.3c0.1-0.1,0.1-0.1,0.2-0.1c0.1,0,0.2,0,0.2,0c0.2,0,0.4,0,0.6,0c0.1,0,0.1,0,0.1-0.1  c0,0-0.1-0.1-0.1-0.1c0,0-0.1-0.1-0.1-0.1c0,0,0,0,0,0c0,0,0-0.1-0.1-0.1c-0.1,0-0.2-0.1-0.3-0.1c0-0.2,0.1-0.3,0.3-0.3  c0.1,0,0.2,0,0.3,0.1c0.1,0.1,0,0.3,0,0.4c0,0,0.1,0,0.2-0.1c0,0,0-0.1,0.1-0.2c0-0.1,0.1-0.1,0.2-0.1c0.1,0,0.1-0.1,0.2-0.1  c0.1,0,0.1-0.1,0.2,0c0,0.1,0,0.3,0,0.4c-0.1,0-0.3,0-0.4,0c0.1,0.2,0.4,0.2,0.6,0.2c0.2,0.1,0.4,0.2,0.6,0.2c0.7,0,1.4,0.3,2,0.7  c0.1,0.1,0.2,0.1,0.3,0.2c0.1,0.1,0.2,0.1,0.3,0.2c0.1,0.1,0.2,0.1,0.3,0.2c0.1,0.1,0.1,0.1,0.2,0.1c0-0.1-0.1-0.2-0.1-0.2  c0,0-0.1-0.1-0.1-0.1c0,0-0.1,0-0.1,0c-0.2-0.1-0.4-0.3-0.5-0.5c0.1,0,0.1,0,0.2,0.1c0.1,0.1,0.2,0.1,0.3,0.2s0.2,0.2,0.3,0.3  c0.2,0.1,0.3,0.1,0.4,0.3c0,0,0.1,0.1,0.1,0.1c0,0,0.1,0,0.1,0.1c0.3,0.1,0.5,0.4,0.7,0.6c0.3,0.1,0.5,0.5,0.8,0.7  c0.1,0.1,0.2,0.2,0.3,0.2c0,0,0.1,0,0.1,0.1c0,0,0.1,0.1,0.1,0.1c0.2,0.3,0.5,0.4,0.8,0.6c0.1,0.1,0.1,0.1,0.2,0.1  c0,0.1,0.2,0.2,0.3,0.2c0.2,0.1,0.3,0.2,0.5,0.3c0,0,0.1,0.1,0.1,0.1c0,0,0,0.1,0.1,0.1c0,0.1,0.1,0.1,0.1,0.2  c0.1,0.1,0.2,0.2,0.3,0.3c0.1-0.1,0.2-0.2,0.2-0.3c0.1-0.3,0.1-0.6,0.1-0.9c0-0.1,0-0.2,0-0.3c0-0.1,0-0.2,0-0.2c0-0.1,0-0.2,0-0.2  c0,0,0.1-0.1,0.1-0.1c0-0.1,0-0.1,0-0.2c0,0,0-0.1,0-0.1c0-0.1-0.1-0.1-0.2-0.2c-0.2-0.1-0.3-0.2-0.3-0.4l1.5-2.9l4.5-0.5  c0.1-0.1-0.1-0.3-0.1-0.4c0,0,0-0.1,0-0.1c0,0,0-0.1,0-0.1c0,0,0-0.1,0-0.1c0.1-0.1,0.1-0.3,0-0.4c-0.1,0-0.2,0-0.3-0.1  c0,0,0,0-0.1-0.1c-0.1,0-0.1,0-0.2,0c-0.1,0-0.1-0.1-0.1-0.2c0-0.1-0.1-0.2-0.2-0.3c-0.1-0.3-0.4-0.5-0.7-0.7c-0.1,0-0.1,0-0.2-0.1  c0,0-0.1,0-0.1,0c-0.1-0.1,0-0.2-0.1-0.3c-0.1,0-0.1,0.1-0.2,0.1c-0.1,0-0.2,0-0.3,0c-0.1-0.1-0.1-0.1-0.2-0.2c0,0-0.1-0.1-0.1-0.1  c0,0-0.1,0-0.1-0.1c-0.2-0.1-0.4-0.3-0.5-0.5c0,0,0-0.1-0.1-0.1c-0.1,0-0.2,0.1-0.3,0.1c0-0.1-0.1-0.2-0.1-0.2l1.6-0.1l-0.1-2.1  l6.1-0.6c0-0.2,0-0.4,0-0.6c0-0.1,0-0.1,0-0.2c0-0.1,0.1-0.1,0.2-0.1c0.1,0.1,0.2,0.1,0.3,0.2c0,0,0,0.1,0.1,0.1  c0,0,0.1,0.1,0.1,0.1c0,0,0.1,0,0.1,0c0,0,0.1,0,0.1,0c0.1,0,0.1-0.1,0.1-0.2c0.1-0.1,0.1-0.2,0.2-0.3c0,0,0,0,0,0c0,0,0,0,0,0  c0-0.1,0-0.2,0-0.3c0,0,0.1,0,0.1-0.1c0,0,0-0.1,0-0.1c0-0.1,0-0.1,0.1-0.2c0-0.1,0-0.3,0-0.4c0-0.1,0.2-0.3,0.2-0.4  c0.1,0,0.2,0,0.3-0.1c0.1-0.1,0.3,0,0.4-0.1c0.1,0,0.2-0.1,0.3-0.1c0-0.3,0.1-0.6,0.2-0.9c0,0,0-0.1,0.1-0.1c0,0,0.1-0.1,0.1-0.1  c0-0.1,0-0.1,0.1-0.2c0,0,0.1,0,0.1,0.1c0.1,0.1,0.1,0.3,0.2,0.4c0.1,0.1,0.1,0.2,0.1,0.4c0,0.2,0.1,0.4,0.2,0.6  c0.1,0.1,0.1,0.1,0.2,0.2c0.2,0.2,0.3,0.4,0.3,0.6c0.1,0,0.2-0.1,0.3-0.2c0.2-0.4,0.1-0.9,0.1-1.3c0-0.1,0-0.3,0-0.4  c0-0.1,0-0.1,0-0.2c0,0,0-0.1,0.1-0.1c0-0.1,0-0.2,0-0.2c0-0.2,0-0.4,0-0.6c0-0.1,0-0.3,0-0.4c0-0.1,0-0.2,0.1-0.3  c0.1-0.1,0.2-0.1,0.1-0.2c0,0-0.1-0.1-0.1-0.1s-0.1,0-0.1,0.1c-0.1,0.1-0.3,0.2-0.4,0.2c0-0.2,0-0.4,0.2-0.6c0,0,0-0.1,0.1-0.1  c0,0,0.1,0,0.2,0c0-0.1,0.1-0.2,0.1-0.2c0-0.1,0.1-0.2,0.1-0.3c0-0.1-0.1-0.2-0.1-0.3c0,0,0,0,0,0c0,0-0.1,0-0.1,0s0,0.1-0.1,0.1  c-0.1,0.2-0.3,0.2-0.4,0.2c0,0,0,0,0,0c0,0,0,0,0,0c0-0.3,0.3-0.6,0.4-0.8c0-0.1,0.1-0.1,0.1-0.2c0.1,0,0.2,0,0.2,0.1  c0-0.1,0-0.3-0.1-0.4c0,0-0.1-0.1-0.1-0.1c0-0.1,0-0.1,0-0.2c0-0.2,0-0.3,0-0.5c0.1-0.1,0.1-0.4,0.1-0.5c0-0.3,0.3-0.6,0.5-0.9  c0.2-0.2,0.3-0.4,0.5-0.6c0.1-0.2,0.2-0.4,0.3-0.6c0-0.2,0.1-0.3,0.1-0.5c0-0.1,0-0.1,0-0.2c0-0.2,0-0.4,0-0.5c0-0.2,0-0.3-0.1-0.5  c0-0.1-0.1-0.2-0.1-0.3c0,0-0.1,0-0.1,0c-0.1-0.3-0.2-0.6-0.3-0.8c-0.2-0.1-0.4-0.1-0.6,0c-0.1,0-0.1,0.1-0.2,0.1  c-0.1,0-0.1,0-0.2,0c-0.1,0-0.3,0.1-0.4,0.2c0.1,0,0.2,0,0.3,0.1c0.1,0,0.1,0,0.2,0c0.2,0,0.3-0.2,0.4-0.2c0,0.1,0,0.3-0.1,0.4  c-0.1,0-0.1,0-0.2,0.1c0,0-0.1,0-0.1,0.1c-0.2,0.1-0.4-0.2-0.6-0.1c-0.3-0.2-0.7-0.1-1-0.1c-0.3,0-0.5-0.1-0.8-0.2  c-0.3-0.1-0.5-0.1-0.8,0.1c-0.1,0.1-0.2,0.2-0.4,0.3c-0.1,0-0.2,0-0.3,0c-0.3,0-0.6,0.2-0.9,0.3c0.1,0,0.1,0.1,0.1,0.1  c0,0.1-0.1,0.2-0.2,0.2c-0.1,0-0.2,0-0.2,0c-0.1,0.1-0.3,0.1-0.5,0.1c-0.4,0.1-0.9,0.3-1.3,0.4c-0.4,0.1-0.7,0.2-1.1,0.2  c-0.5,0.1-1.1,0.4-1.5,0.6c-0.2,0.1-0.4,0.4-0.6,0.6c-0.2,0.2-0.3,0.4-0.3,0.7s0,0.5,0,0.8c0,0.5-0.1,0.9,0,1.4  c0.1,0.5,0.2,1.1-0.1,1.6c-0.1,0.1-0.1,0.2-0.2,0.3c-0.1,0.2-0.1,0.5-0.1,0.8c0.1,0.6-0.2,1.3-0.7,1.6c-0.1,0-0.1,0.1-0.2,0.1  c-0.1,0.1-0.2,0.1-0.2,0.2c-0.4,0.4-0.8,0.8-1.3,1c0.2,0,0.5,0,0.7,0.1c0,0,0.1,0,0.1,0c0.1,0.1,0,0.3,0,0.4c0,0.1,0.1,0.2,0.1,0.2  c0,0,0,0-0.1,0c-0.2,0.1-0.3,0.1-0.5,0.2c-0.1,0.1-0.2,0.1-0.3,0.3c0,0,0,0.1-0.1,0.1c0,0-0.1,0-0.1,0c-0.1,0-0.2,0-0.4-0.1  s-0.3,0-0.3,0.1c0,0,0,0.1,0,0.1c0,0,0,0,0,0c-0.1-0.1-0.2-0.3-0.3-0.4c-0.1-0.2-0.1-0.5-0.3-0.6c-0.3-0.1-0.6,0.2-0.9,0.2  c-0.4,0-0.9,0.1-1.3,0.2c0,0-0.1,0-0.1,0.1c0,0,0,0.1-0.1,0.1c0,0-0.1,0.1-0.1,0.1c-0.2,0.2-0.4,0.4-0.6,0.6c0,0-0.1,0.1-0.1,0.1  c-0.1,0-0.1,0-0.2,0c-0.1,0-0.3,0-0.4,0c-0.1,0-0.1,0-0.2,0.1c0,0.1,0,0.1-0.1,0.2c-0.1,0-0.1,0-0.2,0c-0.1,0-0.3,0-0.4,0  c-0.1,0-0.1,0-0.2,0c-0.1,0-0.2,0-0.4,0c-0.2,0-0.5,0.1-0.7,0.2c-0.1,0-0.2,0.1-0.2,0.1c-0.1,0.1-0.1,0.2,0,0.2  c0.2-0.1,0.4-0.2,0.6-0.3c0.1,0,0.2-0.1,0.2,0c-0.1,0.2-0.3,0.3-0.5,0.3c0,0-0.1,0-0.1,0c0,0,0,0.1,0,0.1c0,0.1-0.3,0.1-0.4,0.2  c0,0,0,0.1-0.1,0.1c0,0-0.1,0-0.1,0c0-0.2,0-0.3,0-0.5c-0.1,0.1-0.2,0.1-0.2,0.2c-0.1,0.1-0.2,0.1-0.3,0.2c-0.1,0-0.2,0-0.4,0  c0,0-0.1,0-0.1,0.1c-0.1,0-0.1,0-0.2,0c-0.3,0.1-0.6,0.2-0.9,0.2c-0.1,0-0.1,0-0.2-0.1c0,0,0-0.1-0.1-0.1c-0.1-0.1-0.1-0.2-0.2-0.4  c-0.2-0.4-0.5-0.8-1-1c-0.1,0-0.1,0-0.2-0.1c-0.1,0-0.1-0.1-0.2-0.1C70,69,69.5,69,69,69c-0.3,0-0.6,0-0.9-0.1c-0.1,0-0.2,0-0.3,0.1  c0.2,0.1,0.4,0.1,0.6,0.1c0,0.1,0,0.2-0.1,0.2c-0.1,0-0.2,0-0.2-0.1c-0.1,0-0.2,0-0.3,0c0,0,0,0.1,0,0.1c0,0-0.1,0.1-0.1,0.1  c-0.1-0.2-0.2-0.3-0.4-0.3c0-0.1,0.2-0.1,0.1-0.2c0,0,0,0,0,0c-0.1-0.1-0.1-0.1-0.2-0.2c0.2,0,0.4,0,0.6,0c0-0.1-0.1-0.2-0.2-0.2  c-0.1,0-0.2,0-0.3-0.1c-0.1-0.1-0.1-0.2-0.2-0.2c-0.2-0.1-0.4-0.3-0.6-0.4c0-0.1-0.1-0.3-0.2-0.3s-0.3-0.1-0.4-0.2s-0.2-0.2-0.2-0.4  c0-0.1-0.2-0.2-0.2-0.3c0-0.1,0-0.2,0-0.2c0,0,0-0.1-0.1-0.1c-0.1-0.2-0.2-0.4-0.2-0.7c-0.2-0.1-0.2-0.3-0.3-0.5  c0,0-0.1-0.1-0.1-0.1c-0.3-0.3-0.5-0.7-0.7-1.1c-0.1-0.2-0.3-0.4-0.4-0.7c0-0.1-0.1-0.1-0.2-0.2c-0.1,0-0.2,0.1-0.1,0.1  c-0.2-0.2-0.4-0.3-0.5-0.5c-0.1-0.1-0.2-0.1-0.2-0.2c-0.2-0.2-0.3-0.4-0.4-0.6c-0.1-0.1-0.1-0.4-0.2-0.5c-0.1-0.1-0.2-0.2-0.3-0.2  c0,0-0.1,0-0.1-0.1c0,0,0-0.1,0-0.1c0,0,0.1,0,0.1,0c0,0,0-0.1,0-0.1c0,0,0-0.1,0-0.1c0,0-0.1-0.1-0.1-0.1c0-0.1-0.1-0.1-0.1-0.2  c0-0.1-0.1-0.1-0.1-0.2c0-0.1,0-0.1,0.1-0.2c0.1-0.3,0.3-0.6,0.3-0.9c0-0.2-0.2-0.4-0.3-0.6c-0.2-0.2-0.4-0.3-0.5-0.5  c-0.1-0.1-0.2-0.3-0.3-0.5c-0.2-0.4-0.5-0.9-0.5-1.4c0-0.1,0-0.2,0-0.3c0,0,0-0.1,0-0.1c0,0,0-0.1-0.1-0.1c-0.1-0.2-0.1-0.4-0.1-0.7  c0-0.1,0.1-0.3,0.1-0.4c0-0.1,0.1-0.2,0.1-0.3c0-0.1,0.2-0.2,0.2-0.3c0-0.1,0-0.1,0-0.2c0-0.3,0-0.5-0.1-0.8c0-0.2-0.2-0.4-0.1-0.6  c0-0.1,0-0.2,0-0.3C60,52.4,60,52.3,60,52.1c-0.1-0.3-0.1-0.7,0-1c0-0.2,0-0.3,0-0.5c0-0.1-0.1-0.1-0.1-0.2  c-0.1-0.1-0.1-0.2-0.1-0.4c0-0.6,0.2-1.3,0.2-1.9c0-0.3,0-0.5,0-0.8c0,0,0-0.1,0-0.1c0,0,0.1-0.1,0.1-0.1c0-0.1-0.1-0.3-0.1-0.4  c0-0.1-0.1-0.2-0.1-0.3c0-0.1-0.1-0.2,0-0.3c0,0,0.1,0,0.1-0.1c0-0.1,0-0.1-0.1-0.1s-0.1,0-0.2-0.1c-0.1-0.1,0-0.2,0.1-0.2  c0,0,0.1,0.1,0.1,0.1c0-0.2-0.1-0.3-0.2-0.4c0.1,0,0.1-0.2,0.1-0.3c0.2,0,0.3,0.3,0.4,0.3c0.1,0,0.1-0.1,0.1-0.2  c0-0.1,0-0.3-0.1-0.4c0.1,0,0.3,0,0.4,0.1c0,0.1,0,0.1,0,0.2c0,0.2,0,0.4-0.2,0.6c0,0.1-0.1,0.1-0.1,0.2c0,0.1,0,0.1,0,0.2  c0.1,0,0.1-0.1,0.1-0.1c0.1-0.3,0.3-0.6,0.4-0.8c0.1-0.4,0.3-0.7,0.5-1.1c0-0.1,0.1-0.2,0.1-0.2c0-0.1,0-0.2,0-0.3  c-0.1,0-0.1,0-0.2,0c0-0.1,0-0.2,0-0.3c0,0,0.1-0.1,0.1-0.1c0,0,0-0.1,0-0.2c-0.1-0.1-0.3-0.1-0.4,0c-0.1,0-0.2,0.1-0.3,0.1  s-0.2,0-0.3,0c-0.1-0.1-0.2-0.3-0.3-0.4c0,0-0.1,0-0.1,0c-0.1,0-0.3-0.1-0.4,0c-0.2,0.1-0.5-0.1-0.8,0c0,0-0.1,0-0.1,0.1  c-0.1,0.1-0.3,0-0.4-0.1c-0.3-0.2-0.6-0.3-0.9-0.5c-0.2-0.1-0.4-0.2-0.6-0.2c-0.1,0-0.2-0.1-0.4-0.1c-0.1-0.1-0.1-0.1-0.2-0.2  c-0.3-0.1-0.6,0-0.8-0.2c-0.1-0.1-0.1-0.2-0.2-0.4c-0.1-0.1-0.2-0.1-0.2-0.2c-0.2-0.2-0.2-0.5-0.3-0.7c0-0.1-0.1-0.2-0.2-0.3  c-0.3-0.4-0.1-1.1-0.5-1.4c0,0,0-0.1,0-0.1c0.1,0,0.1,0,0.1-0.1s0-0.1,0-0.2c0-0.1,0-0.2-0.1-0.3c0-0.1-0.1-0.1-0.1-0.2  c0-0.1,0-0.1,0-0.2c-0.1-0.2-0.3-0.1-0.5-0.2c-0.1-0.1-0.2-0.2-0.3-0.3c-0.1,0-0.1-0.1-0.2-0.1c-0.1,0-0.1-0.1-0.1-0.2  c-0.1-0.1-0.1-0.2-0.2-0.3c-0.1-0.2-0.2-0.5-0.4-0.6c-0.1-0.1-0.2-0.1-0.3-0.2c-0.2-0.2-0.2-0.4-0.4-0.5c-0.1,0-0.2-0.2-0.2-0.3  c0-0.1,0-0.1,0-0.2c0-0.1-0.1-0.1-0.1-0.2c-0.1-0.1-0.1-0.3-0.2-0.4c-0.1,0-0.2-0.1-0.2-0.2c0,0,0-0.1,0-0.1c0,0,0-0.1,0-0.1  c-0.1-0.1-0.1-0.2-0.2-0.3c0,0,0-0.1,0-0.1c0,0,0-0.1-0.1-0.1c0-0.1,0-0.2-0.1-0.3c-0.1-0.2-0.2-0.3-0.2-0.5  c-0.1-0.2-0.2-0.3-0.3-0.5s-0.3-0.2-0.5-0.3c-0.2-0.1-0.2-0.3-0.3-0.4c0,0-0.1,0-0.2-0.1c-0.2-0.1-0.4-0.2-0.6-0.4  c0-0.1-0.1-0.2-0.2-0.2c0,0-0.1-0.1-0.1-0.1c0-0.1,0-0.2-0.1-0.2c-0.1-0.2-0.4,0-0.5-0.2c-0.2,0-0.4,0-0.7,0c-0.1,0-0.1,0-0.2,0  c-0.2,0-0.4,0-0.5,0c-0.2,0-0.5,0-0.7-0.1c-0.1,0-0.3-0.1-0.3,0c0,0,0,0.1,0,0.1c0,0.1-0.2,0.1-0.3,0.1c-0.2,0-0.4,0-0.6,0.1  c-0.2,0.1-0.3,0.3-0.3,0.4c0,0,0,0.1,0,0.1c0,0,0,0-0.1,0.1c-0.1,0.1-0.1,0.2-0.1,0.3c0,0.2-0.1,0.4-0.2,0.5  c-0.1,0.1-0.2,0.3-0.3,0.4c0,0-0.1,0.1-0.1,0.1c-0.1,0.1-0.1,0.2-0.1,0.3c-0.1,0.3-0.5,0.4-0.8,0.3c0,0-0.1-0.1-0.1-0.1  c-0.1,0-0.2,0-0.3,0c-0.2,0-0.3-0.2-0.4-0.3c0-0.1-0.1-0.1-0.1-0.2c-0.1,0-0.2,0-0.2-0.1c-0.1,0-0.2,0-0.2-0.1  c-0.1-0.2-0.3-0.3-0.5-0.3s-0.4-0.1-0.6-0.2c-0.1-0.1-0.3-0.3-0.4-0.4c-0.2-0.2-0.6-0.3-0.8-0.5c-0.2-0.3-0.3-0.7-0.5-1  c0-0.1-0.1-0.1-0.1-0.2c0-0.1,0-0.1,0-0.2c0-0.2,0-0.5,0-0.7c0-0.1-0.1-0.3-0.1-0.4c0,0,0-0.1-0.1-0.1c0,0-0.1-0.1-0.1-0.1  c-0.1-0.1-0.2-0.2-0.2-0.4c0-0.1,0-0.2,0-0.2c0-0.1-0.1-0.2-0.2-0.2c-0.1-0.2-0.2-0.3-0.4-0.4c-0.1-0.1-0.2-0.2-0.4-0.3  c-0.2-0.1-0.4-0.1-0.5-0.2c-0.1-0.1-0.1-0.2-0.2-0.2c-0.1,0-0.2-0.1-0.2-0.2c-0.1-0.2-0.3-0.4-0.4-0.5c-0.1-0.1-0.2-0.3-0.3-0.4  c-0.1,0-0.1,0-0.1-0.1c0-0.1-0.1-0.2-0.2-0.3c0,0,0,0-0.1,0c0,0,0,0-0.1-0.1c-0.1-0.1-0.2-0.2-0.3-0.3c0,0-0.1,0-0.1,0  c-0.1,0-0.1-0.1-0.1-0.2c-0.1-0.1-0.2-0.3-0.3-0.4c0,0-0.1,0-0.1-0.1c-0.1-0.1-0.1-0.1-0.1-0.2c0-0.1,0-0.1,0-0.2  c-0.1-0.1-0.2-0.1-0.3-0.2c-0.1-0.1-0.1-0.2-0.2-0.2L28.1,22L28,23.6L20,23L9.2,17.4l0.4-0.6c-0.6,0-1.1,0-1.7-0.1  c-0.2,0-0.3,0-0.5,0c0,0-0.1,0-0.1,0c0,0-0.1,0-0.1,0c-0.3,0-0.6,0-0.9,0c-1-0.1-2-0.1-3.1-0.2c-0.3,0-0.5,0-0.8,0  c0,0.1,0,0.2,0,0.3c0,0.1,0,0.1,0,0.2c0,0.1,0.1,0.1,0.1,0.2c0.1,0.2,0.2,0.3,0.2,0.5c0,0,0,0.1,0,0.1c0,0,0,0.1,0.1,0.1  C3,17.9,3,18,3,18.1c-0.1,0.2,0,0.4,0.1,0.5c0.1,0.1,0.1,0.1,0.2,0.2c0.2,0.1,0.2,0.4,0.1,0.6c-0.1-0.1-0.2,0-0.2,0.1  c0,0.1,0,0.2-0.1,0.3c0,0-0.1,0.1-0.1,0.1c-0.1,0.1,0,0.3,0.1,0.4s0.2,0.2,0.3,0.3c0.1,0.1,0.1,0.3,0.2,0.5C3.9,21,4,21.1,4,21.2  c0.2,0.3-0.1,0.7,0.1,1c0.1,0.2,0.2,0.3,0.4,0.4c0.1,0.1,0.2,0.3,0.1,0.5c-0.1,0.1-0.2,0.1-0.2,0.2c0,0,0,0.1,0,0.1  c0,0.1,0.1,0.3,0.1,0.4c0,0.2,0.1,0.4,0.1,0.6c0,0,0,0.1,0,0.1c0,0,0,0,0,0c0.1-0.1,0.1-0.3,0.1-0.4c0.1,0,0.1,0.1,0.1,0.2  c0,0.1,0,0.2,0.1,0.2c0,0,0,0,0.1,0c0,0,0,0.1,0,0.1c0,0.2-0.1,0.4,0,0.6c0,0,0,0.1,0,0.1c0.1,0.2,0,0.4,0,0.5  c0,0.1,0.1,0.3,0.1,0.4c0.1,0.2,0,0.3,0.1,0.5c0,0.1,0.1,0.3,0.2,0.4c0.1,0.1,0.2,0.2,0.3,0.3c0,0,0.1,0,0.1,0c0,0,0,0,0.1,0  c0,0.1,0.1,0.1,0.2,0.2c0.1,0.1,0.2,0.1,0.3,0.2c0,0,0.1,0,0.1,0c0,0,0.1,0.1,0.1,0.1c0.2,0.3,0.6,0.5,0.8,0.7  c0.1,0.1,0.1,0.2,0.2,0.2c0.1,0.2,0.2,0.4,0.4,0.6c0.1,0.1,0.2,0.2,0.2,0.3c0,0.1,0,0.1,0,0.2c0,0.1,0.2,0.2,0.2,0.3  c0.2,0.2,0.2,0.5,0.3,0.7c0.1,0.2,0.3,0.4,0.5,0.6c0.1,0.2,0.2,0.4,0.2,0.7c0,0.1,0,0.2,0,0.3c0,0.1-0.1,0.1-0.1,0.2  c0,0.1,0,0.1,0.1,0.2c0,0.1,0,0.2,0,0.2c0,0,0,0-0.1,0c0,0-0.1,0.1,0,0.1c0,0.1,0.1,0.1,0.1,0.1c0,0.1,0,0.1,0,0.2  c0,0,0,0.1-0.1,0.1c0,0-0.1,0-0.1-0.1s0-0.1,0-0.1c-0.1,0-0.2,0.1-0.3,0.2c-0.1,0.1-0.1,0.2-0.1,0.3c0,0.1,0.1,0.2,0,0.3  c0.1,0,0.2,0,0.2-0.1c0-0.1,0.1-0.1,0.2-0.1c0,0.1-0.1,0.3-0.1,0.4c0,0.1-0.1,0.1-0.1,0.1c-0.2,0.1-0.4-0.1-0.4-0.3  c0-0.1,0-0.2-0.1-0.2c-0.1,0.2-0.4,0.3-0.6,0.3c-0.1,0-0.2,0-0.3-0.1c-0.3-0.1-0.5-0.1-0.8-0.2c-0.1,0-0.1,0-0.2,0c0,0-0.1,0-0.1,0  c-0.1,0-0.1-0.1-0.2-0.1c-0.1,0-0.1-0.1-0.2,0c0.1,0.4,0.4,0.8,0.7,0.9c0,0,0.1,0,0.1,0.1c0,0.1,0,0.1,0,0.2c0,0.2,0.3,0.2,0.4,0.4  c0.2,0.1,0.3,0.3,0.3,0.5c0,0.2,0,0.3,0,0.5c0,0,0,0.1,0,0.1c0,0,0.1,0,0.1,0.1c0.1,0,0.1,0.1,0.2,0.2c0,0,0.1,0,0.1,0  c0.2,0,0.4,0,0.5,0.1C8.8,37,8.8,37,8.9,37.1c0,0.1,0.1,0.2,0.1,0.3c0,0.1,0.1,0.2,0.2,0.2c0,0,0.1,0,0.1,0c0,0,0.1,0,0.1,0.1  c0.1,0.1,0.2,0.2,0.2,0.3c0.1,0.2,0.2,0.3,0.3,0.5c0,0,0.1,0.1,0.1,0.1c0.1,0,0.2,0,0.3,0c0.1-0.1,0.1-0.1,0.2-0.2c0,0,0-0.1,0-0.1  c0,0-0.1-0.1-0.1-0.1c0-0.1-0.1-0.2,0-0.2c0.1,0,0.2,0.1,0.3,0.1c0,0,0,0,0,0c0,0,0,0.1,0,0.1c0,0,0,0.1,0,0.1c0,0.1,0,0.2,0,0.3  c0,0.1,0.1,0.1,0.2,0.1c0.1,0,0.1-0.1,0.2-0.1c0.2-0.2,0.3-0.3,0.4-0.5c0-0.1,0.1-0.1,0.2-0.1c0,0.3-0.2,0.5-0.3,0.8  c0.1,0.1,0.2,0.2,0.2,0.3c0.1,0.1,0.1,0.3,0.2,0.4c0.1,0.1,0.2,0.1,0.3,0.2c0.1,0.1,0.1,0.2,0.2,0.4c0.1,0.1,0.3,0.1,0.4,0.2  c0.1,0.1,0.1,0.3,0.2,0.4c0.1,0.1,0.2,0,0.3,0.1c0,0,0.1,0.1,0.1,0.1c0.1,0,0.1,0,0.2,0c0.2,0,0.3,0.1,0.3,0.3  c0,0.2,0.2,0.2,0.3,0.4c0.1,0.1,0,0.3,0.1,0.4c0,0.1,0.1,0.1,0.1,0.2c0,0.1,0,0.1,0,0.2c0,0.4,0.2,0.8,0.1,1.2  c-0.1,0.3-0.1,0.6-0.2,0.9c0,0,0,0.1,0,0.1c0,0-0.1,0-0.1,0.1c-0.1,0-0.1,0.1-0.1,0.2c0,0.1,0,0.2-0.1,0.4c-0.1,0.3-0.1,0.6-0.1,0.9  c0,0,0,0,0,0c0-0.1,0-0.2,0.1-0.3c0,0,0-0.1,0-0.1c0,0,0.1-0.1,0.1,0c0,0.2-0.1,0.4-0.1,0.6c0,0.1,0,0.1,0,0.2c0.1,0,0.1,0,0.2,0  c0,0,0,0.1,0,0.1c0.1,0,0.2-0.1,0.2-0.2c0.1,0.1,0.2,0.2,0.3,0.4c0,0.1,0,0.2,0,0.2c0,0.2,0.2,0.4,0.4,0.5c0.1,0,0.1,0,0.2,0.1  c0.1,0.1,0.1,0.2,0.2,0.3c0.1,0,0.1,0,0.2,0.1c0.1,0,0.1,0.1,0.1,0.2c0.2,0.3,0.6,0.4,0.8,0.6c0.1,0.1,0.2,0.1,0.2,0.2  c0.1,0.1,0.2,0.2,0.3,0.4c0.1,0.2,0.2,0.3,0.4,0.4c0,0,0.1,0.1,0.1,0.1c0.1,0.1,0.1,0.2,0.2,0.4c0.1,0.1,0.2,0.3,0.3,0.4  c0.1,0.1,0.2,0.2,0.3,0.3c0.1,0,0.2,0.1,0.2,0.1c0,0,0.1,0.1,0.1,0.1c0.1,0.1,0.1,0.1,0.2,0.2c0.2,0.2,0.4,0.5,0.5,0.8  c0,0.1,0,0.1,0.1,0.2c0.1,0.3,0,0.6,0.1,0.8c0.1,0.1,0.1,0.2,0.1,0.4c0,0.1,0,0.2,0,0.3s0.1,0.2,0.1,0.2c0,0,0.1,0,0.1,0  c0,0,0,0,0,0.1c0.1,0.1,0.2,0.2,0.3,0.2c0.1,0,0.3-0.1,0.3-0.2c0,0,0-0.1,0-0.1c0,0,0,0,0.1,0c0.1,0,0.2-0.1,0.4-0.1  c0,0,0-0.1,0-0.1c0,0,0-0.1,0.1-0.1c0,0,0.1,0,0.1,0c0.1,0,0.1,0,0.2,0.1c0,0,0.1,0,0.1,0c0,0,0,0,0-0.1c0.1-0.1,0.2-0.3,0.2-0.4  c0-0.1,0.3-0.1,0.3-0.3c0,0,0-0.1,0-0.1c0-0.1,0-0.1,0-0.2c0,0,0-0.1,0-0.1c0,0,0-0.1,0-0.1c-0.1-0.1-0.1-0.3-0.1-0.4  c0,0,0-0.1,0-0.1c0,0-0.1-0.1-0.1-0.1c-0.1-0.1-0.1-0.1-0.2-0.2c-0.2,0-0.3-0.1-0.4-0.2c0,0,0,0,0,0c0,0,0,0,0-0.1  c0-0.1,0-0.2,0-0.3c0-0.1,0-0.1,0-0.2c0-0.1-0.1-0.2-0.2-0.3c-0.3-0.2-0.5-0.5-0.7-0.8c-0.1-0.2-0.2-0.4-0.4-0.5  c0,0-0.1-0.1-0.1-0.1c0,0,0-0.1,0-0.1c0,0-0.1,0-0.1,0c-0.1,0-0.1-0.1-0.1-0.2c-0.1-0.1-0.2,0-0.2,0.1c0,0.1,0,0.2,0,0.3  c0,0.3-0.2,0.5-0.5,0.5c0-0.1,0.1-0.2,0.1-0.2c0,0,0.1,0,0.1-0.1c0,0,0,0,0,0c-0.2-0.1-0.4,0-0.5-0.1c-0.1-0.1-0.2-0.3-0.3-0.3  c0-0.1-0.1-0.1-0.1-0.2c0,0,0-0.1-0.1-0.1c0,0,0-0.1,0-0.1c0-0.1,0-0.2,0-0.3c0,0,0-0.1,0-0.1c0,0,0-0.1,0-0.1  c-0.1-0.2-0.1-0.4,0-0.6c0,0,0-0.1,0-0.1c0,0,0.1-0.1,0.1-0.1c0,0,0-0.1,0-0.2c0-0.1,0-0.2,0-0.3c0,0-0.1-0.1-0.1-0.1  c0-0.1,0-0.1-0.1-0.2c0-0.1,0-0.2-0.1-0.2c0,0,0,0,0-0.1c0,0,0,0-0.1,0c-0.1-0.1-0.2-0.2-0.3-0.3c0-0.1,0-0.2-0.1-0.3c0,0,0,0,0-0.1  c0,0,0-0.1,0-0.1c0-0.2,0-0.3,0-0.5c0-0.1,0-0.1,0-0.2c0,0-0.1-0.1-0.1-0.1c0-0.1,0-0.1,0-0.2c0-0.1,0-0.2-0.1-0.2  c-0.1,0-0.2,0-0.2,0c0,0-0.1-0.1-0.1-0.1C17.1,43.3,17,43.2,17,43c0-0.1,0-0.3-0.1-0.3c0,0,0,0-0.1,0c0,0,0-0.1,0-0.2  c0-0.1,0-0.3-0.1-0.4c0-0.1-0.1-0.1-0.1-0.2c0-0.1,0.1-0.2,0.1-0.4c0-0.2,0-0.3-0.1-0.5c0-0.1,0-0.2,0-0.3c0-0.1,0.2-0.2,0.1-0.4  c0-0.1-0.1-0.1-0.1-0.2c0-0.1-0.1-0.2,0-0.3c-0.1,0-0.3-0.1-0.3-0.2c0-0.1,0-0.2,0-0.3c0-0.2-0.1-0.3-0.2-0.4C16,39,16,39,16,38.9  c0,0,0-0.1,0-0.1c0-0.1-0.1-0.2-0.2-0.2c-0.1,0-0.2,0-0.2,0.1c0,0.1,0,0.1,0,0.2c0,0.1,0,0.2,0,0.4c0,0.1,0,0.3,0.1,0.3  c0,0,0.1,0.1,0.1,0.1c0,0.1,0,0.1-0.1,0.2c-0.1,0-0.2,0.1-0.3,0c-0.1-0.1-0.1-0.2-0.1-0.3c-0.1-0.1-0.2-0.3-0.2-0.4c0,0,0-0.1,0-0.1  c0,0,0,0,0.1-0.1c0.1-0.1,0.1-0.1,0.1-0.2c0-0.1-0.1-0.1-0.1-0.2c0,0,0,0,0,0c0,0-0.1-0.1-0.1-0.1c0,0-0.1-0.1-0.1-0.1  c0-0.1,0-0.2,0-0.3c0-0.1,0.1-0.2,0.2-0.1c0,0,0-0.1-0.1-0.1c-0.1-0.1-0.2-0.1-0.3-0.2c-0.1-0.1-0.2-0.2-0.3-0.2c0,0-0.1,0-0.1-0.1  c0,0,0-0.1,0-0.2c0-0.2-0.1-0.3-0.1-0.4c0-0.1-0.1-0.2-0.2-0.2c0-0.1,0.1-0.2,0-0.3c0-0.1-0.1-0.3-0.2-0.4c-0.1-0.1-0.3-0.2-0.4-0.3  c-0.1-0.1-0.1-0.1-0.2-0.2c0,0-0.1,0-0.1,0c-0.1,0-0.1-0.1-0.1-0.1c0-0.1-0.1-0.2-0.1-0.3c0-0.1,0-0.1-0.1-0.2c0,0,0-0.1,0-0.1  c0-0.1,0.1-0.3,0.1-0.4c0,0,0-0.1,0-0.1c-0.1-0.2-0.1-0.3-0.1-0.5c0,0,0-0.1,0-0.1s-0.1-0.1-0.1-0.1c0-0.1,0-0.2-0.1-0.3  c0-0.1,0-0.3,0-0.4c0,0,0,0,0-0.1c0,0-0.1,0-0.1,0c-0.2,0-0.3-0.1-0.4-0.3c0-0.1-0.1-0.3,0-0.4c0,0,0-0.1,0-0.2c0,0-0.1-0.1-0.1-0.1  c0,0,0-0.1,0-0.1c0-0.1,0-0.2,0-0.3c0,0,0,0,0,0c0,0,0,0,0,0c-0.2,0-0.4,0-0.6,0c0-0.2,0.1-0.4,0.1-0.6c-0.1,0-0.2,0-0.3,0  c0,0,0,0,0,0c0,0,0,0,0,0c0,0,0,0.1-0.1,0.1c0,0-0.1,0-0.1,0c0,0,0-0.1,0-0.1c0-0.2,0.1-0.4,0-0.6c0-0.1-0.1-0.2-0.1-0.2  c0-0.1,0-0.3,0-0.4c0-0.1,0-0.1,0-0.2c0,0-0.1,0-0.1-0.1c-0.1,0-0.1-0.1-0.2-0.2c-0.1-0.2-0.2-0.4-0.3-0.6c-0.1-0.1-0.3-0.3-0.4-0.4  c-0.2-0.2-0.3-0.4-0.4-0.6c0,0,0-0.1-0.1-0.1c-0.1-0.1-0.2,0-0.3-0.1c-0.1,0-0.2-0.1-0.2-0.3C9,26.9,9,26.8,8.9,26.7  c0,0,0-0.1-0.1-0.1c0,0,0-0.1-0.1-0.1c0,0-0.1-0.1-0.1-0.2c0-0.1-0.1-0.2-0.1-0.3c-0.1-0.2-0.1-0.3-0.1-0.5  c-0.1-0.2,0.1-0.4,0.1-0.7c0-0.1,0-0.2,0-0.2c0-0.1,0-0.3,0-0.4c0,0,0-0.1-0.1-0.1c-0.1-0.2,0.1-0.4,0.1-0.7c0-0.1,0-0.3,0-0.4  c0-0.1,0-0.1,0-0.2c0,0,0,0-0.1-0.1c-0.1-0.1-0.2-0.3-0.3-0.4c-0.1-0.1-0.1-0.2-0.1-0.3c0.1,0,0.2-0.1,0.2-0.2c0,0,0-0.1,0-0.1  c0,0,0,0,0,0c0,0,0-0.1,0-0.1c0-0.2,0.1-0.3,0.2-0.4c0-0.2,0-0.3,0.1-0.5c0,0,0.1-0.1,0.1-0.1c0,0,0-0.1,0-0.1  c0-0.3-0.1-0.6-0.2-0.8c0-0.1-0.1-0.1-0.2-0.1c0,0-0.1,0-0.1,0c-0.1,0,0-0.2,0-0.2c0.2,0,0.3,0.1,0.4,0.2C8.8,19.7,8.9,19.9,9,20  c0.1,0.1,0.3,0.1,0.4,0.2c0.1,0.1,0.2,0.3,0.3,0.3c0.3,0.2,0.4,0.4,0.7,0.6c0.1,0.1,0.3,0.2,0.4,0.2c0.1,0,0.2-0.1,0.3-0.1  c0.1-0.1,0.2-0.1,0.4,0c0,0,0.1,0.1,0.1,0.1c0.1,0.1,0.2,0.3,0.3,0.4c-0.1,0.2,0,0.3,0.2,0.4c0.1,0.1,0.3,0.1,0.5,0.2  c0.2,0.1,0.4,0.2,0.6,0.3c0.1,0.1,0.3,0.2,0.3,0.4c0,0.1,0,0.1-0.1,0.2c-0.1,0.2-0.1,0.3,0,0.5c0.1,0.2-0.2,0.4-0.1,0.7  c0,0.1,0.1,0.1,0.1,0.1c0.1,0.2,0,0.4,0.1,0.5c0,0,0.1,0.1,0.1,0.1c0.1,0.1,0.1,0.3,0.1,0.4c0,0.1,0.1,0.1,0.1,0.2  c0,0.2,0,0.3,0.1,0.5c0,0.1,0.1,0.1,0.1,0.2c0.1,0.1,0.1,0.3,0.1,0.4c0,0.1-0.1,0.3-0.1,0.4c0,0,0,0.1,0,0.1c0,0,0,0.1,0.1,0.1  c0,0,0.1,0.1,0.1,0.1c0.1,0.2,0.2,0.5,0.3,0.7c0,0.1,0,0.2,0,0.2c0,0.1,0.1,0.2,0.1,0.2c0.1,0.2,0.2,0.4,0.2,0.6  c0,0.2,0.2,0.4,0.4,0.6c0,0,0,0.1,0.1,0.1c0,0.1,0,0.1,0,0.2c0,0.2,0.1,0.4,0.1,0.6c0.1,0.1,0.1,0.2,0.1,0.3c0,0,0,0.1,0,0.1  c0,0.1,0.1,0.2,0.2,0.2c0,0,0,0.1,0.1,0.1c0.1,0.1,0.1,0.2,0.2,0.3C16.1,31.8,16.2,31.9,16.3,32z"></path><path class="st0" d="M5.5,32.9c0,0.1,0.1,0.2,0.2,0.3c0,0,0,0,0.1,0c0,0,0,0,0,0.1c0,0.1,0.1,0.1,0.2,0.1C6,33.2,6,33,6,32.8  c0-0.1,0-0.1,0-0.2c0-0.2,0-0.3,0-0.5c0-0.1,0-0.2-0.1-0.2c-0.1,0-0.1,0-0.1,0.1c-0.1,0.2-0.1,0.3-0.2,0.5c0,0.1,0,0.2-0.1,0.2  C5.6,32.8,5.5,32.8,5.5,32.9z"></path><path class="st0" d="M4.6,32.1c0,0,0.1,0,0.1,0c0,0,0.1-0.1,0.1-0.1c0-0.1,0-0.2-0.1-0.2c-0.1,0-0.1,0-0.1,0.1  C4.6,31.9,4.6,31.9,4.6,32.1C4.6,32,4.6,32,4.6,32.1z"></path><path class="st0" d="M11.8,29.5c-0.1,0-0.2-0.2-0.2-0.3c0-0.1,0-0.2-0.1-0.2c0,0-0.1,0-0.1-0.1c0,0,0-0.1,0-0.1c0-0.1,0-0.2,0-0.4  c0.1,0,0.2,0,0.3,0c0.1,0.3,0.3,0.5,0.4,0.7c0,0.1,0.1,0.2,0.1,0.3c0.1,0.1,0.2,0.1,0.3,0.2c0.1,0.1,0,0.2,0,0.3  c0,0.2,0.1,0.3,0.1,0.5c-0.1,0-0.2,0-0.3-0.1c-0.1-0.1-0.1-0.2-0.2-0.3C12,29.9,11.8,29.7,11.8,29.5z"></path><path class="st0" d="M14.5,31.5c0-0.1-0.1-0.3-0.1-0.4c0-0.1,0-0.3,0.1-0.4c0-0.1,0.1-0.2,0.1-0.4c0,0,0.1-0.1,0-0.1  c0-0.1,0.1-0.1,0.1-0.1c0.1,0,0.1,0,0.2,0c0.1,0,0.2,0,0.3,0.1c0.1,0.1,0,0.3,0.1,0.4c0,0.1,0.2,0.3,0.1,0.4c0,0.1-0.1,0.1-0.1,0.2  c-0.1,0.2,0,0.4-0.1,0.5c0,0-0.1,0-0.1,0.1c0,0,0,0.1-0.1,0.2c-0.1,0-0.1,0-0.2-0.1C14.7,31.7,14.6,31.6,14.5,31.5z"></path><path class="st0" d="M14.1,31.7c0,0.1,0,0.1-0.1,0.2c0,0,0,0.1,0,0.1c0,0,0.1,0,0.1-0.1c0,0,0-0.1,0.1-0.1c0,0,0,0,0-0.1  c0,0,0-0.1-0.1-0.1C14.2,31.7,14.1,31.7,14.1,31.7z"></path><path class="st0" d="M13.1,31.9c0.1,0.1,0.1,0.1,0.2,0.2c0,0,0.1,0.1,0.1,0c0-0.1,0-0.1-0.1-0.2c-0.1,0-0.1-0.1-0.1-0.1  c0,0,0,0-0.1,0C13.1,31.8,13.1,31.9,13.1,31.9z"></path><path class="st0" d="M18.6,42.9c0,0-0.1,0-0.1,0c0,0,0,0.1,0,0.1c0,0.1,0,0.2,0,0.3c0,0,0.1,0,0.1,0c0-0.1,0-0.1,0-0.2  C18.6,43.1,18.6,43,18.6,42.9z"></path><path class="st0" d="M17.1,42c-0.1,0.1-0.1,0.3-0.1,0.4c0,0,0,0,0.1,0c0-0.1,0.1-0.2,0.2-0.3c0.1-0.1,0.1-0.1,0.2-0.1  c0.1-0.1,0.1-0.1,0.1-0.2c0,0,0-0.1,0-0.1c0,0-0.1,0-0.1,0c-0.1,0-0.2,0.1-0.2,0.2C17.3,41.9,17.2,42,17.1,42z"></path><path class="st0" d="M17.5,43c0,0.1,0,0.2,0,0.2c0,0,0.1,0,0.1,0c0-0.1,0-0.2,0.1-0.3C17.6,42.9,17.6,43,17.5,43z"></path><path class="st0" d="M18.4,44.6c0,0-0.1,0.1,0,0.1c0,0,0.1,0.1,0.1,0c0-0.1,0-0.1,0-0.2C18.5,44.6,18.4,44.6,18.4,44.6z"></path><path class="st0" d="M14.2,47.1c0.1,0,0.2,0,0.3,0c0.1,0,0.1,0,0.2,0.1c0,0,0,0,0,0.1c0,0,0,0.1,0.1,0.1c0.1,0.1,0.2,0.1,0.2,0.2  c0.1,0.1,0.1,0.2,0,0.3c-0.1,0-0.1-0.1-0.2-0.1c-0.1-0.1-0.1-0.1-0.2-0.2c0,0,0-0.1,0-0.1c0,0,0,0,0,0  C14.4,47.3,14.3,47.2,14.2,47.1z"></path><path class="st0" d="M15.3,48c0-0.1,0-0.1,0.1-0.1s0.1,0,0.1,0c0.1,0,0.2,0.1,0.3,0.2c0,0.1-0.1,0.1-0.1,0.1  C15.5,48.1,15.4,48,15.3,48z"></path><path class="st0" d="M13.8,46.8c0-0.1-0.1-0.2-0.2-0.2c-0.1-0.1-0.1-0.4-0.2-0.5c0,0-0.1,0-0.1-0.1c0,0,0-0.1-0.1-0.1  c-0.1-0.2,0.1-0.4,0.1-0.7c0-0.3,0.2-0.6,0.3-0.9c0,0,0.1-0.1,0.1-0.1c0,0.1,0,0.2,0,0.3c0,0-0.1,0.1-0.1,0.1c0,0.1,0,0.1-0.1,0.2  c0,0.1,0,0.2,0,0.3c0,0.2,0,0.3-0.1,0.5c0,0.1,0,0.2,0,0.2c0,0.1,0.1,0.2,0.1,0.3C13.8,46.3,13.8,46.6,13.8,46.8z"></path><path class="st0" d="M60.4,46.8c0,0.1-0.1,0.2-0.1,0.3s0,0.2,0,0.3c0,0,0,0.1,0,0.1c0.1,0,0.1,0,0.2-0.1s0-0.1,0-0.2  C60.5,47,60.5,46.9,60.4,46.8z"></path><path class="st0" d="M60.1,48.7c-0.1,0.3-0.2,0.6-0.2,1c0,0.3,0,0.5,0,0.8c0,0,0.1,0,0.1,0C60,49.9,60.1,49.3,60.1,48.7z"></path><path class="st0" d="M97.2,59.3c-0.1,0.1-0.2,0.2-0.3,0.3c-0.1,0.1-0.2,0.2-0.2,0.4c0,0.2,0.1,0.4,0.3,0.4c0.1-0.1,0.1-0.2,0.2-0.3  s0.2-0.2,0.3-0.2c0-0.2,0.1-0.3,0.1-0.5c0,0,0,0,0-0.1C97.4,59.3,97.2,59.4,97.2,59.3z"></path><path class="st0" d="M31,58.8c0-0.1,0-0.2,0-0.2c0.1-0.1,0.1-0.1,0.2,0c0,0,0.1,0,0.1,0c0,0,0.1,0,0.1,0c0,0,0,0,0,0.1  c0,0.1,0,0.3,0.1,0.4C31.3,59.1,31.1,59,31,58.8z"></path><path class="st0" d="M31.6,59.4c0.1,0.1,0.1,0.2,0.2,0.2c0,0,0.1,0.1,0.1,0.1c0.1,0,0.1,0,0.1-0.1c0-0.1,0.1-0.1,0.1-0.1  C31.9,59.4,31.7,59.4,31.6,59.4z"></path><path class="st0" d="M32.3,60c-0.1,0.1,0,0.2,0,0.2c0.1,0,0.2,0,0.2,0C32.6,60,32.4,59.9,32.3,60z"></path></svg>