<svg height='100px' width='100px'  fill="#000000" xmlns="http://www.w3.org/2000/svg" xmlns:xlink="http://www.w3.org/1999/xlink" version="1.1" x="0px" y="0px" viewBox="0 0 64 64" style="enable-background:new 0 0 64 64;" xml:space="preserve"><g><path d="M35,5.051V1h-2v4.051C33.331,5.025,33.662,5,34,5S34.669,5.025,35,5.051z"></path><path d="M33,30.949V35h2v-4.051C34.669,30.975,34.338,31,34,31S33.331,30.975,33,30.949z"></path><path d="M46.949,19H51v-2h-4.051C46.975,17.331,47,17.662,47,18S46.975,18.669,46.949,19z"></path><path d="M21.051,17H17v2h4.051C21.025,18.669,21,18.338,21,18S21.025,17.331,21.051,17z"></path><polygon points="4.618,59 3.618,61 16.382,61 15.382,59  "></polygon><polygon points="6.414,27 3,30.414 3,31 17,31 17,30.414 13.586,27  "></polygon><path d="M10,4.849C8.779,8.139,7.852,11.549,7.208,15h5.583C12.148,11.549,11.221,8.139,10,4.849z"></path><path d="M7,53H5V33H3v23c0,0.552,0.449,1,1,1h9V37h2v20h1c0.551,0,1-0.448,1-1V33H7V53z"></path><rect x="7" y="17" width="6" height="8"></rect><path d="M44.949,17h2C46.461,10.63,41.37,5.539,35,5.051v2C40.268,7.528,44.472,11.732,44.949,17z"></path><path d="M46.949,19H41v-2h1.941C42.478,12.836,39.164,9.522,35,9.059V11h-2V5.051C26.63,5.539,21.539,10.63,21.051,17H27v2h-1.941   c0.463,4.164,3.777,7.478,7.941,7.941V25h2v5.949C41.37,30.461,46.461,25.37,46.949,19z M37,19h-2v2h-2v-2h-2v-2h2v-2h2v2h2V19z"></path><path d="M46.586,29l-1.229-1.229c-0.489,0.567-1.019,1.097-1.586,1.586L45,30.586L46.586,29z"></path><path d="M23.051,19h-2C21.539,25.37,26.63,30.461,33,30.949v-2C27.732,28.472,23.528,24.268,23.051,19z"></path><polygon points="50,28.414 44.414,34 61,50.586 61,39.414  "></polygon></g></svg>