<svg height='100px' width='100px'  fill="#000000" xmlns="http://www.w3.org/2000/svg" xmlns:xlink="http://www.w3.org/1999/xlink" version="1.1" x="0px" y="0px" viewBox="0 0 100 100" style="enable-background:new 0 0 100 100;" xml:space="preserve"><path d="M88.6975098,17.8222656H69.1959839c0.0027466-0.0375977,0.0112915-0.0735474,0.0112915-0.1118164v-2.5302734h2.53125  c0.8554688,0,1.5517578-0.6967773,1.5517578-1.5527344V9.6357422c0-0.855957-0.6962891-1.5527344-1.5517578-1.5527344h-2.53125  V5.5522461C69.2072754,4.6962891,68.5109863,4,67.6555176,4h-3.9921875c-0.8564453,0-1.5527344,0.6962891-1.5527344,1.5522461  v2.5307617h-2.5302734c-0.2652588,0-0.5113525,0.0730591-0.7299194,0.1907349  c-1.491394-0.6548462-3.1352539-1.024231-4.8657837-1.024231h-5.3564453c-6.1636963,0-11.2582397,4.6172485-12.0358887,10.5727539  H11.3024902c-1.1030273,0-2,0.8969727-2,2v6.6621094c0,1.0064087,0.7491455,1.8328857,1.7177734,1.9714355v65.5969238  C11.0202637,95.1259766,11.8937988,96,12.9675293,96h74.065918c1.0732422,0,1.9472656-0.8740234,1.9472656-1.9472656V28.4557495  c0.9677734-0.1390381,1.7167969-0.9653931,1.7167969-1.9713745v-6.6621094  C90.6975098,18.7192383,89.8000488,17.8222656,88.6975098,17.8222656z M60.0275879,10.0830078h3.0830078  c0.5527344,0,1-0.4477539,1-1V6h3.0966797v3.0830078c0,0.5522461,0.4472656,1,1,1h3.0830078v3.097168h-3.0830078  c-0.5527344,0-1,0.4477539-1,1v3.0830078h-3.0966797v-3.0830078c0-0.5522461-0.4472656-1-1-1h-3.0830078V10.0830078z   M38.4777832,22.5688477v-3.168457c0-5.597168,4.5537109-10.1508789,10.1503906-10.1508789h5.3564453  c1.4369507,0,2.8029175,0.3042603,4.0429688,0.8452148v3.5327148c0,0.855957,0.6962891,1.5527344,1.5527344,1.5527344h2.5302734  v2.5302734c0,0.855957,0.6962891,1.5527344,1.5527344,1.5527344h0.4647217  c0.0006104,0.0461426,0.006958,0.0908813,0.006958,0.137207v0.2856445c0,5.5976563-4.5537109,10.1513672-10.1503906,10.1513672  H36.6047363C37.8356934,27.6269531,38.4821777,25.1298828,38.4777832,22.5688477z M11.3024902,26.484375v-6.6621094h25.175293  v2.7788086c0.0022583,1.3224487-0.2067261,2.6314087-0.6019897,3.8833008H11.3024902z M49.0002441,94.0270996l-9.0429688,0.0064697  l-0.050293-20.1156006l9.0932617-0.0233765V94.0270996z M60.0412598,94.0192261l-9.0410156,0.0064697V73.8894653  l9.0410156-0.0232544V94.0192261z M62.0412598,94.0178223V73.8662109c0-1.0742188-0.8740234-1.9482422-1.9472656-1.9482422  H39.9069824c-1.0737305,0-1.9472656,0.8740234-1.9472656,1.9482422v20.1687622l-24.9394531,0.0177612L12.9689941,28.484375  h22.086792c-0.1066284,0.2075195-0.21521,0.4142456-0.333374,0.6162109l-0.7207031,1.2319336  c-0.1806641,0.309082-0.1826172,0.6914063-0.0043945,1.0024414c0.1787109,0.3105469,0.5092773,0.5024414,0.8676758,0.5024414  h19.1196289c3.2379761,0,6.1766357-1.2810669,8.3566895-3.3530273h24.6408691L87.0334473,94L62.0412598,94.0178223z   M64.050354,26.484375c1.2912598-1.9061279,2.0502319-4.1977539,2.0777588-6.6621094h22.569397l0.0009766,6.6621094H64.050354z   M30.333252,71.9179688H19.9812012c-1.0737305,0-1.9472656,0.8740234-1.9472656,1.9482422V85.96875  c0,1.0732422,0.8735352,1.9472656,1.9472656,1.9472656H30.333252c1.0737305,0,1.9472656-0.8740234,1.9472656-1.9472656V73.8662109  C32.2805176,72.7919922,31.4069824,71.9179688,30.333252,71.9179688z M20.0339355,85.96875l-0.0527344-12.0507813h10.2993164  l0.0527344,11.9980469L20.0339355,85.96875z M80.0187988,71.9179688H69.6672363  c-1.0732422,0-1.9472656,0.8740234-1.9472656,1.9482422V85.96875c0,1.0732422,0.8740234,1.9472656,1.9472656,1.9472656h10.3515625  c1.0742188,0,1.9482422-0.8740234,1.9482422-1.9472656V73.8662109  C81.967041,72.7919922,81.0930176,71.9179688,80.0187988,71.9179688z M69.7199707,85.96875l-0.0527344-12.0507813H79.967041  l0.0517578,11.9980469L69.7199707,85.96875z M45.2111816,85.5380859v-3.1582031c0-0.5527344,0.4472656-1,1-1s1,0.4472656,1,1  v3.1582031c0,0.5527344-0.4472656,1-1,1S45.2111816,86.0908203,45.2111816,85.5380859z M52.7893066,85.5380859v-3.1582031  c0-0.5527344,0.4472656-1,1-1s1,0.4472656,1,1v3.1582031c0,0.5527344-0.4472656,1-1,1S52.7893066,86.0908203,52.7893066,85.5380859z   M79.967041,35.1655273H20.0339355c-1.1030273,0-2,0.8969727-2,2v9.0405273c0,1.1030273,0.8969727,2,2,2H79.967041  c1.1025391,0,2-0.8969727,2-2v-9.0405273C81.967041,36.0625,81.0695801,35.1655273,79.967041,35.1655273z M30.4206543,46.2060547  H20.0339355v-9.0405273h10.3867188V46.2060547z M42.8068848,46.2060547H32.4206543v-9.0405273h10.3862305V46.2060547z   M55.1936035,46.2060547H44.8068848v-9.0405273h10.3867188V46.2060547z M67.5803223,46.2060547H57.1936035v-9.0405273h10.3867188  V46.2060547z M69.5803223,46.2060547v-9.0405273H79.967041l0.0009766,9.0405273H69.5803223z M79.967041,54.28125H20.0339355  c-1.1030273,0-2,0.8974609-2,2v9.0400391c0,1.1025391,0.8969727,2,2,2H79.967041c1.1025391,0,2-0.8974609,2-2V56.28125  C81.967041,55.1787109,81.0695801,54.28125,79.967041,54.28125z M30.4206543,65.3212891H20.0339355V56.28125h10.3867188V65.3212891z   M42.8068848,65.3212891H32.4206543V56.28125h10.3862305V65.3212891z M55.1936035,65.3212891H44.8068848V56.28125h10.3867188  V65.3212891z M67.5803223,65.3212891H57.1936035V56.28125h10.3867188V65.3212891z M69.5803223,65.3212891V56.28125H79.967041  l0.0009766,9.0400391H69.5803223z M46.4526978,17.7227173c-0.6462402,0-1.1699829-0.5239258-1.1699829-1.170105  c0-0.6462402,0.5237427-1.170166,1.1699829-1.170166c0.6461792,0,1.1699829,0.5239258,1.1699829,1.170166  C47.6226807,17.1987915,47.098877,17.7227173,46.4526978,17.7227173z M54.9901123,16.5526123  c0-0.6462402,0.5239258-1.170166,1.1700439-1.170166c0.6461792,0,1.1700439,0.5239258,1.1700439,1.170166  c0,0.6461792-0.5238647,1.170105-1.1700439,1.170105C55.5140381,17.7227173,54.9901123,17.1987915,54.9901123,16.5526123z   M51.3068848,24.7041016c-2.6708984,0-4.6855469-1.2216797-4.6855469-2.8422852c0-0.5522461,0.4472656-1,1-1s1,0.4477539,1,1  c0.0693359,0.2436523,1.0693359,0.8422852,2.6855469,0.8422852c1.6152344,0,2.6152344-0.5986328,2.6855469-0.8540039  c0-0.5527344,0.4472656-0.9941406,1-0.9941406c0.5517578,0,0.9990234,0.4536133,0.9990234,1.0058594  C55.9914551,23.4824219,53.9777832,24.7041016,51.3068848,24.7041016z"></path></svg>