<svg height='100px' width='100px'  fill="#000000" xmlns="http://www.w3.org/2000/svg" viewBox="0 0 64 64" x="0px" y="0px"><title>paper-pen</title><g><path d="M41,12a1,1,0,0,0,1-1,6.006,6.006,0,0,0-6-6H12a5.006,5.006,0,0,0-5,5V48H3a1,1,0,0,0-1,1,6.006,6.006,0,0,0,6,6H32c.122,0,.236-.027.355-.036A5.975,5.975,0,0,0,33,55v-.1A5.009,5.009,0,0,0,37,50V12Zm-1.127-2H37V7.141A4,4,0,0,1,39.873,10ZM4.127,50H27.09a5.979,5.979,0,0,0,1.45,3H8A4.005,4.005,0,0,1,4.127,50ZM35,50a3,3,0,0,1-2.5,2.949A3.991,3.991,0,0,1,29,49V48H9V10a3,3,0,0,1,3-3H35Z"></path><rect x="13" y="20" width="10" height="2"></rect><rect x="25" y="20" width="6" height="2"></rect><rect x="13" y="25" width="18" height="2"></rect><rect x="13" y="30" width="4" height="2"></rect><rect x="19" y="30" width="12" height="2"></rect><rect x="13" y="34" width="12" height="2"></rect><rect x="27" y="34" width="4" height="2"></rect><path d="M52,45.982V46a.973.973,0,0,0,.036.18.958.958,0,0,0,.035.191l.007.018h0l1.992,4.981a1,1,0,0,0,1.858,0l1.992-4.981h0l.007-.018a.95.95,0,0,0,.034-.189A.918.918,0,0,0,58,46V17a1,1,0,0,0-1-1H53a1,1,0,0,0-1,1V45.982Zm3,2.326-1-2.5V21h2V45.807ZM54,18h2v1H54Z"></path><path d="M58.4,48.685,57.6,50.521A3.5,3.5,0,0,1,60,53.5c0,1.9-2.29,3.5-5,3.5s-5-1.6-5-3.5a3.506,3.506,0,0,1,2.391-2.978l-.8-1.834A5.45,5.45,0,0,0,48,53.5c0,3.032,3.141,5.5,7,5.5s7-2.468,7-5.5A5.446,5.446,0,0,0,58.4,48.685Z"></path><path d="M40,24h3.586l6.707,6.707,1.414-1.414-7-7A1,1,0,0,0,44,22H40Z"></path><rect x="40" y="25" width="2" height="2"></rect><rect x="40" y="28" width="4" height="2"></rect><rect x="40" y="31" width="4" height="2"></rect></g></svg>