<svg height='100px' width='100px'  fill="#000000" xmlns="http://www.w3.org/2000/svg" xmlns:xlink="http://www.w3.org/1999/xlink" version="1.1" x="0px" y="0px" viewBox="0 0 64 64" style="enable-background:new 0 0 64 64;" xml:space="preserve"><path d="M48,2c-7.72,0-14,6.28-14,14s6.28,14,14,14s14-6.28,14-14S55.72,2,48,2z M57.684,8.943  c-0.866,0.201-1.761,0.373-2.689,0.517c-0.277-0.878-0.607-1.728-0.999-2.538c0.419-0.144,0.817-0.313,1.207-0.497  C56.149,7.138,56.985,7.985,57.684,8.943z M52.033,24.531c-0.982-0.204-2-0.334-3.033-0.384v-2.13  c1.357,0.027,2.699,0.108,3.989,0.246C52.721,23.066,52.398,23.821,52.033,24.531z M43.968,24.532  c-0.365-0.71-0.688-1.464-0.957-2.269c1.289-0.138,2.632-0.219,3.99-0.246v2.13C45.974,24.198,44.956,24.328,43.968,24.532z   M43.972,7.471C44.947,7.674,45.959,7.804,47,7.854V9.97c-1.358-0.028-2.69-0.109-3.984-0.245  C43.281,8.94,43.604,8.189,43.972,7.471z M52.028,7.471c0.368,0.717,0.69,1.468,0.956,2.254C51.69,9.862,50.358,9.942,49,9.97V7.854  C50.05,7.804,51.066,7.673,52.028,7.471z M49,20.018V17h4.968c-0.055,1.128-0.206,2.235-0.447,3.313  C52.065,20.146,50.542,20.048,49,20.018z M42.478,20.313c-0.241-1.077-0.391-2.184-0.446-3.313H47v3.018  C45.457,20.048,43.933,20.146,42.478,20.313z M49,15v-3.03c1.541-0.03,3.055-0.122,4.52-0.288c0.241,1.078,0.392,2.188,0.447,3.318  H49z M47,11.97V15h-4.968c0.055-1.129,0.206-2.238,0.448-3.318C43.945,11.847,45.459,11.94,47,11.97z M40.032,15h-3.982  c0.126-1.518,0.539-2.953,1.18-4.259c1.042,0.262,2.132,0.48,3.262,0.661C40.239,12.573,40.087,13.777,40.032,15z M40.032,17  c0.055,1.224,0.207,2.428,0.459,3.599c-1.137,0.181-2.226,0.4-3.262,0.659c-0.64-1.306-1.053-2.74-1.179-4.258H40.032z M55.968,17  h3.982c-0.126,1.518-0.539,2.952-1.179,4.258c-1.036-0.259-2.126-0.478-3.262-0.659C55.761,19.427,55.913,18.224,55.968,17z   M55.968,15c-0.055-1.225-0.207-2.428-0.46-3.599c1.129-0.181,2.22-0.398,3.262-0.66c0.641,1.306,1.053,2.741,1.18,4.259H55.968z   M53.042,5.125c-0.267,0.084-0.522,0.177-0.808,0.247c-0.106,0.035-0.215,0.064-0.363,0.093c-2.445,0.551-5.261,0.558-7.774-0.007  c-0.114-0.021-0.223-0.051-0.414-0.11c-0.248-0.059-0.483-0.146-0.724-0.222C44.493,4.411,46.198,4,48,4  C49.802,4,51.507,4.411,53.042,5.125z M40.797,6.425c0.395,0.186,0.793,0.355,1.207,0.497c-0.393,0.81-0.723,1.661-0.999,2.537  c-0.927-0.144-1.823-0.316-2.689-0.517C39.015,7.986,39.851,7.138,40.797,6.425z M38.315,23.056c0.861-0.198,1.756-0.371,2.69-0.516  c0.28,0.89,0.609,1.741,0.995,2.539c-0.427,0.148-0.824,0.315-1.206,0.494C39.848,24.859,39.013,24.012,38.315,23.056z   M42.951,26.871c0.248-0.079,0.482-0.167,0.748-0.235l0.429-0.101c2.467-0.551,5.302-0.545,7.72-0.006l0.463,0.109  c0.262,0.067,0.493,0.154,0.738,0.232C51.512,27.588,49.805,28,48,28C46.195,28,44.488,27.588,42.951,26.871z M55.207,25.572  c-0.382-0.179-0.78-0.346-1.206-0.494c0.386-0.798,0.715-1.65,0.995-2.539c0.934,0.144,1.829,0.317,2.69,0.516  C56.987,24.012,56.152,24.859,55.207,25.572z"></path><path d="M34,27c0-8.822-7.178-16-16-16S2,18.178,2,27c0,6.7,4.144,12.443,10,14.822V46c0,0.553,0.447,1,1,1h1v14  c0,0.553,0.447,1,1,1h6.02c0.266,0,0.52-0.105,0.708-0.293c0.188-0.188,0.292-0.443,0.292-0.708L22.001,47H23c0.553,0,1-0.447,1-1  v-4.178C29.856,39.443,34,33.7,34,27z M20.019,60H16V47h4.001L20.019,60z M22,45h-8v-2.527C15.281,42.805,16.617,43,18,43  s2.719-0.195,4-0.527V45z M18,41c-7.72,0-14-6.28-14-14s6.28-14,14-14s14,6.28,14,14S25.72,41,18,41z"></path><path d="M18,15c-6.617,0-12,5.383-12,12s5.383,12,12,12s12-5.383,12-12S24.617,15,18,15z M18,37c-5.514,0-10-4.486-10-10  s4.486-10,10-10s10,4.486,10,10S23.514,37,18,37z"></path><rect x="11" y="28.105" width="2" height="3"></rect><rect x="15" y="26.105" width="2" height="5"></rect><rect x="19" y="24.105" width="2" height="7"></rect><rect x="23" y="22" width="2" height="9"></rect><path d="M59.111,42.484C59.659,41.799,60,40.943,60,40c0-2.206-1.794-4-4-4c-0.353,0-0.689,0.06-1.015,0.147  C54.987,36.097,55,36.05,55,36c0-2.206-1.794-4-4-4s-4,1.794-4,4c0,0.05,0.013,0.097,0.015,0.147C46.689,36.06,46.353,36,46,36  s-0.689,0.06-1.015,0.147C44.987,36.097,45,36.05,45,36c0-2.206-1.794-4-4-4s-4,1.794-4,4c0,0.05,0.013,0.097,0.015,0.147  C36.689,36.06,36.353,36,36,36c-2.206,0-4,1.794-4,4c0,0.943,0.341,1.799,0.889,2.484C31.188,43.283,30,45,30,47v5  c0,0.379,0.214,0.725,0.553,0.895L32,53.618V61c0,0.553,0.447,1,1,1h6c0.553,0,1-0.447,1-1v-7.382l1-0.5l1,0.5V61  c0,0.553,0.447,1,1,1h6c0.553,0,1-0.447,1-1v-7.382l1-0.5l1,0.5V61c0,0.553,0.447,1,1,1h6c0.553,0,1-0.447,1-1v-7.382l1.447-0.724  C61.786,52.725,62,52.379,62,52v-5C62,45,60.812,43.283,59.111,42.484z M58,40c0,1.103-0.897,2-2,2s-2-0.897-2-2s0.897-2,2-2  S58,38.897,58,40z M51,44.031c-0.492-0.66-1.137-1.194-1.889-1.547C49.659,41.799,50,40.943,50,40c0-0.05-0.013-0.097-0.015-0.147  C50.311,39.94,50.647,40,51,40s0.689-0.06,1.015-0.147C52.013,39.903,52,39.95,52,40c0,0.943,0.341,1.799,0.889,2.484  C52.137,42.837,51.492,43.371,51,44.031z M51,34c1.103,0,2,0.897,2,2s-0.897,2-2,2s-2-0.897-2-2S49.898,34,51,34z M48,40  c0,1.103-0.897,2-2,2s-2-0.897-2-2s0.897-2,2-2S48,38.897,48,40z M41,44.031c-0.492-0.66-1.137-1.194-1.889-1.547  C39.659,41.799,40,40.943,40,40c0-0.05-0.013-0.097-0.015-0.147C40.311,39.94,40.647,40,41,40s0.689-0.06,1.015-0.147  C42.013,39.903,42,39.95,42,40c0,0.943,0.341,1.799,0.889,2.484C42.137,42.837,41.492,43.371,41,44.031z M41,34c1.103,0,2,0.897,2,2  s-0.897,2-2,2s-2-0.897-2-2S39.898,34,41,34z M36,38c1.103,0,2,0.897,2,2s-0.897,2-2,2s-2-0.897-2-2S34.898,38,36,38z   M38.553,52.105C38.214,52.275,38,52.621,38,53v7h-4v-7c0-0.379-0.214-0.725-0.553-0.895L32,51.382V47c0-1.654,1.346-3,3-3h2  c1.654,0,3,1.346,3,3v4.382L38.553,52.105z M48.553,52.105C48.214,52.275,48,52.621,48,53v7h-4v-7c0-0.379-0.214-0.725-0.553-0.895  L42,51.382V47c0-1.654,1.346-3,3-3h2c1.654,0,3,1.346,3,3v4.382L48.553,52.105z M60,51.382l-1.447,0.724  C58.214,52.275,58,52.621,58,53v7h-4v-7c0-0.379-0.214-0.725-0.553-0.895L52,51.382V47c0-1.654,1.346-3,3-3h2c1.654,0,3,1.346,3,3  V51.382z"></path></svg>