<svg height='100px' width='100px'  fill="#000000" xmlns="http://www.w3.org/2000/svg" data-name="Layer 1" viewBox="0 0 100 100" x="0px" y="0px"><title>Health Icons</title><path d="M87.5,55H81.41a23.81,23.81,0,0,0-2.2-8.22l5.27-3a2,2,0,1,0-2-3.46l-5.28,3a24.18,24.18,0,0,0-6-6l3-5.28a2,2,0,0,0-3.46-2l-3,5.27a23.82,23.82,0,0,0-8.22-2.2V27a2,2,0,0,0-4,0v6.09a23.82,23.82,0,0,0-8.22,2.2l-3-5.27a2,2,0,0,0-3.46,2l3,5.28a24.18,24.18,0,0,0-6,6l-5.28-3a2,2,0,1,0-2,3.46l5.27,3A23.81,23.81,0,0,0,33.59,55H27.5a2,2,0,0,0,0,4h6.09a23.81,23.81,0,0,0,2.2,8.22l-5.27,3a2,2,0,1,0,2,3.46l5.28-3a24.18,24.18,0,0,0,6,6l-3,5.28a2,2,0,1,0,3.46,2l3-5.27a23.82,23.82,0,0,0,8.22,2.2V87a2,2,0,0,0,4,0V80.91a23.82,23.82,0,0,0,8.22-2.2l3,5.27a2,2,0,0,0,3.46-2l-3-5.28a24.18,24.18,0,0,0,6-6l5.28,3a2,2,0,1,0,2-3.46l-5.27-3A23.81,23.81,0,0,0,81.41,59H87.5a2,2,0,0,0,0-4Zm-30,22a20,20,0,1,1,20-20A20,20,0,0,1,57.5,77Z"></path><path d="M57.5,40.33A16.67,16.67,0,1,0,74.17,57,16.69,16.69,0,0,0,57.5,40.33Zm8,26.49L63,62.46,67.32,65A12.77,12.77,0,0,1,65.48,66.82ZM47.68,65,52,62.46l-2.52,4.36A12.77,12.77,0,0,1,47.68,65Zm1.84-17.81L52,51.54,47.68,49A12.77,12.77,0,0,1,49.52,47.18ZM67.32,49,63,51.54l2.52-4.36A12.77,12.77,0,0,1,67.32,49ZM59.5,44.51a12.54,12.54,0,0,1,2.51.67L59.5,49.54ZM50,55H45a12.53,12.53,0,0,1,.67-2.52Zm0,4-4.36,2.52A12.53,12.53,0,0,1,45,59Zm5.46,5.46v5A12.54,12.54,0,0,1,53,68.82ZM53,45.18a12.54,12.54,0,0,1,2.51-.67v5ZM59.5,64.46,62,68.82a12.54,12.54,0,0,1-2.51.67ZM65,59h5a12.53,12.53,0,0,1-.67,2.52Zm0-4,4.36-2.52A12.53,12.53,0,0,1,70,55Z"></path><path d="M84,19.5H82.5V18a2,2,0,0,0-4,0v1.5H77a2,2,0,0,0,0,4h1.5V25a2,2,0,0,0,4,0V23.5H84a2,2,0,0,0,0-4Z"></path><path d="M32.5,21H29.21a6.93,6.93,0,0,0-.55-1.33L31,17.34a2,2,0,1,0-2.83-2.83l-2.33,2.33a6.94,6.94,0,0,0-1.33-.55V13a2,2,0,0,0-4,0v3.29a6.94,6.94,0,0,0-1.33.55l-2.33-2.33A2,2,0,1,0,14,17.34l2.33,2.33A6.93,6.93,0,0,0,15.79,21H12.5a2,2,0,0,0,0,4h3.29a6.93,6.93,0,0,0,.55,1.33L14,28.66a2,2,0,1,0,2.83,2.83l2.33-2.33a6.94,6.94,0,0,0,1.33.55V33a2,2,0,0,0,4,0V29.71a6.94,6.94,0,0,0,1.33-.55l2.33,2.33A2,2,0,0,0,31,28.66l-2.33-2.33A6.93,6.93,0,0,0,29.21,25H32.5a2,2,0,0,0,0-4Zm-7,2a3,3,0,1,1-3-3A3,3,0,0,1,25.5,23Z"></path></svg>