<svg height='100px' width='100px'  fill="#000000" xmlns="http://www.w3.org/2000/svg" xmlns:xlink="http://www.w3.org/1999/xlink" version="1.1" x="0px" y="0px" viewBox="0 0 68 68" enable-background="new 0 0 68 68" xml:space="preserve"><g><g><path d="M12.94019,33.20274H8.41724c-0.24243-1.54492-1.57129-2.73388-3.18335-2.73388C3.45068,30.46885,2,31.91954,2,33.70274    c0,1.7832,1.45068,3.23389,3.23389,3.23389c1.61206,0,2.94092-1.18896,3.18335-2.73389h4.49976    c0.04718,5.25105,1.94029,10.19799,5.56836,14.18469l-1.56714,1.56702c-1.04883-0.69653-2.55347-0.59338-3.46265,0.31567    c-1.06274,1.0625-1.06274,2.79199,0,3.85449c1.0643,1.0643,2.78901,1.06499,3.854,0    c0.94165-0.94141,1.04492-2.40442,0.31787-3.46521l1.54492-1.5448c3.74561,3.75342,8.7063,5.9696,14.03076,6.23926v4.22205    c-0.77856,0.11951-1.4812,0.51233-1.99146,1.12781c-1.55488,1.87866-0.54263,4.77942,1.86304,5.23633    c2.27688,0.43344,4.23271-1.53706,3.80273-3.80274c-0.24243-1.28027-1.26563-2.30371-2.5459-2.5459    c-0.04297-0.00818-0.08545-0.00928-0.12842-0.01563v-4.19385c0.03394,0.00024,0.06763,0.00293,0.10156,0.00293    c5.40015,0,10.48218-1.99756,14.38696-5.56714l1.26099,1.26111c-0.72705,1.06079-0.62378,2.5238,0.31787,3.46521    c1.0632,1.0632,2.78737,1.06713,3.85449,0c1.0625-1.0625,1.0625-2.79199,0-3.85449    c-0.90918-0.90906-2.41431-1.01233-3.46313-0.31567l-1.24731-1.24731c3.75195-3.76355,6.03658-8.73721,6.23755-14.33008h3.93066    c0.24268,1.54468,1.57153,2.7334,3.18335,2.7334C64.54932,37.52989,66,36.0792,66,34.296s-1.45068-3.23388-3.23389-3.23388    c-1.6123,0-2.94116,1.18921-3.18335,2.73437h-3.90625c-0.0519-5.48254-2.12733-10.55977-5.85034-14.49621l1.25244-1.25244    c1.06298,0.73163,2.52051,0.6261,3.46582-0.31921c1.06498-1.06447,1.0655-2.78901,0-3.854    c-1.0293-1.0293-2.82495-1.03027-3.85425,0c-0.94581,0.94536-1.05049,2.40344-0.31885,3.46631l-1.24756,1.24756    c-3.82495-3.67969-8.94775-5.8396-14.32715-5.96472V8.41685c1.54492-0.24243,2.73389-1.57129,2.73389-3.18335    c0-1.7832-1.45068-3.23389-3.23389-3.23389S31.06274,3.4503,31.06274,5.2335c0,1.61206,1.18896,2.94092,2.73389,3.18335v4.2074    c-5.31201,0.12781-10.38013,2.24353-14.19678,5.84827l-1.55273-1.55261c0.72705-1.06079,0.62378-2.5238-0.31787-3.46521    c-1.0293-1.0293-2.82446-1.0293-3.85425,0c-1.06274,1.0625-1.06274,2.79199,0,3.85449    c0.92651,0.92651,2.38019,1.06612,3.46631,0.31897l1.55151,1.55139C15.11465,23.09855,13.12905,28.03587,12.94019,33.20274z     M35.89502,62.32383c0.2988,1.57476-1.04718,2.936-2.63379,2.63379c-1.63513-0.31062-2.36321-2.30793-1.2793-3.61573    c0.42285-0.5105,1.04395-0.80371,1.70557-0.80835c0.00537,0.00024,0.01001,0.00317,0.01563,0.00317    c0.00586,0,0.01074-0.00317,0.01636-0.0033c0.13965,0.00098,0.28149,0.01306,0.42578,0.04041    C35.01147,60.7379,35.73096,61.45762,35.89502,62.32383z M53.41797,51.39659c0.67261,0.67285,0.67261,1.76758,0,2.44043    c-0.65186,0.65137-1.78857,0.65137-2.44043,0c-0.67285-0.67285-0.67285-1.76758,0-2.44043    C51.65271,50.72192,52.74349,50.72261,53.41797,51.39659z M51.39722,14.58165c0.6764-0.67589,1.76707-0.67261,2.44019,0    c0.67512,0.67562,0.67362,1.76682,0,2.43994c-0.65161,0.65088-1.78809,0.65186-2.44019,0    C50.72437,16.34925,50.72141,15.25797,51.39722,14.58165z M46.65137,34.28721c0,0.87646-0.71338,1.58984-1.59009,1.58984    l-0.07031,0.00049c-0.85229-0.03369-1.51978-0.73242-1.52002-1.63232c0.02051-0.84766,0.70068-1.52783,1.59033-1.54834    C45.91772,32.69688,46.6311,33.39122,46.65137,34.28721z M44.1626,37.24864c-0.18188,2.15063-0.57275,4.21826-1.14478,6.17554    c-2.48389-0.49609-5.15527-0.76733-7.96655-0.80859v-7.63843h7.00342C42.33583,36.13686,43.1701,36.95127,44.1626,37.24864z     M42.81982,23.92625c-1.8584,0.37463-3.81396,0.62512-5.84448,0.73157c-0.26188-0.92282-0.96947-1.71516-1.92407-2.06519v-7.96118    c0.23853,0.00928,0.47607,0.02173,0.71338,0.03979C38.6731,15.64537,41.25391,18.99058,42.81982,23.92625z M34.21484,27.06212    c-0.9519,0.09229-1.80347-0.62354-1.8042-1.62109c0.02759-0.86572,0.72632-1.54395,1.59058-1.54395    c0.88685,0,1.56866,0.71649,1.59009,1.58984C35.59131,26.28233,34.99487,26.96007,34.21484,27.06212z M32.0415,14.74376    c0.49951-0.05933,1.00366-0.09229,1.50977-0.11206v7.80237c-1.20947,0.17444-2.18848,1.03589-2.52002,2.19153    c-2.04517-0.14417-3.98657-0.42297-5.80859-0.81738C26.74658,19.0919,29.24829,15.80186,32.0415,14.74376z M28.10059,15.64378    c-1.78516,1.82458-3.28369,4.4906-4.34058,7.81824c-1.68042-0.43237-3.22681-0.98047-4.55322-1.62061    C21.53687,18.95201,24.64063,16.81749,28.10059,15.64378z M24.81201,25.25206c1.92969,0.4231,3.99512,0.71338,6.16431,0.86462    c0.26147,1.25769,1.29272,2.22571,2.57495,2.41516v4.94531h-9.84253C23.74976,30.61558,24.12939,27.80455,24.81201,25.25206z     M33.55127,34.97715v7.63452c-2.09644,0.03101-4.12329,0.19116-6.04858,0.47852c-0.48282-1.26857-1.76055-2.07637-3.1062-1.98462    c-0.40308-1.95789-0.62524-4.01624-0.68237-6.12842H33.55127z M35.75635,53.32493    c-0.23438,0.01721-0.46924,0.03003-0.70508,0.03894v-9.24841c2.64893,0.04004,5.16455,0.29175,7.51099,0.7489    C40.98096,49.33384,38.48877,52.40184,35.75635,53.32493z M26.23438,46.82481c0.87338-0.60601,1.34173-1.38418,1.45288-2.25488    c1.86157-0.27954,3.83081-0.42859,5.86401-0.45959v9.2533c-0.49658-0.01904-0.99097-0.05029-1.47998-0.1062    C29.82837,52.42686,27.76709,50.18565,26.23438,46.82481z M24.62109,42.59727c0.81396,0,1.49536,0.60742,1.58594,1.42285    c0.10163,0.82083-0.53724,1.68747-1.45972,1.75098c-0.91235,0.06131-1.71606-0.63207-1.71606-1.58398    C23.03125,43.32715,23.72768,42.59727,24.62109,42.59727z M22.02295,45.86583c0.53662,0.83474,1.52972,1.46884,2.77051,1.3999    c0.93555,2.09424,2.07373,3.81982,3.35059,5.11646c-3.22607-1.07715-6.13379-2.99524-8.43457-5.62183    C20.42065,46.44053,21.1875,46.13926,22.02295,45.86583z M39.60498,52.65123c1.79736-1.71289,3.32837-4.2644,4.43628-7.47876    c1.7854,0.4104,3.43115,0.94763,4.84546,1.58752C46.39209,49.61924,43.1748,51.64256,39.60498,52.65123z M42.09961,33.47715    h-7.04834v-5.09387c0.97632-0.35718,1.70923-1.19128,1.94824-2.23389c2.16528-0.11121,4.25488-0.37268,6.23291-0.77795    c0.49634,1.88989,0.83081,3.87939,0.97827,5.94263C43.21369,31.59816,42.39721,32.40141,42.09961,33.47715z M44.2876,23.60069    c-1.11328-3.55969-2.74902-6.38867-4.69531-8.24463c3.82642,1.09033,7.27051,3.34119,9.79688,6.48535    C47.93384,22.54527,46.19971,23.14097,44.2876,23.60069z M18.30859,23.06114c1.46533,0.73291,3.17773,1.35791,5.04565,1.84106    c-0.70923,2.66675-1.10425,5.59705-1.14551,8.57495h-7.2793C15.0293,29.71202,16.18945,26.13682,18.30859,23.06114z     M5.23389,35.93663C4.0022,35.93663,3,34.93467,3,33.70274s1.0022-2.23388,2.23389-2.23388s2.23389,1.00195,2.23389,2.23388    S6.46558,35.93663,5.23389,35.93663z M14.94873,34.97715h7.26709c0.05957,2.28149,0.31348,4.49622,0.76001,6.60522    c-0.88062,0.5603-1.44458,1.5365-1.44458,2.60474c0,0.08618,0.0144,0.17383,0.02197,0.26074    c-1.0166,0.33325-1.95874,0.70044-2.80835,1.10168C16.43604,42.45689,15.13647,38.83226,14.94873,34.97715z M16.60254,53.41758    c-0.65137,0.65137-1.78857,0.65137-2.43994,0c-0.67285-0.67285-0.67285-1.76758,0-2.44043    c0.6738-0.67329,1.76413-0.6753,2.43994,0C17.27539,51.65001,17.27539,52.74473,16.60254,53.41758z M49.84033,45.56028    c-1.55518-0.73901-3.37378-1.35754-5.35571-1.82019c0.58813-2.03906,0.97925-4.19116,1.16479-6.42261    c1.18091-0.22974,2.11572-1.13989,2.40259-2.34033h5.59277C53.45679,38.83543,52.15479,42.46373,49.84033,45.56028z     M62.76611,32.06211C63.9978,32.06211,65,33.06407,65,34.296s-1.0022,2.23389-2.23389,2.23389s-2.23389-1.00195-2.23389-2.23389    S61.53442,32.06211,62.76611,32.06211z M53.66406,33.47715h-5.63135c-0.30176-1.08667-1.19043-1.93774-2.33203-2.19433    c-0.15039-2.16357-0.48877-4.25513-1.00684-6.2417c2.10107-0.50928,3.99854-1.18274,5.59033-1.98145    C52.40332,26.13402,53.56445,29.7108,53.66406,33.47715z M32.06274,5.2335c0-1.23193,1.0022-2.23389,2.23389-2.23389    s2.23389,1.00195,2.23389,2.23389s-1.0022,2.23389-2.23389,2.23389S32.06274,6.46544,32.06274,5.2335z M14.58203,16.60216    c-0.67285-0.67285-0.67285-1.76758,0-2.44043c0.67364-0.67313,1.76598-0.67421,2.44019,0    c0.67285,0.67285,0.67285,1.76758,0,2.44043C16.37036,17.25352,15.23389,17.25352,14.58203,16.60216z"></path></g></g></svg>