<svg height='100px' width='100px'  fill="#000000" xmlns="http://www.w3.org/2000/svg" xmlns:xlink="http://www.w3.org/1999/xlink" xmlns:sketch="http://www.bohemiancoding.com/sketch/ns" viewBox="0 0 16 10" version="1.1" x="0px" y="0px"><title>united_states_flag</title><description>Created with Sketch (http://www.bohemiancoding.com/sketch)</description><g stroke="none" stroke-width="1" fill="none" fill-rule="evenodd" sketch:type="MSPage"><path d="M0,0 L0,10 L16,10 L16,0 L0,0 Z M8,0.75 L8,1.5 L16,1.5 L16,0.75 L8,0.75 Z M8,2.25 L8,3 L16,3 L16,2.25 L8,2.25 Z M8,3.75 L8,4.5 L16,4.5 L16,3.75 L8,3.75 Z M0,5.33333333 L0,6.08333333 L16,6.08333333 L16,5.33333333 L0,5.33333333 Z M0,6.91666667 L0,7.66666667 L16,7.66666667 L16,6.91666667 L0,6.91666667 Z M0,8.5 L0,9.25 L16,9.25 L16,8.5 L0,8.5 Z M0.444444417,0.747923126 L0.279635387,0.833333329 L0.311111103,0.652431631 L0.177777778,0.52431634 L0.362039924,0.497923113 L0.444444426,0.333333333 L0.526848978,0.497923154 L0.711111111,0.524316472 L0.577777732,0.652431665 L0.609253453,0.833333333 L0.444444417,0.747923126 Z M0.444444417,1.83125646 L0.279635387,1.91666667 L0.311111103,1.73576497 L0.177777778,1.60764967 L0.362039924,1.58125645 L0.444444426,1.41666667 L0.526848978,1.58125648 L0.711111111,1.60764981 L0.577777732,1.735765 L0.609253453,1.91666667 L0.444444417,1.83125646 Z M0.444444417,2.83125646 L0.279635387,2.91666667 L0.311111103,2.73576497 L0.177777778,2.60764967 L0.362039924,2.58125645 L0.444444426,2.41666667 L0.526848978,2.58125648 L0.711111111,2.60764981 L0.577777732,2.735765 L0.609253453,2.91666667 L0.444444417,2.83125646 Z M0.444444417,3.91458979 L0.279635387,4 L0.311111103,3.8190983 L0.177777778,3.69098301 L0.362039924,3.66458978 L0.444444426,3.5 L0.526848978,3.66458982 L0.711111111,3.69098314 L0.577777732,3.81909833 L0.609253453,4 L0.444444417,3.91458979 Z M0.444444417,4.99792313 L0.279635387,5.08333333 L0.311111103,4.90243163 L0.177777778,4.77431634 L0.362039924,4.74792312 L0.444444426,4.58333333 L0.526848978,4.74792315 L0.711111111,4.77431648 L0.577777732,4.90243167 L0.609253453,5.08333333 L0.444444417,4.99792313 Z M1.15555553,2.33125646 L0.990746498,2.41666667 L1.02222221,2.23576497 L0.888888889,2.10764967 L1.07315104,2.08125645 L1.15555554,1.91666667 L1.23796009,2.08125648 L1.42222222,2.10764981 L1.28888884,2.235765 L1.32036456,2.41666667 L1.15555553,2.33125646 Z M1.15555553,3.41458979 L0.990746498,3.5 L1.02222221,3.3190983 L0.888888889,3.19098301 L1.07315104,3.16458978 L1.15555554,3 L1.23796009,3.16458982 L1.42222222,3.19098314 L1.28888884,3.31909833 L1.32036456,3.5 L1.15555553,3.41458979 Z M1.15555553,1.24792313 L0.990746498,1.33333333 L1.02222221,1.15243163 L0.888888889,1.02431634 L1.07315104,0.997923113 L1.15555554,0.833333333 L1.23796009,0.997923154 L1.42222222,1.02431647 L1.28888884,1.15243167 L1.32036456,1.33333333 L1.15555553,1.24792313 Z M1.15555553,4.41458979 L0.990746498,4.5 L1.02222221,4.3190983 L0.888888889,4.19098301 L1.07315104,4.16458978 L1.15555554,4 L1.23796009,4.16458982 L1.42222222,4.19098314 L1.28888884,4.31909833 L1.32036456,4.5 L1.15555553,4.41458979 Z M1.86666664,0.747923126 L1.70185761,0.833333329 L1.73333332,0.652431631 L1.6,0.52431634 L1.78426215,0.497923113 L1.86666665,0.333333333 L1.9490712,0.497923154 L2.13333333,0.524316472 L1.99999996,0.652431665 L2.03147567,0.833333333 L1.86666664,0.747923126 Z M1.86666664,1.83125646 L1.70185761,1.91666667 L1.73333332,1.73576497 L1.6,1.60764967 L1.78426215,1.58125645 L1.86666665,1.41666667 L1.9490712,1.58125648 L2.13333333,1.60764981 L1.99999996,1.735765 L2.03147567,1.91666667 L1.86666664,1.83125646 Z M1.86666664,2.83125646 L1.70185761,2.91666667 L1.73333332,2.73576497 L1.6,2.60764967 L1.78426215,2.58125645 L1.86666665,2.41666667 L1.9490712,2.58125648 L2.13333333,2.60764981 L1.99999996,2.735765 L2.03147567,2.91666667 L1.86666664,2.83125646 Z M1.86666664,3.91458979 L1.70185761,4 L1.73333332,3.8190983 L1.6,3.69098301 L1.78426215,3.66458978 L1.86666665,3.5 L1.9490712,3.66458982 L2.13333333,3.69098314 L1.99999996,3.81909833 L2.03147567,4 L1.86666664,3.91458979 Z M1.86666664,4.99792313 L1.70185761,5.08333333 L1.73333332,4.90243163 L1.6,4.77431634 L1.78426215,4.74792312 L1.86666665,4.58333333 L1.9490712,4.74792315 L2.13333333,4.77431648 L1.99999996,4.90243167 L2.03147567,5.08333333 L1.86666664,4.99792313 Z M2.57777775,2.33125646 L2.41296872,2.41666667 L2.44444444,2.23576497 L2.31111111,2.10764967 L2.49537326,2.08125645 L2.57777776,1.91666667 L2.66018231,2.08125648 L2.84444444,2.10764981 L2.71111107,2.235765 L2.74258678,2.41666667 L2.57777775,2.33125646 Z M2.57777775,3.41458979 L2.41296872,3.5 L2.44444444,3.3190983 L2.31111111,3.19098301 L2.49537326,3.16458978 L2.57777776,3 L2.66018231,3.16458982 L2.84444444,3.19098314 L2.71111107,3.31909833 L2.74258678,3.5 L2.57777775,3.41458979 Z M2.57777775,1.24792313 L2.41296872,1.33333333 L2.44444444,1.15243163 L2.31111111,1.02431634 L2.49537326,0.997923113 L2.57777776,0.833333333 L2.66018231,0.997923154 L2.84444444,1.02431647 L2.71111107,1.15243167 L2.74258678,1.33333333 L2.57777775,1.24792313 Z M2.57777775,4.41458979 L2.41296872,4.5 L2.44444444,4.3190983 L2.31111111,4.19098301 L2.49537326,4.16458978 L2.57777776,4 L2.66018231,4.16458982 L2.84444444,4.19098314 L2.71111107,4.31909833 L2.74258678,4.5 L2.57777775,4.41458979 Z M3.28888886,0.747923126 L3.12407983,0.833333329 L3.15555555,0.652431631 L3.02222222,0.52431634 L3.20648437,0.497923113 L3.28888887,0.333333333 L3.37129342,0.497923154 L3.55555556,0.524316472 L3.42222218,0.652431665 L3.45369789,0.833333333 L3.28888886,0.747923126 Z M3.28888886,1.83125646 L3.12407983,1.91666667 L3.15555555,1.73576497 L3.02222222,1.60764967 L3.20648437,1.58125645 L3.28888887,1.41666667 L3.37129342,1.58125648 L3.55555556,1.60764981 L3.42222218,1.735765 L3.45369789,1.91666667 L3.28888886,1.83125646 Z M3.28888886,2.83125646 L3.12407983,2.91666667 L3.15555555,2.73576497 L3.02222222,2.60764967 L3.20648437,2.58125645 L3.28888887,2.41666667 L3.37129342,2.58125648 L3.55555556,2.60764981 L3.42222218,2.735765 L3.45369789,2.91666667 L3.28888886,2.83125646 Z M3.28888886,3.91458979 L3.12407983,4 L3.15555555,3.8190983 L3.02222222,3.69098301 L3.20648437,3.66458978 L3.28888887,3.5 L3.37129342,3.66458982 L3.55555556,3.69098314 L3.42222218,3.81909833 L3.45369789,4 L3.28888886,3.91458979 Z M3.28888886,4.99792313 L3.12407983,5.08333333 L3.15555555,4.90243163 L3.02222222,4.77431634 L3.20648437,4.74792312 L3.28888887,4.58333333 L3.37129342,4.74792315 L3.55555556,4.77431648 L3.42222218,4.90243167 L3.45369789,5.08333333 L3.28888886,4.99792313 Z M3.99999997,2.33125646 L3.83519094,2.41666667 L3.86666666,2.23576497 L3.73333333,2.10764967 L3.91759548,2.08125645 L3.99999998,1.91666667 L4.08240453,2.08125648 L4.26666667,2.10764981 L4.13333329,2.235765 L4.164809,2.41666667 L3.99999997,2.33125646 Z M3.99999997,3.41458979 L3.83519094,3.5 L3.86666666,3.3190983 L3.73333333,3.19098301 L3.91759548,3.16458978 L3.99999998,3 L4.08240453,3.16458982 L4.26666667,3.19098314 L4.13333329,3.31909833 L4.164809,3.5 L3.99999997,3.41458979 Z M3.99999997,1.24792313 L3.83519094,1.33333333 L3.86666666,1.15243163 L3.73333333,1.02431634 L3.91759548,0.997923113 L3.99999998,0.833333333 L4.08240453,0.997923154 L4.26666667,1.02431647 L4.13333329,1.15243167 L4.164809,1.33333333 L3.99999997,1.24792313 Z M3.99999997,4.41458979 L3.83519094,4.5 L3.86666666,4.3190983 L3.73333333,4.19098301 L3.91759548,4.16458978 L3.99999998,4 L4.08240453,4.16458982 L4.26666667,4.19098314 L4.13333329,4.31909833 L4.164809,4.5 L3.99999997,4.41458979 Z M4.71111108,0.747923126 L4.54630205,0.833333329 L4.57777777,0.652431631 L4.44444444,0.52431634 L4.6287066,0.497923113 L4.71111109,0.333333333 L4.79351564,0.497923154 L4.97777778,0.524316472 L4.8444444,0.652431665 L4.87592012,0.833333333 L4.71111108,0.747923126 Z M4.71111108,1.83125646 L4.54630205,1.91666667 L4.57777777,1.73576497 L4.44444444,1.60764967 L4.6287066,1.58125645 L4.71111109,1.41666667 L4.79351564,1.58125648 L4.97777778,1.60764981 L4.8444444,1.735765 L4.87592012,1.91666667 L4.71111108,1.83125646 Z M4.71111108,2.83125646 L4.54630205,2.91666667 L4.57777777,2.73576497 L4.44444444,2.60764967 L4.6287066,2.58125645 L4.71111109,2.41666667 L4.79351564,2.58125648 L4.97777778,2.60764981 L4.8444444,2.735765 L4.87592012,2.91666667 L4.71111108,2.83125646 Z M4.71111108,3.91458979 L4.54630205,4 L4.57777777,3.8190983 L4.44444444,3.69098301 L4.6287066,3.66458978 L4.71111109,3.5 L4.79351564,3.66458982 L4.97777778,3.69098314 L4.8444444,3.81909833 L4.87592012,4 L4.71111108,3.91458979 Z M4.71111108,4.99792313 L4.54630205,5.08333333 L4.57777777,4.90243163 L4.44444444,4.77431634 L4.6287066,4.74792312 L4.71111109,4.58333333 L4.79351564,4.74792315 L4.97777778,4.77431648 L4.8444444,4.90243167 L4.87592012,5.08333333 L4.71111108,4.99792313 Z M5.4222222,2.33125646 L5.25741316,2.41666667 L5.28888888,2.23576497 L5.15555556,2.10764967 L5.33981771,2.08125645 L5.4222222,1.91666667 L5.50462676,2.08125648 L5.68888889,2.10764981 L5.55555551,2.235765 L5.58703123,2.41666667 L5.4222222,2.33125646 Z M5.4222222,3.41458979 L5.25741316,3.5 L5.28888888,3.3190983 L5.15555556,3.19098301 L5.33981771,3.16458978 L5.4222222,3 L5.50462676,3.16458982 L5.68888889,3.19098314 L5.55555551,3.31909833 L5.58703123,3.5 L5.4222222,3.41458979 Z M5.4222222,1.24792313 L5.25741316,1.33333333 L5.28888888,1.15243163 L5.15555556,1.02431634 L5.33981771,0.997923113 L5.4222222,0.833333333 L5.50462676,0.997923154 L5.68888889,1.02431647 L5.55555551,1.15243167 L5.58703123,1.33333333 L5.4222222,1.24792313 Z M5.4222222,4.41458979 L5.25741316,4.5 L5.28888888,4.3190983 L5.15555556,4.19098301 L5.33981771,4.16458978 L5.4222222,4 L5.50462676,4.16458982 L5.68888889,4.19098314 L5.55555551,4.31909833 L5.58703123,4.5 L5.4222222,4.41458979 Z M6.13333331,0.747923126 L5.96852428,0.833333329 L5.99999999,0.652431631 L5.86666667,0.52431634 L6.05092882,0.497923113 L6.13333332,0.333333333 L6.21573787,0.497923154 L6.4,0.524316472 L6.26666662,0.652431665 L6.29814234,0.833333333 L6.13333331,0.747923126 Z M6.13333331,1.83125646 L5.96852428,1.91666667 L5.99999999,1.73576497 L5.86666667,1.60764967 L6.05092882,1.58125645 L6.13333332,1.41666667 L6.21573787,1.58125648 L6.4,1.60764981 L6.26666662,1.735765 L6.29814234,1.91666667 L6.13333331,1.83125646 Z M6.13333331,2.83125646 L5.96852428,2.91666667 L5.99999999,2.73576497 L5.86666667,2.60764967 L6.05092882,2.58125645 L6.13333332,2.41666667 L6.21573787,2.58125648 L6.4,2.60764981 L6.26666662,2.735765 L6.29814234,2.91666667 L6.13333331,2.83125646 Z M6.13333331,3.91458979 L5.96852428,4 L5.99999999,3.8190983 L5.86666667,3.69098301 L6.05092882,3.66458978 L6.13333332,3.5 L6.21573787,3.66458982 L6.4,3.69098314 L6.26666662,3.81909833 L6.29814234,4 L6.13333331,3.91458979 Z M6.13333331,4.99792313 L5.96852428,5.08333333 L5.99999999,4.90243163 L5.86666667,4.77431634 L6.05092882,4.74792312 L6.13333332,4.58333333 L6.21573787,4.74792315 L6.4,4.77431648 L6.26666662,4.90243167 L6.29814234,5.08333333 L6.13333331,4.99792313 Z M6.84444442,2.33125646 L6.67963539,2.41666667 L6.7111111,2.23576497 L6.57777778,2.10764967 L6.76203993,2.08125645 L6.84444443,1.91666667 L6.92684898,2.08125648 L7.11111111,2.10764981 L6.97777773,2.235765 L7.00925345,2.41666667 L6.84444442,2.33125646 Z M6.84444442,3.41458979 L6.67963539,3.5 L6.7111111,3.3190983 L6.57777778,3.19098301 L6.76203993,3.16458978 L6.84444443,3 L6.92684898,3.16458982 L7.11111111,3.19098314 L6.97777773,3.31909833 L7.00925345,3.5 L6.84444442,3.41458979 Z M6.84444442,1.24792313 L6.67963539,1.33333333 L6.7111111,1.15243163 L6.57777778,1.02431634 L6.76203993,0.997923113 L6.84444443,0.833333333 L6.92684898,0.997923154 L7.11111111,1.02431647 L6.97777773,1.15243167 L7.00925345,1.33333333 L6.84444442,1.24792313 Z M6.84444442,4.41458979 L6.67963539,4.5 L6.7111111,4.3190983 L6.57777778,4.19098301 L6.76203993,4.16458978 L6.84444443,4 L6.92684898,4.16458982 L7.11111111,4.19098314 L6.97777773,4.31909833 L7.00925345,4.5 L6.84444442,4.41458979 Z M7.55555553,0.747923126 L7.3907465,0.833333329 L7.42222221,0.652431631 L7.28888889,0.52431634 L7.47315104,0.497923113 L7.55555554,0.333333333 L7.63796009,0.497923154 L7.82222222,0.524316472 L7.68888884,0.652431665 L7.72036456,0.833333333 L7.55555553,0.747923126 Z M7.55555553,1.83125646 L7.3907465,1.91666667 L7.42222221,1.73576497 L7.28888889,1.60764967 L7.47315104,1.58125645 L7.55555554,1.41666667 L7.63796009,1.58125648 L7.82222222,1.60764981 L7.68888884,1.735765 L7.72036456,1.91666667 L7.55555553,1.83125646 Z M7.55555553,2.83125646 L7.3907465,2.91666667 L7.42222221,2.73576497 L7.28888889,2.60764967 L7.47315104,2.58125645 L7.55555554,2.41666667 L7.63796009,2.58125648 L7.82222222,2.60764981 L7.68888884,2.735765 L7.72036456,2.91666667 L7.55555553,2.83125646 Z M7.55555553,3.91458979 L7.3907465,4 L7.42222221,3.8190983 L7.28888889,3.69098301 L7.47315104,3.66458978 L7.55555554,3.5 L7.63796009,3.66458982 L7.82222222,3.69098314 L7.68888884,3.81909833 L7.72036456,4 L7.55555553,3.91458979 Z M7.55555553,4.99792313 L7.3907465,5.08333333 L7.42222221,4.90243163 L7.28888889,4.77431634 L7.47315104,4.74792312 L7.55555554,4.58333333 L7.63796009,4.74792315 L7.82222222,4.77431648 L7.68888884,4.90243167 L7.72036456,5.08333333 L7.55555553,4.99792313 Z" fill="#000000" sketch:type="MSShapeGroup"></path></g></svg>