<svg height='100px' width='100px'  fill="#000000" xmlns="http://www.w3.org/2000/svg" xmlns:xlink="http://www.w3.org/1999/xlink" version="1.1" viewBox="0 0 96 96" x="0px" y="0px"><path d="M59 96h-56c-0.66 0-1.28-0.328-1.652-0.872-0.372-0.552-0.452-1.252-0.212-1.864l17.864-45.644v-43.62h-4c-1.104 0-2-0.9-2-2s0.896-2 2-2h6c1.104 0 2 0.9 2 2v46c0 0.252-0.048 0.496-0.136 0.736l-16.936 43.264h50.144l-16.932-43.264c-0.092-0.24-0.14-0.484-0.14-0.736v-46c0-1.1 0.896-2 2-2h6c1.104 0 2 0.9 2 2s-0.896 2-2 2h-4v43.62l17.864 45.648c0.24 0.612 0.164 1.308-0.212 1.86-0.372 0.544-0.992 0.872-1.652 0.872z" fill="#000000"></path><path d="M39 28h-16c-1.104 0-2-0.9-2-2s0.896-2 2-2h16c1.104 0 2 0.9 2 2s-0.896 2-2 2z" fill="#000000"></path><path d="M35 64h-8c-1.104 0-2-0.9-2-2s0.896-2 2-2h8c1.104 0 2 0.9 2 2s-0.896 2-2 2z" fill="#000000"></path><path d="M35 72h-8c-1.104 0-2-0.9-2-2s0.896-2 2-2h8c1.104 0 2 0.9 2 2s-0.896 2-2 2z" fill="#000000"></path><path d="M35 80h-8c-1.104 0-2-0.9-2-2s0.896-2 2-2h8c1.104 0 2 0.9 2 2s-0.896 2-2 2z" fill="#000000"></path><path d="M73 94c-5.512 0-10-4.484-10-10v-52h4v52c0 3.308 2.692 6 6 6s6-2.692 6-6v-52h4v52c0 5.516-4.484 10-10 10z" fill="#000000"></path><path d="M65 34c-1.1 0-2-0.9-2-2 0-2.16-1.756-3.916-3.916-3.916-1.104 0-2-0.904-2-2 0-1.104 0.896-2 2-2 4.36 0 7.916 3.552 7.916 7.916 0 1.1-0.9 2-2 2z" fill="#000000"></path><path d="M81 34c-1.1 0-2-0.9-2-2 0-4.364 3.556-7.916 7.916-7.916 1.104 0 2 0.896 2 2 0 1.096-0.896 2-2 2-2.156 0-3.916 1.752-3.916 3.916 0 1.1-0.9 2-2 2z" fill="#000000"></path><path d="M79 36h-12c-1.1 0-2-0.9-2-2s0.9-2 2-2h12c1.1 0 2 0.9 2 2s-0.9 2-2 2z" fill="#000000"></path><path d="M71 44h-4c-1.1 0-2-0.9-2-2s0.9-2 2-2h4c1.1 0 2 0.9 2 2s-0.9 2-2 2z" fill="#000000"></path><path d="M71 52h-4c-1.1 0-2-0.9-2-2s0.9-2 2-2h4c1.1 0 2 0.9 2 2s-0.9 2-2 2z" fill="#000000"></path><path d="M71 60h-4c-1.1 0-2-0.9-2-2s0.9-2 2-2h4c1.1 0 2 0.9 2 2s-0.9 2-2 2z" fill="#000000"></path><path d="M87 4c2.212 0 4 1.788 4 4s-1.788 4-4 4-4-1.788-4-4 1.788-4 4-4zM87 0c-4.416 0-8 3.584-8 8s3.584 8 8 8 8-3.584 8-8-3.584-8-8-8v0z" fill="#000000"></path><path d="M71 16c-2.212 0-4 1.788-4 4s1.788 4 4 4 4-1.788 4-4-1.788-4-4-4v0z" fill="#000000"></path></svg>