<svg height='100px' width='100px'  fill="#000000" xmlns:dc="http://purl.org/dc/elements/1.1/" xmlns:cc="http://creativecommons.org/ns#" xmlns:rdf="http://www.w3.org/1999/02/22-rdf-syntax-ns#" xmlns:svg="http://www.w3.org/2000/svg" xmlns="http://www.w3.org/2000/svg" xmlns:sodipodi="http://sodipodi.sourceforge.net/DTD/sodipodi-0.dtd" xmlns:inkscape="http://www.inkscape.org/namespaces/inkscape" viewBox="0 0 48 48.000001" version="1.1" x="0px" y="0px"><g transform="translate(0,-1004.3622)"><g transform="translate(-377.9986,-729.0107)"><path style="" d="m 407.50953,1759.823 0,-6.9659 c 0,-2.2086 1.78166,-3.9867 3.99474,-3.9867 0.5205,0 1.01711,0.098 1.47229,0.2776 0.0814,0.032 0.16153,0.067 0.24022,0.1035 0.0892,0.042 0.17661,0.088 0.26202,0.1358 1.20838,0.6841 2.02022,1.9787 2.02022,3.4696 l 0,8.2472" fill="none" stroke="#000000" stroke-width="1" stroke-opacity="1"></path><path d="m 412.99409,1757.3144 0,1.596 c 0,0.5118 0.2697,0.9851 0.70862,1.2438 l 2.49941,1.473 c 0.14218,0.084 0.37161,0.2231 0.49589,0.3317 0.49514,0.4329 0.79458,1.1012 0.80327,1.8197 2.2e-4,0.018 1.9e-4,0.047 1.9e-4,0.064 l 0,3.0179 -7.00547,0 m -1.75139,-6.3824 0.25068,-0.1478 c 0.62424,-0.368 1.00778,-1.0413 1.00778,-1.7691 l 0,-1.2472" style="" fill="none" stroke="#000000" stroke-width="1" stroke-linecap="butt" stroke-linejoin="miter" stroke-miterlimit="4" stroke-dasharray="none" stroke-opacity="1"></path><path d="m 412.3941,1752.9531 c -0.1509,-0.1329 -0.36226,-0.1329 -0.51317,0 -0.47108,0.4145 -1.68385,0.2478 -2.36367,0.2478 l -0.0175,0.1912 0,0.7465 c 0,0.01 6.6e-4,0.01 6.6e-4,0.014 -2e-5,0.01 -6.6e-4,0.01 -6.6e-4,0.014 l 0,1.5255 c 0,1.2682 0.89232,2.6476 2.00026,2.6476 1.10793,0 2.00026,-1.3794 2.00026,-2.6476 l 0,-1.5255 c 0,-0.01 -6.6e-4,-0.01 -6.6e-4,-0.014 4e-5,-0.01 6.6e-4,-0.01 6.6e-4,-0.014 l -0.003,-0.6681 c -0.40561,-0.1076 -0.79907,-0.2492 -1.10354,-0.5174 z" style="" fill="none" stroke="#000000" stroke-width="0.99999988" stroke-linecap="round" stroke-linejoin="round" stroke-miterlimit="4" stroke-dasharray="none" stroke-opacity="1"></path><path d="m 415.62646,1766.8609 0,-1.509" style="" fill="none" stroke="#000000" stroke-width="1" stroke-linecap="butt" stroke-linejoin="miter" stroke-miterlimit="4" stroke-dasharray="none" stroke-opacity="1"></path><path style="" d="m 414.55783,1760.8248 a 3.0000286,3.0179317 0 0 1 -1.27258,2.4674 3.0000286,3.0179317 0 0 1 -2.73812,0.3741" fill="none" stroke="#000000" stroke-width="0.99999988" stroke-linecap="round" stroke-linejoin="round" stroke-miterlimit="4" stroke-dasharray="none"></path><path d="m 388.50695,1761.1044 0,-8.2462 c 0,-2.2083 1.76962,-3.9861 3.96775,-3.9861 0.51696,0 1.01022,0.098 1.46232,0.2774 0.0809,0.032 0.16044,0.067 0.23859,0.1038 0.0886,0.042 0.17542,0.087 0.26025,0.1358 1.20021,0.6839 2.00658,1.9784 2.00658,3.4691 l 0,6.9646" style="" fill="none" stroke="#000000" stroke-width="1" stroke-opacity="1"></path><path style="" d="m 393.99194,1757.1143 0,1.7961 c 0,0.5118 0.2697,0.9851 0.70862,1.2438 l 0.50921,0.3001 m -1.78863,6.4062 -6.92193,0 0,-2.6443 c 0,-0.1879 -0.002,-0.4931 0.0208,-0.6794 0.0694,-0.5631 0.30967,-1.0798 0.67598,-1.4628 0.19627,-0.2052 0.59393,-0.4449 0.83872,-0.5893 l 1.95843,-1.1544 c 0.62424,-0.368 1.00778,-1.0413 1.00778,-1.7691 l 0,-1.4473" fill="none" stroke="#000000" stroke-width="1" stroke-linecap="butt" stroke-linejoin="miter" stroke-miterlimit="4" stroke-dasharray="none" stroke-opacity="1"></path><path style="" d="m 393.39463,1752.7706 c -0.151,-0.133 -0.36249,-0.133 -0.51351,0 -0.47138,0.415 -1.68494,0.2481 -2.36521,0.2481 l -0.0175,0.1912 0,0.747 c 0,0.01 6.8e-4,0.01 6.8e-4,0.014 -3e-5,0.01 -6.8e-4,0.01 -6.8e-4,0.014 l 0,1.5264 c 0,1.2691 0.89292,2.6493 2.00157,2.6493 1.10866,0 2.00157,-1.3802 2.00157,-2.6493 l 0,-1.5264 c 0,-0.01 -6.6e-4,-0.01 -6.6e-4,-0.014 4e-5,-0.01 6.6e-4,-0.01 6.6e-4,-0.014 l -0.003,-0.6684 c -0.40588,-0.1078 -0.7996,-0.2495 -1.10426,-0.5179 z" fill="none" stroke="#000000" stroke-width="0.99999988" stroke-linecap="round" stroke-linejoin="round" stroke-miterlimit="4" stroke-dasharray="none" stroke-opacity="1"></path><path d="m 388.37423,1766.8609 0,-1.509" style="" fill="none" stroke="#000000" stroke-width="1" stroke-linecap="butt" stroke-linejoin="miter" stroke-miterlimit="4" stroke-dasharray="none" stroke-opacity="1"></path><path d="m 393.3962,1763.7219 a 3.0000286,3.0179317 0 0 1 -2.6872,-0.5186 3.0000286,3.0179317 0 0 1 -1.15104,-2.4972" style="" fill="none" stroke="#000000" stroke-width="0.99999988" stroke-linecap="round" stroke-linejoin="round" stroke-miterlimit="4" stroke-dasharray="none"></path><path style="" d="m 404.54813,1755.8078 0,2.3392 4.47237,2.5014 c 0.91241,0.5104 1.47549,1.4601 1.47549,2.4887 l 0,3.7358 -16.9939,0 0,-3.6554 c 0,-1.0783 0.5903,-2.0739 1.54679,-2.6089 l 4.40108,-2.4616 0,-2.3392" fill="none" stroke="#000000" stroke-width="1.00000012" stroke-linecap="butt" stroke-linejoin="miter" stroke-miterlimit="4" stroke-dasharray="none" stroke-opacity="1"></path><path style="" d="m 400.44408,1747.7498 c -1.07702,0 -1.94407,0.8348 -1.94407,1.8717 l 0,1.6638 c 0,0.01 0.002,0.014 0.002,0.021 -4e-5,0.01 -0.002,0.014 -0.002,0.021 l 0,2.2454 c 0,1.8666 1.56137,3.3699 3.5,3.3699 1.93862,0 3.49999,-1.5033 3.49999,-3.3699 l 0,-2.2454 c 0,-0.01 -0.002,-0.014 -0.002,-0.021 8e-5,-0.01 0.002,-0.014 0.002,-0.021 l 0,-2.4373 c -0.1587,-1.1591 -0.74553,-1.9859 -1.94795,-1.9803 -0.0372,0.542 -0.63582,0.8484 -1.16937,0.8821 z" fill="none" stroke="#000000" stroke-width="1.00000012" stroke-miterlimit="4" stroke-dasharray="none" stroke-opacity="1"></path><path style="" d="m 398.60265,1752.0814 c 0.42246,0 1.60967,-1.0817 1.71028,-1.4493 1.19796,2.0309 4.09675,0.021 5.07789,1.6839" fill="none" stroke="#000000" stroke-width="1.00000012px" stroke-linecap="round" stroke-linejoin="round" stroke-opacity="1"></path><path d="m 402.00716,1767.2408 0,-5.7685 -0.93195,-0.8887 -1.84631,0.8974 c -0.32125,0.1492 -0.6777,-0.1204 -0.6334,-0.4792 l 0.80001,-2.8999 c 0.28784,0.888 0.96802,1.7808 1.66173,2.5001" style="" fill="none" stroke="#000000" stroke-width="1.00000012" stroke-linecap="butt" stroke-linejoin="miter" stroke-miterlimit="4" stroke-dasharray="none" stroke-opacity="1"></path><path style="" d="m 401.99904,1767.2305 0,-5.7568 0.97413,-0.8868 1.92988,0.8955 c 0.33579,0.1489 0.70837,-0.1201 0.66206,-0.4782 0,0 -0.90261,-2.7575 -0.83623,-2.894 -0.42902,0.6601 -0.71072,1.6003 -1.73693,2.4561" fill="none" stroke="#000000" stroke-width="1.00000012px" stroke-linecap="butt" stroke-linejoin="miter" stroke-opacity="1"></path><path style="" d="m 396.5,1766.6837 0,-2.7149" fill="none" stroke="#000000" stroke-width="1.00000012px" stroke-linecap="butt" stroke-linejoin="miter" stroke-opacity="1"></path><path d="m 407.5,1766.6837 0,-2.7149" style="" fill="none" stroke="#000000" stroke-width="1.00000012px" stroke-linecap="butt" stroke-linejoin="miter" stroke-opacity="1"></path><ellipse ry="0.50001413" rx="0.51083803" style="" cx="404" cy="1763.3622" stroke="none"></ellipse><ellipse ry="0.48941213" rx="0.5000065" cy="1765.3622" cx="404" style="" stroke="none"></ellipse></g><path style="color:#000000;font-style:normal;font-variant:normal;font-weight:normal;font-stretch:normal;font-size:medium;line-height:normal;font-family:sans-serif;text-indent:0;text-align:start;text-decoration:none;text-decoration-line:none;text-decoration-style:solid;text-decoration-color:#000000;letter-spacing:normal;word-spacing:normal;text-transform:none;direction:ltr;block-progression:tb;writing-mode:lr-tb;baseline-shift:baseline;text-anchor:start;white-space:normal;clip-rule:nonzero;display:inline;overflow:visible;visibility:visible;opacity:1;isolation:auto;mix-blend-mode:normal;color-interpolation:sRGB;color-interpolation-filters:linearRGB;solid-color:#000000;solid-opacity:1;fill:#000000;fill-opacity:1;fill-rule:evenodd;stroke:none;stroke-width:1;stroke-linecap:butt;stroke-linejoin:miter;stroke-miterlimit:4;stroke-dasharray:none;stroke-dashoffset:0;stroke-opacity:1;color-rendering:auto;image-rendering:auto;shape-rendering:auto;text-rendering:auto;enable-background:accumulate" d="m 24,1004.3622 c -13.24851,0 -24,10.75 -24,23.999 -3e-5,13.2491 10.75147,24.001 24,24.001 13.24853,0 24.00003,-10.7519 24,-24.001 0,-13.249 -10.75149,-23.999 -24,-23.999 z m 0,1.007 c 12.7043,0 22.99303,10.2872 22.99303,22.992 3e-5,12.7049 -10.28871,22.994 -22.99303,22.994 -12.70432,0 -22.99306,-10.2891 -22.99303,-22.994 0,-12.7048 10.28873,-22.992 22.99303,-22.992 z"></path></g></svg>