<svg height='100px' width='100px'  fill="#000000" xmlns="http://www.w3.org/2000/svg" xmlns:xlink="http://www.w3.org/1999/xlink" version="1.1" x="0px" y="0px" viewBox="0 0 100 100" enable-background="new 0 0 100 100" xml:space="preserve"><g><path fill="none" stroke="#000000" stroke-width="0.5" stroke-linecap="round" stroke-linejoin="round" stroke-miterlimit="10" d="   M82.667,29.667c-0.056-0.056-0.111-0.111-0.167-0.167L20,29.667c0-0.279,0,0.112,0-0.167l-0.667-4.333   c0.222-0.083-0.814-0.101-1.626,0.375c-0.573,0.335-1.666,1.867-1.898,0.316c-1.43,0.023-1.928,1.735-2.967,2.483   c-0.874,0.63-2.63,0.333-3.342,1.326L8,72.5c0-0.056,0-0.111,0-0.167V72.5l68.667,0.667c0.241-0.476,1.145-1.335,2.133-0.85   c0.422-1.28,2.009-1.884,3.208-2.004c0.44-0.044,1.038,0.287,1.667,0.187c0.645-0.103,1.052-0.427,1.658-0.679   c1.782-0.74,1.691-1.705,2.997-3.029c1.102-1.116,2.841-1.338,3.82-2.325c-0.88-1.515-1.557-2.367-2.85-3.459   c-0.255-0.215-1.879-1.255-1.933-1.376c-0.433-0.969,0.618-1.755,0.104-2.773c-2.421-0.405-2.399-1.627-2.278-3.995   c1.655-0.267,2.675-0.864,2.187-2.696c-0.226-0.85-1.027-1.184-0.724-2c0.239-0.644,1.551-1.239,2.049-1.703   c1.354-1.264,1.053-2.61,1.796-3.927c0.905-1.605,1.489-1.366-0.325-2.554c-0.155-0.102-0.561,0.084-0.883-0.138   c-0.299-0.206-0.311-0.787-0.581-1.057c-0.546-0.546-1.065-0.394-1.502-1.13c-0.701-1.182,0.165-2.317-0.5-3.666   c-0.16-0.324-0.684-1.05-0.917-1.284c-0.602-0.605-0.702-0.451-1.292-0.837c-0.517-0.338-0.691-0.257-1.3-0.907   c-0.438-0.467-0.254-1.203-0.7-0.963"></path></g></svg>