<svg height='100px' width='100px'  fill="#000000" xmlns="http://www.w3.org/2000/svg" xmlns:xlink="http://www.w3.org/1999/xlink" version="1.1" x="0px" y="0px" viewBox="0 0 100 100" enable-background="new 0 0 100 100" xml:space="preserve"><path d="M83.862,84.851L83.77,84.35c-0.172-0.936-0.261-2.476-0.355-4.105c-0.132-2.282-0.268-4.643-0.662-5.786  c-0.24-0.698-0.27-2.103-0.301-3.589c-0.048-2.343-0.098-4.766-0.906-6.069c-1.378-2.229-3.006-6.247-2.419-7.473  c0.851-1.775-0.236-5.058-0.793-6.005c-0.134-0.228-0.148-0.476-0.165-0.762c-0.033-0.576-0.083-1.446-1.521-1.729  c-0.903-0.177-1.688,0.047-2.281,0.257c-0.447,0.158-0.811,0.275-1.189,0.169c-0.344-0.096-0.651-0.011-0.842,0.221  c-0.315,0.384-0.196,0.991-0.03,1.831c0.129,0.654,0.346,1.749,0.049,2.018c-0.121,0.109-0.266,0.23-0.421,0.362  c-1.132,0.954-3.238,2.73-1.766,4.658c0.335,0.438,0.415,0.857,0.244,1.282c-0.286,0.709-1.258,1.321-1.971,1.43  c-0.397,0-1.032-1.359-1.373-2.09c-0.403-0.864-0.751-1.61-1.195-1.938c-0.161-0.12-0.347-0.183-0.536-0.183  c-0.529,0-0.906,0.449-1.239,0.847c-0.014,0.016-0.028,0.033-0.044,0.052c-0.014-0.09-0.027-0.198-0.04-0.331  c-0.173-1.791-1.017-3.199-1.632-4.227c-0.336-0.561-0.626-1.045-0.692-1.389c-0.081-0.415-0.008-0.605,0.094-0.87  c0.134-0.349,0.301-0.783,0.092-1.577l-0.081-0.297c-0.231-0.833-0.662-2.383-0.136-3.076c0.209-0.275,0.576-0.409,1.197-0.409  c0.002,0,0.004,0,0.006,0l0.22,0.002c1.563,0,2.127-0.403,2.724-0.83c0.485-0.346,1.035-0.739,2.412-1.018  c1.839-0.372,2.932-1.508,3.896-2.512c0.783-0.815,1.461-1.52,2.376-1.635c2.089-0.26,2.392-2.463,2.635-4.233  c0.083-0.602,0.161-1.17,0.294-1.626c0.103-0.35,0.18-0.659,0.247-0.928c0.243-0.974,0.287-0.974,0.475-0.974  c0.128,0,0.311,0.03,0.542,0.089c0.929,0.239,1.813-0.278,2.012-1.149c0.193-0.848-0.245-2.065-2.057-2.939  c-1.815-0.876-4.01-1.772-6.526-1.772c-1.084,0-2.143,0.16-3.233,0.488c-0.757,0.228-1.453,0.338-2.131,0.338  c-1.075,0-1.939-0.277-2.854-0.57c-0.817-0.262-1.663-0.533-2.663-0.593c-1.199-0.077-2.384,0.148-3.636,0.384  c-1.576,0.297-3.307,0.567-4.838,0.298c-6.692-1.172-8.49-1.729-8.821-1.991c-0.335-0.265-0.698-0.341-0.989-0.402  c-0.441-0.092-0.533-0.111-0.345-1.038c0.443-2.177,0.493-4.608,0.124-6.049c-0.115-0.45-0.084-0.941-0.053-1.462  c0.059-0.949,0.125-2.024-0.619-3.218c-0.664-1.065-1.705-2.203-2.637-2.203c-0.418,0-1.133,0.217-1.216,1.668  c-0.042,0.743-0.101,1.76-0.176,1.897c-0.041,0-0.146-0.015-0.397-0.113c-1.095-0.431-3.39-1.439-4.234-2.167  c-0.342-0.294-0.466-0.923-0.597-1.588c-0.149-0.754-0.318-1.609-0.88-2.197c-0.669-0.7-1.506-1.152-2.132-1.152  c-0.376,0-0.608,0.157-0.735,0.288c-0.135,0.14-0.293,0.396-0.28,0.828c0.014,0.453,0.14,0.841,0.241,1.153  c0.023,0.073,0.052,0.159,0.073,0.234c-0.232,0.017-0.437,0.053-0.625,0.087c-0.155,0.028-0.294,0.056-0.429,0.056  c-0.121,0-0.323,0-0.707-0.522c-0.802-1.09-2.474-2.72-3.807-3.71l-0.521-0.394c-0.633-0.483-0.981-0.75-1.38-0.75  c-0.284,0-0.53,0.139-0.731,0.413c-0.284,0.386-0.468,1.074-0.239,1.739c0.154,0.446,0.551,1.038,1.568,1.323  c0.382,0.107,0.536,0.211,0.587,0.22c-0.062,0.071-0.233,0.194-0.489,0.266c-0.499,0.14-0.853,0.599-1.262,1.131  c-0.437,0.566-0.931,1.208-1.568,1.339c-1.172,0.24-1.333,1.147-1.462,1.877c-0.082,0.458-0.166,0.933-0.458,1.354  c-0.626,0.905-0.749,2.317-0.278,3.215c0.356,0.679,1.004,0.98,1.739,0.806c1.35-0.321,2.489,1.465,3.009,2.506  c0.836,1.672,2.849,2.699,3.924,2.699c0.233,0,0.433-0.045,0.596-0.135c0.179-0.099,0.347-0.153,0.471-0.153  c0.072,0,0.29,0,0.406,0.613c0.22,1.163,0.43,1.877,1.472,1.981c0.161,0.016,0.343,0.025,0.526,0.033  c0.154,0.007,0.372,0.018,0.542,0.037c-0.179,0.407-0.572,1.101-0.843,1.351c-0.024,0.022-0.358,0.031-0.842-0.059  c-0.331-0.062-0.715-0.133-1.16-0.168c-0.477-0.038-0.612-0.15-0.769-0.281c-0.2-0.165-0.459-0.401-1.099-0.342  c-0.432,0.039-0.735,0.121-0.978,0.186c-0.385,0.104-0.599,0.14-1.04,0.006c-0.152-0.046-0.289-0.069-0.418-0.069  c-1.012,0-1.04,1.139-1.064,2.144c-0.031,1.234-0.717,2.509-1.165,2.766c-0.1,0.057-0.189,0.085-0.273,0.085  c-0.311,0-0.689-0.379-1.121-0.811c-0.489-0.488-1.224-0.453-1.74,0.08c-0.386,0.399-0.613,1.004-0.594,1.579  c0.007,0.221,0.023,0.404,0.039,0.563c0.046,0.5,0.056,0.604-0.346,1.101c-1.09,1.348-0.974,2.881,0.32,4.205  c0.89,0.91,1.917,1.179,2.742,1.396c0.535,0.14,0.997,0.261,1.26,0.515c0.121,0.116,0.227,0.227,0.328,0.331  c0.702,0.728,1.226,1.178,3.058,1.246c0.724,0.027,1.376,0.56,1.386,0.868c0.007,0.218-0.091,0.521-0.186,0.813  c-0.147,0.456-0.3,0.926-0.152,1.353c0.042,0.122,0.095,0.239,0.149,0.36c0.164,0.362,0.305,0.674,0.194,1.348  c-0.053,0.326-0.225,1.089-0.667,1.145c-1.098,0.14-1.387,1.066-1.545,1.571c-0.328,1.041-0.877,2.783,0.602,3.9  c0.48,0.362,0.69,0.65,0.86,0.882c0.257,0.353,0.5,0.686,1.257,0.775c0.154,0.019,0.282,0.099,0.319,0.198  c0.04,0.109-0.031,0.278-0.19,0.451c-0.664,0.721-1.387,1.759-1.065,2.616c0.197,0.525,0.711,0.837,1.527,0.925  c0.495,0.054,0.943,0.081,1.329,0.105c0.272,0.017,0.585,0.036,0.814,0.064c-0.056,0.056-0.116,0.113-0.168,0.164  c-0.682,0.655-2.102,2.02-0.948,3.953c0.11,0.186,0.214,0.351,0.309,0.503c0.549,0.88,0.697,1.116,0.335,2.145  c-0.361,1.027-0.158,1.601,0.004,2.062c0.114,0.321,0.189,0.533,0.09,0.92c-0.484,1.897,0.262,3.246,1.051,4.674l0.26,0.473  c0.38,0.704,0.31,1.052,0.204,1.577c-0.098,0.483-0.22,1.085,0.033,1.99c0.18,0.645,0.118,1.39,0.057,2.109  c-0.1,1.186-0.224,2.662,1.334,2.906c0.741,0.116,0.779,0.32,0.832,0.604c0.043,0.235,0.145,0.785,0.854,0.831  c0.565,0,0.847-0.563,1.145-1.159c0.13-0.259,0.434-0.865,0.609-0.913c0.023,0.017,0.077,0.088,0.113,0.136  c0.148,0.196,0.396,0.524,0.895,0.567c0.014,0.001,0.127,0.006,0.142,0.006c0.548,0,0.842-0.297,1.017-0.475  c0.141-0.143,0.153-0.142,0.258-0.137c0.182,0.026,0.299,0.13,0.477,0.297c0.257,0.242,0.718,0.57,1.259,0.341  c0.381-0.161,0.581-0.546,0.774-0.918c0.271-0.522,0.424-0.74,0.687-0.74c0,0,0,0,0,0l0.178,0.002c0.742,0,1.564-0.082,2.029-0.686  c0.358-0.466,0.415-1.136,0.174-2.048c-0.175-0.663-0.186-1.344-0.13-1.895c0.265,0.985,0.754,2.149,1.997,2.283  c0.075,0.009,0.114,0.015,0.12,0.02c0.03,0.1-0.03,0.409-0.066,0.597c-0.099,0.511-0.221,1.146,0.163,1.655  c0.265,0.352,0.703,0.55,1.338,0.605c2.065,0.178,2.84-1.701,3.396-3.056c0.224-0.544,0.435-1.057,0.67-1.33  c0.31-0.361,0.552-0.56,0.786-0.751c0.361-0.295,0.734-0.6,1.236-1.384c1.731-2.7,0.541-6.103-0.052-7.44  c-1.095-2.473-0.534-3.916,0.158-5.001c0.626-0.98,0.706-1.965,0.766-2.684c0.011-0.134,0.023-0.289,0.045-0.427  c0.011,0.081,0.021,0.164,0.031,0.241c0.099,0.802,0.249,2.013,0.923,3.455l0.113,0.243c1.236,2.682,2.706,5.423,4.23,5.423  c0.354,0,0.865-0.147,1.299-0.851c0.706-1.146,1.012-1.204,1.066-1.204c0.072,0,0.199,0.076,0.322,0.149  c0.147,0.087,0.3,0.174,0.464,0.231c0.605,0.218,1.198-0.038,1.837-0.373c0.381-0.2,0.813-0.427,1.362-0.581l0.29-0.084  c0.292-0.085,0.522-0.152,0.68-0.152c0.336,0,0.727,0.533,1.74,2.378c1.186,2.155,2.126,4.422,2.881,6.243  c0.464,1.116,0.863,2.081,1.231,2.816c0.38,0.761,0.33,1.126,0.238,1.788c-0.114,0.826-0.271,1.959,0.302,4.33  c0.466,1.93,0.89,2.908,1.23,3.695c0.407,0.941,0.652,1.509,0.687,3.17c0.055,2.659,1.445,4.151,2.563,5.35  c0.297,0.318,0.582,0.624,0.826,0.936c0.152,0.193,0.393,0.452,0.728,0.452c0.227,0,0.427-0.119,0.55-0.325  c0.515-0.862-0.343-4.643-0.701-5.307c-0.41-0.766-0.88-3.031-0.058-3.603c0.497-0.343,0.928-0.206,1.433,0.005  c0.325,0.137,0.662,0.278,1.05,0.278c0.108,0,0.376,0.396,0.505,0.587c0.396,0.584,0.918,1.337,1.862,1.177  c0.39-0.064,0.689-0.245,0.894-0.536C84.396,87.708,84.172,86.51,83.862,84.851z M83.079,87.847  c-0.033,0.047-0.087,0.098-0.313,0.13c-0.262,0-0.494-0.314-0.794-0.758c-0.326-0.48-0.695-1.026-1.334-1.026  c-0.187,0-0.418-0.098-0.663-0.2c-0.65-0.272-1.568-0.475-2.39,0.096c-1.475,1.024-0.778,3.918-0.253,4.897  c0.267,0.493,0.676,2.552,0.745,3.674c-0.17-0.192-0.351-0.387-0.535-0.585c-1.105-1.186-2.248-2.411-2.295-4.688  c-0.038-1.858-0.345-2.566-0.77-3.548c-0.325-0.751-0.729-1.687-1.175-3.532c-0.528-2.188-0.393-3.17-0.284-3.959  c0.1-0.716,0.185-1.334-0.334-2.372c-0.353-0.704-0.746-1.653-1.202-2.752c-0.765-1.844-1.717-4.14-2.928-6.343  c-1.156-2.102-1.681-2.896-2.617-2.896c-0.301,0-0.592,0.085-0.961,0.193l-0.278,0.08c-0.652,0.183-1.154,0.446-1.559,0.658  c-0.456,0.241-0.761,0.416-1.036,0.316c-0.104-0.036-0.196-0.095-0.288-0.149c-0.217-0.129-0.487-0.289-0.833-0.289  c-0.628,0-1.183,0.486-1.918,1.679c-0.153,0.249-0.304,0.376-0.447,0.376c-0.407,0-1.38-0.629-3.323-4.842L55.18,61.76  c-0.607-1.299-0.745-2.415-0.837-3.153c-0.089-0.719-0.181-1.462-0.922-1.462c0,0,0,0-0.001,0c-1.006,0.029-1.082,0.948-1.143,1.688  c-0.053,0.648-0.119,1.456-0.612,2.229c-0.786,1.231-1.522,3.021-0.229,5.942c0.526,1.19,1.594,4.205,0.124,6.497  c-0.417,0.649-0.687,0.87-1.027,1.149c-0.255,0.208-0.544,0.445-0.911,0.872c-0.341,0.396-0.582,0.981-0.837,1.603  c-0.62,1.507-1.15,2.542-2.384,2.439c-0.324-0.028-0.546-0.104-0.628-0.212c-0.116-0.154-0.043-0.53,0.021-0.863  c0.089-0.458,0.189-0.978-0.109-1.381c-0.176-0.238-0.452-0.379-0.819-0.419c-0.755-0.081-1.047-1.105-1.282-2.147  c-0.09-0.399-0.155-0.688-0.28-0.886c-0.121-0.189-0.31-0.299-0.518-0.299c-0.141,0-0.347,0.05-0.529,0.286  c-0.414,0.538-0.749,2.327-0.331,3.907c0.152,0.575,0.152,0.984,0,1.182c-0.155,0.202-0.548,0.296-1.236,0.296l-0.189-0.002  c-0.901,0-1.3,0.771-1.564,1.28c-0.085,0.164-0.214,0.413-0.269,0.469c-0.036-0.016-0.128-0.103-0.19-0.16  c-0.205-0.193-0.515-0.485-1.018-0.559c-0.625-0.084-0.918,0.228-1.114,0.425c-0.142,0.144-0.186,0.168-0.36,0.175  c-0.041-0.004-0.062-0.013-0.183-0.174c-0.169-0.225-0.448-0.638-1.125-0.499c-0.639,0.131-0.985,0.822-1.29,1.432  c-0.052,0.104-0.116,0.231-0.179,0.347c-0.15-0.521-0.507-0.991-1.603-1.163c-0.532-0.083-0.615-0.392-0.493-1.834  c0.065-0.771,0.139-1.644-0.09-2.463c-0.188-0.673-0.104-1.085-0.016-1.521c0.117-0.576,0.249-1.229-0.304-2.251l-0.265-0.482  c-0.75-1.357-1.343-2.429-0.958-3.941c0.174-0.682,0.013-1.137-0.116-1.502c-0.139-0.392-0.248-0.701-0.004-1.396  c0.522-1.482,0.164-2.056-0.43-3.007c-0.091-0.146-0.191-0.306-0.298-0.484c-0.691-1.159-0.083-1.889,0.782-2.721  c0.294-0.282,0.526-0.506,0.614-0.771c0.11-0.328,0-0.563-0.074-0.675c-0.274-0.407-0.822-0.44-1.817-0.502  c-0.373-0.023-0.805-0.05-1.283-0.102c-0.387-0.042-0.648-0.147-0.699-0.282c-0.083-0.223,0.152-0.813,0.864-1.587  c0.426-0.462,0.569-1,0.393-1.476c-0.169-0.457-0.605-0.78-1.139-0.844c-0.324-0.039-0.357-0.084-0.568-0.373  c-0.197-0.27-0.467-0.639-1.065-1.091c-0.847-0.639-0.615-1.646-0.231-2.863c0.182-0.582,0.345-0.772,0.698-0.817  c0.46-0.058,1.27-0.392,1.529-1.976c0.158-0.971-0.089-1.52-0.27-1.92c-0.042-0.094-0.084-0.184-0.116-0.277  c-0.038-0.109,0.085-0.49,0.159-0.717c0.115-0.356,0.246-0.761,0.233-1.153c-0.032-1.001-1.266-1.795-2.348-1.835  c-1.522-0.057-1.825-0.371-2.375-0.941c-0.109-0.113-0.224-0.232-0.354-0.357c-0.451-0.434-1.058-0.593-1.7-0.761  c-0.779-0.204-1.584-0.415-2.28-1.127c-0.938-0.96-1.025-1.928-0.257-2.877c0.626-0.775,0.623-1.177,0.563-1.821  c-0.013-0.143-0.028-0.306-0.035-0.504c-0.01-0.305,0.116-0.646,0.313-0.851c0.177-0.182,0.233-0.148,0.344-0.037  c0.527,0.527,1.072,1.073,1.797,1.073c0.26,0,0.519-0.073,0.771-0.217c0.852-0.49,1.631-2.176,1.667-3.609  c0.006-0.262,0.025-1.06,0.064-1.169c0.013,0,0.051,0.002,0.126,0.026c0.669,0.203,1.138,0.126,1.592,0.003  c0.227-0.061,0.462-0.125,0.907-0.161c0.126,0,0.143,0.014,0.272,0.121c0.213,0.177,0.536,0.444,1.328,0.508  c0.406,0.032,0.755,0.098,1.056,0.154c0.757,0.142,1.323,0.163,1.704-0.189c0.48-0.442,1.207-1.747,1.254-2.254  c0.016-0.182-0.041-0.357-0.161-0.495c-0.279-0.318-0.809-0.343-1.423-0.372c-0.165-0.008-0.329-0.015-0.473-0.03  c-0.279-0.028-0.374-0.037-0.589-1.173c-0.244-1.288-1.052-1.427-1.389-1.427c-0.298,0-0.619,0.093-0.948,0.275  c0,0-0.033,0.013-0.118,0.013c-0.69,0-2.364-0.815-3.029-2.146c-1.163-2.325-2.628-3.391-4.136-3.031  c-0.203,0.046-0.405,0.116-0.621-0.297c-0.27-0.515-0.248-1.515,0.215-2.182c0.417-0.602,0.529-1.238,0.62-1.749  c0.14-0.785,0.219-0.978,0.678-1.072c1.002-0.205,1.645-1.039,2.16-1.708c0.25-0.325,0.561-0.728,0.74-0.778  c0.615-0.172,1.235-0.617,1.235-1.222c0-0.541-0.448-0.941-1.333-1.189c-0.482-0.135-0.782-0.366-0.893-0.686  c-0.099-0.287-0.029-0.596,0.086-0.792c0.156,0.085,0.438,0.301,0.712,0.51l0.531,0.401c1.265,0.94,2.846,2.478,3.598,3.5  c0.635,0.866,1.229,1.016,2.119,0.858c0.161-0.029,0.337-0.062,0.539-0.075c0.142-0.01,0.572-0.039,0.806-0.383  c0.24-0.354,0.108-0.761-0.019-1.155c-0.085-0.265-0.183-0.564-0.192-0.875c-0.002-0.085,0.012-0.119,0.016-0.085  c0.296,0,0.904,0.315,1.409,0.843c0.36,0.377,0.493,1.05,0.622,1.7c0.159,0.802,0.323,1.632,0.925,2.152  c1.163,1.002,4.181,2.206,4.521,2.34c0.321,0.126,0.557,0.183,0.763,0.183c1.012,0,1.069-1.009,1.174-2.84  c0.029-0.5,0.145-0.725,0.218-0.725c0.297,0,1.084,0.602,1.788,1.732c0.574,0.923,0.523,1.751,0.469,2.628  c-0.035,0.575-0.072,1.169,0.082,1.771c0.33,1.288,0.274,3.592-0.135,5.603c-0.321,1.583,0.191,2.021,1.12,2.216  c0.227,0.047,0.423,0.088,0.573,0.207c0.655,0.519,3.34,1.154,9.27,2.192c0.522,0.091,1.052,0.136,1.618,0.136  c1.254,0,2.435-0.222,3.576-0.437c1.191-0.224,2.301-0.434,3.391-0.369c0.875,0.053,1.625,0.293,2.419,0.547  c0.947,0.304,1.928,0.618,3.159,0.618c0.776,0,1.567-0.125,2.418-0.38c0.997-0.3,1.961-0.446,2.946-0.446  c2.315,0,4.378,0.846,6.091,1.673c1.284,0.62,1.62,1.366,1.517,1.816c-0.075,0.333-0.404,0.502-0.788,0.404  c-0.321-0.082-0.572-0.121-0.79-0.121c-1.013,0-1.213,0.803-1.445,1.732c-0.063,0.258-0.138,0.554-0.235,0.889  c-0.154,0.527-0.237,1.131-0.325,1.771c-0.267,1.94-0.534,3.223-1.769,3.377c-1.268,0.159-2.096,1.021-2.974,1.934  c-0.904,0.941-1.84,1.915-3.373,2.224c-1.586,0.321-2.256,0.8-2.795,1.185c-0.542,0.387-0.9,0.643-2.143,0.643l-0.294-0.003  c-0.871,0-1.519,0.271-1.925,0.804c-0.826,1.087-0.329,2.878-0.032,3.949l0.078,0.285c0.127,0.481,0.053,0.673-0.059,0.963  c-0.123,0.322-0.277,0.723-0.143,1.418c0.101,0.518,0.433,1.071,0.816,1.713c0.599,0.999,1.344,2.242,1.494,3.809  c0.051,0.525,0.146,1.502,0.881,1.502c0.397,0,0.673-0.328,0.965-0.676c0.134-0.16,0.384-0.457,0.414-0.504  c0.241,0.179,0.598,0.943,0.885,1.559c0.612,1.312,1.245,2.667,2.279,2.667c0.025,0,0.146-0.01,0.172-0.014  c0.997-0.152,2.289-0.959,2.727-2.042c0.213-0.529,0.32-1.351-0.377-2.264c-0.826-1.081,0.293-2.171,1.615-3.286  c0.165-0.14,0.317-0.269,0.446-0.385c0.718-0.648,0.476-1.873,0.263-2.954c-0.051-0.257-0.12-0.605-0.143-0.842  c0.548,0.089,1.082-0.075,1.556-0.242c0.531-0.188,1.029-0.362,1.755-0.219c0.678,0.133,0.687,0.275,0.717,0.805  c0.021,0.345,0.045,0.774,0.301,1.21c0.535,0.911,1.374,3.771,0.753,5.067c-0.896,1.87,1.322,6.572,2.472,8.431  c0.664,1.071,0.713,3.458,0.757,5.563c0.033,1.636,0.063,3.048,0.354,3.895c0.349,1.013,0.487,3.406,0.609,5.518  c0.096,1.662,0.187,3.231,0.369,4.228l0.094,0.505C83.114,86.291,83.336,87.479,83.079,87.847z M67.305,69.097  c-0.31-0.62-0.694-1.391-0.756-1.74c-0.114-0.646-0.472-0.742-0.675-0.742c-0.452,0-0.731,0.463-1.011,1.157  c-0.401,0.997-0.481,2.841,0.601,3.82c0.474,0.429,0.936,0.519,1.239,0.519c0.443,0,0.852-0.198,1.091-0.53  c0.223-0.308,0.279-0.7,0.154-1.076C67.827,70.144,67.573,69.635,67.305,69.097z M66.983,70.995c-0.04,0.056-0.135,0.115-0.28,0.115  c-0.181,0-0.383-0.093-0.567-0.261c-0.672-0.607-0.643-1.913-0.362-2.658c0.163,0.402,0.396,0.869,0.637,1.352  c0.241,0.484,0.491,0.984,0.589,1.276C67.03,70.914,67.005,70.965,66.983,70.995z M60.692,68.589  c-0.405-0.306-0.912-0.262-1.213,0.089c-0.327,0.382-0.414,1.086-0.258,2.094c0.117,0.759,0.063,1.787,0.014,2.693  c-0.076,1.424-0.098,2.124,0.247,2.487c0.129,0.136,0.302,0.211,0.487,0.211c0.05,0,0.167-0.019,0.215-0.032  c1.271-0.389,2.578-2.461,2.172-4.048C62.035,70.826,61.222,68.987,60.692,68.589z M60.196,75.021  c-0.022-0.378,0.012-1.008,0.038-1.503c0.051-0.956,0.108-2.039-0.024-2.899c-0.094-0.603-0.067-0.942-0.029-1.12  c0.282,0.398,0.895,1.609,1.207,2.832C61.632,73.284,60.881,74.556,60.196,75.021z M57.608,69.891c0-1.202-0.505-1.906-1.32-2.653  c-0.468-0.43-0.705-1.204-0.896-1.827c-0.081-0.264-0.155-0.505-0.236-0.7c-0.2-0.487-0.652-0.79-1.179-0.79  c-0.481,0-0.924,0.25-1.186,0.669c-0.644,1.03,0.11,2.666,0.66,3.86c0.076,0.165,0.146,0.316,0.203,0.449  c0.271,0.624,0.587,1.645,0.199,3.289c-0.228,0.959-0.473,1.673-0.689,2.303c-0.178,0.52-0.332,0.969-0.438,1.438  c-0.098,0.439-0.009,0.86,0.25,1.184c0.252,0.313,0.644,0.501,1.05,0.501c0.444,0,0.84-0.217,1.086-0.594  c0.437-0.67,1.574-2.038,2.363-2.896c0.68-0.74,0.462-2.028,0.269-3.166C57.675,70.544,57.608,70.152,57.608,69.891z M56.74,73.446  c-0.682,0.741-1.936,2.215-2.465,3.026c-0.121,0.188-0.393,0.17-0.518,0.014c-0.067-0.084-0.086-0.198-0.054-0.34  c0.093-0.416,0.238-0.84,0.407-1.331c0.224-0.652,0.478-1.391,0.716-2.397c0.457-1.935,0.074-3.163-0.254-3.917  c-0.061-0.139-0.133-0.298-0.213-0.471c-0.377-0.817-1.078-2.339-0.721-2.912c0.078-0.124,0.204-0.198,0.338-0.198  c0.084,0,0.196,0.029,0.254,0.171c0.07,0.17,0.134,0.381,0.205,0.611c0.226,0.739,0.507,1.659,1.176,2.271  c0.754,0.691,0.996,1.157,0.996,1.917c0,0.347,0.073,0.778,0.15,1.235C56.898,71.945,57.089,73.068,56.74,73.446z"></path></svg>