<svg height='100px' width='100px'  fill="#000000" xmlns="http://www.w3.org/2000/svg" xmlns:xlink="http://www.w3.org/1999/xlink" version="1.1" x="0px" y="0px" viewBox="0 0 100 100" style="enable-background:new 0 0 100 100;" xml:space="preserve"><g><g><path d="M86.7,59.9c0,0-0.1,0-0.1,0l-15.7-1.8c-0.5-0.1-0.9-0.4-1-0.9c-0.1-0.5,0.1-1,0.5-1.2l3.8-2.2l-4.6-7.2    c-0.8-1.3-1.5-2.4-2.3-3.3c-0.4-0.5-0.3-1.2,0.2-1.6c0.5-0.4,1.2-0.3,1.6,0.2c0.8,1,1.6,2.1,2.4,3.5l5.2,8.2    c0.2,0.3,0.2,0.6,0.1,0.9c-0.1,0.3-0.3,0.6-0.5,0.7l-1.9,1.1L86,57.6l4.5-10L89,48.4c-0.5,0.3-1.2,0.1-1.5-0.4    c-1.3-2.2-2.8-4.6-3.8-6.2c-0.5-0.7-1.2-1.1-2.1-1.1H65c-3.7,0-5.8,0.9-7.6,3.4l-3.6,5.3l6.8,4c1.8,1,4,0.5,5.1-1.2    c0.3-0.5,1-0.7,1.6-0.4c0.5,0.3,0.7,1,0.4,1.6c-1.8,2.8-5.3,3.6-8.2,2l-7.8-4.6c-0.3-0.2-0.5-0.4-0.5-0.7c-0.1-0.3,0-0.6,0.2-0.9    l4.2-6.4c2.3-3.1,5-4.3,9.4-4.3h16.5c1.6,0,3.1,0.8,4,2.1c0.9,1.4,2.2,3.4,3.3,5.3l3.6-2c0.4-0.2,1-0.2,1.3,0.2    c0.4,0.3,0.5,0.9,0.3,1.3l-6.3,13.9C87.5,59.7,87.1,59.9,86.7,59.9z"></path></g><g><path d="M64.9,92.5C64.8,92.5,64.8,92.5,64.9,92.5L57.2,92c-3.8-0.4-6.3-2.1-8.5-6l-8.3-14.3    c-0.8-1.4-0.9-3.1-0.1-4.5c0.7-1.5,1.8-3.5,2.9-5.6l-3.5-2.1c-0.4-0.2-0.6-0.7-0.5-1.2c0.1-0.5,0.5-0.8,1-0.9l15.3-1.6    c0.5,0,1,0.2,1.2,0.7l6.1,14.6c0.2,0.4,0.1,1-0.3,1.3c-0.4,0.3-0.9,0.4-1.3,0.1l-3.8-2.2L53.5,78c-0.8,1.4-1.3,2.7-1.8,3.8    c-0.2,0.6-0.9,0.9-1.4,0.7c-0.6-0.2-0.9-0.9-0.7-1.4c0.4-1.2,1.1-2.6,1.9-4.1l4.4-8.6c0.1-0.3,0.4-0.5,0.7-0.6    c0.3-0.1,0.6,0,0.9,0.1l1.9,1.1l-4.5-10.8l-11.1,1.2l1.6,0.9c0.5,0.3,0.7,1,0.4,1.5c-1.3,2.2-2.6,4.7-3.4,6.4    c-0.4,0.8-0.4,1.6,0.1,2.4l8.3,14.3c1.9,3.2,3.7,4.5,6.7,4.9l6.4,0.4l0.1-7.9c0-2.1-1.6-3.7-3.6-3.8c-0.6,0-1.1-0.5-1.1-1.2    c0-0.6,0.5-1.1,1.2-1.1c3.3,0.1,5.8,2.8,5.8,6.1l-0.1,9c0,0.3-0.1,0.6-0.4,0.8C65.4,92.4,65.1,92.5,64.9,92.5z"></path></g><g><path d="M78.5,98.4c-0.4,0-0.7-0.2-0.9-0.5l-9-12.8c-0.3-0.4-0.3-0.9,0-1.3l9.5-12.3c0.3-0.4,0.8-0.5,1.3-0.4    c0.5,0.2,0.8,0.6,0.8,1.1l0,4.4l8.5-0.4c0.6,0,1.1,0.5,1.2,1.1c0,0.6-0.5,1.1-1.1,1.2l-9.7,0.5c-0.3,0-0.6-0.1-0.8-0.3    c-0.2-0.2-0.3-0.5-0.4-0.8l0-2.3l-7,9.1l6.6,9.3l0-1.7c0-0.6,0.5-1.1,1.1-1.1c2.6,0,5.4-0.1,7.3-0.2c0.8,0,1.6-0.5,2-1.2l8.3-14.3    C98,72,98.2,69.8,97,67l-2.8-5.8l-6.8,3.8c-1.8,1-2.4,3.2-1.5,5c0.3,0.6,0.1,1.2-0.5,1.5c-0.6,0.3-1.2,0.1-1.5-0.5    c-1.5-2.9-0.5-6.4,2.4-8.1l7.9-4.4c0.3-0.2,0.6-0.2,0.9-0.1c0.3,0.1,0.5,0.3,0.7,0.6L99,66c1.6,3.5,1.3,6.5-0.9,10.3l-8.3,14.3    C89,92.1,87.6,92.9,86,93c-1.6,0.1-4,0.2-6.3,0.2l-0.1,4.1c0,0.5-0.3,0.9-0.8,1.1C78.7,98.4,78.6,98.4,78.5,98.4z"></path></g><g><path d="M38.1,75.6H17.3c-2.2,0-4.1-1.7-4.4-3.9L6.4,19.8c-0.1-0.6,0.4-1.2,1-1.3c0.6-0.1,1.2,0.4,1.3,1l6.6,52    c0.1,1.1,1,1.9,2.1,1.9h20.8c0.6,0,1.1,0.5,1.1,1.1C39.3,75.1,38.8,75.6,38.1,75.6z"></path></g><g><path d="M61.5,33.4c-0.1,0-0.1,0-0.2,0c-0.6-0.1-1-0.7-1-1.3l1.7-12.6c0.1-0.6,0.6-1.1,1.3-1    c0.6,0.1,1,0.7,1,1.3l-1.7,12.6C62.6,33,62.1,33.4,61.5,33.4z"></path></g><g><path d="M64.7,20.8h-7.5c-0.6,0-1.1-0.5-1.1-1.1c0-0.6,0.5-1.1,1.1-1.1h7.5c2.1,0,3.8-1.7,3.8-3.8    c0-2.1-1.7-3.8-3.8-3.8H6.1c-2.1,0-3.8,1.7-3.8,3.8c0,2.1,1.7,3.8,3.8,3.8h29.3c0.6,0,1.1,0.5,1.1,1.1c0,0.6-0.5,1.1-1.1,1.1H6.1    C2.7,20.8,0,18,0,14.7c0-3.3,2.7-6.1,6.1-6.1h58.6c3.3,0,6.1,2.7,6.1,6.1C70.7,18,68,20.8,64.7,20.8z"></path></g><g><path d="M41.9,10.9c-0.6,0-1.1-0.5-1.1-1.1V4.9c0-0.6-0.5-1.1-1.1-1.1h-8.6c-0.6,0-1.1,0.5-1.1,1.1v4.8    c0,0.6-0.5,1.1-1.1,1.1c-0.6,0-1.1-0.5-1.1-1.1V4.9c0-1.9,1.5-3.4,3.4-3.4h8.6c1.9,0,3.4,1.5,3.4,3.4v4.8    C43,10.4,42.5,10.9,41.9,10.9z"></path></g></g></svg>