<svg height='100px' width='100px'  fill="#000000" xmlns="http://www.w3.org/2000/svg" viewBox="0 0 64 64" x="0px" y="0px"><g><path d="M61.992,52.876l-1.55-12.421a6.017,6.017,0,0,0-4.776-5.145l-8.174-1.629L45,31.541V28.973A9.947,9.947,0,0,0,48.938,22H49a4,4,0,0,0,0-8V8.123a4.192,4.192,0,0,0-4.486-4.194A4.587,4.587,0,0,0,40.764,2H35a6.006,6.006,0,0,0-6,6l0,.017c0,.038,0,.078,0,.1V14a4,4,0,0,0,0,8h.062A9.949,9.949,0,0,0,33,28.973v2.568l-2.492,2.14-8.394,1.678a6.026,6.026,0,0,0-2.33,1.017l.2-1.212a.993.993,0,0,0-.052-.523L15.551,23.247A1.976,1.976,0,0,0,16,22a2,2,0,1,0-3.05,1.7L11.067,51h-.134L9.05,23.7A2,2,0,1,0,6,22a1.976,1.976,0,0,0,.449,1.247L2.066,34.641a.993.993,0,0,0-.052.523l2,12a1,1,0,0,0,.876.83A1.028,1.028,0,0,0,5,48a1,1,0,0,0,.927-.625l2.351-5.806L8.929,51H8a3,3,0,0,0-3,3v1.142A4,4,0,0,0,2,59v2a1,1,0,0,0,1,1H57a5.006,5.006,0,0,0,5-5V53H61ZM5.4,43.34,4.031,35.1l3.224-8.38.71,10.294Zm41.626-.1.883,3.531-3.154,4.1-.215-.071-.317-1.44a2.84,2.84,0,0,0-.475-1.047l3.526-11.148,2.28,4.255-1.874.625A1,1,0,0,0,47.03,43.242ZM47,60H42.816A2.966,2.966,0,0,0,43,59V53a3,3,0,0,0-.073-.621L47,53.723ZM30.316,42.052l-1.874-.625,2.28-4.255L34.248,48.32a2.861,2.861,0,0,0-.475,1.048l-.309,1.423-.225.075-3.152-4.093.883-3.531A1,1,0,0,0,30.316,42.052ZM35,30.147a9.805,9.805,0,0,0,8,0v1.491l-4,4.8-4-4.8ZM40,49.96A1.07,1.07,0,0,1,41.15,49a1.107,1.107,0,0,1,1.123.8l.066.3a2.554,2.554,0,0,0-.351-.063A2,2,0,0,0,41.61,50H40C40,49.985,40,49.977,40,49.96Zm0-2.749a3.187,3.187,0,0,0-1,.6,3.187,3.187,0,0,0-1-.6V40.665l1-1.144,1,1.144Zm2.03-.081L42,47.123V42.947l.994,1.136ZM36,47.123l-.03.007-.964-3.047L36,42.947Zm-.273,2.67A1.107,1.107,0,0,1,36.85,49a1.07,1.07,0,0,1,1.15.96c0,.016,0,.026,0,.04H36a1.03,1.03,0,0,0-.316.051l-.014,0ZM43.7,41.848l-3.38-3.864,3.8-4.564,1.764,1.516ZM51,18a2,2,0,0,1-2,2V16A2,2,0,0,1,51,18ZM47,8.123v3.644A39.569,39.569,0,0,1,45,7.8V5.913a2.223,2.223,0,0,1,2,2.21ZM35,4h5.764A2.6,2.6,0,0,1,43,5.256V7H31.126A4.008,4.008,0,0,1,35,4ZM31,9h1.451c-.363.765-.863,1.76-1.451,2.767Zm-4,9a2.009,2.009,0,0,1,2-2v4A2,2,0,0,1,27,18Zm4,3V15.348A32.764,32.764,0,0,0,34.656,9h8.688A32.688,32.688,0,0,0,47,15.348V21a7.983,7.983,0,0,1-3.557,6.65,8.112,8.112,0,0,1-8.887,0A7.982,7.982,0,0,1,31,21Zm2.881,12.42,3.8,4.564-3.38,3.864-2.188-6.912Zm-11.375,3.9,6.571-1.313-2.958,5.52a1,1,0,0,0,.565,1.421l2.121.708-.775,3.1a1,1,0,0,0,.178.852l3.022,3.926L29.839,52H27V47H25v5H19v2h6v6H20V59a4,4,0,0,0-3-3.858V54a2.932,2.932,0,0,0-.134-.837l.117.022L19.363,40.5A3.969,3.969,0,0,1,22.506,37.32ZM16.6,43.34l-2.561-6.322.71-10.294,3.224,8.38Zm-2.874-1.771,2.327,5.747L15.3,51.308A2.973,2.973,0,0,0,14,51h-.929ZM7,54a1,1,0,0,1,1-1h6a1,1,0,0,1,1,1v1H7Zm9,6H4V59a2,2,0,0,1,2-2H16a2,2,0,0,1,2,2v1Zm11-6h2v6H27Zm11,6H31V53.721L36.162,52H40a.982.982,0,0,1,.479.123,1.159,1.159,0,0,1,.315.27A1,1,0,0,1,41,53v6a1,1,0,0,1-1,1Zm11,0V54h2v6Zm8,0H53V54h5V52H53V47H51v5H48.159l-1.388-.458,3.022-3.933a1,1,0,0,0,.177-.851l-.775-3.1,2.121-.708a1,1,0,0,0,.565-1.421l-2.959-5.522,6.349,1.265A4.019,4.019,0,0,1,58.458,40.7L60,53.061V57A3,3,0,0,1,57,60Z"></path><path d="M36,24.57h2.117a14.385,14.385,0,0,0,4.173-.613l-.58-1.914a12.389,12.389,0,0,1-3.593.527H36Z"></path><path d="M34.5,18A1.5,1.5,0,1,0,33,16.5,1.5,1.5,0,0,0,34.5,18Z"></path><path d="M43.5,18A1.5,1.5,0,1,0,42,16.5,1.5,1.5,0,0,0,43.5,18Z"></path></g></svg>