<svg height='100px' width='100px'  fill="#000000" xmlns="http://www.w3.org/2000/svg" xmlns:xlink="http://www.w3.org/1999/xlink" xmlns:serif="http://www.serif.com/" viewBox="0 0 123 123" version="1.1" xml:space="preserve" style="" x="0px" y="0px" fill-rule="evenodd" clip-rule="evenodd" stroke-linejoin="round" stroke-miterlimit="1.41421"><rect x="0" y="0" width="122.88" height="122.88" style="" fill="none"></rect><g serif:id="Honduras"><path d="M75.622,39.771l0.138,0.053c0.241,0.08 0.478,0.078 0.721,0.071c0.159,-0.004 0.287,-0.036 0.418,-0.169l0.252,-0.084l0.148,-0.008c0.133,-0.032 0.133,-0.032 0.26,-0.078c0,0 0.374,-0.01 0.72,0.002l0.183,0.005l0.187,-0.006l0.18,0.006c0.271,0 0.542,-0.007 0.812,-0.029l0.153,-0.008l0.166,-0.021l0.165,-0.02l0.146,-0.031l0.154,-0.027l0.15,-0.033l0.142,-0.026c0.053,-0.012 0.245,-0.056 0.298,-0.072c0.044,-0.013 0.088,-0.031 0.131,-0.047l0.149,-0.043l0.136,-0.052l0.139,-0.046c0.142,-0.069 0.064,-0.001 0.366,-0.182c0.118,-0.07 0.316,-0.238 0.316,-0.238c0.099,-0.076 0.099,-0.077 0.187,-0.165l0.099,-0.092l0.106,-0.104c0.137,-0.112 -0.032,-0.027 0.458,-0.327l0.118,-0.076l0.119,-0.07l0.134,-0.081l0.136,-0.062l0.128,-0.053l0.274,-0.12c0.149,-0.034 0.149,-0.034 0.299,-0.066l0.198,-0.02c0.177,0 0.176,0 0.353,0.006l0.252,0.035c0.154,0.035 0.155,0.034 0.306,0.081l0.145,0.04c0.146,0.044 0.146,0.044 0.288,0.099l0.138,0.046l0.15,0.043l0.151,0.051l0.139,0.053l0.135,0.045l0.195,0.056c0.129,0.12 0.019,0.041 0.158,0.062l0.134,0.037c0.08,0.036 0.077,0.042 0.151,0.089l0.125,0.062l0.12,0.068l0.131,0.058l0.128,0.064l0.128,0.056l0.139,0.054l0.134,0.058c0.184,0.071 0.368,0.144 0.556,0.207l0.141,0.054c0.139,0.051 0.139,0.051 0.28,0.098l0.142,0.051c0.005,0.001 0.282,0.094 0.287,0.095c0.078,0.025 0.216,0.067 0.294,0.091l0.144,0.048c0.149,0.043 0.299,0.086 0.449,0.128l0.207,0.085l0.099,-0.006c0.142,0.042 0.142,0.042 0.282,0.088l0.187,0.025l0.173,0.042l0.126,0.048c0.144,0.025 0.144,0.025 0.289,0.047l0.165,0.026c0.162,0.059 0.193,0.088 0.193,0.088c0,0 0.051,-0.037 0.122,-0.027c0.112,0.016 0.196,0.044 0.304,0.075l0.15,0.032l0.149,0.043l0.154,0.031c0.158,0.03 0.158,0.03 0.316,0.058l0.164,0.033l0.154,0.037l0.15,0.026c0.154,0.027 0.154,0.026 0.304,0.065l0.146,0.021l0.18,0.037l0.131,0.04l0.155,0.03l0.16,0.033l0.159,0.031l0.165,0.028l0.161,0.032c0.155,0.027 0.157,0.028 0.317,0.051c0.152,0.023 0.174,0.025 0.331,0.044l0.154,0.026l0.162,0.015l0.16,0.017l0.169,0.006l0.169,0.021l0.151,0.004l0.152,0.006l0.158,0l0.132,0.001l0.178,0.006l0.168,0.004l0.327,0.022c0.147,0.016 0.293,0.031 0.44,0.046l0.195,-0.014l0.183,0.146l0.054,0.076l0.218,0.114l0.109,0.083l0.113,0.085l0.105,0.089l0.106,0.081l0.102,0.082l0.122,0.079c0.106,0.083 0.106,0.083 0.211,0.167l0.11,0.088l0.099,0.088l0.106,0.076c0.038,0.028 0.077,0.055 0.115,0.083c0.04,0.031 0.182,0.145 0.221,0.177c0.034,0.029 0.068,0.06 0.102,0.09l0.107,0.086l0.102,0.091c0.241,0.193 0.53,0.424 0.53,0.424l0.109,0.079c0.037,0.037 0.036,0.038 0.067,0.08l0.111,0.063l0.106,0.086l0.108,0.085l0.109,0.089l0.103,0.091l0.106,0.086c0,0 0.148,0.126 0.314,0.26c0.109,0.088 0.109,0.088 0.214,0.182l0.1,0.088l0.114,0.094l0.095,0.093l0.099,0.088c0.104,0.093 0.104,0.093 0.202,0.191l0.099,0.089c0.121,0.11 0.234,0.223 0.297,0.286l0.101,0.092l0.097,0.095l0.101,0.092l0.399,0.367l0.099,0.088l0.115,0.094l0.095,0.093l0.099,0.088c0.1,0.09 0.1,0.09 0.206,0.175l0.105,0.094l0.1,0.091l0.1,0.088l0.106,0.086l0.106,0.093l0.099,0.089l0.106,0.086c0.101,0.089 0.101,0.089 0.201,0.179l0.11,0.078c0.109,0.089 0.109,0.089 0.215,0.182l0.103,0.084l0.107,0.084l0.103,0.081l0.115,0.076l0.108,0.084l0.116,0.074l0.114,0.083c0.112,0.079 0.226,0.152 0.344,0.219l0.117,0.075l0.123,0.069l0.116,0.072l0.124,0.064l0.121,0.066c0.19,0.086 0.296,0.129 0.4,0.17l0.129,0.063c0.13,0.05 0.13,0.05 0.263,0.091l0.134,0.055c0,0 0.398,0.106 0.694,0.148l0.151,0.046c0.084,-0.063 0.2,-0.094 0.292,-0.03c0.08,0.055 0.178,0.196 0.178,0.196l0.107,0.085l0.1,0.088c0.107,0.076 0.107,0.076 0.218,0.147l0.116,0.075c0.104,0.065 0.125,0.08 0.233,0.138c0.112,0.061 0.379,0.198 0.379,0.198c0.126,0.063 0.126,0.063 0.255,0.121l0.132,0.065l0.121,0.06l0.139,0.048l0.138,0.058l0.131,0.051l0.136,0.042l0.144,0.048l0.15,0.043l0.144,0.048l0.15,0.043l0.145,0.048c0.149,0.042 0.149,0.042 0.299,0.079l0.15,0.042l0.159,0.039l0.147,0.049c0.099,0.028 0.198,0.056 0.297,0.085l0.153,0.043c0.144,0.048 0.144,0.048 0.285,0.102l0.168,0.044l0.13,0.056l0.14,0.048l0.14,0.052l0.145,0.049l0.142,0.054l0.137,0.051l0.141,0.064l0.13,0.065l0.122,0.058l0.134,0.063l0.129,0.068c0.065,0.052 0.118,0.142 0.118,0.142l0.097,0.071l0.065,0.113l0.072,0.113l0.077,0.114l0.368,0.637c0.037,0.13 0.089,0.316 0.089,0.316l0.025,0.141l0.054,0.144l0.036,0.149l0.043,0.13l0.064,0.138l0.038,0.133l0.062,0.111l0.065,0.13l0.066,0.123l0.069,0.123l0.066,0.124c0.152,0.253 0.299,0.432 0.583,0.672c0.104,0.088 0.104,0.088 0.213,0.17l0.098,0.088c0.163,0.109 0.436,0.291 0.698,0.414c0.112,0.053 0.149,0.064 0.266,0.11l0.134,0.059c0.043,0.016 0.212,0.082 0.26,0.096c0.048,0.015 0.099,0.024 0.148,0.036l0.148,0.038l0.146,0.042l0.157,0.031l0.178,0.001c0.066,-0.01 0.207,0.054 0.207,0.054c0.163,0.003 0.268,0.139 0.268,0.139c0.134,0.037 0.179,0.169 0.062,0.286c0,0 -0.044,0.142 -0.21,0.169c-0.02,0.003 -0.039,0.003 -0.059,0.003l-0.273,-0.048l-0.173,0.059l-0.22,0.012l-0.191,-0.024l-0.186,-0.023c-0.142,-0.007 -0.31,0.006 -0.469,0.091l-0.211,0.093l-0.184,0.039c-0.124,-0.002 -0.123,-0.015 -0.244,-0.044l-0.17,-0.017c-0.137,0.005 -0.138,-0.002 -0.27,0.038l-0.122,0.14l-0.063,0.018c-0.126,-0.021 -0.122,-0.035 -0.241,-0.083l-0.085,-0.09c0,0 -0.052,-0.012 0.084,-0.251l-0.093,0.022c-0.044,0.004 -0.044,0.004 -0.087,-0.005l-0.184,-0.068c-0.114,-0.053 -0.229,-0.107 -0.344,-0.161l-0.185,-0.044c0,0 -0.006,0.141 -0.113,0.181c-0.109,0.041 -0.109,0.043 -0.212,0.052l-0.061,-0.022c-0.081,-0.082 -0.072,-0.088 -0.133,-0.185l-0.104,-0.087c-0.146,-0.05 -0.148,-0.046 -0.302,-0.048c0,0 -0.027,0.041 -0.193,-0.145l-0.001,0.201l-0.175,0.201l-0.148,0.122l-0.194,0.148l-0.209,-0.008l-0.12,0.055l-0.196,0.134l-0.278,0.038l-0.201,-0.089l-0.148,-0.123c-0.056,-0.065 -0.071,-0.18 -0.077,-0.211l-0.04,-0.073l-0.067,-0.017l-0.104,0.043c-0.107,0.106 -0.103,0.11 -0.171,0.245l-0.092,0.077l-0.139,-0.006c0,0 0.11,0.153 -0.037,0.253c-0.042,0.029 -0.109,0.097 -0.238,0.042c0,0 0.069,0.171 0.069,0.171c0.025,0.089 0.042,0.054 0.014,0.239l-0.122,0.096c0,0 -0.137,0.202 -0.357,0.205l-0.012,0.263c-0.037,0.107 -0.027,0.112 -0.086,0.21l-0.109,0.048l-0.16,-0.055c0,0 -0.104,0.089 -0.196,0.073c-0.039,-0.007 -0.082,-0.037 -0.113,-0.056c0,0 0.03,0.016 -0.138,0.202l-0.225,0.093c0,0 0.116,0.071 -0.085,0.327l-0.014,0.126c-0.025,0.084 0.008,0.066 -0.113,0.215l-0.121,0.031l-0.059,-0.025c-0.081,-0.089 -0.072,-0.096 -0.132,-0.2l-0.037,-0.114l-0.228,-0.034l-0.117,0.064c-0.038,0.014 -0.039,0.014 -0.079,0.018l-0.157,-0.008c-0.147,0.067 -0.146,0.069 -0.28,0.158c0,0 -0.084,0.046 -0.184,-0.009c0,0 0.017,0.104 -0.039,0.163c-0.029,0.031 -0.082,0.05 -0.118,0.066l0.064,0.107c0.018,0.049 0.018,0.049 0.018,0.101l-0.027,0.164c-0.048,0.131 -0.211,0.111 -0.351,0.042c0,0 -0.223,-0.011 -0.223,-0.011c0,0 -0.077,0.352 -0.301,0.271l-0.19,-0.096l-0.021,0.224c-0.018,0.031 -0.03,0.067 -0.116,0.098l-0.157,0.029c-0.099,-0.001 -0.222,-0.093 -0.24,-0.104c0,0 -0.108,0.168 -0.211,0.194l0.018,0.164l-0.09,0.081c-0.122,0.014 -0.122,0.001 -0.244,-0.011l-0.173,-0.005c-0.146,0.024 -0.147,0.021 -0.285,0.073l-0.111,0.127l-0.188,0.166l-0.224,0.005l-0.162,0.047c-0.12,0.028 -0.118,0.041 -0.241,0.044l-0.105,-0.061c-0.078,0.06 -0.121,0.146 -0.271,0.106l-0.179,-0.086l-0.127,-0.084c-0.369,-0.02 -0.212,0.061 -0.212,0.061l0.081,0.236c-0.045,0.21 -0.287,0.207 -0.287,0.207c-0.045,-0.003 -0.045,-0.003 -0.087,-0.02l-0.142,-0.083l-0.108,-0.024l-0.131,0.054l-0.216,0.093l-0.255,0.016l-0.195,-0.071l-0.129,-0.064c-0.132,0.023 -0.13,0.034 -0.244,0.104l-0.283,0.079l-0.19,-0.035c-0.042,-0.015 -0.043,-0.015 -0.079,-0.042l-0.124,-0.125c-0.029,-0.041 -0.029,-0.041 -0.043,-0.09l-0.016,-0.162l-0.209,0.11l-0.243,0.077l-0.251,-0.125c-0.028,-0.039 -0.028,-0.04 -0.041,-0.085l-0.025,-0.228l0.014,-0.122l-0.156,-0.062l-0.122,0.011c0,0 -0.06,0.064 -0.044,0.137c0.022,0.104 0.056,0.196 0.229,0.459l0.102,0.197l0.027,0.191c-0.007,0.187 -0.318,0.211 -0.318,0.211l-0.182,-0.043l-0.151,-0.025l-0.127,0.037l-0.136,0.096l-0.21,0.118l-0.19,0.035c-0.194,0.035 -0.194,0.035 -0.389,0.06l-0.262,-0.035l-0.204,-0.078l-0.19,-0.116l-0.127,-0.116l-0.2,-0.115c0,0 -0.095,-0.185 -0.062,-0.283c0.074,-0.223 -0.039,-0.15 -0.039,-0.15l-0.114,0.062c-0.032,0.021 -0.254,0.167 -0.288,0.198c-0.102,0.096 -0.089,0.216 -0.089,0.216c0.058,0.158 0.059,0.157 0.129,0.31l0.055,0.255c-0.015,0.071 -0.019,0.069 -0.044,0.136c0,0 0.147,0.051 0.045,0.361l-0.055,0.075l-0.157,0.112l-0.228,0.139l-0.234,0.013l-0.184,-0.056c-0.032,-0.014 -0.032,-0.014 -0.059,-0.035l-0.133,-0.125c-0.026,-0.034 -0.026,-0.034 -0.042,-0.074l-0.052,-0.149l-0.257,0.161l-0.273,-0.016l-0.182,-0.053c-0.044,-0.022 -0.044,-0.022 -0.079,-0.056l-0.129,-0.2l0.068,-0.315l-0.115,-0.065c0,0 0.023,0.013 -0.042,0.11l-0.116,0.128l-0.083,0.152l-0.121,0.201l-0.141,0.134l-0.144,0.131l-0.11,0.099l-0.095,0.225l-0.165,0.11l-0.175,0.086l-0.226,0.093c-0.114,0.007 -0.227,0.015 -0.34,0.022l-0.075,0.057l-0.089,0.191l-0.114,0.043l-0.211,-0.014l-0.188,-0.042l-0.232,-0.06l-0.161,-0.095c-0.041,-0.033 -0.064,-0.076 -0.083,-0.114l-0.269,0.025l-0.21,0.016c-0.086,-0.04 -0.095,-0.079 -0.11,-0.112l-0.043,-0.247l0.022,-0.048c-0.131,0.008 -0.13,0.018 -0.248,0.075c0,0 -0.047,0.025 -0.103,0.01c-0.047,-0.012 -0.13,-0.079 -0.153,-0.094l-0.176,0.009l-0.172,-0.046l-0.131,-0.047l-0.151,0.017c-0.044,-0.002 -0.044,-0.002 -0.087,-0.017l-0.14,-0.074c-0.173,-0.016 -0.173,-0.016 -0.345,-0.03c0,0 -0.051,-0.003 -0.092,-0.042c-0.032,-0.031 -0.065,-0.113 -0.079,-0.141l-0.263,0.049l-0.244,-0.042l-0.165,-0.1c-0.028,-0.023 -0.05,-0.049 -0.068,-0.085l-0.111,0.191l-0.172,0.174l-0.058,0.014c-0.114,-0.018 -0.111,-0.029 -0.219,-0.069c0,0 -0.06,-0.005 -0.097,-0.122l-0.021,-0.169c-0.047,-0.118 -0.041,-0.122 -0.12,-0.221l-0.183,-0.077l-0.15,-0.126c-0.142,-0.133 -0.142,-0.133 -0.281,-0.268l-0.095,-0.308l0.019,-0.19l-0.108,0.023c-0.085,0.004 -0.109,-0.02 -0.135,-0.038l-0.133,-0.126c-0.112,-0.154 0.089,-0.334 0.089,-0.334c0.046,-0.043 0.107,-0.06 0.173,-0.053l-0.168,-0.12l-0.156,-0.108l-0.144,-0.102l-0.145,-0.187l-0.078,-0.199l-0.028,-0.127l-0.088,-0.056l-0.15,-0.066l-0.136,-0.067c-0.061,0.004 -0.243,0.014 -0.297,0.03c-0.064,0.021 -0.329,0.181 -0.329,0.181l-0.246,0.073l-0.19,-0.024c-0.172,-0.021 -0.172,-0.021 -0.345,-0.006c0,0 -0.126,-0.025 -0.208,0.091c-0.082,0.116 -0.174,0.336 -0.174,0.336l-0.102,0.142l-0.06,0.147l-0.062,0.204c-0.034,0.036 -0.034,0.036 -0.078,0.059l-0.208,0.066l-0.191,0.028l-0.156,0.022l-0.117,0.081l-0.178,0.148l-0.158,0.068l-0.121,0.084l-0.148,0.167l-0.156,0.094l-0.133,0.105l-0.13,0.136l-0.093,0.082c0.02,0.342 0.162,0.1 -0.054,0.487l-0.077,0.067l-0.173,0.065l-0.134,0.059l0.028,0.063c0.134,0.092 0.135,0.09 0.278,0.168l0.062,0.064l0.086,0.168c0.009,0.028 0.025,0.055 0.002,0.132l-0.08,0.168c-0.156,0.207 -0.08,0.117 -0.08,0.117l0.141,0.131c0.041,0.057 0.05,0.122 0.016,0.193l-0.11,0.155c-0.105,0.159 -0.105,0.159 -0.209,0.319l-0.204,0.173l-0.14,0.067l-0.09,0.122c-0.034,0.033 -0.034,0.033 -0.077,0.054l-0.19,0.056l-0.152,0.016l-0.184,0.096c-0.052,-0.001 -0.053,-0.001 -0.102,-0.02l-0.194,-0.126l-0.138,-0.161l-0.09,-0.137c-0.089,-0.063 -0.087,-0.067 -0.184,-0.117l-0.11,0.079l-0.157,0.06l0.14,0.273c-0.01,0.1 -0.018,0.098 -0.047,0.194l0.049,0.142l0.046,0.186c0.005,0.035 0.005,0.035 0.001,0.07l-0.041,0.178c-0.047,0.102 -0.056,0.097 -0.123,0.187l-0.063,0.187l-0.121,0.204l-0.144,0.134l-0.145,0.117l-0.105,0.117c-0.095,0.203 -0.178,0.517 -0.178,0.517l-0.09,0.203l-0.095,0.131l-0.039,0.159c-0.047,0.1 -0.056,0.095 -0.121,0.184l-0.057,0.192l-0.112,0.198l-0.131,0.141l-0.065,0.066l0.106,0.026l0.173,0.066c0.079,0.048 0.084,0.086 0.095,0.12l0.025,0.187l0.014,0.129l0.202,0.118l0.128,0.062c0.09,0.068 0.082,0.192 0.08,0.305l0.026,0.082l0.13,0.043c0.108,0.058 0.115,0.048 0.209,0.127c0,0 0.037,0.049 0.03,0.118c-0.014,0.127 -0.013,0.128 -0.05,0.223l-0.104,0.162l-0.102,0.16l-0.095,0.161l-0.117,0.206l-0.175,0.154c-0.134,0.029 -0.23,-0.088 -0.259,-0.113l-0.081,-0.019l-0.226,0.025l-0.135,-0.043l-0.232,0.047l-0.163,-0.059c-0.172,-0.021 -0.173,-0.02 -0.346,-0.018l-0.188,0.002l-0.156,0.011l-0.162,0.081l-0.23,0.067l-0.2,-0.093l-0.119,-0.007c-0.054,0.026 -0.235,0.111 -0.281,0.141c-0.031,0.02 -0.055,0.048 -0.082,0.072l-0.039,0.134c-0.014,0.033 -0.014,0.033 -0.035,0.062l-0.121,0.128l-0.135,0.186l-0.234,0.063c-0.045,0.002 -0.046,0.005 -0.089,-0.01l-0.031,0.173l-0.043,0.143l0,0.206l-0.1,0.219l-0.14,0.125l-0.107,0.11l-0.031,0.087l0.026,0.244l-0.081,0.169l-0.094,0.153c-0.022,0.028 -0.023,0.028 -0.051,0.05l-0.142,0.085l-0.126,0.11l-0.161,0.119l-0.16,0.071l-0.175,0.047c-0.101,0.008 -0.173,-0.068 -0.212,-0.112c0,0 -0.06,-0.02 -0.197,0.213c0,0 0.008,0.028 -0.149,0.097l-0.069,0.128c0,0 -0.193,0.122 -0.295,0.045c0,0 -0.1,0.233 -0.269,0.091l-0.02,0.1l-0.058,0.168c-0.031,0.062 -0.121,0.13 -0.134,0.141l-0.034,0.14c-0.08,0.174 -0.34,0.082 -0.34,0.082l-0.19,0.017l-0.249,-0.021l-0.22,-0.116l-0.029,-0.181l-0.037,0.007l-0.044,0.121l-0.113,0.2c-0.063,0.047 -0.183,0.061 -0.204,0.065l-0.072,0.088l-0.152,0.175l-0.204,0.133l-0.143,0.035l-0.109,0.107c-0.042,0.028 -0.042,0.029 -0.091,0.042l-0.214,0.014l-0.173,-0.03l-0.102,0.007l-0.065,0.254l-0.126,0.204l-0.214,0.157l-0.167,0.034c-0.048,0.001 -0.048,0.001 -0.094,-0.012l-0.169,-0.08l-0.144,-0.056l-0.112,0.007c-0.126,0.088 -0.124,0.092 -0.229,0.205l-0.215,0.164c-0.148,0.042 -0.148,0.045 -0.299,0.075c0,0 -0.03,0.411 -0.008,0.795l-0.001,0.026c-0.022,0.194 -0.022,0.194 -0.052,0.387l-0.039,0.196l0.148,0.07l0.188,0.16l0.114,0.251l-0.025,0.221l-0.061,0.183c-0.018,0.036 -0.018,0.037 -0.045,0.067l-0.144,0.123c-0.158,0.093 -0.303,-0.025 -0.438,-0.143l-0.112,-0.019l-0.154,0.043l-0.229,0.049l-0.208,-0.009l-0.188,-0.028c-0.045,-0.013 -0.045,-0.014 -0.083,-0.041l-0.126,-0.122l-0.175,-0.168l-0.067,-0.157c-0.101,-0.134 -0.102,-0.133 -0.224,-0.248l-0.047,-0.113l0.005,-0.193l0.004,-0.172l-0.031,-0.122l-0.081,-0.094l-0.121,-0.059l-0.183,-0.018l-0.22,-0.023c-0.064,0.117 -0.058,0.12 -0.1,0.246l-0.132,0.102l-0.236,0.001l-0.215,-0.097l-0.174,-0.152l-0.094,-0.147c-0.504,-0.485 -0.982,-0.806 -1.477,-1.179l-0.186,-0.148l-0.132,-0.194l-0.069,-0.242l0.022,-0.213l0.06,-0.22l0.092,-0.169l0.086,-0.158c0.044,-0.133 0.087,-0.257 0.061,-0.407l-0.029,-0.018c-0.14,0.047 -0.139,0.051 -0.273,0.113l-0.255,0.035c-0.179,-0.002 -0.179,-0.001 -0.358,-0.014l-0.19,0.07l-0.192,0.014l-0.168,0.012l-0.138,0.06c-0.147,0.105 -0.147,0.105 -0.289,0.217l-0.209,0.122l-0.177,0.058l-0.211,0.125l-0.003,0.049c0.125,0.096 0.276,0.23 0.276,0.23l0.008,0.123l-0.095,0.22c-0.089,0.065 -0.094,0.056 -0.195,0.102l-0.115,0.117c-0.026,0.021 -0.026,0.021 -0.057,0.036l-0.204,0.071l-0.205,0.035l-0.142,0.036l0.028,0.123l0.025,0.254l-0.07,0.092l-0.13,0.075l-0.1,0.155l-0.176,0.161l-0.159,0.069l-0.102,0.081l-0.079,0.166l-0.142,0.188l-0.134,0.098c-0.096,0.144 -0.095,0.144 -0.179,0.295l-0.198,0.17l-0.162,0.105l-0.118,0.075l-0.071,0.181l-0.183,0.183l-0.216,0.1l0.012,0.095l0.027,0.239l-0.073,0.253l-0.122,0.145c-0.106,0.133 -0.106,0.135 -0.172,0.292l-0.107,0.22l-0.158,0.16l-0.16,0.108l-0.204,0.127l-0.239,0.055l-0.238,-0.037c-0.196,-0.137 -0.165,-0.105 -0.165,-0.105l-0.189,0.128l-0.224,0.024l-0.192,-0.02c-0.172,-0.017 -0.173,-0.018 -0.345,0.006l-0.256,-0.001c-0.048,-0.027 -0.048,-0.028 -0.083,-0.071l-0.097,-0.186l-0.072,-0.147l-0.1,0.058l-0.198,0.091l-0.199,0.055l-0.224,0.036l-0.239,-0.021l-0.181,-0.072l-0.221,-0.107l-0.158,-0.154l-0.105,-0.148l-0.087,-0.09c-0.13,-0.02 -0.265,-0.032 -0.404,0.009l-0.1,0.108c-0.028,0.023 -0.028,0.023 -0.059,0.039l-0.196,0.069l-0.187,0.046c-0.193,0.047 -0.193,0.047 -0.388,0.08l-0.234,-0.022l-0.15,-0.017l-0.18,0.074l-0.239,0.022l-0.199,-0.042l-0.167,-0.053c-0.34,-0.029 -0.701,-0.1 -0.898,-0.059c-0.137,0.028 -0.319,0.161 -0.319,0.161l-0.242,0.078l-0.199,0.013l-0.03,0.121l-0.043,0.152l0.028,0.152c0.039,0.181 0.083,0.43 0.083,0.43l-0.037,0.215c-0.057,0.158 -0.141,0.383 -0.141,0.383l-0.091,0.17l-0.091,0.167l-0.07,0.143l-0.005,0.094l0.051,0.053l0.172,0.046l0.204,0.1l0.147,0.116c0.023,0.027 0.053,0.051 0.054,0.143l-0.036,0.202c-0.056,0.185 -0.113,0.369 -0.169,0.553l-0.055,0.179l-0.032,0.244l0.104,0.054l0.157,0.099c0.033,0.029 0.033,0.029 0.056,0.065l0.09,0.213l0.033,0.191c0.058,0.432 0.116,0.904 0.133,1.146l0.046,0.156l0.075,0.166l0.088,0.2l0.05,0.191l0.038,0.223l-0.024,0.27l-0.114,0.18l-0.122,0.149l-0.098,0.119l-0.021,0.095c0.052,0.102 0.054,0.102 0.139,0.18l0.166,0.04l0.177,0.062c0.027,0.015 0.058,0.023 0.093,0.098l0.058,0.198c0.023,0.126 0.045,0.253 0.067,0.38c0.034,0.193 0.034,0.193 0.059,0.387l-0.001,0.233l-0.044,0.24l-0.137,0.217l-0.161,0.106l-0.157,0.103l-0.149,0.113l-0.191,0.14c-0.102,0.038 -0.504,0.037 -0.504,0.037l-0.163,-0.108c-0.105,-0.077 -0.21,-0.153 -0.314,-0.23l-0.15,-0.111c-0.159,-0.096 -0.159,-0.096 -0.322,-0.184l-0.132,-0.072c-0.141,0.01 -0.141,0.018 -0.27,0.078l-0.025,0.009c-0.182,0.048 -0.181,0.048 -0.366,0.084l-0.123,0.057c-0.095,0.121 -0.092,0.124 -0.156,0.265l-0.056,0.064l-0.164,0.104l-0.171,0.092l-0.197,0.144l0.027,0.095c0.006,0.043 0.006,0.043 0,0.086l-0.054,0.175l-0.049,0.23l-0.074,0.129l-0.015,0.198l-0.083,0.196l-0.098,0.16l-0.066,0.129l0.005,0.127c0.062,0.159 0.142,0.38 0.142,0.38l0.006,0.181c-0.031,0.077 -0.036,0.075 -0.079,0.146l-0.012,0.143c-0.02,0.075 -0.07,0.12 -0.104,0.153l0.041,0.097l0.037,0.158l0.114,0.194l0.025,0.205c-0.014,0.044 -0.014,0.044 -0.04,0.082l-0.148,0.151l-0.151,0.123l-0.152,0.115l-0.123,0.106c-0.025,0.041 -0.056,0.078 -0.073,0.123c-0.036,0.093 -0.087,0.403 -0.087,0.403c-0.078,0.078 -0.085,0.07 -0.178,0.13l-0.114,0.1l-0.103,0.154c-0.093,0.047 -0.247,0.015 -0.271,0.012l-0.108,0.021l-0.129,0.115l-0.198,0.126c-0.063,0.009 -0.119,-0.01 -0.157,-0.021l-0.078,0.235c-0.036,0.037 -0.036,0.037 -0.082,0.06l-0.205,0.056l-0.192,0.024c-0.037,0 -0.037,0 -0.073,-0.009l-0.173,-0.068c-0.09,-0.056 -0.084,-0.064 -0.162,-0.135l-0.13,-0.036c-0.202,-0.015 -0.371,-0.017 -0.733,-0.008l-0.189,-0.003c-0.893,0.069 -1.788,0.146 -2.683,0.22l-0.193,0.016l-0.212,0.012c-0.194,-0.011 -0.194,-0.011 -0.388,-0.029l-0.252,-0.085c-0.252,-0.268 -0.024,-0.435 0.041,-0.481c0,0 0.081,-0.129 0.081,-0.129c-0.108,-0.015 -0.208,-0.055 -0.293,-0.109l-0.128,-0.059l-0.153,-0.09l-0.094,-0.089l-0.103,-0.082c-0.051,-0.056 -0.048,-0.059 -0.09,-0.122l-0.096,-0.11l-0.081,-0.121l-0.067,-0.119l-0.087,-0.115l-0.072,-0.121c-0.047,-0.118 0.019,-0.267 0.111,-0.316c0.034,-0.019 0.106,-0.051 0.106,-0.051l-0.151,0c-0.07,-0.039 -0.067,-0.043 -0.128,-0.095c0,0 -0.186,-0.075 -0.241,-0.139l-0.151,0.061l-0.135,-0.033c-0.092,-0.002 -0.139,-0.052 -0.139,-0.052l-0.165,0.039c-0.116,0.044 -0.141,0.024 -0.187,0.005c-0.144,-0.059 -0.117,-0.29 -0.065,-0.43l-0.011,-0.301l-0.05,-0.067c-0.015,-0.087 -0.009,-0.087 -0.009,-0.176l-0.035,-0.111l-0.039,-0.15l-0.049,-0.139l-0.045,-0.14l-0.054,-0.121l-0.065,-0.13l-0.056,-0.127c-0.066,-0.105 -0.067,-0.105 -0.145,-0.203c0,0 -0.04,0.008 -0.021,-0.244l0.012,-0.048l-0.075,-0.094l-0.083,-0.11l-0.082,-0.102c-0.152,-0.171 -0.177,-0.145 -0.177,-0.145l-0.138,-0.108c-0.182,-0.098 -0.404,-0.108 -0.404,-0.108c-0.179,-0.085 -0.169,-0.141 -0.169,-0.141c-0.005,-0.216 0.036,-0.244 0.036,-0.244l0.068,-0.184l0.091,-0.126c0.177,-0.198 0.207,-0.152 0.207,-0.152l0.091,0.003l0.167,-0.071c0.043,-0.045 0.146,-0.23 0.314,0.158l0.058,0.133c0.083,0.307 0.084,0.206 0.084,0.206c0.138,-0.314 0.004,-0.176 0.165,-0.321l0.14,-0.281l-0.019,-0.052c0,0 -0.069,-0.103 -0.069,-0.103l-0.073,-0.148l-0.131,-0.116l-0.03,-0.275c0.01,-0.041 0.025,-0.224 0.187,-0.242l0.156,0.01l0.245,0.011l-0.006,-0.259l0.034,-0.149l0.028,-0.129l-0.14,-0.068l-0.048,-0.07c0,0 -0.166,-0.024 -0.197,-0.179l-0.066,-0.009c0,0 -0.002,0.046 -0.033,0.089c-0.045,0.062 -0.175,0.153 -0.175,0.153c-0.032,0.031 -0.031,0.033 -0.068,0.057l-0.05,0.129l0.043,0.127c0.02,0.068 0.051,0.136 0.047,0.201c-0.008,0.124 -0.007,0.125 -0.041,0.223c0,0 0.014,0.05 -0.201,0.136l-0.062,-0.003c-0.256,-0.066 -0.24,-0.085 -0.24,-0.085c0,0 0.032,0.069 -0.238,0.135l-0.056,-0.01c0,0 -0.118,0.143 -0.193,0.176c-0.184,0.082 -0.625,-0.103 -0.625,-0.103l-0.13,-0.058c-0.056,-0.037 -0.104,-0.04 -0.113,-0.256l-0.18,-0.057l-0.053,-0.139c-0.106,-0.035 -0.108,-0.032 -0.22,-0.024c0,0 -0.034,0.023 -0.172,-0.085c0,0 -0.063,0.016 -0.219,0.127c0,0 -0.088,0.046 -0.165,0.007c-0.044,-0.024 -0.179,-0.097 -0.165,-0.205c0.017,-0.126 0.155,-0.301 0.155,-0.301c0.038,-0.052 0.058,-0.059 0.058,-0.059c-0.125,-0.112 -0.356,-0.155 -0.356,-0.155c-0.062,-0.058 -0.12,-0.08 -0.03,-0.334l0.122,-0.102l-0.025,-0.066c-0.017,-0.086 -0.037,-0.057 -0.003,-0.244l-0.005,-0.239l-0.157,0.07c0,0 0.026,0.029 -0.164,0.137l-0.056,0.128l0.148,0.311c0.004,0.096 -0.075,0.404 -0.075,0.404c-0.097,0.105 0.001,0.017 -0.112,0.322l-0.158,0.067l-0.09,-0.019l-0.082,0.14l-0.027,0.132c-0.029,0.074 -0.027,0.132 -0.295,0.17l-0.06,-0.017c0,0 -0.026,0.044 -0.08,0.061c-0.103,0.033 -0.311,0.044 -0.311,0.044c0,0 -0.036,0.088 -0.115,0.108c-0.146,0.038 -0.323,0.049 -0.323,0.049l-0.264,0.046l-0.114,-0.052l-0.042,-0.101l-0.124,-0.094l-0.084,-0.097l-0.15,-0.128l-0.152,0.005l-0.187,-0.049l-0.111,-0.045c-0.084,-0.039 -0.072,-0.005 -0.206,-0.148l-0.025,-0.136c0,0 -0.054,-0.008 -0.118,-0.079l-0.092,-0.159l0.034,-0.122l0.052,-0.039c0.111,-0.023 0.112,-0.013 0.225,-0.011l0.093,-0.037l0.112,-0.17c0.097,-0.041 0.1,-0.032 0.204,-0.051l0.104,-0.082l0.188,-0.131l0.187,-0.072l0.131,-0.022l0.127,-0.086c0.072,-0.033 0.19,-0.023 0.214,-0.022l0.034,-0.036c0.034,-0.141 0.034,-0.141 0.063,-0.282l-0.054,-0.161l-0.04,-0.189c0.001,-0.109 0.01,-0.108 0.035,-0.215c0,0 0.049,-0.089 -0.251,-0.105l-0.143,-0.016c-0.039,-0.009 -0.039,-0.01 -0.077,-0.023c0,0 -0.064,0.107 -0.213,0.094l-0.169,-0.041l-0.207,-0.028c-0.04,-0.025 -0.04,-0.025 -0.07,-0.062l-0.096,-0.166l-0.062,-0.134c-0.031,-0.109 0.039,-0.199 0.056,-0.23l-0.04,-0.114c-0.008,-0.04 -0.008,-0.04 -0.006,-0.081l0.038,-0.179l0.027,-0.206c0.051,-0.156 0.111,-0.276 0.209,-0.381l0.082,-0.176l0.125,-0.172l0.104,-0.11c0.034,-0.145 0.026,-0.146 0.022,-0.295l0.016,-0.23l0.049,-0.174c0.007,-0.061 0.038,-0.285 0.036,-0.349c-0.005,-0.169 -0.051,-0.405 -0.051,-0.405l0.044,-0.247l0.122,-0.197c0.086,-0.083 0.171,-0.166 0.257,-0.249l0.091,-0.237l-0.064,-0.084c-0.021,-0.038 -0.021,-0.038 -0.03,-0.081l-0.011,-0.18c0.004,-0.041 0.004,-0.042 0.019,-0.081l0.12,-0.203l0.127,-0.119c0.087,-0.138 0.087,-0.138 0.17,-0.279l0.013,-0.158c0.014,-0.159 0.016,-0.159 0.012,-0.318l-0.05,-0.066l-0.154,-0.058l-0.178,-0.094l-0.205,-0.161l-0.105,-0.219l-0.019,-0.184l-0.029,-0.131l-0.076,-0.07c-0.161,-0.074 -0.161,-0.074 -0.325,-0.14c0,0 -0.11,-0.071 -0.19,-0.13c-0.002,-0.002 -0.239,-0.187 -0.266,-0.207l-0.102,0l-0.195,0.053l-0.236,0.011l-0.2,-0.047l-0.17,-0.057l-0.171,-0.024l-0.187,-0.022l-0.188,-0.029c-0.032,-0.009 -0.032,-0.009 -0.061,-0.024l-0.099,-0.068l-0.169,0.039c-0.164,-0.019 -0.164,-0.018 -0.327,-0.04l-0.115,0.07l-0.216,0.128c-0.2,-0.008 -0.249,-0.051 -0.404,-0.105l-0.122,-0.006c-0.069,-0.012 -0.068,-0.016 -0.136,-0.035l-0.118,0.061c-0.055,0.029 -0.112,0.055 -0.166,0.086c-0.068,0.039 -0.335,0.211 -0.335,0.211l-0.232,0.098c-0.044,0.002 -0.21,0.035 -0.274,-0.106l-0.047,-0.174c-0.159,-0.355 -0.396,-0.62 -0.612,-0.908l-0.107,-0.172c-0.104,-0.15 -0.105,-0.15 -0.219,-0.293l-0.116,-0.269l-0.003,-0.147l-0.127,-0.006l-0.263,-0.035l-0.127,-0.079l-0.099,-0.004l-0.144,0.077l-0.168,0.069c-0.035,0.009 -0.035,0.009 -0.072,0.01l-0.157,-0.016l-0.109,0.015l-0.114,0.076c-0.115,0.046 -0.012,0.088 -0.387,0.025c0,0 -0.018,0.021 -0.147,-0.107l-0.099,0.008l-0.183,-0.025c-0.076,-0.024 -0.118,-0.077 -0.148,-0.109l-0.128,0.021l-0.009,0.118l-0.033,0.195l-0.043,0.169l0.012,0.169l0.003,0.255c-0.126,0.194 -0.183,0.199 -0.183,0.199l-0.152,0.117l-0.151,0.118c-0.147,0.116 -0.147,0.116 -0.282,0.243c0,0 -0.118,0.079 -0.583,0.225l-0.174,0.058l-0.189,0.049l-0.182,0.054c-0.18,0.056 -0.18,0.056 -0.356,0.124l-0.185,0.064l-0.221,0.07l-0.273,-0.016l-0.156,-0.113l-0.141,-0.101l-0.12,-0.046c-0.117,0.009 -0.234,0.018 -0.351,0.027c-0.036,0.003 -0.308,0.022 -0.354,0.034c-0.041,0.011 -0.077,0.035 -0.115,0.053l-0.125,0.153l-0.145,0.106c-0.043,0.022 -0.044,0.023 -0.092,0.029l-0.258,-0.01l-0.081,0.146c-0.238,0.073 -0.255,0.029 -0.255,0.029l-0.191,-0.086l-0.3,-0.069l-0.06,-0.107l-0.018,-0.19l-0.004,-0.158l-0.07,-0.142c-0.081,-0.159 -0.188,-0.383 -0.188,-0.383l-0.036,-0.201l-0.001,-0.194l0.037,-0.214l0.079,-0.203l0.092,-0.151c0,0 0.058,-0.087 -0.015,-0.161c-0.163,-0.167 -0.316,-0.254 -0.535,-0.255c-0.043,0 -0.332,0.048 -0.361,0.052l-0.193,0.018c-0.08,-0.005 -0.099,-0.028 -0.122,-0.046l-0.148,-0.159l-0.094,-0.154c-0.08,-0.091 -0.074,-0.099 -0.178,-0.163l-0.102,0.04c-0.044,0.01 -0.044,0.01 -0.089,0.007l-0.231,-0.066l-0.155,-0.115l-0.122,-0.091l-0.101,-0.011l-0.141,0.064l-0.209,0.047c-0.075,-0.011 -0.074,-0.015 -0.147,-0.036l-0.101,0.07c-0.045,0.021 -0.046,0.021 -0.096,0.026l-0.177,-0.012c-0.038,-0.008 -0.038,-0.008 -0.072,-0.025l-0.162,-0.108l-0.147,-0.128c-0.002,-0.003 -0.284,-0.269 -0.285,-0.27c-0.349,-0.349 -0.235,-0.286 -0.357,-0.492l-0.1,-0.144c-0.021,-0.023 -0.186,-0.201 -0.224,-0.228c-0.12,-0.081 -0.285,-0.012 -0.432,0.015l-0.194,0.037l-0.2,0.025l-0.229,0.014l-0.26,-0.059l-0.186,-0.164l-0.099,-0.189l-0.064,-0.177c-0.075,-0.172 -0.18,-0.394 -0.344,-0.66l-0.113,-0.188c-0.047,-0.12 -0.093,-0.24 -0.14,-0.36l-0.058,-0.149l-0.081,-0.079l-0.162,-0.043c-0.186,-0.068 -0.186,-0.068 -0.366,-0.151l-0.154,-0.157l-0.095,-0.039l-0.16,0.011l-0.199,0.005c-0.191,-0.003 -0.449,-0.02 -0.449,-0.02l-0.185,-0.087l-0.151,-0.093l-0.15,-0.09c-0.095,-0.082 -0.046,-0.224 -0.024,-0.28c0,0 -0.127,-0.21 -0.244,-0.398l-0.131,-0.089c-0.108,-0.069 -0.216,-0.139 -0.323,-0.208l-0.188,-0.127l-0.153,-0.177l-0.009,-0.062c0.03,-0.104 0.039,-0.1 0.09,-0.195l0.008,-0.135c-0.021,-0.149 -0.019,-0.151 -0.073,-0.292l-0.095,-0.093c-0.133,-0.075 -0.136,-0.072 -0.286,-0.096c0,0 -0.227,-0.097 -0.389,-0.171l-0.183,-0.081l-0.108,-0.07c-0.155,0.03 -0.154,0.033 -0.306,0.075l-0.195,0.045c-0.199,0.033 -0.199,0.033 -0.4,0.049l-0.014,0c-0.198,-0.003 -0.198,-0.003 -0.395,-0.02l-0.234,-0.057l-0.21,-0.096l-0.162,-0.129l-0.122,-0.118l-0.142,-0.124c-0.277,-0.241 -0.508,-0.257 -0.79,-0.275l-0.199,-0.012c-0.522,-0.08 -1.066,-0.277 -1.334,-0.417c-0.437,-0.229 -0.31,-0.202 -0.492,-0.36l-0.133,-0.256c-0.007,-0.128 -0.013,-0.257 -0.019,-0.385l-0.002,-0.247c0.023,-0.071 0.037,-0.149 0.081,-0.202c0.084,-0.1 0.084,-0.1 0.166,-0.158l0.179,-0.079l0.18,-0.07l0.152,-0.065l0.13,-0.101l0.106,-0.077l0.042,-0.119l0.116,-0.2l0.14,-0.104l0.083,-0.103l0.067,-0.202l0.138,-0.181l0.149,-0.123l0.124,-0.103l0.072,-0.131l0.101,-0.226l0.171,-0.15l0.2,-0.106l0.24,-0.053l0.216,0.029c0.122,0.039 0.245,0.079 0.367,0.118c0.068,0.022 0.266,0.09 0.343,0.1c0.076,0.011 0.154,-0.001 0.231,-0.021c0.029,-0.097 0.058,-0.193 0.086,-0.29l0.049,-0.161l-0.004,-0.166c-0.014,-0.239 -0.039,-0.401 -0.07,-0.552l-0.032,-0.199l-0.007,-0.257l0.066,-0.196c0.106,-0.23 0.236,-0.447 0.362,-0.666l0.025,-0.059l-0.382,-0.21l-0.151,-0.102c-0.062,-0.058 -0.061,-0.091 -0.066,-0.122l-0.003,-0.193c-0.001,-0.062 0.001,-0.124 -0.003,-0.185c-0.005,-0.068 -0.034,-0.264 -0.044,-0.338l-0.073,-0.113c-0.134,-0.131 -0.268,-0.263 -0.401,-0.394l-0.152,-0.153l-0.116,-0.155l-0.115,-0.156l-0.124,-0.173l-0.107,-0.217l-0.026,-0.191l-0.027,-0.213c0.002,-0.198 0.003,-0.198 0.02,-0.395l0.034,-0.083l0.162,-0.174l0.169,-0.086l0.167,-0.092l0.145,-0.075c0.095,-0.12 0.091,-0.123 0.148,-0.265c0,0 -0.022,-0.024 0.12,-0.17l0.07,-0.025l0.014,-0.235c0.032,-0.077 0.127,-0.143 0.151,-0.162c0.029,-0.141 0.073,-0.342 0.073,-0.342l0.044,-0.152c0,0 -0.055,-0.002 -0.128,-0.064l-0.111,-0.123c-0.1,-0.107 -0.101,-0.107 -0.218,-0.194l-0.055,-0.163l0.079,-0.232l0.089,-0.114l0.034,-0.202l0.091,-0.173l0.099,-0.159l0.079,-0.18l0.091,-0.161c0.024,-0.031 0.024,-0.031 0.055,-0.055l0.18,-0.104c0.12,-0.045 0.241,-0.091 0.361,-0.137l0.181,-0.069l0.183,-0.067c0.305,-0.104 0.61,-0.208 0.915,-0.311l0.18,-0.061c0.42,-0.16 0.838,-0.323 1.257,-0.484l0.176,-0.068l0.15,-0.069c0.484,-0.413 0.967,-0.826 1.451,-1.239l0.148,-0.126c0.299,-0.244 0.599,-0.488 0.898,-0.732l0.196,-0.147l0.17,-0.058l0.163,-0.081c0.168,-0.086 0.168,-0.086 0.332,-0.179c0.333,-0.194 0.666,-0.388 0.999,-0.583c0.164,-0.096 0.163,-0.096 0.323,-0.198l0.166,-0.106c0.112,-0.064 0.225,-0.129 0.337,-0.194l0.151,-0.087l0.106,-0.101c0.2,-0.164 0.399,-0.329 0.598,-0.494c0.144,-0.119 0.144,-0.119 0.278,-0.247c0.18,-0.183 0.36,-0.366 0.54,-0.549l0.157,-0.156c0.162,-0.111 0.162,-0.111 0.33,-0.214l0.205,-0.028c0.135,-0.072 0.132,-0.078 0.238,-0.188l0.147,-0.133l0.144,-0.13l0.147,-0.129c0.742,-0.617 1.484,-1.234 2.225,-1.852c0.15,-0.125 0.15,-0.125 0.304,-0.245c0.256,-0.195 0.512,-0.391 0.768,-0.586l0.149,-0.113l0.133,-0.117c0.122,-0.141 0.122,-0.141 0.241,-0.284l0.121,-0.143c0.058,-0.08 0.102,-0.105 0.259,-0.422l-0.018,-0.145c0.008,-0.103 0.111,-0.217 0.126,-0.237c0.077,-0.1 0.068,-0.109 0.164,-0.189l0.126,-0.005l0.128,0.117l0.224,-0.04l0.106,-0.099c0.032,-0.022 0.033,-0.022 0.069,-0.036l0.218,-0.046l0.144,0.001c0.107,-0.059 0.189,-0.124 0.241,-0.229l0.007,-0.109l-0.105,-0.164c-0.011,-0.203 0.276,-0.229 0.276,-0.229l0.217,-0.018l0.241,0.044l0.11,0.084l0.105,0.084l0.101,0.071l0.13,0.087l0.196,0.156c0.409,0.26 0.441,0.252 0.591,0.262c0.111,0.008 0.154,-0.014 0.259,-0.043l0.241,-0.063l0.144,-0.182l0.087,-0.098c0,0 -0.126,-0.09 -0.078,-0.206c0.024,-0.057 0.197,-0.274 0.197,-0.274l0.18,-0.102l0.171,-0.043l0.051,-0.104l0.076,-0.117c0.025,-0.03 0.025,-0.03 0.057,-0.052l0.143,-0.072l0.113,-0.043c0.092,-0.052 0.093,-0.05 0.174,-0.115l0.037,-0.14c-0.082,-0.182 -0.052,-0.255 0.11,-0.285c0,0 0.239,-0.045 0.271,-0.047l0.145,-0.021l0.183,-0.016l0.162,0.01l0.132,-0.008l0.226,-0.111l0.089,-0.044l0.093,-0.123l0.061,-0.023c0.146,-0.02 0.145,-0.021 0.292,-0.032l0.195,-0.096l0.177,-0.124l0.06,-0.147l-0.036,-0.049l-0.187,-0.045l-0.201,-0.019l-0.154,-0.098c0,0 -0.05,-0.322 0.151,-0.479c0.101,-0.078 0.185,-0.107 0.185,-0.107l0.181,-0.017l0.174,0.001l0.171,0.006l0.167,0.021l0.134,0.009c0.154,-0.037 0.272,-0.18 0.272,-0.18l0.127,-0.109l0.113,-0.066l0.099,-0.078c0.106,-0.054 0.01,-0.078 0.359,-0.064l0.132,-0.01c0.116,-0.023 0.118,-0.021 0.218,-0.084l0.118,-0.075c0.073,-0.032 0.182,-0.018 0.211,-0.016l0.133,-0.039l0.185,-0.016l0.166,0.016c0.206,0.054 0.205,0.062 0.205,0.062l0.175,0.011l0.145,0.035l0.124,0.013c0.114,-0.003 0.115,0 0.226,-0.029l0.122,-0.18c0.197,-0.173 -0.038,-0.145 0.341,-0.306l0.321,0.055l0.132,0.066l0.123,0.07l0.128,0.064l0.25,0.141c0.169,0.145 -0.038,0.001 0.277,0.139l0.186,0.046l0.086,-0.168c0.067,-0.125 0.254,-0.198 0.254,-0.198c0.062,-0.103 0.236,-0.129 0.236,-0.129l0.315,-0.144l0.108,-0.043c0.406,-0.078 0.066,0.351 0.066,0.351l-0.121,0.108c-0.113,0.073 -0.113,0.073 -0.228,0.142l-0.025,0.03l0.042,0.124c0.101,0.204 0.15,0.263 0.201,0.334l0.072,0.106l0.086,0.092l0.088,0.098l0.284,0.295c0.076,0.053 0.072,0.058 0.138,0.124l0.518,0.423c0.089,0.065 0.466,0.296 0.466,0.296l0.096,0.068c0.043,-0.002 0.043,-0.002 0.085,0.009l0.123,0.052c0.125,0.041 0.125,0.041 0.251,0.076c0,0 0.248,0.072 0.386,0.074c0.092,0.002 0.185,0.001 0.27,-0.026c0.025,-0.008 0.157,-0.094 0.181,-0.109l0.077,-0.115l0.127,-0.142l0.023,-0.188l0.101,-0.056l0.176,-0.017l0.148,0.005l0.143,-0.009c0.149,-0.03 0.305,-0.193 0.305,-0.193l0.111,-0.108l0.054,-0.086c0,0 -0.026,-0.218 0.144,-0.235c0.086,-0.009 0.283,0.033 0.468,0.099l0.144,0.048c0.084,0.03 0.167,0.06 0.25,0.09l0.159,0.015l0.135,0.037l0.28,0.084l0.166,0.036c0.192,0.064 0.383,0.132 0.575,0.192c0.018,0.005 0.281,0.08 0.297,0.085c0.123,0.035 0.301,0.071 0.301,0.071l0.141,0.047l0.14,0.04l0.149,0.026l0.165,0.033l0.137,0.031l0.153,0.027c0.096,0.018 0.193,0.036 0.29,0.054l0.143,0.026l0.158,0.027l0.153,0.033c0.077,0.026 0.078,0.022 0.078,0.022l0.152,-0.007l0.154,0.016l0.166,0.014c0.224,0.018 0.224,0.011 0.448,0.011l0.238,0.043c0.093,0.026 0.186,0.052 0.279,0.079l0.158,0.031l0.126,0.032l0.142,0.024c0.21,0.014 0.512,-0.009 0.512,-0.009l0.163,0.009c0.145,0.023 0.207,0.066 0.325,0.123l0.133,0.044c0.142,0.041 0.291,0.073 0.458,0.104l0.145,0.034l0.165,0.007c0.165,0.021 0.165,0.021 0.328,0.051l0.151,0.02c0.202,0.01 0.174,0.1 0.517,-0.041l0.145,-0.055c0.08,-0.027 0.079,-0.033 0.163,-0.046l0.145,0l0.156,-0.011l0.167,-0.01l0.153,-0.019l0.142,-0.008c0.126,-0.016 0.129,-0.012 0.241,-0.072l0.201,-0.122l0.13,-0.05l0.108,-0.058c0.209,-0.157 0.195,-0.174 0.195,-0.174l0.154,-0.063l0.16,-0.092l0.142,0.057c0.095,-0.085 0.228,-0.016 0.285,0.022l0.245,0.035l0.152,0.026l0.159,0.032c0.673,0.096 0.531,0.05 0.76,0.046c0.119,-0.002 0.363,0.003 0.601,-0.069l0.159,-0.027l0.1,-0.056c0.213,-0.069 0.228,-0.035 0.228,-0.035l0.167,0.01l0.14,0c0.102,-0.007 0.204,-0.014 0.306,-0.021l0.159,-0.011c0.16,-0.015 0.16,-0.015 0.319,-0.036l0.158,-0.021l0.158,-0.027l0.169,-0.017c0.163,-0.022 0.163,-0.022 0.325,-0.048l0.139,-0.013l0.103,-0.057l0.156,-0.069l0.178,-0.049l0.204,0l0.146,0.044l0.175,0.074l0.111,0.077l0.112,0.071c0.017,0.01 0.213,0.121 0.234,0.132c0.041,0.022 0.084,0.042 0.127,0.063l0.122,0.068c0.16,0.072 0.223,0.155 0.633,0.196l0.206,-0.136c0.067,-0.016 0.144,-0.002 0.356,0.062l0.128,0.025c0.11,0.009 0.11,0.01 0.221,0.002l0.154,-0.157c0.048,-0.034 0.133,-0.092 0.24,-0.127c0,0 0.018,-0.073 0.146,-0.115l0.172,-0.021l0.161,-0.02l0.126,-0.035l0.152,-0.055l0.237,-0.076c0.08,-0.082 0.08,-0.083 0.156,-0.168l0.175,-0.098l0.089,-0.046c0.062,-0.097 0.06,-0.098 0.113,-0.199c0,0 -0.014,-0.04 0.188,-0.107l0.171,-0.199l0.101,-0.081c0,0 0.137,-0.178 0.363,-0.257l0.128,-0.086l0.166,-0.062l0.245,-0.082l0.13,-0.036l0.136,-0.043c0.104,-0.009 0.104,-0.001 0.207,0.013l0.214,-0.081l0.15,-0.062l0.25,-0.061c0,0 0.047,-0.093 0.125,-0.111c0.066,-0.014 0.184,0.022 0.184,0.022l0.12,0.042l0.141,0.022l0.161,0l0.174,0.006l0.153,0.016l0.166,0l0.161,0.005l0.164,-0.01l0.179,-0.011l0.174,-0.018c0.16,-0.009 0.16,-0.009 0.321,-0.014l0.163,-0.015l0.142,-0.031l0.158,-0.031c0.321,-0.084 0.637,-0.299 0.637,-0.299l0.14,-0.036l0.131,-0.044c0.117,-0.056 0.202,-0.147 0.26,-0.213l0.101,-0.108c0.02,-0.063 0.063,-0.135 0.063,-0.135l0.061,-0.111l0.036,-0.126c0.008,-0.042 0.047,-0.224 0.048,-0.276c0.001,-0.252 -0.172,-0.463 -0.513,-0.375l-0.027,0.005c-0.14,0.01 -0.14,0.011 -0.281,0.011l-0.089,0.05c-0.044,0.016 -0.044,0.016 -0.091,0.019l-0.149,-0.017l-0.197,-0.058l-0.096,-0.086c-0.097,-0.07 -0.099,-0.067 -0.213,-0.104l-0.143,-0.055c-0.212,-0.129 0.007,-0.384 0.007,-0.384c0.231,-0.071 0.26,-0.034 0.26,-0.034l0.175,0.012c0.165,0.026 0.165,0.026 0.329,0.059l0.169,0.027l0.161,0.039l0.151,0.036l0.152,0.027l0.161,0.032c0.196,0.034 -0.009,0.045 0.618,0.067l0.178,0.012l0.166,0.022l0.176,0.022c0.289,0.058 0.379,0.086 0.48,0.115l0.155,0.038l0.146,0.041l0.152,0.026c0.157,0.038 0.157,0.038 0.313,0.083l0.15,0.036l0.153,0.033l0.158,0.045l0.145,0.048l0.16,0.046l0.133,0.052l0.183,0.058l0.137,0.09c0.163,0.147 0.135,0.139 0.135,0.139l0.05,0.043l0.113,-0.099c0.108,-0.028 0.267,0.039 0.267,0.039l0.157,0.062l0.104,0.057l0.125,0.038c0.097,0.051 0.137,0.007 0.211,0.202c0,0 0.163,0.024 0.163,0.024l0.121,0.077l0.103,0.072l0.121,0.068l0.236,0.15l0.123,0.07l0.114,0.073l0.134,0.067l0.11,0.069l0.12,0.067c0.118,0.065 0.119,0.064 0.242,0.119l0.129,0.064c0.133,0.058 0.265,0.117 0.398,0.175l0.128,0.056l0.141,0.047l0.142,0.055c0.136,0.052 0.136,0.052 0.274,0.095l0.148,0.056c0.139,0.062 0.139,0.062 0.276,0.13c0,0 0.1,0.001 0.239,0.035Zm-68.915,29.435l0.153,0.066l0.177,0.081c0.155,0.07 0.156,0.071 0.325,0.097l0.246,0.134c0.172,0.168 0.245,0.396 0.245,0.396l0.028,0.22c-0.005,0.099 -0.007,0.207 -0.064,0.314c0,0 0.293,0.201 0.504,0.338l0.204,0.153l0.102,0.164c0.102,0.165 0.102,0.165 0.201,0.332c0,0 0.024,0.097 -0.009,0.177l0.187,0.114l0.132,0.061c0.018,0 0.35,0.006 0.351,0.006c0.177,-0.001 0.198,-0.005 0.375,-0.018l0.228,0.078c0.029,0.017 0.029,0.017 0.055,0.04l0.105,0.121c0.396,0.182 0.556,0.21 0.556,0.21l0.167,0.183c0.068,0.176 0.122,0.359 0.205,0.526c0.008,0.017 0.192,0.312 0.196,0.319l0.099,0.175c0.074,0.158 0.156,0.338 0.23,0.54l0.07,0.134l0.091,0.072l0.132,0.02c0.223,-0.018 0.387,-0.042 0.54,-0.072l0.191,-0.034l0.262,-0.024l0.222,0.102l0.128,0.123l0.149,0.16c0.112,0.162 0.112,0.161 0.212,0.33l0.096,0.147c0.125,0.132 0.126,0.132 0.258,0.257c0.099,0.093 0.238,0.225 0.377,0.317l0.086,0.006l0.176,-0.105c0.104,0.006 0.103,0.015 0.204,0.043l0.116,-0.029l0.22,-0.08l0.184,0.021c0.038,0.009 0.038,0.009 0.072,0.028l0.285,0.211l0.099,0.023l0.173,-0.06c0.045,0.004 0.046,0.004 0.088,0.021l0.192,0.125l0.143,0.166l0.093,0.15l0.067,0.071l0.111,-0.01l0.188,-0.03l0.235,-0.025l0.225,0.04l0.156,0.066l0.192,0.11l0.175,0.154l0.102,0.152c0.013,0.028 0.032,0.054 0.016,0.136l-0.077,0.202l-0.093,0.151c-0.094,0.253 -0.099,0.497 0.026,0.744l0.088,0.173c0.046,0.092 0.112,0.486 0.112,0.486l0.181,0.034l0.137,0.066c0,0 0.013,-0.168 0.17,-0.185l0.189,0.015l0.136,0.004l0.086,-0.063l0.161,-0.182l0.216,-0.09l0.194,-0.022c0.193,-0.016 0.386,-0.041 0.579,-0.046c0.106,-0.002 0.27,0.093 0.27,0.093l0.269,0.194c0.137,-0.009 0.135,-0.019 0.265,-0.063c0.182,-0.062 0.182,-0.062 0.361,-0.132l0.19,-0.059c0.185,-0.056 0.185,-0.056 0.373,-0.104l0.167,-0.056l0.182,-0.057l0.174,-0.062c0.145,-0.062 0.144,-0.067 0.259,-0.175l0.156,-0.124c0.179,-0.139 0.378,-0.31 0.378,-0.31c-0.01,-0.157 -0.01,-0.157 -0.022,-0.314l0.05,-0.229l0.03,-0.176l0.026,-0.236c0.03,-0.044 0.031,-0.044 0.074,-0.074l0.208,-0.083l0.247,0.007l0.12,0.109l0.27,0.002c0.072,0.024 0.144,0.106 0.163,0.124l0.149,-0.004l0.116,-0.078c0.03,-0.015 0.03,-0.015 0.063,-0.023l0.198,-0.024l0.138,0.015c0.145,-0.06 0.145,-0.062 0.283,-0.137l0.256,-0.012c0.039,0.006 0.039,0.006 0.075,0.023l0.129,0.081c0.172,0.011 0.172,0.01 0.345,0.019c0,0 0.233,0.132 0.232,0.268c-0.001,0.051 -0.006,0.102 -0.009,0.153l0.057,0.116l0.113,0.139l0.114,0.165l0.099,0.161c0.249,0.33 0.428,0.567 0.56,0.78l0.111,0.273l0.112,-0.055l0.156,-0.099l0.17,-0.106c0.167,-0.087 0.401,-0.197 0.401,-0.197c0.102,0.01 0.101,0.018 0.199,0.047l0.168,0.014l0.173,0.061l0.1,0.025l0.108,-0.071l0.264,-0.122l0.185,0.025l0.157,0.019l0.145,-0.046c0.086,-0.013 0.261,0.109 0.261,0.109c0.166,0.025 0.166,0.025 0.333,0.044l0.216,0.033l0.176,0.059c0.216,0.051 0.52,-0.03 0.52,-0.03l0.268,0.031l0.152,0.119c0.043,0.033 0.235,0.186 0.289,0.215c0.052,0.029 0.11,0.045 0.165,0.068l0.217,0.107l0.128,0.118c0.028,0.036 0.028,0.036 0.045,0.078l0.043,0.202l0.018,0.163l0.056,0.106l0.12,0.083c0.152,0.079 0.153,0.078 0.314,0.137l0.174,0.189c0.022,0.041 0.022,0.041 0.031,0.087l0.004,0.208l-0.016,0.192l-0.036,0.256l-0.099,0.167l-0.128,0.194l-0.123,0.116l-0.059,0.108l0.005,0.091l0.081,0.107c0.014,0.027 0.034,0.05 0.024,0.131l-0.059,0.204l-0.111,0.218l-0.138,0.135c-0.112,0.109 -0.116,0.107 -0.195,0.241l-0.018,0.141l0.023,0.171l0.027,0.224l-0.016,0.194l-0.028,0.216l-0.047,0.169l-0.009,0.17l0,0.225l-0.078,0.241l-0.124,0.132c-0.099,0.139 -0.099,0.14 -0.169,0.295l-0.15,0.217c-0.043,0.129 -0.036,0.131 -0.051,0.266l-0.033,0.159l0.056,0.198l-0.065,0.148l0.075,0.141l0.225,0.039l0.138,-0.097c0.079,-0.012 0.167,0.026 0.203,0.039l0.117,0.013l0.228,0.022l0.216,0.104c0.029,0.036 0.029,0.036 0.046,0.08l0.036,0.168c-0.001,0.11 -0.01,0.108 -0.035,0.215l0.031,0.147l0.066,0.253l-0.039,0.183l-0.082,0.256l-0.158,0.149l-0.207,0.008l-0.114,0.077c-0.099,0.04 -0.102,0.031 -0.207,0.048l-0.123,0.05c-0.134,0.098 -0.134,0.098 -0.265,0.201l-0.177,0.049l-0.091,0.146c-0.186,0.113 -0.079,0.091 -0.079,0.091l0.015,0.104c0.307,-0.032 0.203,-0.095 0.203,-0.095l0.041,-0.119l0.205,-0.094c0.059,-0.024 0.422,-0.154 0.434,0.117c0.004,0.097 -0.104,0.154 -0.205,0.159l-0.023,0.141l-0.109,0.058l0.214,0.199c0,0 0.029,-0.138 0.144,-0.161c0.227,-0.047 0.235,0.02 0.235,0.02l0.049,0.119l-0.134,0.171c0.366,0.012 0.094,-0.062 0.282,-0.186c0.055,-0.035 0.125,-0.023 0.19,0.014c0,0 0.09,-0.019 0.09,-0.019l0.047,-0.113c0,0 0.142,-0.036 0.142,-0.036c0.058,0.013 0.117,0.025 0.17,0.052c0,0 -0.007,-0.038 0.001,-0.076c0.021,-0.107 0.088,-0.122 0.154,-0.135c0,0 -0.04,-0.092 0.085,-0.166c0,0 -0.352,-0.217 0.051,-0.362l0.124,0.01l0.143,0.076l0.021,-0.189l-0.028,-0.086l-0.136,0.015c-0.118,0.055 -0.299,0.163 -0.344,-0.091c0,0 0.009,-0.083 0.052,-0.154l0.086,-0.049c0,0 -0.135,-0.244 0.005,-0.321c0.06,-0.034 0.225,0.003 0.225,0.003l0.122,0.014l0.084,-0.092l0.015,-0.149l0.196,-0.043c0,0 0.098,-0.217 0.279,-0.029l0.158,-0.006c0.248,0.135 0.043,0.092 0.498,0.065c0.032,-0.001 0.026,-0.04 0.146,0.051l0.039,0.088c-0.004,0.08 0.026,0.06 -0.051,0.127c-0.048,0.043 -0.161,0.069 -0.161,0.069l-0.133,0.032c-0.011,0.159 -0.157,0.187 -0.192,0.205c0,0 -0.068,-0.009 0.004,0.179l-0.016,0.286l0.156,0.092c0.077,0.009 0.159,0.033 0.182,0.136c0.019,0.088 -0.105,0.292 0.024,0.217c-0.031,-0.149 0.07,-0.198 0.07,-0.198c0.078,-0.032 0.053,-0.074 0.165,0.01c0.045,0.033 0.107,0.094 0.109,0.186c0,0.037 -0.021,0.095 -0.03,0.123l0.276,0.036c0,0 0.05,0.01 0.085,0.184l0.263,-0.087l0.192,0.018l0.079,0.09c0.052,0.253 -0.076,0.191 -0.23,0.23l-0.089,0.068l0.162,0.041c0.056,0.019 0.104,0.065 0.129,0.088l0.137,-0.01l0.202,-0.197c0,0 -0.237,-0.34 0.027,-0.42c0,0 0.149,-0.165 0.278,-0.158c0.101,0.007 0.077,-0.038 0.15,0.109l-0.057,0.165c0,0 0.162,0.096 0.246,0.255c0,0 -0.022,-0.155 -0.022,-0.155c-0.041,-0.119 -0.04,-0.12 -0.105,-0.228c0,0 -0.041,0.002 0.005,-0.228l0.046,-0.192c0,0 0.174,-0.202 0.331,-0.104c0,0 0.049,-0.13 0.049,-0.13c0.087,-0.094 0.294,-0.062 0.294,-0.062c0.113,0.019 0.115,0.008 0.222,0.048c0,0 0.052,0.023 0.078,0.151c0,0 0.057,0 0.117,0.064c0,0 -0.031,-0.176 0.096,-0.241c0.124,-0.063 0.167,-0.144 0.303,-0.137l0.229,0.119c0.025,0.033 0.112,0.223 0.112,0.223l0.153,0.072l-0.021,0.202c0,0 0.075,-0.056 0.161,0.099l-0.004,0.259c0.007,0.16 -0.12,0.275 -0.12,0.275c0,0 -0.076,0.076 -0.153,0.094c-0.096,0.022 -0.297,-0.032 -0.297,-0.032c-0.125,0.111 -0.12,0.168 -0.12,0.168l-0.112,0.089l0.263,0.036c0,0 0.055,0.035 0.07,0.106c0.024,0.116 0.023,0.117 0.016,0.213l-0.079,0.094l-0.123,0.002l-0.093,-0.064c-0.066,-0.004 -0.117,-0.033 -0.16,-0.064l0.042,0.097c0,0 0.102,0.052 0.111,0.143c0.003,0.039 0.035,0.177 -0.077,0.246c-0.212,0.132 -0.234,0.075 -0.234,0.075c-0.129,-0.074 -0.089,-0.034 -0.089,-0.034l-0.104,0.234l-0.068,0.061l-0.032,0.113l-0.059,0.134c-0.105,0.161 -0.136,0.124 -0.25,0.158c0,0 -0.22,-0.026 -0.28,-0.13c-0.046,-0.08 -0.138,-0.376 -0.138,-0.376l-0.116,0.05c-0.161,0.022 -0.163,0.048 -0.163,0.048c-0.227,0.318 -0.04,0.218 -0.04,0.218l0.208,0.061c0.059,0.032 0.075,0.022 0.214,0.122l0.218,0.162c0.09,0.101 0.09,0.101 0.175,0.207l0.121,-0.015l0.181,0.143l0.169,0.106c0.028,0.123 0.011,0.219 -0.064,0.26c-0.062,0.033 -0.197,0.055 -0.197,0.055l0.144,0.213l0.057,0.131l0.064,0.128l0.067,0.151l0.045,0.144l0.052,0.147l0.04,0.154l0.068,0.216c0.09,0.092 0.039,0.253 0.037,0.262l0.016,0.138l-0.018,0.212l0.159,-0.034c0.114,-0.03 0.216,0.067 0.216,0.067l0.091,-0.13l0.003,-0.095c0.044,-0.074 0.01,-0.063 0.155,-0.172l0.169,0.029l0.045,0.11c-0.043,0.189 0.041,0.117 -0.077,0.305l0.046,0.071c0,0 0.175,0.071 0.216,0.106l0.24,-0.027c0.066,0.027 0.114,0.071 0.12,0.16l0.119,-0.041l0.1,-0.177c0.167,-0.171 0.284,-0.05 0.276,0.105l0.387,0.219c0.047,-0.002 0.088,-0.083 0.236,0.053c0.068,0.062 -0.011,0.243 -0.011,0.243l-0.115,0.039l-0.214,-0.029l-0.169,-0.085l-0.166,-0.107l-0.081,-0.006l-0.251,0.146l-0.145,0.029c-0.278,0.084 -0.165,0.102 -0.165,0.102l0.09,0.12l0.067,0.118l0.165,0.213l0.145,0.152l0.187,0.138l0.145,0.068l0.171,0.07c0.214,-0.004 0.242,-0.038 0.242,-0.038l0.182,-0.028l0.033,-0.127l0.075,-0.107c0.078,-0.074 0.238,-0.087 0.262,-0.091c0.235,-0.04 0.357,-0.149 0.486,0.003c0.069,0.08 -0.064,0.264 -0.064,0.264c0.061,0.134 0.018,0.151 -0.018,0.19c-0.09,0.1 -0.231,0.217 -0.231,0.217c-0.101,0.054 -0.145,0.14 -0.366,0.008l-0.169,0.033l-0.112,0.029c-0.156,0.151 -0.129,0.183 -0.129,0.183l-0.094,0.145c0,0 0.289,0.041 0.399,0.041c1.017,-0.001 2.044,-0.169 3.063,-0.248l0.204,0.003l0.179,-0.005c0.143,-0.001 0.362,-0.002 0.591,0.015l0.271,0.088l0.121,0.112l0.111,0.044l0.23,-0.043l0.043,-0.143l0.132,-0.19c0,0 0.014,-0.053 0.24,0.016l0.089,-0.061l0.207,-0.158l0.172,-0.034c0.2,-0.008 0.162,-0.039 0.162,-0.039l0.19,-0.175l0.086,-0.055l0.019,-0.128l0.061,-0.236l0.128,-0.201l0.149,-0.129l0.156,-0.117l0.14,-0.114l0.076,-0.079l-0.117,-0.231l-0.04,-0.17l-0.082,-0.211c0,0 -0.042,-0.025 0.14,-0.203l0.01,-0.122c0.007,-0.033 0.007,-0.033 0.021,-0.063l0.055,-0.094c-0.008,-0.118 -0.023,-0.114 -0.067,-0.224l-0.081,-0.229l-0.007,-0.192c0.003,-0.038 0.003,-0.038 0.016,-0.074l0.089,-0.174l0.097,-0.159l0.058,-0.139l0.024,-0.226l0.08,-0.139l0.033,-0.182l0.043,-0.141l-0.039,-0.136c-0.01,-0.09 0.016,-0.117 0.035,-0.145l0.157,-0.156l0.167,-0.103l0.169,-0.091l0.118,-0.074l0.08,-0.165l0.172,-0.193l0.206,-0.09l0.185,-0.036c0.17,-0.045 0.17,-0.045 0.331,-0.119l0.325,-0.009l0.17,0.092l0.173,0.093l0.173,0.106c0.105,0.077 0.21,0.155 0.316,0.232l0.152,0.112l0.125,0.082l0.117,0.009c0.143,-0.053 0.142,-0.058 0.262,-0.151l0.158,-0.121l0.166,-0.109l0.129,-0.085c0.147,-0.271 0.056,-0.615 0.024,-0.796c-0.027,-0.157 -0.048,-0.315 -0.094,-0.47l-0.097,-0.034l-0.246,-0.077l-0.171,-0.168l-0.088,-0.171c-0.015,-0.049 -0.015,-0.049 -0.013,-0.101l0.04,-0.183c0.012,-0.034 0.012,-0.034 0.031,-0.064l0.122,-0.146c0.102,-0.125 0.105,-0.123 0.19,-0.26c0,0 -0.079,-0.485 -0.228,-0.814l-0.066,-0.233l-0.013,-0.192l-0.016,-0.187c-0.026,-0.19 -0.052,-0.38 -0.077,-0.57l-0.026,-0.188c-0.025,-0.147 -0.02,-0.15 -0.081,-0.286l-0.113,-0.071l-0.205,-0.116c-0.028,-0.044 -0.028,-0.044 -0.04,-0.095l-0.005,-0.227l0.042,-0.193c0.058,-0.187 0.115,-0.373 0.172,-0.559l0.069,-0.262l-0.064,-0.05c-0.153,-0.072 -0.154,-0.07 -0.318,-0.111l-0.198,-0.173l-0.041,-0.112l0.026,-0.248c0.028,-0.059 0.056,-0.118 0.086,-0.176c0,0 0.175,-0.324 0.179,-0.332l0.063,-0.171c0.047,-0.13 0.088,-0.293 0.048,-0.474l-0.042,-0.191l-0.031,-0.259l0.051,-0.181l0.075,-0.242c0.201,-0.161 0.236,-0.126 0.236,-0.126l0.197,0.01c0.149,-0.058 0.148,-0.062 0.285,-0.145l0.251,-0.092l0.208,-0.006c0.192,0.017 0.384,0.033 0.576,0.05l0.224,0.023l0.176,0.055c0.119,0.025 0.246,0.036 0.449,-0.056l0.271,0.01l0.17,0.02l0.164,-0.027c0,0 0.359,-0.088 0.361,-0.089c0.047,-0.014 0.093,-0.033 0.139,-0.049l0.104,-0.112c0.031,-0.025 0.031,-0.025 0.067,-0.041l0.224,-0.058l0.211,0.007l0.189,0.029c0.046,0.015 0.046,0.015 0.085,0.045l0.144,0.151l0.103,0.146c0.314,0.297 0.753,0.265 1.209,-0.006c0,0 0.042,-0.043 0.156,0.002l0.145,0.09c0.037,0.032 0.037,0.033 0.062,0.076l0.102,0.247l0.303,-0.029c0.122,0.013 0.244,0.026 0.366,0.038l0.128,-0.016l0.196,-0.13l0.221,-0.008l0.152,0.129l0.112,0.014c0.145,-0.041 0.144,-0.046 0.269,-0.13c0.091,-0.061 0.187,-0.112 0.25,-0.208c0.011,-0.018 0.162,-0.361 0.162,-0.361c0.108,-0.138 0.108,-0.138 0.221,-0.272l0.027,-0.125l-0.025,-0.16l-0.023,-0.184c0.004,-0.088 0.033,-0.11 0.055,-0.135l0.145,-0.116c0.089,-0.048 0.092,-0.04 0.188,-0.073l0.07,-0.083l0.114,-0.233l0.162,-0.105l0.156,-0.1l0.119,-0.094l0.082,-0.148l0.145,-0.201l0.136,-0.1c0.094,-0.133 0.092,-0.135 0.16,-0.284l0.224,-0.191l0.15,-0.065c0.108,-0.109 0.105,-0.112 0.186,-0.242c0,0 -0.011,-0.014 0.127,-0.094l-0.054,-0.321c0.047,-0.108 0.019,-0.103 0.175,-0.243l0.247,-0.031l0.169,-0.03l0.136,-0.048l0.11,-0.112c0.121,-0.085 0.165,-0.094 0.165,-0.094l-0.21,-0.163c-0.021,-0.023 -0.048,-0.042 -0.057,-0.126l0.009,-0.188c0.014,-0.055 0.015,-0.056 0.048,-0.102l0.17,-0.146l0.19,-0.083l0.167,-0.055c0.151,-0.089 0.15,-0.09 0.287,-0.199l0.188,-0.13l0.225,-0.087l0.192,-0.014c0.166,-0.012 0.168,-0.012 0.322,-0.076l0.256,0.003c0.12,0.001 0.308,-0.003 0.488,-0.086l0.239,-0.075c0.044,0.005 0.044,0.005 0.085,0.023l0.189,0.135l0.057,0.298l-0.037,0.209l-0.071,0.206c-0.059,0.108 -0.117,0.215 -0.176,0.323l-0.039,0.155l-0.013,0.147l0.044,0.128l0.085,0.118c0.563,0.424 1.139,0.822 1.654,1.317l0.113,0.17l0.107,0.087l0.157,0.05l0.036,-0.102c0.059,-0.108 0.049,-0.115 0.13,-0.208c0,0 0.116,-0.045 0.229,-0.06c0.072,-0.011 0.186,0.03 0.238,0.043l0.23,0.03l0.221,0.122l0.124,0.143c0.019,0.029 0.019,0.029 0.031,0.061l0.051,0.218l-0.005,0.193l-0.003,0.126l0.107,0.104l0.13,0.181l0.061,0.141l0.115,0.096l0.098,0.097c0.088,0.012 0.209,0.034 0.296,0.026c0.059,-0.006 0.41,-0.094 0.41,-0.094l0.187,0.033c0.038,0.012 0.038,0.012 0.072,0.035l0.144,0.112l0.047,-0.04c0.04,-0.122 0.042,-0.122 0.053,-0.25l-0.055,-0.095c-0.124,-0.097 -0.127,-0.094 -0.272,-0.157l-0.051,-0.036c-0.129,-0.22 -0.089,-0.249 -0.089,-0.249l0.065,-0.219c0.028,-0.174 0.028,-0.174 0.048,-0.35c-0.014,-0.235 -0.033,-0.579 -0.033,-0.579l0.008,-0.193c0.03,-0.119 0.042,-0.115 0.096,-0.225c0,0 0.01,-0.046 0.106,-0.081l0.173,-0.035l0.145,-0.041l0.114,-0.095l0.148,-0.155l0.234,-0.136l0.25,-0.001l0.184,0.071l0.135,0.064l0.08,-0.016c0.097,-0.082 0.097,-0.083 0.159,-0.194l0.013,-0.159c0.01,-0.042 0.01,-0.042 0.031,-0.079l0.15,-0.174l0.285,-0.028l0.17,0.029l0.103,-0.009l0.168,-0.136l0.155,-0.039c0.038,-0.027 0.08,-0.049 0.114,-0.081c0.003,-0.003 0.257,-0.297 0.257,-0.297c0.076,-0.028 0.077,-0.023 0.156,-0.038l0.048,-0.09l0.085,-0.217c0.04,-0.034 0.04,-0.034 0.089,-0.053l0.189,-0.035c0.187,-0.004 0.177,0.044 0.265,0.115c0,0 0.042,0.04 0.026,0.183l0.045,0.021c0.166,0.006 0.166,0.004 0.331,-0.012l0.091,0.01c0,0 0.003,-0.049 0.03,-0.093c0.024,-0.039 0.11,-0.103 0.126,-0.116l0.041,-0.118l0.052,-0.23c0.19,-0.209 0.198,-0.191 0.306,-0.127c0,0 0.103,-0.316 0.321,-0.073c0,0 0.111,-0.109 0.176,-0.138l0.067,-0.114c0.076,-0.086 0.083,-0.078 0.173,-0.147c0,0 -0.003,-0.046 0.241,-0.084c0,0 0.038,-0.025 0.172,0.124c0,0 0.09,-0.011 0.185,-0.07c0.078,-0.047 0.262,-0.214 0.262,-0.214l0.122,-0.073l0.117,-0.213l-0.033,-0.136c-0.005,-0.043 -0.005,-0.043 0.004,-0.085l0.089,-0.215l0.138,-0.142l0.12,-0.107l0.035,-0.095l-0.002,-0.192l0.048,-0.16l0.018,-0.105l-0.106,-0.144l0.02,-0.125l0.124,-0.17c0.155,-0.077 0.296,0.05 0.296,0.05c0.135,0.13 0.114,0.089 0.114,0.089l0.086,-0.125l0.105,-0.112l0.041,-0.141c0.017,-0.038 0.017,-0.039 0.045,-0.071l0.158,-0.134l0.168,-0.087l0.247,-0.098l0.191,0.011c0.092,0.026 0.089,0.033 0.174,0.078l0.097,-0.034l0.218,-0.098c0.196,-0.014 0.196,-0.013 0.393,-0.016l0.212,-0.001l0.223,0.031l0.129,0.047l0.222,-0.048l0.148,0.047l0.208,-0.027l0.181,0.046c0.092,0.062 0.072,0.031 0.072,0.031l0.081,-0.152l0.1,-0.171l0.105,-0.165l0.093,-0.168l-0.262,-0.102c-0.034,-0.033 -0.034,-0.034 -0.055,-0.076l-0.058,-0.182c-0.031,-0.215 -0.04,-0.161 -0.04,-0.161l-0.168,-0.079l-0.182,-0.162l-0.038,-0.242l-0.012,-0.095l-0.299,-0.09c-0.038,-0.036 -0.039,-0.037 -0.062,-0.084l-0.048,-0.161c-0.009,-0.092 0.018,-0.119 0.038,-0.149l0.131,-0.13c0.083,-0.09 0.167,-0.184 0.234,-0.428l0.119,-0.18l0.063,-0.21l0.101,-0.141c0.09,-0.213 0.179,-0.533 0.179,-0.533l0.105,-0.209l0.145,-0.159l0.146,-0.118l0.119,-0.111c0.08,-0.144 0.077,-0.146 0.128,-0.302l0.115,-0.17l0.027,-0.113c-0.04,-0.158 -0.041,-0.158 -0.096,-0.312c0,0 -0.03,-0.002 0.035,-0.213l-0.063,-0.112l-0.112,-0.221c0.006,-0.149 0.229,-0.252 0.229,-0.252l0.147,-0.055l0.126,-0.1c0.034,-0.018 0.068,-0.044 0.162,-0.017l0.183,0.095l0.187,0.145l0.1,0.153c0.075,0.086 0.067,0.097 0.165,0.156l0.084,-0.048c0.11,-0.036 0.113,-0.025 0.228,-0.038l0.102,-0.031l0.139,-0.159l0.157,-0.075c0.121,-0.1 0.118,-0.104 0.203,-0.235l0.138,-0.205l-0.167,-0.043l-0.064,-0.107l0.103,-0.285l0.122,-0.106l0.034,-0.073l-0.031,-0.062l-0.141,-0.078l-0.21,-0.17l-0.077,-0.174c-0.021,-0.082 -0.003,-0.109 0.009,-0.138l0.135,-0.2l0.22,-0.061l0.091,-0.035l0.033,-0.06l-0.038,-0.116l-0.01,-0.173c0.007,-0.08 0.031,-0.099 0.05,-0.121l0.139,-0.123l0.143,-0.147l0.165,-0.129l0.142,-0.086l0.137,-0.158l0.176,-0.119l0.15,-0.064l0.141,-0.124l0.218,-0.131l0.19,-0.027c0.137,-0.02 0.139,-0.014 0.271,-0.057l0.029,-0.106l0.088,-0.205l0.104,-0.145l0.077,-0.166l0.118,-0.199l0.131,-0.139c0.045,-0.033 0.046,-0.033 0.1,-0.047l0.186,-0.011l0.217,-0.016c0.171,0.021 0.171,0.021 0.342,0.043l0.127,-0.047l0.158,-0.094l0.223,-0.105l0.195,-0.025l0.263,0.002l0.167,0.082l0.174,0.078l0.193,0.137l0.062,0.23c0.035,0.086 0.039,0.181 0.245,0.315l0.15,0.105l0.206,0.136l0.125,0.186c0.007,0.046 0.007,0.046 0,0.093l-0.063,0.179l0.151,0.061l0.029,0.119l-0.031,0.165l-0.014,0.153l0.032,0.12l0.104,0.101c0.031,0.029 0.215,0.206 0.261,0.233c0.117,0.067 0.219,0.103 0.219,0.103l0.126,0.169l0.071,0.179c0.049,0.192 0.047,0.077 0.047,0.077c0.087,-0.156 0.087,-0.157 0.165,-0.318c0,0 0.056,-0.089 0.141,-0.085c0.063,0.002 0.158,0.043 0.21,0.092c0.034,0.033 0.079,0.138 0.09,0.159l0.099,0.06l0.116,0.014l0.146,-0.056c0.042,-0.009 0.043,-0.009 0.086,-0.006l0.169,0.039c0.09,0.035 0.126,0.131 0.144,0.167l0.104,0.008l0.245,0.035l0.126,0.067l0.139,-0.016c0.034,0 0.034,0 0.067,0.008l0.153,0.054c0.137,0.037 0.139,0.035 0.28,0.019c0,0 0.024,-0.028 0.182,0.081l0.147,-0.058l0.177,-0.011l0.254,-0.04l0.157,0.053c0.09,0.05 0.134,0.108 0.071,0.234l-0.113,0.144l0.103,-0.004l0.213,-0.042c0.129,0.037 0.162,0.173 0.176,0.202l0.101,0.06l0.165,0.037l0.243,0.043l0.03,-0.077c0.02,-0.035 0.02,-0.035 0.049,-0.064l0.144,-0.11c0.038,-0.021 0.038,-0.021 0.081,-0.03l0.192,-0.013c0.108,-0.007 0.213,-0.03 0.311,-0.077c0.131,-0.062 0.132,-0.06 0.252,-0.141l0.031,-0.126c0.017,-0.04 0.017,-0.041 0.045,-0.075l0.143,-0.129l0.142,-0.128l0.121,-0.117c0.088,-0.155 0.088,-0.155 0.174,-0.311l0.117,-0.134l0.016,-0.134c0.071,-0.217 0.323,-0.13 0.535,-0.01l0.186,0.096l0.038,0.114l-0.101,0.209l-0.023,0.098l0.033,0.045l0.241,0.044l0.109,-0.074l0.216,-0.117l0.112,0.029l0.177,0.144c0.04,0.092 0.032,0.094 0.056,0.191l0.074,0.071l0.121,0.037l0.104,-0.011c0.103,-0.073 0.247,-0.188 0.247,-0.188l-0.092,-0.123c-0.016,-0.091 0.041,-0.212 0.05,-0.238l-0.028,-0.124l-0.076,-0.167l-0.068,-0.185c-0.008,-0.034 -0.008,-0.034 -0.008,-0.07l0.023,-0.189c0.01,-0.038 0.01,-0.038 0.029,-0.071l0.145,-0.185l0.159,-0.113l0.175,-0.116l0.266,-0.106l0.243,0.06l0.146,0.235c0.004,0.045 0.004,0.045 -0.006,0.089l-0.044,0.154l0.146,0.08l0.13,0.12c0.141,0.082 0.288,0.159 0.447,0.16c0.069,0 0.293,-0.044 0.353,-0.055c0.054,-0.01 0.111,-0.01 0.162,-0.03c0.064,-0.024 0.321,-0.206 0.321,-0.206c0.123,-0.035 0.121,-0.049 0.248,-0.056l0.195,0.031c0,0 0.122,0.007 0.122,0.007c-0.079,-0.135 -0.08,-0.134 -0.165,-0.264l-0.102,-0.206l-0.071,-0.229c-0.001,-0.128 -0.015,-0.129 0.011,-0.254l0.212,-0.194l0.28,-0.026l0.188,0.037c0.043,0.016 0.044,0.016 0.08,0.044l0.15,0.179l-0.013,0.238l0.036,0.108l0.107,-0.04l0.175,-0.096l0.229,-0.08c0.158,0.03 0.218,0.288 0.218,0.288l0.013,0.134l0.054,0.053l0.105,0.02l0.125,-0.042l0.202,-0.111l0.273,-0.019l0.165,0.082l0.139,0.05l0.124,-0.016l0.157,-0.073l0.181,-0.076c0.044,-0.01 0.044,-0.011 0.09,-0.007l0.229,0.061l-0.07,-0.192c0.036,-0.2 0.263,-0.213 0.263,-0.213l0.212,-0.036l0.234,0.033l0.206,0.127l0.002,-0.093c0.008,-0.046 0.008,-0.046 0.031,-0.087l0.098,-0.13c0.078,-0.069 0.148,-0.092 0.246,0.01l0.097,0.151c0.015,0.03 0.035,0.085 0.035,0.085l0.223,-0.056l0.126,0.003l0.088,-0.085l0.182,-0.183l0.202,-0.073c0,0 0.133,-0.036 0.133,-0.036l-0.07,-0.097l0.022,-0.117c0,0 0.13,-0.164 0.294,-0.127l0.257,0.098l0.087,-0.219l0.159,-0.054l0.186,0.132l0.076,0.047l0.02,-0.118l0.135,-0.205c0,0 -0.002,-0.052 0.248,0.005l0.06,-0.124c0.215,-0.097 0.235,-0.064 0.235,-0.064c0,0 0.183,-0.03 0.183,-0.03c0,0 -0.086,-0.069 0.054,-0.197l0.247,-0.139c0,0 -0.016,-0.108 0.024,-0.167c0.038,-0.055 0.117,-0.158 0.243,-0.144c0.043,0.004 0.091,0.037 0.126,0.056l0.107,-0.069l0.174,-0.078c0.034,-0.011 0.034,-0.011 0.069,-0.013l0.151,0.007l0.214,-0.084l0.193,0.026l0.241,0.053l0.043,0.041l0.036,-0.046l-0.034,-0.193c0.138,-0.194 0.175,-0.173 0.175,-0.173l0.188,-0.07c0,0 -0.083,-0.229 0.107,-0.277l0.182,-0.012c0.069,0.005 0.14,0.051 0.17,0.069c0,0 0.072,-0.094 0.218,-0.057c0,0 0.008,-0.192 0.008,-0.192l0.097,-0.222c0,0 0.033,-0.045 0.167,-0.047c0,0 -0.104,-0.108 0.154,-0.28l-0.047,-0.27c0.015,-0.046 0.015,-0.047 0.044,-0.086l0.115,-0.112c0.046,-0.031 0.032,-0.047 0.122,-0.04l0.017,-0.165c0.024,-0.077 0.089,-0.142 0.164,-0.134c0.05,0.005 0.129,0.057 0.162,0.074l0.062,-0.108l0.185,-0.168l0.177,-0.072c0.045,-0.01 0.046,-0.011 0.092,-0.007l0.233,0.071l0.14,0.24l0.019,0.096l0.186,0.113l0.108,-0.026l0.156,-0.115l0.25,-0.093l0.127,0.013l0.094,-0.08l0.143,-0.118l0.079,-0.083l-0.002,-0.179l0.08,-0.223l0.107,-0.054l0.291,0.116l0.083,0.093l0.174,0.01l0.228,0.089c0,0 0.177,0.133 0.177,0.133c0,0 -0.032,-0.097 0.151,-0.126l0.217,0.009l0.208,0.06l0.175,0.082c0.147,0.069 0.146,0.071 0.298,0.127l0.145,-0.035l0.244,-0.037c0.077,0.027 0.14,0.025 0.175,0.299l0.272,-0.018l0.21,0.022l0.155,0.037c0.245,-0.051 0.507,-0.205 0.507,-0.205l0.215,-0.026c0.066,0.003 0.132,0.004 0.198,0.01c0.002,0 0.359,0.045 0.374,0.047c0,0 0.282,0.002 0.204,-0.054c0,0 0.026,-0.009 -0.236,-0.061l-0.154,-0.044c-0.148,-0.038 -0.148,-0.038 -0.296,-0.074c0,0 -0.243,-0.086 -0.429,-0.168l-0.139,-0.053c-0.365,-0.161 -0.417,-0.209 -0.527,-0.275c-0.221,-0.133 -0.376,-0.242 -0.376,-0.242l-0.098,-0.087c0,0 -0.535,-0.414 -0.796,-0.811c-0.054,-0.083 -0.09,-0.154 -0.137,-0.243l-0.069,-0.123c-0.068,-0.127 -0.068,-0.127 -0.133,-0.256l-0.081,-0.153l-0.039,-0.138l-0.061,-0.129c-0.05,-0.149 -0.05,-0.149 -0.087,-0.302l-0.058,-0.159l-0.025,-0.147l-0.041,-0.143l-0.038,-0.135l-0.115,-0.225c-0.06,-0.1 -0.077,-0.13 -0.141,-0.228c-0.003,-0.004 -0.155,-0.229 -0.156,-0.23l-0.113,-0.184c0,0 -0.08,-0.008 -0.123,-0.06c-0.025,-0.03 -0.043,-0.09 -0.055,-0.121l-0.202,-0.099l-0.125,-0.06l-0.127,-0.063l-0.126,-0.057l-0.129,-0.048l-0.137,-0.053l-0.144,-0.048l-0.141,-0.052l-0.147,-0.051l-0.129,-0.055l-0.16,-0.042l-0.136,-0.052l-0.138,-0.046c-0.15,-0.043 -0.3,-0.086 -0.45,-0.128l-0.142,-0.048l-0.152,-0.036l-0.15,-0.043c0,0 -0.161,-0.038 -0.161,-0.038c0,0 0.093,0.173 0.079,0.277l-0.071,0.191c0,0 -0.155,0.112 -0.356,0.012c-0.031,-0.015 -0.028,0.001 -0.028,0.001l-0.123,0.037c-0.129,-0.02 -0.128,-0.02 -0.257,-0.041c0,0 -0.105,0.077 -0.219,-0.083l-0.245,-0.069c0,0 -0.128,0.046 -0.241,-0.016c0,0 -0.055,0.093 -0.306,-0.024l-0.035,-0.011l-0.03,0.088c0,0 0.08,0.246 -0.002,0.375c-0.171,0.268 -0.143,0.186 -0.244,0.252l-0.134,0.059c-0.224,0.068 -0.062,0.038 -0.179,0.117c-0.039,0.027 -0.146,0.047 -0.171,0.054l-0.123,0.054c-0.072,0.019 -0.073,0.015 -0.148,0.023c0,0 -0.236,0.114 -0.264,0.288c-0.015,0.097 0.006,0.321 0.006,0.321c-0.112,0.194 -0.147,0.178 -0.147,0.178l-0.166,0.072c-0.103,0.022 -0.081,0.039 -0.271,0.003l-0.202,-0.132c0,0 -0.14,0.174 -0.286,0.115c0,0 0.007,0.041 -0.168,0.057c-0.204,0.02 -0.295,-0.306 -0.136,-0.41l-0.049,-0.121l-0.058,-0.157c-0.007,-0.047 -0.029,-0.198 0.087,-0.36l0.059,-0.067l-0.007,-0.099c0.016,-0.231 0.068,-0.169 -0.159,-0.333l-0.045,-0.053l-0.143,0.141l-0.205,0.08l-0.133,-0.009l-0.157,0.041c-0.271,-0.04 -0.244,-0.188 -0.244,-0.188l0.026,-0.114c0.068,-0.062 0.072,-0.057 0.15,-0.104c0,0 0.221,-0.155 0.221,-0.155l-0.148,-0.07l-0.103,-0.081l-0.129,-0.109l-0.098,-0.137c0,0 -0.049,0.018 -0.102,-0.001c-0.037,-0.014 -0.079,-0.056 -0.106,-0.079l-0.297,-0.014l-0.12,-0.055l-0.122,-0.06l-0.15,-0.075l-0.109,-0.086c-0.057,-0.061 -0.053,-0.064 -0.1,-0.133c0,0 -0.053,-0.149 -0.398,-0.248l-0.188,-0.115c-0.086,-0.093 -0.087,-0.092 -0.166,-0.191l-0.199,-0.117l-0.125,-0.053c-0.074,-0.046 -0.07,-0.052 -0.136,-0.11l-0.105,-0.075c-0.269,-0.183 -0.309,-0.158 -0.404,-0.158c0,0 -0.254,-0.03 -0.254,-0.03c0.056,0.069 0.247,0.251 -0.201,0.298l-0.161,0.039c-0.083,-0.019 -0.156,-0.097 -0.183,-0.123l-0.143,-0.098l-0.148,0.028c0,0 0.041,0.029 -0.008,0.121l0.111,0.116l0.013,0.168l0.112,0.199l0.076,0.123c0.014,0.03 0.014,0.03 0.022,0.063l0.013,0.193l-0.032,0.149c-0.058,0.134 -0.221,0.189 -0.221,0.189c-0.208,0.03 -0.464,-0.152 -0.464,-0.152c-0.096,-0.079 -0.116,-0.063 -0.116,-0.063l-0.155,0.007l-0.154,0.001c-0.095,-0.02 -0.093,-0.027 -0.182,-0.067l-0.125,-0.029c-0.181,-0.081 -0.18,-0.114 -0.18,-0.114c-0.327,-0.293 -0.309,-0.32 -0.309,-0.32c-0.078,-0.119 -0.078,-0.119 -0.151,-0.241l-0.091,-0.134l-0.06,-0.135l-0.118,-0.214c-0.017,-0.031 -0.017,-0.031 -0.026,-0.066l-0.022,-0.15c0.005,-0.122 0.183,-0.184 0.183,-0.184c0,0 -0.111,-0.048 -0.086,-0.204c0,0 -0.066,-0.148 0.035,-0.23c0.08,-0.064 0.212,-0.061 0.268,-0.066c0.089,-0.008 0.089,-0.007 0.089,-0.007l0.127,0.071l0.075,-0.069l-0.05,-0.177c-0.066,-0.051 -0.128,-0.145 -0.128,-0.145l-0.104,-0.168c-0.023,-0.106 -0.032,-0.105 -0.032,-0.213c0,0 -0.02,-0.129 0.222,-0.161l0.145,0c0.274,-0.018 0.259,-0.072 0.259,-0.072l0.087,-0.147c0.05,-0.03 0.064,-0.07 0.288,-0.021l0.146,-0.158c0.051,-0.057 0.101,-0.101 0.198,-0.27l-0.089,-0.083l0.036,-0.167c0,0 0.012,-0.041 0.2,-0.078l0.155,-0.005c0.041,0.004 0.041,0.004 0.079,0.019l0.123,0.07c0.051,0.038 0.049,0.041 0.093,0.085l0.261,0.015c0.166,0.09 0.166,0.122 0.166,0.122l0.165,0.132c0.361,0.139 0.194,0.033 0.424,0.115l0.093,-0.132c0.135,-0.065 0.28,0.063 0.326,0.266l0.181,0.099l0.148,0.087l0.112,0.099l0.112,0.124c0.046,0.077 0.052,0.074 0.086,0.156l0.04,0.176l0.007,0.205l0.256,0.044c0.136,0.005 0.136,0.003 0.272,-0.016l0.143,-0.011c0.221,0.028 0.115,0.021 0.115,0.021l-0.109,-0.079l-0.126,-0.081l-0.103,-0.081l-0.111,-0.072c-0.041,-0.03 -0.079,-0.062 -0.119,-0.094l-0.109,-0.085l-0.109,-0.089l-0.103,-0.09l-0.1,-0.083l-0.121,-0.087l-0.102,-0.091l-0.1,-0.088l-0.107,-0.087l-0.103,-0.093c-0.102,-0.089 -0.102,-0.089 -0.207,-0.174l-0.106,-0.093l-0.101,-0.093l-0.098,-0.087l-0.107,-0.086l-0.105,-0.094c-0.102,-0.091 -0.102,-0.091 -0.199,-0.186l-0.103,-0.084c-0.105,-0.092 -0.105,-0.092 -0.208,-0.186l-0.101,-0.09c-0.103,-0.093 -0.103,-0.093 -0.202,-0.19l-0.101,-0.092l-0.097,-0.095l-0.102,-0.093l-0.098,-0.098l-0.095,-0.093c-0.101,-0.092 -0.101,-0.092 -0.203,-0.183l-0.096,-0.097c-0.157,-0.14 -0.298,-0.274 -0.298,-0.274l-0.103,-0.084l-0.105,-0.093l-0.1,-0.089c-0.104,-0.085 -0.104,-0.085 -0.21,-0.169l-0.11,-0.088l-0.103,-0.091l-0.106,-0.086l-0.103,-0.091c-0.104,-0.085 -0.104,-0.085 -0.211,-0.168l-0.251,-0.18l-0.136,-0.124c-0.144,-0.115 -0.288,-0.23 -0.431,-0.345l-0.111,-0.089l-0.102,-0.091l-0.106,-0.085l-0.103,-0.091l-0.104,-0.084c-0.034,-0.027 -0.069,-0.055 -0.104,-0.082c-0.044,-0.033 -0.234,-0.169 -0.234,-0.169l-0.099,-0.089l-0.104,-0.083l-0.106,-0.085l-0.096,-0.075l-0.124,-0.081l-0.106,-0.085l-0.11,-0.084l-0.103,-0.088l-0.107,-0.08l-0.192,-0.132l-0.142,-0.061c-0.146,-0.153 -0.138,-0.163 -0.138,-0.163c0,0 -0.314,-0.007 -0.572,-0.035l-0.158,-0.011l-0.157,-0.01l-0.162,-0.004l-0.176,-0.006l-0.127,-0.001l-0.163,0l-0.157,-0.007l-0.168,-0.005l-0.165,-0.019l-0.166,-0.007l-0.169,-0.017l-0.171,-0.017l-0.158,-0.026l-0.17,-0.021c-0.291,-0.041 -0.694,-0.109 -0.694,-0.109l-0.032,0.292l-0.012,0.121l-0.097,0.073c-0.12,0.001 -0.105,0.003 -0.105,0.003l-0.089,0.139c-0.107,0.058 -0.273,0.018 -0.273,0.018l0.059,0.188c0,0 0.033,0.034 -0.189,0.157l-0.198,0.059c0,0 0.036,0.247 -0.336,0.072c-0.1,-0.047 0.016,-0.171 -0.293,-0.085l-0.223,-0.037c-0.037,-0.015 -0.037,-0.015 -0.069,-0.04l-0.123,-0.135l-0.07,-0.142l-0.094,-0.187l-0.075,-0.036l0.073,0.154c-0.028,0.244 -0.074,0.243 -0.074,0.243l-0.153,0.132l-0.15,0.083l-0.172,0.045l-0.2,0.006l-0.152,-0.041c-0.032,-0.013 -0.032,-0.013 -0.06,-0.032l-0.118,-0.106l-0.097,-0.118l-0.085,-0.13l-0.061,-0.134l-0.063,-0.159l-0.022,-0.189l0.032,-0.202l0.064,-0.219l0.023,-0.174l0.056,-0.177l0.084,-0.135c-0.076,-0.012 -0.151,-0.023 -0.227,-0.034l-0.185,-0.035l-0.243,-0.069c-0.048,0.008 -0.048,0.008 -0.096,0.001l-0.146,-0.048l-0.218,-0.069l-0.194,0.019c-0.033,-0.022 -0.06,-0.049 -0.081,-0.087c0,0 -0.206,-0.061 -0.387,-0.113l-0.153,-0.043l-0.146,-0.049l-0.147,-0.045c-0.195,-0.061 -0.39,-0.126 -0.583,-0.194l-0.145,-0.049c-0.14,-0.051 -0.14,-0.051 -0.279,-0.105l-0.145,-0.048c-0.187,-0.072 -0.374,-0.141 -0.559,-0.222l-0.139,-0.054c-0.136,-0.06 -0.136,-0.059 -0.269,-0.126l-0.144,-0.064l-0.12,-0.068l-0.138,-0.07l-0.175,-0.084l-0.214,0.046c-0.146,0.004 -0.041,0.094 -0.041,0.094c0.011,0.081 -0.066,0.174 -0.066,0.174c-0.267,0.125 -0.267,-0.147 -0.267,-0.147l-0.159,0.119l-0.122,-0.016l-0.068,-0.102c0,0 -0.028,-0.044 0.086,-0.19l0.095,-0.137c0,0 -0.081,0.026 -0.123,-0.136l-0.094,-0.027c-0.145,-0.049 -0.145,-0.049 -0.288,-0.104l-0.232,-0.044c-0.12,0.046 -0.227,-0.006 -0.282,-0.057l-0.073,0.005l-0.065,0.206c-0.036,0.07 -0.041,0.067 -0.087,0.131l-0.077,0.178l-0.118,0.045l-0.11,-0.062l-0.026,-0.059c0.002,-0.128 -0.072,-0.08 0.126,-0.358l0.05,-0.174c0,0 -0.449,0.034 -0.573,0.062c0,0 -0.005,0.21 -0.191,0.182l-0.099,-0.064l-0.127,0.053c-0.122,0.056 -0.122,0.055 -0.235,0.125l-0.116,0.069l-0.117,0.074l-0.109,0.068c-0.198,0.141 -0.505,0.417 -0.505,0.417l-0.108,0.107c-0.107,0.082 -0.107,0.082 -0.214,0.162l-0.109,0.087l-0.135,0.094c-0.167,0.084 -0.407,0.2 -0.407,0.2l-0.141,0.047l-0.149,0.057l-0.145,0.041l-0.144,0.051c-0.139,0.035 -0.294,0.073 -0.462,0.104l-0.15,0.032l-0.155,0.027l-0.154,0.033l-0.177,0.022l-0.177,0.022l-0.159,0.008l-0.163,0.013c-0.122,0.008 -0.214,0.016 -0.335,0.017c-0.278,0.003 -0.278,0.002 -0.514,-0.006l-0.187,0.006c-0.178,-0.005 -0.356,-0.011 -0.535,-0.016l-0.151,-0.005c-0.227,0.007 -0.264,0.049 -0.264,0.049l-0.182,0.041l-0.247,0.034l-0.235,0.17l-0.182,0.048c-0.335,0.021 -0.584,0.01 -0.832,-0.022c0,0 -0.092,-0.048 -0.129,0.038l-0.094,0.062c-0.087,0.004 -0.07,0.019 -0.131,-0.035c-0.227,-0.202 -0.332,-0.279 -0.487,-0.343c-0.129,-0.053 -0.137,-0.052 -0.271,-0.093l-0.144,-0.056l-0.136,-0.052l-0.142,-0.047c-0.14,-0.055 -0.276,-0.121 -0.414,-0.182l-0.138,-0.06l-0.128,-0.065l-0.136,-0.06c-0.127,-0.068 -0.246,-0.136 -0.361,-0.207l-0.136,-0.069l-0.115,-0.073l-0.123,-0.069l-0.121,-0.077l-0.148,-0.092l0.003,0.118l-0.157,0.099c-0.164,-0.032 -0.083,-0.014 -0.083,-0.014c-0.017,0.088 0.012,0.065 -0.086,0.216l-0.165,0.033c-0.093,-0.063 -0.165,-0.164 -0.208,-0.283l-0.123,-0.031l-0.052,-0.114l0.155,-0.202c0.148,-0.261 0.07,-0.226 0.07,-0.226l-0.14,-0.046l-0.109,-0.059c-0.261,-0.101 -0.193,-0.046 -0.193,-0.046c0,0 0.083,0.265 -0.077,0.341c-0.101,0.049 -0.174,0.099 -0.303,-0.048l-0.158,-0.199c-0.099,-0.234 -0.012,-0.237 -0.012,-0.237c-0.105,-0.094 -0.266,-0.129 -0.266,-0.129l-0.133,-0.051l-0.147,-0.042l-0.144,-0.048l-0.142,-0.041l-0.147,-0.031l-0.172,-0.043l0.069,0.17c-0.008,0.04 0.054,0.228 -0.268,0.299c-0.177,0.04 -0.076,0.031 -0.076,0.031c0,0 0.036,0.016 0.038,0.183l-0.077,0.101l-0.2,0l-0.126,0.15l-0.134,0.058c-0.079,0.02 -0.079,0.015 -0.16,0.021c0,0 -0.077,0.05 -0.139,0.06c-0.066,0.01 -0.177,-0.007 -0.247,-0.053l-0.114,-0.103c0,0 -0.107,-0.109 -0.251,-0.211l-0.226,0.228l-0.188,0.053c-0.151,0.167 -0.151,0.167 -0.151,0.167l-0.137,0.115l-0.14,0.066l-0.15,0.05l-0.13,0.034l-0.108,0.06c-0.04,0.022 -0.08,0.044 -0.121,0.065c-0.056,0.03 -0.288,0.142 -0.288,0.142c-0.155,0.04 -0.155,0.04 -0.312,0.071l-0.167,0.035l-0.181,0.016l-0.168,0.006l-0.147,0.009l-0.174,0.017c-0.152,0.009 -0.37,0.022 -0.37,0.022l-0.163,-0.005l-0.184,-0.001l-0.15,-0.015l-0.159,-0.006l-0.192,-0.001l-0.192,-0.034l-0.115,-0.04l-0.115,0.086l-0.148,0.023l-0.12,0.037c-0.12,0.05 -0.12,0.05 -0.236,0.108l-0.48,0.068l-0.122,0.034l-0.15,0.066l-0.12,0.022c-0.255,0.101 -0.242,0.132 -0.242,0.132l-0.184,0.105l-0.105,0.105l-0.176,0.168l-0.114,0.134c-0.061,0.03 -0.062,0.027 -0.126,0.048l-0.177,0.255l-0.129,0.067l-0.173,0.127c-0.118,0.122 -0.303,0.2 -0.303,0.2l-0.147,0.036l-0.145,0.053l-0.164,0.043l-0.172,0.021l-0.111,0.014c0,0 -0.027,0.048 -0.07,0.077c-0.064,0.045 -0.218,0.104 -0.218,0.104l-0.104,0.127l-0.186,0.097l-0.173,0.012l-0.156,-0.014l-0.159,-0.031l-0.182,-0.051l-0.206,0.123c-0.04,0.013 -0.04,0.013 -0.082,0.015l-0.184,-0.019l-0.167,-0.037l-0.149,-0.051c-0.056,-0.024 -0.226,-0.097 -0.281,-0.124c-0.043,-0.021 -0.084,-0.047 -0.127,-0.07l-0.128,-0.064c-0.024,-0.013 -0.226,-0.126 -0.248,-0.139c-0.101,-0.061 -0.133,-0.085 -0.225,-0.15l-0.116,-0.046c-0.166,-0.05 -0.304,-0.024 -0.57,0.124l-0.22,0.034l-0.163,0.026c-0.164,0.022 -0.164,0.022 -0.329,0.038l-0.153,0.026l-0.164,0.022l-0.163,0.022c-0.057,0.005 -0.114,0.012 -0.171,0.016c-0.001,0.001 -0.32,0.022 -0.323,0.022l-0.155,0.011c-0.162,0 -0.162,0 -0.324,-0.01l-0.247,0.083l-0.157,0.025l-0.164,0.048l-0.168,0.02c-0.227,0.01 0.056,0.061 -0.826,0c-0.138,-0.01 -0.309,-0.035 -0.494,-0.072l-0.158,-0.027l-0.317,-0.055l-0.172,0.293c-0.093,0.13 -0.263,-0.03 -0.263,-0.03c-0.035,-0.088 0.022,-0.219 0.022,-0.219l-0.109,0.096l-0.13,0.095l-0.142,0.075l-0.186,0.098l-0.122,0.064l-0.177,0.083l-0.177,0.022l-0.142,0.008l-0.152,0.019l-0.176,0.011l-0.165,0.011l-0.217,0.028c-0.136,0.052 -0.135,0.052 -0.27,0.108c0,0 -0.302,0.025 -0.52,0.005c-0.122,-0.011 -0.214,-0.03 -0.334,-0.052l-0.15,-0.02l-0.189,-0.009l-0.151,-0.037l-0.162,-0.029c-0.13,-0.029 -0.131,-0.026 -0.259,-0.063c0,0 0.07,0.193 -0.045,0.254c-0.059,0.032 -0.221,-0.008 -0.221,-0.008l-0.056,-0.105l-0.029,-0.209l-0.167,-0.095c-0.134,-0.023 -0.135,-0.017 -0.271,-0.004l-0.186,0.005l-0.176,-0.013l-0.16,-0.027l-0.131,-0.033l-0.131,-0.001c0,0 -0.038,0.185 -0.321,0.006c0,0 -0.025,-0.032 -0.236,-0.066l-0.143,-0.085c0,0 -0.323,-0.015 -0.323,-0.015c-0.1,0.365 -0.307,0.098 -0.307,0.098l-0.139,-0.107l-0.088,-0.043c-0.141,-0.03 -0.141,-0.029 -0.283,-0.054c-0.096,-0.017 -0.193,-0.035 -0.29,-0.053l-0.144,-0.027l-0.158,-0.027l-0.141,-0.033l-0.157,-0.031l-0.169,-0.03c-0.146,-0.042 -0.147,-0.042 -0.291,-0.09l-0.148,-0.028c-0.299,-0.085 -0.596,-0.177 -0.891,-0.275l-0.224,-0.055l-0.128,-0.014l-0.095,-0.058l-0.13,-0.037c-0.124,-0.035 -0.125,-0.034 -0.254,-0.043l-0.174,-0.057l-0.132,-0.047l-0.145,-0.049c0,0 -0.219,-0.061 -0.219,-0.061l-0.158,0.269c-0.056,0.046 -0.059,0.042 -0.12,0.08l-0.07,0.087c-0.069,0.063 -0.041,0.063 -0.206,0.129l-0.18,0.035l-0.176,0.011l-0.141,-0.005l-0.122,0.218l-0.151,0.189c-0.074,0.074 -0.078,0.069 -0.168,0.123c-0.081,0.049 -0.271,0.106 -0.512,0.123l-0.026,-0.001c-0.141,-0.016 -0.141,-0.015 -0.281,-0.039l-0.307,-0.086c0,0 0.044,0.4 -0.343,0.072c0,0 -0.201,-0.111 -0.155,-0.275l-0.131,-0.065c-0.04,-0.025 -0.08,-0.05 -0.12,-0.077c-0.024,-0.017 -0.207,-0.147 -0.231,-0.165c-0.232,-0.175 -0.142,-0.026 -0.294,-0.096c-0.033,-0.015 -0.079,-0.062 -0.101,-0.081l-0.182,-0.06c-0.035,-0.066 -0.032,-0.067 -0.054,-0.138l-0.155,-0.197c-0.02,-0.049 -0.033,-0.099 -0.036,-0.151l-0.156,-0.154l-0.089,-0.1l-0.108,-0.117l-0.077,-0.113l-0.13,-0.196l-0.092,0.143c-0.104,0.104 -0.332,0.041 -0.332,0.041c-0.085,-0.054 -0.137,-0.01 -0.193,-0.219l-0.091,-0.07l-0.227,-0.079c0,0 -0.141,0.025 -0.238,-0.045l-0.047,-0.106l-0.191,-0.108l-0.128,-0.064l-0.124,-0.07l-0.264,-0.069c0,0 -0.002,0.051 -0.036,0.098c-0.026,0.036 -0.089,0.07 -0.12,0.091l-0.042,0.092c-0.018,0.03 -0.018,0.03 -0.041,0.054l-0.106,0.087c-0.213,0.109 -0.236,0.072 -0.236,0.072l-0.176,0.003l-0.163,-0.018l-0.214,-0.037c-0.124,0.133 -0.141,0.09 -0.141,0.09c-0.116,-0.011 -0.091,0.024 -0.155,-0.106l-0.008,-0.053c-0.347,-0.034 -0.422,0.045 -0.422,0.045l-0.1,-0.007l-0.246,0.144l-0.179,0.035l-0.167,0.011l-0.193,0.019l-0.102,0.078l-0.193,0.138l-0.139,0.137c0,0 0.095,0.085 0.091,0.174c-0.003,0.067 -0.082,0.207 -0.082,0.207c-0.094,0.148 -0.207,0.289 -0.207,0.289l-0.127,0.066c-0.038,0.014 -0.038,0.014 -0.079,0.017l-0.176,-0.013c-0.03,0.033 -0.067,0.055 -0.107,0.071l-0.03,0.08c-0.017,0.031 -0.017,0.031 -0.04,0.057l-0.126,0.109l-0.118,0.069l-0.143,0.09l-0.172,0.051l-0.221,0.021l-0.093,0.108l-0.129,0.065l-0.124,0.059l-0.127,0.063c-0.212,0.058 -0.248,0.027 -0.248,0.027l-0.159,-0.01l-0.14,0.014l-0.232,0.03l-0.035,0.138c-0.056,0.222 -0.095,0.216 -0.095,0.216l-0.151,0.123l-0.144,0.079l-0.2,0.088l-0.159,0.254l-0.118,0.075c-0.032,0.015 -0.032,0.016 -0.067,0.023l-0.117,0.01c-0.186,0.131 -0.062,0.184 -0.062,0.184c0.074,0.167 -0.078,0.305 -0.078,0.305l-0.176,0.226l-0.1,0.092c-0.185,0.114 -0.206,0.086 -0.206,0.086l-0.146,0.029l-0.16,0.041l-0.212,0.008l-0.175,-0.04l-0.139,-0.056c-0.133,-0.058 -0.152,-0.062 -0.277,-0.136c-0.188,-0.11 -0.451,-0.323 -0.451,-0.323c-0.114,-0.08 -0.114,-0.08 -0.223,-0.167l-0.073,-0.056c-0.288,-0.023 -0.184,0.017 -0.184,0.017l-0.006,0.243c-0.029,0.108 0.003,0.126 -0.123,0.248c-0.062,0.061 -0.151,0.129 -0.151,0.129l-0.227,0.104l-0.166,0l-0.128,0.029l-0.105,0.097c-0.031,0.022 -0.031,0.022 -0.066,0.035l-0.211,0.051l-0.173,0.013c-0.043,-0.003 -0.129,-0.046 -0.129,-0.046l-0.06,0.079l0.001,0.213l-0.085,0.173c-0.07,0.117 -0.129,0.228 -0.353,0.492l-0.124,0.15l-0.142,0.16l-0.148,0.131c-0.257,0.196 -0.514,0.392 -0.771,0.588l-0.152,0.116l-0.149,0.117c-0.741,0.616 -1.481,1.233 -2.222,1.849l-0.147,0.123c-0.143,0.126 -0.143,0.125 -0.285,0.253l-0.14,0.126l-0.166,0.162l-0.232,0.109l-0.13,0.005c-0.138,0.085 -0.138,0.085 -0.271,0.177c-0.177,0.18 -0.354,0.36 -0.531,0.54c-0.139,0.141 -0.139,0.141 -0.282,0.277c-0.199,0.166 -0.399,0.331 -0.598,0.496l-0.145,0.119l-0.139,0.127c-0.166,0.095 -0.335,0.188 -0.499,0.287c-0.048,0.029 -0.279,0.178 -0.324,0.207c-0.48,0.281 -1.014,0.605 -1.341,0.78c-0.08,0.043 -0.367,0.184 -0.367,0.184l-0.154,0.052c-0.292,0.238 -0.584,0.476 -0.876,0.714l-0.148,0.12c-0.489,0.417 -0.977,0.835 -1.465,1.252l-0.182,0.148l-0.178,0.081c-0.422,0.162 -0.843,0.325 -1.264,0.487l-0.183,0.07c-0.547,0.186 -1.095,0.37 -1.635,0.575l-0.168,0.064l-0.113,0.066l-0.067,0.119l-0.083,0.187l-0.099,0.16l-0.073,0.139l-0.05,0.239l-0.114,0.178l0.177,0.17l0.087,0.097l0.186,0.078l0.036,0.051c0.047,0.248 0.001,0.261 0.001,0.261l-0.049,0.143l-0.038,0.18l-0.059,0.236c-0.049,0.056 -0.052,0.053 -0.11,0.1c0,0 0.022,0.057 -0.002,0.149l-0.067,0.172c-0.045,0.075 -0.166,0.134 -0.166,0.134l-0.087,0.202l-0.168,0.19l-0.17,0.088l-0.168,0.092l-0.146,0.075l-0.065,0.076c-0.02,0.233 -0.029,0.463 0.033,0.659c0.027,0.084 0.132,0.215 0.18,0.28l0.113,0.155l0.108,0.145c0.135,0.132 0.269,0.265 0.404,0.398l0.158,0.16c0.148,0.226 0.149,0.397 0.174,0.6c0,0 0.003,0.19 0.005,0.323l0.43,0.241l0.177,0.136c0.038,0.08 0.024,0.112 0.017,0.144l-0.083,0.196c-0.103,0.179 -0.217,0.306 -0.351,0.643c-0.083,0.207 -0.015,0.443 0.032,0.672l0.023,0.202c0.012,0.197 0.012,0.197 0.017,0.394c0,0 -0.065,0.242 -0.118,0.416l-0.055,0.185c-0.039,0.079 -0.074,0.088 -0.105,0.102l-0.218,0.053l-0.228,-0.004l-0.19,-0.05c-0.124,-0.04 -0.248,-0.079 -0.372,-0.119l-0.17,-0.055c-0.219,-0.027 -0.38,0.061 -0.519,0.188l-0.062,0.163l-0.127,0.208l-0.146,0.121c-0.19,0.158 -0.293,0.442 -0.293,0.442l-0.141,0.166l-0.125,0.093l-0.051,0.105l-0.101,0.211l-0.141,0.102l-0.175,0.129c-0.175,0.075 -0.175,0.075 -0.352,0.144l-0.146,0.065l-0.102,0.164c0.006,0.119 0.012,0.238 0.018,0.357l0.008,0.159c0.073,0.135 0.189,0.231 0.312,0.314c0.061,0.041 0.257,0.137 0.321,0.167c0.507,0.238 0.773,0.284 1.246,0.314c0.18,0.011 0.429,0.034 0.429,0.034l0.198,0.076l0.196,0.111c0.002,0.002 0.293,0.256 0.293,0.256c0.042,0.038 0.081,0.079 0.122,0.118l0.13,0.103c0.14,0.06 0.156,0.077 0.31,0.102c0.309,0.049 0.581,0.019 1.082,-0.119l0.193,-0.038c0.185,0 0.187,0.071 0.258,0.117Zm34.984,25.328l-0.078,0.031l0.038,0.053c0,0 0.16,-0.099 0.04,-0.084Zm-3.421,-6.047l0.134,0.038c0,0 -0.051,-0.038 -0.134,-0.038Zm-0.163,-0.001c0,0 0,-0.002 0,0Zm1.03,-0.762l0.086,-0.109l-0.217,0.016c0,0 -0.159,-0.002 -0.222,-0.028c0,0 -0.164,0.188 0.03,0.181c0,0 0.046,-0.079 0.115,-0.092c0.058,-0.011 0.141,0.009 0.208,0.032Zm65.378,-38.965l0.177,0.012l0.136,0.035l0.142,0.019l0.184,0.01l0.146,0.059l0.12,0.064c0.115,0.079 0.115,0.079 0.229,0.161l0.096,0.083l0.13,0.057l0.106,0.063l0.165,0.106l0.155,0.182c0.209,0.128 0.24,0.099 0.24,0.099l0.156,0.082l0.125,0.105l0.101,0.119l0.139,0.15l0.228,0.11l0.221,0.034l0.139,0.011c0.046,0.011 0.084,0.034 0.118,0.063c0,0 0.134,-0.054 0.206,0.017c0.072,0.071 0.142,0.238 0.142,0.238c0.011,0.01 0.159,0.129 0.171,0.136c0.032,0.019 0.067,0.03 0.101,0.045l0.133,0.061c0.044,0.03 0.054,0.005 0.083,0.111c0,0 0.005,-0.028 0.16,-0.011l0.337,0.326l0.097,0.097c0.024,0.031 0.024,0.031 0.039,0.067l0.038,0.144c0.009,0.061 -0.018,0.158 -0.021,0.173l0.003,0.199l-0.156,0.204c0.003,0.02 0.003,0.041 0.009,0.061c0.01,0.033 0.116,0.291 0.116,0.291l0.143,-0.071c0.046,-0.002 0.046,-0.002 0.09,0.009l0.129,0.057l0.165,0.061c0.103,0.082 0.144,0.071 0.144,0.071l0.103,-0.06c0,0 -0.022,-0.354 0.081,-0.487c0.256,-0.333 0.363,-0.308 0.363,-0.308l0.16,-0.023l0.189,-0.071c0,0 0.027,-0.136 0.121,-0.163c0.045,-0.012 0.15,0.002 0.176,0.003l0.078,-0.034c0.179,-0.16 0.139,-0.194 0.139,-0.194l-0.051,-0.14c0,0 -0.007,-0.102 0.012,-0.162c0.014,-0.045 0.079,-0.134 0.079,-0.134l0.125,-0.142l-0.213,-0.132l-0.158,0.055c-0.197,-0.095 -0.175,-0.193 -0.187,-0.247l-0.096,-0.073c-0.169,0.003 -0.177,-0.014 -0.218,-0.055c-0.024,-0.024 -0.041,-0.063 -0.055,-0.091l-0.207,-0.121c-0.068,-0.043 -0.141,-0.08 -0.219,-0.101c-0.128,-0.035 -0.129,-0.029 -0.26,-0.039c0,0 -0.041,0.019 -0.214,-0.047c0,0 -0.2,-0.131 -0.131,-0.308c0,0 -0.113,0.105 -0.341,-0.057l-0.114,-0.074l-0.131,-0.085c-0.216,-0.183 -0.434,-0.346 -0.434,-0.346l-0.104,-0.093l-0.185,-0.142c-0.121,-0.064 -0.12,-0.064 -0.243,-0.126l-0.121,-0.066c-0.038,-0.016 -0.075,-0.037 -0.114,-0.05c-0.041,-0.013 -0.262,-0.046 -0.281,-0.049l-0.164,-0.033c-0.088,-0.037 -0.084,-0.043 -0.163,-0.096l-0.212,-0.092l-0.287,0.03l-0.168,-0.008l-0.156,-0.031l-0.156,-0.021c-0.036,-0.01 -0.036,-0.01 -0.069,-0.028l-0.132,-0.1l-0.22,-0.216l0.012,-0.161c0.08,-0.078 0.053,-0.081 0.169,-0.053c0,0 -0.13,-0.206 -0.2,-0.255c-0.098,-0.069 -0.264,-0.135 -0.264,-0.135l-0.121,-0.092l-0.129,0.054c-0.156,0.044 -0.303,-0.119 -0.303,-0.119c-0.146,-0.048 -0.146,-0.048 -0.29,-0.104l-0.165,-0.103l-0.142,-0.131l-0.301,-0.034c-0.061,-0.043 -0.058,-0.047 -0.111,-0.099l-0.07,0.099l-0.075,0.129l-0.091,0.125c-0.09,0.102 -0.09,0.102 -0.187,0.198l-0.114,0.191c-0.085,0.062 -0.193,0.026 -0.26,-0.035c0,0 0.019,0.014 -0.152,0.167l-0.213,0.066l-0.199,0.01l0.176,0.13c0.047,0.106 0.02,0.114 0.02,0.114l0.066,0.164l0.007,0.25l-0.064,0.127c-0.028,0.039 -0.028,0.039 -0.066,0.066l-0.128,0.065c-0.189,0.056 -0.224,0.031 -0.224,0.031l0.069,0.157c0,0 -0.068,0.207 -0.237,0.242l0.113,0.219c0.052,0.118 0.052,0.118 0.127,0.223l0.074,0.125c0.329,0.501 0.549,0.463 0.549,0.463l0.103,0.047l0.115,-0.001l0.153,-0.007l0.158,-0.004c0.075,0.013 0.13,0.065 0.162,0.132l0.183,0.093l0.042,-0.084l-0.066,-0.177l-0.085,-0.134c-0.043,-0.093 -0.074,-0.173 -0.074,-0.266l-0.18,-0.242l0.055,-0.143l0.006,-0.15c0.078,-0.144 0.245,-0.126 0.266,-0.13c0.09,-0.017 0.219,-0.062 0.219,-0.062c0,0 0.029,-0.124 0.116,-0.148c0.052,-0.014 0.194,0.009 0.209,0.01c0.046,0.007 0.092,0.013 0.138,0.019Zm8.114,2.106l0.063,0.119l0.065,-0.014l-0.015,-0.108c0,0 -0.047,-0.001 -0.113,0.003Zm-0.346,-0.151l-0.088,0.104l0.212,0.073c0,0 0.076,-0.049 0.076,-0.049c-0.149,-0.148 -0.07,-0.133 -0.2,-0.128Zm0.744,0.05l0.128,-0.034l-0.167,-0.051c0.013,0.028 0.026,0.057 0.039,0.085Zm-2.19,-0.84c0.08,0.032 0.144,0.15 0.144,0.15l0.115,0.064c0.221,-0.049 0.08,-0.075 0.246,-0.079c0,0 0.166,-0.011 0.112,0.269l0.103,0.137c0.111,0.043 0.112,0.038 0.23,0.061c0,0 0.087,0.023 0.122,0.127l0.14,-0.149l0.153,-0.083c-0.128,-0.054 -0.128,-0.054 -0.259,-0.099l-0.146,-0.071l-0.127,-0.062l-0.134,-0.061l-0.134,-0.067l-0.124,-0.068l-0.127,-0.063c-0.353,-0.182 -0.389,-0.221 -0.499,-0.293l-0.121,-0.077l-0.128,-0.092l-0.1,-0.088l-0.108,-0.086l-0.088,-0.079l-0.108,0.186c-0.053,0.054 -0.056,0.051 -0.118,0.095l-0.063,0.143l0.224,0.025l0.163,0.037l0.18,0.064c0.112,0.071 0.112,0.07 0.221,0.148l0.107,0.043c0,0 0.063,-0.044 0.124,-0.032Zm-1.922,-0.95c0.004,0.003 0.19,0.163 0.199,0.169c0.034,0.025 0.072,0.046 0.108,0.069l0.164,0.11l0.164,-0.052l0.089,-0.132c0,0 -0.202,-0.038 -0.364,-0.074l-0.155,-0.033c0,0 -0.287,-0.128 -0.205,-0.057Zm-15.077,-7.56l0.186,0.004l0.076,0.018c0,0 -0.044,-0.073 -0.018,-0.14c0.096,-0.243 0.223,-0.317 0.24,-0.333c0,0 0.088,-0.131 0.192,-0.113c0.059,0.01 0.178,0.093 0.178,0.093l0.049,-0.062c0,0 -0.082,0.068 -0.194,-0.085c0,0 -0.12,-0.068 -0.214,-0.196l-0.127,-0.012l-0.137,-0.049c-0.243,-0.069 -0.261,-0.035 -0.261,-0.035c-0.154,-0.027 -0.359,-0.071 -0.359,-0.071l-0.21,-0.073l-0.192,-0.026l-0.147,-0.042l-0.149,-0.036l-0.23,-0.012c-0.097,0.017 -0.208,-0.043 -0.243,-0.059l-0.167,-0.043l-0.134,0.154c-0.036,0.125 -0.034,0.126 -0.049,0.255l-0.024,0.155c-0.022,0.069 -0.026,0.067 -0.057,0.132c0,0 -0.018,0.223 0.101,0.439c0.04,0.073 0.119,0.167 0.204,0.241c0,0 0.201,0.101 0.462,-0.116l-0.032,-0.126l-0.06,-0.227l0.034,-0.148c0.082,-0.187 0.333,-0.071 0.333,-0.071l0.103,0.073l0.173,0.105l0.098,0.145l0.051,0.132c0.108,0.216 0.166,0.169 0.166,0.169l0.135,-0.035l0.184,-0.017c0.013,0.004 0.026,0.008 0.039,0.012Zm-64.641,-1.151l-0.169,0.169c0.131,0.064 0.174,0 0.174,0c0.028,-0.043 0.055,-0.086 0.082,-0.128c0,0 -0.001,-0.101 -0.087,-0.041Zm-0.719,-0.153c-0.237,0.168 -0.026,0.109 -0.026,0.109c0.078,0.011 0.077,0.016 0.153,0.039l0.142,0.028l0.185,-0.179l-0.174,-0.008l-0.161,-0.001c-0.04,0.004 -0.079,0.008 -0.119,0.012Zm43.665,-1.384c0,0 -0.001,-0.001 0,0Zm-3.4,-1.173l-0.135,0.126c-0.066,0.063 -0.202,0.111 -0.202,0.111c-0.026,0.212 -0.267,0.241 -0.267,0.241l0.114,0.081l0.138,0.103l0.179,0.154l0.136,-0.054l0.183,-0.039l0.164,-0.201l0.067,-0.118l0.088,-0.162c0,0 0.001,-0.049 0.231,-0.023c0,0 -0.276,-0.091 -0.276,-0.091l-0.1,-0.063l-0.234,-0.079c-0.029,0.004 -0.058,0.009 -0.086,0.014Zm-0.9,-0.241l0.064,0.191l0.022,0.161c-0.001,0.269 0.003,0.14 0.003,0.14l0.124,-0.071c0,0 -0.015,-0.253 0.162,-0.406l0.066,-0.046l-0.122,-0.017c-0.161,-0.01 -0.161,-0.01 -0.322,-0.016c0,0 -0.091,-0.081 0.003,0.064Zm-1.475,-0.318l0.082,0.072c0.082,0.015 0.082,0.014 0.163,0.023l0.079,-0.044l-0.144,-0.024c0,0 -0.233,-0.065 -0.18,-0.027Z" style="" fill-rule="nonzero"></path><path d="M103.043,47.1c0.154,0.013 0.279,0.176 0.279,0.176c0,0 0.3,0.027 0.359,0.157c0.023,0.061 0.051,0.122 0.059,0.182l0.015,0.134c0.069,0.296 0.245,0.527 0.3,0.821c0.035,0.279 -0.627,0.562 -0.603,0.228l0.024,-0.253c0,0 -0.216,-0.302 -0.172,-0.444c0,0 0.09,-0.007 -0.08,-0.22l-0.128,-0.175c-0.208,-0.08 -0.276,-0.271 -0.202,-0.505c0.024,-0.062 0.06,-0.102 0.149,-0.101Zm0.399,0.561c0,0 -0.072,-0.124 0,0Z" style="" fill-rule="nonzero"></path><path d="M67.469,28.438l0.072,0.009l0.021,-0.15c0.009,-0.049 0.021,-0.061 0.042,-0.084l0.141,-0.193c0.047,-0.066 0.129,-0.087 0.184,-0.141c0.131,-0.126 0.078,-0.33 0.462,-0.409c0.049,-0.008 0.027,0.029 0.139,-0.074c0.275,-0.214 0.732,-0.157 0.723,0.05c0,0 0.149,-0.167 0.412,0.129c0.139,0.167 0.014,0.452 -0.26,0.516l-0.139,0.026l-0.141,0.038c-0.089,0.014 0.085,0.096 -0.005,0.238c-0.111,0.148 -0.298,0.34 -0.298,0.34c-0.11,0.087 -0.304,-0.041 -0.304,-0.041c-0.139,0.046 -0.347,0.226 -0.347,0.226c-0.097,0.072 -0.011,0.06 -0.108,0.139c-0.22,0.151 -0.258,0.148 -0.332,0.219c-0.112,0.095 -0.225,0.149 -0.225,0.149c0,0 -0.024,0.092 -0.106,0.137l-0.128,0.063l-0.127,0.068c-0.134,0.054 -0.306,-0.052 -0.276,-0.199c0.017,-0.061 0.022,-0.098 0.06,-0.179l0.067,-0.13c0.152,-0.265 0.112,-0.242 0.112,-0.242c-0.026,-0.13 0.089,-0.211 0.089,-0.211l0.029,-0.122c0.04,-0.108 0.122,-0.183 0.243,-0.172Zm1.088,-0.058c0.072,0.013 0.132,0.064 0.132,0.064l0.139,-0.167l-0.024,-0.305c0.026,-0.158 0.282,-0.116 0.282,-0.116c0,0 0.4,-0.082 0.238,-0.068c-0.09,0.008 -0.173,-0.053 -0.173,-0.053c0,0 -0.209,0.037 -0.247,-0.121c-0.016,-0.105 -0.022,-0.075 -0.022,-0.075c-0.168,0.059 -0.079,0.068 -0.092,0.135c-0.025,0.121 -0.19,0.181 -0.296,0.139l-0.145,-0.028l-0.094,0.149c-0.093,0.195 -0.102,0.149 -0.122,0.168c-0.062,0.048 -0.147,0.104 -0.147,0.104l-0.134,0.182c-0.032,0.225 0.018,0.184 -0.012,0.269c-0.063,0.183 -0.338,0.088 -0.338,0.088l-0.086,0.195c0,0 0.035,0.102 -0.014,0.173c0,0 -0.12,0.115 0.041,0.01c0.09,-0.059 0.185,-0.169 0.185,-0.169c0.012,-0.009 0.024,-0.017 0.037,-0.024c0,0 0.163,-0.044 0.149,-0.085c-0.038,-0.137 0.204,-0.194 0.204,-0.194c0.022,-0.022 0.028,-0.034 0.07,-0.064l0.122,-0.08c0.137,-0.075 0.29,-0.125 0.29,-0.125c0.016,-0.003 0.019,-0.007 0.057,-0.002Z" style="" fill-rule="nonzero"></path><path d="M61.553,28.947l0.147,0.031c0.115,0 0.115,-0.002 0.229,-0.02l0.144,-0.02l0.157,-0.04c0.114,-0.004 0.21,0.102 0.21,0.102c0.13,0.104 0.064,0.198 0.064,0.198c-0.012,0.172 -0.287,0.121 -0.287,0.121l-0.178,0.084l-0.085,0.082l-0.112,0.081c-0.176,0.109 -0.249,-0.052 -0.249,-0.052c-0.105,-0.082 -0.147,-0.127 -0.147,-0.127l-0.229,0.047c-0.091,0.031 -0.217,0.073 -0.217,0.073c-0.138,0.016 -0.034,-0.026 -0.125,0.065c-0.101,0.1 -0.282,-0.048 -0.282,-0.048c-0.248,-0.062 -0.096,0.004 -0.224,0.079c0,0 -0.098,0.064 -0.174,0.076l-0.156,0.035c0,0 -0.04,0.152 -0.15,0.18l-0.163,0.03c-0.187,0.022 -0.167,-0.018 -0.243,-0.003l-0.123,0.044c-0.169,0.048 -0.167,0.091 -0.261,0.065l-0.068,-0.024l-0.226,0.126c-0.088,0.05 -0.052,0.039 -0.064,0.062l-0.075,0.118c-0.047,0.064 -0.064,0.059 -0.105,0.068l-0.199,0.03c-0.021,0.005 -0.021,0.005 -0.041,0.008l-0.106,0.029c-0.084,0.143 -0.204,0.068 -0.204,0.068l-0.11,0.051c-0.036,0.009 -0.045,0.007 -0.057,0.007l-0.149,-0.01c-0.069,-0.009 -0.064,0.003 -0.064,0.003l-0.197,0.071c0,0 -0.043,0.093 -0.129,0.112l-0.123,0.019l-0.229,0.174c-0.213,0.106 -0.052,0.042 -0.106,0.146l-0.064,0.107c-0.088,0.126 -0.182,0.076 -0.182,0.076c-0.041,0.032 0.015,0.065 -0.131,0.036c-0.054,-0.011 -0.072,-0.033 -0.091,-0.057l-0.207,0.083l-0.141,0.069l-0.145,0.048c-0.06,0.016 -0.068,0.007 -0.095,0l-0.079,-0.026c-0.157,-0.013 -0.193,0.034 -0.193,0.034c0,0 -0.262,0.291 -0.463,0.471l-0.166,0.144l-0.114,0.101l-0.126,0.09l-0.142,0.078c-0.118,0.038 -0.222,-0.053 -0.201,-0.175l0.029,-0.251c0.007,-0.036 0.013,-0.043 0.018,-0.054l0.058,-0.103c0.059,-0.274 0.045,-0.277 0.045,-0.277l0.066,-0.256c0.141,-0.129 -0.014,-0.095 0.171,-0.115c0,0 0.032,-0.036 0.206,-0.173l0.153,-0.119l0.117,-0.094c0.122,-0.077 0.122,-0.077 0.249,-0.148l0.236,-0.105c0.015,-0.007 0.015,-0.007 0.03,-0.011l0.109,-0.028l0.09,-0.079c0.092,-0.054 0.061,-0.041 0.239,-0.085l0.108,0.017c0.058,0.039 0.039,0.011 0.071,-0.003l0.063,-0.023c0,0 0.059,-0.171 0.211,-0.134c0,0 0.19,-0.031 0.392,-0.145l0.132,-0.066c0.055,-0.023 0.064,-0.016 0.09,-0.014l0.125,0.019c0.091,0.008 0.092,0.013 0.18,-0.013l0.067,-0.069c0.014,-0.013 0.014,-0.013 0.03,-0.024l0.125,-0.076c0.116,-0.058 0.255,-0.123 0.255,-0.123l0.113,-0.024l0.156,-0.137c0.119,-0.061 0.1,-0.036 0.133,-0.039l0.175,-0.06l0.126,-0.042l0.12,-0.06l0.125,-0.059c0.013,-0.006 0.013,-0.006 0.027,-0.01l0.251,-0.092c0.052,-0.012 0.104,0.003 0.143,0.027l0.234,-0.058l0.236,-0.06c0,0 0.089,-0.139 0.226,-0.083l0.064,0.031l0.272,-0.046l0.131,0.005l0.157,-0.021l0.156,0.001c0.032,0.005 0.039,0.01 0.049,0.014l0.207,0.083l0.134,-0.022l0.175,-0.023c0.057,0 0.114,0.002 0.171,0.007Zm-3.839,1.257c0.049,0.018 0.102,0.067 0.102,0.067c0,0 -0.006,-0.095 0.053,-0.15c0.069,-0.065 0.211,-0.007 0.211,-0.007c0.168,-0.011 0.09,0.005 0.161,-0.035c0.086,-0.048 0.205,0.014 0.205,0.014c0,0 -0.137,-0.203 0.153,-0.262c0,0 -0.002,-0.089 0.088,-0.137l0.173,-0.031c0.044,-0.084 -0.018,-0.065 0.128,-0.079l0.14,0.06c0.084,-0.146 0.222,-0.089 0.222,-0.089c0.056,-0.28 0.125,-0.006 -0.115,-0.15l-0.199,0.066c-0.257,0.122 -0.256,0.123 -0.256,0.123l-0.214,0.096c-0.04,0.021 -0.045,0.019 -0.073,0.022l-0.15,0.041l-0.083,0.089c-0.022,0.016 -0.025,0.021 -0.066,0.032l-0.14,0.031c-0.024,0.011 -0.188,0.093 -0.192,0.095c-0.091,0.051 -0.193,0.157 -0.193,0.157c-0.031,0.022 -0.04,0.023 -0.052,0.027l-0.14,0.041c-0.035,0.008 -0.044,0.006 -0.055,0.006l-0.231,-0.026l-0.339,0.185l-0.153,0.065c-0.208,0.041 -0.085,0.027 -0.176,0.067l-0.232,0.106c-0.035,0.012 -0.044,0.01 -0.056,0.011l-0.171,0.097c-0.143,0.049 -0.061,0.044 -0.156,-0.022l-0.224,0.088l-0.131,0.044c-0.27,0.151 -0.461,0.323 -0.461,0.323l-0.196,0.184c-0.089,0.11 0.02,0.062 -0.133,0.148l-0.03,0.193l-0.03,0.139l0.165,-0.138l0.183,-0.164l0.17,-0.169l0.077,-0.11c0.013,-0.013 0.013,-0.013 0.027,-0.024l0.107,-0.075c0.037,-0.023 0.043,-0.022 0.069,-0.026l0.254,-0.001c0.099,0.015 0.171,-0.005 0.171,-0.005l0.231,-0.102l0.149,-0.113c0.161,-0.124 0.143,-0.046 0.204,-0.028c0.167,0.051 0.044,-0.115 0.206,-0.175l0.116,-0.043l0.2,-0.17c0.096,-0.067 0.155,-0.026 0.155,-0.026c0,0 0.031,-0.081 0.117,-0.106l0.108,-0.024c0.253,-0.112 0.088,-0.177 0.302,-0.13Zm2.531,-0.989l-0.118,0.044c-0.141,0.022 -0.092,-0.008 -0.21,0.026l-0.145,0.031c0,0 -0.113,0.058 -0.113,0.058c0.038,0.056 0.031,0.067 0.032,0.097l0.027,0.149l0.208,-0.195c0.04,-0.026 0.046,-0.024 0.074,-0.029l0.189,-0.038c0,0 0.029,-0.107 0.108,-0.148c-0.017,0.002 -0.034,0.004 -0.052,0.005Zm0.427,-0.028l-0.121,0.017l0.15,0.038c0,0 0.081,-0.055 -0.029,-0.055Z" style="" fill-rule="nonzero"></path><path d="M48.853,34.806l0.171,0.011c0.322,0.031 0.291,0.107 0.343,0.239c0.084,0.208 -0.177,0.415 -0.177,0.415c0,0 0.037,0.1 -0.025,0.175c-0.153,0.16 -0.427,0.177 -0.471,0.02l-0.205,0.114c-0.027,0.063 -0.044,0.064 -0.081,0.081l-0.133,0.055c-0.142,0.047 -0.142,0.047 -0.286,0.088l-0.125,0.048l-0.122,0.061c-0.02,0.01 -0.029,0.011 -0.029,0.011c-0.164,0.037 -0.345,0.027 -0.43,-0.06l-0.06,-0.066c-0.343,-0.107 -0.199,-0.034 -0.279,-0.085c-0.16,-0.1 -0.127,-0.402 -0.051,-0.487c0.049,-0.046 0.096,-0.099 0.152,-0.124l0.126,-0.052l0.119,-0.041c0.127,-0.054 0.111,-0.082 0.269,-0.109c0.105,-0.018 0.175,0.038 0.175,0.038c0,0 0.1,-0.258 0.267,-0.283c0.167,-0.012 0.336,0.087 0.336,0.087c0,0 0.07,0.005 0.215,-0.021c0,0 0.109,-0.12 0.301,-0.115Zm-0.079,0.32l-0.173,0.091l-0.122,0.038c-0.04,0.011 -0.042,0.007 -0.06,0.006c-0.203,-0.029 -0.342,-0.109 -0.342,-0.109c0,0 -0.076,0.207 -0.196,0.256c-0.147,0.048 -0.312,0.009 -0.312,0.009c-0.424,0.176 -0.33,0.103 -0.427,0.19l-0.008,0.053l0.217,0.064c0.085,0.03 0.126,0.108 0.126,0.108l0.15,0.004c0.108,-0.055 0.273,-0.119 0.273,-0.119l0.139,-0.039c0,0 0.119,-0.017 0.163,-0.137c0.036,-0.101 0.203,-0.15 0.203,-0.15c0.069,-0.073 0.08,-0.062 0.122,-0.065c0.187,0 0.369,0.059 0.369,0.059c0.142,-0.288 0.321,-0.255 -0.04,-0.278c-0.027,0.006 -0.055,0.013 -0.082,0.019Z" style="" fill-rule="nonzero"></path><path d="M38.402,87.61c0.147,0.02 0.239,0.22 0.138,0.329c-0.116,0.113 -0.258,0.223 -0.375,0.195l-0.112,-0.028c-0.22,0.019 -0.21,0.057 -0.239,0.064c-0.163,0.031 -0.341,-0.212 -0.365,-0.316c-0.039,-0.2 -0.018,-0.413 0.127,-0.449c0.147,-0.169 0.404,-0.287 0.458,-0.096c0,0 -0.015,0.099 0.069,0.088c0.167,-0.015 0.212,0.216 0.212,0.216c0.029,-0.002 0.059,-0.006 0.087,-0.003Zm-0.56,0.112c-0.042,0.051 -0.172,0.02 -0.036,0.128c0.02,-0.008 0.04,-0.018 0.061,-0.025c0.081,-0.024 0.213,-0.02 0.213,-0.02c0,0 -0.232,-0.092 -0.238,-0.083Z" style="" fill-rule="nonzero"></path><path d="M35.562,87.744c0,0 0.325,0.038 0.383,0.228c0,0 0.117,-0.008 0.117,0.269c-0.005,0.14 -0.206,0.201 -0.322,0.172c0,0 0.119,0.105 0.073,0.216l-0.041,0.146c0,0 0.127,0.191 -0.009,0.286l-0.054,0.061c0,0 0.108,0.178 -0.16,0.313c-0.13,0.06 -0.222,-0.053 -0.364,-0.053l-0.131,-0.005c-0.129,0.021 -0.157,0.013 -0.22,0.013c-0.229,-0.002 -0.342,-0.111 -0.342,-0.111c-0.124,-0.047 -0.13,-0.036 -0.248,-0.09c-0.1,-0.055 -0.103,-0.17 -0.103,-0.17c-0.279,-0.171 -0.324,-0.46 -0.164,-0.631c-0.076,-0.143 -0.032,-0.185 0.02,-0.279c0.046,-0.084 0.209,-0.074 0.209,-0.074c0.067,-0.123 0.212,-0.284 0.44,-0.087c0.07,0.066 0.116,0.069 0.116,0.069l0.162,-0.079c0,0 0.035,-0.127 0.13,-0.165c0.179,-0.058 0.356,-0.008 0.356,-0.008c0.049,-0.009 0.054,-0.031 0.152,-0.021Zm-0.39,1.337c0.25,-0.072 0.208,-0.014 0.272,-0.145c0.1,-0.207 -0.028,-0.159 0.048,-0.325c-0.196,-0.056 -0.358,-0.14 -0.258,-0.389c0.061,-0.138 0.228,-0.119 0.228,-0.119l0.144,-0.039l-0.397,-0.024c-0.095,0.185 -0.326,0.286 -0.442,0.281c-0.161,-0.018 -0.305,-0.13 -0.305,-0.13c0,0 -0.05,0.119 -0.145,0.133c0,0 -0.004,-0.041 -0.001,0.096c0.002,0.097 -0.106,0.162 -0.106,0.162l-0.014,0.1c0.086,0.091 0.153,0.037 0.211,0.189l0.023,0.065l0.187,0.07c0.052,0.022 0.107,0.071 0.107,0.071c0.15,0.016 0.316,0 0.316,0c0.044,0 0.088,0.002 0.132,0.004Z" style="" fill-rule="nonzero"></path><path d="M37.803,88.45c0.172,0.011 0.317,0.183 0.317,0.183c0.199,0.14 0.292,0.508 0.146,0.61c0,0 -0.018,0.077 -0.165,0.27l-0.04,0.148c-0.01,0.116 -0.019,0.242 -0.117,0.276c-0.127,0.037 -0.214,0.148 -0.368,-0.164c-0.007,-0.015 -0.011,-0.03 -0.013,-0.046l-0.015,-0.135c-0.034,-0.189 -0.116,-0.41 -0.039,-0.509l0.057,-0.07c0.148,-0.265 0.001,-0.171 0.09,-0.461c0.022,-0.061 0.078,-0.103 0.147,-0.102Zm0.138,0.425c-0.04,0.239 -0.08,0.249 -0.134,0.318l-0.035,0.063c0.084,0.244 0.092,0.072 0.092,0.072c0.111,-0.167 0.068,-0.169 0.078,-0.198c0.04,-0.094 0.131,-0.048 0.061,-0.213c0,0 -0.061,-0.051 -0.062,-0.042Z" style="" fill-rule="nonzero"></path><path d="M34.341,89.304c0.11,-0.057 0.234,0.075 0.234,0.075c0.334,0.013 0.351,0.037 0.4,0.1c0.084,0.118 0.076,0.279 0.101,0.316c0.089,0.155 -0.009,0.352 -0.009,0.352c-0.021,0.089 -0.029,0.192 -0.107,0.237l-0.131,0.07c-0.059,0.026 -0.098,0.058 -0.173,0.069l-0.153,0.02c-0.164,0.007 -0.309,-0.034 -0.309,-0.034c-0.224,-0.004 -0.353,-0.153 -0.349,-0.411c0.002,-0.051 -0.004,-0.013 -0.064,-0.154c-0.052,-0.121 0.128,-0.244 0.128,-0.244c0,-0.185 0.139,-0.348 0.27,-0.351c0,0 0.072,0.003 0.162,-0.045Zm0.024,0.327c-0.092,0.047 -0.147,0.03 -0.147,0.03l-0.062,0.232c0.056,0.107 -0.011,0.225 -0.011,0.225c0,0 -0.046,0.048 0.122,0.099c0,0 0.22,0.041 0.33,0.011c0.046,-0.012 0.115,-0.052 0.161,-0.076l0.044,-0.221c-0.012,-0.016 -0.024,-0.032 -0.036,-0.048c-0.13,-0.198 -0.137,-0.122 -0.168,-0.166c0,0 0.027,-0.012 -0.119,-0.045c-0.066,-0.019 -0.07,-0.064 -0.114,-0.041Z" style="" fill-rule="nonzero"></path></g></svg>