<svg height='100px' width='100px'  fill="#000000" xmlns="http://www.w3.org/2000/svg" xmlns:xlink="http://www.w3.org/1999/xlink" version="1.1" x="0px" y="0px" viewBox="0 0 96 96" enable-background="new 0 0 96 96" xml:space="preserve"><g><g><g><path d="M8.332,36.762c3.179-0.959,5.671-2.961,8.359-4.839c5.132-3.587,8.124-0.398,12.109,2.733     c5.658,4.446,10.794,1.314,16.302-1.551c5.161-2.686,9.328,1.081,13.729,3.178c2.781,1.325,5.571,1.127,8.455,0.316     c5.038-1.417,9.131-6.084,14.181-1.772c2.043,1.744,3.772,2.904,6.532,2.824c1.608-0.047,1.613-2.547,0-2.5     c-3.556,0.104-5.71-3.452-8.877-4.635c-2.869-1.072-6.368,0.774-8.851,1.995c-5.599,2.752-9.06,2.418-14.332-0.66     c-2.364-1.38-5.281-2.599-8.079-2.14c-3.996,0.656-7.004,3.318-10.781,4.586c-4.436,1.489-7.791-2.62-10.906-4.981     c-6.921-5.246-12.265,3.151-18.506,5.035C6.129,34.815,6.785,37.229,8.332,36.762L8.332,36.762z"></path></g></g><g><g><path d="M8,52.849c2.222-0.262,3.773-0.806,5.497-2.262c5.403-4.566,9.429-4.688,15.174-0.61     c6.463,4.586,12.531,2.732,18.514-1.337c4.417-3.005,7.283,1.237,11.232,2.444c3.207,0.979,6.036,0.345,9.098-0.892     c4.861-1.963,7.438-2.722,12.021,0.092c2.521,1.548,4.807,2.733,7.831,2.564c1.603-0.09,1.611-2.59,0-2.5     c-6.121,0.343-9.611-5.941-16.163-4.388c-5.149,1.221-8.463,4.87-13.953,1.735c-2.346-1.339-5.279-3.474-8.196-2.618     c-2.683,0.786-4.749,2.628-7.13,4.022c-6.008,3.519-10.93-1.133-15.966-3.766c-2.396-1.253-4.979-1.314-7.559-0.804     c-4.187,0.829-6.181,5.32-10.4,5.817C6.419,50.535,6.4,53.037,8,52.849L8,52.849z"></path></g></g><g><g><path d="M8.633,67.202c2.175-0.095,3.614-0.661,5.357-2.008c6.485-5.011,10.204-0.702,16.362,1.333     c7.442,2.46,12.421-2.954,19.547-3.153c3.539-0.099,6.968,3.489,10.592,4.079c2.512,0.41,5.274-0.399,7.535-1.427     c2.255-1.024,4.421-2.327,6.736-3.209c2.01-0.766,4.684,2.745,6.04,3.795c2.041,1.58,4.721,1.787,7.197,1.856     c1.613,0.045,1.608-2.455,0-2.5c-4.485-0.126-6.113-2.355-9.348-4.727c-1.998-1.465-3.723-1.152-5.972-0.295     c-3.619,1.378-6.522,3.688-10.524,4.087c-4.317,0.432-7.061-3.508-11.078-4.012c-2.686-0.337-4.923,0.368-7.42,1.341     c-5.665,2.206-9.629,3.444-15.397,0.399c-3.248-1.715-6.071-2.942-9.802-2.486c-3.779,0.462-6.068,4.263-9.826,4.426     C7.027,64.771,7.021,67.272,8.633,67.202L8.633,67.202z"></path></g></g></g></svg>