<svg height='100px' width='100px'  fill="#000000" xmlns="http://www.w3.org/2000/svg" xmlns:xlink="http://www.w3.org/1999/xlink" viewBox="0 0 24 24" version="1.1" x="0px" y="0px"><title>icon/perscription-solid</title><desc>Created with Sketch.</desc><g stroke="none" stroke-width="1" fill="none" fill-rule="evenodd"><path d="M6,4.999 L11,4.999 C12.654,4.999 14,6.345 14,7.999 C14,9.653 12.654,10.999 11,10.999 L6,10.999 L6,4.999 Z M20.207,13.207 L18.793,11.793 L15,15.585 L12.239,12.824 C14.396,12.27 16,10.325 16,7.999 C16,5.242 13.757,2.999 11,2.999 L6,2.999 L4,2.999 L4,4.999 L4,10.999 L4,12.999 L4,19.999 L6,19.999 L6,12.999 L9.586,12.999 L13.586,16.999 L9.793,20.792 L11.207,22.206 L15,18.413 L18.793,22.206 L20.207,20.792 L16.414,16.999 L20.207,13.207 Z" fill="#000000"></path></g></svg>