<svg height='100px' width='100px'  fill="#000000" xmlns="http://www.w3.org/2000/svg" xmlns:xlink="http://www.w3.org/1999/xlink" version="1.1" x="0px" y="0px" viewBox="0 0 300 300" style="enable-background:new 0 0 300 300;" xml:space="preserve"><path d="M278,66h-49V37h5V23H62v14h2v29H22v3h42v126.2l78.5,35c-2.4,22.8-34.9,40.9-74.8,40.9  c-1.8,0-3.2,1.5-3.2,3.3c0,1.8,1.5,3.3,3.3,3.3c21.5,0,41.8-5,57.1-14.2c14.7-8.8,23.1-20.5,24.2-33.1l79.9-35.1V69h49V66z M222,188  h-34v-23h34V188z M72,38h33v28H72V38z M185,66h-36V38h36V66z M185,76.3c-1,0-1.3-0.1-2-0.1c-6.8,0-12.4,2.7-12.4,6  c0,3.3,5.6,6,12.5,6c0.6,0,0.9,0,1.9-0.1V98h-36V69h36V76.3z M185,130h-36v-6.6c2,0.4,3.7,0.7,5.8,0.7c5.1,0,9.3-1.5,11.2-3.6  c1,2,4,3.3,5,3.3c3,0,0-2.6,0-5.7c0-3.2,3-5.7,0-5.7c-1,0-4,1.4-5,3.3c-1.9-2.1-6.2-3.6-11.2-3.6c-2.1,0-3.8,0.2-5.8,0.7V101h36V130  z M185,162h-36v-28h36V162z M105,144.4c-4,1-6.6,3-6.6,5.3c0,2.3,2.6,4.3,6.6,5.3v7H72v-28h33V144.4z M109,155.6  c0,0.1,1.5,0.1,2.4,0.1c5.1,0,9-1.5,10.9-3.6c1,2,3.7,3.3,4.7,3.3c3,0,0-2.6,0-5.7c0-3.2,3-5.7,0-5.7c-1,0-3.8,1.4-4.8,3.3  c-1.9-2.1-5.9-3.6-11-3.6c-0.8,0-2.2,0-2.2,0.1V134h37v28h-37V155.6z M109,101h37v13.1c-2,1.1-3.3,2.5-3.3,4.1c0,1.6,1.3,3,3.3,4.1  v7.8h-37V101z M109,91.2c3-0.5,5.7-1.7,7.1-3.3c1,2,3.9,3.3,4.9,3.3c3,0,0-2.6,0-5.7c0-3.2,3-5.7,0-5.7c-1,0-3.8,1.4-4.9,3.3  c-1.4-1.5-4.1-2.7-7.1-3.2V69h37v29h-37V91.2z M146,66h-37V38h37V66z M105,69v10.6c0,0-0.3,0-0.6,0c-6.8,0-12.2,2.7-12.2,6  c0,3.3,5.4,6,12.3,6c0.2,0,0.6,0,0.6,0V98H72V69H105z M105,101v29H72v-29H105z M72,165h33v23H72V165z M146,165v23h-37v-23H146z   M145.6,191l-0.9,31.6l-2.1-1L111,191H145.6z M148,222.5l0.9-31.5h0h33.4L150,221.6L148,222.5z M185,188h-36v-23h36V188z M188,162  v-8.9c2,1.5,6,2.6,10.2,2.6c5.1,0,9.1-1.5,11-3.6c1,2,3.8,3.3,4.8,3.3c3,0,0-2.6,0-5.7c0-3.2,3-5.7,0-5.7c-1,0-3.7,1.4-4.7,3.3  c-1.9-2.1-6.1-3.6-11.2-3.6c-4.2,0-8.1,1-10.1,2.5V134h34v28H188z M188,130v-29h34v29H188z M188,98V87.7c3-0.6,4.9-1.7,6.1-3  c1,2,3.9,3.3,4.9,3.3c3,0,0-2.6,0-5.7c0-3.2,3-5.7,0-5.7c-1,0-3.9,1.4-4.9,3.3c-1.2-1.3-3.1-2.4-6.1-3V69h34v29H188z M188,66V38h34  v28H188z M105.4,191h1l27.6,26.7L74.1,191H105.4z M187.1,191h1h31.8l-61,26.7L187.1,191z"></path></svg>