<svg height='100px' width='100px'  fill="#000000" xmlns="http://www.w3.org/2000/svg" xmlns:xlink="http://www.w3.org/1999/xlink" xmlns:serif="http://www.serif.com/" viewBox="0 0 123 123" version="1.1" xml:space="preserve" style="" x="0px" y="0px" fill-rule="evenodd" clip-rule="evenodd" stroke-linejoin="round" stroke-miterlimit="1.41421"><rect x="0" y="0" width="122.88" height="122.88" style="" fill="none"></rect><path d="M62.872,4.658c0.146,-0.149 0.154,-0.145 0.246,-0.332c0,0 0.007,-0.038 0.084,-0.056l0.291,-0.016l0.336,-0.03l0.29,0.056l0.303,0.04l0.373,0.071l0.267,0.227l0.144,0.257c0.011,0.03 0.011,0.03 0.012,0.062l-0.025,0.191l0.129,0.1l0.246,0.025l0.22,0.04l0.176,-0.104c0.028,-0.011 0.028,-0.011 0.058,-0.013l0.315,0.023c0.216,-0.068 0.215,-0.071 0.425,-0.156l0.213,-0.068l0.164,-0.218l0.245,-0.086c0.057,-0.01 0.075,0.004 0.094,0.015l0.211,0.161l0.306,-0.046c0.033,0.014 0.034,0.014 0.06,0.038l0.204,0.273l0.103,0.122l0.131,-0.129c0.052,-0.035 0.077,-0.027 0.101,-0.023l0.293,0.098c0.033,0.019 0.034,0.019 0.057,0.049l0.094,0.185c0.068,0.044 0.361,0.25 0.481,0.287c0.184,0.055 0.375,0.099 0.375,0.099l0.01,0.081l-0.103,0.312l-0.263,0.123l-0.125,0.148l0.067,0.212c-0.006,0.034 -0.006,0.034 -0.023,0.063l-0.143,0.173l-0.196,0.228l-0.065,0.24l0.021,0.24c-0.024,0.055 -0.048,0.062 -0.069,0.072l-0.32,0.095l-0.387,0.037l-0.182,-0.154l-0.083,0.139c-0.099,0.328 -0.094,0.33 -0.141,0.669l-0.149,0.198c0.014,0.252 0.03,0.25 0.118,0.486l0.002,0.062l-0.068,0.242l0.004,0.067l0.188,0.042l0.323,-0.006c0.028,0.013 0.028,0.013 0.051,0.035l0.193,0.249l0.179,0.288l0.028,0.22l0.106,0.273c-0.006,0.037 -0.006,0.037 -0.026,0.069l-0.157,0.176l0.063,0.184l0.053,0.176l0.042,0.308l0.054,0.3l-0.022,0.37l-0.155,0.211l0.043,0.144l0.12,-0.067l0.244,-0.246l0.077,-0.001l0.325,0.133l0.17,0.143l0.257,-0.034l0.352,0.008l0.298,0.131c0.029,0.019 0.029,0.02 0.049,0.047l0.106,0.214l0.209,0.032l0.19,-0.143c0.052,-0.027 0.075,-0.017 0.097,-0.013l0.302,0.12c0.028,0.017 0.028,0.017 0.049,0.042l0.164,0.276c0.016,0.042 0.012,0.085 -0.019,0.125l-0.25,0.228l-0.128,0.181l0.216,0.104l0.373,0.097l0.29,0.2l0.253,0.165l0.314,0.181l0.179,0.193l0.193,0.001l0.281,-0.181l0.334,0.074l0.196,0.297l0.214,0.257l-0.027,0.327l0.1,0.105l0.167,-0.192l0.354,-0.239l0.307,0.029c0.022,0.006 0.048,0.008 0.082,0.059l0.124,0.284l0.049,0.1l0.234,0.024l0.334,-0.184l0.334,0.064c0.295,-0.023 0.426,-0.015 0.707,-0.111c0.145,-0.051 0.343,-0.155 0.343,-0.155l0.391,-0.105l0.3,0.087l0.294,0.004c0.033,0.02 0.033,0.02 0.055,0.051l0.109,0.239c0.167,0.195 0.183,0.18 0.409,0.301l0.198,0.261l0.311,-0.075c0.228,-0.008 0.523,0.114 0.41,0.295c0,0 -0.126,0.103 -0.126,0.103c-0.024,0.172 0.134,0.11 0.134,0.11l0.088,0.112c0,0 -0.125,0.089 -0.128,0.09c-0.02,0.002 -0.039,0.004 -0.058,0.007c-0.275,0.044 -0.365,0.449 -0.605,0.363c0,0 -0.024,0.188 -0.024,0.188c-0.021,0.029 -0.022,0.029 -0.053,0.049l-0.171,0.067c-0.034,0.007 -0.034,0.007 -0.068,0.002l-0.167,-0.057c-0.026,-0.013 -0.026,-0.013 -0.048,-0.034l-0.109,-0.145c0,0 -0.116,-0.051 -0.133,-0.115c-0.008,-0.03 0.002,-0.085 0.005,-0.108l-0.094,-0.017l-0.263,0.182l-0.11,-0.056l-0.09,-0.192l-0.195,0.066l-0.106,0.11l-0.068,0.192l-0.143,0.153c-0.021,0.018 -0.021,0.018 -0.047,0.029l-0.35,0.094c-0.161,0.068 -0.164,0.063 -0.318,0.144l-0.042,0.132l-0.112,0.165l-0.196,0.274l-0.279,0.071l-0.127,0.009l-0.257,-0.001l-0.169,0.047l0.049,0.261c0,0 0.073,0.023 0.179,0.155c0.032,0.039 0.013,0.11 0.013,0.11l0.202,-0.04l0.27,-0.122c0.184,0.024 0.045,0.302 0.045,0.302c-0.009,0.021 -0.009,0.021 -0.024,0.04l-0.189,0.191l-0.17,0.146l-0.166,0.143l-0.314,0.19c-0.145,0.098 -0.158,0.086 -0.263,0.226l-0.249,0.131c0,0 -0.003,0.055 -0.081,0.103l-0.242,0.092l-0.229,0.294l-0.248,0.113l-0.251,0.038l-0.172,-0.019c-0.188,-0.009 -0.191,-0.033 -0.371,0.02l-0.038,0.087c-0.019,0.028 -0.019,0.028 -0.046,0.049l-0.156,0.08l-0.015,0.19c-0.068,0.205 -0.348,0.209 -0.499,0.128l-0.14,-0.092l-0.262,-0.044l-0.307,-0.093l-0.383,0.054l-0.221,-0.043l-0.136,0.022l-0.185,0.262c0,0 -0.024,0.064 -0.117,0.092l-0.283,0.034l-0.143,0.192l0.023,0.283l0.242,0.223l-0.029,0.119l-0.442,0.108l-0.397,-0.015l-0.222,0.034c0.121,0.278 0.099,0.161 0.283,0.655c0.08,0.223 -0.035,0.248 -0.035,0.248c-0.062,0.008 -0.081,-0.011 -0.101,-0.024l-0.159,-0.158l-0.228,-0.057l-0.272,0.15l-0.137,0.389l-0.331,0.225c-0.276,0.207 -0.281,0.204 -0.494,0.475l0.011,0.281l0.078,0.379l-0.059,0.408l-0.102,0.351l0.143,0.343l0.104,0.328c0.005,0.036 0.005,0.036 -0.004,0.072l-0.178,0.382l-0.245,0.274c-0.035,0.028 -0.076,0.037 -0.123,0.021l-0.23,-0.129c-0.289,0.008 -0.396,-0.003 -0.692,0.068c-0.121,0.029 -0.244,0.061 -0.356,0.117c-0.226,0.114 -0.384,0.309 -0.554,0.487c-0.269,0.283 -0.545,0.585 -0.816,0.898l-0.287,0.286c-0.021,0.016 -0.021,0.016 -0.045,0.026l-0.316,0.081c-0.258,0.143 -0.26,0.139 -0.5,0.311c0,0 -0.028,0.035 -0.11,0.004l-0.277,-0.168c-0.245,0.06 -0.24,0.075 -0.472,0.175l-0.16,0.273l0.003,0.212l-0.142,0.356l0.011,0.326c-0.004,0.031 -0.004,0.032 -0.017,0.06l-0.225,0.329c-0.016,0.019 -0.016,0.019 -0.036,0.033l-0.214,0.11c-0.072,0.096 -0.16,0.182 -0.216,0.288c-0.118,0.223 -0.159,0.512 -0.208,0.754l-0.084,0.371c-0.029,0.395 -0.029,0.396 -0.011,0.792l-0.127,0.27l-0.047,0.298l0.165,0.324c0.008,0.022 0.008,0.022 0.011,0.046l-0.001,0.254c-0.003,0.026 -0.003,0.026 -0.014,0.051l-0.142,0.241l-0.203,0.297l-0.193,0.106c-0.089,0.339 -0.086,0.341 -0.094,0.691l-0.099,0.315l-0.331,0.157l-0.258,0.032c-0.054,0.098 -0.127,0.188 -0.163,0.294c-0.118,0.349 -0.027,0.704 0.104,1.043l0.265,0.118l0.252,0.217c0.016,0.018 0.016,0.018 0.028,0.039l0.09,0.227c0.168,0.276 0.171,0.278 0.428,0.472l0.034,0.047l0.108,0.317l0.086,0.392c0.127,0.378 0.283,0.744 0.497,1.076c0.21,0.329 0.315,0.466 0.672,0.704l0.252,0.362l0.247,0.313c0.234,0.258 0.518,0.549 0.849,0.784l0.33,0.009c0.027,0.005 0.027,0.005 0.051,0.016l0.324,0.206c0.307,0.207 0.307,0.207 0.609,0.421l0.298,0.296l0.29,0.261l0.249,0.134l0.164,-0.091c0.072,-0.028 0.233,0.055 0.233,0.055c0.051,0.032 0.054,0.057 0.061,0.079l0.046,0.327c0.053,0.115 0.094,0.236 0.16,0.344c0.02,0.033 0.425,0.543 0.425,0.543c0.007,0.03 0.007,0.03 0.004,0.061l-0.072,0.289c-0.011,0.027 -0.011,0.027 -0.028,0.049l-0.241,0.228l-0.147,0.319l0.048,0.362c0.128,0.372 0.129,0.372 0.32,0.716l0.172,0.358l0.229,0.324l0.203,0.331c0.214,0.342 0.214,0.342 0.46,0.662l0.209,0.329c0.723,0.839 1.283,1.271 1.766,1.629l0.32,0.241c0.284,0.212 0.366,0.275 0.652,0.483c0.218,0.158 0.441,0.307 0.669,0.449l0.337,0.211c0.042,0.037 0.042,0.059 0.046,0.079l0.017,0.321l0.013,0.319l0.203,0.311c0.087,0.1 0.169,0.204 0.259,0.3c0.097,0.104 0.469,0.463 0.573,0.556c0.101,0.09 0.206,0.173 0.309,0.26l0.31,0.259c0.324,0.244 0.324,0.243 0.654,0.479l0.32,0.255c0.086,0.068 0.549,0.434 0.638,0.501c0.405,0.305 0.914,0.552 1.381,0.829l0.336,0.247c0.287,0.224 0.363,0.277 0.638,0.516c0.103,0.089 0.202,0.181 0.303,0.272l0.301,0.26c0.348,0.216 0.826,0.526 0.826,0.526l0.142,-0.25l0.123,0.001l0.163,0.306l0.209,0.339l0.208,0.289l0.276,0.089l0.32,0.058l0.215,0.133l-0.042,0.113l-0.259,0.165l-0.11,0.19l-0.04,0.199l0.194,0.216c0.1,0.066 0.151,0.227 0.314,-0.091c0.051,-0.095 0.037,-0.093 0.037,-0.093l0,-0.139c0.013,-0.029 0.013,-0.029 0.035,-0.052l0.238,-0.185c0.056,-0.029 0.081,-0.017 0.106,-0.01l0.26,0.13l0.23,-0.058c0.025,0.008 0.054,0.012 0.085,0.07l0.073,0.234c0.005,0.05 -0.011,0.094 -0.062,0.124l-0.257,0.091l-0.248,0.031l-0.048,0.284l0.145,0.342c0.147,0.274 0.194,0.422 0.435,0.629c0.099,0.086 0.22,0.143 0.33,0.214l0.349,0.251l0.059,0.423l0.154,0.352c0.176,0.284 0.387,0.648 0.642,1.024c0.086,0.127 0.38,0.529 0.477,0.648c0.172,0.215 0.353,0.522 0.481,0.518c0,0 0.313,-0.101 0.313,-0.101l0.089,0.076l0.056,0.237c0.121,0.275 0.127,0.272 0.287,0.525l0.287,0.183l0.139,-0.022l0.04,-0.212l0.077,-0.024l0.287,0.038c0.019,0.015 0.043,0.028 0.054,0.09l-0.002,0.244c0.182,0.2 0.179,0.202 0.37,0.393c0,0 0.026,0.016 0.028,0.083l-0.031,0.235l0.198,0.267l0.312,0.106l0.024,0.117l-0.169,0.309l-0.119,0.049c-0.078,0.646 0.094,1.327 0.272,1.809c0.278,0.759 0.699,1.49 1.126,2.109l0.018,0.051l0.015,0.349l-0.063,0.245l0.039,0.379l-0.058,0.137c0.109,0.362 0.113,0.362 0.281,0.701l0.156,0.362l0.039,0.345l0.046,0.325l0.219,0.328l0.151,0.284l0.157,0.431l-0.079,0.247l0.187,0.359l0.012,0.209l0.024,0.343l0.195,0.359l0.081,0.304l0.073,0.349l-0.066,0.242c0.146,0.2 0.125,0.224 0.334,0.358c0,0 0.033,0.01 0.046,0.083l0,0.364l-0.082,0.272l0.017,0.341c-0.032,0.058 -0.061,0.061 -0.086,0.069l-0.279,0.025l-0.186,0.005l0.009,0.253l0.098,0.361l-0.045,0.247l0.176,0.292l0.272,0.149c0.11,0.092 -0.023,0.256 -0.023,0.256l0.126,0.227l-0.054,0.184l0.163,0.231c0.082,0.023 0.072,0.019 0.102,0.088c0.071,0.162 -0.101,0.372 -0.107,0.382c-0.003,0.007 -0.008,0.012 -0.012,0.018l-0.194,0.176l-0.318,-0.12l-0.016,-0.121l0.097,-0.167l0.008,-0.111l-0.151,-0.143l-0.056,0.087l0.047,0.294l-0.037,0.127c0.046,0.186 0.068,0.177 0.175,0.336l0.23,-0.016c0.195,0.024 0.04,0.323 0.04,0.323c0.087,0.322 0.086,0.323 0.187,0.64l-0.003,0.07l-0.102,0.238l0.013,0.293l0.011,0.362l0.223,0.315l0.192,0.353l0.213,0.335l0.257,0.32c0.186,0.279 0.187,0.279 0.358,0.568l0.015,0.337c-0.008,0.045 -0.032,0.079 -0.079,0.098l-0.318,0.037c0,0 0.006,-0.083 -0.069,-0.005l-0.294,0.188c0.001,0.38 0.181,0.706 0.447,1.1l0.245,0.075c0.156,0.082 -0.041,0.294 -0.041,0.294c-0.038,0.227 -0.042,0.228 -0.038,0.458l-0.11,0.168c-0.056,0.044 -0.104,0.056 -0.165,-0.018l-0.13,-0.251l-0.111,-0.281l0.078,-0.18l-0.026,-0.028l-0.111,0.074c-0.024,0.011 -0.024,0.011 -0.049,0.016l-0.166,0.006l-0.202,-0.084l0.014,-0.116l0.176,-0.19l0.102,-0.183l-0.155,-0.332l-0.01,-0.107l-0.062,0.061l-0.232,0.179l-0.237,0.254l-0.242,0.159l-0.205,0.296l-0.121,0.163l0.05,0.248l0.004,0.104l0.107,-0.085c0.094,-0.049 0.149,-0.015 0.162,0.084l-0.015,0.259l0.044,0.328l0.284,0.194l0.141,0.13c0.012,0.016 0.028,0.029 0.031,0.083l-0.025,0.275l0.269,0.14c0.02,0.033 0.02,0.033 0.026,0.07l-0.038,0.281l-0.164,0.022l-0.115,0.249c-0.039,0.054 -0.08,0.08 -0.158,0.032l-0.237,-0.219l-0.183,-0.263c-0.171,-0.185 -0.167,-0.192 -0.381,-0.325l-0.051,0.106l0.159,0.118l0.113,0.284l0.062,0.274l0.27,0.226c0.016,0.049 0.008,0.095 -0.036,0.135l-0.235,0.139l-0.053,0.252l0.136,0.281c0.01,0.034 0.01,0.035 0.007,0.071l-0.066,0.232l0.092,0.147c0.004,0.031 0.004,0.031 -0.002,0.062l-0.11,0.294l-0.05,0.296l0.142,0.342c0.165,0.289 0.155,0.302 0.412,0.514l0.07,0.231c0.001,0.03 0.001,0.03 -0.006,0.059l-0.098,0.235l0.118,0.199c0,0.025 0.005,0.051 -0.037,0.099l-0.18,0.139c-0.055,0.029 -0.079,0.018 -0.103,0.012l-0.109,-0.05l-0.244,-0.036l-0.12,0.183l0.117,0.236l0.049,0.216l0.187,0.215l0.068,0.303l-0.063,0.049l-0.191,0.051l-0.048,0.139l-0.155,0.235l-0.096,0.404l-0.207,0.259l-0.148,0.192l-0.084,0.007l-0.338,-0.128l-0.188,0.042l-0.175,0.105l-0.056,0.252c-0.023,0.388 -0.023,0.388 -0.03,0.777l-0.04,0.375l0.003,0.269l-0.259,0.242l-0.334,0.155c-0.032,0.008 -0.032,0.008 -0.065,0.006l-0.27,-0.065l-0.29,-0.094l-0.326,0.099l-0.334,0.086l-0.199,0.21l-0.076,0.375l-0.142,0.405c-0.026,0.023 -0.027,0.023 -0.059,0.036l-0.213,0.042c-0.025,0.002 -0.025,0.002 -0.05,-0.003l-0.347,-0.114l-0.322,0.117l-0.33,0.037l-0.288,0.148l-0.24,0.231l-0.157,0.371l-0.216,0.324l-0.389,0.083l-0.274,-0.018l-0.206,0.243l-0.108,0.384c-0.023,0.024 -0.023,0.024 -0.054,0.039l-0.26,0.077l-0.183,0.172l-0.074,-0.026l-0.224,-0.207c-0.353,0.026 -0.354,0.033 -0.685,0.155l-0.355,0.046l-0.257,0.108l-0.155,0.142l-0.106,0.328l-0.134,0.378l-0.094,0.416l-0.174,0.337c-0.037,0.048 -0.061,0.049 -0.084,0.054l-0.331,0.012l-0.365,-0.112c-0.353,0.055 -0.354,0.055 -0.693,0.168l-0.281,0.297l-0.373,0.212l-0.375,0.064l-0.346,0.2l-0.372,0.144l-0.331,0.187l-0.252,0.289l-0.313,0.233l-0.35,0.155l-0.376,0.113l-0.382,0.016l-0.292,0.14c-0.261,0.227 -0.258,0.231 -0.48,0.496l-0.115,0.028l-0.29,-0.12l-0.319,-0.017c-0.242,0.133 -0.477,0.291 -0.741,0.565c0,0 -0.09,0.067 -0.161,-0.024l-0.153,-0.3c-0.017,-0.054 -0.006,-0.073 0.001,-0.093l0.115,-0.214c0.019,-0.025 0.02,-0.025 0.045,-0.043l0.181,-0.086l-0.016,-0.104l-0.319,-0.077l-0.231,-0.141l-0.235,0.099l-0.01,0.205l-0.268,0.293l-0.391,0.162l-0.394,0.091c-0.032,0.003 -0.032,0.003 -0.063,-0.005l-0.271,-0.119l-0.222,0.039l-0.014,0.354l-0.106,0.318l0.075,0.304l-0.136,0.257l0.103,0.253l0.099,0.406l-0.094,0.358c-0.009,0.022 -0.009,0.022 -0.023,0.042l-0.304,0.324l-0.342,0.163l-0.25,0.231l-0.084,0.31l0.156,0.326l0.079,0.37l-0.257,0.39l-0.298,0.277l-0.279,0.245l-0.047,0.296l0.076,0.384l-0.158,0.397l-0.254,0.351l-0.315,0.249l-0.405,0.163l-0.37,0.027l-0.358,-0.045l-0.248,-0.301l-0.206,-0.053l-0.105,0.309l-0.244,0.351l-0.338,0.162l-0.182,0.263l-0.015,0.262l-0.103,0.365c-0.015,0.031 -0.015,0.031 -0.039,0.055l-0.33,0.231c-0.027,0.013 -0.027,0.013 -0.058,0.018l-0.277,-0.002l-0.363,0.126l-0.361,0.109l-0.37,0.113l-0.379,0.107c-0.179,0.068 -0.488,0.186 -0.665,0.262c-0.227,0.097 -0.445,0.214 -0.661,0.334l-0.368,0.146l-0.323,0.155c-0.369,0.156 -0.369,0.156 -0.745,0.296l-0.363,0.156c-0.311,0.193 -0.591,0.416 -0.853,0.735c-0.075,0.091 -0.164,0.174 -0.216,0.28c-0.07,0.143 -0.104,0.378 -0.104,0.378c-0.151,0.361 -0.152,0.36 -0.323,0.712l-0.014,0.022c-0.259,0.302 -0.259,0.302 -0.535,0.589l-0.403,0.184l-0.333,0.105l-0.221,0.265l-0.216,0.333l-0.294,0.3l-0.347,0.092l-0.377,0.167c-0.124,0.034 -0.247,0.07 -0.373,0.1c-0.128,0.031 -0.806,0.164 -0.806,0.164l-0.414,0.012l-0.36,-0.143l-0.384,-0.097c-0.019,-0.008 -0.041,-0.013 -0.069,-0.062l-0.129,-0.366l0.11,-0.094l0.282,0.028l0.244,-0.102l-0.103,-0.277c-0.005,-0.023 -0.014,-0.048 0.018,-0.101l0.246,-0.28c0.024,-0.02 0.024,-0.02 0.053,-0.031l0.354,-0.082l0.154,-0.189l-0.332,0.117c-0.019,0.003 -0.037,0.011 -0.086,-0.01l-0.309,-0.192c-0.016,-0.014 -0.037,-0.026 -0.047,-0.083l-0.002,-0.414l0.098,-0.385c0.04,-0.376 0.039,-0.376 0.045,-0.753l0.008,-0.405c0.013,-0.231 0.026,-0.463 0.039,-0.695l-0.006,-0.421l0.067,-0.385c0.034,-0.393 0.034,-0.393 0.056,-0.786l0.027,-0.4l0.024,-0.352l0.011,-0.402c0.017,-0.337 0.021,-0.477 0.051,-0.813c0.036,-0.404 0.086,-0.808 0.149,-1.209l0.116,-0.389l0.093,-0.385l0.147,-0.414c0.029,-0.023 0.03,-0.024 0.066,-0.035l0.355,-0.036c0.198,-0.15 0.383,-0.316 0.556,-0.494c0.01,-0.009 0.199,-0.313 0.427,-0.261l0.185,0.093l0.013,-0.134c-0.157,-0.325 -0.157,-0.328 -0.404,-0.592c-0.087,-0.094 -0.164,-0.202 -0.268,-0.278c-0.084,-0.062 -0.19,-0.087 -0.286,-0.13l-0.407,0.07l-0.371,-0.08c-0.035,-0.015 -0.036,-0.015 -0.063,-0.042l-0.219,-0.334c-0.171,-0.248 -0.235,-0.404 -0.505,-0.557c-0.097,-0.054 -0.212,-0.069 -0.319,-0.104l-0.293,0.172l-0.258,0.296l-0.223,0.203c-0.028,0.009 -0.029,0.009 -0.058,0.009l-0.308,-0.054l-0.045,-0.066l-0.053,-0.277l-0.076,-0.234l-0.01,-0.271l-0.174,-0.263l-0.217,-0.047l-0.112,-0.395c-0.018,-0.092 -0.061,-0.21 -0.172,-0.222l-0.339,-0.001l-0.063,-0.094l0.003,-0.252l0.05,-0.287c0.033,-0.037 0.075,-0.055 0.131,-0.039l0.24,0.118l0.18,-0.237l0.279,-0.218l0.219,-0.283l0.223,-0.212c0.021,-0.016 0.021,-0.016 0.047,-0.026l0.34,-0.071l0.412,0.041l0.368,0.105c0.166,0.008 0.605,0.038 0.771,0.006c0.108,-0.02 0.204,-0.079 0.306,-0.119l0.215,-0.302l0.234,-0.361l0.302,-0.265l0.344,-0.191l0.334,-0.204l0.224,-0.165l-0.112,-0.288l-0.19,-0.308l-0.123,-0.392l-0.03,-0.398l0.146,-0.275l0.268,-0.243l0.382,0.035l0.051,0.101l-0.018,0.142l0.318,-0.007l0.368,0.132l0.392,0.08l0.356,0.135l0.259,0.082l0.193,-0.159l0.17,-0.24l0.234,-0.258l0.22,-0.098c0.023,-0.007 0.023,-0.007 0.046,-0.008l0.345,0.022l0.28,0.062c0.379,-0.09 0.379,-0.09 0.756,-0.188l0.38,-0.094l0.349,-0.217l0.437,-0.109l0.288,0.111c0.028,0.017 0.029,0.017 0.05,0.043l0.188,0.325l0.253,0.327l0.17,0.396l-0.023,0.166l0.267,0.105l0.174,-0.037l0.131,-0.189l-0.021,-0.232c0.016,-0.263 0.211,-0.081 0.306,0.02c0.024,0.025 0.047,0.052 0.071,0.078c0.042,0.046 0.09,0.1 0.09,0.1c0.287,0.26 0.286,0.261 0.602,0.484l0.356,0.068l0.431,-0.021l0.069,0.023l-0.037,-0.205l-0.205,-0.374l-0.046,-0.353l0.009,-0.406l0.104,-0.058l0.233,0.031c-0.008,-0.283 -0.026,-0.281 -0.092,-0.556l-0.168,-0.23l-0.291,0.17l-0.079,-0.025l-0.221,-0.197l-0.299,-0.217l-0.27,-0.284l-0.154,-0.223l-0.388,-0.111l-0.285,-0.273c-0.021,-0.029 -0.021,-0.029 -0.03,-0.062l-0.03,-0.292l-0.32,-0.035l-0.049,-0.11l0.082,-0.351l-0.011,-0.351l0.086,-0.317l0.122,-0.212l-0.186,-0.14l0.041,-0.331l0.016,-0.266l-0.109,-0.154l-0.178,-0.022l-0.226,-0.131c-0.018,-0.028 -0.018,-0.028 -0.026,-0.06l-0.02,-0.265c0.005,-0.038 0.005,-0.039 0.024,-0.072l0.179,-0.211l0.274,-0.299c0.033,-0.011 0.033,-0.011 0.068,-0.01l0.364,0.082l0.288,0.138c0.186,-0.233 0.186,-0.234 0.359,-0.477l0.063,-0.375l0.342,-0.244l0.436,0.106l0.265,0.154l0.371,-0.025l0.274,0.121l0.421,0.083l0.232,0.226l0.25,0.132l0.283,-0.107c0.024,-0.006 0.024,-0.006 0.049,-0.006l0.398,0.059l0.17,0.065l-0.018,-0.089l-0.143,-0.312l-0.044,-0.268c0,-0.033 0,-0.034 0.011,-0.065l0.149,-0.268l0.025,-0.226l0.072,-0.261l0.073,-0.099l-0.156,-0.306l-0.206,-0.397l0.065,-0.101l0.196,-0.072c0.025,-0.006 0.025,-0.006 0.051,-0.005l0.242,0.042l0.31,0.011l0.266,0.046l0.411,-0.021l0.375,0.039c0,0 0.019,-0.108 0.126,-0.108l0.226,0.045l0.216,0.044l0.158,-0.139l0.103,-0.22c0.135,-0.184 0.135,-0.184 0.273,-0.365l0.229,-0.176c0.029,-0.006 0.029,-0.006 0.06,-0.003l0.261,0.069l0.243,0.002l0.329,0.039l0.312,-0.056l0.318,-0.124l0.115,-0.114l0.114,-0.175l0.212,-0.11l0.112,-0.128l0.116,-0.239l0.175,-0.069l0.162,-0.2l0.122,-0.147l0.071,-0.174c0.017,-0.028 0.017,-0.028 0.041,-0.049l0.25,-0.149l0.275,-0.129l0.227,-0.04l0.264,-0.175l0.362,-0.09l0.351,0.023l0.291,0.286l0.126,0.271l0.121,0.064l0.13,-0.169l0.249,-0.288l0.356,-0.154l0.208,-0.161l-0.001,-0.288l0.069,-0.3l0.085,-0.312l0.037,-0.298l0.057,-0.254c0.012,-0.125 0.05,-0.468 0.039,-0.593c-0.011,-0.132 -0.063,-0.312 -0.063,-0.312l0.019,-0.279l-0.093,-0.304l-0.04,-0.341c-0.018,-0.102 -0.019,-0.209 -0.055,-0.306c-0.081,-0.218 -0.377,-0.529 -0.377,-0.529l-0.089,-0.323l-0.078,-0.263c-0.004,-0.037 -0.004,-0.038 0.006,-0.073l0.108,-0.216l-0.06,-0.323l0.069,-0.39c0.266,-0.624 0.535,-1.246 0.805,-1.868l0.154,-0.363c0.025,-0.122 0.069,-0.24 0.076,-0.364c0.017,-0.262 -0.037,-0.528 -0.059,-0.797c-0.01,-0.128 0.003,-0.261 -0.032,-0.385c-0.035,-0.124 -0.115,-0.232 -0.172,-0.348l-0.178,-0.391l-0.047,-0.362l-0.183,-0.338l-0.172,-0.323l-0.357,-0.218l-0.177,-0.289l0.093,-0.353l-0.069,-0.287l0.029,-0.297c-0.071,-0.262 -0.064,-0.266 -0.203,-0.499l-0.269,0.025c-0.036,-0.003 -0.036,-0.003 -0.068,-0.018l-0.283,-0.203c-0.016,-0.017 -0.037,-0.032 -0.041,-0.093l0.043,-0.358l0.031,-0.13l-0.265,-0.165c-0.03,-0.055 -0.019,-0.079 -0.014,-0.103l0.156,-0.351l0.169,-0.261c0.116,-0.181 0.224,-0.37 0.25,-0.582c0.027,-0.225 -0.003,-0.419 -0.024,-0.641l0.017,-0.066l0.191,-0.276l0.199,-0.284c0.026,-0.015 0.027,-0.015 0.056,-0.021l0.184,-0.013c0.164,-0.255 0.146,-0.265 0.211,-0.561l0.102,-0.281l0.059,-0.329l0.022,-0.307l0.091,-0.281l0.073,-0.318l0.036,-0.272l-0.202,-0.094c-0.039,-0.027 -0.06,-0.066 -0.054,-0.118l0.069,-0.241l-0.193,-0.256l0.037,-0.071l0.255,-0.206c0.18,-0.197 0.203,-0.183 0.31,-0.427l-0.233,-0.124l-0.277,-0.21l-0.299,-0.247l-0.072,-0.305l0.032,-0.279c0.008,-0.024 0.012,-0.052 0.068,-0.084l0.361,-0.117l0.324,-0.035c0.189,-0.024 0.198,-0.003 0.364,-0.097l-0.066,-0.262l0.019,-0.307l0.047,-0.172l-0.181,-0.28c-0.005,-0.058 0.011,-0.075 0.023,-0.093l0.095,-0.103l0.18,-0.156l-0.077,-0.283l0.028,-0.32l-0.052,-0.165l-0.072,-0.356l0.042,-0.204l-0.034,-0.034l-0.299,0.134c-0.029,0 -0.029,0 -0.058,-0.009l-0.312,-0.154c-0.021,-0.016 -0.046,-0.03 -0.056,-0.094l0.013,-0.289l-0.227,-0.153l-0.158,-0.133l-0.255,0.045l-0.298,-0.014c-0.054,-0.011 -0.065,-0.029 -0.079,-0.044l-0.168,-0.262l-0.081,-0.317l-0.141,-0.184l-0.077,-0.227l-0.348,-0.032l-0.225,-0.305l0.046,-0.326c-0.099,-0.206 -0.255,-0.348 -0.432,-0.476l-0.038,-0.105l0.077,-0.32l-0.039,-0.249c0,-0.045 0.019,-0.083 0.062,-0.109l0.296,-0.115c0.278,-0.138 0.278,-0.138 0.552,-0.284l0.377,-0.066l0.258,-0.098c0.171,-0.29 0.167,-0.293 0.28,-0.61l0.148,-0.262l-0.123,-0.237c-0.008,-0.024 -0.008,-0.024 -0.011,-0.048l0.003,-0.151c-0.184,0.042 -0.462,0.124 -0.753,0.249c0,0 -0.033,0.027 -0.106,-0.016l-0.269,-0.239l-0.241,-0.26l-0.205,-0.205l-0.295,-0.002c-0.024,-0.003 -0.024,-0.003 -0.045,-0.011l-0.332,-0.171c-0.028,-0.021 -0.029,-0.021 -0.047,-0.051l-0.135,-0.332c-0.007,-0.027 -0.007,-0.027 -0.006,-0.055l0.046,-0.27c-0.173,-0.261 -0.184,-0.255 -0.442,-0.433l-0.303,0.056c-0.022,0.001 -0.022,0.001 -0.044,-0.002l-0.284,-0.079l-0.383,0.058l-0.074,-0.096l-0.001,-0.323l-0.319,-0.161c-0.191,-0.216 -0.192,-0.215 -0.38,-0.434c0,0 -0.028,-0.019 -0.021,-0.09l0.077,-0.29l0.007,-0.269l-0.108,-0.216l-0.192,-0.062l-0.06,0.252l-0.163,0.317c-0.023,0.03 -0.023,0.03 -0.056,0.049l-0.179,0.061l-0.194,0.277l-0.118,-0.008l-0.096,-0.082l-0.262,-0.007l-0.207,-0.184l-0.208,-0.195l-0.07,-0.347l0.061,-0.328l0.009,-0.128l-0.156,0.009c-0.037,-0.004 -0.037,-0.005 -0.07,-0.023l-0.255,-0.219l-0.119,-0.172l-0.184,-0.323l-0.105,-0.388l-0.001,-0.406l-0.002,-0.407l-0.003,-0.366l-0.245,-0.263l0.055,-0.389l0.189,-0.177c0.029,-0.058 0.038,-0.151 0.038,-0.151l-0.11,0.06l-0.395,-0.034l-0.298,-0.124c-0.02,-0.012 -0.021,-0.012 -0.038,-0.028l-0.225,-0.278l-0.109,-0.298c-0.141,-0.289 -0.15,-0.286 -0.375,-0.515l-0.159,-0.302l-0.188,-0.271c-0.023,-0.047 0.013,-0.173 0.013,-0.173l-0.127,-0.184l-0.012,-0.214l-0.064,-0.071l-0.047,0.134c-0.011,0.019 -0.018,0.042 -0.073,0.064l-0.338,0.066l-0.037,-0.016c-0.326,-0.224 -0.326,-0.223 -0.642,-0.461l-0.233,-0.263l-0.335,-0.226c-0.442,-0.514 -0.884,-1.028 -1.328,-1.539c-0.251,-0.29 -0.256,-0.315 -0.539,-0.566c-0.083,-0.073 -0.164,-0.151 -0.258,-0.21c-0.213,-0.134 -0.309,-0.127 -0.548,-0.169c0,0 -0.045,0.004 -0.081,-0.077l-0.079,-0.354l-0.206,-0.259l-0.218,-0.281c-0.012,-0.019 -0.012,-0.019 -0.02,-0.041l-0.055,-0.278l-0.271,-0.234l-0.224,-0.277c-0.007,-0.029 -0.007,-0.029 -0.005,-0.059l0.083,-0.392l0.103,-0.276l-0.155,-0.182l-0.286,-0.072l-0.039,-0.076l-0.01,-0.317l-0.167,-0.154l-0.165,-0.225l-0.245,-0.138c-0.02,-0.016 -0.044,-0.03 -0.051,-0.094l0.02,-0.274l-0.126,-0.085l-0.106,-0.104l-0.13,0.045l-0.282,0.206l-0.277,-0.005l-0.258,-0.105l-0.258,-0.146c-0.02,-0.017 -0.045,-0.033 -0.05,-0.099l0.038,-0.313l-0.069,-0.058l-0.08,0.024l-0.313,-0.051c-0.025,-0.017 -0.025,-0.017 -0.044,-0.04l-0.151,-0.263l-0.348,-0.207l-0.122,-0.298l-0.072,-0.266l-0.238,-0.095l-0.244,-0.2l-0.123,-0.313c-0.006,-0.024 -0.006,-0.024 -0.006,-0.049l0.044,-0.347l0.082,-0.34l0.133,-0.297l0.175,-0.263c0.036,-0.04 0.056,-0.04 0.076,-0.044l0.193,-0.016l-0.005,-0.154l-0.24,-0.191l-0.139,-0.196l-0.182,-0.084l-0.309,0.041c-0.064,-0.004 -0.08,-0.027 -0.097,-0.046l-0.098,-0.153c-0.211,-0.051 -0.21,-0.062 -0.427,-0.065l-0.354,-0.015c-0.024,-0.006 -0.051,-0.007 -0.087,-0.06l-0.102,-0.233l-0.228,-0.081l-0.358,0.078l-0.387,-0.061l-0.295,-0.146l-0.351,-0.067l-0.171,-0.238l-0.347,-0.032l-0.262,-0.227c-0.26,-0.199 -0.26,-0.199 -0.54,-0.369l-0.246,-0.334l-0.185,-0.212l-0.222,-0.143l-0.261,0.131l-0.076,-0.026l-0.25,-0.237l-0.185,-0.275l-0.242,-0.184l-0.351,-0.087c-0.025,-0.01 -0.025,-0.01 -0.047,-0.027l-0.207,-0.209l-0.386,-0.007l-0.234,-0.164c-0.017,-0.015 -0.017,-0.015 -0.03,-0.034l-0.123,-0.228l-0.184,-0.253l-0.375,-0.061l-0.266,-0.133l-0.25,-0.168l-0.362,0.038l-0.411,-0.079l-0.319,-0.26l-0.23,-0.235l-0.244,-0.123c-0.036,-0.057 -0.044,-0.105 0.031,-0.159l0.325,-0.153l0.273,-0.187l0.216,-0.295l0.334,-0.079l0.26,-0.087c0.145,-0.173 0.148,-0.172 0.25,-0.372l0.209,-0.181l-0.053,-0.238l-0.016,-0.315l-0.269,-0.301l-0.063,-0.35l0.051,-0.302c0.024,-0.063 0.056,-0.098 0.144,-0.073l0.299,0.149l0.309,-0.068l0.192,-0.162l0.338,-0.12c0.024,-0.006 0.024,-0.006 0.048,-0.005l0.381,0.056l0.412,0.079l0.141,0.084l0.291,-0.144l0.369,-0.067l0.066,0.052l0.126,0.241l0.188,0.143l0.288,0.073c0.023,0.009 0.023,0.009 0.043,0.024l0.222,0.204l0.238,-0.001l0.295,-0.147c0.03,-0.009 0.031,-0.009 0.063,-0.008l0.263,0.048l0.053,-0.193l0.102,-0.319l0.206,-0.249l0.257,-0.256c0.026,-0.019 0.026,-0.019 0.057,-0.028l0.285,-0.038l0.263,-0.215l0.281,-0.043c0.02,-0.087 0.045,-0.174 0.058,-0.262c0.01,-0.067 0.031,-0.562 0.031,-0.562l0.094,-0.322l0.335,-0.198c0.152,-0.233 0.163,-0.231 0.238,-0.499l0.032,-0.051l0.288,-0.238l0.132,-0.175l-0.155,-0.081l-0.29,-0.247l-0.092,-0.103l-0.365,0.069l-0.376,-0.161l-0.263,-0.229l-0.353,-0.071l-0.374,-0.116l-0.291,-0.152l-0.34,-0.056c-0.042,-0.015 -0.072,-0.045 -0.083,-0.093l-0.022,-0.351l0.029,-0.291l-0.002,-0.374c0.017,-0.031 0.018,-0.031 0.045,-0.054l0.292,-0.164l0.294,-0.164l0.052,-0.034l-0.184,-0.207l-0.092,-0.136l-0.217,0.095l-0.109,0.267c-0.027,0.022 -0.027,0.022 -0.061,0.033l-0.377,0.055c-0.279,0.092 -0.275,0.106 -0.513,0.279l-0.059,0.019l-0.343,-0.003l-0.341,-0.057c-0.046,-0.017 -0.077,-0.05 -0.083,-0.106l0.018,-0.276l-0.239,-0.178c-0.015,-0.035 -0.015,-0.035 -0.015,-0.072l0.052,-0.3c0.022,-0.058 0.047,-0.066 0.069,-0.078l0.357,-0.112c0.11,-0.044 0.227,-0.071 0.33,-0.13c0.232,-0.134 0.288,-0.247 0.443,-0.451l0.259,-0.286l0.365,-0.019l0.164,-0.206l-0.049,-0.154l-0.287,-0.134l-0.205,-0.204l-0.291,0.133l-0.303,-0.261l-0.069,-0.323l-0.215,-0.164l-0.31,-0.077l-0.288,-0.207l-0.253,-0.164l-0.141,-0.196l-0.164,-0.294l-0.163,-0.121l-0.224,0.188l-0.094,-0.066l-0.078,-0.215l-0.285,-0.097l-0.323,-0.074l-0.281,-0.076l-0.266,0.014l-0.209,0.137l-0.188,0.305c-0.033,0.017 -0.034,0.018 -0.071,0.021l-0.342,-0.031l-0.347,0.109l-0.325,-0.047l-0.307,0.185l-0.266,0.059l-0.223,0.151c-0.069,0.267 -0.065,0.268 -0.091,0.542l-0.11,0.347c-0.027,0.024 -0.028,0.024 -0.061,0.037l-0.254,0.045l-0.019,0.28l-0.125,0.255c-0.032,0.021 -0.032,0.021 -0.07,0.028l-0.374,-0.006c-0.021,-0.004 -0.043,-0.003 -0.082,-0.045l-0.151,-0.229c-0.247,-0.223 -0.248,-0.224 -0.535,-0.39l-0.369,-0.024l-0.313,-0.12c-0.032,-0.02 -0.032,-0.02 -0.054,-0.05l-0.14,-0.293l-0.168,-0.086l-0.177,0.163c-0.024,0.016 -0.024,0.016 -0.051,0.025l-0.331,0.057c-0.032,0.001 -0.032,0.001 -0.063,-0.009l-0.3,-0.154c-0.29,-0.096 -0.289,-0.114 -0.594,-0.117l-0.339,-0.173c-0.044,-0.034 -0.046,-0.056 -0.051,-0.076l-0.033,-0.27c-0.183,-0.153 -0.19,-0.146 -0.411,-0.236l-0.294,0.03l-0.17,-0.045c-0.032,-0.015 -0.033,-0.015 -0.057,-0.04l-0.193,-0.284l-0.143,-0.315c-0.163,-0.285 -0.16,-0.287 -0.362,-0.545l-0.355,-0.032l-0.05,-0.06l-0.099,-0.319l-0.085,-0.239l-0.23,-0.146c-0.023,-0.019 -0.023,-0.019 -0.038,-0.044l-0.116,-0.263c-0.007,-0.023 -0.007,-0.023 -0.008,-0.047l0.018,-0.256l-0.248,-0.141l-0.268,0.051c-0.045,0.001 -0.084,-0.017 -0.111,-0.06l-0.078,-0.274l0.275,-0.247c0.024,-0.015 0.024,-0.015 0.052,-0.023l0.275,-0.036l-0.02,-0.278l0.067,-0.366l0.137,-0.2l-0.281,-0.047l-0.04,-0.116l0.13,-0.349c0.212,-0.24 0.212,-0.24 0.427,-0.477l0.208,-0.285l0.156,-0.256l-0.047,-0.312l0.028,-0.298l-0.006,-0.255l-0.125,-0.125c-0.305,0.13 -0.305,0.131 -0.605,0.272c0,0 -0.042,0.051 -0.125,-0.033l-0.194,-0.278c-0.014,-0.029 -0.014,-0.029 -0.018,-0.06l0.01,-0.332l-0.003,-0.294l-0.091,-0.06c-0.065,0.247 -0.032,0.251 -0.015,0.505l-0.122,0.384l-0.256,0.221l-0.273,0.279l-0.421,0.022l-0.266,-0.055c-0.059,-0.024 -0.066,-0.05 -0.076,-0.072l-0.089,-0.336l-0.09,-0.387l0.082,-0.331c-0.104,-0.292 -0.103,-0.294 -0.274,-0.553l-0.052,-0.292l-0.225,-0.167c-0.331,-0.198 -0.331,-0.198 -0.665,-0.393c0,0 -0.038,-0.01 -0.049,-0.09l0.01,-0.285l-0.002,-0.13l-0.255,-0.189l-0.226,-0.216l-0.137,-0.214l-0.294,-0.171l-0.274,-0.247l-0.179,-0.217l-0.286,-0.073c-0.032,-0.014 -0.032,-0.014 -0.057,-0.038l-0.176,-0.242l-0.25,-0.172l-0.129,-0.23l-0.348,-0.182l-0.02,-0.081l0.045,-0.241l-0.107,-0.248l-0.2,-0.296c0,-0.026 -0.006,-0.054 0.039,-0.102l0.296,-0.21l0.4,0.055l0.142,0.039l-0.027,-0.211l0.092,-0.147l0.131,-0.237c0.07,-0.114 0.185,-0.272 0.185,-0.272l0.188,-0.218l0.211,-0.19l0.245,-0.176l0.203,-0.2l-0.127,-0.177c-0.003,-0.037 -0.003,-0.038 0.007,-0.074l0.131,-0.232l0.251,-0.193l0.127,-0.313l0.272,-0.262c0.036,-0.008 0.036,-0.008 0.073,-0.002l0.325,0.112c0.022,0.011 0.022,0.011 0.04,0.026l0.231,0.245l0.128,0.157l0.169,-0.148c0.04,-0.025 0.084,-0.028 0.129,-0.003l0.264,0.215l0.348,0.049l0.235,0.142l0.342,0.121l0.29,0.198l0.211,0.158l0.291,0.098c0.02,0.01 0.02,0.01 0.038,0.023l0.203,0.199c0.017,0.02 0.017,0.02 0.027,0.044l0.074,0.26l0.163,0.213l0.127,0.257l0.306,0.086l0.244,0.138l0.292,0.111l0.222,-0.022l-0.029,-0.261c0.012,-0.03 0.012,-0.031 0.033,-0.056l0.241,-0.209l0.291,-0.165l0.222,-0.096l-0.059,-0.255l0.1,-0.317c0.012,-0.024 0.012,-0.025 0.03,-0.045l0.251,-0.208l0.308,-0.113l0.278,-0.121l0.063,-0.288l0.118,-0.315l0.179,-0.284l0.177,-0.148c0.054,-0.03 0.078,-0.021 0.101,-0.016l0.367,0.151l0.285,0.229l0.14,0.215c0.012,0.025 0.012,0.026 0.017,0.054l0.002,0.277l0.154,0.221l0.174,0.27l0.196,0.195l0.187,0.001c0.05,-0.073 0.115,-0.139 0.151,-0.22c0.108,-0.243 0.112,-0.644 0.112,-0.644l0.209,-0.252l0.163,-0.321l0.237,-0.11l0.078,0.032l0.198,0.219l0.314,0.22l0.263,0.27l0.258,0.188l0.277,0.297l0.229,0.307c0.256,0.232 0.253,0.236 0.544,0.422l0.009,0.006c0.24,0.192 0.239,0.192 0.474,0.39l0.199,-0.078l0.081,-0.14l-0.047,-0.207c-0.002,-0.033 -0.002,-0.034 0.007,-0.066l0.129,-0.267c0.05,-0.309 0.052,-0.31 0.038,-0.622l0.172,-0.433l0.26,-0.236l0.222,-0.314l0.328,-0.064l0.32,-0.14l0.321,-0.048l0.309,-0.114c0.062,-0.011 0.107,-0.002 0.134,0.08l0.045,0.332l-0.002,0.315l0.182,0.179l0.326,0.072c0.03,0.012 0.03,0.012 0.054,0.032l0.18,0.207l0.201,-0.061l0.19,-0.263c0.019,-0.02 0.019,-0.02 0.042,-0.034l0.348,-0.145c0.245,-0.231 0.245,-0.232 0.463,-0.489l0.174,-0.174c0.02,-0.015 0.02,-0.015 0.043,-0.025l0.316,-0.092c0.156,-0.013 0.17,0.216 0.17,0.216c0.218,-0.072 0.215,-0.082 0.215,-0.082l0.351,0.132l0.262,-0.021l0.088,-0.224l0.284,-0.152l0.145,-0.259c0.02,-0.025 0.02,-0.025 0.047,-0.042l0.329,-0.148l0.242,-0.12l-0.048,-0.178l-0.195,-0.225l-0.074,-0.36l-0.079,-0.296l-0.01,-0.334l0.092,-0.066l0.234,-0.005l0.21,-0.046l0.064,-0.305l0.071,-0.043l0.282,-0.032c0.03,0.002 0.03,0.002 0.059,0.012l0.145,0.078l0.064,-0.237c0.024,-0.025 0.024,-0.025 0.055,-0.041l0.302,-0.088c0.274,-0.186 0.274,-0.186 0.528,-0.399l0.064,-0.024l0.302,0.001l0.205,-0.003l0.278,-0.177c0.023,-0.011 0.023,-0.011 0.048,-0.016l0.221,-0.012c0.027,0.002 0.027,0.002 0.054,0.012l0.158,0.088l0.048,-0.097l0.146,-0.29c0.014,-0.02 0.014,-0.02 0.032,-0.037l0.203,-0.143l0.218,-0.322l0.075,-0.016l0.327,0.066c0.026,0.02 0.026,0.02 0.043,0.047l0.146,0.327l0.235,0.196l0.222,0.034c0.027,0.008 0.027,0.008 0.05,0.022l0.231,0.196l0.272,0.315l0.123,0.268l0.359,0.104l0.22,0.264c0.01,0.018 0.025,0.034 0.02,0.09l-0.076,0.288l-0.009,0.2l0.179,0.058l0.302,-0.018l0.292,0.083l0.341,0.044l0.217,0.089l0.196,0.179c0.237,0.177 0.235,0.188 0.52,0.27l0.254,0.279l0.053,0.182l0.154,0.139l0.154,-0.128c0.032,-0.017 0.032,-0.017 0.068,-0.022l0.344,0.015c0.067,-0.01 0.134,-0.021 0.2,-0.031Zm-24.441,9.796l0.23,0.269l0.007,0.313l-0.027,0.292l0.036,0.378l-0.18,0.294l-0.222,0.304l-0.234,0.259l-0.183,0.206l-0.063,0.182l0.048,0.007l0.232,-0.215l0.115,0.036l0.015,0.083l-0.089,0.321l-0.189,0.275c-0.048,0.311 -0.043,0.313 -0.017,0.628c0,0 0.039,0.065 -0.087,0.107l-0.34,0.045l-0.171,0.147l0.021,0.05l0.292,-0.031l0.335,0.19c0.019,0.017 0.043,0.031 0.05,0.095l-0.021,0.293l0.093,0.212l0.234,0.149c0.024,0.021 0.025,0.022 0.041,0.05l0.098,0.276l0.08,0.257l0.332,0.031l0.258,0.318l0.186,0.326l0.142,0.311l0.158,0.231c0.185,0.049 0.188,0.021 0.378,-0.002l0.366,0.139l0.203,0.17c0.023,0.029 0.023,0.029 0.035,0.065l0.031,0.259l0.225,0.123l0.269,0.008l0.382,0.127l0.278,0.142l0.269,-0.046l0.242,-0.211l0.078,0.005l0.26,0.133c0.026,0.02 0.027,0.02 0.045,0.046l0.137,0.288c0.291,0.111 0.296,0.101 0.607,0.117l0.377,0.208l0.283,0.26l0.13,0.196l0.256,0.004l0.067,-0.148l0.02,-0.335c0.011,-0.019 0.019,-0.042 0.075,-0.062l0.272,-0.048c0.078,-0.256 0.072,-0.258 0.097,-0.523l0.118,-0.361l0.304,-0.199l0.268,-0.059l0.359,-0.197l0.337,0.05l0.34,-0.109l0.3,0.027l0.143,-0.242c0.014,-0.019 0.014,-0.019 0.032,-0.033l0.251,-0.165c0.023,-0.011 0.023,-0.011 0.049,-0.016l0.341,-0.013l0.293,0.079l0.334,0.077l0.361,0.128c0.021,0.021 0.021,0.021 0.035,0.047l0.04,0.109l0.131,-0.126c0.06,-0.016 0.081,-0.001 0.102,0.01l0.279,0.218l0.171,0.308c0.133,0.182 0.142,0.177 0.334,0.296l0.277,0.199l0.314,0.078l0.299,0.259l0.069,0.324l0.152,0.121l0.262,-0.14l0.079,0.029l0.246,0.244l0.314,0.149l0.101,0.283c0.004,0.022 0.011,0.043 -0.017,0.093l-0.26,0.312l-0.369,0.02l-0.194,0.223l-0.204,0.264l-0.307,0.241c-0.324,0.128 -0.324,0.13 -0.656,0.235l-0.031,0.177l0.232,0.171c0.014,0.03 0.014,0.031 0.018,0.064l-0.017,0.242c0.263,0.044 0.264,0.041 0.53,0.043l0.292,-0.206l0.275,-0.089l0.328,-0.047l0.138,-0.278l0.331,-0.145c0.045,-0.011 0.087,-0.002 0.123,0.036l0.135,0.2l0.27,0.314l-0.041,0.113l-0.155,0.102l-0.3,0.167l-0.239,0.135l0.006,0.297l-0.029,0.289l0.016,0.247l0.307,0.056l0.297,0.155l0.344,0.106l0.411,0.095l0.27,0.235l0.303,0.126l0.33,-0.081c0.095,-0.006 0.226,0.173 0.226,0.173c0.231,0.197 0.227,0.206 0.497,0.343l0.053,0.11l-0.245,0.336l-0.273,0.225l-0.073,0.246l-0.229,0.333l-0.29,0.163c-0.072,0.269 -0.065,0.271 -0.077,0.55l-0.016,0.241l-0.09,0.374l-0.067,0.041l-0.319,0.048l-0.266,0.216l-0.282,0.038c-0.217,0.216 -0.218,0.215 -0.413,0.451l-0.077,0.262l-0.093,0.313c-0.047,0.043 -0.074,0.038 -0.098,0.038l-0.321,-0.059l-0.33,0.153l-0.301,0.001c-0.036,-0.006 -0.036,-0.007 -0.068,-0.026l-0.232,-0.214l-0.319,-0.09l-0.25,-0.202l-0.101,-0.194l-0.24,0.049l-0.335,0.164c-0.033,-0.001 -0.033,-0.001 -0.064,-0.013l-0.173,-0.103c-0.354,-0.062 -0.354,-0.063 -0.71,-0.115l-0.297,0.105l-0.208,0.171l-0.369,0.081c-0.034,0.002 -0.034,0.002 -0.067,-0.008l-0.21,-0.105c-0.035,0.209 -0.014,0.21 0.027,0.418l0.249,0.257c0.019,0.029 0.019,0.03 0.028,0.064l0.018,0.344l0.064,0.31c-0.012,0.035 -0.012,0.035 -0.036,0.063l-0.215,0.175l-0.104,0.197l-0.225,0.246l-0.295,0.098l-0.302,0.072l-0.172,0.264l-0.311,0.21l-0.142,0.067l0.067,0.039l0.239,0.243l0.285,0.232c0.339,0.054 0.341,0.049 0.682,0.01l0.067,0.016l0.275,0.185c0.284,0.142 0.292,0.126 0.606,0.173l0.066,0.04l0.22,0.303l0.114,0.213l0.187,0.131l0.377,-0.005l0.252,0.244l0.38,0.102l0.293,0.23l0.189,0.28l0.174,0.162l0.21,-0.114c0.023,-0.007 0.046,-0.019 0.102,0.004l0.304,0.202l0.204,0.234l0.207,0.294l0.276,0.168c0.261,0.199 0.261,0.198 0.509,0.414l0.299,0.007c0.021,0.004 0.042,0.003 0.081,0.044l0.146,0.217l0.314,0.057l0.295,0.145l0.321,0.047l0.388,-0.076l0.331,0.127l0.118,0.249l0.289,0.012l0.199,0.006l0.369,0.118l0.085,0.133l0.33,-0.028l0.232,0.108c0.022,0.013 0.022,0.013 0.04,0.032l0.146,0.206l0.273,0.224l0.02,0.337c-0.008,0.05 -0.036,0.087 -0.092,0.103l-0.24,0.02c-0.129,0.194 -0.185,0.251 -0.262,0.482c-0.073,0.22 -0.082,0.387 -0.111,0.614l0.103,0.262c0.196,0.145 0.2,0.14 0.426,0.227c0,0 0.033,0.004 0.061,0.067l0.084,0.308l0.101,0.247l0.295,0.153c0.023,0.016 0.023,0.016 0.04,0.039l0.142,0.246l0.191,0.028c0,0 0.078,-0.082 0.166,-0.028l0.172,0.153c0.035,0.043 0.032,0.065 0.032,0.086l-0.036,0.299c0.201,0.114 0.202,0.113 0.416,0.199l0.183,-0.002l0.237,-0.189l0.242,-0.077c0.036,0.008 0.036,0.008 0.066,0.028l0.144,0.142l0.177,0.123c0.016,0.031 0.016,0.032 0.02,0.067l-0.02,0.269l0.241,0.146l0.172,0.234l0.209,0.232l0.009,0.281l0.203,0.043c0.03,0.012 0.03,0.012 0.055,0.033l0.216,0.253c0.011,0.02 0.028,0.04 0.017,0.1l-0.121,0.324l-0.068,0.323l0.172,0.208l0.312,0.295l0.058,0.288c0.21,0.27 0.21,0.27 0.423,0.537l0.089,0.352l0.251,0.048l0.313,0.143c0.289,0.236 0.289,0.237 0.559,0.494c0.002,0.003 0.005,0.005 0.007,0.007c0.445,0.512 0.887,1.025 1.329,1.54l0.256,0.297l0.335,0.225l0.219,0.252l0.297,0.222l0.294,0.203l0.201,-0.044l0.107,-0.277l0.114,-0.022l0.257,0.308l0.013,0.216l0.133,0.171c0.012,0.058 -0.022,0.145 -0.025,0.157l0.171,0.248l0.137,0.27l0.265,0.277l0.143,0.293l0.105,0.287l0.181,0.215c0.269,0.113 0.272,0.11 0.563,0.132l0.123,-0.122c0.309,-0.228 0.296,0.229 0.155,0.51l-0.201,0.203l-0.02,0.199l0.245,0.29l0.004,0.407c0.001,0.267 0.002,0.533 0.003,0.8l0.095,0.335c0.023,0.041 0.201,0.365 0.27,0.438c0.059,0.062 0.131,0.11 0.196,0.164l0.271,-0.006l0.064,0.1l-0.018,0.257l-0.058,0.314l0.056,0.253l0.15,0.12l0.178,0.159l0.224,-0.014c0.042,0.023 0.041,0.025 0.078,0.055l0.12,-0.181c0.022,-0.024 0.023,-0.024 0.051,-0.04l0.173,-0.059c0.144,-0.282 0.141,-0.285 0.211,-0.593l0.087,-0.078l0.412,0.133l0.173,0.355l-0.012,0.328l-0.066,0.25c0.164,0.19 0.165,0.189 0.33,0.377l0.326,0.155c0.051,0.038 0.052,0.065 0.056,0.09l0.001,0.267l0.29,-0.041l0.283,0.078l0.359,-0.058l0.398,0.272l0.189,0.286c0.015,0.035 0.015,0.035 0.016,0.072l-0.048,0.282l0.11,0.271l0.278,0.143l0.383,0.032l0.237,0.236l0.239,0.259l0.211,0.187l0.286,-0.123c0.282,-0.077 0.283,-0.076 0.568,-0.141c0,0 0.105,-0.006 0.122,0.099l-0.004,0.253l0.145,0.295c0,0.033 0,0.033 -0.012,0.064l-0.163,0.285l-0.128,0.358l-0.233,0.351l-0.321,0.12l-0.339,0.055l-0.266,0.141l-0.288,0.143l-0.225,0.088l0.028,0.228l-0.066,0.274l0.13,0.095l0.216,0.22l0.108,0.226c0.009,0.029 0.009,0.029 0.009,0.059l-0.046,0.277l0.123,0.168l0.365,0.032l0.051,0.058l0.092,0.273l0.146,0.195l0.081,0.321l0.117,0.175c0.254,0.011 0.255,0.007 0.504,-0.039c0,0 0.028,-0.013 0.083,0.021l0.19,0.16l0.284,0.198c0.016,0.03 0.016,0.031 0.02,0.064l-0.012,0.28l0.211,0.104l0.33,-0.144l0.074,0.03l0.12,0.121c0.013,0.017 0.029,0.033 0.027,0.09l-0.048,0.236c0.053,0.233 0.049,0.234 0.121,0.461l-0.024,0.36l0.086,0.288c0.007,0.065 -0.014,0.084 -0.03,0.104l-0.255,0.228l0.166,0.263l-0.059,0.248l-0.014,0.258l0.08,0.335l-0.049,0.069l-0.237,0.125c-0.292,0.037 -0.292,0.037 -0.585,0.069l-0.269,0.089c-0.025,0.208 -0.02,0.21 0.032,0.413l0.234,0.172l0.272,0.206l0.295,0.154c0.039,0.031 0.058,0.072 0.045,0.129l-0.137,0.298l-0.262,0.285l-0.179,0.144l0.152,0.172c0.008,0.033 0.008,0.034 0.004,0.067l-0.061,0.213l0.244,0.151l-0.044,0.4c-0.071,0.308 -0.068,0.308 -0.166,0.608l-0.018,0.288l-0.066,0.359l-0.099,0.271l-0.094,0.398l-0.19,0.286c-0.027,0.016 -0.027,0.016 -0.057,0.023l-0.186,0.013l-0.153,0.222l-0.169,0.246l0.026,0.277l-0.008,0.383l-0.094,0.366c-0.116,0.181 -0.233,0.362 -0.35,0.543l-0.109,0.249l0.256,0.161l0.016,0.081l-0.047,0.196l-0.033,0.283l0.204,0.147l0.295,-0.028c0.025,0.002 0.053,0 0.096,0.048l0.174,0.3l0.09,0.357l-0.029,0.297l0.068,0.315l-0.085,0.294l0.124,0.19l0.327,0.188c0.022,0.017 0.022,0.017 0.038,0.04l0.185,0.347l0.203,0.389l0.048,0.365l0.161,0.345l0.19,0.4c0.034,0.405 0.064,0.811 0.094,1.216l-0.089,0.434c-0.159,0.374 -0.321,0.747 -0.482,1.119l-0.161,0.374c-0.148,0.343 -0.376,0.642 -0.372,1.074c0.001,0.175 0.053,0.366 0.053,0.366l-0.105,0.212l0.068,0.227l0.083,0.304l0.208,0.247l0.175,0.302c0.061,0.333 0.061,0.333 0.1,0.669l0.095,0.331l-0.018,0.283l0.062,0.308c-0.011,0.312 -0.011,0.312 -0.04,0.623l-0.06,0.268l-0.038,0.304l-0.086,0.316c-0.067,0.289 -0.065,0.29 -0.062,0.587c0,0 0.009,0.03 -0.038,0.08l-0.279,0.212l-0.345,0.149c-0.19,0.234 -0.19,0.233 -0.375,0.472c0,0 -0.01,0.065 -0.126,0.027l-0.224,-0.119c-0.026,-0.019 -0.026,-0.019 -0.044,-0.046l-0.132,-0.285l-0.226,-0.214l-0.229,0.004c-0.291,0.075 -0.297,0.071 -0.544,0.242l-0.275,0.058l-0.232,0.112l-0.209,0.126l-0.08,0.184l-0.132,0.158l-0.218,0.25l-0.156,0.06l-0.069,0.188l-0.167,0.18l-0.201,0.104l-0.083,0.144l-0.174,0.16l-0.365,0.141l-0.366,0.062l-0.338,-0.041l-0.263,-0.004l-0.227,-0.06l-0.134,0.104c-0.134,0.177 -0.261,0.355 -0.355,0.557l-0.262,0.235c-0.029,0.008 -0.029,0.008 -0.06,0.007l-0.264,-0.054l-0.135,-0.026c0,0 -0.021,0.094 -0.115,0.101l-0.125,-0.014c-0.36,-0.037 -0.361,-0.031 -0.723,-0.011l-0.293,-0.049l-0.31,-0.011l-0.222,-0.038l-0.062,0.023l0.14,0.257l0.196,0.398c-0.003,0.036 -0.003,0.037 -0.019,0.07l-0.098,0.133c-0.052,0.21 -0.05,0.21 -0.073,0.425l-0.154,0.293l0.036,0.22l0.141,0.307l0.057,0.322l-0.091,0.078l-0.372,-0.133l-0.339,-0.048l-0.343,0.121l-0.366,-0.189l-0.22,-0.213l-0.373,-0.06l-0.261,-0.117l-0.326,0.034c-0.031,-0.002 -0.032,-0.002 -0.061,-0.013l-0.281,-0.163l-0.309,-0.079l-0.203,0.145l-0.064,0.364l-0.192,0.269l-0.262,0.32c-0.02,0.008 -0.04,0.021 -0.096,0.005l-0.35,-0.167l-0.273,-0.059l-0.206,0.232l-0.151,0.178l0.012,0.17l0.134,0.074l0.237,0.054l0.174,0.285l-0.018,0.31l-0.035,0.232l0.215,0.154l-0.01,0.076l-0.166,0.288l-0.068,0.264l0.011,0.348l-0.059,0.252l0.247,0.02c0.045,0.012 0.077,0.04 0.091,0.089l0.035,0.338l0.24,0.229l0.353,0.089c0.033,0.015 0.033,0.015 0.058,0.04l0.171,0.247c0.244,0.255 0.244,0.257 0.53,0.462l0.178,0.158l0.265,-0.165c0.046,-0.018 0.092,-0.013 0.133,0.026l0.252,0.357l0.096,0.41l0.001,0.365l-0.105,0.06l-0.236,-0.031l0,0.245c0.046,0.346 0.06,0.346 0.233,0.649l0.08,0.461l-0.129,0.071l-0.21,-0.07l-0.411,0.023l-0.428,-0.091l-0.342,-0.242l-0.304,-0.275c-0.044,-0.048 -0.105,-0.116 -0.105,-0.116l-0.015,0.092l-0.174,0.252c-0.027,0.026 -0.027,0.027 -0.062,0.041l-0.242,0.051c-0.029,0.001 -0.029,0.001 -0.057,-0.005l-0.369,-0.144c-0.038,-0.023 -0.061,-0.058 -0.062,-0.107l0.03,-0.215c-0.155,-0.325 -0.16,-0.323 -0.383,-0.607l-0.181,-0.312l-0.223,-0.086c-0.347,0.104 -0.347,0.11 -0.653,0.304l-0.424,0.111l-0.389,0.101l-0.437,0.094l-0.295,-0.066l-0.296,-0.018l-0.177,0.079c-0.186,0.217 -0.186,0.217 -0.35,0.451l-0.293,0.237c-0.032,0.006 -0.032,0.006 -0.065,0.002l-0.315,-0.1l-0.354,-0.134l-0.39,-0.08l-0.356,-0.127l-0.422,0.009l-0.061,-0.105l0.021,-0.157l-0.153,-0.015l-0.186,0.177l-0.105,0.206l0.035,0.303c0.107,0.334 0.103,0.337 0.291,0.634l0.158,0.427c0,0 -0.178,0.186 -0.334,0.29c-0.231,0.155 -0.44,0.264 -0.682,0.399l-0.266,0.235l-0.211,0.333l-0.235,0.33c-0.02,0.021 -0.02,0.021 -0.045,0.035l-0.383,0.144l-0.411,0.012l-0.428,-0.022l-0.37,-0.106l-0.369,-0.035l-0.266,0.06l-0.198,0.188l-0.229,0.294l-0.279,0.216l-0.202,0.274c-0.033,0.032 -0.075,0.045 -0.125,0.031l-0.192,-0.095c-0.018,0.118 -0.017,0.118 -0.017,0.237l0.204,-0.004c0.028,0.001 0.056,0.006 0.083,0.014c0.023,0.007 0.045,0.016 0.067,0.028c0.124,0.068 0.189,0.202 0.214,0.336l0.074,0.282l0.153,0.015c0.026,0.015 0.026,0.015 0.047,0.038l0.217,0.327c0.012,0.024 0.012,0.025 0.016,0.052l0.01,0.284l0.072,0.211l0.041,0.215l0.151,0.022c0.223,-0.209 0.217,-0.216 0.418,-0.446l0.411,-0.238l0.454,0.147l0.327,0.276l0.231,0.335l0.198,0.301l0.311,0.067l0.439,-0.066l0.363,0.174l0.284,0.293l0.28,0.317l0.179,0.404l-0.031,0.31c-0.021,0.069 -0.054,0.107 -0.146,0.079c-0.114,-0.06 -0.243,-0.195 -0.341,-0.119c-0.08,0.061 -0.161,0.175 -0.161,0.175l-0.297,0.301l-0.358,0.255l-0.32,0.032c-0.115,0.342 -0.112,0.343 -0.197,0.693l-0.112,0.375c-0.041,0.262 -0.077,0.525 -0.105,0.789c-0.038,0.348 -0.05,0.449 -0.071,0.799c-0.022,0.343 -0.023,0.465 -0.033,0.808l-0.024,0.356c-0.027,0.403 -0.027,0.402 -0.05,0.806l-0.034,0.396l-0.067,0.38l0.008,0.4l-0.021,0.365c-0.006,0.111 -0.014,0.222 -0.018,0.334c-0.004,0.097 -0.012,0.685 -0.014,0.788c-0.01,0.166 -0.043,0.404 -0.043,0.404l-0.096,0.379l0.003,0.32l0.222,0.138l0.337,-0.119l0.296,-0.092l0.089,0.078l-0.017,0.08c-0.18,0.247 -0.18,0.246 -0.373,0.483l-0.055,0.034l-0.356,0.082l-0.185,0.211l0.116,0.311c0.008,0.051 -0.006,0.095 -0.055,0.128l-0.356,0.149c-0.024,0.006 -0.024,0.006 -0.049,0.007l-0.147,-0.015l0.047,0.126l0.353,0.089l0.346,0.138c0.367,-0.018 0.368,-0.021 0.729,-0.095c0.191,-0.039 0.562,-0.11 0.751,-0.178c0.159,-0.057 0.377,-0.167 0.377,-0.167l0.326,-0.087l0.221,-0.242l0.212,-0.328l0.29,-0.324l0.356,-0.112l0.337,-0.148l0.264,-0.275c0.165,-0.192 0.307,-0.4 0.411,-0.631c0.156,-0.344 0.145,-0.349 0.245,-0.714l0.017,-0.035c0.233,-0.302 0.233,-0.302 0.484,-0.589l0.325,-0.287l0.344,-0.213c0.371,-0.159 0.371,-0.159 0.75,-0.3l0.362,-0.154l0.325,-0.156l0.357,-0.14l0.326,-0.182l0.347,-0.158c0.337,-0.136 0.337,-0.136 0.676,-0.267l0.391,-0.11l0.368,-0.112l0.358,-0.108l0.408,-0.136l0.263,0.002l0.274,-0.192l0.091,-0.32l0.029,-0.309l0.214,-0.308c0.017,-0.019 0.017,-0.019 0.039,-0.033l0.336,-0.162c0.194,-0.3 0.189,-0.304 0.3,-0.644c0,0 -0.007,-0.074 0.121,-0.066l0.329,0.086c0.029,0.013 0.029,0.013 0.053,0.035l0.212,0.268c0.208,0.021 0.386,0.056 0.597,0.003c0.347,-0.087 0.657,-0.343 0.834,-0.67c0.058,-0.106 0.087,-0.223 0.131,-0.335l-0.078,-0.352l0.055,-0.351c0.011,-0.033 0.011,-0.033 0.033,-0.06l0.304,-0.268c0.271,-0.251 0.276,-0.249 0.483,-0.556l-0.065,-0.275l-0.167,-0.399l0.102,-0.374c0.011,-0.026 0.011,-0.026 0.028,-0.048l0.307,-0.277l0.338,-0.161l0.243,-0.268l0.082,-0.309c-0.086,-0.306 -0.084,-0.307 -0.205,-0.601l0.004,-0.085l0.138,-0.259l-0.079,-0.281l0.113,-0.336l0.016,-0.425c0.031,-0.051 0.055,-0.055 0.076,-0.063l0.333,-0.058c0.029,-0.001 0.029,-0.001 0.057,0.007l0.269,0.117c0.359,-0.084 0.359,-0.085 0.699,-0.226l0.187,-0.216l0.009,-0.238l0.417,-0.18c0.031,0.002 0.031,0.002 0.06,0.014l0.26,0.16l0.376,0.093l0.04,0.066l0.036,0.286l-0.054,0.063l-0.218,0.105l-0.075,0.139l0.066,0.128l0.091,-0.094l0.289,-0.236l0.336,-0.184c0.025,-0.01 0.025,-0.01 0.053,-0.013l0.398,0.028l0.238,0.098l0.211,-0.249l0.276,-0.236l0.362,-0.164l0.39,-0.017l0.332,-0.103c0.108,-0.048 0.221,-0.084 0.323,-0.144c0.264,-0.156 0.317,-0.256 0.517,-0.488l0.392,-0.227l0.371,-0.143l0.374,-0.211l0.375,-0.064c0.323,-0.19 0.322,-0.195 0.576,-0.47l0.042,-0.027l0.385,-0.127l0.387,-0.06c0.023,-0.001 0.023,-0.001 0.045,0.003l0.37,0.113l0.223,-0.011l0.142,-0.275l0.087,-0.396l0.135,-0.382l0.113,-0.351c0.011,-0.023 0.011,-0.023 0.028,-0.043l0.216,-0.189l0.312,-0.128l0.334,-0.04l0.383,-0.138l0.43,-0.023l0.213,0.185l0.114,-0.11l0.235,-0.07l0.105,-0.358l0.276,-0.32c0.029,-0.012 0.029,-0.012 0.06,-0.015l0.311,0.02l0.271,-0.054l0.161,-0.252l0.176,-0.401l0.29,-0.272l0.351,-0.173l0.337,-0.039l0.319,-0.118c0.033,-0.007 0.033,-0.007 0.066,-0.002l0.355,0.117l0.13,-0.026l0.106,-0.313l0.102,-0.435l0.239,-0.251c0.022,-0.017 0.022,-0.017 0.047,-0.028l0.358,-0.093l0.412,-0.106l0.312,0.101l0.229,0.055l0.288,-0.133l0.163,-0.148l-0.009,-0.201l0.04,-0.374l0.007,-0.384l0.026,-0.417l0.084,-0.338l0.284,-0.174l0.291,-0.049l0.293,0.111l0.074,-0.104l0.196,-0.246l0.089,-0.392l0.158,-0.239l0.05,-0.154c0.035,-0.067 0.21,-0.103 0.21,-0.103l-0.034,-0.102l-0.169,-0.183c-0.015,-0.021 -0.015,-0.021 -0.024,-0.046l-0.052,-0.229l-0.14,-0.288c0.002,-0.035 0.002,-0.035 0.016,-0.067l0.188,-0.284c0.044,-0.046 0.072,-0.043 0.098,-0.044l0.32,0.047c0.049,0.015 0.047,0.018 0.094,0.039l0.061,-0.047l-0.097,-0.162c-0.002,-0.031 -0.002,-0.031 0.005,-0.062l0.107,-0.255l-0.022,-0.109l-0.233,-0.2l-0.207,-0.363l-0.156,-0.375c-0.007,-0.027 -0.007,-0.027 -0.006,-0.055l0.062,-0.352l0.095,-0.254l-0.09,-0.198l0.068,-0.24l-0.143,-0.342l0.086,-0.366l0.178,-0.115l-0.159,-0.129c-0.022,-0.024 -0.022,-0.025 -0.035,-0.055l-0.069,-0.301l-0.092,-0.23l-0.166,-0.099c-0.037,-0.032 -0.054,-0.074 -0.039,-0.129l0.164,-0.323l0.117,-0.008l0.316,0.201l0.214,0.233l0.181,0.26l0.113,0.102l0.142,-0.238l0.096,-0.003l0.001,-0.044l-0.295,-0.179l0.024,-0.335l-0.099,-0.091l-0.332,-0.235l-0.066,-0.423c-0.006,-0.182 -0.124,0.025 -0.124,0.025l-0.112,-0.051l-0.022,-0.336l-0.054,-0.309l0.162,-0.234l0.242,-0.337l0.248,-0.162l0.228,-0.247l0.234,-0.18l0.242,-0.225l-0.001,-0.159c0.004,-0.023 0.003,-0.047 0.048,-0.086l0.296,-0.18c0.113,-0.111 0.221,-0.37 0.34,-0.161c0,0 0.009,0.02 0.02,0.097l0.056,-0.012l-0.001,-0.178l-0.143,-0.244c-0.208,-0.311 -0.21,-0.31 -0.445,-0.602l-0.007,-0.009c-0.217,-0.343 -0.217,-0.342 -0.411,-0.699l-0.232,-0.324c-0.013,-0.027 -0.013,-0.027 -0.018,-0.056l-0.011,-0.391l-0.007,-0.358l0.097,-0.225l-0.085,-0.264l-0.102,-0.377c-0.006,-0.05 0.024,-0.126 0.027,-0.137l-0.139,0.01c-0.023,-0.002 -0.048,0 -0.091,-0.044l-0.201,-0.31l-0.04,-0.165c-0.003,-0.026 -0.003,-0.026 0.001,-0.051l0.037,-0.13l-0.038,-0.335l0.174,-0.254l0.122,0.013l0.297,0.295l-0.006,0.224c-0.005,0.023 -0.005,0.023 -0.014,0.043l-0.048,0.085l0.066,0.025l0.157,-0.263l-0.054,-0.038l-0.227,-0.331c-0.004,-0.031 -0.004,-0.032 0.002,-0.062l0.05,-0.145l-0.13,-0.226c-0.002,-0.06 0.046,-0.136 0.054,-0.151l-0.21,-0.115c-0.021,-0.015 -0.021,-0.015 -0.038,-0.036l-0.209,-0.347c-0.013,-0.033 -0.013,-0.033 -0.013,-0.069l0.048,-0.261l-0.097,-0.329l-0.006,-0.405l0.091,-0.065l0.28,-0.008l0.175,-0.016l-0.012,-0.259l0.083,-0.275l-0.003,-0.265l-0.133,-0.093l-0.238,-0.325c-0.025,-0.047 -0.018,-0.066 -0.016,-0.086l0.072,-0.263c-0.013,-0.051 -0.127,-0.523 -0.144,-0.562c-0.07,-0.168 -0.203,-0.386 -0.203,-0.386c-0.013,-0.185 -0.025,-0.369 -0.036,-0.553l-0.197,-0.374l0.086,-0.292l-0.137,-0.32c-0.166,-0.313 -0.17,-0.311 -0.367,-0.606l-0.067,-0.391l-0.037,-0.333l-0.14,-0.315l-0.186,-0.378l-0.112,-0.453l0.061,-0.144l-0.043,-0.358l0.065,-0.249l-0.016,-0.274l-0.21,-0.304l-0.221,-0.347c-0.047,-0.09 -0.334,-0.633 -0.379,-0.723c-0.254,-0.519 -0.423,-1.022 -0.56,-1.539l-0.002,-0.011c-0.058,-0.381 -0.059,-0.381 -0.084,-0.767l0.057,-0.433c0.021,-0.028 0.021,-0.028 0.051,-0.047l0.136,-0.056l0.054,-0.12l-0.199,-0.062c-0.028,-0.014 -0.028,-0.014 -0.05,-0.036l-0.241,-0.326c-0.017,-0.034 -0.017,-0.035 -0.019,-0.072l0.029,-0.226l-0.111,-0.112l-0.256,-0.281c-0.02,-0.032 -0.02,-0.032 -0.026,-0.068l0.001,-0.193l-0.056,-0.006c0,0 0.034,0.167 -0.088,0.209l-0.258,0.041c-0.036,0 -0.036,-0.001 -0.069,-0.014l-0.369,-0.246l-0.207,-0.331l-0.115,-0.265l-0.033,-0.137l-0.195,0.067c-0.211,0.029 -0.411,-0.281 -0.411,-0.281l-0.264,-0.308l-0.248,-0.328c-0.353,-0.492 -0.663,-1.005 -0.889,-1.371l-0.176,-0.412l-0.043,-0.354l-0.28,-0.193l-0.36,-0.237l-0.28,-0.323l-0.196,-0.366l-0.165,-0.43c0,0 0.033,-0.225 0.033,-0.225c0,0 -0.116,-0.072 -0.16,0.012c-0.039,0.072 -0.095,0.141 -0.178,0.163c-0.163,0.043 -0.361,-0.107 -0.396,-0.138l-0.236,-0.263c-0.03,-0.045 -0.025,-0.066 -0.024,-0.086l0.065,-0.296l0.131,-0.224c0.014,-0.019 0.014,-0.019 0.032,-0.034l0.114,-0.073l-0.274,-0.049l-0.366,-0.138l-0.23,-0.321l-0.22,-0.357l-0.051,-0.101c0,0 -0.052,0.13 -0.155,0.149c-0.202,0.037 -0.39,-0.19 -0.39,-0.19c-0.198,-0.123 -0.395,-0.246 -0.593,-0.368l-0.321,-0.276l-0.302,-0.271l-0.309,-0.259c-0.155,-0.121 -0.477,-0.377 -0.641,-0.485c-0.286,-0.19 -0.393,-0.228 -0.703,-0.376c0,0 -0.563,-0.361 -1.014,-0.715c-0.305,-0.24 -0.333,-0.263 -0.635,-0.505l-0.33,-0.235c-0.328,-0.246 -0.328,-0.246 -0.642,-0.509l-0.314,-0.263c-0.153,-0.146 -0.442,-0.414 -0.586,-0.569c-0.118,-0.127 -0.276,-0.321 -0.276,-0.321l-0.239,-0.391l-0.014,-0.346l-0.014,-0.267l-0.292,-0.184l-0.348,-0.216l-0.332,-0.24c-0.287,-0.21 -0.591,-0.436 -0.974,-0.725l-0.329,-0.243c-0.296,-0.243 -0.603,-0.498 -0.922,-0.816c-0.282,-0.281 -0.293,-0.306 -0.553,-0.606l-0.216,-0.339l-0.25,-0.327l-0.216,-0.344l-0.2,-0.327l-0.239,-0.339l-0.173,-0.361l-0.202,-0.368l-0.137,-0.404l-0.045,-0.456l0.19,-0.393l0.233,-0.221l0.053,-0.214l-0.162,-0.201l-0.238,-0.307l-0.179,-0.396l-0.04,-0.286l-0.049,-0.02l-0.2,0.106c-0.033,0 -0.033,0 -0.065,-0.01l-0.328,-0.18l-0.303,-0.273l-0.283,-0.283l-0.283,-0.201c-0.303,-0.204 -0.303,-0.204 -0.611,-0.401l-0.333,-0.009c-0.029,-0.005 -0.029,-0.005 -0.056,-0.018l-0.339,-0.243l-0.293,-0.286c-0.24,-0.265 -0.323,-0.342 -0.534,-0.632c-0.076,-0.105 -0.145,-0.216 -0.217,-0.324l-0.191,-0.129l-0.288,-0.285l-0.235,-0.337c-0.14,-0.237 -0.269,-0.48 -0.386,-0.729l-0.136,-0.407l-0.086,-0.391l-0.093,-0.272l-0.277,-0.217l-0.188,-0.314l-0.085,-0.212l-0.222,-0.192l-0.317,-0.168l-0.147,-0.386l-0.048,-0.419l0.079,-0.43l0.196,-0.355c0.012,-0.016 0.022,-0.036 0.075,-0.051l0.293,-0.035l0.212,-0.098l0.058,-0.196l0.012,-0.389l0.118,-0.413l0.238,-0.14c0.143,-0.224 0.143,-0.224 0.278,-0.453l0.001,-0.203l-0.179,-0.393l0.066,-0.378l0.11,-0.209l-0.017,-0.391l0.032,-0.42l0.085,-0.376l0.085,-0.41l0.149,-0.41l0.239,-0.319c0.016,-0.016 0.016,-0.016 0.035,-0.028l0.211,-0.11l0.192,-0.281l-0.003,-0.355l0.141,-0.354l0.003,-0.234l0.192,-0.328c0.02,-0.024 0.02,-0.024 0.047,-0.041l0.372,-0.159l0.278,-0.038l0.255,0.156l0.171,-0.122l0.33,-0.179l0.301,-0.077c0.274,-0.273 0.273,-0.273 0.526,-0.566l0.275,-0.3c0.184,-0.194 0.369,-0.388 0.555,-0.581l0.346,-0.248l0.394,-0.128l0.406,-0.063l0.398,0.003l0.184,0.103c0.203,-0.227 0.196,-0.234 0.321,-0.511l-0.091,-0.288l-0.156,-0.429l0.11,-0.378c0.05,-0.352 0.056,-0.356 -0.022,-0.703l0.006,-0.411l0.25,-0.312l0.308,-0.23l0.305,-0.208l0.099,-0.34c0.017,-0.034 0.018,-0.034 0.047,-0.059l0.343,-0.189c0.035,-0.012 0.035,-0.012 0.072,-0.01l0.243,0.061l-0.108,-0.237l-0.14,-0.323c-0.015,-0.063 -0.008,-0.109 0.076,-0.138l0.379,-0.058l0.393,0.016l0.172,-0.04l-0.099,-0.086c-0.024,-0.03 -0.024,-0.031 -0.035,-0.068l-0.028,-0.36c0.003,-0.035 0.003,-0.036 0.019,-0.068l0.221,-0.284l0.327,-0.047l0.252,-0.336l0.268,-0.046l0.221,0.043l0.398,-0.052l0.323,0.098l0.302,0.058l0.15,0.099c0.078,0.033 0.203,-0.012 0.203,-0.012l0.021,-0.237c0.019,-0.028 0.019,-0.028 0.046,-0.049l0.175,-0.09l0.105,-0.152l0.206,-0.056l0.283,0.015l0.164,0.018l0.197,-0.033l0.185,-0.087l0.194,-0.267c0.02,-0.021 0.02,-0.021 0.045,-0.035l0.233,-0.088l0.172,-0.154l0.123,-0.049l0.091,-0.113c0.254,-0.171 0.256,-0.169 0.518,-0.328l0.146,-0.127l0.165,-0.141l0.066,-0.067c-0.329,0.044 -0.118,0.119 -0.357,0.02l-0.171,-0.146l0.001,-0.082c-0.118,-0.137 -0.093,-0.163 -0.093,-0.163l-0.068,-0.403c0.008,-0.023 0.014,-0.049 0.071,-0.077l0.298,-0.08l0.263,0.001c0.165,-0.012 0.163,-0.022 0.323,-0.063l0.117,-0.198l0.106,-0.157l0.085,-0.19c0.184,-0.096 0.186,-0.092 0.378,-0.174l0.342,-0.093l0.108,-0.115l0.07,-0.195l0.14,-0.144c0.018,-0.015 0.018,-0.015 0.039,-0.025l0.302,-0.103c0.048,-0.007 0.091,0.007 0.123,0.052l0.077,0.163l0.235,-0.135l0.229,0.039c0.078,0.03 0.08,0.126 0.071,0.213l0.079,0.057l0.101,0.135l0.103,0.035l0.08,-0.032l0.031,-0.267c0.104,-0.135 0.169,0.107 0.3,-0.107c0.077,-0.121 0.267,-0.215 0.267,-0.215c0,0 -0.079,-0.221 0.074,-0.338c-0.068,-0.023 -0.162,-0.026 -0.162,-0.026l-0.386,0.088l-0.066,-0.041l-0.19,-0.268l-0.304,-0.17l-0.167,-0.2l-0.087,-0.193l-0.235,-0.001l-0.286,-0.082c-0.324,0.101 -0.324,0.104 -0.634,0.245l-0.39,0.095l-0.414,0.029l-0.308,-0.059l-0.256,0.167c-0.031,0.013 -0.031,0.013 -0.065,0.016l-0.324,-0.034c-0.083,-0.022 -0.155,-0.208 -0.155,-0.208l-0.103,-0.235l-0.208,-0.019c-0.254,0.195 -0.253,0.198 -0.461,0.442l-0.114,0.027l-0.266,-0.278l0.027,-0.332l-0.18,-0.206l-0.152,-0.241l-0.174,-0.039l-0.233,0.159c-0.027,0.013 -0.027,0.013 -0.057,0.017l-0.307,-0.01l-0.231,-0.236l-0.282,-0.158c-0.271,-0.177 -0.271,-0.177 -0.537,-0.361l-0.353,-0.087l-0.365,-0.187l-0.005,-0.121l0.217,-0.303l0.198,-0.18l-0.104,-0.176l-0.219,-0.087l-0.254,0.153l-0.332,-0.056c-0.026,-0.019 -0.026,-0.019 -0.044,-0.045l-0.113,-0.227l-0.246,-0.109l-0.283,0.001l-0.322,0.036l-0.228,-0.182l-0.219,-0.086l-0.2,0.205l-0.243,0.135c-0.06,0.021 -0.106,0.019 -0.145,-0.059l-0.091,-0.312c-0.008,-0.054 0.006,-0.07 0.015,-0.087l0.164,-0.225c0.003,-0.275 0.002,-0.276 -0.048,-0.546l-0.042,-0.305c-0.06,-0.194 -0.061,-0.193 -0.128,-0.385c0,0 -0.021,-0.032 0.02,-0.099l0.156,-0.174l-0.086,-0.216l-0.027,-0.211l-0.147,-0.219l-0.157,-0.204l-0.279,0.007l-0.311,-0.08l-0.039,-0.073l-0.007,-0.192l0.064,-0.227l-0.106,-0.297l0.009,-0.328l0.133,-0.155l0.051,-0.363l0.106,-0.341l0.175,-0.281c0.041,-0.023 0.085,-0.025 0.13,0.004l0.202,0.184c0.257,-0.03 0.258,-0.025 0.506,-0.099l-0.013,-0.179l0.076,-0.28c0.008,-0.021 0.008,-0.021 0.02,-0.039l0.211,-0.244l0.105,-0.128l-0.062,-0.18c-0.004,-0.022 -0.012,-0.046 0.018,-0.097l0.178,-0.209c0.017,-0.016 0.017,-0.016 0.037,-0.027l0.206,-0.089l0.036,-0.121l-0.238,-0.046l-0.217,-0.111l-0.318,-0.208c-0.02,-0.017 -0.02,-0.017 -0.035,-0.039l-0.087,-0.172l-0.196,-0.065l-0.239,0.189l-0.072,-0.035c-0.18,-0.213 -0.179,-0.214 -0.346,-0.437l-0.293,0.042l-0.239,-0.173l-0.162,0.058l-0.168,0.219l-0.24,0.077l-0.237,0.097l-0.251,0.072l-0.303,-0.022l-0.25,0.118l-0.249,-0.045l-0.319,-0.047l-0.196,-0.154c-0.04,-0.045 -0.036,-0.069 -0.037,-0.092l0.027,-0.214c-0.124,-0.221 -0.129,-0.221 -0.326,-0.381l-0.295,-0.045l-0.307,-0.04l-0.282,-0.055l-0.296,0.03l-0.237,0.013l-0.08,0.152l-0.256,0.233l-0.263,0.038l-0.315,-0.014l-0.222,0.175c-0.061,0.01 -0.08,-0.008 -0.1,-0.02l-0.239,-0.215c-0.018,-0.022 -0.018,-0.022 -0.029,-0.047l-0.055,-0.188l-0.151,-0.172l-0.278,-0.086l-0.291,-0.217l-0.184,-0.17c-0.226,-0.083 -0.231,-0.066 -0.47,-0.095l-0.297,-0.084l-0.308,0.017l-0.307,-0.109l-0.032,-0.078l0.015,-0.307l0.066,-0.249l-0.165,-0.199l-0.32,-0.074c-0.05,-0.02 -0.058,-0.039 -0.069,-0.056l-0.136,-0.299c-0.205,-0.232 -0.199,-0.238 -0.435,-0.437l-0.223,-0.034c-0.026,-0.007 -0.026,-0.007 -0.049,-0.022l-0.274,-0.228c-0.015,-0.016 -0.015,-0.016 -0.027,-0.036l-0.134,-0.301l-0.179,-0.033l-0.192,0.282l-0.199,0.139c-0.121,0.242 -0.288,0.508 -0.288,0.508l-0.078,-0.008l-0.225,-0.124l-0.166,0.009l-0.28,0.179c-0.025,0.012 -0.025,0.012 -0.052,0.016l-0.234,0.003l-0.268,0l-0.24,0.201l-0.317,0.208l-0.261,0.077l-0.081,0.308c-0.035,0.034 -0.077,0.048 -0.13,0.031l-0.232,-0.124l-0.178,0.02l-0.047,0.258c-0.009,0.025 -0.016,0.053 -0.077,0.08l-0.302,0.064l-0.142,0.004c0.013,0.23 0.023,0.229 0.085,0.451l0.069,0.338l0.191,0.217l0.076,0.281c0.005,0.046 -0.011,0.086 -0.052,0.116l-0.318,0.159l-0.303,0.136l-0.144,0.256c-0.017,0.022 -0.017,0.022 -0.04,0.039l-0.27,0.144l-0.094,0.251l-0.443,0.033l-0.29,-0.117l-0.296,0.1l-0.088,-0.07l-0.047,-0.153l-0.198,0.057l-0.149,0.149l-0.227,0.267l-0.29,0.264l-0.339,0.141l-0.193,0.269c-0.023,0.023 -0.023,0.023 -0.052,0.037l-0.295,0.089c-0.026,0.002 -0.053,0.009 -0.104,-0.03l-0.201,-0.23l-0.371,-0.098l-0.255,-0.263l-0.005,-0.388l-0.026,-0.187l-0.222,0.08l-0.318,0.047l-0.317,0.139l-0.261,0.044l-0.192,0.279l-0.251,0.229l-0.123,0.312l0.012,0.31l-0.065,0.374l-0.12,0.249l0.049,0.21c0.001,0.037 0.001,0.037 -0.011,0.072l-0.118,0.205c-0.021,0.026 -0.021,0.026 -0.05,0.043l-0.287,0.113c-0.061,0.012 -0.081,-0.005 -0.101,-0.017l-0.283,-0.238c-0.238,-0.19 -0.239,-0.189 -0.495,-0.353l-0.32,-0.29l-0.232,-0.311l-0.26,-0.277l-0.255,-0.186l-0.263,-0.27l-0.317,-0.223l-0.155,-0.171l-0.095,0.049l-0.123,0.275l-0.198,0.239l-0.024,0.315l-0.087,0.324l-0.214,0.303c-0.028,0.015 -0.029,0.015 -0.061,0.02l-0.28,-0.002c-0.038,-0.008 -0.038,-0.008 -0.07,-0.029l-0.247,-0.248l-0.178,-0.277l-0.187,-0.3l-0.002,-0.278c-0.039,-0.059 -0.067,-0.127 -0.116,-0.177c-0.192,-0.197 -0.265,-0.197 -0.512,-0.295l-0.118,0.099c-0.048,0.079 -0.104,0.153 -0.144,0.237c-0.107,0.224 -0.12,0.356 -0.172,0.599c0,0 0.002,0.033 -0.058,0.071l-0.33,0.144l-0.297,0.109l-0.185,0.159l-0.082,0.26l0.076,0.25c0.006,0.048 -0.01,0.09 -0.055,0.121l-0.299,0.131c-0.236,0.134 -0.241,0.128 -0.445,0.308l0.015,0.352l-0.069,0.037l-0.393,0.029l-0.335,-0.128l-0.239,-0.136l-0.352,-0.104l-0.169,-0.321l-0.175,-0.237l-0.072,-0.254l-0.169,-0.164l-0.312,-0.11l-0.221,-0.166l-0.274,-0.187l-0.336,-0.117l-0.225,-0.137l-0.315,-0.036c-0.027,-0.007 -0.027,-0.007 -0.051,-0.022l-0.221,-0.179l-0.258,0.185l-0.069,-0.036l-0.189,-0.232l-0.209,-0.222l-0.244,-0.084l-0.181,0.181l-0.107,0.284c-0.013,0.024 -0.013,0.024 -0.033,0.044l-0.255,0.197l-0.064,0.123l0.126,0.164c0.022,0.043 0.022,0.087 -0.009,0.132l-0.285,0.277l-0.246,0.177c-0.17,0.155 -0.225,0.19 -0.365,0.375c-0.145,0.191 -0.185,0.279 -0.298,0.485l-0.072,0.113l0.081,0.3l-0.083,0.085l-0.353,-0.086l-0.304,-0.047l-0.148,0.109l0.143,0.208l0.123,0.285c0.008,0.028 0.008,0.028 0.007,0.058l-0.037,0.196l0.317,0.176l0.132,0.235l0.239,0.159l0.166,0.229l0.283,0.072c0.028,0.012 0.028,0.012 0.052,0.033l0.195,0.236c0.249,0.223 0.25,0.224 0.539,0.39l0.178,0.256c0.226,0.212 0.229,0.209 0.479,0.393c0,0 0.029,0.012 0.04,0.079l0.003,0.184l-0.008,0.231l0.284,0.165l0.344,0.207l0.287,0.223l0.053,0.307l0.174,0.269l0.123,0.395l-0.083,0.335c0.051,0.197 0.103,0.393 0.155,0.589l0.193,0.04l0.306,-0.013l0.226,-0.239l0.237,-0.204c0.087,-0.299 0.071,-0.304 0.051,-0.615l0.097,-0.362c0.037,-0.034 0.082,-0.046 0.136,-0.023l0.251,0.165c0.042,0.039 0.041,0.062 0.045,0.083l0.004,0.351l-0.009,0.303l0.127,0.182l0.262,-0.124l0.375,-0.15c0,0 0.035,0.005 0.071,0.029Zm52.442,73.926l-0.004,0.078l-0.078,0.159l0.104,0.233l0,-0.089l0.047,-0.279c0.018,-0.047 0.02,-0.046 0.048,-0.088c0,0 -0.164,-0.09 -0.117,-0.014Zm-0.409,-0.163l-0.071,0.081l0.2,-0.107c0.037,-0.016 0.069,-0.029 0.119,0.009l-0.126,-0.203c-0.04,0.074 -0.081,0.147 -0.122,0.22Zm-9.229,-28.014c0.002,0.041 0.025,0.097 0.025,0.097l0.053,0.094l0.085,-0.08l0.311,-0.039l0.135,-0.05l-0.015,-0.05l-0.207,0.032l-0.24,-0.119c-0.049,0.038 -0.098,0.076 -0.147,0.115Z" style="" fill-rule="nonzero"></path><path d="M77.813,17.589c0.041,0.001 0.074,0.045 0.055,0.083c-0.051,0.086 -0.129,0.189 -0.168,0.21l-0.258,0.124c-0.195,0.081 -0.481,0.132 -0.505,0.127c-0.013,-0.004 -0.025,-0.012 -0.032,-0.023c-0.076,-0.114 0.312,-0.232 0.312,-0.232l0.234,-0.107c0.065,-0.036 0.128,-0.075 0.192,-0.112c0.055,-0.03 0.111,-0.07 0.17,-0.07Zm-0.148,0.173c-0.213,0.125 -0.315,0.166 -0.501,0.247c0,0 0.237,-0.094 0.237,-0.094l0.245,-0.118c0,0 0.06,-0.058 0.019,-0.035Z" style="" fill-rule="nonzero"></path><path d="M79.075,17.278c0,0 0.386,0.096 0.246,0.161l-0.257,0.104c-0.131,0.058 -0.32,0.138 -0.32,0.138l-0.223,0.008c-0.153,0.048 -0.301,0.198 -0.423,0.129c-0.056,-0.031 -0.109,-0.097 -0.049,-0.13c0,0 0.132,-0.067 0.132,-0.067c-0.145,0.003 -0.408,-0.018 -0.187,-0.119c0.112,-0.049 0.286,-0.098 0.286,-0.098l0.38,-0.024c0.138,-0.035 0.28,-0.11 0.415,-0.102Zm-0.395,0.2c-0.004,0.001 -0.004,0.001 -0.009,0.001l-0.381,0.025c-0.152,0.037 0.084,0.118 -0.008,0.181c-0.036,0.02 -0.073,0.036 -0.11,0.054c0.111,0.026 0.202,-0.128 0.335,-0.15l0.223,-0.008l0.295,-0.13l0.122,-0.05l-0.078,-0.022c-0.13,0.033 -0.259,0.066 -0.389,0.099Zm-0.716,0.047c0,0 0,0 0,0Z" style="" fill-rule="nonzero"></path><path d="M74.337,20.787c0.121,0.015 -0.059,0.27 -0.155,0.353c-0.091,0.079 -0.237,0.13 -0.343,0.04c-0.053,-0.051 -0.098,-0.145 -0.038,-0.164c0.171,-0.043 0.346,-0.059 0.476,-0.195c0.016,-0.018 0.035,-0.035 0.06,-0.034Zm-0.219,0.276c-0.016,0.006 -0.038,0.012 -0.038,0.012c0,0 -0.235,0.011 -0.144,0.048c0.079,0.033 0.188,-0.062 0.182,-0.06Z" style="" fill-rule="nonzero"></path><path d="M74.256,21.402c0.046,0.004 0.187,0.068 0.152,0.132c-0.057,0.09 -0.15,0.21 -0.23,0.196c-0.162,-0.039 -0.387,-0.13 -0.321,-0.193c0.114,-0.098 0.262,-0.141 0.399,-0.135Zm-0.23,0.137l-0.039,0.028l0.19,0.059l0.112,-0.1c0,0 -0.153,-0.005 -0.263,0.013Z" style="" fill-rule="nonzero"></path><path d="M75.702,20.251c0.157,0.017 -0.095,0.447 -0.095,0.447c-0.008,0.063 -0.007,0.129 -0.029,0.183c0.075,0.007 0.157,0.026 0.149,0.087c-0.028,0.108 -0.083,0.26 -0.089,0.27l-0.216,0.316c-0.111,0.153 -0.241,0.33 -0.259,0.353c-0.088,0.115 -0.257,0.228 -0.212,0.111l0.117,-0.264l-0.068,-0.252c-0.007,-0.032 0.001,-0.035 0.013,-0.048l0.138,-0.14c-0.103,0.024 -0.204,0.083 -0.297,0.063l-0.116,-0.031l-0.32,0.139c-0.174,0.063 0.004,-0.189 0.156,-0.281l0.297,-0.16l0.228,-0.222c-0.146,-0.406 0.258,-0.455 0.258,-0.455l0.176,-0.103c0.068,-0.035 0.098,0.012 0.098,0.012c0,0 0.038,-0.026 0.071,-0.025Zm-0.245,1.026c-0.03,0.052 -0.21,0.082 -0.21,0.082l-0.143,0.144l0.063,0.233c0.166,-0.23 0.166,-0.23 0.326,-0.464c-0.012,0.002 -0.024,0.003 -0.036,0.005Zm-0.052,-0.822c-0.023,0.012 -0.08,0.033 -0.08,0.033l-0.16,0.222c0,0 0.075,0.095 0.03,0.157c-0.086,0.094 -0.171,0.202 -0.27,0.261c0,0 -0.407,0.144 -0.195,0.116c0.04,-0.001 0.138,0.033 0.138,0.033l0.275,-0.064c0,0 0.249,0.008 0.226,-0.034c-0.005,-0.014 -0.005,-0.026 -0.001,-0.04l0.121,-0.305l0.02,-0.159c0.016,-0.094 0.053,-0.088 0.08,-0.135c0.132,-0.239 -0.024,-0.179 -0.024,-0.179c-0.054,0.032 -0.107,0.063 -0.16,0.094Zm0.105,0.714l0.049,-0.005l0.04,-0.175c-0.03,0.06 -0.059,0.12 -0.089,0.18Z" style="" fill-rule="nonzero"></path><path d="M74.853,20.87c0.172,0.021 -0.066,0.301 -0.218,0.377c-0.174,0.075 -0.357,0.154 -0.55,0.12c-0.054,-0.014 -0.052,-0.095 0.027,-0.11c0.146,-0.024 0.338,-0.085 0.338,-0.085c0.152,-0.188 0.376,-0.304 0.403,-0.302Zm-0.159,0.159c0,0 -0.255,0.302 0.048,-0.012c0,0 -0.029,0.005 -0.048,0.012Z" style="" fill-rule="nonzero"></path><path d="M75.711,19.568c0.113,0.007 0.277,0.024 0.249,0.099c-0.04,0.089 -0.072,0.21 -0.13,0.222l-0.109,0.018c-0.056,0.085 -0.129,0.213 -0.179,0.154c-0.071,-0.094 -0.163,-0.226 -0.089,-0.255l0.06,-0.021c0.063,-0.08 0.109,-0.217 0.198,-0.217Zm-0.129,0.29c-0.019,0.022 -0.037,0.021 -0.037,0.021l0.037,0.058c0.082,-0.125 0.206,-0.142 0.206,-0.142l0.051,-0.107l-0.108,-0.016c-0.05,0.062 -0.099,0.124 -0.149,0.186Z" style="" fill-rule="nonzero"></path><path d="M75.473,19.916c0.078,0.003 0.12,0.164 0.058,0.198l-0.161,0.083c-0.111,0.075 -0.325,0.218 -0.01,-0.199c0.032,-0.041 0.058,-0.083 0.113,-0.082Z" style="" fill-rule="nonzero"></path><path d="M76.321,19.488c0.031,0.004 0.054,0.035 0.043,0.068l-0.13,0.351l-0.125,0.348c-0.075,0.188 -0.153,0.376 -0.308,0.52c-0.034,0.025 -0.085,-0.001 -0.082,-0.045c0.02,-0.11 0.062,-0.27 0.062,-0.27l0.124,-0.321c0.055,-0.133 0.138,-0.33 0.138,-0.33c0.087,-0.123 0.168,-0.323 0.278,-0.321Zm-0.193,0.373c-0.13,0.315 -0.13,0.315 -0.252,0.632l-0.019,0.082l0.158,-0.356l0.125,-0.346c0,0 0.06,-0.103 -0.012,-0.012Z" style="" fill-rule="nonzero"></path><path d="M77.364,20.387c0.243,0.013 0.309,0.41 -0.025,0.587c-0.056,0.03 -0.132,-0.016 -0.092,-0.073l0.046,-0.057c-0.08,-0.118 -0.214,-0.266 -0.157,-0.314c0.074,-0.055 0.147,-0.144 0.228,-0.143Zm-0.128,0.195l0.157,0.232c0.088,-0.076 0.196,-0.292 -0.019,-0.326c0,0 -0.083,0.055 -0.138,0.094Z" style="" fill-rule="nonzero"></path><path d="M78.145,20.141c0.123,0.015 0,0.317 -0.237,0.516c-0.051,0.038 -0.506,0.191 -0.092,-0.32c0.008,-0.01 0.016,-0.021 0.026,-0.03c0.016,-0.014 0.257,-0.168 0.303,-0.166Zm-0.237,0.242c-0.067,0.077 -0.127,0.215 -0.127,0.215l0.069,-0.024l0.179,-0.177l0.029,-0.101c-0.05,0.029 -0.1,0.058 -0.15,0.087Z" style="" fill-rule="nonzero"></path><path d="M71.153,21.684c0.046,0.008 0.016,0.031 0.106,0.004c0.181,-0.035 0.311,0.02 0.346,0.179l0.163,0.126c0.347,-0.115 0.427,0.439 0.272,0.339c0.025,0.032 -0.012,0.093 -0.06,0.076l-0.113,-0.048c-0.077,0.008 -0.078,0.027 -0.098,0.027l-0.059,-0.001c0,0 -0.104,0.04 -0.092,0.096c0.027,0.176 0.174,0.156 0.181,0.225c0.01,0.098 -0.083,-0.108 -0.144,0.162c-0.02,0.068 -0.141,-0.004 -0.141,-0.004c-0.091,-0.013 -0.192,-0.068 -0.185,-0.157l-0.051,-0.013c-0.039,0.06 -0.098,0.132 -0.136,0.091l-0.099,-0.117c-0.053,-0.043 -0.124,-0.065 -0.149,-0.13l-0.057,-0.163c-0.166,-0.064 -0.416,-0.122 -0.339,-0.206c0.04,-0.035 0.102,-0.08 0.102,-0.08c0,0 0.086,-0.004 0.07,-0.124c-0.004,-0.117 0.095,-0.239 0.063,-0.399c-0.009,-0.094 0.081,-0.072 0.097,-0.021l0.063,0.165c0.088,-0.02 0.173,-0.033 0.26,-0.027Zm0.32,0.604c0.041,0.005 0.06,0.047 0.083,0.084c0.06,-0.042 0.142,-0.086 0.142,-0.086c-0.1,-0.199 0.007,-0.245 -0.079,-0.29c-0.042,0.353 -0.084,0.065 -0.108,-0.085c-0.006,-0.04 -0.027,-0.095 -0.027,-0.095l-0.108,-0.044c0,0 -0.129,0.093 -0.187,0.055c0,0 -0.065,-0.058 -0.155,-0.046c-0.097,0.014 -0.211,0.019 -0.211,0.019l-0.05,0.16c0.086,0.225 -0.14,0.231 -0.14,0.231c0.113,0.043 0.267,0.071 0.291,0.13l0.059,0.172c0.161,0.129 0.14,0.243 0.233,0.113c0.054,-0.06 0.217,-0.005 0.215,0.069c0,0 -0.043,0.063 0.119,0.094c0.08,0.023 0.053,-0.114 0.053,-0.114c-0.015,-0.014 -0.028,-0.029 -0.041,-0.044c-0.099,-0.114 -0.226,-0.33 -0.089,-0.323Zm0.445,-0.149c0,0 -0.155,-0.04 -0.155,-0.04c0.029,0.101 0.122,0.216 0.057,0.135c-0.028,-0.045 0.018,-0.104 0.098,-0.095Z" style="" fill-rule="nonzero"></path><path d="M73.918,21.695c0.021,0.002 0.04,0.025 0.04,0.025l0.121,0.205c0.226,0.034 0.39,0.214 0.094,0.222c-0.132,-0.003 -0.321,0.148 -0.322,-0.33c0,-0.046 -0.002,-0.126 0.067,-0.122Zm0.042,0.228c0.009,0.052 0.037,0.116 0.037,0.116c0,0 0.164,0 0.164,0c-0.154,-0.023 -0.205,-0.139 -0.201,-0.116Z" style="" fill-rule="nonzero"></path><path d="M90.082,88.529c0.12,0.011 0.272,-0.018 0.352,0.057c0.161,0.173 0.29,0.372 0.388,0.587c0.035,0.097 -0.226,0.053 -0.262,0.035l-0.315,-0.182c-0.108,-0.071 -0.272,-0.143 -0.266,-0.209c0.021,-0.124 0.024,-0.29 0.103,-0.288Zm0.003,0.271c0.252,0.168 0.254,0.165 0.517,0.316l0.086,0.013c-0.125,-0.251 -0.132,-0.248 -0.315,-0.461l-0.254,-0.034c-0.011,0.056 -0.023,0.111 -0.034,0.166Z" style="" fill-rule="nonzero"></path><path d="M83.473,61.34c0.161,0.014 0.298,0.237 0.256,0.318c-0.049,0.083 -0.113,0.205 -0.168,0.155c-0.096,-0.098 -0.239,-0.211 -0.226,-0.276c0.022,-0.087 0.03,-0.201 0.138,-0.197Zm-0.034,0.195l0.149,0.16c0,0 0.065,-0.231 -0.119,-0.255c0,0 -0.019,0.057 -0.03,0.095Z" style="" fill-rule="nonzero"></path><path d="M89.638,91.815c0.003,0.001 0.007,0.001 0.01,0.002l0.285,0.085c0.088,0.008 0.206,-0.003 0.219,0.057c0.017,0.126 0.056,0.291 -0.021,0.3c-0.061,0.003 -0.125,0.016 -0.182,-0.001l-0.122,-0.042c-0.228,0.105 -0.629,-0.021 -0.415,-0.306c0.031,-0.036 0.184,-0.097 0.226,-0.095Zm-0.153,0.166c0,0 0,0.223 0.173,0.202l0.183,-0.068l0.231,0.045l-0.015,-0.146c-0.06,-0.005 -0.148,-0.014 -0.148,-0.014l-0.273,-0.082c-0.05,0.021 -0.101,0.042 -0.151,0.063Z" style="" fill-rule="nonzero"></path><path d="M46.887,106.403c0.073,0.015 0.315,0.267 0.543,0.521l0.005,0.384c0.016,0.387 0.016,0.387 0.042,0.774l-0.192,0.355c-0.108,0.366 -0.253,0.684 -0.232,0.964c0.013,0.173 0.096,0.34 0.147,0.517c0,0 0.003,0.062 -0.051,0.064c-0.178,-0.023 -0.361,-0.156 -0.388,-0.199c-0.058,-0.134 -0.118,-0.341 -0.118,-0.341l-0.072,-0.395c-0.044,-0.208 -0.112,-0.567 -0.189,-0.768c-0.085,-0.223 -0.241,-0.407 -0.407,-0.578l-0.321,-0.117c-0.014,-0.006 -0.022,-0.014 -0.029,-0.027l-0.127,-0.289l-0.079,-0.302c-0.006,-0.037 0.011,-0.066 0.056,-0.062l0.363,0.056l0.337,0.067l0.167,-0.309l0.186,-0.296c0.047,-0.047 0.224,-0.028 0.359,-0.019Zm-0.293,0.102c-0.185,0.294 -0.183,0.295 -0.349,0.602c0,0 -0.014,0.029 -0.054,0.025l-0.37,-0.073l-0.286,-0.045l0.058,0.224l0.115,0.259l0.312,0.114c0.124,0.055 0.283,0.286 0.283,0.286c0.081,0.136 0.174,0.351 0.174,0.351l0.108,0.384c0.083,0.393 0.083,0.393 0.156,0.788l0.106,0.308l0.234,0.138l-0.059,-0.203l-0.068,-0.244c-0.023,-0.11 0.03,-0.304 0.03,-0.304l0.095,-0.333l0.116,-0.389l0.181,-0.319l-0.025,-0.376l-0.016,-0.389l0.007,-0.333l-0.235,-0.262l-0.245,-0.211c-0.089,0 -0.178,0.001 -0.268,0.002Z" style="" fill-rule="nonzero"></path></svg>