<svg height='100px' width='100px'  fill="#000000" xmlns="http://www.w3.org/2000/svg" viewBox="0 0 100 100" x="0px" y="0px"><defs><style>.cls-1{fill-rule:evenodd;}</style></defs><title>05 телефон вызов</title><g data-name="05 телефон вызов"><path class="cls-1" d="M14.73,39a20.42,20.42,0,0,0-.26,23L17,60.38a17.42,17.42,0,0,1,.22-19.65Z"></path><path class="cls-1" d="M14,31.95,12,29.79a29,29,0,0,0,0,41.87L14,69.49a26,26,0,0,1,0-37.54Z"></path><path class="cls-1" d="M38.11,41.09A18.91,18.91,0,0,0,63,59h0l.18-.21a3.22,3.22,0,0,0-1.06-5l-5.19-2.48a3.2,3.2,0,0,0-3.54.51l-3.77,3.32a16,16,0,0,1-5.86-5.28l3-3.5a3.19,3.19,0,0,0,.33-3.68l-2.9-5a3.22,3.22,0,0,0-4.95-.79l-.79.71h0A19,19,0,0,0,38.11,41.09Z"></path><path class="cls-1" d="M85.27,39l-2.46,1.72A17.42,17.42,0,0,1,83,60.38L85.53,62a20.42,20.42,0,0,0-.26-23Z"></path><path class="cls-1" d="M88,29.79,86,31.95a26,26,0,0,1,0,37.54L88,71.65a29,29,0,0,0,0-41.87Z"></path><path class="cls-1" d="M71.65,2H28.43A7.4,7.4,0,0,0,21,9.39V90.61A7.4,7.4,0,0,0,28.43,98H71.65A7.4,7.4,0,0,0,79,90.61V9.39A7.4,7.4,0,0,0,71.65,2ZM47,6H60V9H47ZM41,6h3V9H41Zm21.5,84.5A2.51,2.51,0,0,1,60,93H40a2.51,2.51,0,0,1-2.5-2.5h0A2.51,2.51,0,0,1,40,88H60a2.51,2.51,0,0,1,2.5,2.5ZM72,83H28V12H72Z"></path></g></svg>