<svg height='100px' width='100px'  fill="#000000" xmlns="http://www.w3.org/2000/svg" xmlns:xlink="http://www.w3.org/1999/xlink" version="1.1" x="0px" y="0px" viewBox="0 0 10 10" style="enable-background:new 0 0 10 10;" xml:space="preserve"><g><path d="M8.756,7.868L7.804,7.325C7.737,7.312,7.562,7.156,7.562,7.156c-0.51-0.455-0.723-0.541-1.134-0.463   C6.415,6.695,6.171,6.728,6.149,6.731C5.925,6.795,5.122,6.835,5.122,6.835C5.004,6.863,4.346,6.85,4.346,6.85   C4.089,6.827,4.073,7.004,4.073,7.004C4.03,7.15,4.169,7.216,4.169,7.216c0.177,0.198,1.906,0.321,1.906,0.321   c0.041,0.086-0.002,0.098-0.019,0.119C6.03,7.688,5.859,7.685,5.859,7.685c-0.11,0.028-0.938-0.081-0.938-0.081   c-0.666-0.088-0.863-0.24-0.863-0.24C3.822,7.207,3.903,6.995,3.903,6.995C3.8,6.9,2.981,6.168,2.981,6.168   c-0.167-0.154-0.27,0-0.27,0c-0.146,0.202,0,0.455,0,0.455l1.092,1.15c0.461,0.213,0.938,0.521,0.938,0.521   c0.354,0.103,1.283,0.153,1.283,0.153C6.763,8.411,7.07,8.336,7.07,8.336c0.11-0.014,0.192,0.045,0.192,0.045S7.92,8.9,8.046,8.988   C8.17,9.076,8.258,8.952,8.258,8.952l0.498-0.909C8.794,7.975,8.756,7.868,8.756,7.868z"></path><path d="M3.183,6.171L3.97,6.83c0.146-0.169,0.381-0.141,0.381-0.141S3.663,6.28,3.479,6.179C3.296,6.075,3.183,6.171,3.183,6.171z   "></path><path d="M4.675,6.675l0.314,0.006L4.112,6.24c-0.161-0.062-0.26-0.005-0.26-0.005L4.55,6.672L4.675,6.675z"></path><path d="M3.571,3.307c0.012-0.002,0.258-0.034,0.279-0.038c0.225-0.063,1.027-0.104,1.027-0.104C4.995,3.137,5.655,3.15,5.655,3.15   c0.256,0.022,0.271-0.154,0.271-0.154C5.97,2.85,5.831,2.783,5.831,2.783C5.655,2.586,3.926,2.462,3.926,2.462   c-0.04-0.085,0.001-0.097,0.019-0.118c0.026-0.032,0.197-0.028,0.197-0.028C4.25,2.287,5.079,2.396,5.079,2.396   c0.666,0.088,0.863,0.24,0.863,0.24c0.235,0.156,0.154,0.368,0.154,0.368C6.2,3.1,7.019,3.832,7.019,3.832   c0.167,0.154,0.271,0,0.271,0c0.146-0.202,0-0.455,0-0.455L6.197,2.226C5.735,2.014,5.26,1.705,5.26,1.705   C4.905,1.603,3.978,1.552,3.978,1.552C3.237,1.589,2.93,1.664,2.93,1.664c-0.109,0.014-0.19-0.045-0.19-0.045S2.08,1.1,1.956,1.012   C1.831,0.924,1.742,1.048,1.742,1.048L1.244,1.957c-0.037,0.068,0,0.175,0,0.175l0.952,0.543c0.066,0.013,0.243,0.169,0.243,0.169   C2.949,3.298,3.161,3.385,3.571,3.307z"></path><path d="M6.817,3.829L6.03,3.17C5.884,3.339,5.649,3.311,5.649,3.311S6.338,3.72,6.522,3.821C6.704,3.925,6.817,3.829,6.817,3.829z   "></path><path d="M5.451,3.328L5.325,3.325L5.011,3.319l0.877,0.44c0.16,0.062,0.26,0.005,0.26,0.005L5.451,3.328z"></path><path d="M5.632,5.392c0-0.31-0.283-0.562-0.631-0.562c-0.35,0-0.633,0.252-0.633,0.562C4.368,5.703,5.632,5.703,5.632,5.392z"></path><ellipse transform="matrix(0.5135 0.8581 -0.8581 0.5135 6.9486 -2.5964)" cx="5.764" cy="4.83" rx="0.225" ry="0.262"></ellipse><ellipse transform="matrix(0.5275 -0.8496 0.8496 0.5275 -2.096 5.8771)" cx="4.235" cy="4.823" rx="0.226" ry="0.262"></ellipse><ellipse transform="matrix(0.5057 0.8627 -0.8627 0.5057 6.1932 -1.8308)" cx="4.694" cy="4.489" rx="0.263" ry="0.226"></ellipse><ellipse transform="matrix(0.9441 0.3298 -0.3298 0.9441 1.776 -1.4924)" cx="5.287" cy="4.489" rx="0.227" ry="0.261"></ellipse></g></svg>