<svg height='100px' width='100px'  fill="#000000" xmlns="http://www.w3.org/2000/svg" xmlns:xlink="http://www.w3.org/1999/xlink" version="1.1" x="0px" y="0px" viewBox="0 0 100 100" enable-background="new 0 0 100 100" xml:space="preserve"><g display="none"><path display="inline" opacity="0.3" fill-rule="evenodd" clip-rule="evenodd" d="M26.308,8.879l6.035-2.507l42.961,21.841   l0.378,21.1l-0.819,0.309l-0.975,0.613l-0.922-0.563h-1.33l-0.975,0.77v1.33l0.563,0.716l-0.613,1.23l-1.741,2.305l-0.563-0.05   l-0.922,0.922l0.05,0.767l0.616,0.613L67.487,59.4l-1.074,0.667l-0.206,0.716l0.972,0.564l0.103,1.074l-0.563,0.872l-1.688,1.79   v1.181l0.716,0.717l1.28-0.922l0.613,0.152v0.77l-0.613,0.407l0.716,0.515l-0.407,0.667l0.511,0.918l0.05,1.387l0.205,1.021   l1.997,0.515l0.514,0.818l-0.461,0.767v0.72l-0.309,0.716l-1.383,0.614l-0.666-0.412h-1.28L65.541,76.3l-1.333,0.77l-0.202,0.716   l0.049,0.717l-0.613,0.258l-0.975,1.536l-0.561,0.05l-0.411-0.256l-0.767,0.872l0.051,0.819l-0.77,0.511l-0.206,0.922l0.156,0.77   l-0.256,0.766l-0.872,0.461l-1.024,0.77l-1.996,0.255l-1.485,0.206l-1.383-0.206l-0.869-0.357l-1.23,0.152l-0.819-0.205   l-0.716,0.464l-0.104,0.868l0.869,1.128h0.617L50.894,89l-1.535,1.025l-0.717,0.818h-1.383l-3.173,0.717l-1.334,0.922L41.267,93.1   l-1.383,1.021l-0.972,0.155l-0.461-0.461l-0.358-1.23l-0.563-0.511l-0.613,0.613v1.025l-0.667,1.227l-1.433,0.053l-0.872,0.206   H32.92l-0.202-1.077l-0.581-0.634l-0.036-0.945l-0.925-1.413l-0.793-1.362l-0.822-0.693l-1.873-2.079l-2-1.697l-0.898-0.336   l-0.156-0.59l-0.537-0.385l-0.205-0.59v-0.902l0.308-0.511l0.054-0.952l0.818-0.053l0.898-0.023l0.538,0.206l0.948-0.155   l0.796,0.129l0.692-0.104l1.154,0.13l0.591,0.331l0.72,0.13l0.59-0.411l-0.438-0.18l-1.41-1.18l-0.334-1.158l-0.819-0.384   l-0.952-1.363l-0.05-1.028l0.641-0.67l0.411-1.386l-0.591-0.693l0.026-0.464l0.256-0.537l0.026-0.72l-0.616-1.466l-0.229-0.926   l-0.411-0.514l-0.281-1.542L26.02,65.87l-2.637-1.333l-0.057-0.057l-0.77-1.283L21.171,61.4l-0.706-0.269l-0.398-6.722l0.129-0.667   h0.617l0.564-0.206l0.255-0.59l8.867-9.05l-0.206-7.793l1.437-10.044l0.819-0.822l0.103-1.947l-3.588-4.308l0.308-0.613   l0.104-1.437l-2.563-7.381L26.308,8.879L26.308,8.879z M15.115,63.791l-0.385,0.77l-0.795,0.179l-0.465-0.345L15.115,63.791z"></path></g><g display="none"><path display="inline" d="M38.985,50.59l0.901,0.229c-0.188,0.736-0.53,1.3-1.018,1.691c-0.494,0.388-1.091,0.58-1.801,0.58   c-0.736,0-1.33-0.149-1.791-0.444c-0.461-0.302-0.809-0.732-1.048-1.3c-0.238-0.567-0.361-1.174-0.361-1.824   c0-0.709,0.136-1.326,0.408-1.854c0.269-0.527,0.653-0.929,1.157-1.203c0.497-0.275,1.048-0.412,1.648-0.412   c0.68,0,1.253,0.173,1.718,0.521c0.464,0.348,0.786,0.832,0.972,1.462l-0.889,0.209c-0.156-0.497-0.385-0.855-0.688-1.081   c-0.298-0.229-0.676-0.342-1.134-0.342c-0.523,0-0.958,0.126-1.31,0.378c-0.352,0.253-0.601,0.587-0.739,1.009   c-0.143,0.424-0.216,0.858-0.216,1.307c0,0.58,0.086,1.084,0.252,1.519c0.169,0.431,0.432,0.753,0.789,0.968   c0.355,0.213,0.74,0.318,1.157,0.318c0.505,0,0.929-0.146,1.28-0.434C38.624,51.595,38.862,51.16,38.985,50.59L38.985,50.59z    M41.021,52.978v-6.809h0.902v2.796h3.538v-2.796h0.901v6.809h-0.901v-3.21h-3.538v3.21H41.021L41.021,52.978z M47.116,52.978   l2.613-6.809h0.968l2.789,6.809h-1.027l-0.793-2.063h-2.849l-0.746,2.063H47.116L47.116,52.978z M49.08,50.182h2.308l-0.713-1.887   c-0.216-0.57-0.375-1.041-0.481-1.413c-0.086,0.441-0.209,0.872-0.367,1.304L49.08,50.182L49.08,50.182z M54.206,52.978v-6.809   h2.341c0.531,0,0.936,0.033,1.215,0.1c0.391,0.087,0.723,0.252,0.998,0.484c0.357,0.305,0.626,0.692,0.806,1.164   c0.179,0.474,0.269,1.011,0.269,1.618c0,0.518-0.06,0.975-0.183,1.373c-0.123,0.401-0.275,0.732-0.464,0.994   c-0.189,0.259-0.395,0.465-0.621,0.614c-0.222,0.152-0.494,0.265-0.812,0.345c-0.318,0.076-0.684,0.116-1.095,0.116H54.206   L54.206,52.978z M55.105,52.172h1.452c0.45,0,0.802-0.04,1.058-0.127c0.256-0.082,0.457-0.198,0.61-0.352   c0.216-0.212,0.381-0.5,0.501-0.861c0.115-0.358,0.179-0.796,0.179-1.311c0-0.713-0.119-1.26-0.352-1.641   c-0.235-0.382-0.518-0.637-0.853-0.767c-0.242-0.097-0.63-0.143-1.164-0.143h-1.432V52.172z"></path></g><g><path fill="none" stroke="#000000" stroke-linecap="round" stroke-linejoin="round" stroke-miterlimit="10" d="M26,85.25"></path><path fill="none" stroke="#000000" stroke-linecap="round" stroke-linejoin="round" stroke-miterlimit="10" d="M25.25,84.963   c2.056,1.152,6.106,5.394,7.062,7.292c0.821,1.63,0.354,3.793,2.938,3.244c1.866-0.396,1.573-2.156,2.706-3.248   c-0.146,0.729,0.171,1.603,0.276,2.221c2.022-0.741,3.888-2.791,6.273-3.416c2.038-0.534,4.955-0.196,5.956-2.493   c-2.388-1.316-0.821-4.223,1.495-2.77c1.262,2.602,6.041-0.025,7.748-1.086c-0.232-0.499,0.031-0.893-0.429-1.391   c0.576-0.274,0.802-1.005,1.198-1.273c-0.708-1.767,1.84-1.024,1.575-3.018c0.18,0.121,0.473,0.309,0.639,0.437   c0.819-0.486,1.288-1.196,1.355-2.174c1.224-0.162,2.175-1.093,3.405-1.499c0.201,0.245,0.209,0.404,0.35,0.673   c0.896-0.112,0.925,0.036,1.7,0.258c1.593-0.899,1.417-4.638-0.948-3.758c-0.455-0.938,0.146-1.486-0.034-2.474   c-0.141-0.773-0.972-1.062-0.811-2.196c-0.591-0.992-1.3-1.188-1.956-1.749c-0.229-0.196-2.126,1.204-1.323-0.792   c0.728-1.81,3.011-0.956,2.535-3.963c-0.296-0.012-0.627-0.073-0.923-0.076c0.041-1.298,1.323-3.525,2.497-3.956   c-1.824-1.397,2.931-3.847,3.176-5.963c-2.797-1.264,3.369-2.642,3.788-3.043l-0.196-20.537L32.343,6.372L25.5,10   c0.194-0.189,0.612-0.476,0.829-0.604c0.582,2.152,5.078,8.34,2.196,9.923c0.934,1.339,2.553,2.451,3.419,3.75   c1.418,2.125,0.297,1.915-0.394,3.987c-0.549,1.648-0.127,3.696-0.551,5.395c-0.418,1.676-1.182,2.909-1.013,4.8   c0.15,1.682,1.14,3.555,0.762,5.306c-0.323,1.495-1.539,2.374-2.692,3.5c-2.082,2.031-5.239,4.638-6.557,6.694l-0.25,0.5   c-0.133,1.194-0.813,1.174-1.713,0.525c-0.1,1.856,1.285,11.859,4.413,9.562c0.731,0.783,1.363,1.559,1.338,2.624   c1.835-0.357,3.875,4.057,3.973,5.788c0.075,1.312-2.721,5.672,0.201,5.288c0.007,1.784,1.742,3.215,2.824,4.238   c-1.388,0.515-3.849-1.354-5.091,0.454c-0.148-0.289-0.733-0.597-0.89-1.169c-0.173,0.349-0.407,0.493-0.557,0.725   c-0.663-0.585-0.891-0.363-1.711-0.498c-0.572,2.312,0.26,4.141,0.25,4.004L25.25,84.963z"></path></g></svg>