<svg height='100px' width='100px'  fill="#000000" xmlns="http://www.w3.org/2000/svg" xmlns:xlink="http://www.w3.org/1999/xlink" version="1.1" x="0px" y="0px" viewBox="0 0 128 128" style="enable-background:new 0 0 128 128;" xml:space="preserve"><g><path d="M79.9560547,45.1846924c0.8664551,0.3904419,1.7731934,0.5752563,2.6656494,0.5752563   c0.274292,0,0.5462646-0.0241089,0.8162842-0.0584106c2.1685791-0.2756958,4.1478271-1.6324463,5.1116943-3.7714844   c0.6478271-1.4376831,0.7288818-2.9862061,0.3393555-4.3960571c-0.4969482-1.7985229-1.7598877-3.3710938-3.5939941-4.1975708   c-0.8664551-0.3904419-1.7733154-0.5752563-2.6657715-0.5752563c-2.477417,0-4.8439941,1.4245605-5.9278564,3.829895   C75.2270508,39.862854,76.6842041,43.7103882,79.9560547,45.1846924z"></path><path d="M35,28c1.7803955,0,3.4354248-0.5237427,4.8323975-1.4157715C39.293457,28.2938843,39,30.1123047,39,32   c0,9.9411011,8.0588379,18,18,18s18-8.0588989,18-18c0-9.9411621-8.0588379-18-18-18   c-5.1324463,0-9.7514648,2.1588745-13.0305176,5.6049805C43.9829102,19.4041138,44,19.2042847,44,19c0-4.9705811-4.0294189-9-9-9   s-9,4.0294189-9,9C26,23.97052,30.0294189,28,35,28z M57,48c-4.8674316,0-9.2265625-2.1918335-12.1635742-5.6322632   c5.706543-1.0953979,8.0733643-7.3277588,8.8515625-10.1260986c0.2180176-0.7839966,0.8782959-1.3252563,1.6763916-1.4836426   c4.0765381-0.8092651,5.5889893-5.2114258,6.1019287-7.4528198c1.788208,1.6915894,5.1092529,3.7109375,10.7736816,3.8345337   C72.7304688,28.6737061,73,30.3054199,73,32C73,40.8223877,65.8223877,48,57,48z"></path><path d="M113.1660156,71.7207031c-0.3994141-1.421875-1.328125-2.6025391-2.6162109-3.3261719l-0.6630859-0.3720703   c-0.8212891-0.4609375-1.4140625-1.2148438-1.6689453-2.1230469c-0.2548828-0.9072266-0.1416016-1.859375,0.3203125-2.6816406   c1.4921875-2.6582031,0.5449219-6.0341797-2.1132812-7.5273438l-1.5285645-0.8582764   c0.251709-0.9147339,0.0134277-1.9222412-0.6860352-2.6273804l-0.333252-0.3358765   c0.3527832-0.3243408,0.6640625-0.7027588,0.9042969-1.1452637c0.8271484-1.5185547,0.6054688-3.3935547-0.5507812-4.6660156   c-1.4726562-1.6181641-4.0107422-3.6132812-6.6240234-5.2070312c-0.9511719-0.5810547-2.0683594-0.7451172-3.1464844-0.4570312   c-0.4901123,0.1292725-0.9343262,0.3533936-1.3322754,0.6392212l-2.0134277-2.0296021   c0.0397949,1.2747192-0.2017822,2.5516968-0.7412109,3.7485962c-1.0461426,2.3213501-3.0678711,4.0082397-5.4489746,4.6810303   l3.8511963,2.1720581l-1.53125,7.0725098l-1.8773193,13.913269l-7.1116943-14.2797241   c-1.69104-3.3955688-5.1578369-5.5419312-8.9512939-5.5419312h-1.8347168c-0.8382568,0-1.5961914,0.4984741-1.9282227,1.2681274   l-3.8120117,6.1193237c-1.3710938,2.2010498-4.4418945,2.5357056-6.2548828,0.6817017l-7.1149902-7.2757568   c-0.3984375-0.5012817-1.0036621-0.793396-1.644043-0.793396h-0.6140137c-6.1555176,0-11.7652588,3.531311-14.4268799,9.0817261   L19.9873047,84.2211304c-0.6096191,1.2713013-0.9260254,2.663208-0.9260254,4.0731201   c0,5.2024536,4.2174072,9.4199219,9.4199219,9.4199219h2.2978516l-0.0061035,0.0368042H55.274292v2H30.4448242   l-2.260498,13.7764282c-0.1998291,1.2175903,0.7397461,2.3238525,1.9736328,2.3238525h44.3222656   c1.1845703,0,2.109375-1.0237427,1.9897461-2.2021484L74.932251,98.513855   C75.1043701,98.3502197,75.2702637,98.1824951,75.420166,98h13.5029297c5.8893356,0,7.9467773-5.3359375,8.3352051-9.3139038   l2.885498-29.5473633l0.2246094-2.9953613l0.5863037,0.3306885c0.8702393,0.4907837,1.9007568,0.4425049,2.711792-0.0387573   l1.7797852,0.9992676c0.8212891,0.4609375,1.4140625,1.2148438,1.6689453,2.1230469   c0.2539062,0.9072266,0.140625,1.859375-0.3212891,2.6816406c-1.4921875,2.6572266-0.5439453,6.0341797,2.1142578,7.5273438   l0.6630859,0.3720703c1.6953125,0.9521484,2.3007812,3.1074219,1.3476562,4.8046875L108.3125,79.5859375   c-0.2705078,0.4814453-0.0986328,1.0908203,0.3828125,1.3613281c0.1542969,0.0869141,0.3222656,0.1279297,0.4882812,0.1279297   c0.3496094,0,0.6894531-0.1835938,0.8730469-0.5107422l2.6064453-4.6425781   C113.3857422,74.6347656,113.5644531,73.1425781,113.1660156,71.7207031z M72.4648438,98l-1.1289062,0.9326172   c-0.6712646,0.5545654-1.5205078,0.8599854-2.3913574,0.8599854H57.274292v-0.0437622v-1.9957275v-0.0389404v-2.8232422v-6.5690308   l2.4971924,0.2272339c0.0606689,0.0054932,0.1210938,0.0082397,0.1813965,0.0082397   c0.5491943,0,1.0775146-0.2262573,1.4571533-0.630249l0.2227783-0.2369385   c0.6049805-0.6437378,1.3497314-1.1330566,2.1651611-1.4380493l0.0004883,1.4573364   C63.798584,88.0160522,63.8748779,88.3046875,64,88.5665894c0.2053223,0.4295044,0.5571289,0.7740479,1,0.9678345   c0.1535645,0.0671997,0.3137207,0.1225586,0.4858398,0.1497803L66,89.765564l5.5682373,0.8812866   c1.0427246,0.1650391,1.9411621,0.7385864,2.5297852,1.6148682c0.5887451,0.8764038,0.7799072,1.9249878,0.5384521,2.9526978   c-0.0074463,0.0317383-0.0217285,0.0612793-0.0300293,0.0927734C74.5432129,95.5475464,74.4519043,95.7775879,74.3427734,96   c-0.1816406,0.3702393-0.4221191,0.7073364-0.713623,1c-0.0843506,0.0847168-0.1641846,0.1738892-0.2565918,0.2501831   l-0.5616455,0.4639893L72.4648438,98z M71.8808594,88.6714478L66,87.7407227v-4.6638794C66,83.0344849,66.0345459,83,66.0769043,83   h5.9301758h1.9799805h14.9360352C88.9654541,83,89,83.0344849,89,83.0768433v12.8463135C89,95.9655151,88.9654541,96,88.9230957,96   H76.4775391c0.032959-0.1102905,0.0793457-0.2153931,0.105835-0.3280029   C77.3487549,92.4152222,75.1853027,89.194458,71.8808594,88.6714478z M54,77c1.1044922,0,2,0.8953857,2,2   c0,1.1045532-0.8955078,2-2,2s-2-0.8954468-2-2C52,77.8953857,52.8955078,77,54,77z M52,72c0-1.1046143,0.8955078-2,2-2   s2,0.8953857,2,2c0,1.1045532-0.8955078,2-2,2S52,73.1045532,52,72z M73.8027344,75.6962891   c1.8037109-3.5234375,1.6240234-8.0742188,1.6220703-8.1201172c-0.0244141-0.5507812,0.4023438-1.0185547,0.9541016-1.0439453   c0.5039062-0.0058594,1.0185547,0.4013672,1.0439453,0.953125c0.0097656,0.2070312,0.2099609,5.1171875-1.8388672,9.1220703   C74.8508301,78.0411987,74.3857422,79.5130615,74.1608887,81h-2.0339355   C72.3623047,79.1983032,72.9211426,77.4212646,73.8027344,75.6962891z M62,65h4v-5c0-0.5527344,0.4472656-1,1-1h3v-5   c0-0.5527344,0.4472656-1,1-1s1,0.4472656,1,1v6c0,0.5527344-0.4472656,1-1,1h-3v5c0,0.5527344-0.4472656,1-1,1h-5   c-0.5527344,0-1-0.4472656-1-1S61.4472656,65,62,65z M45,54c0-0.5527344,0.4472656-1,1-1s1,0.4472656,1,1v5h4   c0.5527344,0,1,0.4472656,1,1v5h4c0.5527344,0,1,0.4472656,1,1s-0.4472656,1-1,1h-5c-0.5527344,0-1-0.4472656-1-1v-5h-4   c-0.5527344,0-1-0.4472656-1-1V54z M35.3085938,82.2949219l4.8183594-10.2402344   c0.2363281-0.5,0.8300781-0.7128906,1.3310547-0.4794922c0.5,0.2353516,0.7138672,0.8310547,0.4794922,1.3310547   l-4.8183594,10.2392578c-0.1386719,0.2939453-0.1269531,0.625,0.0302734,0.9101562   c0.15625,0.2832031,0.4316406,0.46875,0.7529297,0.5087891l17.3719482,2.1234741v2.0139771l-17.6141357-2.1530762   c-0.9658203-0.1171875-1.7900391-0.6738281-2.2617188-1.5263672   C34.9277344,84.1699219,34.8945312,83.1757812,35.3085938,82.2949219z M89.6121826,55.1912842l0.8690186-4.013916   l7.9172363,4.491394l-0.0828857,1.1047974L89.6121826,55.1912842z M94.5649414,42.4816284   c0.128418-0.0646973,0.263916-0.1176147,0.4067383-0.1554565c0.5458984-0.1416016,1.1123047-0.0615234,1.5927734,0.2314453   c2.4628906,1.5029297,4.8339844,3.359375,6.1865234,4.8457031c0.5839844,0.6425781,0.6943359,1.5927734,0.2734375,2.3652344   c-0.1452637,0.2672729-0.3381348,0.4911499-0.5561523,0.6802368c-0.7553711,0.6552734-1.8642578,0.8242798-2.793457,0.3324585   l-4.4736328-2.3671875c-0.8896484-0.4707031-1.5371094-1.2607422-1.8242188-2.2246094s-0.1777344-1.9794922,0.3085938-2.8603516   C93.8912354,42.958252,94.1960449,42.6674194,94.5649414,42.4816284z"></path></g></svg>