<svg height='100px' width='100px'  fill="#000000" xmlns="http://www.w3.org/2000/svg" data-name="Layer 1" viewBox="0 0 100 100" x="0px" y="0px"><title>Taiwan Province</title><path d="M53.16,95.5h-.11l-4.21-.94a.5.5,0,0,1-.39-.49V90l-2.45-4-4.16-3.08L38.1,84a.5.5,0,0,1-.47-.1.49.49,0,0,1-.16-.46l.63-3.82-2.66-1a.5.5,0,0,1-.32-.49l.22-6.63-2.64-.62a.49.49,0,0,1-.38-.46l-.47-8.69.69-8.43-1.6-4.84a.5.5,0,0,1,.09-.48l4.08-4.77-.45-5.44a.49.49,0,0,1,.18-.43l3.1-2.44.22-4a.47.47,0,0,1,0-.16l2.1-5.17,2.55-4,.69-5.76a.49.49,0,0,1,.06-.17l2.1-4a.47.47,0,0,1,.42-.26L51,11.09l3.6-6.34a.5.5,0,0,1,.63-.21l4.3,1.82,3.36-.68a.48.48,0,0,1,.41.11.49.49,0,0,1,.19.38V9.59l2.46-.38a.47.47,0,0,1,.42.13.5.5,0,0,1,.15.42l-.9,7.5,3.32,3.12a.5.5,0,0,1,.16.36v7.05a.52.52,0,0,1-.25.44l-2.6,1.52-.65,3.87L67,37.5a.52.52,0,0,1,0,.25l-1.41,8.46a1,1,0,0,1,0,.16l-2,3.55,1.55,3.77a.49.49,0,0,1-.21.61l-2,1.23.86,4.12a.76.76,0,0,1,0,.15L63,66.62a.48.48,0,0,1-.23.37l-3.24,2L60,73.81a.51.51,0,0,1-.43.54l-2.79.4.41,3.75a.49.49,0,0,1-.26.49L53.31,80.9l1,2.64a.23.23,0,0,1,0,.11l.7,4.93a.54.54,0,0,1,0,.18l-1.41,6.35a.44.44,0,0,1-.22.31A.5.5,0,0,1,53.16,95.5Zm-3.71-1.84,3.33.74,1.27-5.76-.68-4.79-1.15-3a.5.5,0,0,1,.23-.62l3.68-2-.43-3.89a.49.49,0,0,1,.42-.55l2.81-.41-.43-4.69a.54.54,0,0,1,.24-.48l3.3-2,.67-6.49-.92-4.39a.48.48,0,0,1,.23-.53l2-1.19-1.48-3.6a.5.5,0,0,1,0-.43L64.6,46,66,37.71l-1.36-3.88a.4.4,0,0,1,0-.24l.7-4.23a.47.47,0,0,1,.24-.35l2.56-1.5V21l-3.35-3.14a.5.5,0,0,1-.16-.43l.86-7.1-2.39.37a.46.46,0,0,1-.4-.11.5.5,0,0,1-.17-.38V6.79l-2.91.58a.52.52,0,0,1-.3,0l-4-1.71-3.52,6.2a.49.49,0,0,1-.41.25l-4.86.22L44.52,16l-.69,5.78a.48.48,0,0,1-.07.21l-2.57,4-2,5-.23,4.15a.52.52,0,0,1-.19.36l-3.07,2.42.45,5.37a.5.5,0,0,1-.12.37l-4,4.72L33.52,53a.75.75,0,0,1,0,.2l-.7,8.46.44,8.25,2.68.62a.51.51,0,0,1,.38.51l-.22,6.69,2.71,1.05a.5.5,0,0,1,.31.55l-.57,3.44,3.21-1a.49.49,0,0,1,.44.08l4.44,3.29a.43.43,0,0,1,.13.14l2.58,4.23a.59.59,0,0,1,.07.26Z"></path></svg>