<svg height='100px' width='100px'  fill="#000000" xmlns="http://www.w3.org/2000/svg" xmlns:xlink="http://www.w3.org/1999/xlink" version="1.1" x="0px" y="0px" viewBox="0 0 100 100" style="enable-background:new 0 0 100 100;" xml:space="preserve"><path d="M80.8,51.3c-0.2-0.2-0.3-0.4-0.1-0.7c0.1,0,0.2-0.1,0.2-0.2v-0.1c0.2,0,0.4,0,0.6,0.1v0.1h-0.1  C81.3,50.8,81.1,51.4,80.8,51.3z"></path><path d="M78.6,53.1h0.1l0.1,0.2c0.2-0.1,0.4-0.1,0.7-0.1c0,0.2,0,0.4,0,0.7c0.4,0.2,0.7,0.2,1.1,0.2c0.3,0.5-0.8,0.9-1.1,0.7  c-0.2-0.1-0.2-0.6-0.3-0.7c-0.1-0.2-0.4-0.5-0.6-0.5C78.5,53.3,78.5,53.2,78.6,53.1z"></path><path d="M74.3,53.6c-0.3-0.4,0.3-0.3,0.6-0.3v-0.1c0.5,0,0.5-0.7,1-0.6c0.1,0.5-0.2,0.9-0.6,1.1c-0.2,0.1-0.3,0.2-0.5,0.1  C74.6,53.8,74.7,53.5,74.3,53.6z"></path><path d="M65,58.4c0.1-0.2,0.3-0.3,0.1-0.6c0.2-0.3,0.9,0.1,1.1,0.3c0.2,0,0.4-0.2,0.6-0.1c0.1,0.5-0.5,0.4-0.9,0.4  c-0.2,0-0.4,0-0.6,0.1C65.2,58.4,65,58.8,65,58.4z"></path><path d="M65.1,56.1L65.1,56.1c0.2-0.1,0.5-0.1,0.7,0v0c0.1,0,0.2,0.1,0.2,0.3C65.7,56.6,65.1,56.3,65.1,56.1z"></path><path d="M66.2,68.9c0-0.4,0-0.8,0.6-0.7c0,0.4-0.2,0.7-0.4,1C66.3,69.1,66.2,69,66.2,68.9z"></path><path d="M60.9,73.5c0.5,0.1,1-0.6,1.4-0.7c0.5-0.1,1-0.1,1.5-0.1c0,0.1,0,0.2,0,0.3h-0.1c0,0.4-0.5,0.4-0.7,0.2  c-0.1,0.1-0.1,0.3-0.2,0.5c0.5,0.3,0.8,0.8-0.1,0.8c-0.2-0.4-0.8-0.2-0.7-0.8c-0.5-0.1-0.8,0.3-1.4,0.2  C60.7,73.7,60.8,73.6,60.9,73.5z"></path><path d="M56.5,74.7c0.2-0.4,0.3-1,0.3-1.5c0.4,0,0.2,0.2,0.4,0.4c0.1,0.1,0.3,0.1,0.4,0.3c0.2,0.2,0.5,0.5,0.5,0.8  c-0.1,0-0.3-0.1-0.4-0.2c-0.1,0.2-0.1,0.5,0.2,0.4c-0.6,1.1,1.4,0.8,1.2,1.9c-0.3,0-0.5-0.1-0.8-0.2c-0.2,0-0.5,0.1-0.7,0  c-0.2-0.1-0.2-0.3-0.3-0.6c-0.1-0.3-0.3-1.5-0.8-1C56.5,74.8,56.5,74.8,56.5,74.7C56.7,74.3,56.5,74.7,56.5,74.7z"></path><path d="M53.5,76.5h0.1c0.2-0.2,0-0.5,0-0.7c0.4,0,0.9,0,1.1-0.4c0.3,0,0.6,0,0.8,0c0.1,0.1,0.1,0.3,0.1,0.4c-0.4,0.2-0.6,0.9-0.1,1  c0,0.2,0,0.5-0.1,0.7c-0.1,0-0.2,0-0.2,0.1c-0.3-0.2-0.6-0.8-0.7-1.1l-0.2,0.1l-0.2-0.1L54,76.7C53.8,76.8,53.6,76.7,53.5,76.5z"></path><path d="M48.8,77.5c-0.1-0.6,0.8-0.9,0.6-0.2C49.2,77.3,49,77.6,48.8,77.5z"></path><path d="M41.6,79.5c-0.1-0.8,1.8,0,2-0.7c-0.4,0,0.4-0.3,0.6-0.3c0.1,0,0.5-0.1,0.6-0.1c0.1,0,0.3,0.3,0.5,0.3  c0.3,0.1,1.2,0.1,1.2-0.2c0-0.4-0.8-0.5-0.5-1c0.2,0.2,0.4,0.2,0.7,0.3c0.2,0.1,0.3,0.4,0.4,0.6c0.4-0.6,0.3-0.3,0.6,0  c0.3,0.3,0.3,0.1,0.5,0.1c0.2,0,0-0.2,0.2-0.2c0.2,0,0.3,0.2,0.3,0.3c0,0.2-0.2,0.4-0.3,0.5c-0.1,0.3,0,0.7,0,1.1  c0.1,0.8,0.4,1.7,0.4,2.5c-0.5,0-1-0.3-1.1-0.8c0-0.2,0.1-0.5,0.1-0.7c-0.1,0-0.1-0.1-0.2-0.2c0-0.1,0-0.3,0.1-0.4  c-0.4,0.1-0.4-0.4-0.5-0.6c-0.2-0.5-0.2-0.7-0.8-0.7c-0.5,0-0.9-0.1-1.4,0.1c-0.2,0.1-1,0.7-1.1,0.6c-0.4-0.2-1.2-0.9-1.1,0  c-0.2,0-0.4-0.4-0.5-0.4C42.2,79.6,41.9,79.5,41.6,79.5z"></path><path d="M44.8,84.1c0-0.1-2-0.1-2.1-0.1c0,0.6-0.4,0.4-0.8,0.4c-0.1,0-0.1-0.2-0.2-0.2c-0.1,0-0.1,0.2-0.2,0.2  c-0.4,0-0.5,0.1-0.8-0.1c-0.2-0.1-0.6-0.5-0.7-0.1c0.4,0.1,0.2,0.3,0.4,0.5c0.2,0.2,0.5,0,0.8,0.3c-0.1,0.2-0.5,0.8-0.8,0.8  c-0.3,0-0.4-0.6-0.6-0.4c-0.2,0.1,0,0.3-0.1,0.4c0,0.1,0,0.2,0,0.3c0,0.2-0.1,0.3-0.3,0.2c0,0.2,0.5,0.6,0.7,0.6  c0.1-0.2,0.4-0.2,0.5-0.3c0,0,0.4-0.3,0.4-0.3c0.3-0.1,0.8,0.2,1-0.1c0.3-0.4-0.1-0.3-0.1-0.4c0-0.2,0-0.1,0.2-0.3  c0.2-0.3,0.7-0.3,0.8-0.5l0.1-0.1c0.1,0,0.2-0.1,0.2-0.2c0.2,0,0.8,0.2,0.5,0.4l0,0.1c0.2,0,0.3,0,0.3-0.1c0.4-0.3,0.6,0.4,0.9-0.1  C44.7,85.1,44.7,84,44.8,84.1z"></path><path d="M4.6,66.6c-0.1-0.3,0.6-0.8,0.9-0.7c0,0.1,0,0.2,0,0.3l-0.1,0l0,0.2C5.1,66.6,4.8,66.9,4.6,66.6z"></path><path d="M8.1,64.9c-0.1-0.4,0.1-1.5-0.4-1.6V63c0.1,0,0.3-0.1,0.4-0.2v-0.1c0.1,0.1,0.2,0.2,0.2,0.3L8.5,63v0.1h0.2  c0.1,0.2,0.2,0.4,0.1,0.6l0.1,0V64l0.3,0.1l0,0.2l0.2,0.1c0,0.3-0.3,0.3-0.5,0.1C8.7,64.7,8.5,64.9,8.1,64.9z"></path><path d="M24,62.2h0.1c0-0.1,0.1-0.2,0.1-0.3c0.5,0,1,0.8,1.6,0.6c0,0.1,0,0.2,0,0.3c-0.3,0-0.9-0.1-0.9,0.3C24.8,63,24.6,63,24.5,63  L24.4,63h-0.1V63h-0.1l0-0.1c-0.6,0-0.3-0.3-0.4-0.7C23.9,62.2,23.9,62.1,24,62.2z"></path><path d="M19.8,74c0-0.3,0.7-0.3,1-0.5c0.2-0.1,0.4-0.3,0.5-0.4c0.2-0.1,0.5,0.1,0.7,0.1c0.6,0,1.9-0.7,2.2,0.1  c-0.3,0.1-0.8-0.3-0.9,0.2c-0.3-0.1-1.5,0.1-1,0.5h0.1c-0.1,0.5-0.8,0.1-1.2,0.1C20.8,74.2,19.9,74.5,19.8,74z"></path><path d="M24.8,74.7c0.1-0.2,0.4-0.4,0.7-0.4v0.1l0.1,0l0-0.1l0.1,0.1c0.1-0.1,0.2-0.2,0.3-0.1c0,0.3,0.1,0.5,0.1,0.7h-0.1v-0.1  c-0.2-0.1-0.4,0-0.7,0l0,0.1c-0.1,0-0.1,0-0.2,0C24.9,74.9,24.8,74.8,24.8,74.7z"></path><path d="M49.6,67.8c0.1-0.3-0.5-0.8,0-0.8c0.1,0.2,0.5,0.5,0.8,0.6C50.4,68,49.7,68.2,49.6,67.8z"></path><path d="M47.8,61.2c0-0.2,0-0.4,0-0.6c-0.1,0-0.2,0-0.3,0c-0.2-0.3-0.1-0.7-0.3-1c-0.2-0.3-0.5-0.5-0.9-0.3  c-0.2-0.1-0.2-0.2-0.1-0.4c0.1-0.3,0.3-0.2,0.4-0.3c0.2-0.4,0-0.7-0.2-1.1c-0.2,0-0.3,0-0.5,0c0-0.3,0.2-0.4,0.3-0.6  c0.2,0,0.4,0,0.6-0.1c0.2,0.2,0.2,0.7,0.4,1c0.2,0.4,0.3,0.5,0.7,0.8c0.1-0.1,0.2-0.1,0.1-0.3l0.1-0.1v-0.1c0.2,0,0.4,0.1,0.6,0.2  c0,0.5,0.5,0.2,0.6,0.3c0.4,0.2,0,0.7,0.4,0.9c0,0.1-0.1,0.2-0.2,0.3C48.7,59.6,48.8,61.3,47.8,61.2z"></path><path d="M52.9,62.1c0-0.2-0.3-1.3-0.2-1.4c0.2-0.2,0.4,0.1,0.5-0.1l0.2-0.1c0-0.2,0.2-0.5,0.1-0.7c-0.1-0.1-0.4-0.2-0.4-0.3  c-0.1-0.3,0.6-0.6,0.3-0.7l-0.1-0.1c-0.2,0-0.3,0-0.3-0.2h-0.1c-0.1-0.6,0.6-0.9,0.4-1.5c-0.1-0.2-0.4-0.3-0.4-0.5  c-0.2-0.5,0.1-0.3,0.5-0.4c0,0,0.7-0.3,0.7-0.3c0.4,0.1,0.1,0.2,0.1,0.3c0.1,0.5,0.3,0.8,0.9,0.9c0,0.3-0.3,0.8-0.4,1.1  c-0.1,0.4-0.4,0.7-0.4,1.2c0,0.5,0.5,0.4,0.5,1c0.1,0.6-0.4,1-0.9,1C53.7,62,53.5,62.5,52.9,62.1C52.9,61.7,53,62.2,52.9,62.1z"></path><path d="M55.3,60.8c-0.1-0.2-0.3-0.7-0.1-0.9c0.3-0.1,0.6,0.3,0.8,0.4c0.5-0.3,0.6-0.5,1.2-0.4c0.1,0,0.2-0.1,0.3-0.1  c0.1,0,0.3,0.2,0.3,0.2c0.2,0,0.4-0.2,0.5-0.4l0.2,0.1c0.2,1-1.6,1-2.2,1v-0.1C55.9,60.5,55.7,60.8,55.3,60.8z"></path><path d="M51.6,62.2c-0.1-0.3,0-0.6,0-0.9c0.2,0,0.5,0.1,0.4,0.4l0.2,0.1c0,0.2,0,0.4,0,0.5C52,62.3,51.8,62.3,51.6,62.2z"></path><path d="M56,64.4c-0.2,0-0.4-0.1-0.5-0.2c-0.1-0.3-0.7-1-1.2-0.9c0,0.2,0,0.3,0,0.5c-0.3,0.1-1.3,0.1-0.8-0.3  c-0.3-0.1-0.5,0.2-0.7,0.2c-0.3,0-0.3,0-0.6-0.2c-0.2,0.2-0.5,0.4-0.8,0.4v-0.1h-0.2c-0.1-0.2-0.1-0.4-0.2-0.6c-0.2,0-0.4,0-0.6,0  c0,0.3,0.3,0.5,0.2,0.8L50.6,64c0,0.2,0.1,0.3,0.1,0.5c0.3,0.2,0.6,0,0.8,0.2c0.2,0.1,0.1,0.3,0.3,0.5c0.5,0.4,0.6-0.2,0.9-0.3  c-0.2,0.1,0.8,0,0.6,0c0.3,0,0.5,0.2,0.8,0.3c0.8,0.3,0.7,0.8,1,1.6c0.2-0.1,0.3-0.3,0.5-0.5c0.2-0.1,0.3-0.2,0.5-0.3  C56.3,65.5,56.1,64.8,56,64.4C55.8,64.3,56.1,64.8,56,64.4z"></path><path d="M50,63.9c0-0.3-0.2-0.4-0.2-0.7c0-0.2,0.1-0.3,0.1-0.5c0-0.5-0.4-0.8-0.8-1c-0.6-0.2-1.3,0.2-1.9,0.2v0.1h-0.1  c0.1,0.7-0.6,1.3-1.3,1.3c-0.2,0-0.5-0.2-0.7-0.1c-0.2,0.1-0.2,0.3-0.2,0.3v0.1c-0.3,0.1-0.5-0.1-0.7-0.1c-0.1,0-0.3,0.1-0.4,0.1  c-0.2-0.1-0.2-0.3-0.4-0.3v-0.1c-0.2-0.1-0.4-0.2-0.6-0.1c0-0.2,0-0.5-0.1-0.7c-0.3,0.1-0.4,0.9-0.6,1.1c-0.2-0.1-0.2-0.2-0.4-0.2  c-0.2,0-0.5,0-0.6,0c-0.5,0-0.7,0.2-1.2,0.2c0-0.2,0-0.4,0-0.5c-0.4,0-0.8,0.3-1.2,0.3c-0.2,0-0.3-0.2-0.4-0.2c-0.3,0-0.5,0-0.8,0  c-0.1-0.1-0.1-0.2-0.2-0.3c-0.7-0.2-0.7-0.1-1,0.3c-0.4,0.6-0.1,0.2-0.7,0.2c-0.3,0.4,0.6,1.2,0.1,1.6c-0.2,0.1-0.6-0.1-0.7-0.2  c-0.1-0.1-0.7-0.5-0.7-0.5c-0.4-0.1-0.3,0.6-0.5,0.8c-0.3,0.4-0.8,0.5-0.6,1.1c0.2,0.6,1.6,0.6,0.8,1.6c-0.4,0.5-1.4,0.3-1.7,0.9  c-0.3,0.5-0.1,1.2-0.5,1.7c-0.3,0.1-0.5,0.7-0.7,0.9c-0.4,0.4-0.7,0.5-1.3,0.7c-0.6,0.1-1.4-0.4-2-0.1c-0.5,0.2-0.2,0.6-0.4,0.9  c-0.3,0.2-0.7,0.1-1,0.3c-0.4,0.1-0.7,0.4-1.1,0.5c0,0.6,2,0.2,2.3,0.3c0.1,0.5-0.6,0.7-0.9,0.8c0,0.1,0.1,0.1,0.1,0.2  c0.7,0,1.3,0.1,1.9-0.3c-0.1-0.4-0.6-0.4,0.2-0.7c0.4-0.2,1.1-0.2,1.5-0.2c0.6,0,0.8,0.1,1.1,0.5c0.2,0.2,0.2,0.3,0.6,0.4  c0.4,0.1,0.9,0.1,1.3,0c0.1-0.3,0-0.5,0-0.8c0.4-0.1,0.8,0,1.2,0v-0.2c0.1,0,0.3-0.1,0.4-0.1v-0.1h0.1c0.1-0.3,0.6-0.1,0.9-0.2  c0.5-0.1,0.8-0.3,1.2-0.7c0.4-0.5,1.1-1.4,0.7-2.1c0.1-0.1,0.1-0.1,0.2-0.3c0.4,0.1,0.4,0.6,0.9,0.7c0.4,0.1,1,0.1,1.3,0  c0.6-0.2,0.6-0.4,0.4-1c-0.1-0.5-0.1-0.9-0.2-1.4c0-0.3-0.4-0.8-0.3-1c0.1-0.4,1-0.3,1.3-0.2c0.5,0.1,0.9,0.4,1.2,0.9  c0.3,0.4,0.2,1,0.8,0.4c0.2,0.4,0.3,0.6,0.6,0.9c0.4,0.4,0.6,0.4,1.2,0.3c0.2-0.3,0.3-0.5,0.5-0.8c0.2,1,1.5,0.2,1.3-0.1  c-0.3,0-0.4,0.1-0.5-0.1c0.2-0.4,0.5-0.5,0.9-0.5c0.4,0,0.2,0.5,0.5,0c0.2-0.2,0-0.5,0.3-0.7c0,0,0.1,0.1,0.1,0.1  c0.4-0.1,0.4-0.6,0.4-0.9c-0.2-0.5-0.7-1,0-1.5c0.5-0.4,1,0.2,1.5-0.1C50.5,64.8,50.4,64,50,63.9z"></path><path d="M24.6,64.1C24.4,64,24.1,64,23.9,64v-0.1c-0.1-0.1-0.3-0.1-0.4-0.2l0.1-0.2h0.2l0.1-0.2c-0.2-0.3-0.4-0.1-0.6-0.3  c-0.1-0.2-0.1-0.4-0.1-0.6c-0.5-0.1-0.8-0.4-1.3-0.4c-0.2,0-0.3,0.1-0.5,0.1c-0.2,0-0.5-0.1-0.8-0.1v-0.2c-0.6,0-2.1-0.3-1.9,0.7  c-0.2,0-0.4,0-0.5,0c0,0.2-0.1,0.3-0.1,0.5h-0.2l-0.2,0.2c-0.3,0-0.6,0-0.9,0c0,0.1,0,0.3-0.1,0.4c-0.4,0-0.8-0.1-1.2,0  c-0.2,0.2,0,0.4,0,0.7c0.1,0.1,0.2,0.1,0.4,0.2l0,0.2c0.2,0,0.3,0,0.5,0l0.1-0.2c0.3,0,0.6,0.1,0.9-0.1c0.2-0.1,0.3-0.4,0.6-0.5v0.2  c0.3,0.1,0.4,0.3,0.8,0.2c0,0.2,0,0.3,0.1,0.5c0.2,0.1,0.5,0,0.7,0c0.1-0.2,0-0.4,0.1-0.6c0.1-0.2,0.3,0,0.3-0.3  c0.3,0,0.2,0.3,0.3,0.6c0.2,0.3,0.5,0.5,0.8,0.7c0.4,0.2,1.7,0.5,2.1,0c0-0.2-0.2-0.3-0.4-0.3c0-0.1,0-0.2,0.1-0.3  c0.4,0,0.4,0,0.7,0.2c0.2,0.2,0.5,0.5,0.8,0.4c0-0.2,0.2-0.5,0.4-0.5C24.5,64.7,24.6,64.4,24.6,64.1z"></path><path d="M85.8,54.7c-0.5,0.1-0.5,0.3-1,0.2c-0.3-0.1-0.8-0.3-0.8,0.2c-0.3-0.6-0.8,0.3-1,0.4c-0.7,0.4-1,0-0.5-0.6  c-0.3-0.3-1.4-0.4-1.6,0.1c-0.1,0.3,0.3,0.9,0,1.2c-0.1,0.1-1,0.1-1.1,0.1c-0.1,0.1-0.2,0.1-0.4,0.2c-0.1,0-0.3-0.1-0.4-0.1  c-0.4,0.1-1.2,0.6-1.6,0.3c-0.5-0.4,0.4-1.2-0.7-1.3c-0.7,0-0.6,0.4-1.1-0.3c-0.3-0.3-0.5-0.5-0.7-0.6c0.1-0.2,0-0.3-0.2-0.3  c-0.1,0-0.2,0.1-0.2,0.2c-0.1,0.1,0,0.4-0.2,0.6c-0.2-0.1-0.3-0.4-0.4-0.6c-0.6-0.1-1.2,0.2-1.8,0.2c0.1,0.4,0.6,0.4,0.7,0.8  c0.1,0.5-0.4,0.9-0.5,1.3c-0.2,0.6,0.2,1.3,0.1,1.9c0,0.3-0.1,0.5-0.1,0.8c-0.1,0.5,0.2,0.8-0.4,0.8v0.2c-0.4,0-0.6,0.5-1.1,0.5  c-0.3,0-0.8-0.4-0.8,0.1c-0.1,0-0.2,0-0.2,0c0,0.1,0,0.3,0,0.4c-0.5,0.3-0.7-0.2-1.1,0c-0.4,0.1-1,0.8-0.3,0.9  c0,0.4-0.2,0.8-0.2,1.1h0.2c0.1,0.3-0.1,0.5-0.2,0.8c-0.2,0.1-0.4,0.1-0.6,0.1c0,0.1,0,0.2,0,0.3h0.2c0,0.4,0,0.8,0,1.1  c0,0.2-0.1,0.7-0.2,0.8c-0.1,0.2-0.2,0.4-0.1,0.6c0.6,0.4,1-0.4,1.5-0.6c0.6-0.3,1.3,0,2-0.4c-0.1-0.2-0.5-0.4-0.6-0.5  c-0.2-0.3-0.1-0.8-0.1-1.2c0.1-0.8,0.1-1.9,0.7-2.5c0.3-0.3,0.8-0.4,1.1-0.7c0.5-0.3,0.9-0.8,1.5-0.9c0.5-0.1,1.1,0,1.7,0  c0.6,0,1.3,0.3,1.3-0.6c-0.1-0.1-0.2-0.2-0.3-0.1c-0.6-1.4,0.6-2.2,1.7-1.6c0.6,0.3,0.4,0.2,0.9-0.2c0.5-0.4,0.7,0,1.3-0.1  c0.3,0,1-0.2,1.2-0.4c0.4-0.5,0.1-0.9,0.9-1.1c0.7-0.2,1.5-0.1,2.2-0.4c0.4-0.1,0.7-0.3,1.1-0.5c0.2-0.1,0.4-0.2,0.6-0.2  c0-0.2,0.1-0.3,0.2-0.4C86.1,54.7,85.9,54.7,85.8,54.7z"></path><path d="M94.5,22.2c0.1-0.6-0.5-1-0.9-1.3c-0.5-0.5-0.9-1.1-1.3-1.7c-0.4-0.6-0.7-0.8-1.2-1.2c-0.2-0.2-0.3-0.4-0.4-0.5  c0-0.2-0.1-0.3-0.3-0.3c-0.2,0-0.4-0.1-0.6-0.2c-0.2-0.2-0.2-0.5-0.5-0.7c-0.3-0.3-0.6-0.3-0.9-0.5c-0.4-0.3-0.4-0.6-0.9-0.8  c-0.3-0.1-0.6,0-0.9-0.2c-0.2-0.1-0.3-0.3-0.5-0.3c-0.3-0.1-0.7-0.1-1-0.1c-0.3-0.1-0.5-0.2-0.9-0.1c-0.5,0.2-0.8,0.9-1.3,1  c-0.6,0.2-1.2-0.3-1.8-0.3c-0.6-0.1-1.2,0.4-1.8,0.1c-0.3-0.1-0.5-0.4-0.8-0.5c-0.2-0.1-0.6-0.1-0.8-0.2c-0.6-0.1-1-0.2-1.6,0  c-0.3,0.1-0.4,0.4-0.7,0.4c-0.3,0.1-0.6-0.1-0.9-0.2c-0.3,0-0.3,0.1-0.6,0.1c-0.4,0-0.5-0.1-0.9-0.2c-0.7-0.2-0.7,0.4-1.1,0.7  c0.4,1,1.3,1.2,2,1.9c0.3,0.3,0.2,0.9,0.5,1.1c0.3,0.2,0.5-0.1,0.7-0.2c0.9-0.4,1.5,0.2,2.3,0.2c1,0,1.8,0.2,2.7,0.4  c0.6,0.2,1.1,0.4,1.7,0.6c0.8,0.2,1.2-0.1,1.8-0.1c0.9,0,1.8,0.1,2.6,0.5c0.5,0.2,1,0.1,1.4,0.2c0.1,0,0.2,0.3,0.3,0.3  c0.2,0.1,0.3-0.1,0.5,0c-0.1,0.7,0.5,0.4,0.7,0.9c0.7,0.1,1.2-0.2,1.8,0.2c0.4,0.2,1,0.7,1.3,1.1c0.3,0,0.4-0.3,0.3-0.5  c0.6,0.2,0.3-0.5,0.4-0.8c0.4,0.4,1.4,1.2,0.8,1.9c-0.3-0.6-0.2-0.7-0.8-0.5c-0.7,0.3-0.7,0.5-1.5,0c-0.2,0.5,0.4,0.5,0.7,0.6  c0.2,0.1,0.2,0.1,0.4,0.2c0,0.1,0.1,0.3,0.1,0.4c0.2,0.1,0.4,0.2,0.6,0.3c0.4-0.3,0.5-0.1,0.8-0.5C94.6,23.3,94.8,22.4,94.5,22.2z   M81.7,18.2c0,0.1,0.1,0.5,0,0.5c-0.5,0.1-0.4-0.4-0.9-0.5c-0.6-0.1-0.5,0.2-1-0.1c-0.1-0.1-0.1-0.2-0.2-0.3c-0.1-0.1-0.3,0.1-0.4,0  c-0.3-0.1-0.7-0.5-1-0.4c0,0.1,0,0.2,0.1,0.3c-0.4-0.1-0.7-0.3-1.2-0.3c0,0.1,0,0.1,0,0.2c-0.1,0.1-0.2,0-0.3,0v-0.1  c-0.2-0.1-0.3-0.2-0.5-0.3c-0.2,0-0.4,0.1-0.6,0.1c0-0.1,0-0.3-0.1-0.4c-0.4-0.1-0.6,0-0.9,0.1c0-0.2,0-0.5,0-0.7  c0.4,0,0.5-0.1,0.8-0.3V16c0.2,0.1,0.4,0.1,0.5,0c0.1-0.2,0.1-0.4,0.1-0.6h0.1l0-0.1c0.5,0,0.3,0.6,0.6,0.6c0.4,0,0.1-0.4,0.3-0.5  c0.1-0.1,0.3-0.1,0.4,0c0,0.2,0.1,0.3,0.3,0.2c0.2,0.1,0.6-0.1,0.6,0.3c-0.1,0-0.2,0.1-0.2,0.2c0,0.1,0,0.1,0,0.2c0.1,0,0.2,0,0.3,0  c0,0.4-1.1,0.3-0.1,0.8c0.1,0,1.3,0.4,1.3,0.4c0,0,0-0.4-0.1-0.4l0,0c0-0.2,0.1-0.5-0.1-0.7c-0.3,0-0.9-0.1-0.5-0.6  c0.3-0.3,0.9,0.1,1,0.4c0.1,0.1,0.3,0.1,0.4,0c0,0.6-0.4,0.7,0,1.3c0.1-0.1,0.2-0.2,0.3-0.2c0.1,0,0.3,0.2,0.5,0.1  c0.2-0.1,0.2-0.5,0.3-0.7c-0.2,0.1-0.4,0.3-0.7,0.3c0.1-0.3,0-1.7,0.7-1.4c0.2,0.1,0.1,0.4,0.4,0.5c0.4,0.2,0.6-0.1,1-0.1v0.1l0.1,0  c0.1,0.5,0.1,0.7-0.4,1c-0.3,0.2-1.1,0.2-0.9,0.9c0.5,0.1,0.9-0.4,1.3-0.6c0,0,0-0.1,0-0.1c0.1,0,0.2-0.1,0.2-0.1  c0.1,0.1,0.1,0.1,0.1,0.2C83,17.7,82.2,18.2,81.7,18.2z"></path></svg>