<svg height='100px' width='100px'  fill="#000000" xmlns="http://www.w3.org/2000/svg" data-name="Layer 1" viewBox="0 0 128 128" x="0px" y="0px"><title>Miscellaneous 36 final</title><path d="M23,120.61a4.83,4.83,0,0,0,3.29,4.46l6.13,2.17a4.9,4.9,0,0,0,1.58.35,4.78,4.78,0,0,0,1.58-.35l6.13-2.17A4.83,4.83,0,0,0,45,120.61v-11a4,4,0,0,0-4-4H27a4,4,0,0,0-4,4Zm4-11H41v4H27Zm0,8H41v3a.9.9,0,0,1-.49.66l-.1,0-6.12,2.17-.29.09-.29-.09-6.13-2.17-.1,0a.9.9,0,0,1-.49-.66Z"></path><path d="M82,109.64v11a4.83,4.83,0,0,0,3.29,4.46l6.13,2.17a4.91,4.91,0,0,0,1.58.35,4.78,4.78,0,0,0,1.58-.35l6.13-2.17a4.83,4.83,0,0,0,3.29-4.46v-11a4,4,0,0,0-4-4H86A4,4,0,0,0,82,109.64Zm4,0h14v4H86Zm0,8h14v3a.9.9,0,0,1-.49.66l-.1,0-6.12,2.17-.29.09-.29-.09-6.13-2.17-.1,0a.9.9,0,0,1-.49-.66Z"></path><path d="M84,99.68a2,2,0,0,0,2,2h14a2,2,0,1,0,0-4H86A2,2,0,0,0,84,99.68Z"></path><path d="M25,99.68a2,2,0,0,0,2,2H41a2,2,0,1,0,0-4H27A2,2,0,0,0,25,99.68Z"></path><path d="M5.16,105.68a117.79,117.79,0,0,0,.72,20.54,2,2,0,0,0,2,1.78h.22a2,2,0,0,0,1.77-2.2A116.41,116.41,0,0,1,9.15,106C10.34,87.87,35.4,83.71,35.69,83.66c.46-.08.9-.18,1.34-.29l12.21,17.39a4.92,4.92,0,0,0,3.68,2.86,4.29,4.29,0,0,0,.56,0,5.05,5.05,0,0,0,3.7-1.8l1,1.8h.37l-2.47,15A5,5,0,0,0,58,123.52L62.76,127a3.07,3.07,0,0,0,1.83.6,2.66,2.66,0,0,0,1.75-.63l4.7-3.43a5,5,0,0,0,1.83-5l-3.09-14.89h.28L71,102a5,5,0,0,0,3.57,1.65,4.29,4.29,0,0,0,.56,0,4.92,4.92,0,0,0,3.68-2.86L91,83.33c.48.13,1,.25,1.49.34.25,0,25.31,4.16,26.5,22.21,0,.09.14,9-.89,19.92a2,2,0,0,0,4,.37c1.05-11.13.91-20.27.91-20.46-1.4-21.3-28.71-25.8-29.84-26-5.12-.89-8.27-4.83-10-8,6.28-7.83,9.44-17.59,10.63-22,.29-1.08.51-2.16.7-3.25A11.75,11.75,0,0,0,96,43.35a19.5,19.5,0,0,1,3.22-6.29l3.2-4a7.23,7.23,0,0,0,1.52-5.44,7,7,0,0,0-2.81-4.8C92.93,16.79,78.4,6.64,70.66,1.74a11.15,11.15,0,0,0-11.84-.09c-9.11,5.55-23,14.79-30.7,21A5.81,5.81,0,0,0,26,26.73a6.38,6.38,0,0,0,1.72,4.84,54,54,0,0,1,4.21,5.48,17.1,17.1,0,0,1,2.62,5.67,11.64,11.64,0,0,0,.65,1.9c.92,9.44,4.73,19.66,10,26.74-1.71,3.26-4.89,7.44-10.19,8.37C33.87,79.91,6.56,84.41,5.16,105.68ZM62.45,93.36a7,7,0,0,0,1.29-2.65h.51a7,7,0,0,0,1.29,2.65l3,4.84-.82,1.48H60.53L59.59,98ZM62.22,84l-3.76-3.14a22.35,22.35,0,0,0,6.12.86,21.42,21.42,0,0,0,4.52-.5L66,83.8l-.21.21a7,7,0,0,0-1.46,2.71h-.64A7,7,0,0,0,62.22,84Zm6.46,36.3-4.15,3-4.15-3a1.19,1.19,0,0,1-.37-.88l2.61-15.76H65.7L69,119.41l0,.12A1,1,0,0,1,68.68,120.31ZM87.23,81.77,75.41,98.61l-.18.3c-.23.49-.5.74-.66.76a1.13,1.13,0,0,1-.75-.46L68.9,91.17l-.18-.25a3.41,3.41,0,0,1,0-4.17L81.28,76.29A19.14,19.14,0,0,0,87.23,81.77ZM32.4,30.91c-.61-.78-1.18-1.46-1.71-2A2.4,2.4,0,0,1,30,27a1.88,1.88,0,0,1,.62-1.3C38,19.88,51.78,10.62,60.92,5.06a7.16,7.16,0,0,1,7.61.06C76.18,10,90.6,20,98.75,26A3.09,3.09,0,0,1,100,28.16a3.19,3.19,0,0,1-.67,2.43l-.25.32Zm2.91,4H95.87a23.66,23.66,0,0,0-3.67,7.22A7.6,7.6,0,0,1,87.27,47c-4,1.23-10.86,2.71-21.24,2.79a107.7,107.7,0,0,1-21.95-2.48,7.44,7.44,0,0,1-5.62-5.58A21,21,0,0,0,35.31,34.89Zm4.83,15.2a11,11,0,0,0,3.13,1.18,114.47,114.47,0,0,0,22.22,2.56h.58a79,79,0,0,0,22.39-3c.31-.09.6-.22.89-.34-3,9.86-8,18.45-13.77,23.25-7.54,6.31-18.86,5-25.77-3C45.34,65.53,41.84,57.84,40.14,50.09Zm6.68,26.27L59.31,86.75a3.41,3.41,0,0,1,0,4.17l-5.1,8.3c-.32.34-.6.47-.75.46s-.44-.26-.66-.76l-12-17.09A19,19,0,0,0,46.82,76.36Z"></path><path d="M42.37,42.37a119,119,0,0,0,22.32,2.49h.59A81.86,81.86,0,0,0,87.78,42a2,2,0,1,0-1.15-3.82c-4,1.19-10.93,2.63-21.38,2.72a112.45,112.45,0,0,1-22.09-2.41,2,2,0,1,0-.79,3.91Z"></path><path d="M35.92,86.94l-.22,0a1.65,1.65,0,0,1-.32,0,2.47,2.47,0,0,1-1.53-.54.74.74,0,0,0-.47-.23c-.22,0-.39.19-.42.54a2.13,2.13,0,0,1-1,1.53c-.51.27-.49.69.06.92a2.36,2.36,0,0,1,1.22,1.46c.07.34.25.51.46.51a.66.66,0,0,0,.46-.26,2.31,2.31,0,0,1,1.57-.64h.37c.47,0,.63-.32.35-.78a2.17,2.17,0,0,1-.12-1.85C36.52,87.25,36.35,86.94,35.92,86.94Z"></path><path d="M27.92,89.93l-.22,0a1.66,1.66,0,0,1-.32,0,2.47,2.47,0,0,1-1.53-.54.74.74,0,0,0-.47-.23c-.22,0-.39.19-.41.54a2.13,2.13,0,0,1-1,1.53c-.51.27-.49.69.06.92a2.36,2.36,0,0,1,1.22,1.46c.07.34.25.51.46.51a.66.66,0,0,0,.46-.26,2.3,2.3,0,0,1,1.57-.64h.37c.47,0,.63-.32.35-.78a2.17,2.17,0,0,1-.12-1.85C28.52,90.24,28.35,89.93,27.92,89.93Z"></path><path d="M91.92,90.32h.37a2.31,2.31,0,0,1,1.57.64.66.66,0,0,0,.46.26c.21,0,.39-.18.46-.51A2.36,2.36,0,0,1,96,89.21c.55-.24.58-.65.06-.92a2.13,2.13,0,0,1-1-1.53c0-.35-.19-.54-.42-.54a.74.74,0,0,0-.47.23,2.47,2.47,0,0,1-1.53.54,1.65,1.65,0,0,1-.32,0l-.22,0c-.43,0-.6.31-.39.75a2.17,2.17,0,0,1-.12,1.85C91.29,90,91.45,90.32,91.92,90.32Z"></path><path d="M104.07,91.28a2.13,2.13,0,0,1-1-1.53c0-.35-.19-.54-.41-.54a.74.74,0,0,0-.47.23,2.47,2.47,0,0,1-1.53.54,1.66,1.66,0,0,1-.32,0l-.22,0c-.43,0-.6.31-.39.75a2.17,2.17,0,0,1-.12,1.85c-.28.45-.12.78.35.78h.37a2.3,2.3,0,0,1,1.57.64.66.66,0,0,0,.46.26c.21,0,.39-.18.46-.51A2.36,2.36,0,0,1,104,92.2C104.55,92,104.58,91.55,104.07,91.28Z"></path><path d="M77,16H72.77a9,9,0,0,0-17.54,0H51.57a2,2,0,1,0,0,4h3.67a9,9,0,0,0,17.54,0H77a2,2,0,1,0,0-4Zm-13,7a5,5,0,1,1,5-5A5,5,0,0,1,64,22.93Z"></path></svg>