<svg height='100px' width='100px'  fill="#000000" xmlns="http://www.w3.org/2000/svg" viewBox="0 0 64 64" x="0px" y="0px"><g><rect x="11" y="44" width="2" height="3"></rect><rect x="7" y="44" width="2" height="3"></rect><path d="M53,53V47H51v5H49V49H47v3H45V49H43v3H41V47a1,1,0,0,0-1-1H37V45H35v1H33V43H31v3H29V42.008L31,42,31,40l-14,.056v-2l3-.013v0l8-.04h1V32.011L31.006,32l-.012-2L29,30.011V28.062H27v1.96l-2,.01v-1.97H23v1.981l-2,.011a8.128,8.128,0,0,1,5.352-7.627A7.73,7.73,0,0,1,28,22.009a7.787,7.787,0,0,1,1.663.423,7.966,7.966,0,0,1,3.295,2.247l1.5-1.319A9.961,9.961,0,0,0,31,20.835V16a1,1,0,0,0-1-1H29V12H27v3H26a1,1,0,0,0-1,1v4.818a10.138,10.138,0,0,0-6,9.242v5.985L16,36.06a.933.933,0,0,0-.167.034.672.672,0,0,0-.461.208c-.023.02-.054.03-.076.052a1,1,0,0,0-.212.316h0A1.008,1.008,0,0,0,15,37.06V40H13V37a1,1,0,0,0-1-1H8a1,1,0,0,0-1,1v3H2v2H3V60H2v2H54V60H53ZM29,17v3.169c-.286-.062-.572-.122-.873-.161a1.079,1.079,0,0,0-.254,0c-.3.039-.587.1-.873.161V17ZM51,58.764,48.618,54H51ZM46.382,54l1,2H41V54ZM39,52H37V50H35v2H33V50H31v2H29V50H27v2H25V50H23v2H21V50H19v2H17V48H39ZM15,56H8.618l1-2H15ZM5,54H7.382L5,58.764Zm16-8V42.04l2-.008V46Zm6,0H25V42.024l2-.008Zm-8-3.952V46H17V42.056Zm8-9.988v3.945l-2,.01V32.06Zm-6,0h2v3.965l-2,.01ZM9,38h2v2H9ZM5,42H15V52H13V49H11v3H9V49H7v3H5ZM7.618,58H15v2H6.618ZM17,54H39v6H37V57H35v3H33V57H31v3H29V57H27v3H25V57H23v3H21V57H19v3H17Zm24,6V58h7.382l1,2Z"></path><path d="M51.618,6,52.9,3.447A1,1,0,0,0,52,2H40a1,1,0,0,0-.9,1.447L40.382,6H38.854a2.854,2.854,0,0,0-1.276,5.407l.422.211V19a2.985,2.985,0,0,0,1.2,2.385l-3.595,3.594A12.314,12.314,0,0,0,44.313,46h3.374a12.314,12.314,0,0,0,8.707-21.021L53.414,22H62V20H54V8h8V6H51.618Zm-10-2h8.764l-1,2H42.618ZM38.473,9.618A.854.854,0,0,1,38.854,8H52V20H41a1,1,0,0,1-1-1V11a1,1,0,0,0-.553-.895ZM58,33.687A10.325,10.325,0,0,1,47.687,44H44.313a10.313,10.313,0,0,1-7.292-17.606L41.414,22h9.172l4.393,4.394A10.242,10.242,0,0,1,58,33.687Z"></path><rect x="56" y="16" width="2" height="2"></rect><path d="M47,32H45a1,1,0,0,1,0-2h4V28H47V26H45v2a3,3,0,0,0,0,6h2a1,1,0,0,1,0,2H43v2h2v2h2V38a3,3,0,0,0,0-6Z"></path></g></svg>