<svg height='100px' width='100px'  fill="#000000" xmlns="http://www.w3.org/2000/svg" xmlns:xlink="http://www.w3.org/1999/xlink" version="1.1" x="0px" y="0px" viewBox="0 0 100 100" enable-background="new 0 0 100 100" xml:space="preserve"><path fill="#000000" d="M92.4,62.3L74.1,50.1c7.1-1.5,12.4-3.4,13.3-5.2c0.2-0.4,0.2-0.8,0-1.3c-1.7-3.4-19.6-7.1-23-7.8l-0.9-6.4  c0,0,0,0,0,0c0,0,0,0,0,0c-0.1-0.8-3.4-19.3-5.9-23.1c-0.5-0.8-1.2-1.2-2-1.2c-1.3,0-2.7,1.2-4.1,2.6c-1.4,1.3-3.1,2.8-4.5,2.8  c-1.7,0-2.8-1.2-3.9-2.6C42,6.5,40.8,5.1,38.9,5c0,0-0.1,0-0.1,0c-1.2,0-2.9,1.4-5.4,12.4c-1.3,5.9-2.2,11.9-2.2,12c0,0,0,0,0,0  c0,0,0,0,0,0l-0.4,6.4c-3.4,0.7-20.4,4.4-22,7.8c-0.2,0.4-0.2,0.9,0,1.3c0.9,1.9,6.2,3.8,13.3,5.3L7.6,62.6  c-0.2,0.1-0.2,0.4-0.2,0.6c0.1,0.2,0.3,0.4,0.5,0.4h1.2c4.7,0,16.1,3.4,19.4,4.4l-7.2,6.2c-0.2,0.1-0.2,0.3-0.2,0.5  c0.1,0.2,0.2,0.3,0.4,0.4c5.3,1.1,22.9,10.5,25.7,12c-0.9,4.5-0.3,7.3-0.2,7.6c0.1,0.2,0.2,0.4,0.5,0.4c0,0,0,0,0.1,0  c0.2,0,0.4-0.1,0.5-0.3c9.2-18,29.4-20.9,29.6-20.9c0.2,0,0.4-0.2,0.5-0.4c0-0.2-0.1-0.5-0.3-0.6l-8.5-4c6.7-3.4,22.6-5.6,22.7-5.6  c0.2,0,0.4-0.2,0.5-0.4C92.6,62.6,92.5,62.4,92.4,62.3z M32.3,30.1c2.1,0.4,9.1,1.7,16.8,1.7c0,0,0,0,0,0c5.1,0,9.6-0.6,13.4-1.7  l0.8,5.7c-5.6,2.4-15.1,2.4-15.2,2.4c-0.1,0-10.6,0-16.2-2.5L32.3,30.1z M38.8,6.1c1.5,0.1,2.5,1.2,3.5,2.5c1.2,1.4,2.5,2.9,4.7,2.9  c1.9,0,3.6-1.6,5.2-3.1c1.2-1.1,2.5-2.3,3.3-2.3c0.2,0,0.6,0.1,1.1,0.7c2.1,3.3,5.1,19.3,5.6,22.3c-3.7,1.1-8.1,1.7-13.2,1.7  c0,0,0,0,0,0c-7.8,0-14.9-1.3-16.7-1.7C34,17.9,36.9,6.1,38.8,6.1z M9.7,44.4c0-0.1-0.1-0.2,0-0.3c1.1-2.3,13.7-5.6,21.5-7.2  c5.8,2.6,16.4,2.6,16.8,2.6c0.4,0,10.1,0,15.9-2.6c8.2,1.6,21.3,5,22.5,7.3c0.1,0.1,0.1,0.2,0,0.3c-1.5,3.1-20.8,7.2-38.3,7.2  C30.2,51.6,11.3,47.5,9.7,44.4z M67.9,55.7c-0.3,2.7-1.6,5.1-3.7,6.9C56.4,69,52.1,75.1,49.7,80.2c-16.3-7.8-20.7-25.3-21.5-29  c1,0.1,1.9,0.3,2.9,0.4C31,52.8,31,56.1,33,58.5c1.5,1.8,3.7,2.7,6.7,2.8c0.2,0,4-0.1,6-3.5c0.5-0.8,1.3-1.3,2.2-1.3h0.4  c0.9,0,1.7,0.5,2.2,1.3c2,3.5,5.8,3.5,6,3.5c2.9-0.1,5.2-1,6.6-2.8c2-2.4,1.9-5.7,1.8-6.9c0.9-0.1,1.8-0.2,2.7-0.4  C67.9,52.4,68,53.9,67.9,55.7z M63.8,51.7c0.1,1.1,0.2,4-1.5,6.1c-1.2,1.5-3.2,2.3-5.8,2.4c-0.1,0-3.4-0.1-5.1-3  c-0.7-1.2-1.8-1.9-3.1-1.9h-0.4c-1.3,0-2.4,0.7-3.1,1.9c-1.7,2.9-4.9,3-5.1,3c-2.6-0.1-4.6-0.9-5.9-2.4c-1.7-2.1-1.8-5-1.7-6.1  c5.2,0.6,10.6,1,15.9,1C53.3,52.7,58.7,52.3,63.8,51.7z M22.9,74.3l7.2-6.1c0.1-0.1,0.2-0.3,0.2-0.5c0-0.2-0.2-0.3-0.4-0.4  c-0.6-0.2-14.7-4.6-20.5-4.7l14.1-12.1c1.2,0.2,2.3,0.4,3.6,0.6c0.6,2.9,4.9,21.9,22.2,30.2c-0.7,1.7-1.3,3.3-1.6,4.8  C44.2,84.1,29.1,76.1,22.9,74.3z M68,68.4c-0.2,0.1-0.3,0.3-0.3,0.5c0,0.2,0.1,0.4,0.3,0.5l7.9,3.7c-5,1.1-19.8,5.4-27.9,19.6  c-0.2-4.2,0.9-16.1,16.9-29.3c2.3-1.9,3.8-4.6,4.1-7.6c0.2-1.9,0.1-3.5-0.3-4.8c1.3-0.2,2.7-0.4,3.9-0.7l18,12  C86.3,63,73.2,65.2,68,68.4z"></path></svg>