<svg height='100px' width='100px'  fill="#000000" xmlns="http://www.w3.org/2000/svg" xmlns:xlink="http://www.w3.org/1999/xlink" version="1.1" x="0px" y="0px" viewBox="0 0 100 100" style="enable-background:new 0 0 100 100;" xml:space="preserve"><path d="M95.9,28.2c-0.6-0.6-1.5-0.6-2.1,0c-2.2,2.2-4.7,3.8-7.5,4.9L66.7,13.6c1.1-2.8,2.8-5.3,4.9-7.5c0.6-0.6,0.6-1.5,0-2.1  c-0.6-0.6-1.5-0.6-2.1,0c-7,7-9.2,17.5-6,26.7c-9.2-3.2-19.7-1-26.7,6c-7.1,7.1-9.3,17.8-5.9,27.1c-9.3-3.4-20-1.2-27.1,5.9  c-0.6,0.6-0.6,1.5,0,2.1c0.6,0.6,1.5,0.6,2.1,0c2.3-2.3,4.9-3.9,7.8-5l19.4,19.4c-1.1,2.9-2.8,5.5-5,7.8c-0.6,0.6-0.6,1.5,0,2.1  c0.3,0.3,0.7,0.4,1.1,0.4s0.8-0.1,1.1-0.4c7.1-7.1,9.3-17.8,5.9-27.1C39,70,42,70.6,45,70.6c6.7,0,13.3-2.6,18.2-7.5  c7-7,9.2-17.5,6-26.7c2.7,1,5.6,1.4,8.5,1.4c6.7,0,13.3-2.6,18.2-7.5C96.5,29.8,96.5,28.8,95.9,28.2z M65.2,34.6  c2.5,4.9,3.1,10.5,1.8,15.6L49.6,32.8C54.8,31.6,60.3,32.1,65.2,34.6z M62.1,59.9L40,37.8c1.9-1.7,4.1-3,6.4-3.9L66,53.5  C65.1,55.8,63.8,57.9,62.1,59.9z M53.6,65.9L34,46.3c0.9-2.3,2.2-4.5,3.9-6.4L60,62C58.1,63.6,55.9,65,53.6,65.9z M17,65.7  c5.1-1.1,10.5-0.6,15.3,1.9c2.4,4.8,3,10.2,1.9,15.3L17,65.7z M34.8,65.1c-2.5-4.9-3.1-10.5-1.8-15.6l17.4,17.4  C45.2,68.2,39.7,67.6,34.8,65.1z M67.5,32.4c-2.5-4.9-3.1-10.5-1.8-15.6l17.4,17.4C77.9,35.4,72.4,34.9,67.5,32.4z"></path></svg>