<svg height='100px' width='100px'  fill="#000000" xmlns="http://www.w3.org/2000/svg" data-name="Layer 1" viewBox="0 0 32 32" x="0px" y="0px"><title>Artboard 74</title><path d="M27.48,8A3.52,3.52,0,1,0,24,4.52,3.52,3.52,0,0,0,27.48,8Zm0-4.69a1.18,1.18,0,1,1-1.17,1.18A1.18,1.18,0,0,1,27.48,3.34Zm-1.34,7.21L17,2.52,11.79,8.24l1.73,1.58,3.67-4,2.58,2.27-5.55,6.17a3.54,3.54,0,0,0,.25,5l5.22,4.75-4.75,5.41,1.76,1.54L23,23.76l-4.31-3.93,5.13-5.71v4.69H31V16.47H26.14ZM16.05,17.46A1.18,1.18,0,0,1,16,15.81l5.56-6.19,1.76,1.55-6.37,7.08Zm-4.52,2.1c-1.21-.93-2.09-1.6-2.09-3.5V14.89H7.77l-.29.18A18.32,18.32,0,0,0,4,17.9a9.32,9.32,0,0,0-3,6.44,6.65,6.65,0,1,0,13.3,0C14.3,21.7,12.76,20.52,11.53,19.56Zm-5,8a4.06,4.06,0,0,1,.82-1.79,6.22,6.22,0,0,0,.74.78c.51.49.68.68.68,1a1.12,1.12,0,1,1-2.24,0ZM11.07,27A4,4,0,0,0,9.7,24.83c-.53-.5-.78-.77-.78-1.27V22.39H7.23l-.32.26A9.82,9.82,0,0,0,4.24,27a4.31,4.31,0,0,1-.9-2.63c0-2.71,2.26-5,4-6.34a6.77,6.77,0,0,0,2.72,3.42c1.23.94,1.87,1.5,1.87,2.92A4.36,4.36,0,0,1,11.07,27Z"></path></svg>