<svg height='100px' width='100px'  fill="#000000" xmlns="http://www.w3.org/2000/svg" xmlns:xlink="http://www.w3.org/1999/xlink" version="1.1" x="0px" y="0px" viewBox="0 0 100 100" style="enable-background:new 0 0 100 100;" xml:space="preserve"><g><path d="M59.1328125,31.0961914l-1.7294922-1.7939453c-0.3828125-0.3969727-1.015625-0.4077148-1.4140625-0.0253906   l-1.1855469,1.1430054l-1.4414063-1.4413452c-1.3027344-1.3027344-3.421875-1.3027344-4.7246094,0l-1.4296875,1.4297485   l-1.0488281-1.0488892c-0.390625-0.390625-1.0234375-0.390625-1.4140625,0l-1.7617188,1.7617188   c-2.1728516-0.4941406-4.4423828,0.1499023-6.0429688,1.7504883c-1.2314453,1.2314453-1.9101563,2.8681641-1.9101563,4.609375   c0,1.7407227,0.6787109,3.3774414,1.9101563,4.6088867c1.2705078,1.2709961,2.9404297,1.90625,4.609375,1.90625   s3.3388672-0.6352539,4.609375-1.90625c1.6005859-1.6010742,2.2451172-3.8681641,1.7509766-6.0424805l1.7607422-1.7617188   c0.390625-0.390625,0.390625-1.0234375,0-1.4140625l-1.0490723-1.0491333l1.4299316-1.4298706   c0.5234375-0.5224609,1.3730469-0.5224609,1.8964844,0l1.4155273,1.4155273l-0.9506836,0.9165039   c-0.1904297,0.184082-0.3007813,0.4365234-0.3056641,0.7016602s0.0957031,0.5214844,0.2802734,0.7124023l1.7294922,1.793457   c-0.5341797,2.1645508,0.0683594,4.4433594,1.640625,6.0737305c1.2089844,1.253418,2.8330078,1.9614258,4.5742188,1.9931641   C60.3720703,43.9995117,60.4121094,44,60.453125,44c1.6953125,0,3.2978516-0.6459961,4.5224609-1.8271484   c2.5869141-2.4946289,2.6621094-6.6293945,0.1669922-9.2172852C63.5703125,31.3256836,61.3183594,30.640625,59.1328125,31.0961914z    M46.0839844,35.0449219c-0.2675781,0.2670898-0.3613281,0.6616211-0.2421875,1.0200195   c0.5371094,1.6303711,0.1171875,3.3969727-1.0966797,4.6108398C43.890625,41.5297852,42.7558594,42,41.5498047,42   s-2.3408203-0.4702148-3.1953125-1.3242188c-0.8535156-0.8540039-1.3242188-1.9887695-1.3242188-3.1948242   c0-1.206543,0.4707031-2.3413086,1.3242188-3.1953125c0.8652344-0.8642578,2.0097656-1.3261719,3.1865234-1.3261719   c0.4746094,0,0.9550781,0.0751953,1.4238281,0.2299805c0.3583984,0.1171875,0.7529297,0.0239258,1.0205078-0.2426758   l1.4667969-1.4663086l0.7502441,0.7504272c0.0483398,0.1344604,0.1196289,0.2619629,0.2272949,0.3696899   s0.2351074,0.1789551,0.3695068,0.2272339l0.7506104,0.7507935L46.0839844,35.0449219z M63.5869141,40.7333984   c-0.8691406,0.8388672-2.0625,1.2861328-3.21875,1.2661133c-1.2070313-0.0219727-2.3330078-0.5126953-3.1708984-1.3823242   c-1.1914063-1.2358398-1.5800781-3.0097656-1.0126953-4.6293945c0.125-0.3564453,0.0390625-0.7529297-0.2236328-1.0249023   l-1.4394531-1.4926758l0.6630859-0.6392212c0.1403809-0.0477905,0.2739258-0.1185303,0.3857422-0.2304077   c0.1047363-0.1047974,0.1765137-0.2279663,0.2250977-0.3582764l0.862793-0.831665l1.4394531,1.4931641   c0.2617188,0.2714844,0.6533203,0.3740234,1.015625,0.2607422c1.6396484-0.5063477,3.3984375-0.0561523,4.5898438,1.1796875   C65.4326172,36.1376953,65.3808594,39.0039063,63.5869141,40.7333984z"></path><path d="M41.5,34c-1.9296875,0-3.5,1.5703125-3.5,3.5s1.5703125,3.5,3.5,3.5s3.5-1.5703125,3.5-3.5S43.4296875,34,41.5,34z    M41.5,39c-0.8271484,0-1.5-0.6728516-1.5-1.5s0.6728516-1.5,1.5-1.5s1.5,0.6728516,1.5,1.5S42.3271484,39,41.5,39z"></path><path d="M57,37.5c0,1.9296875,1.5703125,3.5,3.5,3.5s3.5-1.5703125,3.5-3.5S62.4296875,34,60.5,34S57,35.5703125,57,37.5z M60.5,36   c0.8271484,0,1.5,0.6728516,1.5,1.5S61.3271484,39,60.5,39S59,38.3271484,59,37.5S59.6728516,36,60.5,36z"></path><path d="M74,32h-3v-7c0-0.5522461-0.4472656-1-1-1h-4v-5c0-0.5522461-0.4472656-1-1-1h-5c-0.5527344,0-1,0.4477539-1,1v5h-3v-2   c0-0.5522461-0.4472656-1-1-1h-5c-0.5527344,0-1,0.4477539-1,1v2H32h-6c-0.5527344,0-1,0.4477539-1,1v56   c0,0.5522461,0.4472656,1,1,1h6h38c0.5527344,0,1-0.4477539,1-1v-7h3c0.5527344,0,1-0.4477539,1-1v-8v-8v-8v-8v-8   C75,32.4477539,74.5527344,32,74,32z M31,80h-4V26h4V80z M61,20h3v4h-3V20z M51,23h3v1h-3V23z M69,33v8v8v8v8v8v7H33V26h17h5h5h5h4   V33z M73,72h-2v-6h2V72z M73,64h-2v-6h2V64z M73,56h-2v-6h2V56z M73,48h-2v-6h2V48z M73,40h-2v-6h2V40z"></path><path d="M61,56H40c-0.5527344,0-1,0.4477539-1,1v8c0,0.5522461,0.4472656,1,1,1h21c0.5527344,0,1-0.4477539,1-1v-8   C62,56.4477539,61.5527344,56,61,56z M60,64H41v-6h19V64z"></path></g></svg>