<svg height='100px' width='100px'  fill="#000000" xmlns="http://www.w3.org/2000/svg" data-name="Layer 57" viewBox="0 0 100 100" x="0px" y="0px"><title>Chart Presentation</title><path d="M75.85,35.58l-6.17,4.84a1,1,0,0,1-1.35-.11L66,37.83l-1-1.06L64,35.7l-2.68-2.85-.8,1L64,38l1,1.2,1,1.19,2.61,3.12,6-2.37a1,1,0,0,1,1,.12,1,1,0,0,1,.41.87L73.39,89h1.26l5.82-29.39a1,1,0,0,1,2,0L88.26,89h1.25L87,42.1a1,1,0,0,1,.68-1,1,1,0,0,1,1.15.4l2.4,3.63a1,1,0,0,1,.14.78l-1.14,5,3.6-7-6.88-8.32Z"></path><polygon points="89.31 45.87 89.17 45.67 89.21 46.3 89.31 45.87"></polygon><circle cx="81.45" cy="26.3" r="4.04"></circle><polygon points="18.83 88.48 29.46 77.85 29.46 73.6 16.7 86.36 18.83 88.48"></polygon><path d="M54.86,23.67V23.6l-.09,0Z"></path><path d="M58.45,33.19l2.06-2.49a1,1,0,0,1,.74-.36,1,1,0,0,1,.76.32l2,2.12V14.4A3.41,3.41,0,0,0,60.6,11H9.4A3.41,3.41,0,0,0,6,14.4V50.6A3.41,3.41,0,0,0,9.4,54H60.6A3.41,3.41,0,0,0,64,50.6V41.09l-5.54-6.62A1,1,0,0,1,58.45,33.19Zm-1.59-5.53a1,1,0,0,1-2,0V25.27L40.74,40.79a1,1,0,0,1-1.12.25l-9.83-4-4.42-1.79-9.91,9.17-2.64,2.45a1,1,0,0,1-1.41-.06,1,1,0,0,1,.05-1.41l13-12a1,1,0,0,1,1.06-.2l6.59,2.68,7.6,3.09,12-13.17,1.67-1.84-3.2.7a1,1,0,1,1-.43-1.95l5.89-1.29a1,1,0,0,1,.84.2,1,1,0,0,1,.38.78Z"></path><polygon points="31.46 71.19 31.46 78.26 31.46 89 34.93 89 34.93 78.26 34.93 71.19 34.93 56 31.46 56 31.46 71.19"></polygon><polygon points="36.93 77.85 47.56 88.48 49.69 86.36 36.93 73.6 36.93 77.85"></polygon></svg>