<svg height='100px' width='100px'  fill="#000000" xmlns="http://www.w3.org/2000/svg" data-name="Layer 1" viewBox="0 0 100 100" x="0px" y="0px"><title>education</title><path d="M92.32,42.92h-14V39a3.41,3.41,0,0,0-3.41-3.41H63V28.65a2.75,2.75,0,0,0-1.42-2.4c-2.12-1.18-3.81-2.19-5.16-3-2.86-1.71-4.43-2.65-6-2.79h0a6.79,6.79,0,0,0-.92,0c-1.53.18-3.07,1.1-5.88,2.78-1.35.81-3,1.82-5.16,3A2.75,2.75,0,0,0,37,28.65v6.91H25.17A3.41,3.41,0,0,0,21.76,39v4h-14a1,1,0,0,0-1,1V73.32a.75.75,0,0,0,.75.75h15l13.78,0v1.22H34.21a1.22,1.22,0,0,0-1.09,1.35V78.2a1.22,1.22,0,0,0,1.09,1.35H65.79a1.22,1.22,0,0,0,1.09-1.35V76.67a1.22,1.22,0,0,0-1.09-1.35H63.73V74.14l13.81,0h0a.73.73,0,0,0,.34-.09H92.5a.75.75,0,0,0,.75-.75V43.85A.93.93,0,0,0,92.32,42.92ZM23.26,39a1.91,1.91,0,0,1,1.91-1.91H37.79a.75.75,0,0,0,.75-.75V28.65a1.25,1.25,0,0,1,.65-1.09c2.14-1.19,3.84-2.21,5.2-3C47,23,48.46,22.1,49.66,22a4.94,4.94,0,0,1,.68,0c1.23.12,2.7,1,5.35,2.58,1.36.81,3.06,1.83,5.2,3a1.25,1.25,0,0,1,.65,1.09v7.66a.75.75,0,0,0,.75.75H74.91A1.91,1.91,0,0,1,76.82,39v4.52a.83.83,0,0,0-.06.28V72.66l-13.8,0a.85.85,0,0,0-.26-.06h-8V64.85a2.05,2.05,0,0,0-2-2H47.4a2.05,2.05,0,0,0-2,2v7.72h-8l-.1,0-14,0V68l0-.87ZM46.85,72.57V64.85a.55.55,0,0,1,.55-.55h5.21a.55.55,0,0,1,.55.55v7.72ZM8.25,44.42H21.74V68L21.68,70l0,2.54H8.25ZM65.39,78.05H34.62V76.81H65.39Zm-3.16-2.74H37.78V74.1H46.1a.74.74,0,0,0,.2,0h7.36a.74.74,0,0,0,.24,0h8.32Zm29.52-2.74H78.29l0-28.15H91.75Z"></path><path d="M66.4,51.87h6.3a.75.75,0,0,0,.75-.75v-5a.75.75,0,0,0-.75-.75H66.4a.75.75,0,0,0-.75.75v5A.75.75,0,0,0,66.4,51.87Zm.75-5H72v3.51h-4.8Z"></path><path d="M57.95,59.13h6.3a.75.75,0,0,0,.75-.75v-5a.75.75,0,0,0-.75-.75h-6.3a.75.75,0,0,0-.75.75v5A.75.75,0,0,0,57.95,59.13Zm.75-5h4.8v3.51H58.7Z"></path><path d="M66.4,59.13h6.3a.75.75,0,0,0,.75-.75v-5a.75.75,0,0,0-.75-.75H66.4a.75.75,0,0,0-.75.75v5A.75.75,0,0,0,66.4,59.13Zm.75-5H72v3.51h-4.8Z"></path><path d="M57.95,51.87h6.3a.75.75,0,0,0,.75-.75v-5a.75.75,0,0,0-.75-.75h-6.3a.75.75,0,0,0-.75.75v5A.75.75,0,0,0,57.95,51.87Zm.75-5h4.8v3.51H58.7Z"></path><path d="M57.95,66.38h6.3a.75.75,0,0,0,.75-.75v-5a.75.75,0,0,0-.75-.75h-6.3a.75.75,0,0,0-.75.75v5A.75.75,0,0,0,57.95,66.38Zm.75-5h4.8v3.51H58.7Z"></path><path d="M66.4,66.38h6.3a.75.75,0,0,0,.75-.75v-5a.75.75,0,0,0-.75-.75H66.4a.75.75,0,0,0-.75.75v5A.75.75,0,0,0,66.4,66.38Zm.75-5H72v3.51h-4.8Z"></path><path d="M35.77,51.87h6.3a.75.75,0,0,0,.75-.75v-5a.75.75,0,0,0-.75-.75h-6.3a.75.75,0,0,0-.75.75v5A.75.75,0,0,0,35.77,51.87Zm.75-5h4.8v3.51h-4.8Z"></path><path d="M27.32,59.13h6.3a.75.75,0,0,0,.75-.75v-5a.75.75,0,0,0-.75-.75h-6.3a.75.75,0,0,0-.75.75v5A.75.75,0,0,0,27.32,59.13Zm.75-5h4.8v3.51h-4.8Z"></path><path d="M35.77,59.13h6.3a.75.75,0,0,0,.75-.75v-5a.75.75,0,0,0-.75-.75h-6.3a.75.75,0,0,0-.75.75v5A.75.75,0,0,0,35.77,59.13Zm.75-5h4.8v3.51h-4.8Z"></path><path d="M27.32,51.87h6.3a.75.75,0,0,0,.75-.75v-5a.75.75,0,0,0-.75-.75h-6.3a.75.75,0,0,0-.75.75v5A.75.75,0,0,0,27.32,51.87Zm.75-5h4.8v3.51h-4.8Z"></path><path d="M27.32,66.38h6.3a.75.75,0,0,0,.75-.75v-5a.75.75,0,0,0-.75-.75h-6.3a.75.75,0,0,0-.75.75v5A.75.75,0,0,0,27.32,66.38Zm.75-5h4.8v3.51h-4.8Z"></path><path d="M35.77,66.38h6.3a.75.75,0,0,0,.75-.75v-5a.75.75,0,0,0-.75-.75h-6.3a.75.75,0,0,0-.75.75v5A.75.75,0,0,0,35.77,66.38Zm.75-5h4.8v3.51h-4.8Z"></path><path d="M50,38.26a5.69,5.69,0,1,0-5.69-5.69A5.7,5.7,0,0,0,50,38.26Zm0-9.89a4.19,4.19,0,1,1-4.19,4.19A4.2,4.2,0,0,1,50,28.37Z"></path><path d="M19.64,48.62H10.35a.75.75,0,0,0-.75.75V67.62a.75.75,0,0,0,.75.75h9.29a.75.75,0,0,0,.75-.75V49.37A.75.75,0,0,0,19.64,48.62Zm-.75,18.26H11.1V50.12h7.79Z"></path><path d="M80.36,68.37h9.29a.75.75,0,0,0,.75-.75V49.37a.75.75,0,0,0-.75-.75H80.36a.75.75,0,0,0-.75.75V67.62A.75.75,0,0,0,80.36,68.37Zm.75-18.26H88.9V66.87H81.11Z"></path></svg>