<svg height='100px' width='100px'  fill="#000000" xmlns="http://www.w3.org/2000/svg" data-name="Layer 1" viewBox="0 0 64 64" x="0px" y="0px"><title>alliance- ally- league- combination- confederation- confederate</title><path d="M36.049,23.133a1,1,0,0,0,.6.56L45.313,26.7a1,1,0,0,0,1.175-1.475l-1.571-2.513,3.343-.9a1,1,0,0,0,.068-1.911l-5.876-2.038.3-.627a1,1,0,0,0-.573-1.378l-5.2-1.8a1,1,0,0,0-1.229.512l-2.36,4.909L32,22.369l-1.39-2.893-2.36-4.909a1,1,0,0,0-1.229-.512l-5.2,1.8a1,1,0,0,0-.573,1.378l.3.627L15.672,19.9a1,1,0,0,0,.068,1.911l3.343.9-1.571,2.513A1,1,0,0,0,18.687,26.7l8.668-3.007a1,1,0,0,0,.574-1.378l-.3-.626,1.565-.543,1.7,3.531L27.1,32.567l1.8.866L32,26.986l3.1,6.447,1.8-.866-3.792-7.89,1.7-3.531,1.565.543-.3.626A1,1,0,0,0,36.049,23.133ZM25.914,20.167a1,1,0,0,0-.574,1.378l.3.626-4.93,1.71.784-1.253a1,1,0,0,0-.588-1.5L19.4,20.726l3.864-1.34a1,1,0,0,0,.574-1.378l-.3-.627,3.3-1.144,1.487,3.1Zm9.765-.835,1.487-3.1,3.3,1.144-.3.627a1,1,0,0,0,.574,1.378l3.864,1.34-1.509.406a1,1,0,0,0-.588,1.5l.784,1.253-4.93-1.71.3-.626a1,1,0,0,0-.574-1.378Z"></path><path d="M9,23h2a17.485,17.485,0,0,1,.1-1.889L9.114,20.9A19.667,19.667,0,0,0,9,23Z"></path><path d="M50.349,13.754a17.988,17.988,0,0,1,1.682,3.525l1.889-.659A20.114,20.114,0,0,0,52.051,12.7Z"></path><path d="M22.394,6.1a22.294,22.294,0,0,1,3.713-1.343L25.6,2.825a24.183,24.183,0,0,0-4.049,1.464Z"></path><path d="M44.985,8.068a20.465,20.465,0,0,1,2.971,2.58l1.452-1.375A22.412,22.412,0,0,0,46.146,6.44Z"></path><path d="M14.57,9.3l1.454,1.373a20.435,20.435,0,0,1,2.964-2.583L17.824,6.46A22.555,22.555,0,0,0,14.57,9.3Z"></path><path d="M13.636,13.778l-1.7-1.048a20.053,20.053,0,0,0-1.863,3.92l1.889.656A18.045,18.045,0,0,1,13.636,13.778Z"></path><path d="M37.86,4.75a22.22,22.22,0,0,1,3.716,1.336l.842-1.814a24.3,24.3,0,0,0-4.05-1.457Z"></path><path d="M29.833,2.092,30,4.085a23.669,23.669,0,0,1,3.958,0l.166-1.994A25.665,25.665,0,0,0,29.833,2.092Z"></path><path d="M55,23a19.667,19.667,0,0,0-.114-2.105l-1.989.216A17.485,17.485,0,0,1,53,23Z"></path><path d="M15,42a6,6,0,1,0-6-6A6.006,6.006,0,0,0,15,42Zm0-10a4,4,0,1,1-4,4A4,4,0,0,1,15,32Z"></path><path d="M32,36a6,6,0,1,0,6,6A6.006,6.006,0,0,0,32,36Zm0,10a4,4,0,1,1,4-4A4,4,0,0,1,32,46Z"></path><path d="M43,36a6,6,0,1,0,6-6A6.006,6.006,0,0,0,43,36Zm10,0a4,4,0,1,1-4-4A4,4,0,0,1,53,36Z"></path><path d="M53.79,44H44.21a8.155,8.155,0,0,0-7.9,6h-8.63a8.155,8.155,0,0,0-7.895-6H10.21A8.219,8.219,0,0,0,2,52.21V55a1,1,0,0,0,1,1H19.31A8.165,8.165,0,0,0,19,58.207V61a1,1,0,0,0,1,1H44a1,1,0,0,0,1-1V58.207A8.165,8.165,0,0,0,44.69,56H61a1,1,0,0,0,1-1V52.21A8.219,8.219,0,0,0,53.79,44ZM4,54V52.21A6.217,6.217,0,0,1,10.21,46h9.58a6.162,6.162,0,0,1,5.849,4.154A8.221,8.221,0,0,0,20.173,54Zm39,6H21V58.207A6.215,6.215,0,0,1,27.207,52h9.586A6.215,6.215,0,0,1,43,58.207Zm17-6H43.827a8.221,8.221,0,0,0-5.466-3.846A6.162,6.162,0,0,1,44.21,46h9.58A6.217,6.217,0,0,1,60,52.21Z"></path></svg>