<svg height='100px' width='100px'  fill="#000000" xmlns="http://www.w3.org/2000/svg" xmlns:xlink="http://www.w3.org/1999/xlink" version="1.1" x="0px" y="0px" viewBox="0 0 194 135.74" style="enable-background:new 0 0 194 135.74;" xml:space="preserve"><g><path d="M188.978,126.74V0H5.022v126.74H0v9h194v-9H188.978z M181.834,40.911v16.233l-6.266,6.266l-14.382-14.381l14.382-14.383   L181.834,40.911z M176.899,33.315l4.935-4.935v9.869L176.899,33.315z M47.598,65.308c-0.822-0.93-0.734-2.349,0.195-3.171   c0.93-0.822,2.349-0.734,3.171,0.195c0.822,0.93,0.734,2.349-0.195,3.171C49.839,66.325,48.42,66.237,47.598,65.308z M38.5,46.005   c1.078,0.922,3.405,3.032,5.582,5.769c-1.815-0.018-3.431,0.418-4.812,1.047l-3.793-3.793L38.5,46.005z M156.169,82.509   c-0.012,0.103-0.001,0.202-0.004,0.304l-3.872,3.872l-2.035-14.496l6.234,6.234C156.43,79.741,156.328,81.097,156.169,82.509z    M136.656,87.35l-6.896-6.896l3.127-3.127L136.656,87.35z M71.73,78.289l0.261,7.252l-5.086-5.086l3.33-3.33   C70.726,77.498,71.226,77.887,71.73,78.289z M86.405,87.486c0.553,0.281,1.104,0.474,1.648,0.583l-2.12,2.12L86.405,87.486z    M65.572,79.122l-6.109-6.108c0.321-0.589,0.649-0.975,1.018-1.044c1.352-0.251,4.484,1.361,8.217,4.025L65.572,79.122z    M65.573,81.786l6.517,6.517l0.547,15.182l-7.065,7.065L51.191,96.169L65.573,81.786z M85.369,93.417l5.757-5.757   c2.07-0.719,4.734-2.159,7.838-3.908l12.419,12.418l-14.383,14.383L84.55,98.102L85.369,93.417z M100.667,82.789   c2.245-1.271,4.682-2.645,7.267-3.991c-0.255-2.93-1.232-9.518-4.991-17.006c2.258,2.64,6.93,8.516,8.196,15.396   c1.511-0.728,3.063-1.423,4.643-2.07c-0.629-3.398-1.898-8.091-4.464-13.201c1.887,2.207,5.462,6.677,7.326,12.102   c0.498-0.178,0.997-0.353,1.5-0.517l3.538,3.538c-0.138-0.948-0.328-2.039-0.6-3.266l-0.894-0.894   c0.214-0.061,0.43-0.112,0.645-0.17c-0.741-3.018-1.939-6.658-3.889-10.543c1.628,1.904,4.512,5.496,6.472,9.928   c1.737-0.358,3.486-0.6,5.239-0.708l1.506,4.005l-3.73,3.73l-1.225-1.225c0.084,0.502,0.152,1.008,0.196,1.52l-0.954,0.389   l0.65,0.65l-14.381,14.381L100.667,82.789z M128.428,81.786l9.836,9.838l2.484,6.605l-12.319,12.321l-14.384-14.383L128.428,81.786   z M152.622,89.019l4.149-4.149c0.554,0.809,1.432,1.391,2.483,1.509c0.134,0.016,0.266,0.022,0.396,0.022   c1.283,0,2.431-0.708,3.038-1.783l11.549,11.55l-14.383,14.383l-4.898-4.898L152.622,89.019z M156.502,53.712l3.354-3.353   l14.381,14.381L163.55,75.427C163.469,66.245,161.108,58.98,156.502,53.712z M156.557,75.823l-6.733-6.733l-1.071-7.628   l2.779-2.778C154.856,62.741,156.538,68.475,156.557,75.823z M148.425,59.127l-0.531-3.783c0.152,0.105,0.306,0.206,0.455,0.315   c0.681,0.499,1.309,1.053,1.906,1.638L148.425,59.127z M41.109,82.458c0,0,6.67,3.051,11.618,1.3   c3.28-1.16,4.733-5.787,5.928-8.891l5.586,5.586L49.859,94.835L35.476,80.454l5.15-5.15C39.536,78.458,41.109,82.458,41.109,82.458   z M49.86,97.5l14.38,14.381l-10.457,10.458h-7.847l-10.458-10.457L49.86,97.5z M65.573,113.213l9.125,9.126H56.448L65.573,113.213z    M66.902,111.882l5.828-5.827l0.238,6.615c0.083,2.302,1.891,4.17,4.189,4.327c0.104,0.008,0.208,0.011,0.311,0.011   c2.17,0,4.052-1.56,4.43-3.726l2.257-12.914l11.514,11.514l-10.457,10.457h-7.85L66.902,111.882z M97,113.213l9.125,9.126h-18.25   L97,113.213z M98.332,111.882L112.714,97.5l14.381,14.382l-10.457,10.457h-7.85L98.332,111.882z M128.428,113.213l9.125,9.126   h-18.251L128.428,113.213z M129.759,111.881l11.717-11.717l4.364,11.602c0.747,1.986,2.64,3.24,4.678,3.24   c0.409,0,0.824-0.051,1.237-0.156c2.47-0.629,4.07-3.016,3.716-5.54l-0.078-0.559l3.13,3.13l-10.458,10.457h-7.849L129.759,111.881   z M159.854,113.213l9.126,9.126h-18.252L159.854,113.213z M161.186,111.881l14.382-14.383l6.266,6.266v16.235l-2.342,2.34h-7.849   L161.186,111.881z M176.899,96.168l4.935-4.933v9.867L176.899,96.168z M175.568,94.835l-12.367-12.367   c0.151-1.486,0.257-2.934,0.309-4.337l12.058-12.059l6.266,6.267v16.233L175.568,94.835z M176.899,64.74l4.935-4.935v9.869   L176.899,64.74z M159.856,47.696l-14.382-14.382l14.381-14.381l14.383,14.383L159.856,47.696z M158.524,49.028l-3.313,3.313   c-0.848-0.831-1.749-1.614-2.726-2.329c-4.969-3.641-11.179-5.383-17.806-5.905l9.462-9.462L158.524,49.028z M132.154,43.968   c-2.403-0.08-4.845-0.017-7.29,0.162l-10.818-10.817l14.384-14.381l14.379,14.381L132.154,43.968z M122.417,44.348   c-8.528,0.882-16.932,3.031-23.624,5.142l-0.462-0.462l14.382-14.383L122.417,44.348z M97,47.695L82.617,33.313l14.384-14.381   l14.383,14.381L97,47.695z M95.668,49.028l-2.271,2.271c-0.738,0.262-1.435,0.517-2.093,0.761   c-1.608-0.314-3.206-0.731-4.787-1.305c-1.287,1.66-3.195,4.047-5.821,6.725c0.566-4.795,0.578-8.022,0.578-8.022   c-4.131,0.732-8.701,0.953-13.029,0.913l-1.345-1.344l14.384-14.381L95.668,49.028z M65.572,47.695L51.191,33.313l14.381-14.381   l14.381,14.381L65.572,47.695z M64.24,49.027l-1.177,1.177c-4.928-0.264-9.057-0.767-11.138-1.053   c-4.01-5.089-9.762-4.656-12.491-4.082l10.424-10.424L64.24,49.027z M34.145,47.696L19.763,33.315l14.383-14.383l14.381,14.383   L34.145,47.696z M37.549,53.763c-2.305,1.487-3.612,3.263-3.612,3.263s4.226,0.382,8.795,1.92l0.338,0.338   c-0.313,1.077-0.489,2.152-0.386,3.094c0.251,2.288,1.284,4.768,1.159,7.047l-9.698,9.698L19.764,64.74l14.381-14.381   L37.549,53.763z M48.527,96.168l-14.38,14.383L19.764,96.168l14.381-14.383L48.527,96.168z M43.272,122.339H25.02l9.126-9.126   L43.272,122.339z M179.494,7.144l2.34,2.34v16.234l-6.266,6.264l-14.382-14.381l10.457-10.457H179.494z M168.98,7.144l-9.126,9.124   l-9.125-9.124H168.98z M148.067,7.144L158.523,17.6l-14.381,14.381l-14.381-14.38l10.455-10.457H148.067z M137.551,7.144   l-9.124,9.124l-9.125-9.124H137.551z M116.64,7.144L127.095,17.6l-14.381,14.381L98.332,17.6l10.456-10.456H116.64z M106.124,7.144   L97,16.268l-9.124-9.124H106.124z M85.214,7.144l10.455,10.455L81.286,31.981L66.905,17.6L77.362,7.144H85.214z M74.697,7.144   l-9.124,9.124l-9.125-9.124H74.697z M53.784,7.144L64.24,17.601l-14.38,14.38l-14.382-14.38L45.935,7.144H53.784z M43.271,7.144   l-9.125,9.124l-9.125-9.124H43.271z M12.166,9.484l2.34-2.34h7.85l10.458,10.457L18.433,31.982l-6.267-6.264V9.484z M12.166,28.38   l4.935,4.935l-4.935,4.935V28.38z M12.166,40.911l6.267-6.266l14.38,14.383L18.432,63.409l-6.266-6.266V40.911z M12.166,59.806   l4.935,4.935l-4.935,4.934V59.806z M12.166,72.338l6.267-6.267l14.38,14.383L18.432,94.835l-6.266-6.264V72.338z M12.166,91.234   l4.935,4.933l-4.935,4.933V91.234z M12.166,103.764l6.266-6.266l14.381,14.383l-10.457,10.458h-7.849L12.166,120V103.764z"></path></g></svg>