<svg height='100px' width='100px'  fill="#000000" xmlns="http://www.w3.org/2000/svg" xmlns:xlink="http://www.w3.org/1999/xlink" version="1.1" x="0px" y="0px" viewBox="0 0 64 64" style="enable-background:new 0 0 64 64;" xml:space="preserve"><g><rect x="13" y="20" width="2" height="4"></rect><rect x="5.929" y="22.929" transform="matrix(0.7071 -0.7071 0.7071 0.7071 -15.598 12.201)" width="2" height="4"></rect><rect x="1" y="31" width="5" height="2"></rect><rect x="4.929" y="38.071" transform="matrix(0.7071 -0.7071 0.7071 0.7071 -25.598 16.3432)" width="4" height="2"></rect><rect x="13" y="40" width="2" height="4"></rect><polygon points="63,31 60.868,31 61.832,29.555 60.168,28.445 58.465,31 56,31 56,28.535 58.555,26.832 57.445,25.168 56,26.132    56,24 54,24 54,26.132 52.555,25.168 51.445,26.832 54,28.535 54,31 51.535,31 49.832,28.445 48.168,29.555 49.132,31 47,31 47,33    49.132,33 48.168,34.445 49.832,35.555 51.535,33 54,33 54,35.465 51.445,37.168 52.555,38.832 54,37.868 54,40 56,40 56,37.868    57.445,38.832 58.555,37.168 56,35.465 56,33 58.465,33 60.168,35.555 61.832,34.445 60.868,33 63,33  "></polygon><path d="M45,32c0-7.168-5.832-13-13-13c-6.211,0-11.411,4.38-12.691,10.212C18.303,27.305,16.302,26,14,26c-3.309,0-6,2.691-6,6   s2.691,6,6,6c2.302,0,4.303-1.305,5.309-3.212C20.589,40.62,25.789,45,32,45C39.168,45,45,39.168,45,32z M14,36   c-2.206,0-4-1.794-4-4s1.794-4,4-4s4,1.794,4,4S16.206,36,14,36z M28.991,39h6.018c-0.789,2.473-1.935,4-3.009,4   S29.78,41.473,28.991,39z M21.051,33h4.971c0.046,1.419,0.184,2.763,0.409,4h-4.217C21.588,35.779,21.18,34.43,21.051,33z M32,21   c1.075,0,2.22,1.527,3.009,4h-6.018C29.78,22.527,30.925,21,32,21z M35.519,27c0.244,1.209,0.408,2.553,0.46,4h-7.958   c0.052-1.447,0.217-2.791,0.46-4H35.519z M42.949,31h-4.971c-0.046-1.419-0.184-2.763-0.409-4h4.217   C42.412,28.221,42.82,29.57,42.949,31z M42.949,33c-0.13,1.43-0.537,2.779-1.164,4h-4.217c0.225-1.237,0.364-2.581,0.409-4H42.949z    M26.022,31h-4.971c0.13-1.43,0.537-2.779,1.164-4h4.217C26.206,28.237,26.067,29.581,26.022,31z M28.021,33h7.958   c-0.052,1.447-0.217,2.791-0.46,4h-7.038C28.237,35.791,28.073,34.447,28.021,33z M35.714,42.341   c0.553-0.919,1.023-2.046,1.391-3.341h3.374C39.232,40.507,37.588,41.666,35.714,42.341z M40.479,25h-3.374   c-0.368-1.295-0.838-2.422-1.391-3.341C37.588,22.334,39.232,23.493,40.479,25z M28.286,21.659   c-0.553,0.919-1.023,2.046-1.391,3.341h-3.374C24.768,23.493,26.412,22.334,28.286,21.659z M23.521,39h3.374   c0.368,1.295,0.838,2.422,1.391,3.341C26.412,41.666,24.768,40.507,23.521,39z"></path><path d="M25,15h14c2.757,0,5-2.243,5-5c0-2.972-2.626-5.396-5.65-4.952C37.216,2.593,34.769,1,32,1s-5.216,1.593-6.35,4.048   C22.627,4.601,20,7.028,20,10C20,12.757,22.243,15,25,15z M25,7c0.294,0,0.604,0.056,0.949,0.172L26.92,7.5l0.303-0.979   C27.874,4.415,29.794,3,32,3s4.126,1.415,4.777,3.52L37.08,7.5l0.971-0.327C38.396,7.056,38.706,7,39,7c1.654,0,3,1.346,3,3   s-1.346,3-3,3H25c-1.654,0-3-1.346-3-3S23.346,7,25,7z"></path><path d="M33,56.356V56c0-4.962-4.038-9-9-9h-1v7c0,4.624,3.507,8.441,8,8.941V63h1h1h7c4.962,0,9-4.038,9-9v-1h-9   C37.174,53,34.651,54.312,33,56.356z M25,54v-4.929c3.388,0.487,6,3.408,6,6.929v4.929C27.612,60.442,25,57.521,25,54z M40,61   h-6.929c0.487-3.388,3.408-6,6.929-6h6.929C46.442,58.388,43.521,61,40,61z"></path><path d="M18.542,9.749l-1.037-1.71c-4.941,2.996-8.787,7.366-11.121,12.637l1.829,0.81C10.38,16.59,13.952,12.532,18.542,9.749z"></path><path d="M8.213,42.514l-1.829,0.81c2.933,6.624,8.467,11.971,15.185,14.669l0.745-1.855C16.076,53.631,10.937,48.666,8.213,42.514z   "></path><path d="M49.333,51.379l1.334,1.49c3.216-2.879,5.757-6.509,7.349-10.499l-1.857-0.741C54.681,45.334,52.321,48.705,49.333,51.379z   "></path><path d="M56.159,22.371l1.857-0.741c-2.221-5.567-6.266-10.365-11.39-13.51l-1.046,1.704C50.34,12.745,54.096,17.201,56.159,22.371   z"></path></g></svg>