<svg height='100px' width='100px'  fill="#000000" xmlns="http://www.w3.org/2000/svg" xmlns:xlink="http://www.w3.org/1999/xlink" version="1.1" x="0px" y="0px" viewBox="0 0 64 64" style="enable-background:new 0 0 64 64;" xml:space="preserve"><path d="M5,62h14c0.552,0,1-0.447,1-1v-3.62c0-2.333-1.492-4.323-3.572-5.067c0.564-1.061,0.724-2.299,0.423-3.537  c-0.438-1.806-1.889-3.236-3.696-3.646c-1.52-0.341-3.079,0.007-4.274,0.962C7.686,47.047,7,48.472,7,50  c0,0.811,0.202,1.603,0.578,2.311C5.495,53.053,4,55.045,4,57.38V61C4,61.553,4.448,62,5,62z M6,57.38C6,55.517,7.516,54,9.379,54  c0.417,0,0.79-0.259,0.936-0.648s0.036-0.83-0.278-1.104C9.369,51.662,9,50.864,9,50c0-0.917,0.412-1.772,1.129-2.346  c0.728-0.582,1.646-0.784,2.584-0.573c1.056,0.238,1.937,1.109,2.194,2.167c0.273,1.122-0.081,2.243-0.945,2.999  c-0.313,0.274-0.424,0.714-0.278,1.104c0.146,0.39,0.52,0.648,0.936,0.648C16.484,54,18,55.517,18,57.38V60H6V57.38z"></path><path d="M56.851,48.775c-0.438-1.806-1.889-3.236-3.696-3.646c-1.52-0.341-3.079,0.007-4.274,0.962C47.686,47.047,47,48.472,47,50  c0,0.811,0.202,1.603,0.578,2.311C45.495,53.053,44,55.045,44,57.38V61c0,0.553,0.448,1,1,1h14c0.552,0,1-0.447,1-1v-3.62  c0-2.333-1.492-4.323-3.572-5.067C56.993,51.252,57.152,50.014,56.851,48.775z M58,57.38V60H46v-2.62c0-1.863,1.516-3.38,3.379-3.38  c0.417,0,0.79-0.259,0.936-0.648s0.036-0.83-0.278-1.104C49.369,51.662,49,50.864,49,50c0-0.917,0.412-1.772,1.129-2.346  c0.728-0.582,1.645-0.784,2.584-0.573c1.056,0.238,1.937,1.109,2.194,2.167c0.273,1.122-0.081,2.243-0.945,2.999  c-0.313,0.274-0.424,0.714-0.278,1.104c0.146,0.39,0.52,0.648,0.936,0.648C56.484,54,58,55.517,58,57.38z"></path><path d="M25,62h14c0.552,0,1-0.447,1-1v-3.62c0-2.333-1.492-4.323-3.572-5.067c0.564-1.061,0.724-2.299,0.423-3.537  c-0.438-1.806-1.889-3.236-3.696-3.646c-1.52-0.341-3.079,0.007-4.274,0.962C27.686,47.047,27,48.472,27,50  c0,0.811,0.202,1.603,0.578,2.311C25.495,53.053,24,55.045,24,57.38V61C24,61.553,24.448,62,25,62z M26,57.38  c0-1.863,1.516-3.38,3.379-3.38c0.417,0,0.79-0.259,0.936-0.648s0.036-0.83-0.278-1.104C29.369,51.662,29,50.864,29,50  c0-0.917,0.412-1.772,1.129-2.346c0.728-0.582,1.645-0.784,2.584-0.573c1.056,0.238,1.937,1.109,2.194,2.167  c0.273,1.122-0.081,2.243-0.945,2.999c-0.313,0.274-0.424,0.714-0.278,1.104c0.146,0.39,0.52,0.648,0.936,0.648  C36.484,54,38,55.517,38,57.38V60H26V57.38z"></path><path d="M43.795,35.173c-1.531,0-2.972-0.509-4.168-1.472c-0.341-0.274-0.819-0.295-1.181-0.053  c-0.363,0.242-0.528,0.691-0.406,1.11C39.106,38.434,42.521,41,46.346,41C51.118,41,55,37.118,55,32.346  c0-2.629-1.178-5.085-3.231-6.739c-0.341-0.275-0.82-0.297-1.182-0.054c-0.363,0.241-0.528,0.691-0.406,1.11  c0.178,0.613,0.268,1.238,0.268,1.856C50.449,32.188,47.464,35.173,43.795,35.173z M52.387,29.555  c0.4,0.862,0.613,1.812,0.613,2.791C53,36.015,50.015,39,46.346,39c-1.891,0-3.653-0.816-4.887-2.151  c0.757,0.214,1.543,0.324,2.335,0.324C48.217,37.173,51.875,33.84,52.387,29.555z"></path><path d="M39.052,26.729c-0.12,0.354-0.03,0.747,0.231,1.016l1.645,1.69l-0.394,2.395c-0.062,0.378,0.097,0.758,0.41,0.979  c0.313,0.222,0.725,0.244,1.06,0.06l1.99-1.096l1.987,1.102C46.132,32.958,46.299,33,46.465,33c0.202,0,0.403-0.062,0.575-0.182  c0.313-0.221,0.474-0.6,0.413-0.979l-0.388-2.395l1.649-1.686c0.262-0.268,0.353-0.659,0.234-1.015  c-0.118-0.356-0.426-0.615-0.796-0.673l-2.236-0.346l-1.006-2.15c-0.164-0.352-0.517-0.575-0.904-0.576c0,0-0.001,0-0.001,0  c-0.387,0-0.739,0.224-0.904,0.573l-1.013,2.147l-2.237,0.339C39.48,26.115,39.172,26.374,39.052,26.729z M42.914,27.618  c0.33-0.05,0.613-0.261,0.755-0.562l0.332-0.704l0.33,0.705c0.141,0.302,0.424,0.514,0.753,0.564l0.84,0.13l-0.641,0.655  c-0.222,0.227-0.324,0.546-0.273,0.859l0.139,0.859l-0.669-0.37c-0.151-0.084-0.318-0.126-0.485-0.126  c-0.166,0-0.332,0.041-0.482,0.124l-0.67,0.369l0.142-0.861c0.051-0.312-0.049-0.632-0.27-0.859l-0.639-0.657L42.914,27.618z"></path><path d="M24,45c0.552,0,1-0.447,1-1v-9h4c0.552,0,1-0.447,1-1v-4c0-0.553-0.448-1-1-1h-4v-3c0-0.553-0.448-1-1-1h-4  c-0.552,0-1,0.447-1,1v3h-4c-0.552,0-1,0.447-1,1v4c0,0.553,0.448,1,1,1h4v9c0,0.553,0.448,1,1,1H24z M16,33v-2h4  c0.552,0,1-0.447,1-1v-3h2v3c0,0.553,0.448,1,1,1h4v2h-4c-0.552,0-1,0.447-1,1v9h-2v-9c0-0.553-0.448-1-1-1H16z"></path><path d="M2.148,17.524C2.331,17.82,2.653,18,3,18h3.882l2.224,4.447c0.165,0.33,0.498,0.542,0.867,0.553c0.009,0,0.019,0,0.028,0  c0.358,0,0.69-0.191,0.868-0.504L13.437,18H18c0.356,0,0.685-0.189,0.864-0.497s0.181-0.688,0.005-0.997l-2.282-4.019l2.28-3.99  c0.177-0.31,0.176-0.689-0.003-0.998C18.686,7.189,18.356,7,18,7h-4.526l-2.551-4.494C10.74,2.185,10.396,1.989,10.028,2  C9.659,2.01,9.326,2.221,9.16,2.55L6.918,7H3C2.653,7,2.332,7.18,2.149,7.475S1.951,8.138,2.105,8.447l2.034,4.068L2.107,16.55  C1.951,16.86,1.966,17.229,2.148,17.524z M10.059,19.882L9.118,18h2.016L10.059,19.882z M8.118,16l-1.741-3.481L8.15,9h4.159  l1.977,3.484L12.277,16H8.118z M16.282,16H14.58l0.854-1.494L16.282,16z M16.277,9l-0.837,1.464L14.609,9H16.277z M10.105,5.118  L11.174,7H9.157L10.105,5.118z M4.618,9H5.91l-0.648,1.287L4.618,9z M5.882,16H4.624l0.632-1.254L5.882,16z"></path><path d="M53,2c-4.962,0-9,4.037-9,9s4.038,9,9,9s9-4.037,9-9S57.962,2,53,2z M60,11c0,1.243-0.329,2.409-0.9,3.422l-2.322-0.662  c-1.213-0.353-2.187-1.325-2.537-2.531l-0.312-1.106c-0.346-1.192-1.071-2.248-2.036-2.968c-1.076-0.818-2.405-1.229-3.804-1.137  C49.356,4.772,51.089,4,53,4C56.86,4,60,7.141,60,11z M46,11c0-0.953,0.193-1.861,0.539-2.69l1.189-0.237  c1.092-0.21,2.134,0.049,2.963,0.68c0.625,0.466,1.093,1.15,1.316,1.919l0.312,1.108c0.542,1.864,2.037,3.359,3.906,3.902  l1.533,0.437C56.508,17.282,54.838,18,53,18C49.14,18,46,14.859,46,11z"></path><rect x="48" y="10" width="2" height="2"></rect><rect x="56" y="10" width="2" height="2"></rect><path d="M37,7.411c0-1.196-0.571-2.339-1.529-3.058L35,4c-0.763-0.572-1.767-0.661-2.618-0.236C32.24,3.834,32.123,3.933,32,4.026  c-0.123-0.093-0.24-0.192-0.382-0.262C30.767,3.339,29.763,3.428,29,4l-0.471,0.354C27.571,5.072,27,6.215,27,7.411V12h-2v2h2  c1.103,0,2-0.897,2-2V7.411c0-0.57,0.272-1.115,0.729-1.458L30.2,5.6c0.224-0.166,0.441-0.089,0.524-0.047  C30.807,5.595,31,5.721,31,6v7.757C31,14.994,29.994,16,28.757,16H25v2h3.757c1.308,0,2.464-0.607,3.243-1.54  c0.779,0.933,1.936,1.54,3.243,1.54H39v-2h-3.757C34.006,16,33,14.994,33,13.757V6c0-0.279,0.193-0.405,0.276-0.447  c0.083-0.042,0.3-0.119,0.523,0.047l0.471,0.354C34.728,6.296,35,6.841,35,7.411V12c0,1.103,0.897,2,2,2h2v-2h-2V7.411z"></path></svg>