<svg height='100px' width='100px'  fill="#000000" xmlns="http://www.w3.org/2000/svg" xmlns:xlink="http://www.w3.org/1999/xlink" version="1.1" x="0px" y="0px" viewBox="0 0 100 100" style="enable-background:new 0 0 100 100;" xml:space="preserve"><path d="M81.2104492,76.9111328c-2.7070312-4.515625-7.6010742-7.3046875-12.8701172-7.3046875  c-4.4467773,0-8.6870117,2.0117188-11.5283203,5.4248047C55.0579834,73.9099731,53.0510254,73.270752,51,73.1068726v-9.1480103  c0.6265259,0.0571899,1.4655151,0.1104736,2.4335938,0.1104736c3.0307617,0,7.2890625-0.5214844,9.9770508-3.0712891  c4.4790039-4.2509766,3.1577148-12.1376953,3.0991211-12.4716797c-0.0717773-0.4091797-0.3896484-0.7314453-0.7983398-0.8095703  c-0.3652344-0.0683594-8.9892578-1.6455078-13.1279297,2.9746094C51.9469604,51.4022217,51.4317017,52.2075195,51,53.0507202  v-7.6564941c0.5446777,0.0419312,1.2509155,0.0794067,2.0722656,0.0794067c3.0371094,0,7.5385742-0.5097656,10.3383789-3.1660156  c4.4790039-4.25,3.1577148-12.1376953,3.0991211-12.4716797c-0.0708008-0.4052734-0.3837891-0.7265625-0.7875977-0.8076172  c-0.371582-0.0732422-9.152832-1.7753906-13.159668,2.9970703c-0.6278076,0.7481689-1.1360474,1.5778198-1.5625,2.437439v-7.7462769  c0.5443115,0.0419312,1.2498779,0.0793457,2.0703125,0.0793457c3.0371094,0,7.5400391-0.5087891,10.340332-3.1660156  c4.4790039-4.2509766,3.1577148-12.1376953,3.0991211-12.4716797c-0.0708008-0.4052734-0.3837891-0.7265625-0.7875977-0.8076172  c-0.3720703-0.0742188-9.1538086-1.7783203-13.159668,2.9970703c-1.1696167,1.3938599-1.9534302,3.0581665-2.4818115,4.7057495  c-0.5372314-1.6845093-1.3657837-3.3792114-2.6392822-4.7682495c-4.1845703-4.5644531-12.7519531-3.0332031-13.1157227-2.9667969  c-0.4106445,0.0761719-0.7304688,0.3994141-0.8022461,0.8105469c-0.0585938,0.3339844-1.3803711,8.2207031,3.0986328,12.4716797  c2.8076172,2.6640625,7.3276367,3.171875,10.3662109,3.171875c0.793457,0,1.4771729-0.0349731,2.0117188-0.0748901v7.4940796  c-0.4284668-0.7900391-0.9347534-1.5482788-1.5585938-2.2287598c-4.1855469-4.5634766-12.7529297-3.0341797-13.1157227-2.9667969  c-0.4106445,0.0761719-0.7304688,0.3994141-0.8022461,0.8105469c-0.0585938,0.3339844-1.3803711,8.2216797,3.0986328,12.4716797  c2.8071289,2.6640625,7.3256836,3.171875,10.3642578,3.171875c0.7942505,0,1.4785767-0.0349731,2.0136719-0.0749512v7.5637207  c-0.4244995-0.8014526-0.9262695-1.5758057-1.5449219-2.2797852c-4.0996094-4.6660156-12.769043-3.0527344-13.1367188-2.9804688  c-0.4072266,0.078125-0.7236328,0.4003906-0.7949219,0.8085938c-0.0585938,0.3339844-1.3803711,8.2207031,3.0986328,12.4716797  c2.7949219,2.6513672,7.2768555,3.1611328,10.3085938,3.1611328c0.8189087,0,1.5238647-0.0374146,2.0693359-0.0795288v9.0580444  c-1.0357666,0.0800781-2.0665283,0.2747803-3.0654297,0.6132812c-2.4082031-2.6171875-5.7792969-4.1054688-9.3569336-4.1054688  c-4.8071289,0-9.1660156,2.6972656-11.3291016,6.9394531c-0.847168-0.1748047-1.6953125-0.2636719-2.5307617-0.2636719  C15.7050781,76.2822266,10,81.9873047,10,89c0,0.5527344,0.4477539,1,1,1h78c0.5522461,0,1-0.4472656,1-1  C90,83.5117188,86.4057617,78.5986328,81.2104492,76.9111328z M54.0737305,52.0253906  c2.7802734-3.1035156,8.543457-2.6992188,10.5556641-2.4482422c0.1928711,1.8916016,0.4101562,7.1171875-2.5957031,9.9697266  c-3.0050049,2.8529663-8.8240356,2.6113892-11.0146484,2.4017944c-0.0001831-0.1204834-0.000061-0.237854-0.0026855-0.3754272  C51.1106567,59.3853149,51.6103516,54.776001,54.0737305,52.0253906z M54.0947266,33.3105469  c2.6713867-3.1835938,8.5170898-2.7099609,10.5336914-2.4316406C64.8217773,32.7636719,65.0439453,38,62.0336914,40.8564453  c-3.0012207,2.8484497-8.7849121,2.7050781-10.9899292,2.5310669c0.0007324-0.1630859-0.0003662-0.3411255-0.0042725-0.5383911  C51.1481323,40.6143799,51.6779175,36.190979,54.0947266,33.3105469z M54.0947266,14.6328125  c2.6708984-3.1835938,8.515625-2.7089844,10.5336914-2.4316406c0.1933594,1.8837891,0.4155273,7.1210938-2.5947266,9.9775391  c-3.0002441,2.8484497-8.7825317,2.7050781-10.9899292,2.5310669c0.0007324-0.1630859-0.0003662-0.3411255-0.0042725-0.5385132  C51.1481323,21.9360352,51.6778564,17.5133057,54.0947266,14.6328125z M37.9990234,22.1494141  c-3.0043945-2.8505859-2.7885742-8.0722656-2.5957031-9.9658203c2.0097656-0.2431641,7.7456055-0.6201172,10.5634766,2.453125  c2.5665283,2.7992554,3.0124512,7.3057251,3.0664673,9.5393677c-0.0080566,0.1870728-0.0130615,0.3550415-0.0164185,0.5111084  C46.829895,24.8574829,41.0119629,25.0090942,37.9990234,22.1494141z M37.9990234,40.8271484  c-3.0048828-2.8505859-2.7885742-8.0732422-2.5952148-9.9667969c2.0058594-0.2460938,7.7358398-0.6289062,10.5634766,2.4541016  h-0.0004883C48.2584839,35.8143311,48.8589478,39.6749268,49,42.0639648v1.3031616  C46.8022461,43.5378418,41.0116577,43.6868896,37.9990234,40.8271484z M37.9990234,59.5078125  c-3.0073242-2.8535156-2.7880859-8.0830078-2.5952148-9.9716797c2.0126953-0.2597656,7.8007812-0.6845703,10.5488281,2.4433594  c0.0004883,0,0.0004883,0,0.0004883,0C48.4014282,54.7653809,48.9130249,58.9783325,49,61.2590942v0.6661987  c-0.0007935,0.0357056-0.0019531,0.0724487-0.0025635,0.1063843C46.8196411,62.2098389,41.0197144,62.3751221,37.9990234,59.5078125  z M12.0463867,88c0.5058594-5.4423828,5.0986328-9.7177734,10.6713867-9.7177734  c0.9277344,0,1.8789062,0.1308594,2.8261719,0.390625c0.4819336,0.1289062,0.9858398-0.1123047,1.1826172-0.5703125  c1.6938477-3.9462891,5.5605469-6.4960938,9.8510742-6.4960938c3.2172852,0,6.2368164,1.4277344,8.2836914,3.9179688  c0.2773438,0.3369141,0.7412109,0.4550781,1.1455078,0.2929688c1.2658081-0.5081787,2.5986938-0.7536621,3.9257812-0.7597046  C49.9561157,75.0593262,49.9760742,75.0712891,50,75.0712891c0.0296021,0,0.0545044-0.0143433,0.0834351-0.0168457  c2.2558594,0.0214233,4.4873047,0.7494507,6.3359985,2.1369629c0.2143555,0.1611328,0.4863281,0.2265625,0.7485352,0.1894531  c0.2646484-0.0400391,0.5029297-0.1845703,0.6601562-0.4013672c2.4477539-3.3642578,6.3774414-5.3730469,10.512207-5.3730469  c4.6831055,0,9.0249023,2.5429688,11.3310547,6.6367188c0.128418,0.2275391,0.3413086,0.3964844,0.5932617,0.4697266  C84.4960938,79.9375,87.5419922,83.6748047,87.9526367,88H12.0463867z"></path></svg>