<svg height='100px' width='100px'  fill="#000000" xmlns="http://www.w3.org/2000/svg" xmlns:xlink="http://www.w3.org/1999/xlink" version="1.1" x="0px" y="0px" viewBox="0 0 100 100" style="enable-background:new 0 0 100 100;" xml:space="preserve"><g><path d="M26.6,25.8c0,0.5,0.2,0.9,0.6,1.2l12.1,10.8c0.3,0.3,0.7,0.4,1.1,0.4h0.1c0.1,3.5,2.7,7.3,6.6,8.6v4.6   c-11.3,1.5-20,11.1-20,22.8c0,12.7,10.3,23,23,23c12.7,0,23-10.3,23-23c0-11.7-8.7-21.4-20-22.8v-4.6c4-1.3,6.4-5.1,6.6-8.7h0.1   c0.4,0,0.9-0.2,1.2-0.4l12-10.8c0.4-0.3,0.6-0.8,0.6-1.3v-9.1H26.6V25.8z M69.9,74.3c0,11-8.9,19.9-19.9,19.9   c-11,0-19.9-8.9-19.9-19.9c0-10,7.4-18.2,16.9-19.7c1-0.1,2-0.2,3-0.2c1,0,2,0.1,3,0.2C62.6,56,69.9,64.3,69.9,74.3z M55.6,38.2   c-0.2,2.1-2.4,5.3-5.6,5.3c-3.2,0-5.4-3.1-5.6-5.3C44.4,38.2,55.6,38.2,55.6,38.2z"></path><rect x="24" y="2.7" width="52" height="10.4"></rect><path d="M50,61.7c-0.5,0-0.8,0.3-1,0.7l-2.4,7.2H39c-0.5,0-0.8,0.3-1,0.7s0,0.9,0.4,1.2l6.2,4.5l-2.4,7.2c-0.1,0.4,0,0.9,0.4,1.2   c0.4,0.3,0.9,0.3,1.2,0L50,80l6.2,4.5c0.2,0.1,0.4,0.2,0.6,0.2s0.4-0.1,0.6-0.2c0.4-0.3,0.5-0.7,0.4-1.2l-2.4-7.2l6.2-4.5   c0.4-0.3,0.5-0.7,0.4-1.2c-0.1-0.4-0.5-0.7-1-0.7h-7.6L51,62.5C50.8,62,50.5,61.7,50,61.7z"></path></g></svg>