<svg height='100px' width='100px'  fill="#000000" xmlns="http://www.w3.org/2000/svg" viewBox="0 0 512 512" x="0px" y="0px"><title>25percentTtariff-chinaandustradewar-tariff-tax-vat-increase</title><path d="M452.36719,480c-8.29,0-11.98047-2.70605-17.08789-6.45117C429.47852,469.29492,422.25879,464,408.73145,464c-13.52833,0-20.748,5.29492-26.54981,9.54883C377.0752,477.294,373.38477,480,365.0957,480c-8.29,0-11.97949-2.70605-17.08593-6.45117C342.208,469.29492,334.98828,464,321.46094,464s-20.7461,5.29492-26.54688,9.54883C289.80762,477.294,286.11914,480,277.83105,480c-8.29,0-11.98046-2.70605-17.08789-6.45117C254.94238,469.29492,247.72266,464,234.19531,464s-20.74707,5.29492-26.54785,9.54883C202.54,477.294,198.84961,480,190.55957,480c-8.291,0-11.98145-2.70605-17.08887-6.45117C167.66992,469.294,160.4502,464,146.92188,464s-20.748,5.29492-26.54883,9.54883C115.26562,477.294,111.5752,480,103.28516,480c-8.292,0-11.98243-2.70605-17.09082-6.45117C80.39258,469.294,73.17188,464,59.64258,464s-20.75,5.29395-26.55176,9.54883C27.98242,477.294,24.292,480,16,480v16c13.5293,0,20.75-5.29395,26.55176-9.54883C47.66016,482.70605,51.35059,480,59.64258,480s11.98242,2.70605,17.09082,6.45117C82.53516,490.70605,89.75586,496,103.28516,496c13.52832,0,20.748-5.29492,26.54882-9.54883C134.94141,482.70605,138.63184,480,146.92188,480s11.98046,2.70605,17.08789,6.45117C169.81055,490.70508,177.03125,496,190.55957,496s20.748-5.29492,26.54981-9.54883C222.21582,482.70605,225.90527,480,234.19531,480s11.97949,2.70605,17.08594,6.45117C257.083,490.70508,264.30273,496,277.83105,496c13.52637,0,20.74512-5.29492,26.5459-9.54883,5.10645-3.74512,8.7959-6.45117,17.084-6.45117,8.29,0,11.97949,2.70605,17.08594,6.45117C344.34863,490.70508,351.56836,496,365.0957,496s20.74707-5.29492,26.54785-9.54883C396.751,482.70605,400.44141,480,408.73145,480s11.97949,2.70605,17.08593,6.45117C431.61914,490.70508,438.83887,496,452.36719,496c13.52734,0,20.74707-5.29492,26.54785-9.54883C484.02148,482.70605,487.71094,480,496,480V464c-13.52734,0-20.74707,5.29492-26.54785,9.54883C464.3457,477.294,460.65625,480,452.36719,480Z"></path><path d="M469.45215,433.54883C464.3457,437.294,460.65625,440,452.36719,440c-8.29,0-11.98047-2.70605-17.08789-6.45117C429.47852,429.29492,422.25879,424,408.73145,424a45.36415,45.36415,0,0,0-6.86963.50293,128.34921,128.34921,0,0,0,40.45752-77.37109l6.62695-49.69629L424,293.09717V176h8V160H400V80h8V64H336V40a24.0275,24.0275,0,0,0-24-24H200a24.0275,24.0275,0,0,0-24,24V64H104V80h8v80H80v16h8V293.09717l-24.94629,4.33838,6.627,49.69629a127.06069,127.06069,0,0,0,51.0083,86.186c-.10449.07666-.2124.15479-.31591.231C115.26562,437.294,111.5752,440,103.28516,440c-8.292,0-11.98243-2.70605-17.09082-6.45117C80.39258,429.294,73.17188,424,59.64258,424s-20.75,5.29395-26.55176,9.54883C27.98242,437.294,24.292,440,16,440v16c13.5293,0,20.75-5.29395,26.55176-9.54883C47.66016,442.70605,51.35059,440,59.64258,440s11.98242,2.70605,17.09082,6.45117C82.53516,450.70605,89.75586,456,103.28516,456c13.52832,0,20.748-5.29492,26.54882-9.54883C134.94141,442.70605,138.63184,440,146.92188,440s11.98046,2.70605,17.08789,6.45117C169.81055,450.70508,177.03125,456,190.55957,456s20.748-5.29492,26.54981-9.54883C222.21582,442.70605,225.90527,440,234.19531,440s11.97949,2.70605,17.08594,6.45117C257.083,450.70508,264.30273,456,277.83105,456c13.52637,0,20.74512-5.29492,26.5459-9.54883,5.10645-3.74512,8.7959-6.45117,17.084-6.45117,8.29,0,11.97949,2.70605,17.08594,6.45117C344.34863,450.70508,351.56836,456,365.0957,456s20.74707-5.29492,26.54785-9.54883C396.751,442.70605,400.44141,440,408.73145,440s11.97949,2.70605,17.08593,6.45117C431.61914,450.70508,438.83887,456,452.36719,456c13.52734,0,20.74707-5.29492,26.54785-9.54883C484.02148,442.70605,487.71094,440,496,440V424C482.47266,424,475.25293,429.29492,469.45215,433.54883ZM192,40a8.00917,8.00917,0,0,1,8-8H312a8.00917,8.00917,0,0,1,8,8v80a8.00917,8.00917,0,0,1-8,8H276.68652L256,148.68652,235.31348,128H200a8.00917,8.00917,0,0,1-8-8ZM104,176H232V160H128V80h48v40a24.0275,24.0275,0,0,0,24,24h28.68652L256,171.31348,283.31348,144H312a24.0275,24.0275,0,0,0,24-24V80h48v80H280v16H408V290.31445L256,263.87988,104,290.31445ZM321.46094,424c-13.52735,0-20.7461,5.29492-26.54688,9.54883C289.80762,437.294,286.11914,440,277.83105,440c-8.29,0-11.98046-2.70605-17.08789-6.45117C254.94238,429.29492,247.72266,424,234.19531,424s-20.74707,5.29492-26.54785,9.54883C202.54,437.294,198.84961,440,190.55957,440c-8.291,0-11.98145-2.70605-17.08887-6.45117C167.66992,429.294,160.4502,424,146.92188,424a42.8412,42.8412,0,0,0-9.88379,1.09521A111.2427,111.2427,0,0,1,85.54,345.0166l-4.59375-34.45215L248,281.51123V408h16V281.51123l167.05371,29.05322L426.46,345.0166a112.47929,112.47929,0,0,1-74.752,91.14551c-1.207-.78711-2.40723-1.6665-3.69824-2.61328C342.208,429.29492,334.98828,424,321.46094,424Z"></path><rect x="214.26408" y="71.99971" width="75.47185" height="16.00059" transform="translate(50.6004 251.29566) rotate(-57.99462)"></rect><rect x="224" y="48" width="16" height="16"></rect><rect x="264" y="96" width="16" height="16"></rect><rect x="128" y="192" width="16" height="80"></rect><rect x="168" y="192" width="16" height="72"></rect><rect x="208" y="192" width="16" height="64"></rect><rect x="248" y="192" width="16" height="56"></rect><rect x="315.99995" y="283.12182" width="16.0001" height="73.75636" transform="translate(-58.66533 566.86686) rotate(-77.47119)"></rect><rect x="295.99995" y="339.16534" width="16.0001" height="32.78065" transform="translate(-109.03712 575.18301) rotate(-77.47082)"></rect><rect x="368" y="192" width="16" height="80"></rect><rect x="328" y="192" width="16" height="72"></rect><rect x="288" y="192" width="16" height="64"></rect><rect x="352" y="96" width="16" height="48"></rect><rect x="144" y="96" width="16" height="48"></rect></svg>