<svg height='100px' width='100px'  fill="#000000" xmlns="http://www.w3.org/2000/svg" xmlns:xlink="http://www.w3.org/1999/xlink" version="1.1" x="0px" y="0px" viewBox="0 0 100 100" style="enable-background:new 0 0 100 100;" xml:space="preserve"><g><path d="M84.7,40.8h-4.1v-4.7c0-0.8-0.7-1.5-1.5-1.5H69.1c-0.8,0-1.5,0.7-1.5,1.5v12.4H32.4V36.1c0-0.8-0.7-1.5-1.5-1.5H20.8   c-0.8,0-1.5,0.7-1.5,1.5v4.7h-4.1c-0.8,0-1.5,0.7-1.5,1.5v15.4c0,0.8,0.7,1.5,1.5,1.5h4.1v4.7c0,0.8,0.7,1.5,1.5,1.5h10.1   c0.8,0,1.5-0.7,1.5-1.5V51.5h35.1v12.4c0,0.8,0.7,1.5,1.5,1.5h10.1c0.8,0,1.5-0.7,1.5-1.5v-4.7h4.1c0.8,0,1.5-0.7,1.5-1.5V42.3   C86.2,41.5,85.6,40.8,84.7,40.8z M16.8,56.2V43.8h2.6v12.4H16.8z M29.4,62.4h-7.1v-4.7V42.3v-4.7h7.1V62.4z M77.7,62.4h-7.1V37.6   h7.1v4.7v15.4V62.4z M83.2,56.2h-2.6V43.8h2.6V56.2z"></path></g></svg>