<svg height='100px' width='100px'  fill="#000000" xmlns="http://www.w3.org/2000/svg" xmlns:xlink="http://www.w3.org/1999/xlink" version="1.1" x="0px" y="0px" viewBox="-55 147 500 500" style="enable-background:new -55 147 500 500;" xml:space="preserve"><path d="M164.3,526.4H27.8c-7.5,0-13.5,6.1-13.5,13.6s6.1,13.6,13.5,13.6h136.5c7.5,0,13.5-6.1,13.5-13.6S171.8,526.4,164.3,526.4z"></path><path d="M14.3,504.4c0,7.5,6.1,13.6,13.5,13.6h136.5c7.5,0,13.5-6.1,13.5-13.6s-6.1-13.6-13.5-13.6H27.8  C20.3,490.8,14.3,496.9,14.3,504.4z"></path><path d="M431.5,619.9h-83.8v-30.7h83.8c4.7,0,9.1-2.5,11.6-6.5s2.6-9.1,0.5-13.3l-48.3-94.2h36.2c4.7,0,9.1-2.5,11.6-6.5  c2.5-4.1,2.6-9.1,0.4-13.3l-49.2-94.1h37.2c5.1,0,9.7-2.9,12.1-7.4c2.3-4.5,1.9-10-1.1-14.1l-97.3-135c-2.5-3.5-6.6-5.6-11-5.6  c-4.3,0-8.4,2.1-11,5.6l-97.3,135c-3,4.1-3.4,9.6-1.1,14.1s7,7.4,12.1,7.4h37.4l-49.4,94.1c-2.2,4.2-2.1,9.3,0.4,13.3  c2.5,4.1,6.9,6.6,11.6,6.6h37.4l-49.4,94.1c-2.2,4.2-2.1,9.3,0.4,13.3c2.5,4.1,6.9,6.6,11.6,6.6h83.8V620H177.8v-30.6H194  c7.5,0,13.5-6.1,13.5-13.6s-6.1-13.6-13.5-13.6H-2c-7.5,0-13.5,6.1-13.5,13.6s6.1,13.6,13.5,13.6h16.2V620h-55.7  c-7.5,0-13.5,6.1-13.5,13.6s6.1,13.4,13.5,13.4h472.9c7.5,0,13.5-6.1,13.5-13.6S438.9,619.9,431.5,619.9z M308.7,468  c2.2-4.2,2.1-9.3-0.4-13.3c-2.5-4.1-6.9-6.6-11.6-6.6h-37.4l49.4-94.1c2.2-4.2,2.1-9.3-0.4-13.3s-6.9-6.6-11.6-6.6h-33.4l70.8-98.3  l70.8,98.3h-33.1c-4.7,0-9.1,2.5-11.6,6.5c-2.5,4.1-2.6,9.1-0.4,13.3L409,448h-36c-4.7,0-9.1,2.5-11.6,6.5s-2.6,9.1-0.5,13.3  l48.3,94.2h-150L308.7,468z M41.4,589.2h109.4v30.6H41.4V589.2z"></path><path d="M-41.5,262.9h29.8c1.5,6.6,4.1,12.9,7.7,18.5l-21.1,21.1c-5.3,5.3-5.3,13.9,0,19.2c2.6,2.7,6.1,4,9.6,4s6.9-1.3,9.6-4  l21.1-21.1c5.6,3.5,11.8,6.1,18.4,7.7V338c0,7.5,6.1,13.6,13.5,13.6s13.5-6.1,13.5-13.6v-29.8c6.6-1.5,12.8-4.1,18.4-7.7l21.1,21.1  c2.6,2.7,6.1,4,9.6,4s6.9-1.3,9.6-4c5.3-5.3,5.3-13.9,0-19.2l-21.1-21.1c3.5-5.6,6.1-11.8,7.7-18.5h29.8c7.5,0,13.5-6.1,13.5-13.6  s-6.1-13.6-13.5-13.6h-29.8c-1.5-6.6-4.1-12.9-7.7-18.5l21.1-21.1c5.3-5.3,5.3-13.9,0-19.2s-13.9-5.3-19.2,0L79,197.9  c-5.6-3.5-11.8-6.1-18.4-7.7v-29.6c0-7.5-6.1-13.6-13.5-13.6s-13.6,6.1-13.6,13.6v29.8c-6.6,1.5-12.8,4.1-18.4,7.7l-21-21.1  c-5.3-5.3-13.9-5.3-19.2,0s-5.3,13.9,0,19.2L-4,217.3c-3.5,5.6-6.1,11.8-7.7,18.5h-29.8c-7.4-0.1-13.5,6-13.5,13.5  C-55,256.8-48.9,262.9-41.5,262.9z M47.1,216c18.3,0,33.2,14.9,33.2,33.3s-14.9,33.3-33.2,33.3s-33.2-14.9-33.2-33.3  S28.8,216,47.1,216z"></path></svg>