<svg height='100px' width='100px'  fill="#000000" xmlns="http://www.w3.org/2000/svg" xmlns:xlink="http://www.w3.org/1999/xlink" version="1.1" x="0px" y="0px" viewBox="0 0 100 100" enable-background="new 0 0 100 100" xml:space="preserve"><g><g><path fill="none" stroke="#000000" stroke-width="0.75" stroke-linecap="round" stroke-linejoin="round" stroke-miterlimit="10" d="    M41.875,90.375c1.629-0.386,1.956-1.153,2.128-2.597c0.16-1.344,0.846-2.318,1.503-3.627c1.253-2.496,1.861-5.02,1.744-7.894    c-0.13-3.194-1.248-5.761-2.594-8.631c-0.242-0.516-0.786-1.254-0.541-1.86c0.211-0.521,0.9-0.487,1.109-0.916    c0.178-0.365,0.153-1.557,0.157-1.954c0.006-0.562-0.552-1.522-0.524-1.768c0.042-0.38,0.847-1.228,1.021-1.593    c0.298-0.629,0.448-1.388,0.65-2.057c0.286-0.947,0.753-1.889,0.976-2.859c0.161-0.704,0.013-1.236,0.141-1.975    c2.241,0.283,1.02-1.794,1.973-2.8c0.42-0.444,1.505-0.501,1.989-0.848c0.705-0.505,1.231-1.585,1.766-2.265    c1.491,0.942-1.356,3.776,0.028,5.249c2.025-0.144,2.18-3.722,2.378-5.228c0.188-1.425,0.238-2.444,2-2.38    c0.736,0.027,2.267,0.792,2.078-0.854c-1.1,0.184-1.852-1.172-1.392-1.997c0.111-0.199,0.873-0.688,1.066-0.897    c0.512-0.552,0.146-0.806,1.104-1.128c1.502-0.505,1.055,0.525,1.991,1.137c-0.102-0.066,1.328,0.243,1.373,0.247    c0.566,0.06,1.16-0.081,1.725-0.005c1.991,0.267,0.47,1.446,1.75,2.1c0.388,0.198,0.986,0.014,1.396,0.182    c0.5,0.205,0.768,0.659,1.257,0.874c1.167,0.515,2.235-0.054,3.25,0.962c0.846,0.848,1.347,2.301,1.744,3.354    c-0.767,0.27-2.028-0.376-2.122,0.9c-0.057,0.781,1.026,1.745,1.155,2.762c0.166,1.313,0.21,2.776,0.194,4.113    c-0.019,1.507-0.383,1.279-1.194,2.159c-0.654,0.71-0.711,1.52-1.153,2.434c-0.598,1.238-0.913,0.69-1.878,1.653    c-0.576,0.574-1.212,1.946-1.25,2.756c-0.053,1.124,0.657,1.38,1.028,2.369c1.533-0.744,4.492-2.565,4.879-4.359    c0.119,0.089,0.349,0.156,0.456,0.23c-0.068-1.068,0.922-1.08,1.631-1.393c1.284-0.567,1.275-0.678,2.509,0.125    c1.267,0.824,1.589,1.124,1.5,2.787c-0.077,1.432,0.076,2.313,0.594,3.685c0.48,1.272,0.797,2.536,1.277,3.828    c0.704,1.895,0.423,2.789-0.124,4.451c-0.266,0.806,0.169,2.334-0.4,3.033c-0.854,1.049-1.153-0.045-1.116-0.987    c-1.276-0.133-0.989,1.332-1.35,1.981c-0.276,0.496-0.853,0.5-1.14,1c-0.228,0.396-0.121,1.02-0.135,1.481    c-2.07,0.269-1.212,2.286-2.103,3.672c-1.008,1.568-2.033,2.465-2.272,4.328c-2.479,0.141-4.913,0.635-7.356,0.769    c-1.372,0.075-6.288,0.773-6.095-1.277L41.875,90.375z"></path><path fill="none" stroke="#000000" stroke-width="0.75" stroke-linecap="round" stroke-linejoin="round" stroke-miterlimit="10" d="    M13.006,26.284c0.312-0.078,1.264-0.314,1.625-0.497c0.423-0.213,0.633-0.984,1.119-1.261c0.601-0.343,1.09-0.186,1.753-0.272    c1.38-0.181,2.956,0.115,4.018-0.744c0.587-0.475,0.84-1.378,1.604-1.643c0.465-0.161,1.065,0.126,1.525-0.07    c0.878-0.374,1.921-1.812,2.628-2.515c0.9-0.895,1.803-1.81,2.994-2.284c0.715-0.285,4.254-1.121,4.882-0.283    c0.68,0.907-1.719,1.073-2.28,1.655c-0.414,0.43-0.453,1.106-0.742,1.534c-0.45,0.669-1.257,1.105-1.771,1.729    c-0.403,0.489-2.338,2.547-1.712,3.121c0.56,0.514,0.951-0.254,1.343-0.5c0.792-0.496,0.664-0.482,1.5-0.497    c1.993-0.034,2.539,0.482,4.01,1.625c1.377,1.071,1.178,2.783,2.253,3.993c1.115,1.254,1.561,0.001,2.737-0.127    c0.923-0.101,1.007,0.572,1.787,0.789c0.633,0.176,1.304-0.094,1.872-0.195c0.618-0.11,0.655,0.146,1.253-0.183    c0.558-0.306,0.874-0.986,1.497-1.283c1.152-0.549,3.113-1.265,4.322-1.253c1.418,0.014,2.649,0.612,4.056,0.347    c1.917-0.362,2.866-1.614,4.615-0.475c-0.444,0.368-0.98,1.254-0.899,1.881c0.132,1.02,0.452,0.746,1.253,1    c0.543,0.172,1.081,0.364,1.625,0.506c0.148,0.039,0.745,0.104,0.869,0.091c0.743-0.081,0.579-0.374,1.201-0.613    c0.948-0.364,2.981-0.575,3.437,0.76c0.504,1.476-1.514,1.875-1.361,3.108c1.364,0.074,1.014,0.952,1.728,1.647    c0.514,0.501,0.262,0.438,1.003,0.375c0.63-0.053,0.702-0.468,1.119-0.628c2.32-0.887,4.354,1.731,1.29,1.726    c-2.037-0.003-4.148,0.495-6.149-0.131c-0.589-0.184-1.876-1.135-2.388-1.097c-0.967,0.072-1.436,1.754-0.757,2.355    c-1.769-0.049-2.837-1.652-4.359-2.384c-0.687-0.331-1.854-0.757-2.555-0.481c-0.862,0.339-1.4,1.348-2.334,1.722    c-0.708-1.278-2.34,0.112-3.363,0.171c-0.879,0.051-0.849-0.418-1.656,0.126c-0.761,0.514-0.333,0.727-0.754,1.34    c-0.364,0.531-1.867,2.297-2.597,2.006c-1.058-0.422,0.603-1.825,0.609-2.574c-0.504-0.319-1.036-0.135-1.474,0.252    c-0.429,0.379-0.306,1.029-0.595,1.259c-0.119,0.095-1.552,0.4-1.664,0.356c-0.387-0.15-0.471-0.851-0.873-1.159    c-0.647,0.524-0.874,1.763-1.274,2.537c-0.622,1.201-1.025,2.478-1.7,3.6c-0.549,0.914-1.234,2.474-2.65,2.006    c-1.535-0.507-0.549-1.907,0.137-2.753c-0.267-0.7-0.973-0.5-1.618-0.519c-0.064-1.215,0.565-2.636,0.359-3.734    c-0.292-1.555-1.72-0.643-2.481-1.507c-0.349-0.396-0.23-1.251-0.674-1.74c-0.491-0.541-1.169-0.732-1.826-0.902    c-1.292-0.334-2.627-0.398-3.868-1.132c-2.351-1.391-4.854-1.782-7.434-2.562c-0.853-0.258-2.399-0.566-3.07-1.178    c-0.694-0.632-0.913-1.914-1.519-2.625c-0.479-0.562-1.29-0.267-1.256-1.225L13.006,26.284z"></path><path fill="none" stroke="#000000" stroke-width="0.75" stroke-linecap="round" stroke-linejoin="round" stroke-miterlimit="10" d="    M22.5,11.5c-0.518-1.641,1.238-2.136,2.5-2.719c1.298-0.6,3.042-2.136,4.48-1.887c-0.166,1.854-1.996,2.143-3.327,2.856    c-0.725,0.389-0.903,0.925-1.553,1.344c-0.638,0.411-1.381,0.175-1.975,0.531"></path></g></g></svg>