<svg height='100px' width='100px'  fill="#000000" xmlns="http://www.w3.org/2000/svg" xmlns:xlink="http://www.w3.org/1999/xlink" version="1.1" x="0px" y="0px" viewBox="0 0 66 66" enable-background="new 0 0 66 66" xml:space="preserve"><g><g><path d="M43.9,25.4c-0.7,0.4-1.3,0.9-1.8,1.5c-1.6,2.2-1.3,5.4-1.2,6.4c-0.4,0.5-0.9,1-1.4,1.4c-2,1.8-4.2,2.8-6.6,3.1    c-2.4-0.3-4.7-1.4-6.6-3.1c-0.5-0.4-0.9-0.9-1.4-1.4c0.1-0.9,0.4-4.2-1.1-6.4c-0.5-0.7-1.1-1.2-1.8-1.5c0.8-1.5,1.2-3.8-0.2-5.9    c1.3-0.6,2.6-1.8,3-3.8c3.1,0.8,6.2,0.2,8.1-2.3c2,2.6,5,3.1,8.1,2.3c0.3,2,1.7,3.2,3,3.8C42.7,21.6,43.1,23.9,43.9,25.4z"></path></g><g><path d="M50.8,28.2c0,0,1.3,3.3,0.3,5.4c-0.4,0.8-1,1.4-2.1,1.7c0,0-1.1,0.4-2.3,0.4c-1.9,0-3.1-0.8-3.8-2.5c0-0.3-0.2-1.7,0-3    c0.5-2.8,2.1-3,2.6-3.1c0.8-0.1,1.1-1,0.6-1.6c-0.3-0.3-2.4-3.1,0.3-5.6c0.6-0.6,0.3-1.6-0.5-1.7c-0.1,0-3.2-0.6-2.9-3.6    c0.1-0.7-0.7-1.3-1.4-1c0,0-1.4,0.6-3.1,0.6c-2.1,0-3.7-1-4.7-3c-0.3-0.7-1.5-0.7-1.8,0c-2.3,4.8-7.7,2.4-7.8,2.4    c-0.7-0.3-1.5,0.2-1.4,1c0.2,2.9-2.6,3.5-2.9,3.6c-0.8,0.1-1.1,1.1-0.5,1.7c2.6,2.5,0.5,5.3,0.3,5.6c-0.5,0.6-0.2,1.5,0.6,1.6    c0.5,0.1,2.2,0.4,2.6,3.1c0.2,1.4,0.1,2.7,0,3c-0.7,1.7-1.9,2.5-3.8,2.5c-1.6,0-3.7-0.6-4.4-2.1c-1-2.2,0.3-5.4,0.3-5.4    c0.6-1.5-2.7-2.3-2.6-5.8c0.2-3.6,3.6-4.2,2.8-5.7c-1-1.8-1.2-3.4-0.6-4.7c1.2-2.5,5.3-3.3,5.3-3.3c0.4-0.1,0.6-0.3,0.8-0.6    c2.2-6,6.8-7,11.6-4.6c0.3,0.2,0.7,0.2,1,0c4.8-2.4,9.4-1.3,11.5,4.6c0.1,0.3,0.4,0.6,0.8,0.6C46.9,9,50,9.9,51.1,12    c0.6,1.3,0.4,2.8-0.5,4.7c-0.2,0.4-0.1,1,0.3,1.3c0,0,2.4,1.8,2.6,4.4c0.1,1.6-0.7,3.1-2.3,4.7C50.7,27.3,50.6,27.8,50.8,28.2z"></path></g><g><g><path d="M14.3,47.4l14.4,12.5l-0.8,3.8H4.7c-0.6,0-1.1-0.6-1-1.2c1.5-8.1,5.7-13.1,5.8-13.2C10.2,48.6,11.9,47.9,14.3,47.4z"></path></g><g><path d="M28.3,52.5l1.7,1.5l-0.8,3.6L16.9,46.9c1.7-0.2,2.3-0.2,3.4-0.4L28.3,52.5z"></path></g><g><path d="M22.9,45.8c1.6-0.7,1.8-0.9,3-1.6l5.6,2.5l-2.7,3.5L22.9,45.8z"></path></g><g><polygon points="33,48 35.7,51.5 33,53.9 30.3,51.5    "></polygon></g><g><path d="M34.3,55.5l1.7,8.2h-6l1.8-8.2c0.3,0.2,1.1,1.3,1.9,0.5L34.3,55.5z"></path></g><g><path d="M39.2,37.6v4.9L33,45.2l-6.3-2.8v-4.8c1.8,1.2,3.8,2,5.9,2.2l0.3,0l0.3,0C35.4,39.6,37.4,38.8,39.2,37.6z"></path></g><g><path d="M34.6,46.7l5.6-2.5c0.8,0.4,1.4,1,3,1.6l-5.9,4.4L34.6,46.7z"></path></g><g><path d="M49,46.9L36.8,57.5L36,54l1.7-1.5l7.9-6C47.4,46.8,46.9,46.7,49,46.9z"></path></g><g><path d="M61.3,63.7H38.1l-0.8-3.9l14.4-12.4c2.5,0.5,4.2,1.2,4.9,2c0,0.1,4.3,5.1,5.8,13.2C62.4,63.1,62,63.7,61.3,63.7z"></path></g></g></g></svg>