<svg height='100px' width='100px'  fill="#000000" xmlns:x="http://ns.adobe.com/Extensibility/1.0/" xmlns:i="http://ns.adobe.com/AdobeIllustrator/10.0/" xmlns:graph="http://ns.adobe.com/Graphs/1.0/" xmlns="http://www.w3.org/2000/svg" xmlns:xlink="http://www.w3.org/1999/xlink" version="1.1" x="0px" y="0px" viewBox="0 0 100 100" style="enable-background:new 0 0 100 100;" xml:space="preserve"><g><g i:extraneous="self"><path d="M95.9,17.8c0.9,0,1.6-0.7,1.6-1.6v-5.4c0-0.9-0.7-1.6-1.6-1.6H4.1c-0.9,0-1.6,0.7-1.6,1.6v5.4c0,0.9,0.7,1.6,1.6,1.6h7.7    v64.3H4.1c-0.9,0-1.6,0.7-1.6,1.6v5.4c0,0.9,0.7,1.6,1.6,1.6h91.7c0.9,0,1.6-0.7,1.6-1.6v-5.4c0-0.9-0.7-1.6-1.6-1.6h-7.7V17.8    H95.9z M64.8,82.2H52.9V17.8h11.9V82.2z M47.1,82.2H35.2V17.8h11.9V82.2z M17.6,17.8h11.9v64.3H17.6V17.8z M70.5,82.2V58.8h11.9    v23.3H70.5z M78.8,54.3c0.1,0.3-0.1,0.7-0.5,0.7h-3.8c-0.4,0-0.6-0.4-0.5-0.7l1.6-4.1c-1.1-0.3-1.9-1.3-1.9-2.6    c0-1.5,1.2-2.7,2.7-2.7s2.7,1.2,2.7,2.7c0,1.2-0.8,2.2-1.9,2.6L78.8,54.3z M82.4,41.2H70.5V17.8h11.9V41.2z"></path></g></g></svg>