<svg height='100px' width='100px'  fill="#000000" xmlns="http://www.w3.org/2000/svg" xmlns:xlink="http://www.w3.org/1999/xlink" viewBox="0 0 100 100" version="1.1" xml:space="preserve" x="0px" y="0px"><g><path d="M 47.2124 68.0115 C 47.2393 68.0186 24.5997 61.074 24.5997 61.074 C 20.3218 59.9495 16.1276 62.4669 16.1276 62.4669 C 16.1276 62.4669 7.2272 67.2987 6.987 67.439 C 5.2151 68.4741 5.0081 69.5344 5.0081 72.3289 C 5.0081 72.5119 5 82.3553 5 82.3553 C 5 85.2571 6.4327 85.8938 8.6488 84.9419 L 14.189 82.1434 C 16.9942 80.5413 20.0802 81.4266 20.0802 81.4266 L 40.2647 86.7844 C 43.1357 87.5465 45.7713 86.0434 45.7713 86.0434 L 72.6132 70.7363 C 72.5221 70.7882 77.0459 68.1183 74.6911 64.1472 C 72.0602 59.7106 67.5146 62.1251 67.5146 62.1251 L 51.6854 71.0223 C 51.9249 73.2191 50.9932 75.4093 49.373 76.4778 C 47.4363 77.755 44.9713 77.1919 44.3256 77.0213 C 38.7047 75.6502 33.0411 74.0405 27.3959 72.6061 C 27.0743 72.5211 26.6849 72.475 26.4419 72.5242 C 25.3916 72.5871 24.2374 73.2465 23.4121 73.5389 C 23.0048 73.7716 22.6625 73.3407 22.5841 73.2065 C 22.1137 72.4016 23.1136 72.0987 23.3173 71.9823 C 24.4712 71.3231 25.3824 70.713 27.086 70.9926 C 33.2057 72.154 39.4275 74.2505 45.6152 75.6565 C 50.4794 76.9404 51.9759 69.2643 47.2124 68.0115 ZM 31.8321 51.7733 C 31.8321 56.8435 35.9523 60.9536 41.035 60.9536 C 46.1177 60.9536 50.2379 56.8435 50.2379 51.7733 C 50.2379 46.703 46.1177 42.5929 41.035 42.5929 C 35.9523 42.5929 31.8321 46.703 31.8321 51.7733 ZM 72.7691 38.2415 C 72.7691 38.2415 74.8319 37.2459 74.8426 37.2221 L 93.1928 29.8322 C 94.53 29.0091 94.9066 28.1406 95 26.3741 L 95 15.4383 C 94.7729 13.2461 93.4826 12.7602 91.5712 13.5194 L 86.7656 15.2196 C 83.9205 16.1869 81.2179 15.6752 81.2179 15.6752 L 58.2876 13 L 55.9014 13.2096 L 40.8339 18.1934 L 38.9598 19.2986 L 28.0621 31.1435 C 26.6753 32.7993 27.5648 35.9916 29.621 37.2573 C 31.6772 38.523 33.9841 37.7646 35.5081 36.0845 L 43.268 27.7029 C 43.8865 26.9787 44.6664 26.6568 44.6664 26.6568 L 53.4065 24.3411 C 61.8149 22.5529 65.4722 30.1438 65.4722 30.1438 L 49.5498 33.2289 C 47.2196 33.8573 45.7866 36.2609 46.349 38.5975 C 46.349 38.5975 47.8304 42.6271 51.5867 41.6903 L 70.3863 38.6294 L 72.7691 38.2415 Z" fill="#000000"></path></g></svg>