<svg height='100px' width='100px'  fill="#000000" xmlns="http://www.w3.org/2000/svg" xmlns:xlink="http://www.w3.org/1999/xlink" version="1.1" x="0px" y="0px" viewBox="0 0 64 64" style="enable-background:new 0 0 64 64;" xml:space="preserve"><g><path d="M5.493,24.571c1.026,2.594,3.553,4.437,6.507,4.437s5.481-1.843,6.507-4.437l0.661,0.991l1.664-1.109l-2.555-3.832   l-3.832,2.555l1.109,1.664l0.893-0.595c-0.68,1.344-1.931,2.353-3.447,2.662v-9.899h4v-2h-4v-2.101c2.279-0.465,4-2.484,4-4.899   c0-2.757-2.243-5-5-5s-5,2.243-5,5c0,2.414,1.721,4.434,4,4.899v2.101H7v2h4v9.899c-1.517-0.309-2.768-1.318-3.447-2.662   l0.893,0.595l1.109-1.664l-3.832-2.555l-2.555,3.832l1.664,1.109L5.493,24.571z M9,8.007c0-1.654,1.346-3,3-3s3,1.346,3,3   c0,1.302-0.839,2.402-2,2.816V9.007h-2v1.816C9.839,10.409,9,9.309,9,8.007z"></path><rect x="18" y="31.007" width="10" height="2"></rect><rect x="48" y="30.007" width="6" height="3"></rect><rect x="44" y="26.007" width="14" height="2"></rect><path d="M54,24.007h2v-6h-4v-5c0-0.552-0.448-1-1-1s-1,0.448-1,1v5h-4v6h2H54z"></path><path d="M57,35.007H44.386c-0.414,0-0.79,0.261-0.936,0.648l-2.007,5.352H57V35.007z M47,39.007h-2v-2h2V39.007z M51,39.007h-2v-2   h2V39.007z M55,39.007h-2v-2h2V39.007z"></path><path d="M59.913,47.007l1.052-4H3.034l1.052,4H53v2H4.613l1,3.799c1.271,4.829,5.646,8.201,10.639,8.201h31.498   c4.992,0,9.367-3.372,10.639-8.201l1-3.799H55v-2H59.913z M7.547,52.298l1.934-0.51c0.159,0.603,0.397,1.181,0.708,1.719l-1.732,1   C8.057,53.815,7.751,53.072,7.547,52.298z M21.142,59.007h-4.891c-2.403,0-4.749-0.987-6.435-2.709l1.43-1.398   c1.331,1.358,3.108,2.107,5.005,2.107h4.891V59.007z"></path><path d="M12.45,35.656l-2.007,5.352h25.113l-2.007-5.351c-0.146-0.389-0.521-0.649-0.936-0.649H13.386   C12.972,35.007,12.596,35.268,12.45,35.656z M28,37.007h2v2h-2V37.007z M22,37.007h2v2h-2V37.007z M16,37.007h2v2h-2V37.007z"></path></g></svg>