<svg height='100px' width='100px'  fill="#000000" xmlns="http://www.w3.org/2000/svg" data-name="Layer 1" viewBox="0 0 512 512" x="0px" y="0px"><title>Location</title><g data-name="Group"><path data-name="Compound Path" d="M256,9.677c-116.861,0-211.935,91.049-211.935,202.964,0,35.921,11.075,73.539,32.916,111.811,17.262,30.246,41.273,61,71.366,91.4,51.023,51.547,101.232,83.863,103.344,85.213a8,8,0,0,0,8.618,0c2.112-1.35,52.321-33.666,103.344-85.213,30.093-30.4,54.1-61.152,71.366-91.4,21.841-38.272,32.916-75.89,32.916-111.811C467.935,100.726,372.861,9.677,256,9.677Zm165.2,306.7c-16.533,29-39.647,58.609-68.7,87.994A677.694,677.694,0,0,1,256,484.72a677.694,677.694,0,0,1-96.5-80.347c-29.056-29.385-52.17-58.991-68.7-87.994C70.4,280.6,60.065,245.7,60.065,212.641c0-103.092,87.9-186.964,195.935-186.964s195.935,83.872,195.935,186.964C451.935,245.7,441.6,280.6,421.2,316.379Z"></path><path data-name="Compound Path" d="M256,61.121c-86.511,0-156.893,70.382-156.893,156.893S169.489,374.907,256,374.907s156.893-70.382,156.893-156.893S342.511,61.121,256,61.121Zm0,297.786c-77.688,0-140.893-63.2-140.893-140.893S178.312,77.121,256,77.121s140.893,63.205,140.893,140.893S333.688,358.907,256,358.907Z"></path><path data-name="Compound Path" d="M343.645,143.044c-.055-.134-.11-.267-.172-.4s-.118-.233-.18-.348-.121-.226-.187-.336-.147-.234-.223-.348-.137-.2-.21-.3-.165-.215-.252-.319-.162-.2-.247-.29-.174-.184-.263-.273-.195-.193-.3-.285c-.086-.078-.175-.152-.264-.226-.113-.094-.227-.185-.346-.273-.089-.065-.179-.127-.271-.189-.123-.083-.248-.165-.377-.243-.1-.058-.2-.113-.3-.167-.126-.068-.252-.136-.383-.2s-.237-.1-.357-.153c-.089-.038-.175-.082-.267-.116-.034-.013-.068-.02-.1-.032-.116-.041-.233-.076-.35-.112A7.975,7.975,0,0,0,336,138H277.119a21.913,21.913,0,0,0-42.238,0H176a7.963,7.963,0,0,0-2.59.437c-.121.037-.243.073-.363.116-.032.011-.064.018-.095.03-.086.032-.166.073-.25.108-.128.053-.256.1-.38.164s-.245.123-.365.188-.214.115-.318.178c-.125.074-.244.153-.363.233-.1.065-.192.13-.285.2-.115.084-.225.173-.335.263-.092.077-.184.154-.274.235s-.194.183-.288.277-.183.185-.271.281-.162.187-.241.283-.174.214-.257.325-.139.2-.206.295c-.077.116-.154.232-.226.352s-.125.221-.185.333-.125.231-.181.35-.117.263-.171.4c-.033.081-.073.157-.1.24l-29.59,79.324a7.989,7.989,0,0,0-4.007,6.925c0,22.146,16.9,37.613,41.093,37.613,24.335,0,41.332-15.467,41.332-37.613a8,8,0,0,0-4.309-7.093L187.241,154h49.342A22.04,22.04,0,0,0,248,164.25V277H234.934a8,8,0,1,0,0,16h42.132a8,8,0,1,0,0-16H264V164.25A22.04,22.04,0,0,0,275.417,154h49.342l-25.53,68.439a8,8,0,0,0-4.309,7.093c0,22.146,16.9,37.613,41.094,37.613,24.335,0,41.331-15.467,41.331-37.613a7.989,7.989,0,0,0-4.007-6.925l-29.59-79.324C343.717,143.2,343.677,143.124,343.645,143.044Zm-167.9,108.569C162,251.613,154.833,245,152.053,238h47.54C196.736,245,189.51,251.613,175.748,251.613ZM195.356,222H156.14l19.608-52.564ZM256,149.769a5.918,5.918,0,1,1,5.918-5.918A5.925,5.925,0,0,1,256,149.769Zm80.014,101.844c-13.744,0-20.916-6.613-23.7-13.613h47.54C357,245,349.775,251.613,336.014,251.613ZM316.644,222l19.608-52.564L355.86,222Z"></path></g></svg>