<svg height='100px' width='100px'  fill="#000000" xmlns="http://www.w3.org/2000/svg" xmlns:xlink="http://www.w3.org/1999/xlink" version="1.1" x="0px" y="0px" viewBox="0 0 100 100" enable-background="new 0 0 100 100" xml:space="preserve"><g display="none"><polygon display="inline" opacity="0.3" fill-rule="evenodd" clip-rule="evenodd" points="24.451,12.343 74.956,11.961    74.906,12.318 74.812,12.703 75.035,13.021 74.922,13.244 75.082,13.437 75.063,13.612 75.24,13.849 75.524,15.021 76.331,15.994    76.323,16.399 76.118,16.407 76.007,16.131 75.674,15.727 75.532,15.86 75.645,16.636 76.665,19.672 76.891,21.334 76.641,22.9    77.217,24.717 77.977,26.16 78.681,26.318 80.535,27.564 80.535,28.363 81.397,28.397 82.322,28.876 82.322,29.452 82.604,29.452    82.043,30.304 81.352,30.682 80.64,30.813 80.327,31.405 79.38,31.313 78.873,31.739 78.04,31.923 77.977,32.352 78.161,32.759    78.058,33.227 76.941,33.227 76.452,33.532 76.452,34.389 76.047,35.367 76.434,35.63 76.657,35.998 76.352,36.424 75.863,37.73    75.516,39.847 74.846,40.885 74.785,41.579 74.338,42.068 74.278,43.086 74.785,44.857 74.969,45.715 75.174,45.801 74.953,46.104    74.488,47.399 74.488,48.843 73.342,50.799 72.879,52.143 72.511,52.095 71.707,52.266 71.585,53 70.56,54.685 70.537,55.345    69.34,56.201 68.828,57.521 67.997,60.676 67.534,60.529 67.167,60.576 67.019,61.139 66.117,62.24 65.799,63.118 66.094,63.607    66.117,64.512 65.434,65.587 65.116,66.762 65.213,68.424 65.068,70.403 64.506,70.845 64.238,71.308 63.725,71.21 63.286,70.893    62.481,71.09 61.553,70.893 61.503,71.82 61.088,72.064 60.431,72.995 60.725,73.558 61.48,73.826 63.239,73.803 63.651,74.314    64.409,75.072 64.556,75.658 64.848,75.855 65.678,77.322 66.436,77.664 66.409,78.006 66.727,78.324 67.534,78.324 68.047,78.984    68.386,79.644 69.096,80.401 69.291,81.965 69.706,82.454 69.977,83.935 68.56,85.52 67.513,87.11 67.095,86.947 66.312,87.709    65.904,88.262 65.581,88.393 65.092,89.045 65.092,89.051 64.077,89.713 63.588,90.401 62.655,90.849 61.682,90.564 60.179,90.646    59.245,91.054 58.557,91.054 58.23,91.214 57.702,91.093 57.176,91.579 57.176,92.271 56.687,92.271 55.714,91.945 55.633,91.295    54.86,91.093 54.211,91.295 53.114,90.891 52.302,90.564 51.776,91.054 51.734,91.661 51.929,92.014 51.855,92.176 51.542,91.979    50.496,92.008 50.328,91.992 50.238,91.52 50.01,90.909 49.75,90.572 49.429,89.868 48.987,89.458 47.873,89.09 47.644,88.725    47.173,88.172 46.652,87.103 46.316,86.89 45.372,86.845 44.915,87.395 44.547,87.852 43.664,88.096 43.311,88.083 43.19,87.852    42.641,87.82 41.634,87.82 41.116,88.096 40.795,88.633 40.322,88.77 39.483,88.448 38.629,87.73 38.143,87.21 37.669,87.073    37.212,86.537 37.073,85.867 36.938,85.816 36.944,85.644 36.618,85.154 35.834,84.665 35.366,84.318 35.214,83.024 35.335,82.617    34.686,82.109 33.271,81.752 32.895,81.345 32.935,80.529 32.711,80.204 31.838,79.938 31.42,79.491 31.362,78.267 31.037,77.738    29.654,76.944 29.349,76.983 28.657,76.637 28.331,76.799 27.598,76.597 26.765,75.863 27.09,75.495 27.193,75.151 27.742,74.701    27.924,74.092 27.577,73.643 26.867,73.582 26.034,73.174 25.81,72.604 25.158,72.217 24.446,72.175 23.489,71.768 22.758,71.197    22.637,70.424 22.939,69.854 22.535,69.527 21.251,69.488 20.949,69.896 19.869,69.875 19.28,69.365 19.24,68.082 19.524,67.267    19.808,66.881 20.011,65.984 19.708,65.353 18.975,63.702 17.855,62.193 17.694,61.768 16.798,61.013 17.021,60.707 17.021,60.137    16.575,59.625 16.659,59.428 16.659,58.856 17.024,58.25 16.617,57.6 15.034,57.192 14.871,56.383 14.832,55.284 14.427,54.556    14.75,54.027 14.182,53.62 14.668,53.297 14.668,52.687 14.182,52.565 13.167,53.297 12.6,52.729 12.6,51.793 13.938,50.373    14.385,49.682 14.303,48.83 13.533,48.383 13.696,47.815 14.548,47.287 14.995,46.393 14.505,45.906 14.466,45.299 15.197,44.568    15.644,44.607 17.024,42.781 17.511,41.806 17.063,41.237 17.063,40.184 17.836,39.573 18.891,39.573 19.622,40.021 20.395,39.534    21.044,39.289 20.747,22.585 20.763,22.559 20.763,21.026 24.811,20.637  "></polygon></g><g display="none"><path display="inline" d="M31.202,46.902l0.676-0.058c0.029,0.269,0.105,0.489,0.221,0.665c0.116,0.172,0.297,0.313,0.544,0.418   c0.245,0.108,0.521,0.161,0.826,0.161c0.273,0,0.513-0.04,0.723-0.121c0.208-0.082,0.363-0.192,0.465-0.334   s0.152-0.294,0.152-0.463c0-0.168-0.047-0.315-0.147-0.441c-0.1-0.129-0.26-0.234-0.486-0.318   c-0.145-0.058-0.462-0.145-0.959-0.266c-0.494-0.118-0.844-0.229-1.041-0.336c-0.258-0.135-0.45-0.303-0.578-0.503   c-0.124-0.199-0.187-0.423-0.187-0.673c0-0.271,0.076-0.525,0.231-0.763c0.152-0.236,0.378-0.415,0.676-0.538   c0.297-0.121,0.628-0.185,0.991-0.185c0.399,0,0.751,0.066,1.059,0.195c0.305,0.129,0.539,0.317,0.705,0.567   c0.163,0.25,0.252,0.534,0.266,0.849l-0.686,0.053c-0.037-0.342-0.163-0.6-0.374-0.772c-0.213-0.174-0.525-0.261-0.941-0.261   c-0.431,0-0.747,0.079-0.944,0.237c-0.197,0.157-0.297,0.35-0.297,0.57c0,0.194,0.071,0.354,0.21,0.479   c0.137,0.126,0.497,0.255,1.075,0.386c0.581,0.132,0.981,0.245,1.196,0.345c0.313,0.145,0.547,0.329,0.697,0.55   s0.224,0.479,0.224,0.768c0,0.286-0.082,0.557-0.248,0.812c-0.166,0.252-0.399,0.449-0.709,0.592   c-0.308,0.142-0.652,0.21-1.039,0.21c-0.486,0-0.896-0.068-1.228-0.213c-0.329-0.142-0.589-0.355-0.776-0.642   C31.31,47.586,31.212,47.263,31.202,46.902L31.202,46.902z M40.014,43.24h0.715v3.118c0,0.542-0.063,0.973-0.187,1.294   c-0.121,0.318-0.345,0.575-0.665,0.775c-0.318,0.202-0.739,0.3-1.259,0.3c-0.505,0-0.918-0.084-1.238-0.261   c-0.324-0.173-0.552-0.426-0.689-0.754c-0.139-0.332-0.208-0.781-0.208-1.354V43.24h0.715v3.115c0,0.469,0.045,0.812,0.129,1.036   c0.089,0.222,0.239,0.392,0.45,0.513c0.213,0.121,0.473,0.182,0.781,0.182c0.523,0,0.899-0.121,1.123-0.357   c0.221-0.239,0.333-0.697,0.333-1.373V43.24L40.014,43.24z M41.918,48.638V43.24h1.858c0.418,0,0.739,0.027,0.959,0.079   c0.311,0.068,0.573,0.2,0.792,0.384c0.284,0.242,0.5,0.55,0.639,0.923c0.142,0.376,0.213,0.802,0.213,1.283   c0,0.41-0.047,0.772-0.145,1.089c-0.095,0.317-0.218,0.58-0.368,0.788c-0.149,0.205-0.312,0.368-0.491,0.486   c-0.176,0.121-0.392,0.21-0.644,0.273c-0.252,0.061-0.542,0.092-0.865,0.092H41.918L41.918,48.638z M42.63,47.999h1.154   c0.355,0,0.634-0.031,0.836-0.097c0.203-0.068,0.363-0.161,0.484-0.281c0.171-0.169,0.302-0.397,0.397-0.684   c0.095-0.284,0.142-0.631,0.142-1.039c0-0.564-0.092-0.999-0.279-1.301c-0.187-0.303-0.41-0.505-0.676-0.607   c-0.189-0.076-0.5-0.113-0.922-0.113H42.63V47.999L42.63,47.999z M46.768,48.638l2.074-5.397h0.768l2.208,5.397h-0.812   l-0.631-1.635H48.12l-0.592,1.635H46.768L46.768,48.638z M48.325,46.422h1.832l-0.565-1.496c-0.171-0.452-0.3-0.825-0.381-1.117   c-0.071,0.347-0.166,0.688-0.292,1.03L48.325,46.422L48.325,46.422z M52.381,48.638V43.24h0.733l2.834,4.236V43.24h0.686v5.397   h-0.733l-2.834-4.24v4.24H52.381z"></path></g><g><path fill="none" stroke="#000000" stroke-width="0.5" stroke-linecap="round" stroke-linejoin="round" stroke-miterlimit="10" d="   M20.763,21.026l4.048-0.39l-0.36-8.294L74.667,12.5c0.05-0.235,0.149-0.301,0.3-0.195c0.479,0.797,1.197,3.736,0.758,4.184   c1.637,2.166,1.525,4.484,1.767,7.013c0.18,1.886,0.642,1.417,1.846,2.369c0.812,0.643,1.49,1.553,1.358,2.617   c1.284-1.741,1.768,1.007,0.97,2.114c-0.491,0.097-1.332,0.328-1.971,0.258c-0.413,1.279-1.936,2.601-3.17,2.828   c-0.229,0.695-0.07,1.195,0.617,1.342c0.048,2.871-2.501,5.066-2.479,7.804c0.011,1.319,0.53,2.63,0.341,4   c-0.135,0.98-0.093,3.166-0.408,3.833c-0.63,1.334-2.445,0.777-3.225,1.531c-0.711,0.688-0.987,2.937-1.53,3.811   c-0.08,0.13-0.627-0.105-0.808,0.189c-0.173,0.281,0.058,0.699-0.071,1.011c-0.305,0.737-0.142,1.999-0.496,2.595   c-0.325,0.547-0.947,0.34-1.433,0.823c-0.392,0.392-0.538,1.235-0.887,1.707c1.383,0.681,0.197,1.54-0.146,2.363   c-0.502,1.205-0.551,2.167-0.667,3.479c-0.251,2.848-0.742,2.996-3.475,2.684c0.031,0.233-0.071,0.548-0.051,0.783   c-1.034-0.176-2.459,0.489-1.478,1.524c0.484,0.511,1.836,0.332,2.491,0.463c1.821,0.365,1.234,0.519,1.882,2.029   c0.432,1.006,1.289,1.515,1.667,2.514c0.122-0.14,0.304-0.279,0.427-0.449c2.509,0.095,1.606,4.027,3.174,4.806   c0.305,1.305-0.658,2.023-1.122,3.113c0.064,0.056,0.26,0.118,0.304,0.154c-1.294,0.161-4.95,3.669-4.846,5.179   c-1.126,0.266-2.066-0.555-3.345-0.312c-1.16,0.221-2.216,0.991-3.447,0.521c0.14,0.887-0.408,1.488-1.324,1.291   c0.021-0.299-0.197-0.874-0.193-0.999c-0.924,1.413-2.141-0.642-3.12-0.854c-1.494-0.323-1.208,0.715-1.58,2.032   c-2.069-0.809-2.608-3.231-4.263-4.94c-1.727-1.784-0.982-0.135-2.404,0.595c-0.665,0.342-2.435-0.223-2.93-0.624   c-1.934,1.609-4.541,1.149-5.378-1.685c-0.354-1.194,0.217-1.798-0.659-2.828c-0.906-1.066-1.843-0.695-2.2-2.324   c-1.996,0.916-1.783-2.325-2.755-3.229c-0.659-0.612-2.974-1.141-3.849-1.479c0.019-0.186-0.029-0.413-0.005-0.614   c3.044-0.802-1.591-3.103-2.524-3.653c-0.423-0.25-1.151-0.156-1.475-0.525c-0.282-0.321,0.217-1.147-0.051-1.479   c-0.769-0.951-1.875-0.51-2.142,0.413c-0.676-0.769-1.26-0.662-1.335-1.938c-0.06-1.005,0.708-1.762,0.344-3.009   c-0.304-1.04-1.873-3.674-2.816-3.862c0.125-0.83-0.236-1.475-0.199-2.138c0.073-1.295,0.653-0.791-0.169-1.657   c-0.304-0.32-0.864-0.243-1.166-0.506c-0.397-0.345-0.099-0.656-0.312-1.012c-0.354-0.589-0.336-1.283-0.996-1.613   c0.925-0.382,1.003-1.326,0.698-2.152c-0.614,0.539-0.912,1.454-1.706,1.069c-0.991-0.479-0.335-1.279,0.024-1.953   c0.542-1.019,2.422-2.662,0.163-3.204c0.096-1.205,2.217-0.108,1.779-2.108c-1.912-0.383,0.591-1.57,1.025-1.862   c0.874-0.588,1.926-1.656,1.808-2.806c-1.337-0.597-0.095-2.015,0.858-2.199c1.156-0.225,1.615,0.757,2.333-0.662L20.763,21.026z"></path></g></svg>