<svg height='100px' width='100px'  fill="#000000" xmlns="http://www.w3.org/2000/svg" viewBox="0 0 512 512" x="0px" y="0px"><title>TechnologyTransfer-knowhow-chinaandustradewar-process-knowledgetransfer</title><rect x="272" y="48" width="16" height="16"></rect><rect x="272" y="80" width="16" height="16"></rect><rect x="256" y="112" width="16" height="16"></rect><path d="M472,16H200a24.02718,24.02718,0,0,0-24,24V184h16V40a8.00917,8.00917,0,0,1,8-8H472a8.00917,8.00917,0,0,1,8,8V216a8.00917,8.00917,0,0,1-8,8H315.82147l8.48273-12.94434-23.35986-23.36035L284.34277,198.5752l-7.80078-3.23243L272.52148,176h-33.043L235.458,195.34277l-7.80078,3.23243-16.60157-10.87989L187.6958,211.05566,196.17853,224H40a24.02718,24.02718,0,0,0-24,24V472a24.02718,24.02718,0,0,0,24,24H312a24.02718,24.02718,0,0,0,24-24V352H192V320H176v32H32V248a8.00917,8.00917,0,0,1,8-8H176.04657L176,240.01074v32.50977l19.34229,4.02148,3.23291,7.80078-10.8794,16.60157,23.36035,23.35937,16.60108-10.87891,7.80078,3.23243L239.47852,336h33.043l4.02051-19.34277,7.80078-3.23243,16.60108,10.87891,23.36035-23.35937-10.8794-16.60157,3.23291-7.80078L336,272.52051V240H472a24.02718,24.02718,0,0,0,24-24V40A24.02718,24.02718,0,0,0,472,16ZM32,416V400H320v16Zm288,16v16H32V432Zm-8,48H40a8.00917,8.00917,0,0,1-8-8v-8H320v8A8.00917,8.00917,0,0,1,312,480Zm8-112v16H32V368Zm0-108.49512-14.88428,3.09375-9.71142,23.4375,8.38525,12.79492-4.959,4.959-12.79541-8.38477-23.43653,9.71094L259.50488,320h-7.00976l-3.09375-14.88379-23.43653-9.71094L213.16943,303.79l-4.959-4.959,8.38525-12.79492-9.71142-23.4375L192,259.50488v-6.76367l14.92676-3.44238,9.66894-23.335L208.21045,213.169l4.9585-4.959,12.79589,8.38672,23.43653-9.71289L252.49512,192h7.00976l3.09375,14.88379,23.436,9.71289L298.83105,208.21l4.9585,4.959-8.38525,12.79492,9.71142,23.4375L320,252.49512Z"></path><rect x="224" y="112" width="16" height="16"></rect><polygon points="224 48 224 60.9 210.53 56.41 205.47 71.59 219.534 76.277 209.344 91.563 222.656 100.438 232 86.422 241.344 100.438 254.656 91.563 244.466 76.277 258.53 71.59 253.47 56.41 240 60.9 240 48 224 48"></polygon><rect x="80" y="256" width="16" height="16"></rect><rect x="112" y="256" width="16" height="16"></rect><rect x="80" y="288" width="16" height="16"></rect><rect x="112" y="288" width="16" height="16"></rect><rect x="80" y="320" width="16" height="16"></rect><rect x="112" y="320" width="16" height="16"></rect><rect x="48" y="320" width="16" height="16"></rect><rect x="48" y="288" width="16" height="16"></rect><rect x="48" y="256" width="16" height="16"></rect><rect x="144" y="256" width="16" height="16"></rect><rect x="144" y="288" width="16" height="16"></rect><rect x="144" y="320" width="16" height="16"></rect><path d="M78.20166,164.32812l14.21484,7.34376A184.866,184.866,0,0,1,140.482,112.79736l-4.32672,21.6333,15.68946,3.13868,9.56884-47.84473-47.84472-9.56934-3.1377,15.68946,20.49628,4.09912A200.89477,200.89477,0,0,0,78.20166,164.32812Z"></path><path d="M85.37207,187.002l-14.831-6.0039a199.182,199.182,0,0,0-8.23975,25.00781l15.49512,3.98828A183.20106,183.20106,0,0,1,85.37207,187.002Z"></path><path d="M371.50952,399.24512l4.33521-21.67578-15.68946-3.13868-9.56884,47.84473,47.84472,9.56934,3.1377-15.68946-20.47931-4.0957A200.05153,200.05153,0,0,0,451.65332,297.6582L436.001,294.3418A182.63624,182.63624,0,0,1,371.50952,399.24512Z"></path><path d="M438.57617,279.00977l15.877,1.98046A202.71467,202.71467,0,0,0,456,256H440A186.62077,186.62077,0,0,1,438.57617,279.00977Z"></path><path d="M256,220.30762A35.69238,35.69238,0,1,0,291.69238,256,35.733,35.733,0,0,0,256,220.30762Zm0,55.38476A19.69238,19.69238,0,1,1,275.69238,256,19.7147,19.7147,0,0,1,256,275.69238Z"></path></svg>