<svg height='100px' width='100px'  fill="#000000" xmlns="http://www.w3.org/2000/svg" viewBox="0 0 100 100" x="0px" y="0px"><title>Eagle</title><g data-name="Iconos"><path d="M80.79,52.05a14.73,14.73,0,0,0-4.5-2.59,8.12,8.12,0,0,0-4.18-.11,18,18,0,0,0,3.3-3.71c1.86-3,1.67-6.94-.39-8.37-.6-.41-2.75-1.51-5.27,1.73s-7.58,5.16-10.19,6c-.07-.59-.14-1.2-.21-1.84-.54-4.91-1.22-11-5-16.8-5.62-8.53-23.41-14.78-24.16-15a1.52,1.52,0,0,0-1.67.49,1.49,1.49,0,0,0-.09,1.73,12.78,12.78,0,0,1,1.77,4,20.15,20.15,0,0,0-7.93-1.43,1.54,1.54,0,0,0-1.47,1.1,1.51,1.51,0,0,0,.69,1.7,22.9,22.9,0,0,1,4.84,3.69A28.61,28.61,0,0,0,15,25.47a1.5,1.5,0,0,0,.84,2.85,23.15,23.15,0,0,1,7-.13,36.75,36.75,0,0,0-8.93,4.26,1.5,1.5,0,0,0,1,2.76,22,22,0,0,1,7.76.14A16,16,0,0,0,17.83,40a1.5,1.5,0,0,0,1.65,2.29A23.47,23.47,0,0,1,26,41.21,17.27,17.27,0,0,0,21.83,47a1.53,1.53,0,0,0,.23,1.54,1.49,1.49,0,0,0,1.48.5,22.11,22.11,0,0,1,4.23-.56,11.43,11.43,0,0,0-2.15,3.09,1.5,1.5,0,0,0,1.54,2.15,17.35,17.35,0,0,1,3.35-.12,7.91,7.91,0,0,0-1.45,3.14,1.5,1.5,0,0,0,1.8,1.8A20,20,0,0,1,34.44,58,10.34,10.34,0,0,0,33.55,60a1.5,1.5,0,0,0,2.09,1.83,10.18,10.18,0,0,1,2.11-.8,5.16,5.16,0,0,0-.06,2.29,1.51,1.51,0,0,0,1.22,1.2,23,23,0,0,0,3.73.29A23.72,23.72,0,0,1,38.11,67a72.15,72.15,0,0,1-9.23,1.6c-4.55.62-7,1-8,1.51-2.49,1.36-5,9.43-5.08,13.53a2.62,2.62,0,0,0,1.26,2.51,2.93,2.93,0,0,0,1.5.37c2.3,0,5.67-1.94,10.2-4.7,1-.63,1.91-1.17,2.55-1.52a38.38,38.38,0,0,1,7.6-2.52l-3.18,3.81a4.71,4.71,0,0,0-3.39,0,1.5,1.5,0,1,0,1,2.82,3.35,3.35,0,0,1,.79-.15,1.28,1.28,0,0,1-.47,1c-1,.78-3.41.55-4.43.31a1.5,1.5,0,0,0-.69,2.92,12.63,12.63,0,0,0,2.79.31,6.79,6.79,0,0,0,4.19-1.19A4.14,4.14,0,0,0,37,85.26a46.44,46.44,0,0,0,6.83-2.07c4-1.54,9.13-5.87,13.62-9.7.91-.78,1.81-1.54,2.66-2.25a36,36,0,0,1,6.54-4.42,1.42,1.42,0,0,0,.49.42,1.47,1.47,0,0,0,.71.18,1.41,1.41,0,0,0,.63-.14c1.42-.66,8.57-4.08,10.31-6.7.42-.62,3.45-.31,6,.62A1.53,1.53,0,0,0,86.24,61a1.51,1.51,0,0,0,.59-1.31C86.45,54.45,83.74,52.86,80.79,52.05Zm-8.67-11.2a3.56,3.56,0,0,1,1.19-1.11c.38.25.83,2.24-.46,4.33-1.76,2.88-7.35,6.75-10,8.44a7.09,7.09,0,0,1-2.52-3.81c-.07-.22-.14-.46-.21-.71C62.84,47.13,69,44.85,72.12,40.85ZM58.21,68.94c-.86.71-1.76,1.48-2.69,2.27-4.3,3.67-9.18,7.82-12.74,9.18-1.11.42-2.13.77-3,1l4.32-5.18a1.5,1.5,0,0,0-1.45-2.43c-.36.07-9.06,1.82-12.72,3.8-.71.39-1.62.95-2.69,1.6-2.06,1.26-6.7,4.09-8.39,4.26.17-4.09,2.56-10.08,3.51-10.77a52.56,52.56,0,0,1,7-1.18A72.6,72.6,0,0,0,39,69.82c4.1-1.31,9.62-5.46,9.85-5.63a1.5,1.5,0,0,0-1-2.69,42.12,42.12,0,0,1-7.16.17,1.56,1.56,0,0,1,.75-.78,1.5,1.5,0,0,0-.29-2.73,7.24,7.24,0,0,0-2.59-.32A1.52,1.52,0,0,0,39,56.38a1.5,1.5,0,0,0-1.16-1.11,15.26,15.26,0,0,0-4.62-.16,4.52,4.52,0,0,1,1.54-1,1.5,1.5,0,0,0-.13-2.83,17.31,17.31,0,0,0-4.67-.72A6.91,6.91,0,0,1,32.4,49a1.49,1.49,0,0,0,1-1.41,1.51,1.51,0,0,0-1-1.4,14.12,14.12,0,0,0-6.28-.58,19.74,19.74,0,0,1,4.45-4.24A1.5,1.5,0,0,0,30,38.69a17.52,17.52,0,0,0-6.53-.33,12.42,12.42,0,0,1,4.05-1.87,1.46,1.46,0,0,0,1.07-1.43,1.55,1.55,0,0,0-1.1-1.48A32.91,32.91,0,0,0,21,32.06a47,47,0,0,1,7.32-2.26A1.51,1.51,0,0,0,28.65,27a15.13,15.13,0,0,0-3.44-1.4,14.92,14.92,0,0,1,4.16.23,1.5,1.5,0,0,0,1.55-2.29,20,20,0,0,0-3.16-3.74,7.71,7.71,0,0,1,2.95,1.57,1.49,1.49,0,0,0,2.48-.85,9.78,9.78,0,0,0-.48-5c5.41,2.23,15.46,7,19.1,12.49,3.42,5.19,4,10.89,4.56,15.47a30.31,30.31,0,0,0,1.08,6.19,11.23,11.23,0,0,0,2.67,4.5,9.73,9.73,0,0,0-1.14,1,1.5,1.5,0,0,0,1.39,2.51,16,16,0,0,1,3.24-.36h0a7.55,7.55,0,0,0-2,3.85,1.53,1.53,0,0,0,.56,1.48,1.47,1.47,0,0,0,1.56.16,10,10,0,0,1,2.95-.92,6.68,6.68,0,0,0-.39,1.81A36.48,36.48,0,0,0,58.21,68.94Zm18.11-10c-.76,1.13-4.07,3.11-7,4.62a3,3,0,0,1,1-1.86,1.52,1.52,0,0,0,.48-1.49,1.5,1.5,0,0,0-1.1-1.1,9,9,0,0,0-2.2-.27,9.89,9.89,0,0,0-1.2.07,8.67,8.67,0,0,1,1.84-1.08A1.49,1.49,0,0,0,68.06,55a11.79,11.79,0,0,0-2.14-.55c3.48-1.47,7.77-2.83,9.26-2.23a10.9,10.9,0,0,1,3.64,2.06,1.48,1.48,0,0,0,.81.53c2,.51,3.2,1.13,3.79,2.82C81,57.09,77.72,56.82,76.32,58.92Z"></path><path d="M54.51,44.4c-.2-1.95-.44-4.39-1-7.55C51.62,27,38,20.32,37.46,20a1.5,1.5,0,1,0-1.32,2.7c.13.06,12.81,6.32,14.39,14.66.57,3,.79,5.3,1,7.3.4,4,.67,6.63,3.28,10.76a2.42,2.42,0,0,1,.18.32l0,0-2.44,2.06a1.5,1.5,0,0,0,1,2.65,1.47,1.47,0,0,0,1-.36l2.39-2c1-.77,1.9-2.13.52-4.31C55.1,50.32,54.89,48.22,54.51,44.4Z"></path></g><g data-name="Puntos"><path d="M76.64,53.65l-1-.39a1.5,1.5,0,0,0-1.42.17,2.14,2.14,0,0,0-.84,1.24,2.1,2.1,0,0,0,.25,1.62,2.15,2.15,0,0,0,1.32,1,2.22,2.22,0,0,0,.51.06A2.19,2.19,0,0,0,76.58,57a2.17,2.17,0,0,0,1-2.26A1.52,1.52,0,0,0,76.64,53.65Z"></path></g></svg>