<svg height='100px' width='100px'  fill="#000000" xmlns="http://www.w3.org/2000/svg" xmlns:xlink="http://www.w3.org/1999/xlink" version="1.1" x="0px" y="0px" viewBox="0 0 100 100" enable-background="new 0 0 100 100" xml:space="preserve"><g><path d="M81.593,38.211c1.031-1.784,2.286-3.879,3.694-6.077c3.881-6.058,5.625-7.875,3.484-12.375   c-1.758-3.694-7.274-5.957-11.752-5.957c-0.979,0-1.904,0.108-2.732,0.332c-4.625,1.25-6,7.875-6.25,10.25   c-0.209,1.985-3.035,9.2-5.126,13.708H56H19.871c-4.833,0-10.833,1.167-9.333,8.833c1.5,7.667,3.667,15.168,9.333,22.501   s10.042,5.958,10.104,9.021c0.062,3.063,1.188,7.75,5,7.75H64.1c3.813,0,4.938-4.688,5-7.75c0.063-3.063,4.438-1.688,10.104-9.021   c5.667-7.333,7.834-14.834,9.334-22.501C89.796,40.494,85.773,38.643,81.593,38.211z M69.529,24.542   c0.033-0.318,0.869-7.802,5.147-8.959c0.687-0.186,1.476-0.28,2.343-0.28c3.832,0,8.896,1.95,10.396,5.101   c1.565,3.292,0.749,4.548-2.291,9.219c-0.347,0.53-0.713,1.095-1.103,1.702c-1.244,1.941-2.5,4.005-3.729,6.136l-0.365,0.632   H64.561C66.575,33.652,69.3,26.718,69.529,24.542z M87.064,46.638c-1.383,7.067-3.438,14.609-9.049,21.872   c-2.895,3.744-5.35,5.02-7.143,5.95c-1.587,0.824-3.229,1.677-3.273,3.957c-0.007,0.256-0.166,6.28-3.5,6.28H34.975   c-3.334,0-3.495-6.024-3.5-6.28c-0.046-2.28-1.688-3.133-3.275-3.957c-1.793-0.933-4.249-2.207-7.142-5.95   c-5.612-7.264-7.666-14.805-9.048-21.872c-0.427-2.18-0.188-3.838,0.71-4.929c1.156-1.404,3.562-2.116,7.151-2.116h60.492   l1.074,0.111c2.469,0.254,4.162,0.98,5.03,2.156C87.273,42.944,87.475,44.552,87.064,46.638z"></path><path d="M53.475,55.572v-7.688v-1.5h-1.5H47.1h-1.5v1.5v7.688h-7.688h-1.5v1.5v4.875v1.5h1.5H45.6v7.688v1.5h1.5h4.875h1.5v-1.5   v-7.688h7.688h1.5v-1.5v-4.875v-1.5h-1.5H53.475z M61.162,61.947h-9.188v9.188H47.1v-9.188h-9.188v-4.875H47.1v-9.188h4.875v9.188   h9.188L61.162,61.947L61.162,61.947z"></path></g></svg>