<svg height='100px' width='100px'  fill="#000000" xmlns="http://www.w3.org/2000/svg" xmlns:xlink="http://www.w3.org/1999/xlink" version="1.1" x="0px" y="0px" viewBox="0 0 100 100" enable-background="new 0 0 100 100" xml:space="preserve"><g><circle cx="52.101" cy="34.235" r="4.031"></circle><circle cx="34.686" cy="69.173" r="4.032"></circle><circle cx="23.988" cy="69.173" r="4.032"></circle><circle cx="13.29" cy="69.173" r="4.032"></circle><path d="M65.538,51.704H38.665v5.376h2.687v16.125H62.85V57.08h2.688V51.704z M52.101,66.486c-2.227,0-4.031-1.805-4.031-4.032   c0-2.226,1.804-4.031,4.031-4.031c2.227,0,4.031,1.806,4.031,4.031C56.132,64.682,54.327,66.486,52.101,66.486z"></path><path d="M45.381,44.986L45.381,44.986c0.744,0,1.344,0.601,1.344,1.343v2.688h10.751v-2.688c0-0.742,0.601-1.343,1.343-1.343   c0.743,0,1.345,0.601,1.345,1.343v2.688h4.03l0-2.688c0-2.969-2.405-5.375-5.375-5.375H46.724c-1.484,0-2.687-1.202-2.687-2.688   v-6.046c0-1.114-0.903-2.017-2.016-2.017c-1.112,0-2.015,0.902-2.015,2.017v7.39h0C40.007,42.579,42.413,44.984,45.381,44.986z"></path><circle cx="90.965" cy="69.173" r="4.032"></circle><circle cx="80.267" cy="69.173" r="4.032"></circle><circle cx="69.516" cy="69.173" r="4.032"></circle><circle cx="85.616" cy="58.437" r="4.031"></circle><circle cx="74.892" cy="58.437" r="4.031"></circle><circle cx="29.337" cy="58.437" r="4.031"></circle><circle cx="18.639" cy="58.437" r="4.031"></circle><circle cx="23.988" cy="47.68" r="4.032"></circle><circle cx="80.267" cy="47.68" r="4.032"></circle></g></svg>