<svg height='100px' width='100px'  fill="#000000" xmlns="http://www.w3.org/2000/svg" xmlns:xlink="http://www.w3.org/1999/xlink" version="1.1" x="0px" y="0px" viewBox="0 0 67 67" style="enable-background:new 0 0 67 67;" xml:space="preserve"><g><g><path d="M54.8,55.5l-3.1-5.1c-0.3-0.5-0.9-0.6-1.3-0.3l-14,8.6C35.9,59,35.7,59.6,36,60l3.1,5c0.3,0.5,0.9,0.6,1.3,0.3l14-8.5    C54.9,56.6,55,56,54.8,55.5z M50.1,56.4c-0.6,0.4-1.4,0.2-1.8-0.4c-0.4-0.6-0.2-1.5,0.4-1.8c0.6-0.4,1.5-0.2,1.8,0.4    C50.9,55.2,50.7,56,50.1,56.4z"></path><path d="M48.1,46.1c0.2-1.1-0.1-2.1-0.6-3.1c-3.1-5.1-2.2-3.7-5-8.3c-0.6-1-1.9-1.3-2.9-0.7c-1,0.6-0.9,2.5-0.3,3.5l-0.5-0.8    l-0.9-1.5c-0.7-1.2-2.5-1.4-3.5-0.3c-0.6,0.7-0.6,1.8-0.1,2.5l-1-1.6c-0.7-1.2-2.5-1.4-3.5-0.3c-0.6,0.7-0.6,1.8-0.1,2.6l-5.1-8.3    c-0.6-1-1.9-1.3-2.9-0.7c-1,0.6-1.3,1.9-0.7,2.9c0.1,0.1,0.1,0.2,0.1,0.2l0.1,0.1c0.3,0.5,1.9,3.1,9.2,15.1c0,0-4-1-4.1-1    c-1.1-0.3-2.2,0.1-2.9,0.9c-0.3,0.3-0.5,0.8-0.6,1.2c-0.4,1.6,0.8,2.4,2.3,2.8c0,0,6.5,1.6,6.6,1.6c1.4,0.4,2.4,1.9,3.2,3.2    l0.4,0.7c0,0,0.1-0.1,0.1-0.1l13.3-8.1C48.2,47.9,48,46.9,48.1,46.1z"></path><path d="M14.2,15.5h11c1.1,0,2.1-0.9,2.1-2.1V3.6c0-1.1-0.9-2.1-2.1-2.1h-11c-1.1,0-2.1,0.9-2.1,2.1v9.9    C12.1,14.6,13,15.5,14.2,15.5z M21.5,3.9c0.6,0,1.2,0.5,1.2,1.2c0,0.6-0.5,1.2-1.2,1.2c-0.6,0-1.2-0.5-1.2-1.2    C20.4,4.4,20.9,3.9,21.5,3.9z M21.5,7.1c0.6,0,1.2,0.5,1.2,1.2s-0.5,1.2-1.2,1.2c-0.6,0-1.2-0.5-1.2-1.2S20.9,7.1,21.5,7.1z     M21.5,10.8c0.6,0,1.2,0.5,1.2,1.2s-0.5,1.2-1.2,1.2c-0.6,0-1.2-0.5-1.2-1.2S20.9,10.8,21.5,10.8z M17.8,3.9    c0.6,0,1.2,0.5,1.2,1.2c0,0.6-0.5,1.2-1.2,1.2c-0.6,0-1.2-0.5-1.2-1.2C16.6,4.4,17.1,3.9,17.8,3.9z M17.8,7.1    c0.6,0,1.2,0.5,1.2,1.2s-0.5,1.2-1.2,1.2c-0.6,0-1.2-0.5-1.2-1.2S17.1,7.1,17.8,7.1z"></path><path d="M37.7,15.5h11c1.1,0,2.1-0.9,2.1-2.1V3.6c0-1.1-0.9-2.1-2.1-2.1h-11c-1.1,0-2.1,0.9-2.1,2.1v9.9    C35.6,14.6,36.6,15.5,37.7,15.5z M46.2,3.5c0.6,0,1.2,0.5,1.2,1.2c0,0.6-0.5,1.2-1.2,1.2c-0.6,0-1.2-0.5-1.2-1.2    C45.1,4,45.6,3.5,46.2,3.5z M46.2,7.1c0.6,0,1.2,0.5,1.2,1.2s-0.5,1.2-1.2,1.2c-0.6,0-1.2-0.5-1.2-1.2S45.6,7.1,46.2,7.1z     M42.5,3.5c0.6,0,1.2,0.5,1.2,1.2c0,0.6-0.5,1.2-1.2,1.2c-0.6,0-1.2-0.5-1.2-1.2C41.3,4,41.8,3.5,42.5,3.5z M42.5,7.1    c0.6,0,1.2,0.5,1.2,1.2s-0.5,1.2-1.2,1.2c-0.6,0-1.2-0.5-1.2-1.2S41.8,7.1,42.5,7.1z M40.2,10.8c0.6,0,1.2,0.5,1.2,1.2    s-0.5,1.2-1.2,1.2c-0.6,0-1.2-0.5-1.2-1.2S39.5,10.8,40.2,10.8z"></path><path d="M19.2,33.3c-1.5-2.4-0.4-4.8,1.5-5.8c-0.2-0.2-0.3-0.5-0.3-0.8c0-0.6,0.5-1.2,1.2-1.2c0.6,0,1.2,0.5,1.2,1.2    c0,0.1,0,0.1,0,0.2c1.3-0.1,2.7,0.5,3.6,2l0.9,1.5v-5.9c0-1.1-0.9-2.1-2.1-2.1h-11c-1.1,0-2.1,0.9-2.1,2.1v9.9    c0,1.1,0.9,2.1,2.1,2.1h7c-1.2-2-1.6-2.7-1.8-2.9L19.2,33.3z M16.6,26.6c0-0.6,0.5-1.2,1.2-1.2c0.6,0,1.2,0.5,1.2,1.2    c0,0.6-0.5,1.2-1.2,1.2C17.1,27.8,16.6,27.2,16.6,26.6z"></path><path d="M37.9,32.7c1.6-1.6,4.8-1.5,6.3,1l1.6,2.7h2.8c1.1,0,2.1-0.9,2.1-2.1v-9.9c0-1.1-0.9-2.1-2.1-2.1h-11    c-1.1,0-2.1,0.9-2.1,2.1v7.8C36.5,32.2,37.2,32.4,37.9,32.7z M45.1,25.6c0.6,0,1.2,0.5,1.2,1.2c0,0.6-0.5,1.2-1.2,1.2    c-0.6,0-1.2-0.5-1.2-1.2C43.9,26.1,44.4,25.6,45.1,25.6z M45.1,28.8c0.6,0,1.2,0.5,1.2,1.2s-0.5,1.2-1.2,1.2    c-0.6,0-1.2-0.5-1.2-1.2S44.4,28.8,45.1,28.8z M41.3,25.6c0.6,0,1.2,0.5,1.2,1.2c0,0.6-0.5,1.2-1.2,1.2c-0.6,0-1.2-0.5-1.2-1.2    C40.2,26.1,40.7,25.6,41.3,25.6z M41.3,28.8c0.6,0,1.2,0.5,1.2,1.2c0,1.5-2.3,1.5-2.3,0C40.2,29.3,40.7,28.8,41.3,28.8z"></path></g></g></svg>