<svg height='100px' width='100px'  fill="#000000" xmlns="http://www.w3.org/2000/svg" xmlns:xlink="http://www.w3.org/1999/xlink" version="1.1" x="0px" y="0px" viewBox="0 0 100 100" style="enable-background:new 0 0 100 100;" xml:space="preserve"><style type="text/css">
	.st0{fill:none;stroke:#000000;stroke-width:2;stroke-linecap:round;stroke-linejoin:round;stroke-miterlimit:10;}
</style><path d="M87.1425781,89V37.2363281c0-0.5527344-0.4472656-1-1-1H64.1201782l4.3973999-11.0498047  c0.2050781-0.5136719-0.0458984-1.0947266-0.5585938-1.2988281L33.2421875,10.0712891  c-0.5166016-0.2070312-1.0947266,0.0458984-1.2988281,0.5585938l-19.140625,48.0947266  c-0.2050781,0.5136719,0.0458984,1.0947266,0.5585938,1.2988281l28.703125,11.4233398V89c0,0.5527344,0.4472656,1,1,1h43.078125  C86.6953125,90,87.1425781,89.5527344,87.1425781,89z M15.0302734,58.5351562l18.4013672-46.2363281l32.8583984,13.0771484  l-4.3218994,10.8603516H47.5369873l0.7325439-3.2460938l3.7099609-1.8935547  c0.3251953-0.1650391,0.5332031-0.4941406,0.5449219-0.8583984s-0.1748047-0.7060547-0.4882812-0.8916016L48.4550781,27.21875  l-0.6542969-4.1152344c-0.0566406-0.359375-0.3056641-0.6601562-0.6474609-0.7832031  c-0.3457031-0.1240234-0.7265625-0.0517578-1,0.1894531l-3.1298828,2.7490234l-4.1142578-0.6494141  c-0.3632812-0.0605469-0.7216797,0.0869141-0.9462891,0.3740234c-0.2236328,0.2871094-0.2724609,0.6738281-0.1289062,1.0087891  l1.6474609,3.8261719l-1.890625,3.7128906c-0.1650391,0.3242188-0.140625,0.7128906,0.0644531,1.0146484  c0.2041016,0.3007812,0.5615234,0.4707031,0.9189453,0.4345703l4.1484375-0.3837891l1.6412964,1.6396484h-1.2994995  c-0.5527344,0-1,0.4472656-1,1v4.6525269l-13.1923828-5.2501831c-0.5175781-0.2060547-1.0957031,0.0458984-1.2988281,0.5585938  c-0.2050781,0.5136719,0.0458984,1.0947266,0.5585938,1.2988281l13.8642578,5.5175781  c0.022522,0.0090332,0.0456543,0.0059204,0.0683594,0.0131836v4.1973267l-15.3691406-6.1167603  c-0.515625-0.2070312-1.0957031,0.0458984-1.2988281,0.5585938c-0.2050781,0.5136719,0.0458984,1.0947266,0.5585938,1.2988281  l16.109375,6.411377v4.184082l-17.5458984-6.9831543c-0.515625-0.2070312-1.0957031,0.0458984-1.2988281,0.5585938  c-0.2050781,0.5136719,0.0458984,1.0947266,0.5585938,1.2988281l18.2861328,7.277771v4.1837158L22.3417969,53.046875  c-0.5166016-0.2060547-1.0957031,0.0458984-1.2988281,0.5585938c-0.2050781,0.5136719,0.0458984,1.0947266,0.5585938,1.2988281  l20.4628906,8.1437988v6.2466431L15.0302734,58.5351562z M41.5039062,29.4580078l-1.1152344-2.5908203l2.7861328,0.4394531  c0.3007812,0.0498047,0.59375-0.0400391,0.8164062-0.2363281l2.1191406-1.8613281l0.4433594,2.7871094  c0.0458984,0.2929688,0.2207031,0.5507812,0.4765625,0.7021484l2.4257812,1.4414062l-2.5126953,1.2822266  c-0.2646484,0.1347656-0.4560547,0.3808594-0.5214844,0.6708984l-0.6210938,2.7519531l-1.9960938-1.9941406  c-0.1884766-0.1884766-0.4433594-0.2929688-0.7070312-0.2929688c-0.0302734,0-0.0615234,0.0009766-0.0917969,0.0039062  l-2.8095703,0.2597656l1.2802734-2.5146484C41.6113281,30.0419922,41.6210938,29.7314453,41.5039062,29.4580078z M85.1425781,88  h-41.078125V38.2363281h41.078125V88z"></path><path d="M51.3125,64.7275391h26.0732422c0.5527344,0,1-0.4472656,1-1s-0.4472656-1-1-1H51.3125c-0.5527344,0-1,0.4472656-1,1  S50.7597656,64.7275391,51.3125,64.7275391z"></path><path d="M51.3125,70.8037109h26.0732422c0.5527344,0,1-0.4472656,1-1s-0.4472656-1-1-1H51.3125c-0.5527344,0-1,0.4472656-1,1  S50.7597656,70.8037109,51.3125,70.8037109z"></path><path d="M51.3125,76.8808594h26.0732422c0.5527344,0,1-0.4472656,1-1s-0.4472656-1-1-1H51.3125c-0.5527344,0-1,0.4472656-1,1  S50.7597656,76.8808594,51.3125,76.8808594z"></path><path d="M51.3125,82.9570312h26.0732422c0.5527344,0,1-0.4472656,1-1s-0.4472656-1-1-1H51.3125c-0.5527344,0-1,0.4472656-1,1  S50.7597656,82.9570312,51.3125,82.9570312z"></path><path d="M59.5595703,52.6757812l-0.5166016,4.1337891c-0.0449219,0.3613281,0.109375,0.71875,0.4042969,0.9326172  c0.2949219,0.2158203,0.6816406,0.2509766,1.0126953,0.0966797l3.7714844-1.7685547l3.7714844,1.7685547  c0.1357422,0.0634766,0.2802734,0.0947266,0.4248047,0.0947266c0.2080078,0,0.4140625-0.0644531,0.5878906-0.1914062  c0.2949219-0.2138672,0.4492188-0.5712891,0.4042969-0.9326172l-0.5166016-4.1337891l2.8476562-3.0400391  C72,49.3701172,72.0849609,48.9902344,71.9726562,48.6435547s-0.4042969-0.6044922-0.7626953-0.6738281l-4.0908203-0.7861328  l-2.0117188-3.6484375c-0.3515625-0.6367188-1.4003906-0.6376953-1.7519531,0.0009766l-2.0107422,3.6474609l-4.0908203,0.7861328  c-0.3583984,0.0693359-0.6503906,0.3271484-0.7626953,0.6738281c-0.1123047,0.3457031-0.0273438,0.7265625,0.2216797,0.9921875  L59.5595703,52.6757812z M62.1826172,49.0595703c0.2919922-0.0566406,0.5439453-0.2392578,0.6875-0.5l1.3613281-2.4697266  l1.3623047,2.4707031c0.1435547,0.2597656,0.3955078,0.4423828,0.6875,0.4990234l2.7705078,0.5322266l-1.9287109,2.0585938  c-0.203125,0.2167969-0.2998047,0.5126953-0.2626953,0.8076172l0.3496094,2.7998047L64.65625,54.0605469  c-0.1347656-0.0634766-0.2792969-0.0947266-0.4248047-0.0947266s-0.2900391,0.03125-0.4248047,0.0947266l-2.5537109,1.1972656  l0.3496094-2.7998047c0.0371094-0.2949219-0.0595703-0.5908203-0.2626953-0.8076172l-1.9277344-2.0585938L62.1826172,49.0595703z"></path></svg>