<svg height='100px' width='100px'  fill="#000000" xmlns="http://www.w3.org/2000/svg" xmlns:xlink="http://www.w3.org/1999/xlink" version="1.1" x="0px" y="0px" viewBox="0 0 60 55.2" enable-background="new 0 0 60 55.2" xml:space="preserve"><g><path d="M50.05,18.06V5.19c0-2.86-2.33-5.19-5.19-5.19c-0.01,0-0.02,0-0.03,0c-0.01,0-0.01,0-0.02,0c-0.85,0-1.68,0.21-2.44,0.62   L40,1.89v0.03l-17.21,9.22c-1.24,0.67-2.14,1.8-2.52,3.11l-13.03,0.8c-1.65,0.12-2.95,1.41-3.14,3.01H3.21   C1.44,18.05,0,19.49,0,21.26v5.58c0,1.77,1.44,3.21,3.21,3.21H4.1c0.22,1.78,1.66,3.2,3.49,3.33l0.46,0.03V50.7   c0,2.48,2.02,4.5,4.5,4.5s4.5-2.02,4.5-4.5V33.96l3.24,0.2c0.41,1.33,1.34,2.45,2.63,3.1L40,45.79v0.03l2.5,1.25   c0.73,0.37,1.51,0.55,2.32,0.55c0.01,0,0.01,0,0.02,0c0.01,0,0.02,0,0.03,0c2.86,0,5.18-2.33,5.18-5.19V30.05   c2.73-0.03,4.95-2.26,4.95-4.99v-2C55,20.31,52.78,18.09,50.05,18.06z M15.05,50.7c0,1.38-1.12,2.5-2.5,2.5s-2.5-1.12-2.5-2.5   v-0.65h2c0.55,0,1-0.45,1-1s-0.45-1-1-1h-2v-2h2c0.55,0,1-0.45,1-1s-0.45-1-1-1h-2v-2h2c0.55,0,1-0.45,1-1s-0.45-1-1-1h-2v-2h2   c0.55,0,1-0.45,1-1s-0.45-1-1-1h-2v-2.51l5,0.31V50.7z M43.45,45.28L42,44.56V3.11l1.37-0.73c0.47-0.25,0.97-0.38,1.48-0.38   C46.37,2.02,48,3.23,48,5.19v12.86v12v12.38c0,0.87-0.34,1.68-0.96,2.28c-0.59,0.57-1.39,0.89-2.19,0.9   C44.36,45.62,43.89,45.5,43.45,45.28z M4,28.05H3.21C2.54,28.05,2,27.51,2,26.84v-5.58c0-0.67,0.54-1.21,1.21-1.21H4V28.05z    M6.05,29.6V18.46c0-0.75,0.58-1.37,1.32-1.42l12.68-0.77v15.88L7.72,31.39C6.78,31.32,6.05,30.54,6.05,29.6z M23.81,35.46   c-1.09-0.54-1.76-1.63-1.76-2.85V15.71c0-1.18,0.64-2.25,1.68-2.81L40,4.19v39.37L23.81,35.46z M53,25.05   c0,1.64-1.32,2.97-2.95,2.99v-7.99c1.63,0.03,2.95,1.36,2.95,2.99V25.05z"></path><path d="M57.82,17.48c-0.32-0.45-0.94-0.56-1.39-0.24c-0.45,0.32-0.56,0.94-0.24,1.39c1.16,1.64,1.77,3.47,1.82,5.45   c0.06,2.49-1.25,4.6-1.81,5.39c-0.32,0.45-0.22,1.07,0.23,1.4c0.18,0.13,0.38,0.19,0.58,0.19c0.31,0,0.62-0.14,0.81-0.42   c0.68-0.96,2.27-3.51,2.19-6.61C59.94,21.65,59.21,19.45,57.82,17.48z"></path><path d="M31.9,12.61c-0.25-0.49-0.84-0.7-1.34-0.45l-4.45,2.2c-1.3,0.7-2.11,2.04-2.11,3.52v2.18c0,0.55,0.45,1,1,1s1-0.45,1-1   v-2.18c0-0.73,0.4-1.41,1.02-1.74l4.42-2.19C31.94,13.7,32.14,13.1,31.9,12.61z"></path><path d="M25,22.05c-0.55,0-1,0.45-1,1v2c0,0.55,0.45,1,1,1s1-0.45,1-1v-2C26,22.5,25.55,22.05,25,22.05z"></path></g></svg>