<svg height='100px' width='100px'  fill="#000000" xmlns="http://www.w3.org/2000/svg" xmlns:xlink="http://www.w3.org/1999/xlink" version="1.1" x="0px" y="0px" viewBox="0 0 512 512" style="enable-background:new 0 0 512 512;" xml:space="preserve"><g><g><g><g><path d="M342.113,313.549H171.174c-40.384,0-72.019-31.622-72.019-71.994V70.72C99.155,31.725,131.462,0,171.174,0h170.939      c39.001,0,70.731,31.725,70.731,70.72v170.835C412.845,281.252,381.114,313.549,342.113,313.549z M171.174,14.544      c-32.229,0-57.475,24.675-57.475,56.176v170.835c0,32.215,25.245,57.451,57.475,57.451h170.939      c31.507,0,56.187-25.236,56.187-57.451V70.72c0-30.976-25.205-56.176-56.187-56.176H171.174z"></path></g><g><path d="M256.618,481.866c-4.017,0-7.271-3.255-7.271-7.272V306.277c0-4.018,3.255-7.271,7.271-7.271      c4.018,0,7.272,3.254,7.272,7.271v168.316C263.891,478.611,260.636,481.866,256.618,481.866z"></path></g><g><path d="M256.633,512c-41.428,0-73.882-17.645-73.882-40.168c0-14.409,13.422-27.294,35.903-34.466      c3.833-1.222,7.918,0.892,9.14,4.718c1.219,3.827-0.893,7.918-4.718,9.14c-15.661,4.994-25.78,13.083-25.78,20.608      c0,11.85,25.92,25.624,59.337,25.624c33.443,0,59.383-13.774,59.383-25.624c0-7.118-8.024-14.113-22.02-19.188      c-3.773-1.371-5.724-5.542-4.355-9.317c1.37-3.775,5.542-5.722,9.317-4.355c20.379,7.393,31.602,19.063,31.602,32.861      C330.56,494.355,298.087,512,256.633,512z"></path></g></g><g><g><path d="M348.438,229.271H163.552c-2.689,0-4.862-2.176-4.862-4.86V97.908c0-2.689,2.173-4.864,4.862-4.864h184.887      c2.682,0,4.867,2.175,4.867,4.864v126.503C353.306,227.096,351.12,229.271,348.438,229.271z M168.419,219.542h175.146V102.775      H168.419V219.542z"></path></g><g><path d="M367.905,258.466h-0.012H144.089c-1.563,0-3.035-0.753-3.946-2.022c-0.913-1.269-1.165-2.899-0.675-4.381l9.741-29.197      c0.655-1.985,2.517-3.323,4.608-3.323H358.17c2.09,0,3.953,1.338,4.611,3.323l9.634,28.892c0.228,0.573,0.36,1.19,0.36,1.839      C372.775,256.285,370.597,258.466,367.905,258.466z M150.84,248.734h210.31l-6.488-19.463H157.328L150.84,248.734z"></path></g><g><path d="M285.188,229.271H226.8c-2.689,0-4.865-2.176-4.865-4.86v-38.925c0-18.784,15.283-34.062,34.059-34.062      c18.779,0,34.055,15.277,34.055,34.062v38.925C290.048,227.096,287.872,229.271,285.188,229.271z M231.667,219.542h48.654      v-34.056c0-13.418-10.915-24.33-24.328-24.33c-13.412,0-24.326,10.912-24.326,24.33V219.542z"></path></g><g><path d="M207.339,141.695h-19.463c-2.687,0-4.864-2.18-4.864-4.864v-19.465c0-2.685,2.178-4.867,4.864-4.867h19.463      c2.691,0,4.862,2.183,4.862,4.867v19.465C212.201,139.516,210.03,141.695,207.339,141.695z M192.741,131.967h9.73v-9.736h-9.73      V131.967z"></path></g><g><path d="M246.267,141.695H226.8c-2.689,0-4.865-2.18-4.865-4.864v-19.465c0-2.685,2.176-4.867,4.865-4.867h19.467      c2.688,0,4.86,2.183,4.86,4.867v19.465C251.127,139.516,248.954,141.695,246.267,141.695z M231.667,131.967h9.729v-9.736h-9.729      V131.967z"></path></g><g><path d="M285.188,141.695h-19.466c-2.685,0-4.862-2.18-4.862-4.864v-19.465c0-2.685,2.178-4.867,4.862-4.867h19.466      c2.684,0,4.859,2.183,4.859,4.867v19.465C290.048,139.516,287.872,141.695,285.188,141.695z M270.587,131.967h9.734v-9.736      h-9.734V131.967z"></path></g><g><path d="M324.106,141.695h-19.463c-2.68,0-4.864-2.18-4.864-4.864v-19.465c0-2.685,2.185-4.867,4.864-4.867h19.463      c2.687,0,4.867,2.183,4.867,4.867v19.465C328.974,139.516,326.793,141.695,324.106,141.695z M309.511,131.967h9.733v-9.736      h-9.733V131.967z"></path></g><g><path d="M358.17,102.775H153.817c-2.684,0-4.861-2.183-4.861-4.867V78.443c0-2.685,2.178-4.866,4.861-4.866H358.17      c2.685,0,4.862,2.182,4.862,4.866v19.465C363.032,100.593,360.854,102.775,358.17,102.775z M158.689,93.044h194.616v-9.729      H158.689V93.044z"></path></g><g><path d="M324.12,83.314h-0.014h-136.23c-1.842,0-3.527-1.049-4.346-2.693c-0.828-1.647-0.653-3.627,0.459-5.097l14.592-19.458      c0.918-1.228,2.361-1.948,3.891-1.948h107.039c1.533,0,2.978,0.721,3.896,1.948l14.435,19.24      c0.708,0.849,1.142,1.943,1.142,3.137C328.983,81.132,326.806,83.314,324.12,83.314z M197.61,73.577h116.768l-7.297-9.73      h-102.17L197.61,73.577z"></path></g></g></g></g></svg>