<svg height='100px' width='100px'  fill="#000000" xmlns="http://www.w3.org/2000/svg" xmlns:xlink="http://www.w3.org/1999/xlink" version="1.1" x="0px" y="0px" viewBox="0 0 100 100" enable-background="new 0 0 100 100" xml:space="preserve"><g display="none"><path display="inline" opacity="0.3" fill-rule="evenodd" clip-rule="evenodd" d="M36.71,63.05l-1.197-0.797l-0.805-0.161   l-1.041-2.086l-1.606-0.803l-0.641,0.481L31.1,61.209l-0.802,0.161l-2.329-2.167l1.204-2.489l1.125-0.159l0.321-0.963l0.737-0.401   l0.538-0.564l1.044-0.206l0.337-0.386l0.631-0.066l1.052-0.688l1.681,0.164l0.82,0.444l0.107,1.027l1.619,2.301l-0.821,0.601   l1.494,0.079l0.337,2.434l-0.631-1.899l-0.611,0.088l0.317,0.64l-0.317,0.854l0.822,0.168l-0.187,0.917l-1.307-0.165l-0.083,0.771   l-0.846,0.689l-0.505-0.127l0.083,0.813L36.71,63.05L36.71,63.05z M60.026,14.241l0.481-0.904l0.322,0.311L60.026,14.241   L60.026,14.241z M62.114,7.622l-0.301-0.522l0.723-0.725L62.114,7.622L62.114,7.622z M59.805,10.194l0.121-1.327l-0.742,0.182   l-0.201,0.683C58.983,9.731,59.765,10.194,59.805,10.194L59.805,10.194z M61.03,9.45l-0.582-0.602l0.441-0.646L60.971,7.5   l0.401,0.301l0.019,1.248L61.03,9.45L61.03,9.45z M60.488,12.747l-0.44-0.884l-1.325-0.04L58.3,11.261l0.684-0.284l1.123,0.121   l0.121-0.522l-0.261-0.382l0.322-0.32l0.623,0.32l0.763,0.263l-0.461,0.481l0.14,0.604l-0.501,0.543l0.241,0.884L60.488,12.747   L60.488,12.747z M71.259,82.507l0.661,0.337l0.574-0.151l-0.325-0.392l-0.522-0.008L71.259,82.507L71.259,82.507z M59.862,88.834   l1.474-0.775l0.546,0.405l0.546-0.067l-0.358,0.623v0.382l-0.735,0.131l-0.758-0.551L59.862,88.834L59.862,88.834z M41.879,48.362   l-0.085,0.747l0.611,0.51l-0.064-0.791L41.879,48.362L41.879,48.362z M36.683,47.464l0.336-1.048l0.148,0.555L36.683,47.464   L36.683,47.464z M33.592,44.015l0.083-0.791l0.883,0.061L33.592,44.015L33.592,44.015z M34.958,42.9l0.946-1.157l-0.231,0.833   L34.958,42.9L34.958,42.9z M37.209,40.711l0.484-0.515l-0.526,0.001L37.209,40.711L37.209,40.711z M36.157,39.262l0.441,0.875   l0.378-0.344l-0.294-0.62L36.157,39.262L36.157,39.262z M50.587,22.777l0.441,0.467l0.083-0.555L50.587,22.777L50.587,22.777z    M49.472,23.187l0.82-0.067l0.654,0.638l-0.401,0.471l1.2-0.111l-0.022,0.833l-0.567-0.361l-1.031,0.133l-0.062-0.792l-0.234,0.664   l-0.356-0.405V23.187L49.472,23.187z M49.387,25.024l0.611,0.958l0.231-0.512l-0.358-0.555L49.387,25.024L49.387,25.024z    M33.505,31.71l0.484-0.385l-0.588-0.618l0.609-0.771l1.157,0.529l-0.274-0.832l2.483-1.763l0.169,1.432l-0.948,0.878l-0.315,0.813   l0.337,0.254l-0.695,0.986l-0.967-0.251l-0.948,0.153L33.505,31.71L33.505,31.71z M33.443,33.293l0.693,0.531l1.221-1.074   l-0.863-0.36l-0.461,0.237l-0.211,0.45L33.443,33.293L33.443,33.293z M33.19,35.045l-0.968,0.239l-0.756-0.765l0.422-0.239   l1.367,0.146L33.19,35.045L33.19,35.045z M32.644,36.306l-0.693-0.275V35.69l0.987-0.154L32.644,36.306L32.644,36.306z    M31.655,39.002l0.253,0.684l-0.735,0.451l0.041-0.578L31.655,39.002L31.655,39.002z M32.603,38.636l-0.211-0.917l0.273-0.516   l-0.106-0.661l-0.567-0.105l0.042,0.642l-0.294,0.685l0.211,0.727L32.603,38.636L32.603,38.636z M38.07,39.297l-0.083-1.067   l-1.284,0.133l-0.735-1.321l0.147-0.343l-0.399-0.298l-0.043,0.407l-1.01-0.744l0.42-0.407l0.381,0.254l-0.064-0.961l1.178,0.808   l-0.126-1.238l0.546-0.259l0.569,0.96l-0.126,1.857l1.114,0.593l0.631-0.13l0.399,0.297l-0.756,0.431l-0.316,0.961L38.07,39.297   L38.07,39.297z M36.347,45.264l2.039-0.457l0.085,0.32l0.967-0.73l-0.399-0.894l-0.695-0.106l-0.884-1.001l-1.008,0.711l1.43,0.699   l-0.799,0.43l0.211,0.341L36.347,45.264L36.347,45.264z M37.902,49.125l-0.379-1.003l1.894-1.757l-0.842,1.861L37.902,49.125   L37.902,49.125z M36.493,50.519l1.136-0.687l-0.462-1.794l-1.579,0.647l0.022,1.409l1.01-0.643L36.493,50.519L36.493,50.519z    M40.574,50.312l0.274,1.6l1.051,0.424l0.315-1.091l-0.756-1.557L40.574,50.312L40.574,50.312z M44.255,68.602l1.514,0.765   l1.305-1.031l-0.946,0.111l-0.441-0.917l-1.157,0.154C44.529,67.684,44.235,68.561,44.255,68.602L44.255,68.602z M43.204,62.712   l0.42-1.434l1.81-1.567l-0.19,0.94l0.211,0.577l-1.325,1.33L43.204,62.712L43.204,62.712z M41.109,94.341l0.59-0.559l-0.252-0.429   l0.548-0.729l0.263,0.34l0.672-0.641l0.441-0.004l0.335-0.812l1.031,0.273l0.8-0.365l0.652,0.104l0.462-0.26l0.463,0.618   l0.547-0.043l0.757,0.637l0.883-0.046l-0.169-0.576l0.693-0.322l0.19-0.536l-0.19-0.96l0.612-0.6l0.505-0.068l0.209-0.384   l1.977-0.457l1.031,0.082l1.199,0.827l0.443-0.171l1.302,0.057l0.696,0.254l0.335-0.833l1.2-0.604l0.82,0.232l1.157-0.775   l0.82,0.191l0.42-0.066l0.567-0.429l0.17,0.425l0.693,0.403l0.799-0.538l1.809-0.027l1.137-0.239l1.093,0.358l0.547,0.104   l0.82-0.666l0.906-0.175l0.799-0.751l0.546-0.045l0.567,0.126l-0.127-0.619l1.287-0.88l0.799-0.174l0.062-0.813l-0.232-0.575   l0.252-0.664l-1.453,0.048l-1.031,0.389l-0.594,0.105l-0.962-0.348l-0.356-0.093l0.332-0.31l0.294-0.043l0.093-0.192l-0.875-0.22   l-0.754,0.278l1.055-0.736l0.703,0.071l0.857-0.414l-0.252-0.725l-0.84,0.003l0.629-0.559l0.463-0.451l0.505,0.428l0.778-0.559   l0.315-0.493l-0.381-0.083l0.253-0.386l-0.903-0.104l0.356-0.601l0.567,0.149l0.169,0.426l0.654-0.856l0.629-0.259l0.104-1.609   l0.591-1.503l-0.463-0.597l-0.256-1.372l-1.854-1.447l-2.574-0.118l-1.604,0.048l-0.126,1.201l-0.422,0.687l-0.844-0.939   L66.841,71.1l1.605-1.591v-0.986l-1.266-2.051l-0.507-0.083l-1.11-0.65l-0.462-0.787l-0.569,0.109l-0.4,0.129l-0.672-0.231   l-0.4,0.001l0.758-0.195l0.484,0.126l0.82-0.173l0.505,0.232l0.441,0.448l0.569-0.11l0.547,0.126l-1.493-1.853l-0.695-0.895   l0.441-0.708l0.399-0.15l-0.735-0.403l-0.316-0.555l-0.315-0.04l-0.877-1.607l-1.307-0.681l-1.856-0.42l-0.084-0.728l-0.42-0.254   l-0.591-2.013l-0.675-1.11l-0.465-2.57l-0.548-0.854l-0.505,0.003l-1.56-2.307l-0.929-0.209l-0.718-0.598l-1.181-0.467   l-0.464,0.431l-0.929,0.604l-1.308-0.424l-0.623,0.086l-1.05-0.337l-0.316-0.574l0.631,0.317l1.263,0.102l1.052-0.346l0.315-0.833   l1.072,0.038l0.969-0.731l-0.989-0.466l-0.062-0.576l-0.399-0.32l-1.368,0.734l-0.23-0.277l1.05-0.774l1.263,0.081l0.737-0.643   l0.126-0.578l0.505-0.324l0.735-1.432l0.463-0.666l-0.064-0.469l0.526-0.965l-0.189-0.341l0.464-1.325l0.882-0.752v-0.855   l-1.304-1.19L55.235,34.4l-2.23,0.073l-1.368-0.251L51.24,34.5l-0.673,0.003l-0.843-0.296l-0.589,0.024l-0.083,0.299l-0.841,0.261   l-0.904,0.494l-0.358-0.021l-0.611,0.495l-0.19-0.192l0.821-0.942l0.862-1.395l-0.63,0.346l-0.778-0.298l0.462-0.299l0.169-0.644   l2.166-1.631l0.631-1.071l0.736-0.262l0.358-0.961l-0.378-0.425l0.418-0.685l-0.04-0.429l-1.094,0.005l-0.441,0.473l-0.695-0.211   l-1.051,0.474l-0.967-0.102l-0.821,0.344l-0.462,0.004l-0.484,0.45l0.105-0.492l-0.443-0.19l-0.903,0.794l0.273-0.706l-1.242-0.572   l-0.211,0.769l-0.418,0.322l0.125,0.706l-0.251,0.022l0.042,0.875l-0.904,0.195l0.441,0.746l-0.379,0.75l-0.443,0.023l1.074,0.956   l0.379,0.684l-1.093-0.552l-0.399,0.345l-0.799-0.531l-0.043,0.384l0.211,0.512l-0.253,0.386l-0.42-0.832l-0.379,0.879l0.42,0.468   l-0.337,0.45l0.652,0.744l0.631,0.019l-0.736,0.28l-0.758-0.423l0.169,1.218l-0.021,0.404l1.388-0.218L39.5,37.176l-0.098,0.252   l0.292,0.18l0.878-0.322l-0.209,0.225l0.356,0.444l-0.648-0.263l-0.261,0.171l-0.188,0.595l0.356,0.252l-0.524,0.089l-0.335,0.51   l0.607,0.21l0.137,0.467l-0.993-0.379l-0.188,0.659l0.396,0.275l-0.228,0.436l-0.472,0.343l-0.973,0.024l-0.418,0.437l0.367,0.232   l0.825-0.057l0.555,0.17l-0.126,0.244l-0.637,0.003l0.859,0.806l0.273-0.107l0.441,0.469l2.25-2.274l-0.358,0.685l0.337,0.212   l-0.673,0.237l-0.547,1.306l0.062,0.32l-0.693,1.329l0.293,0.17l-0.589,1.582l0.148,1.026l-0.422,0.6l0.314,0.51l0.402-0.194   l-0.716,1.135l-0.125,1.581l-0.525,0.515l0.04,0.386l1.18-0.005l-0.168-0.811l0.503-1.178l-0.042-0.725l0.609-0.75l-0.462-1.962   l0.443-0.004l1.388-1.671l-1.052,1.584l-0.126,1.153l0.4,0.298l0.084-0.684l0.694-0.579l0.314,1.067l0.569-1.284l-0.126-0.897   l0.463-0.237l-0.19,1.155l1.178,0.891l-1.01-0.273l-0.356,1.475l0.229,1.09l0.611,0.147l0.358,0.96l-0.905,0.922l-0.915,2.396   l0.211,1.071l-0.801-0.51l0.043,1.155l1.094,1.54l-0.337-1.414l0.761-0.216l1.939,1.405l0.043-1.112l-0.803-0.64l0.507-0.132   l1.562,0.979l1.097-0.177v-0.471l1.012,0.04l0.295-0.944l2.742,0.118l-1.812,0.479l-1.098,3.131l1.349,2.437l0.675-0.389v1.287   l0.887-1.074l1.097,0.165l-0.379,1.332l0.337,0.213l-1.091,0.856l0.335,1.494l-0.59,1.135l0.675,0.872l0.797,0.703l0.654,0.062   l-0.443,0.322l-0.735,0.046l-0.631-0.896l-0.61,0.237l0.505,0.875l0.546,0.339l-0.861-0.189l-0.694-0.702l-1.768,0.562   l-0.801-0.125l-1.828,0.905l-0.946,1.328l-1.327,0.837l-0.567,0.814l0.84-0.152l0.422,0.147l0.126-0.491l1.872-0.498l-0.168,0.982   l0.652,0.682l-0.693,0.515l0.398,0.746l0.441,0.105l-1.219,2.334l-0.884,0.303l-0.882,0.666l-0.441,0.023l-1.136,0.71l-0.82,0.001   l-1.327,0.862l1.052,0.145l0.064,0.768l-0.757,0.367l1.346,0.23l-0.336,0.322l0.526,0.298l0.758-0.218l0.882-0.538l1.43-0.474   l0.128,0.661l1.135,0.271l-0.925,0.261l-0.106,0.535l1.557,0.036v-0.299l0.778-0.216l0.799,0.916l0.716,0.851l1.788-0.028   l0.419-0.707l0.842-0.367l1.157-0.432l0.443-0.642l0.967-0.451l-1.327,1.543l-1.325,1.266l-0.062,1.494l-0.904-0.038l-0.714,0.259   l-0.822-0.446l-2.314-0.246l-1.64,0.433l0.021,0.833l-0.693,0.665l-0.907,0.005l-0.146,1.901l-0.967,0.88l-0.25,0.493l-1.074,0.195   l-0.273,1.091l-0.463,0.002l-0.251,0.578l-1.304,0.944l-0.59-0.211l-0.905,0.645v0.833l0.99,0.059l0.042-0.747l1.199,0.316   L41.109,94.341z"></path></g><g display="none"><path display="inline" d="M67.922,24.436h0.565v2.458c0,0.427-0.048,0.767-0.145,1.019c-0.099,0.252-0.272,0.456-0.526,0.613   c-0.252,0.16-0.583,0.238-0.994,0.238c-0.398,0-0.725-0.069-0.977-0.206c-0.255-0.138-0.436-0.337-0.544-0.597   s-0.162-0.616-0.162-1.067v-2.458h0.563v2.455c0,0.369,0.034,0.643,0.102,0.817c0.068,0.175,0.188,0.311,0.354,0.405   c0.167,0.095,0.373,0.145,0.614,0.145c0.415,0,0.709-0.095,0.886-0.282c0.175-0.189,0.262-0.548,0.262-1.084V24.436L67.922,24.436z    M69.42,28.691v-4.255h0.577l2.235,3.342v-3.342h0.54v4.255h-0.577l-2.236-3.345v3.345H69.42L69.42,28.691z M73.814,28.691v-4.255   h0.563v4.255H73.814L73.814,28.691z M76.453,28.691v-3.753h-1.402v-0.502h3.372v0.502h-1.407v3.753H76.453L76.453,28.691z    M79.014,28.691v-4.255h3.076v0.502h-2.513v1.303h2.354v0.499h-2.354v1.45h2.613v0.502H79.014L79.014,28.691z M82.966,28.691   v-4.255h1.467c0.332,0,0.583,0.021,0.759,0.062c0.243,0.056,0.451,0.156,0.625,0.304c0.223,0.189,0.391,0.432,0.501,0.727   c0.112,0.296,0.168,0.633,0.168,1.012c0,0.323-0.037,0.609-0.114,0.859c-0.075,0.25-0.172,0.456-0.291,0.619   c-0.117,0.164-0.247,0.293-0.386,0.386c-0.14,0.094-0.31,0.165-0.507,0.214c-0.201,0.048-0.429,0.072-0.686,0.072H82.966   L82.966,28.691z M83.531,28.189h0.908c0.279,0,0.5-0.027,0.66-0.079c0.16-0.053,0.286-0.125,0.381-0.221   c0.134-0.133,0.238-0.313,0.312-0.538c0.077-0.226,0.114-0.498,0.114-0.821c0-0.444-0.073-0.786-0.219-1.024   c-0.146-0.24-0.325-0.4-0.535-0.481c-0.149-0.058-0.393-0.087-0.728-0.087h-0.893V28.189L83.531,28.189z M61.969,35.333v-4.257   h0.563v2.111l2.115-2.111h0.762l-1.785,1.725l1.863,2.532h-0.744l-1.514-2.154l-0.698,0.679v1.475H61.969L61.969,35.333z    M66.056,35.333v-4.257h0.563v4.257H66.056L66.056,35.333z M67.604,35.333v-4.257h0.578l2.234,3.342v-3.342h0.542v4.257h-0.579   l-2.234-3.345v3.345H67.604L67.604,35.333z M73.896,33.662v-0.498l1.802-0.004v1.579c-0.275,0.221-0.562,0.386-0.856,0.5   c-0.294,0.109-0.597,0.165-0.905,0.165c-0.418,0-0.8-0.088-1.14-0.269c-0.342-0.177-0.601-0.438-0.774-0.776   c-0.174-0.338-0.262-0.716-0.262-1.135c0-0.415,0.088-0.8,0.262-1.159c0.172-0.361,0.422-0.626,0.747-0.801   c0.325-0.174,0.7-0.26,1.123-0.26c0.308,0,0.585,0.049,0.834,0.149c0.248,0.099,0.444,0.236,0.585,0.415   c0.142,0.179,0.249,0.41,0.323,0.698l-0.509,0.14c-0.062-0.218-0.143-0.388-0.238-0.512c-0.094-0.123-0.231-0.223-0.407-0.296   c-0.175-0.075-0.371-0.112-0.585-0.112c-0.258,0-0.481,0.039-0.667,0.117c-0.189,0.078-0.34,0.182-0.456,0.31   c-0.114,0.128-0.204,0.268-0.269,0.42c-0.107,0.264-0.162,0.548-0.162,0.857c0,0.378,0.064,0.696,0.195,0.951   c0.131,0.255,0.322,0.446,0.57,0.568c0.25,0.124,0.516,0.187,0.796,0.187c0.245,0,0.481-0.048,0.713-0.141   c0.233-0.094,0.408-0.194,0.529-0.301v-0.793H73.896L73.896,33.662z M76.528,35.333v-4.257h1.466c0.33,0,0.583,0.021,0.757,0.063   c0.243,0.054,0.453,0.157,0.625,0.303c0.225,0.191,0.393,0.432,0.503,0.728c0.112,0.294,0.167,0.631,0.167,1.011   c0,0.323-0.038,0.609-0.114,0.859c-0.075,0.25-0.17,0.458-0.291,0.621c-0.116,0.163-0.245,0.292-0.386,0.384   c-0.139,0.094-0.31,0.167-0.507,0.214c-0.199,0.049-0.427,0.073-0.684,0.073H76.528L76.528,35.333z M77.091,34.83H78   c0.281,0,0.502-0.026,0.66-0.079c0.162-0.053,0.288-0.124,0.381-0.221c0.135-0.133,0.24-0.313,0.313-0.538   c0.075-0.226,0.112-0.498,0.112-0.82c0-0.444-0.073-0.786-0.219-1.026c-0.146-0.24-0.323-0.398-0.533-0.48   c-0.151-0.06-0.395-0.088-0.728-0.088h-0.895V34.83L77.091,34.83z M80.651,33.259c0-0.706,0.19-1.259,0.57-1.659   c0.378-0.398,0.868-0.599,1.468-0.599c0.393,0,0.747,0.093,1.063,0.281c0.314,0.188,0.555,0.451,0.72,0.786   c0.167,0.335,0.249,0.716,0.249,1.142c0,0.432-0.087,0.818-0.261,1.158c-0.173,0.34-0.422,0.599-0.74,0.774   c-0.32,0.175-0.664,0.262-1.035,0.262c-0.4,0-0.759-0.095-1.074-0.291c-0.316-0.192-0.555-0.456-0.716-0.792   C80.732,33.987,80.651,33.633,80.651,33.259L80.651,33.259z M81.232,33.268c0,0.514,0.136,0.917,0.412,1.213   c0.277,0.294,0.623,0.442,1.038,0.442c0.425,0,0.774-0.148,1.048-0.447c0.273-0.298,0.41-0.72,0.41-1.27   c0-0.345-0.058-0.648-0.175-0.907c-0.117-0.258-0.287-0.458-0.514-0.601c-0.226-0.141-0.478-0.212-0.761-0.212   c-0.398,0-0.74,0.136-1.027,0.412C81.375,32.17,81.232,32.628,81.232,33.268L81.232,33.268z M85.428,35.333v-4.257h0.849   l1.007,3.013c0.093,0.281,0.162,0.492,0.202,0.631c0.049-0.155,0.125-0.383,0.228-0.683l1.019-2.962h0.755v4.257h-0.541v-3.562   l-1.237,3.562h-0.509l-1.231-3.624v3.624H85.428z"></path></g><g><path fill="none" stroke="#000000" stroke-width="0.5" stroke-linecap="round" stroke-linejoin="round" stroke-miterlimit="10" d="   M30.5,61.333c0.136-0.055-0.584-0.01-0.808-0.025c-0.026-1.414-0.855-1.305-1.525-2.15c-0.321-0.405-1.132-0.202-0.503-1.336   c0.324-0.583,0.708-0.741,1.304-0.347c0.273-0.307,0.442-1.105,0.7-1.307c0.611-0.478,0.781-0.307,1.511-0.655   c0.398-0.189,0.523-0.62,0.988-0.845c0.436-0.211,1.127-0.433,1.629-0.629c1.362-0.533,2.158-1.297,3.375-0.413   c0.843,0.613,1.327,2.205,2.012,3.041c-0.268,0.123-0.263,0.292-0.662,0.358c0.353,0.517,1.058,0.716,1.25,1.493   c-0.296,0.402-0.287,0.644,0.215,1.162c-0.205,0.048-0.381,0.14-0.627,0.17c0.231,0.466-0.076,0.582,0.42,0.983   c-0.533,0.535-1.241,0.633-1.775,0.171c-0.489,0.413-0.619,0.924-0.354,1.471c-0.241-0.021-0.552,0.076-0.792,0.051   c0.016,0.242-0.063,0.54-0.05,0.782c-0.888,0.08-1.28-0.797-2.116-1.004c0.515-2.202-2.188-2.132-3.497-1.945   c-0.094,0.632-0.44,1.029-1.042,1.163c-0.02-0.046-0.219-0.309-0.258-0.354c-0.12,0.176-0.252,0.342-0.396,0.5"></path><path fill="none" stroke="#000000" stroke-width="0.5" stroke-linecap="round" stroke-linejoin="round" stroke-miterlimit="10" d="   M38.667,93c-0.142,0.342-0.172,0.769-0.142,1.141c0.253-0.179,0.542-0.1,0.85-0.449c0.707,0.429,1.224,1.021,2.097,0.95   c-0.039-1.538,1.518-2.341,2.992-2.679c0.538-0.123,1.833-0.415,2.371-0.295c0.626,0.14,1.366,1.184,2,1.015   c0.864-0.23,0.63-1.889,1.075-2.482c0.596-0.796,1.887-1.113,2.763-1.2c1.672-0.166,3.127,1.599,4.653,0.021   c0.567,0.482,0.883,0.336,1.388,0.154c0.321-0.116-0.06-0.729,0.276-0.89c0.352-0.169,0.675-0.005,1.012-0.118   c1.135-0.38,3.018-0.262,4.333-0.5c1.793-0.326,2.803-0.564,4.629-0.166c0.615,0.134,0.925,0.621,1.538,0.344   c0.752-0.34,1.061-1.619,1.025-2.337c1.509,0.744,3.027-1.165,3.116-2.483c-0.798-0.125-1.631,0.088-2.307,0.492   c-0.396-0.432-0.9-0.782-1.487-0.896c0.244-0.108,0.464-0.483,0.677-0.629c-0.218-0.081-0.561-0.401-0.844-0.478   c0.454-0.301,1.083-0.744,1.012-1.487c0.173,0.034,0.419,0.041,0.616,0.079c-0.243-1.689,1.731-1.676,1.384-3.254   c0.207,0.139,0.564,0.159,0.774,0.3c0.257-0.667,0.322-0.455,0.676-0.841c0.618-1.781-0.302-3.545,0.166-5.113   c-0.82-0.172-0.899-0.957-1.43-1.208c-0.682-0.322-1.324-0.049-2.045,0.058c-1.071,0.157-3.412,0.286-2.517,1.917   c-1.245,0.665-1.581-0.851-2.794-0.654c0.231-1.183,2.014-0.687,2.152-1.975c0.062-0.578-1.134-1.947-1.517-2.3   c-0.646-0.597-1.478-0.939-2.287-1.237c-0.168-0.062-0.18-0.454-0.233-0.471c-0.19-0.058-0.845,0.007-0.942-0.038   c-0.397-0.181-0.556,0.44-1.031-0.255c1.084-0.138,1.739-0.342,2.677-0.235c0.372,0.042,0.939,0.552,1.337,0.641   c0.258-1.537-1.199-1.136-1.69-2.088c-0.256-0.496,0.233-1.255,0.064-1.68c-0.225-0.566-0.877-0.859-1.219-1.325   c-0.465-0.633-0.344-1.005-0.963-1.558c-0.401-0.358-0.963-0.486-1.362-0.796c-0.613-0.477-1.555-1.194-1.979-2.204   c-0.508-1.207,0.136-2.989-0.359-4.133c-0.25-0.577-1.625-1.539-2.292-1.951c-1.244-0.769-4.577-2.778-5.878-1.687   c-0.823-0.47-2.661-0.213-2.632-1.337c0.57,0.616,1.473,0.882,2.257,0.963c0.12-0.342,0.345-0.359,0.4-0.784   c0.691-0.062,1.256-0.153,1.946-0.217c0.208-0.619,0.266-1.302,0.17-1.949c-0.628,0.071-1.051-0.176-1.3-0.716   c-0.305,0.271-0.847,0.364-1.149,0.645c-0.104-0.32-0.087-0.926,0-1.261c1.765,0.122,2.938-1.11,3.503-2.667   c0.924,0.049,1.362-0.974,1.613-1.659c-1.623-0.708,0.577-2.488,0.024-3.523c-1.082-2.028-3.848,0.02-4.833-1.529   c-0.901,1.112-3.719,1.132-5.095,1.974c0.667-0.377,2.5-2.252,0.612-2.146c0.468-1.071,3.648-5.25,4.332-4.533   c-0.198-0.106-0.504-0.474-0.67-0.572c0.831-0.103,0.729-0.964,0.804-1.678c-0.867-0.043-2.076,0.283-2.512-0.496   c-0.843,0.07-0.881,0.811-1.633,0.653c-0.636,1.538-1.902,0.147-2.805,0.971c-0.017-0.445-0.305-0.705-0.396-1.125   c-1.599-0.494-1.902,1.609-1.995,2.605c-0.741,0.567-0.275,1.402-0.962,1.996c0.709,0.353,1.14,1.133,1.215,1.673   c-0.492-0.303-1.022-0.575-1.537-0.786c0.036,0.346-0.103,0.785-0.049,1.127c-0.36-0.292-0.617-0.57-0.638-1.172   c-0.856,0.715-1.375,2.911-0.146,3.362c-0.323,0.245-0.492,0.784-0.669,0.975c0.236-0.033,0.553,0.063,0.79,0.054   c-0.154,0.315-0.016,0.773-0.12,1.112c0.388,0.018,0.583,0.271,0.787,0.322c-0.305,0.278-0.418,0.553-0.541,0.717   c-0.681,0.101-0.552,0.296-0.921,0.783c0.3,0.117,0.465,0.32,0.791,0.398c0-0.002,0.012,0.469,0,0.448   c-0.902-0.112-1.628,0.391-1.5,1.333c-0.336-0.036-0.805,0.126-1.132,0.051c0.494,0.553,1.474,1.639,2.323,1.437   c0.936-0.223,0.718-1.6,1.942-1.603c-0.487,1.614-2.24,5.689-0.966,7.007c-0.29,1.537-1.085,2.425-0.951,4.116   c2.362-0.836,0.429-4.37,1.472-5.511c0.498,1.299,1.378,0.827,1.366-0.454c0.234-0.009,0.886,0.07,1.113,0.174   c0.091,0.103,0.005,0.317,0.049,0.447c0.322,0.062,0.52,0.161,0.758,0.362c-1.723,0.768,0.381,2.347,0.013,3.628   c-0.138,0.479-0.925,1.233-1.176,1.833c-0.258,0.618-0.318,1.226-0.611,1.854c-0.184-0.103-0.458-0.179-0.642-0.299   c0.072,0.967-0.058,2.932,1.444,2.625c-0.128-0.196-0.178-0.562-0.419-0.819c0.547,0.139,1.26,0,1.774,0.174   c0.634,0.215,0.838,0.7,1.476,0.811c0.123-0.8-0.46-1.325-1.092-1.787c0.9,0.333,3.465,0.907,3.646-0.504   c1.013,0.308,2.267,0.185,3.254-0.024c-1.098,0.433-2.492,2.071-2.453,3.341c0.032,1.043,0.958,1.863,1.199,2.979   c0.126-0.132,0.456-0.225,0.642-0.507c0.051,0.218,0.426,0.715,0.482,0.978c0.386-0.668,0.998-0.931,1.664-0.583   c-0.28,1.027-0.534,2-1.629,2.289c0.582,1.468-0.518,1.728-0.331,2.987c0.135,0.076,0.303,0.008,0.452,0.048   c0.083,0.618,0.535,1.049,1.178,1.176c-0.085,0.208-0.309,0.623-0.487,0.787c-0.151-0.263-0.722-0.747-0.838-1.007   c-0.15,0.408-0.458,0.69-0.357,1.295c-1.417-1.357-3.653,0.18-4.854,1.021c-0.282,0.197-2.317,1.355-2.462,1.741   c-0.6,1.599,1.332,0.725,2.153,0.475c0.07,0.717,0.812,2.054,1.216,2.646c-0.547,0.813-1.012,1.818-1.85,2.354   c-0.848,0.542-2.266,0.056-2.704,1.292c-0.887-0.125-2.347,1.06-1.164,1.557c-0.71,1.64,1.116,1.006,1.85,0.805   c1.295-0.355,1.749-0.591,2.822,0.371c-0.15,0.227-0.185,0.621-0.292,0.804c0.903,0.269,1.3-0.758,2.278-0.52   c0.489,0.12,0.879,1.445,1.868,1.344c0.904-0.093,1.762-1.116,2.629-1.545c0.72-0.356,1.44-0.628,2.191-0.891   c-0.689,0.963-1.762,2.071-2.287,3.137c-0.357,0.725,0.45,0.75-0.331,1.341c-0.779,0.59-1.068,0.071-1.699-0.09   c-1.274-0.327-5.058-1.044-4.862,1.524c-0.416-0.084-0.963,0.193-1.287,0.18c0.325,1.237-1.104,3.759-2.492,3.204   c-0.201,0.873-0.909,1.846-1.558,2.316c-0.705,0.511-2.042,0.368-1.943,1.63c0.235-0.021,0.198,0.102,0.305,0.195"></path><path fill="none" stroke="#000000" stroke-width="0.5" stroke-linecap="round" stroke-linejoin="round" stroke-miterlimit="10" d="   M35.5,31.833c0.033-0.206,0.696-1.034,0.975-1.467c-0.077-0.109-0.215-0.236-0.282-0.325c0.628-0.591,1.449-1.445,1.278-2.366   c-0.606,1.009-1.815,1.102-2.683,1.966c-0.121,0.001-0.28-0.105-0.426-0.12c0.093,0.312-0.003,0.805,0.125,1.123   c-0.76-0.443-1.545-0.312-1.632,0.651c0.644,0.159,0.601,0.455,0.954,0.838c-0.126,0.165-0.215,0.402-0.287,0.504   c1.115,0.277,1.771-0.507,2.594-0.917c-0.046,0.178-0.141,0.326-0.283,0.445"></path><path fill="none" stroke="#000000" stroke-width="0.5" stroke-linecap="round" stroke-linejoin="round" stroke-miterlimit="10" d="   M34.333,35.667c-0.092,0.488-0.436,1.059-0.474,1.642c0.812-0.001,1.224-0.362,1.983-0.145c0.729,0.208,1.022,1.053,1.966,1.154   c0.101-0.458-0.719-2.46-1.101-2.667c-1.001-0.544-1.238,0.518-2.22,0.362c-0.205,0.262-0.163,0.49-0.154,0.821"></path><path fill="none" stroke="#000000" stroke-width="0.5" stroke-linecap="round" stroke-linejoin="round" stroke-miterlimit="10" d="   M50.5,23.333c-0.042,0.208,0.024-0.253-0.025-0.474c-1.997-0.132-1.13,3.904,0.663,2.112c0.04-0.872-0.408-1.333-0.279-2.229   c-0.13,0.132-0.25,0.274-0.358,0.425"></path></g></svg>