<svg height='100px' width='100px'  fill="#000000" xmlns="http://www.w3.org/2000/svg" data-name="Layer 1" viewBox="0 0 64 64" x="0px" y="0px"><title>Manager_15</title><path d="M32,0A10,10,0,1,1,22,10,10,10,0,0,1,32,0ZM53,14a7,7,0,1,0-7-7A7,7,0,0,0,53,14ZM11,0a7,7,0,1,0,7,7A7,7,0,0,0,11,0ZM22,22V19a1,1,0,0,0-1-1H1a1,1,0,0,0-1,1v9a1,1,0,0,0,1,1H4a1,1,0,0,1,1,1v9a1,1,0,0,0,1,1h9V24.92A3,3,0,0,1,18,22Zm41-4H43a1,1,0,0,0-1,1v3h4a3,3,0,0,1,3,2.92V40h9a1,1,0,0,0,1-1V30a1,1,0,0,1,1-1h3a1,1,0,0,0,1-1V19A1,1,0,0,0,63,18ZM47,24.92V41.08A1,1,0,0,1,46,42H42V64H22V42H18a1,1,0,0,1-1-.92V24.92A1,1,0,0,1,18,24H46A1,1,0,0,1,47,24.92ZM36,44.06,33.34,33.38A5.86,5.86,0,0,0,35,30c0-1.1-1.34-2-3-2s-3,.9-3,2a5.86,5.86,0,0,0,1.66,3.38L28,44.06,32,50Z"></path></svg>