<svg height='100px' width='100px'  fill="#000000" xmlns="http://www.w3.org/2000/svg" xmlns:xlink="http://www.w3.org/1999/xlink" version="1.1" x="0px" y="0px" viewBox="0 0 64 64" style="enable-background:new 0 0 64 64;" xml:space="preserve"><g><path d="M61,31v-3c0-0.552-0.448-1-1-1h-1V17h1c0.552,0,1-0.448,1-1v-3h1c0.446,0,0.838-0.295,0.961-0.724   c0.123-0.429-0.053-0.887-0.432-1.124l-16-10c-0.324-0.202-0.735-0.202-1.06,0l-16,10c-0.378,0.237-0.555,0.695-0.432,1.124   C29.162,12.705,29.554,13,30,13h1v3c0,0.552,0.448,1,1,1h1v10h-1c-0.552,0-1,0.448-1,1v3h-2v2h34v-2H61z M57,27h-2V17h2V27z M41,17   v10h-2V17H41z M43,17h2v10h-2V17z M47,17h2v10h-2V17z M51,17h2v10h-2V17z M46,3.179L58.513,11H33.487L46,3.179z M59,13v2H33v-2H59z    M35,17h2v10h-2V17z M33,29h26v2H33V29z"></path><path d="M62,45H23v-1c0-0.552-0.448-1-1-1h-3v-2h1c0.552,0,1-0.448,1-1v-4c0-0.552-0.448-1-1-1H2c-0.552,0-1,0.448-1,1v4   c0,0.552,0.448,1,1,1h1v16H2c-0.552,0-1,0.448-1,1v4c0,0.552,0.448,1,1,1h18c0.552,0,1-0.448,1-1v-4c0-0.552-0.448-1-1-1h-1v-2h3   c0.552,0,1-0.448,1-1v-1h39c0.552,0,1-0.448,1-1v-6C63,45.448,62.552,45,62,45z M3,37h16v2H3V37z M19,61H3v-2h16V61z M5,57V41h12   v16H5z M21,53h-2v-8h2V53z M61,51H23v-4h38V51z"></path><path d="M9,29h2v-2h1c0.404,0,0.769-0.244,0.924-0.617c0.155-0.374,0.069-0.804-0.217-1.09L10.414,23H13v-2h-2v-2H9v2H8   c-0.404,0-0.769,0.244-0.924,0.617c-0.155,0.374-0.069,0.804,0.217,1.09L9.586,25H7v2h2V29z"></path><path d="M10,33c4.962,0,9-4.038,9-9c0-2.063-0.705-3.96-1.877-5.48C18.028,18.826,18.993,19,20,19c4.962,0,9-4.038,9-9   s-4.038-9-9-9s-9,4.038-9,9c0,2.063,0.705,3.96,1.877,5.48C11.972,15.174,11.007,15,10,15c-4.962,0-9,4.038-9,9S5.038,33,10,33z    M20,3c3.86,0,7,3.14,7,7s-3.14,7-7,7s-7-3.14-7-7S16.14,3,20,3z M10,17c3.86,0,7,3.14,7,7s-3.14,7-7,7s-7-3.14-7-7S6.14,17,10,17z   "></path><path d="M19,15h2v-2h1c0.404,0,0.769-0.244,0.924-0.617c0.155-0.374,0.069-0.804-0.217-1.09L20.414,9H23V7h-2V5h-2v2h-1   c-0.404,0-0.769,0.244-0.924,0.617c-0.155,0.374-0.069,0.804,0.217,1.09L19.586,11H17v2h2V15z"></path></g></svg>