<svg height='100px' width='100px'  fill="#000000" xmlns="http://www.w3.org/2000/svg" xmlns:xlink="http://www.w3.org/1999/xlink" version="1.1" x="0px" y="0px" viewBox="0 0 512 512" style="enable-background:new 0 0 512 512;" xml:space="preserve"><rect x="216" y="144" width="16" height="16"></rect><rect x="280" y="144" width="16" height="16"></rect><path d="M255.9,196.9l4.5,2.3l7.2-14.3l-4.5-2.3c-3.4-1.7-5.1-5.5-4.2-9.1l4.9-19.5l-15.5-3.9l-4.9,19.5  C240.6,180.5,245.8,191.9,255.9,196.9z"></path><path d="M256,224c-4.4,0-8-3.6-8-8h-16c0,13.3,10.7,24,24,24c13.3,0,24-10.7,24-24h-16C264,220.4,260.4,224,256,224z"></path><path d="M472,336h-48v-24c0-13.2-10.8-24-24-24h-16c-8.8,0-16.9,4.8-21.1,12.5L304,282.1v-25.1c9.5-7.8,17.2-17.5,22.7-28.4  l25.1-25.1c42.9-42.9,42.9-112.4,0-155.3C331.2,27.6,303.3,16,274.2,16h-36.4C177.2,16,128,65.2,128,125.8  c0,29.1,11.6,57.1,32.2,77.7l25.1,25.1c5.5,11,13.2,20.6,22.7,28.4v25.1l-77.1,24.1c-30.7,9.6-53.7,35.2-60,66.7L52,467.3  c-2.6,13,5.8,25.6,18.8,28.2c1.5,0.3,3.1,0.5,4.7,0.5H472c13.2,0,24-10.8,24-24V360C496,346.8,485.2,336,472,336z M376,312  c0-4.4,3.6-8,8-8h16c4.4,0,8,3.6,8,8v24h-32V312z M176,132.9v56.3c0,2.6,0.1,5.3,0.4,7.9l-4.9-4.9c-36.6-36.6-36.6-96,0-132.7  C189.1,41.9,212.9,32,237.8,32h36.4C326,32,368,74,368,125.8c0,24.9-9.9,48.7-27.5,66.3l-4.9,4.9c0.2-2.6,0.3-5.2,0.4-7.9v-67.3  c0-9.1-5.1-17.4-13.3-21.5l-18.1-9.1c-4.9-2.4-10.4-3.1-15.8-2L195,109.5C183.9,111.9,176,121.6,176,132.9z M192,189.2v-56.3  c0-3.8,2.6-7,6.3-7.8l93.9-20.1c1.8-0.4,3.6-0.1,5.3,0.7l18.1,9.1c2.7,1.3,4.4,4.1,4.4,7.2v67.3c0,24.1-12,46.6-32.1,59.9  l-18.6,12.4c-8.1,5.4-18.6,5.4-26.6,0l-18.6-12.4C204,235.8,192,213.3,192,189.2L192,189.2z M288,268.3v15.3  c-14,9.4-25.1,22.6-32,38c-6.9-15.4-18-28.6-32-38v-15.3l9.8,6.5c13.4,9,30.9,9,44.4,0L288,268.3z M134.6,464.3l5.9,15.7H75.5  c-4.4,0-8-3.6-8-8c0-0.5,0.1-1.1,0.2-1.6l18.9-94.3c4.7-23.8,21.1-43.5,43.6-52.6l13.3,66.7C128.6,411.9,125.2,439.6,134.6,464.3  L134.6,464.3z M289.4,480H157.5l-8-21.4c-7.8-20.8-4.5-44.1,8.9-61.8l2.1-2.9l-15.1-75.5l69.4-21.7c20.7,13.8,33.1,37,33.2,61.9V376  h16v-17.4c0.1-24.9,12.5-48.1,33.2-61.9l62.8,19.6V336h-48c-13.2,0-24,10.8-24,24v112C288,474.7,288.5,477.4,289.4,480z M480,472  c0,4.4-3.6,8-8,8H312c-4.4,0-8-3.6-8-8v-88h176V472z M480,368H304v-8c0-4.4,3.6-8,8-8h160c4.4,0,8,3.6,8,8V368z"></path><path d="M370.3,442.3l-8,8l11.3,11.3l8-8c0.8,0.4,1.5,0.7,2.3,1v9.4h16v-9.4c0.8-0.3,1.6-0.6,2.3-1l8,8l11.3-11.3l-8-8  c0.4-0.8,0.7-1.5,1-2.3h9.4v-16h-9.4c-0.3-0.8-0.6-1.6-1-2.3l8-8l-11.3-11.3l-8,8c-0.8-0.4-1.5-0.7-2.3-1V400h-16v9.4  c-0.8,0.3-1.6,0.6-2.3,1l-8-8l-11.3,11.3l8,8c-0.4,0.8-0.7,1.5-1,2.3H360v16h9.4C369.7,440.8,370,441.6,370.3,442.3z M392,424  c4.4,0,8,3.6,8,8s-3.6,8-8,8s-8-3.6-8-8C384,427.6,387.6,424,392,424z"></path><path d="M456,432h-16c0,9.8-3,19.4-8.6,27.4l13.1,9.2C452,457.9,456,445.1,456,432z"></path><path d="M453.3,413.7c-1.9-6.5-4.9-12.7-8.8-18.3l-13.1,9.2c2.9,4.2,5.2,8.8,6.6,13.7L453.3,413.7z"></path><path d="M352.6,404.6l-13.1-9.2C332,406.1,328,418.9,328,432h16C344,422.2,347,412.6,352.6,404.6z"></path><path d="M330.7,450.3c1.9,6.5,4.9,12.7,8.8,18.3l13.1-9.2c-2.9-4.2-5.2-8.8-6.6-13.7L330.7,450.3z"></path></svg>