<svg height='100px' width='100px'  fill="#000000" xmlns="http://www.w3.org/2000/svg" xmlns:xlink="http://www.w3.org/1999/xlink" version="1.1" x="0px" y="0px" viewBox="0 0 100 100" enable-background="new 0 0 100 100" xml:space="preserve"><g><path fill="none" stroke="#000000" stroke-width="0.75" stroke-linecap="round" stroke-linejoin="round" stroke-miterlimit="10" d="   M44.84,75.151c-0.22,0.064-0.493,0.102-0.682,0.046c-0.132-0.039-0.14-0.324-0.354-0.22c-0.1,0.048-0.108,0.307-0.1,0.4   c0.036,0.398,0.81,1.028,1.147,1.262c0.088,0.061,0.227,0.109,0.306,0.185c0.095,0.089,0.124,0.205,0.213,0.293   c0.119,0.118,0.301,0.119,0.369,0.305c0.063,0.173-0.157,0.255-0.095,0.42c0.067,0.179,0.279,0.164,0.379,0.297   c0.104,0.139,0.101,0.303,0.179,0.456c0.087,0.172,0.332,0.682,0.493,0.743c-0.016,0.359,0.566,0.923,0.869,1.176   c0.47,0.391,0.895,0.76,1.312,1.177c-0.01-0.095,0.046-0.191,0.052-0.264c0.149,0.029,0.286,0.1,0.376,0.208   c0.077-0.305,0.152-1.019,0.052-1.316c0.297-0.242,0.036-0.519-0.248-0.572c-0.064,0.1-0.191,0.134-0.259,0.214   c-0.338-0.236-0.061-0.309-0.146-0.528c-0.072-0.188-0.335-0.188-0.188-0.464c-0.208-0.133-0.435-0.286-0.444-0.535   c0.09-0.016,0.162-0.099,0.26-0.109c0.115-0.533-0.654-0.14-0.895-0.146c-0.012-0.071-0.011-0.134,0-0.203   c0.111-0.001,0.208-0.061,0.306-0.062c-0.038-0.029-0.299-0.13-0.314-0.158c-0.053-0.106-0.035-0.32-0.098-0.423   c-0.18-0.291-0.514-0.267-0.711-0.484c0.028,0.054,0.049,0.193,0.078,0.25c-0.36,0.048-0.232-0.238-0.366-0.449   c-0.121-0.191-0.36-0.357-0.524-0.509c-0.343-0.317-0.514-0.786-0.96-0.859c-0.04-0.088,0.023-0.09,0.039-0.13"></path><path fill="none" stroke="#000000" stroke-width="0.75" stroke-linecap="round" stroke-linejoin="round" stroke-miterlimit="10" d="   M51.976,79.969c-0.024,0.018-0.304-0.501-0.312-0.72c0.545-0.178-0.394-0.566-0.454-0.789c-0.028-0.105,0.079-0.338,0.075-0.355   c0.018,0.066-0.11-0.34-0.117-0.238c0.011-0.16,0.073-0.373,0.088-0.573c0.266-0.119,0.532,0.059,0.709-0.093   c0.09,0.127,0.202,0.184,0.332,0.253c0.158-0.267-0.103-0.484,0.146-0.758c0.15-0.166,0.337-0.104,0.58-0.182   c0.562-0.182,0.699-0.753,0.951-1.223c0.126,0.004,0.243,0.002,0.368,0.001c0.233,0.535,0.586-0.795,0.725-0.963   c0.239,0.096,0.882-0.121,0.643,0.452c0.492,0.011,0.708,0.232,1.126,0.332c-0.164,0.227-0.481,0.292-0.764,0.273   c0.298,0.327,0.257,0.494-0.317,0.455c-0.002,0.197,0.171,0.355,0.221,0.584c0.046,0.217,0.036,0.506,0.038,0.721   c-0.042,0.014-0.08,0.002-0.124,0.014c0.097,0.197,0.592,0.451,0.773,0.626c-0.193,0.337-0.609-0.115-0.871,0.273   c-0.183,0.272,0.053,0.686-0.262,0.86c-0.03-0.055-0.058-0.085-0.088-0.126c-0.102,0.131-0.125,0.263-0.197,0.404   c-0.014,0.029-0.176,0.346-0.17,0.315c-0.05,0.27,0.104,0.482-0.066,0.775c-0.09,0.155-0.435,0.491-0.628,0.449   c-0.039-0.008-0.078-0.261-0.179-0.322c-0.137-0.083-0.259-0.075-0.401,0.003c-0.018-0.114-0.102-0.178-0.105-0.304   c-0.159-0.012-0.327-0.012-0.485,0c0.005,0.042,0.014,0.097,0.021,0.133c-0.18-0.024-0.36,0.042-0.521,0.082   c-0.05-0.149-0.056-0.298-0.013-0.442c-0.235,0.036-0.379,0.232-0.631,0.13"></path><path fill="none" stroke="#000000" stroke-width="0.75" stroke-linecap="round" stroke-linejoin="round" stroke-miterlimit="10" d="   M50.112,81.923c-0.157,0.094-0.682-0.078-0.629,0.31c0.312,0.036,0.458,0.335,0.271,0.592c0.454-0.168,0.717-0.127,1.178-0.084   c0.574,0.054,0.684,0.115,1.115,0.413c0.434,0.298,0.743,0.171,1.202,0.132c0.262-0.023,1.115,0.223,0.783-0.274   c-0.127-0.19-0.773-0.275-1.01-0.394c-0.421-0.211-0.62-0.347-1.036-0.273c-0.367,0.065-0.557,0.147-0.928-0.047   c-0.146-0.076-0.239-0.226-0.388-0.293c-0.155-0.071-0.452-0.033-0.42-0.081"></path><path fill="none" stroke="#000000" stroke-width="0.75" stroke-linecap="round" stroke-linejoin="round" stroke-miterlimit="10" d="   M59.384,74.106c-0.173,0.367,0.168,1.003,0.762,0.642c0.033,0.052,0.077,0.092,0.102,0.127c0.079-0.191-0.075-1.209,0.354-0.818   c0.013-0.298-0.156-0.758-0.315-0.995c0.281-0.129,0.196-0.471-0.095-0.577c-0.148,0.139-0.176,0.322-0.052,0.477   c-0.222,0.077-0.536-0.017-0.537,0.318c-0.129,0.147-0.302,0.304-0.534,0.228c0.06-0.087,0.043-0.228,0.08-0.304   c-0.234-0.047-0.46,0.07-0.501,0.305c-0.513-0.082-0.448,0.509-0.45,0.833c0.264-0.221,0.155-0.548,0.503-0.68   c0.283-0.107,0.489,0.082,0.675,0.225c0.019,0.088,0.017,0.291,0.006,0.347c-0.044,0.015-0.089,0.018-0.135,0.009"></path><path fill="none" stroke="#000000" stroke-width="0.75" stroke-linecap="round" stroke-linejoin="round" stroke-miterlimit="10" d="   M51.749,67.152c-0.061-0.063-1.057,0.151-0.694-0.502c0.174-0.314,0.843-0.275,1.145-0.391c-0.17,0.296-0.47,0.617-0.396,0.987   c0.043-0.032,0.056-0.078,0.036-0.14"></path><path fill="none" stroke="#000000" stroke-width="0.75" stroke-linecap="round" stroke-linejoin="round" stroke-miterlimit="10" d="   M57.612,64.834c0.015-0.081,0.81-1.854,0.181-1.593c-0.506,0.21-0.628,1.681-0.091,1.639"></path><path fill="none" stroke="#000000" stroke-width="0.75" stroke-linecap="round" stroke-linejoin="round" stroke-miterlimit="10" d="   M57.975,69.106c-0.011,0.006,0.07,0.075-0.037,0.041c-0.101-0.337,0.349-0.593,0.456-0.849c0.144-0.342-0.148-0.619-0.005-0.873   c-1.08-1.104-0.785,1.084-1.097,1.369c-0.043-0.071-0.149-0.135-0.194-0.22c-0.388,0.583,0.809,0.89,0.324,1.259   c0.172,0.09,0.411,0.137,0.592,0.222c0.016-0.298-0.028-0.619,0.052-0.903"></path><path fill="none" stroke="#000000" stroke-width="0.75" stroke-linecap="round" stroke-linejoin="round" stroke-miterlimit="10" d="   M68.52,79.969c-0.369-0.021-0.653-0.422-0.999-0.637c-0.234-0.145-1.296-0.156-0.972,0.274c-0.575,0.195-0.981,0.965-1.518,0.273   c-0.217-0.281,0.13-1.691-0.784-1.224c-0.349-0.329-0.844,0.099-1.111,0.315c0.145,0.106,0.335,0.114,0.513,0.096   c0.076,0.167,0.067,0.381,0.014,0.542c0.339,0.16,0.696-0.149,1.078-0.087c0.026,0.139,0.042,0.306,0.045,0.441   c-0.346,0.004-0.755,0.079-1.077,0.014c0.029,0.308,0.794,0.1,0.362,0.631c0.27,0.151,0.43-0.116,0.504-0.362   c0.147,0.276,0.454,0.194,0.663,0.366c0.143,0.116,0.079,0.255,0.236,0.356c0.089,0.056,0.308,0.077,0.408,0.093   c0.422,0.068,0.473,0.065,0.81,0.362c0.211,0.185,0.328,0.396,0.638,0.371c0.061,0.159,0.114,0.322,0.152,0.484   c0.178,0.033,0.289,0.312,0.119,0.466c-0.129,0.117-0.333-0.106-0.548,0.029c-0.619,0.389,0.163,1.035,0.384,0.245   c0.208,0.167,1.175,0.477,1.128,0.677L68.52,79.969z"></path><path fill="none" stroke="#000000" stroke-width="0.75" stroke-linecap="round" stroke-linejoin="round" stroke-miterlimit="10" d="   M62.565,57.881c0.806-0.025-0.261,1.226,0.494,1.129c0.015-0.043,0-0.08,0.014-0.124c0.049,0.032,0.221,0.048,0.269,0.079   c0.048-0.329,0.226-0.703,0.215-0.984c-0.019-0.468-0.428-0.313-0.544-0.599c-0.166,0.162-0.573,0.384-0.499,0.62   c0.051-0.018,0.099-0.043,0.142-0.077"></path><path fill="none" stroke="#000000" stroke-width="0.75" stroke-linecap="round" stroke-linejoin="round" stroke-miterlimit="10" d="   M63.201,57.063c-0.003,0.029-0.059,0.104-0.002,0.06c0.213-0.036,0.263-0.161,0.41-0.281c0.116-0.094,0.127-0.191,0.276-0.28   c0.032-0.019,0.264-0.048,0.307-0.056c0.31-0.055,0.948-0.011,1.018-0.438c0.27,0.219,0.552,0.346,0.776,0.054   c0.097-0.126,0.105-0.444,0.178-0.607c0.082-0.183,0.312-0.095,0.226-0.445c0.227,0.002,0.247,0.207,0.182,0.396   c0.141,0,0.625-0.331,0.757-0.446c0.135-0.119,0.206-0.271,0.327-0.375c0.153-0.13,0.319-0.174,0.443-0.354   c0.224-0.327,0.222-0.714,0.191-1c-0.032-0.283-0.243-0.802,0.312-0.63c0.069,0.341,0.309,0.078,0.455,0.267   c0.117,0.151,0.031,0.38,0.007,0.545c-0.043,0.294-0.218,0.669-0.278,0.993c-0.487-0.03-0.152,0.624-0.274,0.863   c-0.399,0.066-0.115,0.471-0.137,0.653c-0.032,0.254-0.23,0.481-0.355,0.59c0.034-0.066,0.042-0.206,0.074-0.284   c-0.318-0.155-0.347,0.307-0.656,0.283c-0.006,0.076-0.05,0.134-0.06,0.213c-0.229-0.093-0.372,0.089-0.586,0.053   c-0.229-0.037-0.248-0.295-0.537-0.222c-0.126,0.266,0.193,0.413,0.053,0.633c-0.01,0.015-0.481,0.162-0.515,0.176   c-0.105,0.042-0.274,0.449-0.309-0.043c-0.016-0.227,0.338-0.348,0.083-0.548c-0.479-0.379-1.774,0.449-2.312,0.405   c-0.02-0.101,0.04-0.132,0.039-0.13"></path><path fill="none" stroke="#000000" stroke-width="0.75" stroke-linecap="round" stroke-linejoin="round" stroke-miterlimit="10" d="   M68.156,52.063c-0.135,0.025-0.477-0.136-0.332-0.377c0.105-0.176,0.686,0.014,0.484-0.445c0.158,0.007,0.32,0.006,0.477-0.003   c0.076-0.462,0.518-1.108,0.137-1.495c0.303-0.336,0.431,0.243,0.598,0.401c0.187,0.176,0.492,0.213,0.726,0.271   c0.262,0.064,0.769,0.044,0.819,0.329c0.086,0.488-0.485,0.277-0.731,0.364c-0.327,0.116-0.215,0.397-0.463,0.58   c-0.41,0.301-0.383-0.14-0.625-0.264c-0.637-0.328-0.729,0.449-1.046,0.729"></path><path fill="none" stroke="#000000" stroke-width="0.75" stroke-linecap="round" stroke-linejoin="round" stroke-miterlimit="10" d="   M29.479,31.271c-0.062,0.182-0.2,0.302-0.409,0.347c-0.783-0.872-1.658-0.276-2.481,0.265c-0.379,0.25-0.541,0.501-0.86,0.682   c-0.389,0.22-0.932,0.285-1.295,0.598c-0.256,0.222-0.485,0.551-0.735,0.83c-0.4,0.447-0.654,0.369-1.109,0.635   c-1.17,0.686-1.2,2.203-0.815,3.392c0.208,0.639,0.704,1.221,0.818,1.841c0.117,0.63-0.338,0.939-0.409,1.499   c-0.11,0.874,0.316,1.856,0.409,2.66c0.057,0.484-0.184,1.104-0.286,1.561l0.048-0.027c-0.188-0.007-0.36-0.13-0.546-0.01   c-0.095,0.061-0.065,0.19-0.143,0.26c-0.067,0.06-0.13,0.043-0.205,0.098c-0.219,0.162-0.35,0.157-0.598,0.197   c-0.252,0.041-0.413,0.1-0.65,0.17c-0.463,0.137-0.926,0.153-1.41,0.07c-0.273-0.046-0.619-0.233-0.814,0.066   c-0.185,0.282,0.036,1.004,0.038,1.33l-0.034,0.043c0.214,0.129,0.298,0.556,0.439,0.742c-0.081,0.021-0.182,0.115-0.265,0.134   c0.017,0.043,0.04,0.079,0.049,0.129c0.624-0.019,1.267-0.994,1.731-0.178c0.271-0.233,0.582-0.342,0.716,0.095   c0.058,0.188,0.027,0.889-0.056,1.042c-0.306-0.408-0.646-0.137-0.989,0.094c0.114,0.143,0.184,0.337,0.174,0.541   c-0.154-0.022-0.252-0.14-0.271-0.307c-0.178,0.013-0.36,0.057-0.539,0.095c0.345,0.278,0.54,0.742,0.86,1.001   c0.167,0.136,0.534,0.192,0.596,0.351c0.068,0.177-0.385,0.355,0,0.497c0.059-0.356,0.386-0.287,0.625-0.169   c0.037,0.277,0.119,0.326,0.234,0.491c0.121,0.173,0.382,0.075,0.23,0.411c-0.224,0.498-0.816,0.003-1.133,0.143   c0.024,0.413,0.489,0.424,0.487,0.758c-0.087-0.024-0.221,0-0.307-0.033c0.12,0.252,0.381,0.359,0.498,0.585   c0.1,0.193,0.087,0.543,0.087,0.772c0,0.456,0.006,0.353-0.365,0.462c-0.227,0.066-0.562,0.279-0.818,0.221   c-0.125-0.027-0.179-0.182-0.282-0.218c-0.061-0.021-0.321-0.023-0.362-0.054c-0.199-0.147-0.226-0.382-0.454-0.583l0.066,0.022   c-0.15-0.092-0.449-0.075-0.572-0.177c-0.104-0.086-0.116-0.5-0.104-0.635c0.314-0.12,0.136-0.436,0.293-0.684   c0.139-0.219,0.48-0.082,0.357-0.388c-0.009-0.022-0.18-0.07-0.222-0.119c-0.059-0.068-0.056-0.176-0.101-0.239   c-0.154-0.213-0.204-0.232-0.47-0.178l-0.044,0.058c-0.632,0.128-1.776-0.669-1.977-1.273c-0.552-0.034-0.731-0.072-1.179-0.266   c-0.404-0.175-0.72-0.377-1.186-0.35c-0.015,0.478,0.489,0.416,0.621,0.79c0.057,0.159-0.17,0.846-0.235,1.097   c-0.227,0.134-0.479,0.239-0.738,0.148l0.044,0.036c-0.938,0.205-1.875-0.294-2.794-0.397c-1.021-0.116-2.1-0.023-3.061,0.352   c0.049-0.05,0.093-0.106,0.147-0.151c-0.063,0.036-0.101,0.099-0.147,0.151c0.138,0.067,0.26,0.165,0.357,0.283   c-0.473,0.134-1.611-0.383-1.846,0.272c-0.146,0.408,0.53,0.858,0.089,1.216c0.111,0.055,0.175,0.015,0.186-0.109   c-0.611,0.803,0.616,1.348,1.162,1.62c0.136,0,0.272,0,0.409,0c0.272,0,0.545-0.272,0.818-0.409c0.954-0.136,1.772,0.409,2.727,0   c-0.078,0.089-0.183,0.118-0.296,0.082c0.092-0.046,0.193-0.074,0.296-0.082c-0.053,0.151-0.1,0.308-0.101,0.469l-0.211,0.129   c0.248,0.41-0.143,0.816,0.487,1.047c0.128,0.475-0.298,0.479-0.484,0.773c-0.215,0.339-0.032,0.758-0.052,1.126   c-0.019,0.333-0.175,0.61-0.139,0.964c0.037,0.363,0.122,0.53,0.044,0.89c-0.098,0.453-0.122,0.451,0.137,0.874   c0.217,0.354,0.508,0.713,0.738,1.089c0.368,0.604,0.783,1.115,1.35,1.555c-0.232,0.664-0.355,0.787-0.125,1.439   c0.548,0.087,0.848,0.484,1.073,0.96c0.192,0.405,0.701,1.021,0.774,1.465c0.046,0.285-0.011,0.425,0.045,0.714   c0.055,0.284,0.134,0.546,0.201,0.821c0.099,0.407,0.09,0.691,0.57,0.677c0.253-0.008,0.847-0.1,1.101-0.177   c0.324-0.098,0.705-0.373,1.043-0.546c0.231-0.119,0.395-0.168,0.636-0.218c0.095-0.02,0.198,0.025,0.32-0.008   c0.061-0.017,0.147-0.117,0.216-0.146c0.274-0.116,0.621-0.25,0.912-0.315c-0.008-0.035,0.033-0.093,0.046-0.118   c-0.03-0.035-0.062-0.069-0.09-0.102c0.355-0.455,1.279-0.948,1.862-0.916c0.002-0.135,0.152-0.485,0.267-0.552   c0.131-0.076,0.306,0.066,0.469-0.041c0.108-0.072,0.098-0.326,0.236-0.437c0.09-0.072,0.316-0.027,0.437-0.108   c0.042-0.311,0.019-0.654,0.153-0.942c0.282,0.582,0.857-0.162,0.94-0.504c-0.023,0.093-0.054-0.339-0.053-0.331   c-0.005-0.058,0.125-0.166,0.106-0.263c-0.039-0.203-0.371-0.313-0.505-0.42c-0.171-0.137-0.312-0.347-0.498-0.478   c-0.218-0.153-0.509-0.055-0.694-0.271c-0.131-0.152-0.118-0.358-0.169-0.546c-0.055-0.206-0.167-0.417-0.192-0.721   c-0.061,0.035-0.207,0.133-0.257,0.174c0,0.135-0.073,0.254-0.059,0.394c-0.111,0.008-0.192,0.098-0.304,0.107   c0.054,1.143-1.157,0.553-1.818,0.76c-0.007-0.277-0.005-1.044-0.14-1.269c-0.422-0.704-0.276,0.672-0.312,0.763   c-0.004-0.25-0.36-0.58-0.502-0.725c0.056-0.323,0.098-0.341-0.098-0.595c-0.081-0.106-0.26-0.029-0.333-0.11   c-0.075-0.084-0.039-0.269-0.089-0.379c-0.233-0.515-0.24-0.868-0.802-1.056c0.041-0.032,0.067-0.057,0.123-0.087   c-0.041-0.144,0.01-0.254,0.05-0.395c0.083,0.047,0.274,0.042,0.359,0.08c0.008-0.073,0.058-0.154,0.064-0.218   c0.163,0.123,0.316,0.06,0.5,0.132c0.289,0.113,0.229,0.049,0.432,0.32c0.256,0.342,0.281,0.626,0.155,1.036   c0.402,0.057,0.661-0.015,1.039,0.1c0.34,0.104,0.369,0.127,0.656,0.363c0.215,0.178,0.478,0.371,0.726,0.311   c0.296-0.071,0.46-0.446,0.8-0.483c0.893-0.099,0.244,0.829,0.625,1.185c0.271,0.255,0.874,0.063,1.198,0.092   c0.489,0.043,0.939,0.446,1.45,0.338c0.251-0.053,0.359-0.171,0.593-0.205c0.177-0.025,0.437,0.045,0.634,0.033   c0.478-0.029,0.925-0.31,1.228,0.044c0.333,0.39,0.252,0.646,0.812,0.874c-0.544,0.702,0.792,0.37,0.998,0.361   c0.065,0.542-0.492,0.379-0.761,0.573c0.184,0.272,0.322,0.772,0.68,0.897c0.283,0.099,0.407-0.283,0.713-0.12   c0.121-0.13,0.286-0.186,0.461-0.184c-0.053-0.155-0.045-0.336-0.042-0.513c0.022,0.191,0.211,0.297,0.405,0.304   c-0.041,0.027-0.062,0.063-0.124,0.09c-0.011,0.179,0.019,0.39-0.041,0.55c-0.046,0.125-0.275,0.131-0.291,0.306   c-0.019,0.203,0.289,0.35,0.357,0.51c0.065,0.151,0.049,0.281,0.067,0.444c0.044,0.382,0.002,0.785,0.036,1.175   c0.045,0.522,0.272,0.732,0.544,1.13c0.24,0.352,0.223,0.679,0.365,1.058c0.143,0.38,0.445,0.646,0.581,1.036   c0.188,0.542,0.271,1.256,0.621,1.725c0.496,0.662,0.762-0.408,1.116-0.761c0.261-0.26,0.454-0.27,0.416-0.719   c0.349-0.116,0.31-1.72,0.312-2.055c0.001-0.304,0.156-0.727,0.376-0.942c0.184-0.18,0.768-0.235,0.613-0.555   c0.397-0.33,0.779-0.707,1.182-1.046c0.317-0.268,0.465-0.604,0.738-0.916c0.389,0.606,0.602-0.411,0.646-0.548   c0.107-0.334,0.15-0.162,0.356-0.411c0.097-0.117,0.124-0.274,0.19-0.44c0.052,0.104,0.191,0.222,0.261,0.321   c0.022-0.057,0.144-0.152,0.17-0.216c0.261,0.198,0.54,0.148,0.556-0.23c0.16,0.106,0.373,0.123,0.552,0.15   c-0.055-0.181-0.398-1.122,0.066-0.882c-0.049,0.137-0.052,0.302-0.067,0.442c0.06-0.028,0.203-0.014,0.263-0.037   c0.037,0.281,0.319,0.576,0.412,0.906c0.143,0.505,0.218,0.453,0.592,0.736c0.738,0.557,0.837,1.529,0.954,2.372   c0.296,0.073,0.457,0.221,0.647-0.149c0.122,0.11,0.286,0.15,0.438,0.031c0.001-0.211,0.011-0.46,0.099-0.638   c0.071,0.257,0.148,0.399,0.275,0.646c0.086,0.168,0.168,0.317,0.214,0.498c0.099,0.395,0.111,0.704,0.25,1.094   c0.117,0.327,0.282,0.744,0.318,1.089c0.026,0.254-0.159,0.832,0.117,0.963c0.008,0.49-0.619,0.874-0.403,1.458   c0.298-0.201,0.472,0.158,0.603,0.397c0.082,0.149,0.125,0.377,0.216,0.504c0.056,0.08,0.19,0.065,0.226,0.131   c0.105,0.197,0.103,0.528,0.229,0.774c0.133,0.259,0.334,0.456,0.466,0.724c0.235,0.478,0.574,1.386,1.171,1.542   c0.627,0.163,0.506-0.702,0.006-0.774c-0.115-0.677,0.157-1.409-0.37-1.917c-0.426-0.409-1.035-0.575-1.459-0.985   c0.121-0.113,0.105-0.21,0.134-0.355c-0.354-0.07-0.18-0.553-0.578-0.516c-0.052-0.412,0.123-0.895,0.175-1.311   c0.062-0.496,0.095-1,0.235-1.493c0.469-0.151,0.249,0.287,0.411,0.486c0.126,0.157,0.394,0.17,0.583,0.314   c0.271,0.208,0.54,1.058,0.944,0.741c0.125,0.394,0.387,0.263,0.542,0.498c0.125,0.189,0.083,0.542,0.16,0.767   c0.34-0.045,0.444-0.162,0.71-0.349c-0.014-0.015-0.075-0.039-0.091-0.052c0.021-0.062,0.094-0.305,0.13-0.334   c0.184-0.147,0.21,0.041,0.421,0.012c0.271-0.036,0.59-0.158,0.785-0.364c0.308-0.327,0.297-0.841,0.35-1.331   c0.048-0.442,0.165-1.13-0.132-1.489c-0.111-0.135-0.323-0.157-0.467-0.358c-0.135-0.189-0.244-0.372-0.378-0.546   c-0.25-0.325-0.596-0.604-0.791-0.956c-0.188-0.337-0.023-0.815,0.144-1.182c0.259-0.573,1.158-1.155,1.663-0.686   c-0.001-0.055,0.018-0.119,0.018-0.172c0.023,0.002,0.09,0.081,0.093,0.079c0.534-0.132,0.105,0.37,0.223,0.543   c0.014,0.02,0.147,0.159,0.175,0.178c0.139-0.148,0.165-0.373,0.142-0.571c0.572-0.023,1.044-0.209,1.535-0.506   c-0.089-0.227,0.065-0.503,0.269-0.632c0.067,0.681,0.696,0.264,1.054,0.131c0.384-0.142,0.73-0.215,0.875-0.675   c0.01-0.002,0.103,0.029,0.116,0.032c0.154-0.22,0.513-0.117,0.425-0.532c0.316-0.058,0.039-0.394,0.219-0.604   c0.083,0.105,0.221,0.128,0.312,0.182c-0.012-0.078,0.025-0.182,0.014-0.26c0.299-0.021,0.362-0.345,0.364-0.59   c0.483,0.103,0.216-0.349,0.521-0.413c0.004-0.169,0.023-0.127,0.091-0.273c-0.084-0.25,0.052-0.477,0.106-0.717   c0.016,0.054,0.043,0.103,0.056,0.158c0.203-0.235,0.081-0.444,0.122-0.709c-0.174,0.048-0.383,0.115-0.578,0.077   c0.012-0.302,0.601-0.519,0.853-0.627c-0.182-0.57-1.055-0.242-1.311-0.722c0.377-0.033,0.735,0.178,1.127,0.167   c-0.064-0.239-0.331-0.132-0.485-0.308c-0.083-0.094-0.124-0.54-0.18-0.684c-0.082-0.207-0.146-0.368-0.25-0.554   c-0.079-0.142-0.02-0.188-0.125-0.297c-0.09-0.095-0.245-0.017-0.321-0.138c-0.177-0.28,0.488-0.706,0.731-0.908   c0.236-0.195,0.922-0.311,0.899-0.698c-0.107,0.013-0.374,0.106-0.493,0.052c-0.195-0.087-0.045-0.191-0.18-0.32   c-0.188-0.181-0.351-0.307-0.63-0.219c-0.052,0.282-0.244,0.668-0.591,0.577c-0.015-0.249,0.059-0.529-0.133-0.705   c-0.028,0.023-0.015,0.055-0.052,0.081c-0.125-0.07-0.577-0.456-0.585-0.597c-0.018-0.269,0.271-0.387,0.479-0.233   c0.338-0.288,0.83-0.502,1.251-0.762c0.218-0.135,0.42-0.596,0.75-0.31c0.365,0.316-0.25,0.553-0.209,0.845   c0.027,0,0.093-0.004,0.116,0.003c-0.462,0.386,0.366,0.102,0.537,0.003c0.328-0.189,0.515-0.254,0.886-0.237   c0.283,0.013,0.458-0.044,0.58,0.237c0.02,0.046-0.094,0.632-0.135,0.722c-0.182-0.051-0.236-0.017-0.305,0.181   c0.261-0.027,0.523,0.042,0.64,0.271c0.256,0.023,0.357,0.23,0.624,0.199c-0.072,0.071-0.107,0.224-0.175,0.3   c0.059,0.011,0.118,0.047,0.177,0.061c-0.008,0.106-0.005,0.167-0.079,0.256c-0.064-0.208-0.116-0.122-0.229-0.21   c-0.009,0.189-0.009,0.387,0,0.578c0.596-0.017-0.543,1.026,0.258,0.954c0.019-0.293,0.557-0.297,0.782-0.356   c0.449-0.118,0.496-0.048,0.497-0.453c0.001-0.325-0.048-0.588-0.125-0.876c-0.096-0.359-0.232-0.42-0.455-0.719   c-0.113-0.151-0.367-0.554-0.375-0.734c-0.017-0.385,0.454-0.545,0.73-0.751c0.47-0.351,0.389-0.968,0.935-1.203   c-0.349-0.564,0.289-0.534,0.379-0.945c0.003-0.011,0.004-0.022,0.006-0.033l0.578,0.099c0.1,0.115,0.373,0.524,0.509,0.388   c1.227-0.545,1.909-1.636,2.863-2.727c0.681-0.818,1.228-1.772,1.09-2.863c0-0.272,0.273-0.545,0.38-0.81   c0.238-0.458,0.108-0.646-0.232-1c0.462,0.253-0.154-0.658-0.251-0.757c-0.262-0.267-0.592-0.457-0.888-0.141   c-0.209,0.222-0.233,0.538-0.606,0.554c0.038-0.105,0.037-0.218-0.002-0.323c-0.119,0.055-0.234,0.119-0.345,0.188   c0.036-0.303,0.036-0.44,0.036-0.712c-0.136-0.273-0.681-0.136-0.545-0.273c0.818-1.363,2.182-2.454,3.545-3.136   c0.955-0.545,2.182-0.137,3.272-0.272c0.137,0,0.273-0.273,0.409-0.409c0.41-0.137,0.41,0.136,0.443,0.226   c0.112-0.133,0.077-0.128,0,0c0.414-0.083,0.774,0.312,1.194,0.184c-0.127,0.135-0.281,0.269-0.477,0.266   c0.031-0.011,0.085-0.014,0.118-0.024c-0.041,0.003-0.069,0.011-0.118,0.024c0.613,0.416,1.158-0.266,1.84-0.13   c0-0.272-0.137-0.409-0.273-0.545c0.881-0.761,2.056-2.59,3.366-1.502c0.025-0.063,0.07-0.124,0.079-0.193   c-0.048,0.235-0.128,0.464-0.239,0.677c0.132,0.002,0.226,0.091,0.235,0.223c0.241-0.568,1.058-0.432,1.195-0.841   c0.272-0.545,0.408-0.682,0.682-0.818c0.273-0.137,0.682,0,0.682,0.272c0,0.136-0.546,0.136-0.546,0.409   c0,0.545-0.409,1.227-1.092,1.195c-0.02,0.066-0.04,0.112-0.027,0.175c0.063-0.082,0.046-0.077,0.027-0.175   c-0.816,0.713-1.498,1.94-2.588,2.077c-1.5,1.364-0.955,3.545-0.409,5.181c0.681-0.136,0.954-0.682,1.09-1.363   c0-0.136,0.545-0.136,0.545-0.273c0.136-0.818,0.545-0.954,1.228-1.09c0.136-0.409,0-1.091,0.443-1.368   c0.049,0.119,0.059,0.248,0.065,0.376c0.5-0.021-0.023-0.625-0.03-0.824c-0.004-0.141,0.656-0.804,0.144-0.803   c-0.183,0-0.511,0.639-0.575,0.066c-0.048-0.425,0.426-0.978,0.665-1.269c-0.411-0.21,0.486-0.29,0.608-0.289   c0.472,0.004,0.551-0.424,1.027-0.489c-0.01,0.135-0.034,0.267-0.058,0.399c0.396-0.126,0.717-0.481,1.154-0.472   c-0.042,0.026-0.083,0.052-0.125,0.08c0.245,0.03,0.535-0.175,0.765-0.047c0.183,0.101,0.181,0.355,0.317,0.499   c0.091-0.496,0.674-0.684,1.076-0.854c0.65-0.274,1.261-0.628,1.898-0.931c0.324-0.153,0.682-0.352,1.037-0.42   c0.353-0.068,0.526,0.218,0.822,0.209c0.568-0.016,0.209-0.925-0.275-0.871c0.483-0.463-0.575-0.439-0.51-0.85   c-0.329-0.01-0.63-0.119-0.886-0.314c0.42-0.093,0.772-0.072,1.201-0.037c0.196,0.017,1.285,0.001,0.97-0.376   c0.147,0.066,0.314,0.036,0.408-0.099c-0.114-0.08-0.23-0.157-0.355-0.217c0.166-0.054,0.185-0.218,0.127-0.366   c0.101-0.013,0.2-0.033,0.298-0.061c-0.043-0.063-0.035-0.147-0.077-0.21c0.215-0.034,0.627-0.031,0.68,0.25   c0.05,0.267-0.329,0.329-0.261,0.6c0.379-0.198,0.931-0.214,1.331-0.058c0.363,0.142,0.354,0.47,0.625,0.701   c0.44,0.374,1.35,0.33,1.577-0.266c-0.139,0.029-0.274-0.018-0.354-0.136c0.314,0.083,0.11-0.197,0-0.29   c-0.107-0.092-0.442-0.219-0.102-0.299c0.396-0.094,0.892,0.728,1.006-0.05c-0.001,0.065,0.005,0.099-0.014,0.163   c-0.052-0.293,0.226-0.104,0.377-0.076c0.145-1.05-1.144-0.846-1.793-1.051c0.049,0.087,0.134,0.15,0.225,0.16   c-0.063-0.065-0.143-0.121-0.225-0.16c0.288,0.226,0.326,0.805-0.131,0.745c-0.485-0.064-0.593-0.738-0.784-1.088   c-0.485-0.888-1.621-0.885-2.487-1.156c-0.506-0.159-0.916-0.479-1.407-0.664c-0.488-0.183-1.007-0.251-1.523-0.305   c-0.508-0.053-1.022-0.086-1.519-0.209c-0.231-0.058-0.302-0.113-0.493,0.02c-0.11,0.077-0.115,0.192-0.227,0.3   c0.713,0.469-0.109,1.324-0.681,0.818c-0.122-0.108-0.198-0.297-0.328-0.416c-0.064-0.058-0.165-0.09-0.218-0.145   c-0.036-0.038,0.013-0.174-0.052-0.206c-0.326-0.164-0.153,0.334,0,0c-0.328,0.191-0.153,0.334,0,0   c-0.356,0.221-0.766,0.084-1.175,0.221c-1.09,0.136-2.181-0.137-3.272-0.137c-0.136,0-0.272-0.136-0.272-0.272   c-0.136-0.682-0.681-1.227-1.364-1.227c-0.955,0-1.909,0.409-2.857,0.31c0.135-0.062,0.303-0.068,0.442-0.022   c-0.135,0.04-0.298,0.027-0.442,0.022c0.157-0.144,0.111-0.389-0.125-0.442c-0.18-0.041-0.215,0.142-0.36,0.163   c-0.25,0.036-0.191-0.153-0.364-0.299c-0.188-0.159-0.472-0.125-0.7-0.102c0.072-0.121,0.179-0.218,0.312-0.265   c-0.276-0.347-0.919-0.483-1.335-0.368c-0.436,0.12-0.708,0.594-1.208,0.497c0.145-0.107,0.289-0.217,0.41-0.351   c-0.304-0.019-0.604,0.053-0.908,0.03c0.335-0.5,1.118-0.173,1.452-0.673c-0.963-0.343-1.97,0.196-2.946-0.038   c0.134,0.417-0.791,0.244-1.003,0.308c0.018,0.042,0.035,0.083,0.051,0.124c0.205-0.132,0.6-0.264,0.711,0.052   c-0.193,0.08-0.37,0.2-0.577,0.243c0.101,0.205,0.287,0.359,0.068,0.529c-0.213,0.165-0.658-0.036-0.886-0.075   c0.013,0.18,0.002,0.365-0.061,0.535c-0.173-0.315-0.445-0.587-0.718-0.587c-0.818,0-1.5,0-2.302-0.262   c-0.185,0.067-0.16,0.348-0.377,0.411c0.377,0.653-0.571,0.419-0.853,0.29c-0.322-0.147-1.084-0.573-1.141-0.977   c0.165,0.042,0.614,0.144,0.661-0.119c0.046-0.254-0.272-0.129-0.412-0.206c-0.388-0.212,0.035-0.108,0.083-0.215   c0.064-0.142-0.207-0.351,0.113-0.341c-0.409-0.459-1.056-0.201-1.56-0.42c-0.256-0.111-0.416-0.384-0.718-0.364   c-0.267,0.017-0.445,0.274-0.714,0.302c0.273,0.456-0.499,0.64-0.778,0.402l0.178-0.013c0.067,0.026,0.133,0.062,0.196,0.098   c-0.076-0.004-0.153-0.002-0.229-0.015c0.076,0.008,0.152,0.01,0.229,0.015c-0.794-0.203-1.631-0.092-2.421-0.313   c0.042,0.03,0.083,0.058,0.126,0.086c-0.025-0.209,0.083-0.406,0.239-0.541c-0.955-0.136-1.772,0.273-2.793,0.433   c-0.127-0.057-0.342-0.374-0.264-0.483c-0.434,0.4-0.823-0.246-1.267-0.166c-0.398,0.072-0.062,0.299,0.186,0.305   c-0.608,0.146-1.238,0.263-1.813,0.515c-0.426,0.187-0.933,0.616-1.42,0.382c0.648-0.805,1.765-0.807,2.548-1.41   c-0.068-0.062-0.143-0.118-0.222-0.167c0.605-0.266,1.25-0.425,1.838-0.731c0.15-0.079,0.432-0.179,0.438-0.382   c0.01-0.262-0.409-0.378-0.595-0.438c0.256,0.046,0.506,0.139,0.77,0.122c-1.081-0.839-2.594-1.25-3.904-0.727   c0.059,0,0.117,0.001,0.176,0c-0.244-0.133,0.178-0.523-0.204-0.61c-0.294-0.068-0.481,0.417-0.796,0.385   c0.081-0.101,0.156-0.206,0.225-0.315c-0.209-0.009-0.695,0.042-0.796-0.203c-0.163-0.39,0.483-0.418,0.706-0.396   c-0.277-0.646-1.895-0.119-2.179,0.34c-0.25,0.405,0.323,0.354,0.307,0.667c-0.024,0.45-1.151,0.182-1.384,0.187   c0.449-0.153-0.043,0.345-0.203,0.413c-0.543,0.232-1.24,0.067-1.805,0.033c0.072-0.181,0.247-0.289,0.436-0.313   c-0.488,0.006-0.98,0.033-1.457,0.143c0.147-0.091,0.336-0.061,0.432,0.087c-0.865,0.693-1.819,0.42-2.637,0.557   c-1.091,0.136-1.364,1.227-2.045,1.772c-0.545,0.682-1.5,0-2.318,0.137c-0.545,0.136-0.818,0.818-0.588,1.201   c-0.035-0.19-0.111-0.371-0.208-0.539c0.059,0.184,0.131,0.362,0.208,0.539c0.018-0.082,0.041-0.162,0.043-0.246   c-0.085,0.421,0.647,0.312,0.874,0.363c0.193,0.042,0.419,0.159,0.197,0.256c-0.061,0.026-0.145-0.196,0.007-0.184   c0.114,0.009,0.16,0.069,0.132,0.189c-0.073,0.32-0.845,0.208-1.063,0.171c-0.567-0.095-1.143-0.571-1.729-0.303   c0.067,0.093,0.147,0.1,0.227,0.017c-0.147-0.039-0.24,0.038-0.145,0.17c-0.053-0.001-0.106-0.008-0.157-0.022   c0.053,0.002,0.106,0.01,0.157,0.022c-0.293-0.001-1.389-0.068-0.954,0.409c0.362,0.397,1.243,0.17,1.363,0.818   c-0.516-0.055-0.074-0.265,0,0c-0.681-0.273-1.636-0.137-2.181-0.818c0-0.136,0.409-0.545,0.272-0.818l-0.272-0.137   c-1.091,0.682-0.682,2.182-0.409,3.136c0.681,0,1.636-0.272,2.045,0.546c0,0.136,0,0.273,0.025,0.343   c0.065,0.5,0.317,0.562,0.793,0.475c-0.52,0.54-1.107,0.041-1.397-0.447c-0.314-0.53-0.644-0.731-1.24-0.42   c0.256,0.562,0.35,0.001,0,0c0.183,0.322,0.319,0.458,0.183,0.73c-0.545,0.955-1.772,2.182-3,1.364   c0-0.136-0.137-0.136-0.137-0.272s0.137-0.273,0.137-0.273c1.09,0.136,2.182-0.409,2.454-1.5c0-0.136-0.137-0.273-0.137-0.273   c-0.272,0-0.409,0-0.738-0.101c0.037,0.018,0.076,0.033,0.115,0.045c0.214-0.762,0.078-1.58-0.332-2.262   c-0.136-0.273,0.136-0.546,0.136-0.818c0-0.273-0.272-0.409-0.409-0.545c-1.227-0.409-1.636,1.091-2.566,1.678   c-0.01,0.146,0.149,0.155,0.249,0.094c-0.022,0.427-0.132,0.858,0.153,1.225c0.202,0.26,0.56,0.396,0.438,0.792   c0.157-0.108,0.346-0.169,0.537-0.159c-0.038,0.188-0.038,0.324-0.038,0.46l-0.272,0.137"></path></g></svg>