<svg height='100px' width='100px'  fill="#000000" xmlns="http://www.w3.org/2000/svg" xmlns:xlink="http://www.w3.org/1999/xlink" version="1.1" x="0px" y="0px" viewBox="0 0 100 100" enable-background="new 0 0 100 100" xml:space="preserve"><g><path d="M81.793,56.214c-0.066-0.122-0.059-0.268,0.019-0.382l10.003-14.631c0.084-0.123,0.146-0.256,0.187-0.398l2.452-8.647   c0.118-0.416,0.037-0.851-0.222-1.194c-0.352-0.465-0.984-0.661-1.54-0.47l-6.27,2.17c-0.038,0.014-0.081,0.019-0.187,0.014   l-1.99-0.373c-0.072-0.014-0.14-0.049-0.191-0.101l-5.373-5.384l-9.781-15.047c0.297-0.326,0.422-0.782,0.323-1.222L68.47,7.209   c-0.172-0.763-0.992-1.237-1.74-1.003l-1.386,0.433c-0.034,0.011-0.072,0.016-0.169,0.012l-1.724-0.288   c-0.398-0.067-0.805,0.048-1.11,0.307l-0.946,0.805c-0.066,0.056-0.146,0.089-0.289,0.083l-8.336-1.17   c-0.116-0.018-0.234-0.017-0.351-0.003l-2.245,0.267c-0.373,0.044-0.704,0.234-0.93,0.535s-0.317,0.67-0.257,1.041l0.102,0.629   c0.023,0.145-0.041,0.247-0.081,0.294c-0.094,0.11-0.238,0.158-0.381,0.116L37.89,6.198C37.75,6.158,37.684,6.057,37.658,6   c-0.026-0.057-0.062-0.172-0.001-0.305l0.126-0.277c0.223-0.491,0.136-1.069-0.223-1.473l-1.767-1.988   c-0.326-0.365-0.84-0.532-1.319-0.424l-9.784,2.19c-0.105,0.023-0.207,0.059-0.301,0.105l-5.448,2.654   c-0.127,0.063-0.286,0.043-0.395-0.048c-0.246-0.205-0.556-0.317-0.873-0.317c-0.584,0-1.104,0.37-1.294,0.921l-0.323,0.936   c-0.012,0.036-0.029,0.068-0.051,0.098l-3.476,4.78c-0.169,0.231-0.262,0.517-0.262,0.804v2.409c0,0.07-0.02,0.139-0.058,0.198   l-7.372,11.5C4.603,28.132,4.558,28.594,4.717,29l1.167,2.977c0.018,0.046,0.027,0.097,0.025,0.147l-0.286,7.711   c-0.017,0.478,0.21,0.921,0.607,1.187l4.907,3.271c0.073,0.049,0.126,0.122,0.149,0.207l0.572,2.06   c0.115,0.414,0.423,0.753,0.824,0.908l6.167,2.383c0.25,0.096,0.524,0.118,0.789,0.06l8.02-1.782   c0.099-0.022,0.194-0.055,0.284-0.097l4.867-2.291c0.086-0.041,0.185-0.045,0.272-0.017l1.585,0.529   c0.108,0.036,0.195,0.123,0.231,0.231l0.107,0.322c0.187,0.559,0.707,0.934,1.295,0.934c0.018,0,0.128-0.006,0.146-0.008   l3.287-0.35c0.094,0,0.183,0.035,0.251,0.1l1.506,1.428c0.086,0.083,0.128,0.203,0.11,0.321L40.86,54.17   c-0.073,0.489,0.125,0.982,0.519,1.285l3.438,2.645c0.051,0.039,0.091,0.092,0.116,0.152l3.53,8.678   c0.028,0.067,0.034,0.143,0.019,0.215l-1.889,8.717c-0.07,0.323-0.021,0.661,0.14,0.951l9.497,17.185   c0.03,0.054,0.045,0.114,0.045,0.176v1.155c0,0.332,0.12,0.651,0.338,0.899l1.579,1.806c0.259,0.297,0.634,0.467,1.028,0.467   c0.143,0,0.284-0.022,0.419-0.066l4.129-1.332c0.037-0.012,0.075-0.018,0.115-0.018h2.564c0.398,0,0.776-0.174,1.037-0.478   l7.9-9.217c0.211-0.247,0.328-0.563,0.328-0.889v-3.315c0-0.143,0.08-0.27,0.208-0.331l2.16-1.029   c0.558-0.265,0.869-0.874,0.756-1.48l-0.884-4.801c-0.021-0.114,0.014-0.233,0.095-0.318l5.38-5.664   c0.208-0.217,0.339-0.502,0.37-0.803l0.717-7.031c0.029-0.273-0.026-0.547-0.158-0.791L81.793,56.214z M82.803,68.657   c-0.008,0.082-0.042,0.156-0.099,0.215l-5.381,5.665c-0.3,0.315-0.432,0.761-0.353,1.188l0.884,4.801   c0.03,0.162-0.053,0.325-0.202,0.396l-2.161,1.029c-0.473,0.225-0.779,0.709-0.779,1.233v3.315c0,0.088-0.032,0.173-0.088,0.239   l-7.899,9.215c-0.07,0.082-0.172,0.129-0.279,0.129h-2.564c-0.143,0-0.283,0.021-0.419,0.065l-4.132,1.333   c-0.138,0.043-0.292,0.001-0.387-0.107l-1.581-1.807c-0.058-0.066-0.09-0.151-0.09-0.24v-1.155c0-0.231-0.06-0.461-0.171-0.661   l-9.496-17.184c-0.043-0.077-0.056-0.168-0.037-0.255l1.889-8.719c0.058-0.271,0.034-0.549-0.07-0.803l-3.53-8.677   c-0.091-0.225-0.241-0.421-0.433-0.568l-3.438-2.644c-0.105-0.082-0.159-0.215-0.139-0.346l0.741-4.938   c0.066-0.441-0.087-0.887-0.411-1.194l-1.506-1.428c-0.254-0.242-0.588-0.375-0.939-0.375c-0.018,0-0.129,0.006-0.146,0.008   l-3.287,0.35c-0.158,0-0.297-0.101-0.347-0.25l-0.107-0.322c-0.135-0.406-0.458-0.729-0.864-0.864l-1.585-0.529   c-0.33-0.109-0.7-0.088-1.014,0.06l-4.944,2.317l-8.097,1.791c-0.045,0-0.09-0.008-0.132-0.024l-6.167-2.383   c-0.107-0.042-0.19-0.132-0.221-0.243l-0.572-2.059c-0.087-0.316-0.285-0.59-0.559-0.772l-4.907-3.271   C6.68,40.118,6.619,40,6.623,39.872l0.286-7.711c0.007-0.189-0.024-0.374-0.093-0.549l-1.167-2.977   c-0.042-0.108-0.03-0.232,0.033-0.331l7.373-11.5c0.141-0.22,0.215-0.476,0.215-0.737v-2.409c0-0.077,0.025-0.153,0.07-0.215   l3.476-4.779c0.079-0.108,0.142-0.229,0.188-0.359l0.323-0.938c0.063-0.183,0.227-0.247,0.349-0.247   c0.059,0,0.147,0.015,0.232,0.085c0.403,0.336,1,0.408,1.473,0.179l5.529-2.683L34.772,2.5c0.105,0,0.205,0.045,0.274,0.123   l1.766,1.987c0.096,0.108,0.12,0.264,0.06,0.395l-0.126,0.277c-0.165,0.362-0.163,0.777,0.004,1.139   c0.167,0.361,0.482,0.631,0.865,0.74l10.738,3.068c0.512,0.145,1.073-0.025,1.417-0.43c0.259-0.304,0.371-0.706,0.307-1.102   l-0.102-0.629c-0.016-0.1,0.008-0.198,0.069-0.279s0.149-0.131,0.249-0.143l2.34-0.267l8.335,1.17   c0.386,0.053,0.78-0.061,1.075-0.312l0.946-0.804c0.067-0.056,0.152-0.091,0.298-0.083l1.725,0.288   c0.211,0.035,0.429,0.02,0.631-0.044l1.386-0.433c0.202-0.063,0.421,0.068,0.466,0.27l0.754,3.34   c0.032,0.14-0.022,0.287-0.138,0.374l-0.171,0.128c-0.21,0.158-0.262,0.452-0.119,0.672l10.024,15.422   c0.053,0.08,0.112,0.153,0.178,0.218l5.325,5.325c0.195,0.195,0.442,0.326,0.714,0.376l1.99,0.373   c0.235,0.045,0.475,0.025,0.699-0.051l6.27-2.17c0.157-0.054,0.318,0,0.414,0.127c0.041,0.053,0.102,0.165,0.058,0.318   l-2.452,8.648c-0.011,0.038-0.028,0.073-0.05,0.106L80.987,55.269c-0.29,0.425-0.318,0.97-0.072,1.422l2.564,4.723   c0.035,0.065,0.05,0.138,0.042,0.212L82.803,68.657z"></path><path d="M93.989,62.657c-0.224-0.496-0.702-0.804-1.247-0.804c-0.466,0-0.895,0.234-1.147,0.627l-1.815,2.824   c-0.031,0.048-0.074,0.09-0.123,0.118l-2.931,1.732c-0.306,0.18-0.527,0.467-0.623,0.811l-0.582,2.095   c-0.099,0.358-0.046,0.747,0.145,1.067l0.98,1.633c0.059,0.099,0.068,0.222,0.025,0.328l-1.121,2.74   c-0.113,0.276-0.132,0.574-0.058,0.861l0.764,2.926c0.093,0.359,0.333,0.669,0.659,0.851l0.766,0.426   c0.202,0.111,0.431,0.171,0.663,0.171c0.117,0,0.234-0.015,0.349-0.045l2.096-0.552c0.497-0.13,0.875-0.522,0.987-1.024   l2.619-11.788c0.016-0.069,0.049-0.131,0.099-0.181l0.483-0.483c0.399-0.399,0.512-1.014,0.279-1.528L93.989,62.657z M94.27,66.283   l-0.482,0.482c-0.184,0.183-0.311,0.414-0.369,0.67l-2.62,11.79c-0.03,0.135-0.131,0.239-0.264,0.274l-2.096,0.552   c-0.092,0.023-0.191,0.012-0.272-0.034l-0.766-0.425c-0.087-0.049-0.152-0.132-0.177-0.229l-0.764-2.926   c-0.02-0.077-0.015-0.157,0.016-0.231l1.121-2.74c0.162-0.396,0.127-0.854-0.093-1.22l-0.979-1.633   c-0.052-0.087-0.066-0.189-0.039-0.287l0.582-2.094c0.025-0.092,0.084-0.169,0.167-0.217l2.934-1.733   c0.181-0.108,0.337-0.259,0.452-0.437l1.816-2.825c0.094-0.146,0.232-0.168,0.307-0.168c0.056,0,0.245,0.016,0.335,0.216   l1.267,2.805C94.407,66.012,94.377,66.176,94.27,66.283z"></path></g></svg>