<svg height='100px' width='100px'  fill="#000000" xmlns="http://www.w3.org/2000/svg" xmlns:xlink="http://www.w3.org/1999/xlink" version="1.1" x="0px" y="0px" viewBox="0 0 100 100" style="enable-background:new 0 0 100 100;" xml:space="preserve"><path d="M58.7119141,71.2089844l-4.3701172,4.3710938c-0.2861328,0.2851562-0.3710938,0.7148438-0.2177734,1.0878906  c0.1542969,0.3740234,0.5175781,0.6181641,0.921875,0.6191406l17.1816406,0.0546875c0.0009766,0,0.0019531,0,0.0029297,0  c0.265625,0,0.5195312-0.1054688,0.7070312-0.2929688c0.1884766-0.1884766,0.2939453-0.4443359,0.2929688-0.7099609  L73.1757812,59.15625c-0.0009766-0.4042969-0.2451172-0.7675781-0.6191406-0.921875  c-0.3701172-0.1533203-0.8017578-0.0683594-1.0878906,0.2177734l-4.3994141,4.4003906l-5.6572266-5.6572266  c-0.375-0.375-1.0390625-0.375-1.4140625,0l-6.9423828,6.9433594c-0.390625,0.390625-0.390625,1.0234375,0,1.4140625  L58.7119141,71.2089844z M60.7050781,59.3164062l5.6572266,5.6572266c0.375,0.375,1.0390625,0.375,1.4140625,0l3.4072266-3.4072266  l0.0439453,13.7724609l-13.7724609-0.0439453l3.3779297-3.3789062c0.390625-0.390625,0.390625-1.0234375,0-1.4140625  l-5.65625-5.65625L60.7050781,59.3164062z"></path><path d="M27.6933594,76.0097656c0.3710938,0.1533203,0.8017578,0.0683594,1.0878906-0.2177734l4.3994141-4.3994141  l5.6572266,5.65625c0.1953125,0.1953125,0.4511719,0.2929688,0.7070312,0.2929688s0.5117188-0.0976562,0.7070312-0.2929688  l6.9423828-6.9423828c0.390625-0.390625,0.390625-1.0234375,0-1.4140625l-5.65625-5.6572266l4.3701172-4.3701172  c0.2861328-0.2851562,0.3710938-0.7148438,0.2177734-1.0878906c-0.1542969-0.3740234-0.5175781-0.6181641-0.921875-0.6191406  l-17.1816406-0.0556641c-0.2226562-0.0136719-0.5214844,0.1044922-0.7099609,0.2929688s-0.2939453,0.4443359-0.2929688,0.7099609  l0.0546875,17.1826172C27.0751953,75.4921875,27.3193359,75.8554688,27.6933594,76.0097656z M42.7949219,58.9501953  l-3.3779297,3.3779297c-0.390625,0.390625-0.390625,1.0234375,0,1.4140625l5.65625,5.6572266l-5.5283203,5.5283203  l-5.6572266-5.65625c-0.1953125-0.1953125-0.4511719-0.2929688-0.7070312-0.2929688s-0.5117188,0.0976562-0.7070312,0.2929688  l-3.4072266,3.4072266l-0.0439453-13.7734375L42.7949219,58.9501953z"></path><path d="M11,47.5h2.2944336l6.0844727,41.6445312C19.4501953,89.6357422,19.8720703,90,20.3681641,90h60.1806641  c0.5048828,0,0.9296875-0.3759766,0.9921875-0.8769531L86.7109375,47.5H89c0.5527344,0,1-0.4472656,1-1v-9.9150391  c0-0.5527344-0.4472656-1-1-1H74.8837891V24.9902344c0-5.9316406-4.8261719-10.7578125-10.7578125-10.7578125h-0.4511719V11  c0-0.5527344-0.4472656-1-1-1H37.3251953c-0.5527344,0-1,0.4472656-1,1v3.2324219h-0.4511719  c-5.9316406,0-10.7578125,4.8261719-10.7578125,10.7578125v10.5947266H11c-0.5527344,0-1,0.4472656-1,1V46.5  C10,47.0527344,10.4472656,47.5,11,47.5z M79.6650391,88H21.2324219l-5.9172363-40.5h69.3807373L79.6650391,88z M38.3251953,12  h23.3496094v5.9150391H38.3251953V12z M27.1162109,24.9902344c0-4.8291016,3.9287109-8.7578125,8.7578125-8.7578125h0.4511719  v2.6826172c0,0.5527344,0.4472656,1,1,1h25.3496094c0.5527344,0,1-0.4472656,1-1v-2.6826172h0.4511719  c4.8291016,0,8.7578125,3.9287109,8.7578125,8.7578125v10.5947266H27.1162109V24.9902344z M12,37.5849609h76V45.5H12V37.5849609z"></path></svg>