<svg height='100px' width='100px'  fill="#000000" xmlns="http://www.w3.org/2000/svg" viewBox="0 0 64 64" x="0px" y="0px"><title>business-bill-ticket-percent-payment-tax-taxes-hand-business and finance </title><g><rect x="40" y="34" width="4" height="2"></rect><rect x="48" y="34" width="4" height="2"></rect><rect x="40" y="42" width="4" height="2"></rect><rect x="48" y="42" width="4" height="2"></rect><rect x="40" y="46" width="4" height="2"></rect><rect x="48" y="46" width="4" height="2"></rect><rect x="40" y="50" width="6" height="2"></rect><rect x="48" y="50" width="4" height="2"></rect><rect x="40" y="54" width="6" height="2"></rect><rect x="48" y="54" width="4" height="2"></rect><rect x="40" y="58" width="6" height="2"></rect><rect x="48" y="58" width="4" height="2"></rect><path d="M61,2H41a.99943.99943,0,0,0-1,1V16.0965L27,8.11487V3a.99943.99943,0,0,0-1-1H8A.99943.99943,0,0,0,7,3V6.55621A3.95435,3.95435,0,0,0,5,6a4.004,4.004,0,0,0-4,4V41.11133a9.04232,9.04232,0,0,0,.9502,4.02539L5.38184,52H3a.99943.99943,0,0,0-1,1v8a.99943.99943,0,0,0,1,1H30a.99943.99943,0,0,0,1-1V53a.99943.99943,0,0,0-1-1h8V50H27.7652q.65752-.97311,1.21576-2H36V46H29.9549q.42581-.98264.7644-2H34V42H31.29694q.23913-.9885.39709-2H52V38H31.92157C31.96875,37.37073,32,36.73822,32,36.10059V32H54V62h2V32h5a.99943.99943,0,0,0,1-1V3A.99943.99943,0,0,0,61,2ZM40,22H37.66364L40,18.19464Zm-6.02014,6H40v2H32.752Zm1.2279-2,1.228-2H40v2Zm1.48108-6.23474a3.89771,3.89771,0,0,1-.94049-3.93182l2.43622,1.49566Zm-2.6903-5.006A5.94943,5.94943,0,0,0,35.61945,21.507L25.57983,37.85864a6.00936,6.00936,0,0,0-6.72546,1.58167l-.38953-.38953A4.96844,4.96844,0,0,1,17,35.51465V35h9a.99943.99943,0,0,0,1-1V10.46265Zm-9.49225,24.848L23.01074,42.043l-2.43609-1.49573A3.9931,3.9931,0,0,1,24.50629,39.60718ZM14.20447,20.83539a3.99312,3.99312,0,1,1,3.92639.98712A5.21914,5.21914,0,0,0,14.20447,20.83539ZM18.707,29.707a5.23543,5.23543,0,0,0,.82892-6.29132,5.984,5.984,0,1,0-7.347-1.8327,5.22031,5.22031,0,0,0-.89593.71L9.63574,23.9502A9.139,9.139,0,0,0,9,24.65912V8.90967A6.0055,6.0055,0,0,0,13.90967,4h6.18066A6.0055,6.0055,0,0,0,25,8.90967V28.09033A6.0055,6.0055,0,0,0,20.09033,33H17.04742a4.94735,4.94735,0,0,1,1.41742-3.05078ZM25,30.142V33H22.142A3.99326,3.99326,0,0,1,25,30.142ZM25,6.858A3.99326,3.99326,0,0,1,22.142,4H25ZM11.858,4A3.99326,3.99326,0,0,1,9,6.858V4ZM3.73926,44.24219A7.03792,7.03792,0,0,1,3,41.11133V10a2,2,0,0,1,4,0V39H9V30.31348a6.95328,6.95328,0,0,1,2.0498-4.94922L12.707,23.707A3.24275,3.24275,0,0,1,17.293,28.293l-.24219.24219A6.95477,6.95477,0,0,0,15,33.48535v2.0293a6.95477,6.95477,0,0,0,2.05078,4.95019l1.48438,1.48438A4.96844,4.96844,0,0,1,20,45.48535V49h2V45.48535a7.024,7.024,0,0,0-.25909-1.875l1.0755.66016a1.00148,1.00148,0,0,0,1.376-.3291L30,34.48224v1.61835A22.74367,22.74367,0,0,1,23.58105,52H7.61816ZM29,60H4V54H29ZM60,30H42V4H60Z"></path><path d="M45,12H57a.99943.99943,0,0,0,1-1V7a.99943.99943,0,0,0-1-1H45a.99943.99943,0,0,0-1,1v4A.99943.99943,0,0,0,45,12Zm1-4H56v2H46Z"></path><path d="M45,20h4a.99943.99943,0,0,0,1-1V15a.99943.99943,0,0,0-1-1H45a.99943.99943,0,0,0-1,1v4A.99943.99943,0,0,0,45,20Zm1-4h2v2H46Z"></path><path d="M57,14H53a.99943.99943,0,0,0-1,1v4a.99943.99943,0,0,0,1,1h4a.99943.99943,0,0,0,1-1V15A.99943.99943,0,0,0,57,14Zm-1,4H54V16h2Z"></path><path d="M45,28h4a.99943.99943,0,0,0,1-1V23a.99943.99943,0,0,0-1-1H45a.99943.99943,0,0,0-1,1v4A.99943.99943,0,0,0,45,28Zm1-4h2v2H46Z"></path><path d="M57,22H53a.99943.99943,0,0,0-1,1v4a.99943.99943,0,0,0,1,1h4a.99943.99943,0,0,0,1-1V23A.99943.99943,0,0,0,57,22Zm-1,4H54V24h2Z"></path></g></svg>