<svg height='100px' width='100px'  fill="#000000" xmlns="http://www.w3.org/2000/svg" xmlns:xlink="http://www.w3.org/1999/xlink" version="1.1" x="0px" y="0px" viewBox="0 0 277.776 260.278" style="enable-background:new 0 0 277.776 260.278;" xml:space="preserve"><g><path d="M215.122,46.901c9.245,0,16.736-7.494,16.736-16.738c0-9.243-7.491-16.736-16.736-16.736   c-4.282,0-8.177,1.621-11.136,4.267l1.878,1.259l-0.819,1.223l8.356,5.962l-1.258,1.873l-10.209-7.267l0.787-1.172L185.899,8.273   l0.661-3.795L179.891,0l-0.997,5.733l3.584,2.406l-0.854,1.271l-3.583-2.408l-4.93,3.094l6.667,4.478l3.263-2.047l16.822,11.3   l0.786-1.172l10.59,6.701l-1.258,1.872l-8.679-5.482l-0.823,1.225l-1.537-1.032c-0.353,1.352-0.559,2.762-0.559,4.224   C198.384,39.407,205.877,46.901,215.122,46.901z"></path><path d="M180.59,81.896h69.061v-1.86V49.186V1.948h-62.791l0.964,0.647l1.225,0.821l-0.254,1.451l-0.14,0.801h57.275v58.21   c-0.67-1.368-1.376-2.608-2.112-3.733c-2.445-3.709-5.305-6.088-7.944-7.406c-2.558-1.29-4.809-1.574-6.144-1.586   c-0.08-0.004-0.156-0.013-0.235-0.013h-28.74c-0.076,0-0.152,0.009-0.229,0.013c-1.337,0.01-3.59,0.291-6.154,1.586   c-3.466,1.72-7.167,5.213-10.059,11.118V16.111L183,15.23l-2.017,1.265l-0.394,0.246v32.444V81.896z M212.125,66.288   c0.965,0.361,1.979,0.55,2.994,0.55h0.003h0.002c1.015,0,2.028-0.189,2.993-0.551l1.613,11.889h-9.219L212.125,66.288z    M236.565,72.267c0.597,1.652,1.163,3.617,1.673,5.909h-2.995v-9.062C235.685,70.018,236.128,71.056,236.565,72.267z    M212.294,57.228h2.828h2.825l1.415,5.58l-0.214,0.338c-1.166,0.972-2.594,1.459-4.029,1.461c-1.434-0.002-2.858-0.488-4.022-1.457   l-0.217-0.342L212.294,57.228z M195.005,69.077v9.099h-2.994C192.895,74.205,193.953,71.229,195.005,69.077z"></path><path d="M114.553,95.239c0.006,0,0.014,0,0.019,0c3.633,0,7.551-0.578,11.397-2.195c5.818-2.401,11.082-7.244,14.756-14.17   c3.724-6.947,6.195-15.956,7.477-27.918c0.236-2.228-0.469-4.337-1.791-5.939l7.004,1.312l0.291-1.556l14.242,2.267l0.331-1.77   l-14.098-3.038l0.291-1.555l-22.345-4.183l-1.001-4.203l-8.856-1.658l1.514,6.35l4.762,0.892l-0.316,1.688l-4.761-0.892   l-3.708,5.373l8.855,1.658l2.454-3.556l5.276,0.987c-2.186,1.226-3.768,3.451-4.054,6.134c-1.479,14.179-4.903,21.93-8.005,25.56   c-1.562,1.85-2.996,2.815-4.52,3.467c-1.521,0.64-3.225,0.942-5.215,0.944c-3.484,0.021-7.717-1.038-11.752-2.334   c-2.028-0.641-4.002-1.321-5.973-1.905c-2.01-0.563-3.891-1.131-6.582-1.174c-0.369,0-0.73,0.034-1.088,0.083   c-0.416-0.069-0.84-0.114-1.274-0.114H49.249c-0.114,0-0.227,0.012-0.34,0.018c-1.8,0.018-4.812,0.403-8.239,2.132   c-5.379,2.668-11.18,8.503-15.236,18.84c-4.105,10.381-6.864,25.386-6.877,48.045c0,4.792,0.133,9.946,0.402,15.452l-5.797,1.82   l0.474,1.509L0,166.304l0.539,1.717l13.871-3.944l0.474,1.509l4.691-1.473c0.23,0.677,0.551,1.309,0.943,1.887l-4.878,5.234   l1.157,1.078l-9.542,10.814l1.317,1.227l10.115-10.277l1.157,1.078l5.455-5.853c0.591,0.139,1.202,0.221,1.831,0.221   c0.157,0,0.315-0.004,0.475-0.014c4.411-0.26,7.775-4.044,7.518-8.455c-0.035-0.611-0.061-1.191-0.092-1.793l1.283-0.403   l0.476,0.164l2.644,2.994l2.087-0.655v86.556c0,6.83,5.537,12.363,12.363,12.363c6.828,0,12.365-5.533,12.365-12.363v-90.271h4.635   v90.271c0,6.83,5.537,12.363,12.363,12.363c6.828,0,12.365-5.533,12.365-12.363V91.398c1.359,0.441,2.88,0.933,4.501,1.418   C104.237,94.026,109.125,95.227,114.553,95.239z M41.521,97.908v49.151l-4.098,1.286l-2.849-3.217   c-0.007-0.768-0.019-1.553-0.019-2.301C34.521,118.612,38.052,105.007,41.521,97.908z"></path><circle cx="68.566" cy="45.596" r="22.5"></circle><rect x="103.247" y="199.612" width="174.529" height="7"></rect><rect x="1.247" y="199.612" width="34.529" height="7"></rect></g></svg>