<svg height='100px' width='100px'  fill="#000000" xmlns="http://www.w3.org/2000/svg" data-name="Layer 1" viewBox="0 0 96 96" x="0px" y="0px"><title>Artboard 82</title><path d="M48,44A17.05612,17.05612,0,0,1,30.92627,27a17.31907,17.31907,0,0,1,.51074-4.1499,1.99986,1.99986,0,1,1,3.88281.96A13.31469,13.31469,0,0,0,34.92627,27a13.07394,13.07394,0,0,0,26.14746,0,13.31469,13.31469,0,0,0-.39355-3.18994,1.99986,1.99986,0,1,1,3.88281-.96A17.31907,17.31907,0,0,1,65.07373,27,17.05612,17.05612,0,0,1,48,44Z"></path><path d="M76.8877,94H19.1123C15.19043,94,12,91.24121,12,87.8501v-36.54C12,45.07373,18.04492,40,25.4751,40h4.58984a2.00025,2.00025,0,0,1,1.46973.64355L48.479,59.00439,64.43945,40.686A1.99951,1.99951,0,0,1,65.94727,40H70.5249C77.95508,40,84,45.07373,84,51.31006v36.54C84,91.24121,80.80957,94,76.8877,94ZM25.4751,44C20.25049,44,16,47.2793,16,51.31006v36.54C16,89.01563,17.42529,90,19.1123,90H76.8877C78.57471,90,80,89.01563,80,87.8501v-36.54C80,47.2793,75.74951,44,70.5249,44H66.85742L50.02979,63.314a1.9996,1.9996,0,0,1-2.97754.04249L29.189,44Z"></path><path d="M32.9248,64a1.99146,1.99146,0,0,1-1.21582-.41309L27.71143,60.52,24.09375,63.293a2.00011,2.00011,0,0,1-2.43359-3.17481l4.835-3.70556a2.00218,2.00218,0,0,1,2.43408.00049l5.21435,4A2,2,0,0,1,32.9248,64Z"></path><path d="M71,64H65a2,2,0,0,1,0-4h6a2,2,0,0,1,0,4Z"></path><path d="M62.36621,25H33.63232A2.00061,2.00061,0,0,1,31.708,23.54541l-5.38428-19A2.00042,2.00042,0,0,1,28.24805,2h39.5039a2.00042,2.00042,0,0,1,1.92432,2.54541l-5.38574,19A2,2,0,0,1,62.36621,25ZM35.14453,21h25.71l4.252-15H30.89355Z"></path><path d="M48,19a6,6,0,1,1,6-6A6.00657,6.00657,0,0,1,48,19Zm0-8a2,2,0,1,0,2,2A2.002,2.002,0,0,0,48,11Z"></path><path d="M48,32c-5.51416,0-10-4.0376-10-9a2,2,0,0,1,4,0c0,2.75684,2.69141,5,6,5s6-2.24316,6-5a2,2,0,0,1,4,0C58,27.9624,53.51416,32,48,32Z"></path><path d="M48,63a1.99265,1.99265,0,0,1-1.41406-.58594l-7-7a1.99926,1.99926,0,0,1,0-2.82812l7-7a1.99926,1.99926,0,0,1,2.82812,0l7,7a1.99926,1.99926,0,0,1,0,2.82812l-7,7A1.99265,1.99265,0,0,1,48,63Zm-4.17139-9L48,58.17139,52.17139,54,48,49.82861Z"></path></svg>