<svg height='100px' width='100px'  fill="#000000" xmlns="http://www.w3.org/2000/svg" data-name="Layer 1" viewBox="0 0 512 512" x="0px" y="0px"><title>due diligence process</title><path d="M352.1,234.954A164.1,164.1,0,0,1,77.39,309.134c-.686-.686-1.361-1.39-2.038-2.091L95.994,286.4a6,6,0,0,0-4.243-10.243H40.727a6,6,0,0,0-6,6v51.024a6,6,0,0,0,10.243,4.243l21.9-21.9c.678.7,1.352,1.406,2.037,2.091a176.063,176.063,0,0,0,244.7,4.163l52.952,52.953a47.3,47.3,0,0,0,3.7,62.737L421.583,488.8a46.052,46.052,0,0,0,65.053,0l1.863-1.862h0a46.054,46.054,0,0,0,0-65.054l-51.328-51.328a47.311,47.311,0,0,0-62.062-4.231L322.089,313.3a175.986,175.986,0,0,0,41.793-164.4,6,6,0,0,0-11.619,3A165.1,165.1,0,0,1,352.1,234.954ZM46.727,318.7V288.159H77.266Zm332.012,60.343a35.316,35.316,0,0,1,49.947,0l51.328,51.328a34.039,34.039,0,0,1,0,48.082l-1.864,1.863a34.039,34.039,0,0,1-48.084,0l-51.328-51.328a35.319,35.319,0,0,1,0-49.945Z"></path><path d="M18.571,221.231a6,6,0,0,0,5.917-7.034A164.1,164.1,0,0,1,284.39,54.4L264.3,74.492a6,6,0,0,0,4.242,10.243h51.024a6,6,0,0,0,6-6V27.71a6,6,0,0,0-10.242-4.242l-22.37,22.37A176.1,176.1,0,0,0,12.667,216.263,6,6,0,0,0,18.571,221.231ZM297.663,58.1l.011-.01L313.565,42.2V72.735H283.026Z"></path><path d="M79.185,167.341a6,6,0,0,0-5.425,5.972v32.293a6,6,0,0,0,5.425,5.973l19.682,1.9a92.894,92.894,0,0,0,9.831,23.366L96.188,251.95a6,6,0,0,0,.378,8.07L119.345,282.8a6,6,0,0,0,8.07.378l15.142-12.54a94.83,94.83,0,0,0,23.331,9.859l1.9,19.685a6,6,0,0,0,5.972,5.424h32.293a6,6,0,0,0,5.972-5.424l1.9-19.682a92.993,92.993,0,0,0,23.367-9.832l15.108,12.51a6,6,0,0,0,8.069-.378l22.778-22.778a6,6,0,0,0,.379-8.07l-12.54-15.143a94.79,94.79,0,0,0,9.86-23.336l19.4-1.893a6,6,0,0,0,5.417-5.972V173.313a6,6,0,0,0-5.425-5.972l-19.682-1.9a92.938,92.938,0,0,0-9.833-23.367l12.512-15.107a6,6,0,0,0-.352-8.043l-22.49-22.779a6,6,0,0,0-8.1-.405l-15.144,12.54a94.846,94.846,0,0,0-23.33-9.859l-1.9-19.684a6,6,0,0,0-5.972-5.425H173.758a6,6,0,0,0-5.972,5.425l-1.9,19.681a92.963,92.963,0,0,0-23.368,9.832l-15.106-12.51a6,6,0,0,0-8.07.378L96.566,118.9a6,6,0,0,0-.378,8.07l12.54,15.142a94.788,94.788,0,0,0-9.858,23.331Zm30.372,4.933a82.937,82.937,0,0,1,11.575-27.425,6,6,0,0,0-.421-7.08l-11.8-14.246,15.054-15.054,14.245,11.8a6,6,0,0,0,7.156.371,80.408,80.408,0,0,1,27.35-11.527,6,6,0,0,0,4.7-5.288l1.785-18.508H200.6l1.784,18.508a6,6,0,0,0,4.7,5.288,82.921,82.921,0,0,1,27.425,11.577,6,6,0,0,0,7.08-.421l14.219-11.776,14.815,15-11.82,14.273a6,6,0,0,0-.371,7.155,80.422,80.422,0,0,1,11.526,27.35,6,6,0,0,0,5.289,4.705l18.508,1.784v21.4l-18.227,1.778a6,6,0,0,0-5.281,4.7,82.936,82.936,0,0,1-11.576,27.425,6,6,0,0,0,.421,7.08L270.9,255.4,255.841,270.45l-14.246-11.8a6,6,0,0,0-7.155-.371,80.4,80.4,0,0,1-27.35,11.527,6,6,0,0,0-4.7,5.288L200.6,293.6H179.208L177.423,275.1a6,6,0,0,0-4.7-5.288,82.923,82.923,0,0,1-27.426-11.577,6,6,0,0,0-7.08.421l-14.246,11.8L108.914,255.4l11.8-14.246a6,6,0,0,0,.372-7.155,80.358,80.358,0,0,1-11.526-27.35,6,6,0,0,0-5.289-4.7L85.76,200.157V178.763l18.508-1.784A6,6,0,0,0,109.557,172.274Z"></path><path d="M189.9,248.8a59.337,59.337,0,1,0-59.337-59.338A59.405,59.405,0,0,0,189.9,248.8Zm0-106.674a47.337,47.337,0,1,1-47.337,47.336A47.391,47.391,0,0,1,189.9,142.123Z"></path></svg>