<svg height='100px' width='100px'  fill="#000000" xmlns="http://www.w3.org/2000/svg" xmlns:xlink="http://www.w3.org/1999/xlink" version="1.1" x="0px" y="0px" viewBox="0 0 100 100" enable-background="new 0 0 100 100" xml:space="preserve"><g><path fill="none" stroke="#000000" stroke-linecap="round" stroke-linejoin="round" stroke-miterlimit="10" d="M25.5,69.75V56.583   H6L7.996,30.25l52.054,1.033l0.45-0.2c-0.116,0.049-0.186,0.237-0.45,0.2c0.556,0.349,0.862,0.885,1.333,1.292   c0.242,0.208,0.168,0.619,0.438,0.853c0.15,0.13,0.75-0.061,0.979,0.022c0.522,0.189,0.388,0.576,1.071,0.604   c0.534,0.022,1.083-0.553,1.759-0.486c0.276-0.857,4.125-0.633,5.241-0.809c1.784-0.281,0.713-0.308,1.917,1.003   c0.403,0.439,1.265,0.815,1.859,1.021c0.001,0.099-0.026,0.19-0.081,0.273c1.09-0.028,1.423,0.721,2.26,1.195   c1.019,0.578,1.972,0.503,2.982,0.855c-0.115,0.762-0.524,1.471-0.449,2.286c1.514-0.042,1.141,1.514,1.466,2.488   c0.495,1.48,1.714,1.462,1.971,3.037c0.166,1.018-0.507,2.877,0.034,3.837c0.584,1.036,1.366,0.604,2.174,1.667   c0.9,1.184,0.593,2.433,0.663,3.829c0.06,1.2,0.498,2.342,0.5,3.5c0,0.438-0.348,1.227-0.296,1.528   c0.176,1.019,0.448,0.64,0.93,1.476c0.458,0.792,0.546,2.321,1.674,2.184c-0.054,0.626,0.151,1.426,0.362,1.983   c0.117,0.31-0.37,0.458-0.136,0.796c0.219,0.317,0.658,0.023,0.808,0.191c0.812,0.912,1.854,1.566,2.167,2.915L25.5,69.75z"></path></g></svg>