<svg height='100px' width='100px'  fill="#000000" xmlns="http://www.w3.org/2000/svg" xmlns:xlink="http://www.w3.org/1999/xlink" version="1.1" x="0px" y="0px" viewBox="0 0 64 64" style="enable-background:new 0 0 64 64;" xml:space="preserve"><g><path d="M49.9,25.5H34.5l8.5-8.5h6.2c0.4,0,0.8-0.2,1.1-0.5c0.3-0.3,0.4-0.7,0.3-1.2C48.8,6.4,41,0,32,0S15.2,6.4,13.4,15.3   c-0.1,0.4,0,0.8,0.3,1.2c0.3,0.3,0.7,0.5,1.1,0.5H21l8.5,8.5H14.1c-0.8,0-1.4,0.6-1.4,1.4v35.7c0,0.8,0.6,1.4,1.4,1.4h35.7   c0.8,0,1.4-0.6,1.4-1.4V26.9C51.3,26.1,50.6,25.5,49.9,25.5z M24.9,16.9h5.7v5.7L24.9,16.9z M32,2.8c2.4,0,5.2,4.2,6.1,11.4H25.9   C26.8,7,29.6,2.8,32,2.8z M39.1,16.9l-5.7,5.7v-5.7H39.1z M47.4,14.1h-6.6c-0.5-4.3-1.7-7.8-3.3-10.3C42.2,5.5,45.9,9.3,47.4,14.1z    M26.4,3.8c-1.6,2.5-2.8,6.1-3.3,10.3h-6.6C18.1,9.3,21.8,5.5,26.4,3.8z M48.5,61.2h-33v-33h33V61.2z"></path><path d="M22.5,48.9h5.3v5.3c0,0.8,0.6,1.4,1.4,1.4h5.6c0.8,0,1.4-0.6,1.4-1.4v-5.3h5.3c0.8,0,1.4-0.6,1.4-1.4v-5.6   c0-0.8-0.6-1.4-1.4-1.4h-5.3v-5.3c0-0.8-0.6-1.4-1.4-1.4h-5.6c-0.8,0-1.4,0.6-1.4,1.4v5.3h-5.3c-0.8,0-1.4,0.6-1.4,1.4v5.6   C21.1,48.3,21.7,48.9,22.5,48.9z M23.9,43.3h5.3c0.8,0,1.4-0.6,1.4-1.4v-5.3h2.8v5.3c0,0.8,0.6,1.4,1.4,1.4h5.3v2.8h-5.3   c-0.8,0-1.4,0.6-1.4,1.4v5.3h-2.8v-5.3c0-0.8-0.6-1.4-1.4-1.4h-5.3V43.3z"></path></g></svg>