<svg height='100px' width='100px'  fill="#000000" xmlns="http://www.w3.org/2000/svg" xmlns:xlink="http://www.w3.org/1999/xlink" version="1.1" x="0px" y="0px" viewBox="0 0 208 176" enable-background="new 0 0 208 176" xml:space="preserve"><g><polygon points="107.8671875,135.9960938 104.4321289,137.3349609 100.9970703,135.9960938 55.7753906,118.3984375    39.137207,125.3173828 104.4321289,150.7265625 169.7246094,125.3173828 153.0869141,118.3984375  "></polygon><polygon points="136.5664063,101.2724609 130.1972656,103.7509766 123.828125,106.2314453 107.8671875,112.4433594    104.4321289,113.7792969 100.9970703,112.4433594 85.0361328,106.2314453 78.6669922,103.7509766 72.2978516,101.2724609    55.7753906,94.84375 39.137207,101.7626953 55.6577148,108.1914063 62.0288086,110.671875 68.3979492,113.1503906    104.4321289,127.1738281 140.4648438,113.1503906 146.8359375,110.671875 153.2050781,108.1914063 169.7246094,101.7626953    153.0869141,94.84375  "></polygon><polygon points="136.5664063,77.7172852 130.1972656,80.1967773 123.828125,82.6762695 107.8671875,88.8867188    107.3056641,89.1054688 104.4321289,90.2246094 101.5585938,89.1054688 100.9970703,88.8867188 85.0361328,82.6762695    78.6669922,80.1967773 72.2978516,77.7172852 55.7753906,71.2880859 39.137207,78.2075195 55.6577148,84.6367188    62.0288086,87.1162109 68.3979492,89.5947266 84.9204102,96.0244141 91.2895508,98.5029297 97.6586914,100.9814453    104.4321289,103.6162109 111.2060547,100.9814453 117.5751953,98.5029297 123.9443359,96.0244141 140.4648438,89.5947266    146.8359375,87.1162109 153.2050781,84.6367188 169.7246094,78.2075195 153.0869141,71.2880859  "></polygon><path d="M62.0288086,63.5610352l6.3691406,2.4780273l16.5224609,6.4306641l6.3691406,2.4780273l6.3691406,2.4794922   l6.7734375,2.6352539l6.7739258-2.6352539l6.3691406-2.4794922l6.3691406-2.4780273l16.5205078-6.4306641l6.3710938-2.4780273   l6.3691406-2.4794922l16.5195313-6.4291992L104.4321289,27.5L39.137207,54.6523438l16.5205078,6.4291992L62.0288086,63.5610352z    M69.3183594,47.9931641c4.34375,0,7.6660156,1.690918,8.1650391,4.0131836c0,0.0014648,0,0.003418,0.0024414,0.0058594h11.2124023   c0.5639648-4.3393555,7.2636719-7.6591797,15.7338867-7.6591797c8.4682617,0,15.168457,3.3198242,15.7319336,7.6591797h11.2148438   c0-0.0024414,0-0.0043945,0-0.0068359c0.5019531-2.3212891,3.8242188-4.012207,8.1679688-4.012207   c4.7138672,0,8.2666016,1.9824219,8.2666016,4.6108398c0,1.9394531-1.9414063,3.5209961-4.8476563,4.2202148   c-1.0332031,0.2485352-2.1826172,0.3920898-3.4189453,0.3920898c-4.3486328,0-7.6728516-1.6948242-8.1679688-4.0205078h-9.46875   h-1.7460938c-0.1689453,1.296875-0.8828125,2.5024414-2.0341797,3.5556641   c-2.6074219,2.3857422-7.4277344,3.9833984-13.1054688,4.0883789v3.7612305v2.4785156   c3.3613281,0.0805664,5.7773438,1.5336914,5.7773438,3.5297852c0,0.4868164-0.1533203,0.9375-0.4189453,1.3481445   c-0.8525391,1.324707-2.9638672,2.1972656-5.6455078,2.1972656c-2.8178711,0-4.9912109-0.9672852-5.7514648-2.4067383   c-0.1899414-0.355957-0.3144531-0.7314453-0.3144531-1.1386719c0-1.8720703,2.1313477-3.2626953,5.1689453-3.4960938v-2.512207   v-3.7612305c-5.6801758-0.1049805-10.5-1.7026367-13.1079102-4.0883789   c-1.1513672-1.0532227-1.8657227-2.2573242-2.0341797-3.5556641h-1.7431641h-9.4692383   c-0.4970703,2.3256836-3.8193359,4.0205078-8.1674805,4.0205078c-1.2373047,0-2.3862305-0.1435547-3.421875-0.3920898   c-2.9057617-0.6992188-4.8476563-2.2807617-4.8476563-4.2202148   C61.0488281,49.9755859,64.6044922,47.9931641,69.3183594,47.9931641z"></path><path d="M93.2202148,55.7167969c2.3164063,1.5732422,6.2993164,2.7709961,11.2119141,2.7709961   s8.894043-1.1977539,11.2104492-2.7709961c1.4121094-0.9594727,2.2099609-2.0585938,2.2099609-3.112793   c0-0.418457-0.1621094-0.8413086-0.4003906-1.262207c-1.1972656-2.1152344-5.2548828-4.0952148-10.8603516-4.5161133   c-0.703125-0.0532227-1.4101563-0.1049805-2.159668-0.1049805c-0.7490234,0-1.4560547,0.0517578-2.1591797,0.1049805   c-5.6108398,0.4208984-9.6679688,2.4018555-10.8632813,4.5170898c-0.237793,0.4208984-0.3999023,0.84375-0.3999023,1.2612305   C91.0097656,53.6582031,91.8076172,54.7573242,93.2202148,55.7167969z"></path><path d="M69.3183594,54.8486328c0.5615234,0,1.081543-0.0439453,1.5786133-0.1040039   c2.1918945-0.2680664,3.7104492-1.0424805,4.1660156-1.7324219c0.0922852-0.1411133,0.1547852-0.2797852,0.1547852-0.4082031   c0-0.8935547-2.3535156-2.2436523-5.8994141-2.2436523c-3.5488281,0-5.9023438,1.3500977-5.9023438,2.2436523   S65.7695313,54.8486328,69.3183594,54.8486328z"></path><path d="M137.9648438,54.7446289c0.5,0.0600586,1.0195313,0.1040039,1.5820313,0.1040039   c3.5458984,0,5.8994141-1.3510742,5.8994141-2.2446289s-2.3535156-2.2436523-5.8994141-2.2436523   c-3.5488281,0-5.9023438,1.3500977-5.9023438,2.2436523c0,0.128418,0.0605469,0.2661133,0.1552734,0.4082031   C134.2529297,53.7011719,135.7734375,54.4765625,137.9648438,54.7446289z"></path><path d="M101.0385742,70.6118164c0.0068359,0.0473633,0.0996094,0.1308594,0.1782227,0.2070313   c0.3813477,0.3676758,1.5253906,0.96875,3.5205078,0.96875c1.6943359,0,2.7744141-0.4428711,3.3037109-0.8032227   c0.2265625-0.1538086,0.3789063-0.2949219,0.3925781-0.3769531c-0.0410156-0.2705078-1.2753906-1.1757813-3.6962891-1.1757813   C102.3193359,69.4316406,101.0825195,70.3369141,101.0385742,70.6118164z"></path></g></svg>