<svg height='100px' width='100px'  fill="#000000" xmlns:dc="http://purl.org/dc/elements/1.1/" xmlns:cc="http://creativecommons.org/ns#" xmlns:rdf="http://www.w3.org/1999/02/22-rdf-syntax-ns#" xmlns:svg="http://www.w3.org/2000/svg" xmlns="http://www.w3.org/2000/svg" xmlns:sodipodi="http://sodipodi.sourceforge.net/DTD/sodipodi-0.dtd" xmlns:inkscape="http://www.inkscape.org/namespaces/inkscape" viewBox="0 0 100 100" version="1.1" x="0px" y="0px"><g transform="translate(0,-952.36216)"><path style="color:#000000;font-style:normal;font-variant:normal;font-weight:normal;font-stretch:normal;font-size:medium;line-height:normal;font-family:sans-serif;text-indent:0;text-align:start;text-decoration:none;text-decoration-line:none;text-decoration-style:solid;text-decoration-color:#000000;letter-spacing:normal;word-spacing:normal;text-transform:none;direction:ltr;block-progression:tb;writing-mode:lr-tb;baseline-shift:baseline;text-anchor:start;white-space:normal;clip-rule:nonzero;display:inline;overflow:visible;visibility:visible;opacity:1;isolation:auto;mix-blend-mode:normal;color-interpolation:sRGB;color-interpolation-filters:linearRGB;solid-color:#000000;solid-opacity:1;fill:#000000;fill-opacity:1;fill-rule:evenodd;stroke:none;stroke-width:8;stroke-linecap:round;stroke-linejoin:round;stroke-miterlimit:4;stroke-dasharray:none;stroke-dashoffset:0;stroke-opacity:1;color-rendering:auto;image-rendering:auto;shape-rendering:auto;text-rendering:auto;enable-background:accumulate" d="m 40.464594,957.36196 a 0.76218433,0.76218433 0 0 0 -0.629632,0.3732 l -2.193294,3.7011 -0.472969,-0.4052 a 0.76218433,0.76218433 0 0 0 -0.874117,-0.083 l -2.19553,1.2548 -3.50502,0.4778 a 0.76218433,0.76218433 0 0 0 -0.51725,0.3122 l -0.6021,0.8429 -1.43379,0 a 0.76218433,0.76218433 0 0 0 -0.44841,0.1459 l -1.72553,1.2548 -3.03541,0.9586 a 0.76218433,0.76218433 0 0 0 -0.46702,0.4171 l -0.66386,1.4941 a 0.76218433,0.76218433 0 0 0 -0.0149,0.5831 l 0.78853,2.05 0.31109,4.6683 -1.16139,2.4676 c -0.14775,0.1032 -0.88049,0.6124 -1.78619,1.3061 -0.49634,0.3802 -0.99962,0.7822 -1.40737,1.1484 -0.20388,0.1831 -0.3833,0.3557 -0.53549,0.528 -0.15218,0.1723 -0.29742,0.2943 -0.38701,0.6527 -0.12994,0.5193 -0.62516,1.7107 -0.62516,1.7107 a 0.76218433,0.76218433 0 0 0 -0.0618,0.3003 l 0,2.1795 -1.62804,4.144 -3.76366,0.9031 a 0.76218433,0.76218433 0 0 0 -0.51315,0.4205 l -0.45995,0.991 a 0.76218433,0.76218433 0 0 0 -0.009,0.6211 l 1.05645,2.4649 a 0.76218433,0.76218433 0 0 0 0.17899,0.2557 l 1.45129,1.3604 -1.4844,2.7709 a 0.76218433,0.76218433 0 0 0 -0.0547,0.59014 l 1.49036,4.7 0,1.3939 -1.30653,1.0453 -1.6645,0.208 a 0.76218433,0.76218433 0 0 0 -0.3750998,1.3564 l 2.6993798,2.1126 a 0.76218433,0.76218433 0 0 0 0.2162,0.1187 l 1.86099,0.6568 3.15635,2.7053 1.50523,1.5053 a 0.76218433,0.76218433 0 0 0 1.18001,-0.1269 l 1.01813,-1.5838 1.03375,-1.0963 a 0.76218433,0.76218433 0 0 0 0.95748,0.9936 l 3.04992,-1.0434 -1.65632,5.4285 -1.72628,3.2371 -3.65016,1.7698 a 0.76218433,0.76218433 0 0 0 -0.40338,0.8842 l 1.86992,6.9304 -0.9638,0.8265 -1.59864,-0.47 a 0.76218433,0.76218433 0 0 0 -0.92547,0.4547 l -0.82128,2.1129 a 0.76218433,0.76218433 0 0 0 0.0759,0.6989 l 0.70443,1.0565 a 0.76218433,0.76218433 0 0 0 0.47036,0.3207 l -0.98836,1.0926 a 0.76218433,0.76218433 0 0 0 -0.11647,0.8521 l 0.93886,1.8781 a 0.76218433,0.76218433 0 0 0 1.19675,0.2211 l 2.66663,-2.4445 0.57159,-0.1269 2.44484,1.3817 a 0.76218433,0.76218433 0 0 0 0.3751,0.099 l 0.48042,0 1.455,0.9351 a 0.76218433,0.76218433 0 0 0 0.7342,0.05 l 1.31396,-0.6129 0.79114,0.6829 2.66924,5.986 a 0.76218433,0.76218433 0 0 0 0.61623,0.4476 l 4.730802,0.4979 a 0.76218433,0.76218433 0 0 0 0.781831,-0.461 l 1.704324,-4.0279 2.118124,-0.8767 a 0.76218433,0.76218433 0 0 0 0.411941,-0.4112 l 0.829834,-1.9916 a 0.76218433,0.76218433 0 0 0 0.04763,-0.4227 l -0.354633,-2.0568 0.68359,-0.8075 a 0.76218433,0.76218433 0 0 0 0.174525,-0.3978 l 0.225507,-1.8063 2.134498,-3.083 a 0.76218433,0.76218433 0 0 0 0.130243,-0.3435 l 0.568976,-4.7646 2.114404,0.3624 a 0.76218433,0.76218433 0 0 0 0.888258,-0.812 l -0.13322,-1.6671 4.987938,-3.9136 15.503764,-6.2677 a 0.76218433,0.76218433 0 0 0 0.130616,-0.068 l 7.635967,-4.9797 a 0.76218433,0.76218433 0 0 0 0.166338,-0.1474 l 7.137693,-8.46584 a 0.76218433,0.76218433 0 0 0 0.146616,-0.2698 l 2.611188,-8.602 1.288662,0.3223 a 0.76218433,0.76218433 0 0 0 0.941473,-0.831 l -0.663867,-5.478 a 0.76218433,0.76218433 0 0 0 -0.383287,-0.5723 l -2.328002,-1.3099 -0.27872,-1.9518 a 0.76218433,0.76218433 0 0 0 -0.306259,-0.5083 l -0.405613,-0.2951 2.591093,-0.4983 a 0.76218433,0.76218433 0 0 0 0.265324,-1.3913 l -3.652016,-2.3239 a 0.76218433,0.76218433 0 0 0 -0.314444,-0.1132 l -2.387915,-0.2984 -3.796772,-3.9553 a 0.76218433,0.76218433 0 0 0 -0.384403,-0.2162 l -4.481851,-0.9958 a 0.76218433,0.76218433 0 0 0 -0.926213,0.6992 l -0.130244,2.2149 -2.295255,0.3825 -5.742976,-0.4655 -1.124929,-1.2656 a 0.76218433,0.76218433 0 0 0 -0.635587,-0.2526 l -3.209189,0.2787 -0.811973,-2.571 a 0.76218433,0.76218433 0 0 0 -0.171549,-0.2929 l -2.656213,-2.8218 a 0.76218433,0.76218433 0 0 0 -0.446921,-0.2322 l -3.322316,-0.4748 -3.855566,-2.4676 -1.069482,-1.8331 a 0.76218433,0.76218433 0 0 0 -0.589437,-0.3751 l -1.601246,-0.1455 -4.470687,-3.5124 a 0.76218433,0.76218433 0 0 0 -0.496784,-0.1626 z m 0.238531,1.8978 3.964599,3.115 a 0.76218433,0.76218433 0 0 0 0.401521,0.1597 l 1.434907,0.1306 0.964171,1.6526 a 0.76218433,0.76218433 0 0 0 0.247462,0.2579 l 4.149544,2.6558 a 0.76218433,0.76218433 0 0 0 0.303281,0.1124 l 3.221469,0.4603 2.353679,2.5007 0.943703,2.9881 a 0.76218433,0.76218433 0 0 0 0.792623,0.5295 l 3.436557,-0.2988 1.073576,1.2079 a 0.76218433,0.76218433 0 0 0 0.508319,0.2535 l 6.141521,0.4979 a 0.76218433,0.76218433 0 0 0 0.187177,-0.01 l 2.987776,-0.4979 a 0.76218433,0.76218433 0 0 0 0.635587,-0.707 l 0.113497,-1.9287 3.383343,0.7521 3.82431,3.9835 a 0.76218433,0.76218433 0 0 0 0.455106,0.2285 l 2.486155,0.3107 1.889641,1.2027 -2.433312,0.4678 a 0.76218433,0.76218433 0 0 0 -0.304026,1.365 l 1.565151,1.1383 0.286534,2.005 a 0.76218433,0.76218433 0 0 0 0.380682,0.5563 l 2.319444,1.3047 0.484505,3.9947 -0.917657,-0.2292 a 0.76218433,0.76218433 0 0 0 -0.913935,0.518 l -2.776409,9.1456 -6.964285,8.26044 -7.480046,4.8778 -15.534652,6.2803 a 0.76218433,0.76218433 0 0 0 -0.184944,0.1068 l -5.394669,4.2329 a 0.76218433,0.76218433 0 0 0 -0.28914,0.6606 l 0.08745,1.0974 -1.938017,-0.3324 a 0.76218433,0.76218433 0 0 0 -0.885653,0.6606 l -0.64154,5.373 -2.133382,3.0816 a 0.76218433,0.76218433 0 0 0 -0.129499,0.339 l -0.220669,1.7672 -0.766946,0.9061 a 0.76218433,0.76218433 0 0 0 -0.168943,0.6218 l 0.377332,2.1885 -0.623678,1.4971 -2.115892,0.8756 a 0.76218433,0.76218433 0 0 0 -0.410824,0.4071 l -1.605711,3.796 -3.732395,-0.393 -2.55946,-5.7403 a 0.76218433,0.76218433 0 0 0 -0.19834,-0.2665 l -1.29276,-1.116 a 0.76218433,0.76218433 0 0 0 -0.82016,-0.1138 l -1.37983,0.6441 -1.28978,-0.8291 a 0.76218433,0.76218433 0 0 0 -0.41231,-0.1209 l -0.50349,0 -2.52522,-1.4275 a 0.76218433,0.76218433 0 0 0 -0.54033,-0.08 l -1.05645,0.2348 a 0.76218433,0.76218433 0 0 0 -0.34943,0.182 l -2.07235,1.8993 -0.25416,-0.5079 1.88034,-2.0787 a 0.76218433,0.76218433 0 0 0 -0.61921,-1.2716 l -1.20085,0.086 -0.23853,-0.3576 0.42422,-1.091 1.32364,0.3892 a 0.76218433,0.76218433 0 0 0 0.71113,-0.1522 l 1.6433,-1.4088 a 0.76218433,0.76218433 0 0 0 0.24002,-0.7771 l -1.83122,-6.7856 3.30594,-1.6027 a 0.76218433,0.76218433 0 0 0 0.33975,-0.3271 l 1.8781,-3.5214 a 0.76218433,0.76218433 0 0 0 0.0566,-0.1362 l 2.11254,-6.9252 a 0.76218433,0.76218433 0 0 0 -0.97533,-0.9438 l -2.878,0.9847 0.89644,-2.2067 a 0.76218433,0.76218433 0 0 0 -1.26075,-0.8097 l -3.87343,4.1082 a 0.76218433,0.76218433 0 0 0 -0.0863,0.1105 l -0.54554,0.8481 -0.857,-0.8574 a 0.76218433,0.76218433 0 0 0 -0.0432,-0.04 l -3.28659,-2.817 a 0.76218433,0.76218433 0 0 0 -0.24226,-0.1399 l -1.87773,-0.6627 -1.15842,-0.9069 0.0603,-0.01 a 0.76218433,0.76218433 0 0 0 0.38142,-0.1612 l 1.76051,-1.4085 a 0.76218433,0.76218433 0 0 0 0.28617,-0.595 l 0,-1.8781 a 0.76218433,0.76218433 0 0 0 -0.0357,-0.2304 l -1.42858,-4.5056 1.60869,-3.00304 a 0.76218433,0.76218433 0 0 0 -0.15034,-0.9158 l -1.76163,-1.6515 -0.85997,-2.0058 0.1615,-0.3483 3.79156,-0.9098 a 0.76218433,0.76218433 0 0 0 0.53139,-0.4626 l 1.82601,-4.6478 a 0.76218433,0.76218433 0 0 0 0.0528,-0.2787 l 0,-2.1728 c 0.0904,-0.2084 0.4614,-1.0737 0.64117,-1.7922 a 0.76218433,0.76218433 0 0 0 3.8e-4,0 c -0.0481,0.1925 -0.0378,0.086 0.0506,-0.014 0.0884,-0.1001 0.23419,-0.2438 0.41157,-0.4031 0.35475,-0.3185 0.83698,-0.7053 1.31583,-1.072 0.95769,-0.7336 1.90154,-1.3903 1.90154,-1.3903 a 0.76218433,0.76218433 0 0 0 0.25416,-0.301 l 1.32811,-2.8222 a 0.76218433,0.76218433 0 0 0 0.0707,-0.3751 l -0.33194,-4.9798 a 0.76218433,0.76218433 0 0 0 -0.0491,-0.2229 l -0.71634,-1.8636 0.39632,-0.8916 2.82627,-0.8923 a 0.76218433,0.76218433 0 0 0 0.21881,-0.1105 l 1.62543,-1.1823 1.57818,0 a 0.76218433,0.76218433 0 0 0 0.62033,-0.3193 l 0.63856,-0.8942 3.32566,-0.4536 a 0.76218433,0.76218433 0 0 0 0.27537,-0.093 l 1.857643,-1.0613 0.754293,0.6464 a 0.76218433,0.76218433 0 0 0 1.151721,-0.1902 l 2.212636,-3.7342 z"></path></g></svg>