<svg height='100px' width='100px'  fill="#000000" xmlns="http://www.w3.org/2000/svg" xmlns:xlink="http://www.w3.org/1999/xlink" version="1.1" x="0px" y="0px" viewBox="0 0 100 100" style="enable-background:new 0 0 100 100;" xml:space="preserve"><style type="text/css">
	.st0{fill:none;stroke:#000000;stroke-width:5;stroke-linecap:round;stroke-linejoin:round;stroke-miterlimit:10;}
</style><path d="M93.96,62.56l0.1,0.03c-0.04-0.01-3.97-1.43-8.11-11.03c-2.1-4.87-4.69-7.94-7.1-9.88c-1.44-1.39-3.32-2.31-5.21-2.87  c-0.52-0.17-0.97-0.27-1.31-0.34C70.83,38.14,69.4,38,68.24,38c0,0,0,0,0,0l-26.78-1.08c-10.62-13.9-12.62-14.57-13.28-14.79  c-1.36-0.46-7.73-1.71-11.68,1.08c-1.49,1.05-2.44,2.52-2.81,4.29L8.7,30.06c-0.86,0.44-1.39,1.34-1.36,2.31  c0.16,4.35,1.92,9.43,6.31,9.43c0,0,0,0,0,0l7.36,0.21c0.35,1.07,0.66,2.59,0.96,4.07c0.95,4.71,2.24,11.05,6.8,15.39v13.55  c-0.11,0.66-0.32,1.48-0.51,2c-2.04,0.61-3.12,2.85-3.12,4.97c0,1.38,1.12,2.5,2.5,2.5h7.57c0.82,0,1.59-0.4,2.06-1.08l3.47-5.01  c0.27-0.39,0.42-0.85,0.44-1.33c0.15-4.16,0.48-9.04,0.82-11.4c5.79-0.14,9.05-0.97,12.49-1.83c2.08-0.53,4.23-1.07,7.15-1.51  c2.43,3.64,5.44,6.61,8.96,8.86l3.67,3.57c-0.04,0.79-0.11,1.57-0.2,2.1c-1.82,0.91-2.65,3.32-2.65,5.14c0,1.38,1.12,2.5,2.5,2.5  h8.08c0.72,0,1.41-0.31,1.88-0.86l2.19-2.51c0.4-0.46,0.62-1.04,0.62-1.64v-9.65c0-0.87-0.45-1.67-1.18-2.13  c-0.04-0.03-4.08-2.62-4.08-6.15c0-1.52-0.03-4.86-0.07-8.03c0,0,0,0.01,0.01,0.01c5.09,11.8,10.4,13.63,11.42,13.88l0,0  c0,0,0,0,0,0c0.2,0.05,0.4,0.07,0.59,0.07c1.13,0,2.15-0.77,2.43-1.91C96.12,64.24,95.3,62.89,93.96,62.56z M30.49,31.22  c-2.06,2.83-3.74,2.83-4.45,2.66c-1.09-0.27-1.68-1.28-1.68-2.1V26.5c0.82,0.07,1.56,0.19,2.04,0.32  C27.09,27.32,28.61,28.99,30.49,31.22z M81.68,71.11v7.44l-0.83,0.95h-2.38c0.69-1.54,0.82-3.74,0.82-5.77  c0-0.67-0.27-1.32-0.76-1.79l-4.64-4.51c-0.13-0.12-0.27-0.23-0.42-0.33c-3.29-2.06-6.07-4.89-8.25-8.41  c-0.29-0.48-1.07-1.73-2.69-1.53c-4.04,0.52-6.82,1.22-9.28,1.84c-3.62,0.91-6.75,1.7-13.08,1.7c-3.18,0-3.55,3.99-3.97,15.47  l-2.31,3.33h-1.25c0.49-0.99,0.86-2.29,1.1-3.89c0.02-0.12,0.03-0.25,0.03-0.38V60.35c0-0.75-0.34-1.46-0.92-1.94  c-3.93-3.2-5.07-8.81-5.98-13.31c-0.57-2.81-1.06-5.24-2.16-6.91c-0.45-0.68-1.2-1.1-2.02-1.12l-8.99-0.25  c-0.4-0.18-0.94-1.51-1.2-3.08l4.64-2.38c0.82-0.42,1.34-1.26,1.36-2.18c0.02-1.12,0.45-1.58,0.87-1.87c0.95-0.67,2.53-0.87,4-0.85  v5.33c0,1.4,1.05,2.72,2.43,3.07c0.2,0.05,0.46,0.09,0.77,0.09c1.07,0,2.74-0.51,4.58-2.93c2.19,2.63,4.76,5.88,7.04,8.88  c0.45,0.59,1.14,0.96,1.89,0.99L68.13,43c1.03,0.01,3.14,0.23,4.96,0.92c0.66,0.29,1.45,0.73,2.31,1.39c0.4,0.4,0.71,0.85,0.87,1.39  c0.02,1.86,0.15,11.94,0.15,14.86C76.42,66.26,79.82,69.62,81.68,71.11z"></path><path class="st0" d="M71.37,40.85c0,0,7.42,0.45,12.28,11.7s9.71,12.44,9.71,12.44"></path><g><path d="M26.01,52.6c-0.73,0.39-1.01,1.29-0.62,2.03c0.39,0.73,1.29,1.01,2.03,0.62c0.09-0.04,8.28-4.29,12.73-0.66v8.54   c0,0.83,0.67,1.5,1.5,1.5s1.5-0.67,1.5-1.5v-9.2c0-0.4-0.16-0.78-0.44-1.06C36.82,46.98,26.45,52.37,26.01,52.6z"></path><path d="M41.27,40.4c0.57-0.6,0.55-1.55-0.06-2.12c-0.6-0.57-1.55-0.54-2.12,0.06c-0.07,0.07-7.07,7.36-14.33,7.36   c-0.83,0-1.5,0.67-1.5,1.5s0.67,1.5,1.5,1.5C33.29,48.7,40.95,40.74,41.27,40.4z"></path><path d="M66.14,39.8c-0.31-0.77-1.19-1.13-1.95-0.82c-1,0.41-9.82,4.17-9.82,9.99l0,1.16c0.02,3.17,0.04,8.47-1.37,9.9   c-0.2,0.2-0.39,0.28-0.67,0.28c-0.83,0-1.5,0.67-1.5,1.5s0.67,1.5,1.5,1.5c1.08,0,2.04-0.4,2.8-1.16c2.3-2.31,2.27-7.47,2.25-12.03   l0-1.15c0-3.23,5.89-6.37,7.96-7.21C66.09,41.44,66.45,40.56,66.14,39.8z"></path></g><path d="M61.23,6.36c-7.03,0-12.74,5.7-12.74,12.74c0,7.03,5.7,12.74,12.74,12.74c7.03,0,12.74-5.7,12.74-12.74  C73.96,12.07,68.26,6.36,61.23,6.36z M67.27,20.6h-4.54v4.54c0,0.83-0.67,1.5-1.5,1.5s-1.5-0.67-1.5-1.5V20.6h-4.54  c-0.83,0-1.5-0.67-1.5-1.5s0.67-1.5,1.5-1.5h4.54v-4.54c0-0.83,0.67-1.5,1.5-1.5s1.5,0.67,1.5,1.5v4.54h4.54  c0.83,0,1.5,0.67,1.5,1.5S68.1,20.6,67.27,20.6z"></path></svg>