<svg height='100px' width='100px'  fill="#000000" xmlns="http://www.w3.org/2000/svg" data-name="Layer 1" viewBox="0 0 128 128" x="0px" y="0px"><title>Miscellaneous 96 expandlines</title><path d="M89.90088,96.94927A1.99988,1.99988,0,0,0,88,95.57037H71.12207l-4.5188-14.01385A7.98831,7.98831,0,0,0,66,66.26336v-3.027l18.89453-9.44727A2.00059,2.00059,0,0,0,86,52.00006v-50a2.0001,2.0001,0,0,0-2-2H44a2.0001,2.0001,0,0,0-2,2v50a2.00059,2.00059,0,0,0,1.10547,1.78906L62,63.23638v3.027a7.98831,7.98831,0,0,0-.60327,15.29315l-4.5188,14.01385H40a1.99991,1.99991,0,0,0-1.18164,3.61328l13.668,10.00684L47.26367,125.3858a1.99992,1.99992,0,0,0,3.085,2.22754L64,117.6192l13.6514,9.99417a1.99992,1.99992,0,0,0,3.08492-2.22757l-5.22266-16.19531,13.668-10.00684A1.99856,1.99856,0,0,0,89.90088,96.94927ZM46,15.23638l16,8V38.76373l-16-8ZM82,30.76373l-16,8V23.23638l16-8Zm-16,28V43.23638l16-8V50.76373Zm16-48-16,8V4.00006H82ZM62,4.00006V18.76373l-16-8V4.00006ZM46,50.76373V35.23638l16,8V58.76373ZM60,74.00006a4,4,0,1,1,4,4A4.00427,4.00427,0,0,1,60,74.00006Zm11.98535,32.81641a1.9996,1.9996,0,0,0-.72168,2.22754l3.772,11.69727-9.854-7.21383a2.05475,2.05475,0,0,0-2.36333,0l-9.854,7.21387,3.772-11.69727a1.9996,1.9996,0,0,0-.72168-2.22754l-9.897-7.24609h12.2168a1.99907,1.99907,0,0,0,1.90332-1.38574L64,86.51666l3.76221,11.668a1.99907,1.99907,0,0,0,1.90332,1.38574h12.2168Z"></path><circle cx="64" cy="105.00006" r="2"></circle></svg>