<svg height='100px' width='100px'  fill="#000000" xmlns="http://www.w3.org/2000/svg" xmlns:xlink="http://www.w3.org/1999/xlink" version="1.1" x="0px" y="0px" viewBox="0 0 100 100" style="enable-background:new 0 0 100 100;" xml:space="preserve"><path d="M87,5H57c-0.1,0-0.3,0-0.4,0c-0.1,0-0.2,0-0.2,0.1c0,0-0.1,0-0.1,0c-0.1,0-0.2,0.1-0.3,0.1c0,0-0.1,0-0.1,0  c-0.1,0.1-0.2,0.2-0.3,0.2l-18,18c-0.1,0.1-0.2,0.2-0.2,0.3c0,0,0,0-0.1,0.1c0,0.1-0.1,0.2-0.1,0.3c0,0,0,0.1,0,0.1  c0,0.1-0.1,0.2-0.1,0.2c0,0.1,0,0.3,0,0.4v18.7c-1.9-0.5-3.9-0.7-6-0.7C16.7,43,5,54.7,5,69c0,14.3,11.7,26,26,26  c8.3,0,15.7-3.9,20.5-10H87c4.4,0,8-3.6,8-8V13C95,8.6,91.4,5,87,5z M55,11.8V19c0,2.2-1.8,4-4,4h-7.2L55,11.8z M31,91  C18.9,91,9,81.1,9,69s9.9-22,22-22s22,9.9,22,22S43.1,91,31,91z M91,77c0,2.2-1.8,4-4,4H54c1.9-3.6,3-7.7,3-12  c0-10.8-6.6-20.1-16-24V27h10c4.4,0,8-3.6,8-8V9h28c2.2,0,4,1.8,4,4V77z M85,69c0,1.1-0.9,2-2,2H65c-1.1,0-2-0.9-2-2  c0-1.1,0.9-2,2-2h18C84.1,67,85,67.9,85,69z M85,59c0,1.1-0.9,2-2,2H65c-1.1,0-2-0.9-2-2c0-1.1,0.9-2,2-2h18C84.1,57,85,57.9,85,59z   M77,40c0-1.7-1.3-3-3-3c-3.9,0-7-3.1-7-7c0-3.2,2.1-5.8,5-6.7V21c0-1.1,0.9-2,2-2s2,0.9,2,2v2.3c2.9,0.9,5,3.5,5,6.7  c0,1.1-0.9,2-2,2s-2-0.9-2-2c0-1.7-1.3-3-3-3s-3,1.3-3,3c0,1.6,1.3,3,3,3c3.9,0,7,3.1,7,7c0,3.2-2.1,5.8-5,6.7V49c0,1.1-0.9,2-2,2  s-2-0.9-2-2v-2.3c-2.9-0.9-5-3.5-5-6.7c0-1.1,0.9-2,2-2s2,0.9,2,2c0,1.6,1.3,3,3,3S77,41.6,77,40z M41.6,61.2c0.8,0.8,0.8,2,0,2.8  L28.9,76.8c-0.4,0.4-0.9,0.6-1.4,0.6c-0.5,0-1-0.2-1.4-0.6l-5.7-5.7c-0.8-0.8-0.8-2,0-2.8c0.8-0.8,2-0.8,2.8,0l4.2,4.2l11.3-11.3  C39.6,60.4,40.8,60.4,41.6,61.2z"></path></svg>