<svg height='100px' width='100px'  fill="#000000" xmlns="http://www.w3.org/2000/svg" data-name="Layer 1" viewBox="0 0 64 64" x="0px" y="0px"><title>Artboard 16</title><path d="M61.77,54.7,48.51,40.15a1.45,1.45,0,0,0,.17-.18,2.62,2.62,0,0,0,0-3,.89.89,0,0,0-.16-.22L29.7,16.06h0L23.47,9.23l-.09-.11-2.29-2.5a5,5,0,0,0-7.39,6.74L37.92,39.91a1,1,0,0,0,.5.3,33.63,33.63,0,0,0,4.13.79l1.7,1.86L43.34,45a1,1,0,0,0,.14,1,73.79,73.79,0,0,0,7.57,8.29c2.23,1.88,6,2.18,8.26,2.18,1,0,1.71-.06,1.8-.07a1,1,0,0,0,.86-.65A1,1,0,0,0,61.77,54.7ZM15.22,12a2.95,2.95,0,1,1,4.35-4l1.92,2.1-2.41,6.11Zm5.4,5.92L23,11.79,27.79,17l-2.41,6.11ZM43.12,39h0a29.79,29.79,0,0,1-3.84-.69L26.92,24.81l2.41-6.12L46.94,38c.19.4.19.63.14.69a.88.88,0,0,1-.38.23.79.79,0,0,0-.22.06A11.36,11.36,0,0,1,43.12,39Zm9.26,13.73a68,68,0,0,1-6.9-7.51l.92-2.15a1,1,0,0,0-.19-1.1l-.75-.82A9,9,0,0,0,46.53,41L58.74,54.42C56.65,54.37,53.88,54,52.38,52.73Z"></path><path d="M44.4,57H3a1,1,0,1,0,0,2H44.4a1,1,0,1,0,0-2Z"></path></svg>