<svg height='100px' width='100px'  fill="#000000" xmlns:dc="http://purl.org/dc/elements/1.1/" xmlns:cc="http://creativecommons.org/ns#" xmlns:rdf="http://www.w3.org/1999/02/22-rdf-syntax-ns#" xmlns:svg="http://www.w3.org/2000/svg" xmlns="http://www.w3.org/2000/svg" xmlns:sodipodi="http://sodipodi.sourceforge.net/DTD/sodipodi-0.dtd" xmlns:inkscape="http://www.inkscape.org/namespaces/inkscape" version="1.1" x="0px" y="0px" viewBox="0 0 100 100"><g transform="translate(0,-952.36218)"><path style="font-size:medium;font-style:normal;font-variant:normal;font-weight:normal;font-stretch:normal;text-indent:0;text-align:start;text-decoration:none;line-height:normal;letter-spacing:normal;word-spacing:normal;text-transform:none;direction:ltr;block-progression:tb;writing-mode:lr-tb;text-anchor:start;baseline-shift:baseline;opacity:1;color:#000000;fill:#000000;fill-opacity:1;stroke:none;stroke-width:1.99999988000000010;marker:none;visibility:visible;display:inline;overflow:visible;enable-background:accumulate;font-family:Sans;-inkscape-font-specification:Sans" d="M 27 20 C 21.8 19.99997 19.202595 21.6456 17.0625 23.15625 C 14.922405 24.6669 13.277778 26 9 26 A 1.0000999 1.0000999 0 0 0 8 27 L 8 43 A 1.0000999 1.0000999 0 0 0 9 44 C 14.091806 43.99997 17.110067 42.43593 19.5 40.9375 C 21.701627 39.55714 23.39886 38.42761 26 38.15625 L 26 79 A 1.0000999 1.0000999 0 1 0 28 79 L 28 21 A 1.0000999 1.0000999 0 0 0 27 20 z M 50 20 C 46.145852 20 43 23.14585 43 27 C 43 30.85415 46.145852 34 50 34 C 53.854148 34 57 30.85415 57 27 C 57 23.14585 53.854148 20 50 20 z M 72.8125 20 A 1.0000999 1.0000999 0 0 0 72 21 L 72 79 A 1.0000999 1.0000999 0 1 0 74 79 L 74 38.15625 C 76.60114 38.42761 78.298373 39.55714 80.5 40.9375 C 82.889933 42.43593 85.908194 43.99997 91 44 A 1.0000999 1.0000999 0 0 0 92 43 L 92 27 A 1.0000999 1.0000999 0 0 0 91 26 C 86.722222 26 85.077595 24.6669 82.9375 23.15625 C 80.797405 21.6456 78.2 19.99997 73 20 A 1.0000999 1.0000999 0 0 0 72.8125 20 z M 50 22 C 52.773268 22 55 24.22673 55 27 C 55 29.77327 52.773268 32 50 32 C 47.226731 32 45 29.77327 45 27 C 45 24.22673 47.226731 22 50 22 z M 26 22.0625 L 26 36.0625 C 22.735093 36.33713 20.607871 37.85798 18.4375 39.21875 C 16.327786 40.54149 14.004719 41.7194 10 41.90625 L 10 27.90625 C 14.01087 27.66824 16.246283 26.18277 18.1875 24.8125 C 20.127006 23.44344 22.001177 22.25261 26 22.0625 z M 74 22.0625 C 77.998823 22.25261 79.872994 23.44344 81.8125 24.8125 C 83.753717 26.18277 85.98913 27.66824 90 27.90625 L 90 41.90625 C 85.995281 41.7194 83.672214 40.54149 81.5625 39.21875 C 79.392129 37.85798 77.264907 36.33713 74 36.0625 L 74 22.0625 z M 50 37 C 42.10899 37 35.508223 42.113814 35.0625 49 L 35 49 C 33.355299 49 32 50.3553 32 52 L 32 54 C 32 55.6447 33.355299 57 35 57 L 35.1875 57 L 39 79.15625 A 1.0000999 1.0000999 0 0 0 40 80 L 54 80 A 1.0000999 1.0000999 0 1 0 54 78 L 40.84375 78 L 37.21875 57 L 62.78125 57 L 59 78.8125 A 1.0146588 1.0146588 0 1 0 61 79.15625 L 64.8125 57 L 65 57 C 66.644701 57 68 55.6447 68 54 L 68 52 C 68 50.3553 66.644701 49 65 49 L 64.9375 49 C 64.491777 42.113805 57.891005 37 50 37 z M 50 39 C 56.993691 39 62.526205 43.355108 62.96875 49 L 37.03125 49 C 37.473795 43.3551 43.006305 39 50 39 z M 35 51 L 65 51 C 65.571296 51 66 51.4287 66 52 L 66 54 C 66 54.5713 65.571296 55 65 55 L 35 55 C 34.428704 55 34 54.5713 34 54 L 34 52 C 34 51.4287 34.428704 51 35 51 z " transform="translate(0,952.36218)"></path></g></svg>