<svg height='100px' width='100px'  fill="#000000" xmlns="http://www.w3.org/2000/svg" data-name="Layer 1" viewBox="0 0 48 48" x="0px" y="0px"><title>emergency-call</title><path d="M38.84,11.67H35.4a.07.07,0,0,1-.07-.07V8.16A.16.16,0,0,0,35.17,8H31.83a.16.16,0,0,0-.16.16V11.6a.07.07,0,0,1-.07.07H28.16a.16.16,0,0,0-.16.16v3.34a.16.16,0,0,0,.16.16H31.6a.07.07,0,0,1,.07.07v3.44a.16.16,0,0,0,.16.16h3.34a.16.16,0,0,0,.16-.16V15.4a.07.07,0,0,1,.07-.07h3.44a.16.16,0,0,0,.16-.16V11.83A.16.16,0,0,0,38.84,11.67Z"></path><path d="M31.87,39.66a2.45,2.45,0,0,0-2-2l-8.94-1.52a1.5,1.5,0,0,0-1.56.81s-.48,1-.85,1.73A16.73,16.73,0,0,1,13,35a17.1,17.1,0,0,1-3.71-5.56L11,28.63a1.48,1.48,0,0,0,.82-1.58L10.3,18.13a2.45,2.45,0,0,0-2-2l-.18,0A7,7,0,0,0,0,23,25,25,0,0,0,25,48a7,7,0,0,0,7-7,6.81,6.81,0,0,0-.11-1.22ZM30,41a5,5,0,0,1-5,5A23,23,0,0,1,2,23a5,5,0,0,1,5-5,4.81,4.81,0,0,1,.83.07l.14,0a.47.47,0,0,1,.36.37L9.78,27l-1.84.88a1.49,1.49,0,0,0-.71,1.85,19.37,19.37,0,0,0,4.33,6.7,18.86,18.86,0,0,0,6.69,4.34,1.48,1.48,0,0,0,1.85-.72c.25-.49.67-1.35.9-1.83l8.54,1.45a.47.47,0,0,1,.37.36l1-.18-1,.32A4.81,4.81,0,0,1,30,41Z"></path><path d="M33.5,0A14.27,14.27,0,0,0,19,14a14.11,14.11,0,0,0,9.38,13.09L26.31,33.7a1,1,0,0,0,.36,1.1,1,1,0,0,0,.6.2,1,1,0,0,0,.55-.17c.54-.36,13-8.69,14.49-9.72a1.5,1.5,0,0,0,.25-.19A13.75,13.75,0,0,0,48,14,14.27,14.27,0,0,0,33.5,0Zm7.73,23.41h0l0,0c-.62.47-7.26,4.91-12.11,8.15l1.52-4.85a1,1,0,0,0-.08-.77,1,1,0,0,0-.6-.49A12.15,12.15,0,0,1,21,14,12.27,12.27,0,0,1,33.5,2,12.27,12.27,0,0,1,46,14,11.78,11.78,0,0,1,41.23,23.41Z"></path></svg>