<svg height='100px' width='100px'  fill="#000000" xmlns="http://www.w3.org/2000/svg" xmlns:xlink="http://www.w3.org/1999/xlink" version="1.1" x="0px" y="0px" viewBox="0 0 128 128" style="enable-background:new 0 0 128 128;" xml:space="preserve"><path d="M100.6991806,110.517601c-0.3964996-0.3838043-1.0282974-0.3769989-1.4150009,0.0166016  c-0.3857956,0.3955002-0.3778992,1.0282974,0.0166016,1.4150009l9.9990005,9.7665939  C109.495079,121.9052963,109.7470856,122,109.9990005,122c0.2597809,0,0.5195847-0.1006012,0.7157822-0.3007965  c0.3858032-0.3955002,0.3779984-1.0283051-0.0166016-1.4150009L100.6991806,110.517601z"></path><path d="M68,44h-0.0009995h-0.0439148c-6.6768036,0.0116997-12.9492035,2.6230011-17.6630859,7.3535004  C45.578083,56.0839996,42.9882851,62.3661995,43,69.0429993C43.0263824,82.8047028,54.2401848,94,67.9970856,94  c13.827095-0.0233994,25.0223999-11.2567978,25.001915-25.0419998C92.9755859,55.1963005,81.7606812,44,68,44z   M58.3632851,71.7372971c-0.4258003-0.3516006-0.4862862-0.982399-0.1348-1.4081955l8.7118988-10.5547028  c0.3526154-0.4247971,0.9824982-0.4843979,1.4082031-0.1348c0.4257965,0.3516006,0.486412,0.982502,0.1347961,1.4083023  l-8.7118988,10.5545998c-0.1982994,0.239296-0.4844017,0.3632965-0.7724838,0.3632965  C58.775383,71.9657974,58.5497818,71.8906021,58.3632851,71.7372971z M60.2616844,79  c-0.2236023,0-0.4491997-0.0752029-0.635685-0.2294998c-0.4258156-0.3516006-0.4864159-0.9813995-0.1338158-1.4072037  l14.8710976-17.9999962c0.3515015-0.4248009,0.9813995-0.4863014,1.4072037-0.1338005  c0.4257965,0.3516006,0.4862976,0.9813995,0.1337967,1.4071999L61.0331841,78.6367035  C60.8358841,78.8759995,60.5497818,79,60.2616844,79z M77.7704849,67.8554993l-8.7187042,10.555603  c-0.1982956,0.239296-0.4843979,0.3632965-0.7724991,0.3632965c-0.2235947,0-0.4491959-0.0751953-0.6356964-0.2285004  c-0.4258041-0.3525009-0.4864044-0.982399-0.1348038-1.4081955l8.7187042-10.5557022  c0.3526001-0.4247971,0.981514-0.4842987,1.4081955-0.134697C78.0614853,66.7997971,78.1220856,67.4297028,77.7704849,67.8554993z"></path><path d="M109.927681,92.2842026c-0.3935013-0.3828049-1.0233994-0.3778992-1.4090958,0.0126953l-2.9415054,2.9765015  l-5.7420807-5.5371017c3.9042816-5.9804001,6.1756821-13.1240005,6.1640015-20.7997971  C105.9608841,47.9716988,88.9608841,31,68.0019989,31C68.0009995,31,68,31,67.9990005,31c-0.0205154,0-0.0449142,0-0.0654144,0  C46.948185,31.0352001,29.9647846,48.0811005,30,69.0644989C30.0400009,90.0302963,47.0390854,107,67.9960861,107  c0.0214996,0,0.0469131,0,0.0683975,0c7.5506973-0.0127029,14.5771027-2.2362976,20.4852982-6.044899l5.8554993,5.6220016  l-4.1161957,4.1651001c-0.1884995,0.1903992-0.2929993,0.4481964-0.2890854,0.7167969  c0.0038834,0.267601,0.1142807,0.5223999,0.307579,0.7080002l16.2110062,15.5547028  C106.712883,127.9072037,106.9618835,128,107.2108841,128c0.2626953,0,0.5253983-0.1025009,0.7216949-0.3076019  c0.3819046-0.3984985,0.3692017-1.0312958-0.0292969-1.4141006l-15.4785004-14.8514938l16.8173981-17.017601l17.0586014,16.6366959  c0.3955002,0.3848038,1.0282974,0.3788986,1.4140015-0.017601c0.3858032-0.3955002,0.378006-1.0282974-0.0175018-1.4139938  L109.927681,92.2842026z M68.0458832,96c-0.0156021,0-0.0332031,0-0.0487976,0C53.1063843,96,41.0282822,83.9413986,41,69.0468979  C40.9735832,54.1366997,53.0419998,42.0253983,67.9520798,42c0.0157013,0,0.0313034,0,0.0469208,0  c14.8925858,0,26.9745789,12.0596008,27,26.955101C95.0214844,83.8672028,82.9550858,95.9746017,68.0458832,96z   M95.8114853,105.1542969l-5.573204-5.3516006c3.2352982-2.3407974,6.0887985-5.1737976,8.4453049-8.3963928l5.4872971,5.2899933  L95.8114853,105.1542969z"></path><path d="M45.7490005,31.5946999c-1.4717178,1.4219017-2.0009995,3.4491997-1.6074181,5.3223  c2.9023018-2.1650009,6.1104164-3.9384995,9.5419998-5.2588005C52.6122856,30.5907993,51.2001839,30,49.6864853,30  C48.2118835,30,46.8134842,30.5664005,45.7490005,31.5946999z"></path><path d="M21.7490005,53.5946999c-2.2666168,2.1894989-2.336916,5.8232994-0.1572151,8.1006012  c1.0819988,1.1317978,2.5370998,1.7538986,4.0976982,1.7538986c1.0048008,0,1.9647999-0.2812004,2.8173008-0.7733994  c0.4316998-2.7061005,1.1376991-5.3203011,2.0849991-7.8184013c-0.2245998-0.3895988-0.482399-0.7645988-0.8065987-1.1035004  C28.7030849,52.6230011,27.2470837,52,25.6874847,52C24.2128849,52,22.8134842,52.5663986,21.7490005,53.5946999z"></path><path d="M67.9862823,126.7832031C68.7714844,127.5927963,69.820282,128,70.8700867,128  c0.9970932,0,1.9960938-0.3672028,2.7714996-1.107399l14.726593-14.0362015  c-0.2245941-0.4208984-0.3613968-0.8856964-0.3681793-1.3710022c-0.009819-0.8037949,0.3017807-1.5771942,0.8661804-2.1484985  l2.6016006-2.6317978l-3.4151001-3.1182022C82.1718826,107.0106964,75.3485794,108.9872971,68.0683823,109h-0.0722961  c-21.3594017,0-38.8838043-16.8672028-39.9434013-37.9853973C28.0194836,70.3721008,28.0009995,69.722702,28,69.0683975  c-0.0020008-1.2256012,0.0604839-2.4356003,0.1660004-3.6328964c0.0126839-0.1386032,0.0175838-0.2782974,0.0312843-0.4160004  c-0.8125,0.2812958-1.6592007,0.4297028-2.5078011,0.4297028c-2.0185986,0-4.0341988-0.7929001-5.5429993-2.3711052  c-2.9443989-3.0760994-2.8477001-7.964798,0.2129002-10.9217987C21.850584,50.7158012,23.7694836,50,25.6874847,50  c2.0175991,0,4.0331993,0.7938995,5.5429993,2.3711014c0.0946999,0.0985985,0.1777,0.2050972,0.2656002,0.3075981  C31.4970837,52.6758003,31.4990005,52.6729012,31.5,52.669899c0.8036842-1.7889977,1.7353859-3.5088005,2.7831841-5.1483994  c0,0,0.0009995-0.0019989,0.0019989-0.0028992c0.3486023-0.545002,0.7089005-1.0811005,1.0830002-1.6084023  c0.0018997-0.0009995,0.0028992-0.0029984,0.0039024-0.0048981l-3.0928001-3.2118988  c-0.3828011-0.3975029-0.3711014-1.0303001,0.027298-1.4141006c0.3945999-0.3818016,1.0293007-0.3730011,1.4141006,0.027298  l2.8652,2.9756012c0.0049019-0.0057983,0.0098-0.0107002,0.0136986-0.0166016  c0.4248009-0.5380974,0.8623009-1.0653992,1.3135033-1.5800972c0.0087967-0.0107002,0.0175972-0.0214005,0.0263977-0.0312004  c0.4375153-0.4980011,0.8866997-0.9863014,1.347599-1.4618988c0.0321999-0.0332031,0.0635033-0.0674019,0.0957031-0.1006012  c0.4394989-0.4512024,0.889698-0.8906021,1.3495979-1.3203011c0.0527992-0.0498009,0.1035004-0.1006012,0.1562996-0.1493988  c0.5028992-0.464901,1.0166016-0.9190025,1.5429001-1.357502c0-0.0009003,0.0009995-0.0009003,0.0009995-0.0009003  c-0.9550972-2.7607994-0.3085823-5.9482994,1.9267998-8.107399C45.8505821,28.7157993,47.7694855,28,49.6864853,28  c2.0185966,0,4.0341988,0.7938995,5.5429993,2.3710995c0.1737976,0.1816006,0.3349991,0.3711014,0.4883003,0.5643997  c0.0009995,0,0.0028992-0.0008984,0.0038986-0.0008984c0.8955002-0.2901001,1.8055992-0.5459003,2.7285004-0.7735004  c0.0438995-0.0107002,0.0889015-0.0205002,0.1338158-0.0312004c0.9091835-0.2196999,1.8300858-0.4102001,2.7616844-0.5674  c0.0048981,0,0.0098-0.0009995,0.014698-0.0020008c1.9248009-0.3231983,3.8964005-0.5057983,5.9033051-0.5429001  c0.0028992,0,0.0057983,0,0.0087967,0L50.010685,11.2167997C49.2255821,10.4071999,48.1767845,10,47.1269989,10  c-0.9971161,0-1.9961166,0.3671999-2.7715149,1.1073999L1.2274851,52.2139015  c-1.5937001,1.5184975-1.642485,4.0282974-0.1113,5.6063995L67.9862823,126.7832031z M29,37c0.5526848,0,1,0.4473,1,1  s-0.4473152,1-1,1c-0.5527153,0-1-0.4473-1-1S28.4472847,37,29,37z"></path><path d="M76.0468826,19.2782993C75.4774857,19.0937996,74.8895798,19,74.3007813,19  c-2.4599991,0-4.6171951,1.5820007-5.3681946,3.9375c-0.9531021,2.9941006,0.6982956,6.2178001,3.681694,7.1854992  c0.5693054,0.1846008,1.1572037,0.2784004,1.7470016,0.2784004c2.4599991,0,4.6162033-1.5820999,5.3672028-3.9375  C80.6806793,23.4696999,79.0292816,20.2460995,76.0468826,19.2782993z"></path><path d="M108.0448837,28.2782993C107.4755859,28.0937996,106.8886795,28,106.2997818,28  c-2.4608994,0-4.6182022,1.5820007-5.3691025,3.9375c-0.9531937,2.9931984,0.6992035,6.2178001,3.6836014,7.1865005  c0.5682983,0.1846008,1.1562042,0.2783012,1.7451019,0.2783012c2.4598999,0,4.6172028-1.5820007,5.368103-3.9375  C112.6796799,32.4716988,111.0282822,29.2471008,108.0448837,28.2782993z"></path><path d="M101.9150009,47.8456993c1.4189987,2.2626991,2.6201782,4.6729012,3.5673828,7.2080002  c0.006897-0.0195007,0.0176163-0.0370979,0.0234985-0.0565987  C106.4491806,52.0351982,104.8388824,48.8506012,101.9150009,47.8456993z"></path><path d="M106.3603821,57.7001991c0.9794006,3.3134995,1.527298,6.8075981,1.6083984,10.4141045l3.4970016,3.6054001  l16.3359985-48.6113052c0.6865005-2.0859013-0.4667816-4.3134995-2.574295-4.9756012L68.1640854,0.1875  C67.7606812,0.0605,67.3515854,0,66.9491806,0c-1.7011795,0-3.2860985,1.0771-3.8407974,2.7637l-4.7636986,14.174799  l8.3848,8.6473999c-0.1298981-1.0643997-0.047905-2.169899,0.2977982-3.2558002C68.0653839,19.0723,71.0644836,17,74.2997818,17  c0.7832184,0,1.5791016,0.1210995,2.3643036,0.3759995c4.0331955,1.3086014,6.2567978,5.6504002,4.969696,9.6953011  c-0.4628983,1.4520988-1.3291016,2.6513996-2.4189987,3.5536995c2.9365997,0.8612995,5.7324982,2.0498009,8.3487015,3.5233994  l3.4882965-10.4647999c0.1748047-0.5233994,0.7353058-0.8076,1.2646027-0.6317997  c0.5233994,0.1737995,0.8066177,0.7402,0.6317978,1.2646008L89.320282,35.2001991  c4.3067169,2.7256012,8.0567169,6.2451019,11.044899,10.3544998c0.6904984,0.0264015,1.3877029,0.1299019,2.0772018,0.3535004  c4.032196,1.3106003,6.2567978,5.6504021,4.9686966,9.6953011C107.1660004,56.375,106.802681,57.0732002,106.3603821,57.7001991z   M93.9990005,19c-0.5517197,0-1-0.4473-1-1s0.4482803-1,1-1c0.5527802,0,1,0.4473,1,1S94.5517807,19,93.9990005,19z   M106.3593826,41.4023018c-0.7823029,0-1.5772018-0.1210022-2.3622971-0.3759003  c-4.0342026-1.3096008-6.2598038-5.6504021-4.9717026-9.6963024C100.0634842,28.0723,103.0644836,26,106.2997818,26  c0.7822189,0,1.5772171,0.1210995,2.3622971,0.3759995c4.0332031,1.3094997,6.2588043,5.6493988,4.9707031,9.6963005  C112.5946808,39.3291016,109.5937805,41.4023018,106.3593826,41.4023018z"></path><path d="M45.3759995,107.4932022L20.4140854,83.3438034c-2.3271999-2.2520065-5.3037004-3.3731003-8.2432003-3.3731003  c-3.0518007,0-6.0645003,1.2069931-8.2763996,3.6112976c-4.3417997,4.7198029-4.0135999,12.3359985,0.7295151,16.9247971  l24.9599991,24.1495056c2.3270855,2.2518997,5.3036842,3.3729935,8.2440834,3.3729935  c3.0508003,0,6.0645027-1.2069931,8.2754021-3.6112976C50.4472847,119.6981964,50.1190834,112.0820007,45.3759995,107.4932022z   M17.8720837,110.5410004l-1.4374981-1.3906021l13.6591988-13.660202l1.4365005,1.3916016L17.8720837,110.5410004z"></path><path d="M24.8417835,122.8516006L16.7265854,115H2.0497849C2.022485,114.669899,1.999,114.3378983,1.999,114  s0.0234851-0.669899,0.0507849-1h12.6093998l-9.857399-9.5371017C1.8632849,106.0282974-0.001,109.7929993-0.001,114  c0,7.7313995,6.2675848,14,14,14C18.3720837,128,22.2743835,125.9932022,24.8417835,122.8516006z"></path></svg>