<svg height='100px' width='100px'  fill="#000000" xmlns="http://www.w3.org/2000/svg" xmlns:xlink="http://www.w3.org/1999/xlink" version="1.1" x="0px" y="0px" viewBox="0 0 66 66" enable-background="new 0 0 66 66" xml:space="preserve"><g><path d="M39.8898,21.0323c-0.3719-0.2864-0.8901-0.2864-1.2621,0L33,25.3741l-5.6273-4.3418c-0.3719-0.2864-0.8901-0.2864-1.261,0   L11.658,32.1824c-0.5341,0.4112-0.5378,1.221,0,1.635l14.4537,11.1504c0.3709,0.2861,0.8891,0.2861,1.261,0L33,40.626   l5.6277,4.3418c0.3719,0.2861,0.8901,0.2861,1.2621,0l14.4526-11.1504c0.506-0.3911,0.506-1.2439,0-1.635L39.8898,21.0323z    M26.7416,42.8467l-12.7641-9.8467l12.7641-9.8469l4.5685,3.5247l-7.135,5.5046c-0.5343,0.413-0.5346,1.2218,0,1.635l7.135,5.5046   L26.7416,42.8467z M33.0002,27.9818l6.5045,5.0183l-6.5045,5.0181l-6.5046-5.0181L33.0002,27.9818z M39.2588,42.8467   l-4.5687-3.5249l7.1342-5.5044c0.5081-0.3911,0.5081-1.2439,0-1.635l-7.1342-5.5044l4.5687-3.5249l12.7631,9.8469L39.2588,42.8467z   "></path><circle cx="60.9171" cy="32.6559" r="4.0829"></circle><circle cx="5.0829" cy="33.3439" r="4.0829"></circle></g></svg>