<svg height='100px' width='100px'  fill="#000000" xmlns:dc="http://purl.org/dc/elements/1.1/" xmlns:cc="http://creativecommons.org/ns#" xmlns:rdf="http://www.w3.org/1999/02/22-rdf-syntax-ns#" xmlns:svg="http://www.w3.org/2000/svg" xmlns="http://www.w3.org/2000/svg" xmlns:sodipodi="http://sodipodi.sourceforge.net/DTD/sodipodi-0.dtd" xmlns:inkscape="http://www.inkscape.org/namespaces/inkscape" version="1.1" x="0px" y="0px" viewBox="0 0 100 100"><g transform="translate(0,-952.36218)"><path style="font-size:medium;font-style:normal;font-variant:normal;font-weight:normal;font-stretch:normal;text-indent:0;text-align:start;text-decoration:none;line-height:normal;letter-spacing:normal;word-spacing:normal;text-transform:none;direction:ltr;block-progression:tb;writing-mode:lr-tb;text-anchor:start;baseline-shift:baseline;opacity:1;color:#000000;fill:#000000;fill-opacity:1;stroke:none;stroke-width:2;marker:none;visibility:visible;display:inline;overflow:visible;enable-background:accumulate;font-family:Sans;-inkscape-font-specification:Sans" d="M 13.8125 9 A 1.0001 1.0001 0 0 0 13 10 L 13 90 A 1.0001 1.0001 0 0 0 14 91 L 52 91 A 1.0001 1.0001 0 0 0 53 90 L 53 65.25 C 54.652509 65.107166 56.31496 65 58 65 C 66.316927 65 75.350185 67.5506 85.40625 74.8125 A 1.0063276 1.0063276 0 0 0 86.59375 73.1875 C 76.254475 65.721 66.729265 63 58 63 C 56.313603 63 54.646059 63.086209 53 63.21875 L 53 46.25 C 54.652509 46.107166 56.31496 46 58 46 C 66.316927 46 75.350186 48.5505 85.40625 55.8125 A 1.0063276 1.0063276 0 0 0 86.59375 54.1875 C 76.254474 46.72101 66.729265 44 58 44 C 56.313603 44 54.646059 44.086209 53 44.21875 L 53 27.25 C 54.652509 27.107164 56.31496 27 58 27 C 66.316924 27 75.350183 29.55061 85.40625 36.8125 A 1.0063276 1.0063276 0 0 0 86.59375 35.1875 C 76.254477 27.72109 66.729268 25 58 25 C 56.313603 25 54.646059 25.086208 53 25.21875 L 53 10 A 1.0001 1.0001 0 0 0 52 9 L 24.9375 9 A 1.0001 1.0001 0 1 0 24.9375 11 L 51 11 L 51 25.40625 C 37.410885 26.882466 25.282924 31.915814 15 31.03125 L 15 11 L 17.96875 11 A 1.0001 1.0001 0 1 0 17.96875 9 L 14 9 A 1.0001 1.0001 0 0 0 13.8125 9 z M 51 27.4375 L 51 44.40625 C 37.410886 45.882455 25.282927 50.915765 15 50.03125 L 15 33 C 25.932017 33.895017 37.946595 28.951353 51 27.4375 z M 51 46.4375 L 51 63.40625 C 37.410887 64.882455 25.282928 69.915765 15 69.03125 L 15 52 C 25.932014 52.894906 37.946595 47.951337 51 46.4375 z M 51 65.4375 L 51 89 L 15 89 L 15 71 C 25.932013 71.894906 37.946594 66.951337 51 65.4375 z " transform="translate(0,952.36218)"></path></g></svg>