<svg height='100px' width='100px'  fill="#000000" xmlns="http://www.w3.org/2000/svg" xmlns:xlink="http://www.w3.org/1999/xlink" version="1.1" x="0px" y="0px" viewBox="0, 0, 80.52, 89.625"><g transform="translate(-9, -5)"><path d="M21.192,64.252 L21.248,64.289 C23.399,64.928 24.045,67.169 24.671,69.073 C25.371,68.756 26.071,68.437 26.773,68.125 C34.046,64.945 40.778,64.076 51.171,66.296 C51.264,66.315 51.708,66.249 52.418,66.07 C52.885,65.953 54.903,65.388 55.198,65.309 C56.749,64.892 58.009,64.61 59.243,64.435 L60.896,64.272 C64.395,64.198 66.582,65.11 68.339,68.196 L68.623,68.114 C69.398,67.89 70.267,67.637 71.208,67.36 C71.955,67.14 75.08,66.165 74.854,66.234 C75.881,65.918 76.73,65.667 77.547,65.443 C79.42,64.861 81.349,64.585 83.289,64.355 C85.326,64.39 84.477,64.295 85.849,64.509 C88.629,65.095 89.93,67.202 89.407,70.661 C89.251,71.693 88.51,72.048 86.821,72.443 C86.615,72.491 84.861,72.867 84.284,73.007 C83.2,73.271 82.271,73.557 81.393,73.92 C81.162,74.016 80.935,74.116 80.715,74.222 C76.984,76.004 73.642,77.234 70.407,78.099 C69.14,78.438 67.926,78.713 66.601,78.972 C65.847,79.119 63.565,79.53 63.563,79.53 C62.424,79.743 61.674,79.913 61.012,80.124 C59.982,80.452 58.862,80.825 57.489,81.296 C57.209,81.392 56.917,81.492 56.599,81.602 C49.974,83.89 49.513,84.043 47.882,84.43 C47.586,84.501 47.288,84.565 46.988,84.625 C41.931,85.623 37.149,85.139 30.162,83.499 C28.293,83.061 29.312,83.299 27.106,82.787 C27.182,85.264 27.38,87.753 26.874,90.21 C26.668,91.21 26.14,92.772 25.031,93.241 C24.912,93.398 25.012,93.286 24.617,93.424 L16.012,94.615 C15.465,94.691 14.96,94.309 14.885,93.762 C14.809,93.215 15.191,92.71 15.738,92.634 L22.182,91.742 C19.763,88.122 19.324,83.581 18.709,79.367 C18.288,75.577 17.854,71.683 18.522,67.892 C18.598,67.456 18.744,67.035 18.855,66.607 L10.157,67.988 C9.612,68.074 9.099,67.702 9.012,67.157 C8.926,66.611 9.298,66.099 9.843,66.012 L20.747,64.282 L20.793,64.268 L20.793,64.268 L20.824,64.27 L20.843,64.266 C21.104,64.265 20.988,64.272 21.192,64.252 z M22.102,81.91 C21.454,81.931 21.767,81.902 21.161,81.991 L21.152,81.991 C22.303,87.101 21.691,84.988 22.777,88.386 C23.498,90.376 24.251,91.449 24.35,91.436 C24.765,90.671 24.857,89.731 24.999,88.886 C25.267,86.711 25.22,84.511 25.071,82.328 C23.575,82.02 24.347,82.16 22.757,81.914 L22.102,81.91 z M60.87,66.275 L59.525,66.415 C58.386,66.577 57.197,66.842 55.718,67.24 C55.445,67.314 53.404,67.884 52.907,68.01 C51.878,68.269 51.263,68.36 50.753,68.251 C40.789,66.123 34.48,66.938 27.574,69.958 C26.944,70.234 24.687,71.267 24.174,71.49 C22.903,72.045 21.913,72.409 20.936,72.653 C20.365,72.783 20.591,72.74 20.262,72.799 C20.439,77.35 20.272,75.249 20.692,79.107 L20.832,80.02 L20.839,80.017 C22.738,79.707 22.84,79.727 30.619,81.552 C37.349,83.132 41.894,83.592 46.6,82.662 C46.876,82.608 47.149,82.549 47.421,82.484 C48.95,82.121 49.451,81.955 55.947,79.712 C56.266,79.601 56.559,79.5 56.84,79.404 C58.227,78.929 59.359,78.551 60.406,78.218 C61.164,77.977 61.983,77.79 63.197,77.564 C71.093,76.092 73.518,75.444 79.852,72.417 C80.106,72.296 80.365,72.181 80.63,72.072 C81.613,71.665 82.636,71.35 83.812,71.064 C84.422,70.916 86.187,70.538 86.365,70.496 C86.895,70.372 87.238,70.268 87.445,70.169 L87.449,70.173 C87.714,68.262 87.376,67.025 85.436,66.466 C83.82,66.125 81.408,66.458 78.076,67.372 C77.282,67.59 76.452,67.835 75.443,68.146 C75.684,68.072 72.538,69.053 71.773,69.279 C70.828,69.557 69.956,69.811 69.178,70.036 C68.537,70.22 68.779,70.151 68.449,70.245 C67.889,72.172 64.688,72.708 62.986,73.169 C62.992,73.168 56.298,74.683 54.068,75.294 C50.629,76.237 48.194,76.411 45.561,75.999 C44.284,75.799 39.359,74.587 39.135,74.538 C39.057,74.52 39.057,74.52 38.978,74.503 C38.439,74.385 38.097,73.852 38.215,73.313 C38.333,72.773 38.866,72.431 39.405,72.549 C39.487,72.567 39.487,72.567 39.567,72.585 C39.869,72.652 44.694,73.839 45.87,74.023 C48.213,74.39 50.363,74.236 53.539,73.365 C55.821,72.74 62.55,71.217 62.505,71.228 C65.893,70.387 66.843,69.785 66.581,69.105 C65.423,66.431 63.444,66.39 60.87,66.275 z M21.018,66.291 C20.539,67.319 20.459,68.494 20.318,69.603 L20.261,70.756 L20.451,70.713 C21.265,70.509 22.053,70.215 22.825,69.889 C22.555,68.908 22.11,67.998 21.639,67.104 C21.418,66.729 21.212,66.463 21.044,66.318 L21.018,66.291 z" fill="#000000"></path><path d="M59.95,5 L60.428,5.12 C61.036,5.42 61.098,5.882 60.993,6.401 C60.961,6.562 60.907,6.728 60.817,6.971 C60.773,7.09 60.592,7.56 60.573,7.609 C60.465,7.894 60.376,8.138 60.291,8.39 C59.516,10.694 59.386,12.803 60.246,14.92 C61.667,18.67 62.05,22.861 61.102,26.786 L61.469,26.627 C62.899,26.166 64.046,25.247 64.996,23.951 C65.492,23.275 65.862,22.616 66.306,21.697 C66.326,21.657 66.478,21.34 66.518,21.257 C66.597,21.097 66.656,20.981 66.713,20.88 C66.802,20.72 66.884,20.598 66.992,20.485 C67.241,20.218 67.56,20.193 67.901,20.126 L68.277,20.249 C68.934,20.59 68.987,21.089 68.837,21.719 C68.866,21.597 68.664,22.369 68.602,22.672 C68.34,23.952 68.256,25.651 68.456,28.103 C68.472,28.293 68.472,28.293 68.487,28.485 C68.683,30.899 68.744,32.268 68.664,33.821 C68.486,35.954 68.64,34.73 68.09,37.479 C69.669,37.167 70.743,36.194 71.909,35.251 C72.54,34.674 73.01,34.148 73.69,33.313 C74.069,32.848 74.138,32.766 74.277,32.62 C74.403,32.488 74.517,32.388 74.653,32.305 L75.222,32.123 L75.847,32.312 C76.343,32.646 76.45,33.188 76.28,33.683 C76.223,33.848 76.255,33.787 75.986,34.29 C75.652,34.915 75.405,35.484 75.14,36.353 C74.806,37.45 74.532,38.795 74.336,40.447 C74.051,42.846 73.906,43.86 73.609,45.22 C72.121,52.042 68.221,56.121 59.968,57.188 C57.606,57.479 55.252,57.871 52.999,58.653 C52.863,60.117 52.921,61.933 51.622,62.937 C51.486,63.042 51.279,62.962 51.107,62.975 C50.7,62.882 50.396,62.572 50.305,62.174 C50.267,61.946 50.275,62.059 50.279,61.835 C49.918,61.476 50.146,61.673 49.558,61.29 C48.179,60.51 45.44,59.623 41.021,58.654 C31.57,56.582 27.268,51.539 26.047,43.682 C25.753,41.793 25.666,40.36 25.564,37.075 C25.564,37.068 25.564,37.068 25.563,37.061 C25.483,34.465 25.199,32.49 24.768,30.956 C24.569,30.248 24.449,29.934 24.11,29.141 C23.974,28.823 23.921,28.677 23.89,28.471 C23.817,27.978 24.02,27.5 24.483,27.244 L24.826,27.116 C25.556,27.212 25.271,27.089 25.722,27.364 C25.858,27.469 25.974,27.594 26.105,27.761 C26.194,27.874 26.29,28.008 26.416,28.19 C26.492,28.3 26.874,28.862 26.768,28.708 C27.531,29.829 28.123,30.602 28.902,31.416 C30.576,32.965 29.683,32.305 31.564,33.42 C31.485,32.879 31.533,33.215 31.423,32.411 C31.154,30.44 30.887,29.15 30.614,28.238 C30.558,28.053 30.417,27.629 30.399,27.565 C30.273,27.12 30.316,26.701 30.699,26.339 C30.752,26.289 30.793,26.256 30.861,26.208 L31.466,26.01 L32.024,26.169 C32.157,26.246 32.264,26.336 32.379,26.453 C32.499,26.574 32.558,26.643 32.866,27.012 C33.411,27.665 33.784,28.071 34.286,28.518 C35.405,29.584 36.836,30.137 38.324,30.433 L37.833,28.793 C37.275,26.147 37.641,23.736 38.782,20.002 C38.847,19.788 38.867,19.724 39.024,19.216 C39.774,16.797 39.939,15.353 39.849,14.067 C39.847,14.045 39.832,13.842 39.829,13.787 C39.821,13.662 39.819,13.568 39.827,13.468 C39.864,12.956 40.168,12.501 40.759,12.397 L41.122,12.388 C41.762,12.712 41.543,12.505 41.863,12.905 C41.865,12.907 42.777,15.941 43.488,17.131 C44.103,18.161 44.9,19.007 45.927,19.64 L46.488,20.022 C47.287,16.349 49.802,13.846 52.584,11.528 C53.126,11.101 53.499,10.821 54.522,10.063 C56.233,8.797 57.368,7.712 58.124,6.741 C58.254,6.574 59.06,5.285 59.456,5.103 L59.95,5 z M52.254,61.729 L52.277,61.902 C52.281,61.842 52.281,61.842 52.255,61.73 L52.254,61.729 z M27.104,32.411 C27.544,35.693 27.41,34.162 27.563,36.999 L27.563,37.013 C27.662,40.215 27.747,41.595 28.023,43.375 C29.123,50.452 32.844,54.814 41.449,56.7 C43.842,57.274 46.288,57.745 48.588,58.646 C49.865,59.245 49.359,58.988 50.122,59.387 C48.903,54.393 44.76,51.496 40.693,48.921 C40.597,48.863 39.57,48.244 39.264,48.059 C38.708,47.721 38.248,47.436 37.806,47.154 C34.136,44.814 31.611,42.543 29.441,39.23 C29.139,38.768 29.268,38.148 29.73,37.845 L30.099,37.698 C30.965,37.879 30.659,37.673 31.115,38.134 C33.108,41.179 35.431,43.267 38.881,45.467 C39.31,45.741 39.758,46.018 40.303,46.349 C40.605,46.533 41.63,47.151 41.728,47.21 C45.834,49.568 49.111,52.251 51.098,56.604 L51.118,56.001 C51.1,52.014 50.226,48.497 48.331,46.085 C44.34,41.006 39.266,37.897 34.293,36.782 C31.587,36.175 29.354,34.782 27.457,32.799 L27.104,32.411 z M72.907,37.01 C71.301,38.579 69.182,39.282 67.049,39.748 C62.935,40.3 58.592,42.465 54.986,46.31 C53.74,47.601 53.113,49.297 52.592,50.976 C52.941,52.541 52.831,51.788 52.952,53.229 C54.396,50.178 57.477,48.717 60.396,47.407 C62.613,46.476 63.171,46.225 64.189,45.651 C66.035,44.609 67.556,43.313 68.943,41.465 C69.427,41.034 69.109,41.22 69.985,41.095 L70.343,41.266 C70.785,41.598 70.874,42.224 70.542,42.666 C68.983,44.743 67.251,46.22 65.172,47.393 C64.059,48.02 63.467,48.286 61.171,49.251 C57.593,50.579 54.95,52.746 53.613,56.376 C57.472,55.442 55.442,55.848 59.712,55.204 C67.07,54.253 70.337,50.836 71.655,44.794 C71.934,43.518 72.072,42.546 72.349,40.211 C72.612,38.292 72.44,39.361 72.907,37.01 z M33.071,30.101 C33.285,31.185 33.161,30.507 33.405,32.141 C33.551,33.213 33.605,33.594 33.697,34.155 L33.684,34.507 L34.731,34.831 L35.321,34.992 C34.957,34.579 35.231,34.892 34.518,34.042 C34.165,33.617 34.223,32.987 34.648,32.634 L34.998,32.446 C35.879,32.527 35.552,32.358 36.056,32.764 C37.828,34.897 38.68,35.783 39.818,36.536 L40.084,36.8 C44.057,38.496 47.152,41.624 49.903,44.849 C50.295,45.407 50.151,45.2 50.338,45.469 C49.917,42.334 50.012,43.954 50.097,40.609 L50.055,40.526 C49.746,39.373 49.247,38.691 47.722,37.121 C44.783,34.094 41.984,32.885 38.238,32.449 C36.279,32.275 34.587,31.281 33.071,30.101 z M66.392,25.392 C65.346,26.924 63.745,27.833 62.082,28.531 C58.774,29.596 55.549,32.198 53.221,36.285 C52.027,38.76 51.861,41.351 52.119,44.037 C52.867,41.188 55.269,39.226 57.428,37.42 C57.345,37.487 58.242,36.772 58.482,36.578 C61.15,34.428 62.553,32.832 63.585,30.342 C63.947,29.805 63.685,30.064 64.503,29.725 L64.892,29.802 C65.402,30.014 65.644,30.599 65.433,31.109 C64.247,33.968 62.642,35.794 59.738,38.135 C59.492,38.334 58.588,39.053 58.676,38.982 C56.956,40.49 54.722,42.054 54.085,44.395 C57.285,41.044 61.378,38.968 65.845,37.936 C66.4,36.599 66.548,35.148 66.667,33.719 C66.74,32.279 66.683,30.977 66.494,28.647 C66.478,28.456 66.478,28.456 66.463,28.266 C66.338,26.081 66.337,27.039 66.392,25.392 z M41.501,17.652 C41.138,19.177 41.331,18.46 40.935,19.808 C40.778,20.313 40.759,20.376 40.694,20.586 C39.646,24.018 39.322,26.157 39.79,28.381 C40.32,30.15 39.986,29.313 40.772,30.899 C43.865,31.42 46.386,33.277 48.68,35.306 C48.27,34.077 47.42,33.056 46.661,32.027 C46.468,31.774 45.784,30.888 45.679,30.751 C43.483,27.887 42.372,25.884 41.747,23.019 C41.629,22.479 41.971,21.946 42.511,21.828 L42.908,21.822 C43.653,22.3 43.44,21.999 43.701,22.592 C44.25,25.111 45.234,26.883 47.266,29.535 C47.367,29.666 48.054,30.555 48.252,30.816 C49.435,32.407 50.648,34.074 51.129,36.032 C51.328,35.629 51.209,35.874 51.483,35.295 L52.077,34.345 L52.049,34.341 C52.254,32.852 52.172,31.497 51.768,30.336 C50.339,26.225 47.792,23.137 44.879,21.343 C43.562,20.532 42.544,19.451 41.771,18.156 L41.501,17.652 z M57.858,9.866 C56.598,11.041 57.305,10.43 55.713,11.671 C54.706,12.416 54.343,12.689 53.822,13.099 C51.017,15.234 48.753,17.9 48.267,21.482 C50.846,23.527 52.284,26.497 53.558,29.45 L53.621,28.978 C53.704,27.775 53.673,26.832 53.523,24.514 C53.197,19.513 53.372,16.984 54.767,13.525 C55.123,12.984 54.863,13.246 55.678,12.899 L55.678,12.899 L56.068,12.972 C56.58,13.178 56.828,13.761 56.622,14.273 C55.369,17.38 55.211,19.661 55.518,24.385 C55.675,26.793 55.708,27.793 55.616,29.116 L55.463,30.269 C57.864,28.418 56.744,29.178 58.77,27.912 L58.801,27.805 C60.063,23.346 59.775,19.073 58.393,15.672 C57.452,12.478 57.806,14.389 57.858,9.866 z" fill="#000000"></path></g></svg>