<svg height='100px' width='100px'  fill="#000000" xmlns="http://www.w3.org/2000/svg" xmlns:xlink="http://www.w3.org/1999/xlink" version="1.1" x="0px" y="0px" viewBox="0 0 94.722 61.34" enable-background="new 0 0 94.722 61.34" xml:space="preserve"><path d="M87.569,51.647h-5.644l7.595-2.922c0.914-0.351,1.373-1.375,1.025-2.29L74.36,3.653c-0.347-0.919-1.375-1.385-2.292-1.038  L3.654,28.314c-0.441,0.164-0.802,0.502-0.996,0.932c-0.195,0.433-0.21,0.924-0.043,1.366l7.968,21.035H7.149  c-3.212,0-4.649,1.806-4.649,3.596c0,1.792,1.438,3.597,4.649,3.597h7.387h48.369h24.664c3.213,0,4.651-1.805,4.651-3.597  C92.221,53.453,90.782,51.647,87.569,51.647z M62.573,55.277H15.766L6.578,31.02l65.08-24.445l14.93,39.463L62.573,55.277z   M57.398,18.3c-0.177-0.437-0.173-0.927,0.012-1.363c0.186-0.435,0.535-0.776,0.974-0.954l9.686-3.904  c0.439-0.177,0.93-0.172,1.364,0.012c0.436,0.186,0.779,0.537,0.955,0.974l2.649,6.575c0.368,0.914-0.073,1.951-0.985,2.318  l-9.686,3.904c-0.218,0.089-0.444,0.129-0.664,0.129c-0.705,0-1.374-0.42-1.653-1.113L57.398,18.3z M58.28,39.012  c-0.716,0-1.393-0.434-1.664-1.144c-0.353-0.919,0.106-1.947,1.024-2.3l14.41-5.526c0.924-0.351,1.951,0.106,2.302,1.024  c0.353,0.92-0.106,1.947-1.024,2.303l-14.411,5.525C58.707,38.975,58.491,39.012,58.28,39.012z M60.025,43.57  c-0.717,0-1.392-0.434-1.663-1.145c-0.353-0.918,0.106-1.947,1.025-2.299l14.41-5.527c0.924-0.352,1.95,0.106,2.302,1.025  c0.353,0.918-0.107,1.948-1.024,2.3L60.663,43.45C60.453,43.533,60.237,43.57,60.025,43.57z M76.821,42.48l-14.41,5.527  c-0.211,0.081-0.426,0.119-0.637,0.119c-0.716,0-1.393-0.437-1.664-1.143c-0.353-0.918,0.106-1.95,1.023-2.302l14.411-5.527  c0.923-0.352,1.95,0.108,2.301,1.026C78.198,41.1,77.739,42.131,76.821,42.48z M53.861,52.139c0.344,0.924-0.127,1.947-1.048,2.291  c-0.205,0.076-0.415,0.113-0.621,0.113c-0.722,0-1.402-0.443-1.669-1.16L39.786,24.572c-0.345-0.923,0.124-1.949,1.047-2.291  c0.922-0.344,1.947,0.125,2.291,1.045L53.861,52.139z"></path></svg>