<svg height='100px' width='100px'  fill="#000000" xmlns="http://www.w3.org/2000/svg" viewBox="0 0 64 64" x="0px" y="0px"><title>girl-guide-camping-cookie-biscuit</title><g><path d="M61,30.343V15A13.015,13.015,0,0,0,48,2H42A13.015,13.015,0,0,0,29,15V30.343a4.965,4.965,0,0,0,1.444,3.511A8.955,8.955,0,0,0,28,40V61a1,1,0,0,0,1,1H61a1,1,0,0,0,1-1V40a8.955,8.955,0,0,0-2.444-6.146A4.965,4.965,0,0,0,61,30.343ZM54,56h-6.4l-6.637-6.88,3.746-5.032A2.977,2.977,0,0,0,45,43.62a2.86,2.86,0,0,0,.278.457l4.63,6.22a.964.964,0,0,0,.551.344L54,54.305ZM30,40.631l4,4.146V49H30Zm1.878-8.166A2.983,2.983,0,0,1,31,30.343V21.66a8.932,8.932,0,0,0,1.353,1.327A12.98,12.98,0,0,0,38.109,31H37a8.947,8.947,0,0,0-5.039,1.547Zm26.244,0-.083.082A8.947,8.947,0,0,0,53,31H51.891a12.983,12.983,0,0,0,5.75-7.988,9.172,9.172,0,0,0,.726-.645,8.756,8.756,0,0,0,.633-.71v8.686A2.983,2.983,0,0,1,58.122,32.465ZM45,35a3,3,0,0,1-2.924-2.347,12.493,12.493,0,0,0,5.848,0A3,3,0,0,1,45,35Zm0-4a11.042,11.042,0,0,1-10.056-6.552A8.993,8.993,0,0,0,38,25H52a9.005,9.005,0,0,0,3.051-.54A11.043,11.043,0,0,1,45,31Zm-4.9,2a5.016,5.016,0,0,0,2.106,3.145A3.982,3.982,0,0,0,41,39c0,.06.015.116.018.176a2.993,2.993,0,0,0-1.057.481,2.954,2.954,0,0,0-.7.749,3.859,3.859,0,0,1-2.676-1.163l-2.83-2.83a3.96,3.96,0,0,1-1.049-1.931A6.959,6.959,0,0,1,37,33Zm.638,9.015a.975.975,0,0,1,.4-.744,1,1,0,0,1,.467-.174,4,4,0,0,0,1.657,1.491.954.954,0,0,1-.148.3l-2.636,3.54Zm7.657-.927a1.016,1.016,0,0,1,.812.644.9.9,0,0,1,.053.286l.257,4.406-2.643-3.551a.879.879,0,0,1-.142-.284A4.007,4.007,0,0,0,48.4,41.088ZM47,39a2,2,0,1,1-2-2A2,2,0,0,1,47,39Zm9.956-18.05A7,7,0,0,1,52,23H38a6.959,6.959,0,0,1-5.725-3H57.739A6.893,6.893,0,0,1,56.956,20.95ZM31.165,36.142a5.953,5.953,0,0,0,1.178,1.685l2.83,2.83a5.926,5.926,0,0,0,3.542,1.7l-.243,4.177-8.188-8.489A6.975,6.975,0,0,1,31.165,36.142ZM36,46.851l2.314,2.4-.022.393a1,1,0,0,0,1,1.057.983.983,0,0,0,.345-.081L44.826,56H36ZM46,58v2H44V58Zm4.724-17.631a2.973,2.973,0,0,0-1.741-1.2c0-.058.017-.112.017-.171a3.982,3.982,0,0,0-1.207-2.855A5.016,5.016,0,0,0,49.9,33H53a6.959,6.959,0,0,1,4.292,1.482,3.96,3.96,0,0,1-1.049,1.931l-2.83,2.83A3.914,3.914,0,0,1,50.724,40.369ZM31,15A11.013,11.013,0,0,1,42,4h6A11.013,11.013,0,0,1,59,15v1c0,.138,0,.275-.007.4a7.35,7.35,0,0,1-.3,1.6H31.312a7.3,7.3,0,0,1-.3-1.6C31,16.275,31,16.138,31,16ZM30,51h4v9H30Zm6,7h6v2H36Zm12,2V58h6v2Zm8,0V51h4v9Zm4-11H56V44H54v7.426l-2.328-2.409-.387-6.661a5.913,5.913,0,0,0,3.542-1.7l2.83-2.83a5.953,5.953,0,0,0,1.178-1.685A6.952,6.952,0,0,1,60,40Z"></path><path d="M42.553,13.9l2,1a1,1,0,0,0,.894,0l2-1A1,1,0,0,0,48,13V9a1,1,0,0,0-1-1H43a1,1,0,0,0-1,1v4A1,1,0,0,0,42.553,13.9ZM44,10h2v2.382l-1,.5-1-.5Z"></path><path d="M19,37a6.99,6.99,0,0,0-4.768,1.887.987.987,0,0,0-.679.367,1.991,1.991,0,0,1-3.544-1.189A1,1,0,0,0,8.847,37.1,6.961,6.961,0,0,0,3.3,46H3a1,1,0,0,0-1,1V61a1,1,0,0,0,1,1H25a1,1,0,0,0,1-1V47a.984.984,0,0,0-.381-.767A6.961,6.961,0,0,0,19,37Zm5,13H4V48H24Zm0-6a4.87,4.87,0,0,1-.423,2H16.7a6.9,6.9,0,0,0-.864-5.854A4.985,4.985,0,0,1,24,44ZM5,44a4.971,4.971,0,0,1,3.227-4.671,4.006,4.006,0,0,0,6,2A4.933,4.933,0,0,1,15,44a4.87,4.87,0,0,1-.423,2H5.423A4.87,4.87,0,0,1,5,44ZM4,60V52H24v8Z"></path><rect x="7" y="42" width="2" height="2"></rect><rect x="11" y="43" width="2" height="2"></rect><rect x="19" y="42" width="2" height="2"></rect><path d="M12.177,26.755l-.366,1.967a12.054,12.054,0,0,0,2.189.2h.044l-.044-2A10.012,10.012,0,0,1,12.177,26.755Z"></path><path d="M16.237,28.713a12.007,12.007,0,0,0,2.112-.611l-.73-1.862a9.871,9.871,0,0,1-1.758.508Z"></path><path d="M12.157,7.248a10.084,10.084,0,0,1,1.822-.17l0-2a11.952,11.952,0,0,0-2.189.205Z"></path><path d="M15.8,7.241a9.933,9.933,0,0,1,1.759.5l.722-1.865a11.793,11.793,0,0,0-2.119-.6Z"></path><path d="M9.7,28.119l.724-1.863a10.005,10.005,0,0,1-1.637-.818l-1.054,1.7A11.91,11.91,0,0,0,9.7,28.119Z"></path><path d="M22.06,25.779l-1.353-1.472a10.027,10.027,0,0,1-1.456,1.109l1.061,1.7A11.988,11.988,0,0,0,22.06,25.779Z"></path><path d="M2.527,13.751l1.924.545a9.842,9.842,0,0,1,.661-1.7L3.322,11.7A11.907,11.907,0,0,0,2.527,13.751Z"></path><path d="M22.007,8.171a12.076,12.076,0,0,0-1.755-1.32L19.2,8.552a10.053,10.053,0,0,1,1.463,1.1Z"></path><path d="M2.077,17c0,.374.017.745.051,1.111l1.992-.185c-.029-.3-.043-.613-.043-.925s.014-.606.041-.9l-1.991-.184Q2.077,16.45,2.077,17Z"></path><path d="M4.479,9.831l1.6,1.205A10.029,10.029,0,0,1,7.309,9.681L5.958,8.206A12.12,12.12,0,0,0,4.479,9.831Z"></path><path d="M5.12,21.426a9.844,9.844,0,0,1-.663-1.7l-1.923.55a11.844,11.844,0,0,0,.8,2.05Z"></path><path d="M24.689,22.28,22.9,21.392a9.992,9.992,0,0,1-.96,1.558l1.6,1.2A11.858,11.858,0,0,0,24.689,22.28Z"></path><path d="M25.876,18.062l-1.992-.177a9.961,9.961,0,0,1-.33,1.8l1.926.539A11.967,11.967,0,0,0,25.876,18.062Z"></path><path d="M23.538,14.258a9.944,9.944,0,0,1,.34,1.8l1.991-.19a11.814,11.814,0,0,0-.41-2.16Z"></path><path d="M5.974,25.81l1.348-1.477a10.1,10.1,0,0,1-1.236-1.354L4.493,24.188A12.1,12.1,0,0,0,5.974,25.81Z"></path><path d="M21.9,11a10.024,10.024,0,0,1,.97,1.552l1.786-.9a11.955,11.955,0,0,0-1.164-1.864Z"></path><path d="M8.766,8.573a9.957,9.957,0,0,1,1.635-.82L9.673,5.89a11.877,11.877,0,0,0-1.965.986Z"></path><path d="M21.923,17A7.923,7.923,0,1,0,14,24.923,7.932,7.932,0,0,0,21.923,17ZM14,22.923A5.923,5.923,0,1,1,19.923,17,5.93,5.93,0,0,1,14,22.923Z"></path></g></svg>