<svg height='100px' width='100px'  fill="#000000" xmlns="http://www.w3.org/2000/svg" xmlns:xlink="http://www.w3.org/1999/xlink" version="1.1" x="0px" y="0px" viewBox="0 0 100 100" enable-background="new 0 0 100 100" xml:space="preserve"><g display="none"><polygon display="inline" opacity="0.3" fill-rule="evenodd" clip-rule="evenodd" points="38.201,20.449 44.055,21.717    45.19,23.507 49.112,24.905 52.41,28.707 59.127,27.702 66.227,29.209 70.541,34.801 71.677,38.864 75.991,41.792 77.389,38.602    78.907,34.669 84.86,34.036 88.279,35.172 92.975,36.833 92.975,42.534 91.457,49.153 92.211,51.818 90.441,57.148 91.293,60.337    89.262,62.391 91.031,65.667 86.477,72.002 70.541,71.74 66.751,68.463 61.432,61.364 55.119,61.124 52.585,62.63 57.642,65.427    56.124,68.463 44.994,62.391 33.1,57.083 29.059,57.323 20.965,55.553 15.396,50.245 8.569,50.245 5.391,49.131 7.902,45.133    8.154,41.595 14.74,34.517 23.336,32.485 29.408,30.716 29.408,26.938  "></polygon></g><g display="none"><path display="inline" d="M22.812,51.009v-6.837h4.948v0.808h-4.042v2.097h3.79v0.787h-3.79v2.337h4.194v0.808H22.812   L22.812,51.009z M29.124,51.009v-6.837h0.907v6.029h3.364v0.808H29.124L29.124,51.009z M36.475,48.803l0.852-0.066   c0.044,0.35,0.131,0.612,0.284,0.831c0.142,0.218,0.372,0.415,0.677,0.546c0.316,0.131,0.666,0.196,1.059,0.196   c0.338,0,0.645-0.043,0.907-0.152c0.273-0.11,0.47-0.24,0.59-0.415c0.142-0.197,0.196-0.372,0.196-0.59   c0-0.219-0.054-0.393-0.185-0.568c-0.121-0.153-0.328-0.285-0.612-0.394c-0.186-0.066-0.59-0.196-1.223-0.349   c-0.623-0.153-1.06-0.284-1.311-0.416c-0.338-0.175-0.579-0.393-0.732-0.633c-0.164-0.262-0.24-0.546-0.24-0.852   c0-0.35,0.087-0.677,0.284-0.961c0.196-0.305,0.491-0.545,0.863-0.699c0.382-0.153,0.796-0.24,1.256-0.24   c0.513,0,0.95,0.087,1.343,0.262c0.382,0.153,0.677,0.393,0.896,0.721c0.208,0.305,0.316,0.677,0.328,1.07l-0.863,0.065   c-0.043-0.437-0.207-0.765-0.48-0.983c-0.262-0.219-0.667-0.328-1.18-0.328c-0.557,0-0.95,0.109-1.201,0.305   c-0.251,0.197-0.383,0.437-0.383,0.721c0,0.24,0.087,0.437,0.273,0.612c0.175,0.152,0.634,0.306,1.365,0.48   c0.732,0.175,1.234,0.306,1.507,0.437c0.404,0.175,0.699,0.415,0.885,0.699c0.186,0.284,0.284,0.612,0.284,0.961   c0,0.371-0.098,0.721-0.306,1.048c-0.218,0.306-0.513,0.568-0.906,0.743c-0.382,0.175-0.819,0.262-1.311,0.262   c-0.623,0-1.146-0.087-1.562-0.262c-0.415-0.175-0.743-0.459-0.982-0.809C36.606,49.677,36.486,49.262,36.475,48.803L36.475,48.803   z M42.405,51.009l2.622-6.837h0.972l2.796,6.837h-1.027l-0.797-2.075h-2.862l-0.754,2.075H42.405L42.405,51.009z M44.372,48.191   h2.327l-0.721-1.9c-0.219-0.567-0.382-1.026-0.48-1.398c-0.087,0.437-0.208,0.874-0.371,1.311L44.372,48.191L44.372,48.191z    M49.483,51.009v-6.837h0.906v6.029h3.364v0.808H49.483L49.483,51.009z M56.08,51.009h0.929l2.676-6.837h-0.917l-1.857,4.959   c-0.131,0.371-0.251,0.764-0.36,1.114c-0.098-0.328-0.219-0.699-0.36-1.114l-1.781-4.959h-0.971L56.08,51.009L56.08,51.009z    M59.04,51.009l2.621-6.837h0.983l2.796,6.837h-1.027l-0.797-2.075h-2.861l-0.754,2.075H59.04L59.04,51.009z M61.017,48.191h2.315   l-0.721-1.9c-0.208-0.567-0.371-1.026-0.48-1.398c-0.087,0.437-0.208,0.874-0.371,1.311L61.017,48.191L61.017,48.191z    M66.161,51.009v-6.837h2.359c0.535,0,0.939,0.021,1.212,0.087c0.394,0.087,0.721,0.262,1.005,0.502   c0.361,0.305,0.634,0.677,0.809,1.158c0.186,0.48,0.273,1.027,0.273,1.639c0,0.524-0.066,0.961-0.186,1.375   c-0.12,0.394-0.273,0.721-0.459,1.005c-0.196,0.241-0.404,0.458-0.622,0.612c-0.229,0.153-0.503,0.262-0.82,0.35   c-0.327,0.066-0.688,0.109-1.103,0.109H66.161L66.161,51.009z M67.067,50.201h1.464c0.448,0,0.798-0.043,1.06-0.131   c0.251-0.087,0.458-0.197,0.611-0.35c0.208-0.218,0.382-0.502,0.502-0.874c0.12-0.349,0.175-0.786,0.175-1.311   c0-0.721-0.12-1.267-0.35-1.66c-0.229-0.372-0.524-0.634-0.852-0.764c-0.252-0.087-0.645-0.132-1.169-0.132h-1.442V50.201   L67.067,50.201z M72.791,47.689c0-1.158,0.306-2.031,0.907-2.687c0.612-0.634,1.398-0.961,2.359-0.961   c0.633,0,1.201,0.153,1.714,0.459c0.502,0.305,0.896,0.721,1.158,1.267c0.262,0.524,0.393,1.136,0.393,1.835   c0,0.699-0.131,1.311-0.416,1.857c-0.284,0.546-0.677,0.961-1.19,1.246c-0.514,0.284-1.071,0.415-1.66,0.415   c-0.645,0-1.223-0.152-1.726-0.459c-0.513-0.305-0.896-0.742-1.147-1.266C72.912,48.847,72.791,48.279,72.791,47.689L72.791,47.689   z M73.719,47.689c0,0.831,0.219,1.464,0.667,1.944c0.437,0.48,0.994,0.721,1.66,0.721c0.688,0,1.245-0.241,1.682-0.721   c0.448-0.48,0.667-1.158,0.667-2.053c0-0.546-0.098-1.027-0.284-1.442s-0.459-0.743-0.819-0.961c-0.371-0.24-0.775-0.35-1.224-0.35   c-0.644,0-1.19,0.218-1.66,0.655C73.949,45.92,73.719,46.663,73.719,47.689L73.719,47.689z M80.513,51.009v-6.837h3.025   c0.612,0,1.071,0.066,1.387,0.175c0.317,0.131,0.579,0.349,0.765,0.655c0.186,0.306,0.284,0.655,0.284,1.026   c0,0.481-0.152,0.896-0.469,1.223c-0.317,0.328-0.808,0.546-1.453,0.634c0.241,0.131,0.416,0.24,0.546,0.35   c0.262,0.24,0.514,0.546,0.754,0.917l1.18,1.856h-1.136l-0.907-1.419c-0.262-0.416-0.48-0.721-0.655-0.94   c-0.164-0.218-0.316-0.393-0.458-0.458c-0.131-0.087-0.273-0.153-0.415-0.196c-0.098,0-0.262-0.022-0.502-0.022h-1.048v3.036   H80.513L80.513,51.009z M81.409,47.187h1.944c0.415,0,0.743-0.043,0.972-0.131c0.241-0.087,0.416-0.218,0.535-0.416   c0.12-0.175,0.186-0.371,0.186-0.611c0-0.305-0.121-0.59-0.36-0.787c-0.23-0.218-0.601-0.305-1.104-0.305h-2.173V47.187z"></path></g><g><path fill="none" stroke="#000000" stroke-width="0.5" stroke-linecap="round" stroke-linejoin="round" stroke-miterlimit="10" d="   M5.333,49.5c0.645-0.967,3.347-5.209,2.017-6.204c0.351-0.641,0.603-1.339,0.984-1.934c0.25-0.39,0.768-1.515,1.033-1.875   c0.4-0.541,1.075-0.737,1.629-1.121c0.686-0.475,1.17-0.911,1.837-1.704c1.197-1.424,2.369-2.599,4.126-3.371   c0.774-0.34,1.194-0.45,2.045-0.425c1.083,0.031,0.97,0.287,2.209-0.079c1.719-0.507,3.809-1.626,5.462-1.796   c1.848-0.19,2.567,0.738,2.491-2.158c-0.023-0.887-0.365-1.285,0.209-2.071c0.602-0.824,3.334-2.969,4.307-3.441   c1.521-0.738,2.48-0.796,3.79-1.989c0.889-0.811,0.12-1.256,1.745-1c0.853,0.135,1.226,0.874,1.971,1.007   c1.301,0.232,1.316-0.336,2.525,0.322c0.553,0.301,0.99,1.247,1.491,1.512c1.091,0.577,2.674,0.435,3.671,1.284   c0.505,0.432,0.697,0.527,0.968,1.204c0.542,1.354,0.021,1.411,1.158,2.325c1.644,1.322,3.28,0.505,5.341,0.184   c1.296-0.202,2.57-0.05,3.896,0.366C61.324,28.878,61.797,29.001,63,29c0.646,0,1.759-0.124,2.333,0.163   c1.067,0.533,1.985,2.076,2.709,3.138c0.826,1.213,2.156,2.695,2.67,4.033c0.38,0.991-0.087,1.542,0.622,2.207   c0.491,0.46,1.455,0.55,2,0.956c1.214,0.903,2.838,2.476,4.057,0.378c0.909-1.564,1.021-3.938,1.805-5.649   c1.776,0.893,3.246-0.001,4.978,0.101c1.285,0.075,3.183,1.01,4.456,1.553c1.057,0.451,2.957,0.676,3.671,1.63   c0.496,0.663,0.466,1.587,0.257,2.511c-0.123,0.543-0.521,1.035-0.606,1.475c-0.043,0.22,0.208,0.838,0.178,1.172   c-0.144,1.571-0.747,3.298-1.12,4.824c-0.462,1.891,0.466,2.256,0.833,4.046c0.369,1.799-0.88,3.282-1.31,5   c-0.416,1.659,0.799,3.674,0.341,5.129c0.018-0.057-0.032,0.513-0.028,0.487c-0.075-0.169-0.584-0.716-0.676-1.027   c-1.967,1.593,1.443,3.383,0.788,5.307c-0.644,1.893-3.516,3.247-4.124,5.187c-0.406-0.33-2.306,0.308-3.159,0.367   c-0.349,0.024-0.65,0.35-1.009,0.353c-0.177,0.002-0.759-0.296-1.008-0.335c-0.615-0.098-1.177-0.153-1.825-0.171   c-2.43-0.068-5.469,1.529-7.87,0.629c-1.139-0.427-1.589-1.604-2.63-2.304c-0.998-0.671-1.978-1.151-2.955-1.866   c-1.12-0.821-2.383-1.5-3.045-2.787c-0.637-1.237-0.456-2.417-0.525-3.813c-0.772-0.095-1.464-0.64-2.295-0.546   c-0.536,0.061-0.825,0.818-1.346,0.866c-0.558,0.051-0.762-0.289-1.167-0.354c-1.314-0.211-3.092-0.651-4.333,0.463   c-2.052,1.843,2.214,1.645,3.494,1.596c1.074-0.042,1.026-0.804,1.672,0.322c0.798,1.394-0.342,1.254-0.837,1.828   c-1.028,1.192-1.394,2.342-3.159,2.013c-1.654-0.309-2.351-1.916-3.846-2.717c-0.947-0.507-1.849-0.564-2.797-0.993   c-0.951-0.43-1.479-1.408-2.365-1.84c-1.707-0.832-3.951-1.109-5.783-1.868c-2.084-0.863-3.069-2.732-4.872-3.12   c-0.988-0.212-1.876-0.419-2.712-0.35c-1.573,0.131-3.234,1.166-4.767,1.148c-0.475-1.478-4.673-2.037-6.042-2.298   c-3.394-0.648-2.376-2.432-4.442-4.351c-1.68-1.561-4.058-0.521-6.05-0.826c-1.271-0.195-3.432,0.851-4.375,0.382   C6.203,50.759,5.63,48.872,5.667,49"></path></g></svg>