<svg height='100px' width='100px'  fill="#000000" xmlns="http://www.w3.org/2000/svg" xmlns:xlink="http://www.w3.org/1999/xlink" version="1.1" x="0px" y="0px" viewBox="0 0 100 100" enable-background="new 0 0 100 100" xml:space="preserve"><g><path d="M50,8.5C26.738,8.5,7.813,27.425,7.813,50.688c0,23.262,18.925,42.187,42.187,42.187c23.262,0,42.187-18.925,42.187-42.187   C92.187,27.425,73.262,8.5,50,8.5z M89.638,48.75h-7.569c-0.416-10.385-4.159-19.867-10.059-27.017h5.091   C84.397,28.567,89.123,38.113,89.638,48.75z M65.565,82.668H35.044C26.516,75.404,21,63.713,21,50.688   c0-11.348,4.191-21.677,10.909-28.955H68.7c6.718,7.277,10.909,17.607,10.909,28.955C79.609,63.713,74.094,75.404,65.565,82.668z    M38.378,85.168h10.568v4.506C45.165,88.847,41.607,87.303,38.378,85.168z M40.262,89.161c-3.5-0.886-6.812-2.244-9.874-3.993   h3.782C36.075,86.71,38.112,88.05,40.262,89.161z M51.446,89.722v-4.554h10.785C58.94,87.344,55.31,88.907,51.446,89.722z    M66.44,85.168h3.171c-2.68,1.53-5.554,2.756-8.576,3.633C62.934,87.765,64.738,86.545,66.44,85.168z M61.036,12.574   c4.813,1.396,9.249,3.676,13.123,6.659h-4.386C67.169,16.564,64.229,14.316,61.036,12.574z M66.158,19.233H51.446v-7.581   C56.919,12.806,61.929,15.464,66.158,19.233z M30.836,19.233H25.84c4.221-3.25,9.107-5.674,14.421-7.02   C36.803,14.001,33.626,16.375,30.836,19.233z M48.946,11.701v7.532H34.452C38.625,15.515,43.558,12.878,48.946,11.701z    M22.899,21.733H28.6c-5.899,7.15-9.643,16.632-10.059,27.017h-8.179C10.876,38.113,15.602,28.567,22.899,21.733z M10.327,51.25   h8.185c0.146,12.477,5.091,23.756,12.862,31.418h-4.839C16.848,75.541,10.508,64.129,10.327,51.25z M73.465,82.668h-4.229   c7.771-7.662,12.717-18.941,12.862-31.418h7.574C89.491,64.129,83.151,75.541,73.465,82.668z"></path><path d="M71.736,52.658c-0.406-6.528-3.332-13.771-10.328-14.525c-0.535-0.058-1.063-0.087-1.566-0.087   c-2.023,0-3.499,0.458-4.926,0.902c-1.286,0.399-2.512,0.777-4.189,0.852c-1.189-2.232-0.392-6.827,0.018-8.375l-2.416-0.642   c-0.167,0.626-1.313,5.203-0.372,8.713c-1.049-0.229-2.056-0.536-3.037-0.849c-1.016-0.324-1.975-0.629-2.915-0.807   c-3.945-0.747-7.58,0.408-10.289,3.252c-3.004,3.155-4.648,8.104-4.398,13.239c0.401,8.182,4.494,15.574,8.372,19.271   c1.4,1.333,3.919,2.985,6.409,3.254c0.342,0.036,0.674,0.053,0.997,0.053c1.398,0,2.606-0.313,3.672-0.589   c0.622-0.161,1.209-0.313,1.773-0.389c1.095-0.147,2.141,0.12,3.295,0.406c1.064,0.263,2.271,0.562,3.616,0.562   c0.286,0,0.578-0.013,0.876-0.042C65.796,75.938,72.385,63.093,71.736,52.658z M56.086,74.371c-0.215,0.021-0.426,0.03-0.633,0.03   c-1.041,0-2-0.237-3.016-0.488c-1.313-0.325-2.704-0.658-4.227-0.458c-0.713,0.096-1.402,0.274-2.069,0.447   c-1.231,0.318-2.38,0.62-3.774,0.47c-1.739-0.187-3.787-1.468-4.952-2.577c-3.518-3.354-7.232-10.093-7.6-17.584   c-0.215-4.398,1.208-8.764,3.711-11.393c1.707-1.792,3.774-2.702,6.145-2.702c0.604,0,1.232,0.062,1.869,0.182   c0.791,0.15,1.679,0.433,2.621,0.733c1.705,0.544,3.638,1.16,5.834,1.282l0.142,0.002c2.371,0,4.045-0.52,5.521-0.979   c1.362-0.424,2.54-0.79,4.184-0.79c0.415,0,0.852,0.024,1.299,0.072c5.45,0.587,7.758,6.685,8.1,12.194   C69.809,61.941,64.067,73.594,56.086,74.371z"></path><path d="M52.827,35.351l0.914,0.228c0.927,0.231,1.875,0.348,2.817,0.348c8.025,0,13.636-8.278,13.87-8.631l1.117-1.676   l-1.998-0.257c-6.625-0.854-11.468,0.224-14.3,3.154c-2.535,2.624-2.458,5.759-2.453,5.892L52.827,35.351z M57.046,30.254   c1.945-2.014,5.289-2.908,9.946-2.626c-1.938,2.219-5.786,5.798-10.434,5.798c-0.383,0-0.767-0.025-1.148-0.074   C55.581,32.536,56.004,31.332,57.046,30.254z"></path><path d="M53.197,47.867h-8.71v6.211h-6.211v8.711h6.211V69h8.71v-6.211h6.211v-8.711h-6.211V47.867z M56.908,56.578v3.711h-6.211   V66.5h-3.71v-6.211h-6.211v-3.711h6.211v-6.211h3.71v6.211H56.908z"></path></g></svg>