<svg height='100px' width='100px'  fill="#000000" xmlns="http://www.w3.org/2000/svg" xmlns:xlink="http://www.w3.org/1999/xlink" version="1.1" x="0px" y="0px" viewBox="0 0 64 64" style="enable-background:new 0 0 64 64;" xml:space="preserve"><g><path d="M26,19h-8c-2.757,0-5,2.243-5,5v14c0,0.553,0.448,1,1,1h3v19c0,0.553,0.448,1,1,1h8c0.552,0,1-0.447,1-1V39h3   c0.552,0,1-0.447,1-1V24C31,21.243,28.757,19,26,19z M18,21h8c1.654,0,3,1.346,3,3v9h-2v-4h-2v24h-2V35h-2v18h-2V29h-2v4h-2v-9   C15,22.346,16.346,21,18,21z M15,37v-2h2v2H15z M19,55h2v2h-2V55z M23,57v-2h2v2H23z M27,37v-2h2v2H27z"></path><path d="M22,17c2.757,0,5-2.243,5-5v-2c0-2.757-2.243-5-5-5s-5,2.243-5,5v2C17,14.757,19.243,17,22,17z M19,10c0-1.654,1.346-3,3-3   s3,1.346,3,3v2c0,1.654-1.346,3-3,3s-3-1.346-3-3V10z"></path><path d="M48,17c2.757,0,5-2.243,5-5v-2c0-2.757-2.243-5-5-5s-5,2.243-5,5v2C43,14.757,45.243,17,48,17z M45,10c0-1.654,1.346-3,3-3   s3,1.346,3,3v2c0,1.654-1.346,3-3,3s-3-1.346-3-3V10z"></path><path d="M62,29h-4v-6c0-2.206-1.794-4-4-4H42c-2.206,0-4,1.794-4,4v6h-4c-0.552,0-1,0.448-1,1v4c0,0.553,0.448,1,1,1h1v23   c0,0.553,0.448,1,1,1h24c0.552,0,1-0.447,1-1V35h1c0.552,0,1-0.447,1-1v-4C63,29.448,62.552,29,62,29z M50.586,21L48,23.586   L45.414,21H50.586z M40,23c0-1.103,0.897-2,2-2h0.586l4.707,4.707C47.488,25.902,47.744,26,48,26s0.512-0.098,0.707-0.293   L53.414,21H54c1.103,0,2,0.897,2,2v6h-2v-4h-2v4h-8v-4h-2v4h-2V23z M59,57H37V35h22V57z M61,33H35v-2h26V33z"></path><path d="M48,55c4.962,0,9-4.037,9-9s-4.038-9-9-9s-9,4.037-9,9S43.038,55,48,55z M41.08,47h2.945   c0.091,1.98,0.452,3.897,1.071,5.361C42.974,51.389,41.424,49.389,41.08,47z M48,39c0.536,0,1.786,2.097,1.974,6h-3.948   C46.214,41.097,47.464,39,48,39z M49.974,47c-0.188,3.903-1.438,6-1.974,6s-1.786-2.097-1.974-6H49.974z M50.904,52.361   c0.619-1.464,0.98-3.382,1.071-5.361h2.945C54.576,49.389,53.026,51.389,50.904,52.361z M54.92,45h-2.945   c-0.091-1.98-0.452-3.897-1.071-5.361C53.026,40.611,54.576,42.611,54.92,45z M45.096,39.639c-0.619,1.464-0.98,3.382-1.071,5.361   H41.08C41.424,42.611,42.974,40.611,45.096,39.639z"></path><path d="M12,41h-1v-8c0-0.552-0.448-1-1-1H6c-0.552,0-1,0.448-1,1v8H4c-1.654,0-3,1.346-3,3v12c0,1.654,1.346,3,3,3h8   c1.654,0,3-1.346,3-3V44C15,42.346,13.654,41,12,41z M7,34h2v7H7V34z M13,56c0,0.552-0.449,1-1,1H4c-0.551,0-1-0.448-1-1V44   c0-0.552,0.449-1,1-1h8c0.551,0,1,0.448,1,1V56z"></path><rect x="5" y="45" width="2" height="2"></rect><rect x="9" y="45" width="2" height="2"></rect></g></svg>