<svg height='100px' width='100px'  fill="#000000" xmlns="http://www.w3.org/2000/svg" xmlns:xlink="http://www.w3.org/1999/xlink" xml:space="preserve" style="shape-rendering:geometricPrecision;text-rendering:geometricPrecision;image-rendering:optimizeQuality;" viewBox="0 0 6.82666 6.82666" x="0px" y="0px" fill-rule="evenodd" clip-rule="evenodd"><defs><style type="text/css">
   
    .fil2 {fill:none}
    .fil1 {fill:#000000}
    .fil0 {fill:#000000;fill-rule:nonzero}
   
  </style></defs><g><g><path class="fil0" d="M1.28507 3.13128l0.387531 -0.993024c0.012815,-0.0468465 0.0849291,-0.241268 0.411709,-0.310114l0.00587402 -0.00088189c0.413583,-0.0527047 0.869154,-0.0790551 1.32314,-0.0790551 0.453988,0 0.909559,0.0263504 1.32314,0.0790551l0.00587402 0.00088189c0.32678,0.0688465 0.398894,0.263268 0.411709,0.310114l0.387531 0.993024 0.0354882 0.0909528 -0.0971614 0.0109567 -2.05836 0.23215 -0.0164488 0 -2.05836 -0.23215 -0.0971614 -0.0109567 0.0354882 -0.0909528zm0.528705 -0.941933l-0.353413 0.905606 1.95296 0.220264 1.95296 -0.220264 -0.353413 -0.905606 -0.0038189 -0.0138031c-7.48031e-005,-0.000409449 -0.0243189,-0.142531 -0.29576,-0.200228 -0.403236,-0.0511575 -0.850819,-0.0767402 -1.29997,-0.0767402 -0.449154,0 -0.896736,0.0255827 -1.29997,0.0767402 -0.271441,0.0576969 -0.295685,0.199819 -0.29576,0.200228l-0.0038189 0.0138031z"></path><path class="fil1" d="M1.55452 2.90515l3.71763 0c0.253067,0 0.432882,0.159547 0.460118,0.351854l0.0876457 0.61885 -4.79659 0 0.0710827 -0.61885c0.0221693,-0.192972 0.207051,-0.351854 0.460118,-0.351854zm3.44738 0.817445c0.109484,0 0.19824,-0.0887559 0.19824,-0.19824 0,-0.109484 -0.0887559,-0.19824 -0.19824,-0.19824 -0.109484,0 -0.19824,0.0887559 -0.19824,0.19824 0,0.109484 0.0887559,0.19824 0.19824,0.19824zm-3.25017 -0.39648c0.109484,0 0.19824,0.0887559 0.19824,0.19824 0,0.109484 -0.0887559,0.19824 -0.19824,0.19824 -0.109484,0 -0.19824,-0.0887559 -0.19824,-0.19824 0,-0.109484 0.0887559,-0.19824 0.19824,-0.19824z"></path><path class="fil1" d="M0.975409 3.84494l4.87584 0c0.0671457,0 0.122079,0.054937 0.122079,0.122079l0 0.446016c0,0.0671457 -0.0549331,0.122079 -0.122079,0.122079l-4.87584 0c-0.0671457,0 -0.122079,-0.0549331 -0.122079,-0.122079l0 -0.446016c0,-0.0671417 0.0549331,-0.122079 0.122079,-0.122079zm0.231571 0.266768l0.465008 0c0.0175,0 0.031815,0.014315 0.031815,0.0318189l0 0.093c0,0.0175 -0.014315,0.031815 -0.031815,0.031815l-0.465008 0c-0.0175039,0 -0.0318189,-0.014315 -0.0318189,-0.031815l0 -0.093c0,-0.0175039 0.014315,-0.0318189 0.0318189,-0.0318189zm3.94769 0l0.465008 0c0.0175039,0 0.0318189,0.014315 0.0318189,0.0318189l0 0.093c0,0.0175 -0.014315,0.031815 -0.0318189,0.031815l-0.465008 0c-0.0175,0 -0.031815,-0.014315 -0.031815,-0.031815l0 -0.093c0,-0.0175039 0.014315,-0.0318189 0.031815,-0.0318189z"></path><rect class="fil1" x="1.37838" y="4.30506" width="0.748808" height="0.773386" rx="0.161425" ry="0.161425"></rect><rect class="fil1" x="4.69947" y="4.30506" width="0.748808" height="0.773386" rx="0.161425" ry="0.161425"></rect><rect class="fil1" x="0.974699" y="2.66685" width="0.538431" height="0.40627" rx="0.107689" ry="0.107689"></rect><rect class="fil1" x="5.31353" y="2.66685" width="0.538431" height="0.40627" rx="0.107689" ry="0.107689"></rect><rect class="fil1" x="3.35489" y="1.85187" width="0.116884" height="0.284896"></rect><rect class="fil1" transform="matrix(6.38204E-014 1.40258 -2.40972 3.71468E-014 3.65807 2.12216)" width="0.0833346" height="0.203122"></rect></g></g><rect class="fil2" width="6.82666" height="6.82666"></rect><rect class="fil2" width="6.82666" height="6.82666"></rect></svg>