<svg height='100px' width='100px'  fill="#000000" xmlns="http://www.w3.org/2000/svg" xmlns:xlink="http://www.w3.org/1999/xlink" xmlns:serif="http://www.serif.com/" viewBox="0 0 124 123" version="1.1" xml:space="preserve" style="" x="0px" y="0px" fill-rule="evenodd" clip-rule="evenodd" stroke-linejoin="round" stroke-miterlimit="2"><rect serif:id="Northern Islands" x="0.159" y="0" width="122.88" height="122.88" style="" fill="none"></rect><path d="M56.96,118.034l0.317,-0.143c0.031,-0.014 0.067,-0.017 0.1,-0.008l0.337,0.088l0.357,-0.089c0.017,-0.004 0.035,-0.005 0.053,-0.003l0.395,0.046l0.38,-0.046c0.018,-0.002 0.037,-0.001 0.055,0.004l0.365,0.093l0.384,0.047l0.379,0.07l0.37,-0.005l0.369,-0.04c0.005,-0.001 0.01,-0.001 0.014,-0.001c0,0 0.392,-0.006 0.389,-0.006l0.355,-0.011l0.369,-0.054c0.007,-0.002 0.015,-0.002 0.022,-0.002l0.394,0c0.022,0 0.044,0.005 0.063,0.014l0.364,0.168l0.324,0.172c0.004,0.002 0.007,0.004 0.011,0.006l0.28,0.182l0.332,0.241c0.012,0.01 0.023,0.021 0.033,0.033l0.251,0.345c0.012,0.017 0.021,0.036 0.025,0.057l0.087,0.401c0.008,0.04 0,0.081 -0.022,0.115l-0.217,0.325l-0.185,0.317l-0.161,0.294l-0.192,0.3c-0.014,0.023 -0.035,0.041 -0.059,0.054l-0.36,0.179c-0.017,0.009 -0.035,0.014 -0.053,0.016l-0.363,0.035l-0.367,0.118l-0.388,0.114c-0.026,0.007 -0.053,0.008 -0.078,0.002l-0.368,-0.091l-0.354,-0.044l-0.315,0.032l-0.379,0.038c-0.01,0.001 -0.02,0.001 -0.031,0l-0.372,-0.039l-0.321,0.07c-0.022,0.004 -0.045,0.004 -0.067,-0.001l-0.293,-0.07l-0.269,0.107c-0.013,0.005 -0.026,0.009 -0.04,0.01l-0.36,0.039c-0.051,0.005 -0.102,-0.016 -0.134,-0.056l-0.149,-0.189l-0.244,0.048l-0.308,0.22c-0.023,0.016 -0.049,0.025 -0.076,0.027l-0.344,0.027c-0.05,0.003 -0.099,-0.018 -0.13,-0.059l-0.163,-0.211c-0.01,-0.014 -0.018,-0.029 -0.023,-0.044l-0.084,-0.252l-0.298,-0.038c-0.061,-0.008 -0.11,-0.051 -0.126,-0.11l-0.104,-0.388l-0.106,-0.341l-0.249,-0.22c-0.028,-0.025 -0.046,-0.06 -0.05,-0.097l-0.037,-0.355c-0.003,-0.028 0.002,-0.057 0.015,-0.083l0.14,-0.28l-0.081,-0.234l-0.139,-0.346c-0.024,-0.06 -0.007,-0.129 0.043,-0.171l0.301,-0.252c0.013,-0.011 0.027,-0.019 0.042,-0.025l0.332,-0.131c0.03,-0.011 0.063,-0.013 0.094,-0.005l0.318,0.086Zm1.157,0.146l-0.367,0.092c-0.025,0.006 -0.05,0.006 -0.074,-0.001l-0.324,-0.085l-0.317,0.144c-0.032,0.014 -0.068,0.017 -0.101,0.008l-0.322,-0.087l-0.264,0.103l-0.199,0.167l0.1,0.249l0.105,0.304c0.013,0.038 0.01,0.08 -0.008,0.116l-0.148,0.297l0.027,0.254l0.236,0.209c0.02,0.018 0.035,0.042 0.044,0.068l0.119,0.384l0.081,0.299l0.292,0.038c0.057,0.007 0.105,0.046 0.123,0.101l0.106,0.317l0.097,0.127l0.222,-0.016l0.301,-0.215c0.017,-0.012 0.037,-0.021 0.058,-0.025l0.365,-0.072c0.055,-0.01 0.111,0.01 0.146,0.054l0.155,0.195l0.258,-0.027l0.295,-0.117c0.028,-0.012 0.06,-0.014 0.09,-0.007l0.306,0.073l0.31,-0.067c0.016,-0.003 0.032,-0.004 0.048,-0.003l0.381,0.04l0.363,-0.036l0.332,-0.034c0.012,-0.002 0.023,-0.001 0.035,0l0.38,0.048c0.005,0.001 0.011,0.002 0.017,0.003l0.336,0.083l0.344,-0.101l0.381,-0.123c0.01,-0.003 0.021,-0.005 0.031,-0.006l0.351,-0.034l0.299,-0.149l0.166,-0.261l0.154,-0.283l0.191,-0.326l0.189,-0.284l-0.066,-0.308l-0.219,-0.3l-0.303,-0.221l-0.271,-0.175l-0.306,-0.163l-0.33,-0.153l-0.351,0l-0.367,0.055c-0.005,0 -0.011,0.001 -0.017,0.001l-0.363,0.011l-0.387,0.006l-0.37,0.04c-0.005,0.001 -0.01,0.001 -0.014,0.001l-0.392,0.005c-0.009,0 -0.019,-0.001 -0.029,-0.002l-0.38,-0.07l-0.389,-0.048c-0.007,-0.001 -0.013,-0.002 -0.02,-0.004l-0.346,-0.089l-0.37,0.045c-0.012,0.001 -0.023,0.001 -0.035,0l-0.385,-0.045Z"></path><path d="M72.08,93.454l-0.001,-0.335c0,-0.031 0.01,-0.062 0.028,-0.088l0.217,-0.301c0.021,-0.029 0.052,-0.049 0.086,-0.058c0,0 0.39,-0.096 0.387,-0.095l0.387,-0.103c0.011,-0.003 0.022,-0.004 0.034,-0.005l0.395,-0.012c0.034,-0.001 0.067,0.01 0.094,0.03l0.323,0.24c0.017,0.013 0.032,0.031 0.043,0.05l0.155,0.294l0.316,0.211c0.016,0.01 0.029,0.023 0.04,0.038l0.245,0.345c0.003,0.004 0.006,0.008 0.009,0.013l0.205,0.365c0.007,0.012 0.012,0.026 0.015,0.04l0.082,0.36c0.001,0.007 0.002,0.013 0.003,0.02l0.023,0.28c0.001,0.009 0.001,0.017 0,0.026l-0.033,0.378c-0.002,0.026 -0.011,0.051 -0.026,0.073l-0.214,0.31c-0.008,0.011 -0.017,0.021 -0.028,0.03l-0.286,0.238l-0.304,0.234l-0.246,0.294c-0.026,0.032 -0.065,0.051 -0.106,0.054l-0.795,0.048c-0.011,0.001 -0.023,0 -0.034,-0.002l-0.391,-0.067c-0.045,-0.008 -0.083,-0.035 -0.105,-0.074l-0.181,-0.319l-0.22,-0.276l-0.289,-0.219c-0.017,-0.013 -0.031,-0.03 -0.041,-0.049l-0.178,-0.334c-0.009,-0.016 -0.014,-0.033 -0.017,-0.051l-0.053,-0.407c0,-0.004 -0.001,-0.008 -0.001,-0.012l-0.019,-0.424c-0.002,-0.026 0.004,-0.052 0.016,-0.075l0.189,-0.37c0.007,-0.013 0.016,-0.025 0.026,-0.036l0.25,-0.259Zm1.743,-0.507l-0.253,-0.188l-0.326,0.01l-0.37,0.098l-0.339,0.083l-0.156,0.217l0.001,0.346c0.001,0.039 -0.015,0.077 -0.042,0.105l-0.277,0.287l-0.161,0.315l0.017,0.378l0.049,0.373l0.15,0.281l0.277,0.211c0.01,0.007 0.019,0.016 0.026,0.025l0.24,0.3c0.005,0.006 0.009,0.013 0.013,0.02l0.152,0.267l0.303,0.052l0.713,-0.043l0.215,-0.257c0.007,-0.008 0.015,-0.016 0.024,-0.023l0.31,-0.239l0.269,-0.223l0.18,-0.26l0.028,-0.327l-0.021,-0.256l-0.075,-0.328l-0.19,-0.339l-0.225,-0.316l-0.325,-0.216c-0.021,-0.014 -0.038,-0.033 -0.05,-0.055l-0.157,-0.298Z"></path><path d="M68.34,58.394l0.419,-0.067c0.025,-0.004 0.051,-0.001 0.075,0.008l0.334,0.122l0.381,0.086l0.411,0.009c0.006,0 0.012,0 0.018,0.001l0.426,0.062c0.025,0.003 0.047,0.012 0.067,0.027l0.341,0.247c0.009,0.006 0.017,0.014 0.025,0.022l0.284,0.324c0.008,0.008 0.015,0.018 0.021,0.029l0.194,0.371c0.008,0.014 0.013,0.029 0.016,0.045l0.068,0.413c0.002,0.01 0.003,0.021 0.002,0.032l-0.019,0.392l0.096,0.387c0.004,0.014 0.005,0.029 0.005,0.043l-0.02,0.425l-0.003,0.424c0,0.035 -0.012,0.067 -0.033,0.094l-0.241,0.296l-0.189,0.332l-0.061,0.394c-0.003,0.019 -0.009,0.037 -0.019,0.054l-0.212,0.358c-0.008,0.014 -0.018,0.026 -0.03,0.036l-0.279,0.248l-0.149,0.195l-0.068,0.282c-0.01,0.039 -0.035,0.073 -0.069,0.093l-0.132,0.08c-0.059,0.036 -0.135,0.026 -0.184,-0.023l-0.28,-0.282l-0.32,-0.168l-0.368,0.043l-0.365,0.103l-0.303,0.223c-0.01,0.008 -0.021,0.014 -0.033,0.019l-0.352,0.142l-0.295,0.245l-0.207,0.297l-0.205,0.352l-0.19,0.36c-0.004,0.006 -0.008,0.013 -0.012,0.019l-0.235,0.317c0,0 -0.255,0.335 -0.254,0.334l-0.254,0.34l-0.206,0.314l0.023,0.322c0.001,0.022 -0.002,0.044 -0.01,0.064l-0.112,0.291c-0.006,0.015 -0.015,0.03 -0.026,0.043l-0.268,0.316c-0.003,0.003 -0.006,0.006 -0.008,0.008l-0.285,0.287c-0.002,0.002 -0.005,0.005 -0.007,0.007l-0.285,0.25l-0.282,0.305c-0.011,0.013 -0.025,0.023 -0.04,0.031l-0.359,0.187c-0.01,0.005 -0.021,0.009 -0.033,0.012l-0.401,0.1c0,0 -0.398,0.097 -0.395,0.096l-0.399,0.107c-0.016,0.004 -0.033,0.006 -0.05,0.005l-0.377,-0.027c-0.043,-0.003 -0.082,-0.024 -0.108,-0.058c-0.027,-0.034 -0.037,-0.078 -0.028,-0.12l0.076,-0.391c0.003,-0.013 0.007,-0.026 0.013,-0.038l0.169,-0.338l0.002,-0.362l0.006,-0.365c0,-0.023 0.006,-0.045 0.016,-0.066l0.179,-0.357l0.075,-0.397c0.003,-0.015 0.008,-0.03 0.016,-0.043l0.204,-0.379c0.003,-0.006 0.007,-0.012 0.011,-0.017l0.252,-0.349c0.013,-0.017 0.03,-0.032 0.049,-0.043c0,0 0.342,-0.191 0.34,-0.19l0.313,-0.18c0.02,-0.012 0.042,-0.018 0.065,-0.02c0,0 0.333,-0.02 0.331,-0.02l0.345,-0.026l0.337,-0.131l0.25,-0.298c0.012,-0.014 0.027,-0.026 0.043,-0.035l0.361,-0.197l0.305,-0.25c0.006,-0.005 0.012,-0.009 0.018,-0.013l0.323,-0.193l0.125,-0.328l0.089,-0.387l-0.032,-0.4l-0.031,-0.429c-0.001,-0.021 0.002,-0.043 0.009,-0.063l0.105,-0.285l-0.103,-0.212c-0.026,-0.052 -0.019,-0.114 0.017,-0.16l0.197,-0.246l0.035,-0.383c0.001,-0.009 0.003,-0.017 0.005,-0.025l0.104,-0.39c0.006,-0.02 0.015,-0.039 0.028,-0.055l0.166,-0.205l-0.044,-0.074l-0.093,0.07c-0.05,0.038 -0.118,0.041 -0.17,0.008l-0.35,-0.22c-0.038,-0.024 -0.063,-0.064 -0.069,-0.108l-0.053,-0.412c-0.002,-0.009 -0.002,-0.017 -0.002,-0.025l0.017,-0.43c0.001,-0.031 0.012,-0.061 0.031,-0.086l0.256,-0.334c0.005,-0.007 0.01,-0.012 0.016,-0.018l0.301,-0.285l0.316,-0.281c0.011,-0.01 0.023,-0.018 0.037,-0.025l0.389,-0.177c0.014,-0.006 0.029,-0.01 0.044,-0.012l0.415,-0.05Zm0.045,0.297l-0.401,0.048l-0.347,0.158l-0.294,0.261l-0.29,0.276l-0.22,0.287l-0.014,0.369l0.043,0.33l0.202,0.128l0.145,-0.11c0.034,-0.026 0.078,-0.036 0.12,-0.027c0.042,0.008 0.078,0.034 0.1,0.071l0.181,0.309c0.031,0.053 0.026,0.121 -0.013,0.17l-0.21,0.26l-0.093,0.347l-0.038,0.415c-0.003,0.029 -0.014,0.057 -0.032,0.08l-0.166,0.207l0.09,0.185c0.018,0.037 0.02,0.08 0.006,0.118l-0.116,0.315l0.028,0.394l0.034,0.423c0.001,0.015 0,0.03 -0.004,0.045l-0.096,0.42c-0.002,0.007 -0.004,0.014 -0.006,0.02l-0.147,0.387c-0.012,0.031 -0.035,0.058 -0.063,0.075l-0.358,0.214l-0.308,0.252c-0.007,0.006 -0.015,0.011 -0.023,0.016l-0.348,0.19l-0.257,0.306c-0.016,0.019 -0.037,0.034 -0.061,0.043l-0.394,0.153c-0.014,0.005 -0.028,0.008 -0.043,0.01l-0.367,0.027l-0.299,0.018l-0.282,0.163l-0.315,0.176l-0.228,0.314l-0.188,0.35l-0.075,0.394c-0.003,0.014 -0.007,0.027 -0.013,0.04l-0.174,0.345l-0.005,0.33l-0.003,0.396c0,0.022 -0.005,0.045 -0.015,0.065l-0.175,0.351l-0.04,0.205l0.183,0.013l0.378,-0.101c0,0 0.398,-0.098 0.397,-0.097l0.384,-0.096l0.319,-0.166l0.269,-0.292c0.004,-0.003 0.007,-0.007 0.011,-0.011l0.287,-0.251l0.277,-0.279l0.248,-0.292l0.091,-0.235l-0.024,-0.34c-0.002,-0.033 0.006,-0.065 0.024,-0.093l0.237,-0.36c0.001,-0.002 0.003,-0.005 0.005,-0.007l0.257,-0.345c0,0 0.256,-0.335 0.254,-0.333l0.227,-0.306l0.186,-0.353l0.213,-0.365c0.002,-0.004 0.004,-0.007 0.006,-0.01l0.223,-0.32c0.008,-0.011 0.017,-0.021 0.027,-0.029l0.329,-0.273c0.012,-0.01 0.025,-0.017 0.039,-0.023l0.356,-0.144l0.31,-0.229c0.015,-0.011 0.031,-0.019 0.049,-0.024l0.402,-0.113c0.008,-0.002 0.015,-0.004 0.023,-0.005l0.426,-0.049c0.03,-0.004 0.06,0.002 0.087,0.016l0.381,0.2c0.014,0.007 0.026,0.016 0.037,0.027l0.199,0.2l0.053,-0.224c0.005,-0.02 0.015,-0.039 0.027,-0.056l0.178,-0.231c0.006,-0.007 0.012,-0.014 0.019,-0.02l0.273,-0.242l0.185,-0.314l0.06,-0.393c0.003,-0.018 0.009,-0.036 0.018,-0.052l0.21,-0.366c0.004,-0.007 0.009,-0.014 0.014,-0.02l0.215,-0.265l0.002,-0.375l0.019,-0.412l-0.097,-0.387c-0.003,-0.014 -0.005,-0.029 -0.004,-0.043l0.02,-0.399l-0.062,-0.373l-0.176,-0.334l-0.261,-0.297l-0.298,-0.216l-0.381,-0.054l-0.416,-0.009c-0.01,-0.001 -0.02,-0.002 -0.03,-0.004l-0.405,-0.091c-0.006,-0.002 -0.013,-0.004 -0.019,-0.006l-0.306,-0.112l-0.383,0.061Z"></path><path d="M62.083,29.839l0.245,-0.234l1.564,-1.49c0.045,-0.044 0.114,-0.054 0.17,-0.026l0.274,0.138c0.044,0.022 0.074,0.064 0.081,0.113c0.007,0.048 -0.01,0.097 -0.046,0.131l-0.317,0.294l-1.558,1.446l-0.066,0.166l0.232,0.165l0.316,0.112c0.015,0.005 0.03,0.013 0.043,0.024l0.246,0.195c0.016,0.013 0.03,0.029 0.039,0.048l0.156,0.294c0.018,0.034 0.022,0.074 0.011,0.111l-0.094,0.324l0.193,0.292c0.016,0.025 0.024,0.053 0.024,0.082l0.002,0.395c0,0.023 -0.005,0.046 -0.015,0.067l-0.106,0.214l0.114,0.239c0.004,0.01 0.008,0.019 0.01,0.029l0.092,0.375c0.002,0.008 0.003,0.015 0.004,0.023l0.028,0.328c0.004,0.045 -0.013,0.09 -0.046,0.121l-0.265,0.252c-0.015,0.015 -0.034,0.027 -0.055,0.034l-0.261,0.087l-0.003,0.248c0,0.008 -0.001,0.015 -0.002,0.022l-0.053,0.329l0,0.316c0,0.018 -0.003,0.036 -0.009,0.053l-0.143,0.377c-0.008,0.023 -0.023,0.043 -0.041,0.059l-0.284,0.249c-0.032,0.028 -0.074,0.041 -0.116,0.036l-0.342,-0.041l-0.332,0.06l-0.286,0.176l-0.235,0.285l-0.148,0.341c-0.017,0.039 -0.049,0.069 -0.089,0.083l-0.324,0.11c-0.029,0.01 -0.06,0.01 -0.089,0.002l-0.342,-0.097c-0.031,-0.008 -0.057,-0.026 -0.077,-0.05l-0.236,-0.295l-0.344,-0.181l-0.371,-0.149c-0.054,-0.021 -0.091,-0.072 -0.094,-0.13l-0.022,-0.377l-0.199,-0.272c-0.007,-0.011 -0.014,-0.023 -0.018,-0.035l-0.143,-0.369l-0.287,-0.254c-0.012,-0.011 -0.022,-0.022 -0.029,-0.036l-0.206,-0.342c-0.013,-0.022 -0.02,-0.047 -0.021,-0.073l-0.013,-0.385l-0.201,-0.333c-0.011,-0.017 -0.018,-0.037 -0.02,-0.057l-0.05,-0.357c-0.004,-0.03 0.001,-0.06 0.014,-0.086l0.104,-0.212l-0.188,-0.206c-0.034,-0.037 -0.047,-0.089 -0.035,-0.138l0.095,-0.369l0.1,-0.367c0.002,-0.01 0.006,-0.02 0.011,-0.03l0.165,-0.319l0.005,-0.339c0,-0.024 0.006,-0.048 0.017,-0.069l0.188,-0.349c0.012,-0.022 0.028,-0.04 0.048,-0.053l0.31,-0.211l0.151,-0.308l0.093,-0.368c0.006,-0.022 0.016,-0.041 0.029,-0.058l0.263,-0.323c0.016,-0.02 0.037,-0.035 0.06,-0.044l0.397,-0.159c0.014,-0.006 0.029,-0.009 0.044,-0.01l0.403,-0.032c0.029,-0.002 0.058,0.004 0.084,0.018l0.318,0.174c0.01,0.006 0.02,0.012 0.028,0.02l0.197,0.176l0.348,0.011c0.009,0 0.018,0.001 0.026,0.003l0.416,0.088c0.023,0.005 0.045,0.015 0.063,0.03l0.279,0.223l0.121,0.045Zm-1.637,-0.341l-0.264,-0.144l-0.336,0.026l-0.339,0.136l-0.217,0.266l-0.089,0.352c-0.003,0.01 -0.006,0.019 -0.011,0.029l-0.175,0.358c-0.011,0.023 -0.029,0.043 -0.05,0.058l-0.313,0.212l-0.153,0.284l-0.005,0.339c0,0.023 -0.006,0.046 -0.016,0.066l-0.174,0.337l-0.094,0.348l-0.075,0.29l0.202,0.221c0.042,0.046 0.051,0.112 0.024,0.167l-0.128,0.262l0.039,0.281l0.205,0.34c0.013,0.022 0.021,0.047 0.022,0.073l0.012,0.386l0.174,0.289l0.297,0.264c0.018,0.016 0.032,0.036 0.041,0.058l0.148,0.385l0.214,0.292c0.017,0.023 0.027,0.051 0.028,0.08l0.019,0.325l0.289,0.116c0.005,0.002 0.01,0.004 0.015,0.006l0.379,0.2c0.018,0.009 0.034,0.023 0.047,0.039l0.225,0.282l0.252,0.071l0.216,-0.074l0.13,-0.3c0.006,-0.013 0.013,-0.025 0.022,-0.036l0.264,-0.321c0.011,-0.012 0.024,-0.023 0.038,-0.032l0.331,-0.203c0.016,-0.01 0.033,-0.016 0.052,-0.02l0.381,-0.069c0.015,-0.003 0.03,-0.003 0.045,-0.002l0.298,0.036l0.205,-0.179l0.119,-0.316l0,-0.301c0,-0.008 0,-0.016 0.002,-0.024l0.053,-0.33l0.005,-0.343c0.001,-0.064 0.042,-0.12 0.102,-0.14l0.33,-0.111l0.188,-0.179l-0.021,-0.245l-0.085,-0.349l-0.139,-0.29c-0.02,-0.041 -0.019,-0.09 0.001,-0.131l0.122,-0.248l-0.001,-0.315l-0.207,-0.313c-0.024,-0.036 -0.031,-0.082 -0.018,-0.124l0.096,-0.332l-0.112,-0.212l-0.202,-0.161l-0.312,-0.11c-0.013,-0.005 -0.026,-0.011 -0.037,-0.019l-0.345,-0.245c-0.057,-0.04 -0.078,-0.114 -0.053,-0.178l0.096,-0.24c-0.039,0.027 -0.089,0.033 -0.135,0.017l-0.232,-0.085c-0.016,-0.006 -0.03,-0.014 -0.043,-0.024l-0.27,-0.217l-0.368,-0.078l-0.388,-0.012c-0.036,-0.001 -0.069,-0.014 -0.096,-0.038l-0.225,-0.201Z"></path><path d="M49.335,1.383l0.337,-0.088c0.034,-0.009 0.07,-0.006 0.102,0.009l0.359,0.169c0.012,0.005 0.023,0.012 0.033,0.02l0.305,0.257c0.006,0.005 0.011,0.01 0.016,0.015l0.272,0.306c0.018,0.02 0.03,0.044 0.035,0.07l0.067,0.333l0.216,0.182l2.462,0.62c0.038,0.009 0.07,0.033 0.091,0.066l0.15,0.241c0.025,0.04 0.03,0.09 0.012,0.134l-0.471,1.197c-0.005,0.012 -0.011,0.024 -0.019,0.034l-0.25,0.341c-0.003,0.005 -0.007,0.009 -0.011,0.014l-0.586,0.627c-0.008,0.009 -0.018,0.017 -0.029,0.024l-0.292,0.186c-0.061,0.039 -0.141,0.029 -0.19,-0.024l-0.879,-0.941l-0.838,-0.898l-0.225,-0.018l-0.338,0.153c-0.018,0.009 -0.038,0.013 -0.058,0.014l-0.398,0.012c-0.02,0.001 -0.041,-0.002 -0.06,-0.01l-0.339,-0.134c-0.023,-0.009 -0.044,-0.024 -0.06,-0.043l-0.222,-0.267l-0.323,-0.154c-0.05,-0.024 -0.083,-0.073 -0.085,-0.129l-0.017,-0.39l-0.068,-0.394c-0.005,-0.025 -0.003,-0.05 0.006,-0.074l0.121,-0.355l0.081,-0.371c0.005,-0.024 0.017,-0.046 0.033,-0.065l0.21,-0.246c0.014,-0.018 0.033,-0.031 0.054,-0.041l0.185,-0.08l0.123,-0.276c0.028,-0.063 0.096,-0.099 0.164,-0.086l0.324,0.06Zm0.36,0.216l-0.317,0.083c-0.021,0.005 -0.043,0.006 -0.065,0.002l-0.24,-0.045l-0.099,0.221c-0.015,0.035 -0.042,0.062 -0.077,0.077l-0.207,0.09l-0.163,0.191l-0.075,0.343c-0.001,0.005 -0.003,0.011 -0.005,0.016l-0.111,0.327l0.063,0.366c0.001,0.006 0.002,0.012 0.002,0.019l0.014,0.309l0.271,0.129c0.019,0.009 0.037,0.023 0.051,0.039l0.218,0.263l0.275,0.109l0.337,-0.011l0.346,-0.157c0.024,-0.011 0.049,-0.015 0.074,-0.013l0.322,0.026c0.037,0.003 0.072,0.02 0.097,0.047l0.878,0.941l0.794,0.849l0.171,-0.109l0.567,-0.607l0.233,-0.317l0.436,-1.11l-0.078,-0.125l-2.437,-0.614c-0.022,-0.005 -0.043,-0.016 -0.06,-0.031l-0.282,-0.238c-0.026,-0.021 -0.044,-0.052 -0.051,-0.085l-0.069,-0.344l-0.238,-0.267l-0.282,-0.237l-0.293,-0.137Z"></path></svg>