<svg height='100px' width='100px'  fill="#000000" xmlns="http://www.w3.org/2000/svg" xmlns:xlink="http://www.w3.org/1999/xlink" version="1.1" x="0px" y="0px" viewBox="-255 347 100 100" style="enable-background:new -255 347 100 100;" xml:space="preserve"><style type="text/css">
	.st0{fill-rule:evenodd;clip-rule:evenodd;}
</style><path class="st0" d="M-200.1,405.9c1.4,0.2,2.7,0.5,3.8,0.7c1.1,0.3,2.1,0.6,2.9,0.9c0.9,0.3,1.6,0.7,2.3,1.1c0.7,0.4,1.4,0.9,2,1.5  c3.4,2.9,5.1,6.9,5.1,12c0,2.7-0.5,5.1-1.5,7.2c-1,2.1-2.4,3.9-4.3,5.4c-1.8,1.5-4.1,2.6-6.6,3.4c-1.6,0.5-3.4,0.8-5.2,1v6.9h-6  v-6.8c-3.4-0.2-6.4-0.8-9-1.8c-3.2-1.2-6.3-3.3-9.1-6.1l4.4-4.4c2.5,2.5,5,4.2,7.6,5.2c1.8,0.7,3.8,1.1,6.1,1.3v-22.5l-0.7-0.1  c-4.8-0.8-8.5-2.3-11.1-4.6c-3.1-2.7-4.6-6.5-4.6-11.3c0-2.6,0.5-4.9,1.4-7c0.9-2.1,2.2-3.9,3.9-5.4c1.7-1.5,3.7-2.6,6.1-3.4  c1.6-0.5,3.3-0.9,5.2-1.1v-18.6l-9.8,9.6l-4.2-4.2l12.8-12.6l0,0l4.2-4.2l4.2,4.2l0,0l12.8,12.6l-4.2,4.2l-9.8-9.6v18.5  c2.6,0.2,4.9,0.7,6.9,1.4c2.8,1,5.5,2.7,8.1,5.1l-4.2,4.2c-1.9-1.7-3.9-3-6-3.9c-1.4-0.6-3-0.9-4.7-1.1v22.1L-200.1,405.9z   M-201.5,433.4c3-0.4,5.4-1.3,7.3-2.7c2.6-2,3.8-4.7,3.8-8.3c0-1.6-0.2-3-0.7-4.3c-0.5-1.3-1.2-2.4-2.2-3.2c-1-0.9-2-1.5-3-1.8  c-1-0.4-2.7-0.7-4.9-1.1l-0.3-0.1V433.4z M-214.3,386.4c-2.2,2-3.3,4.8-3.3,8.2c0,3.1,0.9,5.4,2.7,7c1,0.8,2.2,1.5,3.6,2  c1.2,0.5,2.5,0.8,3.7,1.1v-21.2C-210.3,383.9-212.6,384.9-214.3,386.4z"></path></svg>