<svg height='100px' width='100px'  fill="#000000" xmlns="http://www.w3.org/2000/svg" xmlns:xlink="http://www.w3.org/1999/xlink" version="1.1" x="0px" y="0px" viewBox="0 0 64 64" enable-background="new 0 0 64 64" xml:space="preserve"><path d="M50,35.25c-0.33,0-0.65-0.13-0.88-0.36c-0.24-0.24-0.37-0.56-0.37-0.89c0-0.33,0.13-0.65,0.359-0.88  c0.471-0.47,1.311-0.47,1.771,0c0.24,0.23,0.37,0.55,0.37,0.88c0,0.33-0.13,0.65-0.37,0.88C50.649,35.12,50.33,35.25,50,35.25z"></path><path d="M50,41.25c-0.33,0-0.65-0.13-0.891-0.37C48.88,40.65,48.75,40.33,48.75,40c0-0.33,0.13-0.65,0.359-0.88  c0.48-0.47,1.311-0.47,1.771-0.01c0.24,0.24,0.37,0.56,0.37,0.89c0,0.32-0.13,0.65-0.37,0.88C50.649,41.12,50.33,41.25,50,41.25z"></path><path d="M53,38.25c-0.33,0-0.65-0.13-0.891-0.37C51.88,37.65,51.75,37.33,51.75,37c0-0.33,0.13-0.65,0.359-0.88  c0.471-0.47,1.311-0.47,1.771,0c0.24,0.23,0.37,0.55,0.37,0.88c0,0.33-0.13,0.65-0.37,0.88C53.649,38.12,53.33,38.25,53,38.25z"></path><path d="M47,38.25c-0.33,0-0.65-0.13-0.891-0.37C45.88,37.65,45.75,37.33,45.75,37c0-0.33,0.13-0.65,0.359-0.88  c0.48-0.47,1.311-0.47,1.771-0.01c0.24,0.24,0.37,0.56,0.37,0.89c0,0.33-0.13,0.65-0.37,0.88C47.649,38.12,47.33,38.25,47,38.25z"></path><path d="M44,46H12c-0.553,0-1-0.448-1-1s0.447-1,1-1h32c0.553,0,1,0.448,1,1S44.553,46,44,46z"></path><path d="M54,54h-8c-0.553,0-1-0.448-1-1s0.447-1,1-1h8c0.553,0,1,0.448,1,1S54.553,54,54,54z"></path><path d="M46,54c-1.654,0-3-1.346-3-3c0-0.552,0.447-1,1-1s1,0.448,1,1c0,0.551,0.448,1,1,1c0.553,0,1,0.448,1,1S46.553,54,46,54z"></path><path d="M54,32h-8c-0.553,0-1-0.448-1-1s0.447-1,1-1h8c0.553,0,1,0.448,1,1S54.553,32,54,32z"></path><path d="M44,34c-0.553,0-1-0.448-1-1c0-1.654,1.346-3,3-3c0.553,0,1,0.448,1,1s-0.447,1-1,1c-0.552,0-1,0.449-1,1  C45,33.552,44.553,34,44,34z"></path><path d="M44,52c-0.553,0-1-0.448-1-1V33c0-0.552,0.447-1,1-1s1,0.448,1,1v18C45,51.552,44.553,52,44,52z"></path><path d="M56,26c-0.553,0-1-0.448-1-1V15c0-0.552,0.447-1,1-1s1,0.448,1,1v10C57,25.552,56.553,26,56,26z"></path><path d="M56,34c-0.553,0-1-0.448-1-1c0-0.551-0.448-1-1-1c-0.553,0-1-0.448-1-1s0.447-1,1-1c1.654,0,3,1.346,3,3  C57,33.552,56.553,34,56,34z"></path><path d="M56,52c-0.553,0-1-0.448-1-1V33c0-0.552,0.447-1,1-1s1,0.448,1,1v18C57,51.552,56.553,52,56,52z"></path><path d="M54,54c-0.553,0-1-0.448-1-1s0.447-1,1-1c0.552,0,1-0.449,1-1c0-0.552,0.447-1,1-1s1,0.448,1,1C57,52.654,55.654,54,54,54z"></path><path d="M56,16c-0.553,0-1-0.448-1-1c0-1.654-1.346-3-3-3c-0.553,0-1-0.448-1-1s0.447-1,1-1c2.757,0,5,2.243,5,5  C57,15.552,56.553,16,56,16z"></path><path d="M52,12H12c-0.553,0-1-0.448-1-1s0.447-1,1-1h40c0.553,0,1,0.448,1,1S52.553,12,52,12z"></path><path d="M33,54c-0.553,0-1-0.448-1-1v-8c0-0.552,0.447-1,1-1s1,0.448,1,1v8C34,53.552,33.553,54,33,54z"></path><path d="M25,54c-0.553,0-1-0.448-1-1v-8c0-0.552,0.447-1,1-1s1,0.448,1,1v8C26,53.552,25.553,54,25,54z"></path><path d="M39,54H19c-0.553,0-1-0.448-1-1s0.447-1,1-1h20c0.553,0,1,0.448,1,1S39.553,54,39,54z"></path><path d="M8,42c-0.553,0-1-0.448-1-1V15c0-0.552,0.447-1,1-1s1,0.448,1,1v26C9,41.552,8.553,42,8,42z"></path><path d="M12,46c-2.757,0-5-2.243-5-5c0-0.552,0.447-1,1-1s1,0.448,1,1c0,1.654,1.346,3,3,3c0.553,0,1,0.448,1,1S12.553,46,12,46z"></path><path d="M8,16c-0.553,0-1-0.448-1-1c0-2.757,2.243-5,5-5c0.553,0,1,0.448,1,1s-0.447,1-1,1c-1.654,0-3,1.346-3,3  C9,15.552,8.553,16,8,16z"></path></svg>