<svg height='100px' width='100px'  fill="#000000" xmlns="http://www.w3.org/2000/svg" xmlns:xlink="http://www.w3.org/1999/xlink" version="1.1" x="0px" y="0px" viewBox="0 0 68 68" style="enable-background:new 0 0 68 68;" xml:space="preserve"><g><g><path d="M60,66H8c-0.6,0-1-0.4-1-1V28H3c-0.4,0-0.8-0.3-0.9-0.7c-0.1-0.4,0-0.9,0.3-1.1l31-24c0.4-0.3,0.9-0.3,1.2,0l31,24    c0.3,0.3,0.5,0.7,0.3,1.1C65.8,27.7,65.4,28,65,28h-4v37C61,65.6,60.6,66,60,66z M9,64h50V27c0-0.6,0.4-1,1-1h2.1L34,4.3L5.9,26H8    c0.6,0,1,0.4,1,1V64z"></path></g><g><path d="M34,59c-9.4,0-17-7.6-17-17s7.6-17,17-17s17,7.6,17,17S43.4,59,34,59z M34,27c-8.3,0-15,6.7-15,15s6.7,15,15,15    s15-6.7,15-15S42.3,27,34,27z"></path></g><g><path d="M27,50c-0.3,0-0.5-0.1-0.7-0.3c-0.4-0.4-0.4-1,0-1.4l14-14c0.4-0.4,1-0.4,1.4,0s0.4,1,0,1.4l-14,14    C27.5,49.9,27.3,50,27,50z"></path></g><g><path d="M29,41c-1.7,0-3-1.3-3-3s1.3-3,3-3s3,1.3,3,3S30.7,41,29,41z M29,37c-0.6,0-1,0.4-1,1s0.4,1,1,1s1-0.4,1-1S29.6,37,29,37z    "></path></g><g><path d="M37.9,49.9c-1.7,0-3-1.3-3-3s1.3-3,3-3s3,1.3,3,3S39.6,49.9,37.9,49.9z M37.9,45.9c-0.6,0-1,0.4-1,1s0.4,1,1,1s1-0.4,1-1    S38.5,45.9,37.9,45.9z"></path></g></g></svg>