<svg height='100px' width='100px'  fill="#000000" xmlns:dc="http://purl.org/dc/elements/1.1/" xmlns:cc="http://creativecommons.org/ns#" xmlns:rdf="http://www.w3.org/1999/02/22-rdf-syntax-ns#" xmlns:svg="http://www.w3.org/2000/svg" xmlns="http://www.w3.org/2000/svg" xmlns:sodipodi="http://sodipodi.sourceforge.net/DTD/sodipodi-0.dtd" xmlns:inkscape="http://www.inkscape.org/namespaces/inkscape" version="1.1" x="0px" y="0px" viewBox="0 0 100 100"><g transform="translate(0,-952.3622)"><path style="text-indent:0;text-transform:none;direction:ltr;block-progression:tb;baseline-shift:baseline;color:#000000;enable-background:accumulate;" d="m 63.627847,993.6903 c -12.33478,0 -22.340908,9.9797 -22.340908,22.3203 0,12.3406 10.006128,22.3516 22.340908,22.3516 C 75.962768,1038.3622 86,1028.3512 86,1016.0106 86,1003.67 75.962768,993.6903 63.627847,993.6903 z m 0,1.4693 c 5.498227,0 10.495326,2.1242 14.216941,5.5957 l -29.465001,29.4791 c -3.455529,-3.7312 -5.593039,-8.7358 -5.593039,-14.2238 0,-11.5296 9.31692,-20.851 20.841099,-20.851 z m 15.279306,6.6585 c 3.455543,3.7206 5.561792,8.7045 5.561792,14.1925 0,11.5296 -9.316778,20.9136 -20.841098,20.9136 -5.49816,0 -10.464099,-2.1451 -14.185695,-5.627 l 29.465001,-29.4791 z" fill="#000000" fill-opacity="1" stroke="none" marker="none" visibility="visible" display="inline" overflow="visible"></path><path style="text-indent:0;text-transform:none;direction:ltr;block-progression:tb;baseline-shift:baseline;color:#000000;enable-background:accumulate;" d="m 38.220114,966.43708 c -2.892848,-0.244 -5.868463,0.10743 -8.799139,1.06709 -11.722989,3.8388 -18.146926,16.46041 -14.310084,28.18893 3.836984,11.7284 16.497141,18.111 28.219988,14.2722 a 0.75191286,0.75226816 0 1 0 -0.488921,-1.4228 c -10.952491,3.5865 -22.724116,-2.3808 -26.308961,-13.3386 -3.584703,-10.95761 2.379752,-22.69041 13.332244,-26.27695 10.952634,-3.5864 22.724259,2.38088 26.308962,13.33854 1.324691,4.04911 1.402339,8.36891 0.177763,12.44931 a 0.74998118,0.75033556 0 1 0 1.422106,0.4448 c 1.312604,-4.3739 1.24221,-9.043 -0.177763,-13.38312 -2.877632,-8.79632 -10.697366,-14.60723 -19.376195,-15.3394 z" fill="#000000" fill-opacity="1" stroke="none" marker="none" visibility="visible" display="inline" overflow="visible"></path><path style="text-indent:0;text-transform:none;direction:ltr;block-progression:tb;baseline-shift:baseline;color:#000000;enable-background:accumulate;" d="m 22.10188,977.96605 c -0.392649,0.0164 -0.735018,0.38869 -0.718658,0.78152 0.01636,0.39284 0.388501,0.73537 0.78115,0.71901 l 3.499555,0 3.905753,15.44292 c 0.08176,0.3167 0.391662,0.5594 0.718659,0.5627 l 16.247932,0 c 0.301118,-0.01 0.58709,-0.2161 0.687413,-0.5002 1.405705,-4.0199 2.698139,-8.0106 4.061983,-12.0042 0.160493,-0.45418 -0.237219,-1.00778 -0.718659,-1.00035 l -20.278669,0 c -0.396187,-0.006 -0.760594,0.35384 -0.760594,0.75026 0,0.39642 0.364407,0.75588 0.760594,0.75026 l 19.247551,0 -0.843643,2.50088 c -5.237498,0 -10.483694,0 -15.71675,0 -0.394823,0.0132 -0.741247,0.38685 -0.724801,0.78185 0.01645,0.3948 0.392739,0.7383 0.787293,0.7187 l 15.154322,0 -0.843643,2.5009 c -3.974709,-10e-5 -7.970783,0 -11.935981,0 -0.392649,0.033 -0.720134,0.4199 -0.687413,0.8127 0.03272,0.3928 0.419748,0.7205 0.812397,0.6878 l 11.279814,0 -0.843642,2.5009 -15.123076,0 -3.905753,-15.41169 c -0.06981,-0.3281 -0.383434,-0.5873 -0.718659,-0.59396 -1.372583,0 -2.75666,0 -4.124475,0 z" fill="#000000" fill-opacity="1" stroke="none" marker="none" visibility="visible" display="inline" overflow="visible"></path><path style="text-indent:0;text-transform:none;direction:ltr;block-progression:tb;baseline-shift:baseline;color:#000000;enable-background:accumulate;" d="m 31.944378,997.9859 a 0.75250392,0.75286266 0 1 0 0.124984,1.5005 l 4.061983,0 a 0.7499797,0.75033724 0 1 0 0,-1.5005 l -4.061983,0 a 0.7499797,0.75033724 0 0 0 -0.124984,0 z" fill="#000000" fill-opacity="1" stroke="none" marker="none" visibility="visible" display="inline" overflow="visible"></path><path style="text-indent:0;text-transform:none;direction:ltr;block-progression:tb;baseline-shift:baseline;color:#000000;enable-background:accumulate;" d="m 40.037098,997.9859 a 0.7539621,0.75432154 0 1 0 0.15623,1.5005 l 4.061983,0 a 0.7499797,0.75033724 0 1 0 0,-1.5005 l -4.061983,0 a 0.7499797,0.75033724 0 0 0 -0.15623,0 z" fill="#000000" fill-opacity="1" stroke="none" marker="none" visibility="visible" display="inline" overflow="visible"></path></g></svg>