<svg height='100px' width='100px'  fill="#000000" xmlns="http://www.w3.org/2000/svg" xmlns:xlink="http://www.w3.org/1999/xlink" version="1.1" x="0px" y="0px" viewBox="0 0 100 100" style="enable-background:new 0 0 100 100;" xml:space="preserve"><path d="M10,89c0,0.5522461,0.4472656,1,1,1h53.4541016c0.5527344,0,1-0.4477539,1-1s-0.4472656-1-1-1h-7.3382568  c0.3601074-6.5599365,5.7949219-11.7900391,12.442749-11.7900391c6.8798828,0,12.4765625,5.597168,12.4765625,12.4775391  c0,0.5522461,0.4472656,1,1,1s1-0.4477539,1-1c0-4.8129883-2.3699951-9.072998-5.9941406-11.7067871  c0.1630859-2.6082764,2.3156738-4.6862793,4.9638672-4.6862793C85.7587891,72.2944336,88,74.5351562,88,77.2895508  c0,0.5522461,0.4472656,1,1,1s1-0.4477539,1-1c0-3.8569336-3.1376953-6.9951172-6.9951172-6.9951172  c-3.3537598,0-6.1608887,2.3731689-6.8374023,5.5275269c-1.9838867-1.0234375-4.2270508-1.6119995-6.6088867-1.6119995  c-7.7513428,0-14.0802002,6.1273193-14.442627,13.7900391H11C10.4472656,88,10,88.4477539,10,89z"></path><path d="M10.9765625,71.9443359h25.3525391c0.5527344,0,1-0.4477539,1-1c0-3.21875,2.6181641-5.8374023,5.8369141-5.8374023  s5.8369141,2.6186523,5.8369141,5.8374023c0,0.5522461,0.4472656,1,1,1h12.15625c0.5527344,0,1-0.4477539,1-1s-0.4472656-1-1-1  H50.9318848c-0.4498291-3.5082397-3.2231445-6.2922363-6.7253418-6.7600708  c0.4118652-5.572998,5.0672607-9.9845581,10.7436523-9.9845581c5.7641602,0,10.4729004,4.5496826,10.7568359,10.2446289h-7.1210938  c-0.5527344,0-1,0.4477539-1,1s0.4472656,1,1,1H89c0.5527344,0,1-0.4477539,1-1s-0.4472656-1-1-1H77.7509766V44.3493652  c3.2382812,3.7489624,8.3934326,4.161377,10.4765625,4.161377c0.5605469,0,0.8984375-0.0292969,0.9160156-0.0307617  c0.5498047-0.0532227,0.9511719-0.5410156,0.8994141-1.0898438c-0.0527344-0.5493164-0.5371094-0.956543-1.0898438-0.9013672  c-0.3549805,0.032959-8.619873,0.7144165-11.2021484-6.0181885v-7.0512085  c3.0507812,3.2859497,7.7893066,3.5474243,9.1591797,3.5474243c0.2353516,0,0.3710938-0.0073242,0.3818359-0.0078125  c0.5507812-0.0351562,0.9697266-0.5102539,0.9345703-1.0615234s-0.5175781-0.9692383-1.0615234-0.9345703  c-0.0688477,0.0038452-7.2226562,0.3832397-9.4140625-5.2749634v-6.2199097  c2.80896,2.7590332,6.9643555,2.8327637,7.3134766,2.8327637c0.0058594,0,0.0107422,0,0.0146484,0  c0.5507812-0.0029297,0.9951172-0.4521484,0.9931641-1.003418s-0.4501953-0.996582-1.0009766-0.996582  c-0.0009766,0-0.0009766,0-0.0019531,0c0,0-0.0009766,0-0.0019531,0c-0.2597656,0-5.6162109-0.0635986-7.3164062-4.3947754  v-5.7843628c2.0622559,1.7819824,4.7254639,2.0925903,4.8798828,2.1088257  c0.0351562,0.003418,0.0703125,0.0053711,0.1044922,0.0053711c0.5058594,0,0.9404297-0.3823242,0.9931641-0.8964844  c0.0576172-0.5493164-0.3408203-1.0410156-0.890625-1.0981445c-0.0400391-0.0039062-4.0019531-0.4516602-5.1474609-3.5849609  c-0.0029297-0.0081787-0.0098877-0.0132446-0.0130615-0.0213013c-0.005249-0.0133057-0.0093994-0.0263672-0.0151367-0.0393677  c-0.0253906-0.0571289-0.0682373-0.1028442-0.1038818-0.1544189c-0.0310059-0.0446777-0.0534668-0.0958862-0.0906982-0.1342773  c-0.0079346-0.0081787-0.0155029-0.015686-0.0235596-0.0235596c-0.0383301-0.0371094-0.0891113-0.0592041-0.133667-0.0901489  c-0.0516357-0.0356445-0.0974121-0.0787964-0.1546631-0.104187c-0.0134277-0.0059814-0.0268555-0.0100708-0.0407715-0.0155029  c-0.0075684-0.0029907-0.0124512-0.0095825-0.0202637-0.0124512c-0.0454102-0.0166626-0.0916748-0.0113525-0.1376953-0.0211182  c-0.0610352-0.0131836-0.1187744-0.0335083-0.1818848-0.0350342C76.7666016,10.0046997,76.7595215,10,76.7509766,10  c-0.0083008,0-0.0151367,0.0045776-0.0234375,0.0047607c-0.0639648,0.0015259-0.1226807,0.0220337-0.1844482,0.0355225  c-0.0454102,0.0097046-0.0909424,0.0043335-0.1358643,0.020752c-0.0078125,0.0028687-0.0126953,0.0094604-0.0203857,0.0124512  c-0.0135498,0.0053711-0.0270996,0.0093994-0.0404053,0.0153198c-0.0571289,0.0253296-0.1026611,0.0684204-0.1542969,0.1039429  c-0.0446777,0.0310059-0.0958252,0.0532837-0.1342773,0.0905762c-0.0081787,0.0079346-0.0158691,0.0155029-0.0236816,0.0236816  c-0.0369873,0.038147-0.059082,0.0889282-0.0899658,0.1333008c-0.0358887,0.0518188-0.0789795,0.0978394-0.1046143,0.1553955  c-0.0056152,0.0130005-0.0097656,0.0258789-0.0148926,0.0391235c-0.0031738,0.0080566-0.0102539,0.0132446-0.0131836,0.0214233  c-1.1308594,3.0922852-5.0654297,3.5751953-5.1494141,3.5849609c-0.5478516,0.0581055-0.9462891,0.5493164-0.8886719,1.0981445  c0.0527344,0.5141602,0.4873047,0.8964844,0.9931641,0.8964844c0.0341797,0,0.0693359-0.0019531,0.1044922-0.0053711  c0.1544189-0.0162354,2.817627-0.3269043,4.8798828-2.1088257v5.7849121  c-1.6992188,4.3311157-7.0574951,4.3942261-7.3164062,4.3942261c-0.0009766,0-0.0019531,0-0.0019531,0  c-0.0019531,0-0.0029297,0-0.0039062,0c-0.5498047,0-0.9970703,0.4438477-1,0.9941406  c-0.0029297,0.5522461,0.4423828,1.0024414,0.9941406,1.0058594c0.0039062,0,0.0087891,0,0.0146484,0  c0.3498535,0,4.5050049-0.0736694,7.3134766-2.8325195v6.2208862c-2.1779785,5.6316528-9.1157227,5.2887573-9.4150391,5.2737427  c-0.5361328-0.0385742-1.0253906,0.3857422-1.0585938,0.9365234c-0.0341797,0.5507812,0.3828125,1.0244141,0.9335938,1.0595703  c0.0107422,0.0004883,0.1464844,0.0078125,0.3818359,0.0078125c1.369873,0,6.1080322-0.2618408,9.1582031-3.5473633v7.0516357  c-2.5822754,6.732605-10.8481445,6.0506592-11.2021484,6.0177002c-0.5537109-0.0537109-1.0371094,0.3520508-1.0898438,0.9013672  c-0.0517578,0.5488281,0.3496094,1.0366211,0.8994141,1.0898438c0.0175781,0.0014648,0.3554688,0.0307617,0.9160156,0.0307617  c2.0837402,0,7.2387695-0.4127808,10.4765625-4.161377v19.0949707h-8.0439453  c-0.2858887-6.7981567-5.8901367-12.2446289-12.7568359-12.2446289c-6.7746582,0-12.3208008,5.3015137-12.743042,11.9720459  c-3.5408936,0.4348145-6.3536377,3.2368774-6.8070068,6.772583h-3.1772461  c-0.392334-4.5843506-4.0100098-8.2612305-8.5705566-8.7349854V45.057312  c2.9067383,3.151001,7.3498535,3.5110474,9.1689453,3.5110474c0.4990234,0,0.8007812-0.0258789,0.8164062-0.0273438  c0.5498047-0.0532227,0.953125-0.5419922,0.8994141-1.0917969c-0.0527344-0.5498047-0.5488281-0.9477539-1.0908203-0.8994141  c-0.0803223,0.0062866-7.5175781,0.6455688-9.7939453-5.2401733v-5.9385376  c2.2980957,2.3093262,5.6239014,2.9853516,7.7617188,2.9853516c0.2050781,0,0.3994141-0.0063477,0.5800781-0.0175781  c0.5507812-0.0351562,0.9697266-0.5102539,0.9345703-1.0615234c-0.0341797-0.5512695-0.5292969-0.9746094-1.0615234-0.9345703  c-0.0638428,0.0019531-6.2958984,0.3326416-8.2148438-4.581604v-5.2103882  c2.513916,2.2919312,6.0588379,2.3496094,6.3632812,2.3496094c0.0048828,0,0.0087891,0,0.0126953,0  c0.5517578-0.0029297,0.9970703-0.4536133,0.9941406-1.0058594c-0.0029297-0.550293-0.4501953-0.9941406-1-0.9941406  c-0.0019531,0-0.0039062,0-0.0058594,0c0.0212402,0.0284424-4.8566895-0.0049438-6.3642578-3.8023682v-4.848938  c1.8239746,1.4610596,4.0612793,1.7183838,4.1953125,1.7323608c0.0351562,0.0039062,0.0703125,0.0053711,0.1044922,0.0053711  c0.5058594,0,0.9404297-0.3823242,0.9931641-0.8964844c0.0576172-0.5493164-0.3417969-1.0410156-0.890625-1.0981445  c-0.0341797-0.003418-3.4726562-0.3916016-4.4628906-3.1000977c-0.0029297-0.0081177-0.0098877-0.0132446-0.0130615-0.0212402  c-0.005249-0.0133057-0.0093994-0.0264282-0.0151367-0.0394287c-0.0255127-0.0574341-0.0686035-0.1034546-0.1044922-0.1552734  c-0.0308838-0.0443726-0.0529785-0.0951538-0.0899658-0.1333008c-0.0078125-0.0081787-0.0155029-0.0157471-0.0236816-0.0236816  c-0.0385742-0.0372925-0.0895996-0.0595703-0.1342773-0.0905762c-0.0515137-0.0355225-0.097168-0.0786133-0.1541748-0.1038818  c-0.0134277-0.0059814-0.0268555-0.0099487-0.0406494-0.0153809c-0.0075684-0.0029907-0.0124512-0.0095825-0.0202637-0.0124512  c-0.0454102-0.0166626-0.0913086-0.0113525-0.137207-0.0211182c-0.0614014-0.0133057-0.1196289-0.0336304-0.1831055-0.0351562  c-0.0083008-0.0001831-0.0151367-0.0047607-0.0234375-0.0047607c-0.0081787,0-0.0148926,0.0044556-0.0231934,0.0046387  c-0.0648193,0.0015259-0.1240234,0.0220337-0.1866455,0.0358887c-0.0447998,0.0097046-0.0897217,0.0042725-0.1339111,0.0205078  c-0.0078125,0.0028687-0.0126953,0.0094604-0.0203857,0.0124512c-0.0133057,0.005249-0.0267334,0.0090942-0.0397949,0.0148926  c-0.0582275,0.0258179-0.1051025,0.0695801-0.1575928,0.1060791c-0.0438232,0.0305176-0.0939941,0.0523071-0.1315918,0.0888672  c-0.0080566,0.0078125-0.015625,0.0152588-0.0234375,0.0233765c-0.0373535,0.0385132-0.0598145,0.0897217-0.0908203,0.1345215  c-0.0356445,0.0516357-0.0786133,0.09729-0.1040039,0.15448c-0.0056152,0.0129395-0.0097656,0.0258789-0.0148926,0.0391235  c-0.0031738,0.0080566-0.0102539,0.0132446-0.0131836,0.0214233c-0.9824219,2.6855469-4.4316406,3.0966797-4.4658203,3.1005859  c-0.5478516,0.0585938-0.9453125,0.5493164-0.8876953,1.0976562c0.0527344,0.5141602,0.4873047,0.8964844,0.9931641,0.8964844  c0.0341797,0,0.0693359-0.0014648,0.1044922-0.0053711c0.1340332-0.0139771,2.3713379-0.2713013,4.1953125-1.7323608v4.8496704  c-1.4865723,3.7489014-6.1540527,3.8016357-6.3662109,3.8016357c-0.0019531,0-0.0029297,0-0.0039062,0  c-0.5498047,0-0.9970703,0.4438477-1,0.9941406c-0.0029297,0.5522461,0.4423828,1.0029297,0.9941406,1.0058594  c0.0039062,0,0.0078125,0,0.0126953,0c0.3051758,0,3.8496094-0.0578613,6.3632812-2.3496704v5.2115479  c-1.9066162,4.8880005-7.9614258,4.5950317-8.2167969,4.5805054c-0.5859375-0.0419922-1.0253906,0.3847656-1.0595703,0.9345703  c-0.0351562,0.5512695,0.3837891,1.0263672,0.9345703,1.0615234c0.1816406,0.0112305,0.375,0.0175781,0.5800781,0.0175781  c2.1376953,0,5.4637451-0.6758423,7.7617188-2.9851685v5.9396362c-2.2619629,5.8588257-9.4810791,5.2698975-9.7958984,5.2388916  c-0.5527344-0.0512695-1.0351562,0.3535156-1.0888672,0.9013672c-0.0517578,0.5493164,0.3496094,1.0366211,0.8994141,1.0898438  c0.015625,0.0014648,0.3173828,0.0273438,0.8164062,0.0273438c1.8190918,0,6.2624512-0.3604126,9.1689453-3.5111084v16.1520996  c-4.5604248,0.4737549-8.1773682,4.1506348-8.5695801,8.7349854h-2.1062012c-0.5527344,0-1,0.4477539-1,1  S10.4238281,71.9443359,10.9765625,71.9443359z M22.6523438,63.1567383c3.918457,0,7.152832,2.9771118,7.5656738,6.7875977  H15.0876465C15.5002441,66.1338501,18.7338867,63.1567383,22.6523438,63.1567383z"></path><path d="M37.3369141,80.972168c0.5527344,0,1-0.4477539,1-1s-0.4472656-1-1-1H15.8193359c-0.5527344,0-1,0.4477539-1,1  s0.4472656,1,1,1H37.3369141z"></path><path d="M48.8369141,80.972168c0.5527344,0,1-0.4477539,1-1s-0.4472656-1-1-1h-6.1699219c-0.5527344,0-1,0.4477539-1,1  s0.4472656,1,1,1H48.8369141z"></path><path d="M36.8886719,35.3989258c0.0810547,0.0205078,0.1630859,0.0302734,0.2441406,0.0302734  c0.2861328,0,0.5644531-0.1235352,0.7568359-0.3461914l0.3837891-0.449707  c2.8378906-3.3398438,8.7421875-10.2895508,18.0019531-3.7817383c0.3574219,0.2514648,0.8378906,0.2421875,1.1835938-0.0244141  c0.3466797-0.265625,0.4804688-0.7260742,0.3310547-1.1367188c-3.8847656-10.6323242,4.3603516-14.5317383,8.3232422-16.4057617  l0.53125-0.253418c0.3408203-0.1645508,0.5595703-0.5068359,0.5654297-0.8847656s-0.2021484-0.7270508-0.5371094-0.9023438  c-3.8017578-1.9833984-8.4482422-1.5854492-11.8408203,1.0166016c-2.9746094,2.2802734-4.5537109,5.8789062-4.2978516,9.5375977  c-3.4677734-1.1967773-7.3525391-0.6044922-10.3242188,1.6762695c-3.3916016,2.6010742-4.9833984,6.9858398-4.0537109,11.1713867  C36.2382812,35.0151367,36.5214844,35.3066406,36.8886719,35.3989258z M41.4267578,25.0615234  c1.6123047-1.2368164,3.5527344-1.8671875,5.5039062-1.8671875c1.5048828,0,3.0166016,0.375,4.3896484,1.1352539  c0.3486328,0.1928711,0.7792969,0.1606445,1.0927734-0.081543c0.3154297-0.2421875,0.4580078-0.6479492,0.3623047-1.0341797  c-0.8681641-3.4995117,0.4169922-7.1757812,3.2734375-9.3662109c2.1875-1.6772461,5.0126953-2.2358398,7.6367188-1.6035156  c-4.0351562,2.0722656-10.5693359,6.4472656-8.5302734,15.5786133c-8.2880859-4.3369141-14.2109375,0.8388672-17.2578125,4.1977539  C37.9677734,29.3232422,39.2402344,26.7387695,41.4267578,25.0615234z"></path></svg>