<svg height='100px' width='100px'  fill="#000000" xmlns="http://www.w3.org/2000/svg" xmlns:xlink="http://www.w3.org/1999/xlink" version="1.1" x="0px" y="0px" viewBox="0 0 100 100" enable-background="new 0 0 100 100" xml:space="preserve"><g><path fill="none" stroke="#000000" stroke-linecap="round" stroke-linejoin="round" stroke-miterlimit="10" d="M22.375,81.375   c-0.039,0.092-0.079,0.072-0.125,0L22,39.25c0.191,0.017,0.322-0.073,0.364,0.106c-0.409-0.359-0.95,0.059-1.236-0.123   c-0.442-0.28-1.087-1.163-1.405-1.574c-0.768-0.992-1.084-1.465-1.116-2.765c-3.279-0.07-2.38-3.068-0.472-4.747   c0.863-0.761,1.396-0.632,1.146-1.8c-0.121-0.566-0.379-1.032-0.913-1.259c-0.7-0.298-0.962,0.269-1.396,0.289   c-1.591,0.074-4.048-2.371-4.878-3.725c-0.349-0.569-0.136-0.947-0.342-1.396c-0.383-0.839-0.457-0.502-1.1-1.035   c-1.195-0.993-0.553-1.554-0.671-2.953c-0.706-0.35-2.427-0.64-2.106-1.519l49.25-1.25c0.927,0.973,1.956,1.53,2.844,2.265   c1.6,1.324,0.424,1.86,0.182,3.366c-0.107,0.667,0.196,1.08,0.227,1.719c0.029,0.601-0.309,1.277-0.105,1.896   c0.313,0.954,0.891,1.98,1.354,2.878c0.548,1.061,1.109,1.962,1.872,2.869c1.126,1.341,2.392,1.858,3.655,3.034   c0.921,0.857,2.379,1.686,3.072,2.722c0.865,1.291,0.276,2.995,0.904,4.381c0.49,1.082,2.086,2.145,3.124,1.653   c0.768-0.364,0.444-1.139,1.656-0.884c0.71,0.149,1.199,0.854,1.591,1.365c0.099-0.093,0.283-0.18,0.369-0.255   c1.838,2.014-0.543,1.444-0.226,3.222c0.118,0.031,0.22,0.005,0.338,0.037c0.069,0.581-0.295,0.862-0.447,1.354   c-0.227,0.732-0.048,1.246-0.152,1.981c-0.153,1.075-1.366,2.196-1.419,3.248c-0.049,0.973,0.976,0.934,1.638,1.805   c0.771,1.014,1.093,1.544,2.274,2.095c2.023,0.941,4.175,2.061,5.973,3.53c0.7,0.573,1.88,1.359,2.154,2.222   c0.291,0.914-0.389,2.454,0.638,3.117c-0.847,0.98-0.942,1.638-0.871,2.983c1.65,0.431,1.852,4.818,3.45,2.765   c0.205,0.462,0.285,0.974,0.303,1.479c1.922-0.1,1.078,1.012,0.825,2.182c-0.416,1.92-0.931,3.013-2.368,4.478   c0.048,0.106,0.12,0.135,0.162,0.244c-0.154,0.236-0.483,0.498-0.772,0.583c-0.471-1.475-2.422-1.94-2.378-0.108   c0.002,0.064,0.49,1.055,0.541,1.375c0.095,0.591,0.083,0.748-0.034,1.394c-0.245,1.355-1.131,2.163-1.503,3.388   c-0.076,0.25,0.243,0.7,0.103,1.111c-0.147,0.432-0.767,0.918-0.972,1.257l-7.25-0.125c-0.262-2.053,1.875-2.25,2.909-3.744   c1.081-1.562-0.622-2.915-1.909-3.756L22.375,81.375z"></path></g></svg>