<svg height='100px' width='100px'  fill="#000000" xmlns="http://www.w3.org/2000/svg" xmlns:xlink="http://www.w3.org/1999/xlink" version="1.1" x="0px" y="0px" viewBox="0 0 100 100" enable-background="new 0 0 100 100" xml:space="preserve"><g display="none"><polygon display="inline" opacity="0.3" fill-rule="evenodd" clip-rule="evenodd" points="23.213,61.245 23.213,55.097    25.997,52.779 27.229,50 27.229,48.146 30.011,46.291 31.862,42.739 33.873,41.813 35.571,36.56 36.497,34.709 36.343,33.624    36.497,30.075 38.507,27.604 40.511,30.691 42.216,31.616 43.754,33.008 45.611,32.235 47.929,33.164 52.25,32.698 55.033,33.164    56.424,30.228 56.265,28.684 53.948,26.366 51.637,24.668 53.488,23.587 55.958,23.277 60.126,19.881 60.126,17.564 61.824,15.247    63.988,14.938 64.761,12.927 63.988,11.386 64.142,9.222 64.142,6.908 65.533,6.289 67.391,7.83 67.391,9.994 68.316,11.076    71.712,11.848 74.102,15.234 73.689,15.201 70.207,19.082 68.915,18.843 68.835,21.433 67.377,26.772 67.537,29.849 69.721,31.55    69.808,37.136 71.505,38.431 70.613,40.938 67.863,43.285 68.429,44.097 63.089,49.684 63.735,51.301 62.197,52.676 61.711,53.808    59.527,53.729 57.423,55.104 56.531,57.45 53.694,59.234 53.694,61.904 54.507,64.332 53.455,65.467 54.101,68.3 57.989,69.029    59.121,70.807 66.971,75.341 68.236,77.678 63.988,80.428 56.578,81.043 52.716,84.442 49.007,85.368 45.765,88.61 44.986,91.048    42.609,88.454 41.39,89.263 41.963,90.395 40.019,92.905 38.72,92.017 36.536,93.797 35.645,92.339 37.588,89.263 35.325,88.454    33.46,89.506 32.488,89.263 33.054,87.322 33.221,82.868 34.672,79.875 37.429,79.632 39.692,77.524 37.588,78.577 33.627,78.497    32.895,77.608 32.734,72.508 35.325,68.3 33.946,66.272 35.404,65.3 35.971,63.439 34.592,63.605 33.46,65.061 29.978,65.547    29.013,64.168 26.662,62.877 26.502,64.495 24.964,65.547 23.992,61.741 23.506,61.984  "></polygon></g><g display="none"><path display="inline" d="M69.173,58.695v-6.831h0.932l3.589,5.363v-5.363h0.866v6.831h-0.926l-3.588-5.366v5.366H69.173   L69.173,58.695z M75.805,55.369c0-1.135,0.3-2.023,0.912-2.663c0.606-0.643,1.392-0.965,2.357-0.965   c0.632,0,1.205,0.153,1.705,0.453c0.506,0.303,0.892,0.723,1.158,1.262c0.267,0.54,0.4,1.152,0.4,1.834   c0,0.692-0.14,1.315-0.419,1.858c-0.28,0.549-0.673,0.962-1.186,1.245c-0.513,0.279-1.065,0.419-1.658,0.419   c-0.646,0-1.225-0.153-1.725-0.466c-0.513-0.31-0.892-0.732-1.158-1.271C75.931,56.538,75.805,55.969,75.805,55.369L75.805,55.369z    M76.737,55.383c0,0.826,0.22,1.472,0.659,1.944c0.446,0.476,0.999,0.712,1.671,0.712c0.679,0,1.238-0.236,1.678-0.715   c0.439-0.479,0.659-1.159,0.659-2.041c0-0.553-0.093-1.039-0.28-1.455s-0.466-0.736-0.826-0.966   c-0.366-0.226-0.772-0.343-1.218-0.343c-0.639,0-1.192,0.22-1.651,0.659C76.963,53.618,76.737,54.357,76.737,55.383L76.737,55.383z    M83.521,58.695v-6.831h3.023c0.612,0,1.079,0.063,1.391,0.183c0.313,0.123,0.566,0.34,0.759,0.649   c0.193,0.312,0.287,0.656,0.287,1.032c0,0.482-0.16,0.892-0.473,1.225s-0.799,0.546-1.458,0.636   c0.247,0.113,0.426,0.227,0.553,0.34c0.259,0.243,0.513,0.546,0.746,0.909l1.192,1.857h-1.139l-0.906-1.422   c-0.259-0.406-0.479-0.722-0.652-0.938c-0.166-0.22-0.319-0.373-0.459-0.459c-0.133-0.086-0.267-0.146-0.413-0.18   c-0.1-0.023-0.267-0.034-0.5-0.034H84.42v3.033H83.521L83.521,58.695z M84.42,54.88h1.944c0.413,0,0.739-0.043,0.972-0.13   c0.233-0.086,0.406-0.223,0.526-0.409c0.127-0.189,0.187-0.39,0.187-0.612c0-0.323-0.12-0.59-0.353-0.796   c-0.233-0.21-0.606-0.313-1.112-0.313H84.42V54.88L84.42,54.88z M91.964,58.695V52.67h-2.25v-0.806h5.413v0.806H92.87v6.025H91.964   L91.964,58.695z M96.085,58.695v-6.831h0.906v2.806h3.549v-2.806h0.905v6.831h-0.905v-3.219h-3.549v3.219H96.085L96.085,58.695z    M69.319,69.358v-6.835h0.906v3.393l3.396-3.393h1.225l-2.87,2.77l2.99,4.065h-1.192l-2.43-3.459l-1.119,1.092v2.367H69.319   L69.319,69.358z M75.452,66.029c0-1.132,0.3-2.021,0.912-2.66c0.606-0.643,1.392-0.965,2.357-0.965   c0.633,0,1.199,0.153,1.705,0.453c0.506,0.303,0.892,0.723,1.159,1.262c0.266,0.54,0.399,1.152,0.399,1.834   c0,0.693-0.14,1.312-0.419,1.858c-0.28,0.549-0.672,0.962-1.185,1.241c-0.52,0.283-1.065,0.423-1.658,0.423   c-0.646,0-1.225-0.153-1.731-0.466c-0.506-0.31-0.885-0.735-1.152-1.275C75.578,67.201,75.452,66.628,75.452,66.029L75.452,66.029z    M76.384,66.046c0,0.822,0.22,1.472,0.659,1.944c0.446,0.473,0.999,0.712,1.671,0.712c0.679,0,1.238-0.24,1.678-0.719   c0.439-0.476,0.659-1.155,0.659-2.037c0-0.556-0.093-1.039-0.28-1.455c-0.193-0.416-0.466-0.736-0.825-0.969   c-0.366-0.223-0.772-0.34-1.219-0.34c-0.639,0-1.192,0.22-1.651,0.659C76.61,64.281,76.384,65.018,76.384,66.046L76.384,66.046z    M83.162,69.358v-6.835h3.029c0.612,0,1.072,0.067,1.392,0.187c0.313,0.123,0.566,0.34,0.759,0.649   c0.193,0.313,0.287,0.656,0.287,1.032c0,0.482-0.16,0.892-0.473,1.225c-0.312,0.333-0.799,0.543-1.458,0.636   c0.247,0.113,0.426,0.227,0.553,0.34c0.26,0.24,0.513,0.543,0.746,0.909l1.192,1.857h-1.139l-0.905-1.422   c-0.267-0.409-0.479-0.722-0.652-0.938c-0.173-0.22-0.32-0.373-0.459-0.459c-0.133-0.086-0.273-0.146-0.413-0.18   c-0.1-0.023-0.266-0.034-0.5-0.034h-1.052v3.033H83.162L83.162,69.358z M84.067,65.543h1.944c0.413,0,0.739-0.043,0.972-0.13   c0.233-0.086,0.406-0.223,0.526-0.409c0.126-0.189,0.187-0.393,0.187-0.612c0-0.323-0.12-0.59-0.353-0.796   c-0.233-0.21-0.606-0.313-1.112-0.313h-2.164V65.543L84.067,65.543z M90.06,69.358v-6.835H95v0.81h-4.035v2.09h3.782v0.802h-3.782   v2.327h4.195v0.806H90.06L90.06,69.358z M95.659,69.358l2.624-6.835h0.979l2.796,6.835h-1.032l-0.799-2.071h-2.856l-0.752,2.071   H95.659L95.659,69.358z M97.63,66.552h2.317l-0.712-1.891c-0.22-0.576-0.379-1.045-0.486-1.418   c-0.087,0.439-0.207,0.875-0.366,1.308L97.63,66.552z"></path></g><g><path fill="none" stroke="#000000" stroke-linecap="round" stroke-linejoin="round" stroke-miterlimit="10" d="M25.875,65   c-0.287,0.341-1.231-0.051-1.631-0.566c-0.637-0.82,0.052-1.478-0.118-2.184c-0.152-0.633-0.493-0.98-0.624-1.619   c-0.179-0.876-0.224-1.801-0.253-2.704c-0.023-0.715-0.226-1.884,0.025-2.552c0.344-0.916,0.997-0.943,1.726-1.493   c2.085-1.575,2.663-3.415,2.071-5.848c0.945-0.157,1.812-2.044,2.312-2.756c0.365-0.519,0.686-1.36,1.084-1.79   c0.641-0.691,0.816-0.375,1.659-0.606c3.013-0.827,3.418-5.29,3.906-7.902c0.126-0.672,0.054-1.325,0.091-2.008   c0.056-1.021,0.366-1.528,0.656-2.466c0.213-0.692,0.264-3.301,1.75-2.888c0.591,0.164,0.619,1.307,1.091,1.786   c0.441,0.446,1.327,0.975,1.891,1.235c0.484,0.223,1.493,0.265,1.843,0.601c0.408,0.392,0.044,1.037,0.642,1.404   c0.567-1.131,1.051-0.757,2.128-0.392c1.037,0.352,1.878,0.361,2.998,0.347c1.091-0.014,2.273-0.092,3.371-0.1   c0.511-0.003,1.093,0.289,1.614,0.129c0.603-0.185,0.689-1.072,1.493-1.139c0.236-0.921,0.313-1.781,0.276-2.667   c-0.052-1.242-0.611-1.594-1.47-2.453c-0.305-0.305-1.878-1.318-1.942-1.585c-0.176-0.735,1.631-1.58,2.405-1.662   c1.237-0.131,1.471,0.21,2.5-0.744c0.548-0.509,1.746-1.109,2.134-1.653c0.545-0.765,0.331-2.177,0.738-3.097   c0.557-1.257,1.7-2.54,2.859-3.242c0.75,1.444,1.625-0.316,1.663-1.136c0.021-0.435-0.36-0.84-0.421-1.25   c-0.079-0.529,0.1-0.923,0.125-1.402c0.037-0.719-0.365-1.972-0.099-2.72c0.394-1.106,2.261-1.245,2.896-0.262   c0.31,0.479,0.242,1.841,0.485,2.384c0.769,1.712,1.471,0.977,2.984,1.497c0.988,0.34,1.466,1.142,2.012,1.969   c0.973,1.476,0.903,1.354-0.148,2.88c-0.124-0.11-0.324-0.21-0.427-0.319c0.044,0.131,0.013,0.509,0.085,0.713   c-1.657-0.392-1.383,1.289-1.878,2.253c-1.375-1.817-1.096,2.552-1.269,3.271c-0.265,1.101-0.805,1.995-1.196,3.01   c-0.419,1.088-0.33,2.119-0.526,3.223c-0.267,1.506-0.649,1.067,0.454,2.024c0.322,0.279,0.656,0.5,0.91,0.854   c0.854,1.189,0.054,0.51-0.119,1.997c-0.022,0.188,0.311,0.859,0.375,1.097c0.163,0.606,0.201,1.248,0.218,1.898   c0.025,0.932-0.271,2.139,1.287,1.302c0.367,0.272,0.871,1.611,0.749,2.088c-0.158,0.621-1,1.034-1.373,1.634   c-0.234,0.375-0.31,0.926-0.628,1.328c-0.184-0.138-0.48-0.128-0.612-0.202c-0.589,0.94-0.403,1.645-1.163,2.6   c-1.149,1.444-2.392,3.056-3.746,4.127c-1.01,0.799-0.507,0.313-0.729,1.378c-0.147,0.708-0.205,0.764-0.506,1.278   c-0.719,1.226-1.331,1.659-2.548,2.169c-1.25,0.524-1.738,1.145-2.48,2.293c-0.72,1.116-1.813,1.025-2.872,1.943   c-1.106,0.958-1.439,1.675-1.072,3.041c0.233,0.87,0.33,1.88,0.491,2.885c1.001,0.299,0.12,0.747-0.022,1.309   c-0.185,0.732-0.444,0.959-0.097,1.865c0.736,1.926,1.683,0.533,2.906,1.226c2.1-0.041,1.109,1.216,2.354,2.127   c0.424,0.311,1.003,0.105,1.472,0.389c0.639,0.385,1.271,1.219,1.93,1.691c1.289,0.923,3.344,1.153,4.411,2.436   c0.41,0.493,0.529,0.89,0.646,1.48c0.226,1.134-0.005,1.078-0.872,1.714c-0.453,0.332-0.859,0.699-1.237,0.931   c-0.653,0.401-1.166,0.975-1.785,1.257c-1.226,0.561-2.386,0.197-3.706,0.215c-0.562,0.007-1.215,0.277-1.659,0.391   c-0.661,0.169-1.713,0.257-2.271,0.604c-1.309,0.813-1.85,2.188-3.557,2.665c-0.618,0.172-1.051,0.048-1.681,0.123   c-1.207,0.143-1.082,0.582-1.816,1.333c-0.705,0.724-1.681,0.796-2.284,1.878c-0.55,0.985-0.076,2.791-1.597,2.786   c-0.9-0.002-1.033-0.98-1.815-1.49c-0.549-0.357-1.363-0.437-1.944-0.646c-0.261,0.886,0.651,0.667,0.712,1.1   c0.064,0.453-0.362,1.233-0.637,1.631c-0.447,0.647-2.182,2.968-2.585,0.879c-0.866,0.43-1.427,1.743-2.511,0.752   c-1.438-1.313,1.028-1.419,0.852-2.627c-0.284-1.952-4.07-0.225-5.208-0.264c0.019-1.571-0.038-3.398,0.715-4.758   c0.366-0.662,1.033-1.348,1.159-2.112c0.061-0.371-0.247-0.816-0.171-1.27c0.207-1.231,1.565-1.576,2.439-2.325   c0.546-0.469,1.996-0.789,2.077-1.505c-0.882,0.09-1.848,0.506-2.723,0.715c-0.021-0.111,0.11-0.094,0.108-0.201   c-1.321-0.822-1.638,0.15-2.27-1.427c-0.617-1.539-0.404-2.758-0.094-4.348c0.24-1.23,0.511-2.589,1.216-3.746   c0.323-0.531,0.81-0.173,0.662-0.985c-0.033-0.184-0.927-1.012-1.124-1.241c1.01-0.467,2.865-3.427,1.114-3.933   c-1.619,1.739-2.607,2.373-4.875,1.774c-1.376-0.363-2.015-1.684-3.731-1.865c-0.009,0.887,0.369,1.743-0.747,2.012"></path></g></svg>