<svg height='100px' width='100px'  fill="#000000" xmlns="http://www.w3.org/2000/svg" xmlns:xlink="http://www.w3.org/1999/xlink" version="1.1" x="0px" y="0px" viewBox="0 0 283.5 283.5" enable-background="new 0 0 283.5 283.5" xml:space="preserve"><g display="none"><g display="inline"><g><g><path fill="#000000" d="M220.5,131.6c-52.4,0-104.8,0-157.3,0c-13.1,0-13.1,20.3,0,20.3c52.4,0,104.8,0,157.3,0      C233.6,152,233.6,131.6,220.5,131.6L220.5,131.6z"></path></g><g><path fill="#000000" d="M131.7,63.2c0,52.4,0,104.8,0,157.3c0,13.1,20.3,13.1,20.3,0c0-52.4,0-104.8,0-157.3      C152,50.1,131.7,50.1,131.7,63.2L131.7,63.2z"></path></g></g></g></g><g display="none"><g display="inline"><path fill="#000000" d="M216.3,55.7v0.2h-15.7l-9.4,9.4H92.7l-9.4-9.4H53.6V219l8.3,9.4H65h153.9h3.2l8.2-9.7v-163L216.3,55.7    L216.3,55.7z M192.3,79.3v95H92.1v-95H192.3z M68.2,214.4l-0.6-0.7V69.9h9.9l9.4,9.4h0.6v99.6h109.5V79.3h0l9.4-9.4h10v143.7    l-0.7,0.9L68.2,214.4L68.2,214.4z"></path></g></g><g display="none"><g display="inline"><g><path fill="#000000" d="M141.7,229.8c-48.7,0-88.2-39.6-88.2-88.2s39.6-88.2,88.2-88.2S230,92.9,230,141.6     S190.4,229.8,141.7,229.8z M141.7,66.5c-41.4,0-75.1,33.7-75.1,75.1s33.7,75.1,75.1,75.1s75.1-33.7,75.1-75.1     S183.1,66.5,141.7,66.5z"></path></g><g><path fill="#000000" d="M141.7,208.1c-36.7,0-66.5-29.8-66.5-66.5s29.8-66.5,66.5-66.5s66.5,29.8,66.5,66.5     S178.4,208.1,141.7,208.1z M141.7,76.2c-36.1,0-65.4,29.3-65.4,65.4s29.3,65.4,65.4,65.4s65.4-29.3,65.4-65.4     C207.1,105.5,177.8,76.2,141.7,76.2z"></path></g><g><circle fill="#000000" cx="141.7" cy="141.6" r="33.4"></circle></g></g></g><g display="none"><g display="inline"><path fill="#000000" d="M223.9,73.5c0-1.6-1-2.8-2.4-3.3c-0.5-1.4-1.8-2.4-3.3-2.4c-37.9,0-75.7,0-113.6,0    c-0.8-3.3-1.6-6.6-2.4-9.9c-0.3-1.3-1.3-2.1-2.5-2.4c-0.6-1.1-1.7-1.9-3.1-1.9c-11.4,0-22.7,0-34.1,0c-1.9,0-3.6,1.6-3.6,3.6    c0,1.4,0,2.9,0,4.3c0,1.9,1.6,3.6,3.6,3.6c9.9,0,19.8,0,29.6,0c6.7,27,13.4,54,20,81c-9,2.1-17.9,4.3-26.9,6.4    c-1.3,0.3-2.1,1.3-2.4,2.5c-1.1,0.6-1.9,1.7-1.9,3.1c0,8.1,0,16.2,0,24.3c0,1.5,1,2.8,2.4,3.3c0.5,1.4,1.8,2.4,3.3,2.4    c43.8,0,87.7,0,131.6,0c1,0,1.7-0.4,2.3-0.9c0.1-0.1,0.2-0.1,0.2-0.2c0.1-0.1,0.1-0.2,0.2-0.2c0.5-0.6,0.9-1.3,0.9-2.3    c0-1.4,0-2.9,0-4.3c0-1.9-1.6-3.6-3.6-3.6c-41.9,0-83.9,0-125.9,0c0-4.7,0-9.4,0-14.1c42.4-10.1,84.9-20.3,127.3-30.4    c1.2-0.3,2-1.2,2.4-2.4c0.2-0.1,0.4-0.3,0.6-0.5c0.1-0.1,0.2-0.1,0.2-0.2c0.1-0.1,0.1-0.2,0.2-0.2c0.5-0.6,0.9-1.3,0.9-2.3    C223.9,108.9,223.9,91.2,223.9,73.5z M212.5,122.1c-29.7,7.1-59.5,14.2-89.2,21.3c-5.3-21.4-10.5-42.8-15.8-64.2c35,0,70,0,105,0    C212.5,93.6,212.5,107.8,212.5,122.1z"></path><path fill="#000000" d="M99.9,200.3c-8.1-0.4-13.9,6.9-14.3,14.3c-0.4,8.1,6.9,13.9,14.3,14.3c8.1,0.4,13.9-6.9,14.3-14.3    C113.8,206.5,108,200.7,99.9,200.3z"></path><path fill="#000000" d="M193.7,200.3c-8.1-0.4-13.9,6.9-14.3,14.3c-0.4,8.1,6.9,13.9,14.3,14.3c8.1,0.4,13.9-6.9,14.3-14.3    C207.5,206.5,201.7,200.7,193.7,200.3z"></path></g></g><g display="none"><g display="inline"><g><path fill="#000000" d="M91.1,140.8c-20.5,0-37.2-16.7-37.2-37.2s16.7-37.2,37.2-37.2s37.2,16.7,37.2,37.2     S111.6,140.8,91.1,140.8z M91.1,80.8c-12.6,0-22.8,10.2-22.8,22.8s10.2,22.8,22.8,22.8s22.8-10.2,22.8-22.8S103.7,80.8,91.1,80.8     z"></path></g><g><path fill="#000000" d="M191.6,215.7c-20.5,0-37.2-16.7-37.2-37.2s16.7-37.2,37.2-37.2s37.2,16.7,37.2,37.2     C228.8,199,212.1,215.7,191.6,215.7z M191.6,155.6c-12.6,0-22.8,10.2-22.8,22.8s10.2,22.8,22.8,22.8c12.6,0,22.8-10.2,22.8-22.8     S204.2,155.6,191.6,155.6z"></path></g><g><polygon fill="#000000" points="103.6,215.2 82,215.2 175.4,78.3 196.9,78.3    "></polygon></g></g></g><g display="none"><g display="inline"><g><path fill="#000000" d="M209.1,227.9H73c-10.4,0-18.8-8.4-18.8-18.8V73c0-10.4,8.4-18.8,18.8-18.8h136.1     c10.4,0,18.8,8.4,18.8,18.8v136.1C227.9,219.5,219.5,227.9,209.1,227.9z M75.4,206.7h131.3V75.4H75.4     C75.4,75.4,75.4,206.7,75.4,206.7z"></path></g><g><rect x="92.2" y="91.2" fill="#000000" width="99.4" height="12.7"></rect></g><g><rect x="92.2" y="119.8" fill="#000000" width="99.4" height="12.7"></rect></g><g><rect x="92.2" y="148.4" fill="#000000" width="48.9" height="12.7"></rect></g></g></g><g display="none"><g display="inline"><path fill="#000000" d="M133.7,198.3c-25.7,0-46.7-21.9-47.4-49l18.6,9.5l-3.1-64l-13.6,10.6l-0.5-0.4c-0.6,0.7-1.2,1.4-1.7,2.1    l-32.8,25.6l19.1,9.7c-0.2,1.9-0.2,3.7-0.2,5.6c0,35.6,27.6,64.5,61.5,64.5c4.9,0,9.8-0.6,14.6-1.8l-3.5-13.7    C141.1,197.8,137.4,198.3,133.7,198.3z"></path><path fill="#000000" d="M208.1,147c0.8-4.1,1.2-8.3,1.2-12.6c0-35.5-27.6-64.4-61.5-64.4c-6,0-12,0.9-17.7,2.7l4.2,13.5    c4.3-1.4,8.9-2.1,13.4-2.1c26.1,0,47.4,22.6,47.4,50.3c0,1.7-0.1,3.4-0.2,5.1l-19.8-11.2l1.4,66.7l51.9-36.6L208.1,147z"></path></g></g><g display="none"><path display="inline" fill="#000000" d="M224.7,212.7c-13.1-13.1-26.3-26.3-39.4-39.4c22.2-28.4,20.3-69.6-5.8-95.7   c-28.2-28.2-74.1-28.2-102.3,0s-28.2,74.1,0,102.3c26.1,26.1,67.3,28,95.7,5.8c13.1,13.1,26.3,26.3,39.4,39.4   C217.8,230.5,230.2,218.1,224.7,212.7z M87.1,170c-22.7-22.7-22.7-59.7,0-82.5s59.7-22.7,82.5,0s22.7,59.7,0,82.5   S109.9,192.7,87.1,170z"></path></g><g display="none"><g display="inline"><g><path fill="#000000" d="M189,227.2H92.8c-9.1,0-16.4-7.4-16.4-16.5v-96.1c0-9.1,7.4-16.5,16.4-16.5H189c9.1,0,16.4,7.4,16.4,16.5     v96.2C205.4,219.8,198,227.2,189,227.2z M92.8,111.5c-1.7,0-3.1,1.4-3.1,3.1v96.2c0,1.7,1.4,3.1,3.1,3.1H189     c1.7,0,3.1-1.4,3.1-3.1v-96.2c0-1.7-1.4-3.1-3.1-3.1L92.8,111.5L92.8,111.5z"></path></g><g><path fill="#000000" d="M140.9,187.6c-13.7,0-24.9-11.2-24.9-24.9c0-13.7,11.2-24.9,24.9-24.9s24.9,11.2,24.9,24.9     C165.8,176.4,154.6,187.6,140.9,187.6z M140.9,146.7c-8.8,0-16,7.2-16,16s7.2,16,16,16c8.8,0,16-7.2,16-16     S149.7,146.7,140.9,146.7z"></path></g><g><rect x="104.3" y="82.6" fill="#000000" width="13.3" height="22.2"></rect></g><g><path fill="#000000" d="M163.1,84.3h-13.3c0-8.9-7.2-16.1-16.1-16.1s-16.1,7.2-16.1,16.1h-13.3c0-16.2,13.2-29.4,29.4-29.4     S163.1,68.1,163.1,84.3z"></path></g></g></g><g display="none"><polygon display="inline" fill="#000000" points="203.7,140.9 203.7,140.9 78.5,225.5 78.5,56.3  "></polygon></g><g display="none"><polygon display="inline" fill="#000000" points="79.1,141.6 79.1,141.6 204.4,56.9 204.4,226.2  "></polygon></g><g display="none"><polygon display="inline" fill="#000000" points="141.8,204.3 141.8,204.3 57.1,79.1 226.4,79.1  "></polygon></g><g display="none"><polygon display="inline" fill="#000000" points="141.8,79.1 141.8,79.1 226.4,204.3 57.1,204.3  "></polygon></g><g display="none"><path display="inline" fill="#000000" d="M213,75.1H70.5c-8.1,0-14.7,6.6-14.7,14.7v103.4c0,8.1,6.6,14.7,14.7,14.7H213   c8.1,0,14.7-6.6,14.7-14.7V89.8C227.7,81.7,221.1,75.1,213,75.1z M141.8,140.8c-23.8-18.5-47.6-37-71.4-55.5c0,0,0.1,0,0.1,0H213   c0,0,0.1,0,0.1,0C189.4,103.8,165.6,122.3,141.8,140.8z M217.6,193.2c0,2.5-2,4.5-4.5,4.5H70.5c-2.5,0-4.5-2-4.5-4.5V89.8   c0-0.8,0.2-1.5,0.6-2.1c24.6,19.1,49.1,38.2,73.7,57.2c0.4,0.3,0.8,0.4,1.2,0.4c0.1,0,0.2,0,0.2,0c0.1,0,0.2,0,0.2,0   c0.4,0,0.8-0.1,1.2-0.4c24.6-19.1,49.1-38.2,73.7-57.2c0.4,0.6,0.6,1.4,0.6,2.1V193.2L217.6,193.2z"></path></g><g display="none"><g display="inline"><path fill="#000000" d="M53.3,53v177.2h177.2V53L53.3,53L53.3,53z M192.2,203.6c0-6.9,5.6-12.5,12.5-12.5c5.3,0,9.9,3.3,11.7,8v9    c-1.8,4.7-6.4,8-11.7,8C197.9,216.1,192.2,210.5,192.2,203.6z M204.8,181.7c-12.1,0-21.9,9.8-21.9,21.9c0,4.7,1.5,9,4,12.6H97    c2.5-3.5,3.9-7.8,3.9-12.5c0-12.1-9.8-21.9-21.9-21.9c-4.3,0-8.3,1.3-11.7,3.4V97.4c3.5,2.4,7.8,3.9,12.4,3.9    c12,0,21.9-9.8,21.9-21.9c0-4.6-1.4-8.9-3.9-12.4h87.4c-2.4,3.5-3.8,7.8-3.8,12.3c0,12,9.8,21.9,21.9,21.9c5,0,9.6-1.7,13.3-4.5    v88.5C213.1,183,209.1,181.7,204.8,181.7z M77.8,216.2c-4.8-0.5-8.8-3.7-10.5-8v-9c1.8-4.7,6.4-8,11.7-8c6.9,0,12.5,5.6,12.5,12.5    c0,6.5-5,11.8-11.3,12.5H77.8z M92.3,79.3c0,6.9-5.6,12.5-12.5,12.5c-6.3,0-11.5-4.7-12.4-10.8v-3.6c0.8-5.4,5-9.8,10.5-10.6h3.9    C87.7,67.9,92.3,73.1,92.3,79.3z M205.5,67c5.8,1.1,10.2,6.2,10.2,12.3c0,6.9-5.6,12.5-12.5,12.5c-6.9,0-12.5-5.6-12.5-12.5    c0-6.1,4.4-11.2,10.2-12.3C200.8,67,205.5,67,205.5,67z"></path><path fill="#000000" d="M141.9,104.8c-20.3,0-36.8,16.5-36.8,36.8s16.5,36.8,36.8,36.8s36.8-16.5,36.8-36.8    S162.2,104.8,141.9,104.8z M141.9,169c-15.1,0-27.4-12.3-27.4-27.4s12.3-27.4,27.4-27.4s27.4,12.3,27.4,27.4S157,169,141.9,169z"></path><circle fill="#000000" cx="141.9" cy="141.6" r="16.3"></circle></g></g><g display="none"><g display="inline"><path fill="#000000" d="M149.4,229.4c-1.6-10.9-2-21.7-2.4-32.1c0-1.1,0-2.2,0-3.3c0-1.5,0-2.8,0.1-4c0-1.3,0.2-2.6,0.3-3.8    c0,0,0-0.1,0-0.2l0.2-4.4c0.4-7.1,0.7-14.7,0.1-22c0.1-1.3,0.1-2.6,0.1-4c0-7-0.6-14-1.2-20.8c-0.7-7.6-1.4-15.5-1.2-23.1    c0.4-4.1-0.4-8.7-2.4-13.2c-0.3-0.8-0.6-1.6-1-2.5l-0.4-1c0,0,0,0,0-0.1c-0.1-0.3-0.3-0.6-0.4-0.9c-1.3-2.9-2.3-5.5-1.8-8.1    c0.7-2.9,2.1-5.5,3.5-8.4c2.6-5.1,5.3-10.4,4.1-16.8c-0.3-1.4-1.6-2.3-3.1-2.1c-1.4,0.3-2.3,1.6-2.1,3.1c0.9,4.7-1.2,8.7-3.6,13.4    c-1.5,3-3.1,6.1-4,9.5c0,0,0,0,0,0.1c-1,4.3,0.7,8,2.1,11.4c0.1,0.3,0.2,0.6,0.4,0.9l0.4,1c0.3,0.8,0.6,1.7,1,2.5    c0,0,0,0.1,0.1,0.2c1.7,3.7,2.4,7.5,2,10.7c0,0.1,0,0.2,0,0.2c-0.2,8,0.5,16.1,1.2,23.8c0.6,6.7,1.2,13.6,1.2,20.3    c0,1.4,0,2.7-0.1,4c0,0.1,0,0.2,0,0.4c0.6,7.1,0.3,14.2-0.1,21.5l-0.2,4.3c-0.1,1.3-0.2,2.7-0.3,4.1c-0.1,1.3-0.1,2.7-0.1,4.3    c0,1.1,0,2.2,0,3.4c0.4,10.5,0.8,21.3,2.4,32.4h5.2C149.4,229.6,149.4,229.5,149.4,229.4z"></path></g></g><g display="none"><g display="inline"><path fill="#000000" d="M144.7,229.4c0-2.5-0.1-5-0.1-7.7c0-7,0-14.3-1-21.4c-0.1-1.3-0.2-2.6-0.4-3.8l0-0.3    c-0.5-5.3-1.1-10.9-1.2-16.3c0-1.3,0.1-2.6,0.2-4.2c0.3-4.6,0.7-9.2,1.1-13.7c0.4-4.1,0.8-8.4,1.1-12.7c0,0,0-0.1,0-0.1    c0-1,0.1-2,0.1-3c0-1,0-2,0-3c0-1.5,0.1-2.9,0.1-4.4c0.1-4.5,0.2-8.9,0.1-13.2c0-1.3,0-2.6,0-3.9c0-4.2,0-8.3,0-11.7    c0-1.4,0.1-2.7,0.1-3.9c0.1-2.8,0.3-5.4,0.6-7.8c0,0,0-0.1,0-0.1c0.1-1.6,0.3-3.1,0.5-4.5c0,0,0-0.1,0-0.1    c0.1-1.4,0.3-2.8,0.4-4.1c0.6-6.8,0.8-14.1-1.3-21.3c-0.4-1.3-0.8-2.6-1.4-3.9c-0.5-1.3-1.1-2.6-1.7-3.9c-0.7-1.3-2.3-1.9-3.6-1.2    c-1.3,0.7-1.9,2.3-1.2,3.6c0.6,1.1,1.1,2.3,1.5,3.4c0.4,1.2,0.9,2.3,1.2,3.5c1.9,6.4,1.6,13,1.1,19.4c-0.1,1.4-0.2,2.7-0.4,4    c-0.2,1.5-0.4,3-0.5,4.7c-0.3,2.6-0.5,5.2-0.6,8.2c-0.1,1.3-0.1,2.7-0.1,4.1c0,0,0,0,0,0.1c0,3.4,0,7.5,0,11.7c0,1.3,0,2.6,0,3.9    c0,4.3,0,8.7-0.1,13.1c0,1.5-0.1,2.9-0.1,4.4c0,0,0,0,0,0.1c0,0.9,0,1.9,0,2.9c0,1,0,1.9-0.1,2.9c-0.3,4.2-0.7,8.4-1,12.5    c-0.4,4.5-0.8,9.2-1.2,13.8c-0.1,1.7-0.2,3.1-0.2,4.5c0,0,0,0.1,0,0.1c0.1,5.7,0.7,11.6,1.2,16.9l0,0.3c0.1,1.3,0.3,2.6,0.4,3.9    c0,0,0,0.1,0,0.1c0.9,6.8,0.9,13.9,0.9,20.8c0,2.6,0,5.2,0.1,7.8c0,0.2,0,0.3,0,0.4h5.3C144.6,229.8,144.7,229.6,144.7,229.4z"></path></g></g><g display="none"><path display="inline" fill="#000000" d="M127.6,222.8c-0.6,0-1.2-0.1-1.8-0.3c-2.5-0.8-4.1-3.4-3.8-6.1l8.9-64h-28.2   c-1.6,0-3.1-0.7-4.2-1.9c-1.1-1.2-1.6-2.8-1.4-4.3l8.8-81c0.3-2.8,2.7-5,5.6-5h55.5c1.8,0,3.5,0.9,4.6,2.4c1,1.5,1.3,3.4,0.7,5.1   l-15.9,44.7l4.8-0.2l20.2-1.2c2-0.1,3.9,0.9,5,2.5c1.1,1.7,1.2,3.9,0.3,5.6l-27.1,51.7l-27.1,49   C131.5,221.7,129.6,222.8,127.6,222.8z M109,141.2h28.4c1.6,0,3.2,0.7,4.2,1.9s1.6,2.8,1.3,4.5l-5.6,40.5l12.5-22.5l22.4-42.8   l-10.4,0.6l-13.2,0.6c-1.9,0.1-3.7-0.8-4.8-2.3c-1.1-1.5-1.4-3.5-0.8-5.2l16.1-45.1h-42.5L109,141.2z"></path></g><g><path fill="#000000" d="M115.6,58.5l-21.9,9.4c-10.4,4.5-21.4,7.4-32.7,8.9l-21.9,2.8c-10.3,1.3-17.3,11.4-14.6,21.4l14.7,53.8   c7.6,27.6,26.5,50.9,51.8,64.4l20.1,10.6c6.8,3.6,15.3,1.4,19.3-5.2l11.2-18.1c15.2-24.5,19.5-54.3,11.9-82.2l-15-54.7   C135.7,59.7,125,54.4,115.6,58.5z M56.2,128c5-4.5,12.3-6.5,19.6-2.3c3.7,2.1,8.8,3.8,9.7,10.2c0.6,2.1-0.7,4.3-2.8,4.8   c-5.8,0.2-10.4,6.2-16.6,6.3C55.6,148.4,47.7,136.6,56.2,128z M74.9,182.8l0.1,0c22.8,4.5,45.6-5.7,64-17.5   C132,196.6,98.3,202.2,74.9,182.8z M128.4,130.1c-5.4,3-12.4,0.3-17.5,3c-2.1,0.6-4.3-0.7-4.9-2.8c-2.5-5.9,1-10,3.1-13.7   c4.2-7.4,11.5-9.4,18-8C138.9,111.6,138.1,125.8,128.4,130.1z"></path></g><g><path fill="none" d="M187.9,138c1.2-6.3,6.4-7.8,10.2-9.7c7.6-3.8,14.7-1.4,19.5,3.3c8.1,9-0.5,20.4-10.9,18.5   c-6.2-0.5-10.5-6.6-16.3-7.2C188.4,142.3,187.2,140.1,187.9,138z"></path><path fill="#000000" d="M239.8,79.2c-1-0.3-2-0.6-3-0.8l-23.5-4.4c-10.6-2-21.1-5.5-30.8-10.3L163.1,54c-1-0.5-1.9-0.9-2.9-1.2   c-7.6-2.5-15.6-0.7-21.3,4.2c3.1,1.6,5.6,4.2,7.2,7.4c3-2.3,7-3.1,10.8-1.8c0.5,0.2,1.1,0.4,1.6,0.7l19.4,9.7   c10.6,5.3,22,9.1,33.5,11.2l23.5,4.4c0.5,0.1,1.1,0.2,1.6,0.4c6.2,2,9.5,8.7,7.4,14.9l-17.9,53.8c-8.6,26-27.8,47.4-52.7,58.7   l-19.5,8.9c-2.2,1-4.6,1.1-6.8,0.4c-2.3-0.8-4.2-2.3-5.3-4.5l-0.8-1.5l-1.8,2.9c-1.4,2.3-3.4,4-5.6,5.2c2.4,3.6,6,6.3,10.2,7.7   c4.7,1.6,9.9,1.3,14.4-0.8l19.5-8.9c27.5-12.5,48.8-36.2,58.3-64.9l17.9-53.8C257.6,95.6,251.4,83,239.8,79.2z"></path><path fill="#000000" d="M167.8,131.3c2.8-5.8-0.5-10-2.4-13.8c-1.6-3.3-3.9-5.5-6.4-7l3.2,11.9c1,3.8,1.9,7.7,2.5,11.6   C166.1,133.7,167.3,132.7,167.8,131.3z"></path><path fill="#000000" d="M190.4,143c5.8,0.6,10.1,6.7,16.3,7.2c10.5,1.9,19-9.5,10.9-18.5c-4.8-4.7-11.9-7.1-19.5-3.3   c-3.8,1.9-9,3.3-10.2,9.7C187.2,140.1,188.4,142.3,190.4,143z"></path><path fill="#000000" d="M188.5,194.7c-4.4-8.6-13.1-16.9-25.7-19.9c-0.4,1.8-0.9,3.6-1.5,5.3c10,2.6,19.5,7.1,27,14.6L188.5,194.7z   "></path></g></svg>