<svg height='100px' width='100px'  fill="#000000" xmlns="http://www.w3.org/2000/svg" xmlns:xlink="http://www.w3.org/1999/xlink" version="1.1" x="0px" y="0px" viewBox="0 0 100 100" enable-background="new 0 0 100 100" xml:space="preserve"><g><path d="M77.048,60.524l-0.044-1.12l-12.953-7.293l-0.292,0.519l-0.616-0.347l-0.134-0.347l-1.266-0.712l-0.258-0.922l-4.482-2.521   l9.676-6.23l1.482-1.881l-0.312-0.556l13.144-7.399l0.406-0.054l4.096-2.308l-0.318-0.868l-0.55-0.674l-4.186,2.357l-0.187,0.484   l-13.038,7.338l-2.4-0.682l-10.938,6.154l0.279,2.719l0.332,3.214l0.411,3.979l3.125,2.011l1.448-0.323l1.215,0.686l0.815-0.553   l0.537,0.305l-2.438,4.33l0.562,0.431l-1.167,2.075l-5.16,5.034l4,4.27l6.804-7.571l4.466,2.51l-0.833,6.726l4.785,1.055   l-0.55-7.853l0.774-1.375l2.089-0.026l14.277,15.93l5.511-9.791L77.048,60.524z M70.157,64.119l-4.098-2.304l1.099-1.954   l4.096,2.308L70.157,64.119z"></path><path d="M63.386,22.24v10.488l-2.603,2.357l-1.846-0.514l-3.762,1.432l-0.311-1.143h-1.902l0.59,1.687l-1.9,1.653l0.545,5.263   l0.28,2.719l0.333,3.214l0.409,3.979l0.481,4.669l-3.777,6.363l-3.778-6.363l0.482-4.669l0.409-3.979l0.332-3.214l0.282-2.719   l0.542-5.263l-1.898-1.653l0.592-1.687h-1.904l-0.31,1.143l-3.763-1.432l-1.847,0.514l-2.601-2.357V22.24l2.601-2.357L40.91,20.4   l3.763-1.436l0.31,1.142h9.883l0.311-1.142l3.762,1.436l1.846-0.518L63.386,22.24z M61.857,32.05v-9.132l-1.477-1.336l-0.716,0.202   v11.402l0.716,0.202L61.857,32.05z M58.139,33.238V21.729l-1.491-0.567v12.643L58.139,33.238z M54.735,33.333V21.638H45.11v11.695   H54.735z M52.131,57.698l-0.557-5.381l-0.205-1.992l-0.524-5.065l-0.101-0.979l-0.581-5.632h-0.479l-0.581,5.632l-0.101,0.983   l-0.522,5.061l-0.208,1.992l-0.556,5.381l2.207,3.717L52.131,57.698z M51.767,36.075l-0.424-1.215h-2.839l-0.423,1.215l1.2,1.043   h1.287L51.767,36.075z M43.2,33.805V21.162l-1.491,0.567v11.508L43.2,33.805z M40.182,33.185V21.783l-0.718-0.202l-1.474,1.336   v9.132l1.474,1.337L40.182,33.185z"></path><path d="M41.003,62.337l-1.169-2.075l0.562-0.431l-2.437-4.33l0.539-0.305l0.813,0.553l1.217-0.686l1.449,0.323l3.123-2.011   l0.412-3.979l0.331-3.214l0.282-2.719l-10.937-6.154l-2.401,0.682l-13.04-7.338l-0.187-0.484l-4.187-2.357l-0.546,0.674   l-0.318,0.868l4.094,2.308l0.407,0.054l13.145,7.399l-0.314,0.556l1.485,1.881l9.675,6.23l-4.484,2.521l-0.257,0.922l-1.266,0.712   l-0.133,0.347l-0.617,0.347l-0.29-0.519l-12.956,7.293l-0.042,1.12L4.838,71.244l5.511,9.791l14.277-15.93l2.089,0.026l0.775,1.375   l-0.55,7.853l4.785-1.055l-0.832-6.726l4.463-2.51l6.805,7.571l4-4.27L41.003,62.337z M29.845,64.119l-1.099-1.95l4.096-2.308   l1.099,1.954L29.845,64.119z"></path></g></svg>