<svg height='100px' width='100px'  fill="#000000" xmlns="http://www.w3.org/2000/svg" data-name="Layer 1" viewBox="0 0 128 128" x="0px" y="0px"><title>97 Miscellaneous 22 final</title><path d="M53.61,82.42l-25.23-18A2,2,0,0,0,27.21,64H2a2,2,0,0,0-2,2l0,43.75a2,2,0,0,0,2,2H13l37,14.73c2.67,1.06,6.43,1.51,10.86,1.51,22.2,0,61.14-11.18,63.1-11.75a2,2,0,0,0,.62-.31,8.32,8.32,0,0,0-5-15H64.91a2,2,0,0,0,0,4H119.6a4.27,4.27,0,0,1,4.17,3,4.19,4.19,0,0,1-1.31,4.61c-4.89,1.39-56.83,15.9-71,10.27L14.12,107.91l-.12,0L14,68H26.57L51.28,85.68a6.59,6.59,0,0,1-7.31,11L31.39,88.7a2,2,0,1,0-2.13,3.38L41.83,100a10.47,10.47,0,0,0,5.63,1.63A10.59,10.59,0,0,0,57.92,89.4,10.51,10.51,0,0,0,53.61,82.42Z"></path><path d="M113,97A15,15,0,1,0,98,82,15,15,0,0,0,113,97Zm-3.3-12.61a1,1,0,0,1,.71.36A3.77,3.77,0,0,0,113.08,86c1.48,0,2.2-.49,2.2-1.5,0-2.38-5.94-1.29-5.94-5.21,0-1.45.91-2.7,3-2.93v-.93a.76.76,0,0,1,.75-.76.77.77,0,0,1,.77.76v1a4.17,4.17,0,0,1,2.93,1.46,1,1,0,0,1,.16.52.87.87,0,0,1-.88.87,1.06,1.06,0,0,1-.7-.36,3.34,3.34,0,0,0-2.28-.86c-1.35,0-1.85.63-1.85,1.28,0,2.13,5.94,1.14,5.94,5.21,0,1.79-1.14,3-3.32,3.17v.92a.77.77,0,0,1-.77.76.76.76,0,0,1-.75-.76v-.92A4.68,4.68,0,0,1,109,85.75a.91.91,0,0,1-.13-.46A.87.87,0,0,1,109.7,84.41Z"></path><path d="M71.36,20.65C67.15,16.43,59,18.46,58.12,18.71a2,2,0,0,0-1.41,1.41c-.25.91-2.28,9,1.93,13.24C60.72,35.46,63.75,36,66.41,36a22.24,22.24,0,0,0,4-.38A13.66,13.66,0,0,0,77,39.47v5.8L71,53H67a4,4,0,0,0-4,4v6a3.28,3.28,0,0,0,0,.54c0,.13,0,.26.07.39A3.7,3.7,0,0,0,63.54,65a3.7,3.7,0,0,0-.43,1.07c0,.13,0,.26-.07.39A3.28,3.28,0,0,0,63,67v6a3.28,3.28,0,0,0,0,.54c0,.13,0,.26.07.39A3.7,3.7,0,0,0,63.54,75a3.7,3.7,0,0,0-.43,1.07c0,.13,0,.26-.07.39A3.28,3.28,0,0,0,63,77v6a3.28,3.28,0,0,0,0,.54c0,.13,0,.26.07.39A3.7,3.7,0,0,0,63.54,85a3.7,3.7,0,0,0-.43,1.07c0,.13,0,.26-.07.39A3.28,3.28,0,0,0,63,87v6a4,4,0,0,0,4,4H91a4,4,0,0,0,4-4V87a3.28,3.28,0,0,0,0-.54c0-.13,0-.26-.07-.39A3.7,3.7,0,0,0,94.46,85,3.7,3.7,0,0,0,94.89,84c0-.13,0-.26.07-.39A3.28,3.28,0,0,0,95,83V77a3.28,3.28,0,0,0,0-.54c0-.13,0-.26-.07-.39A3.7,3.7,0,0,0,94.46,75a3.7,3.7,0,0,0,.43-1.07c0-.13,0-.26.07-.39A3.28,3.28,0,0,0,95,73V67a3.28,3.28,0,0,0,0-.54c0-.13,0-.26-.07-.39A3.7,3.7,0,0,0,94.46,65a3.7,3.7,0,0,0,.43-1.07c0-.13,0-.26.07-.39A3.28,3.28,0,0,0,95,63V57a4,4,0,0,0-4-4H87.14l-6.14-8V39.58a13.85,13.85,0,0,0,7.06-4,22.14,22.14,0,0,0,4,.38c2.65,0,5.69-.55,7.77-2.64C104,29.16,102,21,101.76,20.12a2,2,0,0,0-1.41-1.41c-.91-.25-9-2.29-13.25,1.93-3.61,3.6-2.63,10.08-2.12,12.43a9.58,9.58,0,0,1-4,2.36V21.11c2.2-1.46,7-5.23,7-10.1C88,5,80.82.74,80,.27a2,2,0,0,0-2,0C77.18.74,70,5,70,11c0,4.87,4.8,8.64,7,10.1V35.27a9.45,9.45,0,0,1-3.51-2.19C74,30.73,75,24.26,71.36,20.65ZM91,93H67V87H91Zm0-10H67V77H91Zm0-10H67V67H91Zm0-16v6H67V57ZM79.08,49.12l3,3.89h-6Z"></path></svg>