<svg height='100px' width='100px'  fill="#000000" xmlns="http://www.w3.org/2000/svg" xmlns:xlink="http://www.w3.org/1999/xlink" version="1.1" x="0px" y="0px" viewBox="0 0 100 100" enable-background="new 0 0 100 100" xml:space="preserve"><g><path fill="none" stroke="#000000" stroke-linecap="round" stroke-linejoin="round" stroke-miterlimit="10" d="M19.416,43.5   L20.5,8.625l52.75,0.5L75.125,78c-1.14,0.613-0.005,1.321-0.65,2.162c-0.727,0.946-1.704-0.153-1.871-1.018   c-1.18-0.307-2.639-1.264-3.86-0.177c-0.931,0.828-0.295,1.525-0.149,2.415c0.121,0.735,0.051,1.355,0.031,2.237   c-0.018,0.784,0.135,1.81,0.473,2.507c0.314,0.652,0.613,0.86,0.902,1.5c0.525,1.164,0.426,3.424-0.75,3.875L19.416,43.5z"></path></g></svg>