<svg height='100px' width='100px'  fill="#000000" xmlns="http://www.w3.org/2000/svg" xmlns:xlink="http://www.w3.org/1999/xlink" version="1.1" x="0px" y="0px" viewBox="0 0 100 100" style="enable-background:new 0 0 100 100;" xml:space="preserve"><style type="text/css">
	.st0{fill:none;stroke:#000000;stroke-width:2;stroke-linecap:round;stroke-linejoin:round;stroke-miterlimit:10;}
	.st1{fill:none;stroke:#000000;stroke-width:2;stroke-miterlimit:10;}
</style><path d="M28.2,57.1c0.4,0.6,1.2,1.2,2.8,1.2c0.8,0,1.7-0.1,2.9-0.5c2.4-0.7,5.2-2.2,8-4.1s5.1-4.1,6.6-6.1c0.9-1.2,1.4-2.2,1.6-3  c0.1,0,0.2,0.1,0.3,0.1v39.1c0,0.1,0,0.2,0.1,0.3h-4.2c-0.6,0-1,0.4-1,1s0.4,1,1,1h10.3c0.6,0,1-0.4,1-1s-0.4-1-1-1h-4.2  c0-0.1,0.1-0.2,0.1-0.3V44.7c0.1,0,0.2-0.1,0.3-0.1c0.2,0.8,0.7,1.8,1.6,3c1.5,2,3.8,4.2,6.6,6.1s5.6,3.4,8,4.1  c1.2,0.3,2.1,0.5,2.9,0.5c1.6,0,2.4-0.6,2.8-1.2c1.9-2.7-2.5-7.9-7.8-11.7c-2.7-1.9-5.6-3.4-8-4.1c-2-0.6-3.3-0.6-4.2-0.3  c-0.2-0.7-0.6-1.3-1.1-1.8c2.1-2,3.1-7.1,3.1-12.3c0-6.5-1.7-13.1-5.1-13.1s-5.1,6.6-5.1,13.1c0,5.1,1.1,10.3,3.1,12.3  c-0.6,0.4-1,1-1.1,1.8c-0.9-0.3-2.2-0.3-4.2,0.3c-2.4,0.7-5.2,2.2-8,4.1C30.7,49.2,26.3,54.4,28.2,57.1z M51.2,42.9  c-0.6,0-1.1-0.5-1.1-1.1s0.5-1.1,1.1-1.1s1.1,0.5,1.1,1.1S51.9,42.9,51.2,42.9z M55.6,42.9c0.6,0,1.3,0.1,2.3,0.4  c2.2,0.7,4.8,2,7.4,3.8c5.9,4.1,7.9,8,7.3,8.9c-0.3,0.4-1.5,0.5-3.4-0.1c-2.2-0.7-4.8-2-7.4-3.8c-2.6-1.8-4.7-3.8-6.1-5.7  c-1.2-1.7-1.5-2.8-1.2-3.2C54.6,43,55,42.9,55.6,42.9z M48.2,27.1c0-7.2,2-11.1,3.1-11.1s3.1,3.9,3.1,11.1c0,7.2-2,11.1-3.1,11.1  S48.2,34.3,48.2,27.1z M37.2,47.1c2.6-1.8,5.2-3.1,7.4-3.8c2-0.6,3.2-0.4,3.4-0.1c0.3,0.4,0,1.5-1.2,3.2c-1.4,1.9-3.5,3.9-6.1,5.7  c-2.6,1.8-5.2,3.1-7.4,3.8c-2,0.6-3.2,0.4-3.4,0.1C29.2,55.1,31.3,51.2,37.2,47.1z"></path><path d="M67.9,33.5c1.3,3.3,1.5,6.9,0.5,10.3c-0.2,0.5,0.2,1.1,0.7,1.2c0.1,0,0.2,0,0.3,0c0.4,0,0.8-0.3,1-0.7  c1.1-3.9,0.9-7.9-0.6-11.6c-0.2-0.5-0.8-0.8-1.3-0.6C68,32.4,67.7,33,67.9,33.5z"></path><path d="M60.2,22.8c-0.5-0.2-1.1,0-1.3,0.5c-0.2,0.5,0,1.1,0.5,1.3c3,1.3,5.4,3.4,7.2,6.1c0.2,0.3,0.5,0.5,0.8,0.5  c0.2,0,0.4-0.1,0.5-0.2c0.5-0.3,0.6-0.9,0.3-1.4C66.3,26.6,63.5,24.2,60.2,22.8z"></path><path d="M71.7,45.5c-0.2,0.5,0.1,1.1,0.6,1.3c0.1,0,0.2,0.1,0.3,0.1c0.4,0,0.8-0.2,0.9-0.7c2.6-7,1.4-14.7-3.3-20.6  c-0.3-0.4-1-0.5-1.4-0.2c-0.4,0.3-0.5,1-0.2,1.4C72.9,32.2,74,39.1,71.7,45.5z"></path><path d="M66.3,24.3c0.2,0.2,0.4,0.2,0.7,0.2c0.3,0,0.6-0.1,0.8-0.3c0.4-0.4,0.3-1-0.1-1.4c-1.8-1.5-4.5-3.1-7.1-4.1  c-0.5-0.2-1.1,0.1-1.3,0.6c-0.2,0.5,0.1,1.1,0.6,1.3C62.2,21.4,64.7,22.9,66.3,24.3z"></path><path d="M58.8,60c0.2,0,0.3,0,0.5-0.1c0.7-0.3,0.9-0.5,1.3-0.8l0.3-0.2c0.4-0.3,0.6-0.9,0.2-1.4s-0.9-0.6-1.4-0.2l-0.3,0.2  c-0.4,0.3-0.5,0.4-1.1,0.7c-0.5,0.3-0.7,0.9-0.4,1.3C58.1,59.8,58.5,60,58.8,60z"></path><path d="M56,64.4c0.1,0.4,0.5,0.7,1,0.7c0.1,0,0.2,0,0.3-0.1c0.9-0.3,1.8-0.7,2.8-1.2c0.8-0.4,1.5-0.8,2.2-1.3  c0.7-0.4,1.3-0.9,1.8-1.3c0.4-0.3,0.5-1,0.2-1.4c-0.3-0.4-1-0.5-1.4-0.2c-0.5,0.4-1.1,0.8-1.7,1.2c-0.7,0.4-1.4,0.9-2.1,1.2  c-0.9,0.5-1.7,0.8-2.5,1.1C56.1,63.3,55.8,63.9,56,64.4z"></path></svg>