<svg height='100px' width='100px'  fill="#000000" xmlns="http://www.w3.org/2000/svg" xmlns:xlink="http://www.w3.org/1999/xlink" version="1.1" x="0px" y="0px" viewBox="0 0 65 65" enable-background="new 0 0 65 65" xml:space="preserve"><path d="M64.162,16.663l0.001-0.015c0.001-0.026-0.004-0.05-0.004-0.076c-0.001-0.071-0.001-0.141-0.012-0.212  c-0.01-0.061-0.027-0.118-0.044-0.176c-0.009-0.034-0.013-0.068-0.024-0.102c-0.001-0.003-0.003-0.005-0.004-0.008  c-0.026-0.072-0.062-0.14-0.098-0.207c-0.011-0.021-0.019-0.043-0.03-0.063c-0.04-0.065-0.088-0.125-0.137-0.183  c-0.014-0.016-0.024-0.035-0.038-0.051c-0.156-0.171-0.355-0.299-0.576-0.384c-0.054-0.02-0.105-0.043-0.16-0.058  c-0.02-0.005-0.041-0.005-0.061-0.009c-0.078-0.017-0.156-0.031-0.237-0.035c-0.002,0-0.004-0.001-0.007-0.001  c-0.039-0.002-0.075,0.005-0.114,0.006c-0.056,0.002-0.111,0-0.167,0.009c-0.112,0.016-0.221,0.043-0.323,0.083l-0.714,0.252  c0.623-3.077,0.672-6.091-0.241-8.401c-0.766-1.939-2.543-4.286-6.613-4.59c-0.022-0.004-0.045-0.006-0.067-0.009  c-0.033-0.002-0.061-0.01-0.094-0.012c-0.031-0.002-0.061,0.004-0.091,0.004c-0.029,0-0.058-0.005-0.087-0.004  c-0.031,0.002-0.056,0.009-0.086,0.011c-0.026,0.003-0.052,0.005-0.077,0.01c-4.067,0.305-5.845,2.651-6.61,4.589  c-1.368,3.46-0.582,8.497,1.069,12.963l-2.591,0.916l-18.273-5.76c-0.001,0-0.003,0-0.004-0.001  c-0.048-0.015-0.098-0.022-0.147-0.032c-0.029-0.006-0.056-0.017-0.086-0.021c-0.009-0.001-0.017,0-0.026-0.001  c-0.063-0.008-0.125-0.008-0.189-0.008c-0.036,0-0.073-0.002-0.108,0c-0.056,0.004-0.112,0.016-0.168,0.027  c-0.041,0.008-0.082,0.013-0.122,0.024c-0.01,0.003-0.021,0.004-0.032,0.007c-0.004,0.001-0.007,0.001-0.011,0.002L7.6,21.059  c-0.045,0.014-0.085,0.036-0.128,0.054c-0.033,0.014-0.066,0.025-0.099,0.042c-0.06,0.03-0.115,0.065-0.17,0.102  c-0.024,0.017-0.05,0.032-0.073,0.051c-0.052,0.04-0.1,0.084-0.145,0.13c-0.023,0.023-0.047,0.046-0.069,0.07  c-0.039,0.045-0.073,0.093-0.106,0.141c-0.022,0.033-0.045,0.065-0.065,0.1c-0.027,0.047-0.049,0.097-0.071,0.147  c-0.018,0.04-0.036,0.078-0.049,0.12c-0.019,0.054-0.03,0.11-0.042,0.166c-0.006,0.031-0.018,0.06-0.023,0.091L0.851,60.862  c-0.004,0.029-0.001,0.057-0.004,0.086c-0.005,0.053-0.008,0.106-0.007,0.16c0,0.05,0.005,0.098,0.011,0.146  c0.006,0.047,0.012,0.095,0.022,0.142c0.011,0.055,0.027,0.106,0.045,0.158c0.009,0.026,0.012,0.054,0.022,0.08  c0.004,0.011,0.013,0.019,0.017,0.029c0.052,0.124,0.119,0.239,0.201,0.344c0.018,0.022,0.037,0.041,0.056,0.062  c0.074,0.084,0.157,0.159,0.248,0.226c0.021,0.015,0.04,0.032,0.061,0.046c0.106,0.068,0.223,0.123,0.347,0.164  c0.029,0.009,0.059,0.014,0.088,0.021c0.052,0.014,0.103,0.032,0.157,0.04c0.073,0.012,0.146,0.017,0.218,0.017c0,0,0.001,0,0.001,0  s0,0,0,0c0,0,0.001,0,0.001,0c0,0,0.001,0,0.001,0c0.166-0.001,0.333-0.032,0.498-0.091c0.011-0.004,0.023-0.006,0.034-0.01  c0.005-0.002,0.011-0.003,0.017-0.005l19.014-7.527l19.015,7.527c0.013,0.005,0.025,0.007,0.038,0.011  c0.022,0.009,0.044,0.018,0.067,0.024c0.015,0.005,0.029,0.006,0.045,0.011c0.008,0.002,0.017,0.003,0.025,0.005  c0.051,0.014,0.103,0.026,0.154,0.034c0.017,0.003,0.032,0.009,0.049,0.011c0.057,0.007,0.114,0.01,0.17,0.01  c0.001,0,0.002,0,0.003,0h0.001h0.001c0.001,0,0.001,0,0.002,0c0.129-0.001,0.257-0.023,0.385-0.059  c0.029-0.008,0.057-0.015,0.085-0.024c0.016-0.005,0.032-0.008,0.048-0.014c0.008-0.003,0.016-0.004,0.023-0.007  c0.002-0.001,0.005-0.001,0.007-0.002l19.566-7.746c0.002-0.001,0.003-0.002,0.004-0.002c0.093-0.037,0.181-0.082,0.263-0.136  c0.025-0.017,0.047-0.038,0.071-0.056c0.052-0.039,0.105-0.078,0.152-0.123c0.03-0.029,0.055-0.063,0.082-0.096  c0.035-0.04,0.072-0.079,0.104-0.123c0.023-0.033,0.04-0.069,0.061-0.104c0.028-0.048,0.058-0.094,0.08-0.145  c0.018-0.04,0.028-0.081,0.043-0.122c0.017-0.049,0.036-0.097,0.048-0.148c0.013-0.056,0.018-0.113,0.024-0.17  c0.004-0.035,0.013-0.068,0.015-0.104l0.001-0.028c0-0.002,0-0.004,0.001-0.006l1.628-36.691  C64.162,16.673,64.162,16.668,64.162,16.663z M50.236,8.134c0.672-1.701,1.97-2.561,4.072-2.708c2.103,0.147,3.4,1.007,4.073,2.708  c0.911,2.307,0.528,5.727-0.479,9.055c-0.045,0.104-0.075,0.212-0.096,0.324c-0.871,2.763-2.162,5.422-3.499,7.306  c-0.847-1.193-1.672-2.695-2.388-4.343c-0.009-0.029-0.011-0.059-0.021-0.087c-0.038-0.106-0.088-0.204-0.146-0.296  C50.038,15.988,49.054,11.125,50.236,8.134z M53.22,28.239c0.013,0.014,0.029,0.023,0.042,0.036  c0.007,0.006,0.009,0.015,0.015,0.021c0.011,0.01,0.025,0.013,0.036,0.023c0.134,0.119,0.28,0.215,0.438,0.279  c0.014,0.005,0.027,0.007,0.041,0.013c0.167,0.061,0.341,0.097,0.517,0.097s0.35-0.036,0.517-0.097  c0.014-0.005,0.027-0.007,0.041-0.012c0.159-0.063,0.306-0.16,0.439-0.28c0.011-0.01,0.024-0.013,0.035-0.022  c0.006-0.006,0.008-0.014,0.014-0.019c0.014-0.014,0.029-0.023,0.043-0.037c1.868-1.971,3.801-5.489,5.064-9.289l0.606-0.215  l-1.489,33.563l-16.332,6.466l4.087-35.17l2.348-0.83C50.754,25.012,52.002,26.955,53.22,28.239z M9.388,23.646l15.99-4.933  l-4.837,33.548L4.199,58.73L9.388,23.646z M28.434,18.543l15.885,5.007l-4.115,35.418l-16.648-6.591L28.434,18.543z"></path><path d="M54.308,13.854c2.219,0,4.024-1.805,4.024-4.023c0-2.218-1.806-4.022-4.024-4.022c-2.218,0-4.022,1.805-4.022,4.022  C50.285,12.05,52.09,13.854,54.308,13.854z M54.308,8.809c0.564,0,1.024,0.458,1.024,1.022s-0.46,1.023-1.024,1.023  c-0.563,0-1.022-0.459-1.022-1.023S53.744,8.809,54.308,8.809z"></path></svg>