<svg height='100px' width='100px'  fill="#000000" xmlns="http://www.w3.org/2000/svg" xmlns:xlink="http://www.w3.org/1999/xlink" version="1.1" x="0px" y="0px" viewBox="0 0 100 100" style="enable-background:new 0 0 100 100;" xml:space="preserve"><path d="M13.3974609,90c0.5522461,0,1-0.4472656,1-1V73.9189453H44.277832V89c0,0.5527344,0.4477539,1,1,1s1-0.4472656,1-1  V73.9189453h1.3188477c0.5522461,0,1-0.4472656,1-1v-6.7880859c0-0.5527344-0.4477539-1-1-1H30.6049805v-1.9677734  c1.4383545-0.3540039,2.512207-1.6453857,2.512207-3.1914062v-2.7275391c0-1.8173828-1.4785156-3.2958984-3.2958984-3.2958984  h-0.215332c-1.8173828,0-3.2958984,1.4785156-3.2958984,3.2958984v2.7275391c0,1.4661865,0.96875,2.6972046,2.2949219,3.1238403  v2.0353394H15.0097656v-2.5517578l0.8666382-0.8614502c0.5614014,0.3222046,1.185791,0.4971924,1.815979,0.4971924  c0.9331055,0,1.8662109-0.3535156,2.5766602-1.0605469l3.3100586-3.2919922  c0.6899414-0.6865234,1.0703125-1.5996094,1.0703125-2.5703125s-0.3803711-1.8837891-1.0703125-2.5703125  c-1.4208984-1.4140625-3.7324219-1.4140625-5.1533203,0l-3.3100586,3.2919922  c-0.6904297,0.6865234-1.0703125,1.5996094-1.0703125,2.5712891c0.0003052,0.6036987,0.1630859,1.1774292,0.4400635,1.6956177  l-1.1807861,1.1735229c-0.1884766,0.1875-0.2949219,0.4423828-0.2949219,0.7089844v2.9677734H11c-0.5522461,0-1,0.4472656-1,1  v6.7880859c0,0.5527344,0.4477539,1,1,1h1.3974609V89C12.3974609,89.5527344,12.8452148,90,13.3974609,90z M28.3100586,57.2441406  c0-0.7148438,0.581543-1.2958984,1.2958984-1.2958984h0.215332c0.7143555,0,1.2958984,0.5810547,1.2958984,1.2958984v2.7275391  c0,0.7148438-0.581543,1.2958984-1.2958984,1.2958984h-0.215332c-0.7143555,0-1.2958984-0.5810547-1.2958984-1.2958984V57.2441406z   M16.5258789,57.4316406l3.3100586-3.2919922c0.3217773-0.3203125,0.7441406-0.4794922,1.1665039-0.4794922  s0.8447266,0.1591797,1.1665039,0.4794922c0.3095703,0.3085938,0.4804688,0.7177734,0.4804688,1.1523438  s-0.1708984,0.84375-0.4804688,1.1523438l-3.3100586,3.2919922c-0.6435547,0.640625-1.6899414,0.640625-2.3325195,0  c-0.0004883,0-0.0004883,0-0.0004883,0c-0.3095703-0.3076172-0.4804688-0.7167969-0.4804688-1.1513672  C16.0454102,58.1494141,16.2163086,57.7402344,16.5258789,57.4316406z M12,67.1308594h34.5966797v4.7880859H12V67.1308594z"></path><path d="M86.6025391,90c0.5522461,0,1-0.4472656,1-1V73.9189453H89c0.5522461,0,1-0.4472656,1-1v-6.7880859  c0-0.5527344-0.4477539-1-1-1h-2.0097656v-2.9677734c0-0.2666016-0.1064453-0.5214844-0.2949219-0.7089844l-1.1807861-1.1735229  c0.2769775-0.5181885,0.4397583-1.0919189,0.4400635-1.6956177c0-0.9716797-0.3798828-1.8847656-1.0703125-2.5712891  l-3.3100586-3.2919922c-1.4208984-1.4140625-3.7324219-1.4140625-5.1533203,0  c-0.6899414,0.6865234-1.0703125,1.5996094-1.0703125,2.5703125s0.3803711,1.8837891,1.0703125,2.5703125l3.3100586,3.2919922  c0.7104492,0.7070312,1.6435547,1.0605469,2.5766602,1.0605469c0.630188,0,1.2545776-0.1749878,1.815979-0.4971924  l0.8666382,0.8614502v2.5517578H71.3950195V63.09552c1.3261719-0.4266357,2.2949219-1.6576538,2.2949219-3.1238403v-2.7275391  c0-1.8173828-1.4785156-3.2958984-3.2958984-3.2958984h-0.215332c-1.8173828,0-3.2958984,1.4785156-3.2958984,3.2958984v2.7275391  c0,1.5460205,1.0738525,2.8374023,2.512207,3.1914062v1.9677734H52.4033203c-0.5522461,0-1,0.4472656-1,1v6.7880859  c0,0.5527344,0.4477539,1,1,1h1.3188477V89c0,0.5527344,0.4477539,1,1,1s1-0.4472656,1-1V73.9189453h29.8803711V89  C85.6025391,89.5527344,86.050293,90,86.6025391,90z M83.4736328,59.7363281c-0.6425781,0.640625-1.6889648,0.640625-2.3325195,0  l-3.3100586-3.2919922c-0.3095703-0.3085938-0.4804688-0.7177734-0.4804688-1.1523438s0.1708984-0.84375,0.4804688-1.1523438  c0.3217773-0.3203125,0.7441406-0.4794922,1.1665039-0.4794922s0.8447266,0.1591797,1.1665039,0.4794922l3.3100586,3.2919922  c0.3095703,0.3085938,0.4804688,0.7177734,0.4804688,1.1533203c0,0.4345703-0.1708984,0.84375-0.4804688,1.1513672  C83.4741211,59.7363281,83.4741211,59.7363281,83.4736328,59.7363281z M68.8828125,59.9716797v-2.7275391  c0-0.7148438,0.581543-1.2958984,1.2958984-1.2958984h0.215332c0.7143555,0,1.2958984,0.5810547,1.2958984,1.2958984v2.7275391  c0,0.7148438-0.581543,1.2958984-1.2958984,1.2958984h-0.215332C69.4643555,61.2675781,68.8828125,60.6865234,68.8828125,59.9716797  z M53.4033203,67.1308594H88v4.7880859H53.4033203V67.1308594z"></path><path d="M53.1240234,31.9960938c0.1464844,0.0771484,0.3061523,0.1152344,0.465332,0.1152344  c0.2070312,0,0.4135742-0.0644531,0.5878906-0.1914062c0.3076172-0.2236328,0.4619141-0.6025391,0.3979492-0.9775391  l-0.6342773-3.6962891l2.6855469-2.6181641c0.2729492-0.265625,0.3710938-0.6630859,0.253418-1.0244141  c-0.1176758-0.3623047-0.4306641-0.6259766-0.8071289-0.6806641l-3.7119141-0.5400391l-1.659668-3.3632812  c-0.3369141-0.6835938-1.4570312-0.6835938-1.7939453,0l-1.659668,3.3632812l-3.7119141,0.5400391  c-0.3764648,0.0546875-0.6894531,0.3183594-0.8071289,0.6806641c-0.1176758,0.3613281-0.0195312,0.7587891,0.253418,1.0244141  l2.6855469,2.6181641l-0.6342773,3.6962891c-0.0639648,0.375,0.0898438,0.7539062,0.3979492,0.9775391  c0.3081055,0.2246094,0.7163086,0.2539062,1.0532227,0.0761719l3.3198242-1.7441406L53.1240234,31.9960938z M47.347168,29.2832031  l0.3808594-2.2177734c0.0556641-0.3242188-0.0522461-0.6552734-0.2880859-0.8847656l-1.6108398-1.5703125l2.2265625-0.3242188  c0.3256836-0.046875,0.6069336-0.2519531,0.7529297-0.546875l0.9956055-2.0175781l0.9956055,2.0175781  c0.1459961,0.2949219,0.4272461,0.5,0.7529297,0.546875l2.2270508,0.3242188l-1.6108398,1.5703125  c-0.2358398,0.2294922-0.3432617,0.5605469-0.2880859,0.8847656l0.3803711,2.21875l-1.9916992-1.046875  c-0.1455078-0.0771484-0.3056641-0.1152344-0.465332-0.1152344s-0.3198242,0.0380859-0.465332,0.1152344L47.347168,29.2832031z"></path><path d="M72.0883789,26.6132812l-0.2348633,3.7441406c-0.0239258,0.3798828,0.1699219,0.7402344,0.5004883,0.9296875  c0.1542969,0.0888672,0.3261719,0.1328125,0.4975586,0.1328125c0.1948242,0,0.3891602-0.0566406,0.5576172-0.1699219  l3.1137695-2.0908203l3.487793,1.3798828c0.3525391,0.1386719,0.7563477,0.0673828,1.0385742-0.1884766  c0.2822266-0.2548828,0.3950195-0.6484375,0.2910156-1.0146484l-1.0263672-3.6074219l2.3901367-2.890625  c0.2426758-0.2939453,0.2978516-0.6992188,0.1420898-1.046875s-0.4951172-0.5761719-0.8754883-0.5898438L78.2226562,21.0625  l-2.0107422-3.1669922c-0.2036133-0.3212891-0.5712891-0.5-0.9511719-0.4580078  c-0.378418,0.0410156-0.7011719,0.2929688-0.8320312,0.6503906l-1.2905273,3.5214844l-3.6323242,0.9335938  c-0.3686523,0.0947266-0.6513672,0.390625-0.7294922,0.7636719c-0.078125,0.3720703,0.0615234,0.7568359,0.3613281,0.9921875  L72.0883789,26.6132812z M74.1455078,23.4160156c0.3188477-0.0820312,0.5766602-0.3154297,0.6899414-0.625l0.7739258-2.1132812  l1.206543,1.9003906c0.1762695,0.2773438,0.4785156,0.4511719,0.8071289,0.4628906L79.871582,23.125l-1.4335938,1.7333984  c-0.2099609,0.2539062-0.28125,0.5947266-0.1914062,0.9111328l0.6157227,2.1650391l-2.0927734-0.828125  c-0.3051758-0.1201172-0.6508789-0.0839844-0.925293,0.0996094l-1.8676758,1.2539062l0.140625-2.2460938  c0.0205078-0.328125-0.121582-0.6464844-0.3808594-0.8496094l-1.7700195-1.3886719L74.1455078,23.4160156z"></path><path d="M35.1977539,12.1982422l-20.3491211-2.1914062c-0.2631836-0.0283203-0.5302734,0.0498047-0.7373047,0.2177734  s-0.3383789,0.4121094-0.3647461,0.6767578l-0.1517334,1.5197754c-1.5195923-0.3134155-2.347168-0.5152588-2.3575439-0.5178223  c-0.5395508-0.1308594-1.0776367,0.1982422-1.2084961,0.734375c-0.1313477,0.5361328,0.1972656,1.0771484,0.7338867,1.2089844  c0,0,0.9315186,0.2270508,2.6325073,0.5750122l-2.3790894,23.8331909c-0.0307617,0.3076172,0.0820312,0.6113281,0.3056641,0.8242188  c0.2236328,0.2119141,0.5307617,0.3085938,0.8383789,0.2646484l10.2021484-1.5341797l9.6425781,3.6708984  c0.1152344,0.0439453,0.2358398,0.0654297,0.355957,0.0654297c0.1835938,0,0.3657227-0.0507812,0.5258789-0.1494141  c0.2646484-0.1640625,0.4384766-0.4414062,0.4692383-0.7509766l2.3115234-23.1610107  c0.9788818,0.0789185,1.9780884,0.1522827,2.9980469,0.218811v22.8425903c0,0.3095703,0.1435547,0.6025391,0.3891602,0.7919922  c0.2451172,0.1904297,0.5649414,0.2568359,0.8647461,0.1748047l9.9794922-2.6171875l9.9799805,2.6171875  c0.0839844,0.0224609,0.1689453,0.0332031,0.2539062,0.0332031c0.21875,0,0.434082-0.0722656,0.6108398-0.2080078  c0.2456055-0.1894531,0.3891602-0.4824219,0.3891602-0.7919922V17.8721313  c0.9992676-0.0533447,2.0057983-0.1159668,3.0180054-0.187439l2.2915649,22.9608154  c0.0307617,0.3095703,0.2045898,0.5869141,0.4692383,0.7509766c0.1601562,0.0986328,0.3422852,0.1494141,0.5258713,0.1494141  c0.1201248,0,0.2407303-0.0214844,0.3559647-0.0654297l9.6425781-3.6708984L87.6381836,39.34375  c0.3071289,0.0449219,0.6152344-0.0517578,0.8383789-0.2646484c0.2236328-0.2128906,0.3364258-0.5166016,0.3056641-0.8242188  l-2.3706665-23.7490234c0.9423828-0.2106934,1.8850098-0.4277954,2.8276978-0.6601562  c0.5361328-0.1318359,0.8637695-0.6738281,0.7314453-1.2099609c-0.1318359-0.5361328-0.6757812-0.8671875-1.2099609-0.7314453  c-0.8499756,0.2094727-1.6998291,0.4033813-2.5494995,0.5946045l-0.1594849-1.5975342  c-0.0263672-0.2646484-0.1577148-0.5087891-0.3647461-0.6767578c-0.206543-0.1679688-0.472168-0.2451172-0.7373047-0.2177734  l-20.3491211,2.1914062c-0.5463867,0.0585938-0.9428711,0.546875-0.8881836,1.09375l0.2396851,2.4014893  c-0.9454346,0.0662231-1.885437,0.1245117-2.8192749,0.1744995v-2.8220825c0-0.5527344-0.4477539-1-1-1H39.6655273  c-0.5522461,0-1,0.4472656-1,1v2.652771c-0.9511719-0.0628662-1.8843994-0.1311035-2.7994385-0.2041626l0.2198486-2.2025146  C36.140625,12.7451172,35.7441406,12.2568359,35.1977539,12.1982422z M84.1616211,12.1035156l2.5029297,25.0712891  l-9.1904297-1.3828125c-0.1704102-0.0234375-0.3442383-0.0058594-0.5048828,0.0546875l-8.6665039,3.2998047l-2.5014648-25.0664062  L84.1616211,12.1035156z M40.6655273,14.0458984h18.4672852V39.25l-8.9799805-2.3554688  c-0.0834961-0.0224609-0.168457-0.0332031-0.2539062-0.0332031s-0.1704102,0.0107422-0.2539062,0.0332031L40.6655273,39.25  V14.0458984z M31.4956055,39.1464844l-8.6665039-3.2998047c-0.1142578-0.0429688-0.2348633-0.0654297-0.355957-0.0654297  c-0.0498047,0-0.0991211,0.0039062-0.1489258,0.0107422l-9.1904297,1.3828125l2.5029297-25.0712891l18.3603516,1.9765625  L31.4956055,39.1464844z"></path><path d="M19.484375,25.7285156l-1.0263672,3.6074219c-0.1040039,0.3662109,0.0087891,0.7597656,0.2910156,1.0146484  c0.2822266,0.2558594,0.6855469,0.3271484,1.0385742,0.1884766l3.4873047-1.3798828L26.3891602,31.25  c0.168457,0.1132812,0.362793,0.1699219,0.5576172,0.1699219c0.1713867,0,0.3432617-0.0439453,0.4980469-0.1328125  c0.3300781-0.1894531,0.5239258-0.5498047,0.5-0.9296875l-0.2348633-3.7441406l2.9506836-2.3144531  c0.2998047-0.2353516,0.4394531-0.6201172,0.3613281-0.9921875c-0.078125-0.3730469-0.3608398-0.6689453-0.7294922-0.7636719  L26.659668,21.609375l-1.2900391-3.5214844c-0.1308594-0.3574219-0.453125-0.609375-0.8320312-0.6503906  c-0.3813477-0.0419922-0.7475586,0.1367188-0.9511719,0.4580078L21.5756836,21.0625l-3.7480469,0.1386719  c-0.3803711,0.0136719-0.7197266,0.2421875-0.8754883,0.5898438s-0.1005859,0.7529297,0.1420898,1.046875L19.484375,25.7285156z   M22.175293,23.0410156c0.3286133-0.0117188,0.6308594-0.1855469,0.8071289-0.4628906l1.2060547-1.8994141l0.7739258,2.1123047  c0.1132812,0.3095703,0.3710938,0.5429688,0.6899414,0.625l2.1796875,0.5595703l-1.7700195,1.3886719  c-0.2592773,0.203125-0.4013672,0.5214844-0.3808594,0.8496094l0.140625,2.2460938l-1.8681641-1.2539062  c-0.1674805-0.1123047-0.3618164-0.1699219-0.5576172-0.1699219c-0.1245117,0-0.2490234,0.0234375-0.3681641,0.0703125  l-2.0917969,0.8271484l0.6157227-2.1640625c0.0898438-0.3164062,0.0185547-0.6572266-0.1914062-0.9111328L19.9267578,23.125  L22.175293,23.0410156z"></path></svg>