<svg height='100px' width='100px'  fill="#000000" xmlns="http://www.w3.org/2000/svg" xmlns:xlink="http://www.w3.org/1999/xlink" version="1.1" x="0px" y="0px" viewBox="0 0 100 100" style="enable-background:new 0 0 100 100;" xml:space="preserve"><style type="text/css">
	.st0{fill:none;stroke:#000000;stroke-width:3;stroke-miterlimit:10;}
	.st1{fill:none;stroke:#000000;stroke-width:2;stroke-linejoin:round;stroke-miterlimit:10;}
	.st2{fill:none;stroke:#000000;stroke-width:2;stroke-miterlimit:10;}
</style><g><path class="st0" d="M65.1,35.7c0,11.9-7.4,21.5-16.5,21.5c-9.1,0-16.5-9.6-16.5-21.5"></path><path class="st0" d="M35.6,62.6c0.7-0.5,1.4-1,2.1-1.6c0.8-0.7,1.6-1.6,2.2-2.6c0.9-1.5,1.3-2.9,1.4-4"></path><path class="st0" d="M29.7,30.4c0-11,8.2-19.9,18.4-19.9c10.2,0,18.4,8.9,18.4,19.9"></path><polyline class="st1" points="39.8,59.6 48.7,72.6 58.1,59.6  "></polyline><line class="st2" x1="50.4" y1="92.1" x2="50.2" y2="73.5"></line><polyline class="st2" points="62.5,61.9 57.5,68.9 49.2,73.9  "></polyline><path class="st2" d="M48.4,74.5"></path><path class="st2" d="M31.3,65.5"></path><polyline class="st2" points="35.1,61.9 35.7,62.7 40.1,68.9 48.4,73.9  "></polyline><line class="st2" x1="47.3" y1="92.1" x2="47.1" y2="73.5"></line><path class="st0" d="M68,35.7H29.4c-1.2,0-2.2-1-2.2-2.2v-0.8c0-1.2,1-2.2,2.2-2.2H68c1.2,0,2.2,1,2.2,2.2v0.8   C70.3,34.7,69.3,35.7,68,35.7z"></path><path class="st2" d="M39.9,58.4c0.3,0.4,3.4,4.4,8.8,4.3c5.2,0,8.2-3.9,8.6-4.3"></path><g><polygon points="33.9,94 26.8,92.5 69.5,61.9 75.2,64.4   "></polygon></g><polygon points="95.2,36.6 92.9,39.4 92.9,39.4 84.7,49.5 81,46.5 80.7,46.2 80.7,46.2 80.6,46.2 79.7,47.3 79.5,47.6 81.6,49.7    71.4,60.4 68.8,58.6 66.9,61.2 75.7,67 86.2,51.9 86.8,51.2 86.1,50.6 94.2,40.7 94.7,41.1 97,38.3  "></polygon><rect x="23.6" y="62.9" transform="matrix(0.9537 -0.3007 0.3007 0.9537 -18.5403 11.9243)" class="st2" width="11.7" height="6.6"></rect><path d="M26.2,66.5l2.4-0.8l0.8-1.6c0-0.1,0.2-0.1,0.2-0.1l0.9,1.1l2.4-0.7c0.1,0,0.2,0,0.1,0.1L31.2,66l0.7,1.2   c0,0.1-0.1,0.1-0.2,0.1l-2.1-0.2l-2,1.4c-0.1,0.1-0.2,0-0.2,0L28,67l-1.9-0.4C26,66.6,26.1,66.5,26.2,66.5z"></path><path class="st0" d="M73.2,67.3c0.6,0.5,1.2,1.1,1.6,1.7c0.8,1.1,1.2,2.4,1.2,3.7v20.7H48.5h0.1H21.1V72.7c0-1.3,0.4-2.6,1.2-3.7   c0.4-0.6,1-1.2,1.6-1.7"></path><rect x="63" y="62.6" transform="matrix(-0.9537 -0.3007 0.3007 -0.9537 114.8999 148.0481)" class="st2" width="11.7" height="5.1"></rect><path class="st0" d="M62.4,62.5c-0.7-0.5-1.4-1-2.1-1.6c-0.8-0.7-1.6-1.6-2.2-2.6c-0.9-1.5-1.3-2.9-1.4-4"></path></g></svg>