<svg height='100px' width='100px'  fill="#000000" xmlns="http://www.w3.org/2000/svg" xmlns:xlink="http://www.w3.org/1999/xlink" version="1.1" x="0px" y="0px" viewBox="0 0 512 512" enable-background="new 0 0 512 512" xml:space="preserve"><g><path d="M254.916,393.321c31.738,0,57.559-25.82,57.559-57.559s-25.82-57.56-57.559-57.56s-57.56,25.821-57.56,57.56   S223.178,393.321,254.916,393.321z M254.916,288.203c26.225,0,47.559,21.335,47.559,47.56c0,26.224-21.334,47.559-47.559,47.559   s-47.56-21.335-47.56-47.559C207.356,309.538,228.691,288.203,254.916,288.203z"></path><polygon points="123.124,146.05 133.124,146.05 133.124,131.325 147.85,131.325 147.85,121.325 133.124,121.325 133.124,106.6    123.124,106.6 123.124,121.325 108.399,121.325 108.399,131.325 123.124,131.325  "></polygon><polygon points="210.535,73.092 220.535,73.092 220.535,58.367 235.26,58.367 235.26,48.367 220.535,48.367 220.535,33.642    210.535,33.642 210.535,48.367 195.811,48.367 195.811,58.367 210.535,58.367  "></polygon><polygon points="302.475,121.846 312.475,121.846 312.475,107.121 327.2,107.121 327.2,97.121 312.475,97.121 312.475,82.396    302.475,82.396 302.475,97.121 287.75,97.121 287.75,107.121 302.475,107.121  "></polygon><polygon points="90.092,281.718 118.832,281.718 118.832,271.718 80.092,271.718 80.092,310.901 90.092,310.901  "></polygon><polygon points="118.832,390.932 90.092,390.932 90.092,362.192 80.092,362.192 80.092,400.932 118.832,400.932  "></polygon><polygon points="429.74,361.748 419.74,361.748 419.74,390.932 391,390.932 391,400.932 429.74,400.932  "></polygon><polygon points="419.74,310.901 429.74,310.901 429.74,271.718 391,271.718 391,281.718 419.74,281.718  "></polygon><rect x="171.128" y="330.701" width="11.247" height="11.247"></rect><rect x="146.386" y="330.701" width="11.247" height="11.247"></rect><rect x="121.644" y="330.701" width="11.246" height="11.247"></rect><rect x="376.941" y="330.701" width="11.247" height="11.247"></rect><rect x="352.199" y="330.701" width="11.246" height="11.247"></rect><rect x="327.457" y="330.701" width="11.246" height="11.247"></rect><path d="M253.501,341.122c10.005,2.937,10.929,6.288,11.017,9.469c0.125,4.48-2.512,8.3-6.557,9.503   c-0.587,0.174-1.179,0.3-1.758,0.374c-2.405,0.309-4.765-0.432-6.64-2.082c-1.982-1.745-3.119-4.258-3.119-6.896h-10   c0,5.51,2.373,10.759,6.512,14.401c2.042,1.798,4.422,3.092,6.953,3.853v4.895h10.001v-4.729c0.299-0.076,0.6-0.141,0.897-0.229   c8.319-2.475,13.956-10.439,13.706-19.369c-0.338-12.149-10.547-16.539-18.196-18.785c-9.756-2.862-10.676-5.203-10.964-8.447   c-0.466-5.22,2.792-9.857,7.579-10.788c0.245-0.047,0.489-0.086,0.732-0.115c2.399-0.3,4.741,0.451,6.603,2.103   c1.973,1.749,3.1,4.263,3.093,6.896l-0.001,0.521l10,0.027l0.001-0.521c0.015-5.502-2.339-10.753-6.458-14.406   c-2.049-1.818-4.443-3.129-6.992-3.896v-4.89h-10.001v4.737c-9.216,2.371-15.402,11.276-14.517,21.218   C236.392,335.187,245.264,338.705,253.501,341.122z"></path><rect x="57.667" y="438.081" width="394.497" height="10"></rect><rect x="57.667" y="462.737" width="394.497" height="10"></rect><rect x="57.667" y="487.394" width="394.497" height="10"></rect><path d="M431.934,33.745l15.396,15.397l7.072-7.071l-27.466-27.465l-27.466,27.465l7.071,7.071l15.392-15.392v62.355   c-10.02,9.229-21.941,17.942-35.52,25.907c-11.217,6.588-23.793,12.812-37.381,18.498c-11.658,4.889-24.293,9.488-37.554,13.67   c-11.884,3.756-24.554,7.275-37.655,10.463c-12.068,2.935-24.76,5.656-37.719,8.09c-12.319,2.304-25.029,4.393-37.775,6.207   c-12.284,1.751-24.998,3.31-37.792,4.632c-12.285,1.277-25.004,2.367-37.799,3.239c-15.357,1.034-55.046,1.972-65.072,1.972v10   c3.914,0,12.493-0.142,22.428-0.381v50.821H57.599v174.2h394.635v-174.2h-20.3V33.745z M393.946,129.147   c10.272-6.181,19.655-12.781,27.987-19.728v139.805h-27.987V129.147z M355.967,148.423c9.905-4.25,19.275-8.782,27.979-13.534   v114.336h-27.979V148.423z M317.986,162.595c9.717-3.143,19.086-6.506,27.98-10.039v96.669h-27.98V162.595z M280.006,173.416   c9.621-2.402,18.99-4.98,27.98-7.694v83.503h-27.98V173.416z M242.025,181.784c9.537-1.843,18.908-3.838,27.98-5.954v73.395h-27.98   V181.784z M204.035,188.207c9.42-1.388,18.789-2.917,27.99-4.571v65.589h-27.99V188.207z M166.055,193.035   c9.44-1.018,18.807-2.158,27.98-3.409v59.599h-27.98V193.035z M128.075,196.452c9.443-0.684,18.809-1.481,27.979-2.385v55.157   h-27.979V196.452z M90.095,198.142c10.028-0.284,20.315-0.644,27.98-1.04v52.123h-27.98V198.142z M442.233,259.224v154.201H67.599   V259.224H442.233z"></path></g></svg>