<svg height='100px' width='100px'  fill="#000000" xmlns="http://www.w3.org/2000/svg" xmlns:xlink="http://www.w3.org/1999/xlink" version="1.1" x="0px" y="0px" viewBox="0 0 512 512" style="enable-background:new 0 0 512 512;" xml:space="preserve"><title>PropertyRights-marketeconomy-ownership-asset-possession</title><path d="M464,48V16H48v416H16v9c0,30.4,24.6,55,55,55h369c30.9,0,56-25.1,56-56V48H464z M71,480c-18.8,0-35-13.5-38.4-32h343.9  c1.8,12.2,7.5,23.4,16.3,32H71z M480,440c0,22.1-17.9,40-40,40h-8c-22.1,0-40-17.9-40-40v-8H64V32h384v404c0,6.6-5.4,12-12,12  s-12-5.4-12-12v-36H80v16h328v20c0,15.5,12.5,28,28,28s28-12.5,28-28V64h16V440z"></path><rect x="184" y="56" width="144" height="16"></rect><path d="M368,256h-16v-85.6l-33.1-12.1L311.1,96h-37.8l-7.2,43.1l-18-6.6v32l-17.1-6.2L223.1,96h-37.8l-7.2,43.1l-18-6.6V256h-16v16  h224V256z M286.8,112h10.2l5,40.2l-20.6-7.5L286.8,112z M198.8,112h10.2l5,40.2l-20.6-7.5L198.8,112z M336,256H176V155.4l72,26.2  V240h16v-84.6l72,26.2V256z"></path><rect x="304" y="200" width="16" height="40"></rect><rect x="216" y="200" width="16" height="40"></rect><rect x="88" y="288" width="120" height="16"></rect><rect x="88" y="320" width="176" height="16"></rect><rect x="88" y="352" width="48" height="16"></rect><rect x="224" y="288" width="200" height="16"></rect><rect x="280" y="320" width="144" height="16"></rect><rect x="152" y="352" width="168" height="16"></rect></svg>