<svg height='100px' width='100px'  fill="#000000" xmlns="http://www.w3.org/2000/svg" data-name="Layer 1" viewBox="0 0 100 100" x="0px" y="0px"><title>Artboard 18</title><path d="M86.43,7.67H13.93a7,7,0,0,0-7,7V51.94a7,7,0,0,0,7,7H32.26L27,68.51a2,2,0,0,0,.31,2.34l4,4.2-8,14.08a2,2,0,0,0,3,2.56L44,77.69a2,2,0,0,0,.47-2.59l-3.2-5.35,11.8-10.81H86.43a7,7,0,0,0,7-7V14.67A7,7,0,0,0,86.43,7.67Zm3,44.28a3,3,0,0,1-3,3H52.29a2,2,0,0,0-1.35.52L37.36,67.9A2,2,0,0,0,37,70.4l3.14,5.25L32,82.13l3.64-6.39a2,2,0,0,0-.3-2.37l-4.06-4.22L37.38,57.9a2,2,0,0,0-1.76-3H13.93a3,3,0,0,1-3-3V14.67a3,3,0,0,1,3-3h72.5a3,3,0,0,1,3,3Z"></path><path d="M51,38h.12A2,2,0,0,0,53,35.91L52,19.48a2,2,0,0,0-4,.23l1,16.42A2,2,0,0,0,51,38Z"></path><path d="M51.29,41.37a2,2,0,0,0-1.88,2.11l.08,1.39a2,2,0,0,0,2,1.88h.12a2,2,0,0,0,1.88-2.11l-.08-1.39A2,2,0,0,0,51.29,41.37Z"></path><path d="M38.88,39.87l.33,0a2,2,0,0,0,1.64-2.3L38.13,21.31a2,2,0,0,0-3.95.66L36.91,38.2A2,2,0,0,0,38.88,39.87Z"></path><path d="M40.8,44.73a2,2,0,1,0-3.95.66l.23,1.38a2,2,0,0,0,2,1.67l.33,0A2,2,0,0,0,41,46.11Z"></path><path d="M67,20.5A2,2,0,0,0,64.58,22L60.7,38a2,2,0,1,0,3.89.94l3.87-16A2,2,0,0,0,67,20.5Z"></path><path d="M62.25,43.71a2,2,0,0,0-2.42,1.47l-.33,1.36A2,2,0,0,0,61,49a2,2,0,0,0,.47.06,2,2,0,0,0,1.94-1.53l.33-1.36A2,2,0,0,0,62.25,43.71Z"></path></svg>